<?xml version="1.0" encoding="UTF-8" standalone="no"?>
<!-- Created with Inkscape (http://www.inkscape.org/) -->

<svg
   xmlns:dc="http://purl.org/dc/elements/1.1/"
   xmlns:cc="http://creativecommons.org/ns#"
   xmlns:rdf="http://www.w3.org/1999/02/22-rdf-syntax-ns#"
   xmlns:svg="http://www.w3.org/2000/svg"
   xmlns="http://www.w3.org/2000/svg"
   xmlns:sodipodi="http://sodipodi.sourceforge.net/DTD/sodipodi-0.dtd"
   xmlns:inkscape="http://www.inkscape.org/namespaces/inkscape"
   width="370"
   height="320"
   id="svg3172"
   version="1.1"
   inkscape:version="0.92.3 (2405546, 2018-03-11)"
   sodipodi:docname="[11]指導.svg"
   inkscape:export-filename="C:\Users\zhen-\Desktop\資料\臨時\LEGEND2\[11]指導.png"
   inkscape:export-xdpi="96"
   inkscape:export-ydpi="96">
  <defs
     id="defs3174">
    <linearGradient
       id="linearGradient5052">
      <stop
         style="stop-color:#003645;stop-opacity:0.77310926;"
         offset="0"
         id="stop5054" />
      <stop
         style="stop-color:#004b72;stop-opacity:0;"
         offset="1"
         id="stop5056" />
    </linearGradient>
  </defs>
  <sodipodi:namedview
     id="base"
     pagecolor="#ffffff"
     bordercolor="#666666"
     borderopacity="1.0"
     inkscape:pageopacity="0.0"
     inkscape:pageshadow="2"
     inkscape:zoom="0.685"
     inkscape:cx="-250.57803"
     inkscape:cy="166.65866"
     inkscape:document-units="px"
     inkscape:current-layer="layer3"
     showgrid="false"
     inkscape:window-width="1749"
     inkscape:window-height="1039"
     inkscape:window-x="84"
     inkscape:window-y="0"
     inkscape:window-maximized="0"
     inkscape:snap-global="false" />
  <metadata
     id="metadata3177">
    <rdf:RDF>
      <cc:Work
         rdf:about="">
        <dc:format>image/svg+xml</dc:format>
        <dc:type
           rdf:resource="http://purl.org/dc/dcmitype/StillImage" />
        <dc:title></dc:title>
      </cc:Work>
    </rdf:RDF>
  </metadata>
  <g
     inkscape:label="補助線"
     inkscape:groupmode="layer"
     id="layer1"
     transform="translate(0,-732.36218)"
     sodipodi:insensitive="true"
     style="display:none">
    <path
       style="display:inline;fill:none;stroke:#0000ff;stroke-width:1px;stroke-linecap:butt;stroke-linejoin:miter;stroke-opacity:1"
       d="M 10,1042.3622 360,742.36211"
       id="path3025"
       inkscape:connector-curvature="0"
       sodipodi:nodetypes="cc" />
    <path
       style="display:inline;fill:none;stroke:#0000ff;stroke-width:1px;stroke-linecap:butt;stroke-linejoin:miter;stroke-opacity:1"
       d="M 10,742.36211 360,1042.3622"
       id="path3027"
       inkscape:connector-curvature="0"
       sodipodi:nodetypes="cc" />
    <path
       style="display:inline;fill:none;stroke:#ff0000;stroke-width:1px;stroke-linecap:butt;stroke-linejoin:miter;stroke-opacity:1"
       d="M 10,732.36211 V 1052.3622"
       id="path3006"
       inkscape:connector-curvature="0"
       sodipodi:nodetypes="cc" />
    <path
       style="display:inline;fill:none;stroke:#ff0000;stroke-width:1px;stroke-linecap:butt;stroke-linejoin:miter;stroke-opacity:1"
       d="M 360,732.36211 V 1052.3622"
       id="path3010"
       inkscape:connector-curvature="0"
       sodipodi:nodetypes="cc" />
    <path
       style="display:inline;fill:none;stroke:#ff0000;stroke-width:1px;stroke-linecap:butt;stroke-linejoin:miter;stroke-opacity:1"
       d="m 0,742.36208 370,3e-5"
       id="path3016"
       inkscape:connector-curvature="0" />
    <path
       style="display:inline;fill:none;stroke:#ff0000;stroke-width:1px;stroke-linecap:butt;stroke-linejoin:miter;stroke-opacity:1"
       d="M 0,1042.3622 H 370"
       id="path3018"
       inkscape:connector-curvature="0"
       sodipodi:nodetypes="cc" />
  </g>
  <g
     inkscape:groupmode="layer"
     id="layer5"
     inkscape:label="作業"
     style="display:none">
    <g
       id="g1761">
      <path
         style="display:inline;fill:#784421;stroke:#000000;stroke-width:1.99999988;stroke-linecap:round;stroke-linejoin:round;stroke-opacity:1"
         d="m 93.130447,389.06613 2,-56 6.000003,-2 6,2 2,56 -8,2 z"
         id="path4319-7-7-2-9-3-1"
         inkscape:connector-curvature="0"
         sodipodi:nodetypes="ccccccc" />
      <path
         sodipodi:nodetypes="ccccccc"
         inkscape:connector-curvature="0"
         id="path5250-1-4-8"
         d="m 125.13045,389.06613 v -4 l -2,-4 -22,-2 -24.000003,2 -2,4 v 4"
         style="display:inline;fill:#d4aa00;stroke:#000000;stroke-width:1.99999988;stroke-linecap:round;stroke-linejoin:round;stroke-opacity:1" />
      <path
         sodipodi:nodetypes="ccccccccc"
         inkscape:connector-curvature="0"
         id="path5254-8-7-4"
         d="m 125.13045,389.06613 -2,4 -22,2 -24.000003,-2 -2,-4 2,-4 24.000003,-2 22,2 z"
         style="display:inline;fill:#d4aa00;stroke:#000000;stroke-width:1.99999988;stroke-linecap:round;stroke-linejoin:round;stroke-opacity:1" />
      <path
         style="display:inline;fill:#e3dbdb;stroke:#000000;stroke-width:1.99999988;stroke-linecap:round;stroke-linejoin:round;stroke-opacity:1"
         d="m 93.130447,389.06613 -2,112 10.000003,36 10,-36 -2,-112 -8,-2 z"
         id="path3402-36-8-2-3-5-7"
         inkscape:connector-curvature="0"
         sodipodi:nodetypes="ccccccc" />
      <path
         style="display:inline;fill:#0088aa;stroke:#000000;stroke-width:1.99999988;stroke-linecap:round;stroke-linejoin:round;stroke-opacity:1"
         d="m 101.13045,387.06613 v 74 l -2,26 2,22 v 6 -6 l 2,-22 -2,-26 z"
         id="path3404-5-3-1-9-0-5"
         inkscape:connector-curvature="0"
         sodipodi:nodetypes="ccccccccc" />
    </g>
    <g
       id="g1835"
       transform="translate(-215.57004,177.4873)"
       style="display:inline;stroke-width:2">
      <path
         style="display:inline;fill:#784421;stroke:#000000;stroke-width:2;stroke-linecap:round;stroke-linejoin:round;stroke-opacity:1"
         d="m 242.63504,231.6892 2,-30.13106 6,-3.07611 6,3.07611 2,30.13106 -8,1.07611 z"
         id="path4319-7-7-2-9-3-1-2"
         inkscape:connector-curvature="0"
         sodipodi:nodetypes="ccccccc" />
      <path
         sodipodi:nodetypes="ccccccc"
         inkscape:connector-curvature="0"
         id="path5250-1-4-8-9"
         d="m 274.63504,231.6892 v -2.15222 l -2,-4.15222 -22,-3.07611 -24,3.07611 -2,4.15222 v 2.15222"
         style="display:inline;fill:#d4aa00;stroke:#000000;stroke-width:2;stroke-linecap:round;stroke-linejoin:round;stroke-opacity:1" />
      <path
         sodipodi:nodetypes="ccccccccc"
         inkscape:connector-curvature="0"
         id="path5254-8-7-4-0"
         d="m 274.63504,231.6892 -2,4.15222 -22,3.07611 -24,-3.07611 -2,-4.15222 2,-4.15222 24,-3.07611 22,3.07611 z"
         style="display:inline;fill:#d4aa00;stroke:#000000;stroke-width:2;stroke-linecap:round;stroke-linejoin:round;stroke-opacity:1" />
      <path
         style="display:inline;fill:#e3dbdb;stroke:#000000;stroke-width:2;stroke-linecap:round;stroke-linejoin:round;stroke-opacity:1"
         d="m 242.63504,231.6892 -6,60.26213 14,43.36997 14,-43.36997 -6,-60.26213 -8,-1.7148 z"
         id="path3402-36-8-2-3-5-7-0"
         inkscape:connector-curvature="0"
         sodipodi:nodetypes="ccccccc" />
      <path
         style="display:inline;fill:#0088aa;stroke:#000000;stroke-width:2;stroke-linecap:round;stroke-linejoin:round;stroke-opacity:1"
         d="m 250.63504,229.9744 v 50.45474 l -4,9.98943 4,15.8372 v 7.22833 -7.22833 l 4,-15.8372 -4,-9.98943 z"
         id="path3404-5-3-1-9-0-5-4"
         inkscape:connector-curvature="0"
         sodipodi:nodetypes="ccccccccc" />
    </g>
  </g>
  <g
     inkscape:groupmode="layer"
     id="layer6"
     inkscape:label="豚.02"
     sodipodi:insensitive="true">
    <ellipse
       style="display:inline;opacity:0.5;fill:#000000;fill-opacity:1;stroke:none;stroke-width:2;stroke-linecap:round;stroke-linejoin:round;stroke-miterlimit:4;stroke-dasharray:none;stroke-dashoffset:0;stroke-opacity:1"
       id="path1971-2"
       cx="74.969711"
       cy="292.00146"
       rx="64.581451"
       ry="5.3834033" />
    <g
       transform="matrix(0.95829312,0,0,0.95829312,-16.262819,41.794506)"
       style="display:inline;stroke-width:2.087044"
       id="g2098">
      <path
         sodipodi:nodetypes="cscccc"
         inkscape:connector-curvature="0"
         id="path6512-0-2-1-3-0-4"
         d="m 43.980634,186.29067 c -7.924033,22.57947 -1.60532,47.79128 11.866344,60.42748 29.374157,27.55248 69.076212,8.59588 97.980152,4.61868 7.65254,-9.51874 1.94224,-57.05954 -9.02124,-75.01774 l -15.86868,-19.51033 z"
         style="display:inline;fill:#ffd5d5;stroke:#000000;stroke-width:2.087044;stroke-linecap:round;stroke-linejoin:round;stroke-opacity:1" />
      <path
         sodipodi:nodetypes="csc"
         inkscape:connector-curvature="0"
         id="path6968-1-2"
         d="m 131.35872,178.04249 c -3.10609,8.33891 -5.82757,27.16462 6.66308,21.9344 12.92697,-5.41294 17.88525,-36.9841 -5.57782,-45.63731"
         style="display:inline;fill:#ffd5d5;stroke:#000000;stroke-width:2.087044;stroke-linecap:round;stroke-linejoin:round;stroke-opacity:1" />
      <path
         sodipodi:nodetypes="cccc"
         inkscape:connector-curvature="0"
         id="path6510-3-85-7-4"
         d="m 45.725633,188.38979 46.837694,-75.22103 c 23.164973,-2.53372 33.137763,15.13831 31.494263,22.58286 l 7.42784,28.41834"
         style="display:inline;fill:#ffd5d5;stroke:#000000;stroke-width:2.087044;stroke-linecap:round;stroke-linejoin:round;stroke-opacity:1" />
      <path
         sodipodi:nodetypes="csc"
         inkscape:connector-curvature="0"
         id="path6506-3-1-3-6"
         d="m 104.40948,117.47881 c -21.737194,-12.97025 -55.339349,1.14767 -61.208401,32.56649 -4.559776,24.40982 -0.938788,35.41177 3.000136,39.60936"
         style="display:inline;fill:#ffd5d5;stroke:#000000;stroke-width:2.087044;stroke-linecap:round;stroke-linejoin:round;stroke-opacity:1" />
      <path
         sodipodi:nodetypes="csc"
         inkscape:connector-curvature="0"
         id="path6508-4-6-8-1"
         d="m 52.451437,132.40116 c -16.806238,8.76592 -18.498307,37.583 -4.130508,48.37787 7.850281,5.8981 9.814289,-18.62274 12.688209,-25.90334"
         style="display:inline;fill:#ffd5d5;stroke:#000000;stroke-width:2.087044;stroke-linecap:round;stroke-linejoin:round;stroke-opacity:1" />
      <path
         sodipodi:nodetypes="ssssss"
         inkscape:connector-curvature="0"
         id="path6516-1-7-4-8"
         d="m 104.61435,146.07783 c 5.53862,-2.84931 11.9309,0.69672 15.98193,5.87513 4.01777,5.13588 4.37341,11.37532 -0.61975,13.68794 -5.56644,2.57815 -11.18904,6.41634 -16.82147,10.38226 -7.598841,5.35052 -11.955536,-2.39311 -10.04578,-11.64059 1.810498,-8.76686 5.93197,-15.43768 11.50507,-18.30474 z"
         style="display:inline;fill:#ffaaaa;stroke:#000000;stroke-width:2.087044;stroke-linecap:round;stroke-linejoin:round;stroke-opacity:1" />
      <path
         sodipodi:nodetypes="cc"
         inkscape:connector-curvature="0"
         id="path6518-1-61-2-4"
         d="m 91.570106,148.80788 -2.073194,-2.42123"
         style="display:inline;fill:none;stroke:#000000;stroke-width:2.087044;stroke-linecap:round;stroke-linejoin:round;stroke-opacity:1" />
      <path
         sodipodi:nodetypes="sss"
         inkscape:connector-curvature="0"
         id="path6524-3-8-7-9"
         d="m 110.42318,151.81379 c 1.31373,-0.66562 5.71908,5.60468 4.36992,9.84218 -0.90094,2.82969 -5.56218,-9.23811 -4.36992,-9.84218 z"
         style="display:inline;fill:#000000;stroke:#000000;stroke-width:2.087044;stroke-linecap:round;stroke-linejoin:round;stroke-opacity:1" />
      <path
         sodipodi:nodetypes="sss"
         inkscape:connector-curvature="0"
         id="path6526-2-9-7-6"
         d="m 103.53195,155.62238 c 0.94363,-0.53496 0.50831,14.23692 -1.0168,12.85141 -3.305632,-3.00305 -1.36364,-11.5019 1.0168,-12.85141 z"
         style="display:inline;fill:#000000;stroke:#000000;stroke-width:2.087044;stroke-linecap:round;stroke-linejoin:round;stroke-opacity:1" />
      <path
         sodipodi:nodetypes="cc"
         inkscape:connector-curvature="0"
         id="path3314-5-2-9-3"
         d="m 106.62614,137.6745 1.09124,1.84703"
         style="display:inline;fill:none;stroke:#000000;stroke-width:2.087044;stroke-linecap:round;stroke-linejoin:round;stroke-opacity:1" />
      <path
         sodipodi:nodetypes="cc"
         inkscape:connector-curvature="0"
         id="path6520-3-7-9-9"
         d="m 130.68069,168.13777 c 6.37005,-12.07983 0.44849,-28.23516 -10.51903,-35.46804"
         style="display:inline;fill:#ffd5d5;stroke:#000000;stroke-width:2.087044;stroke-linecap:round;stroke-linejoin:round;stroke-opacity:1" />
      <path
         sodipodi:nodetypes="csc"
         inkscape:connector-curvature="0"
         id="path6968-2-6-1"
         d="m 96.731171,212.74312 c 10.955739,-3.67236 22.974299,-7.43971 21.781319,-16.24839 -1.34731,-9.94819 -16.85873,-19.32129 -36.2728,-17.91314"
         style="display:inline;fill:#ffd5d5;stroke:#000000;stroke-width:2.087044;stroke-linecap:round;stroke-linejoin:round;stroke-opacity:1" />
    </g>
  </g>
  <g
     inkscape:groupmode="layer"
     id="layer4"
     inkscape:label="吹き出し"
     style="display:inline"
     sodipodi:insensitive="true">
    <path
       style="display:inline;fill:#fefefe;fill-opacity:1;stroke:#000000;stroke-width:2;stroke-linecap:round;stroke-linejoin:round"
       d="m 358.80089,60.469513 c 0,21.004954 -27.87843,38.946395 -67.17671,46.081167 -11.51663,2.09089 -11.26064,21.04347 -32.55626,28.07842 8.62901,-7.44053 4.12368,-24.78394 -5.21512,-24.78394 -57.96122,0 -104.94809,-22.106229 -104.94809,-49.375647 0,-27.269402 46.98687,-49.375632 104.94809,-49.375632 57.96122,0 104.94809,22.10623 104.94809,49.375632 z"
       id="path23824"
       inkscape:connector-curvature="0"
       sodipodi:nodetypes="sscssss" />
    <text
       xml:space="preserve"
       style="font-style:normal;font-weight:normal;font-size:12.69956779px;line-height:1;font-family:sans-serif;letter-spacing:0px;word-spacing:0px;writing-mode:lr-tb;display:inline;fill:#000000;fill-opacity:1;stroke:none;stroke-width:1.90937257;stroke-linecap:round"
       x="191.41885"
       y="53.189259"
       id="text13157"><tspan
         sodipodi:role="line"
         x="191.41885"
         y="53.189259"
         id="tspan23822"
         style="font-size:30.61451149px;line-height:1;font-family:sans-serif;stroke-width:1.90937257;stroke-linecap:round">下がって</tspan><tspan
         sodipodi:role="line"
         x="191.41885"
         y="83.803772"
         style="font-size:30.61451149px;line-height:1;font-family:sans-serif;stroke-width:1.90937257;stroke-linecap:round"
         id="tspan2404">いなさい。</tspan></text>
  </g>
  <g
     inkscape:groupmode="layer"
     id="layer3"
     inkscape:label="豚.01"
     style="display:inline"
     sodipodi:insensitive="true">
    <ellipse
       style="opacity:0.5;fill:#000000;fill-opacity:1;stroke:none;stroke-width:2;stroke-linecap:round;stroke-linejoin:round;stroke-miterlimit:4;stroke-dasharray:none;stroke-dashoffset:0;stroke-opacity:1"
       id="path1971"
       cx="181.80356"
       cy="298.93866"
       rx="113.42643"
       ry="6.4507918" />
    <path
       inkscape:connector-curvature="0"
       id="path5105-1-4-55-1-28-76-6-7-0-4"
       d="m 90.40508,281.38501 c 39.38436,-3.95715 115.27019,30.3019 171.20571,1.25164 -3.27508,-55.00047 -22.66966,-57.04773 -30.65822,-90.83756 L 121.14273,177.49992 c -7.73673,34.12997 -33.406757,59.3493 -30.73765,103.88509 z"
       style="display:inline;fill:#501616;stroke:#000000;stroke-width:2;stroke-linecap:round;stroke-linejoin:round"
       sodipodi:nodetypes="ccccc" />
    <path
       style="display:inline;fill:#483737;stroke:#000000;stroke-width:2;stroke-linecap:round;stroke-linejoin:round"
       d="m 250.17835,207.95053 -7.82515,-13.98581 -18.34885,-2.40669 -1.87575,6.67618 c 12.3482,4.00777 22.52793,12.45887 25.38293,12.1701"
       id="path4113-8-3-8"
       inkscape:connector-curvature="0"
       sodipodi:nodetypes="ccccc" />
    <path
       style="display:inline;fill:#ffd5d5;stroke:#000000;stroke-width:2;stroke-linecap:round;stroke-linejoin:round;stroke-opacity:1"
       d="m 242.92521,280.31012 c 7.95204,3.95727 11.65662,17.4265 -2.07255,18.96386 -4.65083,0.52079 -23.27515,0.75997 -42.84948,-1.35506 l 40.3071,-62.19471 z"
       id="path155-4-9"
       inkscape:connector-curvature="0"
       sodipodi:nodetypes="csccc" />
    <path
       style="display:inline;fill:#ffd5d5;stroke:#000000;stroke-width:2;stroke-linecap:round;stroke-linejoin:round;stroke-opacity:1"
       d="m 219.08545,294.82679 c -25.84672,4.54298 -60.10996,7.27136 -94.7997,0.0237 -17.34146,-5.65585 -16.91655,-45.28663 -1.58922,-73.4746 l -0.45665,-45.66051 108.71269,16.08375 c 11.52672,9.30859 24.00672,31.73143 13.32825,46.1644"
       id="path118"
       inkscape:connector-curvature="0"
       sodipodi:nodetypes="cccccc" />
    <path
       sodipodi:nodetypes="ccccccc"
       inkscape:connector-curvature="0"
       id="path4319-7-7-2-9-3-1-2-6"
       d="m 100.42433,235.41832 21.87786,-18.70356 6.19849,1.32338 2.0108,5.37009 -19.14142,20.93472 -6.20535,-3.75449 z"
       style="display:inline;fill:#784421;stroke:#000000;stroke-width:2;stroke-linecap:round;stroke-linejoin:round;stroke-opacity:1" />
    <path
       style="display:inline;fill:#c8b7b7;stroke:#000000;stroke-width:2;stroke-linecap:round;stroke-linejoin:round"
       d="m 224.00435,191.55802 1.3019,-4.4684 14.11447,3.14637 9.79691,11.19944 c 1.83986,4.52373 2.02209,9.97931 -1.7061,8.96888 1.8232,-0.39562 2.14673,-2.4906 1.07084,-4.08549 -3.70909,-5.50022 -19.73167,-13.06346 -24.57846,-14.76091"
       id="path4113-8-3"
       inkscape:connector-curvature="0"
       sodipodi:nodetypes="cccccsc" />
    <path
       style="display:inline;fill:#ffd5d5;stroke:#000000;stroke-width:2;stroke-linecap:round;stroke-linejoin:round;stroke-opacity:1"
       d="m 235.52646,211.52743 c 18.3574,29.80067 20.97085,59.43369 -0.33314,77.28199"
       id="path155"
       inkscape:connector-curvature="0"
       sodipodi:nodetypes="cc" />
    <path
       style="display:inline;fill:#000080;stroke:#000000;stroke-width:2;stroke-linecap:round;stroke-linejoin:round"
       d="m 225.30625,187.08962 3.17401,-4.76028 c 6.02442,1.38878 18.032,9.01398 20.73737,19.10609 -5.66541,-6.662 -17.87566,-11.98949 -23.91138,-14.34581 z"
       id="path4328-0-98-5"
       inkscape:connector-curvature="0"
       sodipodi:nodetypes="cccc" />
    <path
       inkscape:connector-curvature="0"
       id="path5105-1-4-55-1-28-76-6-7-0-4-4"
       d="m 114.48878,296.58267 c -24.787706,-31.5522 1.46187,-68.3871 6.65395,-119.08275 -16.52462,43.92023 -53.048417,77.59958 -30.73765,103.88509 9.525359,11.22234 17.06588,12.40773 24.0837,15.19766 z"
       style="display:inline;fill:#c83737;stroke:#000000;stroke-width:2;stroke-linecap:round;stroke-linejoin:round"
       sodipodi:nodetypes="ccsc" />
    <path
       style="display:inline;fill:#ffd5d5;stroke:#000000;stroke-width:2;stroke-linecap:round;stroke-linejoin:round;stroke-opacity:1"
       d="m 125.42268,180.42527 c -15.61852,7.33577 -32.184095,47.53063 -19.66538,56.9666 9.7776,7.36985 18.49319,-1.16553 37.13476,-2.90312"
       id="path5144-0-0-7"
       inkscape:connector-curvature="0"
       sodipodi:nodetypes="csc" />
    <g
       style="display:inline;stroke-width:1.92027152"
       id="g151"
       transform="matrix(1.0415194,0,0,1.0415194,-43.436594,20.484214)">
      <path
         sodipodi:nodetypes="cccc"
         inkscape:connector-curvature="0"
         id="path5091-2-40-9-2-1-3-4-0"
         d="m 159.0719,149.04295 86.31788,-45.22641 c 14.48953,6.0439 23.76837,21.93435 19.396,31.70757 l -3.57282,35.0177"
         style="display:inline;fill:#ffd5d5;stroke:#000000;stroke-width:1.92027152;stroke-linecap:round;stroke-linejoin:round;stroke-opacity:1" />
      <path
         sodipodi:nodetypes="csc"
         inkscape:connector-curvature="0"
         id="path12515-4-8"
         d="M 253.09155,112.27746 C 236.97011,87.5586 203.08931,89.513863 185.28262,106.42478 165.9775,124.75875 151.23551,147.75767 156.90703,160.83463"
         style="display:inline;fill:#ffd5d5;stroke:#000000;stroke-width:1.92027152;stroke-linecap:round;stroke-linejoin:round;stroke-opacity:1" />
      <path
         sodipodi:nodetypes="cc"
         inkscape:connector-curvature="0"
         id="path4041-7-5-3-1"
         d="m 259.75554,174.18536 c 12.29952,-10.46083 11.28561,-30.63841 3.09267,-42.79763"
         style="display:inline;fill:#ffd5d5;stroke:#000000;stroke-width:1.92027152;stroke-linecap:round;stroke-linejoin:round;stroke-opacity:1" />
      <path
         inkscape:connector-curvature="0"
         id="path5095-5-4-8-5-1-1-9-8"
         d="m 250.52975,124.7599 -0.68421,5.61818"
         style="display:inline;fill:none;stroke:#000000;stroke-width:1.92027152;stroke-linecap:round;stroke-linejoin:round;stroke-opacity:1"
         sodipodi:nodetypes="cc" />
      <path
         inkscape:connector-curvature="0"
         id="path5097-5-8-8-5-1-2-8-2"
         d="m 228.85286,125.02371 5.46102,5.55166"
         style="display:inline;fill:none;stroke:#000000;stroke-width:1.92027152;stroke-linecap:round;stroke-linejoin:round;stroke-opacity:1"
         sodipodi:nodetypes="cc" />
      <path
         sodipodi:nodetypes="csc"
         inkscape:connector-curvature="0"
         id="path5099-1-8-2-7-5-0-8-6"
         d="m 198.07635,99.484636 c -26.76559,0.742554 -38.52612,27.268934 -27.2635,42.272384 4.5661,6.08271 16.59924,-8.89565 23.69545,-16.32714"
         style="display:inline;fill:#ffd5d5;stroke:#000000;stroke-width:1.92027152;stroke-linecap:round;stroke-linejoin:round;stroke-opacity:1" />
      <path
         sodipodi:nodetypes="ssssss"
         inkscape:connector-curvature="0"
         id="path5101-7-2-4-1-2-1-08-6"
         d="m 245.02755,135.3361 c -7.21653,0.19532 -15.15783,5.10864 -20.70317,12.21618 -6.8778,8.81533 -7.03736,19.18642 4.13011,17.94787 7.95926,-0.88274 16.28621,-1.23922 22.49011,-0.37296 7.06086,0.9859 7.79762,-8.71358 6.76013,-15.51886 -1.08558,-7.12056 -6.45851,-14.44054 -12.67718,-14.27223 z"
         style="display:inline;fill:#ffaaaa;stroke:#000000;stroke-width:1.92027152;stroke-linecap:round;stroke-linejoin:round;stroke-opacity:1" />
      <path
         inkscape:connector-curvature="0"
         id="path5105-1-4-55-1-28-76-6-7-0"
         d="m 231.65752,158.39788 c 1.13017,3.52106 10.30724,-12.44513 8.59436,-13.08036 -2.06312,-0.7651 -10.32327,7.69389 -8.59436,13.08036 z"
         style="display:inline;fill:#000000;stroke:#000000;stroke-width:1.92027152;stroke-linecap:round;stroke-linejoin:round"
         sodipodi:nodetypes="sss" />
      <path
         inkscape:connector-curvature="0"
         id="path5107-1-5-1-5-1-4-7-3"
         d="m 247.02641,145.09934 c -1.10842,-0.42098 -1.48322,13.74634 0.97962,13.19319 3.52056,-0.79068 1.32234,-12.31898 -0.97962,-13.19319 z"
         style="display:inline;fill:#000000;stroke:#000000;stroke-width:1.92027152;stroke-linecap:round;stroke-linejoin:round"
         sodipodi:nodetypes="sss" />
    </g>
    <path
       style="display:inline;fill:#c8b7b7;fill-opacity:1;stroke:#000000;stroke-width:2;stroke-linecap:round;stroke-linejoin:round;stroke-opacity:1"
       d="m 117.17949,175.06846 c 16.18349,-11.48619 43.83663,19.57031 32.40823,22.66001 -21.02595,5.68442 -41.72715,14.16639 -46.72267,10.99142 -2.68865,-1.70882 -3.143422,-5.83697 -2.24897,-10.66224 l 13.80708,-20.55773 c 1.00597,-1.09043 1.71773,-1.69431 2.75633,-2.43146 z"
       id="path4132-3-2"
       inkscape:connector-curvature="0"
       sodipodi:nodetypes="sssccs" />
    <path
       style="display:inline;fill:#000080;fill-opacity:1;stroke:#000000;stroke-width:2;stroke-linecap:round;stroke-linejoin:round;stroke-opacity:1"
       d="m 114.42316,177.49992 c 10.36328,-9.92842 24.61082,1.93207 28.7124,15.13582 -12.66688,5.10268 -32.58633,12.451 -38.16453,12.50728 -4.62896,0.0467 -4.91566,-4.5925 -4.35495,-7.08537 1.6352,-7.26986 8.13077,-15.1196 13.80708,-20.55773 z"
       id="path4134-7-5"
       inkscape:connector-curvature="0"
       sodipodi:nodetypes="scsss" />
    <path
       style="display:inline;fill:#ffd5d5;stroke:#000000;stroke-width:2;stroke-linecap:round;stroke-linejoin:round;stroke-opacity:1"
       d="m 170.00053,287.53971 c 10.10231,3.95726 5.01577,14.35839 -4.41287,15.35819 -4.6538,0.49349 -58.56745,2.13575 -43.27676,-15.99637"
       id="path155-4-9-1"
       inkscape:connector-curvature="0"
       sodipodi:nodetypes="csc" />
    <g
       id="g1896"
       transform="matrix(1.0415194,0,0,1.0415194,-40.591315,14.310117)"
       style="stroke-width:1.92027152">
      <path
         sodipodi:nodetypes="ccccccc"
         inkscape:connector-curvature="0"
         id="path5250-1-4-8-9-6"
         d="m 156.41293,229.43158 1.40658,-1.35922 1.39999,-3.69341 -12.44004,-13.72486 -17.77446,-10.91057 -4.02734,1.5512 -1.40658,1.35922"
         style="display:inline;fill:#d4aa00;stroke:#000000;stroke-width:1.92027152;stroke-linecap:round;stroke-linejoin:round;stroke-opacity:1" />
      <path
         sodipodi:nodetypes="ccccccccc"
         inkscape:connector-curvature="0"
         id="path5254-8-7-4-0-5"
         d="m 156.41293,229.43158 -4.02734,1.5512 -16.46079,-9.83946 -13.75371,-14.79597 1.39999,-3.69341 4.02734,-1.5512 17.77447,10.91057 12.44003,13.72486 z"
         style="display:inline;fill:#d4aa00;stroke:#000000;stroke-width:1.92027152;stroke-linecap:round;stroke-linejoin:round;stroke-opacity:1" />
      <path
         style="display:inline;fill:#e3dbdb;stroke:#000000;stroke-width:1.92027152;stroke-linecap:round;stroke-linejoin:round;stroke-opacity:1"
         d="m 135.39415,212.29389 -43.325101,34.84482 -19.148553,34.88775 37.539994,-19.89227 35.44305,-41.27145 -4.134,-5.3674 z"
         id="path3402-36-8-2-3-5-7-0-5"
         inkscape:connector-curvature="0"
         sodipodi:nodetypes="ccccccc" />
      <path
         style="display:inline;fill:#0088aa;stroke:#000000;stroke-width:1.92027152;stroke-linecap:round;stroke-linejoin:round;stroke-opacity:1"
         d="m 141.76954,215.49534 -26.36222,25.4747 -14.47783,11.20137 -9.013332,11.49891 -4.724047,4.56501 4.724047,-4.56501 11.558312,-9.02097 11.93285,-13.67931 z"
         id="path3404-5-3-1-9-0-5-4-6"
         inkscape:connector-curvature="0"
         sodipodi:nodetypes="ccccccccc" />
    </g>
  </g>
  <g
     inkscape:groupmode="layer"
     id="layer2"
     inkscape:label="枠面"
     sodipodi:insensitive="true">
    <path
       style="fill:#ffffff;stroke:none;display:inline"
       d="m 0,0 0,320 370,0 0,-320 -10,10 0,300 -350,0 0,-300 350,0 10,-10 z"
       id="path21072"
       inkscape:connector-curvature="0"
       sodipodi:nodetypes="ccccccccccc" />
  </g>
</svg>
