<?xml version="1.0" encoding="UTF-8" standalone="no"?>
<svg
   xmlns:dc="http://purl.org/dc/elements/1.1/"
   xmlns:cc="http://creativecommons.org/ns#"
   xmlns:rdf="http://www.w3.org/1999/02/22-rdf-syntax-ns#"
   xmlns:svg="http://www.w3.org/2000/svg"
   xmlns="http://www.w3.org/2000/svg"
   xmlns:sodipodi="http://sodipodi.sourceforge.net/DTD/sodipodi-0.dtd"
   xmlns:inkscape="http://www.inkscape.org/namespaces/inkscape"
   width="370"
   height="320"
   id="svg3172"
   version="1.1"
   inkscape:version="1.0.2-2 (e86c870879, 2021-01-15)"
   sodipodi:docname="[36]達観.svg"
   inkscape:export-filename="C:\Users\zhen-\Desktop\資料\臨時\LEGEND2\[36]達観.png"
   inkscape:export-xdpi="96"
   inkscape:export-ydpi="96">
  <defs
     id="defs3174" />
  <sodipodi:namedview
     id="base"
     pagecolor="#ffffff"
     bordercolor="#666666"
     borderopacity="1.0"
     inkscape:pageopacity="0.0"
     inkscape:pageshadow="2"
     inkscape:zoom="1.6275368"
     inkscape:cx="-7.7865217"
     inkscape:cy="77.788951"
     inkscape:document-units="px"
     inkscape:current-layer="layer5"
     showgrid="false"
     inkscape:window-width="1700"
     inkscape:window-height="1033"
     inkscape:window-x="98"
     inkscape:window-y="0"
     inkscape:window-maximized="0"
     inkscape:snap-global="false"
     inkscape:document-rotation="0" />
  <metadata
     id="metadata3177">
    <rdf:RDF>
      <cc:Work
         rdf:about="">
        <dc:format>image/svg+xml</dc:format>
        <dc:type
           rdf:resource="http://purl.org/dc/dcmitype/StillImage" />
        <dc:title />
      </cc:Work>
    </rdf:RDF>
  </metadata>
  <g
     inkscape:label="補助線"
     inkscape:groupmode="layer"
     id="layer1"
     transform="translate(0,-732.36218)"
     sodipodi:insensitive="true"
     style="display:none">
    <path
       style="display:inline;fill:none;stroke:#0000ff;stroke-width:1px;stroke-linecap:butt;stroke-linejoin:miter;stroke-opacity:1"
       d="M 10,1042.3622 360,742.36211"
       id="path3025"
       inkscape:connector-curvature="0"
       sodipodi:nodetypes="cc" />
    <path
       style="display:inline;fill:none;stroke:#0000ff;stroke-width:1px;stroke-linecap:butt;stroke-linejoin:miter;stroke-opacity:1"
       d="M 10,742.36211 360,1042.3622"
       id="path3027"
       inkscape:connector-curvature="0"
       sodipodi:nodetypes="cc" />
    <path
       style="display:inline;fill:none;stroke:#ff0000;stroke-width:1px;stroke-linecap:butt;stroke-linejoin:miter;stroke-opacity:1"
       d="M 10,732.36211 V 1052.3622"
       id="path3006"
       inkscape:connector-curvature="0"
       sodipodi:nodetypes="cc" />
    <path
       style="display:inline;fill:none;stroke:#ff0000;stroke-width:1px;stroke-linecap:butt;stroke-linejoin:miter;stroke-opacity:1"
       d="M 360,732.36211 V 1052.3622"
       id="path3010"
       inkscape:connector-curvature="0"
       sodipodi:nodetypes="cc" />
    <path
       style="display:inline;fill:none;stroke:#ff0000;stroke-width:1px;stroke-linecap:butt;stroke-linejoin:miter;stroke-opacity:1"
       d="m 0,742.36208 370,3e-5"
       id="path3016"
       inkscape:connector-curvature="0" />
    <path
       style="display:inline;fill:none;stroke:#ff0000;stroke-width:1px;stroke-linecap:butt;stroke-linejoin:miter;stroke-opacity:1"
       d="M 0,1042.3622 H 370"
       id="path3018"
       inkscape:connector-curvature="0"
       sodipodi:nodetypes="cc" />
  </g>
  <g
     inkscape:groupmode="layer"
     id="layer3"
     inkscape:label="豚.02"
     style="display:inline;mix-blend-mode:normal"
     sodipodi:insensitive="true">
    <ellipse
       style="opacity:0.5;fill:#000000;fill-opacity:1;stroke:none;stroke-width:2;stroke-linecap:round;stroke-linejoin:round;stroke-miterlimit:4;stroke-dasharray:none;stroke-dashoffset:0;stroke-opacity:1"
       id="path977"
       cx="302.39786"
       cy="252.7345"
       rx="49.083153"
       ry="8.7910118" />
    <path
       style="display:inline;fill:#ffd5d5;stroke:#000000;stroke-width:2;stroke-linecap:round;stroke-linejoin:round;stroke-opacity:1"
       d="m 272.46903,186.04758 c -12.67155,10.42075 -13.0963,29.05337 -8.09691,34.08667 l 3.56688,20.90293 c -6.60724,17.42909 14.75583,12.5354 21.72293,10.92336 l 28.37409,1.4583 c 11.87728,5.75686 27.56309,1.20531 21.47368,-10.26013 l 2.00926,-20.06171 c 4.95345,-6.69786 10.59454,-20.15661 -7.93854,-37.81724"
       id="path3327-4-35-4-3-1-2-7"
       inkscape:connector-curvature="0"
       sodipodi:nodetypes="cccccccc" />
    <path
       style="display:inline;fill:#ffd5d5;stroke:#000000;stroke-width:2;stroke-linecap:round;stroke-linejoin:round;stroke-opacity:1"
       d="m 331.54957,191.90115 c 3.7744,-4.33253 2.59049,-12.35488 1.38411,-15.7331 l -9.44291,-22.99658 -40.57827,-0.12124 -9.54727,21.98404 c -1.87239,4.323 -2.05004,11.70294 1.16212,16.35728"
       id="path6512-7-7"
       inkscape:connector-curvature="0"
       sodipodi:nodetypes="cccccc" />
    <path
       style="display:inline;fill:#ffaaaa;stroke:#000000;stroke-width:2;stroke-linecap:round;stroke-linejoin:round;stroke-opacity:1"
       d="m 298.81809,172.84275 c 5.49373,0.27035 9.17353,4.30715 12.36543,9.57784 3.51713,5.80773 0.32316,10.42936 -3.74457,10.06304 -5.41845,-0.48797 -13.25956,-0.75458 -16.46723,-0.64548 -4.37523,0.14882 -5.24961,-4.67372 -3.63322,-9.18624 1.45339,-4.05751 5.88869,-10.0843 11.47959,-9.80916 z"
       id="path6516-4-6"
       inkscape:connector-curvature="0"
       sodipodi:nodetypes="ssssss" />
    <path
       style="display:inline;fill:none;stroke:#000000;stroke-width:2;stroke-linecap:round;stroke-linejoin:round;stroke-opacity:1"
       d="m 292.95401,170.23435 -0.78856,-2.53355"
       id="path6518-2-1"
       inkscape:connector-curvature="0"
       sodipodi:nodetypes="cc" />
    <path
       style="display:inline;fill:#000000;stroke:#000000;stroke-width:2;stroke-linecap:round;stroke-linejoin:round;stroke-opacity:1"
       d="m 302.1477,178.74174 c 1.15537,0.16276 4.59606,6.31531 2.50414,8.45592 -1.00155,1.02485 -3.48191,-8.59366 -2.50414,-8.45592 z"
       id="path6524-7-4"
       inkscape:connector-curvature="0"
       sodipodi:nodetypes="sss" />
    <path
       style="display:inline;fill:#000000;stroke:#000000;stroke-width:2;stroke-linecap:round;stroke-linejoin:round;stroke-opacity:1"
       d="m 296.6196,179.05761 c 0.77515,0.2217 -2.6785,9.5808 -3.35198,7.89878 -1.40582,-3.5111 2.353,-8.18448 3.35198,-7.89878 z"
       id="path6526-7-2"
       inkscape:connector-curvature="0"
       sodipodi:nodetypes="sss" />
    <path
       style="display:inline;fill:none;stroke:#000000;stroke-width:2;stroke-linecap:round;stroke-linejoin:round;stroke-opacity:1"
       d="m 309.33469,168.13197 -1.78586,2.64649"
       id="path3314-9-3"
       inkscape:connector-curvature="0"
       sodipodi:nodetypes="cc" />
    <path
       style="display:inline;fill:#ffd5d5;stroke:#000000;stroke-width:2;stroke-linecap:round;stroke-linejoin:round;stroke-opacity:1"
       d="m 267.55439,205.68172 c -7.37479,9.93798 -9.20176,30.42849 3.42878,39.2653"
       id="path975"
       inkscape:connector-curvature="0"
       sodipodi:nodetypes="cc" />
    <path
       style="display:inline;fill:#ffd5d5;stroke:#000000;stroke-width:2;stroke-linecap:round;stroke-linejoin:round;stroke-opacity:1"
       d="m 279.82834,248.88503 c 14.08273,5.24837 34.81154,6.99265 47.25647,2.49473"
       id="path973"
       inkscape:connector-curvature="0"
       sodipodi:nodetypes="cc" />
    <path
       style="display:inline;fill:#ffd5d5;stroke:#000000;stroke-width:2;stroke-linecap:round;stroke-linejoin:round;stroke-opacity:1"
       d="m 334.33703,247.40831 c 14.00514,-6.20284 8.98781,-28.80748 3.31656,-39.55269"
       id="path3327-4-35-4-3-5-8"
       inkscape:connector-curvature="0"
       sodipodi:nodetypes="cc" />
    <path
       style="display:inline;fill:#ffd5d5;stroke:#000000;stroke-width:2;stroke-linecap:round;stroke-linejoin:round;stroke-opacity:1"
       d="m 287.94536,150.68642 c -6.34751,-0.006 -9.82588,3.77398 -12.94711,7.59005 -4.44662,5.4365 -4.81535,14.79194 -2.20553,17.58016 1.70583,1.82243 3.94415,-4.02912 5.4326,-9.66946"
       id="path6508-3-5"
       inkscape:connector-curvature="0"
       sodipodi:nodetypes="cssc" />
    <path
       style="display:inline;fill:#ffd5d5;stroke:#000000;stroke-width:2;stroke-linecap:round;stroke-linejoin:round;stroke-opacity:1"
       d="m 316.21894,149.6517 c 6.47383,0.079 14.72738,6.13272 17.57079,11.51027 3.9389,7.44937 2.72109,16.58714 -0.15705,17.24314 -2.8027,0.6388 -6.63082,-8.29788 -7.6914,-11.18243"
       id="path6510-8-2"
       inkscape:connector-curvature="0"
       sodipodi:nodetypes="cssc" />
    <path
       style="display:inline;fill:#ffd5d5;stroke:#000000;stroke-width:2;stroke-linecap:round;stroke-linejoin:round;stroke-opacity:1"
       d="m 323.71206,156.65867 c -9.07567,-13.31128 -30.88154,-13.76628 -40.84629,-1.50762"
       id="path6506-1-1"
       inkscape:connector-curvature="0"
       sodipodi:nodetypes="cc" />
    <path
       style="display:inline;fill:#d40000;stroke:#000000;stroke-width:2;stroke-linecap:round;stroke-linejoin:round;stroke-opacity:1"
       d="m 292.20342,131.04606 c 3.71273,-5.63802 18.45275,-5.50446 22.36439,-0.0209 4.52629,6.34525 0.26827,17.4505 -3.8716,18.29083 -3.882,0.78799 -9.5526,-0.0104 -11.85748,0.21354 -7.50233,0.72903 -10.62996,-12.41738 -6.63531,-18.48352 z"
       id="path6516-4-6-4"
       inkscape:connector-curvature="0"
       sodipodi:nodetypes="sssss" />
    <path
       style="display:inline;fill:none;stroke:#000000;stroke-width:2;stroke-linecap:round;stroke-linejoin:round;stroke-opacity:1"
       d="m 307.05201,129.69554 c 0.97799,1.05587 -1.54486,1.27934 -3.06088,1.33157 -1.87095,0.0645 -4.63944,-0.57501 -2.49794,-1.49642"
       id="path6518-2-1-2"
       inkscape:connector-curvature="0"
       sodipodi:nodetypes="csc" />
    <path
       style="display:inline;fill:none;stroke:#000000;stroke-width:2;stroke-linecap:round;stroke-linejoin:round;stroke-opacity:1"
       d="m 303.94392,130.73157 c 0.22932,-2.06023 0.75244,-4.2184 1.95493,-6.60302"
       id="path6518-2-1-0"
       inkscape:connector-curvature="0"
       sodipodi:nodetypes="cc" />
  </g>
  <g
     inkscape:groupmode="layer"
     id="g1127"
     inkscape:label="豚.01.old.01"
     style="display:none"
     sodipodi:insensitive="true">
    <g
       id="g1103"
       transform="rotate(7.5804628,352.19593,-229.34694)"
       style="display:inline">
      <path
         style="display:inline;fill:#cccccc;stroke:#000000;stroke-width:2;stroke-linecap:round;stroke-linejoin:round;stroke-opacity:1"
         d="m 239.50613,173.31249 14.13095,3.85706 -9.9248,11.70944 -0.0791,-8.6819 z"
         id="path1097"
         inkscape:connector-curvature="0"
         sodipodi:nodetypes="ccccc" />
      <path
         style="display:inline;fill:none;stroke:#000000;stroke-width:6;stroke-linecap:round;stroke-linejoin:round;stroke-opacity:1"
         d="M 243.6332,180.19709 142.14005,215.26535"
         id="path1099"
         inkscape:connector-curvature="0"
         sodipodi:nodetypes="cc" />
      <path
         style="display:inline;fill:none;stroke:#e9c6af;stroke-width:2;stroke-linecap:round;stroke-linejoin:round;stroke-opacity:1"
         d="M 243.6332,180.19709 142.14005,215.26535"
         id="path1101"
         inkscape:connector-curvature="0"
         sodipodi:nodetypes="cc" />
    </g>
    <ellipse
       style="display:inline;opacity:0.5;fill:#000000;fill-opacity:1;stroke:none;stroke-width:2.73095;stroke-linecap:round;stroke-linejoin:round;stroke-miterlimit:4;stroke-dasharray:none;stroke-dashoffset:0;stroke-opacity:1"
       id="ellipse1105"
       cx="91.577049"
       cy="278.47784"
       rx="80.174248"
       ry="10.034656" />
    <path
       style="display:inline;fill:#c87137;stroke:#000000;stroke-width:2;stroke-linecap:round;stroke-linejoin:round;stroke-opacity:1"
       d="m 140.32769,135.31272 c -5.1847,-4.05984 -25.58394,-18.14861 -25.37446,-28.50764 -2.01394,10.44299 12.21446,21.75167 22.99431,31.76462 11.55704,10.73485 12.6425,28.17041 15.89179,45.52019 2.90707,15.52242 0.17724,25.93006 -3.85434,34.55376 -5.8001,12.40663 -5.83178,19.90809 -5.13442,30.24239 2.00513,-12.45379 5.50442,-18.46786 9.45559,-27.996 5.02639,-12.12098 8.20737,-19.47186 5.37922,-36.88339 -3.65707,-22.51473 -5.59303,-37.91561 -19.35769,-48.69393 z"
       id="path1107"
       inkscape:connector-curvature="0"
       sodipodi:nodetypes="scssscsss" />
    <path
       style="display:inline;fill:none;stroke:#000000;stroke-width:2;stroke-linecap:round;stroke-linejoin:round;stroke-opacity:1"
       d="M 144.81015,245.94417 48.787319,188.22579 114.82294,111.51608"
       id="path1109"
       inkscape:connector-curvature="0"
       sodipodi:nodetypes="ccc" />
    <path
       style="display:inline;fill:#ffd5d5;stroke:#000000;stroke-width:2;stroke-linecap:round;stroke-linejoin:round;stroke-opacity:1"
       d="m 77.856943,269.83404 c -4.51868,5.95708 -11.61486,12.87158 -21.41245,12.21491 -6.49699,-0.43546 -11.70364,-8.77575 -15.7702,-24.42925"
       id="path1111"
       inkscape:connector-curvature="0"
       sodipodi:nodetypes="csc" />
    <path
       sodipodi:nodetypes="cc"
       inkscape:connector-curvature="0"
       id="path1113"
       d="m 33.011779,149.11308 c -4.99493,-14.6845 13.91789,-31.02601 32.90001,-32.39526"
       style="display:inline;fill:#ffd5d5;stroke:#000000;stroke-width:2;stroke-linecap:round;stroke-linejoin:round;stroke-opacity:1" />
    <path
       style="display:inline;fill:#ffd5d5;stroke:#000000;stroke-width:2;stroke-linecap:round;stroke-linejoin:round;stroke-opacity:1"
       d="m 127.42868,260.70442 c 12.46688,4.37041 14.12721,19.10228 7.93328,21.02459 -5.6383,1.74987 -21.744,1.05854 -38.022358,-1.31915 L 20.755239,212.43587 c -15.2555592,-24.34362 -12.4797796,-44.3901 8.5551,-49.24128 l 96.858571,11.31895 6.4147,44.66347 z"
       id="path1115"
       inkscape:connector-curvature="0"
       sodipodi:nodetypes="cscccccc" />
    <path
       style="display:inline;fill:#ffd5d5;stroke:#000000;stroke-width:2;stroke-linecap:round;stroke-linejoin:round;stroke-opacity:1"
       d="m 128.65734,194.97506 c 7.9319,19.80682 24.01312,59.74856 -8.35171,74.13063"
       id="path1117"
       inkscape:connector-curvature="0"
       sodipodi:nodetypes="cc" />
    <path
       sodipodi:nodetypes="cscsc"
       inkscape:connector-curvature="0"
       id="path1119"
       d="m 30.686349,177.75998 c -8.50162,-11.77452 0.97841,-30.97187 13.58597,-47.15282 23.30151,-29.90589 69.248531,-18.52543 78.609071,13.17297 2.64361,3.24722 6.09788,6.96181 6.11526,11.71823 0.0369,10.10312 -1.66,17.50685 -5.02155,23.72894"
       style="display:inline;fill:#ffd5d5;stroke:#000000;stroke-width:2;stroke-linecap:round;stroke-linejoin:round;stroke-opacity:1" />
    <path
       sodipodi:nodetypes="csc"
       inkscape:connector-curvature="0"
       id="path1121"
       d="m 84.873719,144.21287 c 6.50621,13.21855 22.629851,31.27229 30.695211,27.60217 10.97267,-4.99308 13.24505,-35.01302 -5.31383,-44.82885"
       style="display:inline;fill:#ffd5d5;stroke:#000000;stroke-width:2;stroke-linecap:round;stroke-linejoin:round;stroke-opacity:1" />
    <path
       sodipodi:nodetypes="csc"
       inkscape:connector-curvature="0"
       id="path1123"
       d="m 121.22393,173.68892 c 22.13498,0.93926 42.20454,-5.52416 40.23043,9.64574 -1.37,10.52765 -15.34875,24.16678 -29.58667,35.3524"
       style="display:inline;fill:#ffd5d5;stroke:#000000;stroke-width:2;stroke-linecap:round;stroke-linejoin:round;stroke-opacity:1" />
    <path
       style="display:inline;fill:#ffd5d5;stroke:#000000;stroke-width:2;stroke-linecap:round;stroke-linejoin:round;stroke-opacity:1"
       d="M 101.74156,280.83181 C 72.304379,278.52435 48.949109,278.91805 33.220999,262.9158 10.994899,240.30231 15.453219,214.38652 24.947149,193.58086"
       id="path1125"
       inkscape:connector-curvature="0"
       sodipodi:nodetypes="csc" />
  </g>
  <g
     inkscape:groupmode="layer"
     id="layer5"
     inkscape:label="豚.01"
     style="display:inline"
     sodipodi:insensitive="true">
    <g
       id="g2971"
       transform="rotate(7.5804628,339.38845,-282.06106)"
       style="display:inline">
      <path
         style="display:inline;fill:#cccccc;stroke:#000000;stroke-width:2;stroke-linecap:round;stroke-linejoin:round;stroke-opacity:1"
         d="m 238.37296,169.73779 11.84744,8.1056 -5.92025,13.80628 -0.66697,-11.45258 z"
         id="path6526-7-2-3"
         inkscape:connector-curvature="0"
         sodipodi:nodetypes="ccccc" />
      <path
         style="display:inline;fill:none;stroke:#000000;stroke-width:6;stroke-linecap:round;stroke-linejoin:round;stroke-opacity:1"
         d="M 243.6332,180.19709 142.14005,215.26535"
         id="path6518-2-1-9"
         inkscape:connector-curvature="0"
         sodipodi:nodetypes="cc" />
      <path
         style="display:inline;fill:none;stroke:#e9c6af;stroke-width:2;stroke-linecap:round;stroke-linejoin:round;stroke-opacity:1"
         d="M 243.6332,180.19709 142.14005,215.26535"
         id="path6518-2-1-04"
         inkscape:connector-curvature="0"
         sodipodi:nodetypes="cc" />
    </g>
    <ellipse
       style="display:inline;opacity:0.5;fill:#000000;fill-opacity:1;stroke:none;stroke-width:2.73095;stroke-linecap:round;stroke-linejoin:round;stroke-miterlimit:4;stroke-dasharray:none;stroke-dashoffset:0;stroke-opacity:1"
       id="path977-4"
       cx="91.577049"
       cy="278.47784"
       rx="80.174248"
       ry="10.034656" />
    <path
       style="display:inline;fill:#c87137;stroke:#000000;stroke-width:2;stroke-linecap:round;stroke-linejoin:round;stroke-opacity:1"
       d="m 144.02064,135.31272 c -4.59388,-4.71801 -25.27673,-18.14861 -29.06101,-24.51387 3.8231,8.90692 15.65656,18.42276 26.02916,28.85701 7.8641,7.91083 8.06519,16.63902 13.15775,34.91044 4.23999,15.21246 -1.72951,33.76432 -4.16155,40.3908 -3.6857,10.04227 -6.97246,23.41968 -7.59212,31.77845 5.38447,-11.83936 8.88376,-22.46162 12.83493,-31.98976 5.02639,-12.12098 8.41465,-23.61916 4.76479,-40.87716 -3.65707,-17.29211 -5.90024,-28.21205 -15.97195,-38.55591 z"
       id="path3156-1-7"
       inkscape:connector-curvature="0"
       sodipodi:nodetypes="scssscsss" />
    <path
       style="display:inline;fill:none;stroke:#000000;stroke-width:2;stroke-linecap:round;stroke-linejoin:round;stroke-opacity:1"
       d="M 144.19572,242.87204 48.787319,188.22579 115.67643,112.88762"
       id="path6518-2-1-05"
       inkscape:connector-curvature="0"
       sodipodi:nodetypes="ccc" />
    <path
       style="display:inline;fill:#ffd5d5;stroke:#000000;stroke-width:2;stroke-linecap:round;stroke-linejoin:round;stroke-opacity:1"
       d="m 77.856943,269.83404 c -4.51868,5.95708 -11.61486,12.87158 -21.41245,12.21491 -6.49699,-0.43546 -11.70364,-8.77575 -15.7702,-24.42925"
       id="path13567-0-4"
       inkscape:connector-curvature="0"
       sodipodi:nodetypes="csc" />
    <path
       sodipodi:nodetypes="cc"
       inkscape:connector-curvature="0"
       id="path13479-6"
       d="m 33.011779,149.11308 c -4.99493,-14.6845 13.91789,-31.02601 32.90001,-32.39526"
       style="display:inline;fill:#ffd5d5;stroke:#000000;stroke-width:2;stroke-linecap:round;stroke-linejoin:round;stroke-opacity:1" />
    <path
       style="display:inline;fill:#ffd5d5;stroke:#000000;stroke-width:2;stroke-linecap:round;stroke-linejoin:round;stroke-opacity:1"
       d="m 127.42868,260.70442 c 12.46688,4.37041 14.12721,19.10228 7.93328,21.02459 -5.6383,1.74987 -21.744,1.05854 -38.022358,-1.31915 L 20.755239,212.43587 c -15.2555592,-24.34362 -12.4797796,-44.3901 8.5551,-49.24128 l 96.858571,11.31895 6.4147,44.66347 z"
       id="path13567-0"
       inkscape:connector-curvature="0"
       sodipodi:nodetypes="cscccccc" />
    <path
       style="display:inline;fill:#ffd5d5;stroke:#000000;stroke-width:2;stroke-linecap:round;stroke-linejoin:round;stroke-opacity:1"
       d="m 128.65734,194.97506 c 7.9319,19.80682 24.01312,59.74856 -8.35171,74.13063"
       id="path1136"
       inkscape:connector-curvature="0"
       sodipodi:nodetypes="cc" />
    <path
       sodipodi:nodetypes="cscsc"
       inkscape:connector-curvature="0"
       id="path13577-6"
       d="m 30.686349,177.75998 c -8.50162,-11.77452 0.97841,-30.97187 13.58597,-47.15282 23.30151,-29.90589 69.248531,-18.52543 78.609071,13.17297 2.64361,3.24722 6.09788,6.96181 6.11526,11.71823 0.0369,10.10312 -1.66,17.50685 -5.02155,23.72894"
       style="display:inline;fill:#ffd5d5;stroke:#000000;stroke-width:2;stroke-linecap:round;stroke-linejoin:round;stroke-opacity:1" />
    <path
       sodipodi:nodetypes="csc"
       inkscape:connector-curvature="0"
       id="path13579-7"
       d="m 84.873719,144.21287 c 6.50621,13.21855 22.629851,31.27229 30.695211,27.60217 10.97267,-4.99308 13.24505,-35.01302 -5.31383,-44.82885"
       style="display:inline;fill:#ffd5d5;stroke:#000000;stroke-width:2;stroke-linecap:round;stroke-linejoin:round;stroke-opacity:1" />
    <path
       sodipodi:nodetypes="csc"
       inkscape:connector-curvature="0"
       id="path13571-5"
       d="m 121.22393,173.68892 c 22.13498,0.93926 42.20454,-5.52416 40.23043,9.64574 -1.37,10.52765 -15.34875,24.16678 -29.58667,35.3524"
       style="display:inline;fill:#ffd5d5;stroke:#000000;stroke-width:2;stroke-linecap:round;stroke-linejoin:round;stroke-opacity:1" />
    <path
       style="display:inline;fill:#ffd5d5;stroke:#000000;stroke-width:2;stroke-linecap:round;stroke-linejoin:round;stroke-opacity:1"
       d="M 101.74156,280.83181 C 72.304379,278.52435 48.949109,278.91805 33.220999,262.9158 10.994899,240.30231 15.453219,214.38652 24.947149,193.58086"
       id="path1132"
       inkscape:connector-curvature="0"
       sodipodi:nodetypes="csc" />
  </g>
  <g
     inkscape:groupmode="layer"
     id="layer4"
     inkscape:label="吹き出し"
     style="display:inline"
     sodipodi:insensitive="true">
    <path
       id="path2801"
       style="display:inline;opacity:1;fill:#fefefe;fill-opacity:1;stroke:#000000;stroke-width:2;stroke-linecap:round;stroke-linejoin:round;stroke-miterlimit:4;stroke-dasharray:none;stroke-dashoffset:0;stroke-opacity:1"
       d="m 356.62163,59.053538 c 1e-5,26.34266 -58.72609,47.697602 -131.1684,47.697602 -11.78095,0 -27.41505,9.975 -50.57333,13.83441 13.21382,-9.34459 5.15306,-16.72015 -0.26324,-17.54895 C 127.42125,95.814741 94.284831,78.841307 94.284831,59.053538 94.284843,32.710879 153.01093,11.355935 225.45323,11.355935 c 72.4423,0 131.1684,21.354944 131.1684,47.697603 z"
       sodipodi:nodetypes="sscssss" />
    <text
       xml:space="preserve"
       style="font-style:normal;font-variant:normal;font-weight:normal;font-stretch:normal;font-size:26.6667px;line-height:1;font-family:'UD Digi Kyokasho NP-R';-inkscape-font-specification:'UD Digi Kyokasho NP-R';letter-spacing:0px;word-spacing:0px;display:inline;fill:#000000;fill-opacity:1;stroke:none"
       x="112.56178"
       y="69.142036"
       id="text2806"><tspan
         sodipodi:role="line"
         id="tspan2804"
         x="112.56178"
         y="69.142036"
         style="font-style:normal;font-variant:normal;font-weight:normal;font-stretch:normal;font-family:sans-serif;-inkscape-font-specification:sans-serif">己を信じるのみ…！</tspan></text>
  </g>
  <g
     inkscape:groupmode="layer"
     id="layer2"
     inkscape:label="枠面"
     sodipodi:insensitive="true"
     style="display:inline">
    <path
       style="fill:#ffffff;stroke:none;display:inline"
       d="m 0,0 0,320 370,0 0,-320 -10,10 0,300 -350,0 0,-300 350,0 10,-10 z"
       id="path21072"
       inkscape:connector-curvature="0"
       sodipodi:nodetypes="ccccccccccc" />
  </g>
</svg>
