<?xml version="1.0" encoding="UTF-8" standalone="no"?>
<!-- Created with Inkscape (http://www.inkscape.org/) -->

<svg
   xmlns:dc="http://purl.org/dc/elements/1.1/"
   xmlns:cc="http://creativecommons.org/ns#"
   xmlns:rdf="http://www.w3.org/1999/02/22-rdf-syntax-ns#"
   xmlns:svg="http://www.w3.org/2000/svg"
   xmlns="http://www.w3.org/2000/svg"
   xmlns:sodipodi="http://sodipodi.sourceforge.net/DTD/sodipodi-0.dtd"
   xmlns:inkscape="http://www.inkscape.org/namespaces/inkscape"
   width="370"
   height="320"
   id="svg3172"
   version="1.1"
   inkscape:version="0.48.4 r9939"
   sodipodi:docname="[02.失念].svg"
   inkscape:export-filename="C:\Users\root\Desktop\資料\作業\[01.驚嘆].png"
   inkscape:export-xdpi="90"
   inkscape:export-ydpi="90">
  <defs
     id="defs3174" />
  <sodipodi:namedview
     id="base"
     pagecolor="#ffffff"
     bordercolor="#666666"
     borderopacity="1.0"
     inkscape:pageopacity="0.0"
     inkscape:pageshadow="2"
     inkscape:zoom="0.98912591"
     inkscape:cx="206.88366"
     inkscape:cy="191.19225"
     inkscape:document-units="px"
     inkscape:current-layer="layer4"
     showgrid="false"
     inkscape:window-width="1009"
     inkscape:window-height="698"
     inkscape:window-x="25"
     inkscape:window-y="-5"
     inkscape:window-maximized="0" />
  <metadata
     id="metadata3177">
    <rdf:RDF>
      <cc:Work
         rdf:about="">
        <dc:format>image/svg+xml</dc:format>
        <dc:type
           rdf:resource="http://purl.org/dc/dcmitype/StillImage" />
        <dc:title />
      </cc:Work>
    </rdf:RDF>
  </metadata>
  <g
     inkscape:label="補助線"
     inkscape:groupmode="layer"
     id="layer1"
     transform="translate(0,-732.36218)"
     sodipodi:insensitive="true"
     style="display:none">
    <path
       style="fill:none;stroke:#0000ff;stroke-width:1px;stroke-linecap:butt;stroke-linejoin:miter;stroke-opacity:1;display:inline"
       d="M 10,1042.3622 360,742.36211"
       id="path3025"
       inkscape:connector-curvature="0"
       sodipodi:nodetypes="cc" />
    <path
       style="fill:none;stroke:#0000ff;stroke-width:1px;stroke-linecap:butt;stroke-linejoin:miter;stroke-opacity:1;display:inline"
       d="M 10,742.36211 360,1042.3622"
       id="path3027"
       inkscape:connector-curvature="0"
       sodipodi:nodetypes="cc" />
    <path
       style="fill:none;stroke:#ff0000;stroke-width:1px;stroke-linecap:butt;stroke-linejoin:miter;stroke-opacity:1;display:inline"
       d="m 10,732.36211 0,320.00009"
       id="path3006"
       inkscape:connector-curvature="0"
       sodipodi:nodetypes="cc" />
    <path
       style="fill:none;stroke:#ff0000;stroke-width:1px;stroke-linecap:butt;stroke-linejoin:miter;stroke-opacity:1;display:inline"
       d="m 360,732.36211 0,320.00009"
       id="path3010"
       inkscape:connector-curvature="0"
       sodipodi:nodetypes="cc" />
    <path
       style="fill:none;stroke:#ff0000;stroke-width:1px;stroke-linecap:butt;stroke-linejoin:miter;stroke-opacity:1;display:inline"
       d="m 0,742.36208 370,3e-5"
       id="path3016"
       inkscape:connector-curvature="0" />
    <path
       style="fill:none;stroke:#ff0000;stroke-width:1px;stroke-linecap:butt;stroke-linejoin:miter;stroke-opacity:1;display:inline"
       d="m 0,1042.3622 370,0"
       id="path3018"
       inkscape:connector-curvature="0"
       sodipodi:nodetypes="cc" />
  </g>
  <g
     inkscape:groupmode="layer"
     id="layer3"
     inkscape:label="豚"
     sodipodi:insensitive="true">
    <path
       style="fill:#ffff00;stroke:none;display:inline"
       d="m 187.16526,19.130967 c 6.72224,3.063229 14.52818,3.351855 20.35956,-3.630956 0.3506,11.625322 8.15804,14.886059 19.95113,12.373281 -5.3774,11.077846 -3.01784,20.323691 9.64184,23.206786 -7.97077,5.229452 -10.23766,13.247641 -8.63743,21.196063 -7.22162,-22.685672 -17.23683,-43.334987 -41.3151,-53.145174 z"
       id="path3758-1"
       inkscape:connector-curvature="0"
       sodipodi:nodetypes="cccccc" />
    <path
       sodipodi:type="arc"
       style="fill:#000000;fill-opacity:1;stroke:none;display:inline"
       id="path7872"
       sodipodi:cx="-4.025053"
       sodipodi:cy="522.59436"
       sodipodi:rx="110.46214"
       sodipodi:ry="19.38559"
       d="m 106.43709,522.59436 a 110.46214,19.38559 0 1 1 -220.92429,0 110.46214,19.38559 0 1 1 220.92429,0 z"
       transform="matrix(-0.88073117,0,0,0.87341476,128.20644,-164.42225)" />
    <g
       transform="translate(2.25611,0.466053)"
       style="display:inline"
       id="g5157">
      <path
         style="fill:#fffff8;fill-opacity:1;stroke:#000000;stroke-width:3;stroke-linecap:butt;stroke-linejoin:miter;stroke-opacity:1;display:inline"
         d="M 234.52241,167.76212 C 259.49139,162.05215 256.3275,145.67 223.95585,104.97055 214.09858,29.290945 157.92877,4.5232234 110.02136,15.251773 51.935731,28.259669 24.509149,81.45731 35.356453,137.46219 c -11.765882,33.33515 -0.138636,93.08117 -16.867302,98.85276 39.18944,9.48132 51.4805,32.33578 124.977259,27.60149 68.85704,-4.43543 100.96141,-53.72113 89.18802,-114.83176"
         id="path5948"
         inkscape:connector-curvature="0"
         sodipodi:nodetypes="ccsccsc" />
      <path
         style="fill:#aa0000;stroke:#000000;stroke-width:3;stroke-linecap:butt;stroke-linejoin:miter;stroke-opacity:1;display:inline"
         d="m 139.46798,102.80135 c 16.69476,-0.33072 12.23781,-19.187066 31.63052,-22.936492 13.86585,-2.680874 13.22003,10.974093 23.0002,8.020128 -2.84603,7.512193 -6.1168,14.490564 -18.87204,19.185024 -15.86888,5.84044 -21.92674,1.63303 -35.75868,-4.26866 z"
         id="path5950"
         inkscape:connector-curvature="0"
         sodipodi:nodetypes="cscsc" />
      <path
         style="fill:none;stroke:#000000;stroke-width:3;stroke-linecap:butt;stroke-linejoin:miter;stroke-opacity:1;display:inline"
         d="M 117.53679,174.01525 C 88.546453,212.05345 65.567215,202.52404 70.499363,154.53931"
         id="path5952"
         inkscape:connector-curvature="0"
         sodipodi:nodetypes="cc" />
      <path
         style="fill:none;stroke:#000000;stroke-width:3;stroke-linecap:butt;stroke-linejoin:miter;stroke-opacity:1;display:inline"
         d="m 171.22851,56.046023 4.26009,18.40636"
         id="path5954"
         inkscape:connector-curvature="0"
         sodipodi:nodetypes="cc" />
      <path
         style="fill:none;stroke:#000000;stroke-width:3;stroke-linecap:butt;stroke-linejoin:miter;stroke-opacity:1;display:inline"
         d="m 146.30183,61.03131 8.11983,16.798219"
         id="path5956"
         inkscape:connector-curvature="0"
         sodipodi:nodetypes="cc" />
    </g>
    <path
       style="fill:none;stroke:#000000;stroke-width:3;stroke-linecap:butt;stroke-linejoin:miter;stroke-opacity:1;display:inline"
       d="m 187.37192,18.697566 c 6.72224,3.063229 14.52818,3.351855 20.35956,-3.630956 0.3506,11.625322 8.15804,14.886059 19.95113,12.373281 -5.3774,11.077847 -3.01784,20.323692 9.64184,23.206787 -7.97077,5.229451 -10.23766,13.24764 -8.63743,21.196062"
       id="path3758"
       inkscape:connector-curvature="0"
       sodipodi:nodetypes="ccccc" />
  </g>
  <g
     inkscape:groupmode="layer"
     id="layer4"
     inkscape:label="吹き出し"
     sodipodi:insensitive="true">
    <g
       transform="translate(2.25611,0.466053)"
       style="display:inline"
       id="g5164">
      <path
         sodipodi:nodetypes="sssscsssssss"
         inkscape:connector-curvature="0"
         id="rect7294"
         d="m 332.45614,11.954212 -51.92826,0 c -12.90509,0 -23.29439,10.389296 -23.29439,23.294386 l 0,60.227818 c 0,9.098724 -19.923,6.457434 -19.923,6.457434 0,0 19.923,8.29199 19.923,18.91948 l 0,150.57767 c 0,12.90509 10.3893,23.29439 23.29439,23.29439 l 51.92826,0 c 12.90509,0 23.29438,-10.3893 23.29438,-23.29439 l 0,-236.182402 c 0,-12.90509 -10.38929,-23.294386 -23.29438,-23.294386 z"
         style="fill:#fefefe;fill-opacity:1;stroke:#000000;stroke-width:3;stroke-linecap:round;stroke-miterlimit:4;stroke-opacity:1;stroke-dashoffset:0" />
      <text
         sodipodi:linespacing="125%"
         id="text7804"
         y="23.502996"
         x="331.64178"
         style="font-size:64px;font-style:normal;font-weight:normal;line-height:125%;letter-spacing:0px;word-spacing:0px;writing-mode:tb-rl;fill:#000000;fill-opacity:1;stroke:none;font-family:Sans"
         xml:space="preserve"><tspan
           id="tspan5078"
           style="font-size:32px"
           y="331.64178"
           x="23.502996"
           sodipodi:role="line">あ</tspan><tspan
           id="tspan5151"
           style="font-size:32px"
           y="291.64178"
           x="23.502996"
           sodipodi:role="line">忘れてたんですな</tspan></text>
      <text
         sodipodi:linespacing="125%"
         id="text5153"
         y="41.196575"
         x="347.7417"
         style="font-size:64px;font-style:normal;font-weight:normal;line-height:125%;letter-spacing:0px;word-spacing:0px;writing-mode:tb-rl;fill:#000000;fill-opacity:1;stroke:none;font-family:Sans"
         xml:space="preserve"><tspan
           style="font-size:32px"
           y="347.7417"
           x="41.196575"
           id="tspan5155"
           sodipodi:role="line">、</tspan></text>
    </g>
  </g>
  <g
     inkscape:groupmode="layer"
     id="layer2"
     inkscape:label="レイヤー"
     sodipodi:insensitive="true">
    <path
       style="fill:#ffffff;stroke:none;display:inline"
       d="m 0,0 0,320 370,0 0,-320 -10,10 0,300 -350,0 0,-300 350,0 10,-10 z"
       id="path21072"
       inkscape:connector-curvature="0"
       sodipodi:nodetypes="ccccccccccc" />
  </g>
</svg>
