<?xml version="1.0" encoding="UTF-8" standalone="no"?>
<!-- Created with Inkscape (http://www.inkscape.org/) -->

<svg
   xmlns:dc="http://purl.org/dc/elements/1.1/"
   xmlns:cc="http://creativecommons.org/ns#"
   xmlns:rdf="http://www.w3.org/1999/02/22-rdf-syntax-ns#"
   xmlns:svg="http://www.w3.org/2000/svg"
   xmlns="http://www.w3.org/2000/svg"
   xmlns:sodipodi="http://sodipodi.sourceforge.net/DTD/sodipodi-0.dtd"
   xmlns:inkscape="http://www.inkscape.org/namespaces/inkscape"
   width="370"
   height="320"
   id="svg3172"
   version="1.1"
   inkscape:version="0.48.4 r9939"
   sodipodi:docname="[03.委任].svg"
   inkscape:export-filename="C:\Users\root\Desktop\資料\作業\[02.失念].png"
   inkscape:export-xdpi="90"
   inkscape:export-ydpi="90">
  <defs
     id="defs3174" />
  <sodipodi:namedview
     id="base"
     pagecolor="#ffffff"
     bordercolor="#666666"
     borderopacity="1.0"
     inkscape:pageopacity="0.0"
     inkscape:pageshadow="2"
     inkscape:zoom="0.69941764"
     inkscape:cx="164.52111"
     inkscape:cy="166.25624"
     inkscape:document-units="px"
     inkscape:current-layer="layer5"
     showgrid="false"
     inkscape:window-width="1009"
     inkscape:window-height="698"
     inkscape:window-x="25"
     inkscape:window-y="-5"
     inkscape:window-maximized="0" />
  <metadata
     id="metadata3177">
    <rdf:RDF>
      <cc:Work
         rdf:about="">
        <dc:format>image/svg+xml</dc:format>
        <dc:type
           rdf:resource="http://purl.org/dc/dcmitype/StillImage" />
        <dc:title />
      </cc:Work>
    </rdf:RDF>
  </metadata>
  <g
     inkscape:label="補助線"
     inkscape:groupmode="layer"
     id="layer1"
     transform="translate(0,-732.36218)"
     sodipodi:insensitive="true"
     style="display:none">
    <path
       style="fill:none;stroke:#0000ff;stroke-width:1px;stroke-linecap:butt;stroke-linejoin:miter;stroke-opacity:1;display:inline"
       d="M 10,1042.3622 360,742.36211"
       id="path3025"
       inkscape:connector-curvature="0"
       sodipodi:nodetypes="cc" />
    <path
       style="fill:none;stroke:#0000ff;stroke-width:1px;stroke-linecap:butt;stroke-linejoin:miter;stroke-opacity:1;display:inline"
       d="M 10,742.36211 360,1042.3622"
       id="path3027"
       inkscape:connector-curvature="0"
       sodipodi:nodetypes="cc" />
    <path
       style="fill:none;stroke:#ff0000;stroke-width:1px;stroke-linecap:butt;stroke-linejoin:miter;stroke-opacity:1;display:inline"
       d="m 10,732.36211 0,320.00009"
       id="path3006"
       inkscape:connector-curvature="0"
       sodipodi:nodetypes="cc" />
    <path
       style="fill:none;stroke:#ff0000;stroke-width:1px;stroke-linecap:butt;stroke-linejoin:miter;stroke-opacity:1;display:inline"
       d="m 360,732.36211 0,320.00009"
       id="path3010"
       inkscape:connector-curvature="0"
       sodipodi:nodetypes="cc" />
    <path
       style="fill:none;stroke:#ff0000;stroke-width:1px;stroke-linecap:butt;stroke-linejoin:miter;stroke-opacity:1;display:inline"
       d="m 0,742.36208 370,3e-5"
       id="path3016"
       inkscape:connector-curvature="0" />
    <path
       style="fill:none;stroke:#ff0000;stroke-width:1px;stroke-linecap:butt;stroke-linejoin:miter;stroke-opacity:1;display:inline"
       d="m 0,1042.3622 370,0"
       id="path3018"
       inkscape:connector-curvature="0"
       sodipodi:nodetypes="cc" />
  </g>
  <g
     inkscape:groupmode="layer"
     id="layer3"
     inkscape:label="豚"
     sodipodi:insensitive="true">
    <path
       sodipodi:type="arc"
       style="fill:#000000;fill-opacity:1;stroke:none;display:inline"
       id="path7872"
       sodipodi:cx="-4.025053"
       sodipodi:cy="522.59436"
       sodipodi:rx="110.46214"
       sodipodi:ry="19.38559"
       d="m 106.43709,522.59436 a 110.46214,19.38559 0 1 1 -220.92429,0 110.46214,19.38559 0 1 1 220.92429,0 z"
       transform="matrix(0.67227002,0,0,0.66668534,221.74773,-51.170087)" />
    <g
       style="display:inline"
       id="g6836"
       transform="translate(-20.570078,13.104468)">
      <path
         style="fill:#fffff8;fill-opacity:1;stroke:#000000;stroke-width:3;stroke-linecap:butt;stroke-linejoin:miter;stroke-opacity:1;display:inline"
         d="m 106.24506,136.10431 c 6.5429,-54.464099 55.59911,-74.110452 91.66067,-62.888405 40.21676,12.51511 61.70937,47.371295 57.42542,95.933965 9.91118,28.08067 11.97647,30.84969 30.82901,39.11201 -12.43704,19.93339 -29.97492,43.15756 -57.25714,56.22277 -15.29708,7.32564 -33.65764,11.4575 -55.90011,10.02476 -58.0034,-3.73628 -90.570457,-40.04595 -82.63481,-96.86074 -4.137497,-43.18959 -7.277397,-69.20701 18.97159,-55.54463"
         id="path5964"
         inkscape:connector-curvature="0"
         sodipodi:nodetypes="csccsscc" />
      <path
         style="fill:#aa0000;stroke:#000000;stroke-width:3;stroke-linecap:butt;stroke-linejoin:miter;stroke-opacity:1;display:inline"
         d="m 175.0753,136.82864 c -15.77519,8.14612 -13.82463,-11.55541 -29.63531,-14.61226 -11.3048,-2.18569 -7.9925,6.8897 -15.38557,0.0466 4.72475,9.25046 2.33509,16.89083 9.61539,21.17171 13.37912,7.86701 24.36883,2.53365 35.40549,-6.60603 z"
         id="path5966"
         inkscape:connector-curvature="0"
         sodipodi:nodetypes="cscsc" />
      <path
         style="fill:#fffff8;fill-opacity:1;stroke:#000000;stroke-width:3;stroke-linecap:butt;stroke-linejoin:miter;stroke-opacity:1;display:inline"
         d="M 143.89677,193.86742 C 133.2927,152.7998 133.60721,132.19074 175.01878,154.67825"
         id="path5968"
         inkscape:connector-curvature="0"
         sodipodi:nodetypes="cc" />
      <path
         style="fill:none;stroke:#000000;stroke-width:3;stroke-linecap:butt;stroke-linejoin:miter;stroke-opacity:1;display:inline"
         d="m 142.97306,105.37578 0.0893,13.38965"
         id="path5970"
         inkscape:connector-curvature="0"
         sodipodi:nodetypes="cc" />
      <path
         style="fill:none;stroke:#000000;stroke-width:3;stroke-linecap:butt;stroke-linejoin:miter;stroke-opacity:1;display:inline"
         d="m 168.06097,109.74695 -11.18856,11.77182"
         id="path5972"
         inkscape:connector-curvature="0"
         sodipodi:nodetypes="cc" />
    </g>
  </g>
  <g
     inkscape:groupmode="layer"
     id="layer5"
     inkscape:label="ボール"
     sodipodi:insensitive="true">
    <g
       style="display:inline"
       id="g6557"
       transform="translate(287.97973,30.110561)">
      <path
         sodipodi:nodetypes="ccccccccccc"
         inkscape:connector-curvature="0"
         id="path6196-3"
         d="m -310.58854,198.82985 c 0.20071,-7.34938 -4.27784,-17.4304 -7.81889,-21.83897 -4.90261,-6.03877 -11.15777,-11.74452 -17.14761,-14.53457 9.58005,8.23095 11.58994,24.68964 10.67681,36.85884 -5.57183,-0.61767 -12.63337,-1.36051 -19.21717,-3.10925 -2.25595,-12.3845 -11.78662,-43.44122 -31.25508,-41.87692 -6.50265,0.0277 -12.70256,2.62872 -18.87762,5.4409 14.42316,-3.35996 17.7214,17.39715 18.73818,26.70385 -8.87991,4.58958 -18.37067,15.33296 -22.75565,26.03031 34.03035,5.89005 76.15068,11.92639 94.04695,13.14997 0.31851,-10.6483 -1.73972,-21.68132 -6.38992,-26.82416 z"
         style="fill:#ffe680;stroke:none;display:inline" />
      <path
         sodipodi:nodetypes="ccccccccc"
         inkscape:connector-curvature="0"
         id="path6208-7"
         d="m -357.67534,281.5475 c 5.74079,-1.65857 10.22348,-6.06122 12.27466,-11.06119 -6.00486,0.69445 -14.19754,0.0396 -19.81221,-0.42372 -5.77539,5.72059 -15.31007,8.52219 -26.63814,7.33358 -6.94058,-2.56302 -13.35668,-7.44689 -17.44594,-10.72683 4.48637,0.34712 9.5892,-1.30539 13.87916,-4.27051 -6.75149,-9.44024 -8.94712,-19.59233 -8.16378,-30.20988 7.44817,10.76066 77.11419,37.88149 94.23329,12.31398 -8.34767,19.08647 -25.85147,33.23695 -48.32704,37.04457 z"
         style="fill:#ffe680;stroke:none;display:inline" />
      <path
         sodipodi:nodetypes="ccccc"
         inkscape:connector-curvature="0"
         id="path6210-5"
         d="m -358.04948,281.74245 c 5.74079,-1.65857 10.22348,-6.06122 12.27466,-11.06119 -5.69426,0.34689 -12.4717,0.0331 -19.81221,-0.42372 -5.77539,5.72059 -15.31007,8.52219 -26.63814,7.33358 9.92744,4.22532 24.31244,5.95269 34.17569,4.15133 z"
         style="fill:#800080;fill-opacity:1;stroke:none;display:inline" />
      <path
         sodipodi:nodetypes="cccccc"
         inkscape:connector-curvature="0"
         id="path6212-7"
         d="m -406.45786,266.76205 c -31.44178,-34.78633 -8.59693,-81.06214 23.2069,-103.23282 -1.3914,-2.52032 -4.86232,-4.18584 -6.61575,-4.30637 -22.49163,9.55357 -35.36612,29.88001 -39.68085,44.21041 -4.84413,18.56051 -0.2871,44.06598 20.34141,63.39774 z"
         style="fill:#800080;fill-opacity:1;stroke:none;display:inline" />
      <path
         sodipodi:nodetypes="ccccc"
         inkscape:connector-curvature="0"
         id="path6202-1"
         d="m -324.83698,199.15568 c 0.91313,-12.1692 -1.09676,-28.62789 -10.67682,-36.85884 -12.81891,-7.61775 -26.29944,-9.72542 -39.79544,-8.12733 19.46846,-1.5643 28.99913,29.49242 31.25508,41.87692 5.79366,1.46504 13.84649,2.38925 19.21718,3.10925 z"
         style="fill:#800080;fill-opacity:1;stroke:none;display:inline" />
      <path
         sodipodi:nodetypes="ccccc"
         inkscape:connector-curvature="0"
         id="path6218"
         d="m -398.25,212.375 c -2.82408,5.90277 -5.07238,12.23738 -5.25,20.125 10.27083,12.48881 77.29167,36.36516 93.8125,12.375 2.90369,-6.18472 5.13515,-13.5658 5.3125,-19.625 -27.8773,-2.63192 -62.34638,-7.09998 -93.875,-12.875 z"
         style="fill:#800080;fill-opacity:1;stroke:none" />
      <path
         transform="matrix(1.3740495,0,0,1.3855771,-32.207549,-57.967626)"
         d="m -197.66371,199.20552 a 46.365559,46.365559 0 1 1 -92.73111,0 46.365559,46.365559 0 1 1 92.73111,0 z"
         sodipodi:ry="46.365559"
         sodipodi:rx="46.365559"
         sodipodi:cy="199.20552"
         sodipodi:cx="-244.02927"
         id="path5220-1"
         style="fill:none;stroke:#000000;stroke-width:0.72474205;stroke-linecap:round;stroke-miterlimit:4;stroke-opacity:1;stroke-dasharray:none;stroke-dashoffset:0;display:inline"
         sodipodi:type="arc" />
      <path
         sodipodi:nodetypes="cccc"
         inkscape:connector-curvature="0"
         id="path6194"
         d="m -394.32162,159.72847 c 14.42316,-3.35996 17.73657,17.42304 18.75335,26.72974 -17.10449,9.1774 -40.88157,44.28661 -19.92789,75.92511 -4.28996,2.96512 -9.39279,4.61763 -13.87916,4.27051"
         style="fill:none;stroke:#000000;stroke-width:1px;stroke-linecap:butt;stroke-linejoin:miter;stroke-opacity:1" />
      <path
         sodipodi:nodetypes="ccc"
         inkscape:connector-curvature="0"
         id="path6196"
         d="m -318.48577,176.97536 c 3.54105,4.40857 8.0196,14.48959 7.81889,21.83897 4.6502,5.14284 6.70843,16.17586 6.36296,27.17737"
         style="fill:none;stroke:#000000;stroke-width:1px;stroke-linecap:butt;stroke-linejoin:miter;stroke-opacity:1" />
      <path
         sodipodi:nodetypes="cc"
         inkscape:connector-curvature="0"
         id="path6198"
         d="m -395.80119,262.30706 c 21.6609,10.47487 57.36419,10.5965 70.49886,3.85763"
         style="fill:none;stroke:#000000;stroke-width:1px;stroke-linecap:butt;stroke-linejoin:miter;stroke-opacity:1" />
      <path
         sodipodi:nodetypes="cc"
         inkscape:connector-curvature="0"
         id="path6200"
         d="m -344.17375,196.19038 c -2.25595,-12.3845 -11.78662,-43.44122 -31.25508,-41.87692"
         style="fill:none;stroke:#000000;stroke-width:1px;stroke-linecap:butt;stroke-linejoin:miter;stroke-opacity:1" />
      <path
         sodipodi:nodetypes="cc"
         inkscape:connector-curvature="0"
         id="path6202"
         d="m -324.95657,199.29963 c 0.91313,-12.1692 -1.09676,-28.62789 -10.67682,-36.85884"
         style="fill:none;stroke:#000000;stroke-width:1px;stroke-linecap:butt;stroke-linejoin:miter;stroke-opacity:1" />
      <path
         sodipodi:nodetypes="cc"
         inkscape:connector-curvature="0"
         id="path6204"
         d="m -304.25,225.28527 c -17.92323,-0.87036 -60.04357,-6.9067 -94.07392,-12.79675"
         style="fill:none;stroke:#000000;stroke-width:1px;stroke-linecap:butt;stroke-linejoin:miter;stroke-opacity:1" />
      <path
         sodipodi:nodetypes="cc"
         inkscape:connector-curvature="0"
         id="path6206"
         d="m -403.65994,232.17343 c 7.44817,10.76066 77.1142,37.8815 94.2333,12.31398"
         style="fill:none;stroke:#000000;stroke-width:1px;stroke-linecap:butt;stroke-linejoin:miter;stroke-opacity:1" />
      <path
         sodipodi:nodetypes="cc"
         inkscape:connector-curvature="0"
         id="path6208"
         d="m -365.29124,270.04708 c -5.77539,5.72059 -15.31007,8.52219 -26.63814,7.33358"
         style="fill:none;stroke:#000000;stroke-width:1px;stroke-linecap:butt;stroke-linejoin:miter;stroke-opacity:1" />
      <path
         sodipodi:nodetypes="cc"
         inkscape:connector-curvature="0"
         id="path6210"
         d="m -345.47903,270.4708 c -2.05118,4.99997 -6.53387,9.40262 -12.27466,11.06119"
         style="fill:none;stroke:#000000;stroke-width:1px;stroke-linecap:butt;stroke-linejoin:miter;stroke-opacity:1" />
      <path
         sodipodi:nodetypes="cc"
         inkscape:connector-curvature="0"
         id="path6212"
         d="m -406.4824,266.75547 c -31.44178,-34.78633 -8.52941,-81.09818 23.27442,-103.26886"
         style="fill:none;stroke:#000000;stroke-width:1px;stroke-linecap:butt;stroke-linejoin:miter;stroke-opacity:1" />
      <path
         sodipodi:nodetypes="cc"
         inkscape:connector-curvature="0"
         id="path6214"
         d="m -389.93422,159.42331 c -22.49163,9.55357 -35.36612,29.88001 -39.68085,44.21041"
         style="fill:none;stroke:#000000;stroke-width:1px;stroke-linecap:butt;stroke-linejoin:miter;stroke-opacity:1" />
      <path
         sodipodi:nodetypes="cc"
         inkscape:connector-curvature="0"
         id="path6216"
         d="m -375.89756,186.42922 c 23.35156,8.90946 46.48742,14.32915 65.20157,12.27772"
         style="fill:none;stroke:#000000;stroke-width:1px;stroke-linecap:butt;stroke-linejoin:miter;stroke-opacity:1" />
      <path
         sodipodi:nodetypes="csssccsssc"
         inkscape:connector-curvature="0"
         id="path5220-1-2-7"
         d="m -373.62299,157.66123 c -29.56905,0 -53.5395,24.17155 -53.5395,53.98868 0,29.81712 23.97045,53.98868 53.5395,53.98868 29.56905,0 53.53951,-24.17156 53.53951,-53.98868 0,-29.81713 -23.97046,-53.98868 -53.53951,-53.98868 l 5.93482,-3.80399 c 34.7242,0 62.87373,28.3857 62.87373,63.40122 0,35.01552 -28.14953,63.40121 -62.87373,63.40121 -34.7242,0 -62.87373,-28.38569 -62.87373,-63.40121 0,-35.01552 28.14953,-63.40122 62.87373,-63.40122"
         style="opacity:0.2;fill:#000000;stroke:none;display:inline" />
    </g>
    <g
       style="display:inline"
       id="g6803"
       transform="translate(0.18728184,0.4120811)">
      <path
         sodipodi:nodetypes="ccccccccccc"
         inkscape:connector-curvature="0"
         id="path6196-3-5"
         d="M 98.091819,43.979828 C 98.236697,38.674827 95.003947,31.398047 92.447911,28.21581 88.909062,23.856846 84.393901,19.738266 80.070256,17.724325 86.985421,23.66567 88.43622,35.546042 87.777095,44.330132 83.755183,43.88428 78.657953,43.348076 73.90557,42.085783 72.277159,33.146283 65.397637,10.728618 51.344724,11.857776 46.650918,11.877771 42.175638,13.755265 37.718296,15.78518 48.129362,13.359861 50.51013,28.34296 51.244072,35.060813 44.834289,38.373709 37.983576,46.1286 34.818367,53.850266 c 24.564119,4.251613 54.967826,8.608823 67.885883,9.492039 0.22991,-7.68626 -1.25578,-15.650222 -4.612431,-19.362477 z"
         style="fill:#0055d4;stroke:none;display:inline" />
      <path
         sodipodi:nodetypes="ccccccccc"
         inkscape:connector-curvature="0"
         id="path6208-7-4"
         d="m 64.103166,103.68789 c 4.143873,-1.19721 7.379612,-4.37517 8.860214,-7.984297 -4.334486,0.501275 -10.248206,0.02858 -14.301042,-0.305854 -4.168848,4.129292 -11.051264,6.151571 -19.228202,5.293601 -5.009917,-1.850069 -9.641249,-5.375391 -12.592999,-7.74295 3.238396,0.250562 6.92177,-0.942269 10.018391,-3.082581 -4.873426,-6.814246 -6.458297,-14.142326 -5.892859,-21.80639 5.37631,7.767365 55.663316,27.343987 68.020392,8.888597 -6.025597,13.777182 -18.66036,23.991424 -34.883895,26.739874 z"
         style="fill:#0055d4;stroke:none;display:inline" />
      <path
         sodipodi:nodetypes="ccccc"
         inkscape:connector-curvature="0"
         id="path6210-5-3"
         d="m 63.8331,103.82861 c 4.143873,-1.19721 7.379612,-4.375169 8.860215,-7.984296 -4.110286,0.250395 -9.002444,0.02389 -14.301043,-0.305854 -4.168848,4.129292 -11.051264,6.15157 -19.228201,5.2936 7.165921,3.04996 17.549442,4.29682 24.669029,2.99655 z"
         style="fill:#ffff00;fill-opacity:1;stroke:none;display:inline" />
      <path
         sodipodi:nodetypes="cccccc"
         inkscape:connector-curvature="0"
         id="path6212-7-1"
         d="M 28.890491,93.015311 C 6.1948792,67.905503 22.684972,34.502247 45.641922,18.498791 44.637568,16.679549 42.132155,15.477327 40.866477,15.390325 24.631349,22.286376 15.33816,36.958605 12.223659,47.302714 8.7270219,60.700242 12.016422,79.110849 26.906694,93.065089 z"
         style="fill:#ffff00;fill-opacity:1;stroke:none;display:inline" />
      <path
         sodipodi:nodetypes="ccccc"
         inkscape:connector-curvature="0"
         id="path6202-1-2"
         d="m 87.806871,44.215022 c 0.659124,-8.78409 -0.791674,-20.664463 -7.706846,-26.605807 -9.253071,-5.498719 -18.983719,-7.020098 -28.725533,-5.866549 14.052914,-1.129158 20.932435,21.288506 22.560847,30.228007 4.182036,1.057509 9.994808,1.724632 13.871532,2.244349 z"
         style="fill:#ffff00;fill-opacity:1;stroke:none;display:inline" />
      <path
         sodipodi:nodetypes="ccccc"
         inkscape:connector-curvature="0"
         id="path6218-3"
         d="m 34.815169,53.757121 c -2.038505,4.260795 -3.661395,8.833305 -3.789606,14.526823 7.41379,9.014795 55.791427,26.249455 67.716653,8.932643 2.095974,-4.464314 3.706704,-9.792198 3.834724,-14.165908 C 82.454272,61.15088 57.573465,57.925702 34.815169,53.757121 z"
         style="fill:#ffff00;fill-opacity:1;stroke:none" />
      <path
         transform="matrix(0.99182981,0,0,1.0001508,299.0355,-141.38423)"
         d="m -197.66371,199.20552 a 46.365559,46.365559 0 1 1 -92.73111,0 46.365559,46.365559 0 1 1 92.73111,0 z"
         sodipodi:ry="46.365559"
         sodipodi:rx="46.365559"
         sodipodi:cy="199.20552"
         sodipodi:cx="-244.02927"
         id="path5220-1-3"
         style="fill:none;stroke:#000000;stroke-width:2.00806928;stroke-linecap:round;stroke-miterlimit:4;stroke-opacity:1;stroke-dasharray:none;stroke-dashoffset:0;display:inline"
         sodipodi:type="arc" />
      <path
         sodipodi:nodetypes="cccc"
         inkscape:connector-curvature="0"
         id="path6194-4"
         d="M 37.650791,15.755289 C 48.061857,13.32997 50.453574,28.331758 51.187516,35.049611 38.840987,41.674131 21.677983,67.017003 36.802973,89.854614 33.706352,91.994926 30.022977,93.187756 26.784582,92.937195"
         style="fill:none;stroke:#000000;stroke-width:2;stroke-linecap:butt;stroke-linejoin:miter;stroke-opacity:1" />
      <path
         sodipodi:nodetypes="ccc"
         inkscape:connector-curvature="0"
         id="path6196-1"
         d="m 92.391363,28.204607 c 2.556035,3.182237 5.788786,10.459017 5.643908,15.764019 3.356649,3.712254 4.842339,11.676217 4.592969,19.617434"
         style="fill:none;stroke:#000000;stroke-width:2;stroke-linecap:butt;stroke-linejoin:miter;stroke-opacity:1" />
      <path
         sodipodi:nodetypes="cc"
         inkscape:connector-curvature="0"
         id="path6198-1"
         d="m 36.582793,89.799567 c 15.635482,7.561073 41.407179,7.648869 50.888174,2.784552"
         style="fill:none;stroke:#000000;stroke-width:2;stroke-linecap:butt;stroke-linejoin:miter;stroke-opacity:1" />
      <path
         sodipodi:nodetypes="cc"
         inkscape:connector-curvature="0"
         id="path6200-3"
         d="M 73.849015,42.07458 C 72.220603,33.13508 65.341082,10.717415 51.288168,11.846574"
         style="fill:none;stroke:#000000;stroke-width:2;stroke-linecap:butt;stroke-linejoin:miter;stroke-opacity:1" />
      <path
         sodipodi:nodetypes="cc"
         inkscape:connector-curvature="0"
         id="path6202-8"
         d="M 87.720547,44.31893 C 88.379672,35.534839 86.928873,23.654467 80.013701,17.713122"
         style="fill:none;stroke:#000000;stroke-width:2;stroke-linecap:butt;stroke-linejoin:miter;stroke-opacity:1" />
      <path
         sodipodi:nodetypes="cc"
         inkscape:connector-curvature="0"
         id="path6204-7"
         d="M 102.66717,63.076138 C 89.729645,62.447886 59.32593,58.090676 34.761811,53.839063"
         style="fill:none;stroke:#000000;stroke-width:2;stroke-linecap:butt;stroke-linejoin:miter;stroke-opacity:1" />
      <path
         sodipodi:nodetypes="cc"
         inkscape:connector-curvature="0"
         id="path6206-4"
         d="m 30.910113,68.048216 c 5.376311,7.767365 55.663324,27.343994 68.0204,8.888597"
         style="fill:none;stroke:#000000;stroke-width:2;stroke-linecap:butt;stroke-linejoin:miter;stroke-opacity:1" />
      <path
         sodipodi:nodetypes="cc"
         inkscape:connector-curvature="0"
         id="path6208-2"
         d="m 58.605782,95.386544 c -4.168848,4.129292 -11.051264,6.151566 -19.228201,5.293596"
         style="fill:none;stroke:#000000;stroke-width:2;stroke-linecap:butt;stroke-linejoin:miter;stroke-opacity:1" />
      <path
         sodipodi:nodetypes="cc"
         inkscape:connector-curvature="0"
         id="path6210-7"
         d="m 72.906825,95.692397 c -1.480603,3.609127 -4.716342,6.787093 -8.860215,7.984293"
         style="fill:none;stroke:#000000;stroke-width:2;stroke-linecap:butt;stroke-linejoin:miter;stroke-opacity:1" />
      <path
         sodipodi:nodetypes="cc"
         inkscape:connector-curvature="0"
         id="path6212-79"
         d="M 28.872778,93.010562 C 6.1771655,67.900754 22.715996,34.471483 45.672947,18.468026"
         style="fill:none;stroke:#000000;stroke-width:2;stroke-linecap:butt;stroke-linejoin:miter;stroke-opacity:1" />
      <path
         sodipodi:nodetypes="cc"
         inkscape:connector-curvature="0"
         id="path6214-3"
         d="M 40.817746,15.535015 C 24.582619,22.431066 15.289429,37.103296 12.174928,47.447405"
         style="fill:none;stroke:#000000;stroke-width:2;stroke-linecap:butt;stroke-linejoin:miter;stroke-opacity:1" />
      <path
         sodipodi:nodetypes="cc"
         inkscape:connector-curvature="0"
         id="path6216-1"
         d="m 50.949825,35.028685 c 16.855851,6.431113 33.556003,10.343206 47.064433,8.862423"
         style="fill:none;stroke:#000000;stroke-width:2;stroke-linecap:butt;stroke-linejoin:miter;stroke-opacity:1" />
      <path
         sodipodi:nodetypes="csssccsssc"
         inkscape:connector-curvature="0"
         id="path5220-1-2-7-9"
         d="m 52.733266,15.673096 c -20.638381,0 -37.369093,16.875873 -37.369093,37.693325 0,20.817445 16.730712,37.693325 37.369093,37.693325 20.638381,0 37.369102,-16.87588 37.369102,-37.693325 0,-20.817452 -16.730721,-37.693325 -37.369102,-37.693325 l 4.142341,-2.655835 c 24.236534,0 43.884133,19.818069 43.884133,44.264886 0,24.446817 -19.647599,44.264883 -43.884133,44.264883 -24.236534,0 -43.884129,-19.818066 -43.884129,-44.264883 0,-24.446817 19.647595,-44.264886 43.884129,-44.264886"
         style="opacity:0.2;fill:#000000;stroke:none;display:inline" />
    </g>
    <path
       style="fill:none;stroke:#000000;stroke-width:3;stroke-linecap:butt;stroke-linejoin:miter;stroke-opacity:1;display:inline"
       d="m 52.82384,111.58119 5.34619,25.97577"
       id="path6861"
       inkscape:connector-curvature="0"
       sodipodi:nodetypes="cc" />
    <path
       style="fill:none;stroke:#000000;stroke-width:3;stroke-linecap:butt;stroke-linejoin:miter;stroke-opacity:1;display:inline"
       d="m 68.12283,105.32814 3.47487,13.54379"
       id="path6863"
       inkscape:connector-curvature="0"
       sodipodi:nodetypes="cc" />
    <path
       style="fill:none;stroke:#000000;stroke-width:3;stroke-linecap:butt;stroke-linejoin:miter;stroke-opacity:1;display:inline"
       d="m 82.84339,99.105423 4.5533,17.566757"
       id="path6865"
       inkscape:connector-curvature="0"
       sodipodi:nodetypes="cc" />
  </g>
  <g
     inkscape:groupmode="layer"
     id="layer4"
     inkscape:label="吹き出し"
     sodipodi:insensitive="true">
    <g
       transform="translate(0.18727184,0.4120811)"
       style="display:inline"
       id="g10230">
      <path
         sodipodi:nodetypes="sscssss"
         inkscape:connector-curvature="0"
         id="path5218"
         d="m 356.12582,62.613048 c 0,22.04096 -38.55667,39.908692 -86.11873,39.908692 -7.31722,0 -26.6713,11.07709 -41.45462,13.28116 5.52889,-5.89197 9.51645,-16.026603 4.51911,-17.127748 -29.08037,-6.407735 -49.18324,-20.146993 -49.18324,-36.062104 0,-22.04096 38.55668,-39.908689 86.11875,-39.908689 47.56206,0 86.11873,17.867729 86.11873,39.908689 z"
         style="fill:#fefefe;fill-opacity:1;stroke:#000000;stroke-width:3" />
      <text
         sodipodi:linespacing="125%"
         id="text6890"
         y="78.876587"
         x="212.13203"
         style="font-size:64px;font-style:normal;font-weight:normal;line-height:125%;letter-spacing:0px;word-spacing:0px;writing-mode:tb-rl;fill:#000000;fill-opacity:1;stroke:none;font-family:Sans"
         xml:space="preserve"><tspan
           style="font-size:48px;writing-mode:lr-tb"
           y="78.876587"
           x="212.13203"
           id="tspan6892"
           sodipodi:role="line">パス!</tspan></text>
    </g>
  </g>
  <g
     inkscape:groupmode="layer"
     id="layer2"
     inkscape:label="レイヤー"
     sodipodi:insensitive="true">
    <path
       style="fill:#ffffff;stroke:none;display:inline"
       d="m 0,0 0,320 370,0 0,-320 -10,10 0,300 -350,0 0,-300 350,0 10,-10 z"
       id="path21072"
       inkscape:connector-curvature="0"
       sodipodi:nodetypes="ccccccccccc" />
  </g>
</svg>
