<?xml version="1.0" encoding="UTF-8" standalone="no"?>
<!-- Created with Inkscape (http://www.inkscape.org/) -->

<svg
   xmlns:dc="http://purl.org/dc/elements/1.1/"
   xmlns:cc="http://creativecommons.org/ns#"
   xmlns:rdf="http://www.w3.org/1999/02/22-rdf-syntax-ns#"
   xmlns:svg="http://www.w3.org/2000/svg"
   xmlns="http://www.w3.org/2000/svg"
   xmlns:sodipodi="http://sodipodi.sourceforge.net/DTD/sodipodi-0.dtd"
   xmlns:inkscape="http://www.inkscape.org/namespaces/inkscape"
   width="370"
   height="320"
   id="svg3172"
   version="1.1"
   inkscape:version="0.48.4 r9939"
   sodipodi:docname="[08.音頭].svg"
   inkscape:export-filename="C:\Users\執安\Desktop\資料\臨時\svg\[07.驚愕].png"
   inkscape:export-xdpi="90"
   inkscape:export-ydpi="90">
  <defs
     id="defs3174" />
  <sodipodi:namedview
     id="base"
     pagecolor="#ffffff"
     bordercolor="#666666"
     borderopacity="1.0"
     inkscape:pageopacity="0.0"
     inkscape:pageshadow="2"
     inkscape:zoom="0.28436525"
     inkscape:cx="757.21299"
     inkscape:cy="180.83906"
     inkscape:document-units="px"
     inkscape:current-layer="layer3"
     showgrid="false"
     inkscape:window-width="1242"
     inkscape:window-height="698"
     inkscape:window-x="-8"
     inkscape:window-y="-1"
     inkscape:window-maximized="0" />
  <metadata
     id="metadata3177">
    <rdf:RDF>
      <cc:Work
         rdf:about="">
        <dc:format>image/svg+xml</dc:format>
        <dc:type
           rdf:resource="http://purl.org/dc/dcmitype/StillImage" />
        <dc:title />
      </cc:Work>
    </rdf:RDF>
  </metadata>
  <g
     inkscape:label="補助線"
     inkscape:groupmode="layer"
     id="layer1"
     transform="translate(0,-732.36218)"
     sodipodi:insensitive="true"
     style="display:none">
    <path
       style="fill:none;stroke:#0000ff;stroke-width:1px;stroke-linecap:butt;stroke-linejoin:miter;stroke-opacity:1;display:inline"
       d="M 10,1042.3622 360,742.36211"
       id="path3025"
       inkscape:connector-curvature="0"
       sodipodi:nodetypes="cc" />
    <path
       style="fill:none;stroke:#0000ff;stroke-width:1px;stroke-linecap:butt;stroke-linejoin:miter;stroke-opacity:1;display:inline"
       d="M 10,742.36211 360,1042.3622"
       id="path3027"
       inkscape:connector-curvature="0"
       sodipodi:nodetypes="cc" />
    <path
       style="fill:none;stroke:#ff0000;stroke-width:1px;stroke-linecap:butt;stroke-linejoin:miter;stroke-opacity:1;display:inline"
       d="m 10,732.36211 0,320.00009"
       id="path3006"
       inkscape:connector-curvature="0"
       sodipodi:nodetypes="cc" />
    <path
       style="fill:none;stroke:#ff0000;stroke-width:1px;stroke-linecap:butt;stroke-linejoin:miter;stroke-opacity:1;display:inline"
       d="m 360,732.36211 0,320.00009"
       id="path3010"
       inkscape:connector-curvature="0"
       sodipodi:nodetypes="cc" />
    <path
       style="fill:none;stroke:#ff0000;stroke-width:1px;stroke-linecap:butt;stroke-linejoin:miter;stroke-opacity:1;display:inline"
       d="m 0,742.36208 370,3e-5"
       id="path3016"
       inkscape:connector-curvature="0" />
    <path
       style="fill:none;stroke:#ff0000;stroke-width:1px;stroke-linecap:butt;stroke-linejoin:miter;stroke-opacity:1;display:inline"
       d="m 0,1042.3622 370,0"
       id="path3018"
       inkscape:connector-curvature="0"
       sodipodi:nodetypes="cc" />
  </g>
  <g
     inkscape:groupmode="layer"
     id="layer3"
     inkscape:label="豚"
     sodipodi:insensitive="true">
    <g
       id="g6615"
       transform="matrix(1.3723853,0,0,1.3723853,-73.072088,-35.688441)"
       style="stroke-width:2.18597507;display:inline">
      <path
         style="fill:#fffff8;fill-opacity:1;stroke:#000000;stroke-width:2.18597507;stroke-linecap:butt;stroke-linejoin:miter;stroke-opacity:1;display:inline"
         d="m 256.83567,216.18575 c 20.9036,1.43926 18.2857,-17.45788 -5.9447,-43.56133 4.8436,-39.52498 -20.05912,-71.92509 -56.47557,-75.056746 -34.04349,-2.92759 -61.84195,18.812406 -64.57972,53.123776 l -18.68323,3.60053 2.82984,31.82668"
         id="path5744"
         inkscape:connector-curvature="0"
         sodipodi:nodetypes="ccsccc" />
      <rect
         style="fill:none;stroke:#000000;stroke-width:2.18597507;stroke-linecap:round;stroke-miterlimit:4;stroke-opacity:1;stroke-dasharray:none;stroke-dashoffset:0;display:inline"
         id="rect5746"
         width="5.9043674"
         height="37.394283"
         x="120.16837"
         y="130.701"
         ry="1.9681202" />
      <path
         style="fill:#fffff8;fill-opacity:1;stroke:#000000;stroke-width:2.18597507;stroke-linecap:butt;stroke-linejoin:miter;stroke-opacity:1;display:inline"
         d="m 118.48527,164.1625 c 22.37111,-12.13263 10.07401,-31.86431 -4.61464,-21.44537 -12.26281,8.69825 -8.08144,34.66192 1.82001,48.6634"
         id="path5748"
         inkscape:connector-curvature="0"
         sodipodi:nodetypes="csc" />
      <path
         style="fill:#fffff8;fill-opacity:1;stroke:#000000;stroke-width:2.18597507;stroke-linecap:butt;stroke-linejoin:miter;stroke-opacity:1;display:inline"
         d="m 116.42719,184.45277 c -5.54458,57.40158 49.00237,83.29547 81.99559,83.62041 29.65594,0.29208 63.48719,-10.33402 74.46599,-21.6658 -13.6331,-0.52282 -4.6654,-15.02775 -12.8032,-33.95847"
         id="path5750"
         inkscape:connector-curvature="0"
         sodipodi:nodetypes="cscc" />
      <path
         style="fill:#aa0000;stroke:#000000;stroke-width:2.18597507;stroke-linecap:butt;stroke-linejoin:miter;stroke-opacity:1;display:inline"
         d="m 153.19365,142.64925 c 2.81886,1.21645 3.92514,2.23994 5.8916,2.05014 2.83186,-0.27332 5.97583,-4.05674 12.17891,-3.17923 7.95805,1.12578 10.50087,5.99176 15.30164,8.82821 4.1671,2.46206 7.39598,-1.52299 10.55005,-0.98058 -8.6999,0.31287 -7.2782,15.31079 -25.75504,12.69123 -17.61532,-2.4974 -12.46914,-14.36229 -18.16716,-19.40977 z"
         id="path5752"
         inkscape:connector-curvature="0"
         sodipodi:nodetypes="cssscsc" />
      <path
         style="fill:none;stroke:#000000;stroke-width:2.18597507;stroke-linecap:butt;stroke-linejoin:miter;stroke-opacity:1;display:inline"
         d="m 165.12548,125.6297 1.38931,11.51755"
         id="path5754"
         inkscape:connector-curvature="0"
         sodipodi:nodetypes="cc" />
      <path
         style="fill:none;stroke:#000000;stroke-width:2.18597507;stroke-linecap:butt;stroke-linejoin:miter;stroke-opacity:1;display:inline"
         d="m 187.80382,131.06762 -9.11232,9.60502"
         id="path5756"
         inkscape:connector-curvature="0"
         sodipodi:nodetypes="cc" />
      <path
         style="opacity:0.65;fill:#ff6600;stroke:none;display:inline"
         d="m 134.47573,137.02709 0,34.30154 c 0,4.36135 -1.51113,5.87248 -5.87248,5.87248 l -21.36816,0 c -4.36135,0 -5.61862,-1.51852 -5.87248,-5.87248 l 0,-34.30154 z"
         id="path5758"
         inkscape:connector-curvature="0"
         sodipodi:nodetypes="csssscc" />
      <path
         sodipodi:nodetypes="sssssssss"
         inkscape:connector-curvature="0"
         id="rect5760"
         d="m 105.23504,118.89227 25.36816,0 c 4.36135,0 5.87248,1.51113 5.87248,5.87249 l 0,46.70444 c 0,4.36136 -3.51113,7.87248 -7.87248,7.87248 l -21.36816,0 c -4.36135,0 -7.872482,-3.51112 -7.872482,-7.87248 l 0,-46.70444 c 0,-4.36136 1.511132,-5.87249 5.872482,-5.87249 z"
         style="fill:none;stroke:#000000;stroke-width:2.18597507;display:inline" />
    </g>
  </g>
  <g
     inkscape:groupmode="layer"
     id="layer6"
     inkscape:label="机"
     style="display:inline"
     sodipodi:insensitive="true">
    <g
       id="g4141">
      <path
         style="fill:#d38d5f;fill-opacity:1;stroke:none;display:inline"
         d="m 6.4426678,270.10173 357.4788822,0 0,39.92555 -357.4788822,0 z"
         id="path5762"
         inkscape:connector-curvature="0"
         sodipodi:nodetypes="ccccc" />
      <path
         inkscape:connector-curvature="0"
         style="fill:none;stroke:#000000;stroke-width:3;display:inline"
         d="m 364.19438,270.10173 -357.4788682,0"
         id="path5764"
         sodipodi:nodetypes="cc" />
    </g>
  </g>
  <g
     inkscape:groupmode="layer"
     id="layer7"
     inkscape:label="吹き出し"
     style="display:inline"
     sodipodi:insensitive="true">
    <g
       style="display:inline"
       id="g4149">
      <path
         sodipodi:nodetypes="sscssss"
         inkscape:connector-curvature="0"
         id="path6626"
         d="m 357.17362,52.22105 c 0,17.377287 -35.9384,32.131983 -85.85979,37.404317 -6.46601,0.682886 -16.91417,17.265553 -29.99874,23.708363 0.16763,-9.63262 -3.52787,-21.638547 -10.48246,-21.638547 -69.7762,0 -126.34099,-17.67317 -126.34099,-39.474133 0,-21.800962 56.56479,-39.474134 126.34099,-39.474134 69.7762,0 126.34099,17.673172 126.34099,39.474134 z"
         style="fill:#fefefe;fill-opacity:1;stroke:#000000;stroke-width:3;display:inline" />
      <text
         sodipodi:linespacing="125%"
         id="text7148"
         y="64.704124"
         x="123.79393"
         style="font-size:32px;font-style:normal;font-weight:normal;line-height:125%;letter-spacing:0px;word-spacing:0px;writing-mode:lr-tb;fill:#000000;fill-opacity:1;stroke:none;display:inline;font-family:Sans"
         xml:space="preserve"><tspan
           y="64.704124"
           x="123.79393"
           id="tspan7150"
           sodipodi:role="line">皆さんに乾杯!!</tspan></text>
    </g>
  </g>
  <g
     inkscape:groupmode="layer"
     id="layer2"
     inkscape:label="レイヤー"
     sodipodi:insensitive="true">
    <path
       style="fill:#ffffff;stroke:none;display:inline"
       d="m 0,0 0,320 370,0 0,-320 -10,10 0,300 -350,0 0,-300 350,0 10,-10 z"
       id="path21072"
       inkscape:connector-curvature="0"
       sodipodi:nodetypes="ccccccccccc" />
  </g>
</svg>
