<?xml version="1.0" encoding="UTF-8" standalone="no"?>
<!-- Created with Inkscape (http://www.inkscape.org/) -->

<svg
   xmlns:dc="http://purl.org/dc/elements/1.1/"
   xmlns:cc="http://creativecommons.org/ns#"
   xmlns:rdf="http://www.w3.org/1999/02/22-rdf-syntax-ns#"
   xmlns:svg="http://www.w3.org/2000/svg"
   xmlns="http://www.w3.org/2000/svg"
   xmlns:sodipodi="http://sodipodi.sourceforge.net/DTD/sodipodi-0.dtd"
   xmlns:inkscape="http://www.inkscape.org/namespaces/inkscape"
   width="370"
   height="320"
   id="svg3172"
   version="1.1"
   inkscape:version="0.48.4 r9939"
   sodipodi:docname="[10.衝撃].svg"
   inkscape:export-filename="C:\Users\執安\Desktop\資料\臨時\svg\[09.目撃].png"
   inkscape:export-xdpi="90"
   inkscape:export-ydpi="90">
  <defs
     id="defs3174" />
  <sodipodi:namedview
     id="base"
     pagecolor="#ffffff"
     bordercolor="#666666"
     borderopacity="1.0"
     inkscape:pageopacity="0.0"
     inkscape:pageshadow="2"
     inkscape:zoom="1.4423988"
     inkscape:cx="169.21006"
     inkscape:cy="160.94661"
     inkscape:document-units="px"
     inkscape:current-layer="layer12"
     showgrid="false"
     inkscape:window-width="1242"
     inkscape:window-height="698"
     inkscape:window-x="-8"
     inkscape:window-y="-1"
     inkscape:window-maximized="0" />
  <metadata
     id="metadata3177">
    <rdf:RDF>
      <cc:Work
         rdf:about="">
        <dc:format>image/svg+xml</dc:format>
        <dc:type
           rdf:resource="http://purl.org/dc/dcmitype/StillImage" />
        <dc:title></dc:title>
      </cc:Work>
    </rdf:RDF>
  </metadata>
  <g
     inkscape:label="補助線"
     inkscape:groupmode="layer"
     id="layer1"
     transform="translate(0,-732.36218)"
     style="display:none"
     sodipodi:insensitive="true">
    <path
       style="fill:none;stroke:#0000ff;stroke-width:1px;stroke-linecap:butt;stroke-linejoin:miter;stroke-opacity:1;display:inline"
       d="M 10,1042.3622 360,742.36211"
       id="path3025"
       inkscape:connector-curvature="0"
       sodipodi:nodetypes="cc" />
    <path
       style="fill:none;stroke:#0000ff;stroke-width:1px;stroke-linecap:butt;stroke-linejoin:miter;stroke-opacity:1;display:inline"
       d="M 10,742.36211 360,1042.3622"
       id="path3027"
       inkscape:connector-curvature="0"
       sodipodi:nodetypes="cc" />
    <path
       style="fill:none;stroke:#ff0000;stroke-width:1px;stroke-linecap:butt;stroke-linejoin:miter;stroke-opacity:1;display:inline"
       d="m 10,732.36211 0,320.00009"
       id="path3006"
       inkscape:connector-curvature="0"
       sodipodi:nodetypes="cc" />
    <path
       style="fill:none;stroke:#ff0000;stroke-width:1px;stroke-linecap:butt;stroke-linejoin:miter;stroke-opacity:1;display:inline"
       d="m 360,732.36211 0,320.00009"
       id="path3010"
       inkscape:connector-curvature="0"
       sodipodi:nodetypes="cc" />
    <path
       style="fill:none;stroke:#ff0000;stroke-width:1px;stroke-linecap:butt;stroke-linejoin:miter;stroke-opacity:1;display:inline"
       d="m 0,742.36208 370,3e-5"
       id="path3016"
       inkscape:connector-curvature="0" />
    <path
       style="fill:none;stroke:#ff0000;stroke-width:1px;stroke-linecap:butt;stroke-linejoin:miter;stroke-opacity:1;display:inline"
       d="m 0,1042.3622 370,0"
       id="path3018"
       inkscape:connector-curvature="0"
       sodipodi:nodetypes="cc" />
  </g>
  <g
     inkscape:groupmode="layer"
     id="layer11"
     inkscape:label="字幕"
     style="display:inline"
     sodipodi:insensitive="true">
    <g
       id="g5255">
      <text
         sodipodi:linespacing="125%"
         id="text4696"
         y="106.88457"
         x="46.744514"
         style="font-size:48px;font-style:normal;font-weight:normal;line-height:125%;letter-spacing:0px;word-spacing:0px;writing-mode:tb-rl;fill:#000000;fill-opacity:1;stroke:none;display:inline;font-family:Sans"
         xml:space="preserve"><tspan
           y="46.744514"
           x="106.88457"
           id="tspan4698"
           sodipodi:role="line">二度寝</tspan></text>
      <text
         transform="scale(0.81630354,1.2250345)"
         sodipodi:linespacing="125%"
         id="text4700"
         y="56.874474"
         x="11.134454"
         style="font-size:78.40221405px;font-style:normal;font-weight:normal;line-height:125%;letter-spacing:0px;word-spacing:0px;writing-mode:lr-tb;fill:#000000;fill-opacity:1;stroke:none;display:inline;font-family:Sans"
         xml:space="preserve"><tspan
           style="font-size:44.10124207px;font-style:normal;font-variant:normal;font-weight:normal;font-stretch:normal;font-family:Javanese Text;-inkscape-font-specification:Javanese Text"
           y="56.874474"
           x="11.134454"
           id="tspan4702"
           sodipodi:role="line">THE</tspan></text>
      <text
         sodipodi:linespacing="125%"
         id="text4704"
         y="60.17408"
         x="46.744507"
         style="font-size:64px;font-style:normal;font-weight:normal;line-height:125%;letter-spacing:0px;word-spacing:0px;writing-mode:tb-rl;fill:#000000;fill-opacity:1;stroke:none;display:inline;font-family:Sans"
         xml:space="preserve"><tspan
           y="46.744507"
           x="60.17408"
           id="tspan4706"
           sodipodi:role="line">・</tspan></text>
    </g>
  </g>
  <g
     inkscape:groupmode="layer"
     id="layer3"
     inkscape:label="豚"
     sodipodi:insensitive="true">
    <g
       id="g5237">
      <path
         style="fill:#fffff8;fill-opacity:1;stroke:#000000;stroke-width:3;stroke-linecap:butt;stroke-linejoin:miter;stroke-opacity:1;display:inline"
         d="M 103.60346,271.90143 C 68.155137,230.3487 81.596647,180.35406 101.61957,143.86565 c 15.9709,-61.813269 72.2213,-83.125127 119.08547,-71.250749 54.05562,13.696568 86.08138,62.495479 75.0779,126.991709 17.92702,33.44386 19.53525,62.61457 -7.10357,59.84042"
         id="path5916"
         inkscape:connector-curvature="0"
         sodipodi:nodetypes="ccscc" />
      <path
         style="fill:none;stroke:#000000;stroke-width:3;stroke-linecap:butt;stroke-linejoin:miter;stroke-opacity:1;display:inline"
         d="m 206.59557,168.09605 c -17.11161,15.99542 -28.45343,0.65958 -36.3048,-10.54229 -9.12564,-13.01974 -25.64101,-11.48557 -36.1978,2.74201"
         id="path5918"
         inkscape:connector-curvature="0"
         sodipodi:nodetypes="csc" />
      <path
         style="fill:none;stroke:#000000;stroke-width:3;stroke-linecap:butt;stroke-linejoin:miter;stroke-opacity:1;display:inline"
         d="m 162.1897,113.273 -8.99026,29.96777"
         id="path5920"
         inkscape:connector-curvature="0"
         sodipodi:nodetypes="cc" />
      <path
         style="fill:none;stroke:#000000;stroke-width:3;stroke-linecap:butt;stroke-linejoin:miter;stroke-opacity:1;display:inline"
         d="m 190.02221,122.25817 -10.86603,28.70711"
         id="path5922"
         inkscape:connector-curvature="0"
         sodipodi:nodetypes="cc" />
      <path
         style="fill:none;stroke:#000000;stroke-width:3;stroke-linecap:butt;stroke-linejoin:miter;stroke-opacity:1;display:inline"
         d="m 132.80707,194.93846 c 29.75419,10.22751 72.71648,36.97051 51.20927,58.75366"
         id="path5924"
         inkscape:connector-curvature="0"
         sodipodi:nodetypes="cc" />
      <path
         style="fill:none;stroke:#000000;stroke-width:3;stroke-linecap:butt;stroke-linejoin:miter;stroke-opacity:1;display:inline"
         d="m 164.1326,130.38436 -12.40314,-4.05649"
         id="path5926"
         inkscape:connector-curvature="0"
         sodipodi:nodetypes="cc" />
      <path
         style="fill:none;stroke:#000000;stroke-width:3;stroke-linecap:butt;stroke-linejoin:miter;stroke-opacity:1;display:inline"
         d="m 192.27782,139.3061 -13.4875,-4.78561"
         id="path5928"
         inkscape:connector-curvature="0"
         sodipodi:nodetypes="cc" />
    </g>
  </g>
  <g
     inkscape:groupmode="layer"
     id="layer12"
     inkscape:label="擬態"
     style="display:inline"
     sodipodi:insensitive="true">
    <g
       id="g5270">
      <path
         sodipodi:nodetypes="csssc"
         inkscape:connector-curvature="0"
         id="path5413"
         d="m 158.47378,39.030939 c -15.32056,-1.428698 -25.02263,-3.545795 -25.02263,-5.908576 0,-4.302527 32.17129,-7.790419 71.85658,-7.790419 39.6853,0 71.85658,3.487892 71.85658,7.790419 0,4.302537 -32.17128,7.790429 -71.85658,7.790429"
         style="fill:none;stroke:#000000;stroke-width:3;display:inline" />
      <path
         sodipodi:nodetypes="cssc"
         inkscape:connector-curvature="0"
         id="path5331"
         d="m 193.02367,40.094039 c 7.46857,-1.41132 18.8585,0.21968 19.11216,3.62542 0.21306,2.86054 -0.77961,8.36945 -5.01105,9.39237 -3.63899,0.8797 -7.95585,-4.65274 -13.64072,-10.76984"
         style="fill:#ffff00;stroke:#000000;stroke-width:3;stroke-linecap:butt;stroke-linejoin:miter;stroke-opacity:1;display:inline" />
      <path
         sodipodi:nodetypes="cssc"
         inkscape:connector-curvature="0"
         id="path5333"
         d="m 190.53792,40.100259 c -2.05434,0.63971 -4.10076,1.69763 -4.58498,3.41319 -0.55766,1.97574 4.19005,10.06975 5.2156,9.95558 2.60408,-0.2899 1.41361,-7.16169 1.69322,-9.59864"
         style="fill:#ffff00;stroke:#000000;stroke-width:3;stroke-linecap:butt;stroke-linejoin:miter;stroke-opacity:1;display:inline" />
      <path
         sodipodi:nodetypes="cssc"
         inkscape:connector-curvature="0"
         id="path5327"
         d="m 190.97783,37.875829 c 1.02217,-9.96302 25.91811,-24.5511 30.3544,-20.16444 3.11926,3.08438 -7.38867,7.24188 -9.54923,18.99485 -1.93217,10.51059 -10.62832,4.37816 -19.55022,3.32818"
         style="fill:#ffff00;stroke:#000000;stroke-width:3;stroke-linecap:butt;stroke-linejoin:miter;stroke-opacity:1;display:inline" />
      <path
         sodipodi:nodetypes="cssc"
         inkscape:connector-curvature="0"
         id="path5329"
         d="m 189.58739,37.866939 c -3.40394,-9.45457 -11.47651,-16.51966 -13.51966,-18.0403 -2.10441,-1.56624 6.64176,10.72285 8.23086,18.51074 1.0443,5.11792 4.16896,5.07326 6.06168,1.82657"
         style="fill:#ffff00;stroke:#000000;stroke-width:3;stroke-linecap:butt;stroke-linejoin:miter;stroke-opacity:1;display:inline" />
      <path
         sodipodi:nodetypes="csccscc"
         inkscape:connector-curvature="0"
         id="path5335"
         d="m 191.53647,41.692619 c 2.44839,3.00967 0.82583,9.4682 2.50797,9.16257 1.86237,-0.33837 1.72734,-5.57526 -1.09589,-9.57968 -0.24717,-1.65012 -0.77944,-3.21144 -1.84607,-4.47275 0.40255,-1.61437 -1.44613,-3.06231 -2.56153,-2.60298 -1.57972,0.65054 -0.99563,3.19268 0.49968,3.27563 0.3974,1.91663 0.32874,3.40068 2.49584,4.21721 z"
         style="fill:#333333;stroke:#000000;stroke-width:3;stroke-linecap:butt;stroke-linejoin:miter;stroke-opacity:1;display:inline" />
      <path
         sodipodi:nodetypes="cc"
         inkscape:connector-curvature="0"
         id="path5337"
         d="m 189.84233,34.234839 c 0.99978,-2.35134 0.74686,-6.29458 0.0142,-8.95177"
         style="fill:none;stroke:#000000;stroke-width:3;stroke-linecap:butt;stroke-linejoin:miter;stroke-opacity:1;display:inline" />
      <path
         sodipodi:nodetypes="cc"
         inkscape:connector-curvature="0"
         id="path5339"
         d="m 188.09002,34.317809 c -1.48701,-2.48494 -3.90263,-4.93079 -6.61281,-6.54582"
         style="fill:none;stroke:#000000;stroke-width:3;stroke-linecap:butt;stroke-linejoin:miter;stroke-opacity:1;display:inline" />
      <path
         sodipodi:nodetypes="csc"
         inkscape:connector-curvature="0"
         id="path5389"
         d="m 194.20919,27.671059 c 2.84051,-8.84463 15.82558,-17.7621789 14.8421,-14.95943 -0.98743,2.81399 -2.461,4.84296 -3.14185,8.01273"
         style="opacity:0.3;fill:#ffff00;stroke:#000000;stroke-width:3;stroke-linecap:butt;stroke-linejoin:miter;stroke-opacity:1;display:inline" />
      <path
         sodipodi:nodetypes="csc"
         inkscape:connector-curvature="0"
         id="path5391"
         d="m 189.29624,28.344819 c -0.65696,-2.98513 -2.67396,-12.03187 -4.56819,-14.87212 -0.6674,-1.00071 1.47617,8.91077 2.40494,13.69323"
         style="opacity:0.3;fill:#ffff00;stroke:#000000;stroke-width:3;stroke-linecap:butt;stroke-linejoin:miter;stroke-opacity:1;display:inline" />
    </g>
  </g>
  <g
     inkscape:groupmode="layer"
     id="layer10"
     inkscape:label="布団"
     style="display:inline"
     sodipodi:insensitive="true">
    <g
       id="g5246">
      <path
         style="fill:#fefefe;fill-opacity:1;stroke:#000000;stroke-width:3;stroke-linecap:butt;stroke-linejoin:miter;stroke-opacity:1;display:inline"
         d="m 67.344457,312.73874 c -5.29759,-35.82426 27.43413,-61.73268 42.174313,-78.3552 52.43106,-59.12658 187.94999,-40.57647 239.66414,26.67904 11.84236,15.40128 62.14516,23.39282 58.98875,52.87104"
         id="path5930-9"
         inkscape:connector-curvature="0"
         sodipodi:nodetypes="cssc" />
      <path
         style="fill:#000080;stroke:#000000;stroke-width:3;stroke-linecap:butt;stroke-linejoin:miter;stroke-opacity:1;display:inline"
         d="m 104.25481,312.96071 c 0.37735,-16.93251 26.69251,-31.71607 36.91599,-46.62759 34.6025,-50.4697 151.32671,-26.34838 207.05646,16.3951 15.41574,11.82364 28.1083,14.44833 25.69531,32.87409"
         id="path5932-4"
         inkscape:connector-curvature="0"
         sodipodi:nodetypes="cssc" />
    </g>
  </g>
  <g
     inkscape:groupmode="layer"
     id="layer2"
     inkscape:label="レイヤー"
     sodipodi:insensitive="true">
    <path
       style="fill:#ffffff;stroke:none;display:inline"
       d="m 0,0 0,320 370,0 0,-320 -10,10 0,300 -350,0 0,-300 350,0 10,-10 z"
       id="path21072"
       inkscape:connector-curvature="0"
       sodipodi:nodetypes="ccccccccccc" />
  </g>
</svg>
