<?xml version="1.0" encoding="UTF-8" standalone="no"?>
<!-- Created with Inkscape (http://www.inkscape.org/) -->

<svg
   xmlns:dc="http://purl.org/dc/elements/1.1/"
   xmlns:cc="http://creativecommons.org/ns#"
   xmlns:rdf="http://www.w3.org/1999/02/22-rdf-syntax-ns#"
   xmlns:svg="http://www.w3.org/2000/svg"
   xmlns="http://www.w3.org/2000/svg"
   xmlns:sodipodi="http://sodipodi.sourceforge.net/DTD/sodipodi-0.dtd"
   xmlns:inkscape="http://www.inkscape.org/namespaces/inkscape"
   width="370"
   height="320"
   id="svg3172"
   version="1.1"
   inkscape:version="0.48.4 r9939"
   sodipodi:docname="[11.起床].svg"
   inkscape:export-filename="C:\Users\執安\Desktop\資料\臨時\svg\[11.起床].png"
   inkscape:export-xdpi="90"
   inkscape:export-ydpi="90">
  <defs
     id="defs3174" />
  <sodipodi:namedview
     id="base"
     pagecolor="#ffffff"
     bordercolor="#666666"
     borderopacity="1.0"
     inkscape:pageopacity="0.0"
     inkscape:pageshadow="2"
     inkscape:zoom="1.01993"
     inkscape:cx="234.47736"
     inkscape:cy="130.84672"
     inkscape:document-units="px"
     inkscape:current-layer="layer13"
     showgrid="false"
     inkscape:window-width="1242"
     inkscape:window-height="698"
     inkscape:window-x="-8"
     inkscape:window-y="-1"
     inkscape:window-maximized="0" />
  <metadata
     id="metadata3177">
    <rdf:RDF>
      <cc:Work
         rdf:about="">
        <dc:format>image/svg+xml</dc:format>
        <dc:type
           rdf:resource="http://purl.org/dc/dcmitype/StillImage" />
        <dc:title></dc:title>
      </cc:Work>
    </rdf:RDF>
  </metadata>
  <g
     inkscape:label="補助線"
     inkscape:groupmode="layer"
     id="layer1"
     transform="translate(0,-732.36218)"
     style="display:none"
     sodipodi:insensitive="true">
    <path
       style="fill:none;stroke:#0000ff;stroke-width:1px;stroke-linecap:butt;stroke-linejoin:miter;stroke-opacity:1;display:inline"
       d="M 10,1042.3622 360,742.36211"
       id="path3025"
       inkscape:connector-curvature="0"
       sodipodi:nodetypes="cc" />
    <path
       style="fill:none;stroke:#0000ff;stroke-width:1px;stroke-linecap:butt;stroke-linejoin:miter;stroke-opacity:1;display:inline"
       d="M 10,742.36211 360,1042.3622"
       id="path3027"
       inkscape:connector-curvature="0"
       sodipodi:nodetypes="cc" />
    <path
       style="fill:none;stroke:#ff0000;stroke-width:1px;stroke-linecap:butt;stroke-linejoin:miter;stroke-opacity:1;display:inline"
       d="m 10,732.36211 0,320.00009"
       id="path3006"
       inkscape:connector-curvature="0"
       sodipodi:nodetypes="cc" />
    <path
       style="fill:none;stroke:#ff0000;stroke-width:1px;stroke-linecap:butt;stroke-linejoin:miter;stroke-opacity:1;display:inline"
       d="m 360,732.36211 0,320.00009"
       id="path3010"
       inkscape:connector-curvature="0"
       sodipodi:nodetypes="cc" />
    <path
       style="fill:none;stroke:#ff0000;stroke-width:1px;stroke-linecap:butt;stroke-linejoin:miter;stroke-opacity:1;display:inline"
       d="m 0,742.36208 370,3e-5"
       id="path3016"
       inkscape:connector-curvature="0" />
    <path
       style="fill:none;stroke:#ff0000;stroke-width:1px;stroke-linecap:butt;stroke-linejoin:miter;stroke-opacity:1;display:inline"
       d="m 0,1042.3622 370,0"
       id="path3018"
       inkscape:connector-curvature="0"
       sodipodi:nodetypes="cc" />
  </g>
  <g
     inkscape:groupmode="layer"
     id="layer3"
     inkscape:label="豚"
     sodipodi:insensitive="true">
    <path
       sodipodi:type="arc"
       style="fill:#000000;fill-opacity:1;stroke:none;display:inline"
       id="path3367"
       sodipodi:cx="145.18924"
       sodipodi:cy="297.39267"
       sodipodi:rx="90.931671"
       sodipodi:ry="11.554853"
       d="m 236.12091,297.39267 a 90.931671,11.554853 0 1 1 -181.863342,0 90.931671,11.554853 0 1 1 181.863342,0 z"
       transform="translate(-5.8955289,-3.2659624)" />
    <g
       style="display:inline"
       id="g3369"
       transform="translate(-5.1850489,-22.549894)">
      <path
         style="fill:#fffff8;fill-opacity:1;stroke:#000000;stroke-width:3;stroke-linecap:butt;stroke-linejoin:miter;stroke-opacity:1;display:inline"
         d="M 223.15407,134.04887 C 216.13113,78.959173 164.35863,56.654105 122.40658,64.731822 66.391898,75.517248 42.687384,118.93681 50.649841,182.08343 c -11.305978,32.03241 -2.14143,48.76752 -32.883289,46.11449 31.682932,15.87442 62.971331,74.54433 133.595948,69.99506 66.16611,-4.26213 100.02487,-47.32723 90.97246,-112.13747 8.01122,-52.01046 13.78729,-80.04352 -22.19001,-66.65276"
         id="path5996"
         inkscape:connector-curvature="0"
         sodipodi:nodetypes="csccscc" />
      <path
         style="fill:#aa0000;stroke:#000000;stroke-width:3;stroke-linecap:butt;stroke-linejoin:miter;stroke-opacity:1;display:inline"
         d="m 143.37748,155.28229 c 13.6066,-6.0676 14.12441,-25.25022 32.16009,-28.73727 12.89572,-2.49327 15.3122,9.38332 25.2308,-0.49542 -6.48681,8.90654 -1.27584,27.01171 -21.39145,35.3536 -18.82583,7.80702 -22.30585,-7.74055 -35.99944,-6.12091 z"
         id="path5998"
         inkscape:connector-curvature="0"
         sodipodi:nodetypes="cscsc" />
      <path
         style="fill:none;stroke:#000000;stroke-width:3;stroke-linecap:butt;stroke-linejoin:miter;stroke-opacity:1;display:inline"
         d="M 148.90738,229.79112 C 169.78093,188.97847 175.4565,157.2405 130.41144,178.50403"
         id="path6000"
         inkscape:connector-curvature="0"
         sodipodi:nodetypes="cc" />
      <path
         style="fill:none;stroke:#000000;stroke-width:3;stroke-linecap:butt;stroke-linejoin:miter;stroke-opacity:1;display:inline"
         d="m 174.87199,102.1701 c 2.56665,7.77329 5.34224,15.23315 11.96673,16.91967"
         id="path6002"
         inkscape:connector-curvature="0"
         sodipodi:nodetypes="cc" />
      <path
         style="fill:none;stroke:#000000;stroke-width:3;stroke-linecap:butt;stroke-linejoin:miter;stroke-opacity:1;display:inline"
         d="m 158.32215,108.80214 c -0.24615,6.26926 -0.0111,12.29765 -4.24273,20.55991"
         id="path6004"
         inkscape:connector-curvature="0"
         sodipodi:nodetypes="cc" />
    </g>
  </g>
  <g
     inkscape:groupmode="layer"
     id="layer13"
     inkscape:label="吹き出し"
     sodipodi:insensitive="true">
    <g
       transform="translate(1.8845811,4.2169416)"
       style="display:inline"
       id="g5164">
      <path
         sodipodi:nodetypes="sssscsssssss"
         inkscape:connector-curvature="0"
         id="rect7294"
         d="m 332.45614,11.954212 -51.92826,0 c -12.90509,0 -23.29439,10.389296 -23.29439,23.294386 l 0,60.227818 c 0,9.098724 -19.923,6.457434 -19.923,6.457434 0,0 19.923,8.29199 19.923,18.91948 l 0,150.57767 c 0,12.90509 10.3893,23.29439 23.29439,23.29439 l 51.92826,0 c 12.90509,0 23.29438,-10.3893 23.29438,-23.29439 l 0,-236.182402 c 0,-12.90509 -10.38929,-23.294386 -23.29438,-23.294386 z"
         style="fill:#fefefe;fill-opacity:1;stroke:#000000;stroke-width:3;stroke-linecap:round;stroke-miterlimit:4;stroke-opacity:1;stroke-dashoffset:0" />
      <text
         sodipodi:linespacing="125%"
         id="text7804"
         y="23.502996"
         x="327.64178"
         style="font-size:64px;font-style:normal;font-weight:normal;line-height:125%;letter-spacing:0px;word-spacing:0px;writing-mode:tb-rl;fill:#000000;fill-opacity:1;stroke:none;font-family:Sans"
         xml:space="preserve"><tspan
           id="tspan5078"
           style="font-size:32px"
           y="327.64178"
           x="23.502996"
           sodipodi:role="line">おお</tspan><tspan
           id="tspan5151"
           style="font-size:32px"
           y="287.64178"
           x="23.502996"
           sodipodi:role="line">なんと素晴らしい</tspan></text>
      <text
         sodipodi:linespacing="125%"
         id="text5153"
         y="-348.33521"
         x="103.0531"
         style="font-size:64px;font-style:normal;font-weight:normal;line-height:125%;letter-spacing:0px;word-spacing:0px;writing-mode:tb-rl;fill:#000000;fill-opacity:1;stroke:none;font-family:Sans"
         xml:space="preserve"
         transform="matrix(0,1,-1,0,0,0)"><tspan
           style="font-size:32px"
           y="103.0531"
           x="-348.33521"
           id="tspan5155"
           sodipodi:role="line">…</tspan></text>
    </g>
  </g>
  <g
     inkscape:groupmode="layer"
     id="layer2"
     inkscape:label="レイヤー"
     sodipodi:insensitive="true">
    <path
       style="fill:#ffffff;stroke:none;display:inline"
       d="m 0,0 0,320 370,0 0,-320 -10,10 0,300 -350,0 0,-300 350,0 10,-10 z"
       id="path21072"
       inkscape:connector-curvature="0"
       sodipodi:nodetypes="ccccccccccc" />
  </g>
</svg>
