<?xml version="1.0" encoding="UTF-8" standalone="no"?>
<!-- Created with Inkscape (http://www.inkscape.org/) -->

<svg
   xmlns:dc="http://purl.org/dc/elements/1.1/"
   xmlns:cc="http://creativecommons.org/ns#"
   xmlns:rdf="http://www.w3.org/1999/02/22-rdf-syntax-ns#"
   xmlns:svg="http://www.w3.org/2000/svg"
   xmlns="http://www.w3.org/2000/svg"
   xmlns:sodipodi="http://sodipodi.sourceforge.net/DTD/sodipodi-0.dtd"
   xmlns:inkscape="http://www.inkscape.org/namespaces/inkscape"
   width="370"
   height="320"
   id="svg3172"
   version="1.1"
   inkscape:version="0.48.4 r9939"
   sodipodi:docname="[12.感嘆].svg"
   inkscape:export-filename="C:\Users\執安\Desktop\資料\臨時\svg\[12.感嘆].png"
   inkscape:export-xdpi="90"
   inkscape:export-ydpi="90">
  <defs
     id="defs3174" />
  <sodipodi:namedview
     id="base"
     pagecolor="#ffffff"
     bordercolor="#666666"
     borderopacity="1.0"
     inkscape:pageopacity="0.0"
     inkscape:pageshadow="2"
     inkscape:zoom="1.4142136"
     inkscape:cx="243.19836"
     inkscape:cy="138.79892"
     inkscape:document-units="px"
     inkscape:current-layer="layer3"
     showgrid="false"
     inkscape:window-width="1242"
     inkscape:window-height="698"
     inkscape:window-x="-8"
     inkscape:window-y="-1"
     inkscape:window-maximized="0" />
  <metadata
     id="metadata3177">
    <rdf:RDF>
      <cc:Work
         rdf:about="">
        <dc:format>image/svg+xml</dc:format>
        <dc:type
           rdf:resource="http://purl.org/dc/dcmitype/StillImage" />
        <dc:title></dc:title>
      </cc:Work>
    </rdf:RDF>
  </metadata>
  <g
     inkscape:label="補助線"
     inkscape:groupmode="layer"
     id="layer1"
     transform="translate(0,-732.36218)"
     style="display:none"
     sodipodi:insensitive="true">
    <path
       style="fill:none;stroke:#0000ff;stroke-width:1px;stroke-linecap:butt;stroke-linejoin:miter;stroke-opacity:1;display:inline"
       d="M 10,1042.3622 360,742.36211"
       id="path3025"
       inkscape:connector-curvature="0"
       sodipodi:nodetypes="cc" />
    <path
       style="fill:none;stroke:#0000ff;stroke-width:1px;stroke-linecap:butt;stroke-linejoin:miter;stroke-opacity:1;display:inline"
       d="M 10,742.36211 360,1042.3622"
       id="path3027"
       inkscape:connector-curvature="0"
       sodipodi:nodetypes="cc" />
    <path
       style="fill:none;stroke:#ff0000;stroke-width:1px;stroke-linecap:butt;stroke-linejoin:miter;stroke-opacity:1;display:inline"
       d="m 10,732.36211 0,320.00009"
       id="path3006"
       inkscape:connector-curvature="0"
       sodipodi:nodetypes="cc" />
    <path
       style="fill:none;stroke:#ff0000;stroke-width:1px;stroke-linecap:butt;stroke-linejoin:miter;stroke-opacity:1;display:inline"
       d="m 360,732.36211 0,320.00009"
       id="path3010"
       inkscape:connector-curvature="0"
       sodipodi:nodetypes="cc" />
    <path
       style="fill:none;stroke:#ff0000;stroke-width:1px;stroke-linecap:butt;stroke-linejoin:miter;stroke-opacity:1;display:inline"
       d="m 0,742.36208 370,3e-5"
       id="path3016"
       inkscape:connector-curvature="0" />
    <path
       style="fill:none;stroke:#ff0000;stroke-width:1px;stroke-linecap:butt;stroke-linejoin:miter;stroke-opacity:1;display:inline"
       d="m 0,1042.3622 370,0"
       id="path3018"
       inkscape:connector-curvature="0"
       sodipodi:nodetypes="cc" />
  </g>
  <g
     inkscape:groupmode="layer"
     id="layer16"
     inkscape:label="銅鑼"
     style="display:inline"
     sodipodi:insensitive="true">
    <g
       id="g6890"
       transform="translate(-2,0)">
      <path
         inkscape:connector-curvature="0"
         id="path4888"
         d="m 415.09642,183.20458 -367.065546,0"
         style="fill:none;stroke:#ffffff;stroke-width:1px;stroke-linecap:butt;stroke-linejoin:miter;stroke-opacity:1;display:inline" />
      <path
         inkscape:connector-curvature="0"
         id="path4886"
         d="m 261.84106,39.790519 0,260.451961"
         style="fill:none;stroke:#ffffff;stroke-width:1px;stroke-linecap:butt;stroke-linejoin:miter;stroke-opacity:1;display:inline" />
      <path
         sodipodi:nodetypes="sssscs"
         inkscape:connector-curvature="0"
         id="path4842"
         d="m 211.84513,76.947759 c -0.60136,-2.020559 1.79185,-4 3.9,-4 l 92.1,0 c 1.67381,0 5.10463,3.204666 4,4 l -50,168.000001 z"
         style="fill:none;stroke:#000000;stroke-width:3;stroke-linecap:butt;stroke-linejoin:miter;stroke-opacity:1;display:inline" />
      <path
         sodipodi:type="arc"
         style="fill:#403030;fill-opacity:1;stroke:none;display:inline"
         id="path5946"
         sodipodi:cx="1469.6624"
         sodipodi:cy="309.75089"
         sodipodi:rx="78.862679"
         sodipodi:ry="78.862679"
         d="m 1548.525,309.75089 a 78.862679,78.862679 0 1 1 -157.7253,0 78.862679,78.862679 0 1 1 157.7253,0 z"
         transform="matrix(1.1070412,0,0,1.1070412,-1365.1128,-159.69831)" />
      <path
         sodipodi:end="5.3364487"
         sodipodi:start="3.5950507"
         sodipodi:type="arc"
         style="fill:#6c5353;stroke:none;display:inline"
         id="path5946-11"
         sodipodi:cx="1469.6624"
         sodipodi:cy="309.75089"
         sodipodi:rx="78.862679"
         sodipodi:ry="78.862679"
         d="m 1398.7697,275.20298 a 78.862679,78.862679 0 0 1 116.9748,-29.45018 l -46.0821,63.99809 z"
         transform="matrix(1.1070412,0,0,1.1070412,-1365.1316,-159.72874)" />
      <path
         sodipodi:type="arc"
         style="fill:#241c1c;stroke:none;display:inline"
         id="path5946-17"
         sodipodi:cx="1469.6624"
         sodipodi:cy="309.75089"
         sodipodi:rx="78.862679"
         sodipodi:ry="78.862679"
         d="m 1548.525,309.75089 a 78.862679,78.862679 0 1 1 -157.7253,0 78.862679,78.862679 0 1 1 157.7253,0 z"
         transform="matrix(1.0401736,0,0,1.0401736,-1266.8623,-138.98019)" />
      <path
         sodipodi:type="arc"
         style="fill:#ffdd55;stroke:none;display:inline"
         id="path5946-1"
         sodipodi:cx="1469.6624"
         sodipodi:cy="309.75089"
         sodipodi:rx="78.862679"
         sodipodi:ry="78.862679"
         d="m 1548.525,309.75089 a 78.862679,78.862679 0 1 1 -157.7253,0 78.862679,78.862679 0 1 1 157.7253,0 z"
         transform="matrix(0.82056286,0,0,0.82056286,-944.0994,-70.952311)" />
      <path
         sodipodi:type="arc"
         style="fill:none;stroke:#c87137;stroke-width:5.84432459;stroke-linecap:round;stroke-miterlimit:4;stroke-opacity:1;stroke-dasharray:none;stroke-dashoffset:0;display:inline"
         id="path5946-1-0"
         sodipodi:cx="1469.6624"
         sodipodi:cy="309.75089"
         sodipodi:rx="78.862679"
         sodipodi:ry="78.862679"
         d="m 1548.525,309.75089 a 78.862679,78.862679 0 1 1 -157.7253,0 78.862679,78.862679 0 1 1 157.7253,0 z"
         transform="matrix(0.51331851,0,0,0.51331851,-492.54888,24.212766)" />
      <path
         sodipodi:end="5.1686387"
         sodipodi:start="2.4109912"
         sodipodi:type="arc"
         style="opacity:0.5;fill:#c87137;stroke:none;display:inline"
         id="path5946-1-4"
         sodipodi:cx="1469.6624"
         sodipodi:cy="309.75089"
         sodipodi:rx="78.862679"
         sodipodi:ry="78.862679"
         d="m 1410.9275,362.37735 a 78.862679,78.862679 0 0 1 93.4805,-123.42237 l -34.7456,70.79591 z"
         transform="matrix(0.82056286,0,0,0.82056286,-944.10078,-70.966901)" />
      <path
         sodipodi:end="8.3424874"
         sodipodi:start="5.7186634"
         sodipodi:type="arc"
         style="opacity:0.5;fill:#c87137;stroke:none;display:inline"
         id="path5946-1-8"
         sodipodi:cx="1469.6624"
         sodipodi:cy="309.75089"
         sodipodi:rx="78.862679"
         sodipodi:ry="78.862679"
         d="M 1536.2891,267.55841 A 78.862679,78.862679 0 0 1 1432.6516,379.3894 l 37.0108,-69.63851 z"
         transform="matrix(0.82056286,0,0,0.82056286,-944.11827,-70.944471)" />
      <path
         sodipodi:end="4.1352276"
         sodipodi:start="3.201639"
         sodipodi:type="arc"
         style="opacity:0.5;fill:#a02c2c;stroke:none;display:inline"
         id="path5946-1-45"
         sodipodi:cx="1469.6624"
         sodipodi:cy="309.75089"
         sodipodi:rx="78.862679"
         sodipodi:ry="78.862679"
         d="m 1390.9418,305.01831 a 78.862679,78.862679 0 0 1 35.6893,-61.35553 l 43.0313,66.08811 z"
         transform="matrix(0.82056286,0,0,0.82056286,-944.11067,-70.971191)" />
      <path
         sodipodi:end="1.3435565"
         sodipodi:start="0.25594327"
         sodipodi:type="arc"
         style="opacity:0.5;fill:#a02c2c;stroke:none;display:inline"
         id="path5946-1-5"
         sodipodi:cx="1469.6624"
         sodipodi:cy="309.75089"
         sodipodi:rx="78.862679"
         sodipodi:ry="78.862679"
         d="m 1545.9561,329.71561 a 78.862679,78.862679 0 0 1 -58.5268,56.87055 l -17.7669,-76.83527 z"
         transform="matrix(0.82056286,0,0,0.82056286,-944.11456,-70.975091)" />
      <path
         sodipodi:type="arc"
         style="fill:#241c1c;stroke:none;display:inline"
         id="path5946-1-7"
         sodipodi:cx="1469.6624"
         sodipodi:cy="309.75089"
         sodipodi:rx="78.862679"
         sodipodi:ry="78.862679"
         d="m 1548.525,309.75089 a 78.862679,78.862679 0 1 1 -157.7253,0 78.862679,78.862679 0 1 1 157.7253,0 z"
         transform="matrix(0.269616,0,0,0.269616,-134.39323,99.691)" />
      <path
         sodipodi:nodetypes="cc"
         inkscape:connector-curvature="0"
         id="path4864"
         d="m 213.84513,60.94776 0,11.999999"
         style="fill:none;stroke:#000000;stroke-width:3;stroke-linecap:butt;stroke-linejoin:miter;stroke-opacity:1;display:inline" />
      <path
         sodipodi:nodetypes="cc"
         inkscape:connector-curvature="0"
         id="path4864-9"
         d="m 307.84513,60.94776 0,11.127019"
         style="fill:none;stroke:#000000;stroke-width:3;stroke-linecap:butt;stroke-linejoin:miter;stroke-opacity:1;display:inline" />
      <path
         sodipodi:nodetypes="ccssssccssssc"
         inkscape:connector-curvature="0"
         id="path4919"
         d="m 137.84513,314.94776 8,0 0,-240.000001 c 0,-3.771236 4.22876,-8 8,-8 l 218,0 c 3.77124,0 8,4.228764 8,8 l 0,240.000001 8,0 0,-244.000001 c 0,-5.656853 -6.34315,-11.999999 -12,-11.999999 l -226,0 c -5.65685,0 -12,6.343145 -12,11.999999 z"
         style="fill:#c8b7b7;stroke:#000000;stroke-width:3;stroke-linecap:butt;stroke-linejoin:miter;stroke-opacity:1;display:inline" />
      <path
         sodipodi:type="arc"
         style="fill:none;stroke:none;display:inline"
         id="path5946-1-2"
         sodipodi:cx="1469.6624"
         sodipodi:cy="309.75089"
         sodipodi:rx="78.862679"
         sodipodi:ry="78.862679"
         d="m 1548.525,309.75089 a 78.862679,78.862679 0 1 1 -157.7253,0 78.862679,78.862679 0 1 1 157.7253,0 z"
         transform="matrix(0.82056286,0,0,0.82056286,-944.11257,-70.986811)" />
      <path
         sodipodi:type="arc"
         style="fill:none;stroke:#000000;stroke-width:2.70992613;display:inline"
         id="path5946-5"
         sodipodi:cx="1469.6624"
         sodipodi:cy="309.75089"
         sodipodi:rx="78.862679"
         sodipodi:ry="78.862679"
         d="m 1548.525,309.75089 a 78.862679,78.862679 0 1 1 -157.7253,0 78.862679,78.862679 0 1 1 157.7253,0 z"
         transform="matrix(1.1070412,0,0,1.1070412,-1365.135,-159.70803)" />
    </g>
  </g>
  <g
     inkscape:groupmode="layer"
     id="layer3"
     inkscape:label="豚"
     sodipodi:insensitive="true">
    <g
       id="g6835"
       transform="translate(-2,0)">
      <path
         style="fill:#fffff8;fill-opacity:1;stroke:#000000;stroke-width:3;stroke-linecap:butt;stroke-linejoin:miter;stroke-opacity:1;display:inline"
         d="m 161.424,174.63256 c 3.54609,-48.07949 -33.57233,-75.25808 -67.043188,-75.24982 -42.503689,0.0101 -74.867661,27.26219 -76.040017,76.999 -9.2053894,26.90717 -5.615317,70.89389 30.180682,95.07766 48.409565,32.70555 110.052853,5.79605 136.340413,-28.32985 -6.66382,1.02802 -14.51856,1.15571 -12.99738,-3.44034 3.01391,-9.10595 3.5534,-23.60417 -0.94198,-30.18801 18.54138,-18.26866 9.04588,-28.677 -9.54004,-39.18704"
         id="path5934"
         inkscape:connector-curvature="0"
         sodipodi:nodetypes="cscscscc" />
      <path
         style="fill:#aa0000;stroke:#000000;stroke-width:3;stroke-linecap:butt;stroke-linejoin:miter;stroke-opacity:1;display:inline"
         d="m 144.67141,155.10633 c -6.4547,6.91496 -7.36035,1.33693 -14.08851,2.43439 -16.19352,2.64134 -12.47723,16.46366 -29.51644,11.37209 12.38792,6.74614 15.41363,13.40948 29.77482,7.77047 9.56716,-3.75659 8.86376,-14.56483 13.83013,-21.57695 z"
         id="path5936"
         inkscape:connector-curvature="0"
         sodipodi:nodetypes="cscsc" />
      <path
         style="fill:none;stroke:#000000;stroke-width:3;stroke-linecap:butt;stroke-linejoin:miter;stroke-opacity:1;display:inline"
         d="m 108.47102,140.71952 c -0.94243,10.05519 6.97508,8.4071 3.34946,18.56422"
         id="path5938"
         inkscape:connector-curvature="0"
         sodipodi:nodetypes="cc" />
      <path
         style="fill:none;stroke:#000000;stroke-width:3;stroke-linecap:butt;stroke-linejoin:miter;stroke-opacity:1;display:inline"
         d="m 131.54636,134.30576 c -3.28658,8.43201 5.79013,8.1045 1.95055,16.34949"
         id="path5940"
         inkscape:connector-curvature="0"
         sodipodi:nodetypes="cc" />
      <path
         style="fill:none;stroke:#000000;stroke-width:3;stroke-linecap:butt;stroke-linejoin:miter;stroke-opacity:1;display:inline"
         d="m 119.88343,137.21067 c -2.27845,9.79576 8.43642,9.41854 3.2633,17.31333"
         id="path5944"
         inkscape:connector-curvature="0"
         sodipodi:nodetypes="cc" />
    </g>
    <g
       style="display:inline"
       id="g5974"
       transform="matrix(0.98550901,-0.16962306,0.16962306,0.98550901,-39.7623,36.012736)">
      <rect
         ry="0"
         y="194"
         x="145.5"
         height="7.5"
         width="103"
         id="rect5197"
         style="fill:#ffccaa;stroke:#000000;stroke-width:3;stroke-linecap:round;stroke-miterlimit:4;stroke-opacity:1;stroke-dasharray:none;stroke-dashoffset:0" />
      <rect
         ry="10.25"
         y="183.25"
         x="243"
         height="29.054205"
         width="28.781794"
         id="rect5199"
         style="fill:#e3dbdb;fill-opacity:1;stroke:#000000;stroke-width:3;stroke-linecap:round;stroke-miterlimit:4;stroke-opacity:1;stroke-dasharray:none;stroke-dashoffset:0" />
    </g>
    <path
       sodipodi:nodetypes="cc"
       inkscape:connector-curvature="0"
       id="path5942"
       d="m 117.7111,192.96032 c 42.30515,-0.43517 39.10654,17.0207 21.47778,36.99492"
       style="fill:#fffff8;fill-opacity:1;stroke:#000000;stroke-width:3;stroke-linecap:butt;stroke-linejoin:miter;stroke-opacity:1;display:inline" />
    <path
       style="fill:none;stroke:#000000;stroke-width:3;stroke-linecap:butt;stroke-linejoin:miter;stroke-opacity:1;display:inline"
       d="m 13.888023,138.79395 c 5.661743,0.18257 -1.017903,-9.42623 6.325199,-10.41893 7.483645,-1.01169 -1.273545,-12.10939 6.824816,-12.14827 8.080346,-0.0388 -0.405559,-10.18294 7.366412,-9.02309 6.295811,0.93955 3.667014,-7.8115 11.127581,-5.51683 6.791981,2.08904 3.27648,-8.807914 8.428231,-6.158581 5.90283,3.035579 11.90353,1.379471 12.17345,-3.891148"
       id="path5984"
       inkscape:connector-curvature="0"
       sodipodi:nodetypes="csssssc" />
    <path
       style="fill:none;stroke:#000000;stroke-width:3;stroke-linecap:round;stroke-miterlimit:4;stroke-opacity:1;stroke-dashoffset:0;display:inline"
       d="m 191.94227,110.80327 c 7.2128,1.16899 4.41419,-9.66711 10.61706,-8.55287 5.24688,0.94251 3.47138,-6.225391 8.39606,-5.2647 5.29498,1.032927 4.70224,-7.144693 10.70862,-5.181381 6.34731,2.07475 5.35499,-7.428919 14.68551,-4.776265 m 79.24593,13.915646 c -0.42073,4.42265 9.73097,2.16345 9.96092,7.53669 0.22372,5.22797 7.62703,1.94806 7.78003,7.44282 0.17416,6.25448 8.40531,3.09411 7.99569,9.66399 -0.35559,5.70336 7.41382,2.12944 5.86505,9.06616 -1.30039,5.82427 7.78202,4.55984 5.47813,11.11812 -2.51045,7.14627 6.15525,4.56855 4.95457,15.11511 m -12.85804,77.61827 c -6.45946,1.00964 -1.39518,10.55206 -7.27975,10.02651 -6.99424,-0.62464 -2.12391,8.76002 -7.13404,7.78327 -5.46138,-1.06473 -2.19336,8.28188 -7.68694,6.81139 -5.38388,-1.44113 -3.27379,6.55691 -7.30562,5.30966 -6.11636,-1.8921 -6.40307,7.79651 -11.23171,6.40478 -5.36684,-1.54684 -5.40643,6.06708 -10.94745,4.55217 -3.1261,-0.85467 -3.72592,4.82159 -9.41499,2.77426"
       id="path6037"
       inkscape:connector-curvature="0"
       sodipodi:nodetypes="csssccsssssccssssssc" />
  </g>
  <g
     inkscape:groupmode="layer"
     id="layer14"
     inkscape:label="吹き出し"
     style="display:inline"
     sodipodi:insensitive="true">
    <g
       id="g6842"
       transform="translate(-2,0)">
      <path
         sodipodi:nodetypes="sscssss"
         inkscape:connector-curvature="0"
         id="path6062"
         d="m 207.84513,55.69776 c 0,15.975949 -20.03511,29.750621 -48.93064,36.067286 -5.22038,1.141194 -21.22996,14.538964 -26.96285,15.162304 -3.13969,-3.83242 -2.03551,-11.47959 -8.60651,-11.47959 -46.668058,0 -84.5,-17.796682 -84.5,-39.75 0,-21.953319 37.831942,-39.75 84.5,-39.75 46.66806,0 84.5,17.796681 84.5,39.75 z"
         style="fill:#fefefe;fill-opacity:1;stroke:#000000;stroke-width:3;stroke-linecap:round;stroke-miterlimit:4;stroke-opacity:1;stroke-dashoffset:0;display:inline" />
      <text
         sodipodi:linespacing="125%"
         id="text6065"
         y="72.240646"
         x="67.501976"
         style="font-size:64px;font-style:normal;font-weight:normal;line-height:125%;letter-spacing:0px;word-spacing:0px;writing-mode:lr-tb;fill:#000000;fill-opacity:1;stroke:none;display:inline;font-family:Sans"
         xml:space="preserve"><tspan
           style="font-size:48px"
           y="72.240646"
           x="67.501976"
           id="tspan6067"
           sodipodi:role="line">開始!</tspan></text>
    </g>
  </g>
  <g
     inkscape:groupmode="layer"
     id="layer2"
     inkscape:label="レイヤー"
     sodipodi:insensitive="true">
    <path
       style="fill:#ffffff;stroke:none;display:inline"
       d="m 0,0 0,320 370,0 0,-320 -10,10 0,300 -350,0 0,-300 350,0 10,-10 z"
       id="path21072"
       inkscape:connector-curvature="0"
       sodipodi:nodetypes="ccccccccccc" />
  </g>
</svg>
