<?xml version="1.0" encoding="UTF-8" standalone="no"?>
<!-- Created with Inkscape (http://www.inkscape.org/) -->

<svg
   xmlns:dc="http://purl.org/dc/elements/1.1/"
   xmlns:cc="http://creativecommons.org/ns#"
   xmlns:rdf="http://www.w3.org/1999/02/22-rdf-syntax-ns#"
   xmlns:svg="http://www.w3.org/2000/svg"
   xmlns="http://www.w3.org/2000/svg"
   xmlns:sodipodi="http://sodipodi.sourceforge.net/DTD/sodipodi-0.dtd"
   xmlns:inkscape="http://www.inkscape.org/namespaces/inkscape"
   width="370"
   height="320"
   id="svg3172"
   version="1.1"
   inkscape:version="0.48.4 r9939"
   sodipodi:docname="[16.提案].svg"
   inkscape:export-filename="C:\Users\執安\Desktop\資料\臨時\svg\[16.提案].png"
   inkscape:export-xdpi="90"
   inkscape:export-ydpi="90">
  <defs
     id="defs3174" />
  <sodipodi:namedview
     id="base"
     pagecolor="#ffffff"
     bordercolor="#666666"
     borderopacity="1.0"
     inkscape:pageopacity="0.0"
     inkscape:pageshadow="2"
     inkscape:zoom="1.4142136"
     inkscape:cx="244.3393"
     inkscape:cy="143.7846"
     inkscape:document-units="px"
     inkscape:current-layer="layer20"
     showgrid="false"
     inkscape:window-width="1242"
     inkscape:window-height="698"
     inkscape:window-x="-8"
     inkscape:window-y="-1"
     inkscape:window-maximized="0" />
  <metadata
     id="metadata3177">
    <rdf:RDF>
      <cc:Work
         rdf:about="">
        <dc:format>image/svg+xml</dc:format>
        <dc:type
           rdf:resource="http://purl.org/dc/dcmitype/StillImage" />
        <dc:title></dc:title>
      </cc:Work>
    </rdf:RDF>
  </metadata>
  <g
     inkscape:label="補助線"
     inkscape:groupmode="layer"
     id="layer1"
     transform="translate(0,-732.36218)"
     style="display:none"
     sodipodi:insensitive="true">
    <path
       style="fill:none;stroke:#0000ff;stroke-width:1px;stroke-linecap:butt;stroke-linejoin:miter;stroke-opacity:1;display:inline"
       d="M 10,1042.3622 360,742.36211"
       id="path3025"
       inkscape:connector-curvature="0"
       sodipodi:nodetypes="cc" />
    <path
       style="fill:none;stroke:#0000ff;stroke-width:1px;stroke-linecap:butt;stroke-linejoin:miter;stroke-opacity:1;display:inline"
       d="M 10,742.36211 360,1042.3622"
       id="path3027"
       inkscape:connector-curvature="0"
       sodipodi:nodetypes="cc" />
    <path
       style="fill:none;stroke:#ff0000;stroke-width:1px;stroke-linecap:butt;stroke-linejoin:miter;stroke-opacity:1;display:inline"
       d="m 10,732.36211 0,320.00009"
       id="path3006"
       inkscape:connector-curvature="0"
       sodipodi:nodetypes="cc" />
    <path
       style="fill:none;stroke:#ff0000;stroke-width:1px;stroke-linecap:butt;stroke-linejoin:miter;stroke-opacity:1;display:inline"
       d="m 360,732.36211 0,320.00009"
       id="path3010"
       inkscape:connector-curvature="0"
       sodipodi:nodetypes="cc" />
    <path
       style="fill:none;stroke:#ff0000;stroke-width:1px;stroke-linecap:butt;stroke-linejoin:miter;stroke-opacity:1;display:inline"
       d="m 0,742.36208 370,3e-5"
       id="path3016"
       inkscape:connector-curvature="0" />
    <path
       style="fill:none;stroke:#ff0000;stroke-width:1px;stroke-linecap:butt;stroke-linejoin:miter;stroke-opacity:1;display:inline"
       d="m 0,1042.3622 370,0"
       id="path3018"
       inkscape:connector-curvature="0"
       sodipodi:nodetypes="cc" />
  </g>
  <g
     inkscape:groupmode="layer"
     id="layer3"
     inkscape:label="豚"
     sodipodi:insensitive="true">
    <g
       id="g8477">
      <path
         sodipodi:nodetypes="sscssss"
         inkscape:connector-curvature="0"
         id="path6062"
         d="m 205.04759,53.874559 c 0,16.730001 -22.88097,31.154825 -55.88091,37.769627 -5.96189,1.19506 -6.41482,14.884274 2.17602,23.645444 -20.85429,-3.67241 -35.29338,-19.788908 -42.79774,-19.788908 -53.296935,0 -96.502658,-18.636666 -96.502658,-41.626163 0,-22.989499 43.205723,-41.62617 96.502658,-41.62617 53.29691,0 96.50263,18.636671 96.50263,41.62617 z"
         style="fill:#fefefe;fill-opacity:1;stroke:#000000;stroke-width:3;stroke-linecap:round;stroke-miterlimit:4;stroke-opacity:1;stroke-dashoffset:0;display:inline" />
      <text
         sodipodi:linespacing="125%"
         id="text6672"
         y="71.414185"
         x="46.096523"
         style="font-size:52.51371765px;font-style:normal;font-weight:normal;line-height:125%;letter-spacing:0px;word-spacing:0px;writing-mode:lr-tb;fill:#000000;fill-opacity:1;stroke:none;display:inline;font-family:Sans"
         xml:space="preserve"><tspan
           y="71.414185"
           x="46.096523"
           id="tspan6674"
           sodipodi:role="line">ほう!</tspan></text>
    </g>
    <g
       id="g8470">
      <path
         style="fill:#fffff8;fill-opacity:1;stroke:#000000;stroke-width:3;stroke-linecap:butt;stroke-linejoin:miter;stroke-opacity:1;display:inline"
         d="m 331.39295,202.70895 c 31.92814,-14.2937 -3.33978,-39.55721 -10.62859,-56.19737 -3.63106,-59.601214 -56.23075,-80.2771 -86.07239,-75.981686 -43.80969,6.306 -79.15084,38.610716 -78.44206,95.058886 -6.98579,20.39618 4.34852,62.81128 -15.53959,65.53012 26.85864,3.13425 33.52008,56.72388 117.84349,48.2682 54.87005,-5.50224 81.6126,-50.34506 69.70023,-95.06377"
         id="path6516"
         inkscape:connector-curvature="0"
         sodipodi:nodetypes="ccsccsc" />
      <path
         style="fill:#aa0000;stroke:#000000;stroke-width:3;stroke-linecap:butt;stroke-linejoin:miter;stroke-opacity:1;display:inline"
         d="m 241.30362,153.26662 c 17.62241,3.13169 15.16666,-15.10476 33.03002,-17.27572 11.59427,-1.40904 14.13985,7.91776 18.77868,4.03636 -1.27993,8.82935 -2.27757,20.41945 -16.63983,24.14205 -13.01006,3.37207 -24.12633,-6.72389 -35.16887,-10.90269 z"
         id="path6518"
         inkscape:connector-curvature="0"
         sodipodi:nodetypes="cscsc" />
      <path
         style="fill:none;stroke:#000000;stroke-width:3;stroke-linecap:butt;stroke-linejoin:miter;stroke-opacity:1;display:inline"
         d="m 279.437,114.43394 -1.52289,15.56047"
         id="path6520"
         inkscape:connector-curvature="0"
         sodipodi:nodetypes="cc" />
      <path
         style="fill:#aa0000;stroke:#000000;stroke-width:3;stroke-linecap:butt;stroke-linejoin:miter;stroke-opacity:1;display:inline"
         d="m 247.11368,120.91761 13.98717,11.90789"
         id="path6522"
         inkscape:connector-curvature="0"
         sodipodi:nodetypes="cc" />
      <path
         style="fill:none;stroke:#000000;stroke-width:3;stroke-linecap:butt;stroke-linejoin:miter;stroke-opacity:1;display:inline"
         d="m 186.07196,181.17431 c -1.58744,20.51916 -32.17623,33.61096 15.22278,40.94359"
         id="path6524"
         inkscape:connector-curvature="0"
         sodipodi:nodetypes="cc" />
    </g>
    <path
       sodipodi:type="arc"
       style="fill:#000000;fill-opacity:1;stroke:none;display:inline"
       id="path7058"
       sodipodi:cx="248"
       sodipodi:cy="299"
       sodipodi:rx="72"
       sodipodi:ry="9"
       d="m 320,299 a 72,9 0 1 1 -144,0 72,9 0 1 1 144,0 z"
       transform="matrix(1.0972222,0,0,1.35584,-26.965489,-109.11814)" />
  </g>
  <g
     inkscape:groupmode="layer"
     id="layer20"
     inkscape:label="吹き出し"
     sodipodi:insensitive="true" />
  <g
     inkscape:groupmode="layer"
     id="layer2"
     inkscape:label="レイヤー"
     sodipodi:insensitive="true">
    <path
       style="fill:#ffffff;stroke:none;display:inline"
       d="m 0,0 0,320 370,0 0,-320 -10,10 0,300 -350,0 0,-300 350,0 10,-10 z"
       id="path21072"
       inkscape:connector-curvature="0"
       sodipodi:nodetypes="ccccccccccc" />
  </g>
</svg>
