<?xml version="1.0" encoding="UTF-8" standalone="no"?>
<!-- Created with Inkscape (http://www.inkscape.org/) -->

<svg
   xmlns:dc="http://purl.org/dc/elements/1.1/"
   xmlns:cc="http://creativecommons.org/ns#"
   xmlns:rdf="http://www.w3.org/1999/02/22-rdf-syntax-ns#"
   xmlns:svg="http://www.w3.org/2000/svg"
   xmlns="http://www.w3.org/2000/svg"
   xmlns:sodipodi="http://sodipodi.sourceforge.net/DTD/sodipodi-0.dtd"
   xmlns:inkscape="http://www.inkscape.org/namespaces/inkscape"
   width="370"
   height="320"
   id="svg3172"
   version="1.1"
   inkscape:version="0.48.4 r9939"
   sodipodi:docname="[00.規格].svg">
  <defs
     id="defs3174" />
  <sodipodi:namedview
     id="base"
     pagecolor="#ffffff"
     bordercolor="#666666"
     borderopacity="1.0"
     inkscape:pageopacity="0.0"
     inkscape:pageshadow="2"
     inkscape:zoom="1.3615639"
     inkscape:cx="158.74482"
     inkscape:cy="150.10164"
     inkscape:document-units="px"
     inkscape:current-layer="layer1"
     showgrid="false"
     inkscape:window-width="1260"
     inkscape:window-height="698"
     inkscape:window-x="-2"
     inkscape:window-y="-5"
     inkscape:window-maximized="0" />
  <metadata
     id="metadata3177">
    <rdf:RDF>
      <cc:Work
         rdf:about="">
        <dc:format>image/svg+xml</dc:format>
        <dc:type
           rdf:resource="http://purl.org/dc/dcmitype/StillImage" />
        <dc:title></dc:title>
      </cc:Work>
    </rdf:RDF>
  </metadata>
  <g
     inkscape:label="補助線"
     inkscape:groupmode="layer"
     id="layer1"
     transform="translate(0,-732.36218)"
     sodipodi:insensitive="true"
     style="display:none">
    <path
       style="fill:none;stroke:#0000ff;stroke-width:1px;stroke-linecap:butt;stroke-linejoin:miter;stroke-opacity:1;display:inline"
       d="M 10,1042.3622 360,742.36211"
       id="path3025"
       inkscape:connector-curvature="0"
       sodipodi:nodetypes="cc" />
    <path
       style="fill:none;stroke:#0000ff;stroke-width:1px;stroke-linecap:butt;stroke-linejoin:miter;stroke-opacity:1;display:inline"
       d="M 10,742.36211 360,1042.3622"
       id="path3027"
       inkscape:connector-curvature="0"
       sodipodi:nodetypes="cc" />
    <path
       style="fill:none;stroke:#ff0000;stroke-width:1px;stroke-linecap:butt;stroke-linejoin:miter;stroke-opacity:1;display:inline"
       d="m 10,732.36211 0,320.00009"
       id="path3006"
       inkscape:connector-curvature="0"
       sodipodi:nodetypes="cc" />
    <path
       style="fill:none;stroke:#ff0000;stroke-width:1px;stroke-linecap:butt;stroke-linejoin:miter;stroke-opacity:1;display:inline"
       d="m 360,732.36211 0,320.00009"
       id="path3010"
       inkscape:connector-curvature="0"
       sodipodi:nodetypes="cc" />
    <path
       style="fill:none;stroke:#ff0000;stroke-width:1px;stroke-linecap:butt;stroke-linejoin:miter;stroke-opacity:1;display:inline"
       d="m 0,742.36208 370,3e-5"
       id="path3016"
       inkscape:connector-curvature="0" />
    <path
       style="fill:none;stroke:#ff0000;stroke-width:1px;stroke-linecap:butt;stroke-linejoin:miter;stroke-opacity:1;display:inline"
       d="m 0,1042.3622 370,0"
       id="path3018"
       inkscape:connector-curvature="0"
       sodipodi:nodetypes="cc" />
  </g>
  <g
     inkscape:groupmode="layer"
     id="layer3"
     inkscape:label="豚"
     sodipodi:insensitive="true">
    <g
       id="g3389">
      <path
         style="fill:#fffff8;fill-opacity:1;stroke:#000000;stroke-width:3;stroke-linecap:butt;stroke-linejoin:miter;stroke-opacity:1;display:inline"
         d="M 209.48406,25.768203 C 176.47995,20.932964 120.14869,20.878739 92.108488,88.799191 12.35172,161.58026 83.687046,225.23674 32.667944,245.78695 97.845145,279.2277 151.01139,310.3484 221.27271,290.74255 292.45337,270.88017 302.55785,199.46588 297.85025,144.33196 298.62456,82.075137 258.97452,33.018743 209.48406,25.768203 z"
         id="path6552"
         inkscape:connector-curvature="0"
         sodipodi:nodetypes="sccscs" />
      <path
         style="fill:#aa0000;stroke:#000000;stroke-width:3;stroke-linecap:butt;stroke-linejoin:miter;stroke-opacity:1;display:inline"
         d="m 120.01657,82.744513 c 1.5209,3.730343 2.08813,7.287987 5.36184,7.021792 5.55054,-0.45134 11.02125,-9.616811 28.30399,-5.386544 22.31116,5.461 23.32944,22.316959 31.43454,25.211589 2.89402,1.03356 4.81227,-1.16517 11.97576,-2.61571 -19.01676,6.09791 -27.6098,33.28782 -57.13802,22.67837 -27.83713,-10.00186 -16.78387,-35.900948 -19.93811,-46.909497 z"
         id="path6554"
         inkscape:connector-curvature="0"
         sodipodi:nodetypes="cssscsc" />
      <path
         style="fill:none;stroke:#000000;stroke-width:3;stroke-linecap:butt;stroke-linejoin:miter;stroke-opacity:1;display:inline"
         d="m 144.66501,62.801357 c 0.0229,3.247909 -0.089,8.861033 -0.38716,12.341997"
         id="path6556"
         inkscape:connector-curvature="0"
         sodipodi:nodetypes="cc" />
      <path
         style="fill:none;stroke:#000000;stroke-width:3;stroke-linecap:butt;stroke-linejoin:miter;stroke-opacity:1;display:inline"
         d="m 168.31094,83.001763 c 6.46444,-4.105406 12.08879,-6.572662 18.78499,-8.276338"
         id="path6558"
         inkscape:connector-curvature="0"
         sodipodi:nodetypes="cc" />
      <path
         style="fill:none;stroke:#000000;stroke-width:3;stroke-linecap:butt;stroke-linejoin:miter;stroke-opacity:1;display:inline"
         d="m 194.55682,148.50931 c -52.38533,4.86029 -60.10141,18.18431 -35.12513,62.34534"
         id="path6560"
         inkscape:connector-curvature="0"
         sodipodi:nodetypes="cc" />
      <path
         style="fill:none;stroke:#000000;stroke-width:3;stroke-linecap:butt;stroke-linejoin:miter;stroke-opacity:1;display:inline"
         d="m 92.661794,118.42973 c 16.239766,16.77042 15.896696,38.60169 -17.543395,49.86805"
         id="path6562"
         inkscape:connector-curvature="0"
         sodipodi:nodetypes="cc" />
    </g>
  </g>
  <g
     inkscape:groupmode="layer"
     id="layer4"
     inkscape:label="擬態"
     style="display:inline"
     sodipodi:insensitive="true">
    <g
       id="g3397">
      <path
         d="m 61.211859,62.035736 a 22.444349,22.444349 0 1 1 -44.888699,0 22.444349,22.444349 0 1 1 44.888699,0 z"
         sodipodi:ry="22.444349"
         sodipodi:rx="22.444349"
         sodipodi:cy="62.035736"
         sodipodi:cx="38.767509"
         id="path20532-8-7"
         style="fill:#ffff00;stroke:none;display:inline"
         sodipodi:type="arc"
         transform="matrix(-1.0377099,0,0,1.0377099,373.96557,137.36409)" />
      <path
         d="m 61.211859,62.035736 a 22.444349,22.444349 0 1 1 -44.888699,0 22.444349,22.444349 0 1 1 44.888699,0 z"
         sodipodi:ry="22.444349"
         sodipodi:rx="22.444349"
         sodipodi:cy="62.035736"
         sodipodi:cx="38.767509"
         id="path20532"
         style="fill:#ffff00;fill-opacity:0.75294118;stroke:#000000;stroke-width:2.89098144;display:inline"
         sodipodi:type="arc"
         transform="matrix(1.0377099,0,0,1.0377099,-1.740094,7.30605)" />
      <path
         sodipodi:nodetypes="ccc"
         inkscape:connector-curvature="0"
         id="path20534"
         d="m 30.128547,68.382849 c 3.298942,-2.441283 7.656555,-1.90554 10.955498,-1.570578 -1.181599,-3.314024 -7.959028,-5.30092 -10.955498,1.570578 z"
         style="fill:#ffffff;stroke:#000000;stroke-width:3;stroke-linecap:butt;stroke-linejoin:miter;stroke-opacity:1;display:inline" />
      <path
         sodipodi:nodetypes="ccc"
         inkscape:connector-curvature="0"
         id="path20534-8"
         d="m 46.623049,66.271207 c 2.391507,-2.894998 3.42188,-4.476593 6.720822,-4.141631 -1.181609,-3.314022 -4.783023,-3.183582 -6.720822,4.141631 z"
         style="fill:#ffffff;stroke:#000000;stroke-width:3;stroke-linecap:butt;stroke-linejoin:miter;stroke-opacity:1;display:inline" />
      <path
         sodipodi:nodetypes="ccc"
         inkscape:connector-curvature="0"
         id="path20534-4"
         d="m 34.664461,74.86585 c 6.928663,10.867698 18.788712,6.519518 19.276768,-6.074182 -3.166053,5.147731 -11.831739,7.332864 -19.276768,6.074182 z"
         style="fill:#ffffff;stroke:#000000;stroke-width:3;stroke-linecap:butt;stroke-linejoin:miter;stroke-opacity:1;display:inline" />
      <path
         d="m 61.211859,62.035736 a 22.444349,22.444349 0 1 1 -44.888699,0 22.444349,22.444349 0 1 1 44.888699,0 z"
         sodipodi:ry="22.444349"
         sodipodi:rx="22.444349"
         sodipodi:cy="62.035736"
         sodipodi:cx="38.767509"
         id="path20532-1"
         style="fill:#ffff00;fill-opacity:0.75294118;stroke:#000000;stroke-width:2.89098144;display:inline"
         sodipodi:type="arc"
         transform="matrix(-1.0377099,0,0,1.0377099,353.15006,-19.651244)" />
      <path
         sodipodi:nodetypes="ccc"
         inkscape:connector-curvature="0"
         id="path20534-43"
         d="m 319.1426,44.633804 c -3.29895,-2.441274 -7.65656,-1.905537 -10.95551,-1.570573 1.18161,-3.314021 7.95904,-5.300924 10.95551,1.570573 z"
         style="fill:#ffffff;stroke:#000000;stroke-width:3;stroke-linecap:butt;stroke-linejoin:miter;stroke-opacity:1;display:inline" />
      <path
         sodipodi:nodetypes="ccc"
         inkscape:connector-curvature="0"
         id="path20534-8-9"
         d="m 302.6481,42.522169 c -2.39152,-2.895003 -3.42189,-4.476598 -6.72083,-4.141635 1.1816,-3.314021 4.78303,-3.18358 6.72083,4.141635 z"
         style="fill:#ffffff;stroke:#000000;stroke-width:3;stroke-linecap:butt;stroke-linejoin:miter;stroke-opacity:1;display:inline" />
      <path
         sodipodi:nodetypes="ccc"
         inkscape:connector-curvature="0"
         id="path20534-4-8"
         d="m 315.14138,51.651522 c -6.92866,10.867697 -18.78869,6.519517 -19.27675,-6.074183 3.16605,5.147725 11.83173,7.332862 19.27675,6.074183 z"
         style="fill:#ffffff;stroke:#000000;stroke-width:3;stroke-linecap:butt;stroke-linejoin:miter;stroke-opacity:1;display:inline" />
      <path
         sodipodi:nodetypes="ccc"
         inkscape:connector-curvature="0"
         id="path20534-8-8"
         d="m 320.95832,196.37356 c -2.3915,-2.895 -4.95575,-3.93114 -6.54363,-4.55865 1.18161,-3.31402 4.60583,-2.76657 6.54363,4.55865 z"
         style="fill:#ffffff;stroke:#000000;stroke-width:3;stroke-linecap:butt;stroke-linejoin:miter;stroke-opacity:1;display:inline" />
      <path
         sodipodi:nodetypes="ccc"
         inkscape:connector-curvature="0"
         id="path20534-4-7"
         d="m 311.48048,194.53234 c -0.0898,2.54758 0.96752,5.90987 6.93797,6.54166 -5.33832,8.37321 -7.6819,8.05286 -8.03781,1.46173"
         style="fill:#ffffff;stroke:#000000;stroke-width:3;stroke-linecap:butt;stroke-linejoin:miter;stroke-opacity:1;display:inline" />
      <path
         d="m 61.211859,62.035736 a 22.444349,22.444349 0 1 1 -44.888699,0 22.444349,22.444349 0 1 1 44.888699,0 z"
         sodipodi:ry="22.444349"
         sodipodi:rx="22.444349"
         sodipodi:cy="62.035736"
         sodipodi:cx="38.767509"
         id="path20532-8"
         style="fill:none;stroke:#000000;stroke-width:2.89098144;display:inline"
         sodipodi:type="arc"
         transform="matrix(-1.0377099,0,0,1.0377099,373.85862,137.25717)" />
    </g>
    <path
       transform="matrix(-0.49934692,0.16191823,0.44551768,1.3739519,495.13136,-191.25671)"
       d="m 1093.0508,188.27797 c -3.5096,-0.18066 -1.488,-4.81994 0.3002,-5.83311 4.846,-2.74563 10.1601,1.84023 11.366,6.43363 2.1571,8.21653 -4.7743,15.65982 -12.567,16.89881 -11.4361,1.81828 -21.2595,-7.72539 -22.4317,-18.70038 -1.5623,-14.62793 10.6796,-26.89792 24.8338,-27.9645 17.8117,-1.3422 32.5556,13.63435 33.4973,30.96712 0.8838,16.2661 -9.8229,31.14778 -24.9486,36.65078"
       sodipodi:t0="0"
       sodipodi:argument="-15.656533"
       sodipodi:radius="39.744011"
       sodipodi:revolution="1.7011275"
       sodipodi:expansion="1"
       sodipodi:cy="188.27797"
       sodipodi:cx="1093.0508"
       id="path6564"
       style="fill:none;stroke:#000000;stroke-width:3.44528198;stroke-linecap:butt;stroke-linejoin:miter;stroke-opacity:1;display:inline"
       sodipodi:type="spiral" />
    <path
       style="fill:none;stroke:#000000;stroke-width:3;stroke-linecap:butt;stroke-linejoin:miter;stroke-opacity:1;display:inline"
       d="m 38.212184,158.90385 c -1.462412,-15.81305 5.779085,-38.64182 18.698,-49.32307"
       id="path20572"
       inkscape:connector-curvature="0"
       sodipodi:nodetypes="cc" />
    <path
       style="fill:none;stroke:#000000;stroke-width:3;stroke-linecap:butt;stroke-linejoin:miter;stroke-opacity:1;display:inline"
       d="m 44.752518,115.06835 7.923103,7.00493"
       id="path20574"
       inkscape:connector-curvature="0"
       sodipodi:nodetypes="cc" />
    <path
       style="fill:none;stroke:#000000;stroke-width:3;stroke-linecap:butt;stroke-linejoin:miter;stroke-opacity:1;display:inline"
       d="m 33.549224,140.46158 11.299136,2.81718"
       id="path20576"
       inkscape:connector-curvature="0"
       sodipodi:nodetypes="cc" />
    <path
       style="fill:none;stroke:#000000;stroke-width:3;stroke-linecap:butt;stroke-linejoin:miter;stroke-opacity:1;display:inline"
       d="m 310.05555,215.3017 c 0.10547,29.02162 -19.31458,58.80435 -33.54043,69.1245"
       id="path20578"
       inkscape:connector-curvature="0"
       sodipodi:nodetypes="cc" />
    <path
       style="fill:none;stroke:#000000;stroke-width:3;stroke-linecap:butt;stroke-linejoin:miter;stroke-opacity:1;display:inline"
       d="m 296.60215,231.21381 22.16443,2.98178"
       id="path20580"
       inkscape:connector-curvature="0"
       sodipodi:nodetypes="cc" />
    <path
       style="fill:none;stroke:#000000;stroke-width:3;stroke-linecap:butt;stroke-linejoin:miter;stroke-opacity:1;display:inline"
       d="m 281.2441,263.78439 18.78396,12.24585"
       id="path20582"
       inkscape:connector-curvature="0"
       sodipodi:nodetypes="cc" />
  </g>
  <g
     inkscape:groupmode="layer"
     id="layer2"
     inkscape:label="レイヤー"
     sodipodi:insensitive="true">
    <path
       style="fill:#ffffff;stroke:none;display:inline"
       d="m 0,0 0,320 370,0 0,-320 -10,10 0,300 -350,0 0,-300 350,0 10,-10 z"
       id="path21072"
       inkscape:connector-curvature="0"
       sodipodi:nodetypes="ccccccccccc" />
  </g>
</svg>
