<?xml version="1.0" encoding="UTF-8" standalone="no"?>
<!-- Created with Inkscape (http://www.inkscape.org/) -->

<svg
   xmlns:dc="http://purl.org/dc/elements/1.1/"
   xmlns:cc="http://creativecommons.org/ns#"
   xmlns:rdf="http://www.w3.org/1999/02/22-rdf-syntax-ns#"
   xmlns:svg="http://www.w3.org/2000/svg"
   xmlns="http://www.w3.org/2000/svg"
   xmlns:sodipodi="http://sodipodi.sourceforge.net/DTD/sodipodi-0.dtd"
   xmlns:inkscape="http://www.inkscape.org/namespaces/inkscape"
   width="370"
   height="320"
   id="svg3172"
   version="1.1"
   inkscape:version="0.48.4 r9939"
   sodipodi:docname="[00.規格].svg">
  <defs
     id="defs3174" />
  <sodipodi:namedview
     id="base"
     pagecolor="#ffffff"
     bordercolor="#666666"
     borderopacity="1.0"
     inkscape:pageopacity="0.0"
     inkscape:pageshadow="2"
     inkscape:zoom="0.94234524"
     inkscape:cx="119.37459"
     inkscape:cy="173.57042"
     inkscape:document-units="px"
     inkscape:current-layer="layer22"
     showgrid="false"
     inkscape:window-width="1105"
     inkscape:window-height="698"
     inkscape:window-x="21"
     inkscape:window-y="8"
     inkscape:window-maximized="0" />
  <metadata
     id="metadata3177">
    <rdf:RDF>
      <cc:Work
         rdf:about="">
        <dc:format>image/svg+xml</dc:format>
        <dc:type
           rdf:resource="http://purl.org/dc/dcmitype/StillImage" />
        <dc:title></dc:title>
      </cc:Work>
    </rdf:RDF>
  </metadata>
  <g
     inkscape:label="補助線"
     inkscape:groupmode="layer"
     id="layer1"
     transform="translate(0,-732.36218)"
     sodipodi:insensitive="true"
     style="display:none">
    <path
       style="fill:none;stroke:#0000ff;stroke-width:1px;stroke-linecap:butt;stroke-linejoin:miter;stroke-opacity:1;display:inline"
       d="M 10,1042.3622 360,742.36211"
       id="path3025"
       inkscape:connector-curvature="0"
       sodipodi:nodetypes="cc" />
    <path
       style="fill:none;stroke:#0000ff;stroke-width:1px;stroke-linecap:butt;stroke-linejoin:miter;stroke-opacity:1;display:inline"
       d="M 10,742.36211 360,1042.3622"
       id="path3027"
       inkscape:connector-curvature="0"
       sodipodi:nodetypes="cc" />
    <path
       style="fill:none;stroke:#ff0000;stroke-width:1px;stroke-linecap:butt;stroke-linejoin:miter;stroke-opacity:1;display:inline"
       d="m 10,732.36211 0,320.00009"
       id="path3006"
       inkscape:connector-curvature="0"
       sodipodi:nodetypes="cc" />
    <path
       style="fill:none;stroke:#ff0000;stroke-width:1px;stroke-linecap:butt;stroke-linejoin:miter;stroke-opacity:1;display:inline"
       d="m 360,732.36211 0,320.00009"
       id="path3010"
       inkscape:connector-curvature="0"
       sodipodi:nodetypes="cc" />
    <path
       style="fill:none;stroke:#ff0000;stroke-width:1px;stroke-linecap:butt;stroke-linejoin:miter;stroke-opacity:1;display:inline"
       d="m 0,742.36208 370,3e-5"
       id="path3016"
       inkscape:connector-curvature="0" />
    <path
       style="fill:none;stroke:#ff0000;stroke-width:1px;stroke-linecap:butt;stroke-linejoin:miter;stroke-opacity:1;display:inline"
       d="m 0,1042.3622 370,0"
       id="path3018"
       inkscape:connector-curvature="0"
       sodipodi:nodetypes="cc" />
  </g>
  <g
     inkscape:groupmode="layer"
     id="layer3"
     inkscape:label="豚"
     sodipodi:insensitive="true">
    <g
       style="display:inline"
       id="g9705"
       transform="translate(69.808643,-1.9934534)">
      <path
         inkscape:connector-curvature="0"
         style="fill:#fffff8;fill-opacity:1;stroke:none;display:inline"
         d="M 57.515527,215.18509 249.77334,262.31616 271.19599,153.53335 z"
         id="path6414"
         sodipodi:nodetypes="cccc" />
      <path
         sodipodi:nodetypes="ccc"
         style="fill:#fffff8;fill-opacity:1;stroke:#000000;stroke-width:3;stroke-linecap:butt;stroke-linejoin:miter;stroke-opacity:1;display:inline"
         d="m 249.65444,262.03262 c 14.00701,-4.54779 32.17376,-37.25405 27.80395,-66.09232 13.83737,-44.87602 10.94433,-52.55123 -12.64287,-51.1391"
         id="path6416"
         inkscape:connector-curvature="0" />
      <path
         sodipodi:nodetypes="cscc"
         style="fill:#fffff8;fill-opacity:1;stroke:#000000;stroke-width:3;stroke-linecap:butt;stroke-linejoin:miter;stroke-opacity:1;display:inline"
         d="M 265.87466,164.97005 C 267.58213,104.60747 218.08453,69.590452 172.86238,74.99951 135.44282,79.475292 92.820848,99.03617 84.301609,169.69718 73.802237,189.56024 59.217004,203.73001 55.977142,215.84784"
         id="path6526"
         inkscape:connector-curvature="0" />
      <path
         style="fill:#aa0000;stroke:#000000;stroke-width:3;stroke-linecap:butt;stroke-linejoin:miter;stroke-opacity:1;display:inline"
         d="m 248.86754,145.82223 c -2.75504,1.30144 -4.53778,4.52554 -6.79671,3.92765 -4.71036,-1.2466 -7.13266,-6.52807 -15.72605,-3.53143 -13.20507,4.60489 -11.70781,13.1026 -22.4185,16.57743 -4.53013,1.46974 -7.37215,-0.81156 -10.28052,-0.97394 7.52422,6.13901 16.3026,22.51315 36.97947,13.1359 15.33756,-6.95578 9.42643,-19.73082 18.24231,-29.13561 z"
         id="path6528"
         inkscape:connector-curvature="0"
         sodipodi:nodetypes="cssscsc" />
      <path
         style="fill:none;stroke:#000000;stroke-width:3;stroke-linecap:butt;stroke-linejoin:miter;stroke-opacity:1;display:inline"
         d="m 228.00109,118.70037 4.62895,22.56244"
         id="path6530"
         inkscape:connector-curvature="0"
         sodipodi:nodetypes="cc" />
      <path
         style="fill:none;stroke:#000000;stroke-width:3;stroke-linecap:butt;stroke-linejoin:miter;stroke-opacity:1;display:inline"
         d="m 206.84511,123.77286 6.26741,23.82527"
         id="path6532"
         inkscape:connector-curvature="0"
         sodipodi:nodetypes="cc" />
      <path
         style="fill:none;stroke:#000000;stroke-width:3;stroke-linecap:butt;stroke-linejoin:miter;stroke-opacity:1;display:inline"
         d="m 178.31126,193.29741 c 39.0972,-2.72431 31.8678,22.24597 -2.74444,48.64937"
         id="path6534"
         inkscape:connector-curvature="0"
         sodipodi:nodetypes="cc" />
      <path
         style="fill:none;stroke:#000000;stroke-width:3;stroke-linecap:butt;stroke-linejoin:miter;stroke-opacity:1;display:inline"
         d="m 242.37736,127.44765 -47.28912,14.50734"
         id="path6536"
         inkscape:connector-curvature="0"
         sodipodi:nodetypes="cc" />
      <path
         sodipodi:type="spiral"
         style="fill:none;stroke:#000000;stroke-width:2.18894625;stroke-linecap:butt;stroke-linejoin:miter;stroke-opacity:1;display:inline"
         id="path6538"
         sodipodi:cx="885.37939"
         sodipodi:cy="575.66058"
         sodipodi:expansion="1"
         sodipodi:revolution="2.2553272"
         sodipodi:radius="46.676884"
         sodipodi:argument="-21.720297"
         sodipodi:t0="0"
         d="m 885.37939,575.66058 c -2.99954,-0.8329 -0.35713,-4.45425 1.38434,-4.98544 4.71928,-1.43949 8.42959,3.55011 8.58655,7.75411 0.28075,7.51998 -7.14738,12.61898 -14.12389,12.18766 -10.2383,-0.63299 -16.89146,-10.77861 -15.78876,-20.49366 1.46973,-12.94863 14.41995,-21.19688 26.86343,-19.38987 15.65886,2.27393 25.51883,18.06563 22.99098,33.23321 -3.06157,18.36996 -21.71367,29.85026 -39.60298,26.59208 -21.08194,-3.83966 -34.18765,-25.36315 -30.19319,-45.97276 4.61175,-23.7946 29.0136,-38.52898 52.34253,-33.79429 0.51105,0.10372 1.02035,0.21604 1.52763,0.33689"
         transform="matrix(-1.2070679,0.87290971,1.9565958,0.14116874,134.58539,-573.29268)" />
    </g>
  </g>
  <g
     inkscape:groupmode="layer"
     id="layer22"
     inkscape:label="吹き出し"
     sodipodi:insensitive="true">
    <g
       id="g9305">
      <path
         sodipodi:nodetypes="sscssssssss"
         inkscape:connector-curvature="0"
         id="path9194"
         d="m 226.08975,61.176994 c 24.9545,11.242686 -54.93851,7.647355 -42.03296,16.218258 22.38227,14.864634 -48.59317,7.54155 -14.88074,29.818328 -30.25064,0 -119.358588,-16.71823 -98.476934,-24.094965 C 81.334246,79.361606 16.955022,74.897612 37.849012,68.011674 56.958612,61.71381 19.325432,53.092006 15.125282,51.836371 0.65622204,47.510846 74.752026,40.680956 52.462092,31.632121 30.018102,22.520742 102.79059,12.05291 149.12695,12.05291 c 34.62016,0 67.65084,2.818888 54.55229,12.833427 -5.32307,4.069766 29.03138,8.210703 54.36226,20.561091 18.28781,8.916449 -45.44218,9.651757 -31.95175,15.729566 z"
         style="fill:#fefefe;fill-opacity:1;stroke:#000000;stroke-width:3;stroke-linecap:round;stroke-miterlimit:4;stroke-opacity:1;stroke-dashoffset:0;display:inline" />
      <text
         sodipodi:linespacing="125%"
         id="text9190"
         y="63.871082"
         x="49.670555"
         style="font-size:64px;font-style:oblique;font-weight:normal;line-height:125%;letter-spacing:0px;word-spacing:0px;writing-mode:lr-tb;fill:#000000;fill-opacity:1;stroke:none;display:inline;font-family:Sans;-inkscape-font-specification:Sans Oblique"
         xml:space="preserve"><tspan
           style="font-size:48px;font-style:oblique;-inkscape-font-specification:Sans Oblique"
           y="63.871082"
           x="49.670555"
           id="tspan9192"
           sodipodi:role="line">ヒャー</tspan></text>
    </g>
  </g>
  <g
     inkscape:groupmode="layer"
     id="layer2"
     inkscape:label="レイヤー"
     sodipodi:insensitive="true">
    <path
       style="fill:#ffffff;stroke:none;display:inline"
       d="m 0,0 0,320 370,0 0,-320 -10,10 0,300 -350,0 0,-300 350,0 10,-10 z"
       id="path21072"
       inkscape:connector-curvature="0"
       sodipodi:nodetypes="ccccccccccc" />
  </g>
</svg>
