<?xml version="1.0" encoding="UTF-8" standalone="no"?>
<!-- Created with Inkscape (http://www.inkscape.org/) -->

<svg
   xmlns:dc="http://purl.org/dc/elements/1.1/"
   xmlns:cc="http://creativecommons.org/ns#"
   xmlns:rdf="http://www.w3.org/1999/02/22-rdf-syntax-ns#"
   xmlns:svg="http://www.w3.org/2000/svg"
   xmlns="http://www.w3.org/2000/svg"
   xmlns:sodipodi="http://sodipodi.sourceforge.net/DTD/sodipodi-0.dtd"
   xmlns:inkscape="http://www.inkscape.org/namespaces/inkscape"
   width="370"
   height="320"
   id="svg3172"
   version="1.1"
   inkscape:version="0.48.4 r9939"
   sodipodi:docname="[23.反動].svg">
  <defs
     id="defs3174" />
  <sodipodi:namedview
     id="base"
     pagecolor="#ffffff"
     bordercolor="#666666"
     borderopacity="1.0"
     inkscape:pageopacity="0.0"
     inkscape:pageshadow="2"
     inkscape:zoom="1.2685356"
     inkscape:cx="132.61423"
     inkscape:cy="148.93137"
     inkscape:document-units="px"
     inkscape:current-layer="layer4"
     showgrid="false"
     inkscape:window-width="1098"
     inkscape:window-height="698"
     inkscape:window-x="-5"
     inkscape:window-y="-5"
     inkscape:window-maximized="0" />
  <metadata
     id="metadata3177">
    <rdf:RDF>
      <cc:Work
         rdf:about="">
        <dc:format>image/svg+xml</dc:format>
        <dc:type
           rdf:resource="http://purl.org/dc/dcmitype/StillImage" />
        <dc:title />
      </cc:Work>
    </rdf:RDF>
  </metadata>
  <g
     inkscape:label="補助線"
     inkscape:groupmode="layer"
     id="layer1"
     transform="translate(0,-732.36218)"
     sodipodi:insensitive="true"
     style="display:none">
    <path
       style="fill:none;stroke:#0000ff;stroke-width:1px;stroke-linecap:butt;stroke-linejoin:miter;stroke-opacity:1;display:inline"
       d="M 10,1042.3622 360,742.36211"
       id="path3025"
       inkscape:connector-curvature="0"
       sodipodi:nodetypes="cc" />
    <path
       style="fill:none;stroke:#0000ff;stroke-width:1px;stroke-linecap:butt;stroke-linejoin:miter;stroke-opacity:1;display:inline"
       d="M 10,742.36211 360,1042.3622"
       id="path3027"
       inkscape:connector-curvature="0"
       sodipodi:nodetypes="cc" />
    <path
       style="fill:none;stroke:#ff0000;stroke-width:1px;stroke-linecap:butt;stroke-linejoin:miter;stroke-opacity:1;display:inline"
       d="m 10,732.36211 0,320.00009"
       id="path3006"
       inkscape:connector-curvature="0"
       sodipodi:nodetypes="cc" />
    <path
       style="fill:none;stroke:#ff0000;stroke-width:1px;stroke-linecap:butt;stroke-linejoin:miter;stroke-opacity:1;display:inline"
       d="m 360,732.36211 0,320.00009"
       id="path3010"
       inkscape:connector-curvature="0"
       sodipodi:nodetypes="cc" />
    <path
       style="fill:none;stroke:#ff0000;stroke-width:1px;stroke-linecap:butt;stroke-linejoin:miter;stroke-opacity:1;display:inline"
       d="m 0,742.36208 370,3e-5"
       id="path3016"
       inkscape:connector-curvature="0" />
    <path
       style="fill:none;stroke:#ff0000;stroke-width:1px;stroke-linecap:butt;stroke-linejoin:miter;stroke-opacity:1;display:inline"
       d="m 0,1042.3622 370,0"
       id="path3018"
       inkscape:connector-curvature="0"
       sodipodi:nodetypes="cc" />
  </g>
  <g
     inkscape:groupmode="layer"
     id="layer4"
     inkscape:label="吹き出し"
     sodipodi:insensitive="true">
    <g
       id="g3553">
      <path
         sodipodi:nodetypes="cccccccccc"
         inkscape:connector-curvature="0"
         id="path10846"
         d="M 136.83393,114.64036 C 147.96729,90.274053 115.28971,75.898097 64.790128,73.106349 c 30.71226,-5.696438 72.488262,-9.601837 56.405292,-46.499558 53.05421,20.667312 77.10664,8.321577 70.36168,-8.33334 27.52768,17.707418 60.20882,13.151435 80.31243,-3.705301 -5.5012,28.511054 44.05582,23.383628 65.68941,19.076328 -30.43916,27.00979 -6.5706,43.36583 20.91488,57.444748 C 318.29904,81.92774 260.95518,82.086657 285.19564,111.24967 240.7384,87.544877 219.86498,104.37982 209.68071,128.15921 189.55923,91.277104 167.80582,103.2767 136.83393,114.64036 z"
         style="fill:#ff6600;fill-opacity:1;stroke:#000000;stroke-width:3;stroke-linecap:round;stroke-miterlimit:4;stroke-opacity:1;stroke-dashoffset:0;display:inline" />
      <text
         sodipodi:linespacing="125%"
         id="text10849"
         y="81.302887"
         x="121.35011"
         style="font-size:48px;font-style:normal;font-weight:normal;line-height:125%;letter-spacing:0px;word-spacing:0px;writing-mode:lr-tb;fill:#000000;fill-opacity:1;stroke:none;display:inline;font-family:Sans;-inkscape-font-specification:Sans"
         xml:space="preserve"><tspan
           y="81.302887"
           x="121.35011"
           id="tspan10851"
           sodipodi:role="line">ドカーン</tspan></text>
    </g>
  </g>
  <g
     inkscape:groupmode="layer"
     id="layer3"
     inkscape:label="豚"
     style="display:inline"
     sodipodi:insensitive="true">
    <g
       style="display:inline"
       id="g10668"
       transform="translate(195.82925,-43.08007)">
      <path
         style="fill:#fffff8;fill-opacity:1;stroke:#000000;stroke-width:3;stroke-linecap:butt;stroke-linejoin:miter;stroke-opacity:1;display:inline"
         d="m -21.303058,190.31553 c -1.1624,-31.83316 -16.85601,-48.60698 -35.61076,-61.55268 -4.67424,-3.22637 -5.4429,-16.45866 -8.18302,-17.21699 -2.48071,-0.68657 -2.74164,11.93581 -5.06483,11.10704 -10.05476,-3.58709 -19.75594,-4.85355 -26.959427,-4.43971 -3.125155,0.17955 -4.468275,-12.61679 -7.463565,-12.1635 -1.26027,0.19073 0.0533,9.09222 -1.84692,10.70716 -1.23066,1.04593 -2.06649,-6.22138 -4.61828,-5.16546 -2.62255,1.08519 -0.49194,8.36693 -4.66901,9.44513 -11.69169,3.01801 -21.95535,8.09857 -30.61605,15.28014 -1.61396,1.3383 -2.10829,-7.43478 -3.6098,-5.9503 -1.63867,1.62013 -3.36171,12.59977 -5.77568,15.30664 -1.12975,1.26672 -2.83472,-7.1928 -4.07018,-5.9892 -1.85748,1.80957 -1.2397,13.0973 -2.25024,14.71071 -7.59278,12.12195 -12.71476,27.29255 -15.06668,45.57773 -15.75381,74.01465 6.65462,111.83494 47.55163,119.3647 37.500364,6.90437 80.241572,7.24024 108.205572,-10.90406 -32.81785,-13.10142 33.31251,-11.07446 11.9033098,-84.41352 18.16811,-58.49796 12.05038,-71.18909 -13.7727698,-51.07606"
         id="path6458"
         inkscape:connector-curvature="0"
         sodipodi:nodetypes="cssssssssssssscsccc" />
      <path
         style="fill:#aa0000;stroke:#000000;stroke-width:3;stroke-linecap:butt;stroke-linejoin:miter;stroke-opacity:1;display:inline"
         d="m -90.468763,179.99008 c 3.736955,1.00378 11.547885,8.183 15.918295,7.7569 5.97392,-0.58244 7.03062,-11.04049 14.30574,-12.23052 5.2021,-0.85095 5.68479,6.11042 9.40411,5.34881 3.77058,-0.77212 5.17249,-6.50299 8.58993,-8.10628 -3.05625,6.73573 -2.80619,30.25003 -9.63434,32.02636 -3.89665,1.01371 -4.9416,-7.05671 -10.10832,-7.86856 -4.2806,-0.67262 -5.48709,11.25386 -10.50228,11.89027 -7.62696,0.96783 -11.11157,-23.46077 -17.973135,-28.81698 z"
         id="path6460"
         inkscape:connector-curvature="0"
         sodipodi:nodetypes="cssscsssc" />
      <path
         style="fill:none;stroke:#000000;stroke-width:3;stroke-linecap:butt;stroke-linejoin:miter;stroke-opacity:1;display:inline"
         d="m -54.466758,156.7113 c -1.65423,3.4632 -3.70505,10.83981 -4.50637,14.63485"
         id="path6462"
         inkscape:connector-curvature="0"
         sodipodi:nodetypes="cc" />
      <path
         style="fill:none;stroke:#000000;stroke-width:3;stroke-linecap:butt;stroke-linejoin:miter;stroke-opacity:1;display:inline"
         d="m -87.326188,163.24061 c 4.45075,1.64582 10.78129,6.66342 14.342,9.91046"
         id="path6464"
         inkscape:connector-curvature="0"
         sodipodi:nodetypes="cc" />
      <path
         style="fill:none;stroke:#000000;stroke-width:3;stroke-linecap:butt;stroke-linejoin:miter;stroke-opacity:1;display:inline"
         d="m -132.08338,203.73489 c 39.064353,-30.06965 33.706692,15.63253 21.95567,37.37322"
         id="path6466"
         inkscape:connector-curvature="0"
         sodipodi:nodetypes="cc" />
    </g>
    <path
       style="fill:none;stroke:#5d536c;stroke-width:3;stroke-linecap:butt;stroke-linejoin:miter;stroke-opacity:1;display:inline"
       d="m 191.42414,148.18586 c 3.83836,23.01669 6.73998,50.91954 8.59661,76.22478"
       id="path10885-8"
       inkscape:connector-curvature="0"
       sodipodi:nodetypes="cc" />
    <path
       style="fill:none;stroke:#5d536c;stroke-width:3;stroke-linecap:butt;stroke-linejoin:miter;stroke-opacity:1;display:inline"
       d="m 202.77188,140.50522 c 3.83836,23.01668 7.17192,46.64558 8.286,73.43594"
       id="path10885-9-6"
       inkscape:connector-curvature="0"
       sodipodi:nodetypes="cc" />
    <path
       style="fill:none;stroke:#5d536c;stroke-width:3;stroke-linecap:butt;stroke-linejoin:miter;stroke-opacity:1;display:inline"
       d="m 91.208068,182.81739 c -1.26678,18.38252 5.40152,40.2785 1.9843,64.22046"
       id="path10885"
       inkscape:connector-curvature="0"
       sodipodi:nodetypes="cc" />
    <path
       style="fill:none;stroke:#5d536c;stroke-width:3;stroke-linecap:butt;stroke-linejoin:miter;stroke-opacity:1;display:inline"
       d="m 99.665058,170.23363 c 4.111322,17.58719 5.496902,42.61812 6.280232,68.66035"
       id="path10885-9"
       inkscape:connector-curvature="0"
       sodipodi:nodetypes="cc" />
  </g>
  <g
     inkscape:groupmode="layer"
     id="layer5"
     inkscape:label="書類"
     style="display:inline"
     sodipodi:insensitive="true">
    <g
       id="g3562">
      <g
         transform="matrix(0.9877898,0.15579253,-0.15579253,0.9877898,254.25175,-281.17504)"
         id="g10779"
         style="display:inline">
        <path
           style="fill:#deaa87;fill-opacity:1;stroke:#000000;stroke-width:3;stroke-linecap:round;stroke-miterlimit:4;stroke-opacity:1;stroke-dashoffset:0;display:inline"
           d="m 202.55488,521.52941 85.49204,-8.15091 -182.49525,-25.16299 -85.492044,8.15091"
           id="rect10076-7"
           inkscape:connector-curvature="0"
           sodipodi:nodetypes="cccc" />
        <path
           style="fill:#d38d5f;fill-opacity:1;stroke:#000000;stroke-width:3;stroke-linecap:round;stroke-miterlimit:4;stroke-opacity:1;stroke-dashoffset:0;display:inline"
           d="m 20.211661,496.76836 182.495249,25.16299 0,116.58181 -182.495249,-25.16299 z"
           id="rect10076-7-2"
           inkscape:connector-curvature="0"
           sodipodi:nodetypes="ccccc" />
      </g>
      <path
         sodipodi:nodetypes="ccccc"
         inkscape:connector-curvature="0"
         id="path10783"
         d="m 224.90648,177.38633 c 21.04636,35.44463 73.01173,58.91163 124.69659,74.92979 27.30545,0.09 44.69485,5.66012 65.98295,-0.55918 -28.87323,-12.17254 -78.62526,-49.3477 -90.02758,-73.25226 -26.2869,12.89867 -62.50237,21.69907 -100.65196,-1.11835 z"
         style="fill:#fefefe;fill-opacity:1;stroke:#000000;stroke-width:3;stroke-linecap:butt;stroke-linejoin:miter;stroke-opacity:1;display:inline" />
      <path
         sodipodi:nodetypes="ccccc"
         inkscape:connector-curvature="0"
         id="path10783-7"
         d="m 230.77784,170.60466 c 21.04636,35.44463 67.97913,62.2667 119.66399,78.28486 27.30545,0.09 44.69485,5.66012 65.98295,-0.55918 -28.87323,-12.17254 -73.59266,-44.3151 -84.99498,-68.21966 -26.2869,12.89867 -62.50237,13.3114 -100.65196,-9.50602 z"
         style="fill:#fefefe;fill-opacity:1;stroke:#000000;stroke-width:3;stroke-linecap:butt;stroke-linejoin:miter;stroke-opacity:1;display:inline" />
      <path
         sodipodi:nodetypes="ccccc"
         inkscape:connector-curvature="0"
         id="path10783-79"
         d="m 227.43794,126.77795 c 11.5316,39.57643 55.99336,75.27308 102.04303,103.68671 26.41845,6.90369 41.86675,16.63855 64.03343,15.93053 -24.9203,-18.99506 -63.8167,-67.41332 -68.89046,-93.40751 -28.67465,5.92801 -65.94042,5.40894 -97.186,-26.20973 z"
         style="fill:#fefefe;fill-opacity:1;stroke:#000000;stroke-width:3;stroke-linecap:butt;stroke-linejoin:miter;stroke-opacity:1;display:inline" />
      <path
         sodipodi:nodetypes="ccccc"
         inkscape:connector-curvature="0"
         id="path10783-79-3"
         d="m 255.70922,92.500331 c 2.1204,41.167649 37.18053,86.133049 75.461,124.375849 24.12251,12.79453 36.9178,25.82135 58.65311,30.23036 -19.88366,-24.21722 -46.6018,-80.28324 -45.56122,-106.74752 -29.26936,-0.8257 -65.41679,-9.90151 -88.55289,-47.858689 z"
         style="fill:#fefefe;fill-opacity:1;stroke:#000000;stroke-width:3;stroke-linecap:butt;stroke-linejoin:miter;stroke-opacity:1;display:inline" />
      <path
         sodipodi:nodetypes="ccccc"
         inkscape:connector-curvature="0"
         id="path10783-79-3-1"
         d="m 277.80425,73.495932 c 14.81815,65.382068 55.84012,151.886588 76.05146,153.876898 22.28892,13.06343 27.78525,-0.52305 47.86842,3.97862 -18.37227,-24.72618 -35.94235,-77.22575 -34.98087,-104.24622 -27.04455,-0.84305 -67.56152,-14.85438 -88.93901,-53.609298 z"
         style="fill:#fefefe;fill-opacity:1;stroke:#000000;stroke-width:2.9138751;stroke-linecap:butt;stroke-linejoin:miter;stroke-opacity:1;display:inline" />
    </g>
  </g>
  <g
     inkscape:groupmode="layer"
     id="layer2"
     inkscape:label="レイヤー"
     sodipodi:insensitive="true">
    <path
       style="fill:#ffffff;stroke:none;display:inline"
       d="m 0,0 0,320 370,0 0,-320 -10,10 0,300 -350,0 0,-300 350,0 10,-10 z"
       id="path21072"
       inkscape:connector-curvature="0"
       sodipodi:nodetypes="ccccccccccc" />
  </g>
</svg>
