<?xml version="1.0" encoding="UTF-8" standalone="no"?>
<!-- Created with Inkscape (http://www.inkscape.org/) -->

<svg
   xmlns:dc="http://purl.org/dc/elements/1.1/"
   xmlns:cc="http://creativecommons.org/ns#"
   xmlns:rdf="http://www.w3.org/1999/02/22-rdf-syntax-ns#"
   xmlns:svg="http://www.w3.org/2000/svg"
   xmlns="http://www.w3.org/2000/svg"
   xmlns:sodipodi="http://sodipodi.sourceforge.net/DTD/sodipodi-0.dtd"
   xmlns:inkscape="http://www.inkscape.org/namespaces/inkscape"
   width="370"
   height="320"
   id="svg3172"
   version="1.1"
   inkscape:version="0.48.4 r9939"
   sodipodi:docname="[24.後悔].svg"
   inkscape:export-filename="C:\Users\執安\Desktop\資料\臨時\svg\[23.反動].png"
   inkscape:export-xdpi="90"
   inkscape:export-ydpi="90">
  <defs
     id="defs3174" />
  <sodipodi:namedview
     id="base"
     pagecolor="#ffffff"
     bordercolor="#666666"
     borderopacity="1.0"
     inkscape:pageopacity="0.0"
     inkscape:pageshadow="2"
     inkscape:zoom="1.2685356"
     inkscape:cx="144.86594"
     inkscape:cy="171.04288"
     inkscape:document-units="px"
     inkscape:current-layer="layer1"
     showgrid="false"
     inkscape:window-width="1220"
     inkscape:window-height="698"
     inkscape:window-x="-5"
     inkscape:window-y="-5"
     inkscape:window-maximized="0" />
  <metadata
     id="metadata3177">
    <rdf:RDF>
      <cc:Work
         rdf:about="">
        <dc:format>image/svg+xml</dc:format>
        <dc:type
           rdf:resource="http://purl.org/dc/dcmitype/StillImage" />
        <dc:title />
      </cc:Work>
    </rdf:RDF>
  </metadata>
  <g
     inkscape:label="補助線"
     inkscape:groupmode="layer"
     id="layer1"
     transform="translate(0,-732.36218)"
     style="display:none"
     sodipodi:insensitive="true">
    <path
       style="fill:none;stroke:#0000ff;stroke-width:1px;stroke-linecap:butt;stroke-linejoin:miter;stroke-opacity:1;display:inline"
       d="M 10,1042.3622 360,742.36211"
       id="path3025"
       inkscape:connector-curvature="0"
       sodipodi:nodetypes="cc" />
    <path
       style="fill:none;stroke:#0000ff;stroke-width:1px;stroke-linecap:butt;stroke-linejoin:miter;stroke-opacity:1;display:inline"
       d="M 10,742.36211 360,1042.3622"
       id="path3027"
       inkscape:connector-curvature="0"
       sodipodi:nodetypes="cc" />
    <path
       style="fill:none;stroke:#ff0000;stroke-width:1px;stroke-linecap:butt;stroke-linejoin:miter;stroke-opacity:1;display:inline"
       d="m 10,732.36211 0,320.00009"
       id="path3006"
       inkscape:connector-curvature="0"
       sodipodi:nodetypes="cc" />
    <path
       style="fill:none;stroke:#ff0000;stroke-width:1px;stroke-linecap:butt;stroke-linejoin:miter;stroke-opacity:1;display:inline"
       d="m 360,732.36211 0,320.00009"
       id="path3010"
       inkscape:connector-curvature="0"
       sodipodi:nodetypes="cc" />
    <path
       style="fill:none;stroke:#ff0000;stroke-width:1px;stroke-linecap:butt;stroke-linejoin:miter;stroke-opacity:1;display:inline"
       d="m 0,742.36208 370,3e-5"
       id="path3016"
       inkscape:connector-curvature="0" />
    <path
       style="fill:none;stroke:#ff0000;stroke-width:1px;stroke-linecap:butt;stroke-linejoin:miter;stroke-opacity:1;display:inline"
       d="m 0,1042.3622 370,0"
       id="path3018"
       inkscape:connector-curvature="0"
       sodipodi:nodetypes="cc" />
  </g>
  <g
     inkscape:groupmode="layer"
     id="layer3"
     inkscape:label="豚"
     sodipodi:insensitive="true">
    <g
       style="display:inline"
       id="g9532"
       transform="translate(0.17596121,-29.451245)">
      <path
         style="fill:#fffff8;fill-opacity:1;stroke:#000000;stroke-width:2.99174976;stroke-linecap:butt;stroke-linejoin:miter;stroke-opacity:1;display:inline"
         d="m 21.230552,132.22981 c -0.174403,-1.32608 -0.309922,-2.87448 -0.388779,-4.76654 3.750885,3.75289 9.299292,1.18853 14.249347,-3.42457 -9.082639,1.19031 -6.624877,-7.89009 -13.11038,-7.95182 4.508672,-17.756952 21.145675,-28.087512 35.267219,-28.04556 20.889047,0.06209 43.028341,8.97534 44.910891,41.38145 6.02672,8.33073 4.89237,24.02684 8.67029,28.38383 -3.68867,9.60085 -13.119552,34.62474 -48.43315,34.57983 -31.58894,-0.0402 -42.613015,-15.00104 -45.151243,-38.72255 -9.6461695,-26.04806 -6.687138,-24.89733 8.447654,-19.97886"
         id="path5664"
         inkscape:connector-curvature="0"
         sodipodi:nodetypes="ccccsccscc" />
      <path
         style="fill:none;stroke:#000000;stroke-width:2.99174976;stroke-linecap:butt;stroke-linejoin:miter;stroke-opacity:1;display:inline"
         d="m 31.208068,106.13551 -3.653752,9.91515"
         id="path5666"
         inkscape:connector-curvature="0"
         sodipodi:nodetypes="cc" />
      <path
         style="fill:#fffff8;fill-opacity:1;stroke:#000000;stroke-width:2.99174976;stroke-linecap:butt;stroke-linejoin:miter;stroke-opacity:1;display:inline"
         d="m 25.044838,107.386 c -12.722181,-5.62232 -11.517245,10.47631 -9.143371,23.62145"
         id="path5668"
         inkscape:connector-curvature="0"
         sodipodi:nodetypes="cc" />
      <path
         style="fill:none;stroke:#000000;stroke-width:2.99174976;stroke-linecap:butt;stroke-linejoin:miter;stroke-opacity:1;display:inline"
         d="M 35.627069,113.77742 24.705252,108.10346"
         id="path5670"
         inkscape:connector-curvature="0"
         sodipodi:nodetypes="cc" />
    </g>
    <path
       inkscape:connector-curvature="0"
       style="fill:none;stroke:#6f6f91;stroke-width:2.68063188;display:inline"
       d="M 92.420691,88.054136 C 106.07968,82.098355 121.51424,77.098085 138.23548,73.335902"
       id="path9673" />
    <path
       inkscape:connector-curvature="0"
       style="fill:none;stroke:#6f6f91;stroke-width:3.33978152;display:inline"
       d="m 104.37808,100.62263 c 10.70229,-5.226284 22.99903,-9.685864 36.46114,-13.130694"
       id="path9663" />
    <path
       sodipodi:type="arc"
       style="fill:#000000;fill-opacity:1;stroke:none;display:inline"
       id="path9547-0-6-1"
       sodipodi:cx="136.41208"
       sodipodi:cy="299.53818"
       sodipodi:rx="45.470692"
       sodipodi:ry="8.639431"
       d="m 181.88277,299.53818 a 45.470692,8.639431 0 1 1 -90.941383,0 45.470692,8.639431 0 1 1 90.941383,0 z"
       transform="matrix(0.87272077,0,0,0.87272077,183.03277,-95.944497)" />
    <path
       sodipodi:type="arc"
       style="fill:#000000;fill-opacity:1;stroke:none;display:inline"
       id="path9547-0-6-6"
       sodipodi:cx="136.41208"
       sodipodi:cy="299.53818"
       sodipodi:rx="45.470692"
       sodipodi:ry="8.639431"
       d="m 181.88277,299.53818 a 45.470692,8.639431 0 1 1 -90.941383,0 45.470692,8.639431 0 1 1 90.941383,0 z"
       transform="matrix(0.65351767,0,0,0.65351767,86.903171,-66.610962)" />
    <path
       sodipodi:type="arc"
       style="fill:#000000;fill-opacity:1;stroke:none;display:inline"
       id="path9547-0-6"
       sodipodi:cx="136.41208"
       sodipodi:cy="299.53818"
       sodipodi:rx="45.470692"
       sodipodi:ry="8.639431"
       d="m 181.88277,299.53818 a 45.470692,8.639431 0 1 1 -90.941383,0 45.470692,8.639431 0 1 1 90.941383,0 z"
       transform="matrix(0.8444365,0,0,0.8444365,-32.383105,-78.784754)" />
    <path
       sodipodi:type="arc"
       style="fill:#000000;fill-opacity:1;stroke:none;display:inline"
       id="path9547-0"
       sodipodi:cx="136.41208"
       sodipodi:cy="299.53818"
       sodipodi:rx="45.470692"
       sodipodi:ry="8.639431"
       d="m 181.88277,299.53818 a 45.470692,8.639431 0 1 1 -90.941383,0 45.470692,8.639431 0 1 1 90.941383,0 z"
       transform="matrix(0.92221825,0,0,0.92221825,154.26253,-27.504927)" />
    <path
       sodipodi:type="arc"
       style="fill:#000000;fill-opacity:1;stroke:none;display:inline"
       id="path9547"
       sodipodi:cx="136.41208"
       sodipodi:cy="299.53818"
       sodipodi:rx="45.470692"
       sodipodi:ry="8.639431"
       d="m 181.88277,299.53818 a 45.470692,8.639431 0 1 1 -90.941383,0 45.470692,8.639431 0 1 1 90.941383,0 z"
       transform="translate(-1.9092288,-30.029668)" />
    <g
       style="display:inline"
       id="g9518"
       transform="translate(0.17596121,-29.451245)">
      <path
         id="path9508"
         d="m 350.63366,111.25178 c 0.19494,-1.48227 0.34642,-5.25132 0.43457,-7.36623 -5.04196,-0.22131 -4.27981,-6.654669 -9.98274,-8.923573 6.92516,0.990791 5.39105,-3.951895 7.18092,-4.642025 -3.85073,-17.980018 -24.27638,-28.472741 -40.0543,-28.941731 -21.90815,-0.651214 -45.45402,12.194385 -47.55829,48.417389"
         style="fill:#fffff8;fill-opacity:1;stroke:#000000;stroke-width:2.99174976;stroke-linecap:butt;stroke-linejoin:miter;stroke-opacity:1;display:inline"
         inkscape:connector-curvature="0" />
      <path
         sodipodi:nodetypes="ccscc"
         inkscape:connector-curvature="0"
         id="path5656"
         d="m 262.42221,106.41958 c -7.86191,9.955 -3.39362,35.75767 -11.21968,40.62784 4.12313,10.73167 19.47929,30.30507 53.4171,31.44639 40.1016,1.34862 54.29614,-29.84002 50.92663,-55.41774 5.01724,-23.831439 3.41425,-26.024556 -10.86082,-18.36487"
         style="fill:#fffff8;fill-opacity:1;stroke:#000000;stroke-width:2.99174976;stroke-linecap:butt;stroke-linejoin:miter;stroke-opacity:1;display:inline" />
      <path
         style="fill:none;stroke:#000000;stroke-width:2.99174976;stroke-linecap:butt;stroke-linejoin:miter;stroke-opacity:1;display:inline"
         d="m 341.16245,80.402537 5.28515,10.362347"
         id="path5658"
         inkscape:connector-curvature="0"
         sodipodi:nodetypes="cc" />
      <path
         style="fill:none;stroke:#000000;stroke-width:2.99174976;stroke-linecap:butt;stroke-linejoin:miter;stroke-opacity:1;display:inline"
         d="m 341.2674,87.743472 5.4823,-3.459708"
         id="path5660"
         inkscape:connector-curvature="0"
         sodipodi:nodetypes="cc" />
    </g>
    <g
       style="display:inline"
       id="g9538"
       transform="translate(0.17596121,-29.451245)">
      <path
         style="fill:#fffff8;fill-opacity:1;stroke:#000000;stroke-width:2.99174976;stroke-linecap:butt;stroke-linejoin:miter;stroke-opacity:1;display:inline"
         d="m 136.37732,70.884652 c 3.65891,-17.962134 22.51438,-29.342996 41.06186,-28.334526 20.85833,1.134114 39.18495,15.461046 36.9839,48.347577 7.468,22.262997 -2.07376,24.026827 12.51367,34.869537 -11.37544,2.3945 -13.35975,22.13374 -48.67334,22.08883 -31.58894,-0.0402 -50.11787,-19.70577 -49.01171,-53.258877 -3.88108,-28.690391 -2.34626,-36.784269 9.42557,-30.42453"
         id="path5814"
         inkscape:connector-curvature="0"
         sodipodi:nodetypes="csccscc" />
    </g>
    <path
       inkscape:connector-curvature="0"
       style="fill:none;stroke:#6f6f91;stroke-width:2.68063188;display:inline"
       d="M 59.591661,197.97262 C 42.088161,186.71141 31.379461,172.53495 30.270621,156.581"
       id="path9675" />
    <path
       inkscape:connector-curvature="0"
       style="fill:none;stroke:#6f6f91;stroke-width:2.68063188;display:inline"
       d="m 211.42083,65.583914 c 19.58686,0.128099 38.13964,2.038717 54.97972,5.456598"
       id="path9671" />
    <path
       inkscape:connector-curvature="0"
       style="fill:none;stroke:#6f6f91;stroke-width:2.68063188;display:inline"
       d="m 343.50093,109.90364 c 5.80858,7.42956 9.23796,15.56453 9.83975,24.22307 0.81473,11.72225 -3.63609,23.21107 -12.31291,33.86557"
       id="path9616" />
    <path
       inkscape:connector-curvature="0"
       style="fill:none;stroke:#6f6f91;stroke-width:3.33978152;display:inline"
       d="m 77.397941,180.93815 c -9.92231,-8.099 -15.8781,-17.67474 -16.61086,-28.21756"
       id="path9665" />
    <path
       inkscape:connector-curvature="0"
       style="fill:none;stroke:#6f6f91;stroke-width:3.33978152;display:inline"
       d="m 186.03552,80.322875 c 11.40029,-0.79235 22.50691,-0.84148 33.13423,-0.22269 12.68441,0.73857 24.686,2.42866 35.68912,4.94224"
       id="path9661" />
    <path
       inkscape:connector-curvature="0"
       style="fill:none;stroke:#6f6f91;stroke-width:3.33978152;display:inline"
       d="m 318.05226,125.46578 c 1.13019,2.98076 1.8225,6.06277 2.04278,9.23217 0.32817,4.7217 -0.40804,9.39622 -2.10319,13.9626"
       id="path9616-8" />
    <path
       inkscape:connector-curvature="0"
       style="fill:none;stroke:#000000;stroke-width:3;display:inline"
       d="m -41.997695,166.54363 c 3.0314,43.61541 -66.832875,83.99926 -156.046215,90.19984 -89.21333,6.20058 -163.99245,-24.13014 -167.02385,-67.74555 -3.03139,-43.6154 66.83287,-83.99924 156.0462,-90.199822 89.21334,-6.200582 163.992475,24.130132 167.023865,67.745532 z"
       id="path9616-4" />
    <path
       inkscape:connector-curvature="0"
       style="fill:none;stroke:#000000;stroke-width:3;display:inline"
       d="m -75.243336,167.11487 c 2.433111,35.00733 -53.642534,67.4209 -125.248454,72.39771 -71.60591,4.97682 -131.62639,-19.36773 -134.0595,-54.37507 -2.43311,-35.00733 53.64252,-67.42089 125.24843,-72.39771 71.60592,-4.97681 131.626414,19.36773 134.059524,54.37507 z"
       id="path9616-8-9" />
    <g
       style="display:inline"
       id="g9510"
       transform="translate(0.17596121,-29.451245)">
      <path
         style="fill:#fffff8;fill-opacity:1;stroke:#000000;stroke-width:2.99174976;stroke-linecap:butt;stroke-linejoin:miter;stroke-opacity:1;display:inline"
         d="m 321.83345,182.64435 c -5.12365,-33.28923 -33.97631,-41.68722 -53.44851,-37.03415 -24.16343,5.77409 -39.81102,23.75871 -40.47267,52.92996 -4.88743,13.84729 0.57252,42.65983 -11.29031,44.28155 16.02052,1.8695 19.58415,25.43571 65.48646,23.2659 36.35075,-1.7183 52.11111,-32.43167 49.3048,-56.99494 9.65141,-26.83349 6.25269,-33.74861 -10.25919,-29.50572"
         id="path5800"
         inkscape:connector-curvature="0"
         sodipodi:nodetypes="csccscc" />
      <path
         style="fill:#aa0000;stroke:#000000;stroke-width:2.99174976;stroke-linecap:butt;stroke-linejoin:miter;stroke-opacity:1;display:inline"
         d="m 281.4859,194.64502 c 11.70027,2.5474 7.70476,-9.36072 19.74255,-11.64567 6.84442,-1.29917 5.67538,2.66678 9.8012,1.54061 -1.61275,4.92677 -0.78275,13.70839 -8.67008,15.75897 -7.75872,2.01713 -12.58858,-1.63266 -20.87367,-5.65391 z"
         id="path5802"
         inkscape:connector-curvature="0"
         sodipodi:nodetypes="cscsc" />
      <path
         style="fill:none;stroke:#000000;stroke-width:2.99174976;stroke-linecap:butt;stroke-linejoin:miter;stroke-opacity:1;display:inline"
         d="m 301.10744,168.23092 3.23349,12.00617"
         id="path5804"
         inkscape:connector-curvature="0"
         sodipodi:nodetypes="cc" />
      <path
         style="fill:none;stroke:#000000;stroke-width:2.99174976;stroke-linecap:butt;stroke-linejoin:miter;stroke-opacity:1;display:inline"
         d="m 289.41465,170.06501 3.83722,13.28996"
         id="path5806"
         inkscape:connector-curvature="0"
         sodipodi:nodetypes="cc" />
      <path
         style="fill:none;stroke:#000000;stroke-width:2.99174976;stroke-linecap:butt;stroke-linejoin:miter;stroke-opacity:1;display:inline"
         d="m 262.44433,199.39498 c 16.58863,-9.86028 21.13438,-4.26928 14.81633,18.1203"
         id="path5808"
         inkscape:connector-curvature="0"
         sodipodi:nodetypes="cc" />
      <path
         style="fill:none;stroke:#000000;stroke-width:2.99174976;stroke-linecap:butt;stroke-linejoin:miter;stroke-opacity:1;display:inline"
         d="m 283.55725,181.64443 24.61904,-8.0597"
         id="path5810"
         inkscape:connector-curvature="0"
         sodipodi:nodetypes="cc" />
    </g>
    <g
       style="display:inline"
       id="g9524"
       transform="translate(0.17596121,-29.451245)">
      <path
         style="fill:#fffff8;fill-opacity:1;stroke:#000000;stroke-width:2.99174976;stroke-linecap:butt;stroke-linejoin:miter;stroke-opacity:1;display:inline"
         d="m 79.786945,210.01584 c -1.710642,-27.54801 20.862175,-49.03865 45.065685,-50.32696 25.83982,-1.3754 52.28156,13.99199 55.58965,51.221 7.45974,10.31158 6.05567,29.73986 10.73188,35.13286 -4.56575,11.88369 -16.23907,42.85768 -59.94941,42.8021 -39.100061,-0.0498 -53.316206,-22.56256 -54.776021,-48.98109 -16.77538,-24.04223 -12.310895,-35.43022 3.479196,-33.54711"
         id="path5786"
         inkscape:connector-curvature="0"
         sodipodi:nodetypes="csccscc" />
      <path
         style="fill:#aa0000;stroke:#000000;stroke-width:2.99174976;stroke-linecap:butt;stroke-linejoin:miter;stroke-opacity:1;display:inline"
         d="m 96.856351,218.13292 c 1.744126,0.32358 4.012799,1.2962 5.437669,0.84926 3.41886,-1.07239 4.19248,-5.70041 12.20311,-5.62962 9.60236,0.0849 12.03299,4.72723 15.99745,5.10988 2.13841,0.20641 4.19176,0.0511 7.99741,-2.16102 -6.99015,5.12016 -7.26553,15.38163 -23.04395,13.88447 -12.16756,-1.15454 -11.22306,-9.09318 -18.591689,-12.05297 z"
         id="path5788"
         inkscape:connector-curvature="0"
         sodipodi:nodetypes="cssscsc" />
      <path
         style="fill:none;stroke:#000000;stroke-width:2.99174976;stroke-linecap:butt;stroke-linejoin:miter;stroke-opacity:1;display:inline"
         d="m 122.88772,197.09347 0.10284,14.79565"
         id="path5790"
         inkscape:connector-curvature="0"
         sodipodi:nodetypes="cc" />
      <path
         style="fill:none;stroke:#000000;stroke-width:2.99174976;stroke-linecap:butt;stroke-linejoin:miter;stroke-opacity:1;display:inline"
         d="m 108.66803,195.80972 0.44283,15.03818"
         id="path5792"
         inkscape:connector-curvature="0"
         sodipodi:nodetypes="cc" />
      <path
         style="fill:none;stroke:#000000;stroke-width:2.99174976;stroke-linecap:butt;stroke-linejoin:miter;stroke-opacity:1;display:inline"
         d="m 154.8645,224.96191 c -16.78786,10.8805 -17.08039,16.98126 -5.07356,28.04878"
         id="path5794"
         inkscape:connector-curvature="0"
         sodipodi:nodetypes="cc" />
      <path
         style="fill:none;stroke:#000000;stroke-width:2.99174976;stroke-linecap:butt;stroke-linejoin:miter;stroke-opacity:1;display:inline"
         d="m 132.29215,204.50995 -31.0593,-2.00672"
         id="path5796"
         inkscape:connector-curvature="0"
         sodipodi:nodetypes="cc" />
    </g>
    <path
       inkscape:connector-curvature="0"
       style="fill:none;stroke:#6f6f91;stroke-width:2.68063188;display:inline"
       d="m 279.34582,207.41233 c -23.72661,8.76856 -51.77472,14.8099 -82.05135,16.91422"
       id="path9677" />
    <path
       inkscape:connector-curvature="0"
       style="fill:none;stroke:#6f6f91;stroke-width:3.33978152;display:inline"
       d="m 261.49646,193.22482 c -19.21053,7.19737 -42.01081,12.15836 -66.64987,13.87084"
       id="path9667" />
  </g>
  <g
     inkscape:groupmode="layer"
     id="layer4"
     inkscape:label="吹き出し"
     style="display:inline"
     sodipodi:insensitive="true">
    <g
       transform="translate(0.17596121,0.54875505)"
       style="display:inline"
       id="g9689">
      <path
         sodipodi:nodetypes="sscssss"
         inkscape:connector-curvature="0"
         id="path5218"
         d="m 341.93835,268.59965 c 0,-21.43975 -44.92107,-38.82007 -100.33399,-38.82007 -8.52505,0 -31.07382,-10.77495 -48.29737,-12.91889 6.44152,5.73124 11.0873,15.58943 5.26506,16.66055 -33.88053,6.23293 -57.3017,19.59741 -57.3017,35.07841 0,21.43972 44.92107,38.82006 100.33401,38.82006 55.41292,0 100.33399,-17.38034 100.33399,-38.82006 z"
         style="fill:#fefefe;fill-opacity:1;stroke:#000000;stroke-width:3.19367647" />
      <text
         sodipodi:linespacing="125%"
         id="text9541"
         y="267.37518"
         x="243.22249"
         style="font-size:38.133461px;font-style:normal;font-weight:bold;text-align:center;line-height:125%;letter-spacing:0px;word-spacing:0px;writing-mode:lr-tb;text-anchor:middle;fill:#000000;fill-opacity:1;stroke:none;font-family:Sans;-inkscape-font-specification:Sans Bold"
         xml:space="preserve"><tspan
           style="font-size:23.83341217px;font-weight:bold;text-align:center;text-anchor:middle;-inkscape-font-specification:Sans Bold"
           y="267.37518"
           x="243.22249"
           id="tspan9543"
           sodipodi:role="line">やってしまった</tspan><tspan
           style="font-size:23.83341217px;font-weight:bold;text-align:center;text-anchor:middle;-inkscape-font-specification:Sans Bold"
           id="tspan9545"
           y="297.16696"
           x="243.22249"
           sodipodi:role="line">んですな</tspan></text>
    </g>
    <text
       xml:space="preserve"
       style="font-size:60.42695999px;font-style:normal;font-weight:normal;line-height:125%;letter-spacing:0px;word-spacing:0px;writing-mode:lr-tb;fill:#000000;fill-opacity:1;stroke:none;display:inline;font-family:Sans"
       x="9.6310911"
       y="352.37741"
       id="text9610"
       sodipodi:linespacing="125%"><tspan
         sodipodi:role="line"
         id="tspan9612"
         x="9.6310911"
         y="352.37741"
         style="font-size:30.21348px">BGM : 幻想交響曲第5楽章</tspan></text>
  </g>
  <g
     inkscape:groupmode="layer"
     id="layer2"
     inkscape:label="枠面"
     style="display:inline"
     sodipodi:insensitive="true">
    <path
       style="fill:#ffffff;stroke:none;display:inline"
       d="m 0,0 0,320 370,0 0,-320 -10,10 0,300 -350,0 0,-300 350,0 10,-10 z"
       id="path21072"
       inkscape:connector-curvature="0"
       sodipodi:nodetypes="ccccccccccc" />
  </g>
</svg>
