<?xml version="1.0" encoding="UTF-8" standalone="no"?>
<!-- Created with Inkscape (http://www.inkscape.org/) -->

<svg
   xmlns:dc="http://purl.org/dc/elements/1.1/"
   xmlns:cc="http://creativecommons.org/ns#"
   xmlns:rdf="http://www.w3.org/1999/02/22-rdf-syntax-ns#"
   xmlns:svg="http://www.w3.org/2000/svg"
   xmlns="http://www.w3.org/2000/svg"
   xmlns:sodipodi="http://sodipodi.sourceforge.net/DTD/sodipodi-0.dtd"
   xmlns:inkscape="http://www.inkscape.org/namespaces/inkscape"
   width="370"
   height="320"
   id="svg3172"
   version="1.1"
   inkscape:version="0.48.4 r9939"
   sodipodi:docname="[24.後悔].svg"
   inkscape:export-filename="C:\Users\執安\Desktop\資料\臨時\svg\[24.後悔].png"
   inkscape:export-xdpi="90"
   inkscape:export-ydpi="90">
  <defs
     id="defs3174" />
  <sodipodi:namedview
     id="base"
     pagecolor="#ffffff"
     bordercolor="#666666"
     borderopacity="1.0"
     inkscape:pageopacity="0.0"
     inkscape:pageshadow="2"
     inkscape:zoom="1.6086128"
     inkscape:cx="185.69219"
     inkscape:cy="144.53392"
     inkscape:document-units="px"
     inkscape:current-layer="layer4"
     showgrid="false"
     inkscape:window-width="1098"
     inkscape:window-height="698"
     inkscape:window-x="-5"
     inkscape:window-y="-5"
     inkscape:window-maximized="0" />
  <metadata
     id="metadata3177">
    <rdf:RDF>
      <cc:Work
         rdf:about="">
        <dc:format>image/svg+xml</dc:format>
        <dc:type
           rdf:resource="http://purl.org/dc/dcmitype/StillImage" />
        <dc:title></dc:title>
      </cc:Work>
    </rdf:RDF>
  </metadata>
  <g
     inkscape:label="補助線"
     inkscape:groupmode="layer"
     id="layer1"
     transform="translate(0,-732.36218)"
     sodipodi:insensitive="true"
     style="display:none">
    <path
       style="fill:none;stroke:#0000ff;stroke-width:1px;stroke-linecap:butt;stroke-linejoin:miter;stroke-opacity:1;display:inline"
       d="M 10,1042.3622 360,742.36211"
       id="path3025"
       inkscape:connector-curvature="0"
       sodipodi:nodetypes="cc" />
    <path
       style="fill:none;stroke:#0000ff;stroke-width:1px;stroke-linecap:butt;stroke-linejoin:miter;stroke-opacity:1;display:inline"
       d="M 10,742.36211 360,1042.3622"
       id="path3027"
       inkscape:connector-curvature="0"
       sodipodi:nodetypes="cc" />
    <path
       style="fill:none;stroke:#ff0000;stroke-width:1px;stroke-linecap:butt;stroke-linejoin:miter;stroke-opacity:1;display:inline"
       d="m 10,732.36211 0,320.00009"
       id="path3006"
       inkscape:connector-curvature="0"
       sodipodi:nodetypes="cc" />
    <path
       style="fill:none;stroke:#ff0000;stroke-width:1px;stroke-linecap:butt;stroke-linejoin:miter;stroke-opacity:1;display:inline"
       d="m 360,732.36211 0,320.00009"
       id="path3010"
       inkscape:connector-curvature="0"
       sodipodi:nodetypes="cc" />
    <path
       style="fill:none;stroke:#ff0000;stroke-width:1px;stroke-linecap:butt;stroke-linejoin:miter;stroke-opacity:1;display:inline"
       d="m 0,742.36208 370,3e-5"
       id="path3016"
       inkscape:connector-curvature="0" />
    <path
       style="fill:none;stroke:#ff0000;stroke-width:1px;stroke-linecap:butt;stroke-linejoin:miter;stroke-opacity:1;display:inline"
       d="m 0,1042.3622 370,0"
       id="path3018"
       inkscape:connector-curvature="0"
       sodipodi:nodetypes="cc" />
  </g>
  <g
     inkscape:groupmode="layer"
     id="layer3"
     inkscape:label="豚"
     sodipodi:insensitive="true">
    <text
       xml:space="preserve"
       style="font-size:32px;font-style:normal;font-weight:normal;line-height:125%;letter-spacing:0px;word-spacing:0px;writing-mode:tb-rl;fill:#000000;fill-opacity:1;stroke:none;display:inline;font-family:Sans"
       x="236.46118"
       y="-66.76088"
       id="text7834"
       sodipodi:linespacing="125%"
       transform="matrix(0,1,-1,0,0,0)"><tspan
         sodipodi:role="line"
         id="tspan7836"
         x="-66.76088"
         y="236.46118">ー</tspan></text>
    <path
       sodipodi:type="arc"
       style="fill:#000000;fill-opacity:1;stroke:none;display:inline"
       id="path7872"
       sodipodi:cx="-4.025053"
       sodipodi:cy="522.59436"
       sodipodi:rx="110.46214"
       sodipodi:ry="19.38559"
       d="m 106.43709,522.59436 a 110.46214,19.38559 0 1 1 -220.92429,0 110.46214,19.38559 0 1 1 220.92429,0 z"
       transform="matrix(0.72383906,0,0,0.71782598,218.40701,-79.730793)" />
    <path
       sodipodi:nodetypes="cccc"
       inkscape:connector-curvature="0"
       id="path6420"
       d="m 126.97199,125.01691 c -19.22074,23.96666 -27.470978,79.84798 -2.67141,62.89017 l 133.65951,-40.07897 z"
       style="fill:#fffff8;fill-opacity:1;stroke:#000000;stroke-width:3;stroke-linecap:butt;stroke-linejoin:miter;stroke-opacity:1;display:inline" />
    <path
       sodipodi:nodetypes="cscc"
       inkscape:connector-curvature="0"
       id="path6422"
       d="m 126.66465,174.05003 c -13.26725,70.56997 38.92267,95.12884 84.89473,94.36207 62.97833,-1.05043 105.58781,-33.68262 95.3468,-85.26994 22.31967,-8.95415 58.78583,-26.69914 9.22678,-50.68183"
       style="fill:#fffff8;fill-opacity:1;stroke:#000000;stroke-width:3;stroke-linecap:butt;stroke-linejoin:miter;stroke-opacity:1;display:inline" />
    <path
       sodipodi:nodetypes="cscc"
       inkscape:connector-curvature="0"
       id="path6468"
       d="m 126.34824,138.70245 c -1.52408,-54.367029 31.09285,-79.04403 65.92024,-86.159851 38.14506,-7.793682 74.2713,9.231059 90.72128,42.820786 52.60416,-21.249635 39.6517,22.406445 24.37459,59.740935"
       style="fill:#fffff8;fill-opacity:1;stroke:#000000;stroke-width:3;stroke-linecap:butt;stroke-linejoin:miter;stroke-opacity:1;display:inline" />
    <path
       sodipodi:nodetypes="cssscsc"
       inkscape:connector-curvature="0"
       id="path6470"
       d="m 170.26956,134.21597 c 4.26086,0.38533 6.87092,0.87936 9.5582,0.28138 7.90579,-1.75919 11.73601,-10.29366 20.26828,-12.1416 11.08957,-2.40183 19.96098,3.89269 25.40203,3.99027 4.2549,0.0763 6.30273,-4.32444 10.75,-4.96736 -14.10769,4.05942 -4.97041,24.9125 -30.57204,29.4753 -24.40791,4.35004 -20.95142,-14.39285 -35.40647,-16.63799 z"
       style="fill:#aa0000;stroke:#000000;stroke-width:3;stroke-linecap:butt;stroke-linejoin:miter;stroke-opacity:1;display:inline" />
    <path
       inkscape:connector-curvature="0"
       id="path6472"
       d="m 182.50857,106.88529 8.46805,12.05067"
       style="fill:none;stroke:#000000;stroke-width:3;stroke-linecap:butt;stroke-linejoin:miter;stroke-opacity:1;display:inline" />
    <path
       inkscape:connector-curvature="0"
       id="path6474"
       d="m 215.40365,101.99989 -5.5368,16.93607"
       style="fill:none;stroke:#000000;stroke-width:3;stroke-linecap:butt;stroke-linejoin:miter;stroke-opacity:1;display:inline" />
    <path
       transform="matrix(-0.22708748,0.79218642,-0.42357728,-1.2184351,778.57263,126.95218)"
       d="m 885.37939,575.66058 c -2.99954,-0.8329 -0.35713,-4.45425 1.38434,-4.98544 4.71928,-1.43949 8.42959,3.55011 8.58655,7.75411 0.28075,7.51998 -7.14738,12.61898 -14.12389,12.18766 -10.2383,-0.63299 -16.89146,-10.77861 -15.78876,-20.49366 1.46973,-12.94863 14.41995,-21.19688 26.86343,-19.38987 15.65886,2.27393 25.51883,18.06563 22.99098,33.23321 -3.06157,18.36996 -21.71367,29.85026 -39.60298,26.59208 -21.08194,-3.83966 -34.18765,-25.36315 -30.19319,-45.97276 4.61175,-23.7946 29.0136,-38.52898 52.34253,-33.79429 0.51105,0.10372 1.02035,0.21604 1.52763,0.33689"
       sodipodi:t0="0"
       sodipodi:argument="-21.720297"
       sodipodi:radius="46.676884"
       sodipodi:revolution="2.2553272"
       sodipodi:expansion="1"
       sodipodi:cy="575.66058"
       sodipodi:cx="885.37939"
       id="path6490"
       style="fill:none;stroke:#000000;stroke-width:3.8340621;stroke-linecap:butt;stroke-linejoin:miter;stroke-opacity:1;display:inline"
       sodipodi:type="spiral" />
  </g>
  <g
     inkscape:groupmode="layer"
     id="layer4"
     inkscape:label="吹き出し"
     sodipodi:insensitive="true">
    <g
       id="g4070">
      <path
         sodipodi:nodetypes="sssscsssssss"
         inkscape:connector-curvature="0"
         id="rect7294"
         d="m 34.855049,11.636484 35.416653,0 c 12.90509,0 23.294387,10.389296 23.294387,23.294386 l 0,80.36023 c 0,9.09872 19.923001,18.6589 19.923001,18.6589 0,0 -19.923001,-3.90948 -19.923001,6.71801 l 0,108.04859 c 0,12.90509 -10.389297,23.29439 -23.294387,23.29439 l -35.416653,0 c -12.90509,0 -23.29438,-10.3893 -23.29438,-23.29439 l 0,-213.78573 c 0,-12.90509 10.38929,-23.294386 23.29438,-23.294386 z"
         style="fill:#fefefe;fill-opacity:1;stroke:#000000;stroke-width:3;stroke-linecap:round;stroke-miterlimit:4;stroke-opacity:1;stroke-dashoffset:0;display:inline" />
      <text
         sodipodi:linespacing="125%"
         id="text7804"
         y="24.95417"
         x="51.084942"
         style="font-size:64px;font-style:normal;font-weight:normal;line-height:125%;letter-spacing:0px;word-spacing:0px;writing-mode:tb-rl;fill:#000000;fill-opacity:1;stroke:none;display:inline;font-family:Sans"
         xml:space="preserve"><tspan
           style="font-size:32px"
           y="51.084942"
           x="24.95417"
           id="tspan7806"
           sodipodi:role="line">頑張りますよ</tspan></text>
    </g>
  </g>
  <g
     inkscape:groupmode="layer"
     id="layer2"
     inkscape:label="レイヤー"
     sodipodi:insensitive="true">
    <path
       style="fill:#ffffff;stroke:none;display:inline"
       d="m 0,0 0,320 370,0 0,-320 -10,10 0,300 -350,0 0,-300 350,0 10,-10 z"
       id="path21072"
       inkscape:connector-curvature="0"
       sodipodi:nodetypes="ccccccccccc" />
  </g>
</svg>
