<?xml version="1.0" encoding="UTF-8" standalone="no"?>
<!-- Created with Inkscape (http://www.inkscape.org/) -->

<svg
   xmlns:dc="http://purl.org/dc/elements/1.1/"
   xmlns:cc="http://creativecommons.org/ns#"
   xmlns:rdf="http://www.w3.org/1999/02/22-rdf-syntax-ns#"
   xmlns:svg="http://www.w3.org/2000/svg"
   xmlns="http://www.w3.org/2000/svg"
   xmlns:sodipodi="http://sodipodi.sourceforge.net/DTD/sodipodi-0.dtd"
   xmlns:inkscape="http://www.inkscape.org/namespaces/inkscape"
   width="370"
   height="320"
   id="svg3172"
   version="1.1"
   inkscape:version="0.48.4 r9939"
   sodipodi:docname="[00.規格].svg">
  <defs
     id="defs3174" />
  <sodipodi:namedview
     id="base"
     pagecolor="#ffffff"
     bordercolor="#666666"
     borderopacity="1.0"
     inkscape:pageopacity="0.0"
     inkscape:pageshadow="2"
     inkscape:zoom="1.137461"
     inkscape:cx="138.5761"
     inkscape:cy="133.12852"
     inkscape:document-units="px"
     inkscape:current-layer="layer4"
     showgrid="false"
     inkscape:window-width="1098"
     inkscape:window-height="698"
     inkscape:window-x="-5"
     inkscape:window-y="-5"
     inkscape:window-maximized="0" />
  <metadata
     id="metadata3177">
    <rdf:RDF>
      <cc:Work
         rdf:about="">
        <dc:format>image/svg+xml</dc:format>
        <dc:type
           rdf:resource="http://purl.org/dc/dcmitype/StillImage" />
        <dc:title></dc:title>
      </cc:Work>
    </rdf:RDF>
  </metadata>
  <g
     inkscape:label="補助線"
     inkscape:groupmode="layer"
     id="layer1"
     transform="translate(0,-732.36218)"
     sodipodi:insensitive="true"
     style="display:none">
    <path
       style="fill:none;stroke:#0000ff;stroke-width:1px;stroke-linecap:butt;stroke-linejoin:miter;stroke-opacity:1;display:inline"
       d="M 10,1042.3622 360,742.36211"
       id="path3025"
       inkscape:connector-curvature="0"
       sodipodi:nodetypes="cc" />
    <path
       style="fill:none;stroke:#0000ff;stroke-width:1px;stroke-linecap:butt;stroke-linejoin:miter;stroke-opacity:1;display:inline"
       d="M 10,742.36211 360,1042.3622"
       id="path3027"
       inkscape:connector-curvature="0"
       sodipodi:nodetypes="cc" />
    <path
       style="fill:none;stroke:#ff0000;stroke-width:1px;stroke-linecap:butt;stroke-linejoin:miter;stroke-opacity:1;display:inline"
       d="m 10,732.36211 0,320.00009"
       id="path3006"
       inkscape:connector-curvature="0"
       sodipodi:nodetypes="cc" />
    <path
       style="fill:none;stroke:#ff0000;stroke-width:1px;stroke-linecap:butt;stroke-linejoin:miter;stroke-opacity:1;display:inline"
       d="m 360,732.36211 0,320.00009"
       id="path3010"
       inkscape:connector-curvature="0"
       sodipodi:nodetypes="cc" />
    <path
       style="fill:none;stroke:#ff0000;stroke-width:1px;stroke-linecap:butt;stroke-linejoin:miter;stroke-opacity:1;display:inline"
       d="m 0,742.36208 370,3e-5"
       id="path3016"
       inkscape:connector-curvature="0" />
    <path
       style="fill:none;stroke:#ff0000;stroke-width:1px;stroke-linecap:butt;stroke-linejoin:miter;stroke-opacity:1;display:inline"
       d="m 0,1042.3622 370,0"
       id="path3018"
       inkscape:connector-curvature="0"
       sodipodi:nodetypes="cc" />
  </g>
  <g
     inkscape:groupmode="layer"
     id="layer3"
     inkscape:label="豚"
     sodipodi:insensitive="true">
    <path
       sodipodi:nodetypes="ccscscsc"
       inkscape:connector-curvature="0"
       id="path6612"
       d="m 57.321127,191.96465 c -23.813152,40.08935 14.679454,63.57239 -41.462933,58.66288 41.01286,11.84505 97.602926,66.967 169.638476,51.27179 60.2691,-13.13155 74.54215,-66.81454 70.6128,-112.83397 3.99372,-49.28688 -30.44055,-94.919814 -71.74945,-100.971726 -27.548,-4.035898 -74.56683,-4.081158 -97.97154,52.610966 -25.876105,9.86663 -39.555756,46.74755 -25.404516,54.26335 22.457178,11.92712 34.214129,-13.63961 20.659052,-27.63764"
       style="fill:#fffff8;fill-opacity:1;stroke:#000000;stroke-width:3;stroke-linecap:butt;stroke-linejoin:miter;stroke-opacity:1;display:inline" />
    <path
       sodipodi:nodetypes="cc"
       inkscape:connector-curvature="0"
       id="path6614"
       d="m 181.55043,201.07318 c -33.68308,-5.98534 -45.2356,7.3266 -28.40515,42.84815"
       style="fill:none;stroke:#000000;stroke-width:3;stroke-linecap:butt;stroke-linejoin:miter;stroke-opacity:1;display:inline" />
    <path
       sodipodi:nodetypes="cc"
       inkscape:connector-curvature="0"
       id="path6616"
       d="m 134.38419,128.19701 -5.0533,24.36195"
       style="fill:none;stroke:#000000;stroke-width:3;stroke-linecap:butt;stroke-linejoin:miter;stroke-opacity:1;display:inline" />
    <path
       sodipodi:nodetypes="cc"
       inkscape:connector-curvature="0"
       id="path6618"
       d="m 156.36433,133.51965 c -3.41622,8.03983 -5.33559,16.13861 -6.16444,23.31601"
       style="fill:none;stroke:#000000;stroke-width:3;stroke-linecap:butt;stroke-linejoin:miter;stroke-opacity:1;display:inline" />
    <path
       sodipodi:nodetypes="cc"
       inkscape:connector-curvature="0"
       id="path6620"
       d="m 118.89763,136.11878 50.18561,12.80066"
       style="fill:none;stroke:#000000;stroke-width:3;stroke-linecap:butt;stroke-linejoin:miter;stroke-opacity:1;display:inline" />
    <path
       sodipodi:nodetypes="csc"
       inkscape:connector-curvature="0"
       id="path6622"
       d="m 107.88137,165.61678 c 8.50886,-14.22865 26.50954,-13.01617 33.91156,-2.70345 9.48021,13.20815 23.13909,20.66054 34.39842,9.51673"
       style="fill:none;stroke:#000000;stroke-width:3;stroke-linecap:butt;stroke-linejoin:miter;stroke-opacity:1;display:inline" />
    <path
       sodipodi:type="spiral"
       style="fill:none;stroke:#892ca0;stroke-width:3.23654413;stroke-linecap:butt;stroke-linejoin:miter;stroke-opacity:1;display:inline"
       id="path11394"
       sodipodi:cx="55.655346"
       sodipodi:cy="37.747898"
       sodipodi:expansion="1"
       sodipodi:revolution="2.2553272"
       sodipodi:radius="62.383102"
       sodipodi:argument="-13.778298"
       sodipodi:t0="0"
       d="m 55.655346,37.747898 c 1.461243,-3.895487 5.971965,0.04783 6.474556,2.428682 1.361992,6.451961 -5.716625,10.805368 -11.331919,10.520431 C 40.753539,50.187326 34.837833,39.699103 36.231676,30.461853 38.277197,16.905817 52.565834,9.2402929 65.370073,11.849672 82.436108,15.327564 91.895706,33.537406 88.028129,49.891306 83.161177,70.471021 60.979094,81.742519 41.083256,76.595237 16.98673,70.361189 3.8941143,44.180658 10.33345,20.747126 c 7.588535,-27.6156054 37.782752,-42.534806 64.751349,-34.79568 31.136311,8.9351273 47.885631,43.152681 38.841551,73.654587 -0.19812,0.668185 -0.40749,1.333033 -0.62798,1.994177"
       transform="matrix(0.95152347,-0.20916633,-0.20725502,0.94850145,32.454205,51.262036)" />
  </g>
  <g
     inkscape:groupmode="layer"
     id="layer4"
     inkscape:label="吹き出し"
     sodipodi:insensitive="true">
    <g
       id="g4410">
      <path
         sodipodi:nodetypes="sssscsssssss"
         inkscape:connector-curvature="0"
         id="rect7294"
         d="m 333.83962,12.672769 -35.41665,0 c -12.90509,0 -23.29439,10.389296 -23.29439,23.294385 l 0,80.360236 c 0,9.09872 -19.923,18.6589 -19.923,18.6589 0,0 19.923,-3.90948 19.923,6.71801 l 0,108.04859 c 0,12.90509 10.3893,23.29439 23.29439,23.29439 l 35.41665,0 c 12.90509,0 23.29438,-10.3893 23.29438,-23.29439 l 0,-213.785736 c 0,-12.905089 -10.38929,-23.294385 -23.29438,-23.294385 z"
         style="fill:#fefefe;fill-opacity:1;stroke:#000000;stroke-width:3;stroke-linecap:round;stroke-miterlimit:4;stroke-opacity:1;stroke-dashoffset:0;display:inline" />
      <text
         sodipodi:linespacing="125%"
         id="text7804"
         y="27.978146"
         x="314.60678"
         style="font-size:64px;font-style:normal;font-weight:normal;line-height:125%;letter-spacing:0px;word-spacing:0px;writing-mode:tb-rl;fill:#000000;fill-opacity:1;stroke:none;display:inline;font-family:Sans"
         xml:space="preserve"><tspan
           style="font-size:32px"
           y="314.60678"
           x="27.978146"
           id="tspan7806"
           sodipodi:role="line">満腹なんですな</tspan></text>
    </g>
  </g>
  <g
     inkscape:groupmode="layer"
     id="layer2"
     inkscape:label="レイヤー"
     sodipodi:insensitive="true">
    <path
       style="fill:#ffffff;stroke:none;display:inline"
       d="m 0,0 0,320 370,0 0,-320 -10,10 0,300 -350,0 0,-300 350,0 10,-10 z"
       id="path21072"
       inkscape:connector-curvature="0"
       sodipodi:nodetypes="ccccccccccc" />
  </g>
</svg>
