<?xml version="1.0" encoding="UTF-8" standalone="no"?>
<!-- Created with Inkscape (http://www.inkscape.org/) -->

<svg
   xmlns:dc="http://purl.org/dc/elements/1.1/"
   xmlns:cc="http://creativecommons.org/ns#"
   xmlns:rdf="http://www.w3.org/1999/02/22-rdf-syntax-ns#"
   xmlns:svg="http://www.w3.org/2000/svg"
   xmlns="http://www.w3.org/2000/svg"
   xmlns:sodipodi="http://sodipodi.sourceforge.net/DTD/sodipodi-0.dtd"
   xmlns:inkscape="http://www.inkscape.org/namespaces/inkscape"
   width="370"
   height="320"
   id="svg3172"
   version="1.1"
   inkscape:version="0.48.4 r9939"
   sodipodi:docname="[26.満腹].svg"
   inkscape:export-filename="C:\Users\執安\Desktop\資料\臨時\svg\[26.満腹].png"
   inkscape:export-xdpi="90"
   inkscape:export-ydpi="90">
  <defs
     id="defs3174" />
  <sodipodi:namedview
     id="base"
     pagecolor="#ffffff"
     bordercolor="#666666"
     borderopacity="1.0"
     inkscape:pageopacity="0.0"
     inkscape:pageshadow="2"
     inkscape:zoom="1.137461"
     inkscape:cx="279.0982"
     inkscape:cy="115.56676"
     inkscape:document-units="px"
     inkscape:current-layer="layer6"
     showgrid="false"
     inkscape:window-width="1098"
     inkscape:window-height="698"
     inkscape:window-x="-5"
     inkscape:window-y="-5"
     inkscape:window-maximized="0" />
  <metadata
     id="metadata3177">
    <rdf:RDF>
      <cc:Work
         rdf:about="">
        <dc:format>image/svg+xml</dc:format>
        <dc:type
           rdf:resource="http://purl.org/dc/dcmitype/StillImage" />
        <dc:title></dc:title>
      </cc:Work>
    </rdf:RDF>
  </metadata>
  <g
     inkscape:label="補助線"
     inkscape:groupmode="layer"
     id="layer1"
     transform="translate(0,-732.36218)"
     sodipodi:insensitive="true"
     style="display:none">
    <path
       style="fill:none;stroke:#0000ff;stroke-width:1px;stroke-linecap:butt;stroke-linejoin:miter;stroke-opacity:1;display:inline"
       d="M 10,1042.3622 360,742.36211"
       id="path3025"
       inkscape:connector-curvature="0"
       sodipodi:nodetypes="cc" />
    <path
       style="fill:none;stroke:#0000ff;stroke-width:1px;stroke-linecap:butt;stroke-linejoin:miter;stroke-opacity:1;display:inline"
       d="M 10,742.36211 360,1042.3622"
       id="path3027"
       inkscape:connector-curvature="0"
       sodipodi:nodetypes="cc" />
    <path
       style="fill:none;stroke:#ff0000;stroke-width:1px;stroke-linecap:butt;stroke-linejoin:miter;stroke-opacity:1;display:inline"
       d="m 10,732.36211 0,320.00009"
       id="path3006"
       inkscape:connector-curvature="0"
       sodipodi:nodetypes="cc" />
    <path
       style="fill:none;stroke:#ff0000;stroke-width:1px;stroke-linecap:butt;stroke-linejoin:miter;stroke-opacity:1;display:inline"
       d="m 360,732.36211 0,320.00009"
       id="path3010"
       inkscape:connector-curvature="0"
       sodipodi:nodetypes="cc" />
    <path
       style="fill:none;stroke:#ff0000;stroke-width:1px;stroke-linecap:butt;stroke-linejoin:miter;stroke-opacity:1;display:inline"
       d="m 0,742.36208 370,3e-5"
       id="path3016"
       inkscape:connector-curvature="0" />
    <path
       style="fill:none;stroke:#ff0000;stroke-width:1px;stroke-linecap:butt;stroke-linejoin:miter;stroke-opacity:1;display:inline"
       d="m 0,1042.3622 370,0"
       id="path3018"
       inkscape:connector-curvature="0"
       sodipodi:nodetypes="cc" />
  </g>
  <g
     inkscape:groupmode="layer"
     id="layer3"
     inkscape:label="豚"
     style="display:inline"
     sodipodi:insensitive="true">
    <path
       inkscape:connector-curvature="0"
       id="path5718"
       d="M 30.391302,185.14777 102.9639,308.76711 269.01976,299.5418 214.2828,204.21343 z"
       style="fill:#fffff8;fill-opacity:1;stroke:none;display:inline" />
    <path
       sodipodi:nodetypes="ccccc"
       inkscape:connector-curvature="0"
       id="path5876"
       d="m 55.48446,230.89077 95.2203,-36.30277 114.85973,36.30277 -92.24477,47.01507 z"
       style="fill:none;stroke:none;display:inline" />
    <g
       style="display:inline"
       id="g4828">
      <path
         style="fill:#fffff8;fill-opacity:1;stroke:#000000;stroke-width:3;stroke-linecap:butt;stroke-linejoin:miter;stroke-opacity:1;display:inline"
         d="m 267.86805,300.2846 c 52.57606,-2.79777 71.10916,-44.52322 74.02588,-74.6765 19.44239,-20.87322 21.0059,-31.84437 -4.34173,-42.14223 1.85595,-56.03776 -43.86898,-76.58523 -74.16822,-74.94914 -40.19956,2.17067 -68.10862,30.82452 -72.91586,76.00149 -0.42076,2.20205 -1.69275,6.30015 -1.81534,8.90997"
         id="path5878"
         inkscape:connector-curvature="0"
         sodipodi:nodetypes="cccscc" />
      <path
         style="fill:#aa0000;stroke:#000000;stroke-width:3;stroke-linecap:butt;stroke-linejoin:miter;stroke-opacity:1;display:inline"
         d="m 284.47048,188.52373 c 11.82218,2.38053 9.17429,-8.38424 23.75261,-10.47006 10.10165,-1.44531 7.98815,7.98978 15.63955,3.07408 -4.10285,5.36537 -7.35124,13.52307 -16.02618,15.45319 -9.52155,2.11852 -17.71939,-0.48132 -23.36598,-8.05721 z"
         id="path5880"
         inkscape:connector-curvature="0"
         sodipodi:nodetypes="cscsc" />
      <path
         style="fill:none;stroke:#000000;stroke-width:3;stroke-linecap:butt;stroke-linejoin:miter;stroke-opacity:1;display:inline"
         d="m 312.8341,154.90243 1.12082,18.75378"
         id="path5882"
         inkscape:connector-curvature="0"
         sodipodi:nodetypes="cc" />
      <path
         style="fill:none;stroke:#000000;stroke-width:3;stroke-linecap:butt;stroke-linejoin:miter;stroke-opacity:1;display:inline"
         d="m 295.68291,156.97112 1.02495,17.66629"
         id="path5884"
         inkscape:connector-curvature="0"
         sodipodi:nodetypes="cc" />
      <path
         style="fill:none;stroke:#000000;stroke-width:3;stroke-linecap:butt;stroke-linejoin:miter;stroke-opacity:1;display:inline"
         d="m 275.15536,220.00065 c -10.32662,23.44535 -33.8504,33.05365 -44.58266,2.96102"
         id="path5886"
         inkscape:connector-curvature="0"
         sodipodi:nodetypes="cc" />
    </g>
    <g
       style="display:inline"
       id="g4820">
      <path
         style="fill:#fffff8;fill-opacity:1;stroke:#000000;stroke-width:3;stroke-linecap:butt;stroke-linejoin:miter;stroke-opacity:1;display:inline"
         d="M 104.56138,309.08849 C 50.618382,303.20991 28.724342,264.28512 31.019422,235.5414 11.751662,219.23097 -1.0191983,199.7152 33.738187,178.10139"
         id="path5720"
         inkscape:connector-curvature="0"
         sodipodi:nodetypes="ccc" />
      <path
         style="fill:#fffff8;fill-opacity:1;stroke:#000000;stroke-width:3;stroke-linecap:butt;stroke-linejoin:miter;stroke-opacity:1;display:inline"
         d="m 33.738187,187.66887 c 1.18892,-58.21219 43.591985,-78.31069 73.891233,-76.67462 39.58347,2.1374 74.55146,29.72365 78.05893,77.03882 3.91942,7.5041 10.74475,16.40153 14.81518,27.12443"
         id="path5888"
         inkscape:connector-curvature="0"
         sodipodi:nodetypes="cscc" />
      <path
         style="fill:#aa0000;stroke:#000000;stroke-width:3;stroke-linecap:butt;stroke-linejoin:miter;stroke-opacity:1;display:inline"
         d="m 100.81798,188.59982 c -12.322922,3.41105 -14.558709,-4.81041 -22.920677,-9.59707 -8.827192,-5.05303 -16.950913,-3.34462 -21.763877,3.82624 7.765809,0.62788 11.734333,9.00277 19.403021,11.35359 9.805657,3.00587 17.539662,0.16394 25.281533,-5.58276 z"
         id="path5890"
         inkscape:connector-curvature="0"
         sodipodi:nodetypes="cscsc" />
      <path
         style="fill:none;stroke:#000000;stroke-width:3;stroke-linecap:butt;stroke-linejoin:miter;stroke-opacity:1;display:inline"
         d="M 71.209704,148.74166 67.527758,170.5123"
         id="path5892"
         inkscape:connector-curvature="0"
         sodipodi:nodetypes="cc" />
      <path
         style="fill:none;stroke:#000000;stroke-width:3;stroke-linecap:butt;stroke-linejoin:miter;stroke-opacity:1;display:inline"
         d="m 88.634949,155.55326 -3.265207,18.79649"
         id="path5894"
         inkscape:connector-curvature="0"
         sodipodi:nodetypes="cc" />
      <path
         style="fill:none;stroke:#000000;stroke-width:3;stroke-linecap:butt;stroke-linejoin:miter;stroke-opacity:1;display:inline"
         d="m 110.84568,207.62043 c -25.312268,3.5059 -31.244516,18.52002 -8.37402,37.98482"
         id="path5896"
         inkscape:connector-curvature="0"
         sodipodi:nodetypes="cc" />
    </g>
    <path
       style="fill:none;stroke:#000000;stroke-width:3;stroke-linecap:butt;stroke-linejoin:miter;stroke-opacity:1;display:inline"
       d="m 151.30469,168.179 c 22.83594,-2.41023 43.0576,-2.37732 70.3125,0"
       id="path12540"
       inkscape:connector-curvature="0"
       sodipodi:nodetypes="cc" />
    <path
       style="fill:none;stroke:#000000;stroke-width:3;stroke-linecap:butt;stroke-linejoin:miter;stroke-opacity:1;display:inline"
       d="m 155.99219,201.77275 c 23.46089,-2.36714 38.41406,-1.75083 61.30036,0.3236"
       id="path12542"
       inkscape:connector-curvature="0"
       sodipodi:nodetypes="cc" />
  </g>
  <g
     inkscape:groupmode="layer"
     id="layer6"
     inkscape:label="机"
     sodipodi:insensitive="true">
    <g
       style="display:inline"
       id="g4836">
      <path
         style="fill:#d38d5f;fill-opacity:1;stroke:none;display:inline"
         d="m 3.1665617,271.54203 360.1206083,0 0,44.91968 -360.1206083,0 z"
         id="path5762"
         inkscape:connector-curvature="0"
         sodipodi:nodetypes="ccccc" />
      <path
         inkscape:connector-curvature="0"
         style="fill:none;stroke:#000000;stroke-width:3;display:inline"
         d="m 363.59412,271.54201 -360.1205883,0"
         id="path5764"
         sodipodi:nodetypes="cc" />
    </g>
  </g>
  <g
     inkscape:groupmode="layer"
     id="layer4"
     inkscape:label="吹き出し"
     style="display:inline"
     sodipodi:insensitive="true">
    <text
       xml:space="preserve"
       style="font-size:64px;font-style:normal;font-weight:normal;line-height:125%;letter-spacing:0px;word-spacing:0px;writing-mode:tb-rl;fill:#000000;fill-opacity:1;stroke:none;display:inline;font-family:Sans"
       x="-258.47012"
       y="-103.09411"
       id="text12294"
       sodipodi:linespacing="125%"><tspan
         sodipodi:role="line"
         id="tspan12296"
         x="-103.09411"
         y="-258.47012" /></text>
    <g
       id="g4800">
      <path
         sodipodi:nodetypes="sssscsssssss"
         inkscape:connector-curvature="0"
         id="rect7294"
         d="m 357.11768,46.715668 0,25.43821 c 0,12.380255 -9.96679,22.347032 -22.34706,22.347032 l -15.05518,0 c -8.72869,0 -27.92321,13.54817 -27.92321,13.54817 0,0 13.77362,-13.54817 3.57835,-13.54817 l -97.53867,0 c -12.38025,0 -22.34703,-9.966777 -22.34703,-22.347032 l 0,-25.43821 c 0,-12.380254 9.96678,-22.347023 22.34703,-22.347023 l 136.93871,0 c 12.38027,0 22.34706,9.966769 22.34706,22.347023 z"
         style="fill:#fefefe;fill-opacity:1;stroke:#000000;stroke-width:3;stroke-linecap:round;stroke-miterlimit:4;stroke-opacity:1;stroke-dashoffset:0;display:inline" />
      <text
         sodipodi:linespacing="125%"
         id="text12290-1"
         y="52.3116"
         x="192.22665"
         style="font-size:56.71105957px;font-style:normal;font-weight:normal;line-height:125%;letter-spacing:0px;word-spacing:0px;writing-mode:lr-tb;fill:#000000;fill-opacity:1;stroke:none;display:inline;font-family:Sans"
         xml:space="preserve"><tspan
           id="tspan12319"
           style="font-size:24.81108665px"
           y="52.3116"
           x="192.22665"
           sodipodi:role="line">問題</tspan><tspan
           id="tspan12538"
           style="font-size:24.81108665px"
           y="83.325455"
           x="192.22665"
           sodipodi:role="line">ないですかね</tspan></text>
    </g>
    <g
       id="g4806">
      <path
         sodipodi:nodetypes="sssscsssssss"
         inkscape:connector-curvature="0"
         id="rect7294-7"
         d="m 14.646792,60.867676 0,15.881629 c 0,11.435333 9.20606,20.641395 20.641394,20.641395 l 15.985713,0 c 8.062469,0 21.644289,15.57716 21.644289,15.57716 0,0 -8.574676,-15.57716 0.842461,-15.57716 l 67.855391,0 c 11.43533,0 20.64139,-9.206062 20.64139,-20.641395 l 0,-15.881629 c 0,-11.435334 -9.20606,-20.64139 -20.64139,-20.64139 l -106.327854,0 c -11.435334,0 -20.641394,9.206056 -20.641394,20.64139 z"
         style="fill:#fefefe;fill-opacity:1;stroke:#000000;stroke-width:3;stroke-linecap:round;stroke-miterlimit:4;stroke-opacity:1;stroke-dashoffset:0;display:inline" />
      <text
         sodipodi:linespacing="125%"
         id="text12290"
         y="77.957367"
         x="25.949997"
         style="font-size:56.71105957px;font-style:normal;font-weight:normal;line-height:125%;letter-spacing:0px;word-spacing:0px;writing-mode:lr-tb;fill:#000000;fill-opacity:1;stroke:none;display:inline;font-family:Sans"
         xml:space="preserve"><tspan
           style="font-size:24.81108665px"
           y="77.957367"
           x="25.949997"
           id="tspan12292"
           sodipodi:role="line">おのおの方</tspan></text>
    </g>
  </g>
  <g
     inkscape:groupmode="layer"
     id="layer2"
     inkscape:label="レイヤー"
     sodipodi:insensitive="true"
     style="display:inline">
    <path
       style="fill:#ffffff;stroke:none;display:inline"
       d="m 0,0 0,320 370,0 0,-320 -10,10 0,300 -350,0 0,-300 350,0 10,-10 z"
       id="path21072"
       inkscape:connector-curvature="0"
       sodipodi:nodetypes="ccccccccccc" />
  </g>
</svg>
