<?xml version="1.0" encoding="UTF-8" standalone="no"?>
<!-- Created with Inkscape (http://www.inkscape.org/) -->

<svg
   xmlns:dc="http://purl.org/dc/elements/1.1/"
   xmlns:cc="http://creativecommons.org/ns#"
   xmlns:rdf="http://www.w3.org/1999/02/22-rdf-syntax-ns#"
   xmlns:svg="http://www.w3.org/2000/svg"
   xmlns="http://www.w3.org/2000/svg"
   xmlns:sodipodi="http://sodipodi.sourceforge.net/DTD/sodipodi-0.dtd"
   xmlns:inkscape="http://www.inkscape.org/namespaces/inkscape"
   width="370"
   height="320"
   id="svg3172"
   version="1.1"
   inkscape:version="0.48.4 r9939"
   sodipodi:docname="[28.限界].svg"
   inkscape:export-filename="C:\Users\執安\Desktop\資料\臨時\svg\[28.限界].png"
   inkscape:export-xdpi="90"
   inkscape:export-ydpi="90">
  <defs
     id="defs3174" />
  <sodipodi:namedview
     id="base"
     pagecolor="#ffffff"
     bordercolor="#666666"
     borderopacity="1.0"
     inkscape:pageopacity="0.0"
     inkscape:pageshadow="2"
     inkscape:zoom="1.6086128"
     inkscape:cx="166.23921"
     inkscape:cy="162.60732"
     inkscape:document-units="px"
     inkscape:current-layer="layer4"
     showgrid="false"
     inkscape:window-width="1098"
     inkscape:window-height="698"
     inkscape:window-x="-5"
     inkscape:window-y="-5"
     inkscape:window-maximized="0" />
  <metadata
     id="metadata3177">
    <rdf:RDF>
      <cc:Work
         rdf:about="">
        <dc:format>image/svg+xml</dc:format>
        <dc:type
           rdf:resource="http://purl.org/dc/dcmitype/StillImage" />
        <dc:title></dc:title>
      </cc:Work>
    </rdf:RDF>
  </metadata>
  <g
     inkscape:label="補助線"
     inkscape:groupmode="layer"
     id="layer1"
     transform="translate(0,-732.36218)"
     sodipodi:insensitive="true"
     style="display:none">
    <path
       style="fill:none;stroke:#0000ff;stroke-width:1px;stroke-linecap:butt;stroke-linejoin:miter;stroke-opacity:1;display:inline"
       d="M 10,1042.3622 360,742.36211"
       id="path3025"
       inkscape:connector-curvature="0"
       sodipodi:nodetypes="cc" />
    <path
       style="fill:none;stroke:#0000ff;stroke-width:1px;stroke-linecap:butt;stroke-linejoin:miter;stroke-opacity:1;display:inline"
       d="M 10,742.36211 360,1042.3622"
       id="path3027"
       inkscape:connector-curvature="0"
       sodipodi:nodetypes="cc" />
    <path
       style="fill:none;stroke:#ff0000;stroke-width:1px;stroke-linecap:butt;stroke-linejoin:miter;stroke-opacity:1;display:inline"
       d="m 10,732.36211 0,320.00009"
       id="path3006"
       inkscape:connector-curvature="0"
       sodipodi:nodetypes="cc" />
    <path
       style="fill:none;stroke:#ff0000;stroke-width:1px;stroke-linecap:butt;stroke-linejoin:miter;stroke-opacity:1;display:inline"
       d="m 360,732.36211 0,320.00009"
       id="path3010"
       inkscape:connector-curvature="0"
       sodipodi:nodetypes="cc" />
    <path
       style="fill:none;stroke:#ff0000;stroke-width:1px;stroke-linecap:butt;stroke-linejoin:miter;stroke-opacity:1;display:inline"
       d="m 0,742.36208 370,3e-5"
       id="path3016"
       inkscape:connector-curvature="0" />
    <path
       style="fill:none;stroke:#ff0000;stroke-width:1px;stroke-linecap:butt;stroke-linejoin:miter;stroke-opacity:1;display:inline"
       d="m 0,1042.3622 370,0"
       id="path3018"
       inkscape:connector-curvature="0"
       sodipodi:nodetypes="cc" />
  </g>
  <g
     inkscape:groupmode="layer"
     id="layer3"
     inkscape:label="豚"
     sodipodi:insensitive="true">
    <path
       sodipodi:type="arc"
       style="fill:#000000;fill-opacity:1;stroke:none;display:inline"
       id="path4191"
       sodipodi:cx="59.649704"
       sodipodi:cy="293.39154"
       sodipodi:rx="38.596867"
       sodipodi:ry="9.0644159"
       d="m 98.246571,293.39154 a 38.596867,9.0644159 0 1 1 -77.193734,0 38.596867,9.0644159 0 1 1 77.193734,0 z"
       transform="matrix(0.93939394,0,0,0.77419355,3.1607075,63.886436)" />
    <path
       sodipodi:type="arc"
       style="fill:#000000;fill-opacity:1;stroke:none;display:inline"
       id="path4191-1"
       sodipodi:cx="59.649704"
       sodipodi:cy="293.39154"
       sodipodi:rx="38.596867"
       sodipodi:ry="9.0644159"
       d="m 98.246571,293.39154 a 38.596867,9.0644159 0 1 1 -77.193734,0 38.596867,9.0644159 0 1 1 77.193734,0 z"
       transform="matrix(1.1515152,0,0,1.0645161,78.812697,-15.44373)" />
    <path
       sodipodi:type="arc"
       style="fill:#000000;fill-opacity:1;stroke:none;display:inline"
       id="path4191-7"
       sodipodi:cx="59.649704"
       sodipodi:cy="293.39154"
       sodipodi:rx="38.596867"
       sodipodi:ry="9.0644159"
       d="m 98.246571,293.39154 a 38.596867,9.0644159 0 1 1 -77.193734,0 38.596867,9.0644159 0 1 1 77.193734,0 z"
       transform="matrix(0.87121212,0,0,0.74193549,194.07167,59.315467)" />
    <path
       sodipodi:type="arc"
       style="fill:#000000;fill-opacity:1;stroke:none;display:inline"
       id="path4191-4"
       sodipodi:cx="59.649704"
       sodipodi:cy="293.39154"
       sodipodi:rx="38.596867"
       sodipodi:ry="9.0644159"
       d="m 98.246571,293.39154 a 38.596867,9.0644159 0 1 1 -77.193734,0 38.596867,9.0644159 0 1 1 77.193734,0 z"
       transform="matrix(1.0909091,0,0,0.93548387,236.8153,23.582845)" />
    <g
       transform="translate(-0.05404251,-789.12697)"
       style="stroke-width:3;display:inline"
       id="g5672">
      <path
         style="fill:#fffff8;fill-opacity:1;stroke:#000000;stroke-width:3;stroke-linecap:butt;stroke-linejoin:miter;stroke-opacity:1;display:inline"
         d="m 247.70605,954.7863 c 20.90473,1.74261 35.82313,17.18179 36.3373,43.29741 3.31087,9.66659 -1.05986,29.14329 3.09512,34.57429 -18.61791,18.2496 -47.66923,21.9643 -69.06908,8.2391 -8.82129,-5.6577 -19.42243,-24.4735 -8.16757,-50.16177 2.15475,-28.30241 24.69716,-37.04163 37.80423,-35.94903 z"
         id="path5674"
         inkscape:connector-curvature="0"
         sodipodi:nodetypes="sccscs" />
      <path
         style="fill:#aa0000;stroke:#000000;stroke-width:3;stroke-linecap:butt;stroke-linejoin:miter;stroke-opacity:1;display:inline"
         d="m 248.15362,986.9507 c -6.93179,0.77415 -5.19006,-3.76439 -14.24067,-5.07728 -5.47815,-0.79465 -5.27791,3.12686 -8.6326,2.1055 1.65014,5.84292 5.27501,7.91927 9.04749,8.71106 6.83163,1.43386 9.14651,-2.76306 13.82578,-5.73928 z"
         id="path5676"
         inkscape:connector-curvature="0"
         sodipodi:nodetypes="cscsc" />
      <path
         style="fill:none;stroke:#000000;stroke-width:3;stroke-linecap:butt;stroke-linejoin:miter;stroke-opacity:1;display:inline"
         d="m 229.64839,972.34726 2.17064,7.63089"
         id="path5678"
         inkscape:connector-curvature="0"
         sodipodi:nodetypes="cc" />
      <path
         style="fill:none;stroke:#000000;stroke-width:3;stroke-linecap:butt;stroke-linejoin:miter;stroke-opacity:1;display:inline"
         d="m 243.19411,973.45135 -3.62852,7.35206"
         id="path5680"
         inkscape:connector-curvature="0"
         sodipodi:nodetypes="cc" />
      <path
         style="fill:none;stroke:#000000;stroke-width:3;stroke-linecap:butt;stroke-linejoin:miter;stroke-opacity:1;display:inline"
         d="m 252.51823,997.05166 c -13.74999,-4.8561 -20.51908,3.64244 -3.23501,22.34974"
         id="path5682"
         inkscape:connector-curvature="0"
         sodipodi:nodetypes="cc" />
      <path
         style="fill:none;stroke:#000000;stroke-width:3;stroke-linecap:butt;stroke-linejoin:miter;stroke-opacity:1;display:inline"
         d="m 219.56612,992.25342 c 11.6233,2.08767 10.92162,8.09958 0.95439,21.77738"
         id="path5684"
         inkscape:connector-curvature="0"
         sodipodi:nodetypes="cc" />
    </g>
    <g
       transform="translate(1.7647775,-789.12697)"
       style="stroke-width:3;display:inline"
       id="g5686">
      <path
         style="fill:#fffff8;fill-opacity:1;stroke:#000000;stroke-width:3;stroke-linecap:butt;stroke-linejoin:miter;stroke-opacity:1;display:inline"
         d="m 53.250669,967.20548 c -23.452612,1.955 -40.189274,19.27592 -40.766109,48.57452 -3.7144029,10.8447 -3.7264613,35.8233 5.464914,44.1505 18.652756,16.899 53.926045,19.7258 73.912339,2.0935 8.816467,-7.778 16.427287,-25.6689 3.800673,-54.488 C 93.245114,975.78408 67.95524,965.97972 53.250669,967.20548 z"
         id="path5688"
         inkscape:connector-curvature="0"
         sodipodi:nodetypes="scsscs" />
      <path
         style="fill:#aa0000;stroke:#000000;stroke-width:3;stroke-linecap:butt;stroke-linejoin:miter;stroke-opacity:1;display:inline"
         d="m 53.299185,1007.5353 c 7.776646,0.8685 4.9289,-4.8935 15.082614,-6.3664 6.145831,-0.8915 5.697751,3.0611 10.355028,0.7981 -2.074695,4.0973 -6.092994,8.0414 -10.373628,8.6556 -4.983096,0.7149 -9.590992,-0.8655 -15.064014,-3.0873 z"
         id="path5690"
         inkscape:connector-curvature="0"
         sodipodi:nodetypes="cscsc" />
      <path
         style="fill:none;stroke:#000000;stroke-width:3;stroke-linecap:butt;stroke-linejoin:miter;stroke-opacity:1;display:inline"
         d="m 71.051446,987.57707 0.692864,10.57184"
         id="path5692"
         inkscape:connector-curvature="0"
         sodipodi:nodetypes="cc" />
      <path
         style="fill:none;stroke:#000000;stroke-width:3;stroke-linecap:butt;stroke-linejoin:miter;stroke-opacity:1;display:inline"
         d="m 59.429677,989.26259 1.613019,9.36529"
         id="path5694"
         inkscape:connector-curvature="0"
         sodipodi:nodetypes="cc" />
      <path
         style="fill:none;stroke:#000000;stroke-width:3;stroke-linecap:butt;stroke-linejoin:miter;stroke-opacity:1;display:inline"
         d="m 50.980016,1020.8783 c 15.425837,-5.448 26.594875,-0.8291 7.204206,20.1582"
         id="path5696"
         inkscape:connector-curvature="0"
         sodipodi:nodetypes="cc" />
      <path
         style="fill:none;stroke:#000000;stroke-width:3;stroke-linecap:butt;stroke-linejoin:miter;stroke-opacity:1;display:inline"
         d="m 80.798519,1017.9529 c -15.274277,-2.3499 -16.497946,9.3103 -0.400409,23.538"
         id="path5698"
         inkscape:connector-curvature="0"
         sodipodi:nodetypes="cc" />
    </g>
    <g
       transform="translate(1.3100775,-789.12697)"
       style="stroke-width:3;display:inline"
       id="g5816">
      <path
         style="fill:#fffff8;fill-opacity:1;stroke:none"
         d="m 193.68148,971.59763 7.76718,2.29032 -8.06591,10.65497 z"
         id="path5818"
         inkscape:connector-curvature="0" />
      <path
         style="fill:#fffff8;fill-opacity:1;stroke:#000000;stroke-width:3;stroke-linecap:butt;stroke-linejoin:miter;stroke-opacity:1;display:inline"
         d="m 194.0659,974.92797 c -3.22079,-30.77469 -28.27767,-46.57907 -52.03464,-45.73686 -31.21948,1.10676 -54.709687,26.71947 -54.140619,63.98463 -7.9521,10.99216 -5.075411,24.63316 -17.22996,29.18706 15.621645,2.7102 19.817446,34.8553 65.986149,38.3126 41.56441,3.1125 63.5896,-17.1838 62.59086,-53.7507"
         id="path5820"
         inkscape:connector-curvature="0"
         sodipodi:nodetypes="csccsc" />
      <path
         style="fill:#fffff8;fill-opacity:1;stroke:#000000;stroke-width:3;stroke-linecap:butt;stroke-linejoin:miter;stroke-opacity:1;display:inline"
         d="m 199.49346,976.35297 c -12.95864,-2.02824 -11.98481,14.54893 -2.65245,28.80253 7.28889,11.1326 16.4386,-9.34113 13.28606,-21.5711 -2.02375,-7.85095 -10.95098,-12.2406 -16.63392,-11.56285"
         id="path5822"
         inkscape:connector-curvature="0"
         sodipodi:nodetypes="cssc" />
      <path
         style="fill:#aa0000;stroke:#000000;stroke-width:3;stroke-linecap:butt;stroke-linejoin:miter;stroke-opacity:1;display:inline"
         d="m 178.67684,965.06507 c -5.3442,4.62831 -4.40228,-0.93211 -10.07631,0.15054 -11.2237,2.14158 -7.71607,12.89023 -20.03632,9.90074 7.45152,3.48656 11.39182,13.86415 23.60328,7.64526 8.92835,-4.54691 4.42825,-12.85148 6.50935,-17.69654 z"
         id="path5824"
         inkscape:connector-curvature="0"
         sodipodi:nodetypes="cscsc" />
      <path
         style="fill:none;stroke:#000000;stroke-width:3;stroke-linecap:butt;stroke-linejoin:miter;stroke-opacity:1;display:inline"
         d="m 151.59934,957.04465 8.45418,7.20842"
         id="path5826"
         inkscape:connector-curvature="0"
         sodipodi:nodetypes="cc" />
      <path
         style="fill:none;stroke:#000000;stroke-width:3;stroke-linecap:butt;stroke-linejoin:miter;stroke-opacity:1;display:inline"
         d="m 170.54158,953.6846 -0.0737,8.26353"
         id="path5828"
         inkscape:connector-curvature="0"
         sodipodi:nodetypes="cc" />
      <path
         style="fill:#fffff8;fill-opacity:1;stroke:#000000;stroke-width:3;stroke-linecap:butt;stroke-linejoin:miter;stroke-opacity:1;display:inline"
         d="m 160.83806,993.75918 c 39.80333,-24.64813 33.7421,9.73732 26.12091,24.72192"
         id="path5830"
         inkscape:connector-curvature="0"
         sodipodi:nodetypes="cc" />
    </g>
    <g
       transform="translate(-0.50875251,-789.12697)"
       style="stroke-width:3;display:inline"
       id="g5832">
      <path
         style="fill:#fffff8;fill-opacity:1;stroke:#000000;stroke-width:3;stroke-linecap:butt;stroke-linejoin:miter;stroke-opacity:1;display:inline"
         d="m 256.37764,1000.9178 c -0.48147,-22.26898 23.73096,-41.64344 45.60221,-40.00754 21.52304,1.60985 44.32744,15.60685 47.56065,48.19584 5.38726,7.8111 0.60704,23.2698 8.98656,29.7946 -4.33159,11.2743 -16.60121,41.8063 -58.06991,41.7536 -37.09484,-0.047 -59.77308,-30.2817 -51.01854,-68.583 -3.09989,-29.85057 3.90601,-41.5865 12.12666,-29.80134"
         id="path5834"
         inkscape:connector-curvature="0"
         sodipodi:nodetypes="csccscc" />
      <path
         style="fill:#aa0000;stroke:#000000;stroke-width:3;stroke-linecap:butt;stroke-linejoin:miter;stroke-opacity:1;display:inline"
         d="m 268.8953,988.67906 c 0.70434,3.76174 1.62937,3.27331 3.05619,3.44368 1.40497,0.16776 4.30535,-3.45232 8.32849,-3.19079 6.37503,0.41443 7.53495,4.96298 10.48231,5.68136 1.521,0.37072 3.61142,0.2097 8.33887,-2.74293 -5.8592,7.37832 -8.46997,13.97272 -18.71566,13.62912 -9.52898,-0.3196 -11.82244,-9.36518 -11.4902,-16.82044 z"
         id="path5836"
         inkscape:connector-curvature="0"
         sodipodi:nodetypes="cssscsc" />
      <path
         style="fill:none;stroke:#000000;stroke-width:3;stroke-linecap:butt;stroke-linejoin:miter;stroke-opacity:1;display:inline"
         d="m 293.81004,980.47556 -6.8412,7.77213"
         id="path5838"
         inkscape:connector-curvature="0"
         sodipodi:nodetypes="cc" />
      <path
         style="fill:none;stroke:#000000;stroke-width:3;stroke-linecap:butt;stroke-linejoin:miter;stroke-opacity:1;display:inline"
         d="m 276.9339,978.13997 0.98341,9.47881"
         id="path5840"
         inkscape:connector-curvature="0"
         sodipodi:nodetypes="cc" />
      <path
         style="fill:none;stroke:#000000;stroke-width:3;stroke-linecap:butt;stroke-linejoin:miter;stroke-opacity:1;display:inline"
         d="m 317.10654,994.97639 c -15.47199,-10.2664 -25.72815,-7.13014 -10.72807,24.92041"
         id="path5842"
         inkscape:connector-curvature="0"
         sodipodi:nodetypes="cc" />
    </g>
    <path
       style="fill:#ffd42a;stroke:none;display:inline"
       d="m -193.92855,113.52858 c 15.89255,15.54272 16.17632,41.02621 0.63415,56.91664 -8.39796,8.58613 -28.09022,2.94796 -43.98276,-12.59476 -15.89255,-15.54271 -21.96719,-35.10426 -13.56924,-43.69039 15.54211,-15.890484 41.02531,-16.174194 56.91785,-0.63149 z"
       id="path9838-7-9-5"
       inkscape:connector-curvature="0" />
    <path
       style="fill:#c83737;stroke:none;display:inline"
       d="m -237.30343,157.8584 c -15.89255,-15.54271 -21.96698,-35.10405 -13.57159,-43.68905 8.39672,-8.58633 28.08859,-2.94856 43.98113,12.59415 15.89255,15.54272 21.96759,35.10466 13.57087,43.691 -8.3954,8.585 -28.08787,2.94662 -43.98041,-12.5961 z"
       id="path9838-7-3-9"
       inkscape:connector-curvature="0"
       sodipodi:nodetypes="sssss" />
    <path
       style="fill:none;stroke:#000000;stroke-width:0.1;stroke-linecap:round;stroke-miterlimit:4;stroke-opacity:1;stroke-dashoffset:0;display:inline"
       d="m -250.8696,114.17308 c 8.39885,-8.58789 28.09093,-2.94991 43.98347,12.5928 15.89255,15.54272 21.96738,35.10445 13.56853,43.69234"
       id="path9838-3-8"
       inkscape:connector-curvature="0"
       sodipodi:nodetypes="csc" />
    <path
       style="fill:none;stroke:#000000;stroke-width:0.1;stroke-linecap:round;stroke-miterlimit:4;stroke-opacity:1;stroke-dashoffset:0;display:inline"
       d="m -193.94706,113.5389 c 15.89255,15.54272 16.17632,41.02621 0.63415,56.91664 -8.39796,8.58613 -28.09022,2.94796 -43.98276,-12.59476 -15.89255,-15.54271 -21.96719,-35.10426 -13.56924,-43.69039 15.54211,-15.890484 41.02531,-16.174194 56.91785,-0.63149 z"
       id="path9838-7-4"
       inkscape:connector-curvature="0" />
    <path
       style="fill:#ffffff;fill-opacity:1;stroke:#000000;stroke-width:0.1;display:inline"
       d="m -270.5595,130.14107 44.5489,-2.82052 0,94.33026 -44.5489,2.82052 z"
       id="rect10018-0"
       inkscape:connector-curvature="0"
       sodipodi:nodetypes="ccccc" />
    <path
       style="fill:#ffcc00;stroke:#000000;stroke-width:0.1;stroke-linecap:round;stroke-miterlimit:4;stroke-opacity:1;stroke-dashoffset:0;display:inline"
       d="m -307.78863,113.53158 c -15.89254,15.54272 -16.17631,41.02621 -0.63415,56.91664 8.39797,8.58613 28.09022,2.94796 43.98276,-12.59476 15.89255,-15.54271 21.96719,-35.10426 13.56924,-43.69039 -15.54211,-15.890484 -41.02531,-16.174194 -56.91785,-0.63149 z"
       id="path9838-7-2-7"
       inkscape:connector-curvature="0"
       sodipodi:nodetypes="sssss" />
    <path
       style="fill:none;stroke:#000000;stroke-width:3;stroke-linecap:butt;stroke-linejoin:miter;stroke-opacity:1;display:inline"
       d="m 186.61566,145.66368 0,50.55373"
       id="path10254"
       inkscape:connector-curvature="0"
       sodipodi:nodetypes="cc" />
  </g>
  <g
     inkscape:groupmode="layer"
     id="layer4"
     inkscape:label="くす玉"
     style="display:inline"
     sodipodi:insensitive="true">
    <g
       id="g5880">
      <path
         inkscape:connector-curvature="0"
         id="path9838-7-9-5-6"
         d="m 240.77126,23.496618 c 15.89255,15.54272 16.17632,41.02621 0.63415,56.91664 -8.39796,8.58613 -28.09022,2.94796 -43.98276,-12.59476 -15.89255,-15.54271 -21.96719,-35.10426 -13.56924,-43.69039 15.54211,-15.8904908 41.02531,-16.1742008 56.91785,-0.63149 z"
         style="fill:#ffd42a;stroke:none;display:inline" />
      <path
         sodipodi:nodetypes="sssss"
         inkscape:connector-curvature="0"
         id="path9838-7-3-9-3"
         d="m 197.39638,67.826438 c -15.89255,-15.54271 -21.96698,-35.10405 -13.57159,-43.68905 8.39672,-8.58634 28.08859,-2.94856 43.98113,12.59415 15.89255,15.54272 21.96759,35.10466 13.57087,43.691 -8.3954,8.585 -28.08787,2.94662 -43.98041,-12.5961 z"
         style="fill:#c83737;stroke:none;display:inline" />
      <path
         sodipodi:nodetypes="csc"
         inkscape:connector-curvature="0"
         id="path9838-3-8-6"
         d="m 183.83021,24.141118 c 8.39885,-8.5879 28.09093,-2.94991 43.98347,12.5928 15.89255,15.54272 21.96738,35.10445 13.56853,43.69234"
         style="fill:none;stroke:#000000;stroke-width:3;stroke-linecap:round;stroke-miterlimit:4;stroke-opacity:1;stroke-dashoffset:0;display:inline" />
      <path
         inkscape:connector-curvature="0"
         id="path9838-7-4-1"
         d="m 240.75275,23.506938 c 15.89255,15.54272 16.17632,41.02621 0.63415,56.91664 -8.39796,8.58613 -28.09022,2.94796 -43.98276,-12.59476 -15.89255,-15.54271 -21.96719,-35.10426 -13.56924,-43.69039 15.54211,-15.8904908 41.02531,-16.1742008 56.91785,-0.63149 z"
         style="fill:none;stroke:#000000;stroke-width:3;stroke-linecap:round;stroke-miterlimit:4;stroke-opacity:1;stroke-dashoffset:0;display:inline" />
      <path
         sodipodi:nodetypes="ccccc"
         inkscape:connector-curvature="0"
         id="rect10018-0-5"
         d="m 161.08765,39.82741 51.02129,-3.230305 c 1.24787,35.179828 1.32387,71.140905 0,108.035225 l -51.02129,3.2303 c 1.29662,-35.57953 1.27555,-71.598294 0,-108.03522 z"
         style="fill:#fefefe;fill-opacity:1;stroke:#000000;stroke-width:3;display:inline" />
      <path
         sodipodi:nodetypes="sssss"
         inkscape:connector-curvature="0"
         id="path9838-7-2-7-4"
         d="m 126.91118,23.499618 c -15.89254,15.54272 -16.17631,41.02621 -0.63415,56.91664 8.39797,8.58613 28.09022,2.94796 43.98276,-12.59476 15.89255,-15.54271 21.96719,-35.10426 13.56924,-43.69039 C 168.28692,8.2406172 142.80372,7.9569072 126.91118,23.499618 z"
         style="fill:#ffcc00;stroke:#000000;stroke-width:3;stroke-linecap:round;stroke-miterlimit:4;stroke-opacity:1;stroke-dashoffset:0;display:inline" />
      <text
         transform="matrix(0.89964035,-0.13615023,0,1.1115553,0,0)"
         sodipodi:linespacing="125%"
         id="text10256"
         y="87.199104"
         x="207.81979"
         style="font-size:48.2098999px;font-style:normal;font-weight:normal;line-height:125%;letter-spacing:0px;word-spacing:0px;writing-mode:tb-rl;fill:#000000;fill-opacity:1;stroke:none;display:inline;font-family:Sans"
         xml:space="preserve"><tspan
           style="font-style:normal;font-variant:normal;font-weight:normal;font-stretch:normal;font-family:HGPHeiseiKakugothictaiW9;-inkscape-font-specification:HGPHeiseiKakugothictaiW9"
           y="207.81979"
           x="87.199104"
           id="tspan10258"
           sodipodi:role="line">祝</tspan></text>
    </g>
  </g>
  <g
     inkscape:groupmode="layer"
     id="layer7"
     inkscape:label="紙吹雪"
     style="display:inline"
     sodipodi:insensitive="true">
    <path
       style="fill:#ff80b2;stroke:#000000;stroke-width:2;stroke-linecap:butt;stroke-linejoin:miter;stroke-opacity:1;display:inline"
       d="m 86.501837,118.62505 0.98743,6.46677 6.84346,-4.54234 -1.14819,-6.22798 z"
       id="path10260"
       inkscape:connector-curvature="0"
       sodipodi:nodetypes="ccccc" />
    <path
       style="fill:#ff80b2;stroke:#000000;stroke-width:2;stroke-linecap:butt;stroke-linejoin:miter;stroke-opacity:1;display:inline"
       d="m 321.33038,152.6339 0.98743,6.46677 6.84346,-4.54234 -1.1482,-6.22798 z"
       id="path10260-2"
       inkscape:connector-curvature="0"
       sodipodi:nodetypes="ccccc" />
    <path
       style="fill:#ff80b2;stroke:#000000;stroke-width:2;stroke-linecap:butt;stroke-linejoin:miter;stroke-opacity:1;display:inline"
       d="m 252.66963,116.25734 0.98743,6.46677 6.84345,-4.54234 -1.14819,-6.22798 z"
       id="path10260-0"
       inkscape:connector-curvature="0"
       sodipodi:nodetypes="ccccc" />
    <path
       style="fill:#ff80b2;stroke:#000000;stroke-width:2;stroke-linecap:butt;stroke-linejoin:miter;stroke-opacity:1;display:inline"
       d="m 237.2096,153.54331 0.98743,6.46677 6.84346,-4.54234 -1.1482,-6.22798 z"
       id="path10260-9"
       inkscape:connector-curvature="0"
       sodipodi:nodetypes="ccccc" />
    <path
       style="fill:#ff80b2;stroke:#000000;stroke-width:2;stroke-linecap:butt;stroke-linejoin:miter;stroke-opacity:1;display:inline"
       d="m 151.7247,99.887897 0.98743,6.466773 6.84346,-4.54234 -1.1482,-6.227979 z"
       id="path10260-7"
       inkscape:connector-curvature="0"
       sodipodi:nodetypes="ccccc" />
    <path
       style="fill:#ffff00;stroke:#000000;stroke-width:2;stroke-linecap:butt;stroke-linejoin:miter;stroke-opacity:1;display:inline"
       d="m 238.6458,97.23104 0.98743,5.66295 5.71811,-3.577757 -1.14819,-5.263401 z"
       id="path10260-3"
       inkscape:connector-curvature="0"
       sodipodi:nodetypes="ccccc" />
    <path
       style="fill:#ffff00;stroke:#000000;stroke-width:2;stroke-linecap:butt;stroke-linejoin:miter;stroke-opacity:1;display:inline"
       d="m 172.65252,139.99404 0.98743,5.66295 5.71811,-3.57776 -1.14819,-5.2634 z"
       id="path10260-3-7"
       inkscape:connector-curvature="0"
       sodipodi:nodetypes="ccccc" />
    <path
       style="fill:#ffff00;stroke:#000000;stroke-width:2;stroke-linecap:butt;stroke-linejoin:miter;stroke-opacity:1;display:inline"
       d="m 88.441007,174.24132 0.98743,5.66295 5.71811,-3.57775 -1.14819,-5.2634 z"
       id="path10260-3-2"
       inkscape:connector-curvature="0"
       sodipodi:nodetypes="ccccc" />
    <path
       style="fill:#ffff00;stroke:#000000;stroke-width:2;stroke-linecap:butt;stroke-linejoin:miter;stroke-opacity:1;display:inline"
       d="m 304.79985,242.23942 0.98743,5.66295 5.71811,-3.57776 -1.14819,-5.2634 z"
       id="path10260-3-6"
       inkscape:connector-curvature="0"
       sodipodi:nodetypes="ccccc" />
    <path
       style="fill:#ffff00;stroke:#000000;stroke-width:2;stroke-linecap:butt;stroke-linejoin:miter;stroke-opacity:1;display:inline"
       d="m 210.48986,81.993572 0.98743,5.662948 5.71811,-3.577755 -1.14819,-5.263401 z"
       id="path10260-3-0"
       inkscape:connector-curvature="0"
       sodipodi:nodetypes="ccccc" />
    <path
       style="fill:#80b3ff;stroke:#000000;stroke-width:2;stroke-linecap:butt;stroke-linejoin:miter;stroke-opacity:1;display:inline"
       d="m 138.57073,118.13025 0.98743,5.66295 5.71811,-3.57775 -1.14819,-5.2634 z"
       id="path10260-3-1"
       inkscape:connector-curvature="0"
       sodipodi:nodetypes="ccccc" />
    <path
       style="fill:#80b3ff;stroke:#000000;stroke-width:2;stroke-linecap:butt;stroke-linejoin:miter;stroke-opacity:1;display:inline"
       d="m 219.27384,112.66429 0.98743,5.66295 5.71811,-3.57775 -1.14819,-5.26339 z"
       id="path10260-3-1-6"
       inkscape:connector-curvature="0"
       sodipodi:nodetypes="ccccc" />
    <path
       style="fill:#80b3ff;stroke:#000000;stroke-width:2;stroke-linecap:butt;stroke-linejoin:miter;stroke-opacity:1;display:inline"
       d="m 202.23295,49.323612 0.98743,5.66295 5.71811,-3.57775 -1.14819,-5.2634 z"
       id="path10260-3-1-5"
       inkscape:connector-curvature="0"
       sodipodi:nodetypes="ccccc" />
    <path
       style="fill:#80b3ff;stroke:#000000;stroke-width:2;stroke-linecap:butt;stroke-linejoin:miter;stroke-opacity:1;display:inline"
       d="m 210.2711,247.70535 0.98743,5.66295 5.71811,-3.57775 -1.14819,-5.2634 z"
       id="path10260-3-1-7"
       inkscape:connector-curvature="0"
       sodipodi:nodetypes="ccccc" />
    <path
       style="fill:#80b3ff;stroke:#000000;stroke-width:2;stroke-linecap:butt;stroke-linejoin:miter;stroke-opacity:1;display:inline"
       d="m 143.65215,280.70278 0.98743,5.66295 5.71811,-3.57775 -1.14819,-5.2634 z"
       id="path10260-3-1-54"
       inkscape:connector-curvature="0"
       sodipodi:nodetypes="ccccc" />
  </g>
  <g
     inkscape:groupmode="layer"
     id="layer2"
     inkscape:label="レイヤー"
     sodipodi:insensitive="true">
    <path
       style="fill:#ffffff;stroke:none;display:inline"
       d="m 0,0 0,320 370,0 0,-320 -10,10 0,300 -350,0 0,-300 350,0 10,-10 z"
       id="path21072"
       inkscape:connector-curvature="0"
       sodipodi:nodetypes="ccccccccccc" />
  </g>
</svg>
