<?xml version="1.0" encoding="UTF-8" standalone="no"?>
<!-- Created with Inkscape (http://www.inkscape.org/) -->

<svg
   xmlns:dc="http://purl.org/dc/elements/1.1/"
   xmlns:cc="http://creativecommons.org/ns#"
   xmlns:rdf="http://www.w3.org/1999/02/22-rdf-syntax-ns#"
   xmlns:svg="http://www.w3.org/2000/svg"
   xmlns="http://www.w3.org/2000/svg"
   xmlns:sodipodi="http://sodipodi.sourceforge.net/DTD/sodipodi-0.dtd"
   xmlns:inkscape="http://www.inkscape.org/namespaces/inkscape"
   width="370"
   height="320"
   id="svg3172"
   version="1.1"
   inkscape:version="0.48.4 r9939"
   sodipodi:docname="[30.歓喜].svg"
   inkscape:export-filename="C:\Users\執安\Desktop\資料\臨時\svg\[30.歓喜].png"
   inkscape:export-xdpi="90"
   inkscape:export-ydpi="90">
  <defs
     id="defs3174" />
  <sodipodi:namedview
     id="base"
     pagecolor="#ffffff"
     bordercolor="#666666"
     borderopacity="1.0"
     inkscape:pageopacity="0.0"
     inkscape:pageshadow="2"
     inkscape:zoom="0.80430638"
     inkscape:cx="91.073122"
     inkscape:cy="255.06715"
     inkscape:document-units="px"
     inkscape:current-layer="layer4"
     showgrid="false"
     inkscape:window-width="1098"
     inkscape:window-height="698"
     inkscape:window-x="-5"
     inkscape:window-y="-5"
     inkscape:window-maximized="0" />
  <metadata
     id="metadata3177">
    <rdf:RDF>
      <cc:Work
         rdf:about="">
        <dc:format>image/svg+xml</dc:format>
        <dc:type
           rdf:resource="http://purl.org/dc/dcmitype/StillImage" />
        <dc:title></dc:title>
      </cc:Work>
    </rdf:RDF>
  </metadata>
  <g
     inkscape:label="補助線"
     inkscape:groupmode="layer"
     id="layer1"
     transform="translate(0,-732.36218)"
     sodipodi:insensitive="true"
     style="display:none">
    <path
       style="fill:none;stroke:#0000ff;stroke-width:1px;stroke-linecap:butt;stroke-linejoin:miter;stroke-opacity:1;display:inline"
       d="M 10,1042.3622 360,742.36211"
       id="path3025"
       inkscape:connector-curvature="0"
       sodipodi:nodetypes="cc" />
    <path
       style="fill:none;stroke:#0000ff;stroke-width:1px;stroke-linecap:butt;stroke-linejoin:miter;stroke-opacity:1;display:inline"
       d="M 10,742.36211 360,1042.3622"
       id="path3027"
       inkscape:connector-curvature="0"
       sodipodi:nodetypes="cc" />
    <path
       style="fill:none;stroke:#ff0000;stroke-width:1px;stroke-linecap:butt;stroke-linejoin:miter;stroke-opacity:1;display:inline"
       d="m 10,732.36211 0,320.00009"
       id="path3006"
       inkscape:connector-curvature="0"
       sodipodi:nodetypes="cc" />
    <path
       style="fill:none;stroke:#ff0000;stroke-width:1px;stroke-linecap:butt;stroke-linejoin:miter;stroke-opacity:1;display:inline"
       d="m 360,732.36211 0,320.00009"
       id="path3010"
       inkscape:connector-curvature="0"
       sodipodi:nodetypes="cc" />
    <path
       style="fill:none;stroke:#ff0000;stroke-width:1px;stroke-linecap:butt;stroke-linejoin:miter;stroke-opacity:1;display:inline"
       d="m 0,742.36208 370,3e-5"
       id="path3016"
       inkscape:connector-curvature="0" />
    <path
       style="fill:none;stroke:#ff0000;stroke-width:1px;stroke-linecap:butt;stroke-linejoin:miter;stroke-opacity:1;display:inline"
       d="m 0,1042.3622 370,0"
       id="path3018"
       inkscape:connector-curvature="0"
       sodipodi:nodetypes="cc" />
  </g>
  <g
     inkscape:groupmode="layer"
     id="layer3"
     inkscape:label="豚"
     sodipodi:insensitive="true">
    <path
       sodipodi:type="arc"
       style="fill:#000000;fill-opacity:1;stroke:none;display:inline"
       id="path7872"
       sodipodi:cx="-4.025053"
       sodipodi:cy="522.59436"
       sodipodi:rx="110.46214"
       sodipodi:ry="19.38559"
       d="m 106.43709,522.59436 a 110.46214,19.38559 0 1 1 -220.92429,0 110.46214,19.38559 0 1 1 220.92429,0 z"
       transform="matrix(0.76959138,0,0,0.76319822,248.6251,-119.43491)" />
    <g
       id="g6238">
      <path
         style="fill:#fffff8;fill-opacity:1;stroke:#000000;stroke-width:3;stroke-linecap:butt;stroke-linejoin:miter;stroke-opacity:1;display:inline"
         d="m 151.41316,111.7333 c 2.53213,-52.922528 44.44086,-79.190164 83.90734,-78.244394 40.13089,0.961692 80.90396,33.031517 83.42766,83.441414 19.3948,27.23558 -0.0142,81.78676 37.73492,68.42277 -18.71989,2.1524 -51.99809,74.34617 -126.88284,66.90933 -86.33792,-8.57428 -97.27243,-68.19006 -87.15932,-105.70718 -9.51232,-47.719508 -7.86521,-53.646707 9.82772,-46.34498"
         id="path6586"
         inkscape:connector-curvature="0"
         sodipodi:nodetypes="csccscc" />
      <path
         style="fill:#aa0000;stroke:#000000;stroke-width:3;stroke-linecap:butt;stroke-linejoin:miter;stroke-opacity:1;display:inline"
         d="m 172.46079,116.24426 c 2.38704,0.44285 3.21883,0.83304 4.9906,-0.18565 3.69461,-2.12408 5.37815,-9.6541 16.2425,-8.17955 13.2046,1.79216 16.33682,11.00434 23.91465,12.67414 6.0192,1.32633 6.16814,0.0253 12.38787,0.3059 -13.76312,3.63042 -11.53868,20.97898 -34.86002,16.54921 -17.46473,-3.31734 -12.59061,-17.11321 -22.6756,-21.16405 z"
         id="path6588"
         inkscape:connector-curvature="0"
         sodipodi:nodetypes="cssscsc" />
      <path
         style="fill:none;stroke:#000000;stroke-width:3;stroke-linecap:butt;stroke-linejoin:miter;stroke-opacity:1;display:inline"
         d="m 189.13143,84.936098 -2.63904,19.462792"
         id="path6590"
         inkscape:connector-curvature="0"
         sodipodi:nodetypes="cc" />
      <path
         style="fill:none;stroke:#000000;stroke-width:3;stroke-linecap:butt;stroke-linejoin:miter;stroke-opacity:1;display:inline"
         d="m 210.59987,88.82876 -2.46257,19.88552"
         id="path6592"
         inkscape:connector-curvature="0"
         sodipodi:nodetypes="cc" />
      <path
         style="fill:none;stroke:#000000;stroke-width:3;stroke-linecap:butt;stroke-linejoin:miter;stroke-opacity:1;display:inline"
         d="m 251.60677,156.35454 c -1.35706,38.86997 8.03962,43.26666 40.66266,17.19129"
         id="path6594"
         inkscape:connector-curvature="0"
         sodipodi:nodetypes="cc" />
      <path
         style="fill:none;stroke:#000000;stroke-width:3;stroke-linecap:butt;stroke-linejoin:miter;stroke-opacity:1;display:inline"
         d="m 178.55492,80.478272 c 8.74509,-6.61572 6.24868,4.465284 12.87963,6.209633"
         id="path6596"
         inkscape:connector-curvature="0"
         sodipodi:nodetypes="cc" />
    </g>
  </g>
  <g
     inkscape:groupmode="layer"
     id="layer4"
     inkscape:label="吹き出し"
     sodipodi:insensitive="true">
    <g
       id="g6232">
      <path
         sodipodi:nodetypes="sssscsssssss"
         inkscape:connector-curvature="0"
         id="rect7294"
         d="m 35.141092,11.914631 58.80291,0 c 12.905088,0 23.294388,10.389296 23.294388,23.294386 l 0,80.360233 c 0,9.09872 19.923,18.6589 19.923,18.6589 0,0 -19.923,-3.90948 -19.923,6.71801 l 0,75.51119 c 0,12.90509 -10.3893,23.29439 -23.294388,23.29439 l -58.80291,0 c -12.90509,0 -23.29438,-10.3893 -23.29438,-23.29439 l 0,-181.248333 c 0,-12.90509 10.38929,-23.294386 23.29438,-23.294386 z"
         style="fill:#fefefe;fill-opacity:1;stroke:#000000;stroke-width:3;stroke-linecap:round;stroke-miterlimit:4;stroke-opacity:1;stroke-dashoffset:0;display:inline" />
      <text
         sodipodi:linespacing="125%"
         id="text7804"
         y="25.232317"
         x="81.874802"
         style="font-size:64px;font-style:normal;font-weight:normal;line-height:125%;letter-spacing:0px;word-spacing:0px;writing-mode:tb-rl;fill:#000000;fill-opacity:1;stroke:none;display:inline;font-family:Sans"
         xml:space="preserve"><tspan
           style="font-size:32px"
           y="81.874802"
           x="25.232317"
           id="tspan7806"
           sodipodi:role="line">今がチャンス</tspan><tspan
           id="tspan5206"
           style="font-size:32px"
           y="41.874802"
           x="25.232317"
           sodipodi:role="line">なんですな！</tspan></text>
    </g>
  </g>
  <g
     inkscape:groupmode="layer"
     id="layer2"
     inkscape:label="レイヤー"
     sodipodi:insensitive="true">
    <path
       style="fill:#ffffff;stroke:none;display:inline"
       d="m 0,0 0,320 370,0 0,-320 -10,10 0,300 -350,0 0,-300 350,0 10,-10 z"
       id="path21072"
       inkscape:connector-curvature="0"
       sodipodi:nodetypes="ccccccccccc" />
  </g>
</svg>
