<?xml version="1.0" encoding="UTF-8" standalone="no"?>
<!-- Created with Inkscape (http://www.inkscape.org/) -->

<svg
   xmlns:dc="http://purl.org/dc/elements/1.1/"
   xmlns:cc="http://creativecommons.org/ns#"
   xmlns:rdf="http://www.w3.org/1999/02/22-rdf-syntax-ns#"
   xmlns:svg="http://www.w3.org/2000/svg"
   xmlns="http://www.w3.org/2000/svg"
   xmlns:sodipodi="http://sodipodi.sourceforge.net/DTD/sodipodi-0.dtd"
   xmlns:inkscape="http://www.inkscape.org/namespaces/inkscape"
   width="370"
   height="320"
   id="svg3172"
   version="1.1"
   inkscape:version="0.48.4 r9939"
   sodipodi:docname="[31.扇動].svg"
   inkscape:export-filename="C:\Users\執安\Desktop\資料\臨時\svg\[31.扇動].png"
   inkscape:export-xdpi="90"
   inkscape:export-ydpi="90">
  <defs
     id="defs3174" />
  <sodipodi:namedview
     id="base"
     pagecolor="#ffffff"
     bordercolor="#666666"
     borderopacity="1.0"
     inkscape:pageopacity="0.0"
     inkscape:pageshadow="2"
     inkscape:zoom="1.137461"
     inkscape:cx="156.95436"
     inkscape:cy="136.1"
     inkscape:document-units="px"
     inkscape:current-layer="layer8"
     showgrid="false"
     inkscape:window-width="1098"
     inkscape:window-height="698"
     inkscape:window-x="-5"
     inkscape:window-y="-5"
     inkscape:window-maximized="0" />
  <metadata
     id="metadata3177">
    <rdf:RDF>
      <cc:Work
         rdf:about="">
        <dc:format>image/svg+xml</dc:format>
        <dc:type
           rdf:resource="http://purl.org/dc/dcmitype/StillImage" />
        <dc:title></dc:title>
      </cc:Work>
    </rdf:RDF>
  </metadata>
  <g
     inkscape:label="補助線"
     inkscape:groupmode="layer"
     id="layer1"
     transform="translate(0,-732.36218)"
     sodipodi:insensitive="true"
     style="display:none">
    <path
       style="fill:none;stroke:#0000ff;stroke-width:1px;stroke-linecap:butt;stroke-linejoin:miter;stroke-opacity:1;display:inline"
       d="M 10,1042.3622 360,742.36211"
       id="path3025"
       inkscape:connector-curvature="0"
       sodipodi:nodetypes="cc" />
    <path
       style="fill:none;stroke:#0000ff;stroke-width:1px;stroke-linecap:butt;stroke-linejoin:miter;stroke-opacity:1;display:inline"
       d="M 10,742.36211 360,1042.3622"
       id="path3027"
       inkscape:connector-curvature="0"
       sodipodi:nodetypes="cc" />
    <path
       style="fill:none;stroke:#ff0000;stroke-width:1px;stroke-linecap:butt;stroke-linejoin:miter;stroke-opacity:1;display:inline"
       d="m 10,732.36211 0,320.00009"
       id="path3006"
       inkscape:connector-curvature="0"
       sodipodi:nodetypes="cc" />
    <path
       style="fill:none;stroke:#ff0000;stroke-width:1px;stroke-linecap:butt;stroke-linejoin:miter;stroke-opacity:1;display:inline"
       d="m 360,732.36211 0,320.00009"
       id="path3010"
       inkscape:connector-curvature="0"
       sodipodi:nodetypes="cc" />
    <path
       style="fill:none;stroke:#ff0000;stroke-width:1px;stroke-linecap:butt;stroke-linejoin:miter;stroke-opacity:1;display:inline"
       d="m 0,742.36208 370,3e-5"
       id="path3016"
       inkscape:connector-curvature="0" />
    <path
       style="fill:none;stroke:#ff0000;stroke-width:1px;stroke-linecap:butt;stroke-linejoin:miter;stroke-opacity:1;display:inline"
       d="m 0,1042.3622 370,0"
       id="path3018"
       inkscape:connector-curvature="0"
       sodipodi:nodetypes="cc" />
  </g>
  <g
     inkscape:groupmode="layer"
     id="layer4"
     inkscape:label="吹き出し"
     sodipodi:insensitive="true">
    <g
       id="g6712">
      <path
         sodipodi:nodetypes="cccccc"
         inkscape:connector-curvature="0"
         id="path5303"
         d="M 306.43306,20.774438 C 287.09941,79.147104 326.9593,123.65745 354.22236,127.5378 313.22543,147.20957 280.56987,164.03797 292.19794,240.40192 281.62448,207.94376 251.28049,151.226 185.43458,168.20956 217.11009,109.7598 226.19594,91.855958 183.40099,37.043141 229.80468,64.850487 291.96674,44.807628 306.43306,20.774438 z"
         style="fill:#ffd42a;fill-opacity:1;stroke:#000000;stroke-width:3;stroke-linecap:butt;stroke-linejoin:miter;stroke-opacity:1;display:inline" />
      <text
         sodipodi:linespacing="125%"
         id="text6073"
         y="40.160702"
         x="268.81171"
         style="font-size:48px;font-style:normal;font-weight:normal;line-height:125%;letter-spacing:0px;word-spacing:0px;writing-mode:tb-rl;fill:#000000;fill-opacity:1;stroke:none;display:inline;font-family:Sans"
         xml:space="preserve"><tspan
           y="268.81171"
           x="40.160702"
           id="tspan6075"
           sodipodi:role="line">ヒ</tspan></text>
      <text
         transform="matrix(0,1,-1,0,0,0)"
         sodipodi:linespacing="125%"
         id="text6077"
         y="-290.26877"
         x="148.22806"
         style="font-size:48px;font-style:normal;font-weight:normal;line-height:125%;letter-spacing:0px;word-spacing:0px;writing-mode:tb-rl;fill:#000000;fill-opacity:1;stroke:none;display:inline;font-family:Sans"
         xml:space="preserve"><tspan
           y="148.22806"
           x="-290.26877"
           id="tspan6079"
           sodipodi:role="line">ー</tspan></text>
      <text
         sodipodi:linespacing="125%"
         id="text6073-1"
         y="75.347954"
         x="278.88589"
         style="font-size:48px;font-style:normal;font-weight:normal;line-height:125%;letter-spacing:0px;word-spacing:0px;writing-mode:tb-rl;fill:#000000;fill-opacity:1;stroke:none;display:inline;font-family:Sans"
         xml:space="preserve"><tspan
           y="278.88589"
           x="75.347954"
           id="tspan6075-7"
           sodipodi:role="line">ィ</tspan></text>
      <text
         sodipodi:linespacing="125%"
         id="text6073-1-9"
         y="161.34372"
         x="276.31873"
         style="font-size:48px;font-style:normal;font-weight:normal;line-height:125%;letter-spacing:0px;word-spacing:0px;writing-mode:tb-rl;fill:#000000;fill-opacity:1;stroke:none;display:inline;font-family:Sans"
         xml:space="preserve"><tspan
           y="276.31873"
           x="161.34372"
           id="tspan6075-7-4"
           sodipodi:role="line">ッ</tspan></text>
    </g>
  </g>
  <g
     inkscape:groupmode="layer"
     id="layer8"
     inkscape:label="虫"
     sodipodi:insensitive="true">
    <g
       transform="matrix(1.470075,0,0,1.470075,-848.77963,-858.46249)"
       style="stroke-width:2.04071212;display:inline"
       id="g6688">
      <path
         style="fill:#800000;stroke:#000000;stroke-width:2.04071212;stroke-linecap:butt;stroke-linejoin:miter;stroke-opacity:1;display:inline"
         d="m 776.24276,768.56606 c 7.26548,-8.30166 33.12307,8.7313 29.45257,13.2862 -3.21096,3.98462 -36.6349,-5.07955 -29.45257,-13.2862 z"
         id="path6690"
         inkscape:connector-curvature="0"
         sodipodi:nodetypes="sss" />
      <path
         style="fill:#800000;stroke:#000000;stroke-width:2.04071212;stroke-linecap:butt;stroke-linejoin:miter;stroke-opacity:1"
         d="m 778.42401,766.63118 c 7.38147,-7.17061 32.35323,8.73132 28.68273,13.28621 -3.21097,3.98462 -33.899,-8.21896 -28.68273,-13.28621 z"
         id="path6692"
         inkscape:connector-curvature="0"
         sodipodi:nodetypes="sss" />
      <path
         style="fill:#550000;stroke:#000000;stroke-width:2.04071212;stroke-linecap:butt;stroke-linejoin:miter;stroke-opacity:1;display:inline"
         d="m 771.12369,765.00189 c 1.67509,-1.81949 6.70423,-1.99179 3.81723,0.54531 -4.23867,3.72496 -5.40532,1.17968 -3.81723,-0.54531 z"
         id="path6694"
         inkscape:connector-curvature="0"
         sodipodi:nodetypes="sss" />
      <path
         style="fill:#550000;stroke:#000000;stroke-width:2.04071212;stroke-linecap:butt;stroke-linejoin:miter;stroke-opacity:1;display:inline"
         d="m 775.58568,764.21866 c 1.95809,-0.84757 8.49094,0.31605 5.01828,1.96294 -1.90381,0.90288 -3.72342,3.63148 -5.32533,4.9168 -1.25713,1.00868 -3.23584,-2.09231 -3.43039,-3.1234 -0.16221,-0.85971 2.38692,-3.17176 3.73744,-3.75634 z"
         id="path6696"
         inkscape:connector-curvature="0"
         sodipodi:nodetypes="sssss" />
      <path
         style="fill:none;stroke:#000000;stroke-width:2.04071212;stroke-linecap:butt;stroke-linejoin:miter;stroke-opacity:1"
         d="m 770.50137,764.79183 c -3.42855,-2.23695 -10.58584,-2.21769 -15.55058,-1.84759"
         id="path6698"
         inkscape:connector-curvature="0"
         sodipodi:nodetypes="cc" />
      <path
         style="fill:none;stroke:#000000;stroke-width:2.04071212;stroke-linecap:butt;stroke-linejoin:miter;stroke-opacity:1"
         d="m 773.1188,763.40614 c -0.98125,-4.82428 -4.65649,-7.95492 -7.39038,-9.54591"
         id="path6700"
         inkscape:connector-curvature="0"
         sodipodi:nodetypes="cc" />
      <path
         style="fill:none;stroke:#000000;stroke-width:2.04071212;stroke-linecap:butt;stroke-linejoin:miter;stroke-opacity:1"
         d="m 788.82335,780.95828 -2.00156,2.92536 8.46814,2.30949 5.08087,8.77607"
         id="path6702"
         inkscape:connector-curvature="0" />
      <path
         style="fill:none;stroke:#000000;stroke-width:2.04071212;stroke-linecap:butt;stroke-linejoin:miter;stroke-opacity:1"
         d="m 799.29305,769.87272 2.00156,-0.9238 6.92847,2.92536 6.46658,2.77139"
         id="path6704"
         inkscape:connector-curvature="0" />
      <path
         style="fill:none;stroke:#000000;stroke-width:2.04071212;stroke-linecap:butt;stroke-linejoin:miter;stroke-opacity:1"
         d="m 783.5885,778.34086 -3.38726,0.92379 1.07776,4.77295 -2.00156,5.08089"
         id="path6706"
         inkscape:connector-curvature="0" />
      <path
         style="fill:none;stroke:#000000;stroke-width:2.04071212;stroke-linecap:butt;stroke-linejoin:miter;stroke-opacity:1"
         d="m 776.81398,773.41394 -2.00156,3.23329 -4.77295,-0.30793"
         id="path6708"
         inkscape:connector-curvature="0"
         sodipodi:nodetypes="ccc" />
      <path
         style="fill:none;stroke:#000000;stroke-width:2.04071212;stroke-linecap:butt;stroke-linejoin:miter;stroke-opacity:1"
         d="m 792.05664,766.48546 0.46189,-1.53966 5.69675,0.76983 2.92536,-0.30793"
         id="path6710"
         inkscape:connector-curvature="0" />
      <path
         style="fill:none;stroke:#000000;stroke-width:2.04071212;stroke-linecap:butt;stroke-linejoin:miter;stroke-opacity:1"
         d="m 786.20592,764.9458 1.23173,-1.69363 -1.38569,-1.07776"
         id="path6712"
         inkscape:connector-curvature="0" />
    </g>
  </g>
  <g
     inkscape:groupmode="layer"
     id="layer3"
     inkscape:label="豚"
     sodipodi:insensitive="true">
    <path
       style="fill:none;stroke:#000000;stroke-width:3;stroke-linecap:butt;stroke-linejoin:miter;stroke-opacity:1;display:inline"
       d="m 70.663864,162.30592 0,109.28524"
       id="path6144-8-8-2-4-5-5-1-5-7"
       inkscape:connector-curvature="0" />
    <path
       style="fill:none;stroke:#000000;stroke-width:3;stroke-linecap:butt;stroke-linejoin:miter;stroke-opacity:1;display:inline"
       d="m 149.8468,222.36388 0,109.28524"
       id="path6144-8-8-2-4-5-5-1-2"
       inkscape:connector-curvature="0" />
    <path
       style="fill:none;stroke:#000000;stroke-width:3;stroke-linecap:butt;stroke-linejoin:miter;stroke-opacity:1;display:inline"
       d="m 61.385734,201.01121 0,109.28524"
       id="path6144-8-8-2-4-5-5-1-5"
       inkscape:connector-curvature="0" />
    <path
       sodipodi:type="arc"
       style="fill:#000000;fill-opacity:1;stroke:none;display:inline"
       id="path7872"
       sodipodi:cx="-4.025053"
       sodipodi:cy="522.59436"
       sodipodi:rx="110.46214"
       sodipodi:ry="19.38559"
       d="m 106.43709,522.59436 a 110.46214,19.38559 0 1 1 -220.92429,0 110.46214,19.38559 0 1 1 220.92429,0 z"
       transform="matrix(0.72356684,0,0,0.76319822,121.72019,-107.48195)" />
    <path
       style="fill:none;stroke:#000000;stroke-width:3;stroke-linecap:butt;stroke-linejoin:miter;stroke-opacity:1;display:inline"
       d="m 72.820814,7.0058334 0,109.2852466"
       id="path6144"
       inkscape:connector-curvature="0" />
    <path
       style="fill:none;stroke:#000000;stroke-width:3;stroke-linecap:butt;stroke-linejoin:miter;stroke-opacity:1;display:inline"
       d="m 55.565244,44.392893 0,109.285247"
       id="path6144-8"
       inkscape:connector-curvature="0" />
    <path
       style="fill:none;stroke:#000000;stroke-width:3;stroke-linecap:butt;stroke-linejoin:miter;stroke-opacity:1;display:inline"
       d="m 180.93597,166.49646 0,109.28524"
       id="path6144-8-8-2"
       inkscape:connector-curvature="0" />
    <path
       style="fill:none;stroke:#000000;stroke-width:3;stroke-linecap:butt;stroke-linejoin:miter;stroke-opacity:1;display:inline"
       d="m 164.1315,182.43741 0,109.28524"
       id="path6144-8-8-2-4-5"
       inkscape:connector-curvature="0" />
    <path
       style="fill:none;stroke:#000000;stroke-width:3;stroke-linecap:butt;stroke-linejoin:miter;stroke-opacity:1;display:inline"
       d="m 47.322504,171.48443 0,109.28524"
       id="path6144-8-8-2-4-5-5"
       inkscape:connector-curvature="0" />
    <path
       style="fill:none;stroke:#000000;stroke-width:3;stroke-linecap:butt;stroke-linejoin:miter;stroke-opacity:1;display:inline"
       d="m 147.59493,33.608161 0,109.285239"
       id="path6144-8-8-2-4-5-5-1-7"
       inkscape:connector-curvature="0" />
    <path
       style="fill:none;stroke:#000000;stroke-width:3;stroke-linecap:butt;stroke-linejoin:miter;stroke-opacity:1;display:inline"
       d="m 165.56947,1.2539834 0,109.2852466"
       id="path6144-8-8-2-4-5-5-1-7-1"
       inkscape:connector-curvature="0" />
    <path
       style="fill:none;stroke:#000000;stroke-width:3;stroke-linecap:butt;stroke-linejoin:miter;stroke-opacity:1;display:inline"
       d="m 179.23012,50.863721 0,109.285259"
       id="path6144-8-8-2-4-5-5-1-7-1-1"
       inkscape:connector-curvature="0" />
    <g
       transform="translate(-2.6722866,4.7958134)"
       style="display:inline"
       id="g6344">
      <path
         style="fill:#fffff8;fill-opacity:1;stroke:#000000;stroke-width:3;stroke-linecap:butt;stroke-linejoin:miter;stroke-opacity:1;display:inline"
         d="m 193.71216,117.37483 c 35.45841,38.60882 27.64348,48.10267 15.44521,51.20523 l -48.27124,-20.22295 z"
         id="path6418"
         inkscape:connector-curvature="0"
         sodipodi:nodetypes="cccc" />
      <path
         style="fill:#fffff8;fill-opacity:1;stroke:#000000;stroke-width:3;stroke-linecap:butt;stroke-linejoin:miter;stroke-opacity:1;display:inline"
         d="m 196.1496,126.72902 c -1.51519,-7.94241 -1.82467,-16.81973 -5.24251,-24.48937 -2.47578,-5.555667 -1.61428,-13.427374 -2.50549,-14.117207 -1.93172,-1.495228 -2.54989,4.57921 -3.46445,2.831746 -2.45471,-4.690333 -3.19891,-13.351279 -5.84479,-15.745075 -3.19262,-2.888418 -3.02846,-7.848275 -3.92057,-8.856761 -2.73017,-3.086349 -1.01606,5.457977 -4.41969,2.771709 -3.34421,-2.639373 -7.62794,-6.121495 -9.59548,-8.187156 -2.99138,-3.140536 -2.21478,-7.246661 -3.01484,-7.425025 -2.48313,-0.553571 -1.77507,5.40792 -3.72908,3.384671 -2.38339,-2.46783 -1.40857,-6.531087 -2.88023,-8.221791 -1.84494,-2.119554 -3.01022,3.958309 -4.02377,3.479623 -12.86492,-6.075878 -30.94769,-4.564067 -40.74514,-3.568959 -4.34823,0.441639 -6.5797,-11.403725 -10.628861,-10.73612 -1.0555,0.174029 -2.67225,7.392155 -5.131516,8.120224 -2.296375,0.679837 -4.089837,-10.179372 -5.700172,-9.238259 -3.367809,1.968195 -3.445708,13.309308 -6.420861,13.492715 -4.288252,0.264348 -6.726695,-9.051619 -10.184444,-8.713913 -4.667473,0.45587 -5.304427,18.929463 -10.426285,23.65818 -21.422932,19.77855 -31.121604,49.682528 -28.960447,78.527388 0.269906,3.60253 1.13181,8.55035 0.614492,10.42649 -1.055074,3.8269 -2.780941,-10.76549 -5.238613,-9.37889 -2.141311,1.20802 3.709146,43.71071 2.049873,49.18705 -1.884342,6.22003 -4.582518,10.83161 -8.171265,13.67302 38.620206,56.15827 78.863908,56.87073 118.063689,52.49954 57.60646,-6.42371 74.30383,-53.31255 72.52821,-96.04725"
         id="path6424"
         inkscape:connector-curvature="0"
         sodipodi:nodetypes="csssssssssssssssssssssscsc" />
      <path
         style="fill:none;stroke:#000000;stroke-width:3;stroke-linecap:butt;stroke-linejoin:miter;stroke-opacity:1;display:inline"
         d="m 67.624317,164.53094 c -3.066988,24.85248 -26.854564,39.75321 16.401082,35.62993"
         id="path6426"
         inkscape:connector-curvature="0"
         sodipodi:nodetypes="cc" />
      <path
         style="fill:none;stroke:#000000;stroke-width:3;stroke-linecap:butt;stroke-linejoin:miter;stroke-opacity:1;display:inline"
         d="m 138.77242,108.13435 c 0.97204,6.85329 1.94212,13.70661 2.39354,20.5599"
         id="path6428"
         inkscape:connector-curvature="0"
         sodipodi:nodetypes="cc" />
      <path
         style="fill:none;stroke:#000000;stroke-width:3;stroke-linecap:butt;stroke-linejoin:miter;stroke-opacity:1;display:inline"
         d="m 150.7804,107.26592 c 0.85917,5.82474 1.60891,15.12166 1.49669,20.99411"
         id="path6430"
         inkscape:connector-curvature="0"
         sodipodi:nodetypes="cc" />
      <path
         style="fill:none;stroke:#000000;stroke-width:3;stroke-linecap:butt;stroke-linejoin:miter;stroke-opacity:1;display:inline"
         d="m 161.36027,107.50017 c 0.18853,6.15571 0.37705,11.90617 0.56558,17.5322"
         id="path6432"
         inkscape:connector-curvature="0"
         sodipodi:nodetypes="cc" />
      <path
         style="fill:#aa0000;stroke:#000000;stroke-width:3;stroke-linecap:butt;stroke-linejoin:miter;stroke-opacity:1;display:inline"
         d="m 127.15194,137.47457 c 3.18293,2.60391 7.05708,7.07335 9.5329,6.29883 3.85132,-1.20485 5.67781,-10.79606 9.70077,-10.83073 2.62282,-0.0227 6.16238,6.50251 9.14777,5.8688 2.74649,-0.583 4.93705,-8.31108 7.43823,-8.70878 2.52342,-0.40122 4.27803,7.92109 6.50173,7.29213 2.05786,-0.58205 4.58468,-10.03135 6.88184,-12.36245 -5.41138,13.71553 -3.2647,28.96336 -7.24655,29.33385 -1.53264,0.1426 -3.03826,-2.17549 -3.83382,-1.57549 -1.3046,0.98394 -0.11409,5.85186 -1.50386,6.29479 -1.51068,0.4815 -3.17139,-4.67735 -4.76466,-4.21662 -1.38746,0.40117 -2.6896,6.43063 -4.23235,6.7434 -1.93776,0.39285 -4.25323,-6.82266 -6.27101,-5.47249 -2.18436,1.46162 -3.61922,10.12027 -6.0785,10.00883 -5.43843,-0.24645 -7.03218,-17.00956 -15.27249,-28.67407 z"
         id="path6434"
         inkscape:connector-curvature="0"
         sodipodi:nodetypes="cssssscsssssssc" />
    </g>
  </g>
  <g
     inkscape:groupmode="layer"
     id="layer2"
     inkscape:label="レイヤー"
     sodipodi:insensitive="true">
    <path
       style="fill:#ffffff;stroke:none;display:inline"
       d="m 0,0 0,320 370,0 0,-320 -10,10 0,300 -350,0 0,-300 350,0 10,-10 z"
       id="path21072"
       inkscape:connector-curvature="0"
       sodipodi:nodetypes="ccccccccccc" />
  </g>
</svg>
