<?xml version="1.0" encoding="UTF-8" standalone="no"?>
<!-- Created with Inkscape (http://www.inkscape.org/) -->

<svg
   xmlns:dc="http://purl.org/dc/elements/1.1/"
   xmlns:cc="http://creativecommons.org/ns#"
   xmlns:rdf="http://www.w3.org/1999/02/22-rdf-syntax-ns#"
   xmlns:svg="http://www.w3.org/2000/svg"
   xmlns="http://www.w3.org/2000/svg"
   xmlns:sodipodi="http://sodipodi.sourceforge.net/DTD/sodipodi-0.dtd"
   xmlns:inkscape="http://www.inkscape.org/namespaces/inkscape"
   width="370"
   height="320"
   id="svg3172"
   version="1.1"
   inkscape:version="0.48.4 r9939"
   sodipodi:docname="[33.空白].svg"
   inkscape:export-filename="C:\Users\執安\Desktop\資料\臨時\svg\[33.空白].png"
   inkscape:export-xdpi="90"
   inkscape:export-ydpi="90">
  <defs
     id="defs3174" />
  <sodipodi:namedview
     id="base"
     pagecolor="#ffffff"
     bordercolor="#666666"
     borderopacity="1.0"
     inkscape:pageopacity="0.0"
     inkscape:pageshadow="2"
     inkscape:zoom="0.80430638"
     inkscape:cx="295.13003"
     inkscape:cy="84.220859"
     inkscape:document-units="px"
     inkscape:current-layer="layer9"
     showgrid="false"
     inkscape:window-width="1098"
     inkscape:window-height="698"
     inkscape:window-x="-5"
     inkscape:window-y="-5"
     inkscape:window-maximized="0" />
  <metadata
     id="metadata3177">
    <rdf:RDF>
      <cc:Work
         rdf:about="">
        <dc:format>image/svg+xml</dc:format>
        <dc:type
           rdf:resource="http://purl.org/dc/dcmitype/StillImage" />
        <dc:title></dc:title>
      </cc:Work>
    </rdf:RDF>
  </metadata>
  <g
     inkscape:label="補助線"
     inkscape:groupmode="layer"
     id="layer1"
     transform="translate(0,-732.36218)"
     sodipodi:insensitive="true"
     style="display:none">
    <path
       style="fill:none;stroke:#0000ff;stroke-width:1px;stroke-linecap:butt;stroke-linejoin:miter;stroke-opacity:1;display:inline"
       d="M 10,1042.3622 360,742.36211"
       id="path3025"
       inkscape:connector-curvature="0"
       sodipodi:nodetypes="cc" />
    <path
       style="fill:none;stroke:#0000ff;stroke-width:1px;stroke-linecap:butt;stroke-linejoin:miter;stroke-opacity:1;display:inline"
       d="M 10,742.36211 360,1042.3622"
       id="path3027"
       inkscape:connector-curvature="0"
       sodipodi:nodetypes="cc" />
    <path
       style="fill:none;stroke:#ff0000;stroke-width:1px;stroke-linecap:butt;stroke-linejoin:miter;stroke-opacity:1;display:inline"
       d="m 10,732.36211 0,320.00009"
       id="path3006"
       inkscape:connector-curvature="0"
       sodipodi:nodetypes="cc" />
    <path
       style="fill:none;stroke:#ff0000;stroke-width:1px;stroke-linecap:butt;stroke-linejoin:miter;stroke-opacity:1;display:inline"
       d="m 360,732.36211 0,320.00009"
       id="path3010"
       inkscape:connector-curvature="0"
       sodipodi:nodetypes="cc" />
    <path
       style="fill:none;stroke:#ff0000;stroke-width:1px;stroke-linecap:butt;stroke-linejoin:miter;stroke-opacity:1;display:inline"
       d="m 0,742.36208 370,3e-5"
       id="path3016"
       inkscape:connector-curvature="0" />
    <path
       style="fill:none;stroke:#ff0000;stroke-width:1px;stroke-linecap:butt;stroke-linejoin:miter;stroke-opacity:1;display:inline"
       d="m 0,1042.3622 370,0"
       id="path3018"
       inkscape:connector-curvature="0"
       sodipodi:nodetypes="cc" />
  </g>
  <g
     inkscape:groupmode="layer"
     id="layer9"
     inkscape:label="座布団"
     sodipodi:insensitive="true">
    <g
       transform="matrix(1.2802954,0,0,1.2802954,-1316.0185,-1129.707)"
       style="stroke-width:2.34320927;display:inline"
       id="g6386">
      <path
         style="fill:none;stroke:#000000;stroke-width:2.34320927;stroke-linecap:butt;stroke-linejoin:miter;stroke-opacity:1"
         d="m 1096.25,1120.375 6.75,-4.75 2.375,7.875"
         id="path6388"
         inkscape:connector-curvature="0"
         sodipodi:nodetypes="ccc" />
      <path
         style="fill:none;stroke:#000000;stroke-width:2.34320927;stroke-linecap:butt;stroke-linejoin:miter;stroke-opacity:1;display:inline"
         d="m 1039.3437,1060.0938 3.5313,3.4687 -4.5312,1.875"
         id="path6390"
         inkscape:connector-curvature="0"
         sodipodi:nodetypes="ccc" />
      <path
         style="fill:none;stroke:#000000;stroke-width:2.34320927;stroke-linecap:butt;stroke-linejoin:miter;stroke-opacity:1;display:inline"
         d="m 1259.1517,1086.6488 -4.533,-2.1867 3.4493,-3.3094"
         id="path6392"
         inkscape:connector-curvature="0"
         sodipodi:nodetypes="ccc" />
      <path
         style="fill:#440055;stroke:#000000;stroke-width:2.34320927;stroke-linecap:butt;stroke-linejoin:miter;stroke-opacity:1"
         d="m 1043,1063 c -1.0524,10.2776 44.0321,49.0471 60.5,52.5 22.2658,9.168 148.4945,-19.3519 151,-31 -0.4985,-13.9465 -53.2438,-36.8972 -73,-43 -27.3293,-3.6639 -136.1772,10.124 -138.5,21.5 z"
         id="path6394"
         inkscape:connector-curvature="0"
         sodipodi:nodetypes="ccccc" />
      <path
         style="fill:none;stroke:#000000;stroke-width:2.34320927;stroke-linecap:butt;stroke-linejoin:miter;stroke-opacity:1;display:inline"
         d="m 1095.3421,1093.6061 c 6.1123,-2.8001 14.2535,-4.3447 19.8796,-3.2322 1.9552,1.5402 7.8569,4.7771 8.8802,11.1354"
         id="path6396"
         inkscape:connector-curvature="0"
         sodipodi:nodetypes="ccc" />
      <path
         style="fill:none;stroke:#000000;stroke-width:2.34320927;stroke-linecap:butt;stroke-linejoin:miter;stroke-opacity:1;display:inline"
         d="m 1228.0165,1078.7481 c -11.2266,-4.7092 -20.0366,-2.1683 -30.033,-3.1867 6.0764,-4.2288 11.0978,-9.8641 20.9493,-9.0594"
         id="path6398"
         inkscape:connector-curvature="0"
         sodipodi:nodetypes="ccc" />
      <path
         style="fill:none;stroke:#000000;stroke-width:2.34320927;stroke-linecap:butt;stroke-linejoin:miter;stroke-opacity:1;display:inline"
         d="m 1068.2343,1061.3282 c 7.6231,-0.3191 13.0846,3.6849 18.7813,7.2187 -6.2603,-1.2752 -11.5177,-1.0549 -22.0312,1.375"
         id="path6400"
         inkscape:connector-curvature="0"
         sodipodi:nodetypes="ccc" />
    </g>
  </g>
  <g
     inkscape:groupmode="layer"
     id="layer3"
     inkscape:label="豚"
     sodipodi:insensitive="true">
    <g
       id="g7501">
      <path
         style="fill:#fffff8;fill-opacity:1;stroke:#000000;stroke-width:3;stroke-linecap:butt;stroke-linejoin:miter;stroke-opacity:1;display:inline"
         d="m 223.33442,152.15052 c 31.90958,84.11771 -32.23028,86.68522 19.19279,98.26268 -39.91193,-1.09837 -91.88399,47.86806 -151.614762,13.4139 C 40.938293,235.00087 55.071603,184.18415 72.010933,147.55081"
         id="path6402"
         inkscape:connector-curvature="0"
         sodipodi:nodetypes="ccsc" />
      <path
         style="fill:#aa0000;stroke:#000000;stroke-width:3;stroke-linecap:butt;stroke-linejoin:miter;stroke-opacity:1;display:inline"
         d="m 163.12546,174.10733 c 18.43907,-3.12865 15.58453,-9.2148 24.73006,-10.07976 7.16556,-0.67767 6.56241,3.6546 13.04083,3.18396 -4.78741,1.9207 -6.87812,6.7702 -14.83593,7.58601 -8.09762,0.83014 -7.237,-2.0221 -22.93496,-0.69021 z"
         id="path6404"
         inkscape:connector-curvature="0"
         sodipodi:nodetypes="cscsc" />
      <g
         id="g7492">
        <path
           sodipodi:nodetypes="sssss"
           inkscape:connector-curvature="0"
           id="path6662"
           d="m 175.72673,189.46237 c 0,-11.34444 37.12126,-11.66373 37.12126,-0.31929 l 0,32.69721 c 0,11.34444 -37.12126,11.66373 -37.12126,0.31929 z"
           style="fill:#c8b7b7;fill-opacity:1;stroke:#000000;stroke-width:3" />
        <path
           sodipodi:nodetypes="sss"
           inkscape:connector-curvature="0"
           id="path6664"
           d="m 178.05046,189.29714 c 0,9.93957 32.52424,9.65975 32.52424,-0.2797 0,-10.85908 -32.52424,-9.65975 -32.52424,0.2797 z"
           style="fill:#ac9393;fill-opacity:1;stroke:none;display:inline" />
        <path
           sodipodi:nodetypes="ccc"
           inkscape:connector-curvature="0"
           id="path6666"
           d="m 179.97411,192.89824 c 2.71601,4.86547 25.39504,4.67506 28.90305,-0.34177 -0.56576,-10.77328 -28.90305,-9.59767 -28.90305,0.34177 z"
           style="fill:#2ca02c;fill-opacity:1;stroke:none;display:inline" />
        <path
           sodipodi:nodetypes="sss"
           inkscape:connector-curvature="0"
           id="path6668"
           d="m 177.94996,189.18934 c 0,9.93957 32.52424,9.65975 32.52424,-0.2797 0,-10.85908 -32.52424,-9.65975 -32.52424,0.2797 z"
           style="fill:none;stroke:#000000;stroke-width:3;display:inline" />
        <path
           sodipodi:nodetypes="cc"
           inkscape:connector-curvature="0"
           id="path6682"
           d="m 185.49363,179.22224 c 3.82553,5.91701 -1.29937,11.37389 1.59116,14.41587"
           style="fill:none;stroke:#afe9af;stroke-width:3;stroke-linecap:butt;stroke-linejoin:miter;stroke-opacity:1;display:inline" />
        <path
           sodipodi:nodetypes="cc"
           inkscape:connector-curvature="0"
           id="path6684"
           d="m 192.93535,178.80884 c 3.82552,5.91701 -1.29938,11.37389 1.59115,14.41586"
           style="fill:none;stroke:#afe9af;stroke-width:3;stroke-linecap:butt;stroke-linejoin:miter;stroke-opacity:1;display:inline" />
        <path
           sodipodi:nodetypes="cc"
           inkscape:connector-curvature="0"
           id="path6686"
           d="m 200.13701,178.6488 c 3.82553,5.91701 -1.29937,11.37389 1.59115,14.41586"
           style="fill:none;stroke:#afe9af;stroke-width:3;stroke-linecap:butt;stroke-linejoin:miter;stroke-opacity:1;display:inline" />
      </g>
      <path
         style="fill:#fffff8;fill-opacity:1;stroke:#000000;stroke-width:3;stroke-linecap:butt;stroke-linejoin:miter;stroke-opacity:1;display:inline"
         d="m 158.552,190.30627 c 34.94923,11.6818 35.2551,29.45972 11.60088,42.15731"
         id="path6670"
         inkscape:connector-curvature="0"
         sodipodi:nodetypes="cc" />
      <path
         style="fill:none;stroke:#000000;stroke-width:3;stroke-linecap:butt;stroke-linejoin:miter;stroke-opacity:1;display:inline"
         d="m 163.60494,168.66787 c 0,2.94109 -0.78368,6.90553 -2.03683,9.49711"
         id="path6672"
         inkscape:connector-curvature="0"
         sodipodi:nodetypes="cc" />
      <path
         style="fill:#fffff8;fill-opacity:1;stroke:#000000;stroke-width:3;stroke-linecap:butt;stroke-linejoin:miter;stroke-opacity:1;display:inline"
         d="m 221.32142,148.18771 c 22.06448,13.24879 23.16375,64.38738 1.2479,68.3335 -21.12346,3.80351 -6.96915,-25.92559 -4.66463,-38.87988"
         id="path6674"
         inkscape:connector-curvature="0"
         sodipodi:nodetypes="csc" />
      <path
         style="fill:#fffff8;fill-opacity:1;stroke:#000000;stroke-width:3;stroke-linecap:butt;stroke-linejoin:miter;stroke-opacity:1;display:inline"
         d="m 69.839043,151.89459 c 7.54977,-49.03583 45.511167,-76.929352 86.932567,-74.169867 24.1995,1.612173 67.39885,20.896452 66.17873,78.426597"
         id="path6676"
         inkscape:connector-curvature="0"
         sodipodi:nodetypes="csc" />
      <path
         style="fill:none;stroke:#000000;stroke-width:3;stroke-linecap:butt;stroke-linejoin:miter;stroke-opacity:1;display:inline"
         d="m 194.51703,136.36337 -0.681,20.97183"
         id="path6678"
         inkscape:connector-curvature="0"
         sodipodi:nodetypes="cc" />
      <path
         style="fill:none;stroke:#000000;stroke-width:3;stroke-linecap:butt;stroke-linejoin:miter;stroke-opacity:1;display:inline"
         d="m 173.85281,139.95535 -0.69739,18.69075"
         id="path6680"
         inkscape:connector-curvature="0"
         sodipodi:nodetypes="cc" />
    </g>
  </g>
  <g
     inkscape:groupmode="layer"
     id="layer4"
     inkscape:label="吹き出し"
     sodipodi:insensitive="true">
    <g
       transform="translate(1.8829727,5.4840893)"
       style="display:inline"
       id="g5164">
      <path
         sodipodi:nodetypes="sssscsssssss"
         inkscape:connector-curvature="0"
         id="rect7294"
         d="m 332.45614,11.954212 -51.92826,0 c -12.90509,0 -23.29439,10.389296 -23.29439,23.294386 l 0,60.227818 c 0,4.839934 -11.10238,13.731674 -19.27688,27.133274 0,0 19.27688,-12.38385 19.27688,-1.75636 l 0,68.52043 c 0,12.90509 10.3893,23.29439 23.29439,23.29439 l 51.92826,0 c 12.90509,0 23.29438,-10.3893 23.29438,-23.29439 l 0,-154.125162 c 0,-12.90509 -10.38929,-23.294386 -23.29438,-23.294386 z"
         style="fill:#fefefe;fill-opacity:1;stroke:#000000;stroke-width:3;stroke-linecap:round;stroke-miterlimit:4;stroke-opacity:1;stroke-dashoffset:0" />
      <text
         sodipodi:linespacing="125%"
         id="text7804"
         y="23.502996"
         x="327.64178"
         style="font-size:28px;font-style:normal;font-weight:normal;line-height:125%;letter-spacing:0px;word-spacing:0px;writing-mode:tb-rl;fill:#000000;fill-opacity:1;stroke:none;font-family:Sans"
         xml:space="preserve"><tspan
           id="tspan5151"
           style="font-size:28px"
           y="327.64178"
           x="23.502996"
           sodipodi:role="line">気長に</tspan><tspan
           style="font-size:28px"
           y="292.64178"
           x="23.502996"
           sodipodi:role="line"
           id="tspan6933">待つんですな</tspan></text>
    </g>
  </g>
  <g
     inkscape:groupmode="layer"
     id="layer2"
     inkscape:label="レイヤー"
     sodipodi:insensitive="true">
    <path
       style="fill:#ffffff;stroke:none;display:inline"
       d="m 0,0 0,320 370,0 0,-320 -10,10 0,300 -350,0 0,-300 350,0 10,-10 z"
       id="path21072"
       inkscape:connector-curvature="0"
       sodipodi:nodetypes="ccccccccccc" />
  </g>
</svg>
