<?xml version="1.0" encoding="UTF-8" standalone="no"?>
<!-- Created with Inkscape (http://www.inkscape.org/) -->

<svg
   xmlns:dc="http://purl.org/dc/elements/1.1/"
   xmlns:cc="http://creativecommons.org/ns#"
   xmlns:rdf="http://www.w3.org/1999/02/22-rdf-syntax-ns#"
   xmlns:svg="http://www.w3.org/2000/svg"
   xmlns="http://www.w3.org/2000/svg"
   xmlns:sodipodi="http://sodipodi.sourceforge.net/DTD/sodipodi-0.dtd"
   xmlns:inkscape="http://www.inkscape.org/namespaces/inkscape"
   width="370"
   height="320"
   id="svg3172"
   version="1.1"
   inkscape:version="0.48.4 r9939"
   sodipodi:docname="[34.待機].svg"
   inkscape:export-filename="C:\Users\執安\Desktop\資料\臨時\svg\[34.待機].png"
   inkscape:export-xdpi="90"
   inkscape:export-ydpi="90">
  <defs
     id="defs3174" />
  <sodipodi:namedview
     id="base"
     pagecolor="#ffffff"
     bordercolor="#666666"
     borderopacity="1.0"
     inkscape:pageopacity="0.0"
     inkscape:pageshadow="2"
     inkscape:zoom="1.137461"
     inkscape:cx="167.95104"
     inkscape:cy="114.08088"
     inkscape:document-units="px"
     inkscape:current-layer="layer3"
     showgrid="false"
     inkscape:window-width="1098"
     inkscape:window-height="698"
     inkscape:window-x="-5"
     inkscape:window-y="-5"
     inkscape:window-maximized="0" />
  <metadata
     id="metadata3177">
    <rdf:RDF>
      <cc:Work
         rdf:about="">
        <dc:format>image/svg+xml</dc:format>
        <dc:type
           rdf:resource="http://purl.org/dc/dcmitype/StillImage" />
        <dc:title></dc:title>
      </cc:Work>
    </rdf:RDF>
  </metadata>
  <g
     inkscape:label="補助線"
     inkscape:groupmode="layer"
     id="layer1"
     transform="translate(0,-732.36218)"
     sodipodi:insensitive="true"
     style="display:none">
    <path
       style="fill:none;stroke:#0000ff;stroke-width:1px;stroke-linecap:butt;stroke-linejoin:miter;stroke-opacity:1;display:inline"
       d="M 10,1042.3622 360,742.36211"
       id="path3025"
       inkscape:connector-curvature="0"
       sodipodi:nodetypes="cc" />
    <path
       style="fill:none;stroke:#0000ff;stroke-width:1px;stroke-linecap:butt;stroke-linejoin:miter;stroke-opacity:1;display:inline"
       d="M 10,742.36211 360,1042.3622"
       id="path3027"
       inkscape:connector-curvature="0"
       sodipodi:nodetypes="cc" />
    <path
       style="fill:none;stroke:#ff0000;stroke-width:1px;stroke-linecap:butt;stroke-linejoin:miter;stroke-opacity:1;display:inline"
       d="m 10,732.36211 0,320.00009"
       id="path3006"
       inkscape:connector-curvature="0"
       sodipodi:nodetypes="cc" />
    <path
       style="fill:none;stroke:#ff0000;stroke-width:1px;stroke-linecap:butt;stroke-linejoin:miter;stroke-opacity:1;display:inline"
       d="m 360,732.36211 0,320.00009"
       id="path3010"
       inkscape:connector-curvature="0"
       sodipodi:nodetypes="cc" />
    <path
       style="fill:none;stroke:#ff0000;stroke-width:1px;stroke-linecap:butt;stroke-linejoin:miter;stroke-opacity:1;display:inline"
       d="m 0,742.36208 370,3e-5"
       id="path3016"
       inkscape:connector-curvature="0" />
    <path
       style="fill:none;stroke:#ff0000;stroke-width:1px;stroke-linecap:butt;stroke-linejoin:miter;stroke-opacity:1;display:inline"
       d="m 0,1042.3622 370,0"
       id="path3018"
       inkscape:connector-curvature="0"
       sodipodi:nodetypes="cc" />
  </g>
  <g
     inkscape:groupmode="layer"
     id="layer3"
     inkscape:label="豚"
     style="display:inline"
     sodipodi:insensitive="true">
    <g
       id="g8017">
      <path
         style="fill:#fffff8;fill-opacity:1;stroke:#000000;stroke-width:3;stroke-linecap:butt;stroke-linejoin:miter;stroke-opacity:1;display:inline"
         d="m 161.02046,182.37988 c -1.60161,-44.49134 -38.95221,-62.91677 -69.851986,-58.81379 -36.08734,4.79183 -57.51832,35.2938 -57.4278,72.71854 -7.50659,21.26763 -4.28583,39.8737 -22.50562,42.36432 24.6055,2.87142 24.5628,44.82038 90.401406,45.66828 51.6846,0.66568 68.72547,-35.29578 65.9806,-64.63665 15.9301,-20.92131 15.87522,-33.38662 -6.53333,-40.8898"
         id="path5844"
         inkscape:connector-curvature="0"
         sodipodi:nodetypes="csccscc" />
      <path
         style="fill:#aa0000;stroke:#000000;stroke-width:2.6197803;stroke-linecap:butt;stroke-linejoin:miter;stroke-opacity:1;display:inline"
         d="m 97.302034,178.02698 c 13.911936,5.7571 12.788706,-4.9388 25.971186,-6.16223 8.4953,-0.78843 10.2351,5.922 16.14164,-1.1704 -4.69058,6.82912 -3.1005,15.86774 -14.11183,18.59887 -12.61778,3.12946 -16.51904,-5.09024 -28.000996,-11.26624 z"
         id="path5846"
         inkscape:connector-curvature="0"
         sodipodi:nodetypes="cscsc" />
      <path
         style="fill:none;stroke:#000000;stroke-width:2.6197803;stroke-linecap:butt;stroke-linejoin:miter;stroke-opacity:1;display:inline"
         d="m 126.74718,154.06046 2.29414,13.51714"
         id="path5848"
         inkscape:connector-curvature="0"
         sodipodi:nodetypes="cc" />
      <path
         style="fill:none;stroke:#000000;stroke-width:2.6197803;stroke-linecap:butt;stroke-linejoin:miter;stroke-opacity:1;display:inline"
         d="m 111.02836,157.72316 1.91704,11.90769"
         id="path5850"
         inkscape:connector-curvature="0"
         sodipodi:nodetypes="cc" />
    </g>
    <g
       id="g8023">
      <path
         style="fill:#fffff8;fill-opacity:1;stroke:#000000;stroke-width:3;stroke-linecap:butt;stroke-linejoin:miter;stroke-opacity:1;display:inline"
         d="m 220.52614,181.32489 c 4.6919,-41.59333 35.48846,-53.96222 57.84684,-51.63586 31.81223,3.3101 57.83597,28.66302 57.02832,67.37459 7.30281,18.62467 4.09843,33.43127 20.1393,35.61236 -21.44916,2.5146 -22.65441,47.36576 -80.81789,45.18519 -49.0022,-1.83712 -63.16644,-37.8422 -58.84066,-61.65652 -14.66762,-18.3213 -11.14834,-27.34907 5.26668,-37.24018"
         id="path5854"
         inkscape:connector-curvature="0"
         sodipodi:nodetypes="csccscc" />
      <path
         style="fill:#aa0000;stroke:#000000;stroke-width:3;stroke-linecap:butt;stroke-linejoin:miter;stroke-opacity:1;display:inline"
         d="m 276.1408,180.50805 c -10.42176,6.70087 -14.73089,-3.56618 -22.26146,-6.39725 -7.6208,-2.86498 -13.72725,0.14436 -15.98681,6.56871 6.06531,-0.55761 8.20804,3.6026 13.92897,6.74332 7.3016,4.00826 16.68971,3.10549 24.3193,-6.91478 z"
         id="path5856"
         inkscape:connector-curvature="0"
         sodipodi:nodetypes="cscsc" />
      <path
         style="fill:none;stroke:#000000;stroke-width:3;stroke-linecap:butt;stroke-linejoin:miter;stroke-opacity:1;display:inline"
         d="m 248.2028,155.07037 -1.54567,13.9244"
         id="path5858"
         inkscape:connector-curvature="0"
         sodipodi:nodetypes="cc" />
      <path
         style="fill:none;stroke:#000000;stroke-width:3;stroke-linecap:butt;stroke-linejoin:miter;stroke-opacity:1;display:inline"
         d="m 262.58107,157.62506 -1.89999,12.28637"
         id="path5860"
         inkscape:connector-curvature="0"
         sodipodi:nodetypes="cc" />
    </g>
    <g
       transform="translate(0.69554437,1.2170742)"
       style="display:inline"
       id="g11771">
      <path
         sodipodi:nodetypes="ccc"
         inkscape:connector-curvature="0"
         id="path10916-0"
         d="m 181.99546,156.28645 c 2.77873,-4.50418 -3.26635,-9.18337 3.32227,-18.45674 1.00501,11.33618 8.44372,12.02008 2.99622,18.94939"
         style="fill:#ff7f2a;stroke:#000000;stroke-width:2;stroke-linecap:butt;stroke-linejoin:miter;stroke-opacity:1;display:inline" />
      <path
         sodipodi:nodetypes="ccc"
         inkscape:connector-curvature="0"
         id="path10916-7"
         d="m 217.19875,158.90623 c -4.42566,-6.30528 -3.26634,-13.19491 4.46843,-20.33971 -2.92466,12.48234 5.49647,12.92063 2.0138,20.17742"
         style="fill:#ff7f2a;stroke:#000000;stroke-width:2;stroke-linecap:butt;stroke-linejoin:miter;stroke-opacity:1;display:inline" />
      <path
         sodipodi:nodetypes="ccc"
         inkscape:connector-curvature="0"
         id="path10916"
         d="m 152.39254,160.17774 c -4.42565,-6.30528 4.593,-7.79161 3.97722,-17.88366 5.26216,8.38893 7.46131,10.30084 1.68633,17.55763"
         style="fill:#ff7f2a;stroke:#000000;stroke-width:2;stroke-linecap:butt;stroke-linejoin:miter;stroke-opacity:1" />
      <rect
         ry="0"
         y="157.96278"
         x="216.75598"
         height="31.096649"
         width="6.6589799"
         id="rect11010-4"
         style="fill:#ffff00;fill-opacity:1;stroke:#000000;stroke-width:2;stroke-linecap:round;stroke-miterlimit:4;stroke-opacity:1;stroke-dasharray:none;stroke-dashoffset:0;display:inline" />
      <rect
         ry="0"
         y="156.57359"
         x="182.25392"
         height="31.55974"
         width="6.4273167"
         id="rect11010-6"
         style="fill:#00ff00;fill-opacity:1;stroke:#000000;stroke-width:2;stroke-linecap:round;stroke-miterlimit:4;stroke-opacity:1;stroke-dasharray:none;stroke-dashoffset:0;display:inline" />
      <rect
         ry="0"
         y="159.89708"
         x="152.17946"
         height="30.86504"
         width="5.9643331"
         id="rect11010"
         style="fill:#00ccff;fill-opacity:1;stroke:#000000;stroke-width:2;stroke-linecap:round;stroke-miterlimit:4;stroke-opacity:1;stroke-dasharray:none;stroke-dashoffset:0" />
      <path
         sodipodi:nodetypes="csc"
         inkscape:connector-curvature="0"
         id="path10940-2-0"
         d="m 207.66178,185.97131 c -3.41142,-4.37595 2.90166,-11.17598 6.01164,-10.84707 4.02101,0.42533 9.30606,7.56658 5.75024,10.71648"
         style="fill:#ff5555;stroke:#000000;stroke-width:2;stroke-linecap:butt;stroke-linejoin:miter;stroke-opacity:1;display:inline" />
      <path
         sodipodi:nodetypes="csc"
         inkscape:connector-curvature="0"
         id="path10940-2-0-0"
         d="m 168.36508,185.64384 c -3.41142,-4.37595 2.90166,-11.17598 6.01164,-10.84707 4.02101,0.42532 9.30606,7.56658 5.75024,10.71647"
         style="fill:#ff5555;stroke:#000000;stroke-width:2;stroke-linecap:butt;stroke-linejoin:miter;stroke-opacity:1;display:inline" />
      <path
         sodipodi:nodetypes="csc"
         inkscape:connector-curvature="0"
         id="path10940-2-0-1"
         d="m 138.23761,185.97131 c -3.41142,-4.37595 2.90166,-11.17598 6.01164,-10.84707 4.02101,0.42533 9.30606,7.56658 5.75024,10.71648"
         style="fill:#ff5555;stroke:#000000;stroke-width:2;stroke-linecap:butt;stroke-linejoin:miter;stroke-opacity:1;display:inline" />
      <path
         sodipodi:nodetypes="csc"
         inkscape:connector-curvature="0"
         id="path10940"
         d="m 142.57619,186.60032 c -4.27412,-5.48267 3.63543,-14.0022 7.53187,-13.59011 5.03786,0.53287 11.65941,9.47994 7.20439,13.42638"
         style="fill:#ff5555;stroke:#000000;stroke-width:2;stroke-linecap:butt;stroke-linejoin:miter;stroke-opacity:1" />
      <path
         sodipodi:nodetypes="csc"
         inkscape:connector-curvature="0"
         id="path10940-1"
         d="m 179.74108,186.28582 c -4.27412,-5.48268 3.63543,-14.0022 7.53187,-13.59011 5.03786,0.53286 11.65941,9.47993 7.2044,13.42637"
         style="fill:#ff5555;stroke:#000000;stroke-width:2;stroke-linecap:butt;stroke-linejoin:miter;stroke-opacity:1;display:inline" />
      <path
         sodipodi:nodetypes="csc"
         inkscape:connector-curvature="0"
         id="path10940-2"
         d="m 217.61211,186.98058 c -4.27412,-5.48267 3.63543,-14.0022 7.53187,-13.59011 5.03786,0.53287 11.65941,9.47994 7.20439,13.42638"
         style="fill:#ff5555;stroke:#000000;stroke-width:2;stroke-linecap:butt;stroke-linejoin:miter;stroke-opacity:1;display:inline" />
      <rect
         ry="7.4098568"
         y="186.36255"
         x="131.0515"
         height="36.123051"
         width="110.91629"
         id="rect10912"
         style="fill:#ffd5e5;fill-opacity:1;stroke:#000000;stroke-width:2;stroke-linecap:round;stroke-miterlimit:4;stroke-opacity:1;stroke-dasharray:none;stroke-dashoffset:0" />
      <rect
         y="216.69661"
         x="106.7379"
         height="9.2623215"
         width="165.33243"
         id="rect11073"
         style="fill:#aa4400;fill-opacity:1;stroke:#000000;stroke-width:2;stroke-linecap:round;stroke-miterlimit:4;stroke-opacity:1;stroke-dasharray:none;stroke-dashoffset:0" />
    </g>
    <path
       sodipodi:nodetypes="cc"
       inkscape:connector-curvature="0"
       id="path5852"
       d="m 90.158574,198.43973 c 35.152766,10.73019 29.701106,25.13993 12.093946,40.00535"
       style="fill:#fffff8;fill-opacity:1;stroke:#000000;stroke-width:3;stroke-linecap:butt;stroke-linejoin:miter;stroke-opacity:1;display:inline" />
    <path
       sodipodi:nodetypes="cc"
       inkscape:connector-curvature="0"
       id="path5862"
       d="m 276.18464,197.53952 c -28.24686,15.40167 -31.5945,30.25767 1.24197,39.52779"
       style="fill:#fffff8;fill-opacity:1;stroke:#000000;stroke-width:3;stroke-linecap:butt;stroke-linejoin:miter;stroke-opacity:1;display:inline" />
    <path
       sodipodi:type="arc"
       style="fill:#000000;fill-opacity:1;stroke:none;display:inline"
       id="path4519"
       sodipodi:cx="105.86146"
       sodipodi:cy="298.33038"
       sodipodi:rx="53.996449"
       sodipodi:ry="8.8809948"
       d="m 159.85791,298.33038 a 53.996449,8.8809948 0 1 1 -107.992901,0 53.996449,8.8809948 0 1 1 107.992901,0 z"
       transform="matrix(1.0789474,0,0,1.12,-14.766736,-35.648291)" />
    <path
       transform="matrix(0.91447368,0,0,0.8,189.14559,55.199303)"
       sodipodi:type="arc"
       style="fill:#000000;fill-opacity:1;stroke:none;display:inline"
       id="path4519-0"
       sodipodi:cx="105.86146"
       sodipodi:cy="298.33038"
       sodipodi:rx="53.996449"
       sodipodi:ry="8.8809948"
       d="m 159.85791,298.33038 a 53.996449,8.8809948 0 1 1 -107.992901,0 53.996449,8.8809948 0 1 1 107.992901,0 z" />
  </g>
  <g
     inkscape:groupmode="layer"
     id="layer4"
     inkscape:label="吹き出し"
     sodipodi:insensitive="true">
    <g
       id="g8006">
      <path
         sodipodi:nodetypes="sscssscssss"
         inkscape:connector-curvature="0"
         id="path11787"
         d="m 346.6579,63.352948 c 0,17.3465 -28.14998,32.60964 -70.76425,41.452802 -4.55276,0.94477 -7.9065,14.09335 -6.86157,21.25217 -9.59162,-2.81567 -17.5239,-17.08345 -22.86882,-16.43622 -17.32044,2.09738 -36.12037,3.2463 -55.76716,3.2463 -19.03652,0 -37.27798,-1.07867 -54.14887,-3.05361 -5.03322,-0.5892 -21.76683,6.92655 -26.9955,9.8203 -0.86287,-4.79366 3.39803,-13.29158 -0.84571,-14.12201 C 63.835714,96.790958 34.134304,81.171048 34.134304,63.352948 c 0,-27.346415 69.960786,-49.51506 156.261796,-49.51506 86.30101,0 156.2618,22.168645 156.2618,49.51506 z"
         style="fill:#fefefe;fill-opacity:1;stroke:#000000;stroke-width:3;stroke-linecap:round;stroke-miterlimit:4;stroke-opacity:1;stroke-dashoffset:0;display:inline" />
      <text
         sodipodi:linespacing="125%"
         id="text11790"
         y="47.276627"
         x="189.94968"
         style="font-size:64px;font-style:normal;font-weight:normal;line-height:125%;letter-spacing:0px;word-spacing:0px;writing-mode:lr-tb;fill:#000000;fill-opacity:1;stroke:none;display:inline;font-family:Sans"
         xml:space="preserve"><tspan
           style="font-size:32px;text-align:center;text-anchor:middle"
           y="47.276627"
           x="189.94968"
           id="tspan11792"
           sodipodi:role="line">お誕生日</tspan><tspan
           style="font-size:32px;text-align:center;text-anchor:middle"
           id="tspan11794"
           y="87.276627"
           x="189.94968"
           sodipodi:role="line">おめでとうですな</tspan></text>
    </g>
  </g>
  <g
     inkscape:groupmode="layer"
     id="layer2"
     inkscape:label="レイヤー"
     sodipodi:insensitive="true">
    <path
       style="fill:#ffffff;stroke:none;display:inline"
       d="m 0,0 0,320 370,0 0,-320 -10,10 0,300 -350,0 0,-300 350,0 10,-10 z"
       id="path21072"
       inkscape:connector-curvature="0"
       sodipodi:nodetypes="ccccccccccc" />
  </g>
</svg>
