<?xml version="1.0" encoding="UTF-8" standalone="no"?>
<!-- Created with Inkscape (http://www.inkscape.org/) -->

<svg
   xmlns:dc="http://purl.org/dc/elements/1.1/"
   xmlns:cc="http://creativecommons.org/ns#"
   xmlns:rdf="http://www.w3.org/1999/02/22-rdf-syntax-ns#"
   xmlns:svg="http://www.w3.org/2000/svg"
   xmlns="http://www.w3.org/2000/svg"
   xmlns:sodipodi="http://sodipodi.sourceforge.net/DTD/sodipodi-0.dtd"
   xmlns:inkscape="http://www.inkscape.org/namespaces/inkscape"
   width="370"
   height="320"
   id="svg3172"
   version="1.1"
   inkscape:version="0.48.4 r9939"
   sodipodi:docname="[36.脅威].svg"
   inkscape:export-filename="C:\Users\執安\Desktop\資料\臨時\svg\[36.脅威].png"
   inkscape:export-xdpi="90"
   inkscape:export-ydpi="90">
  <defs
     id="defs3174" />
  <sodipodi:namedview
     id="base"
     pagecolor="#ffffff"
     bordercolor="#666666"
     borderopacity="1.0"
     inkscape:pageopacity="0.0"
     inkscape:pageshadow="2"
     inkscape:zoom="0.80430638"
     inkscape:cx="-3.3220707"
     inkscape:cy="29.719209"
     inkscape:document-units="px"
     inkscape:current-layer="layer3"
     showgrid="false"
     inkscape:window-width="1098"
     inkscape:window-height="698"
     inkscape:window-x="-5"
     inkscape:window-y="-5"
     inkscape:window-maximized="0" />
  <metadata
     id="metadata3177">
    <rdf:RDF>
      <cc:Work
         rdf:about="">
        <dc:format>image/svg+xml</dc:format>
        <dc:type
           rdf:resource="http://purl.org/dc/dcmitype/StillImage" />
        <dc:title></dc:title>
      </cc:Work>
    </rdf:RDF>
  </metadata>
  <g
     inkscape:label="補助線"
     inkscape:groupmode="layer"
     id="layer1"
     transform="translate(0,-732.36218)"
     sodipodi:insensitive="true"
     style="display:none">
    <path
       style="fill:none;stroke:#0000ff;stroke-width:1px;stroke-linecap:butt;stroke-linejoin:miter;stroke-opacity:1;display:inline"
       d="M 10,1042.3622 360,742.36211"
       id="path3025"
       inkscape:connector-curvature="0"
       sodipodi:nodetypes="cc" />
    <path
       style="fill:none;stroke:#0000ff;stroke-width:1px;stroke-linecap:butt;stroke-linejoin:miter;stroke-opacity:1;display:inline"
       d="M 10,742.36211 360,1042.3622"
       id="path3027"
       inkscape:connector-curvature="0"
       sodipodi:nodetypes="cc" />
    <path
       style="fill:none;stroke:#ff0000;stroke-width:1px;stroke-linecap:butt;stroke-linejoin:miter;stroke-opacity:1;display:inline"
       d="m 10,732.36211 0,320.00009"
       id="path3006"
       inkscape:connector-curvature="0"
       sodipodi:nodetypes="cc" />
    <path
       style="fill:none;stroke:#ff0000;stroke-width:1px;stroke-linecap:butt;stroke-linejoin:miter;stroke-opacity:1;display:inline"
       d="m 360,732.36211 0,320.00009"
       id="path3010"
       inkscape:connector-curvature="0"
       sodipodi:nodetypes="cc" />
    <path
       style="fill:none;stroke:#ff0000;stroke-width:1px;stroke-linecap:butt;stroke-linejoin:miter;stroke-opacity:1;display:inline"
       d="m 0,742.36208 370,3e-5"
       id="path3016"
       inkscape:connector-curvature="0" />
    <path
       style="fill:none;stroke:#ff0000;stroke-width:1px;stroke-linecap:butt;stroke-linejoin:miter;stroke-opacity:1;display:inline"
       d="m 0,1042.3622 370,0"
       id="path3018"
       inkscape:connector-curvature="0"
       sodipodi:nodetypes="cc" />
  </g>
  <g
     inkscape:groupmode="layer"
     id="layer3"
     inkscape:label="豚"
     sodipodi:insensitive="true">
    <path
       sodipodi:type="arc"
       style="fill:#000000;fill-opacity:1;stroke:none;display:inline"
       id="path8056"
       sodipodi:cx="107.6117"
       sodipodi:cy="291.74673"
       sodipodi:rx="65.231804"
       sodipodi:ry="14.957611"
       d="m 172.84351,291.74673 a 65.231804,14.957611 0 1 1 -130.463612,0 65.231804,14.957611 0 1 1 130.463612,0 z"
       transform="matrix(1.178344,0,0,1,-8.9614076,0.20742944)" />
    <g
       id="g8723">
      <path
         sodipodi:nodetypes="sssscsssssss"
         inkscape:connector-curvature="0"
         id="rect7294"
         d="m 334.22118,15.85115 -61.9,0 c -12.90509,0 -23.29439,10.389295 -23.29439,23.294386 l 0,60.227816 c 0,4.839938 -12.42013,10.139918 -21.76982,8.851758 8.23362,8.42678 21.76982,7.32754 21.76982,16.52516 l 0,125.02695 c 0,12.90509 10.3893,23.29439 23.29439,23.29439 l 61.9,0 c 12.90509,0 23.29438,-10.3893 23.29438,-23.29439 l 0,-210.631684 c 0,-12.90509 -10.38929,-23.294386 -23.29438,-23.294386 z"
         style="fill:#fefefe;fill-opacity:1;stroke:#000000;stroke-width:3;stroke-linecap:round;stroke-miterlimit:4;stroke-opacity:1;stroke-dashoffset:0;display:inline" />
      <text
         sodipodi:linespacing="125%"
         id="text7804"
         y="23.479532"
         x="324.89078"
         style="font-size:30.10396576px;font-style:normal;font-weight:normal;line-height:125%;letter-spacing:0px;word-spacing:0px;writing-mode:tb-rl;fill:#000000;fill-opacity:1;stroke:none;display:inline;font-family:Sans"
         xml:space="preserve"><tspan
           style="font-size:30.10396576px"
           y="324.89078"
           x="23.479532"
           sodipodi:role="line"
           id="tspan8031">すごいんですな!</tspan></text>
      <text
         xml:space="preserve"
         style="font-size:30.10396576px;font-style:normal;font-weight:normal;line-height:125%;letter-spacing:0px;word-spacing:0px;writing-mode:tb-rl;fill:#000000;fill-opacity:1;stroke:none;display:inline;font-family:Sans"
         x="281.33197"
         y="32.624916"
         id="text7804-6"
         sodipodi:linespacing="125%"><tspan
           id="tspan8031-1"
           sodipodi:role="line"
           x="32.624916"
           y="281.33197"
           style="font-size:30.10396576px">すごいんですな!</tspan></text>
    </g>
    <g
       id="g8730">
      <path
         style="fill:#fffff8;fill-opacity:1;stroke:#000000;stroke-width:3;stroke-linecap:butt;stroke-linejoin:miter;stroke-opacity:1;display:inline"
         d="M 198.16288,116.86138 C 197.8305,56.564644 148.96656,27.969348 109.3992,29.660823 68.611249,31.404478 25.515065,59.058836 20.663643,122.59211 c -15.9019196,62.29694 7.264819,135.56117 86.538237,156.65626 -5.34588,-4.79969 -7.874511,-18.4499 27.89659,-23.58964 66.91747,-9.61498 77.20564,-56.08645 72.23865,-95.45078 25.32648,-35.31947 24.31409,-58.7482 -9.94696,-53.65779"
         id="path6502"
         inkscape:connector-curvature="0"
         sodipodi:nodetypes="csccscc" />
      <path
         style="fill:#aa0000;stroke:#000000;stroke-width:3;stroke-linecap:butt;stroke-linejoin:miter;stroke-opacity:1;display:inline"
         d="m 172.37033,101.12504 c -2.06384,2.47764 -4.70495,6.32032 -6.85758,5.56737 -4.48836,-1.56994 -7.94413,-8.085959 -19.90083,-5.49799 -10.87032,2.35283 -17.23675,12.95184 -21.52546,16.17764 -5.36202,4.03315 -9.6127,-2.26103 -12.63104,-2.01648 8.57103,3.11337 18.33934,26.40621 39.13808,19.29195 16.30496,-5.57716 13.07398,-22.10962 21.77683,-33.52249 z"
         id="path6504"
         inkscape:connector-curvature="0"
         sodipodi:nodetypes="cssscsc" />
      <path
         style="fill:none;stroke:#000000;stroke-width:3;stroke-linecap:butt;stroke-linejoin:miter;stroke-opacity:1;display:inline"
         d="m 155.86166,77.823958 -3.03538,17.043053"
         id="path6506"
         inkscape:connector-curvature="0"
         sodipodi:nodetypes="cc" />
      <path
         style="fill:none;stroke:#000000;stroke-width:3;stroke-linecap:butt;stroke-linejoin:miter;stroke-opacity:1;display:inline"
         d="m 103.1622,136.45347 c 31.68039,-4.01151 33.08263,8.59376 10.80974,48.54027"
         id="path6508"
         inkscape:connector-curvature="0"
         sodipodi:nodetypes="cc" />
      <path
         style="fill:none;stroke:#000000;stroke-width:3;stroke-linecap:butt;stroke-linejoin:miter;stroke-opacity:1;display:inline"
         d="m 120.873,84.112289 14.31117,14.105886"
         id="path6510"
         inkscape:connector-curvature="0"
         sodipodi:nodetypes="cc" />
      <path
         style="fill:none;stroke:#000000;stroke-width:3;stroke-linecap:butt;stroke-linejoin:miter;stroke-opacity:1;display:inline"
         d="m 136.51732,142.81111 c 33.44303,3.62716 27.20293,18.21294 6.69465,42.36774"
         id="path6512"
         inkscape:connector-curvature="0"
         sodipodi:nodetypes="cc" />
      <path
         style="fill:none;stroke:#000000;stroke-width:3;stroke-linecap:butt;stroke-linejoin:miter;stroke-opacity:1;display:inline"
         d="m 178.81401,133.7739 c -22.34911,13.33051 -21.16417,26.71066 2.56406,39.79586"
         id="path6514"
         inkscape:connector-curvature="0"
         sodipodi:nodetypes="cc" />
      <path
         sodipodi:nodetypes="cc"
         inkscape:connector-curvature="0"
         id="path8058"
         d="m 129.85556,148.90393 c 6.74419,2.90065 12.01128,3.84753 19.37825,4.98587"
         style="fill:none;stroke:#53536c;stroke-width:3;stroke-linecap:butt;stroke-linejoin:miter;stroke-opacity:1;display:inline" />
      <path
         sodipodi:nodetypes="cc"
         inkscape:connector-curvature="0"
         id="path8058-4"
         d="m 127.58513,165.25211 c 5.08224,2.48493 13.4655,3.84753 17.7163,2.90842"
         style="fill:none;stroke:#53536c;stroke-width:3;stroke-linecap:butt;stroke-linejoin:miter;stroke-opacity:1;display:inline" />
      <path
         sodipodi:nodetypes="cc"
         inkscape:connector-curvature="0"
         id="path8058-4-2"
         d="m 178.86179,146.25117 c 7.40307,-2.11475 18.66523,-12.81887 22.03464,-18.21531"
         style="fill:none;stroke:#53536c;stroke-width:3;stroke-linecap:butt;stroke-linejoin:miter;stroke-opacity:1;display:inline" />
      <path
         sodipodi:nodetypes="cc"
         inkscape:connector-curvature="0"
         id="path8058-4-2-3"
         d="m 180.69152,159.76571 c 6.70243,-3.04655 15.74204,-9.48631 21.74084,-14.98357"
         style="fill:none;stroke:#53536c;stroke-width:3;stroke-linecap:butt;stroke-linejoin:miter;stroke-opacity:1;display:inline" />
    </g>
  </g>
  <g
     inkscape:groupmode="layer"
     id="layer4"
     inkscape:label="吹き出し"
     sodipodi:insensitive="true" />
  <g
     inkscape:groupmode="layer"
     id="layer2"
     inkscape:label="レイヤー"
     sodipodi:insensitive="true">
    <path
       style="fill:#ffffff;stroke:none;display:inline"
       d="m 0,0 0,320 370,0 0,-320 -10,10 0,300 -350,0 0,-300 350,0 10,-10 z"
       id="path21072"
       inkscape:connector-curvature="0"
       sodipodi:nodetypes="ccccccccccc" />
  </g>
</svg>
