<?xml version="1.0" encoding="UTF-8" standalone="no"?>
<!-- Created with Inkscape (http://www.inkscape.org/) -->

<svg
   xmlns:dc="http://purl.org/dc/elements/1.1/"
   xmlns:cc="http://creativecommons.org/ns#"
   xmlns:rdf="http://www.w3.org/1999/02/22-rdf-syntax-ns#"
   xmlns:svg="http://www.w3.org/2000/svg"
   xmlns="http://www.w3.org/2000/svg"
   xmlns:sodipodi="http://sodipodi.sourceforge.net/DTD/sodipodi-0.dtd"
   xmlns:inkscape="http://www.inkscape.org/namespaces/inkscape"
   width="370"
   height="320"
   id="svg3172"
   version="1.1"
   inkscape:version="0.48.4 r9939"
   sodipodi:docname="[37.驚嘆].svg"
   inkscape:export-filename="C:\Users\執安\Desktop\資料\臨時\svg\[37.驚嘆].png"
   inkscape:export-xdpi="90"
   inkscape:export-ydpi="90">
  <defs
     id="defs3174" />
  <sodipodi:namedview
     id="base"
     pagecolor="#ffffff"
     bordercolor="#666666"
     borderopacity="1.0"
     inkscape:pageopacity="0.0"
     inkscape:pageshadow="2"
     inkscape:zoom="0.80430638"
     inkscape:cx="166.96949"
     inkscape:cy="182.64138"
     inkscape:document-units="px"
     inkscape:current-layer="layer3"
     showgrid="false"
     inkscape:window-width="1098"
     inkscape:window-height="698"
     inkscape:window-x="-5"
     inkscape:window-y="-5"
     inkscape:window-maximized="0" />
  <metadata
     id="metadata3177">
    <rdf:RDF>
      <cc:Work
         rdf:about="">
        <dc:format>image/svg+xml</dc:format>
        <dc:type
           rdf:resource="http://purl.org/dc/dcmitype/StillImage" />
        <dc:title></dc:title>
      </cc:Work>
    </rdf:RDF>
  </metadata>
  <g
     inkscape:label="補助線"
     inkscape:groupmode="layer"
     id="layer1"
     transform="translate(0,-732.36218)"
     sodipodi:insensitive="true"
     style="display:none">
    <path
       style="fill:none;stroke:#0000ff;stroke-width:1px;stroke-linecap:butt;stroke-linejoin:miter;stroke-opacity:1;display:inline"
       d="M 10,1042.3622 360,742.36211"
       id="path3025"
       inkscape:connector-curvature="0"
       sodipodi:nodetypes="cc" />
    <path
       style="fill:none;stroke:#0000ff;stroke-width:1px;stroke-linecap:butt;stroke-linejoin:miter;stroke-opacity:1;display:inline"
       d="M 10,742.36211 360,1042.3622"
       id="path3027"
       inkscape:connector-curvature="0"
       sodipodi:nodetypes="cc" />
    <path
       style="fill:none;stroke:#ff0000;stroke-width:1px;stroke-linecap:butt;stroke-linejoin:miter;stroke-opacity:1;display:inline"
       d="m 10,732.36211 0,320.00009"
       id="path3006"
       inkscape:connector-curvature="0"
       sodipodi:nodetypes="cc" />
    <path
       style="fill:none;stroke:#ff0000;stroke-width:1px;stroke-linecap:butt;stroke-linejoin:miter;stroke-opacity:1;display:inline"
       d="m 360,732.36211 0,320.00009"
       id="path3010"
       inkscape:connector-curvature="0"
       sodipodi:nodetypes="cc" />
    <path
       style="fill:none;stroke:#ff0000;stroke-width:1px;stroke-linecap:butt;stroke-linejoin:miter;stroke-opacity:1;display:inline"
       d="m 0,742.36208 370,3e-5"
       id="path3016"
       inkscape:connector-curvature="0" />
    <path
       style="fill:none;stroke:#ff0000;stroke-width:1px;stroke-linecap:butt;stroke-linejoin:miter;stroke-opacity:1;display:inline"
       d="m 0,1042.3622 370,0"
       id="path3018"
       inkscape:connector-curvature="0"
       sodipodi:nodetypes="cc" />
  </g>
  <g
     inkscape:groupmode="layer"
     id="layer4"
     inkscape:label="字幕"
     style="display:inline"
     sodipodi:insensitive="true">
    <text
       xml:space="preserve"
       style="font-size:53.80413818px;font-style:oblique;font-weight:normal;line-height:125%;letter-spacing:0px;word-spacing:0px;writing-mode:lr-tb;fill:#000000;fill-opacity:1;stroke:none;display:inline;font-family:Sans;-inkscape-font-specification:Sans Oblique"
       x="32.855793"
       y="91.480995"
       id="text9228"
       sodipodi:linespacing="125%"
       transform="matrix(1.0301041,-0.08458392,-0.31226464,0.99641635,0,0)"><tspan
         sodipodi:role="line"
         id="tspan9230"
         x="32.855793"
         y="91.480995">ナイスヒット</tspan></text>
  </g>
  <g
     inkscape:groupmode="layer"
     id="layer11"
     inkscape:label="ボール"
     style="display:inline"
     sodipodi:insensitive="true">
    <path
       style="fill:none;stroke:#c83737;stroke-width:3;stroke-linecap:butt;stroke-linejoin:miter;stroke-opacity:1;display:inline"
       d="m 424.86088,149.04288 -188.83669,4.5164 86.09485,-35.00191"
       id="path8638-3"
       inkscape:connector-curvature="0"
       sodipodi:nodetypes="ccc" />
    <path
       style="fill:none;stroke:#c83737;stroke-width:3;stroke-linecap:butt;stroke-linejoin:miter;stroke-opacity:1;display:inline"
       d="m 413.31168,158.88961 -188.83669,4.5164 86.09485,-35.00191"
       id="path8638"
       inkscape:connector-curvature="0"
       sodipodi:nodetypes="ccc" />
    <path
       style="fill:none;stroke:#c83737;stroke-width:3;stroke-linecap:butt;stroke-linejoin:miter;stroke-opacity:1;display:inline"
       d="m 407.80803,152.29219 -196.73098,4.93189 106.03833,-43.31169"
       id="path8638-3-8"
       inkscape:connector-curvature="0"
       sodipodi:nodetypes="ccc" />
    <g
       id="g9410">
      <path
         transform="matrix(6.8288384,0,0,6.8288384,-1969.463,-335.97243)"
         d="m 350.67289,134.27634 a 26.175819,26.175819 0 1 1 -52.35164,0 26.175819,26.175819 0 1 1 52.35164,0 z"
         sodipodi:ry="26.175819"
         sodipodi:rx="26.175819"
         sodipodi:cy="134.27634"
         sodipodi:cx="324.49707"
         id="path8220"
         style="fill:none;stroke:#000000;stroke-width:0.22728159;stroke-linecap:round;stroke-miterlimit:4;stroke-opacity:1;stroke-dasharray:none;stroke-dashoffset:0;display:inline"
         sodipodi:type="arc" />
      <path
         sodipodi:nodetypes="csc"
         inkscape:connector-curvature="0"
         id="path8233"
         d="M 72.575623,538.84677 C 123.67752,469.6245 230.26871,514.44993 268.3796,593.11554 c 41.4711,85.60148 25.68532,156.91224 -63.47067,161.99335"
         style="fill:none;stroke:#c8b7b7;stroke-width:1px;stroke-linecap:butt;stroke-linejoin:miter;stroke-opacity:1;display:inline" />
      <path
         sodipodi:nodetypes="csc"
         inkscape:connector-curvature="0"
         id="path8235"
         d="m 319.51664,417.70714 c 13.26866,18.34083 45.21284,58.76291 65.06576,108.80692 17.34162,43.71371 36.51683,97.16231 28.36112,120.35335"
         style="fill:none;stroke:#c8b7b7;stroke-width:1px;stroke-linecap:butt;stroke-linejoin:miter;stroke-opacity:1;display:inline" />
      <path
         inkscape:connector-curvature="0"
         id="path8237"
         d="m 76.107283,541.96294 -0.62324,-7.8943 4.1549,-11.63369"
         style="fill:none;stroke:#ff0000;stroke-width:1px;stroke-linecap:butt;stroke-linejoin:miter;stroke-opacity:1;display:inline" />
      <path
         inkscape:connector-curvature="0"
         id="path8239"
         d="m 82.131873,537.39256 -1.03872,-8.30979 5.81685,-14.95761"
         style="fill:none;stroke:#ff0000;stroke-width:1px;stroke-linecap:butt;stroke-linejoin:miter;stroke-opacity:1;display:inline" />
      <path
         inkscape:connector-curvature="0"
         id="path8241"
         d="m 89.402933,532.40669 -0.83098,-10.59498 5.40136,-11.84144"
         style="fill:none;stroke:#ff0000;stroke-width:1px;stroke-linecap:butt;stroke-linejoin:miter;stroke-opacity:1;display:inline" />
      <path
         inkscape:connector-curvature="0"
         id="path8243"
         d="m 98.751443,528.45954 0,-13.5034 5.609097,-12.04918"
         style="fill:none;stroke:#ff0000;stroke-width:1px;stroke-linecap:butt;stroke-linejoin:miter;stroke-opacity:1;display:inline" />
      <path
         inkscape:connector-curvature="0"
         id="path8245"
         d="m 108.30769,523.88916 -1.03872,-12.88017 7.68655,-12.25693"
         style="fill:none;stroke:#ff0000;stroke-width:1px;stroke-linecap:butt;stroke-linejoin:miter;stroke-opacity:1;display:inline" />
      <path
         inkscape:connector-curvature="0"
         id="path8247"
         d="m 120.35688,522.64269 -0.62324,-16.41182 7.47881,-9.97174"
         style="fill:none;stroke:#ff0000;stroke-width:1px;stroke-linecap:butt;stroke-linejoin:miter;stroke-opacity:1;display:inline" />
      <path
         inkscape:connector-curvature="0"
         id="path8249"
         d="m 132.82155,519.31878 -0.20774,-14.54212 7.68655,-9.34851"
         style="fill:none;stroke:#ff0000;stroke-width:1px;stroke-linecap:butt;stroke-linejoin:miter;stroke-opacity:1;display:inline" />
      <path
         inkscape:connector-curvature="0"
         id="path8251"
         d="m 146.5327,519.11103 -1.24647,-14.95761 9.55625,-9.3485"
         style="fill:none;stroke:#ff0000;stroke-width:1px;stroke-linecap:butt;stroke-linejoin:miter;stroke-opacity:1;display:inline" />
      <path
         inkscape:connector-curvature="0"
         id="path8253"
         d="m 161.69805,520.98073 -1.66196,-14.54212 9.14077,-9.55625"
         style="fill:none;stroke:#ff0000;stroke-width:1px;stroke-linecap:butt;stroke-linejoin:miter;stroke-opacity:1;display:inline" />
      <path
         inkscape:connector-curvature="0"
         id="path8255"
         d="m 175.82468,524.51239 -0.20774,-13.71114 9.764,-10.59497"
         style="fill:none;stroke:#ff0000;stroke-width:1px;stroke-linecap:butt;stroke-linejoin:miter;stroke-opacity:1;display:inline" />
      <path
         inkscape:connector-curvature="0"
         id="path8257"
         d="m 191.19778,530.32924 -1.66195,-14.12663 9.97174,-8.10204"
         style="fill:none;stroke:#ff0000;stroke-width:1px;stroke-linecap:butt;stroke-linejoin:miter;stroke-opacity:1;display:inline" />
      <path
         inkscape:connector-curvature="0"
         id="path8259"
         d="m 205.32442,536.76932 -0.62324,-12.46467 10.59498,-7.06332"
         style="fill:none;stroke:#ff0000;stroke-width:1px;stroke-linecap:butt;stroke-linejoin:miter;stroke-opacity:1;display:inline" />
      <path
         inkscape:connector-curvature="0"
         id="path8261"
         d="m 217.78909,549.02626 0.62324,-15.99634 12.88016,-4.98587"
         style="fill:none;stroke:#ff0000;stroke-width:1px;stroke-linecap:butt;stroke-linejoin:miter;stroke-opacity:1;display:inline" />
      <path
         inkscape:connector-curvature="0"
         id="path8263"
         d="m 230.04602,561.90642 2.07745,-17.2428 14.33438,-4.15489"
         style="fill:none;stroke:#ff0000;stroke-width:1px;stroke-linecap:butt;stroke-linejoin:miter;stroke-opacity:1;display:inline" />
      <path
         inkscape:connector-curvature="0"
         id="path8265"
         d="m 239.39453,576.65629 c 0,-1.66196 6.44008,-17.2428 6.44008,-17.2428 l 11.84144,-3.94715"
         style="fill:none;stroke:#ff0000;stroke-width:1px;stroke-linecap:butt;stroke-linejoin:miter;stroke-opacity:1;display:inline" />
      <path
         inkscape:connector-curvature="0"
         id="path8267"
         d="m 250.19725,586.42028 7.06332,-12.25693 14.54212,-2.28519"
         style="fill:none;stroke:#ff0000;stroke-width:1px;stroke-linecap:butt;stroke-linejoin:miter;stroke-opacity:1;display:inline" />
      <path
         inkscape:connector-curvature="0"
         id="path8269"
         d="m 258.29929,604.07857 8.10204,-14.12663 15.16535,-0.20774"
         style="fill:none;stroke:#ff0000;stroke-width:1px;stroke-linecap:butt;stroke-linejoin:miter;stroke-opacity:1;display:inline" />
      <path
         inkscape:connector-curvature="0"
         id="path8271"
         d="m 266.60907,618.41295 8.30979,-10.38723 14.95761,1.03872"
         style="fill:none;stroke:#ff0000;stroke-width:1px;stroke-linecap:butt;stroke-linejoin:miter;stroke-opacity:1;display:inline" />
      <path
         inkscape:connector-curvature="0"
         id="path8273"
         d="m 272.01043,633.37056 9.55625,-10.80272 14.54212,4.98587"
         style="fill:none;stroke:#ff0000;stroke-width:1px;stroke-linecap:butt;stroke-linejoin:miter;stroke-opacity:1;display:inline" />
      <path
         inkscape:connector-curvature="0"
         id="path8275"
         d="m 276.78856,649.15915 c 1.03872,-0.83098 9.55625,-9.34851 9.55625,-9.34851 l 14.54212,6.0246"
         style="fill:none;stroke:#ff0000;stroke-width:1px;stroke-linecap:butt;stroke-linejoin:miter;stroke-opacity:1;display:inline" />
      <path
         inkscape:connector-curvature="0"
         id="path8277"
         d="m 277.61954,663.90902 c 0.83097,-0.41549 12.04918,-7.68655 12.04918,-7.68655 l 11.84144,7.27106"
         style="fill:none;stroke:#ff0000;stroke-width:1px;stroke-linecap:butt;stroke-linejoin:miter;stroke-opacity:1;display:inline" />
      <path
         inkscape:connector-curvature="0"
         id="path8279"
         d="m 279.07375,677.62016 10.59497,-6.02459 12.46468,8.10204"
         style="fill:none;stroke:#ff0000;stroke-width:1px;stroke-linecap:butt;stroke-linejoin:miter;stroke-opacity:1;display:inline" />
      <path
         inkscape:connector-curvature="0"
         id="path8281"
         d="m 276.16532,691.53905 c 0.83098,0 12.88017,-4.77813 12.88017,-4.77813 l 10.38723,9.34851"
         style="fill:none;stroke:#ff0000;stroke-width:1px;stroke-linecap:butt;stroke-linejoin:miter;stroke-opacity:1;display:inline" />
      <path
         inkscape:connector-curvature="0"
         id="path8283"
         d="m 274.29562,703.79598 11.84144,-2.07745 9.34851,8.72528"
         style="fill:none;stroke:#ff0000;stroke-width:1px;stroke-linecap:butt;stroke-linejoin:miter;stroke-opacity:1;display:inline" />
      <path
         inkscape:connector-curvature="0"
         id="path8285"
         d="m 267.44005,715.22193 13.29565,0.20775 7.27107,8.10204"
         style="fill:none;stroke:#ff0000;stroke-width:1px;stroke-linecap:butt;stroke-linejoin:miter;stroke-opacity:1;display:inline" />
      <path
         inkscape:connector-curvature="0"
         id="path8287"
         d="m 260.58448,725.81691 c 2.07744,0.20774 12.04919,0.41549 12.04919,0.41549 l -0.20775,10.17948"
         style="fill:none;stroke:#ff0000;stroke-width:1px;stroke-linecap:butt;stroke-linejoin:miter;stroke-opacity:1;display:inline" />
      <path
         sodipodi:nodetypes="ccc"
         inkscape:connector-curvature="0"
         id="path8289"
         d="m 245.62687,735.37316 14.33437,3.32391 2.70068,6.23234"
         style="fill:none;stroke:#ff0000;stroke-width:1px;stroke-linecap:butt;stroke-linejoin:miter;stroke-opacity:1;display:inline" />
      <path
         inkscape:connector-curvature="0"
         id="path8291"
         d="m 235.23964,741.81324 12.67242,3.32391 2.70068,5.40136"
         style="fill:none;stroke:#ff0000;stroke-width:1px;stroke-linecap:butt;stroke-linejoin:miter;stroke-opacity:1;display:inline" />
      <path
         inkscape:connector-curvature="0"
         id="path8293"
         d="m 221.32075,744.92941 15.16536,5.19361 0.83097,4.36264"
         style="fill:none;stroke:#ff0000;stroke-width:1px;stroke-linecap:butt;stroke-linejoin:miter;stroke-opacity:1;display:inline" />
      <path
         inkscape:connector-curvature="0"
         id="path8295"
         d="m 209.68705,747.2146 14.54212,5.40136 3.32392,3.32391"
         style="fill:none;stroke:#ff0000;stroke-width:1px;stroke-linecap:butt;stroke-linejoin:miter;stroke-opacity:1;display:inline" />
      <path
         inkscape:connector-curvature="0"
         id="path8297"
         d="m 196.3914,747.00685 13.08791,7.47881 6.44008,1.8697"
         style="fill:none;stroke:#ff0000;stroke-width:1px;stroke-linecap:butt;stroke-linejoin:miter;stroke-opacity:1;display:inline" />
      <path
         inkscape:connector-curvature="0"
         id="path8299"
         d="m 185.79642,746.59137 6.23234,3.94714"
         style="fill:none;stroke:#ff0000;stroke-width:1px;stroke-linecap:butt;stroke-linejoin:miter;stroke-opacity:1;display:inline" />
      <path
         inkscape:connector-curvature="0"
         id="path8301"
         d="m 312.72837,418.35491 c 0.83098,0 9.764,3.11617 9.764,3.11617 l 2.90842,0.41549"
         style="fill:none;stroke:#ff0000;stroke-width:1px;stroke-linecap:butt;stroke-linejoin:miter;stroke-opacity:1;display:inline" />
      <path
         inkscape:connector-curvature="0"
         id="path8303"
         d="m 317.29875,425.83371 c 1.66196,0 11.84145,4.36264 11.84145,4.36264 l 10.38722,2.49294"
         style="fill:none;stroke:#ff0000;stroke-width:1px;stroke-linecap:butt;stroke-linejoin:miter;stroke-opacity:1;display:inline" />
      <path
         inkscape:connector-curvature="0"
         id="path8305"
         d="m 323.53109,434.76673 12.25693,5.19362 9.764,1.24646"
         style="fill:none;stroke:#ff0000;stroke-width:1px;stroke-linecap:butt;stroke-linejoin:miter;stroke-opacity:1;display:inline" />
      <path
         inkscape:connector-curvature="0"
         id="path8307"
         d="m 330.80215,443.49201 13.29566,7.89429 8.10204,-1.8697"
         style="fill:none;stroke:#ff0000;stroke-width:1px;stroke-linecap:butt;stroke-linejoin:miter;stroke-opacity:1;display:inline" />
      <path
         inkscape:connector-curvature="0"
         id="path8309"
         d="m 337.65772,456.9954 14.95761,8.30979 4.98587,-3.7394"
         style="fill:none;stroke:#ff0000;stroke-width:1px;stroke-linecap:butt;stroke-linejoin:miter;stroke-opacity:1;display:inline" />
      <path
         inkscape:connector-curvature="0"
         id="path8311"
         d="m 343.05908,470.29106 17.65829,8.51752 5.19362,-4.15489"
         style="fill:none;stroke:#ff0000;stroke-width:1px;stroke-linecap:butt;stroke-linejoin:miter;stroke-opacity:1;display:inline" />
      <path
         inkscape:connector-curvature="0"
         id="path8313"
         d="m 356.14699,487.32611 13.08791,5.6091 4.15489,-4.15489"
         style="fill:none;stroke:#ff0000;stroke-width:1px;stroke-linecap:butt;stroke-linejoin:miter;stroke-opacity:1;display:inline" />
      <path
         inkscape:connector-curvature="0"
         id="path8315"
         d="m 362.17159,503.32244 c 1.03872,0.20775 15.58084,6.64783 15.58084,6.64783 l 2.28519,-6.23234"
         style="fill:none;stroke:#ff0000;stroke-width:1px;stroke-linecap:butt;stroke-linejoin:miter;stroke-opacity:1;display:inline" />
      <path
         inkscape:connector-curvature="0"
         id="path8317"
         d="m 370.68911,520.14976 13.91889,6.23233 1.8697,-7.27106"
         style="fill:none;stroke:#ff0000;stroke-width:1px;stroke-linecap:butt;stroke-linejoin:miter;stroke-opacity:1;display:inline" />
      <path
         inkscape:connector-curvature="0"
         id="path8319"
         d="m 377.54469,539.05451 c 0.83097,0 13.50339,3.73941 13.50339,3.73941 l 1.24647,-9.764"
         style="fill:none;stroke:#ff0000;stroke-width:1px;stroke-linecap:butt;stroke-linejoin:miter;stroke-opacity:1;display:inline" />
      <path
         inkscape:connector-curvature="0"
         id="path8321"
         d="m 385.23124,556.50506 c 1.03872,0 10.80271,1.8697 10.80271,1.8697 l 3.94715,-9.97174"
         style="fill:none;stroke:#ff0000;stroke-width:1px;stroke-linecap:butt;stroke-linejoin:miter;stroke-opacity:1;display:inline" />
      <path
         inkscape:connector-curvature="0"
         id="path8323"
         d="m 392.08681,574.78659 c 1.45421,0 9.97174,-0.20775 9.97174,-0.20775 l 1.8697,-10.80272"
         style="fill:none;stroke:#ff0000;stroke-width:1px;stroke-linecap:butt;stroke-linejoin:miter;stroke-opacity:1;display:inline" />
      <path
         inkscape:connector-curvature="0"
         id="path8325"
         d="m 397.48817,593.06811 c 2.07744,-0.41549 9.97174,-2.90842 9.97174,-2.90842 l 1.45421,-11.42596"
         style="fill:none;stroke:#ff0000;stroke-width:1px;stroke-linecap:butt;stroke-linejoin:miter;stroke-opacity:1;display:inline" />
      <path
         inkscape:connector-curvature="0"
         id="path8327"
         d="m 401.8508,608.44121 8.30979,-5.6091 2.70068,-11.42596"
         style="fill:none;stroke:#ff0000;stroke-width:1px;stroke-linecap:butt;stroke-linejoin:miter;stroke-opacity:1;display:inline" />
      <path
         inkscape:connector-curvature="0"
         id="path8329"
         d="m 405.38246,623.60657 c 0.83098,-0.20775 7.27106,-9.34851 7.27106,-9.34851 l 2.49294,-9.14076"
         style="fill:none;stroke:#ff0000;stroke-width:1px;stroke-linecap:butt;stroke-linejoin:miter;stroke-opacity:1;display:inline" />
      <path
         inkscape:connector-curvature="0"
         id="path8331"
         d="m 408.29089,634.20154 6.02459,-9.14076 2.90842,-9.14076"
         style="fill:none;stroke:#ff0000;stroke-width:1px;stroke-linecap:butt;stroke-linejoin:miter;stroke-opacity:1;display:inline" />
      <path
         inkscape:connector-curvature="0"
         id="path8333"
         d="m 408.91412,643.3423 5.81685,-8.93302 2.49293,-6.23233"
         style="fill:none;stroke:#ff0000;stroke-width:1px;stroke-linecap:butt;stroke-linejoin:miter;stroke-opacity:1;display:inline" />
    </g>
    <g
       style="display:inline"
       id="g9222"
       transform="translate(-3.0705063,-6.590158)">
      <path
         transform="matrix(0.87235041,0,0,0.87235041,43.918932,5.1397965)"
         d="m 350.67289,134.27634 a 26.175819,26.175819 0 1 1 -52.35164,0 26.175819,26.175819 0 1 1 52.35164,0 z"
         sodipodi:ry="26.175819"
         sodipodi:rx="26.175819"
         sodipodi:cy="134.27634"
         sodipodi:cx="324.49707"
         id="path8220-2-6"
         style="fill:#fefefe;fill-opacity:1;stroke:none;display:inline"
         sodipodi:type="arc" />
      <path
         sodipodi:nodetypes="csc"
         inkscape:connector-curvature="0"
         id="path8233-2"
         d="m 304.77928,116.89363 c 6.52801,-8.8428 20.14452,-3.11659 25.01299,6.93257 5.29773,10.93517 3.28118,20.04476 -8.10807,20.69386"
         style="fill:none;stroke:#ff0000;stroke-width:2;stroke-linecap:butt;stroke-linejoin:miter;stroke-opacity:1;display:inline" />
      <path
         sodipodi:nodetypes="csc"
         inkscape:connector-curvature="0"
         id="path8235-1"
         d="m 336.32477,101.41864 c 1.69501,2.34295 5.77572,7.50667 8.31184,13.89954 2.2153,5.58421 4.66483,12.41201 3.62298,15.37455"
         style="fill:none;stroke:#ff0000;stroke-width:2;stroke-linecap:butt;stroke-linejoin:miter;stroke-opacity:1;display:inline" />
      <path
         transform="matrix(0.87235041,0,0,0.87235041,43.918921,5.1397957)"
         d="m 350.67289,134.27634 a 26.175819,26.175819 0 1 1 -52.35164,0 26.175819,26.175819 0 1 1 52.35164,0 z"
         sodipodi:ry="26.175819"
         sodipodi:rx="26.175819"
         sodipodi:cy="134.27634"
         sodipodi:cx="324.49707"
         id="path8220-2"
         style="fill:none;stroke:#000000;stroke-width:2.29265666;stroke-linecap:round;stroke-miterlimit:4;stroke-opacity:1;stroke-dasharray:none;stroke-dashoffset:0;display:inline"
         sodipodi:type="arc" />
    </g>
  </g>
  <g
     inkscape:groupmode="layer"
     id="layer3"
     inkscape:label="豚"
     sodipodi:insensitive="true">
    <path
       sodipodi:type="arc"
       style="fill:#000000;fill-opacity:1;stroke:none;display:inline"
       id="path8056"
       sodipodi:cx="107.6117"
       sodipodi:cy="291.74673"
       sodipodi:rx="65.231804"
       sodipodi:ry="14.957611"
       d="m 172.84351,291.74673 a 65.231804,14.957611 0 1 1 -130.463612,0 65.231804,14.957611 0 1 1 130.463612,0 z"
       transform="matrix(1.178344,0,0,1,-10.771276,2.122882)" />
    <g
       id="g9527">
      <path
         style="fill:#fffff8;fill-opacity:1;stroke:#000000;stroke-width:3;stroke-linecap:butt;stroke-linejoin:miter;stroke-opacity:1;display:inline"
         d="m 145.24072,190.75288 c 19.64168,32.41392 69.49954,-19.76791 22.83259,-58.21919 -13.36993,-39.379147 -51.89633,-57.104787 -79.158527,-54.196587 -35.70943,3.80931 -76.91465,28.313317 -75.04816,87.845527 -20.2291793,91.95961 102.198417,162.92285 191.422347,41.00368 -19.55752,3.77334 -13.34403,-18.88542 -21.08066,-23.86554"
         id="path6600"
         inkscape:connector-curvature="0"
         sodipodi:nodetypes="ccsccc" />
      <path
         style="fill:#aa0000;stroke:#000000;stroke-width:3;stroke-linecap:butt;stroke-linejoin:miter;stroke-opacity:1;display:inline"
         d="m 91.294323,154.94007 c 3.69664,0.3343 7.545,3.05609 10.333877,2.13967 6.30622,-2.07228 6.57574,-12.76023 18.39882,-18.33263 9.56031,-4.50592 12.89772,0.65253 16.59771,1.46625 3.60579,0.79303 3.81401,-0.0815 7.6724,-5.01362 -5.82388,6.43811 -2.45753,21.85008 -16.72938,27.68435 -20.50319,8.38163 -24.35543,-5.19207 -36.273427,-7.94402 z"
         id="path6602"
         inkscape:connector-curvature="0"
         sodipodi:nodetypes="cssscsc" />
      <path
         style="fill:none;stroke:#000000;stroke-width:3;stroke-linecap:butt;stroke-linejoin:miter;stroke-opacity:1;display:inline"
         d="m 96.225993,128.1664 11.137847,8.99683"
         id="path6604"
         inkscape:connector-curvature="0"
         sodipodi:nodetypes="cc" />
      <path
         style="fill:none;stroke:#000000;stroke-width:3;stroke-linecap:butt;stroke-linejoin:miter;stroke-opacity:1;display:inline"
         d="m 122.66083,118.94785 1.05155,12.36043"
         id="path6606"
         inkscape:connector-curvature="0"
         sodipodi:nodetypes="cc" />
    </g>
    <path
       sodipodi:nodetypes="cssc"
       inkscape:connector-curvature="0"
       id="path6608"
       d="m 133.03397,177.30264 120.7019,-55.20551 c 22.06475,-10.09177 34.01968,25.11804 13.41463,31.4954 l -129.0089,39.92885"
       style="fill:#e9c6af;stroke:#000000;stroke-width:3;stroke-linecap:butt;stroke-linejoin:miter;stroke-opacity:1;display:inline" />
    <path
       sodipodi:nodetypes="cc"
       id="path6610"
       d="m 103.2142,171.34565 c 69.26313,-4.81844 38.9984,33.34568 16.82441,51.67248"
       style="fill:#fffff8;fill-opacity:1;stroke:#000000;stroke-width:3;stroke-linecap:butt;stroke-linejoin:miter;stroke-opacity:1;display:inline"
       inkscape:connector-curvature="0" />
    <path
       style="fill:none;stroke:#7c6f91;stroke-width:3;stroke-linecap:butt;stroke-linejoin:miter;stroke-opacity:1;display:inline"
       d="m 269.57146,143.0086 c 51.60658,18.28156 -90.99794,71.13525 -212.707747,85.78821"
       id="path9166"
       inkscape:connector-curvature="0"
       sodipodi:nodetypes="cc" />
    <path
       style="fill:none;stroke:#7c6f91;stroke-width:3;stroke-linecap:butt;stroke-linejoin:miter;stroke-opacity:1;display:inline"
       d="m 235.35206,155.93559 c 38.67959,5.94216 -61.03083,42.34332 -168.638467,61.10941"
       id="path9166-1"
       inkscape:connector-curvature="0"
       sodipodi:nodetypes="cc" />
  </g>
  <g
     inkscape:groupmode="layer"
     id="layer2"
     inkscape:label="レイヤー"
     sodipodi:insensitive="true">
    <path
       style="fill:#ffffff;stroke:none;display:inline"
       d="m 0,0 0,320 370,0 0,-320 -10,10 0,300 -350,0 0,-300 350,0 10,-10 z"
       id="path21072"
       inkscape:connector-curvature="0"
       sodipodi:nodetypes="ccccccccccc" />
  </g>
</svg>
