<?xml version="1.0" encoding="UTF-8" standalone="no"?>
<!-- Created with Inkscape (http://www.inkscape.org/) -->

<svg
   xmlns:dc="http://purl.org/dc/elements/1.1/"
   xmlns:cc="http://creativecommons.org/ns#"
   xmlns:rdf="http://www.w3.org/1999/02/22-rdf-syntax-ns#"
   xmlns:svg="http://www.w3.org/2000/svg"
   xmlns="http://www.w3.org/2000/svg"
   xmlns:sodipodi="http://sodipodi.sourceforge.net/DTD/sodipodi-0.dtd"
   xmlns:inkscape="http://www.inkscape.org/namespaces/inkscape"
   width="370"
   height="320"
   id="svg3172"
   version="1.1"
   inkscape:version="0.48.4 r9939"
   sodipodi:docname="[20.満悦].svg">
  <defs
     id="defs3174" />
  <sodipodi:namedview
     id="base"
     pagecolor="#ffffff"
     bordercolor="#666666"
     borderopacity="1.0"
     inkscape:pageopacity="0.0"
     inkscape:pageshadow="2"
     inkscape:zoom="0.96277105"
     inkscape:cx="129.89462"
     inkscape:cy="174.2021"
     inkscape:document-units="px"
     inkscape:current-layer="layer5"
     showgrid="false"
     inkscape:window-width="1260"
     inkscape:window-height="698"
     inkscape:window-x="-2"
     inkscape:window-y="-5"
     inkscape:window-maximized="0" />
  <metadata
     id="metadata3177">
    <rdf:RDF>
      <cc:Work
         rdf:about="">
        <dc:format>image/svg+xml</dc:format>
        <dc:type
           rdf:resource="http://purl.org/dc/dcmitype/StillImage" />
        <dc:title></dc:title>
      </cc:Work>
    </rdf:RDF>
  </metadata>
  <g
     inkscape:label="補助線"
     inkscape:groupmode="layer"
     id="layer1"
     transform="translate(0,-732.36218)"
     sodipodi:insensitive="true"
     style="display:none">
    <path
       style="fill:none;stroke:#0000ff;stroke-width:1px;stroke-linecap:butt;stroke-linejoin:miter;stroke-opacity:1;display:inline"
       d="M 10,1042.3622 360,742.36211"
       id="path3025"
       inkscape:connector-curvature="0"
       sodipodi:nodetypes="cc" />
    <path
       style="fill:none;stroke:#0000ff;stroke-width:1px;stroke-linecap:butt;stroke-linejoin:miter;stroke-opacity:1;display:inline"
       d="M 10,742.36211 360,1042.3622"
       id="path3027"
       inkscape:connector-curvature="0"
       sodipodi:nodetypes="cc" />
    <path
       style="fill:none;stroke:#ff0000;stroke-width:1px;stroke-linecap:butt;stroke-linejoin:miter;stroke-opacity:1;display:inline"
       d="m 10,732.36211 0,320.00009"
       id="path3006"
       inkscape:connector-curvature="0"
       sodipodi:nodetypes="cc" />
    <path
       style="fill:none;stroke:#ff0000;stroke-width:1px;stroke-linecap:butt;stroke-linejoin:miter;stroke-opacity:1;display:inline"
       d="m 360,732.36211 0,320.00009"
       id="path3010"
       inkscape:connector-curvature="0"
       sodipodi:nodetypes="cc" />
    <path
       style="fill:none;stroke:#ff0000;stroke-width:1px;stroke-linecap:butt;stroke-linejoin:miter;stroke-opacity:1;display:inline"
       d="m 0,742.36208 370,3e-5"
       id="path3016"
       inkscape:connector-curvature="0" />
    <path
       style="fill:none;stroke:#ff0000;stroke-width:1px;stroke-linecap:butt;stroke-linejoin:miter;stroke-opacity:1;display:inline"
       d="m 0,1042.3622 370,0"
       id="path3018"
       inkscape:connector-curvature="0"
       sodipodi:nodetypes="cc" />
  </g>
  <g
     inkscape:groupmode="layer"
     id="layer3"
     inkscape:label="豚"
     sodipodi:insensitive="true">
    <g
       id="g3738">
      <path
         style="fill:#fffff8;fill-opacity:1;stroke:#000000;stroke-width:3;stroke-linecap:butt;stroke-linejoin:miter;stroke-opacity:1;display:inline"
         d="m 118.83134,214.68279 c -21.536631,5.83516 -11.49573,-21.35131 -0.18707,-40.22952"
         id="path6382"
         inkscape:connector-curvature="0"
         sodipodi:nodetypes="cc" />
      <path
         sodipodi:nodetypes="cscc"
         style="fill:#fffff8;fill-opacity:1;stroke:#000000;stroke-width:3;stroke-linecap:butt;stroke-linejoin:miter;stroke-opacity:1;display:inline"
         d="m 117.44548,204.48106 c -5.01388,48.78328 40.20361,71.929 80.92891,64.63773 35.69747,-6.3911 52.1658,-25.00719 62.33553,-39.29175 -13.92242,-3.02552 -10.27967,-27.94934 -15.00646,-38.35478"
         id="path6384"
         inkscape:connector-curvature="0" />
      <path
         style="fill:#fffff8;fill-opacity:1;stroke:#000000;stroke-width:3;stroke-linecap:butt;stroke-linejoin:miter;stroke-opacity:1;display:inline"
         d="m 117.04733,182.01194 c 0.76686,-44.36094 29.64149,-62.15826 54.95802,-65.76132 26.63789,-3.7911 59.90245,14.20138 67.27548,49.03297 28.38013,30.96795 24.25873,37.81882 6.10353,38.30035"
         id="path6724"
         inkscape:connector-curvature="0"
         sodipodi:nodetypes="cscc" />
      <path
         style="fill:#800000;stroke:#000000;stroke-width:3;stroke-linecap:butt;stroke-linejoin:miter;stroke-opacity:1;display:inline"
         d="m 163.08514,174.43119 c 11.16654,-2.12599 13.57243,-15.5491 24.97502,-16.89255 11.95421,-1.40842 9.04007,5.23137 20.26919,2.7205 -9.68803,4.67143 -7.93203,11.03739 -15.96999,13.50985 -8.92566,2.74531 -17.89004,-0.024 -29.27422,0.6622 z"
         id="path6726"
         inkscape:connector-curvature="0"
         sodipodi:nodetypes="csccc" />
      <path
         style="fill:none;stroke:#000000;stroke-width:3;stroke-linecap:butt;stroke-linejoin:miter;stroke-opacity:1;display:inline"
         d="m 174.2552,143.75272 2.38557,10.20846"
         id="path6728"
         inkscape:connector-curvature="0" />
      <path
         style="fill:none;stroke:#000000;stroke-width:3;stroke-linecap:butt;stroke-linejoin:miter;stroke-opacity:1;display:inline"
         d="m 191.92696,141.92486 1.6379,8.96662"
         id="path6730"
         inkscape:connector-curvature="0" />
    </g>
    <path
       sodipodi:type="arc"
       style="fill:#000000;fill-opacity:1;stroke:none;display:inline"
       id="path7019"
       sodipodi:cx="211.28123"
       sodipodi:cy="296.73969"
       sodipodi:rx="65.258118"
       sodipodi:ry="9.0456791"
       d="m 276.53935,296.73969 a 65.258118,9.0456791 0 1 1 -130.51623,0 65.258118,9.0456791 0 1 1 130.51623,0 z"
       transform="translate(-20.990736,2.2012305)" />
  </g>
  <g
     inkscape:groupmode="layer"
     id="layer5"
     inkscape:label="雲"
     style="display:inline"
     sodipodi:insensitive="true">
    <g
       id="g3750">
      <path
         style="fill:#fefefe;fill-opacity:1;stroke:none;display:inline"
         d="M 128.83332,22.137911 C 57.65086,11.477538 61.663603,85.971891 110.4928,73.495453 c 9.89224,2.537717 17.23071,4.189111 30.3109,0.351121 0.90464,13.471566 31.5756,16.957363 41.74212,5.582665 11.5247,9.058285 26.33928,2.9573 36.45027,-8.476833 27.5043,-2.097909 26.48235,-36.577845 -2.11927,-39.417267 C 209.9509,23.627467 199.44671,20.267821 181.69815,25.17753 174.50882,13.23015 150.24256,4.5587367 128.83332,22.137911 z"
         id="path6734"
         inkscape:connector-curvature="0"
         sodipodi:nodetypes="cccccccc" />
      <path
         style="fill:#e3dbdb;stroke:none;display:inline"
         d="m 75.077127,43.105042 c -4.215501,9.260162 2.764192,37.97964 34.639693,29.741618 9.89223,2.537718 17.23071,4.189112 30.31089,0.351121 0.90465,13.471567 31.57561,16.957364 41.74213,5.582666 11.5247,9.058285 26.33928,2.9573 36.45027,-8.476833 6.74525,-0.514496 14.77202,-2.746813 15.9796,-7.657818 C 234.02224,51.523608 213.99805,51.127791 207.54373,52.739241 202.43623,41.103439 184.22902,41.178413 176.24066,44.672596 172.01203,33.767921 133.93522,33.405278 123.67925,46.107229 116.48991,34.159849 80.60231,33.617797 75.077127,43.105042 z"
         id="path6736"
         inkscape:connector-curvature="0"
         sodipodi:nodetypes="cccccccccc" />
      <path
         style="fill:none;stroke:#000000;stroke-width:3;stroke-linecap:butt;stroke-linejoin:miter;stroke-opacity:1"
         d="M 128.53486,21.792424 C 57.352405,11.13205 61.365148,85.626403 110.19435,73.149965 c 9.89223,2.537717 17.23071,4.189111 30.31089,0.351121 0.90465,13.471566 31.57561,16.957363 41.74213,5.582665 11.52469,9.058285 26.33928,2.9573 36.45027,-8.476833 27.50429,-2.097909 26.48234,-36.577845 -2.11927,-39.417267 -6.92593,-7.907672 -17.43011,-11.267318 -35.17868,-6.357609 -7.18933,-11.94738 -31.45558,-20.6187933 -52.86483,-3.039618 z"
         id="path6738"
         inkscape:connector-curvature="0"
         sodipodi:nodetypes="cccccccc" />
    </g>
  </g>
  <g
     inkscape:groupmode="layer"
     id="layer2"
     inkscape:label="レイヤー"
     sodipodi:insensitive="true">
    <path
       style="fill:#ffffff;stroke:none;display:inline"
       d="m 0,0 0,320 370,0 0,-320 -10,10 0,300 -350,0 0,-300 350,0 10,-10 z"
       id="path21072"
       inkscape:connector-curvature="0"
       sodipodi:nodetypes="ccccccccccc" />
  </g>
</svg>
