<?xml version="1.0" encoding="UTF-8" standalone="no"?>
<!-- Created with Inkscape (http://www.inkscape.org/) -->

<svg
   xmlns:dc="http://purl.org/dc/elements/1.1/"
   xmlns:cc="http://creativecommons.org/ns#"
   xmlns:rdf="http://www.w3.org/1999/02/22-rdf-syntax-ns#"
   xmlns:svg="http://www.w3.org/2000/svg"
   xmlns="http://www.w3.org/2000/svg"
   xmlns:sodipodi="http://sodipodi.sourceforge.net/DTD/sodipodi-0.dtd"
   xmlns:inkscape="http://www.inkscape.org/namespaces/inkscape"
   width="96"
   height="74"
   id="svg3042"
   version="1.1"
   inkscape:version="0.48.4 r9939"
   sodipodi:docname="[00]サムネイル.svg"
   inkscape:export-filename="C:\Users\執安\Desktop\資料\臨時\LEGEND\[00]サムネイル.png"
   inkscape:export-xdpi="90"
   inkscape:export-ydpi="90">
  <defs
     id="defs3044" />
  <sodipodi:namedview
     id="base"
     pagecolor="#ffffff"
     bordercolor="#666666"
     borderopacity="1.0"
     inkscape:pageopacity="0.0"
     inkscape:pageshadow="2"
     inkscape:zoom="2"
     inkscape:cx="0.54558111"
     inkscape:cy="57.433457"
     inkscape:document-units="px"
     inkscape:current-layer="layer3"
     showgrid="false"
     inkscape:window-width="942"
     inkscape:window-height="678"
     inkscape:window-x="-3"
     inkscape:window-y="-6"
     inkscape:window-maximized="0" />
  <metadata
     id="metadata3047">
    <rdf:RDF>
      <cc:Work
         rdf:about="">
        <dc:format>image/svg+xml</dc:format>
        <dc:type
           rdf:resource="http://purl.org/dc/dcmitype/StillImage" />
        <dc:title></dc:title>
      </cc:Work>
    </rdf:RDF>
  </metadata>
  <g
     inkscape:groupmode="layer"
     id="layer2"
     inkscape:label="補助線"
     style="display:none"
     sodipodi:insensitive="true">
    <path
       transform="translate(0,-978.36218)"
       style="fill:none;stroke:#0000ff;stroke-width:1px;stroke-linecap:butt;stroke-linejoin:miter;stroke-opacity:1;display:inline"
       d="M 9.999995,1042.3622 86,988.36218"
       id="path3025"
       inkscape:connector-curvature="0"
       sodipodi:nodetypes="cc" />
    <path
       transform="translate(0,-978.36218)"
       style="fill:none;stroke:#0000ff;stroke-width:1px;stroke-linecap:butt;stroke-linejoin:miter;stroke-opacity:1;display:inline"
       d="M 9.999995,988.36218 86,1042.3622"
       id="path3027"
       inkscape:connector-curvature="0"
       sodipodi:nodetypes="cc" />
    <path
       transform="translate(0,-978.36218)"
       style="fill:none;stroke:#ff0000;stroke-width:1px;stroke-linecap:butt;stroke-linejoin:miter;stroke-opacity:1;display:inline"
       d="m 9.999995,978.36218 0,74.00002"
       id="path3006"
       inkscape:connector-curvature="0"
       sodipodi:nodetypes="cc" />
    <path
       transform="translate(0,-978.36218)"
       style="fill:none;stroke:#ff0000;stroke-width:1px;stroke-linecap:butt;stroke-linejoin:miter;stroke-opacity:1;display:inline"
       d="m 86,978.36218 0,74.00002"
       id="path3010"
       inkscape:connector-curvature="0"
       sodipodi:nodetypes="cc" />
    <path
       transform="translate(0,-978.36218)"
       style="fill:none;stroke:#ff0000;stroke-width:1px;stroke-linecap:butt;stroke-linejoin:miter;stroke-opacity:1;display:inline"
       d="m 0,988.36218 96,0"
       id="path3016"
       inkscape:connector-curvature="0"
       sodipodi:nodetypes="cc" />
    <path
       transform="translate(0,-978.36218)"
       style="fill:none;stroke:#ff0000;stroke-width:1px;stroke-linecap:butt;stroke-linejoin:miter;stroke-opacity:1;display:inline"
       d="m 0,1042.3622 96,0"
       id="path3018"
       inkscape:connector-curvature="0"
       sodipodi:nodetypes="cc" />
  </g>
  <g
     inkscape:groupmode="layer"
     id="layer3"
     inkscape:label="豚"
     sodipodi:insensitive="true">
    <path
       style="fill:#c8b7b7;stroke:none"
       d="m 72.855623,40.498412 c 1.13079,4.427288 1.963171,6.818961 1.425068,10.733757 -0.466167,3.391446 1.877916,5.224846 4.384684,5.789675 2.644823,0.595936 6.446686,4.052827 6.016521,-0.736821 C 84.051792,49.269158 77.832607,41.747408 72.855623,40.498412 z"
       id="path13549-0-5"
       inkscape:connector-curvature="0"
       sodipodi:nodetypes="csssc" />
    <path
       style="fill:#000080;stroke:none"
       d="m 75.984413,41.983219 c 1.355156,2.957064 2.286408,6.916344 1.871704,10.722564 2.393149,0.987158 4.924128,1.955169 6.742752,2.886139 -0.718534,-5.157229 -4.484008,-10.953435 -8.614456,-13.608703 z"
       id="path13590-9"
       inkscape:connector-curvature="0"
       sodipodi:nodetypes="cccc" />
    <path
       style="fill:none;stroke:#000000;stroke-width:1.5;stroke-linecap:butt;stroke-linejoin:miter;stroke-opacity:1"
       d="m 75.983264,41.982127 c 1.355156,2.957064 2.286408,6.916344 1.871704,10.722564 2.393149,0.987158 4.924128,1.955169 6.742752,2.886139"
       id="path13590"
       inkscape:connector-curvature="0"
       sodipodi:nodetypes="ccc" />
    <path
       style="fill:none;stroke:#000000;stroke-width:1.5;stroke-linecap:butt;stroke-linejoin:miter;stroke-opacity:1"
       d="m 72.854474,40.49732 c 1.13079,4.427288 1.963171,6.818961 1.425068,10.733757 -0.466167,3.391446 1.877916,5.224846 4.384684,5.789675 2.644823,0.595936 6.446686,4.052827 6.016521,-0.736821 C 84.050643,49.268066 77.831458,41.746316 72.854474,40.49732 z"
       id="path13549-0"
       inkscape:connector-curvature="0"
       sodipodi:nodetypes="csssc" />
    <path
       style="fill:#ffd5d5;stroke:#000000;stroke-width:1.5;stroke-linecap:butt;stroke-linejoin:miter;stroke-opacity:1;display:inline"
       d="m 61.110879,14.515633 c 8.412174,1.383648 16.994402,11.369428 12.652886,19.395816"
       id="path5091-2-40-9-9-1"
       inkscape:connector-curvature="0"
       sodipodi:nodetypes="cc" />
    <path
       style="fill:#ffd5d5;stroke:none"
       d="M 20.850564,50.13009 66.480868,19.88371 73.872335,32.954592 72.675198,48.385835 C 65.948999,53.764321 31.075704,55.786694 20.850564,50.13009 z"
       id="path6693-9"
       inkscape:connector-curvature="0"
       sodipodi:nodetypes="ccccc" />
    <path
       style="fill:#ffd5d5;stroke:#000000;stroke-width:1.5;stroke-linecap:butt;stroke-linejoin:miter;stroke-opacity:1;display:inline"
       d="M 67.60602,20.137871 C 56.788952,6.8013517 36.522557,9.6093257 27.379144,22.919212 19.917854,33.78048 15.635114,44.632675 20.852434,50.131667"
       id="path3754-0"
       inkscape:connector-curvature="0"
       sodipodi:nodetypes="csc" />
    <path
       style="fill:#ffd5d5;stroke:#000000;stroke-width:1.5;stroke-linecap:butt;stroke-linejoin:miter;stroke-opacity:1;display:inline"
       d="m 72.317456,28.146672 c 5.014936,6.162562 5.560498,15.127755 0.358324,20.238411"
       id="path5093-4-9-4-2-4"
       inkscape:connector-curvature="0"
       sodipodi:nodetypes="cc" />
    <path
       style="fill:none;stroke:#000000;stroke-width:1.5;stroke-linecap:butt;stroke-linejoin:miter;stroke-opacity:1;display:inline"
       d="m 66.785212,25.809894 -0.540379,3.369638"
       id="path5095-5-4-8-7-2"
       inkscape:connector-curvature="0"
       sodipodi:nodetypes="cc" />
    <path
       style="fill:none;stroke:#000000;stroke-width:1.5;stroke-linecap:butt;stroke-linejoin:miter;stroke-opacity:1;display:inline"
       d="m 55.497943,27.938663 2.486573,2.53975"
       id="path5097-5-8-8-9-9"
       inkscape:connector-curvature="0"
       sodipodi:nodetypes="cc" />
    <path
       sodipodi:nodetypes="csc"
       style="fill:#ffd5d5;stroke:#000000;stroke-width:1.5;stroke-linecap:butt;stroke-linejoin:miter;stroke-opacity:1;display:inline"
       d="M 34.421433,17.36676 C 18.103224,20.834073 17.955644,39.16919 25.190634,43.442086 28.029954,45.118955 35.723732,32.88165 38.985646,30.045576"
       id="path5099-1-8-2-54-3"
       inkscape:connector-curvature="0" />
    <path
       sodipodi:nodetypes="ssssss"
       style="fill:#ffaaaa;stroke:#000000;stroke-width:1.5;stroke-linecap:butt;stroke-linejoin:miter;stroke-opacity:1;display:inline"
       d="m 54.364256,39.605099 c -2.919765,5.504626 -0.269774,8.805747 3.670148,7.729612 3.339513,-0.912143 7.708505,-1.25473 10.498228,-1.460339 2.767648,-0.20399 3.23911,-3.833806 2.74643,-7.432342 -0.382146,-2.79119 -2.509067,-7.755477 -6.674145,-7.443895 -3.862141,0.288919 -7.882123,4.160425 -10.240661,8.606964 z"
       id="path5101-7-2-4-3-1"
       inkscape:connector-curvature="0" />
    <path
       style="fill:#000000;stroke:#000000;stroke-width:1.5;display:inline"
       d="m 59.420234,43.378841 c 0.426122,1.212942 3.770258,-7.175082 3.13118,-7.223369 -0.311386,-0.02354 -4.332509,3.803834 -3.13118,7.223369 z"
       id="path5105-1-4-55-12-4"
       inkscape:connector-curvature="0"
       sodipodi:nodetypes="sss" />
    <path
       style="fill:#000000;stroke:#000000;stroke-width:1.5;display:inline"
       d="m 66.445454,35.900183 c -0.694654,-0.466714 -0.04059,7.244489 0.556108,6.436299 1.527032,-2.068262 0.199895,-5.928414 -0.556108,-6.436299 z"
       id="path5107-1-5-1-3-8"
       inkscape:connector-curvature="0"
       sodipodi:nodetypes="sss" />
    <path
       style="fill:#c8b7b7;stroke:#000000;stroke-width:1.5;stroke-linecap:butt;stroke-linejoin:miter;stroke-opacity:1"
       d="m 15.393184,45.58036 c 4.83333,-5.033129 15.8511,0.415826 17.54289,6.512563 1.767316,6.36892 -13.124217,11.778105 -18.733537,9.839689 -3.9265,-1.356885 -3.446023,-11.523913 1.190647,-16.352252 z"
       id="path13549"
       inkscape:connector-curvature="0"
       sodipodi:nodetypes="ssss" />
    <path
       style="fill:#000080;stroke:#000000;stroke-width:1.5;stroke-linecap:butt;stroke-linejoin:miter;stroke-opacity:1"
       d="m 15.049714,48.102397 c 2.56702,-4.480255 12.90318,-1.380563 14.04289,3.762563 0.80641,3.639028 -11.10728,9.018621 -14.08708,7.243718 -2.73453,-1.628807 -1.73976,-7.892741 0.0442,-11.006281 z"
       id="path13549-2"
       inkscape:connector-curvature="0"
       sodipodi:nodetypes="ssss" />
  </g>
  <g
     inkscape:label="枠面"
     inkscape:groupmode="layer"
     id="layer1"
     transform="translate(0,-978.36218)"
     style="display:inline"
     sodipodi:insensitive="true">
    <path
       style="fill:#ffffff;stroke:none;display:inline;enable-background:new"
       d="m 0,978.3622 0,74 96,0 0,-74 -10,10 0,54 -76,0 0,-54 76,0 10,-10 z"
       id="path21072"
       inkscape:connector-curvature="0"
       sodipodi:nodetypes="ccccccccccc" />
  </g>
</svg>
