<?xml version="1.0" encoding="UTF-8" standalone="no"?>
<!-- Created with Inkscape (http://www.inkscape.org/) -->

<svg
   xmlns:dc="http://purl.org/dc/elements/1.1/"
   xmlns:cc="http://creativecommons.org/ns#"
   xmlns:rdf="http://www.w3.org/1999/02/22-rdf-syntax-ns#"
   xmlns:svg="http://www.w3.org/2000/svg"
   xmlns="http://www.w3.org/2000/svg"
   xmlns:sodipodi="http://sodipodi.sourceforge.net/DTD/sodipodi-0.dtd"
   xmlns:inkscape="http://www.inkscape.org/namespaces/inkscape"
   width="370"
   height="320"
   id="svg3172"
   version="1.1"
   inkscape:version="0.48.4 r9939"
   sodipodi:docname="[23]降臨.svg"
   inkscape:export-filename="C:\Users\執安\Desktop\資料\臨時\LEGEND\[23]降臨.png"
   inkscape:export-xdpi="90"
   inkscape:export-ydpi="90">
  <defs
     id="defs3174" />
  <sodipodi:namedview
     id="base"
     pagecolor="#ffffff"
     bordercolor="#666666"
     borderopacity="1.0"
     inkscape:pageopacity="0.0"
     inkscape:pageshadow="2"
     inkscape:zoom="2.2565701"
     inkscape:cx="112.47062"
     inkscape:cy="162.43185"
     inkscape:document-units="px"
     inkscape:current-layer="layer3"
     showgrid="false"
     inkscape:window-width="1100"
     inkscape:window-height="698"
     inkscape:window-x="-5"
     inkscape:window-y="-5"
     inkscape:window-maximized="0" />
  <metadata
     id="metadata3177">
    <rdf:RDF>
      <cc:Work
         rdf:about="">
        <dc:format>image/svg+xml</dc:format>
        <dc:type
           rdf:resource="http://purl.org/dc/dcmitype/StillImage" />
        <dc:title></dc:title>
      </cc:Work>
    </rdf:RDF>
  </metadata>
  <g
     inkscape:label="補助線"
     inkscape:groupmode="layer"
     id="layer1"
     transform="translate(0,-732.36218)"
     sodipodi:insensitive="true"
     style="display:none">
    <path
       style="fill:none;stroke:#0000ff;stroke-width:1px;stroke-linecap:butt;stroke-linejoin:miter;stroke-opacity:1;display:inline"
       d="M 10,1042.3622 360,742.36211"
       id="path3025"
       inkscape:connector-curvature="0"
       sodipodi:nodetypes="cc" />
    <path
       style="fill:none;stroke:#0000ff;stroke-width:1px;stroke-linecap:butt;stroke-linejoin:miter;stroke-opacity:1;display:inline"
       d="M 10,742.36211 360,1042.3622"
       id="path3027"
       inkscape:connector-curvature="0"
       sodipodi:nodetypes="cc" />
    <path
       style="fill:none;stroke:#ff0000;stroke-width:1px;stroke-linecap:butt;stroke-linejoin:miter;stroke-opacity:1;display:inline"
       d="m 10,732.36211 0,320.00009"
       id="path3006"
       inkscape:connector-curvature="0"
       sodipodi:nodetypes="cc" />
    <path
       style="fill:none;stroke:#ff0000;stroke-width:1px;stroke-linecap:butt;stroke-linejoin:miter;stroke-opacity:1;display:inline"
       d="m 360,732.36211 0,320.00009"
       id="path3010"
       inkscape:connector-curvature="0"
       sodipodi:nodetypes="cc" />
    <path
       style="fill:none;stroke:#ff0000;stroke-width:1px;stroke-linecap:butt;stroke-linejoin:miter;stroke-opacity:1;display:inline"
       d="m 0,742.36208 370,3e-5"
       id="path3016"
       inkscape:connector-curvature="0" />
    <path
       style="fill:none;stroke:#ff0000;stroke-width:1px;stroke-linecap:butt;stroke-linejoin:miter;stroke-opacity:1;display:inline"
       d="m 0,1042.3622 370,0"
       id="path3018"
       inkscape:connector-curvature="0"
       sodipodi:nodetypes="cc" />
  </g>
  <g
     inkscape:groupmode="layer"
     id="layer3"
     inkscape:label="豚"
     sodipodi:insensitive="true">
    <path
       sodipodi:type="arc"
       style="opacity:0.5;fill:#000000;fill-opacity:1;stroke:none"
       id="path32736"
       sodipodi:cx="138.76778"
       sodipodi:cy="298.49603"
       sodipodi:rx="59.539436"
       sodipodi:ry="8.7359858"
       d="m 198.30721,298.49603 a 59.539436,8.7359858 0 1 1 -119.07887,0 59.539436,8.7359858 0 1 1 119.07887,0 z"
       transform="matrix(1.0451465,0,0,1.521329,-3.7448798,-160.42548)" />
    <path
       transform="matrix(0.78052679,0,0,1.0973773,195.06337,-46.922527)"
       sodipodi:type="arc"
       style="opacity:0.5;fill:#000000;fill-opacity:1;stroke:none"
       id="path32736-5"
       sodipodi:cx="138.76778"
       sodipodi:cy="298.49603"
       sodipodi:rx="59.539436"
       sodipodi:ry="8.7359858"
       d="m 198.30721,298.49603 a 59.539436,8.7359858 0 1 1 -119.07887,0 59.539436,8.7359858 0 1 1 119.07887,0 z" />
    <path
       transform="matrix(0.90189233,0,0,1.2985377,106.4872,-101.68779)"
       sodipodi:type="arc"
       style="opacity:0.5;fill:#000000;fill-opacity:1;stroke:none"
       id="path32736-0"
       sodipodi:cx="138.76778"
       sodipodi:cy="298.49603"
       sodipodi:rx="59.539436"
       sodipodi:ry="8.7359858"
       d="m 198.30721,298.49603 a 59.539436,8.7359858 0 1 1 -119.07887,0 59.539436,8.7359858 0 1 1 119.07887,0 z" />
    <path
       style="fill:#ffff00;fill-opacity:1;stroke:none;display:inline"
       d="m 144.77121,25.393871 c 15.55745,0 28.16924,-2.678012 28.16924,-5.981497 0,-3.303485 -12.61179,-5.981497 -28.16924,-5.981497 -15.5574,0 -28.1692,2.678012 -28.1692,5.981497 0,3.303485 12.6118,5.981497 28.1692,5.981497 l 0,1.828287 c -20.31266,0 -36.77932,-3.49658 -36.77932,-7.809784 0,-4.313205 16.46666,-7.80977 36.77932,-7.80977 20.31267,0 36.77935,3.496565 36.77935,7.80977 0,4.313204 -16.46668,7.809784 -36.77935,7.809784 z"
       id="path15670-4-8"
       inkscape:connector-curvature="0"
       sodipodi:nodetypes="csssccssscc" />
    <path
       style="fill:#ffd5d5;stroke:#000000;stroke-width:2;stroke-linecap:butt;stroke-linejoin:miter;stroke-opacity:1;display:inline"
       d="m 166.32566,140.36947 c 2.07642,3.52126 4.51195,7.02673 9.55969,5.32488 8.16706,-2.75354 14.92136,-24.67325 11.23023,-38.9982 l -3.27854,-26.780047 -77.77823,7.595073 2.79917,33.472434 c -0.74797,14.45411 8.67575,25.32151 14.69915,25.57517 2.97517,0.12533 5.36247,-2.25879 7.75287,-5.18959 7.81718,1.72494 31.33366,1.07913 40.01937,-2.27779"
       id="path3570-7"
       inkscape:connector-curvature="0"
       sodipodi:nodetypes="csccccscc" />
    <path
       style="fill:#ffd5d5;stroke:#000000;stroke-width:2;stroke-linecap:butt;stroke-linejoin:miter;stroke-opacity:1;display:inline"
       d="m 107.5226,77.702686 c -12.559338,16.47661 -7.27106,38.140134 -0.36328,43.904954 5.92935,4.94827 7.96046,-8.99477 8.58088,-14.57922"
       id="path5109-2-7-7"
       inkscape:connector-curvature="0"
       sodipodi:nodetypes="csc" />
    <path
       style="fill:#ffd5d5;stroke:#000000;stroke-width:2;stroke-linecap:butt;stroke-linejoin:miter;stroke-opacity:1;display:inline"
       d="m 182.02582,107.08536 c 0.49202,4.77876 1.10972,17.1099 5.6579,12.29002 6.1445,-6.51158 9.12072,-27.871509 -4.85343,-42.008298"
       id="path5109-2-7-9-5"
       inkscape:connector-curvature="0"
       sodipodi:nodetypes="csc" />
    <path
       style="fill:#ffd5d5;stroke:#000000;stroke-width:2;stroke-linecap:butt;stroke-linejoin:miter;stroke-opacity:1;display:inline"
       d="m 180.57602,90.130066 c 4.60907,-5.79175 5.33184,-16.531141 0.62718,-22.819782 l -6.62237,-21.540037 -56.00513,-0.796764 -6.91658,20.707178 c -6.06346,9.049917 -4.44342,17.907435 -1.32147,22.582492"
       id="path5093-4-2-9"
       inkscape:connector-curvature="0"
       sodipodi:nodetypes="cccccc" />
    <path
       style="fill:none;stroke:#000000;stroke-width:2;stroke-linecap:butt;stroke-linejoin:miter;stroke-opacity:1;display:inline"
       d="m 160.0676,61.271442 -1.67175,3.915555"
       id="path5095-5-3-4"
       inkscape:connector-curvature="0"
       sodipodi:nodetypes="cc" />
    <path
       style="fill:none;stroke:#000000;stroke-width:2;stroke-linecap:butt;stroke-linejoin:miter;stroke-opacity:1;display:inline"
       d="m 139.27457,62.597306 2.84451,3.326733"
       id="path5097-5-2-8"
       inkscape:connector-curvature="0"
       sodipodi:nodetypes="cc" />
    <path
       style="fill:#ffaaaa;stroke:#000000;stroke-width:2;stroke-linecap:butt;stroke-linejoin:miter;stroke-opacity:1;display:inline"
       d="m 151.90879,67.738557 c -6.50583,0.561819 -11.61258,5.651316 -14.40966,10.943923 -2.85785,5.40761 -3.20138,12.935884 3.83784,12.557052 6.14655,-0.330791 13.15226,-1.590534 18.11058,-1.196521 5.72706,0.455103 8.76152,-3.813485 6.58886,-10.164337 -2.03035,-5.934871 -7.53864,-12.709115 -14.12762,-12.140117 z"
       id="path5101-7-1-2"
       inkscape:connector-curvature="0"
       sodipodi:nodetypes="ssssss" />
    <path
       style="fill:#000000;stroke:#000000;stroke-width:2;display:inline"
       d="m 145.87322,84.461308 c 0.48419,1.43477 4.62002,-8.548145 3.54947,-8.947034 -1.2894,-0.480424 -4.72785,5.455079 -3.54947,8.947034 z"
       id="path5105-1-6-4"
       inkscape:connector-curvature="0"
       sodipodi:nodetypes="sss" />
    <path
       style="fill:#000000;stroke:#000000;stroke-width:2;display:inline"
       d="m 156.79356,75.237623 c -1.15713,-0.688947 1.00891,9.609473 1.87484,8.273076 1.56389,-2.413561 -0.73921,-7.596983 -1.87484,-8.273076 z"
       id="path5107-1-8-55"
       inkscape:connector-curvature="0"
       sodipodi:nodetypes="sss" />
    <path
       style="fill:#ffd5d5;stroke:#000000;stroke-width:2;stroke-linecap:butt;stroke-linejoin:miter;stroke-opacity:1;display:inline"
       d="m 164.39708,38.874021 c 19.20658,0.05578 25.45482,21.099042 20.17599,30.056823 -3.12262,5.298855 -5.64013,-5.355719 -7.59411,-12.007774"
       id="path5091-2-4-0"
       inkscape:connector-curvature="0"
       sodipodi:nodetypes="csc" />
    <path
       style="fill:#ffd5d5;stroke:#000000;stroke-width:2;stroke-linecap:butt;stroke-linejoin:miter;stroke-opacity:1;display:inline"
       d="M 126.87824,39.796341 C 109.47398,38.724512 101.8211,60.2413 110.04627,70.921076 c 3.01375,3.913128 5.99354,-5.943729 7.66721,-10.996972"
       id="path5099-1-2-8"
       inkscape:connector-curvature="0"
       sodipodi:nodetypes="csc" />
    <path
       style="fill:#ffd5d5;stroke:#000000;stroke-width:2;stroke-linecap:butt;stroke-linejoin:miter;stroke-opacity:1;display:inline"
       d="M 173.56327,47.862058 C 159.89409,27.678517 129.90941,30.857395 118.74221,47.947164"
       id="path15624"
       inkscape:connector-curvature="0"
       sodipodi:nodetypes="cc" />
    <path
       style="fill:none;stroke:#000000;stroke-width:2;stroke-linecap:round;stroke-miterlimit:4;stroke-opacity:1;stroke-dashoffset:0;display:inline"
       d="m 181.54964,19.412232 c 0,4.313218 -16.46671,7.809784 -36.77938,7.809784 -20.31266,0 -36.77934,-3.496566 -36.77934,-7.809784 0,-4.313218 16.46668,-7.809783 36.77934,-7.809783 20.31267,0 36.77938,3.496565 36.77938,7.809783 z"
       id="path15670"
       inkscape:connector-curvature="0"
       sodipodi:nodetypes="sssss" />
    <path
       style="fill:none;stroke:#000000;stroke-width:2;stroke-linecap:round;stroke-miterlimit:4;stroke-opacity:1;stroke-dashoffset:0;display:inline"
       d="m 172.9395,19.412232 c 0,3.303484 -12.61181,5.981483 -28.16924,5.981483 -15.5574,0 -28.1692,-2.677999 -28.1692,-5.981483 0,-3.303485 12.6118,-5.981497 28.1692,-5.981497 15.55743,0 28.16924,2.678012 28.16924,5.981497 z"
       id="path15670-4"
       inkscape:connector-curvature="0" />
    <g
       transform="matrix(1.4176281,0,0,1.4176281,518.35623,-258.45768)"
       id="g15945"
       style="stroke-width:1.41080725;display:inline">
      <path
         sodipodi:nodetypes="cccccc"
         inkscape:connector-curvature="0"
         id="path3386-2-8-1"
         d="m -133.20482,338.39191 c 5.19395,5.51336 9.78069,17.31253 4.7985,21.99904 l 0.0243,15.10365 -9.92349,1.27895 -43.59761,-35.35645 z"
         style="fill:#d4aa00;stroke:#000000;stroke-width:1.41080725;stroke-linecap:butt;stroke-linejoin:miter;stroke-opacity:1;display:inline" />
      <path
         style="fill:#d4aa00;stroke:#000000;stroke-width:1.41080725;stroke-linecap:butt;stroke-linejoin:miter;stroke-opacity:1;display:inline"
         d="m -182.25854,340.47379 c -4.76445,9.96169 -8.20028,21.48388 -5.95797,27.99122 -8.56767,18.40341 52.75756,13.91553 61.18093,10.43522 4.21901,-1.74319 0.42963,-5.55186 -0.22619,-7.36742 -1.31485,-3.64007 0.928,-8.75172 -1.9759,-18.45385"
         id="path10701-6-2"
         inkscape:connector-curvature="0"
         sodipodi:nodetypes="ccssc" />
      <path
         sodipodi:nodetypes="cc"
         inkscape:connector-curvature="0"
         id="path3331-0-3-9-5-8-5"
         d="m -151.69009,368.91479 c 11.47435,-2.49422 15.24445,-14.52759 17.79373,-18.1446"
         style="fill:none;stroke:#000000;stroke-width:1.41080725;stroke-linecap:butt;stroke-linejoin:miter;stroke-opacity:1;display:inline" />
      <path
         sodipodi:nodetypes="cccc"
         inkscape:connector-curvature="0"
         id="path5091-2-40-9-2-1-1-8"
         d="m -148.18323,313.39898 c 7.23131,-0.0418 17.66328,10.60181 13.64034,16.19572 l -14.43953,-1.50255 z"
         style="fill:#ffd5d5;stroke:#000000;stroke-width:1.41080725;stroke-linecap:butt;stroke-linejoin:miter;stroke-opacity:1;display:inline" />
      <path
         sodipodi:nodetypes="csssc"
         inkscape:connector-curvature="0"
         id="path4041-7-98-6"
         d="m -141.03194,318.48466 c -9.58315,-11.58678 -27.60077,-8.46007 -34.35332,1.0487 -6.22,8.75885 -9.26027,17.94226 -5.52391,21.41356 9.70914,9.0204 37.1193,9.78188 45.47909,1.67237 4.52303,-4.38762 3.15526,-10.87902 -0.91807,-15.46701"
         style="fill:#ffd5d5;stroke:#000000;stroke-width:1.41080725;stroke-linecap:butt;stroke-linejoin:miter;stroke-opacity:1;display:inline" />
      <path
         sodipodi:nodetypes="csc"
         inkscape:connector-curvature="0"
         id="path5099-1-8-2-7-5-2-2"
         d="m -171.59605,315.84535 c -12.35985,2.99489 -13.87028,17.30457 -7.72827,20.231 2.93235,1.39715 5.45775,-6.33627 7.53363,-9.88022"
         style="fill:#ffd5d5;stroke:#000000;stroke-width:1.41080725;stroke-linecap:butt;stroke-linejoin:miter;stroke-opacity:1;display:inline" />
      <path
         sodipodi:nodetypes="cc"
         inkscape:connector-curvature="0"
         id="path3331-0-3-4-0-6"
         d="m -164.1863,354.05756 c 14.2283,19.85194 27.12172,-5.24809 31.11825,-9.04949"
         style="fill:none;stroke:#000000;stroke-width:1.41080725;stroke-linecap:butt;stroke-linejoin:miter;stroke-opacity:1;display:inline" />
    </g>
    <g
       id="g15934"
       transform="matrix(1.2886256,0,0,1.2886256,566.81505,-225.7615)"
       style="stroke-width:1.55204117;display:inline">
      <path
         style="fill:#d4aa00;stroke:#000000;stroke-width:1.55204117;stroke-linecap:butt;stroke-linejoin:miter;stroke-opacity:1;display:inline"
         d="m -255.36251,395.41545 c 22.03531,4.01561 35.20954,1.73137 28.26005,-7.75004"
         id="path3327-4-4-8"
         inkscape:connector-curvature="0"
         sodipodi:nodetypes="cc" />
      <path
         sodipodi:nodetypes="cccssc"
         inkscape:connector-curvature="0"
         id="path3386-2-8"
         d="m -227.60981,391.03167 c 5.34596,-7.90369 1.65895,-32.81886 -6.87692,-43.81838 l -58.30916,-1.03231 c -6.68206,11.84462 -9.53221,25.72442 -6.8596,33.4805 1.50658,4.37217 -8.61803,10.80023 -4.21372,14.50776 7.71645,6.49568 50.32221,2.33274 60.15445,-0.086"
         style="fill:#d4aa00;stroke:#000000;stroke-width:1.55204117;stroke-linecap:butt;stroke-linejoin:miter;stroke-opacity:1;display:inline" />
      <path
         sodipodi:nodetypes="cc"
         inkscape:connector-curvature="0"
         id="path3331-0-3-9-5-8"
         d="m -281.07404,375.35503 c 8.58815,14.68929 35.52168,-2.41616 44.82623,-17.34618"
         style="fill:none;stroke:#000000;stroke-width:1.55204117;stroke-linecap:butt;stroke-linejoin:miter;stroke-opacity:1;display:inline" />
      <path
         sodipodi:nodetypes="cccc"
         inkscape:connector-curvature="0"
         id="path5091-2-40-9-2-1-1"
         d="m -252.33945,317.42428 c 8.38937,-0.2539 20.28002,12.16169 15.41039,18.5646 l -48.17352,-3.65927 z"
         style="fill:#ffd5d5;stroke:#000000;stroke-width:1.55204117;stroke-linecap:butt;stroke-linejoin:miter;stroke-opacity:1;display:inline" />
      <path
         style="fill:#ffd5d5;stroke:#000000;stroke-width:1.55204117;stroke-linecap:butt;stroke-linejoin:miter;stroke-opacity:1;display:inline"
         d="m -243.81585,323.48589 c -8.81543,-10.65854 -30.83049,-14.92553 -39.92444,-2.31095 -1.97687,0.4272 -4.01007,1.49208 -4.87176,2.12951 -1.81109,1.33969 -4.25852,6.45894 -3.47848,10.23254"
         id="path32684"
         inkscape:connector-curvature="0"
         sodipodi:nodetypes="ccsc" />
      <path
         style="fill:#ffd5d5;stroke:#000000;stroke-width:1.55204117;stroke-linecap:butt;stroke-linejoin:miter;stroke-opacity:1;display:inline"
         d="m -291.69942,331.71179 c -3.37859,6.85131 -3.67673,14.71742 0.81023,18.41966 6.5841,5.43262 43.69535,11.69164 53.75018,2.12044 5.29891,-5.32287 2.91325,-15.79165 -1.94174,-21.26006"
         id="path4041-7-98"
         inkscape:connector-curvature="0"
         sodipodi:nodetypes="cscc" />
      <path
         sodipodi:nodetypes="csc"
         inkscape:connector-curvature="0"
         id="path5099-1-8-2-7-5-2"
         d="m -280.87505,318.97112 c -14.73168,3.5696 -15.22824,22.58101 -7.9076,26.06902 3.49506,1.66526 8.93878,-6.50922 11.0003,-10.66799"
         style="fill:#ffd5d5;stroke:#000000;stroke-width:1.55204117;stroke-linecap:butt;stroke-linejoin:miter;stroke-opacity:1;display:inline" />
      <path
         sodipodi:nodetypes="cc"
         inkscape:connector-curvature="0"
         id="path3331-0-3-4-0"
         d="m -284.1213,358.18898 c 18.64677,10.82415 44.50862,2.38969 48.73886,-4.43113"
         style="fill:none;stroke:#000000;stroke-width:1.55204117;stroke-linecap:butt;stroke-linejoin:miter;stroke-opacity:1;display:inline" />
    </g>
    <g
       id="g32724"
       transform="translate(0,-5.4645121)">
      <path
         sodipodi:nodetypes="cccccc"
         inkscape:connector-curvature="0"
         id="path3386-2-8-3"
         d="m 181.95799,231.58192 c 3.82482,4.64951 17.44963,27.00354 8.88693,37.56366 l 1.0488,25.66431 -18.48937,1.13676 -73.11172,-59.29159 z"
         style="fill:#d4aa00;stroke:#000000;stroke-width:2;stroke-linecap:butt;stroke-linejoin:miter;stroke-opacity:1;display:inline" />
      <path
         style="fill:#d4aa00;stroke:#000000;stroke-width:2;stroke-linecap:butt;stroke-linejoin:miter;stroke-opacity:1;display:inline"
         d="m 150.4243,298.93212 c 12.74527,1.50575 38.32176,3.09817 43.5593,-0.91883 2.7773,-2.13009 0.74592,-7.20484 -2.70463,-9.15061"
         id="path3327-4-4-8-9"
         inkscape:connector-curvature="0"
         sodipodi:nodetypes="csc" />
      <path
         sodipodi:nodetypes="cc"
         inkscape:connector-curvature="0"
         id="path3331-0-5-0-2"
         d="m 190.48801,291.96459 c 6.37672,-3.72969 0.64051,-18.44619 -1.87724,-35.75299"
         style="fill:#d4aa00;stroke:#000000;stroke-width:2;stroke-linecap:butt;stroke-linejoin:miter;stroke-opacity:1;display:inline" />
      <path
         style="fill:#d4aa00;stroke:#000000;stroke-width:2;stroke-linecap:butt;stroke-linejoin:miter;stroke-opacity:1;display:inline"
         d="m 99.696551,235.07315 c -9.801518,19.72384 -7.581963,39.27948 -11.240907,47.87446 -2.954501,6.94027 -10.534635,9.75808 -4.116885,14.70003 12.773606,9.83626 95.583971,6.13871 93.714911,-2.97445"
         id="path10701-6-4"
         inkscape:connector-curvature="0"
         sodipodi:nodetypes="cssc" />
      <path
         style="fill:#d4aa00;stroke:#000000;stroke-width:2;stroke-linecap:butt;stroke-linejoin:miter;stroke-opacity:1;display:inline"
         d="m 106.05585,252.9791 c -0.92692,5.59986 0.32187,16.84932 -2.0421,27.10981 -3.14131,13.63442 -10.172966,8.31919 -18.038523,-2.70344 -6.306162,-8.83733 0.816264,-29.56253 14.192173,-44.63861"
         id="path3386-2-8-3-7"
         inkscape:connector-curvature="0"
         sodipodi:nodetypes="cssc" />
      <path
         sodipodi:nodetypes="cc"
         inkscape:connector-curvature="0"
         id="path3331-0-3-9-5-8-6"
         d="m 130.79089,280.77216 c 14.54415,3.38952 30.40346,-18.94522 48.7905,-32.4028"
         style="fill:none;stroke:#000000;stroke-width:2;stroke-linecap:butt;stroke-linejoin:miter;stroke-opacity:1;display:inline" />
      <path
         sodipodi:nodetypes="cccc"
         inkscape:connector-curvature="0"
         id="path5091-2-40-9-2-1-1-1"
         d="m 156.8397,189.66961 c 16.81569,2.14881 34.60891,22.1762 22.68441,30.20191 l -24.02462,-5.56196 z"
         style="fill:#ffd5d5;stroke:#000000;stroke-width:2;stroke-linecap:butt;stroke-linejoin:miter;stroke-opacity:1;display:inline" />
      <path
         sodipodi:nodetypes="csccc"
         inkscape:connector-curvature="0"
         id="path4041-7-98-8"
         d="m 168.83217,198.19813 c -16.07062,-19.43064 -46.28554,-14.18726 -57.60935,1.75863 -10.43073,14.6883 -15.296716,29.25661 -10.45582,36.3073 17.49728,13.70288 63.31243,15.87345 77.4593,2.40703 7.45542,-7.48913 4.09886,-22.21841 -2.73197,-29.91231"
         style="fill:#ffd5d5;stroke:#000000;stroke-width:2;stroke-linecap:butt;stroke-linejoin:miter;stroke-opacity:1;display:inline" />
      <path
         sodipodi:nodetypes="csc"
         inkscape:connector-curvature="0"
         id="path5099-1-8-2-7-5-2-21"
         d="m 120.35947,192.57968 c -20.22586,0.51146 -28.77327,27.89555 -18.47333,32.80308 4.91745,2.34297 10.74233,-10.62572 16.21084,-15.37642"
         style="fill:#ffd5d5;stroke:#000000;stroke-width:2;stroke-linecap:butt;stroke-linejoin:miter;stroke-opacity:1;display:inline" />
      <path
         sodipodi:nodetypes="cc"
         inkscape:connector-curvature="0"
         id="path3331-0-3-4-0-1"
         d="m 128.08996,255.99242 c 9.55524,8.42346 50.57259,-6.29312 50.89313,-14.56514"
         style="fill:none;stroke:#000000;stroke-width:2;stroke-linecap:butt;stroke-linejoin:miter;stroke-opacity:1;display:inline" />
    </g>
  </g>
  <g
     inkscape:groupmode="layer"
     id="layer4"
     inkscape:label="吹き出し"
     style="display:inline"
     sodipodi:insensitive="true">
    <path
       style="fill:#fdfefe;fill-opacity:1;stroke:#000000;stroke-width:2;display:inline"
       d="m 350.0311,110.68686 c 0,-22.04157 -33.4114,-39.909792 -74.62644,-39.909792 -41.21506,0 -74.62645,17.868222 -74.62645,39.909792 0,12.32289 10.44322,23.34135 26.85481,30.66219 10.22685,4.56197 -6.13866,13.47137 -18.32278,22.7236 19.07179,-8.05762 41.43821,-15.0043 54.90702,-13.92146 3.64932,0.29339 7.38514,0.44547 11.1874,0.44547 41.21504,0 74.62644,-17.86824 74.62644,-39.9098 z"
       id="path14889-6"
       inkscape:connector-curvature="0"
       sodipodi:nodetypes="sssscsss" />
    <text
       xml:space="preserve"
       style="font-size:20px;font-style:normal;font-weight:normal;line-height:125%;letter-spacing:0px;word-spacing:0px;writing-mode:lr-tb;fill:#000000;fill-opacity:1;stroke:none;display:inline;font-family:Sans"
       x="-90.837608"
       y="113.08111"
       id="text27826"
       sodipodi:linespacing="125%"><tspan
         sodipodi:role="line"
         id="tspan27828"
         x="-90.837608"
         y="113.08111" /></text>
    <text
       xml:space="preserve"
       style="font-size:34.43196869px;font-style:normal;font-weight:normal;line-height:125%;letter-spacing:0px;word-spacing:0px;writing-mode:lr-tb;fill:#000000;fill-opacity:1;stroke:none;font-family:Sans"
       x="234.71701"
       y="122.5107"
       id="text13157"
       sodipodi:linespacing="125%"><tspan
         sodipodi:role="line"
         x="234.71701"
         y="122.5107"
         id="tspan16580">神だ!</tspan></text>
  </g>
  <g
     inkscape:groupmode="layer"
     id="layer2"
     inkscape:label="枠面"
     sodipodi:insensitive="true">
    <path
       style="fill:#ffffff;stroke:none;display:inline"
       d="m 0,0 0,320 370,0 0,-320 -10,10 0,300 -350,0 0,-300 350,0 10,-10 z"
       id="path21072"
       inkscape:connector-curvature="0"
       sodipodi:nodetypes="ccccccccccc" />
  </g>
</svg>
