<?xml version="1.0" encoding="UTF-8" standalone="no"?>
<!-- Created with Inkscape (http://www.inkscape.org/) -->

<svg
   xmlns:dc="http://purl.org/dc/elements/1.1/"
   xmlns:cc="http://creativecommons.org/ns#"
   xmlns:rdf="http://www.w3.org/1999/02/22-rdf-syntax-ns#"
   xmlns:svg="http://www.w3.org/2000/svg"
   xmlns="http://www.w3.org/2000/svg"
   xmlns:sodipodi="http://sodipodi.sourceforge.net/DTD/sodipodi-0.dtd"
   xmlns:inkscape="http://www.inkscape.org/namespaces/inkscape"
   width="370"
   height="320"
   id="svg3172"
   version="1.1"
   inkscape:version="0.48.4 r9939"
   sodipodi:docname="[29]期待.svg"
   inkscape:export-filename="C:\Users\執安\Desktop\資料\臨時\LEGEND\[29]期待.png"
   inkscape:export-xdpi="90"
   inkscape:export-ydpi="90">
  <defs
     id="defs3174" />
  <sodipodi:namedview
     id="base"
     pagecolor="#ffffff"
     bordercolor="#666666"
     borderopacity="1.0"
     inkscape:pageopacity="0.0"
     inkscape:pageshadow="2"
     inkscape:zoom="1.5302233"
     inkscape:cx="35.175065"
     inkscape:cy="148.19472"
     inkscape:document-units="px"
     inkscape:current-layer="layer3"
     showgrid="false"
     inkscape:window-width="1100"
     inkscape:window-height="703"
     inkscape:window-x="-6"
     inkscape:window-y="-4"
     inkscape:window-maximized="0" />
  <metadata
     id="metadata3177">
    <rdf:RDF>
      <cc:Work
         rdf:about="">
        <dc:format>image/svg+xml</dc:format>
        <dc:type
           rdf:resource="http://purl.org/dc/dcmitype/StillImage" />
        <dc:title></dc:title>
      </cc:Work>
    </rdf:RDF>
  </metadata>
  <g
     inkscape:label="補助線"
     inkscape:groupmode="layer"
     id="layer1"
     transform="translate(0,-732.36218)"
     sodipodi:insensitive="true"
     style="display:none">
    <path
       style="fill:none;stroke:#0000ff;stroke-width:1px;stroke-linecap:butt;stroke-linejoin:miter;stroke-opacity:1;display:inline"
       d="M 10,1042.3622 360,742.36211"
       id="path3025"
       inkscape:connector-curvature="0"
       sodipodi:nodetypes="cc" />
    <path
       style="fill:none;stroke:#0000ff;stroke-width:1px;stroke-linecap:butt;stroke-linejoin:miter;stroke-opacity:1;display:inline"
       d="M 10,742.36211 360,1042.3622"
       id="path3027"
       inkscape:connector-curvature="0"
       sodipodi:nodetypes="cc" />
    <path
       style="fill:none;stroke:#ff0000;stroke-width:1px;stroke-linecap:butt;stroke-linejoin:miter;stroke-opacity:1;display:inline"
       d="m 10,732.36211 0,320.00009"
       id="path3006"
       inkscape:connector-curvature="0"
       sodipodi:nodetypes="cc" />
    <path
       style="fill:none;stroke:#ff0000;stroke-width:1px;stroke-linecap:butt;stroke-linejoin:miter;stroke-opacity:1;display:inline"
       d="m 360,732.36211 0,320.00009"
       id="path3010"
       inkscape:connector-curvature="0"
       sodipodi:nodetypes="cc" />
    <path
       style="fill:none;stroke:#ff0000;stroke-width:1px;stroke-linecap:butt;stroke-linejoin:miter;stroke-opacity:1;display:inline"
       d="m 0,742.36208 370,3e-5"
       id="path3016"
       inkscape:connector-curvature="0" />
    <path
       style="fill:none;stroke:#ff0000;stroke-width:1px;stroke-linecap:butt;stroke-linejoin:miter;stroke-opacity:1;display:inline"
       d="m 0,1042.3622 370,0"
       id="path3018"
       inkscape:connector-curvature="0"
       sodipodi:nodetypes="cc" />
  </g>
  <g
     inkscape:groupmode="layer"
     id="layer4"
     inkscape:label="吹き出し"
     style="display:inline"
     sodipodi:insensitive="true">
    <path
       style="fill:#806600;stroke:#000000;stroke-width:0.46064565;stroke-linecap:round;stroke-miterlimit:4;stroke-opacity:1;stroke-dashoffset:0;display:inline"
       d="m -1832.6436,309.05321 17.9763,72.00547 18.5406,-64.0008 53.9416,69.95337 54.3552,-66.06529 58.2296,66.75702 58.4086,-69.26311 28.3278,64.28876 28.3264,-71.72099 -24.7212,140.42728 c 0,3.04393 -60.1424,5.51152 -134.3318,5.51152 -74.1894,0 -134.3318,-2.46759 -134.3318,-5.51152 z"
       id="path40812-1-6"
       inkscape:connector-curvature="0"
       sodipodi:nodetypes="ccccccccccscc" />
    <path
       style="fill:#fefefe;fill-opacity:1;stroke:#000000;stroke-width:2;display:inline"
       d="m 357.25322,57.769993 c 0,19.39569 -30.76267,35.962512 -74.12664,42.550737 -12.25499,1.86188 -35.59908,19.60609 -52.35611,25.79947 5.60839,-8.18805 17.25127,-22.75739 10.677,-22.75739 -63.95774,0 -115.80574,-20.412603 -115.80574,-45.592817 0,-25.180214 51.848,-45.592812 115.80574,-45.592812 63.95775,0 115.80575,20.412598 115.80575,45.592812 z"
       id="path23824"
       inkscape:connector-curvature="0"
       sodipodi:nodetypes="sscssss" />
    <text
       xml:space="preserve"
       style="font-size:25.51071167px;font-style:normal;font-weight:normal;line-height:125%;letter-spacing:0px;word-spacing:0px;writing-mode:lr-tb;fill:#000000;fill-opacity:1;stroke:none;display:inline;font-family:Sans"
       x="158.68195"
       y="49.163254"
       id="text13157"
       sodipodi:linespacing="125%"><tspan
         sodipodi:role="line"
         x="158.68195"
         y="49.163254"
         id="tspan23822">良い知らせを</tspan><tspan
         sodipodi:role="line"
         x="158.68195"
         y="81.051643"
         id="tspan40578">待っておるぞ。</tspan></text>
    <path
       style="fill:#ffcc00;stroke:#000000;stroke-width:0.46064565;stroke-linecap:round;stroke-miterlimit:4;stroke-opacity:1;stroke-dashoffset:0;display:inline"
       d="m -1532.7847,375.00215 -18.2696,-71.99918 -54.2127,66.0466 -54.0843,-69.93468 -58.5004,69.24295 -58.1376,-66.73686 -28.5988,71.71121 -28.0555,-64.27898 24.7213,142.38171 c 0,-3.04392 60.1424,-5.51151 134.3318,-5.51151 74.1894,0 134.3318,2.46759 134.3318,5.51151 l 24.7212,-140.42728 z"
       id="path3270"
       inkscape:connector-curvature="0" />
  </g>
  <g
     inkscape:groupmode="layer"
     id="layer3"
     inkscape:label="豚"
     style="display:inline"
     sodipodi:insensitive="true">
    <path
       style="fill:#2b0000;stroke:#000000;stroke-width:2;stroke-linecap:butt;stroke-linejoin:miter;stroke-opacity:1"
       d="m 56.922096,177.87154 127.279214,-1.06067 c 12.09448,42.18334 24.59962,66.42114 35.7089,101.46983 l -184.554871,0.70711 c 7.077372,-33.59388 6.191767,-62.76031 21.566757,-101.11627 z"
       id="path4304"
       inkscape:connector-curvature="0"
       sodipodi:nodetypes="ccccc" />
    <path
       style="fill:#806600;stroke:#000000;stroke-width:2;stroke-linecap:round;stroke-miterlimit:4;stroke-opacity:1;stroke-dashoffset:0;display:inline"
       d="m 77.39421,84.078449 5.615324,19.104001 4.262443,-17.362005 15.234003,18.156125 13.84057,-18.311534 16.34815,17.251854 14.89183,-19.213628 8.30495,16.920868 6.80038,-19.539824 -5.07406,37.918334 c 0.0337,0.816 -16.06167,2.14263 -35.94994,2.96314 -19.88826,0.8205 -36.038179,0.82413 -36.071843,0.008 z"
       id="path40812-1-6-1"
       inkscape:connector-curvature="0"
       sodipodi:nodetypes="ccccccccccscc" />
    <path
       style="fill:#ff6600;stroke:#000000;stroke-width:2;stroke-linecap:butt;stroke-linejoin:miter;stroke-opacity:1;display:inline"
       d="m 219.01009,193.60502 c 4.20176,-14.30101 36.57141,-10.48524 31.81215,9.10043 -3.64207,14.98815 -37.46346,10.13413 -31.81215,-9.10043 z"
       id="path3125-1-0-3-0"
       inkscape:connector-curvature="0"
       sodipodi:nodetypes="sss" />
    <path
       style="fill:#ffd5d5;stroke:#000000;stroke-width:2;stroke-linecap:butt;stroke-linejoin:miter;stroke-opacity:1;display:inline"
       d="m 164.70167,184.35184 c -10.91445,1.00095 -21.90493,7.08372 -21.26853,16.61124 0.6364,9.52752 37.54925,16.52247 45.7979,6.17949 6.7467,-8.45969 4.70023,-29.82274 -14.71906,-38.84477 l -8.75556,-34.10729 -13.94101,-16.36618 -83.119017,47.47109 C 51.752932,179.74248 46.18522,198.13628 56.91764,212.89111 l 127.08302,31.46023"
       id="path3285-5"
       inkscape:connector-curvature="0"
       sodipodi:nodetypes="csscccccc" />
    <path
       style="fill:#ffcc00;stroke:#000000;stroke-width:2;stroke-linecap:butt;stroke-linejoin:miter;stroke-opacity:1;display:inline"
       d="M 50.285314,193.47905 C 44.999622,177.36081 56.151145,162.153 68.56105,160.55624 67.895839,175.93077 57.756283,188.17977 50.285314,193.47905 z"
       id="path3125-1-0-7"
       inkscape:connector-curvature="0"
       sodipodi:nodetypes="ccc" />
    <path
       style="fill:#ffd5d5;stroke:#000000;stroke-width:2;stroke-linecap:butt;stroke-linejoin:miter;stroke-opacity:1;display:inline"
       d="m 154.51496,122.87923 c -16.57027,-16.83051 -45.98161,-17.39825 -62.039513,-0.19324 -12.921431,13.84449 -28.363804,40.19547 -24.52523,53.96162"
       id="path3107-4"
       inkscape:connector-curvature="0"
       sodipodi:nodetypes="csc" />
    <path
       style="fill:#ff9955;stroke:#fffcf8;stroke-width:2;stroke-linecap:butt;stroke-linejoin:miter;stroke-opacity:1"
       d="m -97.879298,173.45785 c -11.935512,-6.52946 -26.452242,3.27016 -30.257282,14.89641 -4.04742,12.36682 2.0829,26.71067 14.32204,25.51734 16.810812,-1.63907 28.662176,-33.45133 15.935242,-40.41375 z"
       id="path39883-25"
       inkscape:connector-curvature="0"
       sodipodi:nodetypes="ssss" />
    <path
       style="fill:#ff9955;stroke:#fffcf8;stroke-width:2;stroke-linecap:butt;stroke-linejoin:miter;stroke-opacity:1"
       d="m -80.765417,179.17765 c -19.323363,-4.55565 -32.157663,33.14866 -17.783241,40.07776 12.339283,5.94807 25.330038,1.126 29.008314,-10.18056 3.441452,-10.5786 0.452837,-27.14403 -11.225073,-29.8972 z"
       id="path39883-2"
       inkscape:connector-curvature="0"
       sodipodi:nodetypes="ssss" />
    <path
       style="fill:#ffd5d5;stroke:#000000;stroke-width:2;stroke-linecap:butt;stroke-linejoin:miter;stroke-opacity:1;display:inline"
       d="m 145.77328,115.94878 c 16.94515,0.77334 27.21036,16.59294 24.3028,28.76263"
       id="path3125-1"
       inkscape:connector-curvature="0"
       sodipodi:nodetypes="cc" />
    <path
       style="fill:#ffaaaa;stroke:#000000;stroke-width:2;stroke-linecap:butt;stroke-linejoin:miter;stroke-opacity:1;display:inline"
       d="m 136.84473,141.36845 c 6.31941,-0.57844 13.23366,4.40267 16.24658,12.75721 2.58855,7.17783 2.70381,16.99369 -5.64121,17.12895 -5.85291,0.0948 -14.78263,2.18068 -22.59706,3.66401 -9.28456,1.76237 -12.98928,-6.63125 -7.42873,-16.68048 4.20797,-7.60481 11.29056,-16.12553 19.42042,-16.86969 z"
       id="path3109-0"
       inkscape:connector-curvature="0"
       sodipodi:nodetypes="ssssss" />
    <path
       style="fill:none;stroke:#000000;stroke-width:2;stroke-linecap:butt;stroke-linejoin:miter;stroke-opacity:1;display:inline"
       d="m 141.5995,132.42738 -1.38662,5.02216"
       id="path3111-9"
       inkscape:connector-curvature="0"
       sodipodi:nodetypes="cc" />
    <path
       style="fill:none;stroke:#000000;stroke-width:2;stroke-linecap:butt;stroke-linejoin:miter;stroke-opacity:1;display:inline"
       d="m 117.25126,137.26153 5.20059,3.87097"
       id="path3113-4"
       inkscape:connector-curvature="0"
       sodipodi:nodetypes="cc" />
    <path
       style="fill:#000000;stroke:#000000;stroke-width:2;stroke-linecap:butt;stroke-linejoin:miter;stroke-opacity:1;display:inline"
       d="m 140.57659,149.25421 c 2.19702,0.50438 6.70132,10.02877 3.92325,14.61872 -1.4492,2.39437 -5.83254,-15.05706 -3.92325,-14.61872 z"
       id="path3115-8"
       inkscape:connector-curvature="0"
       sodipodi:nodetypes="sss" />
    <path
       style="fill:#000000;stroke:#000000;stroke-width:2;stroke-linecap:butt;stroke-linejoin:miter;stroke-opacity:1;display:inline"
       d="m 133.055,150.19441 c -2.55118,0.39883 -8.86215,9.89303 -5.7124,15.94167 0.81299,1.56127 7.59748,-16.23638 5.7124,-15.94167 z"
       id="path3117-8"
       inkscape:connector-curvature="0"
       sodipodi:nodetypes="sss" />
    <path
       style="fill:#ffd5d5;stroke:#000000;stroke-width:2;stroke-linecap:butt;stroke-linejoin:miter;stroke-opacity:1;display:inline"
       d="m 94.463864,120.44809 c -22.218598,2.64787 -26.627478,29.92225 -18.452371,38.96438 5.263722,5.82195 12.080455,-12.38099 15.652957,-17.09275"
       id="path3127-2"
       inkscape:connector-curvature="0"
       sodipodi:nodetypes="csc" />
    <path
       style="fill:#ff9955;stroke:#fffcf8;stroke-width:2;stroke-linecap:butt;stroke-linejoin:miter;stroke-opacity:1"
       d="m -92.404647,175.04776 c -11.935513,-6.52946 -26.452243,3.27016 -30.257283,14.89641 -4.04742,12.36682 2.0829,26.71067 14.32204,25.51734 16.810816,-1.63907 28.66218,-33.45133 15.935243,-40.41375 z"
       id="path39883"
       inkscape:connector-curvature="0"
       sodipodi:nodetypes="ssss" />
    <path
       style="fill:#ff9955;stroke:#fffcf8;stroke-width:2;stroke-linecap:butt;stroke-linejoin:miter;stroke-opacity:1"
       d="m -90.845401,176.32166 c -9.142383,-5.29596 -20.743429,5.66986 -23.807149,13.92966 -4.20266,11.3304 -1.77296,26.5025 8.20791,25.98009 16.867439,-0.88286 28.152111,-32.63818 15.599239,-39.90975 z"
       id="path39883-8"
       inkscape:connector-curvature="0"
       sodipodi:nodetypes="ssss" />
    <path
       style="fill:#ff9955;stroke:#fffcf8;stroke-width:2;stroke-linecap:butt;stroke-linejoin:miter;stroke-opacity:1"
       d="m -83.285413,178.16967 c -18.278587,-7.74853 -30.644637,37.65694 -14.927247,40.41376 13.806668,2.42168 20.000887,-4.56131 22.194994,-14.57876 2.141353,-9.7766 0.544464,-22.5233 -7.267747,-25.835 z"
       id="path39883-7"
       inkscape:connector-curvature="0"
       sodipodi:nodetypes="ssss" />
    <path
       style="fill:#ff9955;stroke:#fffcf8;stroke-width:2;stroke-linecap:butt;stroke-linejoin:miter;stroke-opacity:1"
       d="m -88.829405,176.65766 c -7.35226,-2.50767 -13.429075,7.34699 -16.998335,17.08286 -3.89757,10.63141 -4.6679,21.4412 2.57509,23.8349 7.322826,2.42008 12.51495,-7.15704 15.523083,-17.6759 2.952835,-10.32549 3.835856,-21.55842 -1.099838,-23.24186 z"
       id="path39883-0"
       inkscape:connector-curvature="0"
       sodipodi:nodetypes="sssss" />
    <path
       style="fill:#ff6600;stroke:#000000;stroke-width:2;stroke-linecap:butt;stroke-linejoin:miter;stroke-opacity:1"
       d="m -104.30091,218.31256 c -22.80317,-2.3841 -28.52448,-14.55117 -23.85454,-29.84002 1.54931,-5.07225 11.99085,-24.03282 36.446684,-13.87608 -13.516484,-3.65481 -21.731394,7.77684 -21.794564,15.22141 -0.0818,9.63583 -3.27187,17.8077 2.0748,21.12947 2.56814,-3.59666 0.55427,4.15611 10.69144,5.22693 9.453594,5.52219 10.706746,-0.8554 9.265908,2.85105 8.558168,-3.54294 13.607198,-5.59374 20.907699,-4.03899 0.620385,4.77184 -3.36327,6.83554 -11.166611,6.65245 9.900624,1.69742 16.428555,9.81944 22.095635,12.35455 -9.677469,-2.65572 -10.153508,-6.86264 -16.717217,-8.72487 -7.233004,-2.05212 -16.088263,-3.56509 -27.949234,-6.9559 z"
       id="path40450"
       inkscape:connector-curvature="0"
       sodipodi:nodetypes="cscsccccccsc" />
    <g
       id="g40488"
       transform="matrix(0.75878796,-0.39825409,0.42318591,0.71408428,83.621641,77.95491)"
       style="stroke-width:2.37293839">
      <path
         sodipodi:nodetypes="ssss"
         inkscape:connector-curvature="0"
         id="path39883-25-9"
         d="m -34.247251,120.52394 c -9.28837,-5.08131 -20.58547,2.54489 -23.5466,11.59258 -3.14976,9.62402 1.62093,20.78659 11.14559,19.85793 13.08239,-1.27555 22.30528,-26.03226 12.40101,-31.45051 z"
         style="fill:#ff9955;stroke:#fffcf8;stroke-width:2.37293839;stroke-linecap:butt;stroke-linejoin:miter;stroke-opacity:1" />
      <path
         sodipodi:nodetypes="ssss"
         inkscape:connector-curvature="0"
         id="path39883-2-1"
         d="m -20.929001,124.97517 c -15.03769,-3.54527 -25.02551,25.79671 -13.83915,31.18903 9.60259,4.62886 19.71216,0.87627 22.57465,-7.92265 2.6781795,-8.2324 0.3524,-21.12383 -8.7355,-23.26638 z"
         style="fill:#ff9955;stroke:#fffcf8;stroke-width:2.37293839;stroke-linecap:butt;stroke-linejoin:miter;stroke-opacity:1" />
      <path
         sodipodi:nodetypes="ssss"
         inkscape:connector-curvature="0"
         id="path39883-08"
         d="m -29.986801,121.76123 c -9.28837,-5.08131 -20.58548,2.54488 -23.54661,11.59258 -3.14976,9.62402 1.62094,20.78659 11.1456,19.85793 13.08239,-1.27555 22.30527,-26.03226 12.40101,-31.45051 z"
         style="fill:#ff9955;stroke:#fffcf8;stroke-width:2.37293839;stroke-linecap:butt;stroke-linejoin:miter;stroke-opacity:1" />
      <path
         sodipodi:nodetypes="ssss"
         inkscape:connector-curvature="0"
         id="path39883-8-5"
         d="m -28.773381,122.7526 c -7.11472,-4.12139 -16.1428,4.41236 -18.52703,10.84024 -3.27056,8.81746 -1.37974,20.62459 6.3875,20.21804 13.12646,-0.68705 21.90834,-25.39945 12.13953,-31.05828 z"
         style="fill:#ff9955;stroke:#fffcf8;stroke-width:2.37293839;stroke-linecap:butt;stroke-linejoin:miter;stroke-opacity:1" />
      <path
         sodipodi:nodetypes="ssss"
         inkscape:connector-curvature="0"
         id="path39883-7-0"
         d="m -22.890091,124.19074 c -14.22464,-6.03 -23.84806,29.30512 -11.61658,31.45051 10.74453,1.88459 15.56495,-3.54967 17.272429,-11.34538 1.666431,-7.60827 0.42371,-17.52792 -5.655849,-20.10513 z"
         style="fill:#ff9955;stroke:#fffcf8;stroke-width:2.37293839;stroke-linecap:butt;stroke-linejoin:miter;stroke-opacity:1" />
      <path
         sodipodi:nodetypes="sssss"
         inkscape:connector-curvature="0"
         id="path39883-0-7"
         d="m -27.204501,123.01408 c -5.72162,-1.9515 -10.45068,5.71752 -13.22833,13.2941 -3.03314,8.2735 -3.63262,16.68582 2.00397,18.54863 5.69872,1.88333 9.7393,-5.5697 12.08027,-13.75562 2.29793,-8.03543 2.98511,-16.77704 -0.85591,-18.08711 z"
         style="fill:#ff9955;stroke:#fffcf8;stroke-width:2.37293839;stroke-linecap:butt;stroke-linejoin:miter;stroke-opacity:1" />
      <path
         sodipodi:nodetypes="cscsccccccsc"
         inkscape:connector-curvature="0"
         id="path40450-9"
         d="m -39.244631,155.43046 c -17.74572,-1.85534 -22.19812,-11.32391 -18.56391,-23.22189 1.20569,-3.94729 9.33143,-18.70265 28.36329,-10.79854 -10.51871,-2.84422 -16.91166,6.05203 -16.96082,11.84549 -0.0637,7.49873 -2.54621,13.85819 1.61464,16.44323 1.99856,-2.79897 0.43134,3.23434 8.32021,4.06766 7.35692,4.29744 8.33213,-0.66568 7.21085,2.21873 6.66008,-2.75716 10.5893,-4.35312 16.27065,-3.1432 0.48278,3.71351 -2.61734,5.31951 -8.69,5.17703 7.70479,1.32095 8.151799,6.98127 10.485226,11.64312 -7.53113,-2.06672 -1.959195,-7.02784 -6.299677,-8.81846 -5.4088,-2.23134 -12.520099,-2.7744 -21.750459,-5.41317 z"
         style="fill:#ff6600;stroke:#000000;stroke-width:2.37293839;stroke-linecap:butt;stroke-linejoin:miter;stroke-opacity:1" />
    </g>
    <path
       style="fill:#ffd5d5;stroke:#000000;stroke-width:2;stroke-linecap:butt;stroke-linejoin:miter;stroke-opacity:1;display:inline"
       d="m 81.732793,223.83411 c 17.972745,-5.24075 24.316767,-15.60593 25.792477,-19.87131 3.4448,-9.95678 -14.01906,-16.68603 -32.525848,-9.28523"
       id="path3285"
       inkscape:connector-curvature="0"
       sodipodi:nodetypes="csc" />
    <path
       style="fill:#ffcc00;stroke:#000000;stroke-width:2;stroke-linecap:butt;stroke-linejoin:miter;stroke-opacity:1;display:inline"
       d="m 170.04312,161.05625 c 16.94517,0.77335 27.21037,16.59296 24.30279,28.76264 -10.10127,-6.97322 -16.97476,-18.16495 -24.30279,-28.76264 z"
       id="path3125-1-0"
       inkscape:connector-curvature="0"
       sodipodi:nodetypes="ccc" />
    <path
       style="fill:#ff6600;stroke:#000000;stroke-width:2;stroke-linecap:butt;stroke-linejoin:miter;stroke-opacity:1;display:inline"
       d="m 193.234,191.10397 c 5.03474,-17.13607 43.82143,-12.56386 38.11868,10.90452 -4.36409,17.95945 -44.89031,12.14315 -38.11868,-10.90452 z"
       id="path3125-1-0-3"
       inkscape:connector-curvature="0"
       sodipodi:nodetypes="sss" />
    <path
       style="fill:#ffd5d5;stroke:#000000;stroke-width:2;stroke-linecap:butt;stroke-linejoin:miter;stroke-opacity:1;display:inline"
       d="m 161.33887,133.16111 c 13.57781,11.85077 15.53211,32.63238 9.797,42.76297"
       id="path3105-7"
       inkscape:connector-curvature="0"
       sodipodi:nodetypes="cc" />
    <path
       sodipodi:type="star"
       style="fill:none;stroke:#000000;stroke-width:2;stroke-linecap:round;stroke-miterlimit:4;stroke-opacity:1;stroke-dasharray:none;stroke-dashoffset:0;display:inline"
       id="path40812"
       sodipodi:sides="16"
       sodipodi:cx="-1177.408"
       sodipodi:cy="-113.8453"
       sodipodi:r1="167.98003"
       sodipodi:r2="164.75233"
       sodipodi:arg1="0.78539816"
       sodipodi:arg2="0.9817477"
       inkscape:flatsided="true"
       inkscape:rounded="0"
       inkscape:randomized="0"
       d="m -1058.6281,4.9345165 -54.4967,36.4134925 -64.2832,12.786718 -64.2831,-12.786717 -54.4967,-36.4134927 -36.4135,-54.4966423 -12.7867,-64.283175 12.7867,-64.28317 36.4135,-54.49664 54.4967,-36.4135 64.2831,-12.78672 64.2832,12.78672 54.4967,36.4135 36.4134,54.49664 12.7868,64.28317 -12.7868,64.283174 z"
       transform="matrix(0.94685747,0,0,0.94685747,802.8375,267.79528)" />
    <path
       sodipodi:type="arc"
       style="fill:none;stroke:#000000;stroke-width:2;stroke-linecap:round;stroke-miterlimit:4;stroke-opacity:1;stroke-dasharray:none;stroke-dashoffset:0;display:inline"
       id="path40814"
       sodipodi:cx="-802.61383"
       sodipodi:cy="-76.486397"
       sodipodi:rx="159.07661"
       sodipodi:ry="159.07661"
       d="m -643.53722,-76.486397 a 159.07661,159.07661 0 1 1 -318.15322,0 159.07661,159.07661 0 1 1 318.15322,0 z"
       transform="matrix(0.99952139,0,0,0.99952139,490.22969,236.44979)" />
    <path
       inkscape:connector-curvature="0"
       style="fill:#ffcc00;stroke:#000000;stroke-width:2;stroke-linecap:round;stroke-miterlimit:4;stroke-opacity:1;stroke-dashoffset:0;display:inline"
       d="M 158.508,98.441385 152.81412,79.342318 139.01153,97.647262 123.73949,79.497729 108.82282,98.706971 92.49957,81.459503 85.626055,100.99971 77.39421,84.078449 85.596017,121.9739 c -0.03366,-0.81598 16.061663,-2.14263 35.949923,-2.96312 19.88828,-0.8205 36.03819,-0.82414 36.07186,-0.008 l 5.07406,-37.918336 z"
       id="path3270-4" />
    <g
       id="g4292">
      <path
         sodipodi:nodetypes="sssssssss"
         inkscape:connector-curvature="0"
         id="rect3345-2-7"
         d="m 39.849091,220.61036 228.213189,0 c 2.76682,0 5.0293,3.89811 6.02845,8.43368 5.42087,24.60729 18.38256,38.91165 31.19033,59.76447 13.35709,21.74719 -32.76845,15.14712 -40.24866,15.79202 -96.63178,8.33105 -154.44263,-3.44312 -236.637049,2.45027 -15.11423,1.0837 -15.77277,-10.50061 -10.5912,-20.00887 8.063511,-14.79667 9.78526,-29.01049 14.86784,-57.99789 0.68234,-3.89158 4.10191,-8.43368 7.1771,-8.43368 z"
         style="fill:#a02c2c;stroke:none;display:inline" />
      <path
         sodipodi:nodetypes="cssccsscc"
         inkscape:connector-curvature="0"
         id="path3113-4-35"
         d="m 279.92351,247.23359 c -5.75191,-1.96921 -6.7204,-5.28649 -12.51114,-4.99323 -80.76035,4.08999 -151.99744,-0.43833 -230.313393,6.0995 -2.956428,0.2468 -7.158068,0.0739 -8.199276,2.34598 l 3.469674,-18.62652 c 1.800843,-1.95062 4.630922,-1.96437 6.786352,-2.0889 66.903783,-3.86528 140.733043,-2.53608 226.209533,-0.75598 3.00197,0.0625 5.8341,1.43066 8.73503,2.22105 z"
         style="opacity:0.5;fill:#003380;stroke:none;display:inline" />
      <path
         sodipodi:nodetypes="csccsscc"
         inkscape:connector-curvature="0"
         id="path3113-4-3-9"
         d="m 289.61806,265.26777 c -84.9986,2.24802 -200.560076,-5.75537 -256.06369,1.18491 -2.902744,0.36296 -6.088946,3.34193 -8.965322,4.00998 l -6.298101,15.76777 c 3.998458,-0.75097 8.833361,-4.21564 13.164457,-4.4924 66.441042,-4.24564 180.315006,3.08105 222.800856,3.39928 24.44638,0.18312 32.68373,-8.6985 46.65469,-3.25343 z"
         style="opacity:0.5;fill:#003380;stroke:none;display:inline" />
      <path
         sodipodi:nodetypes="ccccc"
         inkscape:connector-curvature="0"
         id="path3113-4-35-8-1"
         d="m 36.725291,306.43549 c -7.223077,-18.5351 20.240643,-58.2893 26.174414,-85.12097 l 25.250002,-1 c -7.766805,34.4566 -23.422547,68.62611 -14.299414,85.37097 z"
         style="opacity:0.5;fill:#2c2ca0;stroke:none;display:inline" />
      <path
         sodipodi:nodetypes="ccccc"
         inkscape:connector-curvature="0"
         id="path3113-4-35-8-1-8-2"
         d="m 112.97529,305.93549 c -6.34819,-20.71733 3.11628,-37.74731 5.42442,-86.62097 l 31.43934,0.23223 c -8.09981,45.12366 0.0893,80.08024 -0.73876,87.63874 z"
         style="opacity:0.5;fill:#2c2ca0;stroke:none;display:inline" />
      <path
         sodipodi:nodetypes="ccccc"
         inkscape:connector-curvature="0"
         id="path3113-4-35-8-1-8-2-60"
         d="m 185.43868,307.83454 c 8.34745,-25.04624 -2.52598,-56.68001 0.71103,-88.02002 l 32.5,0.75 c -1.26613,25.37408 11.35526,73.73257 5.20058,86.62097 z"
         style="opacity:0.5;fill:#2c2ca0;stroke:none;display:inline" />
      <path
         sodipodi:nodetypes="ccccc"
         inkscape:connector-curvature="0"
         id="path3113-4-35-8-1-8-2-6-0"
         d="m 294.22529,304.68549 c 10.14109,-16.69641 -18.38372,-35.91398 -27.57558,-83.87097 l -19.5,0 c 4.0935,44.8097 20.48175,73.51558 12.20058,83.37097 z"
         style="opacity:0.5;fill:#2c2ca0;stroke:none;display:inline" />
      <path
         sodipodi:nodetypes="cscssc"
         inkscape:connector-curvature="0"
         id="path3113-4-3-9-1"
         d="m 28.392929,307.04966 c 56.795682,-4.76578 183.664961,5.39577 236.639281,-2.44885 22.03357,-3.2628 16.47354,1.0176 27.98907,0.0936 -15.12928,-2.50661 -41.40809,-1.39765 -68.52016,-1.31735 -35.77577,0.10597 -74.85548,-0.46736 -110.0244,-2.49781 -36.405263,-2.10183 -76.382048,0.11404 -86.083791,6.17045 z"
         style="opacity:0.5;fill:#003380;stroke:none;display:inline" />
      <path
         sodipodi:nodetypes="sssssssss"
         inkscape:connector-curvature="0"
         id="rect3345-2"
         d="m 39.848971,220.61092 228.213199,0 c 2.76682,0 5.0293,3.89811 6.02845,8.43368 5.42087,24.60729 18.6314,38.76085 31.19033,59.76447 13.00354,21.74719 -32.76845,15.14712 -40.24866,15.79202 -96.63178,8.33105 -154.44615,-3.49201 -236.63705,2.45027 -14.989236,1.0837 -15.804028,-10.50061 -10.591204,-20.00887 8.100933,-14.77621 9.785262,-29.01049 14.86784,-57.99789 0.682337,-3.89158 4.101909,-8.43368 7.177095,-8.43368 z"
         style="fill:none;stroke:#000000;stroke-width:2;stroke-linecap:round;stroke-miterlimit:4;stroke-opacity:1;stroke-dashoffset:0;display:inline" />
      <path
         inkscape:connector-curvature="0"
         id="rect3345"
         d="m 31.244941,209.30241 239.373919,0 c 1.6379,0 2.95651,1.3186 2.95651,2.9565 l 0,5.85353 c 0,1.6379 -1.31861,2.9565 -2.95651,2.9565 l -239.373919,0 c -1.637904,0 -2.956506,-1.3186 -2.956506,-2.9565 l 0,-5.85353 c 0,-1.6379 1.318602,-2.9565 2.956506,-2.9565 z"
         style="fill:#502d16;fill-opacity:1;stroke:#000000;stroke-width:2;stroke-linecap:round;stroke-miterlimit:4;stroke-opacity:1;stroke-dashoffset:0;display:inline" />
    </g>
  </g>
  <g
     inkscape:groupmode="layer"
     id="layer2"
     inkscape:label="枠面"
     sodipodi:insensitive="true">
    <path
       style="fill:#ffffff;stroke:none;display:inline"
       d="m 0,0 0,320 370,0 0,-320 -10,10 0,300 -350,0 0,-300 350,0 10,-10 z"
       id="path21072"
       inkscape:connector-curvature="0"
       sodipodi:nodetypes="ccccccccccc" />
  </g>
</svg>
