<?xml version="1.0" encoding="UTF-8" standalone="no"?>
<!-- Created with Inkscape (http://www.inkscape.org/) -->

<svg
   xmlns:dc="http://purl.org/dc/elements/1.1/"
   xmlns:cc="http://creativecommons.org/ns#"
   xmlns:rdf="http://www.w3.org/1999/02/22-rdf-syntax-ns#"
   xmlns:svg="http://www.w3.org/2000/svg"
   xmlns="http://www.w3.org/2000/svg"
   xmlns:sodipodi="http://sodipodi.sourceforge.net/DTD/sodipodi-0.dtd"
   xmlns:inkscape="http://www.inkscape.org/namespaces/inkscape"
   width="370"
   height="320"
   id="svg3172"
   version="1.1"
   inkscape:version="0.48.4 r9939"
   sodipodi:docname="[18]途上.svg"
   inkscape:export-filename="C:\Users\執安\Desktop\資料\臨時\LEGEND\[18]途上.png"
   inkscape:export-xdpi="90"
   inkscape:export-ydpi="90">
  <defs
     id="defs3174" />
  <sodipodi:namedview
     id="base"
     pagecolor="#ffffff"
     bordercolor="#666666"
     borderopacity="1.0"
     inkscape:pageopacity="0.0"
     inkscape:pageshadow="2"
     inkscape:zoom="1.5164126"
     inkscape:cx="99.088318"
     inkscape:cy="157.66613"
     inkscape:document-units="px"
     inkscape:current-layer="layer3"
     showgrid="false"
     inkscape:window-width="1100"
     inkscape:window-height="698"
     inkscape:window-x="-5"
     inkscape:window-y="-5"
     inkscape:window-maximized="0" />
  <metadata
     id="metadata3177">
    <rdf:RDF>
      <cc:Work
         rdf:about="">
        <dc:format>image/svg+xml</dc:format>
        <dc:type
           rdf:resource="http://purl.org/dc/dcmitype/StillImage" />
        <dc:title></dc:title>
      </cc:Work>
    </rdf:RDF>
  </metadata>
  <g
     inkscape:label="補助線"
     inkscape:groupmode="layer"
     id="layer1"
     transform="translate(0,-732.36218)"
     sodipodi:insensitive="true"
     style="display:none">
    <path
       style="fill:none;stroke:#0000ff;stroke-width:1px;stroke-linecap:butt;stroke-linejoin:miter;stroke-opacity:1;display:inline"
       d="M 10,1042.3622 360,742.36211"
       id="path3025"
       inkscape:connector-curvature="0"
       sodipodi:nodetypes="cc" />
    <path
       style="fill:none;stroke:#0000ff;stroke-width:1px;stroke-linecap:butt;stroke-linejoin:miter;stroke-opacity:1;display:inline"
       d="M 10,742.36211 360,1042.3622"
       id="path3027"
       inkscape:connector-curvature="0"
       sodipodi:nodetypes="cc" />
    <path
       style="fill:none;stroke:#ff0000;stroke-width:1px;stroke-linecap:butt;stroke-linejoin:miter;stroke-opacity:1;display:inline"
       d="m 10,732.36211 0,320.00009"
       id="path3006"
       inkscape:connector-curvature="0"
       sodipodi:nodetypes="cc" />
    <path
       style="fill:none;stroke:#ff0000;stroke-width:1px;stroke-linecap:butt;stroke-linejoin:miter;stroke-opacity:1;display:inline"
       d="m 360,732.36211 0,320.00009"
       id="path3010"
       inkscape:connector-curvature="0"
       sodipodi:nodetypes="cc" />
    <path
       style="fill:none;stroke:#ff0000;stroke-width:1px;stroke-linecap:butt;stroke-linejoin:miter;stroke-opacity:1;display:inline"
       d="m 0,742.36208 370,3e-5"
       id="path3016"
       inkscape:connector-curvature="0" />
    <path
       style="fill:none;stroke:#ff0000;stroke-width:1px;stroke-linecap:butt;stroke-linejoin:miter;stroke-opacity:1;display:inline"
       d="m 0,1042.3622 370,0"
       id="path3018"
       inkscape:connector-curvature="0"
       sodipodi:nodetypes="cc" />
  </g>
  <g
     inkscape:groupmode="layer"
     id="layer3"
     inkscape:label="豚"
     style="display:inline"
     sodipodi:insensitive="true">
    <path
       sodipodi:type="arc"
       style="opacity:0.5;fill:#000000;fill-opacity:1;stroke:none;display:inline"
       id="path27766-3"
       sodipodi:cx="286.02469"
       sodipodi:cy="274.74518"
       sodipodi:rx="69.650017"
       sodipodi:ry="13.435029"
       d="m 355.67471,274.74518 a 69.650017,13.435029 0 1 1 -139.30004,0 69.650017,13.435029 0 1 1 139.30004,0 z"
       transform="matrix(1.3636364,0,0,1.1842105,-283.38912,-47.075429)" />
    <path
       sodipodi:type="arc"
       style="opacity:0.5;fill:#000000;fill-opacity:1;stroke:none"
       id="path27766"
       sodipodi:cx="286.02469"
       sodipodi:cy="274.74518"
       sodipodi:rx="69.650017"
       sodipodi:ry="13.435029"
       d="m 355.67471,274.74518 a 69.650017,13.435029 0 1 1 -139.30004,0 69.650017,13.435029 0 1 1 139.30004,0 z"
       transform="matrix(1,0,0,0.86842105,-5.6568542,37.211341)" />
    <g
       id="g27023"
       transform="matrix(0.95386379,0,0,0.95386379,12.729758,13.193049)"
       style="stroke-width:2.09673548;display:inline">
      <path
         sodipodi:nodetypes="ccccc"
         inkscape:connector-curvature="0"
         id="path27021"
         d="m 345.59844,253.53196 -0.17678,-28.28427 -21.2132,-38.89087 1.06066,52.67945 c 7.05534,-0.22772 18.29076,4.46444 20.32932,14.49569 z"
         style="fill:#2b0000;stroke:#000000;stroke-width:2.09673548;stroke-linecap:butt;stroke-linejoin:miter;stroke-opacity:1" />
      <path
         sodipodi:nodetypes="csscccsc"
         inkscape:connector-curvature="0"
         id="path26742"
         d="m 219.89175,200.48366 c -15.9184,28.03972 -5.61466,54.27319 9.88625,63.41861 26.68233,15.74237 74.5366,9.91015 98.28265,5.96677 18.16734,-3.01696 19.49682,-12.98275 6.35245,-22.5753 l -7.78428,-68.51311 -100.26048,-4.98672 c -20.70345,14.39947 -24.40271,32.56756 -24.55796,40.69483 -0.14294,7.48288 4.31921,11.13908 10.60827,7.20291"
         style="fill:#ffd5d5;stroke:#000000;stroke-width:2.09673548;stroke-linecap:butt;stroke-linejoin:miter;stroke-opacity:1;display:inline" />
      <path
         sodipodi:nodetypes="cc"
         id="path11055"
         d="m 284.75442,273.58026 c 64.32456,6.90857 64.24264,-58.89597 46.50854,-88.84811"
         style="fill:#ffd5d5;stroke:#000000;stroke-width:2.09673548;stroke-linecap:butt;stroke-linejoin:miter;stroke-opacity:1;display:inline"
         inkscape:connector-curvature="0" />
      <g
         id="g27013"
         style="stroke-width:2.09673548">
        <path
           sodipodi:nodetypes="cssc"
           inkscape:connector-curvature="0"
           id="path4328-5-5-5"
           d="m 230.17206,165.97711 c -15.65452,1.35909 -22.54268,12.67098 -25.03259,21.6544 -1.89231,6.82733 4.34473,1.28231 12.25603,2.26509 7.5059,0.93241 4.2642,-16.17145 12.77656,-23.91949 z"
           style="fill:#c8b7b7;stroke:none;display:inline" />
        <path
           sodipodi:nodetypes="cccc"
           inkscape:connector-curvature="0"
           id="path4330-2-9-3"
           d="m 225.72447,166.64151 c -3.50192,0.8624 -6.33289,12.18042 -8.33893,18.71081 -4.19972,0.0433 -12.52897,3.51292 -11.57654,0.12327 2.69371,-6.91657 7.28161,-15.60494 19.91547,-18.83408 z"
           style="fill:#000080;stroke:none;display:inline" />
        <path
           style="fill:none;stroke:#000000;stroke-width:2.09673548;stroke-linecap:butt;stroke-linejoin:miter;stroke-opacity:1;display:inline"
           d="m 230.175,165.97706 c -15.65452,1.35909 -22.54267,12.67098 -25.03259,21.6544 -1.89231,6.82733 4.34474,1.28231 12.25603,2.26509 7.5059,0.93241 4.26421,-16.17145 12.77656,-23.91949 z"
           id="path4328-5-5"
           inkscape:connector-curvature="0"
           sodipodi:nodetypes="cssc" />
        <path
           style="fill:none;stroke:#000000;stroke-width:2.09673548;stroke-linecap:butt;stroke-linejoin:miter;stroke-opacity:1;display:inline"
           d="m 225.72742,166.64146 c -3.50192,0.8624 -6.33289,12.18042 -8.33893,18.71081 -4.19972,0.0433 -12.52897,3.51292 -11.57655,0.12327"
           id="path4330-2-9"
           inkscape:connector-curvature="0"
           sodipodi:nodetypes="ccc" />
      </g>
      <path
         sodipodi:nodetypes="csccc"
         inkscape:connector-curvature="0"
         id="path27019"
         d="m 330.98223,185.98223 c 8.17774,17.13253 17.90219,34.03151 18.95191,50.9467 0.74068,11.93556 -3.10217,20.74021 -6.56066,27.13389 C 346.56346,236.87671 335.62377,206.94519 329.5,194.5 z"
         style="fill:#800000;stroke:#000000;stroke-width:2.09673548;stroke-linecap:butt;stroke-linejoin:miter;stroke-opacity:1" />
      <path
         sodipodi:nodetypes="csssc"
         inkscape:connector-curvature="0"
         id="path5099-5-7-8-9-2-3-1"
         d="m 324.24951,176.18454 c 28.4534,28.72646 15.98248,77.45399 -25.10489,65.4007 -4.49178,-1.3177 -1.34138,-5.28741 -2.8619,-7.02468 -1.97658,-2.25852 -5.15868,-0.40563 -5.72072,-3.48952 -0.59726,-3.27798 6.24583,-16.69114 12.34721,-21.58352"
         style="fill:#ffd5d5;stroke:none;display:inline" />
      <path
         sodipodi:nodetypes="csc"
         inkscape:connector-curvature="0"
         id="path26827"
         d="m 287.87832,234.31317 c -47.29021,1.97791 -31.12882,44.79223 -18.05444,49.88992 7.96522,3.10564 18.22801,-3.68504 23.58284,-14.45525"
         style="fill:#ffd5d5;stroke:#000000;stroke-width:2.09673548;stroke-linecap:butt;stroke-linejoin:miter;stroke-opacity:1;display:inline" />
      <path
         sodipodi:nodetypes="sssccs"
         inkscape:connector-curvature="0"
         id="path5099-5-7-8-9-2-3-3"
         d="m 299.14446,241.58131 c -4.22176,-2.02217 -1.34138,-5.28741 -2.8619,-7.02468 -1.97658,-2.25852 -5.05538,-0.41781 -5.72072,-3.48952 -0.40435,-1.86676 2.6838,-9.06756 4.87827,-12.30536 8.84274,-4.95298 20.34561,20.675 11.57716,24.44322 -2.62427,-0.3106 -5.69882,-0.58235 -7.87281,-1.62366 z"
         style="fill:#ffaaaa;stroke:none;display:inline" />
      <path
         sodipodi:nodetypes="csssc"
         inkscape:connector-curvature="0"
         id="path5099-5-7-8-9-2-3"
         d="m 324.25046,176.18235 c 28.4534,28.72646 15.98248,77.45399 -25.10489,65.4007 -4.49178,-1.3177 -1.34138,-5.28741 -2.8619,-7.02468 -1.97658,-2.25852 -5.15868,-0.40563 -5.72072,-3.48952 -0.59726,-3.27798 6.24583,-16.69114 12.34721,-21.58352"
         style="fill:none;stroke:#000000;stroke-width:2.09673548;stroke-linecap:butt;stroke-linejoin:miter;stroke-opacity:1;display:inline" />
      <path
         sodipodi:nodetypes="cc"
         inkscape:connector-curvature="0"
         id="path5103-5-8-2-6-3-2"
         d="m 307.01838,243.20671 c 8.68006,-3.23789 -2.21233,-29.28208 -11.57716,-24.44322"
         style="fill:none;stroke:#000000;stroke-width:2.09673548;stroke-linecap:butt;stroke-linejoin:miter;stroke-opacity:1;display:inline" />
      <path
         sodipodi:nodetypes="cccc"
         inkscape:connector-curvature="0"
         id="path26738"
         d="M 326.89201,183.52719 249.56892,119.4625 c -18.62043,3.75221 -29.99092,22.16149 -24.49009,30.96874 l 1.76029,27.20887"
         style="fill:#ffd5d5;stroke:#000000;stroke-width:2.09673548;stroke-linecap:butt;stroke-linejoin:miter;stroke-opacity:1;display:inline" />
      <path
         sodipodi:nodetypes="csc"
         inkscape:connector-curvature="0"
         id="path12515-7-84"
         d="m 236.84089,129.59058 c 19.77654,-24.40888 55.38724,-18.70916 71.11593,2.10223 17.37588,22.99087 27.46334,48.89166 16.61979,60.7328"
         style="fill:#ffd5d5;stroke:#000000;stroke-width:2.09673548;stroke-linecap:butt;stroke-linejoin:miter;stroke-opacity:1;display:inline" />
      <path
         sodipodi:nodetypes="cc"
         inkscape:connector-curvature="0"
         id="path4041-7-5-6-0"
         d="m 228.18351,186.4298 c -11.00104,-12.65072 -7.95078,-30.00222 -0.10153,-41.46372"
         style="fill:#ffd5d5;stroke:#000000;stroke-width:2.09673548;stroke-linecap:butt;stroke-linejoin:miter;stroke-opacity:1;display:inline" />
      <path
         inkscape:connector-curvature="0"
         id="path5095-5-4-8-5-1-1-1-7"
         d="m 240.48748,143.84406 0.45115,4.66286"
         style="fill:none;stroke:#000000;stroke-width:2.09673548;stroke-linecap:butt;stroke-linejoin:miter;stroke-opacity:1;display:inline"
         sodipodi:nodetypes="cc" />
      <path
         inkscape:connector-curvature="0"
         id="path5097-5-8-8-5-1-2-4-6"
         d="m 259.60469,147.7457 -4.18357,4.3447"
         style="fill:none;stroke:#000000;stroke-width:2.09673548;stroke-linecap:butt;stroke-linejoin:miter;stroke-opacity:1;display:inline"
         sodipodi:nodetypes="cc" />
      <path
         sodipodi:nodetypes="csc"
         inkscape:connector-curvature="0"
         id="path5099-1-8-2-7-5-0-2-3"
         d="m 299.0115,125.00887 c 25.11287,7.81772 29.69606,38.39613 14.96176,51.58578 -5.20935,4.66323 -14.94607,-15.58572 -21.13282,-23.95745"
         style="fill:#ffd5d5;stroke:#000000;stroke-width:2.09673548;stroke-linecap:butt;stroke-linejoin:miter;stroke-opacity:1;display:inline" />
      <path
         sodipodi:nodetypes="ssssss"
         inkscape:connector-curvature="0"
         id="path5101-7-2-4-1-2-1-3-6"
         d="m 243.03455,153.20908 c 7.06968,0.8382 14.54292,7.67158 19.07772,15.57562 5.71046,9.95317 4.31382,19.96037 -5.39996,17.15511 -7.62341,-2.20158 -13.64108,-4.44444 -19.70265,-4.51753 -6.89907,-0.0832 -7.13861,-10.00295 -5.80248,-16.35644 1.49077,-7.08883 5.82023,-12.56898 11.82737,-11.85676 z"
         style="fill:#ffaaaa;stroke:#000000;stroke-width:2.09673548;stroke-linecap:butt;stroke-linejoin:miter;stroke-opacity:1;display:inline" />
      <path
         inkscape:connector-curvature="0"
         id="path5105-1-4-55-1-28-76-6-2-1"
         d="m 254.92749,177.04239 c -1.26921,3.20068 -9.64008,-13.70648 -7.94709,-14.06478 2.03924,-0.43154 9.88868,9.16843 7.94709,14.06478 z"
         style="fill:#000000;stroke:#000000;stroke-width:2.09673548;display:inline"
         sodipodi:nodetypes="sss" />
      <path
         inkscape:connector-curvature="0"
         id="path5107-1-5-1-5-1-4-2-5"
         d="m 240.41821,162.22728 c 1.09605,-0.24132 2.14003,13.97664 -0.22246,13.0904 -3.37696,-1.26683 -2.05389,-12.58925 0.22246,-13.0904 z"
         style="fill:#000000;stroke:#000000;stroke-width:2.09673548;display:inline"
         sodipodi:nodetypes="sss" />
      <g
         id="g26952"
         style="stroke-width:2.09673548">
        <path
           style="fill:#c8b7b7;stroke:#000000;stroke-width:2.09673548;stroke-linecap:butt;stroke-linejoin:miter;stroke-opacity:1;display:inline"
           d="m 336.42908,188.55617 c -4.67262,-9.46175 -26.23354,-11.2013 -35.93807,5.72891 -5.54189,9.6682 20.65057,25.47323 31.46975,23.96974 7.69218,-1.06895 8.43242,-21.67158 4.46832,-29.69865 z"
           id="path4132-5-9"
           inkscape:connector-curvature="0"
           sodipodi:nodetypes="ssss" />
        <path
           style="fill:#000080;stroke:#000000;stroke-width:2.09673548;stroke-linecap:butt;stroke-linejoin:miter;stroke-opacity:1;display:inline"
           d="m 304.60441,197.89335 c 4.08643,8.0868 20.40522,15.84598 25.35116,15.01144 4.19836,-0.70841 9.23009,-14.37733 5.55213,-24.20207 -7.9733,-10.69115 -30.16521,-0.97449 -30.90329,9.19063 z"
           id="path4134-7-7"
           inkscape:connector-curvature="0"
           sodipodi:nodetypes="cscc" />
      </g>
    </g>
    <g
       style="display:inline"
       id="g27193"
       transform="translate(3,0)">
      <path
         id="path3125-1-4-1-7-0"
         d="m 92.484243,215.28643 c -36.715543,-0.52647 -71.071937,17.42686 -79.642585,63.41163 -1.234564,6.6239 100.043892,7.16506 140.225022,2.09854"
         style="fill:#ffd5d5;stroke:#000000;stroke-width:2;stroke-linecap:butt;stroke-linejoin:miter;stroke-opacity:1;display:inline"
         inkscape:connector-curvature="0" />
      <path
         style="fill:#ffd5d5;stroke:none;display:inline"
         d="m 177.64544,237.64368 c 10.19222,-2.94889 24.18027,-1.00827 27.0942,4.19924 1.89487,3.38634 -2.88492,5.53469 -2.88492,5.53469 -3.63989,8.7566 1.40997,9.84822 -0.14548,12.48976 -7.99713,13.58065 -25.76297,19.55781 -52.77703,21.11081 l -43.5308,-45.80715 z"
         id="path11146-5-2"
         inkscape:connector-curvature="0"
         sodipodi:nodetypes="cscsccc" />
      <path
         style="fill:#ffaaaa;stroke:none;display:inline"
         d="m 204.74049,241.84308 c -1.58806,-4.1532 -12.22426,-5.36406 -12.22426,-5.36406 -9.13025,-1.07441 -9.15863,37.16835 1.47613,32.10923 2.05746,-1.29926 5.35381,-4.64159 7.71773,-8.72073 1.53704,-2.6523 -3.49441,-3.73316 0.14548,-12.48976 1.74837,-1.11496 4.13811,-2.25726 2.88492,-5.53468 z"
         id="path11146-5-3"
         inkscape:connector-curvature="0"
         sodipodi:nodetypes="sccscs" />
      <path
         style="fill:#ff8080;stroke:none;display:inline"
         d="m 196.51342,251.40132 c -1.33034,3.13343 1.87329,12.62714 5.19137,8.46763 1.55487,-2.64162 -3.495,-3.73324 0.14489,-12.48984 -1.24231,0.20949 -4.36567,1.73612 -5.33626,4.02221 z"
         id="path11146-5-0"
         inkscape:connector-curvature="0"
         sodipodi:nodetypes="sccs" />
      <path
         style="fill:none;stroke:#000000;stroke-width:2;stroke-linecap:butt;stroke-linejoin:miter;stroke-opacity:1;display:inline"
         d="m 192.51389,236.48054 c -9.13025,-1.07441 -9.15863,37.16835 1.47613,32.10923"
         id="path3113-4-1-4-6-8-2"
         inkscape:connector-curvature="0"
         sodipodi:nodetypes="cc" />
      <g
         style="stroke-width:1.99999988;display:inline"
         transform="matrix(0.16357449,-0.86440569,-1.1693573,0.06601899,148.81755,592.72434)"
         id="g4233-1-0">
        <path
           style="fill:none;stroke:#000000;stroke-width:1.99999988;stroke-linecap:butt;stroke-linejoin:miter;stroke-opacity:1"
           d="M 450.5,37.000001 409.5,136.5"
           id="path4231-5"
           inkscape:connector-curvature="0" />
        <path
           style="fill:#c87137;stroke:#000000;stroke-width:1.99999988;stroke-linecap:butt;stroke-linejoin:miter;stroke-opacity:1"
           d="m 455.00729,49.12072 c -4.12719,-9.101421 -3.12014,-15.435185 -1.27395,-26.969283 -5.13338,10.931821 -6.22639,20.164402 -2.96444,27.997993 10.42441,25.034236 -8.82301,67.67812 -27.84458,75.00607 -9.80438,3.77708 -17.73276,8.31862 -17.99884,21.7376 2.70034,-8.55672 9.87948,-14.94097 19.08631,-17.65761 20.32874,-5.99836 42.34169,-55.093741 30.9955,-80.11477 z"
           id="path3156-1-7-2"
           inkscape:connector-curvature="0"
           sodipodi:nodetypes="scsscss" />
      </g>
      <path
         sodipodi:nodetypes="cccc"
         inkscape:connector-curvature="0"
         id="path27191"
         d="m 176.32249,258.71474 -2.18078,-32.76425 c 4.17732,-7.32145 -6.85228,-24.38051 -24.45575,-25.32449 l -55.395696,32.69967"
         style="fill:#ffd5d5;stroke:#000000;stroke-width:2;stroke-linecap:butt;stroke-linejoin:miter;stroke-opacity:1;display:inline" />
      <path
         sodipodi:nodetypes="csc"
         inkscape:connector-curvature="0"
         id="path11144-5"
         d="m 114.54052,257.48556 c 16.34873,4.5418 23.75218,13.2663 23.24501,20.41729 -0.50059,7.05805 -19.13276,5.10368 -34.48142,5.46048"
         style="fill:none;stroke:#000000;stroke-width:2;stroke-linecap:butt;stroke-linejoin:miter;stroke-opacity:1;display:inline" />
      <path
         sodipodi:nodetypes="cssc"
         inkscape:connector-curvature="0"
         id="path11146-5"
         d="m 177.64395,237.64535 c 10.29745,-2.9138 24.52853,-1.0827 27.0942,4.19925 2.59892,5.35042 -6.00076,5.38882 -8.22118,9.55689 -1.60055,3.00441 1.87329,12.62714 5.19194,8.46771"
         style="fill:none;stroke:#000000;stroke-width:2;stroke-linecap:butt;stroke-linejoin:miter;stroke-opacity:1;display:inline" />
      <path
         sodipodi:nodetypes="csc"
         inkscape:connector-curvature="0"
         id="path11148-1"
         d="m 201.85323,247.37928 c -3.6399,8.7566 1.40997,9.84822 -0.14548,12.48976 -7.99713,13.58066 -25.76297,19.55782 -52.77704,21.11081"
         style="fill:none;stroke:#000000;stroke-width:2;stroke-linecap:butt;stroke-linejoin:miter;stroke-opacity:1;display:inline" />
      <path
         sodipodi:nodetypes="cc"
         inkscape:connector-curvature="0"
         id="path3105-7-5-7-2-9"
         d="m 170.15678,221.19339 c 13.4041,13.09866 13.65638,30.32254 4.88427,42.57141"
         style="fill:#ffd5d5;stroke:#000000;stroke-width:2;stroke-linecap:butt;stroke-linejoin:miter;stroke-opacity:1;display:inline" />
      <path
         sodipodi:nodetypes="ssssss"
         inkscape:connector-curvature="0"
         id="path3109-0-1-0-0-4"
         d="m 162.15047,231.39164 c 6.83414,-1.30105 10.09377,7.26456 10.98957,13.51359 0.9188,6.4094 -0.37773,14.15394 -5.5201,14.66226 -4.18888,0.41406 -10.57132,1.94213 -16.116,3.61206 -6.5323,1.96737 -10.87049,-3.5905 -6.48626,-14.13788 3.42168,-8.23172 11.02489,-16.48724 17.13279,-17.65003 z"
         style="fill:#ffaaaa;stroke:#000000;stroke-width:2;stroke-linecap:butt;stroke-linejoin:miter;stroke-opacity:1;display:inline" />
      <path
         sodipodi:nodetypes="cc"
         inkscape:connector-curvature="0"
         id="path3111-9-7-9-1-8"
         d="m 163.55622,223.37437 -0.74373,4.50347"
         style="fill:none;stroke:#000000;stroke-width:2;stroke-linecap:butt;stroke-linejoin:miter;stroke-opacity:1;display:inline" />
      <path
         sodipodi:nodetypes="cc"
         inkscape:connector-curvature="0"
         id="path3113-4-1-4-6-8"
         d="m 145.32086,227.88118 4.47221,3.28891"
         style="fill:none;stroke:#000000;stroke-width:2;stroke-linecap:butt;stroke-linejoin:miter;stroke-opacity:1;display:inline" />
      <path
         sodipodi:nodetypes="sss"
         inkscape:connector-curvature="0"
         id="path3115-8-1-8-5-2"
         d="m 164.84705,239.67741 c 1.1361,0.30799 3.07715,9.16954 0.6106,12.8544 -1.33648,1.99661 -2.2338,-13.29445 -0.6106,-12.8544 z"
         style="fill:#000000;stroke:#000000;stroke-width:2;stroke-linecap:butt;stroke-linejoin:miter;stroke-opacity:1;display:inline" />
      <path
         sodipodi:nodetypes="sss"
         inkscape:connector-curvature="0"
         id="path3117-8-5-8-7-4"
         d="m 158.41007,240.63962 c -1.56511,0.34237 -6.56979,8.43318 -4.48,13.93006 0.53701,1.41253 6.08014,-14.28009 4.48,-13.93006 z"
         style="fill:#000000;stroke:#000000;stroke-width:2;stroke-linecap:butt;stroke-linejoin:miter;stroke-opacity:1;display:inline" />
      <path
         sodipodi:nodetypes="csc"
         inkscape:connector-curvature="0"
         id="path3107-4-5-4-6-7"
         d="m 157.60394,205.39738 c -19.08496,-16.4546 -49.29291,-7.94031 -62.417072,8.23649 -8.913901,10.98723 -21.778054,26.08029 -19.128416,37.73695"
         style="fill:#ffd5d5;stroke:#000000;stroke-width:2;stroke-linecap:butt;stroke-linejoin:miter;stroke-opacity:1;display:inline" />
      <path
         sodipodi:nodetypes="csc"
         inkscape:connector-curvature="0"
         id="path3127-2-2-2-5-1"
         d="m 105.33867,206.44582 c -26.07417,7.99049 -27.059088,33.80377 -17.060155,44.23634 6.256959,6.52831 17.781655,-13.58375 22.348595,-20.12879"
         style="fill:#ffd5d5;stroke:#000000;stroke-width:2;stroke-linecap:butt;stroke-linejoin:miter;stroke-opacity:1;display:inline" />
    </g>
    <path
       style="fill:#ffd5d5;stroke:#000000;stroke-width:2;stroke-linecap:butt;stroke-linejoin:miter;stroke-opacity:1;display:inline"
       d="M -89.238014,158.29039 -166.69277,97.884523 c -18.45326,2.502207 -29.65914,20.682937 -23.74125,30.740187 l -1.12016,20.393 c -45.12281,33.35156 -34.98093,51.69304 -16.42401,47.18544 l 5.46157,39.4614"
       id="path26738-3"
       inkscape:connector-curvature="0"
       sodipodi:nodetypes="cccccc" />
    <path
       style="fill:#ffd5d5;stroke:#000000;stroke-width:2;stroke-linecap:butt;stroke-linejoin:miter;stroke-opacity:1;display:inline"
       d="m -201.80228,234.08292 c -15.39796,14.37376 -1.82342,25.39385 23.79126,17.71285 19.8812,-0.87152 49.72564,0.67639 73.48515,-0.82848"
       id="path5091-2-40-9-2-1-3-7-0-0"
       inkscape:connector-curvature="0"
       sodipodi:nodetypes="ccc" />
    <g
       style="stroke-width:2.04962873;display:inline"
       id="g4187-7-9-7"
       transform="matrix(-0.86136216,-0.23084662,-0.45472156,0.98354482,-2.3008838,47.434882)">
      <path
         sodipodi:nodetypes="cssc"
         inkscape:connector-curvature="0"
         id="path4328-5-5-7"
         d="m 143.80797,132.64628 c 15.56795,5.03576 23.75469,18.71259 22.34367,27.51513 -1.07237,6.68986 -11.14342,-1.56588 -19.75123,-2.58699 -8.16672,-0.96879 2.76523,-15.79298 -2.59244,-24.92814 z"
         style="fill:none;stroke:#000000;stroke-width:2.04962873;stroke-linecap:butt;stroke-linejoin:miter;stroke-opacity:1;display:inline" />
      <path
         sodipodi:nodetypes="ccc"
         inkscape:connector-curvature="0"
         id="path4330-2-9-8"
         d="m 148.10758,134.33095 c 3.23499,1.63611 1.14116,12.65205 0.31793,19.09847 4.31897,1.05769 17.36528,7.91358 17.88434,4.58905"
         style="fill:none;stroke:#000000;stroke-width:2.04962873;stroke-linecap:butt;stroke-linejoin:miter;stroke-opacity:1;display:inline" />
    </g>
    <path
       inkscape:connector-curvature="0"
       style="fill:#ffd5d5;stroke:#000000;stroke-width:2;stroke-linecap:butt;stroke-linejoin:miter;stroke-opacity:1;display:inline"
       d="m -130.22793,244.00289 c 2.06337,12.41851 9.17057,22.73962 20.68062,18.84273 28.494916,-9.64735 34.893506,-47.33913 22.786276,-83.66175"
       id="path11055-7"
       sodipodi:nodetypes="csc" />
    <path
       style="fill:#ffd5d5;stroke:none;display:inline"
       d="m -88.006294,161.1917 c 30.28745,19.22961 14.74158,62.28718 -15.738446,52.68182 -3.33225,-1.05009 -0.99519,-4.21358 -2.12306,-5.59802 -1.46618,-1.79985 -3.82697,-0.32325 -4.2437,-2.78085 -0.44307,-2.61223 4.63335,-13.3013 9.15944,-17.20004"
       id="path5099-5-7-3-4-8-3"
       inkscape:connector-curvature="0"
       sodipodi:nodetypes="csssc" />
    <path
       style="fill:#ffd5d5;stroke:#000000;stroke-width:2;stroke-linecap:butt;stroke-linejoin:miter;stroke-opacity:1;display:inline"
       d="m -180.1272,108.31438 c 19.92264,-23.024997 52.57237,-16.876607 69.39914,2.23611 17.587646,19.97698 26.357786,45.21489 21.075866,55.10628"
       id="path12515-7-84-0"
       inkscape:connector-curvature="0"
       sodipodi:nodetypes="csc" />
    <path
       style="fill:#ffd5d5;stroke:#000000;stroke-width:2;stroke-linecap:butt;stroke-linejoin:miter;stroke-opacity:1;display:inline"
       d="m -189.11635,163.91616 c -9.32725,-13.18105 -6.99855,-28.76478 1.23013,-40.22628"
       id="path4041-7-5-6-0-3"
       inkscape:connector-curvature="0"
       sodipodi:nodetypes="cc" />
    <path
       sodipodi:nodetypes="cc"
       style="fill:none;stroke:#000000;stroke-width:2;stroke-linecap:butt;stroke-linejoin:miter;stroke-opacity:1;display:inline"
       d="m -173.69338,119.43398 1.04546,6.07707"
       id="path5095-5-4-8-5-1-1-1-7-8"
       inkscape:connector-curvature="0" />
    <path
       sodipodi:nodetypes="cc"
       style="fill:none;stroke:#000000;stroke-width:2;stroke-linecap:butt;stroke-linejoin:miter;stroke-opacity:1;display:inline"
       d="m -152.95513,123.86595 -6.19525,4.69825"
       id="path5097-5-8-8-5-1-2-4-6-2"
       inkscape:connector-curvature="0" />
    <path
       style="fill:#ffd5d5;stroke:#000000;stroke-width:2;stroke-linecap:butt;stroke-linejoin:miter;stroke-opacity:1;display:inline"
       d="m -123.51293,102.73267 c 25.631396,5.6964 35.138626,33.77481 22.47768,45.9038 -5.13297,4.91733 -16.07402,-11.77506 -21.98364,-20.14679"
       id="path5099-1-8-2-7-5-0-2-3-5"
       inkscape:connector-curvature="0"
       sodipodi:nodetypes="csc" />
    <path
       style="fill:#ffaaaa;stroke:#000000;stroke-width:2;stroke-linecap:butt;stroke-linejoin:miter;stroke-opacity:1;display:inline"
       d="m -169.97525,130.28643 c 6.96765,1.06983 14.83423,8.22828 19.61449,15.82562 5.92885,9.42284 5.24624,19.35682 -5.43532,16.55156 -7.61275,-1.99936 -16.23568,-4.69444 -22.29483,-4.76753 -6.89632,-0.0832 -6.97094,-10.53418 -5.42024,-16.88677 1.62242,-6.64689 6.98746,-11.72834 13.5359,-10.72288 z"
       id="path5101-7-2-4-1-2-1-3-6-2"
       inkscape:connector-curvature="0"
       sodipodi:nodetypes="ssssss" />
    <path
       sodipodi:nodetypes="sss"
       style="fill:#000000;stroke:#000000;stroke-width:2;display:inline"
       d="m -158.92792,154.26619 c -1.37516,3.20068 -8.94683,-13.38954 -7.24197,-13.74784 2.05352,-0.43154 9.34565,8.85149 7.24197,13.74784 z"
       id="path5105-1-4-55-1-28-76-6-2-1-0"
       inkscape:connector-curvature="0" />
    <path
       sodipodi:nodetypes="sss"
       style="fill:#000000;stroke:#000000;stroke-width:2;display:inline"
       d="m -172.69262,139.32608 c 1.10404,-0.24132 0.32304,13.35164 -2.01011,12.4654 -3.33502,-1.26683 -0.28283,-11.96425 2.01011,-12.4654 z"
       id="path5107-1-5-1-5-1-4-2-5-3"
       inkscape:connector-curvature="0" />
    <path
       style="fill:#ffaaaa;stroke:none;display:inline"
       d="m -105.30972,193.69655 c 7.410666,-2.46154 17.165736,17.94317 10.693686,21.08698 0,0 -6.213076,0.3818 -9.281766,-1.24722 -3.05981,-1.62427 -0.99519,-4.21359 -2.12306,-5.59803 -1.46618,-1.79984 -3.82686,-0.32324 -4.2437,-2.78083 -0.44318,-2.61223 4.95484,-11.4609 4.95484,-11.4609 z"
       id="path5103-5-8-3-8-4-7"
       inkscape:connector-curvature="0"
       sodipodi:nodetypes="ccsssc" />
    <path
       style="fill:none;stroke:#000000;stroke-width:2;stroke-linecap:butt;stroke-linejoin:miter;stroke-opacity:1;display:inline"
       d="m -87.878224,161.18624 c 30.28735,19.22959 14.74137,62.28716 -15.738556,52.6818 -3.33215,-1.05008 -0.99508,-4.21357 -2.12305,-5.59801 -1.46629,-1.79983 -3.82688,-0.32325 -4.24381,-2.78082 -0.44307,-2.61225 4.63335,-13.30131 9.15955,-17.20008"
       id="path5099-5-7-8-9-2"
       inkscape:connector-curvature="0"
       sodipodi:nodetypes="csssc" />
    <g
       style="stroke-width:1.87602615;display:inline"
       id="g4181-1-4-9"
       transform="matrix(1.0479126,0.20397714,-0.36839733,1.01286,-402.55918,-1.3898075)">
      <path
         sodipodi:nodetypes="ssss"
         inkscape:connector-curvature="0"
         id="path4132-5-9-7"
         d="m 333.17681,88.059118 c -9.00938,-0.764607 -11.06492,27.721292 -5.64863,28.285112 8.15263,0.84867 33.37231,1.84932 34.19014,-2.71929 1.19069,-6.65123 -19.51711,-24.79994 -28.54151,-25.565822 z"
         style="fill:none;stroke:#000000;stroke-width:1.87602615;stroke-linecap:butt;stroke-linejoin:miter;stroke-opacity:1;display:inline" />
      <path
         sodipodi:nodetypes="ccsc"
         inkscape:connector-curvature="0"
         id="path4134-7-7-5"
         d="m 336.02752,88.719145 c -3.94447,-0.713076 -8.09105,12.183545 -5.75377,21.748895 11.49193,3.08689 26.46518,2.37845 28.44955,-0.28791 1.29085,-1.73457 -0.45313,-4.35391 -2.12995,-6.27262"
         style="fill:none;stroke:#000000;stroke-width:1.87602615;stroke-linecap:butt;stroke-linejoin:miter;stroke-opacity:1;display:inline" />
    </g>
    <path
       style="fill:none;stroke:#000000;stroke-width:2;stroke-linecap:butt;stroke-linejoin:miter;stroke-opacity:1;display:inline"
       d="m -94.335004,215.11526 c 6.47194,-3.1438 -3.28302,-23.5485 -10.693796,-21.08695"
       id="path5103-5-8-2-6-3"
       inkscape:connector-curvature="0"
       sodipodi:nodetypes="cc" />
    <path
       style="fill:#ffd5d5;stroke:#000000;stroke-width:2;stroke-linecap:butt;stroke-linejoin:miter;stroke-opacity:1;display:inline"
       d="m -199.96285,177.91457 c -16.11335,26.17577 -9.71228,48.36613 -1.83943,60.94132"
       id="path26742-4"
       inkscape:connector-curvature="0"
       sodipodi:nodetypes="cc" />
  </g>
  <g
     inkscape:groupmode="layer"
     id="layer4"
     inkscape:label="吹き出し"
     style="display:inline"
     sodipodi:insensitive="true">
    <path
       style="fill:#fdfefe;fill-opacity:1;stroke:#000000;stroke-width:2;display:inline"
       d="m 212.40677,114.15072 c 0,-28.902456 -43.81139,-52.332528 -97.85547,-52.332528 -54.044097,0 -97.855477,23.430072 -97.855477,52.332528 0,16.15865 13.693885,30.60684 35.21393,40.20645 13.410153,5.98197 3.531051,17.10412 20.577771,33.59789 -6.768947,-21.15812 9.732819,-23.47583 27.394069,-22.05593 4.785237,0.38472 9.683917,0.58413 14.669707,0.58413 54.04408,0 97.85547,-23.43008 97.85547,-52.33254 z"
       id="path14889-6"
       inkscape:connector-curvature="0"
       sodipodi:nodetypes="sssscsss" />
    <text
       xml:space="preserve"
       style="font-size:26.57419968px;font-style:normal;font-weight:normal;line-height:125%;letter-spacing:0px;word-spacing:0px;writing-mode:lr-tb;fill:#000000;fill-opacity:1;stroke:none;display:inline;font-family:Sans"
       x="44.270634"
       y="105.05712"
       id="text15400-7"
       sodipodi:linespacing="125%"><tspan
         sodipodi:role="line"
         x="44.270634"
         y="105.05712"
         id="tspan15404-8">後から</tspan><tspan
         sodipodi:role="line"
         x="44.270634"
         y="138.27487"
         id="tspan27832">必ず行く…。</tspan></text>
    <text
       xml:space="preserve"
       style="font-size:20px;font-style:normal;font-weight:normal;line-height:125%;letter-spacing:0px;word-spacing:0px;writing-mode:lr-tb;fill:#000000;fill-opacity:1;stroke:none;font-family:Sans"
       x="124.45079"
       y="146.05173"
       id="text27826"
       sodipodi:linespacing="125%"><tspan
         sodipodi:role="line"
         id="tspan27828"
         x="124.45079"
         y="146.05173" /></text>
  </g>
  <g
     inkscape:groupmode="layer"
     id="layer2"
     inkscape:label="枠面"
     sodipodi:insensitive="true">
    <path
       style="fill:#ffffff;stroke:none;display:inline"
       d="m 0,0 0,320 370,0 0,-320 -10,10 0,300 -350,0 0,-300 350,0 10,-10 z"
       id="path21072"
       inkscape:connector-curvature="0"
       sodipodi:nodetypes="ccccccccccc" />
  </g>
</svg>
