<?xml version="1.0" encoding="UTF-8" standalone="no"?>
<!-- Created with Inkscape (http://www.inkscape.org/) -->

<svg
   xmlns:dc="http://purl.org/dc/elements/1.1/"
   xmlns:cc="http://creativecommons.org/ns#"
   xmlns:rdf="http://www.w3.org/1999/02/22-rdf-syntax-ns#"
   xmlns:svg="http://www.w3.org/2000/svg"
   xmlns="http://www.w3.org/2000/svg"
   xmlns:sodipodi="http://sodipodi.sourceforge.net/DTD/sodipodi-0.dtd"
   xmlns:inkscape="http://www.inkscape.org/namespaces/inkscape"
   width="370"
   height="320"
   id="svg3172"
   version="1.1"
   inkscape:version="0.48.4 r9939"
   sodipodi:docname="[32]急行.svg"
   inkscape:export-filename="C:\Users\執安\Desktop\資料\臨時\LEGEND\[32]急行.png"
   inkscape:export-xdpi="90"
   inkscape:export-ydpi="90">
  <defs
     id="defs3174" />
  <sodipodi:namedview
     id="base"
     pagecolor="#ffffff"
     bordercolor="#666666"
     borderopacity="1.0"
     inkscape:pageopacity="0.0"
     inkscape:pageshadow="2"
     inkscape:zoom="1.8760109"
     inkscape:cx="88.92166"
     inkscape:cy="103.0163"
     inkscape:document-units="px"
     inkscape:current-layer="layer4"
     showgrid="false"
     inkscape:window-width="956"
     inkscape:window-height="697"
     inkscape:window-x="-5"
     inkscape:window-y="-4"
     inkscape:window-maximized="0" />
  <metadata
     id="metadata3177">
    <rdf:RDF>
      <cc:Work
         rdf:about="">
        <dc:format>image/svg+xml</dc:format>
        <dc:type
           rdf:resource="http://purl.org/dc/dcmitype/StillImage" />
        <dc:title></dc:title>
      </cc:Work>
    </rdf:RDF>
  </metadata>
  <g
     inkscape:label="補助線"
     inkscape:groupmode="layer"
     id="layer1"
     transform="translate(0,-732.36218)"
     sodipodi:insensitive="true"
     style="display:none">
    <path
       style="fill:none;stroke:#0000ff;stroke-width:1px;stroke-linecap:butt;stroke-linejoin:miter;stroke-opacity:1;display:inline"
       d="M 10,1042.3622 360,742.36211"
       id="path3025"
       inkscape:connector-curvature="0"
       sodipodi:nodetypes="cc" />
    <path
       style="fill:none;stroke:#0000ff;stroke-width:1px;stroke-linecap:butt;stroke-linejoin:miter;stroke-opacity:1;display:inline"
       d="M 10,742.36211 360,1042.3622"
       id="path3027"
       inkscape:connector-curvature="0"
       sodipodi:nodetypes="cc" />
    <path
       style="fill:none;stroke:#ff0000;stroke-width:1px;stroke-linecap:butt;stroke-linejoin:miter;stroke-opacity:1;display:inline"
       d="m 10,732.36211 0,320.00009"
       id="path3006"
       inkscape:connector-curvature="0"
       sodipodi:nodetypes="cc" />
    <path
       style="fill:none;stroke:#ff0000;stroke-width:1px;stroke-linecap:butt;stroke-linejoin:miter;stroke-opacity:1;display:inline"
       d="m 360,732.36211 0,320.00009"
       id="path3010"
       inkscape:connector-curvature="0"
       sodipodi:nodetypes="cc" />
    <path
       style="fill:none;stroke:#ff0000;stroke-width:1px;stroke-linecap:butt;stroke-linejoin:miter;stroke-opacity:1;display:inline"
       d="m 0,742.36208 370,3e-5"
       id="path3016"
       inkscape:connector-curvature="0" />
    <path
       style="fill:none;stroke:#ff0000;stroke-width:1px;stroke-linecap:butt;stroke-linejoin:miter;stroke-opacity:1;display:inline"
       d="m 0,1042.3622 370,0"
       id="path3018"
       inkscape:connector-curvature="0"
       sodipodi:nodetypes="cc" />
  </g>
  <g
     inkscape:groupmode="layer"
     id="layer4"
     inkscape:label="吹き出し"
     style="display:inline"
     sodipodi:insensitive="true">
    <path
       style="fill:#fefefe;fill-opacity:1;stroke:#000000;stroke-width:2;display:inline"
       d="m 333.01746,71.719439 c 0,22.579917 -29.44535,41.866701 -70.95248,49.536371 -6.83999,1.26391 -25.9469,19.23729 -37.89293,25.34108 2.63926,-9.53229 4.29131,-21.79958 -2.00144,-21.79958 -61.21902,0 -110.84685,-23.76378 -110.84685,-53.077871 0,-29.314095 49.62783,-53.077869 110.84685,-53.077869 61.21902,0 110.84685,23.763774 110.84685,53.077869 z"
       id="path23824"
       inkscape:connector-curvature="0"
       sodipodi:nodetypes="sscssss" />
    <text
       xml:space="preserve"
       style="font-size:28.92807961px;font-style:normal;font-weight:normal;line-height:125%;letter-spacing:0px;word-spacing:0px;writing-mode:lr-tb;fill:#000000;fill-opacity:1;stroke:none;font-family:Sans"
       x="149.90498"
       y="64.954437"
       id="text13157"
       sodipodi:linespacing="125%"><tspan
         sodipodi:role="line"
         id="tspan13159"
         x="149.90498"
         y="64.954437">待っていて</tspan><tspan
         sodipodi:role="line"
         x="149.90498"
         y="101.11454"
         id="tspan21717">くれ…!!</tspan></text>
  </g>
  <g
     inkscape:groupmode="layer"
     id="layer3"
     inkscape:label="豚"
     style="display:inline"
     sodipodi:insensitive="true">
    <path
       style="fill:#fefefe;fill-opacity:1;stroke:#000000;stroke-width:2;stroke-linecap:butt;stroke-linejoin:miter;stroke-opacity:1"
       d="m 9.2067639,164.4182 c -82.3095739,-4.55934 -3.658445,8.11578 26.0899111,9.20412 -113.422785,-4.30171 109.465055,21.04681 37.826655,5.92789 33.69187,1.87387 54.55216,1.80864 18.594383,-4.64272 73.616837,1.42839 -29.11123,-5.88012 -52.896815,-9.23983 70.198562,-3.61437 -204.805448,-25.57892 -29.6141341,-1.24946 z"
       id="path5615-5-2"
       inkscape:connector-curvature="0"
       sodipodi:nodetypes="cccccc" />
    <path
       style="fill:#fefefe;fill-opacity:1;stroke:#000000;stroke-width:2;stroke-linecap:butt;stroke-linejoin:miter;stroke-opacity:1;display:inline"
       d="m 268.5153,161.63026 c 29.83615,1.91637 -8.15027,-7.02635 -32.62996,-8.81425 23.06625,-0.35781 -49.44515,-7.94063 -44.16031,-4.86627 -56.63491,-6.26397 -60.60652,-2.34059 -17.80598,2.06307 -35.84562,-0.82796 27.54283,6.10244 46.91962,9.50634 -66.14577,-1.47198 123.82722,16.64577 47.67663,2.11111 z"
       id="path5615-3"
       inkscape:connector-curvature="0"
       sodipodi:nodetypes="cccccc" />
    <path
       style="fill:#5d6c53;stroke:#000000;stroke-width:2;stroke-linecap:butt;stroke-linejoin:miter;stroke-opacity:1;display:inline"
       d="m 230.68785,265.77589 c 2.75517,0.0105 7.04493,0.53115 9.49306,1.20358 3.66554,1.00682 2.02789,8.09197 0.1476,11.30715 -0.13372,-3.17512 -0.95786,-5.30506 -1.70753,-7.29741 l -6.31653,0.15221 c -3.99025,0.0962 -3.69898,-5.37348 -1.6166,-5.36553 z"
       id="path12413-5-4-9"
       inkscape:connector-curvature="0"
       sodipodi:nodetypes="ssccss" />
    <path
       style="fill:#5d6c53;stroke:#000000;stroke-width:2;stroke-linecap:butt;stroke-linejoin:miter;stroke-opacity:1;display:inline"
       d="m 230.0843,269.24556 c 2.75517,0.0105 6.77348,1.06148 9.22161,1.73391 3.66554,1.00682 1.46539,8.40447 -0.4149,11.61965 -0.13372,-3.17512 -0.39536,-5.61756 -1.14503,-7.60991 l -7.42008,-0.56562 c -3.97986,-0.30338 -2.32398,-5.18598 -0.2416,-5.17803 z"
       id="path12413-5-4-1"
       inkscape:connector-curvature="0"
       sodipodi:nodetypes="ssccss" />
    <path
       style="fill:#5d6c53;stroke:#000000;stroke-width:2;stroke-linecap:butt;stroke-linejoin:miter;stroke-opacity:1;display:inline"
       d="m 234.62152,275.27914 c 3.66554,1.00682 1.21539,7.59197 -0.6649,10.80715 -0.13372,-3.17512 0.16714,-4.93006 -0.58253,-6.92241 l -5.69153,0.0272 c -3.99136,0.0191 -2.69898,-4.93598 -0.2802,-4.92675 2.41877,0.009 4.77103,0.34238 7.21916,1.01481 z"
       id="path12413-5-4"
       inkscape:connector-curvature="0"
       sodipodi:nodetypes="sccsss" />
    <path
       style="fill:#5d6c53;stroke:#000000;stroke-width:2;stroke-linecap:butt;stroke-linejoin:miter;stroke-opacity:1;display:inline"
       d="m 92.065771,283.90874 c -3.56041,1.33168 -9.102595,-1.79276 -11.999536,-4.13379 3.159281,0.34382 4.937669,0.19728 7.019896,-0.24521 l 0.11929,-4.12868 c 0.115275,-3.98974 8.25444,-1.75695 7.91828,0.63838 -0.34334,2.44646 -1.21154,7.1787 -3.05793,7.8693 z"
       id="path12413-5-4-97-9"
       inkscape:connector-curvature="0"
       sodipodi:nodetypes="sccsss" />
    <path
       style="fill:#5d6c53;stroke:#000000;stroke-width:2;stroke-linecap:butt;stroke-linejoin:miter;stroke-opacity:1;display:inline"
       d="m 88.707011,288.85848 c -3.560411,1.33168 -9.102592,-1.79276 -11.999533,-4.13379 3.159281,0.34382 4.937669,0.19728 7.019894,-0.24521 l 0.119293,-4.12868 c 0.115278,-3.98974 8.254441,-1.75695 7.918279,0.63838 -0.343339,2.44646 -1.211544,7.1787 -3.057933,7.8693 z"
       id="path12413-5-4-97-6"
       inkscape:connector-curvature="0"
       sodipodi:nodetypes="sccsss" />
    <path
       style="fill:#5d6c53;stroke:#000000;stroke-width:2;stroke-linecap:butt;stroke-linejoin:miter;stroke-opacity:1;display:inline"
       d="m 84.53482,294.43695 c -3.560411,1.33168 -9.102592,-1.79276 -11.999533,-4.13379 3.159281,0.34382 4.937669,0.19728 7.019894,-0.24521 l 0.119293,-4.12868 c 0.115278,-3.98974 8.254441,-1.75695 7.918279,0.63838 -0.343339,2.44646 -1.211544,7.1787 -3.057933,7.8693 z"
       id="path12413-5-4-97"
       inkscape:connector-curvature="0"
       sodipodi:nodetypes="sccsss" />
    <path
       style="fill:#1c1c24;stroke:#000000;stroke-width:2;stroke-linecap:butt;stroke-linejoin:miter;stroke-opacity:1;display:inline"
       d="m 322.81556,227.12754 c -43.38933,-14.14931 -86.77867,-21.58971 -130.168,-44.09552 l -0.4808,-0.0802 c 45.14147,23.36744 87.26291,27.10461 130.73311,39.60879 z"
       id="path21027-9-6-7"
       inkscape:connector-curvature="0"
       sodipodi:nodetypes="ccccc" />
    <path
       style="fill:#165016;stroke:#000000;stroke-width:2;stroke-linecap:butt;stroke-linejoin:miter;stroke-opacity:1;display:inline"
       d="m 195.58671,224.41247 c 0.57193,-2.87784 3.66459,-5.22757 7.8862,-7.20325 3.03163,-1.41877 9.02044,-3.26965 11.20102,-4.10967 2.40763,-0.9275 2.97078,-3.44165 5.23432,-4.40251 2.93484,-1.24582 18.91007,-1.72633 13.01558,-4.07296 -35.84251,-14.26913 -84.90062,-29.01427 -132.76461,-18.72447 19.53308,1.18833 42.38561,7.67997 30.3374,10.98962 7.55143,3.25341 9.35972,12.3669 -2.63782,12.12663 l 28.02528,16.28675 z"
       id="path12435"
       inkscape:connector-curvature="0"
       sodipodi:nodetypes="cssssccccc" />
    <path
       style="fill:#165016;fill-opacity:1;stroke:#000000;stroke-width:2;stroke-linecap:butt;stroke-linejoin:miter;stroke-opacity:1;display:inline"
       d="M 293.36909,198.83782 C 236.64202,186.85056 203.22863,239.84053 140.94551,211.19391 93.908205,189.55948 46.985466,184.92265 -8.3441575,205.01887 -63.358874,225.00074 -123.91807,274.84335 -104.78364,349.39688 -107.719,284.93668 -44.422535,232.29948 0.67728449,228.23373 65.690172,222.37281 61.920373,251.72364 109.91384,264.36196 c 74.05062,19.50008 118.07629,-22.17919 158.88229,-32.59213 7.93502,-2.02487 24.08909,1.51018 30.99748,2.73867 l 19.27957,-10.83357 12.82798,-16.90558 -31.73059,-19.94844 z"
       id="path18538"
       inkscape:connector-curvature="0"
       sodipodi:nodetypes="csscsssccccc" />
    <path
       style="fill:#165016;stroke:#000000;stroke-width:2;stroke-linecap:butt;stroke-linejoin:miter;stroke-opacity:1;display:inline"
       d="m 118.56028,269.39197 c -11.33815,-2.69386 -36.419547,-6.97181 -32.749766,-22.60977 5.558888,-23.68797 55.740586,0.46284 60.590666,9.94836 5.42686,10.61356 0.82593,17.0355 -16.29483,21.57519 -5.44603,1.44405 -29.56687,2.33982 -33.021142,4.7696 -7.308494,1.42302 -5.041999,2.87671 -10.488891,4.51437 -5.9283,1.7824 -10.05205,-2.55504 -7.222995,-4.84703 2.451217,-1.98588 1.67362,-7.49462 3.630652,-9.55885 3.772023,-3.97865 7.138551,-0.81413 9.47443,-1.49544 2.995327,-0.87364 7.195694,-5.38031 9.555446,-6.58608"
       id="path16947"
       inkscape:connector-curvature="0"
       sodipodi:nodetypes="cssscssssc" />
    <path
       style="fill:#165016;stroke:#000000;stroke-width:2;stroke-linecap:butt;stroke-linejoin:miter;stroke-opacity:1;display:inline"
       d="m 178.90842,251.85608 13.14764,19.16729 c 6.17755,-2.47488 11.42009,-2.53555 17.92953,-3.26043 9.87669,-3.73077 15.29918,-2.85379 19.76605,-3.1521 2.23663,-0.14937 2.86621,2.13659 3.5648,4.01929 0.95294,2.56818 -4.48811,11.07447 -7.22641,11.59772 -1.82829,0.34936 -3.98149,-2.38532 -4.56586,-3.3007 -1.65525,0.21214 -4.79769,-2.37928 -7.46016,-1.65381 -2.2629,0.61659 -9.29737,3.53675 -11.32106,2.45711 -5.62949,2.59806 -9.1007,6.56921 -15.56087,6.28794 -6.25751,-0.27245 -11.26781,-9.45914 -19.02671,-14.9448"
       id="path20604"
       inkscape:connector-curvature="0"
       sodipodi:nodetypes="cccssscscsc" />
    <path
       style="fill:none;stroke:#000000;stroke-width:2;stroke-linecap:butt;stroke-linejoin:miter;stroke-opacity:1;display:inline"
       d="m -120.09611,144.01599 c 14.51027,1.82022 24.144018,17.0621 20.603928,23.26681"
       id="path3125-1-4-6"
       inkscape:connector-curvature="0"
       sodipodi:nodetypes="cc" />
    <path
       style="fill:none;stroke:#000000;stroke-width:2;stroke-linecap:butt;stroke-linejoin:miter;stroke-opacity:1;display:inline"
       d="m -102.49225,162.9285 c 8.911058,10.94362 7.817738,22.96738 2.871348,31.6921"
       id="path3105-7-5-5"
       inkscape:connector-curvature="0"
       sodipodi:nodetypes="cc" />
    <path
       style="fill:none;stroke:#000000;stroke-width:2;stroke-linecap:butt;stroke-linejoin:miter;stroke-opacity:1;display:inline"
       d="m -114.31868,148.00379 c -15.33886,-13.20254 -38.99415,-8.00654 -49.71922,6.01575 -8.37042,10.94368 -20.08858,29.24374 -17.84309,39.12239"
       id="path3107-4-5-3"
       inkscape:connector-curvature="0"
       sodipodi:nodetypes="csc" />
    <path
       style="fill:none;stroke:#000000;stroke-width:2;stroke-linecap:butt;stroke-linejoin:miter;stroke-opacity:1;display:inline"
       d="m -112.94656,169.00161 c 4.97439,0.1155 7.84336,6.5709 8.60506,11.81223 0.69656,4.79276 -0.39865,8.83012 -5.79279,9.02529 -4.25605,0.15398 -7.14042,1.06626 -12.63315,2.52886 -7.7499,2.0636 -9.25573,-4.88253 -4.3034,-13.19984 3.04958,-5.12157 8.18765,-10.30452 14.12428,-10.16654 z"
       id="path3109-0-1-9"
       inkscape:connector-curvature="0"
       sodipodi:nodetypes="ssssss" />
    <path
       style="fill:none;stroke:#000000;stroke-width:2;stroke-linecap:butt;stroke-linejoin:miter;stroke-opacity:1;display:inline"
       d="m -113.67924,163.59002 -0.5375,3.25987"
       id="path3111-9-7-2"
       inkscape:connector-curvature="0"
       sodipodi:nodetypes="cc" />
    <path
       style="fill:none;stroke:#000000;stroke-width:2;stroke-linecap:butt;stroke-linejoin:miter;stroke-opacity:1;display:inline"
       d="m -127.34187,165.29253 3.03466,3.51563"
       id="path3113-4-1-4"
       inkscape:connector-curvature="0"
       sodipodi:nodetypes="cc" />
    <path
       style="fill:#000000;stroke:#000000;stroke-width:2;stroke-linecap:butt;stroke-linejoin:miter;stroke-opacity:1;display:inline"
       d="m -112.31711,175.32892 c 1.59841,0.36697 3.56124,6.8175 1.15306,9.09284 -1.48006,1.39831 -2.54218,-9.41172 -1.15306,-9.09284 z"
       id="path3115-8-1-6"
       inkscape:connector-curvature="0"
       sodipodi:nodetypes="sss" />
    <path
       style="fill:#000000;stroke:#000000;stroke-width:2;stroke-linecap:butt;stroke-linejoin:miter;stroke-opacity:1;display:inline"
       d="m -117.56038,176.03843 c -1.85604,0.29015 -5.67362,6.61718 -3.47886,10.5341 0.62606,1.11721 4.85033,-10.74852 3.47886,-10.5341 z"
       id="path3117-8-5-1"
       inkscape:connector-curvature="0"
       sodipodi:nodetypes="sss" />
    <path
       style="fill:none;stroke:#000000;stroke-width:2;stroke-linecap:butt;stroke-linejoin:miter;stroke-opacity:1;display:inline"
       d="m -154.82246,146.90769 c -20.74757,5.02198 -21.88769,28.54111 -13.61829,35.70009 4.31721,3.73743 14.20627,-12.29669 16.80541,-15.72473"
       id="path3127-2-2-8"
       inkscape:connector-curvature="0"
       sodipodi:nodetypes="csc" />
    <path
       style="fill:#6f916f;stroke:#000000;stroke-width:2;stroke-linecap:butt;stroke-linejoin:miter;stroke-opacity:1;display:inline"
       d="m -319.10315,209.82775 c 35.45963,2.67022 33.99544,11.59923 33.65698,16.17853 47.19284,4.53484 63.45629,9.52486 50.35642,16.99433 11.08385,3.00635 14.69634,10.67433 10.4444,14.14936 19.7007,-0.13354 34.00876,3.10872 46.31704,7.15197 l 3.50094,-10.14315 -0.23533,-16.50861 -8.30206,-23.46763 -10.9122,-11.05215 -35.90406,-3.14864 -35.17086,1.49621 -30.38737,3.56691 z"
       id="path3113-4-1-8-1"
       inkscape:connector-curvature="0"
       sodipodi:nodetypes="ccccccccccccc" />
    <path
       style="fill:#165016;stroke:#000000;stroke-width:2;stroke-linecap:butt;stroke-linejoin:miter;stroke-opacity:1;display:inline"
       d="m -171.75838,263.69032 c 1.60984,-13.38918 -4.22465,-57.30589 -21.37369,-61.27683 -27.19901,-6.29811 -87.12566,-3.55873 -128.92648,8.36483 34.08909,-10.31596 105.19875,-11.35004 122.39582,-5.1369 11.60468,4.1926 21.74606,17.34851 9.55765,17.31512 -15.54686,-0.0426 -45.09577,-4.32067 -97.66285,3.38579 48.69877,-4.3787 73.6205,-2.7371 99.89651,-0.0104 10.76957,1.11759 14.16658,18.20918 6.93967,17.02333 -7.42332,-1.21805 -26.85666,-2.08786 -55.96411,-0.56443 28.77885,0.15776 47.34085,0.78211 56.94709,3.60818 5.42662,1.59652 -0.42202,14.03246 -2.433,16.5835 -1.93409,2.45346 10.2447,3.85778 10.62339,0.70784 z"
       id="path12433-9"
       inkscape:connector-curvature="0"
       sodipodi:nodetypes="sscsscsscsss" />
    <path
       style="fill:#6f916f;stroke:#000000;stroke-width:2;stroke-linecap:butt;stroke-linejoin:miter;stroke-opacity:1;display:inline"
       d="m -354.72423,317.15496 c 36.36579,-8.27358 46.92323,8.20302 52.71922,16.50146 49.70769,-9.26001 71.40995,-6.3336 69.25615,11.81662 14.2643,1.29033 27.83581,13.6491 28.53831,21.41558 18.04686,-7.48308 35.6086,-6.95731 52.38889,-4.26641 l -10.29296,-19.3928 -22.24138,-29.38108 -38.98768,-38.83638 -24.8392,-15.71509 -37.41517,7.58303 -30.54033,15.60441 -23.35271,17.5415 z"
       id="path3113-4-1-8-7"
       inkscape:connector-curvature="0"
       sodipodi:nodetypes="ccccccccccccc" />
    <path
       style="fill:#165016;stroke:#000000;stroke-width:2;stroke-linecap:butt;stroke-linejoin:miter;stroke-opacity:1;display:inline"
       d="m -146.55976,359.11447 c -16.37289,-24.49149 -80.35837,-100.7366 -101.52037,-101.5183 -33.56383,-1.23991 -85.34715,25.6872 -108.11,62.34236 17.77344,-30.94971 82.1771,-58.94531 106.37478,-54.17898 16.32868,3.21625 43.26133,22.96996 31.94134,27.39251 -14.4392,5.64114 -47.48194,8.87113 -85.83053,41.95801 39.2095,-25.72434 64.45448,-31.95879 92.39987,-36.75444 11.4538,-1.96551 37.39779,27.29352 29.13019,27.83442 -8.49223,0.55563 -27.63031,6.14943 -52.52512,19.57266 26.83363,-10.3015 44.83819,-16.01301 57.49506,-14.5011 7.15,0.85418 18.32987,25.20292 19.8728,30.49601 1.48389,5.09063 14.62389,3.1187 10.77198,-2.64315 z"
       id="path12433-6"
       inkscape:connector-curvature="0"
       sodipodi:nodetypes="sscsscsscsss" />
    <path
       style="fill:#808080;stroke:#000000;stroke-width:2;stroke-linecap:butt;stroke-linejoin:miter;stroke-opacity:1;display:inline"
       d="m 475.67765,175.48601 c 3.61695,2.01156 3.13774,7.62754 4.25032,6.37543 1.53963,-1.73272 2.10806,-4.77659 2.23137,-7.65053 0.0931,-2.16928 -8.73254,0.0233 -6.48169,1.2751 z"
       id="path12415-4-2"
       inkscape:connector-curvature="0"
       sodipodi:nodetypes="ssss" />
    <path
       style="fill:#808080;stroke:#000000;stroke-width:2;stroke-linecap:butt;stroke-linejoin:miter;stroke-opacity:1;display:inline"
       d="m 486.9067,174.48291 c 1.41339,2.81391 -0.3284,6.77465 0.98612,6.10782 2.21476,-1.12348 3.52429,-3.73708 3.17936,-5.01985 -0.60908,-2.26522 -4.67739,-2.10715 -4.16548,-1.08797 z"
       id="path12417-2-9"
       inkscape:connector-curvature="0"
       sodipodi:nodetypes="ssss" />
    <path
       style="fill:#808080;stroke:#000000;stroke-width:2;stroke-linecap:butt;stroke-linejoin:miter;stroke-opacity:1;display:inline"
       d="m 491.78184,176.14892 c 0.45845,1.63378 0.90576,3.26089 0.65895,4.47151 -0.32564,1.59721 3.85315,-2.7652 2.74999,-3.82132 -0.77485,-0.74182 -3.87033,-2.29452 -3.40894,-0.65019 z"
       id="path12419-5-5"
       inkscape:connector-curvature="0"
       sodipodi:nodetypes="ssss" />
    <path
       style="fill:#800000;stroke:#000000;stroke-width:2;stroke-linecap:butt;stroke-linejoin:miter;stroke-opacity:1;display:inline"
       d="m 470.92289,180.09185 -0.91571,4.80506 c -0.85471,4.48503 4.96736,8.72611 9.42212,12.8215 4.29173,3.94551 6.63046,5.75326 10.2715,8.02444 l -6.87202,3.11314 -11.14435,-5.47341 -13.00985,-12.17467 0.49243,-9.31425 z"
       id="path12431-2"
       inkscape:connector-curvature="0"
       sodipodi:nodetypes="csscccccc" />
    <path
       style="fill:#808080;stroke:#000000;stroke-width:2;stroke-linecap:butt;stroke-linejoin:miter;stroke-opacity:1;display:inline"
       d="m 474.63704,193.68288 c -0.36154,-3.09417 6.13086,-7.69773 6.14852,-5.06202 0.0129,1.91897 -2.97609,4.90388 -1.51058,8.52035 0.39815,0.98252 -4.35113,-1.00366 -4.63794,-3.45833 z"
       id="path12427-1-0"
       inkscape:connector-curvature="0"
       sodipodi:nodetypes="ssss" />
    <path
       style="fill:#808080;stroke:#000000;stroke-width:2;stroke-linecap:butt;stroke-linejoin:miter;stroke-opacity:1;display:inline"
       d="m 482.34015,200.10603 c 1.68396,-0.79646 3.90897,-2.46487 5.89112,-3.99371 1.39926,-1.07925 -0.0519,4.74531 -1.22516,6.62839 -1.32419,2.12523 -6.57325,-1.7326 -4.66596,-2.63468 z"
       id="path12429-2-0"
       inkscape:connector-curvature="0"
       sodipodi:nodetypes="ssss" />
    <path
       style="fill:#808080;stroke:#000000;stroke-width:2;stroke-linecap:butt;stroke-linejoin:miter;stroke-opacity:1;display:inline"
       d="m 495.18425,183.08843 c 0.3354,0.90628 0.26563,2.73519 0.0615,3.59473 -0.4537,1.91078 -3.91565,5.24695 -2.83862,4.64991 1.95708,-1.0849 3.53793,-2.23974 4.73492,-3.57529 1.65697,-1.84874 2.19923,-3.54094 3.02342,-3.66885 0.70705,-0.10983 0.26789,1.9252 -0.14472,2.99825 -0.46605,1.21202 -4.01429,4.51292 -2.66696,3.89868 1.39189,-0.63456 3.81631,-2.34871 4.6455,-4.3364 0.60017,-1.43869 0.69619,-3.03245 0.99549,-5.12309"
       id="path12411-3"
       inkscape:connector-curvature="0"
       sodipodi:nodetypes="csssssssc" />
    <path
       style="fill:#808080;stroke:#000000;stroke-width:2;stroke-linecap:butt;stroke-linejoin:miter;stroke-opacity:1;display:inline"
       d="m 471.04558,179.6009 c 4.17777,2.32346 3.62425,8.81022 4.90934,7.36397 1.77836,-2.00139 2.43493,-5.51723 2.57736,-8.83678 0.10751,-2.50564 -10.08656,0.0269 -7.4867,1.47281 z"
       id="path12415-9"
       inkscape:connector-curvature="0"
       sodipodi:nodetypes="ssss" />
    <path
       style="fill:#808080;stroke:#000000;stroke-width:2;stroke-linecap:butt;stroke-linejoin:miter;stroke-opacity:1;display:inline"
       d="m 484.01574,178.44226 c 1.63254,3.25022 -0.37933,7.82509 1.13902,7.05487 2.55816,-1.29769 4.07074,-4.31653 3.67233,-5.7982 -0.70352,-2.61645 -5.40264,-2.43388 -4.81135,-1.25667 z"
       id="path12417-1"
       inkscape:connector-curvature="0"
       sodipodi:nodetypes="ssss" />
    <path
       style="fill:#808080;stroke:#000000;stroke-width:2;stroke-linecap:butt;stroke-linejoin:miter;stroke-opacity:1;display:inline"
       d="m 489.64679,180.3666 c 0.52953,1.8871 1.0462,3.7665 0.76112,5.16483 -0.37613,1.84487 4.45059,-3.19395 3.17638,-4.41383 -0.89499,-0.85684 -4.47044,-2.6503 -3.9375,-0.751 z"
       id="path12419-8"
       inkscape:connector-curvature="0"
       sodipodi:nodetypes="ssss" />
    <path
       style="fill:#808080;stroke:#000000;stroke-width:2;stroke-linecap:butt;stroke-linejoin:miter;stroke-opacity:1;display:inline"
       d="m 482.6426,206.90155 c 3.00202,-1.92699 1.9951,-5.22889 4.31424,-7.0255 1.08103,-0.83746 1.08355,5.45193 1.81206,4.80785 1.53294,-1.35529 1.73225,-4.42016 3.50603,-6.00186 0.98982,-0.88263 0.0219,4.63291 -1.0203,6.9046"
       id="path12425-1"
       inkscape:connector-curvature="0"
       sodipodi:nodetypes="csssc" />
    <path
       style="fill:#808080;stroke:#000000;stroke-width:2;stroke-linecap:butt;stroke-linejoin:miter;stroke-opacity:1;display:inline"
       d="m 467.28611,196.33907 c -0.37088,-3.45929 6.2893,-8.60604 6.30742,-5.65933 0.0132,2.1454 -3.053,5.48253 -1.54962,9.52573 0.40844,1.09846 -4.46357,-1.12208 -4.7578,-3.8664 z"
       id="path12427-9"
       inkscape:connector-curvature="0"
       sodipodi:nodetypes="ssss" />
    <path
       style="fill:#808080;stroke:#000000;stroke-width:2;stroke-linecap:butt;stroke-linejoin:miter;stroke-opacity:1;display:inline"
       d="m 475.83214,203.41088 c 1.72748,-0.89043 4.00999,-2.75571 6.04337,-4.46495 1.43542,-1.2066 -0.0532,5.30524 -1.25683,7.41052 -1.35841,2.37599 -6.74312,-1.93705 -4.78654,-2.94557 z"
       id="path12429-5"
       inkscape:connector-curvature="0"
       sodipodi:nodetypes="ssss" />
    <path
       style="fill:#6f917c;stroke:#000000;stroke-width:2;stroke-linecap:butt;stroke-linejoin:miter;stroke-opacity:1;display:inline"
       d="m 449.16527,146.14385 c -7.24785,-5.6739 -17.29821,-20.34941 -22.45503,-23.33696 -4.41807,-1.62917 9.32569,18.57006 11.60996,26.31989"
       id="path12405-6-3"
       inkscape:connector-curvature="0"
       sodipodi:nodetypes="ccc" />
    <path
       style="fill:#6f917c;stroke:#000000;stroke-width:2;stroke-linecap:butt;stroke-linejoin:miter;stroke-opacity:1;display:inline"
       d="m 444.48664,143.37712 c -6.37902,-4.80507 -23.38,-22.08706 -28.53682,-23.98858 -4.41807,-1.62917 13.45262,19.22168 17.69175,26.97151"
       id="path12405-2"
       inkscape:connector-curvature="0"
       sodipodi:nodetypes="ccc" />
    <path
       style="fill:#165016;stroke:#000000;stroke-width:2;stroke-linecap:butt;stroke-linejoin:miter;stroke-opacity:1;display:inline"
       d="m 443.4754,186.78913 c -3.61337,2.06427 -7.85952,4.37853 -12.25301,6.19279 4.9599,0.87395 10.52281,-0.11253 12.46069,0.0189 12.96056,0.87865 20.32871,7.02901 28.67678,11.95742 3.81345,2.25133 7.66564,4.57489 10.29424,5.60788 3.31916,1.30436 6.57371,-0.74521 7.93053,-1.61576 1.37734,-0.88372 1.06322,-2.61088 0.79233,-3.32915 -0.3718,-0.98583 -4.33518,1.48278 -6.38503,1.41113 -3.21477,-0.11238 -6.68574,-0.68997 -8.50849,-2.50548 l -10.54567,-10.50347 c -3.72116,-3.70629 -4.8808,-8.80651 -0.34712,-11.45561 6.06738,-3.54517 16.73893,-6.43773 22.73752,-2.08279 1.47158,1.06828 5.51692,2.09147 7.51601,2.5896 1.9571,0.48778 5.61246,-0.67296 6.78492,-1.13474 1.68557,-0.66398 -0.1091,-5.84875 -3.366,-7.18263 -4.90229,-2.00786 -12.94929,-6.16192 -21.23504,-10.09684 -1.82059,-2.104 -1.74182,-4.90201 -4.45325,-6.91299 -5.90608,-4.38035 -23.23354,-10.07082 -29.08817,-14.37022 -5.29538,-3.8887 -10.60377,1.60358 -10.84507,2.98293 -0.4893,2.79694 -0.88695,6.10327 -4.44095,5.91368 -6.98102,-0.37239 -19.49422,-4.43812 -22.89874,-3.56073 -2.88142,0.7426 21.51773,11.10562 23.64386,13.87323 1.98688,2.58626 1.71468,7.04053 0.75744,9.68138 -1.06198,2.92991 -8.2486,7.10148 -12.32338,10.99442 6.13273,-2.69341 12.26554,-4.91511 18.39835,-4.85994 5.52991,3.5941 3.6242,8.90775 12.94907,11.61665"
       id="path16916-5"
       inkscape:connector-curvature="0"
       sodipodi:nodetypes="ccsssssscsccccccsssssccccc" />
    <path
       style="fill:#d4aa00;stroke:#000000;stroke-width:2;stroke-linecap:butt;stroke-linejoin:miter;stroke-opacity:1;display:inline"
       d="m 453.24944,159.22739 c 2.42151,1.20879 7.71436,0.22182 9.94128,1.35003 6.50448,3.29557 4.85669,5.88119 7.97757,6.99573 -3.30773,-1.05743 -7.9261,1.31471 -10.92311,0.49097 -3.14948,-0.86567 -2.50968,-7.25107 -6.99574,-8.83673 z"
       id="path12413-2"
       inkscape:connector-curvature="0"
       sodipodi:nodetypes="cscsc" />
    <path
       style="fill:#0b280b;stroke:#000000;stroke-width:2;stroke-linecap:butt;stroke-linejoin:miter;stroke-opacity:1;display:inline"
       d="m 277.23079,197.13219 c -3.36663,-5.00997 -8.86598,-8.31012 -18.685,-10.36726 1.6886,6.47346 1.62088,8.81441 0.2958,13.57618 7.59791,0.88669 15.25308,-1.31788 18.3892,-3.20892 z"
       id="path20908-8"
       inkscape:connector-curvature="0"
       sodipodi:nodetypes="cccc" />
    <path
       style="fill:none;stroke:#000000;stroke-width:2;stroke-linecap:butt;stroke-linejoin:miter;stroke-opacity:1;display:inline"
       d="m 138.93492,197.04553 c 30.99121,6.9569 48.62476,-0.30449 70.3772,12.86207"
       id="path3015-1-7-7"
       inkscape:connector-curvature="0"
       sodipodi:nodetypes="cc" />
    <path
       style="fill:#0b280b;stroke:#000000;stroke-width:2;stroke-linecap:butt;stroke-linejoin:miter;stroke-opacity:1;display:inline"
       d="m 256.66612,201.31477 c -3.52691,-4.41441 -9.2434,-6.90772 -19.41503,-7.65463 1.80523,6.0401 1.75663,8.31003 0.43006,13.0773 7.8643,-0.10318 15.58079,-2.75053 18.98497,-5.42267 z"
       id="path20908-2-3"
       inkscape:connector-curvature="0"
       sodipodi:nodetypes="cccc" />
    <path
       style="fill:#0b280b;stroke:#000000;stroke-width:2;stroke-linecap:butt;stroke-linejoin:miter;stroke-opacity:1;display:inline"
       d="m 237.35197,207.23751 c -3.66048,-3.91809 -9.55791,-5.73904 -20.02338,-5.3941 1.90241,5.67898 1.86973,7.88972 0.54194,12.66158 8.08629,-0.92808 16.00119,-4.3127 19.48144,-7.26748 z"
       id="path20908-5-9"
       inkscape:connector-curvature="0"
       sodipodi:nodetypes="cccc" />
    <path
       style="fill:#fefefe;fill-opacity:1;stroke:#000000;stroke-width:2;stroke-linecap:butt;stroke-linejoin:miter;stroke-opacity:1"
       d="m 311.75062,275.36296 c 43.53032,2.79593 -11.89104,-10.25129 -47.60635,-12.85979 33.65313,-0.52205 -72.13939,-11.58521 -64.42892,-7.09979 -82.62907,-9.139 -88.42356,-3.41485 -25.97853,3.00997 -52.29794,-1.20796 40.18438,8.90333 68.45469,13.86955 -96.50521,-2.1476 180.66118,24.28582 69.55911,3.08006 z"
       id="path5615-1"
       inkscape:connector-curvature="0"
       sodipodi:nodetypes="cccccc" />
    <path
       style="fill:#165016;stroke:#000000;stroke-width:2;stroke-linecap:butt;stroke-linejoin:miter;stroke-opacity:1;display:inline"
       d="m 185.60274,228.24016 c -2.73589,4.16609 -3.34175,7.01138 -2.62575,11.5916 0.29308,1.87486 1.8728,4.67082 2.5031,7.80486 0.57215,2.8449 -0.77103,6.71806 1.09451,9.38645 4.51773,6.46198 13.19171,13.18912 6.48026,16.87151 -18.96602,10.40614 -49.69379,-0.0568 -76.10362,-5.99536 -33.046239,-7.43086 -86.785306,-26.65225 -102.374988,-38.91257 31.322914,8.5529 67.874415,12.32498 63.599293,-0.87549 14.264303,-1.29033 27.835805,-5.87093 28.538305,-13.63741"
       id="path3113-4-1-8"
       inkscape:connector-curvature="0"
       sodipodi:nodetypes="csssssccc" />
    <g
       id="g20553"
       transform="matrix(0.65485171,0.01710841,0,0.65485171,72.229911,228.69558)"
       style="stroke-width:3.0541265;display:inline">
      <g
         style="stroke-width:3.25241804"
         transform="matrix(0.65962328,0.66834077,-0.66834077,0.65962328,-12.479694,-11.788916)"
         id="g20545">
        <path
           sodipodi:nodetypes="ccccccc"
           inkscape:connector-curvature="0"
           id="path3402-36-2-6-9"
           d="m -25,-122.39999 94.5,-5.10001 30,10 -30,10 -94.5,-5.1 0.5,-4.9 z"
           style="fill:#784421;stroke:#000000;stroke-width:3.25241804;stroke-linecap:butt;stroke-linejoin:miter;stroke-opacity:1;display:inline" />
        <path
           sodipodi:nodetypes="ccccccccc"
           inkscape:connector-curvature="0"
           id="path3408-4-7-8-9"
           d="m -21,-97.499998 -4.5,-1 -1,-19.000002 1,-19 4.5,-1 1,0 1,20 -1,20.000002 z"
           style="fill:#d4aa00;stroke:#000000;stroke-width:3.25241804;stroke-linecap:butt;stroke-linejoin:miter;stroke-opacity:1;display:inline" />
        <path
           sodipodi:nodetypes="ccc"
           inkscape:connector-curvature="0"
           id="path3410-6-6-5-6"
           d="m -24.5,-98.499998 1,-19.000002 -1,-19"
           style="fill:none;stroke:#000000;stroke-width:3.25241804;stroke-linecap:butt;stroke-linejoin:miter;stroke-opacity:1;display:inline" />
        <path
           sodipodi:nodetypes="ccccccc"
           inkscape:connector-curvature="0"
           id="path4319-7-5-4-1"
           d="m -25,-112.6 -34.5,-1.9 -1,-3 1.09996,-3 34.40004,-1.90001 0.5,4.90001 z"
           style="fill:#784421;stroke:#000000;stroke-width:3.25241804;stroke-linecap:butt;stroke-linejoin:miter;stroke-opacity:1;display:inline" />
        <path
           sodipodi:nodetypes="ccc"
           inkscape:connector-curvature="0"
           id="path3410-6-6-5-6-8"
           d="m -20,-137.5 -4.5,1 -1,0"
           style="fill:none;stroke:#000000;stroke-width:3.25241804;stroke-linecap:butt;stroke-linejoin:miter;stroke-opacity:1;display:inline" />
        <path
           sodipodi:nodetypes="ccc"
           inkscape:connector-curvature="0"
           id="path3410-6-6-5-6-8-2"
           d="m -20,-97.499998 -4.5,-1 -1,0"
           style="fill:none;stroke:#000000;stroke-width:3.25241804;stroke-linecap:butt;stroke-linejoin:miter;stroke-opacity:1;display:inline" />
      </g>
      <path
         style="fill:#ffd5d5;stroke:#000000;stroke-width:3.0541265;stroke-linecap:butt;stroke-linejoin:miter;stroke-opacity:1;display:inline"
         d="m 167.3865,-46.143557 c 7.29807,-1.85187 15.91574,2.226156 10.09587,10.820051 -6.1941,9.146502 -33.43215,23.183721 -39.36336,18.350641 l 17.02059,-39.371739 z"
         id="path3421-2"
         inkscape:connector-curvature="0"
         sodipodi:nodetypes="csccc" />
      <path
         sodipodi:nodetypes="ccccc"
         inkscape:connector-curvature="0"
         id="path27021"
         d="M 2.3709024,-39.515014 13.894229,-73.663857 58.93641,-95.306807 57.924684,-45.057788 C 51.194851,-45.275001 4.3154114,-49.08346 2.3709024,-39.515014 z"
         style="fill:#2b0000;stroke:#000000;stroke-width:3.0541265;stroke-linecap:butt;stroke-linejoin:miter;stroke-opacity:1" />
      <path
         sodipodi:nodetypes="csccsc"
         id="path11055"
         d="M 148.57019,-20.607526 C 117.51739,-7.729145 79.612412,-8.1699532 59.773735,-20.050911 35.195909,-34.770045 41.889006,-79.351 57.56093,-100.62429 l 95.05518,-8.43359 c 19.74827,13.735134 32.55473,26.400688 31.2167,34.038088 -1.86366,10.637649 -9.88347,5.672177 -16.76415,13.417599"
         style="fill:#ffd5d5;stroke:#000000;stroke-width:3.0541265;stroke-linecap:butt;stroke-linejoin:miter;stroke-opacity:1;display:inline"
         inkscape:connector-curvature="0" />
      <g
         transform="matrix(-1.0457244,0,0,1.0457244,387.92744,-290.71628)"
         id="g27013"
         style="stroke-width:2.92058468">
        <path
           sodipodi:nodetypes="cssc"
           inkscape:connector-curvature="0"
           id="path4328-5-5-5"
           d="m 230.17206,165.97711 c -15.65452,1.35909 -22.54268,12.67098 -25.03259,21.6544 -1.89231,6.82733 4.34473,1.28231 12.25603,2.26509 7.5059,0.93241 4.2642,-16.17145 12.77656,-23.91949 z"
           style="fill:#c8b7b7;stroke:none;display:inline" />
        <path
           sodipodi:nodetypes="cccc"
           inkscape:connector-curvature="0"
           id="path4330-2-9-3"
           d="m 225.72447,166.64151 c -3.50192,0.8624 -6.33289,12.18042 -8.33893,18.71081 -4.19972,0.0433 -12.52897,3.51292 -11.57654,0.12327 2.69371,-6.91657 7.28161,-15.60494 19.91547,-18.83408 z"
           style="fill:#000080;stroke:none;display:inline" />
        <path
           style="fill:none;stroke:#000000;stroke-width:2.92058468;stroke-linecap:butt;stroke-linejoin:miter;stroke-opacity:1;display:inline"
           d="m 230.175,165.97706 c -15.65452,1.35909 -22.54267,12.67098 -25.03259,21.6544 -1.89231,6.82733 4.34474,1.28231 12.25603,2.26509 7.5059,0.93241 4.26421,-16.17145 12.77656,-23.91949 z"
           id="path4328-5-5"
           inkscape:connector-curvature="0"
           sodipodi:nodetypes="cssc" />
        <path
           style="fill:none;stroke:#000000;stroke-width:2.92058468;stroke-linecap:butt;stroke-linejoin:miter;stroke-opacity:1;display:inline"
           d="m 225.72742,166.64146 c -3.50192,0.8624 -6.33289,12.18042 -8.33893,18.71081 -4.19972,0.0433 -12.52897,3.51292 -11.57655,0.12327"
           id="path4330-2-9"
           inkscape:connector-curvature="0"
           sodipodi:nodetypes="ccc" />
      </g>
      <path
         sodipodi:nodetypes="csccc"
         inkscape:connector-curvature="0"
         id="path27019"
         d="M 55.225156,-99.914115 C 32.982473,-82.455901 18.421073,-85.857327 5.6305329,-70.267281 -4.682483,-57.697023 -4.6640377,-41.645006 2.0979139,-25.163023 -0.08333101,-69.294766 35.406766,-72.747248 57.889001,-88.789323 z"
         style="fill:#800000;stroke:#000000;stroke-width:3.0541265;stroke-linecap:butt;stroke-linejoin:miter;stroke-opacity:1" />
      <path
         sodipodi:nodetypes="cccc"
         inkscape:connector-curvature="0"
         id="path26738"
         d="m 56.376668,-98.005889 73.755692,-61.108991 c 17.76136,3.5791 28.50603,21.31041 23.25898,29.71132 l 0.90364,23.99942"
         style="fill:#ffd5d5;stroke:#000000;stroke-width:3.0541265;stroke-linecap:butt;stroke-linejoin:miter;stroke-opacity:1;display:inline" />
      <path
         sodipodi:nodetypes="csc"
         inkscape:connector-curvature="0"
         id="path12515-7-84"
         d="m 142.27317,-149.45407 c -18.86412,-23.28274 -51.742846,-17.65663 -66.745873,2.1946 -16.574223,21.93016 -27.285322,46.44663 -16.942052,57.741462"
         style="fill:#ffd5d5;stroke:#000000;stroke-width:3.0541265;stroke-linecap:butt;stroke-linejoin:miter;stroke-opacity:1;display:inline" />
      <path
         sodipodi:nodetypes="cc"
         inkscape:connector-curvature="0"
         id="path4041-7-5-6-0"
         d="m 150.53113,-95.237194 c 8.64534,-13.250886 8.48899,-26.926786 0.23187,-39.225496"
         style="fill:#ffd5d5;stroke:#000000;stroke-width:3.0541265;stroke-linecap:butt;stroke-linejoin:miter;stroke-opacity:1;display:inline" />
      <path
         inkscape:connector-curvature="0"
         id="path5095-5-4-8-5-1-1-1-7"
         d="m 140.68298,-136.35387 -0.36284,4.98587"
         style="fill:none;stroke:#000000;stroke-width:3.0541265;stroke-linecap:butt;stroke-linejoin:miter;stroke-opacity:1;display:inline"
         sodipodi:nodetypes="cc" />
      <path
         inkscape:connector-curvature="0"
         id="path5097-5-8-8-5-1-2-4-6"
         d="m 122.34555,-132.76454 4.19301,4.61138"
         style="fill:none;stroke:#000000;stroke-width:3.0541265;stroke-linecap:butt;stroke-linejoin:miter;stroke-opacity:1;display:inline"
         sodipodi:nodetypes="cc" />
      <path
         sodipodi:nodetypes="csc"
         inkscape:connector-curvature="0"
         id="path5099-1-8-2-7-5-0-2-3"
         d="m 84.059913,-153.85285 c -23.954257,7.45704 -30.939683,35.60393 -16.885168,48.18506 4.969011,4.44809 15.781166,-13.81745 21.682483,-21.80294"
         style="fill:#ffd5d5;stroke:#000000;stroke-width:3.0541265;stroke-linecap:butt;stroke-linejoin:miter;stroke-opacity:1;display:inline" />
      <path
         sodipodi:nodetypes="ssssss"
         inkscape:connector-curvature="0"
         id="path5101-7-2-4-1-2-1-3-6"
         d="m 139.25905,-127.46288 c -6.74041,0.83217 -14.66845,8.17473 -18.99403,15.7141 -5.447,9.49397 -5.37224,18.241297 3.95288,15.802898 6.72718,-1.759071 12.99306,-2.634979 17.69688,-3.292585 6.5393,-0.914213 6.76986,-9.102523 6.61286,-15.321953 -0.16819,-6.66222 -3.5075,-13.61373 -9.26859,-12.90246 z"
         style="fill:#ffaaaa;stroke:#000000;stroke-width:3.0541265;stroke-linecap:butt;stroke-linejoin:miter;stroke-opacity:1;display:inline" />
      <path
         inkscape:connector-curvature="0"
         id="path5105-1-4-55-1-28-76-6-2-1"
         d="m 128.42814,-105.36031 c 0.58469,3.24645 7.03398,-12.8087 5.464,-12.22877 -1.40526,0.51909 -6.3513,7.30209 -5.464,12.22877 z"
         style="fill:#000000;stroke:#000000;stroke-width:3.0541265;display:inline"
         sodipodi:nodetypes="sss" />
      <path
         inkscape:connector-curvature="0"
         id="path5107-1-5-1-5-1-4-2-5"
         d="m 140.74266,-117.89505 c -0.64461,-0.84562 -2.43775,13.3363 -0.90604,11.46581 2.74165,-3.34806 1.59349,-10.56399 0.90604,-11.46581 z"
         style="fill:#000000;stroke:#000000;stroke-width:3.0541265;display:inline"
         sodipodi:nodetypes="sss" />
      <g
         transform="matrix(-1.0996579,0.09785711,0,1.0564673,421.7332,-326.06912)"
         id="g26952"
         style="stroke-width:2.83354568">
        <path
           style="fill:#c8b7b7;stroke:#000000;stroke-width:2.83354568;stroke-linecap:butt;stroke-linejoin:miter;stroke-opacity:1;display:inline"
           d="m 336.42908,188.55617 c -4.67262,-9.46175 -26.23354,-11.2013 -35.93807,5.72891 -5.54189,9.6682 20.65057,25.47323 31.46975,23.96974 7.69218,-1.06895 8.43242,-21.67158 4.46832,-29.69865 z"
           id="path4132-5-9"
           inkscape:connector-curvature="0"
           sodipodi:nodetypes="ssss" />
        <path
           style="fill:#000080;stroke:#000000;stroke-width:2.83354568;stroke-linecap:butt;stroke-linejoin:miter;stroke-opacity:1;display:inline"
           d="m 304.60441,197.89335 c 4.08643,8.0868 20.40522,15.84598 25.35116,15.01144 4.19836,-0.70841 9.23009,-14.37733 5.55213,-24.20207 -7.9733,-10.69115 -30.16521,-0.97449 -30.90329,9.19063 z"
           id="path4134-7-7"
           inkscape:connector-curvature="0"
           sodipodi:nodetypes="cscc" />
      </g>
      <path
         sodipodi:nodetypes="cc"
         inkscape:connector-curvature="0"
         id="path20219"
         d="m 159.85455,-83.599493 c 14.68399,19.089219 11.78025,42.14791 0.43384,52.724948"
         style="fill:#ffd5d5;stroke:#000000;stroke-width:3.0541265;stroke-linecap:butt;stroke-linejoin:miter;stroke-opacity:1;display:inline" />
      <path
         style="fill:#ffd5d5;stroke:#000000;stroke-width:3.0541265;stroke-linecap:butt;stroke-linejoin:miter;stroke-opacity:1;display:inline"
         d="m 76.524364,-28.448415 c 0.597179,-10.168802 20.20048,-14.797594 29.159226,-11.573099 14.59289,5.252373 10.90817,24.177299 -3.84846,23.560413"
         id="path3423-2"
         inkscape:connector-curvature="0"
         sodipodi:nodetypes="csc" />
      <path
         style="fill:#ffd5d5;stroke:#000000;stroke-width:3.0541265;stroke-linecap:butt;stroke-linejoin:miter;stroke-opacity:1;display:inline"
         d="m 92.929559,-79.998709 c 23.512301,4.85522 36.872261,26.364965 28.792331,27.71502 -8.33062,1.391942 -20.94514,8.70881 -32.470401,7.1794"
         id="path3413-2-9"
         inkscape:connector-curvature="0"
         sodipodi:nodetypes="csc" />
    </g>
    <g
       style="stroke-width:2;display:inline"
       id="g20586"
       transform="translate(-227,-119)">
      <path
         style="fill:#ffd5d5;stroke:#000000;stroke-width:2;stroke-linecap:butt;stroke-linejoin:miter;stroke-opacity:1;display:inline"
         d="m 160.80451,146.94712 c 11.22555,2.78304 18.32678,14.81397 15.22042,22.0506 l 0.99281,15.68976 6.12159,9.03434 2.55147,33.84065 -15.40829,10.5348 -63.24508,-46.59743 0.82981,-5.35865 z"
         id="path3417"
         inkscape:connector-curvature="0"
         sodipodi:nodetypes="ccccccccc" />
      <path
         style="fill:#ffd5d5;stroke:#000000;stroke-width:2;stroke-linecap:butt;stroke-linejoin:miter;stroke-opacity:1;display:inline"
         d="m 174.52075,180.69204 c 13.08866,3.92798 23.39172,18.68449 20.8953,24.66461 -1.16394,2.78819 -5.19481,4.45447 -10.72915,4.00085"
         id="path3413-2-1"
         inkscape:connector-curvature="0"
         sodipodi:nodetypes="csc" />
      <path
         style="fill:#ffd5d5;stroke:#000000;stroke-width:2;stroke-linecap:butt;stroke-linejoin:miter;stroke-opacity:1;display:inline"
         d="m 185.49527,219.94315 c 2.92702,-0.6565 10.50089,-1.24036 10.97074,3.40704 0.85358,8.44314 -25.21989,18.68418 -29.79083,14.95952"
         id="path3421"
         inkscape:connector-curvature="0"
         sodipodi:nodetypes="csc" />
      <path
         style="fill:none;stroke:none;display:inline"
         d="m 189.36685,218.4103 c 4.4828,-1.00106 10.44637,-0.53923 10.99215,3.46283 1.1467,8.40832 -24.53873,18.45037 -28.88676,15.4404 -10.07984,2.35755 -26.18834,3.03802 -39.95992,2.50008 -15.92564,2.84047 -24.33224,-5.15352 -26.68175,-14.48765 -2.79274,-11.09488 -1.37217,-25.95067 6.00578,-38.37144 -2.06165,-5.642 0.71728,-14.16009 3.12473,-17.97954 -0.5334,-3.34056 -0.0977,-10.64558 3.85377,-15.11888 4.13802,-4.68446 9.80114,-7.17057 14.38141,-6.8303 6.41735,-3.95242 19.90928,-5.32505 27.95053,-0.44916 3.03324,-0.5398 8.22295,2.02685 11.36715,5.49768 4.68688,5.17385 8.55561,16.79986 4.68871,15.91505 1.96467,3.77659 3.58264,8.69283 2.25814,13.35381 7.62884,5.50508 13.38295,24.17416 11.62767,24.86356 -0.86286,0.33888 -1.50397,-0.23199 -2.21837,-0.54998 1.68184,4.65986 2.24715,7.89135 1.49676,12.75354 z"
         id="path3403"
         inkscape:connector-curvature="0"
         sodipodi:nodetypes="csccsccsccsccscc" />
      <path
         sodipodi:nodetypes="csc"
         inkscape:connector-curvature="0"
         id="path3411"
         d="m 107.75335,187.74824 c -7.37796,12.42077 -8.902738,26.64608 -2.93023,37.51362 13.36469,24.31827 42.5219,16.97883 66.70088,12.07113"
         style="fill:#ffd5d5;stroke:#000000;stroke-width:2;stroke-linecap:butt;stroke-linejoin:miter;stroke-opacity:1;display:inline" />
      <path
         style="fill:#ffd5d5;stroke:#000000;stroke-width:2;stroke-linecap:butt;stroke-linejoin:miter;stroke-opacity:1;display:inline"
         d="m 180.79458,194.62708 c 6.95616,6.89085 9.75039,22.86333 2.81605,32.4794"
         id="path3419"
         inkscape:connector-curvature="0"
         sodipodi:nodetypes="cc" />
      <path
         style="fill:#ffd5d5;stroke:#000000;stroke-width:2;stroke-linecap:butt;stroke-linejoin:miter;stroke-opacity:1;display:inline"
         d="m 121.84659,229.93746 c 0.46022,-7.83669 15.5677,-11.40392 22.47185,-8.91893 11.24616,4.0478 8.40649,18.63248 -2.96585,18.15707"
         id="path3423"
         inkscape:connector-curvature="0"
         sodipodi:nodetypes="csc" />
      <path
         style="fill:#ffd5d5;stroke:#000000;stroke-width:2;stroke-linecap:butt;stroke-linejoin:miter;stroke-opacity:1;display:inline"
         d="m 172.86301,163.66306 c 6.89252,9.29535 6.74235,19.41537 0.318,26.34961"
         id="path3407"
         inkscape:connector-curvature="0"
         sodipodi:nodetypes="cc" />
      <path
         style="fill:#ffaaaa;stroke:#000000;stroke-width:2;stroke-linecap:butt;stroke-linejoin:miter;stroke-opacity:1;display:inline"
         d="m 164.3724,168.06854 c -5.79556,-0.11726 -11.65536,6.38094 -14.43484,11.31491 -3.2278,5.72979 -0.88622,9.93549 3.33302,9.17129 5.19254,-0.94051 11.23456,-1.77034 14.63156,-1.57858 3.38069,0.19084 4.08701,-5.38019 3.62969,-9.06495 -0.60025,-4.83644 -2.87068,-9.75589 -7.15943,-9.84267 z"
         id="path3409"
         inkscape:connector-curvature="0"
         sodipodi:nodetypes="ssssss" />
      <path
         sodipodi:nodetypes="csc"
         inkscape:connector-curvature="0"
         id="path3454"
         d="m 165.88778,151.52035 c -8.57423,-11.28206 -32.34043,-12.93234 -45.8263,4.76158 -7.63302,10.01478 -15.481,25.82323 -12.56229,33.55313"
         style="fill:#ffd5d5;stroke:#000000;stroke-width:2;stroke-linecap:butt;stroke-linejoin:miter;stroke-opacity:1;display:inline" />
      <path
         style="fill:none;stroke:#000000;stroke-width:2;stroke-linecap:butt;stroke-linejoin:miter;stroke-opacity:1;display:inline"
         d="m 151.75423,163.79595 3.91718,3.01495"
         id="path3413"
         inkscape:connector-curvature="0"
         sodipodi:nodetypes="cc" />
      <path
         style="fill:none;stroke:#000000;stroke-width:2;stroke-linecap:butt;stroke-linejoin:miter;stroke-opacity:1;display:inline"
         d="m 165.95001,162.19126 -0.76895,3.48808"
         id="path3415"
         inkscape:connector-curvature="0"
         sodipodi:nodetypes="cc" />
      <path
         style="fill:#000000;stroke:#000000;stroke-width:2;stroke-linecap:butt;stroke-linejoin:miter;stroke-opacity:1;display:inline"
         d="m 156.02338,182.88806 c 0.55256,1.88996 5.96293,-9.10769 4.95023,-8.92394 -0.98252,0.17828 -6.06353,5.11602 -4.95023,8.92394 z"
         id="path3427"
         inkscape:connector-curvature="0"
         sodipodi:nodetypes="sss" />
      <path
         style="fill:#000000;stroke:#000000;stroke-width:2;stroke-linecap:butt;stroke-linejoin:miter;stroke-opacity:1;display:inline"
         d="m 165.13435,173.72205 c -0.70503,-0.23367 -0.71837,9.95468 -0.0569,8.64464 1.54387,-3.0574 0.80713,-8.39597 0.0569,-8.64464 z"
         id="path3429"
         inkscape:connector-curvature="0"
         sodipodi:nodetypes="sss" />
      <path
         style="fill:#ffd5d5;stroke:#000000;stroke-width:2;stroke-linecap:butt;stroke-linejoin:miter;stroke-opacity:1;display:inline"
         d="m 131.7431,148.05851 c -18.53393,1.78294 -25.42115,23.49883 -15.43956,31.30214 3.81081,2.97916 11.9838,-8.75618 16.76287,-13.75376"
         id="path3439"
         inkscape:connector-curvature="0"
         sodipodi:nodetypes="csc" />
      <path
         style="fill:#ffd5d5;stroke:#000000;stroke-width:2;stroke-linecap:butt;stroke-linejoin:miter;stroke-opacity:1;display:inline"
         d="m 143.54009,190.80032 c 13.08865,3.92797 20.05965,15.47996 16.49787,20.03574 -3.05574,3.9085 -11.67524,5.14878 -22.06988,3.76941"
         id="path3413-2"
         inkscape:connector-curvature="0"
         sodipodi:nodetypes="csc" />
    </g>
    <path
       style="fill:#0b280b;stroke:#000000;stroke-width:2;stroke-linecap:butt;stroke-linejoin:miter;stroke-opacity:1;display:inline"
       d="m 217.96048,213.68494 c -2.96862,-4.56596 -8.25637,-7.16057 -18.04198,-7.97349 1.1333,6.23472 0.85432,8.57473 -0.91879,13.48401 7.63537,-0.0733 15.38731,-2.77 18.96077,-5.51052 z"
       id="path20908-5-0-3"
       inkscape:connector-curvature="0"
       sodipodi:nodetypes="cccc" />
    <path
       style="fill:#0b280b;stroke:#000000;stroke-width:2;stroke-linecap:butt;stroke-linejoin:miter;stroke-opacity:1"
       d="m 273.58087,203.83674 c -4.77529,-5.07412 -11.24456,-8.41652 -21.75,-10.5 3.47467,6.55634 4.04415,8.92727 4,13.75 7.93686,0.89804 15.03057,-0.88715 17.75,-3.25 z"
       id="path20908"
       inkscape:connector-curvature="0"
       sodipodi:nodetypes="cccc" />
    <path
       style="fill:#0b280b;stroke:#000000;stroke-width:2;stroke-linecap:butt;stroke-linejoin:miter;stroke-opacity:1;display:inline"
       d="m 254.14486,207.67927 c -4.77529,-4.47093 -11.24456,-6.99616 -21.75,-7.75264 3.47467,6.11744 4.04415,8.41643 4,13.24474 7.93686,-0.10451 15.03057,-2.78575 17.75,-5.4921 z"
       id="path20908-2"
       inkscape:connector-curvature="0"
       sodipodi:nodetypes="cccc" />
    <path
       style="fill:#0b280b;stroke:#000000;stroke-width:2;stroke-linecap:butt;stroke-linejoin:miter;stroke-opacity:1;display:inline"
       d="m 233.94607,211.89649 c -4.77529,-3.96826 -11.24456,-5.81252 -21.75,-5.46316 3.47467,5.75168 4.04415,7.99073 4,12.82369 7.93686,-0.93997 15.03057,-4.36792 17.75,-7.36053 z"
       id="path20908-5"
       inkscape:connector-curvature="0"
       sodipodi:nodetypes="cccc" />
    <path
       style="fill:none;stroke:#000000;stroke-width:2;stroke-linecap:butt;stroke-linejoin:miter;stroke-opacity:1;display:inline"
       d="m 81.458887,230.1864 c 30.991213,6.9569 78.487463,3.4596 100.239903,16.62616"
       id="path3015-1-7"
       inkscape:connector-curvature="0"
       sodipodi:nodetypes="cc" />
    <path
       style="fill:#0b280b;stroke:#000000;stroke-width:2;stroke-linecap:butt;stroke-linejoin:miter;stroke-opacity:1;display:inline"
       d="m 214.60584,219.08597 c -3.69791,-4.98758 -9.54521,-8.31351 -19.83378,-10.46565 2.01143,6.41165 2.03364,8.72188 0.84454,13.40648 7.93334,0.9692 15.63765,-0.67856 18.98924,-2.94083 z"
       id="path20908-5-0"
       inkscape:connector-curvature="0"
       sodipodi:nodetypes="cccc" />
    <g
       id="g20910"
       transform="translate(0,10)"
       style="stroke-width:2">
      <path
         sodipodi:nodetypes="ssss"
         inkscape:connector-curvature="0"
         id="path12415-4"
         d="m 331.20924,209.75631 c 3.61695,2.01156 3.13774,7.62754 4.25032,6.37543 1.53963,-1.73272 2.10806,-4.77659 2.23137,-7.65053 0.0931,-2.16928 -8.73254,0.0233 -6.48169,1.2751 z"
         style="fill:#808080;stroke:#000000;stroke-width:2;stroke-linecap:butt;stroke-linejoin:miter;stroke-opacity:1;display:inline" />
      <path
         sodipodi:nodetypes="ssss"
         inkscape:connector-curvature="0"
         id="path12417-2"
         d="m 342.43829,208.75321 c 1.41339,2.81391 -0.3284,6.77465 0.98612,6.10782 2.21476,-1.12348 3.52429,-3.73708 3.17936,-5.01985 -0.60908,-2.26522 -4.67739,-2.10715 -4.16548,-1.08797 z"
         style="fill:#808080;stroke:#000000;stroke-width:2;stroke-linecap:butt;stroke-linejoin:miter;stroke-opacity:1;display:inline" />
      <path
         sodipodi:nodetypes="ssss"
         inkscape:connector-curvature="0"
         id="path12419-5"
         d="m 347.31343,210.41922 c 0.45845,1.63378 0.90576,3.26089 0.65895,4.47151 -0.32564,1.59721 3.85315,-2.7652 2.74999,-3.82132 -0.77485,-0.74182 -3.87033,-2.29452 -3.40894,-0.65019 z"
         style="fill:#808080;stroke:#000000;stroke-width:2;stroke-linecap:butt;stroke-linejoin:miter;stroke-opacity:1;display:inline" />
      <path
         sodipodi:nodetypes="csscccccc"
         inkscape:connector-curvature="0"
         id="path12431"
         d="m 326.45448,214.36215 -0.91571,4.80506 c -0.85471,4.48503 4.96736,8.72612 9.42212,12.82151 4.29173,3.94551 6.63046,5.75326 10.2715,8.02444 l -6.87202,3.11314 -11.14435,-5.47341 -13.00985,-12.17468 0.49243,-9.31425 z"
         style="fill:#800000;stroke:#000000;stroke-width:2;stroke-linecap:butt;stroke-linejoin:miter;stroke-opacity:1;display:inline" />
      <path
         sodipodi:nodetypes="ssss"
         inkscape:connector-curvature="0"
         id="path12427-1"
         d="m 330.16863,227.95319 c -0.36154,-3.09418 6.13086,-7.69774 6.14852,-5.06203 0.0129,1.91897 -2.97609,4.90389 -1.51058,8.52036 0.39815,0.98252 -4.35113,-1.00366 -4.63794,-3.45833 z"
         style="fill:#808080;stroke:#000000;stroke-width:2;stroke-linecap:butt;stroke-linejoin:miter;stroke-opacity:1;display:inline" />
      <path
         sodipodi:nodetypes="ssss"
         inkscape:connector-curvature="0"
         id="path12429-2"
         d="m 337.87174,234.37634 c 1.68396,-0.79646 3.90897,-2.46487 5.89112,-3.99371 1.39926,-1.07925 -0.0519,4.74531 -1.22516,6.62839 -1.32419,2.12523 -6.57325,-1.7326 -4.66596,-2.63468 z"
         style="fill:#808080;stroke:#000000;stroke-width:2;stroke-linecap:butt;stroke-linejoin:miter;stroke-opacity:1;display:inline" />
      <path
         sodipodi:nodetypes="csssssssc"
         inkscape:connector-curvature="0"
         id="path12411"
         d="m 350.71584,217.35873 c 0.3354,0.90628 0.26563,2.73519 0.0615,3.59473 -0.4537,1.91078 -3.91565,5.24696 -2.83862,4.64991 1.95708,-1.0849 3.53793,-2.23974 4.73492,-3.57529 1.65697,-1.84874 2.19923,-3.54094 3.02342,-3.66885 0.70705,-0.10983 0.26789,1.9252 -0.14472,2.99825 -0.46605,1.21202 -4.01429,4.51292 -2.66696,3.89868 1.39189,-0.63456 3.81631,-2.34871 4.6455,-4.3364 0.60017,-1.43869 0.69619,-3.03245 0.99549,-5.12309"
         style="fill:#808080;stroke:#000000;stroke-width:2;stroke-linecap:butt;stroke-linejoin:miter;stroke-opacity:1;display:inline" />
      <path
         sodipodi:nodetypes="ssss"
         inkscape:connector-curvature="0"
         id="path12415"
         d="m 326.57717,213.8712 c 4.17777,2.32346 3.62425,8.81022 4.90934,7.36397 1.77836,-2.00139 2.43493,-5.51723 2.57736,-8.83678 0.10751,-2.50564 -10.08656,0.0269 -7.4867,1.47281 z"
         style="fill:#808080;stroke:#000000;stroke-width:2;stroke-linecap:butt;stroke-linejoin:miter;stroke-opacity:1;display:inline" />
      <path
         sodipodi:nodetypes="ssss"
         inkscape:connector-curvature="0"
         id="path12417"
         d="m 339.54733,212.71256 c 1.63254,3.25022 -0.37933,7.82509 1.13902,7.05487 2.55816,-1.29769 4.07074,-4.31653 3.67233,-5.7982 -0.70352,-2.61645 -5.40264,-2.43388 -4.81135,-1.25667 z"
         style="fill:#808080;stroke:#000000;stroke-width:2;stroke-linecap:butt;stroke-linejoin:miter;stroke-opacity:1;display:inline" />
      <path
         sodipodi:nodetypes="ssss"
         inkscape:connector-curvature="0"
         id="path12419"
         d="m 345.17838,214.6369 c 0.52953,1.8871 1.0462,3.7665 0.76112,5.16483 -0.37613,1.84487 4.45059,-3.19395 3.17638,-4.41383 -0.89499,-0.85684 -4.47044,-2.6503 -3.9375,-0.751 z"
         style="fill:#808080;stroke:#000000;stroke-width:2;stroke-linecap:butt;stroke-linejoin:miter;stroke-opacity:1;display:inline" />
      <path
         sodipodi:nodetypes="csssc"
         inkscape:connector-curvature="0"
         id="path12425"
         d="m 338.17419,241.17186 c 3.00202,-1.92699 1.9951,-5.22889 4.31424,-7.0255 1.08103,-0.83746 1.08355,5.45193 1.81206,4.80785 1.53294,-1.35529 1.73225,-4.42016 3.50603,-6.00186 0.98982,-0.88263 0.0219,4.63291 -1.0203,6.9046"
         style="fill:#808080;stroke:#000000;stroke-width:2;stroke-linecap:butt;stroke-linejoin:miter;stroke-opacity:1;display:inline" />
      <path
         sodipodi:nodetypes="ssss"
         inkscape:connector-curvature="0"
         id="path12427"
         d="m 322.8177,230.60938 c -0.37088,-3.45929 6.2893,-8.60605 6.30742,-5.65934 0.0132,2.14541 -3.053,5.48254 -1.54962,9.52574 0.40844,1.09846 -4.46357,-1.12208 -4.7578,-3.8664 z"
         style="fill:#808080;stroke:#000000;stroke-width:2;stroke-linecap:butt;stroke-linejoin:miter;stroke-opacity:1;display:inline" />
      <path
         sodipodi:nodetypes="ssss"
         inkscape:connector-curvature="0"
         id="path12429"
         d="m 331.36373,237.68119 c 1.72748,-0.89043 4.00999,-2.75571 6.04337,-4.46495 1.43542,-1.2066 -0.0532,5.30524 -1.25683,7.41052 -1.35841,2.37599 -6.74312,-1.93705 -4.78654,-2.94557 z"
         style="fill:#808080;stroke:#000000;stroke-width:2;stroke-linecap:butt;stroke-linejoin:miter;stroke-opacity:1;display:inline" />
      <path
         sodipodi:nodetypes="csc"
         inkscape:connector-curvature="0"
         id="path12405-6"
         d="m 302.44686,176.28915 c -6.37285,-5.9239 -19.92039,-23.04296 -23.16734,-23.86361 -4.56532,-1.15385 12.46478,23.39848 12.98128,28.85022"
         style="fill:#6f917c;stroke:#000000;stroke-width:2;stroke-linecap:butt;stroke-linejoin:miter;stroke-opacity:1;display:inline" />
      <path
         sodipodi:nodetypes="csc"
         inkscape:connector-curvature="0"
         id="path12405"
         d="m 295.42724,179.2188 c -9.91455,-2.3302 -39.17633,-16.70108 -42.75065,-16.14943 -4.65378,0.71826 27.08802,17.88957 34.15558,25.28585"
         style="fill:#6f917c;stroke:#000000;stroke-width:2;stroke-linecap:butt;stroke-linejoin:miter;stroke-opacity:1;display:inline" />
      <path
         sodipodi:nodetypes="cccssssscsssscccsccc"
         inkscape:connector-curvature="0"
         id="path18540"
         d="m 299.00699,221.05943 c -3.61337,2.06427 -7.85952,4.37853 -12.25301,6.1928 4.9599,0.87395 10.52281,-0.11253 12.46069,0.0189 12.96056,0.87865 20.32871,7.02901 28.67678,11.95742 3.81345,2.25133 7.66564,4.57489 10.29424,5.60788 3.31916,1.30436 6.57371,-0.74521 7.93053,-1.61576 1.37734,-0.88372 1.06322,-2.61088 0.79233,-3.32915 -0.3718,-0.98583 -4.33518,1.48278 -6.38503,1.41113 -3.21477,-0.11238 -6.68574,-0.68997 -8.50849,-2.50548 L 321.46936,228.2937 c -3.72116,-3.7063 -5.45702,-7.4552 -1.231,-10.57174 1.83241,-1.35134 6.33674,-2.54515 9.84985,-3.16605 1.61363,-0.28519 7.95623,0.5129 10.76635,1.61359 3.03045,1.187 8.44001,1.88437 10.4391,2.3825 1.9571,0.48778 5.69457,-1.88007 6.86703,-2.34185 1.68557,-0.66398 -0.1091,-5.84875 -3.366,-7.18263 -4.46765,-1.82984 -12.89675,-6.58 -20.6278,-10.60792 -0.75212,-0.39186 -1.67311,-1.70569 -2.40772,-2.80456 l -34.67208,-16.32473 z"
         style="fill:#165016;stroke:#000000;stroke-width:2;stroke-linecap:butt;stroke-linejoin:miter;stroke-opacity:1;display:inline" />
      <path
         sodipodi:nodetypes="csssc"
         inkscape:connector-curvature="0"
         id="path18610"
         d="m 333.2882,198.87002 c -1.82059,-2.104 -1.64715,-6.07879 -4.35858,-8.08977 -5.11559,-3.79407 -16.88537,-8.67423 -23.74878,-12.70642 -1.06058,-0.62308 -1.73542,-1.66945 -2.60011,-2.11386 -2.36599,-1.21601 -6.29005,1.01985 -6.85956,4.71603"
         style="fill:#165016;stroke:#000000;stroke-width:2;stroke-linecap:butt;stroke-linejoin:miter;stroke-opacity:1;display:inline" />
      <path
         sodipodi:nodetypes="cssscsccc"
         inkscape:connector-curvature="0"
         id="path16916"
         d="m 298.19712,180.051 c -7.10746,-4.05035 -11.63729,4.32515 -11.19706,7.69333 0.26689,2.04196 -0.0977,3.46418 -3.65174,3.27459 -6.98102,-0.37239 -19.84777,-5.67556 -23.25229,-4.79817 -2.88142,0.7426 21.51773,11.10562 23.64386,13.87323 1.98688,2.58626 3.27533,4.86374 2.3181,7.5046 -1.06199,2.9299 -8.57182,10.04082 -12.6466,13.93376 6.13273,-2.69341 12.26554,-4.91511 18.39835,-4.85994 5.52991,3.5941 4.1242,4.90775 13.44907,7.61665"
         style="fill:#165016;stroke:#000000;stroke-width:2;stroke-linecap:butt;stroke-linejoin:miter;stroke-opacity:1;display:inline" />
      <path
         sodipodi:nodetypes="cscsc"
         inkscape:connector-curvature="0"
         id="path12413"
         d="m 307.90603,194.62269 c 2.42151,1.20879 7.89247,-0.50806 10.81628,0.85003 5.03631,2.33932 4.41475,5.88119 8.33112,6.55379 -3.30773,-1.05743 -8.27965,1.75665 -11.27666,0.93291 -3.14948,-0.86567 -3.38468,-6.75107 -7.87074,-8.33673 z"
         style="fill:#d4aa00;stroke:#000000;stroke-width:2;stroke-linecap:butt;stroke-linejoin:miter;stroke-opacity:1;display:inline" />
      <path
         sodipodi:nodetypes="cc"
         inkscape:connector-curvature="0"
         id="path3011-1-8"
         d="m 351.9536,212.89762 3.01209,1.7603"
         style="fill:none;stroke:#000000;stroke-width:2;stroke-linecap:butt;stroke-linejoin:miter;stroke-opacity:1;display:inline" />
      <path
         sodipodi:nodetypes="cc"
         inkscape:connector-curvature="0"
         id="path3011-1-8-6"
         d="m 356.64891,210.39816 0.52649,2.97813"
         style="fill:none;stroke:#000000;stroke-width:2;stroke-linecap:butt;stroke-linejoin:miter;stroke-opacity:1;display:inline" />
    </g>
    <path
       style="fill:#1f1c24;stroke:#000000;stroke-width:2;stroke-linecap:butt;stroke-linejoin:miter;stroke-opacity:1"
       d="m 313.04222,240.92055 c -0.83697,-13.42795 11.30526,-21.03767 13.1714,-24.86624 1.68681,-3.46067 4.22653,-7.40238 8.37213,-7.699 l 3.67754,1.98663 c -3.78953,0.58509 -6.9241,2.07559 -9.03381,7.09677 -1.58904,3.78196 -13.01983,11.95007 -13.14236,24.96577 z"
       id="path21027"
       inkscape:connector-curvature="0"
       sodipodi:nodetypes="csccscc" />
    <path
       style="fill:#1f1c24;stroke:#000000;stroke-width:2;stroke-linecap:butt;stroke-linejoin:miter;stroke-opacity:1;display:inline"
       d="m 292.04486,227.9113 c -0.83697,-13.42795 2.54878,-29.18959 4.41492,-33.01816 1.68681,-3.46067 7.97661,-7.01278 10.28063,-6.16635 l 3.67754,1.98663 c -3.1545,-0.93897 -8.7691,0.60642 -10.87881,5.62762 -1.58904,3.78196 -4.13873,21.24874 -4.26126,34.26444 z"
       id="path21027-9"
       inkscape:connector-curvature="0"
       sodipodi:nodetypes="csccscc" />
    <path
       style="fill:#808080;stroke:#000000;stroke-width:2;stroke-linecap:butt;stroke-linejoin:miter;stroke-opacity:1"
       d="m 307.96273,226.45872 c 1.20761,-5.10891 7.30159,-7.69531 12.41084,-4.59524 3.79773,2.3043 4.1313,6.65565 2.63964,9.77427 -1.94863,4.07401 -5.39173,5.13167 -9.25866,4.17958 -4.44225,-1.09375 -6.36189,-4.62829 -5.79437,-9.36044 l 3.07644,0.57544 c -0.91505,2.5605 0.33833,5.04651 3.68263,6.04109 2.51424,0.74771 4.71492,-0.89265 5.4887,-2.5238 0.80359,-1.694 0.88646,-4.77068 -1.48545,-6.12972 -2.71872,-1.55775 -6.51677,-0.66379 -7.6864,2.61219 z"
       id="path21080"
       inkscape:connector-curvature="0"
       sodipodi:nodetypes="csssccssscc" />
    <path
       style="fill:#4d4d4d;stroke:#000000;stroke-width:2;stroke-linecap:butt;stroke-linejoin:miter;stroke-opacity:1"
       d="m 321.52844,228.39525 c 1.99607,0.71821 4.05303,-0.33938 5.72587,-1.25501 l -0.71845,2.51458 c -0.67824,1.88078 -4.14199,2.88671 -6.00974,1.40439 z"
       id="path21084"
       inkscape:connector-curvature="0"
       sodipodi:nodetypes="ccccc" />
    <path
       style="fill:#1f1c24;stroke:#000000;stroke-width:2;stroke-linecap:butt;stroke-linejoin:miter;stroke-opacity:1"
       d="m 310.89179,229.20305 c -9.10067,-8.18296 -17.96482,-19.43813 -27.36952,-28.6284 l 1.01978,-4.07475 c 11.14184,10.86745 18.96591,22.1905 27.794,28.97853 z"
       id="path21029"
       inkscape:connector-curvature="0"
       sodipodi:nodetypes="ccccc" />
    <path
       style="fill:#1c1c24;stroke:#000000;stroke-width:2;stroke-linecap:butt;stroke-linejoin:miter;stroke-opacity:1;display:inline"
       d="M 310.06501,230.44231 C 253.54912,221.09825 204.52716,207.47195 154.31617,194.52509 l -0.7308,-0.33018 c 51.4753,12.92835 102.01135,27.73518 157.97817,31.68049 z"
       id="path21027-9-6"
       inkscape:connector-curvature="0"
       sodipodi:nodetypes="ccccc" />
    <path
       style="fill:#1c1c24;stroke:#000000;stroke-width:2;stroke-linecap:butt;stroke-linejoin:miter;stroke-opacity:1;display:inline"
       d="m 192.67805,182.6862 c -7.67802,26.27596 -28.00204,21.73472 -39.49884,10.20778 l 0.5192,1.66982 c 11.04332,9.62843 28.37087,19.87075 38.97817,-10.69451 z"
       id="path21027-9-6-9"
       inkscape:connector-curvature="0"
       sodipodi:nodetypes="ccccc" />
    <path
       style="fill:#fefefe;fill-opacity:1;stroke:#000000;stroke-width:2;stroke-linecap:butt;stroke-linejoin:miter;stroke-opacity:1"
       d="m 142.05797,293.86467 c 57.40037,3.68681 -15.67992,-13.51766 -62.775229,-16.95731 44.376069,-0.68838 -95.12517,-15.2766 -84.9579204,-9.362 -108.9572106,-12.05095 -116.5980006,-4.50294 -34.2560716,3.96906 -68.961679,-1.59287 52.988342,11.74019 90.266432,18.28879 -127.254712,-2.83187 238.225309,32.02402 91.722789,4.06146 z"
       id="path5615"
       inkscape:connector-curvature="0"
       sodipodi:nodetypes="cccccc" />
  </g>
  <g
     inkscape:groupmode="layer"
     id="layer2"
     inkscape:label="枠面"
     sodipodi:insensitive="true">
    <path
       style="fill:#ffffff;stroke:none;display:inline"
       d="m 0,0 0,320 370,0 0,-320 -10,10 0,300 -350,0 0,-300 350,0 10,-10 z"
       id="path21072"
       inkscape:connector-curvature="0"
       sodipodi:nodetypes="ccccccccccc" />
  </g>
</svg>
