<?xml version="1.0" encoding="UTF-8" standalone="no"?>
<!-- Created with Inkscape (http://www.inkscape.org/) -->

<svg
   xmlns:dc="http://purl.org/dc/elements/1.1/"
   xmlns:cc="http://creativecommons.org/ns#"
   xmlns:rdf="http://www.w3.org/1999/02/22-rdf-syntax-ns#"
   xmlns:svg="http://www.w3.org/2000/svg"
   xmlns="http://www.w3.org/2000/svg"
   xmlns:sodipodi="http://sodipodi.sourceforge.net/DTD/sodipodi-0.dtd"
   xmlns:inkscape="http://www.inkscape.org/namespaces/inkscape"
   width="370"
   height="320"
   id="svg3172"
   version="1.1"
   inkscape:version="0.48.4 r9939"
   sodipodi:docname="[34]黙秘.svg"
   inkscape:export-filename="C:\Users\執安\Desktop\資料\臨時\LEGEND\[34]黙秘.png"
   inkscape:export-xdpi="90"
   inkscape:export-ydpi="90">
  <defs
     id="defs3174" />
  <sodipodi:namedview
     id="base"
     pagecolor="#ffffff"
     bordercolor="#666666"
     borderopacity="1.0"
     inkscape:pageopacity="0.0"
     inkscape:pageshadow="2"
     inkscape:zoom="1.1958275"
     inkscape:cx="-96.058705"
     inkscape:cy="370.52547"
     inkscape:document-units="px"
     inkscape:current-layer="layer3"
     showgrid="false"
     inkscape:window-width="1100"
     inkscape:window-height="698"
     inkscape:window-x="-5"
     inkscape:window-y="-5"
     inkscape:window-maximized="0" />
  <metadata
     id="metadata3177">
    <rdf:RDF>
      <cc:Work
         rdf:about="">
        <dc:format>image/svg+xml</dc:format>
        <dc:type
           rdf:resource="http://purl.org/dc/dcmitype/StillImage" />
        <dc:title></dc:title>
      </cc:Work>
    </rdf:RDF>
  </metadata>
  <g
     inkscape:label="補助線"
     inkscape:groupmode="layer"
     id="layer1"
     transform="translate(0,-732.36218)"
     sodipodi:insensitive="true"
     style="display:none">
    <path
       style="fill:none;stroke:#0000ff;stroke-width:1px;stroke-linecap:butt;stroke-linejoin:miter;stroke-opacity:1;display:inline"
       d="M 10,1042.3622 360,742.36211"
       id="path3025"
       inkscape:connector-curvature="0"
       sodipodi:nodetypes="cc" />
    <path
       style="fill:none;stroke:#0000ff;stroke-width:1px;stroke-linecap:butt;stroke-linejoin:miter;stroke-opacity:1;display:inline"
       d="M 10,742.36211 360,1042.3622"
       id="path3027"
       inkscape:connector-curvature="0"
       sodipodi:nodetypes="cc" />
    <path
       style="fill:none;stroke:#ff0000;stroke-width:1px;stroke-linecap:butt;stroke-linejoin:miter;stroke-opacity:1;display:inline"
       d="m 10,732.36211 0,320.00009"
       id="path3006"
       inkscape:connector-curvature="0"
       sodipodi:nodetypes="cc" />
    <path
       style="fill:none;stroke:#ff0000;stroke-width:1px;stroke-linecap:butt;stroke-linejoin:miter;stroke-opacity:1;display:inline"
       d="m 360,732.36211 0,320.00009"
       id="path3010"
       inkscape:connector-curvature="0"
       sodipodi:nodetypes="cc" />
    <path
       style="fill:none;stroke:#ff0000;stroke-width:1px;stroke-linecap:butt;stroke-linejoin:miter;stroke-opacity:1;display:inline"
       d="m 0,742.36208 370,3e-5"
       id="path3016"
       inkscape:connector-curvature="0" />
    <path
       style="fill:none;stroke:#ff0000;stroke-width:1px;stroke-linecap:butt;stroke-linejoin:miter;stroke-opacity:1;display:inline"
       d="m 0,1042.3622 370,0"
       id="path3018"
       inkscape:connector-curvature="0"
       sodipodi:nodetypes="cc" />
  </g>
  <g
     inkscape:groupmode="layer"
     id="layer3"
     inkscape:label="豚"
     style="display:inline"
     sodipodi:insensitive="true">
    <path
       sodipodi:type="arc"
       style="fill:#000000;fill-opacity:1;stroke:none"
       id="path3351"
       sodipodi:cx="-374.36078"
       sodipodi:cy="269.33801"
       sodipodi:rx="73.975479"
       sodipodi:ry="15.691769"
       d="m -300.3853,269.33801 a 73.975479,15.691769 0 1 1 -147.95096,0 73.975479,15.691769 0 1 1 147.95096,0 z"
       transform="matrix(0.94941781,-0.00646345,1.15547,1.0938352,126.86753,-10.410719)" />
    <path
       sodipodi:type="arc"
       style="fill:#000000;fill-opacity:1;stroke:none"
       id="path3353"
       sodipodi:cx="-206.68301"
       sodipodi:cy="254.54291"
       sodipodi:rx="81.148865"
       sodipodi:ry="16.140104"
       d="m -125.53415,254.54291 a 81.148865,16.140104 0 1 1 -162.29773,0 81.148865,16.140104 0 1 1 162.29773,0 z"
       transform="matrix(0.81787324,0,0.53006649,0.86617923,271.23697,45.368375)" />
    <g
       id="g3387"
       transform="matrix(0.96051025,0,0,0.96051025,434.44593,26.533627)"
       style="stroke-width:2.08222651">
      <path
         sodipodi:nodetypes="ccccccssc"
         inkscape:connector-curvature="0"
         id="path11055-7-2-1"
         d="m -147.68283,205.38799 c 29.98038,0.0479 23.84286,-20.61474 -3.78358,-37.10178 l -55.0032,-56.13332 c -16.40126,0.14844 -30.16551,11.94363 -28.54112,21.16036 l -7.66025,24.45689 c -19.32118,16.9343 -31.18083,55.66796 -18.47808,76.9961 -13.1598,14.69292 2.37758,18.36832 25.81154,16.57474 12.49459,-0.9563 40.4065,0.37641 59.31062,1.96531 37.58098,3.1587 33.56616,-10.27982 25.16673,-15.19437"
         style="fill:#ffd5d5;stroke:#000000;stroke-width:2.08222651;stroke-linecap:butt;stroke-linejoin:miter;stroke-opacity:1;display:inline" />
      <path
         sodipodi:nodetypes="csc"
         inkscape:connector-curvature="0"
         id="path12515-7-84-7-8"
         d="m -219.05342,117.98048 c 22.11011,-15.62299 52.18417,-3.14834 59.44152,17.42941 7.5409,21.38177 12.34634,32.44046 8.00525,38.88433"
         style="fill:#ffd5d5;stroke:#000000;stroke-width:2.08222651;stroke-linecap:butt;stroke-linejoin:miter;stroke-opacity:1;display:inline" />
      <path
         sodipodi:nodetypes="cc"
         inkscape:connector-curvature="0"
         id="path4041-7-5-6-0-30-4"
         d="m -241.17075,165.70433 c -5.19792,-12.59696 -1.18105,-27.4226 10.63327,-36.5025"
         style="fill:#ffd5d5;stroke:#000000;stroke-width:2.08222651;stroke-linecap:butt;stroke-linejoin:miter;stroke-opacity:1;display:inline" />
      <path
         inkscape:connector-curvature="0"
         id="path5095-5-4-8-5-1-1-1-7-3-9"
         d="m -218.58336,130.65837 0.006,4.55891"
         style="fill:none;stroke:#000000;stroke-width:2.08222651;stroke-linecap:butt;stroke-linejoin:miter;stroke-opacity:1;display:inline"
         sodipodi:nodetypes="cc" />
      <path
         inkscape:connector-curvature="0"
         id="path5097-5-8-8-5-1-2-4-6-8-6"
         d="m -201.84779,138.8219 -5.04842,2.43562"
         style="fill:none;stroke:#000000;stroke-width:2.08222651;stroke-linecap:butt;stroke-linejoin:miter;stroke-opacity:1;display:inline"
         sodipodi:nodetypes="cc" />
      <path
         sodipodi:nodetypes="csc"
         inkscape:connector-curvature="0"
         id="path5099-1-8-2-7-5-0-2-3-2-3"
         d="m -164.49354,129.28251 c 17.00429,10.2499 16.75785,34.58372 4.47737,41.07015 -5.38098,2.84218 -13.29013,-17.00577 -16.13604,-23.19629"
         style="fill:#ffd5d5;stroke:#000000;stroke-width:2.08222651;stroke-linecap:butt;stroke-linejoin:miter;stroke-opacity:1;display:inline" />
      <path
         sodipodi:nodetypes="ssssss"
         inkscape:connector-curvature="0"
         id="path5101-7-2-4-1-2-1-3-6-5-7"
         d="m -217.52381,139.0611 c 5.70454,2.36513 10.14888,9.61483 12.4432,17.81567 2.63243,9.40937 0.31776,18.59666 -8.13528,13.89667 -6.56763,-3.65168 -11.69685,-5.66533 -16.59886,-7.71078 -5.3487,-2.23184 -4.34854,-11.30895 -1.05495,-16.78788 3.16961,-5.27268 7.98461,-9.43651 13.34589,-7.21368 z"
         style="fill:#ffaaaa;stroke:#000000;stroke-width:2.08222651;stroke-linecap:butt;stroke-linejoin:miter;stroke-opacity:1;display:inline" />
      <path
         inkscape:connector-curvature="0"
         id="path5105-1-4-55-1-28-76-6-2-1-20-8"
         d="m -213.64237,162.60626 c -1.85506,2.44898 -4.15395,-13.95165 -2.62568,-13.90286 1.84099,0.0588 5.46326,10.15642 2.62568,13.90286 z"
         style="fill:#000000;stroke:#000000;stroke-width:2.08222651;display:inline"
         sodipodi:nodetypes="sss" />
      <path
         inkscape:connector-curvature="0"
         id="path5107-1-5-1-5-1-4-2-5-3-8"
         d="m -221.93803,146.46393 c 0.99178,0.0237 -3.47604,13.24059 -4.34142,11.23391 -1.90872,-4.42604 2.2818,-11.28308 4.34142,-11.23391 z"
         style="fill:#000000;stroke:#000000;stroke-width:2.08222651;display:inline"
         sodipodi:nodetypes="sss" />
      <path
         sodipodi:nodetypes="cc"
         inkscape:connector-curvature="0"
         id="path11055-7-29"
         d="m -155.89574,241.88073 c 14.82,-12.13969 13.0921,-30.72372 5.50685,-50.34398"
         style="fill:#ffd5d5;stroke:#000000;stroke-width:2.08222651;stroke-linecap:butt;stroke-linejoin:miter;stroke-opacity:1;display:inline" />
    </g>
    <path
       style="fill:#803300;stroke:#000000;stroke-width:2;stroke-linecap:butt;stroke-linejoin:miter;stroke-opacity:1;display:inline"
       d="m 251.15622,209.77405 c 88.71612,-2.5061 131.87469,-14.19142 93.35992,-40.2588 34.75032,27.46902 -29.5152,33.3541 -93.73024,35.99766"
       id="path13735-9"
       inkscape:connector-curvature="0"
       sodipodi:nodetypes="ccc" />
    <g
       id="g3355"
       transform="translate(456.34301,20.289383)">
      <path
         sodipodi:nodetypes="ccccc"
         inkscape:connector-curvature="0"
         id="path4685"
         d="m -313.77864,264.84567 c -4.18371,-7.46766 -8.36743,-7.28626 -12.55114,-7.42462 l 4.24264,-50.91169 8.88616,36.94805 z"
         style="fill:#2b0000;stroke:#000000;stroke-width:2;stroke-linecap:butt;stroke-linejoin:miter;stroke-opacity:1" />
      <path
         sodipodi:nodetypes="cscccc"
         inkscape:connector-curvature="0"
         id="path3125-1-4-6-1-2-7-4-1"
         d="m -427.00703,245.46715 c -7.28012,-3.5337 -16.56784,-1.26185 -14.89935,6.14893 1.40362,6.23433 20.68986,22.66869 42.54166,17.07921 l 69.00347,-39.64291 -95.54371,-9.25897 z"
         style="fill:#ffd5d5;stroke:#000000;stroke-width:2;stroke-linecap:butt;stroke-linejoin:miter;stroke-opacity:1;display:inline" />
      <path
         sodipodi:nodetypes="csc"
         inkscape:connector-curvature="0"
         id="path3125-1-4-6-1-9"
         d="m -313.83065,215.50246 c 3.09929,18.43474 1.40973,34.88246 -7.83173,46.14757 -18.25452,22.25182 -60.40978,13.99668 -87.34823,5.16358"
         style="fill:#ffd5d5;stroke:#000000;stroke-width:2;stroke-linecap:butt;stroke-linejoin:miter;stroke-opacity:1;display:inline" />
      <path
         sodipodi:nodetypes="csccc"
         inkscape:connector-curvature="0"
         id="path4683"
         d="m -319.72318,197.29185 c 5.0022,19.54791 10.73769,35.1819 11.42462,47.75484 0.78973,14.4545 -3.30972,20.55506 -8.13173,25.80939 1.04707,-26.83253 -3.69975,-46.14555 -7.09619,-63.2254 z"
         style="fill:#800000;stroke:#000000;stroke-width:2;stroke-linecap:butt;stroke-linejoin:miter;stroke-opacity:1" />
      <path
         sodipodi:nodetypes="cccsc"
         inkscape:connector-curvature="0"
         id="path4677"
         d="m -426.17236,223.46056 c -8.64788,-8.33554 -8.29955,-26.28784 4.94455,-41.12149 l 92.26831,-1.07967 c 17.72146,13.32768 19.01566,30.57361 18.61546,36.93057 -1.00257,15.92519 -9.21405,24.98489 -29.72087,18.8243"
         style="fill:#ffd5d5;stroke:#000000;stroke-width:2;stroke-linecap:butt;stroke-linejoin:miter;stroke-opacity:1;display:inline" />
      <path
         sodipodi:nodetypes="sssss"
         inkscape:connector-curvature="0"
         id="path4687-3"
         d="m -431.08384,200.18646 c 11.0782,15.23107 78.5415,33.68832 119.49231,5.28955 2.03926,-1.41419 2.50664,2.75438 0.61595,3.97537 -42.11006,27.19439 -108.66042,9.46745 -120.40115,-5.1721 -2.41668,-3.01336 -1.06083,-5.954 0.29289,-4.09282 z"
         style="fill:#803300;stroke:#000000;stroke-width:2;stroke-linecap:butt;stroke-linejoin:miter;stroke-opacity:1" />
      <g
         style="stroke-width:1.92697716"
         transform="matrix(1.037895,0,0,1.037895,17.357742,-8.0481777)"
         id="g4634">
        <path
           sodipodi:nodetypes="csssc"
           inkscape:connector-curvature="0"
           id="path4328-2-2-3-9"
           d="m -417.86773,179.4654 c -5.65502,1.58211 -10.04929,4.5102 -13.32761,7.8414 -5.28806,5.37337 -7.67255,11.79558 -7.76128,15.30943 -0.11427,4.52531 7.83622,-2.34285 15.72056,-2.13267 6.9941,0.18646 -0.93991,-14.95418 5.36833,-21.01816 z"
           style="fill:#c8b7b7;stroke:none;display:inline" />
        <path
           sodipodi:nodetypes="cccc"
           inkscape:connector-curvature="0"
           id="path4330-5-8-8-7"
           d="m -422.20315,181.04153 c -2.60322,2.07062 -2.46495,11.48105 -2.00632,15.15761 -6.7377,0.35496 -13.54404,5.5954 -14.14181,2.94952 2.19545,-7.00106 7.36269,-14.14039 16.14813,-18.10713 z"
           style="fill:#000080;stroke:none;display:inline" />
        <g
           style="stroke-width:1.99292743;display:inline"
           id="g4187-8-6-0"
           transform="matrix(-0.98008617,0.01376731,0.00234177,0.9538739,-256.00115,49.014914)">
          <path
             sodipodi:nodetypes="csssc"
             inkscape:connector-curvature="0"
             id="path4328-2-2-3"
             d="m 165.47295,134.3707 c 5.77369,1.57528 10.26442,4.58015 13.61758,8.02404 5.40878,5.55514 7.85772,12.25256 7.95705,15.9349 0.12792,4.74229 -8.00103,-2.34066 -16.04476,-2.00422 -7.1355,0.29846 0.92151,-15.69062 -5.52987,-21.95472 z"
             style="fill:none;stroke:#000000;stroke-width:1.99292743;stroke-linecap:butt;stroke-linejoin:miter;stroke-opacity:1;display:inline" />
          <path
             sodipodi:nodetypes="ccc"
             inkscape:connector-curvature="0"
             id="path4330-5-8-8"
             d="m 169.90025,135.95915 c 2.66121,2.13234 2.54371,11.99952 2.08499,15.86048 6.87525,0.2729 13.83277,5.66633 14.43604,2.8838"
             style="fill:none;stroke:#000000;stroke-width:1.99292743;stroke-linecap:butt;stroke-linejoin:miter;stroke-opacity:1;display:inline" />
        </g>
      </g>
      <path
         sodipodi:nodetypes="cccc"
         inkscape:connector-curvature="0"
         id="path4681"
         d="m -417.19334,192.73061 -1.29352,-23.67649 c -4.08224,-5.89849 0.32035,-22.72083 18.37553,-29.01416 l 74.33964,40.80561"
         style="fill:#ffd5d5;stroke:#000000;stroke-width:2;stroke-linecap:butt;stroke-linejoin:miter;stroke-opacity:1;display:inline" />
      <path
         sodipodi:nodetypes="ssssss"
         inkscape:connector-curvature="0"
         id="path3109-0-1-7-3-3"
         d="m -403.1525,169.86237 c -5.49663,-0.60497 -9.48538,5.06165 -10.39782,12.43327 -0.83019,6.70702 0.28477,14.15142 6.36328,14.28126 3.90512,0.0834 10.48755,0.71541 18.58734,2.75545 6.69066,1.68513 8.87017,-4.89079 3.88331,-13.28492 -4.61749,-7.77239 -11.60746,-15.43349 -18.43611,-16.18506 z"
         style="fill:#ffaaaa;stroke:#000000;stroke-width:2;stroke-linecap:butt;stroke-linejoin:miter;stroke-opacity:1;display:inline" />
      <path
         sodipodi:nodetypes="cc"
         inkscape:connector-curvature="0"
         id="path3111-9-7-6-6-4"
         d="m -406.35362,161.01141 1.01948,5.07717"
         style="fill:none;stroke:#000000;stroke-width:2;stroke-linecap:butt;stroke-linejoin:miter;stroke-opacity:1;display:inline" />
      <path
         sodipodi:nodetypes="sss"
         inkscape:connector-curvature="0"
         id="path3115-8-1-8-9-6"
         d="m -405.74675,178.00687 c -1.13568,1.27551 -2.64371,8.9958 0.55745,12.24867 1.82148,1.85091 0.6144,-13.56479 -0.55745,-12.24867 z"
         style="fill:#000000;stroke:#000000;stroke-width:2;stroke-linecap:butt;stroke-linejoin:miter;stroke-opacity:1;display:inline" />
      <path
         sodipodi:nodetypes="sss"
         inkscape:connector-curvature="0"
         id="path3117-8-5-9-2-0"
         d="m -398.96576,178.46091 c 2.33075,0.43754 7.69858,8.52121 5.34475,12.96777 -1.17519,2.22002 -7.06703,-13.2911 -5.34475,-12.96777 z"
         style="fill:#000000;stroke:#000000;stroke-width:2;stroke-linecap:butt;stroke-linejoin:miter;stroke-opacity:1;display:inline" />
      <path
         sodipodi:nodetypes="csc"
         inkscape:connector-curvature="0"
         id="path3125-1-4-6-1-2-7-6"
         d="m -341.92998,264.57611 c 4.09608,-13.26225 -21.62444,-19.40532 -32.73889,-14.48892 -10.09726,4.46645 -7.28501,17.97076 5.89887,20.7765"
         style="fill:#ffd5d5;stroke:#000000;stroke-width:2;stroke-linecap:butt;stroke-linejoin:miter;stroke-opacity:1;display:inline" />
      <path
         sodipodi:nodetypes="cc"
         inkscape:connector-curvature="0"
         id="path3105-7-5-8-7-3-6"
         d="m -424.86134,253.90184 c -9.47064,-9.49059 -8.61859,-26.86476 0.75519,-41.83216"
         style="fill:#ffd5d5;stroke:#000000;stroke-width:2;stroke-linecap:butt;stroke-linejoin:miter;stroke-opacity:1;display:inline" />
      <path
         sodipodi:nodetypes="csc"
         inkscape:connector-curvature="0"
         id="path3107-4-5-5-0-5"
         d="m -409.51316,149.81285 c 14.9871,-23.55405 48.26921,-19.42918 63.09641,-3.66508 8.28701,8.81065 23.43568,30.16266 21.50037,40.43234"
         style="fill:#ffd5d5;stroke:#000000;stroke-width:2;stroke-linecap:butt;stroke-linejoin:miter;stroke-opacity:1;display:inline" />
      <path
         sodipodi:nodetypes="csc"
         inkscape:connector-curvature="0"
         id="path3127-2-2-2-9-4"
         d="m -354.45712,141.30877 c 27.12782,7.89564 27.26648,33.59686 18.88341,42.77966 -5.19176,5.68704 -19.42111,-14.00105 -23.81582,-19.85322"
         style="fill:#ffd5d5;stroke:#000000;stroke-width:2;stroke-linecap:butt;stroke-linejoin:miter;stroke-opacity:1;display:inline" />
      <path
         sodipodi:nodetypes="cc"
         inkscape:connector-curvature="0"
         id="path3105-7-5-8-5-3"
         d="m -415.78466,164.12824 c -8.38239,12.61808 -7.69904,26.28187 0.48804,36.75713"
         style="fill:#ffd5d5;stroke:#000000;stroke-width:2;stroke-linecap:butt;stroke-linejoin:miter;stroke-opacity:1;display:inline" />
      <path
         transform="matrix(1.6269267,0.12474633,-0.0668944,0.57812415,256.63996,118.34804)"
         d="m -386.7874,168.14882 c 0,1.80617 -1.46419,3.27037 -3.27037,3.27037 -1.80617,0 -3.27037,-1.4642 -3.27037,-3.27037 0,-1.80618 1.4642,-3.27037 3.27037,-3.27037 1.80618,0 3.27037,1.46419 3.27037,3.27037 z"
         sodipodi:ry="3.2703688"
         sodipodi:rx="3.2703688"
         sodipodi:cy="168.14882"
         sodipodi:cx="-390.05777"
         id="path4651"
         style="fill:#000000;fill-opacity:1;stroke:none"
         sodipodi:type="arc" />
      <path
         sodipodi:nodetypes="sssss"
         inkscape:connector-curvature="0"
         id="path4687"
         d="m -429.92157,223.18598 c 11.0782,15.23107 84.19948,24.18833 119.65029,-6.46044 1.87732,-1.62302 1.61729,2.8539 -0.1766,4.21313 -38.86006,29.44439 -108.02585,20.97968 -119.76658,6.34013 -2.41668,-3.01336 -1.06083,-5.954 0.29289,-4.09282 z"
         style="fill:#803300;stroke:#000000;stroke-width:2;stroke-linecap:butt;stroke-linejoin:miter;stroke-opacity:1" />
      <path
         sodipodi:nodetypes="sssss"
         inkscape:connector-curvature="0"
         id="path4687-7"
         d="m -430.27317,216.75017 c 11.0782,15.23107 84.04097,24.18832 119.49177,-6.46045 1.87732,-1.62302 2.33059,2.61614 0.5367,3.97537 -38.86005,29.44439 -108.58063,21.21745 -120.32136,6.5779 -2.41668,-3.01336 -1.06083,-5.954 0.29289,-4.09282 z"
         style="fill:#803300;stroke:#000000;stroke-width:2;stroke-linecap:butt;stroke-linejoin:miter;stroke-opacity:1" />
      <g
         style="stroke-width:1.96704721"
         transform="matrix(0.98882754,0,-0.07713757,1.0454659,8.6190124,-5.3981915)"
         id="g4641">
        <path
           style="fill:#c8b7b7;stroke:none;display:inline"
           d="m -318.27896,184.30874 c -13.35821,-8.81715 -34.43433,16.35471 -25.20972,21.66439 7.34035,4.22511 31.21201,13.25445 36.73551,7.59739 4.64782,-4.76019 -1.69526,-22.77309 -11.52579,-29.26178 z"
           id="path4132-78-8-7-2"
           inkscape:connector-curvature="0"
           sodipodi:nodetypes="ssss" />
        <path
           style="fill:#000080;stroke:none;display:inline"
           d="m -317.12428,185.13605 c -12.56273,-2.98547 -21.24513,9.3735 -23.01317,16.23569 10.9735,7.16191 27.00282,10.40662 31.91308,9.5315 2.75469,-0.49094 3.12123,-4.15208 2.49379,-6.82354 -1.8326,-7.61782 -5.88686,-14.62286 -11.3937,-18.94365 z"
           id="path4134-3-1-6-0"
           inkscape:connector-curvature="0"
           sodipodi:nodetypes="ccscc" />
        <path
           style="fill:none;stroke:#000000;stroke-width:1.96704721;stroke-linecap:butt;stroke-linejoin:miter;stroke-opacity:1;display:inline"
           d="m -318.27546,184.30908 c -13.35821,-8.81715 -34.43433,16.35471 -25.20972,21.66439 7.34035,4.22511 31.21201,13.25445 36.73551,7.59739 4.64782,-4.76019 -1.69526,-22.77309 -11.52579,-29.26178 z"
           id="path4132-78-8-7"
           inkscape:connector-curvature="0"
           sodipodi:nodetypes="ssss" />
        <path
           style="fill:none;stroke:#000000;stroke-width:1.96704721;stroke-linecap:butt;stroke-linejoin:miter;stroke-opacity:1;display:inline"
           d="m -317.12078,185.13639 c -12.56273,-2.98547 -21.24513,9.3735 -23.01317,16.23569 10.9735,7.16191 27.00282,10.40662 31.91308,9.5315 2.75469,-0.49094 3.12123,-4.15208 2.49379,-6.82354"
           id="path4134-3-1-6"
           inkscape:connector-curvature="0"
           sodipodi:nodetypes="ccsc" />
      </g>
    </g>
    <path
       style="fill:#ffd5d5;stroke:#000000;stroke-width:2;stroke-linecap:butt;stroke-linejoin:miter;stroke-opacity:1;display:inline"
       d="m 229.82597,229.19225 c 32.552,-14.5588 29.75495,-30.81538 -6.39458,-33.75106"
       id="path11055-7-2-9-3"
       inkscape:connector-curvature="0"
       sodipodi:nodetypes="cc" />
    <path
       inkscape:connector-curvature="0"
       style="fill:#ff0000;stroke:none"
       d="m 150.42819,232.31561 c 4.45134,-12.36256 3.38205,-20.80388 1.46075,-28.78502 -2.18186,-9.06354 -10.78775,-14.0901 -19.31716,-8.0918 6.1958,-4.70557 9.40372,-10.47414 7.88855,-21.97622 4.26059,16.48979 10.95241,11.31144 26.84503,-3.04544 -15.12433,23.91737 -10.35305,41.4829 7.41236,37.58391 -17.066,8.8259 -10.98296,18.70306 1.2661,31.84138 -11.93134,-10.12373 -20.1884,-16.96662 -25.55563,-7.52681 z"
       id="path3399-1-4"
       sodipodi:nodetypes="cscccccc" />
    <path
       style="fill:#803300;stroke:none;display:inline"
       d="m 296.35038,204.78955 c 23.46428,2.18192 -41.41489,24.09521 -60.59517,30.70332 23.12566,-6.12002 49.72506,-14.55185 59.27078,-18.86972 8.78927,-3.97571 26.97153,-13.13119 35.88655,-15.76721"
       id="path13735-9-0"
       inkscape:connector-curvature="0"
       sodipodi:nodetypes="ccsc" />
    <path
       style="fill:#803300;stroke:none;display:inline"
       d="m 322.58531,200.64782 c 14.42916,1.54788 -18.90169,21.71288 -46.92671,31.57746 26.82114,-9.58474 39.281,-15.56446 46.55339,-20.06089 5.97579,-3.69476 18.41194,-12.97267 30.49718,-18.6204"
       id="path13735-9-0-9"
       inkscape:connector-curvature="0"
       sodipodi:nodetypes="ccsc" />
    <path
       style="fill:none;stroke:#000000"
       d="m -518.08677,86.062189 c 0,32.189201 -89.3235,58.283711 -199.50963,58.283711 -15.50471,0 -30.59633,-0.51668 -45.08412,-1.49432"
       id="path3526-8-5"
       inkscape:connector-curvature="0"
       sodipodi:nodetypes="csc" />
    <path
       style="fill:none;stroke:#000000;stroke-width:0.7051841"
       d="m -576.90538,86.062188 c 0,18.430412 -41.52534,34.027492 -98.73482,39.242102"
       id="path3526-82-1"
       inkscape:connector-curvature="0"
       sodipodi:nodetypes="cc" />
    <path
       style="fill:none;stroke:#000000;stroke-width:0.80585134"
       d="m -556.82129,86.062189 c 0,23.350761 -58.33006,42.721561 -134.74583,46.355621"
       id="path3526-4-7"
       inkscape:connector-curvature="0"
       sodipodi:nodetypes="cc" />
    <path
       style="fill:none;stroke:#000000;stroke-width:0.90489811"
       d="m -537.06052,86.062189 c 0,29.127941 -80.82866,52.740821 -180.53588,52.740821 -3.61889,0 -7.21292,-0.0311 -10.77912,-0.0925"
       id="path3526-5-1"
       inkscape:connector-curvature="0"
       sodipodi:nodetypes="csc" />
  </g>
  <g
     inkscape:groupmode="layer"
     id="layer4"
     inkscape:label="吹き出し"
     style="display:inline"
     sodipodi:insensitive="true">
    <path
       inkscape:connector-curvature="0"
       style="fill:#fefefe;fill-opacity:1;stroke:#000000;stroke-width:2;display:inline"
       d="m 140.89278,31.063298 c -70.492702,0 -127.643062,22.498266 -127.643062,50.251303 0,27.753029 57.15036,50.251319 127.643062,50.251319 7.246,0 5.32051,11.62695 2.28145,20.65162 13.75567,-5.77873 35.76787,-22.80314 43.64396,-23.99974 47.79478,-7.26124 81.71763,-25.52574 81.71763,-46.903199 0,-27.753037 -57.15031,-50.251303 -127.64304,-50.251303 z"
       id="path23824" />
    <text
       xml:space="preserve"
       style="font-size:26.80394554px;font-style:normal;font-weight:normal;line-height:125%;letter-spacing:0px;word-spacing:0px;writing-mode:lr-tb;fill:#000000;fill-opacity:1;stroke:none;display:inline;font-family:Sans"
       x="57.723995"
       y="71.450378"
       id="text13157-6"
       sodipodi:linespacing="125%"><tspan
         sodipodi:role="line"
         id="tspan13159-1"
         x="57.723995"
         y="71.450378">友よ、私は</tspan><tspan
         sodipodi:role="line"
         x="57.723995"
         y="104.95531"
         id="tspan4151">信じている…。</tspan></text>
  </g>
  <g
     inkscape:groupmode="layer"
     id="layer2"
     inkscape:label="枠面"
     sodipodi:insensitive="true">
    <path
       style="fill:#ffffff;stroke:none;display:inline"
       d="m 0,0 0,320 370,0 0,-320 -10,10 0,300 -350,0 0,-300 350,0 10,-10 z"
       id="path21072"
       inkscape:connector-curvature="0"
       sodipodi:nodetypes="ccccccccccc" />
  </g>
</svg>
