<?xml version="1.0" encoding="UTF-8" standalone="no"?>
<!-- Created with Inkscape (http://www.inkscape.org/) -->

<svg
   xmlns:dc="http://purl.org/dc/elements/1.1/"
   xmlns:cc="http://creativecommons.org/ns#"
   xmlns:rdf="http://www.w3.org/1999/02/22-rdf-syntax-ns#"
   xmlns:svg="http://www.w3.org/2000/svg"
   xmlns="http://www.w3.org/2000/svg"
   xmlns:sodipodi="http://sodipodi.sourceforge.net/DTD/sodipodi-0.dtd"
   xmlns:inkscape="http://www.inkscape.org/namespaces/inkscape"
   width="370"
   height="320"
   id="svg3172"
   version="1.1"
   inkscape:version="0.48.4 r9939"
   sodipodi:docname="[38]不慮.svg"
   inkscape:export-filename="C:\Users\執安\Desktop\資料\臨時\LEGEND\[38]不慮.png"
   inkscape:export-xdpi="90"
   inkscape:export-ydpi="90">
  <defs
     id="defs3174" />
  <sodipodi:namedview
     id="base"
     pagecolor="#ffffff"
     bordercolor="#666666"
     borderopacity="1.0"
     inkscape:pageopacity="0.0"
     inkscape:pageshadow="2"
     inkscape:zoom="1.0722656"
     inkscape:cx="-28.613613"
     inkscape:cy="186.39255"
     inkscape:document-units="px"
     inkscape:current-layer="layer3"
     showgrid="false"
     inkscape:window-width="882"
     inkscape:window-height="698"
     inkscape:window-x="-5"
     inkscape:window-y="-5"
     inkscape:window-maximized="0" />
  <metadata
     id="metadata3177">
    <rdf:RDF>
      <cc:Work
         rdf:about="">
        <dc:format>image/svg+xml</dc:format>
        <dc:type
           rdf:resource="http://purl.org/dc/dcmitype/StillImage" />
        <dc:title></dc:title>
      </cc:Work>
    </rdf:RDF>
  </metadata>
  <g
     inkscape:label="補助線"
     inkscape:groupmode="layer"
     id="layer1"
     transform="translate(0,-732.36218)"
     sodipodi:insensitive="true"
     style="display:none">
    <path
       style="fill:none;stroke:#0000ff;stroke-width:1px;stroke-linecap:butt;stroke-linejoin:miter;stroke-opacity:1;display:inline"
       d="M 10,1042.3622 360,742.36211"
       id="path3025"
       inkscape:connector-curvature="0"
       sodipodi:nodetypes="cc" />
    <path
       style="fill:none;stroke:#0000ff;stroke-width:1px;stroke-linecap:butt;stroke-linejoin:miter;stroke-opacity:1;display:inline"
       d="M 10,742.36211 360,1042.3622"
       id="path3027"
       inkscape:connector-curvature="0"
       sodipodi:nodetypes="cc" />
    <path
       style="fill:none;stroke:#ff0000;stroke-width:1px;stroke-linecap:butt;stroke-linejoin:miter;stroke-opacity:1;display:inline"
       d="m 10,732.36211 0,320.00009"
       id="path3006"
       inkscape:connector-curvature="0"
       sodipodi:nodetypes="cc" />
    <path
       style="fill:none;stroke:#ff0000;stroke-width:1px;stroke-linecap:butt;stroke-linejoin:miter;stroke-opacity:1;display:inline"
       d="m 360,732.36211 0,320.00009"
       id="path3010"
       inkscape:connector-curvature="0"
       sodipodi:nodetypes="cc" />
    <path
       style="fill:none;stroke:#ff0000;stroke-width:1px;stroke-linecap:butt;stroke-linejoin:miter;stroke-opacity:1;display:inline"
       d="m 0,742.36208 370,3e-5"
       id="path3016"
       inkscape:connector-curvature="0" />
    <path
       style="fill:none;stroke:#ff0000;stroke-width:1px;stroke-linecap:butt;stroke-linejoin:miter;stroke-opacity:1;display:inline"
       d="m 0,1042.3622 370,0"
       id="path3018"
       inkscape:connector-curvature="0"
       sodipodi:nodetypes="cc" />
  </g>
  <g
     inkscape:groupmode="layer"
     id="layer3"
     inkscape:label="豚"
     sodipodi:insensitive="true">
    <path
       style="fill:#ffd5d5;stroke:#000000;stroke-width:2;stroke-linecap:butt;stroke-linejoin:miter;stroke-opacity:1;display:inline"
       d="m -195.89506,209.97971 c -17.38872,3.94122 -24.16354,21.88481 -21.2218,28.32738"
       id="path5091-2-4-0-7-2-27-1"
       inkscape:connector-curvature="0"
       sodipodi:nodetypes="cc" />
    <path
       style="fill:none;stroke:#000000;stroke-width:2;stroke-linecap:butt;stroke-linejoin:miter;stroke-opacity:1;display:inline"
       d="m -225.97737,292.83913 c -14.10856,-6.84723 -32.01785,-15.7686 -31.31347,-21.66833 0.69825,-5.84896 11.04421,-7.58717 6.41716,-19.23923"
       id="path11570"
       inkscape:connector-curvature="0"
       sodipodi:nodetypes="csc" />
    <path
       style="fill:none;stroke:#000000;stroke-width:2;stroke-linecap:butt;stroke-linejoin:miter;stroke-opacity:1;display:inline"
       d="m -257.24932,271.31456 c 8.74402,5.83766 13.41151,-5.76641 12.92404,-9.09985 -1.1207,-7.66301 -15.30357,-11.77412 -9.61045,-16.8991 4.8173,-4.33665 26.28802,-5.64777 34.91829,1.34169"
       id="path3536-4-7-61-5-3"
       inkscape:connector-curvature="0"
       sodipodi:nodetypes="cssc" />
    <path
       style="fill:#ffaaaa;stroke:none;display:inline"
       d="m -183.9712,317.93538 c 5.91659,-4.35747 -3.50132,-27.8656 -8.9323,-28.17877 0,0 -9.00475,5.70748 -8.2005,10.3419 0.49927,2.87717 5.23647,2.96427 6.1666,4.74342 1.18999,2.27647 -1.69504,4.98294 -0.88008,7.14967 1.04705,2.78403 11.84628,5.94378 11.84628,5.94378 z"
       id="path5111-7-6-1-8-2-7-5-3-1"
       inkscape:connector-curvature="0"
       sodipodi:nodetypes="ccsssc" />
    <path
       style="fill:#ffd5d5;stroke:#000000;stroke-width:2;stroke-linecap:butt;stroke-linejoin:miter;stroke-opacity:1;display:inline"
       d="m -201.32637,214.11012 c 23.51063,-19.46439 58.84886,-5.36008 75.07939,13.64567 16.74718,19.61078 23.26597,33.48657 22.48193,48.83619"
       id="path11522"
       inkscape:connector-curvature="0"
       sodipodi:nodetypes="csc" />
    <path
       style="fill:#ffd5d5;stroke:#000000;stroke-width:2;stroke-linecap:butt;stroke-linejoin:miter;stroke-opacity:1;display:inline"
       d="m -209.94975,229.07768 c -11.66894,10.74405 -17.57481,30.09783 -6.90157,46.81749"
       id="path5093-4-2-9-9-4-4-3"
       inkscape:connector-curvature="0"
       sodipodi:nodetypes="cc" />
    <path
       style="fill:none;stroke:#000000;stroke-width:2;stroke-linecap:butt;stroke-linejoin:miter;stroke-opacity:1;display:inline"
       d="m -204.85599,227.30443 1.95533,4.08046"
       id="path5095-5-3-4-3-2-3-8"
       inkscape:connector-curvature="0"
       sodipodi:nodetypes="cc" />
    <path
       style="fill:none;stroke:#000000;stroke-width:2;stroke-linecap:butt;stroke-linejoin:miter;stroke-opacity:1;display:inline"
       d="m -181.00968,225.68684 -5.5526,6.14864"
       id="path5097-5-2-8-1-5-1-7"
       inkscape:connector-curvature="0"
       sodipodi:nodetypes="cc" />
    <path
       style="fill:#ffd5d5;stroke:#000000;stroke-width:2;stroke-linecap:butt;stroke-linejoin:miter;stroke-opacity:1;display:inline"
       d="m -148.01798,213.07645 c 31.24344,4.97163 31.49368,33.52985 20.70581,44.17778 -5.5149,5.44346 -19.58139,-17.71819 -27.85784,-26.59216"
       id="path5099-1-2-8-9-8-2-4"
       inkscape:connector-curvature="0"
       sodipodi:nodetypes="csc" />
    <path
       style="fill:#ffaaaa;stroke:#000000;stroke-width:2;stroke-linecap:butt;stroke-linejoin:miter;stroke-opacity:1;display:inline"
       d="m -197.62125,233.7285 c 8.03878,0.32518 20.08186,10.08498 24.97794,20.25323 4.61755,9.58971 3.28464,19.293 -6.87261,16.67545 -11.88682,-3.06325 -17.98054,-1.26545 -23.75114,-2.16642 -8.77287,-1.3704 -9.26394,-11.53935 -7.91496,-18.79245 1.47321,-7.92076 6.57757,-16.25229 13.56077,-15.96981 z"
       id="path5101-7-1-2-8-62-3-2"
       inkscape:connector-curvature="0"
       sodipodi:nodetypes="ssssss" />
    <path
       style="fill:#000000;stroke:#000000;stroke-width:2;display:inline"
       d="m -185.45064,261.20074 c -0.65772,2.39349 -8.19275,-17.14046 -6.32035,-17.1765 2.25517,-0.0438 8.44199,9.45555 6.32035,17.1765 z"
       id="path5105-1-6-4-6-6-3-7"
       inkscape:connector-curvature="0"
       sodipodi:nodetypes="sss" />
    <path
       style="fill:#000000;stroke:#000000;stroke-width:2;display:inline"
       d="m -199.07993,243.67963 c 1.38427,0.56808 -1.54534,17.84126 -2.6525,15.47737 -2.44531,-5.22034 0.64876,-16.30086 2.6525,-15.47737 z"
       id="path5107-1-8-55-5-5-41-7"
       inkscape:connector-curvature="0"
       sodipodi:nodetypes="sss" />
    <path
       style="fill:none;stroke:#000000;stroke-width:2;stroke-linecap:butt;stroke-linejoin:miter;stroke-opacity:1;display:inline"
       d="m -156.59253,319.85867 c -19.82605,2.42347 -38.1779,-4.56577 -39.51977,-8.04842 -0.83233,-2.16011 2.07018,-4.8732 0.88009,-7.14967 -0.93014,-1.77915 -6.07941,-1.82452 -6.16661,-4.74343 -0.19953,-6.68817 18.89942,-19.3122 31.87493,-21.82255"
       id="path5109-2-7-7-2-9-8-6-3"
       inkscape:connector-curvature="0"
       sodipodi:nodetypes="csssc" />
    <path
       style="fill:none;stroke:#000000;stroke-width:2;stroke-linecap:butt;stroke-linejoin:miter;stroke-opacity:1;display:inline"
       d="m -184.26591,317.75403 c 5.91648,-4.35747 -3.50143,-27.8656 -8.9323,-28.17877"
       id="path5111-7-6-1-8-2-7-5-1"
       inkscape:connector-curvature="0"
       sodipodi:nodetypes="cc" />
    <path
       style="fill:none;stroke:#000000;stroke-width:2;stroke-linecap:butt;stroke-linejoin:miter;stroke-opacity:1;display:inline"
       d="m -106.52233,269.14964 c 29.663242,45.64013 24.037432,84.95402 8.668732,91.40161"
       id="path11572"
       inkscape:connector-curvature="0"
       sodipodi:nodetypes="cc" />
    <path
       style="fill:none;stroke:#000000;stroke-width:2;stroke-linecap:butt;stroke-linejoin:miter;stroke-opacity:1;display:inline"
       d="m -227.2811,284.43973 c -5.01552,16.25053 -15.08798,46.27389 6.16573,68.78866"
       id="path11574"
       inkscape:connector-curvature="0"
       sodipodi:nodetypes="cc" />
    <path
       style="fill:none;stroke:#000000;stroke-width:2;stroke-linecap:butt;stroke-linejoin:miter;stroke-opacity:1;display:inline"
       d="m -199.60248,359.20537 c 10.98412,9.60403 48.9909,15.08573 74.93067,5.29659"
       id="path11576"
       inkscape:connector-curvature="0"
       sodipodi:nodetypes="cc" />
    <path
       style="fill:none;stroke:#000000;stroke-width:2;stroke-linecap:butt;stroke-linejoin:miter;stroke-opacity:1;display:inline"
       d="m -224.8712,343.70546 c 4.82648,34.90227 6.57365,44.46038 34.28505,20.13101"
       id="path11578"
       inkscape:connector-curvature="0"
       sodipodi:nodetypes="cc" />
    <path
       style="fill:none;stroke:#000000;stroke-width:2;stroke-linecap:butt;stroke-linejoin:miter;stroke-opacity:1;display:inline"
       d="m -130.51092,367.75119 c 8.04468,12.49425 33.706672,28.36563 38.945982,-15.99158"
       id="path11580"
       inkscape:connector-curvature="0"
       sodipodi:nodetypes="cc" />
    <path
       sodipodi:type="arc"
       style="fill:#000000;fill-opacity:1;stroke:none;display:inline"
       id="path19327"
       sodipodi:cx="103.59114"
       sodipodi:cy="292.42282"
       sodipodi:rx="71.771339"
       sodipodi:ry="12.020815"
       d="m 175.36248,292.42282 a 71.771339,12.020815 0 1 1 -143.542679,0 71.771339,12.020815 0 1 1 143.542679,0 z"
       transform="matrix(1,0,-0.7071068,1,-314.38979,-83.333324)" />
    <g
       id="g19295"
       transform="matrix(0.73362052,0.59641267,-0.59641267,0.73362052,-228.04281,46.926556)"
       style="stroke-width:2.11535764;display:inline">
      <path
         style="fill:#784421;stroke:#000000;stroke-width:2.11535764;stroke-linecap:butt;stroke-linejoin:miter;stroke-opacity:1;display:inline"
         d="m -154.80866,211.86242 94.500003,-5.10001 30,10 -30,10 -94.500003,-5.1 0.5,-4.9 z"
         id="path3402-36-2-6-9"
         inkscape:connector-curvature="0"
         sodipodi:nodetypes="ccccccc" />
      <path
         style="fill:#d4aa00;stroke:#000000;stroke-width:2.11535764;stroke-linecap:butt;stroke-linejoin:miter;stroke-opacity:1;display:inline"
         d="m -150.80866,236.76241 -4.5,-1 -1,-19 1,-19 4.5,-1 1,0 1,20 -1,20 z"
         id="path3408-4-7-8-9"
         inkscape:connector-curvature="0"
         sodipodi:nodetypes="ccccccccc" />
      <path
         style="fill:none;stroke:#000000;stroke-width:2.11535764;stroke-linecap:butt;stroke-linejoin:miter;stroke-opacity:1;display:inline"
         d="m -154.30866,235.76241 1,-19 -1,-19"
         id="path3410-6-6-5-6"
         inkscape:connector-curvature="0"
         sodipodi:nodetypes="ccc" />
      <path
         style="fill:#784421;stroke:#000000;stroke-width:2.11535764;stroke-linecap:butt;stroke-linejoin:miter;stroke-opacity:1;display:inline"
         d="m -154.80866,221.66241 -34.5,-1.9 -1,-3 1.09996,-3 34.40004,-1.90001 0.5,4.90001 z"
         id="path4319-7-5-4-1"
         inkscape:connector-curvature="0"
         sodipodi:nodetypes="ccccccc" />
      <path
         style="fill:none;stroke:#000000;stroke-width:2.11535764;stroke-linecap:butt;stroke-linejoin:miter;stroke-opacity:1;display:inline"
         d="m -149.80866,196.76241 -4.5,1 -1,0"
         id="path3410-6-6-5-6-8"
         inkscape:connector-curvature="0"
         sodipodi:nodetypes="ccc" />
      <path
         style="fill:none;stroke:#000000;stroke-width:2.11535764;stroke-linecap:butt;stroke-linejoin:miter;stroke-opacity:1;display:inline"
         d="m -149.80866,236.76241 -4.5,-1 -1,0"
         id="path3410-6-6-5-6-8-2"
         inkscape:connector-curvature="0"
         sodipodi:nodetypes="ccc" />
    </g>
    <path
       style="fill:#ffd5d5;stroke:#000000;stroke-width:2;stroke-linecap:butt;stroke-linejoin:miter;stroke-opacity:1;display:inline"
       d="m -439.29199,201.6295 -23.99418,-87.12142 73.87931,-42.635954 c 14.72351,3.29619 23.36053,20.00519 19.19847,26.4559 l 1.811,27.577424 c 24.34911,20.32053 23.7021,39.03181 6.60479,35.40583 l -7.56192,26.91268 c 12.01555,11.14284 5.79494,19.04983 -3.39394,19.73469 -11.61105,0.86538 -20.60655,-2.33181 -30.65083,-4.49965"
       id="path5372-5-8-7-4"
       inkscape:connector-curvature="0"
       sodipodi:nodetypes="cccccccsc" />
    <path
       style="fill:#ffd5d5;stroke:#000000;stroke-width:2;stroke-linecap:butt;stroke-linejoin:miter;stroke-opacity:1;display:inline"
       d="m -366.77925,136.37614 c 7.83759,19.44732 8.94892,37.13936 -4.76678,56.09942"
       id="path3327-4-8-6-9-1-4-0-2"
       inkscape:connector-curvature="0"
       sodipodi:nodetypes="cc" />
    <path
       style="fill:#ffd5d5;stroke:#000000;stroke-width:2;stroke-linecap:butt;stroke-linejoin:miter;stroke-opacity:1;display:inline"
       d="m -385.28075,199.54432 c -12.00429,6.82423 -42.14759,9.30992 -61.00711,2.46577"
       id="path3325-8-7-5-4-1-5-9-7"
       inkscape:connector-curvature="0"
       sodipodi:nodetypes="cc" />
    <path
       sodipodi:nodetypes="cc"
       style="fill:none;stroke:#000000;stroke-width:2;stroke-linecap:butt;stroke-linejoin:miter;stroke-opacity:1;display:inline"
       d="m -410.18076,143.37489 c 10.23709,13.18583 13.02572,36.62238 -14.15768,26.66681"
       id="path5097-5-8-8-5-1-7-1-3-4-7"
       inkscape:connector-curvature="0" />
    <path
       style="fill:#ffd5d5;stroke:#000000;stroke-width:2;stroke-linecap:butt;stroke-linejoin:miter;stroke-opacity:1;display:inline"
       d="m -418.32034,196.69371 c 9.09805,14.31856 3.66629,23.97194 -9.87262,21.47571 -10.05749,-1.85435 -21.32721,-6.88099 -33.35718,-21.59215 -13.45265,-16.4509 -17.19721,-48.80388 -1.25575,-79.35123"
       id="path6785-4-9"
       inkscape:connector-curvature="0"
       sodipodi:nodetypes="cssc" />
    <path
       style="fill:#ffd5d5;stroke:#000000;stroke-width:2;stroke-linecap:butt;stroke-linejoin:miter;stroke-opacity:1;display:inline"
       d="m -381.72465,79.167896 c -18.17105,-22.97564 -52.31805,-14.93109 -64.5037,1.42645 -9.71406,13.03977 -25.26362,33.049134 -21.02285,47.897734"
       id="path3431-5-8-3"
       inkscape:connector-curvature="0"
       sodipodi:nodetypes="csc" />
    <g
       style="stroke-width:1.78711224"
       id="g5262"
       transform="matrix(0.92532572,0,-0.03459689,1.3535107,89.01463,-416.32155)">
      <path
         sodipodi:nodetypes="csssc"
         inkscape:connector-curvature="0"
         id="path4328-08-7-5"
         d="m -481.65007,394.58654 c 9.17985,-0.007 22.01445,10.08387 25.38279,16.59837 3.12004,6.03428 -7.06864,0.90774 -12.8381,0.003 -4.31131,-0.67596 -5.53392,-0.24435 -7.75201,-1.39759 -3.21402,-1.67104 -0.76648,-11.8463 -4.79268,-15.20378 z"
         style="fill:#c8b7b7;stroke:none;display:inline" />
      <path
         sodipodi:nodetypes="cccc"
         inkscape:connector-curvature="0"
         id="path4330-8-6-0"
         d="m -477.56817,395.14214 c 2.3034,2.58847 4.2684,6.79961 4.50056,11.42927 6.1139,0.35052 14.42411,3.50842 16.3375,3.7392 -4.26106,-6.46586 -12.14505,-12.62551 -20.83806,-15.16847 z"
         style="fill:#000080;stroke:none;display:inline" />
      <path
         sodipodi:nodetypes="csssc"
         inkscape:connector-curvature="0"
         id="path4328-08-7"
         d="m -481.64883,394.586 c 9.17985,-0.007 22.09077,10.04497 25.38279,16.59837 3.12004,6.21105 -7.06864,0.90774 -12.8381,0.003 -4.31131,-0.67596 -5.49877,-0.21966 -7.75201,-1.39759 -3.16512,-1.65464 -0.76648,-11.8463 -4.79268,-15.20378 z"
         style="fill:none;stroke:#000000;stroke-width:1.78711224;stroke-linecap:butt;stroke-linejoin:miter;stroke-opacity:1;display:inline" />
      <path
         sodipodi:nodetypes="ccc"
         inkscape:connector-curvature="0"
         id="path4330-8-6"
         d="m -477.56693,395.1416 c 2.3034,2.58847 4.2684,6.79961 4.50056,11.42927 6.1139,0.35052 14.36161,3.57092 16.3375,3.7392"
         style="fill:none;stroke:#000000;stroke-width:1.78711224;stroke-linecap:butt;stroke-linejoin:miter;stroke-opacity:1;display:inline" />
    </g>
    <path
       style="fill:#ffd5d5;stroke:#000000;stroke-width:2;stroke-linecap:butt;stroke-linejoin:miter;stroke-opacity:1;display:inline"
       d="m -371.45753,132.31677 c 7.69265,-10.49402 8.73548,-25.14533 -1.95463,-38.644264"
       id="path4041-7-8-1-8-1"
       inkscape:connector-curvature="0"
       sodipodi:nodetypes="cc" />
    <path
       sodipodi:nodetypes="cc"
       style="fill:none;stroke:#000000;stroke-width:2;stroke-linecap:butt;stroke-linejoin:miter;stroke-opacity:1;display:inline"
       d="m -381.3098,93.877596 -0.70442,3.43769"
       id="path5095-5-4-8-5-1-5-7-2-9"
       inkscape:connector-curvature="0" />
    <path
       sodipodi:nodetypes="cc"
       style="fill:none;stroke:#000000;stroke-width:2;stroke-linecap:butt;stroke-linejoin:miter;stroke-opacity:1;display:inline"
       d="m -398.95841,96.156996 3.77247,3.61926"
       id="path5097-5-8-8-5-1-7-1-4-8"
       inkscape:connector-curvature="0" />
    <path
       style="fill:#ffd5d5;stroke:#000000;stroke-width:2;stroke-linecap:butt;stroke-linejoin:miter;stroke-opacity:1;display:inline"
       d="m -437.53423,74.571106 c -25.99714,8.23242 -24.9399,32.447144 -17.87413,42.945584 5.25884,7.81369 19.15978,-12.64716 26.22548,-20.571494"
       id="path5099-1-8-2-7-5-6-1-5-6"
       inkscape:connector-curvature="0"
       sodipodi:nodetypes="csc" />
    <path
       style="fill:#ffaaaa;stroke:#000000;stroke-width:2;stroke-linecap:butt;stroke-linejoin:miter;stroke-opacity:1;display:inline"
       d="m -382.20743,101.5562 c -6.39623,0.62511 -13.51779,6.75295 -18.35106,15.46509 -3.59414,6.47855 -3.39963,14.74149 4.80688,13.20935 5.83342,-1.08919 10.8322,-1.67837 15.54719,-1.94675 5.52011,-0.31402 6.46878,-6.90403 6.47602,-12.47653 0.0111,-8.54634 -3.07792,-14.77903 -8.47903,-14.25116 z"
       id="path5101-7-2-4-1-2-1-5-5-5"
       inkscape:connector-curvature="0"
       sodipodi:nodetypes="ssssss" />
    <path
       sodipodi:nodetypes="sss"
       style="fill:#000000;stroke:#000000;stroke-width:2;display:inline"
       d="m -392.11177,122.80362 c 0.67743,2.3417 6.34904,-12.23055 5.15721,-12.40353 -1.43551,-0.20847 -6.71122,7.03175 -5.15721,12.40353 z"
       id="path5105-1-4-55-1-28-76-8-2-1-0"
       inkscape:connector-curvature="0" />
    <path
       sodipodi:nodetypes="sss"
       style="fill:#000000;stroke:#000000;stroke-width:2;display:inline"
       d="m -380.26349,110.09044 c -0.77257,-0.11785 -2.2754,13.49941 -0.93922,12.50297 3.05838,-2.28077 2.54318,-12.25718 0.93922,-12.50297 z"
       id="path5107-1-5-1-5-1-9-7-7-2"
       inkscape:connector-curvature="0" />
    <path
       style="fill:#800000;stroke:#000000;stroke-width:2;stroke-linecap:butt;stroke-linejoin:miter;stroke-opacity:1"
       d="m -453.68818,139.25395 c -7.7114,18.13028 -7.90195,46.523 -10.76512,71.92561 -5.48854,-6.40043 -12.84388,-11.5337 -13.77748,-26.76505 -1.01499,-16.55926 5.82737,-25.14675 7.56796,-44.90335 z"
       id="path19260"
       inkscape:connector-curvature="0"
       sodipodi:nodetypes="ccscc" />
    <g
       id="g27579"
       transform="matrix(1.289709,0,0,1.289709,432.28585,-279.9682)"
       style="stroke-width:1.55073738">
      <path
         sodipodi:nodetypes="ccccc"
         inkscape:connector-curvature="0"
         id="path19260-3-0"
         d="m -150.15451,302.61859 38.40534,38.11596 2.4924,34.28039 c -2.41675,-14.47275 -25.32969,-16.29242 -38.93772,-14.09085 z"
         style="fill:#2b0000;stroke:#000000;stroke-width:1.55073738;stroke-linecap:butt;stroke-linejoin:miter;stroke-opacity:1" />
      <path
         sodipodi:nodetypes="cccccc"
         inkscape:connector-curvature="0"
         id="path5091-2-4-0-7-2-27-1-3"
         d="m -238.77319,241.05526 c -17.38872,3.94122 -24.3237,21.64653 -21.38196,28.0891 l -5.11557,22.95323 -8.96742,30.87828 122.98484,-19.75262 z"
         style="fill:#ffd5d5;stroke:#000000;stroke-width:1.55073738;stroke-linecap:butt;stroke-linejoin:miter;stroke-opacity:1;display:inline" />
      <path
         sodipodi:nodetypes="cccsc"
         inkscape:connector-curvature="0"
         id="path11570-8-5"
         d="m -271.41838,330.58984 c -11.98724,-10.9131 -31.3162,-37.63243 -25.71216,-39.60666 l 1.99125,-0.36535 c 4.42555,-4.16301 -4.13729,-8.58006 -2.18764,-12.69799 2.77489,-5.86098 24.52025,-4.58711 36.15572,2.40235"
         style="fill:#ffd5d5;stroke:none;display:inline" />
      <path
         sodipodi:nodetypes="ccccsc"
         inkscape:connector-curvature="0"
         id="path5097-5-2-8-1-5-1-7-1-0-8"
         d="m -279.53129,274.58479 c 12.12645,6.48642 -3.48334,45.30679 -13.87298,28.96164 -1.71394,-2.60066 -7.00031,-12.1721 -3.72634,-12.56286 l 1.99125,-0.36535 c 4.18453,-4.34238 -4.05802,-8.53514 -2.18764,-12.69799 2.18491,-4.8629 14.35366,-3.8084 17.79571,-3.33544 z"
         style="fill:#ffaaaa;stroke:none;display:inline" />
      <path
         sodipodi:nodetypes="ccscc"
         inkscape:connector-curvature="0"
         id="path3536-4-7-61-5-3-1-8"
         d="m -295.13879,290.61744 c 4.42555,-4.16301 -4.13729,-8.58006 -2.18687,-12.69749 4.57769,-3.50399 9.90263,6.04606 10.0724,10.52825 0.20968,5.53614 -5.23832,0.90052 -9.87678,2.53459 z"
         style="fill:#ff8080;stroke:none;display:inline" />
      <path
         sodipodi:nodetypes="cssc"
         inkscape:connector-curvature="0"
         id="path11570-8"
         d="m -271.41902,330.59065 c -11.98724,-10.9131 -31.3162,-37.63243 -25.71216,-39.60666 4.63846,-1.63407 10.08646,3.00155 9.87678,-2.53459 -0.16977,-4.48219 -5.49471,-14.03224 -10.07164,-10.52776"
         style="fill:none;stroke:#000000;stroke-width:1.55073738;stroke-linecap:butt;stroke-linejoin:miter;stroke-opacity:1;display:inline" />
      <path
         sodipodi:nodetypes="csc"
         inkscape:connector-curvature="0"
         id="path3536-4-7-61-5-3-1"
         d="m -295.13993,290.61864 c 4.42555,-4.16301 -4.13729,-8.58006 -2.18764,-12.69799 2.77489,-5.86098 24.52025,-4.58711 36.15572,2.40235"
         style="fill:none;stroke:#000000;stroke-width:1.55073738;stroke-linecap:butt;stroke-linejoin:miter;stroke-opacity:1;display:inline" />
      <path
         sodipodi:nodetypes="csc"
         inkscape:connector-curvature="0"
         id="path11522-9"
         d="m -244.36466,244.94738 c 23.51063,-19.46439 58.84886,-5.36008 75.07939,13.64568 16.74718,19.61078 23.26597,33.48656 22.48193,48.83619"
         style="fill:#ffd5d5;stroke:#000000;stroke-width:1.55073738;stroke-linecap:butt;stroke-linejoin:miter;stroke-opacity:1;display:inline" />
      <path
         sodipodi:nodetypes="cc"
         inkscape:connector-curvature="0"
         id="path5093-4-2-9-9-4-4-3-8"
         d="m -252.98804,259.91495 c -11.66894,10.74405 -17.57481,30.09783 -6.90157,46.81749"
         style="fill:#ffd5d5;stroke:#000000;stroke-width:1.55073738;stroke-linecap:butt;stroke-linejoin:miter;stroke-opacity:1;display:inline" />
      <path
         sodipodi:nodetypes="cc"
         inkscape:connector-curvature="0"
         id="path5095-5-3-4-3-2-3-8-0"
         d="m -247.89428,258.1417 1.95533,4.08046"
         style="fill:none;stroke:#000000;stroke-width:1.55073738;stroke-linecap:butt;stroke-linejoin:miter;stroke-opacity:1;display:inline" />
      <path
         sodipodi:nodetypes="cc"
         inkscape:connector-curvature="0"
         id="path5097-5-2-8-1-5-1-7-1"
         d="m -225.2033,259.14283 -8.14727,1.52992"
         style="fill:none;stroke:#000000;stroke-width:1.55073738;stroke-linecap:butt;stroke-linejoin:miter;stroke-opacity:1;display:inline" />
      <path
         sodipodi:nodetypes="csc"
         inkscape:connector-curvature="0"
         id="path5099-1-2-8-9-8-2-4-3"
         d="m -191.05627,243.91372 c 31.24344,4.97163 31.49368,33.52985 20.70581,44.17778 -5.5149,5.44345 -19.58139,-17.71819 -27.85784,-26.59216"
         style="fill:#ffd5d5;stroke:#000000;stroke-width:1.55073738;stroke-linecap:butt;stroke-linejoin:miter;stroke-opacity:1;display:inline" />
      <path
         sodipodi:nodetypes="ssssss"
         inkscape:connector-curvature="0"
         id="path5101-7-1-2-8-62-3-2-9"
         d="m -241.28454,264.56577 c 7.28878,-0.17482 17.20686,9.08498 22.10294,19.25323 4.61755,9.58971 2.27311,17.32198 -8.12261,15.92545 -11.63682,-1.56325 -14.78269,-1.15999 -19.87614,-0.66642 -7.45781,0.72268 -8.64589,-9.90044 -7.03996,-18.54245 1.47195,-7.921 5.94887,-15.80223 12.93577,-15.96981 z"
         style="fill:#ffaaaa;stroke:#000000;stroke-width:1.55073738;stroke-linecap:butt;stroke-linejoin:miter;stroke-opacity:1;display:inline" />
      <path
         sodipodi:nodetypes="sss"
         inkscape:connector-curvature="0"
         id="path5105-1-6-4-6-6-3-7-3"
         d="m -229.48893,290.78801 c -1.21486,2.96081 -8.81775,-16.64046 -6.94535,-16.6765 2.25517,-0.0438 9.60612,10.19179 6.94535,16.6765 z"
         style="fill:#000000;stroke:#000000;stroke-width:1.55073738;display:inline" />
      <path
         sodipodi:nodetypes="sss"
         inkscape:connector-curvature="0"
         id="path5107-1-8-55-5-5-41-7-9"
         d="m -244.24322,274.5169 c 1.4774,-0.2371 1.07823,17.53538 -0.5275,15.47737 -3.19531,-4.09534 -1.35124,-15.17586 0.5275,-15.47737 z"
         style="fill:#000000;stroke:#000000;stroke-width:1.55073738;display:inline" />
      <path
         sodipodi:nodetypes="cccc"
         inkscape:connector-curvature="0"
         id="path11572-5"
         d="m -149.56062,299.98691 c 29.66324,42.14013 32.53743,85.95402 17.16873,92.40161 l -125.12257,-0.7632 c -17.09462,-18.87557 -22.34034,-44.12051 -11.24527,-73.229"
         style="fill:#ffd5d5;stroke:#000000;stroke-width:1.55073738;stroke-linecap:butt;stroke-linejoin:miter;stroke-opacity:1;display:inline" />
      <path
         sodipodi:nodetypes="cc"
         inkscape:connector-curvature="0"
         id="path5097-5-2-8-1-5-1-7-1-0"
         d="m -279.53186,274.58521 c 12.12645,6.48642 -3.48334,45.30679 -13.87298,28.96164"
         style="fill:none;stroke:#000000;stroke-width:1.55073738;stroke-linecap:butt;stroke-linejoin:miter;stroke-opacity:1;display:inline" />
      <path
         sodipodi:nodetypes="cscsc"
         inkscape:connector-curvature="0"
         id="path11570-8-6-5"
         d="m -187.1872,312.53612 c -12.14684,3.72585 -33.50975,22.67097 -28.29143,27.25047 1.46935,1.28948 3.22288,1.78234 4.22773,1.78476 4.90729,4.81632 -2.32639,7.33244 0.25203,11.14172 3.13803,4.63604 22.4407,6.42758 35.57876,5.38295"
         style="fill:#ffd5d5;stroke:none;display:inline" />
      <path
         sodipodi:nodetypes="ccccsc"
         inkscape:connector-curvature="0"
         id="path5097-5-2-8-1-5-1-7-1-0-5-68"
         d="m -195.79599,357.67933 c 12.62371,-1.53705 -3.16852,-42.48877 -15.11319,-28.78877 -1.64259,2.08174 -6.8901,7.7167 -4.56952,10.89642 l 4.22773,1.78476 c 4.80354,5.10855 -2.21703,7.60633 0.25203,11.14172 2.52019,3.60861 11.7558,4.55451 15.20295,4.96587 z"
         style="fill:#ffaaaa;stroke:none;display:inline" />
      <path
         sodipodi:nodetypes="ccsc"
         inkscape:connector-curvature="0"
         id="path3536-4-7-61-5-3-1-5-2"
         d="m -211.2504,341.57096 c 4.90729,4.81632 -2.32639,7.33244 0.25282,11.14156 3.72661,4.44638 9.7747,-5.81272 7.0982,-8.61581 -2.63761,-2.76236 -7.35102,-2.52575 -7.35102,-2.52575 z"
         style="fill:#ff8080;stroke:none;display:inline" />
      <path
         sodipodi:nodetypes="cssc"
         inkscape:connector-curvature="0"
         id="path11570-8-6"
         d="m -187.18784,312.53693 c -12.14684,3.72585 -33.57792,22.74983 -28.29143,27.25047 3.14288,2.67568 8.94114,1.54815 11.57875,4.31051 2.6765,2.80309 -3.37159,13.06219 -7.09741,8.61564"
         style="fill:none;stroke:#000000;stroke-width:1.55073738;stroke-linecap:butt;stroke-linejoin:miter;stroke-opacity:1;display:inline" />
      <path
         sodipodi:nodetypes="csc"
         inkscape:connector-curvature="0"
         id="path3536-4-7-61-5-3-1-5"
         d="m -211.25154,341.57216 c 4.90729,4.81632 -2.32639,7.33244 0.25203,11.14172 3.13803,4.63604 22.4407,6.42758 35.57876,5.38295"
         style="fill:none;stroke:#000000;stroke-width:1.55073738;stroke-linecap:butt;stroke-linejoin:miter;stroke-opacity:1;display:inline" />
      <path
         sodipodi:nodetypes="cc"
         inkscape:connector-curvature="0"
         id="path5097-5-2-8-1-5-1-7-1-0-5"
         d="m -195.79656,357.67975 c 12.62371,-1.53705 -3.16852,-42.48877 -15.11319,-28.78877"
         style="fill:none;stroke:#000000;stroke-width:1.55073738;stroke-linecap:butt;stroke-linejoin:miter;stroke-opacity:1;display:inline" />
      <path
         sodipodi:nodetypes="csccc"
         inkscape:connector-curvature="0"
         id="path19260-3"
         d="m -141.564,302.23322 c 15.68349,17.09051 27.4077,22.84471 32.90534,38.65289 5.21785,15.00366 3.2726,29.53731 -1.30021,37.70085 -1.53487,-39.43426 -27.66695,-55.45925 -41.00306,-64.81813 z"
         style="fill:#800000;stroke:#000000;stroke-width:1.55073738;stroke-linecap:butt;stroke-linejoin:miter;stroke-opacity:1" />
      <g
         transform="matrix(-1.1284558,0.39365596,0.05150339,1.3734484,-117.04509,59.869887)"
         id="g4181-2-7"
         style="stroke-width:1.23756385;display:inline">
        <path
           style="fill:#c8b7b7;stroke:#000000;stroke-width:1.23756385;stroke-linecap:butt;stroke-linejoin:miter;stroke-opacity:1;display:inline"
           d="m 27.138938,163.78668 c 14.592288,-17.39196 39.519228,-11.37738 37.478238,-2.24333 -1.46862,6.57253 -29.389831,29.99599 -37.215116,30.27107 -7.584946,0.26664 -6.918579,-20.09537 -0.263122,-28.02774 z"
           id="path4132-0-4"
           inkscape:connector-curvature="0"
           sodipodi:nodetypes="ssss" />
        <path
           style="fill:#000080;stroke:#000000;stroke-width:1.23756385;stroke-linecap:butt;stroke-linejoin:miter;stroke-opacity:1;display:inline"
           d="m 58.549103,160.99266 c -7.130127,11.47399 -24.195006,23.73288 -30.633408,25.05355 -5.523853,1.13307 -5.177333,-13.79459 -0.376555,-21.14243 6.342219,-8.84935 24.230178,-12.94023 31.009963,-3.91112 z"
           id="path4134-78-3"
           inkscape:connector-curvature="0"
           sodipodi:nodetypes="cscc" />
      </g>
    </g>
  </g>
  <g
     inkscape:groupmode="layer"
     id="layer4"
     inkscape:label="字幕"
     sodipodi:insensitive="true">
    <rect
       style="fill:#fefefe;fill-opacity:1;stroke:#000000;stroke-width:1.99978888"
       id="rect13841"
       width="348.00021"
       height="98.000214"
       x="10.99989"
       y="210.99992"
       ry="10.818201" />
    <rect
       style="fill:#000080;fill-opacity:1;stroke:#000000;stroke-width:1.85426915"
       id="rect13841-0"
       width="338.14572"
       height="88.145729"
       x="15.927135"
       y="215.92714"
       ry="6.486125" />
    <text
       xml:space="preserve"
       style="font-size:28px;font-style:normal;font-variant:normal;font-weight:normal;font-stretch:normal;line-height:125%;letter-spacing:0px;word-spacing:0px;writing-mode:lr-tb;fill:#fefefe;fill-opacity:1;stroke:none;font-family:MS UI Gothic;-inkscape-font-specification:MS UI Gothic"
       x="37.107948"
       y="270.23175"
       id="text6768"
       sodipodi:linespacing="125%"><tspan
         sodipodi:role="line"
         x="37.107948"
         y="270.23175"
         style="font-size:28px;font-style:normal;font-variant:normal;font-weight:normal;font-stretch:normal;fill:#fefefe;fill-opacity:1;font-family:MS UI Gothic;-inkscape-font-specification:MS UI Gothic"
         id="tspan3151">あとになって 効いてきた!</tspan></text>
    <text
       xml:space="preserve"
       style="font-size:28px;font-style:normal;font-variant:normal;font-weight:normal;font-stretch:normal;line-height:125%;letter-spacing:0px;word-spacing:0px;writing-mode:lr-tb;fill:#fefefe;fill-opacity:1;stroke:none;font-family:MS UI Gothic;-inkscape-font-specification:MS UI Gothic"
       x="25.641621"
       y="290.3801"
       id="text6768-1"
       sodipodi:linespacing="125%"><tspan
         sodipodi:role="line"
         x="25.641621"
         y="290.3801"
         style="font-size:28px;font-style:normal;font-variant:normal;font-weight:normal;font-stretch:normal;fill:#fefefe;fill-opacity:1;font-family:MS UI Gothic;-inkscape-font-specification:MS UI Gothic"
         id="tspan3151-4" /></text>
  </g>
  <g
     inkscape:groupmode="layer"
     id="layer2"
     inkscape:label="枠面"
     sodipodi:insensitive="true">
    <path
       style="fill:#ffffff;stroke:none;display:inline"
       d="m 0,0 0,320 370,0 0,-320 -10,10 0,300 -350,0 0,-300 350,0 10,-10 z"
       id="path21072"
       inkscape:connector-curvature="0"
       sodipodi:nodetypes="ccccccccccc" />
  </g>
</svg>
