<?xml version="1.0" encoding="UTF-8" standalone="no"?>
<!-- Created with Inkscape (http://www.inkscape.org/) -->

<svg
   xmlns:dc="http://purl.org/dc/elements/1.1/"
   xmlns:cc="http://creativecommons.org/ns#"
   xmlns:rdf="http://www.w3.org/1999/02/22-rdf-syntax-ns#"
   xmlns:svg="http://www.w3.org/2000/svg"
   xmlns="http://www.w3.org/2000/svg"
   xmlns:sodipodi="http://sodipodi.sourceforge.net/DTD/sodipodi-0.dtd"
   xmlns:inkscape="http://www.inkscape.org/namespaces/inkscape"
   width="370"
   height="320"
   id="svg3172"
   version="1.1"
   inkscape:version="0.48.4 r9939"
   sodipodi:docname="[39]発見.svg"
   inkscape:export-filename="C:\Users\執安\Desktop\資料\臨時\LEGEND\[39]発見.png"
   inkscape:export-xdpi="90"
   inkscape:export-ydpi="90">
  <defs
     id="defs3174" />
  <sodipodi:namedview
     id="base"
     pagecolor="#ffffff"
     bordercolor="#666666"
     borderopacity="1.0"
     inkscape:pageopacity="0.0"
     inkscape:pageshadow="2"
     inkscape:zoom="2.109375"
     inkscape:cx="184.61086"
     inkscape:cy="129.45617"
     inkscape:document-units="px"
     inkscape:current-layer="layer3"
     showgrid="false"
     inkscape:window-width="966"
     inkscape:window-height="689"
     inkscape:window-x="-5"
     inkscape:window-y="2"
     inkscape:window-maximized="0" />
  <metadata
     id="metadata3177">
    <rdf:RDF>
      <cc:Work
         rdf:about="">
        <dc:format>image/svg+xml</dc:format>
        <dc:type
           rdf:resource="http://purl.org/dc/dcmitype/StillImage" />
        <dc:title></dc:title>
      </cc:Work>
    </rdf:RDF>
  </metadata>
  <g
     inkscape:label="補助線"
     inkscape:groupmode="layer"
     id="layer1"
     transform="translate(0,-732.36218)"
     sodipodi:insensitive="true"
     style="display:none">
    <path
       style="fill:none;stroke:#0000ff;stroke-width:1px;stroke-linecap:butt;stroke-linejoin:miter;stroke-opacity:1;display:inline"
       d="M 10,1042.3622 360,742.36211"
       id="path3025"
       inkscape:connector-curvature="0"
       sodipodi:nodetypes="cc" />
    <path
       style="fill:none;stroke:#0000ff;stroke-width:1px;stroke-linecap:butt;stroke-linejoin:miter;stroke-opacity:1;display:inline"
       d="M 10,742.36211 360,1042.3622"
       id="path3027"
       inkscape:connector-curvature="0"
       sodipodi:nodetypes="cc" />
    <path
       style="fill:none;stroke:#ff0000;stroke-width:1px;stroke-linecap:butt;stroke-linejoin:miter;stroke-opacity:1;display:inline"
       d="m 10,732.36211 0,320.00009"
       id="path3006"
       inkscape:connector-curvature="0"
       sodipodi:nodetypes="cc" />
    <path
       style="fill:none;stroke:#ff0000;stroke-width:1px;stroke-linecap:butt;stroke-linejoin:miter;stroke-opacity:1;display:inline"
       d="m 360,732.36211 0,320.00009"
       id="path3010"
       inkscape:connector-curvature="0"
       sodipodi:nodetypes="cc" />
    <path
       style="fill:none;stroke:#ff0000;stroke-width:1px;stroke-linecap:butt;stroke-linejoin:miter;stroke-opacity:1;display:inline"
       d="m 0,742.36208 370,3e-5"
       id="path3016"
       inkscape:connector-curvature="0" />
    <path
       style="fill:none;stroke:#ff0000;stroke-width:1px;stroke-linecap:butt;stroke-linejoin:miter;stroke-opacity:1;display:inline"
       d="m 0,1042.3622 370,0"
       id="path3018"
       inkscape:connector-curvature="0"
       sodipodi:nodetypes="cc" />
  </g>
  <g
     inkscape:groupmode="layer"
     id="layer3"
     inkscape:label="豚"
     style="display:inline"
     sodipodi:insensitive="true">
    <g
       transform="matrix(0.75733546,0.95482091,-0.95482091,0.75733546,851.00004,401.34265)"
       style="stroke-width:1.64108729;display:inline"
       id="g31122">
      <path
         style="fill:#784421;stroke:#000000;stroke-width:1.64108729;stroke-linecap:butt;stroke-linejoin:miter;stroke-opacity:1;display:inline"
         d="M -584.5,315.10001 -490,310 l 30,10 -30,10 -94.5,-5.1 0.5,-4.9 z"
         id="path3402-36-2-6-9"
         inkscape:connector-curvature="0"
         sodipodi:nodetypes="ccccccc" />
      <path
         style="fill:#d4aa00;stroke:#000000;stroke-width:1.64108729;stroke-linecap:butt;stroke-linejoin:miter;stroke-opacity:1;display:inline"
         d="m -580.5,340 -4.5,-1 -1,-19 1,-19 4.5,-1 1,0 1,20 -1,20 z"
         id="path3408-4-7-8-9"
         inkscape:connector-curvature="0"
         sodipodi:nodetypes="ccccccccc" />
      <path
         style="fill:none;stroke:#000000;stroke-width:1.64108729;stroke-linecap:butt;stroke-linejoin:miter;stroke-opacity:1;display:inline"
         d="m -584,339 1,-19 -1,-19"
         id="path3410-6-6-5-6"
         inkscape:connector-curvature="0"
         sodipodi:nodetypes="ccc" />
      <path
         style="fill:#784421;stroke:#000000;stroke-width:1.64108729;stroke-linecap:butt;stroke-linejoin:miter;stroke-opacity:1;display:inline"
         d="m -584.5,324.9 -34.5,-1.9 -1,-3 1.09996,-3 L -584.5,315.09999 -584,320 z"
         id="path4319-7-5-4-1"
         inkscape:connector-curvature="0"
         sodipodi:nodetypes="ccccccc" />
      <path
         style="fill:none;stroke:#000000;stroke-width:1.64108729;stroke-linecap:butt;stroke-linejoin:miter;stroke-opacity:1;display:inline"
         d="m -579.5,300 -4.5,1 -1,0"
         id="path3410-6-6-5-6-8"
         inkscape:connector-curvature="0"
         sodipodi:nodetypes="ccc" />
      <path
         style="fill:none;stroke:#000000;stroke-width:1.64108729;stroke-linecap:butt;stroke-linejoin:miter;stroke-opacity:1;display:inline"
         d="m -579.5,340 -4.5,-1 -1,0"
         id="path3410-6-6-5-6-8-2"
         inkscape:connector-curvature="0"
         sodipodi:nodetypes="ccc" />
    </g>
    <path
       style="fill:#2b0000;stroke:#000000;stroke-width:2;stroke-linecap:butt;stroke-linejoin:miter;stroke-opacity:1;display:inline"
       d="M 244.3424,145.62363 C 226.22694,134.74132 103.3403,173.72385 100.99004,190.36625 L 92.8207,166.93734 104.13814,112.83228 227.39998,80.438748 c 6.77765,23.605332 16.95402,47.010962 16.94242,65.184882 z"
       id="path29828-5"
       inkscape:connector-curvature="0"
       sodipodi:nodetypes="cccccc" />
    <path
       style="fill:#ffd5d5;stroke:#000000;stroke-width:2;stroke-linecap:butt;stroke-linejoin:miter;stroke-opacity:1;display:inline"
       d="m 229.74402,155.75489 c 10.98601,7.01095 13.67129,16.268 10.09714,21.54766 -4.59402,6.78619 -22.85813,8.55083 -49.03112,7.01803 l -42.41018,3.59272 86.43141,-82.23098 z"
       id="path3105-7-5-7-2-6-1-3-2"
       inkscape:connector-curvature="0"
       sodipodi:nodetypes="cscccc" />
    <path
       sodipodi:nodetypes="cssccsc"
       id="path26132"
       d="m 158.53941,182.46429 c 1.23161,14.68259 -5.56069,24.97036 -16.85501,23.10836 -10.64661,-1.75523 -26.49621,-17.98908 -32.82844,-33.67705 -9.848044,-24.39826 -13.183844,-65.76384 3.04183,-88.62545 l 116.75952,-1.983091 c 18.81183,18.125293 28.04452,39.782921 23.83484,48.022651 -2.64861,5.1842 -12.25673,6.24775 -20.37123,4.12568"
       style="fill:#ffd5d5;stroke:#000000;stroke-width:2;stroke-linecap:butt;stroke-linejoin:miter;stroke-opacity:1;display:inline"
       inkscape:connector-curvature="0" />
    <g
       id="g28472"
       transform="matrix(1.3123804,0,0,1.3123804,16.289534,-16.913742)"
       style="stroke-width:1.52394843">
      <path
         style="fill:#c8b7b7;stroke:none;display:inline"
         d="m 150.72791,62.649833 c 15.35151,0.757104 28.32907,11.98052 28.64025,19.518239 0.17534,4.247408 -7.23959,8.700969 -14.38417,6.914173 -6.96205,-1.74115 2.1371,-21.536544 -14.25608,-26.432412 z"
         id="path4328-5-5-8-0-6"
         inkscape:connector-curvature="0"
         sodipodi:nodetypes="cssc" />
      <path
         style="fill:#000080;stroke:none;display:inline"
         d="m 155.1337,63.159832 c 5.36003,0.275556 10.16932,8.900424 11.41039,21.744934 5.98859,1.023966 14.6367,-1.29902 11.42657,-7.178846 -5.725,-9.226721 -14.56243,-12.579993 -22.83696,-14.566088 z"
         id="path4330-2-9-6-0-4"
         inkscape:connector-curvature="0"
         sodipodi:nodetypes="cccc" />
      <path
         sodipodi:nodetypes="cssc"
         inkscape:connector-curvature="0"
         id="path4328-5-5-8-0"
         d="m 150.72667,62.650371 c 15.35151,0.757104 28.32907,11.98052 28.64025,19.518239 0.17534,4.247408 -7.23959,8.700969 -14.38417,6.914173 -6.96205,-1.74115 2.13711,-21.536544 -14.25608,-26.432412 z"
         style="fill:none;stroke:#000000;stroke-width:1.52394843;stroke-linecap:butt;stroke-linejoin:miter;stroke-opacity:1;display:inline" />
      <path
         sodipodi:nodetypes="ccc"
         inkscape:connector-curvature="0"
         id="path4330-2-9-6-0"
         d="m 155.13247,63.16037 c 5.36002,0.275556 10.16932,8.900424 11.41038,21.744934 5.9886,1.023966 14.6367,-1.29902 11.42657,-7.178846"
         style="fill:none;stroke:#000000;stroke-width:1.52394843;stroke-linecap:butt;stroke-linejoin:miter;stroke-opacity:1;display:inline" />
    </g>
    <path
       sodipodi:nodetypes="cccc"
       id="path26134"
       d="m 114.2581,93.400702 83.24728,-70.301058 c 19.69527,3.591349 31.07093,22.740536 27.27054,31.82227 l 2.08668,30.802908"
       style="fill:#ffd5d5;stroke:#000000;stroke-width:2;stroke-linecap:butt;stroke-linejoin:miter;stroke-opacity:1;display:inline"
       inkscape:connector-curvature="0" />
    <path
       sodipodi:nodetypes="csc"
       inkscape:connector-curvature="0"
       id="path26136"
       d="M 210.19322,31.438303 C 182.10467,6.5948149 145.66778,20.50961 127.44171,45.869567 109.67266,70.593778 108.22799,91.953852 112.65555,97.741462"
       style="fill:#ffd5d5;stroke:#000000;stroke-width:2;stroke-linecap:butt;stroke-linejoin:miter;stroke-opacity:1;display:inline" />
    <path
       sodipodi:nodetypes="cc"
       inkscape:connector-curvature="0"
       id="path26148"
       d="m 224.77357,98.081992 c 10.70532,-13.571378 9.64636,-32.977028 -4.21716,-48.711953"
       style="fill:#ffd5d5;stroke:#000000;stroke-width:2;stroke-linecap:butt;stroke-linejoin:miter;stroke-opacity:1;display:inline" />
    <path
       inkscape:connector-curvature="0"
       id="path26150"
       d="m 211.96053,50.907565 -0.44074,5.836703"
       style="fill:none;stroke:#000000;stroke-width:2;stroke-linecap:butt;stroke-linejoin:miter;stroke-opacity:1;display:inline"
       sodipodi:nodetypes="cc" />
    <path
       inkscape:connector-curvature="0"
       id="path26152"
       d="m 190.27723,55.91425 6.16919,5.07783"
       style="fill:none;stroke:#000000;stroke-width:2;stroke-linecap:butt;stroke-linejoin:miter;stroke-opacity:1;display:inline"
       sodipodi:nodetypes="cc" />
    <path
       sodipodi:nodetypes="csc"
       inkscape:connector-curvature="0"
       id="path26154"
       d="m 149.22349,27.910623 c -30.2739,8.215439 -31.77784,37.221171 -18.78949,50.489053 6.12458,6.256322 15.49989,-10.583784 21.26973,-17.879922"
       style="fill:#ffd5d5;stroke:#000000;stroke-width:2;stroke-linecap:butt;stroke-linejoin:miter;stroke-opacity:1;display:inline" />
    <path
       sodipodi:nodetypes="ssssss"
       inkscape:connector-curvature="0"
       id="path26156"
       d="m 209.10915,61.010941 c -8.19344,1.816839 -17.65554,11.541621 -22.572,21.069653 -6.09786,11.817488 -4.64723,20.575706 7.71097,16.012518 8.80776,-3.25222 15.90027,-4.04633 21.98323,-5.2556 8.05057,-1.60037 7.61786,-12.263498 5.8368,-18.97661 -1.75952,-6.632623 -6.19579,-14.349605 -12.959,-12.849961 z"
       style="fill:#ffaaaa;stroke:#000000;stroke-width:2;stroke-linecap:butt;stroke-linejoin:miter;stroke-opacity:1;display:inline" />
    <path
       inkscape:connector-curvature="0"
       id="path26158"
       d="m 198.06089,89.324907 c 1.32095,3.892115 9.0083,-17.871896 6.94151,-17.826837 -1.89275,0.04128 -9.03582,11.656966 -6.94151,17.826837 z"
       style="fill:#000000;stroke:#000000;stroke-width:2;display:inline"
       sodipodi:nodetypes="sss" />
    <path
       inkscape:connector-curvature="0"
       id="path26160"
       d="m 212.81414,70.789725 c -1.20079,-0.575573 -1.83335,16.980331 0.27346,14.86401 3.67277,-3.689058 1.71009,-13.913511 -0.27346,-14.86401 z"
       style="fill:#000000;stroke:#000000;stroke-width:2;display:inline"
       sodipodi:nodetypes="sss" />
    <path
       sodipodi:nodetypes="csc"
       id="path26162"
       d="m 149.94507,153.67752 c 11.68854,3.40654 25.53594,1.80044 29.77724,-6.4245 5.02544,-9.74558 -3.16551,-26.78026 -15.5676,-35.60901"
       style="fill:#ffd5d5;stroke:#000000;stroke-width:2;stroke-linecap:butt;stroke-linejoin:miter;stroke-opacity:1;display:inline"
       inkscape:connector-curvature="0" />
    <path
       sodipodi:nodetypes="cc"
       inkscape:connector-curvature="0"
       id="path26164"
       d="m 232.16613,116.01648 c 5.43149,14.65626 8.43275,34.01375 -6.80511,46.09498"
       style="fill:#ffd5d5;stroke:#000000;stroke-width:2;stroke-linecap:butt;stroke-linejoin:miter;stroke-opacity:1;display:inline" />
    <path
       style="fill:#800000;stroke:#000000;stroke-width:2;stroke-linecap:butt;stroke-linejoin:miter;stroke-opacity:1;display:inline"
       d="m 121.52832,100.33637 c -7.67456,17.53194 -23.179463,62.43015 -18.64704,96.01412 -7.972204,-11.18834 -17.203895,-34.27281 -8.860527,-59.54869 6.903987,-20.91531 3.022,-34.15896 16.863617,-53.479047 -0.94751,6.431278 5.29024,11.342419 10.64395,17.013617 z"
       id="path29828"
       inkscape:connector-curvature="0"
       sodipodi:nodetypes="ccscc" />
    <g
       id="g28478"
       transform="matrix(1.210888,0,0,1.210888,41.652962,-0.42482832)"
       style="stroke-width:1.65168047">
      <path
         sodipodi:nodetypes="ssss"
         inkscape:connector-curvature="0"
         id="path4132-5-9-8-6"
         d="m 53.982051,78.670704 c 7.832666,-8.055148 29.411391,2.299714 33.357281,18.571526 1.798631,7.41708 -32.702073,22.85029 -39.736696,17.4463 -5.444282,-4.18229 -2.562562,-26.821858 6.379415,-36.017826 z"
         style="fill:#c8b7b7;stroke:#000000;stroke-width:1.65168047;stroke-linecap:butt;stroke-linejoin:miter;stroke-opacity:1;display:inline" />
      <path
         sodipodi:nodetypes="ccsc"
         inkscape:connector-curvature="0"
         id="path4134-7-7-6-6"
         d="m 54.080966,80.111227 c 5.640995,-3.283 21.928418,1.823753 27.045727,17.409133 -8.400514,7.85606 -26.730108,15.42163 -32.676656,12.34088 -5.522112,-2.86086 -2.084727,-24.338476 5.630929,-29.750013 z"
         style="fill:#000080;stroke:#000000;stroke-width:1.65168047;stroke-linecap:butt;stroke-linejoin:miter;stroke-opacity:1;display:inline" />
    </g>
    <g
       transform="matrix(-0.97809213,0.16067649,0.72436723,0.97115287,312.11542,-66.088949)"
       id="g26170"
       style="stroke-width:1.93685567;display:inline" />
    <path
       sodipodi:nodetypes="cc"
       inkscape:connector-curvature="0"
       id="path26168"
       d="m 212.08634,173.68451 c -13.81699,11.26577 -39.01149,19.05991 -59.95116,13.16736"
       style="fill:#ffd5d5;stroke:#000000;stroke-width:2;stroke-linecap:butt;stroke-linejoin:miter;stroke-opacity:1;display:inline" />
  </g>
  <g
     style="display:none"
     inkscape:label="箪笥 コピー"
     id="g29486"
     inkscape:groupmode="layer"
     sodipodi:insensitive="true">
    <path
       sodipodi:nodetypes="cc"
       style="fill:none;stroke:#0000ff;stroke-width:0.1;stroke-linecap:butt;stroke-linejoin:miter;stroke-opacity:1;display:inline"
       d="M 150,188.143 88,160.5"
       id="path29488"
       inkscape:connector-curvature="0" />
    <path
       sodipodi:nodetypes="cc"
       style="fill:none;stroke:#0000ff;stroke-width:0.1;stroke-linecap:butt;stroke-linejoin:miter;stroke-opacity:1;display:inline"
       d="m 228.978,115.185 0,31.113"
       id="path29492"
       inkscape:connector-curvature="0" />
    <path
       sodipodi:nodetypes="ccccc"
       inkscape:connector-curvature="0"
       id="path29496"
       d="M -900,-280 150,225 1300,-280 150,188.143 z"
       style="fill:none;stroke:#0000ff;stroke-width:0.1;stroke-linecap:butt;stroke-linejoin:miter;stroke-opacity:1;display:inline" />
    <path
       sodipodi:nodetypes="ccccc"
       inkscape:connector-curvature="0"
       id="path29498"
       d="M -900,-280 105.317,271.48907 1300,-280 228.978,146.298 z"
       style="fill:none;stroke:#ff0000;stroke-width:0.1;stroke-linecap:butt;stroke-linejoin:miter;stroke-opacity:1;display:inline" />
    <path
       sodipodi:nodetypes="ccccc"
       inkscape:connector-curvature="0"
       id="path29500"
       d="M -900,-280 282.876,166.65 1300,-280 282.876,134.051 z"
       style="fill:none;stroke:#00ff00;stroke-width:0.1;stroke-linecap:butt;stroke-linejoin:miter;stroke-opacity:1;display:inline" />
    <path
       sodipodi:nodetypes="ccccc"
       inkscape:connector-curvature="0"
       id="path29502"
       d="M -900,-280 88,160.5 1300,-280 96.226,164.167 z"
       style="fill:none;stroke:#ff0000;stroke-width:0.1;stroke-linecap:butt;stroke-linejoin:miter;stroke-opacity:1;display:inline" />
    <path
       sodipodi:nodetypes="ccccc"
       inkscape:connector-curvature="0"
       id="path29504"
       d="M -900,-280 105.317,195.519 1300,-280 159.146,184.419 z"
       style="fill:none;stroke:#0000ff;stroke-width:0.1;stroke-linecap:butt;stroke-linejoin:miter;stroke-opacity:1;display:inline" />
    <path
       sodipodi:nodetypes="ccccc"
       inkscape:connector-curvature="0"
       id="path29496-7"
       d="M -900,-280 314.92092,415.336 1300,-280 290.671,130.878 z"
       style="fill:none;stroke:#00ff00;stroke-width:0.1;stroke-linecap:butt;stroke-linejoin:miter;stroke-opacity:1;display:inline" />
    <path
       sodipodi:nodetypes="ccccccccc"
       style="fill:none;stroke:#ff0000;stroke-width:0.1;stroke-linecap:butt;stroke-linejoin:miter;stroke-opacity:1;display:inline"
       d="M 105.317,195.519 228.978,146.298 282.876,166.65 150,225 88,195.181 88,160.5 228.5143,109.43 290.671,130.878 150,188.143"
       id="path29494"
       inkscape:connector-curvature="0" />
    <path
       sodipodi:nodetypes="cccc"
       style="fill:none;stroke:#0000ff;stroke-width:0.1;stroke-linecap:butt;stroke-linejoin:miter;stroke-opacity:1;display:inline"
       d="M 159.146,184.419 105.317,160.81556 228.978,115.185 282.876,134.051"
       id="path29490"
       inkscape:connector-curvature="0" />
    <path
       style="fill:none;stroke:#0000ff;stroke-width:0.1;stroke-linecap:butt;stroke-linejoin:miter;stroke-opacity:1;display:inline"
       d="M 150,188.143 88,160.5"
       id="path30860"
       inkscape:connector-curvature="0" />
  </g>
  <g
     inkscape:groupmode="layer"
     id="g30760"
     inkscape:label="箪笥 コピー コピー"
     style="display:none"
     sodipodi:insensitive="true">
    <path
       style="fill:#a05a2c;stroke:none;display:inline"
       d="m 228.978,115.185 0,31.113 53.898,20.352 0,-32.599 z"
       id="path30976"
       inkscape:connector-curvature="0"
       sodipodi:nodetypes="ccccc" />
    <path
       style="fill:#784421;stroke:none;display:inline"
       d="m 228.978,146.298 0,-31.113 -123.661,45.63056 0,34.70344 z"
       id="path30966"
       inkscape:connector-curvature="0"
       sodipodi:nodetypes="ccccc" />
    <path
       style="fill:#c87137;stroke:none;display:inline"
       d="M 105.317,195.519 228.978,146.298 282.876,166.65 150,225 z"
       id="path31003"
       inkscape:connector-curvature="0"
       sodipodi:nodetypes="ccccc" />
    <path
       style="fill:none;stroke:#000000;stroke-width:2;stroke-linecap:butt;stroke-linejoin:miter;stroke-opacity:1;display:inline"
       d="m 105.317,195.519 123.661,-49.221 53.898,20.352"
       id="path30854"
       inkscape:connector-curvature="0" />
    <path
       style="fill:#a05a2c;stroke:none;display:inline"
       d="M 150,188.143 88,160.5 88,195.181 150,225 z"
       id="path30876"
       inkscape:connector-curvature="0"
       sodipodi:nodetypes="ccccc" />
    <path
       style="fill:#c87137;stroke:none;display:inline"
       d="m 150,188.143 9.146,-3.724 -53.829,-23.60344 123.661,-45.63056 53.898,18.866 7.795,-3.173 L 228.5143,109.43 88,160.5 z"
       id="path30984"
       inkscape:connector-curvature="0"
       sodipodi:nodetypes="ccccccccc" />
    <path
       style="fill:none;stroke:#000000;stroke-width:2;stroke-linecap:butt;stroke-linejoin:miter;stroke-opacity:1;display:inline"
       d="M 150,188.143 88,160.5"
       id="path30762"
       inkscape:connector-curvature="0" />
    <path
       style="fill:none;stroke:#000000;stroke-width:2;stroke-linecap:butt;stroke-linejoin:miter;stroke-opacity:1;display:inline"
       d="m 228.978,115.185 0,31.113"
       id="path30764"
       inkscape:connector-curvature="0" />
    <path
       style="fill:none;stroke:#000000;stroke-width:2;stroke-linecap:butt;stroke-linejoin:miter;stroke-opacity:1;display:inline"
       d="M 150,225 88,195.181 88,160.5 228.5143,109.43 290.671,130.878"
       id="path30778"
       inkscape:connector-curvature="0" />
    <path
       style="fill:none;stroke:#000000;stroke-width:2;stroke-linecap:butt;stroke-linejoin:miter;stroke-opacity:1;display:inline"
       d="M 159.146,184.419 105.317,160.81556 228.978,115.185 282.876,134.051"
       id="path30780"
       inkscape:connector-curvature="0" />
  </g>
  <g
     style="display:inline"
     inkscape:label="箪笥"
     id="g31023"
     inkscape:groupmode="layer"
     sodipodi:insensitive="true">
    <path
       sodipodi:nodetypes="ccccc"
       inkscape:connector-curvature="0"
       id="path31025"
       d="m 311.02366,133.59213 0,35.67294 61.79731,23.3348 0,-37.37673 z"
       style="fill:#a05a2c;stroke:none;display:inline" />
    <path
       sodipodi:nodetypes="ccccc"
       inkscape:connector-curvature="0"
       id="path31027"
       d="m 311.02366,169.26507 0,-35.67294 -141.78481,52.3182 0,39.78959 z"
       style="fill:#784421;stroke:none;display:inline" />
    <path
       sodipodi:nodetypes="ccccc"
       inkscape:connector-curvature="0"
       id="path31029"
       d="m 169.23885,225.69992 141.78481,-56.43485 61.79731,23.3348 -152.35036,66.9018 z"
       style="fill:#c87137;stroke:none;display:inline" />
    <g
       id="g31114">
      <path
         sodipodi:nodetypes="ccccc"
         inkscape:connector-curvature="0"
         id="path31045-5"
         d="m 266.7517,195.06201 c 7.78358,3.11844 26.82584,10.9476 31.93295,10.06371 l 40.10121,-19.48159 c -3.61631,-3.13749 -18.51646,-8.106 -29.07979,-10.0967 z"
         style="opacity:0.5;fill:#000000;stroke:none;display:inline" />
      <path
         sodipodi:nodetypes="cccccc"
         inkscape:connector-curvature="0"
         id="path31045-6"
         d="m 269.45303,194.07103 c 7.78358,3.11844 22.93675,9.445 28.04386,8.56111 l 40.10121,-19.48159 c -3.61631,-3.13749 -17.36741,-8.72472 -27.93074,-10.71542 l -40.4685,17.78728 z"
         style="fill:#800000;stroke:none;display:inline" />
      <path
         sodipodi:nodetypes="cccc"
         inkscape:connector-curvature="0"
         id="path31047-18"
         d="m 297.49773,202.63098 c -5.10689,0.88411 -20.26006,-5.44245 -28.04364,-8.56089 l -0.25507,-3.84738 c 6.80766,2.56187 25.32599,9.15559 28.29871,12.40827 z"
         style="fill:#e6e6e6;stroke:none;display:inline" />
      <path
         sodipodi:nodetypes="cccccc"
         inkscape:connector-curvature="0"
         id="path31045"
         d="m 269.45364,194.07057 c 7.78358,3.11844 22.93675,9.445 28.04386,8.56111 l 40.10121,-19.48159 c -3.61631,-3.13749 -17.36741,-8.72472 -27.93074,-10.71542 l -40.4685,17.78728 z"
         style="fill:none;stroke:#000000;stroke-width:2;stroke-linecap:butt;stroke-linejoin:miter;stroke-opacity:1" />
      <path
         sodipodi:nodetypes="cc"
         inkscape:connector-curvature="0"
         id="path31047"
         d="m 269.19767,190.22444 c 6.80856,2.56062 25.32689,9.15434 28.29939,12.4068"
         style="fill:none;stroke:#000000;stroke-width:2;stroke-linecap:butt;stroke-linejoin:miter;stroke-opacity:1" />
      <path
         sodipodi:nodetypes="ccccc"
         inkscape:connector-curvature="0"
         id="path31090"
         d="m 291.2838,195.85856 c 2.79305,0.99056 4.99875,2.28933 6.31977,3.57973 l 35.77583,-16.65806 c -1.34488,-1.2232 -3.97509,-2.41976 -6.73804,-3.33823 z"
         style="fill:#e6e6e6;stroke:none" />
    </g>
    <path
       inkscape:connector-curvature="0"
       id="path31031"
       d="m 169.23885,225.69992 141.78481,-56.43485 61.79731,23.3348"
       style="fill:none;stroke:#000000;stroke-width:2;stroke-linecap:butt;stroke-linejoin:miter;stroke-opacity:1;display:inline" />
    <path
       style="opacity:0.2;fill:#000000;stroke:none"
       d="m 311.48054,134.38447 12.72792,39.24442 -3.53553,2.12132 -2.47488,-1.41421 -43.13351,18.73833 0,2.82843 -95.81297,39.59798 -8.83883,-49.49748 z"
       id="path31092"
       inkscape:connector-curvature="0" />
    <path
       sodipodi:nodetypes="ccccc"
       inkscape:connector-curvature="0"
       id="path31033"
       d="m 220.47061,217.24289 -71.08675,-31.69437 0,39.76386 71.08675,34.18929 z"
       style="fill:#a05a2c;stroke:none;display:inline" />
    <path
       sodipodi:nodetypes="ccccccccc"
       inkscape:connector-curvature="0"
       id="path31035"
       d="m 220.47061,217.24289 10.48644,-4.26979 -61.7182,-27.06277 141.78481,-52.3182 61.79731,21.63101 8.93744,-3.63803 -71.26641,-24.59143 -161.10814,58.55484 z"
       style="fill:#c87137;stroke:none;display:inline" />
    <path
       inkscape:connector-curvature="0"
       id="path31037"
       d="M 220.47061,217.24289 149.38386,185.54852"
       style="fill:none;stroke:#000000;stroke-width:2;stroke-linecap:butt;stroke-linejoin:miter;stroke-opacity:1;display:inline" />
    <path
       inkscape:connector-curvature="0"
       id="path31039"
       d="m 311.02366,133.59213 0,35.67294"
       style="fill:none;stroke:#000000;stroke-width:2;stroke-linecap:butt;stroke-linejoin:miter;stroke-opacity:1;display:inline" />
    <path
       inkscape:connector-curvature="0"
       id="path31041"
       d="m 220.47061,259.50167 -71.08675,-34.18929 0,-39.76386 161.10814,-58.55484 71.26641,24.59143"
       style="fill:none;stroke:#000000;stroke-width:2;stroke-linecap:butt;stroke-linejoin:miter;stroke-opacity:1;display:inline" />
    <path
       inkscape:connector-curvature="0"
       id="path31043"
       d="m 230.95705,212.9731 -61.7182,-27.06277 141.78481,-52.3182 61.79731,21.63101"
       style="fill:none;stroke:#000000;stroke-width:2;stroke-linecap:butt;stroke-linejoin:miter;stroke-opacity:1;display:inline" />
  </g>
  <g
     inkscape:groupmode="layer"
     id="layer4"
     inkscape:label="字幕"
     style="display:inline"
     sodipodi:insensitive="true">
    <rect
       style="fill:#fefefe;fill-opacity:1;stroke:#000000;stroke-width:1.99978888"
       id="rect13841"
       width="348.00021"
       height="98.000214"
       x="10.99989"
       y="210.99992"
       ry="10.818201" />
    <rect
       style="fill:#000080;fill-opacity:1;stroke:#000000;stroke-width:1.85426915"
       id="rect13841-0"
       width="338.14572"
       height="88.145729"
       x="15.927135"
       y="215.92714"
       ry="6.486125" />
    <text
       xml:space="preserve"
       style="font-size:28px;font-style:normal;font-variant:normal;font-weight:normal;font-stretch:normal;line-height:125%;letter-spacing:0px;word-spacing:0px;writing-mode:lr-tb;fill:#fefefe;fill-opacity:1;stroke:none;font-family:MS UI Gothic;-inkscape-font-specification:MS UI Gothic"
       x="37.107948"
       y="270.23175"
       id="text6768"
       sodipodi:linespacing="125%"><tspan
         sodipodi:role="line"
         x="37.107948"
         y="270.23175"
         style="font-size:28px;font-style:normal;font-variant:normal;font-weight:normal;font-stretch:normal;fill:#fefefe;fill-opacity:1;font-family:MS UI Gothic;-inkscape-font-specification:MS UI Gothic"
         id="tspan3151">秘宝 を 見つけた!</tspan></text>
    <text
       xml:space="preserve"
       style="font-size:28px;font-style:normal;font-variant:normal;font-weight:normal;font-stretch:normal;line-height:125%;letter-spacing:0px;word-spacing:0px;writing-mode:lr-tb;fill:#fefefe;fill-opacity:1;stroke:none;font-family:MS UI Gothic;-inkscape-font-specification:MS UI Gothic"
       x="25.641621"
       y="290.3801"
       id="text6768-1"
       sodipodi:linespacing="125%"><tspan
         sodipodi:role="line"
         x="25.641621"
         y="290.3801"
         style="font-size:28px;font-style:normal;font-variant:normal;font-weight:normal;font-stretch:normal;fill:#fefefe;fill-opacity:1;font-family:MS UI Gothic;-inkscape-font-specification:MS UI Gothic"
         id="tspan3151-4" /></text>
  </g>
  <g
     inkscape:groupmode="layer"
     id="layer2"
     inkscape:label="枠面"
     sodipodi:insensitive="true">
    <path
       style="fill:#ffffff;stroke:none;display:inline"
       d="m 0,0 0,320 370,0 0,-320 -10,10 0,300 -350,0 0,-300 350,0 10,-10 z"
       id="path21072"
       inkscape:connector-curvature="0"
       sodipodi:nodetypes="ccccccccccc" />
  </g>
</svg>
