<?xml version="1.0" encoding="UTF-8" standalone="no"?>
<!-- Created with Inkscape (http://www.inkscape.org/) -->

<svg
   xmlns:dc="http://purl.org/dc/elements/1.1/"
   xmlns:cc="http://creativecommons.org/ns#"
   xmlns:rdf="http://www.w3.org/1999/02/22-rdf-syntax-ns#"
   xmlns:svg="http://www.w3.org/2000/svg"
   xmlns="http://www.w3.org/2000/svg"
   xmlns:sodipodi="http://sodipodi.sourceforge.net/DTD/sodipodi-0.dtd"
   xmlns:inkscape="http://www.inkscape.org/namespaces/inkscape"
   width="240"
   height="240"
   id="svg2"
   version="1.1"
   inkscape:version="0.48.4 r9939"
   sodipodi:docname="[00.規格.メイン].svg"
   inkscape:export-filename="C:\Users\執安\Desktop\資料\臨時\BUTING\[00]メイン.png"
   inkscape:export-xdpi="90"
   inkscape:export-ydpi="90">
  <defs
     id="defs4">
    <filter
       color-interpolation-filters="sRGB"
       inkscape:collect="always"
       id="filter6946-6">
      <feGaussianBlur
         inkscape:collect="always"
         stdDeviation="5.2807197"
         id="feGaussianBlur6948-8" />
    </filter>
    <filter
       color-interpolation-filters="sRGB"
       inkscape:collect="always"
       id="filter5678-82">
      <feGaussianBlur
         inkscape:collect="always"
         stdDeviation="3.5672049"
         id="feGaussianBlur5680-7" />
    </filter>
    <filter
       color-interpolation-filters="sRGB"
       inkscape:collect="always"
       id="filter6867-7">
      <feGaussianBlur
         inkscape:collect="always"
         stdDeviation="1.843988"
         id="feGaussianBlur6869-1" />
    </filter>
    <filter
       color-interpolation-filters="sRGB"
       inkscape:collect="always"
       id="filter6974-2">
      <feGaussianBlur
         inkscape:collect="always"
         stdDeviation="4.6104745"
         id="feGaussianBlur6976-6" />
    </filter>
    <filter
       color-interpolation-filters="sRGB"
       inkscape:collect="always"
       id="filter5678-8-0">
      <feGaussianBlur
         inkscape:collect="always"
         stdDeviation="3.5672049"
         id="feGaussianBlur5680-5-4" />
    </filter>
  </defs>
  <sodipodi:namedview
     id="base"
     pagecolor="#ffffff"
     bordercolor="#666666"
     borderopacity="1.0"
     inkscape:pageopacity="0.0"
     inkscape:pageshadow="2"
     inkscape:zoom="1.6685413"
     inkscape:cx="193.37219"
     inkscape:cy="145.88979"
     inkscape:document-units="px"
     inkscape:current-layer="layer3"
     showgrid="false"
     inkscape:window-width="1105"
     inkscape:window-height="699"
     inkscape:window-x="-6"
     inkscape:window-y="-6"
     inkscape:window-maximized="0" />
  <metadata
     id="metadata7">
    <rdf:RDF>
      <cc:Work
         rdf:about="">
        <dc:format>image/svg+xml</dc:format>
        <dc:type
           rdf:resource="http://purl.org/dc/dcmitype/StillImage" />
        <dc:title></dc:title>
      </cc:Work>
    </rdf:RDF>
  </metadata>
  <g
     inkscape:groupmode="layer"
     id="layer2"
     inkscape:label="補助線"
     sodipodi:insensitive="true"
     style="display:none">
    <path
       style="fill:none;stroke:#0000ff;stroke-width:1px;stroke-linecap:butt;stroke-linejoin:miter;stroke-opacity:1;display:inline;enable-background:new"
       d="M 10,230 230,10"
       id="path3025"
       inkscape:connector-curvature="0"
       sodipodi:nodetypes="cc" />
    <path
       style="fill:none;stroke:#0000ff;stroke-width:1px;stroke-linecap:butt;stroke-linejoin:miter;stroke-opacity:1;display:inline;enable-background:new"
       d="M 10,10 230,230"
       id="path3027"
       inkscape:connector-curvature="0"
       sodipodi:nodetypes="cc" />
    <path
       style="fill:none;stroke:#ff0000;stroke-width:1px;stroke-linecap:butt;stroke-linejoin:miter;stroke-opacity:1;display:inline;enable-background:new"
       d="m 10,0 0,240"
       id="path3006"
       inkscape:connector-curvature="0"
       sodipodi:nodetypes="cc" />
    <path
       style="fill:none;stroke:#ff0000;stroke-width:1px;stroke-linecap:butt;stroke-linejoin:miter;stroke-opacity:1;display:inline;enable-background:new"
       d="m 230,0 0,240"
       id="path3010"
       inkscape:connector-curvature="0"
       sodipodi:nodetypes="cc" />
    <path
       style="fill:none;stroke:#ff0000;stroke-width:1px;stroke-linecap:butt;stroke-linejoin:miter;stroke-opacity:1;display:inline;enable-background:new"
       d="m 0,10 240,0"
       id="path3016"
       inkscape:connector-curvature="0"
       sodipodi:nodetypes="cc" />
    <path
       style="fill:none;stroke:#ff0000;stroke-width:1px;stroke-linecap:butt;stroke-linejoin:miter;stroke-opacity:1;display:inline;enable-background:new"
       d="m 0,230 240,0"
       id="path3018"
       inkscape:connector-curvature="0"
       sodipodi:nodetypes="cc" />
  </g>
  <g
     inkscape:groupmode="layer"
     id="layer3"
     inkscape:label="豚"
     sodipodi:insensitive="true">
    <g
       style="stroke-width:3.09198642;display:inline"
       transform="matrix(0.64683336,0,0,0.64683336,-13.312553,46.414818)"
       id="g23749">
      <g
         style="stroke-width:3.88474321"
         transform="matrix(0.79593071,0,0,0.79593071,-39.041784,40.514553)"
         id="g3405">
        <path
           style="fill:#ffd5d5;stroke:#000000;stroke-width:3.88474321;stroke-linecap:butt;stroke-linejoin:miter;stroke-opacity:1;display:inline"
           d="m 199.96236,164.68302 0.52986,32.32492 c 12.78201,38.19651 1.4365,61.37393 -21.96567,82.23125 -20.51603,18.28501 -82.696497,32.09754 -112.05526,27.30285 -8.704674,-1.4216 -16.153656,-8.28433 -6.945443,-16.93122 L 45.596421,174.44186"
           id="path3132"
           inkscape:connector-curvature="0"
           sodipodi:nodetypes="ccsscc" />
        <path
           style="fill:#ffd5d5;stroke:#000000;stroke-width:3.88474321;stroke-linecap:butt;stroke-linejoin:miter;stroke-opacity:1;display:inline"
           d="m 164.00744,275.3624 c 18.73377,5.04777 28.61158,23.31017 1.88027,27.70294 -30.9081,5.07914 -91.029873,5.89624 -115.646299,-20.54358 -24.23263,-26.0276 -21.029781,-77.92254 -4.918463,-107.08338"
           id="path3386"
           inkscape:connector-curvature="0"
           sodipodi:nodetypes="cssc" />
      </g>
      <g
         style="stroke-width:3.88474321"
         transform="matrix(0.79593071,0,0,0.79593071,-39.041784,40.514553)"
         id="g3388">
        <path
           style="fill:#ffd5d5;stroke:none;display:inline"
           d="m 187.20731,174.00176 c -12.21976,1.32129 -37.17387,15.56649 -34.93824,27.18986 0.71687,3.72711 6.53291,3.29647 6.53291,3.29647 4.6059,4.28179 0.80336,7.21019 4.03689,10.58161 8.49713,8.85947 34.35419,10.76537 43.63635,3.22256 14.7137,-11.95653 17.14566,-40.72581 -8.14649,-62.67643"
           id="path3169-1-8"
           inkscape:connector-curvature="0"
           sodipodi:nodetypes="cscssc" />
        <path
           style="fill:#ffaaaa;stroke:none;display:inline"
           d="m 158.79808,204.41405 c 4.6059,4.28179 1.07354,6.97041 4.03689,10.58161 3.04035,3.70502 10.37799,6.5175 14.75977,6.84594 18.51329,-0.97425 -1.77432,-44.21064 -13.62911,-38.06633 -2.82257,1.5372 -13.09147,9.5643 -11.70046,17.34231 0.66817,3.73615 6.53291,3.29647 6.53291,3.29647 z"
           id="path8517-7-3"
           inkscape:connector-curvature="0"
           sodipodi:nodetypes="csccsc" />
        <path
           style="fill:#ff8080;stroke:none;display:inline"
           d="m 158.83596,204.60896 c 0,0 2.6034,0.38999 5.40121,1.86609 5.0171,2.64697 2.48311,10.52441 -1.09573,8.82582 -3.50212,-3.48172 0.30042,-6.41012 -4.30548,-10.69191 z"
           id="path8517-7-1"
           inkscape:connector-curvature="0"
           sodipodi:nodetypes="cscc" />
        <path
           style="fill:none;stroke:#000000;stroke-width:3.88474321;stroke-linecap:butt;stroke-linejoin:miter;stroke-opacity:1;display:inline"
           d="m 187.19185,174.04959 c -12.21976,1.32129 -37.17387,15.56649 -34.93824,27.18986 0.71687,3.72711 7.00023,2.52271 11.93412,5.16256 5.00164,2.67607 2.36713,10.67353 -0.94312,9.08525"
           id="path3169-1"
           inkscape:connector-curvature="0"
           sodipodi:nodetypes="cssc" />
        <path
           style="fill:none;stroke:#000000;stroke-width:3.88474321;stroke-linecap:butt;stroke-linejoin:miter;stroke-opacity:1;display:inline"
           d="m 158.78652,204.53592 c 4.6059,4.28179 0.80336,7.21019 4.03689,10.58161 8.49713,8.85947 34.35419,10.76537 43.63635,3.22256 14.7137,-11.95653 17.14566,-40.72581 -8.14649,-62.67643"
           id="path8517-7"
           inkscape:connector-curvature="0"
           sodipodi:nodetypes="cssc" />
        <path
           sodipodi:nodetypes="cc"
           inkscape:connector-curvature="0"
           id="path8521-4"
           d="m 163.95407,183.89714 c 11.85479,-6.14431 32.14239,37.09208 13.62911,38.06633"
           style="fill:none;stroke:#000000;stroke-width:3.88474321;stroke-linecap:butt;stroke-linejoin:miter;stroke-opacity:1;display:inline" />
        <path
           style="fill:#ffd5d5;stroke:#000000;stroke-width:3.88474321;stroke-linecap:butt;stroke-linejoin:miter;stroke-opacity:1;display:inline"
           d="M 45.71208,177.39872 161.61591,89.513317 c 20.35687,2.91144 31.68502,23.764913 26.9593,37.994873 l 2.3586,43.96686"
           id="path8489"
           inkscape:connector-curvature="0"
           sodipodi:nodetypes="cccc" />
        <path
           style="fill:#ffd5d5;stroke:#000000;stroke-width:3.88474321;stroke-linecap:butt;stroke-linejoin:miter;stroke-opacity:1;display:inline"
           d="M 45.322948,182.93673 C 39.721135,167.52448 45.236346,141.44769 69.560543,108.54369 97.10012,71.290165 150.18162,72.257696 172.14854,99.659867"
           id="path8505"
           inkscape:connector-curvature="0"
           sodipodi:nodetypes="csc" />
        <path
           style="fill:#ffd5d5;stroke:#000000;stroke-width:3.88474321;stroke-linecap:butt;stroke-linejoin:miter;stroke-opacity:1;display:inline"
           d="m 186.02866,122.52655 c 15.2635,16.07835 15.76008,41.03531 2.93756,56.47006"
           id="path8491"
           inkscape:connector-curvature="0"
           sodipodi:nodetypes="cc" />
        <path
           style="fill:none;stroke:#000000;stroke-width:3.88474321;stroke-linecap:butt;stroke-linejoin:miter;stroke-opacity:1;display:inline"
           d="m 172.6981,117.47049 -0.71268,9.85497"
           id="path8493"
           inkscape:connector-curvature="0"
           sodipodi:nodetypes="cc" />
        <path
           style="fill:none;stroke:#000000;stroke-width:3.88474321;stroke-linecap:butt;stroke-linejoin:miter;stroke-opacity:1;display:inline"
           d="m 145.94693,124.3447 9.58664,7.57031"
           id="path8495"
           inkscape:connector-curvature="0"
           sodipodi:nodetypes="cc" />
        <path
           style="fill:#ffaaaa;stroke:#000000;stroke-width:3.88474321;stroke-linecap:butt;stroke-linejoin:miter;stroke-opacity:1;display:inline"
           d="m 172.9177,132.87592 c -11.18172,1.53496 -20.98888,14.56634 -27.00578,25.55138 -6.19371,11.30784 -5.58148,24.41912 8.52243,19.65962 9.0111,-3.04088 17.14446,-5.41446 23.41082,-6.02477 6.92391,-0.67435 9.86071,-10.75516 8.9018,-20.18857 -1.0635,-10.46237 -4.67945,-20.2537 -13.82927,-18.99766 z"
           id="path8497"
           inkscape:connector-curvature="0"
           sodipodi:nodetypes="ssssss" />
        <path
           sodipodi:nodetypes="sss"
           inkscape:connector-curvature="0"
           id="path8513"
           d="m 156.82788,166.98293 c 1.95991,3.52854 12.713,-21.9763 10.37291,-22.20946 -2.02324,-0.20159 -14.27769,15.17946 -10.37291,22.20946 z"
           style="fill:#000000;stroke:#000000;stroke-width:3.88474321;stroke-linecap:butt;stroke-linejoin:miter;stroke-opacity:1;display:inline" />
        <path
           sodipodi:nodetypes="sss"
           inkscape:connector-curvature="0"
           id="path8515"
           d="m 175.6242,142.63032 c -1.26883,-0.64428 -2.5063,24.42394 -0.18096,21.87645 3.99945,-4.38151 3.19561,-20.3457 0.18096,-21.87645 z"
           style="fill:#000000;stroke:#000000;stroke-width:3.88474321;stroke-linecap:butt;stroke-linejoin:miter;stroke-opacity:1;display:inline" />
        <path
           style="fill:#ffd5d5;stroke:#000000;stroke-width:3.88474321;stroke-linecap:butt;stroke-linejoin:miter;stroke-opacity:1;display:inline"
           d="M 93.463208,93.949096 C 55.052312,100.81488 55.539472,149.02561 72.201761,161.28793 80.207135,167.17935 97.686828,141.1273 109.76608,127.97105"
           id="path8499"
           inkscape:connector-curvature="0"
           sodipodi:nodetypes="csc" />
      </g>
      <g
         transform="translate(-15.25,-30.25)"
         id="g22103"
         style="stroke-width:3.09198642">
        <path
           sodipodi:nodetypes="csssssssccssscscsccsscssccsscsssscc"
           inkscape:connector-curvature="0"
           id="path3606-1"
           d="m 80.272368,209.69715 1.279919,-3.86128 c 0.262479,-0.7903 0.02227,-1.20983 -0.407424,-1.57288 -1.833772,-1.54921 -3.807829,-2.59939 -5.611049,-3.09738 -1.803221,-0.498 -2.871397,-0.1616 -3.064747,0.4824 l -1.099629,3.66227 c -0.20271,0.6752 0.429203,1.85649 1.068754,2.15307 l 5.775482,2.6785 c 0.596796,0.27685 1.812715,0.41907 2.067166,-0.45905 l 2.510212,-1.8287 c -0.237253,0.80357 1.03352,1.55348 1.643203,1.87463 l 11.869417,6.25257 c 1.456785,0.76741 1.300413,2.12714 0.720939,3.83594 l -0.818534,2.4139 -2.202562,6.49542 c -0.65506,1.93059 -2.300252,2.76696 -4.064807,1.6984 L 69.668971,217.50752 c -1.999655,-1.27433 -4.443996,-1.07074 -7.018068,-0.64058 l -0.436698,1.46477 -9.203298,-3.38094 c -0.906509,-0.33299 -1.385161,-1.77039 -1.072589,-2.8613 l 10.991288,-38.35993 1.38623,-4.16485 c 0.447945,-1.34518 2.238303,-1.69522 3.898766,-1.08235 l 8.780618,3.43614 -0.30727,0.89678 2.585087,1.31661 c 0.528469,0.2691 1.393378,0.75625 1.19158,1.4078 l -1.245089,4.01984 -4.323181,13.95764 c -0.12312,0.3976 0.391193,1.95201 1.202651,2.32828 2.425972,1.12489 6.658921,3.42211 7.740417,4.52363 0.505558,0.51491 0.930236,1.45465 0.587629,2.36429 l -1.630641,5.11307 z"
           style="fill:#483737;stroke:none;display:inline" />
        <path
           sodipodi:nodetypes="csccccsscsscc"
           inkscape:connector-curvature="0"
           id="path4600"
           d="m 62.855294,173.56646 c -0.449347,1.36688 0.669927,2.45586 2.453558,3.05445 l 8.714105,2.92434 m 0.465743,-1.27968 -0.460941,1.31079 -11.912647,38.63554 -9.203306,-3.38094 c -0.9065,-0.33298 -1.385153,-1.77039 -1.07258,-2.86128 l 10.991286,-38.35994 1.386232,-4.16485 c 0.447943,-1.34516 2.23831,-1.69521 3.898774,-1.08234 l 8.78061,3.43613 -0.307272,0.8968"
           style="fill:none;stroke:#000000;stroke-width:3.09198642;stroke-linecap:butt;stroke-linejoin:miter;stroke-opacity:1;display:inline" />
        <path
           transform="matrix(0.2242575,-0.67093742,0.67093742,0.2242575,-66.564038,257.37961)"
           d="m 176.04199,145.59702 a 2.3674612,3.9876223 0 1 1 -4.73492,0 2.3674612,3.9876223 0 1 1 4.73492,0 z"
           sodipodi:ry="3.9876223"
           sodipodi:rx="2.3674612"
           sodipodi:cy="145.59702"
           sodipodi:cx="173.67453"
           id="path4602"
           style="fill:#000000;fill-opacity:1;stroke:#000000;stroke-width:4.3707695;stroke-miterlimit:4;stroke-dasharray:none;stroke-dashoffset:0;display:inline"
           sodipodi:type="arc" />
        <path
           sodipodi:nodetypes="sssssssss"
           inkscape:connector-curvature="0"
           id="path3594"
           d="m 67.531662,169.72495 11.6421,4.2871 c 0.556507,0.20499 1.414942,0.76333 1.191589,1.40781 l -1.170223,3.37684 c -0.166557,0.48081 -0.905955,0.72118 -1.754531,0.41259 l -11.971798,-4.35382 c -0.768821,-0.27961 -1.247744,-0.97738 -1.019199,-1.6671 l 0.890071,-2.68542 c 0.288878,-0.87177 1.034764,-1.20415 2.19222,-0.77792 z"
           style="fill:none;stroke:#000000;stroke-width:3.09198642;stroke-linecap:butt;stroke-linejoin:miter;stroke-opacity:1;display:inline" />
        <path
           sodipodi:nodetypes="csssc"
           inkscape:connector-curvature="0"
           id="path3598"
           d="m 75.079109,192.49595 c -0.310479,1.31662 0.109157,2.85341 0.920615,3.22967 2.425971,1.12488 6.658913,3.4221 7.740408,4.52362 0.505559,0.51491 0.873986,1.43541 0.587644,2.36429 l -0.82416,2.67323"
           style="fill:none;stroke:#000000;stroke-width:3.09198642;stroke-linecap:butt;stroke-linejoin:miter;stroke-opacity:1;display:inline" />
        <path
           sodipodi:nodetypes="csssssssssssc"
           inkscape:connector-curvature="0"
           id="path3600"
           d="m 62.551819,216.7472 c 2.574072,-0.43017 5.018405,-0.63376 7.018068,0.64058 l 20.269736,12.91744 c 1.501911,0.95714 3.164727,0.75284 3.784861,-1.02536 l 2.6694,-7.65429 c 0.432167,-1.23921 -0.410706,-2.3716 -1.538024,-2.97177 l -11.898033,-6.33436 c -0.71353,-0.37988 -1.186008,-0.96886 -0.999379,-1.58585 l 1.636657,-5.41084 c 0.293132,-0.96926 -0.02996,-1.59464 -0.743035,-2.20368 -2.067799,-1.76608 -5.099746,-3.15718 -7.917791,-4.45967 -1.018645,-0.47081 -0.914323,-2.38133 -0.319253,-4.36067 l 4.595028,-15.28394"
           style="fill:none;stroke:#000000;stroke-width:3.09198642;stroke-linecap:butt;stroke-linejoin:miter;stroke-opacity:1;display:inline" />
        <path
           sodipodi:nodetypes="csssc"
           inkscape:connector-curvature="0"
           id="path3602"
           d="m 82.77877,207.85983 c 0.225113,0.80707 0.946806,1.42802 1.556481,1.74917 l 11.869432,6.25259 c 1.456778,0.76741 1.283707,2.12156 0.720939,3.83593 l -0.707102,2.15402"
           style="fill:none;stroke:#000000;stroke-width:3.09198642;stroke-linecap:butt;stroke-linejoin:miter;stroke-opacity:1;display:inline" />
        <path
           sodipodi:nodetypes="sssssssss"
           inkscape:connector-curvature="0"
           id="path3606"
           d="m 81.523908,205.85767 c 0.260974,-0.79078 -0.04834,-1.35136 -0.478051,-1.71441 -1.833762,-1.5492 -3.80782,-2.59938 -5.61104,-3.09738 -1.803222,-0.49797 -2.871397,-0.16158 -3.064747,0.48238 l -1.099629,3.6623 c -0.202702,0.67521 0.429194,1.8565 1.068753,2.15309 l 5.775482,2.67847 c 0.596798,0.27685 1.914748,0.36741 2.138974,-0.31253 z"
           style="fill:none;stroke:#000000;stroke-width:3.09198642;stroke-linecap:butt;stroke-linejoin:miter;stroke-opacity:1;display:inline" />
        <path
           sodipodi:nodetypes="csc"
           inkscape:connector-curvature="0"
           id="path3103"
           d="m 52.922299,208.18751 c -0.225652,0.6926 0.141244,1.26769 1.105335,1.84884 l 5.870445,3.53878"
           style="fill:none;stroke:#000000;stroke-width:3.09198642;stroke-linecap:butt;stroke-linejoin:miter;stroke-opacity:1;display:inline" />
        <path
           sodipodi:nodetypes="csc"
           inkscape:connector-curvature="0"
           id="path3103-1"
           d="m 53.469446,206.32488 c -0.225651,0.69261 0.141246,1.26767 1.105343,1.84884 l 5.870437,3.53877"
           style="fill:none;stroke:#000000;stroke-width:3.09198642;stroke-linecap:butt;stroke-linejoin:miter;stroke-opacity:1;display:inline" />
        <path
           sodipodi:nodetypes="csc"
           inkscape:connector-curvature="0"
           id="path3103-7"
           d="m 54.006989,204.45707 c -0.225652,0.69261 0.141245,1.26768 1.105343,1.84885 l 5.870446,3.53878"
           style="fill:none;stroke:#000000;stroke-width:3.09198642;stroke-linecap:butt;stroke-linejoin:miter;stroke-opacity:1;display:inline" />
        <path
           sodipodi:nodetypes="csc"
           inkscape:connector-curvature="0"
           id="path3103-1-4"
           d="m 54.554145,202.59444 c -0.225652,0.69261 0.141245,1.26768 1.105335,1.84885 l 5.870445,3.53877"
           style="fill:none;stroke:#000000;stroke-width:3.09198642;stroke-linecap:butt;stroke-linejoin:miter;stroke-opacity:1;display:inline" />
      </g>
      <g
         style="stroke-width:3.88474321"
         transform="matrix(0.79593071,0,0,0.79593071,-39.041784,40.514553)"
         id="g3376">
        <path
           style="fill:#ffd5d5;stroke:none;display:inline"
           d="m 88.724361,208.58601 c 7.497129,-14.1047 29.183389,-46.36258 40.175199,-41.97159 3.52459,1.40799 3.14346,5.74283 3.14346,5.74283 4.80007,9.62247 8.19153,4.90281 11.99215,7.61898 6.78456,4.84869 5.72642,41.64707 5.51305,46.27798"
           id="path3169-0"
           inkscape:connector-curvature="0"
           sodipodi:nodetypes="cscsc" />
        <path
           sodipodi:nodetypes="ssccss"
           inkscape:connector-curvature="0"
           id="path8521-14"
           d="m 132.03912,172.28321 c 3.94598,9.47909 8.72007,5.87315 11.99215,7.61898 2.48327,1.32495 5.16269,13.22559 4.82078,16.09265 -4.45379,17.99596 -43.0984,-10.59767 -36.04387,-21.17213 1.59473,-2.85852 10.71389,-10.72151 16.08748,-8.28233 2.05116,0.93106 2.54938,4.31573 3.14346,5.74283 z"
           style="fill:#ffaaaa;stroke:none;display:inline" />
        <path
           style="fill:#ff8080;stroke:none;display:inline"
           d="m 132.077,172.47812 c 0.22923,1.85898 0.54482,4.37289 1.42542,6.55511 2.0463,5.07095 12.50242,5.48915 11.06738,1.50117 -3.70478,-3.61741 -7.65959,1.79816 -12.4928,-8.05628 z"
           id="path8517-5"
           inkscape:connector-curvature="0"
           sodipodi:nodetypes="cscc" />
        <path
           style="fill:none;stroke:#000000;stroke-width:3.88474321;stroke-linecap:butt;stroke-linejoin:miter;stroke-opacity:1;display:inline"
           d="m 88.708895,208.63384 c 7.497129,-14.1047 29.183395,-46.36257 40.175205,-41.97159 3.52459,1.408 2.90856,6.95422 4.56888,12.29794 1.68312,5.41709 12.50242,5.48915 11.56803,1.93848"
           id="path3169"
           inkscape:connector-curvature="0"
           sodipodi:nodetypes="cssc" />
        <path
           style="fill:none;stroke:#000000;stroke-width:3.88474321;stroke-linecap:butt;stroke-linejoin:miter;stroke-opacity:1;display:inline"
           d="m 132.02756,172.40508 c 4.80007,9.62247 8.19153,4.90281 11.99215,7.61898 6.78456,4.84869 5.72642,41.64707 5.51305,46.27798"
           id="path8517"
           inkscape:connector-curvature="0"
           sodipodi:nodetypes="csc" />
        <path
           sodipodi:nodetypes="cc"
           inkscape:connector-curvature="0"
           id="path8521"
           d="m 112.93721,174.66339 c -8.27301,10.48073 31.44949,39.44928 35.90328,21.45332"
           style="fill:none;stroke:#000000;stroke-width:3.88474321;stroke-linecap:butt;stroke-linejoin:miter;stroke-opacity:1;display:inline" />
      </g>
    </g>
    <g
       transform="matrix(0.64683336,0,0,0.64683336,1.1624779,14.726342)"
       style="stroke-width:3.09198642;display:inline"
       id="g6822">
      <path
         sodipodi:nodetypes="cssscccccccccc"
         inkscape:connector-curvature="0"
         id="path4499-4-9"
         d="m 282.49437,235.38664 c 6.8405,-6.43675 15.70558,-6.6113 23.59968,-7.45867 42.76063,-4.59003 93.1507,-3.50153 136.05303,-1.95529 14.33382,0.5166 23.71421,4.05462 27.37397,11.73171 6.19655,12.99855 10.22245,24.21971 13.33147,35.01739 L 265.7048,276.2201 c 1.63459,-12.76792 9.5848,-34.05394 16.78957,-40.83346 l 2.14082,-21.68199 -59.39457,24.53806 -3.09997,82.9749 282.36665,-5.48272 24.54413,-102.87535 -244.26739,0.59277 z"
         style="fill:#1a1a1a;stroke:#000000;stroke-width:3.09198642;stroke-linecap:butt;stroke-linejoin:miter;stroke-opacity:1" />
      <path
         sodipodi:nodetypes="ccccccsccc"
         inkscape:connector-curvature="0"
         id="path4634-2"
         d="m 195.51049,290.14606 c 20.24108,-23.70311 44.51952,-84.62756 104.73915,-89.75242 l 2.441,0.0656 c 72.20337,-7.29285 147.45613,-5.17667 196.08296,0.0706 l 1.9317,-0.25623 c 57.20466,-4.82552 101.5227,67.01655 118.54752,90.7113 2.50629,3.48833 8.08693,10.29045 13.76001,12.57325 17.25861,6.94478 41.85554,22.84887 47.69764,37.42588 L 208.9822,363.97945 z"
         style="fill:#fefefe;fill-opacity:1;stroke:none" />
      <path
         sodipodi:nodetypes="ccscc"
         style="opacity:0.8;fill:#37483e;fill-opacity:1;stroke:none"
         d="m 614.9214,294.35298 c -117.31287,-6.75253 -250.32487,-0.30095 -293.03094,1.65186 -9.53635,-3.53774 -12.7864,-12.98995 -12.1196,-27.54911 0.69899,-15.26314 3.51296,-38.35701 3.32957,-49.74829 76.93355,-5.08244 159.32206,-5.77288 233.7408,-0.71178"
         id="path7036-8-3-1"
         inkscape:connector-curvature="0" />
      <path
         sodipodi:nodetypes="ccccsccscccccccc"
         inkscape:connector-curvature="0"
         id="path7038-0-7-9-5"
         d="m 282.77239,214.18105 -1.12692,-4.40065 c -25.55858,-0.97669 -56.6202,46.07946 -72.32577,80.12639 26.85797,5.90048 52.81929,13.26573 77.18547,23.23655 1.10041,-29.88236 7.41727,-66.45261 10.81287,-87.15254 1.60631,-9.79234 -2.9692,-15.72496 -15.67257,-16.2104 l 1.12692,4.40065 c 3.87103,0.27125 10.38608,2.66664 11.84365,10.01486 2.04461,10.30758 -6.87234,53.09863 -8.55045,83.15879 -13.98352,-5.22066 -30.24868,-10.35834 -35.35822,-11.88014 7.72951,-27.07282 17.56367,-57.24699 32.06502,-81.29351 l -4.03847,-0.0885 c -15.12351,23.24661 -25.36259,52.93014 -33.09211,80.00296 -9.8691,-2.7722 -20.1045,-5.15698 -30.23842,-7.45837 22.11715,-49.37577 49.69959,-73.80606 63.33053,-72.54459 z"
         style="fill:#4d4d4d;stroke:none" />
      <path
         sodipodi:nodetypes="scccs"
         inkscape:connector-curvature="0"
         id="path3465-8-0"
         d="m 616.50491,291.93523 c -12.78449,-18.91467 -39.95477,-57.92108 -67.67749,-75.92522 l -1.87632,0.10972 c 17.07435,10.95999 50.37213,49.84541 68.08568,78.22068 1.06974,0.0471 2.75242,-0.50518 1.46813,-2.40518 z"
         style="fill:#333333;stroke:none" />
      <path
         sodipodi:nodetypes="cscccc"
         inkscape:connector-curvature="0"
         id="path7038-9-1-6-8-6-9"
         d="m 546.85144,217.94854 c 22.00974,17.08517 40.07887,43.97117 54.19942,64.45483 1.83764,2.66574 4.67903,6.9803 7.15207,11.61421 l 6.75928,0.31237 c -17.74555,-28.02488 -51.00366,-67.30673 -68.00469,-78.21803 z"
         style="fill:#666666;stroke:none" />
      <path
         sodipodi:nodetypes="scccs"
         inkscape:connector-curvature="0"
         id="path3463-50-4"
         d="m 301.52935,291.7765 c -1.06004,-29.68645 6.13081,-65.84195 6.66844,-74.77907 l 3.48975,-0.0101 c -2.75406,20.43372 -8.04597,55.49298 -3.94908,79.62369 -1.64382,0.29824 -6.09072,-1.51933 -6.20911,-4.83451 z"
         style="fill:#333333;stroke:none" />
      <path
         sodipodi:nodetypes="cccscc"
         id="path3463-5-2-7"
         d="m 311.7415,217.02132 c -2.56552,20.93647 -7.9625,54.80798 -4.04336,79.56081 3.34093,0.17041 14.17422,-0.57241 14.17422,-0.57241 -9.77046,-4.54173 -12.85861,-13.03441 -12.19182,-27.59358 0.699,-15.26313 3.52216,-37.86881 3.41275,-49.6298 z"
         style="fill:#666666;stroke:none"
         inkscape:connector-curvature="0" />
      <path
         inkscape:connector-curvature="0"
         id="path4630-8"
         d="m 195.49836,290.16324 c 20.24108,-23.7031 44.51953,-84.62755 104.73915,-89.7524 l 2.441,0.0655 c 72.20337,-7.29284 147.45613,-5.17665 196.08298,0.0707 l 1.93172,-0.25622 c 57.20465,-4.82554 101.52269,67.01654 118.54751,90.71128 2.50629,3.48832 8.08694,10.29045 13.76001,12.57325 17.25861,6.94477 41.85553,22.84888 47.69764,37.42588"
         style="fill:none;stroke:#000000;stroke-width:3.09198642;stroke-linecap:butt;stroke-linejoin:miter;stroke-opacity:1" />
      <path
         sodipodi:nodetypes="ccccccc"
         inkscape:connector-curvature="0"
         id="path3319-3-8-9-4"
         d="m 330.15417,184.84219 -1.634,16.59115 9.30113,1.25691 6.03312,-0.25138 -0.75413,-18.09943 -9.30109,0 z"
         style="fill:#e6e6e6;stroke:none" />
      <path
         sodipodi:nodetypes="ccccc"
         inkscape:connector-curvature="0"
         id="path3319-3-8-9"
         d="m 333.80172,184.34241 -3.64503,0.50275 -1.634,16.59115 9.67819,1.13122 z"
         style="fill:#b3b3b3;stroke:none" />
      <path
         inkscape:connector-curvature="0"
         id="path7036-8-3"
         d="m 300.23751,200.41084 c 5.74937,1.0321 8.30275,7.02302 8.17839,12.78819 -0.272,12.61094 -8.35974,48.06901 -6.83944,78.58695 0.13997,2.80994 3.67045,4.95331 6.26072,4.83658 108.11242,-4.87241 195.31491,-7.57274 307.08134,-2.27081 1.10168,0.0522 2.82427,-0.51922 1.54458,-2.42224 -19.79905,-29.4423 -64.42199,-95.49029 -117.70193,-91.37869"
         style="fill:none;stroke:#000000;stroke-width:3.09198642;stroke-linecap:butt;stroke-linejoin:miter;stroke-opacity:1" />
      <path
         sodipodi:nodetypes="cscsc"
         inkscape:connector-curvature="0"
         id="path7038-6-5"
         d="m 302.69483,200.48106 c 4.17458,-0.21638 10.89666,3.05496 8.8133,18.53701 -2.74975,20.43427 -7.81946,53.47157 -3.77419,77.60008 -2.13611,5.67127 -1.60066,8.83802 2.63516,11.32933 11.2815,6.63519 30.77706,21.7264 36.021,32.51986"
         style="fill:none;stroke:#000000;stroke-width:3.09198642;stroke-linecap:butt;stroke-linejoin:miter;stroke-opacity:1" />
      <path
         sodipodi:nodetypes="cscsc"
         inkscape:connector-curvature="0"
         id="path7038-4-0-1"
         d="m 498.78199,200.55559 c 11.33899,-0.71912 30.0008,3.7854 48.61794,15.86612 16.71226,10.84463 49.83705,49.91541 67.58261,77.94032 3.48724,4.56741 10.62236,11.19189 18.86418,13.7473 10.1016,3.13207 26.49365,8.35165 35.32784,29.76375"
         style="fill:none;stroke:#000000;stroke-width:3.09198642;stroke-linecap:butt;stroke-linejoin:miter;stroke-opacity:1" />
      <path
         sodipodi:nodetypes="csscc"
         inkscape:connector-curvature="0"
         id="path7038-0-2-2"
         d="m 209.27666,289.89651 c 15.70559,-34.04691 46.7672,-81.10307 72.32579,-80.12637 12.70337,0.48544 17.27888,6.41806 15.67256,16.2104 -3.39558,20.69992 -9.57914,58.24779 -10.81286,87.15254 -24.36619,-9.97082 -50.32751,-17.33609 -77.18549,-23.23657 z"
         style="fill:none;stroke:#000000;stroke-width:3.09198642;stroke-linecap:butt;stroke-linejoin:miter;stroke-opacity:1" />
      <path
         sodipodi:nodetypes="cssc"
         inkscape:connector-curvature="0"
         id="path7038-9-48-0"
         d="m 498.78643,200.55185 c 15.44912,-0.23634 33.81748,6.3393 47.87425,17.251 22.00965,17.08519 40.28987,44.14894 54.41042,64.6326 1.83773,2.66575 4.67911,6.98029 7.15216,11.61419"
         style="fill:none;stroke:#000000;stroke-width:3.09198642;stroke-linecap:butt;stroke-linejoin:miter;stroke-opacity:1" />
      <path
         sodipodi:nodetypes="cssc"
         inkscape:connector-curvature="0"
         id="path7038-9-4-6-1"
         d="m 304.00568,200.38102 c 6.69838,0.59919 8.94504,7.90905 9.10198,18.2739 0.17327,11.44258 -2.64068,34.53643 -3.33969,49.79958 -0.66679,14.55915 2.34914,23.00741 12.1196,27.54912"
         style="fill:none;stroke:#000000;stroke-width:3.09198642;stroke-linecap:butt;stroke-linejoin:miter;stroke-opacity:1" />
      <path
         sodipodi:nodetypes="cccccc"
         inkscape:connector-curvature="0"
         id="path3243-5-6"
         d="m 308.10048,217.00692 3.63852,-0.01 1.34843,1.76043 c 76.94367,-5.13372 159.33218,-5.82417 233.75092,-0.76307 l 0.10411,-1.89244 1.89294,-0.0835"
         style="fill:none;stroke:#000000;stroke-width:3.09198642;stroke-linecap:butt;stroke-linejoin:miter;stroke-opacity:1" />
      <path
         sodipodi:nodetypes="ccccccc"
         inkscape:connector-curvature="0"
         id="path3319-3-8"
         d="m 330.15577,184.84485 -1.634,16.59115 9.30113,1.25691 6.03312,-0.25138 -0.75413,-18.09943 -9.30109,0 4.77623,18.09943"
         style="fill:none;stroke:#000000;stroke-width:3.09198642;stroke-linecap:butt;stroke-linejoin:miter;stroke-opacity:1" />
      <path
         sodipodi:nodetypes="sssss"
         inkscape:connector-curvature="0"
         id="path3245-0-4"
         d="m 299.03781,185.03737 c -10.97899,0.0425 -0.47906,-21.68163 11.79271,-22.87811 64.32211,-6.2713 135.38309,-3.6 190.4831,-0.71102 14.48684,0.75956 23.6247,22.71474 13.89004,22.75242 z"
         style="fill:#ff2a2a;stroke:#000000;stroke-width:3.09198642;stroke-linecap:butt;stroke-linejoin:miter;stroke-opacity:1" />
      <path
         style="opacity:0.8;fill:#37483e;fill-opacity:1;stroke:none"
         d="m 215.36325,286.6281 c 15.70557,-34.04689 42.17582,-72.47334 64.4541,-72.62807 10.42655,-0.0724 14.06545,6.58923 14.75854,10.18683 2.18032,11.31773 -7.31672,54.25403 -8.55044,83.15879 -13.74897,-5.162 -25.36041,-9.05195 -37.32244,-12.46088 -10.31979,-2.94093 -20.90049,-5.52386 -33.33976,-8.25667 z"
         id="path7038-0-8-9-0-0"
         inkscape:connector-curvature="0"
         sodipodi:nodetypes="csscsc" />
      <path
         sodipodi:nodetypes="csscsc"
         inkscape:connector-curvature="0"
         id="path7038-0-8-9-0"
         d="m 215.36036,286.62687 c 15.70558,-34.0469 42.17584,-72.47334 64.45411,-72.62807 10.42654,-0.0724 14.06544,6.58923 14.75855,10.18683 2.1803,11.31773 -7.31674,54.25403 -8.55046,83.15878 -13.74896,-5.16198 -25.3604,-9.05194 -37.32243,-12.46087 -10.3198,-2.94094 -20.9005,-5.52386 -33.33977,-8.25667 z"
         style="fill:none;stroke:#000000;stroke-width:3.09198642;stroke-linecap:butt;stroke-linejoin:miter;stroke-opacity:1" />
      <path
         sodipodi:nodetypes="ccccc"
         inkscape:connector-curvature="0"
         id="path3265-0-6"
         d="m 282.2156,209.79127 -2.01103,4.21379 c -14.50136,24.04649 -24.5209,53.6205 -32.25042,80.69332 l -1.7738,4.78615 -3.36988,8.94978"
         style="fill:none;stroke:#000000;stroke-width:3.09198642;stroke-linecap:butt;stroke-linejoin:miter;stroke-opacity:1" />
      <path
         sodipodi:nodetypes="cc"
         inkscape:connector-curvature="0"
         id="path3265-8-0-1"
         d="m 282.72938,214.1708 c -14.50137,24.04649 -24.33552,54.22069 -32.06504,81.29351"
         style="fill:none;stroke:#000000;stroke-width:3.09198642;stroke-linecap:butt;stroke-linejoin:miter;stroke-opacity:1" />
      <path
         sodipodi:nodetypes="cc"
         inkscape:connector-curvature="0"
         id="path3265-8-2-6-8"
         d="m 278.69089,214.08225 c -15.12351,23.24662 -25.36257,52.93014 -33.0921,80.00296"
         style="fill:none;stroke:#000000;stroke-width:3.09198642;stroke-linecap:butt;stroke-linejoin:miter;stroke-opacity:1" />
      <path
         sodipodi:nodetypes="sssssssss"
         inkscape:connector-curvature="0"
         id="rect3316-1-9"
         d="m 379.04464,177.44604 86.21032,0 c 1.18171,0 2.13305,0.95133 2.13305,2.13303 l 0,5.15484 c 0,3.848 -7.27581,7.78381 -13.43458,7.78381 l -63.60726,0 c -5.44778,0 -13.43457,-4.46906 -13.43457,-7.78381 l 0,-5.15484 c 0,-1.1817 0.95135,-2.13303 2.13304,-2.13303 z"
         style="fill:none;stroke:#000000;stroke-width:3.09198642" />
      <path
         sodipodi:nodetypes="ccccccc"
         inkscape:connector-curvature="0"
         id="path3319-4-8-4"
         d="m 482.36698,183.83933 -2.51378,16.71684 12.31772,1.2569 5.65604,-0.12569 -2.13678,-18.22512 -8.29548,0 4.77622,18.35081"
         style="fill:none;stroke:#000000;stroke-width:3.09198642;stroke-linecap:butt;stroke-linejoin:miter;stroke-opacity:1" />
    </g>
    <path
       style="opacity:0.9;fill:#ffffff;stroke:none;display:inline"
       d="m 315.0891,129.97245 c -1.44751,0.0599 -2.00128,2.5966 -3.44926,2.64445 -2.48598,0.0823 -5.0351,-1.94615 -6.20877,-4.13916 -0.97653,-1.8247 -0.56627,-4.21814 0,-6.20873 0.259,-0.91045 0.672,-1.94638 1.49471,-2.41452 1.83239,-1.04267 4.40649,-0.99181 6.32371,-0.11497 0.54445,0.24898 0.55121,1.37016 1.14978,1.37971 0.46142,0.008 0.49468,-0.8552 0.91979,-1.03478 2.36777,-1.00026 5.72824,-1.29988 7.70349,0.34492 1.5717,1.3088 1.75331,3.96791 1.37969,5.9788 -0.31262,1.68259 -1.5553,3.16379 -2.87443,4.25413 -0.89988,0.74385 -2.05588,1.47678 -3.21935,1.37972 -1.27132,-0.10604 -1.94469,-2.12235 -3.21936,-2.06957 z"
       id="path3542-4-3"
       inkscape:connector-curvature="0"
       sodipodi:nodetypes="sssssssssssss" />
    <path
       style="opacity:0.6;fill:#ff0000;stroke:none;display:inline;filter:url(#filter5678-8-0)"
       d="M 336.08191,139.40447 348.5418,50.133523 357.22126,148.09066 488.39216,82.818471 363.9168,160.03314 512.35533,89.474906 363.9168,178.67116 l 139.11952,88.5306 -155.09499,-75.88336 -4.59843,87.98083 -13.37397,-24.9531 -5.63053,109.45211 -9.67925,-154.50747 -82.53982,48.59199 67.23004,-53.91714 -87.86496,32.61653 97.84959,-55.91406 -110.49684,-69.22694 106.50299,55.24842 -97.8496,-62.5705 103.84037,47.92634 8.65339,-174.550446 z"
       id="path5672-7"
       inkscape:connector-curvature="0"
       sodipodi:nodetypes="ccccccccccccccccccccccc"
       transform="matrix(0.47233522,0,0,0.47233522,60.667945,42.262989)" />
    <path
       sodipodi:type="star"
       style="opacity:0.3;fill:#ff0000;fill-opacity:1;stroke:none;display:inline;filter:url(#filter6974-2)"
       id="path6932-7"
       sodipodi:sides="6"
       sodipodi:cx="-49.323307"
       sodipodi:cy="68.571426"
       sodipodi:r1="82.700462"
       sodipodi:r2="85.589142"
       sodipodi:arg1="0.44873149"
       sodipodi:arg2="0.97233031"
       inkscape:flatsided="true"
       inkscape:rounded="0"
       inkscape:randomized="0"
       d="m 25.189655,104.44879 -68.327185,46.59143 -74.51296,-35.87735 -6.18578,-82.468803 68.327186,-46.591439 74.512963,35.87736 z"
       transform="matrix(0.22382075,0.03547793,-0.03547793,0.22382075,231.88229,112.48936)" />
    <g
       id="g4704"
       transform="matrix(0.75144546,0,0,0.75144546,26.782707,-26.424903)"
       style="stroke-width:2.66153717;display:inline">
      <g
         style="stroke-width:3.83603978"
         transform="matrix(0.69382418,0,0,0.69382418,237.10633,-592.33062)"
         id="g6940">
        <path
           style="fill:#ffd5d5;stroke:#000000;stroke-width:3.83603978;stroke-linecap:butt;stroke-linejoin:miter;stroke-opacity:1;display:inline"
           d="m -77.887563,1141.2515 c 31.011869,22.4454 31.557661,62.9651 20.807902,86.072 l -42.351998,-55.4641 z"
           id="path4054-7"
           inkscape:connector-curvature="0"
           sodipodi:nodetypes="cccc" />
        <path
           style="fill:#ffd5d5;stroke:#000000;stroke-width:3.83603978;stroke-linecap:butt;stroke-linejoin:miter;stroke-opacity:1;display:inline"
           d="m -93.168624,1195.7048 -190.430326,-40.4693 158.2773,-118.279 c 27.691238,3.91 50.010278,35.3925 43.654568,61.3315 l -1.140705,45.5311"
           id="path4046-2"
           inkscape:connector-curvature="0"
           sodipodi:nodetypes="ccccc" />
        <path
           style="fill:#ffd5d5;stroke:#000000;stroke-width:3.83603978;stroke-linecap:butt;stroke-linejoin:miter;stroke-opacity:1;display:inline"
           d="m -284.95585,1153.6743 c -43.34303,44.1979 -72.95524,150.3907 -5.03835,176.5148 l 155.54771,-6.2175 c 62.019814,-18.1632 76.345314,-76.9391 60.311898,-141.8108"
           id="path4040-1"
           inkscape:connector-curvature="0"
           sodipodi:nodetypes="cccc" />
        <path
           style="fill:#ffd5d5;stroke:#000000;stroke-width:3.83603978;stroke-linecap:butt;stroke-linejoin:miter;stroke-opacity:1;display:inline"
           d="m -92.438382,1086.2356 c 20.19331,23.7882 22.13948,57.0369 4.52083,79.8638"
           id="path4036-5"
           inkscape:connector-curvature="0"
           sodipodi:nodetypes="cc" />
        <path
           style="fill:#ffd5d5;stroke:#000000;stroke-width:3.83603978;stroke-linecap:butt;stroke-linejoin:miter;stroke-opacity:1;display:inline"
           d="m -117.55046,1043.468 c -25.73369,-26.8375 -90.21195,-34.7274 -133.72131,18.3633 -24.0015,29.2869 -48.69434,69.6795 -37.41014,104.5117"
           id="path6849"
           inkscape:connector-curvature="0"
           sodipodi:nodetypes="csc" />
        <path
           style="fill:#ffd5d5;stroke:#000000;stroke-width:3.83603978;stroke-linecap:butt;stroke-linejoin:miter;stroke-opacity:1;display:inline"
           d="m -213.14765,1034.2448 c -63.70808,8.4513 -78.05952,73.813 -46.6447,97.6916 11.99367,9.1165 29.00626,-26.3362 46.72204,-42.6241"
           id="path4068-7"
           inkscape:connector-curvature="0"
           sodipodi:nodetypes="csc" />
        <path
           style="fill:#ffaaaa;stroke:#000000;stroke-width:3.83603978;stroke-linecap:butt;stroke-linejoin:miter;stroke-opacity:1;display:inline"
           d="m -123.04161,1095.218 c -20.00821,1.1881 -36.46904,18.8496 -43.14754,34.1272 -7.88443,18.0362 -1.30858,29.0549 11.40257,26.1569 22.62657,-5.1587 33.33782,-5.7301 45.35368,-3.8529 10.275298,1.6052 16.649888,-14.0727 13.992398,-27.9754 -2.21236,-11.574 -12.216848,-29.3693 -27.601108,-28.4558 z"
           id="path4038-6"
           inkscape:connector-curvature="0"
           sodipodi:nodetypes="ssssss" />
        <path
           style="fill:none;stroke:#000000;stroke-width:3.83603978;stroke-linecap:butt;stroke-linejoin:miter;stroke-opacity:1;display:inline"
           d="m -158.70793,1081.1616 12.46792,11.7117"
           id="path4042-1"
           inkscape:connector-curvature="0"
           sodipodi:nodetypes="cc" />
        <path
           style="fill:none;stroke:#000000;stroke-width:3.83603978;stroke-linecap:butt;stroke-linejoin:miter;stroke-opacity:1;display:inline"
           d="m -114.78211,1075.9078 -4.35243,13.6935"
           id="path4044-4"
           inkscape:connector-curvature="0"
           sodipodi:nodetypes="cc" />
        <path
           style="fill:#000000;stroke:#000000;stroke-width:3.83603978;stroke-linecap:butt;stroke-linejoin:miter;stroke-opacity:1;display:inline"
           d="m -143.78146,1141.2935 c 2.49427,5.583 16.77341,-28.2403 12.60715,-29.7617 -4.26844,-1.5588 -18.22385,17.1897 -12.60715,29.7617 z"
           id="path4056-2"
           inkscape:connector-curvature="0"
           sodipodi:nodetypes="sss" />
        <path
           style="fill:#000000;stroke:#000000;stroke-width:3.83603978;stroke-linecap:butt;stroke-linejoin:miter;stroke-opacity:1;display:inline"
           d="m -116.40306,1110.8839 c -3.71421,0.668 -0.0567,32.7388 2.76175,29.3446 7.63816,-9.1983 1.31539,-30.0779 -2.76175,-29.3446 z"
           id="path4058-3"
           inkscape:connector-curvature="0"
           sodipodi:nodetypes="sss" />
      </g>
      <g
         style="stroke-width:3.83603978"
         transform="matrix(0.69382418,0,0,0.69382418,237.10633,-592.33062)"
         id="g7025">
        <path
           inkscape:connector-curvature="0"
           style="fill:#ffaaaa;stroke:none;display:inline"
           d="m -94.406847,1209.3499 c -5.810453,15.2288 3.0165,14.6477 1.532374,23.1259 -1.493354,8.5309 -15.718567,13.523 -15.718567,13.523 -18.12037,5.8937 -19.52535,-62.4609 0.4429,-62.4509 z"
           id="path4062-1-1"
           sodipodi:nodetypes="csccc" />
        <path
           inkscape:connector-curvature="0"
           style="fill:none;stroke:#000000;stroke-width:3.83603978;stroke-linecap:butt;stroke-linejoin:miter;stroke-opacity:1;display:inline"
           d="m -94.043967,1209.5572 c -5.810455,15.2288 3.016497,14.6477 1.532373,23.1259 -1.493353,8.5309 -27.931556,21.5099 -52.584696,25.6048"
           id="path4062-1" />
      </g>
      <g
         style="stroke-width:4.61281872"
         transform="matrix(0.57698715,0,0,0.57698715,57.303255,-441.79999)"
         id="g6821">
        <path
           inkscape:connector-curvature="0"
           style="fill:#f9f9f9;stroke:#000000;stroke-width:4.61281872;stroke-linecap:butt;stroke-linejoin:miter;stroke-opacity:1"
           d="m 207.74972,1208.2926 -0.70978,41.4554 -11.41645,0.5822 -5.25469,-1.6169 -4.44629,-55.3764"
           id="path5802-9"
           sodipodi:nodetypes="ccccc" />
        <path
           inkscape:connector-curvature="0"
           style="fill:none;stroke:#000000;stroke-width:4.61281872;stroke-linecap:butt;stroke-linejoin:miter;stroke-opacity:1"
           d="m 194.81508,1248.3091 -2.82945,-52.9512"
           id="path5804-2" />
      </g>
      <path
         sodipodi:nodetypes="csccsccsccsccscc"
         inkscape:connector-curvature="0"
         id="path4032-4"
         d="m 26.551445,275.57005 c -9.51761,-2.12539 -22.1791304,-1.14488 -23.3379604,7.35211 -2.43456,17.85209 52.0994004,39.17282 61.3308704,32.78222 21.40094,5.00545 55.601665,6.45013 84.840805,5.30803 33.81242,6.03072 51.6609,-10.94168 56.64922,-30.75938 5.92942,-23.55611 2.9133,-55.09715 -12.7511,-81.46823 4.37713,-11.9788 -1.52294,-30.06395 -6.63428,-38.17323 1.13246,-7.09248 0.20746,-22.60208 -8.18213,-32.09957 -8.78561,-9.94583 -20.80924,-15.22424 -30.53381,-14.50176 -13.62504,-8.39152 -42.27034,-11.30586 -59.343115,-0.95359 -6.44001,-1.14613 -17.45849,4.30324 -24.13412,11.67234 -9.95097,10.98484 -18.16481,35.66854 -9.95479,33.79001 -4.17134,8.01825 -7.60653,18.45614 -4.79439,28.35208 -16.19712,11.68809 -28.41397,51.32529 -24.68724,52.78899 1.83198,0.71949 3.19312,-0.49248 4.70989,-1.16771 -3.57077,9.89359 -4.77101,16.75454 -3.17785,27.07769 z"
         style="fill:none;stroke:none;display:inline" />
      <g
         style="stroke-width:3.83603978"
         transform="matrix(0.69382418,0,0,0.69382418,237.10633,-592.33062)"
         id="g7031">
        <path
           style="fill:none;stroke:#000000;stroke-width:3.83603978;stroke-linecap:butt;stroke-linejoin:miter;stroke-opacity:1;display:inline"
           d="m -107.78726,1183.7552 c -19.96825,-0.01 -18.56327,68.3446 -0.4429,62.4509"
           id="path4064-5"
           inkscape:connector-curvature="0"
           sodipodi:nodetypes="cc" />
        <path
           style="fill:#ffaaaa;stroke:none;display:inline"
           d="m -103.41958,1223.6309 c -2.5493,-7.0788 15.900636,-16.5946 15.391867,-22.1585 -0.873761,-9.5555 -19.830507,-17.7463 -19.830507,-17.7463 l -6.94757,36.207 z"
           id="path6955-2"
           inkscape:connector-curvature="0"
           sodipodi:nodetypes="csccc" />
        <path
           style="fill:none;stroke:#000000;stroke-width:3.83603978;stroke-linecap:butt;stroke-linejoin:miter;stroke-opacity:1;display:inline"
           d="m -157.11237,1171.3219 c 27.78212,1.4888 67.816095,15.9665 69.155623,30.1796 0.52424,5.5625 -17.941173,15.0797 -15.391873,22.1585"
           id="path6955"
           inkscape:connector-curvature="0"
           sodipodi:nodetypes="csc" />
      </g>
      <g
         style="stroke-width:4.61281872"
         transform="matrix(0.57698715,0,0,0.57698715,57.303255,-441.79999)"
         id="g6808">
        <path
           inkscape:connector-curvature="0"
           style="fill:#fefefe;fill-opacity:1;stroke:none"
           d="m 174.10599,1152.2252 c -5.85953,-7.6609 -13.04244,-15.3496 -17.35642,-18.0336 -7.31381,-4.5504 -12.13213,-12.7893 -12.13213,-22.4778 0,-15.4032 12.17875,-28.6372 27.20201,-29.5591 1.91824,-0.1177 15.50864,0.8285 29.03324,-2.6108"
           id="path3923-7-4-8-7" />
        <path
           inkscape:connector-curvature="0"
           style="fill:#ff9955;stroke:none"
           d="m 156.6345,1134.1649 c -7.31381,-4.5504 -12.13213,-12.7893 -12.13213,-22.4778 0,-15.4032 12.17875,-28.6372 27.20201,-29.5591 1.91824,-0.1177 2.40856,-0.082 2.40856,-0.082 -27.72488,3.2088 -31.54161,41.6831 -18.15811,51.6493 0,0 4.99365,3.1537 0.67967,0.4697 z"
           id="path3923-7-4-8-9"
           sodipodi:nodetypes="cscccc" />
        <path
           inkscape:connector-curvature="0"
           style="fill:none;stroke:#000000;stroke-width:4.61281872;stroke-linecap:round;stroke-miterlimit:4;stroke-opacity:1;stroke-dashoffset:0"
           d="m 173.9434,1152.3083 c -5.85953,-7.6609 -13.04244,-15.3496 -17.35642,-18.0336 -7.31381,-4.5504 -12.13213,-12.7893 -12.13213,-22.4778 0,-15.4032 12.17875,-28.6372 27.20201,-29.5591 1.91824,-0.1177 15.50864,0.8285 29.03324,-2.6108"
           id="path3923-7-4-8" />
        <path
           style="fill:none;stroke:#000000;stroke-width:4.61281872;stroke-linecap:butt;stroke-linejoin:miter;stroke-opacity:1"
           d="m 174.06542,1082.2629 c -27.72488,3.2088 -31.54161,41.5759 -18.15811,51.5421"
           id="path5723-5"
           inkscape:connector-curvature="0"
           sodipodi:nodetypes="cc" />
        <path
           inkscape:connector-curvature="0"
           style="fill:#fefefe;fill-opacity:1;stroke:#000000;stroke-width:4.61281872;stroke-linecap:round;stroke-miterlimit:4;stroke-opacity:1;stroke-dashoffset:0"
           d="m 307.47347,1129.6339 c 0,42.3989 -33.52349,78.8272 -74.8768,81.3649 -41.35332,2.5376 -74.87679,-29.7763 -74.87679,-72.1752 0,-42.3989 33.52347,-78.8272 74.87679,-81.3649 41.35331,-2.5376 74.8768,29.7763 74.8768,72.1752 z"
           id="path3923-7-6" />
        <path
           inkscape:connector-curvature="0"
           style="fill:#cccccc;fill-opacity:1;stroke:none"
           d="m 274.95954,1126.8046 c 0,30.4971 -24.11306,56.6995 -53.85801,58.5249 -29.74496,1.8253 -53.858,-21.4177 -53.858,-51.9147 0,-30.4971 24.11304,-56.6995 53.858,-58.5249 29.74495,-1.8253 53.85801,21.4177 53.85801,51.9147 z"
           id="path3923-7-6-3" />
        <path
           style="fill:#1a1a1a;stroke:none"
           d="m 194.8855,1087.9576 c 3.54275,-1.3731 7.3169,-2.2284 11.23312,-2.4687 20.43974,-1.2543 37.00943,14.7176 37.00943,35.6741 0,20.9566 -16.56969,38.962 -37.00943,40.2163 -14.36566,0.8816 -26.81963,-6.7461 -32.95289,-18.6329 -2.27279,-17.4952 2.7454,-42.1443 21.71977,-54.7888 z"
           id="path3923-7-9-6-1"
           inkscape:connector-curvature="0"
           sodipodi:nodetypes="cssscc" />
        <path
           style="fill:none;stroke:#000000;stroke-width:4.61281872;stroke-linecap:round;stroke-miterlimit:4;stroke-opacity:1;stroke-dashoffset:0"
           d="m 194.86423,1087.7272 c 3.54275,-1.3731 7.3169,-2.2284 11.23312,-2.4687 20.43974,-1.2543 37.00943,14.7176 37.00943,35.6741 0,20.9566 -16.56969,38.9619 -37.00943,40.2163 -14.2913,0.877 -26.69065,-6.6674 -32.85714,-18.4487"
           id="path3923-7-9-6"
           inkscape:connector-curvature="0"
           sodipodi:nodetypes="csssc" />
        <path
           inkscape:connector-curvature="0"
           style="fill:#f9f9f9;fill-opacity:1;stroke:#000000;stroke-width:4.61281872;stroke-linecap:round;stroke-miterlimit:4;stroke-opacity:1;stroke-dashoffset:0"
           d="m 206.9329,1099.0924 c 5.74099,-0.3523 11.26546,1.0279 15.2227,4.4356 l 22.3344,19.2331 c 3.12856,2.6941 4.59039,7.109 4.59039,11.754 0,9.7989 -7.74764,18.2179 -17.30484,18.8043 -0.65974,0.04 -1.31566,0.094 -1.9514,0.01 l -26.35691,-3.5459 c -11.95378,-1.6082 -21.2707,-11.0085 -21.2707,-23.8095 0,-14.007 11.07484,-26.0414 24.73636,-26.8798"
           id="path5911" />
        <path
           inkscape:connector-curvature="0"
           style="fill:none;stroke:#000000;stroke-width:4.61281872;stroke-linecap:round;stroke-miterlimit:4;stroke-opacity:1;stroke-dashoffset:0"
           d="m 229.82416,1153.3276 c -8.63854,-0.4638 -15.35345,-7.5662 -15.35345,-16.6886 0,-9.7989 7.74764,-18.2178 17.30484,-18.8043 5.02675,-0.3085 9.5529,1.6113 12.71445,4.9264"
           id="path3923-7-48-1" />
        <path
           inkscape:connector-curvature="0"
           style="fill:none;stroke:#000000;stroke-width:4.61281872;stroke-linecap:butt;stroke-linejoin:miter;stroke-opacity:1"
           d="m 216.80859,1079.842 c -47.67511,5.5179 -54.5241,66.5327 -31.51012,88.2435"
           id="path5723-0-7" />
      </g>
    </g>
    <g
       transform="matrix(0.64683336,0,0,0.64683336,1.1624779,14.726342)"
       style="stroke-width:3.09198642;display:inline"
       id="g6900">
      <path
         sodipodi:nodetypes="cssccccccsccccccccccc"
         inkscape:connector-curvature="0"
         id="path4499-8"
         d="m -240.05149,212.21898 c 60.79828,-4.32625 125.09677,-6.68196 185.901464,-4.49052 20.315052,0.73217 33.609717,5.74656 38.796636,16.62715 8.7822604,18.42262 14.48813209,34.32617 18.8944803,49.62951 L 18.607337,274.7269 C 5.9709331,238.90141 -12.640955,188.28959 36.648094,190.74064 56.861552,214.4351 76.320257,251.87828 87.849193,287.106 l 23.043927,4.20265 c -10.6599,-32.18544 -32.366475,-76.32763 -58.812945,-100.40828 53.287645,1.6889 91.895065,53.09906 113.398545,90.43882 9.26012,16.07977 2.49627,20.97838 -4.7864,18.92719 L 18.607337,274.7269 3.5410903,273.98512 l -247.6234303,3.02313 3.79167,40.62628 438.79508,-7.33662 -58.64003,-76.7007 -40.763984,-35.28644 -22.824571,-15.81803 -320.832955,-1.24737 z"
         style="fill:#000000;stroke:none" />
      <path
         inkscape:connector-curvature="0"
         id="path5200"
         d="m -32.146332,182.72896 115.715542,4.92407 45.13727,32.8271 58.26811,86.99182 -210.093469,2.46204 z"
         style="opacity:0.8;fill:#37483e;stroke:none" />
      <path
         sodipodi:nodetypes="ccccccsccccccccccccc"
         inkscape:connector-curvature="0"
         id="path4634"
         d="m -404.1538,298.19352 c 28.72221,-33.63484 63.17346,-120.08698 148.62543,-127.35917 l 3.46379,0.093 c 102.45697,-10.34859 209.241045,-7.34572 278.242781,0.10019 l 2.7411,-0.36358 c 81.173719,-6.84746 144.061259,95.09685 168.219559,128.71983 3.55644,4.94995 11.47542,14.6022 19.52554,17.8415 24.49007,9.85467 59.39323,32.42267 67.68321,53.10753 L 186.574,308.62871 146.24089,246.40538 117.03556,211.67588 94.151588,195.70457 c -99.4639145,-7.37154 -211.585778,-5.19893 -331.584868,1.20464 l -4.52269,70.70327 -0.75704,26.30784 17.92553,12.56121 c 124.01248,-7.16516 270.8305,-8.24575 416.02044,-2.27683 l 63.73506,63.7007 -640.00538,35.05811 z"
         style="fill:#fefefe;fill-opacity:1;stroke:none" />
      <path
         sodipodi:nodetypes="ccccsccscccccccc"
         inkscape:connector-curvature="0"
         id="path7038-0-7-9"
         d="m -280.32867,190.39877 -1.59911,-6.24456 c -36.26776,-1.38592 -80.34437,65.38702 -102.63067,113.69978 38.1116,8.37282 74.95086,18.82415 109.52661,32.9728 1.56149,-42.40323 10.52516,-94.29661 15.34352,-123.66994 2.27936,-13.89537 -4.21331,-22.3138 -22.23946,-23.00264 l 1.59911,6.24456 c 5.493,0.3849 14.73788,3.78396 16.8062,14.21113 2.90131,14.6265 -9.75189,75.34724 -12.13315,118.00278 -19.84268,-7.40814 -42.92303,-14.69854 -50.1735,-16.85798 10.96823,-38.41649 24.92294,-81.2338 45.50045,-115.35593 l -5.73062,-0.12561 c -21.46036,32.98707 -35.98964,75.10815 -46.95788,113.52464 -14.00432,-3.93377 -28.5284,-7.31778 -42.9085,-10.58347 31.38436,-70.06449 70.52399,-104.7312 89.86638,-102.94117 z"
         style="fill:#4d4d4d;stroke:none" />
      <path
         sodipodi:nodetypes="scccs"
         inkscape:connector-curvature="0"
         id="path3465-8"
         d="m 193.23957,300.73235 c -18.14126,-26.84 -56.69604,-82.19032 -96.034726,-107.73829 l -2.662509,0.15569 c 24.228605,15.5523 71.478335,70.73091 96.613945,110.99557 1.51798,0.0668 3.90571,-0.71685 2.08329,-3.41297 z"
         style="fill:#333333;stroke:none" />
      <path
         sodipodi:nodetypes="cscccc"
         inkscape:connector-curvature="0"
         id="path7038-9-1-6-8-6"
         d="m 94.400918,195.74485 c 31.231932,24.24396 56.872132,62.39532 76.909272,91.46174 2.60763,3.78272 6.63958,9.9051 10.14883,16.48064 l 9.59146,0.44325 C 165.86945,264.36302 118.676,208.62185 94.551443,193.13867 z"
         style="fill:#666666;stroke:none" />
      <path
         sodipodi:nodetypes="scccs"
         inkscape:connector-curvature="0"
         id="path3463-50"
         d="m -253.71245,300.50713 c -1.50421,-42.12524 8.69964,-93.43009 9.46254,-106.11192 l 4.95198,-0.0144 c -3.90802,28.99554 -11.41728,78.74483 -5.60376,112.98644 -2.33259,0.42321 -8.64277,-2.15594 -8.81076,-6.86021 z"
         style="fill:#333333;stroke:none" />
      <path
         sodipodi:nodetypes="cccscc"
         id="path3463-5-2"
         d="m -239.22136,194.42913 c -3.64049,29.70895 -11.29883,77.7728 -5.73755,112.89722 4.74081,0.2418 20.11329,-0.81227 20.11329,-0.81227 -13.86433,-6.44473 -18.24643,-18.4959 -17.30024,-39.15543 0.99188,-21.65845 4.99796,-53.73604 4.8427,-70.42495 z"
         style="fill:#666666;stroke:none"
         inkscape:connector-curvature="0" />
      <path
         inkscape:connector-curvature="0"
         id="path4630"
         d="m -404.171,298.2179 c 28.7222,-33.63483 63.17345,-120.08695 148.62542,-127.35914 l 3.46379,0.093 c 102.45698,-10.34857 209.241055,-7.34569 278.242824,0.10032 l 2.741101,-0.36359 c 81.173725,-6.84746 144.061265,95.09684 168.219565,128.7198 3.55644,4.94995 11.47542,14.60221 19.52553,17.84151 24.49007,9.85467 59.39324,32.42267 67.68322,53.10753"
         style="fill:none;stroke:#000000;stroke-width:3.09198642;stroke-linecap:butt;stroke-linejoin:miter;stroke-opacity:1" />
      <path
         style="fill:#cccccc;stroke:none"
         d="m 2.8958477,147.35039 -3.56706172,23.72128 17.47890802,1.78356 8.025948,-0.17836 -3.032108,-25.86155 -11.771328,0 z"
         id="path3319-4-8-82"
         inkscape:connector-curvature="0"
         sodipodi:nodetypes="ccccccc" />
      <path
         inkscape:connector-curvature="0"
         id="path7036-8"
         d="m -255.54558,170.85876 c 8.15838,1.46455 11.78166,9.96571 11.60518,18.14651 -0.38597,17.89499 -11.86252,68.21019 -9.70521,111.51532 0.19863,3.98731 5.2084,7.02877 8.88401,6.86311 153.412103,-6.91397 277.152907,-10.74574 435.75007,-3.22228 1.56329,0.0741 4.00766,-0.73677 2.19179,-3.43718 C 165.08529,258.94547 101.76509,165.22301 26.160567,171.05739"
         style="fill:none;stroke:#000000;stroke-width:3.09198642;stroke-linecap:butt;stroke-linejoin:miter;stroke-opacity:1"
         sodipodi:nodetypes="csssscc" />
      <path
         sodipodi:nodetypes="cscsc"
         inkscape:connector-curvature="0"
         id="path7038-6"
         d="m -252.05864,170.95839 c 5.92376,-0.30704 15.46242,4.33501 12.50612,26.30413 -3.90191,28.99633 -11.09584,75.87645 -5.35558,110.11493 -3.03117,8.04758 -2.27136,12.5412 3.73929,16.07637 16.00853,9.41538 43.67282,30.8299 51.11402,46.14586"
         style="fill:none;stroke:#000000;stroke-width:3.09198642;stroke-linecap:butt;stroke-linejoin:miter;stroke-opacity:1" />
      <path
         sodipodi:nodetypes="cscsc"
         inkscape:connector-curvature="0"
         id="path7038-4-0"
         d="m 26.190112,171.06417 c 16.090082,-1.02045 42.571308,5.3715 68.989123,22.5141 23.714785,15.38859 70.719045,70.83024 95.900085,110.59774 4.94842,6.48117 15.0732,15.88134 26.76838,19.5075 14.33423,4.4444 37.59463,11.85101 50.13038,42.23491"
         style="fill:none;stroke:#000000;stroke-width:3.09198642;stroke-linecap:butt;stroke-linejoin:miter;stroke-opacity:1" />
      <path
         sodipodi:nodetypes="csscc"
         inkscape:connector-curvature="0"
         id="path7038-0-2"
         d="m -384.61952,297.83941 c 22.28631,-48.31274 66.36292,-115.08569 102.63068,-113.69976 18.02616,0.68884 24.51883,9.10726 22.23946,23.00265 -4.81836,29.3733 -13.59285,82.65394 -15.34351,123.66994 -34.57576,-14.14866 -71.41501,-24.60001 -109.52663,-32.97283 z"
         style="fill:none;stroke:#000000;stroke-width:3.09198642;stroke-linecap:butt;stroke-linejoin:miter;stroke-opacity:1" />
      <path
         sodipodi:nodetypes="cssc"
         inkscape:connector-curvature="0"
         id="path7038-9-48"
         d="m 26.196418,171.05884 c 21.922378,-0.33536 47.987178,8.9955 67.933811,24.47927 31.231821,24.24397 57.171551,62.64758 77.208691,91.714 2.60773,3.78273 6.63969,9.90508 10.14894,16.48062"
         style="fill:none;stroke:#000000;stroke-width:3.09198642;stroke-linecap:butt;stroke-linejoin:miter;stroke-opacity:1" />
      <path
         sodipodi:nodetypes="cssc"
         inkscape:connector-curvature="0"
         id="path7038-9-4-6"
         d="m -250.19853,170.81645 c 9.50504,0.85024 12.69306,11.22297 12.91576,25.93075 0.24587,16.23709 -3.74715,49.00739 -4.73903,70.66588 -0.94619,20.65952 3.33345,32.64764 17.19777,39.09235"
         style="fill:none;stroke:#000000;stroke-width:3.09198642;stroke-linecap:butt;stroke-linejoin:miter;stroke-opacity:1" />
      <path
         sodipodi:nodetypes="cccccc"
         inkscape:connector-curvature="0"
         id="path3243-5"
         d="m -244.388,194.40868 5.16309,-0.014 1.91344,2.49807 c 109.18348,-7.28479 226.093219,-8.26454 331.693821,-1.0828 l 0.147722,-2.68538 2.686098,-0.11848"
         style="fill:none;stroke:#000000;stroke-width:3.09198642;stroke-linecap:butt;stroke-linejoin:miter;stroke-opacity:1" />
      <path
         sodipodi:nodetypes="sssss"
         inkscape:connector-curvature="0"
         id="path3245-0"
         d="m -257.24796,149.04371 c -15.57925,0.0602 -0.6798,-30.76635 16.73391,-32.46415 91.27343,-8.89902 192.109347,-5.10841 270.296565,-1.00894 20.556908,1.07783 33.523562,32.23234 19.710043,32.28579 z"
         style="fill:#ff2a2a;stroke:#000000;stroke-width:3.09198642;stroke-linecap:butt;stroke-linejoin:miter;stroke-opacity:1" />
      <path
         sodipodi:nodetypes="csscsc"
         inkscape:connector-curvature="0"
         id="path7038-0-8-9"
         d="m -375.98672,293.19977 c 22.28631,-48.31273 59.84774,-102.84006 91.46073,-103.05962 14.79533,-0.10276 19.95894,9.35015 20.94246,14.45516 3.09387,16.05992 -10.38248,76.98676 -12.13314,118.00277 -19.50986,-7.32489 -35.98655,-12.84476 -52.96073,-17.68205 -14.64385,-4.17321 -29.65792,-7.83838 -47.30932,-11.71626 z"
         style="fill:none;stroke:#000000;stroke-width:3.09198642;stroke-linecap:butt;stroke-linejoin:miter;stroke-opacity:1" />
      <path
         sodipodi:nodetypes="cccc"
         inkscape:connector-curvature="0"
         id="path3265-0"
         d="m -281.11878,184.16964 -2.85365,5.97939 c -20.57751,34.1221 -34.79529,76.08778 -45.76353,114.50427 l -2.34087,6.47652"
         style="fill:none;stroke:#000000;stroke-width:3.09198642;stroke-linecap:butt;stroke-linejoin:miter;stroke-opacity:1" />
      <path
         sodipodi:nodetypes="cc"
         inkscape:connector-curvature="0"
         id="path3265-8-0"
         d="m -280.38973,190.38422 c -20.5775,34.1221 -34.53222,76.93945 -45.50046,115.35592"
         style="fill:none;stroke:#000000;stroke-width:3.09198642;stroke-linecap:butt;stroke-linejoin:miter;stroke-opacity:1" />
      <path
         sodipodi:nodetypes="cc"
         inkscape:connector-curvature="0"
         id="path3265-8-2-6"
         d="m -286.12036,190.25857 c -21.46033,32.98707 -35.98962,75.10814 -46.95787,113.52462"
         style="fill:none;stroke:#000000;stroke-width:3.09198642;stroke-linecap:butt;stroke-linejoin:miter;stroke-opacity:1" />
      <path
         sodipodi:nodetypes="sssssssss"
         inkscape:connector-curvature="0"
         id="rect3316-1"
         d="m -143.71784,138.27157 122.332914,0 c 1.676844,0 3.026806,1.34995 3.026806,3.0268 l 0,7.31475 c 0,5.46032 -10.324406,11.04526 -19.063743,11.04526 l -90.259037,0 c -7.73043,0 -19.06374,-6.34163 -19.06374,-11.04526 l 0,-7.31475 c 0,-1.67685 1.34997,-3.0268 3.0268,-3.0268 z"
         style="fill:none;stroke:#000000;stroke-width:3.09198642" />
      <path
         sodipodi:nodetypes="ccccccc"
         inkscape:connector-curvature="0"
         id="path3319-3"
         d="m -213.0914,148.77053 -2.31866,23.54294 13.19836,1.78355 8.56102,-0.3567 -1.07011,-25.6832 -13.1983,0 6.7775,25.6832"
         style="fill:none;stroke:#000000;stroke-width:3.09198642;stroke-linecap:butt;stroke-linejoin:miter;stroke-opacity:1" />
      <path
         style="fill:#f2f2f2;stroke:none"
         d="m 24.833516,172.67513 -3.032107,-25.86155 -11.771329,0 6.777488,26.03991 z"
         id="path3319-4-8-8"
         inkscape:connector-curvature="0"
         sodipodi:nodetypes="ccccc" />
      <path
         sodipodi:nodetypes="ccccccc"
         inkscape:connector-curvature="0"
         id="path3319-4-8"
         d="m 2.8971247,147.3437 -3.56706198,23.72128 17.47890728,1.78356 8.025948,-0.17458 -3.032108,-25.86533 -11.771328,0 6.777488,26.03991"
         style="fill:none;stroke:#000000;stroke-width:3.09198642;stroke-linecap:butt;stroke-linejoin:miter;stroke-opacity:1" />
    </g>
    <path
       style="opacity:0.9;fill:#ffffff;stroke:none;display:inline"
       d="m -134.2187,90.460194 c -2.42497,-1.347335 -6.1647,-1.582458 -8.32077,0.163144 -2.60421,2.108432 -3.84958,6.826622 -2.28415,9.789162 0.8446,1.5984 3.80272,0.65665 5.05776,1.95784 1.03876,1.07695 0.81575,4.40512 1.46838,4.24195 0.65258,-0.16313 4.51821,-0.0512 5.7103,-1.63152 1.14626,-1.51961 -0.82455,-3.99475 0,-5.710337 0.45254,-0.941582 2.2607,-0.929939 2.4473,-1.957835 0.47477,-2.615413 -1.75522,-5.561395 -4.07882,-6.852404 z"
       id="path3538-9"
       inkscape:connector-curvature="0"
       sodipodi:nodetypes="sssssssss" />
    <path
       style="opacity:0.9;fill:#ffffff;stroke:none;display:inline"
       d="m -131.11878,90.623338 c -1.65818,2.005851 1.57988,5.06807 1.46837,7.668184 -0.0944,2.201708 -2.83781,4.421738 -1.79468,6.362948 0.6757,1.25745 2.68218,1.60066 4.0788,1.30522 2.56278,-0.54213 3.88814,-3.51204 5.8735,-5.22089 1.28772,-1.108359 3.67182,-1.581627 3.91566,-3.263052 0.19703,-1.358388 -1.60665,-2.23246 -2.28415,-3.426197 -0.62434,-1.100122 -0.56191,-2.750874 -1.63151,-3.426213 -2.71312,-1.713047 -7.58158,-2.473024 -9.62599,0 z"
       id="path3540-3"
       inkscape:connector-curvature="0"
       sodipodi:nodetypes="sssssssss" />
    <path
       style="fill:#ffffff;stroke:none;display:inline;filter:url(#filter6867-7)"
       d="m -185.62153,122.7658 1.9676,-16.06874 22.71381,16.58877 2.60982,-30.597873 -0.40751,33.108813 23.49021,-10.11367 -16.82065,14.11629 4.08484,9.10039 -1.47621,3.23741 27.88518,19.26569 -30.59787,-15.02587 0.0892,6.68769 -11.89483,-6.35975 -21.64362,7.21454 -0.9838,-9.51007 -13.77321,-6.55867 10.16594,-4.59107 -5.57487,-13.44528 z"
       id="path5734"
       inkscape:connector-curvature="0"
       sodipodi:nodetypes="ccccccccccccccccccc"
       transform="matrix(0.64683336,0,0,0.64683336,46.095732,15.361916)" />
    <path
       style="opacity:0.9;fill:#ffffff;stroke:none;display:inline"
       d="m 216.44724,119.84631 c -1.70892,-0.94948 -4.34438,-1.11518 -5.86381,0.11498 -1.83523,1.48585 -2.71287,4.81085 -1.60968,6.8986 0.5952,1.12643 2.67985,0.46277 3.5643,1.37974 0.73204,0.75895 0.57487,3.10436 1.03479,2.98938 0.45989,-0.11497 3.18407,-0.036 4.02417,-1.14976 0.80778,-1.0709 -0.58108,-2.81518 0,-4.02419 0.3189,-0.66355 1.59315,-0.65535 1.72466,-1.37971 0.33457,-1.84314 -1.23695,-3.91922 -2.87443,-4.82904 z"
       id="path3538-9-1"
       inkscape:connector-curvature="0"
       sodipodi:nodetypes="sssssssss" />
    <path
       style="opacity:0.9;fill:#ffffff;stroke:none;display:inline"
       d="m 218.63182,119.96129 c -1.16856,1.41356 1.11337,3.57156 1.03479,5.40391 -0.0665,1.55159 -1.99988,3.11608 -1.26475,4.4841 0.47618,0.88614 1.89018,1.12802 2.8744,0.91981 1.80604,-0.38206 2.74004,-2.475 4.13917,-3.67925 0.90748,-0.78109 2.58761,-1.11462 2.75945,-2.29955 0.13884,-0.95727 -1.13224,-1.57325 -1.60969,-2.4145 -0.43999,-0.77528 -0.396,-1.9386 -1.14976,-2.41452 -1.91198,-1.20722 -5.34287,-1.74279 -6.78361,0 z"
       id="path3540-3-4"
       inkscape:connector-curvature="0"
       sodipodi:nodetypes="sssssssss" />
    <path
       style="opacity:0.6;fill:#ff0000;stroke:none;display:inline;filter:url(#filter5678-82)"
       d="M -57.223046,112.03497 -39.226386,-2.7365428 -38.624106,106.74893 150.29115,16.213587 13.878434,91.274727 54.438184,78.126677 -25.528106,125.14782 183.87838,22.870017 -31.928566,137.32943 107.19095,225.86003 17.862274,182.0545 l 78.7318,62.97572 -144.49811,-95.05355 -3.32824,76.54901 -14.64416,-73.2208 -11.98155,73.88644 -3.32823,-59.24228 -82.539824,48.59199 67.230044,-53.91714 -87.864964,32.61653 97.849594,-55.91406 L -197.00821,70.099417 -90.505216,125.34784 -188.35482,62.777337 -84.514446,110.70368 -75.861056,2.2037672 z"
       id="path5672"
       inkscape:connector-curvature="0"
       sodipodi:nodetypes="ccccccccccccccccccccccccccc"
       transform="matrix(0.64683336,0,0,0.64683336,46.095732,15.361916)" />
    <path
       style="opacity:0.95;fill:#fffff0;fill-opacity:1;stroke:none;display:inline"
       d="m 5.7546389,104.82923 c -2.054026,0.085 -2.839819,3.68458 -4.89452296,3.75251 -3.52762304,0.1166 -7.14483804,-2.76162 -8.81026504,-5.87351 -1.385717,-2.58925 -0.803555,-5.985563 0,-8.810239 0.367511,-1.291933 0.953562,-2.761907 2.120992,-3.426205 2.600159,-1.479548 6.25283504,-1.407387 8.973383,-0.163151 0.772571,0.353319 0.782164,1.944283 1.631553,1.957835 0.654738,0.01042 0.70195,-1.213537 1.305174,-1.468376 3.359872,-1.419373 8.1284061,-1.844524 10.9312831,0.489459 2.23025,1.857188 2.487974,5.630471 1.957797,8.483931 -0.443617,2.387626 -2.206983,4.489446 -4.078822,6.036646 -1.276919,1.05551 -2.917315,2.09556 -4.568286,1.95784 -1.8040051,-0.15049 -2.7595211,-3.01162 -4.5682861,-2.93674 z"
       id="path3542-4"
       inkscape:connector-curvature="0"
       sodipodi:nodetypes="sssssssssssss" />
    <path
       sodipodi:type="star"
       style="opacity:0.2;fill:#ff0000;fill-opacity:1;stroke:none;display:inline;filter:url(#filter6946-6)"
       id="path6932"
       sodipodi:sides="6"
       sodipodi:cx="-49.323307"
       sodipodi:cy="68.571426"
       sodipodi:r1="98.829834"
       sodipodi:r2="85.589142"
       sodipodi:arg1="0.52359878"
       sodipodi:arg2="1.0471976"
       inkscape:flatsided="true"
       inkscape:rounded="0"
       inkscape:randomized="0"
       d="m 36.26584,117.98634 -85.589147,49.41492 -85.589143,-49.41492 0,-98.829831 85.589143,-49.414917 85.589147,49.414918 z"
       transform="matrix(0.31614267,0,0,0.31614267,21.424553,78.643983)" />
    <text
       xml:space="preserve"
       style="font-size:45.49835968px;font-style:normal;font-weight:normal;line-height:125%;letter-spacing:0px;word-spacing:0px;writing-mode:lr-tb;fill:#000000;fill-opacity:1;stroke:none;font-family:Sans"
       x="53.338223"
       y="51.707134"
       id="text6768"
       sodipodi:linespacing="125%"><tspan
         sodipodi:role="line"
         id="tspan6770"
         x="53.338223"
         y="51.707134"
         style="font-weight:bold;-inkscape-font-specification:Sans Bold">説得中</tspan></text>
  </g>
  <g
     inkscape:label="枠面"
     inkscape:groupmode="layer"
     id="layer1"
     transform="translate(0,-812.36218)"
     sodipodi:insensitive="true"
     style="display:inline">
    <path
       style="fill:#ffffff;stroke:none;display:inline;enable-background:new"
       d="m 0,812.36216 0,240.00004 240,0 0,-240.00004 -10,10 0,220.00004 -220,0 0,-220.00004 220,0 10,-10 z"
       id="path21072"
       inkscape:connector-curvature="0"
       sodipodi:nodetypes="ccccccccccc" />
  </g>
</svg>
