<?xml version="1.0" encoding="UTF-8" standalone="no"?>
<!-- Created with Inkscape (http://www.inkscape.org/) -->

<svg
   xmlns:dc="http://purl.org/dc/elements/1.1/"
   xmlns:cc="http://creativecommons.org/ns#"
   xmlns:rdf="http://www.w3.org/1999/02/22-rdf-syntax-ns#"
   xmlns:svg="http://www.w3.org/2000/svg"
   xmlns="http://www.w3.org/2000/svg"
   xmlns:sodipodi="http://sodipodi.sourceforge.net/DTD/sodipodi-0.dtd"
   xmlns:inkscape="http://www.inkscape.org/namespaces/inkscape"
   width="370"
   height="320"
   id="svg3172"
   version="1.1"
   inkscape:version="0.48.4 r9939"
   sodipodi:docname="[07]帰宅.svg"
   inkscape:export-filename="C:\Users\執安\Desktop\資料\臨時\BUTING\[07]帰宅.png"
   inkscape:export-xdpi="90"
   inkscape:export-ydpi="90">
  <defs
     id="defs3174" />
  <sodipodi:namedview
     id="base"
     pagecolor="#ffffff"
     bordercolor="#666666"
     borderopacity="1.0"
     inkscape:pageopacity="0.0"
     inkscape:pageshadow="2"
     inkscape:zoom="0.5"
     inkscape:cx="143.61792"
     inkscape:cy="189.62546"
     inkscape:document-units="px"
     inkscape:current-layer="layer3"
     showgrid="false"
     inkscape:window-width="1100"
     inkscape:window-height="698"
     inkscape:window-x="-5"
     inkscape:window-y="-5"
     inkscape:window-maximized="0" />
  <metadata
     id="metadata3177">
    <rdf:RDF>
      <cc:Work
         rdf:about="">
        <dc:format>image/svg+xml</dc:format>
        <dc:type
           rdf:resource="http://purl.org/dc/dcmitype/StillImage" />
        <dc:title></dc:title>
      </cc:Work>
    </rdf:RDF>
  </metadata>
  <g
     inkscape:label="補助線"
     inkscape:groupmode="layer"
     id="layer1"
     transform="translate(0,-732.36218)"
     sodipodi:insensitive="true"
     style="display:none">
    <path
       style="fill:none;stroke:#0000ff;stroke-width:1px;stroke-linecap:butt;stroke-linejoin:miter;stroke-opacity:1;display:inline"
       d="M 10,1042.3622 360,742.36211"
       id="path3025"
       inkscape:connector-curvature="0"
       sodipodi:nodetypes="cc" />
    <path
       style="fill:none;stroke:#0000ff;stroke-width:1px;stroke-linecap:butt;stroke-linejoin:miter;stroke-opacity:1;display:inline"
       d="M 10,742.36211 360,1042.3622"
       id="path3027"
       inkscape:connector-curvature="0"
       sodipodi:nodetypes="cc" />
    <path
       style="fill:none;stroke:#ff0000;stroke-width:1px;stroke-linecap:butt;stroke-linejoin:miter;stroke-opacity:1;display:inline"
       d="m 10,732.36211 0,320.00009"
       id="path3006"
       inkscape:connector-curvature="0"
       sodipodi:nodetypes="cc" />
    <path
       style="fill:none;stroke:#ff0000;stroke-width:1px;stroke-linecap:butt;stroke-linejoin:miter;stroke-opacity:1;display:inline"
       d="m 360,732.36211 0,320.00009"
       id="path3010"
       inkscape:connector-curvature="0"
       sodipodi:nodetypes="cc" />
    <path
       style="fill:none;stroke:#ff0000;stroke-width:1px;stroke-linecap:butt;stroke-linejoin:miter;stroke-opacity:1;display:inline"
       d="m 0,742.36208 370,3e-5"
       id="path3016"
       inkscape:connector-curvature="0" />
    <path
       style="fill:none;stroke:#ff0000;stroke-width:1px;stroke-linecap:butt;stroke-linejoin:miter;stroke-opacity:1;display:inline"
       d="m 0,1042.3622 370,0"
       id="path3018"
       inkscape:connector-curvature="0"
       sodipodi:nodetypes="cc" />
  </g>
  <g
     inkscape:groupmode="layer"
     id="layer3"
     inkscape:label="豚"
     sodipodi:insensitive="true">
    <path
       style="fill:#4d4d4d;stroke:none"
       d="m 473.71569,271.17457 0,103.47714 -514.386336,0 0,-164.96355 z"
       id="path3860-1"
       inkscape:connector-curvature="0"
       sodipodi:nodetypes="ccccc" />
    <path
       sodipodi:type="arc"
       style="opacity:0.5;fill:#000000;fill-opacity:1;stroke:none"
       id="path5243"
       sodipodi:cx="206.82874"
       sodipodi:cy="271.56317"
       sodipodi:rx="107.83379"
       sodipodi:ry="18.031223"
       d="m 314.66253,271.56317 a 107.83379,18.031223 0 1 1 -215.667588,0 107.83379,18.031223 0 1 1 215.667588,0 z"
       transform="matrix(0.99771711,0.06753205,-0.06753205,0.99771711,21.639812,-2.7410159)" />
    <path
       style="fill:#1a1a1a;stroke:none"
       d="M 73.420495,258.95711 73,225.25 91.299421,224.95732 283.68124,248.58221 z"
       id="path5205"
       inkscape:connector-curvature="0"
       sodipodi:nodetypes="ccccc" />
    <path
       style="fill:none;stroke:#000000;stroke-width:2;stroke-linecap:butt;stroke-linejoin:miter;stroke-opacity:1"
       d="m 473.71335,271.17626 0,103.47714 -514.386344,0 0,-164.96355 z"
       id="path3860"
       inkscape:connector-curvature="0"
       sodipodi:nodetypes="ccccc" />
    <path
       style="fill:#808080;fill-opacity:1;stroke:none"
       d="m 32.994714,-16.677801 58.487079,0 0,260.942351 c 0,21.99542 -58.487079,18.69288 -58.487079,0 z"
       id="rect3862-7-6"
       inkscape:connector-curvature="0"
       sodipodi:nodetypes="ccssc" />
    <path
       sodipodi:nodetypes="csc"
       inkscape:connector-curvature="0"
       id="path5868-3"
       d="m 218.12939,273.40256 c 8.79831,4.49696 26.04369,6.44149 35.5611,5.39493 12.6398,-1.38991 15.45937,-11.51843 1.59737,-24.33878"
       style="fill:#e06464;fill-opacity:1;stroke:#000000;stroke-width:2;stroke-linecap:butt;stroke-linejoin:miter;stroke-opacity:1;display:inline" />
    <path
       sodipodi:nodetypes="ccscccsc"
       inkscape:connector-curvature="0"
       id="path5893-1-1"
       d="m 114.75268,253.02676 c -7.67785,-19.83208 -1.41397,-46.16705 9.33935,-63.72867 -4.72129,-15.00539 10.24263,-41.22319 23.06783,-56.91931 25.70293,-31.45658 71.26715,-33.723889 96.18462,-5.00938 l -16.67383,146.70697 c -24.78544,6.82657 -49.24187,3.78269 -79.14772,2.46037 -15.7829,4.89746 -40.09324,6.21177 -44.92071,-0.11587 -6.224384,-8.1587 2.38543,-23.10796 10.13515,-28.59082"
       style="fill:#ffaaaa;stroke:none;display:inline" />
    <path
       sodipodi:nodetypes="ccscccccccsc"
       inkscape:connector-curvature="0"
       id="path5893-1-1-4"
       d="m 121.45291,253.0317 c -7.67785,-19.83208 5.41445,-47.14192 16.16777,-59.04669 -4.72129,-15.00539 7.13908,-37.93766 19.96428,-53.63378 25.70293,-31.45658 60.48898,-35.68099 85.76,-12.97689 l 13.26129,24.71963 4.06158,38.74993 2.80597,22.69558 -8.95192,43.32901 -27.85075,17.21282 c -24.78544,6.82657 -49.24187,3.78269 -79.14772,2.46037 -15.7829,4.89746 -33.36071,5.24877 -36.63518,-5.4014 -3.16197,-10.28429 10.56468,-18.10858 10.56468,-18.10858 z"
       style="fill:#e06464;fill-opacity:1;stroke:none;display:inline" />
    <path
       sodipodi:nodetypes="cc"
       inkscape:connector-curvature="0"
       id="path5872-2"
       d="m 257.74487,155.41166 c 4.0378,-12.44282 -4.60225,-30.78193 -21.87798,-35.08493"
       style="fill:#e06464;fill-opacity:1;stroke:#000000;stroke-width:2;stroke-linecap:butt;stroke-linejoin:miter;stroke-opacity:1;display:inline" />
    <path
       sodipodi:nodetypes="cc"
       inkscape:connector-curvature="0"
       id="path5889-7"
       d="m 259.61202,187.36679 c 8.12581,11.49191 6.92515,27.86378 3.05583,36.63298"
       style="fill:#e06464;fill-opacity:1;stroke:#000000;stroke-width:2;stroke-linecap:butt;stroke-linejoin:miter;stroke-opacity:1;display:inline" />
    <path
       sodipodi:nodetypes="cc"
       inkscape:connector-curvature="0"
       id="path5881-1"
       d="m 217.88834,153.95422 6.13177,6.74787"
       style="fill:none;stroke:#000000;stroke-width:2;stroke-linecap:butt;stroke-linejoin:miter;stroke-opacity:1;display:inline" />
    <path
       sodipodi:nodetypes="cc"
       inkscape:connector-curvature="0"
       id="path5883-6"
       d="m 240.93158,148.40127 -0.25012,8.9051"
       style="fill:none;stroke:#000000;stroke-width:2;stroke-linecap:butt;stroke-linejoin:miter;stroke-opacity:1;display:inline" />
    <path
       sodipodi:nodetypes="ssssss"
       inkscape:connector-curvature="0"
       id="path5885-8"
       d="m 240.82477,161.79258 c -6.95012,0.13954 -14.03456,3.21723 -21.56319,13.69827 -9.70029,13.50434 -9.38415,26.62986 0.68724,24.37235 9.49718,-2.1288 18.44587,-4.97457 25.54429,-4.73484 6.51548,0.22004 8.5537,-8.97548 6.7464,-19.07936 -1.03976,-5.81291 -4.82723,-14.38869 -11.41474,-14.25642 z"
       style="fill:#c83737;stroke:#000000;stroke-width:2;stroke-linecap:butt;stroke-linejoin:miter;stroke-opacity:1;display:inline" />
    <path
       sodipodi:nodetypes="cc"
       inkscape:connector-curvature="0"
       id="path5887-5"
       d="m 254.51828,150.58234 c 11.87498,15.25737 11.45447,34.50513 2.18634,48.66729"
       style="fill:#e06464;fill-opacity:1;stroke:#000000;stroke-width:2;stroke-linecap:butt;stroke-linejoin:miter;stroke-opacity:1;display:inline" />
    <path
       sodipodi:nodetypes="cc"
       inkscape:connector-curvature="0"
       id="path5891-6"
       d="m 259.59117,206.05005 c 7.31555,16.36926 4.6277,39.36822 -6.19008,50.44514"
       style="fill:#d35f5f;stroke:#000000;stroke-width:2;stroke-linecap:butt;stroke-linejoin:miter;stroke-opacity:1;display:inline" />
    <path
       sodipodi:nodetypes="ccscccsc"
       inkscape:connector-curvature="0"
       id="path5893-1"
       d="m 226.67092,274.07643 c -24.78544,6.82657 -49.24187,3.78269 -79.14772,2.46037 -15.7829,4.89746 -40.09324,6.21177 -44.9207,-0.11587 -6.224389,-8.1587 2.38542,-23.10796 10.13514,-28.59082 m 2.01531,5.19671 c -7.67785,-19.83208 -1.41397,-46.16705 9.33935,-63.72867 -4.72129,-15.00539 10.24263,-41.22319 23.06783,-56.91931 25.70293,-31.45658 71.26715,-33.723885 96.18462,-5.00938"
       style="fill:none;stroke:#000000;stroke-width:2;stroke-linecap:butt;stroke-linejoin:miter;stroke-opacity:1;display:inline" />
    <path
       sodipodi:nodetypes="sss"
       inkscape:connector-curvature="0"
       id="path5903-8"
       d="m 224.66291,191.56567 c 1.84079,4.02594 10.13504,-17.38723 7.90798,-18.33681 -2.95231,-1.2588 -10.31838,13.06507 -7.90798,18.33681 z"
       style="fill:#000000;stroke:#000000;stroke-width:2;stroke-linecap:butt;stroke-linejoin:miter;stroke-opacity:1;display:inline" />
    <path
       sodipodi:nodetypes="sss"
       inkscape:connector-curvature="0"
       id="path5905-9"
       d="m 242.45806,172.16677 c -2.68426,0.704 -1.3727,18.88067 0.62367,17.00704 4.18569,-3.92833 1.68177,-17.61168 -0.62367,-17.00704 z"
       style="fill:#000000;stroke:#000000;stroke-width:2;stroke-linecap:butt;stroke-linejoin:miter;stroke-opacity:1;display:inline" />
    <path
       sodipodi:nodetypes="csc"
       inkscape:connector-curvature="0"
       id="path5874-2-6"
       d="m 162.45413,120.95034 c -32.55295,6.43665 -35.29074,42.71768 -17.95756,58.6624 8.10475,7.45552 24.44888,-18.76665 33.33362,-26.47129"
       style="fill:#ffaaaa;stroke:none;display:inline" />
    <path
       sodipodi:nodetypes="csccc"
       inkscape:connector-curvature="0"
       id="path5874-2-6-0"
       d="m 170.594,129.76117 c -24.05295,1.68665 -33.96232,29.71983 -23.34665,45.84133 6.05632,9.19743 21.69888,-14.76665 30.58362,-22.47129 l 0.15518,-15.6328 z"
       style="fill:#e06464;fill-opacity:1;stroke:none;display:inline" />
    <path
       sodipodi:nodetypes="csc"
       inkscape:connector-curvature="0"
       id="path5874-2"
       d="m 162.45743,120.94574 c -32.55295,6.43665 -35.29074,42.71768 -17.95756,58.6624 8.10475,7.45552 24.44888,-18.76665 33.33362,-26.47129"
       style="fill:none;stroke:#000000;stroke-width:2;stroke-linecap:butt;stroke-linejoin:miter;stroke-opacity:1;display:inline" />
    <g
       id="g4888">
      <path
         sodipodi:nodetypes="cccsscc"
         inkscape:connector-curvature="0"
         id="path18444-7"
         d="m 131.47734,246.26579 1.02994,45.59654 5.48452,4.88039 69.68584,3.35525 c 3.46068,0.16663 6.01137,-1.08032 5.80715,-4.27033 L 210.48,248.89101 z"
         style="fill:#483737;stroke:#000000;stroke-width:2;stroke-linecap:butt;stroke-linejoin:miter;stroke-opacity:1;display:inline" />
      <path
         sodipodi:nodetypes="csssscc"
         inkscape:connector-curvature="0"
         id="path18444"
         d="m 129.37754,246.33335 -2.62009,46.2436 c -0.12969,2.28896 0.29004,4.63026 5.48453,4.88037 l 69.68582,3.35527 c 3.47105,0.16713 5.77003,-1.53239 5.80716,-4.27033 l 0.64524,-47.58367 z"
         style="fill:#6c5353;stroke:#000000;stroke-width:2;stroke-linecap:butt;stroke-linejoin:miter;stroke-opacity:1;display:inline" />
      <path
         inkscape:connector-curvature="0"
         id="path18464"
         d="m 129.06211,255.81929 78.93177,3.45096"
         style="fill:none;stroke:#000000;stroke-width:2;stroke-linecap:butt;stroke-linejoin:miter;stroke-opacity:1;display:inline" />
      <path
         sodipodi:nodetypes="cc"
         inkscape:connector-curvature="0"
         id="path18466"
         d="m 146.01253,246.76361 -0.63132,9.70578"
         style="fill:none;stroke:#000000;stroke-width:2;stroke-linecap:butt;stroke-linejoin:miter;stroke-opacity:1;display:inline" />
      <path
         sodipodi:nodetypes="cc"
         inkscape:connector-curvature="0"
         id="path18468"
         d="m 151.20637,247.03574 -0.49692,9.7713"
         style="fill:none;stroke:#000000;stroke-width:2;stroke-linecap:butt;stroke-linejoin:miter;stroke-opacity:1;display:inline" />
      <path
         sodipodi:nodetypes="cc"
         inkscape:connector-curvature="0"
         id="path18470"
         d="m 182.5824,248.1662 -0.6181,9.95404"
         style="fill:none;stroke:#000000;stroke-width:2;stroke-linecap:butt;stroke-linejoin:miter;stroke-opacity:1;display:inline" />
      <path
         sodipodi:nodetypes="cc"
         inkscape:connector-curvature="0"
         id="path18472"
         d="m 188.1314,248.34817 -0.57476,10.1281"
         style="fill:none;stroke:#000000;stroke-width:2;stroke-linecap:butt;stroke-linejoin:miter;stroke-opacity:1;display:inline" />
      <path
         sodipodi:nodetypes="ccccccccc"
         inkscape:connector-curvature="0"
         id="path18476"
         d="m 143.34964,248.016 0.76026,-8.32187 10.45392,0.13255 -0.46393,8.83927 -2.58972,-0.17246 0.20758,-4.4428 -5.80714,-0.17247 -0.46394,4.13778 z"
         style="fill:#808000;stroke:#000000;stroke-width:2;stroke-linecap:butt;stroke-linejoin:miter;stroke-opacity:1;display:inline" />
      <path
         sodipodi:nodetypes="ccccccccc"
         inkscape:connector-curvature="0"
         id="path18476-6"
         d="m 179.56146,250.1357 0.9591,-8.58698 10.65275,0.26511 -0.39766,8.90554 -2.85484,-0.10617 0.0751,-5.03929 -5.34322,-0.0399 -0.39766,4.66799 z"
         style="fill:#808000;stroke:#000000;stroke-width:2;stroke-linecap:butt;stroke-linejoin:miter;stroke-opacity:1;display:inline" />
      <path
         sodipodi:nodetypes="cssccsscc"
         inkscape:connector-curvature="0"
         id="path18496"
         d="m 146.51644,244.17127 c 0.13568,-4.83451 -0.14744,-10.75309 4.20079,-13.7213 7.51678,-5.13115 20.46496,-7.11515 31.9659,-2.00944 6.77729,3.00871 6.20611,5.7014 5.45973,17.27713 l -5.3641,-0.21569 c 1.24131,-8.52641 1.58843,-11.61861 -2.25346,-12.97915 -6.32074,-2.23837 -18.05566,-4.436 -27.01472,1.6664 -2.64194,1.79953 -2.94179,6.45654 -2.95413,10.06635 z"
         style="fill:#280b0b;stroke:#000000;stroke-width:2;stroke-linecap:butt;stroke-linejoin:miter;stroke-opacity:1;display:inline" />
    </g>
    <g
       id="g4926">
      <path
         sodipodi:nodetypes="csssc"
         inkscape:connector-curvature="0"
         id="path5879-2-7"
         d="m 150.5429,205.09652 c 1.19932,16.66753 7.61329,32.48607 14.82204,34.20021 3.18001,0.75615 4.08701,-2.34097 6.83457,-2.54397 2.23206,-0.16495 3.4223,1.36267 5.01513,2.03896 4.03924,1.71501 14.21596,-11.18399 19.99025,-25.6836"
         style="fill:#e06464;fill-opacity:1;stroke:none;display:inline" />
      <path
         style="fill:#c83737;stroke:none;display:inline"
         d="m 157.32232,231.09304 c 2.01055,3.32871 5.15951,7.67599 7.99671,8.25687 3.20225,0.65564 4.08701,-2.34095 6.83455,-2.54398 2.23207,-0.16493 3.68438,1.47094 5.01516,2.03899 2.45462,1.04779 7.08953,-3.8875 10.0718,-8.14634 -0.35113,-8.59924 -28.81952,-7.7383 -29.91822,0.39446 z"
         id="path5864-1-4"
         inkscape:connector-curvature="0"
         sodipodi:nodetypes="cssscc" />
      <path
         style="fill:none;stroke:#000000;stroke-width:2;stroke-linecap:butt;stroke-linejoin:miter;stroke-opacity:1;display:inline"
         d="m 157.30338,231.22565 c 0.40332,-7.38728 29.05514,-9.40104 29.98686,-0.3616"
         id="path5864-2"
         inkscape:connector-curvature="0"
         sodipodi:nodetypes="cc" />
      <path
         style="fill:none;stroke:#000000;stroke-width:2;stroke-linecap:butt;stroke-linejoin:miter;stroke-opacity:1;display:inline"
         d="m 150.54115,205.09605 c 1.19932,16.66753 7.61329,32.48607 14.82204,34.20021 3.18001,0.75615 4.08701,-2.34097 6.83457,-2.54397 2.23206,-0.16495 3.4223,1.36267 5.01513,2.03896 4.03924,1.71501 14.21596,-11.18399 19.99025,-25.6836"
         id="path5879-2"
         inkscape:connector-curvature="0"
         sodipodi:nodetypes="csssc" />
    </g>
    <path
       style="fill:#fff6d5;fill-opacity:1;stroke:none;display:inline"
       d="m 33.005196,-42.63124 18.370939,0 c 4.36179,0 7.873261,3.540164 7.873261,7.937586 l 0,146.089044 c 0,4.39743 -3.522008,7.6346 -7.873261,7.93759 -5.063595,0.3526 -13.764764,-1.18719 -18.370939,-3.15625"
       id="rect4061-7"
       inkscape:connector-curvature="0"
       sodipodi:nodetypes="cssssc" />
    <path
       style="fill:#008000;fill-opacity:1;stroke:none;display:inline"
       d="m 33.203095,95.12504 c 8.687474,2.46281 15.974308,3.05809 23.283672,3.68342 l 0,10.81525 c 0,5.05042 -2.152428,6.86176 -6.985102,7.04218 -4.50013,0.16801 -12.118254,-1.42827 -16.29857,-2.92521"
       id="rect4061-7-7"
       inkscape:connector-curvature="0"
       sodipodi:nodetypes="ccssc" />
    <path
       style="fill:none;stroke:#000000;stroke-width:2;stroke-linecap:round;stroke-miterlimit:4;stroke-opacity:1;stroke-dashoffset:0;display:inline"
       d="m 59.246543,-34.696294 0,146.089044 c 0,4.39743 -3.522695,7.62491 -7.87326,7.93759 -4.509096,0.32407 -13.309704,-0.97963 -18.370942,-3.15349"
       id="rect4061"
       inkscape:connector-curvature="0"
       sodipodi:nodetypes="cssc" />
    <path
       style="opacity:0.5;fill:#4d4d4d;fill-opacity:1;stroke:none"
       d="m 73.211859,-16.677759 18.267148,0 0,260.942349 c 0,6.64187 -5.392148,12.56788 -18.267148,14.375 z"
       id="rect3862-7"
       inkscape:connector-curvature="0"
       sodipodi:nodetypes="ccscc" />
    <path
       style="fill:none;stroke:#000000;stroke-width:2"
       d="m 32.99271,-16.675611 58.487076,0 0,260.942351 c 0,21.99542 -58.487076,18.69288 -58.487076,0 z"
       id="rect3862"
       inkscape:connector-curvature="0"
       sodipodi:nodetypes="ccssc" />
  </g>
  <g
     inkscape:groupmode="layer"
     id="layer4"
     inkscape:label="字幕"
     style="display:inline"
     sodipodi:insensitive="true">
    <text
       xml:space="preserve"
       style="font-size:70.34015656px;font-style:normal;font-weight:normal;line-height:125%;letter-spacing:0px;word-spacing:0px;writing-mode:lr-tb;fill:#000000;fill-opacity:1;stroke:none;font-family:Sans"
       x="82.628853"
       y="70.930664"
       id="text6768"
       sodipodi:linespacing="125%"><tspan
         sodipodi:role="line"
         id="tspan6770"
         x="82.628853"
         y="70.930664"
         style="font-weight:bold;-inkscape-font-specification:Sans Bold">帰宅中</tspan></text>
  </g>
  <g
     inkscape:groupmode="layer"
     id="layer2"
     inkscape:label="枠面"
     sodipodi:insensitive="true">
    <path
       style="fill:#ffffff;stroke:none;display:inline"
       d="m 0,0 0,320 370,0 0,-320 -10,10 0,300 -350,0 0,-300 350,0 10,-10 z"
       id="path21072"
       inkscape:connector-curvature="0"
       sodipodi:nodetypes="ccccccccccc" />
  </g>
</svg>
