<?xml version="1.0" encoding="UTF-8" standalone="no"?>
<!-- Created with Inkscape (http://www.inkscape.org/) -->

<svg
   xmlns:dc="http://purl.org/dc/elements/1.1/"
   xmlns:cc="http://creativecommons.org/ns#"
   xmlns:rdf="http://www.w3.org/1999/02/22-rdf-syntax-ns#"
   xmlns:svg="http://www.w3.org/2000/svg"
   xmlns="http://www.w3.org/2000/svg"
   xmlns:sodipodi="http://sodipodi.sourceforge.net/DTD/sodipodi-0.dtd"
   xmlns:inkscape="http://www.inkscape.org/namespaces/inkscape"
   width="370"
   height="320"
   id="svg3172"
   version="1.1"
   inkscape:version="0.48.4 r9939"
   sodipodi:docname="[13]検討.svg"
   inkscape:export-filename="C:\Users\執安\Desktop\資料\臨時\BUTING\[13]検討.png"
   inkscape:export-xdpi="90"
   inkscape:export-ydpi="90">
  <defs
     id="defs3174" />
  <sodipodi:namedview
     id="base"
     pagecolor="#ffffff"
     bordercolor="#666666"
     borderopacity="1.0"
     inkscape:pageopacity="0.0"
     inkscape:pageshadow="2"
     inkscape:zoom="1"
     inkscape:cx="82.224512"
     inkscape:cy="84.788154"
     inkscape:document-units="px"
     inkscape:current-layer="layer3"
     showgrid="false"
     inkscape:window-width="1102"
     inkscape:window-height="698"
     inkscape:window-x="-7"
     inkscape:window-y="-5"
     inkscape:window-maximized="0" />
  <metadata
     id="metadata3177">
    <rdf:RDF>
      <cc:Work
         rdf:about="">
        <dc:format>image/svg+xml</dc:format>
        <dc:type
           rdf:resource="http://purl.org/dc/dcmitype/StillImage" />
        <dc:title></dc:title>
      </cc:Work>
    </rdf:RDF>
  </metadata>
  <g
     inkscape:label="補助線"
     inkscape:groupmode="layer"
     id="layer1"
     transform="translate(0,-732.36218)"
     sodipodi:insensitive="true"
     style="display:none">
    <path
       style="fill:none;stroke:#0000ff;stroke-width:1px;stroke-linecap:butt;stroke-linejoin:miter;stroke-opacity:1;display:inline"
       d="M 10,1042.3622 360,742.36211"
       id="path3025"
       inkscape:connector-curvature="0"
       sodipodi:nodetypes="cc" />
    <path
       style="fill:none;stroke:#0000ff;stroke-width:1px;stroke-linecap:butt;stroke-linejoin:miter;stroke-opacity:1;display:inline"
       d="M 10,742.36211 360,1042.3622"
       id="path3027"
       inkscape:connector-curvature="0"
       sodipodi:nodetypes="cc" />
    <path
       style="fill:none;stroke:#ff0000;stroke-width:1px;stroke-linecap:butt;stroke-linejoin:miter;stroke-opacity:1;display:inline"
       d="m 10,732.36211 0,320.00009"
       id="path3006"
       inkscape:connector-curvature="0"
       sodipodi:nodetypes="cc" />
    <path
       style="fill:none;stroke:#ff0000;stroke-width:1px;stroke-linecap:butt;stroke-linejoin:miter;stroke-opacity:1;display:inline"
       d="m 360,732.36211 0,320.00009"
       id="path3010"
       inkscape:connector-curvature="0"
       sodipodi:nodetypes="cc" />
    <path
       style="fill:none;stroke:#ff0000;stroke-width:1px;stroke-linecap:butt;stroke-linejoin:miter;stroke-opacity:1;display:inline"
       d="m 0,742.36208 370,3e-5"
       id="path3016"
       inkscape:connector-curvature="0" />
    <path
       style="fill:none;stroke:#ff0000;stroke-width:1px;stroke-linecap:butt;stroke-linejoin:miter;stroke-opacity:1;display:inline"
       d="m 0,1042.3622 370,0"
       id="path3018"
       inkscape:connector-curvature="0"
       sodipodi:nodetypes="cc" />
  </g>
  <g
     inkscape:groupmode="layer"
     id="layer3"
     inkscape:label="豚"
     sodipodi:insensitive="true">
    <path
       style="fill:#2d1650;stroke:#000000;stroke-width:2;stroke-linecap:butt;stroke-linejoin:miter;stroke-opacity:1"
       d="m 273.7147,118.36581 c -13.46643,0.79857 -29.79109,-6.90167 -39.27817,-29.979187 -12.28802,21.808267 -7.27025,41.240017 -4.23134,65.661167 -2.22157,-23.13753 5.98542,-27.18732 16.00951,-10.18198 0.29976,-12.97737 8.70022,-16.41194 14.55025,-8.89949"
       id="path26430-0"
       inkscape:connector-curvature="0"
       sodipodi:nodetypes="ccccc" />
    <path
       style="fill:#2d1650;stroke:#000000;stroke-width:2;stroke-linecap:butt;stroke-linejoin:miter;stroke-opacity:1"
       d="m 293,117 c 13.46643,0.79857 24.01292,-15.92248 33.5,-38.999999 34.20833,26.758009 31.94791,53.432399 31.03033,75.732229 C 344.7519,133.0947 327.52409,129.49466 326,147 319.70024,134.02263 309.79978,126.58806 307.94975,136.60051"
       id="path26430"
       inkscape:connector-curvature="0"
       sodipodi:nodetypes="ccccc" />
    <path
       style="fill:#ffd5d5;stroke:#000000;stroke-width:2;stroke-linecap:butt;stroke-linejoin:miter;stroke-opacity:1;display:inline"
       d="m 149.32496,242.43044 c -12.46829,15.23888 -16.50963,32.79258 -9.72773,50.46144 l 145.56711,-1.06354 c 6.12266,-26.33539 0.55373,-51.94026 -16.43228,-67.07277 L 158.35032,212.30251 z"
       id="path17261-4"
       inkscape:connector-curvature="0"
       sodipodi:nodetypes="cccccc" />
    <rect
       style="fill:#552200;fill-opacity:1;stroke:#000000;stroke-width:2"
       id="rect5515"
       width="567.89984"
       height="77.487236"
       x="-77.487236"
       y="276.15854"
       rx="0"
       ry="0" />
    <g
       id="g26426">
      <path
         sodipodi:nodetypes="csccc"
         inkscape:connector-curvature="0"
         id="path5405-1"
         d="m 136.33009,121.47656 c 4.45898,-4.92959 17.06481,-19.75486 23.76843,-15.6453 7.47271,4.581 3.66651,27.58906 4.33206,41.68497 -4.26058,-1.00582 -5.85023,-5.74455 -7.50502,-10.58719 l -16.20387,6.38897"
         style="fill:#fffff8;fill-opacity:1;stroke:#000000;stroke-width:2;stroke-linecap:butt;stroke-linejoin:miter;stroke-opacity:1;display:inline" />
      <path
         sodipodi:nodetypes="ccc"
         inkscape:connector-curvature="0"
         id="path5413-6-4"
         d="m 147.29481,136.85798 c 0.51251,7.0177 0.2609,10.95299 3.36852,14.62869 2.65831,-5.51295 7.18913,-15.86147 5.52157,-19.62194"
         style="fill:#fffff8;fill-opacity:1;stroke:#000000;stroke-width:2;stroke-linecap:butt;stroke-linejoin:miter;stroke-opacity:1;display:inline" />
    </g>
    <g
       id="g26474">
      <path
         sodipodi:nodetypes="ccccccc"
         inkscape:connector-curvature="0"
         id="path5091-2-4-9-9-2-6-2-2-7"
         d="m 233.53348,107.53811 c -7.06126,3.91556 -7.55534,15.47075 -3.71644,19.48246 l 11.42601,38.04769 23.45602,34.36049 35.67882,-3.68626 3.45047,-73.69342 z"
         style="fill:#ffd5d5;stroke:#000000;stroke-width:2;stroke-linecap:butt;stroke-linejoin:miter;stroke-opacity:1;display:inline" />
      <path
         sodipodi:nodetypes="csssc"
         inkscape:connector-curvature="0"
         id="path5109-2-7-7-9-5-5-2-8-2-6-6"
         d="m 244.63271,172.21845 c -5.46961,3.81868 -9.97294,4.22634 -14.65398,3.29687 -1.85799,-0.36891 0.035,-2.99768 -1.42524,-5.0268 -1.01904,-1.41595 -3.79009,-0.94375 -4.01964,-1.93269 -0.99997,-4.30834 7.20849,-18.35673 12.94251,-24.43022"
         style="fill:#ffd5d5;stroke:none;display:inline" />
      <path
         sodipodi:nodetypes="ccsssc"
         inkscape:connector-curvature="0"
         id="path5111-7-6-1-2-8-2-6-3-8-9-6"
         d="m 236.56047,175.61906 c 3.95661,-3.00371 -6.00754,-17.08992 -10.28225,-14.34964 0,0 -2.55672,4.91083 -1.72488,7.30235 0.33535,0.96414 3.0006,0.51674 4.01961,1.93267 1.46031,2.02913 -0.28764,4.17675 1.42527,5.02683 2.3178,1.15028 6.56225,0.0878 6.56225,0.0878 z"
         style="fill:#ffaaaa;stroke:none;display:inline" />
      <path
         sodipodi:nodetypes="cc"
         inkscape:connector-curvature="0"
         id="path5111-7-6-1-2-8-29-6-9-3-5"
         d="m 236.67909,175.55495 c 3.95663,-3.00369 -6.06313,-16.97797 -10.33786,-14.23772"
         style="fill:none;stroke:#000000;stroke-width:2;stroke-linecap:butt;stroke-linejoin:miter;stroke-opacity:1;display:inline" />
      <path
         sodipodi:nodetypes="csssc"
         inkscape:connector-curvature="0"
         id="path5109-2-7-7-9-5-5-4-2-5-8"
         d="m 244.64342,172.24163 c -6.09879,3.35811 -8.27087,4.40929 -14.65396,3.29688 -1.86614,-0.32522 0.035,-2.99769 -1.42525,-5.0268 -1.01902,-1.41595 -3.79009,-0.94375 -4.01963,-1.93271 -0.99998,-4.30834 7.20848,-18.35671 12.9425,-24.4302"
         style="fill:none;stroke:#000000;stroke-width:2;stroke-linecap:butt;stroke-linejoin:miter;stroke-opacity:1;display:inline" />
      <path
         id="path3536-4-1-7-2-8-7-2"
         d="m 273.79558,199.1613 c -1.806,4.21022 -5.89005,11.41294 -10.60275,8.2111 -9.78615,-6.64881 -19.34053,-21.88026 -18.70778,-41.2506"
         style="fill:#ffd5d5;stroke:#000000;stroke-width:2;stroke-linecap:butt;stroke-linejoin:miter;stroke-opacity:1;display:inline"
         inkscape:connector-curvature="0"
         sodipodi:nodetypes="csc" />
      <path
         sodipodi:nodetypes="cc"
         inkscape:connector-curvature="0"
         id="path8790-4-2-4-5"
         d="m 301.58707,192.42443 c -7.91646,6.46087 -27.8153,8.07375 -32.93412,5.19149"
         style="fill:#ffd5d5;stroke:#000000;stroke-width:2;stroke-linecap:butt;stroke-linejoin:miter;stroke-opacity:1;display:inline" />
      <path
         style="fill:#ffd5d5;stroke:#000000;stroke-width:2;stroke-linecap:butt;stroke-linejoin:miter;stroke-opacity:1;display:inline"
         d="m 302.40071,117.60753 c 24.91136,28.76483 21.22475,63.77199 6.78277,82.61797 -4.36902,5.70131 -13.29383,-1.48545 -15.81052,-6.36085"
         id="path8717-6-5-0-4"
         inkscape:connector-curvature="0"
         sodipodi:nodetypes="csc" />
      <path
         sodipodi:nodetypes="csssc"
         inkscape:connector-curvature="0"
         id="path5109-2-7-7-9-5-5-2-8-2-4"
         d="m 289.61876,161.77996 c -9.05542,6.60523 -22.26508,12.04243 -27.69335,9.88959 -1.76085,-0.69835 0.035,-2.99769 -1.42525,-5.02681 -1.01904,-1.41594 -3.79009,-0.94375 -4.01964,-1.93269 -0.99996,-4.30836 7.2085,-18.35672 12.94251,-24.43021"
         style="fill:#ffd5d5;stroke:none;display:inline" />
      <path
         style="fill:#ffd5d5;stroke:#000000;stroke-width:2;stroke-linecap:butt;stroke-linejoin:miter;stroke-opacity:1;display:inline"
         d="m 231.56215,113.86355 c 1.78752,-9.10396 13.19708,-20.942573 30.37805,-20.876304 24.13067,0.09308 43.92975,20.271294 46.20011,33.652014"
         id="path9069-1-2-1"
         inkscape:connector-curvature="0"
         sodipodi:nodetypes="csc" />
      <path
         sodipodi:nodetypes="cc"
         inkscape:connector-curvature="0"
         id="path5093-4-2-4-9-8-1-4-1-6"
         d="m 230.80499,123.49072 c -3.25394,9.19907 -1.56334,22.33298 10.2902,28.12904"
         style="fill:#ffd5d5;stroke:#000000;stroke-width:2;stroke-linecap:butt;stroke-linejoin:miter;stroke-opacity:1;display:inline" />
      <path
         sodipodi:nodetypes="cc"
         inkscape:connector-curvature="0"
         id="path5095-5-3-8-6-2-8-6-6-1"
         d="m 235.40625,122.24014 2.81089,3.18603"
         style="fill:none;stroke:#000000;stroke-width:2;stroke-linecap:butt;stroke-linejoin:miter;stroke-opacity:1;display:inline" />
      <path
         sodipodi:nodetypes="cc"
         inkscape:connector-curvature="0"
         id="path5097-5-2-8-8-8-2-2-8-6"
         d="m 248.55318,118.93771 -1.85734,5.19976"
         style="fill:none;stroke:#000000;stroke-width:2;stroke-linecap:butt;stroke-linejoin:miter;stroke-opacity:1;display:inline" />
      <path
         sodipodi:nodetypes="csc"
         inkscape:connector-curvature="0"
         id="path5099-1-2-2-3-9-1-9-5-3"
         d="m 272.78009,96.726919 c 22.04765,-0.732218 26.49703,22.948681 17.72249,29.860371 -3.5493,2.79578 -15.48362,-8.54953 -20.19208,-11.39159"
         style="fill:none;stroke:#000000;stroke-width:2;stroke-linecap:butt;stroke-linejoin:miter;stroke-opacity:1;display:inline" />
      <path
         sodipodi:nodetypes="ssssss"
         inkscape:connector-curvature="0"
         id="path5101-7-1-4-4-0-1-1-7-3"
         d="m 240.94158,127.04729 c 5.37818,-0.76779 12.61263,2.38248 17.76818,6.65799 5.98378,4.96234 5.22683,10.23646 -0.74591,10.42361 -5.5719,0.1746 -10.61938,0.69948 -13.77308,1.35951 -3.92041,0.82046 -6.04188,-3.53671 -7.32691,-8.05451 -1.21559,-4.27366 -0.75696,-9.69642 4.07772,-10.3866 z"
         style="fill:#ffaaaa;stroke:#000000;stroke-width:2;stroke-linecap:butt;stroke-linejoin:miter;stroke-opacity:1;display:inline" />
      <path
         inkscape:connector-curvature="0"
         id="path5105-1-6-5-8-7-9-5-6-5"
         d="m 253.59594,139.80829 c -0.29642,1.26092 -8.36292,-7.5699 -7.36872,-7.68715 0.81019,-0.0955 8.14045,4.40425 7.36872,7.68715 z"
         style="fill:#000000;stroke:#000000;stroke-width:2;stroke-linecap:butt;stroke-linejoin:miter;stroke-opacity:1;display:inline"
         sodipodi:nodetypes="sss" />
      <path
         inkscape:connector-curvature="0"
         id="path5107-1-8-5-4-8-7-0-1-5"
         d="m 240.87842,132.61115 c 0.47252,-0.67725 5.43385,8.87807 4.05634,8.46188 -2.40627,-0.72701 -4.58891,-7.69857 -4.05634,-8.46188 z"
         style="fill:#000000;stroke:#000000;stroke-width:2;stroke-linecap:butt;stroke-linejoin:miter;stroke-opacity:1;display:inline"
         sodipodi:nodetypes="sss" />
      <path
         sodipodi:nodetypes="ccsssc"
         inkscape:connector-curvature="0"
         id="path5111-7-6-1-2-8-2-6-3-8-3"
         d="m 268.50713,171.77327 c 3.95663,-3.0037 -6.00753,-17.0899 -10.28224,-14.34964 0,0 -2.55673,4.91084 -1.72488,7.30236 0.33536,0.96413 3.0006,0.51675 4.0196,1.93267 1.46031,2.02914 -0.28763,4.17675 1.42527,5.02683 2.31782,1.15029 6.56225,0.0878 6.56225,0.0878 z"
         style="fill:#ffaaaa;stroke:none;display:inline" />
      <path
         sodipodi:nodetypes="cc"
         inkscape:connector-curvature="0"
         id="path5111-7-6-1-2-8-29-6-9-2"
         d="m 268.62575,171.70917 c 3.95663,-3.00369 -6.06313,-16.97797 -10.33786,-14.23772"
         style="fill:none;stroke:#000000;stroke-width:2;stroke-linecap:butt;stroke-linejoin:miter;stroke-opacity:1;display:inline" />
      <path
         sodipodi:nodetypes="csssc"
         inkscape:connector-curvature="0"
         id="path5109-2-7-7-9-5-5-4-2-8"
         d="m 289.62947,161.80314 c -9.05541,6.60522 -22.26508,12.04242 -27.69334,9.88959 -1.76085,-0.69834 0.035,-2.99769 -1.42525,-5.02681 -1.01903,-1.41595 -3.79009,-0.94374 -4.01963,-1.9327 -0.99997,-4.30835 7.20848,-18.35672 12.9425,-24.4302"
         style="fill:none;stroke:#000000;stroke-width:2;stroke-linecap:butt;stroke-linejoin:miter;stroke-opacity:1;display:inline" />
    </g>
    <path
       sodipodi:nodetypes="ccccccc"
       inkscape:connector-curvature="0"
       id="path17396-1-5"
       d="m -456.57661,278.1592 c -13.77302,3.029 -22.41962,22.408 -17.03591,31.68846 l -2.13036,20.63157 -18.10656,63.16039 126.86573,-19.03279 -0.88388,-35.55248 z"
       style="fill:#ffd5d5;stroke:#000000;stroke-width:2;stroke-linecap:butt;stroke-linejoin:miter;stroke-opacity:1;display:inline" />
    <path
       style="fill:#ffd5d5;stroke:#000000;stroke-width:2;stroke-linecap:butt;stroke-linejoin:miter;stroke-opacity:1;display:inline"
       d="m -482.91072,349.85775 c -12.46829,15.23888 -16.50963,32.79258 -9.72773,50.46144"
       id="path17261-4-2"
       inkscape:connector-curvature="0"
       sodipodi:nodetypes="cc" />
    <path
       style="fill:#ffd5d5;stroke:none;display:inline"
       d="m -369.23255,335.18315 c 30.27189,14.87693 31.56315,41.95627 21.65468,43.87502 -15.07916,2.92007 -43.62038,3.6551 -47.19942,1.84027 -3.24346,-1.6447 -0.79936,-1.90355 -1.54491,-4.27107 -0.71381,-2.26687 -10.21248,0.16571 -10.55096,-1.73586 -0.88014,-4.94452 16.8343,-15.6685 25.43955,-16.31065"
       id="path17392-7-0-7"
       inkscape:connector-curvature="0"
       sodipodi:nodetypes="cssssc" />
    <path
       sodipodi:nodetypes="ccsssc"
       inkscape:connector-curvature="0"
       id="path17422-1-9-6"
       d="m -396.72501,364.937 c 6.85628,-4.20015 22.85373,14.65006 14.20575,16.91809 0,0 -8.92491,0.31545 -12.03873,-0.95665 -3.36653,-1.37534 -0.79936,-1.90355 -1.54491,-4.27107 -0.71381,-2.26687 -10.2259,0.16802 -10.55096,-1.73586 -0.72506,-4.24672 9.92885,-9.95451 9.92885,-9.95451 z"
       style="fill:#ffaaaa;stroke:none;display:inline" />
    <path
       style="fill:none;stroke:#000000;stroke-width:2;stroke-linecap:butt;stroke-linejoin:miter;stroke-opacity:1;display:inline"
       d="m -369.08828,335.33413 c 30.27189,14.87692 31.56315,41.95626 21.65468,43.87502 -15.07916,2.92006 -43.62038,3.65509 -47.19942,1.84026 -3.24346,-1.64469 -0.79936,-1.90355 -1.54491,-4.27106 -0.71381,-2.26687 -10.21248,0.1657 -10.55096,-1.73587 -0.88014,-4.94452 16.8343,-15.66849 25.43955,-16.31064"
       id="path17392-4-1"
       inkscape:connector-curvature="0"
       sodipodi:nodetypes="cssssc" />
    <path
       sodipodi:nodetypes="cc"
       inkscape:connector-curvature="0"
       id="path17390-8-4"
       d="m -468.70678,301.42078 c -7.64679,9.57567 -12.11783,29.52863 0.8005,43.25697"
       style="fill:#ffd5d5;stroke:#000000;stroke-width:2;stroke-linecap:butt;stroke-linejoin:miter;stroke-opacity:1;display:inline" />
    <path
       style="fill:#ffd5d5;stroke:#000000;stroke-width:2;stroke-linecap:butt;stroke-linejoin:miter;stroke-opacity:1;display:inline"
       d="m -462.17019,284.17451 c 13.48484,-20.81366 50.50054,-22.54549 72.90666,1.80731 16.54943,17.9873 28.89558,42.06958 26.462,58.71767"
       id="path5977-8-2"
       inkscape:connector-curvature="0"
       sodipodi:nodetypes="csc" />
    <path
       sodipodi:nodetypes="ssssss"
       inkscape:connector-curvature="0"
       id="path17394-2-3"
       d="m -453.87971,307.9443 c -6.05565,-1.04095 -9.91699,4.65519 -11.51644,10.20391 -1.74683,6.05999 -0.76852,20.76205 6.35526,20.19205 6.6356,-0.53093 13.30573,1.72165 22.13559,3.83331 8.22735,1.96757 11.15815,-5.93941 5.97667,-15.03902 -4.94054,-8.67647 -14.87009,-17.80114 -22.95108,-19.19025 z"
       style="fill:#ffaaaa;stroke:#000000;stroke-width:2;stroke-linecap:butt;stroke-linejoin:miter;stroke-opacity:1;display:inline" />
    <path
       sodipodi:nodetypes="csc"
       inkscape:connector-curvature="0"
       id="path17398-4-2"
       d="m -404.20304,276.48539 c 29.11613,4.47513 33.90757,40.34874 18.35388,46.92409 -4.26377,1.80251 -14.38309,-13.7269 -23.85412,-20.6306"
       style="fill:#ffd5d5;stroke:#000000;stroke-width:2;stroke-linecap:butt;stroke-linejoin:miter;stroke-opacity:1;display:inline" />
    <path
       sodipodi:nodetypes="cc"
       inkscape:connector-curvature="0"
       id="path17404-5-2"
       d="m -458.31217,298.98309 0.39392,5.3076"
       style="fill:none;stroke:#000000;stroke-width:2;stroke-linecap:butt;stroke-linejoin:miter;stroke-opacity:1;display:inline" />
    <path
       sodipodi:nodetypes="cc"
       inkscape:connector-curvature="0"
       id="path17406-5-1"
       d="m -443.86479,307.29713 4.24082,-5.53974"
       style="fill:none;stroke:#000000;stroke-width:2;stroke-linecap:butt;stroke-linejoin:miter;stroke-opacity:1;display:inline" />
    <path
       sodipodi:nodetypes="sss"
       inkscape:connector-curvature="0"
       id="path17408-1-6"
       d="m -449.84641,317.30026 c 2.06736,-0.77579 10.62829,10.51079 7.1605,15.72796 -1.54396,2.32279 -8.80268,-15.11196 -7.1605,-15.72796 z"
       style="fill:#000000;stroke:#000000;stroke-width:2;stroke-linecap:butt;stroke-linejoin:miter;stroke-opacity:1;display:inline" />
    <path
       sodipodi:nodetypes="sss"
       inkscape:connector-curvature="0"
       id="path17410-7-8"
       d="m -456.96952,316.25429 c 1.80423,0.7293 3.81526,17.02366 1.59706,15.48006 -4.79123,-3.3341 -3.71548,-16.33634 -1.59706,-15.48006 z"
       style="fill:#000000;stroke:#000000;stroke-width:2;stroke-linecap:butt;stroke-linejoin:miter;stroke-opacity:1;display:inline" />
    <path
       sodipodi:nodetypes="cc"
       inkscape:connector-curvature="0"
       id="path17422-11-5"
       d="m -396.9745,364.89411 c 6.85629,-4.20015 23.02819,14.84392 14.38021,17.11195"
       style="fill:none;stroke:#000000;stroke-width:2;stroke-linecap:butt;stroke-linejoin:miter;stroke-opacity:1;display:inline" />
    <path
       style="fill:none;stroke:#000000;stroke-width:2;stroke-linecap:butt;stroke-linejoin:miter;stroke-opacity:1;display:inline"
       d="m -501.69395,330.58761 -0.13402,35.77205 40.72212,-44.82021 -9.79254,-5.83429 4.22804,-10.97916 -34.48424,27.86583"
       id="path17261-5-7-7"
       inkscape:connector-curvature="0"
       sodipodi:nodetypes="cccccc" />
    <g
       id="g26450">
      <path
         style="fill:#ffd5d5;stroke:#000000;stroke-width:2;stroke-linecap:butt;stroke-linejoin:miter;stroke-opacity:1;display:inline"
         d="m 272.81031,226.80291 -98.56103,-53.6021 c -17.00527,4.3219 -23.0271,22.29112 -15.05759,30.92513 l -8.84017,23.45113"
         id="path17396-1"
         inkscape:connector-curvature="0"
         sodipodi:nodetypes="cccc" />
      <path
         style="fill:#ffd5d5;stroke:#000000;stroke-width:2;stroke-linecap:butt;stroke-linejoin:miter;stroke-opacity:1;display:inline"
         d="m 162.09045,198.10314 c -8.63674,11.44688 -10.91331,31.13177 2.46424,43.98603"
         id="path17390-8"
         inkscape:connector-curvature="0"
         sodipodi:nodetypes="cc" />
      <g
         id="g26409">
        <path
           style="fill:#ffd5d5;stroke:none;display:inline"
           d="m 267.75089,218.75003 c 32.10034,22.64779 27.83027,55.57709 13.35004,58.51221 -11.42243,2.31531 -40.91925,4.58409 -46.78384,-1.23046 -2.58248,-2.56044 1.11226,-2.92511 -3.26958,-5.69665 0,0 -5.38472,1.63611 -5.54095,-3.36468 -0.21269,-6.80871 16.83429,-15.02204 25.43954,-15.66419"
           id="path26349-4"
           inkscape:connector-curvature="0"
           sodipodi:nodetypes="csscsc" />
        <path
           style="fill:#ffaaaa;stroke:none;display:inline"
           d="m 225.50607,266.96973 c -0.3334,-5.61637 9.45482,-10.16798 9.45482,-10.16798 9.76532,-5.65466 21.72955,21.30536 12.7673,22.74488 -2.6875,0.0671 -10.7345,-1.12803 -13.41159,-3.51557 -2.71407,-2.42052 1.11226,-2.92511 -3.26958,-5.69665 0,0 -5.35179,-0.17817 -5.54095,-3.36468 z"
           id="path17392-4-9"
           inkscape:connector-curvature="0"
           sodipodi:nodetypes="sccscs" />
        <path
           style="fill:#ff8080;stroke:none;display:inline"
           d="m 231.04643,270.3339 c 4.38184,2.77154 0.6871,3.13621 3.53493,5.81389 6.86724,-4.80867 -3.53493,-5.81389 -3.53493,-5.81389 z"
           id="path26349-8"
           inkscape:connector-curvature="0"
           sodipodi:nodetypes="ccc" />
        <path
           style="fill:none;stroke:#000000;stroke-width:2;stroke-linecap:butt;stroke-linejoin:miter;stroke-opacity:1;display:inline"
           d="m 267.75112,218.7483 c 32.10034,22.64779 27.83027,55.57709 13.35004,58.51221 -11.42243,2.31531 -40.91925,4.58409 -46.78384,-1.23046 -2.58248,-2.56044 1.11226,-2.92511 -3.26958,-5.69665"
           id="path26349"
           inkscape:connector-curvature="0"
           sodipodi:nodetypes="cssc" />
        <path
           style="fill:none;stroke:#000000;stroke-width:2;stroke-linecap:butt;stroke-linejoin:miter;stroke-opacity:1;display:inline"
           d="m 234.84802,276.26453 c 7.28939,-7.36341 -9.18501,-4.29502 -9.34123,-9.29581 -0.2127,-6.80871 16.83429,-15.02204 25.43954,-15.66419"
           id="path17392-4"
           inkscape:connector-curvature="0"
           sodipodi:nodetypes="csc" />
        <path
           sodipodi:nodetypes="cc"
           inkscape:connector-curvature="0"
           id="path17422-11"
           d="m 234.96161,256.80074 c 9.76532,-5.65466 21.72955,21.30536 12.7673,22.74488"
           style="fill:none;stroke:#000000;stroke-width:2;stroke-linecap:butt;stroke-linejoin:miter;stroke-opacity:1;display:inline" />
      </g>
      <path
         sodipodi:nodetypes="csc"
         inkscape:connector-curvature="0"
         id="path5977-8"
         d="m 166.77448,182.37871 c 12.15073,-21.6808 46.77799,-27.62734 74.06866,-5.81151 20.15724,16.11345 32.51019,39.0015 31.80888,52.35022"
         style="fill:#ffd5d5;stroke:#000000;stroke-width:2;stroke-linecap:butt;stroke-linejoin:miter;stroke-opacity:1;display:inline" />
      <path
         style="fill:#ffaaaa;stroke:#000000;stroke-width:2;stroke-linecap:butt;stroke-linejoin:miter;stroke-opacity:1;display:inline"
         d="m 176.38733,208.75857 c -6.22661,-0.4293 -10.12523,4.82988 -11.34145,11.77576 -1.19682,6.83508 0.22216,15.61456 7.33698,15.6132 6.24449,-10e-4 13.67751,1.13006 22.61545,3.12446 6.49816,1.45 10.8925,-5.49719 5.28331,-14.39344 -4.9524,-7.85456 -15.02291,-15.50833 -23.89429,-16.11998 z"
         id="path17394-2"
         inkscape:connector-curvature="0"
         sodipodi:nodetypes="ssssss" />
      <path
         style="fill:#ffd5d5;stroke:#000000;stroke-width:2;stroke-linecap:butt;stroke-linejoin:miter;stroke-opacity:1;display:inline"
         d="m 221.98923,168.63695 c 33.63025,2.48777 41.1967,40.06258 26.96324,47.96231 -3.90187,2.16557 -16.73425,-11.73179 -25.98173,-19.63622"
         id="path17398-4"
         inkscape:connector-curvature="0"
         sodipodi:nodetypes="csc" />
      <path
         style="fill:none;stroke:#000000;stroke-width:2;stroke-linecap:butt;stroke-linejoin:miter;stroke-opacity:1;display:inline"
         d="m 170.80356,199.1661 0.65477,4.56922"
         id="path17404-5"
         inkscape:connector-curvature="0"
         sodipodi:nodetypes="cc" />
      <path
         sodipodi:nodetypes="cscssc"
         id="path17261-5-7-3"
         d="m 149.32913,246.79765 c 12.87144,-1.78454 21.83372,-17.08219 25.55509,-34.58669 1.3617,-6.40513 -3.1305,-3.87943 -4.75904,-9.86695 0.39744,-3.05769 4.40701,-7.44647 -0.23693,-8.93635 -12.36918,-3.9683 -32.84709,13.76624 -36.71521,28.02098 -3.83776,14.14288 -1.04643,31.46682 15.58756,37.30812"
         style="fill:#ffd5d5;stroke:none;display:inline"
         inkscape:connector-curvature="0" />
      <path
         style="fill:none;stroke:#000000;stroke-width:2;stroke-linecap:butt;stroke-linejoin:miter;stroke-opacity:1;display:inline"
         d="m 186.71709,205.1777 3.33011,-4.82613"
         id="path17406-5"
         inkscape:connector-curvature="0"
         sodipodi:nodetypes="cc" />
      <path
         style="fill:#000000;stroke:#000000;stroke-width:2;stroke-linecap:butt;stroke-linejoin:miter;stroke-opacity:1;display:inline"
         d="m 181.5058,215.78072 c 2.74746,0.18341 11.51438,10.17954 8.59216,15.62221 -1.30106,2.42319 -10.27493,-15.73454 -8.59216,-15.62221 z"
         id="path17408-1"
         inkscape:connector-curvature="0"
         sodipodi:nodetypes="sss" />
      <path
         style="fill:#000000;stroke:#000000;stroke-width:2;stroke-linecap:butt;stroke-linejoin:miter;stroke-opacity:1;display:inline"
         d="m 173.89635,215.701 c 1.41,-0.30487 2.97768,15.81181 0.68188,14.33293 -3.94647,-2.54219 -3.05195,-13.82047 -0.68188,-14.33293 z"
         id="path17410-7"
         inkscape:connector-curvature="0"
         sodipodi:nodetypes="sss" />
      <path
         sodipodi:nodetypes="sccscs"
         id="path4012-77"
         d="m 169.90744,193.32352 c -4.23718,-1.92561 -11.92475,1.2497 -13.98105,2.15689 -4.90207,8.46796 7.38734,27.75719 17.46845,22.62188 0,0 0.69823,-1.46783 1.50854,-5.97547 1.15858,-6.44497 -3.13049,-3.87943 -4.75904,-9.86695 0.22207,-2.39364 4.32321,-6.86398 -0.2369,-8.93635 z"
         style="fill:#ffaaaa;stroke:none;display:inline"
         inkscape:connector-curvature="0" />
      <path
         sodipodi:nodetypes="ccc"
         id="path4012-7"
         d="m 174.74296,208.84005 c -3.71591,-0.0458 -5.35659,-4.15347 -4.60637,-6.61617 1.0491,4.2072 5.02904,4.70221 4.60637,6.61617 z"
         style="fill:#ff8080;stroke:none;display:inline"
         inkscape:connector-curvature="0" />
      <path
         sodipodi:nodetypes="csssc"
         inkscape:connector-curvature="0"
         id="path4012"
         d="m 174.78403,208.8572 c -1.61238,0.13838 -4.36583,-1.21048 -4.7978,-4.68746 -0.49769,-4.00602 5.33848,-9.1288 -0.0706,-10.83994 -12.38521,-3.91799 -32.84708,13.76624 -36.7152,28.02098 -3.83776,14.14288 -1.04644,31.46682 15.58755,37.30812"
         style="fill:none;stroke:#000000;stroke-width:2;stroke-linecap:butt;stroke-linejoin:miter;stroke-opacity:1;display:inline" />
      <path
         inkscape:connector-curvature="0"
         id="path17261-5-7"
         d="m 149.35648,246.71979 c 12.87144,-1.78454 21.83372,-17.08219 25.5551,-34.58669 1.36169,-6.40513 -3.1305,-3.87943 -4.75904,-9.86695"
         style="fill:none;stroke:#000000;stroke-width:2;stroke-linecap:butt;stroke-linejoin:miter;stroke-opacity:1;display:inline" />
      <path
         sodipodi:nodetypes="cc"
         inkscape:connector-curvature="0"
         id="path4008"
         d="m 155.235,196.06815 c -4.90207,8.46796 8.08745,27.17725 18.16855,22.04194"
         style="fill:none;stroke:#000000;stroke-width:2;stroke-linecap:butt;stroke-linejoin:miter;stroke-opacity:1" />
    </g>
    <path
       sodipodi:nodetypes="ccccccc"
       inkscape:connector-curvature="0"
       id="path17396-1-1"
       d="m -429.6423,125.0007 c -13.77302,3.029 -22.70389,23.2608 -17.32018,32.54126 l -2.69889,18.92598 -18.10656,63.16039 126.86573,-19.03279 7.55835,-40.37661 z"
       style="fill:#ffd5d5;stroke:#000000;stroke-width:2;stroke-linecap:butt;stroke-linejoin:miter;stroke-opacity:1;display:inline" />
    <path
       style="fill:#ffd5d5;stroke:#000000;stroke-width:2;stroke-linecap:butt;stroke-linejoin:miter;stroke-opacity:1;display:inline"
       d="m -456.82921,195.84646 c -12.46829,15.23888 -16.50963,32.79258 -9.72773,50.46144"
       id="path17261-4-9"
       inkscape:connector-curvature="0"
       sodipodi:nodetypes="cc" />
    <path
       style="fill:#ffd5d5;stroke:none;display:inline"
       d="m -343.15104,181.17186 c 30.2719,14.87693 31.56316,41.95627 21.65469,43.87502 -15.07917,2.92007 -43.62039,3.6551 -47.19943,1.84027 -3.24346,-1.6447 -0.79936,-1.90355 -1.54491,-4.27107 -0.71381,-2.26687 -10.21247,0.16571 -10.55095,-1.73586 -0.88014,-4.94452 16.83429,-15.6685 25.43954,-16.31065"
       id="path17392-7-0-8"
       inkscape:connector-curvature="0"
       sodipodi:nodetypes="cssssc" />
    <path
       sodipodi:nodetypes="ccsssc"
       inkscape:connector-curvature="0"
       id="path17422-1-9-65"
       d="m -370.6435,210.92571 c 6.85628,-4.20015 22.85373,14.65006 14.20575,16.91809 0,0 -8.92491,0.31545 -12.03873,-0.95665 -3.36653,-1.37534 -0.79936,-1.90355 -1.54491,-4.27107 -0.71381,-2.26687 -10.22589,0.16802 -10.55095,-1.73586 -0.72506,-4.24672 9.92884,-9.95451 9.92884,-9.95451 z"
       style="fill:#ffaaaa;stroke:none;display:inline" />
    <path
       style="fill:none;stroke:#000000;stroke-width:2;stroke-linecap:butt;stroke-linejoin:miter;stroke-opacity:1;display:inline"
       d="m -336.5746,178.10675 c 30.2719,14.87692 26.73903,49.19246 12.00643,50.3072 -15.31552,1.15884 -40.4043,0.439 -43.98334,-1.37583 -3.24346,-1.64469 -0.79936,-1.90355 -1.54491,-4.27106 -0.71381,-2.26687 -10.21247,0.1657 -10.55095,-1.73587 -0.88014,-4.94452 16.83429,-15.66849 25.43954,-16.31064"
       id="path17392-4-0"
       inkscape:connector-curvature="0"
       sodipodi:nodetypes="cssssc" />
    <path
       sodipodi:nodetypes="cc"
       inkscape:connector-curvature="0"
       id="path17390-8-2"
       d="m -444.06372,151.51916 c -8.63673,11.44688 -10.9133,31.13177 2.46425,43.98603"
       style="fill:#ffd5d5;stroke:#000000;stroke-width:2;stroke-linecap:butt;stroke-linejoin:miter;stroke-opacity:1;display:inline" />
    <path
       style="fill:#ffd5d5;stroke:#000000;stroke-width:2;stroke-linecap:butt;stroke-linejoin:miter;stroke-opacity:1;display:inline"
       d="m -439.37968,135.79473 c 12.15073,-21.6808 46.77799,-27.62734 74.06866,-5.81151 20.15724,16.11345 32.51019,39.0015 31.80888,52.35022"
       id="path5977-8-8"
       inkscape:connector-curvature="0"
       sodipodi:nodetypes="csc" />
    <path
       sodipodi:nodetypes="ssssss"
       inkscape:connector-curvature="0"
       id="path17394-2-6"
       d="m -429.76683,162.17459 c -6.22661,-0.4293 -10.12523,4.82988 -11.34145,11.77576 -1.19682,6.83508 0.22216,15.61456 7.33698,15.6132 6.24449,-0.001 13.67751,1.13006 22.61545,3.12446 6.49816,1.45 10.8925,-5.49719 5.28331,-14.39344 -4.9524,-7.85456 -15.02291,-15.50833 -23.89429,-16.11998 z"
       style="fill:#ffaaaa;stroke:#000000;stroke-width:2;stroke-linecap:butt;stroke-linejoin:miter;stroke-opacity:1;display:inline" />
    <path
       sodipodi:nodetypes="csc"
       inkscape:connector-curvature="0"
       id="path17398-4-0"
       d="m -384.16493,122.05297 c 33.63025,2.48777 41.1967,40.06258 26.96324,47.96231 -3.90187,2.16557 -16.73425,-11.73179 -25.98173,-19.63622"
       style="fill:#ffd5d5;stroke:#000000;stroke-width:2;stroke-linecap:butt;stroke-linejoin:miter;stroke-opacity:1;display:inline" />
    <path
       sodipodi:nodetypes="cc"
       inkscape:connector-curvature="0"
       id="path17404-5-24"
       d="m -435.3506,152.58212 0.65477,4.56922"
       style="fill:none;stroke:#000000;stroke-width:2;stroke-linecap:butt;stroke-linejoin:miter;stroke-opacity:1;display:inline" />
    <path
       inkscape:connector-curvature="0"
       style="fill:#ffd5d5;stroke:none;display:inline"
       d="m -456.82504,200.21367 c 12.87144,-1.78454 21.83372,-17.08219 25.5551,-34.58669 1.3617,-6.40513 -3.1305,-3.87943 -4.75904,-9.86695 0.39744,-3.05769 4.40701,-7.44647 -0.23694,-8.93635 -12.36918,-3.9683 -32.84708,13.76624 -36.7152,28.02098 -3.83776,14.14288 -1.04644,31.46682 15.58755,37.30812"
       id="path17261-5-7-3-8"
       sodipodi:nodetypes="cscssc" />
    <path
       sodipodi:nodetypes="cc"
       inkscape:connector-curvature="0"
       id="path17406-5-6"
       d="m -419.43707,158.59372 3.33011,-4.82613"
       style="fill:none;stroke:#000000;stroke-width:2;stroke-linecap:butt;stroke-linejoin:miter;stroke-opacity:1;display:inline" />
    <path
       sodipodi:nodetypes="sss"
       inkscape:connector-curvature="0"
       id="path17408-1-5"
       d="m -424.64836,169.19674 c 2.74746,0.18341 11.51438,10.17954 8.59216,15.62221 -1.30106,2.42319 -10.27493,-15.73454 -8.59216,-15.62221 z"
       style="fill:#000000;stroke:#000000;stroke-width:2;stroke-linecap:butt;stroke-linejoin:miter;stroke-opacity:1;display:inline" />
    <path
       sodipodi:nodetypes="sss"
       inkscape:connector-curvature="0"
       id="path17410-7-0"
       d="m -432.25781,169.11702 c 1.41,-0.30487 2.97768,15.81181 0.68188,14.33293 -3.94647,-2.54219 -3.05195,-13.82047 -0.68188,-14.33293 z"
       style="fill:#000000;stroke:#000000;stroke-width:2;stroke-linecap:butt;stroke-linejoin:miter;stroke-opacity:1;display:inline" />
    <path
       sodipodi:nodetypes="cc"
       inkscape:connector-curvature="0"
       id="path17422-11-9"
       d="m -370.89299,210.88282 c 6.85629,-4.20015 23.02819,14.84392 14.38021,17.11195"
       style="fill:none;stroke:#000000;stroke-width:2;stroke-linecap:butt;stroke-linejoin:miter;stroke-opacity:1;display:inline" />
    <path
       inkscape:connector-curvature="0"
       style="fill:#ffaaaa;stroke:none;display:inline"
       d="m -436.24673,146.73954 c -4.23718,-1.92561 -11.92474,1.2497 -13.98104,2.15689 -4.90207,8.46796 7.38733,27.75719 17.46845,22.62188 0,0 0.69823,-1.46783 1.50854,-5.97547 1.15858,-6.44497 -3.13049,-3.87943 -4.75905,-9.86695 0.22208,-2.39364 4.32322,-6.86398 -0.2369,-8.93635 z"
       id="path4012-77-0"
       sodipodi:nodetypes="sccscs" />
    <path
       inkscape:connector-curvature="0"
       style="fill:#ff8080;stroke:none;display:inline"
       d="m -431.4112,162.25607 c -3.71591,-0.0458 -5.35659,-4.15347 -4.60637,-6.61617 1.04909,4.2072 5.02904,4.70221 4.60637,6.61617 z"
       id="path4012-7-0"
       sodipodi:nodetypes="ccc" />
    <path
       style="fill:none;stroke:#000000;stroke-width:2;stroke-linecap:butt;stroke-linejoin:miter;stroke-opacity:1;display:inline"
       d="m -431.37013,162.27322 c -1.61238,0.13838 -4.36584,-1.21048 -4.7978,-4.68746 -0.49769,-4.00602 5.33848,-9.1288 -0.0706,-10.83994 -12.38521,-3.91799 -32.84708,13.76624 -36.7152,28.02098 -3.83777,14.14288 -1.04644,31.46682 15.58755,37.30812"
       id="path4012-6"
       inkscape:connector-curvature="0"
       sodipodi:nodetypes="csssc" />
    <path
       style="fill:none;stroke:#000000;stroke-width:2;stroke-linecap:butt;stroke-linejoin:miter;stroke-opacity:1;display:inline"
       d="m -456.79768,200.13581 c 12.87144,-1.78454 21.83372,-17.08219 25.5551,-34.58669 1.36169,-6.40513 -3.1305,-3.87943 -4.75905,-9.86695"
       id="path17261-5-7-1"
       inkscape:connector-curvature="0" />
    <path
       style="fill:none;stroke:#000000;stroke-width:2;stroke-linecap:butt;stroke-linejoin:miter;stroke-opacity:1"
       d="m -450.21564,148.88115 c -4.90207,8.46796 7.38392,27.78027 17.46503,22.64496"
       id="path4008-3"
       inkscape:connector-curvature="0"
       sodipodi:nodetypes="cc" />
    <g
       id="g26417">
      <path
         sodipodi:nodetypes="cssccc"
         inkscape:connector-curvature="0"
         id="path5405"
         d="M 79.815547,113.41919 C 69.648941,108.58886 75.771332,81.97511 62.86435,81.591577 54.630714,81.346914 34.114298,92.75579 28.050936,101.41675 c -5.354132,7.6479 -11.28858,20.23706 -11.627838,26.9721 4.159248,-1.36591 4.357034,-4.3298 7.997858,-10.21197 l 49.225012,9.77486"
         style="fill:#fffff8;fill-opacity:1;stroke:#000000;stroke-width:2;stroke-linecap:butt;stroke-linejoin:miter;stroke-opacity:1;display:inline" />
      <path
         sodipodi:nodetypes="ccc"
         inkscape:connector-curvature="0"
         id="path5407"
         d="m 75.858245,123.24631 c -1.510649,3.63175 -4.993819,9.91189 -9.513852,12.15628 -1.783817,-3.49552 -0.896868,-7.2745 1.176799,-11.48721"
         style="fill:#fffff8;fill-opacity:1;stroke:#000000;stroke-width:2;stroke-linecap:butt;stroke-linejoin:miter;stroke-opacity:1;display:inline" />
      <path
         sodipodi:nodetypes="ccc"
         inkscape:connector-curvature="0"
         id="path5409"
         d="m 63.81667,119.93616 c -3.671279,8.72605 -8.938235,14.56547 -14.324681,16.59118 -1.644933,-4.51207 0.190242,-8.607 2.821001,-14.77594"
         style="fill:#fffff8;fill-opacity:1;stroke:#000000;stroke-width:2;stroke-linecap:butt;stroke-linejoin:miter;stroke-opacity:1;display:inline" />
      <path
         sodipodi:nodetypes="ccc"
         inkscape:connector-curvature="0"
         id="path5413"
         d="m 43.631209,118.05523 c -3.107956,6.80059 -7.267036,11.63571 -12.351962,13.51802 -1.457707,-4.30269 -0.962668,-8.09723 2.324972,-16.99657"
         style="fill:#fffff8;fill-opacity:1;stroke:#000000;stroke-width:2;stroke-linecap:butt;stroke-linejoin:miter;stroke-opacity:1;display:inline" />
      <path
         sodipodi:nodetypes="ccc"
         inkscape:connector-curvature="0"
         id="path5413-6"
         d="m 36.694808,112.52333 c -2.81832,5.37865 -7.448522,12.4546 -14.281781,15.28258 -0.833672,-6.42531 3.496259,-12.68308 6.587502,-17.20889"
         style="fill:#fffff8;fill-opacity:1;stroke:#000000;stroke-width:2;stroke-linecap:butt;stroke-linejoin:miter;stroke-opacity:1;display:inline" />
      <path
         sodipodi:nodetypes="ccc"
         inkscape:connector-curvature="0"
         id="path5413-6-1-8"
         d="m 54.897982,118.41105 c -3.602888,6.61338 -9.747518,14.44978 -14.33643,15.01076 -1.151997,-4.52658 1.267893,-12.0976 4.622889,-18.95631"
         style="fill:#fffff8;fill-opacity:1;stroke:#000000;stroke-width:2;stroke-linecap:butt;stroke-linejoin:miter;stroke-opacity:1;display:inline" />
      <path
         sodipodi:nodetypes="ccc"
         inkscape:connector-curvature="0"
         id="path5413-6-1-8-9"
         d="m 69.16061,120.59388 c -1.692848,4.70331 -7.215768,12.29883 -10.228733,13.53511 -1.152011,-3.40112 1.407839,-11.46775 3.873737,-15.58197"
         style="fill:#fffff8;fill-opacity:1;stroke:#000000;stroke-width:2;stroke-linecap:butt;stroke-linejoin:miter;stroke-opacity:1;display:inline" />
    </g>
    <g
       id="g26496">
      <path
         sodipodi:nodetypes="ccccccc"
         inkscape:connector-curvature="0"
         id="path5091-2-4-9-9-2-6-2-2"
         d="m 140.90136,106.75749 c 7.06126,3.91556 7.55534,15.47075 3.71644,19.48246 l -11.42601,38.04769 -23.45602,34.3605 -35.678813,-3.68626 -3.450474,-73.69343 z"
         style="fill:#ffd5d5;stroke:#000000;stroke-width:2;stroke-linecap:butt;stroke-linejoin:miter;stroke-opacity:1;display:inline" />
      <path
         sodipodi:nodetypes="csssc"
         inkscape:connector-curvature="0"
         id="path5109-2-7-7-9-5-5-2-8-2-6"
         d="m 129.80213,171.43783 c 5.46961,3.81868 9.97294,4.22634 14.65398,3.29687 1.85799,-0.36891 -0.035,-2.99768 1.42524,-5.0268 1.01904,-1.41595 3.79009,-0.94375 4.01964,-1.93269 0.99997,-4.30834 -7.20849,-18.35673 -12.94251,-24.43022"
         style="fill:#ffd5d5;stroke:none;display:inline" />
      <path
         sodipodi:nodetypes="ccsssc"
         inkscape:connector-curvature="0"
         id="path5111-7-6-1-2-8-2-6-3-8-9"
         d="m 137.87437,174.83844 c -3.95661,-3.00371 6.00754,-17.08992 10.28225,-14.34964 0,0 2.55672,4.91083 1.72488,7.30235 -0.33535,0.96414 -3.0006,0.51674 -4.01961,1.93267 -1.46031,2.02913 0.28764,4.17675 -1.42527,5.02683 -2.3178,1.15028 -6.56225,0.0878 -6.56225,0.0878 z"
         style="fill:#ffaaaa;stroke:none;display:inline" />
      <path
         sodipodi:nodetypes="cc"
         inkscape:connector-curvature="0"
         id="path5111-7-6-1-2-8-29-6-9-3"
         d="m 137.75575,174.77433 c -3.95663,-3.00369 6.06313,-16.97797 10.33786,-14.23772"
         style="fill:none;stroke:#000000;stroke-width:2;stroke-linecap:butt;stroke-linejoin:miter;stroke-opacity:1;display:inline" />
      <path
         sodipodi:nodetypes="csssc"
         inkscape:connector-curvature="0"
         id="path5109-2-7-7-9-5-5-4-2-5"
         d="m 129.79142,171.46101 c 6.09879,3.35811 8.27087,4.40929 14.65396,3.29688 1.86614,-0.32522 -0.035,-2.99769 1.42525,-5.0268 1.01902,-1.41595 3.79009,-0.94375 4.01963,-1.93271 0.99998,-4.30834 -7.20848,-18.35671 -12.9425,-24.4302"
         style="fill:none;stroke:#000000;stroke-width:2;stroke-linecap:butt;stroke-linejoin:miter;stroke-opacity:1;display:inline" />
      <path
         id="path3536-4-1-7-2-8-7"
         d="m 100.63926,198.38069 c 1.806,4.21022 5.89005,11.41294 10.60275,8.2111 9.78615,-6.64881 19.34053,-21.88027 18.70778,-41.25061"
         style="fill:#ffd5d5;stroke:#000000;stroke-width:2;stroke-linecap:butt;stroke-linejoin:miter;stroke-opacity:1;display:inline"
         inkscape:connector-curvature="0"
         sodipodi:nodetypes="csc" />
      <path
         sodipodi:nodetypes="cc"
         inkscape:connector-curvature="0"
         id="path8790-4-2-4"
         d="m 72.847775,191.64382 c 7.916454,6.46087 27.815295,8.07375 32.934115,5.19149"
         style="fill:#ffd5d5;stroke:#000000;stroke-width:2;stroke-linecap:butt;stroke-linejoin:miter;stroke-opacity:1;display:inline" />
      <path
         style="fill:#ffd5d5;stroke:#000000;stroke-width:2;stroke-linecap:butt;stroke-linejoin:miter;stroke-opacity:1;display:inline"
         d="m 72.034138,116.82691 c -24.911361,28.76483 -21.22475,63.77199 -6.782772,82.61798 4.369015,5.70131 13.293832,-1.48545 15.810518,-6.36085"
         id="path8717-6-5-0"
         inkscape:connector-curvature="0"
         sodipodi:nodetypes="csc" />
      <path
         sodipodi:nodetypes="csssc"
         inkscape:connector-curvature="0"
         id="path5109-2-7-7-9-5-5-2-8-2"
         d="m 84.816084,160.99934 c 9.055421,6.60523 22.265076,12.04243 27.693346,9.88959 1.76085,-0.69835 -0.035,-2.99769 1.42525,-5.02681 1.01904,-1.41594 3.79009,-0.94375 4.01964,-1.93269 0.99996,-4.30836 -7.2085,-18.35672 -12.94251,-24.43021"
         style="fill:#ffd5d5;stroke:none;display:inline" />
      <path
         style="fill:#ffd5d5;stroke:#000000;stroke-width:2;stroke-linecap:butt;stroke-linejoin:miter;stroke-opacity:1;display:inline"
         d="M 142.87269,113.08293 C 141.08517,103.97897 129.67561,92.140363 112.49464,92.206632 88.363978,92.299708 68.564897,112.47792 66.294533,125.85864"
         id="path9069-1-2"
         inkscape:connector-curvature="0"
         sodipodi:nodetypes="csc" />
      <path
         sodipodi:nodetypes="cc"
         inkscape:connector-curvature="0"
         id="path5093-4-2-4-9-8-1-4-1"
         d="m 143.62985,122.7101 c 3.25394,9.19907 1.56334,22.33298 -10.2902,28.12904"
         style="fill:#ffd5d5;stroke:#000000;stroke-width:2;stroke-linecap:butt;stroke-linejoin:miter;stroke-opacity:1;display:inline" />
      <path
         sodipodi:nodetypes="cc"
         inkscape:connector-curvature="0"
         id="path5095-5-3-8-6-2-8-6-6"
         d="m 137.33403,120.9632 -1.11633,3.68235"
         style="fill:none;stroke:#000000;stroke-width:2;stroke-linecap:butt;stroke-linejoin:miter;stroke-opacity:1;display:inline" />
      <path
         sodipodi:nodetypes="cc"
         inkscape:connector-curvature="0"
         id="path5097-5-2-8-8-8-2-2-8"
         d="m 127.64315,118.96515 -1.03544,4.06847"
         style="fill:none;stroke:#000000;stroke-width:2;stroke-linecap:butt;stroke-linejoin:miter;stroke-opacity:1;display:inline" />
      <path
         sodipodi:nodetypes="ssssss"
         inkscape:connector-curvature="0"
         id="path5101-7-1-4-4-0-1-1-7"
         d="m 133.49326,126.26667 c -5.37818,-0.76779 -12.61263,2.38248 -17.76818,6.65799 -5.98378,4.96234 -5.22683,10.23646 0.74591,10.42361 5.5719,0.1746 10.61938,0.69948 13.77308,1.35951 3.92041,0.82046 6.04188,-3.53671 7.32691,-8.05451 1.21559,-4.27366 0.75696,-9.69642 -4.07772,-10.3866 z"
         style="fill:#ffaaaa;stroke:#000000;stroke-width:2;stroke-linecap:butt;stroke-linejoin:miter;stroke-opacity:1;display:inline" />
      <path
         inkscape:connector-curvature="0"
         id="path5105-1-6-5-8-7-9-5-6"
         d="m 120.8389,139.02767 c 0.29642,1.26092 8.36292,-7.5699 7.36872,-7.68715 -0.81019,-0.0955 -8.14045,4.40425 -7.36872,7.68715 z"
         style="fill:#000000;stroke:#000000;stroke-width:2;stroke-linecap:butt;stroke-linejoin:miter;stroke-opacity:1;display:inline"
         sodipodi:nodetypes="sss" />
      <path
         inkscape:connector-curvature="0"
         id="path5107-1-8-5-4-8-7-0-1"
         d="m 133.55642,131.83053 c -0.47252,-0.67725 -5.43385,8.87807 -4.05634,8.46188 2.40627,-0.72701 4.58891,-7.69857 4.05634,-8.46188 z"
         style="fill:#000000;stroke:#000000;stroke-width:2;stroke-linecap:butt;stroke-linejoin:miter;stroke-opacity:1;display:inline"
         sodipodi:nodetypes="sss" />
      <path
         sodipodi:nodetypes="ccsssc"
         inkscape:connector-curvature="0"
         id="path5111-7-6-1-2-8-2-6-3-8"
         d="m 105.92771,170.99265 c -3.95663,-3.0037 6.00753,-17.0899 10.28224,-14.34964 0,0 2.55673,4.91084 1.72488,7.30236 -0.33536,0.96413 -3.0006,0.51675 -4.0196,1.93267 -1.46031,2.02914 0.28763,4.17675 -1.42527,5.02683 -2.31782,1.15029 -6.56225,0.0878 -6.56225,0.0878 z"
         style="fill:#ffaaaa;stroke:none;display:inline" />
      <path
         sodipodi:nodetypes="cc"
         inkscape:connector-curvature="0"
         id="path5111-7-6-1-2-8-29-6-9"
         d="m 105.80909,170.92855 c -3.95663,-3.00369 6.06313,-16.97797 10.33786,-14.23772"
         style="fill:none;stroke:#000000;stroke-width:2;stroke-linecap:butt;stroke-linejoin:miter;stroke-opacity:1;display:inline" />
      <path
         sodipodi:nodetypes="csssc"
         inkscape:connector-curvature="0"
         id="path5109-2-7-7-9-5-5-4-2"
         d="m 84.805371,161.02252 c 9.055412,6.60522 22.265079,12.04242 27.693339,9.88959 1.76085,-0.69834 -0.035,-2.99769 1.42525,-5.02681 1.01903,-1.41595 3.79009,-0.94374 4.01963,-1.9327 0.99997,-4.30835 -7.20848,-18.35672 -12.9425,-24.4302"
         style="fill:none;stroke:#000000;stroke-width:2;stroke-linecap:butt;stroke-linejoin:miter;stroke-opacity:1;display:inline" />
      <path
         sodipodi:nodetypes="csc"
         inkscape:connector-curvature="0"
         id="path5099-1-2-2-3-9-1-9-5"
         d="M 101.65475,95.946305 C 79.607103,95.214087 75.15772,118.89498 83.932263,125.80667 c 3.5493,2.79578 15.483623,-8.54953 20.192077,-11.39159"
         style="fill:none;stroke:#000000;stroke-width:2;stroke-linecap:butt;stroke-linejoin:miter;stroke-opacity:1;display:inline" />
    </g>
  </g>
  <g
     inkscape:groupmode="layer"
     id="layer4"
     inkscape:label="字幕"
     sodipodi:insensitive="true">
    <text
       xml:space="preserve"
       style="font-size:70.34015656px;font-style:normal;font-weight:normal;line-height:125%;letter-spacing:0px;word-spacing:0px;writing-mode:lr-tb;fill:#000000;fill-opacity:1;stroke:none;font-family:Sans"
       x="82.628853"
       y="70.930664"
       id="text6768"
       sodipodi:linespacing="125%"><tspan
         sodipodi:role="line"
         id="tspan6770"
         x="82.628853"
         y="70.930664"
         style="font-weight:bold;-inkscape-font-specification:Sans Bold">検討中</tspan></text>
  </g>
  <g
     inkscape:groupmode="layer"
     id="layer2"
     inkscape:label="枠面"
     sodipodi:insensitive="true">
    <path
       style="fill:#ffffff;stroke:none;display:inline"
       d="m 0,0 0,320 370,0 0,-320 -10,10 0,300 -350,0 0,-300 350,0 10,-10 z"
       id="path21072"
       inkscape:connector-curvature="0"
       sodipodi:nodetypes="ccccccccccc" />
  </g>
</svg>
