<?xml version="1.0" encoding="UTF-8" standalone="no"?>
<!-- Created with Inkscape (http://www.inkscape.org/) -->

<svg
   xmlns:dc="http://purl.org/dc/elements/1.1/"
   xmlns:cc="http://creativecommons.org/ns#"
   xmlns:rdf="http://www.w3.org/1999/02/22-rdf-syntax-ns#"
   xmlns:svg="http://www.w3.org/2000/svg"
   xmlns="http://www.w3.org/2000/svg"
   xmlns:sodipodi="http://sodipodi.sourceforge.net/DTD/sodipodi-0.dtd"
   xmlns:inkscape="http://www.inkscape.org/namespaces/inkscape"
   width="370"
   height="320"
   id="svg3172"
   version="1.1"
   inkscape:version="0.48.4 r9939"
   sodipodi:docname="[20]修行.svg"
   inkscape:export-filename="C:\Users\執安\Desktop\資料\臨時\BUTING\[20]修行.png"
   inkscape:export-xdpi="90"
   inkscape:export-ydpi="90">
  <defs
     id="defs3174" />
  <sodipodi:namedview
     id="base"
     pagecolor="#ffffff"
     bordercolor="#666666"
     borderopacity="1.0"
     inkscape:pageopacity="0.0"
     inkscape:pageshadow="2"
     inkscape:zoom="0.70710678"
     inkscape:cx="8.1731348"
     inkscape:cy="254.25538"
     inkscape:document-units="px"
     inkscape:current-layer="layer3"
     showgrid="false"
     inkscape:window-width="1100"
     inkscape:window-height="698"
     inkscape:window-x="-5"
     inkscape:window-y="-5"
     inkscape:window-maximized="0" />
  <metadata
     id="metadata3177">
    <rdf:RDF>
      <cc:Work
         rdf:about="">
        <dc:format>image/svg+xml</dc:format>
        <dc:type
           rdf:resource="http://purl.org/dc/dcmitype/StillImage" />
        <dc:title></dc:title>
      </cc:Work>
    </rdf:RDF>
  </metadata>
  <g
     inkscape:label="補助線"
     inkscape:groupmode="layer"
     id="layer1"
     transform="translate(0,-732.36218)"
     sodipodi:insensitive="true"
     style="display:none">
    <path
       style="fill:none;stroke:#0000ff;stroke-width:1px;stroke-linecap:butt;stroke-linejoin:miter;stroke-opacity:1;display:inline"
       d="M 10,1042.3622 360,742.36211"
       id="path3025"
       inkscape:connector-curvature="0"
       sodipodi:nodetypes="cc" />
    <path
       style="fill:none;stroke:#0000ff;stroke-width:1px;stroke-linecap:butt;stroke-linejoin:miter;stroke-opacity:1;display:inline"
       d="M 10,742.36211 360,1042.3622"
       id="path3027"
       inkscape:connector-curvature="0"
       sodipodi:nodetypes="cc" />
    <path
       style="fill:none;stroke:#ff0000;stroke-width:1px;stroke-linecap:butt;stroke-linejoin:miter;stroke-opacity:1;display:inline"
       d="m 10,732.36211 0,320.00009"
       id="path3006"
       inkscape:connector-curvature="0"
       sodipodi:nodetypes="cc" />
    <path
       style="fill:none;stroke:#ff0000;stroke-width:1px;stroke-linecap:butt;stroke-linejoin:miter;stroke-opacity:1;display:inline"
       d="m 360,732.36211 0,320.00009"
       id="path3010"
       inkscape:connector-curvature="0"
       sodipodi:nodetypes="cc" />
    <path
       style="fill:none;stroke:#ff0000;stroke-width:1px;stroke-linecap:butt;stroke-linejoin:miter;stroke-opacity:1;display:inline"
       d="m 0,742.36208 370,3e-5"
       id="path3016"
       inkscape:connector-curvature="0" />
    <path
       style="fill:none;stroke:#ff0000;stroke-width:1px;stroke-linecap:butt;stroke-linejoin:miter;stroke-opacity:1;display:inline"
       d="m 0,1042.3622 370,0"
       id="path3018"
       inkscape:connector-curvature="0"
       sodipodi:nodetypes="cc" />
  </g>
  <g
     inkscape:groupmode="layer"
     id="layer3"
     inkscape:label="豚"
     sodipodi:insensitive="true">
    <g
       id="g16730"
       transform="matrix(1.0201039,0,0,1.0201039,-12.77406,-5.7427106)"
       style="stroke-width:1.96058464">
      <path
         sodipodi:nodetypes="ccccc"
         inkscape:connector-curvature="0"
         id="path16690"
         d="m 30.5,289.5 c 8.89789,8.50421 81.36997,16.82246 102.56066,16.44975 C 157.38941,307.52966 230.67337,294.18312 237,287 224.71646,280.60918 167.36993,276.11479 148.85355,276.87868 131.71084,273.41821 41.671864,281.23256 30.5,289.5 z"
         style="fill:#2d1650;stroke:#000000;stroke-width:1.96058464;stroke-linecap:butt;stroke-linejoin:miter;stroke-opacity:1" />
      <path
         sodipodi:nodetypes="ccc"
         inkscape:connector-curvature="0"
         id="path16692"
         d="m 24.041631,289.06407 6.717514,0.53034 -6.363961,4.94975"
         style="fill:none;stroke:#000000;stroke-width:1.96058464;stroke-linecap:butt;stroke-linejoin:miter;stroke-opacity:1" />
      <path
         sodipodi:nodetypes="ccc"
         inkscape:connector-curvature="0"
         id="path16692-4"
         d="m 242.36085,288.0918 -5.83363,-0.88387 5.83363,5.12652"
         style="fill:none;stroke:#000000;stroke-width:1.96058464;stroke-linecap:butt;stroke-linejoin:miter;stroke-opacity:1" />
      <path
         sodipodi:nodetypes="ccc"
         inkscape:connector-curvature="0"
         id="path16692-4-7"
         d="m 126.30695,308.24434 7.07107,-2.65164 5.83363,3.0052"
         style="fill:none;stroke:#000000;stroke-width:1.96058464;stroke-linecap:butt;stroke-linejoin:miter;stroke-opacity:1" />
    </g>
    <path
       style="fill:#ffd5d5;stroke:#000000;stroke-width:2;stroke-linecap:butt;stroke-linejoin:miter;stroke-opacity:1;display:inline"
       d="m -184.65789,93.887727 c 21.59009,6.174903 31.993,23.036873 28.08651,38.879373 l 1.84786,39.36228 11.37445,40.61074 -82.37896,47.27941 -77.99881,-77.14515 z"
       id="path8489-4"
       inkscape:connector-curvature="0"
       sodipodi:nodetypes="ccccccc" />
    <path
       style="fill:#ffd5d5;stroke:#000000;stroke-width:2;stroke-linecap:butt;stroke-linejoin:miter;stroke-opacity:1;display:inline"
       d="m -155.82294,166.86837 c 21.49482,17.56469 20.9974,46.45938 7.56498,56.06045"
       id="path8503-3"
       inkscape:connector-curvature="0"
       sodipodi:nodetypes="cc" />
    <path
       style="fill:#ffd5d5;stroke:#000000;stroke-width:2;stroke-linecap:butt;stroke-linejoin:miter;stroke-opacity:1;display:inline"
       d="m -150.02675,203.56467 c 10.80935,38.80091 -1.5995,59.2489 -26.03899,78.88052 -21.42542,17.21048 -84.23159,27.82087 -113.30632,21.52912 -8.62046,-1.86546 -14.37088,-9.29751 -6.17795,-15.14659"
       id="path3132-6"
       inkscape:connector-curvature="0"
       sodipodi:nodetypes="cssc" />
    <path
       style="fill:#ffd5d5;stroke:#000000;stroke-width:2;stroke-linecap:butt;stroke-linejoin:miter;stroke-opacity:1;display:inline"
       d="m -190.36729,275.17896 c 21.632,7.06085 35.216,31.08059 4.58334,33.03836 -31.25887,1.9978 -95.55228,-1.2174 -118.56671,-29.06284 -18.60534,-22.51083 -15.9392,-72.36162 -0.67915,-99.27669"
       id="path16210"
       inkscape:connector-curvature="0"
       sodipodi:nodetypes="cssc" />
    <path
       style="fill:#ffd5d5;stroke:#000000;stroke-width:2;stroke-linecap:butt;stroke-linejoin:miter;stroke-opacity:1;display:inline"
       d="m -305.02981,186.25139 c -5.5551,-19.42806 3.88029,-46.86136 31.87961,-76.70055 32.2537,-34.373141 76.14061,-30.161628 95.98738,-9.02597"
       id="path8505-8"
       inkscape:connector-curvature="0"
       sodipodi:nodetypes="csc" />
    <path
       style="fill:#ffd5d5;stroke:#000000;stroke-width:2;stroke-linecap:butt;stroke-linejoin:miter;stroke-opacity:1;display:inline"
       d="m -160.97073,126.80493 c 14.42017,16.83884 15.09932,38.15714 1.97116,54.73796"
       id="path8491-7"
       inkscape:connector-curvature="0"
       sodipodi:nodetypes="cc" />
    <path
       style="fill:none;stroke:#000000;stroke-width:2;stroke-linecap:butt;stroke-linejoin:miter;stroke-opacity:1;display:inline"
       d="m -175.36444,122.76352 -2.34174,9.48826"
       id="path8493-3"
       inkscape:connector-curvature="0"
       sodipodi:nodetypes="cc" />
    <path
       style="fill:none;stroke:#000000;stroke-width:2;stroke-linecap:butt;stroke-linejoin:miter;stroke-opacity:1;display:inline"
       d="m -204.72903,127.80732 10.49663,7.85369"
       id="path8495-9"
       inkscape:connector-curvature="0"
       sodipodi:nodetypes="cc" />
    <path
       style="fill:#ffaaaa;stroke:#000000;stroke-width:2;stroke-linecap:butt;stroke-linejoin:miter;stroke-opacity:1;display:inline"
       d="m -178.21138,137.04231 c -11.78268,1.24237 -21.24326,11.86458 -26.68595,20.96006 -6.62034,11.06347 -6.01414,25.33583 8.3892,21.57862 12.95823,-3.38024 19.79991,-4.42073 28.06699,-4.08305 5.93869,0.24257 8.71281,-9.70247 7.25575,-19.07189 -1.08318,-6.96526 -5.91995,-20.55477 -17.02599,-19.38374 z"
       id="path8497-8"
       inkscape:connector-curvature="0"
       sodipodi:nodetypes="ssssss" />
    <path
       sodipodi:nodetypes="sss"
       inkscape:connector-curvature="0"
       id="path8513-0"
       d="m -191.93975,168.28904 c 1.77666,3.62427 10.09968,-18.75459 7.7746,-19.10727 -2.01026,-0.30493 -11.31428,11.88654 -7.7746,19.10727 z"
       style="fill:#000000;stroke:#000000;stroke-width:2;stroke-linecap:butt;stroke-linejoin:miter;stroke-opacity:1;display:inline" />
    <path
       sodipodi:nodetypes="sss"
       inkscape:connector-curvature="0"
       id="path8515-0"
       d="m -175.1254,147.63252 c -1.34648,-0.46045 1.78747,21.38166 3.56479,18.42565 3.79764,-6.31619 -1.52054,-17.72659 -3.56479,-18.42565 z"
       style="fill:#000000;stroke:#000000;stroke-width:2;stroke-linecap:butt;stroke-linejoin:miter;stroke-opacity:1;display:inline" />
    <path
       style="fill:none;stroke:#000000;stroke-width:2;stroke-linecap:butt;stroke-linejoin:miter;stroke-opacity:1;display:inline"
       d="m -210.02561,181.85649 c 15.78221,-2.46401 51.83886,-5.01502 59.9314,8.27346 3.02877,4.97343 -6.06819,5.18689 -9.34729,9.72116 -3.32412,4.59652 -0.29308,13.06867 3.84277,9.92581"
       id="path3169-8"
       inkscape:connector-curvature="0"
       sodipodi:nodetypes="cssc" />
    <path
       style="fill:none;stroke:#000000;stroke-width:2;stroke-linecap:butt;stroke-linejoin:miter;stroke-opacity:1;display:inline"
       d="m -153.92756,195.71531 c -2.75657,7.55116 -2.38224,5.27715 -1.33784,11.72822 1.33271,8.23188 -31.75295,30.00652 -35.58588,32.6141"
       id="path8517-8"
       inkscape:connector-curvature="0"
       sodipodi:nodetypes="csc" />
    <path
       sodipodi:nodetypes="cc"
       inkscape:connector-curvature="0"
       id="path8521-0"
       d="m -167.74713,181.15702 c -14.80646,-3.64473 -12.86055,45.21721 4.209,37.98386"
       style="fill:none;stroke:#000000;stroke-width:2;stroke-linecap:butt;stroke-linejoin:miter;stroke-opacity:1;display:inline" />
    <path
       style="fill:#ffd5d5;stroke:#000000;stroke-width:2;stroke-linecap:butt;stroke-linejoin:miter;stroke-opacity:1;display:inline"
       d="m -253.05304,96.286242 c -45.32481,6.305648 -45.20029,52.532208 -24.57482,65.082668 8.16536,4.96857 24.88703,-24.52111 35.00513,-32.28642"
       id="path8499-5"
       inkscape:connector-curvature="0"
       sodipodi:nodetypes="csc" />
    <g
       id="g16736"
       transform="matrix(0.90856676,0,0,0.90856676,13.50448,27.659932)"
       style="stroke-width:2.20126915">
      <path
         sodipodi:nodetypes="cccccccc"
         inkscape:connector-curvature="0"
         id="path8489-4-1"
         d="m 148.65563,89.771129 c 22.12031,2.46341 31.92868,22.699631 29.14694,35.167881 l 9.27084,49.96654 11.37445,40.61075 -29.97715,60.64973 -52.40181,-13.37032 -77.99881,-77.14516 z"
         style="fill:#ff8080;stroke:#000000;stroke-width:2.20126915;stroke-linecap:butt;stroke-linejoin:miter;stroke-opacity:1;display:inline" />
      <path
         sodipodi:nodetypes="csssc"
         inkscape:connector-curvature="0"
         id="path3169-8-3-4"
         d="m 180.05874,162.77497 c 11.1366,-9.51402 42.38202,-20.9576 51.0096,-8.07183 4.18542,6.25117 -1.98498,10.18029 -3.41912,11.64208 -3.30103,3.36467 1.72189,4.27681 1.69897,8.3925 -0.0643,11.54476 -25.42226,33.1939 -34.07866,48.82109"
         style="fill:#ff8080;stroke:none;display:inline" />
      <path
         style="fill:#fc3838;fill-opacity:1;stroke:none;display:inline"
         d="m 224.23269,186.42134 c -13.95217,11.90043 -27.21183,-36.00835 -12.0194,-37.14008 4.55296,-0.52851 14.74057,-1.35738 18.85416,5.4226 3.90229,6.43172 -1.98498,10.18029 -3.41912,11.64208 -3.30103,3.36467 1.73751,4.27693 1.69897,8.3925 -0.042,4.48018 -3.1482,8.96693 -5.11461,11.6829 z"
         id="path8521-0-0-1"
         inkscape:connector-curvature="0"
         sodipodi:nodetypes="ccsssc" />
      <path
         sodipodi:nodetypes="ccscc"
         inkscape:connector-curvature="0"
         id="path8503-3-4-8-1"
         d="m 229.05783,165.08049 c -3.48548,1.84528 -7.00326,0.7472 -8.10766,-2.09465 -2.34607,4.17067 -1.83186,9.58651 0.42279,12.13625 2.74916,3.10897 7.70852,4.64271 7.88968,-1.69097 -2.32775,-4.34751 -4.20386,-5.19275 -0.20481,-8.35063 z"
         style="fill:#800000;stroke:none;display:inline" />
      <path
         sodipodi:nodetypes="csssc"
         inkscape:connector-curvature="0"
         id="path3169-8-3"
         d="m 180.05835,162.77707 c 11.1366,-9.51402 42.38202,-20.9576 51.0096,-8.07183 4.18542,6.25117 -1.98498,10.18029 -3.41912,11.64208 -3.30103,3.36467 1.72189,4.27681 1.69897,8.3925 -0.0643,11.54476 -25.42226,33.1939 -34.07866,48.82109"
         style="fill:none;stroke:#000000;stroke-width:2.20126915;stroke-linecap:butt;stroke-linejoin:miter;stroke-opacity:1;display:inline" />
      <path
         style="fill:none;stroke:#000000;stroke-width:2.20126915;stroke-linecap:butt;stroke-linejoin:miter;stroke-opacity:1;display:inline"
         d="m 212.21379,149.28264 c -15.19243,1.13173 -1.93277,49.04051 12.0194,37.14008"
         id="path8521-0-0"
         inkscape:connector-curvature="0"
         sodipodi:nodetypes="cc" />
      <path
         sodipodi:nodetypes="ccsc"
         inkscape:connector-curvature="0"
         id="path8503-3-4-8"
         d="m 229.0596,165.07997 c -3.48548,1.84528 -7.00326,0.7472 -8.10766,-2.09465 -2.34607,4.17067 -1.83186,9.58651 0.42279,12.13625 2.74916,3.10897 7.70852,4.64271 7.88968,-1.69097"
         style="fill:none;stroke:#000000;stroke-width:2.20126915;stroke-linecap:butt;stroke-linejoin:miter;stroke-opacity:1;display:inline" />
      <path
         sodipodi:nodetypes="cc"
         inkscape:connector-curvature="0"
         id="path3132-6-3"
         d="m 193.26985,199.59234 c 18.76254,29.78729 5.89884,78.74459 -37.28651,81.13002"
         style="fill:#ff8080;stroke:#000000;stroke-width:2.20126915;stroke-linecap:butt;stroke-linejoin:miter;stroke-opacity:1;display:inline" />
      <path
         sodipodi:nodetypes="cssssc"
         inkscape:connector-curvature="0"
         id="path16210-6"
         d="m 163.42699,246.4621 c -32.40736,-21.1227 -53.51675,8.30923 -44.53877,16.30885 8.02525,7.15072 35.76099,2.10198 40.39218,3.1699 25.92219,5.97747 32.24059,19.33196 9.98009,18.80745 -42.50638,-1.00155 -83.54538,15.97591 -123.56671,-5.81731 -28.804962,-15.68546 -30.68671,-61.86195 -8.92666,-96.27703"
         style="fill:#ff8080;stroke:#000000;stroke-width:2.20126915;stroke-linecap:butt;stroke-linejoin:miter;stroke-opacity:1;display:inline" />
      <path
         sodipodi:nodetypes="csc"
         inkscape:connector-curvature="0"
         id="path8505-8-3"
         d="M 36.06889,193.39555 C 28.42002,174.6925 34.79503,146.39106 59.35894,113.66563 87.65523,75.967709 131.73941,75.348737 153.78099,94.184319"
         style="fill:#ff8080;stroke:#000000;stroke-width:2.20126915;stroke-linecap:butt;stroke-linejoin:miter;stroke-opacity:1;display:inline" />
      <path
         sodipodi:nodetypes="cc"
         inkscape:connector-curvature="0"
         id="path8491-7-9"
         d="m 171.62837,115.90911 c 16.55207,14.78382 20.3111,35.14977 9.07729,56.81747"
         style="fill:#ff8080;stroke:#000000;stroke-width:2.20126915;stroke-linecap:butt;stroke-linejoin:miter;stroke-opacity:1;display:inline" />
      <path
         sodipodi:nodetypes="cc"
         inkscape:connector-curvature="0"
         id="path8493-3-2"
         d="m 159.68091,111.39062 -1.68708,6.34026"
         style="fill:none;stroke:#000000;stroke-width:2.20126915;stroke-linecap:butt;stroke-linejoin:miter;stroke-opacity:1;display:inline" />
      <path
         sodipodi:nodetypes="cc"
         inkscape:connector-curvature="0"
         id="path8495-9-1"
         d="m 132.86759,116.605 7.65628,4.66298"
         style="fill:none;stroke:#000000;stroke-width:2.20126915;stroke-linecap:butt;stroke-linejoin:miter;stroke-opacity:1;display:inline" />
      <path
         sodipodi:nodetypes="ssssss"
         inkscape:connector-curvature="0"
         id="path8497-8-9"
         d="m 157.95143,123.8473 c -11.74872,1.52551 -20.78334,12.35111 -25.85734,21.55618 -6.17189,11.19677 -4.97358,25.4189 9.29552,21.32113 12.83746,-3.68661 19.6462,-4.89072 27.93955,-4.75471 5.95757,0.0977 8.32384,-9.88999 6.4765,-19.20071 -1.37332,-6.9216 -6.7802,-20.35981 -17.85423,-18.92189 z"
         style="fill:#fc3838;fill-opacity:1;stroke:#000000;stroke-width:2.20126915;stroke-linecap:butt;stroke-linejoin:miter;stroke-opacity:1;display:inline" />
      <path
         style="fill:#000000;stroke:#000000;stroke-width:2.20126915;stroke-linecap:butt;stroke-linejoin:miter;stroke-opacity:1;display:inline"
         d="m 145.49703,155.34978 c 1.92943,3.5721 9.33779,-18.95327 6.99465,-19.24859 -2.02588,-0.25535 -10.8387,12.13182 -6.99465,19.24859 z"
         id="path8513-0-8"
         inkscape:connector-curvature="0"
         sodipodi:nodetypes="sss" />
      <path
         style="fill:#000000;stroke:#000000;stroke-width:2.20126915;stroke-linecap:butt;stroke-linejoin:miter;stroke-opacity:1;display:inline"
         d="m 161.48068,134.33619 c -1.36755,-0.42659 2.67584,21.28504 4.33335,18.2932 3.54164,-6.39273 -2.2571,-17.64554 -4.33335,-18.2932 z"
         id="path8515-0-2"
         inkscape:connector-curvature="0"
         sodipodi:nodetypes="sss" />
      <path
         sodipodi:nodetypes="csc"
         inkscape:connector-curvature="0"
         id="path8499-5-2"
         d="M 77.88294,98.280349 C 33.52103,109.51068 38.70612,155.44569 60.58173,165.66243 69.242,169.7071 82.63434,138.56387 91.84139,129.73742"
         style="fill:#ff8080;stroke:#000000;stroke-width:2.20126915;stroke-linecap:butt;stroke-linejoin:miter;stroke-opacity:1;display:inline" />
      <path
         style="fill:#fc3838;fill-opacity:1;stroke:none;display:inline"
         d="m 105.99321,193.09769 c -4.58201,-14.82672 -7.57904,-34.92 3.21873,-37.37334 4.58246,-0.80946 22.23407,-2.38154 20.69908,19.0671 -0.68036,5.98652 0.75949,10.72711 -0.32878,16.91027 -2.71386,15.41929 -19.74937,13.82058 -23.58903,1.39597 z"
         id="path8521-0-0-9-35"
         inkscape:connector-curvature="0"
         sodipodi:nodetypes="sccss" />
      <path
         sodipodi:nodetypes="cssc"
         inkscape:connector-curvature="0"
         id="path3169-8-3-3"
         d="m 75.11949,177.66273 c 21.81083,-27.50152 58.00298,-31.13245 54.79138,-2.87331 -0.68036,5.98652 0.93929,10.76146 -0.1469,16.24858 -2.30076,11.62802 -10.65739,23.51696 -12.86328,26.28227"
         style="fill:none;stroke:#000000;stroke-width:2.20126915;stroke-linecap:butt;stroke-linejoin:miter;stroke-opacity:1;display:inline" />
      <path
         style="fill:none;stroke:#000000;stroke-width:2.20126915;stroke-linecap:butt;stroke-linejoin:miter;stroke-opacity:1;display:inline"
         d="m 109.21179,155.72233 c -10.79777,2.45333 -7.80074,22.54661 -3.21873,37.37333 3.83966,12.42461 21.05562,14.05399 23.40715,-0.73429"
         id="path8521-0-0-9"
         inkscape:connector-curvature="0"
         sodipodi:nodetypes="csc" />
      <path
         style="fill:#800000;stroke:#000000;stroke-width:2.20126915;stroke-linecap:butt;stroke-linejoin:miter;stroke-opacity:1;display:inline"
         d="m 126.56268,173.59342 c -3.26382,6.14321 -9.39486,7.96333 -14.2381,0.40307 -1.50887,10.02701 -3.18303,18.55232 8.40417,18.2487 7.92578,-0.20768 4.69637,-11.10395 5.83393,-18.65177 z"
         id="path8521-0-0-9-9"
         inkscape:connector-curvature="0"
         sodipodi:nodetypes="ccsc" />
    </g>
    <g
       id="g17484"
       transform="translate(-20,-13)">
      <path
         sodipodi:nodetypes="cccccc"
         inkscape:connector-curvature="0"
         id="path17472"
         d="m 276.26269,80.674643 -54.24302,19.774217 32.39263,11.87628 46.55854,-19.308147 21.97619,-15.5611 z"
         style="fill:#c8b7b7;stroke:none" />
      <path
         sodipodi:nodetypes="ccccccc"
         inkscape:connector-curvature="0"
         id="path16759-5-5"
         d="m 251.35129,153.3642 3.83601,36.32056 -41.77042,-35.9119 5.50769,-25.9566 3.0951,-27.36741 32.39393,11.8748 z"
         style="fill:#6c5353;stroke:none" />
      <path
         sodipodi:nodetypes="cccccccc"
         inkscape:connector-curvature="0"
         id="path17482"
         d="m 302.68675,143.17262 17.32601,-10.59966 -19.0419,-39.555897 -46.55726,19.306587 -3.06231,41.04055 3.83601,36.32056 41.82968,-14.51563 z"
         style="fill:#916f6f;stroke:none" />
      <path
         sodipodi:nodetypes="ccccccccc"
         inkscape:connector-curvature="0"
         id="path16763-0-0"
         d="m 302.68675,143.17262 17.32601,-10.59966 -19.0419,-39.555897 21.97618,-15.56113 17.3968,21.51671 4.09568,31.444467 5.15921,17.88031 -52.58175,26.87171 z"
         style="fill:#ac9393;stroke:none" />
      <path
         sodipodi:nodetypes="ccccccccccc"
         inkscape:connector-curvature="0"
         id="path16759-5"
         d="m 218.9263,127.81755 -5.50769,25.9566 41.77042,35.9119 41.82968,-14.51563 52.58175,-26.87171 -5.15921,-17.88031 -4.09568,-31.444463 -17.3968,-21.516718 -46.68435,3.218711 -54.24302,19.77421 z"
         style="fill:none;stroke:#000000;stroke-width:2;stroke-linecap:butt;stroke-linejoin:miter;stroke-opacity:1" />
      <path
         sodipodi:nodetypes="cccc"
         inkscape:connector-curvature="0"
         id="path16761-5"
         d="m 222.0214,100.45015 32.39263,11.87628 46.55854,-19.308148 21.97618,-15.56113"
         style="fill:none;stroke:#000000;stroke-width:2;stroke-linecap:butt;stroke-linejoin:miter;stroke-opacity:1" />
      <path
         sodipodi:nodetypes="cccc"
         inkscape:connector-curvature="0"
         id="path16763-0"
         d="m 300.97259,93.018348 19.0419,39.555902 -17.32601,10.59966 -5.66977,31.99651"
         style="fill:none;stroke:#000000;stroke-width:2;stroke-linecap:butt;stroke-linejoin:miter;stroke-opacity:1" />
      <path
         sodipodi:nodetypes="ccc"
         inkscape:connector-curvature="0"
         id="path16765-9"
         d="m 254.41533,112.32494 -3.06231,41.04055 3.83601,36.32056"
         style="fill:none;stroke:#000000;stroke-width:2;stroke-linecap:butt;stroke-linejoin:miter;stroke-opacity:1" />
      <path
         sodipodi:nodetypes="cc"
         inkscape:connector-curvature="0"
         id="path16767-5-8"
         d="m 320.01474,132.57497 24.42521,-2.15556"
         style="fill:none;stroke:#000000;stroke-width:2;stroke-linecap:butt;stroke-linejoin:miter;stroke-opacity:1" />
    </g>
    <path
       style="fill:none;stroke:#000000;stroke-width:2;stroke-linecap:butt;stroke-linejoin:miter;stroke-opacity:1"
       d="m 109.60155,108.57507 c 0.29927,7.5375 -1.75716,7.45648 -4.24264,10.25305"
       id="path16853"
       inkscape:connector-curvature="0"
       sodipodi:nodetypes="cc" />
    <path
       style="fill:none;stroke:#000000;stroke-width:2;stroke-linecap:butt;stroke-linejoin:miter;stroke-opacity:1"
       d="m 114.19774,108.92863 c 0.49875,4.00458 1.77124,7.52557 6.01041,9.19238"
       id="path16855"
       inkscape:connector-curvature="0"
       sodipodi:nodetypes="cc" />
    <path
       style="fill:none;stroke:#000000;stroke-width:2;stroke-linecap:butt;stroke-linejoin:miter;stroke-opacity:1"
       d="m 107.83378,120.59589 c 3.33422,-2.73027 5.71386,-1.64223 8.13173,-0.70711"
       id="path16857"
       inkscape:connector-curvature="0"
       sodipodi:nodetypes="cc" />
    <path
       style="fill:none;stroke:#000000;stroke-width:2;stroke-linecap:butt;stroke-linejoin:miter;stroke-opacity:1"
       d="m 222.75,199.25 c -3.50414,6.50856 -6.04768,13.47349 -14.25,17.75"
       id="path17367"
       inkscape:connector-curvature="0"
       sodipodi:nodetypes="cc" />
    <path
       style="fill:none;stroke:#000000;stroke-width:2;stroke-linecap:butt;stroke-linejoin:miter;stroke-opacity:1"
       d="m 225.25,208 c -0.96674,4.31996 -3.97162,7.91703 -8.25,10.25"
       id="path17369"
       inkscape:connector-curvature="0"
       sodipodi:nodetypes="cc" />
    <path
       style="fill:none;stroke:#000000;stroke-width:2;stroke-linecap:butt;stroke-linejoin:miter;stroke-opacity:1"
       d="m 134.25,213 c -2.37482,5.25713 -5.36377,10.36362 -9.25,15.25"
       id="path17371"
       inkscape:connector-curvature="0"
       sodipodi:nodetypes="cc" />
    <path
       style="fill:none;stroke:#000000;stroke-width:2;stroke-linecap:butt;stroke-linejoin:miter;stroke-opacity:1"
       d="m 137.75,222.5 c -0.96326,3.66338 -3.2932,6.41564 -6.25,8.75"
       id="path17373"
       inkscape:connector-curvature="0"
       sodipodi:nodetypes="cc" />
    <path
       style="opacity:0.5;fill:none;stroke:#000000;stroke-width:2;stroke-linecap:butt;stroke-linejoin:miter;stroke-opacity:1"
       d="m 202.25619,169.84072 35.99921,30.95013 36.05028,-12.51008 45.3168,-23.15898"
       id="path16759-5-9"
       inkscape:connector-curvature="0"
       sodipodi:nodetypes="cccc" />
    <path
       style="fill:none;stroke:#000000;stroke-width:2;stroke-linecap:butt;stroke-linejoin:miter;stroke-opacity:1"
       d="m 421.90907,188.78177 41.77042,35.9119 41.82968,-14.51563 52.58175,-26.87171"
       id="path16759-5-9-3"
       inkscape:connector-curvature="0"
       sodipodi:nodetypes="cccc" />
    <path
       style="opacity:0.5;fill:none;stroke:#000000;stroke-width:2;stroke-linecap:butt;stroke-linejoin:miter;stroke-opacity:1"
       d="m 206.52629,197.10283 33.22049,28.56114 33.26761,-11.54445 41.81886,-21.37137"
       id="path16759-5-9-35"
       inkscape:connector-curvature="0"
       sodipodi:nodetypes="cccc" />
    <path
       style="opacity:0.5;fill:none;stroke:#000000;stroke-width:2;stroke-linecap:butt;stroke-linejoin:miter;stroke-opacity:1"
       d="m 209.88421,223.17266 30.86925,26.53967 30.91305,-10.72736 38.85906,-19.85878"
       id="path16759-5-9-8"
       inkscape:connector-curvature="0"
       sodipodi:nodetypes="cccc" />
  </g>
  <g
     inkscape:groupmode="layer"
     id="layer4"
     inkscape:label="字幕"
     sodipodi:insensitive="true">
    <text
       xml:space="preserve"
       style="font-size:70.34015656px;font-style:normal;font-weight:normal;line-height:125%;letter-spacing:0px;word-spacing:0px;writing-mode:lr-tb;fill:#000000;fill-opacity:1;stroke:none;font-family:Sans"
       x="82.628853"
       y="70.930664"
       id="text6768"
       sodipodi:linespacing="125%"><tspan
         sodipodi:role="line"
         id="tspan6770"
         x="82.628853"
         y="70.930664"
         style="font-weight:bold;-inkscape-font-specification:Sans Bold">修行中</tspan></text>
  </g>
  <g
     inkscape:groupmode="layer"
     id="layer2"
     inkscape:label="枠面"
     sodipodi:insensitive="true">
    <path
       style="fill:#ffffff;stroke:none;display:inline"
       d="m 0,0 0,320 370,0 0,-320 -10,10 0,300 -350,0 0,-300 350,0 10,-10 z"
       id="path21072"
       inkscape:connector-curvature="0"
       sodipodi:nodetypes="ccccccccccc" />
  </g>
</svg>
