<?xml version="1.0" encoding="UTF-8" standalone="no"?>
<!-- Created with Inkscape (http://www.inkscape.org/) -->

<svg
   xmlns:dc="http://purl.org/dc/elements/1.1/"
   xmlns:cc="http://creativecommons.org/ns#"
   xmlns:rdf="http://www.w3.org/1999/02/22-rdf-syntax-ns#"
   xmlns:svg="http://www.w3.org/2000/svg"
   xmlns="http://www.w3.org/2000/svg"
   xmlns:sodipodi="http://sodipodi.sourceforge.net/DTD/sodipodi-0.dtd"
   xmlns:inkscape="http://www.inkscape.org/namespaces/inkscape"
   width="370"
   height="320"
   id="svg3172"
   version="1.1"
   inkscape:version="0.48.4 r9939"
   sodipodi:docname="[20]準備2.svg"
   inkscape:export-filename="C:\Users\執安\Desktop\資料\臨時\BUTING\[20]準備.png"
   inkscape:export-xdpi="90"
   inkscape:export-ydpi="90">
  <defs
     id="defs3174" />
  <sodipodi:namedview
     id="base"
     pagecolor="#ffffff"
     bordercolor="#666666"
     borderopacity="1.0"
     inkscape:pageopacity="0.0"
     inkscape:pageshadow="2"
     inkscape:zoom="1"
     inkscape:cx="354.59808"
     inkscape:cy="91.124615"
     inkscape:document-units="px"
     inkscape:current-layer="layer3"
     showgrid="false"
     inkscape:window-width="1142"
     inkscape:window-height="698"
     inkscape:window-x="-5"
     inkscape:window-y="-5"
     inkscape:window-maximized="0" />
  <metadata
     id="metadata3177">
    <rdf:RDF>
      <cc:Work
         rdf:about="">
        <dc:format>image/svg+xml</dc:format>
        <dc:type
           rdf:resource="http://purl.org/dc/dcmitype/StillImage" />
        <dc:title></dc:title>
      </cc:Work>
    </rdf:RDF>
  </metadata>
  <g
     inkscape:label="補助線"
     inkscape:groupmode="layer"
     id="layer1"
     transform="translate(0,-732.36218)"
     sodipodi:insensitive="true"
     style="display:none">
    <path
       style="fill:none;stroke:#0000ff;stroke-width:1px;stroke-linecap:butt;stroke-linejoin:miter;stroke-opacity:1;display:inline"
       d="M 10,1042.3622 360,742.36211"
       id="path3025"
       inkscape:connector-curvature="0"
       sodipodi:nodetypes="cc" />
    <path
       style="fill:none;stroke:#0000ff;stroke-width:1px;stroke-linecap:butt;stroke-linejoin:miter;stroke-opacity:1;display:inline"
       d="M 10,742.36211 360,1042.3622"
       id="path3027"
       inkscape:connector-curvature="0"
       sodipodi:nodetypes="cc" />
    <path
       style="fill:none;stroke:#ff0000;stroke-width:1px;stroke-linecap:butt;stroke-linejoin:miter;stroke-opacity:1;display:inline"
       d="m 10,732.36211 0,320.00009"
       id="path3006"
       inkscape:connector-curvature="0"
       sodipodi:nodetypes="cc" />
    <path
       style="fill:none;stroke:#ff0000;stroke-width:1px;stroke-linecap:butt;stroke-linejoin:miter;stroke-opacity:1;display:inline"
       d="m 360,732.36211 0,320.00009"
       id="path3010"
       inkscape:connector-curvature="0"
       sodipodi:nodetypes="cc" />
    <path
       style="fill:none;stroke:#ff0000;stroke-width:1px;stroke-linecap:butt;stroke-linejoin:miter;stroke-opacity:1;display:inline"
       d="m 0,742.36208 370,3e-5"
       id="path3016"
       inkscape:connector-curvature="0" />
    <path
       style="fill:none;stroke:#ff0000;stroke-width:1px;stroke-linecap:butt;stroke-linejoin:miter;stroke-opacity:1;display:inline"
       d="m 0,1042.3622 370,0"
       id="path3018"
       inkscape:connector-curvature="0"
       sodipodi:nodetypes="cc" />
  </g>
  <g
     inkscape:groupmode="layer"
     id="layer3"
     inkscape:label="豚"
     sodipodi:insensitive="true">
    <path
       sodipodi:type="arc"
       style="opacity:0.5;fill:#000000;stroke:none"
       id="path4194-6"
       sodipodi:cx="86.5"
       sodipodi:cy="290"
       sodipodi:rx="62.5"
       sodipodi:ry="10"
       d="m 149,290 a 62.5,10 0 1 1 -125,0 62.5,10 0 1 1 125,0 z"
       transform="matrix(1.4355778,0,0,1.1944544,109.8038,-54.256619)" />
    <path
       sodipodi:type="arc"
       style="opacity:0.5;fill:#000000;stroke:none"
       id="path4194"
       sodipodi:cx="86.5"
       sodipodi:cy="290"
       sodipodi:rx="62.5"
       sodipodi:ry="10"
       d="m 149,290 a 62.5,10 0 1 1 -125,0 62.5,10 0 1 1 125,0 z"
       transform="translate(-6.5428932,0.3106602)" />
    <g
       id="g4112"
       transform="translate(10.899495,-10.292893)">
      <path
         sodipodi:nodetypes="cscsccc"
         inkscape:connector-curvature="0"
         id="path3674-1-8"
         d="m 255.4486,167.88342 c 15.14982,15.42909 30.06784,46.1339 21.26548,48.76329 -1.40961,0.42106 -3.01656,0.22304 -4.29637,-0.136 -4.29515,1.15468 -3.58632,6.1988 -6.114,6.12674 -3.95986,-0.11289 -12.11029,-3.71605 -19.4553,-8.93753 l -18.02946,-23.52335 z"
         style="fill:#ffd5d5;stroke:none" />
      <path
         sodipodi:nodetypes="csccsc"
         inkscape:connector-curvature="0"
         id="path2997-7-3"
         d="m 272.41541,216.50936 c -4.29514,1.15468 -3.58632,6.1988 -6.11401,6.12674 -3.95985,-0.11289 -6.94957,-1.91938 -6.94957,-1.91938 -10.24432,-6.603 6.87151,-32.38984 16.09298,-22.51995 1.79793,4.07148 6.48695,15.46091 1.26696,18.44858 -1.36349,0.7804 -3.30022,0.42182 -4.29636,-0.13599 z"
         style="fill:#ffaaaa;stroke:none" />
      <path
         sodipodi:nodetypes="cscc"
         inkscape:connector-curvature="0"
         id="path3674-1-7"
         d="m 266.33371,222.6608 c -2.90039,0.0134 -2.40179,-5.06208 -0.92136,-6.83007 1.77399,-2.11856 7.00553,0.68314 7.00553,0.68314 -4.01716,1.17885 -2.81795,5.54152 -6.08417,6.14693 z"
         style="fill:#ff8080;stroke:none" />
      <path
         id="path3674-1"
         d="m 265.41213,215.82956 c -1.48043,1.76799 -1.97903,6.84349 0.92136,6.83007"
         style="fill:none;stroke:#000000;stroke-width:2;stroke-linecap:butt;stroke-linejoin:miter;stroke-opacity:1"
         inkscape:connector-curvature="0" />
      <path
         sodipodi:nodetypes="csc"
         inkscape:connector-curvature="0"
         id="path2997-7"
         d="m 272.41767,216.5127 c -4.29515,1.15468 -3.58632,6.1988 -6.114,6.12674 -3.95986,-0.11289 -12.11029,-3.71605 -19.45531,-8.93753"
         style="fill:none;stroke:#000000;stroke-width:2;stroke-linecap:butt;stroke-linejoin:miter;stroke-opacity:1" />
      <path
         sodipodi:nodetypes="cc"
         inkscape:connector-curvature="0"
         id="path3676-4"
         d="m 275.44707,198.20012 c -9.22147,-9.86988 -26.3373,15.91694 -16.09299,22.51995"
         style="fill:none;stroke:#000000;stroke-width:2;stroke-linecap:butt;stroke-linejoin:miter;stroke-opacity:1" />
    </g>
    <g
       id="g4120"
       transform="translate(10.899495,-10.292893)">
      <path
         sodipodi:nodetypes="ccccc"
         inkscape:connector-curvature="0"
         id="path3005-0"
         d="m 253.18454,209.54352 -12.51833,46.60961 c -19.41334,45.14501 -49.87573,41.62799 -46.75394,7.07341 l -45.00144,-89.9852 104.65147,-4.70475"
         style="fill:#ffd5d5;stroke:#000000;stroke-width:2;stroke-linecap:butt;stroke-linejoin:miter;stroke-opacity:1" />
      <path
         sodipodi:nodetypes="cc"
         inkscape:connector-curvature="0"
         id="path3079"
         d="m 237.51337,258.24751 c 22.80932,-11.57781 25.63022,-38.98754 16.9483,-58.87296"
         style="fill:#ffd5d5;stroke:#000000;stroke-width:2;stroke-linecap:butt;stroke-linejoin:miter;stroke-opacity:1" />
      <path
         sodipodi:nodetypes="csc"
         inkscape:connector-curvature="0"
         id="path3005"
         d="m 147.27614,167.07181 c -14.59233,24.44318 -19.18503,56.66122 -3.79128,76.90194 17.08899,22.46974 56.39972,27.9285 74.47233,20.00162"
         style="fill:#ffd5d5;stroke:#000000;stroke-width:2;stroke-linecap:butt;stroke-linejoin:miter;stroke-opacity:1" />
      <path
         sodipodi:nodetypes="cssc"
         inkscape:connector-curvature="0"
         id="path3003"
         d="m 178.99133,253.78399 c 6.07573,8.70362 8.71228,31.31827 22.23131,26.86282 14.21241,-4.68399 23.29364,-27.77225 16.67348,-42.14684 -4.91704,-10.67661 -17.53923,-10.36775 -26.50726,-9.17697"
         style="fill:#ffd5d5;stroke:#000000;stroke-width:2;stroke-linecap:butt;stroke-linejoin:miter;stroke-opacity:1" />
    </g>
    <g
       id="g4072"
       transform="translate(10.899495,-10.292893)">
      <path
         sodipodi:nodetypes="cccc"
         inkscape:connector-curvature="0"
         id="path3001"
         d="m 147.73114,175.08742 85.93207,-62.62562 c 15.54106,2.93766 26.46345,21.11429 20.00559,34.65257 l 0.0113,23.78616"
         style="fill:#ffd5d5;stroke:#000000;stroke-width:2;stroke-linecap:butt;stroke-linejoin:miter;stroke-opacity:1" />
      <path
         sodipodi:nodetypes="csc"
         inkscape:connector-curvature="0"
         id="path2985"
         d="m 245.14737,123.36359 c -17.96549,-26.147875 -59.51242,-24.404167 -78.59983,3.58389 -10.98456,16.10676 -22.86621,36.18316 -17.78195,50.54728"
         style="fill:#ffd5d5;stroke:#000000;stroke-width:2;stroke-linecap:butt;stroke-linejoin:miter;stroke-opacity:1" />
      <path
         sodipodi:nodetypes="cc"
         inkscape:connector-curvature="0"
         id="path2987"
         d="m 251.2722,142.36891 c 6.98391,12.29339 8.18498,26.66387 -3.17705,38.85337"
         style="fill:#ffd5d5;stroke:#000000;stroke-width:2;stroke-linecap:butt;stroke-linejoin:miter;stroke-opacity:1" />
      <path
         sodipodi:nodetypes="ssssss"
         inkscape:connector-curvature="0"
         id="path2989"
         d="m 247.94391,161.57035 c 0.0496,-6.44741 -3.61436,-14.46563 -10.34824,-13.4876 -8.05794,1.17032 -16.46078,8.40656 -22.96096,17.31883 -6.08807,8.34715 -2.35562,15.94784 5.00556,14.63385 9.09636,-1.62374 14.39225,-3.07825 21.431,-3.78469 6.62476,-0.66488 6.8212,-7.98588 6.87264,-14.68039 z"
         style="fill:#ffaaaa;stroke:#000000;stroke-width:2;stroke-linecap:butt;stroke-linejoin:miter;stroke-opacity:1" />
      <path
         sodipodi:nodetypes="sss"
         inkscape:connector-curvature="0"
         id="path2991"
         d="m 224.56636,172.70927 c -3.97534,-6.09997 5.40233,-15.19158 8.12646,-16.37407 1.90927,-0.82879 -6.41803,18.99556 -8.12646,16.37407 z"
         style="fill:#000000;stroke:#000000;stroke-width:2;stroke-linecap:butt;stroke-linejoin:miter;stroke-opacity:1" />
      <path
         sodipodi:nodetypes="sss"
         inkscape:connector-curvature="0"
         id="path2993"
         d="m 239.96279,170.33732 c 3.49741,-6.13468 1.55912,-14.19535 -0.57074,-14.32962 -2.13237,-0.13443 -1.53076,18.01577 0.57074,14.32962 z"
         style="fill:#000000;stroke:#000000;stroke-width:2;stroke-linecap:butt;stroke-linejoin:miter;stroke-opacity:1" />
      <path
         sodipodi:nodetypes="csc"
         inkscape:connector-curvature="0"
         id="path2999"
         d="m 184.87386,113.57567 c -24.28565,3.35197 -35.95706,33.9462 -18.35121,48.21769 5.23324,4.24211 18.32198,-13.84375 25.12633,-20.91939"
         style="fill:#ffd5d5;stroke:#000000;stroke-width:2;stroke-linecap:butt;stroke-linejoin:miter;stroke-opacity:1" />
      <path
         sodipodi:nodetypes="cc"
         inkscape:connector-curvature="0"
         id="path3007"
         d="M 226.48624,146.69397 221.175,140.50376"
         style="fill:none;stroke:#000000;stroke-width:2;stroke-linecap:butt;stroke-linejoin:miter;stroke-opacity:1" />
      <path
         sodipodi:nodetypes="cc"
         inkscape:connector-curvature="0"
         id="path3009"
         d="m 240.50539,144.40081 1.28189,-6.56359"
         style="fill:none;stroke:#000000;stroke-width:2;stroke-linecap:butt;stroke-linejoin:miter;stroke-opacity:1" />
    </g>
    <path
       style="fill:#1a1a1a;stroke:#000000;stroke-width:2;stroke-linecap:butt;stroke-linejoin:miter;stroke-opacity:1;display:inline"
       d="m -116.52446,121.04941 c -3.55751,-14.64337 14.13451,-25.173698 21.774805,-20.75411"
       id="path5071-7-1-2"
       inkscape:connector-curvature="0"
       sodipodi:nodetypes="cc" />
    <path
       style="fill:#1a1a1a;stroke:#000000;stroke-width:2;stroke-linecap:butt;stroke-linejoin:miter;stroke-opacity:1;display:inline"
       d="m -121.02661,158.98835 c -13.33439,16.03888 -20.70193,42.21456 -17.71789,47.11759 7.38087,12.12739 36.80798,-26.8284 38.66815,-27.56218"
       id="path5077-4-4-7"
       inkscape:connector-curvature="0"
       sodipodi:nodetypes="csc" />
    <path
       style="fill:#e6e6e6;stroke:none;display:inline"
       d="m -5.3565249,198.34003 c -0.86626,-10.34655 -3.41757,-32.02368 -15.5631101,-45.90421 5.87615,-22.55255 -12.88284,-49.54089 -47.86587,-55.876378 -25.11835,-4.549 -48.635185,16.434338 -48.489245,29.426268 -4.7596,4.4118 -8.64395,8.20538 -8.69013,15.98125 -0.0323,5.43667 2.20587,15.1487 7.95446,21.35232 -17.31132,34.00982 -22.38025,60.13036 -10.6598,77.03084 -9.39466,2.57617 -15.0815,9.73863 -8.36713,14.08682 8.60546,5.57284 41.039795,4.48857 40.230875,-0.40671 8.8716,1.02476 20.59893,-2.09209 35.40838,-2.17387 -7.43282,9.86963 12.06994,12.83314 30.68459,5.96964 16.90841,-6.23438 23.0067901,-11.80567 22.3427901,-17.64456 12.27617,-8.40647 4.39501,-25.34907 3.01419,-41.84141 z"
       id="path5067-7-0-2-6"
       inkscape:connector-curvature="0"
       sodipodi:nodetypes="scscsccsccscs" />
    <path
       sodipodi:nodetypes="scsscs"
       inkscape:connector-curvature="0"
       id="path3388-9-3-1"
       d="m -139.19244,252.2212 c -2.72415,-4.64107 3.02669,-9.95545 10.62328,-11.8857 2.75964,2.96777 4.80389,3.83029 7.51554,4.70472 1.10129,0.35515 6.64111,2.43118 7.654,3.24956 4.19364,3.38839 11.30618,5.95212 20.746925,5.77015 1.55383,4.86947 -41.395875,6.92476 -46.539745,-1.83873 z"
       style="fill:#1a1a1a;stroke:none;display:inline" />
    <path
       sodipodi:nodetypes="csccscc"
       inkscape:connector-curvature="0"
       id="path3386-4-2-4"
       d="m -117.95599,163.46264 c 2.37391,2.02987 4.43026,7.49017 12.06583,7.9981 32.282525,2.14746 57.320275,-7.88873 84.835685,-18.89142 10.32734,11.46922 15.9249401,33.94607 15.8905201,50.15526 -14.5200501,-15.37185 -90.3366801,-24.18225 -102.8087851,-24.37205 -9.12411,-0.13882 -15.93414,2.79508 -20.45638,8.00167 2.12997,-7.79446 7.69438,-18.72519 10.47313,-22.89156 z"
       style="fill:#1a1a1a;stroke:none;display:inline" />
    <path
       sodipodi:nodetypes="cscssc"
       inkscape:connector-curvature="0"
       id="path3390-8-2-2"
       d="m -8.3487449,240.22612 c 1.83808,9.13632 -11.3771401,15.50803 -19.1979401,18.58334 -16.57212,6.51649 -42.08007,3.75101 -33.86686,-6.88771 5.27127,-0.5229 10.45155,0.72476 14.41265,1.49607 17.32514,3.37357 26.3002,-7.5263 32.81127,-9.80545 2.45653,-0.8599 4.0978,-2.29605 5.8408801,-3.38625 z"
       style="fill:#1a1a1a;stroke:none;display:inline" />
    <path
       style="fill:none;stroke:#000000;stroke-width:2;stroke-linecap:butt;stroke-linejoin:miter;stroke-opacity:1;display:inline"
       d="m -117.35074,125.93932 c -0.47112,-12.62725 23.291695,-33.786268 48.410045,-29.237278 34.98303,6.335488 53.74202,33.323828 47.86587,55.876398 12.1455401,13.88051 15.0742101,35.53296 15.5631101,45.90418 0.78447,16.64144 12.40351,35.70778 -8.6860401,45.15817"
       id="path5067-8-1-3"
       inkscape:connector-curvature="0"
       sodipodi:nodetypes="cscsc" />
    <path
       style="fill:#1a1a1a;stroke:#000000;stroke-width:2;stroke-linecap:butt;stroke-linejoin:miter;stroke-opacity:1;display:inline"
       d="m -65.441175,110.35643 c -1.41913,-11.383028 23.03446,-9.95216 29.77929,-0.29451 10.39165,14.87935 -10.13376,33.8936 -15.70304,28.09054 -8.39901,-8.75156 -12.81739,-17.69852 -14.07625,-27.79603 z"
       id="path5069-2-6-2"
       inkscape:connector-curvature="0"
       sodipodi:nodetypes="ssss" />
    <path
       style="fill:#1a1a1a;stroke:#000000;stroke-width:2;stroke-linecap:butt;stroke-linejoin:miter;stroke-opacity:1;display:inline"
       d="m -102.51399,132.43379 c -4.16525,-3.72353 -0.15255,-8.92665 3.106635,-8.33066 6.22403,1.13814 14.87189,7.00669 17.63508,13.74674 1.25846,3.06967 -3.8146,8.05762 -7.73358,7.47817 -5.47095,-0.80889 -10.41657,-10.57749 -13.008135,-12.89425 z"
       id="path5073-4-8-2"
       inkscape:connector-curvature="0"
       sodipodi:nodetypes="sssss" />
    <path
       style="fill:none;stroke:#000000;stroke-width:2;stroke-linecap:butt;stroke-linejoin:miter;stroke-opacity:1;display:inline"
       d="m -115.04934,124.13863 c -4.78582,3.76596 -10.99971,9.69813 -11.07073,17.97092 -0.0467,5.43656 2.41671,14.0945 8.2151,21.328"
       id="path5075-5-5-1"
       inkscape:connector-curvature="0"
       sodipodi:nodetypes="csc" />
    <path
       style="fill:none;stroke:#000000;stroke-width:2;stroke-linecap:butt;stroke-linejoin:miter;stroke-opacity:1;display:inline"
       d="m -125.99809,180.07597 c -14.82927,36.42323 -9.72324,61.21371 4.97632,65.02075"
       id="path5079-5-7-6"
       inkscape:connector-curvature="0"
       sodipodi:nodetypes="cc" />
    <path
       style="fill:none;stroke:#000000;stroke-width:2;stroke-linecap:butt;stroke-linejoin:miter;stroke-opacity:1;display:inline"
       d="m -113.41145,248.29654 c 15.628855,12.97241 44.828445,-0.63082 66.410965,5.12932"
       id="path5081-1-6-8"
       inkscape:connector-curvature="0"
       sodipodi:nodetypes="cc" />
    <path
       style="fill:#1a1a1a;stroke:#000000;stroke-width:2;stroke-linecap:butt;stroke-linejoin:miter;stroke-opacity:1;display:inline"
       d="m -60.071465,177.35986 c -0.1566,18.8367 -5.54867,41.10274 1.66588,44.18044 10.43094,4.44981 31.12738,-9.02887 37.61265,-27.88032"
       id="path5083-7-1-5"
       inkscape:connector-curvature="0"
       sodipodi:nodetypes="csc" />
    <path
       style="fill:#1a1a1a;stroke:#000000;stroke-width:2;stroke-linecap:butt;stroke-linejoin:miter;stroke-opacity:1;display:inline"
       d="m -124.5442,138.54699 c 1.97623,-3.42595 17.21392,2.27717 16.71994,6.80466 -0.72663,6.65981 -6.54426,8.51672 -9.91531,7.97109 -3.1779,-0.51435 -9.01651,-10.94125 -6.80463,-14.77575 z"
       id="path5085-1-8-7"
       inkscape:connector-curvature="0"
       sodipodi:nodetypes="ssss" />
    <path
       style="fill:none;stroke:#000000;stroke-width:2;stroke-linecap:butt;stroke-linejoin:miter;stroke-opacity:1;display:inline"
       d="m -117.07539,153.34123 c 7.24055,4.18281 15.36803,9.9313 17.611095,2.12013"
       id="path5087-1-9-6"
       inkscape:connector-curvature="0"
       sodipodi:nodetypes="cc" />
    <path
       sodipodi:nodetypes="csc"
       inkscape:connector-curvature="0"
       id="path3291-5-2-1"
       d="m -61.378225,251.91456 c -6.77878,7.15049 9.81953,15.59458 33.9255,6.86751 16.9449,-6.13456 20.6115501,-14.50334 19.0922801,-18.61721"
       style="fill:none;stroke:#000000;stroke-width:2;stroke-linecap:butt;stroke-linejoin:miter;stroke-opacity:1;display:inline" />
    <path
       sodipodi:nodetypes="csc"
       inkscape:connector-curvature="0"
       id="path3293-2-7-8"
       d="m -128.6281,240.38615 c -8.64776,1.51491 -15.10487,9.73341 -8.39051,14.0816 8.60547,5.57285 45.711175,4.10341 44.331365,-0.38205"
       style="fill:none;stroke:#000000;stroke-width:2;stroke-linecap:butt;stroke-linejoin:miter;stroke-opacity:1;display:inline" />
    <path
       sodipodi:nodetypes="cc"
       inkscape:connector-curvature="0"
       id="path3295-7-9-9"
       d="m -122.42197,153.33309 c 0.92403,1.53598 1.7586,1.4554 4.22272,-0.088"
       style="fill:none;stroke:#000000;stroke-width:2;stroke-linecap:butt;stroke-linejoin:miter;stroke-opacity:1;display:inline" />
    <g
       id="g4061"
       transform="translate(10.899495,-10.292893)">
      <path
         sodipodi:nodetypes="ssccs"
         inkscape:connector-curvature="0"
         id="path3674-7"
         d="m 188.80341,235.39633 c -4.11719,2.63022 -10.73301,4.848 -18.12297,2.25337 -8.50609,-2.98651 -10.32135,-10.46716 -10.32135,-10.46716 -4.075,-13.16103 37.73269,-20.54052 35.63797,-4.3786 0,0 -0.59131,8.37457 -7.19365,12.59239 z"
         style="fill:#ffaaaa;stroke:none" />
      <path
         sodipodi:nodetypes="scscs"
         inkscape:connector-curvature="0"
         id="path3998-9"
         d="m 184.21304,230.26031 c -8.00916,1.21509 -19.18962,-8.74183 -16.17511,-1.81784 2.74908,6.31436 10.8278,8.08054 14.97421,7.57127 4.05582,-0.49814 9.59165,-5.67645 9.71156,-10.01897 0.11747,-4.25404 -1.90786,3.26381 -8.51066,4.26554 z"
         style="fill:#ff8080;stroke:none" />
      <path
         id="path3676-6"
         d="m 168.03649,228.44343 c 2.74908,6.31436 10.8278,8.08054 14.97421,7.57127 4.05582,-0.49814 9.59165,-5.67645 9.71156,-10.01897"
         style="fill:none;stroke:#000000;stroke-width:2;stroke-linecap:butt;stroke-linejoin:miter;stroke-opacity:1"
         inkscape:connector-curvature="0"
         sodipodi:nodetypes="csc" />
      <path
         sodipodi:nodetypes="cc"
         inkscape:connector-curvature="0"
         id="path3676"
         d="m 195.99725,222.80299 c 2.09472,-16.16192 -39.71297,-8.78243 -35.63797,4.3786"
         style="fill:none;stroke:#000000;stroke-width:2;stroke-linecap:butt;stroke-linejoin:miter;stroke-opacity:1" />
      <path
         sodipodi:nodetypes="cssc"
         inkscape:connector-curvature="0"
         id="path3674"
         d="m 198.50133,196.80961 c -0.0379,20.85717 -3.09539,34.36795 -9.69773,38.58577 -4.11719,2.63022 -10.73302,4.848 -18.12297,2.25337 -8.5061,-2.98651 -16.24569,-20.35833 -19.73628,-33.92001"
         style="fill:none;stroke:#000000;stroke-width:2;stroke-linecap:butt;stroke-linejoin:miter;stroke-opacity:1" />
    </g>
    <g
       id="g4196"
       transform="translate(9.8994949,0.70710678)">
      <path
         style="fill:#1a1a1a;stroke:#000000;stroke-width:2;stroke-linecap:butt;stroke-linejoin:miter;stroke-opacity:1;display:inline"
         d="m 136.87711,268.40426 c -12.14776,6.51491 -10.66078,18.91005 1.10949,23.0816 13.77799,4.88311 46.21117,4.85341 44.83136,-2.63205"
         id="path3293-2-7-8-4"
         inkscape:connector-curvature="0"
         sodipodi:nodetypes="csc" />
      <path
         style="fill:#1a1a1a;stroke:#000000;stroke-width:2;stroke-linecap:butt;stroke-linejoin:miter;stroke-opacity:1;display:inline"
         d="m 274.32324,273.40426 c 7.39776,1.76491 16.85487,11.73341 8.64051,18.0816 -8.11219,6.26923 -49.96117,1.35341 -48.58136,-3.13205"
         id="path3293-2-7-8-4-2"
         inkscape:connector-curvature="0"
         sodipodi:nodetypes="csc" />
      <path
         sodipodi:nodetypes="csc"
         inkscape:connector-curvature="0"
         id="path5077-4-4-7-2"
         d="m 275.22995,212.85424 c 13.33439,16.03888 20.70193,42.21456 17.71789,47.11759 -7.38087,12.12739 -36.80798,-26.8284 -38.66815,-27.56218"
         style="fill:#1a1a1a;stroke:#000000;stroke-width:2;stroke-linecap:butt;stroke-linejoin:miter;stroke-opacity:1;display:inline" />
      <path
         sodipodi:nodetypes="cccsccsc"
         inkscape:connector-curvature="0"
         id="path3015-5"
         d="m 136.64715,215.42438 c -7.40093,11.94852 16.37363,21.39309 38.13093,3.03818 l 5.94431,-0.0997 c 18.85269,23.73114 53.63858,11.93517 60.2072,9.39459 17.1709,-6.64128 19.70315,-7.55815 29.28848,-22.93208 l 6.61867,0.46339 c -2.87647,21.3166 19.98179,66.31668 -11.86822,79.07622 -36.71512,14.70857 -172.478669,24.4926 -129.15184,-72.30067"
         style="fill:#e6e6e6;stroke:none" />
      <path
         sodipodi:nodetypes="cscccccsccc"
         inkscape:connector-curvature="0"
         id="path3705-8"
         d="m 280.66732,240.35267 c -6.55418,-27.31203 -26.39664,-5.48913 -62.93021,-4.08301 -39.70053,1.52801 -74.87546,9.4637 -89.76763,18.22946 -1.9203,-17.52814 2.10972,-28.88549 7.8485,-42.43649 l 0.6316,3.51475 c -7.40093,11.94852 15.4475,17.11341 37.20479,-1.2415 l 15.56931,1.1503 c 18.85269,23.73114 45.56677,15.71872 51.7072,12.26959 12.0459,-6.76628 17.20315,-11.99565 27.16348,-22.99458 l 8.74367,0.52589 c 4.87353,20.8166 3.82929,35.06559 3.82929,35.06559 z"
         style="fill:#1a1a1a;stroke:none" />
      <path
         sodipodi:nodetypes="cccsccscc"
         inkscape:connector-curvature="0"
         id="path3015"
         d="m 136.44885,215.57826 c -7.40093,11.94852 15.4475,17.11341 37.20479,-1.2415 l 15.56931,1.1503 c 18.85269,23.73114 45.61127,15.79676 51.7072,12.26959 11.0459,-6.39128 18.20315,-12.24565 27.16348,-22.99458 l 8.74367,0.52589 c -4.12647,23.5666 21.23179,63.31668 -11.86822,79.07622 -35.71072,17.00255 -172.478664,24.4926 -129.15183,-72.30067 z"
         style="fill:none;stroke:#000000;stroke-width:2;stroke-linecap:butt;stroke-linejoin:miter;stroke-opacity:1" />
      <path
         sodipodi:nodetypes="csc"
         inkscape:connector-curvature="0"
         id="path3705"
         d="m 127.96875,254.5 c 14.89217,-8.76576 50.0671,-16.70145 89.76763,-18.22946 36.53357,-1.40612 56.37603,-23.22902 62.93021,4.08301"
         style="fill:none;stroke:#000000;stroke-width:2;stroke-linecap:butt;stroke-linejoin:miter;stroke-opacity:1" />
      <path
         sodipodi:nodetypes="csc"
         inkscape:connector-curvature="0"
         id="path5083-7-1-5-1"
         d="m 175.16159,231.32843 c 0.1566,18.8367 5.54867,41.10274 -1.66588,44.18044 -10.43094,4.44981 -31.12738,-9.02887 -37.61265,-27.88032"
         style="fill:#1a1a1a;stroke:#000000;stroke-width:2;stroke-linecap:butt;stroke-linejoin:miter;stroke-opacity:1;display:inline" />
    </g>
    <g
       id="g4068"
       transform="translate(10.899495,-10.292893)">
      <path
         sodipodi:nodetypes="cscccc"
         id="path3998-3"
         d="m 192.72176,225.99862 c 0.11747,-4.25404 -1.90786,3.26381 -8.51066,4.26554 -8.00916,1.21509 -19.18962,-8.74183 -16.17511,-1.81784 l -5.19305,-5.66609 31.1375,-3.05206 z"
         style="fill:#ffaaaa;stroke:none"
         inkscape:connector-curvature="0" />
      <path
         sodipodi:nodetypes="csc"
         inkscape:connector-curvature="0"
         id="path3998"
         d="m 192.72226,225.99573 c 0.11747,-4.25404 -1.90786,3.26381 -8.51066,4.26554 -8.00916,1.21509 -19.18962,-8.74183 -16.17511,-1.81784"
         style="fill:none;stroke:#000000;stroke-width:2;stroke-linecap:butt;stroke-linejoin:miter;stroke-opacity:1" />
    </g>
    <g
       id="g4108"
       transform="translate(10.899495,-10.292893)">
      <path
         sodipodi:nodetypes="sccs"
         id="path4085-8"
         d="m 276.71339,216.64889 c -3.79079,1.44432 -9.52792,-2.9377 -11.30191,-0.81914 l 10.23416,-17.70757 c 1.40353,3.31762 6.75414,16.36017 1.06775,18.52671 z"
         style="fill:#ffaaaa;stroke:none"
         inkscape:connector-curvature="0" />
      <path
         sodipodi:nodetypes="csc"
         inkscape:connector-curvature="0"
         id="path4085"
         d="m 255.44856,167.88541 c 15.14982,15.42909 29.51513,45.88963 21.26548,48.76329 -3.83086,1.33442 -9.52792,-2.9377 -11.30191,-0.81914"
         style="fill:none;stroke:#000000;stroke-width:2;stroke-linecap:butt;stroke-linejoin:miter;stroke-opacity:1" />
    </g>
    <g
       id="g3944"
       transform="matrix(1.1345352,0.06749719,-0.06749719,1.1345352,13.705559,-51.113916)"
       style="stroke-width:1.75972497">
      <path
         sodipodi:nodetypes="cc"
         inkscape:connector-curvature="0"
         id="path5071-7-1-2-7"
         d="m 31.260856,250.44995 c -3.55751,-14.64337 14.134508,-25.1737 21.774808,-20.75411"
         style="fill:#1a1a1a;stroke:#000000;stroke-width:1.75972497;stroke-linecap:butt;stroke-linejoin:miter;stroke-opacity:1;display:inline" />
      <path
         sodipodi:nodetypes="cscscsc"
         inkscape:connector-curvature="0"
         id="path5075-5-5-1-4"
         d="m 32.735976,253.53917 c -4.78582,3.76596 -10.99971,9.69813 -11.07073,17.97092 -0.0467,5.43656 2.41671,14.0945 8.18959,21.34054 2.3484,2.04242 4.489153,6.76976 12.040318,8.01065 30.104981,4.94717 73.807436,-4.15579 84.825506,-18.88686 5.86598,-22.54801 -12.89301,-49.53635 -47.876036,-55.87184 -25.11835,-4.54899 -48.881168,16.61003 -48.410048,29.23728"
         style="fill:#e6e6e6;stroke:#000000;stroke-width:1.75972497;stroke-linecap:butt;stroke-linejoin:miter;stroke-opacity:1;display:inline" />
      <path
         sodipodi:nodetypes="ssss"
         inkscape:connector-curvature="0"
         id="path5069-2-6-2-3"
         d="m 82.344144,239.75697 c -1.41913,-11.38303 23.034456,-9.95216 29.779286,-0.29451 10.39165,14.87935 -10.13376,33.8936 -15.703036,28.09054 -8.39901,-8.75156 -12.81739,-17.69852 -14.07625,-27.79603 z"
         style="fill:#1a1a1a;stroke:#000000;stroke-width:1.75972497;stroke-linecap:butt;stroke-linejoin:miter;stroke-opacity:1;display:inline" />
      <path
         sodipodi:nodetypes="sssss"
         inkscape:connector-curvature="0"
         id="path5073-4-8-2-3"
         d="m 45.271324,261.83433 c -4.16525,-3.72353 -0.15255,-8.92665 3.10664,-8.33066 6.22403,1.13814 14.87189,7.00669 17.63508,13.74674 1.25846,3.06967 -3.8146,8.05762 -7.73358,7.47817 -5.47095,-0.80889 -10.41657,-10.57749 -13.00814,-12.89425 z"
         style="fill:#1a1a1a;stroke:#000000;stroke-width:1.75972497;stroke-linecap:butt;stroke-linejoin:miter;stroke-opacity:1;display:inline" />
      <path
         sodipodi:nodetypes="ssss"
         inkscape:connector-curvature="0"
         id="path5085-1-8-7-8"
         d="m 23.241116,267.94753 c 1.97623,-3.42595 17.213918,2.27717 16.719938,6.80466 -0.726628,6.65981 -6.544258,8.51672 -9.915308,7.97109 -3.1779,-0.51435 -9.01651,-10.94125 -6.80463,-14.77575 z"
         style="fill:#1a1a1a;stroke:#000000;stroke-width:1.75972497;stroke-linecap:butt;stroke-linejoin:miter;stroke-opacity:1;display:inline" />
      <path
         sodipodi:nodetypes="cc"
         inkscape:connector-curvature="0"
         id="path5087-1-9-6-7"
         d="m 30.709926,282.74177 c 7.24055,4.18281 15.368028,9.9313 17.611098,2.12013"
         style="fill:none;stroke:#000000;stroke-width:1.75972497;stroke-linecap:butt;stroke-linejoin:miter;stroke-opacity:1;display:inline" />
      <path
         style="fill:none;stroke:#000000;stroke-width:1.75972497;stroke-linecap:butt;stroke-linejoin:miter;stroke-opacity:1;display:inline"
         d="m 25.363346,282.73363 c 0.92403,1.53598 1.7586,1.4554 4.22272,-0.088"
         id="path3295-7-9-9-7"
         inkscape:connector-curvature="0"
         sodipodi:nodetypes="cc" />
    </g>
  </g>
  <g
     inkscape:groupmode="layer"
     id="layer4"
     inkscape:label="字幕"
     sodipodi:insensitive="true">
    <text
       xml:space="preserve"
       style="font-size:70.34015656px;font-style:normal;font-weight:normal;line-height:125%;letter-spacing:0px;word-spacing:0px;writing-mode:lr-tb;fill:#000000;fill-opacity:1;stroke:none;font-family:Sans"
       x="82.628853"
       y="70.930664"
       id="text6768"
       sodipodi:linespacing="125%"><tspan
         sodipodi:role="line"
         id="tspan6770"
         x="82.628853"
         y="70.930664"
         style="font-weight:bold;-inkscape-font-specification:Sans Bold">準備中</tspan></text>
  </g>
  <g
     inkscape:groupmode="layer"
     id="layer2"
     inkscape:label="枠面"
     sodipodi:insensitive="true">
    <path
       style="fill:#ffffff;stroke:none;display:inline"
       d="m 0,0 0,320 370,0 0,-320 -10,10 0,300 -350,0 0,-300 350,0 10,-10 z"
       id="path21072"
       inkscape:connector-curvature="0"
       sodipodi:nodetypes="ccccccccccc" />
  </g>
</svg>
