<?xml version="1.0" encoding="UTF-8" standalone="no"?>
<!-- Created with Inkscape (http://www.inkscape.org/) -->

<svg
   xmlns:dc="http://purl.org/dc/elements/1.1/"
   xmlns:cc="http://creativecommons.org/ns#"
   xmlns:rdf="http://www.w3.org/1999/02/22-rdf-syntax-ns#"
   xmlns:svg="http://www.w3.org/2000/svg"
   xmlns="http://www.w3.org/2000/svg"
   xmlns:sodipodi="http://sodipodi.sourceforge.net/DTD/sodipodi-0.dtd"
   xmlns:inkscape="http://www.inkscape.org/namespaces/inkscape"
   width="370"
   height="320"
   id="svg3172"
   version="1.1"
   inkscape:version="0.48.4 r9939"
   sodipodi:docname="[25]接触.svg"
   inkscape:export-filename="C:\Users\執安\Desktop\資料\臨時\BUTING\[25]接触.png"
   inkscape:export-xdpi="90"
   inkscape:export-ydpi="90">
  <defs
     id="defs3174" />
  <sodipodi:namedview
     id="base"
     pagecolor="#ffffff"
     bordercolor="#666666"
     borderopacity="1.0"
     inkscape:pageopacity="0.0"
     inkscape:pageshadow="2"
     inkscape:zoom="0.49040338"
     inkscape:cx="-86.371177"
     inkscape:cy="42.901654"
     inkscape:document-units="px"
     inkscape:current-layer="layer3"
     showgrid="false"
     inkscape:window-width="1100"
     inkscape:window-height="698"
     inkscape:window-x="-5"
     inkscape:window-y="-5"
     inkscape:window-maximized="0" />
  <metadata
     id="metadata3177">
    <rdf:RDF>
      <cc:Work
         rdf:about="">
        <dc:format>image/svg+xml</dc:format>
        <dc:type
           rdf:resource="http://purl.org/dc/dcmitype/StillImage" />
        <dc:title></dc:title>
      </cc:Work>
    </rdf:RDF>
  </metadata>
  <g
     inkscape:label="補助線"
     inkscape:groupmode="layer"
     id="layer1"
     transform="translate(0,-732.36218)"
     sodipodi:insensitive="true"
     style="display:none">
    <path
       style="fill:none;stroke:#0000ff;stroke-width:1px;stroke-linecap:butt;stroke-linejoin:miter;stroke-opacity:1;display:inline"
       d="M 10,1042.3622 360,742.36211"
       id="path3025"
       inkscape:connector-curvature="0"
       sodipodi:nodetypes="cc" />
    <path
       style="fill:none;stroke:#0000ff;stroke-width:1px;stroke-linecap:butt;stroke-linejoin:miter;stroke-opacity:1;display:inline"
       d="M 10,742.36211 360,1042.3622"
       id="path3027"
       inkscape:connector-curvature="0"
       sodipodi:nodetypes="cc" />
    <path
       style="fill:none;stroke:#ff0000;stroke-width:1px;stroke-linecap:butt;stroke-linejoin:miter;stroke-opacity:1;display:inline"
       d="m 10,732.36211 0,320.00009"
       id="path3006"
       inkscape:connector-curvature="0"
       sodipodi:nodetypes="cc" />
    <path
       style="fill:none;stroke:#ff0000;stroke-width:1px;stroke-linecap:butt;stroke-linejoin:miter;stroke-opacity:1;display:inline"
       d="m 360,732.36211 0,320.00009"
       id="path3010"
       inkscape:connector-curvature="0"
       sodipodi:nodetypes="cc" />
    <path
       style="fill:none;stroke:#ff0000;stroke-width:1px;stroke-linecap:butt;stroke-linejoin:miter;stroke-opacity:1;display:inline"
       d="m 0,742.36208 370,3e-5"
       id="path3016"
       inkscape:connector-curvature="0" />
    <path
       style="fill:none;stroke:#ff0000;stroke-width:1px;stroke-linecap:butt;stroke-linejoin:miter;stroke-opacity:1;display:inline"
       d="m 0,1042.3622 370,0"
       id="path3018"
       inkscape:connector-curvature="0"
       sodipodi:nodetypes="cc" />
  </g>
  <g
     inkscape:groupmode="layer"
     id="layer3"
     inkscape:label="豚"
     sodipodi:insensitive="true">
    <path
       style="fill:#ffd5d5;stroke:#000000;stroke-width:2;stroke-linecap:butt;stroke-linejoin:miter;stroke-opacity:1"
       d="m 187.46616,313.59568 c -22.19144,28.86432 3.38869,40.50887 34.98886,23.19919 l 115.66062,-71.22266 -2.1585,-43.25746 -117.74784,-76.68385 -21.42292,25.45704 -12.93614,73.51458 z"
       id="path4452"
       inkscape:connector-curvature="0"
       sodipodi:nodetypes="cccccccc" />
    <path
       style="fill:#ffd5d5;stroke:#000000;stroke-width:2;stroke-linecap:butt;stroke-linejoin:miter;stroke-opacity:1;display:inline"
       d="m 333.78081,218.30005 c 21.30693,21.49386 18.50889,54.89919 3.07516,67.56566"
       id="path4456"
       inkscape:connector-curvature="0"
       sodipodi:nodetypes="cc" />
    <path
       style="fill:#ffd5d5;stroke:#000000;stroke-width:2;stroke-linecap:butt;stroke-linejoin:miter;stroke-opacity:1;display:inline"
       d="m 226.56531,139.73028 c -25.52796,2.56357 -38.97083,26.68898 -33.35903,39.1309"
       id="path5091-2-4-0-7-2-27-6-1"
       inkscape:connector-curvature="0"
       sodipodi:nodetypes="cc" />
    <path
       style="fill:#ffd5d5;stroke:#000000;stroke-width:2;stroke-linecap:butt;stroke-linejoin:miter;stroke-opacity:1;display:inline"
       d="m 213.46186,148.6788 c 21.69676,-26.6162 71.41476,-22.64353 94.31033,8.84314 16.49164,22.67981 29.82555,43.45167 27.09004,67.62708"
       id="path3448"
       inkscape:connector-curvature="0"
       sodipodi:nodetypes="csc" />
    <path
       style="fill:#ffd5d5;stroke:#000000;stroke-width:2;stroke-linecap:butt;stroke-linejoin:miter;stroke-opacity:1"
       d="m 194.4972,201.40643 c -16.67685,15.83434 -31.99191,38.35717 -12.58366,71.13958"
       id="path4448"
       inkscape:connector-curvature="0"
       sodipodi:nodetypes="cc" />
    <path
       style="fill:#ffd5d5;stroke:#000000;stroke-width:2;stroke-linecap:butt;stroke-linejoin:miter;stroke-opacity:1;display:inline"
       d="M 194.23615,321.29981 C 170.92262,302.6213 164.48457,268.2187 186.34125,234.95207"
       id="path3536-4-7-61-5-6-1"
       inkscape:connector-curvature="0"
       sodipodi:nodetypes="cc" />
    <path
       style="fill:#ffd5d5;stroke:#000000;stroke-width:2;stroke-linecap:butt;stroke-linejoin:miter;stroke-opacity:1;display:inline"
       d="m 198.4079,171.17149 c -7.48431,7.62343 -22.36373,34.03082 -2.57725,57.937"
       id="path5093-4-2-9-9-4-4-0-5"
       inkscape:connector-curvature="0"
       sodipodi:nodetypes="cc" />
    <path
       style="fill:none;stroke:#000000;stroke-width:2;stroke-linecap:butt;stroke-linejoin:miter;stroke-opacity:1;display:inline"
       d="m 209.34833,171.62191 0.48665,8.15543"
       id="path5095-5-3-4-3-2-3-3-2"
       inkscape:connector-curvature="0"
       sodipodi:nodetypes="cc" />
    <path
       style="fill:none;stroke:#000000;stroke-width:2;stroke-linecap:butt;stroke-linejoin:miter;stroke-opacity:1;display:inline"
       d="m 236.81657,177.81696 -8.18635,7.10641"
       id="path5097-5-2-8-1-5-1-8-7"
       inkscape:connector-curvature="0"
       sodipodi:nodetypes="cc" />
    <path
       style="fill:#ffd5d5;stroke:#000000;stroke-width:2;stroke-linecap:butt;stroke-linejoin:miter;stroke-opacity:1;display:inline"
       d="m 297.85899,149.92895 c 29.92131,11.06894 32.46117,51.92507 15.14138,62.52632 -10.02139,6.13398 -23.94117,-17.84729 -35.02775,-28.45428"
       id="path5099-1-2-8-9-8-2-0-6"
       inkscape:connector-curvature="0"
       sodipodi:nodetypes="csc" />
    <path
       style="fill:#ffaaaa;stroke:#000000;stroke-width:2;stroke-linecap:butt;stroke-linejoin:miter;stroke-opacity:1;display:inline"
       d="m 215.26364,185.01357 c 9.10323,1.86585 18.96317,12.23345 24.20064,21.18986 6.50834,11.1297 5.99618,28.42634 -6.30899,23.91921 -8.60734,-3.15271 -21.34712,-7.06587 -28.77873,-7.49168 -8.06534,-0.46214 -8.29876,-14.72339 -5.47387,-23.79785 2.15997,-6.93852 7.80793,-15.57263 16.36095,-13.81954 z"
       id="path5101-7-1-2-8-62-3-1-1"
       inkscape:connector-curvature="0"
       sodipodi:nodetypes="ssssss" />
    <path
       style="fill:#000000;stroke:#000000;stroke-width:2;display:inline"
       d="m 227.82408,218.34974 c -1.00987,2.5913 -9.08873,-19.96781 -7.24977,-20.96754 1.68178,-0.91427 11.14094,10.98295 7.24977,20.96754 z"
       id="path5105-1-6-4-6-6-3-2-4"
       inkscape:connector-curvature="0"
       sodipodi:nodetypes="sss" />
    <path
       style="fill:#000000;stroke:#000000;stroke-width:2;display:inline"
       d="m 211.00919,196.19506 c 1.59985,0.3552 -0.22194,19.83327 -2.21883,17.82035 -4.09981,-4.13272 -0.0972,-18.33567 2.21883,-17.82035 z"
       id="path5107-1-8-55-5-5-41-5-2"
       inkscape:connector-curvature="0"
       sodipodi:nodetypes="sss" />
    <path
       style="fill:#ffd5d5;stroke:#000000;stroke-width:2;stroke-linecap:butt;stroke-linejoin:miter;stroke-opacity:1"
       d="m 330.08383,251.22424 c 16.26169,21.86636 14.84596,42.69289 6.84565,63.13207 22.48147,10.52527 -2.46232,24.4884 -28.90385,25.481 -27.37367,5.40493 -66.75234,6.78877 -90.895,-5.32434"
       id="path4450"
       inkscape:connector-curvature="0"
       sodipodi:nodetypes="cccc" />
  </g>
  <g
     inkscape:groupmode="layer"
     id="layer6"
     inkscape:label="要人"
     style="display:inline"
     sodipodi:insensitive="true">
    <path
       style="opacity:0.95;fill:#241c1c;stroke:#000000;stroke-width:1.5;display:inline"
       d="m 36.058732,156.22094 27.107535,-16.93699 c 7.946338,-4.96493 14.50471,11.5077 16.321431,19.37247 0.91913,3.97907 -4.852461,6.63227 -6.694901,1.19158 -1.84516,-5.44868 -2.15505,-21.99485 -8.71934,-18.05883 l -27.582739,19.06791 z"
       id="path6641-9-6-4"
       inkscape:connector-curvature="0"
       sodipodi:nodetypes="csssscc" />
    <path
       style="fill:#dbdee3;stroke:none;display:inline"
       d="M 63.805087,231.70334 129.77645,247.63701 45.278874,371.67503 z"
       id="path4684-5-4"
       inkscape:connector-curvature="0" />
    <path
       style="fill:#deaa87;stroke:none;display:inline"
       d="m 77.924608,201.39565 -23.155147,41.07027 70.205239,16.26562 13.78026,-51.17126 c -0.7038,-14.87023 -47.17784,-17.68963 -60.830352,-6.16463 z"
       id="path56599"
       inkscape:connector-curvature="0"
       sodipodi:nodetypes="ccccc" />
    <path
       style="fill:#550000;stroke:#000000;stroke-width:1.5;stroke-linecap:butt;stroke-linejoin:miter;stroke-opacity:1;display:inline"
       d="m 71.384262,267.14523 c -10.52004,33.89953 -11.778576,66.51594 -19.151797,97.159 l 14.01593,26.90597 13.907236,-21.74171 c 0.486663,-32.36921 -2.460968,-63.47487 0.599958,-102.27078 z"
       id="path6770-0-7"
       inkscape:connector-curvature="0"
       sodipodi:nodetypes="cccccc" />
    <path
       style="fill:#550000;stroke:#000000;stroke-width:1.5;stroke-linecap:butt;stroke-linejoin:miter;stroke-opacity:1;display:inline"
       d="m 72.901462,240.93818 c 3.580082,1.68597 8.020713,2.76947 19.225928,2.97083 l 0.80878,8.01907 c -2.80469,6.44675 -9.297655,13.33868 -12.711096,17.55607 -2.998686,0.008 -6.637679,-0.36819 -8.959517,-1.97018 -0.470148,-5.01847 -4.43593,-12.01506 -3.709892,-16.72722 z"
       id="path6768-9-1"
       inkscape:connector-curvature="0"
       sodipodi:nodetypes="ccccccc" />
    <path
       sodipodi:nodetypes="ccccssccccc"
       style="fill:#dbdbe3;stroke:#000000;stroke-width:1.5;stroke-linecap:butt;stroke-linejoin:miter;stroke-opacity:1;display:inline"
       d="m 80.763901,198.67034 c -4.16498,3.80112 -7.640352,4.88868 -9.861181,11.37303 -7.730129,22.06961 -9.41325,44.60958 -9.575508,56.28001 4.254839,-8.02196 8.696134,-24.38148 15.343107,-25.1196 -5.546067,-10.56293 -7.158563,-35.58323 4.890354,-42.08286 16.847207,-9.08802 50.114297,-7.58329 54.059117,3.52153 2.51325,7.0749 -21.44174,29.00988 -55.867274,39.54854 7.295367,7.52462 11.296134,16.58474 18.409354,29.346 22.43596,-27.08776 32.31496,-35.51001 42.50915,-55.05791 -1.56701,-5.08777 -1.11132,-7.88533 -3.19878,-14.50525 -8.17618,-13.54807 -39.02542,-11.93001 -56.708339,-3.30349 z"
       id="path6762-7-7"
       inkscape:connector-curvature="0" />
    <path
       sodipodi:nodetypes="cssscssscc"
       style="fill:#1c1f24;stroke:#000000;stroke-width:1.5;stroke-linecap:butt;stroke-linejoin:miter;stroke-opacity:1;display:inline"
       d="m 77.388336,201.48492 c -14.279931,15.8938 -21.399663,78.40696 -12.742707,165.00922 0.672174,6.72424 -0.213912,65.97656 1.985792,97.5352 0.305408,4.38162 -4.754997,11.98223 -11.207347,15.14856 -4.923484,2.41608 -10.265369,-2.09604 -25.932127,-18.8963 -0.04747,-42.00989 6.568337,-96.52904 3.391397,-110.50548 -7.048624,-31.00929 -14.969775,-81.77116 -14.113427,-100.04233 0.805202,-17.18001 3.317271,-27.82955 12.608987,-32.24344 7.976834,-3.78926 33.009762,-10.54253 38.601281,-11.34521 1.963466,-0.93929 6.176326,-4.30116 7.408151,-4.66022 z"
       id="path6764-3-7"
       inkscape:connector-curvature="0" />
    <path
       style="fill:#1c1f24;stroke:#000000;stroke-width:1.5;stroke-linecap:butt;stroke-linejoin:miter;stroke-opacity:1;display:inline"
       d="M 51.894346,260.27961 45.669303,243.21452 C 51.70226,237.4658 65.501695,215.22526 70.129901,206.0757"
       id="path56584"
       inkscape:connector-curvature="0"
       sodipodi:nodetypes="ccc" />
    <path
       style="fill:none;stroke:#000000;stroke-width:1.5;stroke-linecap:butt;stroke-linejoin:miter;stroke-opacity:1;display:inline"
       d="m 62.511012,256.18207 -20.67368,8.34754 c 4.1716,31.98402 13.236673,69.77219 20.28246,101.70232"
       id="path6766-7-7"
       inkscape:connector-curvature="0"
       sodipodi:nodetypes="ccc" />
    <path
       sodipodi:nodetypes="ccccssssccsssc"
       style="fill:#1c1f24;stroke:#000000;stroke-width:1.5;stroke-linecap:butt;stroke-linejoin:miter;stroke-opacity:1;display:inline"
       d="m 176.08947,456.37483 c -5.67804,6.42294 -4.64782,3.459 -10.55705,7.94502 -2.35955,-9.99703 -3.29364,-21.61139 -6.16731,-29.44151 0.35001,9.91733 0.10506,32.37013 -0.8217,32.54242 -24.84004,17.99094 -79.612111,17.94122 -84.159498,18.10915 -6.052227,0.22351 -10.866881,-6.16895 -11.889806,-14.99366 -4.019228,-34.67352 -2.267428,-93.37472 -1.085565,-96.7653 6.262347,-17.96574 17.740381,-58.44084 28.292699,-83.87598 14.66481,-35.34782 51.20501,-71.0847 48.73461,-85.08603 3.13808,4.30177 4.99438,8.74883 7.53325,12.80474 13.38637,8.61351 39.38186,24.2172 46.23051,31.63975 8.61774,9.33989 2.94258,25.93232 1.11211,40.07514 -2.3415,18.09112 -22.5147,51.90837 -24.30115,77.30376 -1.5407,21.90169 8.79094,61.06647 7.0789,89.7425 z"
       id="path56564"
       inkscape:connector-curvature="0" />
    <path
       sodipodi:nodetypes="ccc"
       style="fill:#1c1f24;stroke:#000000;stroke-width:1.5;stroke-linecap:butt;stroke-linejoin:miter;stroke-opacity:1;display:inline"
       d="m 146.31369,217.81211 c -4.04675,7.9109 -16.397,36.08015 -17.518,53.05554 l -17.54609,4.94208"
       id="path6653-3-9"
       inkscape:connector-curvature="0" />
    <path
       sodipodi:nodetypes="ccc"
       style="fill:none;stroke:#000000;stroke-width:1.5;stroke-linecap:butt;stroke-linejoin:miter;stroke-opacity:1;display:inline"
       d="m 102.42701,266.89991 19.4245,19.61485 c -16.42182,15.63142 -45.560015,61.04589 -57.843761,85.89653"
       id="path6655-8-9"
       inkscape:connector-curvature="0" />
    <path
       sodipodi:nodetypes="sssccs"
       style="fill:#1c1f24;stroke:#000000;stroke-width:1.5;stroke-linecap:butt;stroke-linejoin:miter;stroke-opacity:1;display:inline"
       d="m 156.6522,307.63199 c 0.98517,-18.88363 10.87473,-48.61973 25.25098,-55.93092 15.54109,-7.90358 22.93195,16.6362 20.80984,36.67074 -1.63907,15.47425 6.94504,73.84516 2.34928,97.63573 l -32.97666,25.20727 C 168.7787,383.70899 154.85198,342.13869 156.6522,307.63199 z"
       id="path6661-0-8"
       inkscape:connector-curvature="0" />
    <path
       style="fill:#deaa87;stroke:#000000;stroke-width:1.5;stroke-linecap:butt;stroke-linejoin:miter;stroke-opacity:1;display:inline"
       d="m 134.61315,206.61577 c -1.07556,-7.19958 -0.81443,-8.76922 -0.79351,-14.08065 l -68.076451,10.18333 c 1.981154,12.05092 7.148506,14.12168 9.142318,28.35555"
       id="path6635-6-5"
       inkscape:connector-curvature="0"
       sodipodi:nodetypes="cccc" />
    <path
       sodipodi:nodetypes="csssssssssssscc"
       inkscape:connector-curvature="0"
       id="path56903-3"
       d="m 127.03849,190.85864 c -0.84113,5.2101 -3.48845,11.52402 -3.87565,12.91244 -1.31861,4.72819 -28.0403,21.88646 -40.773238,26.87853 -8.304286,3.25578 -15.200948,2.72611 -19.691115,-2.40788 -2.525746,-2.8879 -5.066934,-7.85545 -6.227771,-10.7825 -1.587069,-4.00175 -11.262221,-25.39577 -13.037075,-33.76378 -1.33589,-6.29839 -0.833176,-18.15155 -1.359771,-20.9444 -0.521375,-2.76519 -1.239528,-7.75201 -2.213863,-10.0616 -1.06202,-2.5174 -0.471676,-9.4518 -0.193068,-12.67121 0.489791,-5.65979 3.888182,-17.5821 5.157549,-22.67283 2.833573,-11.36399 21.345197,-29.358989 49.226186,-29.101292 33.066256,0.305623 51.038826,32.483292 53.293536,45.249962 1.62308,9.19036 1.23133,28.13859 -1.04612,34.15785 -1.54732,4.08957 -12.90866,20.55513 -12.93042,26.09043 z"
       style="fill:#e9c6af;stroke:none;display:inline" />
    <path
       inkscape:connector-curvature="0"
       style="fill:#deaa87;stroke:none;display:inline"
       d="m 39.450371,149.0366 4.596714,1.70252 c -3.564777,0.75365 -0.483562,6.4966 0.626112,9.63981 l 11.870736,1.87632 c 0.691126,-1.01692 1.654411,-1.24942 1.392373,-5.01345 3.188762,1.52012 4.173464,6.31224 3.890692,7.55457 -0.21966,0.96505 -0.969806,5.18209 -1.828955,7.36809 -0.187566,-1.74102 -0.582515,-4.43282 -1.732248,-3.96685 -1.872706,0.75895 -5.904457,4.22059 -8.387924,3.51097 -3.576581,-1.02197 -4.949902,-6.74446 -6.164922,-6.05558 -2.494308,1.41419 0.796881,12.68348 -0.05138,17.25785 -0.54361,-7.30812 -1.219803,-17.39882 -1.737995,-20.4851 -0.699811,-4.1649 -0.873599,-5.51585 -2.650027,-9.99792 -0.312464,-0.78837 -0.300606,-2.16958 0.176863,-3.39123 z"
       id="path6760-6-9" />
    <path
       inkscape:connector-curvature="0"
       style="fill:#deaa87;stroke:none;display:inline"
       d="m 77.76296,189.68669 c 0.849863,3.66222 -0.255,4.69497 -1.569891,6.17499 -0.750629,0.84492 -1.923861,1.65427 -2.408214,2.65568 -0.521893,-1.062 -2.035837,3.75772 -3.809544,3.28934 -0.961213,-3.38778 -2.49419,-5.31408 -4.315933,-5.54826 -1.331352,-0.17113 -2.061964,1.39886 -2.527601,5.7856 -0.0743,-2.85653 0.217349,-4.71159 -1.04597,-5.88885 -1.089948,-1.01567 -4.331902,-1.78429 -4.779678,-2.06238 -2.186563,-1.35791 -1.232526,-1.64558 -1.78373,-4.97223 1.772417,4.09782 4.426772,3.31579 7.504313,2.54984 3.458266,-0.8607 10.653352,6.62991 14.736248,-1.98373 z"
       id="path60112" />
    <path
       inkscape:connector-curvature="0"
       style="fill:#deaa87;stroke:none;display:inline"
       d="m 68.344016,169.00642 c -1.010665,-3.13367 -2.064674,-9.46704 -2.300066,-13.15238 2.426166,2.7314 1.923679,4.52595 6.41019,3.17172 l 4.87182,-0.76619 c -2.12626,2.57277 0.371531,7.09949 -1.511579,8.23006 l 17.798999,0.4043 c 1.48942,-2.5788 1.71017,-6.82971 -1.58224,-9.32546 l 6.3019,-0.0147 c 7.9578,-5.93641 10.33702,-17.16914 16.94385,-25.41475 12.05803,-15.04892 5.90065,-31.61629 -6.5354,-41.517439 18.51029,6.364074 35.32232,22.341259 38.62382,42.846049 1.74039,10.80919 3.03642,26.41823 -0.54282,34.203 -2.86906,6.24014 -12.602,17.21857 -13.22436,25.82355 l -10.42243,10.24957 c -1.24829,3.28047 -24.84395,19.49805 -41.118452,27.10893 -2.001052,0.9358 -8.301048,2.21405 -10.457582,1.64479 5.754549,-0.69353 11.12369,-7.40616 14.019512,-12.79699 1.739924,-3.23906 4.901912,-7.41319 5.127262,-12.60702 0.38152,-8.79294 8.85461,-16.7626 10.71624,-28.45564 0.32402,-2.0352 -3.3937,-7.19 -5.26557,-6.61096 -2.82758,0.87469 -8.22036,5.15966 -12.624627,5.73433 -3.358022,0.43814 -7.76194,-7.83463 -10.442695,-7.45183 -2.390835,0.34139 -3.727634,1.978 -4.785772,-1.30287 z"
       id="path3438-5-7"
       sodipodi:nodetypes="ccccccccscssccscsssssscc" />
    <path
       sodipodi:nodetypes="ccccccc"
       inkscape:connector-curvature="0"
       style="fill:#ffffff;stroke:none;display:inline"
       d="m 76.700785,164.24121 -1.50475,2.84199 3.79685,3.70905 8.299557,0.74276 5.784038,-4.77373 -4.84428,-1.57715 z"
       id="path3337-0-4-6" />
    <path
       sodipodi:nodetypes="cccccc"
       inkscape:connector-curvature="0"
       style="fill:#ffffff;stroke:none;display:inline"
       d="m 55.632102,160.53454 -11.053693,-1.69796 3.091519,6.92277 6.136702,1.19416 5.644056,-1.69718 z"
       id="path3353-4-1-9" />
    <path
       inkscape:connector-curvature="0"
       style="fill:#2b0000;stroke:none;display:inline"
       d="m 46.520358,158.56445 c 0.214003,1.88049 1.445056,5.7433 4.138425,6.03919 3.169509,0.3482 4.127284,-2.64417 4.050811,-4.73259 z"
       id="path3357-1-2-3" />
    <path
       inkscape:connector-curvature="0"
       style="fill:#2b0000;stroke:none;display:inline"
       d="m 78.048597,164.05105 c 0.241676,2.051 0.582915,4.33744 3.949567,4.9209 3.355721,0.58156 4.500097,-1.71587 4.475607,-3.80556 z"
       id="path3357-0-5" />
    <path
       sodipodi:nodetypes="csssc"
       inkscape:connector-curvature="0"
       style="fill:none;stroke:#000000;stroke-width:1.5;stroke-linecap:butt;stroke-linejoin:miter;stroke-opacity:1;display:inline"
       d="m 59.867333,156.92496 c 0.72813,3.26449 2.491889,7.399 2.197149,10.05156 -0.269186,2.42249 -4.452481,17.14985 -5.064334,19.35497 -0.945552,3.40783 -0.645045,5.69911 0.583197,6.82428 0.812214,0.74407 5.229846,1.60484 5.878857,4.10134"
       id="path6629-0-7" />
    <path
       sodipodi:nodetypes="cc"
       inkscape:connector-curvature="0"
       style="fill:none;stroke:#000000;stroke-width:1.5;stroke-linecap:butt;stroke-linejoin:miter;stroke-opacity:1;display:inline"
       d="m 64.002047,193.53469 c 2.786939,0.24911 4.849467,1.00501 7.413981,1.7154"
       id="path6631-1-6" />
    <path
       sodipodi:nodetypes="sssssssss"
       inkscape:connector-curvature="0"
       style="fill:#000000;stroke:none;display:inline"
       d="m 70.68417,198.17678 c 4.397552,1.74199 11.399443,7.06415 14.245084,9.19606 1.769234,1.32547 0.881152,7.5457 -0.348343,7.05377 -3.680735,-1.47269 -10.976747,-3.87613 -18.32475,-5.05834 -7.370165,-1.18577 -10.617439,-0.51449 -11.956175,-1.0065 -0.561716,-0.20645 -2.635467,-5.0417 -1.800008,-6.15179 1.625692,-2.16007 6.671009,-4.23581 7.886911,-4.88919 1.215902,-0.65338 2.157312,1.12234 4.640248,1.25267 2.482935,0.13034 4.664401,-0.78986 5.657033,-0.39668 z"
       id="path6633-4-6" />
    <path
       style="fill:none;stroke:#000000;stroke-width:1.5;stroke-linecap:butt;stroke-linejoin:miter;stroke-opacity:1;display:inline"
       d="m 127.06102,190.82713 c -0.84112,5.21011 -3.26198,11.52403 -3.64918,12.91245 -1.3186,4.72819 -28.00894,21.87318 -40.741876,26.86525 -8.304286,3.25579 -16.067344,1.66472 -20.557511,-3.46926 -2.525746,-2.8879 -5.982248,-9.59262 -7.143085,-12.51968 -1.587069,-4.00174 -8.994448,-19.90592 -10.769302,-28.27393 -1.335889,-6.2984 -1.577065,-20.82956 -2.10366,-23.62241 -0.521375,-2.7652 -1.239529,-7.75201 -2.213873,-10.0616 -1.062011,-2.5174 -0.471666,-9.4518 -0.193068,-12.67121 0.4898,-5.6598 4.015629,-17.70955 5.284995,-22.80028 2.833573,-11.36399 21.001548,-29.043667 49.057704,-28.912277 33.870026,0.158617 51.079876,32.421727 53.334576,45.188387 1.62309,9.19036 1.23134,29.03127 -1.04611,35.05053 -1.54733,4.08956 -12.75989,20.1088 -12.78165,25.6441"
       id="path56903"
       inkscape:connector-curvature="0"
       sodipodi:nodetypes="cssssssssssssc" />
    <path
       inkscape:connector-curvature="0"
       style="fill:none;stroke:#000000;stroke-width:1.5;stroke-linecap:butt;stroke-linejoin:miter;stroke-opacity:1;display:inline"
       d="m 67.131279,156.11427 c -0.784668,2.3977 0.532916,4.41608 1.060584,5.86267"
       id="path6643-0-8" />
    <path
       sodipodi:nodetypes="ssscss"
       inkscape:connector-curvature="0"
       style="fill:#000000;stroke:none;display:inline"
       d="m 70.246142,160.74978 c 7.011494,2.21832 6.464437,-0.42344 13.161756,-1.69624 6.823162,-1.29672 19.906282,0.52702 18.393172,-0.77666 -2.10261,-1.81158 -12.63135,-1.32814 -18.442717,-1.09983 -2.072704,0.0815 -6.646283,0.94397 -8.764212,1.42057 -2.82969,0.63677 -7.27375,1.2265 -4.347989,2.15216 z"
       id="path6645-7-2" />
    <path
       inkscape:connector-curvature="0"
       style="fill:#000000;stroke:none;display:inline"
       d="m 40.66791,149.73656 c -0.941132,-0.82635 6.420867,1.18903 8.024769,1.73385 3.273656,1.11198 12.497921,6.41692 11.092625,6.96682 -4.900502,1.91751 -8.504938,-4.13905 -12.041159,-5.66821 -2.756064,-1.19181 -6.411718,-2.44899 -7.076235,-3.03246 z"
       id="path6647-1-5" />
    <path
       sodipodi:nodetypes="cc"
       inkscape:connector-curvature="0"
       style="fill:none;stroke:#000000;stroke-width:1.5;stroke-linecap:butt;stroke-linejoin:miter;stroke-opacity:1;display:inline"
       d="m 77.221341,189.53583 c 1.062075,2.56319 -0.631323,4.4083 -2.248785,5.54931"
       id="path6649-7-4" />
    <path
       inkscape:connector-curvature="0"
       style="fill:none;stroke:#916f6f;stroke-width:1.5;stroke-linecap:butt;stroke-linejoin:miter;stroke-opacity:1;display:inline"
       d="m 75.255693,167.26612 c 1.449002,1.46485 2.615096,3.08601 4.147618,3.72487 1.610387,0.67132 4.132186,1.35978 6.763379,0.78722 1.42565,-0.31023 5.27291,-3.69953 7.09157,-4.81263"
       id="path3339-7-4"
       sodipodi:nodetypes="cssc" />
    <path
       sodipodi:nodetypes="cssc"
       inkscape:connector-curvature="0"
       style="fill:none;stroke:#000000;stroke-width:1.5;stroke-linecap:butt;stroke-linejoin:miter;stroke-opacity:1;display:inline"
       d="m 74.114881,167.8384 c 2.128215,-1.82518 1.351713,-3.06917 3.408649,-3.51349 2.702517,-0.58376 9.540922,0.61178 11.30549,0.98897 1.63832,0.35023 4.4201,1.17067 6.84816,1.96464"
       id="path3337-7-1" />
    <path
       sodipodi:nodetypes="cssc"
       inkscape:connector-curvature="0"
       style="fill:none;stroke:#916f6f;stroke-width:1.5;stroke-linecap:butt;stroke-linejoin:miter;stroke-opacity:1;display:inline"
       d="m 44.404648,159.02975 c 0.928727,2.20827 2.421391,6.12298 3.687938,7.21191 1.283626,1.10361 3.774769,1.48614 5.888906,1.1341 1.314873,-0.21894 4.978712,-2.46161 5.270724,-2.35894"
       id="path3355-7-6" />
    <path
       sodipodi:nodetypes="cssc"
       inkscape:connector-curvature="0"
       style="fill:none;stroke:#000000;stroke-width:1.5;stroke-linecap:butt;stroke-linejoin:miter;stroke-opacity:1;display:inline"
       d="m 43.132953,160.05289 c 1.168576,-0.76524 2.536459,-1.0002 3.653135,-0.87656 1.449157,0.16045 7.041404,0.64228 8.967793,1.72615 0.961485,0.54097 3.118055,3.71706 4.402327,5.26509"
       id="path3353-3-1" />
    <path
       inkscape:connector-curvature="0"
       style="fill:#deaa87;stroke:none;display:inline"
       d="m 63.433356,209.95862 c 2.612913,0.2077 6.440255,1.15831 10.791782,2.75063 2.292709,0.83895 -2.16852,4.85602 -5.936823,4.01131 -3.140254,-0.70392 -8.967402,-7.08884 -4.854959,-6.76194 z"
       id="path6710-3-6"
       sodipodi:nodetypes="ssss" />
    <path
       style="opacity:0.9;fill:#280b0b;stroke:#000000;stroke-width:1.5;display:inline"
       d="m 36.231349,156.00576 c 2.62061,-0.49126 13.765938,1.54059 18.946498,3.02075 3.67209,1.0492 7.3883,1.98367 11.10114,1.45476 9.22722,-1.31447 21.405621,1.6979 31.178186,2.90964 1.31691,1.87999 2.33017,3.63735 2.593237,4.8564 -8.365153,5.20267 -12.434652,7.11623 -18.855762,7.95816 -4.784071,0.62725 -12.515461,-5.47472 -14.840261,-7.13833 -1.28555,-0.91995 -5.51177,-1.49251 -6.57669,-0.91711 -2.34289,1.2659 -6.21684,6.62569 -10.8302,5.28766 -3.72203,-1.07948 -8.507168,-6.85933 -11.811648,-11.95576 -0.43535,-1.16838 -0.90672,-3.33879 -0.9045,-5.47617 z"
       id="path6627-9-63"
       inkscape:connector-curvature="0"
       sodipodi:nodetypes="cssccsssscc" />
    <path
       style="opacity:0.95;fill:#241c1c;stroke:#000000;stroke-width:1.5;display:inline"
       d="m 97.967158,163.57134 36.587592,-12.06738 c 8.91192,-2.93934 10.85846,10.08024 11.41403,18.13295 0.31612,4.58209 -3.24441,7.6373 -5.08685,2.19661 -1.84516,-5.44868 0.47712,-20.92419 -6.62603,-18.02533 l -33.98464,13.86943 z"
       id="path6641-9-6"
       inkscape:connector-curvature="0"
       sodipodi:nodetypes="csssscc" />
    <path
       inkscape:connector-curvature="0"
       style="fill:#deaa87;stroke:#000000;stroke-width:1.5;stroke-linecap:butt;stroke-linejoin:miter;stroke-opacity:1;display:inline"
       d="m 128.88015,189.35439 c 1.93975,-3.44953 9.72631,-0.50477 13.10571,-7.50558 1.42829,-2.95887 2.31061,-5.89544 3.32974,-9.35116 1.1584,-3.92799 3.26751,-8.17151 3.1862,-12.83736 -0.16097,-9.2369 -4.35501,-11.97451 -7.91054,-11.53586 -6.17857,0.76226 -8.11537,5.51783 -11.38891,8.80653"
       id="path6637-1-3" />
    <path
       inkscape:connector-curvature="0"
       style="fill:none;stroke:#000000;stroke-width:1.5;stroke-linecap:butt;stroke-linejoin:miter;stroke-opacity:1;display:inline"
       d="m 139.20567,176.11328 c -2.92556,-0.60225 -4.17515,-5.51872 -5.61891,-8.45314 -1.36804,-2.78054 0.0176,-7.3518 0.61029,-9.49226 0.89647,-3.23769 5.47829,-7.54592 7.7698,-6.63828 2.27654,0.90172 2.95795,3.45824 3.44254,6.63936 0.80886,5.30991 -1.86778,15.0665 -5.36764,17.32418 -2.56836,1.65679 -5.09464,6.86641 -6.57685,5.46854 -1.45294,-1.37028 0.1211,-3.407 0.20397,-4.96247 0.0499,-0.93715 -1.34372,-2.11513 -2.49763,-3.71826"
       id="path6639-8-5" />
  </g>
  <g
     inkscape:groupmode="layer"
     id="layer4"
     inkscape:label="字幕"
     sodipodi:insensitive="true">
    <text
       xml:space="preserve"
       style="font-size:70.34015656px;font-style:normal;font-weight:normal;line-height:125%;letter-spacing:0px;word-spacing:0px;writing-mode:lr-tb;fill:#000000;fill-opacity:1;stroke:none;font-family:Sans"
       x="82.628853"
       y="70.930664"
       id="text6768"
       sodipodi:linespacing="125%"><tspan
         sodipodi:role="line"
         id="tspan6770"
         x="82.628853"
         y="70.930664"
         style="font-weight:bold;-inkscape-font-specification:Sans Bold">接触中</tspan></text>
  </g>
  <g
     inkscape:groupmode="layer"
     id="layer2"
     inkscape:label="枠面"
     sodipodi:insensitive="true">
    <path
       style="fill:#ffffff;stroke:none;display:inline"
       d="m 0,0 0,320 370,0 0,-320 -10,10 0,300 -350,0 0,-300 350,0 10,-10 z"
       id="path21072"
       inkscape:connector-curvature="0"
       sodipodi:nodetypes="ccccccccccc" />
  </g>
</svg>
