<?xml version="1.0" encoding="UTF-8" standalone="no"?>
<!-- Created with Inkscape (http://www.inkscape.org/) -->

<svg
   xmlns:dc="http://purl.org/dc/elements/1.1/"
   xmlns:cc="http://creativecommons.org/ns#"
   xmlns:rdf="http://www.w3.org/1999/02/22-rdf-syntax-ns#"
   xmlns:svg="http://www.w3.org/2000/svg"
   xmlns="http://www.w3.org/2000/svg"
   xmlns:sodipodi="http://sodipodi.sourceforge.net/DTD/sodipodi-0.dtd"
   xmlns:inkscape="http://www.inkscape.org/namespaces/inkscape"
   width="370"
   height="320"
   id="svg3172"
   version="1.1"
   inkscape:version="0.48.4 r9939"
   sodipodi:docname="[28]捜索.svg"
   inkscape:export-filename="C:\Users\執安\Desktop\資料\臨時\BUTING\[28]捜索.png"
   inkscape:export-xdpi="90"
   inkscape:export-ydpi="90">
  <defs
     id="defs3174" />
  <sodipodi:namedview
     id="base"
     pagecolor="#ffffff"
     bordercolor="#666666"
     borderopacity="1.0"
     inkscape:pageopacity="0.0"
     inkscape:pageshadow="2"
     inkscape:zoom="0.70710678"
     inkscape:cx="24.39953"
     inkscape:cy="-64.967319"
     inkscape:document-units="px"
     inkscape:current-layer="layer3"
     showgrid="false"
     inkscape:window-width="921"
     inkscape:window-height="699"
     inkscape:window-x="-5"
     inkscape:window-y="-6"
     inkscape:window-maximized="0" />
  <metadata
     id="metadata3177">
    <rdf:RDF>
      <cc:Work
         rdf:about="">
        <dc:format>image/svg+xml</dc:format>
        <dc:type
           rdf:resource="http://purl.org/dc/dcmitype/StillImage" />
        <dc:title></dc:title>
      </cc:Work>
    </rdf:RDF>
  </metadata>
  <g
     inkscape:label="補助線"
     inkscape:groupmode="layer"
     id="layer1"
     transform="translate(0,-732.36218)"
     sodipodi:insensitive="true"
     style="display:none">
    <path
       style="fill:none;stroke:#0000ff;stroke-width:1px;stroke-linecap:butt;stroke-linejoin:miter;stroke-opacity:1;display:inline"
       d="M 10,1042.3622 360,742.36211"
       id="path3025"
       inkscape:connector-curvature="0"
       sodipodi:nodetypes="cc" />
    <path
       style="fill:none;stroke:#0000ff;stroke-width:1px;stroke-linecap:butt;stroke-linejoin:miter;stroke-opacity:1;display:inline"
       d="M 10,742.36211 360,1042.3622"
       id="path3027"
       inkscape:connector-curvature="0"
       sodipodi:nodetypes="cc" />
    <path
       style="fill:none;stroke:#ff0000;stroke-width:1px;stroke-linecap:butt;stroke-linejoin:miter;stroke-opacity:1;display:inline"
       d="m 10,732.36211 0,320.00009"
       id="path3006"
       inkscape:connector-curvature="0"
       sodipodi:nodetypes="cc" />
    <path
       style="fill:none;stroke:#ff0000;stroke-width:1px;stroke-linecap:butt;stroke-linejoin:miter;stroke-opacity:1;display:inline"
       d="m 360,732.36211 0,320.00009"
       id="path3010"
       inkscape:connector-curvature="0"
       sodipodi:nodetypes="cc" />
    <path
       style="fill:none;stroke:#ff0000;stroke-width:1px;stroke-linecap:butt;stroke-linejoin:miter;stroke-opacity:1;display:inline"
       d="m 0,742.36208 370,3e-5"
       id="path3016"
       inkscape:connector-curvature="0" />
    <path
       style="fill:none;stroke:#ff0000;stroke-width:1px;stroke-linecap:butt;stroke-linejoin:miter;stroke-opacity:1;display:inline"
       d="m 0,1042.3622 370,0"
       id="path3018"
       inkscape:connector-curvature="0"
       sodipodi:nodetypes="cc" />
  </g>
  <g
     inkscape:groupmode="layer"
     id="layer3"
     inkscape:label="豚"
     sodipodi:insensitive="true">
    <path
       transform="matrix(0.99555604,0,0,1.9135235,1.3355771,-287.10423)"
       style="opacity:0.5;fill:#000000;fill-opacity:1;stroke:none"
       d="m 219.42593,298.03556 c 4.85359,-1.06486 7.55535,-2.24684 7.55535,-3.4914 0,-4.68629 -38.30648,-8.48528 -85.55992,-8.48528 -47.253444,0 -85.559925,3.79899 -85.559925,8.48528 0,4.68629 38.306481,8.48528 85.559925,8.48528 30.68074,0 57.58976,-1.60152 72.69093,-4.0076 l 23.43196,4.6204 c -2.74558,0.93431 -4.08121,1.99691 -3.556,3.09347 l 5.24822,-0.20779 c -0.40523,-0.84609 0.50014,-1.66826 2.42626,-2.40585 l 6.48688,1.04979 c -0.41425,0.32102 -0.55976,0.65601 -0.39661,0.99664 0.7524,1.57091 7.82341,2.74758 16.59783,2.89213 l 0.13288,1.6842 c -13.26787,-0.12462 -24.12189,-1.86726 -25.24729,-4.21691 l -5.24822,0.20779 c 1.49681,3.12514 17.54077,5.34263 35.83519,4.95291 18.29442,-0.38972 31.91159,-3.23908 30.41478,-6.36421 l -5.00318,0.0106 c 1.26521,2.64155 -10.2449,5.05002 -25.70845,5.37943 l -0.92722,-1.66467 -0.17265,-0.56674 c -8.99563,0.19162 -16.88464,-0.89874 -17.62064,-2.43542 -0.736,-1.53667 5.95975,-2.93773 14.95537,-3.12936 8.99559,-0.19164 16.88462,0.89873 17.62062,2.4354 0.736,1.53668 -5.95975,2.93774 -14.95535,3.12938 l 0.1727,0.56672 c 10.6424,-0.22672 18.56388,-1.88427 17.69317,-3.70225 l 8.9425,-0.0125 5.00318,-0.0106 c -1.4968,-3.12514 -17.54076,-5.34263 -35.83518,-4.95291 l 0.5419,0.77699 c 13.39526,-0.28535 25.36312,1.08295 29.14736,3.17116 l -8.91189,0.16529 c -2.91455,-1.34421 -10.87031,-2.20751 -19.73424,-2.01869 -3.86434,0.0823 -7.36994,0.35329 -10.22612,0.75211 l -2.08473,-1.35072 c 3.50282,-0.37439 7.50289,-0.6274 11.80962,-0.71915 l -0.5419,-0.77699 c -8.63778,0.18401 -16.23286,0.91634 -21.68672,1.96713 z"
       id="path12003"
       inkscape:connector-curvature="0"
       sodipodi:nodetypes="cssssccccccsccccscccccssscccccccccscccccc" />
    <path
       inkscape:connector-curvature="0"
       style="fill:#1a1a1a;stroke:none"
       d="m 255.07042,296.01485 c -8.98085,0.70554 -16.69142,-1.08997 -17.22205,-4.01042 -0.53064,-2.92043 6.3196,-5.85986 15.30044,-6.56541 8.98082,-0.70555 16.6914,1.08996 17.22204,4.0104 0.53064,2.92044 -6.31961,5.85988 -15.30043,6.56543 l 0.0974,1.08076 c 10.62492,-0.83471 18.72919,-4.31226 18.10142,-7.76733 l 8.90441,-0.35991 4.98234,-0.20824 c -1.07916,-5.9393 -16.7602,-9.59086 -35.02457,-8.15599 l 0.4373,1.4703 c 13.37326,-1.05063 25.108,1.1249 28.6008,4.98894 l -8.89402,0.65186 c -2.72482,-2.46935 -10.5317,-3.82675 -19.38107,-3.13154 -3.85799,0.3031 -7.38364,0.95463 -10.27958,1.82703 l -1.89784,-2.51301 c 3.5365,-0.84984 7.55206,-1.48549 11.85171,-1.82328 l -0.4373,-1.4703 c -18.26437,1.43487 -32.19575,7.41284 -31.11659,13.35213 l 5.25223,-0.59579 c -0.29216,-1.60798 0.71731,-3.21931 2.73187,-4.70673 l 6.31999,1.77035 c -0.45463,0.63143 -0.64354,1.27956 -0.52592,1.92693 0.54247,2.98551 7.42732,4.97732 16.14373,4.92503 l -0.0892,3.22614 c -13.19252,0.25929 -23.76913,-2.67622 -24.58052,-7.14172 l -5.25223,0.59579 c 1.07917,5.93931 16.76021,9.59086 35.02458,8.15599 18.26437,-1.43487 32.19575,-7.41282 31.11658,-13.35213 l -4.98234,0.20824 c 0.91219,5.02027 -10.8635,10.07323 -26.30165,11.28606 l -0.70418,-3.15882 z"
       id="path8341-7-6-2"
       sodipodi:nodetypes="cssscccccccccsccccccccsccccsccccc" />
    <path
       style="fill:none;stroke:#000000;stroke-width:2"
       d="m 287.15463,288.75868 c 1.07917,5.93931 -12.85222,11.91726 -31.11658,13.35213 -18.26437,1.43488 -33.94542,-2.21668 -35.02458,-8.15599 -1.07916,-5.93929 12.85222,-11.91726 31.11659,-13.35213 18.26437,-1.43487 33.94541,2.21669 35.02457,8.15599 z"
       id="path8341"
       inkscape:connector-curvature="0" />
    <path
       style="fill:none;stroke:#000000;stroke-width:2"
       d="m 250.84622,300.50075 c -13.19252,0.25929 -23.76914,-2.67622 -24.58052,-7.14172 -0.29216,-1.60797 0.71731,-3.21931 2.73187,-4.70672 l 6.31999,1.77034 c -0.45463,0.63143 -0.64355,1.27957 -0.52592,1.92693 0.54247,2.98551 7.42732,4.97733 16.14372,4.92503 z"
       id="path11859"
       inkscape:connector-curvature="0" />
    <path
       style="fill:none;stroke:#000000;stroke-width:2"
       d="m 255.16646,297.09416 c 10.62492,-0.83471 18.72919,-4.31226 18.10142,-7.76733 l 8.90441,-0.35991 c 0.91218,5.02027 -10.8635,10.07323 -26.30166,11.28607 z"
       id="path11857"
       inkscape:connector-curvature="0"
       sodipodi:nodetypes="ccccc" />
    <path
       style="fill:none;stroke:#000000;stroke-width:2"
       d="m 272.27414,287.7138 c -2.72482,-2.46935 -10.5317,-3.82676 -19.38107,-3.13154 -3.85799,0.30309 -7.38364,0.95462 -10.27959,1.82702 l -1.89783,-2.51301 c 3.5365,-0.84984 7.55206,-1.48549 11.85171,-1.82328 13.37326,-1.05063 25.108,1.12491 28.6008,4.98894 z"
       id="path8341-7"
       inkscape:connector-curvature="0" />
    <path
       style="fill:none;stroke:#000000;stroke-width:2"
       d="m 270.3695,289.44797 c 0.53064,2.92044 -6.31961,5.85988 -15.30043,6.56543 -8.98085,0.70554 -16.69142,-1.08996 -17.22205,-4.01041 -0.53064,-2.92044 6.3196,-5.85987 15.30044,-6.56542 8.98082,-0.70555 16.6914,1.08996 17.22204,4.0104 z"
       id="path8341-7-6"
       inkscape:connector-curvature="0" />
    <path
       style="fill:#ffd5d5;stroke:#000000;stroke-width:2;stroke-linecap:butt;stroke-linejoin:miter;stroke-opacity:1;display:inline"
       d="m 161.62698,89.500338 c 22.36248,7.591353 28.64301,24.455372 26.05002,34.094522 l 6.28434,43.20891 -0.34776,41.1864 -75.86168,44.39277 -59.32098,-81.43637 z"
       id="path8489-4-5"
       inkscape:connector-curvature="0"
       sodipodi:nodetypes="ccccccc" />
    <path
       style="fill:#ffd5d5;stroke:#000000;stroke-width:2;stroke-linecap:butt;stroke-linejoin:miter;stroke-opacity:1;display:inline"
       d="m 192.52556,186.22207 c 9.67111,17.85814 11.74086,53.64739 -15.3107,73.84164 -27.44822,20.49038 -84.623608,26.66852 -100.023491,18.64154 -9.09395,-4.7401 -8.535963,-11.50206 -0.387989,-23.45264"
       id="path8505-3-6"
       inkscape:connector-curvature="0"
       sodipodi:nodetypes="cssc" />
    <path
       style="fill:#ffd5d5;stroke:#000000;stroke-width:2;stroke-linecap:butt;stroke-linejoin:miter;stroke-opacity:1;display:inline"
       d="m 156.65083,255.35255 c 2.24708,11.13157 6.33563,21.73309 -0.26619,27.3134 -12.75672,10.78286 -70.968906,0.8815 -95.165071,-31.33636 -16.617988,-22.12731 -17.421935,-50.8154 -1.339758,-84.55275"
       id="path6459-7-8"
       inkscape:connector-curvature="0"
       sodipodi:nodetypes="cssc" />
    <g
       id="g11735"
       transform="matrix(0.97213566,0,0,0.97213566,4.6740656,2.2672642)"
       style="stroke-width:2.05732608">
      <path
         id="path9896-0-0"
         d="m 193.85054,160.48401 c 15.49625,11.33772 23.73731,29.82236 18.66645,49.4325 -3.40163,13.15486 -20.98194,25.99931 -26.24538,23.60858 -3.2699,-1.48524 -0.83555,-5.67487 -0.33984,-9.15993 0,0 -7.05761,-0.18937 -8.10271,-3.84045 -1.1367,-3.97103 4.26114,-23.06039 11.47324,-30.90359"
         style="fill:#ffd5d5;stroke:none"
         inkscape:connector-curvature="0" />
      <path
         sodipodi:nodetypes="sccscs"
         inkscape:connector-curvature="0"
         id="path9888-7"
         d="m 177.8299,220.52617 c -0.65368,-4.07846 1.7355,-11.42489 1.7355,-11.42489 9.85527,-12.25847 25.96461,15.79166 18.80784,19.77193 0,0 -8.1811,6.48157 -12.10079,4.65334 -3.25477,-1.5181 -0.83555,-5.67487 -0.33984,-9.15993 -2.31893,-0.58916 -7.75003,-1.63998 -8.10271,-3.84045 z"
         style="fill:#ffaaaa;stroke:none" />
      <path
         sodipodi:nodetypes="ccsc"
         inkscape:connector-curvature="0"
         id="path9896-0"
         d="m 185.93453,224.36463 c -0.49571,3.48506 -2.93006,7.67469 0.2468,9.02249 6.55397,-0.45546 6.41189,-3.99117 4.4253,-7.08835 -1.64435,-2.56362 -4.6721,-1.93414 -4.6721,-1.93414 z"
         style="fill:#ff8080;stroke:none" />
      <path
         sodipodi:nodetypes="cssc"
         inkscape:connector-curvature="0"
         id="path9896"
         d="m 193.85096,160.483 c 15.49625,11.33772 23.73731,29.82236 18.66645,49.4325 -3.40163,13.15486 -20.98194,25.99931 -26.24538,23.60858 -3.2699,-1.48524 -0.83555,-5.67487 -0.33984,-9.15993"
         style="fill:none;stroke:#000000;stroke-width:2.05732608;stroke-linecap:butt;stroke-linejoin:miter;stroke-opacity:1" />
      <path
         style="fill:none;stroke:#000000;stroke-width:2.05732608;stroke-linecap:butt;stroke-linejoin:miter;stroke-opacity:1;display:inline"
         d="m 198.37282,228.87074 c 7.15677,-3.98027 -8.95257,-32.0304 -18.80784,-19.77193"
         id="path8521-84-9-6"
         inkscape:connector-curvature="0"
         sodipodi:nodetypes="cc" />
      <path
         id="path11699"
         d="m 186.08595,233.2492 c 6.64701,-0.31802 6.50493,-3.85373 4.51834,-6.95091"
         style="fill:none;stroke:#000000;stroke-width:2.05732608;stroke-linecap:butt;stroke-linejoin:miter;stroke-opacity:1"
         inkscape:connector-curvature="0" />
    </g>
    <path
       style="fill:#1a1a1a;stroke:#000000;stroke-width:2;stroke-linecap:butt;stroke-linejoin:miter;stroke-opacity:1"
       d="m 108.97202,170.59868 41.11451,43.0701 c 7.58891,7.94988 22.02773,-0.6431 27.73652,6.29129 l 54.63186,66.36039 c 1.66439,2.02171 6.93287,-0.4379 5.4679,-2.20681 l -57.03467,-68.86819 c -6.84957,-8.27072 -21.65736,-0.45468 -27.6613,-6.77449 l -40.15987,-41.83846 c -2.4487,-2.55106 -6.49015,1.45704 -4.09495,3.96617 z"
       id="path9890"
       inkscape:connector-curvature="0"
       sodipodi:nodetypes="sssssssss" />
    <path
       style="fill:#333333;stroke:#000000;stroke-width:2;stroke-linecap:butt;stroke-linejoin:miter;stroke-opacity:1"
       d="m 192.69517,249.02248 -14.45992,-14.76121 4.67447,-7.6674 c 1.18787,-1.94842 1.87503,-2.67681 3.81691,-3.60375 l 18.78539,-8.96705 8.26247,20.96354 c 0.94005,2.3851 -1.1572,4.57906 -3.26796,5.85909 l -14.22443,8.6261 c -1.18588,0.71914 -2.65266,0.5044 -3.58693,-0.44932 z"
       id="path8402"
       inkscape:connector-curvature="0"
       sodipodi:nodetypes="scsscssss" />
    <path
       style="fill:none;stroke:#000000;stroke-width:2;stroke-linecap:butt;stroke-linejoin:miter;stroke-opacity:1"
       d="m 210.48968,234.32519 -11.35825,6.8855 c -1.6329,0.98988 -3.12027,-0.0411 -3.87232,-1.12952 l -9.4705,-13.70579"
       id="path8406"
       inkscape:connector-curvature="0"
       sodipodi:nodetypes="cssc" />
    <g
       id="g11666"
       transform="matrix(0.97213566,0,0,0.97213566,4.6740656,2.2672642)"
       style="stroke-width:2.05732608">
      <path
         sodipodi:nodetypes="cscsc"
         inkscape:connector-curvature="0"
         id="path6532-5-2-3-4"
         d="m 105.64891,176.43673 c 43.27334,4.74866 75.16731,25.96288 68.08977,37.25942 -1.95333,3.11773 -7.46112,0.75028 -7.46112,0.75028 -1.99058,3.64781 4.74697,8.08159 2.64585,11.15797 -4.05512,5.93739 -36.42404,9.82484 -40.41948,9.71131"
         style="fill:#ffd5d5;stroke:none;display:inline" />
      <path
         sodipodi:nodetypes="sccscs"
         inkscape:connector-curvature="0"
         id="path6532-5-2-37"
         d="m 173.73952,213.69761 c 3.89556,-6.3026 -6.26793,-14.88413 -6.26793,-14.88413 -18.43104,-9.18607 -20.37253,34.05988 -10.68924,32.11467 2.85875,-0.65226 9.91716,-2.15994 12.1419,-5.32229 2.14356,-3.04696 -4.63643,-7.51016 -2.64585,-11.15797 0,0 5.52679,2.37926 7.46112,-0.75028 z"
         style="fill:#ffaaaa;stroke:none;display:inline" />
      <path
         sodipodi:nodetypes="ccc"
         inkscape:connector-curvature="0"
         id="path8517-9-7-0"
         d="m 169.33433,224.54514 c -5.30196,7.08859 -7.39325,-8.39735 -3.05189,-10.08351 -1.77732,3.23738 3.38901,7.11558 3.05189,10.08351 z"
         style="fill:#ff8080;stroke:none;display:inline" />
      <path
         sodipodi:nodetypes="cssc"
         inkscape:connector-curvature="0"
         id="path6532-5-2"
         d="m 105.64933,176.43572 c 43.27334,4.74866 75.16731,25.96288 68.08977,37.25942 -1.95333,3.11773 -4.82855,0.0973 -8.27447,1.42256 -4.34348,1.67043 -1.4346,16.51555 3.88167,9.4118"
         style="fill:none;stroke:#000000;stroke-width:2.05732608;stroke-linecap:butt;stroke-linejoin:miter;stroke-opacity:1;display:inline" />
      <path
         sodipodi:nodetypes="csc"
         inkscape:connector-curvature="0"
         id="path8517-9-7"
         d="m 166.27798,214.44542 c -1.99058,3.64781 4.74697,8.08159 2.64585,11.15797 -4.05512,5.93739 -36.42404,9.82484 -40.41948,9.71131"
         style="fill:none;stroke:#000000;stroke-width:2.05732608;stroke-linecap:butt;stroke-linejoin:miter;stroke-opacity:1;display:inline" />
      <path
         style="fill:none;stroke:#000000;stroke-width:2.05732608;stroke-linecap:butt;stroke-linejoin:miter;stroke-opacity:1;display:inline"
         d="m 167.47117,198.81101 c -18.43104,-9.18607 -20.37253,34.05988 -10.68924,32.11467"
         id="path8521-84-9"
         inkscape:connector-curvature="0"
         sodipodi:nodetypes="cc" />
    </g>
    <g
       id="g11743"
       transform="matrix(0.97213566,0,0,0.97213566,4.6740656,2.2672642)"
       style="stroke-width:2.05732608">
      <path
         sodipodi:nodetypes="cscc"
         inkscape:connector-curvature="0"
         id="path9888-1"
         d="m 190.60387,226.29723 c -1.64435,-2.56362 -11.96013,-2.06528 -12.77481,-5.77459 -0.62997,-2.86834 1.11464,-9.69823 1.7355,-11.42489 z"
         style="fill:#ffaaaa;stroke:none" />
      <path
         id="path9888"
         d="m 190.60429,226.29829 c -1.64435,-2.56362 -11.7297,-2.12351 -12.77481,-5.77459 -1.13669,-3.97103 4.26114,-23.06039 11.47324,-30.90359"
         style="fill:none;stroke:#000000;stroke-width:2.05732608;stroke-linecap:butt;stroke-linejoin:miter;stroke-opacity:1"
         inkscape:connector-curvature="0" />
    </g>
    <g
       id="g11747"
       transform="matrix(0.97213566,0,0,0.97213566,4.6740656,2.2672642)"
       style="stroke-width:2.05732608">
      <path
         sodipodi:nodetypes="cc"
         inkscape:connector-curvature="0"
         id="path8491-8-3"
         d="m 186.31127,122.59831 c 11.84583,13.16213 12.95585,37.37682 -0.23737,51.07481"
         style="fill:#ffd5d5;stroke:#000000;stroke-width:2.05732608;stroke-linecap:butt;stroke-linejoin:miter;stroke-opacity:1;display:inline" />
      <path
         sodipodi:nodetypes="cc"
         inkscape:connector-curvature="0"
         id="path8493-4-2"
         d="m 174.87704,121.74043 -1.14855,7.52409"
         style="fill:none;stroke:#000000;stroke-width:2.05732608;stroke-linecap:butt;stroke-linejoin:miter;stroke-opacity:1;display:inline" />
      <path
         sodipodi:nodetypes="cc"
         inkscape:connector-curvature="0"
         id="path8495-9-2"
         d="m 152.25361,127.91784 5.32203,5.56194"
         style="fill:none;stroke:#000000;stroke-width:2.05732608;stroke-linecap:butt;stroke-linejoin:miter;stroke-opacity:1;display:inline" />
      <path
         sodipodi:nodetypes="ssssss"
         inkscape:connector-curvature="0"
         id="path8497-6-1"
         d="m 172.60688,134.31672 c -9.36344,1.41204 -21.74631,15.56362 -26.22338,24.02091 -5.1339,9.69813 -3.54142,17.43352 8.96239,14.05657 11.18239,-3.02006 14.92373,-4.78806 23.23622,-5.10757 6.56846,-0.25247 7.8071,-9.65044 7.24423,-16.97792 -0.55338,-7.20404 -3.25223,-17.4951 -13.21946,-15.99199 z"
         style="fill:#ffaaaa;stroke:#000000;stroke-width:2.05732608;stroke-linecap:butt;stroke-linejoin:miter;stroke-opacity:1;display:inline" />
      <path
         sodipodi:nodetypes="csc"
         inkscape:connector-curvature="0"
         id="path8509-8-5"
         d="m 58.655738,176.70806 c -6.08248,-13.17718 1.33915,-40.03373 24.49173,-69.96588 24.108122,-31.167523 70.782572,-30.995516 89.164662,-7.717623"
         style="fill:#ffd5d5;stroke:#000000;stroke-width:2.05732608;stroke-linecap:butt;stroke-linejoin:miter;stroke-opacity:1;display:inline" />
      <path
         style="fill:#000000;stroke:#000000;stroke-width:2.05732608;stroke-linecap:butt;stroke-linejoin:miter;stroke-opacity:1;display:inline"
         d="m 157.94861,162.50163 c 1.54831,3.17698 11.04655,-15.99443 9.061,-16.50859 -1.81312,-0.4695 -12.0064,10.46484 -9.061,16.50859 z"
         id="path8513-8-7"
         inkscape:connector-curvature="0"
         sodipodi:nodetypes="sss" />
      <path
         style="fill:#000000;stroke:#000000;stroke-width:2.05732608;stroke-linecap:butt;stroke-linejoin:miter;stroke-opacity:1;display:inline"
         d="m 175.52506,144.28944 c -2.12244,-0.31761 -2.12056,18.3298 -0.1744,16.04113 4.25092,-4.9992 2.02836,-15.76372 0.1744,-16.04113 z"
         id="path8515-2-6"
         inkscape:connector-curvature="0"
         sodipodi:nodetypes="sss" />
      <path
         sodipodi:nodetypes="csc"
         inkscape:connector-curvature="0"
         id="path8499-0-5"
         d="m 101.65961,93.375408 c -37.189872,9.474842 -33.757622,49.718452 -17.823122,60.348382 6.2408,4.16324 23.952062,-19.00682 31.067722,-25.57255"
         style="fill:#ffd5d5;stroke:#000000;stroke-width:2.05732608;stroke-linecap:butt;stroke-linejoin:miter;stroke-opacity:1;display:inline" />
    </g>
    <path
       style="fill:none;stroke:#000000;stroke-width:2;stroke-linecap:butt;stroke-linejoin:miter;stroke-opacity:1"
       d="m 232.99096,286.75931 c -6.03227,-1.03724 2.37956,-11.43209 -3.0036,-12.2928"
       id="path11893"
       inkscape:connector-curvature="0"
       sodipodi:nodetypes="cc" />
    <path
       style="fill:none;stroke:#000000;stroke-width:2;stroke-linecap:butt;stroke-linejoin:miter;stroke-opacity:1"
       d="m 224.81499,276.90422 c -4.54765,-1.60666 1.9793,-11.53269 -3.29212,-12.55436"
       id="path11895"
       inkscape:connector-curvature="0"
       sodipodi:nodetypes="cc" />
    <path
       style="fill:none;stroke:#000000;stroke-width:2;stroke-linecap:butt;stroke-linejoin:miter;stroke-opacity:1"
       d="m 217.83208,268.39193 c -5.70983,-1.8977 2.04928,-11.77935 -3.65667,-13.01959"
       id="path11897"
       inkscape:connector-curvature="0"
       sodipodi:nodetypes="cc" />
    <path
       style="fill:none;stroke:#000000;stroke-width:2;stroke-linecap:butt;stroke-linejoin:miter;stroke-opacity:1"
       d="m 209.50638,258.3294 c -6.5122,-0.20849 2.42159,-11.24358 -3.28602,-12.82688"
       id="path11899"
       inkscape:connector-curvature="0"
       sodipodi:nodetypes="cc" />
  </g>
  <g
     inkscape:groupmode="layer"
     id="layer4"
     inkscape:label="字幕"
     sodipodi:insensitive="true">
    <text
       xml:space="preserve"
       style="font-size:70.34015656px;font-style:normal;font-weight:normal;line-height:125%;letter-spacing:0px;word-spacing:0px;writing-mode:lr-tb;fill:#000000;fill-opacity:1;stroke:none;font-family:Sans"
       x="82.628853"
       y="70.930664"
       id="text6768"
       sodipodi:linespacing="125%"><tspan
         sodipodi:role="line"
         id="tspan6770"
         x="82.628853"
         y="70.930664"
         style="font-weight:bold;-inkscape-font-specification:Sans Bold">捜索中</tspan></text>
  </g>
  <g
     inkscape:groupmode="layer"
     id="layer2"
     inkscape:label="枠面"
     sodipodi:insensitive="true">
    <path
       style="fill:#ffffff;stroke:none;display:inline"
       d="m 0,0 0,320 370,0 0,-320 -10,10 0,300 -350,0 0,-300 350,0 10,-10 z"
       id="path21072"
       inkscape:connector-curvature="0"
       sodipodi:nodetypes="ccccccccccc" />
  </g>
</svg>
