<?xml version="1.0" encoding="UTF-8" standalone="no"?>
<!-- Created with Inkscape (http://www.inkscape.org/) -->

<svg
   xmlns:dc="http://purl.org/dc/elements/1.1/"
   xmlns:cc="http://creativecommons.org/ns#"
   xmlns:rdf="http://www.w3.org/1999/02/22-rdf-syntax-ns#"
   xmlns:svg="http://www.w3.org/2000/svg"
   xmlns="http://www.w3.org/2000/svg"
   xmlns:sodipodi="http://sodipodi.sourceforge.net/DTD/sodipodi-0.dtd"
   xmlns:inkscape="http://www.inkscape.org/namespaces/inkscape"
   width="370"
   height="320"
   id="svg3172"
   version="1.1"
   inkscape:version="0.48.4 r9939"
   sodipodi:docname="[35]反省.svg"
   inkscape:export-filename="C:\Users\執安\Desktop\資料\臨時\BUTING\[35]反省.png"
   inkscape:export-xdpi="90"
   inkscape:export-ydpi="90">
  <defs
     id="defs3174" />
  <sodipodi:namedview
     id="base"
     pagecolor="#ffffff"
     bordercolor="#666666"
     borderopacity="1.0"
     inkscape:pageopacity="0.0"
     inkscape:pageshadow="2"
     inkscape:zoom="0.70710678"
     inkscape:cx="233.31309"
     inkscape:cy="6.4628425"
     inkscape:document-units="px"
     inkscape:current-layer="layer3"
     showgrid="false"
     inkscape:window-width="1100"
     inkscape:window-height="697"
     inkscape:window-x="-5"
     inkscape:window-y="-4"
     inkscape:window-maximized="0" />
  <metadata
     id="metadata3177">
    <rdf:RDF>
      <cc:Work
         rdf:about="">
        <dc:format>image/svg+xml</dc:format>
        <dc:type
           rdf:resource="http://purl.org/dc/dcmitype/StillImage" />
        <dc:title></dc:title>
      </cc:Work>
    </rdf:RDF>
  </metadata>
  <g
     inkscape:label="補助線"
     inkscape:groupmode="layer"
     id="layer1"
     transform="translate(0,-732.36218)"
     sodipodi:insensitive="true"
     style="display:none">
    <path
       style="fill:none;stroke:#0000ff;stroke-width:1px;stroke-linecap:butt;stroke-linejoin:miter;stroke-opacity:1;display:inline"
       d="M 10,1042.3622 360,742.36211"
       id="path3025"
       inkscape:connector-curvature="0"
       sodipodi:nodetypes="cc" />
    <path
       style="fill:none;stroke:#0000ff;stroke-width:1px;stroke-linecap:butt;stroke-linejoin:miter;stroke-opacity:1;display:inline"
       d="M 10,742.36211 360,1042.3622"
       id="path3027"
       inkscape:connector-curvature="0"
       sodipodi:nodetypes="cc" />
    <path
       style="fill:none;stroke:#ff0000;stroke-width:1px;stroke-linecap:butt;stroke-linejoin:miter;stroke-opacity:1;display:inline"
       d="m 10,732.36211 0,320.00009"
       id="path3006"
       inkscape:connector-curvature="0"
       sodipodi:nodetypes="cc" />
    <path
       style="fill:none;stroke:#ff0000;stroke-width:1px;stroke-linecap:butt;stroke-linejoin:miter;stroke-opacity:1;display:inline"
       d="m 360,732.36211 0,320.00009"
       id="path3010"
       inkscape:connector-curvature="0"
       sodipodi:nodetypes="cc" />
    <path
       style="fill:none;stroke:#ff0000;stroke-width:1px;stroke-linecap:butt;stroke-linejoin:miter;stroke-opacity:1;display:inline"
       d="m 0,742.36208 370,3e-5"
       id="path3016"
       inkscape:connector-curvature="0" />
    <path
       style="fill:none;stroke:#ff0000;stroke-width:1px;stroke-linecap:butt;stroke-linejoin:miter;stroke-opacity:1;display:inline"
       d="m 0,1042.3622 370,0"
       id="path3018"
       inkscape:connector-curvature="0"
       sodipodi:nodetypes="cc" />
  </g>
  <g
     inkscape:groupmode="layer"
     id="layer3"
     inkscape:label="豚"
     sodipodi:insensitive="true">
    <path
       style="fill:#f09870;fill-opacity:1;stroke:none;display:inline"
       d="m 217.65653,185.42539 c 12.89179,-14.14376 13.00426,-34.99953 1.25231,-52.50756 2.78026,-10.36068 -1.65241,-32.29136 -29.78702,-37.14459 -14.57575,-9.11905 -50.20826,-13.92394 -77.22893,18.89526 -15.141944,18.39134 -24.965324,34.90374 -27.650965,48.60696 -19.714931,17.5986 -39.36509,69.35806 -33.76414,97.17933 l 173.967035,-9.91522 9.4083,-72.24824 -7.45601,-10.15723 z"
       id="path5093-4-2-9-9-4-48-5-7"
       inkscape:connector-curvature="0"
       sodipodi:nodetypes="cccscccccc" />
    <path
       style="fill:#c85854;fill-opacity:1;stroke:none;display:inline"
       d="m 217.65586,185.4223 c 12.89179,-14.14376 13.00426,-34.99953 1.25231,-52.50756 2.78026,-10.36068 -5.53261,-35.66083 -23.52813,-32.48221 -11.50989,-5.81359 -48.09215,-10.96132 -75.11282,21.85788 -15.14194,18.39134 -21.840324,37.27874 -22.525965,53.48196 -19.714934,17.5986 -35.365094,49.85806 -32.264144,82.17933 l 158.967039,-7.41522 9.4083,-72.24824 -7.45601,-10.15723 z"
       id="path5093-4-2-9-9-4-48-5-7-1"
       inkscape:connector-curvature="0"
       sodipodi:nodetypes="cccscccccc" />
    <path
       style="fill:none;stroke:#000000;stroke-width:2;stroke-linecap:butt;stroke-linejoin:miter;stroke-opacity:1;display:inline"
       d="m 218.94778,132.81323 c 2.74101,-10.25929 -1.69166,-32.18997 -29.82627,-37.0432"
       id="path5091-2-4-0-7-2-28-9"
       inkscape:connector-curvature="0"
       sodipodi:nodetypes="cc" />
    <path
       style="fill:none;stroke:#000000;stroke-width:2;stroke-linecap:butt;stroke-linejoin:miter;stroke-opacity:1;display:inline"
       d="m 201.32488,106.51557 c -19.30839,-24.84182 -62.36292,-24.49918 -89.4323,8.14972 -21.806121,26.30098 -32.413715,48.9519 -27.015228,64.74745"
       id="path3536-4-7-61-2-2"
       inkscape:connector-curvature="0"
       sodipodi:nodetypes="csc" />
    <path
       style="fill:#f09870;fill-opacity:1;stroke:none;display:inline"
       d="m 127.80551,103.85618 c -27.54425,3.76122 -42.938915,37.18353 -22.35624,62.13136 6.42048,7.78215 28.37903,-24.26039 36.17372,-29.47563"
       id="path5099-1-2-8-9-8-9-3-4"
       inkscape:connector-curvature="0"
       sodipodi:nodetypes="csc" />
    <path
       style="fill:#c85854;fill-opacity:1;stroke:none;display:inline"
       d="m 131.12117,111.54727 c -27.54425,3.76122 -35.510403,33.44437 -25.33501,52.35579 5.87706,10.92278 30.04324,-22.1746 37.83793,-27.38984"
       id="path5099-1-2-8-9-8-9-3-6"
       inkscape:connector-curvature="0"
       sodipodi:nodetypes="csc" />
    <path
       style="fill:none;stroke:#000000;stroke-width:2;stroke-linecap:butt;stroke-linejoin:miter;stroke-opacity:1;display:inline"
       d="m 207.59025,133.0213 -1.44378,8.71099"
       id="path5095-5-3-4-3-2-6-5"
       inkscape:connector-curvature="0"
       sodipodi:nodetypes="cc" />
    <path
       style="fill:none;stroke:#000000;stroke-width:2;stroke-linecap:butt;stroke-linejoin:miter;stroke-opacity:1;display:inline"
       d="m 183.40473,139.33107 5.53291,5.98563"
       id="path5097-5-2-8-1-5-50-3"
       inkscape:connector-curvature="0"
       sodipodi:nodetypes="cc" />
    <path
       style="fill:none;stroke:#000000;stroke-width:2;stroke-linecap:butt;stroke-linejoin:miter;stroke-opacity:1;display:inline"
       d="m 127.8063,103.85428 c -27.54425,3.76122 -42.938909,37.18353 -22.35624,62.13136 6.42048,7.78215 28.37903,-24.26039 36.17372,-29.47563"
       id="path5099-1-2-8-9-8-9-3"
       inkscape:connector-curvature="0"
       sodipodi:nodetypes="csc" />
    <path
       style="fill:none;stroke:#000000;stroke-width:2;stroke-linecap:butt;stroke-linejoin:miter;stroke-opacity:1"
       d="m 84.210493,163.28221 c -22.185027,21.49941 -39.912324,72.76943 -33.733014,97.16937 l 173.967031,-9.91522 9.4083,-72.24824"
       id="path3163"
       inkscape:connector-curvature="0"
       sodipodi:nodetypes="cccc" />
    <path
       style="fill:#2b1100;stroke:none"
       d="m -104.53167,280.25866 653.94616,-116.74134 0,187.38808 -653.94616,116.74134 z"
       id="rect3165-2"
       inkscape:connector-curvature="0"
       sodipodi:nodetypes="ccccc" />
    <path
       style="opacity:0.5;fill:#000000;stroke:none"
       d="m 49.851028,252.40202 c 13.544237,9.56046 32.588923,16.59237 53.845432,21.92319 l -16.09184,15.70238 10.33583,5.69076 39.68601,7.93354 26.92544,-7.99437 10.48284,-8.27732 c 14.45509,1.82266 21.34276,1.56193 34.1526,2.85203 38.44859,30.58911 132.79259,4.14868 149.57002,-21.92031 6.35656,-9.87691 7.04547,-15.42507 -40.59367,-20.82654 3.70535,-18.7922 -31.8255,-26.30232 -70.72619,-29.98538"
       id="path5293"
       inkscape:connector-curvature="0"
       sodipodi:nodetypes="ccccccccscc" />
    <path
       style="fill:none;stroke:none;display:inline"
       d="m 129.99509,184.9182 c -38.294812,38.31115 -48.062009,87.28666 -38.341373,101.37247 3.1869,4.61795 4.394119,-5.43188 8.788243,-4.82408 l 48.35663,-69.14126 z"
       id="path3386-7-3-0-9"
       inkscape:connector-curvature="0"
       sodipodi:nodetypes="csccc" />
    <path
       style="fill:none;stroke:#000000;stroke-width:2"
       d="m -104.5294,280.25948 653.94616,-116.74134 0,187.38808 -653.94616,116.74134 z"
       id="rect3165"
       inkscape:connector-curvature="0"
       sodipodi:nodetypes="ccccc" />
    <path
       style="fill:#c85854;fill-opacity:1;stroke:none;display:inline"
       d="m 228.15551,197.71286 c -6.15852,1.41768 -23.82219,8.89375 -28.50448,16.3008 -3.06501,4.84862 2.27556,5.95189 3.67575,7.07785 0.0268,3.01175 -8.07366,3.47412 -6.67324,8.30528 1.72538,5.95227 21.07052,17.56719 39.57768,4.88203 14.47012,-9.9181 17.3596,-46.42911 -9.64287,-66.00333"
       id="path4276-1"
       inkscape:connector-curvature="0"
       sodipodi:nodetypes="cscssc" />
    <path
       style="fill:#c83737;stroke:none;display:inline"
       d="m 203.33165,221.0894 c 0.0268,3.01175 -8.07365,3.47412 -6.67324,8.30528 1.72539,5.95227 11.892,8.93651 11.892,8.93651 10.71706,3.15715 14.15173,-34.06135 0.88077,-32.5826 -2.16551,1.64036 -5.91404,3.00657 -9.77528,8.26296 -3.43708,4.67897 3.67575,7.07785 3.67575,7.07785 z"
       id="path3570-7-2-8-1-3-5"
       inkscape:connector-curvature="0"
       sodipodi:nodetypes="csccsc" />
    <path
       style="fill:#501616;stroke:none;display:inline"
       d="m 206.45443,224.10592 c -0.12729,-2.37601 -2.37707,-2.78515 -3.12818,-3.01597 0.0268,3.01175 -8.69352,3.68284 -6.46139,8.76941 6.70667,5.41598 9.63427,-3.66505 9.58957,-5.75344 z"
       id="path4276-4"
       inkscape:connector-curvature="0"
       sodipodi:nodetypes="cccc" />
    <path
       style="fill:none;stroke:#000000;stroke-width:2;stroke-linecap:butt;stroke-linejoin:miter;stroke-opacity:1;display:inline"
       d="m 228.15861,197.71161 c -6.15852,1.41768 -23.74157,8.94533 -28.50448,16.3008 -4.16986,6.43962 6.7208,6.21058 6.80393,10.09382 0.0447,2.08839 -2.84999,10.24464 -9.37772,6.21757"
       id="path4276"
       inkscape:connector-curvature="0"
       sodipodi:nodetypes="cssc" />
    <path
       style="fill:none;stroke:#000000;stroke-width:2;stroke-linecap:butt;stroke-linejoin:miter;stroke-opacity:1;display:inline"
       d="m 203.32988,221.09026 c 0.0268,3.01175 -8.07366,3.47412 -6.67324,8.30528 1.72538,5.95227 21.07052,17.56719 39.57768,4.88203 14.47012,-9.9181 17.3596,-46.42911 -9.64287,-66.00333"
       id="path3570-7-2-8-1-3"
       inkscape:connector-curvature="0"
       sodipodi:nodetypes="cssc" />
    <path
       style="fill:#c85854;fill-opacity:1;stroke:none;display:inline"
       d="m 84.838355,205.82106 c -2.96206,37.42907 36.597025,47.98023 61.731485,44.97332 18.52316,-2.21598 45.55142,-8.44994 52.51446,-19.48531 2.37969,-3.77146 -5.65915,-4.17824 -2.88308,-7.97083 3.45991,-4.72681 10.5733,-4.29912 4.99422,-10.95827 -6.19404,-7.39317 -31.92607,-15.18391 -53.51939,-9.20911"
       id="path5109-2-7-7-2-9-1-3-4"
       inkscape:connector-curvature="0"
       sodipodi:nodetypes="cssssc" />
    <path
       style="fill:#c83737;stroke:none;display:inline"
       d="m 199.08917,231.30696 c 2.69443,-3.55343 -5.65915,-4.17824 -2.88308,-7.97083 3.45991,-4.72681 10.57104,-4.55241 4.99422,-10.95827 -3.94181,-4.5278 -10.89171,-6.79206 -17.38825,-8.69529 10.7288,8.98461 8.52686,33.72861 0.65684,37.96479 3.49253,-1.7725 9.61733,-3.74246 14.62027,-10.3404 z"
       id="path5109-2-7-7-2-9-1-3-1"
       inkscape:connector-curvature="0"
       sodipodi:nodetypes="sssccs" />
    <path
       style="fill:none;stroke:#000000;stroke-width:2;stroke-linecap:butt;stroke-linejoin:miter;stroke-opacity:1;display:inline"
       d="m 84.841453,205.81981 c -2.962062,37.42907 36.597027,47.98023 61.731487,44.97332 18.52316,-2.21598 45.55142,-8.44994 52.51446,-19.48531 2.37969,-3.77146 -5.65915,-4.17824 -2.88308,-7.97083 3.45991,-4.72681 10.5733,-4.29912 4.99422,-10.95827 -6.19404,-7.39317 -31.92607,-15.18391 -53.51939,-9.20911"
       id="path5109-2-7-7-2-9-1-3"
       inkscape:connector-curvature="0"
       sodipodi:nodetypes="cssssc" />
    <path
       style="fill:none;stroke:#000000;stroke-width:2;stroke-linecap:butt;stroke-linejoin:miter;stroke-opacity:1"
       d="m 183.81029,203.68343 c 10.7288,8.98461 8.52686,33.72861 0.65684,37.96479"
       id="path4278"
       inkscape:connector-curvature="0"
       sodipodi:nodetypes="cc" />
    <path
       style="fill:none;stroke:#000000;stroke-width:2;stroke-linecap:butt;stroke-linejoin:miter;stroke-opacity:1"
       d="m 209.42941,205.74945 c 13.27096,-1.47875 9.83629,35.73975 -0.88077,32.5826"
       id="path4280"
       inkscape:connector-curvature="0"
       sodipodi:nodetypes="cc" />
    <path
       style="fill:#c83737;stroke:#000000;stroke-width:2;stroke-linecap:butt;stroke-linejoin:miter;stroke-opacity:1;display:inline"
       d="m 205.25605,146.87204 c -9.39847,1.04729 -21.1787,11.96671 -27.00946,20.31036 -8.89387,12.72687 -9.83784,23.98221 2.75477,20.81871 9.60785,-2.41367 17.54491,-5.17379 23.89149,-5.64992 8.987,-0.67423 10.09168,-10.21528 10.69239,-18.75319 0.58771,-8.35314 -1.47848,-17.7122 -10.32919,-16.72596 z"
       id="path5101-7-1-2-8-62-0-3"
       inkscape:connector-curvature="0"
       sodipodi:nodetypes="ssssss" />
    <path
       style="fill:#000000;stroke:#000000;stroke-width:2;display:inline"
       d="m 188.18147,176.37618 c 0.44639,3.29003 11.62555,-17.86305 9.85063,-17.77268 -1.23172,0.0627 -10.95726,9.61647 -9.85063,17.77268 z"
       id="path5105-1-6-4-6-6-0-7"
       inkscape:connector-curvature="0"
       sodipodi:nodetypes="sss" />
    <path
       style="fill:#000000;stroke:#000000;stroke-width:2;display:inline"
       d="m 206.58815,157.94732 c -1.40426,-1.52534 -3.8669,17.79501 -2.11864,15.61448 4.1139,-5.13108 3.03771,-14.61617 2.11864,-15.61448 z"
       id="path5107-1-8-55-5-5-6-4"
       inkscape:connector-curvature="0"
       sodipodi:nodetypes="sss" />
    <path
       style="fill:none;stroke:#000000;stroke-width:2;stroke-linecap:butt;stroke-linejoin:miter;stroke-opacity:1;display:inline"
       d="m 217.16706,130.63734 c 13.47674,17.85284 13.97384,39.99062 0.48916,54.78484"
       id="path5093-4-2-9-9-4-48-5"
       inkscape:connector-curvature="0"
       sodipodi:nodetypes="cc" />
    <path
       style="fill:none;stroke:#ff00ff;stroke-width:2;stroke-linecap:round;stroke-miterlimit:4;stroke-opacity:1;stroke-dashoffset:0"
       d="m -435.57778,32.914648 -26.25483,26.615224 -37.38478,0.254834 -26.61522,-26.254834 -0.25483,-37.3847763 26.25483,-26.6152237 37.38478,-0.254834 26.61522,26.254834 z"
       id="path5385"
       inkscape:connector-curvature="0" />
    <g
       id="g6567"
       transform="translate(159.80613,-91.216774)">
      <path
         id="path5385-2-1-8"
         d="m -30.184159,377.21164 -9.91765,-4.66279 -16.29744,-0.80673 -13.13035,3.52192 -2.27174,5.78747"
         style="fill:none;stroke:#000000;stroke-width:2;stroke-linecap:round;stroke-miterlimit:4;stroke-opacity:1;stroke-dashoffset:0"
         inkscape:connector-curvature="0" />
      <path
         id="path5426-6-77"
         d="m -32.452159,382.99989 -13.1304,3.52192 -16.29743,-0.80672 -9.91766,-4.66279 2.27173,-5.78748 13.13036,-3.52191 16.29743,0.80673 9.91766,4.66279 z"
         style="opacity:0.2;fill:#ffffff;stroke:none"
         inkscape:connector-curvature="0" />
      <g
         transform="translate(-14.433549,171.75231)"
         id="g6024">
        <path
           style="fill:none;stroke:#000000;stroke-width:2;stroke-linecap:round;stroke-miterlimit:4;stroke-opacity:1;stroke-dashoffset:0"
           d="m -41.965704,199.98981 -0.66213,-40.49706"
           id="path5958"
           inkscape:connector-curvature="0" />
        <path
           style="fill:none;stroke:#000000;stroke-width:2;stroke-linecap:round;stroke-miterlimit:4;stroke-opacity:1;stroke-dashoffset:0"
           d="m -57.023024,163.35393 1.92697,40.1578"
           id="path5988"
           inkscape:connector-curvature="0" />
        <path
           style="fill:none;stroke:#000000;stroke-width:2;stroke-linecap:round;stroke-miterlimit:4;stroke-opacity:1;stroke-dashoffset:0"
           d="m -24.760514,160.37719 -0.90775,40.41935"
           id="path5980"
           inkscape:connector-curvature="0" />
      </g>
      <g
         transform="translate(-14.433549,171.75231)"
         id="g6018">
        <path
           style="opacity:0.1;fill:#ffffff;stroke:none"
           d="m -25.665844,200.79781 9.91765,4.66279 1.86312,-39.97018 -10.87301,-5.11196 z"
           id="path5385-2-1-8-4"
           inkscape:connector-curvature="0" />
        <path
           style="opacity:0.1;fill:#ffffff;stroke:none"
           d="m -42.625414,159.49402 -14.39518,3.86118 1.92696,40.15779 13.13036,-3.52192 z"
           id="path5778"
           inkscape:connector-curvature="0" />
        <path
           style="opacity:0.05;fill:#ffffff;stroke:none"
           d="m -25.665844,200.79781 -16.29743,-0.80674 -0.66214,-40.49705 17.86733,0.88444 z"
           id="path5766"
           inkscape:connector-curvature="0"
           sodipodi:nodetypes="ccccc" />
        <path
           style="opacity:0.2;fill:#ffffff;stroke:none"
           d="m -57.365374,209.30047 2.27174,-5.78748 -1.92696,-40.15779 -2.49056,6.34497 z"
           id="path5770"
           inkscape:connector-curvature="0" />
      </g>
      <g
         transform="translate(0,-40)"
         id="g6546">
        <path
           style="opacity:0.5;fill:#ff5c00;fill-opacity:1;stroke:none"
           d="m -66.776949,413.38906 11.16876,-2.99575 13.86268,0.6862 8.43602,3.96621 -1.93231,4.92285 -11.16879,2.99576 -13.8627,-0.68619 -8.43601,-3.96622 z"
           id="path5385-2-1-8-3"
           inkscape:connector-curvature="0" />
        <g
           id="g6498"
           transform="translate(-182.43355,134.75231)">
          <path
             sodipodi:nodetypes="ccccccccc"
             inkscape:connector-curvature="0"
             id="path6359-3-4-0"
             d="m 149.02446,267.83763 -3.79705,4.69632 -7.51611,7.21433 -8.60585,-1.21066 -1.93247,-11.67039 0.46957,-2.10614 11.82176,-2.98486 8.00604,1.73305 z"
             style="opacity:0.5;fill:#ffffff;stroke:none" />
          <path
             sodipodi:nodetypes="ccccccc"
             inkscape:connector-curvature="0"
             id="path6359-3-4"
             d="m 129.10187,278.5343 -1.93247,-11.67039 0.46957,-2.10614 9.17548,1.62677 1.60314,2.46152 -0.70987,10.8989 z"
             style="opacity:0.5;fill:#ffffff;stroke:none" />
          <path
             sodipodi:nodetypes="ccccccc"
             inkscape:connector-curvature="0"
             id="path6359"
             d="m 147.46749,263.50702 1.55411,4.32835 -3.79705,4.69632 -7.51611,7.21433 -8.60585,-1.21066 -1.93247,-11.67039 0.46957,-2.10614"
             style="fill:none;stroke:#000000;stroke-width:2;stroke-linecap:butt;stroke-linejoin:miter;stroke-opacity:1" />
        </g>
        <g
           id="g6310"
           transform="translate(-182.7871,132.98454)">
          <path
             sodipodi:nodetypes="cccccccc"
             id="path6129-6-5"
             d="m 136.02925,272.38476 -9.24614,8.60349 -6.8549,-4.61809 -5.73898,-11.15913 1.72069,-3.3371 9.13072,-1.04454 10.0723,3.61404 z"
             style="opacity:0.5;fill:#ffffff;stroke:none"
             inkscape:connector-curvature="0" />
          <path
             sodipodi:nodetypes="cccccccc"
             inkscape:connector-curvature="0"
             id="path6131-2-8"
             d="m 129.99083,265.90206 0.61678,2.65688 -5.10132,7.01431 1.27533,5.41517 -6.8549,-4.61809 -5.73898,-11.15913 1.72069,-3.3371 z"
             style="opacity:0.5;fill:#ffffff;stroke:none" />
          <path
             sodipodi:nodetypes="cccccc"
             inkscape:connector-curvature="0"
             id="path6129"
             d="m 135.11275,264.44344 0.91631,7.94133 -9.24614,8.60349 -6.8549,-4.61809 -5.73898,-11.15913 1.72069,-3.3371"
             style="fill:none;stroke:#000000;stroke-width:2;stroke-linecap:butt;stroke-linejoin:miter;stroke-opacity:1" />
        </g>
        <path
           style="opacity:0.5;fill:#ff5c00;fill-opacity:1;stroke:none"
           d="m -69.867479,398.69288 2.05327,-5.21845 11.84392,-3.17973 14.70328,0.73166 8.94426,4.20397 -0.98776,19.81528 -1.93231,4.92285 -11.16878,2.99576 -13.8627,-0.68619 -8.43602,-3.96622 z"
           id="path5682"
           inkscape:connector-curvature="0"
           sodipodi:nodetypes="ccccccccccc" />
        <path
           style="opacity:0.5;fill:#ff5c00;fill-opacity:1;stroke:none"
           d="m -34.371359,400.45073 -11.84533,3.17724 -14.70244,-0.72777 -8.94732,-4.20646 2.04909,-5.22105 11.8453,-3.17725 14.70243,0.72778 8.94735,4.20647 z"
           id="path5385-2-5"
           inkscape:connector-curvature="0" />
        <g
           id="g6493"
           transform="translate(-182.43355,134.75231)">
          <path
             sodipodi:nodetypes="ccccccc"
             inkscape:connector-curvature="0"
             id="path6355-9"
             d="m 136.81395,266.38503 -9.17548,-1.62677 0.80721,-3.62054 10.25624,-4.97273 7.37766,3.4794 1.38669,3.86206 z"
             style="opacity:0.5;fill:#ffffff;stroke:none" />
          <path
             sodipodi:nodetypes="ccccccc"
             inkscape:connector-curvature="0"
             id="path6355-6"
             d="m 134.10308,262.22194 1.58751,2.43752 1.12247,1.72348 -9.17548,-1.62677 0.80721,-3.62054 10.25624,-4.97273 z"
             style="opacity:0.5;fill:#ffffff;stroke:none" />
          <path
             sodipodi:nodetypes="ccccc"
             inkscape:connector-curvature="0"
             id="path6133"
             d="m 127.63969,264.75883 0.80721,-3.62054 10.25624,-4.97273 7.37766,3.4794 1.38669,3.86206"
             style="fill:none;stroke:#000000;stroke-width:2;stroke-linecap:butt;stroke-linejoin:miter;stroke-opacity:1" />
        </g>
        <g
           id="g6336"
           transform="translate(-182.7871,132.98454)">
          <path
             sodipodi:nodetypes="ccccccc"
             inkscape:connector-curvature="0"
             id="path6223-0"
             d="m 129.99432,265.90042 -14.0824,-4.02796 3.54005,-6.86553 11.31854,-1.11592 3.82599,6.05782 0.51844,4.49313 z"
             style="opacity:0.5;fill:#ffffff;stroke:none" />
          <path
             sodipodi:nodetypes="cccccc"
             inkscape:connector-curvature="0"
             id="path6227-8-0"
             d="m 115.9095,261.87275 3.54005,-6.86553 11.31854,-1.11592 -2.23182,5.73899 1.45563,6.27042 z"
             style="opacity:0.5;fill:#ffffff;stroke:none" />
          <path
             sodipodi:nodetypes="ccccc"
             inkscape:connector-curvature="0"
             id="path6227"
             d="m 115.90973,261.87394 3.54005,-6.86553 11.31854,-1.11592 3.82599,6.05782 0.51844,4.49313"
             style="fill:none;stroke:#000000;stroke-width:2;stroke-linecap:butt;stroke-linejoin:miter;stroke-opacity:1" />
        </g>
      </g>
      <g
         transform="translate(-14.433549,171.75231)"
         id="g6034">
        <path
           style="opacity:0.1;fill:#ffffff;stroke:none"
           d="m -18.022524,211.24687 -13.13039,3.52192 0.38019,-39.07344 14.39521,-3.86117 z"
           id="path5788"
           inkscape:connector-curvature="0"
           sodipodi:nodetypes="ccccc" />
        <path
           style="opacity:0.07999998;fill:#ffffff;stroke:none"
           d="m -48.640064,174.81092 17.86734,0.88443 -0.38019,39.07344 -16.29743,-0.80672 z"
           id="path5794"
           inkscape:connector-curvature="0"
           sodipodi:nodetypes="ccccc" />
        <path
           style="opacity:0.1;fill:#ffffff;stroke:none"
           d="m -59.513074,169.69897 10.87301,5.11195 1.18972,39.15115 -9.91767,-4.6628 z"
           id="path5385-2-8"
           inkscape:connector-curvature="0" />
        <path
           style="opacity:0.2;fill:#ffffff;stroke:none"
           d="m -18.022524,211.24687 2.27169,-5.78746 1.86385,-39.97019 -2.49053,6.34496 z"
           id="path5790"
           inkscape:connector-curvature="0" />
      </g>
      <path
         id="path5914"
         d="m -28.320679,337.24146 -2.49017,6.34496 -14.3952,3.86117 -17.86734,-0.88443 -10.87338,-5.11195"
         style="fill:none;stroke:#000000;stroke-width:2;stroke-linecap:round;stroke-miterlimit:4;stroke-opacity:1;stroke-dashoffset:0"
         inkscape:connector-curvature="0" />
      <g
         transform="translate(-14.433549,171.75231)"
         id="g6040">
        <path
           style="fill:none;stroke:#000000;stroke-width:2;stroke-linecap:round;stroke-miterlimit:4;stroke-opacity:1;stroke-dashoffset:0"
           d="m -30.772504,175.69528 -0.38019,39.07343"
           id="path5998"
           inkscape:connector-curvature="0"
           sodipodi:nodetypes="cc" />
        <path
           style="fill:none;stroke:#000000;stroke-width:2;stroke-linecap:round;stroke-miterlimit:4;stroke-opacity:1;stroke-dashoffset:0"
           d="m -47.450134,213.96199 -1.18971,-39.15114"
           id="path5886"
           inkscape:connector-curvature="0" />
        <path
           style="fill:none;stroke:#000000;stroke-width:2;stroke-linecap:round;stroke-miterlimit:4;stroke-opacity:1;stroke-dashoffset:0"
           d="m -18.022304,211.2468 1.645,-39.41269"
           id="path6004"
           inkscape:connector-curvature="0" />
      </g>
      <path
         sodipodi:nodetypes="ccccccccccc"
         inkscape:connector-curvature="0"
         id="path5894"
         d="m -28.320859,337.24146 -10.8732,-5.11196 -17.86732,-0.88444 -14.39519,3.86118 -2.49038,6.34497 2.14561,39.6003 9.91766,4.66279 16.29744,0.80672 13.13039,-3.52191 2.27169,-5.78747 z"
         style="fill:none;stroke:#000000;stroke-width:2;stroke-linecap:round;stroke-miterlimit:4;stroke-opacity:1;stroke-dashoffset:0" />
    </g>
  </g>
  <g
     inkscape:groupmode="layer"
     id="layer4"
     inkscape:label="字幕"
     sodipodi:insensitive="true">
    <text
       xml:space="preserve"
       style="font-size:70.34015656px;font-style:normal;font-weight:normal;line-height:125%;letter-spacing:0px;word-spacing:0px;writing-mode:lr-tb;fill:#000000;fill-opacity:1;stroke:none;font-family:Sans"
       x="82.628853"
       y="70.930664"
       id="text6768"
       sodipodi:linespacing="125%"><tspan
         sodipodi:role="line"
         id="tspan6770"
         x="82.628853"
         y="70.930664"
         style="font-weight:bold;-inkscape-font-specification:Sans Bold">反省中</tspan></text>
  </g>
  <g
     inkscape:groupmode="layer"
     id="layer2"
     inkscape:label="枠面"
     sodipodi:insensitive="true">
    <path
       style="fill:#ffffff;stroke:none;display:inline"
       d="m 0,0 0,320 370,0 0,-320 -10,10 0,300 -350,0 0,-300 350,0 10,-10 z"
       id="path21072"
       inkscape:connector-curvature="0"
       sodipodi:nodetypes="ccccccccccc" />
  </g>
</svg>
