<?xml version="1.0" encoding="UTF-8" standalone="no"?>
<!-- Created with Inkscape (http://www.inkscape.org/) -->

<svg
   xmlns:dc="http://purl.org/dc/elements/1.1/"
   xmlns:cc="http://creativecommons.org/ns#"
   xmlns:rdf="http://www.w3.org/1999/02/22-rdf-syntax-ns#"
   xmlns:svg="http://www.w3.org/2000/svg"
   xmlns="http://www.w3.org/2000/svg"
   xmlns:sodipodi="http://sodipodi.sourceforge.net/DTD/sodipodi-0.dtd"
   xmlns:inkscape="http://www.inkscape.org/namespaces/inkscape"
   width="370"
   height="320"
   id="svg3172"
   version="1.1"
   inkscape:version="0.48.4 r9939"
   sodipodi:docname="[39]乱闘.svg"
   inkscape:export-filename="C:\Users\執安\Desktop\資料\臨時\BUTING\[39]乱闘.png"
   inkscape:export-xdpi="90"
   inkscape:export-ydpi="90">
  <defs
     id="defs3174" />
  <sodipodi:namedview
     id="base"
     pagecolor="#ffffff"
     bordercolor="#666666"
     borderopacity="1.0"
     inkscape:pageopacity="0.0"
     inkscape:pageshadow="2"
     inkscape:zoom="1"
     inkscape:cx="75.043276"
     inkscape:cy="97.941177"
     inkscape:document-units="px"
     inkscape:current-layer="layer8"
     showgrid="false"
     inkscape:window-width="1212"
     inkscape:window-height="698"
     inkscape:window-x="-5"
     inkscape:window-y="-5"
     inkscape:window-maximized="0" />
  <metadata
     id="metadata3177">
    <rdf:RDF>
      <cc:Work
         rdf:about="">
        <dc:format>image/svg+xml</dc:format>
        <dc:type
           rdf:resource="http://purl.org/dc/dcmitype/StillImage" />
        <dc:title></dc:title>
      </cc:Work>
    </rdf:RDF>
  </metadata>
  <g
     inkscape:label="補助線"
     inkscape:groupmode="layer"
     id="layer1"
     transform="translate(0,-732.36218)"
     sodipodi:insensitive="true"
     style="display:none">
    <path
       style="fill:none;stroke:#0000ff;stroke-width:1px;stroke-linecap:butt;stroke-linejoin:miter;stroke-opacity:1;display:inline"
       d="M 10,1042.3622 360,742.36211"
       id="path3025"
       inkscape:connector-curvature="0"
       sodipodi:nodetypes="cc" />
    <path
       style="fill:none;stroke:#0000ff;stroke-width:1px;stroke-linecap:butt;stroke-linejoin:miter;stroke-opacity:1;display:inline"
       d="M 10,742.36211 360,1042.3622"
       id="path3027"
       inkscape:connector-curvature="0"
       sodipodi:nodetypes="cc" />
    <path
       style="fill:none;stroke:#ff0000;stroke-width:1px;stroke-linecap:butt;stroke-linejoin:miter;stroke-opacity:1;display:inline"
       d="m 10,732.36211 0,320.00009"
       id="path3006"
       inkscape:connector-curvature="0"
       sodipodi:nodetypes="cc" />
    <path
       style="fill:none;stroke:#ff0000;stroke-width:1px;stroke-linecap:butt;stroke-linejoin:miter;stroke-opacity:1;display:inline"
       d="m 360,732.36211 0,320.00009"
       id="path3010"
       inkscape:connector-curvature="0"
       sodipodi:nodetypes="cc" />
    <path
       style="fill:none;stroke:#ff0000;stroke-width:1px;stroke-linecap:butt;stroke-linejoin:miter;stroke-opacity:1;display:inline"
       d="m 0,742.36208 370,3e-5"
       id="path3016"
       inkscape:connector-curvature="0" />
    <path
       style="fill:none;stroke:#ff0000;stroke-width:1px;stroke-linecap:butt;stroke-linejoin:miter;stroke-opacity:1;display:inline"
       d="m 0,1042.3622 370,0"
       id="path3018"
       inkscape:connector-curvature="0"
       sodipodi:nodetypes="cc" />
  </g>
  <g
     inkscape:groupmode="layer"
     id="layer8"
     inkscape:label="作業"
     sodipodi:insensitive="true"
     style="display:none">
    <path
       style="fill:none;stroke:#000000;stroke-width:2;stroke-linecap:butt;stroke-linejoin:miter;stroke-opacity:1"
       d="m -340,270 0,56.28 10,3.72 10,-3.72 0,-56.28 m 25,0 0,39.536 10,3.72 10,-3.72 0,-39.536 -110,0 0,39.536 10,3.72 10,-3.72 0,-39.536"
       id="path7168-0"
       inkscape:connector-curvature="0"
       sodipodi:nodetypes="ccccccccccccccc" />
    <path
       style="fill:none;stroke:#000000;stroke-width:2;stroke-linecap:butt;stroke-linejoin:miter;stroke-opacity:1"
       d="M -375,313.256 -375,270"
       id="path7168-0-8"
       inkscape:connector-curvature="0"
       sodipodi:nodetypes="cc" />
    <path
       style="fill:none;stroke:#000000;stroke-width:2;stroke-linecap:butt;stroke-linejoin:miter;stroke-opacity:1"
       d="m -330,330 0,-60"
       id="path7168-0-8-8"
       inkscape:connector-curvature="0"
       sodipodi:nodetypes="cc" />
    <path
       style="fill:none;stroke:#000000;stroke-width:2;stroke-linecap:butt;stroke-linejoin:miter;stroke-opacity:1"
       d="M -285,313.256 -285,270"
       id="path7168-0-8-9"
       inkscape:connector-curvature="0"
       sodipodi:nodetypes="cc" />
    <path
       style="fill:none;stroke:#000000;stroke-width:2;stroke-linecap:butt;stroke-linejoin:miter;stroke-opacity:1"
       d="m -385,270 0,39.536 55,20.464 55,-20.4635 0,-39.5365 z"
       id="path7168"
       inkscape:connector-curvature="0"
       sodipodi:nodetypes="cccccc" />
    <path
       style="fill:none;stroke:#00ff00;stroke-width:1px;stroke-linecap:butt;stroke-linejoin:miter;stroke-opacity:1"
       d="m -760,170 430,160 430,-160 -430,88.44073 z"
       id="path7170"
       inkscape:connector-curvature="0"
       sodipodi:nodetypes="ccccc" />
    <path
       inkscape:connector-curvature="0"
       style="fill:#483737;stroke:none"
       d="m -403.18348,261.08009 c 0,-15.19013 32.76519,-27.50413 73.18231,-27.50413 40.41712,0 73.18205,12.31356 73.18205,27.50368 l 0,7.99342 c 0,15.19013 -32.76493,27.50414 -73.18205,27.50414 -40.41712,0 -73.18178,-12.31401 -73.18178,-27.50414 z"
       id="path7111-5-4"
       sodipodi:nodetypes="csssscc" />
    <path
       inkscape:connector-curvature="0"
       style="fill:#6c5353;stroke:none"
       d="m -330.00372,288.58232 c -40.41711,0 -73.1823,-12.31403 -73.1823,-27.50414 0,-15.19012 32.76519,-27.50414 73.1823,-27.50414 40.41713,0 73.18205,12.31356 73.18205,27.50369 0,15.19011 -32.76492,27.50459 -73.18205,27.50459 z"
       id="path10692-3"
       sodipodi:nodetypes="sssss" />
    <path
       style="fill:none;stroke:#000000;stroke-width:2;stroke-linecap:round;stroke-miterlimit:4;stroke-opacity:1;stroke-dashoffset:0"
       d="m -256.81794,261.0773 c 0,15.19012 -32.76493,27.50459 -73.18205,27.50459 -40.41712,0 -73.18231,-12.31402 -73.18231,-27.50414"
       id="path10692"
       inkscape:connector-curvature="0" />
    <path
       style="fill:none;stroke:#000000;stroke-width:2;stroke-linecap:round;stroke-miterlimit:4;stroke-opacity:1;stroke-dashoffset:0"
       d="m -403.1823,261.07775 c 0,-15.19012 32.76519,-27.50414 73.18231,-27.50414 40.41712,0 73.18205,12.31356 73.18205,27.50369 l 0,7.99342 c 0,15.19012 -32.76493,27.50414 -73.18205,27.50414 -40.41712,0 -73.18178,-12.31402 -73.18178,-27.50414 z"
       id="path7111-5"
       inkscape:connector-curvature="0"
       sodipodi:nodetypes="csssscc" />
  </g>
  <g
     inkscape:groupmode="layer"
     id="layer3"
     inkscape:label="豚"
     sodipodi:insensitive="true">
    <g
       id="g14101">
      <path
         style="fill:#483737;stroke:none"
         d="m 235.49074,209.04015 36.47721,55.33045 12.78498,-3.42049 7.96284,-10.73497 -36.4772,-55.33045 m 25.93479,-17.69433 25.62478,38.86895 12.78498,-3.42049 7.96285,-10.73497 -25.62479,-38.86896 m -114.11305,77.85505 25.62478,38.86896 12.78499,-3.4205 7.96284,-10.73497 -25.62478,-38.86895"
         id="path7168-0-7-8"
         inkscape:connector-curvature="0"
         sodipodi:nodetypes="ccccccccccccccc" />
      <path
         style="fill:#241c1c;stroke:none"
         d="m 235.49158,209.03993 36.4772,55.33045 12.78499,-3.42049 -38.88828,-58.9877 m 36.3087,-24.77206 25.62479,38.86896 12.78498,-3.42049 -28.03585,-42.5262 m -103.73914,70.77732 25.62478,38.86896 12.78499,-3.4205 -28.03586,-42.52619"
         id="path7168-0-7-3"
         inkscape:connector-curvature="0"
         sodipodi:nodetypes="cccccccccccc" />
      <path
         sodipodi:nodetypes="ccccccccccccccc"
         inkscape:connector-curvature="0"
         id="path7168-0-7"
         d="m 235.49159,209.03879 36.4772,55.33046 12.78499,-3.42049 7.96284,-10.73497 -36.4772,-55.33046 m 25.93478,-17.69433 25.62479,38.86896 12.78498,-3.42049 7.96284,-10.73497 -25.62478,-38.86896 -114.11305,77.85505 25.62478,38.86895 12.78499,-3.42049 7.96284,-10.73497 -25.62478,-38.86896"
         style="fill:none;stroke:#000000;stroke-width:2;stroke-linecap:butt;stroke-linejoin:miter;stroke-opacity:1" />
      <path
         sodipodi:nodetypes="cc"
         inkscape:connector-curvature="0"
         id="path7168-0-8-83"
         d="M 227.21875,276.33705 199.18289,233.81086"
         style="fill:none;stroke:#000000;stroke-width:2;stroke-linecap:butt;stroke-linejoin:miter;stroke-opacity:1" />
      <path
         sodipodi:nodetypes="cc"
         inkscape:connector-curvature="0"
         id="path7168-0-8-8-7"
         d="m 284.75378,260.94876 -38.88827,-58.9877"
         style="fill:none;stroke:#000000;stroke-width:2;stroke-linecap:butt;stroke-linejoin:miter;stroke-opacity:1" />
      <path
         sodipodi:nodetypes="cc"
         inkscape:connector-curvature="0"
         id="path7168-0-8-9-1"
         d="m 320.58397,212.63747 -28.03585,-42.5262"
         style="fill:none;stroke:#000000;stroke-width:2;stroke-linecap:butt;stroke-linejoin:miter;stroke-opacity:1" />
      <path
         sodipodi:nodetypes="csssscc"
         id="path7111-5-4-8"
         d="m 164.16426,244.98895 c -9.8453,-14.93385 16.16386,-50.23041 58.09223,-78.83656 41.92837,-28.60615 83.89931,-39.69048 93.74461,-24.75665 l 5.18084,7.85856 c 9.8453,14.93385 -16.16358,50.23023 -58.09196,78.83639 -41.92837,28.60615 -83.89932,39.68985 -93.74462,24.756 z"
         style="fill:#483737;stroke:none"
         inkscape:connector-curvature="0" />
      <path
         sodipodi:nodetypes="sssss"
         id="path10692-3-3"
         d="m 257.90555,220.2325 c -41.92836,28.60615 -83.89988,39.6902 -93.74516,24.75637 -9.8453,-14.93384 16.16385,-50.23042 58.09221,-78.83656 41.92838,-28.60616 83.89931,-39.69049 93.74461,-24.75664 9.84529,14.93383 -16.16327,50.23067 -58.09166,78.83683 z"
         style="fill:#6c5353;stroke:none"
         inkscape:connector-curvature="0" />
      <path
         inkscape:connector-curvature="0"
         id="path10692-4"
         d="m 316.0008,141.39261 c 9.8453,14.93383 -16.16328,50.23067 -58.09166,78.83683 -41.92837,28.60615 -83.89988,39.69021 -93.74517,24.75637"
         style="fill:none;stroke:#000000;stroke-width:2;stroke-linecap:round;stroke-miterlimit:4;stroke-opacity:1;stroke-dashoffset:0" />
      <path
         sodipodi:nodetypes="csssscc"
         inkscape:connector-curvature="0"
         id="path7111-5-5"
         d="m 164.16397,244.98581 c -9.8453,-14.93383 16.16385,-50.23041 58.09222,-78.83657 41.92837,-28.60615 83.89931,-39.69048 93.74461,-24.75663 l 5.18084,7.85855 c 9.8453,14.93384 -16.16358,50.23024 -58.09195,78.83639 -41.92837,28.60615 -83.89933,39.68984 -93.74463,24.756 z"
         style="fill:none;stroke:#000000;stroke-width:2;stroke-linecap:round;stroke-miterlimit:4;stroke-opacity:1;stroke-dashoffset:0" />
    </g>
    <path
       style="fill:#ffd5d5;stroke:#000000;stroke-width:2;stroke-linecap:butt;stroke-linejoin:miter;stroke-opacity:1"
       d="m 232.24714,204.66156 c 7.20039,-27.14459 27.91827,-22.91854 35.63066,2.26139 29.23607,-0.31044 69.60137,24.77409 51.45536,71.91754 -11.30898,29.38083 -59.56885,40.93049 -90.51058,12.51828 -31.14082,-28.59504 -20.1966,-70.18846 3.42456,-86.69721 z"
       id="path8090"
       inkscape:connector-curvature="0"
       sodipodi:nodetypes="ccssc" />
    <g
       transform="translate(-202.59759,7.7155142)"
       id="g18858">
      <path
         sodipodi:nodetypes="cscccsc"
         inkscape:connector-curvature="0"
         id="path3754-1-61-1-41"
         d="m 322.73344,152.54478 c -2.06981,-1.46933 -1.67156,-5.52968 -4.22615,-7.44 -2.16746,-1.62083 -10.09463,6.27029 -12.67754,12.08231 l -59.07049,45.44544 80.22247,-7.02238 c 1.96844,-14.62789 5.20921,-36.8519 3.02892,-42.546 -1.77402,-4.63308 -5.5907,-0.9043 -7.27721,-0.51937 z"
         style="fill:#ffd5d5;stroke:none;display:inline" />
      <path
         sodipodi:nodetypes="ccccc"
         inkscape:connector-curvature="0"
         id="path3754-1-61-1-7"
         d="m 322.45161,152.23107 c -2.06981,-1.46933 -1.67156,-5.52968 -4.22615,-7.44 -2.16746,-1.62083 -8.68842,5.95795 -8.68842,5.95795 -4.55902,6.23766 17.39739,22.13649 20.67981,12.66384 z"
         style="fill:#ffaaaa;stroke:none;display:inline" />
      <path
         sodipodi:nodetypes="cscscc"
         inkscape:connector-curvature="0"
         id="path6008"
         d="m 227.22003,200.99454 c -4.51432,62.11496 50.98801,102.09619 64.35989,99.03963 6.57456,-1.50283 7.64646,-7.2891 12.269,-17.8059 6.39507,-3.5434 42.36689,-32.84142 55.67273,-48.82483 6.53782,-7.85344 -4.2721,-10.54573 -11.53266,-8.12677 0.64537,-13.53391 -15.34101,-33.99398 -25.22362,-41.12194"
         style="fill:#ffd5d5;stroke:#000000;stroke-width:2;stroke-linecap:butt;stroke-linejoin:miter;stroke-opacity:1;display:inline" />
      <path
         sodipodi:nodetypes="csc"
         inkscape:connector-curvature="0"
         id="path3754-1-61-1"
         d="m 322.49967,152.20555 c -2.06981,-1.46933 -1.67156,-5.52968 -4.22615,-7.44 -2.16746,-1.62083 -10.09463,6.27029 -12.67754,12.08231"
         style="fill:none;stroke:#000000;stroke-width:2;stroke-linecap:butt;stroke-linejoin:miter;stroke-opacity:1;display:inline" />
      <path
         sodipodi:nodetypes="cccccc"
         inkscape:connector-curvature="0"
         id="path6512-5"
         d="m 234.08896,206.7829 c -10.12151,-5.32769 -13.10335,-16.62991 -12.60971,-24.61523 l -0.14196,-28.24884 57.18256,-23.22606 23.368,17.01276 c 3.52206,2.04505 8.37768,11.0773 7.69683,19.71713"
         style="fill:#ffd5d5;stroke:#000000;stroke-width:2;stroke-linecap:butt;stroke-linejoin:miter;stroke-opacity:1;display:inline" />
      <path
         sodipodi:nodetypes="cssc"
         inkscape:connector-curvature="0"
         id="path6508-2"
         d="m 270.33976,126.73893 c 8.89744,-4.37376 20.08138,-1.07941 26.82369,7.1137 4.78326,5.81255 7.72383,13.63507 3.34112,18.28427 -2.53841,2.6928 -13.26241,-10.66163 -15.2668,-11.77617"
         style="fill:#ffd5d5;stroke:#000000;stroke-width:2;stroke-linecap:butt;stroke-linejoin:miter;stroke-opacity:1;display:inline" />
      <path
         sodipodi:nodetypes="cssc"
         inkscape:connector-curvature="0"
         id="path6510-4"
         d="m 223.82802,145.92959 c -6.35626,2.58704 -9.40621,8.63844 -9.52262,17.5783 -0.16128,12.38417 5.69374,20.43376 9.35373,19.29173 2.41556,-0.75361 2.11991,-10.96834 3.43735,-13.35022"
         style="fill:#ffd5d5;stroke:#000000;stroke-width:2;stroke-linecap:butt;stroke-linejoin:miter;stroke-opacity:1;display:inline" />
      <path
         sodipodi:nodetypes="sssccs"
         style="fill:#ffaaaa;stroke:none;display:inline"
         d="m 283.4966,207.385 c -0.38022,-2.15656 -3.89427,-2.23682 -4.06682,-5.57894 -0.12433,-2.40776 1.16402,-3.84656 -0.67105,-5.87052 -2.26532,-2.49846 -9.69523,-0.7476 -9.69523,-0.7476 -6.26701,2.01827 4.23231,26.57759 9.78959,21.54348 0,0 5.39004,-5.11211 4.64351,-9.34642 z"
         id="path5089-8-7-0-8-2-7-4-2-8"
         inkscape:connector-curvature="0" />
      <path
         sodipodi:nodetypes="ssssss"
         inkscape:connector-curvature="0"
         id="path6516-5"
         d="m 256.28168,163.90485 c -4.9413,1.94399 -8.93544,6.24341 -8.84769,17.63619 0.0567,7.3638 4.40002,15.26456 11.32407,11.28045 5.15663,-2.96715 11.84775,-5.27471 17.52069,-6.22138 6.91283,-1.15358 10.94574,-8.82895 4.48992,-14.96154 -6.2985,-5.98314 -17.55955,-10.45908 -24.48699,-7.73372 z"
         style="fill:#ffaaaa;stroke:#000000;stroke-width:2;stroke-linecap:butt;stroke-linejoin:miter;stroke-opacity:1;display:inline" />
      <path
         sodipodi:nodetypes="cc"
         inkscape:connector-curvature="0"
         id="path6518-17"
         d="m 262.34364,157.44828 1.04081,-7.31463"
         style="fill:none;stroke:#000000;stroke-width:2;stroke-linecap:butt;stroke-linejoin:miter;stroke-opacity:1;display:inline" />
      <path
         sodipodi:nodetypes="sss"
         inkscape:connector-curvature="0"
         id="path6524-1"
         d="m 255.67,173.02473 c -1.16515,0.84575 -1.33804,11.09352 2.50728,13.37654 1.83114,1.08717 -1.44567,-14.14713 -2.50728,-13.37654 z"
         style="fill:#000000;stroke:#000000;stroke-width:2;stroke-linecap:butt;stroke-linejoin:miter;stroke-opacity:1;display:inline" />
      <path
         sodipodi:nodetypes="sss"
         inkscape:connector-curvature="0"
         id="path6526-1"
         d="m 261.92871,169.9395 c -1.00232,0.22785 10.2498,13.01601 10.46783,10.4012 0.47564,-5.70439 -9.1252,-10.70621 -10.46783,-10.4012 z"
         style="fill:#000000;stroke:#000000;stroke-width:2;stroke-linecap:butt;stroke-linejoin:miter;stroke-opacity:1;display:inline" />
      <path
         sodipodi:nodetypes="cc"
         inkscape:connector-curvature="0"
         id="path3314-52"
         d="m 244.02459,157.68606 5.12745,6.71824"
         style="fill:none;stroke:#000000;stroke-width:2;stroke-linecap:butt;stroke-linejoin:miter;stroke-opacity:1;display:inline" />
      <path
         style="fill:none;stroke:#000000;stroke-width:2;stroke-linecap:butt;stroke-linejoin:miter;stroke-opacity:1;display:inline"
         d="m 269.10651,195.24995 c -6.267,2.01827 4.23232,26.5776 9.78959,21.54348"
         id="path5111-7-1-7-7-7-14-5-2"
         inkscape:connector-curvature="0"
         sodipodi:nodetypes="cc" />
      <path
         sodipodi:nodetypes="csssc"
         style="fill:none;stroke:#000000;stroke-width:2;stroke-linecap:butt;stroke-linejoin:miter;stroke-opacity:1;display:inline"
         d="m 267.40564,236.96159 c 8.39883,-17.62679 16.88051,-25.28028 16.13397,-29.51458 -0.38022,-2.15657 -3.89426,-2.23681 -4.06682,-5.57894 -0.12432,-2.40776 1.16403,-3.84657 -0.67105,-5.87051 -2.26532,-2.49848 -19.92655,-0.72584 -27.99907,4.44648"
         id="path5089-8-7-0-8-2-7-4-2"
         inkscape:connector-curvature="0" />
      <path
         sodipodi:nodetypes="cc"
         inkscape:connector-curvature="0"
         id="path6506-8"
         d="m 221.452,156.03214 c 0.93116,-25.55086 35.41573,-40.67772 60.11847,-24.86077"
         style="fill:#ffd5d5;stroke:#000000;stroke-width:2;stroke-linecap:butt;stroke-linejoin:miter;stroke-opacity:1;display:inline" />
      <path
         style="fill:none;stroke:#000000;stroke-width:2;stroke-linecap:butt;stroke-linejoin:miter;stroke-opacity:1;display:inline"
         d="m 309.5851,150.7235 c -4.55902,6.23766 17.39739,22.13649 20.67981,12.66384"
         id="path5111-7-1-7-7-7-14-5-2-7"
         inkscape:connector-curvature="0"
         sodipodi:nodetypes="cc" />
      <path
         style="fill:#ffaaaa;stroke:none;display:inline"
         d="m 330.18595,163.33255 c 0,0 1.60508,-4.9357 -0.48803,-10.66242 -1.80439,-4.93679 -7.2384,2.58214 -10.81274,-0.34259 z"
         id="path5111-7-1-7-7-7-14-5-2-7-64"
         inkscape:connector-curvature="0"
         sodipodi:nodetypes="cscc" />
      <path
         sodipodi:nodetypes="csc"
         inkscape:connector-curvature="0"
         id="path18744"
         d="m 326.74796,195.27092 c 1.96844,-14.62789 5.12203,-36.81928 3.02892,-42.546 -1.80439,-4.93679 -7.2384,2.58214 -10.81274,-0.34259"
         style="fill:none;stroke:#000000;stroke-width:2;stroke-linecap:butt;stroke-linejoin:miter;stroke-opacity:1;display:inline" />
    </g>
    <path
       style="fill:#ff0000;stroke:none"
       d="m 72.462544,183.73282 c 3.878451,-0.97622 4.75801,4.40428 2.046926,11.66344 3.428375,-3.73019 5.969752,-3.2231 6.61469,1.91352 3.195179,-5.73247 5.171341,0.35479 7.402228,7.32003 -0.826394,-6.37375 1.942221,-15.21224 9.343258,-12.06088 -6.571831,-6.34374 -5.066242,-9.68098 -2.867646,-11.45025 -2.927965,-2.52387 -4.439822,-5.39029 -0.990124,-8.86788 -3.004443,-1.83088 -3.240109,-4.92323 -2.657738,-8.13393 -2.145629,2.13672 -3.418054,-4.75131 -2.276226,-11.7991 -3.052725,6.5561 -6.827482,7.78304 -9.692379,-1.83896 0.898229,9.18155 -1.218877,15.19727 -9.170776,11.06165 6.539064,5.2336 3.802797,10.981 -0.555603,12.12179 1.898961,2.71229 5.618233,7.6226 2.80339,10.07057 l 5.278421,-2.66174 c -1.548404,-7.26716 -0.04186,-14.58059 3.364958,-16.335 3.406818,-1.75443 7.423816,2.71453 8.972221,9.9817 1.548402,7.26716 0.04186,14.5806 -3.364956,16.33501 -3.406817,1.75441 -7.423822,-2.71456 -8.972223,-9.98171 z"
       id="path14113-2"
       inkscape:connector-curvature="0"
       sodipodi:nodetypes="ccccccccccccccssscc" />
    <g
       id="g8174"
       style="stroke-width:2">
      <path
         sodipodi:nodetypes="ccccccc"
         inkscape:connector-curvature="0"
         id="path5091-2-40-9-2-1-6-45"
         d="M 138.66534,95.723533 C 120.81671,96.806893 110.632,115.63329 115.7562,123.19177 l -4.00097,27.80342 0.90903,25.92106 45.13145,55.92397 59.23226,-88.07848 z"
         style="fill:#ffd5d5;stroke:#000000;stroke-width:2;stroke-linecap:butt;stroke-linejoin:miter;stroke-opacity:1;display:inline" />
      <path
         sodipodi:nodetypes="ccsc"
         inkscape:connector-curvature="0"
         id="path5144-5-7"
         d="m 118.37812,183.88879 c -5.68418,-1.16113 -9.76942,-2.03434 -16.4922,-1.39873 -5.00367,8.75139 -16.222608,7.1931 -19.771915,-2.02347 -4.518751,-11.73394 10.896644,-29.44062 32.170075,-31.199"
         style="fill:#ffd5d5;stroke:#000000;stroke-width:2;stroke-linecap:butt;stroke-linejoin:miter;stroke-opacity:1;display:inline" />
      <path
         sodipodi:nodetypes="csc"
         inkscape:connector-curvature="0"
         id="path7492"
         d="m 114.00714,171.63429 c -8.43737,40.18509 21.74234,67.79032 37.99148,75.88985 9.23956,4.60554 15.28628,-0.66322 14.96265,-13.83932"
         style="fill:#ffd5d5;stroke:#000000;stroke-width:2;stroke-linecap:butt;stroke-linejoin:miter;stroke-opacity:1;display:inline" />
      <path
         sodipodi:nodetypes="cscc"
         inkscape:connector-curvature="0"
         id="path3327-4-8-6-9-1-61"
         d="m 154.54526,233.56707 c 29.04964,3.80817 69.6281,-22.16966 86.70468,-41.95833 13.55306,-15.70555 1.81051,-23.90751 -6.58625,-21.91997 -2.43153,-12.97445 -8.81644,-24.84963 -17.72602,-30.70543"
         style="fill:#ffd5d5;stroke:#000000;stroke-width:2;stroke-linecap:butt;stroke-linejoin:miter;stroke-opacity:1;display:inline" />
      <path
         sodipodi:nodetypes="csc"
         inkscape:connector-curvature="0"
         id="path3431-2"
         d="m 127.08167,104.33452 c 16.00127,-17.972907 45.20326,-18.736807 64.51454,-4.476737 17.76885,13.121107 31.67418,36.073467 25.65762,46.141627"
         style="fill:#ffd5d5;stroke:#000000;stroke-width:2;stroke-linecap:butt;stroke-linejoin:miter;stroke-opacity:1;display:inline" />
      <path
         sodipodi:nodetypes="cc"
         inkscape:connector-curvature="0"
         id="path4041-7-8-3"
         d="m 116.95086,160.88601 c -11.48848,-14.05218 -6.82091,-33.56174 1.69971,-41.98351"
         style="fill:#ffd5d5;stroke:#000000;stroke-width:2;stroke-linecap:butt;stroke-linejoin:miter;stroke-opacity:1;display:inline" />
      <path
         inkscape:connector-curvature="0"
         id="path5095-5-4-8-5-1-5-2"
         d="m 125.90987,118.98858 0.40964,5.03325"
         style="fill:none;stroke:#000000;stroke-width:2;stroke-linecap:butt;stroke-linejoin:miter;stroke-opacity:1;display:inline"
         sodipodi:nodetypes="cc" />
      <path
         inkscape:connector-curvature="0"
         id="path5097-5-8-8-5-1-7-21"
         d="m 142.51175,123.42561 -4.89253,4.7456"
         style="fill:none;stroke:#000000;stroke-width:2;stroke-linecap:butt;stroke-linejoin:miter;stroke-opacity:1;display:inline"
         sodipodi:nodetypes="cc" />
      <path
         sodipodi:nodetypes="csc"
         inkscape:connector-curvature="0"
         id="path5099-1-8-2-7-5-6-68"
         d="m 183.26981,100.43018 c 28.86642,5.66985 25.13466,36.52568 16.36955,42.84349 -7.33867,5.28964 -19.36949,-11.07413 -27.69139,-16.99711"
         style="fill:none;stroke:#000000;stroke-width:2;stroke-linecap:butt;stroke-linejoin:miter;stroke-opacity:1;display:inline" />
      <path
         sodipodi:nodetypes="ssssss"
         inkscape:connector-curvature="0"
         id="path5101-7-2-4-1-2-1-57"
         d="m 126.57049,128.83061 c 6.25661,1.1353 12.5135,7.56612 15.99421,13.85825 7.23898,13.08601 5.04957,20.05281 -2.70463,17.6093 -5.17565,-1.63089 -11.47609,-4.47958 -16.32415,-4.73602 -5.94645,-0.31462 -6.64259,-9.87558 -5.89032,-16.34943 0.70131,-6.03534 4.03401,-11.26958 8.92489,-10.3821 z"
         style="fill:#ffaaaa;stroke:#000000;stroke-width:2;stroke-linecap:butt;stroke-linejoin:miter;stroke-opacity:1;display:inline" />
      <path
         inkscape:connector-curvature="0"
         id="path5105-1-4-55-1-28-76-8-61"
         d="m 137.43759,151.98307 c -0.91072,2.33458 -7.57485,-14.01622 -6.33858,-14.08103 1.34685,-0.0706 8.45807,8.64783 6.33858,14.08103 z"
         style="fill:#000000;stroke:#000000;stroke-width:2;display:inline"
         sodipodi:nodetypes="sss" />
      <path
         inkscape:connector-curvature="0"
         id="path5107-1-5-1-5-1-9-89"
         d="m 124.44969,136.87486 c 1.3782,-0.60778 2.79501,13.55568 1.35161,12.63883 -3.41901,-2.17179 -2.0597,-12.32657 -1.35161,-12.63883 z"
         style="fill:#000000;stroke:#000000;stroke-width:2;display:inline"
         sodipodi:nodetypes="sss" />
      <path
         sodipodi:nodetypes="csccsc"
         inkscape:connector-curvature="0"
         id="path8094-4"
         d="m 205.10404,197.68263 c -2.84192,-1.44735 -5.4045,2.24565 -8.50579,-0.22616 -2.92449,-2.3309 -2.37942,-10.09926 -2.37942,-10.09926 2.28002,-6.42638 27.62397,4.59477 20.49819,12.45332 -1.64622,0.76981 -6.07476,2.00177 -8.12661,0.83141 -1.22827,-0.70059 -1.48637,-2.95931 -1.48637,-2.95931 z"
         style="fill:#ffaaaa;stroke:none;display:inline" />
      <path
         sodipodi:nodetypes="ccc"
         inkscape:connector-curvature="0"
         id="path8094-48"
         d="m 205.16381,197.72435 c -2.84192,-1.44735 -5.47414,2.28297 -8.55327,-0.24024 7.21357,-6.48594 8.55327,0.24024 8.55327,0.24024 z"
         style="fill:#ff8080;stroke:none;display:inline" />
      <path
         style="fill:none;stroke:#000000;stroke-width:2;stroke-linecap:butt;stroke-linejoin:miter;stroke-opacity:1;display:inline"
         d="m 198.50068,173.77332 c -4.95617,5.83495 -5.84648,20.44729 -1.91696,23.68271 3.0616,2.5208 5.69382,-1.20952 8.53574,0.23783"
         id="path8094"
         inkscape:connector-curvature="0"
         sodipodi:nodetypes="csc" />
      <path
         style="fill:none;stroke:#000000;stroke-width:2;stroke-linecap:butt;stroke-linejoin:miter;stroke-opacity:1;display:inline"
         d="m 195.56874,197.55172 c 10.69846,-7.18706 8.35259,1.73863 11.01933,3.11921 3.52145,1.82306 24.34502,-4.73747 27.02486,-20.68568 1.83396,-10.91423 -3.63801,-24.12416 -13.92313,-29.93242"
         id="path5144-5-2-1-1"
         inkscape:connector-curvature="0"
         sodipodi:nodetypes="cssc" />
      <path
         sodipodi:nodetypes="cc"
         inkscape:connector-curvature="0"
         id="path8094-7"
         d="m 194.2043,187.40703 c 2.28002,-6.42638 27.61839,4.53842 20.49261,12.39697"
         style="fill:none;stroke:#000000;stroke-width:2;stroke-linecap:butt;stroke-linejoin:miter;stroke-opacity:1;display:inline" />
    </g>
    <path
       sodipodi:nodetypes="sss"
       inkscape:connector-curvature="0"
       id="path6508-2-6"
       d="m 303.37333,279.79589 c -23.70383,4.20173 -26.43174,-26.61784 1.43756,-32.18401 28.06691,-5.60564 32.12274,26.23512 -1.43756,32.18401 z"
       style="fill:#ffd5d5;stroke:#000000;stroke-width:2;stroke-linecap:butt;stroke-linejoin:miter;stroke-opacity:1;display:inline" />
  </g>
  <g
     inkscape:groupmode="layer"
     id="layer4"
     inkscape:label="字幕"
     sodipodi:insensitive="true">
    <text
       xml:space="preserve"
       style="font-size:70.34015656px;font-style:normal;font-weight:normal;line-height:125%;letter-spacing:0px;word-spacing:0px;writing-mode:lr-tb;fill:#000000;fill-opacity:1;stroke:none;font-family:Sans"
       x="82.628853"
       y="70.930664"
       id="text6768"
       sodipodi:linespacing="125%"><tspan
         sodipodi:role="line"
         id="tspan6770"
         x="82.628853"
         y="70.930664"
         style="font-weight:bold;-inkscape-font-specification:Sans Bold">乱闘中</tspan></text>
  </g>
  <g
     inkscape:groupmode="layer"
     id="layer2"
     inkscape:label="枠面"
     sodipodi:insensitive="true">
    <path
       style="fill:#ffffff;stroke:none;display:inline"
       d="m 0,0 0,320 370,0 0,-320 -10,10 0,300 -350,0 0,-300 350,0 10,-10 z"
       id="path21072"
       inkscape:connector-curvature="0"
       sodipodi:nodetypes="ccccccccccc" />
  </g>
</svg>
