<?xml version="1.0" encoding="UTF-8" standalone="no"?>
<svg
   xmlns:dc="http://purl.org/dc/elements/1.1/"
   xmlns:cc="http://creativecommons.org/ns#"
   xmlns:rdf="http://www.w3.org/1999/02/22-rdf-syntax-ns#"
   xmlns:svg="http://www.w3.org/2000/svg"
   xmlns="http://www.w3.org/2000/svg"
   xmlns:xlink="http://www.w3.org/1999/xlink"
   xmlns:sodipodi="http://sodipodi.sourceforge.net/DTD/sodipodi-0.dtd"
   xmlns:inkscape="http://www.inkscape.org/namespaces/inkscape"
   width="370"
   height="320"
   id="svg3172"
   version="1.1"
   inkscape:version="1.0.2-2 (e86c870879, 2021-01-15)"
   sodipodi:docname="[12]委託.svg"
   inkscape:export-filename="C:\Users\zhen-\Desktop\資料\臨時\TAKEDA2\[12]委託.png"
   inkscape:export-xdpi="96"
   inkscape:export-ydpi="96">
  <defs
     id="defs3174">
    <linearGradient
       id="linearGradient17681">
      <stop
         style="stop-color:#000000;stop-opacity:1;"
         offset="0"
         id="stop17683" />
      <stop
         style="stop-color:#000000;stop-opacity:0;"
         offset="1"
         id="stop17685" />
    </linearGradient>
    <radialGradient
       r="32.862717"
       fy="43.8447"
       fx="235.23683"
       cy="43.8447"
       cx="235.23683"
       gradientTransform="matrix(1.9859687,-2.6914046,-1.081266,-0.79785862,-218.35119,957.91148)"
       gradientUnits="userSpaceOnUse"
       id="radialGradient5709"
       xlink:href="#linearGradient17681"
       inkscape:collect="always" />
    <radialGradient
       r="25.24794"
       fy="85.957077"
       fx="331.91705"
       cy="85.957077"
       cx="331.91705"
       gradientTransform="matrix(-0.80551213,0.59257927,2.1645331,2.9423198,417.01406,-171.32997)"
       gradientUnits="userSpaceOnUse"
       id="radialGradient5712"
       xlink:href="#linearGradient17681"
       inkscape:collect="always" />
    <radialGradient
       r="15.439415"
       fy="203.38908"
       fx="172.8676"
       cy="203.38908"
       cx="172.8676"
       gradientTransform="matrix(-0.54696194,-0.83715746,-11.601169,7.5796947,2552.3076,-1089.854)"
       gradientUnits="userSpaceOnUse"
       id="radialGradient5718"
       xlink:href="#linearGradient17681"
       inkscape:collect="always" />
    <radialGradient
       r="26.773195"
       fy="84.758606"
       fx="330.54651"
       cy="84.758606"
       cx="330.54651"
       gradientTransform="matrix(-0.84000928,0.54257204,2.1245465,3.28922,432.0335,-169.95792)"
       gradientUnits="userSpaceOnUse"
       id="radialGradient5736"
       xlink:href="#linearGradient17681"
       inkscape:collect="always" />
    <radialGradient
       r="15.64126"
       fy="55.275803"
       fx="264.07999"
       cy="55.275803"
       cx="264.07999"
       gradientTransform="matrix(3.7640487,-5.7587421,-2.2159333,-1.4483859,-661.5243,1890.0186)"
       gradientUnits="userSpaceOnUse"
       id="radialGradient5742"
       xlink:href="#linearGradient17681"
       inkscape:collect="always" />
    <radialGradient
       r="10.90176"
       fy="57.204533"
       fx="284.74677"
       cy="57.204533"
       cx="284.74677"
       gradientTransform="matrix(-0.97064327,-0.24052368,-2.0236018,8.1663284,641.44553,-110.47111)"
       gradientUnits="userSpaceOnUse"
       id="radialGradient5745"
       xlink:href="#linearGradient17681"
       inkscape:collect="always" />
    <radialGradient
       r="17.8125"
       fy="73.007095"
       fx="311.89737"
       cy="73.007095"
       cx="311.89737"
       gradientTransform="matrix(-1.3641258,0.66150164,2.5042444,5.164167,561.55221,-295.56974)"
       gradientUnits="userSpaceOnUse"
       id="radialGradient5793"
       xlink:href="#linearGradient17681"
       inkscape:collect="always" />
    <radialGradient
       r="4.25"
       fy="58.261681"
       fx="618.11713"
       cy="58.261681"
       cx="618.11713"
       gradientTransform="matrix(-0.26740986,-0.96358289,-52.198165,14.48584,3114.2433,73.674864)"
       gradientUnits="userSpaceOnUse"
       id="radialGradient5796"
       xlink:href="#linearGradient17681"
       inkscape:collect="always" />
  </defs>
  <sodipodi:namedview
     id="base"
     pagecolor="#ffffff"
     bordercolor="#666666"
     borderopacity="1.0"
     inkscape:pageopacity="0.0"
     inkscape:pageshadow="2"
     inkscape:zoom="3.0652721"
     inkscape:cx="129.46305"
     inkscape:cy="100.42287"
     inkscape:document-units="px"
     inkscape:current-layer="layer3"
     showgrid="false"
     inkscape:window-width="1681"
     inkscape:window-height="1033"
     inkscape:window-x="98"
     inkscape:window-y="0"
     inkscape:window-maximized="0"
     inkscape:snap-global="true"
     showguides="true"
     inkscape:document-rotation="0" />
  <metadata
     id="metadata3177">
    <rdf:RDF>
      <cc:Work
         rdf:about="">
        <dc:format>image/svg+xml</dc:format>
        <dc:type
           rdf:resource="http://purl.org/dc/dcmitype/StillImage" />
        <dc:title />
      </cc:Work>
    </rdf:RDF>
  </metadata>
  <g
     inkscape:label="補助線"
     inkscape:groupmode="layer"
     id="layer1"
     transform="translate(0,-732.36218)"
     sodipodi:insensitive="true"
     style="display:none">
    <path
       style="display:inline;fill:none;stroke:#0000ff;stroke-width:1px;stroke-linecap:butt;stroke-linejoin:miter;stroke-opacity:1"
       d="M 10,1042.3622 360,742.36211"
       id="path3025"
       inkscape:connector-curvature="0"
       sodipodi:nodetypes="cc" />
    <path
       style="display:inline;fill:none;stroke:#0000ff;stroke-width:1px;stroke-linecap:butt;stroke-linejoin:miter;stroke-opacity:1"
       d="M 10,742.36211 360,1042.3622"
       id="path3027"
       inkscape:connector-curvature="0"
       sodipodi:nodetypes="cc" />
    <path
       style="display:inline;fill:none;stroke:#ff0000;stroke-width:1px;stroke-linecap:butt;stroke-linejoin:miter;stroke-opacity:1"
       d="M 10,732.36211 V 1052.3622"
       id="path3006"
       inkscape:connector-curvature="0"
       sodipodi:nodetypes="cc" />
    <path
       style="display:inline;fill:none;stroke:#ff0000;stroke-width:1px;stroke-linecap:butt;stroke-linejoin:miter;stroke-opacity:1"
       d="M 360,732.36211 V 1052.3622"
       id="path3010"
       inkscape:connector-curvature="0"
       sodipodi:nodetypes="cc" />
    <path
       style="display:inline;fill:none;stroke:#ff0000;stroke-width:1px;stroke-linecap:butt;stroke-linejoin:miter;stroke-opacity:1"
       d="m 0,742.36208 370,3e-5"
       id="path3016"
       inkscape:connector-curvature="0" />
    <path
       style="display:inline;fill:none;stroke:#ff0000;stroke-width:1px;stroke-linecap:butt;stroke-linejoin:miter;stroke-opacity:1"
       d="M 0,1042.3622 H 370"
       id="path3018"
       inkscape:connector-curvature="0"
       sodipodi:nodetypes="cc" />
  </g>
  <g
     inkscape:groupmode="layer"
     id="layer12"
     inkscape:label="作業"
     style="display:inline">
    <flowRoot
       xml:space="preserve"
       id="flowRoot2061"
       style="font-style:normal;font-variant:normal;font-weight:normal;font-stretch:normal;font-size:21.3333px;line-height:1;font-family:'UD Digi Kyokasho NP-R';-inkscape-font-specification:'UD Digi Kyokasho NP-R';letter-spacing:0px;word-spacing:0px;fill:#000000;fill-opacity:1;stroke:none"><flowRegion
         id="flowRegion2063"><rect
           id="rect2065"
           width="199.56454"
           height="613.58649"
           x="-219.42171"
           y="-55.300476" /></flowRegion><flowPara
         id="flowPara2067" /></flowRoot>
    <path
       style="fill:#ffffff;fill-opacity:0.75;stroke:#808080;stroke-width:1px;stroke-opacity:1"
       d="m 972.7268,337.65084 v 0 l -3.069,-17.447 7.119,-0.329 z"
       id="path2" />
    <path
       style="fill:#ffffff;fill-opacity:0.75;stroke:#808080;stroke-width:1px;stroke-opacity:1"
       d="m 976.7768,319.87484 -7.119,0.329 -3.105,-17.653 14.281,-0.479 z"
       id="path4" />
    <path
       style="fill:#ffffff;fill-opacity:0.75;stroke:#808080;stroke-width:1px;stroke-opacity:1"
       d="m 980.8338,302.07184 -14.281,0.479 -3.141,-17.862 21.485,-0.446 z"
       id="path6" />
    <path
       style="fill:#ffffff;fill-opacity:0.75;stroke:#808080;stroke-width:1px;stroke-opacity:1"
       d="m 1002.2848,373.73284 -62.717,5.409 4.372,-195.625 64.733,3.252 z"
       id="path8" />
    <path
       style="fill:#ffffff;fill-opacity:0.75;stroke:#808080;stroke-width:1px;stroke-opacity:1"
       d="m 984.8968,284.24284 -21.485,0.446 -3.179,-18.075 28.733,-0.228 z"
       id="path10" />
    <path
       style="fill:#ffffff;fill-opacity:0.75;stroke:#808080;stroke-width:1px;stroke-opacity:1"
       d="m 988.9658,266.38584 -28.733,0.228 -3.217,-18.292 36.026,0.179 z"
       id="path12" />
    <path
       style="fill:#ffffff;fill-opacity:0.75;stroke:#808080;stroke-width:1px;stroke-opacity:1"
       d="m 993.0418,248.50084 -36.026,-0.179 -3.256,-18.513 43.363,0.781 z"
       id="path14" />
    <path
       style="fill:#ffffff;fill-opacity:0.75;stroke:#808080;stroke-width:1px;stroke-opacity:1"
       d="m 997.1228,230.58984 -43.363,-0.781 -3.295,-18.737 50.746,1.579 z"
       id="path16" />
    <path
       style="fill:#ffffff;fill-opacity:0.75;stroke:#808080;stroke-width:1px;stroke-opacity:1"
       d="m 1001.2108,212.65084 -50.746,-1.579 -3.336,-18.966 58.176,2.579 z"
       id="path18" />
    <path
       style="fill:#ffffff;fill-opacity:0.75;stroke:#808080;stroke-width:1px;stroke-opacity:1"
       d="m 1008.6728,186.76884 -64.733,-3.252 0.38,-16.956 64.906,4.03 z"
       id="path20" />
    <path
       style="fill:#ffffff;fill-opacity:0.75;stroke:#808080;stroke-width:1px;stroke-opacity:1"
       d="m 1014.2298,185.92084 -65.166,-3.327 0.399,-17.143 65.342,4.123 z"
       id="path22" />
    <path
       style="fill:#ffffff;fill-opacity:0.75;stroke:#808080;stroke-width:1px;stroke-opacity:1"
       d="m 892.6898,342.34784 v 0 l -3.741,-18.421 7.958,-0.367 z"
       id="path24" />
    <path
       style="fill:#ffffff;fill-opacity:0.75;stroke:#808080;stroke-width:1px;stroke-opacity:1"
       d="m 896.9068,323.55984 -7.958,0.367 -3.787,-18.65 15.97,-0.535 z"
       id="path26" />
    <path
       style="fill:#ffffff;fill-opacity:0.75;stroke:#808080;stroke-width:1px;stroke-opacity:1"
       d="m 901.1318,304.74184 -15.97,0.535 -3.834,-18.884 24.035,-0.499 z"
       id="path28" />
    <path
       style="fill:#ffffff;fill-opacity:0.75;stroke:#808080;stroke-width:1px;stroke-opacity:1"
       d="m 926.3298,380.28284 -70.03,6.039 1.374,-207.138 72.577,3.646 z"
       id="path30" />
    <path
       style="fill:#ffffff;fill-opacity:0.75;stroke:#808080;stroke-width:1px;stroke-opacity:1"
       d="m 905.3628,285.89384 -24.035,0.499 -3.883,-19.122 32.157,-0.255 z"
       id="path32" />
    <path
       style="fill:#ffffff;fill-opacity:0.75;stroke:#808080;stroke-width:1px;stroke-opacity:1"
       d="m 909.6018,267.01584 -32.157,0.255 -3.932,-19.365 40.334,0.201 z"
       id="path34" />
    <path
       style="fill:#ffffff;fill-opacity:0.75;stroke:#808080;stroke-width:1px;stroke-opacity:1"
       d="m 913.8468,248.10684 -40.334,-0.201 -3.983,-19.612 48.569,0.874 z"
       id="path36" />
    <path
       style="fill:#ffffff;fill-opacity:0.75;stroke:#808080;stroke-width:1px;stroke-opacity:1"
       d="m 1041.7538,381.49484 -65.649,6.212 3.032,-103.482 66.729,-1.38 z"
       id="path38" />
    <path
       style="fill:#ffffff;fill-opacity:0.75;stroke:#808080;stroke-width:1px;stroke-opacity:1"
       d="m 918.0988,229.16784 -48.569,-0.874 -4.034,-19.865 56.861,1.769 z"
       id="path40" />
    <path
       style="fill:#ffffff;fill-opacity:0.75;stroke:#808080;stroke-width:1px;stroke-opacity:1"
       d="m 922.3568,210.19784 -56.861,-1.769 -4.085,-20.122 65.212,2.89 z"
       id="path42" />
    <path
       style="fill:#ffffff;fill-opacity:0.75;stroke:#808080;stroke-width:1px;stroke-opacity:1"
       d="m 1052.1248,283.14084 -13.014,0.273 0.175,-4.311 13.022,-0.231 z"
       id="path44" />
    <path
       style="fill:#ffffff;fill-opacity:0.75;stroke:#808080;stroke-width:1px;stroke-opacity:1"
       d="m 930.2508,182.82984 -72.577,-3.646 0.12,-17.996 72.797,4.52 z"
       id="path46" />
    <path
       style="fill:#ffffff;fill-opacity:0.75;stroke:#808080;stroke-width:1px;stroke-opacity:1"
       d="m 935.2738,181.88984 -73.152,-3.735 0.135,-18.207 73.377,4.63 z"
       id="path48" />
    <path
       style="fill:#ffffff;fill-opacity:0.75;stroke:#808080;stroke-width:1px;stroke-opacity:1"
       d="m 1065.2118,283.45984 -13.177,0.282 0.188,-4.409 13.187,-0.239 z"
       id="path50" />
    <path
       style="fill:#ffffff;fill-opacity:0.75;stroke:#808080;stroke-width:1px;stroke-opacity:1"
       d="m 802.9608,347.61284 v 0 l -4.558,-19.508 8.955,-0.413 z"
       id="path52" />
    <path
       style="fill:#ffffff;fill-opacity:0.75;stroke:#808080;stroke-width:1px;stroke-opacity:1"
       d="m 807.3578,327.69184 -8.955,0.413 -4.618,-19.767 17.977,-0.602 z"
       id="path54" />
    <path
       style="fill:#ffffff;fill-opacity:0.75;stroke:#808080;stroke-width:1px;stroke-opacity:1"
       d="m 811.7618,307.73584 -17.977,0.602 -4.68,-20.03 27.069,-0.562 z"
       id="path56" />
    <path
       style="fill:#ffffff;fill-opacity:0.75;stroke:#808080;stroke-width:1px;stroke-opacity:1"
       d="m 841.4738,387.60084 -78.699,6.787 -2.437,-220.093 81.937,4.116 z"
       id="path58" />
    <path
       style="fill:#ffffff;fill-opacity:0.75;stroke:#808080;stroke-width:1px;stroke-opacity:1"
       d="m 816.1738,287.74584 -27.069,0.562 -4.742,-20.298 36.231,-0.287 z"
       id="path60" />
    <path
       style="fill:#ffffff;fill-opacity:0.75;stroke:#808080;stroke-width:1px;stroke-opacity:1"
       d="m 820.5938,267.72284 -36.231,0.287 -4.806,-20.572 45.464,0.227 z"
       id="path62" />
    <path
       style="fill:#ffffff;fill-opacity:0.75;stroke:#808080;stroke-width:1px;stroke-opacity:1"
       d="m 825.0208,247.66484 -45.464,-0.227 -4.872,-20.851 54.771,0.985 z"
       id="path64" />
    <path
       style="fill:#ffffff;fill-opacity:0.75;stroke:#808080;stroke-width:1px;stroke-opacity:1"
       d="m 962.1908,389.02284 -73.938,6.996 1.396,-109.945 75.33,-1.557 z"
       id="path66" />
    <path
       style="fill:#ffffff;fill-opacity:0.75;stroke:#808080;stroke-width:1px;stroke-opacity:1"
       d="m 829.4558,227.57184 -54.771,-0.985 -4.938,-21.137 64.151,1.996 z"
       id="path68" />
    <path
       style="fill:#ffffff;fill-opacity:0.75;stroke:#808080;stroke-width:1px;stroke-opacity:1"
       d="m 833.8978,207.44584 -64.151,-1.996 -5.007,-21.428 73.608,3.263 z"
       id="path70" />
    <path
       style="fill:#ffffff;fill-opacity:0.75;stroke:#808080;stroke-width:1px;stroke-opacity:1"
       d="m 1080.5558,389.12584 -68.289,7.058 4.013,-110.847 69.445,-1.531 z"
       id="path72" />
    <path
       style="fill:#ffffff;fill-opacity:0.75;stroke:#808080;stroke-width:1px;stroke-opacity:1"
       d="m 970.0018,284.86484 -14.689,0.308 0.114,-4.58 14.7,-0.261 z"
       id="path74" />
    <path
       style="fill:#ffffff;fill-opacity:0.75;stroke:#808080;stroke-width:1px;stroke-opacity:1"
       d="m 842.2748,178.41084 -81.937,-4.116 -0.212,-19.172 82.219,5.105 z"
       id="path76" />
    <path
       style="fill:#ffffff;fill-opacity:0.75;stroke:#808080;stroke-width:1px;stroke-opacity:1"
       d="m 846.5898,177.36184 -82.703,-4.222 -0.203,-19.411 82.991,5.236 z"
       id="path78" />
    <path
       style="fill:#ffffff;fill-opacity:0.75;stroke:#808080;stroke-width:1px;stroke-opacity:1"
       d="m 981.9588,285.24484 -14.916,0.32 0.127,-4.691 14.927,-0.271 z"
       id="path80" />
    <path
       style="fill:#ffffff;fill-opacity:0.75;stroke:#808080;stroke-width:1px;stroke-opacity:1"
       d="m 872.5258,397.50684 -83.902,7.938 -0.726,-117.268 85.709,-1.771 z"
       id="path82" />
    <path
       style="fill:#ffffff;fill-opacity:0.75;stroke:#808080;stroke-width:1px;stroke-opacity:1"
       d="m 997.7348,397.68584 -77.572,8.016 2.222,-118.295 79.098,-1.744 z"
       id="path84" />
    <path
       style="fill:#ffffff;fill-opacity:0.75;stroke:#808080;stroke-width:1px;stroke-opacity:1"
       d="m 877.0048,286.81684 -16.71,0.35 0.036,-4.885 16.724,-0.297 z"
       id="path86" />
    <path
       style="fill:#ffffff;fill-opacity:0.75;stroke:#808080;stroke-width:1px;stroke-opacity:1"
       d="m 887.4008,287.27184 -17.022,0.365 0.046,-5.011 17.037,-0.309 z"
       id="path88" />
    <path
       style="fill:#ffffff;fill-opacity:0.75;stroke:#808080;stroke-width:1px;stroke-opacity:1"
       d="m 903.5878,407.41484 -88.883,9.186 -0.158,-126.816 90.913,-2.004 z"
       id="path90" />
    <text
       xml:space="preserve"
       style="font-size:15px;line-height:1;font-family:'UD Digi Kyokasho NP-R';fill:#000000;fill-opacity:1;stroke:none"
       x="589.60443"
       y="4.2204676"
       id="text100"><tspan
         sodipodi:role="line"
         x="589.60443"
         y="4.2204676"
         id="tspan92">F: 700</tspan><tspan
         sodipodi:role="line"
         x="589.60443"
         y="19.220467"
         id="tspan94">R: 2</tspan><tspan
         sodipodi:role="line"
         x="589.60443"
         y="34.220467"
         id="tspan96">V: 74</tspan><tspan
         sodipodi:role="line"
         x="589.60443"
         y="49.220467"
         id="tspan98">L: -25</tspan></text>
  </g>
  <g
     inkscape:groupmode="layer"
     id="layer3"
     inkscape:label="豚"
     style="display:inline"
     sodipodi:insensitive="true">
    <ellipse
       style="opacity:0.5;fill:#000000;stroke:none;stroke-width:8;stroke-linecap:round;stroke-linejoin:round"
       id="path237"
       cx="121.03329"
       cy="289.04446"
       rx="84.494949"
       ry="19.57412" />
    <path
       style="display:inline;fill:#ffd5d5;stroke:#000000;stroke-width:2;stroke-linecap:round;stroke-linejoin:round;stroke-opacity:1"
       d="m 163.29308,247.5402 c 14.31815,6.75132 22.47433,16.83899 2.59554,23.41494 C 130.53078,282.6516 93.507374,286.84023 68.194174,270.63735 54.115628,261.62572 37.246406,242.18731 55.14865,196.37199"
       id="path109"
       sodipodi:nodetypes="cssc" />
    <path
       style="display:inline;fill:#ffd5d5;stroke:#000000;stroke-width:2;stroke-linecap:round;stroke-linejoin:round;stroke-opacity:1"
       d="m 151.78711,195.32898 c 16.24025,21.08367 21.20037,38.13186 13.1143,54.75581 -11.54548,23.73606 -37.61425,38.35053 -66.844464,51.6366 -13.248782,6.022 -19.398872,-13.8769 -7.224812,-28.27728"
       id="path17261-4"
       sodipodi:nodetypes="cssc" />
    <path
       inkscape:connector-curvature="0"
       id="path17261-5-7"
       d="m 150.74709,216.90577 c 9.82339,-0.99739 19.02223,-11.70669 29.1046,-13.4006 9.06599,-1.52315 -3.44028,-25.51495 -52.23572,-23.05412"
       style="display:inline;fill:#ffd5d5;stroke:#000000;stroke-width:2;stroke-linecap:round;stroke-linejoin:round;stroke-opacity:1"
       sodipodi:nodetypes="csc" />
    <path
       style="display:inline;fill:#ffd5d5;stroke:none;stroke-width:2;stroke-linecap:round;stroke-linejoin:round;stroke-opacity:1"
       d="m 60.370255,185.82611 66.480065,-47.21091 13.15152,16.67713 5.18141,24.1519 5.09545,28.50272 -11.32613,43.59546 -69.489846,-4.94838 z"
       id="path17408-1-7"
       inkscape:connector-curvature="0"
       sodipodi:nodetypes="cccccccc" />
    <g
       id="g26409"
       style="stroke-width:2.25443;stroke-linecap:round;stroke-linejoin:round"
       transform="matrix(-0.88714194,0,0,0.88714194,284.1007,-14.569858)">
      <path
         style="display:inline;fill:#ffd5d5;stroke:#000000;stroke-width:2.25443;stroke-linecap:round;stroke-linejoin:round;stroke-opacity:1"
         d="m 260.64859,221.5104 c 32.10034,31.12868 5.70136,61.56351 -8.48621,64.56909 -15.58273,3.30114 -42.2348,-3.57402 -55.17637,-8.95637 -12.20508,-5.07606 6.9015,-23.22788 23.11099,-17.96434"
         id="path26349"
         inkscape:connector-curvature="0"
         sodipodi:nodetypes="cssc" />
    </g>
    <path
       style="display:inline;fill:#ffd5d5;stroke:#000000;stroke-width:2;stroke-linecap:round;stroke-linejoin:round;stroke-opacity:1"
       d="m 122.59917,133.83527 c 12.53053,2.18306 21.68183,15.59496 19.39211,26.17835"
       id="path17396-1"
       inkscape:connector-curvature="0"
       sodipodi:nodetypes="cc" />
    <path
       style="display:inline;fill:#ffd5d5;stroke:#000000;stroke-width:2;stroke-linecap:round;stroke-linejoin:round;stroke-opacity:1"
       d="m 138.99111,153.81238 c 8.59071,8.99526 14.12115,24.51936 5.11679,37.71813"
       id="path17390-8"
       inkscape:connector-curvature="0"
       sodipodi:nodetypes="cc" />
    <path
       sodipodi:nodetypes="csc"
       inkscape:connector-curvature="0"
       id="path5977-8"
       d="m 131.06418,140.67121 c -14.61631,-17.69493 -47.635346,-16.82953 -64.674016,5.82693 -13.760177,18.297 -22.004743,42.55469 -12.510258,48.22352"
       style="display:inline;fill:#ffd5d5;stroke:#000000;stroke-width:2;stroke-linecap:round;stroke-linejoin:round;stroke-opacity:1" />
    <path
       style="display:inline;fill:#ffaaaa;stroke:#000000;stroke-width:2;stroke-linecap:round;stroke-linejoin:round;stroke-opacity:1"
       d="m 123.71995,164.18323 c 5.46524,-0.88859 10.99121,3.28461 12.65016,9.31637 1.76082,6.40212 2.4233,14.61484 -3.6398,16.36941 -4.98464,1.44247 -15.11834,5.06568 -21.55069,6.6495 -5.73526,1.41219 -8.15669,-5.7349 -5.4317,-12.96853 2.90395,-7.7087 10.20009,-18.10314 17.97203,-19.36675 z"
       id="path17394-2"
       inkscape:connector-curvature="0"
       sodipodi:nodetypes="ssssss" />
    <path
       style="display:inline;fill:#ffd5d5;stroke:#000000;stroke-width:2;stroke-linecap:round;stroke-linejoin:round;stroke-opacity:1"
       d="m 79.190414,137.30704 c -28.863068,7.86829 -27.753771,43.35467 -14.02003,47.82037 3.76488,1.2242 10.8795,-9.98112 19.47755,-21.53965"
       id="path17398-4"
       inkscape:connector-curvature="0"
       sodipodi:nodetypes="csc" />
    <path
       style="display:inline;fill:none;stroke:#000000;stroke-width:2;stroke-linecap:round;stroke-linejoin:round;stroke-opacity:1"
       d="m 125.98712,154.88296 -0.41663,4.01494"
       id="path17404-5"
       inkscape:connector-curvature="0"
       sodipodi:nodetypes="cc" />
    <path
       style="display:inline;fill:none;stroke:#000000;stroke-width:2;stroke-linecap:round;stroke-linejoin:round;stroke-opacity:1"
       d="m 111.08462,163.28511 -2.8982,-2.86139"
       id="path17406-5"
       inkscape:connector-curvature="0"
       sodipodi:nodetypes="cc" />
    <path
       style="display:inline;fill:#000000;stroke:#000000;stroke-width:2;stroke-linecap:round;stroke-linejoin:round;stroke-opacity:1"
       d="m 120.33385,172.64684 c -2.36136,0.62554 -8.88043,10.26739 -5.413,14.51135 1.5438,1.88949 6.85929,-14.89447 5.413,-14.51135 z"
       id="path17408-1"
       inkscape:connector-curvature="0"
       sodipodi:nodetypes="sss" />
    <path
       style="display:inline;fill:#000000;stroke:#000000;stroke-width:2;stroke-linecap:round;stroke-linejoin:round;stroke-opacity:1"
       d="m 126.73127,170.66719 c -1.2795,-0.0264 -0.55228,14.87112 1.19614,13.19407 3.00552,-2.88283 0.95458,-13.14967 -1.19614,-13.19407 z"
       id="path17410-7"
       inkscape:connector-curvature="0"
       sodipodi:nodetypes="sss" />
  </g>
  <g
     inkscape:groupmode="layer"
     id="layer4"
     inkscape:label="吹き出し"
     sodipodi:insensitive="true">
    <path
       style="display:inline;fill:#fefefe;fill-opacity:1;stroke:#000000;stroke-width:2;stroke-linecap:round;stroke-linejoin:round"
       d="m 55.834719,58.165168 c 0,19.637908 31.445111,36.411746 75.771161,43.082112 7.30452,1.09923 16.54585,8.08765 10.93935,18.54884 17.28091,-5.77247 24.94431,-15.46878 31.66442,-15.46878 65.37667,0 118.37495,-20.667509 118.37495,-46.162172 0,-25.494663 -52.99828,-46.162162 -118.37495,-46.162162 -65.37666,0 -118.374931,20.667499 -118.374931,46.162162 z"
       id="path23824"
       inkscape:connector-curvature="0"
       sodipodi:nodetypes="sscssss" />
    <text
       xml:space="preserve"
       style="font-style:normal;font-variant:normal;font-weight:normal;font-stretch:normal;font-size:34.8486px;line-height:1;font-family:'UD Digi Kyokasho NP-R';-inkscape-font-specification:'UD Digi Kyokasho NP-R';letter-spacing:0px;word-spacing:0px;display:inline;fill:#000000;fill-opacity:1;stroke:none;stroke-width:1.30682"
       x="75.42511"
       y="71.470177"
       id="text196"><tspan
         sodipodi:role="line"
         id="tspan194"
         x="75.42511"
         y="71.470177"
         style="stroke-width:1.30682">君に任せた！</tspan></text>
  </g>
  <g
     inkscape:groupmode="layer"
     id="g213"
     inkscape:label="爆弾"
     style="display:inline"
     sodipodi:insensitive="true">
    <ellipse
       transform="scale(-1,1)"
       id="ellipse203"
       style="display:inline;fill:#333333;stroke:#000000;stroke-width:2;stroke-miterlimit:4;stroke-dasharray:none;stroke-dashoffset:0"
       cx="-286.41974"
       cy="185.51837"
       rx="61.822166"
       ry="61.818096" />
    <path
       style="display:inline;fill:none;stroke:#000000;stroke-width:8;stroke-linecap:round;stroke-linejoin:round;stroke-opacity:1"
       d="m 259.94764,138.3512 c -16.83513,-30.62966 -38.571,-14.35932 -63.8074,-21.06414"
       id="path205"
       inkscape:connector-curvature="0"
       sodipodi:nodetypes="cc" />
    <path
       style="display:inline;fill:none;stroke:#c8b7b7;stroke-width:4;stroke-linecap:round;stroke-linejoin:round;stroke-opacity:1"
       d="m 259.94764,138.3512 c -16.83513,-30.62965 -38.571,-14.35932 -63.8074,-21.06414"
       id="path207"
       inkscape:connector-curvature="0"
       sodipodi:nodetypes="cc" />
    <path
       sodipodi:nodetypes="ccccccc"
       inkscape:connector-curvature="0"
       id="path209"
       d="m 194.71674,100.52505 c 2.2553,14.49216 7.11068,10.68497 15.79803,7.34793 -6.09185,4.77202 -15.09755,7.0076 -6.52128,22.59483 -8.05955,-13.47869 -12.26304,-11.59311 -14.78769,6.06206 -1.81385,-5.023 1.43274,-17.94586 -6.61313,-12.49147 4.75798,-5.04481 9.10783,-9.81192 1.10219,-15.43063 9.3448,2.80833 10.76178,-0.13638 11.02188,-8.08272 z"
       style="display:inline;fill:#ffcc00;stroke:none" />
    <path
       sodipodi:nodetypes="ccccccc"
       inkscape:connector-curvature="0"
       id="path211"
       d="m 194.97975,109.13979 c 0.70463,1.63755 0.24772,5.70792 5.91019,3.50714 -4.16299,2.58364 -4.28285,4.39179 -3.63704,6.75449 -2.69475,-1.70193 -4.97701,-0.22891 -7.07923,4.15662 1.08195,-3.41955 0.24107,-4.81195 -1.03915,-4.09168 2.19117,-2.46785 2.28823,-4.63393 1.1041,-7.92354 3.09196,3.27024 4.13044,0.52993 4.74113,-2.40303 z"
       style="display:inline;fill:#ff0000;stroke:none" />
    <ellipse
       style="opacity:0.1;fill:#ffffff;stroke:none;stroke-width:19.8349;stroke-linecap:round;stroke-linejoin:round"
       id="path215"
       cx="312.79144"
       cy="105.96285"
       rx="41.08252"
       ry="38.320847"
       transform="matrix(0.98167904,0.19054203,-0.10317394,0.99466333,0,0)" />
    <ellipse
       style="display:inline;opacity:0.1;fill:#ffffff;stroke:none;stroke-width:11.4059;stroke-linecap:round;stroke-linejoin:round"
       id="path215-2"
       cx="316.80496"
       cy="101.53693"
       rx="24.793495"
       ry="20.996719"
       transform="matrix(0.98495937,0.1727861,-0.11402054,0.99347839,0,0)" />
  </g>
  <g
     inkscape:groupmode="layer"
     id="layer2"
     inkscape:label="枠面"
     sodipodi:insensitive="true"
     style="display:inline">
    <path
       style="display:inline;fill:#ffffff;stroke:none"
       d="M 0,0 V 320 H 370 V 0 L 360,10 V 310 H 10 V 10 H 360 L 370,0 Z"
       id="path21072"
       inkscape:connector-curvature="0"
       sodipodi:nodetypes="ccccccccccc" />
  </g>
</svg>
