<?xml version="1.0" encoding="UTF-8" standalone="no"?>
<svg
   xmlns:dc="http://purl.org/dc/elements/1.1/"
   xmlns:cc="http://creativecommons.org/ns#"
   xmlns:rdf="http://www.w3.org/1999/02/22-rdf-syntax-ns#"
   xmlns:svg="http://www.w3.org/2000/svg"
   xmlns="http://www.w3.org/2000/svg"
   xmlns:xlink="http://www.w3.org/1999/xlink"
   xmlns:sodipodi="http://sodipodi.sourceforge.net/DTD/sodipodi-0.dtd"
   xmlns:inkscape="http://www.inkscape.org/namespaces/inkscape"
   width="370"
   height="320"
   id="svg3172"
   version="1.1"
   inkscape:version="1.0.2-2 (e86c870879, 2021-01-15)"
   sodipodi:docname="[15]読解.svg"
   inkscape:export-filename="C:\Users\zhen-\Desktop\資料\臨時\TAKEDA2\[15]読解.png"
   inkscape:export-xdpi="96"
   inkscape:export-ydpi="96">
  <defs
     id="defs3174">
    <linearGradient
       id="linearGradient17681">
      <stop
         style="stop-color:#000000;stop-opacity:1;"
         offset="0"
         id="stop17683" />
      <stop
         style="stop-color:#000000;stop-opacity:0;"
         offset="1"
         id="stop17685" />
    </linearGradient>
    <radialGradient
       r="32.862717"
       fy="43.8447"
       fx="235.23683"
       cy="43.8447"
       cx="235.23683"
       gradientTransform="matrix(1.9859687,-2.6914046,-1.081266,-0.79785862,-218.35119,957.91148)"
       gradientUnits="userSpaceOnUse"
       id="radialGradient5709"
       xlink:href="#linearGradient17681"
       inkscape:collect="always" />
    <radialGradient
       r="25.24794"
       fy="85.957077"
       fx="331.91705"
       cy="85.957077"
       cx="331.91705"
       gradientTransform="matrix(-0.80551213,0.59257927,2.1645331,2.9423198,417.01406,-171.32997)"
       gradientUnits="userSpaceOnUse"
       id="radialGradient5712"
       xlink:href="#linearGradient17681"
       inkscape:collect="always" />
    <radialGradient
       r="15.439415"
       fy="203.38908"
       fx="172.8676"
       cy="203.38908"
       cx="172.8676"
       gradientTransform="matrix(-0.54696194,-0.83715746,-11.601169,7.5796947,2552.3076,-1089.854)"
       gradientUnits="userSpaceOnUse"
       id="radialGradient5718"
       xlink:href="#linearGradient17681"
       inkscape:collect="always" />
    <radialGradient
       r="26.773195"
       fy="84.758606"
       fx="330.54651"
       cy="84.758606"
       cx="330.54651"
       gradientTransform="matrix(-0.84000928,0.54257204,2.1245465,3.28922,432.0335,-169.95792)"
       gradientUnits="userSpaceOnUse"
       id="radialGradient5736"
       xlink:href="#linearGradient17681"
       inkscape:collect="always" />
    <radialGradient
       r="15.64126"
       fy="55.275803"
       fx="264.07999"
       cy="55.275803"
       cx="264.07999"
       gradientTransform="matrix(3.7640487,-5.7587421,-2.2159333,-1.4483859,-661.5243,1890.0186)"
       gradientUnits="userSpaceOnUse"
       id="radialGradient5742"
       xlink:href="#linearGradient17681"
       inkscape:collect="always" />
    <radialGradient
       r="10.90176"
       fy="57.204533"
       fx="284.74677"
       cy="57.204533"
       cx="284.74677"
       gradientTransform="matrix(-0.97064327,-0.24052368,-2.0236018,8.1663284,641.44553,-110.47111)"
       gradientUnits="userSpaceOnUse"
       id="radialGradient5745"
       xlink:href="#linearGradient17681"
       inkscape:collect="always" />
    <radialGradient
       r="17.8125"
       fy="73.007095"
       fx="311.89737"
       cy="73.007095"
       cx="311.89737"
       gradientTransform="matrix(-1.3641258,0.66150164,2.5042444,5.164167,561.55221,-295.56974)"
       gradientUnits="userSpaceOnUse"
       id="radialGradient5793"
       xlink:href="#linearGradient17681"
       inkscape:collect="always" />
    <radialGradient
       r="4.25"
       fy="58.261681"
       fx="618.11713"
       cy="58.261681"
       cx="618.11713"
       gradientTransform="matrix(-0.26740986,-0.96358289,-52.198165,14.48584,3114.2433,73.674864)"
       gradientUnits="userSpaceOnUse"
       id="radialGradient5796"
       xlink:href="#linearGradient17681"
       inkscape:collect="always" />
  </defs>
  <sodipodi:namedview
     id="base"
     pagecolor="#ffffff"
     bordercolor="#666666"
     borderopacity="1.0"
     inkscape:pageopacity="0.0"
     inkscape:pageshadow="2"
     inkscape:zoom="1.4872584"
     inkscape:cx="171.54485"
     inkscape:cy="154.67195"
     inkscape:document-units="px"
     inkscape:current-layer="layer5"
     showgrid="false"
     inkscape:window-width="1675"
     inkscape:window-height="1031"
     inkscape:window-x="78"
     inkscape:window-y="2"
     inkscape:window-maximized="0"
     inkscape:snap-global="false"
     showguides="false"
     inkscape:document-rotation="0" />
  <metadata
     id="metadata3177">
    <rdf:RDF>
      <cc:Work
         rdf:about="">
        <dc:format>image/svg+xml</dc:format>
        <dc:type
           rdf:resource="http://purl.org/dc/dcmitype/StillImage" />
        <dc:title />
      </cc:Work>
    </rdf:RDF>
  </metadata>
  <g
     inkscape:label="補助線"
     inkscape:groupmode="layer"
     id="layer1"
     transform="translate(0,-732.36218)"
     sodipodi:insensitive="true"
     style="display:none">
    <path
       style="display:inline;fill:none;stroke:#0000ff;stroke-width:1px;stroke-linecap:butt;stroke-linejoin:miter;stroke-opacity:1"
       d="M 10,1042.3622 360,742.36211"
       id="path3025"
       inkscape:connector-curvature="0"
       sodipodi:nodetypes="cc" />
    <path
       style="display:inline;fill:none;stroke:#0000ff;stroke-width:1px;stroke-linecap:butt;stroke-linejoin:miter;stroke-opacity:1"
       d="M 10,742.36211 360,1042.3622"
       id="path3027"
       inkscape:connector-curvature="0"
       sodipodi:nodetypes="cc" />
    <path
       style="display:inline;fill:none;stroke:#ff0000;stroke-width:1px;stroke-linecap:butt;stroke-linejoin:miter;stroke-opacity:1"
       d="M 10,732.36211 V 1052.3622"
       id="path3006"
       inkscape:connector-curvature="0"
       sodipodi:nodetypes="cc" />
    <path
       style="display:inline;fill:none;stroke:#ff0000;stroke-width:1px;stroke-linecap:butt;stroke-linejoin:miter;stroke-opacity:1"
       d="M 360,732.36211 V 1052.3622"
       id="path3010"
       inkscape:connector-curvature="0"
       sodipodi:nodetypes="cc" />
    <path
       style="display:inline;fill:none;stroke:#ff0000;stroke-width:1px;stroke-linecap:butt;stroke-linejoin:miter;stroke-opacity:1"
       d="m 0,742.36208 370,3e-5"
       id="path3016"
       inkscape:connector-curvature="0" />
    <path
       style="display:inline;fill:none;stroke:#ff0000;stroke-width:1px;stroke-linecap:butt;stroke-linejoin:miter;stroke-opacity:1"
       d="M 0,1042.3622 H 370"
       id="path3018"
       inkscape:connector-curvature="0"
       sodipodi:nodetypes="cc" />
  </g>
  <g
     inkscape:groupmode="layer"
     id="layer12"
     inkscape:label="作業"
     style="display:none">
    <flowRoot
       xml:space="preserve"
       id="flowRoot2061"
       style="font-style:normal;font-variant:normal;font-weight:normal;font-stretch:normal;font-size:21.3333px;line-height:1;font-family:'UD Digi Kyokasho NP-R';-inkscape-font-specification:'UD Digi Kyokasho NP-R';letter-spacing:0px;word-spacing:0px;fill:#000000;fill-opacity:1;stroke:none"><flowRegion
         id="flowRegion2063"><rect
           id="rect2065"
           width="199.56454"
           height="613.58649"
           x="-219.42171"
           y="-55.300476" /></flowRegion><flowPara
         id="flowPara2067" /></flowRoot>
    <path
       style="display:inline;fill:none;stroke:#000000;stroke-width:1.64555;stroke-linecap:round;stroke-linejoin:round"
       d="m 408.78578,249.05272 c 7.05521,0 12.8857,3.87308 12.77458,8.64787 l -1.51593,65.1401 c -0.0979,4.20818 -5.04066,7.62165 -11.25865,7.62165 -6.21799,0 -11.25865,-3.41233 -11.25865,-7.62165 0,-4.20931 -1.51593,-59.99795 -1.51593,-65.1401 0,-4.77609 5.71938,-8.64787 12.77458,-8.64787 z"
       id="path20723"
       sodipodi:nodetypes="sssssss" />
    <path
       style="display:inline;fill:none;stroke:#000000;stroke-width:1.64555;stroke-linecap:round;stroke-linejoin:round"
       d="m 421.56036,257.70059 c 0,4.77608 -5.71937,8.64786 -12.77458,8.64786 -7.0552,0 -12.77458,-3.87178 -12.77458,-8.64786"
       id="path20518-8-2" />
    <path
       style="display:inline;fill:none;stroke:#000000;stroke-width:0.988918;stroke-linecap:round;stroke-linejoin:round"
       d="m 416.46286,255.70059 c 0,2.87026 -3.43714,5.19706 -7.67708,5.19706 -4.23993,0 -7.67708,-2.3268 -7.67708,-5.19706"
       id="path20731" />
    <path
       style="display:inline;fill:none;stroke:#000000;stroke-width:0.988918;stroke-linecap:round;stroke-linejoin:round"
       d="m 401.1087,255.70059 c 0,-2.87027 3.43715,-5.19707 7.67708,-5.19707 4.23994,0 7.67708,2.3268 7.67708,5.19707 v 2 c 0,2.87026 -3.43714,5.19706 -7.67708,5.19706 -4.23993,0 -7.67708,-2.3268 -7.67708,-5.19706 z"
       id="path20518-8-7-1-6"
       sodipodi:nodetypes="sssssss" />
  </g>
  <g
     inkscape:groupmode="layer"
     id="g8415"
     inkscape:label="豚.01.old.01"
     style="display:none"
     sodipodi:insensitive="true">
    <path
       style="display:inline;fill:#672178;stroke:#000000;stroke-width:2;stroke-linecap:round;stroke-linejoin:round;stroke-opacity:1"
       d="m 201.65096,302.33452 c -22.94795,-0.52146 -89.3163,-26.98761 -96.29284,-36.42519 6.21749,-14.70342 115.95411,-24.90926 130.84709,-26.33081 7.13928,-0.53856 89.52285,14.36382 98.61516,30.58202 -15.74947,14.19246 -114.12109,36.3698 -133.16941,32.17398 z"
       id="path8365"
       inkscape:connector-curvature="0"
       sodipodi:nodetypes="ccccc" />
    <path
       inkscape:connector-curvature="0"
       id="path8367"
       d="m 299.14672,214.87546 c -0.85419,-17.61873 -7.53021,-28.88309 -20.90308,-40.37313 l -2.42637,-24.64765 c 4.97354,-12.62063 -9.07222,-31.36684 -24.56207,-35.45601 l -86.38911,59.36756 110.41989,58.62961 z"
       style="display:inline;fill:#ffd5d5;stroke:#000000;stroke-width:2;stroke-linecap:round;stroke-linejoin:round;stroke-opacity:1"
       sodipodi:nodetypes="ccccccc" />
    <path
       style="display:inline;fill:#ffd5d5;stroke:#000000;stroke-width:2;stroke-linecap:round;stroke-linejoin:round;stroke-opacity:1"
       d="m 281.41157,196.54271 c 11.01178,19.27906 18.54828,48.53577 -3.8815,67.35484 -24.73482,20.75305 -82.55619,21.28829 -105.03021,10.66831 -36.93939,-17.45545 -40.5672,-59.45036 -10.72073,-103.29739"
       id="path8369"
       sodipodi:nodetypes="cssc" />
    <path
       style="display:inline;fill:#ffd5d5;stroke:#000000;stroke-width:2;stroke-linecap:round;stroke-linejoin:round;stroke-opacity:1"
       d="m 274.17912,147.02718 c 8.34098,13.69959 7.30893,32.79349 -4.04801,45.01141"
       id="path8371"
       inkscape:connector-curvature="0"
       sodipodi:nodetypes="cc" />
    <path
       sodipodi:nodetypes="csc"
       inkscape:connector-curvature="0"
       id="path8373"
       d="m 263.42593,125.48916 c -16.22414,-22.82374 -53.90095,-26.976238 -77.7235,-0.37902 -19.23875,21.47949 -31.54006,46.32004 -22.41526,54.80694"
       style="display:inline;fill:#ffd5d5;stroke:#000000;stroke-width:2;stroke-linecap:round;stroke-linejoin:round;stroke-opacity:1" />
    <path
       style="display:inline;fill:#ffaaaa;stroke:#000000;stroke-width:2;stroke-linecap:round;stroke-linejoin:round;stroke-opacity:1"
       d="m 252.91515,157.43048 c 7.31173,-0.94758 12.42423,3.68955 14.10675,12.75611 1.06746,5.75211 0.6404,17.81289 -6.33819,18.67205 -6.48702,0.79867 -17.79785,4.20473 -26.0406,5.49953 -7.34947,1.1545 -12.05148,-3.85481 -7.85271,-12.63904 4.4745,-9.36114 15.12534,-22.8631 26.12475,-24.28865 z"
       id="path8375"
       inkscape:connector-curvature="0"
       sodipodi:nodetypes="ssssss" />
    <path
       style="display:inline;fill:#ffd5d5;stroke:#000000;stroke-width:2;stroke-linecap:round;stroke-linejoin:round;stroke-opacity:1"
       d="m 202.09853,114.69615 c -37.06866,6.76553 -39.90015,50.94099 -23.1462,58.02436 4.59282,1.94178 17.42906,-15.05054 26.7629,-24.93302"
       id="path8377"
       inkscape:connector-curvature="0"
       sodipodi:nodetypes="csc" />
    <path
       style="display:inline;fill:none;stroke:#000000;stroke-width:2;stroke-linecap:round;stroke-linejoin:round;stroke-opacity:1"
       d="m 256.86655,146.35029 -0.87514,4.06005"
       id="path8379"
       inkscape:connector-curvature="0"
       sodipodi:nodetypes="cc" />
    <path
       style="display:inline;fill:none;stroke:#000000;stroke-width:2;stroke-linecap:round;stroke-linejoin:round;stroke-opacity:1"
       d="m 237.46165,154.32001 -3.32887,-3.90299"
       id="path8381"
       inkscape:connector-curvature="0"
       sodipodi:nodetypes="cc" />
    <path
       style="display:inline;fill:#000000;stroke:#000000;stroke-width:2;stroke-linecap:round;stroke-linejoin:round;stroke-opacity:1"
       d="m 247.94288,167.16587 c -3.03071,0.53069 -11.36241,12.54201 -8.7256,18.80514 1.19249,2.83249 10.58188,-19.13016 8.7256,-18.80514 z"
       id="path8383"
       inkscape:connector-curvature="0"
       sodipodi:nodetypes="sss" />
    <path
       style="display:inline;fill:#000000;stroke:#000000;stroke-width:2;stroke-linecap:round;stroke-linejoin:round;stroke-opacity:1"
       d="m 255.97768,166.10323 c -1.60286,-0.17094 -1.4413,18.00431 0.93349,16.08803 4.08222,-3.29404 1.76072,-15.80066 -0.93349,-16.08803 z"
       id="path8385"
       inkscape:connector-curvature="0"
       sodipodi:nodetypes="sss" />
    <path
       inkscape:connector-curvature="0"
       id="path8387"
       d="m 164.9996,207.98053 c -3.78114,13.94352 11.89796,47.1411 51.31237,43.124"
       style="display:inline;fill:#ffd5d5;stroke:#000000;stroke-width:2;stroke-linecap:round;stroke-linejoin:round;stroke-opacity:1"
       sodipodi:nodetypes="cc" />
    <path
       style="display:inline;fill:#800080;stroke:#000000;stroke-width:2;stroke-linecap:round;stroke-linejoin:round"
       d="m 329.5586,206.03543 -49.43574,24.34266 c -3.19367,1.57259 -7.68711,-0.79791 -10.11931,-5.46026 -2.43215,-4.66236 -1.84519,-9.77667 1.31101,-11.42317 3.15622,-1.64647 44.39477,-24.60507 48.25044,-26.61644 z"
       id="path8389"
       sodipodi:nodetypes="cssscc" />
    <path
       style="display:inline;fill:#9393ac;stroke:#000000;stroke-width:2;stroke-linecap:round;stroke-linejoin:round"
       d="m 318.0775,199.83946 c -2.75968,-5.29011 -2.09367,-11.09308 1.4875,-12.96124 3.58118,-1.8682 8.72146,0.90585 11.48111,6.19596 2.75968,5.29012 2.11519,11.13486 -1.48751,12.96125 -3.60267,1.82638 -8.72145,-0.90587 -11.4811,-6.19597 z"
       id="path8391"
       sodipodi:nodetypes="sssss" />
    <path
       style="display:inline;fill:#441650;stroke:#000000;stroke-width:2;stroke-linecap:round;stroke-linejoin:round"
       d="m 329.06412,201.43098 -1.49962,0.78231 c -2.15218,1.12273 -5.2413,-0.54438 -6.89976,-3.72356 -1.65845,-3.17917 -1.25824,-6.66654 0.89393,-7.78927 l 1.49964,-0.7823 z"
       id="path8393"
       sodipodi:nodetypes="cssscc" />
    <path
       style="display:inline;fill:#8a6f91;stroke:#000000;stroke-width:2;stroke-linecap:round;stroke-linejoin:round"
       d="m 329.95808,193.64174 c 1.65845,3.17918 1.25822,6.66654 -0.89396,7.78924 -2.15215,1.12272 -5.24128,-0.54438 -6.89974,-3.72355 -1.65845,-3.17917 -1.25824,-6.66655 0.89393,-7.78927 2.1522,-1.12272 5.2413,0.54439 6.89977,3.72358 z"
       id="path8395"
       sodipodi:nodetypes="sssss" />
    <path
       style="display:inline;fill:#672178;stroke:#000000;stroke-width:2;stroke-linecap:round;stroke-linejoin:round;stroke-opacity:1"
       d="m 280.12287,230.37809 c -8.04458,3.96125 -37.08295,-3.03501 -53.44828,-3.90815 -10.58066,-0.5645 -16.31214,4.00458 -18.97714,7.16672 l -1.36751,-0.76775 c 6.68245,-5.83178 13.20352,-13.5152 17.3072,-15.1587 6.60685,-2.75547 13.50831,-8.18276 35.91135,-6.72064 24.05872,1.57018 36.06519,1.06792 46.421,0.92784 11.06787,-0.14972 18.2689,-2.94406 23.5889,-5.88162 z"
       id="path8397"
       inkscape:connector-curvature="0"
       sodipodi:nodetypes="sscccsscs" />
    <path
       style="display:inline;fill:#dbdbe3;stroke:#000000;stroke-width:2;stroke-linecap:round;stroke-linejoin:round;stroke-opacity:1"
       d="m 196.89968,246.06247 c -3.32685,5.04192 -17.68166,18.13896 -41.34148,25.90881 -10.75398,3.53159 -25.83969,-0.4623 -37.86724,6.03646 l 30.63101,14.04027 c 4.47539,-3.78868 11.04199,-2.05477 18.91559,-5.48018 17.14935,-7.46081 38.42612,-21.4868 40.73674,-39.75318 1.78066,-14.0768 7.73054,-25.82175 15.66284,-29.10444 -15.99299,6.83363 -20.66675,19.15195 -26.73746,28.35226 z"
       id="path8399"
       inkscape:connector-curvature="0"
       sodipodi:nodetypes="ssccsscs" />
    <g
       id="g8403"
       style="stroke-width:1.78988;stroke-linecap:round;stroke-linejoin:round"
       transform="matrix(-1.1173962,0,0,1.1173962,449.56576,-74.193695)">
      <path
         style="display:inline;fill:#ffd5d5;stroke:#000000;stroke-width:1.78988;stroke-linecap:round;stroke-linejoin:round;stroke-opacity:1"
         d="m 208.74759,291.12163 c -9.89103,-0.89086 -18.80361,-5.75211 -20.81091,-14.10884 -3.04395,-12.67245 15.28445,-15.92734 23.04266,-3.35564"
         id="path8401"
         inkscape:connector-curvature="0"
         sodipodi:nodetypes="csc" />
    </g>
    <path
       style="display:inline;fill:none;stroke:#000000;stroke-width:2;stroke-linecap:round;stroke-linejoin:round;stroke-opacity:1"
       d="m 97.899432,270.28687 7.458688,-4.37754 -8.004996,-4.02345"
       id="path8405"
       inkscape:connector-curvature="0"
       sodipodi:nodetypes="ccc" />
    <path
       style="display:inline;fill:none;stroke:#000000;stroke-width:2;stroke-linecap:round;stroke-linejoin:round;stroke-opacity:1"
       d="m 205.47165,308.24038 -3.82069,-5.90586 -8.94672,5.05008"
       id="path8407"
       inkscape:connector-curvature="0"
       sodipodi:nodetypes="ccc" />
    <path
       style="display:inline;fill:none;stroke:#000000;stroke-width:2;stroke-linecap:round;stroke-linejoin:round;stroke-opacity:1"
       d="m 340.25521,276.2239 -5.43484,-6.06336 7.74402,-1.2856"
       id="path8409"
       inkscape:connector-curvature="0"
       sodipodi:nodetypes="ccc" />
    <path
       inkscape:connector-curvature="0"
       id="path8411"
       d="m 280.18542,230.08249 c 7.35843,11.69353 31.54342,0.31989 29.89394,-10.87132 -0.98158,-6.65962 -17.31133,-6.29232 -24.09185,-1.94106 -5.67311,3.64058 -9.31018,7.23758 -5.80209,12.81238 z"
       style="display:inline;fill:#ffd5d5;stroke:#000000;stroke-width:2;stroke-linecap:round;stroke-linejoin:round;stroke-opacity:1"
       sodipodi:nodetypes="ssss" />
    <path
       style="display:inline;fill:#ff6600;stroke:none;stroke-width:2;stroke-linecap:round;stroke-linejoin:round;stroke-opacity:1"
       d="m 129.11809,139.66257 c 12.61959,4.4293 14.36545,-2.29014 10.92789,-15.69464 5.89254,12.99526 13.38378,9.91876 24.97353,6.43346 -14.89588,5.79721 -26.43619,28.97718 -21.27232,51.11609 -5.88314,-10.40756 -6.00988,-13.19928 -17.13812,-9.61999 10.91104,-5.21901 9.26661,-14.97728 0.54356,-16.05236 9.76925,-1.90442 14.15302,-8.69244 1.96546,-16.18256 z"
       id="path8413"
       inkscape:connector-curvature="0"
       sodipodi:nodetypes="ccccccc" />
  </g>
  <g
     inkscape:groupmode="layer"
     id="layer3"
     inkscape:label="豚.01"
     style="display:inline"
     sodipodi:insensitive="true">
    <path
       style="display:inline;fill:#672178;stroke:#000000;stroke-width:2;stroke-linecap:round;stroke-linejoin:round;stroke-opacity:1"
       d="m 201.65096,302.33452 c -22.94795,-0.52146 -89.3163,-26.98761 -96.29284,-36.42519 6.21749,-14.70342 115.95411,-24.90926 130.84709,-26.33081 7.13928,-0.53856 89.52285,14.36382 98.61516,30.58202 -15.74947,14.19246 -114.12109,36.3698 -133.16941,32.17398 z"
       id="path17408-1-5-80"
       inkscape:connector-curvature="0"
       sodipodi:nodetypes="ccccc" />
    <path
       style="display:inline;fill:#ffd5d5;stroke:none;stroke-width:2;stroke-linecap:round;stroke-linejoin:round;stroke-opacity:1"
       d="m 277.18558,173.76215 -4.29044,-27.72871 -17.36914,-28.26309 -91.55903,59.81712 111.31901,54.80837 23.86074,-17.52038 -11.39425,-25.95998 z"
       id="path8423"
       sodipodi:nodetypes="cccccccc" />
    <path
       style="display:inline;fill:#ffd5d5;stroke:#000000;stroke-width:2;stroke-linecap:round;stroke-linejoin:round;stroke-opacity:1"
       d="m 299.14672,214.87546 c -0.85419,-17.61873 -8.58827,-29.62327 -21.96114,-41.11331"
       id="path8419" />
    <path
       style="display:inline;fill:#ffd5d5;stroke:#000000;stroke-width:2;stroke-linecap:round;stroke-linejoin:round;stroke-opacity:1"
       d="m 274.69338,152.10247 c 6.09743,-13.29497 -7.94833,-33.61463 -23.43818,-37.7038"
       id="path17261-5-7-2"
       sodipodi:nodetypes="cc" />
    <path
       style="display:inline;fill:#ffd5d5;stroke:#000000;stroke-width:2;stroke-linecap:round;stroke-linejoin:round;stroke-opacity:1"
       d="m 280.51245,198.7905 c 11.01178,19.27906 18.32351,46.73754 -4.10627,65.55661 -24.73482,20.75305 -77.83584,20.16439 -100.30986,9.54441 -36.93939,-17.45545 -39.89286,-57.20257 -13.64285,-97.00358"
       id="path17261-4"
       sodipodi:nodetypes="cssc" />
    <path
       style="display:inline;fill:#ffd5d5;stroke:#000000;stroke-width:2;stroke-linecap:round;stroke-linejoin:round;stroke-opacity:1"
       d="m 270.84132,146.07352 c 10.2483,14.65325 11.32107,34.1262 -0.71021,47.7633"
       id="path17390-8"
       inkscape:connector-curvature="0"
       sodipodi:nodetypes="cc" />
    <path
       sodipodi:nodetypes="csc"
       inkscape:connector-curvature="0"
       id="path5977-8"
       d="m 263.42593,125.48916 c -16.22414,-22.82374 -53.45139,-26.301901 -77.27394,0.29532 -19.23875,21.47949 -31.0905,48.56783 -21.9657,57.05473"
       style="display:inline;fill:#ffd5d5;stroke:#000000;stroke-width:2;stroke-linecap:round;stroke-linejoin:round;stroke-opacity:1" />
    <path
       style="display:inline;fill:#ffaaaa;stroke:#000000;stroke-width:2;stroke-linecap:round;stroke-linejoin:round;stroke-opacity:1"
       d="m 253.41126,157.10461 c 8.02402,-0.55923 12.2574,6.02975 14.28498,13.08198 1.75745,6.11273 1.00967,18.40955 -6.72191,19.91632 -5.84594,1.13929 -16.07675,3.67805 -25.37756,5.20892 -7.34083,1.20827 -10.11672,-7.07942 -5.91795,-15.86365 4.4745,-9.36114 13.85236,-21.65498 23.73244,-22.34357 z"
       id="path17394-2"
       inkscape:connector-curvature="0"
       sodipodi:nodetypes="ssssss" />
    <path
       style="display:inline;fill:#ffd5d5;stroke:#000000;stroke-width:2;stroke-linecap:round;stroke-linejoin:round;stroke-opacity:1"
       d="m 202.09853,114.69615 c -37.06866,6.76553 -39.90015,50.94099 -23.1462,58.02436 4.59282,1.94178 17.42906,-15.05054 26.7629,-24.93302"
       id="path17398-4"
       inkscape:connector-curvature="0"
       sodipodi:nodetypes="csc" />
    <path
       style="display:inline;fill:none;stroke:#000000;stroke-width:2;stroke-linecap:round;stroke-linejoin:round;stroke-opacity:1"
       d="m 256.86655,146.35029 -0.87514,4.06005"
       id="path17404-5"
       inkscape:connector-curvature="0"
       sodipodi:nodetypes="cc" />
    <path
       style="display:inline;fill:none;stroke:#000000;stroke-width:2;stroke-linecap:round;stroke-linejoin:round;stroke-opacity:1"
       d="m 236.9559,154.03904 -3.27268,-3.62202"
       id="path17406-5"
       inkscape:connector-curvature="0"
       sodipodi:nodetypes="cc" />
    <path
       style="display:inline;fill:#000000;stroke:#000000;stroke-width:2;stroke-linecap:round;stroke-linejoin:round;stroke-opacity:1"
       d="m 247.94288,167.16587 c -3.03071,0.53069 -9.765,12.09245 -7.12819,18.35558 1.19249,2.83249 8.98447,-18.6806 7.12819,-18.35558 z"
       id="path17408-1"
       inkscape:connector-curvature="0"
       sodipodi:nodetypes="sss" />
    <path
       style="display:inline;fill:#000000;stroke:#000000;stroke-width:2;stroke-linecap:round;stroke-linejoin:round;stroke-opacity:1"
       d="m 256.61345,166.10323 c -1.60286,-0.17094 -1.38676,19.00783 0.98803,17.09155 4.08222,-3.29404 1.70618,-16.80418 -0.98803,-17.09155 z"
       id="path17410-7"
       inkscape:connector-curvature="0"
       sodipodi:nodetypes="sss" />
    <path
       inkscape:connector-curvature="0"
       id="path17261-5-7-2-2"
       d="m 164.9996,207.98053 c -3.78114,13.94352 11.89796,47.1411 51.31237,43.124"
       style="display:inline;fill:#ffd5d5;stroke:#000000;stroke-width:2;stroke-linecap:round;stroke-linejoin:round;stroke-opacity:1"
       sodipodi:nodetypes="cc" />
    <path
       style="display:inline;fill:#800080;stroke:#000000;stroke-width:2;stroke-linecap:round;stroke-linejoin:round"
       d="m 329.5586,206.03543 -49.43574,24.34266 c -3.19367,1.57259 -7.68711,-0.79791 -10.11931,-5.46026 -2.43215,-4.66236 -1.84519,-9.77667 1.31101,-11.42317 3.15622,-1.64647 44.39477,-24.60507 48.25044,-26.61644 z"
       id="path20723-4"
       sodipodi:nodetypes="cssscc" />
    <path
       style="display:inline;fill:#9393ac;stroke:#000000;stroke-width:2;stroke-linecap:round;stroke-linejoin:round"
       d="m 318.0775,199.83946 c -2.75968,-5.29011 -2.09367,-11.09308 1.4875,-12.96124 3.58118,-1.8682 8.72146,0.90585 11.48111,6.19596 2.75968,5.29012 2.11519,11.13486 -1.48751,12.96125 -3.60267,1.82638 -8.72145,-0.90587 -11.4811,-6.19597 z"
       id="path20518-8-2-9-3"
       sodipodi:nodetypes="sssss" />
    <path
       style="display:inline;fill:#441650;stroke:#000000;stroke-width:2;stroke-linecap:round;stroke-linejoin:round"
       d="m 329.06412,201.43098 -1.49962,0.78231 c -2.15218,1.12273 -5.2413,-0.54438 -6.89976,-3.72356 -1.65845,-3.17917 -1.25824,-6.66654 0.89393,-7.78927 l 1.49964,-0.7823 z"
       id="path20518-8-7-1-6-0"
       sodipodi:nodetypes="cssscc" />
    <path
       style="display:inline;fill:#8a6f91;stroke:#000000;stroke-width:2;stroke-linecap:round;stroke-linejoin:round"
       d="m 329.95808,193.64174 c 1.65845,3.17918 1.25822,6.66654 -0.89396,7.78924 -2.15215,1.12272 -5.24128,-0.54438 -6.89974,-3.72355 -1.65845,-3.17917 -1.25824,-6.66655 0.89393,-7.78927 2.1522,-1.12272 5.2413,0.54439 6.89977,3.72358 z"
       id="path20518-8-7-1-6-0-1"
       sodipodi:nodetypes="sssss" />
    <path
       style="display:inline;fill:#672178;stroke:#000000;stroke-width:2;stroke-linecap:round;stroke-linejoin:round;stroke-opacity:1"
       d="m 280.12287,230.37809 c -8.04458,3.96125 -37.08295,-3.03501 -53.44828,-3.90815 -10.58066,-0.5645 -16.31214,4.00458 -18.97714,7.16672 l -1.36751,-0.76775 c 6.68245,-5.83178 13.20352,-13.5152 17.3072,-15.1587 6.60685,-2.75547 13.50831,-8.18276 35.91135,-6.72064 24.05872,1.57018 36.06519,1.06792 46.421,0.92784 11.06787,-0.14972 18.2689,-2.94406 23.5889,-5.88162 z"
       id="path17408-1-5"
       inkscape:connector-curvature="0"
       sodipodi:nodetypes="sscccsscs" />
    <path
       style="display:inline;fill:#dbdbe3;stroke:#000000;stroke-width:2;stroke-linecap:round;stroke-linejoin:round;stroke-opacity:1"
       d="m 196.89968,246.06247 c -3.32685,5.04192 -17.68166,18.13896 -41.34148,25.90881 -10.75398,3.53159 -25.83969,-0.4623 -37.86724,6.03646 l 30.63101,14.04027 c 4.47539,-3.78868 11.04199,-2.05477 18.91559,-5.48018 17.14935,-7.46081 38.42612,-21.4868 40.73674,-39.75318 1.78066,-14.0768 7.73054,-25.82175 15.66284,-29.10444 -15.99299,6.83363 -20.66675,19.15195 -26.73746,28.35226 z"
       id="path17408-1-5-8"
       inkscape:connector-curvature="0"
       sodipodi:nodetypes="ssccsscs" />
    <g
       id="g26409"
       style="stroke-width:1.78988;stroke-linecap:round;stroke-linejoin:round"
       transform="matrix(-1.1173962,0,0,1.1173962,449.56576,-74.193695)">
      <path
         style="display:inline;fill:#ffd5d5;stroke:#000000;stroke-width:1.78988;stroke-linecap:round;stroke-linejoin:round;stroke-opacity:1"
         d="m 208.74759,291.12163 c -9.89103,-0.89086 -18.80361,-5.75211 -20.81091,-14.10884 -3.04395,-12.67245 15.28445,-15.92734 23.04266,-3.35564"
         id="path26349"
         inkscape:connector-curvature="0"
         sodipodi:nodetypes="csc" />
    </g>
    <path
       style="display:inline;fill:none;stroke:#000000;stroke-width:2;stroke-linecap:round;stroke-linejoin:round;stroke-opacity:1"
       d="m 97.899432,270.28687 7.458688,-4.37754 -8.004996,-4.02345"
       id="path17406-5-0"
       inkscape:connector-curvature="0"
       sodipodi:nodetypes="ccc" />
    <path
       style="display:inline;fill:none;stroke:#000000;stroke-width:2;stroke-linecap:round;stroke-linejoin:round;stroke-opacity:1"
       d="m 205.47165,308.24038 -3.82069,-5.90586 -8.94672,5.05008"
       id="path17406-5-0-0"
       inkscape:connector-curvature="0"
       sodipodi:nodetypes="ccc" />
    <path
       style="display:inline;fill:none;stroke:#000000;stroke-width:2;stroke-linecap:round;stroke-linejoin:round;stroke-opacity:1"
       d="m 340.25521,276.2239 -5.43484,-6.06336 7.74402,-1.2856"
       id="path17406-5-0-1"
       inkscape:connector-curvature="0"
       sodipodi:nodetypes="ccc" />
    <path
       inkscape:connector-curvature="0"
       id="path17261-5-7-8"
       d="m 280.18542,230.08249 c 7.35843,11.69353 31.54342,0.31989 29.89394,-10.87132 -0.98158,-6.65962 -17.31133,-6.29232 -24.09185,-1.94106 -5.67311,3.64058 -9.31018,7.23758 -5.80209,12.81238 z"
       style="display:inline;fill:#ffd5d5;stroke:#000000;stroke-width:2;stroke-linecap:round;stroke-linejoin:round;stroke-opacity:1"
       sodipodi:nodetypes="ssss" />
    <path
       style="display:inline;fill:#ff6600;stroke:none;stroke-width:2;stroke-linecap:round;stroke-linejoin:round;stroke-opacity:1"
       d="m 143.30777,118.32616 c 7.55659,13.4707 14.33467,10.3942 26.16214,6.67118 -17.85822,3.89544 -29.80759,28.97718 -21.27232,51.11609 -4.45681,-8.74351 -6.48532,-13.19928 -19.99078,-9.85771 12.81281,-4.26813 10.2175,-21.39576 -2.06568,-27.33449 14.81708,4.04558 21.31737,-6.00196 17.16664,-20.59507 z"
       id="path17394-2-3"
       inkscape:connector-curvature="0"
       sodipodi:nodetypes="cccccc" />
  </g>
  <g
     inkscape:groupmode="layer"
     id="layer5"
     inkscape:label="吹き出し"
     style="display:inline"
     sodipodi:insensitive="true">
    <path
       style="display:inline;fill:#fefefe;fill-opacity:1;stroke:#000000;stroke-width:2;stroke-linecap:round;stroke-linejoin:round"
       d="m 243.27586,54.650531 c 0,18.43365 -29.23678,34.178862 -70.44988,40.440187 -6.79154,1.03182 -16.24947,11.148572 -1.91586,19.494942 -22.81672,-4.866 -31.44774,-16.603762 -37.69591,-16.603762 -60.785376,0 -110.06167,-19.400115 -110.06167,-43.331367 0,-23.93125 49.276294,-43.331353 110.06167,-43.331353 60.78537,0 110.06165,19.400103 110.06165,43.331353 z"
       id="path23824"
       inkscape:connector-curvature="0"
       sodipodi:nodetypes="sscssss" />
    <text
       xml:space="preserve"
       style="font-style:normal;font-weight:normal;font-size:38.1015px;line-height:0%;font-family:sans-serif;letter-spacing:0px;word-spacing:0px;writing-mode:lr-tb;display:inline;fill:#000000;fill-opacity:1;stroke:none;stroke-width:3.55995"
       x="45.97916"
       y="67.272278"
       id="text13157"><tspan
         sodipodi:role="line"
         x="45.97916"
         y="67.272278"
         style="font-size:38.1015px;line-height:1;font-family:sans-serif;stroke-width:3.55995"
         id="tspan8422" /></text>
    <text
       xml:space="preserve"
       style="font-size:39.1544px;line-height:1;font-family:'UD Digi Kyokasho NP-R';-inkscape-font-specification:'UD Digi Kyokasho NP-R';letter-spacing:0px;word-spacing:0px;stroke-width:1.46829"
       x="37.634518"
       y="69.554031"
       id="text17966"><tspan
         sodipodi:role="line"
         id="tspan17964"
         x="37.634518"
         y="69.554031"
         style="stroke-width:1.46829">これは…！</tspan></text>
  </g>
  <g
     inkscape:groupmode="layer"
     id="layer2"
     inkscape:label="枠面"
     sodipodi:insensitive="true"
     style="display:inline">
    <path
       style="display:inline;fill:#ffffff;stroke:none"
       d="M 0,0 V 320 H 370 V 0 L 360,10 V 310 H 10 V 10 H 360 L 370,0 Z"
       id="path21072"
       inkscape:connector-curvature="0"
       sodipodi:nodetypes="ccccccccccc" />
  </g>
</svg>
