<?xml version="1.0" encoding="UTF-8" standalone="no"?>
<svg
   xmlns:dc="http://purl.org/dc/elements/1.1/"
   xmlns:cc="http://creativecommons.org/ns#"
   xmlns:rdf="http://www.w3.org/1999/02/22-rdf-syntax-ns#"
   xmlns:svg="http://www.w3.org/2000/svg"
   xmlns="http://www.w3.org/2000/svg"
   xmlns:xlink="http://www.w3.org/1999/xlink"
   xmlns:sodipodi="http://sodipodi.sourceforge.net/DTD/sodipodi-0.dtd"
   xmlns:inkscape="http://www.inkscape.org/namespaces/inkscape"
   width="370"
   height="320"
   id="svg3172"
   version="1.1"
   inkscape:version="1.0.2-2 (e86c870879, 2021-01-15)"
   sodipodi:docname="[16]把握.svg"
   inkscape:export-filename="C:\Users\zhen-\Desktop\資料\臨時\TAKEDA2\[16]把握.png"
   inkscape:export-xdpi="96"
   inkscape:export-ydpi="96">
  <defs
     id="defs3174">
    <linearGradient
       id="linearGradient17681">
      <stop
         style="stop-color:#000000;stop-opacity:1;"
         offset="0"
         id="stop17683" />
      <stop
         style="stop-color:#000000;stop-opacity:0;"
         offset="1"
         id="stop17685" />
    </linearGradient>
    <radialGradient
       r="32.862717"
       fy="43.8447"
       fx="235.23683"
       cy="43.8447"
       cx="235.23683"
       gradientTransform="matrix(1.9859687,-2.6914046,-1.081266,-0.79785862,-218.35119,957.91148)"
       gradientUnits="userSpaceOnUse"
       id="radialGradient5709"
       xlink:href="#linearGradient17681"
       inkscape:collect="always" />
    <radialGradient
       r="25.24794"
       fy="85.957077"
       fx="331.91705"
       cy="85.957077"
       cx="331.91705"
       gradientTransform="matrix(-0.80551213,0.59257927,2.1645331,2.9423198,417.01406,-171.32997)"
       gradientUnits="userSpaceOnUse"
       id="radialGradient5712"
       xlink:href="#linearGradient17681"
       inkscape:collect="always" />
    <radialGradient
       r="15.439415"
       fy="203.38908"
       fx="172.8676"
       cy="203.38908"
       cx="172.8676"
       gradientTransform="matrix(-0.54696194,-0.83715746,-11.601169,7.5796947,2552.3076,-1089.854)"
       gradientUnits="userSpaceOnUse"
       id="radialGradient5718"
       xlink:href="#linearGradient17681"
       inkscape:collect="always" />
    <radialGradient
       r="26.773195"
       fy="84.758606"
       fx="330.54651"
       cy="84.758606"
       cx="330.54651"
       gradientTransform="matrix(-0.84000928,0.54257204,2.1245465,3.28922,432.0335,-169.95792)"
       gradientUnits="userSpaceOnUse"
       id="radialGradient5736"
       xlink:href="#linearGradient17681"
       inkscape:collect="always" />
    <radialGradient
       r="15.64126"
       fy="55.275803"
       fx="264.07999"
       cy="55.275803"
       cx="264.07999"
       gradientTransform="matrix(3.7640487,-5.7587421,-2.2159333,-1.4483859,-661.5243,1890.0186)"
       gradientUnits="userSpaceOnUse"
       id="radialGradient5742"
       xlink:href="#linearGradient17681"
       inkscape:collect="always" />
    <radialGradient
       r="10.90176"
       fy="57.204533"
       fx="284.74677"
       cy="57.204533"
       cx="284.74677"
       gradientTransform="matrix(-0.97064327,-0.24052368,-2.0236018,8.1663284,641.44553,-110.47111)"
       gradientUnits="userSpaceOnUse"
       id="radialGradient5745"
       xlink:href="#linearGradient17681"
       inkscape:collect="always" />
    <radialGradient
       r="17.8125"
       fy="73.007095"
       fx="311.89737"
       cy="73.007095"
       cx="311.89737"
       gradientTransform="matrix(-1.3641258,0.66150164,2.5042444,5.164167,561.55221,-295.56974)"
       gradientUnits="userSpaceOnUse"
       id="radialGradient5793"
       xlink:href="#linearGradient17681"
       inkscape:collect="always" />
    <radialGradient
       r="4.25"
       fy="58.261681"
       fx="618.11713"
       cy="58.261681"
       cx="618.11713"
       gradientTransform="matrix(-0.26740986,-0.96358289,-52.198165,14.48584,3114.2433,73.674864)"
       gradientUnits="userSpaceOnUse"
       id="radialGradient5796"
       xlink:href="#linearGradient17681"
       inkscape:collect="always" />
  </defs>
  <sodipodi:namedview
     id="base"
     pagecolor="#ffffff"
     bordercolor="#666666"
     borderopacity="1.0"
     inkscape:pageopacity="0.0"
     inkscape:pageshadow="2"
     inkscape:zoom="1.1160221"
     inkscape:cx="74.378673"
     inkscape:cy="132.45158"
     inkscape:document-units="px"
     inkscape:current-layer="layer7"
     showgrid="false"
     inkscape:window-width="1348"
     inkscape:window-height="1033"
     inkscape:window-x="99"
     inkscape:window-y="0"
     inkscape:window-maximized="0"
     inkscape:snap-global="false"
     showguides="false"
     inkscape:document-rotation="0" />
  <metadata
     id="metadata3177">
    <rdf:RDF>
      <cc:Work
         rdf:about="">
        <dc:format>image/svg+xml</dc:format>
        <dc:type
           rdf:resource="http://purl.org/dc/dcmitype/StillImage" />
        <dc:title />
      </cc:Work>
    </rdf:RDF>
  </metadata>
  <g
     inkscape:label="補助線"
     inkscape:groupmode="layer"
     id="layer1"
     transform="translate(0,-732.36218)"
     sodipodi:insensitive="true"
     style="display:none">
    <path
       style="display:inline;fill:none;stroke:#0000ff;stroke-width:1px;stroke-linecap:butt;stroke-linejoin:miter;stroke-opacity:1"
       d="M 10,1042.3622 360,742.36211"
       id="path3025"
       inkscape:connector-curvature="0"
       sodipodi:nodetypes="cc" />
    <path
       style="display:inline;fill:none;stroke:#0000ff;stroke-width:1px;stroke-linecap:butt;stroke-linejoin:miter;stroke-opacity:1"
       d="M 10,742.36211 360,1042.3622"
       id="path3027"
       inkscape:connector-curvature="0"
       sodipodi:nodetypes="cc" />
    <path
       style="display:inline;fill:none;stroke:#ff0000;stroke-width:1px;stroke-linecap:butt;stroke-linejoin:miter;stroke-opacity:1"
       d="M 10,732.36211 V 1052.3622"
       id="path3006"
       inkscape:connector-curvature="0"
       sodipodi:nodetypes="cc" />
    <path
       style="display:inline;fill:none;stroke:#ff0000;stroke-width:1px;stroke-linecap:butt;stroke-linejoin:miter;stroke-opacity:1"
       d="M 360,732.36211 V 1052.3622"
       id="path3010"
       inkscape:connector-curvature="0"
       sodipodi:nodetypes="cc" />
    <path
       style="display:inline;fill:none;stroke:#ff0000;stroke-width:1px;stroke-linecap:butt;stroke-linejoin:miter;stroke-opacity:1"
       d="m 0,742.36208 370,3e-5"
       id="path3016"
       inkscape:connector-curvature="0" />
    <path
       style="display:inline;fill:none;stroke:#ff0000;stroke-width:1px;stroke-linecap:butt;stroke-linejoin:miter;stroke-opacity:1"
       d="M 0,1042.3622 H 370"
       id="path3018"
       inkscape:connector-curvature="0"
       sodipodi:nodetypes="cc" />
  </g>
  <g
     inkscape:groupmode="layer"
     id="layer12"
     inkscape:label="作業"
     style="display:none">
    <flowRoot
       xml:space="preserve"
       id="flowRoot2061"
       style="font-style:normal;font-variant:normal;font-weight:normal;font-stretch:normal;font-size:21.3333px;line-height:1;font-family:'UD Digi Kyokasho NP-R';-inkscape-font-specification:'UD Digi Kyokasho NP-R';letter-spacing:0px;word-spacing:0px;fill:#000000;fill-opacity:1;stroke:none"><flowRegion
         id="flowRegion2063"><rect
           id="rect2065"
           width="199.56454"
           height="613.58649"
           x="-219.42171"
           y="-55.300476" /></flowRegion><flowPara
         id="flowPara2067" /></flowRoot>
    <path
       style="display:inline;fill:none;stroke:#000000;stroke-width:1.64555;stroke-linecap:round;stroke-linejoin:round"
       d="m 408.78578,249.05272 c 7.05521,0 12.8857,3.87308 12.77458,8.64787 l -1.51593,65.1401 c -0.0979,4.20818 -5.04066,7.62165 -11.25865,7.62165 -6.21799,0 -11.25865,-3.41233 -11.25865,-7.62165 0,-4.20931 -1.51593,-59.99795 -1.51593,-65.1401 0,-4.77609 5.71938,-8.64787 12.77458,-8.64787 z"
       id="path20723"
       sodipodi:nodetypes="sssssss" />
    <path
       style="display:inline;fill:none;stroke:#000000;stroke-width:1.64555;stroke-linecap:round;stroke-linejoin:round"
       d="m 421.56036,257.70059 c 0,4.77608 -5.71937,8.64786 -12.77458,8.64786 -7.0552,0 -12.77458,-3.87178 -12.77458,-8.64786"
       id="path20518-8-2" />
    <path
       style="display:inline;fill:none;stroke:#000000;stroke-width:0.988918;stroke-linecap:round;stroke-linejoin:round"
       d="m 416.46286,255.70059 c 0,2.87026 -3.43714,5.19706 -7.67708,5.19706 -4.23993,0 -7.67708,-2.3268 -7.67708,-5.19706"
       id="path20731" />
    <path
       style="display:inline;fill:none;stroke:#000000;stroke-width:0.988918;stroke-linecap:round;stroke-linejoin:round"
       d="m 401.1087,255.70059 c 0,-2.87027 3.43715,-5.19707 7.67708,-5.19707 4.23994,0 7.67708,2.3268 7.67708,5.19707 v 2 c 0,2.87026 -3.43714,5.19706 -7.67708,5.19706 -4.23993,0 -7.67708,-2.3268 -7.67708,-5.19706 z"
       id="path20518-8-7-1-6"
       sodipodi:nodetypes="sssssss" />
  </g>
  <g
     inkscape:groupmode="layer"
     id="layer7"
     inkscape:label="流砂.01"
     sodipodi:insensitive="true">
    <path
       style="display:inline;fill:#decd87;stroke:#000000;stroke-width:2;stroke-linecap:round;stroke-linejoin:round;stroke-opacity:1"
       d="m 303.32405,301.13691 c -8.26351,-2.04557 -37.02557,-5.73331 -44.85374,-5.33368 -5.80701,0.29646 -0.32806,4.97668 -7.9049,5.36363 -8.96267,0.45774 -30.15945,-7.41846 -34.22724,-1.46285 -10.89361,15.94925 -13.27174,1.42466 -29.16183,2.93179 -5.14017,0.48753 -19.42132,-0.92944 -30.08223,1.79816 -10.02333,2.56447 -16.93482,-3.87683 -25.15587,-2.91366 -11.1185,1.30263 4.34663,-10.26764 -15.77171,-8.69746 -25.090127,1.95823 -20.006073,-1.69015 -7.47817,-8.32478 38.75293,-20.52309 -69.493995,-25.7943 -80.013087,-28.31673 -4.954614,-1.18809 7.220066,-3.92126 11.416788,-6.14891 3.522988,-1.87003 0.868,-5.22043 5.048127,-7.67528 2.496452,-1.46608 -2.034619,-4.71107 0.569202,-6.06113 3.562066,-1.84689 -1.266938,-3.52261 3.321972,-4.85585 8.698727,-2.52728 20.552624,1.56869 29.482622,-0.81888 18.948622,-5.06621 -3.294254,-22.65689 16.433184,-25.42329 2.083218,-0.29213 -2.982752,-8.33967 4.251681,-8.74416 7.821921,-0.43733 12.991531,-2.38995 14.163001,-5.46552 1.07936,-2.83373 -5.47874,-3.98965 -1.99235,-5.08956 12.70647,-4.00871 34.91813,0.58017 40.78791,-1.09742 19.3838,-5.5399 88.21698,30.4237 117.08408,6.77816 7.48049,-6.12739 23.624,-6.06849 27.53076,-6.1448 13.45594,-0.26285 -17.41207,10.05549 4.94251,10.92762 20.31545,0.79259 -2.16265,6.72783 10.31188,7.80823 24.37678,2.11123 4.57949,9.12546 20.04511,8.16407 37.49088,-2.33054 -33.57812,8.0936 -9.32931,22.24231 8.70248,5.07772 2.19441,9.65945 21.15334,13.56771 13.80696,2.84622 3.46216,7.75531 -10.69284,10.11566 -26.53546,4.4248 8.28453,21.06551 -17.34395,18.81012 -18.73438,-1.64868 9.63203,13.47951 -2.02468,10.72011 -9.74527,-2.30692 2.70605,6.13737 -9.74824,4.59536 -7.94658,-0.9839 10.39141,11.51198 -0.76202,8.75103 z"
       id="path17406-5-6-9"
       inkscape:connector-curvature="0"
       sodipodi:nodetypes="ssssssssssssssssssssssssssssssss" />
  </g>
  <g
     inkscape:groupmode="layer"
     id="layer3"
     inkscape:label="豚.01"
     style="display:inline"
     sodipodi:insensitive="true">
    <path
       inkscape:connector-curvature="0"
       id="path17261-5-7-2"
       d="m 274.94613,185.13456 -4.33924,-23.58495 c 2.526,-14.35114 -8.46534,-31.80447 -24.34953,-35.24346 l -84.68878,58.09231 121.04694,55.65404 c 10.95432,-17.98359 12.47903,-35.58366 -7.66939,-54.91794 z"
       style="display:inline;fill:#ffd5d5;stroke:#000000;stroke-width:2;stroke-linecap:round;stroke-linejoin:round;stroke-opacity:1"
       sodipodi:nodetypes="cccccc" />
    <path
       style="display:inline;fill:#ffd5d5;stroke:#000000;stroke-width:2;stroke-linecap:round;stroke-linejoin:round;stroke-opacity:1"
       d="m 278.11406,207.17494 c 11.01178,19.27906 18.9963,45.3928 -3.43348,64.21187 -24.73482,20.75305 -88.10519,10.40355 -110.57921,-0.21643 -36.93939,-17.45545 -34.19097,-52.64904 -5.61975,-89.26968"
       id="path17261-4"
       sodipodi:nodetypes="cssc" />
    <path
       style="display:inline;fill:#ffd5d5;stroke:#000000;stroke-width:2;stroke-linecap:round;stroke-linejoin:round;stroke-opacity:1"
       d="m 268.33112,157.87195 c 9.82877,14.33721 9.85942,32.58095 -1.49752,44.79887"
       id="path17390-8"
       inkscape:connector-curvature="0"
       sodipodi:nodetypes="cc" />
    <path
       sodipodi:nodetypes="csc"
       inkscape:connector-curvature="0"
       id="path5977-8"
       d="m 257.36539,137.18409 c -16.22414,-22.82374 -53.90095,-26.33861 -77.7235,0.25861 -19.23875,21.47949 -28.77703,44.61971 -19.65223,53.10661"
       style="display:inline;fill:#ffd5d5;stroke:#000000;stroke-width:2;stroke-linecap:round;stroke-linejoin:round;stroke-opacity:1" />
    <path
       style="display:inline;fill:#ffaaaa;stroke:#000000;stroke-width:2;stroke-linecap:round;stroke-linejoin:round;stroke-opacity:1"
       d="m 249.61764,168.06271 c 7.31173,-0.94758 12.42423,3.68955 14.10675,12.75611 1.06746,5.75211 0.6404,17.81289 -6.33819,18.67205 -6.48702,0.79867 -17.79785,4.20473 -26.0406,5.49953 -7.34947,1.1545 -12.05148,-3.85481 -7.85271,-12.63904 4.4745,-9.36114 15.12534,-22.8631 26.12475,-24.28865 z"
       id="path17394-2"
       inkscape:connector-curvature="0"
       sodipodi:nodetypes="ssssss" />
    <path
       style="display:inline;fill:#ffd5d5;stroke:#000000;stroke-width:2;stroke-linecap:round;stroke-linejoin:round;stroke-opacity:1"
       d="m 196.25053,127.02871 c -37.06866,6.76553 -37.34966,49.24066 -20.59571,56.32403 4.59282,1.94178 17.42906,-15.05054 26.7629,-24.93302"
       id="path17398-4"
       inkscape:connector-curvature="0"
       sodipodi:nodetypes="csc" />
    <path
       style="display:inline;fill:none;stroke:#000000;stroke-width:2;stroke-linecap:round;stroke-linejoin:round;stroke-opacity:1"
       d="m 253.56904,156.98252 -0.87514,4.06005"
       id="path17404-5"
       inkscape:connector-curvature="0"
       sodipodi:nodetypes="cc" />
    <path
       style="display:inline;fill:none;stroke:#000000;stroke-width:2;stroke-linecap:round;stroke-linejoin:round;stroke-opacity:1"
       d="m 234.16414,164.95224 -3.32887,-3.90299"
       id="path17406-5"
       inkscape:connector-curvature="0"
       sodipodi:nodetypes="cc" />
    <path
       style="display:inline;fill:#000000;stroke:#000000;stroke-width:2;stroke-linecap:round;stroke-linejoin:round;stroke-opacity:1"
       d="m 244.64537,177.7981 c -3.03071,0.53069 -11.36241,12.54201 -8.7256,18.80514 1.19249,2.83249 10.58188,-19.13016 8.7256,-18.80514 z"
       id="path17408-1"
       inkscape:connector-curvature="0"
       sodipodi:nodetypes="sss" />
    <path
       style="display:inline;fill:#000000;stroke:#000000;stroke-width:2;stroke-linecap:round;stroke-linejoin:round;stroke-opacity:1"
       d="m 252.68017,176.73546 c -1.60286,-0.17094 -1.4413,18.00431 0.93349,16.08803 4.08222,-3.29404 1.76072,-15.80066 -0.93349,-16.08803 z"
       id="path17410-7"
       inkscape:connector-curvature="0"
       sodipodi:nodetypes="sss" />
    <path
       inkscape:connector-curvature="0"
       id="path17261-5-7-2-2"
       d="m 157.45127,218.18768 c -3.76218,13.98701 18.75072,55.01062 38.98499,6.99203"
       style="display:inline;fill:#ffd5d5;stroke:#000000;stroke-width:2;stroke-linecap:round;stroke-linejoin:round;stroke-opacity:1"
       sodipodi:nodetypes="cc" />
  </g>
  <g
     inkscape:groupmode="layer"
     id="layer8"
     inkscape:label="流砂.02"
     style="display:inline"
     sodipodi:insensitive="true">
    <path
       style="display:inline;fill:#decd87;fill-opacity:1;stroke:none;stroke-width:2;stroke-linecap:round;stroke-linejoin:round;stroke-opacity:1"
       d="m 295.67244,286.26247 -9.08673,-21.75307 -18.9883,4.25334 -69.15811,11.01913 -15.67786,17.97093 z"
       id="path17406-5-6-8-3-4"
       inkscape:connector-curvature="0"
       sodipodi:nodetypes="cccccc" />
    <path
       style="display:inline;fill:#decd87;fill-opacity:1;stroke:#000000;stroke-width:2;stroke-linecap:round;stroke-linejoin:round;stroke-opacity:1"
       d="m 147.70097,262.02414 c -3.03218,-12.57166 -19.3279,-26.2616 -40.51149,-32.1375"
       id="path17406-5-6-8-5"
       inkscape:connector-curvature="0"
       sodipodi:nodetypes="cc" />
    <path
       style="display:inline;fill:#decd87;fill-opacity:1;stroke:#000000;stroke-width:2;stroke-linecap:round;stroke-linejoin:round;stroke-opacity:1"
       d="m 171.18008,277.15768 c -9.6449,-17.68149 -42.17185,-24.45813 -64.55775,-23.12015"
       id="path17406-5-6-8"
       inkscape:connector-curvature="0"
       sodipodi:nodetypes="cc" />
    <path
       style="display:inline;fill:#decd87;fill-opacity:1;stroke:#000000;stroke-width:2;stroke-linecap:round;stroke-linejoin:round;stroke-opacity:1"
       d="m 318.02575,256.51759 c -34.89696,-1.90459 -58.41864,11.30125 -63.14916,18.81495"
       id="path17406-5-6-8-3-5"
       inkscape:connector-curvature="0"
       sodipodi:nodetypes="cc" />
    <path
       style="display:inline;fill:#decd87;fill-opacity:1;stroke:#000000;stroke-width:2;stroke-linecap:round;stroke-linejoin:round;stroke-opacity:1"
       d="m 284.46411,276.91345 c -11.35213,-12.40766 -90.24807,-6.95302 -79.98154,5.89008"
       id="path17406-5-6-8-3"
       inkscape:connector-curvature="0"
       sodipodi:nodetypes="cc" />
    <path
       style="display:inline;fill:#decd87;fill-opacity:1;stroke:#000000;stroke-width:2;stroke-linecap:round;stroke-linejoin:round;stroke-opacity:1"
       d="m 211.57132,286.66005 c -1.34189,-16.20595 -58.05558,-18.75411 -63.05485,-9.59412"
       id="path17406-5-6-8-1"
       inkscape:connector-curvature="0"
       sodipodi:nodetypes="cc" />
  </g>
  <g
     inkscape:groupmode="layer"
     id="layer5"
     inkscape:label="吹き出し"
     sodipodi:insensitive="true">
    <path
       style="display:inline;fill:#fefefe;fill-opacity:1;stroke:#000000;stroke-width:2;stroke-linecap:round;stroke-linejoin:round"
       d="m 269.56716,61.486941 c 0,21.274041 -34.06496,39.445389 -82.08403,46.671509 -7.9131,1.19081 -17.92438,8.76147 -11.85076,20.09423 -18.72068,-6.2534 -27.02254,-16.75756 -34.30254,-16.75756 -70.823529,0 -128.237354,-22.389426 -128.237354,-50.008179 0,-27.618751 57.413825,-50.008162 128.237354,-50.008162 70.82352,0 128.23733,22.389411 128.23733,50.008162 z"
       id="path23824"
       inkscape:connector-curvature="0"
       sodipodi:nodetypes="sscssss" />
    <text
       xml:space="preserve"
       style="font-style:normal;font-weight:normal;font-size:25.9136px;line-height:0%;font-family:sans-serif;letter-spacing:0px;word-spacing:0px;writing-mode:lr-tb;display:inline;fill:#000000;fill-opacity:1;stroke:none;stroke-width:2.42119"
       x="29.542009"
       y="51.702225"
       id="text13157"><tspan
         sodipodi:role="line"
         x="29.542009"
         y="51.702225"
         style="font-size:25.9136px;line-height:1;font-family:sans-serif;stroke-width:2.42119"
         id="tspan22162" /></text>
    <text
       xml:space="preserve"
       style="font-size:26.6667px;line-height:1;font-family:'UD Digi Kyokasho NP-R';-inkscape-font-specification:'UD Digi Kyokasho NP-R';letter-spacing:0px;word-spacing:0px"
       x="27.63122"
       y="52.930019"
       id="text5874"><tspan
         sodipodi:role="line"
         id="tspan5872"
         x="27.63122"
         y="52.930019">　すっかり</tspan><tspan
         sodipodi:role="line"
         x="27.63122"
         y="79.596718"
         id="tspan5876">はまってしまった。</tspan></text>
  </g>
  <g
     inkscape:groupmode="layer"
     id="layer2"
     inkscape:label="枠面"
     sodipodi:insensitive="true"
     style="display:inline">
    <path
       style="display:inline;fill:#ffffff;stroke:none"
       d="M 0,0 V 320 H 370 V 0 L 360,10 V 310 H 10 V 10 H 360 L 370,0 Z"
       id="path21072"
       inkscape:connector-curvature="0"
       sodipodi:nodetypes="ccccccccccc" />
  </g>
</svg>
