<?xml version="1.0" encoding="UTF-8" standalone="no"?>
<svg
   xmlns:dc="http://purl.org/dc/elements/1.1/"
   xmlns:cc="http://creativecommons.org/ns#"
   xmlns:rdf="http://www.w3.org/1999/02/22-rdf-syntax-ns#"
   xmlns:svg="http://www.w3.org/2000/svg"
   xmlns="http://www.w3.org/2000/svg"
   xmlns:sodipodi="http://sodipodi.sourceforge.net/DTD/sodipodi-0.dtd"
   xmlns:inkscape="http://www.inkscape.org/namespaces/inkscape"
   width="370"
   height="320"
   id="svg3172"
   version="1.1"
   inkscape:version="1.0.2-2 (e86c870879, 2021-01-15)"
   sodipodi:docname="[33]依頼.svg"
   inkscape:export-filename="C:\Users\zhen-\Desktop\資料\臨時\TAKEDA2\[33]依頼.png"
   inkscape:export-xdpi="96"
   inkscape:export-ydpi="96">
  <defs
     id="defs3174" />
  <sodipodi:namedview
     id="base"
     pagecolor="#ffffff"
     bordercolor="#666666"
     borderopacity="1.0"
     inkscape:pageopacity="0.0"
     inkscape:pageshadow="2"
     inkscape:zoom="1.728039"
     inkscape:cx="92.603712"
     inkscape:cy="306.09021"
     inkscape:document-units="px"
     inkscape:current-layer="layer9"
     showgrid="false"
     inkscape:window-width="1678"
     inkscape:window-height="1033"
     inkscape:window-x="118"
     inkscape:window-y="0"
     inkscape:window-maximized="0"
     inkscape:document-rotation="0"
     inkscape:snap-global="false" />
  <metadata
     id="metadata3177">
    <rdf:RDF>
      <cc:Work
         rdf:about="">
        <dc:format>image/svg+xml</dc:format>
        <dc:type
           rdf:resource="http://purl.org/dc/dcmitype/StillImage" />
        <dc:title />
      </cc:Work>
    </rdf:RDF>
  </metadata>
  <g
     inkscape:label="補助線"
     inkscape:groupmode="layer"
     id="layer1"
     transform="translate(0,-732.36218)"
     sodipodi:insensitive="true"
     style="display:none">
    <path
       style="display:inline;fill:none;stroke:#0000ff;stroke-width:1px;stroke-linecap:butt;stroke-linejoin:miter;stroke-opacity:1"
       d="M 10,1042.3622 360,742.36211"
       id="path3025"
       inkscape:connector-curvature="0"
       sodipodi:nodetypes="cc" />
    <path
       style="display:inline;fill:none;stroke:#0000ff;stroke-width:1px;stroke-linecap:butt;stroke-linejoin:miter;stroke-opacity:1"
       d="M 10,742.36211 360,1042.3622"
       id="path3027"
       inkscape:connector-curvature="0"
       sodipodi:nodetypes="cc" />
    <path
       style="display:inline;fill:none;stroke:#ff0000;stroke-width:1px;stroke-linecap:butt;stroke-linejoin:miter;stroke-opacity:1"
       d="M 10,732.36211 V 1052.3622"
       id="path3006"
       inkscape:connector-curvature="0"
       sodipodi:nodetypes="cc" />
    <path
       style="display:inline;fill:none;stroke:#ff0000;stroke-width:1px;stroke-linecap:butt;stroke-linejoin:miter;stroke-opacity:1"
       d="M 360,732.36211 V 1052.3622"
       id="path3010"
       inkscape:connector-curvature="0"
       sodipodi:nodetypes="cc" />
    <path
       style="display:inline;fill:none;stroke:#ff0000;stroke-width:1px;stroke-linecap:butt;stroke-linejoin:miter;stroke-opacity:1"
       d="m 0,742.36208 370,3e-5"
       id="path3016"
       inkscape:connector-curvature="0" />
    <path
       style="display:inline;fill:none;stroke:#ff0000;stroke-width:1px;stroke-linecap:butt;stroke-linejoin:miter;stroke-opacity:1"
       d="M 0,1042.3622 H 370"
       id="path3018"
       inkscape:connector-curvature="0"
       sodipodi:nodetypes="cc" />
  </g>
  <g
     inkscape:groupmode="layer"
     id="layer10"
     inkscape:label="作業"
     style="display:none" />
  <g
     inkscape:groupmode="layer"
     id="layer9"
     inkscape:label="豚.02"
     style="display:inline"
     sodipodi:insensitive="true">
    <ellipse
       id="path3214-1-6"
       style="opacity:0.5;fill:#000000;fill-opacity:1;stroke:none;stroke-width:2;stroke-linecap:round;stroke-linejoin:round;stroke-miterlimit:4;stroke-dasharray:none"
       cx="-279.4729"
       cy="278.10025"
       rx="74.594307"
       ry="11.613808"
       transform="scale(-1,1)" />
    <path
       style="display:inline;fill:#ffd5d5;stroke:#000000;stroke-width:2;stroke-linecap:round;stroke-linejoin:round;stroke-miterlimit:4;stroke-dasharray:none;stroke-opacity:1"
       d="m 334.08652,215.3056 c 5.06514,14.1758 0.006,28.44213 5.85636,40.62667 4.63115,9.6447 3.78663,17.7131 -3.25046,18.39737 -11.24008,1.09296 -15.53818,-1.32449 -24.26828,-8.41665"
       id="path3240-6"
       inkscape:connector-curvature="0"
       sodipodi:nodetypes="cssc" />
    <path
       sodipodi:nodetypes="cccccccc"
       inkscape:connector-curvature="0"
       id="path3386-3-7-1"
       d="m 334.39057,213.70526 -15.39762,55.21634 -88.29666,-1.96607 -21.1023,-7.46185 28.15653,-59.99361 91.19264,-34.87332 7.91294,23.10827 z"
       style="display:inline;fill:#ffd5d5;stroke:none;stroke-width:2;stroke-linecap:round;stroke-linejoin:round;stroke-miterlimit:4;stroke-dasharray:none" />
    <path
       sodipodi:nodetypes="cc"
       inkscape:connector-curvature="0"
       id="path5091-2-40-9-2-3-0"
       d="m 324.12498,158.96202 c 15.33793,6.52796 20.16616,27.20046 14.01068,32.93506"
       style="display:inline;fill:#ffd5d5;stroke:#000000;stroke-width:2;stroke-linecap:round;stroke-linejoin:round;stroke-miterlimit:4;stroke-dasharray:none;stroke-opacity:1" />
    <path
       sodipodi:nodetypes="cc"
       inkscape:connector-curvature="0"
       id="path3327-4-9-3"
       d="M 240.56445,193.62649 C 220.17983,208.99437 197.2769,246.488 209.97241,262.226"
       style="display:inline;fill:#ffd5d5;stroke:#000000;stroke-width:2;stroke-linecap:round;stroke-linejoin:round;stroke-miterlimit:4;stroke-dasharray:none;stroke-opacity:1" />
    <path
       sodipodi:nodetypes="cssc"
       inkscape:connector-curvature="0"
       id="path3333-4-8-2"
       d="m 212.65715,258.74304 c -18.31433,8.69982 -19.87446,21.37558 -6.95494,23.22641 16.24181,2.32678 54.96287,4.31234 86.92482,3.55393 29.80475,-0.70721 39.79267,-25.6549 35.26428,-50.2832"
       style="display:inline;fill:#ffd5d5;stroke:#000000;stroke-width:2;stroke-linecap:round;stroke-linejoin:round;stroke-miterlimit:4;stroke-dasharray:none;stroke-opacity:1" />
    <path
       sodipodi:nodetypes="csc"
       inkscape:connector-curvature="0"
       id="path4041-7-7"
       d="m 331.51974,169.12841 c -12.50996,-27.31369 -49.16155,-26.25259 -66.76828,-6.86726 -14.00942,15.42462 -30.63571,32.94896 -24.52211,41.26949"
       style="display:inline;fill:#ffd5d5;stroke:#000000;stroke-width:2;stroke-linecap:round;stroke-linejoin:round;stroke-miterlimit:4;stroke-dasharray:none;stroke-opacity:1" />
    <path
       sodipodi:nodetypes="cc"
       inkscape:connector-curvature="0"
       id="path5093-4-9-4-4-1-2"
       d="m 336.58156,187.61334 c 5.36836,12.38694 6.5449,26.98477 -6.48044,37.69637"
       style="display:inline;fill:#ffd5d5;stroke:#000000;stroke-width:2;stroke-linecap:round;stroke-linejoin:round;stroke-miterlimit:4;stroke-dasharray:none;stroke-opacity:1" />
    <path
       inkscape:connector-curvature="0"
       id="path5095-5-4-8-5-2-1"
       d="m 327.95076,186.85144 -0.44777,3.29846"
       style="display:inline;fill:none;stroke:#000000;stroke-width:2;stroke-linecap:round;stroke-linejoin:round;stroke-miterlimit:4;stroke-dasharray:none;stroke-opacity:1"
       sodipodi:nodetypes="cc" />
    <path
       inkscape:connector-curvature="0"
       id="path5097-5-8-8-5-3-0"
       d="m 309.46703,186.96972 0.72206,2.63363"
       style="display:inline;fill:none;stroke:#000000;stroke-width:2;stroke-linecap:round;stroke-linejoin:round;stroke-miterlimit:4;stroke-dasharray:none;stroke-opacity:1"
       sodipodi:nodetypes="cc" />
    <path
       sodipodi:nodetypes="csc"
       inkscape:connector-curvature="0"
       id="path5099-1-8-2-7-3-7"
       d="m 279.00807,153.63597 c -30.46021,0.66899 -33.41822,38.28357 -23.18369,44.14474 5.94203,3.40292 20.55019,-12.39416 27.65574,-17.8344"
       style="display:inline;fill:#ffd5d5;stroke:#000000;stroke-width:2;stroke-linecap:round;stroke-linejoin:round;stroke-miterlimit:4;stroke-dasharray:none;stroke-opacity:1" />
    <path
       sodipodi:nodetypes="ssssss"
       inkscape:connector-curvature="0"
       id="path5101-7-2-4-1-4-2"
       d="m 322.65522,194.36023 c -8.21192,0.69884 -16.22574,7.80384 -21.7561,15.49533 -5.86881,8.16219 -3.67764,14.80115 2.66431,13.69908 6.11193,-1.0621 15.15017,-1.6026 19.97548,-2.31667 5.92971,-0.87751 7.40625,-8.36794 7.83801,-13.79875 0.61106,-7.6861 -2.63714,-13.59679 -8.7217,-13.07899 z"
       style="display:inline;fill:#ffaaaa;stroke:#000000;stroke-width:2;stroke-linecap:round;stroke-linejoin:round;stroke-miterlimit:4;stroke-dasharray:none;stroke-opacity:1" />
    <path
       inkscape:connector-curvature="0"
       id="path5105-1-4-55-1-28-1-2"
       d="m 307.44201,216.0025 c 0.283,2.81421 10.88974,-12.51131 9.38246,-12.88015 -1.53878,-0.37654 -10.05831,6.15924 -9.38246,12.88015 z"
       style="display:inline;fill:#000000;stroke:#000000;stroke-width:2;stroke-linecap:round;stroke-linejoin:round;stroke-miterlimit:4;stroke-dasharray:none"
       sodipodi:nodetypes="sss" />
    <path
       inkscape:connector-curvature="0"
       id="path5107-1-5-1-5-1-6"
       d="m 324.55164,202.68746 c -0.65257,-0.94884 -4.85013,13.91709 -2.8069,12.93757 3.76911,-1.80691 4.09486,-11.06486 2.8069,-12.93757 z"
       style="display:inline;fill:#000000;stroke:#000000;stroke-width:2;stroke-linecap:round;stroke-linejoin:round;stroke-miterlimit:4;stroke-dasharray:none"
       sodipodi:nodetypes="sss" />
    <path
       style="display:inline;fill:#ffd5d5;stroke:#000000;stroke-width:2;stroke-linecap:round;stroke-linejoin:round;stroke-miterlimit:4;stroke-dasharray:none;stroke-opacity:1"
       d="m 267.83565,271.64482 c 3.77251,1.71259 16.26489,17.97974 42.5366,13.68647 13.54512,-2.21352 11.75985,-9.58125 5.7618,-17.23255 -9.02266,-11.50959 -12.17409,-26.7457 -18.95065,-34.99044"
       id="path5089-8-7-0-8-2-4-0"
       inkscape:connector-curvature="0"
       sodipodi:nodetypes="cssc" />
  </g>
  <g
     inkscape:groupmode="layer"
     id="layer3"
     inkscape:label="豚.01"
     sodipodi:insensitive="true">
    <path
       style="display:inline;fill:#ffd5d5;stroke:#000000;stroke-width:2;stroke-linecap:round;stroke-linejoin:round;stroke-miterlimit:4;stroke-dasharray:none;stroke-opacity:1"
       d="m 156.28351,205.16284 c 14.14633,5.88691 34.45036,16.54808 32.31804,25.85543 -3.3873,14.78521 -37.23204,17.06487 -31.558,15.14745"
       id="path3240"
       inkscape:connector-curvature="0"
       sodipodi:nodetypes="csc" />
    <ellipse
       id="path3214-1"
       style="opacity:0.5;fill:#000000;fill-opacity:1;stroke:none;stroke-width:2;stroke-linecap:round;stroke-linejoin:round;stroke-miterlimit:4;stroke-dasharray:none"
       cx="-88.409035"
       cy="286.44449"
       rx="74.594307"
       ry="11.613808"
       transform="scale(-1,1)" />
    <path
       sodipodi:nodetypes="cccccccc"
       inkscape:connector-curvature="0"
       id="path3386-3-7"
       d="m 156.1955,203.44027 4.97624,32.51477 -98.31999,48.23883 -28.761785,-16.93268 17.862502,-61.22254 90.821663,-47.9861 11.35135,22.73335 z"
       style="display:inline;fill:#ffd5d5;stroke:none;stroke-width:2;stroke-linecap:round;stroke-linejoin:round;stroke-miterlimit:4;stroke-dasharray:none" />
    <path
       sodipodi:nodetypes="cc"
       inkscape:connector-curvature="0"
       id="path5091-2-40-9-2-3"
       d="m 135.30744,151.70146 c 17.4145,5.20408 24.95862,22.37179 19.5011,31.85365"
       style="display:inline;fill:#ffd5d5;stroke:#000000;stroke-width:2;stroke-linecap:round;stroke-linejoin:round;stroke-miterlimit:4;stroke-dasharray:none;stroke-opacity:1" />
    <path
       sodipodi:nodetypes="cscc"
       inkscape:connector-curvature="0"
       id="path3333-4-8"
       d="m 33.430063,263.44655 c -12.281125,5.41976 -12.301173,15.8704 -6.749763,19.65238 6.95105,4.7355 31.482762,7.17516 48.153002,5.84295 42.816138,7.82613 92.805688,1.78506 82.185938,-57.36858"
       style="display:inline;fill:#ffd5d5;stroke:#000000;stroke-width:2;stroke-linecap:round;stroke-linejoin:round;stroke-miterlimit:4;stroke-dasharray:none;stroke-opacity:1" />
    <path
       sodipodi:nodetypes="cc"
       inkscape:connector-curvature="0"
       id="path3327-4-9"
       d="M 55.834355,199.97955 C 32.305537,221.47759 22.662476,259.48788 37.557956,271.21741"
       style="display:inline;fill:#ffd5d5;stroke:#000000;stroke-width:2;stroke-linecap:round;stroke-linejoin:round;stroke-miterlimit:4;stroke-dasharray:none;stroke-opacity:1" />
    <path
       sodipodi:nodetypes="csc"
       inkscape:connector-curvature="0"
       id="path4041-7"
       d="M 143.71892,158.95704 C 121.91414,135.48562 87.562701,140.37057 70.318653,165.40624 57.803488,183.57631 46.489379,202.35801 54.862874,209.387"
       style="display:inline;fill:#ffd5d5;stroke:#000000;stroke-width:2;stroke-linecap:round;stroke-linejoin:round;stroke-miterlimit:4;stroke-dasharray:none;stroke-opacity:1" />
    <path
       sodipodi:nodetypes="cc"
       inkscape:connector-curvature="0"
       id="path5093-4-9-4-4-1"
       d="m 152.80166,179.3208 c 9.02312,13.44088 7.73126,30.01691 -1.57678,40.65026"
       style="display:inline;fill:#ffd5d5;stroke:#000000;stroke-width:2;stroke-linecap:round;stroke-linejoin:round;stroke-miterlimit:4;stroke-dasharray:none;stroke-opacity:1" />
    <path
       inkscape:connector-curvature="0"
       id="path5095-5-4-8-5-2"
       d="m 143.72341,177.82179 -0.47924,3.06577"
       style="display:inline;fill:none;stroke:#000000;stroke-width:2;stroke-linecap:round;stroke-linejoin:round;stroke-miterlimit:4;stroke-dasharray:none;stroke-opacity:1"
       sodipodi:nodetypes="cc" />
    <path
       inkscape:connector-curvature="0"
       id="path5097-5-8-8-5-3"
       d="m 124.73033,179.99307 1.5204,2.76526"
       style="display:inline;fill:none;stroke:#000000;stroke-width:2;stroke-linecap:round;stroke-linejoin:round;stroke-miterlimit:4;stroke-dasharray:none;stroke-opacity:1"
       sodipodi:nodetypes="cc" />
    <path
       sodipodi:nodetypes="csc"
       inkscape:connector-curvature="0"
       id="path5099-1-8-2-7-3"
       d="m 85.216091,151.84174 c -31.16978,8.31694 -26.989589,44.21608 -14.99243,47.68281 6.965381,2.01274 18.839592,-16.61887 25.078955,-22.79704"
       style="display:inline;fill:#ffd5d5;stroke:#000000;stroke-width:2;stroke-linecap:round;stroke-linejoin:round;stroke-miterlimit:4;stroke-dasharray:none;stroke-opacity:1" />
    <path
       sodipodi:nodetypes="ssssss"
       inkscape:connector-curvature="0"
       id="path5101-7-2-4-1-4"
       d="m 140.58792,185.52344 c -7.12512,0.52051 -16.30178,9.85843 -20.9073,18.30375 -5.09632,9.34532 -3.33641,16.32082 5.0371,15.25932 6.49502,-0.82337 14.91734,-1.97693 20.10287,-2.80783 6.26705,-1.0042 6.81925,-9.85505 6.50249,-15.61484 -0.47854,-8.70141 -3.89594,-15.64003 -10.73516,-15.1404 z"
       style="display:inline;fill:#ffaaaa;stroke:#000000;stroke-width:2;stroke-linecap:round;stroke-linejoin:round;stroke-miterlimit:4;stroke-dasharray:none;stroke-opacity:1" />
    <path
       inkscape:connector-curvature="0"
       id="path5105-1-4-55-1-28-1"
       d="m 127.75603,211.59766 c 0.41053,2.96656 9.62322,-15.57652 7.98016,-15.57849 -1.67738,-0.002 -8.96071,8.49299 -7.98016,15.57849 z"
       style="display:inline;fill:#000000;stroke:#000000;stroke-width:2;stroke-linecap:round;stroke-linejoin:round;stroke-miterlimit:4;stroke-dasharray:none"
       sodipodi:nodetypes="sss" />
    <path
       inkscape:connector-curvature="0"
       id="path5107-1-5-1-5-1"
       d="m 143.00086,194.99148 c -0.909,-0.81272 -2.55075,17.13918 -1.03993,15.27541 3.4842,-4.29814 2.83399,-13.67134 1.03993,-15.27541 z"
       style="display:inline;fill:#000000;stroke:#000000;stroke-width:2;stroke-linecap:round;stroke-linejoin:round;stroke-miterlimit:4;stroke-dasharray:none"
       sodipodi:nodetypes="sss" />
    <path
       style="display:inline;fill:#ffd5d5;stroke:#000000;stroke-width:2;stroke-linecap:round;stroke-linejoin:round;stroke-miterlimit:4;stroke-dasharray:none;stroke-opacity:1"
       d="m 104.02703,270.20887 c 4.31006,0.8171 32.34521,-1.90155 39.10391,-14.04483 3.2085,-5.76469 2.27531,-23.94917 -4.85496,-24.17838 -9.55031,-0.30701 -20.95515,-10.12562 -29.13925,-11.59029"
       id="path5089-8-7-0-8-2-4"
       inkscape:connector-curvature="0"
       sodipodi:nodetypes="cssc" />
  </g>
  <g
     inkscape:groupmode="layer"
     id="layer8"
     inkscape:label="土産"
     sodipodi:insensitive="true"
     style="display:inline">
    <path
       style="display:inline;opacity:0.5;fill:#000000;fill-opacity:1;stroke:none;stroke-width:2;stroke-linecap:round;stroke-linejoin:round;stroke-opacity:1"
       d="m 287.47284,293.21479 c -18.94195,4.6563 -43.99796,8.7434 -66.53286,12.05235 -26.30565,-2.40385 -53.85482,-5.04924 -76.41018,-8.39066 l -1.40208,-2.67927 99.68398,-6.15032 z"
       id="path6-3-9-1-2-7-3"
       sodipodi:nodetypes="cccccc" />
    <path
       style="display:inline;fill:#6f916f;fill-opacity:1;stroke:#000000;stroke-width:2;stroke-linecap:round;stroke-linejoin:round;stroke-opacity:1"
       d="m 266.05712,292.8441 c -18.7128,2.74362 -35.91719,5.47785 -54.2651,7.49169 l -67.80252,-6.64681 c -2.20212,-22.79815 -1.69786,-52.73484 -1.8388,-79.65535 14.3997,-4.15751 28.79941,-11.47116 43.19911,-18.40946 l 25.07066,-0.80358 58.01876,19.25424 c 0.27282,26.63543 0.64617,53.14793 -2.38211,78.76927 z"
       id="path6-3-9-1-2"
       sodipodi:nodetypes="cccccccc" />
    <path
       style="display:inline;opacity:0.1;fill:#000000;fill-opacity:1;stroke:none;stroke-width:2;stroke-linecap:round;stroke-linejoin:round;stroke-opacity:1"
       d="m 266.05712,292.8441 c -18.71279,2.74362 -35.85273,4.39528 -54.20064,6.40912 l -67.86698,-5.56424 c -2.20212,-22.79814 -1.69786,-52.73485 -1.8388,-79.65535 22.06482,-2.56399 44.48237,-0.009 66.66985,1.06135 l 59.68278,-2.10275 c -0.44312,27.55075 0.21782,56.30502 -2.44621,79.85187 z"
       id="path6-3-9-1-2-7"
       sodipodi:nodetypes="ccccccc" />
    <path
       style="display:inline;opacity:0.2;fill:#000000;fill-opacity:1;stroke:none;stroke-width:2;stroke-linecap:round;stroke-linejoin:round;stroke-opacity:1"
       d="m 266.05712,292.8441 c -18.7128,2.74362 -35.91719,5.47785 -54.2651,7.49169 L 208.8208,215.0949 c 2.94737,-4.33028 3.30595,-8.22762 3.8617,-15.01316 0.58096,-7.09327 7.22328,-0.47026 4.99495,-1.54789 l 50.76178,15.54098 c 0.27282,26.63543 0.64617,53.14793 -2.38211,78.76927 z"
       id="path6-3-9-1-2-2"
       sodipodi:nodetypes="cccsccc" />
    <path
       inkscape:connector-curvature="0"
       id="path5105-1-4-55-1-28-1-2-5"
       d="m 211.85648,299.25322 c -3.68567,9.01375 -6.59669,-79.19975 -3.29739,-84.19373 1.37043,-2.07434 4.34824,9.75937 4.14154,39.9398 -0.14034,20.49051 1.03558,39.65682 -0.84415,44.25393 z"
       style="display:inline;opacity:0.2;fill:#000000;stroke:none;stroke-width:2;stroke-linecap:round;stroke-linejoin:round;stroke-miterlimit:4;stroke-dasharray:none"
       sodipodi:nodetypes="ssss" />
    <path
       inkscape:connector-curvature="0"
       id="path5097-5-8-8-5-3-2"
       d="m 211.95602,199.7104 c 2.13822,4.5166 -3.15071,14.57985 -3.13522,15.3845 0.53333,27.71933 0.31848,58.05141 2.97122,85.24089"
       style="display:inline;fill:none;stroke:#000000;stroke-width:2;stroke-linecap:round;stroke-linejoin:round;stroke-miterlimit:4;stroke-dasharray:none;stroke-opacity:1"
       sodipodi:nodetypes="csc" />
    <path
       style="display:inline;fill:#6f916f;fill-opacity:1;stroke:#000000;stroke-width:2;stroke-linecap:round;stroke-linejoin:round;stroke-opacity:1"
       d="m 257.15046,209.77261 c -18.71279,2.74362 -26.54651,-6.31319 -39.47301,-11.23876 l -16.01384,3.37208 c -6.65811,1.34223 -16.95884,22.983 -41.86443,29.12968 -0.32054,-19.18003 2.35384,-34.92811 10.13951,-42.44273 7.66286,-7.39609 20.63523,-5.74324 25.34838,-4.48381 l 18.51952,-1.76737 c 13.82663,-14.11445 44.30691,16.60706 43.34387,27.43091 z"
       id="path6-3-9-1-2-9"
       sodipodi:nodetypes="ccccsccc" />
    <path
       inkscape:connector-curvature="0"
       id="path5097-5-8-8-5-3-7"
       d="m 208.04125,200.53028 c -3.60463,3.75104 -9.82021,10.35765 -15.1641,12.41885"
       style="display:inline;fill:none;stroke:#000000;stroke-width:2;stroke-linecap:round;stroke-linejoin:round;stroke-miterlimit:4;stroke-dasharray:none;stroke-opacity:1"
       sodipodi:nodetypes="cc" />
    <path
       inkscape:connector-curvature="0"
       id="path5105-1-4-55-1-28-1-2-3-1"
       d="m 206.06304,192.0512 c -9.57273,-1.78732 -35.3776,17.57711 -31.25909,13.23395 7.47408,-7.88179 22.79525,-19.3037 26.93958,-17.72626 2.45563,0.93468 8.88948,5.34557 4.31951,4.49231 z"
       style="display:inline;opacity:0.2;fill:#000000;stroke:none;stroke-width:2;stroke-linecap:round;stroke-linejoin:round;stroke-miterlimit:4;stroke-dasharray:none"
       sodipodi:nodetypes="ssss" />
    <path
       style="display:inline;fill:#6f916f;fill-opacity:1;stroke:#000000;stroke-width:2;stroke-linecap:round;stroke-linejoin:round;stroke-opacity:1"
       d="m 216.39544,200.02118 c -5.07427,0.13728 -9.94556,0.88347 -14.73183,1.88475 1.39556,-1.65648 3.35117,-4.42838 2.99283,-6.07138 -1.17518,-5.38835 -5.70049,-12.92088 -9.36937,-11.72548 3.52918,-3.45885 9.11818,-0.9966 17.88809,-2.34019 3.18463,-0.4879 6.75775,6.34222 6.95076,11.82654 0.11823,3.35916 -1.65647,6.36965 -3.73048,6.42576 z"
       id="path6-3-9-1-2-9-8"
       sodipodi:nodetypes="scscsss" />
    <path
       style="display:inline;opacity:0.2;fill:#000000;fill-opacity:1;stroke:none;stroke-width:2;stroke-linecap:round;stroke-linejoin:round;stroke-opacity:1"
       d="m 257.15046,209.77261 c -18.71279,2.74362 -26.54651,-6.31319 -39.47301,-11.23876 -2.79409,4.80687 -10.67589,2.24805 -16.01384,3.37208 -6.65811,1.34223 -16.95884,22.983 -41.86443,29.12968 11.86308,-7.1712 17.98182,-10.94881 24.15512,-19.87687 2.32193,-3.35805 13.63174,-11.95754 19.5363,-13.13092 4.45413,-0.88513 -3.03245,-13.19827 -8.20353,-13.91875 3.38465,-2.44814 11.96116,-1.43504 18.51952,-1.76737 13.82663,-14.11445 44.30691,16.60706 43.34387,27.43091 z"
       id="path6-3-9-1-2-9-0"
       sodipodi:nodetypes="ccccssccc" />
    <path
       inkscape:connector-curvature="0"
       id="path5097-5-8-8-5-3-9"
       d="m 216.39544,200.02118 c -3.25997,0.47734 -4.01513,-3.6899 -9.57968,-3.58644"
       style="display:inline;fill:none;stroke:#000000;stroke-width:2;stroke-linecap:round;stroke-linejoin:round;stroke-miterlimit:4;stroke-dasharray:none;stroke-opacity:1"
       sodipodi:nodetypes="cc" />
  </g>
  <g
     inkscape:groupmode="layer"
     id="layer4"
     inkscape:label="吹き出し"
     sodipodi:insensitive="true">
    <path
       id="path989"
       style="fill:#fefefe;fill-opacity:1;stroke:#000000;stroke-width:2;stroke-linecap:round;stroke-linejoin:round;stroke-miterlimit:4;stroke-dasharray:none"
       d="m 348.82305,80.826162 c 0,30.619048 -61.26498,55.440698 -136.83917,55.440698 -10.8668,0 -39.56609,21.01418 -49.7016,20.04434 4.77014,-6.3145 4.75022,-23.03093 -1.60407,-24.07282 -50.15344,-8.22355 -85.5335,-28.1439 -85.5335,-51.412218 0,-30.61905 61.26499,-55.440696 136.83917,-55.440697 75.57419,0 136.83917,24.821646 136.83917,55.440697 z"
       sodipodi:nodetypes="sscssss" />
    <text
       xml:space="preserve"
       style="font-size:26.6667px;line-height:1;font-family:'UD Digi Kyokasho NP-R';-inkscape-font-specification:'UD Digi Kyokasho NP-R';letter-spacing:0px;word-spacing:0px"
       x="103.14317"
       y="75.147163"
       id="text576"><tspan
         sodipodi:role="line"
         id="tspan574"
         x="103.14317"
         y="75.147163">何卒よろしく</tspan><tspan
         sodipodi:role="line"
         x="103.14317"
         y="101.81387"
         id="tspan578">お願いいたします。</tspan></text>
  </g>
  <g
     inkscape:groupmode="layer"
     id="layer2"
     inkscape:label="枠面"
     sodipodi:insensitive="true">
    <path
       style="fill:#ffffff;stroke:none;display:inline"
       d="m 0,0 0,320 370,0 0,-320 -10,10 0,300 -350,0 0,-300 350,0 10,-10 z"
       id="path21072"
       inkscape:connector-curvature="0"
       sodipodi:nodetypes="ccccccccccc" />
  </g>
</svg>
