<?xml version="1.0" encoding="UTF-8" standalone="no"?>
<!-- Created with Inkscape (http://www.inkscape.org/) -->

<svg
   xmlns:dc="http://purl.org/dc/elements/1.1/"
   xmlns:cc="http://creativecommons.org/ns#"
   xmlns:rdf="http://www.w3.org/1999/02/22-rdf-syntax-ns#"
   xmlns:svg="http://www.w3.org/2000/svg"
   xmlns="http://www.w3.org/2000/svg"
   xmlns:sodipodi="http://sodipodi.sourceforge.net/DTD/sodipodi-0.dtd"
   xmlns:inkscape="http://www.inkscape.org/namespaces/inkscape"
   width="370"
   height="320"
   id="svg3172"
   version="1.1"
   inkscape:version="0.48.4 r9939"
   sodipodi:docname="[01.同意].svg">
  <defs
     id="defs3174" />
  <sodipodi:namedview
     id="base"
     pagecolor="#ffffff"
     bordercolor="#666666"
     borderopacity="1.0"
     inkscape:pageopacity="0.0"
     inkscape:pageshadow="2"
     inkscape:zoom="0.6298246"
     inkscape:cx="-26.307026"
     inkscape:cy="44.676266"
     inkscape:document-units="px"
     inkscape:current-layer="layer4"
     showgrid="false"
     inkscape:window-width="974"
     inkscape:window-height="694"
     inkscape:window-x="369"
     inkscape:window-y="-4"
     inkscape:window-maximized="0" />
  <metadata
     id="metadata3177">
    <rdf:RDF>
      <cc:Work
         rdf:about="">
        <dc:format>image/svg+xml</dc:format>
        <dc:type
           rdf:resource="http://purl.org/dc/dcmitype/StillImage" />
        <dc:title />
      </cc:Work>
    </rdf:RDF>
  </metadata>
  <g
     inkscape:label="補助線"
     inkscape:groupmode="layer"
     id="layer1"
     transform="translate(0,-732.36218)"
     sodipodi:insensitive="true"
     style="display:none">
    <path
       style="fill:none;stroke:#0000ff;stroke-width:1px;stroke-linecap:butt;stroke-linejoin:miter;stroke-opacity:1;display:inline"
       d="M 10,1042.3622 360,742.36211"
       id="path3025"
       inkscape:connector-curvature="0"
       sodipodi:nodetypes="cc" />
    <path
       style="fill:none;stroke:#0000ff;stroke-width:1px;stroke-linecap:butt;stroke-linejoin:miter;stroke-opacity:1;display:inline"
       d="M 10,742.36211 360,1042.3622"
       id="path3027"
       inkscape:connector-curvature="0"
       sodipodi:nodetypes="cc" />
    <path
       style="fill:none;stroke:#ff0000;stroke-width:1px;stroke-linecap:butt;stroke-linejoin:miter;stroke-opacity:1;display:inline"
       d="m 10,732.36211 0,320.00009"
       id="path3006"
       inkscape:connector-curvature="0"
       sodipodi:nodetypes="cc" />
    <path
       style="fill:none;stroke:#ff0000;stroke-width:1px;stroke-linecap:butt;stroke-linejoin:miter;stroke-opacity:1;display:inline"
       d="m 360,732.36211 0,320.00009"
       id="path3010"
       inkscape:connector-curvature="0"
       sodipodi:nodetypes="cc" />
    <path
       style="fill:none;stroke:#ff0000;stroke-width:1px;stroke-linecap:butt;stroke-linejoin:miter;stroke-opacity:1;display:inline"
       d="m 0,742.36208 370,3e-5"
       id="path3016"
       inkscape:connector-curvature="0" />
    <path
       style="fill:none;stroke:#ff0000;stroke-width:1px;stroke-linecap:butt;stroke-linejoin:miter;stroke-opacity:1;display:inline"
       d="m 0,1042.3622 370,0"
       id="path3018"
       inkscape:connector-curvature="0"
       sodipodi:nodetypes="cc" />
  </g>
  <g
     inkscape:groupmode="layer"
     id="layer3"
     inkscape:label="豚"
     style="display:inline"
     sodipodi:insensitive="true">
    <g
       id="g3817">
      <path
         style="fill:#ffd5d5;stroke:none;display:inline"
         d="m 283.11037,153.4612 c 2.38433,-6.69427 10.33563,-14.22782 13.75938,-14.28911 1.79075,-0.0323 2.10764,3.99916 4.57329,5.08219 2.56416,1.12621 5.7351,-1.94271 7.36342,0.95261 2.69538,4.7927 -3.97139,44.69383 -3.6589,70.1534 l -111.18119,-18.73761 76.24859,-56.56807 z"
         id="path5089-8-7-2-3-8-9"
         inkscape:connector-curvature="0"
         sodipodi:nodetypes="cssscccc" />
      <path
         style="fill:#ffaaaa;stroke:none;display:inline"
         d="m 296.90402,139.12131 c 1.78993,0.0635 2.10764,3.99916 4.57329,5.08218 2.56417,1.12621 5.64816,-1.89205 7.36343,0.9526 1.46205,2.42472 0.36096,10.91601 0.36096,10.91601 -3.13455,5.57725 -22.52381,-7.41188 -19.16577,-12.82198 0,0 4.43102,-4.21534 6.86809,-4.12881 z"
         id="path5089-8-7-2-3-9-54"
         inkscape:connector-curvature="0"
         sodipodi:nodetypes="sssccs" />
      <path
         sodipodi:nodetypes="csssc"
         inkscape:connector-curvature="0"
         id="path5089-8-7-2-3-3"
         d="m 283.14777,153.45726 c 2.38435,-6.69426 10.33563,-14.22782 13.75938,-14.28911 1.79076,-0.0323 2.10764,3.99917 4.57329,5.08219 2.56416,1.12621 5.73511,-1.94271 7.36342,0.9526 2.69539,4.79271 -3.97139,44.69384 -3.65889,70.15341"
         style="fill:none;stroke:#000000;stroke-width:2;stroke-linecap:butt;stroke-linejoin:miter;stroke-opacity:1;display:inline" />
      <path
         sodipodi:nodetypes="cccc"
         id="path3945-4-12"
         d="m 191.7384,194.0369 c -10.57543,12.9552 -16.51144,46.5408 -8.35254,62.08502 l 127.85415,0.78062 c 1.81897,-18.59094 -3.62623,-36.33622 -7.4341,-58.38001"
         style="fill:#ffd5d5;stroke:#000000;stroke-width:2;stroke-linecap:butt;stroke-linejoin:miter;stroke-opacity:1;display:inline"
         inkscape:connector-curvature="0" />
      <path
         sodipodi:nodetypes="sssccs"
         inkscape:connector-curvature="0"
         id="path5109-5-5-51-6-9-3"
         d="m 195.3585,244.78984 c 1.24756,0.18474 4.81512,-3.73569 6.04513,-3.3374 1.00936,0.32689 3.5973,4.45893 5.71389,3.93931 3.42168,-0.84012 6.31984,-3.11703 8.39065,-5.45157 3.17275,-7.23966 -19.93246,-14.40424 -27.87582,-7.13296 0.14912,3.1921 5.63979,11.67385 7.72615,11.98262 z"
         style="fill:#ffaaaa;stroke:none;display:inline" />
      <path
         sodipodi:nodetypes="csssc"
         inkscape:connector-curvature="0"
         id="path5109-2-71-1-8-3"
         d="m 229.62179,211.52849 c -1.73343,11.05977 -13.23854,32.01187 -22.0302,33.90697 -2.13039,0.45916 -4.34931,-4.32096 -6.7725,-3.89111 -2.61434,0.46393 -2.81835,3.03839 -5.22785,3.29735 -3.77556,0.4057 -10.97928,-8.78592 -8.38404,-32.29513"
         style="fill:none;stroke:#000000;stroke-width:2;stroke-linecap:butt;stroke-linejoin:miter;stroke-opacity:1;display:inline" />
      <path
         inkscape:connector-curvature="0"
         id="path5111-7-1-8-9-4"
         d="m 215.46915,239.84181 c 3.68636,-7.58991 -21.83273,-14.33639 -27.84542,-7.04955"
         style="fill:none;stroke:#000000;stroke-width:2;stroke-linecap:butt;stroke-linejoin:miter;stroke-opacity:1;display:inline" />
      <path
         sodipodi:nodetypes="cc"
         inkscape:connector-curvature="0"
         id="path5091-2-40-3-8-1"
         d="m 261.1826,133.79852 c 12.62198,-1.67924 25.57098,9.6746 24.99636,23.15299"
         style="fill:#ffd5d5;stroke:#000000;stroke-width:2;stroke-linecap:butt;stroke-linejoin:miter;stroke-opacity:1;display:inline" />
      <path
         sodipodi:nodetypes="cc"
         inkscape:connector-curvature="0"
         id="path5111-7-1-7-1-3-1"
         d="m 309.20484,156.11895 c -3.13457,5.57724 -22.52382,-7.41189 -19.16578,-12.82198"
         style="fill:none;stroke:#000000;stroke-width:2;stroke-linecap:butt;stroke-linejoin:miter;stroke-opacity:1;display:inline" />
      <path
         sodipodi:nodetypes="cc"
         inkscape:connector-curvature="0"
         id="path5093-4-9-2-0-3"
         d="m 281.04097,151.40812 c 8.99827,7.11356 13.11359,21.34402 7.25672,33.84515"
         style="fill:#ffd5d5;stroke:#000000;stroke-width:2;stroke-linecap:butt;stroke-linejoin:miter;stroke-opacity:1;display:inline" />
      <path
         sodipodi:nodetypes="csc"
         id="path16481-7-8"
         d="m 273.68755,142.04382 c -16.43232,-17.59531 -44.94639,-15.9987 -62.40264,-0.10082 -19.97654,18.19314 -23.79828,46.13341 -18.60336,56.40737"
         style="fill:#ffd5d5;stroke:#000000;stroke-width:2;stroke-linecap:butt;stroke-linejoin:miter;stroke-opacity:1;display:inline"
         inkscape:connector-curvature="0" />
      <path
         sodipodi:nodetypes="cc"
         inkscape:connector-curvature="0"
         id="path5095-5-4-2-8-7"
         d="m 266.5359,146.33485 c -0.40368,2.05952 -0.20451,6.32054 -0.064,7.53329"
         style="fill:none;stroke:#000000;stroke-width:2;stroke-linecap:butt;stroke-linejoin:miter;stroke-opacity:1;display:inline" />
      <path
         sodipodi:nodetypes="cc"
         inkscape:connector-curvature="0"
         id="path5097-5-8-1-8-4"
         d="m 248.1523,152.56357 c 2.57359,1.15308 5.85248,3.20954 7.25784,4.80071"
         style="fill:none;stroke:#000000;stroke-width:2;stroke-linecap:butt;stroke-linejoin:miter;stroke-opacity:1;display:inline" />
      <path
         sodipodi:nodetypes="csc"
         inkscape:connector-curvature="0"
         id="path5099-1-8-6-0-2"
         d="m 216.14583,141.89377 c -27.00248,6.60509 -24.14887,39.80234 -12.25486,44.19819 7.07416,2.6145 14.18745,-18.99255 20.77172,-22.06776"
         style="fill:#ffd5d5;stroke:#000000;stroke-width:2;stroke-linecap:butt;stroke-linejoin:miter;stroke-opacity:1;display:inline" />
      <path
         sodipodi:nodetypes="ssssss"
         inkscape:connector-curvature="0"
         id="path5101-7-2-8-6-7"
         d="m 265.11226,154.51911 c -5.71894,2.36881 -10.7747,8.10027 -14.71216,17.44203 -3.6894,8.75311 -1.49841,19.29454 6.67486,14.4793 7.28275,-4.29052 14.96323,-6.75999 19.77657,-7.10957 8.49501,-0.61696 4.76986,-12.16923 2.54164,-16.84029 -2.48886,-5.21754 -8.42517,-10.39698 -14.28091,-7.97147 z"
         style="fill:#ffaaaa;stroke:#000000;stroke-width:2;stroke-linecap:butt;stroke-linejoin:miter;stroke-opacity:1;display:inline" />
      <path
         sodipodi:nodetypes="sss"
         inkscape:connector-curvature="0"
         id="path5105-1-4-5-8-7"
         d="m 260.52529,178.01422 c 1.52076,1.38738 5.1611,-14.02157 3.70226,-14.55121 -1.75719,-0.63806 -8.21896,10.43089 -3.70226,14.55121 z"
         style="fill:#000000;stroke:#000000;stroke-width:2;stroke-linecap:butt;stroke-linejoin:miter;stroke-opacity:1;display:inline" />
      <path
         sodipodi:nodetypes="sss"
         inkscape:connector-curvature="0"
         id="path5107-1-5-7-1-9"
         d="m 270.56971,161.36803 c -1.09462,0.38538 1.81028,13.98909 3.40484,12.5552 3.18361,-2.86291 -2.20201,-12.97875 -3.40484,-12.5552 z"
         style="fill:#000000;stroke:#000000;stroke-width:2;stroke-linecap:butt;stroke-linejoin:miter;stroke-opacity:1;display:inline" />
    </g>
    <g
       id="g3681"
       transform="translate(5.5571026,-4.8551536)">
      <path
         style="fill:#ffd5d5;stroke:none;display:inline"
         d="m 156.14376,153.7639 c 2.35508,-6.61215 10.20884,-14.05329 13.59058,-14.11382 1.76879,-0.0319 2.08179,3.9501 4.5172,5.01984 2.5327,1.1124 5.66474,-1.91887 7.27308,0.94093 2.66232,4.7339 -3.92267,44.14555 -3.61401,69.2928 L 68.093328,196.39589 143.40654,140.52177 z"
         id="path5089-8-7-2-3-8-1"
         inkscape:connector-curvature="0"
         sodipodi:nodetypes="cssscccc" />
      <path
         style="fill:#ffaaaa;stroke:none;display:inline"
         d="m 169.76819,139.59992 c 1.76798,0.0628 2.08179,3.9501 4.51719,5.01984 2.53272,1.1124 5.57887,-1.86885 7.2731,0.94091 1.44412,2.39498 0.35654,10.7821 0.35654,10.7821 -3.0961,5.50883 -22.2475,-7.32096 -18.93066,-12.66469 0,0 4.37666,-4.16363 6.78383,-4.07816 z"
         id="path5089-8-7-2-3-9-5"
         inkscape:connector-curvature="0"
         sodipodi:nodetypes="sssccs" />
      <path
         sodipodi:nodetypes="csssc"
         inkscape:connector-curvature="0"
         id="path5089-8-7-2-3-2"
         d="m 156.1807,153.76001 c 2.3551,-6.61214 10.20884,-14.05328 13.59059,-14.11382 1.76879,-0.0319 2.08178,3.95011 4.51719,5.01984 2.5327,1.1124 5.66475,-1.91888 7.27309,0.94092 2.66232,4.73392 -3.92268,44.14555 -3.61401,69.2928"
         style="fill:none;stroke:#000000;stroke-width:2;stroke-linecap:butt;stroke-linejoin:miter;stroke-opacity:1;display:inline" />
      <path
         sodipodi:nodetypes="cccc"
         id="path3945-4-7"
         d="m 65.892692,193.84184 c -10.445699,12.79628 -16.30889,45.96987 -8.250077,61.32339 l 126.285695,0.77105 c 1.79666,-18.36287 -3.58173,-35.89047 -7.34289,-57.66383"
         style="fill:#ffd5d5;stroke:#000000;stroke-width:2;stroke-linecap:butt;stroke-linejoin:miter;stroke-opacity:1;display:inline"
         inkscape:connector-curvature="0" />
      <path
         sodipodi:nodetypes="sssccs"
         inkscape:connector-curvature="0"
         id="path5109-5-5-51-6-9-6"
         d="m 69.468384,243.97217 c 1.232247,0.18247 4.756043,-3.68987 5.970965,-3.29645 0.996983,0.32287 3.553171,4.40423 5.643796,3.89098 3.379704,-0.82982 6.242315,-3.0788 8.287715,-5.3847 3.133835,-7.15084 -19.68794,-14.22753 -27.533846,-7.04545 0.147283,3.15294 5.570603,11.53063 7.63137,11.83562 z"
         style="fill:#ffaaaa;stroke:none;display:inline" />
      <path
         sodipodi:nodetypes="csssc"
         inkscape:connector-curvature="0"
         id="path5109-2-71-1-8-1"
         d="m 103.31135,211.11886 c -1.71217,10.92409 -13.076136,31.61915 -21.759952,33.49101 -2.104257,0.45353 -4.295955,-4.26795 -6.689416,-3.84338 -2.582267,0.45824 -2.783778,3.00112 -5.163713,3.2569 -3.729251,0.40073 -10.844597,-8.67814 -8.281198,-31.89895"
         style="fill:none;stroke:#000000;stroke-width:2;stroke-linecap:butt;stroke-linejoin:miter;stroke-opacity:1;display:inline" />
      <path
         inkscape:connector-curvature="0"
         id="path5111-7-1-8-9-42"
         d="m 89.332325,239.08484 c 3.641134,-7.4968 -21.564904,-14.16052 -27.503833,-6.96307"
         style="fill:none;stroke:#000000;stroke-width:2;stroke-linecap:butt;stroke-linejoin:miter;stroke-opacity:1;display:inline" />
      <path
         sodipodi:nodetypes="cc"
         inkscape:connector-curvature="0"
         id="path5091-2-40-3-8-3"
         d="m 134.48498,134.34243 c 12.46715,-1.65864 25.25729,9.55592 24.68972,22.86897"
         style="fill:#ffd5d5;stroke:#000000;stroke-width:2;stroke-linecap:butt;stroke-linejoin:miter;stroke-opacity:1;display:inline" />
      <path
         sodipodi:nodetypes="cc"
         inkscape:connector-curvature="0"
         id="path5111-7-1-7-1-3-2"
         d="m 181.91811,156.38905 c -3.09611,5.50882 -22.24751,-7.32097 -18.93066,-12.66469"
         style="fill:none;stroke:#000000;stroke-width:2;stroke-linecap:butt;stroke-linejoin:miter;stroke-opacity:1;display:inline" />
      <path
         sodipodi:nodetypes="cc"
         inkscape:connector-curvature="0"
         id="path5093-4-9-2-0-2"
         d="m 154.09974,151.73601 c 8.88789,7.02629 12.95273,21.08218 7.16771,33.42996"
         style="fill:#ffd5d5;stroke:#000000;stroke-width:2;stroke-linecap:butt;stroke-linejoin:miter;stroke-opacity:1;display:inline" />
      <path
         sodipodi:nodetypes="csc"
         id="path16481-7-16"
         d="m 146.83653,142.48658 c -16.23074,-17.37946 -44.39502,-15.80244 -61.637115,-0.0996 -19.731477,17.96996 -23.506338,45.56748 -18.375143,55.7154"
         style="fill:#ffd5d5;stroke:#000000;stroke-width:2;stroke-linecap:butt;stroke-linejoin:miter;stroke-opacity:1;display:inline"
         inkscape:connector-curvature="0" />
      <path
         sodipodi:nodetypes="cc"
         inkscape:connector-curvature="0"
         id="path5095-5-4-2-8-85"
         d="m 139.77261,146.72497 c -0.39872,2.03426 -0.20199,6.243 -0.0632,7.44088"
         style="fill:none;stroke:#000000;stroke-width:2;stroke-linecap:butt;stroke-linejoin:miter;stroke-opacity:1;display:inline" />
      <path
         sodipodi:nodetypes="cc"
         inkscape:connector-curvature="0"
         id="path5097-5-8-1-8-76"
         d="m 121.61454,152.87728 c 2.54202,1.13894 5.78068,3.17016 7.1688,4.74182"
         style="fill:none;stroke:#000000;stroke-width:2;stroke-linecap:butt;stroke-linejoin:miter;stroke-opacity:1;display:inline" />
      <path
         sodipodi:nodetypes="csc"
         inkscape:connector-curvature="0"
         id="path5099-1-8-6-0-1"
         d="m 90.000702,142.33838 c -26.671226,6.52405 -23.852625,39.31406 -12.104523,43.65598 6.987375,2.58243 14.013409,-18.75956 20.516903,-21.79705"
         style="fill:#ffd5d5;stroke:#000000;stroke-width:2;stroke-linecap:butt;stroke-linejoin:miter;stroke-opacity:1;display:inline" />
      <path
         sodipodi:nodetypes="ssssss"
         inkscape:connector-curvature="0"
         id="path5101-7-2-8-6-8"
         d="m 138.36644,154.80883 c -5.64879,2.33976 -10.64252,8.00091 -14.53168,17.22807 -3.64414,8.64572 -1.48003,19.05783 6.59297,14.30166 7.19341,-4.23787 14.77967,-6.67705 19.53397,-7.02235 8.39079,-0.60939 4.71135,-12.01994 2.51046,-16.63369 -2.45833,-5.15354 -8.32181,-10.26944 -14.10572,-7.87369 z"
         style="fill:#ffaaaa;stroke:#000000;stroke-width:2;stroke-linecap:butt;stroke-linejoin:miter;stroke-opacity:1;display:inline" />
      <path
         sodipodi:nodetypes="sss"
         inkscape:connector-curvature="0"
         id="path5105-1-4-5-8-9"
         d="m 133.83574,178.01572 c 1.50211,1.37036 5.09778,-13.84956 3.65684,-14.37271 -1.73563,-0.63023 -8.11813,10.30294 -3.65684,14.37271 z"
         style="fill:#000000;stroke:#000000;stroke-width:2;stroke-linecap:butt;stroke-linejoin:miter;stroke-opacity:1;display:inline" />
      <path
         sodipodi:nodetypes="sss"
         inkscape:connector-curvature="0"
         id="path5107-1-5-7-1-2"
         d="m 143.75694,161.57373 c -1.08119,0.38065 1.78807,13.81749 3.36307,12.40119 3.14456,-2.8278 -2.175,-12.81954 -3.36307,-12.40119 z"
         style="fill:#000000;stroke:#000000;stroke-width:2;stroke-linecap:butt;stroke-linejoin:miter;stroke-opacity:1;display:inline" />
    </g>
    <g
       id="g3576"
       transform="matrix(-1,0,0,1,594.56759,0)">
      <path
         style="fill:#ffd5d5;stroke:none;display:inline"
         d="m 263.12385,156.6067 c -2.64399,-5.05667 -7.8262,-12.04419 -11.68286,-13.31642 -2.84659,-0.93906 -3.96693,4.60904 -5.58098,4.93856 -1.76168,0.35958 -5.76569,-2.16468 -7.01709,0.61336 -2.36144,5.24228 3.3145,34.00629 4.42261,57.33433 l 95.8994,-4.78811 -64.59631,-53.72847 z"
         id="path5089-8-7-2-8-1-6-4"
         inkscape:connector-curvature="0"
         sodipodi:nodetypes="cssscccc" />
      <path
         style="fill:#ffaaaa;stroke:none;display:inline"
         d="m 251.53171,143.19956 c -2.84791,-0.93509 -3.96693,4.60905 -5.58098,4.93857 -1.76168,0.35958 -6.09429,-2.29042 -7.01709,0.61336 -0.97217,3.05913 -0.29363,9.47102 -0.29363,9.47102 3.20519,5.17631 21.80291,-5.89868 18.43197,-10.66837 0,0 -2.87442,-3.47927 -5.54027,-4.35458 z"
         id="path5089-8-7-2-8-1-6-5"
         inkscape:connector-curvature="0"
         sodipodi:nodetypes="sssccs" />
      <path
         sodipodi:nodetypes="cc"
         inkscape:connector-curvature="0"
         id="path5111-7-1-7-1-2-7-6"
         d="m 238.58153,158.12823 c 3.20518,5.1763 21.80291,-5.89868 18.43197,-10.66837"
         style="fill:none;stroke:#000000;stroke-width:2;stroke-linecap:butt;stroke-linejoin:miter;stroke-opacity:1;display:inline" />
      <path
         sodipodi:nodetypes="csssc"
         inkscape:connector-curvature="0"
         id="path5089-8-7-2-8-1-6"
         d="m 263.15608,156.4217 c -2.64398,-5.05667 -7.82619,-12.04419 -11.68285,-13.31642 -2.8466,-0.93906 -3.96693,4.60904 -5.58098,4.93857 -1.76168,0.35957 -5.7657,-2.16469 -7.01709,0.61336 -2.36145,5.24227 3.17415,34.14661 4.28227,57.47465"
         style="fill:none;stroke:#000000;stroke-width:2;stroke-linecap:butt;stroke-linejoin:miter;stroke-opacity:1;display:inline" />
      <path
         sodipodi:nodetypes="cccc"
         inkscape:connector-curvature="0"
         id="path3227-1-6-8"
         d="m 245.73156,198.69986 c -7.97715,11.88588 -15.38522,45.60016 -4.09869,58.94531 l 106.27427,-2.28687 c 8.34863,-8.6943 7.89122,-34.67982 -3.2975,-53.97448"
         style="fill:#ffd5d5;stroke:#000000;stroke-width:2;stroke-linecap:butt;stroke-linejoin:miter;stroke-opacity:1;display:inline" />
      <path
         sodipodi:nodetypes="cc"
         inkscape:connector-curvature="0"
         id="path5091-2-40-3-5-1-0"
         d="m 283.38418,140.24675 c -15.54226,-0.95333 -29.19187,12.77769 -26.8478,27.34274"
         style="fill:#ffd5d5;stroke:#000000;stroke-width:2;stroke-linecap:butt;stroke-linejoin:miter;stroke-opacity:1;display:inline" />
      <path
         sodipodi:nodetypes="csc"
         inkscape:connector-curvature="0"
         id="path16481-1-6-0"
         d="m 269.90116,149.05491 c 16.90375,-18.6127 48.69472,-14.38021 61.69695,2.99803 14.84718,19.84418 21.56127,45.54475 14.61418,56.45527"
         style="fill:#ffd5d5;stroke:#000000;stroke-width:2;stroke-linecap:butt;stroke-linejoin:miter;stroke-opacity:1;display:inline" />
      <path
         sodipodi:nodetypes="cc"
         inkscape:connector-curvature="0"
         id="path5093-4-9-2-7-4-1"
         d="m 261.62886,158.57815 c -11.1624,8.59844 -13.35944,25.65217 -6.94393,35.08949"
         style="fill:#ffd5d5;stroke:#000000;stroke-width:2;stroke-linecap:butt;stroke-linejoin:miter;stroke-opacity:1;display:inline" />
      <path
         sodipodi:nodetypes="cc"
         inkscape:connector-curvature="0"
         id="path5095-5-4-2-6-2-2"
         d="m 274.03099,155.87873 c 0.18051,1.91658 0.39067,6.13744 0.15177,7.23145"
         style="fill:none;stroke:#000000;stroke-width:2;stroke-linecap:butt;stroke-linejoin:miter;stroke-opacity:1;display:inline" />
      <path
         sodipodi:nodetypes="cc"
         inkscape:connector-curvature="0"
         id="path5097-5-8-1-1-3-5"
         d="m 292.36015,160.61836 c -2.03018,1.33574 -5.72869,3.33723 -6.96814,5.15584"
         style="fill:none;stroke:#000000;stroke-width:2;stroke-linecap:butt;stroke-linejoin:miter;stroke-opacity:1;display:inline" />
      <path
         sodipodi:nodetypes="ssssss"
         inkscape:connector-curvature="0"
         id="path5101-7-2-8-9-2-0"
         d="m 275.02114,164.40237 c 6.63486,1.14617 13.38264,9.72819 16.23813,15.9795 4.95429,10.84608 1.27301,17.45067 -5.05135,14.68477 -5.97497,-2.61324 -14.58219,-5.44622 -19.01692,-5.23854 -6.9743,0.32663 -8.12914,-6.61512 -6.13181,-13.52801 2.11132,-7.30736 7.63521,-12.99067 13.96195,-11.89772 z"
         style="fill:#ffaaaa;stroke:#000000;stroke-width:2;stroke-linecap:butt;stroke-linejoin:miter;stroke-opacity:1;display:inline" />
      <path
         sodipodi:nodetypes="sss"
         inkscape:connector-curvature="0"
         id="path5105-1-4-5-2-2-9"
         d="m 282.37375,186.57433 c -1.23868,1.42498 -5.56219,-14.51063 -4.16695,-14.22798 1.38135,0.27977 7.85867,9.98106 4.16695,14.22798 z"
         style="fill:#000000;stroke:#000000;stroke-width:2;stroke-linecap:butt;stroke-linejoin:miter;stroke-opacity:1;display:inline" />
      <path
         sodipodi:nodetypes="sss"
         inkscape:connector-curvature="0"
         id="path5107-1-5-7-7-1-4"
         d="m 271.55391,171.3769 c 1.48394,-0.0195 -1.31991,13.94175 -2.60066,12.44893 -3.10272,-3.61649 0.68204,-12.42363 2.60066,-12.44893 z"
         style="fill:#000000;stroke:#000000;stroke-width:2;stroke-linecap:butt;stroke-linejoin:miter;stroke-opacity:1;display:inline" />
      <path
         sodipodi:nodetypes="csc"
         inkscape:connector-curvature="0"
         id="path5099-1-8-6-8-8-7"
         d="m 328.90735,151.39365 c 26.32061,10.12709 17.06792,42.19138 7.41785,44.08232 -4.14215,0.81162 -10.53668,-18.99808 -16.26546,-22.40579"
         style="fill:#ffd5d5;stroke:#000000;stroke-width:2;stroke-linecap:butt;stroke-linejoin:miter;stroke-opacity:1;display:inline" />
      <path
         style="fill:#ffaaaa;stroke:none;display:inline"
         d="m 331.13344,246.64185 c 4.46721,-6.32016 -26.17885,-14.82036 -26.47038,-6.85558 0,0 1.48813,7.64496 4.2496,9.41524 1.40742,0.90224 5.13746,-2.00446 7.40811,-1.74388 3.19978,0.36722 4.89498,4.30484 7.88143,4.75202 2.58939,0.38772 6.93124,-5.5678 6.93124,-5.5678 z"
         id="path5111-7-1-8-3-1-1-7"
         inkscape:connector-curvature="0"
         sodipodi:nodetypes="ccsssc" />
      <path
         sodipodi:nodetypes="csssc"
         inkscape:connector-curvature="0"
         id="path5109-2-71-1-4-6-5"
         d="m 341.07168,212.40888 c -0.84449,16.99787 -8.72798,38.93099 -16.93088,39.80637 -3.0027,0.32035 -4.68165,-4.38481 -7.88143,-4.75203 -2.27065,-0.26057 -6.15028,2.84512 -7.40811,1.74389 -4.58577,-4.0158 -7.93563,-25.40527 -8.13955,-37.8317"
         style="fill:none;stroke:#000000;stroke-width:2;stroke-linecap:butt;stroke-linejoin:miter;stroke-opacity:1;display:inline" />
      <path
         sodipodi:nodetypes="cc"
         inkscape:connector-curvature="0"
         id="path5111-7-1-8-3-1-1"
         d="m 331.07204,246.64745 c 4.46721,-6.32016 -26.17885,-14.82037 -26.47038,-6.85558"
         style="fill:none;stroke:#000000;stroke-width:2;stroke-linecap:butt;stroke-linejoin:miter;stroke-opacity:1;display:inline" />
    </g>
    <g
       id="g3364">
      <path
         style="fill:#ffd5d5;stroke:none;display:inline"
         d="m 255.04375,152.58607 c 2.44283,-6.85851 10.58921,-14.5769 14.09696,-14.63969 1.83469,-0.0331 2.15935,4.09728 4.6855,5.20688 2.62707,1.15384 5.87581,-1.99037 7.54408,0.97598 2.76151,4.91029 -4.06883,45.79039 -3.74867,71.87461 l -113.90901,-19.19734 78.11934,-57.95596 z"
         id="path5089-8-7-2-3-8"
         inkscape:connector-curvature="0"
         sodipodi:nodetypes="cssscccc" />
      <path
         style="fill:#ffaaaa;stroke:none;display:inline"
         d="m 269.17582,137.89435 c 1.83385,0.0651 2.15935,4.09728 4.6855,5.20688 2.62708,1.15384 5.78673,-1.93848 7.54409,0.97597 1.49792,2.48421 0.36982,11.18383 0.36982,11.18383 -3.21146,5.71409 -23.07643,-7.59373 -19.636,-13.13657 0,0 4.53973,-4.31876 7.03659,-4.23011 z"
         id="path5089-8-7-2-3-9"
         inkscape:connector-curvature="0"
         sodipodi:nodetypes="sssccs" />
      <path
         sodipodi:nodetypes="csssc"
         inkscape:connector-curvature="0"
         id="path5089-8-7-2-3"
         d="m 255.08207,152.58204 c 2.44284,-6.85851 10.58921,-14.5769 14.09696,-14.6397 1.8347,-0.0331 2.15935,4.09729 4.6855,5.20688 2.62707,1.15385 5.87582,-1.99037 7.54408,0.97598 2.76152,4.9103 -4.06883,45.79039 -3.74866,71.87461"
         style="fill:none;stroke:#000000;stroke-width:2;stroke-linecap:butt;stroke-linejoin:miter;stroke-opacity:1;display:inline" />
      <path
         sodipodi:nodetypes="cccc"
         id="path3945-4"
         d="m 161.42998,194.15729 c -10.8349,13.27306 -16.91655,47.68268 -8.55747,63.60827 l 130.99103,0.79977 c 1.8636,-19.04706 -3.71519,-37.22772 -7.61649,-59.81235"
         style="fill:#ffd5d5;stroke:#000000;stroke-width:2;stroke-linecap:butt;stroke-linejoin:miter;stroke-opacity:1;display:inline"
         inkscape:connector-curvature="0" />
      <path
         sodipodi:nodetypes="sssccs"
         inkscape:connector-curvature="0"
         id="path5109-5-5-51-6-9"
         d="m 165.1389,246.15545 c 1.27816,0.18927 4.93325,-3.82735 6.19344,-3.41928 1.03413,0.33491 3.68556,4.56833 5.85408,4.03596 3.50563,-0.86074 6.4749,-3.19351 8.59651,-5.58533 3.2506,-7.41728 -20.4215,-14.75764 -28.55974,-7.30796 0.15277,3.27042 5.77816,11.96026 7.91571,12.27661 z"
         style="fill:#ffaaaa;stroke:none;display:inline" />
      <path
         sodipodi:nodetypes="csssc"
         inkscape:connector-curvature="0"
         id="path5109-2-71-1-8"
         d="m 200.24283,212.07804 c -1.77596,11.33112 -13.56334,32.79727 -22.57071,34.73887 -2.18266,0.47043 -4.45602,-4.42697 -6.93866,-3.98658 -2.67848,0.47531 -2.8875,3.11294 -5.35611,3.37825 -3.8682,0.41566 -11.24866,-9.00148 -8.58975,-33.08749"
         style="fill:none;stroke:#000000;stroke-width:2;stroke-linecap:butt;stroke-linejoin:miter;stroke-opacity:1;display:inline" />
      <path
         inkscape:connector-curvature="0"
         id="path5111-7-1-8-9"
         d="m 185.74296,241.08602 c 3.7768,-7.77613 -22.3684,-14.68813 -28.52861,-7.22251"
         style="fill:none;stroke:#000000;stroke-width:2;stroke-linecap:butt;stroke-linejoin:miter;stroke-opacity:1;display:inline" />
      <path
         sodipodi:nodetypes="cc"
         inkscape:connector-curvature="0"
         id="path5091-2-40-3-8"
         d="m 232.57798,132.44097 c 12.93166,-1.72044 26.19836,9.91197 25.60964,23.72105"
         style="fill:#ffd5d5;stroke:#000000;stroke-width:2;stroke-linecap:butt;stroke-linejoin:miter;stroke-opacity:1;display:inline" />
      <path
         sodipodi:nodetypes="cc"
         inkscape:connector-curvature="0"
         id="path5111-7-1-7-1-3"
         d="m 281.77844,155.30903 c -3.21147,5.71408 -23.07644,-7.59374 -19.63601,-13.13657"
         style="fill:none;stroke:#000000;stroke-width:2;stroke-linecap:butt;stroke-linejoin:miter;stroke-opacity:1;display:inline" />
      <path
         sodipodi:nodetypes="cc"
         inkscape:connector-curvature="0"
         id="path5093-4-9-2-0"
         d="m 252.92357,150.48262 c 9.21905,7.28809 13.43534,21.86769 7.43477,34.67554"
         style="fill:#ffd5d5;stroke:#000000;stroke-width:2;stroke-linecap:butt;stroke-linejoin:miter;stroke-opacity:1;display:inline" />
      <path
         sodipodi:nodetypes="csc"
         id="path16481-7"
         d="m 245.38974,140.88857 c -16.83549,-18.02701 -46.04915,-16.39123 -63.93368,-0.1033 -20.46666,18.63951 -24.38217,47.26529 -19.05979,57.79132"
         style="fill:#ffd5d5;stroke:#000000;stroke-width:2;stroke-linecap:butt;stroke-linejoin:miter;stroke-opacity:1;display:inline"
         inkscape:connector-curvature="0" />
      <path
         sodipodi:nodetypes="cc"
         inkscape:connector-curvature="0"
         id="path5095-5-4-2-8"
         d="m 238.06262,145.28488 c -0.41358,2.11005 -0.20952,6.47561 -0.0656,7.71812"
         style="fill:none;stroke:#000000;stroke-width:2;stroke-linecap:butt;stroke-linejoin:miter;stroke-opacity:1;display:inline" />
      <path
         sodipodi:nodetypes="cc"
         inkscape:connector-curvature="0"
         id="path5097-5-8-1-8"
         d="m 219.22799,151.66642 c 2.63673,1.18137 5.99607,3.28828 7.43591,4.91849"
         style="fill:none;stroke:#000000;stroke-width:2;stroke-linecap:butt;stroke-linejoin:miter;stroke-opacity:1;display:inline" />
      <path
         sodipodi:nodetypes="csc"
         inkscape:connector-curvature="0"
         id="path5099-1-8-6-0"
         d="m 186.43624,140.73484 c -27.66498,6.76714 -24.74136,40.77888 -12.55553,45.28258 7.24772,2.67865 14.53554,-19.45853 21.28135,-22.60919"
         style="fill:#ffd5d5;stroke:#000000;stroke-width:2;stroke-linecap:butt;stroke-linejoin:miter;stroke-opacity:1;display:inline" />
      <path
         sodipodi:nodetypes="ssssss"
         inkscape:connector-curvature="0"
         id="path5101-7-2-8-6"
         d="m 236.60406,153.66994 c -5.85926,2.42693 -11.03906,8.29901 -15.07313,17.86997 -3.77991,8.96786 -1.53517,19.76792 6.83863,14.83454 7.46143,-4.39578 15.33035,-6.92584 20.26179,-7.284 8.70343,-0.6321 4.88689,-12.4678 2.604,-17.25346 -2.54993,-5.34555 -8.63188,-10.65207 -14.63129,-8.16705 z"
         style="fill:#ffaaaa;stroke:#000000;stroke-width:2;stroke-linecap:butt;stroke-linejoin:miter;stroke-opacity:1;display:inline" />
      <path
         sodipodi:nodetypes="sss"
         inkscape:connector-curvature="0"
         id="path5105-1-4-5-8"
         d="m 231.90455,177.7415 c 1.55807,1.42142 5.28772,-14.36559 3.79309,-14.90823 -1.8003,-0.65371 -8.42061,10.68682 -3.79309,14.90823 z"
         style="fill:#000000;stroke:#000000;stroke-width:2;stroke-linecap:butt;stroke-linejoin:miter;stroke-opacity:1;display:inline" />
      <path
         sodipodi:nodetypes="sss"
         inkscape:connector-curvature="0"
         id="path5107-1-5-7-1"
         d="m 242.1954,160.68689 c -1.12147,0.39484 1.8547,14.33232 3.48838,12.86325 3.26172,-2.93316 -2.25604,-13.29719 -3.48838,-12.86325 z"
         style="fill:#000000;stroke:#000000;stroke-width:2;stroke-linecap:butt;stroke-linejoin:miter;stroke-opacity:1;display:inline" />
    </g>
    <g
       id="g3400">
      <path
         sodipodi:nodetypes="cssscccc"
         inkscape:connector-curvature="0"
         id="path5089-8-7-2-7"
         d="m 132.63391,161.65411 c 6.5838,-12.44342 17.13304,-20.08896 20.49272,-19.53223 1.94375,0.32205 2.20414,5.79332 4.91651,6.98463 2.82072,1.23895 5.717,-1.80621 7.98521,1.05878 3.3884,4.27991 -3.62801,46.00681 -7.2536,73.2199 L 25.25518,203.28197 107.05526,136.64065 z"
         style="fill:#ffd5d5;stroke:none;display:inline" />
      <path
         sodipodi:nodetypes="sssccs"
         inkscape:connector-curvature="0"
         id="path5089-8-7-2-0"
         d="m 153.29134,142.17815 c 1.94375,0.32208 2.20414,5.79332 4.91651,6.98463 2.82072,1.23895 6.58097,-2.31481 7.98521,1.05878 1.31241,3.15297 1.06079,13.74843 1.06079,13.74843 -5.07628,5.26698 -28.8616,-11.06396 -22.45218,-17.37571 0,0 5.12999,-4.97283 8.48967,-4.41613 z"
         style="fill:#ffaaaa;stroke:none;display:inline" />
      <path
         sodipodi:nodetypes="cc"
         inkscape:connector-curvature="0"
         id="path5111-7-1-7-1"
         d="m 167.28707,163.82643 c -5.07628,5.26698 -28.61351,-11.31205 -22.20409,-17.6238"
         style="fill:none;stroke:#000000;stroke-width:2;stroke-linecap:butt;stroke-linejoin:miter;stroke-opacity:1;display:inline" />
      <path
         sodipodi:nodetypes="csssc"
         inkscape:connector-curvature="0"
         d="m 132.83184,161.56682 c 6.5838,-12.44342 17.13304,-20.08896 20.49272,-19.53223 1.94375,0.32205 2.20414,5.79332 4.91651,6.98463 2.82072,1.23895 5.51036,-1.62973 7.98521,1.05878 4.57921,4.97455 -5.81116,47.59456 -7.2536,73.2199"
         style="fill:none;stroke:#000000;stroke-width:2;stroke-linecap:butt;stroke-linejoin:miter;stroke-opacity:1;display:inline" />
      <path
         sodipodi:nodetypes="cccc"
         inkscape:connector-curvature="0"
         id="path3945"
         d="m 25.044451,201.94522 c -7.840766,10.81713 -14.857957,36.28345 -10.271447,58.28322 l 152.804736,-3.78987 c 1.17248,-15.42383 -4.3197,-38.04355 -15.86059,-48.6119"
         style="fill:#ffd5d5;stroke:#000000;stroke-width:2;stroke-linecap:butt;stroke-linejoin:miter;stroke-opacity:1;display:inline" />
      <path
         sodipodi:nodetypes="sssccs"
         inkscape:connector-curvature="0"
         id="path5109-5-5-51-6"
         d="m 29.207008,257.11764 c 1.37238,0.20319 5.29691,-4.10954 6.649991,-3.67134 1.11036,0.35958 3.957245,4.90512 6.285617,4.33344 3.76405,-0.9242 6.952199,-3.42885 9.230204,-5.997 3.490219,-7.96411 -21.926878,-15.84552 -30.665034,-7.84669 0.16403,3.51147 6.204099,12.84189 8.499222,13.18159 z"
         style="fill:#ffaaaa;stroke:none;display:inline" />
      <path
         sodipodi:nodetypes="csssc"
         inkscape:connector-curvature="0"
         id="path5109-2-71-1"
         d="m 66.898635,220.5282 c -1.906873,12.16637 -14.563166,35.2149 -24.234517,37.2996 -2.343553,0.50519 -4.784494,-4.7533 -7.450147,-4.28037 -2.875923,0.51028 -3.100347,3.34241 -5.750937,3.62727 -4.153345,0.44627 -12.077862,-9.66503 -9.222945,-35.52659"
         style="fill:none;stroke:#000000;stroke-width:2;stroke-linecap:butt;stroke-linejoin:miter;stroke-opacity:1;display:inline" />
      <path
         inkscape:connector-curvature="0"
         id="path5111-7-1-8"
         d="m 51.329909,251.67448 c 4.05521,-8.34933 -24.017301,-15.77088 -30.631615,-7.7549"
         style="fill:none;stroke:#000000;stroke-width:2;stroke-linecap:butt;stroke-linejoin:miter;stroke-opacity:1;display:inline" />
      <path
         sodipodi:nodetypes="cc"
         inkscape:connector-curvature="0"
         id="path5091-2-40-3"
         d="m 105.55962,136.18433 c 19.97581,-0.74488 33.24839,15.34211 30.78736,31.74555"
         style="fill:#ffd5d5;stroke:#000000;stroke-width:2;stroke-linecap:butt;stroke-linejoin:miter;stroke-opacity:1;display:inline" />
      <path
         sodipodi:nodetypes="csc"
         inkscape:connector-curvature="0"
         id="path16481"
         d="M 122.33354,147.44042 C 100.35454,122.64248 63.347912,127.21782 45.890865,147.04586 24.661499,171.1586 17.76038,198.63151 25.147357,209.93345"
         style="fill:#ffd5d5;stroke:#000000;stroke-width:2;stroke-linecap:butt;stroke-linejoin:miter;stroke-opacity:1;display:inline" />
      <path
         sodipodi:nodetypes="cc"
         inkscape:connector-curvature="0"
         id="path5093-4-9-2"
         d="m 131.88531,160.27372 c 10.84983,11.68776 13.72822,28.33156 6.16431,41.6563"
         style="fill:#ffd5d5;stroke:#000000;stroke-width:2;stroke-linecap:butt;stroke-linejoin:miter;stroke-opacity:1;display:inline" />
      <path
         inkscape:connector-curvature="0"
         id="path5095-5-4-2"
         d="m 113.48307,154.92226 0.34759,7.72968"
         style="fill:none;stroke:#000000;stroke-width:2;stroke-linecap:butt;stroke-linejoin:miter;stroke-opacity:1;display:inline"
         sodipodi:nodetypes="cc" />
      <path
         inkscape:connector-curvature="0"
         id="path5097-5-8-1"
         d="m 92.891752,160.8178 7.700158,6.98429"
         style="fill:none;stroke:#000000;stroke-width:2;stroke-linecap:butt;stroke-linejoin:miter;stroke-opacity:1;display:inline"
         sodipodi:nodetypes="cc" />
      <path
         sodipodi:nodetypes="csc"
         inkscape:connector-curvature="0"
         id="path5099-1-8-6"
         d="m 52.074289,142.85107 c -32.156597,9.07375 -26.868083,48.05203 -13.481063,51.92519 7.969612,2.30571 15.158604,-19.07934 22.401682,-24.69189"
         style="fill:#ffd5d5;stroke:#000000;stroke-width:2;stroke-linecap:butt;stroke-linejoin:miter;stroke-opacity:1;display:inline" />
      <path
         sodipodi:nodetypes="ssssss"
         inkscape:connector-curvature="0"
         id="path5101-7-2-8"
         d="m 112.59303,164.65165 c -9.31616,1.64132 -17.391857,12.12995 -21.661616,22.4322 -4.337259,10.4651 2.185431,17.64552 9.852946,14.52447 8.53833,-3.47551 18.53243,-5.4137 23.32003,-5.40997 5.8174,0.008 8.98292,-6.26751 7.04013,-14.67568 -2.16661,-9.37686 -11.52334,-18.1092 -18.55149,-16.87102 z"
         style="fill:#ffaaaa;stroke:#000000;stroke-width:2;stroke-linecap:butt;stroke-linejoin:miter;stroke-opacity:1;display:inline" />
      <path
         sodipodi:nodetypes="sss"
         inkscape:connector-curvature="0"
         id="path5105-1-4-5"
         d="m 104.829,192.43022 c 1.47417,1.71892 6.74845,-16.96153 5.14366,-17.54424 -1.93302,-0.70183 -9.87914,12.02271 -5.14366,17.54424 z"
         style="fill:#000000;stroke:#000000;stroke-width:2;stroke-linecap:butt;stroke-linejoin:miter;stroke-opacity:1;display:inline" />
      <path
         sodipodi:nodetypes="sss"
         inkscape:connector-curvature="0"
         id="path5107-1-5-7"
         d="m 118.03011,173.2326 c -2.01603,0.27595 2.08085,17.88276 3.70908,16.17572 4.51426,-4.73266 -2.1528,-16.38874 -3.70908,-16.17572 z"
         style="fill:#000000;stroke:#000000;stroke-width:2;stroke-linecap:butt;stroke-linejoin:miter;stroke-opacity:1;display:inline" />
    </g>
  </g>
  <g
     inkscape:groupmode="layer"
     id="layer5"
     inkscape:label="机"
     style="display:inline"
     sodipodi:insensitive="true">
    <path
       style="fill:#552200;fill-opacity:1;stroke:#000000;stroke-width:2;display:inline"
       d="m -16.92836,260.11414 401.27937,-16.64958 0,84.35992 -401.27937,16.64958 z"
       id="rect8247"
       inkscape:connector-curvature="0" />
  </g>
  <g
     inkscape:groupmode="layer"
     id="layer4"
     inkscape:label="吹き出し"
     style="display:inline"
     sodipodi:insensitive="true">
    <g
       style="display:inline"
       id="g9539">
      <path
         sodipodi:nodetypes="sssssscsscsscsssss"
         inkscape:connector-curvature="0"
         id="rect8734"
         d="m 42.199249,21.967804 287.482391,0 c 12.17624,0 21.97878,9.802534 21.97878,21.978775 l 0,33.407738 c 0,12.176241 -9.80254,21.978775 -21.97878,21.978775 l -26.37454,0 c -12.08238,0 -8.60868,14.624358 -4.42699,26.676208 -14.0078,-11.71226 -14.93681,-26.676208 -24.58499,-26.676208 l -78.06779,0 c -8.5879,0 -5.22568,16.004618 4.4834,25.934958 -16.88406,-8.49401 -23.9358,-25.934958 -34.37453,-25.934958 l -72.26704,0 c -10.736799,0 -5.715959,16.263948 -0.439576,26.374528 C 80.735369,113.20574 76.62079,99.333092 69.452931,99.333092 l -27.253682,0 c -12.176241,0 -21.978775,-9.802534 -21.978775,-21.978775 l 0,-33.407738 c 0,-12.176241 9.802534,-21.978775 21.978775,-21.978775 z"
         style="fill:#fefefe;fill-opacity:1;stroke:#000000;stroke-width:2;stroke-linecap:round;stroke-miterlimit:4;stroke-opacity:1;stroke-dashoffset:0" />
      <text
         sodipodi:linespacing="125%"
         id="text12290-7"
         y="74.498299"
         x="89.153198"
         style="font-size:90.28520203px;font-style:normal;font-weight:normal;line-height:125%;letter-spacing:0px;word-spacing:0px;writing-mode:lr-tb;fill:#000000;fill-opacity:1;stroke:none;display:inline;font-family:Sans"
         xml:space="preserve"><tspan
           style="font-size:39.49977493px"
           y="74.498299"
           x="89.153198"
           id="tspan12292-1"
           sodipodi:role="line">異議なし!!</tspan></text>
    </g>
  </g>
  <g
     inkscape:groupmode="layer"
     id="layer2"
     inkscape:label="枠面"
     sodipodi:insensitive="true">
    <path
       style="fill:#ffffff;stroke:none;display:inline"
       d="m 0,0 0,320 370,0 0,-320 -10,10 0,300 -350,0 0,-300 350,0 10,-10 z"
       id="path21072"
       inkscape:connector-curvature="0"
       sodipodi:nodetypes="ccccccccccc" />
  </g>
</svg>
