<?xml version="1.0" encoding="UTF-8" standalone="no"?>
<!-- Created with Inkscape (http://www.inkscape.org/) -->

<svg
   xmlns:dc="http://purl.org/dc/elements/1.1/"
   xmlns:cc="http://creativecommons.org/ns#"
   xmlns:rdf="http://www.w3.org/1999/02/22-rdf-syntax-ns#"
   xmlns:svg="http://www.w3.org/2000/svg"
   xmlns="http://www.w3.org/2000/svg"
   xmlns:sodipodi="http://sodipodi.sourceforge.net/DTD/sodipodi-0.dtd"
   xmlns:inkscape="http://www.inkscape.org/namespaces/inkscape"
   width="370"
   height="320"
   id="svg3172"
   version="1.1"
   inkscape:version="0.48.4 r9939"
   sodipodi:docname="[03.達成].svg">
  <defs
     id="defs3174" />
  <sodipodi:namedview
     id="base"
     pagecolor="#ffffff"
     bordercolor="#666666"
     borderopacity="1.0"
     inkscape:pageopacity="0.0"
     inkscape:pageshadow="2"
     inkscape:zoom="0.80430638"
     inkscape:cx="191.48213"
     inkscape:cy="76.408155"
     inkscape:document-units="px"
     inkscape:current-layer="layer9"
     showgrid="false"
     inkscape:window-width="1098"
     inkscape:window-height="698"
     inkscape:window-x="-5"
     inkscape:window-y="-5"
     inkscape:window-maximized="0" />
  <metadata
     id="metadata3177">
    <rdf:RDF>
      <cc:Work
         rdf:about="">
        <dc:format>image/svg+xml</dc:format>
        <dc:type
           rdf:resource="http://purl.org/dc/dcmitype/StillImage" />
        <dc:title></dc:title>
      </cc:Work>
    </rdf:RDF>
  </metadata>
  <g
     inkscape:label="補助線"
     inkscape:groupmode="layer"
     id="layer1"
     transform="translate(0,-732.36218)"
     sodipodi:insensitive="true"
     style="display:none">
    <path
       style="fill:none;stroke:#0000ff;stroke-width:1px;stroke-linecap:butt;stroke-linejoin:miter;stroke-opacity:1;display:inline"
       d="M 10,1042.3622 360,742.36211"
       id="path3025"
       inkscape:connector-curvature="0"
       sodipodi:nodetypes="cc" />
    <path
       style="fill:none;stroke:#0000ff;stroke-width:1px;stroke-linecap:butt;stroke-linejoin:miter;stroke-opacity:1;display:inline"
       d="M 10,742.36211 360,1042.3622"
       id="path3027"
       inkscape:connector-curvature="0"
       sodipodi:nodetypes="cc" />
    <path
       style="fill:none;stroke:#ff0000;stroke-width:1px;stroke-linecap:butt;stroke-linejoin:miter;stroke-opacity:1;display:inline"
       d="m 10,732.36211 0,320.00009"
       id="path3006"
       inkscape:connector-curvature="0"
       sodipodi:nodetypes="cc" />
    <path
       style="fill:none;stroke:#ff0000;stroke-width:1px;stroke-linecap:butt;stroke-linejoin:miter;stroke-opacity:1;display:inline"
       d="m 360,732.36211 0,320.00009"
       id="path3010"
       inkscape:connector-curvature="0"
       sodipodi:nodetypes="cc" />
    <path
       style="fill:none;stroke:#ff0000;stroke-width:1px;stroke-linecap:butt;stroke-linejoin:miter;stroke-opacity:1;display:inline"
       d="m 0,742.36208 370,3e-5"
       id="path3016"
       inkscape:connector-curvature="0" />
    <path
       style="fill:none;stroke:#ff0000;stroke-width:1px;stroke-linecap:butt;stroke-linejoin:miter;stroke-opacity:1;display:inline"
       d="m 0,1042.3622 370,0"
       id="path3018"
       inkscape:connector-curvature="0"
       sodipodi:nodetypes="cc" />
  </g>
  <g
     inkscape:groupmode="layer"
     id="layer3"
     inkscape:label="豚"
     sodipodi:insensitive="true">
    <g
       style="stroke-width:2.86184883;display:inline"
       id="g9426"
       transform="matrix(0.69884894,0,0,0.69884894,294.57193,1322.3345)">
      <path
         sodipodi:nodetypes="ccccc"
         inkscape:connector-curvature="0"
         id="path9337-9"
         d="m 87.608657,-1608.7102 c 18.016173,47.4436 -28.794144,58.7975 -37.500004,52.25 l -102.45458,-9.3882 c 10.555947,-20.7079 24.628036,-39.1823 42.305086,-56.3165 z"
         style="fill:#ffd5d5;stroke:none;display:inline" />
      <path
         sodipodi:nodetypes="cc"
         inkscape:connector-curvature="0"
         id="path5091-2-40-9-9-9-4"
         d="m 69.841788,-1663.3844 c 14.22318,0.672 26.15957,23.9411 20.21769,31.0977"
         style="fill:#ffd5d5;stroke:#000000;stroke-width:2.86184883;stroke-linecap:butt;stroke-linejoin:miter;stroke-opacity:1;display:inline" />
      <path
         sodipodi:nodetypes="cccscc"
         inkscape:connector-curvature="0"
         id="path5093-4-9-4-2-3-2-9"
         d="m 85.305888,-1605.6476 c 10.30191,-12.701 6.62985,-25.8137 1.59732,-34.16 l -7.19922,-13.5369 c -9.78252,-18.7439 -46.65555,-29.0338 -68.48438,-6.753 -12.9469093,13.215 -25.860513,30.5607 -19.1502993,45.2086 z"
         style="fill:#ffd5d5;stroke:none;display:inline" />
      <path
         sodipodi:nodetypes="csc"
         inkscape:connector-curvature="0"
         id="path7585"
         d="m 79.722085,-1653.3471 c -9.78252,-18.7439 -46.655551,-29.0338 -68.484386,-6.753 -12.9469069,13.215 -25.860509,30.5607 -19.1502951,45.2086"
         style="fill:none;stroke:#000000;stroke-width:2.86184883;stroke-linecap:butt;stroke-linejoin:miter;stroke-opacity:1;display:inline" />
      <path
         inkscape:connector-curvature="0"
         id="path5093-4-9-4-2-3-2"
         d="m 86.921308,-1639.8102 c 5.03253,8.3463 8.70459,21.459 -1.59732,34.16"
         style="fill:none;stroke:#000000;stroke-width:2.86184883;stroke-linecap:butt;stroke-linejoin:miter;stroke-opacity:1;display:inline" />
      <path
         sodipodi:nodetypes="cc"
         inkscape:connector-curvature="0"
         id="path5095-5-4-8-7-4-3"
         d="m 71.856068,-1642.5414 c -0.35853,1.3879 -0.47611,3.676 -0.43175,5.4205"
         style="fill:none;stroke:#000000;stroke-width:2.86184883;stroke-linecap:butt;stroke-linejoin:miter;stroke-opacity:1;display:inline" />
      <path
         sodipodi:nodetypes="cc"
         inkscape:connector-curvature="0"
         id="path5097-5-8-8-9-4-2"
         d="m 55.251988,-1638.6703 c 1.86187,1.3925 4.51414,4.2385 5.93189,5.9693"
         style="fill:none;stroke:#000000;stroke-width:2.86184883;stroke-linecap:butt;stroke-linejoin:miter;stroke-opacity:1;display:inline" />
      <path
         sodipodi:nodetypes="csc"
         inkscape:connector-curvature="0"
         id="path5099-1-8-2-54-6-21"
         d="m 19.708941,-1665.3245 c -19.96012007,1.2386 -25.5554141,32.0046 -19.26046207,36.0814 4.85145797,3.142 19.26235207,-11.1757 26.92668907,-14.0987"
         style="fill:#ffd5d5;stroke:#000000;stroke-width:2.86184883;stroke-linecap:butt;stroke-linejoin:miter;stroke-opacity:1;display:inline" />
      <path
         sodipodi:nodetypes="ssssss"
         inkscape:connector-curvature="0"
         id="path5101-7-2-4-3-0-6"
         d="m 54.807118,-1622.2707 c -6.95676,10.8634 -1.79893,18.3123 7.99621,15.2715 4.42521,-1.3738 9.82092,-2.4117 13.66991,-2.075 6.14718,0.5377 7.46597,-6.9739 7.54705,-10.4525 0.1169,-5.0151 -5.59509,-16.0436 -11.68544,-15.8682 -5.67537,0.1634 -12.62388,5.4665 -17.52773,13.1242 z"
         style="fill:#ffaaaa;stroke:#000000;stroke-width:2.86184883;stroke-linecap:butt;stroke-linejoin:miter;stroke-opacity:1;display:inline" />
      <path
         inkscape:connector-curvature="0"
         id="path5105-1-4-55-12-6-8"
         d="m 61.599738,-1614.2771 c 1.15958,1.2252 8.04157,-12.6227 6.70383,-12.6376 -2.17376,-0.024 -8.86845,10.3504 -6.70383,12.6376 z"
         style="fill:#000000;stroke:#000000;stroke-width:2.86184883;display:inline" />
      <path
         inkscape:connector-curvature="0"
         id="path5107-1-5-1-3-6-5"
         d="m 75.527638,-1626.2587 c -0.94718,-0.6093 -0.32029,11.7781 0.77884,10.8534 3.53184,-2.9714 0.96849,-9.7292 -0.77884,-10.8534 z"
         style="fill:#000000;stroke:#000000;stroke-width:2.86184883;display:inline" />
      <path
         sodipodi:nodetypes="cssscc"
         inkscape:connector-curvature="0"
         id="path9339-5"
         d="m 59.048397,-1554.8224 c 0,0 -6.097958,0.9379 -8.793416,-1.5437 -1.881261,-1.732 2.836794,-4.7236 2.75,-6.75 -0.09844,-2.2982 -2.699459,-4.0897 -3.25,-7.25 -0.380525,-2.1843 4.530118,-6.9821 8.142647,-8.9088 8.632599,-0.253 7.49822,23.7887 1.150769,24.4525 z"
         style="fill:#ffaaaa;stroke:none;display:inline" />
      <path
         sodipodi:nodetypes="csssc"
         inkscape:connector-curvature="0"
         id="path9337"
         d="m 87.75,-1608.6378 c 18.01617,47.4436 -28.794141,58.7975 -37.5,52.25 -2.04369,-1.537 2.836794,-4.7236 2.75,-6.75 -0.09844,-2.2982 -2.699459,-4.0897 -3.25,-7.25 -0.380525,-2.1843 8.242744,-9.9732 14.328427,-12.7678"
         style="fill:none;stroke:#000000;stroke-width:2.86184883;stroke-linecap:butt;stroke-linejoin:miter;stroke-opacity:1" />
      <path
         sodipodi:nodetypes="cc"
         inkscape:connector-curvature="0"
         id="path9339"
         d="m 57.894367,-1579.3125 c 8.630879,-0.2371 7.518597,23.9151 1.171146,24.5789"
         style="fill:none;stroke:#000000;stroke-width:2.86184883;stroke-linecap:butt;stroke-linejoin:miter;stroke-opacity:1" />
      <path
         sodipodi:nodetypes="cc"
         inkscape:connector-curvature="0"
         id="path9341"
         d="m -9.8994952,-1622.0925 c -17.6770498,17.1342 -31.7491388,35.6086 -42.3050858,56.3165"
         style="fill:none;stroke:#000000;stroke-width:2.86184883;stroke-linecap:butt;stroke-linejoin:miter;stroke-opacity:1" />
    </g>
    <g
       style="stroke-width:2.86184883;display:inline"
       id="g9204"
       transform="matrix(0.69884894,0,0,0.69884894,292.806,1321.753)">
      <path
         sodipodi:nodetypes="ccccc"
         inkscape:connector-curvature="0"
         id="path3327-4-1-4"
         d="m -145.04446,-1636.09 c -22.96662,22.7958 -38.51195,63.1689 -19.70739,84.4257 0,0 119.831642,-12.9856 134.698817,-10.3552 17.054033,3.0173 30.99118438,-32.2256 14.334577,-48.5586 z"
         style="fill:#ffd5d5;stroke:none;display:inline" />
      <path
         sodipodi:nodetypes="cc"
         inkscape:connector-curvature="0"
         id="path5091-2-40-9-2-5"
         d="m -33.759717,-1677.7359 c 18.105109,6.4436 27.0639237,24.6432 21.308191,40.1638"
         style="fill:#ffd5d5;stroke:#000000;stroke-width:2.86184883;stroke-linecap:butt;stroke-linejoin:miter;stroke-opacity:1;display:inline" />
      <path
         sodipodi:nodetypes="cccscc"
         inkscape:connector-curvature="0"
         id="path5093-4-9-4-4-4-3"
         d="m -19.30272,-1604.9896 c 8.395142,-7.7013 13.0015397,-26.0266 5.131925,-43.0273 l -6.876181,-15.4208 c -26.377328,-43.1468 -71.703273,-33.9758 -99.760494,-11.4598 -19.84502,15.9256 -28.36953,40.2503 -23.23467,54.2079 z"
         style="fill:#ffd5d5;stroke:none;display:inline" />
      <path
         sodipodi:nodetypes="scs"
         inkscape:connector-curvature="0"
         id="path8997-9"
         d="m -24.406696,-1598.2329 c 22.8506642,-4.3131 0.413325,48.2067 -13.330628,28.5392 -3.540603,-10.6294 2.68971,-26.5307 13.330628,-28.5392 z"
         style="fill:#ffaaaa;stroke:none;display:inline" />
      <path
         style="fill:#ffaaaa;stroke:none;display:inline"
         d="m -77.385925,-1594.9838 c 2.839476,1.3663 12.029117,5.763 11.895133,8.6982 -0.115002,2.5194 -5.680475,5.228 -4.767368,8.9726 0.657814,2.6978 3.166914,4.3897 1.458332,7.032 -1.709682,2.6439 -6.958604,4.6627 -10.314912,5.1444 -8.344173,2.531 -7.494195,-32.9895 1.728815,-29.8472 z"
         id="path5111-7-1-7-7-7-1-9"
         inkscape:connector-curvature="0"
         sodipodi:nodetypes="cssscc" />
      <path
         inkscape:connector-curvature="0"
         id="path4221"
         d="m -20.914645,-1663.5335 c -26.377323,-43.1467 -71.703268,-33.9758 -99.760485,-11.4598 -19.84502,15.9256 -28.36953,40.2503 -23.23467,54.2079"
         style="fill:none;stroke:#000000;stroke-width:2.86184883;stroke-linecap:butt;stroke-linejoin:miter;stroke-opacity:1;display:inline" />
      <path
         sodipodi:nodetypes="cc"
         inkscape:connector-curvature="0"
         id="path3327-4-1"
         d="m -144.97277,-1636.0865 c -22.56592,22.7958 -38.51194,63.1689 -19.70739,84.4257"
         style="fill:none;stroke:#000000;stroke-width:2.86184883;stroke-linecap:butt;stroke-linejoin:miter;stroke-opacity:1;display:inline" />
      <path
         inkscape:connector-curvature="0"
         id="path5093-4-9-4-4-4"
         d="m -14.038462,-1648.1127 c 7.8696164,17.0007 3.263216,35.326 -5.131924,43.0274"
         style="fill:none;stroke:#000000;stroke-width:2.86184883;stroke-linecap:butt;stroke-linejoin:miter;stroke-opacity:1;display:inline" />
      <path
         sodipodi:nodetypes="cc"
         inkscape:connector-curvature="0"
         id="path5095-5-4-8-5-2"
         d="m -27.128303,-1656.0829 c -0.928393,1.4979 -2.001144,3.6589 -3.053623,5.4856"
         style="fill:none;stroke:#000000;stroke-width:2.86184883;stroke-linecap:butt;stroke-linejoin:miter;stroke-opacity:1;display:inline" />
      <path
         sodipodi:nodetypes="cc"
         inkscape:connector-curvature="0"
         id="path5097-5-8-8-5-0"
         d="m -52.716851,-1662.8012 c 1.276858,2.2312 3.840526,8.0344 4.998286,10.7908"
         style="fill:none;stroke:#000000;stroke-width:2.86184883;stroke-linecap:butt;stroke-linejoin:miter;stroke-opacity:1;display:inline" />
      <path
         inkscape:connector-curvature="0"
         id="path5099-1-8-2-7-9"
         d="m -100.62533,-1685.7409 c -35.75443,-0.1399 -37.05506,44.176 -27.86208,47.6485 7.80848,2.9495 25.89003,-17.2117 36.760022,-21.8874"
         style="fill:#ffd5d5;stroke:#000000;stroke-width:2.86184883;stroke-linecap:butt;stroke-linejoin:miter;stroke-opacity:1;display:inline" />
      <path
         sodipodi:nodetypes="ssssss"
         inkscape:connector-curvature="0"
         id="path5101-7-2-4-1-7"
         d="m -33.741207,-1648.9299 c -11.026866,-2.5551 -22.326078,4.2481 -30.387984,11.7549 -11.041131,10.2809 -5.563372,21.0588 4.1251,20.2573 9.84262,-0.8142 18.779916,0.509 23.923469,3.3868 7.972645,4.4605 12.167319,-5.6657 12.866958,-14.7017 0.797417,-10.2987 -4.353697,-19.2667 -10.527543,-20.6973 z"
         style="fill:#ffaaaa;stroke:#000000;stroke-width:2.86184883;stroke-linecap:butt;stroke-linejoin:miter;stroke-opacity:1;display:inline" />
      <path
         sodipodi:nodetypes="sss"
         inkscape:connector-curvature="0"
         id="path5105-1-4-55-1-3"
         d="m -52.986981,-1625.762 c 1.666214,3.7006 13.618141,-14.0848 11.753937,-14.8226 -2.245402,-0.8887 -14.290323,9.1895 -11.753937,14.8226 z"
         style="fill:#000000;stroke:#000000;stroke-width:2.86184883;stroke-linecap:butt;stroke-linejoin:miter;stroke-opacity:1;display:inline" />
      <path
         sodipodi:nodetypes="sss"
         inkscape:connector-curvature="0"
         id="path5107-1-5-1-5-7"
         d="m -33.147396,-1638.1586 c -1.93755,-0.8184 -6.000206,17.051 -3.352972,16.2348 5.298221,-1.6336 5.842311,-15.1834 3.352972,-16.2348 z"
         style="fill:#000000;stroke:#000000;stroke-width:2.86184883;stroke-linecap:butt;stroke-linejoin:miter;stroke-opacity:1;display:inline" />
      <path
         sodipodi:nodetypes="cssc"
         inkscape:connector-curvature="0"
         id="path8997"
         d="m -15.646755,-1610.5746 c 16.6566009,16.333 2.719449,51.5759 -14.334584,48.5586 -14.86717,-2.6304 -9.338073,-34.3591 5.510129,-36.3676 23.0442898,-3.1171 0.413325,48.2067 -13.337597,28.5242"
         style="fill:none;stroke:#000000;stroke-width:2.86184883;stroke-linecap:butt;stroke-linejoin:miter;stroke-opacity:1" />
      <path
         sodipodi:nodetypes="ccc"
         inkscape:connector-curvature="0"
         id="path8999-6"
         d="m -31.984715,-1587.1181 c -1.599118,4.6716 3.665692,13.1481 11.063541,4.9723 -1.967495,14.5874 -20.546896,16.8351 -11.063541,-4.9723 z"
         style="fill:#ff8080;stroke:none;display:inline" />
      <path
         sodipodi:nodetypes="ccc"
         inkscape:connector-curvature="0"
         id="path8999"
         d="m -31.931293,-1587.453 c -1.599118,4.6716 3.665692,13.1481 11.063541,4.9723 -1.967495,14.5874 -20.546896,16.8351 -11.063541,-4.9723 z"
         style="fill:none;stroke:#000000;stroke-width:2.86184883;stroke-linecap:butt;stroke-linejoin:miter;stroke-opacity:1" />
      <path
         style="fill:none;stroke:#000000;stroke-width:2.86184883;stroke-linecap:butt;stroke-linejoin:miter;stroke-opacity:1;display:inline"
         d="m -105.81681,-1611.0098 c 16.890256,11.6674 39.963226,19.8891 40.537575,24.8076 0.292526,2.505 -5.680475,5.228 -4.767368,8.9726 0.657814,2.6978 3.121189,4.3607 1.458332,7.032 -3.409681,5.4773 -31.750259,10.4711 -42.365189,7.4293"
         id="path5089-8-7-0-8-65"
         inkscape:connector-curvature="0"
         sodipodi:nodetypes="csssc" />
      <path
         style="fill:none;stroke:#000000;stroke-width:2.86184883;stroke-linecap:butt;stroke-linejoin:miter;stroke-opacity:1;display:inline"
         d="m -78.869559,-1565.0714 c -8.377797,2.5492 -7.527819,-32.9713 1.720978,-29.7279"
         id="path5111-7-1-7-7-7-1"
         inkscape:connector-curvature="0"
         sodipodi:nodetypes="cc" />
    </g>
    <g
       style="stroke-width:2.86184883;display:inline"
       id="g8972"
       transform="matrix(-0.69884894,0,0,0.69884894,-101.83641,1309.4863)">
      <path
         sodipodi:nodetypes="csssccscc"
         inkscape:connector-curvature="0"
         id="path5089-8-7-0-8-7"
         d="m -379.37161,-1533.4953 c -17.09985,-18.9008 -49.16621,-39.9216 -49.81718,-45.4963 -0.33155,-2.8393 3.0664,-5.2832 2.03148,-9.5274 -0.74557,-3.0576 -2.09248,-6.227 -0.20779,-9.2546 3.86455,-6.208 36.78874,-10.4229 48.81975,-6.9754 l 176.66305,-7.2081 c 28.78903,13.5394 44.58671,58.4297 38.95582,62.8293 -3.05178,2.3844 -6.71438,-1.1594 -10.51608,-1.5879 z"
         style="fill:#ffd5d5;stroke:none;display:inline" />
      <path
         inkscape:connector-curvature="0"
         id="path3333-4"
         d="m -186.97869,-1492.1038 c 20.82474,0.2652 36.84755,20.276 13.57494,26.0779 -19.085,4.7579 -59.35153,2.5501 -70.65014,-5.1212"
         style="fill:#ffd5d5;stroke:#000000;stroke-width:2.86184883;stroke-linecap:butt;stroke-linejoin:miter;stroke-opacity:1;display:inline" />
      <path
         sodipodi:nodetypes="csc"
         inkscape:connector-curvature="0"
         id="path5103-8-1-4-9"
         d="m -293.91932,-1466.6542 c -7.92325,5.4813 -51.34581,11.8269 -69.71225,5.7056 -18.11741,-6.0384 -2.07924,-22.099 15.57413,-22.6319"
         style="fill:#ffd5d5;stroke:#000000;stroke-width:2.86184883;stroke-linecap:butt;stroke-linejoin:miter;stroke-opacity:1;display:inline" />
      <path
         sodipodi:nodetypes="ccccccc"
         inkscape:connector-curvature="0"
         id="path3327-4-0"
         d="m -196.34358,-1587.2634 c 28.27535,32.8224 37.39271,71.8273 12.50463,99.9609 l -21.96984,4.157 c -17.55723,19.3806 -86.85081,17.2879 -120.8156,15.1331 l -11.3203,-6.6783 c -31.08215,-6.4373 -44.30729,-38.9784 -40.07375,-76.3753 z"
         style="fill:#ffd5d5;stroke:none;display:inline" />
      <path
         sodipodi:nodetypes="sssccs"
         inkscape:connector-curvature="0"
         id="path5089-8-7-0-8-3"
         d="m -429.4743,-1578.8603 c -0.33155,-2.8393 3.0664,-5.2832 2.03148,-9.5274 -0.74557,-3.0576 -2.0925,-6.227 -0.20779,-9.2546 1.49784,-2.4061 7.3611,-4.5129 14.72975,-5.8802 1.67616,2.8404 0.29426,36.1629 -2.15623,38.8947 -8.1161,-6.6578 -14.11931,-11.8526 -14.39721,-14.2325 z"
         style="fill:#ffaaaa;stroke:none;display:inline" />
      <path
         sodipodi:nodetypes="cc"
         inkscape:connector-curvature="0"
         id="path5111-7-1-7-7-7"
         d="m -412.71867,-1603.3123 c 1.62772,2.7305 0.24582,36.053 -2.20853,38.7996"
         style="fill:none;stroke:#000000;stroke-width:2.86184883;stroke-linecap:butt;stroke-linejoin:miter;stroke-opacity:1;display:inline" />
      <path
         sodipodi:nodetypes="csccc"
         inkscape:connector-curvature="0"
         id="path3386-71"
         d="m -173.72808,-1550.5844 c 3.8017,0.4285 7.46432,3.9723 10.51608,1.5879 5.63091,-4.3996 -3.45066,-21.6685 -3.45066,-21.6685 l -13.81787,7.0488 z"
         style="fill:#ffaaaa;stroke:none;display:inline" />
      <path
         sodipodi:nodetypes="cc"
         inkscape:connector-curvature="0"
         id="path3331-0"
         d="m -338.12437,-1474.734 c -31.08215,-6.4373 -44.30729,-38.9784 -40.07375,-76.3753"
         style="fill:none;stroke:#000000;stroke-width:2.86184883;stroke-linecap:butt;stroke-linejoin:miter;stroke-opacity:1;display:inline" />
      <path
         sodipodi:nodetypes="cc"
         inkscape:connector-curvature="0"
         id="path3327-4"
         d="m -196.52326,-1587.3067 c 28.27535,32.8224 37.39271,71.8273 12.50463,99.9609"
         style="fill:none;stroke:#000000;stroke-width:2.86184883;stroke-linecap:butt;stroke-linejoin:miter;stroke-opacity:1;display:inline" />
      <path
         inkscape:connector-curvature="0"
         id="path3325-8"
         d="m -205.98847,-1483.1888 c -17.55723,19.3806 -86.85081,17.2879 -120.8156,15.1331"
         style="fill:none;stroke:#000000;stroke-width:2.86184883;stroke-linecap:butt;stroke-linejoin:miter;stroke-opacity:1;display:inline" />
      <path
         sodipodi:nodetypes="csssc"
         inkscape:connector-curvature="0"
         id="path5089-8-7-0-8"
         d="m -379.50337,-1533.2637 c -17.09985,-18.9008 -49.16621,-39.9216 -49.81718,-45.4963 -0.33155,-2.8393 3.0664,-5.2832 2.03148,-9.5274 -0.74557,-3.0576 -2.09248,-6.227 -0.20779,-9.2546 3.86455,-6.208 36.78874,-10.4229 48.81975,-6.9754"
         style="fill:none;stroke:#000000;stroke-width:2.86184883;stroke-linecap:butt;stroke-linejoin:miter;stroke-opacity:1;display:inline" />
      <path
         sodipodi:nodetypes="csc"
         inkscape:connector-curvature="0"
         id="path3386"
         d="m -202.01406,-1611.7255 c 28.78903,13.5394 44.58671,58.4297 38.95582,62.8293 -3.05178,2.3844 -6.71438,-1.1594 -10.51608,-1.5879"
         style="fill:none;stroke:#000000;stroke-width:2.86184883;stroke-linecap:butt;stroke-linejoin:miter;stroke-opacity:1" />
      <path
         sodipodi:nodetypes="cc"
         inkscape:connector-curvature="0"
         id="path3388"
         d="m -166.5089,-1570.5647 -13.81787,7.0488"
         style="fill:none;stroke:#000000;stroke-width:2.86184883;stroke-linecap:butt;stroke-linejoin:miter;stroke-opacity:1" />
      <path
         sodipodi:nodetypes="cc"
         inkscape:connector-curvature="0"
         id="path5091-2-40-9-2"
         d="m -343.84427,-1684.5826 c -21.26331,4.668 -35.0748,28.0143 -32.9572,52.6391"
         style="fill:#ffd5d5;stroke:#000000;stroke-width:2.86184883;stroke-linecap:butt;stroke-linejoin:miter;stroke-opacity:1;display:inline" />
      <path
         sodipodi:nodetypes="cccscc"
         inkscape:connector-curvature="0"
         id="path5093-4-9-4-4-3"
         d="m -369.0674,-1585.6651 c -10.69051,-10.6332 -15.4245,-32.0956 -4.10904,-54.1574 l 9.53881,-23.0433 c 37.18777,-55.6493 96.63832,-41.0994 132.53903,-9.8243 25.39277,22.1211 35.36611,54.7444 27.8298,72.9279 z"
         style="fill:#ffd5d5;stroke:none;display:inline" />
      <path
         inkscape:connector-curvature="0"
         id="path4041"
         d="m -363.85937,-1662.8634 c 37.18777,-55.6493 96.63831,-41.0995 132.53902,-9.8244 25.39278,22.1211 35.36612,54.7445 27.82981,72.9279"
         style="fill:none;stroke:#000000;stroke-width:2.86184883;stroke-linecap:butt;stroke-linejoin:miter;stroke-opacity:1;display:inline" />
      <path
         sodipodi:nodetypes="cc"
         inkscape:connector-curvature="0"
         id="path5093-4-9-4-4"
         d="m -373.39819,-1639.8201 c -11.31546,22.0617 -6.58146,43.5241 4.10904,54.1573"
         style="fill:none;stroke:#000000;stroke-width:2.86184883;stroke-linecap:butt;stroke-linejoin:miter;stroke-opacity:1;display:inline" />
      <path
         inkscape:connector-curvature="0"
         id="path5095-5-4-8-5"
         d="m -346.85472,-1650.8258 c 1.1477,2.0305 2.45086,4.9458 3.7451,7.4176"
         style="fill:none;stroke:#000000;stroke-width:2.86184883;stroke-linecap:butt;stroke-linejoin:miter;stroke-opacity:1;display:inline" />
      <path
         inkscape:connector-curvature="0"
         id="path5097-5-8-8-5"
         d="m -312.35559,-1655.1676 c -1.80779,2.8825 -5.50816,10.4198 -7.1865,14.0031"
         style="fill:none;stroke:#000000;stroke-width:2.86184883;stroke-linecap:butt;stroke-linejoin:miter;stroke-opacity:1;display:inline" />
      <path
         sodipodi:nodetypes="csc"
         inkscape:connector-curvature="0"
         id="path5099-1-8-2-7"
         d="m -263.50937,-1691.2269 c 54.80444,1.5286 54.05557,62.7009 41.71288,66.8018 -10.48378,3.4833 -30.86059,-23.0446 -44.9856,-29.8087"
         style="fill:#ffd5d5;stroke:#000000;stroke-width:2.86184883;stroke-linecap:butt;stroke-linejoin:miter;stroke-opacity:1;display:inline" />
      <path
         inkscape:connector-curvature="0"
         id="path5101-7-2-4-1"
         d="m -336.58296,-1642.4175 c 14.68642,0.6765 27.69951,11.1187 35.65339,23.3374 8.85992,13.6105 0.83987,23.4783 -11.92968,21.9007 -12.97271,-1.6026 -26.40055,-1.534 -35.07629,1.2071 -12.00033,3.7915 -17.51031,-9.6071 -14.35514,-21.1798 3.97837,-14.5921 15.86339,-25.7188 25.70772,-25.2654 z"
         style="fill:#ffaaaa;stroke:#000000;stroke-width:2.86184883;stroke-linecap:butt;stroke-linejoin:miter;stroke-opacity:1;display:inline" />
      <path
         sodipodi:nodetypes="sss"
         inkscape:connector-curvature="0"
         id="path5105-1-4-55-1"
         d="m -318.35469,-1607.6152 c -5.0985,1.6899 -14.1984,-20.7316 -11.69371,-21.6076 3.0169,-1.0552 16.62056,19.9745 11.69371,21.6076 z"
         style="fill:#000000;stroke:#000000;stroke-width:2.86184883;stroke-linecap:butt;stroke-linejoin:miter;stroke-opacity:1;display:inline" />
      <path
         inkscape:connector-curvature="0"
         id="path5107-1-5-1-5"
         d="m -343.41789,-1628.4262 c 2.88988,1.2847 3.39652,21.9925 -0.16516,21.1225 -5.09123,-1.2437 -3.10297,-22.5752 0.16516,-21.1225 z"
         style="fill:#000000;stroke:#000000;stroke-width:2.86184883;stroke-linecap:butt;stroke-linejoin:miter;stroke-opacity:1;display:inline" />
    </g>
    <path
       sodipodi:type="spiral"
       style="fill:none;stroke:#000000;stroke-width:4.41139889;stroke-linecap:butt;stroke-linejoin:miter;stroke-opacity:1;display:inline"
       id="path9443"
       sodipodi:cx="-185.26198"
       sodipodi:cy="-1539.8912"
       sodipodi:expansion="1"
       sodipodi:revolution="2.2553272"
       sodipodi:radius="92.021736"
       sodipodi:argument="-14.124517"
       sodipodi:t0="0"
       d="m -185.26198,-1539.8912 c 0.0776,-6.1368 8.31051,-2.923 10.19967,0.129 5.11952,8.2708 -2.52344,17.8548 -10.45772,20.2703 -14.19258,4.3207 -27.65115,-7.2713 -30.34096,-20.7864 -3.9474,-19.834 12.04208,-37.6229 31.11512,-40.4116 25.42137,-3.7169 47.66256,16.8155 50.48224,41.4438 3.54828,30.9922 -21.58893,57.7359 -51.77251,60.5529 -36.55637,3.4117 -67.82853,-26.3621 -70.62353,-62.1012 -3.29381,-42.1174 31.13493,-77.9332 72.42991,-80.6942 47.67669,-3.1877 88.045892,35.9077 90.764812,82.7586 0.05956,1.0263 0.101839,2.0537 0.12685,3.0814"
       transform="matrix(-0.68859588,0.12777256,0.05354448,0.28856359,189.96173,722.26837)" />
    <path
       sodipodi:type="spiral"
       style="fill:none;stroke:#000000;stroke-width:6.13102293;stroke-linecap:butt;stroke-linejoin:miter;stroke-opacity:1;display:inline"
       id="path9443-3"
       sodipodi:cx="-185.26198"
       sodipodi:cy="-1539.8912"
       sodipodi:expansion="1"
       sodipodi:revolution="2.2553272"
       sodipodi:radius="92.021736"
       sodipodi:argument="-14.124517"
       sodipodi:t0="0"
       d="m -185.26198,-1539.8912 c 0.0776,-6.1368 8.31051,-2.923 10.19967,0.129 5.11952,8.2708 -2.52344,17.8548 -10.45772,20.2703 -14.19258,4.3207 -27.65115,-7.2713 -30.34096,-20.7864 -3.9474,-19.834 12.04208,-37.6229 31.11512,-40.4116 25.42137,-3.7169 47.66256,16.8155 50.48224,41.4438 3.54828,30.9922 -21.58893,57.7359 -51.77251,60.5529 -36.55637,3.4117 -67.82853,-26.3621 -70.62353,-62.1012 -3.29381,-42.1174 31.13493,-77.9332 72.42991,-80.6942 47.67669,-3.1877 88.045892,35.9077 90.764812,82.7586 0.05956,1.0263 0.101839,2.0537 0.12685,3.0814"
       transform="matrix(-0.52960397,0.00457271,0.00211678,0.20091084,221.29203,561.23514)" />
  </g>
  <g
     inkscape:groupmode="layer"
     id="layer9"
     inkscape:label="吹き出し"
     sodipodi:insensitive="true"
     style="display:inline">
    <g
       transform="translate(6.9924335,2.1341665)"
       id="g5232">
      <path
         sodipodi:nodetypes="cccccccccc"
         inkscape:connector-curvature="0"
         id="rect7294"
         d="M 6.9871861,76.281907 C 31.790782,80.703707 59.153744,86.266395 51.941412,103.08846 83.411724,93.096419 120.86279,95.806764 115.70669,115.19498 133.6243,91.028669 159.25401,91.315794 171.4309,104.50307 169.77274,89.794494 183.48763,83.08006 216.36899,89.997068 193.42879,76.721137 191.53297,55.25227 232.1906,41.207295 190.96369,45.157301 156.13596,29.58725 168.89173,17.659183 149.99802,24.862317 111.24773,26.779379 98.562749,11.508248 91.700031,24.306751 66.24525,36.243994 27.676959,26.014239 42.064564,39.04519 34.493076,69.66223 6.9871861,76.281907 z"
         style="fill:#fefefe;fill-opacity:1;stroke:#000000;stroke-width:3;stroke-linecap:round;stroke-miterlimit:4;stroke-opacity:1;stroke-dashoffset:0;display:inline" />
      <text
         sodipodi:linespacing="125%"
         id="text11601"
         y="77.614006"
         x="57.050983"
         style="font-size:45.46528625px;font-style:normal;font-weight:normal;line-height:125%;letter-spacing:0px;word-spacing:0px;writing-mode:lr-tb;fill:#000000;fill-opacity:1;stroke:none;display:inline;font-family:Sans"
         xml:space="preserve"><tspan
           y="77.614006"
           x="57.050983"
           id="tspan11603"
           sodipodi:role="line">急げ!!</tspan></text>
    </g>
  </g>
  <g
     inkscape:groupmode="layer"
     id="layer2"
     inkscape:label="枠面"
     sodipodi:insensitive="true">
    <path
       style="fill:#ffffff;stroke:none;display:inline"
       d="m 0,0 0,320 370,0 0,-320 -10,10 0,300 -350,0 0,-300 350,0 10,-10 z"
       id="path21072"
       inkscape:connector-curvature="0"
       sodipodi:nodetypes="ccccccccccc" />
  </g>
</svg>
