<?xml version="1.0" encoding="UTF-8" standalone="no"?>
<!-- Created with Inkscape (http://www.inkscape.org/) -->

<svg
   xmlns:dc="http://purl.org/dc/elements/1.1/"
   xmlns:cc="http://creativecommons.org/ns#"
   xmlns:rdf="http://www.w3.org/1999/02/22-rdf-syntax-ns#"
   xmlns:svg="http://www.w3.org/2000/svg"
   xmlns="http://www.w3.org/2000/svg"
   xmlns:sodipodi="http://sodipodi.sourceforge.net/DTD/sodipodi-0.dtd"
   xmlns:inkscape="http://www.inkscape.org/namespaces/inkscape"
   width="370"
   height="320"
   id="svg3172"
   version="1.1"
   inkscape:version="0.48.4 r9939"
   sodipodi:docname="[02.緊急].svg">
  <defs
     id="defs3174" />
  <sodipodi:namedview
     id="base"
     pagecolor="#ffffff"
     bordercolor="#666666"
     borderopacity="1.0"
     inkscape:pageopacity="0.0"
     inkscape:pageshadow="2"
     inkscape:zoom="0.89699012"
     inkscape:cx="2.2601182"
     inkscape:cy="176.67562"
     inkscape:document-units="px"
     inkscape:current-layer="layer3"
     showgrid="false"
     inkscape:window-width="1226"
     inkscape:window-height="698"
     inkscape:window-x="-5"
     inkscape:window-y="-5"
     inkscape:window-maximized="0" />
  <metadata
     id="metadata3177">
    <rdf:RDF>
      <cc:Work
         rdf:about="">
        <dc:format>image/svg+xml</dc:format>
        <dc:type
           rdf:resource="http://purl.org/dc/dcmitype/StillImage" />
        <dc:title />
      </cc:Work>
    </rdf:RDF>
  </metadata>
  <g
     inkscape:label="補助線"
     inkscape:groupmode="layer"
     id="layer1"
     transform="translate(0,-732.36218)"
     sodipodi:insensitive="true"
     style="display:none">
    <path
       style="fill:none;stroke:#0000ff;stroke-width:1px;stroke-linecap:butt;stroke-linejoin:miter;stroke-opacity:1;display:inline"
       d="M 10,1042.3622 360,742.36211"
       id="path3025"
       inkscape:connector-curvature="0"
       sodipodi:nodetypes="cc" />
    <path
       style="fill:none;stroke:#0000ff;stroke-width:1px;stroke-linecap:butt;stroke-linejoin:miter;stroke-opacity:1;display:inline"
       d="M 10,742.36211 360,1042.3622"
       id="path3027"
       inkscape:connector-curvature="0"
       sodipodi:nodetypes="cc" />
    <path
       style="fill:none;stroke:#ff0000;stroke-width:1px;stroke-linecap:butt;stroke-linejoin:miter;stroke-opacity:1;display:inline"
       d="m 10,732.36211 0,320.00009"
       id="path3006"
       inkscape:connector-curvature="0"
       sodipodi:nodetypes="cc" />
    <path
       style="fill:none;stroke:#ff0000;stroke-width:1px;stroke-linecap:butt;stroke-linejoin:miter;stroke-opacity:1;display:inline"
       d="m 360,732.36211 0,320.00009"
       id="path3010"
       inkscape:connector-curvature="0"
       sodipodi:nodetypes="cc" />
    <path
       style="fill:none;stroke:#ff0000;stroke-width:1px;stroke-linecap:butt;stroke-linejoin:miter;stroke-opacity:1;display:inline"
       d="m 0,742.36208 370,3e-5"
       id="path3016"
       inkscape:connector-curvature="0" />
    <path
       style="fill:none;stroke:#ff0000;stroke-width:1px;stroke-linecap:butt;stroke-linejoin:miter;stroke-opacity:1;display:inline"
       d="m 0,1042.3622 370,0"
       id="path3018"
       inkscape:connector-curvature="0"
       sodipodi:nodetypes="cc" />
  </g>
  <g
     inkscape:groupmode="layer"
     id="layer3"
     inkscape:label="豚"
     sodipodi:insensitive="true">
    <path
       sodipodi:type="arc"
       style="fill:#000000;fill-opacity:1;stroke:none"
       id="path3648"
       sodipodi:cx="85.285217"
       sodipodi:cy="290.73547"
       sodipodi:rx="77.481346"
       sodipodi:ry="11.984525"
       d="m 162.76656,290.73547 a 77.481346,11.984525 0 1 1 -154.9626888,0 77.481346,11.984525 0 1 1 154.9626888,0 z"
       transform="matrix(0.92446043,0,0,0.73841392,25.505319,72.495199)" />
    <g
       id="g3471"
       transform="translate(56.364208,-191.16531)">
      <path
         sodipodi:nodetypes="cccccc"
         inkscape:connector-curvature="0"
         id="path9341-3"
         d="m 281.39202,424.29191 18.11372,-32.1632 1.81136,-22.6715 -8.67902,-13.1722 -60.77297,24.47497 c -16.09806,9.80638 -24.15863,26.06748 -26.6087,38.56842"
         style="fill:#ffd5d5;stroke:#000000;stroke-width:2;stroke-linecap:butt;stroke-linejoin:miter;stroke-opacity:1" />
      <path
         style="fill:#ffd5d5;stroke:none;display:inline"
         d="m 299.98046,390.03128 c 12.59058,33.15591 -20.12276,41.09057 -26.20684,36.51486 -1.42823,-1.07413 1.98249,-3.30109 1.92184,-4.71723 -0.0688,-1.6061 -1.88652,-2.85809 -2.27126,-5.06666 -0.26593,-1.52649 5.76043,-6.96976 10.0134,-8.92276"
         id="path9337-1-8"
         inkscape:connector-curvature="0"
         sodipodi:nodetypes="csssc" />
      <path
         sodipodi:nodetypes="cc"
         inkscape:connector-curvature="0"
         id="path5091-2-40-9-9-9-4-2"
         d="m 285.85933,349.88458 c 11.22086,0.6667 17.81571,14.04966 14.0813,21.14136"
         style="fill:#ffd5d5;stroke:#000000;stroke-width:2;stroke-linecap:butt;stroke-linejoin:miter;stroke-opacity:1;display:inline" />
      <path
         sodipodi:nodetypes="csc"
         inkscape:connector-curvature="0"
         id="path7585-9"
         d="m 293.80728,357.8338 c -7.42773,-13.986 -34.05645,-18.86988 -48.42466,-3.49605 -8.82794,9.4458 -18.90872,22.89023 -14.21929,33.1269"
         style="fill:#ffd5d5;stroke:#000000;stroke-width:2;stroke-linecap:butt;stroke-linejoin:miter;stroke-opacity:1;display:inline" />
      <path
         sodipodi:nodetypes="cc"
         inkscape:connector-curvature="0"
         id="path5093-4-9-4-2-3-2-5"
         d="m 297.71661,366.70572 c 5.88601,7.36571 7.75546,18.20176 0.55598,27.2172"
         style="fill:#ffd5d5;stroke:#000000;stroke-width:2;stroke-linecap:butt;stroke-linejoin:miter;stroke-opacity:1;display:inline" />
      <path
         sodipodi:nodetypes="cc"
         inkscape:connector-curvature="0"
         id="path5095-5-4-8-7-4-3-4"
         d="m 289.68967,364.9912 -0.9915,5.46327"
         style="fill:none;stroke:#000000;stroke-width:2;stroke-linecap:butt;stroke-linejoin:miter;stroke-opacity:1;display:inline" />
      <path
         sodipodi:nodetypes="cc"
         inkscape:connector-curvature="0"
         id="path5097-5-8-8-9-4-2-3"
         d="m 277.29761,367.69652 4.34258,4.66433"
         style="fill:none;stroke:#000000;stroke-width:2;stroke-linecap:butt;stroke-linejoin:miter;stroke-opacity:1;display:inline" />
      <path
         sodipodi:nodetypes="csc"
         inkscape:connector-curvature="0"
         id="path5099-1-8-2-54-6-21-1"
         d="m 251.86016,351.52282 c -20.49879,5.32496 -15.90841,25.01413 -11.50919,27.8632 3.39044,2.19578 12.7647,-9.7611 18.12092,-11.80383"
         style="fill:#ffd5d5;stroke:#000000;stroke-width:2;stroke-linecap:butt;stroke-linejoin:miter;stroke-opacity:1;display:inline" />
      <path
         sodipodi:nodetypes="ssssss"
         inkscape:connector-curvature="0"
         id="path5101-7-2-4-3-0-6-2"
         d="m 275.80426,381.71937 c -4.9572,7.52989 -1.72336,12.28991 5.09544,10.08123 3.07464,-0.9959 7.5271,-2.631 10.44005,-2.33695 5.55827,0.56108 5.80882,-5.56348 5.07717,-9.96527 -0.57482,-3.4583 -3.21764,-8.10035 -7.27951,-7.93623 -5.34153,0.21582 -10.00464,5.10126 -13.33315,10.15722 z"
         style="fill:#ffaaaa;stroke:#000000;stroke-width:2;stroke-linecap:butt;stroke-linejoin:miter;stroke-opacity:1;display:inline" />
      <path
         sodipodi:nodetypes="sss"
         inkscape:connector-curvature="0"
         id="path5105-1-4-55-12-6-8-3"
         d="m 281.83227,386.22176 c 0.47636,1.07838 5.06107,-8.8831 4.12755,-8.83177 -0.96171,0.0529 -5.84933,4.93401 -4.12755,8.83177 z"
         style="fill:#000000;stroke:#000000;stroke-width:2;display:inline" />
      <path
         sodipodi:nodetypes="sss"
         inkscape:connector-curvature="0"
         id="path5107-1-5-1-3-6-5-3"
         d="m 290.38125,377.0123 c -0.7037,-0.35254 -0.19228,9.36718 0.40494,8.56037 2.25919,-3.05204 0.46782,-8.12314 -0.40494,-8.56037 z"
         style="fill:#000000;stroke:#000000;stroke-width:2;display:inline" />
      <path
         sodipodi:nodetypes="cssscc"
         inkscape:connector-curvature="0"
         id="path9339-5-4"
         d="m 280.04927,427.77161 c 0,0 -4.26155,0.65545 -6.14527,-1.07881 -1.31472,-1.21041 1.98249,-3.30108 1.92183,-4.71723 -0.0688,-1.60609 -1.88651,-2.85808 -2.27125,-5.06665 -0.26593,-1.5265 3.16586,-4.87944 5.69048,-6.22591 6.03288,-0.17681 5.24012,16.62471 0.80421,17.0886 z"
         style="fill:#ffaaaa;stroke:none;display:inline" />
      <path
         sodipodi:nodetypes="csssc"
         inkscape:connector-curvature="0"
         id="path9337-1"
         d="m 300.10735,390.16278 c 12.59059,33.15591 -20.12275,41.09057 -26.20683,36.51486 -1.42823,-1.07414 1.98249,-3.30109 1.92183,-4.71723 -0.0688,-1.6061 -1.88651,-2.85809 -2.27126,-5.06666 -0.26592,-1.5265 5.76044,-6.96976 10.01341,-8.92276"
         style="fill:none;stroke:#000000;stroke-width:2;stroke-linecap:butt;stroke-linejoin:miter;stroke-opacity:1" />
      <path
         sodipodi:nodetypes="cc"
         inkscape:connector-curvature="0"
         id="path9339-1"
         d="m 279.24278,410.65673 c 6.03168,-0.16569 5.25436,16.71305 0.81845,17.17694"
         style="fill:none;stroke:#000000;stroke-width:2;stroke-linecap:butt;stroke-linejoin:miter;stroke-opacity:1" />
    </g>
    <g
       id="g3578">
      <path
         sodipodi:nodetypes="cccccc"
         inkscape:connector-curvature="0"
         id="path3327-4-1"
         d="m 272.10419,228.29463 9.10044,-27.56667 2.91708,-31.69071 -8.12922,-10.79613 -84.50056,20.13456 c -15.77017,15.93082 -25.79919,42.75197 -12.65765,57.60726"
         style="fill:#ffd5d5;stroke:#000000;stroke-width:2;stroke-linecap:butt;stroke-linejoin:miter;stroke-opacity:1;display:inline" />
      <path
         sodipodi:nodetypes="csc"
         inkscape:connector-curvature="0"
         id="path8997-2"
         d="m 281.95308,196.3498 c 11.64045,11.4143 1.90049,36.04376 -10.01772,33.93512 -10.3899,-1.83825 -6.5259,-24.01182 3.85076,-25.41545"
         style="fill:#ffd5d5;stroke:none" />
      <path
         style="fill:#ffaaaa;stroke:none;display:inline"
         d="m 237.54855,227.99959 c -6.8402,1.78151 -2.6988,-26.29374 4.35595,-22.74609 0,0 6.08598,3.50547 5.69906,6.8442 -0.2029,1.7508 -3.53163,2.0789 -4.30715,5.17547 -0.76251,3.04456 3.12457,4.07959 1.43721,7.14398 -1.3469,2.44608 -7.18507,3.58244 -7.18507,3.58244 z"
         id="path5111-7-1-7-7-7-1-4"
         inkscape:connector-curvature="0"
         sodipodi:nodetypes="ccsssc" />
      <path
         sodipodi:nodetypes="cc"
         inkscape:connector-curvature="0"
         id="path5091-2-40-9-2-5"
         d="m 269.21306,149.26904 c 12.65273,4.50311 18.91359,17.22188 14.8912,28.06843"
         style="fill:#ffd5d5;stroke:#000000;stroke-width:2;stroke-linecap:butt;stroke-linejoin:miter;stroke-opacity:1;display:inline" />
      <path
         sodipodi:nodetypes="scs"
         inkscape:connector-curvature="0"
         id="path8997-9"
         d="m 275.74941,204.82963 c 15.96916,-3.0142 0.28885,33.6892 -9.3161,19.94459 -2.47435,-7.42834 1.8797,-18.54095 9.3161,-19.94459 z"
         style="fill:#ffaaaa;stroke:none;display:inline" />
      <path
         inkscape:connector-curvature="0"
         id="path4221"
         d="m 278.18982,159.19438 c -18.43376,-30.15303 -50.10975,-23.74395 -69.71751,-8.00867 -13.86867,11.12959 -19.82601,28.12888 -16.23752,37.88313"
         style="fill:#ffd5d5;stroke:#000000;stroke-width:2;stroke-linecap:butt;stroke-linejoin:miter;stroke-opacity:1;display:inline" />
      <path
         inkscape:connector-curvature="0"
         id="path5093-4-9-4-4-4"
         d="m 282.99524,169.97119 c 5.49967,11.88092 2.28049,24.68753 -3.58644,30.06965"
         style="fill:#ffd5d5;stroke:#000000;stroke-width:2;stroke-linecap:butt;stroke-linejoin:miter;stroke-opacity:1;display:inline" />
      <path
         sodipodi:nodetypes="cc"
         inkscape:connector-curvature="0"
         id="path5095-5-4-8-5-2"
         d="m 273.84741,164.40122 c -0.6488,1.04681 -1.39849,2.55702 -2.13402,3.83361"
         style="fill:none;stroke:#000000;stroke-width:2;stroke-linecap:butt;stroke-linejoin:miter;stroke-opacity:1;display:inline" />
      <path
         sodipodi:nodetypes="cc"
         inkscape:connector-curvature="0"
         id="path5097-5-8-8-5-0"
         d="m 255.96488,159.70614 c 0.89234,1.55928 2.68395,5.61484 3.49305,7.54114"
         style="fill:none;stroke:#000000;stroke-width:2;stroke-linecap:butt;stroke-linejoin:miter;stroke-opacity:1;display:inline" />
      <path
         inkscape:connector-curvature="0"
         id="path5099-1-8-2-7-9"
         d="m 222.48409,143.67476 c -24.98694,-0.0978 -25.89588,30.87235 -19.47138,33.2991 5.45695,2.06126 18.09322,-12.02838 25.6897,-15.29598"
         style="fill:#ffd5d5;stroke:#000000;stroke-width:2;stroke-linecap:butt;stroke-linejoin:miter;stroke-opacity:1;display:inline" />
      <path
         sodipodi:nodetypes="ssssss"
         inkscape:connector-curvature="0"
         id="path5101-7-2-4-1-7"
         d="m 269.22599,169.40009 c -7.70611,-1.78563 -15.60255,2.96878 -21.23661,8.2149 -7.71608,7.18479 -3.88795,14.71692 2.88282,14.15679 6.87851,-0.569 13.12433,0.35571 16.7189,2.36686 5.57167,3.11722 8.50311,-3.95947 8.99206,-10.27427 0.55727,-7.19723 -3.04258,-13.46451 -7.35717,-14.46428 z"
         style="fill:#ffaaaa;stroke:#000000;stroke-width:2;stroke-linecap:butt;stroke-linejoin:miter;stroke-opacity:1;display:inline" />
      <path
         sodipodi:nodetypes="sss"
         inkscape:connector-curvature="0"
         id="path5105-1-4-55-1-3"
         d="m 255.7761,185.59095 c 1.16444,2.58616 9.51703,-9.84315 8.21423,-10.35876 -1.5692,-0.62107 -9.98678,6.42207 -8.21423,10.35876 z"
         style="fill:#000000;stroke:#000000;stroke-width:2;stroke-linecap:butt;stroke-linejoin:miter;stroke-opacity:1;display:inline" />
      <path
         sodipodi:nodetypes="sss"
         inkscape:connector-curvature="0"
         id="path5107-1-5-1-5-7"
         d="m 269.64098,176.9276 c -1.35406,-0.57194 -4.19324,11.91607 -2.34322,11.34567 3.70265,-1.14164 4.08289,-10.6109 2.34322,-11.34567 z"
         style="fill:#000000;stroke:#000000;stroke-width:2;stroke-linecap:butt;stroke-linejoin:miter;stroke-opacity:1;display:inline" />
      <path
         sodipodi:nodetypes="cssc"
         inkscape:connector-curvature="0"
         id="path8997"
         d="m 281.87128,196.20465 c 11.64045,11.4143 1.90049,36.04376 -10.01771,33.93512 -10.3899,-1.83825 -6.5259,-24.01182 3.85075,-25.41545 16.10448,-2.17839 0.28885,33.6892 -9.32096,19.9341"
         style="fill:none;stroke:#000000;stroke-width:2;stroke-linecap:butt;stroke-linejoin:miter;stroke-opacity:1" />
      <path
         sodipodi:nodetypes="ccc"
         inkscape:connector-curvature="0"
         id="path8999-6"
         d="m 270.45352,212.5972 c -1.11755,3.26474 2.56176,9.18853 7.73174,3.47488 -1.37498,10.19439 -14.35918,11.7652 -7.73174,-3.47488 z"
         style="fill:#ff8080;stroke:none;display:inline" />
      <path
         sodipodi:nodetypes="ccc"
         inkscape:connector-curvature="0"
         id="path8999"
         d="m 270.49085,212.36315 c -1.11754,3.26475 2.56176,9.18854 7.73174,3.47489 -1.37498,10.19439 -14.35917,11.76519 -7.73174,-3.47489 z"
         style="fill:none;stroke:#000000;stroke-width:2;stroke-linecap:butt;stroke-linejoin:miter;stroke-opacity:1" />
      <path
         style="fill:none;stroke:#000000;stroke-width:2;stroke-linecap:butt;stroke-linejoin:miter;stroke-opacity:1;display:inline"
         d="m 218.85603,195.90051 c 15.54822,3.22681 29.27399,11.77945 28.88707,16.20211 -0.15361,1.75581 -3.53163,2.0789 -4.30715,5.17547 -0.76251,3.04456 3.01736,4.02296 1.43721,7.14398 -2.03667,4.0227 -22.18864,7.31772 -29.60687,5.19196"
         id="path5089-8-7-0-8-65"
         inkscape:connector-curvature="0"
         sodipodi:nodetypes="csssc" />
      <path
         style="fill:none;stroke:#000000;stroke-width:2;stroke-linecap:butt;stroke-linejoin:miter;stroke-opacity:1;display:inline"
         d="m 237.68809,228.00451 c -6.8402,1.78151 -2.6988,-26.29374 4.35595,-22.74609"
         id="path5111-7-1-7-7-7-1"
         inkscape:connector-curvature="0"
         sodipodi:nodetypes="cc" />
    </g>
    <path
       sodipodi:type="spiral"
       style="fill:none;stroke:#000000;stroke-width:4.41139889;stroke-linecap:butt;stroke-linejoin:miter;stroke-opacity:1;display:inline"
       id="path9443"
       sodipodi:cx="-185.26198"
       sodipodi:cy="-1539.8912"
       sodipodi:expansion="1"
       sodipodi:revolution="2.2553272"
       sodipodi:radius="92.021736"
       sodipodi:argument="-14.124517"
       sodipodi:t0="0"
       d="m -185.26198,-1539.8912 c 0.0776,-6.1368 8.31051,-2.923 10.19967,0.129 5.11952,8.2708 -2.52344,17.8548 -10.45772,20.2703 -14.19258,4.3207 -27.65115,-7.2713 -30.34096,-20.7864 -3.9474,-19.834 12.04208,-37.6229 31.11512,-40.4116 25.42137,-3.7169 47.66256,16.8155 50.48224,41.4438 3.54828,30.9922 -21.58893,57.7359 -51.77251,60.5529 -36.55637,3.4117 -67.82853,-26.3621 -70.62353,-62.1012 -3.29381,-42.1174 31.13493,-77.9332 72.42991,-80.6942 47.67669,-3.1877 88.045892,35.9077 90.764812,82.7586 0.05956,1.0263 0.101839,2.0537 0.12685,3.0814"
       transform="matrix(-0.68859588,0.12777256,0.05354448,0.28856359,189.96173,722.26837)" />
    <path
       sodipodi:type="spiral"
       style="fill:none;stroke:#000000;stroke-width:6.13102293;stroke-linecap:butt;stroke-linejoin:miter;stroke-opacity:1;display:inline"
       id="path9443-3"
       sodipodi:cx="-185.26198"
       sodipodi:cy="-1539.8912"
       sodipodi:expansion="1"
       sodipodi:revolution="2.2553272"
       sodipodi:radius="92.021736"
       sodipodi:argument="-14.124517"
       sodipodi:t0="0"
       d="m -185.26198,-1539.8912 c 0.0776,-6.1368 8.31051,-2.923 10.19967,0.129 5.11952,8.2708 -2.52344,17.8548 -10.45772,20.2703 -14.19258,4.3207 -27.65115,-7.2713 -30.34096,-20.7864 -3.9474,-19.834 12.04208,-37.6229 31.11512,-40.4116 25.42137,-3.7169 47.66256,16.8155 50.48224,41.4438 3.54828,30.9922 -21.58893,57.7359 -51.77251,60.5529 -36.55637,3.4117 -67.82853,-26.3621 -70.62353,-62.1012 -3.29381,-42.1174 31.13493,-77.9332 72.42991,-80.6942 47.67669,-3.1877 88.045892,35.9077 90.764812,82.7586 0.05956,1.0263 0.101839,2.0537 0.12685,3.0814"
       transform="matrix(-0.52960397,0.00457271,0.00211678,0.20091084,221.29203,561.23514)" />
    <g
       id="g3312"
       transform="translate(248.27821,-64.967994)">
      <path
         inkscape:connector-curvature="0"
         id="path3333-4-4"
         d="m -219.03446,332.23238 c -14.55335,0.18534 -25.75087,14.16986 -9.48683,18.22451 13.33753,3.32506 41.47775,1.78214 49.37377,-3.57894"
         style="fill:#ffd5d5;stroke:#000000;stroke-width:2;stroke-linecap:butt;stroke-linejoin:miter;stroke-opacity:1;display:inline" />
      <path
         sodipodi:nodetypes="cscccccccccc"
         inkscape:connector-curvature="0"
         id="path3386-1-1"
         d="m -205.61652,246.89548 c -21.51273,9.462 -33.18002,37.00128 -27.85133,46.20755 1.35582,2.34242 4.69234,-1.01928 7.34915,-1.31874 l 2.60094,42.56388 28.36989,9.16573 63.93066,3.1805 25.03504,-3.22119 26.667345,-51.65643 -1.603145,-39.81324 -3.207877,-23.58091 -10.295037,-17.55688 z"
         style="fill:#ffd5d5;stroke:none" />
      <path
         sodipodi:nodetypes="cscsc"
         inkscape:connector-curvature="0"
         id="path3192-7"
         d="m -81.330045,297.88209 c 17.385055,-9.72494 34.309843,-18.27175 34.747057,-22.86642 0.315339,-3.31389 -2.565117,-5.06181 1.014912,-10.60593 0,0 6.302986,-0.64977 5.275385,-5.58977 -1.751904,-8.42195 -26.882333,-10.10085 -40.66321,-7.67755"
         style="fill:#ffd5d5;stroke:none;display:inline" />
      <path
         sodipodi:nodetypes="sccscs"
         inkscape:connector-curvature="0"
         id="path5089-8-7-0-8-5-5"
         d="m -40.247216,259.11393 c -0.915774,-6.05292 -12.181001,-7.24353 -12.181001,-7.24353 -12.216247,-3.80534 -13.683315,38.266 -1.424413,30.57792 0,0 6.599193,-3.93757 7.315117,-7.13869 0.726544,-3.24861 -2.565116,-5.06181 1.014912,-10.60593 0,0 6.03019,-0.6008 5.275385,-5.58977 z"
         style="fill:#ffaaaa;stroke:none;display:inline" />
      <path
         sodipodi:nodetypes="cc"
         inkscape:connector-curvature="0"
         id="path5111-7-1-7-7-7-8"
         d="m -52.44538,251.74135 c -12.216247,-3.80534 -13.683315,38.266 -1.424413,30.57792"
         style="fill:none;stroke:#000000;stroke-width:2;stroke-linecap:butt;stroke-linejoin:miter;stroke-opacity:1;display:inline" />
      <path
         sodipodi:nodetypes="csccc"
         inkscape:connector-curvature="0"
         id="path3386-71-8"
         d="m -226.4224,291.95452 c -2.65681,0.29945 -5.2657,2.72676 -7.39842,1.06043 -3.93515,-3.07466 0.58853,-13.91128 0.58853,-13.91128 l 10.44491,5.02459 z"
         style="fill:#ffaaaa;stroke:none;display:inline" />
      <path
         sodipodi:nodetypes="cc"
         inkscape:connector-curvature="0"
         id="path3331-0-2"
         d="m -109.66198,342.99171 c 21.721725,-4.4987 30.9641,-27.24002 28.005495,-53.3748"
         style="fill:#ffd5d5;stroke:#000000;stroke-width:2;stroke-linecap:butt;stroke-linejoin:miter;stroke-opacity:1;display:inline" />
      <path
         sodipodi:nodetypes="cc"
         inkscape:connector-curvature="0"
         id="path3327-4-4"
         d="m -208.61977,264.3204 c -19.7602,22.93789 -31.39933,53.14269 -14.00633,72.80382"
         style="fill:#ffd5d5;stroke:#000000;stroke-width:2;stroke-linecap:butt;stroke-linejoin:miter;stroke-opacity:1;display:inline" />
      <path
         sodipodi:nodetypes="ccsc"
         inkscape:connector-curvature="0"
         id="path3325-8-5"
         d="m -203.25921,341.9605 c 8.92534,13.54411 59.99882,7.20421 74.17587,5.10368 -5.12833,5.45319 30.001338,9.26916 42.512446,4.11951 11.27141,-4.63939 6.205239,-20.9652 -6.132608,-21.30994"
         style="fill:#ffd5d5;stroke:#000000;stroke-width:2;stroke-linecap:butt;stroke-linejoin:miter;stroke-opacity:1;display:inline" />
      <path
         sodipodi:nodetypes="cccc"
         inkscape:connector-curvature="0"
         id="path3192-2"
         d="m -45.558216,264.6331 c -3.580029,5.54412 -0.699573,7.29204 -0.978716,10.80646 -6.033733,8.4869 -8.819517,-9.85622 -2.927794,-12.43428 3.413552,3.7553 3.90651,1.62782 3.90651,1.62782 z"
         style="fill:#ff8080;stroke:none;display:inline" />
      <path
         sodipodi:nodetypes="csc"
         inkscape:connector-curvature="0"
         id="path3192"
         d="m -81.301732,298.047 c 17.385055,-9.72494 34.309843,-18.27175 34.747057,-22.86642 0.315339,-3.31389 -2.565117,-5.06181 1.014912,-10.60593"
         style="fill:none;stroke:#000000;stroke-width:2;stroke-linecap:butt;stroke-linejoin:miter;stroke-opacity:1;display:inline" />
      <path
         sodipodi:nodetypes="ccsc"
         inkscape:connector-curvature="0"
         id="path5089-8-7-0-8-5"
         d="m -46.482284,275.58164 c -6.069928,8.28637 -8.855712,-10.05675 -2.963989,-12.63481 3.413552,3.7553 10.209495,0.97805 9.181895,-3.96195 -1.751905,-8.42195 -26.882333,-10.10085 -40.66321,-7.67755"
         style="fill:none;stroke:#000000;stroke-width:2;stroke-linecap:butt;stroke-linejoin:miter;stroke-opacity:1;display:inline" />
      <path
         sodipodi:nodetypes="csc"
         inkscape:connector-curvature="0"
         id="path3386-1"
         d="m -205.61866,246.97663 c -21.89288,10.64447 -32.04804,36.07516 -28.05335,46.18158 1.41863,3.5891 4.77397,-0.80323 7.43078,-1.10269"
         style="fill:none;stroke:#000000;stroke-width:2;stroke-linecap:butt;stroke-linejoin:miter;stroke-opacity:1" />
      <path
         sodipodi:nodetypes="cc"
         inkscape:connector-curvature="0"
         id="path3388-7"
         d="m -233.53683,279.07522 10.83907,5.22167"
         style="fill:none;stroke:#000000;stroke-width:2;stroke-linecap:butt;stroke-linejoin:miter;stroke-opacity:1" />
      <path
         sodipodi:nodetypes="cc"
         inkscape:connector-curvature="0"
         id="path5091-2-40-9-2-1"
         d="m -103.89094,197.5217 c 15.389252,5.82423 24.511989,19.57777 20.864253,34.42184"
         style="fill:#ffd5d5;stroke:#000000;stroke-width:2;stroke-linecap:butt;stroke-linejoin:miter;stroke-opacity:1;display:inline" />
      <path
         sodipodi:nodetypes="csc"
         inkscape:connector-curvature="0"
         id="path4041-5"
         d="m -92.662493,210.92645 c -23.820777,-38.89046 -67.141427,-30.29897 -91.639367,-6.27455 -16.80343,16.47864 -24.71557,38.25814 -19.44883,50.96559"
         style="fill:#ffd5d5;stroke:#000000;stroke-width:2;stroke-linecap:butt;stroke-linejoin:miter;stroke-opacity:1;display:inline" />
      <path
         sodipodi:nodetypes="cc"
         inkscape:connector-curvature="0"
         id="path5093-4-9-4-4-2"
         d="m -85.010911,227.62146 c 7.907798,15.4178 4.599447,30.41677 -2.871598,37.84777"
         style="fill:#ffd5d5;stroke:#000000;stroke-width:2;stroke-linecap:butt;stroke-linejoin:miter;stroke-opacity:1;display:inline" />
      <path
         sodipodi:nodetypes="cc"
         inkscape:connector-curvature="0"
         id="path5095-5-4-8-5-7"
         d="m -100.99878,218.94475 -2.61726,5.18378"
         style="fill:none;stroke:#000000;stroke-width:2;stroke-linecap:butt;stroke-linejoin:miter;stroke-opacity:1;display:inline" />
      <path
         sodipodi:nodetypes="cc"
         inkscape:connector-curvature="0"
         id="path5097-5-8-8-5-6"
         d="m -125.10846,215.91049 6.99306,8.80066"
         style="fill:none;stroke:#000000;stroke-width:2;stroke-linecap:butt;stroke-linejoin:miter;stroke-opacity:1;display:inline" />
      <path
         sodipodi:nodetypes="csc"
         inkscape:connector-curvature="0"
         id="path5099-1-8-2-7-1"
         d="m -161.8066,191.69587 c -34.55554,1.06826 -39.35329,35.34412 -29.151,46.68437 5.16358,5.73952 23.14351,-16.49885 33.01476,-21.22594"
         style="fill:#ffd5d5;stroke:#000000;stroke-width:2;stroke-linecap:butt;stroke-linejoin:miter;stroke-opacity:1;display:inline" />
      <path
         sodipodi:nodetypes="ssssss"
         inkscape:connector-curvature="0"
         id="path5101-7-2-4-1-4"
         d="m -106.23613,225.94562 c -9.28809,-0.50271 -20.95643,6.88496 -26.46324,14.39627 -8.65815,11.80978 -3.60259,17.46662 5.38089,17.07898 7.68642,-0.33167 18.64707,0.70167 24.7101,2.61728 8.386419,2.64969 9.918467,-10.0688 9.590101,-16.51745 -0.484276,-9.51053 -6.34092,-17.20286 -13.217851,-17.57508 z"
         style="fill:#ffaaaa;stroke:#000000;stroke-width:2;stroke-linecap:butt;stroke-linejoin:miter;stroke-opacity:1;display:inline" />
      <path
         sodipodi:nodetypes="sss"
         inkscape:connector-curvature="0"
         id="path5105-1-4-55-1-2"
         d="m -122.64187,249.43105 c 1.68469,3.35441 11.79739,-14.45404 9.99655,-14.89637 -2.60105,-0.63889 -13.34114,8.23691 -9.99655,14.89637 z"
         style="fill:#000000;stroke:#000000;stroke-width:2;stroke-linecap:butt;stroke-linejoin:miter;stroke-opacity:1;display:inline" />
      <path
         sodipodi:nodetypes="sss"
         inkscape:connector-curvature="0"
         id="path5107-1-5-1-5-3"
         d="m -104.38599,235.48554 c -2.10362,-0.67794 -2.23514,18.24994 0.0169,17.02782 5.233172,-2.83991 1.61107,-16.50317 -0.0169,-17.02782 z"
         style="fill:#000000;stroke:#000000;stroke-width:2;stroke-linecap:butt;stroke-linejoin:miter;stroke-opacity:1;display:inline" />
    </g>
  </g>
  <g
     inkscape:groupmode="layer"
     id="layer9"
     inkscape:label="吹き出し"
     sodipodi:insensitive="true"
     style="display:inline">
    <g
       transform="translate(6.9924335,2.1341665)"
       id="g5232">
      <path
         sodipodi:nodetypes="cccccccccc"
         inkscape:connector-curvature="0"
         id="rect7294"
         d="M 6.9871861,76.281907 C 31.790782,80.703707 59.153744,86.266395 51.941412,103.08846 83.411724,93.096419 120.86279,95.806764 115.70669,115.19498 133.6243,91.028669 159.25401,91.315794 171.4309,104.50307 169.77274,89.794494 183.48763,83.08006 216.36899,89.997068 193.42879,76.721137 191.53297,55.25227 232.1906,41.207295 190.96369,45.157301 156.13596,29.58725 168.89173,17.659183 149.99802,24.862317 111.24773,26.779379 98.562749,11.508248 91.700031,24.306751 66.24525,36.243994 27.676959,26.014239 42.064564,39.04519 34.493076,69.66223 6.9871861,76.281907 z"
         style="fill:#fefefe;fill-opacity:1;stroke:#000000;stroke-width:3;stroke-linecap:round;stroke-miterlimit:4;stroke-opacity:1;stroke-dashoffset:0;display:inline" />
      <text
         sodipodi:linespacing="125%"
         id="text11601"
         y="77.614006"
         x="57.050983"
         style="font-size:45.46528625px;font-style:normal;font-weight:normal;line-height:125%;letter-spacing:0px;word-spacing:0px;writing-mode:lr-tb;fill:#000000;fill-opacity:1;stroke:none;display:inline;font-family:Sans"
         xml:space="preserve"><tspan
           y="77.614006"
           x="57.050983"
           id="tspan11603"
           sodipodi:role="line">急げ!!</tspan></text>
    </g>
  </g>
  <g
     inkscape:groupmode="layer"
     id="layer2"
     inkscape:label="枠面"
     sodipodi:insensitive="true">
    <path
       style="fill:#ffffff;stroke:none;display:inline"
       d="m 0,0 0,320 370,0 0,-320 -10,10 0,300 -350,0 0,-300 350,0 10,-10 z"
       id="path21072"
       inkscape:connector-curvature="0"
       sodipodi:nodetypes="ccccccccccc" />
  </g>
</svg>
