<?xml version="1.0" encoding="UTF-8" standalone="no"?>
<!-- Created with Inkscape (http://www.inkscape.org/) -->

<svg
   xmlns:dc="http://purl.org/dc/elements/1.1/"
   xmlns:cc="http://creativecommons.org/ns#"
   xmlns:rdf="http://www.w3.org/1999/02/22-rdf-syntax-ns#"
   xmlns:svg="http://www.w3.org/2000/svg"
   xmlns="http://www.w3.org/2000/svg"
   xmlns:sodipodi="http://sodipodi.sourceforge.net/DTD/sodipodi-0.dtd"
   xmlns:inkscape="http://www.inkscape.org/namespaces/inkscape"
   width="370"
   height="320"
   id="svg3172"
   version="1.1"
   inkscape:version="0.48.4 r9939"
   sodipodi:docname="[00.規格].svg">
  <defs
     id="defs3174" />
  <sodipodi:namedview
     id="base"
     pagecolor="#ffffff"
     bordercolor="#666666"
     borderopacity="1.0"
     inkscape:pageopacity="0.0"
     inkscape:pageshadow="2"
     inkscape:zoom="0.44849507"
     inkscape:cx="130.75278"
     inkscape:cy="294.36818"
     inkscape:document-units="px"
     inkscape:current-layer="layer3"
     showgrid="false"
     inkscape:window-width="1098"
     inkscape:window-height="698"
     inkscape:window-x="1"
     inkscape:window-y="1"
     inkscape:window-maximized="0" />
  <metadata
     id="metadata3177">
    <rdf:RDF>
      <cc:Work
         rdf:about="">
        <dc:format>image/svg+xml</dc:format>
        <dc:type
           rdf:resource="http://purl.org/dc/dcmitype/StillImage" />
        <dc:title></dc:title>
      </cc:Work>
    </rdf:RDF>
  </metadata>
  <g
     inkscape:label="補助線"
     inkscape:groupmode="layer"
     id="layer1"
     transform="translate(0,-732.36218)"
     sodipodi:insensitive="true"
     style="display:none">
    <path
       style="fill:none;stroke:#0000ff;stroke-width:1px;stroke-linecap:butt;stroke-linejoin:miter;stroke-opacity:1;display:inline"
       d="M 10,1042.3622 360,742.36211"
       id="path3025"
       inkscape:connector-curvature="0"
       sodipodi:nodetypes="cc" />
    <path
       style="fill:none;stroke:#0000ff;stroke-width:1px;stroke-linecap:butt;stroke-linejoin:miter;stroke-opacity:1;display:inline"
       d="M 10,742.36211 360,1042.3622"
       id="path3027"
       inkscape:connector-curvature="0"
       sodipodi:nodetypes="cc" />
    <path
       style="fill:none;stroke:#ff0000;stroke-width:1px;stroke-linecap:butt;stroke-linejoin:miter;stroke-opacity:1;display:inline"
       d="m 10,732.36211 0,320.00009"
       id="path3006"
       inkscape:connector-curvature="0"
       sodipodi:nodetypes="cc" />
    <path
       style="fill:none;stroke:#ff0000;stroke-width:1px;stroke-linecap:butt;stroke-linejoin:miter;stroke-opacity:1;display:inline"
       d="m 360,732.36211 0,320.00009"
       id="path3010"
       inkscape:connector-curvature="0"
       sodipodi:nodetypes="cc" />
    <path
       style="fill:none;stroke:#ff0000;stroke-width:1px;stroke-linecap:butt;stroke-linejoin:miter;stroke-opacity:1;display:inline"
       d="m 0,742.36208 370,3e-5"
       id="path3016"
       inkscape:connector-curvature="0" />
    <path
       style="fill:none;stroke:#ff0000;stroke-width:1px;stroke-linecap:butt;stroke-linejoin:miter;stroke-opacity:1;display:inline"
       d="m 0,1042.3622 370,0"
       id="path3018"
       inkscape:connector-curvature="0"
       sodipodi:nodetypes="cc" />
  </g>
  <g
     inkscape:groupmode="layer"
     id="layer3"
     inkscape:label="豚"
     sodipodi:insensitive="true">
    <path
       sodipodi:type="arc"
       style="fill:#000000;fill-opacity:1;stroke:none"
       id="path3400"
       sodipodi:cx="96.1549"
       sodipodi:cy="327.80386"
       sodipodi:rx="58.250362"
       sodipodi:ry="17.837431"
       d="m 154.40526,327.80386 a 58.250362,17.837431 0 1 1 -116.500723,0 58.250362,17.837431 0 1 1 116.500723,0 z"
       transform="matrix(0.98566243,-0.16872931,0.16872931,0.98566243,-71.76892,-20.324996)" />
    <path
       sodipodi:type="arc"
       style="fill:#000000;fill-opacity:1;stroke:none"
       id="path3400-7"
       sodipodi:cx="96.1549"
       sodipodi:cy="327.80386"
       sodipodi:rx="58.250362"
       sodipodi:ry="17.837431"
       d="m 154.40526,327.80386 a 58.250362,17.837431 0 1 1 -116.500723,0 58.250362,17.837431 0 1 1 116.500723,0 z"
       transform="matrix(0.95181838,-0.11294848,0.11294848,0.95181838,88.445906,-25.464061)" />
    <path
       sodipodi:type="arc"
       style="fill:#000000;fill-opacity:1;stroke:none"
       id="path3400-7-4"
       sodipodi:cx="96.1549"
       sodipodi:cy="327.80386"
       sodipodi:rx="58.250362"
       sodipodi:ry="17.837431"
       d="m 154.40526,327.80386 a 58.250362,17.837431 0 1 1 -116.500723,0 58.250362,17.837431 0 1 1 116.500723,0 z"
       transform="matrix(1.2478733,0.11820703,-0.15507839,0.95117963,187.27449,-83.434983)" />
    <path
       sodipodi:type="arc"
       style="fill:#000000;fill-opacity:1;stroke:none"
       id="path3400-7-4-0"
       sodipodi:cx="96.1549"
       sodipodi:cy="327.80386"
       sodipodi:rx="58.250362"
       sodipodi:ry="17.837431"
       d="m 154.40526,327.80386 a 58.250362,17.837431 0 1 1 -116.500723,0 58.250362,17.837431 0 1 1 116.500723,0 z"
       transform="matrix(0.97198739,-0.10990918,0.03415368,0.75131182,17.648605,-17.443711)" />
  </g>
  <g
     inkscape:groupmode="layer"
     id="layer4"
     inkscape:label="吹き出し"
     sodipodi:insensitive="true">
    <g
       transform="translate(38.904676,-9.6657149)"
       id="g9788">
      <path
         sodipodi:nodetypes="sssscsssssss"
         inkscape:connector-curvature="0"
         id="rect7294-1"
         d="m -26.004471,45.97286 0,35.41665 c 0,12.905093 10.38929,23.29439 23.2943797,23.29439 l 10.5495773,0 c 17.58619,0 18.646096,15.54569 25.615654,30.9697 0.160118,-15.82711 -0.508954,-30.9697 8.775236,-30.9697 l 252.872974,0 c 12.90509,0 23.2944,-10.389297 23.2944,-23.29439 l 0,-35.41665 c 0,-12.90509 -10.3893,-23.294381 -23.2944,-23.294381 l -297.8134413,0 c -12.9050897,0 -23.2943797,10.389291 -23.2943797,23.294381 z"
         style="fill:#fefefe;fill-opacity:1;stroke:#000000;stroke-width:2;stroke-linecap:round;stroke-miterlimit:4;stroke-opacity:1;stroke-dashoffset:0;display:inline" />
      <text
         sodipodi:linespacing="125%"
         id="text11601"
         y="74.772797"
         x="-13.338927"
         style="font-size:32px;font-style:normal;font-weight:normal;line-height:125%;letter-spacing:0px;word-spacing:0px;writing-mode:lr-tb;fill:#000000;fill-opacity:1;stroke:none;display:inline;font-family:Sans"
         xml:space="preserve"><tspan
           y="74.772797"
           x="-13.338927"
           id="tspan11603"
           sodipodi:role="line">見なかった事にしよう</tspan></text>
    </g>
    <g
       id="g3251">
      <path
         sodipodi:nodetypes="cscccc"
         inkscape:connector-curvature="0"
         id="path5109-2-7-9-5-0-4-2-6-6"
         d="m 196.11215,181.48098 c 1.64806,0.88051 2.24685,3.50587 3.74308,2.48925 4.2833,-2.91035 -0.18776,-26.49861 -12.3896,-36.88831 l -97.985051,23.73529 2.794848,18.99605 z"
         style="fill:#ffd5d5;stroke:none;display:inline" />
      <path
         sodipodi:nodetypes="scccs"
         inkscape:connector-curvature="0"
         id="path5109-2-7-9-5-0-4-2-2-1"
         d="m 199.94323,183.97199 c -1.59093,0.8609 -2.09503,-1.60874 -3.74308,-2.48925 -0.003,-1.00645 -0.0248,-2.01401 -0.14078,-3.02695 1.53858,-0.0151 4.77756,-0.63294 6.14081,-1.28459 0.11663,2.13853 -0.64992,5.93118 -2.25695,6.80079 z"
         style="fill:#ffaaaa;stroke:none;display:inline" />
      <path
         sodipodi:nodetypes="cc"
         inkscape:connector-curvature="0"
         id="path5111-7-6-1-8-3-8-5"
         d="m 180.61452,213.07244 c 20.07742,5.13293 21.26637,-5.7227 13.66704,-18.0961"
         style="fill:#ffd5d5;stroke:#000000;stroke-width:2;stroke-linecap:butt;stroke-linejoin:miter;stroke-opacity:1;display:inline" />
      <path
         inkscape:connector-curvature="0"
         id="path3396-0-1-4"
         d="m 97.181052,205.97444 c -12.984102,16.87471 9.615268,20.64715 25.492668,13.46322"
         style="fill:#ffd5d5;stroke:#000000;stroke-width:2;stroke-linecap:butt;stroke-linejoin:miter;stroke-opacity:1;display:inline" />
      <path
         sodipodi:nodetypes="csc"
         inkscape:connector-curvature="0"
         id="path3911-1-4-4-6-2"
         d="m 90.65289,184.97866 c -4.8409,46.76276 74.43597,46.77654 97.97847,21.30046 6.81405,-7.37369 11.18516,-22.122 3.48426,-37.0949"
         style="fill:#ffd5d5;stroke:#000000;stroke-width:2;stroke-linecap:butt;stroke-linejoin:miter;stroke-opacity:1;display:inline" />
      <path
         sodipodi:nodetypes="csssc"
         inkscape:connector-curvature="0"
         id="path6297-7-0"
         d="m 91.438773,162.70847 c -8.439298,7.60718 -11.608218,28.30224 -8.963054,33.04084 0.713077,1.27741 2.600172,0.12195 4.269988,0.29471 0.892958,0.0924 1.280146,1.46694 2.118734,2.10423 1.73693,1.32001 4.07008,-4.72086 6.054548,-7.71984"
         style="fill:#ffd5d5;stroke:none;display:inline" />
      <path
         sodipodi:nodetypes="cssscc"
         inkscape:connector-curvature="0"
         id="path5111-7-6-0-2-2-6-9-3-0-9"
         d="m 81.905864,190.03675 c -0.159469,1.44431 -0.0748,4.82355 0.720051,5.7504 0.952367,1.11053 2.600172,0.12196 4.269988,0.29472 0.892958,0.0924 1.280147,1.46694 2.118734,2.10423 1.736931,1.32 2.3216,-1.98717 4.315307,-4.98027 -1.357331,0.65427 -9.222863,-0.89091 -11.42408,-3.16908 z"
         style="fill:#ffaaaa;stroke:none;display:inline" />
      <path
         sodipodi:nodetypes="csc"
         inkscape:connector-curvature="0"
         id="path5109-2-7-9-5-0-4-2-7"
         d="m 196.11489,181.48158 c 1.64805,0.88052 2.24685,3.50588 3.74308,2.48926 4.28329,-2.91036 1.43005,-24.94348 -12.0182,-36.98894"
         style="fill:none;stroke:#000000;stroke-width:2;stroke-linecap:butt;stroke-linejoin:miter;stroke-opacity:1;display:inline" />
      <path
         sodipodi:nodetypes="cc"
         inkscape:connector-curvature="0"
         id="path5111-7-6-0-2-2-6-9-37"
         d="m 195.97411,178.45464 c 1.53858,-0.0151 4.77756,-0.63294 6.14413,-1.28134"
         style="fill:none;stroke:#000000;stroke-width:2;stroke-linecap:butt;stroke-linejoin:miter;stroke-opacity:1;display:inline" />
      <path
         sodipodi:nodetypes="cc"
         inkscape:connector-curvature="0"
         id="path5111-7-6-0-2-2-6-9-3-2"
         d="m 81.822177,190.0362 c 2.199643,2.27757 10.065175,3.82275 11.431745,3.17435"
         style="fill:none;stroke:#000000;stroke-width:2;stroke-linecap:butt;stroke-linejoin:miter;stroke-opacity:1;display:inline" />
      <path
         sodipodi:nodetypes="csssc"
         inkscape:connector-curvature="0"
         id="path6297-6"
         d="m 91.503708,162.74516 c -8.439298,7.60718 -11.608217,28.30224 -8.963054,33.04084 0.713077,1.27742 2.600172,0.12195 4.269989,0.29471 0.892957,0.0924 1.280146,1.46695 2.118733,2.10424 1.736931,1.32 4.070081,-4.72087 6.054549,-7.71985"
         style="fill:none;stroke:#000000;stroke-width:2;stroke-linecap:butt;stroke-linejoin:miter;stroke-opacity:1;display:inline" />
      <path
         sodipodi:nodetypes="cccscc"
         inkscape:connector-curvature="0"
         id="path5093-4-2-9-9-0-8-8-0"
         d="m 184.94318,172.1849 c 5.2574,-7.2878 4.59748,-19.24464 -1.26016,-27.94354 l -7.80694,-22.45215 c -17.37474,-23.352614 -59.24473,-23.165957 -74.98505,3.93159 -13.107773,22.56552 -15.032201,40.30064 -3.521289,50.31867 z"
         style="fill:#ffd5d5;stroke:none;display:inline" />
      <path
         inkscape:connector-curvature="0"
         id="path3536-4-7-6-6-1"
         d="m 175.79371,121.8389 c -17.37474,-23.352617 -59.24473,-23.165957 -74.98505,3.93159 -13.107771,22.56553 -15.0322,40.30065 -3.521287,50.31868"
         style="fill:none;stroke:#000000;stroke-width:2;stroke-linecap:butt;stroke-linejoin:miter;stroke-opacity:1;display:inline"
         sodipodi:nodetypes="csc" />
      <path
         sodipodi:nodetypes="cc"
         inkscape:connector-curvature="0"
         id="path5091-2-4-0-7-5-1-6"
         d="m 166.58405,113.00806 c 19.96775,3.34985 23.85347,31.26474 20.12511,38.09915"
         style="fill:#ffd5d5;stroke:#000000;stroke-width:2;stroke-linecap:butt;stroke-linejoin:miter;stroke-opacity:1;display:inline" />
      <path
         sodipodi:nodetypes="cc"
         inkscape:connector-curvature="0"
         id="path5093-4-2-9-9-0-8-5"
         d="m 183.60065,144.29105 c 5.85763,8.6989 6.51756,20.65574 1.26016,27.94355"
         style="fill:none;stroke:#000000;stroke-width:2;stroke-linecap:butt;stroke-linejoin:miter;stroke-opacity:1;display:inline" />
      <path
         inkscape:connector-curvature="0"
         id="path5095-5-3-4-3-9-4-7"
         d="m 159.05825,150.13982 c -0.84995,1.64261 -1.47792,4.6102 -2.00107,6.49142"
         style="fill:none;stroke:#000000;stroke-width:2;stroke-linecap:butt;stroke-linejoin:miter;stroke-opacity:1;display:inline" />
      <path
         inkscape:connector-curvature="0"
         id="path5097-5-2-8-1-0-9-5"
         d="m 137.90195,152.85896 c 1.34743,1.61468 4.37465,5.11363 5.09737,7.09908"
         style="fill:none;stroke:#000000;stroke-width:2;stroke-linecap:butt;stroke-linejoin:miter;stroke-opacity:1;display:inline" />
      <path
         inkscape:connector-curvature="0"
         id="path5099-1-2-8-9-0-6-4"
         d="m 104.3346,123.57098 c -13.300358,3.16146 -20.220422,35.79473 -8.275033,40.68851 5.775573,2.36613 8.683043,-11.59429 12.887583,-17.06839"
         style="fill:#ffd5d5;stroke:#000000;stroke-width:2;stroke-linecap:butt;stroke-linejoin:miter;stroke-opacity:1;display:inline"
         sodipodi:nodetypes="csc" />
      <path
         sodipodi:nodetypes="ssssss"
         inkscape:connector-curvature="0"
         id="path5101-7-1-2-8-6-3-1"
         d="m 154.19105,158.33076 c -4.99785,0.0517 -13.45559,5.29015 -18.56671,11.48359 -6.28042,7.61034 -2.41522,13.44344 5.41126,10.8045 6.07628,-2.04881 17.2855,-4.49561 21.44589,-4.07975 5.27281,0.52705 11.35676,-4.96713 7.68416,-10.26019 -3.15195,-4.5427 -9.62474,-8.01384 -15.9746,-7.94815 z"
         style="fill:#ffaaaa;stroke:#000000;stroke-width:2;stroke-linecap:butt;stroke-linejoin:miter;stroke-opacity:1;display:inline" />
      <path
         inkscape:connector-curvature="0"
         id="path5105-1-6-4-6-1-7-2"
         d="m 144.87481,175.07331 c 1.65803,0.63139 5.66601,-9.10294 4.38702,-9.49768 -1.54047,-0.47544 -6.83224,8.56654 -4.38702,9.49768 z"
         style="fill:#000000;stroke:#000000;stroke-width:2;display:inline"
         sodipodi:nodetypes="sss" />
      <path
         inkscape:connector-curvature="0"
         id="path5107-1-8-55-5-3-8-0"
         d="m 156.88206,164.61242 c -1.06302,0.11724 -0.12744,8.44423 1.73006,8.2689 2.5422,-0.23997 -0.19102,-8.43866 -1.73006,-8.2689 z"
         style="fill:#000000;stroke:#000000;stroke-width:2;display:inline"
         sodipodi:nodetypes="sss" />
    </g>
    <g
       id="g3336">
      <path
         sodipodi:nodetypes="cscccc"
         inkscape:connector-curvature="0"
         id="path5109-2-7-9-5-0-4-3-4"
         d="m 232.7478,201.47413 c -1.77474,0.98937 -2.37479,3.85545 -4.02133,2.77918 -4.71358,-3.08109 -3.38679,-23.97878 10.75143,-37.11879 l 110.46808,20.40835 -8.08403,31.96339 z"
         style="fill:#ffd5d5;stroke:none;display:inline" />
      <path
         sodipodi:nodetypes="cscccc"
         inkscape:connector-curvature="0"
         id="path3536-4-7-6-2-3"
         d="m 345.92559,192.06369 c 9.96929,-12.44034 -0.73317,-37.5137 -12.79116,-56.73701 -18.10782,-28.86819 -62.5043,-25.96116 -79.86754,0.66166 l -7.08978,13.43732 c -6.12047,7.5418 -10.71236,21.68594 -3.13052,33.47785 z"
         style="fill:#ffd5d5;stroke:none;display:inline" />
      <path
         sodipodi:nodetypes="cc"
         inkscape:connector-curvature="0"
         id="path5091-2-4-0-7-5-4"
         d="m 269.05717,121.20969 c -25.88514,-0.87145 -30.02969,31.52435 -25.74937,32.43488"
         style="fill:#ffd5d5;stroke:#000000;stroke-width:2;stroke-linecap:butt;stroke-linejoin:miter;stroke-opacity:1;display:inline" />
      <path
         sodipodi:nodetypes="cc"
         inkscape:connector-curvature="0"
         id="path5111-7-6-1-8-3-86"
         d="m 250.04767,235.41847 c -21.72963,5.97087 -22.37734,-7.07791 -15.70787,-18.7004"
         style="fill:#ffd5d5;stroke:#000000;stroke-width:2;stroke-linecap:butt;stroke-linejoin:miter;stroke-opacity:1;display:inline" />
      <path
         sodipodi:nodetypes="cc"
         inkscape:connector-curvature="0"
         id="path3396-0-5"
         d="m 340.62358,226.08021 c 7.64338,21.31672 -6.47342,34.80678 -30.67738,16.56517"
         style="fill:#ffd5d5;stroke:#000000;stroke-width:2;stroke-linecap:butt;stroke-linejoin:miter;stroke-opacity:1;display:inline" />
      <path
         sodipodi:nodetypes="ccscc"
         inkscape:connector-curvature="0"
         id="path5111-7-6-0-2-2-6-1-2"
         d="m 233.45567,198.0677 c -0.24393,0.87263 -0.46228,2.00919 -0.62276,3.19456 -2.04903,0.71508 -2.52242,4.03237 -4.22705,2.85537 -1.93092,-1.33325 -2.31274,-4.1493 -2.48734,-7.04681 1.50008,0.67932 5.78042,0.98628 7.33715,0.99688 z"
         style="fill:#ffaaaa;stroke:none;display:inline" />
      <path
         sodipodi:nodetypes="csc"
         inkscape:connector-curvature="0"
         id="path3911-1-4-4-0"
         d="m 346.64604,217.37922 c -3.05602,46.34043 -79.355,38.05065 -105.44673,10.80889 -7.55188,-7.88473 -13.98681,-24.49066 -1.94998,-44.50235"
         style="fill:#ffd5d5;stroke:#000000;stroke-width:2;stroke-linecap:butt;stroke-linejoin:miter;stroke-opacity:1;display:inline" />
      <path
         sodipodi:nodetypes="csc"
         inkscape:connector-curvature="0"
         id="path6267-86"
         d="m 349.63641,184.6026 c 7.56839,12.56921 11.67673,30.81743 4.94797,34.74508 -3.32099,1.93849 -7.7477,2.02192 -14.05829,-1.49736"
         style="fill:#ffd5d5;stroke:#000000;stroke-width:2;stroke-linecap:butt;stroke-linejoin:miter;stroke-opacity:1;display:inline" />
      <path
         sodipodi:nodetypes="csc"
         inkscape:connector-curvature="0"
         id="path3536-4-7-6-2"
         d="m 253.15875,136.13032 c 16.28931,-26.80182 62.01657,-29.80283 80.12438,-0.93464 12.05799,19.2233 22.76045,44.29666 12.79117,56.73701"
         style="fill:none;stroke:#000000;stroke-width:2;stroke-linecap:butt;stroke-linejoin:miter;stroke-opacity:1;display:inline" />
      <path
         sodipodi:nodetypes="cc"
         inkscape:connector-curvature="0"
         id="path5093-4-2-9-9-0-86"
         d="m 246.32582,149.29465 c -6.12047,7.54181 -10.71236,21.68595 -3.13052,33.47786"
         style="fill:none;stroke:#000000;stroke-width:2;stroke-linecap:butt;stroke-linejoin:miter;stroke-opacity:1;display:inline" />
      <path
         inkscape:connector-curvature="0"
         id="path5095-5-3-4-3-9-5"
         d="m 269.49036,161.23348 c 0.8891,1.64555 1.57768,4.63485 2.14064,6.52758"
         style="fill:none;stroke:#000000;stroke-width:2;stroke-linecap:butt;stroke-linejoin:miter;stroke-opacity:1;display:inline" />
      <path
         inkscape:connector-curvature="0"
         id="path5097-5-2-8-1-0-09"
         d="m 290.93144,163.60067 c -1.33325,1.65702 -4.33099,5.24963 -5.02587,7.27026"
         style="fill:none;stroke:#000000;stroke-width:2;stroke-linecap:butt;stroke-linejoin:miter;stroke-opacity:1;display:inline" />
      <path
         sodipodi:nodetypes="csc"
         inkscape:connector-curvature="0"
         id="path5099-1-2-8-9-0-0"
         d="m 327.48086,128.6683 c 26.11777,7.84308 27.10554,47.46281 14.53167,53.70406 -5.35088,2.65601 -8.69308,-13.42506 -15.95422,-17.90642"
         style="fill:#ffd5d5;stroke:#000000;stroke-width:2;stroke-linecap:butt;stroke-linejoin:miter;stroke-opacity:1;display:inline" />
      <path
         inkscape:connector-curvature="0"
         id="path5101-7-1-2-8-6-0"
         d="m 275.13353,169.06743 c 5.05447,-0.0381 15.47562,6.23962 20.75557,12.40969 6.48788,7.58166 2.50145,13.60996 -5.45987,11.08302 -6.18099,-1.96185 -19.15029,-5.42741 -23.34951,-4.93176 -5.32203,0.62818 -9.8582,-5.84207 -6.24032,-11.26046 3.10499,-4.65024 7.87235,-7.25219 14.29413,-7.30049 z"
         style="fill:#ffaaaa;stroke:#000000;stroke-width:2;stroke-linecap:butt;stroke-linejoin:miter;stroke-opacity:1;display:inline" />
      <path
         inkscape:connector-curvature="0"
         id="path5105-1-6-4-6-1-6"
         d="m 284.85603,185.82816 c -1.66508,0.66837 -5.89359,-9.10197 -4.60747,-9.52422 1.54904,-0.50857 7.06311,8.53853 4.60747,9.52422 z"
         style="fill:#000000;stroke:#000000;stroke-width:2;display:inline"
         sodipodi:nodetypes="sss" />
      <path
         inkscape:connector-curvature="0"
         id="path5107-1-8-55-5-3-1"
         d="m 272.52605,175.46768 c 1.07697,0.0993 0.2814,8.53599 -1.59994,8.39226 -2.57485,-0.1967 0.0407,-8.5361 1.59994,-8.39226 z"
         style="fill:#000000;stroke:#000000;stroke-width:2;display:inline"
         sodipodi:nodetypes="sss" />
      <path
         sodipodi:nodetypes="csc"
         inkscape:connector-curvature="0"
         id="path5109-2-7-9-5-0-4-3"
         d="m 232.58102,201.37216 c -1.77474,0.98936 -2.37479,3.85544 -4.02133,2.77917 -4.71358,-3.08108 -3.38679,-23.97878 10.75143,-37.11879"
         style="fill:none;stroke:#000000;stroke-width:2;stroke-linecap:butt;stroke-linejoin:miter;stroke-opacity:1;display:inline" />
      <path
         sodipodi:nodetypes="cc"
         inkscape:connector-curvature="0"
         id="path5111-7-6-0-2-2-6-89"
         d="m 233.17332,198.11665 c -1.55674,-0.0106 -4.93939,-0.16041 -6.43779,-0.83884"
         style="fill:none;stroke:#000000;stroke-width:2;stroke-linecap:butt;stroke-linejoin:miter;stroke-opacity:1;display:inline" />
    </g>
    <g
       id="g3210">
      <path
         sodipodi:nodetypes="cscccc"
         inkscape:connector-curvature="0"
         id="path5109-2-7-9-5-0-4-3-4-6"
         d="m 146.82406,245.32992 c 1.90322,1.061 2.54671,4.13455 4.31244,2.98037 5.0548,-3.30413 3.63197,-25.71462 -11.52974,-39.80585 l -118.464934,21.88574 8.669242,34.27724 z"
         style="fill:#ffd5d5;stroke:none;display:inline" />
      <path
         sodipodi:nodetypes="cscccc"
         inkscape:connector-curvature="0"
         id="path3536-4-7-6-2-3-0"
         d="m 25.45326,235.23826 c -10.690969,-13.34091 0.786244,-40.22934 13.717125,-60.84424 19.418654,-30.95797 67.029025,-27.84052 85.649195,0.70955 l 7.60302,14.41006 c 6.56354,8.08776 11.48783,23.2558 3.35714,35.90134 z"
         style="fill:#ffd5d5;stroke:none;display:inline" />
      <path
         sodipodi:nodetypes="cc"
         inkscape:connector-curvature="0"
         id="path5091-2-4-0-7-5-4-6"
         d="m 107.88624,159.25509 c 27.75898,-0.93453 32.20356,33.80642 27.61338,34.78286"
         style="fill:#ffd5d5;stroke:#000000;stroke-width:2;stroke-linecap:butt;stroke-linejoin:miter;stroke-opacity:1;display:inline" />
      <path
         sodipodi:nodetypes="cc"
         inkscape:connector-curvature="0"
         id="path5111-7-6-1-8-3-86-6"
         d="m 128.27185,281.73151 c 23.30266,6.40312 23.99725,-7.59027 16.84497,-20.05412"
         style="fill:#ffd5d5;stroke:#000000;stroke-width:2;stroke-linecap:butt;stroke-linejoin:miter;stroke-opacity:1;display:inline" />
      <path
         sodipodi:nodetypes="cc"
         inkscape:connector-curvature="0"
         id="path3396-0-5-1"
         d="m 31.139084,271.71725 c -8.196684,22.85986 6.942044,37.32648 32.898133,17.76435"
         style="fill:#ffd5d5;stroke:#000000;stroke-width:2;stroke-linecap:butt;stroke-linejoin:miter;stroke-opacity:1;display:inline" />
      <path
         sodipodi:nodetypes="ccscc"
         inkscape:connector-curvature="0"
         id="path5111-7-6-0-2-2-6-1-2-8"
         d="m 146.06495,241.67691 c 0.26159,0.9358 0.49575,2.15463 0.66785,3.42581 2.19736,0.76684 2.70501,4.32427 4.53304,3.06207 2.07071,-1.42977 2.48016,-4.44968 2.6674,-7.55693 -1.60867,0.72849 -6.19886,1.05768 -7.86829,1.06905 z"
         style="fill:#ffaaaa;stroke:none;display:inline" />
      <path
         sodipodi:nodetypes="csc"
         inkscape:connector-curvature="0"
         id="path3911-1-4-4-0-4"
         d="m 24.680655,262.3864 c 3.277248,49.69505 85.099565,40.80515 113.080095,11.59136 8.09856,-8.45552 14.99932,-26.26357 2.09114,-47.72392"
         style="fill:#ffd5d5;stroke:#000000;stroke-width:2;stroke-linecap:butt;stroke-linejoin:miter;stroke-opacity:1;display:inline" />
      <path
         sodipodi:nodetypes="csc"
         inkscape:connector-curvature="0"
         id="path6267-86-9"
         d="m 21.473817,227.23706 c -8.11628,13.4791 -12.5220303,33.04832 -5.306164,37.2603 3.561399,2.07881 8.308567,2.16828 15.075983,-1.60576"
         style="fill:#ffd5d5;stroke:#000000;stroke-width:2;stroke-linecap:butt;stroke-linejoin:miter;stroke-opacity:1;display:inline" />
      <path
         sodipodi:nodetypes="csc"
         inkscape:connector-curvature="0"
         id="path3536-4-7-6-2-6"
         d="m 124.93556,175.25582 c -17.46851,-28.742 -66.505992,-31.96026 -85.924655,-1.00229 -12.930871,20.6149 -24.408084,47.50333 -13.717125,60.84424"
         style="fill:none;stroke:#000000;stroke-width:2;stroke-linecap:butt;stroke-linejoin:miter;stroke-opacity:1;display:inline" />
      <path
         sodipodi:nodetypes="cc"
         inkscape:connector-curvature="0"
         id="path5093-4-2-9-9-0-86-3"
         d="m 132.26312,189.37313 c 6.56355,8.08778 11.48784,23.25582 3.35714,35.90136"
         style="fill:none;stroke:#000000;stroke-width:2;stroke-linecap:butt;stroke-linejoin:miter;stroke-opacity:1;display:inline" />
      <path
         inkscape:connector-curvature="0"
         id="path5095-5-3-4-3-9-5-7"
         d="m 107.42169,202.17623 c -0.95346,1.76467 -1.6919,4.97037 -2.2956,7.00011"
         style="fill:none;stroke:#000000;stroke-width:2;stroke-linecap:butt;stroke-linejoin:miter;stroke-opacity:1;display:inline" />
      <path
         inkscape:connector-curvature="0"
         id="path5097-5-2-8-1-0-09-8"
         d="m 84.428473,204.71479 c 1.429765,1.77696 4.644508,5.62965 5.389696,7.79655"
         style="fill:none;stroke:#000000;stroke-width:2;stroke-linecap:butt;stroke-linejoin:miter;stroke-opacity:1;display:inline" />
      <path
         sodipodi:nodetypes="csc"
         inkscape:connector-curvature="0"
         id="path5099-1-2-8-9-0-0-8"
         d="m 45.233217,167.25364 c -28.008454,8.41084 -29.06773,50.89866 -15.583634,57.59174 5.738231,2.84827 9.322381,-14.39693 17.109161,-19.2027"
         style="fill:#ffd5d5;stroke:#000000;stroke-width:2;stroke-linecap:butt;stroke-linejoin:miter;stroke-opacity:1;display:inline" />
      <path
         inkscape:connector-curvature="0"
         id="path5101-7-1-2-8-6-0-2"
         d="m 101.37001,210.57728 c -5.420376,-0.0408 -16.595916,6.69132 -22.258086,13.30805 -6.957546,8.1305 -2.682531,14.59518 5.855118,11.88532 6.628428,-2.10387 20.536588,-5.82031 25.039798,-5.28877 5.70729,0.67365 10.57184,-6.26499 6.69206,-12.07561 -3.32976,-4.98689 -8.44224,-7.7772 -15.32889,-7.82899 z"
         style="fill:#ffaaaa;stroke:#000000;stroke-width:2;stroke-linecap:butt;stroke-linejoin:miter;stroke-opacity:1;display:inline" />
      <path
         inkscape:connector-curvature="0"
         id="path5105-1-6-4-6-1-6-9"
         d="m 90.943682,228.55134 c 1.785617,0.71675 6.320232,-9.76088 4.941011,-10.21369 -1.661174,-0.54538 -7.574414,9.15663 -4.941011,10.21369 z"
         style="fill:#000000;stroke:#000000;stroke-width:2;display:inline"
         sodipodi:nodetypes="sss" />
      <path
         inkscape:connector-curvature="0"
         id="path5107-1-8-55-5-3-1-1"
         d="m 104.16625,217.44085 c -1.15494,0.10651 -0.30178,9.15392 1.71575,8.99979 2.76125,-0.21095 -0.0436,-9.15404 -1.71575,-8.99979 z"
         style="fill:#000000;stroke:#000000;stroke-width:2;display:inline"
         sodipodi:nodetypes="sss" />
      <path
         sodipodi:nodetypes="csc"
         inkscape:connector-curvature="0"
         id="path5109-2-7-9-5-0-4-3-3"
         d="m 147.00292,245.22057 c 1.90322,1.06098 2.54671,4.13454 4.31244,2.98036 5.05479,-3.30412 3.63196,-25.71462 -11.52974,-39.80584"
         style="fill:none;stroke:#000000;stroke-width:2;stroke-linecap:butt;stroke-linejoin:miter;stroke-opacity:1;display:inline" />
      <path
         sodipodi:nodetypes="cc"
         inkscape:connector-curvature="0"
         id="path5111-7-6-0-2-2-6-89-5"
         d="m 146.36774,241.72939 c 1.66944,-0.0114 5.29696,-0.17201 6.90383,-0.89955"
         style="fill:none;stroke:#000000;stroke-width:2;stroke-linecap:butt;stroke-linejoin:miter;stroke-opacity:1;display:inline" />
    </g>
    <g
       id="g3377">
      <path
         sodipodi:nodetypes="cscccc"
         inkscape:connector-curvature="0"
         id="path5109-2-7-9-5-0-4-2-6"
         d="m 282.94534,235.13255 c 1.87818,0.86943 2.70646,3.73476 4.29672,2.51588 4.55249,-3.48937 -1.8842,-29.29124 -16.03478,-40.00853 l -106.85366,32.44683 4.29252,20.82969 z"
         style="fill:#ffd5d5;stroke:none;display:inline" />
      <path
         sodipodi:nodetypes="scccs"
         inkscape:connector-curvature="0"
         id="path5109-2-7-9-5-0-4-2-2"
         d="m 287.33948,237.64481 c -1.70484,1.05267 -2.41854,-1.64645 -4.29672,-2.51588 -0.0665,-1.11281 -0.15486,-2.2256 -0.3472,-3.3384 1.70047,-0.11401 5.24316,-1.0022 6.70945,-1.80908 0.26428,2.35748 -0.34344,6.60004 -2.06553,7.66336 z"
         style="fill:#ffaaaa;stroke:none;display:inline" />
      <path
         sodipodi:nodetypes="cc"
         inkscape:connector-curvature="0"
         id="path5111-7-6-1-8-3-8"
         d="m 267.80628,271.04805 c 22.52709,4.40589 23.15504,-7.67388 13.96857,-20.87602"
         style="fill:#ffd5d5;stroke:#000000;stroke-width:2;stroke-linecap:butt;stroke-linejoin:miter;stroke-opacity:1;display:inline" />
      <path
         inkscape:connector-curvature="0"
         id="path3396-0-1"
         d="m 175.09347,268.47765 c -13.29063,19.48216 11.93925,22.224 29.04252,13.2752"
         style="fill:#ffd5d5;stroke:#000000;stroke-width:2;stroke-linecap:butt;stroke-linejoin:miter;stroke-opacity:1;display:inline" />
      <path
         sodipodi:nodetypes="csc"
         inkscape:connector-curvature="0"
         id="path3911-1-4-4-6"
         d="m 166.546,245.67281 c -2.39457,52.01821 85.2735,47.01762 109.69578,17.35572 7.06869,-8.58521 10.96929,-25.17098 1.50603,-41.24132"
         style="fill:#ffd5d5;stroke:#000000;stroke-width:2;stroke-linecap:butt;stroke-linejoin:miter;stroke-opacity:1;display:inline" />
      <path
         sodipodi:nodetypes="csssc"
         inkscape:connector-curvature="0"
         id="path6297-7"
         d="m 166.00602,220.9959 c -8.85117,8.94625 -11.0461,32.03209 -7.82118,37.10484 0.86937,1.36749 2.88308,-0.0296 4.74056,0.0557 0.99331,0.0457 1.50844,1.54121 2.4761,2.19289 2.00428,1.34981 4.20215,-5.47802 6.20691,-8.91996"
         style="fill:#ffd5d5;stroke:none;display:inline" />
      <path
         sodipodi:nodetypes="cssscc"
         inkscape:connector-curvature="0"
         id="path5111-7-6-0-2-2-6-9-3-0"
         d="m 157.19324,251.81964 c -0.085,1.60726 0.22247,5.33879 1.16009,6.31345 1.12342,1.1678 2.88308,-0.0297 4.74055,0.0557 0.99332,0.0457 1.50845,1.5412 2.47611,2.19288 2.00428,1.34982 2.44158,-2.34436 4.45692,-5.78039 -1.45959,0.8094 -10.25534,-0.40167 -12.83367,-2.78168 z"
         style="fill:#ffaaaa;stroke:none;display:inline" />
      <path
         sodipodi:nodetypes="csc"
         inkscape:connector-curvature="0"
         id="path5109-2-7-9-5-0-4-2"
         d="m 282.9484,235.13305 c 1.87818,0.86943 2.70646,3.73476 4.29672,2.51588 4.55249,-3.48938 0.003,-27.67387 -15.63044,-40.14331"
         style="fill:none;stroke:#000000;stroke-width:2;stroke-linecap:butt;stroke-linejoin:miter;stroke-opacity:1;display:inline" />
      <path
         sodipodi:nodetypes="cc"
         inkscape:connector-curvature="0"
         id="path5111-7-6-0-2-2-6-9"
         d="m 282.6012,231.79464 c 1.70047,-0.114 5.24316,-1.00219 6.71334,-1.80568"
         style="fill:none;stroke:#000000;stroke-width:2;stroke-linecap:butt;stroke-linejoin:miter;stroke-opacity:1;display:inline" />
      <path
         sodipodi:nodetypes="cc"
         inkscape:connector-curvature="0"
         id="path5111-7-6-0-2-2-6-9-3"
         d="m 157.10067,251.82433 c 2.57654,2.37944 11.37229,3.59051 12.84247,2.78702"
         style="fill:none;stroke:#000000;stroke-width:2;stroke-linecap:butt;stroke-linejoin:miter;stroke-opacity:1;display:inline" />
      <path
         sodipodi:nodetypes="csssc"
         inkscape:connector-curvature="0"
         id="path6297"
         d="m 166.08015,221.03237 c -8.85117,8.94625 -11.0461,32.03208 -7.82118,37.10483 0.86937,1.3675 2.88308,-0.0297 4.74055,0.0557 0.99332,0.0457 1.50845,1.5412 2.47611,2.19288 2.00428,1.34982 4.20215,-5.47802 6.2069,-8.91995"
         style="fill:none;stroke:#000000;stroke-width:2;stroke-linecap:butt;stroke-linejoin:miter;stroke-opacity:1;display:inline" />
      <path
         sodipodi:nodetypes="cccscc"
         inkscape:connector-curvature="0"
         id="path5093-4-2-9-9-0-8-8"
         d="m 270.00612,225.55928 c 5.35273,-8.39176 3.86645,-21.5723 -3.16151,-30.82125 l -10.05374,-24.33445 c -20.69113,-24.72486 -66.98065,-21.86934 -82.6724,9.09199 -13.06734,25.78309 -14.07334,45.51698 -0.71032,55.86698 z"
         style="fill:#ffd5d5;stroke:none;display:inline" />
      <path
         inkscape:connector-curvature="0"
         id="path3536-4-7-6-6"
         d="m 256.70292,170.46374 c -20.69112,-24.72486 -66.98065,-21.86934 -82.6724,9.09198 -13.06733,25.78311 -14.07333,45.517 -0.71031,55.867"
         style="fill:none;stroke:#000000;stroke-width:2;stroke-linecap:butt;stroke-linejoin:miter;stroke-opacity:1;display:inline"
         sodipodi:nodetypes="csc" />
      <path
         sodipodi:nodetypes="cc"
         inkscape:connector-curvature="0"
         id="path5091-2-4-0-7-5-1"
         d="m 245.95983,161.28097 c 22.293,2.44103 28.35614,33.06448 24.66559,40.85811"
         style="fill:#ffd5d5;stroke:#000000;stroke-width:2;stroke-linecap:butt;stroke-linejoin:miter;stroke-opacity:1;display:inline" />
      <path
         sodipodi:nodetypes="cc"
         inkscape:connector-curvature="0"
         id="path5093-4-2-9-9-0-8"
         d="m 266.75666,194.79819 c 7.02796,9.24895 8.51424,22.4295 3.16152,30.82125"
         style="fill:none;stroke:#000000;stroke-width:2;stroke-linecap:butt;stroke-linejoin:miter;stroke-opacity:1;display:inline" />
      <path
         inkscape:connector-curvature="0"
         id="path5095-5-3-4-3-9-4"
         d="m 239.98685,202.81877 c -0.83598,1.87023 -1.34265,5.19163 -1.80215,7.30505"
         style="fill:none;stroke:#000000;stroke-width:2;stroke-linecap:butt;stroke-linejoin:miter;stroke-opacity:1;display:inline" />
      <path
         inkscape:connector-curvature="0"
         id="path5097-5-2-8-1-0-9"
         d="m 216.76349,207.16424 c 1.5922,1.70032 5.16118,5.37806 6.08602,7.52791"
         style="fill:none;stroke:#000000;stroke-width:2;stroke-linecap:butt;stroke-linejoin:miter;stroke-opacity:1;display:inline" />
      <path
         inkscape:connector-curvature="0"
         id="path5099-1-2-8-9-0-6"
         d="m 177.79047,176.90034 c -14.50799,4.33757 -20.09574,40.86245 -6.57648,45.51838 6.53655,2.25113 8.86845,-13.37076 13.17164,-19.69023"
         style="fill:#ffd5d5;stroke:#000000;stroke-width:2;stroke-linecap:butt;stroke-linejoin:miter;stroke-opacity:1;display:inline"
         sodipodi:nodetypes="csc" />
      <path
         sodipodi:nodetypes="ssssss"
         inkscape:connector-curvature="0"
         id="path5101-7-1-2-8-6-3"
         d="m 235.12276,212.18455 c -5.52353,0.37334 -14.54496,6.70137 -19.80516,13.87367 -6.46361,8.81316 -1.82027,15.01906 6.66756,11.60564 6.58974,-2.65009 18.83048,-6.06506 23.45751,-5.86841 5.8642,0.24922 12.24444,-6.21137 7.84826,-11.83226 -3.77295,-4.82407 -11.15042,-8.25304 -18.16817,-7.77864 z"
         style="fill:#ffaaaa;stroke:#000000;stroke-width:2;stroke-linecap:butt;stroke-linejoin:miter;stroke-opacity:1;display:inline" />
      <path
         inkscape:connector-curvature="0"
         id="path5105-1-6-4-6-1-7"
         d="m 225.87983,231.28849 c 1.87345,0.59332 5.68973,-10.42484 4.2504,-10.78043 -1.73358,-0.42829 -7.01332,9.90546 -4.2504,10.78043 z"
         style="fill:#000000;stroke:#000000;stroke-width:2;display:inline"
         sodipodi:nodetypes="sss" />
      <path
         inkscape:connector-curvature="0"
         id="path5107-1-8-55-5-3-8"
         d="m 238.49602,218.96077 c -1.1681,0.19691 0.39334,9.346 2.43633,9.03459 2.79608,-0.42621 -0.74514,-9.31968 -2.43633,-9.03459 z"
         style="fill:#000000;stroke:#000000;stroke-width:2;display:inline"
         sodipodi:nodetypes="sss" />
    </g>
  </g>
  <g
     inkscape:groupmode="layer"
     id="layer2"
     inkscape:label="枠面"
     sodipodi:insensitive="true">
    <path
       style="fill:#ffffff;stroke:none;display:inline"
       d="m 0,0 0,320 370,0 0,-320 -10,10 0,300 -350,0 0,-300 350,0 10,-10 z"
       id="path21072"
       inkscape:connector-curvature="0"
       sodipodi:nodetypes="ccccccccccc" />
  </g>
</svg>
