<?xml version="1.0" encoding="UTF-8" standalone="no"?>
<!-- Created with Inkscape (http://www.inkscape.org/) -->

<svg
   xmlns:dc="http://purl.org/dc/elements/1.1/"
   xmlns:cc="http://creativecommons.org/ns#"
   xmlns:rdf="http://www.w3.org/1999/02/22-rdf-syntax-ns#"
   xmlns:svg="http://www.w3.org/2000/svg"
   xmlns="http://www.w3.org/2000/svg"
   xmlns:sodipodi="http://sodipodi.sourceforge.net/DTD/sodipodi-0.dtd"
   xmlns:inkscape="http://www.inkscape.org/namespaces/inkscape"
   width="370"
   height="320"
   id="svg3172"
   version="1.1"
   inkscape:version="0.48.4 r9939"
   sodipodi:docname="[06.驚愕].svg"
   inkscape:export-filename="C:\Users\執安\Desktop\資料\臨時\svg\[30.聴取].png"
   inkscape:export-xdpi="90"
   inkscape:export-ydpi="90">
  <defs
     id="defs3174" />
  <sodipodi:namedview
     id="base"
     pagecolor="#ffffff"
     bordercolor="#666666"
     borderopacity="1.0"
     inkscape:pageopacity="0.0"
     inkscape:pageshadow="2"
     inkscape:zoom="0.86288822"
     inkscape:cx="169.37294"
     inkscape:cy="183.8267"
     inkscape:document-units="px"
     inkscape:current-layer="layer3"
     showgrid="false"
     inkscape:window-width="1069"
     inkscape:window-height="698"
     inkscape:window-x="172"
     inkscape:window-y="-1"
     inkscape:window-maximized="0" />
  <metadata
     id="metadata3177">
    <rdf:RDF>
      <cc:Work
         rdf:about="">
        <dc:format>image/svg+xml</dc:format>
        <dc:type
           rdf:resource="http://purl.org/dc/dcmitype/StillImage" />
        <dc:title />
      </cc:Work>
    </rdf:RDF>
  </metadata>
  <g
     inkscape:label="補助線"
     inkscape:groupmode="layer"
     id="layer1"
     transform="translate(0,-732.36218)"
     sodipodi:insensitive="true"
     style="display:none">
    <path
       style="fill:none;stroke:#0000ff;stroke-width:1px;stroke-linecap:butt;stroke-linejoin:miter;stroke-opacity:1;display:inline"
       d="M 10,1042.3622 360,742.36211"
       id="path3025"
       inkscape:connector-curvature="0"
       sodipodi:nodetypes="cc" />
    <path
       style="fill:none;stroke:#0000ff;stroke-width:1px;stroke-linecap:butt;stroke-linejoin:miter;stroke-opacity:1;display:inline"
       d="M 10,742.36211 360,1042.3622"
       id="path3027"
       inkscape:connector-curvature="0"
       sodipodi:nodetypes="cc" />
    <path
       style="fill:none;stroke:#ff0000;stroke-width:1px;stroke-linecap:butt;stroke-linejoin:miter;stroke-opacity:1;display:inline"
       d="m 10,732.36211 0,320.00009"
       id="path3006"
       inkscape:connector-curvature="0"
       sodipodi:nodetypes="cc" />
    <path
       style="fill:none;stroke:#ff0000;stroke-width:1px;stroke-linecap:butt;stroke-linejoin:miter;stroke-opacity:1;display:inline"
       d="m 360,732.36211 0,320.00009"
       id="path3010"
       inkscape:connector-curvature="0"
       sodipodi:nodetypes="cc" />
    <path
       style="fill:none;stroke:#ff0000;stroke-width:1px;stroke-linecap:butt;stroke-linejoin:miter;stroke-opacity:1;display:inline"
       d="m 0,742.36208 370,3e-5"
       id="path3016"
       inkscape:connector-curvature="0" />
    <path
       style="fill:none;stroke:#ff0000;stroke-width:1px;stroke-linecap:butt;stroke-linejoin:miter;stroke-opacity:1;display:inline"
       d="m 0,1042.3622 370,0"
       id="path3018"
       inkscape:connector-curvature="0"
       sodipodi:nodetypes="cc" />
  </g>
  <g
     inkscape:groupmode="layer"
     id="layer3"
     inkscape:label="豚"
     sodipodi:insensitive="true">
    <path
       style="fill:#ffff00;stroke:none;display:inline"
       d="m 172.61292,92.787196 c -6.25674,0.88837 -9.03614,-0.80614 -11.5947,-6.571828 -2.74886,6.462398 -8.07031,8.520388 -14.67982,6.087828 0.80076,5.76235 -1.38941,9.437694 -7.70392,12.475754 4.19305,3.10627 5.02235,6.79739 4.19904,11.27367 5.17931,-14.17579 11.83954,-19.803324 29.7794,-23.265424 z"
       id="path7954-5-1"
       inkscape:connector-curvature="0"
       sodipodi:nodetypes="cccccc" />
    <path
       style="fill:none;stroke:#000000;stroke-width:2;stroke-linecap:butt;stroke-linejoin:miter;stroke-opacity:1;display:inline"
       d="m 172.65735,92.751886 c -6.25675,0.88836 -9.03615,-0.80614 -11.5947,-6.571844 -2.74886,6.462414 -8.07031,8.520394 -14.67982,6.087834 0.80075,5.76234 -1.38941,9.437694 -7.70392,12.475764 4.19304,3.10625 5.02233,6.79739 4.19904,11.27365"
       id="path7954-6"
       inkscape:connector-curvature="0"
       sodipodi:nodetypes="ccccc" />
    <path
       style="fill:#ffff00;stroke:none;display:inline"
       d="m 273.19339,90.29236 c -5.74644,0.81591 -8.29915,-0.74039 -10.64903,-6.035831 -2.52467,5.935321 -7.4121,7.825461 -13.48254,5.591301 0.73545,5.29237 -1.27609,8.667954 -7.07559,11.45823 3.85107,2.85292 4.61273,6.243 3.85657,10.35419 4.75688,-13.019606 10.87391,-18.18816 27.35059,-21.36789 z"
       id="path7954-5-1-8"
       inkscape:connector-curvature="0"
       sodipodi:nodetypes="cccccc" />
    <path
       style="fill:none;stroke:#000000;stroke-width:2;stroke-linecap:butt;stroke-linejoin:miter;stroke-opacity:1;display:inline"
       d="m 273.2342,90.25993 c -5.74645,0.8159 -8.29916,-0.74039 -10.64904,-6.035851 -2.52466,5.935341 -7.41209,7.825471 -13.48253,5.591311 0.73544,5.29237 -1.27609,8.667954 -7.07559,11.45824 3.85105,2.8529 4.61271,6.243 3.85656,10.35417"
       id="path7954-6-5"
       inkscape:connector-curvature="0"
       sodipodi:nodetypes="ccccc" />
    <path
       sodipodi:type="arc"
       style="fill:#000000;fill-opacity:1;stroke:none"
       id="path5291-2-2"
       sodipodi:cx="40.211407"
       sodipodi:cy="287.5567"
       sodipodi:rx="95.045151"
       sodipodi:ry="14.165382"
       d="m 135.25656,287.5567 a 95.045151,14.165382 0 1 1 -190.090304,0 95.045151,14.165382 0 1 1 190.090304,0 z"
       transform="matrix(0.66000328,0,0,0.66000328,269.18812,69.986642)" />
    <path
       sodipodi:type="arc"
       style="fill:#000000;fill-opacity:1;stroke:none"
       id="path5291-2"
       sodipodi:cx="40.211407"
       sodipodi:cy="287.5567"
       sodipodi:rx="95.045151"
       sodipodi:ry="14.165382"
       d="m 135.25656,287.5567 a 95.045151,14.165382 0 1 1 -190.090304,0 95.045151,14.165382 0 1 1 190.090304,0 z"
       transform="matrix(0.73333698,0,0,0.73333698,181.37127,69.103773)" />
    <path
       sodipodi:type="arc"
       style="fill:#000000;fill-opacity:1;stroke:none"
       id="path5291"
       sodipodi:cx="40.211407"
       sodipodi:cy="287.5567"
       sodipodi:rx="95.045151"
       sodipodi:ry="14.165382"
       d="m 135.25656,287.5567 a 95.045151,14.165382 0 1 1 -190.090304,0 95.045151,14.165382 0 1 1 190.090304,0 z"
       transform="matrix(0.80667066,0,0,0.80667066,64.836161,61.246605)" />
    <path
       style="fill:#ffff00;stroke:none;display:inline"
       d="m 61.102409,94.44735 c -6.97976,1.67726 -10.30495,0.0599 -13.818096,-6.18503 -2.413716,7.60337 -8.210076,10.5027 -15.945784,8.4625 1.525019,6.4301 -0.556532,10.82173 -7.370515,14.93612 5.075545,3.06184 6.410184,7.1467 5.960414,12.29709 4.332837,-16.58715 11.259368,-23.66693 31.173981,-29.51068 z"
       id="path7954-5"
       inkscape:connector-curvature="0"
       sodipodi:nodetypes="cccccc" />
    <path
       style="fill:none;stroke:#000000;stroke-width:2;stroke-linecap:butt;stroke-linejoin:miter;stroke-opacity:1;display:inline"
       d="m 61.148853,94.40264 c -6.979768,1.67724 -10.304959,0.0599 -13.818103,-6.18504 -2.413707,7.60338 -8.210066,10.5027 -15.945785,8.46249 1.525018,6.4301 -0.556533,10.82174 -7.370508,14.93614 5.075548,3.06183 6.410176,7.14669 5.960405,12.29708"
       id="path7954"
       inkscape:connector-curvature="0"
       sodipodi:nodetypes="ccccc" />
    <g
       id="g3813"
       transform="matrix(1.0119394,0,0,1.0119394,-51.661658,-317.50019)"
       style="stroke-width:1.97640288">
      <path
         sodipodi:nodetypes="cscccccc"
         inkscape:connector-curvature="0"
         id="path5109-2-7-7-2-9-8-4-0-5-3-2-6"
         d="m 273.2657,527.75984 c -2.99486,-0.96583 -4.33665,4.05379 -6.16983,3.33134 -4.60231,-1.81372 -8.56542,-32.64827 13.17119,-52.83909 l 79.98535,-55.49909 12.82383,14.91399 11.17058,77.0029 -98.45161,40.74755 z"
         style="fill:#ffd5d5;stroke:none;display:inline" />
      <path
         sodipodi:nodetypes="csssc"
         id="path10046-4-1-1"
         d="m 376.93372,464.69991 c 22.97405,16.88054 30.22126,47.58738 28.20784,50.7714 -1.5523,2.45478 -3.94072,-0.5631 -6.41951,0.40608 -1.6648,0.65094 -0.37944,4.33498 -1.67728,5.71562 -1.62814,1.73201 -10.32741,-1.79818 -15.3999,-5.69787"
         style="fill:#ffd5d5;stroke:none;display:inline"
         inkscape:connector-curvature="0" />
      <path
         sodipodi:nodetypes="ccssscc"
         id="path5111-7-6-1-8-2-7-2-6-5-1-1-1-8"
         d="m 386.45061,518.95209 c 6.0718,-1.82421 16.0746,-11.93756 16.63883,-17.54962 0,0 4.01056,10.98979 1.99716,14.17382 -1.5523,2.45475 -4.77344,-1.75344 -6.40635,0.3485 -1.80931,2.32895 0.54806,3.34805 -1.7037,5.77598 -1.61645,1.74296 -10.52593,-2.74863 -10.52593,-2.74863 z"
         style="fill:#ffaaaa;stroke:none;display:inline"
         inkscape:connector-curvature="0" />
      <path
         sodipodi:nodetypes="csssc"
         id="path10046-8-4"
         d="m 376.86395,464.7687 c 24.59764,17.90778 30.22125,47.58736 28.20784,50.77139 -1.55229,2.45478 -3.94072,-0.5631 -6.41952,0.40609 -1.66481,0.65095 -0.37943,4.33497 -1.67729,5.71564 -1.62812,1.73201 -10.3274,-1.7982 -15.39989,-5.6979"
         style="fill:none;stroke:#000000;stroke-width:1.97640288;stroke-linecap:butt;stroke-linejoin:miter;stroke-opacity:1"
         inkscape:connector-curvature="0" />
      <path
         sodipodi:nodetypes="cc"
         id="path5111-7-6-1-8-2-7-2-6-5-1-5-9"
         d="m 386.52918,518.83995 c 6.07182,-1.82424 15.97421,-12.07769 16.53847,-17.68979"
         style="fill:none;stroke:#000000;stroke-width:1.97640288;stroke-linecap:butt;stroke-linejoin:miter;stroke-opacity:1;display:inline"
         inkscape:connector-curvature="0" />
      <path
         sodipodi:nodetypes="cc"
         id="path5091-2-4-0-7-2-5-8-7-3-6"
         d="m 350.89702,414.51799 c 17.32708,1.44347 27.28039,15.39654 24.38171,27.04882"
         style="fill:#ffd5d5;stroke:#000000;stroke-width:1.97640288;stroke-linecap:butt;stroke-linejoin:miter;stroke-opacity:1;display:inline"
         inkscape:connector-curvature="0" />
      <path
         sodipodi:nodetypes="ccsccc"
         inkscape:connector-curvature="0"
         id="path10044-3-3"
         d="m 388.50252,496.33732 c 12.24266,16.3707 11.31558,40.79871 8.27282,52.34084 3.5123,3.62346 8.78706,15.93847 3.09831,19.88588 -5.72456,3.97225 -19.76858,2.72956 -29.76901,-1.8007 -16.98749,5.12072 -61.50461,5.4072 -69.20592,4.04916 -24.90594,8.20475 -35.41432,-4.92319 -19.47354,-15.79589"
         style="fill:#ffd5d5;stroke:#000000;stroke-width:1.97640288;stroke-linecap:butt;stroke-linejoin:miter;stroke-opacity:1" />
      <path
         sodipodi:nodetypes="csc"
         id="path3536-4-7-61-7-3-4-3-7"
         d="m 361.57243,422.16666 c -19.40608,-20.27538 -49.36453,-13.51821 -61.1876,0.15064 -11.45315,13.24118 -30.23724,47.65394 -17.73825,61.15879"
         style="fill:#ffd5d5;stroke:#000000;stroke-width:1.97640288;stroke-linecap:butt;stroke-linejoin:miter;stroke-opacity:1;display:inline"
         inkscape:connector-curvature="0" />
      <path
         sodipodi:nodetypes="cc"
         id="path5095-5-3-4-3-2-5-1-9-8-8"
         d="m 359.49241,434.36069 -0.52869,7.9074"
         style="fill:none;stroke:#000000;stroke-width:1.97640288;stroke-linecap:butt;stroke-linejoin:miter;stroke-opacity:1;display:inline"
         inkscape:connector-curvature="0" />
      <path
         sodipodi:nodetypes="cc"
         id="path5097-5-2-8-1-5-2-2-4-74-8"
         d="m 341.06159,439.08355 6.8275,6.16991"
         style="fill:none;stroke:#000000;stroke-width:1.97640288;stroke-linecap:butt;stroke-linejoin:miter;stroke-opacity:1;display:inline"
         inkscape:connector-curvature="0" />
      <path
         sodipodi:nodetypes="csc"
         id="path5099-1-2-8-9-8-7-0-8-2-2"
         d="m 307.55514,419.30513 c -25.96892,5.76486 -32.14734,36.32353 -16.17897,44.39601 3.38171,1.70955 13.86369,-15.98225 21.69316,-21.50071"
         style="fill:#ffd5d5;stroke:#000000;stroke-width:1.97640288;stroke-linecap:butt;stroke-linejoin:miter;stroke-opacity:1;display:inline"
         inkscape:connector-curvature="0" />
      <path
         sodipodi:nodetypes="ssssss"
         inkscape:connector-curvature="0"
         id="path5101-7-1-2-8-62-6-1-8-7-9"
         d="m 358.44397,444.58508 c -7.88056,1.1208 -14.76336,7.63287 -19.18548,15.07252 -5.41331,9.10727 -4.68022,20.34219 6.13538,17.14476 7.54623,-2.23092 15.05441,-3.56868 20.72432,-3.59001 6.45708,-0.0243 8.13745,-7.89647 6.11948,-15.28984 -2.08048,-7.62234 -7.24174,-14.26927 -13.7937,-13.33743 z"
         style="fill:#ffaaaa;stroke:#000000;stroke-width:1.97640288;stroke-linecap:butt;stroke-linejoin:miter;stroke-opacity:1;display:inline" />
      <path
         sodipodi:nodetypes="sss"
         inkscape:connector-curvature="0"
         id="path5105-1-6-4-6-6-1-6-2-7-1"
         d="m 349.68553,468.883 c 1.53217,1.9402 6.11664,-15.45607 4.65945,-15.32294 -2.43045,0.22206 -9.63777,9.01889 -4.65945,15.32294 z"
         style="fill:#000000;stroke:#000000;stroke-width:1.97640288;display:inline" />
      <path
         sodipodi:nodetypes="sss"
         inkscape:connector-curvature="0"
         id="path5107-1-8-55-5-5-42-4-4-9-3"
         d="m 362.00101,452.65918 c -1.01446,-0.58106 -0.0638,15.45551 1.37817,14.01294 4.25675,-4.25845 0.76532,-12.7852 -1.37817,-14.01294 z"
         style="fill:#000000;stroke:#000000;stroke-width:1.97640288;display:inline" />
      <path
         sodipodi:nodetypes="ccccc"
         inkscape:connector-curvature="0"
         id="path5109-2-7-7-2-9-8-4-0-5-3-0-5"
         d="m 273.37309,527.74255 c -2.99487,-0.96583 -4.33667,4.05381 -6.16984,3.33136 -3.62496,-1.85931 -3.01489,-10.49707 -3.01489,-10.49707 l 9.37313,0.26711 z"
         style="fill:#ffaaaa;stroke:none;display:inline" />
      <path
         sodipodi:nodetypes="csc"
         inkscape:connector-curvature="0"
         id="path5109-2-7-7-2-9-8-4-0-5-3-9"
         d="m 273.34894,527.87947 c -2.99486,-0.96582 -4.33666,4.0538 -6.16984,3.33136 -4.60231,-1.81372 -8.56542,-32.64827 13.17119,-52.83909"
         style="fill:none;stroke:#000000;stroke-width:1.97640288;stroke-linecap:butt;stroke-linejoin:miter;stroke-opacity:1;display:inline" />
      <path
         sodipodi:nodetypes="cc"
         id="path5111-7-6-1-8-2-7-2-6-5-19-8"
         d="m 264.16422,520.71375 9.37311,0.26712"
         style="fill:none;stroke:#000000;stroke-width:1.97640288;stroke-linecap:butt;stroke-linejoin:miter;stroke-opacity:1;display:inline"
         inkscape:connector-curvature="0" />
      <path
         sodipodi:nodetypes="cc"
         id="path9386-1-1-6-4"
         d="m 286.86374,560.17787 c -12.66347,-11.46658 -20.88171,-39.68625 -3.9894,-66.5965"
         style="fill:#ffd5d5;stroke:#000000;stroke-width:1.97640288;stroke-linecap:butt;stroke-linejoin:miter;stroke-opacity:1"
         inkscape:connector-curvature="0" />
      <path
         sodipodi:nodetypes="cc"
         id="path5093-4-2-9-9-4-11-5-0-0-0"
         d="m 371.60755,434.90536 c 9.02931,9.17764 15.60074,26.85863 5.66227,41.39059"
         style="fill:#ffd5d5;stroke:#000000;stroke-width:1.97640288;stroke-linecap:butt;stroke-linejoin:miter;stroke-opacity:1;display:inline"
         inkscape:connector-curvature="0" />
    </g>
    <g
       id="g4065"
       transform="translate(1.8548236,0.6788671)">
      <path
         sodipodi:nodetypes="cscccccc"
         inkscape:connector-curvature="0"
         id="path5109-2-7-7-2-9-8-4-0-5-3-2"
         d="m 130.83467,226.97215 c -3.38601,-1.10664 -4.92726,4.5698 -6.99927,3.74383 -5.20194,-2.07365 -9.55137,-36.99712 15.14497,-59.75735 l 90.79295,-62.47177 14.45081,16.94015 12.30349,87.2198 -111.63192,45.69046 z"
         style="fill:#ffd5d5;stroke:none;display:inline" />
      <path
         sodipodi:nodetypes="csssc"
         id="path10046-4-1"
         d="m 248.47087,156.04643 c 25.9325,19.21145 34.00023,54.00493 31.70682,57.60042 -1.76816,2.77202 -4.45855,-0.65496 -7.26893,0.43121 -1.88753,0.72949 -0.44879,4.90566 -1.92414,6.46284 -1.85081,1.95347 -11.68303,-2.08147 -17.40796,-6.51861"
         style="fill:#ffd5d5;stroke:none;display:inline"
         inkscape:connector-curvature="0" />
      <path
         sodipodi:nodetypes="cc"
         id="path5091-2-4-0-7-2-5-8-7-3"
         d="m 219.89324,98.710703 c 19.60849,1.711007 30.14004,17.962877 26.80687,31.140847"
         style="fill:#ffd5d5;stroke:#000000;stroke-width:1.99999988;stroke-linecap:butt;stroke-linejoin:miter;stroke-opacity:1;display:inline"
         inkscape:connector-curvature="0" />
      <path
         sodipodi:nodetypes="ccsccc"
         inkscape:connector-curvature="0"
         id="path10044-3"
         d="m 262.38922,199.182 c 5.80732,16.5829 11.30734,41.61542 8.43439,48.27965 2.22161,6.99415 9.2154,23.18721 3.56799,28.62306 -4.65288,4.47854 -23.48873,1.21916 -34.78945,-3.95368 -19.25323,5.7214 -68.96494,5.27266 -77.67711,3.70111 -28.23089,9.17746 -40.06846,-5.73054 -21.97461,-17.96804"
         style="fill:#ffd5d5;stroke:#000000;stroke-width:1.99999988;stroke-linecap:butt;stroke-linejoin:miter;stroke-opacity:1" />
      <path
         sodipodi:nodetypes="csc"
         id="path3536-4-7-61-7-3-4-3"
         d="m 232.13372,107.50167 c -24.06288,-23.983849 -58.72385,-14.814618 -72.16872,0.60652 -13.02423,14.93864 -32.40346,53.43125 -18.31414,68.77478"
         style="fill:#ffd5d5;stroke:#000000;stroke-width:1.99999988;stroke-linecap:butt;stroke-linejoin:miter;stroke-opacity:1;display:inline"
         inkscape:connector-curvature="0" />
      <path
         sodipodi:nodetypes="cc"
         id="path5095-5-3-4-3-2-5-1-9-8"
         d="m 228.86141,121.62382 -0.63363,8.94912"
         style="fill:none;stroke:#000000;stroke-width:1.99999988;stroke-linecap:butt;stroke-linejoin:miter;stroke-opacity:1;display:inline"
         inkscape:connector-curvature="0" />
      <path
         sodipodi:nodetypes="cc"
         id="path5097-5-2-8-1-5-2-2-4-74"
         d="m 207.97605,126.8884 7.70158,7.0149"
         style="fill:none;stroke:#000000;stroke-width:1.99999988;stroke-linecap:butt;stroke-linejoin:miter;stroke-opacity:1;display:inline"
         inkscape:connector-curvature="0" />
      <path
         sodipodi:nodetypes="csc"
         id="path5099-1-2-8-9-8-7-0-8-2"
         d="m 170.13334,104.34966 c -29.4234,6.41069 -36.55334,40.97681 -18.5124,50.18609 3.82062,1.95029 15.76521,-18.03092 24.65297,-24.24324"
         style="fill:#ffd5d5;stroke:#000000;stroke-width:1.99999988;stroke-linecap:butt;stroke-linejoin:miter;stroke-opacity:1;display:inline"
         inkscape:connector-curvature="0" />
      <path
         sodipodi:nodetypes="ssssss"
         inkscape:connector-curvature="0"
         id="path5101-7-1-2-8-62-6-1-8-7"
         d="m 227.62911,133.19355 c -8.92607,1.23378 -16.74658,8.57512 -21.78562,16.97746 -6.16853,10.28571 -5.38854,23.00733 6.86931,19.43575 8.55254,-2.49198 17.05801,-3.97301 23.47667,-3.97198 7.30977,0.001 9.24697,-8.90294 6.99539,-17.28148 -2.32133,-8.63801 -8.13454,-16.18552 -15.55575,-15.15975 z"
         style="fill:#ffaaaa;stroke:#000000;stroke-width:1.99999988;stroke-linecap:butt;stroke-linejoin:miter;stroke-opacity:1;display:inline" />
      <path
         sodipodi:nodetypes="sss"
         inkscape:connector-curvature="0"
         id="path5105-1-6-4-6-6-1-6-2-7"
         d="m 217.60631,160.66081 c 1.72587,2.2032 6.99292,-17.46969 5.34273,-17.32544 -2.75235,0.24056 -10.95037,10.16691 -5.34273,17.32544 z"
         style="fill:#000000;stroke:#000000;stroke-width:1.99999988;display:inline" />
      <path
         sodipodi:nodetypes="sss"
         inkscape:connector-curvature="0"
         id="path5107-1-8-55-5-5-42-4-4-9"
         d="m 231.61996,142.34954 c -1.14583,-0.66229 -0.14086,17.49594 1.49789,15.86931 4.83774,-4.80183 0.92315,-14.46994 -1.49789,-15.86931 z"
         style="fill:#000000;stroke:#000000;stroke-width:1.99999988;display:inline" />
      <path
         sodipodi:nodetypes="cc"
         inkscape:connector-curvature="0"
         id="path5109-2-7-7-2-9-8-4-0-5-3"
         d="m 130.59275,223.89841 c -5.20193,-2.07366 -12.15888,-33.52045 8.48131,-52.80396"
         style="fill:none;stroke:#000000;stroke-width:1.99999988;stroke-linecap:butt;stroke-linejoin:miter;stroke-opacity:1;display:inline" />
      <path
         sodipodi:nodetypes="cc"
         id="path9386-1-1-6"
         d="m 146.08416,263.731 c -14.28459,-13.03686 -23.46259,-45.01908 -4.22034,-75.40746"
         style="fill:#ffd5d5;stroke:#000000;stroke-width:1.99999988;stroke-linecap:butt;stroke-linejoin:miter;stroke-opacity:1"
         inkscape:connector-curvature="0" />
      <path
         sodipodi:nodetypes="cssssc"
         id="path10046-8-3"
         d="m 252.64892,160.79642 c 17.45188,13.66457 21.66291,35.44723 19.83351,48.53874 -3.48901,24.96789 -23.58459,30.03934 -33.034,27.02462 -4.82183,-1.53835 -0.16879,-5.72569 -2.41091,-7.44107 -1.95834,-1.49828 -6.90328,2.18865 -7.36164,-1.88947 -0.37848,-3.36749 3.67241,-13.67048 11.85425,-25.64045"
         style="fill:#ffd5d5;stroke:none"
         inkscape:connector-curvature="0" />
      <path
         sodipodi:nodetypes="cc"
         id="path5093-4-2-9-9-4-11-5-0-0"
         d="m 242.08571,122.77848 c 10.18076,10.42952 18.02938,29.99002 6.71412,46.39661"
         style="fill:#ffd5d5;stroke:#000000;stroke-width:1.99999988;stroke-linecap:butt;stroke-linejoin:miter;stroke-opacity:1;display:inline"
         inkscape:connector-curvature="0" />
      <path
         sodipodi:nodetypes="sssccs"
         id="path10046-8-7"
         d="m 239.39357,236.30493 c -4.82921,-1.51504 -0.16879,-5.72569 -2.41091,-7.44107 -1.95834,-1.49828 -6.90328,2.18865 -7.36164,-1.88947 -0.37848,-3.36749 3.51155,-11.02446 3.51155,-11.02446 4.55138,-3.50004 22.84785,15.30639 21.47099,18.79314 0,0 -6.58005,4.26928 -15.20999,1.56186 z"
         style="fill:#ffaaaa;stroke:none"
         inkscape:connector-curvature="0" />
      <path
         sodipodi:nodetypes="cssssc"
         id="path10046-8"
         d="m 252.73744,160.75958 c 17.45188,13.66457 21.66291,35.44723 19.83351,48.53874 -3.48901,24.96789 -23.58459,30.03934 -33.034,27.02462 -4.82183,-1.53835 -0.16879,-5.72569 -2.41091,-7.44107 -1.95834,-1.49828 -6.90328,2.18865 -7.36164,-1.88947 -0.37848,-3.36749 3.67241,-13.67048 11.85425,-25.64045"
         style="fill:none;stroke:#000000;stroke-width:1.99999988;stroke-linecap:butt;stroke-linejoin:miter;stroke-opacity:1"
         inkscape:connector-curvature="0" />
      <path
         sodipodi:nodetypes="cc"
         id="path5111-7-6-1-8-2-7-2-6-5-1-5"
         d="m 254.74694,234.76108 c 1.37686,-3.48675 -16.91961,-22.29318 -21.47099,-18.79314"
         style="fill:none;stroke:#000000;stroke-width:1.99999988;stroke-linecap:butt;stroke-linejoin:miter;stroke-opacity:1;display:inline"
         inkscape:connector-curvature="0" />
    </g>
    <g
       id="g3180"
       transform="matrix(1.0119394,0,0,1.0119394,40.407528,-278.29402)"
       style="stroke-width:1.97640288">
      <path
         sodipodi:nodetypes="cccccc"
         inkscape:connector-curvature="0"
         id="path5089-5-8"
         d="m -15.100521,450.23138 c -10.214491,12.20489 -21.768035,53.56142 -4.084433,59.15265 L 109.55253,447.1757 101.25827,402.01169 81.348892,384.36184 z"
         style="fill:#ffd5d5;stroke:#000000;stroke-width:1.97640288;stroke-linecap:butt;stroke-linejoin:miter;stroke-opacity:1;display:inline" />
      <path
         sodipodi:nodetypes="csc"
         inkscape:connector-curvature="0"
         id="path3948-7"
         d="m -1.2242145,533.66388 c 7.8219293,13.05431 33.5103835,42.73545 51.3405305,38.36786 10.599214,-2.59635 13.045548,-22.24811 12.418331,-34.14179"
         style="fill:#ffd5d5;stroke:#000000;stroke-width:1.97640288;stroke-linecap:butt;stroke-linejoin:miter;stroke-opacity:1" />
      <path
         sodipodi:nodetypes="cc"
         inkscape:connector-curvature="0"
         id="path5103-2-0"
         d="M -2.0484751,533.51432 C 8.7910507,547.40271 46.10508,572.28597 53.318293,540.83174"
         style="fill:#ffd5d5;stroke:#000000;stroke-width:1.97640288;stroke-linecap:butt;stroke-linejoin:miter;stroke-opacity:1;display:inline" />
      <path
         sodipodi:nodetypes="csc"
         inkscape:connector-curvature="0"
         id="path3857-4-9"
         d="m -12.264676,474.01096 c -19.529543,38.51774 -6.106286,73.20567 53.871817,80.1706 115.442839,13.40576 97.805349,-86.32287 68.020959,-116.31191"
         style="fill:#ffd5d5;stroke:#000000;stroke-width:1.97640288;stroke-linecap:butt;stroke-linejoin:miter;stroke-opacity:1;display:inline" />
      <path
         sodipodi:nodetypes="csc"
         inkscape:connector-curvature="0"
         id="path3855-8-4"
         d="m 30.80881,532.90038 c -18.433849,-12.94222 -42.087058,0.68636 -31.91042,13.36408 18.988358,23.65515 81.103231,10.1313 85.813898,4.40778"
         style="fill:#ffd5d5;stroke:#000000;stroke-width:1.97640288;stroke-linecap:butt;stroke-linejoin:miter;stroke-opacity:1;display:inline" />
      <path
         sodipodi:nodetypes="sssccs"
         inkscape:connector-curvature="0"
         id="path5109-5-1-8"
         d="m 37.504065,509.14796 c -1.110504,-1.45484 -1.025444,-7.2745 -1.717029,-8.56888 -0.567289,-1.06174 -5.608176,-4.38529 -5.235282,-6.42083 0.604801,-3.3013 3.745568,-7.37178 6.476821,-9.08351 8.929035,-2.05349 20.26635,22.0609 11.971023,28.88858 -4.156166,-0.64524 -9.952822,-2.79419 -11.495533,-4.81536 z"
         style="fill:#ffaaaa;stroke:none;display:inline" />
      <path
         sodipodi:nodetypes="csssc"
         inkscape:connector-curvature="0"
         id="path5109-4-2"
         d="m 65.892142,466.18469 c -10.034983,5.48534 -32.834609,17.7982 -35.31852,27.9681 -0.49096,2.0103 4.668075,5.35912 5.235381,6.42086 0.691585,1.29435 0.404799,7.29274 1.717021,8.56887 7.018052,6.82512 31.710734,7.59929 39.620257,7.05299"
         style="fill:none;stroke:#000000;stroke-width:1.97640288;stroke-linecap:butt;stroke-linejoin:miter;stroke-opacity:1;display:inline" />
      <path
         inkscape:connector-curvature="0"
         id="path5111-2-4"
         d="m 36.952137,485.17057 c 9.31031,-2.51354 20.285376,23.79912 11.69684,28.69023"
         style="fill:none;stroke:#000000;stroke-width:1.97640288;stroke-linecap:butt;stroke-linejoin:miter;stroke-opacity:1;display:inline" />
      <path
         sodipodi:nodetypes="cc"
         inkscape:connector-curvature="0"
         id="path5091-5-5"
         d="m 67.92462,375.22915 c 18.522249,-1.079 39.10997,14.67076 36.71568,33.89086"
         style="fill:#ffd5d5;stroke:#000000;stroke-width:1.97640288;stroke-linecap:butt;stroke-linejoin:miter;stroke-opacity:1;display:inline" />
      <path
         sodipodi:nodetypes="csc"
         inkscape:connector-curvature="0"
         id="path3861-4-17"
         d="m 85.696496,384.74788 c -23.481781,-24.54202 -75.7972928,-18.20105 -96.146808,31.01409 -9.100515,22.00952 -7.709079,39.54047 -0.94424,46.3918"
         style="fill:#ffd5d5;stroke:#000000;stroke-width:1.97640288;stroke-linecap:butt;stroke-linejoin:miter;stroke-opacity:1;display:inline" />
      <path
         sodipodi:nodetypes="cc"
         inkscape:connector-curvature="0"
         id="path5095-7-1"
         d="m 83.513617,401.07313 -0.319518,9.73438"
         style="fill:none;stroke:#000000;stroke-width:1.97640288;stroke-linecap:butt;stroke-linejoin:miter;stroke-opacity:1;display:inline" />
      <path
         sodipodi:nodetypes="cc"
         inkscape:connector-curvature="0"
         id="path5097-1-1"
         d="m 61.529248,409.793 8.879747,6.59184"
         style="fill:none;stroke:#000000;stroke-width:1.97640288;stroke-linecap:butt;stroke-linejoin:miter;stroke-opacity:1;display:inline" />
      <path
         sodipodi:nodetypes="csc"
         inkscape:connector-curvature="0"
         id="path5099-15-5"
         d="m 11.639569,389.49054 c -28.636067,14.14805 -24.995545,47.06248 -7.6439771,56.1497 7.5362651,3.94682 16.0226951,-18.6406 23.3317731,-27.30861"
         style="fill:#ffd5d5;stroke:#000000;stroke-width:1.97640288;stroke-linecap:butt;stroke-linejoin:miter;stroke-opacity:1;display:inline" />
      <path
         sodipodi:nodetypes="cc"
         inkscape:connector-curvature="0"
         id="path5093-1-1"
         d="m 98.076064,401.81205 c 10.241766,9.25077 21.474696,30.84464 7.752746,52.66115"
         style="fill:#ffd5d5;stroke:#000000;stroke-width:1.97640288;stroke-linecap:butt;stroke-linejoin:miter;stroke-opacity:1;display:inline" />
      <path
         sodipodi:nodetypes="ssssss"
         inkscape:connector-curvature="0"
         id="path5101-2-2"
         d="m 82.091023,413.97097 c -8.722506,3.1544 -17.87149,13.82745 -21.951271,25.82192 -4.768825,14.02031 2.625897,20.6442 11.504683,16.34719 11.264573,-5.45162 17.011159,-8.42841 24.66449,-9.55962 5.653865,-0.83569 7.256185,-8.34944 5.258805,-16.44814 -2.24074,-9.08548 -10.27721,-19.48825 -19.476707,-16.16135 z"
         style="fill:#ffaaaa;stroke:#000000;stroke-width:1.97640288;stroke-linecap:butt;stroke-linejoin:miter;stroke-opacity:1;display:inline" />
      <path
         sodipodi:nodetypes="sss"
         inkscape:connector-curvature="0"
         id="path5105-7-7"
         d="m 73.307984,445.14265 c 2.233954,1.11964 8.360894,-20.58501 6.499818,-20.28382 -3.767217,0.60962 -12.297882,17.37789 -6.499818,20.28382 z"
         style="fill:#000000;stroke:#000000;stroke-width:1.97640288;stroke-linecap:butt;stroke-linejoin:miter;stroke-opacity:1;display:inline" />
      <path
         sodipodi:nodetypes="sss"
         inkscape:connector-curvature="0"
         id="path5107-6-6"
         d="m 88.352599,422.80865 c -2.270983,0.0919 0.017,19.54099 1.785516,17.59726 5.651485,-6.21139 0.300526,-17.68176 -1.785516,-17.59726 z"
         style="fill:#000000;stroke:#000000;stroke-width:1.97640288;stroke-linecap:butt;stroke-linejoin:miter;stroke-opacity:1;display:inline" />
    </g>
  </g>
  <g
     inkscape:groupmode="layer"
     id="layer4"
     inkscape:label="吹き出し"
     sodipodi:insensitive="true">
    <path
       style="fill:#fefefe;fill-opacity:1;stroke:#000000;stroke-width:2"
       d="m 321.19262,47.074171 c 0,9.982719 -17.14485,18.964338 -44.47475,25.204913 -5.78181,1.320235 -19.34092,6.48357 -12.54589,19.74437 -12.2156,-2.427931 -18.01947,-14.419635 -24.38364,-13.716829 -10.84743,1.1979 -22.43632,2.052966 -34.54692,2.510257 -6.70496,0.253177 -16.18518,8.340225 -12.4739,17.461363 -10.71017,-3.0506 -18.45324,-17.150159 -23.51998,-17.292719 -17.95616,-0.505225 -34.85798,-1.881293 -50.01376,-3.955283 -7.25151,-0.992329 -15.93364,7.312425 -11.9379,17.306707 C 85.605744,82.659641 86.364529,70.8388 80.974543,69.265953 60.527126,63.299211 48.175518,55.5473 48.175518,47.074171 c 0,-18.847898 61.116952,-34.127137 136.508552,-34.127137 75.39159,0 136.50855,15.279239 136.50855,34.127137 z"
       id="path4520"
       inkscape:connector-curvature="0"
       sodipodi:nodetypes="sscsscsscssss" />
    <text
       xml:space="preserve"
       style="font-size:55.70777512px;font-style:normal;font-weight:normal;line-height:125%;letter-spacing:0px;word-spacing:0px;writing-mode:lr-tb;fill:#000000;fill-opacity:1;stroke:none;display:inline;font-family:Sans"
       x="134.11021"
       y="66.245575"
       id="text11601"
       sodipodi:linespacing="125%"><tspan
         sodipodi:role="line"
         id="tspan11603"
         x="134.11021"
         y="66.245575">何!?</tspan></text>
  </g>
  <g
     inkscape:groupmode="layer"
     id="layer2"
     inkscape:label="枠面"
     sodipodi:insensitive="true">
    <path
       style="fill:#ffffff;stroke:none;display:inline"
       d="m 0,0 0,320 370,0 0,-320 -10,10 0,300 -350,0 0,-300 350,0 10,-10 z"
       id="path21072"
       inkscape:connector-curvature="0"
       sodipodi:nodetypes="ccccccccccc" />
  </g>
</svg>
