<?xml version="1.0" encoding="UTF-8" standalone="no"?>
<!-- Created with Inkscape (http://www.inkscape.org/) -->

<svg
   xmlns:dc="http://purl.org/dc/elements/1.1/"
   xmlns:cc="http://creativecommons.org/ns#"
   xmlns:rdf="http://www.w3.org/1999/02/22-rdf-syntax-ns#"
   xmlns:svg="http://www.w3.org/2000/svg"
   xmlns="http://www.w3.org/2000/svg"
   xmlns:sodipodi="http://sodipodi.sourceforge.net/DTD/sodipodi-0.dtd"
   xmlns:inkscape="http://www.inkscape.org/namespaces/inkscape"
   width="370"
   height="320"
   id="svg3172"
   version="1.1"
   inkscape:version="0.48.4 r9939"
   sodipodi:docname="[00.規格].svg">
  <defs
     id="defs3174" />
  <sodipodi:namedview
     id="base"
     pagecolor="#ffffff"
     bordercolor="#666666"
     borderopacity="1.0"
     inkscape:pageopacity="0.0"
     inkscape:pageshadow="2"
     inkscape:zoom="1.0003542"
     inkscape:cx="134.63197"
     inkscape:cy="170.50687"
     inkscape:document-units="px"
     inkscape:current-layer="layer2"
     showgrid="false"
     inkscape:window-width="1245"
     inkscape:window-height="698"
     inkscape:window-x="-5"
     inkscape:window-y="-5"
     inkscape:window-maximized="0" />
  <metadata
     id="metadata3177">
    <rdf:RDF>
      <cc:Work
         rdf:about="">
        <dc:format>image/svg+xml</dc:format>
        <dc:type
           rdf:resource="http://purl.org/dc/dcmitype/StillImage" />
        <dc:title></dc:title>
      </cc:Work>
    </rdf:RDF>
  </metadata>
  <g
     inkscape:label="補助線"
     inkscape:groupmode="layer"
     id="layer1"
     transform="translate(0,-732.36218)"
     sodipodi:insensitive="true"
     style="display:none">
    <path
       style="fill:none;stroke:#0000ff;stroke-width:1px;stroke-linecap:butt;stroke-linejoin:miter;stroke-opacity:1;display:inline"
       d="M 10,1042.3622 360,742.36211"
       id="path3025"
       inkscape:connector-curvature="0"
       sodipodi:nodetypes="cc" />
    <path
       style="fill:none;stroke:#0000ff;stroke-width:1px;stroke-linecap:butt;stroke-linejoin:miter;stroke-opacity:1;display:inline"
       d="M 10,742.36211 360,1042.3622"
       id="path3027"
       inkscape:connector-curvature="0"
       sodipodi:nodetypes="cc" />
    <path
       style="fill:none;stroke:#ff0000;stroke-width:1px;stroke-linecap:butt;stroke-linejoin:miter;stroke-opacity:1;display:inline"
       d="m 10,732.36211 0,320.00009"
       id="path3006"
       inkscape:connector-curvature="0"
       sodipodi:nodetypes="cc" />
    <path
       style="fill:none;stroke:#ff0000;stroke-width:1px;stroke-linecap:butt;stroke-linejoin:miter;stroke-opacity:1;display:inline"
       d="m 360,732.36211 0,320.00009"
       id="path3010"
       inkscape:connector-curvature="0"
       sodipodi:nodetypes="cc" />
    <path
       style="fill:none;stroke:#ff0000;stroke-width:1px;stroke-linecap:butt;stroke-linejoin:miter;stroke-opacity:1;display:inline"
       d="m 0,742.36208 370,3e-5"
       id="path3016"
       inkscape:connector-curvature="0" />
    <path
       style="fill:none;stroke:#ff0000;stroke-width:1px;stroke-linecap:butt;stroke-linejoin:miter;stroke-opacity:1;display:inline"
       d="m 0,1042.3622 370,0"
       id="path3018"
       inkscape:connector-curvature="0"
       sodipodi:nodetypes="cc" />
  </g>
  <g
     inkscape:groupmode="layer"
     id="layer3"
     inkscape:label="豚"
     sodipodi:insensitive="true">
    <g
       id="g10348">
      <path
         sodipodi:nodetypes="ccccc"
         inkscape:connector-curvature="0"
         id="path3327-4-35-9-1-4-9-2"
         d="m 174.8368,154.94501 c 8.34683,5.71515 19.88388,29.78522 20.44479,40.64257 l -77.2267,4.27329 -9.98154,-14.26838 z"
         style="fill:#ffd5d5;stroke:none;display:inline" />
      <path
         sodipodi:nodetypes="cc"
         inkscape:connector-curvature="0"
         id="path5091-2-40-9-2-4-5-2-5-9"
         d="m 121.49689,131.08329 c -8.48433,0.36632 -17.20235,12.11828 -14.96099,19.72289"
         style="fill:#ffd5d5;stroke:#000000;stroke-width:2;stroke-linecap:butt;stroke-linejoin:miter;stroke-opacity:1;display:inline" />
      <path
         sodipodi:nodetypes="cccscc"
         inkscape:connector-curvature="0"
         id="path5093-4-9-4-4-0-5-8-5-2-4"
         d="m 110.17771,168.22766 c -5.58031,-3.97512 -5.95888,-15.4025 -0.19691,-22.81811 l 3.55339,-6.74687 c 9.78715,-17.87819 33.21127,-16.35409 46.27426,-5.11321 9.5017,8.17634 18.11296,20.37318 14.69494,26.45833 z"
         style="fill:#ffd5d5;stroke:none;display:inline" />
      <path
         sodipodi:nodetypes="csssccc"
         inkscape:connector-curvature="0"
         id="path5089-8-7-0-8-2-8-7-6-1-8-0-1"
         d="m 112.63616,193.79752 c -7.09935,-7.28456 -19.104354,-8.58547 -20.386979,-12.1803 -0.567357,-1.59009 1.584481,-2.88851 0.921989,-5.09833 -0.48235,-1.60899 -2.203557,-2.31824 -2.231729,-4.19288 -0.04274,-2.84061 12.175479,-8.00385 16.533849,-7.16846 l 56.18878,-4.17724 z"
         style="fill:#ffd5d5;stroke:none;display:inline" />
      <path
         sodipodi:nodetypes="sssccs"
         inkscape:connector-curvature="0"
         id="path5089-8-7-0-8-2-8-2-0-6-0-9"
         d="m 130.04024,184.0739 c -0.27976,-0.97424 1.60285,-3.40074 1.09784,-4.86513 -0.36382,-1.05498 -2.46642,-3.44251 -1.90063,-4.57344 0.44603,-0.89152 2.35999,-1.86305 4.78894,-2.60585 3.90368,-0.98487 7.39972,14.85255 2.0709,16.67862 -3.18161,-1.69106 -5.66159,-3.25716 -6.05705,-4.6342 z"
         style="fill:#ffaaaa;stroke:none;display:inline" />
      <path
         sodipodi:nodetypes="sssccs"
         inkscape:connector-curvature="0"
         id="path5089-8-7-0-8-2-8-7-6-8-2-3-6"
         d="m 92.431698,181.70433 c -0.567342,-1.59011 1.584496,-2.88853 0.922004,-5.09832 -0.482365,-1.609 -2.203572,-2.31825 -2.231745,-4.1929 -0.01639,-1.0901 1.772865,-2.52223 4.154771,-3.85901 4.994952,-1.35015 8.084502,14.53635 3.248775,17.02603 -3.138521,-1.26695 -5.556596,-2.3702 -6.093805,-3.8758 z"
         style="fill:#ffaaaa;stroke:none;display:inline" />
      <path
         sodipodi:nodetypes="cc"
         inkscape:connector-curvature="0"
         id="path5111-7-1-7-7-7-7-8-6-9-9"
         d="m 134.06051,171.97433 c 3.90976,-1.05363 7.44595,14.89405 2.08146,16.64876"
         style="fill:none;stroke:#000000;stroke-width:2;stroke-linecap:butt;stroke-linejoin:miter;stroke-opacity:1;display:inline" />
      <path
         sodipodi:nodetypes="csc"
         inkscape:connector-curvature="0"
         id="path4041-1-4-3-1-8"
         d="m 113.50568,138.6162 c 9.78716,-17.87819 34.45294,-16.02113 46.27427,-5.11322 9.2126,8.50076 18.11297,20.37317 14.69494,26.45832"
         style="fill:none;stroke:#000000;stroke-width:2;stroke-linecap:butt;stroke-linejoin:miter;stroke-opacity:1;display:inline" />
      <path
         sodipodi:nodetypes="cc"
         inkscape:connector-curvature="0"
         id="path3327-4-35-9-9-8-2"
         d="m 175.21868,154.94609 c 8.34683,5.71514 19.96851,29.97386 20.52942,40.8312"
         style="fill:none;stroke:#000000;stroke-width:2;stroke-linecap:butt;stroke-linejoin:miter;stroke-opacity:1;display:inline" />
      <path
         sodipodi:nodetypes="csssc"
         inkscape:connector-curvature="0"
         id="path5089-8-7-0-8-2-8-2-2-1-5"
         d="m 148.13888,195.60032 c -6.73427,-4.76402 -17.1702,-8.58679 -18.0183,-11.5401 -0.27977,-0.97423 1.60284,-3.40073 1.09782,-4.86512 -0.36381,-1.05496 -2.46641,-3.44251 -1.90063,-4.57342 1.16016,-2.31888 12.25116,-5.17885 16.61218,-4.35751"
         style="fill:none;stroke:#000000;stroke-width:2;stroke-linecap:butt;stroke-linejoin:miter;stroke-opacity:1;display:inline" />
      <path
         sodipodi:nodetypes="cc"
         inkscape:connector-curvature="0"
         id="path5093-4-9-4-4-0-5-4-9-5"
         d="m 109.9523,145.36306 c -5.76195,7.41562 -5.38339,18.84298 0.19692,22.8181"
         style="fill:none;stroke:#000000;stroke-width:2;stroke-linecap:butt;stroke-linejoin:miter;stroke-opacity:1;display:inline" />
      <path
         sodipodi:nodetypes="cc"
         inkscape:connector-curvature="0"
         id="path5095-5-4-8-5-7-3-6-5-4"
         d="m 119.29488,142.01956 c 0.11475,1.30584 0.62887,4.46554 0.75542,6.23093"
         style="fill:none;stroke:#000000;stroke-width:2;stroke-linecap:butt;stroke-linejoin:miter;stroke-opacity:1;display:inline" />
      <path
         sodipodi:nodetypes="cc"
         inkscape:connector-curvature="0"
         id="path5097-5-8-8-5-63-3-1-3-9"
         d="m 129.38369,142.3175 c -0.29801,1.43337 -1.665,5.47589 -1.83184,7.27392"
         style="fill:none;stroke:#000000;stroke-width:2;stroke-linecap:butt;stroke-linejoin:miter;stroke-opacity:1;display:inline" />
      <path
         sodipodi:nodetypes="csc"
         inkscape:connector-curvature="0"
         id="path5099-1-8-2-7-6-3-8-2-1"
         d="m 151.54641,130.16613 c 14.77716,-1.51801 20.88485,23.1415 14.51607,26.19699 -3.53176,1.69441 -10.40542,-8.42969 -15.57694,-10.00481"
         style="fill:#ffd5d5;stroke:#000000;stroke-width:2;stroke-linecap:butt;stroke-linejoin:miter;stroke-opacity:1;display:inline" />
      <path
         sodipodi:nodetypes="ssssss"
         inkscape:connector-curvature="0"
         id="path5101-7-2-4-1-1-7-2-5-2"
         d="m 122.75899,149.63038 c 4.29301,0.56571 9.08941,4.78849 11.72607,8.85113 3.1349,4.83041 1.2736,9.96457 -3.09718,8.65649 -4.677,-1.39973 -10.44807,-1.71996 -13.66801,-1.51996 -4.41139,0.27397 -4.83508,-4.82206 -4.23586,-8.31642 0.58035,-3.38428 5.19527,-8.20883 9.27498,-7.67124 z"
         style="fill:#ffaaaa;stroke:#000000;stroke-width:2;stroke-linecap:butt;stroke-linejoin:miter;stroke-opacity:1;display:inline" />
      <path
         sodipodi:nodetypes="sss"
         inkscape:connector-curvature="0"
         id="path5105-1-4-55-1-28-5-43-1-2-5"
         d="m 128.1774,162.57766 c -0.91958,0.99733 -4.31075,-7.51915 -3.42634,-7.8402 1.06526,-0.38673 5.72747,5.34451 3.42634,7.8402 z"
         style="fill:#000000;stroke:#000000;stroke-width:2;display:inline" />
      <path
         sodipodi:nodetypes="sss"
         inkscape:connector-curvature="0"
         id="path5107-1-5-1-5-4-8-1-5-0"
         d="m 120.47403,154.50413 c 0.68806,-0.0484 0.074,7.83362 -1.19255,7.53999 -1.81035,-0.41967 0.17947,-7.46867 1.19255,-7.53999 z"
         style="fill:#000000;stroke:#000000;stroke-width:2;display:inline" />
      <path
         sodipodi:nodetypes="cc"
         inkscape:connector-curvature="0"
         id="path5111-7-1-7-7-7-7-3-0-9-8-8"
         d="m 95.313112,168.59255 c 5.070758,-1.31728 8.127038,14.47766 3.279062,16.92534"
         style="fill:none;stroke:#000000;stroke-width:2;stroke-linecap:butt;stroke-linejoin:miter;stroke-opacity:1;display:inline" />
      <path
         sodipodi:nodetypes="csssc"
         inkscape:connector-curvature="0"
         id="path5089-8-7-0-8-2-8-7-6-7-6-3"
         d="m 112.89761,193.86439 c -7.09934,-7.28456 -19.104346,-8.58547 -20.386986,-12.1803 -0.567342,-1.5901 1.58448,-2.88852 0.922019,-5.09833 -0.48238,-1.60899 -2.203587,-2.31822 -2.231744,-4.19289 -0.04274,-2.8406 12.175491,-8.00384 16.533831,-7.16845"
         style="fill:none;stroke:#000000;stroke-width:2;stroke-linecap:butt;stroke-linejoin:miter;stroke-opacity:1;display:inline" />
      <path
         sodipodi:nodetypes="cc"
         inkscape:connector-curvature="0"
         id="path5095-5-4-8-5-7-3-5-6-7-9"
         d="m 114.84102,145.70176 20.18385,1.51384"
         style="fill:none;stroke:#000000;stroke-width:2;stroke-linecap:butt;stroke-linejoin:miter;stroke-opacity:1;display:inline" />
      <path
         sodipodi:nodetypes="cc"
         inkscape:connector-curvature="0"
         id="path7718-7-3"
         d="m 110.28541,191.73506 c 1.70066,1.63297 5.04912,3.43564 7.46423,8.41028"
         style="fill:none;stroke:#000000;stroke-width:2;stroke-linecap:butt;stroke-linejoin:miter;stroke-opacity:1" />
    </g>
    <g
       id="g10392">
      <path
         sodipodi:nodetypes="ccccc"
         inkscape:connector-curvature="0"
         id="path3327-4-35-9-1-4-9"
         d="m 297.39278,158.7495 c 8.34683,5.71515 19.88388,29.78522 20.44479,40.64257 l -77.2267,4.27329 -9.98154,-14.26838 z"
         style="fill:#ffd5d5;stroke:none;display:inline" />
      <path
         sodipodi:nodetypes="cc"
         inkscape:connector-curvature="0"
         id="path5091-2-40-9-2-4-5-2-5"
         d="m 244.05287,134.88778 c -8.48433,0.36632 -17.20235,12.11828 -14.96099,19.72289"
         style="fill:#ffd5d5;stroke:#000000;stroke-width:2;stroke-linecap:butt;stroke-linejoin:miter;stroke-opacity:1;display:inline" />
      <path
         sodipodi:nodetypes="cccscc"
         inkscape:connector-curvature="0"
         id="path5093-4-9-4-4-0-5-8-5-2"
         d="m 232.73369,172.03215 c -5.58031,-3.97512 -5.95888,-15.4025 -0.19691,-22.81811 l 3.55339,-6.74687 c 9.78715,-17.87819 33.21127,-16.35409 46.27426,-5.11321 9.5017,8.17634 18.11296,20.37318 14.69494,26.45833 z"
         style="fill:#ffd5d5;stroke:none;display:inline" />
      <path
         sodipodi:nodetypes="csssccc"
         inkscape:connector-curvature="0"
         id="path5089-8-7-0-8-2-8-7-6-1-8-0"
         d="m 235.19214,197.60201 c -7.09935,-7.28456 -19.10435,-8.58547 -20.38698,-12.1803 -0.56736,-1.59009 1.58448,-2.88851 0.92199,-5.09833 -0.48235,-1.60899 -2.20356,-2.31824 -2.23173,-4.19288 -0.0427,-2.84061 12.17548,-8.00385 16.53385,-7.16846 l 56.18878,-4.17724 z"
         style="fill:#ffd5d5;stroke:none;display:inline" />
      <path
         sodipodi:nodetypes="sssccs"
         inkscape:connector-curvature="0"
         id="path5089-8-7-0-8-2-8-2-0-6-0"
         d="m 252.59622,187.87839 c -0.27976,-0.97424 1.60285,-3.40074 1.09784,-4.86513 -0.36382,-1.05498 -2.46642,-3.44251 -1.90063,-4.57344 0.44603,-0.89152 2.35999,-1.86305 4.78894,-2.60585 3.90368,-0.98487 7.39972,14.85255 2.0709,16.67862 -3.18161,-1.69106 -5.66159,-3.25716 -6.05705,-4.6342 z"
         style="fill:#ffaaaa;stroke:none;display:inline" />
      <path
         sodipodi:nodetypes="sssccs"
         inkscape:connector-curvature="0"
         id="path5089-8-7-0-8-2-8-7-6-8-2-3"
         d="m 214.98768,185.50882 c -0.56734,-1.59011 1.58449,-2.88853 0.922,-5.09832 -0.48236,-1.609 -2.20357,-2.31825 -2.23174,-4.1929 -0.0164,-1.0901 1.77286,-2.52223 4.15477,-3.85901 4.99495,-1.35015 8.0845,14.53635 3.24877,17.02603 -3.13852,-1.26695 -5.55659,-2.3702 -6.0938,-3.8758 z"
         style="fill:#ffaaaa;stroke:none;display:inline" />
      <path
         sodipodi:nodetypes="cc"
         inkscape:connector-curvature="0"
         id="path5111-7-1-7-7-7-7-8-6-9"
         d="m 256.61649,175.77882 c 3.90976,-1.05363 7.44595,14.89405 2.08146,16.64876"
         style="fill:none;stroke:#000000;stroke-width:2;stroke-linecap:butt;stroke-linejoin:miter;stroke-opacity:1;display:inline" />
      <path
         sodipodi:nodetypes="csc"
         inkscape:connector-curvature="0"
         id="path4041-1-4-3-1"
         d="m 236.06166,142.42069 c 9.78716,-17.87819 34.45294,-16.02113 46.27427,-5.11322 9.2126,8.50076 18.11297,20.37317 14.69494,26.45832"
         style="fill:none;stroke:#000000;stroke-width:2;stroke-linecap:butt;stroke-linejoin:miter;stroke-opacity:1;display:inline" />
      <path
         sodipodi:nodetypes="cc"
         inkscape:connector-curvature="0"
         id="path3327-4-35-9-9-8"
         d="m 297.77466,158.75058 c 8.34683,5.71514 19.96851,29.97386 20.52942,40.8312"
         style="fill:none;stroke:#000000;stroke-width:2;stroke-linecap:butt;stroke-linejoin:miter;stroke-opacity:1;display:inline" />
      <path
         sodipodi:nodetypes="csssc"
         inkscape:connector-curvature="0"
         id="path5089-8-7-0-8-2-8-2-2-1"
         d="m 270.69486,199.40481 c -6.73427,-4.76402 -17.1702,-8.58679 -18.0183,-11.5401 -0.27977,-0.97423 1.60284,-3.40073 1.09782,-4.86512 -0.36381,-1.05496 -2.46641,-3.44251 -1.90063,-4.57342 1.16016,-2.31888 12.25116,-5.17885 16.61218,-4.35751"
         style="fill:none;stroke:#000000;stroke-width:2;stroke-linecap:butt;stroke-linejoin:miter;stroke-opacity:1;display:inline" />
      <path
         sodipodi:nodetypes="cc"
         inkscape:connector-curvature="0"
         id="path5093-4-9-4-4-0-5-4-9"
         d="m 232.50828,149.16755 c -5.76195,7.41562 -5.38339,18.84298 0.19692,22.8181"
         style="fill:none;stroke:#000000;stroke-width:2;stroke-linecap:butt;stroke-linejoin:miter;stroke-opacity:1;display:inline" />
      <path
         sodipodi:nodetypes="cc"
         inkscape:connector-curvature="0"
         id="path5095-5-4-8-5-7-3-6-5"
         d="m 241.85086,145.82405 c 0.11475,1.30584 0.62887,4.46554 0.75542,6.23093"
         style="fill:none;stroke:#000000;stroke-width:2;stroke-linecap:butt;stroke-linejoin:miter;stroke-opacity:1;display:inline" />
      <path
         sodipodi:nodetypes="cc"
         inkscape:connector-curvature="0"
         id="path5097-5-8-8-5-63-3-1-3"
         d="m 251.93967,146.12199 c -0.29801,1.43337 -1.665,5.47589 -1.83184,7.27392"
         style="fill:none;stroke:#000000;stroke-width:2;stroke-linecap:butt;stroke-linejoin:miter;stroke-opacity:1;display:inline" />
      <path
         sodipodi:nodetypes="csc"
         inkscape:connector-curvature="0"
         id="path5099-1-8-2-7-6-3-8-2"
         d="m 274.10239,133.97062 c 14.77716,-1.51801 20.88485,23.1415 14.51607,26.19699 -3.53176,1.69441 -10.40542,-8.42969 -15.57694,-10.00481"
         style="fill:#ffd5d5;stroke:#000000;stroke-width:2;stroke-linecap:butt;stroke-linejoin:miter;stroke-opacity:1;display:inline" />
      <path
         sodipodi:nodetypes="ssssss"
         inkscape:connector-curvature="0"
         id="path5101-7-2-4-1-1-7-2-5"
         d="m 245.31497,153.43487 c 4.29301,0.56571 9.08941,4.78849 11.72607,8.85113 3.1349,4.83041 1.2736,9.96457 -3.09718,8.65649 -4.677,-1.39973 -10.44807,-1.71996 -13.66801,-1.51996 -4.41139,0.27397 -4.83508,-4.82206 -4.23586,-8.31642 0.58035,-3.38428 5.19527,-8.20883 9.27498,-7.67124 z"
         style="fill:#ffaaaa;stroke:#000000;stroke-width:2;stroke-linecap:butt;stroke-linejoin:miter;stroke-opacity:1;display:inline" />
      <path
         sodipodi:nodetypes="sss"
         inkscape:connector-curvature="0"
         id="path5105-1-4-55-1-28-5-43-1-2"
         d="m 250.73338,166.38215 c -0.91958,0.99733 -4.31075,-7.51915 -3.42634,-7.8402 1.06526,-0.38673 5.72747,5.34451 3.42634,7.8402 z"
         style="fill:#000000;stroke:#000000;stroke-width:2;display:inline" />
      <path
         sodipodi:nodetypes="sss"
         inkscape:connector-curvature="0"
         id="path5107-1-5-1-5-4-8-1-5"
         d="m 243.03001,158.30862 c 0.68806,-0.0484 0.074,7.83362 -1.19255,7.53999 -1.81035,-0.41967 0.17947,-7.46867 1.19255,-7.53999 z"
         style="fill:#000000;stroke:#000000;stroke-width:2;display:inline" />
      <path
         sodipodi:nodetypes="cc"
         inkscape:connector-curvature="0"
         id="path5111-7-1-7-7-7-7-3-0-9-8"
         d="m 217.86909,172.39704 c 5.07076,-1.31728 8.12704,14.47766 3.27906,16.92534"
         style="fill:none;stroke:#000000;stroke-width:2;stroke-linecap:butt;stroke-linejoin:miter;stroke-opacity:1;display:inline" />
      <path
         sodipodi:nodetypes="csssc"
         inkscape:connector-curvature="0"
         id="path5089-8-7-0-8-2-8-7-6-7-6"
         d="m 235.45359,197.66888 c -7.09934,-7.28456 -19.10435,-8.58547 -20.38699,-12.1803 -0.56734,-1.5901 1.58448,-2.88852 0.92202,-5.09833 -0.48238,-1.60899 -2.20358,-2.31822 -2.23174,-4.19289 -0.0427,-2.8406 12.17549,-8.00384 16.53383,-7.16845"
         style="fill:none;stroke:#000000;stroke-width:2;stroke-linecap:butt;stroke-linejoin:miter;stroke-opacity:1;display:inline" />
      <path
         sodipodi:nodetypes="cc"
         inkscape:connector-curvature="0"
         id="path5095-5-4-8-5-7-3-5-6-7"
         d="m 237.397,149.50625 20.18385,1.51384"
         style="fill:none;stroke:#000000;stroke-width:2;stroke-linecap:butt;stroke-linejoin:miter;stroke-opacity:1;display:inline" />
      <path
         sodipodi:nodetypes="cc"
         inkscape:connector-curvature="0"
         id="path7718-7"
         d="m 232.84139,195.53955 c 1.70066,1.63297 5.04912,3.43564 7.46423,8.41028"
         style="fill:none;stroke:#000000;stroke-width:2;stroke-linecap:butt;stroke-linejoin:miter;stroke-opacity:1" />
    </g>
    <path
       sodipodi:type="spiral"
       style="fill:none;stroke:#000000;stroke-width:4.34108019;stroke-linecap:butt;stroke-linejoin:miter;stroke-opacity:1;display:inline"
       id="path7969-9-6"
       sodipodi:cx="207.5"
       sodipodi:cy="765.36218"
       sodipodi:expansion="1"
       sodipodi:revolution="2.2553272"
       sodipodi:radius="73.083855"
       sodipodi:argument="-17.264322"
       sodipodi:t0="0"
       d="m 207.5,765.36218 c -0.0704,4.8737 -6.60436,2.30966 -8.1004,-0.11695 -4.05418,-6.57597 2.02947,-14.17675 8.33431,-16.08385 11.27789,-3.41136 21.95024,5.81414 24.0673,16.55167 3.10687,15.75776 -9.61725,29.86306 -24.76903,32.05074 -20.19496,2.91585 -37.82977,-13.42258 -40.0342,-32.98639 -2.77403,-24.61906 17.22793,-45.82325 41.20376,-48.01764 29.03794,-2.65769 53.83204,21.03307 56.00108,49.42112 2.55615,33.45433 -24.83804,61.85039 -57.63847,63.98453 -37.86939,2.46395 -69.87513,-28.64292 -71.96798,-65.85583 -0.0458,-0.8152 -0.078,-1.63117 -0.0964,-2.44745"
       transform="matrix(-0.65176211,-0.01007533,-0.01745203,-0.32593794,458.03159,469.48178)" />
    <g
       id="g10304">
      <path
         sodipodi:nodetypes="ccccc"
         inkscape:connector-curvature="0"
         id="path3327-4-35-9-1-4"
         d="m 254.5096,161.38438 c 12.33559,8.44628 29.38594,44.0189 30.2149,60.06471 l -114.13158,6.31542 -14.75148,-21.08692 z"
         style="fill:#ffd5d5;stroke:none;display:inline" />
      <path
         sodipodi:nodetypes="cc"
         inkscape:connector-curvature="0"
         id="path5091-2-40-9-2-4-5-2"
         d="m 175.67977,126.11968 c -12.5388,0.54139 -25.42295,17.90934 -22.1105,29.14803"
         style="fill:#ffd5d5;stroke:#000000;stroke-width:2;stroke-linecap:butt;stroke-linejoin:miter;stroke-opacity:1;display:inline" />
      <path
         sodipodi:nodetypes="cccscc"
         inkscape:connector-curvature="0"
         id="path5093-4-9-4-4-0-5-8-5"
         d="m 158.95142,181.0145 c -8.24701,-5.87475 -8.8065,-22.76301 -0.29102,-33.72236 l 5.25147,-9.97105 c 14.46422,-26.42176 49.08218,-24.16932 68.38768,-7.5567 14.04235,12.08364 26.76873,30.10906 21.71731,39.10216 z"
         style="fill:#ffd5d5;stroke:none;display:inline" />
      <path
         sodipodi:nodetypes="csssccc"
         inkscape:connector-curvature="0"
         id="path5089-8-7-0-8-2-8-7-6-1-8"
         d="m 162.58469,218.80361 c -10.49195,-10.76567 -28.23388,-12.68827 -30.12943,-18.00098 -0.8385,-2.34996 2.34166,-4.26887 1.36259,-7.5347 -0.71286,-2.3779 -3.25659,-3.42608 -3.29824,-6.19659 -0.0631,-4.19805 17.99388,-11.82869 24.43499,-10.59407 l 83.04012,-6.17346 z"
         style="fill:#ffd5d5;stroke:none;display:inline" />
      <path
         sodipodi:nodetypes="sssccs"
         inkscape:connector-curvature="0"
         id="path5089-8-7-0-8-2-8-2-0-6"
         d="m 188.3058,204.43329 c -0.41347,-1.43981 2.3688,-5.02588 1.62246,-7.19006 -0.53768,-1.55912 -3.64506,-5.08761 -2.8089,-6.75897 0.65919,-1.31758 3.48777,-2.75336 7.07746,-3.85112 5.76918,-1.45554 10.93588,21.95023 3.06056,24.64893 -4.70205,-2.49918 -8.36715,-4.81367 -8.95158,-6.84878 z"
         style="fill:#ffaaaa;stroke:none;display:inline" />
      <path
         sodipodi:nodetypes="sssccs"
         inkscape:connector-curvature="0"
         id="path5089-8-7-0-8-2-8-7-6-8-2"
         d="m 132.725,200.93137 c -0.83847,-2.34998 2.34168,-4.26889 1.3626,-7.5347 -0.71287,-2.37792 -3.2566,-3.42608 -3.29825,-6.19659 -0.0242,-1.61103 2.62007,-3.72754 6.14025,-5.70315 7.38192,-1.99535 11.94788,21.48296 4.80127,25.16239 -4.63833,-1.87241 -8.21195,-3.50286 -9.00587,-5.72795 z"
         style="fill:#ffaaaa;stroke:none;display:inline" />
      <path
         sodipodi:nodetypes="cc"
         inkscape:connector-curvature="0"
         id="path5111-7-1-7-7-7-7-8-6"
         d="m 194.24724,186.55161 c 5.77817,-1.55712 11.0042,22.01158 3.07615,24.60482"
         style="fill:none;stroke:#000000;stroke-width:2;stroke-linecap:butt;stroke-linejoin:miter;stroke-opacity:1;display:inline" />
      <path
         sodipodi:nodetypes="csc"
         inkscape:connector-curvature="0"
         id="path4041-1-4-3"
         d="m 163.86973,137.25239 c 14.46425,-26.42175 50.91723,-23.67725 68.3877,-7.5567 13.61509,12.56308 26.76873,30.10905 21.71731,39.10215"
         style="fill:none;stroke:#000000;stroke-width:2;stroke-linecap:butt;stroke-linejoin:miter;stroke-opacity:1;display:inline" />
      <path
         sodipodi:nodetypes="cc"
         inkscape:connector-curvature="0"
         id="path3327-4-35-9-9"
         d="m 255.07397,161.38597 c 12.33561,8.44628 29.51101,44.29768 30.33998,60.3435"
         style="fill:none;stroke:#000000;stroke-width:2;stroke-linecap:butt;stroke-linejoin:miter;stroke-opacity:1;display:inline" />
      <path
         sodipodi:nodetypes="csssc"
         inkscape:connector-curvature="0"
         id="path5089-8-7-0-8-2-8-2-2"
         d="m 215.05336,221.46794 c -9.95241,-7.04065 -25.37546,-12.69024 -26.62884,-17.05485 -0.41347,-1.4398 2.36881,-5.02586 1.62246,-7.19005 -0.53768,-1.55911 -3.64506,-5.08762 -2.80889,-6.75896 1.71455,-3.42704 18.1057,-7.6537 24.55074,-6.43987"
         style="fill:none;stroke:#000000;stroke-width:2;stroke-linecap:butt;stroke-linejoin:miter;stroke-opacity:1;display:inline" />
      <path
         sodipodi:nodetypes="cc"
         inkscape:connector-curvature="0"
         id="path5093-4-9-4-4-0-5-4"
         d="m 158.61828,147.22343 c -8.51546,10.95937 -7.95599,27.84761 0.29102,33.72236"
         style="fill:none;stroke:#000000;stroke-width:2;stroke-linecap:butt;stroke-linejoin:miter;stroke-opacity:1;display:inline" />
      <path
         sodipodi:nodetypes="cc"
         inkscape:connector-curvature="0"
         id="path5095-5-4-8-5-7-3-6"
         d="m 172.42547,142.28214 c 0.16956,1.92988 -0.42467,6.87034 -0.23764,9.47938"
         style="fill:none;stroke:#000000;stroke-width:2;stroke-linecap:butt;stroke-linejoin:miter;stroke-opacity:1;display:inline" />
      <path
         sodipodi:nodetypes="cc"
         inkscape:connector-curvature="0"
         id="path5097-5-8-8-5-63-3-1"
         d="m 187.3355,142.72245 c -0.44042,2.11835 -1.37743,8.63432 -1.62399,11.2916"
         style="fill:none;stroke:#000000;stroke-width:2;stroke-linecap:butt;stroke-linejoin:miter;stroke-opacity:1;display:inline" />
      <path
         sodipodi:nodetypes="csc"
         inkscape:connector-curvature="0"
         id="path5099-1-8-2-7-6-3-8"
         d="m 220.08928,124.76424 c 21.83882,-2.24344 30.86522,34.20029 21.45297,38.71593 -5.21952,2.50413 -15.37794,-12.45806 -23.02081,-14.78588"
         style="fill:#ffd5d5;stroke:#000000;stroke-width:2;stroke-linecap:butt;stroke-linejoin:miter;stroke-opacity:1;display:inline" />
      <path
         sodipodi:nodetypes="ssssss"
         inkscape:connector-curvature="0"
         id="path5101-7-2-4-1-1-7-2"
         d="m 177.54499,153.53002 c 6.34456,0.83603 13.43304,7.07679 17.32969,13.08088 4.63302,7.13874 1.88223,14.72641 -4.57724,12.79321 -6.91203,-2.06863 -15.44095,-2.54187 -20.19965,-2.24631 -6.51947,0.40491 -7.14565,-7.12641 -6.26008,-12.29065 0.8577,-5.00154 7.67798,-12.13164 13.70728,-11.33713 z"
         style="fill:#ffaaaa;stroke:#000000;stroke-width:2;stroke-linecap:butt;stroke-linejoin:miter;stroke-opacity:1;display:inline" />
      <path
         sodipodi:nodetypes="sss"
         inkscape:connector-curvature="0"
         id="path5105-1-4-55-1-28-5-43-1"
         d="m 185.55275,172.66449 c -1.35903,1.47394 -6.37076,-11.11236 -5.06372,-11.58686 1.57432,-0.57152 8.4645,7.89853 5.06372,11.58686 z"
         style="fill:#000000;stroke:#000000;stroke-width:2;display:inline" />
      <path
         sodipodi:nodetypes="sss"
         inkscape:connector-curvature="0"
         id="path5107-1-5-1-5-4-8-1"
         d="m 174.1681,160.7328 c 1.01686,-0.0715 0.10932,11.57713 -1.76244,11.14321 -2.67548,-0.62026 0.26523,-11.03779 1.76244,-11.14321 z"
         style="fill:#000000;stroke:#000000;stroke-width:2;display:inline" />
      <path
         sodipodi:nodetypes="cc"
         inkscape:connector-curvature="0"
         id="path5111-7-1-7-7-7-7-3-0-9"
         d="m 136.98336,181.55376 c 7.49395,-1.94676 12.01077,21.39622 4.84605,25.01356"
         style="fill:none;stroke:#000000;stroke-width:2;stroke-linecap:butt;stroke-linejoin:miter;stroke-opacity:1;display:inline" />
      <path
         sodipodi:nodetypes="csssc"
         inkscape:connector-curvature="0"
         id="path5089-8-7-0-8-2-8-7-6-7"
         d="m 162.97109,218.90243 c -10.49195,-10.76567 -28.23387,-12.68827 -30.12947,-18.00097 -0.83846,-2.34998 2.34169,-4.26889 1.36264,-7.5347 -0.7129,-2.3779 -3.25664,-3.42607 -3.29825,-6.19659 -0.0631,-4.19805 17.99389,-11.82868 24.43497,-10.59408"
         style="fill:none;stroke:#000000;stroke-width:2;stroke-linecap:butt;stroke-linejoin:miter;stroke-opacity:1;display:inline" />
      <path
         sodipodi:nodetypes="cc"
         inkscape:connector-curvature="0"
         id="path5095-5-4-8-5-7-3-5-6"
         d="m 165.8432,147.72398 29.82926,2.23729"
         style="fill:none;stroke:#000000;stroke-width:2;stroke-linecap:butt;stroke-linejoin:miter;stroke-opacity:1;display:inline" />
      <path
         sodipodi:nodetypes="cc"
         inkscape:connector-curvature="0"
         id="path7718"
         d="m 159.11059,215.75556 c 2.51336,2.41332 7.46197,5.07746 11.03121,12.42936"
         style="fill:none;stroke:#000000;stroke-width:2;stroke-linecap:butt;stroke-linejoin:miter;stroke-opacity:1" />
    </g>
    <g
       id="g10262">
      <path
         sodipodi:nodetypes="cccc"
         inkscape:connector-curvature="0"
         id="path3331-0-2-4"
         d="M 70.331141,261.59954 C 60.010823,256.60879 40.861917,234.68836 37.283934,223.63812 L 142.26747,174.59383 c 21.42448,14.11652 35.73434,42.23293 36.15423,59.12188"
         style="fill:#ffd5d5;stroke:#000000;stroke-width:2;stroke-linecap:butt;stroke-linejoin:miter;stroke-opacity:1;display:inline" />
      <path
         sodipodi:nodetypes="cc"
         inkscape:connector-curvature="0"
         id="path5091-2-40-9-2-4-5"
         d="m 60.57504,139.50493 c -13.194669,0.21628 -27.225723,18.1091 -24.060204,30.01519"
         style="fill:#ffd5d5;stroke:#000000;stroke-width:2;stroke-linecap:butt;stroke-linejoin:miter;stroke-opacity:1;display:inline" />
      <path
         sodipodi:nodetypes="cccscc"
         inkscape:connector-curvature="0"
         id="path5093-4-9-4-4-0-5-8"
         d="m 41.447613,196.73377 c -8.503088,-6.40691 -8.616023,-24.17376 0.642858,-35.45348 l 5.800284,-10.33274 c 15.946572,-27.36474 52.269855,-24.0233 72.094315,-6.01878 14.41984,13.09607 27.28931,32.40049 21.7268,41.71095 z"
         style="fill:#ffd5d5;stroke:none;display:inline" />
      <path
         sodipodi:nodetypes="csssccc"
         inkscape:connector-curvature="0"
         id="path5089-8-7-0-8-2-8-7-6-1"
         d="M 45.562159,234.92526 C 34.837015,223.31437 14.946423,218.36389 13.103463,212.72642 c -0.815201,-2.49363 2.956281,-3.23403 2.019072,-6.69425 -0.6824,-2.51945 -3.451567,-4.56742 -3.417378,-7.48066 0.05181,-4.41431 15.933913,-8.60031 24.480695,-9.33035 l 78.353958,-0.43826 z"
         style="fill:#ffd5d5;stroke:none;display:inline" />
      <path
         sodipodi:nodetypes="sssccs"
         inkscape:connector-curvature="0"
         id="path5089-8-7-0-8-2-8-2-0"
         d="m 63.44282,225.21564 c -0.518535,-1.48729 2.192036,-5.41526 1.281552,-7.64349 -0.655935,-1.60527 -4.125142,-5.12733 -3.345334,-6.93102 0.614741,-1.4219 3.500046,-3.09514 7.204224,-4.45817 5.971265,-1.8665 12.768404,22.40254 4.658936,25.69766 -5.082949,-2.3479 -9.066447,-4.56273 -9.799378,-6.66498 z"
         style="fill:#ffaaaa;stroke:none;display:inline" />
      <path
         sodipodi:nodetypes="sssccs"
         inkscape:connector-curvature="0"
         id="path5089-8-7-0-8-2-8-7-6-8"
         d="m 13.258423,212.99427 c -0.815196,-2.49363 2.768846,-3.2965 1.83163,-6.75672 -0.682392,-2.51944 -3.451555,-4.69238 -3.417377,-7.60562 0.01992,-1.69401 2.939564,-3.15387 6.695185,-5.13137 7.815197,-1.88962 12.438499,23.21193 4.823253,26.87829 -4.82264,-2.09858 -9.160818,-5.02346 -9.932691,-7.38458 z"
         style="fill:#ffaaaa;stroke:none;display:inline" />
      <path
         sodipodi:nodetypes="cc"
         inkscape:connector-curvature="0"
         id="path5111-7-1-7-7-7-7-8"
         d="m 68.631427,206.09441 c 5.974742,-1.97366 12.843684,22.46293 4.672692,25.65045"
         style="fill:none;stroke:#000000;stroke-width:2;stroke-linecap:butt;stroke-linejoin:miter;stroke-opacity:1;display:inline" />
      <path
         sodipodi:nodetypes="csc"
         inkscape:connector-curvature="0"
         id="path4041-1-4"
         d="m 47.848412,150.87416 c 15.946572,-27.36475 54.184788,-23.45446 72.094318,-6.01879 13.95726,13.588 27.2893,32.4005 21.72679,41.71095"
         style="fill:none;stroke:#000000;stroke-width:2;stroke-linecap:butt;stroke-linejoin:miter;stroke-opacity:1;display:inline" />
      <path
         sodipodi:nodetypes="csssc"
         inkscape:connector-curvature="0"
         id="path5089-8-7-0-8-2-8-2"
         d="M 92.522446,241.53019 C 81.66112,234.72248 65.138137,229.69606 63.566264,225.18748 c -0.518534,-1.48729 2.192037,-5.41526 1.281553,-7.64349 -0.655935,-1.60527 -4.125127,-5.12733 -3.345334,-6.93102 1.598972,-3.69839 18.55896,-9.09715 25.396374,-8.20088"
         style="fill:none;stroke:#000000;stroke-width:2;stroke-linecap:butt;stroke-linejoin:miter;stroke-opacity:1;display:inline" />
      <path
         sodipodi:nodetypes="cc"
         inkscape:connector-curvature="0"
         id="path5093-4-9-4-4-0-5"
         d="m 42.048127,161.2069 c -9.258873,11.27971 -9.145943,29.04656 -0.642852,35.45347"
         style="fill:none;stroke:#000000;stroke-width:2;stroke-linecap:butt;stroke-linejoin:miter;stroke-opacity:1;display:inline" />
      <path
         sodipodi:nodetypes="cc"
         inkscape:connector-curvature="0"
         id="path5095-5-4-8-5-7-3"
         d="m 53.616617,156.67242 c 0.123935,2.03325 0.791222,6.96285 0.914421,9.71046"
         style="fill:none;stroke:#000000;stroke-width:2;stroke-linecap:butt;stroke-linejoin:miter;stroke-opacity:1;display:inline" />
      <path
         sodipodi:nodetypes="cc"
         inkscape:connector-curvature="0"
         id="path5097-5-8-8-5-63-3"
         d="m 68.192784,157.8255 c -0.522518,2.21419 -2.81407,8.43694 -3.148004,11.22305"
         style="fill:none;stroke:#000000;stroke-width:2;stroke-linecap:butt;stroke-linejoin:miter;stroke-opacity:1;display:inline" />
      <path
         sodipodi:nodetypes="csc"
         inkscape:connector-curvature="0"
         id="path5099-1-8-2-7-6-3"
         d="m 105.75969,139.32964 c 29.14551,-1.74365 29.94802,35.66703 19.92784,40.14858 -5.55664,2.48522 -21.41521,-12.37825 -29.383098,-15.04001"
         style="fill:#ffd5d5;stroke:#000000;stroke-width:2;stroke-linecap:butt;stroke-linejoin:miter;stroke-opacity:1;display:inline" />
      <path
         sodipodi:nodetypes="ssssss"
         inkscape:connector-curvature="0"
         id="path5101-7-2-4-1-1-7"
         d="m 55.265532,168.38241 c 6.704195,0.57455 14.990083,7.06127 19.370372,13.18134 5.208063,7.27664 2.681817,15.37822 -4.195581,13.65677 -7.359227,-1.84205 -14.176803,-2.5508 -19.161094,-2.01263 -6.828544,0.7373 -7.615721,-7.70321 -6.93267,-13.17 0.661526,-5.29454 4.547915,-12.20146 10.918973,-11.65548 z"
         style="fill:#ffaaaa;stroke:#000000;stroke-width:2;stroke-linecap:butt;stroke-linejoin:miter;stroke-opacity:1;display:inline" />
      <path
         sodipodi:nodetypes="sss"
         inkscape:connector-curvature="0"
         id="path5105-1-4-55-1-28-5-43"
         d="m 66.273174,189.10052 c -1.356971,1.61325 -8.362639,-12.09937 -7.01244,-12.66033 1.626272,-0.67566 10.408022,8.62344 7.01244,12.66033 z"
         style="fill:#000000;stroke:#000000;stroke-width:2;display:inline" />
      <path
         sodipodi:nodetypes="sss"
         inkscape:connector-curvature="0"
         id="path5107-1-5-1-5-4-8"
         d="m 52.604841,176.38051 c 1.064659,-0.12394 2.269967,11.76766 0.283135,11.40144 -2.839929,-0.52345 -1.850718,-11.21906 -0.283135,-11.40144 z"
         style="fill:#000000;stroke:#000000;stroke-width:2;display:inline" />
      <path
         sodipodi:nodetypes="cc"
         inkscape:connector-curvature="0"
         id="path5111-7-1-7-7-7-7-3-0"
         d="m 18.253636,193.66768 c 7.931604,-1.83539 12.695167,24.89769 4.532475,26.73116"
         style="fill:none;stroke:#000000;stroke-width:2;stroke-linecap:butt;stroke-linejoin:miter;stroke-opacity:1;display:inline" />
      <path
         sodipodi:nodetypes="csssc"
         inkscape:connector-curvature="0"
         id="path5089-8-7-0-8-2-8-7-6"
         d="M 45.965522,235.04 C 35.240379,223.42911 15.287301,219.00541 13.444341,213.36794 c -0.815201,-2.49363 2.581414,-4.42111 1.644205,-7.88133 -0.682399,-2.51944 -3.326611,-3.69273 -3.292422,-6.60596 0.05181,-4.41432 14.342414,-8.4014 24.576629,-9.67153"
         style="fill:none;stroke:#000000;stroke-width:2;stroke-linecap:butt;stroke-linejoin:miter;stroke-opacity:1;display:inline" />
      <path
         sodipodi:nodetypes="cc"
         inkscape:connector-curvature="0"
         id="path5095-5-4-8-5-7-3-5"
         d="m 48.169831,161.66546 27.769763,3.46162"
         style="fill:none;stroke:#000000;stroke-width:2;stroke-linecap:butt;stroke-linejoin:miter;stroke-opacity:1;display:inline" />
    </g>
    <path
       sodipodi:type="spiral"
       style="fill:none;stroke:#000000;stroke-width:2.56024337;stroke-linecap:butt;stroke-linejoin:miter;stroke-opacity:1;display:inline"
       id="path7969"
       sodipodi:cx="207.5"
       sodipodi:cy="765.36218"
       sodipodi:expansion="1"
       sodipodi:revolution="2.2553272"
       sodipodi:radius="73.083855"
       sodipodi:argument="-17.264322"
       sodipodi:t0="0"
       d="m 207.5,765.36218 c -0.0704,4.8737 -6.60436,2.30966 -8.1004,-0.11695 -4.05418,-6.57597 2.02947,-14.17675 8.33431,-16.08385 11.27789,-3.41136 21.95024,5.81414 24.0673,16.55167 3.10687,15.75776 -9.61725,29.86306 -24.76903,32.05074 -20.19496,2.91585 -37.82977,-13.42258 -40.0342,-32.98639 -2.77403,-24.61906 17.22793,-45.82325 41.20376,-48.01764 29.03794,-2.65769 53.83204,21.03307 56.00108,49.42112 2.55615,33.45433 -24.83804,61.85039 -57.63847,63.98453 -37.86939,2.46395 -69.87513,-28.64292 -71.96798,-65.85583 -0.0458,-0.8152 -0.078,-1.63117 -0.0964,-2.44745"
       transform="matrix(-1.0804796,0.23655852,-0.15524701,-0.53079251,475.56408,612.14095)" />
    <path
       sodipodi:type="spiral"
       style="fill:none;stroke:#000000;stroke-width:3.14923763;stroke-linecap:butt;stroke-linejoin:miter;stroke-opacity:1;display:inline"
       id="path7969-9"
       sodipodi:cx="207.5"
       sodipodi:cy="765.36218"
       sodipodi:expansion="1"
       sodipodi:revolution="2.2553272"
       sodipodi:radius="73.083855"
       sodipodi:argument="-17.264322"
       sodipodi:t0="0"
       d="m 207.5,765.36218 c -0.0704,4.8737 -6.60436,2.30966 -8.1004,-0.11695 -4.05418,-6.57597 2.02947,-14.17675 8.33431,-16.08385 11.27789,-3.41136 21.95024,5.81414 24.0673,16.55167 3.10687,15.75776 -9.61725,29.86306 -24.76903,32.05074 -20.19496,2.91585 -37.82977,-13.42258 -40.0342,-32.98639 -2.77403,-24.61906 17.22793,-45.82325 41.20376,-48.01764 29.03794,-2.65769 53.83204,21.03307 56.00108,49.42112 2.55615,33.45433 -24.83804,61.85039 -57.63847,63.98453 -37.86939,2.46395 -69.87513,-28.64292 -71.96798,-65.85583 -0.0458,-0.8152 -0.078,-1.63117 -0.0964,-2.44745"
       transform="matrix(-0.89842427,-0.01388838,-0.02405684,-0.44929054,438.89491,580.97375)" />
  </g>
  <g
     inkscape:groupmode="layer"
     id="layer4"
     inkscape:label="吹き出し"
     sodipodi:insensitive="true">
    <g
       transform="translate(34.174813,-10.454027)"
       id="g9788">
      <path
         sodipodi:nodetypes="sssscsssssss"
         inkscape:connector-curvature="0"
         id="rect7294"
         d="m -15.299673,45.97286 0,35.41665 c 0,12.905093 10.3892895,23.29439 23.2943795,23.29439 l 108.0428035,0 c 17.58619,0 2.36208,17.48845 -2.16649,22.72045 21.30925,-9.48101 27.27319,-22.72045 36.55738,-22.72045 l 146.34249,0 c 12.90509,0 23.2944,-10.389297 23.2944,-23.29439 l 0,-35.41665 c 0,-12.90509 -10.3893,-23.294381 -23.2944,-23.294381 l -288.7761835,0 c -12.90509,0 -23.2943795,10.389291 -23.2943795,23.294381 z"
         style="fill:#fefefe;fill-opacity:1;stroke:#000000;stroke-width:2;stroke-linecap:round;stroke-miterlimit:4;stroke-opacity:1;stroke-dashoffset:0;display:inline" />
      <text
         sodipodi:linespacing="125%"
         id="text11601"
         y="72.780487"
         x="-5.5951128"
         style="font-size:28.51324654px;font-style:normal;font-weight:normal;line-height:125%;letter-spacing:0px;word-spacing:0px;writing-mode:lr-tb;fill:#000000;fill-opacity:1;stroke:none;display:inline;font-family:Sans"
         xml:space="preserve"><tspan
           y="72.780487"
           x="-5.5951128"
           id="tspan11603"
           sodipodi:role="line">三十六計逃ぐるに如かず</tspan></text>
    </g>
  </g>
  <g
     inkscape:groupmode="layer"
     id="layer2"
     inkscape:label="枠面"
     sodipodi:insensitive="true">
    <path
       style="fill:#ffffff;stroke:none;display:inline"
       d="m 0,0 0,320 370,0 0,-320 -10,10 0,300 -350,0 0,-300 350,0 10,-10 z"
       id="path21072"
       inkscape:connector-curvature="0"
       sodipodi:nodetypes="ccccccccccc" />
  </g>
</svg>
