<?xml version="1.0" encoding="UTF-8" standalone="no"?>
<!-- Created with Inkscape (http://www.inkscape.org/) -->

<svg
   xmlns:dc="http://purl.org/dc/elements/1.1/"
   xmlns:cc="http://creativecommons.org/ns#"
   xmlns:rdf="http://www.w3.org/1999/02/22-rdf-syntax-ns#"
   xmlns:svg="http://www.w3.org/2000/svg"
   xmlns="http://www.w3.org/2000/svg"
   xmlns:sodipodi="http://sodipodi.sourceforge.net/DTD/sodipodi-0.dtd"
   xmlns:inkscape="http://www.inkscape.org/namespaces/inkscape"
   width="370"
   height="320"
   id="svg3172"
   version="1.1"
   inkscape:version="0.48.4 r9939"
   sodipodi:docname="[05.連携].svg">
  <defs
     id="defs3174" />
  <sodipodi:namedview
     id="base"
     pagecolor="#ffffff"
     bordercolor="#666666"
     borderopacity="1.0"
     inkscape:pageopacity="0.0"
     inkscape:pageshadow="2"
     inkscape:zoom="1.6086128"
     inkscape:cx="158.49928"
     inkscape:cy="146.78751"
     inkscape:document-units="px"
     inkscape:current-layer="layer2"
     showgrid="false"
     inkscape:window-width="1098"
     inkscape:window-height="698"
     inkscape:window-x="-5"
     inkscape:window-y="-5"
     inkscape:window-maximized="0" />
  <metadata
     id="metadata3177">
    <rdf:RDF>
      <cc:Work
         rdf:about="">
        <dc:format>image/svg+xml</dc:format>
        <dc:type
           rdf:resource="http://purl.org/dc/dcmitype/StillImage" />
        <dc:title></dc:title>
      </cc:Work>
    </rdf:RDF>
  </metadata>
  <g
     inkscape:label="補助線"
     inkscape:groupmode="layer"
     id="layer1"
     transform="translate(0,-732.36218)"
     sodipodi:insensitive="true"
     style="display:none">
    <path
       style="fill:none;stroke:#0000ff;stroke-width:1px;stroke-linecap:butt;stroke-linejoin:miter;stroke-opacity:1;display:inline"
       d="M 10,1042.3622 360,742.36211"
       id="path3025"
       inkscape:connector-curvature="0"
       sodipodi:nodetypes="cc" />
    <path
       style="fill:none;stroke:#0000ff;stroke-width:1px;stroke-linecap:butt;stroke-linejoin:miter;stroke-opacity:1;display:inline"
       d="M 10,742.36211 360,1042.3622"
       id="path3027"
       inkscape:connector-curvature="0"
       sodipodi:nodetypes="cc" />
    <path
       style="fill:none;stroke:#ff0000;stroke-width:1px;stroke-linecap:butt;stroke-linejoin:miter;stroke-opacity:1;display:inline"
       d="m 10,732.36211 0,320.00009"
       id="path3006"
       inkscape:connector-curvature="0"
       sodipodi:nodetypes="cc" />
    <path
       style="fill:none;stroke:#ff0000;stroke-width:1px;stroke-linecap:butt;stroke-linejoin:miter;stroke-opacity:1;display:inline"
       d="m 360,732.36211 0,320.00009"
       id="path3010"
       inkscape:connector-curvature="0"
       sodipodi:nodetypes="cc" />
    <path
       style="fill:none;stroke:#ff0000;stroke-width:1px;stroke-linecap:butt;stroke-linejoin:miter;stroke-opacity:1;display:inline"
       d="m 0,742.36208 370,3e-5"
       id="path3016"
       inkscape:connector-curvature="0" />
    <path
       style="fill:none;stroke:#ff0000;stroke-width:1px;stroke-linecap:butt;stroke-linejoin:miter;stroke-opacity:1;display:inline"
       d="m 0,1042.3622 370,0"
       id="path3018"
       inkscape:connector-curvature="0"
       sodipodi:nodetypes="cc" />
  </g>
  <g
     inkscape:groupmode="layer"
     id="layer3"
     inkscape:label="豚"
     style="display:inline"
     sodipodi:insensitive="true">
    <g
       id="g12571">
      <path
         sodipodi:nodetypes="csccsc"
         inkscape:connector-curvature="0"
         id="path3911-1-0-5"
         d="m 268.72754,137.54613 c 8.95406,28.33293 -3.66566,51.4237 -10.98954,53.40685 -2.53537,0.68653 -4.73014,-1.99245 -6.83868,-4.57766 -6.89541,1.52155 -26.08058,0.75351 -32.96216,-1.08834 -1.83191,1.65194 -3.1874,3.57783 -5.94188,2.62016 -5.87382,-2.0422 -15.45343,-29.35307 -9.35397,-43.58841 l 2.70779,-10.27222"
         style="fill:#ffd5d5;stroke:none;display:inline" />
      <path
         sodipodi:nodetypes="cscc"
         inkscape:connector-curvature="0"
         id="path3911-1-0"
         d="m 268.72677,137.55319 c 8.95406,28.33293 -3.66565,51.4237 -10.98954,53.40685 -2.53536,0.68653 -4.73013,-1.99245 -6.83867,-4.57766 -6.89542,1.52154 -29.60567,0.57233 -36.75348,-1.80163"
         style="fill:none;stroke:#000000;stroke-width:2;stroke-linecap:butt;stroke-linejoin:miter;stroke-opacity:1;display:inline" />
      <path
         sodipodi:nodetypes="csc"
         inkscape:connector-curvature="0"
         id="path3570-7-9"
         d="m 217.93606,185.29297 c -1.83157,1.65301 -3.18707,3.5789 -5.94155,2.62123 -5.87382,-2.04221 -15.45345,-29.35307 -9.35396,-43.58841"
         style="fill:none;stroke:#000000;stroke-width:2;stroke-linecap:butt;stroke-linejoin:miter;stroke-opacity:1;display:inline" />
    </g>
    <g
       id="g12509">
      <path
         sodipodi:nodetypes="cccsc"
         inkscape:connector-curvature="0"
         id="path5091-2-4-0-72-7"
         d="m 207.43839,141.19096 c -3.81426,-5.48583 -3.2863,-12.81091 -2.65589,-15.53353 -6.19004,6.29414 -3.23059,-25.28277 13.98301,-25.35138 7.78548,-7.598733 34.91361,-10.578131 45.81176,14.50819 7.14971,16.45785 5.30863,24.67366 -0.3572,31.01532"
         style="fill:#ffd5d5;stroke:none;display:inline" />
      <path
         sodipodi:nodetypes="csc"
         inkscape:connector-curvature="0"
         id="path6361"
         d="m 211.21601,109.85664 c 10.17409,-21.294406 42.46651,-20.134512 53.36466,4.9518 7.14972,16.45786 5.30864,24.67367 -0.35719,31.01533"
         style="fill:none;stroke:#000000;stroke-width:2;stroke-linecap:butt;stroke-linejoin:miter;stroke-opacity:1;display:inline" />
      <path
         sodipodi:nodetypes="cc"
         inkscape:connector-curvature="0"
         id="path5091-2-4-0-72"
         d="m 218.76977,100.30271 c -17.21446,0.0662 -20.1739,31.64307 -13.98459,25.34583"
         style="fill:none;stroke:#000000;stroke-width:2;stroke-linecap:butt;stroke-linejoin:miter;stroke-opacity:1;display:inline" />
      <path
         inkscape:connector-curvature="0"
         id="path5095-5-3-4-0"
         d="m 225.24722,117.90627 c 0.67993,1.14777 1.25476,3.25887 1.70919,4.59196"
         style="fill:none;stroke:#000000;stroke-width:2;stroke-linecap:butt;stroke-linejoin:miter;stroke-opacity:1;display:inline" />
      <path
         inkscape:connector-curvature="0"
         id="path5097-5-2-8-16"
         d="m 240.59469,118.99035 c -0.90359,1.21844 -2.93902,3.86319 -3.37743,5.3228"
         style="fill:none;stroke:#000000;stroke-width:2;stroke-linecap:butt;stroke-linejoin:miter;stroke-opacity:1;display:inline" />
      <path
         sodipodi:nodetypes="csc"
         inkscape:connector-curvature="0"
         id="path5099-1-2-8-5"
         d="m 254.7809,102.52938 c 14.75959,0.97336 18.84379,26.3859 12.22484,30.24287 -3.76428,2.1935 -4.61683,-11.97384 -9.91783,-14.96347"
         style="fill:#ffd5d5;stroke:#000000;stroke-width:2;stroke-linecap:butt;stroke-linejoin:miter;stroke-opacity:1;display:inline" />
      <path
         sodipodi:nodetypes="ssssss"
         inkscape:connector-curvature="0"
         id="path5101-7-1-2-7"
         d="m 231.72947,123.22121 c 4.14852,0.43663 8.65515,3.82128 11.19989,7.82731 3.33871,5.25592 0.28384,8.87945 -3.25226,8.17327 -4.49369,-0.89742 -13.13149,-1.6683 -16.07575,-1.01498 -3.21681,0.71381 -7.50618,-3.72179 -3.20809,-9.04009 2.84388,-3.51892 6.91536,-6.41078 11.33621,-5.94551 z"
         style="fill:#ffaaaa;stroke:#000000;stroke-width:2;stroke-linecap:butt;stroke-linejoin:miter;stroke-opacity:1;display:inline" />
      <path
         sodipodi:nodetypes="sss"
         inkscape:connector-curvature="0"
         id="path5105-1-6-4-5"
         d="m 235.98195,136.14277 c -1.1679,0.52317 -2.70449,-7.82416 -1.79976,-8.16126 1.08969,-0.40602 3.52215,7.3897 1.79976,8.16126 z"
         style="fill:#000000;stroke:#000000;stroke-width:2;display:inline" />
      <path
         sodipodi:nodetypes="sss"
         inkscape:connector-curvature="0"
         id="path5107-1-8-55-4"
         d="m 228.25674,127.73254 c 0.77033,0.0405 -0.91304,7.2488 -2.25791,7.19929 -1.84061,-0.0678 1.14255,-7.2579 2.25791,-7.19929 z"
         style="fill:#000000;stroke:#000000;stroke-width:2;display:inline" />
      <path
         sodipodi:nodetypes="cc"
         inkscape:connector-curvature="0"
         id="path5093-4-2-9-6"
         d="m 207.29795,117.94291 c -4.14991,5.54712 -3.92175,18.13344 0.14385,23.24226"
         style="fill:none;stroke:#000000;stroke-width:2;stroke-linecap:butt;stroke-linejoin:miter;stroke-opacity:1;display:inline" />
    </g>
    <g
       id="g12565">
      <path
         sodipodi:nodetypes="csssc"
         inkscape:connector-curvature="0"
         id="path5109-2-7-7-20-2-2"
         d="m 204.81742,134.38155 c -6.86896,15.71084 4.08223,38.91984 8.39785,40.86793 0.96593,0.43599 2.89673,-2.12386 4.23608,-2.49848 1.46059,-0.40855 3.61444,1.75411 4.43714,1.3049 1.81299,-0.98989 -0.18641,-17.50166 0.2748,-21.53569"
         style="fill:#ffd5d5;stroke:none;display:inline" />
      <path
         sodipodi:nodetypes="ssccss"
         inkscape:connector-curvature="0"
         id="path5109-5-5-5-8-1-1"
         d="m 217.39343,172.6748 c 0.69288,-0.11072 3.50443,0.85413 4.37953,1.45197 1.41922,0.96959 0.74424,-4.57129 0.77404,-6.2812 -1.87783,-3.86423 -11.51836,-0.12782 -12.59348,3.80691 -1.26297,1.74483 2.47429,3.48418 3.29511,3.52688 1.11823,0.0582 3.40265,-2.38597 4.1448,-2.50456 z"
         style="fill:#ffaaaa;stroke:none;display:inline" />
      <path
         sodipodi:nodetypes="csssc"
         inkscape:connector-curvature="0"
         id="path5109-2-7-7-20-2"
         d="m 204.77307,134.30639 c -6.86897,15.71084 4.08222,38.91984 8.39785,40.86792 0.96592,0.436 2.89672,-2.12386 4.23607,-2.49848 1.46059,-0.40854 3.61444,1.75412 4.43715,1.30491 1.81299,-0.98989 -0.18642,-17.50166 0.27479,-21.53569"
         style="fill:none;stroke:#000000;stroke-width:2;stroke-linecap:butt;stroke-linejoin:miter;stroke-opacity:1;display:inline" />
      <path
         sodipodi:nodetypes="cc"
         inkscape:connector-curvature="0"
         id="path5111-7-6-1-0-5"
         d="m 209.99424,171.82463 c -0.39917,-4.92257 10.94598,-8.77538 12.60964,-3.995"
         style="fill:none;stroke:#000000;stroke-width:2;stroke-linecap:butt;stroke-linejoin:miter;stroke-opacity:1;display:inline" />
    </g>
    <g
       id="g12649">
      <path
         style="fill:#ffd5d5;stroke:none;display:inline"
         d="m 151.58626,203.12205 c 14.42494,1.20032 26.18485,-0.78528 37.45528,-2.8044 l 12.15921,-5.47663 c 12.02686,-4.5948 12.21751,-19.5359 8.93445,-36.93447 l -5.11466,-16.69078 -79.93954,-9.46486 z"
         id="path4439-7-3"
         inkscape:connector-curvature="0"
         sodipodi:nodetypes="ccccccc" />
      <path
         sodipodi:nodetypes="csc"
         inkscape:connector-curvature="0"
         id="path3911-7"
         d="m 125.38009,128.77628 c -15.27041,28.02876 -0.11017,82.64897 11.59072,83.54 9.37518,0.71393 14.12592,-8.20255 17.82302,-12.83663"
         style="fill:#ffd5d5;stroke:#000000;stroke-width:2;stroke-linecap:butt;stroke-linejoin:miter;stroke-opacity:1;display:inline" />
      <path
         style="fill:#ffd5d5;stroke:#000000;stroke-width:2;stroke-linecap:butt;stroke-linejoin:miter;stroke-opacity:1;display:inline"
         d="m 180.90459,202.22521 c 23.80915,9.52802 41.66371,0.51061 29.35261,-15.1572"
         id="path4441-7"
         inkscape:connector-curvature="0"
         sodipodi:nodetypes="cc" />
      <path
         inkscape:connector-curvature="0"
         id="path3570-8"
         d="m 201.42476,195.14384 c 12.02686,-4.5948 12.21751,-19.5359 8.93445,-36.93447"
         style="fill:none;stroke:#000000;stroke-width:2;stroke-linecap:butt;stroke-linejoin:miter;stroke-opacity:1;display:inline" />
      <path
         style="fill:none;stroke:#000000;stroke-width:2;stroke-linecap:butt;stroke-linejoin:miter;stroke-opacity:1;display:inline"
         d="m 151.81027,203.42487 c 14.42494,1.20032 26.18485,-0.78528 37.45528,-2.8044"
         id="path4439-7"
         inkscape:connector-curvature="0"
         sodipodi:nodetypes="cc" />
    </g>
    <g
       id="g12609">
      <path
         sodipodi:nodetypes="ccccccc"
         inkscape:connector-curvature="0"
         id="path4439-6"
         d="m 54.978407,221.96276 c 14.424931,1.20032 28.672998,-1.09631 42.60932,-2.2268 l 16.533773,-6.84302 c 15.58339,-9.82883 10.6596,-29.38773 5.71213,-42.61174 l 1.73585,-12.33502 -98.950416,-19.86653 z"
         style="fill:#ffd5d5;stroke:none" />
      <path
         sodipodi:nodetypes="cssc"
         inkscape:connector-curvature="0"
         id="path3911"
         d="m 22.393361,133.93196 c -15.2580898,24.30727 -13.1898566,57.66762 -4.110629,76.08565 5.199975,10.54863 17.155762,24.51229 29.025581,22.70965 5.653476,-0.85859 8.805979,-12.10609 9.016653,-16.75403"
         style="fill:#ffd5d5;stroke:#000000;stroke-width:2;stroke-linecap:butt;stroke-linejoin:miter;stroke-opacity:1;display:inline" />
      <path
         sodipodi:nodetypes="cc"
         inkscape:connector-curvature="0"
         id="path4441"
         d="m 90.872079,220.11121 c 22.920521,11.30528 44.596191,7.44191 30.507821,-14.26857"
         style="fill:#ffd5d5;stroke:#000000;stroke-width:2;stroke-linecap:butt;stroke-linejoin:miter;stroke-opacity:1" />
      <path
         sodipodi:nodetypes="csssccc"
         inkscape:connector-curvature="0"
         id="path5109-2-7-9-1"
         d="m 124.43153,188.60198 c 4.87277,1.0831 11.04714,1.36806 13.97553,-0.20497 2.46831,-1.32589 0.55834,-3.65061 1.71825,-5.61377 0.75785,-1.28267 2.54974,-2.10192 3.31342,-4.18299 2.0439,-5.5696 -11.71261,-21.0001 -21.37789,-26.30768 l -11.84185,14.12652 z"
         style="fill:#ffd5d5;stroke:none;display:inline" />
      <path
         sodipodi:nodetypes="cc"
         inkscape:connector-curvature="0"
         id="path4439"
         d="m 55.290774,221.97734 c 14.424931,1.20032 28.672998,-1.09631 42.60932,-2.2268"
         style="fill:none;stroke:#000000;stroke-width:2;stroke-linecap:butt;stroke-linejoin:miter;stroke-opacity:1" />
      <path
         sodipodi:nodetypes="cc"
         inkscape:connector-curvature="0"
         id="path3570"
         d="m 114.43387,212.90752 c 15.58339,-9.82883 10.6596,-29.38773 5.71213,-42.61174"
         style="fill:none;stroke:#000000;stroke-width:2;stroke-linecap:butt;stroke-linejoin:miter;stroke-opacity:1;display:inline" />
    </g>
    <g
       id="g12583">
      <path
         sodipodi:nodetypes="cccccccccccsscc"
         inkscape:connector-curvature="0"
         id="path4427-0"
         d="m 76.929964,190.51587 c 19.56762,13.42514 51.474556,9.42073 54.863986,-1.11687 l 10.67995,-11.97918 c 6.66631,5.13985 14.53076,5.78133 15.39876,0.46897 l 17.93573,0.7783 c 23.17975,8.99705 38.36956,3.16884 39.71204,-6.03221 l 6.95697,-7.10861 c 6.70593,4.9563 20.34161,4.10132 22.61657,-0.43733 l 11.72979,3.17878 c -0.44308,4.33464 2.93531,13.42612 8.94019,19.14476 l 8.48396,4.23406 c 45.07817,12.82484 87.43251,24.04162 85.27002,56.46239 -2.01777,30.25125 -74.54904,68.98569 -174.56257,58.82918 C 115.2486,299.85929 51.526118,259.45075 45.957937,189.56144 z"
         style="opacity:0.1;fill:#008080;stroke:none;display:inline" />
      <path
         sodipodi:nodetypes="cssssscssc"
         inkscape:connector-curvature="0"
         id="path7196-2"
         d="m 330.48075,210.37395 c -2.66531,6.21905 -15.10139,8.69186 -30.03566,8.64896 -11.78582,-0.0339 -31.75583,8.84368 -59.11474,9.45775 -8.42688,0.18914 -17.46671,-6.07642 -27.80101,-2.55604 -12.37095,4.21416 -15.7418,8.58687 -27.37745,8.55327 -14.79733,-0.0427 -31.49922,6.56085 -42.27837,10.75269 -24.19863,9.41047 -52.388325,16.0749 -65.407721,16.32836 0,0 34.871481,37.58608 104.578251,44.6649 100.01353,10.15651 173.85343,-28.51901 174.56257,-58.82918 0.60835,-26.00189 -22.15264,-34.37805 -27.12587,-37.02071 z"
         style="fill:#c87137;stroke:none;display:inline" />
      <path
         sodipodi:nodetypes="cssc"
         inkscape:connector-curvature="0"
         id="path5544"
         d="m 44.826119,189.39303 c 5.568181,69.88931 69.290661,110.29785 138.997431,117.37667 100.01353,10.15651 172.5448,-28.57793 174.56257,-58.82918 2.16249,-32.42077 -40.19185,-43.63755 -85.27002,-56.46239"
         style="fill:none;stroke:#000000;stroke-width:2;stroke-linecap:butt;stroke-linejoin:miter;stroke-opacity:1;display:inline" />
      <path
         sodipodi:nodetypes="cc"
         inkscape:connector-curvature="0"
         id="path4417"
         d="M 81.931394,225.49963 57.922224,194.20918"
         style="fill:none;stroke:#000000;stroke-width:2;stroke-linecap:butt;stroke-linejoin:miter;stroke-opacity:1;display:inline" />
      <path
         sodipodi:nodetypes="cc"
         inkscape:connector-curvature="0"
         id="path4419"
         d="M 123.65415,236.55867 64.396193,193.26692"
         style="fill:none;stroke:#000000;stroke-width:2;stroke-linecap:butt;stroke-linejoin:miter;stroke-opacity:1;display:inline" />
      <path
         inkscape:connector-curvature="0"
         id="path4421"
         d="m 136.72394,188.80369 17.09126,29.65836"
         style="fill:none;stroke:#000000;stroke-width:2;stroke-linecap:butt;stroke-linejoin:miter;stroke-opacity:1;display:inline" />
      <path
         inkscape:connector-curvature="0"
         id="path4423"
         d="m 146.27494,191.31711 36.69593,30.66373"
         style="fill:none;stroke:#000000;stroke-width:2;stroke-linecap:butt;stroke-linejoin:miter;stroke-opacity:1;display:inline" />
      <path
         sodipodi:nodetypes="cc"
         inkscape:connector-curvature="0"
         id="path4425"
         d="m 140.12151,181.42249 64.82022,31.24083"
         style="fill:none;stroke:#000000;stroke-width:2;stroke-linecap:butt;stroke-linejoin:miter;stroke-opacity:1;display:inline" />
      <path
         sodipodi:nodetypes="cc"
         inkscape:connector-curvature="0"
         id="path4427"
         d="m 75.798146,190.34746 c 19.56762,13.42514 51.474554,9.42073 54.863984,-1.11687"
         style="fill:none;stroke:#000000;stroke-width:2;stroke-linecap:butt;stroke-linejoin:miter;stroke-opacity:1;display:inline" />
      <path
         sodipodi:nodetypes="cc"
         inkscape:connector-curvature="0"
         id="path4429"
         d="m 174.67658,178.49868 c 23.17975,8.99705 38.36956,3.16884 39.71204,-6.03221"
         style="fill:none;stroke:#000000;stroke-width:2;stroke-linecap:butt;stroke-linejoin:miter;stroke-opacity:1;display:inline" />
      <path
         sodipodi:nodetypes="cc"
         inkscape:connector-curvature="0"
         id="path4431"
         d="M 285.80561,197.49151 232.80024,171.82018"
         style="fill:none;stroke:#000000;stroke-width:2;stroke-linecap:butt;stroke-linejoin:miter;stroke-opacity:1;display:inline" />
      <path
         inkscape:connector-curvature="0"
         id="path4433"
         d="M 274.74349,208.43165 238.84292,178.2183"
         style="fill:none;stroke:#000000;stroke-width:2;stroke-linecap:butt;stroke-linejoin:miter;stroke-opacity:1;display:inline" />
      <path
         inkscape:connector-curvature="0"
         id="path4435"
         d="M 263.36906,210.2089 228.89028,173.59743"
         style="fill:none;stroke:#000000;stroke-width:2;stroke-linecap:butt;stroke-linejoin:miter;stroke-opacity:1;display:inline" />
      <path
         sodipodi:nodetypes="csssssc"
         inkscape:connector-curvature="0"
         id="path7196"
         d="m 79.245302,262.1048 c 13.019396,-0.25346 41.209088,-6.91789 65.407718,-16.32836 10.77915,-4.19184 27.48104,-10.79537 42.27837,-10.75269 11.63565,0.0336 15.0065,-4.33911 27.37745,-8.55327 10.3343,-3.52038 19.37413,2.74518 27.80101,2.55604 27.35891,-0.61407 47.32892,-9.49167 59.11474,-9.45775 14.93427,0.0429 27.37035,-2.42991 30.03566,-8.64896"
         style="fill:none;stroke:#000000;stroke-width:2;stroke-linecap:butt;stroke-linejoin:miter;stroke-opacity:1;display:inline" />
      <path
         sodipodi:nodetypes="cc"
         inkscape:connector-curvature="0"
         id="path4425-3"
         d="m 141.34208,177.25141 c 6.66631,5.13985 14.53076,5.78133 15.39876,0.46897"
         style="fill:none;stroke:#000000;stroke-width:2;stroke-linecap:butt;stroke-linejoin:miter;stroke-opacity:1;display:inline" />
      <path
         sodipodi:nodetypes="cc"
         inkscape:connector-curvature="0"
         id="path4429-3"
         d="m 221.34559,165.35786 c 6.70593,4.9563 20.34161,4.10132 22.61657,-0.43733"
         style="fill:none;stroke:#000000;stroke-width:2;stroke-linecap:butt;stroke-linejoin:miter;stroke-opacity:1;display:inline" />
      <path
         sodipodi:nodetypes="cc"
         inkscape:connector-curvature="0"
         id="path4429-3-7"
         d="m 255.69195,168.09931 c -0.44308,4.33464 2.93531,13.42612 8.94019,19.14476"
         style="fill:none;stroke:#000000;stroke-width:2;stroke-linecap:butt;stroke-linejoin:miter;stroke-opacity:1;display:inline" />
      <path
         sodipodi:nodetypes="cc"
         inkscape:connector-curvature="0"
         id="path12208"
         d="m 124.64156,266.53779 c 4.8205,-3.08713 9.12632,-7.86246 17.09547,-0.62166"
         style="fill:none;stroke:#000000;stroke-width:2;stroke-linecap:butt;stroke-linejoin:miter;stroke-opacity:1" />
      <path
         sodipodi:nodetypes="cc"
         inkscape:connector-curvature="0"
         id="path12208-8"
         d="m 189.75978,253.20826 c 4.8205,-3.08713 9.12632,-7.86246 17.09547,-0.62166"
         style="fill:none;stroke:#000000;stroke-width:2;stroke-linecap:butt;stroke-linejoin:miter;stroke-opacity:1" />
      <path
         sodipodi:nodetypes="cc"
         inkscape:connector-curvature="0"
         id="path12208-9"
         d="m 251.92515,261.9114 c 4.8205,-3.08713 9.12632,-7.86246 17.09547,-0.62166"
         style="fill:none;stroke:#000000;stroke-width:2;stroke-linecap:butt;stroke-linejoin:miter;stroke-opacity:1" />
      <path
         sodipodi:nodetypes="cc"
         inkscape:connector-curvature="0"
         id="path12208-0"
         d="m 282.38618,278.0744 c 4.8205,-3.08713 9.12632,-7.86246 17.09547,-0.62166"
         style="fill:none;stroke:#000000;stroke-width:2;stroke-linecap:butt;stroke-linejoin:miter;stroke-opacity:1" />
      <path
         sodipodi:nodetypes="cc"
         inkscape:connector-curvature="0"
         id="path12208-7"
         d="m 319.06374,237.04526 c 4.8205,-3.08713 9.12632,-7.86246 17.09547,-0.62166"
         style="fill:none;stroke:#000000;stroke-width:2;stroke-linecap:butt;stroke-linejoin:miter;stroke-opacity:1" />
      <path
         sodipodi:nodetypes="cc"
         inkscape:connector-curvature="0"
         id="path12208-81"
         d="m 194.11135,291.75078 c 4.8205,-3.08713 9.12632,-7.86246 17.09547,-0.62166"
         style="fill:none;stroke:#000000;stroke-width:2;stroke-linecap:butt;stroke-linejoin:miter;stroke-opacity:1" />
      <path
         sodipodi:nodetypes="cc"
         inkscape:connector-curvature="0"
         id="path12208-5"
         d="m 260.00664,251.34329 c 4.8205,-3.08713 9.12632,-7.86246 17.09547,-0.62166"
         style="fill:none;stroke:#000000;stroke-width:2;stroke-linecap:butt;stroke-linejoin:miter;stroke-opacity:1" />
    </g>
    <g
       id="g12419">
      <path
         sodipodi:nodetypes="csssc"
         inkscape:connector-curvature="0"
         id="path5109-2-7-7-20-25"
         d="m 268.34776,147.54688 c -0.8357,15.06227 -12.71307,31.47747 -17.44661,31.59254 -1.05946,0.0257 -3.24739,-1.86607 -4.1564,-1.96004 -1.37275,-0.14189 -3.57468,1.05343 -4.47174,0.78154 -1.81803,-0.55104 -2.75153,-18.81118 -1.60653,-22.7067"
         style="fill:#ffd5d5;stroke:none;display:inline" />
      <path
         sodipodi:nodetypes="ssccss"
         inkscape:connector-curvature="0"
         id="path5109-5-5-5-1-1"
         d="m 246.64597,177.08398 c 0.61554,-0.0347 3.1968,1.93234 4.25592,1.97086 0.82231,0.03 1.65972,-0.58762 2.43984,-1.16796 2.01108,-4.23926 -8.35936,-9.39407 -12.68841,-5.998 -0.13542,2.1497 0.96785,5.10704 1.69083,5.96206 0.72302,0.85504 3.50854,-0.72231 4.30182,-0.76696 z"
         style="fill:#ffaaaa;stroke:none;display:inline" />
      <path
         sodipodi:nodetypes="csssc"
         inkscape:connector-curvature="0"
         id="path5109-2-7-7-20"
         d="m 268.3112,147.39413 c -0.8357,15.06227 -12.71307,31.47747 -17.44661,31.59254 -1.05946,0.0257 -3.24739,-1.86607 -4.1564,-1.96004 -1.37275,-0.14189 -3.57468,1.05343 -4.47174,0.78154 -1.81803,-0.55104 -2.75153,-18.81118 -1.60653,-22.7067"
         style="fill:none;stroke:#000000;stroke-width:2;stroke-linecap:butt;stroke-linejoin:miter;stroke-opacity:1;display:inline" />
      <path
         sodipodi:nodetypes="cc"
         inkscape:connector-curvature="0"
         id="path5111-7-6-1-0"
         d="m 253.3265,177.81673 c 2.28335,-4.3792 -9.15598,-9.44511 -12.54881,-5.68897"
         style="fill:none;stroke:#000000;stroke-width:2;stroke-linecap:butt;stroke-linejoin:miter;stroke-opacity:1;display:inline" />
    </g>
    <g
       id="g12462">
      <path
         sodipodi:nodetypes="cc"
         inkscape:connector-curvature="0"
         id="path5091-2-4"
         d="m 99.160042,93.697797 c 14.328878,1.269106 24.837518,18.483133 22.898248,35.817733"
         style="fill:#ffd5d5;stroke:#000000;stroke-width:2;stroke-linecap:butt;stroke-linejoin:miter;stroke-opacity:1;display:inline" />
      <path
         sodipodi:nodetypes="cccscc"
         inkscape:connector-curvature="0"
         id="path5093-4-2-6"
         d="m 115.8156,162.53902 c 12.62706,-14.07199 8.12981,-31.45277 2.93822,-39.53625 L 113.04284,108.8316 C 97.768668,81.730392 57.185978,74.779432 34.272048,104.79096 23.012145,119.53858 19.768215,133.38732 23.721,139.76232 z"
         style="fill:#ffd5d5;stroke:none;display:inline" />
      <path
         sodipodi:nodetypes="csc"
         inkscape:connector-curvature="0"
         id="path3536"
         d="M 113.27277,109.04866 C 97.9986,81.947446 57.415911,74.996482 34.501984,105.00802 23.242082,119.75564 19.998152,133.60438 23.950937,139.97938"
         style="fill:none;stroke:#000000;stroke-width:2;stroke-linecap:butt;stroke-linejoin:miter;stroke-opacity:1;display:inline" />
      <path
         sodipodi:nodetypes="cc"
         inkscape:connector-curvature="0"
         id="path5093-4-2"
         d="m 118.98375,123.21983 c 5.19159,8.08348 9.68884,25.46426 -2.93822,39.53625"
         style="fill:none;stroke:#000000;stroke-width:2;stroke-linecap:butt;stroke-linejoin:miter;stroke-opacity:1;display:inline" />
      <path
         sodipodi:nodetypes="cc"
         inkscape:connector-curvature="0"
         id="path5095-5-3"
         d="m 104.43949,127.46371 c -1.03435,1.74605 -1.38017,3.43649 -2.07148,5.46444"
         style="fill:none;stroke:#000000;stroke-width:2;stroke-linecap:butt;stroke-linejoin:miter;stroke-opacity:1;display:inline" />
      <path
         sodipodi:nodetypes="cc"
         inkscape:connector-curvature="0"
         id="path5097-5-2"
         d="m 85.321391,129.35124 c 1.751613,2.23053 2.776746,2.83427 4.449045,5.55739"
         style="fill:none;stroke:#000000;stroke-width:2;stroke-linecap:butt;stroke-linejoin:miter;stroke-opacity:1;display:inline" />
      <path
         inkscape:connector-curvature="0"
         id="path5099-1-2"
         d="m 53.457385,92.766665 c -13.749886,0.831057 -20.441647,7.778675 -23.612477,15.268815 -5.13153,12.12161 -1.4159,28.15899 6.738691,30.80331 6.304492,2.04434 12.993397,-10.25433 21.057505,-14.80226"
         style="fill:#ffd5d5;stroke:#000000;stroke-width:2;stroke-linecap:butt;stroke-linejoin:miter;stroke-opacity:1;display:inline" />
      <path
         sodipodi:nodetypes="ssssss"
         inkscape:connector-curvature="0"
         id="path5101-7-1"
         d="m 99.979799,135.2001 c -5.483992,-0.064 -12.918649,3.54419 -18.828363,10.24751 -7.177866,8.14177 -4.397933,15.5248 2.781964,13.96178 6.811439,-1.48275 16.83934,-3.24415 21.31827,-2.25029 4.89355,1.08588 8.69928,-4.51459 7.61841,-10.07644 -1.31584,-6.77081 -7.51595,-11.8198 -12.890281,-11.88256 z"
         style="fill:#ffaaaa;stroke:#000000;stroke-width:2;stroke-linecap:butt;stroke-linejoin:miter;stroke-opacity:1;display:inline" />
      <path
         sodipodi:nodetypes="sss"
         inkscape:connector-curvature="0"
         id="path5105-1-6"
         d="m 89.177802,153.08834 c 1.776677,0.79587 6.874124,-9.61376 5.497805,-10.12657 -1.657661,-0.61764 -8.117975,8.95284 -5.497805,10.12657 z"
         style="fill:#000000;stroke:#000000;stroke-width:2;display:inline" />
      <path
         sodipodi:nodetypes="sss"
         inkscape:connector-curvature="0"
         id="path5107-1-8"
         d="m 103.18507,142.4032 c -1.17187,0.0616 -3.0448,10.71138 -0.99894,10.63608 2.80001,-0.10305 2.69566,-10.72525 0.99894,-10.63608 z"
         style="fill:#000000;stroke:#000000;stroke-width:2;display:inline" />
    </g>
    <g
       id="g12576">
      <path
         sodipodi:nodetypes="ssccss"
         inkscape:connector-curvature="0"
         id="path5109-5-5-5-8"
         d="m 139.92641,183.48024 c -0.27675,0.89613 0.0605,4.41934 -1.27063,5.32881 -2.15899,1.47497 -4.79344,1.57698 -7.23825,1.00352 -6.03156,-3.8169 0.62056,-21.7826 8.90808,-20.5784 1.92128,2.65431 3.5481,8.01829 3.31328,9.70542 -0.23481,1.68714 -3.37512,3.44826 -3.71248,4.54065 z"
         style="fill:#ffaaaa;stroke:none;display:inline" />
      <path
         sodipodi:nodetypes="sssss"
         inkscape:connector-curvature="0"
         id="path5111-7-6-0-3-4"
         d="m 138.7519,188.61479 c -2.63526,2.1997 -3.4514,-2.42529 -2.33916,-5.88522 0.90073,-2.80195 7.39842,-8.17479 7.13922,-3.81865 -0.11985,2.01417 -3.15547,2.60093 -3.81572,4.66885 -0.79046,2.4757 0.49762,3.798 -0.98434,5.03502 z"
         style="fill:#ff8080;stroke:none;display:inline" />
      <path
         sodipodi:nodetypes="csssc"
         inkscape:connector-curvature="0"
         id="path5109-2-7-9"
         d="m 124.60937,188.86534 c 4.87277,1.0831 11.04714,1.36806 13.97553,-0.20497 2.46831,-1.32589 0.55834,-3.65061 1.71825,-5.61377 0.75785,-1.28267 2.54974,-2.10192 3.31342,-4.18299 2.0439,-5.5696 -11.71261,-21.0001 -21.37789,-26.30768"
         style="fill:none;stroke:#000000;stroke-width:2;stroke-linecap:butt;stroke-linejoin:miter;stroke-opacity:1;display:inline" />
      <path
         sodipodi:nodetypes="cc"
         inkscape:connector-curvature="0"
         id="path5111-7-6-0"
         d="m 131.9599,189.75212 c -6.81132,0.25283 0.48861,-25.28658 8.23945,-20.53293"
         style="fill:none;stroke:#000000;stroke-width:2;stroke-linecap:butt;stroke-linejoin:miter;stroke-opacity:1;display:inline" />
      <path
         sodipodi:nodetypes="csc"
         inkscape:connector-curvature="0"
         id="path5111-7-6-0-3"
         d="m 138.87495,188.47931 c -3.18705,1.27513 -3.4514,-2.42529 -2.33916,-5.88523 0.90073,-2.80195 5.23661,-7.74589 7.13922,-3.81865"
         style="fill:none;stroke:#000000;stroke-width:2;stroke-linecap:butt;stroke-linejoin:miter;stroke-opacity:1;display:inline" />
    </g>
    <g
       id="g12492">
      <path
         sodipodi:nodetypes="csssc"
         inkscape:connector-curvature="0"
         id="path5109-2-7-2-6"
         d="m 147.11335,176.35731 c 5.59517,6.51005 15.59178,10.84737 22.2523,10.80156 1.37981,-0.009 1.7152,-2.29068 2.12551,-2.9806 0.5002,-0.84106 2.77823,-0.96877 3.05397,-2.15767 1.47487,-6.35893 -1.88926,-19.20725 -4.92868,-23.53284"
         style="fill:#ffd5d5;stroke:none;display:inline" />
      <path
         sodipodi:nodetypes="ssccss"
         inkscape:connector-curvature="0"
         id="path5109-5-5-5-86"
         d="m 171.48489,184.15486 c -0.41033,0.68993 -0.83569,2.51373 -2.126,3.00287 -2.09261,0.7933 -3.81789,0.1847 -5.7367,-0.78367 -4.25108,-4.38766 4.37564,-13.33017 11.13297,-10.95067 1.06506,2.59441 0.42233,5.22921 -0.11207,6.58568 -0.53439,1.35647 -2.65801,1.30474 -3.1582,2.14579 z"
         style="fill:#ffaaaa;stroke:none;display:inline" />
      <path
         sodipodi:nodetypes="csssc"
         inkscape:connector-curvature="0"
         id="path5109-2-7-2"
         d="m 147.1326,176.35796 c 5.59517,6.51005 15.59178,10.84737 22.2523,10.80156 1.37981,-0.009 1.7152,-2.29068 2.12551,-2.9806 0.5002,-0.84106 2.77823,-0.96877 3.05397,-2.15767 1.47487,-6.35893 -1.88926,-19.20725 -4.92868,-23.53284"
         style="fill:none;stroke:#000000;stroke-width:2;stroke-linecap:butt;stroke-linejoin:miter;stroke-opacity:1;display:inline" />
      <path
         sodipodi:nodetypes="cc"
         inkscape:connector-curvature="0"
         id="path5111-7-6-6"
         d="m 163.7107,186.33006 c -4.06768,-2.35821 6.98891,-15.13563 11.05371,-10.98794"
         style="fill:none;stroke:#000000;stroke-width:2;stroke-linecap:butt;stroke-linejoin:miter;stroke-opacity:1;display:inline" />
    </g>
    <g
       id="g12395">
      <path
         sodipodi:nodetypes="csssc"
         inkscape:connector-curvature="0"
         id="path5109-2-7-24"
         d="m 43.916875,188.99061 c 7.611743,6.53054 23.119214,11.24499 30.444125,7.65838 1.44216,-0.70617 -0.009,-5.09104 1.27997,-7.26276 0.8328,-1.40315 5.05149,-2.69356 5.15999,-4.11536 0.58037,-7.60459 -13.118078,-21.8042 -17.39231,-26.26319"
         style="fill:#ffd5d5;stroke:none;display:inline" />
      <path
         sodipodi:nodetypes="ssccss"
         inkscape:connector-curvature="0"
         id="path5109-5-5-5"
         d="m 75.555959,189.55363 c -0.35206,0.8693 0.124817,6.47664 -1.279019,7.26944 -2.276747,1.28575 -6.699874,1.806 -9.086969,1.02643 -5.684603,-4.31669 4.213799,-22.685 12.438283,-21.13021 1.688274,2.80828 3.469747,7.06202 3.09211,8.72302 -0.377626,1.66102 -4.735253,3.05163 -5.164405,4.11132 z"
         style="fill:#ffaaaa;stroke:none;display:inline" />
      <path
         sodipodi:nodetypes="csssc"
         inkscape:connector-curvature="0"
         id="path5109-2-7"
         d="m 43.820218,189.15845 c 7.611743,6.53054 23.119214,11.24499 30.444125,7.65838 1.44216,-0.70617 -0.009,-5.09104 1.279974,-7.26276 0.832797,-1.40315 5.051482,-2.69356 5.159991,-4.11536 0.580369,-7.60459 -13.118083,-21.8042 -17.392315,-26.26319"
         style="fill:none;stroke:#000000;stroke-width:2;stroke-linecap:butt;stroke-linejoin:miter;stroke-opacity:1;display:inline" />
      <path
         sodipodi:nodetypes="cc"
         inkscape:connector-curvature="0"
         id="path5111-7-6"
         d="m 65.165088,197.88835 c -6.717046,-3.63064 5.536753,-26.45634 12.4658,-21.13283"
         style="fill:none;stroke:#000000;stroke-width:2;stroke-linecap:butt;stroke-linejoin:miter;stroke-opacity:1;display:inline" />
    </g>
    <g
       id="g12521">
      <path
         sodipodi:nodetypes="csccc"
         inkscape:connector-curvature="0"
         id="path3536-1-7"
         d="m 127.14405,133.82301 c -3.82844,-5.15373 -0.79806,-14.43309 7.74777,-27.81871 17.39099,-27.239817 46.10137,-18.718468 52.39838,-14.532186 11.8374,-0.630918 21.18399,12.720696 21.14581,25.878666 1.61013,2.61995 9.41701,16.53794 -0.74607,28.50773"
         style="fill:#ffd5d5;stroke:none;display:inline" />
      <path
         sodipodi:nodetypes="csc"
         inkscape:connector-curvature="0"
         id="path3536-1"
         d="m 199.68976,101.47942 c -14.21667,-17.997629 -47.40884,-22.715561 -64.79978,4.52425 -8.54592,13.38563 -11.57624,22.66498 -7.74778,27.81872"
         style="fill:none;stroke:#000000;stroke-width:2;stroke-linecap:butt;stroke-linejoin:miter;stroke-opacity:1;display:inline" />
      <path
         sodipodi:nodetypes="cc"
         inkscape:connector-curvature="0"
         id="path5091-2-4-5"
         d="M 187.47396,91.416186 C 199.31377,90.7728 208.59732,103.5671 208.56342,116.73135"
         style="fill:none;stroke:#000000;stroke-width:2;stroke-linecap:butt;stroke-linejoin:miter;stroke-opacity:1;display:inline" />
      <path
         inkscape:connector-curvature="0"
         id="path5093-4-2-8"
         d="m 204.95571,112.3026 c 6.2577,6.52203 11.64525,20.33532 2.73234,33.55527"
         style="fill:none;stroke:#000000;stroke-width:2;stroke-linecap:butt;stroke-linejoin:miter;stroke-opacity:1;display:inline"
         sodipodi:nodetypes="cc" />
      <path
         inkscape:connector-curvature="0"
         id="path5095-5-3-6"
         d="m 194.42618,116.26925 c -0.75698,1.56336 -0.84059,4.10177 -1.28477,5.88096"
         style="fill:none;stroke:#000000;stroke-width:2;stroke-linecap:butt;stroke-linejoin:miter;stroke-opacity:1;display:inline" />
      <path
         sodipodi:nodetypes="cc"
         inkscape:connector-curvature="0"
         id="path5097-5-2-1"
         d="m 178.2198,118.82135 c 1.3053,1.48229 3.04416,3.90763 3.7722,5.75359"
         style="fill:none;stroke:#000000;stroke-width:2;stroke-linecap:butt;stroke-linejoin:miter;stroke-opacity:1;display:inline" />
      <path
         sodipodi:nodetypes="csc"
         inkscape:connector-curvature="0"
         id="path5099-1-2-2"
         d="m 150.17906,93.952448 c -22.70379,1.110399 -23.05133,35.552322 -12.34434,37.991232 5.53097,1.25988 11.352,-9.42629 17.90367,-13.88348"
         style="fill:#ffd5d5;stroke:#000000;stroke-width:2;stroke-linecap:butt;stroke-linejoin:miter;stroke-opacity:1;display:inline" />
      <path
         sodipodi:nodetypes="ssssss"
         inkscape:connector-curvature="0"
         id="path5101-7-1-4"
         d="m 191.63003,123.42753 c -4.68185,0.33867 -12.66622,4.16695 -17.07753,10.90761 -4.00545,6.12048 -1.84208,12.50023 4.16953,10.65228 5.7031,-1.7531 14.56022,-2.45329 18.45153,-1.92682 4.25154,0.57521 7.27354,-4.48039 5.95283,-9.14654 -1.60781,-5.68042 -6.90812,-10.81839 -11.49636,-10.48653 z"
         style="fill:#ffaaaa;stroke:#000000;stroke-width:2;stroke-linecap:butt;stroke-linejoin:miter;stroke-opacity:1;display:inline" />
      <path
         sodipodi:nodetypes="sss"
         inkscape:connector-curvature="0"
         id="path5105-1-6-2"
         d="m 183.2527,139.64918 c 1.57241,0.55139 5.12842,-9.22838 3.91779,-9.56706 -1.4581,-0.40791 -6.23667,8.75389 -3.91779,9.56706 z"
         style="fill:#000000;stroke:#000000;stroke-width:2;display:inline" />
      <path
         sodipodi:nodetypes="sss"
         inkscape:connector-curvature="0"
         id="path5107-1-8-5"
         d="m 194.344,129.86468 c -0.99507,0.13653 -1.89988,8.72538 -0.16038,8.51447 2.38071,-0.28867 1.6011,-8.71215 0.16038,-8.51447 z"
         style="fill:#000000;stroke:#000000;stroke-width:2;display:inline" />
    </g>
    <g
       id="g12443">
      <path
         sodipodi:nodetypes="csssc"
         inkscape:connector-curvature="0"
         id="path5109-2-7-9-3-8"
         d="m 201.51495,162.21483 c 6.57374,7.29675 11.06249,11.51942 16.32196,10.93294 1.37136,-0.1529 1.05224,-3.02973 2.18724,-4.23855 0.68544,-0.73002 3.51575,-0.92444 3.92849,-2.07302 2.20744,-6.14315 -3.423,-20.4367 -11.94702,-29.71965"
         style="fill:#ffd5d5;stroke:none;display:inline" />
      <path
         sodipodi:nodetypes="ssccss"
         inkscape:connector-curvature="0"
         id="path5109-5-5-5-8-5"
         d="m 220.22593,169.22569 c -0.48811,0.63728 -0.78534,3.9231 -2.12393,4.25817 -2.17098,0.54344 -4.17315,-0.31892 -5.96569,-1.5048 -3.70951,-4.85417 5.68351,-15.9767 12.11665,-12.82422 0.75473,2.70105 0.68434,6.69378 -0.005,7.97854 -0.68922,1.28475 -3.42712,1.31544 -4.02213,2.09231 z"
         style="fill:#ffaaaa;stroke:none;display:inline" />
      <path
         sodipodi:nodetypes="csssc"
         inkscape:connector-curvature="0"
         id="path5109-2-7-9-3"
         d="m 201.76478,162.49532 c 6.57374,7.29675 11.06249,11.51942 16.32196,10.93294 1.37136,-0.1529 1.05224,-3.02973 2.18724,-4.23855 0.68544,-0.73002 3.51575,-0.92444 3.92849,-2.07302 2.20744,-6.14315 -3.423,-20.4367 -11.94702,-29.71965"
         style="fill:none;stroke:#000000;stroke-width:2;stroke-linecap:butt;stroke-linejoin:miter;stroke-opacity:1;display:inline" />
      <path
         sodipodi:nodetypes="cc"
         inkscape:connector-curvature="0"
         id="path5111-7-6-0-9"
         d="m 212.10562,171.96762 c -4.0941,-4.95867 6.76294,-16.60164 12.10124,-12.73703"
         style="fill:none;stroke:#000000;stroke-width:2;stroke-linecap:butt;stroke-linejoin:miter;stroke-opacity:1;display:inline" />
    </g>
  </g>
  <g
     inkscape:groupmode="layer"
     id="layer13"
     inkscape:label="吹き出し"
     style="display:inline"
     sodipodi:insensitive="true">
    <g
       id="g12657">
      <path
         sodipodi:nodetypes="sscssss"
         inkscape:connector-curvature="0"
         id="path11956"
         d="m 286.49722,44.976671 c 0,17.989862 -52.89299,32.573527 -118.13981,32.573527 -10.3387,0 -33.26575,6.089567 -54.25177,11.555758 6.82704,-6.738385 8.43066,-14.010591 1.09143,-15.031944 C 76.65164,68.709886 50.217607,57.694427 50.217607,44.976671 c 0,-17.989863 52.892993,-32.573527 118.139803,-32.573527 65.24682,0 118.13981,14.583664 118.13981,32.573527 z"
         style="fill:#fefefe;fill-opacity:1;stroke:#000000;stroke-width:2" />
      <text
         sodipodi:linespacing="125%"
         id="text11959"
         y="58.892143"
         x="82.640198"
         style="font-size:40px;font-style:normal;font-weight:normal;line-height:125%;letter-spacing:0px;word-spacing:0px;writing-mode:lr-tb;fill:#000000;fill-opacity:1;stroke:none;font-family:Sans"
         xml:space="preserve"><tspan
           y="58.892143"
           x="82.640198"
           id="tspan11961"
           sodipodi:role="line">大収穫だ!</tspan></text>
    </g>
  </g>
  <g
     inkscape:groupmode="layer"
     id="layer2"
     inkscape:label="枠面"
     sodipodi:insensitive="true">
    <path
       style="fill:#ffffff;stroke:none;display:inline"
       d="m 0,0 0,320 370,0 0,-320 -10,10 0,300 -350,0 0,-300 350,0 10,-10 z"
       id="path21072"
       inkscape:connector-curvature="0"
       sodipodi:nodetypes="ccccccccccc" />
  </g>
</svg>
