<?xml version="1.0" encoding="UTF-8" standalone="no"?>
<!-- Created with Inkscape (http://www.inkscape.org/) -->

<svg
   xmlns:dc="http://purl.org/dc/elements/1.1/"
   xmlns:cc="http://creativecommons.org/ns#"
   xmlns:rdf="http://www.w3.org/1999/02/22-rdf-syntax-ns#"
   xmlns:svg="http://www.w3.org/2000/svg"
   xmlns="http://www.w3.org/2000/svg"
   xmlns:sodipodi="http://sodipodi.sourceforge.net/DTD/sodipodi-0.dtd"
   xmlns:inkscape="http://www.inkscape.org/namespaces/inkscape"
   width="370"
   height="320"
   id="svg3172"
   version="1.1"
   inkscape:version="0.48.4 r9939"
   sodipodi:docname="[11.謝礼].svg">
  <defs
     id="defs3174" />
  <sodipodi:namedview
     id="base"
     pagecolor="#ffffff"
     bordercolor="#666666"
     borderopacity="1.0"
     inkscape:pageopacity="0.0"
     inkscape:pageshadow="2"
     inkscape:zoom="1.5777382"
     inkscape:cx="166.41442"
     inkscape:cy="143.02801"
     inkscape:document-units="px"
     inkscape:current-layer="layer4"
     showgrid="false"
     inkscape:window-width="1245"
     inkscape:window-height="698"
     inkscape:window-x="-5"
     inkscape:window-y="-5"
     inkscape:window-maximized="0" />
  <metadata
     id="metadata3177">
    <rdf:RDF>
      <cc:Work
         rdf:about="">
        <dc:format>image/svg+xml</dc:format>
        <dc:type
           rdf:resource="http://purl.org/dc/dcmitype/StillImage" />
        <dc:title />
      </cc:Work>
    </rdf:RDF>
  </metadata>
  <g
     inkscape:label="補助線"
     inkscape:groupmode="layer"
     id="layer1"
     transform="translate(0,-732.36218)"
     sodipodi:insensitive="true"
     style="display:none">
    <path
       style="fill:none;stroke:#0000ff;stroke-width:1px;stroke-linecap:butt;stroke-linejoin:miter;stroke-opacity:1;display:inline"
       d="M 10,1042.3622 360,742.36211"
       id="path3025"
       inkscape:connector-curvature="0"
       sodipodi:nodetypes="cc" />
    <path
       style="fill:none;stroke:#0000ff;stroke-width:1px;stroke-linecap:butt;stroke-linejoin:miter;stroke-opacity:1;display:inline"
       d="M 10,742.36211 360,1042.3622"
       id="path3027"
       inkscape:connector-curvature="0"
       sodipodi:nodetypes="cc" />
    <path
       style="fill:none;stroke:#ff0000;stroke-width:1px;stroke-linecap:butt;stroke-linejoin:miter;stroke-opacity:1;display:inline"
       d="m 10,732.36211 0,320.00009"
       id="path3006"
       inkscape:connector-curvature="0"
       sodipodi:nodetypes="cc" />
    <path
       style="fill:none;stroke:#ff0000;stroke-width:1px;stroke-linecap:butt;stroke-linejoin:miter;stroke-opacity:1;display:inline"
       d="m 360,732.36211 0,320.00009"
       id="path3010"
       inkscape:connector-curvature="0"
       sodipodi:nodetypes="cc" />
    <path
       style="fill:none;stroke:#ff0000;stroke-width:1px;stroke-linecap:butt;stroke-linejoin:miter;stroke-opacity:1;display:inline"
       d="m 0,742.36208 370,3e-5"
       id="path3016"
       inkscape:connector-curvature="0" />
    <path
       style="fill:none;stroke:#ff0000;stroke-width:1px;stroke-linecap:butt;stroke-linejoin:miter;stroke-opacity:1;display:inline"
       d="m 0,1042.3622 370,0"
       id="path3018"
       inkscape:connector-curvature="0"
       sodipodi:nodetypes="cc" />
  </g>
  <g
     inkscape:groupmode="layer"
     id="layer3"
     inkscape:label="豚"
     sodipodi:insensitive="true">
    <path
       sodipodi:type="arc"
       style="fill:#000000;fill-opacity:1;stroke:none"
       id="path3214-1-7"
       sodipodi:cx="92.23233"
       sodipodi:cy="278.81076"
       sodipodi:rx="55.970047"
       sodipodi:ry="8.080183"
       d="m 148.20238,278.81076 a 55.970047,8.080183 0 1 1 -111.940097,0 55.970047,8.080183 0 1 1 111.940097,0 z"
       transform="matrix(1.0492957,0,0,1.097561,203.96147,-54.98899)" />
    <path
       sodipodi:type="arc"
       style="fill:#000000;fill-opacity:1;stroke:none"
       id="path3214"
       sodipodi:cx="92.23233"
       sodipodi:cy="278.81076"
       sodipodi:rx="55.970047"
       sodipodi:ry="8.080183"
       d="m 148.20238,278.81076 a 55.970047,8.080183 0 1 1 -111.940097,0 55.970047,8.080183 0 1 1 111.940097,0 z"
       transform="matrix(1.1866197,0,0,1,-26.475021,-16.160366)" />
    <g
       id="g3199"
       transform="translate(0,-24)">
      <path
         sodipodi:nodetypes="csssccc"
         inkscape:connector-curvature="0"
         id="path4587-4-2-6"
         d="m 343.79915,249.753 c 5.94376,2.79586 16.6863,11.74355 13.64274,15.10496 -1.51512,1.67317 -3.54768,0.0771 -4.94059,1.74325 -1.37815,1.64951 2.02206,4.58536 -0.88882,5.8214 -3.54116,1.50357 -26.99374,-4.05222 -40.19001,-7.56167 l 5.3372,-8.35061 z"
         style="fill:#ffd5d5;stroke:none;display:inline" />
      <path
         sodipodi:nodetypes="sssccs"
         inkscape:connector-curvature="0"
         id="path4587-6-3-8"
         d="m 356.73899,265.35483 c -1.51509,1.67352 -3.54765,0.0771 -4.94056,1.74342 -1.37817,1.64969 2.02202,4.58519 -0.88882,5.82123 -3.54119,1.50375 -10.35327,-0.35338 -10.35327,-0.35338 3.3679,-3.27486 9.13496,-11.63089 10.95465,-16.48326 0,0 8.27157,5.91058 5.228,9.27199 z"
         style="fill:#ffaaaa;stroke:none;display:inline" />
      <path
         sodipodi:nodetypes="csssc"
         inkscape:connector-curvature="0"
         id="path4587-2-5"
         d="m 343.14609,250.19276 c 5.94375,2.79586 16.6863,11.74355 13.64274,15.10495 -1.51512,1.67317 -3.54768,0.0771 -4.9406,1.74308 -1.37814,1.64969 2.02207,4.58553 -0.88881,5.82157 -3.54116,1.50358 -26.99374,-4.05222 -40.19002,-7.56167"
         style="fill:none;stroke:#000000;stroke-width:2;stroke-linecap:butt;stroke-linejoin:miter;stroke-opacity:1;display:inline" />
      <path
         sodipodi:nodetypes="cc"
         inkscape:connector-curvature="0"
         id="path4745-7-2-7"
         d="m 340.60615,272.50881 c 3.36794,-3.27503 9.13496,-11.63107 10.95465,-16.48308"
         style="fill:none;stroke:#000000;stroke-width:2;stroke-linecap:butt;stroke-linejoin:miter;stroke-opacity:1;display:inline" />
      <path
         sodipodi:nodetypes="cssccc"
         inkscape:connector-curvature="0"
         id="path4585-6"
         d="m 304.23674,194.72536 c -22.37993,-12.66493 -60.4123,-3.15905 -72.24421,17.92463 -9.3034,16.57804 -12.21155,44.77156 6.27732,56.20623 15.943,9.86013 40.73125,10.04532 55.48712,6.50066 l 40.21458,-7.0769 z"
         style="fill:#ffd5d5;stroke:#000000;stroke-width:2;stroke-linecap:butt;stroke-linejoin:miter;stroke-opacity:1" />
      <path
         sodipodi:nodetypes="csc"
         inkscape:connector-curvature="0"
         id="path4583-1"
         d="m 337.25259,266.23223 c -2.7226,1.49044 -5.43445,10.04971 -8.60566,10.93097 -16.94698,4.70852 -35.03883,-1.63235 -42.0992,-4.84816"
         style="fill:#ffd5d5;stroke:#000000;stroke-width:2;stroke-linecap:butt;stroke-linejoin:miter;stroke-opacity:1" />
      <path
         sodipodi:nodetypes="cc"
         inkscape:connector-curvature="0"
         id="path4747-8"
         d="m 351.17557,224.07783 c 13.84997,18.19672 -0.20316,34.45853 -8.64934,34.18241"
         style="fill:#ffd5d5;stroke:#000000;stroke-width:2;stroke-linecap:butt;stroke-linejoin:miter;stroke-opacity:1" />
      <path
         inkscape:connector-curvature="0"
         id="path7860-9"
         d="m 278.66626,203.62346 c 4.75618,-7.71778 24.32119,-10.51258 36.05172,-8.98238 32.04505,4.17925 47.25642,35.1469 32.30517,60.74832 -3.35009,5.73643 -8.96605,10.90521 -14.71477,14.05252"
         style="fill:#ffd5d5;stroke:#000000;stroke-width:2;stroke-linecap:butt;stroke-linejoin:miter;stroke-opacity:1" />
      <path
         sodipodi:nodetypes="csssccc"
         inkscape:connector-curvature="0"
         id="path4587-4-27"
         d="m 310.88246,260.50772 c 5.94373,2.79585 16.6863,11.74354 13.64271,15.10495 -1.51509,1.67317 -3.54765,0.0771 -4.94056,1.74325 -1.37815,1.64952 2.02206,4.58536 -0.88882,5.8214 -3.54118,1.50358 -26.99374,-4.05205 -40.19001,-7.56167 l 5.33718,-8.35043 z"
         style="fill:#ffd5d5;stroke:none;display:inline" />
      <path
         sodipodi:nodetypes="sssccs"
         inkscape:connector-curvature="0"
         id="path4587-6-9"
         d="m 323.8223,276.10971 c -1.51511,1.67335 -3.54766,0.0771 -4.9406,1.74325 -1.37815,1.6497 2.02206,4.58519 -0.88881,5.82123 -3.54116,1.50375 -10.35326,-0.3532 -10.35326,-0.3532 3.36792,-3.27503 9.13495,-11.63107 10.95467,-16.48344 0,0 8.27157,5.91058 5.228,9.27216 z"
         style="fill:#ffaaaa;stroke:none;display:inline" />
      <path
         sodipodi:nodetypes="csssc"
         inkscape:connector-curvature="0"
         id="path4587-5"
         d="m 310.2294,260.94747 c 5.94373,2.79586 16.68628,11.74355 13.64271,15.10495 -1.51511,1.67317 -3.54765,0.0771 -4.94057,1.74325 -1.37816,1.64952 2.02205,4.58536 -0.88881,5.82141 -3.54119,1.50357 -26.99374,-4.05223 -40.19003,-7.56168"
         style="fill:none;stroke:#000000;stroke-width:2;stroke-linecap:butt;stroke-linejoin:miter;stroke-opacity:1" />
      <path
         sodipodi:nodetypes="cc"
         inkscape:connector-curvature="0"
         id="path4745-4"
         d="m 280.33785,234.37334 c -4.0433,32.64923 18.36319,36.97126 30.06458,13.17897"
         style="fill:none;stroke:#000000;stroke-width:2;stroke-linecap:butt;stroke-linejoin:miter;stroke-opacity:1" />
      <path
         sodipodi:nodetypes="cc"
         inkscape:connector-curvature="0"
         id="path4745-7-3"
         d="m 307.68946,283.26352 c 3.36792,-3.27503 9.13496,-11.63089 10.95465,-16.48308"
         style="fill:none;stroke:#000000;stroke-width:2;stroke-linecap:butt;stroke-linejoin:miter;stroke-opacity:1;display:inline" />
    </g>
    <g
       id="g3125"
       transform="translate(0,-24)">
      <path
         sodipodi:nodetypes="csssccc"
         inkscape:connector-curvature="0"
         id="path4587-4-2"
         d="m 139.35562,258.00217 c 6.3229,2.97421 17.75072,12.4927 14.513,16.06856 -1.61176,1.78004 -3.77397,0.0806 -5.25575,1.8545 -1.46606,1.75481 2.15105,4.87777 -0.9455,6.19265 -3.76707,1.59959 -28.71569,-4.31047 -42.75377,-8.04383 l 5.67766,-8.88339 z"
         style="fill:#ffd5d5;stroke:none;display:inline" />
      <path
         sodipodi:nodetypes="sssccs"
         inkscape:connector-curvature="0"
         id="path4587-6-3"
         d="m 153.1209,274.59948 c -1.61174,1.78004 -3.77397,0.0806 -5.25575,1.8545 -1.46606,1.75482 2.15105,4.87778 -0.94551,6.19266 -3.76706,1.59958 -11.01371,-0.37598 -11.01371,-0.37598 3.58277,-3.48387 9.71768,-12.37287 11.65346,-17.53464 0,0 8.79924,6.28761 5.56151,9.86346 z"
         style="fill:#ffaaaa;stroke:none;display:inline" />
      <path
         sodipodi:nodetypes="csssc"
         inkscape:connector-curvature="0"
         id="path4587-2"
         d="m 138.6609,258.46995 c 6.32289,2.97422 17.75071,12.49271 14.513,16.06856 -1.61176,1.78004 -3.77397,0.0806 -5.25575,1.8545 -1.46607,1.75482 2.15105,4.87778 -0.94551,6.19266 -3.76706,1.59958 -28.71568,-4.31047 -42.75377,-8.04383"
         style="fill:none;stroke:#000000;stroke-width:2;stroke-linecap:butt;stroke-linejoin:miter;stroke-opacity:1;display:inline" />
      <path
         sodipodi:nodetypes="cc"
         inkscape:connector-curvature="0"
         id="path4745-7-2"
         d="m 135.95893,282.20969 c 3.58277,-3.48387 9.71768,-12.37287 11.65346,-17.53464"
         style="fill:none;stroke:#000000;stroke-width:2;stroke-linecap:butt;stroke-linejoin:miter;stroke-opacity:1;display:inline" />
      <path
         sodipodi:nodetypes="cssccc"
         inkscape:connector-curvature="0"
         id="path4585"
         d="m 97.269507,199.46437 c -23.80757,-13.47278 -64.266049,-3.36053 -76.852733,19.06817 -9.896858,17.63556 -12.9905218,47.62734 6.677768,59.79154 16.959998,10.48911 43.329515,10.68621 59.026664,6.91536 l 42.779914,-7.52839 z"
         style="fill:#ffd5d5;stroke:#000000;stroke-width:2;stroke-linecap:butt;stroke-linejoin:miter;stroke-opacity:1" />
      <path
         sodipodi:nodetypes="csc"
         inkscape:connector-curvature="0"
         id="path4583"
         d="m 132.39145,275.5326 c -2.8963,1.58575 -5.78114,10.69094 -9.15463,11.62827 -18.02805,5.00899 -37.273978,-1.73642 -44.784721,-5.15722"
         style="fill:#ffd5d5;stroke:#000000;stroke-width:2;stroke-linecap:butt;stroke-linejoin:miter;stroke-opacity:1" />
      <path
         sodipodi:nodetypes="cc"
         inkscape:connector-curvature="0"
         id="path4747"
         d="m 147.20259,230.68921 c 14.73344,19.35761 -0.21613,36.6566 -9.2011,36.36296"
         style="fill:#ffd5d5;stroke:#000000;stroke-width:2;stroke-linecap:butt;stroke-linejoin:miter;stroke-opacity:1" />
      <path
         inkscape:connector-curvature="0"
         id="path7860"
         d="m 70.067873,208.93013 c 5.059559,-8.2101 25.87263,-11.18308 38.351477,-9.55547 34.08922,4.4459 50.27093,37.38912 34.36592,64.62359 -3.5638,6.10242 -9.53801,11.60093 -15.65342,14.94902"
         style="fill:#ffd5d5;stroke:#000000;stroke-width:2;stroke-linecap:butt;stroke-linejoin:miter;stroke-opacity:1" />
      <path
         sodipodi:nodetypes="csssccc"
         inkscape:connector-curvature="0"
         id="path4587-4"
         d="m 104.33915,269.44297 c 6.3229,2.97421 17.75071,12.4927 14.513,16.06855 -1.61176,1.78005 -3.77397,0.0806 -5.25575,1.85451 -1.46607,1.75481 2.15105,4.87777 -0.94551,6.19265 -3.76706,1.59959 -28.715684,-4.31047 -42.753767,-8.04383 l 5.677668,-8.88339 z"
         style="fill:#ffd5d5;stroke:none;display:inline" />
      <path
         sodipodi:nodetypes="sssccs"
         inkscape:connector-curvature="0"
         id="path4587-6"
         d="m 118.10443,286.04028 c -1.61175,1.78004 -3.77397,0.0806 -5.25575,1.8545 -1.46607,1.75482 2.15104,4.87777 -0.94551,6.19266 -3.76707,1.59958 -11.01371,-0.37598 -11.01371,-0.37598 3.58277,-3.48388 9.71768,-12.37287 11.65346,-17.53464 0,0 8.79924,6.28761 5.56151,9.86346 z"
         style="fill:#ffaaaa;stroke:none;display:inline" />
      <path
         sodipodi:nodetypes="csssc"
         inkscape:connector-curvature="0"
         id="path4587"
         d="m 103.64442,269.91075 c 6.3229,2.97422 17.75072,12.49271 14.513,16.06856 -1.61176,1.78004 -3.77397,0.0806 -5.25575,1.8545 -1.46606,1.75482 2.15105,4.87777 -0.9455,6.19266 -3.76707,1.59958 -28.715688,-4.31047 -42.753772,-8.04383"
         style="fill:none;stroke:#000000;stroke-width:2;stroke-linecap:butt;stroke-linejoin:miter;stroke-opacity:1" />
      <path
         sodipodi:nodetypes="cc"
         inkscape:connector-curvature="0"
         id="path4745"
         d="m 71.846093,241.64155 c -4.301236,34.73184 19.534577,39.32964 31.982397,14.01976"
         style="fill:none;stroke:#000000;stroke-width:2;stroke-linecap:butt;stroke-linejoin:miter;stroke-opacity:1" />
      <path
         sodipodi:nodetypes="cc"
         inkscape:connector-curvature="0"
         id="path4745-7"
         d="m 100.94246,293.65049 c 3.58277,-3.48388 9.71768,-12.37287 11.65345,-17.53464"
         style="fill:none;stroke:#000000;stroke-width:2;stroke-linecap:butt;stroke-linejoin:miter;stroke-opacity:1;display:inline" />
    </g>
    <g
       id="g3126"
       transform="matrix(-1,0,0,1,440.16686,0)">
      <path
         transform="matrix(1.2640845,0,0,1.097561,101.57548,-30.945511)"
         d="m 148.20238,278.81076 a 55.970047,8.080183 0 1 1 -111.940097,0 55.970047,8.080183 0 1 1 111.940097,0 z"
         sodipodi:ry="8.080183"
         sodipodi:rx="55.970047"
         sodipodi:cy="278.81076"
         sodipodi:cx="92.23233"
         id="path3214-1"
         style="fill:#000000;fill-opacity:1;stroke:none"
         sodipodi:type="arc" />
      <path
         sodipodi:nodetypes="cc"
         inkscape:connector-curvature="0"
         id="path5103-8-1-4-9-2"
         d="m 207.3908,275.26515 c -32.41418,10.22193 -47.86447,-5.44507 -35.92701,-12.60098"
         style="fill:#ffd5d5;stroke:#000000;stroke-width:2;stroke-linecap:butt;stroke-linejoin:miter;stroke-opacity:1;display:inline" />
      <path
         sodipodi:nodetypes="csccccccc"
         inkscape:connector-curvature="0"
         id="path3386-3-7"
         d="m 160.08462,191.28558 c -16.0331,23.26774 -15.98004,64.48636 -10.0935,66.89397 5.84797,2.39185 4.48557,-9.54319 12.10569,-6.23137 l 91.33156,20.091 25.84994,-8.97364 -0.77968,-55.98122 -93.92763,-63.32181 -15.81618,14.77431 z"
         style="fill:#ffd5d5;stroke:none;display:inline" />
      <path
         sodipodi:nodetypes="cccsc"
         inkscape:connector-curvature="0"
         id="path3388-8-1"
         d="m 146.09709,241.05576 13.45316,2.63765 2.91551,8.53649 c -7.62012,-3.31182 -6.15333,8.35008 -12.10568,6.23138 -3.71856,-1.32365 -4.26299,-17.40552 -4.26299,-17.40552 z"
         style="fill:#ffaaaa;stroke:none;display:inline" />
      <path
         sodipodi:nodetypes="cc"
         inkscape:connector-curvature="0"
         id="path5091-2-40-9-2-3"
         d="m 194.51124,136.476 c -19.12279,0.56946 -33.23157,19.54573 -29.65729,29.87452"
         style="fill:#ffd5d5;stroke:#000000;stroke-width:2;stroke-linecap:butt;stroke-linejoin:miter;stroke-opacity:1;display:inline" />
      <path
         sodipodi:nodetypes="cc"
         inkscape:connector-curvature="0"
         id="path3333-4-8"
         d="m 285.11292,257.89205 c 25.57979,15.87741 -7.09354,25.83023 -38.87726,16.7133"
         style="fill:#ffd5d5;stroke:#000000;stroke-width:2;stroke-linecap:butt;stroke-linejoin:miter;stroke-opacity:1;display:inline" />
      <path
         sodipodi:nodetypes="csc"
         inkscape:connector-curvature="0"
         id="path4041-7"
         d="m 182.89085,144.59905 c 27.7767,-25.73898 65.87745,-9.92936 81.0513,15.3094 11.39368,18.95131 17.76563,41.09549 10.62687,51.8693"
         style="fill:#ffd5d5;stroke:#000000;stroke-width:2;stroke-linecap:butt;stroke-linejoin:miter;stroke-opacity:1;display:inline" />
      <path
         sodipodi:nodetypes="cc"
         inkscape:connector-curvature="0"
         id="path3327-4-9"
         d="m 277.68881,202.71022 c 17.12276,20.91567 15.20858,52.03101 0.3131,63.76054"
         style="fill:#ffd5d5;stroke:#000000;stroke-width:2;stroke-linecap:butt;stroke-linejoin:miter;stroke-opacity:1;display:inline" />
      <path
         sodipodi:nodetypes="cc"
         inkscape:connector-curvature="0"
         id="path3325-8-5"
         d="m 259.82111,272.61454 c -49.60887,8.82154 -111.17998,5.95771 -100.56023,-53.19593"
         style="fill:#ffd5d5;stroke:#000000;stroke-width:2;stroke-linecap:butt;stroke-linejoin:miter;stroke-opacity:1;display:inline" />
      <path
         sodipodi:nodetypes="cc"
         inkscape:connector-curvature="0"
         id="path5093-4-9-4-4-1"
         d="m 169.92091,160.0937 c -11.04105,11.06077 -12.88453,28.14324 -6.83427,38.89185"
         style="fill:#ffd5d5;stroke:#000000;stroke-width:2;stroke-linecap:butt;stroke-linejoin:miter;stroke-opacity:1;display:inline" />
      <path
         inkscape:connector-curvature="0"
         id="path5095-5-4-8-5-2"
         d="m 186.93162,155.93249 0.33776,5.95453"
         style="fill:none;stroke:#000000;stroke-width:2;stroke-linecap:butt;stroke-linejoin:miter;stroke-opacity:1;display:inline"
         sodipodi:nodetypes="cc" />
      <path
         inkscape:connector-curvature="0"
         id="path5097-5-8-8-5-3"
         d="m 206.59035,159.31684 -6.88857,6.87381"
         style="fill:none;stroke:#000000;stroke-width:2;stroke-linecap:butt;stroke-linejoin:miter;stroke-opacity:1;display:inline"
         sodipodi:nodetypes="cc" />
      <path
         sodipodi:nodetypes="csc"
         inkscape:connector-curvature="0"
         id="path5099-1-8-2-7-3"
         d="m 245.35508,145.30937 c 36.47986,10.77619 27.62738,48.47716 16.98989,50.50074 -7.12593,1.35553 -14.61493,-17.89608 -22.86989,-24.02777"
         style="fill:#ffd5d5;stroke:#000000;stroke-width:2;stroke-linecap:butt;stroke-linejoin:miter;stroke-opacity:1;display:inline" />
      <path
         sodipodi:nodetypes="ssssss"
         inkscape:connector-curvature="0"
         id="path5101-7-2-4-1-4"
         d="m 187.1095,164.18838 c 7.55342,1.70394 15.6814,10.70585 19.05558,17.52327 4.73009,9.55704 1.8993,19.3487 -5.97362,16.21278 -8.39852,-3.34529 -16.46975,-5.89218 -23.52329,-5.44717 -6.78585,0.42819 -7.608,-9.76413 -4.98711,-15.78368 2.82695,-6.49278 7.66047,-14.25754 15.42844,-12.5052 z"
         style="fill:#ffaaaa;stroke:#000000;stroke-width:2;stroke-linecap:butt;stroke-linejoin:miter;stroke-opacity:1;display:inline" />
      <path
         inkscape:connector-curvature="0"
         id="path5105-1-4-55-1-28-1"
         d="m 195.50147,188.92638 c -1.6567,2.48024 -7.66187,-16.29519 -6.0155,-16.21863 1.68076,0.0782 9.92252,10.36946 6.0155,16.21863 z"
         style="fill:#000000;stroke:#000000;stroke-width:2;display:inline"
         sodipodi:nodetypes="sss" />
      <path
         inkscape:connector-curvature="0"
         id="path5107-1-5-1-5-1"
         d="m 182.3597,172.604 c 0.94279,-0.76615 -0.0911,15.49456 -1.53149,13.56574 -3.32177,-4.44815 -0.32928,-12.05358 1.53149,-13.56574 z"
         style="fill:#000000;stroke:#000000;stroke-width:2;display:inline"
         sodipodi:nodetypes="sss" />
      <path
         sodipodi:nodetypes="csc"
         inkscape:connector-curvature="0"
         id="path3386-3"
         d="m 160.22356,190.73869 c -16.0331,23.26775 -15.98005,65.36105 -10.0935,67.76866 5.84796,2.39185 4.48556,-9.54319 12.10568,-6.23137"
         style="fill:none;stroke:#000000;stroke-width:2;stroke-linecap:butt;stroke-linejoin:miter;stroke-opacity:1;display:inline" />
      <path
         sodipodi:nodetypes="cc"
         inkscape:connector-curvature="0"
         id="path3388-8"
         d="m 145.86707,241.10184 13.45315,2.63765"
         style="fill:none;stroke:#000000;stroke-width:2;stroke-linecap:butt;stroke-linejoin:miter;stroke-opacity:1;display:inline" />
      <path
         sodipodi:nodetypes="sssccs"
         inkscape:connector-curvature="0"
         id="path5089-8-7-0-8-2-4-7"
         d="m 225.19383,273.16607 c -3.45094,0.19714 -4.64833,-3.12576 -6.92965,-3.2717 -3.26929,-0.20919 -5.46693,2.60557 -9.37229,1.47649 -2.79041,-0.80674 -3.3586,-12.3436 -3.3586,-12.3436 1.60059,-9.01364 30.08744,0.79521 28.59335,7.57511 0,0 -5.63619,6.37537 -8.93281,6.5637 z"
         style="fill:#ffaaaa;stroke:none;display:inline" />
      <path
         sodipodi:nodetypes="cc"
         inkscape:connector-curvature="0"
         id="path5111-7-1-7-7-7-1"
         d="m 205.61042,259.10309 c 1.60059,-9.01364 30.08744,0.79521 28.59335,7.57511"
         style="fill:none;stroke:#000000;stroke-width:2;stroke-linecap:butt;stroke-linejoin:miter;stroke-opacity:1;display:inline" />
      <path
         sodipodi:nodetypes="csssc"
         inkscape:connector-curvature="0"
         id="path5089-8-7-0-8-2-4"
         d="m 250.22213,239.00986 c -4.3243,15.95485 -19.84269,33.85624 -24.95117,34.23204 -3.44725,0.25352 -4.64833,-3.12576 -6.92965,-3.2717 -3.26929,-0.20919 -6.56314,3.07081 -9.37229,1.47649 -4.35707,-2.47283 -4.826,-36.60438 -1.96965,-47.62459"
         style="fill:none;stroke:#000000;stroke-width:2;stroke-linecap:butt;stroke-linejoin:miter;stroke-opacity:1;display:inline" />
    </g>
  </g>
  <g
     inkscape:groupmode="layer"
     id="layer4"
     inkscape:label="吹き出し"
     sodipodi:insensitive="true">
    <g
       transform="translate(34.174813,-10.454027)"
       id="g9788">
      <path
         sodipodi:nodetypes="sssscsssssss"
         inkscape:connector-curvature="0"
         id="rect7294"
         d="m -0.92058374,45.97286 0,45.41665 c 0,12.90509 10.38929004,23.29439 23.29437974,23.29439 l 87.663714,0 c 17.58619,0 25.75133,19.34834 56.78838,28.3282 -18.06027,-13.69946 -25.68168,-28.3282 -16.39749,-28.3282 l 129.82074,0 c 12.90509,0 23.2944,-10.3893 23.2944,-23.29439 l 0,-45.41665 c 0,-12.90509 -10.3893,-23.294381 -23.2944,-23.294381 l -257.875344,0 c -12.9050897,0 -23.29437974,10.389291 -23.29437974,23.294381 z"
         style="fill:#fefefe;fill-opacity:1;stroke:#000000;stroke-width:2;stroke-linecap:round;stroke-miterlimit:4;stroke-opacity:1;stroke-dashoffset:0;display:inline" />
      <text
         sodipodi:linespacing="125%"
         id="text11601"
         y="59.44276"
         x="8.1760635"
         style="font-size:36.21048355px;font-style:normal;font-weight:normal;line-height:125%;letter-spacing:0px;word-spacing:0px;writing-mode:lr-tb;fill:#000000;fill-opacity:1;stroke:none;display:inline;font-family:Sans"
         xml:space="preserve"><tspan
           y="59.44276"
           x="8.1760635"
           id="tspan11603"
           sodipodi:role="line"
           style="font-size:31.6841774px">何とお礼を</tspan><tspan
           y="99.047981"
           x="8.1760635"
           sodipodi:role="line"
           id="tspan3252"
           style="font-size:31.6841774px">申し上げたらよいか</tspan></text>
    </g>
  </g>
  <g
     inkscape:groupmode="layer"
     id="layer2"
     inkscape:label="枠面"
     sodipodi:insensitive="true">
    <path
       style="fill:#ffffff;stroke:none;display:inline"
       d="m 0,0 0,320 370,0 0,-320 -10,10 0,300 -350,0 0,-300 350,0 10,-10 z"
       id="path21072"
       inkscape:connector-curvature="0"
       sodipodi:nodetypes="ccccccccccc" />
  </g>
</svg>
