<?xml version="1.0" encoding="UTF-8" standalone="no"?>
<!-- Created with Inkscape (http://www.inkscape.org/) -->

<svg
   xmlns:dc="http://purl.org/dc/elements/1.1/"
   xmlns:cc="http://creativecommons.org/ns#"
   xmlns:rdf="http://www.w3.org/1999/02/22-rdf-syntax-ns#"
   xmlns:svg="http://www.w3.org/2000/svg"
   xmlns="http://www.w3.org/2000/svg"
   xmlns:sodipodi="http://sodipodi.sourceforge.net/DTD/sodipodi-0.dtd"
   xmlns:inkscape="http://www.inkscape.org/namespaces/inkscape"
   width="370"
   height="320"
   id="svg3172"
   version="1.1"
   inkscape:version="0.48.4 r9939"
   sodipodi:docname="[00.規格].svg">
  <defs
     id="defs3174" />
  <sodipodi:namedview
     id="base"
     pagecolor="#ffffff"
     bordercolor="#666666"
     borderopacity="1.0"
     inkscape:pageopacity="0.0"
     inkscape:pageshadow="2"
     inkscape:zoom="0.89699015"
     inkscape:cx="210.18942"
     inkscape:cy="274.51682"
     inkscape:document-units="px"
     inkscape:current-layer="layer2"
     showgrid="false"
     inkscape:window-width="1245"
     inkscape:window-height="698"
     inkscape:window-x="-5"
     inkscape:window-y="-5"
     inkscape:window-maximized="0" />
  <metadata
     id="metadata3177">
    <rdf:RDF>
      <cc:Work
         rdf:about="">
        <dc:format>image/svg+xml</dc:format>
        <dc:type
           rdf:resource="http://purl.org/dc/dcmitype/StillImage" />
        <dc:title></dc:title>
      </cc:Work>
    </rdf:RDF>
  </metadata>
  <g
     inkscape:label="補助線"
     inkscape:groupmode="layer"
     id="layer1"
     transform="translate(0,-732.36218)"
     sodipodi:insensitive="true"
     style="display:none">
    <path
       style="fill:none;stroke:#0000ff;stroke-width:1px;stroke-linecap:butt;stroke-linejoin:miter;stroke-opacity:1;display:inline"
       d="M 10,1042.3622 360,742.36211"
       id="path3025"
       inkscape:connector-curvature="0"
       sodipodi:nodetypes="cc" />
    <path
       style="fill:none;stroke:#0000ff;stroke-width:1px;stroke-linecap:butt;stroke-linejoin:miter;stroke-opacity:1;display:inline"
       d="M 10,742.36211 360,1042.3622"
       id="path3027"
       inkscape:connector-curvature="0"
       sodipodi:nodetypes="cc" />
    <path
       style="fill:none;stroke:#ff0000;stroke-width:1px;stroke-linecap:butt;stroke-linejoin:miter;stroke-opacity:1;display:inline"
       d="m 10,732.36211 0,320.00009"
       id="path3006"
       inkscape:connector-curvature="0"
       sodipodi:nodetypes="cc" />
    <path
       style="fill:none;stroke:#ff0000;stroke-width:1px;stroke-linecap:butt;stroke-linejoin:miter;stroke-opacity:1;display:inline"
       d="m 360,732.36211 0,320.00009"
       id="path3010"
       inkscape:connector-curvature="0"
       sodipodi:nodetypes="cc" />
    <path
       style="fill:none;stroke:#ff0000;stroke-width:1px;stroke-linecap:butt;stroke-linejoin:miter;stroke-opacity:1;display:inline"
       d="m 0,742.36208 370,3e-5"
       id="path3016"
       inkscape:connector-curvature="0" />
    <path
       style="fill:none;stroke:#ff0000;stroke-width:1px;stroke-linecap:butt;stroke-linejoin:miter;stroke-opacity:1;display:inline"
       d="m 0,1042.3622 370,0"
       id="path3018"
       inkscape:connector-curvature="0"
       sodipodi:nodetypes="cc" />
  </g>
  <g
     inkscape:groupmode="layer"
     id="layer3"
     inkscape:label="豚"
     sodipodi:insensitive="true">
    <path
       sodipodi:type="arc"
       style="fill:#000000;fill-opacity:1;stroke:none"
       id="path3214-1-7"
       sodipodi:cx="92.23233"
       sodipodi:cy="278.81076"
       sodipodi:rx="55.970047"
       sodipodi:ry="8.080183"
       d="m 148.20238,278.81076 a 55.970047,8.080183 0 1 1 -111.940097,0 55.970047,8.080183 0 1 1 111.940097,0 z"
       transform="matrix(1.0492957,0,0,1.097561,203.96147,-54.98899)" />
    <path
       sodipodi:type="arc"
       style="fill:#000000;fill-opacity:1;stroke:none"
       id="path3214-1"
       sodipodi:cx="92.23233"
       sodipodi:cy="278.81076"
       sodipodi:rx="55.970047"
       sodipodi:ry="8.080183"
       d="m 148.20238,278.81076 a 55.970047,8.080183 0 1 1 -111.940097,0 55.970047,8.080183 0 1 1 111.940097,0 z"
       transform="matrix(1.2640845,0,0,1.097561,101.57548,-30.945511)" />
    <path
       sodipodi:type="arc"
       style="fill:#000000;fill-opacity:1;stroke:none"
       id="path3214"
       sodipodi:cx="92.23233"
       sodipodi:cy="278.81076"
       sodipodi:rx="55.970047"
       sodipodi:ry="8.080183"
       d="m 148.20238,278.81076 a 55.970047,8.080183 0 1 1 -111.940097,0 55.970047,8.080183 0 1 1 111.940097,0 z"
       transform="matrix(1.1866197,0,0,1,-26.475021,-16.160366)" />
    <g
       id="g3199"
       transform="translate(0,-24)">
      <path
         sodipodi:nodetypes="csssccc"
         inkscape:connector-curvature="0"
         id="path4587-4-2-6"
         d="m 343.79915,249.753 c 5.94376,2.79586 16.6863,11.74355 13.64274,15.10496 -1.51512,1.67317 -3.54768,0.0771 -4.94059,1.74325 -1.37815,1.64951 2.02206,4.58536 -0.88882,5.8214 -3.54116,1.50357 -26.99374,-4.05222 -40.19001,-7.56167 l 5.3372,-8.35061 z"
         style="fill:#ffd5d5;stroke:none;display:inline" />
      <path
         sodipodi:nodetypes="sssccs"
         inkscape:connector-curvature="0"
         id="path4587-6-3-8"
         d="m 356.73899,265.35483 c -1.51509,1.67352 -3.54765,0.0771 -4.94056,1.74342 -1.37817,1.64969 2.02202,4.58519 -0.88882,5.82123 -3.54119,1.50375 -10.35327,-0.35338 -10.35327,-0.35338 3.3679,-3.27486 9.13496,-11.63089 10.95465,-16.48326 0,0 8.27157,5.91058 5.228,9.27199 z"
         style="fill:#ffaaaa;stroke:none;display:inline" />
      <path
         sodipodi:nodetypes="csssc"
         inkscape:connector-curvature="0"
         id="path4587-2-5"
         d="m 343.14609,250.19276 c 5.94375,2.79586 16.6863,11.74355 13.64274,15.10495 -1.51512,1.67317 -3.54768,0.0771 -4.9406,1.74308 -1.37814,1.64969 2.02207,4.58553 -0.88881,5.82157 -3.54116,1.50358 -26.99374,-4.05222 -40.19002,-7.56167"
         style="fill:none;stroke:#000000;stroke-width:2;stroke-linecap:butt;stroke-linejoin:miter;stroke-opacity:1;display:inline" />
      <path
         sodipodi:nodetypes="cc"
         inkscape:connector-curvature="0"
         id="path4745-7-2-7"
         d="m 340.60615,272.50881 c 3.36794,-3.27503 9.13496,-11.63107 10.95465,-16.48308"
         style="fill:none;stroke:#000000;stroke-width:2;stroke-linecap:butt;stroke-linejoin:miter;stroke-opacity:1;display:inline" />
      <path
         sodipodi:nodetypes="cssccc"
         inkscape:connector-curvature="0"
         id="path4585-6"
         d="m 304.23674,194.72536 c -22.37993,-12.66493 -60.4123,-3.15905 -72.24421,17.92463 -9.3034,16.57804 -12.21155,44.77156 6.27732,56.20623 15.943,9.86013 40.73125,10.04532 55.48712,6.50066 l 40.21458,-7.0769 z"
         style="fill:#ffd5d5;stroke:#000000;stroke-width:2;stroke-linecap:butt;stroke-linejoin:miter;stroke-opacity:1" />
      <path
         sodipodi:nodetypes="csc"
         inkscape:connector-curvature="0"
         id="path4583-1"
         d="m 337.25259,266.23223 c -2.7226,1.49044 -5.43445,10.04971 -8.60566,10.93097 -16.94698,4.70852 -35.03883,-1.63235 -42.0992,-4.84816"
         style="fill:#ffd5d5;stroke:#000000;stroke-width:2;stroke-linecap:butt;stroke-linejoin:miter;stroke-opacity:1" />
      <path
         sodipodi:nodetypes="cc"
         inkscape:connector-curvature="0"
         id="path4747-8"
         d="m 351.17557,224.07783 c 13.84997,18.19672 -0.20316,34.45853 -8.64934,34.18241"
         style="fill:#ffd5d5;stroke:#000000;stroke-width:2;stroke-linecap:butt;stroke-linejoin:miter;stroke-opacity:1" />
      <path
         inkscape:connector-curvature="0"
         id="path7860-9"
         d="m 278.66626,203.62346 c 4.75618,-7.71778 24.32119,-10.51258 36.05172,-8.98238 32.04505,4.17925 47.25642,35.1469 32.30517,60.74832 -3.35009,5.73643 -8.96605,10.90521 -14.71477,14.05252"
         style="fill:#ffd5d5;stroke:#000000;stroke-width:2;stroke-linecap:butt;stroke-linejoin:miter;stroke-opacity:1" />
      <path
         sodipodi:nodetypes="csssccc"
         inkscape:connector-curvature="0"
         id="path4587-4-27"
         d="m 310.88246,260.50772 c 5.94373,2.79585 16.6863,11.74354 13.64271,15.10495 -1.51509,1.67317 -3.54765,0.0771 -4.94056,1.74325 -1.37815,1.64952 2.02206,4.58536 -0.88882,5.8214 -3.54118,1.50358 -26.99374,-4.05205 -40.19001,-7.56167 l 5.33718,-8.35043 z"
         style="fill:#ffd5d5;stroke:none;display:inline" />
      <path
         sodipodi:nodetypes="sssccs"
         inkscape:connector-curvature="0"
         id="path4587-6-9"
         d="m 323.8223,276.10971 c -1.51511,1.67335 -3.54766,0.0771 -4.9406,1.74325 -1.37815,1.6497 2.02206,4.58519 -0.88881,5.82123 -3.54116,1.50375 -10.35326,-0.3532 -10.35326,-0.3532 3.36792,-3.27503 9.13495,-11.63107 10.95467,-16.48344 0,0 8.27157,5.91058 5.228,9.27216 z"
         style="fill:#ffaaaa;stroke:none;display:inline" />
      <path
         sodipodi:nodetypes="csssc"
         inkscape:connector-curvature="0"
         id="path4587-5"
         d="m 310.2294,260.94747 c 5.94373,2.79586 16.68628,11.74355 13.64271,15.10495 -1.51511,1.67317 -3.54765,0.0771 -4.94057,1.74325 -1.37816,1.64952 2.02205,4.58536 -0.88881,5.82141 -3.54119,1.50357 -26.99374,-4.05223 -40.19003,-7.56168"
         style="fill:none;stroke:#000000;stroke-width:2;stroke-linecap:butt;stroke-linejoin:miter;stroke-opacity:1" />
      <path
         sodipodi:nodetypes="cc"
         inkscape:connector-curvature="0"
         id="path4745-4"
         d="m 280.33785,234.37334 c -4.0433,32.64923 18.36319,36.97126 30.06458,13.17897"
         style="fill:none;stroke:#000000;stroke-width:2;stroke-linecap:butt;stroke-linejoin:miter;stroke-opacity:1" />
      <path
         sodipodi:nodetypes="cc"
         inkscape:connector-curvature="0"
         id="path4745-7-3"
         d="m 307.68946,283.26352 c 3.36792,-3.27503 9.13496,-11.63089 10.95465,-16.48308"
         style="fill:none;stroke:#000000;stroke-width:2;stroke-linecap:butt;stroke-linejoin:miter;stroke-opacity:1;display:inline" />
    </g>
    <g
       id="g3125"
       transform="translate(0,-24)">
      <path
         sodipodi:nodetypes="csssccc"
         inkscape:connector-curvature="0"
         id="path4587-4-2"
         d="m 139.35562,258.00217 c 6.3229,2.97421 17.75072,12.4927 14.513,16.06856 -1.61176,1.78004 -3.77397,0.0806 -5.25575,1.8545 -1.46606,1.75481 2.15105,4.87777 -0.9455,6.19265 -3.76707,1.59959 -28.71569,-4.31047 -42.75377,-8.04383 l 5.67766,-8.88339 z"
         style="fill:#ffd5d5;stroke:none;display:inline" />
      <path
         sodipodi:nodetypes="sssccs"
         inkscape:connector-curvature="0"
         id="path4587-6-3"
         d="m 153.1209,274.59948 c -1.61174,1.78004 -3.77397,0.0806 -5.25575,1.8545 -1.46606,1.75482 2.15105,4.87778 -0.94551,6.19266 -3.76706,1.59958 -11.01371,-0.37598 -11.01371,-0.37598 3.58277,-3.48387 9.71768,-12.37287 11.65346,-17.53464 0,0 8.79924,6.28761 5.56151,9.86346 z"
         style="fill:#ffaaaa;stroke:none;display:inline" />
      <path
         sodipodi:nodetypes="csssc"
         inkscape:connector-curvature="0"
         id="path4587-2"
         d="m 138.6609,258.46995 c 6.32289,2.97422 17.75071,12.49271 14.513,16.06856 -1.61176,1.78004 -3.77397,0.0806 -5.25575,1.8545 -1.46607,1.75482 2.15105,4.87778 -0.94551,6.19266 -3.76706,1.59958 -28.71568,-4.31047 -42.75377,-8.04383"
         style="fill:none;stroke:#000000;stroke-width:2;stroke-linecap:butt;stroke-linejoin:miter;stroke-opacity:1;display:inline" />
      <path
         sodipodi:nodetypes="cc"
         inkscape:connector-curvature="0"
         id="path4745-7-2"
         d="m 135.95893,282.20969 c 3.58277,-3.48387 9.71768,-12.37287 11.65346,-17.53464"
         style="fill:none;stroke:#000000;stroke-width:2;stroke-linecap:butt;stroke-linejoin:miter;stroke-opacity:1;display:inline" />
      <path
         sodipodi:nodetypes="cssccc"
         inkscape:connector-curvature="0"
         id="path4585"
         d="m 97.269507,199.46437 c -23.80757,-13.47278 -64.266049,-3.36053 -76.852733,19.06817 -9.896858,17.63556 -12.9905218,47.62734 6.677768,59.79154 16.959998,10.48911 43.329515,10.68621 59.026664,6.91536 l 42.779914,-7.52839 z"
         style="fill:#ffd5d5;stroke:#000000;stroke-width:2;stroke-linecap:butt;stroke-linejoin:miter;stroke-opacity:1" />
      <path
         sodipodi:nodetypes="csc"
         inkscape:connector-curvature="0"
         id="path4583"
         d="m 132.39145,275.5326 c -2.8963,1.58575 -5.78114,10.69094 -9.15463,11.62827 -18.02805,5.00899 -37.273978,-1.73642 -44.784721,-5.15722"
         style="fill:#ffd5d5;stroke:#000000;stroke-width:2;stroke-linecap:butt;stroke-linejoin:miter;stroke-opacity:1" />
      <path
         sodipodi:nodetypes="cc"
         inkscape:connector-curvature="0"
         id="path4747"
         d="m 147.20259,230.68921 c 14.73344,19.35761 -0.21613,36.6566 -9.2011,36.36296"
         style="fill:#ffd5d5;stroke:#000000;stroke-width:2;stroke-linecap:butt;stroke-linejoin:miter;stroke-opacity:1" />
      <path
         inkscape:connector-curvature="0"
         id="path7860"
         d="m 70.067873,208.93013 c 5.059559,-8.2101 25.87263,-11.18308 38.351477,-9.55547 34.08922,4.4459 50.27093,37.38912 34.36592,64.62359 -3.5638,6.10242 -9.53801,11.60093 -15.65342,14.94902"
         style="fill:#ffd5d5;stroke:#000000;stroke-width:2;stroke-linecap:butt;stroke-linejoin:miter;stroke-opacity:1" />
      <path
         sodipodi:nodetypes="csssccc"
         inkscape:connector-curvature="0"
         id="path4587-4"
         d="m 104.33915,269.44297 c 6.3229,2.97421 17.75071,12.4927 14.513,16.06855 -1.61176,1.78005 -3.77397,0.0806 -5.25575,1.85451 -1.46607,1.75481 2.15105,4.87777 -0.94551,6.19265 -3.76706,1.59959 -28.715684,-4.31047 -42.753767,-8.04383 l 5.677668,-8.88339 z"
         style="fill:#ffd5d5;stroke:none;display:inline" />
      <path
         sodipodi:nodetypes="sssccs"
         inkscape:connector-curvature="0"
         id="path4587-6"
         d="m 118.10443,286.04028 c -1.61175,1.78004 -3.77397,0.0806 -5.25575,1.8545 -1.46607,1.75482 2.15104,4.87777 -0.94551,6.19266 -3.76707,1.59958 -11.01371,-0.37598 -11.01371,-0.37598 3.58277,-3.48388 9.71768,-12.37287 11.65346,-17.53464 0,0 8.79924,6.28761 5.56151,9.86346 z"
         style="fill:#ffaaaa;stroke:none;display:inline" />
      <path
         sodipodi:nodetypes="csssc"
         inkscape:connector-curvature="0"
         id="path4587"
         d="m 103.64442,269.91075 c 6.3229,2.97422 17.75072,12.49271 14.513,16.06856 -1.61176,1.78004 -3.77397,0.0806 -5.25575,1.8545 -1.46606,1.75482 2.15105,4.87777 -0.9455,6.19266 -3.76707,1.59958 -28.715688,-4.31047 -42.753772,-8.04383"
         style="fill:none;stroke:#000000;stroke-width:2;stroke-linecap:butt;stroke-linejoin:miter;stroke-opacity:1" />
      <path
         sodipodi:nodetypes="cc"
         inkscape:connector-curvature="0"
         id="path4745"
         d="m 71.846093,241.64155 c -4.301236,34.73184 19.534577,39.32964 31.982397,14.01976"
         style="fill:none;stroke:#000000;stroke-width:2;stroke-linecap:butt;stroke-linejoin:miter;stroke-opacity:1" />
      <path
         sodipodi:nodetypes="cc"
         inkscape:connector-curvature="0"
         id="path4745-7"
         d="m 100.94246,293.65049 c 3.58277,-3.48388 9.71768,-12.37287 11.65345,-17.53464"
         style="fill:none;stroke:#000000;stroke-width:2;stroke-linecap:butt;stroke-linejoin:miter;stroke-opacity:1;display:inline" />
    </g>
    <g
       id="g3162"
       transform="translate(0,-24)">
      <path
         sodipodi:nodetypes="cc"
         inkscape:connector-curvature="0"
         id="path5103-8-1-4-9-2"
         d="m 232.77606,299.26515 c 32.41418,10.22193 47.86447,-5.44507 35.92701,-12.60098"
         style="fill:#ffd5d5;stroke:#000000;stroke-width:2;stroke-linecap:butt;stroke-linejoin:miter;stroke-opacity:1;display:inline" />
      <path
         sodipodi:nodetypes="cccccc"
         inkscape:connector-curvature="0"
         id="path3327-4-9-1"
         d="m 162.93217,227.16084 c -17.12276,20.91567 -15.20858,52.03101 -0.3131,63.76054 l 18.18082,6.14377 c 49.60887,8.82155 111.17998,5.95771 100.56023,-53.19592 l -2.6,-24.87416 z"
         style="fill:#ffd5d5;stroke:none;display:inline" />
      <path
         sodipodi:nodetypes="csccc"
         inkscape:connector-curvature="0"
         id="path3386-3-7"
         d="m 280.70702,215.16062 c 16.0331,23.26774 15.35526,64.61132 9.46872,67.01893 -5.84797,2.39185 -4.48557,-9.54319 -12.10569,-6.23137 l -9.15951,-49.88778 z"
         style="fill:#ffd5d5;stroke:none;display:inline" />
      <path
         sodipodi:nodetypes="cccsc"
         inkscape:connector-curvature="0"
         id="path3388-8-1"
         d="m 294.06977,265.05576 -13.45316,2.63765 -2.91551,8.53649 c 7.62012,-3.31182 6.15333,8.35008 12.10568,6.23138 3.71856,-1.32365 4.26299,-17.40552 4.26299,-17.40552 z"
         style="fill:#ffaaaa;stroke:none;display:inline" />
      <path
         sodipodi:nodetypes="cccsc"
         inkscape:connector-curvature="0"
         id="path5093-4-9-4-4-1-5"
         d="m 278.04584,222.15114 c 4.63655,-9.86504 4.73692,-25.53379 -5.59727,-38.00827 l -15.26722,-15.67126 c -30.60413,-24.50186 -65.87745,-9.92934 -81.05131,15.30929 -11.39367,18.95132 -17.76562,41.09549 -10.62686,51.8693"
         style="fill:#ffd5d5;stroke:none;display:inline" />
      <path
         sodipodi:nodetypes="cc"
         inkscape:connector-curvature="0"
         id="path5091-2-40-9-2-3"
         d="m 243.88848,160.65272 c 20.5365,1.27631 36.23571,17.24844 34.07514,31.46494"
         style="fill:#ffd5d5;stroke:#000000;stroke-width:2;stroke-linecap:butt;stroke-linejoin:miter;stroke-opacity:1;display:inline" />
      <path
         sodipodi:nodetypes="ccsssc"
         inkscape:connector-curvature="0"
         id="path5111-7-1-7-7-7-1-5"
         d="m 232.38496,285.76977 c -5.34926,-1.7662 -20.09098,-1.45399 -28.09353,1.32732 0,0 3.93323,9.18684 7.18343,9.56265 3.4337,0.397 4.64833,-3.12576 6.92966,-3.2717 3.26928,-0.20919 4.62535,3.71688 8.62255,2.97596 3.20856,-0.59481 5.35789,-10.59423 5.35789,-10.59423 z"
         style="fill:#ffaaaa;stroke:none;display:inline" />
      <path
         sodipodi:nodetypes="cc"
         inkscape:connector-curvature="0"
         id="path5111-7-1-7-7-7-1"
         d="m 232.55715,285.85212 c -5.34926,-1.76621 -20.09098,-1.454 -28.09353,1.32732"
         style="fill:none;stroke:#000000;stroke-width:2;stroke-linecap:butt;stroke-linejoin:miter;stroke-opacity:1;display:inline" />
      <path
         sodipodi:nodetypes="cc"
         inkscape:connector-curvature="0"
         id="path3333-4-8"
         d="m 155.05394,281.89205 c -25.57979,15.87741 7.09354,25.83023 38.87726,16.7133"
         style="fill:#ffd5d5;stroke:#000000;stroke-width:2;stroke-linecap:butt;stroke-linejoin:miter;stroke-opacity:1;display:inline" />
      <path
         sodipodi:nodetypes="csc"
         inkscape:connector-curvature="0"
         id="path4041-7"
         d="m 257.27601,168.59905 c -30.60413,-24.50198 -65.87745,-9.92936 -81.0513,15.3094 -11.39368,18.95131 -17.76563,41.09549 -10.62687,51.8693"
         style="fill:none;stroke:#000000;stroke-width:2;stroke-linecap:butt;stroke-linejoin:miter;stroke-opacity:1;display:inline" />
      <path
         sodipodi:nodetypes="cc"
         inkscape:connector-curvature="0"
         id="path3327-4-9"
         d="m 162.47805,226.71022 c -17.12276,20.91567 -15.20858,52.03101 -0.3131,63.76054"
         style="fill:none;stroke:#000000;stroke-width:2;stroke-linecap:butt;stroke-linejoin:miter;stroke-opacity:1;display:inline" />
      <path
         sodipodi:nodetypes="cc"
         inkscape:connector-curvature="0"
         id="path3325-8-5"
         d="m 180.34575,296.61454 c 49.60887,8.82154 111.17998,5.95771 100.56023,-53.19593"
         style="fill:none;stroke:#000000;stroke-width:2;stroke-linecap:butt;stroke-linejoin:miter;stroke-opacity:1;display:inline" />
      <path
         sodipodi:nodetypes="csssc"
         inkscape:connector-curvature="0"
         id="path5089-8-7-0-8-2-4"
         d="m 193.44349,258.01163 c 4.3243,15.95485 13.09508,38.35465 18.20356,38.73045 3.44725,0.25352 4.64833,-3.12576 6.92965,-3.2717 3.26929,-0.20919 4.72602,4.13509 8.62256,2.97596 4.60228,-1.36902 9.57431,-29.60686 10.21672,-40.37716"
         style="fill:none;stroke:#000000;stroke-width:2;stroke-linecap:butt;stroke-linejoin:miter;stroke-opacity:1;display:inline" />
      <path
         sodipodi:nodetypes="cc"
         inkscape:connector-curvature="0"
         id="path5093-4-9-4-4-1"
         d="m 272.54323,184.27041 c 10.3342,12.47449 10.23382,28.14324 5.59727,38.00828"
         style="fill:none;stroke:#000000;stroke-width:2;stroke-linecap:butt;stroke-linejoin:miter;stroke-opacity:1;display:inline" />
      <path
         inkscape:connector-curvature="0"
         id="path5095-5-4-8-5-2"
         d="m 251.98569,180.93213 c -0.48492,1.45259 0.0611,3.6992 -0.46272,5.45471"
         style="fill:none;stroke:#000000;stroke-width:2;stroke-linecap:butt;stroke-linejoin:miter;stroke-opacity:1;display:inline" />
      <path
         inkscape:connector-curvature="0"
         id="path5097-5-8-8-5-3"
         d="m 232.202,184.94126 c 1.52679,1.63094 4.85744,6.02446 6.38875,8.12337"
         style="fill:none;stroke:#000000;stroke-width:2;stroke-linecap:butt;stroke-linejoin:miter;stroke-opacity:1;display:inline" />
      <path
         sodipodi:nodetypes="csc"
         inkscape:connector-curvature="0"
         id="path5099-1-8-2-7-3"
         d="m 194.81178,169.30937 c -36.47986,10.77619 -27.62738,48.47716 -16.98989,50.50074 7.12593,1.35553 14.61493,-17.89608 22.86989,-24.02777"
         style="fill:#ffd5d5;stroke:#000000;stroke-width:2;stroke-linecap:butt;stroke-linejoin:miter;stroke-opacity:1;display:inline" />
      <path
         sodipodi:nodetypes="ssssss"
         inkscape:connector-curvature="0"
         id="path5101-7-2-4-1-4"
         d="m 250.58336,188.54181 c -7.60384,1.46258 -13.2074,9.29214 -16.58158,16.10956 -4.73009,9.55704 -1.8993,20.40898 5.97362,17.27306 8.39852,-3.34529 16.46975,-5.89218 23.52329,-5.44717 6.78585,0.42819 7.608,-9.76413 4.98711,-15.78368 -2.82695,-6.49278 -11.54818,-13.37397 -17.90244,-12.15177 z"
         style="fill:#ffaaaa;stroke:#000000;stroke-width:2;stroke-linecap:butt;stroke-linejoin:miter;stroke-opacity:1;display:inline" />
      <path
         inkscape:connector-curvature="0"
         id="path5105-1-4-55-1-28-1"
         d="m 244.31196,212.21952 c 2.64599,-1.37655 5.01115,-14.13819 3.36479,-13.56791 -1.58992,0.55066 -6.38829,15.14069 -3.36479,13.56791 z"
         style="fill:#000000;stroke:#000000;stroke-width:2;display:inline" />
      <path
         inkscape:connector-curvature="0"
         id="path5107-1-5-1-5-1"
         d="m 256.39345,197.48757 c -0.94279,-0.76615 1.94056,13.01253 3.12191,10.91503 1.90806,-3.38787 -1.26114,-9.40287 -3.12191,-10.91503 z"
         style="fill:#000000;stroke:#000000;stroke-width:2;display:inline" />
      <path
         sodipodi:nodetypes="csc"
         inkscape:connector-curvature="0"
         id="path3386-3"
         d="m 280.56808,215.48842 c 16.0331,23.26775 15.35527,64.61132 9.46872,67.01893 -5.84796,2.39185 -4.48556,-9.54319 -12.10568,-6.23137"
         style="fill:none;stroke:#000000;stroke-width:2;stroke-linecap:butt;stroke-linejoin:miter;stroke-opacity:1;display:inline" />
      <path
         sodipodi:nodetypes="cc"
         inkscape:connector-curvature="0"
         id="path3388-8"
         d="m 294.29979,265.10184 -13.45315,2.63765"
         style="fill:none;stroke:#000000;stroke-width:2;stroke-linecap:butt;stroke-linejoin:miter;stroke-opacity:1;display:inline" />
    </g>
  </g>
  <g
     inkscape:groupmode="layer"
     id="layer4"
     inkscape:label="吹き出し"
     sodipodi:insensitive="true">
    <g
       transform="translate(34.174813,-10.454027)"
       id="g9788">
      <path
         sodipodi:nodetypes="sssscsssssss"
         inkscape:connector-curvature="0"
         id="rect7294"
         d="m -0.92058374,45.97286 0,35.41665 c 0,12.905093 10.38929004,23.29439 23.29437974,23.29439 l 93.663714,0 c 17.58619,0 20.19951,20.83297 50.78838,38.3282 -14.92303,-17.28488 -25.68168,-38.3282 -16.39749,-38.3282 l 121.82074,0 c 12.90509,0 23.2944,-10.389297 23.2944,-23.29439 l 0,-35.41665 c 0,-12.90509 -10.3893,-23.294381 -23.2944,-23.294381 l -249.875344,0 c -12.9050897,0 -23.29437974,10.389291 -23.29437974,23.294381 z"
         style="fill:#fefefe;fill-opacity:1;stroke:#000000;stroke-width:2;stroke-linecap:round;stroke-miterlimit:4;stroke-opacity:1;stroke-dashoffset:0;display:inline" />
      <text
         sodipodi:linespacing="125%"
         id="text11601"
         y="56.935364"
         x="22.803032"
         style="font-size:32px;font-style:normal;font-weight:normal;line-height:125%;letter-spacing:0px;word-spacing:0px;writing-mode:lr-tb;fill:#000000;fill-opacity:1;stroke:none;display:inline;font-family:Sans"
         xml:space="preserve"><tspan
           y="56.935364"
           x="22.803032"
           id="tspan11603"
           sodipodi:role="line"
           style="font-size:28px">何とお礼を</tspan><tspan
           y="91.935364"
           x="22.803032"
           sodipodi:role="line"
           id="tspan3252"
           style="font-size:28px">申し上げたらよいか</tspan></text>
    </g>
  </g>
  <g
     inkscape:groupmode="layer"
     id="layer2"
     inkscape:label="枠面"
     sodipodi:insensitive="true">
    <path
       style="fill:#ffffff;stroke:none;display:inline"
       d="m 0,0 0,320 370,0 0,-320 -10,10 0,300 -350,0 0,-300 350,0 10,-10 z"
       id="path21072"
       inkscape:connector-curvature="0"
       sodipodi:nodetypes="ccccccccccc" />
  </g>
</svg>
