<?xml version="1.0" encoding="UTF-8" standalone="no"?>
<!-- Created with Inkscape (http://www.inkscape.org/) -->

<svg
   xmlns:dc="http://purl.org/dc/elements/1.1/"
   xmlns:cc="http://creativecommons.org/ns#"
   xmlns:rdf="http://www.w3.org/1999/02/22-rdf-syntax-ns#"
   xmlns:svg="http://www.w3.org/2000/svg"
   xmlns="http://www.w3.org/2000/svg"
   xmlns:sodipodi="http://sodipodi.sourceforge.net/DTD/sodipodi-0.dtd"
   xmlns:inkscape="http://www.inkscape.org/namespaces/inkscape"
   width="370"
   height="320"
   id="svg3172"
   version="1.1"
   inkscape:version="0.48.4 r9939"
   sodipodi:docname="[12.結束].svg">
  <defs
     id="defs3174" />
  <sodipodi:namedview
     id="base"
     pagecolor="#ffffff"
     bordercolor="#666666"
     borderopacity="1.0"
     inkscape:pageopacity="0.0"
     inkscape:pageshadow="2"
     inkscape:zoom="0.89227518"
     inkscape:cx="296.91193"
     inkscape:cy="197.75557"
     inkscape:document-units="px"
     inkscape:current-layer="layer3"
     showgrid="false"
     inkscape:window-width="1245"
     inkscape:window-height="698"
     inkscape:window-x="-5"
     inkscape:window-y="-5"
     inkscape:window-maximized="0" />
  <metadata
     id="metadata3177">
    <rdf:RDF>
      <cc:Work
         rdf:about="">
        <dc:format>image/svg+xml</dc:format>
        <dc:type
           rdf:resource="http://purl.org/dc/dcmitype/StillImage" />
        <dc:title />
      </cc:Work>
    </rdf:RDF>
  </metadata>
  <g
     inkscape:label="補助線"
     inkscape:groupmode="layer"
     id="layer1"
     transform="translate(0,-732.36218)"
     style="display:none"
     sodipodi:insensitive="true">
    <path
       style="fill:none;stroke:#0000ff;stroke-width:1px;stroke-linecap:butt;stroke-linejoin:miter;stroke-opacity:1;display:inline"
       d="M 10,1042.3622 360,742.36211"
       id="path3025"
       inkscape:connector-curvature="0"
       sodipodi:nodetypes="cc" />
    <path
       style="fill:none;stroke:#0000ff;stroke-width:1px;stroke-linecap:butt;stroke-linejoin:miter;stroke-opacity:1;display:inline"
       d="M 10,742.36211 360,1042.3622"
       id="path3027"
       inkscape:connector-curvature="0"
       sodipodi:nodetypes="cc" />
    <path
       style="fill:none;stroke:#ff0000;stroke-width:1px;stroke-linecap:butt;stroke-linejoin:miter;stroke-opacity:1;display:inline"
       d="m 10,732.36211 0,320.00009"
       id="path3006"
       inkscape:connector-curvature="0"
       sodipodi:nodetypes="cc" />
    <path
       style="fill:none;stroke:#ff0000;stroke-width:1px;stroke-linecap:butt;stroke-linejoin:miter;stroke-opacity:1;display:inline"
       d="m 360,732.36211 0,320.00009"
       id="path3010"
       inkscape:connector-curvature="0"
       sodipodi:nodetypes="cc" />
    <path
       style="fill:none;stroke:#ff0000;stroke-width:1px;stroke-linecap:butt;stroke-linejoin:miter;stroke-opacity:1;display:inline"
       d="m 0,742.36208 370,3e-5"
       id="path3016"
       inkscape:connector-curvature="0" />
    <path
       style="fill:none;stroke:#ff0000;stroke-width:1px;stroke-linecap:butt;stroke-linejoin:miter;stroke-opacity:1;display:inline"
       d="m 0,1042.3622 370,0"
       id="path3018"
       inkscape:connector-curvature="0"
       sodipodi:nodetypes="cc" />
  </g>
  <g
     inkscape:groupmode="layer"
     id="layer3"
     inkscape:label="豚"
     sodipodi:insensitive="true">
    <g
       id="g3737"
       transform="matrix(0.999791,0.02044416,-0.02044416,0.999791,22.895167,-11.852076)">
      <path
         sodipodi:nodetypes="ccccccccc"
         inkscape:connector-curvature="0"
         id="path5089-8-7-0-8-2-2-0-8-3-1-2-1"
         d="m 146.84772,233.68311 c 6.5309,-11.78928 5.08616,-35.76134 -8.09803,-45.41487 l -6.69407,-25.43843 -11.40816,-8.68477 -77.649061,58.95011 1.834974,56.62165 11.036325,2.31886 75.326592,-4.83227 z"
         style="fill:#ffd5d5;stroke:#000000;stroke-width:2;stroke-linecap:butt;stroke-linejoin:miter;stroke-opacity:1;display:inline" />
      <path
         sodipodi:nodetypes="csccc"
         inkscape:connector-curvature="0"
         id="path3333-4-1-9-9-1-1-8"
         d="m 41.614043,268.22909 c -10.69519,5.96666 -8.970039,13.59808 -3.426123,16.26822 5.581015,2.68803 28.057905,-1.51823 35.738206,-3.18608 7.720218,1.24085 33.859044,-0.0768 44.553284,-3.21212 33.80442,6.82597 40.97388,-7.68463 22.36826,-16.69081"
         style="fill:#ffd5d5;stroke:#000000;stroke-width:2;stroke-linecap:butt;stroke-linejoin:miter;stroke-opacity:1;display:inline" />
      <path
         sodipodi:nodetypes="cc"
         inkscape:connector-curvature="0"
         id="path3331-0-6-2-0-2-7-9"
         d="m 128.46345,268.82335 c 21.31176,-5.75905 27.92503,-35.36086 14.7464,-62.95272"
         style="fill:#ffd5d5;stroke:#000000;stroke-width:2;stroke-linecap:butt;stroke-linejoin:miter;stroke-opacity:1;display:inline" />
      <path
         sodipodi:nodetypes="cc"
         inkscape:connector-curvature="0"
         id="path3327-4-5-4-1-9-8-2"
         d="m 44.727174,212.16216 c -9.010383,12.97521 -16.278401,50.60307 1.394236,60.17722"
         style="fill:#ffd5d5;stroke:#000000;stroke-width:2;stroke-linecap:butt;stroke-linejoin:miter;stroke-opacity:1;display:inline" />
      <path
         sodipodi:nodetypes="cc"
         inkscape:connector-curvature="0"
         id="path5091-2-40-9-2-82-5-93-3-5-7"
         d="m 112.46222,147.44096 c 15.54213,0.49836 23.82619,10.57275 23.58308,22.0458"
         style="fill:#ffd5d5;stroke:#000000;stroke-width:2;stroke-linecap:butt;stroke-linejoin:miter;stroke-opacity:1;display:inline" />
      <path
         sodipodi:nodetypes="csc"
         inkscape:connector-curvature="0"
         id="path4041-35-3-6-77-1-9"
         d="M 124.6994,154.71797 C 99.643689,131.6608 58.662688,146.45155 48.337582,177.73028 43.456808,192.51603 36.943879,203.67263 43.425653,217.35785"
         style="fill:#ffd5d5;stroke:#000000;stroke-width:2;stroke-linecap:butt;stroke-linejoin:miter;stroke-opacity:1;display:inline" />
      <path
         sodipodi:nodetypes="cc"
         inkscape:connector-curvature="0"
         id="path5093-4-9-4-4-5-9-4-9-2-5"
         d="m 130.21752,163.03308 c 11.21688,8.07966 13.97594,25.1105 7.62333,35.27107"
         style="fill:#ffd5d5;stroke:#000000;stroke-width:2;stroke-linecap:butt;stroke-linejoin:miter;stroke-opacity:1;display:inline" />
      <path
         sodipodi:nodetypes="cc"
         inkscape:connector-curvature="0"
         id="path5095-5-4-8-5-36-6-4-8-7-4"
         d="m 117.55748,159.87072 -0.22687,6.09206"
         style="fill:none;stroke:#000000;stroke-width:2;stroke-linecap:butt;stroke-linejoin:miter;stroke-opacity:1;display:inline" />
      <path
         sodipodi:nodetypes="cc"
         inkscape:connector-curvature="0"
         id="path5097-5-8-8-5-1-3-6-6-9-3"
         d="m 102.25092,164.61586 5.40733,5.08267"
         style="fill:none;stroke:#000000;stroke-width:2;stroke-linecap:butt;stroke-linejoin:miter;stroke-opacity:1;display:inline" />
      <path
         sodipodi:nodetypes="csc"
         inkscape:connector-curvature="0"
         id="path5099-1-8-2-7-8-4-0-5-5-1"
         d="m 62.131953,159.55311 c -23.915366,12.69999 -19.220392,40.46667 -7.054522,43.39556 6.387533,1.53775 12.798819,-17.84898 19.561283,-24.25348"
         style="fill:#ffd5d5;stroke:#000000;stroke-width:2;stroke-linecap:butt;stroke-linejoin:miter;stroke-opacity:1;display:inline" />
      <path
         sodipodi:nodetypes="ssssss"
         inkscape:connector-curvature="0"
         id="path5101-7-2-4-1-62-2-6-0-4-2"
         d="m 116.76146,167.49619 c -7.44878,2.32607 -13.34655,11.73493 -15.00484,18.54407 -2.285403,9.38388 2.92261,13.80263 9.97433,10.83179 4.46795,-1.88222 10.86434,-4.59936 16.12264,-4.33439 6.15061,0.30964 6.2246,-7.43246 4.32593,-13.06753 -2.01202,-5.97181 -8.71176,-14.06814 -15.41806,-11.97394 z"
         style="fill:#ffaaaa;stroke:#000000;stroke-width:2;stroke-linecap:butt;stroke-linejoin:miter;stroke-opacity:1;display:inline" />
      <path
         sodipodi:nodetypes="sss"
         inkscape:connector-curvature="0"
         id="path5105-1-4-55-1-28-146-8-6-2-3-3"
         d="m 112.75842,189.58461 c 1.58486,0.98683 3.28215,-13.0427 2.37563,-13.4296 -1.7482,-0.74621 -6.89282,10.61665 -2.37563,13.4296 z"
         style="fill:#000000;stroke:#000000;stroke-width:2;display:inline" />
      <path
         sodipodi:nodetypes="sss"
         inkscape:connector-curvature="0"
         id="path5107-1-5-1-5-29-8-1-8-1-3"
         d="m 121.09771,174.78039 c -0.9676,0.23643 3.14811,13.48649 4.01808,11.48711 2.17047,-4.98831 -3.15146,-11.6987 -4.01808,-11.48711 z"
         style="fill:#000000;stroke:#000000;stroke-width:2;display:inline" />
      <path
         sodipodi:nodetypes="csssc"
         inkscape:connector-curvature="0"
         id="path5089-8-7-0-8-2-2-0-8-1-6-2-4"
         d="m 87.528024,199.03794 c -1.913506,-17.90381 -3.232387,-43.70068 -7.779438,-45.61807 -1.566455,-0.66042 -3.961131,1.83562 -6.483047,1.21133 -2.538663,-0.62816 -4.858479,-5.12481 -6.833293,-4.35134 -6.990154,2.73812 -21.958669,39.01892 -18.801764,58.60144"
         style="fill:#ffd5d5;stroke:none;display:inline" />
      <path
         sodipodi:nodetypes="sssccs"
         inkscape:connector-curvature="0"
         id="path5089-8-7-0-8-2-2-0-8-8-7-3-1"
         d="m 79.52794,153.66065 c -1.483007,-0.83104 -5.070285,1.95028 -7.592201,1.32599 -2.538809,-0.62767 -3.663759,-4.96884 -5.724158,-4.46583 -2.809767,0.68623 -5.9606,6.22114 -5.9606,6.22114 -3.635277,5.73651 19.705495,12.46018 22.663146,7.53052 0,0 -0.474243,-8.98005 -3.386187,-10.61182 z"
         style="fill:#ffaaaa;stroke:none;display:inline" />
      <path
         sodipodi:nodetypes="cc"
         inkscape:connector-curvature="0"
         id="path5111-7-1-7-7-7-6-4-50-4-3-1"
         d="m 60.55217,157.66815 c -3.635287,5.7365 21.0433,11.62542 24.000989,6.69544"
         style="fill:none;stroke:#000000;stroke-width:2;stroke-linecap:butt;stroke-linejoin:miter;stroke-opacity:1;display:inline" />
      <path
         sodipodi:nodetypes="csssc"
         inkscape:connector-curvature="0"
         id="path5089-8-7-0-8-2-2-0-8-1-4-3"
         d="m 87.677112,199.10729 c -1.913515,-17.90381 -3.232396,-43.70069 -7.779447,-45.61807 -1.566455,-0.66041 -3.961131,1.83561 -6.483047,1.21133 -2.538664,-0.62817 -4.858469,-5.1248 -6.833283,-4.35133 -6.990164,2.7381 -21.958679,39.01891 -18.801774,58.60142"
         style="fill:none;stroke:#000000;stroke-width:2;stroke-linecap:butt;stroke-linejoin:miter;stroke-opacity:1;display:inline" />
    </g>
    <g
       id="g3716"
       transform="matrix(0.99710051,0.07609578,-0.07609578,0.99710051,38.945583,-21.159331)">
      <path
         sodipodi:nodetypes="cscccccc"
         inkscape:connector-curvature="0"
         id="path5103-8-1-4-9-3-9-0-4-7"
         d="m 227.81121,281.55552 c -13.38501,3.10151 -27.91111,4.58273 -33.88652,-0.69912 -4.59503,-4.06175 -0.62883,-13.35726 7.10444,-17.19015 l 0.70924,-58.33145 14.63151,-39.55452 11.03496,-10.78854 70.74117,61.0329 z"
         style="fill:#ffd5d5;stroke:#000000;stroke-width:2;stroke-linecap:butt;stroke-linejoin:miter;stroke-opacity:1;display:inline" />
      <path
         sodipodi:nodetypes="csssc"
         inkscape:connector-curvature="0"
         id="path5089-8-7-0-8-2-2-0-8-3-4-8-4"
         d="m 225.9752,158.53459 c 0.0846,-6.94985 -3.13569,-11.44902 -4.92762,-11.82972 -1.81087,-0.38473 -1.86542,2.55281 -4.83208,1.66794 -2.42535,-0.72342 -3.50931,-6.3158 -6.83324,-3.18728 -6.3089,5.93803 -9.67823,45.57279 -9.40655,68.756"
         style="fill:#ffd5d5;stroke:none;display:inline" />
      <path
         sodipodi:nodetypes="ccsssc"
         inkscape:connector-curvature="0"
         id="path5111-7-1-7-7-7-6-4-50-6-82-5-2"
         d="m 205.11308,155.9397 c 3.7412,-2.77166 17.63838,-2.74489 21.67598,-0.17853 0,0 -3.57359,-8.94374 -5.36551,-9.32444 -1.81087,-0.38473 -1.86542,2.55281 -4.83208,1.66794 -2.42535,-0.72342 -3.47691,-6.28101 -6.83325,-3.18728 -3.88155,3.57787 -4.64514,11.02231 -4.64514,11.02231 z"
         style="fill:#ffaaaa;stroke:none;display:inline" />
      <path
         sodipodi:nodetypes="cc"
         inkscape:connector-curvature="0"
         id="path5111-7-1-7-7-7-6-4-50-6-82-7"
         d="m 204.71295,156.09187 c 3.74119,-2.77164 17.63838,-2.74488 21.67597,-0.17852"
         style="fill:none;stroke:#000000;stroke-width:2;stroke-linecap:butt;stroke-linejoin:miter;stroke-opacity:1;display:inline" />
      <path
         sodipodi:nodetypes="csssc"
         inkscape:connector-curvature="0"
         id="path5089-8-7-0-8-2-2-0-8-3-4-7"
         d="m 225.95102,158.41863 c 0.0846,-6.94985 -3.13568,-11.44901 -4.92761,-11.82971 -1.81087,-0.38474 -1.86542,2.55281 -4.83208,1.66794 -2.42535,-0.72342 -3.50932,-6.3158 -6.83324,-3.18728 -6.3089,5.93803 -9.67823,45.57278 -9.40655,68.75599"
         style="fill:none;stroke:#000000;stroke-width:2;stroke-linecap:butt;stroke-linejoin:miter;stroke-opacity:1;display:inline" />
      <path
         sodipodi:nodetypes="cc"
         inkscape:connector-curvature="0"
         id="path3331-0-6-2-0-1-9"
         d="m 202.38585,267.69369 c -10.32294,-8.33322 -16.22606,-37.36685 0.946,-61.93662"
         style="fill:#ffd5d5;stroke:#000000;stroke-width:2;stroke-linecap:butt;stroke-linejoin:miter;stroke-opacity:1;display:inline" />
      <path
         sodipodi:nodetypes="ccscc"
         inkscape:connector-curvature="0"
         id="path3327-4-5-4-1-5-3"
         d="m 299.26803,212.6121 c 7.29605,16.39545 9.76222,30.84282 6.73672,52.59469 2.13908,14.85765 0.83668,20.47842 -2.63302,22.49345 -5.47264,3.17826 -20.61093,0.75595 -32.08853,-3.71026 -13.8189,0.90033 -39.49191,0.81797 -58.02995,-5.58326"
         style="fill:#ffd5d5;stroke:#000000;stroke-width:2;stroke-linecap:butt;stroke-linejoin:miter;stroke-opacity:1;display:inline" />
      <path
         sodipodi:nodetypes="sssccs"
         inkscape:connector-curvature="0"
         id="path5089-8-7-0-8-2-2-0-8-8-1-1"
         d="m 266.10606,260.27288 c 1.57212,0.49184 4.41802,-2.86173 6.9339,-2.77343 2.53259,0.0881 4.46626,3.97974 6.31939,3.09116 2.5271,-1.21177 4.4093,-7.08903 4.4093,-7.08903 2.30121,-6.16525 -21.17271,-7.87904 -22.99257,-2.61413 0,0 2.24308,8.41987 5.32998,9.38543 z"
         style="fill:#ffaaaa;stroke:none;display:inline" />
      <path
         sodipodi:nodetypes="cc"
         inkscape:connector-curvature="0"
         id="path5111-7-1-7-7-7-6-4-50-7-9"
         d="m 283.45232,253.73815 c 2.30123,-6.16533 -21.17271,-7.87912 -22.99255,-2.61406"
         style="fill:none;stroke:#000000;stroke-width:2;stroke-linecap:butt;stroke-linejoin:miter;stroke-opacity:1;display:inline" />
      <path
         sodipodi:nodetypes="csssc"
         inkscape:connector-curvature="0"
         id="path5089-8-7-0-8-2-2-0-8-7-8"
         d="m 253.29336,225.22653 c 2.04225,14.57013 9.4095,34.31725 12.49636,35.28284 1.57218,0.49179 4.41804,-2.86164 6.93392,-2.77345 2.5326,0.0888 4.40325,3.8342 6.31937,3.09127 3.92902,-1.52339 11.6037,-24.12029 10.93994,-31.30182"
         style="fill:none;stroke:#000000;stroke-width:2;stroke-linecap:butt;stroke-linejoin:miter;stroke-opacity:1;display:inline" />
      <path
         sodipodi:nodetypes="cc"
         inkscape:connector-curvature="0"
         id="path5091-2-40-9-2-82-5-93-5-6"
         d="m 237.22575,150.31217 c -14.99911,-0.69626 -25.26977,8.86768 -23.46953,21.97093"
         style="fill:#ffd5d5;stroke:#000000;stroke-width:2;stroke-linecap:butt;stroke-linejoin:miter;stroke-opacity:1;display:inline" />
      <path
         sodipodi:nodetypes="csc"
         inkscape:connector-curvature="0"
         id="path4041-35-3-6-1-5"
         d="m 225.98099,157.08416 c 24.63136,-22.61275 60.25699,-6.19102 70.28441,18.77283 7.22099,17.97709 9.21115,34.93904 2.60528,44.15981"
         style="fill:#ffd5d5;stroke:#000000;stroke-width:2;stroke-linecap:butt;stroke-linejoin:miter;stroke-opacity:1;display:inline" />
      <path
         sodipodi:nodetypes="cc"
         inkscape:connector-curvature="0"
         id="path5093-4-9-4-4-5-9-4-6-0"
         d="m 217.55563,166.57209 c -10.66059,9.08311 -13.09448,24.15962 -7.04846,35.49408"
         style="fill:#ffd5d5;stroke:#000000;stroke-width:2;stroke-linecap:butt;stroke-linejoin:miter;stroke-opacity:1;display:inline" />
      <path
         sodipodi:nodetypes="cc"
         inkscape:connector-curvature="0"
         id="path5095-5-4-8-5-36-6-4-1-2"
         d="m 231.12033,163.71966 -0.24375,5.38659"
         style="fill:none;stroke:#000000;stroke-width:2;stroke-linecap:butt;stroke-linejoin:miter;stroke-opacity:1;display:inline" />
      <path
         sodipodi:nodetypes="cc"
         inkscape:connector-curvature="0"
         id="path5097-5-8-8-5-1-3-6-4-8"
         d="m 247.98183,168.48314 -7.75593,5.00403"
         style="fill:none;stroke:#000000;stroke-width:2;stroke-linecap:butt;stroke-linejoin:miter;stroke-opacity:1;display:inline" />
      <path
         sodipodi:nodetypes="csc"
         inkscape:connector-curvature="0"
         id="path5099-1-8-2-7-8-4-0-23-6"
         d="m 280.40003,161.43527 c 24.13501,8.32746 19.8296,35.81733 8.3165,40.89886 -5.82414,2.57059 -11.85519,-16.92866 -17.62158,-23.36918"
         style="fill:#ffd5d5;stroke:#000000;stroke-width:2;stroke-linecap:butt;stroke-linejoin:miter;stroke-opacity:1;display:inline" />
      <path
         sodipodi:nodetypes="ssssss"
         inkscape:connector-curvature="0"
         id="path5101-7-2-4-1-62-2-6-2-0"
         d="m 230.70259,171.08289 c 7.94439,2.36697 13.27879,11.66606 15.42625,18.10824 2.95955,8.87838 -1.27209,15.55804 -7.91636,12.26705 -4.9712,-2.4623 -11.50183,-4.69364 -16.60348,-4.69822 -6.71295,-0.006 -7.93502,-7.84276 -6.08107,-13.29828 2.33065,-6.85827 9.02085,-14.21228 15.17466,-12.37879 z"
         style="fill:#ffaaaa;stroke:#000000;stroke-width:2;stroke-linecap:butt;stroke-linejoin:miter;stroke-opacity:1;display:inline" />
      <path
         sodipodi:nodetypes="sss"
         inkscape:connector-curvature="0"
         id="path5105-1-4-55-1-28-146-8-6-21-2"
         d="m 235.90742,193.47934 c -2.18752,2.18984 -3.60516,-13.31659 -2.74659,-13.32831 1.01736,-0.0139 6.62853,9.44228 2.74659,13.32831 z"
         style="fill:#000000;stroke:#000000;stroke-width:2;display:inline" />
      <path
         sodipodi:nodetypes="sss"
         inkscape:connector-curvature="0"
         id="path5107-1-5-1-5-29-8-1-6-4"
         d="m 226.96156,178.55421 c 1.59228,0.28868 -2.42758,13.66795 -3.47585,11.83353 -2.95959,-5.1792 2.79608,-11.95678 3.47585,-11.83353 z"
         style="fill:#000000;stroke:#000000;stroke-width:2;display:inline" />
    </g>
    <g
       id="g3479"
       transform="translate(-12.366649,-244.49546)">
      <path
         sodipodi:nodetypes="ccccccccc"
         inkscape:connector-curvature="0"
         id="path5089-8-7-0-8-2-2-0-8-3-1-2"
         d="m 254.20831,487.54872 c -6.72283,-12.13574 -5.23563,-36.81229 8.33601,-46.74952 l 6.8908,-26.18602 11.74342,-8.93999 79.93101,60.68253 -1.8889,58.28565 -11.36066,2.387 -77.54029,-4.97428 z"
         style="fill:#ffd5d5;stroke:#000000;stroke-width:2;stroke-linecap:butt;stroke-linejoin:miter;stroke-opacity:1;display:inline" />
      <path
         sodipodi:nodetypes="csccc"
         inkscape:connector-curvature="0"
         id="path3333-4-1-9-9-1-1"
         d="m 362.53459,523.10994 c 11.0095,6.142 9.23365,13.99769 3.52681,16.74631 -5.74503,2.76702 -28.88247,-1.56285 -36.78848,-3.27972 -7.9471,1.27732 -34.85409,-0.0791 -45.86262,-3.30651 -34.79786,7.02657 -42.17801,-7.91047 -23.02561,-17.18132"
         style="fill:#ffd5d5;stroke:#000000;stroke-width:2;stroke-linecap:butt;stroke-linejoin:miter;stroke-opacity:1;display:inline" />
      <path
         sodipodi:nodetypes="cc"
         inkscape:connector-curvature="0"
         id="path3331-0-6-2-0-2-7"
         d="m 273.13285,523.72166 c -21.93806,-5.9283 -28.74569,-36.40005 -15.17976,-64.80277"
         style="fill:#ffd5d5;stroke:#000000;stroke-width:2;stroke-linecap:butt;stroke-linejoin:miter;stroke-opacity:1;display:inline" />
      <path
         sodipodi:nodetypes="cc"
         inkscape:connector-curvature="0"
         id="path3327-4-5-4-1-9-8"
         d="m 359.32997,465.39531 c 9.27518,13.35653 16.75679,52.09019 -1.43521,61.94571"
         style="fill:#ffd5d5;stroke:#000000;stroke-width:2;stroke-linecap:butt;stroke-linejoin:miter;stroke-opacity:1;display:inline" />
      <path
         sodipodi:nodetypes="cc"
         inkscape:connector-curvature="0"
         id="path5091-2-40-9-2-82-5-93-3-5"
         d="m 289.60433,398.77209 c -15.99888,0.513 -24.5264,10.88346 -24.27614,22.69368"
         style="fill:#ffd5d5;stroke:#000000;stroke-width:2;stroke-linecap:butt;stroke-linejoin:miter;stroke-opacity:1;display:inline" />
      <path
         sodipodi:nodetypes="csc"
         inkscape:connector-curvature="0"
         id="path4041-35-3-6-77-1"
         d="m 277.00752,406.26295 c 25.79205,-23.73477 67.9774,-8.50935 78.60594,23.6886 5.02421,15.22027 11.72854,26.70474 5.05628,40.79214"
         style="fill:#ffd5d5;stroke:#000000;stroke-width:2;stroke-linecap:butt;stroke-linejoin:miter;stroke-opacity:1;display:inline" />
      <path
         sodipodi:nodetypes="cc"
         inkscape:connector-curvature="0"
         id="path5093-4-9-4-4-5-9-4-9-2"
         d="m 271.32724,414.82243 c -11.54653,8.3171 -14.38667,25.84844 -7.84737,36.30761"
         style="fill:#ffd5d5;stroke:#000000;stroke-width:2;stroke-linecap:butt;stroke-linejoin:miter;stroke-opacity:1;display:inline" />
      <path
         sodipodi:nodetypes="cc"
         inkscape:connector-curvature="0"
         id="path5095-5-4-8-5-36-6-4-8-7"
         d="m 284.35933,411.56713 0.23354,6.2711"
         style="fill:none;stroke:#000000;stroke-width:2;stroke-linecap:butt;stroke-linejoin:miter;stroke-opacity:1;display:inline" />
      <path
         sodipodi:nodetypes="cc"
         inkscape:connector-curvature="0"
         id="path5097-5-8-8-5-1-3-6-6-9"
         d="m 300.11572,416.45172 -5.56624,5.23204"
         style="fill:none;stroke:#000000;stroke-width:2;stroke-linecap:butt;stroke-linejoin:miter;stroke-opacity:1;display:inline" />
      <path
         sodipodi:nodetypes="csc"
         inkscape:connector-curvature="0"
         id="path5099-1-8-2-7-8-4-0-5-5"
         d="m 341.4137,411.24019 c 24.61819,13.07322 19.78524,41.6559 7.26184,44.67087 -6.57525,1.58294 -13.17495,-18.37353 -20.13615,-24.96625"
         style="fill:#ffd5d5;stroke:#000000;stroke-width:2;stroke-linecap:butt;stroke-linejoin:miter;stroke-opacity:1;display:inline" />
      <path
         sodipodi:nodetypes="ssssss"
         inkscape:connector-curvature="0"
         id="path5101-7-2-4-1-62-2-6-0-4"
         d="m 285.17874,419.4167 c 7.66769,2.39443 13.73878,12.07979 15.4458,19.08904 2.35257,9.65966 -3.0085,14.20826 -10.26745,11.15012 -4.59926,-1.93754 -11.18362,-4.73453 -16.59645,-4.46177 -6.33137,0.31874 -6.40753,-7.65089 -4.45306,-13.45156 2.07115,-6.14731 8.96778,-14.48158 15.87116,-12.32583 z"
         style="fill:#ffaaaa;stroke:#000000;stroke-width:2;stroke-linecap:butt;stroke-linejoin:miter;stroke-opacity:1;display:inline" />
      <path
         sodipodi:nodetypes="sss"
         inkscape:connector-curvature="0"
         id="path5105-1-4-55-1-28-146-8-6-2-3"
         d="m 289.29942,442.15425 c -1.63143,1.01583 -3.3786,-13.426 -2.44544,-13.82427 1.79957,-0.76814 7.09538,10.92866 2.44544,13.82427 z"
         style="fill:#000000;stroke:#000000;stroke-width:2;display:inline" />
      <path
         sodipodi:nodetypes="sss"
         inkscape:connector-curvature="0"
         id="path5107-1-5-1-5-29-8-1-8-1"
         d="m 280.71506,426.91497 c 0.99603,0.24338 -3.24063,13.88283 -4.13616,11.82469 -2.23426,-5.13491 3.24407,-12.0425 4.13616,-11.82469 z"
         style="fill:#000000;stroke:#000000;stroke-width:2;display:inline" />
      <path
         sodipodi:nodetypes="csssc"
         inkscape:connector-curvature="0"
         id="path5089-8-7-0-8-2-2-0-8-1-6-2"
         d="m 315.27129,451.8854 c 1.96974,-18.42997 3.32738,-44.98496 8.00806,-46.9587 1.61249,-0.67982 4.07754,1.88957 6.67357,1.24693 2.61327,-0.64662 5.00126,-5.27541 7.03411,-4.47921 7.19558,2.81858 22.60399,40.1656 19.35431,60.32361"
         style="fill:#ffd5d5;stroke:none;display:inline" />
      <path
         sodipodi:nodetypes="sssccs"
         inkscape:connector-curvature="0"
         id="path5089-8-7-0-8-2-2-0-8-8-7-3"
         d="m 323.50648,405.17456 c 1.52659,-0.85546 5.21929,2.0076 7.81532,1.36496 2.61342,-0.64612 3.77143,-5.11487 5.89238,-4.59707 2.89234,0.70639 6.13577,6.40396 6.13577,6.40396 3.74211,5.9051 -20.2846,12.82636 -23.32917,7.75183 0,0 0.48818,-9.24396 3.4857,-10.92368 z"
         style="fill:#ffaaaa;stroke:none;display:inline" />
      <path
         sodipodi:nodetypes="cc"
         inkscape:connector-curvature="0"
         id="path5111-7-1-7-7-7-6-4-50-4-3"
         d="m 343.03991,409.29983 c 3.74212,5.90509 -21.66172,11.96707 -24.70633,6.89221"
         style="fill:none;stroke:#000000;stroke-width:2;stroke-linecap:butt;stroke-linejoin:miter;stroke-opacity:1;display:inline" />
      <path
         sodipodi:nodetypes="csssc"
         inkscape:connector-curvature="0"
         id="path5089-8-7-0-8-2-2-0-8-1-4"
         d="m 315.11782,451.95679 c 1.96975,-18.42997 3.32739,-44.98497 8.00807,-46.9587 1.61249,-0.67982 4.07754,1.88956 6.67357,1.24693 2.61327,-0.64663 5.00125,-5.27541 7.0341,-4.47921 7.19559,2.81857 22.604,40.1656 19.35432,60.3236"
         style="fill:none;stroke:#000000;stroke-width:2;stroke-linecap:butt;stroke-linejoin:miter;stroke-opacity:1;display:inline" />
    </g>
    <g
       id="g3294"
       transform="translate(173.01277,-23.255158)">
      <path
         sodipodi:nodetypes="cscccccc"
         inkscape:connector-curvature="0"
         id="path5103-8-1-4-9-3-9-0-4"
         d="m -79.488656,312.73552 c 13.77837,3.19265 28.73137,4.7174 34.882381,-0.71967 4.730072,-4.18111 0.647305,-13.7498 -7.313221,-17.69533 l -0.73009,-60.0457 -15.0615,-40.71694 -11.35925,-11.1056 -72.820114,62.82654 z"
         style="fill:#ffd5d5;stroke:#000000;stroke-width:2;stroke-linecap:butt;stroke-linejoin:miter;stroke-opacity:1;display:inline" />
      <path
         sodipodi:nodetypes="csssc"
         inkscape:connector-curvature="0"
         id="path5089-8-7-0-8-2-2-0-8-3-4-8"
         d="m -77.598686,186.09925 c -0.0871,-7.15409 3.22784,-11.78548 5.07243,-12.17737 1.86409,-0.39604 1.92024,2.62783 4.97409,1.71696 2.49662,-0.74468 3.01372,-5.71318 7.03405,-3.28095 10.863968,6.5725 15.597124,47.50518 9.682994,70.7766"
         style="fill:#ffd5d5;stroke:none;display:inline" />
      <path
         sodipodi:nodetypes="ccsssc"
         inkscape:connector-curvature="0"
         id="path5111-7-1-7-7-7-6-4-50-6-82-5"
         d="m -53.795567,183.18045 c -3.85115,-2.85311 -20.484639,-2.5779 -24.640899,0.0639 0,0 3.67861,-9.20658 5.52319,-9.59847 1.86409,-0.39604 1.92025,2.62783 4.97409,1.71696 2.49663,-0.74468 3.57909,-6.4656 7.03406,-3.28095 3.99563,3.68302 7.109559,11.09858 7.109559,11.09858 z"
         style="fill:#ffaaaa;stroke:none;display:inline" />
      <path
         sodipodi:nodetypes="cc"
         inkscape:connector-curvature="0"
         id="path5111-7-1-7-7-7-6-4-50-6-82"
         d="m -53.482737,183.63428 c -3.85114,-2.8531 -20.385579,-2.87508 -24.541829,-0.2333"
         style="fill:none;stroke:#000000;stroke-width:2;stroke-linecap:butt;stroke-linejoin:miter;stroke-opacity:1;display:inline" />
      <path
         sodipodi:nodetypes="csssc"
         inkscape:connector-curvature="0"
         id="path5089-8-7-0-8-2-2-0-8-3-4"
         d="m -77.573796,185.97988 c -0.0871,-7.15409 3.22783,-11.78547 5.07242,-12.17736 1.86409,-0.39604 1.92024,2.62783 4.97409,1.71696 2.49662,-0.74468 3.218776,-6.02365 7.03405,-3.28095 11.022609,7.92386 15.957239,49.3099 9.682996,70.77659"
         style="fill:none;stroke:#000000;stroke-width:2;stroke-linecap:butt;stroke-linejoin:miter;stroke-opacity:1;display:inline" />
      <path
         sodipodi:nodetypes="cc"
         inkscape:connector-curvature="0"
         id="path3331-0-6-2-0-1"
         d="m -53.316096,298.46632 c 10.626318,-8.57812 16.702912,-38.46499 -0.9738,-63.75682"
         style="fill:#ffd5d5;stroke:#000000;stroke-width:2;stroke-linecap:butt;stroke-linejoin:miter;stroke-opacity:1;display:inline" />
      <path
         sodipodi:nodetypes="ccscc"
         inkscape:connector-curvature="0"
         id="path3327-4-5-4-1-5"
         d="m -153.04545,241.76599 c -7.51046,16.87728 -10.04911,31.74923 -6.9347,54.14034 -2.20194,15.29429 -0.86126,21.08024 2.7104,23.15449 5.63347,3.27166 21.21665,0.77816 33.03155,-3.8193 14.22501,0.92679 40.652504,0.84201 59.735334,-5.74734"
         style="fill:#ffd5d5;stroke:#000000;stroke-width:2;stroke-linecap:butt;stroke-linejoin:miter;stroke-opacity:1;display:inline" />
      <path
         sodipodi:nodetypes="sssccs"
         inkscape:connector-curvature="0"
         id="path5089-8-7-0-8-2-2-0-8-7-7"
         d="m -131.95087,288.29817 c -3.85066,0.85839 -2.96914,-4.19408 -6.42617,-4.26245 -2.60813,-0.0516 -3.98536,4.35598 -6.56666,2.28717 -3.36774,-2.69911 -4.02002,-10.06848 -4.02002,-10.06848 -0.30663,-7.01415 24.41969,-1.91679 23.77087,5.07866 0,0 -3.69739,6.28283 -6.75802,6.9651 z"
         style="fill:#ffaaaa;stroke:none;display:inline" />
      <path
         sodipodi:nodetypes="cc"
         inkscape:connector-curvature="0"
         id="path5111-7-1-7-7-7-6-4-50-7"
         d="m -149.07899,276.50737 c -0.30663,-7.01415 24.41969,-1.91679 23.77087,5.07866"
         style="fill:none;stroke:#000000;stroke-width:2;stroke-linecap:butt;stroke-linejoin:miter;stroke-opacity:1;display:inline" />
      <path
         sodipodi:nodetypes="csssc"
         inkscape:connector-curvature="0"
         id="path5089-8-7-0-8-2-2-0-8-7"
         d="m -112.03223,254.95658 c -4.7041,14.39586 -15.19021,32.02074 -20.03391,33.59455 -3.75209,1.21912 -2.96914,-4.19408 -6.42617,-4.26245 -2.60813,-0.0516 -4.06475,4.45131 -6.56666,2.28717 -4.95269,-4.28406 -6.40705,-25.45157 -4.83212,-32.21295"
         style="fill:none;stroke:#000000;stroke-width:2;stroke-linecap:butt;stroke-linejoin:miter;stroke-opacity:1;display:inline" />
      <path
         sodipodi:nodetypes="cc"
         inkscape:connector-curvature="0"
         id="path5091-2-40-9-2-82-5-93-5"
         d="m -89.179866,177.63519 c 15.4399,-0.71672 26.0124,9.12828 24.15925,22.61661"
         style="fill:#ffd5d5;stroke:#000000;stroke-width:2;stroke-linecap:butt;stroke-linejoin:miter;stroke-opacity:1;display:inline" />
      <path
         sodipodi:nodetypes="csc"
         inkscape:connector-curvature="0"
         id="path4041-35-3-6-1"
         d="m -77.604646,184.6062 c -25.355234,-23.2773 -62.027824,-6.37297 -72.349934,19.32452 -7.4332,18.5054 -9.48184,35.96583 -2.68184,45.45758"
         style="fill:#ffd5d5;stroke:#000000;stroke-width:2;stroke-linecap:butt;stroke-linejoin:miter;stroke-opacity:1;display:inline" />
      <path
         sodipodi:nodetypes="cc"
         inkscape:connector-curvature="0"
         id="path5093-4-9-4-4-5-9-4-6"
         d="m -68.931686,194.37296 c 10.97389,9.35004 13.47931,24.86962 7.2556,36.53718"
         style="fill:#ffd5d5;stroke:#000000;stroke-width:2;stroke-linecap:butt;stroke-linejoin:miter;stroke-opacity:1;display:inline" />
      <path
         sodipodi:nodetypes="cc"
         inkscape:connector-curvature="0"
         id="path5095-5-4-8-5-36-6-4-1"
         d="m -82.895016,191.4367 0.25091,5.54489"
         style="fill:none;stroke:#000000;stroke-width:2;stroke-linecap:butt;stroke-linejoin:miter;stroke-opacity:1;display:inline" />
      <path
         sodipodi:nodetypes="cc"
         inkscape:connector-curvature="0"
         id="path5097-5-8-8-5-1-3-6-4"
         d="m -100.25205,196.34017 7.983864,5.15109"
         style="fill:none;stroke:#000000;stroke-width:2;stroke-linecap:butt;stroke-linejoin:miter;stroke-opacity:1;display:inline" />
      <path
         sodipodi:nodetypes="csc"
         inkscape:connector-curvature="0"
         id="path5099-1-8-2-7-8-4-0-23"
         d="m -133.62296,189.08518 c -24.84428,8.57218 -20.41235,36.86993 -8.5609,42.10079 5.9953,2.64614 12.20359,-17.42616 18.13944,-24.05595"
         style="fill:#ffd5d5;stroke:#000000;stroke-width:2;stroke-linecap:butt;stroke-linejoin:miter;stroke-opacity:1;display:inline" />
      <path
         sodipodi:nodetypes="ssssss"
         inkscape:connector-curvature="0"
         id="path5101-7-2-4-1-62-2-6-2"
         d="m -82.465006,199.01632 c -8.17786,2.43653 -13.66902,12.0089 -15.87959,18.64041 -3.046534,9.13929 1.30947,16.01525 8.149,12.62755 5.1173,-2.53466 11.83985,-4.83158 17.09142,-4.83629 6.91023,-0.006 8.16822,-8.07324 6.25978,-13.68909 -2.39914,-7.05982 -9.28595,-14.62995 -15.62061,-12.74258 z"
         style="fill:#ffaaaa;stroke:#000000;stroke-width:2;stroke-linecap:butt;stroke-linejoin:miter;stroke-opacity:1;display:inline" />
      <path
         sodipodi:nodetypes="sss"
         inkscape:connector-curvature="0"
         id="path5105-1-4-55-1-28-146-8-6-21"
         d="m -87.822796,222.07096 c 2.25181,2.25419 3.71111,-13.70794 2.82731,-13.72 -1.04726,-0.0143 -6.82333,9.71976 -2.82731,13.72 z"
         style="fill:#000000;stroke:#000000;stroke-width:2;display:inline" />
      <path
         sodipodi:nodetypes="sss"
         inkscape:connector-curvature="0"
         id="path5107-1-5-1-5-29-8-1-6"
         d="m -78.614036,206.70721 c -1.63907,0.29716 2.49893,14.06962 3.578,12.18129 3.04657,-5.3314 -2.87825,-12.30816 -3.578,-12.18129 z"
         style="fill:#000000;stroke:#000000;stroke-width:2;display:inline" />
    </g>
    <g
       id="g3292"
       transform="translate(75.700163,-219.86527)">
      <path
         sodipodi:nodetypes="csssc"
         inkscape:connector-curvature="0"
         id="path5089-8-7-0-8-2-8-2-9-4-7"
         d="m 142.74972,358.78811 c 0.71571,-5.91466 1.95547,-12.2125 4.80945,-13.06596 2.89029,-0.86432 4.95397,3.66303 7.57102,3.80528 3.37035,0.18322 4.55938,-4.28015 6.25756,-2.97856 8.09759,6.20641 14.00028,44.09549 9.27332,78.66623"
         style="fill:#ffd5d5;stroke:none;display:inline" />
      <path
         sodipodi:nodetypes="ccsssc"
         inkscape:connector-curvature="0"
         id="path5111-7-1-7-7-7-7-8-8-1-4"
         d="m 167.72435,359.76491 c -3.78054,-3.59009 -20.10793,-5.31574 -26.841,-1.42996 0.48135,-5.37517 3.52226,-11.89696 6.37624,-12.75043 2.89029,-0.86431 4.95398,3.66303 7.57103,3.8053 3.37034,0.18319 4.09966,-3.91151 6.02516,-2.97858 3.67325,1.77972 6.86857,13.35367 6.86857,13.35367 z"
         style="fill:#ffaaaa;stroke:none;display:inline" />
      <path
         sodipodi:nodetypes="csssc"
         inkscape:connector-curvature="0"
         id="path5089-8-7-0-8-2-8-2-9-0"
         d="m 140.78671,359.05317 c 0.71571,-5.91466 3.75663,-12.43647 6.61061,-13.28993 2.89029,-0.86432 4.48919,3.43064 7.10624,3.57289 3.37035,0.1832 4.90797,-4.04776 6.60615,-2.74619 8.09758,6.20643 14.11647,44.09551 9.38951,78.66625"
         style="fill:none;stroke:#000000;stroke-width:2;stroke-linecap:butt;stroke-linejoin:miter;stroke-opacity:1;display:inline" />
      <path
         sodipodi:nodetypes="csscccccccc"
         inkscape:connector-curvature="0"
         id="path3327-4-35-4-3-1-4-0-4-4"
         d="m 48.997674,406.57284 c -19.242254,19.76887 -20.206733,56.89967 -15.400362,60.56395 1.611838,1.22885 3.422945,-2.47437 5.299396,-2.67337 1.908932,-0.2025 3.106032,2.829 4.044812,3.16244 l 8.524378,32.40431 19.441886,11.34002 69.807746,-0.0911 24.00179,-10.19386 7.08477,-81.07502 -11.67872,-37.1798 z"
         style="fill:#ffd5d5;stroke:none;display:inline" />
      <path
         sodipodi:nodetypes="ccsscc"
         inkscape:connector-curvature="0"
         id="path5111-7-1-7-7-7-7-8-8-7-9-8"
         d="m 43.603076,456.36514 c -2.332889,-1.20666 -9.190558,-2.01152 -12.56753,0.0787 0,0 -0.126106,8.20812 2.984748,10.69299 1.58364,1.26497 3.422945,-2.47451 5.299396,-2.67348 1.908932,-0.20242 3.106032,2.82906 4.044813,3.16251 z"
         style="fill:#ffaaaa;stroke:none;display:inline" />
      <path
         sodipodi:nodetypes="cc"
         inkscape:connector-curvature="0"
         id="path3333-4-88-2-2-4-8"
         d="m 169.88792,493.49088 c 25.93769,15.14205 4.58131,27.71117 -36.10257,18.89391"
         style="fill:#ffd5d5;stroke:#000000;stroke-width:2;stroke-linecap:butt;stroke-linejoin:miter;stroke-opacity:1;display:inline" />
      <path
         sodipodi:nodetypes="cc"
         inkscape:connector-curvature="0"
         id="path3333-4-88-2-2-7-6-2"
         d="m 80.093096,512.56309 c -43.0902,8.82612 -54.734557,-4.52039 -33.185164,-20.85608"
         style="fill:#ffd5d5;stroke:#000000;stroke-width:2;stroke-linecap:butt;stroke-linejoin:miter;stroke-opacity:1;display:inline" />
      <path
         sodipodi:nodetypes="cc"
         inkscape:connector-curvature="0"
         id="path3331-0-2-0-3-8-1"
         d="M 53.262808,499.60165 C 41.413166,493.87135 40.463164,459.74309 48.166135,443.55576"
         style="fill:#ffd5d5;stroke:#000000;stroke-width:2;stroke-linecap:butt;stroke-linejoin:miter;stroke-opacity:1;display:inline" />
      <path
         sodipodi:nodetypes="cc"
         inkscape:connector-curvature="0"
         id="path3327-4-35-4-3-0-5"
         d="m 170.2519,415.0328 c 12.08081,28.9077 15.21323,71.6597 -8.22539,84.52948"
         style="fill:#ffd5d5;stroke:#000000;stroke-width:2;stroke-linecap:butt;stroke-linejoin:miter;stroke-opacity:1;display:inline" />
      <path
         sodipodi:nodetypes="cc"
         inkscape:connector-curvature="0"
         id="path3325-8-9-0-4-8-2"
         d="M 143.82553,510.67004 C 129.7923,514.17209 93.264408,516.48 72.399334,511.16612"
         style="fill:#ffd5d5;stroke:#000000;stroke-width:2;stroke-linecap:butt;stroke-linejoin:miter;stroke-opacity:1;display:inline" />
      <path
         sodipodi:nodetypes="cssc"
         inkscape:connector-curvature="0"
         id="path3327-4-35-4-3-1-4-0-7"
         d="m 49.234153,406.78459 c -19.242254,19.76886 -20.206733,56.89967 -15.400362,60.56401 1.611838,1.22885 3.422944,-2.47451 5.299396,-2.67347 1.908932,-0.20242 3.106032,2.82905 4.044812,3.16251"
         style="fill:none;stroke:#000000;stroke-width:2;stroke-linecap:butt;stroke-linejoin:miter;stroke-opacity:1;display:inline" />
      <path
         sodipodi:nodetypes="cc"
         inkscape:connector-curvature="0"
         id="path5111-7-1-7-7-7-7-8-8-6"
         d="m 167.97827,360.4084 c -3.78054,-3.59009 -20.7114,-5.59999 -27.21009,-2.25372"
         style="fill:none;stroke:#000000;stroke-width:2;stroke-linecap:butt;stroke-linejoin:miter;stroke-opacity:1;display:inline" />
      <path
         sodipodi:nodetypes="cc"
         inkscape:connector-curvature="0"
         id="path5111-7-1-7-7-7-7-8-8-7-1"
         d="m 43.416573,456.57689 c -2.332889,-1.20666 -9.190559,-2.01153 -12.56753,0.0787"
         style="fill:none;stroke:#000000;stroke-width:2;stroke-linecap:butt;stroke-linejoin:miter;stroke-opacity:1;display:inline" />
      <path
         sodipodi:nodetypes="cccccc"
         inkscape:connector-curvature="0"
         id="path6512-9-4"
         d="m 52.454053,416.29529 c -7.863029,-7.79567 -6.184271,-20.68604 -4.253105,-27.43338 l 7.245061,-26.53425 81.984551,-8.92097 17.09063,24.69827 c 2.92718,7.61452 5.45071,16.88942 -0.22171,26.43533"
         style="fill:#ffd5d5;stroke:#000000;stroke-width:2;stroke-linecap:butt;stroke-linejoin:miter;stroke-opacity:1;display:inline" />
      <path
         sodipodi:nodetypes="ssssss"
         inkscape:connector-curvature="0"
         id="path6516-2-5"
         d="m 102.3457,371.3753 c -8.715182,0.86453 -18.908818,10.62808 -21.759134,18.7768 -2.828029,8.08511 2.22683,14.11944 8.11749,12.23798 9.719632,-3.10439 21.719304,-3.25294 30.096554,-2.72289 8.48721,0.537 11.41056,-7.94303 6.06439,-16.16671 -4.15767,-6.39547 -13.49771,-13.0201 -22.5193,-12.12518 z"
         style="fill:#ffaaaa;stroke:#000000;stroke-width:2;stroke-linecap:butt;stroke-linejoin:miter;stroke-opacity:1;display:inline" />
      <path
         sodipodi:nodetypes="cc"
         inkscape:connector-curvature="0"
         id="path6518-5-5"
         d="m 110.96367,370.32091 3.25746,-7.12908"
         style="fill:none;stroke:#000000;stroke-width:2;stroke-linecap:butt;stroke-linejoin:miter;stroke-opacity:1;display:inline" />
      <path
         sodipodi:nodetypes="sss"
         inkscape:connector-curvature="0"
         id="path6524-5-1"
         d="m 99.173403,379.48785 c -2.494171,0.25821 -8.042812,12.28947 -4.662075,13.47131 3.137537,1.09684 6.138792,-13.62416 4.662075,-13.47131 z"
         style="fill:#000000;stroke:#000000;stroke-width:2;stroke-linecap:butt;stroke-linejoin:miter;stroke-opacity:1;display:inline" />
      <path
         sodipodi:nodetypes="sss"
         inkscape:connector-curvature="0"
         id="path6526-3-7"
         d="m 108.60657,379.67437 c -1.18822,0.24859 3.17832,14.32735 6.07196,11.95104 2.89181,-2.37485 -3.42825,-12.50416 -6.07196,-11.95104 z"
         style="fill:#000000;stroke:#000000;stroke-width:2;stroke-linecap:butt;stroke-linejoin:miter;stroke-opacity:1;display:inline" />
      <path
         sodipodi:nodetypes="cc"
         inkscape:connector-curvature="0"
         id="path3314-3-1"
         d="m 89.102367,366.52493 4.255738,5.86546"
         style="fill:none;stroke:#000000;stroke-width:2;stroke-linecap:butt;stroke-linejoin:miter;stroke-opacity:1;display:inline" />
      <path
         sodipodi:nodetypes="cssc"
         inkscape:connector-curvature="0"
         id="path6508-48-4"
         d="m 124.98778,347.5504 c 8.83461,-2.09175 19.15542,2.52983 23.73546,7.62001 7.40077,8.22506 9.79093,18.19121 6.13349,23.67543 -3.22925,4.84213 -5.76751,-7.00081 -10.2106,-11.00895"
         style="fill:#ffd5d5;stroke:#000000;stroke-width:2;stroke-linecap:butt;stroke-linejoin:miter;stroke-opacity:1;display:inline" />
      <path
         sodipodi:nodetypes="cssc"
         inkscape:connector-curvature="0"
         id="path6510-49-2"
         d="m 70.202797,353.84907 c -12.463649,1.9893 -18.008225,8.73257 -22.124117,16.02188 -3.668632,6.49719 -4.387693,15.87506 0.523576,21.2142 2.518988,2.73845 6.216025,-8.40087 9.750619,-15.53686"
         style="fill:#ffd5d5;stroke:#000000;stroke-width:2;stroke-linecap:butt;stroke-linejoin:miter;stroke-opacity:1;display:inline" />
      <path
         sodipodi:nodetypes="cc"
         inkscape:connector-curvature="0"
         id="path6506-83-3"
         d="M 60.882648,364.13264 C 75.568977,337.47666 119.26765,332.32489 139.95586,360.22"
         style="fill:#ffd5d5;stroke:#000000;stroke-width:2;stroke-linecap:butt;stroke-linejoin:miter;stroke-opacity:1;display:inline" />
    </g>
  </g>
  <g
     inkscape:groupmode="layer"
     id="layer4"
     inkscape:label="吹き出し"
     sodipodi:insensitive="true">
    <g
       transform="translate(34.174813,-10.454027)"
       id="g9788">
      <path
         sodipodi:nodetypes="ccccccccccccc"
         inkscape:connector-curvature="0"
         id="rect7294"
         d="m 14.352774,45.240886 c 13.595535,14.845085 -2.416433,36.753744 -25.057881,44.984329 18.7791634,0.676219 46.983199,8.484016 27.888947,35.310945 22.050993,-5.9135 46.663745,-3.791 41.769814,24.73998 13.345052,-23.67969 50.256806,-40.82721 67.640786,-10.14837 20.7117,-20.81986 67.32804,-16.41647 71.54677,1.31266 18.26819,-24.06781 34.06239,-27.61901 66.82114,-14.13713 -14.79147,-19.2024 36.45417,-32.134158 52.5475,-33.251013 C 299.93094,88.47087 267.13031,67.080002 285.93956,46.497801 269.3968,59.407071 225.52857,49.752173 225.5352,29.565127 200.03422,52.983714 166.19459,44.794421 155.2627,22.678479 139.45957,55.538937 92.890023,51.959662 73.182294,32.892376 69.767097,58.246022 29.264107,51.621635 14.352774,45.240886 z"
         style="fill:#ffff00;fill-opacity:1;stroke:#000000;stroke-width:2;stroke-linecap:round;stroke-miterlimit:4;stroke-opacity:1;stroke-dashoffset:0;display:inline" />
      <text
         sodipodi:linespacing="125%"
         id="text11601"
         y="102.32182"
         x="30.573492"
         style="font-size:51.58202744px;font-style:normal;font-weight:normal;line-height:125%;letter-spacing:0px;word-spacing:0px;writing-mode:lr-tb;fill:#000000;fill-opacity:1;stroke:none;display:inline;font-family:Sans"
         xml:space="preserve"><tspan
           y="102.32182"
           x="30.573492"
           id="tspan11603"
           sodipodi:role="line">頑張ろー!!</tspan></text>
    </g>
  </g>
  <g
     inkscape:groupmode="layer"
     id="layer2"
     inkscape:label="枠面"
     sodipodi:insensitive="true">
    <path
       style="fill:#ffffff;stroke:none;display:inline"
       d="m 0,0 0,320 370,0 0,-320 -10,10 0,300 -350,0 0,-300 350,0 10,-10 z"
       id="path21072"
       inkscape:connector-curvature="0"
       sodipodi:nodetypes="ccccccccccc" />
  </g>
</svg>
