<?xml version="1.0" encoding="UTF-8" standalone="no"?>
<!-- Created with Inkscape (http://www.inkscape.org/) -->

<svg
   xmlns:dc="http://purl.org/dc/elements/1.1/"
   xmlns:cc="http://creativecommons.org/ns#"
   xmlns:rdf="http://www.w3.org/1999/02/22-rdf-syntax-ns#"
   xmlns:svg="http://www.w3.org/2000/svg"
   xmlns="http://www.w3.org/2000/svg"
   xmlns:sodipodi="http://sodipodi.sourceforge.net/DTD/sodipodi-0.dtd"
   xmlns:inkscape="http://www.inkscape.org/namespaces/inkscape"
   width="370"
   height="320"
   id="svg3172"
   version="1.1"
   inkscape:version="0.48.4 r9939"
   sodipodi:docname="[15.攻勢].svg"
   inkscape:export-filename="C:\Users\執安\Desktop\資料\臨時\svg\BUTAS\[15.攻勢].png"
   inkscape:export-xdpi="90"
   inkscape:export-ydpi="90">
  <defs
     id="defs3174" />
  <sodipodi:namedview
     id="base"
     pagecolor="#ffffff"
     bordercolor="#666666"
     borderopacity="1.0"
     inkscape:pageopacity="0.0"
     inkscape:pageshadow="2"
     inkscape:zoom="1.3097998"
     inkscape:cx="108.77099"
     inkscape:cy="211.2687"
     inkscape:document-units="px"
     inkscape:current-layer="layer3"
     showgrid="false"
     inkscape:window-width="1245"
     inkscape:window-height="698"
     inkscape:window-x="-5"
     inkscape:window-y="-5"
     inkscape:window-maximized="0" />
  <metadata
     id="metadata3177">
    <rdf:RDF>
      <cc:Work
         rdf:about="">
        <dc:format>image/svg+xml</dc:format>
        <dc:type
           rdf:resource="http://purl.org/dc/dcmitype/StillImage" />
        <dc:title></dc:title>
      </cc:Work>
    </rdf:RDF>
  </metadata>
  <g
     inkscape:label="補助線"
     inkscape:groupmode="layer"
     id="layer1"
     transform="translate(0,-732.36218)"
     sodipodi:insensitive="true"
     style="display:none">
    <path
       style="fill:none;stroke:#0000ff;stroke-width:1px;stroke-linecap:butt;stroke-linejoin:miter;stroke-opacity:1;display:inline"
       d="M 10,1042.3622 360,742.36211"
       id="path3025"
       inkscape:connector-curvature="0"
       sodipodi:nodetypes="cc" />
    <path
       style="fill:none;stroke:#0000ff;stroke-width:1px;stroke-linecap:butt;stroke-linejoin:miter;stroke-opacity:1;display:inline"
       d="M 10,742.36211 360,1042.3622"
       id="path3027"
       inkscape:connector-curvature="0"
       sodipodi:nodetypes="cc" />
    <path
       style="fill:none;stroke:#ff0000;stroke-width:1px;stroke-linecap:butt;stroke-linejoin:miter;stroke-opacity:1;display:inline"
       d="m 10,732.36211 0,320.00009"
       id="path3006"
       inkscape:connector-curvature="0"
       sodipodi:nodetypes="cc" />
    <path
       style="fill:none;stroke:#ff0000;stroke-width:1px;stroke-linecap:butt;stroke-linejoin:miter;stroke-opacity:1;display:inline"
       d="m 360,732.36211 0,320.00009"
       id="path3010"
       inkscape:connector-curvature="0"
       sodipodi:nodetypes="cc" />
    <path
       style="fill:none;stroke:#ff0000;stroke-width:1px;stroke-linecap:butt;stroke-linejoin:miter;stroke-opacity:1;display:inline"
       d="m 0,742.36208 370,3e-5"
       id="path3016"
       inkscape:connector-curvature="0" />
    <path
       style="fill:none;stroke:#ff0000;stroke-width:1px;stroke-linecap:butt;stroke-linejoin:miter;stroke-opacity:1;display:inline"
       d="m 0,1042.3622 370,0"
       id="path3018"
       inkscape:connector-curvature="0"
       sodipodi:nodetypes="cc" />
  </g>
  <g
     inkscape:groupmode="layer"
     id="layer3"
     inkscape:label="豚"
     style="display:inline"
     sodipodi:insensitive="true">
    <g
       id="g3548"
       transform="translate(-21.594347,-244.01612)">
      <path
         sodipodi:nodetypes="cccc"
         inkscape:connector-curvature="0"
         id="path5099-5-2-7"
         d="m 294.35507,440.14757 c 8.82106,-9.53426 4.94498,-30.67897 -6.8699,-40.23553 l -68.03152,-0.14803 c -14.97022,11.8806 -16.58674,28.79741 -10.77828,36.25093"
         style="fill:#ffd5d5;stroke:#000000;stroke-width:2;stroke-linecap:butt;stroke-linejoin:miter;stroke-opacity:1;display:inline" />
      <path
         sodipodi:nodetypes="ccccccc"
         inkscape:connector-curvature="0"
         id="path6512-0-4-4"
         d="m 285.41745,407.8009 c 3.35537,-4.55945 3.16773,-11.57924 1.26623,-15.59412 l -10.16383,-26.7441 -46.96778,-0.509 -7.86692,9.21699 -2.28723,13.63293 c -2.30058,4.11181 -2.64851,11.93359 1.37659,16.43727"
         style="fill:#ffd5d5;stroke:#000000;stroke-width:2;stroke-linecap:butt;stroke-linejoin:miter;stroke-opacity:1;display:inline" />
      <path
         sodipodi:nodetypes="cssc"
         inkscape:connector-curvature="0"
         id="path6508-5-0-0"
         d="m 235.57916,361.38163 c -7.83203,0.18136 -13.26537,5.64825 -15.75881,9.43249 -3.71173,5.63321 -4.50462,14.98096 -1.12441,18.06974 1.50383,1.37418 3.77988,-6.64579 5.83869,-10.00599"
         style="fill:#ffd5d5;stroke:#000000;stroke-width:2;stroke-linecap:butt;stroke-linejoin:miter;stroke-opacity:1;display:inline" />
      <path
         sodipodi:nodetypes="cssc"
         inkscape:connector-curvature="0"
         id="path6510-2-9-9"
         d="m 272.8246,363.34357 c 6.38877,-0.0339 11.9414,5.75211 14.5554,12.1267 3.49139,8.51423 1.51834,17.02091 -1.69054,16.97372 -2.5984,-0.0382 -3.95865,-7.7664 -5.81648,-9.99802"
         style="fill:#ffd5d5;stroke:#000000;stroke-width:2;stroke-linecap:butt;stroke-linejoin:miter;stroke-opacity:1;display:inline" />
      <path
         sodipodi:nodetypes="ssssss"
         inkscape:connector-curvature="0"
         id="path6516-3-8-4"
         d="m 249.2843,383.52206 c 6.19344,0.29753 11.89212,6.79152 13.99493,11.28224 3.21797,6.87223 -0.045,11.98572 -6.10491,10.50723 -4.38053,-1.06876 -13.17218,-2.3184 -18.38517,-1.89833 -4.72356,0.38064 -6.43466,-5.56278 -3.43201,-10.83972 2.5177,-4.42467 7.60658,-9.35506 13.92716,-9.05142 z"
         style="fill:#ffaaaa;stroke:#000000;stroke-width:2;stroke-linecap:butt;stroke-linejoin:miter;stroke-opacity:1;display:inline" />
      <path
         sodipodi:nodetypes="cc"
         inkscape:connector-curvature="0"
         id="path6518-7-8-8"
         d="m 244.48203,382.15292 -2.63272,-5.55333"
         style="fill:none;stroke:#000000;stroke-width:2;stroke-linecap:butt;stroke-linejoin:miter;stroke-opacity:1;display:inline" />
      <path
         sodipodi:nodetypes="sss"
         inkscape:connector-curvature="0"
         id="path6524-2-2-8"
         d="m 251.97799,389.77949 c 1.0345,0.18625 5.26135,6.75647 2.96863,9.51814 -0.96941,1.16769 -4.02193,-9.70777 -2.96863,-9.51814 z"
         style="fill:#000000;stroke:#000000;stroke-width:2;stroke-linecap:butt;stroke-linejoin:miter;stroke-opacity:1;display:inline" />
      <path
         sodipodi:nodetypes="sss"
         inkscape:connector-curvature="0"
         id="path6526-9-4-2"
         d="m 246.28792,389.53205 c 0.87451,0.0144 -2.7274,9.48112 -3.2493,8.47699 -2.04914,-3.9425 2.20358,-8.49423 3.2493,-8.47699 z"
         style="fill:#000000;stroke:#000000;stroke-width:2;stroke-linecap:butt;stroke-linejoin:miter;stroke-opacity:1;display:inline" />
      <path
         sodipodi:nodetypes="cc"
         inkscape:connector-curvature="0"
         id="path3314-7-5-4"
         d="m 260.79117,378.5399 -4.82671,4.83477"
         style="fill:none;stroke:#000000;stroke-width:2;stroke-linecap:butt;stroke-linejoin:miter;stroke-opacity:1;display:inline" />
      <path
         sodipodi:nodetypes="cccc"
         inkscape:connector-curvature="0"
         id="path3327-4-8-6-9-2-5"
         d="m 289.63993,416.62662 c 7.70822,8.7628 8.89134,28.48543 1.18773,34.26148 l -78.56615,-0.36727 c -6.31732,-10.4477 -3.83191,-27.85898 3.59587,-35.87326"
         style="fill:#ffd5d5;stroke:#000000;stroke-width:2;stroke-linecap:butt;stroke-linejoin:miter;stroke-opacity:1;display:inline" />
      <path
         sodipodi:nodetypes="cc"
         inkscape:connector-curvature="0"
         id="path6506-2-4-5"
         d="m 229.01311,366.95281 c 9.95697,-14.78296 37.81316,-14.99302 48.4445,1.81895"
         style="fill:#ffd5d5;stroke:#000000;stroke-width:2;stroke-linecap:butt;stroke-linejoin:miter;stroke-opacity:1;display:inline" />
    </g>
    <g
       id="g3535"
       transform="translate(-21.594347,-244.01612)">
      <path
         sodipodi:nodetypes="cccc"
         inkscape:connector-curvature="0"
         id="path3327-4-35-4-3-1-2-7"
         d="m 117.91672,399.07923 c -14.00694,11.51894 -15.14731,34.22267 -11.51057,37.08712 l 90.17409,6.0262 c 3.37577,-1.19909 6.93401,-23.47496 -8.41259,-38.34306"
         style="fill:#ffd5d5;stroke:#000000;stroke-width:2;stroke-linecap:butt;stroke-linejoin:miter;stroke-opacity:1;display:inline" />
      <path
         sodipodi:nodetypes="cccccc"
         inkscape:connector-curvature="0"
         id="path6512-7-7"
         d="m 185.5732,409.96112 c 4.55439,-4.4272 3.98491,-11.7477 2.96518,-15.57954 l -9.51393,-24.59437 -43.20678,-5.22154 -15.78803,23.27225 c -2.45829,4.59079 -2.56758,11.68407 0.54489,17.10525"
         style="fill:#ffd5d5;stroke:#000000;stroke-width:2;stroke-linecap:butt;stroke-linejoin:miter;stroke-opacity:1;display:inline" />
      <path
         sodipodi:nodetypes="ssssss"
         inkscape:connector-curvature="0"
         id="path6516-4-6"
         d="m 154.36601,387.12056 c 5.5778,0.79989 10.80096,6.21599 13.03886,12.11272 2.66301,7.0169 -1.81413,10.97609 -6.11211,9.59446 -7.09168,-2.27965 -12.49765,-2.7537 -18.94179,-2.59354 -4.83761,0.12023 -6.55806,-5.95946 -2.98493,-11.22669 3.17267,-4.67692 9.01308,-8.7455 14.99997,-7.88695 z"
         style="fill:#ffaaaa;stroke:#000000;stroke-width:2;stroke-linecap:butt;stroke-linejoin:miter;stroke-opacity:1;display:inline" />
      <path
         sodipodi:nodetypes="cc"
         inkscape:connector-curvature="0"
         id="path6518-2-1"
         d="m 149.09368,385.61492 -2.58679,-5.6169"
         style="fill:none;stroke:#000000;stroke-width:2;stroke-linecap:butt;stroke-linejoin:miter;stroke-opacity:1;display:inline" />
      <path
         sodipodi:nodetypes="sss"
         inkscape:connector-curvature="0"
         id="path6524-7-4"
         d="m 156.59556,393.76961 c 1.25786,0.28504 4.75393,7.39991 2.25356,9.56651 -1.19709,1.03729 -3.31805,-9.80774 -2.25356,-9.56651 z"
         style="fill:#000000;stroke:#000000;stroke-width:2;stroke-linecap:butt;stroke-linejoin:miter;stroke-opacity:1;display:inline" />
      <path
         sodipodi:nodetypes="sss"
         inkscape:connector-curvature="0"
         id="path6526-7-2"
         d="m 150.11815,393.04005 c 0.8336,0.31517 -3.82754,10.30893 -4.41548,8.39439 -1.22727,-3.99645 3.34117,-8.80056 4.41548,-8.39439 z"
         style="fill:#000000;stroke:#000000;stroke-width:2;stroke-linecap:butt;stroke-linejoin:miter;stroke-opacity:1;display:inline" />
      <path
         sodipodi:nodetypes="cc"
         inkscape:connector-curvature="0"
         id="path3314-9-3"
         d="m 165.20713,382.38988 -4.5396,4.87984"
         style="fill:none;stroke:#000000;stroke-width:2;stroke-linecap:butt;stroke-linejoin:miter;stroke-opacity:1;display:inline" />
      <path
         sodipodi:nodetypes="cccc"
         inkscape:connector-curvature="0"
         id="path3327-4-35-4-3-5-8"
         d="m 112.71198,422.37734 c -6.40339,10.9853 -4.64907,25.85874 3.63806,31.84781 l 69.4148,-0.77677 c 6.72947,-3.25426 9.27848,-19.28668 4.90392,-28.47955"
         style="fill:#ffd5d5;stroke:#000000;stroke-width:2;stroke-linecap:butt;stroke-linejoin:miter;stroke-opacity:1;display:inline" />
      <path
         sodipodi:nodetypes="cssc"
         inkscape:connector-curvature="0"
         id="path6508-3-5"
         d="m 140.28077,361.56607 c -7.0784,-1.33998 -14.27664,2.60033 -17.90525,7.90104 -4.38543,6.40629 -5.04372,15.72651 -1.76309,18.38339 2.54782,2.0634 3.94501,-6.3565 7.60922,-8.96148"
         style="fill:#ffd5d5;stroke:#000000;stroke-width:2;stroke-linecap:butt;stroke-linejoin:miter;stroke-opacity:1;display:inline" />
      <path
         inkscape:connector-curvature="0"
         id="path6510-8-2"
         d="m 173.64381,364.81135 c 7.12427,0.67954 13.79408,5.92567 16.43413,12.10977 3.65721,8.56669 0.0588,18.35371 -3.19663,18.1308 -2.14851,-0.14712 -2.81157,-10.8267 -4.54483,-12.27422"
         style="fill:#ffd5d5;stroke:#000000;stroke-width:2;stroke-linecap:butt;stroke-linejoin:miter;stroke-opacity:1;display:inline" />
      <path
         inkscape:connector-curvature="0"
         id="path6506-1-1"
         d="m 180.19829,372.04891 c -8.77927,-15.49427 -34.41568,-18.39993 -46.51479,-5.808"
         style="fill:#ffd5d5;stroke:#000000;stroke-width:2;stroke-linecap:butt;stroke-linejoin:miter;stroke-opacity:1;display:inline" />
    </g>
    <g
       id="g6326"
       transform="translate(0,-34)"
       style="stroke-width:2">
      <path
         id="path5345-1"
         d="m 325.60888,222.94987 0,45.68303 -297.195237,0 0,-45.68303 28.003095,-7.40646 241.189052,0 z"
         style="fill:#dedbe3;fill-opacity:1;stroke:#000000;stroke-width:2;stroke-linecap:round;stroke-miterlimit:4;stroke-opacity:1;stroke-dashoffset:0"
         inkscape:connector-curvature="0"
         sodipodi:nodetypes="ccccccc" />
      <path
         id="rect5067-9"
         d="m 28.413643,222.94987 297.195237,0"
         style="fill:#d38d5f;fill-opacity:1;stroke:#000000;stroke-width:2;stroke-linecap:round;stroke-miterlimit:4;stroke-opacity:1;stroke-dashoffset:0"
         inkscape:connector-curvature="0"
         sodipodi:nodetypes="cc" />
    </g>
    <g
       id="g6247"
       transform="translate(0,-34)"
       style="stroke-width:2">
      <path
         sodipodi:nodetypes="ccccc"
         inkscape:connector-curvature="0"
         id="path5496-6"
         d="m 232.56775,290.1043 c -1.30846,-5.76093 8.64238,-14.46815 14.09158,-14.67876 8.42869,-2.9625 88.49131,-1.85333 94.77557,0.25742 4.67828,2.04388 13.11019,9.67919 14.33952,15.13999 -4.92483,5.90915 -111.22554,5.69902 -123.20667,-0.71865 z"
         style="fill:#442178;stroke:#000000;stroke-width:2;stroke-linecap:butt;stroke-linejoin:miter;stroke-opacity:1" />
      <path
         inkscape:connector-curvature="0"
         id="path5498-8"
         d="m 225.92936,292.07303 6.21505,-1.70846 -0.31809,5.12537"
         style="fill:none;stroke:#000000;stroke-width:2;stroke-linecap:butt;stroke-linejoin:miter;stroke-opacity:1" />
      <path
         inkscape:connector-curvature="0"
         id="path5500-5"
         d="m 240.40095,273.28012 5.67307,2.019 -1.12436,-3.57219"
         style="fill:none;stroke:#000000;stroke-width:2;stroke-linecap:butt;stroke-linejoin:miter;stroke-opacity:1" />
      <path
         inkscape:connector-curvature="0"
         id="path5502-7"
         d="m 358.74808,290.70742 -3.35523,-0.0322 1.01483,4.62911"
         style="fill:none;stroke:#000000;stroke-width:2;stroke-linecap:butt;stroke-linejoin:miter;stroke-opacity:1"
         sodipodi:nodetypes="ccc" />
      <path
         inkscape:connector-curvature="0"
         id="path5504-6"
         d="m 343.61382,273.59066 -2.36112,2.17439 -1.01115,-3.72745"
         style="fill:none;stroke:#000000;stroke-width:2;stroke-linecap:butt;stroke-linejoin:miter;stroke-opacity:1" />
    </g>
    <g
       id="g6154"
       transform="translate(0,-34)"
       style="stroke-width:2">
      <path
         sodipodi:nodetypes="ccccc"
         inkscape:connector-curvature="0"
         id="path5496"
         d="m 15.085787,288.7255 c -1.121439,-8.43309 10.558843,-15.04076 16.063731,-15.25137 9.211924,-2.9625 90.889992,-1.28072 96.616192,0.83003 4.13792,2.04388 10.55117,9.67919 10.33676,15.13999 -6.48712,5.90915 -112.732283,5.69902 -123.016683,-0.71865 z"
         style="fill:#442178;stroke:#000000;stroke-width:2;stroke-linecap:butt;stroke-linejoin:miter;stroke-opacity:1" />
      <path
         inkscape:connector-curvature="0"
         id="path5498"
         d="m 10.272179,289.26102 4.321462,-0.27525 -0.500511,4.60422"
         style="fill:none;stroke:#000000;stroke-width:2;stroke-linecap:butt;stroke-linejoin:miter;stroke-opacity:1"
         sodipodi:nodetypes="ccc" />
      <path
         inkscape:connector-curvature="0"
         id="path5500"
         d="m 27.367037,271.90132 5.139279,2.019 -0.179924,-3.57219"
         style="fill:none;stroke:#000000;stroke-width:2;stroke-linecap:butt;stroke-linejoin:miter;stroke-opacity:1" />
      <path
         inkscape:connector-curvature="0"
         id="path5502"
         d="m 141.9684,291.47082 -4.20846,-2.17439 0.66299,6.05724"
         style="fill:none;stroke:#000000;stroke-width:2;stroke-linecap:butt;stroke-linejoin:miter;stroke-opacity:1" />
      <path
         inkscape:connector-curvature="0"
         id="path5504"
         d="m 130.49781,272.21186 -2.93599,2.17439 -0.0257,-3.72745"
         style="fill:none;stroke:#000000;stroke-width:2;stroke-linecap:butt;stroke-linejoin:miter;stroke-opacity:1" />
    </g>
    <g
       id="g3137"
       transform="translate(-0.11479367,0)">
      <path
         sodipodi:nodetypes="cscccccc"
         inkscape:connector-curvature="0"
         id="path3386-1-7-8"
         d="m 261.9483,168.67682 c -16.79187,10.20484 -22.29681,37.17977 -18.71758,38.62515 2.65903,1.07378 3.74888,-1.16165 6.1135,-1.12973 l 4.1075,23.78788 18.28858,13.83303 12.0033,-112.47365 -14.66634,14.38777 z"
         style="fill:#ffd5d5;stroke:none;display:inline" />
      <path
         sodipodi:nodetypes="ccscc"
         inkscape:connector-curvature="0"
         id="path3390-4-3"
         d="m 250.2427,199.1819 -7.24886,-1.6734 c -1.25211,3.14796 -2.42707,7.34951 -0.83981,9.70966 1.781,2.64816 3.41823,0.2115 6.50356,-0.80075 z"
         style="fill:#ffaaaa;stroke:none;display:inline" />
      <path
         sodipodi:nodetypes="csc"
         inkscape:connector-curvature="0"
         id="path3386-1-7"
         d="m 262.14217,168.56381 c -17.60166,10.7447 -22.90414,37.51718 -19.32492,38.96256 2.65904,1.07378 3.74889,-1.16165 6.11351,-1.12973"
         style="fill:none;stroke:#000000;stroke-width:2;stroke-linecap:butt;stroke-linejoin:miter;stroke-opacity:1;display:inline" />
      <path
         sodipodi:nodetypes="cc"
         inkscape:connector-curvature="0"
         id="path3388-5-5"
         d="m 242.81487,197.43181 8.10037,1.94274"
         style="fill:none;stroke:#000000;stroke-width:2;stroke-linecap:butt;stroke-linejoin:miter;stroke-opacity:1;display:inline" />
      <path
         sodipodi:nodetypes="cc"
         inkscape:connector-curvature="0"
         id="path5091-2-40-9-2-82-5"
         d="m 294.80407,126.17584 c -11.64837,-0.93316 -24.28107,6.58603 -24.78545,18.13649"
         style="fill:#ffd5d5;stroke:#000000;stroke-width:2;stroke-linecap:butt;stroke-linejoin:miter;stroke-opacity:1;display:inline" />
      <path
         sodipodi:nodetypes="cc"
         inkscape:connector-curvature="0"
         id="path3331-0-6-2"
         d="m 256.82661,234.81698 c -11.39426,-8.00615 -12.94063,-33.2773 -1.05914,-47.65989"
         style="fill:#ffd5d5;stroke:#000000;stroke-width:2;stroke-linecap:butt;stroke-linejoin:miter;stroke-opacity:1;display:inline" />
      <path
         sodipodi:nodetypes="cscsc"
         inkscape:connector-curvature="0"
         id="path4041-35-3"
         d="m 281.62026,133.06758 c 20.3184,-18.2763 52.63476,-6.31055 63.2074,15.27592 8.00163,16.33716 9.51231,36.85633 4.56483,43.08757 3.65564,18.78277 4.82322,45.08497 -11.06031,55.59486 -16.52636,10.93522 -46.31605,8.15088 -69.62266,0.17397"
         style="fill:#ffd5d5;stroke:#000000;stroke-width:2;stroke-linecap:butt;stroke-linejoin:miter;stroke-opacity:1;display:inline" />
      <path
         sodipodi:nodetypes="cc"
         inkscape:connector-curvature="0"
         id="path5093-4-9-4-4-5-9"
         d="m 273.5329,140.77356 c -11.13199,7.74037 -14.99398,21.22703 -9.01973,33.86045"
         style="fill:#ffd5d5;stroke:#000000;stroke-width:2;stroke-linecap:butt;stroke-linejoin:miter;stroke-opacity:1;display:inline" />
      <path
         sodipodi:nodetypes="cc"
         inkscape:connector-curvature="0"
         id="path5095-5-4-8-5-36-6"
         d="m 283.83931,139.12694 -1.4739,4.66904"
         style="fill:none;stroke:#000000;stroke-width:2;stroke-linecap:butt;stroke-linejoin:miter;stroke-opacity:1;display:inline" />
      <path
         sodipodi:nodetypes="cc"
         inkscape:connector-curvature="0"
         id="path5097-5-8-8-5-1-3"
         d="m 297.52476,143.91361 -5.6722,4.87362"
         style="fill:none;stroke:#000000;stroke-width:2;stroke-linecap:butt;stroke-linejoin:miter;stroke-opacity:1;display:inline" />
      <path
         sodipodi:nodetypes="csc"
         inkscape:connector-curvature="0"
         id="path5099-1-8-2-7-8-4"
         d="m 329.64446,135.31946 c 25.90368,6.20612 17.34938,40.6667 7.63578,40.81818 -5.96676,0.0931 -10.83499,-16.74023 -17.43771,-22.02897"
         style="fill:#ffd5d5;stroke:#000000;stroke-width:2;stroke-linecap:butt;stroke-linejoin:miter;stroke-opacity:1;display:inline" />
      <path
         sodipodi:nodetypes="ssssss"
         inkscape:connector-curvature="0"
         id="path5101-7-2-4-1-62-2"
         d="m 282.8396,146.1232 c 5.95323,1.98481 11.73364,10.1838 13.60752,17.45532 2.06573,8.01601 -2.60352,14.35733 -8.45729,10.61042 -5.51446,-3.52972 -11.70528,-5.74434 -16.05121,-6.68226 -5.46776,-1.18003 -3.61534,-8.44039 -1.36784,-13.35162 2.21436,-4.83878 7.15621,-9.73641 12.26882,-8.03186 z"
         style="fill:#ffaaaa;stroke:#000000;stroke-width:2;stroke-linecap:butt;stroke-linejoin:miter;stroke-opacity:1;display:inline" />
      <path
         sodipodi:nodetypes="sss"
         inkscape:connector-curvature="0"
         id="path5105-1-4-55-1-28-146-8"
         d="m 286.40656,166.20937 c -1.24212,1.3753 -3.17735,-12.17389 -2.28256,-12.25556 1.02604,-0.0936 6.30255,7.80456 2.28256,12.25556 z"
         style="fill:#000000;stroke:#000000;stroke-width:2;display:inline" />
      <path
         sodipodi:nodetypes="sss"
         inkscape:connector-curvature="0"
         id="path5107-1-5-1-5-29-8"
         d="m 278.65286,152.6018 c 0.89053,0.16486 -2.15999,11.09951 -3.14651,9.94519 -2.69326,-3.15136 2.18556,-10.12308 3.14651,-9.94519 z"
         style="fill:#000000;stroke:#000000;stroke-width:2;display:inline" />
      <path
         sodipodi:nodetypes="ccsssc"
         inkscape:connector-curvature="0"
         id="path5111-7-1-7-7-7-6-4-3"
         d="m 292.37725,221.79937 c 5.89683,-1.81101 -8.55106,-23.95262 -14.02645,-19.51181 0,0 -4.7409,8.04017 -3.86661,10.94317 0.80234,2.6641 4.13891,0.3809 5.90509,1.94587 1.86848,1.65563 1.28524,6.37084 3.08079,7.06881 3.02695,1.17664 8.90718,-0.44604 8.90718,-0.44604 z"
         style="fill:#ffaaaa;stroke:none;display:inline" />
      <path
         sodipodi:nodetypes="cc"
         inkscape:connector-curvature="0"
         id="path5111-7-1-7-7-7-6-4"
         d="m 292.1284,221.99027 c 6.61259,-4.0537 -8.27703,-23.86163 -13.75242,-19.42081"
         style="fill:none;stroke:#000000;stroke-width:2;stroke-linecap:butt;stroke-linejoin:miter;stroke-opacity:1;display:inline" />
      <path
         sodipodi:nodetypes="csssc"
         inkscape:connector-curvature="0"
         id="path5089-8-7-0-8-2-2-0"
         d="m 291.13567,185.86008 c -10.79914,9.57375 -17.51644,24.75438 -16.6263,27.65255 1.00479,3.27145 4.74625,0.78579 6.51243,2.35076 1.86848,1.65562 0.32078,6.1967 3.19061,6.66193 8.43551,1.3675 20.62732,-4.62552 32.04993,-12.36533"
         style="fill:none;stroke:#000000;stroke-width:2;stroke-linecap:butt;stroke-linejoin:miter;stroke-opacity:1;display:inline" />
      <path
         sodipodi:nodetypes="csc"
         inkscape:connector-curvature="0"
         id="path5103-8-1-4-9-3-9"
         d="m 267.77961,240.51646 c 6.80511,15.08203 -20.16413,6.83463 -27.7,-9.29633 -4.96276,-10.62307 1.50588,-16.81709 11.11884,-8.66546"
         style="fill:#ffd5d5;stroke:#000000;stroke-width:2;stroke-linecap:butt;stroke-linejoin:miter;stroke-opacity:1;display:inline" />
      <path
         sodipodi:nodetypes="csc"
         inkscape:connector-curvature="0"
         id="path3333-4-1-9"
         d="m 328.37996,245.05115 c 6.22349,-10.52196 -16.58,-14.72865 -28.07607,-10.05312 -10.32469,4.19913 -13.98547,14.76939 3.31859,16.72271"
         style="fill:none;stroke:#000000;stroke-width:2;stroke-linecap:butt;stroke-linejoin:miter;stroke-opacity:1;display:inline" />
    </g>
    <g
       id="g3635">
      <path
         id="path5133-7-8"
         d="m 216.74554,246.86229 c -2.31202,0.0272 -3.44793,-0.30032 -4.29371,-0.16523 -1.15104,0.18384 -1.43129,1.29153 -1.26609,2.66069 l 8.72006,3.29725 z"
         style="fill:#c87137;stroke:#000000;stroke-width:2;stroke-linecap:butt;stroke-linejoin:miter;stroke-opacity:1;display:inline"
         inkscape:connector-curvature="0"
         sodipodi:nodetypes="csccc" />
      <path
         id="path5135-6-5"
         d="m 232.13586,247.04799 c 1.44479,-0.10756 3.21727,-0.39017 4.11479,-0.29586 1.10647,0.11627 1.86398,0.9007 2.0918,1.57807 0.24857,0.73908 0.0392,3.52806 -0.58717,4.71566 l -11.35697,-3.63718 z"
         style="fill:#c87137;stroke:#000000;stroke-width:2;stroke-linecap:butt;stroke-linejoin:miter;stroke-opacity:1;display:inline"
         inkscape:connector-curvature="0"
         sodipodi:nodetypes="cssccc" />
      <path
         id="path5127-1-7"
         d="m 215.85732,248.95277 c -2.44466,0.14891 -4.98624,-0.11523 -6.17621,1.59582 -1.08502,1.56015 -0.43668,4.25625 0.64798,6.01718 2.03128,3.29777 7.11734,6.15078 10.94866,8.24191 0.69512,0.37945 4.11756,0.46731 5.16003,0.0739 4.07871,-1.54139 8.59573,-4.41321 10.43673,-8.2204 0.82005,-1.69589 1.33326,-5.30183 0.44037,-6.64233 -1.00054,-1.50214 -4.42708,-1.28403 -5.8717,-1.32109"
         style="fill:#c87137;stroke:#000000;stroke-width:2;stroke-linecap:butt;stroke-linejoin:miter;stroke-opacity:1;display:inline"
         inkscape:connector-curvature="0"
         sodipodi:nodetypes="cssccssc" />
      <path
         id="path5129-4-6"
         d="m 220.09065,250.30055 c -1.87711,0.39461 -2.60401,0.73376 -3.23,1.66385 -0.69141,1.0273 -0.91021,3.56357 -0.6532,5.24311 0.52304,3.41804 3.80945,6.25148 5.42347,7.733"
         style="fill:none;stroke:#000000;stroke-width:2;stroke-linecap:butt;stroke-linejoin:miter;stroke-opacity:1;display:inline"
         inkscape:connector-curvature="0"
         sodipodi:nodetypes="cssc" />
      <path
         id="path5131-2-1"
         d="m 224.16796,265.12052 c 3.77133,-1.83375 4.03285,-5.26929 4.17789,-8.27781 0.0744,-1.54386 0.1148,-3.19229 -0.0779,-4.56715 -0.1322,-0.94344 -1.11449,-1.8484 -2.05003,-2.10188"
         style="fill:none;stroke:#000000;stroke-width:2;stroke-linecap:butt;stroke-linejoin:miter;stroke-opacity:1;display:inline"
         inkscape:connector-curvature="0"
         sodipodi:nodetypes="cssc" />
      <path
         id="path5143-3-8"
         d="m 219.08183,246.5926 c -0.739,0.0804 -1.50146,0.0661 -2.30951,-0.12972 0.0239,0.62166 -0.26149,1.06617 -0.87579,1.40765 0.26463,0.34693 0.86202,0.77109 1.39479,1.07045 0.65201,0.3823 1.53065,0.39798 2.9222,0.26995 2.11702,0.88784 4.62934,0.5925 6.0919,0 2.26692,0.19853 4.05138,-0.32555 5.10106,-1.11931 0.47425,-0.22173 0.67133,-0.83096 0.74805,-1.64598 -0.70967,0.0713 -1.16853,-0.0402 -1.44532,-0.31737"
         style="fill:#c87137;stroke:#000000;stroke-width:2;stroke-linecap:butt;stroke-linejoin:miter;stroke-opacity:1;display:inline"
         inkscape:connector-curvature="0" />
      <path
         id="path5137-2-9"
         d="m 215.89427,247.52685 c 1.22272,0.66391 2.54215,0.66819 2.81507,-0.22433 0.33094,-1.08224 0.2435,-2.0561 -1.22966,-2.37805 -2.9671,-0.64844 -8.04131,-2.41653 -8.78941,-7.59874 l 32.03755,-0.0557 c -3.66208,7.11445 -8.9739,6.61004 -9.62481,7.5565 -0.30783,0.44759 -0.77732,1.92148 1.15034,1.28064"
         style="fill:#c87137;stroke:#000000;stroke-width:2;stroke-linecap:butt;stroke-linejoin:miter;stroke-opacity:1;display:inline"
         inkscape:connector-curvature="0"
         sodipodi:nodetypes="ccsccsc" />
      <path
         id="path5141-2-2"
         d="m 231.56841,247.59644 c -2.45883,0.74789 -2.82663,-1.65273 -2.26244,-2.15203 1.0734,-0.94995 8.20574,-1.74369 8.20897,-8.40767 l -21.49514,0 c -4.04016,0 1.75838,8.1612 2.88434,8.66725 1.22091,0.54872 1.34799,-0.2732 2.22773,0.64873 0.55291,0.57942 0.29965,2.38117 -0.91505,2.5153"
         style="fill:#c87137;stroke:#000000;stroke-width:2;stroke-linecap:butt;stroke-linejoin:miter;stroke-opacity:1;display:inline"
         inkscape:connector-curvature="0"
         sodipodi:nodetypes="cscsssc" />
      <path
         id="path5145-1-7"
         d="m 215.89305,247.86859 -0.0371,1.08677 c 1.07061,1.3019 2.66756,1.37875 4.2361,1.34505 2.07583,0.64655 4.35919,0.5141 6.13236,-0.127 2.28551,0 3.9409,-0.12311 5.22091,-1.47412 0.41873,-0.14152 0.86679,-1.02251 0.69907,-1.65246 l 0.007,-0.61039"
         style="fill:none;stroke:#000000;stroke-width:2;stroke-linecap:butt;stroke-linejoin:miter;stroke-opacity:1;display:inline"
         inkscape:connector-curvature="0" />
      <path
         id="path5147-6-9"
         d="m 226.30323,248.86542 c -0.6943,-0.0687 -0.73167,-2.02077 -0.53736,-2.54509 0.18739,-0.50568 0.41937,-0.52867 0.91449,-0.96055 1.55095,-1.35289 1.46527,-4.87442 1.34155,-8.27769"
         style="fill:none;stroke:#000000;stroke-width:2;stroke-linecap:butt;stroke-linejoin:miter;stroke-opacity:1;display:inline"
         inkscape:connector-curvature="0"
         sodipodi:nodetypes="cssc" />
      <path
         id="path5133-7"
         d="m 138.87469,247.14688 c -2.31201,0.0272 -3.44792,-0.30032 -4.29371,-0.16523 -1.15104,0.18384 -1.74852,2.0487 -1.26608,2.66069 0,0 6.67933,5.6408 8.72005,3.29726 z"
         style="fill:#c87137;stroke:#000000;stroke-width:2;stroke-linecap:butt;stroke-linejoin:miter;stroke-opacity:1"
         inkscape:connector-curvature="0"
         sodipodi:nodetypes="csscc" />
      <path
         id="path5135-6"
         d="m 154.26501,247.33259 c 1.33982,-0.55126 3.21727,-0.39019 4.11479,-0.29587 1.10648,0.11627 1.86398,0.9007 2.0918,1.57807 0.24857,0.73909 -0.0539,3.57228 -0.58717,4.71566 l -11.35697,-3.63718 z"
         style="fill:#c87137;stroke:#000000;stroke-width:2;stroke-linecap:butt;stroke-linejoin:miter;stroke-opacity:1"
         inkscape:connector-curvature="0"
         sodipodi:nodetypes="cssccc" />
      <path
         id="path5127-1"
         d="m 137.98647,249.23736 c -2.44465,0.1489 -4.98624,-0.11523 -6.1762,1.59581 -1.08503,1.56016 -0.43669,4.25626 0.64797,6.01718 2.03129,3.29778 7.11736,6.15076 10.94867,8.24192 0.69513,0.37942 4.1177,0.46768 5.16002,0.0739 4.07885,-1.54101 8.59575,-4.4132 10.43674,-8.2204 0.82005,-1.69587 1.33326,-5.30182 0.44037,-6.64233 -1.00054,-1.50214 -4.42709,-1.28402 -5.87171,-1.32108"
         style="fill:#c87137;stroke:#000000;stroke-width:2;stroke-linecap:butt;stroke-linejoin:miter;stroke-opacity:1"
         inkscape:connector-curvature="0"
         sodipodi:nodetypes="cssssssc" />
      <path
         id="path5129-4"
         d="m 142.2198,250.58513 c -1.8771,0.39461 -2.60401,0.73377 -3.22999,1.66386 -0.69141,1.02729 -0.91022,3.56358 -0.65321,5.24312 0.52304,3.41803 3.80945,6.25147 5.42348,7.73299"
         style="fill:none;stroke:#000000;stroke-width:2;stroke-linecap:butt;stroke-linejoin:miter;stroke-opacity:1"
         inkscape:connector-curvature="0" />
      <path
         id="path5131-2"
         d="m 146.29711,265.40511 c 3.77135,-1.83376 4.03285,-5.26929 4.17789,-8.27781 0.0744,-1.54385 0.1148,-3.19229 -0.0779,-4.56715 -0.1322,-0.94344 -1.11449,-1.8484 -2.05003,-2.10188"
         style="fill:none;stroke:#000000;stroke-width:2;stroke-linecap:butt;stroke-linejoin:miter;stroke-opacity:1"
         inkscape:connector-curvature="0"
         sodipodi:nodetypes="cssc" />
      <path
         id="path5143-3"
         d="m 141.211,246.87719 c -0.73902,0.0804 -1.50148,0.0661 -2.30953,-0.12972 0.0239,0.62166 -0.26149,1.06617 -0.87579,1.40765 0.26463,0.34693 0.86202,0.77109 1.39479,1.07045 0.65201,0.38229 1.53066,0.39798 2.9222,0.26994 2.11702,0.88785 4.62934,0.5925 6.0919,0 2.26692,0.19853 4.05138,-0.32554 5.10106,-1.1193 0.47426,-0.22174 0.67133,-0.83096 0.74805,-1.64597 -0.70967,0.0713 -1.16852,-0.0402 -1.44532,-0.31738"
         style="fill:#c87137;stroke:#000000;stroke-width:2;stroke-linecap:butt;stroke-linejoin:miter;stroke-opacity:1"
         inkscape:connector-curvature="0" />
      <path
         id="path5137-2"
         d="m 138.02343,248.15512 c 1.22271,0.66391 2.54215,0.66818 2.81506,-0.22433 0.33094,-1.08223 0.24348,-2.056 -1.22966,-2.37804 -2.96712,-0.64836 -8.04131,-2.41655 -8.78941,-7.59875 l 32.03755,-0.0557 c -3.66208,7.11444 -8.97385,6.61007 -9.62481,7.55649 -0.30779,0.44762 -0.77732,1.92149 1.15034,1.28065"
         style="fill:#c87137;stroke:#000000;stroke-width:2;stroke-linecap:butt;stroke-linejoin:miter;stroke-opacity:1"
         inkscape:connector-curvature="0" />
      <path
         id="path5141-2"
         d="m 153.69756,248.22471 c -2.45883,0.74789 -2.82663,-1.65274 -2.26244,-2.15204 1.07339,-0.94995 8.20574,-1.74368 8.20898,-8.40766 l -21.49515,0 c -0.3623,4.02389 1.75838,8.1612 2.88435,8.66724 1.2209,0.54872 1.34798,-0.27317 2.22772,0.64875 0.5529,0.57942 0.29965,2.38115 -0.91504,2.51529"
         style="fill:#c87137;stroke:#000000;stroke-width:2;stroke-linecap:butt;stroke-linejoin:miter;stroke-opacity:1"
         inkscape:connector-curvature="0"
         sodipodi:nodetypes="csccssc" />
      <path
         id="path5145-1"
         d="m 138.0222,248.15317 -0.0371,1.08678 c 1.0706,1.3019 2.66755,1.37875 4.2361,1.34505 2.07582,0.64655 4.35918,0.5141 6.13235,-0.12699 2.28551,0 3.9409,-0.12312 5.22091,-1.47414 0.41873,-0.14152 0.8668,-1.02249 0.69907,-1.65245 l 0.007,-0.61038"
         style="fill:none;stroke:#000000;stroke-width:2;stroke-linecap:butt;stroke-linejoin:miter;stroke-opacity:1"
         inkscape:connector-curvature="0" />
      <path
         id="path5147-6"
         d="m 148.43238,249.4937 c -0.6943,-0.0687 -0.73165,-2.02076 -0.53736,-2.5451 0.18741,-0.50568 0.41942,-0.52861 0.91449,-0.96055 1.55099,-1.35283 1.46527,-4.87441 1.34155,-8.27768"
         style="fill:none;stroke:#000000;stroke-width:2;stroke-linecap:butt;stroke-linejoin:miter;stroke-opacity:1"
         inkscape:connector-curvature="0" />
      <path
         id="path5345"
         d="m 244.47351,203.88152 0,38.36528 -117.8417,0 0,-38.36528 12.9594,-7.77564 91.92291,0 z"
         style="fill:#d38d5f;fill-opacity:1;stroke:#000000;stroke-width:2;stroke-linecap:round;stroke-miterlimit:4;stroke-opacity:1;stroke-dashoffset:0"
         inkscape:connector-curvature="0" />
      <path
         id="rect5067"
         d="m 126.63181,203.88152 117.8417,0"
         style="fill:#d38d5f;fill-opacity:1;stroke:#000000;stroke-width:2;stroke-linecap:round;stroke-miterlimit:4;stroke-opacity:1;stroke-dashoffset:0"
         inkscape:connector-curvature="0" />
      <path
         inkscape:connector-curvature="0"
         id="path5483"
         d="m 138.20513,203.43887 -0.32399,-2.75387 12.47341,-0.16199 -0.32397,2.75388 z"
         style="fill:#deaa87;stroke:#000000;stroke-width:2;stroke-linecap:butt;stroke-linejoin:miter;stroke-opacity:1;display:inline" />
      <path
         sodipodi:nodetypes="ccccc"
         inkscape:connector-curvature="0"
         id="path5485"
         d="m 156.17646,201.92368 -0.15217,-1.72466 6.46987,0.0109 -0.0769,1.71483 z"
         style="fill:#deaa87;stroke:#000000;stroke-width:2;stroke-linecap:butt;stroke-linejoin:miter;stroke-opacity:1;display:inline" />
      <path
         inkscape:connector-curvature="0"
         id="path5487"
         d="m 204.94599,199.23969 -0.16199,-1.13395 7.12766,-0.16199 -0.16199,1.94391 z"
         style="fill:#deaa87;stroke:#000000;stroke-width:2;stroke-linecap:butt;stroke-linejoin:miter;stroke-opacity:1;display:inline" />
      <path
         inkscape:connector-curvature="0"
         id="path5489"
         d="m 217.74339,200.04966 0,-1.29594 9.07158,-0.32398 0.32398,2.42987 z"
         style="fill:#deaa87;stroke:#000000;stroke-width:2;stroke-linecap:butt;stroke-linejoin:miter;stroke-opacity:1;display:inline" />
      <path
         sodipodi:nodetypes="ccccc"
         inkscape:connector-curvature="0"
         id="path5491"
         d="m 179.04879,200.67392 -0.11455,-1.37454 7.04457,10e-6 -0.11456,1.20272 z"
         style="fill:#deaa87;stroke:#000000;stroke-width:2;stroke-linecap:butt;stroke-linejoin:miter;stroke-opacity:1;display:inline" />
      <path
         inkscape:connector-curvature="0"
         id="path5487-2"
         d="m 196.83796,200.08153 -0.162,-1.13395 7.12766,-0.16199 -0.16197,1.94391 z"
         style="fill:#deaa87;stroke:#000000;stroke-width:2;stroke-linecap:butt;stroke-linejoin:miter;stroke-opacity:1;display:inline" />
      <path
         sodipodi:nodetypes="ccccc"
         inkscape:connector-curvature="0"
         id="path5485-3"
         d="m 164.20627,201.01589 0.0198,-1.72466 6.56068,0 0.004,1.66736 z"
         style="fill:#deaa87;stroke:#000000;stroke-width:2;stroke-linecap:butt;stroke-linejoin:miter;stroke-opacity:1;display:inline" />
    </g>
    <g
       id="g3217">
      <path
         sodipodi:nodetypes="ccccccc"
         inkscape:connector-curvature="0"
         id="path3386-1"
         d="m 125.94182,176.42738 c 12.97541,14.51671 4.62401,30.81708 -1.40828,32.15442 l -8.08891,32.55496 -20.624032,6.31517 -64.328506,-69.20825 1.697797,-10.11885 z"
         style="fill:#ffd5d5;stroke:#000000;stroke-width:2;stroke-linecap:butt;stroke-linejoin:miter;stroke-opacity:1;display:inline" />
      <path
         sodipodi:nodetypes="csc"
         inkscape:connector-curvature="0"
         id="path5103-8-1-4-9-3"
         d="m 86.740102,248.40411 c 10.822704,2.39948 22.663438,1.60623 33.222768,-3.52359 11.28885,-5.48422 5.18789,-15.24466 -3.67837,-12.41279"
         style="fill:#ffd5d5;stroke:#000000;stroke-width:2;stroke-linecap:butt;stroke-linejoin:miter;stroke-opacity:1;display:inline" />
      <path
         sodipodi:nodetypes="cc"
         inkscape:connector-curvature="0"
         id="path3331-0-6"
         d="m 112.74351,237.3878 c 10.3839,-3.59671 13.97141,-19.94055 10.22287,-34.31837"
         style="fill:#ffd5d5;stroke:#000000;stroke-width:2;stroke-linecap:butt;stroke-linejoin:miter;stroke-opacity:1;display:inline" />
      <path
         sodipodi:nodetypes="csssc"
         inkscape:connector-curvature="0"
         id="path5089-8-7-0-8-2-2-2"
         d="m 100.55365,214.62462 c 13.63682,-2.36851 29.4667,-8.94699 32.26208,-10.68831 1.4165,-0.88237 1.81552,-1.94742 3.17258,-2.65122 1.47569,-0.76532 4.86191,-0.21684 5.4496,-3.07225 0.77864,-3.78316 -29.24603,-19.13128 -51.887804,-19.29222"
         style="fill:#ffd5d5;stroke:none;display:inline" />
      <path
         sodipodi:nodetypes="sssccs"
         inkscape:connector-curvature="0"
         id="path5089-8-7-0-8-2-2-8"
         d="m 132.83755,204.05269 c 1.41651,-0.88238 1.81553,-1.94742 3.17258,-2.65123 1.47568,-0.76532 4.86191,-0.21684 5.44961,-3.07225 0.77862,-3.78315 -11.92197,-8.30128 -11.92197,-8.30128 -6.00088,-0.60991 -13.50644,14.49054 -6.76529,17.99866 0,0 7.26969,-2.23259 10.06507,-3.9739 z"
         style="fill:#ffaaaa;stroke:none;display:inline" />
      <path
         sodipodi:nodetypes="cc"
         inkscape:connector-curvature="0"
         id="path5111-7-1-7-7-7-6"
         d="m 129.76493,189.92913 c -6.00089,-0.60991 -13.71997,14.70408 -6.97883,18.21221"
         style="fill:none;stroke:#000000;stroke-width:2;stroke-linecap:butt;stroke-linejoin:miter;stroke-opacity:1;display:inline" />
      <path
         sodipodi:nodetypes="csc"
         inkscape:connector-curvature="0"
         id="path3327-4-5"
         d="m 31.605108,172.74054 c -13.703511,18.32536 -25.6967268,64.59466 0.457273,77.08318 16.346004,7.8052 49.973141,2.15028 66.180587,-3.44505"
         style="fill:#ffd5d5;stroke:#000000;stroke-width:2;stroke-linecap:butt;stroke-linejoin:miter;stroke-opacity:1;display:inline" />
      <path
         sodipodi:nodetypes="csc"
         inkscape:connector-curvature="0"
         id="path3333-4-1"
         d="m 69.190393,248.92956 c 18.122509,-2.40707 19.919525,-18.33852 1.854575,-18.84235 -20.934788,-0.58389 -36.53553,13.22222 -26.704965,17.96485"
         style="fill:none;stroke:#000000;stroke-width:2;stroke-linecap:butt;stroke-linejoin:miter;stroke-opacity:1;display:inline" />
      <path
         sodipodi:nodetypes="cc"
         inkscape:connector-curvature="0"
         id="path5091-2-40-9-2-82"
         d="m 106.23118,127.83448 c 12.5378,1.68227 23.76239,14.18171 19.16348,28.71903"
         style="fill:#ffd5d5;stroke:#000000;stroke-width:2;stroke-linecap:butt;stroke-linejoin:miter;stroke-opacity:1;display:inline" />
      <path
         sodipodi:nodetypes="csccc"
         inkscape:connector-curvature="0"
         id="path4041-35-4"
         d="m 31.931424,174.85501 c -4.254053,-9.48642 3.735487,-24.34153 15.025603,-38.08718 15.521443,-18.89726 51.046354,-26.09371 68.447543,0.50446 l 6.95105,13.36252 c 7.55283,11.77483 6.52386,25.8606 -1.41336,32.9504"
         style="fill:#ffd5d5;stroke:none;display:inline" />
      <path
         sodipodi:nodetypes="csc"
         inkscape:connector-curvature="0"
         id="path4041-35"
         d="M 115.50119,137.53137 C 98.100002,110.93319 62.575092,118.12965 47.053649,137.02691 35.763532,150.77255 27.773992,165.62768 32.028044,175.11411"
         style="fill:none;stroke:#000000;stroke-width:2;stroke-linecap:butt;stroke-linejoin:miter;stroke-opacity:1;display:inline" />
      <path
         inkscape:connector-curvature="0"
         id="path5093-4-9-4-4-5"
         d="m 122.45224,150.8939 c 7.55283,11.77483 6.52384,25.8606 -1.41337,32.9504"
         style="fill:none;stroke:#000000;stroke-width:2;stroke-linecap:butt;stroke-linejoin:miter;stroke-opacity:1;display:inline" />
      <path
         sodipodi:nodetypes="cc"
         inkscape:connector-curvature="0"
         id="path5095-5-4-8-5-36"
         d="m 113.87953,145.88635 -1.44975,5.35392"
         style="fill:none;stroke:#000000;stroke-width:2;stroke-linecap:butt;stroke-linejoin:miter;stroke-opacity:1;display:inline" />
      <path
         sodipodi:nodetypes="cc"
         inkscape:connector-curvature="0"
         id="path5097-5-8-8-5-1"
         d="m 97.859631,146.23622 4.893859,7.26416"
         style="fill:none;stroke:#000000;stroke-width:2;stroke-linecap:butt;stroke-linejoin:miter;stroke-opacity:1;display:inline" />
      <path
         sodipodi:nodetypes="csc"
         inkscape:connector-curvature="0"
         id="path5099-1-8-2-7-8"
         d="m 60.055433,129.38102 c -24.942081,1.62637 -20.528043,32.90468 -13.949353,34.8831 5.587872,1.6805 17.70869,-15.58087 25.064023,-19.36581"
         style="fill:#ffd5d5;stroke:#000000;stroke-width:2;stroke-linecap:butt;stroke-linejoin:miter;stroke-opacity:1;display:inline" />
      <path
         sodipodi:nodetypes="ssssss"
         inkscape:connector-curvature="0"
         id="path5101-7-2-4-1-62"
         d="m 93.669497,165.21608 c -4.693034,7.18026 -3.662161,14.63799 2.932617,12.99619 7.056836,-1.75685 13.038776,-0.59535 17.780116,0.18878 4.41619,0.73032 6.5314,-5.45225 6.33682,-12.72357 -0.14441,-5.39664 -1.25382,-12.09351 -7.1263,-12.80264 -5.8725,-0.7091 -15.689039,5.86296 -19.923253,12.34124 z"
         style="fill:#ffaaaa;stroke:#000000;stroke-width:2;stroke-linecap:butt;stroke-linejoin:miter;stroke-opacity:1;display:inline" />
      <path
         sodipodi:nodetypes="sss"
         inkscape:connector-curvature="0"
         id="path5105-1-4-55-1-28-146"
         d="m 101.7291,170.39858 c 1.21154,2.56534 7.79454,-9.35536 7.46725,-10.49871 -0.46457,-1.62296 -9.13979,6.9572 -7.46725,10.49871 z"
         style="fill:#000000;stroke:#000000;stroke-width:2;display:inline" />
      <path
         sodipodi:nodetypes="sss"
         inkscape:connector-curvature="0"
         id="path5107-1-5-1-5-29"
         d="m 114.78643,160.31483 c -0.96266,-0.0285 -4.71502,11.29779 -2.7842,11.14876 3.32696,-0.25677 3.84264,-11.11729 2.7842,-11.14876 z"
         style="fill:#000000;stroke:#000000;stroke-width:2;display:inline" />
      <path
         sodipodi:nodetypes="csssc"
         inkscape:connector-curvature="0"
         id="path5089-8-7-0-8-2-2"
         d="m 100.5891,214.85573 c 13.63681,-2.36852 29.46669,-8.94699 32.26207,-10.68829 1.41651,-0.88239 1.81553,-1.94744 3.17258,-2.65124 1.47569,-0.76532 4.86191,-0.21684 5.44962,-3.07226 0.77862,-3.78315 -29.24605,-19.13127 -51.887817,-19.29221"
         style="fill:none;stroke:#000000;stroke-width:2;stroke-linecap:butt;stroke-linejoin:miter;stroke-opacity:1;display:inline" />
    </g>
    <path
       style="fill:#ffff00;stroke:none;display:inline"
       d="m 324.95236,117.49295 c 6.297,2.59391 9.65065,1.56458 13.85787,-3.77483 1.1495,7.4804 6.15834,11.0466 13.70811,10.26658 -2.37075,5.80406 -1.06246,10.22529 4.72239,15.0794 -5.2058,2.12706 -7.05479,5.76065 -7.38713,10.65424 -1.63332,-16.18232 -7.08958,-23.83254 -24.90124,-32.22539 z"
       id="path7954-5"
       inkscape:connector-curvature="0"
       sodipodi:nodetypes="cccccc" />
    <path
       style="fill:none;stroke:#000000;stroke-width:2;stroke-linecap:butt;stroke-linejoin:miter;stroke-opacity:1"
       d="m 324.91537,117.44424 c 6.29701,2.5939 9.65066,1.56458 13.85788,-3.77484 1.14949,7.4804 6.15833,11.0466 13.70811,10.26658 -2.37075,5.80406 -1.06246,10.22529 4.72238,15.07941 -5.2058,2.12705 -7.05478,5.76065 -7.38712,10.65424"
       id="path7954"
       inkscape:connector-curvature="0"
       sodipodi:nodetypes="ccccc" />
    <path
       style="fill:#ffff00;stroke:none;display:inline"
       d="m 131.4537,190.15387 c 4.11121,-0.24913 5.66493,-1.69381 6.54643,-5.70936 2.59851,3.76797 6.2651,4.38778 10.16827,1.97206 0.24056,3.78408 2.11863,5.84523 6.54723,6.96132 -2.27222,2.53062 -2.32018,4.99584 -1.21034,7.74679 -5.15693,-8.37631 -10.14414,-11.1008 -22.05154,-10.97081 z"
       id="path7954-5-5"
       inkscape:connector-curvature="0"
       sodipodi:nodetypes="cccccc" />
    <path
       style="fill:none;stroke:#000000;stroke-width:2;stroke-linecap:butt;stroke-linejoin:miter;stroke-opacity:1;display:inline"
       d="m 131.42073,190.13711 c 4.1112,-0.24912 5.66492,-1.69379 6.54642,-5.70936 2.59852,3.76796 6.2651,4.38779 10.16827,1.97204 0.24056,3.78408 2.11863,5.84524 6.54723,6.96133 -2.27222,2.53064 -2.32018,4.99584 -1.21034,7.7468"
       id="path7954-3"
       inkscape:connector-curvature="0"
       sodipodi:nodetypes="ccccc" />
  </g>
  <g
     inkscape:groupmode="layer"
     id="layer4"
     inkscape:label="字幕"
     sodipodi:insensitive="true">
    <text
       xml:space="preserve"
       style="font-size:69.92437744px;font-style:normal;font-variant:normal;font-weight:normal;font-stretch:normal;line-height:125%;letter-spacing:0px;word-spacing:0px;writing-mode:lr-tb;fill:#000000;fill-opacity:1;stroke:none;display:inline;font-family:HGSHeiseiMinchotaiW9;-inkscape-font-specification:HGSHeiseiMinchotaiW9"
       x="10.798875"
       y="75.779495"
       id="text11601"
       sodipodi:linespacing="125%"><tspan
         sodipodi:role="line"
         id="tspan11603"
         x="10.798875"
         y="75.779495">渾身の一手</tspan></text>
  </g>
  <g
     inkscape:groupmode="layer"
     id="layer2"
     inkscape:label="枠面"
     sodipodi:insensitive="true"
     style="display:inline">
    <path
       style="fill:#ffffff;stroke:none;display:inline"
       d="m 0,0 0,320 370,0 0,-320 -10,10 0,300 -350,0 0,-300 350,0 10,-10 z"
       id="path21072"
       inkscape:connector-curvature="0"
       sodipodi:nodetypes="ccccccccccc" />
  </g>
</svg>
