<?xml version="1.0" encoding="UTF-8" standalone="no"?>
<!-- Created with Inkscape (http://www.inkscape.org/) -->

<svg
   xmlns:dc="http://purl.org/dc/elements/1.1/"
   xmlns:cc="http://creativecommons.org/ns#"
   xmlns:rdf="http://www.w3.org/1999/02/22-rdf-syntax-ns#"
   xmlns:svg="http://www.w3.org/2000/svg"
   xmlns="http://www.w3.org/2000/svg"
   xmlns:sodipodi="http://sodipodi.sourceforge.net/DTD/sodipodi-0.dtd"
   xmlns:inkscape="http://www.inkscape.org/namespaces/inkscape"
   width="370"
   height="320"
   id="svg3172"
   version="1.1"
   inkscape:version="0.48.4 r9939"
   sodipodi:docname="[10.敗北].svg">
  <defs
     id="defs3174" />
  <sodipodi:namedview
     id="base"
     pagecolor="#ffffff"
     bordercolor="#666666"
     borderopacity="1.0"
     inkscape:pageopacity="0.0"
     inkscape:pageshadow="2"
     inkscape:zoom="1.4893186"
     inkscape:cx="175.87551"
     inkscape:cy="115.75891"
     inkscape:document-units="px"
     inkscape:current-layer="layer3"
     showgrid="false"
     inkscape:window-width="1245"
     inkscape:window-height="698"
     inkscape:window-x="-5"
     inkscape:window-y="-5"
     inkscape:window-maximized="0" />
  <metadata
     id="metadata3177">
    <rdf:RDF>
      <cc:Work
         rdf:about="">
        <dc:format>image/svg+xml</dc:format>
        <dc:type
           rdf:resource="http://purl.org/dc/dcmitype/StillImage" />
        <dc:title />
      </cc:Work>
    </rdf:RDF>
  </metadata>
  <g
     inkscape:label="補助線"
     inkscape:groupmode="layer"
     id="layer1"
     transform="translate(0,-732.36218)"
     sodipodi:insensitive="true"
     style="display:none">
    <path
       style="fill:none;stroke:#0000ff;stroke-width:1px;stroke-linecap:butt;stroke-linejoin:miter;stroke-opacity:1;display:inline"
       d="M 10,1042.3622 360,742.36211"
       id="path3025"
       inkscape:connector-curvature="0"
       sodipodi:nodetypes="cc" />
    <path
       style="fill:none;stroke:#0000ff;stroke-width:1px;stroke-linecap:butt;stroke-linejoin:miter;stroke-opacity:1;display:inline"
       d="M 10,742.36211 360,1042.3622"
       id="path3027"
       inkscape:connector-curvature="0"
       sodipodi:nodetypes="cc" />
    <path
       style="fill:none;stroke:#ff0000;stroke-width:1px;stroke-linecap:butt;stroke-linejoin:miter;stroke-opacity:1;display:inline"
       d="m 10,732.36211 0,320.00009"
       id="path3006"
       inkscape:connector-curvature="0"
       sodipodi:nodetypes="cc" />
    <path
       style="fill:none;stroke:#ff0000;stroke-width:1px;stroke-linecap:butt;stroke-linejoin:miter;stroke-opacity:1;display:inline"
       d="m 360,732.36211 0,320.00009"
       id="path3010"
       inkscape:connector-curvature="0"
       sodipodi:nodetypes="cc" />
    <path
       style="fill:none;stroke:#ff0000;stroke-width:1px;stroke-linecap:butt;stroke-linejoin:miter;stroke-opacity:1;display:inline"
       d="m 0,742.36208 370,3e-5"
       id="path3016"
       inkscape:connector-curvature="0" />
    <path
       style="fill:none;stroke:#ff0000;stroke-width:1px;stroke-linecap:butt;stroke-linejoin:miter;stroke-opacity:1;display:inline"
       d="m 0,1042.3622 370,0"
       id="path3018"
       inkscape:connector-curvature="0"
       sodipodi:nodetypes="cc" />
  </g>
  <g
     inkscape:groupmode="layer"
     id="layer3"
     inkscape:label="豚"
     sodipodi:insensitive="true">
    <g
       id="g6265"
       transform="translate(0,-34)">
      <path
         sodipodi:nodetypes="cccc"
         inkscape:connector-curvature="0"
         id="path5099-5-2"
         d="m 88.563178,226.48624 c -8.311128,-8.9831 -4.659118,-28.90547 6.472759,-37.90958 l 64.098733,-0.13947 c 14.10482,11.1938 15.62789,27.13268 10.15521,34.15532"
         style="fill:#ffd5d5;stroke:#000000;stroke-width:2;stroke-linecap:butt;stroke-linejoin:miter;stroke-opacity:1;display:inline" />
      <path
         sodipodi:nodetypes="ccccccc"
         inkscape:connector-curvature="0"
         id="path6512-0-4"
         d="m 97.492782,194.99218 c -2.525589,-3.15142 -3.493261,-9.89256 -1.701684,-13.67535 l 9.576272,-25.19807 44.25265,-0.47957 7.41215,8.68417 2.15501,12.84483 c 1.7861,4.76425 1.35094,12.89684 -1.93282,15.86854"
         style="fill:#ffd5d5;stroke:#000000;stroke-width:2;stroke-linecap:butt;stroke-linejoin:miter;stroke-opacity:1;display:inline" />
      <path
         sodipodi:nodetypes="cssc"
         inkscape:connector-curvature="0"
         id="path6508-5-0"
         d="m 143.85144,152.72322 c 7.37927,0.17087 11.90989,4.94508 14.81057,10.09074 4.17943,7.4141 3.48124,13.98777 1.05941,14.48191 -1.88061,0.38373 -3.56137,-7.40607 -4.7382,-8.41027"
         style="fill:#ffd5d5;stroke:#000000;stroke-width:2;stroke-linecap:butt;stroke-linejoin:miter;stroke-opacity:1;display:inline" />
      <path
         sodipodi:nodetypes="cssc"
         inkscape:connector-curvature="0"
         id="path6510-2-9"
         d="m 109.74818,154.03224 c -6.01945,-0.0319 -11.251088,4.25066 -14.61315,11.51559 -3.641424,7.86856 -1.422324,16.22004 1.59281,15.9925 3.84698,-0.29033 3.221156,-8.4619 4.84443,-9.80154"
         style="fill:#ffd5d5;stroke:#000000;stroke-width:2;stroke-linecap:butt;stroke-linejoin:miter;stroke-opacity:1;display:inline" />
      <path
         sodipodi:nodetypes="ssssss"
         inkscape:connector-curvature="0"
         id="path6516-3-8"
         d="m 131.02848,172.68457 c -5.07154,0.18003 -9.97554,4.93544 -12.80442,9.68083 -3.32002,5.56926 -0.81546,11.19676 4.7347,9.26401 6.54338,-2.2786 11.65545,-1.95958 17.58439,-1.43663 4.44765,0.39229 5.21085,-6.80278 2.59009,-10.56505 -2.1731,-3.11965 -7.03554,-7.12311 -12.10476,-6.94316 z"
         style="fill:#ffaaaa;stroke:#000000;stroke-width:2;stroke-linecap:butt;stroke-linejoin:miter;stroke-opacity:1;display:inline" />
      <path
         sodipodi:nodetypes="cc"
         inkscape:connector-curvature="0"
         id="path6518-7-8"
         d="m 135.07721,171.66884 c 0.57733,-1.958 1.58004,-3.46846 2.2262,-4.56562"
         style="fill:none;stroke:#000000;stroke-width:2;stroke-linecap:butt;stroke-linejoin:miter;stroke-opacity:1;display:inline" />
      <path
         sodipodi:nodetypes="sss"
         inkscape:connector-curvature="0"
         id="path6524-2-2"
         d="m 128.4006,178.04076 c -1.69405,0.17549 -5.22696,7.80458 -2.88695,8.878 1.29969,0.5962 3.88994,-8.98188 2.88695,-8.878 z"
         style="fill:#000000;stroke:#000000;stroke-width:2;stroke-linecap:butt;stroke-linejoin:miter;stroke-opacity:1;display:inline" />
      <path
         sodipodi:nodetypes="sss"
         inkscape:connector-curvature="0"
         id="path6526-9-4"
         d="m 134.30123,177.80763 c -0.80656,0.16893 0.65467,9.69183 2.61188,8.07687 1.95597,-1.61396 -0.81735,-8.45279 -2.61188,-8.07687 z"
         style="fill:#000000;stroke:#000000;stroke-width:2;stroke-linecap:butt;stroke-linejoin:miter;stroke-opacity:1;display:inline" />
      <path
         sodipodi:nodetypes="cc"
         inkscape:connector-curvature="0"
         id="path3314-7-5"
         d="m 121.25039,168.21202 c 1.20085,1.19415 2.9336,2.8167 4.22978,4.55528"
         style="fill:none;stroke:#000000;stroke-width:2;stroke-linecap:butt;stroke-linejoin:miter;stroke-opacity:1;display:inline" />
      <path
         sodipodi:nodetypes="cccc"
         inkscape:connector-curvature="0"
         id="path3327-4-8-6-9-2"
         d="m 93.005748,204.325 c -7.262627,8.25624 -8.377346,26.83873 -1.119078,32.28088 l 74.02437,-0.34604 c 5.95213,-9.84374 3.6104,-26.2485 -3.38799,-33.79949"
         style="fill:#ffd5d5;stroke:#000000;stroke-width:2;stroke-linecap:butt;stroke-linejoin:miter;stroke-opacity:1;display:inline" />
      <path
         sodipodi:nodetypes="cc"
         inkscape:connector-curvature="0"
         id="path6506-2-4"
         d="m 150.1124,158.86247 c -9.38137,-13.92838 -35.07231,-15.19627 -44.99915,0.19424"
         style="fill:#ffd5d5;stroke:#000000;stroke-width:2;stroke-linecap:butt;stroke-linejoin:miter;stroke-opacity:1;display:inline" />
    </g>
    <g
       id="g6300"
       transform="translate(0,-34)">
      <path
         sodipodi:nodetypes="cccsccsccsccccsccsc"
         inkscape:connector-curvature="0"
         id="path6506-51-4"
         d="m 186.60527,167.00122 c 2.32145,-5.82661 8.26765,-10.80891 14.96158,-11.44661 9.24903,-7.28843 23.15216,-7.74523 31.54379,-3.02112 6.63421,-1.26218 13.91677,1.60672 17.39384,6.65985 6.16768,8.96336 5.58532,17.30117 2.65903,19.17381 1.35801,3.59651 1.89886,5.84174 1.62392,9.50522 13.19908,10.85908 14.27353,32.25035 10.84703,34.94922 -1.73453,1.36619 -2.17529,-1.26305 -3.95273,-1.06979 0.14324,9.08511 -2.92206,13.24255 -7.4001,17.11991 6.52298,1.46769 7.39115,6.10101 2.40952,8.35922 -6.06435,2.74891 -23.2573,2.94479 -24.96029,-1.87487 -6.2825,0.85794 -12.4663,1.28227 -19.63855,0.72112 -12.2892,10.04001 -24.84407,6.13116 -23.3821,-8.91014 -3.10519,-2.986 -3.79494,-8.40264 -4.24626,-10.44109 -1.45771,-0.35735 -1.67302,2.5257 -3.79076,1.77346 -3.18063,-1.12977 -6.53316,-22.1179 7.92828,-36.12535 -0.62126,-2.35567 -0.93491,-5.31141 -0.0684,-8.91624 -1.8692,-1.67781 -5.14372,-8.38514 -1.92786,-16.4566 z"
         style="fill:#ffd5d5;stroke:none;display:inline" />
      <path
         sodipodi:nodetypes="csccc"
         inkscape:connector-curvature="0"
         id="path3327-4-35-4-3-1-8-8-1"
         d="m 261.7296,221.6499 c 1.27383,0.1667 1.23632,2.60888 3.12281,1.46161 1.45427,-0.88442 2.19369,-3.12002 2.42787,-5.19384 -1.36965,-0.1822 -4.33735,0.12977 -5.7966,-0.26783 z"
         style="fill:#ffaaaa;stroke:none;display:inline" />
      <path
         inkscape:connector-curvature="0"
         id="path6506-1"
         d="m 195.79565,162.32425 c 7.85588,-14.59857 31.9323,-17.33626 43.66996,-5.47225"
         style="fill:none;stroke:#000000;stroke-width:2;stroke-linecap:butt;stroke-linejoin:miter;stroke-opacity:1;display:inline" />
      <path
         sodipodi:nodetypes="cssc"
         inkscape:connector-curvature="0"
         id="path6508-3"
         d="m 233.12424,152.44741 c 6.63324,-1.26252 13.60517,3.47015 17.08224,8.5233 6.16767,8.96334 6.10165,15.3851 3.1719,17.25897 -2.56619,1.64135 -3.82586,-6.64667 -8.42718,-9.46073"
         style="fill:none;stroke:#000000;stroke-width:2;stroke-linecap:butt;stroke-linejoin:miter;stroke-opacity:1;display:inline" />
      <path
         inkscape:connector-curvature="0"
         id="path6510-8"
         d="m 201.77696,155.50508 c -6.69418,0.64026 -12.83761,5.58312 -15.15906,11.40973 -3.21586,8.07146 0.43725,17.29271 3.49848,17.08269 2.02036,-0.13862 2.35845,-10.20083 3.95266,-11.56467"
         style="fill:none;stroke:#000000;stroke-width:2;stroke-linecap:butt;stroke-linejoin:miter;stroke-opacity:1;display:inline" />
      <path
         sodipodi:nodetypes="cc"
         inkscape:connector-curvature="0"
         id="path6512-7"
         d="m 191.74905,198.04482 c -4.40994,-4.17127 -4.06987,-11.06858 -3.21194,-14.67891"
         style="fill:none;stroke:#000000;stroke-width:2;stroke-linecap:butt;stroke-linejoin:miter;stroke-opacity:1;display:inline" />
      <path
         inkscape:connector-curvature="0"
         id="path6516-4"
         d="m 219.8198,176.70447 c -5.5664,1.03264 -10.77043,6.91897 -12.46864,12.55697 -1.68492,5.59396 1.62871,8.97365 5.64114,7.67189 6.62054,-2.14787 12.02761,-3.02868 20.13812,-2.49628 4.5528,0.29885 5.56691,-5.60857 3.11219,-9.34332 -2.96481,-4.51084 -10.28489,-9.52791 -16.42281,-8.38926 z"
         style="fill:#ffaaaa;stroke:#000000;stroke-width:2;stroke-linecap:butt;stroke-linejoin:miter;stroke-opacity:1;display:inline" />
      <path
         sodipodi:nodetypes="cc"
         inkscape:connector-curvature="0"
         id="path6518-2"
         d="m 226.08032,175.10603 c 0.49471,-1.90675 1.23853,-3.32087 2.01418,-4.93252"
         style="fill:none;stroke:#000000;stroke-width:2;stroke-linecap:butt;stroke-linejoin:miter;stroke-opacity:1;display:inline" />
      <path
         sodipodi:nodetypes="sss"
         inkscape:connector-curvature="0"
         id="path6524-7"
         d="m 217.8976,182.96915 c -1.717,0.17865 -4.06548,8.2857 -1.68667,9.1034 2.20767,0.75889 2.70326,-9.20916 1.68667,-9.1034 z"
         style="fill:#000000;stroke:#000000;stroke-width:2;stroke-linecap:butt;stroke-linejoin:miter;stroke-opacity:1;display:inline" />
      <path
         sodipodi:nodetypes="sss"
         inkscape:connector-curvature="0"
         id="path6526-7"
         d="m 224.43057,182.01202 c -0.81378,0.17201 2.46333,9.91291 4.38553,8.26878 1.92099,-1.64312 -2.57497,-8.65147 -4.38553,-8.26878 z"
         style="fill:#000000;stroke:#000000;stroke-width:2;stroke-linecap:butt;stroke-linejoin:miter;stroke-opacity:1;display:inline" />
      <path
         sodipodi:nodetypes="cc"
         inkscape:connector-curvature="0"
         id="path3314-9"
         d="m 210.82719,172.69685 c 1.01587,1.03258 2.24434,2.91686 3.14162,4.05825"
         style="fill:none;stroke:#000000;stroke-width:2;stroke-linecap:butt;stroke-linejoin:miter;stroke-opacity:1;display:inline" />
      <path
         sodipodi:nodetypes="cc"
         inkscape:connector-curvature="0"
         id="path6520-31"
         d="m 253.17959,178.27953 c 2.07973,5.49434 2.46301,9.92963 -0.32404,15.03742"
         style="fill:none;stroke:#000000;stroke-width:2;stroke-linecap:butt;stroke-linejoin:miter;stroke-opacity:1;display:inline" />
      <path
         sodipodi:nodetypes="csc"
         inkscape:connector-curvature="0"
         id="path3333-4-88-2-2-9"
         d="m 253.92694,238.78722 c 6.91129,1.39196 7.75847,6.09907 2.77683,8.35728 -6.06434,2.74891 -23.25731,2.9448 -24.9739,-1.8766"
         style="fill:none;stroke:#000000;stroke-width:2;stroke-linecap:butt;stroke-linejoin:miter;stroke-opacity:1;display:inline" />
      <path
         sodipodi:nodetypes="scccs"
         inkscape:connector-curvature="0"
         id="path3327-4-35-4-3-1-4-0-3-8"
         d="m 180.67381,228.41341 c 2.0634,0.89053 2.31911,-2.15173 3.77942,-1.79808 l -0.36797,-3.49587 c -1.21179,0.29287 -3.78505,0.2566 -5.56199,0.25336 -0.13601,1.27948 -0.40259,3.93871 2.15054,5.04059 z"
         style="fill:#ffaaaa;stroke:none;display:inline" />
      <path
         inkscape:connector-curvature="0"
         id="path3331-0-2-0-3-6"
         d="m 190.87599,239.01815 c -6.34045,-3.06613 -8.74211,-18.17175 -4.62044,-26.83319"
         style="fill:none;stroke:#000000;stroke-width:2;stroke-linecap:butt;stroke-linejoin:miter;stroke-opacity:1;display:inline" />
      <path
         sodipodi:nodetypes="cc"
         inkscape:connector-curvature="0"
         id="path3327-4-35-4-3-5"
         d="m 259.70578,209.74328 c 5.77889,20.52326 -2.23214,28.43309 -10.0402,31.53269"
         style="fill:none;stroke:#000000;stroke-width:2;stroke-linecap:butt;stroke-linejoin:miter;stroke-opacity:1;display:inline" />
      <path
         sodipodi:nodetypes="cc"
         inkscape:connector-curvature="0"
         id="path3325-8-9-0-4-0"
         d="m 239.17144,244.61178 c -9.29388,1.09296 -23.93016,3.22042 -35.09454,0.37716"
         style="fill:none;stroke:#000000;stroke-width:2;stroke-linecap:butt;stroke-linejoin:miter;stroke-opacity:1;display:inline" />
      <path
         sodipodi:nodetypes="csc"
         inkscape:connector-curvature="0"
         id="path3327-4-35-4-3-1-2"
         d="m 254.80192,187.79199 c 13.19722,10.85305 14.27167,32.24432 10.84516,34.94318 -1.73452,1.3662 -2.17528,-1.26304 -3.95114,-1.06716"
         style="fill:none;stroke:#000000;stroke-width:2;stroke-linecap:butt;stroke-linejoin:miter;stroke-opacity:1;display:inline" />
      <path
         sodipodi:nodetypes="csc"
         inkscape:connector-curvature="0"
         id="path3327-4-35-4-3-1-4-8"
         d="m 188.61208,192.28649 c -14.45944,14.0086 -11.1069,34.99674 -7.92627,36.12651 2.11773,0.75224 2.33305,-2.13082 3.79336,-1.77716"
         style="fill:none;stroke:#000000;stroke-width:2;stroke-linecap:butt;stroke-linejoin:miter;stroke-opacity:1;display:inline" />
      <path
         sodipodi:nodetypes="cc"
         inkscape:connector-curvature="0"
         id="path3333-4-88-2-2-7-60"
         d="m 212.1526,245.98519 c -12.33688,10.04557 -24.89175,6.13672 -23.43057,-8.9058"
         style="fill:none;stroke:#000000;stroke-width:2;stroke-linecap:butt;stroke-linejoin:miter;stroke-opacity:1;display:inline" />
      <path
         sodipodi:nodetypes="cc"
         inkscape:connector-curvature="0"
         id="path5111-7-6-0-2-2-6-8-8-2"
         d="m 267.23116,217.94411 c -1.36958,-0.18046 -4.33729,0.13151 -5.79652,-0.26608"
         style="fill:none;stroke:#000000;stroke-width:2;stroke-linecap:butt;stroke-linejoin:miter;stroke-opacity:1;display:inline" />
      <path
         sodipodi:nodetypes="cc"
         inkscape:connector-curvature="0"
         id="path5111-7-6-0-2-2-6-8-8-3-4"
         d="m 184.11819,223.09115 c -1.2118,0.29287 -3.78506,0.36818 -5.55987,0.36503"
         style="fill:none;stroke:#000000;stroke-width:2;stroke-linecap:butt;stroke-linejoin:miter;stroke-opacity:1;display:inline" />
    </g>
    <g
       id="g6326"
       transform="translate(0,-34)">
      <path
         id="path5345-1"
         d="m 325.60888,222.94987 0,45.68303 -297.195237,0 0,-45.68303 28.003095,-7.40646 241.189052,0 z"
         style="fill:#dedbe3;fill-opacity:1;stroke:#000000;stroke-width:2;stroke-linecap:round;stroke-miterlimit:4;stroke-opacity:1;stroke-dashoffset:0"
         inkscape:connector-curvature="0"
         sodipodi:nodetypes="ccccccc" />
      <path
         id="rect5067-9"
         d="m 28.413643,222.94987 297.195237,0"
         style="fill:#d38d5f;fill-opacity:1;stroke:#000000;stroke-width:2;stroke-linecap:round;stroke-miterlimit:4;stroke-opacity:1;stroke-dashoffset:0"
         inkscape:connector-curvature="0"
         sodipodi:nodetypes="cc" />
    </g>
    <g
       id="g6247"
       transform="translate(0,-34)">
      <path
         sodipodi:nodetypes="ccccc"
         inkscape:connector-curvature="0"
         id="path5496-6"
         d="m 232.56775,290.1043 c -1.30846,-5.76093 8.64238,-14.46815 14.09158,-14.67876 8.42869,-2.9625 88.49131,-1.85333 94.77557,0.25742 4.67828,2.04388 13.11019,9.67919 14.33952,15.13999 -4.92483,5.90915 -111.22554,5.69902 -123.20667,-0.71865 z"
         style="fill:#442178;stroke:#000000;stroke-width:2;stroke-linecap:butt;stroke-linejoin:miter;stroke-opacity:1" />
      <path
         inkscape:connector-curvature="0"
         id="path5498-8"
         d="m 225.92936,292.07303 6.21505,-1.70846 -0.31809,5.12537"
         style="fill:none;stroke:#000000;stroke-width:2;stroke-linecap:butt;stroke-linejoin:miter;stroke-opacity:1" />
      <path
         inkscape:connector-curvature="0"
         id="path5500-5"
         d="m 240.40095,273.28012 5.67307,2.019 -1.12436,-3.57219"
         style="fill:none;stroke:#000000;stroke-width:2;stroke-linecap:butt;stroke-linejoin:miter;stroke-opacity:1" />
      <path
         inkscape:connector-curvature="0"
         id="path5502-7"
         d="m 358.74808,290.70742 -3.35523,-0.0322 1.01483,4.62911"
         style="fill:none;stroke:#000000;stroke-width:2;stroke-linecap:butt;stroke-linejoin:miter;stroke-opacity:1"
         sodipodi:nodetypes="ccc" />
      <path
         inkscape:connector-curvature="0"
         id="path5504-6"
         d="m 343.61382,273.59066 -2.36112,2.17439 -1.01115,-3.72745"
         style="fill:none;stroke:#000000;stroke-width:2;stroke-linecap:butt;stroke-linejoin:miter;stroke-opacity:1" />
    </g>
    <g
       id="g6154"
       transform="translate(0,-34)">
      <path
         sodipodi:nodetypes="ccccc"
         inkscape:connector-curvature="0"
         id="path5496"
         d="m 15.085787,288.7255 c 0.214643,-5.76093 12.467532,-14.46815 17.97242,-14.67876 9.211924,-2.9625 88.981303,-1.85333 94.707503,0.25742 4.13792,2.04388 10.55117,9.67919 10.33676,15.13999 -6.48712,5.90915 -112.732283,5.69902 -123.016683,-0.71865 z"
         style="fill:#442178;stroke:#000000;stroke-width:2;stroke-linecap:butt;stroke-linejoin:miter;stroke-opacity:1" />
      <path
         inkscape:connector-curvature="0"
         id="path5498"
         d="m 10.272179,289.26102 4.321462,-0.27525 -0.500511,4.60422"
         style="fill:none;stroke:#000000;stroke-width:2;stroke-linecap:butt;stroke-linejoin:miter;stroke-opacity:1"
         sodipodi:nodetypes="ccc" />
      <path
         inkscape:connector-curvature="0"
         id="path5500"
         d="m 27.367037,271.90132 5.139279,2.019 -0.179924,-3.57219"
         style="fill:none;stroke:#000000;stroke-width:2;stroke-linecap:butt;stroke-linejoin:miter;stroke-opacity:1" />
      <path
         inkscape:connector-curvature="0"
         id="path5502"
         d="m 141.9684,291.47082 -4.20846,-2.17439 0.66299,6.05724"
         style="fill:none;stroke:#000000;stroke-width:2;stroke-linecap:butt;stroke-linejoin:miter;stroke-opacity:1" />
      <path
         inkscape:connector-curvature="0"
         id="path5504"
         d="m 130.49781,272.21186 -2.93599,2.17439 -0.0257,-3.72745"
         style="fill:none;stroke:#000000;stroke-width:2;stroke-linecap:butt;stroke-linejoin:miter;stroke-opacity:1" />
    </g>
    <g
       id="g6133"
       transform="translate(0,-34)">
      <path
         sodipodi:nodetypes="cc"
         inkscape:connector-curvature="0"
         id="path5091-2-40-9-9"
         d="m 94.017691,179.35943 c 7.192969,-2.15958 25.343809,12.28581 14.991549,37.60671"
         style="fill:#ffd5d5;stroke:#000000;stroke-width:2;stroke-linecap:butt;stroke-linejoin:miter;stroke-opacity:1;display:inline" />
      <path
         sodipodi:nodetypes="cscssc"
         inkscape:connector-curvature="0"
         id="path3754"
         d="m 101.07222,187.33 c -14.675588,-21.70769 -47.502631,-19.09794 -61.731796,2.57174 -10.743258,16.36095 -16.614083,35.14663 -10.393296,44.16293 -6.838348,20.39345 -8.851239,37.5491 9.400353,48.0689 13.985836,8.06088 35.565824,8.29762 66.174509,-0.35784 19.97098,-5.64714 24.8377,-19.75374 16.98123,-31.81398"
         style="fill:#ffd5d5;stroke:#000000;stroke-width:2;stroke-linecap:butt;stroke-linejoin:miter;stroke-opacity:1;display:inline" />
      <path
         inkscape:connector-curvature="0"
         id="path3327-1"
         d="m 65.719112,284.02095 c 14.36523,5.24906 29.022141,-12.21118 10.302153,-16.97351 -14.20034,-3.61255 -30.267836,5.03449 -22.134129,14.98819"
         style="fill:none;stroke:#000000;stroke-width:2;stroke-linecap:butt;stroke-linejoin:miter;stroke-opacity:1;display:inline" />
      <path
         inkscape:connector-curvature="0"
         id="path5089-8-7-0-8"
         d="m 73.145948,236.42589 c 24.388208,-2.66128 34.752192,20.79848 42.975472,18.77738 11.73072,-2.88301 9.17,-27.26252 -2.31329,-34.53265"
         style="fill:#ffd5d5;stroke:#000000;stroke-width:2;stroke-linecap:butt;stroke-linejoin:miter;stroke-opacity:1;display:inline" />
      <path
         sodipodi:nodetypes="cc"
         inkscape:connector-curvature="0"
         id="path5093-4-9-4-2"
         d="m 108.76638,198.45215 c 7.32805,9.69614 6.46353,24.66225 -1.48441,30.67326"
         style="fill:#ffd5d5;stroke:#000000;stroke-width:2;stroke-linecap:butt;stroke-linejoin:miter;stroke-opacity:1;display:inline" />
      <path
         sodipodi:nodetypes="cc"
         inkscape:connector-curvature="0"
         id="path5095-5-4-8-7"
         d="m 95.17332,194.22092 c -0.300831,1.67026 -0.897172,4.69398 -1.002877,7.09072"
         style="fill:none;stroke:#000000;stroke-width:2;stroke-linecap:butt;stroke-linejoin:miter;stroke-opacity:1;display:inline" />
      <path
         sodipodi:nodetypes="cc"
         inkscape:connector-curvature="0"
         id="path5097-5-8-8-9"
         d="m 78.175033,197.61717 c 1.498546,1.29273 4.230914,4.01413 6.069071,6.07137"
         style="fill:none;stroke:#000000;stroke-width:2;stroke-linecap:butt;stroke-linejoin:miter;stroke-opacity:1;display:inline" />
      <path
         inkscape:connector-curvature="0"
         id="path5099-1-8-2-54"
         d="m 51.019608,181.9143 c -21.909209,0.10504 -22.429711,33.01836 -11.937198,35.93119 4.719505,1.31026 13.167688,-14.13923 17.109707,-19.40545"
         style="fill:#ffd5d5;stroke:#000000;stroke-width:2;stroke-linecap:butt;stroke-linejoin:miter;stroke-opacity:1;display:inline"
         sodipodi:nodetypes="ccc" />
      <path
         inkscape:connector-curvature="0"
         id="path5101-7-2-4-3"
         d="m 77.021848,215.28191 c -4.503094,8.08603 0.756065,12.80702 6.533369,10.95599 6.342589,-2.03215 12.136435,-2.42839 16.225118,-1.68906 4.270545,0.77223 6.297625,-5.67245 4.735565,-10.83637 -1.46215,-4.83366 -5.166122,-10.69326 -11.364082,-10.421 -5.008046,0.21999 -12.955717,6.29052 -16.12997,11.99044 z"
         style="fill:#ffaaaa;stroke:#000000;stroke-width:2;stroke-linecap:butt;stroke-linejoin:miter;stroke-opacity:1;display:inline"
         sodipodi:nodetypes="ssssss" />
      <path
         sodipodi:nodetypes="sss"
         inkscape:connector-curvature="0"
         id="path5105-1-4-55-12"
         d="m 85.857511,220.45318 c 1.164235,1.51366 5.680886,-10.9951 4.506957,-10.19383 -0.756932,0.51661 -6.665324,7.38769 -4.506957,10.19383 z"
         style="fill:#000000;stroke:#000000;stroke-width:2;display:inline" />
      <path
         sodipodi:nodetypes="sss"
         inkscape:connector-curvature="0"
         id="path5107-1-5-1-3"
         d="m 96.037789,209.77664 c -1.001933,-0.73577 0.814841,9.8049 1.929759,8.81314 2.244122,-1.99626 -0.839469,-8.01248 -1.929759,-8.81314 z"
         style="fill:#000000;stroke:#000000;stroke-width:2;display:inline" />
      <path
         inkscape:connector-curvature="0"
         id="path3737"
         d="m 74.8786,260.32294 c 9.915936,-2.25388 15.631999,-7.37801 27.33671,-12.61312"
         style="fill:none;stroke:#000000;stroke-width:2;stroke-linecap:butt;stroke-linejoin:miter;stroke-opacity:1" />
      <path
         inkscape:connector-curvature="0"
         id="path3739"
         d="m 88.792459,238.95072 c 6.664407,-5.77024 8.312985,-5.57502 13.977331,-5.86669"
         style="fill:none;stroke:#000000;stroke-width:2;stroke-linecap:butt;stroke-linejoin:miter;stroke-opacity:1" />
      <path
         inkscape:connector-curvature="0"
         id="path3327-1-2"
         d="m 107.76458,278.12059 c -1.23357,10.1237 25.69913,-5.89417 26.55091,-15.3485 0.65795,-7.30298 -20.84355,-1.14013 -27.33372,9.1386"
         style="fill:#ffd5d5;stroke:#000000;stroke-width:2;stroke-linecap:butt;stroke-linejoin:miter;stroke-opacity:1;display:inline" />
    </g>
    <g
       id="g6227"
       transform="translate(0,-34)">
      <path
         sodipodi:nodetypes="ccccc"
         inkscape:connector-curvature="0"
         id="path5095-5-4-8-7-7-1"
         d="m 247.57593,237.92514 c 2.80881,1.79262 9.22387,3.67809 10.43736,6.74924 l 56.71259,-37.18256 -79.49694,4.9942 z"
         style="fill:#ffd5d5;stroke:none;display:inline" />
      <path
         sodipodi:nodetypes="cssc"
         inkscape:connector-curvature="0"
         id="path3754-6"
         d="m 316.568,207.2155 c 16.05443,10.54743 33.0079,52.28731 19.04061,68.1675 -12.55576,14.27523 -37.2966,13.08484 -59.0421,11.43594 -19.61012,-1.48695 -32.54918,-15.76825 -23.18794,-45.57453"
         style="fill:#ffd5d5;stroke:#000000;stroke-width:2;stroke-linecap:butt;stroke-linejoin:miter;stroke-opacity:1;display:inline" />
      <path
         sodipodi:nodetypes="cssc"
         inkscape:connector-curvature="0"
         id="path5093-4-9-4-2-7"
         d="m 233.66069,214.07683 c 6.2332,-3.44426 4.49666,-9.58468 7.55392,-16.41747 11.08198,-24.76758 40.80685,-25.53185 56.51797,-14.93052 12.29706,8.29764 20.00005,17.45154 18.50186,26.74799"
         style="fill:#ffd5d5;stroke:#000000;stroke-width:2;stroke-linecap:butt;stroke-linejoin:miter;stroke-opacity:1;display:inline" />
      <path
         inkscape:connector-curvature="0"
         id="path5095-5-4-8-7-7"
         d="m 247.84894,237.99159 c 2.80881,1.79262 9.22387,3.67809 10.43736,6.74924"
         style="fill:none;stroke:#000000;stroke-width:2;stroke-linecap:butt;stroke-linejoin:miter;stroke-opacity:1;display:inline" />
      <path
         inkscape:connector-curvature="0"
         id="path5097-5-8-8-9-1"
         d="m 249.56969,206.51944 c -1.22811,1.41732 -3.35245,5.35215 -4.13615,7.2013"
         style="fill:none;stroke:#000000;stroke-width:2;stroke-linecap:butt;stroke-linejoin:miter;stroke-opacity:1;display:inline" />
      <path
         sodipodi:nodetypes="cssc"
         inkscape:connector-curvature="0"
         id="path5099-1-8-2-54-9"
         d="m 269.82904,184.9074 c 13.73956,-6.72207 20.87557,17.46507 16.88864,22.60687 -1.89892,2.44897 -14.06522,2.13146 -21.34896,-2.79061 -2.90614,-1.96386 -0.55658,-7.1121 0.77069,-9.64699"
         style="fill:none;stroke:#000000;stroke-width:2;stroke-linecap:butt;stroke-linejoin:miter;stroke-opacity:1;display:inline" />
      <path
         sodipodi:nodetypes="ssss"
         inkscape:connector-curvature="0"
         id="path5101-7-2-4-3-1"
         d="m 251.28294,238.17831 c -2.28876,2.14559 -8.31583,1.19929 -9.10686,-2.33633 -1.63621,-7.31313 -11.05217,-20.95835 -8.29668,-21.94629 6.33007,-2.26955 21.82659,20.13626 17.40354,24.28262 z"
         style="fill:#ffaaaa;stroke:#000000;stroke-width:2;stroke-linecap:butt;stroke-linejoin:miter;stroke-opacity:1;display:inline" />
      <path
         sodipodi:nodetypes="sss"
         inkscape:connector-curvature="0"
         id="path5107-1-5-1-3-7"
         d="m 239.24109,220.69294 c 0.71261,0.1227 7.10798,8.22255 6.01513,11.29724 -0.59213,1.66592 -6.98991,-11.46513 -6.01513,-11.29724 z"
         style="fill:#000000;stroke:#000000;stroke-width:2;display:inline" />
      <path
         sodipodi:nodetypes="csc"
         inkscape:connector-curvature="0"
         id="path3327-1-2-6"
         d="m 304.96282,282.71879 c 6.35434,7.28118 -30.10173,9.09637 -36.44214,2.7156 -6.57694,-6.61888 17.28968,-13.53901 27.84805,-8.93343"
         style="fill:#ffd5d5;stroke:#000000;stroke-width:2;stroke-linecap:butt;stroke-linejoin:miter;stroke-opacity:1;display:inline" />
      <path
         sodipodi:nodetypes="csssc"
         inkscape:connector-curvature="0"
         id="path4014-7-3-4-3"
         d="m 255.24039,239.55089 c -1.98022,19.79752 -4.2361,42.39935 -0.54347,45.54597 1.15086,0.98065 3.21609,-1.96204 4.94278,-2.11409 2.02429,-0.17793 2.90769,4.08046 5.28573,3.9585 2.96871,-0.15205 15.48252,-15.25886 22.86686,-33.55433"
         style="fill:#ffd5d5;stroke:none;display:inline" />
      <path
         sodipodi:nodetypes="sssccs"
         inkscape:connector-curvature="0"
         id="path4014-7-3-4-5"
         d="m 265.10732,286.81683 c -2.37804,0.12134 -3.26144,-4.13643 -5.28573,-3.9585 -1.72669,0.15205 -3.79193,3.09474 -4.94278,2.11409 -3.69265,-3.14662 -1.82525,-11.32017 -1.82525,-11.32017 3.69698,3.00943 13.11713,6.09723 19.20794,5.9453 0,0 -4.18547,7.06711 -7.15418,7.21928 z"
         style="fill:#ffaaaa;stroke:none;display:inline" />
      <path
         sodipodi:nodetypes="csssc"
         inkscape:connector-curvature="0"
         id="path4014-7-3-4"
         d="m 255.28768,239.47105 c -1.98022,19.7975 -4.23611,42.39933 -0.54347,45.54595 1.15086,0.98064 3.21609,-1.96204 4.94277,-2.11409 2.0243,-0.17793 2.9077,4.08046 5.28573,3.9585 2.96872,-0.15205 15.48253,-15.25886 22.86687,-33.55435"
         style="fill:none;stroke:#000000;stroke-width:2;stroke-linecap:butt;stroke-linejoin:miter;stroke-opacity:1;display:inline" />
      <path
         sodipodi:nodetypes="cc"
         inkscape:connector-curvature="0"
         id="path4016-6-1-2"
         d="m 252.91895,273.69683 c 3.69698,3.00942 13.55101,6.15195 19.64182,6.00003"
         style="fill:none;stroke:#000000;stroke-width:2;stroke-linecap:butt;stroke-linejoin:miter;stroke-opacity:1;display:inline" />
    </g>
    <g
       id="g6183"
       transform="translate(0,-34)">
      <path
         id="path5133-7-8"
         d="m 212.68342,280.14496 c -2.20899,0.026 -3.29429,-0.28694 -4.10238,-0.15787 -1.09975,0.17565 -1.36751,1.23398 -1.20967,2.54213 l 8.33149,3.15033 z"
         style="fill:#c87137;stroke:#000000;stroke-width:2;stroke-linecap:butt;stroke-linejoin:miter;stroke-opacity:1;display:inline"
         inkscape:connector-curvature="0"
         sodipodi:nodetypes="csccc" />
      <path
         id="path5135-6-5"
         d="m 227.38795,280.32239 c 1.38041,-0.10277 3.0739,-0.37279 3.93143,-0.28268 1.05717,0.11109 1.78092,0.86056 1.99859,1.50775 0.23749,0.70615 0.0375,3.37085 -0.56101,4.50553 l -10.8509,-3.47511 z"
         style="fill:#c87137;stroke:#000000;stroke-width:2;stroke-linecap:butt;stroke-linejoin:miter;stroke-opacity:1;display:inline"
         inkscape:connector-curvature="0"
         sodipodi:nodetypes="cssccc" />
      <path
         id="path5127-1-7"
         d="m 211.83478,282.14229 c -2.33572,0.14227 -4.76405,-0.1101 -5.901,1.52471 -1.03667,1.49063 -0.41722,4.06659 0.61911,5.74905 1.94077,3.15082 6.80019,5.8767 10.46079,7.87465 0.66414,0.36254 3.93408,0.44649 4.93009,0.0706 3.89697,-1.47271 8.21271,-4.21656 9.97167,-7.8541 0.78351,-1.62032 1.27385,-5.06558 0.42075,-6.34635 -0.95596,-1.4352 -4.22981,-1.22681 -5.61006,-1.26222"
         style="fill:#c87137;stroke:#000000;stroke-width:2;stroke-linecap:butt;stroke-linejoin:miter;stroke-opacity:1;display:inline"
         inkscape:connector-curvature="0"
         sodipodi:nodetypes="cssccssc" />
      <path
         id="path5129-4-6"
         d="m 215.87947,283.43001 c -1.79346,0.37703 -2.48797,0.70106 -3.08607,1.58971 -0.6606,0.98152 -0.86965,3.40478 -0.62409,5.00948 0.49973,3.26573 3.6397,5.97291 5.1818,7.38841"
         style="fill:none;stroke:#000000;stroke-width:2;stroke-linecap:butt;stroke-linejoin:miter;stroke-opacity:1;display:inline"
         inkscape:connector-curvature="0"
         sodipodi:nodetypes="cssc" />
      <path
         id="path5131-2-1"
         d="m 219.7751,297.5896 c 3.60328,-1.75204 3.85314,-5.03449 3.99172,-7.90895 0.0711,-1.47506 0.10968,-3.05004 -0.0744,-4.36364 -0.12631,-0.9014 -1.06483,-1.76603 -1.95868,-2.00822"
         style="fill:none;stroke:#000000;stroke-width:2;stroke-linecap:butt;stroke-linejoin:miter;stroke-opacity:1;display:inline"
         inkscape:connector-curvature="0"
         sodipodi:nodetypes="cssc" />
      <path
         id="path5143-3-8"
         d="m 214.91561,279.88729 c -0.70607,0.0768 -1.43456,0.0632 -2.2066,-0.12394 0.0228,0.59396 -0.24984,1.01866 -0.83677,1.34492 0.25284,0.33147 0.82361,0.73673 1.33264,1.02275 0.62296,0.36527 1.46245,0.38025 2.79199,0.25792 2.02268,0.84828 4.42305,0.5661 5.82044,0 2.16591,0.18969 3.87085,-0.31104 4.87376,-1.06943 0.45311,-0.21185 0.64141,-0.79393 0.71471,-1.57263 -0.67804,0.0681 -1.11646,-0.0384 -1.38091,-0.30323"
         style="fill:#c87137;stroke:#000000;stroke-width:2;stroke-linecap:butt;stroke-linejoin:miter;stroke-opacity:1;display:inline"
         inkscape:connector-curvature="0" />
      <path
         id="path5137-2-9"
         d="m 211.87008,280.77991 c 1.16824,0.63432 2.42888,0.63841 2.68963,-0.21434 0.3162,-1.03401 0.23265,-1.96448 -1.17486,-2.27208 -2.83489,-0.61955 -7.68299,-2.30885 -8.39775,-7.26014 l 30.60995,-0.0532 c -3.4989,6.79743 -8.57402,6.3155 -9.19593,7.21978 -0.29411,0.42765 -0.74268,1.83586 1.09908,1.22358"
         style="fill:#c87137;stroke:#000000;stroke-width:2;stroke-linecap:butt;stroke-linejoin:miter;stroke-opacity:1;display:inline"
         inkscape:connector-curvature="0"
         sodipodi:nodetypes="ccsccsc" />
      <path
         id="path5141-2-2"
         d="m 226.84578,280.8464 c -2.34926,0.71456 -2.70067,-1.57909 -2.16162,-2.05614 1.02557,-0.90762 7.84009,-1.66599 7.84317,-8.03302 l -20.53731,0 c -3.86013,0 1.68003,7.79753 2.75581,8.28103 1.16651,0.52427 1.28793,-0.26102 2.12847,0.61983 0.52827,0.5536 0.28629,2.27506 -0.87428,2.40321"
         style="fill:#c87137;stroke:#000000;stroke-width:2;stroke-linecap:butt;stroke-linejoin:miter;stroke-opacity:1;display:inline"
         inkscape:connector-curvature="0"
         sodipodi:nodetypes="cscsssc" />
      <path
         id="path5145-1-7"
         d="m 211.86892,281.10642 -0.0355,1.03834 c 1.02291,1.24389 2.5487,1.31732 4.04734,1.28512 1.98333,0.61774 4.16495,0.49119 5.8591,-0.12134 2.18367,0 3.7653,-0.11763 4.98827,-1.40844 0.40007,-0.13521 0.82816,-0.97694 0.66792,-1.57882 l 0.007,-0.58319"
         style="fill:none;stroke:#000000;stroke-width:2;stroke-linecap:butt;stroke-linejoin:miter;stroke-opacity:1;display:inline"
         inkscape:connector-curvature="0" />
      <path
         id="path5147-6-9"
         d="m 221.81522,282.05883 c -0.66336,-0.0656 -0.69907,-1.93072 -0.51342,-2.43168 0.17904,-0.48315 0.40069,-0.50511 0.87374,-0.91775 1.48184,-1.2926 1.39998,-4.65721 1.28177,-7.90883"
         style="fill:none;stroke:#000000;stroke-width:2;stroke-linecap:butt;stroke-linejoin:miter;stroke-opacity:1;display:inline"
         inkscape:connector-curvature="0"
         sodipodi:nodetypes="cssc" />
      <path
         id="path5133-7"
         d="m 138.28251,280.41687 c -2.20899,0.026 -3.29428,-0.28694 -4.10238,-0.15787 -1.09975,0.17565 -1.67061,1.95741 -1.20966,2.54213 0,0 6.38169,5.38945 8.33148,3.15033 z"
         style="fill:#c87137;stroke:#000000;stroke-width:2;stroke-linecap:butt;stroke-linejoin:miter;stroke-opacity:1"
         inkscape:connector-curvature="0"
         sodipodi:nodetypes="csscc" />
      <path
         id="path5135-6"
         d="m 152.98704,280.5943 c 1.28011,-0.52669 3.0739,-0.3728 3.93143,-0.28268 1.05717,0.11109 1.78092,0.86056 1.99859,1.50775 0.23749,0.70615 -0.0515,3.4131 -0.56101,4.50553 l -10.8509,-3.47511 z"
         style="fill:#c87137;stroke:#000000;stroke-width:2;stroke-linecap:butt;stroke-linejoin:miter;stroke-opacity:1"
         inkscape:connector-curvature="0"
         sodipodi:nodetypes="cssccc" />
      <path
         id="path5127-1"
         d="m 137.43387,282.4142 c -2.33572,0.14226 -4.76405,-0.1101 -5.90099,1.5247 -1.03668,1.49064 -0.41723,4.0666 0.6191,5.74905 1.94077,3.15083 6.80021,5.87668 10.46079,7.87466 0.66416,0.36251 3.93422,0.44684 4.93009,0.0706 3.8971,-1.47235 8.21272,-4.21655 9.97168,-7.8541 0.78351,-1.6203 1.27385,-5.06557 0.42075,-6.34635 -0.95596,-1.4352 -4.22982,-1.2268 -5.61007,-1.26221"
         style="fill:#c87137;stroke:#000000;stroke-width:2;stroke-linecap:butt;stroke-linejoin:miter;stroke-opacity:1"
         inkscape:connector-curvature="0"
         sodipodi:nodetypes="cssssssc" />
      <path
         id="path5129-4"
         d="m 141.47856,283.70191 c -1.79345,0.37703 -2.48797,0.70107 -3.08606,1.58972 -0.6606,0.98151 -0.86966,3.40478 -0.6241,5.00948 0.49973,3.26573 3.6397,5.97291 5.18181,7.38841"
         style="fill:none;stroke:#000000;stroke-width:2;stroke-linecap:butt;stroke-linejoin:miter;stroke-opacity:1"
         inkscape:connector-curvature="0" />
      <path
         id="path5131-2"
         d="m 145.37419,297.86151 c 3.60329,-1.75205 3.85314,-5.03449 3.99172,-7.90895 0.0711,-1.47506 0.10968,-3.05004 -0.0744,-4.36364 -0.12631,-0.9014 -1.06483,-1.76603 -1.95868,-2.00822"
         style="fill:none;stroke:#000000;stroke-width:2;stroke-linecap:butt;stroke-linejoin:miter;stroke-opacity:1"
         inkscape:connector-curvature="0"
         sodipodi:nodetypes="cssc" />
      <path
         id="path5143-3"
         d="m 140.51471,280.1592 c -0.70608,0.0768 -1.43457,0.0632 -2.20661,-0.12394 0.0228,0.59396 -0.24984,1.01866 -0.83677,1.34492 0.25284,0.33147 0.82361,0.73673 1.33264,1.02275 0.62296,0.36526 1.46245,0.38025 2.79199,0.25791 2.02268,0.84829 4.42305,0.5661 5.82044,0 2.16591,0.18969 3.87085,-0.31103 4.87376,-1.06942 0.45312,-0.21186 0.64141,-0.79393 0.71471,-1.57263 -0.67804,0.0681 -1.11645,-0.0384 -1.38091,-0.30323"
         style="fill:#c87137;stroke:#000000;stroke-width:2;stroke-linecap:butt;stroke-linejoin:miter;stroke-opacity:1"
         inkscape:connector-curvature="0" />
      <path
         id="path5137-2"
         d="m 137.46918,281.38018 c 1.16823,0.63433 2.42887,0.63841 2.68962,-0.21433 0.3162,-1.03401 0.23263,-1.96439 -1.17486,-2.27208 -2.83491,-0.61947 -7.68299,-2.30886 -8.39775,-7.26014 l 30.60995,-0.0532 c -3.4989,6.79742 -8.57398,6.31552 -9.19593,7.21977 -0.29408,0.42767 -0.74268,1.83587 1.09908,1.22358"
         style="fill:#c87137;stroke:#000000;stroke-width:2;stroke-linecap:butt;stroke-linejoin:miter;stroke-opacity:1"
         inkscape:connector-curvature="0" />
      <path
         id="path5141-2"
         d="m 152.44487,281.44667 c -2.34926,0.71456 -2.70067,-1.57909 -2.16162,-2.05614 1.02556,-0.90762 7.84009,-1.66599 7.84318,-8.03302 l -20.53732,0 c -0.34616,3.84459 1.68003,7.79754 2.75582,8.28103 1.1665,0.52427 1.28792,-0.261 2.12846,0.61984 0.52826,0.5536 0.28629,2.27505 -0.87427,2.40321"
         style="fill:#c87137;stroke:#000000;stroke-width:2;stroke-linecap:butt;stroke-linejoin:miter;stroke-opacity:1"
         inkscape:connector-curvature="0"
         sodipodi:nodetypes="csccssc" />
      <path
         id="path5145-1"
         d="m 137.46801,281.37832 -0.0355,1.03835 c 1.0229,1.24389 2.54869,1.31731 4.04734,1.28512 1.98332,0.61774 4.16494,0.49119 5.85909,-0.12134 2.18367,0 3.7653,-0.11763 4.98827,-1.40845 0.40007,-0.13521 0.82817,-0.97693 0.66792,-1.57881 l 0.007,-0.58319"
         style="fill:none;stroke:#000000;stroke-width:2;stroke-linecap:butt;stroke-linejoin:miter;stroke-opacity:1"
         inkscape:connector-curvature="0" />
      <path
         id="path5147-6"
         d="m 147.41431,282.65911 c -0.66336,-0.0656 -0.69905,-1.93071 -0.51342,-2.43169 0.17906,-0.48314 0.40073,-0.50505 0.87374,-0.91774 1.48188,-1.29255 1.39998,-4.65721 1.28177,-7.90883"
         style="fill:none;stroke:#000000;stroke-width:2;stroke-linecap:butt;stroke-linejoin:miter;stroke-opacity:1"
         inkscape:connector-curvature="0" />
      <path
         id="path5345"
         d="m 239.17583,239.07942 0,36.65572 -112.59065,0 0,-36.65572 12.38192,-7.42915 87.82681,0 z"
         style="fill:#d38d5f;fill-opacity:1;stroke:#000000;stroke-width:2;stroke-linecap:round;stroke-miterlimit:4;stroke-opacity:1;stroke-dashoffset:0"
         inkscape:connector-curvature="0" />
      <path
         id="rect5067"
         d="m 126.58518,239.07942 112.59065,0"
         style="fill:#d38d5f;fill-opacity:1;stroke:#000000;stroke-width:2;stroke-linecap:round;stroke-miterlimit:4;stroke-opacity:1;stroke-dashoffset:0"
         inkscape:connector-curvature="0" />
      <path
         inkscape:connector-curvature="0"
         id="path5483"
         d="m 137.64279,238.6565 -0.30956,-2.63116 11.9176,-0.15477 -0.30954,2.63116 z"
         style="fill:#deaa87;stroke:#000000;stroke-width:2;stroke-linecap:butt;stroke-linejoin:miter;stroke-opacity:1;display:inline" />
      <path
         sodipodi:nodetypes="ccccc"
         inkscape:connector-curvature="0"
         id="path5485"
         d="m 154.81331,237.20882 -0.14539,-1.64781 6.18157,0.0104 -0.0735,1.63842 z"
         style="fill:#deaa87;stroke:#000000;stroke-width:2;stroke-linecap:butt;stroke-linejoin:miter;stroke-opacity:1;display:inline" />
      <path
         inkscape:connector-curvature="0"
         id="path5487"
         d="m 201.40966,234.64443 -0.15477,-1.08342 6.81005,-0.15477 -0.15477,1.85729 z"
         style="fill:#deaa87;stroke:#000000;stroke-width:2;stroke-linecap:butt;stroke-linejoin:miter;stroke-opacity:1;display:inline" />
      <path
         inkscape:connector-curvature="0"
         id="path5489"
         d="m 213.63681,235.41831 0,-1.23819 8.66735,-0.30955 0.30954,2.3216 z"
         style="fill:#deaa87;stroke:#000000;stroke-width:2;stroke-linecap:butt;stroke-linejoin:miter;stroke-opacity:1;display:inline" />
      <path
         sodipodi:nodetypes="ccccc"
         inkscape:connector-curvature="0"
         id="path5491"
         d="m 176.66645,236.01475 -0.10945,-1.31329 6.73066,1e-5 -0.10945,1.14913 z"
         style="fill:#deaa87;stroke:#000000;stroke-width:2;stroke-linecap:butt;stroke-linejoin:miter;stroke-opacity:1;display:inline" />
      <path
         inkscape:connector-curvature="0"
         id="path5487-2"
         d="m 193.66293,235.44876 -0.15478,-1.08342 6.81005,-0.15477 -0.15476,1.85729 z"
         style="fill:#deaa87;stroke:#000000;stroke-width:2;stroke-linecap:butt;stroke-linejoin:miter;stroke-opacity:1;display:inline" />
      <path
         sodipodi:nodetypes="ccccc"
         inkscape:connector-curvature="0"
         id="path5485-3"
         d="m 162.48531,236.34148 0.0189,-1.6478 6.26833,0 0.004,1.59306 z"
         style="fill:#deaa87;stroke:#000000;stroke-width:2;stroke-linecap:butt;stroke-linejoin:miter;stroke-opacity:1;display:inline" />
    </g>
  </g>
  <g
     inkscape:groupmode="layer"
     id="layer4"
     inkscape:label="吹き出し"
     sodipodi:insensitive="true">
    <g
       transform="translate(65.276494,6.373399)"
       id="g9788">
      <path
         sodipodi:nodetypes="sssscsssssss"
         inkscape:connector-curvature="0"
         id="rect7294"
         d="m 91.775097,62.96684 0,18.42267 c 0,12.905093 10.389293,23.29439 23.294383,23.29439 l 99.43315,0 c 17.58619,0 10.85907,17.98827 6.3305,23.22027 21.30925,-9.48101 18.7762,-23.22027 28.06039,-23.22027 l 18.89626,0 c 12.90509,0 23.2944,-10.389297 23.2944,-23.29439 l 0,-18.42267 c 0,-12.90509 -10.3893,-23.294381 -23.2944,-23.294381 l -152.7203,0 c -12.90509,0 -23.294383,10.389291 -23.294383,23.294381 z"
         style="fill:#fefefe;fill-opacity:1;stroke:#000000;stroke-width:2;stroke-linecap:round;stroke-miterlimit:4;stroke-opacity:1;stroke-dashoffset:0;display:inline" />
      <text
         sodipodi:linespacing="125%"
         id="text11601"
         y="82.327736"
         x="106.94608"
         style="font-size:32px;font-style:normal;font-weight:normal;line-height:125%;letter-spacing:0px;word-spacing:0px;writing-mode:lr-tb;fill:#000000;fill-opacity:1;stroke:none;display:inline;font-family:Sans"
         xml:space="preserve"><tspan
           y="82.327736"
           x="106.94608"
           id="tspan11603"
           sodipodi:role="line">負けました。</tspan></text>
    </g>
  </g>
  <g
     inkscape:groupmode="layer"
     id="layer2"
     inkscape:label="枠面"
     sodipodi:insensitive="true">
    <path
       style="fill:#ffffff;stroke:none;display:inline"
       d="m 0,0 0,320 370,0 0,-320 -10,10 0,300 -350,0 0,-300 350,0 10,-10 z"
       id="path21072"
       inkscape:connector-curvature="0"
       sodipodi:nodetypes="ccccccccccc" />
  </g>
</svg>
