<?xml version="1.0" encoding="UTF-8" standalone="no"?>
<!-- Created with Inkscape (http://www.inkscape.org/) -->

<svg
   xmlns:dc="http://purl.org/dc/elements/1.1/"
   xmlns:cc="http://creativecommons.org/ns#"
   xmlns:rdf="http://www.w3.org/1999/02/22-rdf-syntax-ns#"
   xmlns:svg="http://www.w3.org/2000/svg"
   xmlns="http://www.w3.org/2000/svg"
   xmlns:sodipodi="http://sodipodi.sourceforge.net/DTD/sodipodi-0.dtd"
   xmlns:inkscape="http://www.inkscape.org/namespaces/inkscape"
   width="370"
   height="320"
   id="svg3172"
   version="1.1"
   inkscape:version="0.48.4 r9939"
   sodipodi:docname="[01.同意].svg">
  <defs
     id="defs3174" />
  <sodipodi:namedview
     id="base"
     pagecolor="#ffffff"
     bordercolor="#666666"
     borderopacity="1.0"
     inkscape:pageopacity="0.0"
     inkscape:pageshadow="2"
     inkscape:zoom="0.80430638"
     inkscape:cx="243.02607"
     inkscape:cy="132.95178"
     inkscape:document-units="px"
     inkscape:current-layer="layer2"
     showgrid="false"
     inkscape:window-width="1098"
     inkscape:window-height="698"
     inkscape:window-x="-5"
     inkscape:window-y="-5"
     inkscape:window-maximized="0" />
  <metadata
     id="metadata3177">
    <rdf:RDF>
      <cc:Work
         rdf:about="">
        <dc:format>image/svg+xml</dc:format>
        <dc:type
           rdf:resource="http://purl.org/dc/dcmitype/StillImage" />
        <dc:title></dc:title>
      </cc:Work>
    </rdf:RDF>
  </metadata>
  <g
     inkscape:label="補助線"
     inkscape:groupmode="layer"
     id="layer1"
     transform="translate(0,-732.36218)"
     sodipodi:insensitive="true"
     style="display:none">
    <path
       style="fill:none;stroke:#0000ff;stroke-width:1px;stroke-linecap:butt;stroke-linejoin:miter;stroke-opacity:1;display:inline"
       d="M 10,1042.3622 360,742.36211"
       id="path3025"
       inkscape:connector-curvature="0"
       sodipodi:nodetypes="cc" />
    <path
       style="fill:none;stroke:#0000ff;stroke-width:1px;stroke-linecap:butt;stroke-linejoin:miter;stroke-opacity:1;display:inline"
       d="M 10,742.36211 360,1042.3622"
       id="path3027"
       inkscape:connector-curvature="0"
       sodipodi:nodetypes="cc" />
    <path
       style="fill:none;stroke:#ff0000;stroke-width:1px;stroke-linecap:butt;stroke-linejoin:miter;stroke-opacity:1;display:inline"
       d="m 10,732.36211 0,320.00009"
       id="path3006"
       inkscape:connector-curvature="0"
       sodipodi:nodetypes="cc" />
    <path
       style="fill:none;stroke:#ff0000;stroke-width:1px;stroke-linecap:butt;stroke-linejoin:miter;stroke-opacity:1;display:inline"
       d="m 360,732.36211 0,320.00009"
       id="path3010"
       inkscape:connector-curvature="0"
       sodipodi:nodetypes="cc" />
    <path
       style="fill:none;stroke:#ff0000;stroke-width:1px;stroke-linecap:butt;stroke-linejoin:miter;stroke-opacity:1;display:inline"
       d="m 0,742.36208 370,3e-5"
       id="path3016"
       inkscape:connector-curvature="0" />
    <path
       style="fill:none;stroke:#ff0000;stroke-width:1px;stroke-linecap:butt;stroke-linejoin:miter;stroke-opacity:1;display:inline"
       d="m 0,1042.3622 370,0"
       id="path3018"
       inkscape:connector-curvature="0"
       sodipodi:nodetypes="cc" />
  </g>
  <g
     inkscape:groupmode="layer"
     id="layer3"
     inkscape:label="豚"
     sodipodi:insensitive="true">
    <g
       id="g5508"
       transform="matrix(1.4042087,0,0,1.4042087,1126.1091,-507.17428)"
       style="stroke-width:1.4242897;display:inline">
      <path
         sodipodi:nodetypes="csccc"
         inkscape:connector-curvature="0"
         id="path5109-2-7-9-5-9-1-1"
         d="m -783.47605,540.27936 c -1.2989,0.0655 -2.41662,2.15355 -3.70838,1.51403 -3.96084,-1.96092 -2.00677,-27.43531 6.56865,-38.74828 l 46.48378,5.37564 z"
         style="fill:#ffd5d5;stroke:none;display:inline" />
      <path
         sodipodi:nodetypes="scccs"
         inkscape:connector-curvature="0"
         id="path5109-2-7-9-5-9-1-5"
         d="m -787.22693,541.76923 c 1.18256,0.82411 2.5753,-1.50626 3.8742,-1.57176 l 0.10399,-7.78184 c -1.34314,-0.12333 -5.38905,0.6745 -6.60858,1.22099 -0.01,1.19272 0.50352,6.65042 2.63039,8.13261 z"
         style="fill:#ffaaaa;stroke:none;display:inline" />
      <path
         sodipodi:nodetypes="cccc"
         inkscape:connector-curvature="0"
         id="path3754-1"
         d="m -778.84548,513.58514 c -3.42421,9.24811 -6.92833,22.97167 -3.05516,34.37632 l 88.21053,0.0725 c 7.32767,-11.57752 -1.37965,-33.33532 -8.02353,-41.37632"
         style="fill:#ffd5d5;stroke:#000000;stroke-width:1.4242897;stroke-linecap:butt;stroke-linejoin:miter;stroke-opacity:1;display:inline" />
      <path
         sodipodi:nodetypes="csc"
         inkscape:connector-curvature="0"
         id="path5109-2-7-9-5-9-1"
         d="m -783.37073,540.24485 c -1.2989,0.0655 -2.79033,2.5205 -3.84778,1.541 -5.08584,-4.71092 -3.52243,-26.33533 6.55559,-38.88574"
         style="fill:none;stroke:#000000;stroke-width:1.4242897;stroke-linecap:butt;stroke-linejoin:miter;stroke-opacity:1;display:inline" />
      <path
         id="path5111-7-6-0-2-9-3"
         d="m -783.31733,532.52378 c -1.34314,-0.12333 -5.2328,0.4245 -6.63983,1.18974"
         style="fill:none;stroke:#000000;stroke-width:1.4242897;stroke-linecap:butt;stroke-linejoin:miter;stroke-opacity:1;display:inline"
         inkscape:connector-curvature="0"
         sodipodi:nodetypes="cc" />
    </g>
    <g
       id="g5642"
       transform="matrix(-1.4042087,0,0,1.4042087,-759.90707,-507.17428)"
       style="stroke-width:1.4242897;display:inline">
      <path
         sodipodi:nodetypes="csssccc"
         inkscape:connector-curvature="0"
         id="path5089-8-7-0-8-2-8-7-0-2"
         d="m -707.54875,522.07569 c 6.92362,-6.74655 14.06964,-11.88396 14.44902,-13.9786 0.19323,-1.06685 -2.4102,-2.859 -1.91721,-4.44086 0.35515,-1.13959 1.43185,-3.09317 0.79067,-4.28415 -1.31474,-2.44209 -16.42791,-3.25089 -21.0642,-2.23291 l -45.83083,8.26333 z"
         style="fill:#ffd5d5;stroke:none;display:inline" />
      <path
         sodipodi:nodetypes="sssccs"
         inkscape:connector-curvature="0"
         id="path5089-8-7-0-8-2-8-7-0-4"
         d="m -693.06427,508.00536 c 0.19323,-1.06685 -2.4102,-2.859 -1.91721,-4.44086 0.35515,-1.13959 1.43185,-3.09317 0.79067,-4.28415 -0.45029,-0.8364 -2.51916,-1.48121 -5.1864,-1.89438 -4.16899,-0.96883 -4.50606,16.54052 0.39314,16.82352 3.32006,-2.85592 5.70496,-5.01793 5.9198,-6.20413 z"
         style="fill:#ffaaaa;stroke:none;display:inline" />
      <path
         sodipodi:nodetypes="cccc"
         inkscape:connector-curvature="0"
         id="path3327-4-35-4"
         d="m -779.99765,502.11528 c -10.00462,13.86389 -16.2761,38.82598 -9.62218,47.56655 l 71.80734,-0.95621 c 7.10391,-3.43534 12.56253,-26.68828 7.94457,-36.39265"
         style="fill:#ffd5d5;stroke:#000000;stroke-width:1.4242897;stroke-linecap:butt;stroke-linejoin:miter;stroke-opacity:1;display:inline" />
      <path
         sodipodi:nodetypes="cc"
         inkscape:connector-curvature="0"
         id="path5091-2-40-9-2-4-1"
         d="m -733.3901,462.65061 c 9.25922,-0.55822 17.02098,8.22252 17.25275,19.57046"
         style="fill:#ffd5d5;stroke:#000000;stroke-width:1.4242897;stroke-linecap:butt;stroke-linejoin:miter;stroke-opacity:1;display:inline" />
      <path
         sodipodi:nodetypes="csccc"
         inkscape:connector-curvature="0"
         id="path4041-1-6-7"
         d="m -778.08563,507.9372 c -4.32891,-7.15877 -0.57794,-21.75364 5.83084,-32.80237 8.93516,-15.40422 31.35251,-23.1323 48.04861,-5.09952 l 4.82134,6.97104 c 6.37326,7.7643 6.82004,17.89592 1.75377,23.61733"
         style="fill:#ffd5d5;stroke:none;display:inline" />
      <path
         sodipodi:nodetypes="csc"
         inkscape:connector-curvature="0"
         id="path4041-1-6"
         d="m -724.15759,469.98399 c -16.6961,-18.03278 -39.11345,-10.3047 -48.04861,5.09952 -6.40878,11.04873 -10.15975,25.6436 -5.83084,32.80237"
         style="fill:none;stroke:#000000;stroke-width:1.4242897;stroke-linecap:butt;stroke-linejoin:miter;stroke-opacity:1;display:inline" />
      <path
         inkscape:connector-curvature="0"
         id="path5093-4-9-4-4-0-8"
         d="m -719.33625,476.95503 c 6.37326,7.7643 6.82004,17.89592 1.75377,23.61733"
         style="fill:none;stroke:#000000;stroke-width:1.4242897;stroke-linecap:butt;stroke-linejoin:miter;stroke-opacity:1;display:inline" />
      <path
         sodipodi:nodetypes="cc"
         inkscape:connector-curvature="0"
         id="path5095-5-4-8-5-7-9"
         d="m -731.13169,475.11941 c -0.31893,0.82514 -0.0643,3.3861 -0.4139,4.38489"
         style="fill:none;stroke:#000000;stroke-width:1.4242897;stroke-linecap:butt;stroke-linejoin:miter;stroke-opacity:1;display:inline" />
      <path
         sodipodi:nodetypes="cc"
         inkscape:connector-curvature="0"
         id="path5097-5-8-8-5-63-8"
         d="m -743.94442,478.62133 c 0.83704,0.98218 3.64051,3.10699 4.46755,4.35928"
         style="fill:none;stroke:#000000;stroke-width:1.4242897;stroke-linecap:butt;stroke-linejoin:miter;stroke-opacity:1;display:inline" />
      <path
         sodipodi:nodetypes="csc"
         inkscape:connector-curvature="0"
         id="path5099-1-8-2-7-6-4"
         d="m -766.12773,468.97273 c -17.29778,9.26077 -11.88659,28.5355 -5.43814,28.86471 4.18454,0.21363 6.34869,-10.92664 9.86277,-14.94949"
         style="fill:#ffd5d5;stroke:#000000;stroke-width:1.4242897;stroke-linecap:butt;stroke-linejoin:miter;stroke-opacity:1;display:inline" />
      <path
         sodipodi:nodetypes="ssssss"
         inkscape:connector-curvature="0"
         id="path5101-7-2-4-1-1-1"
         d="m -733.14735,481.16617 c -3.92138,0.66268 -8.35551,5.81652 -10.36832,10.52984 -2.41906,5.66462 0.01,10.44431 4.40802,8.32959 4.70618,-2.26287 10.48575,-4.03684 13.93547,-4.12502 3.92622,-0.10037 4.112,-6.19304 2.12932,-9.42575 -2.99915,-4.89 -6.41905,-5.93146 -10.10449,-5.30866 z"
         style="fill:#ffaaaa;stroke:#000000;stroke-width:1.4242897;stroke-linecap:butt;stroke-linejoin:miter;stroke-opacity:1;display:inline" />
      <path
         inkscape:connector-curvature="0"
         id="path5105-1-4-55-1-28-5-4"
         d="m -737.41877,494.92078 c 2.00628,0.35356 3.79406,-8.16826 2.80592,-8.35916 -1.1902,-0.22993 -4.74467,8.01749 -2.80592,8.35916 z"
         style="fill:#000000;stroke:#000000;stroke-width:1.4242897;display:inline"
         sodipodi:nodetypes="sss" />
      <path
         inkscape:connector-curvature="0"
         id="path5107-1-5-1-5-4-3"
         d="m -729.55193,485.71929 c -0.78221,0.35169 0.0973,7.74525 1.386,7.22272 1.84212,-0.7469 -0.14881,-7.77897 -1.386,-7.22272 z"
         style="fill:#000000;stroke:#000000;stroke-width:1.4242897;display:inline"
         sodipodi:nodetypes="sss" />
      <path
         sodipodi:nodetypes="cc"
         inkscape:connector-curvature="0"
         id="path5111-7-1-7-7-7-7-3-8"
         d="m -699.36506,497.45024 c -4.21395,-1.00112 -4.55102,16.56347 0.31377,16.82494"
         style="fill:none;stroke:#000000;stroke-width:1.4242897;stroke-linecap:butt;stroke-linejoin:miter;stroke-opacity:1;display:inline" />
      <path
         inkscape:connector-curvature="0"
         id="path5089-8-7-0-8-2-8-7-0"
         d="m -707.5461,522.07118 c 6.92362,-6.74655 14.06964,-11.88396 14.44902,-13.9786 0.19323,-1.06685 -2.4102,-2.859 -1.91721,-4.44086 0.35515,-1.13959 1.43185,-3.09317 0.79067,-4.28415 -1.31474,-2.44209 -16.42791,-3.25089 -21.0642,-2.23291"
         style="fill:none;stroke:#000000;stroke-width:1.4242897;stroke-linecap:butt;stroke-linejoin:miter;stroke-opacity:1;display:inline" />
    </g>
    <path
       style="fill:#ffd5d5;stroke:#000000;stroke-width:2;stroke-linecap:butt;stroke-linejoin:miter;stroke-opacity:1;display:inline"
       d="m 246.96116,226.93895 c 7.25622,7.42566 16.38612,23.77283 19.0206,36.31002 l -121.21927,-2.0495 -4.70318,-17.35657"
       id="path3754-1-6"
       inkscape:connector-curvature="0"
       sodipodi:nodetypes="cccc" />
    <rect
       style="fill:#6c5353;fill-opacity:1;stroke:#000000;stroke-width:2;display:inline"
       id="rect5936"
       width="431.79419"
       height="60.380974"
       x="-29.285433"
       y="261.15295" />
    <g
       id="g5918"
       transform="matrix(-1.4042087,0,0,1.4042087,-778.16179,-602.66046)"
       style="stroke-width:1.4242897;display:inline">
      <path
         sodipodi:nodetypes="csssc"
         inkscape:connector-curvature="0"
         id="path4014-8-3"
         d="m -654.55545,597.25818 c 7.80677,2.20066 16.5463,7.80709 15.67336,10.44038 -0.53048,1.60023 -2.81649,2.18111 -3.44079,2.88616 -1.20165,1.35708 0.0116,3.8763 -1.34171,4.20003 -2.9121,0.69664 -14.62729,0.59535 -25.2638,-0.64045"
         style="fill:#ffd5d5;stroke:none;display:inline" />
      <path
         sodipodi:nodetypes="cssscc"
         inkscape:connector-curvature="0"
         id="path5677-6-8-2"
         d="m -642.63347,602.82751 c 2.68318,1.8695 4.3481,3.73175 3.94301,4.95374 -0.53048,1.60023 -2.81649,2.18111 -3.44079,2.88616 -1.20165,1.35708 0.0116,3.87629 -1.34171,4.20003 -1.01269,0.24226 -3.08997,0.38802 -5.8202,0.40229 -4.11276,-1.72 2.52099,-15.69438 6.65969,-12.44222 z"
         style="fill:#ffaaaa;stroke:none;display:inline" />
      <path
         sodipodi:nodetypes="csssc"
         inkscape:connector-curvature="0"
         id="path4014-8"
         d="m -654.45064,597.26012 c 7.80677,2.20066 16.5463,7.80709 15.67336,10.44038 -0.53048,1.60023 -2.81649,2.18111 -3.44079,2.88616 -1.20165,1.35708 0.0116,3.8763 -1.34171,4.20003 -2.9121,0.69664 -14.62729,0.59535 -25.2638,-0.64045"
         style="fill:none;stroke:#000000;stroke-width:1.4242897;stroke-linecap:butt;stroke-linejoin:miter;stroke-opacity:1;display:inline" />
      <path
         sodipodi:nodetypes="cc"
         inkscape:connector-curvature="0"
         id="path5677-6-8"
         d="m -649.38392,615.16813 c -4.10882,-1.69915 2.52493,-15.67353 6.66158,-12.42583"
         style="fill:none;stroke:#000000;stroke-width:1.4242897;stroke-linecap:butt;stroke-linejoin:miter;stroke-opacity:1;display:inline" />
    </g>
    <g
       id="g5924"
       transform="matrix(-1.4042087,0,0,1.4042087,-778.16179,-602.66046)"
       style="stroke-width:1.4242897;display:inline">
      <path
         sodipodi:nodetypes="cc"
         inkscape:connector-curvature="0"
         id="path5091-2-40-9-9-9-1"
         d="m -670.4614,563.04822 c 7.01894,-0.0672 16.24352,8.92891 14.46308,22.31293"
         style="fill:#ffd5d5;stroke:#000000;stroke-width:1.4242897;stroke-linecap:butt;stroke-linejoin:miter;stroke-opacity:1;display:inline" />
      <path
         sodipodi:nodetypes="cccsc"
         inkscape:connector-curvature="0"
         id="path5093-4-9-4-2-3-4-3"
         d="m -660.88068,607.86534 c 9.72145,-7.59676 6.89955,-20.55345 2.53153,-26.78338 l -5.05395,-10.45924 c -10.13913,-16.34912 -37.57995,-17.70147 -50.92631,-3.17504 -6.31648,6.87498 -14.58244,15.57702 -16.46802,25.75884"
         style="fill:#ffd5d5;stroke:none;display:inline" />
      <path
         id="path5793"
         d="m -663.34879,570.68604 c -10.13913,-16.34912 -37.57995,-17.70147 -50.92631,-3.17504 -6.31648,6.87498 -14.58244,15.57702 -16.46802,25.75884"
         style="fill:none;stroke:#000000;stroke-width:1.4242897;stroke-linecap:butt;stroke-linejoin:miter;stroke-opacity:1;display:inline"
         inkscape:connector-curvature="0" />
      <path
         sodipodi:nodetypes="cc"
         inkscape:connector-curvature="0"
         id="path5093-4-9-4-2-3-4"
         d="m -658.29484,581.14528 c 4.36802,6.22993 7.18992,19.18662 -2.53153,26.78338"
         style="fill:none;stroke:#000000;stroke-width:1.4242897;stroke-linecap:butt;stroke-linejoin:miter;stroke-opacity:1;display:inline" />
      <path
         sodipodi:nodetypes="cc"
         inkscape:connector-curvature="0"
         id="path5095-5-4-8-7-4-2"
         d="m -664.07089,584.9893 c -1.4741,0.99059 -3.7165,-1.72475 -4.80814,-1.86714"
         style="fill:none;stroke:#000000;stroke-width:1.4242897;stroke-linecap:butt;stroke-linejoin:miter;stroke-opacity:1;display:inline" />
      <path
         sodipodi:nodetypes="cc"
         inkscape:connector-curvature="0"
         id="path5097-5-8-8-9-4-3"
         d="m -681.44729,586.88056 c 3.16182,-0.54341 3.177,-2.96132 6.48613,-3.91219"
         style="fill:none;stroke:#000000;stroke-width:1.4242897;stroke-linecap:butt;stroke-linejoin:miter;stroke-opacity:1;display:inline" />
      <path
         sodipodi:nodetypes="csc"
         inkscape:connector-curvature="0"
         id="path5099-1-8-2-54-6-2"
         d="m -702.15486,562.7838 c -19.51024,0.93896 -25.34934,23.28212 -15.89487,30.81009 3.70865,2.95295 10.26636,-8.52749 15.53002,-12.10954"
         style="fill:#ffd5d5;stroke:#000000;stroke-width:1.4242897;stroke-linecap:butt;stroke-linejoin:miter;stroke-opacity:1;display:inline" />
      <path
         sodipodi:nodetypes="ssssss"
         inkscape:connector-curvature="0"
         id="path5101-7-2-4-3-0-2"
         d="m -682.36797,597.44096 c -2.39508,4.64098 -0.98218,9.42284 4.6006,7.80543 4.2197,-1.2225 9.11363,-1.95694 12.16118,-1.3202 4.11161,0.85906 6.10209,-3.23993 5.20463,-7.9786 -0.86163,-4.54947 -4.0944,-8.38968 -8.10274,-8.34092 -4.3103,0.0524 -11.44565,5.14885 -13.86367,9.83429 z"
         style="fill:#ffaaaa;stroke:#000000;stroke-width:1.4242897;stroke-linecap:butt;stroke-linejoin:miter;stroke-opacity:1;display:inline" />
      <path
         sodipodi:nodetypes="sss"
         inkscape:connector-curvature="0"
         id="path5105-1-4-55-12-6-1"
         d="m -676.44402,601.48962 c 1.88012,1.509 5.76335,-8.50363 4.40691,-8.73321 -1.77502,-0.30043 -6.58619,6.98409 -4.40691,8.73321 z"
         style="fill:#000000;stroke:#000000;stroke-width:1.4242897;display:inline" />
      <path
         sodipodi:nodetypes="sss"
         inkscape:connector-curvature="0"
         id="path5107-1-5-1-3-6-6"
         d="m -666.89999,592.59489 c -1.63755,-0.0812 -2.4221,7.83338 -0.52138,7.84515 2.86058,0.0177 2.59405,-7.74236 0.52138,-7.84515 z"
         style="fill:#000000;stroke:#000000;stroke-width:1.4242897;display:inline" />
    </g>
    <g
       id="g5618"
       transform="matrix(-1.4042087,0,0,1.4042087,-759.90707,-507.17428)"
       style="stroke-width:1.4242897;display:inline">
      <path
         sodipodi:nodetypes="csssc"
         inkscape:connector-curvature="0"
         id="path5089-8-7-0-8-2-8-6-2"
         d="m -738.74242,537.8209 c 11.57526,-4.11367 20.54656,-11.16874 21.10405,-13.22316 0.28394,-1.04636 -0.56383,-3.07411 -0.50439,-4.72993 0.0347,-0.96603 2.10748,-2.98229 1.57071,-4.22384 -1.10064,-2.54576 -15.08907,-4.03193 -19.93449,-4.80447"
         style="fill:#ffd5d5;stroke:none;display:inline" />
      <path
         sodipodi:nodetypes="sssccs"
         inkscape:connector-curvature="0"
         id="path5089-8-7-0-8-2-8-6-3"
         d="m -717.6338,524.59066 c 0.28394,-1.04636 -0.56383,-3.07411 -0.50439,-4.72993 0.0347,-0.96603 2.10748,-2.98229 1.57071,-4.22384 -0.43843,-1.01409 -2.92187,-1.86004 -6.06296,-2.55947 -4.69237,-0.96054 -5.73285,16.90535 0.10973,16.29766 2.86444,-2.10578 4.64804,-3.90415 4.88691,-4.78442 z"
         style="fill:#ffaaaa;stroke:none;display:inline" />
      <path
         sodipodi:nodetypes="cc"
         inkscape:connector-curvature="0"
         id="path5111-7-1-7-7-7-7-1"
         d="m -722.68569,513.08659 c -4.68718,-0.9608 -5.72766,16.90509 0.12175,16.3115"
         style="fill:none;stroke:#000000;stroke-width:1.4242897;stroke-linecap:butt;stroke-linejoin:miter;stroke-opacity:1;display:inline" />
      <path
         sodipodi:nodetypes="csssc"
         inkscape:connector-curvature="0"
         id="path5089-8-7-0-8-2-8-6"
         d="m -738.78791,537.82273 c 11.57526,-4.11367 20.54656,-11.16874 21.10405,-13.22316 0.28394,-1.04636 -0.56383,-3.07411 -0.50439,-4.72993 0.0347,-0.96603 2.10748,-2.98229 1.57071,-4.22384 -1.10064,-2.54576 -15.08907,-4.03193 -19.93449,-4.80447"
         style="fill:none;stroke:#000000;stroke-width:1.4242897;stroke-linecap:butt;stroke-linejoin:miter;stroke-opacity:1;display:inline" />
    </g>
    <g
       id="g5420"
       transform="matrix(1.4042087,0,0,1.4042087,1126.1091,-507.17428)"
       style="stroke-width:1.4242897;display:inline">
      <path
         sodipodi:nodetypes="csssccc"
         id="path4014-5"
         d="m -709.03895,480.59717 c 11.54041,-2.51552 26.40716,0.0317 27.4153,2.06948 0.54151,1.09456 -0.81809,2.05326 -0.34289,3.37002 0.5571,1.54372 2.57069,1.36504 2.27477,3.26517 -0.4765,3.05965 -15.78148,11.73668 -22.88085,22.88085 l -75.46303,-4.41557 z"
         style="fill:#ffd5d5;stroke:none;display:inline"
         inkscape:connector-curvature="0" />
      <path
         sodipodi:nodetypes="cssscc"
         id="path4016-7"
         d="m -685.66936,495.3994 c 0.9707,-0.80486 5.38505,-3.72017 5.79905,-5.93607 0.35317,-1.89033 -1.71767,-1.72145 -2.27477,-3.26517 -0.4752,-1.31676 0.8844,-2.27546 0.34289,-3.37002 -1.00814,-2.03778 -5.02091,-2.14234 -7.46811,-2.37466 2.33398,2.21072 4.38041,9.80733 3.60094,14.94592 z"
         style="fill:#ffaaaa;stroke:none;display:inline"
         inkscape:connector-curvature="0" />
      <path
         id="path5091-2-40-9-9-9"
         d="m -736.63524,451.9626 c 7.9619,-1.96328 20.55671,3.91698 23.20222,18.46783"
         style="fill:#ffd5d5;stroke:#000000;stroke-width:1.4242897;stroke-linecap:butt;stroke-linejoin:miter;stroke-opacity:1;display:inline"
         inkscape:connector-curvature="0" />
      <path
         sodipodi:nodetypes="csccc"
         id="path6000-1"
         d="m -778.042,508.70036 c -4.98254,-3.46221 -6.16671,-17.57852 0.63697,-35.2588 8.7939,-22.85206 35.62919,-28.02674 51.23471,-16.20917 l 9.30164,10.01997 c 4.80159,3.25633 10.68016,13.42819 6.60392,24.74721"
         style="fill:#ffd5d5;stroke:none;display:inline"
         inkscape:connector-curvature="0" />
      <path
         id="path6000"
         d="m -726.14711,457.21423 c -16.31263,-12.17112 -42.45941,-6.62613 -51.25331,16.22594 -6.80369,17.68027 -5.60091,31.77982 -0.61837,35.24203"
         style="fill:none;stroke:#000000;stroke-width:1.4242897;stroke-linecap:butt;stroke-linejoin:miter;stroke-opacity:1;display:inline"
         inkscape:connector-curvature="0"
         sodipodi:nodetypes="csc" />
      <path
         id="path5093-4-9-4-2-3"
         d="m -716.84547,467.2342 c 4.80159,3.25633 10.68016,13.42819 6.60392,24.74721"
         style="fill:none;stroke:#000000;stroke-width:1.4242897;stroke-linecap:butt;stroke-linejoin:miter;stroke-opacity:1;display:inline"
         inkscape:connector-curvature="0" />
      <path
         id="path5095-5-4-8-7-4"
         d="m -728.93901,468.76969 c -0.0791,1.64275 0.13545,4.98578 0.4147,6.76996"
         style="fill:none;stroke:#000000;stroke-width:1.4242897;stroke-linecap:butt;stroke-linejoin:miter;stroke-opacity:1;display:inline"
         inkscape:connector-curvature="0" />
      <path
         id="path5097-5-8-8-9-4"
         d="m -742.72087,476.49891 c 2.22103,1.10887 4.2398,2.33758 6.24473,3.78279"
         style="fill:none;stroke:#000000;stroke-width:1.4242897;stroke-linecap:butt;stroke-linejoin:miter;stroke-opacity:1;display:inline"
         inkscape:connector-curvature="0"
         sodipodi:nodetypes="cc" />
      <path
         id="path5099-1-8-2-54-6"
         d="m -770.8342,464.12919 c -16.22197,9.58019 -12.21182,34.61672 -0.82532,38.66702 4.46651,1.58879 6.58775,-14.30546 10.40315,-19.40251"
         style="fill:#ffd5d5;stroke:#000000;stroke-width:1.4242897;stroke-linecap:butt;stroke-linejoin:miter;stroke-opacity:1;display:inline"
         inkscape:connector-curvature="0"
         sodipodi:nodetypes="csc" />
      <path
         id="path5101-7-2-4-3-0"
         d="m -739.01374,491.37957 c -2.0237,9.01299 3.95224,12.12048 8.42312,8.04297 3.70904,-3.3827 7.47104,-6.67613 11.09351,-7.4997 4.22359,-0.96024 5.3527,-6.00602 2.48636,-10.07021 -3.1446,-4.45873 -8.9602,-6.13441 -12.65215,-4.27525 -3.63125,1.82859 -7.92433,7.44888 -9.35084,13.80219 z"
         style="fill:#ffaaaa;stroke:#000000;stroke-width:1.4242897;stroke-linecap:butt;stroke-linejoin:miter;stroke-opacity:1;display:inline"
         inkscape:connector-curvature="0"
         sodipodi:nodetypes="ssssss" />
      <path
         id="path5105-1-4-55-12-6"
         d="m -730.94197,493.90079 c 1.13077,0.42498 1.35602,-9.67528 0.49024,-9.26521 -1.40684,0.66634 -2.60108,8.47187 -0.49024,9.26521 z"
         style="fill:#000000;stroke:#000000;stroke-width:1.4242897;display:inline"
         inkscape:connector-curvature="0" />
      <path
         id="path5107-1-5-1-3-6"
         d="m -725.73465,481.81921 c -0.80083,-0.0951 3.48832,7.68223 3.90579,6.74221 1.34147,-3.02057 -2.42838,-6.5667 -3.90579,-6.74221 z"
         style="fill:#000000;stroke:#000000;stroke-width:1.4242897;display:inline"
         inkscape:connector-curvature="0" />
      <path
         id="path4014"
         d="m -709.05751,480.58975 c 11.54041,-2.51552 26.40716,0.0317 27.4153,2.06948 0.54151,1.09456 -0.81809,2.05326 -0.34289,3.37002 0.5571,1.54372 2.57069,1.36504 2.27477,3.26517 -0.4765,3.05965 -15.78148,11.73668 -22.88085,22.88085"
         style="fill:none;stroke:#000000;stroke-width:1.4242897;stroke-linecap:butt;stroke-linejoin:miter;stroke-opacity:1"
         inkscape:connector-curvature="0" />
      <path
         id="path4016"
         d="m -689.11087,480.28673 c 2.33453,2.20856 4.38096,9.80517 3.60516,14.94819"
         style="fill:none;stroke:#000000;stroke-width:1.4242897;stroke-linecap:butt;stroke-linejoin:miter;stroke-opacity:1"
         inkscape:connector-curvature="0" />
    </g>
    <g
       id="g5910"
       transform="matrix(-1.4042087,0,0,1.4042087,-778.16179,-602.66046)"
       style="stroke-width:1.4242897;display:inline">
      <path
         sodipodi:nodetypes="csssc"
         inkscape:connector-curvature="0"
         id="path4014-8-1-4"
         d="m -689.88902,608.10944 c 4.16881,5.67985 -3.31555,11.01982 -7.66929,10.35541 -1.20722,-0.18423 -4.05128,-0.95723 -4.99216,-0.91723 -1.00728,0.0428 -4.93256,1.31187 -6.30006,1.56893 -3.037,0.5709 -13.20401,-1.16548 -11.50939,-10.4565"
         style="fill:#ffd5d5;stroke:none;display:inline" />
      <path
         sodipodi:nodetypes="ssscscs"
         inkscape:connector-curvature="0"
         id="path4014-8-1-7"
         d="m -697.5422,618.50923 c -1.20722,-0.18423 -4.05128,-0.95723 -4.99216,-0.91723 -1.00728,0.0428 -4.93256,1.31187 -6.30006,1.56893 -1.63371,0.30711 -5.33065,-0.0534 -8.17559,-1.85456 -3.38782,-4.7708 9.3583,-6.9411 14.45891,-7.01857 5.22687,-0.0794 15.05085,1.22105 11.08345,6.25657 -1.82325,1.44999 -4.2299,2.24637 -6.07455,1.96486 z"
         style="fill:#ffaaaa;stroke:none;display:inline" />
      <path
         sodipodi:nodetypes="ssscscs"
         inkscape:connector-curvature="0"
         id="path4014-8-1-7-7"
         d="m -697.69078,618.42773 c -1.20722,-0.18423 -4.05128,-0.95723 -4.99216,-0.91723 -1.00728,0.0428 -4.93256,1.31187 -6.30006,1.56893 -0.61907,0.11637 -1.53441,0.13688 -2.58196,-0.0692 -2.59353,-2.71353 5.65247,-5.07957 8.6907,-5.1488 2.9758,-0.0678 10.09038,1.40568 7.9478,4.28389 -0.96041,0.31454 -1.92108,0.41109 -2.76432,0.28241 z"
         style="fill:#ff8080;stroke:none;display:inline" />
      <path
         sodipodi:nodetypes="csssc"
         inkscape:connector-curvature="0"
         id="path4014-8-1"
         d="m -689.95973,608.07307 c 4.16881,5.67985 -3.31555,11.01982 -7.66929,10.35541 -1.20722,-0.18423 -4.05128,-0.95723 -4.99216,-0.91723 -1.00728,0.0428 -4.93256,1.31187 -6.30006,1.56893 -3.037,0.5709 -13.20401,-1.16548 -11.50939,-10.4565"
         style="fill:none;stroke:#000000;stroke-width:1.4242897;stroke-linecap:butt;stroke-linejoin:miter;stroke-opacity:1;display:inline" />
      <path
         sodipodi:nodetypes="csc"
         inkscape:connector-curvature="0"
         id="path5677"
         d="m -711.5,618.92468 c -2.59673,-2.62723 5.64927,-4.99327 8.6875,-5.0625 2.9758,-0.0678 10.09038,1.40568 7.9375,4.25"
         style="fill:none;stroke:#000000;stroke-width:1.4242897;stroke-linecap:butt;stroke-linejoin:miter;stroke-opacity:1" />
      <path
         sodipodi:nodetypes="csc"
         inkscape:connector-curvature="0"
         id="path5677-6"
         d="m -717.13792,617.26955 c -3.34673,-4.81473 9.39939,-6.98503 14.5,-7.0625 5.22687,-0.0794 15.05085,1.22105 11.0625,6.25"
         style="fill:none;stroke:#000000;stroke-width:1.4242897;stroke-linecap:butt;stroke-linejoin:miter;stroke-opacity:1;display:inline" />
    </g>
  </g>
  <g
     inkscape:groupmode="layer"
     id="layer6"
     inkscape:label="吹き出し"
     sodipodi:insensitive="true">
    <g
       id="g9788">
      <path
         sodipodi:nodetypes="sssscsssssss"
         inkscape:connector-curvature="0"
         id="rect7294"
         d="m 15.802008,45.97286 0,35.41665 c 0,12.905093 10.38929,23.29439 23.29438,23.29439 l 76.941122,0 c 17.58619,0 2.36208,17.48845 -2.16649,22.72045 21.30925,-9.48101 27.27319,-22.72045 36.55738,-22.72045 l 117.36138,0 c 12.90509,0 23.2944,-10.389297 23.2944,-23.29439 l 0,-35.41665 c 0,-12.90509 -10.3893,-23.294381 -23.2944,-23.294381 l -228.693392,0 c -12.90509,0 -23.29438,10.389291 -23.29438,23.294381 z"
         style="fill:#fefefe;fill-opacity:1;stroke:#000000;stroke-width:2;stroke-linecap:round;stroke-miterlimit:4;stroke-opacity:1;stroke-dashoffset:0;display:inline" />
      <text
         sodipodi:linespacing="125%"
         id="text11601"
         y="75.330215"
         x="24.47529"
         style="font-size:32px;font-style:normal;font-weight:normal;line-height:125%;letter-spacing:0px;word-spacing:0px;writing-mode:lr-tb;fill:#000000;fill-opacity:1;stroke:none;display:inline;font-family:Sans"
         xml:space="preserve"><tspan
           y="75.330215"
           x="24.47529"
           id="tspan11603"
           sodipodi:role="line">我々は君の味方だ</tspan></text>
    </g>
  </g>
  <g
     inkscape:groupmode="layer"
     id="layer2"
     inkscape:label="枠面"
     sodipodi:insensitive="true">
    <path
       style="fill:#ffffff;stroke:none;display:inline"
       d="m 0,0 0,320 370,0 0,-320 -10,10 0,300 -350,0 0,-300 350,0 10,-10 z"
       id="path21072"
       inkscape:connector-curvature="0"
       sodipodi:nodetypes="ccccccccccc" />
  </g>
</svg>
