<?xml version="1.0" encoding="UTF-8" standalone="no"?>
<!-- Created with Inkscape (http://www.inkscape.org/) -->

<svg
   xmlns:dc="http://purl.org/dc/elements/1.1/"
   xmlns:cc="http://creativecommons.org/ns#"
   xmlns:rdf="http://www.w3.org/1999/02/22-rdf-syntax-ns#"
   xmlns:svg="http://www.w3.org/2000/svg"
   xmlns="http://www.w3.org/2000/svg"
   xmlns:sodipodi="http://sodipodi.sourceforge.net/DTD/sodipodi-0.dtd"
   xmlns:inkscape="http://www.inkscape.org/namespaces/inkscape"
   width="370"
   height="320"
   id="svg3172"
   version="1.1"
   inkscape:version="0.48.4 r9939"
   sodipodi:docname="[20.反撃].svg"
   inkscape:export-filename="C:\Users\執安\Desktop\資料\臨時\svg\BUTAS\[20.反撃].png"
   inkscape:export-xdpi="90"
   inkscape:export-ydpi="90">
  <defs
     id="defs3174" />
  <sodipodi:namedview
     id="base"
     pagecolor="#ffffff"
     bordercolor="#666666"
     borderopacity="1.0"
     inkscape:pageopacity="0.0"
     inkscape:pageshadow="2"
     inkscape:zoom="0.86138198"
     inkscape:cx="-15.745464"
     inkscape:cy="153.05613"
     inkscape:document-units="px"
     inkscape:current-layer="layer3"
     showgrid="false"
     inkscape:window-width="1245"
     inkscape:window-height="692"
     inkscape:window-x="-3"
     inkscape:window-y="-4"
     inkscape:window-maximized="0" />
  <metadata
     id="metadata3177">
    <rdf:RDF>
      <cc:Work
         rdf:about="">
        <dc:format>image/svg+xml</dc:format>
        <dc:type
           rdf:resource="http://purl.org/dc/dcmitype/StillImage" />
        <dc:title></dc:title>
      </cc:Work>
    </rdf:RDF>
  </metadata>
  <g
     inkscape:label="補助線"
     inkscape:groupmode="layer"
     id="layer1"
     transform="translate(0,-732.36218)"
     sodipodi:insensitive="true"
     style="display:none">
    <path
       style="fill:none;stroke:#0000ff;stroke-width:1px;stroke-linecap:butt;stroke-linejoin:miter;stroke-opacity:1;display:inline"
       d="M 10,1042.3622 360,742.36211"
       id="path3025"
       inkscape:connector-curvature="0"
       sodipodi:nodetypes="cc" />
    <path
       style="fill:none;stroke:#0000ff;stroke-width:1px;stroke-linecap:butt;stroke-linejoin:miter;stroke-opacity:1;display:inline"
       d="M 10,742.36211 360,1042.3622"
       id="path3027"
       inkscape:connector-curvature="0"
       sodipodi:nodetypes="cc" />
    <path
       style="fill:none;stroke:#ff0000;stroke-width:1px;stroke-linecap:butt;stroke-linejoin:miter;stroke-opacity:1;display:inline"
       d="m 10,732.36211 0,320.00009"
       id="path3006"
       inkscape:connector-curvature="0"
       sodipodi:nodetypes="cc" />
    <path
       style="fill:none;stroke:#ff0000;stroke-width:1px;stroke-linecap:butt;stroke-linejoin:miter;stroke-opacity:1;display:inline"
       d="m 360,732.36211 0,320.00009"
       id="path3010"
       inkscape:connector-curvature="0"
       sodipodi:nodetypes="cc" />
    <path
       style="fill:none;stroke:#ff0000;stroke-width:1px;stroke-linecap:butt;stroke-linejoin:miter;stroke-opacity:1;display:inline"
       d="m 0,742.36208 370,3e-5"
       id="path3016"
       inkscape:connector-curvature="0" />
    <path
       style="fill:none;stroke:#ff0000;stroke-width:1px;stroke-linecap:butt;stroke-linejoin:miter;stroke-opacity:1;display:inline"
       d="m 0,1042.3622 370,0"
       id="path3018"
       inkscape:connector-curvature="0"
       sodipodi:nodetypes="cc" />
  </g>
  <g
     inkscape:groupmode="layer"
     id="layer9"
     inkscape:label="地表"
     style="display:inline"
     sodipodi:insensitive="true">
    <path
       style="fill:#008000;fill-opacity:1;stroke:none"
       d="m -21.418286,249.67644 438.696356,0 c -76.6017,14.43004 -106.1865,30.30689 -87.03595,35.16603 121.74065,30.88972 -361.841908,29.05537 -270.778514,-1.7583 54.386494,-18.40309 -24.75708,-18.24862 -80.881892,-33.40773 z"
       id="rect11453"
       inkscape:connector-curvature="0"
       sodipodi:nodetypes="ccssc" />
    <path
       style="fill:none;stroke:#000000;stroke-width:2;stroke-linecap:butt;stroke-linejoin:miter;stroke-opacity:1"
       d="m -19.483264,249.90805 417.596744,0"
       id="path11451"
       inkscape:connector-curvature="0" />
  </g>
  <g
     inkscape:groupmode="layer"
     id="layer3"
     inkscape:label="豚"
     style="display:inline"
     sodipodi:insensitive="true">
    <path
       sodipodi:type="arc"
       style="fill:#000000;fill-opacity:1;stroke:none"
       id="path10474-5"
       sodipodi:cx="168.58525"
       sodipodi:cy="294.90659"
       sodipodi:rx="71.03907"
       sodipodi:ry="13.7837"
       d="m 239.62432,294.90659 a 71.03907,13.7837 0 1 1 -142.078139,0 71.03907,13.7837 0 1 1 142.078139,0 z"
       transform="matrix(0.51732618,0,0,0.4428638,25.513094,133.46982)" />
    <path
       sodipodi:type="arc"
       style="fill:#000000;fill-opacity:1;stroke:none"
       id="path10474-5-0-0"
       sodipodi:cx="168.58525"
       sodipodi:cy="294.90659"
       sodipodi:rx="71.03907"
       sodipodi:ry="13.7837"
       d="m 239.62432,294.90659 a 71.03907,13.7837 0 1 1 -142.078139,0 71.03907,13.7837 0 1 1 142.078139,0 z"
       transform="matrix(0.60687842,0,0,0.51952616,-49.022724,115.30184)" />
    <g
       id="g3546"
       transform="matrix(1.0613464,0,0,1.0613464,-16.320035,-383.94355)"
       style="stroke-width:1.88439894">
      <path
         sodipodi:nodetypes="cccccccc"
         inkscape:connector-curvature="0"
         id="path3386-32-4-5-5-3-1"
         d="m 255.56423,568.74945 c -2.74387,-23.60906 6.61801,-40.9516 11.70674,-42.99285 1.54066,0.21243 1.54398,2.25902 2.48387,3.47433 l 7.93543,-0.98011 46.67969,37.42411 0.78011,18.56148 -50.24627,28.82084 z"
         style="fill:#ffd5d5;stroke:none;display:inline" />
      <path
         sodipodi:nodetypes="ccscc"
         inkscape:connector-curvature="0"
         id="path3388-2-1-3-4-9-8"
         d="m 265.92548,535.55645 -5.15571,-2.37895 c 0,0 3.16946,-6.26424 6.33735,-7.32527 1.47472,-0.49392 1.54398,2.25902 2.48387,3.47433 z"
         style="fill:#ffaaaa;stroke:none;display:inline" />
      <path
         sodipodi:nodetypes="ccc"
         inkscape:connector-curvature="0"
         id="path3386-32-4-5-5-9"
         d="m 255.57008,568.84372 c -2.74386,-23.60906 6.61801,-40.9516 11.70674,-42.99285 1.54066,0.21243 1.54398,2.25902 2.48387,3.47432"
         style="fill:none;stroke:#000000;stroke-width:1.88439894;stroke-linecap:butt;stroke-linejoin:miter;stroke-opacity:1;display:inline" />
      <path
         sodipodi:nodetypes="cc"
         inkscape:connector-curvature="0"
         id="path3388-2-1-3-4-2"
         d="m 260.93947,533.17614 5.15571,2.37895"
         style="fill:none;stroke:#000000;stroke-width:1.88439894;stroke-linecap:butt;stroke-linejoin:miter;stroke-opacity:1;display:inline" />
      <path
         sodipodi:nodetypes="cc"
         inkscape:connector-curvature="0"
         id="path5091-2-40-9-2-7-9-0-4-7"
         d="m 283.23505,524.05033 c -10.82904,-1.27853 -16.48705,6.83163 -16.4555,13.28503"
         style="fill:#ffd5d5;stroke:#000000;stroke-width:1.88439894;stroke-linecap:butt;stroke-linejoin:miter;stroke-opacity:1;display:inline" />
      <path
         sodipodi:nodetypes="csc"
         inkscape:connector-curvature="0"
         id="path3331-0-4-6-7-6-5"
         d="m 276.5936,615.4676 c -2.21871,4.47143 -4.64419,9.47321 -9.86395,6.33865 -11.69111,-7.02073 -18.56653,-30.17706 -9.3695,-59.09727"
         style="fill:#ffd5d5;stroke:#000000;stroke-width:1.88439894;stroke-linecap:butt;stroke-linejoin:miter;stroke-opacity:1;display:inline" />
      <path
         sodipodi:nodetypes="csc"
         inkscape:connector-curvature="0"
         id="path4041-2-8-2-7-4"
         d="m 276.36152,527.68941 c 15.06047,-11.78372 37.10893,-3.0691 42.8572,11.70648 4.11097,10.56701 9.01681,20.98766 4.04115,26.84824"
         style="fill:#ffd5d5;stroke:#000000;stroke-width:1.88439894;stroke-linecap:butt;stroke-linejoin:miter;stroke-opacity:1;display:inline" />
      <path
         sodipodi:nodetypes="cccc"
         inkscape:connector-curvature="0"
         id="path3327-4-4-9-9-2-3"
         d="m 325.69937,578.22828 c 4.29075,8.22163 8.85245,23.726 6.59391,29.02989 10.02875,18.17589 -3.87464,19.59811 -18.13065,13.6921 -7.65716,-0.96815 -25.25594,-2.45433 -41.57168,-6.43509"
         style="fill:#ffd5d5;stroke:#000000;stroke-width:1.88439894;stroke-linecap:butt;stroke-linejoin:miter;stroke-opacity:1;display:inline" />
      <path
         sodipodi:nodetypes="cc"
         inkscape:connector-curvature="0"
         id="path5093-4-9-4-4-11-5-0-1-1"
         d="m 270.54318,533.49339 c -7.41909,5.02626 -11.5492,15.67103 -7.17031,25.72898"
         style="fill:#ffd5d5;stroke:#000000;stroke-width:1.88439894;stroke-linecap:butt;stroke-linejoin:miter;stroke-opacity:1;display:inline" />
      <path
         sodipodi:nodetypes="cc"
         inkscape:connector-curvature="0"
         id="path5095-5-4-8-5-5-4-3-9-2"
         d="m 280.66801,531.87596 -1.11731,4.6115"
         style="fill:none;stroke:#000000;stroke-width:1.88439894;stroke-linecap:butt;stroke-linejoin:miter;stroke-opacity:1;display:inline" />
      <path
         inkscape:connector-curvature="0"
         id="path5097-5-8-8-5-2-3-9-6-3"
         d="m 292.14874,536.57784 -5.54129,3.22713"
         style="fill:none;stroke:#000000;stroke-width:1.88439894;stroke-linecap:butt;stroke-linejoin:miter;stroke-opacity:1;display:inline"
         sodipodi:nodetypes="cc" />
      <path
         sodipodi:nodetypes="csc"
         inkscape:connector-curvature="0"
         id="path5099-1-8-2-7-7-1-1-9-3"
         d="m 313.33292,532.25712 c 12.99291,6.67588 8.5013,22.14374 2.94086,24.93005 -3.52548,1.7666 -6.96152,-10.36486 -10.21318,-14.82051"
         style="fill:#ffd5d5;stroke:#000000;stroke-width:1.88439894;stroke-linecap:butt;stroke-linejoin:miter;stroke-opacity:1;display:inline" />
      <path
         inkscape:connector-curvature="0"
         id="path5101-7-2-4-1-6-2-8-8-4"
         d="m 280.70282,538.40674 c 3.89699,1.59516 6.60925,5.67686 8.36694,9.96403 3.32404,8.10762 -0.0349,11.73204 -5.61635,9.45027 -4.24308,-1.73462 -8.59185,-3.58168 -12.23194,-3.89723 -4.1429,-0.35911 -3.0961,-7.39869 -0.79237,-10.68734 3.48476,-4.97461 7.16914,-6.10054 10.27372,-4.82973 z"
         style="fill:#ffaaaa;stroke:#000000;stroke-width:1.88439894;stroke-linecap:butt;stroke-linejoin:miter;stroke-opacity:1;display:inline"
         sodipodi:nodetypes="ssssss" />
      <path
         sodipodi:nodetypes="sss"
         inkscape:connector-curvature="0"
         id="path5105-1-4-55-1-28-14-3-1-2-1"
         d="m 283.08684,552.48765 c -0.79437,1.02776 -1.90299,-8.95429 -1.5831,-8.55364 0.39042,0.489 3.86481,5.6015 1.5831,8.55364 z"
         style="fill:#000000;stroke:#000000;stroke-width:1.88439894;display:inline" />
      <path
         sodipodi:nodetypes="sss"
         inkscape:connector-curvature="0"
         id="path5107-1-5-1-5-2-3-9-5-1"
         d="m 277.22937,542.79208 c 0.51211,0.3575 -2.31306,7.48089 -2.6208,6.88838 -1.32489,-2.55092 1.98663,-7.33107 2.6208,-6.88838 z"
         style="fill:#000000;stroke:#000000;stroke-width:1.88439894;display:inline" />
      <path
         sodipodi:nodetypes="csssc"
         inkscape:connector-curvature="0"
         id="path5089-8-7-0-8-2-1-7-2-9-42-6"
         d="m 325.27689,584.6596 c 6.93224,-5.45293 17.76799,-11.00718 18.27498,-14.93565 0.26112,-2.02324 -2.18632,-2.14704 -2.19975,-3.90129 -0.01,-1.2638 1.70371,-2.89357 1.1842,-4.22815 -1.16347,-2.98879 -11.43917,-5.68754 -21.23636,-5.39379"
         style="fill:#ffd5d5;stroke:none;display:inline" />
      <path
         style="fill:#ffaaaa;stroke:none;display:inline"
         d="m 343.60714,569.67673 c 0.37116,-2.00597 -2.18633,-2.14703 -2.19976,-3.90128 -0.01,-1.26381 1.75795,-2.91597 1.1842,-4.22815 -0.92578,-2.11729 -6.61914,-3.53009 -6.61914,-3.53009 -4.57245,0.35099 -3.33081,19.08345 2.37265,17.2454 0,0 4.75506,-2.84582 5.26205,-5.58588 z"
         id="path5089-8-7-0-8-2-1-7-2-9-42-9"
         inkscape:connector-curvature="0"
         sodipodi:nodetypes="sssccs" />
      <path
         sodipodi:nodetypes="cc"
         inkscape:connector-curvature="0"
         id="path5111-7-1-7-7-7-0-5-1-5-7"
         d="m 335.86289,558.09939 c -4.57245,0.351 -3.33082,19.08346 2.37265,17.24541"
         style="fill:none;stroke:#000000;stroke-width:1.88439894;stroke-linecap:butt;stroke-linejoin:miter;stroke-opacity:1;display:inline" />
      <path
         sodipodi:nodetypes="csssc"
         inkscape:connector-curvature="0"
         id="path5089-8-7-0-8-2-1-7-2-9-42"
         d="m 325.2226,584.69457 c 6.93224,-5.45293 17.76799,-11.00718 18.27498,-14.93565 0.26112,-2.02324 -2.18632,-2.14704 -2.19975,-3.90129 -0.01,-1.2638 1.70371,-2.89357 1.1842,-4.22815 -1.16347,-2.98879 -11.43917,-5.68754 -21.23636,-5.39379"
         style="fill:none;stroke:#000000;stroke-width:1.88439894;stroke-linecap:butt;stroke-linejoin:miter;stroke-opacity:1;display:inline" />
    </g>
    <g
       id="g3600"
       transform="translate(36.729146,-345.16346)">
      <path
         sodipodi:nodetypes="ccscccccc"
         inkscape:connector-curvature="0"
         id="path3570-7-2-8-7-8"
         d="m 107.36883,592.76243 c 5.02045,-4.04433 7.92066,-11.26907 7.92489,-19.92316 1.80744,0.27939 3.46367,2.51894 3.98642,1.6451 2.33555,-3.90415 2.17702,-22.57593 -9.54223,-32.01942 l -1.49135,-14.93438 -4.24627,-9.7424 -57.507418,29.40572 4.160932,34.77959 z"
         style="fill:#ffd5d5;stroke:none;display:inline" />
      <path
         sodipodi:nodetypes="cccsc"
         inkscape:connector-curvature="0"
         id="path5109-2-7-7-2-9-2-2-8"
         d="m 116.63784,573.21988 -0.40214,-4.51539 4.25502,-0.62424 c -0.0588,1.00091 -0.15832,5.21097 -1.06437,6.18353 -0.90605,0.97255 -2.0831,-1.03561 -2.78851,-1.0439 z"
         style="fill:#ffaaaa;stroke:none;display:inline" />
      <path
         sodipodi:nodetypes="csc"
         inkscape:connector-curvature="0"
         id="path5109-2-7-7-2-9-2-4"
         d="m 109.78033,542.46476 c 11.71924,9.4435 12.69868,29.0901 9.54222,32.01942 -0.74637,0.69266 -2.17897,-1.36573 -4.06443,-1.63053"
         style="fill:none;stroke:#000000;stroke-width:2;stroke-linecap:butt;stroke-linejoin:miter;stroke-opacity:1;display:inline" />
      <path
         sodipodi:nodetypes="cc"
         inkscape:connector-curvature="0"
         id="path5111-7-6-1-8-2-8-5"
         d="m 120.49625,567.86793 -4.15241,0.47031"
         style="fill:none;stroke:#000000;stroke-width:2;stroke-linecap:butt;stroke-linejoin:miter;stroke-opacity:1;display:inline" />
      <path
         sodipodi:nodetypes="csccc"
         inkscape:connector-curvature="0"
         id="path3386-7-3-5"
         d="m 69.537973,542.22435 c -12.386463,15.06193 -13.951035,33.07742 -9.838391,37.86259 1.348315,1.56881 1.379119,-2.10274 3.003958,-2.02197 l 14.796376,-26.5264 z"
         style="fill:none;stroke:none;display:inline" />
      <path
         sodipodi:nodetypes="cc"
         inkscape:connector-curvature="0"
         id="path3570-7-2-8-2"
         d="m 107.41124,592.76225 c 13.30914,-9.29391 10.04233,-27.07797 4.67229,-37.37869"
         style="fill:#ffd5d5;stroke:#000000;stroke-width:2;stroke-linecap:butt;stroke-linejoin:miter;stroke-opacity:1;display:inline" />
      <path
         sodipodi:nodetypes="ccccsc"
         inkscape:connector-curvature="0"
         id="path3911-1-4-5-5"
         d="m 48.380389,556.2208 c -7.591385,13.2111 -12.523962,24.10206 -9.829757,31.61491 -12.315054,12.58316 -3.919706,18.11687 18.400993,11.38447 9.849703,-0.0446 27.277469,-1.54851 34.747262,-0.45493 10.764093,5.47562 23.561913,2.13948 26.484313,-1.76691 3.21535,-4.29799 -1.3132,-11.87131 -12.23896,-7.4679"
         style="fill:#ffd5d5;stroke:#000000;stroke-width:2;stroke-linecap:butt;stroke-linejoin:miter;stroke-opacity:1;display:inline" />
      <path
         sodipodi:nodetypes="csssc"
         inkscape:connector-curvature="0"
         id="path5109-2-7-7-2-9-9-1"
         d="m 45.559877,545.75378 c -8.988747,6.24818 -15.686646,20.72239 -14.242235,24.08926 0.968417,2.25733 2.771453,-0.46716 4.582907,0.60945 1.562254,0.92851 0.250566,3.16055 2.141718,4.68771 1.544099,1.24688 10.502414,-6.57687 16.449196,-9.71792"
         style="fill:#ffd5d5;stroke:none;display:inline" />
      <path
         sodipodi:nodetypes="cssscc"
         inkscape:connector-curvature="0"
         id="path5111-7-6-1-8-2-4-7"
         d="m 32.493616,563.23724 c -1.211485,3.0076 -1.682829,5.49262 -1.184326,6.65462 0.968414,2.25733 2.771455,-0.46715 4.582908,0.60945 1.562253,0.92852 0.250561,3.16056 2.141718,4.6877 0.664824,0.53686 3.11453,0.008 5.692646,-1.72739 2.035597,-3.75944 -8.835979,-14.23303 -11.232946,-10.22438 z"
         style="fill:#ffaaaa;stroke:none;display:inline" />
      <path
         sodipodi:nodetypes="csssc"
         inkscape:connector-curvature="0"
         id="path5109-2-7-7-2-9-21"
         d="m 45.541012,545.83443 c -8.988749,6.24818 -15.686646,20.72239 -14.242235,24.08926 0.968417,2.25733 2.771453,-0.46715 4.582906,0.60945 1.562255,0.92851 0.250567,3.16055 2.141718,4.68771 1.5441,1.24689 8.470794,-3.38432 14.417577,-6.52538"
         style="fill:none;stroke:#000000;stroke-width:2;stroke-linecap:butt;stroke-linejoin:miter;stroke-opacity:1;display:inline" />
      <path
         sodipodi:nodetypes="cc"
         inkscape:connector-curvature="0"
         id="path5111-7-6-1-8-2-6"
         d="m 32.493931,563.27475 c 2.386137,-4.01433 13.514245,6.51057 11.064755,10.36576"
         style="fill:none;stroke:#000000;stroke-width:2;stroke-linecap:butt;stroke-linejoin:miter;stroke-opacity:1;display:inline" />
      <path
         sodipodi:nodetypes="cc"
         inkscape:connector-curvature="0"
         id="path5091-2-4-0-7-2-1"
         d="m 97.371143,511.10306 c 10.727847,1.35191 14.022947,12.80948 11.657637,19.73085"
         style="fill:#ffd5d5;stroke:#000000;stroke-width:2;stroke-linecap:butt;stroke-linejoin:miter;stroke-opacity:1;display:inline" />
      <path
         sodipodi:nodetypes="csc"
         inkscape:connector-curvature="0"
         id="path3536-4-7-61-2"
         d="m 104.00358,518.74456 c -8.803497,-17.2909 -37.690645,-21.04933 -50.039926,-0.0921 -7.894858,13.39787 -12.305496,23.12527 -8.088445,29.70839"
         style="fill:#ffd5d5;stroke:#000000;stroke-width:2;stroke-linecap:butt;stroke-linejoin:miter;stroke-opacity:1;display:inline" />
      <path
         sodipodi:nodetypes="cc"
         inkscape:connector-curvature="0"
         id="path5093-4-2-9-9-4-7"
         d="m 107.66658,526.79552 c 3.49937,4.73287 5.43362,15.63847 -1.5695,22.88868"
         style="fill:#ffd5d5;stroke:#000000;stroke-width:2;stroke-linecap:butt;stroke-linejoin:miter;stroke-opacity:1;display:inline" />
      <path
         sodipodi:nodetypes="cc"
         inkscape:connector-curvature="0"
         id="path5095-5-3-4-3-2-6"
         d="m 94.62415,521.03994 -1.907504,4.5727"
         style="fill:none;stroke:#000000;stroke-width:2;stroke-linecap:butt;stroke-linejoin:miter;stroke-opacity:1;display:inline" />
      <path
         sodipodi:nodetypes="cc"
         inkscape:connector-curvature="0"
         id="path5097-5-2-8-1-5-1"
         d="m 80.390915,522.11145 3.897462,4.69272"
         style="fill:none;stroke:#000000;stroke-width:2;stroke-linecap:butt;stroke-linejoin:miter;stroke-opacity:1;display:inline" />
      <path
         sodipodi:nodetypes="csc"
         inkscape:connector-curvature="0"
         id="path5099-1-2-8-9-8-4"
         d="m 63.905701,511.48651 c -17.050782,2.65128 -19.310255,21.05852 -12.552744,25.90926 2.138346,1.53497 9.160256,-8.38325 12.458469,-11.19008"
         style="fill:#ffd5d5;stroke:#000000;stroke-width:2;stroke-linecap:butt;stroke-linejoin:miter;stroke-opacity:1;display:inline" />
      <path
         sodipodi:nodetypes="ssssss"
         inkscape:connector-curvature="0"
         id="path5101-7-1-2-8-62-2"
         d="m 90.411082,527.02843 c -4.256178,0.0206 -9.877934,3.3059 -13.159571,8.68 -3.634147,5.95138 -2.106294,11.85829 5.388225,10.11306 4.684538,-1.09087 8.273247,-0.93726 11.939856,-0.29322 4.58133,0.80471 7.639718,-3.72828 5.790198,-9.57268 -1.789436,-5.65455 -5.751192,-8.94749 -9.958708,-8.92716 z"
         style="fill:#ffaaaa;stroke:#000000;stroke-width:2;stroke-linecap:butt;stroke-linejoin:miter;stroke-opacity:1;display:inline" />
      <path
         sodipodi:nodetypes="sss"
         inkscape:connector-curvature="0"
         id="path5105-1-6-4-6-6-3"
         d="m 83.963035,541.43374 c 0.758604,1.0359 4.311749,-8.59064 3.431272,-9.00268 -1.060448,-0.49631 -5.59078,6.05387 -3.431272,9.00268 z"
         style="fill:#000000;stroke:#000000;stroke-width:2;display:inline" />
      <path
         sodipodi:nodetypes="sss"
         inkscape:connector-curvature="0"
         id="path5107-1-8-55-5-5-2"
         d="m 92.235674,532.21997 c -0.788908,-0.0157 0.162065,8.87222 1.235937,7.95888 2.371523,-2.01703 -0.09376,-7.93612 -1.235937,-7.95888 z"
         style="fill:#000000;stroke:#000000;stroke-width:2;display:inline" />
    </g>
    <g
       id="g3540"
       transform="translate(78.084906,-340.67269)">
      <path
         sodipodi:nodetypes="cccccccc"
         inkscape:connector-curvature="0"
         id="path5089-74"
         d="m 16.653821,559.5427 c 3.964551,11.83486 0.303374,25.19389 -9.6107828,29.78872 l -33.0448172,-4.75857 -25.859378,-42.26558 6.273932,-7.83041 64.265132,-14.75742 5.530662,15.14752 z"
         style="fill:#ffd5d5;stroke:#000000;stroke-width:2.15342212;stroke-linecap:butt;stroke-linejoin:miter;stroke-opacity:1;display:inline" />
      <path
         sodipodi:nodetypes="cc"
         inkscape:connector-curvature="0"
         id="path5091-0"
         d="m 15.851382,516.73035 c 9.929544,2.47655 12.681278,14.86475 8.007666,21.30029"
         style="fill:#ffd5d5;stroke:#000000;stroke-width:2.15342212;stroke-linecap:butt;stroke-linejoin:miter;stroke-opacity:1;display:inline" />
      <path
         sodipodi:nodetypes="csc"
         inkscape:connector-curvature="0"
         id="path3857-4"
         d="m 13.650695,568.30717 c 3.28505,41.03754 -43.73948,45.79017 -64.687875,36.59732 -6.739989,-2.95773 -5.923649,-8.91918 0.841985,-13.73062"
         style="fill:#ffd5d5;stroke:#000000;stroke-width:2.15342212;stroke-linecap:butt;stroke-linejoin:miter;stroke-opacity:1;display:inline" />
      <path
         sodipodi:nodetypes="csc"
         inkscape:connector-curvature="0"
         id="path3853-8"
         d="m -13.569373,596.83706 c 5.2207524,6.67783 5.1298357,17.41605 -6.551645,14.67879 -46.411188,-10.87529 -61.210992,-47.71551 -28.775775,-74.57013"
         style="fill:#ffd5d5;stroke:#000000;stroke-width:2.15342212;stroke-linecap:butt;stroke-linejoin:miter;stroke-opacity:1;display:inline" />
      <path
         sodipodi:nodetypes="csc"
         inkscape:connector-curvature="0"
         id="path3861-82"
         d="m 20.16179,521.62414 c -6.487425,-15.43245 -30.422596,-22.14697 -52.112969,-7.68297 -9.492546,6.33 -17.671163,16.81963 -16.888803,26.12946"
         style="fill:#ffd5d5;stroke:#000000;stroke-width:2.15342212;stroke-linecap:butt;stroke-linejoin:miter;stroke-opacity:1;display:inline" />
      <path
         sodipodi:nodetypes="cc"
         inkscape:connector-curvature="0"
         id="path5093-4"
         d="m 23.341355,533.20826 c 4.329349,11.51511 1.404191,25.05556 -10.796371,29.13478"
         style="fill:#ffd5d5;stroke:#000000;stroke-width:2.15342212;stroke-linecap:butt;stroke-linejoin:miter;stroke-opacity:1;display:inline" />
      <path
         sodipodi:nodetypes="cc"
         inkscape:connector-curvature="0"
         id="path5095-55"
         d="m 18.342421,529.42049 -1.283222,4.80659"
         style="fill:none;stroke:#000000;stroke-width:2.15342212;stroke-linecap:butt;stroke-linejoin:miter;stroke-opacity:1;display:inline" />
      <path
         sodipodi:nodetypes="cc"
         inkscape:connector-curvature="0"
         id="path5097-1"
         d="m 7.0463881,529.47448 3.0813629,4.99823"
         style="fill:none;stroke:#000000;stroke-width:2.15342212;stroke-linecap:butt;stroke-linejoin:miter;stroke-opacity:1;display:inline" />
      <path
         sodipodi:nodetypes="csc"
         inkscape:connector-curvature="0"
         id="path5099-7"
         d="m -13.142501,509.64722 c -20.449327,-5.69819 -30.170667,15.40489 -21.171849,25.26201 2.747719,3.00979 16.984445,-7.13449 23.493727,-9.16186"
         style="fill:#ffd5d5;stroke:#000000;stroke-width:2.15342212;stroke-linecap:butt;stroke-linejoin:miter;stroke-opacity:1;display:inline" />
      <path
         sodipodi:nodetypes="ssssss"
         inkscape:connector-curvature="0"
         id="path5101-1"
         d="m 16.415254,536.02979 c -4.616135,-0.30634 -10.6703676,3.15266 -15.1626246,8.70897 -3.9328431,4.8644 -3.9863948,11.66964 3.3848882,10.76943 3.6291345,-0.44321 6.0440144,-0.009 8.6561774,0.75227 3.614035,1.05325 6.381793,-3.99817 7.457628,-8.54258 1.290157,-5.44972 1.336992,-11.3116 -4.336069,-11.68809 z"
         style="fill:#ffaaaa;stroke:#000000;stroke-width:2.15342212;stroke-linecap:butt;stroke-linejoin:miter;stroke-opacity:1;display:inline" />
      <path
         sodipodi:nodetypes="sss"
         inkscape:connector-curvature="0"
         id="path5105-1"
         d="m 6.4223741,550.32799 c 0.4392362,1.11354 6.3893749,-8.35139 5.4892569,-8.42543 -0.518467,-0.0426 -7.3354475,3.74503 -5.4892569,8.42543 z"
         style="fill:#000000;stroke:#000000;stroke-width:2.15342212;stroke-linecap:butt;stroke-linejoin:miter;stroke-opacity:1;display:inline" />
      <path
         sodipodi:nodetypes="sss"
         inkscape:connector-curvature="0"
         id="path5107-5"
         d="m 16.623536,542.52163 c -0.996867,-0.43791 -3.112901,9.29511 -2.079946,8.57551 2.937432,-2.04634 2.728178,-8.29075 2.079946,-8.57551 z"
         style="fill:#000000;stroke:#000000;stroke-width:2.15342212;stroke-linecap:butt;stroke-linejoin:miter;stroke-opacity:1;display:inline" />
      <path
         sodipodi:nodetypes="sssccs"
         inkscape:connector-curvature="0"
         id="path5109-5-27"
         d="m -0.6112209,580.4417 c 0.5128085,-0.71114 -0.5663029,-2.99124 0.15850415,-4.13316 0.67792764,-1.06806 3.39799255,-2.2022 3.19285235,-3.86135 -0.1972962,-1.59571 -2.50552777,-4.25092 -3.8357958,-5.03496 -4.3026994,-0.86687 -9.6224258,11.90634 -5.5608943,15.06771 1.9818771,-0.36322 5.3329406,-1.05021 6.0453336,-2.03824 z"
         style="fill:#ffaaaa;stroke:none;display:inline" />
      <path
         sodipodi:nodetypes="csssc"
         inkscape:connector-curvature="0"
         id="path5109-6"
         d="m -16.395591,556.43406 c 4.877103,2.49586 18.6124444,11.02192 19.1251901,16.01077 0.2250581,2.18974 -2.57375366,2.1014 -3.24421218,3.70749 -0.58677762,1.40563 0.94115742,2.76351 0.0379176,4.14195 -1.76206002,2.68909 -15.01380152,3.47246 -18.80861052,3.31406"
         style="fill:none;stroke:#000000;stroke-width:2.15342212;stroke-linecap:butt;stroke-linejoin:miter;stroke-opacity:1;display:inline" />
      <path
         sodipodi:nodetypes="cc"
         inkscape:connector-curvature="0"
         id="path5111-1"
         d="M -0.84119915,567.06576 C -6.275738,563.8794 -11.762318,581.74109 -6.7149524,582.52009"
         style="fill:none;stroke:#000000;stroke-width:2.15342212;stroke-linecap:butt;stroke-linejoin:miter;stroke-opacity:1;display:inline" />
    </g>
    <path
       style="fill:none;stroke:#333333;stroke-width:2;stroke-linecap:butt;stroke-linejoin:miter;stroke-opacity:1;display:inline"
       d="M 366.21902,26.475703 220.55841,142.9356 l 101.68115,9.79672"
       id="path11424-5"
       inkscape:connector-curvature="0"
       sodipodi:nodetypes="ccc" />
    <path
       style="fill:none;stroke:#333333;stroke-width:2;stroke-linecap:butt;stroke-linejoin:miter;stroke-opacity:1;display:inline"
       d="M 385.4934,28.921583 239.83279,145.38148 341.51394,155.1782"
       id="path11424-5-4"
       inkscape:connector-curvature="0"
       sodipodi:nodetypes="ccc" />
    <path
       style="fill:none;stroke:#333333;stroke-width:2;stroke-linecap:butt;stroke-linejoin:miter;stroke-opacity:1;display:inline"
       d="M 375.59741,28.214725 229.9368,144.67462 l 101.68115,9.79672"
       id="path11424-5-8"
       inkscape:connector-curvature="0"
       sodipodi:nodetypes="ccc" />
    <path
       sodipodi:type="arc"
       style="fill:#000000;fill-opacity:1;stroke:none"
       id="path10474"
       sodipodi:cx="168.58525"
       sodipodi:cy="294.90659"
       sodipodi:rx="71.03907"
       sodipodi:ry="13.7837"
       d="m 239.62432,294.90659 a 71.03907,13.7837 0 1 1 -142.078139,0 71.03907,13.7837 0 1 1 142.078139,0 z"
       transform="matrix(0.80090826,0,0,0.68562793,46.026249,92.920191)" />
    <path
       sodipodi:type="arc"
       style="fill:#000000;fill-opacity:1;stroke:none"
       id="path10474-5-0"
       sodipodi:cx="168.58525"
       sodipodi:cy="294.90659"
       sodipodi:rx="71.03907"
       sodipodi:ry="13.7837"
       d="m 239.62432,294.90659 a 71.03907,13.7837 0 1 1 -142.078139,0 71.03907,13.7837 0 1 1 142.078139,0 z"
       transform="matrix(0.60687842,0,0,0.51952616,204.1115,129.32492)" />
    <g
       id="g3654"
       transform="matrix(1.0613464,0,0,1.0613464,7.7847831,-386.40625)"
       style="stroke-width:1.88439894">
      <path
         sodipodi:nodetypes="cscccccc"
         inkscape:connector-curvature="0"
         id="path3386-7-7-1-42-5"
         d="m 144.43151,514.33776 c -21.33628,4.68493 -31.38087,23.98036 -30.89716,31.87834 0.14008,2.28729 3.75318,-0.46374 5.65392,0.0175 l 8.35196,37.44688 96.36348,-38.40766 10.47231,-30.73894 -5.17141,-13.37726 z"
         style="fill:#ffd5d5;stroke:none;display:inline" />
      <path
         sodipodi:nodetypes="ccccc"
         inkscape:connector-curvature="0"
         id="path3386-7-7-1-9-0"
         d="m 119.11748,546.28264 c -1.90074,-0.48124 -5.29313,2.15655 -5.65392,-0.10645 -0.74244,-4.43363 2.12727,-9.26376 2.12727,-9.26376 2.49061,0.34086 5.47936,1.5916 7.46307,3.98395 z"
         style="fill:#ffaaaa;stroke:none;display:inline" />
      <path
         sodipodi:nodetypes="csc"
         inkscape:connector-curvature="0"
         id="path3331-0-3-1-0-0"
         d="m 126.69461,585.78612 c -6.71471,3.65937 -17.03725,6.72191 -18.94451,2.31639 -6.03768,-13.94624 8.17729,-45.89923 30.10377,-60.72386"
         style="fill:#ffd5d5;stroke:#000000;stroke-width:1.88439894;stroke-linecap:butt;stroke-linejoin:miter;stroke-opacity:1;display:inline" />
      <path
         sodipodi:nodetypes="cscc"
         inkscape:connector-curvature="0"
         id="path3327-4-2-3-9-1"
         d="m 227.09494,544.16988 c 1.20029,39.92931 -28.44149,62.20716 -50.75156,66.04662 -11.20787,1.92883 -6.86331,-8.56915 -7.75382,-12.84465 -14.42249,0.069 -39.17241,-6.24025 -44.57354,-14.66654"
         style="fill:#ffd5d5;stroke:#000000;stroke-width:1.88439894;stroke-linecap:butt;stroke-linejoin:miter;stroke-opacity:1;display:inline" />
      <path
         sodipodi:nodetypes="csc"
         inkscape:connector-curvature="0"
         id="path3386-7-7-1-0"
         d="m 144.55983,514.27864 c -20.35677,4.6221 -32.65157,21.77229 -31.02935,31.94728 0.36079,2.26299 3.75318,-0.37479 5.65392,0.10645"
         style="fill:none;stroke:#000000;stroke-width:1.88439894;stroke-linecap:butt;stroke-linejoin:miter;stroke-opacity:1;display:inline" />
      <path
         sodipodi:nodetypes="cc"
         inkscape:connector-curvature="0"
         id="path3388-9-7-2-6"
         d="m 115.65775,536.96216 c 2.49061,0.34086 5.47936,1.5916 7.46307,3.98395"
         style="fill:none;stroke:#000000;stroke-width:1.88439894;stroke-linecap:butt;stroke-linejoin:miter;stroke-opacity:1;display:inline" />
      <path
         sodipodi:nodetypes="ccsssc"
         inkscape:connector-curvature="0"
         id="path5111-7-1-7-7-7-4-3-4-1-3"
         d="m 190.44004,577.999 c 5.84016,0.47599 3.43682,-22.74703 -2.2983,-20.68161 0,0 -3.91801,1.74729 -5.11808,3.81637 -1.38376,2.38583 2.97478,5.0032 3.05857,6.86282 0.11824,2.62409 -3.06844,2.78102 -2.11614,4.99091 1.16125,2.6948 6.47395,5.01151 6.47395,5.01151 z"
         style="fill:#ffaaaa;stroke:none;display:inline" />
      <path
         sodipodi:nodetypes="cc"
         inkscape:connector-curvature="0"
         id="path5111-7-1-7-7-7-4-3-4-1"
         d="m 190.57681,577.98522 c 5.84016,0.476 3.43682,-22.74702 -2.2983,-20.6816"
         style="fill:none;stroke:#000000;stroke-width:1.88439894;stroke-linecap:butt;stroke-linejoin:miter;stroke-opacity:1;display:inline" />
      <path
         sodipodi:nodetypes="csssc"
         inkscape:connector-curvature="0"
         id="path5089-8-7-0-8-6-3-6-8"
         d="m 210.45178,551.10555 c -11.70409,0.95247 -25.76016,6.77159 -27.29135,10.01444 -1.17763,2.49402 2.97477,5.0032 3.05857,6.86281 0.11824,2.62409 -3.33603,2.9167 -2.11614,4.99091 2.70128,4.59306 13.74568,8.92799 24.3981,8.43301"
         style="fill:none;stroke:#000000;stroke-width:1.88439894;stroke-linecap:butt;stroke-linejoin:miter;stroke-opacity:1;display:inline" />
      <path
         sodipodi:nodetypes="cc"
         inkscape:connector-curvature="0"
         id="path5091-2-40-9-2-8-4-3-0"
         d="m 225.39964,492.58525 c 9.65838,3.62052 14.04952,17.26285 8.44262,28.35403"
         style="fill:#ffd5d5;stroke:#000000;stroke-width:1.88439894;stroke-linecap:butt;stroke-linejoin:miter;stroke-opacity:1;display:inline" />
      <path
         sodipodi:nodetypes="csc"
         inkscape:connector-curvature="0"
         id="path4117-5-6"
         d="m 230.00363,502.14148 c -6.63363,-22.57536 -35.60191,-29.43006 -55.14288,-18.93437 -13.88641,7.45856 -33.28162,20.28755 -32.11309,36.26803"
         style="fill:#ffd5d5;stroke:#000000;stroke-width:1.88439894;stroke-linecap:butt;stroke-linejoin:miter;stroke-opacity:1;display:inline" />
      <path
         sodipodi:nodetypes="cc"
         inkscape:connector-curvature="0"
         id="path5093-4-9-4-4-5-1-4-3"
         d="m 232.97966,515.08418 c 3.73054,10.66423 1.65718,25.61992 -11.13113,33.11609"
         style="fill:#ffd5d5;stroke:#000000;stroke-width:1.88439894;stroke-linecap:butt;stroke-linejoin:miter;stroke-opacity:1;display:inline" />
      <path
         sodipodi:nodetypes="cc"
         inkscape:connector-curvature="0"
         id="path5095-5-4-8-5-7-1-2-8"
         d="m 223.93284,506.4871 -2.07639,6.09039"
         style="fill:none;stroke:#000000;stroke-width:1.88439894;stroke-linecap:butt;stroke-linejoin:miter;stroke-opacity:1;display:inline" />
      <path
         sodipodi:nodetypes="cc"
         inkscape:connector-curvature="0"
         id="path5097-5-8-8-5-6-3-8-9"
         d="m 208.03488,505.13824 3.41445,6.80446"
         style="fill:none;stroke:#000000;stroke-width:1.88439894;stroke-linecap:butt;stroke-linejoin:miter;stroke-opacity:1;display:inline" />
      <path
         sodipodi:nodetypes="csc"
         inkscape:connector-curvature="0"
         id="path5099-1-8-2-7-1-8-8-3"
         d="m 183.5192,482.09516 c -26.02211,-2.568 -32.16193,24.91131 -24.03639,31.09309 5.49415,4.17991 18.83515,-9.75341 25.56707,-11.20791"
         style="fill:#ffd5d5;stroke:#000000;stroke-width:1.88439894;stroke-linecap:butt;stroke-linejoin:miter;stroke-opacity:1;display:inline" />
      <path
         sodipodi:nodetypes="ssssss"
         inkscape:connector-curvature="0"
         id="path5101-7-2-4-1-8-7-7-4"
         d="m 221.09597,514.66002 c -5.69613,-1.11468 -15.45104,2.41924 -20.70543,8.02007 -6.28621,6.70065 -7.85188,12.94214 -0.4296,13.31114 6.26053,0.31125 12.61521,1.32919 16.0664,2.86145 6.76334,3.00287 10.41332,-3.53153 11.16566,-9.44923 0.97154,-7.64218 -0.4669,-13.64166 -6.09703,-14.74343 z"
         style="fill:#ffaaaa;stroke:#000000;stroke-width:1.88439894;stroke-linecap:butt;stroke-linejoin:miter;stroke-opacity:1;display:inline" />
      <path
         sodipodi:nodetypes="sss"
         inkscape:connector-curvature="0"
         id="path5105-1-4-55-1-9-4-5-4"
         d="m 205.86681,530.61659 c 0.23151,2.05183 10.58211,-8.9713 9.17583,-9.63266 -0.8207,-0.38595 -9.84072,3.74006 -9.17583,9.63266 z"
         style="fill:#000000;stroke:#000000;stroke-width:1.88439894;stroke-linecap:butt;stroke-linejoin:miter;stroke-opacity:1;display:inline" />
      <path
         sodipodi:nodetypes="sss"
         inkscape:connector-curvature="0"
         id="path5107-1-5-1-5-2-2-8-6"
         d="m 221.34288,522.26063 c -0.81426,-0.50273 -5.40337,12.48395 -3.46939,11.6858 4.42236,-1.82511 4.57615,-11.00247 3.46939,-11.6858 z"
         style="fill:#000000;stroke:#000000;stroke-width:1.88439894;stroke-linecap:butt;stroke-linejoin:miter;stroke-opacity:1;display:inline" />
    </g>
  </g>
  <g
     inkscape:groupmode="layer"
     id="layer10"
     inkscape:label="ボール"
     sodipodi:insensitive="true">
    <g
       style="display:inline"
       id="g10317"
       transform="translate(-86.969194,-6.9975213)">
      <path
         transform="matrix(0.03974003,0,0,0.03974003,509.34668,179.24189)"
         d="m -1676,-495.63782 a 792,792 0 1 1 -1584,0 792,792 0 1 1 1584,0 z"
         sodipodi:ry="792"
         sodipodi:rx="792"
         sodipodi:cy="-495.63782"
         sodipodi:cx="-2468"
         id="path7378-0-8"
         style="fill:#fefefe;fill-opacity:1;stroke:none;display:inline"
         sodipodi:type="arc" />
      <path
         sodipodi:nodetypes="ccccc"
         inkscape:connector-curvature="0"
         id="path7420-6-0"
         d="m 440.75738,148.51829 c -0.55362,0.46004 -1.26763,1.23467 -1.77648,1.86727 0.58284,4.0183 1.19964,8.24631 0.64969,12.65176 1.45449,1.66473 1.67521,4.25841 1.72859,5.78061 2.02048,-6.55897 1.82337,-13.75714 -0.6018,-20.29964 z"
         style="fill:#000000;stroke:none;display:inline" />
      <path
         sodipodi:nodetypes="cccc"
         inkscape:connector-curvature="0"
         id="path7422-1-1"
         d="m 422.77898,188.85013 c 1.63304,-1.19362 3.39118,-2.54129 4.70555,-3.64547 1.9258,-0.96289 3.58958,-1.75525 5.21676,-2.6367 -2.48025,2.38382 -6.04867,4.76399 -9.92231,6.28217 z"
         style="fill:#000000;stroke:none;display:inline" />
      <path
         sodipodi:nodetypes="ccccc"
         inkscape:connector-curvature="0"
         id="path7424-0-2-5"
         d="m 387.29618,179.92881 c 1.5667,0.23882 3.46749,-0.026 4.6401,-0.98526 3.73888,2.82353 7.58212,4.85861 11.49982,6.33112 0.51478,1.71481 1.67613,4.17338 3.21746,5.39703 -8.17004,-1.15033 -15.15466,-5.70444 -19.35738,-10.74289 z"
         style="fill:#000000;stroke:none;display:inline" />
      <path
         sodipodi:nodetypes="ccccc"
         inkscape:connector-curvature="0"
         id="path7418-6-5-6"
         d="m 389.23878,137.06739 c 0.52781,0.02 1.07859,0.0646 1.60626,0.0897 3.61206,-2.84507 7.71457,-4.99947 11.20921,-6.60097 0.17528,-0.38979 0.39492,-0.89232 0.61235,-1.28698 -4.93021,1.34361 -9.87749,4.24277 -13.42782,7.79822 z"
         style="fill:#000000;stroke:none;display:inline" />
      <path
         transform="matrix(0.03974003,0,0,0.03974003,509.34687,179.23898)"
         d="m -1676,-495.63782 a 792,792 0 1 1 -1584,0 792,792 0 1 1 1584,0 z"
         sodipodi:ry="792"
         sodipodi:rx="792"
         sodipodi:cy="-495.63782"
         sodipodi:cx="-2468"
         id="path7378-09"
         style="fill:none;stroke:#000000;stroke-width:50.3270874"
         sodipodi:type="arc" />
      <path
         sodipodi:nodetypes="cccccc"
         inkscape:connector-curvature="0"
         id="path7380-4"
         d="m 389.41842,146.02429 c -3.1985,3.58168 -5.46172,8.77347 -5.77578,11.50754 1.56181,4.02305 3.66112,7.34744 6.31886,9.80488 2.57252,-1.89189 5.88454,-3.67592 9.26915,-5.25471 -0.37246,-4.39936 -0.31798,-8.87684 -0.31254,-13.35177 -2.62532,-1.0091 -6.56844,-2.03785 -9.49969,-2.70594 z"
         style="fill:#1a1a1a;stroke:#000000;stroke-width:1.99999988;stroke-linecap:butt;stroke-linejoin:miter;stroke-opacity:1" />
      <path
         sodipodi:nodetypes="cccccc"
         inkscape:connector-curvature="0"
         id="path7380-7-7"
         d="m 411.08161,141.55212 c 3.86215,1.43585 10.20046,5.09263 11.93048,6.19353 1.93878,-1.62052 5.60732,-3.91661 7.59507,-5.10655 -1.38719,-3.67675 -5.18765,-7.8117 -7.08936,-9.52302 -3.66545,-0.71371 -7.32616,-0.88992 -10.94977,-0.60179 -1.18523,2.5666 -1.52287,6.28271 -1.48642,9.03783 z"
         style="fill:#1a1a1a;stroke:#000000;stroke-width:1.99999988;stroke-linecap:butt;stroke-linejoin:miter;stroke-opacity:1;display:inline" />
      <path
         sodipodi:nodetypes="cccccc"
         inkscape:connector-curvature="0"
         id="path7380-7-2-8"
         d="m 425.5406,180.22702 c -3.46775,0.54326 -8.98383,0.29824 -12.3563,0.12258 -0.53117,-2.50624 -1.49066,-8.124 -1.7464,-11.67709 3.20726,-1.88604 9.38126,-5.44868 11.75266,-7.27741 2.25392,1.42433 6.66161,5.31773 8.1264,7.57785 -0.80751,3.45919 -3.22822,8.00076 -5.77636,11.25407 z"
         style="fill:#000000;stroke:#000000;stroke-width:1.99999988;stroke-linecap:butt;stroke-linejoin:miter;stroke-opacity:1;display:inline" />
      <path
         sodipodi:nodetypes="cccc"
         inkscape:connector-curvature="0"
         id="path7418-3"
         d="m 389.23083,137.0689 c 0.52782,0.02 1.08135,0.0683 1.60902,0.0934 3.61206,-2.84508 7.71457,-4.99948 11.20921,-6.60098 0.17528,-0.38979 0.4027,-0.90919 0.62014,-1.30385"
         style="fill:none;stroke:#000000;stroke-width:1.99999988;stroke-linecap:butt;stroke-linejoin:miter;stroke-opacity:1" />
      <path
         sodipodi:nodetypes="cccc"
         inkscape:connector-curvature="0"
         id="path7420-5"
         d="m 440.75464,148.51954 c -0.55361,0.46005 -1.26763,1.23468 -1.77648,1.86728 0.58284,4.0183 1.19965,8.2463 0.64968,12.65177 1.45449,1.66471 1.67522,4.2584 1.7286,5.7806"
         style="fill:none;stroke:#000000;stroke-width:1.99999988;stroke-linecap:butt;stroke-linejoin:miter;stroke-opacity:1" />
      <path
         sodipodi:nodetypes="ccc"
         inkscape:connector-curvature="0"
         id="path7422-12"
         d="m 422.77412,188.85463 c 1.63304,-1.19363 3.39118,-2.5413 4.70555,-3.64549 1.9258,-0.96289 3.58958,-1.75524 5.21676,-2.63669"
         style="fill:none;stroke:#000000;stroke-width:1.99999988;stroke-linecap:butt;stroke-linejoin:miter;stroke-opacity:1" />
      <path
         sodipodi:nodetypes="cccc"
         inkscape:connector-curvature="0"
         id="path7424-01"
         d="m 387.29991,179.93301 c 1.5667,0.23883 3.46749,-0.026 4.6401,-0.98526 3.73888,2.82353 7.58212,4.85861 11.49982,6.33113 0.51478,1.71481 1.67613,4.17338 3.21745,5.39703"
         style="fill:none;stroke:#000000;stroke-width:1.99999988;stroke-linecap:butt;stroke-linejoin:miter;stroke-opacity:1" />
      <path
         sodipodi:nodetypes="cc"
         inkscape:connector-curvature="0"
         id="path7426-6"
         d="m 391.92963,178.94775 c -1.34993,-3.21632 -2.13741,-7.87904 -1.98236,-11.61398"
         style="fill:none;stroke:#000000;stroke-width:1.99999988;stroke-linecap:butt;stroke-linejoin:miter;stroke-opacity:1" />
      <path
         sodipodi:nodetypes="cc"
         inkscape:connector-curvature="0"
         id="path7428-4"
         d="m 383.61613,157.52571 c -1.83729,0.71708 -3.00504,2.20416 -3.7364,4.19307"
         style="fill:none;stroke:#000000;stroke-width:1.99999988;stroke-linecap:butt;stroke-linejoin:miter;stroke-opacity:1" />
      <path
         sodipodi:nodetypes="cc"
         inkscape:connector-curvature="0"
         id="path7430-0-4"
         d="m 389.40756,146.00513 c -0.0548,-3.08152 0.39059,-6.038 1.44267,-8.84281"
         style="fill:none;stroke:#000000;stroke-width:1.99999988;stroke-linecap:butt;stroke-linejoin:miter;stroke-opacity:1" />
      <path
         sodipodi:nodetypes="cc"
         inkscape:connector-curvature="0"
         id="path7432-6"
         d="m 402.0283,130.57172 c 4.16099,-0.16279 7.85708,0.50301 10.5242,1.94085"
         style="fill:none;stroke:#000000;stroke-width:1.99999988;stroke-linecap:butt;stroke-linejoin:miter;stroke-opacity:1" />
      <path
         sodipodi:nodetypes="cc"
         inkscape:connector-curvature="0"
         id="path7434-1"
         d="m 423.51262,133.10417 c 0.40836,-0.63036 0.96724,-1.17842 1.671,-1.79036"
         style="fill:none;stroke:#000000;stroke-width:1.99999988;stroke-linecap:butt;stroke-linejoin:miter;stroke-opacity:1" />
      <path
         sodipodi:nodetypes="cc"
         inkscape:connector-curvature="0"
         id="path7436-8"
         d="m 430.60299,142.63735 c 3.83507,2.25088 6.53243,4.84614 8.37562,7.76098"
         style="fill:none;stroke:#000000;stroke-width:1.99999988;stroke-linecap:butt;stroke-linejoin:miter;stroke-opacity:1" />
      <path
         sodipodi:nodetypes="cc"
         inkscape:connector-curvature="0"
         id="path7438-9"
         d="m 439.62784,163.04377 c -2.29954,2.02937 -5.14859,4.35171 -8.31803,5.93347"
         style="fill:none;stroke:#000000;stroke-width:1.99999988;stroke-linecap:butt;stroke-linejoin:miter;stroke-opacity:1" />
      <path
         sodipodi:nodetypes="cc"
         inkscape:connector-curvature="0"
         id="path7440-8"
         d="m 427.47967,185.20485 c -0.43612,-1.79486 -1.22046,-3.48522 -1.96077,-4.99555"
         style="fill:none;stroke:#000000;stroke-width:1.99999988;stroke-linecap:butt;stroke-linejoin:miter;stroke-opacity:1" />
      <path
         sodipodi:nodetypes="cc"
         inkscape:connector-curvature="0"
         id="path7442-4"
         d="m 403.39831,185.25812 c 3.38928,-1.34582 6.86627,-3.07802 9.80732,-4.91719"
         style="fill:none;stroke:#000000;stroke-width:1.99999988;stroke-linecap:butt;stroke-linejoin:miter;stroke-opacity:1" />
      <path
         sodipodi:nodetypes="cc"
         inkscape:connector-curvature="0"
         id="path7444-1-8"
         d="m 411.43234,168.6733 c -4.55651,-1.76894 -8.82707,-4.24697 -12.23105,-6.62066"
         style="fill:none;stroke:#000000;stroke-width:1.99999988;stroke-linecap:butt;stroke-linejoin:miter;stroke-opacity:1" />
      <path
         sodipodi:nodetypes="cc"
         inkscape:connector-curvature="0"
         id="path7446-4"
         d="m 398.90773,148.73972 c 3.74815,-3.15802 8.07498,-5.70536 12.17412,-7.18954"
         style="fill:none;stroke:#000000;stroke-width:1.99999988;stroke-linecap:butt;stroke-linejoin:miter;stroke-opacity:1" />
      <path
         sodipodi:nodetypes="cc"
         inkscape:connector-curvature="0"
         id="path7448-3"
         d="m 423.18688,161.39821 c 0.51382,-4.60829 0.47137,-9.09658 -0.17191,-13.6497"
         style="fill:none;stroke:#000000;stroke-width:1.99999988;stroke-linecap:butt;stroke-linejoin:miter;stroke-opacity:1" />
      <path
         sodipodi:nodetypes="csssccssscc"
         inkscape:connector-curvature="0"
         id="path7378-5-9"
         d="m 410.85171,128.47064 c 16.9287,0 30.65214,13.72343 30.65214,30.65214 0,16.92871 -13.72344,30.65214 -30.65214,30.65214 -16.92871,0 -30.65214,-13.72343 -30.65214,-30.65214 0,-16.92871 13.72343,-30.65214 30.65214,-30.65214 l -4.12401,1.5322 c -13.26895,0 -24.02557,10.75662 -24.02557,24.02558 0,13.26896 10.75662,24.02558 24.02557,24.02558 13.26896,0 24.02558,-10.75662 24.02558,-24.02558 0,-13.26896 -10.75662,-24.02558 -24.02558,-24.02558 z"
         style="opacity:0.1;fill:#000000;stroke:none;display:inline" />
    </g>
  </g>
  <g
     inkscape:groupmode="layer"
     id="layer4"
     inkscape:label="吹き出し"
     sodipodi:insensitive="true">
    <g
       style="display:inline"
       transform="translate(43.35339,8.1404443)"
       id="g5232">
      <path
         sodipodi:nodetypes="cccccccccc"
         inkscape:connector-curvature="0"
         id="rect7294-8"
         d="m -22.316856,79.310613 c 24.8035962,4.4218 55.925502,15.536327 48.71317,32.358387 31.470312,-9.99204 82.180216,1.22805 114.368236,20.59859 -17.66821,-22.75261 25.25373,-37.014951 45.20604,-20.29339 -7.31301,-20.363431 34.648,-20.514876 67.52936,-13.597868 C 230.55975,85.100401 219.5497,47.83265 260.20733,33.787675 218.98042,37.737681 169.91729,37.563951 184.69062,10.745139 165.09005,26.43055 93.478049,27.186686 84.327353,4.8469915 78.171492,25.420914 59.274954,40.157457 6.1950988,24.703539 20.582704,37.73449 5.1890342,72.690936 -22.316856,79.310613 z"
         style="fill:#fefefe;fill-opacity:1;stroke:#000000;stroke-width:3;stroke-linecap:round;stroke-miterlimit:4;stroke-opacity:1;stroke-dashoffset:0;display:inline" />
      <text
         sodipodi:linespacing="125%"
         id="text11601-3"
         y="79.231888"
         x="19.482767"
         style="font-size:44.52351761px;font-style:normal;font-weight:normal;line-height:125%;letter-spacing:0px;word-spacing:0px;writing-mode:lr-tb;fill:#000000;fill-opacity:1;stroke:none;display:inline;font-family:Sans"
         xml:space="preserve"><tspan
           y="79.231888"
           x="19.482767"
           id="tspan11603-1"
           sodipodi:role="line">跳ね返す!!</tspan></text>
    </g>
  </g>
  <g
     inkscape:groupmode="layer"
     id="layer2"
     inkscape:label="枠面"
     sodipodi:insensitive="true">
    <path
       style="fill:#ffffff;stroke:none;display:inline"
       d="m 0,0 0,320 370,0 0,-320 -10,10 0,300 -350,0 0,-300 350,0 10,-10 z"
       id="path21072"
       inkscape:connector-curvature="0"
       sodipodi:nodetypes="ccccccccccc" />
  </g>
</svg>
