<?xml version="1.0" encoding="UTF-8" standalone="no"?>
<!-- Created with Inkscape (http://www.inkscape.org/) -->

<svg
   xmlns:dc="http://purl.org/dc/elements/1.1/"
   xmlns:cc="http://creativecommons.org/ns#"
   xmlns:rdf="http://www.w3.org/1999/02/22-rdf-syntax-ns#"
   xmlns:svg="http://www.w3.org/2000/svg"
   xmlns="http://www.w3.org/2000/svg"
   xmlns:sodipodi="http://sodipodi.sourceforge.net/DTD/sodipodi-0.dtd"
   xmlns:inkscape="http://www.inkscape.org/namespaces/inkscape"
   width="370"
   height="320"
   id="svg3172"
   version="1.1"
   inkscape:version="0.48.4 r9939"
   sodipodi:docname="[00.規格].svg">
  <defs
     id="defs3174" />
  <sodipodi:namedview
     id="base"
     pagecolor="#ffffff"
     bordercolor="#666666"
     borderopacity="1.0"
     inkscape:pageopacity="0.0"
     inkscape:pageshadow="2"
     inkscape:zoom="1.0003542"
     inkscape:cx="185.59002"
     inkscape:cy="212.81675"
     inkscape:document-units="px"
     inkscape:current-layer="layer2"
     showgrid="false"
     inkscape:window-width="1245"
     inkscape:window-height="698"
     inkscape:window-x="-5"
     inkscape:window-y="-5"
     inkscape:window-maximized="0" />
  <metadata
     id="metadata3177">
    <rdf:RDF>
      <cc:Work
         rdf:about="">
        <dc:format>image/svg+xml</dc:format>
        <dc:type
           rdf:resource="http://purl.org/dc/dcmitype/StillImage" />
        <dc:title></dc:title>
      </cc:Work>
    </rdf:RDF>
  </metadata>
  <g
     inkscape:label="補助線"
     inkscape:groupmode="layer"
     id="layer1"
     transform="translate(0,-732.36218)"
     sodipodi:insensitive="true"
     style="display:none">
    <path
       style="fill:none;stroke:#0000ff;stroke-width:1px;stroke-linecap:butt;stroke-linejoin:miter;stroke-opacity:1;display:inline"
       d="M 10,1042.3622 360,742.36211"
       id="path3025"
       inkscape:connector-curvature="0"
       sodipodi:nodetypes="cc" />
    <path
       style="fill:none;stroke:#0000ff;stroke-width:1px;stroke-linecap:butt;stroke-linejoin:miter;stroke-opacity:1;display:inline"
       d="M 10,742.36211 360,1042.3622"
       id="path3027"
       inkscape:connector-curvature="0"
       sodipodi:nodetypes="cc" />
    <path
       style="fill:none;stroke:#ff0000;stroke-width:1px;stroke-linecap:butt;stroke-linejoin:miter;stroke-opacity:1;display:inline"
       d="m 10,732.36211 0,320.00009"
       id="path3006"
       inkscape:connector-curvature="0"
       sodipodi:nodetypes="cc" />
    <path
       style="fill:none;stroke:#ff0000;stroke-width:1px;stroke-linecap:butt;stroke-linejoin:miter;stroke-opacity:1;display:inline"
       d="m 360,732.36211 0,320.00009"
       id="path3010"
       inkscape:connector-curvature="0"
       sodipodi:nodetypes="cc" />
    <path
       style="fill:none;stroke:#ff0000;stroke-width:1px;stroke-linecap:butt;stroke-linejoin:miter;stroke-opacity:1;display:inline"
       d="m 0,742.36208 370,3e-5"
       id="path3016"
       inkscape:connector-curvature="0" />
    <path
       style="fill:none;stroke:#ff0000;stroke-width:1px;stroke-linecap:butt;stroke-linejoin:miter;stroke-opacity:1;display:inline"
       d="m 0,1042.3622 370,0"
       id="path3018"
       inkscape:connector-curvature="0"
       sodipodi:nodetypes="cc" />
  </g>
  <g
     inkscape:groupmode="layer"
     id="layer4"
     inkscape:label="吹き出し"
     style="display:inline"
     sodipodi:insensitive="true">
    <path
       style="fill:#fefefe;fill-opacity:1;stroke:#000000;stroke-width:2;stroke-linecap:round;stroke-miterlimit:4;stroke-opacity:1;stroke-dashoffset:0;display:inline"
       d="m 13.513946,67.45246 c 8.931596,14.406643 9.276288,30.205639 -0.352761,38.36133 21.286685,-0.81187 34.447372,13.7037 37.253429,27.50447 C 65.389453,105.08404 107.30696,97.182483 121.96798,109.04896 118.66354,75.893546 139.85163,70.660545 174.11226,78.454257 168.3019,60.69979 169.50039,45.764075 198.2109,40.996756 181.32645,41.582241 169.8572,31.920665 180.47622,14.500532 163.05819,26.822064 134.05286,28.794401 128.62692,12.830095 117.30028,38.350269 105.2475,39.056595 89.002735,25.834762 86.194245,53.912045 60.093408,43.606902 43.895872,32.247258 52.3488,53.985531 34.913408,68.351085 13.513946,67.45246 z"
       id="rect7294"
       inkscape:connector-curvature="0"
       sodipodi:nodetypes="ccccccccccc" />
    <text
       xml:space="preserve"
       style="font-size:23.86717987px;font-style:normal;font-weight:normal;line-height:125%;letter-spacing:0px;word-spacing:0px;writing-mode:lr-tb;fill:#000000;fill-opacity:1;stroke:none;display:inline;font-family:Sans"
       x="-16.573639"
       y="91.399918"
       id="text11601"
       sodipodi:linespacing="125%"
       transform="matrix(0.88868759,-0.45851321,0.45851321,0.88868759,0,0)"><tspan
         style="font-size:17.9003849px"
         sodipodi:role="line"
         id="tspan11603"
         x="-16.573639"
         y="91.399918">ナイス</tspan><tspan
         style="font-size:17.9003849px"
         id="tspan6443"
         sodipodi:role="line"
         x="-16.573639"
         y="113.7754">コンビネーション!!</tspan></text>
  </g>
  <g
     inkscape:groupmode="layer"
     id="layer3"
     inkscape:label="豚01"
     style="display:inline"
     sodipodi:insensitive="true">
    <g
       transform="matrix(1.1554417,0,0,1.1554417,82.337143,-194.55933)"
       style="stroke-width:1.73093975;display:inline"
       id="g6164">
      <path
         sodipodi:nodetypes="csccccc"
         inkscape:connector-curvature="0"
         id="path5109-2-7-9-5-0-2"
         d="m 120.0599,288.75875 c 1.30083,0.003 2.65826,2.05582 3.91814,1.35491 3.86305,-2.14916 4.30047,-23.07049 -4.17487,-34.36433 l -73.049694,0.72495 49.38523,47.40571 17.048534,-20.76771 z"
         style="fill:#ffd5d5;stroke:none;display:inline" />
      <path
         sodipodi:nodetypes="scccs"
         inkscape:connector-curvature="0"
         id="path5109-2-7-9-5-0-7"
         d="m 123.92707,290.33334 c -1.296,0.63164 -2.61731,-1.35191 -3.91814,-1.35491 l 0.16423,-5.9704 c 1.33598,-0.1877 4.67733,0.0127 5.92195,0.50012 0,0 -0.12011,5.82708 -2.16804,6.82519 z"
         style="fill:#ffaaaa;stroke:none;display:inline" />
      <path
         sodipodi:nodetypes="csc"
         inkscape:connector-curvature="0"
         id="path5109-2-7-9-5-0"
         d="m 119.90012,288.9196 c 1.30083,0.003 2.65826,2.05582 3.91814,1.35491 3.86305,-2.14916 4.30047,-23.07049 -4.17487,-34.36433"
         style="fill:none;stroke:#000000;stroke-width:1.73093975;stroke-linecap:butt;stroke-linejoin:miter;stroke-opacity:1;display:inline" />
      <path
         inkscape:connector-curvature="0"
         id="path5111-7-6-0-2-2"
         d="m 120.06435,282.9492 c 1.33598,-0.1877 4.67733,0.0127 5.92195,0.50012"
         style="fill:none;stroke:#000000;stroke-width:1.73093975;stroke-linecap:butt;stroke-linejoin:miter;stroke-opacity:1;display:inline" />
      <path
         sodipodi:nodetypes="csc"
         inkscape:connector-curvature="0"
         id="path3570-7-2"
         d="m 88.997089,309.80827 c 1.961441,1.60638 2.075681,6.99561 5.001827,7.64187 8.180644,1.80674 31.511664,-19.03254 25.861354,-46.80796"
         style="fill:#ffd5d5;stroke:#000000;stroke-width:1.73093975;stroke-linecap:butt;stroke-linejoin:miter;stroke-opacity:1;display:inline" />
      <path
         inkscape:connector-curvature="0"
         id="path3396"
         d="m 40.057464,268.10734 c -11.597218,11.25053 -4.979639,16.39787 5.675129,20.19248"
         style="fill:#ffd5d5;stroke:#000000;stroke-width:1.73093975;stroke-linecap:butt;stroke-linejoin:miter;stroke-opacity:1" />
      <path
         sodipodi:nodetypes="cc"
         inkscape:connector-curvature="0"
         id="path5091-2-4-0-7"
         d="m 104.5415,220.67153 c 11.51435,1.04799 16.85993,16.94171 13.36157,24.84016"
         style="fill:#ffd5d5;stroke:#000000;stroke-width:1.73093975;stroke-linecap:butt;stroke-linejoin:miter;stroke-opacity:1;display:inline" />
      <path
         sodipodi:nodetypes="cscccc"
         inkscape:connector-curvature="0"
         id="path3536-4-7-1"
         d="m 46.202551,256.53308 c -6.64796,-10.95564 2.54545,-21.97193 7.72073,-28.55574 15.91875,-20.25129 44.63504,-18.96212 56.406829,-1.02923 l 5.54402,12.62461 c 4.53299,5.48903 6.1806,17.7389 -0.0408,24.92352 z"
         style="fill:#ffd5d5;stroke:none;display:inline" />
      <path
         sodipodi:nodetypes="csc"
         inkscape:connector-curvature="0"
         id="path3911-1-4"
         d="m 44.287501,251.40558 c -5.057366,7.60936 -9.926925,18.62765 -4.645785,32.9536 8.054435,21.84896 38.082702,33.47521 62.413864,20.97062"
         style="fill:#ffd5d5;stroke:#000000;stroke-width:1.73093975;stroke-linecap:butt;stroke-linejoin:miter;stroke-opacity:1;display:inline" />
      <path
         sodipodi:nodetypes="csc"
         inkscape:connector-curvature="0"
         id="path3536-4-7"
         d="m 110.20695,227.16132 c -11.771789,-17.93289 -40.488074,-19.22206 -56.406828,1.02923 -5.175283,6.58381 -14.368692,17.6001 -7.720734,28.55574"
         style="fill:none;stroke:#000000;stroke-width:1.73093975;stroke-linecap:butt;stroke-linejoin:miter;stroke-opacity:1;display:inline" />
      <path
         sodipodi:nodetypes="cc"
         inkscape:connector-curvature="0"
         id="path5093-4-2-9-9"
         d="m 115.75097,239.78593 c 4.53299,5.48903 6.1806,17.7389 -0.0408,24.92352"
         style="fill:none;stroke:#000000;stroke-width:1.73093975;stroke-linecap:butt;stroke-linejoin:miter;stroke-opacity:1;display:inline" />
      <path
         sodipodi:nodetypes="cc"
         inkscape:connector-curvature="0"
         id="path5095-5-3-4-3"
         d="m 102.87163,240.89601 c -0.6413,1.2116 -1.40569,3.72342 -1.80642,5.11413"
         style="fill:none;stroke:#000000;stroke-width:1.73093975;stroke-linecap:butt;stroke-linejoin:miter;stroke-opacity:1;display:inline" />
      <path
         sodipodi:nodetypes="cc"
         inkscape:connector-curvature="0"
         id="path5097-5-2-8-1"
         d="m 87.274754,243.49662 c 1.488405,1.33128 3.201811,3.15523 4.475071,4.63179"
         style="fill:none;stroke:#000000;stroke-width:1.73093975;stroke-linecap:butt;stroke-linejoin:miter;stroke-opacity:1;display:inline" />
      <path
         sodipodi:nodetypes="csc"
         inkscape:connector-curvature="0"
         id="path5099-1-2-8-9"
         d="m 61.08512,223.94808 c -19.37691,4.03208 -19.744971,27.6669 -11.183266,31.8871 3.669282,1.80865 6.967605,-5.7896 12.261218,-9.11951"
         style="fill:#ffd5d5;stroke:#000000;stroke-width:1.73093975;stroke-linecap:butt;stroke-linejoin:miter;stroke-opacity:1;display:inline" />
      <path
         sodipodi:nodetypes="ssssss"
         inkscape:connector-curvature="0"
         id="path5101-7-1-2-8"
         d="m 98.737966,247.45315 c -4.161444,0.53021 -9.87608,3.79119 -13.725855,8.95379 -4.721075,6.33103 -1.901741,11.02647 3.86527,8.97224 4.917663,-1.75169 10.732804,-3.49087 15.678329,-3.10688 4.6191,0.35865 6.16923,-3.746 4.36077,-8.16548 -1.33326,-3.25818 -4.87878,-7.32891 -10.178514,-6.65367 z"
         style="fill:#ffaaaa;stroke:#000000;stroke-width:1.73093975;stroke-linecap:butt;stroke-linejoin:miter;stroke-opacity:1;display:inline" />
      <path
         sodipodi:nodetypes="sss"
         inkscape:connector-curvature="0"
         id="path5105-1-6-4-6"
         d="m 91.240616,260.2414 c 1.224534,0.47941 3.904283,-6.12366 2.95904,-6.42506 -1.138484,-0.36302 -4.764958,5.71803 -2.95904,6.42506 z"
         style="fill:#000000;stroke:#000000;stroke-width:1.73093975;display:inline" />
      <path
         sodipodi:nodetypes="sss"
         inkscape:connector-curvature="0"
         id="path5107-1-8-55-5"
         d="m 100.55804,252.58847 c -0.788684,0.0796 -0.49846,6.24006 0.8795,6.12309 1.88591,-0.15995 0.26239,-6.2383 -0.8795,-6.12309 z"
         style="fill:#000000;stroke:#000000;stroke-width:1.73093975;display:inline" />
      <path
         sodipodi:nodetypes="sssccs"
         inkscape:connector-curvature="0"
         id="path5109-2-7-7-2-3"
         d="m 84.105307,298.44635 c -0.529781,0.80445 -3.339,0.41363 -3.87896,0.96578 -0.44295,0.45295 -1.319559,3.45906 -2.39262,3.64477 -2.538895,0.43939 -6.0997,-2.79736 -6.0997,-2.79736 -3.48807,-3.52255 10.82348,-12.66018 13.13634,-8.62445 0,0 0.402389,5.03854 -0.76506,6.81126 z"
         style="fill:#ffaaaa;stroke:none;display:inline" />
      <path
         sodipodi:nodetypes="cc"
         inkscape:connector-curvature="0"
         id="path5111-7-6-1-8"
         d="m 71.625218,300.20071 c -3.488069,-3.52255 10.823484,-12.66018 13.136343,-8.62445"
         style="fill:none;stroke:#000000;stroke-width:1.73093975;stroke-linecap:butt;stroke-linejoin:miter;stroke-opacity:1;display:inline" />
      <path
         sodipodi:nodetypes="csssc"
         inkscape:connector-curvature="0"
         id="path5109-2-7-7-2"
         d="m 56.009296,275.06384 c 2.230053,15.34043 16.86019,28.24842 21.715627,27.93423 1.086736,-0.0703 1.949666,-3.19182 2.392612,-3.64477 0.539963,-0.55215 3.349185,-0.16133 3.878963,-0.96578 1.167452,-1.77272 0.887177,-14.73598 0.122177,-21.37636"
         style="fill:none;stroke:#000000;stroke-width:1.73093975;stroke-linecap:butt;stroke-linejoin:miter;stroke-opacity:1;display:inline" />
    </g>
    <g
       style="stroke-width:1.73093975;display:inline"
       id="g6282"
       transform="matrix(1.1554417,0,0,1.1554417,44.973697,-241.84744)">
      <path
         sodipodi:nodetypes="csssccc"
         id="path3327-4-4-6"
         d="m 53.469626,381.4451 c 2.396388,-10.3618 7.622405,-22.09262 6.398342,-23.71207 -0.623438,-0.82482 -2.122505,-0.61364 -2.913499,-1.98145 -0.569854,-0.9854 -0.4802,-3.03428 -1.72983,-3.35405 -2.562336,-0.65567 -5.49306,1.7076 -6.899555,3.49223 L 1.2336175,376.74768 z"
         style="fill:#ffd5d5;stroke:none;display:inline"
         inkscape:connector-curvature="0" />
      <path
         id="path6235"
         d="m -13.268589,374.27054 c -6.021921,5.87641 -14.984711,28.69791 -12.769539,36.24261 0.723765,2.46509 8.689146,2.59917 13.572203,-0.8355 18.5704566,11.05062 17.5211133,8.91724 30.297743,12.36395 1.31223,1.97838 1.709866,6.38383 5.461268,6.69799 9.725858,0.81447 32.174363,-17.84211 30.607214,-48.33135"
         style="fill:#ffd5d5;stroke:#000000;stroke-width:1.73093975;stroke-linecap:butt;stroke-linejoin:miter;stroke-opacity:1;display:inline"
         inkscape:connector-curvature="0" />
      <path
         sodipodi:nodetypes="cssscc"
         id="path5111-7-1-7-7-7-0-7-1"
         d="m 58.455751,365.59194 c 0,0 2.677108,-6.09972 1.453046,-7.71917 -0.623439,-0.82482 -2.122505,-0.61364 -2.913499,-1.98145 -0.569854,-0.9854 -0.4802,-3.03428 -1.72983,-3.35405 -2.562336,-0.65567 -5.49306,1.7076 -6.273488,2.84458 -2.798764,1.6612 5.273952,13.33976 9.463771,10.21009 z"
         style="fill:#ffaaaa;stroke:none;display:inline"
         inkscape:connector-curvature="0" />
      <path
         id="path3327-4-4"
         d="m 53.54613,381.64784 c 2.396388,-10.3618 7.622405,-22.09262 6.398342,-23.71207 -0.623438,-0.82482 -2.122505,-0.61364 -2.913499,-1.98145 -0.569854,-0.9854 -0.4802,-3.03428 -1.72983,-3.35405 -2.562336,-0.65567 -5.49306,1.7076 -6.899555,3.49223"
         style="fill:none;stroke:#000000;stroke-width:1.73093975;stroke-linecap:butt;stroke-linejoin:miter;stroke-opacity:1;display:inline"
         inkscape:connector-curvature="0" />
      <path
         id="path5111-7-1-7-7-7-0-7"
         d="m 49.653722,354.79721 c -3.424831,2.30884 4.647885,13.9874 8.837704,10.85773"
         style="fill:none;stroke:#000000;stroke-width:1.73093975;stroke-linecap:butt;stroke-linejoin:miter;stroke-opacity:1;display:inline"
         inkscape:connector-curvature="0" />
      <path
         id="path5091-2-40-9-2-7"
         d="m 33.342147,337.57968 c 8.662253,0.0594 14.604232,7.06312 14.928341,17.88227"
         style="fill:#ffd5d5;stroke:#000000;stroke-width:1.73093975;stroke-linecap:butt;stroke-linejoin:miter;stroke-opacity:1;display:inline"
         inkscape:connector-curvature="0" />
      <path
         id="path5093-4-9-4-4-11-7"
         d="m 47.052368,373.10534 c 4.779159,-5.50187 4.261083,-15.1592 -1.886917,-22.50525 l -4.474885,-6.94236 c -16.399386,-17.80744 -37.6584447,-8.83867 -46.5271167,4.74432 -6.6592533,10.19911 -9.6930233,22.86236 -5.9836023,28.93891 z"
         style="fill:#ffd5d5;stroke:none;display:inline"
         inkscape:connector-curvature="0" />
      <path
         sodipodi:nodetypes="ccsssc"
         id="path5111-7-1-7-7-7-0-9"
         d="m 5.4175667,360.67427 c -3.424831,2.30884 4.9603853,14.76145 9.5448113,10.27823 0,0 2.157501,-6.39522 0.933439,-8.01467 -0.623439,-0.82482 -2.122505,0.26136 -2.913499,-1.10645 -0.569854,-0.9854 -1.010529,-3.0254 -2.26016,-3.34517 -2.5623353,-0.65567 -5.3045913,2.18806 -5.3045913,2.18806 z"
         style="fill:#ffaaaa;stroke:none;display:inline"
         inkscape:connector-curvature="0" />
      <path
         id="path5111-7-1-7-7-7-0"
         d="m 5.453242,360.73727 c -3.424831,2.30884 4.960385,14.76145 9.544811,10.27823"
         style="fill:none;stroke:#000000;stroke-width:1.73093975;stroke-linecap:butt;stroke-linejoin:miter;stroke-opacity:1;display:inline"
         inkscape:connector-curvature="0" />
      <path
         id="path4041-2"
         d="m 40.666932,343.93125 c -16.399386,-17.80744 -37.6584446,-8.83867 -46.5271163,4.74432 -6.6592527,10.19911 -9.6930227,22.86236 -5.9836017,28.93891"
         style="fill:none;stroke:#000000;stroke-width:1.73093975;stroke-linecap:butt;stroke-linejoin:miter;stroke-opacity:1;display:inline"
         inkscape:connector-curvature="0" />
      <path
         id="path5089-8-7-0-8-2-1"
         d="m 10.792388,383.84754 c 2.99132,-7.21519 6.363167,-19.22726 5.139104,-20.84671 -0.623438,-0.82482 -2.122505,0.26136 -2.913499,-1.10645 -0.569854,-0.9854 -1.01053,-3.0254 -2.26016,-3.34517 -2.562336,-0.65567 -12.219458,6.47689 -14.500953,10.38652"
         style="fill:none;stroke:#000000;stroke-width:1.73093975;stroke-linecap:butt;stroke-linejoin:miter;stroke-opacity:1;display:inline"
         inkscape:connector-curvature="0" />
      <path
         id="path5093-4-9-4-4-11"
         d="m 45.141817,350.87361 c 6.148,7.34605 6.666076,17.00338 1.886917,22.50525"
         style="fill:none;stroke:#000000;stroke-width:1.73093975;stroke-linecap:butt;stroke-linejoin:miter;stroke-opacity:1;display:inline"
         inkscape:connector-curvature="0" />
      <path
         id="path5095-5-4-8-5-5"
         d="m 34.194804,348.14766 c -0.296632,0.78973 -0.292356,3.1645 -0.491435,4.49576"
         style="fill:none;stroke:#000000;stroke-width:1.73093975;stroke-linecap:butt;stroke-linejoin:miter;stroke-opacity:1;display:inline"
         inkscape:connector-curvature="0" />
      <path
         id="path5097-5-8-8-5-2"
         d="m 22.226198,350.83789 c 0.80711,0.929 3.155326,3.14368 3.955358,4.33033"
         style="fill:none;stroke:#000000;stroke-width:1.73093975;stroke-linecap:butt;stroke-linejoin:miter;stroke-opacity:1;display:inline"
         inkscape:connector-curvature="0" />
      <path
         id="path5099-1-8-2-7-7"
         d="m 2.3112642,342.35833 c -16.8025582,3.25985 -14.4647742,25.49688 -9.8249542,26.27241 3.9410279,0.65875 6.71236429,-9.95817 11.3818026,-13.1648"
         style="fill:#ffd5d5;stroke:#000000;stroke-width:1.73093975;stroke-linecap:butt;stroke-linejoin:miter;stroke-opacity:1;display:inline"
         inkscape:connector-curvature="0" />
      <path
         id="path5101-7-2-4-1-6"
         d="m 32.056581,353.52874 c -3.733369,0.66754 -7.342216,4.91845 -9.463996,8.71836 -2.863665,5.12857 0.704935,10.43059 4.879631,8.37407 4.467197,-2.2006 9.034429,-2.99892 12.32323,-3.11435 3.743094,-0.13137 3.864903,-5.94295 1.944862,-9.00762 -2.904362,-4.63579 -6.174997,-5.59783 -9.683727,-4.97046 z"
         style="fill:#ffaaaa;stroke:#000000;stroke-width:1.73093975;stroke-linecap:butt;stroke-linejoin:miter;stroke-opacity:1;display:inline"
         inkscape:connector-curvature="0" />
      <path
         id="path5105-1-4-55-1-28-14"
         d="m 27.889744,366.29347 c 1.916379,0.31893 3.914953,-8.20195 2.970942,-8.37501 -1.137049,-0.20844 -4.822819,8.06682 -2.970942,8.37501 z"
         style="fill:#000000;stroke:#000000;stroke-width:1.73093975;display:inline"
         inkscape:connector-curvature="0" />
      <path
         id="path5107-1-5-1-5-2"
         d="m 35.68275,357.45586 c -0.960891,0.62059 0.01552,8.04877 1.239644,7.53879 1.749813,-0.72899 -0.153003,-8.24058 -1.239644,-7.53879 z"
         style="fill:#000000;stroke:#000000;stroke-width:1.73093975;display:inline"
         inkscape:connector-curvature="0" />
    </g>
  </g>
  <g
     inkscape:groupmode="layer"
     id="layer7"
     inkscape:label="ネット"
     style="display:inline"
     sodipodi:insensitive="true">
    <g
       id="g6414">
      <path
         sodipodi:nodetypes="cc"
         inkscape:connector-curvature="0"
         id="path4273"
         d="M -2.4581829,230.29248 C 119.35537,225.74332 240.37106,219.21924 359.99046,209.23908"
         style="fill:none;stroke:#373748;stroke-width:2;stroke-linecap:butt;stroke-linejoin:miter;stroke-opacity:1" />
      <path
         sodipodi:nodetypes="cc"
         inkscape:connector-curvature="0"
         id="path4273-1"
         d="M -2.4581783,247.01136 C 120.00895,242.71628 240.82212,235.69346 359.99046,225.95796"
         style="fill:none;stroke:#373748;stroke-width:2;stroke-linecap:butt;stroke-linejoin:miter;stroke-opacity:1;display:inline" />
      <path
         sodipodi:nodetypes="cc"
         inkscape:connector-curvature="0"
         id="path4273-7"
         d="M -1.2197435,263.93663 C 120.76403,259.83772 241.44507,252.48197 361.2289,242.88323"
         style="fill:none;stroke:#373748;stroke-width:2;stroke-linecap:butt;stroke-linejoin:miter;stroke-opacity:1;display:inline" />
      <path
         sodipodi:nodetypes="cc"
         inkscape:connector-curvature="0"
         id="path4273-4"
         d="M 4.5596199,280.8619 C 125.37583,277.05253 246.19205,269.08675 367.00825,259.8085"
         style="fill:none;stroke:#373748;stroke-width:2;stroke-linecap:butt;stroke-linejoin:miter;stroke-opacity:1;display:inline" />
      <path
         sodipodi:nodetypes="cc"
         inkscape:connector-curvature="0"
         id="path4273-0"
         d="M 1.1720784,298.19999 C 126.4881,293.11069 245.95981,285.51666 363.62072,277.1466"
         style="fill:none;stroke:#373748;stroke-width:2;stroke-linecap:butt;stroke-linejoin:miter;stroke-opacity:1;display:inline" />
      <path
         inkscape:connector-curvature="0"
         id="path4314"
         d="M 5.3852373,208.82628 4.1468025,312.442"
         style="fill:none;stroke:#373748;stroke-width:2;stroke-linecap:butt;stroke-linejoin:miter;stroke-opacity:1" />
      <path
         inkscape:connector-curvature="0"
         id="path4314-5"
         d="M 42.797386,210.24921 41.559413,336.65158"
         style="fill:none;stroke:#373748;stroke-width:2;stroke-linecap:butt;stroke-linejoin:miter;stroke-opacity:1;display:inline" />
      <path
         inkscape:connector-curvature="0"
         id="path4314-1"
         d="M 23.815143,207.26535 22.577172,333.66773"
         style="fill:none;stroke:#373748;stroke-width:2;stroke-linecap:butt;stroke-linejoin:miter;stroke-opacity:1;display:inline" />
      <path
         inkscape:connector-curvature="0"
         id="path4314-7"
         d="M 61.676461,204.87327 60.438489,331.27565"
         style="fill:none;stroke:#373748;stroke-width:2;stroke-linecap:butt;stroke-linejoin:miter;stroke-opacity:1;display:inline" />
      <path
         inkscape:connector-curvature="0"
         id="path4314-5-1"
         d="M 99.021956,207.60532 97.783984,334.00771"
         style="fill:none;stroke:#373748;stroke-width:2;stroke-linecap:butt;stroke-linejoin:miter;stroke-opacity:1;display:inline" />
      <path
         inkscape:connector-curvature="0"
         id="path4314-1-1"
         d="M 80.039715,204.62147 78.801743,331.02385"
         style="fill:none;stroke:#373748;stroke-width:2;stroke-linecap:butt;stroke-linejoin:miter;stroke-opacity:1;display:inline" />
      <path
         inkscape:connector-curvature="0"
         id="path4314-52"
         d="m 118.15894,203.17363 -1.23797,126.40239"
         style="fill:none;stroke:#373748;stroke-width:2;stroke-linecap:butt;stroke-linejoin:miter;stroke-opacity:1;display:inline" />
      <path
         inkscape:connector-curvature="0"
         id="path4314-5-7"
         d="m 155.50444,205.90569 -1.23798,126.40239"
         style="fill:none;stroke:#373748;stroke-width:2;stroke-linecap:butt;stroke-linejoin:miter;stroke-opacity:1;display:inline" />
      <path
         inkscape:connector-curvature="0"
         id="path4314-1-6"
         d="m 136.5222,202.92183 -1.23798,126.40239"
         style="fill:none;stroke:#373748;stroke-width:2;stroke-linecap:butt;stroke-linejoin:miter;stroke-opacity:1;display:inline" />
      <path
         inkscape:connector-curvature="0"
         id="path4314-7-1"
         d="m 174.38352,203.5287 -1.23797,126.40237"
         style="fill:none;stroke:#373748;stroke-width:2;stroke-linecap:butt;stroke-linejoin:miter;stroke-opacity:1;display:inline" />
      <path
         inkscape:connector-curvature="0"
         id="path4314-5-1-4"
         d="m 211.72901,203.26181 -1.23797,126.40238"
         style="fill:none;stroke:#373748;stroke-width:2;stroke-linecap:butt;stroke-linejoin:miter;stroke-opacity:1;display:inline" />
      <path
         inkscape:connector-curvature="0"
         id="path4314-1-1-2"
         d="m 192.74677,203.27689 -1.23798,126.40239"
         style="fill:none;stroke:#373748;stroke-width:2;stroke-linecap:butt;stroke-linejoin:miter;stroke-opacity:1;display:inline" />
      <path
         inkscape:connector-curvature="0"
         id="path4314-3"
         d="M 231.62219,201.25011 230.38422,327.6525"
         style="fill:none;stroke:#373748;stroke-width:2;stroke-linecap:butt;stroke-linejoin:miter;stroke-opacity:1;display:inline" />
      <path
         inkscape:connector-curvature="0"
         id="path4314-5-2"
         d="m 268.96769,198.98394 -1.23798,126.40239"
         style="fill:none;stroke:#373748;stroke-width:2;stroke-linecap:butt;stroke-linejoin:miter;stroke-opacity:1;display:inline" />
      <path
         inkscape:connector-curvature="0"
         id="path4314-1-2"
         d="M 249.98544,200.99831 248.74748,327.4007"
         style="fill:none;stroke:#373748;stroke-width:2;stroke-linecap:butt;stroke-linejoin:miter;stroke-opacity:1;display:inline" />
      <path
         inkscape:connector-curvature="0"
         id="path4314-7-16"
         d="m 287.84677,198.60624 -1.23798,126.40239"
         style="fill:none;stroke:#373748;stroke-width:2;stroke-linecap:butt;stroke-linejoin:miter;stroke-opacity:1;display:inline" />
      <path
         inkscape:connector-curvature="0"
         id="path4314-5-1-8"
         d="m 325.19226,194.91568 -1.23798,126.40239"
         style="fill:none;stroke:#373748;stroke-width:2;stroke-linecap:butt;stroke-linejoin:miter;stroke-opacity:1;display:inline" />
      <path
         inkscape:connector-curvature="0"
         id="path4314-1-1-5"
         d="m 305.62643,190.50745 -1.23797,126.40238"
         style="fill:none;stroke:#373748;stroke-width:2;stroke-linecap:butt;stroke-linejoin:miter;stroke-opacity:1;display:inline" />
      <path
         inkscape:connector-curvature="0"
         id="path4314-5-1-8-7"
         d="m 344.936,192.38539 -1.23798,126.40238"
         style="fill:none;stroke:#373748;stroke-width:2;stroke-linecap:butt;stroke-linejoin:miter;stroke-opacity:1;display:inline" />
      <path
         sodipodi:nodetypes="ccccc"
         inkscape:connector-curvature="0"
         id="path4271"
         d="M -2.8709945,195.6163 C 118.49563,194.77089 239.86226,188.87578 361.22889,180.34227 l -0.41281,12.79716 c -116.00375,8.50939 -241.23037,15.34713 -362.8614513,16.92528 z"
         style="fill:#e3dbdb;stroke:#000000;stroke-width:2;stroke-linecap:butt;stroke-linejoin:miter;stroke-opacity:1" />
      <path
         sodipodi:nodetypes="cc"
         inkscape:connector-curvature="0"
         id="path4273-0-9"
         d="M 8.2085742,314.03253 C 133.5246,308.94323 252.99631,301.3492 370.65722,292.97914"
         style="fill:none;stroke:#373748;stroke-width:2;stroke-linecap:butt;stroke-linejoin:miter;stroke-opacity:1;display:inline" />
      <path
         sodipodi:nodetypes="cc"
         inkscape:connector-curvature="0"
         id="path4273-0-9-8"
         d="M 8.7083959,329.02723 C 134.02443,323.93793 253.49614,316.3439 371.15705,307.97384"
         style="fill:none;stroke:#373748;stroke-width:2;stroke-linecap:butt;stroke-linejoin:miter;stroke-opacity:1;display:inline" />
    </g>
  </g>
  <g
     inkscape:groupmode="layer"
     id="layer6"
     inkscape:label="ボール"
     style="display:inline"
     sodipodi:insensitive="true">
    <g
       id="g6230">
      <path
         transform="matrix(0.68934912,0,0,0.69513242,363.87982,99.15295)"
         d="m -197.66371,199.20552 a 46.365559,46.365559 0 1 1 -92.73111,0 46.365559,46.365559 0 1 1 92.73111,0 z"
         sodipodi:ry="46.365559"
         sodipodi:rx="46.365559"
         sodipodi:cy="199.20552"
         sodipodi:cx="-244.02927"
         id="path5220-1-1-9"
         style="fill:#fefefe;fill-opacity:1;stroke:none;display:inline"
         sodipodi:type="arc" />
      <path
         sodipodi:nodetypes="ccccccccccc"
         inkscape:connector-curvature="0"
         id="path6196-3-2"
         d="m 224.15504,227.98609 c 0.10069,-3.68712 -2.14616,-8.74468 -3.92267,-10.95643 -2.4596,-3.0296 -5.59776,-5.89212 -8.60281,-7.29187 4.80623,4.1294 5.81457,12.38659 5.35646,18.49177 -2.79534,-0.30988 -6.33805,-0.68255 -9.64109,-1.55988 -1.13179,-6.2132 -5.91324,-21.7941 -15.68041,-21.0093 -3.26232,0.0139 -6.37277,1.31881 -9.47074,2.72965 7.23598,-1.68566 8.89068,8.72801 9.40079,13.3971 -4.45498,2.30255 -9.21641,7.69242 -11.41632,13.05919 17.07274,2.95499 38.20415,5.98337 47.18256,6.59723 0.15979,-5.34216 -0.8728,-10.87734 -3.20577,-13.45746 z"
         style="fill:none;stroke:none;display:inline" />
      <path
         sodipodi:nodetypes="ccccccccc"
         inkscape:connector-curvature="0"
         id="path6208-7-7"
         d="m 200.53199,269.48484 c 2.88011,-0.83209 5.12904,-3.04086 6.1581,-5.5493 -3.01259,0.3484 -7.12279,0.0199 -9.93962,-0.21258 -2.89747,2.86997 -7.68094,4.27551 -13.36414,3.6792 -3.48203,-1.28585 -6.70093,-3.73605 -8.75248,-5.38156 2.25078,0.17414 4.81082,-0.65491 6.96306,-2.14248 -3.38716,-4.73609 -4.48869,-9.82931 -4.0957,-15.15605 3.73669,5.39854 38.68754,19.00483 47.27605,6.17782 -4.18796,9.57553 -12.96946,16.6747 -24.24527,18.58495 z"
         style="fill:none;stroke:none;display:inline" />
      <path
         sodipodi:nodetypes="ccccc"
         inkscape:connector-curvature="0"
         id="path6210-5-9"
         d="m 200.34429,269.58265 c 2.88011,-0.83209 5.12903,-3.04086 6.15809,-5.54931 -2.85676,0.17403 -6.25694,0.0166 -9.93962,-0.21257 -2.89746,2.86997 -7.68093,4.27551 -13.36413,3.67919 4.98052,2.11981 12.19735,2.98642 17.14566,2.08269 z"
         style="fill:none;stroke:none;display:inline" />
      <path
         sodipodi:nodetypes="cccccc"
         inkscape:connector-curvature="0"
         id="path6212-7-5"
         d="m 176.05821,262.06711 c -15.77408,-17.45201 -4.31301,-40.6682 11.64271,-51.79104 -0.69806,-1.26443 -2.43939,-2.1 -3.31907,-2.16047 -11.28386,4.79294 -17.74288,14.99055 -19.90755,22.17999 -2.43026,9.31165 -0.14403,22.10753 10.20512,31.80611 z"
         style="fill:none;stroke:none;display:inline" />
      <path
         sodipodi:nodetypes="ccccc"
         inkscape:connector-curvature="0"
         id="path6202-1-4"
         d="m 217.00672,228.14956 c 0.45811,-6.10519 -0.55024,-14.36237 -5.35647,-18.49177 -6.43114,-3.82176 -13.19421,-4.87916 -19.96504,-4.07742 9.76717,-0.78479 14.54862,14.7961 15.68041,21.0093 2.90663,0.735 6.94667,1.19867 9.6411,1.55989 z"
         style="fill:none;stroke:none;display:inline" />
      <path
         sodipodi:nodetypes="ccccc"
         inkscape:connector-curvature="0"
         id="path6218-3"
         d="m 180.17603,234.78158 c -1.41682,2.96137 -2.54478,6.13939 -2.63389,10.09654 5.15279,6.26554 38.77658,18.2441 47.06494,6.20844 1.45676,-3.10282 2.57627,-6.80585 2.66524,-9.8457 -13.9858,-1.32041 -31.27865,-3.562 -47.09629,-6.45928 z"
         style="fill:none;stroke:none;display:inline" />
      <path
         transform="matrix(0.68934912,0,0,0.69513242,363.81645,99.15295)"
         d="m -197.66371,199.20552 a 46.365559,46.365559 0 1 1 -92.73111,0 46.365559,46.365559 0 1 1 92.73111,0 z"
         sodipodi:ry="46.365559"
         sodipodi:rx="46.365559"
         sodipodi:cy="199.20552"
         sodipodi:cx="-244.02927"
         id="path5220-1-12"
         style="fill:none;stroke:#000000;stroke-width:2.8891933;stroke-linecap:round;stroke-miterlimit:4;stroke-opacity:1;stroke-dasharray:none;stroke-dashoffset:0;display:inline"
         sodipodi:type="arc" />
      <path
         sodipodi:nodetypes="cccc"
         inkscape:connector-curvature="0"
         id="path6194-3"
         d="m 182.14686,208.36926 c 7.23598,-1.68567 8.89829,8.74099 9.4084,13.41008 -8.58118,4.60423 -20.50994,22.21823 -9.99766,38.091 -2.15223,1.48757 -4.71228,2.31662 -6.96305,2.14247"
         style="fill:none;stroke:#000000;stroke-width:2;stroke-linecap:butt;stroke-linejoin:miter;stroke-opacity:1;display:inline" />
      <path
         sodipodi:nodetypes="ccc"
         inkscape:connector-curvature="0"
         id="path6196-34"
         d="m 220.19307,217.02188 c 1.77651,2.21174 4.02336,7.2693 3.92267,10.95643 2.33296,2.58012 3.36556,8.11529 3.19224,13.63465"
         style="fill:none;stroke:#000000;stroke-width:2;stroke-linecap:butt;stroke-linejoin:miter;stroke-opacity:1;display:inline" />
      <path
         sodipodi:nodetypes="cc"
         inkscape:connector-curvature="0"
         id="path6198-1"
         d="m 181.40457,259.83208 c 10.86709,5.25515 28.77914,5.31617 35.36868,1.93534"
         style="fill:none;stroke:#000000;stroke-width:2;stroke-linecap:butt;stroke-linejoin:miter;stroke-opacity:1;display:inline" />
      <path
         sodipodi:nodetypes="cc"
         inkscape:connector-curvature="0"
         id="path6200-1"
         d="m 207.30563,226.66189 c -1.13179,-6.2132 -5.91325,-21.79409 -15.68042,-21.0093"
         style="fill:none;stroke:#000000;stroke-width:2;stroke-linecap:butt;stroke-linejoin:miter;stroke-opacity:1;display:inline" />
      <path
         sodipodi:nodetypes="cc"
         inkscape:connector-curvature="0"
         id="path6202-3"
         d="m 216.94672,228.22178 c 0.45811,-6.10519 -0.55024,-14.36238 -5.35647,-18.49177"
         style="fill:none;stroke:#000000;stroke-width:2;stroke-linecap:butt;stroke-linejoin:miter;stroke-opacity:1;display:inline" />
      <path
         sodipodi:nodetypes="cc"
         inkscape:connector-curvature="0"
         id="path6204-8"
         d="m 227.33503,241.25855 c -8.99193,-0.43665 -30.12335,-3.46503 -47.19609,-6.42002"
         style="fill:none;stroke:#000000;stroke-width:2;stroke-linecap:butt;stroke-linejoin:miter;stroke-opacity:1;display:inline" />
      <path
         sodipodi:nodetypes="cc"
         inkscape:connector-curvature="0"
         id="path6206-7"
         d="m 177.4619,244.71429 c 3.73669,5.39853 38.68755,19.00483 47.27606,6.17782"
         style="fill:none;stroke:#000000;stroke-width:2;stroke-linecap:butt;stroke-linejoin:miter;stroke-opacity:1;display:inline" />
      <path
         sodipodi:nodetypes="cc"
         inkscape:connector-curvature="0"
         id="path6208-4"
         d="m 196.71116,263.71518 c -2.89747,2.86997 -7.68093,4.27551 -13.36413,3.6792"
         style="fill:none;stroke:#000000;stroke-width:2;stroke-linecap:butt;stroke-linejoin:miter;stroke-opacity:1;display:inline" />
      <path
         sodipodi:nodetypes="cc"
         inkscape:connector-curvature="0"
         id="path6210-2"
         d="m 206.65078,263.92776 c -1.02906,2.50844 -3.27799,4.71721 -6.1581,5.5493"
         style="fill:none;stroke:#000000;stroke-width:2;stroke-linecap:butt;stroke-linejoin:miter;stroke-opacity:1;display:inline" />
      <path
         sodipodi:nodetypes="cc"
         inkscape:connector-curvature="0"
         id="path6212-77"
         d="m 176.0459,262.06381 c -15.77408,-17.45201 -4.27913,-40.68628 11.67658,-51.80913"
         style="fill:none;stroke:#000000;stroke-width:2;stroke-linecap:butt;stroke-linejoin:miter;stroke-opacity:1;display:inline" />
      <path
         sodipodi:nodetypes="cc"
         inkscape:connector-curvature="0"
         id="path6214-9"
         d="m 184.34798,208.21616 c -11.28386,4.79295 -17.74288,14.99055 -19.90755,22.17999"
         style="fill:none;stroke:#000000;stroke-width:2;stroke-linecap:butt;stroke-linejoin:miter;stroke-opacity:1;display:inline" />
      <path
         sodipodi:nodetypes="cc"
         inkscape:connector-curvature="0"
         id="path6216-3"
         d="m 191.39006,221.7648 c 11.71528,4.4698 23.32234,7.18881 32.71107,6.15963"
         style="fill:none;stroke:#000000;stroke-width:2;stroke-linecap:butt;stroke-linejoin:miter;stroke-opacity:1;display:inline" />
      <path
         sodipodi:nodetypes="csssccsssc"
         inkscape:connector-curvature="0"
         id="path5220-1-2-7-1"
         d="m 192.53119,207.33214 c -14.83454,0 -26.86032,12.12666 -26.86032,27.08567 0,14.959 12.02578,27.08567 26.86032,27.08567 14.83454,0 26.86032,-12.12667 26.86032,-27.08567 0,-14.95901 -12.02578,-27.08567 -26.86032,-27.08567 l 2.97745,-1.90843 c 17.42084,0 31.54322,14.24087 31.54322,31.80786 0,17.56699 -14.12238,31.80786 -31.54322,31.80786 -17.42084,0 -31.54322,-14.24087 -31.54322,-31.80786 0,-17.56699 14.12238,-31.80786 31.54322,-31.80786"
         style="opacity:0.2;fill:#000000;stroke:none;display:inline" />
    </g>
    <path
       style="fill:none;stroke:#000000;stroke-width:2;stroke-linecap:butt;stroke-linejoin:miter;stroke-opacity:1;display:inline"
       d="m 165.71834,152.7983 8.84713,57.46471"
       id="path5701"
       inkscape:connector-curvature="0"
       sodipodi:nodetypes="cc" />
    <path
       style="fill:none;stroke:#000000;stroke-width:2;stroke-linecap:butt;stroke-linejoin:miter;stroke-opacity:1;display:inline"
       d="m 180.93048,149.86583 7.92945,52.3683"
       id="path5703"
       inkscape:connector-curvature="0"
       sodipodi:nodetypes="cc" />
    <path
       style="fill:none;stroke:#000000;stroke-width:2;stroke-linecap:butt;stroke-linejoin:miter;stroke-opacity:1;display:inline"
       d="m 193.62778,149.73288 8.01316,54.10829"
       id="path5705"
       inkscape:connector-curvature="0"
       sodipodi:nodetypes="cc" />
    <path
       style="fill:none;stroke:#000000;stroke-width:2;stroke-linecap:butt;stroke-linejoin:miter;stroke-opacity:1;display:inline"
       d="m 89.670094,165.38624 c 12.613306,-6.44318 20.046466,-10.6208 30.160646,-20.15203"
       id="path5707"
       inkscape:connector-curvature="0"
       sodipodi:nodetypes="cc" />
    <path
       style="fill:none;stroke:#000000;stroke-width:2;stroke-linecap:butt;stroke-linejoin:miter;stroke-opacity:1;display:inline"
       d="m 114.99008,172.69101 c 7.97865,-3.76672 17.01759,-11.29272 24.99624,-18.82051"
       id="path5711"
       inkscape:connector-curvature="0"
       sodipodi:nodetypes="cc" />
    <path
       style="fill:none;stroke:#000000;stroke-width:2;stroke-linecap:butt;stroke-linejoin:miter;stroke-opacity:1;display:inline"
       d="m 172.64396,159.43893 4.95942,33.78502"
       id="path5701-6"
       inkscape:connector-curvature="0"
       sodipodi:nodetypes="cc" />
    <path
       style="fill:none;stroke:#000000;stroke-width:2;stroke-linecap:butt;stroke-linejoin:miter;stroke-opacity:1;display:inline"
       d="m 188.65364,153.50485 6.16232,41.0586"
       id="path5703-5"
       inkscape:connector-curvature="0"
       sodipodi:nodetypes="cc" />
  </g>
  <g
     inkscape:groupmode="layer"
     id="layer5"
     inkscape:label="豚02"
     style="display:inline"
     sodipodi:insensitive="true">
    <g
       id="g6257">
      <path
         sodipodi:nodetypes="csccc"
         inkscape:connector-curvature="0"
         id="path10338-7"
         d="m 341.62069,278.77523 c 8.86288,-3.37136 15.85998,-9.02661 15.51628,-13.22843 -0.36288,-4.43635 -6.48919,-7.64171 -12.5046,-9.13774 l -96.57005,-13.0832 z"
         style="fill:#ffd5d5;stroke:#000000;stroke-width:2;stroke-linecap:butt;stroke-linejoin:miter;stroke-opacity:1;display:inline" />
      <path
         sodipodi:nodetypes="cssc"
         inkscape:connector-curvature="0"
         id="path10336-7"
         d="m 241.01436,238.63032 c 2.64871,4.73602 9.46973,14.99928 11.81796,24.95155 3.91877,16.60858 18.56649,30.82499 41.59094,34.5922 16.6934,2.73134 39.13532,-4.08958 49.60375,-22.75162"
         style="fill:#ffd5d5;stroke:#000000;stroke-width:2;stroke-linecap:butt;stroke-linejoin:miter;stroke-opacity:1;display:inline" />
      <path
         sodipodi:nodetypes="ccsc"
         inkscape:connector-curvature="0"
         id="path10340-9"
         d="m 344.83929,257.73125 c -8.61941,-45.41284 -53.04364,-53.82412 -98.98073,-40.75169 -11.7448,-1.78435 -22.63704,-0.95357 -24.24437,3.85628 -1.82503,5.46126 12.25033,12.98161 27.98956,24.40219"
         style="fill:#ffd5d5;stroke:#000000;stroke-width:2;stroke-linecap:butt;stroke-linejoin:miter;stroke-opacity:1;display:inline" />
      <path
         inkscape:connector-curvature="0"
         id="path10344-1"
         d="m 308.41001,275.21879 c -3.04482,-13.69978 26.81496,-25.89928 28.9467,-14.28664 2.04221,11.12486 -26.78706,24.00365 -28.9467,14.28664 z"
         style="fill:none;stroke:#000000;stroke-width:2;stroke-linecap:butt;stroke-linejoin:miter;stroke-opacity:1;display:inline" />
    </g>
  </g>
  <g
     inkscape:groupmode="layer"
     id="layer2"
     inkscape:label="枠面"
     sodipodi:insensitive="true">
    <path
       style="fill:#ffffff;stroke:none;display:inline"
       d="m 0,0 0,320 370,0 0,-320 -10,10 0,300 -350,0 0,-300 350,0 10,-10 z"
       id="path21072"
       inkscape:connector-curvature="0"
       sodipodi:nodetypes="ccccccccccc" />
  </g>
</svg>
