<?xml version="1.0" encoding="UTF-8" standalone="no"?>
<!-- Created with Inkscape (http://www.inkscape.org/) -->

<svg
   xmlns:dc="http://purl.org/dc/elements/1.1/"
   xmlns:cc="http://creativecommons.org/ns#"
   xmlns:rdf="http://www.w3.org/1999/02/22-rdf-syntax-ns#"
   xmlns:svg="http://www.w3.org/2000/svg"
   xmlns="http://www.w3.org/2000/svg"
   xmlns:sodipodi="http://sodipodi.sourceforge.net/DTD/sodipodi-0.dtd"
   xmlns:inkscape="http://www.inkscape.org/namespaces/inkscape"
   width="370"
   height="320"
   id="svg3172"
   version="1.1"
   inkscape:version="0.48.4 r9939"
   sodipodi:docname="[22.失敗].svg">
  <defs
     id="defs3174" />
  <sodipodi:namedview
     id="base"
     pagecolor="#ffffff"
     bordercolor="#666666"
     borderopacity="1.0"
     inkscape:pageopacity="0.0"
     inkscape:pageshadow="2"
     inkscape:zoom="0.74465929"
     inkscape:cx="205.66239"
     inkscape:cy="138.39358"
     inkscape:document-units="px"
     inkscape:current-layer="layer3"
     showgrid="false"
     inkscape:window-width="1245"
     inkscape:window-height="698"
     inkscape:window-x="-5"
     inkscape:window-y="-5"
     inkscape:window-maximized="0" />
  <metadata
     id="metadata3177">
    <rdf:RDF>
      <cc:Work
         rdf:about="">
        <dc:format>image/svg+xml</dc:format>
        <dc:type
           rdf:resource="http://purl.org/dc/dcmitype/StillImage" />
        <dc:title />
      </cc:Work>
    </rdf:RDF>
  </metadata>
  <g
     inkscape:label="補助線"
     inkscape:groupmode="layer"
     id="layer1"
     transform="translate(0,-732.36218)"
     sodipodi:insensitive="true"
     style="display:none">
    <path
       style="fill:none;stroke:#0000ff;stroke-width:1px;stroke-linecap:butt;stroke-linejoin:miter;stroke-opacity:1;display:inline"
       d="M 10,1042.3622 360,742.36211"
       id="path3025"
       inkscape:connector-curvature="0"
       sodipodi:nodetypes="cc" />
    <path
       style="fill:none;stroke:#0000ff;stroke-width:1px;stroke-linecap:butt;stroke-linejoin:miter;stroke-opacity:1;display:inline"
       d="M 10,742.36211 360,1042.3622"
       id="path3027"
       inkscape:connector-curvature="0"
       sodipodi:nodetypes="cc" />
    <path
       style="fill:none;stroke:#ff0000;stroke-width:1px;stroke-linecap:butt;stroke-linejoin:miter;stroke-opacity:1;display:inline"
       d="m 10,732.36211 0,320.00009"
       id="path3006"
       inkscape:connector-curvature="0"
       sodipodi:nodetypes="cc" />
    <path
       style="fill:none;stroke:#ff0000;stroke-width:1px;stroke-linecap:butt;stroke-linejoin:miter;stroke-opacity:1;display:inline"
       d="m 360,732.36211 0,320.00009"
       id="path3010"
       inkscape:connector-curvature="0"
       sodipodi:nodetypes="cc" />
    <path
       style="fill:none;stroke:#ff0000;stroke-width:1px;stroke-linecap:butt;stroke-linejoin:miter;stroke-opacity:1;display:inline"
       d="m 0,742.36208 370,3e-5"
       id="path3016"
       inkscape:connector-curvature="0" />
    <path
       style="fill:none;stroke:#ff0000;stroke-width:1px;stroke-linecap:butt;stroke-linejoin:miter;stroke-opacity:1;display:inline"
       d="m 0,1042.3622 370,0"
       id="path3018"
       inkscape:connector-curvature="0"
       sodipodi:nodetypes="cc" />
  </g>
  <g
     inkscape:groupmode="layer"
     id="layer9"
     inkscape:label="ホームベース"
     sodipodi:insensitive="true">
    <rect
       style="fill:#447821;fill-opacity:1;stroke:none"
       id="rect7332"
       width="589.51825"
       height="106.02846"
       x="-76.440964"
       y="121.25208"
       ry="0" />
    <path
       style="fill:#c87137;stroke:none"
       d="m -44.984071,227.03292 c 54.1939148,11.92695 108.863663,23.30994 86.626432,32.75582 -65.770072,27.93765 -5.417628,47.91181 121.531719,47.23008 111.09273,-0.59659 138.13656,-11.18318 110.20428,-27.90207 -18.2274,-10.91002 30.00376,-23.46393 131.66356,-52.89115 z"
       id="path7299-6"
       inkscape:connector-curvature="0"
       sodipodi:nodetypes="cssscc" />
    <path
       style="fill:#fefefe;fill-opacity:1;stroke:#000000;stroke-width:2;stroke-linecap:butt;stroke-linejoin:miter;stroke-opacity:1;display:inline"
       d="m 70.246387,282.7973 110.113453,4.13884 21.45618,-13.15933 -40.00886,-13.3363 -60.01331,6.89808 z"
       id="path6517"
       inkscape:connector-curvature="0"
       sodipodi:nodetypes="cccccc" />
    <path
       style="fill:none;stroke:#000000;stroke-width:2;stroke-linecap:butt;stroke-linejoin:miter;stroke-opacity:1"
       d="m -44.484243,226.03328 449.840663,0"
       id="path7330"
       inkscape:connector-curvature="0" />
    <path
       style="fill:none;stroke:#000000;stroke-width:2;stroke-linecap:butt;stroke-linejoin:miter;stroke-opacity:1"
       d="m -77.754204,121.37335 592.345664,0"
       id="path7466"
       inkscape:connector-curvature="0" />
  </g>
  <g
     inkscape:groupmode="layer"
     id="layer3"
     inkscape:label="豚"
     sodipodi:insensitive="true">
    <path
       style="fill:none;stroke:#000000;stroke-width:2;stroke-linecap:butt;stroke-linejoin:miter;stroke-opacity:1"
       d="m 175.59318,263.75468 172.4798,-0.24991"
       id="path7293"
       inkscape:connector-curvature="0"
       sodipodi:nodetypes="cc" />
    <path
       style="fill:none;stroke:#000000;stroke-width:2;stroke-linecap:butt;stroke-linejoin:miter;stroke-opacity:1"
       d="m 280.20793,254.56555 78.46106,0.35343"
       id="path7295"
       inkscape:connector-curvature="0" />
    <path
       style="fill:none;stroke:#000000;stroke-width:2;stroke-linecap:butt;stroke-linejoin:miter;stroke-opacity:1"
       d="m 320.85217,245.37641 33.92911,0"
       id="path7297"
       inkscape:connector-curvature="0" />
    <path
       style="fill:#ffd5d5;stroke:none;display:inline"
       d="m 61.957389,175.54494 c -19.371482,19.94689 -19.930253,38.53323 -15.80097,40.50177 2.237949,1.06686 2.5695,-1.3301 4.885968,-2.1252 l 88.347223,-29.9177 z"
       id="path3386-32-4-9-3"
       inkscape:connector-curvature="0"
       sodipodi:nodetypes="csccc" />
    <path
       style="fill:#ff8080;stroke:none;display:inline"
       d="m 54.746119,206.49329 -9.617502,-2.85793 c -1.400686,3.76267 -1.409195,10.88367 1.015892,12.48787 2.072336,1.37086 1.059557,-0.97572 4.688458,-2.25619 z"
       id="path3390-1-6-5"
       inkscape:connector-curvature="0"
       sodipodi:nodetypes="ccscc" />
    <path
       style="fill:none;stroke:#000000;stroke-width:2;stroke-linecap:butt;stroke-linejoin:miter;stroke-opacity:1;display:inline"
       d="m 61.626359,175.03633 c -19.371482,19.94689 -19.607328,39.10389 -15.478045,41.07243 2.237949,1.06686 2.5695,-1.3301 4.885968,-2.1252"
       id="path3386-32-4-1"
       inkscape:connector-curvature="0"
       sodipodi:nodetypes="csc" />
    <path
       style="fill:none;stroke:#000000;stroke-width:2;stroke-linecap:butt;stroke-linejoin:miter;stroke-opacity:1;display:inline"
       d="m 44.970327,203.65924 9.662313,2.70971"
       id="path3388-2-1-6"
       inkscape:connector-curvature="0"
       sodipodi:nodetypes="cc" />
    <path
       style="fill:#ffd5d5;stroke:#000000;stroke-width:2;stroke-linecap:butt;stroke-linejoin:miter;stroke-opacity:1;display:inline"
       d="m 59.78751,192.46407 c -13.345432,10.51266 -27.87835,36.10411 -8.98661,57.97834 15.247867,17.6551 74.88964,20.26119 107.13708,6.74175 27.73235,-11.62652 18.97019,-55.28085 10.27469,-78.53927"
       id="path3327-4-4-9-2"
       inkscape:connector-curvature="0"
       sodipodi:nodetypes="cssc" />
    <path
       style="fill:#ffd5d5;stroke:#000000;stroke-width:2;stroke-linecap:butt;stroke-linejoin:miter;stroke-opacity:1;display:inline"
       d="m 170.12193,219.98896 c 12.56597,-10.76998 28.67383,-18.68875 30.09303,-21.98951 0.72285,-1.68117 -0.91443,-3.80199 0.49679,-6.21638 1.01667,-1.73939 2.42287,-3.43723 1.82058,-5.63937 -1.235,-4.51539 -21.95798,-10.58283 -35.95816,-9.74757"
       id="path5089-8-7-0-8-2-1-7-0"
       inkscape:connector-curvature="0"
       sodipodi:nodetypes="csssc" />
    <path
       style="fill:#ffd5d5;stroke:#000000;stroke-width:2;stroke-linecap:butt;stroke-linejoin:miter;stroke-opacity:1;display:inline"
       d="m 52.556343,229.905 c -17.033854,-9.80401 -27.330864,-1.82114 -19.595405,11.4422 11.144111,19.10786 40.724363,29.86382 42.943079,14.59526"
       id="path3333-4-9-7-5"
       inkscape:connector-curvature="0"
       sodipodi:nodetypes="csc" />
    <path
       style="fill:#ffd5d5;stroke:#000000;stroke-width:2;stroke-linecap:butt;stroke-linejoin:miter;stroke-opacity:1;display:inline"
       d="m 134.36057,260.29573 c 16.45927,19.83298 38.98757,3.01418 26.02996,-20.58831 -13.19758,-24.0396 -40.69328,-16.75149 -31.43312,9.85616"
       id="path5103-8-1-4-9-88-1-7"
       inkscape:connector-curvature="0"
       sodipodi:nodetypes="csc" />
    <g
       id="g3359">
      <path
         sodipodi:nodetypes="cscccc"
         inkscape:connector-curvature="0"
         id="path5486-0-1"
         d="m 281.83161,133.77791 c 30.63861,-12.08421 58.15374,2.17896 68.7434,29.6007 7.95154,20.59028 5.41616,44.83135 -3.93526,54.23224 l -94.74771,-42.12824 c -2.92647,-18.58775 9.53832,-29.40918 17.54208,-33.14008 z"
         style="fill:#ffd5d5;stroke:none;display:inline" />
      <path
         sodipodi:nodetypes="cscccc"
         inkscape:connector-curvature="0"
         id="path5089-8-7-0-8-2-9-3-0-4"
         d="m 350.41437,211.97826 c 3.84857,11.64844 -2.3647,30.17793 -7.88332,32.08266 -2.20953,0.7626 -2.6684,-5.37374 -3.88389,-3.28076 -1.58796,2.81384 -4.75217,7.20258 -12.08787,9.70518 l -58.53981,-69.17905 z"
         style="fill:#ffd5d5;stroke:none;display:inline" />
      <path
         sodipodi:nodetypes="cc"
         inkscape:connector-curvature="0"
         id="path5091-2-40-9-2-8-2"
         d="m 299.82154,129.59981 c -16.46268,-5.68103 -33.1367,1.81047 -37.67204,18.38437"
         style="fill:#ffd5d5;stroke:#000000;stroke-width:2;stroke-linecap:butt;stroke-linejoin:miter;stroke-opacity:1;display:inline" />
      <path
         sodipodi:nodetypes="ccscc"
         inkscape:connector-curvature="0"
         id="path5506-0"
         d="m 341.05496,235.67265 c 2.35104,0.69771 4.94507,1.23262 7.13142,1.62414 -0.25277,1.97131 -4.27656,7.71256 -6.16158,6.64253 -1.39031,-0.78921 -1.21856,-2.63925 -3.10985,-3.74733 0.72283,-1.3491 1.62067,-3.1627 2.14001,-4.51934 z"
         style="fill:#ffaaaa;stroke:none" />
      <path
         sodipodi:nodetypes="csc"
         inkscape:connector-curvature="0"
         id="path5486-0"
         d="m 281.96164,133.64051 c 30.63861,-12.08421 58.15373,2.17896 68.7434,29.6007 7.95153,20.59028 5.41616,44.83135 -3.93527,54.23224"
         style="fill:none;stroke:#000000;stroke-width:2;stroke-linecap:butt;stroke-linejoin:miter;stroke-opacity:1;display:inline" />
      <path
         sodipodi:nodetypes="csccscc"
         inkscape:connector-curvature="0"
         id="path3325-8-59-1"
         d="m 332.55621,246.78532 c 10.93848,4.19356 11.52287,10.73705 6.79941,13.21355 -5.632,2.95282 -13.69647,3.55014 -27.35667,3.47519 -32.68826,3.40369 -79.39568,2.11324 -96.85577,-0.41763 -7.15703,2.16941 -29.5748,4.05716 -35.48788,1.13856 -13.34836,-6.58856 5.30777,-22.55307 18.82201,-27.21396 -9.95337,-10.95378 14.42506,-58.08144 54.09026,-73.34659"
         style="fill:#ffd5d5;stroke:#000000;stroke-width:2;stroke-linecap:butt;stroke-linejoin:miter;stroke-opacity:1;display:inline" />
      <path
         sodipodi:nodetypes="cc"
         inkscape:connector-curvature="0"
         id="path5093-4-9-4-4-18-4"
         d="m 269.56415,142.20513 c -8.00377,3.7309 -20.46856,14.55233 -17.54208,33.14008"
         style="fill:none;stroke:#000000;stroke-width:2;stroke-linecap:butt;stroke-linejoin:miter;stroke-opacity:1;display:inline" />
      <path
         sodipodi:nodetypes="cc"
         inkscape:connector-curvature="0"
         id="path5095-5-4-8-5-26-6"
         d="m 288.90296,149.06374 c -1.42978,1.69348 -4.09158,5.49696 -6.16603,7.22217"
         style="fill:none;stroke:#000000;stroke-width:2;stroke-linecap:butt;stroke-linejoin:miter;stroke-opacity:1;display:inline" />
      <path
         inkscape:connector-curvature="0"
         id="path5097-5-8-8-5-6-0"
         d="m 299.85597,159.52996 c -3.27433,0.4698 -6.26864,5.69698 -8.1621,6.58206"
         style="fill:none;stroke:#000000;stroke-width:2;stroke-linecap:butt;stroke-linejoin:miter;stroke-opacity:1;display:inline"
         sodipodi:nodetypes="cc" />
      <path
         sodipodi:nodetypes="csc"
         inkscape:connector-curvature="0"
         id="path5099-1-8-2-7-0-7"
         d="m 343.9794,159.36733 c 21.435,14.02974 6.41238,50.51982 -2.10365,50.14246 -7.23342,-0.32043 -8.21377,-22.77506 -15.27877,-30.22116"
         style="fill:#ffd5d5;stroke:#000000;stroke-width:2;stroke-linecap:butt;stroke-linejoin:miter;stroke-opacity:1;display:inline" />
      <path
         sodipodi:nodetypes="ssssss"
         inkscape:connector-curvature="0"
         id="path5101-7-2-4-1-3-1"
         d="m 282.88539,159.2959 c 5.4286,3.73445 8.88832,9.96046 9.29568,18.41925 0.49545,10.28822 -3.81783,19.36045 -9.67657,13.29495 -5.07207,-5.25107 -11.71868,-14.67477 -16.66503,-16.02773 -4.56377,-1.24834 -4.96611,-6.29478 -0.65971,-11.2345 3.86658,-4.43519 12.38425,-8.11268 17.70563,-4.45197 z"
         style="fill:#ffaaaa;stroke:#000000;stroke-width:2;stroke-linecap:butt;stroke-linejoin:miter;stroke-opacity:1;display:inline" />
      <path
         sodipodi:nodetypes="sss"
         inkscape:connector-curvature="0"
         id="path5105-1-4-55-1-28-8-7"
         d="m 281.63995,181.71493 c -1.28877,0.73513 -0.17569,-14.9138 1.25208,-13.92138 2.13673,1.48484 3.39907,11.26832 -1.25208,13.92138 z"
         style="fill:#000000;stroke:#000000;stroke-width:2;display:inline" />
      <path
         sodipodi:nodetypes="sss"
         inkscape:connector-curvature="0"
         id="path5107-1-5-1-5-0-7"
         d="m 276.91255,164.10875 c 1.27086,1.36098 -5.46808,10.22266 -6.16348,8.70691 -1.66796,-3.63561 5.32418,-9.6057 6.16348,-8.70691 z"
         style="fill:#000000;stroke:#000000;stroke-width:2;display:inline" />
      <path
         sodipodi:nodetypes="csc"
         inkscape:connector-curvature="0"
         id="path5089-8-7-0-8-2-9-3-7"
         d="m 338.84977,240.30599 c 1.21549,-2.09297 1.67436,4.04336 3.88389,3.28076 5.51861,-1.90473 11.73188,-20.43422 7.88332,-32.08266"
         style="fill:none;stroke:#000000;stroke-width:2;stroke-linecap:butt;stroke-linejoin:miter;stroke-opacity:1;display:inline" />
      <path
         sodipodi:nodetypes="cc"
         inkscape:connector-curvature="0"
         id="path5111-7-1-7-7-7-17-3-7"
         d="m 341.15903,236.04056 c 1.23434,0.58111 4.50503,1.34291 6.41245,1.32253"
         style="fill:none;stroke:#000000;stroke-width:2;stroke-linecap:butt;stroke-linejoin:miter;stroke-opacity:1;display:inline" />
      <path
         sodipodi:nodetypes="cc"
         inkscape:connector-curvature="0"
         id="path4041-3-3"
         d="m 343.41329,223.34107 c -1.21637,11.25222 -3.71022,21.94076 -16.65139,26.6701"
         style="fill:none;stroke:#000000;stroke-width:2;stroke-linecap:butt;stroke-linejoin:miter;stroke-opacity:1;display:inline" />
      <path
         sodipodi:nodetypes="sssccs"
         inkscape:connector-curvature="0"
         id="path5109-5-5-51-2-1-1-7-3"
         d="m 265.20716,206.2053 c 0.50879,-0.61186 0.001,-3.61078 1.2864,-6.3577 1.14438,-2.44605 4.13147,-3.17191 4.42839,-4.09233 0.45445,-1.4088 -2.92395,-7.5364 -6.14882,-9.03147 -8.09783,-1.50389 -19.14505,16.11804 -11.84667,21.7843 2.28199,1.37576 10.88463,-0.62413 12.2807,-2.3028 z"
         style="fill:#ffaaaa;stroke:none;display:inline" />
      <path
         sodipodi:nodetypes="cc"
         inkscape:connector-curvature="0"
         id="path5111-7-1-7-7-7-17-5"
         d="m 265.00715,186.81274 c -5.48989,-5.0873 -22.0804,15.30254 -12.18369,21.62422"
         style="fill:none;stroke:#000000;stroke-width:2;stroke-linecap:butt;stroke-linejoin:miter;stroke-opacity:1;display:inline" />
      <path
         sodipodi:nodetypes="csssc"
         inkscape:connector-curvature="0"
         id="path5089-8-7-0-8-2-9-9"
         d="m 226.94206,207.71807 c 16.84079,0.97088 35.9128,1.37558 38.26364,-1.45379 1.19734,-1.44104 -0.0872,-4.1038 1.3507,-6.5797 1.21549,-2.09298 4.31588,-2.05222 4.36317,-4.38917 0.0969,-4.79179 -16.4809,-18.87926 -24.3221,-21.28735"
         style="fill:none;stroke:#000000;stroke-width:2;stroke-linecap:butt;stroke-linejoin:miter;stroke-opacity:1;display:inline" />
    </g>
    <path
       style="fill:#ffd5d5;stroke:#000000;stroke-width:2;stroke-linecap:butt;stroke-linejoin:miter;stroke-opacity:1;display:inline"
       d="m 147.82415,121.00629 c 16.29394,1.27214 25.31087,20.42053 23.28401,32.99976"
       id="path5091-2-40-9-2-7-9-6"
       inkscape:connector-curvature="0"
       sodipodi:nodetypes="cc" />
    <path
       style="fill:#ffd5d5;stroke:none;display:inline"
       d="m 167.39472,184.27346 c 8.92466,-8.85644 8.434,-29.13702 -3.10088,-41.56288 l -8.49885,-14.94024 c -23.93151,-27.64521 -66.612229,-14.90872 -82.460772,9.03234 -8.2376,12.44385 -16.35789,31.51969 -9.900295,45.50658 z"
       id="path5093-4-9-4-4-11-5-5-1"
       inkscape:connector-curvature="0"
       sodipodi:nodetypes="cccscc" />
    <path
       style="fill:none;stroke:#000000;stroke-width:2;stroke-linecap:butt;stroke-linejoin:miter;stroke-opacity:1;display:inline"
       d="m 155.64807,127.82117 c -23.93152,-27.64521 -66.612236,-14.90872 -82.46078,9.03234 -8.2376,12.44385 -16.35789,31.51969 -9.900295,45.50658"
       id="path4041-2-8-4"
       inkscape:connector-curvature="0"
       sodipodi:nodetypes="csc" />
    <path
       style="fill:none;stroke:#000000;stroke-width:2;stroke-linecap:butt;stroke-linejoin:miter;stroke-opacity:1;display:inline"
       d="m 164.14691,142.76141 c 11.53488,12.42587 12.02554,32.70645 3.10088,41.56289"
       id="path5093-4-9-4-4-11-5-9"
       inkscape:connector-curvature="0"
       sodipodi:nodetypes="cc" />
    <path
       sodipodi:nodetypes="cc"
       style="fill:none;stroke:#000000;stroke-width:2;stroke-linecap:butt;stroke-linejoin:miter;stroke-opacity:1;display:inline"
       d="m 149.38746,143.46797 c -0.6992,1.31929 -1.37336,5.24589 -1.48719,6.68225"
       id="path5095-5-4-8-5-5-4-7"
       inkscape:connector-curvature="0" />
    <path
       sodipodi:nodetypes="cc"
       style="fill:none;stroke:#000000;stroke-width:2;stroke-linecap:butt;stroke-linejoin:miter;stroke-opacity:1;display:inline"
       d="m 129.87765,145.08859 c 1.20688,1.81319 3.70569,5.06156 4.84186,7.32545"
       id="path5097-5-8-8-5-2-3-3"
       inkscape:connector-curvature="0" />
    <path
       style="fill:#ffd5d5;stroke:#000000;stroke-width:2;stroke-linecap:butt;stroke-linejoin:miter;stroke-opacity:1;display:inline"
       d="m 86.405236,126.24743 c -27.123321,6.96377 -19.992329,42.79954 -9.440293,44.07431 7.02103,0.8482 14.542677,-17.23486 22.504782,-23.32733"
       id="path5099-1-8-2-7-7-1-7"
       inkscape:connector-curvature="0"
       sodipodi:nodetypes="csc" />
    <path
       style="fill:#ffaaaa;stroke:#000000;stroke-width:2;stroke-linecap:butt;stroke-linejoin:miter;stroke-opacity:1;display:inline"
       d="m 146.42177,151.79282 c -6.22715,0.46696 -15.82834,6.36 -20.1962,12.70488 -7.33777,10.65906 -1.11991,18.46949 6.67326,15.8029 8.33919,-2.85336 16.53708,-3.22253 22.33642,-2.68187 6.60044,0.61535 6.89056,-7.06301 5.91054,-12.37826 -1.03646,-5.62133 -7.26442,-14.00702 -14.72402,-13.44765 z"
       id="path5101-7-2-4-1-6-2-2"
       inkscape:connector-curvature="0"
       sodipodi:nodetypes="ssssss" />
    <path
       style="fill:#000000;stroke:#000000;stroke-width:2;display:inline"
       d="m 135.9943,173.49023 c 2.00842,2.791 7.80315,-13.28238 6.18514,-13.79953 -1.94892,-0.62289 -9.3663,9.37882 -6.18514,13.79953 z"
       id="path5105-1-4-55-1-28-14-3-6"
       inkscape:connector-curvature="0"
       sodipodi:nodetypes="sss" />
    <path
       style="fill:#000000;stroke:#000000;stroke-width:2;display:inline"
       d="m 150.28728,159.04549 c -1.82703,0.87222 -1.79182,14.13254 0.4723,13.51397 3.23644,-0.88422 1.59384,-14.50034 -0.4723,-13.51397 z"
       id="path5107-1-5-1-5-2-3-0"
       inkscape:connector-curvature="0" />
    <path
       style="fill:#c87137;stroke:#000000;stroke-width:2;stroke-linecap:butt;stroke-linejoin:miter;stroke-opacity:1;display:inline"
       d="m 220.39701,178.12977 c -7.13281,8.65341 -3.89861,17.3068 -2.39633,25.9602 -15.45624,2.65804 -28.55618,1.68347 -31.35195,-15.17673 9.87147,-9.1063 19.72086,-18.30093 33.74828,-10.78347 z"
       id="path5480"
       inkscape:connector-curvature="0"
       sodipodi:nodetypes="cccc" />
    <g
       style="stroke-width:1.53490579;display:inline"
       id="g5694"
       transform="matrix(1.3030116,0,0,1.3030116,-841.54503,-214.20225)">
      <path
         transform="matrix(0.35994717,0,0,0.35994717,689.44574,261.53207)"
         d="m 350.67289,134.27634 a 26.175819,26.175819 0 1 1 -52.35164,0 26.175819,26.175819 0 1 1 52.35164,0 z"
         sodipodi:ry="26.175819"
         sodipodi:rx="26.175819"
         sodipodi:cy="134.27634"
         sodipodi:cx="324.49707"
         id="path8220-2-6"
         style="fill:#fefefe;fill-opacity:1;stroke:none;display:inline"
         sodipodi:type="arc" />
      <path
         sodipodi:nodetypes="csc"
         inkscape:connector-curvature="0"
         id="path8233-2"
         d="m 797.08132,307.64367 c 2.69357,-3.64869 8.31198,-1.28596 10.3208,2.8605 2.18593,4.51205 1.35387,8.27083 -3.34553,8.53866"
         style="fill:none;stroke:#ff0000;stroke-width:1.53490579;stroke-linecap:butt;stroke-linejoin:miter;stroke-opacity:1;display:inline" />
      <path
         sodipodi:nodetypes="csc"
         inkscape:connector-curvature="0"
         id="path8235-1"
         d="m 810.09754,301.25842 c 0.69939,0.96674 2.38317,3.09738 3.42961,5.7352 0.91408,2.30414 1.9248,5.12141 1.49491,6.34381"
         style="fill:none;stroke:#ff0000;stroke-width:1.53490579;stroke-linecap:butt;stroke-linejoin:miter;stroke-opacity:1;display:inline" />
      <path
         transform="matrix(0.35994717,0,0,0.35994717,689.44573,261.53207)"
         d="m 350.67289,134.27634 a 26.175819,26.175819 0 1 1 -52.35164,0 26.175819,26.175819 0 1 1 52.35164,0 z"
         sodipodi:ry="26.175819"
         sodipodi:rx="26.175819"
         sodipodi:cy="134.27634"
         sodipodi:cx="324.49707"
         id="path8220-2"
         style="fill:none;stroke:#000000;stroke-width:4.26425266;stroke-linecap:round;stroke-miterlimit:4;stroke-opacity:1;stroke-dasharray:none;stroke-dashoffset:0;display:inline"
         sodipodi:type="arc" />
    </g>
    <path
       style="fill:#d38d5f;stroke:#000000;stroke-width:2;stroke-linecap:butt;stroke-linejoin:miter;stroke-opacity:1;display:inline"
       d="m 232.78633,186.11166 c 6.13527,-4.61673 -0.40093,-14.64692 -11.84814,-18.96905 -18.19049,-6.86816 -44.00294,2.08826 -47.83094,20.53821 -3.64534,17.56967 12.0351,23.09954 26.98461,23.41851 19.07336,0.40697 37.68095,-8.05794 32.31798,-16.50072 -5.43911,-8.56259 -25.03065,-0.80261 -34.40764,2.9382 -7.96241,3.17649 -2.23726,-18.99969 3.77824,-15.21388 5.67646,3.57244 23.07461,9.75694 31.00589,3.78873 z"
       id="path5478"
       inkscape:connector-curvature="0"
       sodipodi:nodetypes="ssssssss" />
    <path
       inkscape:connector-curvature="0"
       id="path5097-5-8-8-5-6-0-8"
       d="m 301.24955,169.31937 c -5.11707,-4.59772 -16.40366,-17.79784 -22.21292,-21.28926"
       style="fill:none;stroke:#000000;stroke-width:2;stroke-linecap:butt;stroke-linejoin:miter;stroke-opacity:1;display:inline"
       sodipodi:nodetypes="cc" />
  </g>
  <g
     inkscape:groupmode="layer"
     id="layer4"
     inkscape:label="字幕"
     sodipodi:insensitive="true">
    <text
       xml:space="preserve"
       style="font-size:64px;font-style:normal;font-weight:normal;line-height:125%;letter-spacing:0px;word-spacing:0px;writing-mode:lr-tb;fill:#000000;fill-opacity:1;stroke:none;font-family:Sans"
       x="70.489738"
       y="71.945724"
       id="text6768"
       sodipodi:linespacing="125%"><tspan
         sodipodi:role="line"
         id="tspan6770"
         x="70.489738"
         y="71.945724">アウト!!</tspan></text>
  </g>
  <g
     inkscape:groupmode="layer"
     id="layer2"
     inkscape:label="枠面"
     sodipodi:insensitive="true">
    <path
       style="fill:#ffffff;stroke:none;display:inline"
       d="m 0,0 0,320 370,0 0,-320 -10,10 0,300 -350,0 0,-300 350,0 10,-10 z"
       id="path21072"
       inkscape:connector-curvature="0"
       sodipodi:nodetypes="ccccccccccc" />
  </g>
</svg>
