<?xml version="1.0" encoding="UTF-8" standalone="no"?>
<!-- Created with Inkscape (http://www.inkscape.org/) -->

<svg
   xmlns:dc="http://purl.org/dc/elements/1.1/"
   xmlns:cc="http://creativecommons.org/ns#"
   xmlns:rdf="http://www.w3.org/1999/02/22-rdf-syntax-ns#"
   xmlns:svg="http://www.w3.org/2000/svg"
   xmlns="http://www.w3.org/2000/svg"
   xmlns:sodipodi="http://sodipodi.sourceforge.net/DTD/sodipodi-0.dtd"
   xmlns:inkscape="http://www.inkscape.org/namespaces/inkscape"
   width="370"
   height="320"
   id="svg3172"
   version="1.1"
   inkscape:version="0.48.4 r9939"
   sodipodi:docname="[23.失敗].svg">
  <defs
     id="defs3174" />
  <sodipodi:namedview
     id="base"
     pagecolor="#ffffff"
     bordercolor="#666666"
     borderopacity="1.0"
     inkscape:pageopacity="0.0"
     inkscape:pageshadow="2"
     inkscape:zoom="1.1744614"
     inkscape:cx="48.696428"
     inkscape:cy="210.92387"
     inkscape:document-units="px"
     inkscape:current-layer="layer3"
     showgrid="false"
     inkscape:window-width="1245"
     inkscape:window-height="698"
     inkscape:window-x="-5"
     inkscape:window-y="-5"
     inkscape:window-maximized="0" />
  <metadata
     id="metadata3177">
    <rdf:RDF>
      <cc:Work
         rdf:about="">
        <dc:format>image/svg+xml</dc:format>
        <dc:type
           rdf:resource="http://purl.org/dc/dcmitype/StillImage" />
        <dc:title />
      </cc:Work>
    </rdf:RDF>
  </metadata>
  <g
     inkscape:label="補助線"
     inkscape:groupmode="layer"
     id="layer1"
     transform="translate(0,-732.36218)"
     sodipodi:insensitive="true"
     style="display:none">
    <path
       style="fill:none;stroke:#0000ff;stroke-width:1px;stroke-linecap:butt;stroke-linejoin:miter;stroke-opacity:1;display:inline"
       d="M 10,1042.3622 360,742.36211"
       id="path3025"
       inkscape:connector-curvature="0"
       sodipodi:nodetypes="cc" />
    <path
       style="fill:none;stroke:#0000ff;stroke-width:1px;stroke-linecap:butt;stroke-linejoin:miter;stroke-opacity:1;display:inline"
       d="M 10,742.36211 360,1042.3622"
       id="path3027"
       inkscape:connector-curvature="0"
       sodipodi:nodetypes="cc" />
    <path
       style="fill:none;stroke:#ff0000;stroke-width:1px;stroke-linecap:butt;stroke-linejoin:miter;stroke-opacity:1;display:inline"
       d="m 10,732.36211 0,320.00009"
       id="path3006"
       inkscape:connector-curvature="0"
       sodipodi:nodetypes="cc" />
    <path
       style="fill:none;stroke:#ff0000;stroke-width:1px;stroke-linecap:butt;stroke-linejoin:miter;stroke-opacity:1;display:inline"
       d="m 360,732.36211 0,320.00009"
       id="path3010"
       inkscape:connector-curvature="0"
       sodipodi:nodetypes="cc" />
    <path
       style="fill:none;stroke:#ff0000;stroke-width:1px;stroke-linecap:butt;stroke-linejoin:miter;stroke-opacity:1;display:inline"
       d="m 0,742.36208 370,3e-5"
       id="path3016"
       inkscape:connector-curvature="0" />
    <path
       style="fill:none;stroke:#ff0000;stroke-width:1px;stroke-linecap:butt;stroke-linejoin:miter;stroke-opacity:1;display:inline"
       d="m 0,1042.3622 370,0"
       id="path3018"
       inkscape:connector-curvature="0"
       sodipodi:nodetypes="cc" />
  </g>
  <g
     inkscape:groupmode="layer"
     id="layer9"
     inkscape:label="ホームベース"
     sodipodi:insensitive="true">
    <rect
       style="fill:#447821;fill-opacity:1;stroke:none"
       id="rect7332"
       width="589.51825"
       height="106.02846"
       x="-76.440964"
       y="121.25208"
       ry="0" />
    <path
       style="fill:#c87137;stroke:none"
       d="m -44.984071,227.03292 c 54.1939148,11.92695 108.863663,23.30994 86.626432,32.75582 -65.770072,27.93765 -5.417628,47.91181 121.531719,47.23008 111.09273,-0.59659 138.13656,-11.18318 110.20428,-27.90207 -18.2274,-10.91002 30.00376,-23.46393 131.66356,-52.89115 z"
       id="path7299-6"
       inkscape:connector-curvature="0"
       sodipodi:nodetypes="cssscc" />
    <path
       style="fill:#fefefe;fill-opacity:1;stroke:#000000;stroke-width:2;stroke-linecap:butt;stroke-linejoin:miter;stroke-opacity:1;display:inline"
       d="m 70.246387,282.7973 110.113453,4.13884 21.45618,-13.15933 -40.00886,-13.3363 -60.01331,6.89808 z"
       id="path6517"
       inkscape:connector-curvature="0"
       sodipodi:nodetypes="cccccc" />
    <path
       style="fill:none;stroke:#000000;stroke-width:2;stroke-linecap:butt;stroke-linejoin:miter;stroke-opacity:1"
       d="m -44.484243,226.03328 449.840663,0"
       id="path7330"
       inkscape:connector-curvature="0" />
    <path
       style="fill:none;stroke:#000000;stroke-width:2;stroke-linecap:butt;stroke-linejoin:miter;stroke-opacity:1"
       d="m -77.754204,121.37335 592.345664,0"
       id="path7466"
       inkscape:connector-curvature="0" />
  </g>
  <g
     inkscape:groupmode="layer"
     id="layer3"
     inkscape:label="豚">
    <path
       style="fill:none;stroke:#000000;stroke-width:2;stroke-linecap:butt;stroke-linejoin:miter;stroke-opacity:1"
       d="m 176.03156,263.62717 172.4798,-0.24991"
       id="path7293"
       inkscape:connector-curvature="0"
       sodipodi:nodetypes="cc" />
    <path
       style="fill:none;stroke:#000000;stroke-width:2;stroke-linecap:butt;stroke-linejoin:miter;stroke-opacity:1"
       d="m 280.64631,254.43804 78.46106,0.35343"
       id="path7295"
       inkscape:connector-curvature="0" />
    <path
       style="fill:none;stroke:#000000;stroke-width:2;stroke-linecap:butt;stroke-linejoin:miter;stroke-opacity:1"
       d="m 321.29055,245.2489 33.92911,0"
       id="path7297"
       inkscape:connector-curvature="0" />
    <g
       id="g3263"
       transform="translate(-4.4638679,-0.63859058)">
      <path
         sodipodi:nodetypes="cscccccc"
         inkscape:connector-curvature="0"
         id="path5089-8-7-0-8-2-9-3-0"
         d="m 349.71342,212.22225 c 3.80175,11.50675 -2.33594,29.81085 -7.78743,31.69241 -2.18265,0.75332 -2.63594,-5.30837 -3.83664,-3.24086 -1.56865,2.77962 -4.69437,7.11497 -11.94084,9.58713 l -72.08865,-80.69702 10.21928,-26.55461 19.81431,-10.85324 z"
         style="fill:#ffd5d5;stroke:none;display:inline" />
      <path
         sodipodi:nodetypes="cc"
         inkscape:connector-curvature="0"
         id="path5091-2-40-9-2-8"
         d="m 296.03167,129.49596 c -14.93587,-6.164 -32.92844,6.26658 -33.58298,19.5334"
         style="fill:#ffd5d5;stroke:#000000;stroke-width:2;stroke-linecap:butt;stroke-linejoin:miter;stroke-opacity:1;display:inline" />
      <path
         sodipodi:nodetypes="ccscc"
         inkscape:connector-curvature="0"
         id="path5506"
         d="m 340.46785,235.62843 c 2.32244,0.68922 4.88492,1.21763 7.04468,1.60438 -0.2497,1.94733 -4.22454,7.61875 -6.08663,6.56173 -1.3734,-0.77961 -1.20374,-2.60714 -3.07203,-3.70175 0.71404,-1.33269 1.60096,-3.12422 2.11398,-4.46436 z"
         style="fill:#ffaaaa;stroke:none" />
      <path
         inkscape:connector-curvature="0"
         id="path5486"
         d="m 280.04691,134.96811 c 30.29199,-15.41365 63.99656,2.15374 69.38531,31.09908 3.99065,21.43551 5.91861,42.29687 -3.31907,51.58341"
         style="fill:#ffd5d5;stroke:#000000;stroke-width:2;stroke-linecap:butt;stroke-linejoin:miter;stroke-opacity:1;display:inline"
         sodipodi:nodetypes="csc" />
      <path
         sodipodi:nodetypes="csccscc"
         inkscape:connector-curvature="0"
         id="path3325-8-59"
         d="m 332.07248,246.60592 c 10.80543,4.14255 11.38271,10.60645 6.71671,13.05283 -5.5635,2.9169 -13.52987,3.50695 -27.02391,3.43291 -32.29064,3.36228 -78.42991,2.08753 -95.67762,-0.41255 -7.06997,2.14302 -29.21505,4.00781 -35.0562,1.12471 -13.18599,-6.50842 5.2432,-22.27874 18.59305,-26.88293 -8.12731,-15.36717 8.30974,-56.08101 51.8901,-69.51345"
         style="fill:#ffd5d5;stroke:#000000;stroke-width:2;stroke-linecap:butt;stroke-linejoin:miter;stroke-opacity:1;display:inline" />
      <path
         sodipodi:nodetypes="cc"
         inkscape:connector-curvature="0"
         id="path5093-4-9-4-4-18"
         d="m 267.97062,144.00135 c -9.09218,4.91514 -19.99552,17.77087 -15.37026,33.68134"
         style="fill:#ffd5d5;stroke:#000000;stroke-width:2;stroke-linecap:butt;stroke-linejoin:miter;stroke-opacity:1;display:inline" />
      <path
         sodipodi:nodetypes="cc"
         inkscape:connector-curvature="0"
         id="path5095-5-4-8-5-26"
         d="m 287.85186,150.41838 -7.52923,7.17612"
         style="fill:none;stroke:#000000;stroke-width:2;stroke-linecap:butt;stroke-linejoin:miter;stroke-opacity:1;display:inline" />
      <path
         inkscape:connector-curvature="0"
         id="path5097-5-8-8-5-6"
         d="m 299.85409,159.91157 -7.2438,9.41063"
         style="fill:none;stroke:#000000;stroke-width:2;stroke-linecap:butt;stroke-linejoin:miter;stroke-opacity:1;display:inline"
         sodipodi:nodetypes="cc" />
      <path
         sodipodi:nodetypes="csc"
         inkscape:connector-curvature="0"
         id="path5099-1-8-2-7-0"
         d="m 343.44959,156.79037 c 20.98783,20.39554 3.28867,46.04992 -5.12376,45.67716 -7.14544,-0.31654 -8.06964,-20.55695 -13.03937,-26.70686"
         style="fill:#ffd5d5;stroke:#000000;stroke-width:2;stroke-linecap:butt;stroke-linejoin:miter;stroke-opacity:1;display:inline" />
      <path
         sodipodi:nodetypes="ssssss"
         inkscape:connector-curvature="0"
         id="path5101-7-2-4-1-3"
         d="m 282.34259,160.84399 c 5.36256,3.68903 8.42628,11.24967 9.71959,19.62793 1.81035,11.72779 -5.31877,19.08134 -10.80745,12.81478 -5.14305,-5.87194 -12.76816,-13.08056 -16.88015,-15.36943 -5.26009,-2.92794 -2.8069,-9.84178 0.99894,-14.04914 3.89918,-4.31054 11.71241,-6.64032 16.96907,-3.02414 z"
         style="fill:#ffaaaa;stroke:#000000;stroke-width:2;stroke-linecap:butt;stroke-linejoin:miter;stroke-opacity:1;display:inline" />
      <path
         sodipodi:nodetypes="sss"
         inkscape:connector-curvature="0"
         id="path5105-1-4-55-1-28-8"
         d="m 281.38485,184.29036 c -1.23998,0.78139 -0.89978,-15.3152 0.51103,-14.33485 2.11074,1.46678 3.36134,11.89461 -0.51103,14.33485 z"
         style="fill:#000000;stroke:#000000;stroke-width:2;display:inline" />
      <path
         sodipodi:nodetypes="sss"
         inkscape:connector-curvature="0"
         id="path5107-1-5-1-5-0"
         d="m 276.18097,166.60298 c 1.41584,1.17428 -5.3846,9.5873 -5.95608,8.04223 -1.84861,-4.99792 5.03141,-8.80914 5.95608,-8.04223 z"
         style="fill:#000000;stroke:#000000;stroke-width:2;display:inline" />
      <path
         sodipodi:nodetypes="csc"
         inkscape:connector-curvature="0"
         id="path5089-8-7-0-8-2-9-3"
         d="m 338.28949,240.20541 c 1.2007,-2.06752 1.65399,3.99418 3.83664,3.24085 5.45149,-1.88156 11.58918,-20.18566 7.78743,-31.69241"
         style="fill:none;stroke:#000000;stroke-width:2;stroke-linecap:butt;stroke-linejoin:miter;stroke-opacity:1;display:inline" />
      <path
         sodipodi:nodetypes="cc"
         inkscape:connector-curvature="0"
         id="path5111-7-1-7-7-7-17-3"
         d="m 340.57066,235.99186 c 1.21933,0.57405 4.45023,1.32657 6.33444,1.30644"
         style="fill:none;stroke:#000000;stroke-width:2;stroke-linecap:butt;stroke-linejoin:miter;stroke-opacity:1;display:inline" />
      <path
         sodipodi:nodetypes="cc"
         inkscape:connector-curvature="0"
         id="path4041-3"
         d="m 342.7975,223.44684 c -1.20158,11.11535 -3.66509,21.67388 -16.44885,26.3457"
         style="fill:none;stroke:#000000;stroke-width:2;stroke-linecap:butt;stroke-linejoin:miter;stroke-opacity:1;display:inline" />
      <path
         style="fill:#ffaaaa;stroke:none;display:inline"
         d="m 266.05259,188.02461 c -4.26774,-5.97986 -21.46018,16.97504 -11.93501,21.41141 0,0 9.62373,0.19511 11.84552,-1.99703 1.31745,-1.29987 -0.93861,-3.62762 0.48177,-6.07341 1.2007,-2.06752 5.95067,-0.46519 5.873,-2.77288 -0.14676,-4.36019 -6.26528,-10.56809 -6.26528,-10.56809 z"
         id="path5111-7-1-7-7-7-17-1"
         inkscape:connector-curvature="0"
         sodipodi:nodetypes="ccsssc" />
      <path
         sodipodi:nodetypes="cc"
         inkscape:connector-curvature="0"
         id="path5111-7-1-7-7-7-17"
         d="m 266.19906,188.01589 c -4.26774,-5.97986 -21.46018,16.97504 -11.93502,21.41141"
         style="fill:none;stroke:#000000;stroke-width:2;stroke-linecap:butt;stroke-linejoin:miter;stroke-opacity:1;display:inline" />
      <path
         sodipodi:nodetypes="csssc"
         inkscape:connector-curvature="0"
         id="path5089-8-7-0-8-2-9"
         d="m 227.74302,208.01389 c 14.36263,2.09572 36.04429,2.21133 38.36654,-0.58363 1.18277,-1.42351 -0.93861,-3.62762 0.48177,-6.0734 1.2007,-2.06752 5.88711,-0.46394 5.873,-2.77289 -0.0463,-7.57514 -17.55917,-21.49125 -25.30498,-23.87005"
         style="fill:none;stroke:#000000;stroke-width:2;stroke-linecap:butt;stroke-linejoin:miter;stroke-opacity:1;display:inline" />
      <path
         sodipodi:nodetypes="cc"
         inkscape:connector-curvature="0"
         id="path5095-5-4-8-5-26-1"
         d="m 277.85651,148.73573 28.44439,25.38871"
         style="fill:none;stroke:#000000;stroke-width:2;stroke-linecap:butt;stroke-linejoin:miter;stroke-opacity:1;display:inline" />
    </g>
    <g
       id="g3060"
       transform="translate(3.5444185e-6,0)">
      <path
         sodipodi:nodetypes="csccccc"
         inkscape:connector-curvature="0"
         id="path3386-32-4-9-3"
         d="m 61.957389,175.54494 c -19.371482,19.94689 -19.930253,38.53323 -15.80097,40.50177 2.237949,1.06686 2.5695,-1.3301 4.885968,-2.1252 l 116.857323,-33.54525 -1.39002,-38.87587 -12.14307,-13.73576 z"
         style="fill:#ffd5d5;stroke:none;display:inline" />
      <path
         sodipodi:nodetypes="ccscc"
         inkscape:connector-curvature="0"
         id="path3390-1-6-5"
         d="m 54.746119,206.49329 -9.617502,-2.85793 c -1.400686,3.76267 -1.409195,10.88367 1.015892,12.48787 2.072336,1.37086 1.059557,-0.97572 4.688458,-2.25619 z"
         style="fill:#ff8080;stroke:none;display:inline" />
      <path
         sodipodi:nodetypes="csc"
         inkscape:connector-curvature="0"
         id="path3386-32-4-1"
         d="m 61.626359,175.03633 c -19.371482,19.94689 -19.607328,39.10389 -15.478045,41.07243 2.237949,1.06686 2.5695,-1.3301 4.885968,-2.1252"
         style="fill:none;stroke:#000000;stroke-width:2;stroke-linecap:butt;stroke-linejoin:miter;stroke-opacity:1;display:inline" />
      <path
         sodipodi:nodetypes="cc"
         inkscape:connector-curvature="0"
         id="path3388-2-1-6"
         d="m 44.970327,203.65924 9.662313,2.70971"
         style="fill:none;stroke:#000000;stroke-width:2;stroke-linecap:butt;stroke-linejoin:miter;stroke-opacity:1;display:inline" />
      <path
         sodipodi:nodetypes="cssc"
         inkscape:connector-curvature="0"
         id="path3327-4-4-9-2"
         d="m 59.78751,192.46407 c -13.345432,10.51266 -27.87835,36.10411 -8.98661,57.97834 15.247867,17.6551 74.88964,20.26119 107.13708,6.74175 27.73235,-11.62652 18.97019,-55.28085 10.27469,-78.53927"
         style="fill:#ffd5d5;stroke:#000000;stroke-width:2;stroke-linecap:butt;stroke-linejoin:miter;stroke-opacity:1;display:inline" />
      <path
         sodipodi:nodetypes="csssc"
         inkscape:connector-curvature="0"
         id="path5089-8-7-0-8-2-1-7-0"
         d="m 170.12193,219.98896 c 12.56597,-10.76998 28.67383,-18.68875 30.09303,-21.98951 0.72285,-1.68117 -0.91443,-3.80199 0.49679,-6.21638 1.01667,-1.73939 2.42287,-3.43723 1.82058,-5.63937 -1.235,-4.51539 -21.69457,-10.58283 -35.69475,-9.74757"
         style="fill:#ffd5d5;stroke:#000000;stroke-width:2;stroke-linecap:butt;stroke-linejoin:miter;stroke-opacity:1;display:inline" />
      <path
         sodipodi:nodetypes="csc"
         inkscape:connector-curvature="0"
         id="path3333-4-9-7-5"
         d="m 52.556343,229.905 c -17.033854,-9.80401 -27.330864,-1.82114 -19.595405,11.4422 11.144111,19.10786 40.724363,29.86382 42.943079,14.59526"
         style="fill:#ffd5d5;stroke:#000000;stroke-width:2;stroke-linecap:butt;stroke-linejoin:miter;stroke-opacity:1;display:inline" />
      <path
         sodipodi:nodetypes="csc"
         inkscape:connector-curvature="0"
         id="path5103-8-1-4-9-88-1-7"
         d="m 134.36057,260.29573 c 16.45927,19.83298 38.98757,3.01418 26.02996,-20.58831 -13.19758,-24.0396 -40.69328,-16.75149 -31.43312,9.85616"
         style="fill:#ffd5d5;stroke:#000000;stroke-width:2;stroke-linecap:butt;stroke-linejoin:miter;stroke-opacity:1;display:inline" />
      <path
         sodipodi:nodetypes="cc"
         inkscape:connector-curvature="0"
         id="path5091-2-40-9-2-7-9-6"
         d="m 146.54697,119.51625 c 17.78398,0.84641 25.31087,19.56907 23.28401,32.1483"
         style="fill:#ffd5d5;stroke:#000000;stroke-width:2;stroke-linecap:butt;stroke-linejoin:miter;stroke-opacity:1;display:inline" />
      <path
         sodipodi:nodetypes="csc"
         inkscape:connector-curvature="0"
         id="path4041-2-8-4"
         d="m 155.64807,127.82117 c -23.93152,-27.64521 -66.612236,-14.90872 -82.46078,9.03234 -8.2376,12.44385 -18.164097,33.92797 -9.900295,45.50658"
         style="fill:#ffd5d5;stroke:#000000;stroke-width:2;stroke-linecap:butt;stroke-linejoin:miter;stroke-opacity:1;display:inline" />
      <path
         sodipodi:nodetypes="cc"
         inkscape:connector-curvature="0"
         id="path5093-4-9-4-4-11-5-9"
         d="m 164.8995,143.21296 c 10.63177,12.27535 10.52036,31.80335 2.34829,41.11134"
         style="fill:#ffd5d5;stroke:#000000;stroke-width:2;stroke-linecap:butt;stroke-linejoin:miter;stroke-opacity:1;display:inline" />
      <path
         inkscape:connector-curvature="0"
         id="path5095-5-4-8-5-5-4-7"
         d="m 151.98277,141.28547 -1.48719,8.18742"
         style="fill:none;stroke:#000000;stroke-width:2;stroke-linecap:butt;stroke-linejoin:miter;stroke-opacity:1;display:inline"
         sodipodi:nodetypes="cc" />
      <path
         inkscape:connector-curvature="0"
         id="path5097-5-8-8-5-2-3-3"
         d="m 132.47296,144.03497 6.19652,7.32545"
         style="fill:none;stroke:#000000;stroke-width:2;stroke-linecap:butt;stroke-linejoin:miter;stroke-opacity:1;display:inline"
         sodipodi:nodetypes="cc" />
      <path
         sodipodi:nodetypes="csc"
         inkscape:connector-curvature="0"
         id="path5099-1-8-2-7-7-1-7"
         d="m 88.959598,124.54452 c -27.123321,6.96377 -23.604464,38.65154 -13.271836,44.07431 4.12977,2.16739 16.458449,-17.02199 24.420558,-23.11446"
         style="fill:#ffd5d5;stroke:#000000;stroke-width:2;stroke-linecap:butt;stroke-linejoin:miter;stroke-opacity:1;display:inline" />
      <path
         sodipodi:nodetypes="ssssss"
         inkscape:connector-curvature="0"
         id="path5101-7-2-4-1-6-2-2"
         d="m 149.84271,151.26066 c -7.71719,0.46696 -16.26008,6.58809 -20.83479,12.78549 -8.09035,10.9601 -3.57648,19.33383 4.49298,17.68215 7.7006,-1.57617 16.00805,-1.4938 21.80739,-0.95314 6.60044,0.61535 7.94418,-10.21944 6.96416,-15.53469 -1.03646,-5.62133 -4.96285,-14.43162 -12.42974,-13.97981 z"
         style="fill:#ffaaaa;stroke:#000000;stroke-width:2;stroke-linecap:butt;stroke-linejoin:miter;stroke-opacity:1;display:inline" />
      <path
         sodipodi:nodetypes="sss"
         inkscape:connector-curvature="0"
         id="path5105-1-4-55-1-28-14-3-6"
         d="m 137.87355,174.27934 c 2.00842,2.791 7.80315,-13.92097 6.18514,-14.43812 -1.94892,-0.62289 -9.3663,10.01741 -6.18514,14.43812 z"
         style="fill:#000000;stroke:#000000;stroke-width:2;display:inline" />
      <path
         inkscape:connector-curvature="0"
         id="path5107-1-5-1-5-2-3-0"
         d="m 152.16653,159.19601 c -1.99347,-0.3534 -1.64642,15.80106 0.4723,14.79115 4.08789,-1.94854 1.16811,-14.50034 -0.4723,-14.79115 z"
         style="fill:#000000;stroke:#000000;stroke-width:2;display:inline"
         sodipodi:nodetypes="sss" />
      <path
         sodipodi:nodetypes="cccc"
         inkscape:connector-curvature="0"
         id="path5480"
         d="m 220.39701,178.12977 c -7.13281,8.65341 -3.89861,17.3068 -2.39633,25.9602 -15.45624,2.65804 -28.55618,1.68347 -31.35195,-15.17673 9.87147,-9.1063 19.72086,-18.30093 33.74828,-10.78347 z"
         style="fill:#c87137;stroke:#000000;stroke-width:2;stroke-linecap:butt;stroke-linejoin:miter;stroke-opacity:1;display:inline" />
      <g
         transform="matrix(1.3030116,0,0,1.3030116,-841.54503,-214.20225)"
         id="g5694"
         style="stroke-width:1.53490579;display:inline">
        <path
           sodipodi:type="arc"
           style="fill:#fefefe;fill-opacity:1;stroke:none;display:inline"
           id="path8220-2-6"
           sodipodi:cx="324.49707"
           sodipodi:cy="134.27634"
           sodipodi:rx="26.175819"
           sodipodi:ry="26.175819"
           d="m 350.67289,134.27634 a 26.175819,26.175819 0 1 1 -52.35164,0 26.175819,26.175819 0 1 1 52.35164,0 z"
           transform="matrix(0.35994717,0,0,0.35994717,689.44574,261.53207)" />
        <path
           style="fill:none;stroke:#ff0000;stroke-width:1.53490579;stroke-linecap:butt;stroke-linejoin:miter;stroke-opacity:1;display:inline"
           d="m 797.08132,307.64367 c 2.69357,-3.64869 8.31198,-1.28596 10.3208,2.8605 2.18593,4.51205 1.35387,8.27083 -3.34553,8.53866"
           id="path8233-2"
           inkscape:connector-curvature="0"
           sodipodi:nodetypes="csc" />
        <path
           style="fill:none;stroke:#ff0000;stroke-width:1.53490579;stroke-linecap:butt;stroke-linejoin:miter;stroke-opacity:1;display:inline"
           d="m 810.09754,301.25842 c 0.69939,0.96674 2.38317,3.09738 3.42961,5.7352 0.91408,2.30414 1.9248,5.12141 1.49491,6.34381"
           id="path8235-1"
           inkscape:connector-curvature="0"
           sodipodi:nodetypes="csc" />
        <path
           sodipodi:type="arc"
           style="fill:none;stroke:#000000;stroke-width:4.26425266;stroke-linecap:round;stroke-miterlimit:4;stroke-opacity:1;stroke-dasharray:none;stroke-dashoffset:0;display:inline"
           id="path8220-2"
           sodipodi:cx="324.49707"
           sodipodi:cy="134.27634"
           sodipodi:rx="26.175819"
           sodipodi:ry="26.175819"
           d="m 350.67289,134.27634 a 26.175819,26.175819 0 1 1 -52.35164,0 26.175819,26.175819 0 1 1 52.35164,0 z"
           transform="matrix(0.35994717,0,0,0.35994717,689.44573,261.53207)" />
      </g>
      <path
         sodipodi:nodetypes="ssssssss"
         inkscape:connector-curvature="0"
         id="path5478"
         d="m 232.78633,186.11166 c 6.13527,-4.61673 -0.40093,-14.64692 -11.84814,-18.96905 -18.19049,-6.86816 -44.00294,2.08826 -47.83094,20.53821 -3.64534,17.56967 12.0351,23.09954 26.98461,23.41851 19.07336,0.40697 37.68095,-8.05794 32.31798,-16.50072 -5.43911,-8.56259 -25.03065,-0.80261 -34.40764,2.9382 -7.96241,3.17649 -2.23726,-18.99969 3.77824,-15.21388 5.67646,3.57244 23.07461,9.75694 31.00589,3.78873 z"
         style="fill:#d38d5f;stroke:#000000;stroke-width:2;stroke-linecap:butt;stroke-linejoin:miter;stroke-opacity:1;display:inline" />
    </g>
  </g>
  <g
     inkscape:groupmode="layer"
     id="layer4"
     inkscape:label="字幕"
     sodipodi:insensitive="true">
    <text
       xml:space="preserve"
       style="font-size:64px;font-style:normal;font-weight:normal;line-height:125%;letter-spacing:0px;word-spacing:0px;writing-mode:lr-tb;fill:#000000;fill-opacity:1;stroke:none;font-family:Sans"
       x="70.489738"
       y="71.945724"
       id="text6768"
       sodipodi:linespacing="125%"><tspan
         sodipodi:role="line"
         id="tspan6770"
         x="70.489738"
         y="71.945724">アウト!!</tspan></text>
  </g>
  <g
     inkscape:groupmode="layer"
     id="layer2"
     inkscape:label="枠面"
     sodipodi:insensitive="true">
    <path
       style="fill:#ffffff;stroke:none;display:inline"
       d="m 0,0 0,320 370,0 0,-320 -10,10 0,300 -350,0 0,-300 350,0 10,-10 z"
       id="path21072"
       inkscape:connector-curvature="0"
       sodipodi:nodetypes="ccccccccccc" />
  </g>
</svg>
