<?xml version="1.0" encoding="UTF-8" standalone="no"?>
<!-- Created with Inkscape (http://www.inkscape.org/) -->

<svg
   xmlns:dc="http://purl.org/dc/elements/1.1/"
   xmlns:cc="http://creativecommons.org/ns#"
   xmlns:rdf="http://www.w3.org/1999/02/22-rdf-syntax-ns#"
   xmlns:svg="http://www.w3.org/2000/svg"
   xmlns="http://www.w3.org/2000/svg"
   xmlns:sodipodi="http://sodipodi.sourceforge.net/DTD/sodipodi-0.dtd"
   xmlns:inkscape="http://www.inkscape.org/namespaces/inkscape"
   width="370"
   height="320"
   id="svg3172"
   version="1.1"
   inkscape:version="0.48.4 r9939"
   sodipodi:docname="[27.壊滅].svg">
  <defs
     id="defs3174" />
  <sodipodi:namedview
     id="base"
     pagecolor="#ffffff"
     bordercolor="#666666"
     borderopacity="1.0"
     inkscape:pageopacity="0.0"
     inkscape:pageshadow="2"
     inkscape:zoom="1.5777382"
     inkscape:cx="212.23729"
     inkscape:cy="187.52125"
     inkscape:document-units="px"
     inkscape:current-layer="layer3"
     showgrid="false"
     inkscape:window-width="1245"
     inkscape:window-height="698"
     inkscape:window-x="-5"
     inkscape:window-y="-5"
     inkscape:window-maximized="0" />
  <metadata
     id="metadata3177">
    <rdf:RDF>
      <cc:Work
         rdf:about="">
        <dc:format>image/svg+xml</dc:format>
        <dc:type
           rdf:resource="http://purl.org/dc/dcmitype/StillImage" />
        <dc:title />
      </cc:Work>
    </rdf:RDF>
  </metadata>
  <g
     inkscape:label="補助線"
     inkscape:groupmode="layer"
     id="layer1"
     transform="translate(0,-732.36218)"
     sodipodi:insensitive="true"
     style="display:none">
    <path
       style="fill:none;stroke:#0000ff;stroke-width:1px;stroke-linecap:butt;stroke-linejoin:miter;stroke-opacity:1;display:inline"
       d="M 10,1042.3622 360,742.36211"
       id="path3025"
       inkscape:connector-curvature="0"
       sodipodi:nodetypes="cc" />
    <path
       style="fill:none;stroke:#0000ff;stroke-width:1px;stroke-linecap:butt;stroke-linejoin:miter;stroke-opacity:1;display:inline"
       d="M 10,742.36211 360,1042.3622"
       id="path3027"
       inkscape:connector-curvature="0"
       sodipodi:nodetypes="cc" />
    <path
       style="fill:none;stroke:#ff0000;stroke-width:1px;stroke-linecap:butt;stroke-linejoin:miter;stroke-opacity:1;display:inline"
       d="m 10,732.36211 0,320.00009"
       id="path3006"
       inkscape:connector-curvature="0"
       sodipodi:nodetypes="cc" />
    <path
       style="fill:none;stroke:#ff0000;stroke-width:1px;stroke-linecap:butt;stroke-linejoin:miter;stroke-opacity:1;display:inline"
       d="m 360,732.36211 0,320.00009"
       id="path3010"
       inkscape:connector-curvature="0"
       sodipodi:nodetypes="cc" />
    <path
       style="fill:none;stroke:#ff0000;stroke-width:1px;stroke-linecap:butt;stroke-linejoin:miter;stroke-opacity:1;display:inline"
       d="m 0,742.36208 370,3e-5"
       id="path3016"
       inkscape:connector-curvature="0" />
    <path
       style="fill:none;stroke:#ff0000;stroke-width:1px;stroke-linecap:butt;stroke-linejoin:miter;stroke-opacity:1;display:inline"
       d="m 0,1042.3622 370,0"
       id="path3018"
       inkscape:connector-curvature="0"
       sodipodi:nodetypes="cc" />
  </g>
  <g
     inkscape:groupmode="layer"
     id="layer3"
     inkscape:label="豚"
     style="display:inline"
     sodipodi:insensitive="true">
    <g
       style="stroke-width:2.60428619;display:inline"
       id="g9767"
       transform="matrix(-0.76683012,0.04173087,0.04173087,0.76683012,278.68426,-780.88286)">
      <path
         sodipodi:nodetypes="cscsccscccc"
         inkscape:connector-curvature="0"
         id="path9386"
         d="m 263.85861,1208.193 c 18.57656,10.4443 47.09521,32.6475 40.25926,42.1871 -4.96514,6.9289 -16.66268,11.7402 -36.605,14.114 4.31693,21.8633 -4.80805,82.3233 -21.44123,84.8397 -12.02738,1.8196 -21.94703,-9.4239 -33.83976,-21.0862 l -36.47929,2.5655 c 1.72673,11.603 -2.13399,24.2039 -11.74086,24.8936 -21.29358,1.5291 -107.36792,-82.6082 -56.17497,-168.5559 l 53.85793,-45.6662 19.77921,-5.2856 z"
         style="fill:#ffd5d5;stroke:#000000;stroke-width:2.60428619;stroke-linecap:butt;stroke-linejoin:miter;stroke-opacity:1" />
      <path
         sodipodi:nodetypes="csssccc"
         inkscape:connector-curvature="0"
         id="path5109-2-7-7-2-9-8-4-8"
         d="m 107.99927,1190.8629 c 1.82155,-29.7613 17.00448,-53.2063 22.51755,-56.8591 2.06472,-1.368 4.3742,3.7102 6.24916,3.1631 3.52008,-1.0273 4.7765,-3.1092 7.36285,-2.7237 1.69164,0.2521 6.5601,6.6308 7.61516,11.745 l 15.03491,57.4508 z"
         style="fill:#ffd5d5;stroke:none;display:inline" />
      <path
         sodipodi:nodetypes="sssccs"
         inkscape:connector-curvature="0"
         id="path5109-2-7-7-2-9-8-4-7"
         d="m 144.09664,1134.9868 c -2.58635,-0.3855 -3.84277,1.6964 -7.36285,2.7237 -1.87496,0.5471 -4.18445,-4.5311 -6.24916,-3.1631 -5.51308,3.6528 -10.14868,13.7873 -10.14868,13.7873 5.81883,-4.7262 22.28825,-7.2685 29.91599,-5.4565 0,0 -4.46366,-7.6393 -6.1553,-7.8914 z"
         style="fill:#ffaaaa;stroke:none;display:inline" />
      <path
         sodipodi:nodetypes="cc"
         inkscape:connector-curvature="0"
         id="path5091-2-4-0-7-2-5"
         d="m 198.09676,1136.6074 c -11.01005,-7.3563 -34.30499,-6.0821 -42.25752,8.4455"
         style="fill:#ffd5d5;stroke:#000000;stroke-width:2.60428619;stroke-linecap:butt;stroke-linejoin:miter;stroke-opacity:1;display:inline" />
      <path
         sodipodi:nodetypes="csc"
         inkscape:connector-curvature="0"
         id="path3536-4-7-61-7"
         d="m 176.01924,1137.9849 c 35.66338,-11.205 63.60779,8.471 74.42291,30.7588 10.17241,20.9634 16.56133,40.5876 10.5635,56.5418"
         style="fill:#ffd5d5;stroke:#000000;stroke-width:2.60428619;stroke-linecap:butt;stroke-linejoin:miter;stroke-opacity:1;display:inline" />
      <path
         sodipodi:nodetypes="cc"
         inkscape:connector-curvature="0"
         id="path5093-4-2-9-9-4-11"
         d="m 165.62962,1140.4327 c -11.7199,1.5709 -37.81046,15.5037 -34.58106,44.2179"
         style="fill:#ffd5d5;stroke:#000000;stroke-width:2.60428619;stroke-linecap:butt;stroke-linejoin:miter;stroke-opacity:1;display:inline" />
      <path
         sodipodi:nodetypes="cc"
         inkscape:connector-curvature="0"
         id="path5095-5-3-4-3-2-5"
         d="m 185.913,1145.1085 c -0.38002,2.2534 -1.97458,6.1476 -3.09936,7.8409"
         style="fill:none;stroke:#000000;stroke-width:2.60428619;stroke-linecap:butt;stroke-linejoin:miter;stroke-opacity:1;display:inline" />
      <path
         sodipodi:nodetypes="cc"
         inkscape:connector-curvature="0"
         id="path5097-5-2-8-1-5-2"
         d="m 201.44028,1158.5871 c -3.10176,0.3423 -7.55375,0.4483 -10.2806,1.3432"
         style="fill:none;stroke:#000000;stroke-width:2.60428619;stroke-linecap:butt;stroke-linejoin:miter;stroke-opacity:1;display:inline" />
      <path
         sodipodi:nodetypes="csc"
         inkscape:connector-curvature="0"
         id="path5099-1-2-8-9-8-7"
         d="m 241.62643,1160.4324 c 26.08057,16.329 25.74068,55.8879 1.11038,61.1177 -8.32185,1.767 -6.66048,-27.0916 -12.97915,-38.1645"
         style="fill:#ffd5d5;stroke:#000000;stroke-width:2.60428619;stroke-linecap:butt;stroke-linejoin:miter;stroke-opacity:1;display:inline" />
      <path
         sodipodi:nodetypes="ssssss"
         inkscape:connector-curvature="0"
         id="path5101-7-1-2-8-62-6"
         d="m 183.69377,1150.6518 c 12.10231,5.9336 15.36988,19.7558 15.63492,29.9034 0.31135,11.9208 -8.04532,20.6801 -18.97802,10.9862 -7.0363,-6.239 -12.03238,-9.8821 -22.64127,-13.3876 -8.53453,-2.82 -8.78116,-9.9039 -2.25416,-17.3858 6.79497,-7.789 20.66516,-13.8293 28.23853,-10.1162 z"
         style="fill:#ffaaaa;stroke:#000000;stroke-width:2.60428619;stroke-linecap:butt;stroke-linejoin:miter;stroke-opacity:1;display:inline" />
      <path
         sodipodi:nodetypes="sss"
         inkscape:connector-curvature="0"
         id="path5105-1-6-4-6-6-1"
         d="m 182.29476,1181.5166 c -2.47203,0.4502 -1.1448,-21.1414 0.7142,-20.7699 2.23909,0.4472 9.76716,18.8611 -0.7142,20.7699 z"
         style="fill:#000000;stroke:#000000;stroke-width:2.60428619;display:inline" />
      <path
         sodipodi:nodetypes="sss"
         inkscape:connector-curvature="0"
         id="path5107-1-8-55-5-5-42"
         d="m 175.84318,1157.0717 c 1.24497,0.8626 -10.53272,17.9586 -11.32243,15.4369 -2.59435,-8.2845 9.52038,-16.6867 11.32243,-15.4369 z"
         style="fill:#000000;stroke:#000000;stroke-width:2.60428619;display:inline" />
      <path
         sodipodi:nodetypes="csssc"
         inkscape:connector-curvature="0"
         id="path5109-2-7-7-2-9-8-4"
         d="m 107.80786,1191.4282 c 1.82155,-29.7613 17.00448,-53.2063 22.51755,-56.8591 2.06472,-1.368 4.3742,3.7102 6.24916,3.1631 3.52008,-1.0273 4.7765,-3.1092 7.36285,-2.7237 1.69164,0.2521 6.5601,6.6308 7.61516,11.745"
         style="fill:none;stroke:#000000;stroke-width:2.60428619;stroke-linecap:butt;stroke-linejoin:miter;stroke-opacity:1;display:inline" />
      <path
         sodipodi:nodetypes="cc"
         inkscape:connector-curvature="0"
         id="path5111-7-6-1-8-2-7-2"
         d="m 120.17673,1148.3564 c 5.81883,-4.7262 22.28825,-7.2685 29.91599,-5.4565"
         style="fill:none;stroke:#000000;stroke-width:2.60428619;stroke-linecap:butt;stroke-linejoin:miter;stroke-opacity:1;display:inline" />
    </g>
    <g
       style="stroke-width:2.60428619;display:inline"
       id="g9878"
       transform="matrix(-0.56314495,0.52214716,0.52214716,0.56314495,-283.41455,-783.09721)">
      <path
         sodipodi:nodetypes="cc"
         inkscape:connector-curvature="0"
         id="path5091-2-4-0-7-2-27"
         d="m 587.59091,1227.0851 c 24.38665,-0.2312 38.32028,18.8854 35.45488,39.1948"
         style="fill:#ffd5d5;stroke:#000000;stroke-width:2.60428619;stroke-linecap:butt;stroke-linejoin:miter;stroke-opacity:1;display:inline" />
      <path
         id="path3536-4-7-61-5-7"
         d="m 474.27193,1404.4901 c 0.57779,9.025 6.74635,15.3188 14.46289,17.0567 23.48687,5.2898 67.21296,-7.7401 123.05476,-79.1736 24.3753,-20.7733 47.82748,-45.3189 47.42314,-52.3876 -0.14754,-2.5796 -1.33851,-4.0407 -2.28229,-5.8463 -1.77166,-3.3899 3.3992,-7.727 1.34543,-9.522 -4.70612,-4.1128 -28.49032,-2.0215 -40.87061,2.6544"
         style="fill:#ffd5d5;stroke:none;display:inline"
         inkscape:connector-curvature="0" />
      <path
         style="fill:#ffaaaa;stroke:none;display:inline"
         d="m 658.2826,1274.7286 c 2.05382,1.7949 -3.11708,6.1321 -1.34542,9.522 0.94378,1.8056 1.87441,3.2949 2.28229,5.8463 0.76494,4.785 -9.65621,14.784 -9.65621,14.784 1.54324,-7.124 -2.71772,-27.6726 -9.59382,-32.0996 0,0 13.6071,-2.1656 18.31316,1.9473 z"
         id="path3536-4-7-61-5-8"
         inkscape:connector-curvature="0"
         sodipodi:nodetypes="sssccs" />
      <path
         id="path3536-4-7-61-5"
         d="m 474.395,1404.5104 c 0.57779,9.025 6.74635,15.3188 14.46288,17.0567 23.48687,5.2898 67.21296,-7.7401 123.05476,-79.1736 24.3753,-20.7733 47.82748,-45.3189 47.42314,-52.3876 -0.14754,-2.5796 -1.33851,-4.0407 -2.28229,-5.8463 -1.77166,-3.3899 3.3992,-7.727 1.34543,-9.522 -4.70612,-4.1128 -28.49032,-2.0215 -40.87061,2.6544"
         style="fill:none;stroke:#000000;stroke-width:2.60428619;stroke-linecap:butt;stroke-linejoin:miter;stroke-opacity:1;display:inline"
         inkscape:connector-curvature="0" />
      <path
         sodipodi:nodetypes="ccccc"
         inkscape:connector-curvature="0"
         id="path5093-4-2-9-9-4-4-1"
         d="m 618.26147,1258.278 c 9.25611,9.517 17.1541,34.1716 2.28619,52.1586 l -131.69084,78.9922 116.2667,-143.8655 z"
         style="fill:#ffd5d5;stroke:none;display:inline" />
      <path
         sodipodi:nodetypes="ccsssc"
         inkscape:connector-curvature="0"
         id="path5111-7-6-1-8-2-7-5-3"
         d="m 554.99494,1355.0573 c -5.06191,-7.1448 14.39419,-30.2133 20.6554,-28.5342 0,0 8.0501,9.8283 5.40517,14.7701 -1.64206,3.068 -7.03382,1.3929 -8.75219,3.0574 -2.19863,2.1298 0.0519,6.2718 -1.68126,8.4179 -2.22701,2.7575 -15.62712,2.2888 -15.62712,2.2888 z"
         style="fill:#ffaaaa;stroke:none;display:inline" />
      <path
         id="path9840"
         d="m 608.90973,1243.229 c -23.40631,-28.2745 -59.9765,-27.2282 -85.45388,-11.8039 -26.28843,15.9153 -36.94955,29.1681 -43.1536,43.2026 -58.26548,55.7308 -47.90541,125.2115 -34.20936,131.8796 10.72732,5.2228 25.23875,1.8327 42.59628,-9.9736"
         style="fill:#ffd5d5;stroke:#000000;stroke-width:2.60428619;stroke-linecap:butt;stroke-linejoin:miter;stroke-opacity:1;display:inline"
         inkscape:connector-curvature="0" />
      <path
         sodipodi:nodetypes="cc"
         inkscape:connector-curvature="0"
         id="path5093-4-2-9-9-4-4"
         d="m 618.31374,1258.395 c 9.25611,9.517 17.1541,34.1716 2.28619,52.1586"
         style="fill:none;stroke:#000000;stroke-width:2.60428619;stroke-linecap:butt;stroke-linejoin:miter;stroke-opacity:1;display:inline" />
      <path
         sodipodi:nodetypes="cc"
         inkscape:connector-curvature="0"
         id="path5095-5-3-4-3-2-3"
         d="m 595.33835,1251.4625 c -0.39381,2.8605 -0.22813,6.5993 -0.85147,9.6268"
         style="fill:none;stroke:#000000;stroke-width:2.60428619;stroke-linecap:butt;stroke-linejoin:miter;stroke-opacity:1;display:inline" />
      <path
         sodipodi:nodetypes="cc"
         inkscape:connector-curvature="0"
         id="path5097-5-2-8-1-5-1"
         d="m 570.84248,1256.3391 c 2.87192,2.1006 5.55324,3.6536 8.77933,7.1016"
         style="fill:none;stroke:#000000;stroke-width:2.60428619;stroke-linecap:butt;stroke-linejoin:miter;stroke-opacity:1;display:inline" />
      <path
         sodipodi:nodetypes="csc"
         inkscape:connector-curvature="0"
         id="path5099-1-2-8-9-8-2"
         d="m 522.5935,1237.83 c -30.40647,5.0791 -35.16077,45.3927 -14.54153,58.5878 7.7777,4.9773 17.88964,-20.1344 25.04027,-26.6811"
         style="fill:none;stroke:#000000;stroke-width:2.60428619;stroke-linecap:butt;stroke-linejoin:miter;stroke-opacity:1;display:inline" />
      <path
         sodipodi:nodetypes="ssssss"
         inkscape:connector-curvature="0"
         id="path5101-7-1-2-8-62-3"
         d="m 592.90024,1261.9051 c -8.13251,0.9568 -21.47493,11.1526 -25.66901,25.5295 -3.21105,11.0072 -1.99598,20.2085 9.94864,16.5265 9.5566,-2.9461 18.47847,-6.7923 25.34404,-5.651 10.43781,1.7343 13.65966,-10.5147 8.7798,-21.1355 -4.93529,-10.7414 -10.55448,-16.1929 -18.40347,-15.2695 z"
         style="fill:#ffaaaa;stroke:#000000;stroke-width:2.60428619;stroke-linecap:butt;stroke-linejoin:miter;stroke-opacity:1;display:inline" />
      <path
         sodipodi:nodetypes="sss"
         inkscape:connector-curvature="0"
         id="path5105-1-6-4-6-6-3"
         d="m 579.83706,1293.3458 c 2.01978,2.1609 10.68294,-18.6196 8.5782,-19.3614 -2.53486,-0.8939 -14.32807,13.2098 -8.5782,19.3614 z"
         style="fill:#000000;stroke:#000000;stroke-width:2.60428619;display:inline" />
      <path
         sodipodi:nodetypes="sss"
         inkscape:connector-curvature="0"
         id="path5107-1-8-55-5-5-41"
         d="m 597.67031,1272.7729 c -1.77867,0.1244 1.21558,18.3012 3.35323,16.0415 4.72094,-4.9902 -0.77809,-16.2229 -3.35323,-16.0415 z"
         style="fill:#000000;stroke:#000000;stroke-width:2.60428619;display:inline" />
      <path
         sodipodi:nodetypes="cc"
         inkscape:connector-curvature="0"
         id="path5111-7-6-1-8-2-7"
         d="m 649.67958,1305.7515 c 1.54324,-7.1241 -2.71773,-28.6342 -9.59382,-33.0612"
         style="fill:none;stroke:#000000;stroke-width:2.60428619;stroke-linecap:butt;stroke-linejoin:miter;stroke-opacity:1;display:inline" />
      <path
         sodipodi:nodetypes="csssc"
         inkscape:connector-curvature="0"
         id="path5109-2-7-7-2-9-8-6"
         d="m 523.30148,1346.9823 c 21.52174,10.1647 44.89998,9.1289 47.72194,5.6914 1.75035,-2.1321 -0.51737,-6.2881 1.68126,-8.4179 1.71837,-1.6645 7.56071,0.2121 8.75219,-3.0574 2.72985,-7.4916 -14.1501,-28.9239 -27.88938,-36.622"
         style="fill:none;stroke:#000000;stroke-width:2.60428619;stroke-linecap:butt;stroke-linejoin:miter;stroke-opacity:1;display:inline" />
      <path
         sodipodi:nodetypes="cc"
         inkscape:connector-curvature="0"
         id="path5111-7-6-1-8-2-7-5"
         d="m 555.3963,1354.9625 c -5.06191,-7.1448 14.39419,-30.2133 20.6554,-28.5342"
         style="fill:none;stroke:#000000;stroke-width:2.60428619;stroke-linecap:butt;stroke-linejoin:miter;stroke-opacity:1;display:inline" />
    </g>
    <path
       style="fill:#ffd5d5;stroke:#000000;stroke-width:2;stroke-linecap:butt;stroke-linejoin:miter;stroke-opacity:1;display:inline"
       d="m 211.62209,220.41291 c 9.62028,-53.50368 137.25472,-67.87641 140.72156,35.00982 14.41395,29.11512 0.68196,31.69825 -17.29087,26.27934 -70.60803,34.2182 -135.2957,4.69864 -123.43069,-61.28916 z"
       id="path9402"
       inkscape:connector-curvature="0"
       sodipodi:nodetypes="sccs" />
    <g
       style="stroke-width:2.60428619;display:inline"
       id="g10047"
       transform="matrix(0.76796478,0,0,0.76796478,-129.5129,-507.25227)">
      <path
         sodipodi:nodetypes="cssscsc"
         inkscape:connector-curvature="0"
         id="path5109-2-7-7-2-9-8-7-8"
         d="m 304.58791,1007.4066 c -11.81157,4.631 -36.28024,20.0254 -35.35895,26.2449 0.57724,3.8969 5.11464,2.6101 6.03315,6.1601 0.48921,1.8909 -1.31143,6.8248 0.39111,8.6237 3.94235,4.1654 48.83467,2.6388 77.58945,2.5728 45.29933,1.4453 182.74175,6.1349 180.6017,-8.662 -3.70229,-25.5987 -69.55573,-66.99204 -89.4291,-66.83144"
         style="fill:#ffd5d5;stroke:none;display:inline" />
      <path
         sodipodi:nodetypes="ccsssc"
         inkscape:connector-curvature="0"
         id="path5111-7-6-1-8-2-7-7-6"
         d="m 287.11327,1050.6432 c 7.55302,-4.4475 -2.8105,-28.7884 -9.43421,-27.8188 0,0 -10.03676,7.1281 -8.86049,10.7978 1.20248,3.7514 5.11464,2.6101 6.03315,6.1601 0.48921,1.8909 -1.34237,6.8546 0.39111,8.6237 2.58243,2.6355 11.87044,2.2372 11.87044,2.2372 z"
         style="fill:#ffaaaa;stroke:none;display:inline" />
      <path
         sodipodi:nodetypes="cssscsc"
         inkscape:connector-curvature="0"
         id="path5109-2-7-7-2-9-8-7"
         d="m 304.03506,1007.3769 c -11.81157,4.631 -36.28024,20.0254 -35.35895,26.2449 0.57724,3.8969 5.11464,2.6101 6.03315,6.1601 0.48921,1.8909 -1.31143,6.8248 0.39111,8.6237 3.94235,4.1654 48.83467,2.6388 77.58945,2.5728 45.29933,1.4453 182.74176,6.1349 180.60171,-8.662 -3.70229,-25.5987 -69.55573,-66.992 -89.4291,-66.83138"
         style="fill:none;stroke:#000000;stroke-width:2.60428619;stroke-linecap:butt;stroke-linejoin:miter;stroke-opacity:1;display:inline" />
      <path
         sodipodi:nodetypes="cc"
         inkscape:connector-curvature="0"
         id="path5111-7-6-1-8-2-7-7"
         d="m 286.97081,1050.6428 c 7.55302,-4.4475 -2.8105,-28.7884 -9.43421,-27.8188"
         style="fill:none;stroke:#000000;stroke-width:2.60428619;stroke-linecap:butt;stroke-linejoin:miter;stroke-opacity:1;display:inline" />
    </g>
    <g
       style="stroke-width:2.60428619;display:inline"
       id="g9988"
       transform="matrix(-0.76796478,0,0,0.76796478,761.85428,-867.03592)">
      <path
         sodipodi:nodetypes="cc"
         inkscape:connector-curvature="0"
         id="path5091-2-4-0-7-2-2"
         d="m 607.41936,1401.5817 c -21.59155,11.9771 -20.00546,43.4498 -8.16967,52.0251"
         style="fill:#ffd5d5;stroke:#000000;stroke-width:2.60428619;stroke-linecap:butt;stroke-linejoin:miter;stroke-opacity:1;display:inline" />
      <path
         sodipodi:nodetypes="csssc"
         inkscape:connector-curvature="0"
         id="path5109-2-7-7-2-9-8-7-4-96"
         d="m 602.81654,1467.8052 c -9.72327,10.7878 -18.96441,33.4416 -14.29783,39.3709 1.52283,1.9349 4.05486,-0.566 7.86735,-0.2064 3.65066,0.3443 4.48922,3.8313 7.03701,4.42 4.52269,1.045 47.36065,-18.8208 60.6246,-28.6717"
         style="fill:#ffd5d5;stroke:none;display:inline" />
      <path
         sodipodi:nodetypes="sssccs"
         inkscape:connector-curvature="0"
         id="path5109-2-7-7-2-9-8-7-4-0"
         d="m 603.36474,1511.271 c -2.56918,-0.487 -3.38635,-4.0757 -7.03701,-4.42 -3.81249,-0.3596 -6.14483,1.9659 -7.86735,0.2064 -3.39166,-3.4645 0.26836,-11.837 0.26836,-11.837 6.67537,-5.3051 29.37883,7.5948 23.38943,14.1586 0,0 -5.93063,2.427 -8.75343,1.892 z"
         style="fill:#ffaaaa;stroke:none;display:inline" />
      <path
         sodipodi:nodetypes="csssc"
         inkscape:connector-curvature="0"
         id="path5109-2-7-7-2-9-8-7-4"
         d="m 602.74538,1467.7926 c -9.72327,10.7878 -18.96441,33.4416 -14.29783,39.3709 1.52283,1.9349 4.05486,-0.566 7.86735,-0.2064 3.65066,0.3443 4.48922,3.8313 7.03701,4.42 4.52269,1.045 47.36065,-18.8208 60.6246,-28.6717"
         style="fill:none;stroke:#000000;stroke-width:2.60428619;stroke-linecap:butt;stroke-linejoin:miter;stroke-opacity:1;display:inline" />
      <path
         sodipodi:nodetypes="cc"
         inkscape:connector-curvature="0"
         id="path5111-7-6-1-8-2-7-7-1"
         d="m 588.71591,1495.3265 c 6.67537,-5.3051 28.99635,7.3823 23.00695,13.9461"
         style="fill:none;stroke:#000000;stroke-width:2.60428619;stroke-linecap:butt;stroke-linejoin:miter;stroke-opacity:1;display:inline" />
      <path
         sodipodi:nodetypes="ccccc"
         id="path9947-9"
         d="m 629.84377,1484.3323 c -20.60123,-1.2348 -38.01148,-14.0772 -31.55623,-46.2888 l 3.93007,-19.7495 36.45358,57.6358 z"
         style="fill:#ffd5d5;stroke:none;display:inline"
         inkscape:connector-curvature="0" />
      <path
         id="path9947"
         d="m 629.77847,1484.3132 c -20.60123,-1.2348 -38.01148,-14.0772 -31.55623,-46.2888"
         style="fill:none;stroke:#000000;stroke-width:2.60428619;stroke-linecap:butt;stroke-linejoin:miter;stroke-opacity:1;display:inline"
         inkscape:connector-curvature="0" />
      <path
         id="path5093-4-2-9-9-4-6"
         d="m 599.11333,1416.2152 c 9.70099,-34.3144 46.82621,-54.9778 96.78094,-51.5016 19.31607,1.3442 85.88554,16.9395 94.63228,65.1883 8.93231,49.2724 -97.66017,63.7629 -147.42997,57.0931"
         style="fill:#ffd5d5;stroke:#000000;stroke-width:2.60428619;stroke-linecap:butt;stroke-linejoin:miter;stroke-opacity:1;display:inline"
         inkscape:connector-curvature="0" />
      <path
         sodipodi:nodetypes="cc"
         inkscape:connector-curvature="0"
         id="path5095-5-3-4-3-2-8"
         d="m 612.59045,1445.2516 c 1.0577,2.2524 1.68824,1.5507 1.96345,3.7231"
         style="fill:none;stroke:#000000;stroke-width:2.60428619;stroke-linecap:butt;stroke-linejoin:miter;stroke-opacity:1;display:inline" />
      <path
         sodipodi:nodetypes="cc"
         inkscape:connector-curvature="0"
         id="path5097-5-2-8-1-5-5"
         d="m 632.15346,1442.3245 c -1.448,2.5169 -0.20634,4.5168 -1.94944,7.7292"
         style="fill:none;stroke:#000000;stroke-width:2.60428619;stroke-linecap:butt;stroke-linejoin:miter;stroke-opacity:1;display:inline" />
      <path
         sodipodi:nodetypes="csc"
         inkscape:connector-curvature="0"
         id="path5099-1-2-8-9-8-76"
         d="m 664.92972,1400.0283 c 20.73127,-8.9723 46.23681,20.7626 36.84163,39.312 -4.11949,8.1334 -25.89551,-6.6066 -36.84121,-5.8743"
         style="fill:#ffd5d5;stroke:#000000;stroke-width:2.60428619;stroke-linecap:butt;stroke-linejoin:miter;stroke-opacity:1;display:inline" />
      <path
         sodipodi:nodetypes="ssssss"
         inkscape:connector-curvature="0"
         id="path5101-7-1-2-8-62-1"
         d="m 613.85133,1449.3479 c 7.09219,-1.8943 23.28071,2.2424 34.33928,9.9313 11.48553,7.9858 12.24987,18.4549 -1.12579,17.0559 -12.00904,-1.2561 -19.50063,-1.1007 -23.92085,0.7696 -6.74463,2.8538 -11.65194,-6.0089 -13.3147,-11.5654 -1.54481,-5.1624 -1.30783,-14.7678 4.02206,-16.1914 z"
         style="fill:#ffaaaa;stroke:#000000;stroke-width:2.60428619;stroke-linecap:butt;stroke-linejoin:miter;stroke-opacity:1;display:inline" />
      <path
         sodipodi:nodetypes="sss"
         inkscape:connector-curvature="0"
         id="path5105-1-6-4-6-6-8"
         d="m 641.99567,1469.0991 c 0.0275,2.2898 -17.2605,-10.8209 -15.8965,-11.5484 1.64281,-0.8763 15.80198,3.6833 15.8965,11.5484 z"
         style="fill:#000000;stroke:#000000;stroke-width:2.60428619;display:inline" />
      <path
         sodipodi:nodetypes="sss"
         inkscape:connector-curvature="0"
         id="path5107-1-8-55-5-5-9"
         d="m 616.69284,1457.5743 c 1.26568,0.067 9.55402,13.3118 6.9527,12.5382 -4.06038,-1.2076 -8.78539,-12.6365 -6.9527,-12.5382 z"
         style="fill:#000000;stroke:#000000;stroke-width:2.60428619;display:inline" />
      <path
         sodipodi:nodetypes="csssc"
         inkscape:connector-curvature="0"
         id="path5109-2-7-7-2-9-8-7-4-2-5"
         d="m 660.63868,1480.3084 c 2.06575,15.3564 11.87446,33.7587 16.77258,33.7034 2.75448,-0.031 4.56641,-3.1574 8.00194,-3.6207 4.58855,-0.6187 4.98037,5.7975 9.10201,3.3373 5.94928,-3.5511 14.64911,-43.0717 15.56944,-59.1309"
         style="fill:#ffd5d5;stroke:none;display:inline" />
      <path
         sodipodi:nodetypes="sssccs"
         inkscape:connector-curvature="0"
         id="path5109-2-7-7-2-9-8-7-4-2-3"
         d="m 694.27657,1513.9102 c -4.20072,2.3226 -4.21296,-4.1363 -8.8015,-3.5176 -3.43553,0.4633 -5.08952,3.3893 -7.82164,3.7409 -3.69611,0.4757 -8.02173,-7.6925 -8.02173,-7.6925 0.19624,-8.4312 28.48515,-11.0603 29.69508,-1.6827 0,0 -2.10594,7.524 -5.05021,9.1519 z"
         style="fill:#ffaaaa;stroke:none;display:inline" />
      <path
         sodipodi:nodetypes="csssc"
         inkscape:connector-curvature="0"
         id="path5109-2-7-7-2-9-8-7-4-2"
         d="m 660.56752,1480.2958 c 2.06575,15.3564 11.87446,33.7587 16.77258,33.7034 2.75448,-0.031 4.56641,-3.1574 8.00194,-3.6207 4.58854,-0.6187 4.98036,5.7975 9.102,3.3373 5.94928,-3.5511 14.64911,-43.0717 15.56944,-59.1309"
         style="fill:none;stroke:#000000;stroke-width:2.60428619;stroke-linecap:butt;stroke-linejoin:miter;stroke-opacity:1;display:inline" />
      <path
         sodipodi:nodetypes="cc"
         inkscape:connector-curvature="0"
         id="path5111-7-6-1-8-2-7-7-1-0"
         d="m 669.61887,1506.5471 c 0.19624,-8.4312 28.48515,-11.0603 29.69508,-1.6827"
         style="fill:none;stroke:#000000;stroke-width:2.60428619;stroke-linecap:butt;stroke-linejoin:miter;stroke-opacity:1;display:inline" />
    </g>
    <g
       style="stroke-width:2.60428619;display:inline"
       id="g9662"
       transform="matrix(-0.76796478,0,0,0.76796478,534.18272,-612.21093)">
      <path
         sodipodi:nodetypes="cccc"
         inkscape:connector-curvature="0"
         id="path5091-2-4-0-7-2-1"
         d="m 411.65814,1159.3224 119.23342,-65.441 c 25.06103,1.8905 34.45333,33.0118 28.714,47.5011 l -9.39603,36.0439"
         style="fill:#ffd5d5;stroke:#000000;stroke-width:2.60428619;stroke-linecap:butt;stroke-linejoin:miter;stroke-opacity:1;display:inline" />
      <path
         sodipodi:nodetypes="csc"
         inkscape:connector-curvature="0"
         id="path3536-4-7-61-4"
         d="m 548.80879,1112.9769 c -19.91377,-36.89 -76.99333,-47.1919 -114.63027,-9.2796 -23.36519,23.5361 -31.95913,42.0613 -26.96924,58.5546"
         style="fill:#ffd5d5;stroke:#000000;stroke-width:2.60428619;stroke-linecap:butt;stroke-linejoin:miter;stroke-opacity:1;display:inline" />
      <path
         sodipodi:nodetypes="cc"
         inkscape:connector-curvature="0"
         id="path5093-4-2-9-9-4-0"
         d="m 554.84881,1125.9423 c 9.79589,14.0079 14.1087,40.674 -7.35697,55.9808"
         style="fill:#ffd5d5;stroke:#000000;stroke-width:2.60428619;stroke-linecap:butt;stroke-linejoin:miter;stroke-opacity:1;display:inline" />
      <path
         sodipodi:nodetypes="cc"
         inkscape:connector-curvature="0"
         id="path5095-5-3-4-3-2-9"
         d="m 528.39955,1117.5633 c -1.29172,2.5246 -2.59507,7.555 -3.93232,11.2761"
         style="fill:none;stroke:#000000;stroke-width:2.60428619;stroke-linecap:butt;stroke-linejoin:miter;stroke-opacity:1;display:inline" />
      <path
         sodipodi:nodetypes="cc"
         inkscape:connector-curvature="0"
         id="path5097-5-2-8-1-5-4"
         d="m 495.59805,1119.6352 c 2.4774,3.1179 6.61482,7.3122 9.62029,11.2798"
         style="fill:none;stroke:#000000;stroke-width:2.60428619;stroke-linecap:butt;stroke-linejoin:miter;stroke-opacity:1;display:inline" />
      <path
         sodipodi:nodetypes="csc"
         inkscape:connector-curvature="0"
         id="path5099-1-2-8-9-8-8"
         d="m 450.23367,1095.2516 c -34.99276,-0.9794 -49.47668,44.6955 -29.86024,59.9938 4.93517,3.8487 21.45226,-21.6697 33.35124,-27.516"
         style="fill:#ffd5d5;stroke:#000000;stroke-width:2.60428619;stroke-linecap:butt;stroke-linejoin:miter;stroke-opacity:1;display:inline" />
      <path
         sodipodi:nodetypes="ssssss"
         inkscape:connector-curvature="0"
         id="path5101-7-1-2-8-62-8"
         d="m 518.68637,1128.6055 c -8.62201,-0.4179 -22.42752,7.9709 -30.25248,18.8064 -10.54789,14.6059 -4.0544,27.0393 10.52581,23.5772 13.26269,-3.1493 23.43716,-2.186 31.84436,-1.0389 11.05171,1.508 13.29351,-12.4525 8.25349,-23.6956 -5.1163,-11.4135 -13.09541,-17.2965 -20.37118,-17.6491 z"
         style="fill:#ffaaaa;stroke:#000000;stroke-width:2.60428619;stroke-linecap:butt;stroke-linejoin:miter;stroke-opacity:1;display:inline" />
      <path
         sodipodi:nodetypes="sss"
         inkscape:connector-curvature="0"
         id="path5105-1-6-4-6-6-2"
         d="m 503.76199,1162.096 c 1.88155,2.4864 10.58729,-19.3659 8.46164,-20.374 -2.56017,-1.2141 -13.81769,13.2954 -8.46164,20.374 z"
         style="fill:#000000;stroke:#000000;stroke-width:2.60428619;display:inline" />
      <path
         sodipodi:nodetypes="sss"
         inkscape:connector-curvature="0"
         id="path5107-1-8-55-5-5-4"
         d="m 523.19621,1140.5786 c -1.87846,-0.064 1.83825,22.6904 4.3267,20.5548 5.49546,-4.716 -1.6068,-20.4634 -4.3267,-20.5548 z"
         style="fill:#000000;stroke:#000000;stroke-width:2.60428619;display:inline" />
    </g>
    <g
       style="stroke-width:2.60428619;display:inline"
       id="g10059"
       transform="matrix(0.76796478,0,0,0.76796478,-183.81987,-506.73009)">
      <path
         sodipodi:nodetypes="cc"
         inkscape:connector-curvature="0"
         id="path10053"
         d="m 459.41946,1041.9088 c 6.38624,23.9697 58.85623,27.9822 67.83064,4.4952"
         style="fill:#ffd5d5;stroke:#000000;stroke-width:2.60428619;stroke-linecap:butt;stroke-linejoin:miter;stroke-opacity:1" />
      <path
         sodipodi:nodetypes="sss"
         inkscape:connector-curvature="0"
         id="path10055"
         d="m 473.27401,1042.3987 c -2.32697,21.1176 38.40105,22.5552 40.11741,4.0798 1.65615,-17.8274 -38.0599,-22.7521 -40.11741,-4.0798 z"
         style="fill:#ffaaaa;stroke:#000000;stroke-width:2.60428619;stroke-linecap:butt;stroke-linejoin:miter;stroke-opacity:1" />
      <path
         sodipodi:nodetypes="sssss"
         inkscape:connector-curvature="0"
         id="path10057"
         d="m 481.17892,1038.9861 c -3.5455,-7.5455 29.3215,-2.0095 23.2885,2.2098 -2.88275,2.0161 -4.06216,7.182 -1.52991,9.8594 5.96766,6.3096 -26.68685,3.0646 -22.26856,-2.5499 2.90554,-3.6922 1.82368,-6.7235 0.50997,-9.5193 z"
         style="fill:#ff8080;stroke:#000000;stroke-width:2.60428619;stroke-linecap:butt;stroke-linejoin:miter;stroke-opacity:1" />
    </g>
  </g>
  <g
     inkscape:groupmode="layer"
     id="layer4"
     inkscape:label="字幕"
     sodipodi:insensitive="true">
    <text
       xml:space="preserve"
       style="font-size:77.04374695px;font-style:normal;font-variant:normal;font-weight:normal;font-stretch:normal;line-height:125%;letter-spacing:0px;word-spacing:0px;writing-mode:lr-tb;fill:#000000;fill-opacity:1;stroke:none;display:inline;font-family:HGSHeiseiMinchotaiW9;-inkscape-font-specification:HGSHeiseiMinchotaiW9"
       x="107.21632"
       y="73.837189"
       id="text11601"
       sodipodi:linespacing="125%"><tspan
         sodipodi:role="line"
         id="tspan11603"
         x="107.21632"
         y="73.837189">壊滅</tspan></text>
  </g>
  <g
     inkscape:groupmode="layer"
     id="layer2"
     inkscape:label="枠面"
     sodipodi:insensitive="true">
    <path
       style="fill:#ffffff;stroke:none;display:inline"
       d="m 0,0 0,320 370,0 0,-320 -10,10 0,300 -350,0 0,-300 350,0 10,-10 z"
       id="path21072"
       inkscape:connector-curvature="0"
       sodipodi:nodetypes="ccccccccccc" />
  </g>
</svg>
