<?xml version="1.0" encoding="UTF-8" standalone="no"?>
<!-- Created with Inkscape (http://www.inkscape.org/) -->

<svg
   xmlns:dc="http://purl.org/dc/elements/1.1/"
   xmlns:cc="http://creativecommons.org/ns#"
   xmlns:rdf="http://www.w3.org/1999/02/22-rdf-syntax-ns#"
   xmlns:svg="http://www.w3.org/2000/svg"
   xmlns="http://www.w3.org/2000/svg"
   xmlns:sodipodi="http://sodipodi.sourceforge.net/DTD/sodipodi-0.dtd"
   xmlns:inkscape="http://www.inkscape.org/namespaces/inkscape"
   width="370"
   height="320"
   id="svg3172"
   version="1.1"
   inkscape:version="0.48.4 r9939"
   sodipodi:docname="[00.規格].svg">
  <defs
     id="defs3174" />
  <sodipodi:namedview
     id="base"
     pagecolor="#ffffff"
     bordercolor="#666666"
     borderopacity="1.0"
     inkscape:pageopacity="0.0"
     inkscape:pageshadow="2"
     inkscape:zoom="1.0003542"
     inkscape:cx="265.66932"
     inkscape:cy="115.03743"
     inkscape:document-units="px"
     inkscape:current-layer="layer2"
     showgrid="false"
     inkscape:window-width="1245"
     inkscape:window-height="698"
     inkscape:window-x="-5"
     inkscape:window-y="-5"
     inkscape:window-maximized="0" />
  <metadata
     id="metadata3177">
    <rdf:RDF>
      <cc:Work
         rdf:about="">
        <dc:format>image/svg+xml</dc:format>
        <dc:type
           rdf:resource="http://purl.org/dc/dcmitype/StillImage" />
        <dc:title></dc:title>
      </cc:Work>
    </rdf:RDF>
  </metadata>
  <g
     inkscape:label="補助線"
     inkscape:groupmode="layer"
     id="layer1"
     transform="translate(0,-732.36218)"
     sodipodi:insensitive="true"
     style="display:none">
    <path
       style="fill:none;stroke:#0000ff;stroke-width:1px;stroke-linecap:butt;stroke-linejoin:miter;stroke-opacity:1;display:inline"
       d="M 10,1042.3622 360,742.36211"
       id="path3025"
       inkscape:connector-curvature="0"
       sodipodi:nodetypes="cc" />
    <path
       style="fill:none;stroke:#0000ff;stroke-width:1px;stroke-linecap:butt;stroke-linejoin:miter;stroke-opacity:1;display:inline"
       d="M 10,742.36211 360,1042.3622"
       id="path3027"
       inkscape:connector-curvature="0"
       sodipodi:nodetypes="cc" />
    <path
       style="fill:none;stroke:#ff0000;stroke-width:1px;stroke-linecap:butt;stroke-linejoin:miter;stroke-opacity:1;display:inline"
       d="m 10,732.36211 0,320.00009"
       id="path3006"
       inkscape:connector-curvature="0"
       sodipodi:nodetypes="cc" />
    <path
       style="fill:none;stroke:#ff0000;stroke-width:1px;stroke-linecap:butt;stroke-linejoin:miter;stroke-opacity:1;display:inline"
       d="m 360,732.36211 0,320.00009"
       id="path3010"
       inkscape:connector-curvature="0"
       sodipodi:nodetypes="cc" />
    <path
       style="fill:none;stroke:#ff0000;stroke-width:1px;stroke-linecap:butt;stroke-linejoin:miter;stroke-opacity:1;display:inline"
       d="m 0,742.36208 370,3e-5"
       id="path3016"
       inkscape:connector-curvature="0" />
    <path
       style="fill:none;stroke:#ff0000;stroke-width:1px;stroke-linecap:butt;stroke-linejoin:miter;stroke-opacity:1;display:inline"
       d="m 0,1042.3622 370,0"
       id="path3018"
       inkscape:connector-curvature="0"
       sodipodi:nodetypes="cc" />
  </g>
  <g
     inkscape:groupmode="layer"
     id="layer3"
     inkscape:label="豚"
     sodipodi:insensitive="true">
    <path
       sodipodi:type="arc"
       style="fill:#000000;fill-opacity:1;stroke:none"
       id="path5095-5"
       sodipodi:cx="215.23778"
       sodipodi:cy="283.24347"
       sodipodi:rx="44.178524"
       sodipodi:ry="7.7754202"
       d="m 259.4163,283.24347 a 44.178524,7.7754202 0 1 1 -88.35705,0 44.178524,7.7754202 0 1 1 88.35705,0 z"
       transform="matrix(0.90363637,0,0,0.90363637,22.363647,-22.227992)" />
    <path
       sodipodi:type="arc"
       style="fill:#000000;fill-opacity:1;stroke:none"
       id="path5095-5-1"
       sodipodi:cx="215.23778"
       sodipodi:cy="283.24347"
       sodipodi:rx="44.178524"
       sodipodi:ry="7.7754202"
       d="m 259.4163,283.24347 a 44.178524,7.7754202 0 1 1 -88.35705,0 44.178524,7.7754202 0 1 1 88.35705,0 z"
       transform="matrix(0.90333673,0.02326908,-0.02326908,0.90333673,-40.461815,-14.739107)" />
    <path
       sodipodi:type="arc"
       style="fill:#000000;fill-opacity:1;stroke:none"
       id="path5095-5-1-7"
       sodipodi:cx="215.23778"
       sodipodi:cy="283.24347"
       sodipodi:rx="44.178524"
       sodipodi:ry="7.7754202"
       d="m 259.4163,283.24347 a 44.178524,7.7754202 0 1 1 -88.35705,0 44.178524,7.7754202 0 1 1 88.35705,0 z"
       transform="matrix(1.0839748,-0.05666,0.05666,1.0839748,-182.30591,-34.916187)" />
    <path
       sodipodi:type="arc"
       style="fill:#000000;fill-opacity:1;stroke:none"
       id="path5095"
       sodipodi:cx="215.23778"
       sodipodi:cy="283.24347"
       sodipodi:rx="44.178524"
       sodipodi:ry="7.7754202"
       d="m 259.4163,283.24347 a 44.178524,7.7754202 0 1 1 -88.35705,0 44.178524,7.7754202 0 1 1 88.35705,0 z"
       transform="matrix(1.0909091,0,0,1.0909091,70.685638,-51.196236)" />
    <g
       style="stroke-width:4.0685668;display:inline"
       id="g4286"
       transform="matrix(0.49157361,0,0,0.49157361,-342.2923,-180.90522)">
      <path
         sodipodi:nodetypes="csccc"
         inkscape:connector-curvature="0"
         id="path5109-2-7-7-2-9-2-0"
         d="m 1187.3028,700.83713 c 30.2208,19.74442 35.0504,64.26958 30.407,74.14407 -1.0393,2.21028 -5.5261,-2.74001 -10.089,-2.92259 l -29.8076,-64.49626 z"
         style="fill:#a05a2c;stroke:none;display:inline" />
      <path
         sodipodi:nodetypes="scccs"
         inkscape:connector-curvature="0"
         id="path5109-2-7-7-2-9-2-2"
         d="m 1217.4653,775.11246 c -1.4788,1.94358 -5.526,-2.74001 -10.089,-2.92258 l -1.1058,-8.79505 c 2.9435,-2.03269 8.6236,-3.80631 12.7127,-3.88749 0.098,2.40286 0.8643,12.4744 -1.5179,15.60512 z"
         style="fill:#502d16;stroke:none;display:inline" />
      <path
         sodipodi:nodetypes="csc"
         inkscape:connector-curvature="0"
         id="path5109-2-7-7-2-9-2"
         d="m 1187.3149,700.92562 c 30.2208,19.74442 35.0504,64.26958 30.407,74.14407 -1.0393,2.21028 -5.5261,-2.74001 -10.089,-2.92259"
         style="fill:none;stroke:#000000;stroke-width:4.0685668;stroke-linecap:butt;stroke-linejoin:miter;stroke-opacity:1;display:inline" />
      <path
         sodipodi:nodetypes="cc"
         inkscape:connector-curvature="0"
         id="path5111-7-6-1-8-2-8"
         d="m 1219.2396,759.46455 c -4.089,0.0812 -9.769,1.85482 -12.7125,3.88751"
         style="fill:none;stroke:#000000;stroke-width:4.0685668;stroke-linecap:butt;stroke-linejoin:miter;stroke-opacity:1;display:inline" />
      <path
         sodipodi:nodetypes="ccccccc"
         inkscape:connector-curvature="0"
         id="path3570-7-2-8-8"
         d="m 1198.0433,819.76161 c 23.9381,-25.49331 10.4856,-63.87198 -4.7864,-87.1761 l -13.9046,-25.2917 -119.7982,10.47747 11.0606,52.04072 122.092,55.70274 z"
         style="fill:#a05a2c;stroke:none;display:inline" />
      <path
         sodipodi:nodetypes="cc"
         inkscape:connector-curvature="0"
         id="path3570-7-2-8"
         d="m 1198.0187,819.78543 c 23.9381,-25.49331 10.4856,-63.87198 -4.7864,-87.1761"
         style="fill:none;stroke:#000000;stroke-width:4.0685668;stroke-linecap:butt;stroke-linejoin:miter;stroke-opacity:1;display:inline" />
      <path
         sodipodi:nodetypes="ccccsc"
         inkscape:connector-curvature="0"
         id="path3911-1-4-5"
         d="m 1058.9046,756.25526 c -14.9684,33.33995 -15.0873,48.02554 -6.8662,65.31375 -24.4507,17.38248 -1.2402,33.42531 48.0557,19.54349 23.4972,-2.45473 47.4043,-1.74057 65.4927,-0.91143 21.7541,3.51399 42.6438,4.39553 48.6873,-5.62429 6.6493,-11.02413 -4.1171,-20.86607 -22.155,-14.74055"
         style="fill:#a05a2c;stroke:#000000;stroke-width:4.0685668;stroke-linecap:butt;stroke-linejoin:miter;stroke-opacity:1;display:inline" />
      <path
         sodipodi:nodetypes="csssc"
         inkscape:connector-curvature="0"
         id="path5109-2-7-7-2-9-4"
         d="m 1060.8549,713.84426 c -29.4459,28.51285 -25.0148,76.2775 -16.3954,81.82786 2.9907,1.92585 4.4282,-3.53811 8.3173,-3.146 3.1433,0.31692 4.213,3.85968 7.4143,5.09815 4.4397,1.7176 14.4103,-19.38555 16.7917,-33.43604"
         style="fill:#a05a2c;stroke:none;display:inline" />
      <path
         sodipodi:nodetypes="sssccs"
         inkscape:connector-curvature="0"
         id="path5109-2-7-7-2-9-1"
         d="m 1044.5583,795.44289 c 3.2125,1.52739 4.4282,-3.53811 8.3173,-3.146 3.1433,0.31692 4.2014,3.89004 7.4143,5.09815 3.2544,1.22372 7.0994,-7.06458 7.0994,-7.06458 5.3549,-8.84932 -25.9132,-16.25196 -28.4781,-8.47308 0,0 1.8677,11.78858 5.6471,13.58551 z"
         style="fill:#502d16;stroke:none;display:inline" />
      <path
         sodipodi:nodetypes="csccc"
         inkscape:connector-curvature="0"
         id="path3386-7-3"
         d="m 1102.5695,718.68058 c -25.9714,38.90029 -25.4108,82.26971 -14.4547,92.70991 3.5918,3.42271 2.7902,-5.34741 6.6873,-5.54191 l 28.9902,-66.83646 z"
         style="fill:none;stroke:none;display:inline" />
      <path
         sodipodi:nodetypes="csssc"
         inkscape:connector-curvature="0"
         id="path5109-2-7-7-2-9"
         d="m 1061.0081,713.79931 c -29.4459,28.51285 -25.0148,76.2775 -16.3954,81.82786 2.9907,1.92585 4.4282,-3.53811 8.3173,-3.146 3.1433,0.31692 4.213,3.85968 7.4143,5.09815 4.4397,1.7176 14.4103,-19.38555 16.7917,-33.43604"
         style="fill:none;stroke:#000000;stroke-width:4.0685668;stroke-linecap:butt;stroke-linejoin:miter;stroke-opacity:1;display:inline" />
      <path
         sodipodi:nodetypes="cc"
         inkscape:connector-curvature="0"
         id="path5111-7-6-1-8-2"
         d="m 1038.9656,782.04166 c 2.5649,-7.77888 33.833,-0.37624 28.4781,8.47308"
         style="fill:none;stroke:#000000;stroke-width:4.0685668;stroke-linecap:butt;stroke-linejoin:miter;stroke-opacity:1;display:inline" />
      <path
         sodipodi:nodetypes="cc"
         inkscape:connector-curvature="0"
         id="path5091-2-4-0-7-2"
         d="m 1160.5906,638.75784 c 24.3816,1.59565 32.5046,26.54512 26.929,38.88671"
         style="fill:#a05a2c;stroke:#000000;stroke-width:4.0685668;stroke-linecap:butt;stroke-linejoin:miter;stroke-opacity:1;display:inline" />
      <path
         sodipodi:nodetypes="cccscc"
         inkscape:connector-curvature="0"
         id="path5093-4-2-9-9-4-4"
         d="m 1187.3862,709.60138 c 9.134,-11.52324 3.6367,-33.12471 -5.8435,-43.58619 L 1169.3873,646.778 c -24.0511,-29.98632 -74.894,-25.62965 -98.8643,10.77854 -14.5521,22.10307 -20.5805,48.97769 -8.3912,62.24467 z"
         style="fill:#a05a2c;stroke:none;display:inline" />
      <path
         sodipodi:nodetypes="csc"
         inkscape:connector-curvature="0"
         id="path3536-4-7-61"
         d="m 1169.4896,646.91991 c -24.0511,-29.98632 -74.894,-25.62965 -98.8643,10.77854 -14.5521,22.10307 -20.5805,48.97769 -8.3912,62.24467"
         style="fill:none;stroke:#000000;stroke-width:4.0685668;stroke-linecap:butt;stroke-linejoin:miter;stroke-opacity:1;display:inline" />
      <path
         sodipodi:nodetypes="cc"
         inkscape:connector-curvature="0"
         id="path5093-4-2-9-9-4"
         d="m 1181.645,666.1571 c 9.4802,10.46148 14.9775,32.06295 5.8435,43.58619"
         style="fill:none;stroke:#000000;stroke-width:4.0685668;stroke-linecap:butt;stroke-linejoin:miter;stroke-opacity:1;display:inline" />
      <path
         sodipodi:nodetypes="cc"
         inkscape:connector-curvature="0"
         id="path5095-5-3-4-3-2"
         d="m 1154.951,663.26429 c -1.2222,2.77938 -2.2476,4.79815 -3.3914,7.09198"
         style="fill:none;stroke:#000000;stroke-width:4.0685668;stroke-linecap:butt;stroke-linejoin:miter;stroke-opacity:1;display:inline" />
      <path
         sodipodi:nodetypes="cc"
         inkscape:connector-curvature="0"
         id="path5097-5-2-8-1-5"
         d="m 1126.4686,664.16485 c 1.9934,3.13482 3.7824,5.88692 5.4334,8.42765"
         style="fill:none;stroke:#000000;stroke-width:4.0685668;stroke-linecap:butt;stroke-linejoin:miter;stroke-opacity:1;display:inline" />
      <path
         sodipodi:nodetypes="csc"
         inkscape:connector-curvature="0"
         id="path5099-1-2-8-9-8"
         d="m 1089.4652,641.78889 c -38.382,4.3642 -36.0467,43.40041 -26.1877,49.8725 5.2778,3.46464 10.1484,-13.35001 17.3511,-20.83504"
         style="fill:#a05a2c;stroke:#000000;stroke-width:4.0685668;stroke-linecap:butt;stroke-linejoin:miter;stroke-opacity:1;display:inline" />
      <path
         sodipodi:nodetypes="ssssss"
         inkscape:connector-curvature="0"
         id="path5101-7-1-2-8-62"
         d="m 1144.3592,670.89579 c -11.0488,0.9563 -20.0707,11.81644 -23.9841,18.3489 -8.5086,14.20267 0.2234,22.53541 11.6826,18.5914 8.85,-3.04595 19.4284,-2.12621 26.1034,-0.95168 9.1891,1.61687 13.3139,-6.90162 10.9068,-14.87356 -2.9249,-9.68692 -13.4677,-22.08801 -24.7087,-21.11506 z"
         style="fill:#502d16;stroke:#000000;stroke-width:4.0685668;stroke-linecap:butt;stroke-linejoin:miter;stroke-opacity:1;display:inline" />
      <path
         sodipodi:nodetypes="sss"
         inkscape:connector-curvature="0"
         id="path5105-1-6-4-6-6"
         d="m 1134.3673,700.27821 c 2.2435,2.50684 7.5796,-15.80481 5.1801,-16.72141 -2.8897,-1.10417 -11.5665,9.58467 -5.1801,16.72141 z"
         style="fill:#000000;stroke:#000000;stroke-width:4.0685668;display:inline" />
      <path
         sodipodi:nodetypes="sss"
         inkscape:connector-curvature="0"
         id="path5107-1-8-55-5-5"
         d="m 1150.913,683.04291 c -2.058,0.0692 2.2449,17.9691 4.8045,15.51597 5.6529,-5.41719 -1.8245,-15.61749 -4.8045,-15.51597 z"
         style="fill:#000000;stroke:#000000;stroke-width:4.0685668;display:inline" />
    </g>
    <g
       style="stroke-width:4.0685668;display:inline"
       id="g9968"
       transform="matrix(0.49157361,0,0,0.49157361,-409.79901,-182.33608)">
      <path
         sodipodi:nodetypes="cssscsccscsssc"
         inkscape:connector-curvature="0"
         id="path9386-1-5"
         d="m 1199.6604,702.62913 c 21.6755,4.47503 34.4182,17.90822 34.1665,22.06701 -0.2143,3.54094 -4.2132,4.34751 -4.3584,7.48705 -0.1541,3.32842 2.1561,4.16624 1.5477,7.83993 -0.8354,5.04435 -18.2188,18.62485 -27.3359,25.93695 12.2447,30.02586 19.5117,95.90138 1.338,105.78305 -7.4177,4.03323 -25.0953,-0.10673 -39.1885,-5.09903 -13.1019,7.11538 -80.7199,2.88124 -94.2955,-5.14539 -6.737,8.70216 -15.8442,9.82455 -23.9727,7.50304 -10.8058,-3.08615 -21.4259,-65.52431 2.7217,-126.45432 -11.3176,-11.96217 -23.3504,-27.7661 -20.4865,-33.72721 1.0725,-2.23253 4.138,-4.03543 5.0172,-5.77951 0.9684,-1.92097 -0.6254,-5.59564 1.1645,-7.502 2.4555,-2.6154 17.2727,-2.32237 25.8213,-1.30947"
         style="fill:#ffd5d5;stroke:none;display:inline" />
      <path
         sodipodi:nodetypes="cc"
         inkscape:connector-curvature="0"
         id="path5091-2-4-0-7-2-5-8"
         d="m 1095.6234,647.62621 c -21.6839,1.39816 -29.5334,18.44917 -27.5186,33.3708"
         style="fill:#ffd5d5;stroke:#000000;stroke-width:4.0685668;stroke-linecap:butt;stroke-linejoin:miter;stroke-opacity:1;display:inline" />
      <path
         style="fill:#ffd5d5;stroke:none;display:inline"
         d="m 1067.4951,724.51482 c -14.1282,-21.51814 -2.3495,-46.75059 6.0356,-53.58051 l 10.2476,-13.20841 c 24.8902,-27.89093 59.2947,-23.82075 79.9996,-10.21844 19.4745,12.79399 43.7413,46.88753 33.1511,65.06891 z"
         id="path5093-4-2-9-9-4-11-5-1"
         inkscape:connector-curvature="0"
         sodipodi:nodetypes="cccscc" />
      <path
         sodipodi:nodetypes="csc"
         inkscape:connector-curvature="0"
         id="path3536-4-7-61-7-3"
         d="m 1083.9309,657.69669 c 24.8902,-27.89093 59.2947,-23.82075 79.9996,-10.21844 19.4745,12.79399 43.7413,46.88753 33.1511,65.06892"
         style="fill:none;stroke:#000000;stroke-width:4.0685668;stroke-linecap:butt;stroke-linejoin:miter;stroke-opacity:1;display:inline" />
      <path
         sodipodi:nodetypes="cc"
         inkscape:connector-curvature="0"
         id="path5093-4-2-9-9-4-11-5"
         d="m 1073.6833,670.9051 c -8.3851,6.82992 -20.1638,32.06237 -6.0356,53.58052"
         style="fill:none;stroke:#000000;stroke-width:4.0685668;stroke-linecap:butt;stroke-linejoin:miter;stroke-opacity:1;display:inline" />
      <path
         sodipodi:nodetypes="cc"
         inkscape:connector-curvature="0"
         id="path5095-5-3-4-3-2-5-1"
         d="m 1095.8124,664.21669 c -0.099,1.66675 0.094,4.17365 0,6.20408"
         style="fill:none;stroke:#000000;stroke-width:4.0685668;stroke-linecap:butt;stroke-linejoin:miter;stroke-opacity:1;display:inline" />
      <path
         sodipodi:nodetypes="cc"
         inkscape:connector-curvature="0"
         id="path5097-5-2-8-1-5-2-2"
         d="m 1116.2065,668.14833 c -1.3158,1.67801 -3.4419,4.24704 -4.5533,6.72123"
         style="fill:none;stroke:#000000;stroke-width:4.0685668;stroke-linecap:butt;stroke-linejoin:miter;stroke-opacity:1;display:inline" />
      <path
         sodipodi:nodetypes="csc"
         inkscape:connector-curvature="0"
         id="path5099-1-2-8-9-8-7-0"
         d="m 1154.6611,644.70887 c 32.7353,4.63529 50.227,40.0423 29.7951,57.74657 -3.8115,3.30265 -20.4732,-19.33373 -31.5718,-25.60714"
         style="fill:#ffd5d5;stroke:#000000;stroke-width:4.0685668;stroke-linecap:butt;stroke-linejoin:miter;stroke-opacity:1;display:inline" />
      <path
         sodipodi:nodetypes="ssssss"
         inkscape:connector-curvature="0"
         id="path5101-7-1-2-8-62-6-1"
         d="m 1097.4306,672.30662 c 10.9078,1.2917 19.2544,7.44751 24.9438,15.84212 7.3473,10.84087 3.4726,24.92844 -10.5481,20.33473 -10.4387,-3.42011 -22.0712,-3.11669 -27.9018,-2.13746 -8.8643,1.48852 -10.5678,-11.83975 -4.836,-22.36369 4.3199,-7.93158 11.8779,-12.44119 18.3421,-11.67572 z"
         style="fill:#ffaaaa;stroke:#000000;stroke-width:4.0685668;stroke-linecap:butt;stroke-linejoin:miter;stroke-opacity:1;display:inline" />
      <path
         sodipodi:nodetypes="sss"
         inkscape:connector-curvature="0"
         id="path5105-1-6-4-6-6-1-6"
         d="m 1107.1173,700.69428 c -1.8925,1.65288 -5.7838,-18.70547 -3.9969,-19.33866 2.1521,-0.7628 12.0211,12.3305 3.9969,19.33866 z"
         style="fill:#000000;stroke:#000000;stroke-width:4.0685668;display:inline" />
      <path
         sodipodi:nodetypes="sss"
         inkscape:connector-curvature="0"
         id="path5107-1-8-55-5-5-42-4"
         d="m 1093.5726,680 c 1.5111,0.10314 -3.1102,19.99399 -5.0802,18.23269 -6.4716,-5.78631 2.8923,-18.38303 5.0802,-18.23269 z"
         style="fill:#000000;stroke:#000000;stroke-width:4.0685668;display:inline" />
      <path
         sodipodi:nodetypes="ccsssc"
         inkscape:connector-curvature="0"
         id="path5111-7-6-1-8-2-7-2-6-2"
         d="m 1046.0673,693.70253 c -7.4792,2.3508 -11.7094,22.08863 -10.9011,30.43858 -3.0689,-4.26678 -6.0826,-10.09725 -5.4411,-15.05976 0.3175,-2.45634 4.138,-4.03544 5.0172,-5.77951 0.9684,-1.92098 -0.6254,-5.59561 1.1645,-7.502 2.4555,-2.61537 10.1605,-2.09731 10.1605,-2.09731 z"
         style="fill:#ffaaaa;stroke:none;display:inline" />
      <path
         sodipodi:nodetypes="cc"
         inkscape:connector-curvature="0"
         id="path5111-7-6-1-8-2-7-2-6"
         d="m 1035.0935,723.95719 c -0.8083,-8.34995 3.4219,-28.08778 10.9011,-30.43858"
         style="fill:none;stroke:#000000;stroke-width:4.0685668;stroke-linecap:butt;stroke-linejoin:miter;stroke-opacity:1;display:inline" />
      <path
         sodipodi:nodetypes="ccsssc"
         inkscape:connector-curvature="0"
         id="path5111-7-6-1-8-2-7-2-6-7-6"
         d="m 1221.3169,751.33996 c -9.5437,0.60383 -6.187,-37.69671 3.2577,-36.99013 0,0 9.4323,6.44866 9.1806,10.60745 -0.2143,3.54094 -4.2131,4.34751 -4.3584,7.48705 -0.154,3.32842 2.8206,4.34053 1.5477,7.83993 -1.2479,3.43052 -4.7766,8.19139 -9.6276,11.0557 z"
         style="fill:#ffaaaa;stroke:none;display:inline" />
      <path
         sodipodi:nodetypes="cssscsccscsssc"
         inkscape:connector-curvature="0"
         id="path9386-1"
         d="m 1199.516,702.70635 c 21.6755,4.47503 34.4182,17.90822 34.1665,22.06701 -0.2143,3.54094 -4.2132,4.34751 -4.3584,7.48705 -0.1541,3.32842 2.1561,4.16624 1.5477,7.83993 -0.8354,5.04435 -18.2188,18.62485 -27.3359,25.93695 12.2447,30.02585 19.5117,95.90137 1.338,105.78304 -7.4177,4.03323 -25.0953,-0.10673 -39.1885,-5.09903 -13.1019,7.11538 -80.7199,2.88124 -94.2955,-5.14539 -6.737,8.70216 -15.8442,9.82455 -23.9727,7.50304 -10.8058,-3.08615 -21.4259,-65.52431 2.7217,-126.45431 -11.3176,-11.96217 -23.3504,-27.7661 -20.4865,-33.72721 1.0725,-2.23253 4.138,-4.03543 5.0172,-5.77951 0.9684,-1.92097 -0.6254,-5.59564 1.1645,-7.502 2.4555,-2.6154 17.2727,-2.32237 25.8213,-1.30947"
         style="fill:none;stroke:#000000;stroke-width:4.0685668;stroke-linecap:butt;stroke-linejoin:miter;stroke-opacity:1" />
      <path
         style="fill:none;stroke:#000000;stroke-width:4.0685668;stroke-linecap:butt;stroke-linejoin:miter;stroke-opacity:1;display:inline"
         d="m 1221.2442,751.15604 c -9.5437,0.60383 -6.187,-37.69671 3.2577,-36.99013"
         id="path5111-7-6-1-8-2-7-2-6-7"
         inkscape:connector-curvature="0"
         sodipodi:nodetypes="cc" />
    </g>
    <g
       style="stroke-width:4.0685668;display:inline"
       id="g10152"
       transform="matrix(0.49157361,0,0,0.49157361,-408.5108,-182.76549)">
      <path
         id="path5091-2-4-0-7-2-5-8-7"
         d="m 988.08998,656.0301 c 25.71772,-0.56687 36.71812,18.74158 35.86672,36.54662"
         style="fill:#ffd5d5;stroke:#000000;stroke-width:4.0685668;stroke-linecap:butt;stroke-linejoin:miter;stroke-opacity:1;display:inline"
         inkscape:connector-curvature="0" />
      <path
         sodipodi:nodetypes="cccccc"
         id="path9386-1-1-5"
         d="m 1055.1324,869.81426 c 17.527,-21.44388 21.378,-72.55923 -12.2089,-111.61229 l -25.2786,-20.71954 -142.81652,15.04566 15.98146,64.26039 z"
         style="fill:#ffd5d5;stroke:none;display:inline"
         inkscape:connector-curvature="0" />
      <path
         sodipodi:nodetypes="csccc"
         inkscape:connector-curvature="0"
         id="path5109-2-7-7-2-9-8-4-0-5-8"
         d="m 1063.8768,794.43299 c 3.1137,-3.13036 7.4903,2.62531 9.9392,0.73159 6.1481,-4.75423 -2.4364,-54.25042 -42.0162,-70.31198 l -14.212,16.9462 z"
         style="fill:#ffd5d5;stroke:none;display:inline" />
      <path
         sodipodi:nodetypes="ccsccc"
         inkscape:connector-curvature="0"
         id="path10044"
         d="m 882.8678,808.81643 c -2.42931,25.42505 -5.82107,55.80537 -3.54883,70.50259 -4.75409,6.65795 -13.56257,21.40004 -4.42981,27.92691 7.52444,5.37745 37.83849,0.54839 52.774,-9.13221 28.47,4.10052 98.68564,-2.45944 110.70274,-6.49889 41.9094,7.1294 44.3979,-14.09651 20.503,-26.91186"
         style="fill:#ffd5d5;stroke:#000000;stroke-width:4.0685668;stroke-linecap:butt;stroke-linejoin:miter;stroke-opacity:1" />
      <path
         id="path10046-6"
         d="m 875.15872,749.25322 c -18.82548,24.60125 -23.4407,61.51717 -19.4431,66.13436 3.08202,3.5597 9.90572,-2.87957 13.03158,0.0948 3.4637,3.2958 1.2605,6.53556 5.45733,9.88306 3.01273,2.40304 16.94971,-4.37757 24.138,-11.85565"
         style="fill:#ffd5d5;stroke:none;display:inline"
         inkscape:connector-curvature="0" />
      <path
         sodipodi:nodetypes="cccsc"
         id="path5111-7-6-1-8-2-7-2-6-5-2"
         d="m 1074.5955,779.71965 c -4.3065,3.4855 -9.2919,5.5236 -13.8699,7.0098 l 3.1551,7.828 c 3.1137,-3.1303 7.3043,2.35657 9.9392,0.7316 3.6367,-2.24277 0.7756,-15.5694 0.7756,-15.5694 z"
         style="fill:#ffaaaa;stroke:none;display:inline"
         inkscape:connector-curvature="0" />
      <path
         sodipodi:nodetypes="ccscsc"
         id="path5111-7-6-1-8-2-7-2-6-5-1-1"
         d="m 891.30475,819.46595 c -10.17452,-1.4559 -32.30069,-20.4192 -34.56237,-29.2791 0,0 -4.81608,20.7313 -0.81848,25.3485 3.08202,3.5597 9.90572,-2.8796 13.03158,0.095 3.4637,3.2958 1.26052,6.5355 5.45733,9.883 3.01275,2.4031 16.89194,-6.0474 16.89194,-6.0474 z"
         style="fill:#ffaaaa;stroke:none;display:inline"
         inkscape:connector-curvature="0" />
      <path
         sodipodi:nodetypes="cccscc"
         id="path5093-4-2-9-9-4-11-5-0-2"
         d="m 1025.666,741.1793 c 14.4644,-26.8231 0.6142,-50.13828 -9.9734,-57.33687 l -13.6172,-18.69611 c -32.20663,-30.35206 -71.75093,-20.49149 -94.78103,-2.33256 -21.6615,17.07984 -43.9021,61.70028 -29.9797,91.7234 z"
         style="fill:#ffd5d5;stroke:none;display:inline"
         inkscape:connector-curvature="0" />
      <path
         id="path3536-4-7-61-7-3-4"
         d="m 1002.2919,665.16852 c -32.2066,-30.35206 -71.75091,-20.49149 -94.78102,-2.33256 -21.66151,17.07984 -43.90208,61.70028 -29.97967,91.7234"
         style="fill:none;stroke:#000000;stroke-width:4.0685668;stroke-linecap:butt;stroke-linejoin:miter;stroke-opacity:1;display:inline"
         inkscape:connector-curvature="0" />
      <path
         id="path5093-4-2-9-9-4-11-5-0"
         d="m 1015.9091,683.86463 c 10.5876,7.19859 24.4378,30.51377 9.9734,57.33687"
         style="fill:none;stroke:#000000;stroke-width:4.0685668;stroke-linecap:butt;stroke-linejoin:miter;stroke-opacity:1;display:inline"
         inkscape:connector-curvature="0" />
      <path
         id="path5095-5-3-4-3-2-5-1-9"
         d="m 991.06683,676.03699 c -0.75876,2.59682 0.17047,5.0077 0.49435,7.39238"
         style="fill:none;stroke:#000000;stroke-width:4.0685668;stroke-linecap:butt;stroke-linejoin:miter;stroke-opacity:1;display:inline"
         inkscape:connector-curvature="0" />
      <path
         id="path5097-5-2-8-1-5-2-2-4"
         d="m 967.56558,682.37817 c 2.87933,2.47848 4.63392,4.41722 7.07676,6.77861"
         style="fill:none;stroke:#000000;stroke-width:4.0685668;stroke-linecap:butt;stroke-linejoin:miter;stroke-opacity:1;display:inline"
         inkscape:connector-curvature="0" />
      <path
         id="path5099-1-2-8-9-8-7-0-8"
         d="m 918.16055,658.6224 c -38.13559,8.81229 -55.14764,52.36015 -29.24028,71.15328 4.83291,3.50577 22.17119,-24.89512 34.62015,-33.42839"
         style="fill:#ffd5d5;stroke:#000000;stroke-width:4.0685668;stroke-linecap:butt;stroke-linejoin:miter;stroke-opacity:1;display:inline"
         inkscape:connector-curvature="0" />
      <path
         sodipodi:nodetypes="ssssss"
         inkscape:connector-curvature="0"
         id="path5101-7-1-2-8-62-6-1-8"
         d="m 988.06684,683.5431 c -9.45281,2.25552 -19.7985,11.60325 -26.22279,24.47067 -6.92543,13.87116 -1.91924,34.45964 13.24128,26.13038 11.3975,-6.26174 24.17559,-8.11918 31.15247,-7.56017 10.607,0.84986 12.3977,-16.42429 6.5212,-26.60414 -5.3456,-9.26004 -16.0328,-18.50294 -24.69216,-16.43674 z"
         style="fill:#ffaaaa;stroke:#000000;stroke-width:4.0685668;stroke-linecap:butt;stroke-linejoin:miter;stroke-opacity:1;display:inline" />
      <path
         sodipodi:nodetypes="sss"
         inkscape:connector-curvature="0"
         id="path5105-1-6-4-6-6-1-6-2"
         d="m 981.40083,721.48655 c 2.40101,1.75607 3.46599,-24.34431 1.2938,-24.9086 -2.61628,-0.67965 -11.47405,17.46292 -1.2938,24.9086 z"
         style="fill:#000000;stroke:#000000;stroke-width:4.0685668;display:inline" />
      <path
         sodipodi:nodetypes="sss"
         inkscape:connector-curvature="0"
         id="path5107-1-8-55-5-5-42-4-4"
         d="m 993.81707,694.00338 c -1.77162,0.27655 5.71153,23.26381 7.85493,20.98518 7.0417,-7.48596 -5.2898,-21.3856 -7.85493,-20.98518 z"
         style="fill:#000000;stroke:#000000;stroke-width:4.0685668;display:inline" />
      <path
         sodipodi:nodetypes="csc"
         inkscape:connector-curvature="0"
         id="path5109-2-7-7-2-9-8-4-0-5"
         d="m 1063.7276,794.39671 c 3.1137,-3.13036 7.4903,2.62531 9.9392,0.73159 6.1481,-4.75423 -2.4364,-54.25042 -42.0162,-70.31198"
         style="fill:none;stroke:#000000;stroke-width:4.0685668;stroke-linecap:butt;stroke-linejoin:miter;stroke-opacity:1;display:inline" />
      <path
         id="path5111-7-6-1-8-2-7-2-6-5"
         d="m 1074.4424,779.55885 c -4.3065,3.48553 -9.2919,5.52359 -13.8699,7.00986"
         style="fill:none;stroke:#000000;stroke-width:4.0685668;stroke-linecap:butt;stroke-linejoin:miter;stroke-opacity:1;display:inline"
         inkscape:connector-curvature="0" />
      <path
         id="path10046"
         d="m 875.21392,749.24017 c -18.82548,24.60125 -23.4407,61.51717 -19.4431,66.13436 3.08202,3.5597 9.90572,-2.87957 13.03158,0.0948 3.4637,3.2958 1.2605,6.53556 5.45733,9.88306 3.01273,2.40304 16.94971,-4.37757 24.138,-11.85565"
         style="fill:none;stroke:#000000;stroke-width:4.0685668;stroke-linecap:butt;stroke-linejoin:miter;stroke-opacity:1"
         inkscape:connector-curvature="0" />
      <path
         id="path9386-1-1"
         d="m 1055.1329,869.6958 c 17.527,-21.44388 21.378,-72.55923 -12.2089,-111.61229"
         style="fill:none;stroke:#000000;stroke-width:4.0685668;stroke-linecap:butt;stroke-linejoin:miter;stroke-opacity:1"
         inkscape:connector-curvature="0" />
      <path
         id="path5111-7-6-1-8-2-7-2-6-5-1"
         d="M 891.15167,819.3052 C 880.97715,817.84925 858.85098,798.886 856.5893,790.02604"
         style="fill:none;stroke:#000000;stroke-width:4.0685668;stroke-linecap:butt;stroke-linejoin:miter;stroke-opacity:1;display:inline"
         inkscape:connector-curvature="0" />
    </g>
    <g
       style="stroke-width:3.67244625;display:inline"
       id="g4776"
       transform="matrix(0.54459611,0,0,0.54459611,-463.84625,-194.57407)">
      <path
         sodipodi:nodetypes="cccccccc"
         inkscape:connector-curvature="0"
         id="path3350-6"
         d="m 1499.7252,754.86834 c 20.3005,-16.1254 10.7783,-57.29577 -12.9986,-74.66261 l -125.5511,-41.52407 -19.5933,16.9054 -0.4045,45.09257 -2.4437,68.78293 127.0334,48.52252 z"
         style="fill:#ffd5d5;stroke:#000000;stroke-width:3.67244625;stroke-linecap:butt;stroke-linejoin:miter;stroke-opacity:1" />
      <path
         sodipodi:nodetypes="csssc"
         inkscape:connector-curvature="0"
         id="path4731-5"
         d="m 1346.6276,728.27049 c -1.6655,11.07074 1.9061,34.5999 -3.1151,35.02758 -4.1537,0.35379 -4.5548,-4.90522 -8.008,-4.36506 -4.2406,0.66333 -3.0811,8.97138 -6.6624,5.57147 -24.0217,-22.80509 -13.5929,-68.52385 14.4116,-84.73452"
         style="fill:#ffd5d5;stroke:none;display:inline" />
      <path
         id="path3983-2"
         d="m 1451.8051,816.40332 c 5.3197,6.15356 11.6898,20.20931 21.0728,14.44444 35.1727,-21.60981 27.3876,-94.35372 22.6495,-104.61344"
         style="fill:#ffd5d5;stroke:#000000;stroke-width:3.67244625;stroke-linecap:butt;stroke-linejoin:miter;stroke-opacity:1"
         inkscape:connector-curvature="0" />
      <path
         id="path3985-03"
         d="m 1333.2053,757.66936 c -6.3069,28.04623 2.5643,65.58843 17.917,74.98141 8.3009,5.0786 15.2677,-6.56355 24.6075,-13.7594 29.1948,6.88474 69.2689,3.40095 86.1281,-7.12998"
         style="fill:#ffd5d5;stroke:#000000;stroke-width:3.67244625;stroke-linecap:butt;stroke-linejoin:miter;stroke-opacity:1"
         inkscape:connector-curvature="0" />
      <path
         id="path3985-0-9"
         d="m 1371.8441,619.44659 c -4.4592,-9.0445 -10.9452,-17.36422 -15.9664,-16.93657 -4.1537,0.35371 -3.8604,6.23586 -7.3137,6.77613 -4.2406,0.66322 -6.7357,-4.73613 -11.268,-2.77605 -6.7003,2.89771 -10.2404,46.02078 -10.1737,72.8342 -6.8255,32.14216 -11.7526,82.41206 -2.1969,116.28494 -0.1608,24.13495 6.6183,39.92773 14.0057,41.45616 13.6249,2.81927 27.5602,-11.03348 36.8999,-18.22944 29.1949,6.88485 69.269,3.40106 86.1282,-7.12996"
         style="fill:none;stroke:none;display:inline"
         inkscape:connector-curvature="0" />
      <path
         sodipodi:nodetypes="sssccs"
         inkscape:connector-curvature="0"
         id="path4731-2"
         d="m 1328.6147,764.57603 c 4.3297,2.37464 2.4218,-4.90814 6.6624,-5.57147 3.4532,-0.54016 3.8519,4.68907 8.008,4.36506 3.6942,-0.28799 2.8507,-11.93025 2.8507,-11.93025 -6.8547,-0.709 -18.6588,1.45972 -23.5778,5.27036 0,0 3.8264,6.6431 6.0567,7.8663 z"
         style="fill:#ffaaaa;stroke:none;display:inline" />
      <path
         sodipodi:nodetypes="csssc"
         inkscape:connector-curvature="0"
         id="path4731"
         d="m 1346.5989,728.43899 c -1.6655,11.07074 1.9061,34.5999 -3.1151,35.02758 -4.1537,0.35379 -4.5548,-4.90522 -8.008,-4.36506 -4.2406,0.66333 -3.0811,8.97138 -6.6624,5.57147 -24.0217,-22.80509 -13.5929,-68.52385 14.4116,-84.73452"
         style="fill:none;stroke:#000000;stroke-width:3.67244625;stroke-linecap:butt;stroke-linejoin:miter;stroke-opacity:1" />
      <path
         sodipodi:nodetypes="cc"
         inkscape:connector-curvature="0"
         id="path3354-4"
         d="m 1441.8019,611.01016 c 35.6174,1.95542 42.6906,29.26457 34.3486,47.60576"
         style="fill:#ffd5d5;stroke:#000000;stroke-width:3.67244625;stroke-linecap:butt;stroke-linejoin:miter;stroke-opacity:1" />
      <path
         id="path3348-9"
         d="m 1348.6499,640.6208 c -4.2005,2.70646 -5.9461,2.35515 -8.4857,5.97843 -9.2035,13.13059 -3.2219,32.09136 6.1375,46.55583"
         style="fill:#ffd5d5;stroke:#000000;stroke-width:3.67244625;stroke-linecap:butt;stroke-linejoin:miter;stroke-opacity:1"
         inkscape:connector-curvature="0" />
      <path
         id="path3979-2"
         d="m 1482.5407,694.15258 c 19.6758,-37.69187 -31.5661,-101.26512 -83.7392,-93.30213 -23.4877,3.58488 -43.7427,16.73077 -50.8228,39.53853"
         style="fill:#ffd5d5;stroke:#000000;stroke-width:3.67244625;stroke-linecap:butt;stroke-linejoin:miter;stroke-opacity:1"
         inkscape:connector-curvature="0" />
      <path
         id="path3352-9"
         d="m 1362.9085,621.90022 c -19.8462,2.37222 -19.6908,43.99087 -9.6036,51.94551 5.4428,4.29214 14.1578,-15.34295 18.5625,-24.05595"
         style="fill:#ffd5d5;stroke:#000000;stroke-width:3.67244625;stroke-linecap:butt;stroke-linejoin:miter;stroke-opacity:1"
         inkscape:connector-curvature="0" />
      <path
         id="path5111-7-6-1-8-2-8-8"
         d="m 1346.3345,751.53632 c -6.8547,-0.709 -18.6588,1.45972 -23.5778,5.27036"
         style="fill:none;stroke:#000000;stroke-width:3.67244625;stroke-linecap:butt;stroke-linejoin:miter;stroke-opacity:1;display:inline"
         inkscape:connector-curvature="0" />
    </g>
  </g>
  <g
     inkscape:groupmode="layer"
     id="layer4"
     inkscape:label="吹き出し"
     sodipodi:insensitive="true">
    <g
       transform="translate(54.174813,-2.454027)"
       id="g9788">
      <path
         sodipodi:nodetypes="sssscsssssss"
         inkscape:connector-curvature="0"
         id="rect7294"
         d="m 65.802008,45.97286 0,43.41665 c 0,12.90509 10.38929,23.29439 23.29438,23.29439 l 92.325342,0 c 17.58619,0 20.44756,11.07651 45.55671,21.13522 -10.94152,-9.14533 -17.26916,-21.13522 -7.98497,-21.13522 l 48.79631,0 c 12.90509,0 23.2944,-10.3893 23.2944,-23.29439 l 0,-43.41665 c 0,-12.90509 -10.3893,-23.294381 -23.2944,-23.294381 l -178.693392,0 c -12.90509,0 -23.29438,10.389291 -23.29438,23.294381 z"
         style="fill:#fefefe;fill-opacity:1;stroke:#000000;stroke-width:2;stroke-linecap:round;stroke-miterlimit:4;stroke-opacity:1;stroke-dashoffset:0;display:inline" />
      <text
         sodipodi:linespacing="125%"
         id="text11601"
         y="57.919907"
         x="95.949974"
         style="font-size:32px;font-style:normal;font-weight:normal;line-height:125%;letter-spacing:0px;word-spacing:0px;writing-mode:lr-tb;fill:#000000;fill-opacity:1;stroke:none;display:inline;font-family:Sans"
         xml:space="preserve"><tspan
           y="57.919907"
           x="95.949974"
           id="tspan11603"
           sodipodi:role="line">この中に</tspan><tspan
           y="97.919907"
           x="95.949974"
           sodipodi:role="line"
           id="tspan5151">偽物がいる!</tspan></text>
    </g>
  </g>
  <g
     inkscape:groupmode="layer"
     id="layer2"
     inkscape:label="枠面"
     sodipodi:insensitive="true">
    <path
       style="fill:#ffffff;stroke:none;display:inline"
       d="m 0,0 0,320 370,0 0,-320 -10,10 0,300 -350,0 0,-300 350,0 10,-10 z"
       id="path21072"
       inkscape:connector-curvature="0"
       sodipodi:nodetypes="ccccccccccc" />
  </g>
</svg>
