<?xml version="1.0" encoding="UTF-8" standalone="no"?>
<!-- Created with Inkscape (http://www.inkscape.org/) -->

<svg
   xmlns:dc="http://purl.org/dc/elements/1.1/"
   xmlns:cc="http://creativecommons.org/ns#"
   xmlns:rdf="http://www.w3.org/1999/02/22-rdf-syntax-ns#"
   xmlns:svg="http://www.w3.org/2000/svg"
   xmlns="http://www.w3.org/2000/svg"
   xmlns:sodipodi="http://sodipodi.sourceforge.net/DTD/sodipodi-0.dtd"
   xmlns:inkscape="http://www.inkscape.org/namespaces/inkscape"
   width="370"
   height="320"
   id="svg3172"
   version="1.1"
   inkscape:version="0.48.4 r9939"
   sodipodi:docname="[28.検知].svg">
  <defs
     id="defs3174" />
  <sodipodi:namedview
     id="base"
     pagecolor="#ffffff"
     bordercolor="#666666"
     borderopacity="1.0"
     inkscape:pageopacity="0.0"
     inkscape:pageshadow="2"
     inkscape:zoom="0.43988698"
     inkscape:cx="-87.039551"
     inkscape:cy="221.24951"
     inkscape:document-units="px"
     inkscape:current-layer="layer3"
     showgrid="false"
     inkscape:window-width="1245"
     inkscape:window-height="698"
     inkscape:window-x="-5"
     inkscape:window-y="-5"
     inkscape:window-maximized="0" />
  <metadata
     id="metadata3177">
    <rdf:RDF>
      <cc:Work
         rdf:about="">
        <dc:format>image/svg+xml</dc:format>
        <dc:type
           rdf:resource="http://purl.org/dc/dcmitype/StillImage" />
        <dc:title />
      </cc:Work>
    </rdf:RDF>
  </metadata>
  <g
     inkscape:label="補助線"
     inkscape:groupmode="layer"
     id="layer1"
     transform="translate(0,-732.36218)"
     sodipodi:insensitive="true"
     style="display:none">
    <path
       style="fill:none;stroke:#0000ff;stroke-width:1px;stroke-linecap:butt;stroke-linejoin:miter;stroke-opacity:1;display:inline"
       d="M 10,1042.3622 360,742.36211"
       id="path3025"
       inkscape:connector-curvature="0"
       sodipodi:nodetypes="cc" />
    <path
       style="fill:none;stroke:#0000ff;stroke-width:1px;stroke-linecap:butt;stroke-linejoin:miter;stroke-opacity:1;display:inline"
       d="M 10,742.36211 360,1042.3622"
       id="path3027"
       inkscape:connector-curvature="0"
       sodipodi:nodetypes="cc" />
    <path
       style="fill:none;stroke:#ff0000;stroke-width:1px;stroke-linecap:butt;stroke-linejoin:miter;stroke-opacity:1;display:inline"
       d="m 10,732.36211 0,320.00009"
       id="path3006"
       inkscape:connector-curvature="0"
       sodipodi:nodetypes="cc" />
    <path
       style="fill:none;stroke:#ff0000;stroke-width:1px;stroke-linecap:butt;stroke-linejoin:miter;stroke-opacity:1;display:inline"
       d="m 360,732.36211 0,320.00009"
       id="path3010"
       inkscape:connector-curvature="0"
       sodipodi:nodetypes="cc" />
    <path
       style="fill:none;stroke:#ff0000;stroke-width:1px;stroke-linecap:butt;stroke-linejoin:miter;stroke-opacity:1;display:inline"
       d="m 0,742.36208 370,3e-5"
       id="path3016"
       inkscape:connector-curvature="0" />
    <path
       style="fill:none;stroke:#ff0000;stroke-width:1px;stroke-linecap:butt;stroke-linejoin:miter;stroke-opacity:1;display:inline"
       d="m 0,1042.3622 370,0"
       id="path3018"
       inkscape:connector-curvature="0"
       sodipodi:nodetypes="cc" />
  </g>
  <g
     inkscape:groupmode="layer"
     id="layer3"
     inkscape:label="豚"
     sodipodi:insensitive="true">
    <path
       sodipodi:type="arc"
       style="fill:#000000;fill-opacity:1;stroke:none"
       id="path5095-5-1"
       sodipodi:cx="215.23778"
       sodipodi:cy="283.24347"
       sodipodi:rx="44.178524"
       sodipodi:ry="7.7754202"
       d="m 259.4163,283.24347 a 44.178524,7.7754202 0 1 1 -88.35705,0 44.178524,7.7754202 0 1 1 88.35705,0 z"
       transform="matrix(0.98925019,0.02548213,-0.02548213,0.98925019,-51.119892,-25.251116)" />
    <path
       sodipodi:type="arc"
       style="fill:#000000;fill-opacity:1;stroke:none"
       id="path5095-5"
       sodipodi:cx="215.23778"
       sodipodi:cy="283.24347"
       sodipodi:rx="44.178524"
       sodipodi:ry="7.7754202"
       d="m 259.4163,283.24347 a 44.178524,7.7754202 0 1 1 -88.35705,0 44.178524,7.7754202 0 1 1 88.35705,0 z"
       transform="matrix(0.94407467,0,0,0.94407467,9.082521,-28.817833)" />
    <path
       sodipodi:type="arc"
       style="fill:#000000;fill-opacity:1;stroke:none"
       id="path5095-5-1-7"
       sodipodi:cx="215.23778"
       sodipodi:cy="283.24347"
       sodipodi:rx="44.178524"
       sodipodi:ry="7.7754202"
       d="m 259.4163,283.24347 a 44.178524,7.7754202 0 1 1 -88.35705,0 44.178524,7.7754202 0 1 1 88.35705,0 z"
       transform="matrix(1.1324834,-0.05919557,0.05919557,1.1324834,-190.73679,-42.073833)" />
    <path
       sodipodi:type="arc"
       style="fill:#000000;fill-opacity:1;stroke:none"
       id="path5095"
       sodipodi:cx="215.23778"
       sodipodi:cy="283.24347"
       sodipodi:rx="44.178524"
       sodipodi:ry="7.7754202"
       d="m 259.4163,283.24347 a 44.178524,7.7754202 0 1 1 -88.35705,0 44.178524,7.7754202 0 1 1 88.35705,0 z"
       transform="matrix(1.1741559,0,0,1.1741559,47.908289,-62.970664)" />
    <g
       id="g3868"
       transform="matrix(1.0447506,0,0,1.0447506,290.97076,110.94899)"
       style="stroke-width:1.91433251">
      <path
         sodipodi:nodetypes="ccsccsc"
         inkscape:connector-curvature="0"
         id="path3911-1-4-5-7"
         d="m -117.2469,78.244238 c -8.89379,16.281077 -8.96084,26.188332 -4.83043,32.505162 -3.82722,1.82674 -6.35104,7.91087 -1.83484,11.05031 3.06504,2.13066 18.25073,-0.0682 24.978309,-0.77971 9.430071,-0.24494 24.301891,0.12011 33.301371,-0.29261 9.95908,0.98794 19.418867,3.10359 24.095427,1.28524 5.85158,-2.27522 3.580093,-12.86528 -7.011887,-15.50956"
         style="fill:#a05a2c;stroke:#000000;stroke-width:1.91433251;stroke-linecap:butt;stroke-linejoin:miter;stroke-opacity:1;display:inline" />
      <path
         sodipodi:nodetypes="csccccccc"
         inkscape:connector-curvature="0"
         id="path5109-2-7-7-2-9-2-0-3"
         d="m -52.5822,52.376431 c 14.85574,9.923812 17.22985,31.846039 14.94728,36.666587 -0.5109,1.079018 -2.71649,-1.386775 -4.95949,-1.509438 l -5.641,27.02565 -63.34028,-30.366646 -3.60243,-23.295126 52.71162,-35.682995 7.23626,9.924934 z"
         style="fill:#a05a2c;stroke:none;display:inline" />
      <path
         sodipodi:nodetypes="scccs"
         inkscape:connector-curvature="0"
         id="path5109-2-7-7-2-9-2-2-8"
         d="m -37.87395,89.422687 c -0.72694,0.944747 -1.80533,-1.386774 -4.04838,-1.509432 l -0.34551,-4.846368 5.25889,-1.621225 c 0.0482,1.18189 0.30602,6.455228 -0.865,7.977025 z"
         style="fill:#502d16;stroke:none;display:inline" />
      <path
         sodipodi:nodetypes="csc"
         inkscape:connector-curvature="0"
         id="path5109-2-7-7-2-9-2-7"
         d="m -52.57625,52.420018 c 14.85574,9.923811 18.65594,34.302088 14.31345,37.538088 -0.95729,0.713365 -1.29039,-1.466003 -3.53339,-1.588666"
         style="fill:none;stroke:#000000;stroke-width:1.91433251;stroke-linecap:butt;stroke-linejoin:miter;stroke-opacity:1;display:inline" />
      <path
         sodipodi:nodetypes="cc"
         inkscape:connector-curvature="0"
         id="path5111-7-6-1-8-2-8-4"
         d="m -36.48677,81.664159 -6.13029,1.2251"
         style="fill:none;stroke:#000000;stroke-width:1.91433251;stroke-linecap:butt;stroke-linejoin:miter;stroke-opacity:1;display:inline" />
      <path
         sodipodi:nodetypes="cc"
         inkscape:connector-curvature="0"
         id="path3570-7-2-8-7"
         d="M -47.536064,111.14965 C -35.499304,97.445945 -41.3286,79.827507 -47.74495,68.261663"
         style="fill:#a05a2c;stroke:#000000;stroke-width:1.91433251;stroke-linecap:butt;stroke-linejoin:miter;stroke-opacity:1;display:inline" />
      <path
         sodipodi:nodetypes="csssc"
         inkscape:connector-curvature="0"
         id="path5109-2-7-7-2-9-4-9"
         d="m -115.63701,57.172937 c -14.47482,13.803778 -12.29661,37.315581 -8.05954,40.10616 1.47015,0.968268 2.17678,-1.707301 4.08856,-1.486499 1.54517,0.178461 2.071,1.927704 3.64468,2.559593 2.18244,0.87635 7.08372,-9.425487 8.25435,-16.31516"
         style="fill:#a05a2c;stroke:none;display:inline" />
      <path
         sodipodi:nodetypes="csccc"
         inkscape:connector-curvature="0"
         id="path3386-7-3-1"
         d="m -94.23486,60.53664 c -12.76686,18.93503 -12.49128,40.25834 -7.10555,45.46948 1.765634,1.70843 1.371594,-2.60851 3.287304,-2.67601 L -83.80229,70.684163 z"
         style="fill:none;stroke:none;display:inline" />
      <path
         sodipodi:nodetypes="ccsssc"
         inkscape:connector-curvature="0"
         id="path5111-7-6-1-8-2-86-0"
         d="m -111.76509,92.15363 c 1.84005,-4.20425 -13.80781,-3.96831 -14.29619,-0.15158 0,0 0.72659,5.68344 2.94686,6.68132 1.60565,0.72164 1.7286,-2.61023 3.52833,-3.06334 1.50065,-0.37781 1.95896,3.38264 4.54104,3.35705 2.33936,-0.0232 3.27996,-6.82345 3.27996,-6.82345 z"
         style="fill:#502d16;stroke:none;display:inline" />
      <path
         sodipodi:nodetypes="csssc"
         inkscape:connector-curvature="0"
         id="path5109-2-7-7-2-9-9"
         d="m -115.5617,57.151946 c -14.47483,13.803778 -11.84843,38.890778 -7.61136,41.681357 1.47015,0.968268 1.7286,-2.610232 3.52834,-3.06334 1.50064,-0.377808 1.95895,3.382636 4.54103,3.357056 2.33936,-0.02318 4.28261,-10.81112 5.45324,-17.700793"
         style="fill:none;stroke:#000000;stroke-width:1.91433251;stroke-linecap:butt;stroke-linejoin:miter;stroke-opacity:1;display:inline" />
      <path
         sodipodi:nodetypes="cc"
         inkscape:connector-curvature="0"
         id="path5111-7-6-1-8-2-86"
         d="m -126.11991,92.151984 c 0.48837,-3.816727 16.13623,-4.052666 14.29618,0.151585"
         style="fill:none;stroke:#000000;stroke-width:1.91433251;stroke-linecap:butt;stroke-linejoin:miter;stroke-opacity:1;display:inline" />
      <path
         sodipodi:nodetypes="cc"
         inkscape:connector-curvature="0"
         id="path5091-2-4-0-7-2-5"
         d="m -65.71322,21.667222 c 13.329893,3.425214 16.650676,14.179684 13.909856,20.206268"
         style="fill:#a05a2c;stroke:#000000;stroke-width:1.91433251;stroke-linecap:butt;stroke-linejoin:miter;stroke-opacity:1;display:inline" />
      <path
         sodipodi:nodetypes="csc"
         inkscape:connector-curvature="0"
         id="path3536-4-7-61-2"
         d="m -60.77848,25.863931 c -11.82289,-14.913959 -38.802228,-13.259316 -49.15931,4.465097 -6.51897,11.156123 -12.88745,25.147224 -6.89551,31.756839"
         style="fill:#a05a2c;stroke:#000000;stroke-width:1.91433251;stroke-linecap:butt;stroke-linejoin:miter;stroke-opacity:1;display:inline" />
      <path
         sodipodi:nodetypes="cc"
         inkscape:connector-curvature="0"
         id="path5093-4-2-9-9-4-8"
         d="m -55.36343,35.287835 c 4.66022,5.210966 7.996369,16.983163 2.397144,25.261581"
         style="fill:#a05a2c;stroke:#000000;stroke-width:1.91433251;stroke-linecap:butt;stroke-linejoin:miter;stroke-opacity:1;display:inline" />
      <path
         sodipodi:nodetypes="cc"
         inkscape:connector-curvature="0"
         id="path5095-5-3-4-3-2-6"
         d="m -69.511565,34.327162 -0.98689,4.292491"
         style="fill:none;stroke:#000000;stroke-width:1.91433251;stroke-linecap:butt;stroke-linejoin:miter;stroke-opacity:1;display:inline" />
      <path
         sodipodi:nodetypes="cc"
         inkscape:connector-curvature="0"
         id="path5097-5-2-8-1-5-0"
         d="m -83.504795,35.171049 2.67091,4.182"
         style="fill:none;stroke:#000000;stroke-width:1.91433251;stroke-linecap:butt;stroke-linejoin:miter;stroke-opacity:1;display:inline" />
      <path
         sodipodi:nodetypes="csc"
         inkscape:connector-curvature="0"
         id="path5099-1-2-8-9-8-2"
         d="m -101.07039,22.34651 c -18.08327,2.988929 -17.32581,21.372186 -12.47938,24.624805 2.59443,1.741193 5.83533,-6.404456 9.37599,-10.031948"
         style="fill:#a05a2c;stroke:#000000;stroke-width:1.91433251;stroke-linecap:butt;stroke-linejoin:miter;stroke-opacity:1;display:inline" />
      <path
         sodipodi:nodetypes="ssssss"
         inkscape:connector-curvature="0"
         id="path5101-7-1-2-8-62-4"
         d="m -74.44209,39.41654 c -5.43729,0.295568 -10.35218,5.663853 -12.603096,9.453136 -3.678027,6.19174 -2.390304,12.697511 3.915002,10.953437 4.414739,-1.221135 14.26499,-0.637958 17.00127,-0.370779 4.436306,0.433174 5.902442,-5.352781 3.580057,-10.441942 -2.136346,-4.681486 -6.647573,-9.879005 -11.893233,-9.593852 z"
         style="fill:#502d16;stroke:#000000;stroke-width:1.91433251;stroke-linecap:butt;stroke-linejoin:miter;stroke-opacity:1;display:inline" />
      <path
         sodipodi:nodetypes="sss"
         inkscape:connector-curvature="0"
         id="path5105-1-6-4-6-6-8"
         d="m -79.508312,53.96309 c 0.84204,1.437332 3.575517,-8.374879 3.058567,-8.396918 -0.544,-0.02319 -5.326457,4.525713 -3.058567,8.396918 z"
         style="fill:#000000;stroke:#000000;stroke-width:1.91433251;display:inline" />
      <path
         sodipodi:nodetypes="sss"
         inkscape:connector-curvature="0"
         id="path5107-1-8-55-5-5-6"
         d="m -71.276435,45.553989 c -0.54184,-0.152714 1.716012,9.771266 2.580222,8.272508 1.77042,-3.070352 -2.123342,-8.14374 -2.580222,-8.272508 z"
         style="fill:#000000;stroke:#000000;stroke-width:1.91433251;display:inline" />
    </g>
    <g
       id="g3153"
       transform="matrix(1.0447506,0,0,1.0447506,-0.2819135,-5.5951248)"
       style="stroke-width:1.91433251">
      <path
         sodipodi:nodetypes="cssscccccc"
         inkscape:connector-curvature="0"
         id="path9386-1-4-1"
         d="m 101.09484,192.97507 c -6.471864,-6.84044 -13.043389,-14.00425 -12.404883,-17.73175 0.35265,-2.05869 1.858016,-1.83482 2.084284,-4.12245 0.121094,-1.22421 -2.227745,-3.09778 -1.585322,-4.44808 1.588504,-3.33886 14.709051,-5.40944 19.597491,-4.83023 l 2.67371,-14.89792 10.89795,-10.75644 59.75677,35.51104 3.32278,28.49146 z"
         style="fill:#ffd5d5;stroke:none" />
      <path
         sodipodi:nodetypes="sssccs"
         inkscape:connector-curvature="0"
         id="path9386-1-4-3"
         d="m 88.647517,175.34744 c 0.352648,-2.0587 1.858017,-1.83483 2.084284,-4.12245 0.121093,-1.22421 -2.227743,-3.09778 -1.585322,-4.44808 1.588505,-3.33885 8.821778,-3.92134 8.821778,-3.92134 -4.276914,1.34428 -6.165972,16.34078 -5.242926,21.29996 0,0 -4.716322,-5.08061 -4.077814,-8.80809 z"
         style="fill:#ffaaaa;stroke:none" />
      <path
         sodipodi:nodetypes="cc"
         inkscape:connector-curvature="0"
         id="path5111-7-6-1-8-2-7-2-6-79"
         d="m 92.717438,184.21072 c -0.923038,-4.95916 0.966018,-19.95567 5.242926,-21.29994"
         style="fill:none;stroke:#000000;stroke-width:1.91433251;stroke-linecap:butt;stroke-linejoin:miter;stroke-opacity:1;display:inline" />
      <path
         sodipodi:nodetypes="csssc"
         inkscape:connector-curvature="0"
         id="path9386-1-4"
         d="m 101.04451,193.1344 c -6.471857,-6.84044 -13.043389,-14.00426 -12.404877,-17.73176 0.352648,-2.05868 1.858016,-1.83482 2.084287,-4.12244 0.121085,-1.22421 -2.22775,-3.09779 -1.585327,-4.44808 1.5885,-3.33887 14.709057,-5.40945 19.597487,-4.83023"
         style="fill:none;stroke:#000000;stroke-width:1.91433251;stroke-linecap:butt;stroke-linejoin:miter;stroke-opacity:1" />
      <path
         sodipodi:nodetypes="csccsc"
         inkscape:connector-curvature="0"
         id="path3371"
         d="m 184.53841,199.02513 c 6.40493,15.70587 7.77366,50.35141 -1.73261,55.52027 -3.88003,2.1097 -12.84263,-1.47672 -19.9303,-5.79297 -6.85333,3.72189 -41.37032,2.92793 -48.47142,-1.27063 -3.52398,4.55191 -8.28775,5.13901 -12.53959,3.92467 -5.652277,-1.61429 -12.69672,-34.69026 -0.0656,-66.56141"
         style="fill:#ffd5d5;stroke:#000000;stroke-width:1.91433251;stroke-linecap:butt;stroke-linejoin:miter;stroke-opacity:1" />
      <path
         sodipodi:nodetypes="csssc"
         inkscape:connector-curvature="0"
         id="path3367-4"
         d="m 178.94024,166.61779 c 13.02408,2.17217 24.96185,7.91004 25.47117,11.43201 0.43699,3.02178 -3.24338,2.56961 -3.55035,5.5054 -0.24504,2.34355 2.39393,3.60955 2.22829,5.55029 -0.26836,3.14442 -13.24277,11.37897 -19.19201,14.36072"
         style="fill:#ffd5d5;stroke:none" />
      <path
         style="fill:#ffaaaa;stroke:none;display:inline"
         d="m 196.94054,195.55513 c -6.02042,1.70184 -4.36893,-25.42623 1.37616,-22.67213 0,0 5.7814,2.58352 6.05228,5.27091 0.3062,3.03784 -3.24339,2.56963 -3.55036,5.50541 -0.24504,2.34356 2.52118,3.62464 2.2283,5.5503 -0.3876,2.54828 -6.10638,6.34551 -6.10638,6.34551 z"
         id="path5111-7-6-1-8-2-7-2-6-7-3-3"
         inkscape:connector-curvature="0"
         sodipodi:nodetypes="ccsssc" />
      <path
         sodipodi:nodetypes="csssc"
         inkscape:connector-curvature="0"
         id="path3367"
         d="m 178.88992,166.77712 c 13.02407,2.17217 24.96185,7.91003 25.47117,11.432 0.43699,3.02178 -3.24338,2.56962 -3.55035,5.50541 -0.24505,2.34355 2.19728,3.60273 2.22828,5.55029 0.0689,4.32468 -13.57999,11.37896 -19.192,14.36071"
         style="fill:none;stroke:#000000;stroke-width:1.91433251;stroke-linecap:butt;stroke-linejoin:miter;stroke-opacity:1" />
      <path
         style="fill:none;stroke:#000000;stroke-width:1.91433251;stroke-linecap:butt;stroke-linejoin:miter;stroke-opacity:1;display:inline"
         d="m 196.92753,195.80276 c -6.02042,1.70184 -4.36381,-25.61865 1.38127,-22.86455"
         id="path5111-7-6-1-8-2-7-2-6-7-3"
         inkscape:connector-curvature="0"
         sodipodi:nodetypes="cc" />
      <path
         sodipodi:nodetypes="cc"
         inkscape:connector-curvature="0"
         id="path5091-2-4-0-7-2-5-8-2"
         d="m 126.32172,131.8193 c -11.76694,0.25724 -17.74797,9.7508 -17.00127,17.87238"
         style="fill:#ffd5d5;stroke:#000000;stroke-width:1.91433251;stroke-linecap:butt;stroke-linejoin:miter;stroke-opacity:1;display:inline" />
      <path
         sodipodi:nodetypes="csc"
         inkscape:connector-curvature="0"
         id="path3536-4-7-61-7-3-6"
         d="m 118.42175,137.44666 c 14.11227,-14.52053 32.63731,-11.52549 43.52896,-3.68741 10.24441,7.37227 23.48404,28.64397 17.52835,39.48331"
         style="fill:#ffd5d5;stroke:#000000;stroke-width:1.91433251;stroke-linecap:butt;stroke-linejoin:miter;stroke-opacity:1;display:inline" />
      <path
         sodipodi:nodetypes="cc"
         inkscape:connector-curvature="0"
         id="path5093-4-2-9-9-4-11-5-8"
         d="m 112.57182,144.3587 c -4.69509,3.50304 -11.65054,16.88689 -4.50033,28.85731"
         style="fill:#ffd5d5;stroke:#000000;stroke-width:1.91433251;stroke-linecap:butt;stroke-linejoin:miter;stroke-opacity:1;display:inline" />
      <path
         sodipodi:nodetypes="cc"
         inkscape:connector-curvature="0"
         id="path5095-5-3-4-3-2-5-1-5"
         d="m 123.56692,141.39704 -0.12156,4.0927"
         style="fill:none;stroke:#000000;stroke-width:1.91433251;stroke-linecap:butt;stroke-linejoin:miter;stroke-opacity:1;display:inline" />
      <path
         sodipodi:nodetypes="cc"
         inkscape:connector-curvature="0"
         id="path5097-5-2-8-1-5-2-2-7"
         d="m 135.11709,143.73233 -3.04045,4.19435"
         style="fill:none;stroke:#000000;stroke-width:1.91433251;stroke-linecap:butt;stroke-linejoin:miter;stroke-opacity:1;display:inline" />
      <path
         sodipodi:nodetypes="csc"
         inkscape:connector-curvature="0"
         id="path5099-1-2-8-9-8-7-0-6"
         d="m 159.19909,133.71352 c 18.45122,3.99733 22.17532,23.35725 12.59338,30.27061 -4.67464,3.37274 -11.12047,-11.8289 -16.98226,-15.47951"
         style="fill:#ffd5d5;stroke:#000000;stroke-width:1.91433251;stroke-linecap:butt;stroke-linejoin:miter;stroke-opacity:1;display:inline" />
      <path
         sodipodi:nodetypes="ssssss"
         inkscape:connector-curvature="0"
         id="path5101-7-1-2-8-62-6-1-1"
         d="m 124.43139,146.68241 c 5.37023,0.54604 11.54648,6.91798 13.69715,12.13569 3.06302,7.43117 1.00973,13.00375 -6.4721,10.19485 -5.57038,-2.09128 -11.25581,-2.16874 -14.43373,-1.77311 -4.8314,0.60139 -5.31753,-6.57698 -2.55344,-13.22178 1.74469,-4.19423 5.9387,-7.72441 9.76212,-7.33565 z"
         style="fill:#ffaaaa;stroke:#000000;stroke-width:1.91433251;stroke-linecap:butt;stroke-linejoin:miter;stroke-opacity:1;display:inline" />
      <path
         sodipodi:nodetypes="sss"
         inkscape:connector-curvature="0"
         id="path5105-1-6-4-6-6-1-6-8"
         d="m 130.33198,163.37435 c -0.83086,1.07798 -4.10223,-10.24732 -3.46288,-10.19938 0.85775,0.0644 6.75953,5.92231 3.46288,10.19938 z"
         style="fill:#000000;stroke:#000000;stroke-width:1.91433251;display:inline" />
      <path
         sodipodi:nodetypes="sss"
         inkscape:connector-curvature="0"
         id="path5107-1-8-55-5-5-42-4-9"
         d="m 121.52206,152.83031 c 0.79667,-0.19587 -0.8468,10.26477 -1.72179,9.13198 -2.50556,-3.2437 1.14746,-8.99078 1.72179,-9.13198 z"
         style="fill:#000000;stroke:#000000;stroke-width:1.91433251;display:inline" />
    </g>
    <g
       id="g3251"
       transform="matrix(1.0447506,0,0,1.0447506,158.18462,-45.863226)"
       style="stroke-width:1.91433251">
      <path
         sodipodi:nodetypes="csccccccc"
         inkscape:connector-curvature="0"
         id="path5109-2-7-7-2-9-8-4-0-5-8-0"
         d="m -36.077341,246.26224 c 1.530613,-1.5388 2.572851,1.68668 3.776666,0.75577 3.022243,-2.33705 0.545329,-24.52894 -19.544873,-34.95965 l -5.985738,-20.43569 -11.937573,-11.09223 -59.874981,45.90862 9.93486,30.35898 79.411929,26.08812 z"
         style="fill:#ffd5d5;stroke:none;display:inline" />
      <path
         sodipodi:nodetypes="ccsccc"
         inkscape:connector-curvature="0"
         id="path10044-9"
         d="m -127.27496,253.01585 c -2.53871,11.37785 -3.75784,26.08792 -2.64087,33.31269 -2.33698,3.27287 -5.88268,11.304 -1.39326,14.51244 3.69882,2.64341 20.93082,1.1467 28.27272,-3.61203 13.995099,2.01571 46.609799,-0.89208 52.517088,-2.87777 20.601555,3.50463 21.824836,-6.92947 10.078734,-13.22916"
         style="fill:#ffd5d5;stroke:#000000;stroke-width:1.91433251;stroke-linecap:butt;stroke-linejoin:miter;stroke-opacity:1" />
      <path
         sodipodi:nodetypes="csssc"
         id="path10046-6-4"
         d="m -128.84617,224.05306 c -9.25411,12.09333 -13.34506,32.06245 -11.37994,34.33214 1.51504,1.74985 4.86939,-1.41552 6.40598,0.0466 1.70266,1.62013 0.95576,3.4368 3.01881,5.08234 1.48098,1.18127 9.59404,-3.35789 13.12761,-7.03392"
         style="fill:#ffd5d5;stroke:none;display:inline"
         inkscape:connector-curvature="0" />
      <path
         sodipodi:nodetypes="cccsc"
         id="path5111-7-6-1-8-2-7-2-6-5-2-8"
         d="m -31.917494,239.34646 c -2.116962,1.71338 -4.726107,2.63603 -6.976531,3.36661 l 1.550964,3.84803 c 1.530613,-1.53877 3.749055,1.23766 5.044303,0.43887 1.787705,-1.10249 0.381264,-7.65351 0.381264,-7.65351 z"
         style="fill:#ffaaaa;stroke:none;display:inline"
         inkscape:connector-curvature="0" />
      <path
         sodipodi:nodetypes="ccscsc"
         id="path5111-7-6-1-8-2-7-2-6-5-1-1-8"
         d="m -123.1236,260.81499 c -5.00152,-0.71569 -15.486,-10.54174 -16.59779,-14.89704 0,0 -2.36745,10.19096 -0.40234,12.46066 1.51504,1.74985 4.86939,-1.41554 6.40598,0.0467 1.70267,1.62012 0.61964,3.21267 2.68268,4.85822 1.48099,1.1813 7.91147,-2.46854 7.91147,-2.46854 z"
         style="fill:#ffaaaa;stroke:none;display:inline"
         inkscape:connector-curvature="0" />
      <path
         sodipodi:nodetypes="csc"
         inkscape:connector-curvature="0"
         id="path5109-2-7-7-2-9-8-4-0-5-2"
         d="m -37.418321,246.799 c 1.530613,-1.5388 3.682034,1.29053 4.885849,0.35963 3.022244,-2.33706 0.545334,-24.21203 -19.386418,-35.1181"
         style="fill:none;stroke:#000000;stroke-width:1.91433251;stroke-linecap:butt;stroke-linejoin:miter;stroke-opacity:1;display:inline" />
      <path
         id="path5111-7-6-1-8-2-7-2-6-5-7"
         d="m -31.755072,239.10896 c -2.116961,1.71339 -4.567653,2.71525 -6.818077,3.44586"
         style="fill:none;stroke:#000000;stroke-width:1.91433251;stroke-linecap:butt;stroke-linejoin:miter;stroke-opacity:1;display:inline"
         inkscape:connector-curvature="0"
         sodipodi:nodetypes="cc" />
      <path
         sodipodi:nodetypes="csssc"
         id="path10046-61"
         d="m -128.81903,224.04665 c -9.25411,12.09332 -13.34506,31.98321 -11.37995,34.2529 1.51504,1.74986 4.86939,-1.41552 6.40598,0.0466 1.70267,1.62013 0.52034,3.34555 2.68268,4.85825 2.48938,1.74149 10.15426,-3.11058 13.68784,-6.78661"
         style="fill:none;stroke:#000000;stroke-width:1.91433251;stroke-linecap:butt;stroke-linejoin:miter;stroke-opacity:1"
         inkscape:connector-curvature="0" />
      <path
         id="path9386-1-1-4"
         d="m -42.910886,284.844 c 8.61581,-10.54124 12.093407,-36.46048 -4.417026,-55.65793"
         style="fill:#ffd5d5;stroke:#000000;stroke-width:1.91433251;stroke-linecap:butt;stroke-linejoin:miter;stroke-opacity:1"
         inkscape:connector-curvature="0"
         sodipodi:nodetypes="cc" />
      <path
         sodipodi:nodetypes="cc"
         id="path5111-7-6-1-8-2-7-2-6-5-1-2"
         d="m -122.86271,260.67994 c -5.15997,-1.98334 -15.02987,-12.14949 -16.45857,-13.96954"
         style="fill:none;stroke:#000000;stroke-width:1.91433251;stroke-linecap:butt;stroke-linejoin:miter;stroke-opacity:1;display:inline"
         inkscape:connector-curvature="0" />
      <path
         id="path5091-2-4-0-7-2-5-8-7-7"
         d="m -75.496134,175.76535 c 14.033095,1.18589 18.981163,9.32162 18.562638,18.07411"
         style="fill:#ffd5d5;stroke:#000000;stroke-width:1.91433251;stroke-linecap:butt;stroke-linejoin:miter;stroke-opacity:1;display:inline"
         inkscape:connector-curvature="0"
         sodipodi:nodetypes="cc" />
      <path
         id="path3536-4-7-61-7-3-4-4"
         d="m -68.331535,180.89701 c -15.831915,-14.92027 -38.261405,-7.58146 -46.987985,2.10169 -8.89192,9.86661 -21.10574,33.18243 -13.31113,45.40572"
         style="fill:#ffd5d5;stroke:#000000;stroke-width:1.91433251;stroke-linecap:butt;stroke-linejoin:miter;stroke-opacity:1;display:inline"
         inkscape:connector-curvature="0"
         sodipodi:nodetypes="csc" />
      <path
         id="path5093-4-2-9-9-4-11-5-0-5"
         d="m -59.656996,188.58221 c 5.204584,3.53864 12.646796,17.05967 6.328752,29.45293"
         style="fill:#ffd5d5;stroke:#000000;stroke-width:1.91433251;stroke-linecap:butt;stroke-linejoin:miter;stroke-opacity:1;display:inline"
         inkscape:connector-curvature="0"
         sodipodi:nodetypes="cc" />
      <path
         id="path5095-5-3-4-3-2-5-1-9-5"
         d="m -70.566697,186.19957 -0.429257,3.91401"
         style="fill:none;stroke:#000000;stroke-width:1.91433251;stroke-linecap:butt;stroke-linejoin:miter;stroke-opacity:1;display:inline"
         inkscape:connector-curvature="0"
         sodipodi:nodetypes="cc" />
      <path
         id="path5097-5-2-8-1-5-2-2-4-1"
         d="m -84.429794,189.64887 4.332675,3.59871"
         style="fill:none;stroke:#000000;stroke-width:1.91433251;stroke-linecap:butt;stroke-linejoin:miter;stroke-opacity:1;display:inline"
         inkscape:connector-curvature="0"
         sodipodi:nodetypes="cc" />
      <path
         sodipodi:nodetypes="csc"
         id="path5099-1-2-8-9-8-7-0-8-7"
         d="m -110.24287,181.24434 c -17.32036,4.96571 -20.64637,24.941 -11.99693,31.96644 3.85166,3.12848 11.05722,-12.23779 17.1768,-17.5417"
         style="fill:#ffd5d5;stroke:#000000;stroke-width:1.91433251;stroke-linecap:butt;stroke-linejoin:miter;stroke-opacity:1;display:inline"
         inkscape:connector-curvature="0" />
      <path
         sodipodi:nodetypes="ssssss"
         inkscape:connector-curvature="0"
         id="path5101-7-1-2-8-62-6-1-8-1"
         d="m -73.105835,191.51402 c -4.66678,1.02117 -9.73242,6.65458 -12.256612,11.87068 -3.319836,6.86024 -1.952565,16.32457 5.875245,13.00346 5.761165,-2.44429 12.042537,-3.51581 15.472187,-3.24102 5.214121,0.41777 6.113736,-7.51998 3.681014,-12.76098 -2.627756,-5.66117 -7.405938,-10.04628 -12.771834,-8.87214 z"
         style="fill:#ffaaaa;stroke:#000000;stroke-width:1.91433251;stroke-linecap:butt;stroke-linejoin:miter;stroke-opacity:1;display:inline" />
      <path
         sodipodi:nodetypes="sss"
         inkscape:connector-curvature="0"
         id="path5105-1-6-4-6-6-1-6-2-1"
         d="m -77.054935,209.82989 c 1.126856,0.93189 2.835486,-11.46576 1.756442,-11.23601 -1.062006,0.22612 -5.64034,8.02408 -1.756442,11.23601 z"
         style="fill:#000000;stroke:#000000;stroke-width:1.91433251;display:inline" />
      <path
         sodipodi:nodetypes="sss"
         inkscape:connector-curvature="0"
         id="path5107-1-8-55-5-5-42-4-4-5"
         d="m -69.606907,197.1042 c -0.870882,0.13594 2.231835,11.93663 3.076966,10.65189 2.789247,-4.24012 -1.816016,-10.84873 -3.076966,-10.65189 z"
         style="fill:#000000;stroke:#000000;stroke-width:1.91433251;display:inline" />
    </g>
    <g
       id="g4069"
       transform="matrix(1.0763095,0,0,1.0763095,-256.70336,-55.620626)"
       style="stroke-width:1.85820162">
      <path
         sodipodi:nodetypes="csccccccc"
         style="fill:#ffd5d5;stroke:#000000;stroke-width:1.85820162;stroke-linecap:butt;stroke-linejoin:miter;stroke-opacity:1"
         d="m 539.83653,298.12931 c 4.24159,3.35121 19.13923,4.73141 23.57693,0.69555 3.02812,-2.7539 1.71767,-8.90586 -2.46913,-11.40081 l 6.78137,-44.19048 -13.75303,-30.00547 -59.89565,-14.92382 -13.78903,12.31927 -3.04251,56.45716 z"
         id="path4054"
         inkscape:connector-curvature="0" />
      <path
         sodipodi:nodetypes="cc"
         inkscape:connector-curvature="0"
         id="path3350-6-3"
         d="m 565.70953,260.80809 c 11.05557,-8.78183 5.236,-31.3615 -9.1389,-42.40397"
         style="fill:#ffd5d5;stroke:#000000;stroke-width:1.85820162;stroke-linecap:butt;stroke-linejoin:miter;stroke-opacity:1" />
      <path
         sodipodi:nodetypes="csssc"
         inkscape:connector-curvature="0"
         id="path4731-5-5"
         d="m 484.23795,248.11572 c -0.90702,6.02908 -0.86672,17.05026 -3.60125,17.28317 -2.26209,0.19267 -2.48053,-2.67136 -4.36112,-2.3772 -2.30942,0.36125 -1.67796,4.88578 -3.62832,3.03421 -13.08213,-12.41957 -7.40264,-37.31783 7.8485,-46.14609"
         style="fill:#ffd5d5;stroke:none;display:inline" />
      <path
         style="fill:#ffd5d5;stroke:#000000;stroke-width:1.85820162;stroke-linecap:butt;stroke-linejoin:miter;stroke-opacity:1"
         d="m 559.37573,290.78538 c 14.30894,-16.01819 6.15828,-41.00113 4.04769,-45.57126"
         id="path3983-2-9"
         inkscape:connector-curvature="0"
         sodipodi:nodetypes="cc" />
      <path
         id="path3985-03-8"
         d="m 475.02344,262.33352 c -2.9558,8.953 -2.17076,16.46229 1.65018,23.78318 -6.39416,2.92713 -6.75876,11.13323 -3.3014,13.24849 4.52064,2.76578 15.28676,0.54534 24.1761,0.11251 14.94867,1.84794 36.49436,1.31114 47.01378,-2.16715"
         style="fill:#ffd5d5;stroke:#000000;stroke-width:1.85820162;stroke-linecap:butt;stroke-linejoin:miter;stroke-opacity:1"
         inkscape:connector-curvature="0"
         sodipodi:nodetypes="ccscc" />
      <path
         id="path3985-0-9-4"
         d="m 496.06598,187.05793 c -2.42846,-4.9256 -5.96071,-9.45648 -8.69524,-9.22359 -2.26209,0.19263 -2.10236,3.39603 -3.98301,3.69026 -2.30942,0.36118 -3.66824,-2.57928 -6.13651,-1.51183 -3.64896,1.57808 -5.57688,25.06274 -5.54056,39.66522 -3.71714,17.5045 -6.40042,44.88129 -1.19642,63.32833 -0.0876,13.1438 3.6043,21.74449 7.62745,22.57686 7.42007,1.53537 15.00918,-6.00879 20.09554,-9.92768 15.89943,3.74946 37.72363,1.8522 46.90508,-3.88295"
         style="fill:none;stroke:none;display:inline"
         inkscape:connector-curvature="0" />
      <path
         sodipodi:nodetypes="sssccs"
         inkscape:connector-curvature="0"
         id="path4731-2-0"
         d="m 472.52342,266.09486 c 2.35794,1.29322 1.3189,-2.67295 3.62831,-3.0342 1.8806,-0.29417 2.09773,2.55365 4.36113,2.3772 2.01185,-0.15684 1.55248,-6.49717 1.55248,-6.49717 -3.73304,-0.38612 -10.16151,0.79496 -12.84038,2.87022 0,0 2.08384,3.6178 3.29846,4.28395 z"
         style="fill:#ffaaaa;stroke:none;display:inline" />
      <path
         sodipodi:nodetypes="csssc"
         inkscape:connector-curvature="0"
         id="path4731-7"
         d="m 484.33435,247.7593 c -0.90703,6.02908 -0.97875,17.49844 -3.71328,17.73135 -2.26209,0.19268 -2.48053,-2.67136 -4.36112,-2.37719 -2.30942,0.36125 -1.67796,4.88578 -3.62832,3.0342 -13.08213,-12.41956 -7.40264,-37.31782 7.8485,-46.14609"
         style="fill:none;stroke:#000000;stroke-width:1.85820162;stroke-linecap:butt;stroke-linejoin:miter;stroke-opacity:1" />
      <path
         sodipodi:nodetypes="cc"
         inkscape:connector-curvature="0"
         id="path3354-4-6"
         d="m 534.16473,182.46349 c 19.39709,1.06491 23.24913,15.93737 18.70611,25.92591"
         style="fill:#ffd5d5;stroke:#000000;stroke-width:1.85820162;stroke-linecap:butt;stroke-linejoin:miter;stroke-opacity:1" />
      <path
         id="path3348-9-3"
         d="m 483.43451,198.58933 c -2.28758,1.47392 -3.23822,1.2826 -4.62128,3.25583 -5.01219,7.15086 -1.75463,17.47683 3.34246,25.35412"
         style="fill:#ffd5d5;stroke:#000000;stroke-width:1.85820162;stroke-linecap:butt;stroke-linejoin:miter;stroke-opacity:1"
         inkscape:connector-curvature="0" />
      <path
         id="path3979-2-6"
         d="m 556.35092,227.74252 c 10.71536,-20.52684 -17.19078,-55.14859 -45.60404,-50.81197 -12.79131,1.95231 -23.82211,9.11151 -27.6779,21.53253"
         style="fill:#ffd5d5;stroke:#000000;stroke-width:1.85820162;stroke-linecap:butt;stroke-linejoin:miter;stroke-opacity:1"
         inkscape:connector-curvature="0" />
      <path
         id="path3352-9-1"
         d="m 491.19969,188.39417 c -10.80817,1.2919 -10.72354,23.95726 -5.23009,28.28932 2.96413,2.33749 7.71029,-8.35571 10.10907,-13.10077"
         style="fill:#ffd5d5;stroke:#000000;stroke-width:1.85820162;stroke-linecap:butt;stroke-linejoin:miter;stroke-opacity:1"
         inkscape:connector-curvature="0" />
      <path
         id="path5111-7-6-1-8-2-8-8-5"
         d="m 482.17355,258.99349 c -3.73304,-0.38612 -10.16151,0.79495 -12.84038,2.87021"
         style="fill:none;stroke:#000000;stroke-width:1.85820162;stroke-linecap:butt;stroke-linejoin:miter;stroke-opacity:1;display:inline"
         inkscape:connector-curvature="0" />
    </g>
    <path
       style="fill:none;stroke:#000000;stroke-width:2;stroke-linecap:butt;stroke-linejoin:miter;stroke-opacity:1"
       d="m 37.363092,130.68058 4.655361,6.13695"
       id="path3922"
       inkscape:connector-curvature="0"
       sodipodi:nodetypes="cc" />
    <path
       style="fill:none;stroke:#000000;stroke-width:2;stroke-linecap:butt;stroke-linejoin:miter;stroke-opacity:1"
       d="m 47.832634,126.07371 2.220664,6.8109"
       id="path3924"
       inkscape:connector-curvature="0"
       sodipodi:nodetypes="cc" />
  </g>
  <g
     inkscape:groupmode="layer"
     id="layer4"
     inkscape:label="吹き出し"
     sodipodi:insensitive="true">
    <g
       transform="translate(54.174813,-2.454027)"
       id="g9788">
      <path
         sodipodi:nodetypes="sssscsssssss"
         inkscape:connector-curvature="0"
         id="rect7294"
         d="m 65.802008,45.97286 0,43.41665 c 0,12.90509 10.38929,23.29439 23.29438,23.29439 l 92.325342,0 c 17.58619,0 20.44756,11.07651 45.55671,21.13522 -10.94152,-9.14533 -17.26916,-21.13522 -7.98497,-21.13522 l 48.79631,0 c 12.90509,0 23.2944,-10.3893 23.2944,-23.29439 l 0,-43.41665 c 0,-12.90509 -10.3893,-23.294381 -23.2944,-23.294381 l -178.693392,0 c -12.90509,0 -23.29438,10.389291 -23.29438,23.294381 z"
         style="fill:#fefefe;fill-opacity:1;stroke:#000000;stroke-width:2;stroke-linecap:round;stroke-miterlimit:4;stroke-opacity:1;stroke-dashoffset:0;display:inline" />
      <text
         sodipodi:linespacing="125%"
         id="text11601"
         y="57.919907"
         x="95.949974"
         style="font-size:32px;font-style:normal;font-weight:normal;line-height:125%;letter-spacing:0px;word-spacing:0px;writing-mode:lr-tb;fill:#000000;fill-opacity:1;stroke:none;display:inline;font-family:Sans"
         xml:space="preserve"><tspan
           y="57.919907"
           x="95.949974"
           id="tspan11603"
           sodipodi:role="line">この中に</tspan><tspan
           y="97.919907"
           x="95.949974"
           sodipodi:role="line"
           id="tspan5151">偽物がいる!</tspan></text>
    </g>
  </g>
  <g
     inkscape:groupmode="layer"
     id="layer2"
     inkscape:label="枠面"
     sodipodi:insensitive="true"
     style="display:inline">
    <path
       style="fill:#ffffff;stroke:none;display:inline"
       d="m 0,0 0,320 370,0 0,-320 -10,10 0,300 -350,0 0,-300 350,0 10,-10 z"
       id="path21072"
       inkscape:connector-curvature="0"
       sodipodi:nodetypes="ccccccccccc" />
  </g>
</svg>
