<?xml version="1.0" encoding="UTF-8" standalone="no"?>
<!-- Created with Inkscape (http://www.inkscape.org/) -->

<svg
   xmlns:dc="http://purl.org/dc/elements/1.1/"
   xmlns:cc="http://creativecommons.org/ns#"
   xmlns:rdf="http://www.w3.org/1999/02/22-rdf-syntax-ns#"
   xmlns:svg="http://www.w3.org/2000/svg"
   xmlns="http://www.w3.org/2000/svg"
   xmlns:sodipodi="http://sodipodi.sourceforge.net/DTD/sodipodi-0.dtd"
   xmlns:inkscape="http://www.inkscape.org/namespaces/inkscape"
   width="370"
   height="320"
   id="svg3172"
   version="1.1"
   inkscape:version="0.48.4 r9939"
   sodipodi:docname="[00.規格].svg">
  <defs
     id="defs3174" />
  <sodipodi:namedview
     id="base"
     pagecolor="#ffffff"
     bordercolor="#666666"
     borderopacity="1.0"
     inkscape:pageopacity="0.0"
     inkscape:pageshadow="2"
     inkscape:zoom="0.70735725"
     inkscape:cx="209.71249"
     inkscape:cy="185.41063"
     inkscape:document-units="px"
     inkscape:current-layer="layer2"
     showgrid="false"
     inkscape:window-width="1044"
     inkscape:window-height="698"
     inkscape:window-x="311"
     inkscape:window-y="-5"
     inkscape:window-maximized="0" />
  <metadata
     id="metadata3177">
    <rdf:RDF>
      <cc:Work
         rdf:about="">
        <dc:format>image/svg+xml</dc:format>
        <dc:type
           rdf:resource="http://purl.org/dc/dcmitype/StillImage" />
        <dc:title></dc:title>
      </cc:Work>
    </rdf:RDF>
  </metadata>
  <g
     inkscape:label="補助線"
     inkscape:groupmode="layer"
     id="layer1"
     transform="translate(0,-732.36218)"
     sodipodi:insensitive="true"
     style="display:none">
    <path
       style="fill:none;stroke:#0000ff;stroke-width:1px;stroke-linecap:butt;stroke-linejoin:miter;stroke-opacity:1;display:inline"
       d="M 10,1042.3622 360,742.36211"
       id="path3025"
       inkscape:connector-curvature="0"
       sodipodi:nodetypes="cc" />
    <path
       style="fill:none;stroke:#0000ff;stroke-width:1px;stroke-linecap:butt;stroke-linejoin:miter;stroke-opacity:1;display:inline"
       d="M 10,742.36211 360,1042.3622"
       id="path3027"
       inkscape:connector-curvature="0"
       sodipodi:nodetypes="cc" />
    <path
       style="fill:none;stroke:#ff0000;stroke-width:1px;stroke-linecap:butt;stroke-linejoin:miter;stroke-opacity:1;display:inline"
       d="m 10,732.36211 0,320.00009"
       id="path3006"
       inkscape:connector-curvature="0"
       sodipodi:nodetypes="cc" />
    <path
       style="fill:none;stroke:#ff0000;stroke-width:1px;stroke-linecap:butt;stroke-linejoin:miter;stroke-opacity:1;display:inline"
       d="m 360,732.36211 0,320.00009"
       id="path3010"
       inkscape:connector-curvature="0"
       sodipodi:nodetypes="cc" />
    <path
       style="fill:none;stroke:#ff0000;stroke-width:1px;stroke-linecap:butt;stroke-linejoin:miter;stroke-opacity:1;display:inline"
       d="m 0,742.36208 370,3e-5"
       id="path3016"
       inkscape:connector-curvature="0" />
    <path
       style="fill:none;stroke:#ff0000;stroke-width:1px;stroke-linecap:butt;stroke-linejoin:miter;stroke-opacity:1;display:inline"
       d="m 0,1042.3622 370,0"
       id="path3018"
       inkscape:connector-curvature="0"
       sodipodi:nodetypes="cc" />
  </g>
  <g
     inkscape:groupmode="layer"
     id="layer5"
     inkscape:label="状況"
     sodipodi:insensitive="true">
    <rect
       style="fill:#000000;fill-opacity:1;stroke:none"
       id="rect3731"
       width="360.49677"
       height="313.13739"
       x="4.2411385"
       y="5.4489031" />
    <rect
       style="fill:#ac9d93;fill-opacity:1;stroke:#000000;stroke-width:2;display:inline"
       id="rect12487-3"
       width="373.61243"
       height="40.048725"
       x="-1.2752813"
       y="273.8801" />
    <g
       style="stroke-width:3.64964652;display:inline"
       id="g3360"
       transform="matrix(0.54799827,0,0,0.54799827,-406.52476,68.99553)">
      <path
         sodipodi:nodetypes="cccc"
         inkscape:connector-curvature="0"
         id="path12489-1"
         d="m 1417.0829,238.59902 14.6944,34.28683 14.6943,-34.28683 z"
         style="fill:#cccccc;stroke:#000000;stroke-width:3.64964652;stroke-linecap:butt;stroke-linejoin:miter;stroke-opacity:1;display:inline" />
      <path
         sodipodi:nodetypes="cccc"
         inkscape:connector-curvature="0"
         id="path12489-7"
         d="m 1355.8564,238.59902 14.6944,34.28683 14.6943,-34.28683 z"
         style="fill:#cccccc;stroke:#000000;stroke-width:3.64964652;stroke-linecap:butt;stroke-linejoin:miter;stroke-opacity:1;display:inline" />
      <path
         sodipodi:nodetypes="cccc"
         inkscape:connector-curvature="0"
         id="path12489-11"
         d="m 1294.6299,238.59902 14.6944,34.28683 14.6943,-34.28683 z"
         style="fill:#cccccc;stroke:#000000;stroke-width:3.64964652;stroke-linecap:butt;stroke-linejoin:miter;stroke-opacity:1;display:inline" />
      <path
         sodipodi:nodetypes="cccc"
         inkscape:connector-curvature="0"
         id="path12489-5"
         d="m 1233.4035,238.59902 14.6943,34.28683 14.6944,-34.28683 z"
         style="fill:#cccccc;stroke:#000000;stroke-width:3.64964652;stroke-linecap:butt;stroke-linejoin:miter;stroke-opacity:1;display:inline" />
      <path
         sodipodi:nodetypes="cccc"
         inkscape:connector-curvature="0"
         id="path12489-2"
         d="m 1172.177,238.59902 14.6943,34.28683 14.6944,-34.28683 z"
         style="fill:#cccccc;stroke:#000000;stroke-width:3.64964652;stroke-linecap:butt;stroke-linejoin:miter;stroke-opacity:1;display:inline" />
      <path
         sodipodi:nodetypes="cccc"
         inkscape:connector-curvature="0"
         id="path12489-76"
         d="m 1110.9505,238.59902 14.6943,34.28683 14.6944,-34.28683 z"
         style="fill:#cccccc;stroke:#000000;stroke-width:3.64964652;stroke-linecap:butt;stroke-linejoin:miter;stroke-opacity:1;display:inline" />
      <path
         sodipodi:nodetypes="cccc"
         inkscape:connector-curvature="0"
         id="path12489-14"
         d="m 1049.724,238.59902 14.6944,34.28683 14.6943,-34.28683 z"
         style="fill:#cccccc;stroke:#000000;stroke-width:3.64964652;stroke-linecap:butt;stroke-linejoin:miter;stroke-opacity:1;display:inline" />
      <path
         sodipodi:nodetypes="cccc"
         inkscape:connector-curvature="0"
         id="path12489-23"
         d="m 988.49747,238.59902 14.69443,34.28683 14.6943,-34.28683 z"
         style="fill:#cccccc;stroke:#000000;stroke-width:3.64964652;stroke-linecap:butt;stroke-linejoin:miter;stroke-opacity:1;display:inline" />
      <path
         sodipodi:nodetypes="cccc"
         inkscape:connector-curvature="0"
         id="path12489-22"
         d="m 927.27101,238.59902 14.69436,34.28683 14.6943,-34.28683 z"
         style="fill:#cccccc;stroke:#000000;stroke-width:3.64964652;stroke-linecap:butt;stroke-linejoin:miter;stroke-opacity:1;display:inline" />
      <path
         sodipodi:nodetypes="cccc"
         inkscape:connector-curvature="0"
         id="path12489-16"
         d="m 866.04452,238.59902 14.69436,34.28683 14.69436,-34.28683 z"
         style="fill:#cccccc;stroke:#000000;stroke-width:3.64964652;stroke-linecap:butt;stroke-linejoin:miter;stroke-opacity:1;display:inline" />
      <path
         sodipodi:nodetypes="cccc"
         inkscape:connector-curvature="0"
         id="path12489-8"
         d="m 804.81804,238.59902 14.69436,34.28683 14.69435,-34.28683 z"
         style="fill:#cccccc;stroke:#000000;stroke-width:3.64964652;stroke-linecap:butt;stroke-linejoin:miter;stroke-opacity:1;display:inline" />
      <path
         sodipodi:nodetypes="cccc"
         inkscape:connector-curvature="0"
         id="path12489-57"
         d="m 743.59156,238.59902 14.69435,34.28683 14.69436,-34.28683 z"
         style="fill:#cccccc;stroke:#000000;stroke-width:3.64964652;stroke-linecap:butt;stroke-linejoin:miter;stroke-opacity:1;display:inline" />
      <rect
         y="168.77658"
         x="735.5871"
         height="73.081848"
         width="681.77667"
         id="rect12487"
         style="fill:#ac9d93;fill-opacity:1;stroke:#000000;stroke-width:3.64964652" />
    </g>
  </g>
  <g
     inkscape:groupmode="layer"
     id="layer3"
     inkscape:label="豚"
     sodipodi:insensitive="true">
    <g
       transform="matrix(0.54799827,0,0,0.54799827,-401.25154,67.413563)"
       style="stroke-width:3.64964652;display:inline"
       id="g12469">
      <path
         sodipodi:nodetypes="cssscsc"
         inkscape:connector-curvature="0"
         id="path5109-2-7-7-2-9-8-7-8-0"
         d="m 796.21766,330.56258 c -13.99853,5.48845 -44.28717,25.83636 -43.4357,37.05384 0.35337,4.65542 9.97137,1.56345 11.05995,5.77075 0.57979,2.24101 1.67556,5.8786 3.69333,8.01057 4.67229,4.93664 52.26696,0.91755 86.3458,0.83933 53.68668,1.7129 216.57706,7.2708 214.04076,-10.2658 -4.3877,-30.3384 -82.4342,-79.39588 -105.9872,-79.20555"
         style="fill:#ffd5d5;stroke:none;display:inline" />
      <path
         sodipodi:nodetypes="ccsssc"
         inkscape:connector-curvature="0"
         id="path5111-7-6-1-8-2-7-7-6-3"
         d="m 780.4372,383.50447 c 20.00078,-9.86072 -11.98676,-35.0373 -19.83688,-30.64274 0,0 -9.01884,10.37092 -7.62478,14.72008 1.42513,4.44599 9.80139,1.73329 10.88997,5.94058 0.57979,2.24101 1.72387,5.74397 3.77831,7.84063 3.06058,3.12347 12.79338,2.14145 12.79338,2.14145 z"
         style="fill:#ffaaaa;stroke:none;display:inline" />
      <path
         style="fill:#ff8080;stroke:none;display:inline"
         d="m 752.66672,368.59135 c 1.42512,4.44599 9.46142,1.6483 10.55,5.26064 0.66789,2.21633 1.24102,4.80831 2.50339,5.88574 4.57276,3.90286 7.50821,-6.93324 1.67072,-12.56837 -4.75573,-4.59086 -16.11817,-2.92717 -14.72411,1.42199 z"
         id="path5111-7-6-1-8-2-7-7-6-3-3"
         inkscape:connector-curvature="0"
         sodipodi:nodetypes="sssss" />
      <path
         sodipodi:nodetypes="cssscsc"
         inkscape:connector-curvature="0"
         id="path5109-2-7-7-2-9-8-7-82"
         d="m 795.56245,330.52738 c -13.99853,5.48845 -41.97774,22.71324 -42.58576,36.88389 -0.20014,4.66453 9.8014,1.7334 10.88998,5.9407 0.57979,2.24101 1.84553,5.70865 3.8633,7.84062 4.67229,4.93664 51.41702,1.0875 85.49586,1.00928 53.68667,1.7129 216.57707,7.2708 214.04077,-10.2658 -4.3877,-30.3384 -82.4342,-79.39583 -105.9872,-79.20547"
         style="fill:none;stroke:#000000;stroke-width:3.64964652;stroke-linecap:butt;stroke-linejoin:miter;stroke-opacity:1;display:inline" />
      <path
         sodipodi:nodetypes="cc"
         inkscape:connector-curvature="0"
         id="path5111-7-6-1-8-2-7-7-5"
         d="m 780.77834,383.58909 c 20.51075,-7.65076 -9.95015,-36.46339 -19.50016,-30.89459"
         style="fill:none;stroke:#000000;stroke-width:3.64964652;stroke-linecap:butt;stroke-linejoin:miter;stroke-opacity:1;display:inline" />
      <path
         sodipodi:nodetypes="cc"
         inkscape:connector-curvature="0"
         id="path5091-2-4-0-7-2-1-03"
         d="m 826.86403,273.02842 c -29.70118,2.24054 -37.40903,37.16785 -30.60704,54.3399"
         style="fill:#ffd5d5;stroke:#000000;stroke-width:3.64964652;stroke-linecap:butt;stroke-linejoin:miter;stroke-opacity:1;display:inline" />
      <path
         sodipodi:nodetypes="cscccc"
         inkscape:connector-curvature="0"
         id="path3536-4-7-61-4-4-7"
         d="m 976.83924,352.0386 c 5.91379,-19.5471 -4.27135,-41.50231 -31.9627,-69.39621 -44.60556,-44.93191 -112.25361,-32.72257 -135.8545,10.99775 l -7.15835,15.366 c -11.60964,16.60152 -16.72098,48.20495 8.71914,66.34586 z"
         style="fill:#ffd5d5;stroke:none;display:inline" />
      <path
         sodipodi:nodetypes="csc"
         inkscape:connector-curvature="0"
         id="path3536-4-7-61-4-2"
         d="m 809.05282,293.70331 c 23.60088,-43.72032 91.24895,-55.92966 135.85451,-10.99775 27.69135,27.8939 37.87649,49.84911 31.9627,69.39621"
         style="fill:none;stroke:#000000;stroke-width:3.64964652;stroke-linecap:butt;stroke-linejoin:miter;stroke-opacity:1;display:inline" />
      <path
         sodipodi:nodetypes="cc"
         inkscape:connector-curvature="0"
         id="path5093-4-2-9-9-4-0-9"
         d="m 801.89447,309.06931 c -11.60964,16.60152 -16.72098,48.20495 8.71914,66.34586"
         style="fill:none;stroke:#000000;stroke-width:3.64964652;stroke-linecap:butt;stroke-linejoin:miter;stroke-opacity:1;display:inline" />
      <path
         sodipodi:nodetypes="cc"
         inkscape:connector-curvature="0"
         id="path5095-5-3-4-3-2-9-7"
         d="m 836.30072,296.41909 c -5.85612,6.75586 6.20076,9.2525 0.92064,15.06378"
         style="fill:none;stroke:#000000;stroke-width:3.64964652;stroke-linecap:butt;stroke-linejoin:miter;stroke-opacity:1;display:inline" />
      <path
         sodipodi:nodetypes="cc"
         inkscape:connector-curvature="0"
         id="path5097-5-2-8-1-5-4-5"
         d="m 863.61628,297.51465 c -7.71995,6.39793 5.42665,8.302 -2.22211,15.40819"
         style="fill:none;stroke:#000000;stroke-width:3.64964652;stroke-linecap:butt;stroke-linejoin:miter;stroke-opacity:1;display:inline" />
      <path
         sodipodi:nodetypes="csc"
         inkscape:connector-curvature="0"
         id="path5099-1-2-8-9-8-8-3"
         d="m 925.87951,272.69611 c 41.47181,-1.16074 58.63748,52.97104 35.38898,71.10188 -5.84894,4.5613 -25.42423,-25.68193 -39.52635,-32.61069"
         style="fill:#ffd5d5;stroke:#000000;stroke-width:3.64964652;stroke-linecap:butt;stroke-linejoin:miter;stroke-opacity:1;display:inline" />
      <path
         sodipodi:nodetypes="ssssss"
         inkscape:connector-curvature="0"
         id="path5101-7-1-2-8-62-8-4"
         d="m 844.75253,312.22561 c 10.2184,-0.49528 26.58006,9.44674 35.85384,22.28848 12.50087,17.31024 4.80509,32.04573 -12.4747,27.94261 -15.71833,-3.73241 -27.77665,-2.59075 -37.74047,-1.23126 -13.09798,1.78721 -15.75486,-14.75813 -9.78166,-28.08293 6.06361,-13.52675 15.52008,-20.49901 24.14299,-20.9169 z"
         style="fill:#ffaaaa;stroke:#000000;stroke-width:3.64964652;stroke-linecap:butt;stroke-linejoin:miter;stroke-opacity:1;display:inline" />
      <path
         sodipodi:nodetypes="sss"
         inkscape:connector-curvature="0"
         id="path5105-1-6-4-6-6-2-3"
         d="m 862.44021,351.91701 c -2.22992,2.94676 -12.54757,-22.95158 -10.02834,-24.14633 3.03419,-1.43889 16.37609,15.7571 10.02834,24.14633 z"
         style="fill:#000000;stroke:#000000;stroke-width:3.64964652;display:inline" />
      <path
         sodipodi:nodetypes="sss"
         inkscape:connector-curvature="0"
         id="path5107-1-8-55-5-5-4-2"
         d="m 839.40767,326.41558 c 2.22627,-0.0759 -2.17861,26.89161 -5.1278,24.3606 -6.51297,-5.58919 1.9043,-24.25228 5.1278,-24.3606 z"
         style="fill:#000000;stroke:#000000;stroke-width:3.64964652;display:inline" />
      <path
         style="fill:none;stroke:#000000;stroke-width:3.64964652;stroke-linecap:butt;stroke-linejoin:miter;stroke-opacity:1;display:inline"
         d="m 766.2274,379.02028 c 5.81771,2.88241 4.99221,-6.48949 1.18132,-11.1952 -2.55685,-3.15721 -16.02895,-4.97336 -12.7023,1.85406"
         id="path5111-7-6-1-8-2-7-7-5-8"
         inkscape:connector-curvature="0"
         sodipodi:nodetypes="csc" />
    </g>
    <g
       transform="matrix(0.54799827,0,0,0.54799827,-401.25154,67.413563)"
       style="stroke-width:3.64964652;display:inline"
       id="g12439">
      <path
         sodipodi:nodetypes="cssscsc"
         inkscape:connector-curvature="0"
         id="path5109-2-7-7-2-9-8-7-8"
         d="m 923.7346,329.83965 c -14.78695,5.79757 -45.41938,25.06989 -44.26601,32.8561 0.72264,4.87855 6.40304,3.2676 7.55292,7.71186 0.61245,2.36722 -1.64178,8.544 0.48963,10.79605 4.93545,5.21468 61.13633,3.30352 97.13456,3.22089 56.7104,1.80938 228.7752,7.68031 226.096,-10.84399 -4.6349,-32.04712 -87.0771,-83.86762 -111.9566,-83.66656"
         style="fill:#ffd5d5;stroke:none;display:inline" />
      <path
         sodipodi:nodetypes="ccsssc"
         inkscape:connector-curvature="0"
         id="path5111-7-6-1-8-2-7-7-6"
         d="m 901.85803,383.96773 c 9.45566,-5.56784 -3.51848,-36.04031 -11.81073,-34.82647 0,0 -12.56506,8.9237 -11.09248,13.51781 1.50539,4.6964 6.40304,3.2676 7.55292,7.71186 0.61245,2.36722 -1.68052,8.5813 0.48963,10.79604 3.23296,3.2994 14.86066,2.80076 14.86066,2.80076 z"
         style="fill:#ffaaaa;stroke:none;display:inline" />
      <path
         sodipodi:nodetypes="cssscsc"
         inkscape:connector-curvature="0"
         id="path5109-2-7-7-2-9-8-7"
         d="m 923.04249,329.80247 c -14.78696,5.79757 -45.41939,25.06988 -44.26602,32.8561 0.72265,4.87855 6.40304,3.2676 7.55293,7.71186 0.61244,2.36722 -1.64179,8.54399 0.48963,10.79604 4.93544,5.21469 61.13633,3.30353 97.13456,3.2209 56.71041,1.80938 228.77521,7.68031 226.09601,-10.84399 -4.6349,-32.04712 -87.0771,-83.86757 -111.9566,-83.66649"
         style="fill:none;stroke:#000000;stroke-width:3.64964652;stroke-linecap:butt;stroke-linejoin:miter;stroke-opacity:1;display:inline" />
      <path
         sodipodi:nodetypes="cc"
         inkscape:connector-curvature="0"
         id="path5111-7-6-1-8-2-7-7"
         d="m 901.67968,383.96723 c 9.45566,-5.56784 -3.51847,-36.04031 -11.81072,-34.82647"
         style="fill:none;stroke:#000000;stroke-width:3.64964652;stroke-linecap:butt;stroke-linejoin:miter;stroke-opacity:1;display:inline" />
      <path
         sodipodi:nodetypes="cc"
         inkscape:connector-curvature="0"
         id="path5091-2-4-0-7-2-1"
         d="m 956.10694,269.06501 c -31.37401,2.36673 -39.51598,39.26122 -32.33089,57.40044"
         style="fill:#ffd5d5;stroke:#000000;stroke-width:3.64964652;stroke-linecap:butt;stroke-linejoin:miter;stroke-opacity:1;display:inline" />
      <path
         sodipodi:nodetypes="cscccc"
         inkscape:connector-curvature="0"
         id="path3536-4-7-61-4-4"
         d="m 1114.5291,352.52521 c 6.2468,-20.64803 -4.512,-43.83981 -33.7629,-73.30475 -47.1179,-47.46257 -118.57601,-34.56558 -143.50614,11.61717 l -7.56153,16.23144 c -12.26351,17.53655 -17.66274,50.91995 9.21022,70.0826 z"
         style="fill:#ffd5d5;stroke:none;display:inline" />
      <path
         sodipodi:nodetypes="csc"
         inkscape:connector-curvature="0"
         id="path3536-4-7-61-4"
         d="m 937.29257,290.90436 c 24.93013,-46.18275 96.38823,-59.07974 143.50613,-11.61717 29.251,29.46494 40.0098,52.65671 33.7629,73.30475"
         style="fill:none;stroke:#000000;stroke-width:3.64964652;stroke-linecap:butt;stroke-linejoin:miter;stroke-opacity:1;display:inline" />
      <path
         sodipodi:nodetypes="cc"
         inkscape:connector-curvature="0"
         id="path5093-4-2-9-9-4-0"
         d="m 929.73104,307.13579 c -12.26351,17.53655 -17.66274,50.91996 9.21023,70.0826"
         style="fill:none;stroke:#000000;stroke-width:3.64964652;stroke-linecap:butt;stroke-linejoin:miter;stroke-opacity:1;display:inline" />
      <path
         sodipodi:nodetypes="cc"
         inkscape:connector-curvature="0"
         id="path5095-5-3-4-3-2-9"
         d="m 962.84298,296.64609 c 1.61711,3.16056 3.24878,9.45814 4.92289,14.1166"
         style="fill:none;stroke:#000000;stroke-width:3.64964652;stroke-linecap:butt;stroke-linejoin:miter;stroke-opacity:1;display:inline" />
      <path
         sodipodi:nodetypes="cc"
         inkscape:connector-curvature="0"
         id="path5097-5-2-8-1-5-4"
         d="m 1003.9073,299.23991 c -3.1014,3.90331 -8.2811,9.15417 -12.04366,14.12123"
         style="fill:none;stroke:#000000;stroke-width:3.64964652;stroke-linecap:butt;stroke-linejoin:miter;stroke-opacity:1;display:inline" />
      <path
         sodipodi:nodetypes="csc"
         inkscape:connector-curvature="0"
         id="path5099-1-2-8-9-8-8"
         d="m 1060.6992,268.71398 c 43.8076,-1.22612 61.94,55.95448 37.3821,75.10649 -6.1783,4.8182 -26.8561,-27.12839 -41.7525,-34.4474"
         style="fill:#ffd5d5;stroke:#000000;stroke-width:3.64964652;stroke-linecap:butt;stroke-linejoin:miter;stroke-opacity:1;display:inline" />
      <path
         sodipodi:nodetypes="ssssss"
         inkscape:connector-curvature="0"
         id="path5101-7-1-2-8-62-8"
         d="m 975.00295,310.46987 c 10.79394,-0.52318 28.07715,9.9788 37.87325,23.54381 13.2049,18.28518 5.0757,33.85061 -13.17734,29.51639 -16.60362,-3.94262 -29.34108,-2.73666 -39.86609,-1.3006 -13.83568,1.88787 -16.6422,-15.58934 -10.33258,-29.66462 6.40512,-14.28861 16.3942,-21.65356 25.50276,-22.09498 z"
         style="fill:#ffaaaa;stroke:#000000;stroke-width:3.64964652;stroke-linecap:butt;stroke-linejoin:miter;stroke-opacity:1;display:inline" />
      <path
         sodipodi:nodetypes="sss"
         inkscape:connector-curvature="0"
         id="path5105-1-6-4-6-6-2"
         d="m 993.68685,352.39676 c -2.35552,3.11274 -13.25427,-24.24425 -10.59316,-25.50629 3.20508,-1.51994 17.29841,16.64456 10.59316,25.50629 z"
         style="fill:#000000;stroke:#000000;stroke-width:3.64964652;display:inline" />
      <path
         sodipodi:nodetypes="sss"
         inkscape:connector-curvature="0"
         id="path5107-1-8-55-5-5-4"
         d="m 969.35707,325.45904 c 2.35165,-0.0801 -2.30132,28.40621 -5.41662,25.73264 -6.87979,-5.90398 2.01156,-25.61822 5.41662,-25.73264 z"
         style="fill:#000000;stroke:#000000;stroke-width:3.64964652;display:inline" />
    </g>
    <g
       transform="matrix(0.54799827,0,0,0.54799827,-401.25154,67.413563)"
       style="stroke-width:3.64964652;display:inline"
       id="g12406">
      <path
         sodipodi:nodetypes="cssscsc"
         inkscape:connector-curvature="0"
         id="path5109-2-7-7-2-9-8-7-8-00"
         d="m 1075.9125,335.38474 c -15.9696,6.26125 -53.5816,33.50357 -52.336,41.91251 0.7805,5.26873 14.8446,-0.6898 16.0864,4.1099 0.6615,2.55656 0.3519,8.37745 2.6537,10.80962 5.3302,5.63174 60.5013,2.20772 99.3786,2.11849 61.246,1.95409 247.0722,8.29457 244.1788,-11.71128 -5.0056,-34.6102 -69.3379,-126.99119 -155.3635,-104.67548"
         style="fill:#ffd5d5;stroke:none;display:inline" />
      <path
         sodipodi:nodetypes="ccsssc"
         inkscape:connector-curvature="0"
         id="path5111-7-6-1-8-2-7-7-6-5"
         d="m 1058.5968,395.46461 c 12.7617,-9.75286 -6.6436,-40.13581 -23.0786,-36.27509 0,0 -13.6441,13.58952 -12.0537,18.55106 1.6258,5.07201 14.608,-0.31745 15.97,3.58072 0.871,2.49287 0.2886,8.54631 2.6323,10.93819 3.4915,3.56327 16.53,3.20512 16.53,3.20512 z"
         style="fill:#ffaaaa;stroke:none;display:inline" />
      <path
         sodipodi:nodetypes="cssscsc"
         inkscape:connector-curvature="0"
         id="path5109-2-7-7-2-9-8-7-3"
         d="m 1075.165,335.34459 c -19.3352,7.94412 -51.6963,27.7961 -51.6527,41.73431 0.017,5.32619 15.0887,-0.0771 16.3306,4.72264 0.6614,2.55655 -0.09,7.78485 2.2116,10.21702 5.3302,5.63174 60.0159,2.36578 98.8932,2.27655 61.246,1.95408 247.0723,8.29456 244.1789,-11.71128 -5.0056,-34.6102 -68.0781,-126.15449 -154.5669,-104.78206"
         style="fill:none;stroke:#000000;stroke-width:3.64964652;stroke-linecap:butt;stroke-linejoin:miter;stroke-opacity:1;display:inline" />
      <path
         sodipodi:nodetypes="cc"
         inkscape:connector-curvature="0"
         id="path5111-7-6-1-8-2-7-7-1"
         d="m 1059.1855,394.98329 c 15.7411,-7.93641 -11.4466,-43.24643 -23.7677,-35.68506"
         style="fill:none;stroke:#000000;stroke-width:3.64964652;stroke-linecap:butt;stroke-linejoin:miter;stroke-opacity:1;display:inline" />
      <path
         sodipodi:nodetypes="cc"
         inkscape:connector-curvature="0"
         id="path5091-2-4-0-7-2-1-6"
         d="m 1110.8739,269.74939 c -33.8833,2.55601 -42.6764,42.40127 -34.9167,61.99123"
         style="fill:#ffd5d5;stroke:#000000;stroke-width:3.64964652;stroke-linecap:butt;stroke-linejoin:miter;stroke-opacity:1;display:inline" />
      <path
         sodipodi:nodetypes="cscccc"
         inkscape:connector-curvature="0"
         id="path3536-4-7-61-4-4-75"
         d="m 1281.9664,359.88461 c 6.7465,-22.29943 -4.8728,-47.34605 -36.4632,-79.16755 -50.8863,-51.25856 -128.0595,-37.33008 -154.9835,12.54629 l -8.1663,17.5296 c -13.2444,18.9391 -19.0754,54.99246 9.9468,75.6877 z"
         style="fill:#ffd5d5;stroke:none;display:inline" />
      <path
         sodipodi:nodetypes="csc"
         inkscape:connector-curvature="0"
         id="path3536-4-7-61-4-0"
         d="m 1090.5548,293.33541 c 26.924,-49.87637 104.0972,-63.80484 154.9835,-12.54629 31.5904,31.8215 43.2097,56.86812 36.4632,79.16755"
         style="fill:none;stroke:#000000;stroke-width:3.64964652;stroke-linecap:butt;stroke-linejoin:miter;stroke-opacity:1;display:inline" />
      <path
         sodipodi:nodetypes="cc"
         inkscape:connector-curvature="0"
         id="path5093-4-2-9-9-4-0-0"
         d="m 1082.3885,310.86502 c -13.2443,18.93909 -19.0754,54.99245 9.9468,75.6877"
         style="fill:none;stroke:#000000;stroke-width:3.64964652;stroke-linecap:butt;stroke-linejoin:miter;stroke-opacity:1;display:inline" />
      <path
         sodipodi:nodetypes="cc"
         inkscape:connector-curvature="0"
         id="path5095-5-3-4-3-2-9-4"
         d="m 1113.2823,301.94041 c 1.7465,3.41333 7.8358,4.44493 9.6438,9.47597"
         style="fill:none;stroke:#000000;stroke-width:3.64964652;stroke-linecap:butt;stroke-linejoin:miter;stroke-opacity:1;display:inline" />
      <path
         sodipodi:nodetypes="cc"
         inkscape:connector-curvature="0"
         id="path5097-5-2-8-1-5-4-54"
         d="m 1161.4773,302.33763 c -3.3495,4.21549 -12.309,7.00149 -16.3725,12.3658"
         style="fill:none;stroke:#000000;stroke-width:3.64964652;stroke-linecap:butt;stroke-linejoin:miter;stroke-opacity:1;display:inline" />
      <path
         sodipodi:nodetypes="csc"
         inkscape:connector-curvature="0"
         id="path5099-1-2-8-9-8-8-9"
         d="m 1223.8313,269.37028 c 47.3112,-1.32418 66.8939,60.42964 40.3719,81.1134 -6.6725,5.20355 -29.0041,-29.29808 -45.0919,-37.20245"
         style="fill:#ffd5d5;stroke:#000000;stroke-width:3.64964652;stroke-linecap:butt;stroke-linejoin:miter;stroke-opacity:1;display:inline" />
      <path
         sodipodi:nodetypes="ssssss"
         inkscape:connector-curvature="0"
         id="path5101-7-1-2-8-62-8-5"
         d="m 1127.4348,313.98496 c 11.6572,-0.56501 30.3226,10.77689 40.9022,25.42681 14.2611,19.74761 5.4817,36.55793 -14.2312,31.87707 -17.9315,-4.25794 -31.6877,-2.95553 -43.0545,-1.40462 -14.9423,2.03886 -17.9732,-16.83615 -11.159,-32.03715 6.9174,-15.43139 17.7054,-23.38538 27.5425,-23.86211 z"
         style="fill:#ffaaaa;stroke:#000000;stroke-width:3.64964652;stroke-linecap:butt;stroke-linejoin:miter;stroke-opacity:1;display:inline" />
      <path
         sodipodi:nodetypes="sss"
         inkscape:connector-curvature="0"
         id="path5105-1-6-4-6-6-2-6"
         d="m 1147.613,359.26511 c -2.5439,3.36168 -14.3144,-26.18327 -11.4404,-27.54625 3.4614,-1.6415 18.6819,17.97577 11.4404,27.54625 z"
         style="fill:#000000;stroke:#000000;stroke-width:3.64964652;display:inline" />
      <path
         sodipodi:nodetypes="sss"
         inkscape:connector-curvature="0"
         id="path5107-1-8-55-5-5-4-4"
         d="m 1121.3373,330.17295 c 2.5398,-0.0865 -2.4853,30.67809 -5.8498,27.79069 -7.43,-6.37617 2.1724,-27.66712 5.8498,-27.79069 z"
         style="fill:#000000;stroke:#000000;stroke-width:3.64964652;display:inline" />
      <path
         sodipodi:nodetypes="cc"
         inkscape:connector-curvature="0"
         id="path10053-2"
         d="m 1189.64,382.95204 c 8.6344,32.40774 79.5753,37.83276 91.709,6.07764"
         style="fill:#ffd5d5;stroke:#000000;stroke-width:3.64964652;stroke-linecap:butt;stroke-linejoin:miter;stroke-opacity:1" />
      <path
         sodipodi:nodetypes="sss"
         inkscape:connector-curvature="0"
         id="path10055-1"
         d="m 1208.3717,383.6144 c -3.1461,28.55162 51.9194,30.4953 54.24,5.51601 2.2391,-24.10317 -51.4582,-30.76151 -54.24,-5.51601 z"
         style="fill:#ffaaaa;stroke:#000000;stroke-width:3.64964652;stroke-linecap:butt;stroke-linejoin:miter;stroke-opacity:1" />
      <path
         sodipodi:nodetypes="sssss"
         inkscape:connector-curvature="0"
         id="path10057-6"
         d="m 1219.0594,379.00046 c -4.7936,-10.20174 39.6435,-2.7169 31.4867,2.98772 -3.8975,2.72582 -5.4921,9.71027 -2.0684,13.3302 8.0684,8.53076 -36.0815,4.14343 -30.1078,-3.44754 3.9284,-4.99197 2.4657,-9.09037 0.6895,-12.87038 z"
         style="fill:#ff8080;stroke:#000000;stroke-width:3.64964652;stroke-linecap:butt;stroke-linejoin:miter;stroke-opacity:1" />
    </g>
  </g>
  <g
     inkscape:groupmode="layer"
     id="layer4"
     inkscape:label="吹き出し"
     sodipodi:insensitive="true">
    <g
       transform="translate(34.174813,63.545973)"
       id="g9788">
      <path
         sodipodi:nodetypes="sssscsssssss"
         inkscape:connector-curvature="0"
         id="rect7294"
         d="m 15.802008,45.97286 0,35.41665 c 0,12.905093 10.38929,23.29439 23.29438,23.29439 l 34.955994,0 c 8.92141,0 17.985201,21.50605 40.818288,29.21815 -15.281554,-18.50687 -15.711588,-29.21815 -6.4274,-29.21815 l 159.34651,0 c 12.90509,0 23.2944,-10.389297 23.2944,-23.29439 l 0,-35.41665 c 0,-12.90509 -10.3893,-23.294381 -23.2944,-23.294381 l -228.693392,0 c -12.90509,0 -23.29438,10.389291 -23.29438,23.294381 z"
         style="fill:#fefefe;fill-opacity:1;stroke:#000000;stroke-width:2;stroke-linecap:round;stroke-miterlimit:4;stroke-opacity:1;stroke-dashoffset:0;display:inline" />
      <text
         sodipodi:linespacing="125%"
         id="text11601"
         y="76.53138"
         x="27.291443"
         style="font-size:35.34236908px;font-style:normal;font-weight:normal;line-height:125%;letter-spacing:0px;word-spacing:0px;writing-mode:lr-tb;fill:#000000;fill-opacity:1;stroke:none;display:inline;font-family:Sans"
         xml:space="preserve"><tspan
           y="76.53138"
           x="27.291443"
           id="tspan11603"
           sodipodi:role="line">今は耐える時だ</tspan></text>
    </g>
  </g>
  <g
     inkscape:groupmode="layer"
     id="layer2"
     inkscape:label="枠面"
     sodipodi:insensitive="true">
    <path
       style="fill:#ffffff;stroke:none;display:inline"
       d="m 0,0 0,320 370,0 0,-320 -10,10 0,300 -350,0 0,-300 350,0 10,-10 z"
       id="path21072"
       inkscape:connector-curvature="0"
       sodipodi:nodetypes="ccccccccccc" />
  </g>
</svg>
