<?xml version="1.0" encoding="UTF-8" standalone="no"?>
<!-- Created with Inkscape (http://www.inkscape.org/) -->

<svg
   xmlns:dc="http://purl.org/dc/elements/1.1/"
   xmlns:cc="http://creativecommons.org/ns#"
   xmlns:rdf="http://www.w3.org/1999/02/22-rdf-syntax-ns#"
   xmlns:svg="http://www.w3.org/2000/svg"
   xmlns="http://www.w3.org/2000/svg"
   xmlns:sodipodi="http://sodipodi.sourceforge.net/DTD/sodipodi-0.dtd"
   xmlns:inkscape="http://www.inkscape.org/namespaces/inkscape"
   width="370"
   height="320"
   id="svg3172"
   version="1.1"
   inkscape:version="0.48.4 r9939"
   sodipodi:docname="[28.検知].svg"
   inkscape:export-filename="C:\Users\執安\Desktop\資料\臨時\svg\[28.検知].png"
   inkscape:export-xdpi="90"
   inkscape:export-ydpi="90">
  <defs
     id="defs3174" />
  <sodipodi:namedview
     id="base"
     pagecolor="#ffffff"
     bordercolor="#666666"
     borderopacity="1.0"
     inkscape:pageopacity="0.0"
     inkscape:pageshadow="2"
     inkscape:zoom="0.50017711"
     inkscape:cx="-185.80984"
     inkscape:cy="106.86979"
     inkscape:document-units="px"
     inkscape:current-layer="layer2"
     showgrid="false"
     inkscape:window-width="1245"
     inkscape:window-height="698"
     inkscape:window-x="-5"
     inkscape:window-y="-5"
     inkscape:window-maximized="0" />
  <metadata
     id="metadata3177">
    <rdf:RDF>
      <cc:Work
         rdf:about="">
        <dc:format>image/svg+xml</dc:format>
        <dc:type
           rdf:resource="http://purl.org/dc/dcmitype/StillImage" />
        <dc:title></dc:title>
      </cc:Work>
    </rdf:RDF>
  </metadata>
  <g
     inkscape:label="補助線"
     inkscape:groupmode="layer"
     id="layer1"
     transform="translate(0,-732.36218)"
     sodipodi:insensitive="true"
     style="display:none">
    <path
       style="fill:none;stroke:#0000ff;stroke-width:1px;stroke-linecap:butt;stroke-linejoin:miter;stroke-opacity:1;display:inline"
       d="M 10,1042.3622 360,742.36211"
       id="path3025"
       inkscape:connector-curvature="0"
       sodipodi:nodetypes="cc" />
    <path
       style="fill:none;stroke:#0000ff;stroke-width:1px;stroke-linecap:butt;stroke-linejoin:miter;stroke-opacity:1;display:inline"
       d="M 10,742.36211 360,1042.3622"
       id="path3027"
       inkscape:connector-curvature="0"
       sodipodi:nodetypes="cc" />
    <path
       style="fill:none;stroke:#ff0000;stroke-width:1px;stroke-linecap:butt;stroke-linejoin:miter;stroke-opacity:1;display:inline"
       d="m 10,732.36211 0,320.00009"
       id="path3006"
       inkscape:connector-curvature="0"
       sodipodi:nodetypes="cc" />
    <path
       style="fill:none;stroke:#ff0000;stroke-width:1px;stroke-linecap:butt;stroke-linejoin:miter;stroke-opacity:1;display:inline"
       d="m 360,732.36211 0,320.00009"
       id="path3010"
       inkscape:connector-curvature="0"
       sodipodi:nodetypes="cc" />
    <path
       style="fill:none;stroke:#ff0000;stroke-width:1px;stroke-linecap:butt;stroke-linejoin:miter;stroke-opacity:1;display:inline"
       d="m 0,742.36208 370,3e-5"
       id="path3016"
       inkscape:connector-curvature="0" />
    <path
       style="fill:none;stroke:#ff0000;stroke-width:1px;stroke-linecap:butt;stroke-linejoin:miter;stroke-opacity:1;display:inline"
       d="m 0,1042.3622 370,0"
       id="path3018"
       inkscape:connector-curvature="0"
       sodipodi:nodetypes="cc" />
  </g>
  <g
     inkscape:groupmode="layer"
     id="layer3"
     inkscape:label="豚"
     sodipodi:insensitive="true">
    <path
       style="fill:none;stroke:#000000;stroke-width:2;stroke-linecap:butt;stroke-linejoin:miter;stroke-opacity:1"
       d="m 237.10652,285.34071 95.34441,4.83442"
       id="path6826"
       inkscape:connector-curvature="0"
       sodipodi:nodetypes="cc" />
    <path
       style="fill:none;stroke:#000000;stroke-width:2;stroke-linecap:butt;stroke-linejoin:miter;stroke-opacity:1"
       d="m 264.10555,269.74294 95.34441,4.83442"
       id="path6826-1"
       inkscape:connector-curvature="0"
       sodipodi:nodetypes="cc" />
    <path
       style="fill:none;stroke:#000000;stroke-width:2;stroke-linecap:butt;stroke-linejoin:miter;stroke-opacity:1"
       d="m 250.94296,277.37269 95.34441,4.83442"
       id="path6826-15"
       inkscape:connector-curvature="0"
       sodipodi:nodetypes="cc" />
    <g
       transform="matrix(0.87505618,0,0,0.87505618,149.99598,1341.839)"
       style="stroke-width:2.28556752;display:inline"
       id="g3393">
      <path
         sodipodi:nodetypes="csc"
         inkscape:connector-curvature="0"
         id="path3333-1"
         d="m -131.04213,-1238.9116 c -28.40094,1.3542 -28.83798,22.6478 -2.18605,25.608 33.85517,3.76 52.170595,-6.0591 47.001105,-11.0174"
         style="fill:#ffd5d5;stroke:#000000;stroke-width:2.28556752;stroke-linecap:butt;stroke-linejoin:miter;stroke-opacity:1;display:inline" />
      <path
         sodipodi:nodetypes="csccc"
         inkscape:connector-curvature="0"
         id="path5089-8-7-0-0-4"
         d="m 18.862572,-1286.7922 c 1.897558,-1.7401 5.19428,3.4405 6.708411,0.6087 7.384799,-13.8114 -14.226155,-57.2066 -32.5970865,-72.5615 l -8.1581225,9.7144 z"
         style="fill:#ffd5d5;stroke:none;display:inline" />
      <path
         sodipodi:nodetypes="csccc"
         inkscape:connector-curvature="0"
         id="path5109-5-5-51-2-1-9"
         d="m 18.492316,-1287.3867 c 1.754621,-1.133 3.510273,2.8615 6.118614,1.7112 1.880547,-0.8293 2.27726,-11.8783 0.850057,-16.6029 -3.743956,-0.7654 -10.105534,1.2039 -12.185723,2.6537 1.317653,2.5035 4.404352,8.2802 5.217052,12.238 z"
         style="fill:#ffaaaa;stroke:none;display:inline" />
      <path
         sodipodi:nodetypes="cc"
         inkscape:connector-curvature="0"
         id="path5111-7-1-7-7-3"
         d="m 25.400853,-1302.2703 c -2.678757,-1.0922 -10.539551,0.4915 -12.676057,3.0741"
         style="fill:none;stroke:#000000;stroke-width:2.28556752;stroke-linecap:butt;stroke-linejoin:miter;stroke-opacity:1;display:inline" />
      <path
         sodipodi:nodetypes="csc"
         inkscape:connector-curvature="0"
         id="path5089-8-7-0-0"
         d="m 18.661051,-1286.9417 c 1.897558,-1.7401 5.194279,3.4405 6.70841,0.6087 7.384799,-13.8114 -14.226154,-57.2066 -32.5970856,-72.5615"
         style="fill:none;stroke:#000000;stroke-width:2.28556752;stroke-linecap:butt;stroke-linejoin:miter;stroke-opacity:1;display:inline" />
      <path
         sodipodi:nodetypes="ccsc"
         inkscape:connector-curvature="0"
         id="path3325-5"
         d="m -111.63204,-1225.1348 c 23.727826,5.099 49.170027,0.7347 93.224476,-0.9133 5.496166,8.1354 45.176152,10.4091 56.976594,-1.1972 12.268691,-12.0669 -7.514642,-22.9521 -20.390164,-22.3872"
         style="fill:#ffd5d5;stroke:#000000;stroke-width:2.28556752;stroke-linecap:butt;stroke-linejoin:miter;stroke-opacity:1;display:inline" />
      <path
         sodipodi:nodetypes="cccccc"
         inkscape:connector-curvature="0"
         id="path3331-9-0"
         d="m 11.940069,-1240.1596 c 21.456436,-19.1514 7.537876,-55.1207 -4.6084325,-68.4002 l -17.7132145,-41.3312 -127.200062,110.3644 40.305002,14.0362 z"
         style="fill:#ffd5d5;stroke:none;display:inline" />
      <path
         sodipodi:nodetypes="cc"
         inkscape:connector-curvature="0"
         id="path5091-2-40-9-28"
         d="m -55.111274,-1424.6719 c 13.86459,-2.5184 38.974902,14.1335 39.471329,36.6198"
         style="fill:#ffd5d5;stroke:#000000;stroke-width:2.28556752;stroke-linecap:butt;stroke-linejoin:miter;stroke-opacity:1;display:inline" />
      <path
         sodipodi:nodetypes="cccsccc"
         inkscape:connector-curvature="0"
         id="path5093-4-9-4-6-7"
         d="m -11.426557,-1346.022 c 9.1092302,-15.4429 3.3256502,-34.8056 -9.17325,-47.454 l -13.29654,-16.5231 c -33.66289,-34.1266 -87.940333,-19.7164 -105.052903,14.4643 -16.55546,33.068 -20.17356,53.0158 -11.57399,68.7285 -10.06308,12.5 -15.40176,71.5988 18.1822,95.5489 z"
         style="fill:#ffd5d5;stroke:none;display:inline" />
      <path
         inkscape:connector-curvature="0"
         id="path3327-6"
         d="m -33.817142,-1409.868 c -33.662885,-34.1266 -87.940328,-19.7164 -105.052898,14.4643 -16.55546,33.068 -20.17356,53.0158 -11.57399,68.7285 -10.06308,12.5 -15.40176,71.5988 18.1822,95.5489"
         style="fill:none;stroke:#000000;stroke-width:2.28556752;stroke-linecap:butt;stroke-linejoin:miter;stroke-opacity:1;display:inline" />
      <path
         sodipodi:nodetypes="cc"
         inkscape:connector-curvature="0"
         id="path5093-4-9-4-6"
         d="m -20.520599,-1393.3449 c 12.4989035,12.6484 18.2824793,32.0111 9.173247,47.454"
         style="fill:none;stroke:#000000;stroke-width:2.28556752;stroke-linecap:butt;stroke-linejoin:miter;stroke-opacity:1;display:inline" />
      <path
         sodipodi:nodetypes="cc"
         inkscape:connector-curvature="0"
         id="path5095-5-4-8-0"
         d="m -48.134751,-1393.7701 c -0.03734,3.3589 -0.127549,7.6154 -0.309895,11.0887"
         style="fill:none;stroke:#000000;stroke-width:2.28556752;stroke-linecap:butt;stroke-linejoin:miter;stroke-opacity:1;display:inline" />
      <path
         inkscape:connector-curvature="0"
         id="path5097-5-8-8-2"
         d="m -76.06045,-1381.7563 c 3.488292,2.1963 10.031502,5.5802 12.437202,7.2067"
         style="fill:none;stroke:#000000;stroke-width:2.28556752;stroke-linecap:butt;stroke-linejoin:miter;stroke-opacity:1;display:inline"
         sodipodi:nodetypes="cc" />
      <path
         sodipodi:nodetypes="csc"
         inkscape:connector-curvature="0"
         id="path5099-1-8-2-8"
         d="m -129.11316,-1404.4881 c -28.76313,7.9735 -26.66,61.4112 -4.48961,64.2387 4.32809,0.552 11.33231,-19.312 20.49833,-28.887"
         style="fill:#ffd5d5;stroke:#000000;stroke-width:2.28556752;stroke-linecap:butt;stroke-linejoin:miter;stroke-opacity:1;display:inline" />
      <path
         sodipodi:nodetypes="ssssss"
         inkscape:connector-curvature="0"
         id="path5101-7-2-4-6"
         d="m -49.915667,-1380.1822 c -8.335641,3.0974 -17.541206,13.8404 -21.916319,28.1475 -5.240125,17.1357 5.815321,20.664 15.301863,15.4512 9.396754,-5.1636 17.564412,-7.6489 24.831174,-9.6248 10.196478,-2.7726 8.814368,-13.8602 5.041715,-21.6044 -4.583985,-9.4097 -14.852016,-15.4932 -23.258433,-12.3695 z"
         style="fill:#ffaaaa;stroke:#000000;stroke-width:2.28556752;stroke-linecap:butt;stroke-linejoin:miter;stroke-opacity:1;display:inline" />
      <path
         sodipodi:nodetypes="sss"
         inkscape:connector-curvature="0"
         id="path5105-1-4-55-5"
         d="m -56.019436,-1346.0302 c 2.844986,1.4709 6.119617,-21.7942 3.767684,-22.3415 -2.832838,-0.6593 -10.844017,18.6829 -3.767684,22.3415 z"
         style="fill:#000000;stroke:#000000;stroke-width:2.28556752;stroke-linecap:butt;stroke-linejoin:miter;stroke-opacity:1;display:inline" />
      <path
         sodipodi:nodetypes="sss"
         inkscape:connector-curvature="0"
         id="path5107-1-5-1-0"
         d="m -43.105033,-1371.0379 c -1.978134,0.6795 4.190484,20.244 6.608184,17.9448 6.27167,-5.9644 -3.530145,-19.002 -6.608184,-17.9448 z"
         style="fill:#000000;stroke:#000000;stroke-width:2.28556752;stroke-linecap:butt;stroke-linejoin:miter;stroke-opacity:1;display:inline" />
      <path
         sodipodi:nodetypes="ccsssc"
         inkscape:connector-curvature="0"
         id="path5111-7-1-5-0-4"
         d="m -50.494261,-1275.7131 c -9.379462,0.7007 -10.519745,-37.2955 0.909622,-35.2319 0,0 11.42909,4.8856 12.76202,10.3931 0.797583,3.2955 -4.65904,5.224 -4.60637,8.5878 0.0315,2.0122 3.481815,4.2641 2.18955,8.1148 -1.347694,4.0159 -11.254822,8.1362 -11.254822,8.1362 z"
         style="fill:#ffaaaa;stroke:none;display:inline" />
      <path
         sodipodi:nodetypes="csssc"
         inkscape:connector-curvature="0"
         id="path5109-2-71-11-9"
         d="m -85.230975,-1324.8932 c 12.164122,2.6591 46.987617,16.4632 48.32055,24.2369 0.573024,3.3419 -4.659039,5.224 -4.606369,8.5878 0.0315,2.0122 3.675768,4.3347 2.189546,8.1148 -3.472224,8.8315 -31.304591,15.1944 -47.077249,15.4386"
         style="fill:none;stroke:#000000;stroke-width:2.28556752;stroke-linecap:butt;stroke-linejoin:miter;stroke-opacity:1;display:inline" />
      <path
         sodipodi:nodetypes="cc"
         inkscape:connector-curvature="0"
         id="path5111-7-1-5-0"
         d="m -49.672451,-1311.0494 c -11.429365,-2.0636 -9.778438,36.0602 -0.398978,35.3595"
         style="fill:none;stroke:#000000;stroke-width:2.28556752;stroke-linecap:butt;stroke-linejoin:miter;stroke-opacity:1;display:inline" />
      <path
         sodipodi:nodetypes="cc"
         inkscape:connector-curvature="0"
         id="path3331-9"
         d="m 12.480595,-1240.3648 c 21.456436,-19.1514 7.537876,-55.1207 -4.6084319,-68.4002"
         style="fill:none;stroke:#000000;stroke-width:2.28556752;stroke-linecap:butt;stroke-linejoin:miter;stroke-opacity:1;display:inline" />
    </g>
    <g
       transform="matrix(1.5089439,-0.36478924,0.36478924,1.5089439,-299.72633,-40.9239)"
       style="stroke-width:1.2883178;display:inline"
       id="g6257">
      <path
         sodipodi:nodetypes="csccc"
         inkscape:connector-curvature="0"
         id="path10338-7"
         d="m 335.0494,284.53901 c 9.06883,5.15583 15.54095,4.56385 18.21324,1.30313 4.12038,-5.02767 0.51137,-22.32056 -12.33913,-36.61154 l -92.86119,-5.90474 z"
         style="fill:#ffd5d5;stroke:#000000;stroke-width:1.2883178;stroke-linecap:butt;stroke-linejoin:miter;stroke-opacity:1;display:inline" />
      <path
         sodipodi:nodetypes="cssc"
         inkscape:connector-curvature="0"
         id="path10336-7"
         d="m 241.01436,238.63032 c 2.64871,4.73602 5.77869,16.69994 11.81796,24.95155 7.22317,9.86922 19.16688,20.24373 42.11996,24.42384 16.90554,3.07875 26.16912,6.11393 43.11952,-6.3236"
         style="fill:#ffd5d5;stroke:#000000;stroke-width:1.2883178;stroke-linecap:butt;stroke-linejoin:miter;stroke-opacity:1;display:inline" />
      <path
         sodipodi:nodetypes="ccsc"
         inkscape:connector-curvature="0"
         id="path10340-9"
         d="m 344.83929,257.73125 c 0.39828,-41.13886 -44.36085,-67.22024 -98.98073,-40.75169 -11.7448,-1.78435 -22.63704,-0.95357 -24.24437,3.85628 -1.82503,5.46126 12.25033,12.98161 27.98956,24.40219"
         style="fill:#ffd5d5;stroke:#000000;stroke-width:1.2883178;stroke-linecap:butt;stroke-linejoin:miter;stroke-opacity:1;display:inline" />
      <path
         inkscape:connector-curvature="0"
         id="path10344-1"
         d="m 321.39289,256.1616 c 12.63775,-4.53606 26.36883,14.80014 14.79867,19.98407 -14.00729,6.27587 -28.14969,-15.192 -14.79867,-19.98407 z"
         style="fill:none;stroke:#000000;stroke-width:1.2883178;stroke-linecap:butt;stroke-linejoin:miter;stroke-opacity:1;display:inline"
         sodipodi:nodetypes="sss" />
    </g>
  </g>
  <g
     inkscape:groupmode="layer"
     id="layer4"
     inkscape:label="吹き出し"
     sodipodi:insensitive="true">
    <g
       transform="translate(33.096655,11.242865)"
       style="display:inline"
       id="g12657">
      <path
         sodipodi:nodetypes="sscssss"
         inkscape:connector-curvature="0"
         id="path11956"
         d="m 286.49722,44.976671 c 0,17.989862 -52.89299,32.573527 -118.13981,32.573527 -10.3387,0 -33.26575,6.089567 -54.25177,11.555758 6.82704,-6.738385 8.43066,-14.010591 1.09143,-15.031944 C 76.65164,68.709886 50.217607,57.694427 50.217607,44.976671 c 0,-17.989863 52.892993,-32.573527 118.139803,-32.573527 65.24682,0 118.13981,14.583664 118.13981,32.573527 z"
         style="fill:#fefefe;fill-opacity:1;stroke:#000000;stroke-width:2" />
      <text
         sodipodi:linespacing="125%"
         id="text11959"
         y="58.892143"
         x="88.640198"
         style="font-size:40px;font-style:normal;font-weight:normal;line-height:125%;letter-spacing:0px;word-spacing:0px;writing-mode:lr-tb;fill:#000000;fill-opacity:1;stroke:none;font-family:Sans"
         xml:space="preserve"><tspan
           y="58.892143"
           x="88.640198"
           id="tspan11961"
           sodipodi:role="line">大丈夫か</tspan></text>
    </g>
  </g>
  <g
     inkscape:groupmode="layer"
     id="layer2"
     inkscape:label="枠面"
     sodipodi:insensitive="true">
    <path
       style="fill:#ffffff;stroke:none;display:inline"
       d="m 0,0 0,320 370,0 0,-320 -10,10 0,300 -350,0 0,-300 350,0 10,-10 z"
       id="path21072"
       inkscape:connector-curvature="0"
       sodipodi:nodetypes="ccccccccccc" />
  </g>
</svg>
