<?xml version="1.0" encoding="UTF-8" standalone="no"?>
<!-- Created with Inkscape (http://www.inkscape.org/) -->

<svg
   xmlns:dc="http://purl.org/dc/elements/1.1/"
   xmlns:cc="http://creativecommons.org/ns#"
   xmlns:rdf="http://www.w3.org/1999/02/22-rdf-syntax-ns#"
   xmlns:svg="http://www.w3.org/2000/svg"
   xmlns="http://www.w3.org/2000/svg"
   xmlns:sodipodi="http://sodipodi.sourceforge.net/DTD/sodipodi-0.dtd"
   xmlns:inkscape="http://www.inkscape.org/namespaces/inkscape"
   width="370"
   height="320"
   id="svg3172"
   version="1.1"
   inkscape:version="0.48.4 r9939"
   sodipodi:docname="[09.標語].svg">
  <defs
     id="defs3174" />
  <sodipodi:namedview
     id="base"
     pagecolor="#ffffff"
     bordercolor="#666666"
     borderopacity="1.0"
     inkscape:pageopacity="0.0"
     inkscape:pageshadow="2"
     inkscape:zoom="2.2312588"
     inkscape:cx="188.11704"
     inkscape:cy="24.810594"
     inkscape:document-units="px"
     inkscape:current-layer="layer3"
     showgrid="false"
     inkscape:window-width="1245"
     inkscape:window-height="698"
     inkscape:window-x="-5"
     inkscape:window-y="-5"
     inkscape:window-maximized="0" />
  <metadata
     id="metadata3177">
    <rdf:RDF>
      <cc:Work
         rdf:about="">
        <dc:format>image/svg+xml</dc:format>
        <dc:type
           rdf:resource="http://purl.org/dc/dcmitype/StillImage" />
        <dc:title />
      </cc:Work>
    </rdf:RDF>
  </metadata>
  <g
     inkscape:label="補助線"
     inkscape:groupmode="layer"
     id="layer1"
     transform="translate(0,-732.36218)"
     sodipodi:insensitive="true"
     style="display:none">
    <path
       style="fill:none;stroke:#0000ff;stroke-width:1px;stroke-linecap:butt;stroke-linejoin:miter;stroke-opacity:1;display:inline"
       d="M 10,1042.3622 360,742.36211"
       id="path3025"
       inkscape:connector-curvature="0"
       sodipodi:nodetypes="cc" />
    <path
       style="fill:none;stroke:#0000ff;stroke-width:1px;stroke-linecap:butt;stroke-linejoin:miter;stroke-opacity:1;display:inline"
       d="M 10,742.36211 360,1042.3622"
       id="path3027"
       inkscape:connector-curvature="0"
       sodipodi:nodetypes="cc" />
    <path
       style="fill:none;stroke:#ff0000;stroke-width:1px;stroke-linecap:butt;stroke-linejoin:miter;stroke-opacity:1;display:inline"
       d="m 10,732.36211 0,320.00009"
       id="path3006"
       inkscape:connector-curvature="0"
       sodipodi:nodetypes="cc" />
    <path
       style="fill:none;stroke:#ff0000;stroke-width:1px;stroke-linecap:butt;stroke-linejoin:miter;stroke-opacity:1;display:inline"
       d="m 360,732.36211 0,320.00009"
       id="path3010"
       inkscape:connector-curvature="0"
       sodipodi:nodetypes="cc" />
    <path
       style="fill:none;stroke:#ff0000;stroke-width:1px;stroke-linecap:butt;stroke-linejoin:miter;stroke-opacity:1;display:inline"
       d="m 0,742.36208 370,3e-5"
       id="path3016"
       inkscape:connector-curvature="0" />
    <path
       style="fill:none;stroke:#ff0000;stroke-width:1px;stroke-linecap:butt;stroke-linejoin:miter;stroke-opacity:1;display:inline"
       d="m 0,1042.3622 370,0"
       id="path3018"
       inkscape:connector-curvature="0"
       sodipodi:nodetypes="cc" />
  </g>
  <g
     inkscape:groupmode="layer"
     id="layer3"
     inkscape:label="豚"
     sodipodi:insensitive="true">
    <path
       sodipodi:type="arc"
       style="fill:#000000;fill-opacity:1;stroke:none"
       id="path10474"
       sodipodi:cx="168.58525"
       sodipodi:cy="294.90659"
       sodipodi:rx="71.03907"
       sodipodi:ry="13.7837"
       d="m 239.62432,294.90659 a 71.03907,13.7837 0 1 1 -142.078139,0 71.03907,13.7837 0 1 1 142.078139,0 z"
       transform="matrix(1.0119849,0,0,1.0119849,8.7348644,-2.992752)" />
    <g
       id="g9249">
      <path
         sodipodi:nodetypes="ccsc"
         inkscape:connector-curvature="0"
         id="path6118"
         d="m 191.58624,237.18282 c -30.3192,-9.68129 -56.08623,6.30702 -64.07871,17.84639 -22.55098,4.56987 -12.72419,20.8815 11.66795,34.27909 29.45359,16.17757 64.03528,14.19634 88.24994,7.6911"
         style="fill:#ffd5d5;stroke:#000000;stroke-width:2;stroke-linecap:butt;stroke-linejoin:miter;stroke-opacity:1;display:inline" />
      <path
         sodipodi:nodetypes="csssccc"
         inkscape:connector-curvature="0"
         id="path5099-1-8-2-54-2-7-9-1"
         d="m 224.10183,297.49613 c 15.60187,-1.33926 32.3803,-3.67057 35.74157,-8.02468 1.57553,-2.04085 -2.12841,-3.18916 -1.58137,-5.69844 0.44028,-2.01955 3.03404,-2.97067 2.97628,-5.11181 -0.092,-3.40973 -12.34064,-6.44679 -20.28595,-7.96375 l -29.18007,9.37277 z"
         style="fill:#ffd5d5;stroke:none;display:inline" />
      <path
         sodipodi:nodetypes="ccsssc"
         inkscape:connector-curvature="0"
         id="path6049-4"
         d="m 251.85229,273.07682 c -0.67192,6.28389 -1.18145,13.40278 -1.85337,20.83486 0,0 6.17907,-0.84253 9.62154,-4.1412 1.86155,-1.78378 -2.12843,-3.18917 -1.58137,-5.69844 0.44026,-2.01955 3.03402,-2.97067 2.97627,-5.11181 -0.092,-3.40973 -9.16307,-5.88341 -9.16307,-5.88341 z"
         style="fill:#ffaaaa;stroke:none;display:inline" />
      <path
         sodipodi:nodetypes="csssc"
         inkscape:connector-curvature="0"
         id="path5099-1-8-2-54-2-7-9"
         d="m 223.92861,297.60953 c 15.60185,-1.33926 32.38029,-3.67057 35.74156,-8.02468 1.57553,-2.04085 -2.12842,-3.18916 -1.58137,-5.69843 0.44028,-2.01955 3.03404,-2.97068 2.97627,-5.11181 -0.092,-3.40974 -12.34063,-6.44679 -20.28594,-7.96376"
         style="fill:none;stroke:#000000;stroke-width:2;stroke-linecap:butt;stroke-linejoin:miter;stroke-opacity:1;display:inline" />
      <path
         sodipodi:nodetypes="cc"
         inkscape:connector-curvature="0"
         id="path6049"
         d="m 251.902,272.89119 c -0.67192,6.2839 -1.26263,13.72754 -1.93455,21.15961"
         style="fill:none;stroke:#000000;stroke-width:2;stroke-linecap:butt;stroke-linejoin:miter;stroke-opacity:1" />
    </g>
    <g
       id="g10495">
      <path
         sodipodi:nodetypes="ccccc"
         inkscape:connector-curvature="0"
         id="path3774-5-0-1"
         d="m 100.825,32.47894 c -6.998399,5.256778 -13.827764,21.666779 -2.181054,39.244928 l 64.270314,3.141039 14.89198,-13.383119 z"
         style="fill:#ffd5d5;stroke:none;display:inline" />
      <path
         sodipodi:nodetypes="cssc"
         inkscape:connector-curvature="0"
         id="path5523"
         d="m 187.40939,73.351991 c 5.13838,10.156594 9.35174,28.489319 2.50365,37.055189 -8.71824,10.90514 -66.08523,10.82345 -79.67259,2.85996 C 94.695764,104.15646 93.607729,85.282754 99.45685,69.557558"
         style="fill:#ffd5d5;stroke:#000000;stroke-width:2;stroke-linecap:butt;stroke-linejoin:miter;stroke-opacity:1;display:inline" />
      <path
         inkscape:connector-curvature="0"
         id="path3774-5-6"
         d="m 159.45965,74.447487 c 11.66088,7.039015 17.15219,16.382696 19.30636,14.921104 1.11785,-0.758458 1.92978,-2.461286 3.33742,-2.665372 1.44237,-0.209112 3.49839,1.999714 4.25132,0.554022 2.26309,-4.345324 4.67191,-19.423776 -5.94742,-31.007758"
         style="fill:#ffd5d5;stroke:none;display:inline" />
      <path
         sodipodi:nodetypes="csc"
         inkscape:connector-curvature="0"
         id="path5521"
         d="m 180.07229,105.71902 c 8.60018,-0.49785 20.4602,3.96526 16.97839,12.37437 -2.77321,6.69774 -25.20304,1.17058 -42.1929,-1.23533"
         style="fill:#ffd5d5;stroke:#000000;stroke-width:2;stroke-linecap:butt;stroke-linejoin:miter;stroke-opacity:1;display:inline" />
      <path
         sodipodi:nodetypes="csc"
         inkscape:connector-curvature="0"
         id="path3327-0-2-5"
         d="m 137.69144,117.52152 c -12.49434,0.36628 -24.00646,7.11354 -35.62666,5.44543 -12.261138,-1.76011 -8.414252,-20.38814 14.59343,-16.25026"
         style="fill:#ffd5d5;stroke:#000000;stroke-width:2;stroke-linecap:butt;stroke-linejoin:miter;stroke-opacity:1;display:inline" />
      <path
         sodipodi:nodetypes="ccsssc"
         inkscape:connector-curvature="0"
         id="path3776-1-8"
         d="m 188.95324,77.948568 c -3.96164,0.79687 -15.36976,2.950774 -16.3478,7.5039 0,0 4.49586,5.653791 6.65003,4.192199 1.11785,-0.758458 1.92979,-2.461287 3.33742,-2.665372 1.44236,-0.209112 3.4984,1.999714 4.25133,0.554022 2.26309,-4.345325 2.10902,-9.584749 2.10902,-9.584749 z"
         style="fill:#ffaaaa;stroke:none;display:inline" />
      <path
         inkscape:connector-curvature="0"
         id="path3774-5"
         d="m 159.72829,74.766638 c 11.66089,7.039014 17.1522,16.382695 19.30636,14.921104 1.11785,-0.758458 1.92978,-2.461287 3.33742,-2.665372 1.44237,-0.209113 3.49839,1.999714 4.25132,0.554022 2.26309,-4.345325 4.67191,-19.423776 -5.94742,-31.007759"
         style="fill:none;stroke:#000000;stroke-width:2;stroke-linecap:butt;stroke-linejoin:miter;stroke-opacity:1;display:inline" />
      <path
         inkscape:connector-curvature="0"
         id="path3776-1"
         d="m 172.38461,85.495542 c 0.97805,-4.553125 12.38617,-6.70703 16.34781,-7.503899"
         style="fill:none;stroke:#000000;stroke-width:2;stroke-linecap:butt;stroke-linejoin:miter;stroke-opacity:1;display:inline" />
      <path
         sodipodi:nodetypes="cc"
         inkscape:connector-curvature="0"
         id="path3774-5-0"
         d="M 100.77684,32.88185 C 93.778447,38.138628 86.949082,54.548629 98.595793,72.126778"
         style="fill:none;stroke:#000000;stroke-width:2;stroke-linecap:butt;stroke-linejoin:miter;stroke-opacity:1;display:inline" />
      <path
         sodipodi:nodetypes="cc"
         inkscape:connector-curvature="0"
         id="path5091-2-40-9-4-6-8"
         d="M 110.73355,23.388108 C 104.13222,23.21642 94.547878,35.699282 97.955443,43.869554"
         style="fill:#ffd5d5;stroke:#000000;stroke-width:2;stroke-linecap:butt;stroke-linejoin:miter;stroke-opacity:1;display:inline" />
      <path
         sodipodi:nodetypes="cscccc"
         inkscape:connector-curvature="0"
         id="path5525-0"
         d="m 178.91552,63.876319 c 4.5188,-9.696072 0.97321,-20.665798 -9.23049,-35.319101 -12.92505,-18.5613858 -52.9202,-25.7403803 -64.64925,1.547533 l -3.68523,7.429259 c -4.513901,6.829747 -3.918744,16.198265 2.25475,22.575246 z"
         style="fill:#ffd5d5;stroke:none;display:inline" />
      <path
         sodipodi:nodetypes="csc"
         inkscape:connector-curvature="0"
         id="path5525"
         d="m 104.91193,30.297587 c 11.72905,-27.2879133 51.7242,-20.108919 64.64926,-1.547533 10.20369,14.653303 13.74929,25.623029 9.23048,35.319101"
         style="fill:none;stroke:#000000;stroke-width:2;stroke-linecap:butt;stroke-linejoin:miter;stroke-opacity:1;display:inline" />
      <path
         sodipodi:nodetypes="cc"
         inkscape:connector-curvature="0"
         id="path5093-4-9-4-8-1-3"
         d="m 101.22671,37.726846 c -4.513909,6.829747 -3.918752,16.198265 2.25475,22.575246"
         style="fill:none;stroke:#000000;stroke-width:2;stroke-linecap:butt;stroke-linejoin:miter;stroke-opacity:1;display:inline" />
      <path
         inkscape:connector-curvature="0"
         id="path5095-5-4-8-8-4-2"
         d="m 109.4748,29.79885 c 0.50234,1.11793 0.96415,2.970922 1.16484,4.474264"
         style="fill:none;stroke:#000000;stroke-width:2;stroke-linecap:butt;stroke-linejoin:miter;stroke-opacity:1;display:inline" />
      <path
         inkscape:connector-curvature="0"
         id="path5097-5-8-8-2-2-4"
         d="m 123.0754,28.378151 c -1.28242,1.270886 -3.2034,3.386055 -4.09074,5.103926"
         style="fill:none;stroke:#000000;stroke-width:2;stroke-linecap:butt;stroke-linejoin:miter;stroke-opacity:1;display:inline" />
      <path
         sodipodi:nodetypes="csc"
         inkscape:connector-curvature="0"
         id="path5099-1-8-2-5-3-1"
         d="m 150.06967,16.553374 c 17.71783,-1.748228 30.06628,22.554773 18.98919,30.677346 -3.60338,2.642275 -13.87014,-12.003078 -21.69588,-16.66085"
         style="fill:#ffd5d5;stroke:#000000;stroke-width:2;stroke-linecap:butt;stroke-linejoin:miter;stroke-opacity:1;display:inline" />
      <path
         sodipodi:nodetypes="ssssss"
         inkscape:connector-curvature="0"
         id="path5101-7-2-4-5-2-1"
         d="m 129.69213,42.870339 c 5.66014,7.052395 0.004,12.01612 -5.35467,10.630558 -6.95527,-1.798538 -11.82969,1.301751 -15.10632,0.970078 -4.56138,-0.461715 -4.89815,-5.03834 -4.14204,-10.868002 0.73628,-5.676757 3.22171,-8.704782 7.22464,-9.620796 4.62997,-1.059487 13.78132,4.4063 17.37839,8.888162 z"
         style="fill:#ffaaaa;stroke:#000000;stroke-width:2;stroke-linecap:butt;stroke-linejoin:miter;stroke-opacity:1;display:inline" />
      <path
         sodipodi:nodetypes="sss"
         inkscape:connector-curvature="0"
         id="path5105-1-4-55-1-2-5"
         d="m 121.02965,47.666728 c -1.0301,1.377014 -4.57962,-8.335024 -3.35301,-7.914746 1.98017,0.678466 5.23836,5.394446 3.35301,7.914746 z"
         style="fill:#000000;stroke:#000000;stroke-width:2;display:inline" />
      <path
         sodipodi:nodetypes="sss"
         inkscape:connector-curvature="0"
         id="path5107-1-5-1-7-1-9"
         d="m 110.71469,40.602863 c 0.99969,-0.500997 2.26921,8.998863 0.48171,8.175572 -2.28831,-1.053954 -1.27326,-7.778884 -0.48171,-8.175572 z"
         style="fill:#000000;stroke:#000000;stroke-width:2;display:inline" />
    </g>
    <g
       id="g10534">
      <path
         transform="matrix(0.09953774,0,0,0.09953774,396.35593,238.15722)"
         d="m -1676,-495.63782 a 792,792 0 1 1 -1584,0 792,792 0 1 1 1584,0 z"
         sodipodi:ry="792"
         sodipodi:rx="792"
         sodipodi:cy="-495.63782"
         sodipodi:cx="-2468"
         id="path7378-0-7"
         style="fill:#ffcc00;fill-opacity:1;stroke:none;display:inline"
         sodipodi:type="arc" />
      <path
         sodipodi:nodetypes="cccc"
         inkscape:connector-curvature="0"
         id="path9813-1-9"
         d="m 107.60473,122.7917 c -2.28088,1.84368 -5.6609,6.20531 -8.080449,9.97271 -0.09449,-1.50616 -0.151415,-2.90248 -0.02245,-3.88925 2.475029,-2.18985 5.391839,-4.25927 8.102899,-6.08346 z"
         style="fill:#d40055;stroke:none;display:inline" />
      <path
         sodipodi:nodetypes="cccc"
         inkscape:connector-curvature="0"
         id="path9656-3-3"
         d="m 115.98695,118.01236 c 3.63689,-0.96906 7.13687,-1.46247 11.61328,-1.78157 -1.29627,-0.78234 -2.70596,-1.43119 -3.35576,-1.69528 -2.94373,0.9788 -5.56578,2.18871 -8.25752,3.47685 z"
         style="fill:#d40055;stroke:none;display:inline" />
      <path
         sodipodi:nodetypes="ccccccccccc"
         inkscape:connector-curvature="0"
         id="path7446-1"
         d="m 180.11896,159.27508 c -3.03782,-5.76197 -6.0025,-10.88854 -9.00177,-15.59194 -6.59482,-0.65884 -13.92492,-0.14098 -20.88738,0.0669 4.32479,-4.1591 10.36041,-8.83291 13.35529,-10.93322 -3.07129,-4.07396 -6.26125,-7.90826 -9.67173,-11.70346 6.63145,1.85292 12.27223,3.8888 17.53242,6.38052 3.30655,-1.99694 7.34837,-3.76664 9.91963,-4.89875 0.40632,2.99389 0.75034,6.73052 0.93805,11.00022 5.30862,3.4609 10.67631,7.6464 16.82137,12.87778 -6.21066,-1.00149 -11.64715,-1.71244 -17.17193,-2.18002 -0.27959,3.94312 -0.92101,9.68372 -1.83395,14.98203 z"
         style="fill:#d40055;stroke:#000000;stroke-width:2;stroke-linecap:butt;stroke-linejoin:miter;stroke-opacity:1" />
      <path
         sodipodi:nodetypes="cccc"
         inkscape:connector-curvature="0"
         id="path9926-8-9"
         d="m 226.33452,166.63296 c -1.30672,-0.32411 -4.03478,-0.71764 -6.23713,-0.74486 2.98839,3.03624 5.62868,6.25445 8.25294,9.29061 -0.72659,-4.06947 -1.30186,-6.10547 -2.01581,-8.54575 z"
         style="fill:#d40055;stroke:none;display:inline" />
      <path
         sodipodi:nodetypes="cccc"
         inkscape:connector-curvature="0"
         id="path9648-7-8"
         d="m 229.51462,189.84936 c -2.13571,2.96003 -5.12458,5.20911 -7.78996,7.72786 2.53626,0.85617 5.39841,1.42942 7.11902,1.69065 0.50503,-3.34817 0.62532,-6.62437 0.67094,-9.41851 z"
         style="fill:#d40055;stroke:none;display:inline" />
      <path
         sodipodi:nodetypes="cccc"
         inkscape:connector-curvature="0"
         id="path7440-2-6"
         d="m 190.21375,257.01748 c 0.44282,-1.2521 0.78694,-2.57006 1.08311,-3.91998 1.29754,0.33462 2.55768,0.59442 3.80653,0.83188 -0.98269,0.75471 -3.26424,2.20894 -4.88964,3.0881 z"
         style="fill:#d40055;stroke:none;display:inline" />
      <path
         sodipodi:nodetypes="cccccccc"
         inkscape:connector-curvature="0"
         id="path7424-4-5"
         d="m 129.48857,264.76547 c -1.63475,-0.54493 -4.4711,-2.35845 -5.26646,-3.29958 1.9252,-2.23271 4.84737,-5.31887 6.86162,-8.1829 -4.93123,0.37139 -12.86775,-0.53141 -19.46651,-2.46978 -4.44047,-4.72834 -6.78923,-9.03828 -9.33734,-13.38797 -1.26345,3.32582 -1.94902,7.14227 -2.17504,10.36443 -0.933788,-0.087 -2.124292,-0.52272 -2.73329,-0.90605 9.4985,8.66002 20.26334,14.5055 32.11702,17.88185 z"
         style="fill:#d40055;stroke:none;display:inline" />
      <path
         transform="matrix(0.09953774,0,0,0.09953774,396.3564,238.14995)"
         d="m -1676,-495.63782 a 792,792 0 1 1 -1584,0 792,792 0 1 1 1584,0 z"
         sodipodi:ry="792"
         sodipodi:rx="792"
         sodipodi:cy="-495.63782"
         sodipodi:cx="-2468"
         id="path7378-02"
         style="fill:none;stroke:#000000;stroke-width:20.09288216"
         sodipodi:type="arc" />
      <path
         sodipodi:nodetypes="ccc"
         inkscape:connector-curvature="0"
         id="path9813-8"
         d="m 107.60966,122.78692 c -2.28089,1.84368 -5.6609,6.20531 -8.080451,9.97271 -0.09449,-1.50618 -0.151413,-2.90248 -0.02245,-3.88924"
         style="fill:none;stroke:#000000;stroke-width:2;stroke-linecap:butt;stroke-linejoin:miter;stroke-opacity:1" />
      <path
         sodipodi:nodetypes="ccc"
         inkscape:connector-curvature="0"
         id="path9656-6"
         d="m 115.99302,118.01159 c 3.63689,-0.96904 7.13573,-1.46649 11.61214,-1.78559 -1.29627,-0.78235 -2.71164,-1.42874 -3.36145,-1.69284"
         style="fill:none;stroke:#000000;stroke-width:2;stroke-linecap:butt;stroke-linejoin:miter;stroke-opacity:1" />
      <path
         sodipodi:nodetypes="ccc"
         inkscape:connector-curvature="0"
         id="path9926-0"
         d="m 226.33945,166.62814 c -1.30672,-0.3241 -4.03478,-0.71757 -6.23713,-0.74486 2.98839,3.03624 5.63518,6.28696 8.25944,9.3232"
         style="fill:none;stroke:#000000;stroke-width:2;stroke-linecap:butt;stroke-linejoin:miter;stroke-opacity:1" />
      <path
         sodipodi:nodetypes="ccc"
         inkscape:connector-curvature="0"
         id="path9648-2"
         d="m 229.51955,189.84469 c -2.13571,2.95989 -5.12458,5.2091 -7.78996,7.72773 2.53625,0.85617 5.37542,1.43409 7.09604,1.69532"
         style="fill:none;stroke:#000000;stroke-width:2;stroke-linecap:butt;stroke-linejoin:miter;stroke-opacity:1" />
      <path
         sodipodi:nodetypes="ccccccc"
         inkscape:connector-curvature="0"
         id="path7424-48"
         d="m 129.49464,264.76417 c -1.63475,-0.54505 -4.47225,-2.36196 -5.2676,-3.30308 1.9252,-2.23272 4.84737,-5.31874 6.86162,-8.1829 -4.93123,0.37138 -12.86775,-0.53129 -19.46651,-2.46978 -4.44048,-4.72822 -6.78923,-9.03816 -9.33734,-13.38798 -1.26345,3.32595 -1.94902,7.14227 -2.17504,10.36443 -0.933789,-0.087 -2.125915,-0.52115 -2.734913,-0.90436"
         style="fill:none;stroke:#000000;stroke-width:2;stroke-linecap:butt;stroke-linejoin:miter;stroke-opacity:1" />
      <path
         sodipodi:nodetypes="ccccccccccc"
         inkscape:connector-curvature="0"
         id="path7426-6"
         d="m 95.941724,154.90843 c 2.333394,4.67966 4.843886,10.07948 7.576736,14.18317 4.76808,-2.48795 9.96279,-4.80745 16.21855,-7.33383 -3.93712,5.19699 -7.64397,11.7175 -10.32064,17.10923 3.13685,4.93774 6.70466,10.18244 11.05593,16.23589 -5.34672,-1.72935 -12.49549,-3.85477 -16.71018,-5.05036 -2.58159,5.73533 -4.718417,11.64654 -6.468589,18.27817 -0.825507,-6.83869 -1.559288,-13.74 -2.002127,-20.76147 -4.774505,-1.45682 -9.678229,-2.78063 -13.85559,-3.80489 4.822701,-3.82082 9.106625,-6.93403 13.415254,-9.67301 0.09159,-5.48978 0.555227,-12.5193 1.090656,-19.1829 z"
         style="fill:#d40055;stroke:#000000;stroke-width:2;stroke-linecap:butt;stroke-linejoin:miter;stroke-opacity:1" />
      <path
         sodipodi:nodetypes="ccccccccccc"
         inkscape:connector-curvature="0"
         id="path7438-5"
         d="m 180.54956,193.46369 c -2.84853,6.237 -6.13084,14.02539 -8.5491,18.7075 -6.122,-0.14393 -12.8531,-0.31878 -20.89277,-0.48544 4.71252,4.16965 11.32638,10.09346 14.39619,12.76732 -3.02254,5.36966 -6.27122,10.7149 -9.95459,16.45685 5.8123,-2.53836 13.458,-6.23336 18.67483,-9.34861 4.00996,3.13993 7.94576,6.04111 12.16649,9.01893 -0.009,-4.48076 -0.41816,-10.90637 -0.93867,-16.20251 5.00514,-3.51626 9.94561,-7.39662 15.44328,-11.93064 -5.94146,0.0688 -11.34008,0.0455 -16.86091,-0.0351 -0.61865,-4.03767 -2.17833,-13.41395 -3.48475,-18.94768 z"
         style="fill:#d40055;stroke:#000000;stroke-width:2;stroke-linecap:butt;stroke-linejoin:miter;stroke-opacity:1" />
      <path
         sodipodi:nodetypes="ccc"
         inkscape:connector-curvature="0"
         id="path7440-0"
         d="m 190.20949,257.04956 c 0.44281,-1.25223 0.79613,-2.60682 1.0923,-3.95687 1.29754,0.33462 2.58692,0.60416 3.83577,0.84162"
         style="fill:none;stroke:#000000;stroke-width:2;stroke-linecap:butt;stroke-linejoin:miter;stroke-opacity:1" />
      <path
         sodipodi:nodetypes="csssccssscc"
         inkscape:connector-curvature="0"
         id="path7378-5-9"
         d="m 149.79077,110.11712 c 42.40171,0 76.77511,34.37339 76.77511,76.77495 0,42.40171 -34.3734,76.77523 -76.77511,76.77523 -42.40171,0 -76.775089,-34.37352 -76.775089,-76.77523 0,-42.40156 34.373379,-76.77495 76.775089,-76.77495 l -10.32947,3.83774 c -33.23506,0 -60.177403,26.94234 -60.177403,60.17741 0,33.23497 26.942343,60.17732 60.177403,60.17732 33.23505,0 60.17739,-26.94235 60.17739,-60.17732 0,-33.23507 -26.94234,-60.17741 -60.17739,-60.17741 z"
         style="opacity:0.1;fill:#000000;stroke:none;display:inline" />
    </g>
    <g
       id="g10566">
      <path
         sodipodi:nodetypes="cc"
         inkscape:connector-curvature="0"
         id="path5091-2-40-9-9-7-1"
         d="m 223.22445,242.15772 c 9.50027,-0.36398 21.34151,15.94531 16.21019,23.73461"
         style="fill:#ffd5d5;stroke:#000000;stroke-width:2;stroke-linecap:butt;stroke-linejoin:miter;stroke-opacity:1;display:inline" />
      <path
         sodipodi:nodetypes="cscccc"
         inkscape:connector-curvature="0"
         id="path3754-9-3-2"
         d="m 163.6491,278.91905 c -4.69817,-7.77618 3.7397,-21.69389 9.58493,-29.1787 12.01458,-15.38454 40.95062,-22.99094 58.40462,2.34897 l 5.26624,9.68025 c 5.42339,6.51967 6.34335,21.08739 -1.9377,26.52473 z"
         style="fill:#ffd5d5;stroke:none;display:inline" />
      <path
         sodipodi:nodetypes="csc"
         inkscape:connector-curvature="0"
         id="path3754-9-3"
         d="m 231.73189,251.95527 c -17.45399,-25.33992 -46.39003,-17.73351 -58.40461,-2.34898 -5.84524,7.48482 -14.28309,21.40253 -9.58493,29.17871"
         style="fill:none;stroke:#000000;stroke-width:2;stroke-linecap:butt;stroke-linejoin:miter;stroke-opacity:1;display:inline" />
      <path
         sodipodi:nodetypes="cc"
         inkscape:connector-curvature="0"
         id="path5093-4-9-4-2-2-6"
         d="m 236.99814,261.63552 c 5.42338,6.51966 6.34335,21.08738 -1.9377,26.52472"
         style="fill:none;stroke:#000000;stroke-width:2;stroke-linecap:butt;stroke-linejoin:miter;stroke-opacity:1;display:inline" />
      <path
         sodipodi:nodetypes="cc"
         inkscape:connector-curvature="0"
         id="path5095-5-4-8-7-2-8"
         d="m 218.40747,250.82475 c 0.32171,1.79703 1.07661,7.12084 1.43618,9.33381"
         style="fill:none;stroke:#000000;stroke-width:2;stroke-linecap:butt;stroke-linejoin:miter;stroke-opacity:1;display:inline" />
      <path
         sodipodi:nodetypes="cc"
         inkscape:connector-curvature="0"
         id="path5097-5-8-8-9-8-5"
         d="m 205.12782,252.86911 c 0.10203,1.38122 1.3608,7.42117 1.66683,10.15659"
         style="fill:none;stroke:#000000;stroke-width:2;stroke-linecap:butt;stroke-linejoin:miter;stroke-opacity:1;display:inline" />
      <path
         sodipodi:nodetypes="csc"
         inkscape:connector-curvature="0"
         id="path5099-1-8-2-54-2-7"
         d="m 187.74938,244.47603 c -23.98311,-4.66248 -28.18339,28.96022 -17.9681,32.54285 4.59482,1.61154 11.97517,-11.13409 16.23341,-16.09742"
         style="fill:#ffd5d5;stroke:#000000;stroke-width:2;stroke-linecap:butt;stroke-linejoin:miter;stroke-opacity:1;display:inline" />
      <path
         sodipodi:nodetypes="ssssss"
         inkscape:connector-curvature="0"
         id="path5101-7-2-4-3-8-6"
         d="m 201.99794,272.47577 c -4.13725,6.4542 -0.48326,13.48384 5.38492,12.0921 5.08908,-1.20703 11.36734,-3.2423 16.09329,-2.48329 5.30851,0.85253 7.53018,-4.72276 5.79281,-9.79677 -1.53399,-4.47998 -6.59909,-9.80327 -12.76652,-9.83665 -4.78476,-0.026 -11.00439,4.56441 -14.5045,10.02461 z"
         style="fill:#ffaaaa;stroke:#000000;stroke-width:2;stroke-linecap:butt;stroke-linejoin:miter;stroke-opacity:1;display:inline" />
      <path
         sodipodi:nodetypes="sss"
         inkscape:connector-curvature="0"
         id="path5105-1-4-55-12-9-1"
         d="m 209.73115,278.36529 c 0.95325,1.58413 5.39574,-8.48154 4.57233,-9.30146 -0.5647,-0.56234 -6.49037,6.11398 -4.57233,9.30146 z"
         style="fill:#000000;stroke:#000000;stroke-width:2;display:inline" />
      <path
         sodipodi:nodetypes="sss"
         inkscape:connector-curvature="0"
         id="path5107-1-5-1-3-0-8"
         d="m 219.58792,268.7548 c -0.28986,0.71756 0.92497,8.91267 1.78831,8.3632 2.34916,-1.49502 -1.29181,-9.59231 -1.78831,-8.3632 z"
         style="fill:#000000;stroke:#000000;stroke-width:2;display:inline" />
      <path
         sodipodi:nodetypes="cc"
         inkscape:connector-curvature="0"
         id="path5097-5-8-8-9-8-5-5"
         d="m 211.78838,251.36396 c 0.10204,1.38123 1.13117,7.42117 1.4372,10.1566"
         style="fill:none;stroke:#000000;stroke-width:2;stroke-linecap:butt;stroke-linejoin:miter;stroke-opacity:1;display:inline" />
      <path
         sodipodi:nodetypes="cc"
         inkscape:connector-curvature="0"
         id="path5097-5-8-8-9-8-5-4"
         d="m 198.94275,259.86979 c 4.80949,-0.57065 22.54147,-4.55519 25.94753,-4.34579"
         style="fill:none;stroke:#000000;stroke-width:2;stroke-linecap:butt;stroke-linejoin:miter;stroke-opacity:1;display:inline" />
    </g>
    <path
       style="fill:none;stroke:#000000;stroke-width:2;stroke-linecap:butt;stroke-linejoin:miter;stroke-opacity:1"
       d="m 166.80918,25.56876 c 19.74279,-1.062071 22.09566,5.284757 17.74372,7.997167"
       id="path10605"
       inkscape:connector-curvature="0"
       sodipodi:nodetypes="cc" />
    <path
       style="fill:none;stroke:#000000;stroke-width:2;stroke-linecap:butt;stroke-linejoin:miter;stroke-opacity:1"
       d="m 174.80635,43.562386 c 27.23152,-1.163884 22.96377,7.647105 17.74372,7.997167"
       id="path10607"
       inkscape:connector-curvature="0"
       sodipodi:nodetypes="cc" />
    <path
       style="fill:none;stroke:#000000;stroke-width:2;stroke-linecap:butt;stroke-linejoin:miter;stroke-opacity:1"
       d="m 94.630693,56.100838 c -7.585768,4.489367 -6.26091,10.745768 -1.549703,11.324417"
       id="path10611"
       inkscape:connector-curvature="0"
       sodipodi:nodetypes="cc" />
    <g
       id="g9256">
      <path
         sodipodi:nodetypes="cc"
         inkscape:connector-curvature="0"
         id="path6071"
         d="m 165.16988,291.55985 c 3.36141,7.23775 26.36448,14.00084 40.18553,1.83704"
         style="fill:none;stroke:#000000;stroke-width:2;stroke-linecap:butt;stroke-linejoin:miter;stroke-opacity:1" />
      <path
         sodipodi:nodetypes="sss"
         inkscape:connector-curvature="0"
         id="path6051"
         d="m 171.60804,288.8039 c 1.74117,-14.75478 29.50856,-9.62687 28.09071,0.97424 -1.50366,11.24269 -29.29641,9.24288 -28.09071,-0.97424 z"
         style="fill:#ffaaaa;stroke:#000000;stroke-width:2;stroke-linecap:butt;stroke-linejoin:miter;stroke-opacity:1" />
      <path
         sodipodi:nodetypes="sssss"
         inkscape:connector-curvature="0"
         id="path6051-1"
         d="m 193.27779,285.52315 c -3.34525,2.4099 -3.31262,5.69039 -1.69757,6.85325 5.23557,3.76994 -16.53833,1.84249 -13.52557,-0.80408 2.03328,-1.78599 3.00182,-2.31351 0.31917,-6.32404 -2.68266,-4.01052 17.25292,-1.4172 14.90397,0.27487 z"
         style="fill:#ff8080;stroke:#000000;stroke-width:2;stroke-linecap:butt;stroke-linejoin:miter;stroke-opacity:1;display:inline" />
    </g>
  </g>
  <g
     inkscape:groupmode="layer"
     id="layer4"
     inkscape:label="字幕"
     sodipodi:insensitive="true">
    <text
       xml:space="preserve"
       style="font-size:64px;font-style:normal;font-weight:normal;line-height:125%;letter-spacing:0px;word-spacing:0px;writing-mode:tb-rl;fill:#000000;fill-opacity:1;stroke:none;font-family:Sans"
       x="326.96951"
       y="10.145724"
       id="text10599"
       sodipodi:linespacing="125%"><tspan
         sodipodi:role="line"
         id="tspan10601"
         x="10.145724"
         y="326.96951"
         style="font-size:32px;font-style:normal;font-variant:normal;font-weight:normal;font-stretch:normal;font-family:HGMinchoE;-inkscape-font-specification:HGMinchoE">大切な人は</tspan><tspan
         sodipodi:role="line"
         x="10.145724"
         y="286.96951"
         id="tspan10603"
         style="font-size:32px;font-style:normal;font-variant:normal;font-weight:normal;font-stretch:normal;font-family:HGMinchoE;-inkscape-font-specification:HGMinchoE">きっとそばにいます</tspan></text>
  </g>
  <g
     inkscape:groupmode="layer"
     id="layer2"
     inkscape:label="枠面"
     sodipodi:insensitive="true">
    <path
       style="fill:#ffffff;stroke:none;display:inline"
       d="m 0,0 0,320 370,0 0,-320 -10,10 0,300 -350,0 0,-300 350,0 10,-10 z"
       id="path21072"
       inkscape:connector-curvature="0"
       sodipodi:nodetypes="ccccccccccc" />
  </g>
</svg>
