<?xml version="1.0" encoding="UTF-8" standalone="no"?>
<!-- Created with Inkscape (http://www.inkscape.org/) -->

<svg
   xmlns:dc="http://purl.org/dc/elements/1.1/"
   xmlns:cc="http://creativecommons.org/ns#"
   xmlns:rdf="http://www.w3.org/1999/02/22-rdf-syntax-ns#"
   xmlns:svg="http://www.w3.org/2000/svg"
   xmlns="http://www.w3.org/2000/svg"
   xmlns:sodipodi="http://sodipodi.sourceforge.net/DTD/sodipodi-0.dtd"
   xmlns:inkscape="http://www.inkscape.org/namespaces/inkscape"
   width="370"
   height="320"
   id="svg3172"
   version="1.1"
   inkscape:version="0.48.4 r9939"
   sodipodi:docname="[33.格言].svg"
   inkscape:export-filename="C:\Users\執安\Desktop\資料\臨時\svg\[30.聴取].png"
   inkscape:export-xdpi="90"
   inkscape:export-ydpi="90">
  <defs
     id="defs3174" />
  <sodipodi:namedview
     id="base"
     pagecolor="#ffffff"
     bordercolor="#666666"
     borderopacity="1.0"
     inkscape:pageopacity="0.0"
     inkscape:pageshadow="2"
     inkscape:zoom="0.78858978"
     inkscape:cx="281.72961"
     inkscape:cy="172.26705"
     inkscape:document-units="px"
     inkscape:current-layer="layer2"
     showgrid="false"
     inkscape:window-width="1185"
     inkscape:window-height="698"
     inkscape:window-x="171"
     inkscape:window-y="-5"
     inkscape:window-maximized="0" />
  <metadata
     id="metadata3177">
    <rdf:RDF>
      <cc:Work
         rdf:about="">
        <dc:format>image/svg+xml</dc:format>
        <dc:type
           rdf:resource="http://purl.org/dc/dcmitype/StillImage" />
        <dc:title />
      </cc:Work>
    </rdf:RDF>
  </metadata>
  <g
     inkscape:label="補助線"
     inkscape:groupmode="layer"
     id="layer1"
     transform="translate(0,-732.36218)"
     sodipodi:insensitive="true"
     style="display:none">
    <path
       style="fill:none;stroke:#0000ff;stroke-width:1px;stroke-linecap:butt;stroke-linejoin:miter;stroke-opacity:1;display:inline"
       d="M 10,1042.3622 360,742.36211"
       id="path3025"
       inkscape:connector-curvature="0"
       sodipodi:nodetypes="cc" />
    <path
       style="fill:none;stroke:#0000ff;stroke-width:1px;stroke-linecap:butt;stroke-linejoin:miter;stroke-opacity:1;display:inline"
       d="M 10,742.36211 360,1042.3622"
       id="path3027"
       inkscape:connector-curvature="0"
       sodipodi:nodetypes="cc" />
    <path
       style="fill:none;stroke:#ff0000;stroke-width:1px;stroke-linecap:butt;stroke-linejoin:miter;stroke-opacity:1;display:inline"
       d="m 10,732.36211 0,320.00009"
       id="path3006"
       inkscape:connector-curvature="0"
       sodipodi:nodetypes="cc" />
    <path
       style="fill:none;stroke:#ff0000;stroke-width:1px;stroke-linecap:butt;stroke-linejoin:miter;stroke-opacity:1;display:inline"
       d="m 360,732.36211 0,320.00009"
       id="path3010"
       inkscape:connector-curvature="0"
       sodipodi:nodetypes="cc" />
    <path
       style="fill:none;stroke:#ff0000;stroke-width:1px;stroke-linecap:butt;stroke-linejoin:miter;stroke-opacity:1;display:inline"
       d="m 0,742.36208 370,3e-5"
       id="path3016"
       inkscape:connector-curvature="0" />
    <path
       style="fill:none;stroke:#ff0000;stroke-width:1px;stroke-linecap:butt;stroke-linejoin:miter;stroke-opacity:1;display:inline"
       d="m 0,1042.3622 370,0"
       id="path3018"
       inkscape:connector-curvature="0"
       sodipodi:nodetypes="cc" />
  </g>
  <g
     inkscape:groupmode="layer"
     id="layer5"
     inkscape:label="背景"
     sodipodi:insensitive="true"
     style="display:inline">
    <rect
       style="fill:#483737;fill-opacity:1;stroke:none"
       id="rect5929"
       width="465.27969"
       height="423.92151"
       x="-64.622185"
       y="-45.761543" />
  </g>
  <g
     inkscape:groupmode="layer"
     id="layer3"
     inkscape:label="豚"
     sodipodi:insensitive="true">
    <g
       id="g3251">
      <path
         sodipodi:nodetypes="ccccc"
         inkscape:connector-curvature="0"
         id="path17261-5-1"
         d="m 99.587359,232.16811 c -13.34089,10.43961 -27.853367,28.21144 -23.907395,50.89771 l 139.507556,15.42497 -6.42509,-55.0894 z"
         style="fill:#ffd5d5;stroke:none;display:inline" />
      <path
         sodipodi:nodetypes="ccccc"
         inkscape:connector-curvature="0"
         id="path17261-5-1-8"
         d="m 99.07522,232.55602 c -13.34089,10.43961 -27.853367,28.21144 -23.907395,50.89771 l 29.619805,0.54891 c -3.89255,-28.18595 25.49229,-40.86071 30.83685,-41.15181 z"
         style="fill:#ff9c60;fill-opacity:1;stroke:none;display:inline" />
      <path
         sodipodi:nodetypes="cc"
         inkscape:connector-curvature="0"
         id="path17261-5"
         d="M 99.559891,232.03916 C 86.219002,242.47877 71.706525,260.2506 75.652497,282.93687"
         style="fill:none;stroke:#000000;stroke-width:2;stroke-linecap:butt;stroke-linejoin:miter;stroke-opacity:1;display:inline" />
      <path
         sodipodi:nodetypes="cc"
         inkscape:connector-curvature="0"
         id="path17261"
         d="m 94.464897,250.74077 c -12.468293,15.23888 -16.50963,32.79257 -9.72773,50.46143"
         style="fill:none;stroke:#000000;stroke-width:2;stroke-linecap:butt;stroke-linejoin:miter;stroke-opacity:1;display:inline" />
    </g>
    <path
       style="fill:#ffd5d5;stroke:none;display:inline"
       d="m 235.79281,234.19689 98.90564,4.60542 -2.41234,47.80805 -94.51958,-4.60541 z"
       id="path5415"
       inkscape:connector-curvature="0" />
    <rect
       style="fill:#552200;stroke:none;display:inline"
       id="rect5514-4"
       width="477.20325"
       height="73.685791"
       x="-32.961658"
       y="275.4007" />
    <path
       sodipodi:nodetypes="sccss"
       inkscape:connector-curvature="0"
       id="rect10634-9-5"
       d="m 313.58868,292.04565 c 0,-0.68996 -56.33543,-15.92236 -57.12817,-16.45357 l -30.10354,0.14184 c 0,0.56639 52.31134,17.71516 52.8682,18.17531 5.36722,4.435 34.36351,3.64951 34.36351,-1.86358 z"
       style="fill:#2b1100;stroke:none;display:inline" />
    <path
       sodipodi:nodetypes="sccss"
       inkscape:connector-curvature="0"
       id="rect10634-9"
       d="m 76.096377,290.21281 c 0,-0.74711 -44.931132,-14.24029 -45.789532,-14.81548 l -32.5967154,0.15357 c 0,0.61331 40.5737744,16.18153 41.1767584,16.67981 5.811727,4.80234 37.209489,3.9518 37.209489,-2.0179 z"
       style="fill:#2b1100;stroke:none;display:inline" />
    <rect
       style="fill:none;stroke:#000000;stroke-width:2;display:inline"
       id="rect5514"
       width="477.20325"
       height="73.685791"
       x="-32.63401"
       y="275.2066" />
    <g
       id="g4187">
      <path
         sodipodi:nodetypes="cc"
         inkscape:connector-curvature="0"
         id="path4189-4"
         d="M 320.58767,187.09468 C 302.69463,161.55906 263.29893,167.40997 252.5874,184.63934"
         style="fill:#ffd5d5;stroke:none;display:inline" />
      <path
         sodipodi:nodetypes="cssssc"
         inkscape:connector-curvature="0"
         id="path17392-0-6"
         d="m 336.46372,233.00775 c 27.60453,15.92481 24.62162,41.69706 13.44051,44.66595 -11.0352,2.93009 -40.23544,3.70372 -49.07776,0.35377 -3.40075,-1.28839 3.04624,-4.05251 2.30069,-6.42003 -0.71381,-2.26687 -4.72669,-3.95568 -4.56743,-5.88057 0.35245,-4.25975 17.65809,-11.74901 26.48929,-13.50833"
         style="fill:#ffd5d5;stroke:none;display:inline" />
      <path
         sodipodi:nodetypes="cssssc"
         inkscape:connector-curvature="0"
         id="path17392-0-8-1"
         d="m 236.5918,230.27554 c -24.53428,16.58272 -25.135,43.48441 -15.29679,45.73587 18.18058,4.16067 55.09561,2.56964 58.67466,0.75481 3.24346,-1.6447 -0.75136,-4.53981 -0.006,-6.90733 0.71381,-2.26686 6.80993,-1.13203 6.05391,-4.52712 -1.49841,-6.729 -22.8066,-14.64214 -39.24082,-14.75991"
         style="fill:#ffd5d5;stroke:none;display:inline" />
      <path
         sodipodi:nodetypes="sssccs"
         inkscape:connector-curvature="0"
         id="path17392-0-1"
         d="m 301.14784,278.00865 c -3.18013,-1.76403 3.04624,-4.05251 2.30069,-6.42003 -0.71381,-2.26687 -4.6873,-3.95282 -4.56743,-5.88057 0.19738,-3.17428 7.30289,-6.29054 7.30289,-6.29054 6.85628,-4.20014 18.3373,18.47351 9.68932,20.74154 -2.3329,-0.0205 -11.52543,-0.37532 -14.72547,-2.1504 z"
         style="fill:#ffaaaa;stroke:none;display:inline" />
      <path
         sodipodi:nodetypes="sssccs"
         inkscape:connector-curvature="0"
         id="path17392-0-8-2"
         d="m 280.29104,276.7474 c 3.24347,-1.6447 -0.75135,-4.53981 -0.006,-6.90733 0.7138,-2.26687 7.17695,-1.23514 6.0539,-4.52712 -1.34334,-3.93775 -6.30705,-6.30649 -6.30705,-6.30649 -6.85628,-4.20015 -21.83676,17.01811 -13.18879,19.28614 0,0 9.86904,0.26963 13.44807,-1.5452 z"
         style="fill:#ffaaaa;stroke:none;display:inline" />
      <path
         sodipodi:nodetypes="cssssc"
         inkscape:connector-curvature="0"
         id="path17392-0"
         d="m 336.61335,233.07669 c 27.60453,15.92481 24.62162,41.69706 13.44051,44.66595 -11.0352,2.93009 -40.23544,3.70372 -49.07776,0.35377 -3.40075,-1.28839 3.04624,-4.05251 2.30069,-6.42003 -0.71381,-2.26686 -4.72669,-3.95568 -4.56743,-5.88057 0.35245,-4.25975 17.65809,-11.74901 26.48929,-13.50833"
         style="fill:none;stroke:#000000;stroke-width:2;stroke-linecap:butt;stroke-linejoin:miter;stroke-opacity:1;display:inline" />
      <path
         style="fill:none;stroke:#000000;stroke-width:2;stroke-linecap:butt;stroke-linejoin:miter;stroke-opacity:1;display:inline"
         d="m 306.01225,259.50527 c 6.85628,-4.20014 18.3373,18.47352 9.68932,20.74154"
         id="path17422-2"
         inkscape:connector-curvature="0"
         sodipodi:nodetypes="cc" />
      <path
         style="fill:none;stroke:#000000;stroke-width:2;stroke-linecap:butt;stroke-linejoin:miter;stroke-opacity:1;display:inline"
         d="m 279.86002,259.09422 c -6.85628,-4.20015 -21.83676,17.01811 -13.18879,19.28614"
         id="path17422-2-6"
         inkscape:connector-curvature="0"
         sodipodi:nodetypes="cc" />
      <path
         sodipodi:nodetypes="ccccccc"
         id="path3277-1"
         d="m 333.03885,241.85266 c 6.87743,-11.46881 4.1835,-24.72347 -1.68979,-33.5413 l -14.30681,-22.78939 -60.25385,-2.48948 -14.07048,19.64713 c -6.14497,9.39363 -10.68326,21.61799 -3.66674,34.98578 z"
         style="fill:#ffd5d5;stroke:none;display:inline"
         inkscape:connector-curvature="0" />
      <path
         sodipodi:nodetypes="ccccscsscc"
         id="path3277-1-0"
         d="m 289.37682,169.78489 c -18.72468,0.58826 -29.71042,6.04054 -36.59226,14.55802 l -9.94494,18.10679 c -6.14497,9.39363 -9.35583,20.85661 -6.61816,27.80074 -24.44185,16.54786 -24.33664,43.07647 -14.57032,45.62175 8.65343,2.25524 14.52118,2.56964 21.46275,2.43607 -10.65496,-3.55013 -19.34177,-3.7516 -19.50863,-9.48526 -0.3333,-11.45289 2.58453,-17.01748 6.0877,-20.63674 4.79458,-4.95345 12.29648,-8.89635 26.47202,-7.61321 -22.55006,-14.61025 -1.9606,-67.09646 33.21184,-70.78816 z"
         style="fill:#ff9c60;fill-opacity:1;stroke:none;display:inline"
         inkscape:connector-curvature="0" />
      <path
         id="path3277"
         d="m 333.1201,241.72976 c 6.87743,-11.46881 4.1835,-24.72347 -1.68979,-33.5413"
         style="fill:none;stroke:#000000;stroke-width:2;stroke-linecap:butt;stroke-linejoin:miter;stroke-opacity:1;display:inline"
         inkscape:connector-curvature="0" />
      <path
         id="path5093-4-9-4-4-0"
         d="m 242.79917,202.55672 c -6.14497,9.39363 -10.68326,21.61799 -3.66674,34.98578"
         style="fill:none;stroke:#000000;stroke-width:2;stroke-linecap:butt;stroke-linejoin:miter;stroke-opacity:1;display:inline"
         inkscape:connector-curvature="0" />
      <path
         sodipodi:nodetypes="cssssc"
         inkscape:connector-curvature="0"
         id="path17392-0-8"
         d="m 236.74144,230.34448 c -24.53429,16.58272 -25.135,43.48442 -15.29679,45.73587 18.18057,4.16067 55.09561,2.56964 58.67465,0.75481 3.24346,-1.6447 -0.75135,-4.53981 -0.006,-6.90733 0.71381,-2.26686 6.80992,-1.13203 6.05391,-4.52712 -1.49842,-6.729 -22.8066,-14.64214 -39.24083,-14.7599"
         style="fill:none;stroke:#000000;stroke-width:2;stroke-linecap:butt;stroke-linejoin:miter;stroke-opacity:1;display:inline" />
      <path
         sodipodi:nodetypes="csc"
         inkscape:connector-curvature="0"
         id="path5091-2-40-9-2-6"
         d="m 312.45908,178.31719 c 22.15413,4.88554 29.94383,27.59302 21.33233,41.03248 -2.45861,3.83696 -8.28517,-13.07894 -10.85647,-14.10985"
         style="fill:#ffd5d5;stroke:#000000;stroke-width:2;stroke-linecap:butt;stroke-linejoin:miter;stroke-opacity:1;display:inline" />
      <path
         sodipodi:nodetypes="csc"
         inkscape:connector-curvature="0"
         id="path5099-1-8-2-7-8"
         d="m 261.45575,176.13581 c -25.93949,0.93008 -30.40194,29.61162 -22.05002,35.65176 3.74516,2.70848 5.89916,-9.94236 10.79112,-14.94886"
         style="fill:#ff9c60;fill-opacity:1;stroke:#000000;stroke-width:2;stroke-linecap:butt;stroke-linejoin:miter;stroke-opacity:1;display:inline" />
      <path
         sodipodi:nodetypes="cc"
         inkscape:connector-curvature="0"
         id="path4189"
         d="m 320.61199,186.90753 c -17.89304,-25.53562 -57.28874,-19.68471 -68.00027,-2.45534"
         style="fill:none;stroke:#000000;stroke-width:2;stroke-linecap:butt;stroke-linejoin:miter;stroke-opacity:1;display:inline" />
      <path
         sodipodi:nodetypes="cc"
         inkscape:connector-curvature="0"
         id="path5095-5-4-8-5-6"
         d="m 294.76805,203.37596 -1.83445,10.19617"
         style="fill:none;stroke:#000000;stroke-width:2;stroke-linecap:butt;stroke-linejoin:miter;stroke-opacity:1;display:inline" />
      <path
         sodipodi:nodetypes="cc"
         inkscape:connector-curvature="0"
         id="path5097-5-8-8-5-61"
         d="m 275.83514,201.54892 -1.02908,9.75368"
         style="fill:none;stroke:#000000;stroke-width:2;stroke-linecap:butt;stroke-linejoin:miter;stroke-opacity:1;display:inline" />
      <path
         sodipodi:nodetypes="ssssss"
         inkscape:connector-curvature="0"
         id="path5101-7-2-4-1-4"
         d="m 283.1449,212.0452 c -7.95839,-0.18214 -14.1388,4.7885 -18.97381,11.02871 -5.38577,6.95096 -4.13457,14.30337 2.82634,14.01949 7.07166,-0.28845 22.93428,1.57712 29.02579,3.65735 6.44858,2.20215 10.66249,-2.97892 9.47403,-9.36404 -1.49854,-8.05108 -13.93483,-19.14887 -22.35235,-19.34151 z"
         style="fill:#ffaaaa;stroke:#000000;stroke-width:2;stroke-linecap:butt;stroke-linejoin:miter;stroke-opacity:1;display:inline" />
      <path
         sodipodi:nodetypes="sss"
         inkscape:connector-curvature="0"
         id="path5105-1-4-55-1-96"
         d="m 273.75102,233.4276 c 1.23326,1.22109 7.18923,-15.05565 5.7554,-15.14696 -2.69461,-0.17164 -10.7325,10.21887 -5.7554,15.14696 z"
         style="fill:#000000;stroke:#000000;stroke-width:2;stroke-linecap:butt;stroke-linejoin:miter;stroke-opacity:1;display:inline" />
      <path
         sodipodi:nodetypes="sss"
         inkscape:connector-curvature="0"
         id="path5107-1-5-1-5-3"
         d="m 286.85407,219.47957 c -1.59154,0.63179 2.70321,17.04525 4.17037,15.70796 5.87649,-5.35645 -2.37051,-16.42246 -4.17037,-15.70796 z"
         style="fill:#000000;stroke:#000000;stroke-width:2;stroke-linecap:butt;stroke-linejoin:miter;stroke-opacity:1;display:inline" />
      <path
         sodipodi:nodetypes="cc"
         inkscape:connector-curvature="0"
         id="path5097-5-8-8-5-61-1"
         d="m 305.65028,210.03596 -41.81266,-4.97807"
         style="fill:none;stroke:#000000;stroke-width:2;stroke-linecap:butt;stroke-linejoin:miter;stroke-opacity:1;display:inline" />
    </g>
    <g
       id="g3233">
      <path
         sodipodi:nodetypes="cssssc"
         inkscape:connector-curvature="0"
         id="path17392-7"
         d="m 208.14306,236.06617 c 30.2719,14.87693 31.56316,41.95626 21.65469,43.87501 -15.07917,2.92007 -43.62039,3.6551 -47.19943,1.84027 -3.24346,-1.6447 -0.79936,-1.90355 -1.54491,-4.27107 -0.71381,-2.26687 -10.21247,0.16571 -10.55095,-1.73586 -0.88014,-4.94452 16.83429,-15.66849 25.43954,-16.31064"
         style="fill:#ffd5d5;stroke:none;display:inline" />
      <path
         style="fill:#ffaaaa;stroke:none;display:inline"
         d="m 180.6506,265.82002 c 6.85628,-4.20015 22.85373,14.65005 14.20575,16.91808 0,0 -8.92491,0.31545 -12.03873,-0.95665 -3.36653,-1.37534 -0.79936,-1.90355 -1.54491,-4.27107 -0.71381,-2.26687 -10.22589,0.16802 -10.55095,-1.73586 -0.72506,-4.24672 9.92884,-9.9545 9.92884,-9.9545 z"
         id="path17422-1"
         inkscape:connector-curvature="0"
         sodipodi:nodetypes="ccsssc" />
      <path
         sodipodi:nodetypes="cssssc"
         inkscape:connector-curvature="0"
         id="path17392"
         d="m 208.28733,236.21715 c 30.2719,14.87692 31.56316,41.95625 21.65469,43.87501 -15.07917,2.92006 -43.62039,3.65509 -47.19943,1.84026 -3.24346,-1.64469 -0.79936,-1.90355 -1.54491,-4.27106 -0.71381,-2.26687 -10.21247,0.1657 -10.55095,-1.73587 -0.88014,-4.94452 16.83429,-15.66848 25.43954,-16.31063"
         style="fill:none;stroke:#000000;stroke-width:2;stroke-linecap:butt;stroke-linejoin:miter;stroke-opacity:1;display:inline" />
      <path
         style="fill:#ffd5d5;stroke:#000000;stroke-width:2;stroke-linecap:butt;stroke-linejoin:miter;stroke-opacity:1;display:inline"
         d="m 183.5335,180.3458 c 12.16497,-0.5891 25.42042,13.66722 22.85078,28.97784"
         id="path17396"
         inkscape:connector-curvature="0"
         sodipodi:nodetypes="cc" />
      <path
         sodipodi:nodetypes="cscccc"
         inkscape:connector-curvature="0"
         id="path5977-5"
         d="m 100.03763,241.68714 c -5.055553,-19.47114 5.04609,-36.61691 20.66864,-53.87731 19.42675,-21.46347 55.337,-19.93443 70.64012,-0.33222 l 9.97069,14.90999 c 8.6296,9.42282 14.67428,29.32882 2.52125,42.55811 z"
         style="fill:#ffd5d5;stroke:none;display:inline" />
      <path
         style="fill:none;stroke:#000000;stroke-width:2;stroke-linecap:butt;stroke-linejoin:miter;stroke-opacity:1;display:inline"
         d="m 201.28321,202.48109 c 8.6296,9.42282 14.67428,29.32882 2.52125,42.55811"
         id="path17390"
         inkscape:connector-curvature="0"
         sodipodi:nodetypes="cc" />
      <path
         sodipodi:nodetypes="csccscccc"
         inkscape:connector-curvature="0"
         id="path5977-5-9"
         d="m 100.00891,242.05555 c -5.055546,-19.47114 4.16104,-37.46132 20.66864,-53.87731 25.5698,-25.42788 46.34648,-12.08988 52.27939,-12.84367 -17.81681,-2.43036 -33.12229,5.36945 -35.92174,15.49433 -14.16431,-0.90382 -27.3162,11.05745 -21.7458,25.13704 2.50058,6.32039 11.73538,3.03287 14.28405,2.9657 l 3.78564,-4.42449 c -10.43298,15.68114 -2.14754,26.71028 2.33721,28.36772 z"
         style="fill:#ff9c60;fill-opacity:1;stroke:none;display:inline" />
      <path
         sodipodi:nodetypes="csc"
         inkscape:connector-curvature="0"
         id="path5977"
         d="m 191.31252,187.5711 c -15.30312,-19.60221 -51.21337,-21.13125 -70.64012,0.33222 -15.62255,17.2604 -25.724194,34.40617 -20.66864,53.87731"
         style="fill:none;stroke:#000000;stroke-width:2;stroke-linecap:butt;stroke-linejoin:miter;stroke-opacity:1;display:inline" />
      <path
         style="fill:#ffaaaa;stroke:#000000;stroke-width:2;stroke-linecap:butt;stroke-linejoin:miter;stroke-opacity:1;display:inline"
         d="m 186.3346,210.03882 c 6.13444,-0.94362 10.56188,4.65355 12.6545,10.08052 2.28544,5.92701 2.02916,19.36735 -5.29079,17.99822 -6.28716,-1.17595 -14.59847,0.43553 -23.49506,2.39022 -8.28952,1.82131 -12.00771,-4.41719 -6.37621,-13.01797 5.18809,-7.92357 14.32142,-16.19178 22.50756,-17.45099 z"
         id="path17394"
         inkscape:connector-curvature="0"
         sodipodi:nodetypes="ssssss" />
      <path
         style="fill:#ff9c60;fill-opacity:1;stroke:none;display:inline"
         d="m 133.9835,183.09396 c -30.94501,3.2165 -31.40189,41.40166 -15.50412,45.63713 -14.89189,-19.80973 1.468,-37.39911 15.50412,-45.63713 z"
         id="path17398-9"
         inkscape:connector-curvature="0"
         sodipodi:nodetypes="ccc" />
      <path
         style="fill:none;stroke:#000000;stroke-width:2;stroke-linecap:butt;stroke-linejoin:miter;stroke-opacity:1;display:inline"
         d="m 134.02746,183.03886 c -30.94501,3.2165 -31.40189,41.40166 -15.50412,45.63713 4.68348,1.24776 14.81977,-17.77974 23.78512,-21.98554"
         id="path17398"
         inkscape:connector-curvature="0"
         sodipodi:nodetypes="csc" />
      <path
         style="fill:none;stroke:#000000;stroke-width:2;stroke-linecap:butt;stroke-linejoin:miter;stroke-opacity:1;display:inline"
         d="m 187.94861,202.9645 -0.78342,5.35509"
         id="path17404"
         inkscape:connector-curvature="0"
         sodipodi:nodetypes="cc" />
      <path
         style="fill:none;stroke:#000000;stroke-width:2;stroke-linecap:butt;stroke-linejoin:miter;stroke-opacity:1;display:inline"
         d="m 174.18818,211.30069 -4.50573,-6.81588"
         id="path17406"
         inkscape:connector-curvature="0"
         sodipodi:nodetypes="cc" />
      <path
         style="fill:#000000;stroke:#000000;stroke-width:2;stroke-linecap:butt;stroke-linejoin:miter;stroke-opacity:1;display:inline"
         d="m 182.95144,219.11059 c -2.18601,-0.78038 -10.06224,10.12006 -6.07781,15.24577 1.77398,2.28207 7.81422,-14.62612 6.07781,-15.24577 z"
         id="path17408"
         inkscape:connector-curvature="0"
         sodipodi:nodetypes="sss" />
      <path
         style="fill:#000000;stroke:#000000;stroke-width:2;stroke-linecap:butt;stroke-linejoin:miter;stroke-opacity:1;display:inline"
         d="m 190.18171,218.1746 c -1.7937,0.68968 -2.5373,16.54787 -0.38451,15.06936 4.64994,-3.19351 2.49058,-15.87912 0.38451,-15.06936 z"
         id="path17410"
         inkscape:connector-curvature="0"
         sodipodi:nodetypes="sss" />
      <path
         style="fill:none;stroke:#000000;stroke-width:2;stroke-linecap:butt;stroke-linejoin:miter;stroke-opacity:1;display:inline"
         d="m 180.40111,265.77713 c 6.85629,-4.20015 23.02819,14.84391 14.38021,17.11194"
         id="path17422"
         inkscape:connector-curvature="0"
         sodipodi:nodetypes="cc" />
    </g>
    <g
       id="g4329">
      <path
         sodipodi:nodetypes="sssss"
         inkscape:connector-curvature="0"
         id="rect10634"
         d="m 40.414014,244.93882 c 0,-6.07785 34.096353,-6.09258 34.096353,0 l 0,44.37723 c 0,5.83802 -34.096353,5.73697 -34.096353,0 z"
         style="fill:none;stroke:#000000;stroke-width:2;display:inline" />
      <path
         sodipodi:nodetypes="cssssc"
         inkscape:connector-curvature="0"
         id="rect10637"
         d="m 69.923292,251.43038 7.002749,0 c 1.924939,0 3.474624,1.54964 3.474624,3.4746 l 0,24.45412 c 0,1.92496 -1.549685,3.47459 -3.474624,3.47459 l -7.002749,0"
         style="fill:none;stroke:#000000;stroke-width:2;stroke-linecap:round;stroke-miterlimit:4;stroke-opacity:1;stroke-dashoffset:0;display:inline" />
      <path
         sodipodi:nodetypes="cssssssc"
         inkscape:connector-curvature="0"
         id="rect10646"
         d="m 70.78903,256.88306 c 0,-1.07565 0.865996,-1.94167 1.9417,-1.94167 l 2.115068,0 c 1.075704,0 1.941707,0.86602 1.941707,1.94167 l 0,20.83046 c 0,1.07564 -0.866003,1.94166 -1.941707,1.94166 l -2.115068,0 c -1.075704,0 -1.9417,-0.86602 -1.9417,-1.94166"
         style="fill:none;stroke:#000000;stroke-width:2;stroke-linecap:round;stroke-miterlimit:4;stroke-opacity:1;stroke-dashoffset:0;display:inline" />
      <path
         sodipodi:nodetypes="sssss"
         inkscape:connector-curvature="0"
         id="rect10634-7"
         d="m 42.002874,263.65018 c 0,-5.52585 30.999562,-5.53921 30.999562,0 l 0,24.58266 c 0,5.30777 -30.999562,5.21592 -30.999562,0 z"
         style="fill:#d45500;fill-opacity:0.84705882;stroke:none;display:inline" />
      <path
         transform="matrix(0.77432682,0,0,0.77432682,-120.25917,-796.66001)"
         d="m 247.95498,1401.0836 a 18.331303,4.4230647 0 1 1 -36.66261,0 18.331303,4.4230647 0 1 1 36.66261,0 z"
         sodipodi:ry="4.4230647"
         sodipodi:rx="18.331303"
         sodipodi:cy="1401.0836"
         sodipodi:cx="229.62367"
         id="path5217"
         style="fill:#d45500;fill-opacity:0.84705882;stroke:none"
         sodipodi:type="arc" />
      <path
         transform="matrix(0.84321696,0,0,0.85242708,-136.1674,-930.98904)"
         d="m 247.95498,1401.0836 a 18.331303,4.4230647 0 1 1 -36.66261,0 18.331303,4.4230647 0 1 1 36.66261,0 z"
         sodipodi:ry="4.4230647"
         sodipodi:rx="18.331303"
         sodipodi:cy="1401.0836"
         sodipodi:cx="229.62367"
         id="path5217-4"
         style="fill:#d45500;fill-opacity:0.84705882;stroke:none;display:inline"
         sodipodi:type="arc" />
      <path
         transform="matrix(0.79498141,0,0,0.79498141,-124.92789,-868.85068)"
         d="m 247.95498,1401.0836 a 18.331303,4.4230647 0 1 1 -36.66261,0 18.331303,4.4230647 0 1 1 36.66261,0 z"
         sodipodi:ry="4.4230647"
         sodipodi:rx="18.331303"
         sodipodi:cy="1401.0836"
         sodipodi:cx="229.62367"
         id="path5217-5"
         style="fill:none;stroke:#000000;stroke-width:2.5828886"
         sodipodi:type="arc" />
    </g>
    <g
       id="g4361">
      <path
         sodipodi:nodetypes="sssss"
         inkscape:connector-curvature="0"
         id="rect10634-2"
         d="m 280.73647,249.81072 c 0,-5.78402 32.44805,-5.79806 32.44805,0 l 0,42.23195 c 0,5.55578 -32.44805,5.45963 -32.44805,0 z"
         style="fill:none;stroke:#000000;stroke-width:2;display:inline" />
      <path
         sodipodi:nodetypes="sssssssss"
         inkscape:connector-curvature="0"
         id="rect10646-2"
         d="m 300.6111,257.793 c 0,-1.38455 1.11467,-2.49926 2.49926,-2.49926 l 1.3586,0 c 1.38459,0 2.49927,1.11471 2.49927,2.49926 l 0,26.81189 c 0,1.38461 -1.11468,2.49926 -2.49927,2.49926 l -1.3586,0 c -1.38459,0 -2.49926,-1.11465 -2.49926,-2.49926 z"
         style="fill:none;stroke:#000000;stroke-width:2;stroke-linecap:round;stroke-miterlimit:4;stroke-opacity:1;stroke-dashoffset:0;display:inline" />
      <path
         sodipodi:nodetypes="sssss"
         inkscape:connector-curvature="0"
         id="rect10634-7-2"
         d="m 282.24852,267.61753 c 0,-5.25867 29.50097,-5.27143 29.50097,0 l 0,23.3943 c 0,5.05117 -29.50097,4.96375 -29.50097,0 z"
         style="fill:#800000;fill-opacity:0.84705882;stroke:none;display:inline" />
      <path
         transform="matrix(0.73689407,0,0,0.73689407,127.83059,-741.4348)"
         d="m 247.95498,1401.0836 a 18.331303,4.4230647 0 1 1 -36.66261,0 18.331303,4.4230647 0 1 1 36.66261,0 z"
         sodipodi:ry="4.4230647"
         sodipodi:rx="18.331303"
         sodipodi:cy="1401.0836"
         sodipodi:cx="229.62367"
         id="path5217-1"
         style="fill:#800000;fill-opacity:0.84705882;stroke:none"
         sodipodi:type="arc" />
      <path
         transform="matrix(0.8024539,0,0,0.81121881,112.69141,-869.27005)"
         d="m 247.95498,1401.0836 a 18.331303,4.4230647 0 1 1 -36.66261,0 18.331303,4.4230647 0 1 1 36.66261,0 z"
         sodipodi:ry="4.4230647"
         sodipodi:rx="18.331303"
         sodipodi:cy="1401.0836"
         sodipodi:cx="229.62367"
         id="path5217-4-6"
         style="fill:#800000;fill-opacity:0.84705882;stroke:none;display:inline"
         sodipodi:type="arc" />
      <path
         sodipodi:type="arc"
         style="fill:none;stroke:#000000;stroke-width:2.5828886"
         id="path5217-5-1"
         sodipodi:cx="229.62367"
         sodipodi:cy="1401.0836"
         sodipodi:rx="18.331303"
         sodipodi:ry="4.4230647"
         d="m 247.95498,1401.0836 a 18.331303,4.4230647 0 1 1 -36.66261,0 18.331303,4.4230647 0 1 1 36.66261,0 z"
         transform="matrix(0.76030853,0,0,0.76030853,122.38516,-815.11946)" />
    </g>
  </g>
  <g
     inkscape:groupmode="layer"
     id="layer4"
     inkscape:label="吹き出し"
     sodipodi:insensitive="true">
    <g
       transform="translate(-2.5803159,25.580413)"
       id="g9788">
      <path
         sodipodi:nodetypes="sssscsssssss"
         inkscape:connector-curvature="0"
         id="rect7294"
         d="m 15.802008,39.97286 0,41.41665 c 0,12.905093 10.38929,23.29439 23.29438,23.29439 l 65.211322,0 c 17.58619,0 9.9706,14.00121 38.7293,33.81621 -9.75887,-16.13847 -13.6226,-33.81621 -4.33841,-33.81621 l 149.09118,0 c 12.90509,0 23.2944,-10.389297 23.2944,-23.29439 l 0,-41.41665 c 0,-12.90509 -10.3893,-23.294381 -23.2944,-23.294381 l -248.693392,0 c -12.90509,0 -23.29438,10.389291 -23.29438,23.294381 z"
         style="fill:#fefefe;fill-opacity:1;stroke:#000000;stroke-width:2;stroke-linecap:round;stroke-miterlimit:4;stroke-opacity:1;stroke-dashoffset:0;display:inline" />
      <text
         sodipodi:linespacing="125%"
         id="text11601"
         y="52.127796"
         x="29.334309"
         style="font-size:29.90939713px;font-style:normal;font-weight:normal;line-height:125%;letter-spacing:0px;word-spacing:0px;writing-mode:lr-tb;fill:#000000;fill-opacity:1;stroke:none;display:inline;font-family:Sans"
         xml:space="preserve"><tspan
           y="52.127796"
           x="29.334309"
           id="tspan11603"
           sodipodi:role="line">なに、</tspan><tspan
           y="89.514542"
           x="29.334309"
           sodipodi:role="line"
           id="tspan4369">明けない夜はないさ</tspan></text>
    </g>
  </g>
  <g
     inkscape:groupmode="layer"
     id="layer2"
     inkscape:label="枠面"
     sodipodi:insensitive="true">
    <path
       style="fill:#ffffff;stroke:none;display:inline"
       d="m 0,0 0,320 370,0 0,-320 -10,10 0,300 -350,0 0,-300 350,0 10,-10 z"
       id="path21072"
       inkscape:connector-curvature="0"
       sodipodi:nodetypes="ccccccccccc" />
  </g>
</svg>
