<?xml version="1.0" encoding="UTF-8" standalone="no"?>
<!-- Created with Inkscape (http://www.inkscape.org/) -->

<svg
   xmlns:dc="http://purl.org/dc/elements/1.1/"
   xmlns:cc="http://creativecommons.org/ns#"
   xmlns:rdf="http://www.w3.org/1999/02/22-rdf-syntax-ns#"
   xmlns:svg="http://www.w3.org/2000/svg"
   xmlns="http://www.w3.org/2000/svg"
   xmlns:xlink="http://www.w3.org/1999/xlink"
   xmlns:sodipodi="http://sodipodi.sourceforge.net/DTD/sodipodi-0.dtd"
   xmlns:inkscape="http://www.inkscape.org/namespaces/inkscape"
   width="370"
   height="320"
   id="svg3172"
   version="1.1"
   inkscape:version="0.48.4 r9939"
   sodipodi:docname="[31.航行].svg"
   inkscape:export-filename="C:\Users\執安\Desktop\資料\臨時\svg\[31.航行].png"
   inkscape:export-xdpi="90"
   inkscape:export-ydpi="90">
  <defs
     id="defs3174">
    <inkscape:perspective
       sodipodi:type="inkscape:persp3d"
       inkscape:vp_x="0 : 160 : 1"
       inkscape:vp_y="0 : 1000 : 0"
       inkscape:vp_z="370 : 160 : 1"
       inkscape:persp3d-origin="185 : 106.66667 : 1"
       id="perspective5594" />
    <linearGradient
       gradientTransform="matrix(1.2205864,0,0,1.2205864,589.4418,118.13937)"
       inkscape:collect="always"
       xlink:href="#linearGradient5115"
       id="linearGradient5121"
       x1="-352.57611"
       y1="62.347782"
       x2="-210.55959"
       y2="88.383041"
       gradientUnits="userSpaceOnUse" />
    <linearGradient
       id="linearGradient5115">
      <stop
         style="stop-color:#ff6600;stop-opacity:0.8487395;"
         offset="0"
         id="stop5117" />
      <stop
         style="stop-color:#ff6600;stop-opacity:0;"
         offset="1"
         id="stop5119" />
    </linearGradient>
    <linearGradient
       inkscape:collect="always"
       xlink:href="#linearGradient5073"
       id="linearGradient5079"
       x1="-511.36334"
       y1="15.00192"
       x2="-347.74582"
       y2="38.144367"
       gradientUnits="userSpaceOnUse"
       gradientTransform="matrix(1.2198441,0.04256194,-0.04256194,1.2198441,639.31995,157.27104)" />
    <linearGradient
       id="linearGradient5073">
      <stop
         style="stop-color:#ff0000;stop-opacity:0.84705883;"
         offset="0"
         id="stop5075" />
      <stop
         style="stop-color:#ff0000;stop-opacity:0"
         offset="1"
         id="stop5077" />
    </linearGradient>
  </defs>
  <sodipodi:namedview
     id="base"
     pagecolor="#ffffff"
     bordercolor="#666666"
     borderopacity="1.0"
     inkscape:pageopacity="0.0"
     inkscape:pageshadow="2"
     inkscape:zoom="0.77372814"
     inkscape:cx="120.5002"
     inkscape:cy="47.11765"
     inkscape:document-units="px"
     inkscape:current-layer="layer3"
     showgrid="false"
     inkscape:window-width="1069"
     inkscape:window-height="698"
     inkscape:window-x="171"
     inkscape:window-y="-5"
     inkscape:window-maximized="0" />
  <metadata
     id="metadata3177">
    <rdf:RDF>
      <cc:Work
         rdf:about="">
        <dc:format>image/svg+xml</dc:format>
        <dc:type
           rdf:resource="http://purl.org/dc/dcmitype/StillImage" />
        <dc:title></dc:title>
      </cc:Work>
    </rdf:RDF>
  </metadata>
  <g
     inkscape:label="補助線"
     inkscape:groupmode="layer"
     id="layer1"
     transform="translate(0,-732.36218)"
     sodipodi:insensitive="true"
     style="display:none">
    <path
       style="fill:none;stroke:#0000ff;stroke-width:1px;stroke-linecap:butt;stroke-linejoin:miter;stroke-opacity:1;display:inline"
       d="M 10,1042.3622 360,742.36211"
       id="path3025"
       inkscape:connector-curvature="0"
       sodipodi:nodetypes="cc" />
    <path
       style="fill:none;stroke:#0000ff;stroke-width:1px;stroke-linecap:butt;stroke-linejoin:miter;stroke-opacity:1;display:inline"
       d="M 10,742.36211 360,1042.3622"
       id="path3027"
       inkscape:connector-curvature="0"
       sodipodi:nodetypes="cc" />
    <path
       style="fill:none;stroke:#ff0000;stroke-width:1px;stroke-linecap:butt;stroke-linejoin:miter;stroke-opacity:1;display:inline"
       d="m 10,732.36211 0,320.00009"
       id="path3006"
       inkscape:connector-curvature="0"
       sodipodi:nodetypes="cc" />
    <path
       style="fill:none;stroke:#ff0000;stroke-width:1px;stroke-linecap:butt;stroke-linejoin:miter;stroke-opacity:1;display:inline"
       d="m 360,732.36211 0,320.00009"
       id="path3010"
       inkscape:connector-curvature="0"
       sodipodi:nodetypes="cc" />
    <path
       style="fill:none;stroke:#ff0000;stroke-width:1px;stroke-linecap:butt;stroke-linejoin:miter;stroke-opacity:1;display:inline"
       d="m 0,742.36208 370,3e-5"
       id="path3016"
       inkscape:connector-curvature="0" />
    <path
       style="fill:none;stroke:#ff0000;stroke-width:1px;stroke-linecap:butt;stroke-linejoin:miter;stroke-opacity:1;display:inline"
       d="m 0,1042.3622 370,0"
       id="path3018"
       inkscape:connector-curvature="0"
       sodipodi:nodetypes="cc" />
  </g>
  <g
     inkscape:groupmode="layer"
     id="layer3"
     inkscape:label="豚">
    <path
       style="fill:#fefefe;fill-opacity:1;stroke:#000000;stroke-width:2;stroke-linecap:butt;stroke-linejoin:miter;stroke-opacity:1"
       d="m 324.33541,15.160785 c 99.41156,24.86685 1.35835,10.98255 -34.36518,1.33082 136.26054,36.6189 -137.72143,-15.2798002 -47.09609,-6.8771502 -40.69503,-10.16976999 -65.44048,-17.92144 -20.37094,-12.35338 -87.93796,-25.3865998 36.72984,3.72759001 66.20879,8.48867 -82.02396,-30.1168098 252.59574,44.9728602 35.62342,9.4110402 z"
       id="path5615-5-2-6"
       inkscape:connector-curvature="0"
       sodipodi:nodetypes="cccccc" />
    <path
       style="fill:#fefefe;fill-opacity:1;stroke:#000000;stroke-width:2;stroke-linecap:butt;stroke-linejoin:miter;stroke-opacity:1"
       d="m -7.7097723,118.53006 c -82.7370297,-20.695867 0.39898,-7.8625 30.1305303,0.17034 -26.9873103,-10.02969 84.795442,18.25462 34.608003,10.19641 33.86915,8.46398 48.728289,15.34141 24.98404,9.64235 68.599339,23.47135 -38.599043,-5.23225 -63.133403,-9.19475 69.087223,19.57531 -103.68211,-17.52555 -26.5891703,-10.81435 z"
       id="path5615-5-21"
       inkscape:connector-curvature="0"
       sodipodi:nodetypes="cccccc" />
    <path
       style="fill:#fefefe;fill-opacity:1;stroke:#000000;stroke-width:2;stroke-linecap:butt;stroke-linejoin:miter;stroke-opacity:1"
       d="m -141.02851,111.09165 c -55.92022,-13.465831 18.97801,-8.27171 64.98161,2.38044 -42.18448,-13.790511 95.385051,13.55974 83.9228379,16.20043 107.6428521,20.73444 112.7075421,30.20563 31.5469181,13.92923 66.343884,18.8875 -54.089161,-4.46745 -91.635397,-9.24454 122.392339,34.95564 -237.031289,-39.912601 -88.815969,-23.26556 z"
       id="path5615-1"
       inkscape:connector-curvature="0"
       sodipodi:nodetypes="cccccc" />
    <g
       style="stroke-width:1.63855672;display:inline"
       id="g7904"
       transform="matrix(1.2205864,0,0,1.2205864,634.3587,123.80848)">
      <path
         sodipodi:nodetypes="cccc"
         inkscape:connector-curvature="0"
         id="path5091-2-40-9-4-6-3"
         d="m -460.51535,-2.4239379 c -8.17749,-1.8070321 -23.26938,8.6933347 -21.06158,26.4902009 l 27.00933,-11.600409 z"
         style="fill:#ffd5d5;stroke:#000000;stroke-width:1.63855672;stroke-linecap:butt;stroke-linejoin:miter;stroke-opacity:1;display:inline" />
      <path
         sodipodi:nodetypes="ccscc"
         inkscape:connector-curvature="0"
         id="path5093-4-9-4-8-1-1"
         d="m -477.22218,14.650213 c -10.03032,12.401151 -11.08456,31.599874 1.37456,45.935883 21.06377,42.311134 107.10329,40.642444 120.73349,-27.722079 2.28043,-11.437836 2.08117,-21.478566 -16.68714,-14.714658 C -383.2438,5.8440578 -402.5531,-3.5353844 -420.22083,-2.318472"
         style="fill:#ffd5d5;stroke:#000000;stroke-width:1.63855672;stroke-linecap:butt;stroke-linejoin:miter;stroke-opacity:1;display:inline" />
      <path
         sodipodi:nodetypes="cc"
         inkscape:connector-curvature="0"
         id="path5095-5-4-8-8-4-9"
         d="m -469.45665,14.05154 c 0.35561,1.513103 0.87107,4.532729 0.75812,6.452898"
         style="fill:none;stroke:#000000;stroke-width:1.63855672;stroke-linecap:butt;stroke-linejoin:miter;stroke-opacity:1;display:inline" />
      <path
         sodipodi:nodetypes="cc"
         inkscape:connector-curvature="0"
         id="path5097-5-8-8-2-2-8"
         d="m -451.96956,16.062788 c -1.90341,1.272787 -4.77055,4.130035 -6.28997,6.054698"
         style="fill:none;stroke:#000000;stroke-width:1.63855672;stroke-linecap:butt;stroke-linejoin:miter;stroke-opacity:1;display:inline" />
      <path
         sodipodi:nodetypes="ssssss"
         inkscape:connector-curvature="0"
         id="path5101-7-2-4-5-2-5"
         d="m -448.185,36.505281 c 4.77969,8.429367 -0.83494,14.981796 -7.57243,13.014254 -6.85124,-2.00076 -10.87828,-1.868283 -15.38256,-1.764457 -7.30031,0.168276 -7.86867,-10.669801 -5.91494,-15.662072 1.91505,-4.89343 3.91238,-9.787635 9.88745,-9.453068 5.27772,0.29552 14.91649,6.694647 18.98248,13.865343 z"
         style="fill:#ffaaaa;stroke:#000000;stroke-width:1.63855672;stroke-linecap:butt;stroke-linejoin:miter;stroke-opacity:1;display:inline" />
      <path
         sodipodi:nodetypes="sss"
         inkscape:connector-curvature="0"
         id="path5105-1-4-55-1-2-0"
         d="m -457.19068,42.433985 c -1.34435,1.983101 -7.49096,-11.216814 -5.87879,-12.36115 1.12127,-0.79589 9.72615,6.685793 5.87879,12.36115 z"
         style="fill:#000000;stroke:#000000;stroke-width:1.63855672;display:inline" />
      <path
         sodipodi:nodetypes="sss"
         inkscape:connector-curvature="0"
         id="path5107-1-5-1-7-1-2"
         d="m -468.91285,29.525434 c 2.02702,0.171135 -0.049,13.162384 -1.53933,12.236815 -3.04382,-1.890327 -0.15391,-12.37977 1.53933,-12.236815 z"
         style="fill:#000000;stroke:#000000;stroke-width:1.63855672;display:inline" />
      <path
         sodipodi:nodetypes="sssccs"
         inkscape:connector-curvature="0"
         id="path3774-8-6"
         d="m -377.09921,42.652297 c -0.0363,-1.40931 -3.09758,-1.83033 -3.64804,-3.5089 -0.46977,-1.43255 1.29276,-3.450978 0.75754,-4.65943 -1.60871,-3.632198 -8.35692,-3.17861 -8.35692,-3.17861 2.72057,3.33196 6.21099,15.49867 5.71525,22.10589 0,0 5.62107,-7.30715 5.53217,-10.75895 z"
         style="fill:#ffaaaa;stroke:none;display:inline" />
      <path
         sodipodi:nodetypes="csssc"
         inkscape:connector-curvature="0"
         id="path3774-8"
         d="m -400.59082,65.684809 c 14.22823,-3.124864 23.54152,-19.639661 23.45262,-23.091459 -0.0363,-1.409307 -3.09758,-1.830331 -3.64804,-3.508894 -0.46977,-1.432553 1.29277,-3.450984 0.75754,-4.659438 -1.6087,-3.632198 -14.09045,-3.828122 -27.25165,-2.533402"
         style="fill:none;stroke:#000000;stroke-width:1.63855672;stroke-linecap:butt;stroke-linejoin:miter;stroke-opacity:1;display:inline" />
      <path
         sodipodi:nodetypes="cc"
         inkscape:connector-curvature="0"
         id="path3776-6"
         d="m -382.67037,53.352302 c 0.49574,-6.60722 -2.99468,-18.773926 -5.71525,-22.105894"
         style="fill:none;stroke:#000000;stroke-width:1.63855672;stroke-linecap:butt;stroke-linejoin:miter;stroke-opacity:1;display:inline" />
      <path
         sodipodi:nodetypes="cc"
         inkscape:connector-curvature="0"
         id="path3327-0-2-9"
         d="m -472.9307,8.3392158 c 14.73182,-27.7509008 62.70329,-21.9832768 74.46445,7.2376052"
         style="fill:#ffd5d5;stroke:#000000;stroke-width:1.63855672;stroke-linecap:butt;stroke-linejoin:miter;stroke-opacity:1;display:inline" />
      <path
         inkscape:connector-curvature="0"
         id="path5099-1-8-2-5-3-6"
         d="m -427.84703,-1.1686258 c 16.71534,-5.096631 31.62961,21.7098038 24.67725,32.2164538 -3.12716,4.725853 -16.09492,-4.908663 -23.53405,-6.515906"
         style="fill:#ffd5d5;stroke:#000000;stroke-width:1.63855672;stroke-linecap:butt;stroke-linejoin:miter;stroke-opacity:1;display:inline" />
    </g>
    <path
       style="fill:#fefefe;fill-opacity:1;stroke:#000000;stroke-width:2;stroke-linecap:butt;stroke-linejoin:miter;stroke-opacity:1"
       d="m 194.16517,156.93066 c -99.411578,-24.86685 0.47939,-9.44708 36.20294,0.20467 -32.42625,-12.05104 101.88483,21.93359 41.58278,12.25136 40.69503,10.16978 58.54883,18.43327 30.01924,11.58563 82.42463,28.20169 -46.37817,-6.28674 -75.8571,-11.04782 83.01083,23.52045 -124.57786,-21.05759 -31.94786,-12.99384 z"
       id="path5615-5"
       inkscape:connector-curvature="0"
       sodipodi:nodetypes="cccccc" />
    <g
       style="stroke-width:1.63855672;display:inline"
       id="g7939"
       transform="matrix(1.2180428,-0.07875824,0.07875824,1.2180428,582.69718,96.645687)">
      <path
         sodipodi:nodetypes="cccc"
         inkscape:connector-curvature="0"
         id="path5091-2-40-9-4-6-3-2"
         d="m -307.34917,36.801206 c -7.38074,-2.138908 -19.06562,6.781859 -18.63222,17.15856 l 27.34767,-3.346371 z"
         style="fill:#ffd5d5;stroke:#000000;stroke-width:1.63855672;stroke-linecap:butt;stroke-linejoin:miter;stroke-opacity:1;display:inline" />
      <path
         sodipodi:nodetypes="ccccc"
         inkscape:connector-curvature="0"
         id="path5093-4-9-4-8-1-1-4"
         d="m -321.65838,49.812066 c -7.11911,4.598152 -15.49422,18.966717 -7.19596,34.862214 11.12764,38.26051 80.90111,53.90163 106.25147,3.624678 9.29293,-24.452461 1.78447,-30.179515 -11.14222,-23.407852 -7.22597,-11.732 -21.02047,-22.024676 -35.03362,-23.523428"
         style="fill:#ffd5d5;stroke:#000000;stroke-width:1.63855672;stroke-linecap:butt;stroke-linejoin:miter;stroke-opacity:1;display:inline" />
      <path
         sodipodi:nodetypes="cc"
         inkscape:connector-curvature="0"
         id="path3327-0-2-9-0"
         d="m -316.70675,43.746055 c 17.0142,-20.748446 59.14362,-8.489738 61.83347,21.074705"
         style="fill:#ffd5d5;stroke:#000000;stroke-width:1.63855672;stroke-linecap:butt;stroke-linejoin:miter;stroke-opacity:1;display:inline" />
      <path
         sodipodi:nodetypes="cc"
         inkscape:connector-curvature="0"
         id="path5095-5-4-8-8-4-9-8"
         d="m -315.31813,49.661607 c 0.23601,1.40654 0.003,3.599716 0.0389,5.477555"
         style="fill:none;stroke:#000000;stroke-width:1.63855672;stroke-linecap:butt;stroke-linejoin:miter;stroke-opacity:1;display:inline" />
      <path
         sodipodi:nodetypes="cc"
         inkscape:connector-curvature="0"
         id="path5097-5-8-8-2-2-8-6"
         d="m -302.12551,52.668864 c -1.81824,1.052709 -4.07032,3.898792 -5.57557,5.571135"
         style="fill:none;stroke:#000000;stroke-width:1.63855672;stroke-linecap:butt;stroke-linejoin:miter;stroke-opacity:1;display:inline" />
      <path
         sodipodi:nodetypes="ssssss"
         inkscape:connector-curvature="0"
         id="path5101-7-2-4-5-2-5-0"
         d="m -299.89564,74.340631 c 2.30103,7.8451 -3.34208,11.653223 -8.05123,8.862636 -4.93444,-2.924097 -10.39334,-4.825226 -14.43178,-5.709315 -5.28764,-1.157563 -4.88836,-7.957504 -2.80377,-12.412997 2.04332,-4.367278 7.07149,-9.502507 11.77063,-7.903407 5.11623,1.741035 11.14261,9.070778 13.51615,17.163083 z"
         style="fill:#ffaaaa;stroke:#000000;stroke-width:1.63855672;stroke-linecap:butt;stroke-linejoin:miter;stroke-opacity:1;display:inline" />
      <path
         sodipodi:nodetypes="sss"
         inkscape:connector-curvature="0"
         id="path5105-1-4-55-1-2-0-9"
         d="m -308.86749,76.535544 c -1.7738,1.50378 -3.756,-11.709748 -2.42988,-12.049426 1.19317,-0.305626 5.54374,9.409592 2.42988,12.049426 z"
         style="fill:#000000;stroke:#000000;stroke-width:1.63855672;display:inline" />
      <path
         sodipodi:nodetypes="sss"
         inkscape:connector-curvature="0"
         id="path5107-1-5-1-7-1-2-0"
         d="m -316.96157,62.898703 c 1.49308,0.312581 -0.62722,11.348803 -2.20964,9.648575 -1.55911,-1.675183 1.47966,-9.8014 2.20964,-9.648575 z"
         style="fill:#000000;stroke:#000000;stroke-width:1.63855672;display:inline" />
      <path
         sodipodi:nodetypes="sssccs"
         inkscape:connector-curvature="0"
         id="path3774-8-0-6"
         d="m -235.18859,82.930845 c 0.0502,-1.29259 -2.38863,-1.99589 -2.79324,-3.56548 -0.34531,-1.33954 1.57259,-3.35123 1.15408,-4.48946 -1.25791,-3.42111 -7.54385,-3.66609 -7.54385,-3.66609 3.178,4.22258 4.19564,13.22234 3.82041,18.22257 0,0 5.23961,-3.33562 5.3626,-6.50154 z"
         style="fill:#ffaaaa;stroke:none;display:inline" />
      <path
         sodipodi:nodetypes="csssc"
         inkscape:connector-curvature="0"
         id="path3774-8-0"
         d="m -255.73212,98.250735 c 9.71226,-2.89191 20.51146,-12.123272 20.63447,-15.289194 0.0502,-1.292587 -2.38863,-1.995887 -2.79324,-3.565474 -0.34531,-1.339541 1.57259,-3.351234 1.15408,-4.489459 -1.25791,-3.421109 -14.33434,-6.216092 -24.91222,-5.023727"
         style="fill:none;stroke:#000000;stroke-width:1.63855672;stroke-linecap:butt;stroke-linejoin:miter;stroke-opacity:1;display:inline" />
      <path
         sodipodi:nodetypes="cc"
         inkscape:connector-curvature="0"
         id="path3776-6-6"
         d="m -240.46025,89.463087 c 0.37523,-5.00023 -0.64241,-13.999987 -3.82041,-18.222567"
         style="fill:none;stroke:#000000;stroke-width:1.63855672;stroke-linecap:butt;stroke-linejoin:miter;stroke-opacity:1;display:inline" />
      <path
         sodipodi:nodetypes="csc"
         inkscape:connector-curvature="0"
         id="path5099-1-8-2-5-3-6-5"
         d="m -274.26763,43.363275 c 17.37574,0.112652 22.41009,21.274093 15.4219,30.482822 -3.14328,4.142052 -13.43616,-9.940217 -20.15265,-11.85246"
         style="fill:#ffd5d5;stroke:#000000;stroke-width:1.63855672;stroke-linecap:butt;stroke-linejoin:miter;stroke-opacity:1;display:inline" />
    </g>
    <path
       style="fill:url(#linearGradient5079);fill-opacity:1;stroke:none;display:inline"
       d="m 237.14119,101.50832 c -299.8464,-22.442413 -294.530341,117.3205 -25.18693,175.068 z"
       id="path4195-9"
       inkscape:connector-curvature="0"
       sodipodi:nodetypes="ccc" />
    <path
       style="fill:url(#linearGradient5121);fill-opacity:1;stroke:none;display:inline"
       d="M 358.56446,151.7148 C 91.940044,124.11583 93.134452,248.79339 331.68274,307.07956 z"
       id="path4195-9-4"
       inkscape:connector-curvature="0"
       sodipodi:nodetypes="ccc" />
    <path
       style="fill:#fefefe;fill-opacity:1;stroke:#000000;stroke-width:2;stroke-linecap:butt;stroke-linejoin:miter;stroke-opacity:1"
       d="m -50.24384,282.27674 c -55.92019,-13.46582 18.978035,-8.2717 64.981636,2.38045 -42.184491,-13.79052 95.385044,13.55974 83.922831,16.20042 107.642853,20.73445 112.707553,30.20562 31.546923,13.92925 66.3439,18.88749 -54.08917,-4.46746 -91.635398,-9.24455 C 160.96448,340.49795 -198.45913,265.6297 -50.24384,282.27674 z"
       id="path5615"
       inkscape:connector-curvature="0"
       sodipodi:nodetypes="cccccc" />
    <path
       style="fill:#fefefe;fill-opacity:1;stroke:#000000;stroke-width:2;stroke-linecap:butt;stroke-linejoin:miter;stroke-opacity:1"
       d="m 407.27347,244.4818 c 99.41156,24.86685 1.35835,10.98255 -34.36518,1.33082 136.26054,36.6189 -137.72144,-15.2798 -47.09609,-6.87715 -40.69503,-10.16977 -65.44049,-17.92144 -20.37094,-12.35338 -87.93797,-25.3866 36.72984,3.72759 66.20879,8.48867 -82.02396,-30.11681 252.59574,44.97286 35.62342,9.41104 z"
       id="path5615-5-2"
       inkscape:connector-curvature="0"
       sodipodi:nodetypes="cccccc" />
  </g>
  <g
     inkscape:groupmode="layer"
     id="layer4"
     inkscape:label="吹き出し"
     sodipodi:insensitive="true">
    <g
       id="g5610">
      <path
         sodipodi:nodetypes="sscssss"
         inkscape:connector-curvature="0"
         id="path11956"
         d="m 348.55559,55.649681 c 0,23.488504 -69.05985,42.529697 -154.24951,42.529697 -13.49874,0 -43.4335,7.950862 -70.83394,15.087802 8.91375,-8.79799 11.00752,-18.292959 1.42504,-19.626492 -50.326931,-7.003682 -84.840588,-21.38604 -84.840588,-37.991007 0,-23.488505 69.059858,-42.529697 154.249488,-42.529697 85.18966,0 154.24951,19.041192 154.24951,42.529697 z"
         style="fill:#fefefe;fill-opacity:1;stroke:#000000;stroke-width:2" />
      <text
         sodipodi:linespacing="125%"
         id="text11959"
         y="68.77475"
         x="69.128593"
         style="font-size:39.18569183px;font-style:normal;font-weight:normal;line-height:125%;letter-spacing:0px;word-spacing:0px;writing-mode:lr-tb;fill:#000000;fill-opacity:1;stroke:none;font-family:Sans"
         xml:space="preserve"><tspan
           y="68.77475"
           x="69.128593"
           id="tspan11961"
           sodipodi:role="line">まだ間に合う!</tspan></text>
    </g>
  </g>
  <g
     inkscape:groupmode="layer"
     id="layer2"
     inkscape:label="枠面"
     sodipodi:insensitive="true">
    <path
       style="fill:#ffffff;stroke:none;display:inline"
       d="m 0,0 0,320 370,0 0,-320 -10,10 0,300 -350,0 0,-300 350,0 10,-10 z"
       id="path21072"
       inkscape:connector-curvature="0"
       sodipodi:nodetypes="ccccccccccc" />
  </g>
</svg>
