<?xml version="1.0" encoding="UTF-8" standalone="no"?>
<!-- Created with Inkscape (http://www.inkscape.org/) -->

<svg
   xmlns:dc="http://purl.org/dc/elements/1.1/"
   xmlns:cc="http://creativecommons.org/ns#"
   xmlns:rdf="http://www.w3.org/1999/02/22-rdf-syntax-ns#"
   xmlns:svg="http://www.w3.org/2000/svg"
   xmlns="http://www.w3.org/2000/svg"
   xmlns:sodipodi="http://sodipodi.sourceforge.net/DTD/sodipodi-0.dtd"
   xmlns:inkscape="http://www.inkscape.org/namespaces/inkscape"
   width="370"
   height="320"
   id="svg3172"
   version="1.1"
   inkscape:version="0.48.4 r9939"
   sodipodi:docname="[00.規格].svg"
   inkscape:export-filename="C:\Users\執安\Desktop\資料\臨時\svg\[30.聴取].png"
   inkscape:export-xdpi="90"
   inkscape:export-ydpi="90">
  <defs
     id="defs3174" />
  <sodipodi:namedview
     id="base"
     pagecolor="#ffffff"
     bordercolor="#666666"
     borderopacity="1.0"
     inkscape:pageopacity="0.0"
     inkscape:pageshadow="2"
     inkscape:zoom="0.7723731"
     inkscape:cx="303.91739"
     inkscape:cy="36.979069"
     inkscape:document-units="px"
     inkscape:current-layer="layer2"
     showgrid="false"
     inkscape:window-width="1069"
     inkscape:window-height="697"
     inkscape:window-x="171"
     inkscape:window-y="-4"
     inkscape:window-maximized="0" />
  <metadata
     id="metadata3177">
    <rdf:RDF>
      <cc:Work
         rdf:about="">
        <dc:format>image/svg+xml</dc:format>
        <dc:type
           rdf:resource="http://purl.org/dc/dcmitype/StillImage" />
        <dc:title></dc:title>
      </cc:Work>
    </rdf:RDF>
  </metadata>
  <g
     inkscape:label="補助線"
     inkscape:groupmode="layer"
     id="layer1"
     transform="translate(0,-732.36218)"
     sodipodi:insensitive="true"
     style="display:none">
    <path
       style="fill:none;stroke:#0000ff;stroke-width:1px;stroke-linecap:butt;stroke-linejoin:miter;stroke-opacity:1;display:inline"
       d="M 10,1042.3622 360,742.36211"
       id="path3025"
       inkscape:connector-curvature="0"
       sodipodi:nodetypes="cc" />
    <path
       style="fill:none;stroke:#0000ff;stroke-width:1px;stroke-linecap:butt;stroke-linejoin:miter;stroke-opacity:1;display:inline"
       d="M 10,742.36211 360,1042.3622"
       id="path3027"
       inkscape:connector-curvature="0"
       sodipodi:nodetypes="cc" />
    <path
       style="fill:none;stroke:#ff0000;stroke-width:1px;stroke-linecap:butt;stroke-linejoin:miter;stroke-opacity:1;display:inline"
       d="m 10,732.36211 0,320.00009"
       id="path3006"
       inkscape:connector-curvature="0"
       sodipodi:nodetypes="cc" />
    <path
       style="fill:none;stroke:#ff0000;stroke-width:1px;stroke-linecap:butt;stroke-linejoin:miter;stroke-opacity:1;display:inline"
       d="m 360,732.36211 0,320.00009"
       id="path3010"
       inkscape:connector-curvature="0"
       sodipodi:nodetypes="cc" />
    <path
       style="fill:none;stroke:#ff0000;stroke-width:1px;stroke-linecap:butt;stroke-linejoin:miter;stroke-opacity:1;display:inline"
       d="m 0,742.36208 370,3e-5"
       id="path3016"
       inkscape:connector-curvature="0" />
    <path
       style="fill:none;stroke:#ff0000;stroke-width:1px;stroke-linecap:butt;stroke-linejoin:miter;stroke-opacity:1;display:inline"
       d="m 0,1042.3622 370,0"
       id="path3018"
       inkscape:connector-curvature="0"
       sodipodi:nodetypes="cc" />
  </g>
  <g
     inkscape:groupmode="layer"
     id="layer3"
     inkscape:label="豚"
     sodipodi:insensitive="true">
    <path
       style="fill:#ff7f2a;stroke:none"
       d="m -43.943952,326.40849 0,-298.452662 L 457.74949,156.12568 447.679,357.53545 z"
       id="path8510"
       inkscape:connector-curvature="0" />
    <path
       style="fill:#333333;stroke:none"
       d="m -11.335062,341.81893 0,-208.84675 62.874405,0 0,66.27303 45.881323,0 0,-23.79032 124.049504,0 0,30.58755 79.86748,0 0,-69.67163 16.9931,0 0,57.77647 6.76672,-1.81314 0,-15.17994 25.52014,0 0,10.19585 49.27994,0 0,27.18893 30.58755,0 0,-44.18201 30.58753,30.58755 0,-30.58755 84.96542,0 4.47593,-16.70442 63.4964,0 0,188.16638 z"
       id="path8530"
       inkscape:connector-curvature="0"
       sodipodi:nodetypes="ccccccccccccccccccccccccccc" />
    <rect
       style="fill:#454837;stroke:#000000;stroke-width:2"
       id="rect7980"
       width="408.41217"
       height="58.806183"
       x="-18.740433"
       y="297.38223" />
    <path
       sodipodi:type="arc"
       style="fill:#000000;fill-opacity:1;stroke:none"
       id="path7982"
       sodipodi:cx="184.81944"
       sodipodi:cy="303.52133"
       sodipodi:rx="65.914627"
       sodipodi:ry="6.1391072"
       d="m 250.73407,303.52133 a 65.914627,6.1391072 0 1 1 -131.82925,0 65.914627,6.1391072 0 1 1 131.82925,0 z"
       transform="translate(4.8466636,-2.9079981)" />
    <g
       style="stroke-width:1.64392221;display:inline"
       id="g7644"
       transform="matrix(1.2166026,0,0,1.2166026,1106.4639,128.21787)">
      <path
         sodipodi:nodetypes="scccccsccsccscs"
         inkscape:connector-curvature="0"
         id="path3327-48-0"
         d="m -785.76268,-2.56454 c -13.8613,-16.92529 -48.58771,-23.46396 -67.38321,-4.67131 -9.4829,1.34483 -15.7197,17.36972 -13.5272,24.32273 -2.61924,4.92905 -2.50891,13.90147 -0.7465,18.15294 -12.3232,7.80462 -22.97319,36.467 -9.9969,40.66882 -2.5775,4.71625 -2.2031,16.38808 2.874,21.14739 -9.4361,1.91821 -15.84449,16.24623 0.046,19.42877 8.9534,1.79318 21.9001,2.65315 32.7286,0.21737 12.2076,1.66345 17.6284,1.35684 50.36489,12.23324 9.7293,3.97877 21.177,8.44359 28.38433,6.34674 12.13728,-3.53117 7.09435,-14.2291 -2.55423,-18.33072 8.87703,-7.48872 9.42053,-23.81688 7.7455,-34.9433 2.03925,-0.67749 3.18897,3.56435 4.89449,0.49941 3.83159,-6.88558 2.65645,-27.51646 -14.72678,-44.51235 0.69621,-10.7114 -4.78679,-24.30001 -18.10299,-40.55973 z"
         style="fill:#ffccaa;stroke:none;display:inline" />
      <path
         sodipodi:nodetypes="cssscc"
         inkscape:connector-curvature="0"
         id="path7563"
         d="m -876.77782,76.122954 c 6.99381,4.215151 41.10534,5.13447 43.45732,0.619175 1.60718,-3.085458 -4.05005,-4.912924 -3.24837,-6.812505 0.78974,-1.871271 4.86667,-0.502911 5.70431,-3.298433 0.48033,-1.603051 -3.29153,-3.644483 -4.96423,-4.71701 z"
         style="fill:#ff7f2a;stroke:none" />
      <path
         style="fill:#ff7f2a;stroke:none;display:inline"
         d="m -785.59158,-2.6345716 c -11.77889,-13.5413674 -28.28418,-15.1343044 -36.40731,-15.3436804 3.80623,1.785451 13.64933,1.021781 17.09852,6.081985 l 2.87315,23.568861 c 22.33251,26.480718 5.96819,36.170621 -3.04356,36.84076 30.70822,43.873715 -2.45604,73.862686 -36.52601,68.118786 12.2076,1.66345 17.6284,1.35684 50.36489,12.23324 9.7293,3.97877 21.177,8.44359 28.38433,6.34674 12.13728,-3.53117 7.09435,-14.2291 -2.55423,-18.33072 8.87703,-7.48872 9.42053,-23.816882 7.7455,-34.943302 2.03925,-0.67749 3.18897,3.56435 4.89449,0.49941 3.83159,-6.88558 2.65645,-27.51646 -14.72678,-44.51235 0.69621,-10.7114 -4.30979,-24.702642 -18.10299,-40.5597296 z"
         id="path3327-48-0-5"
         inkscape:connector-curvature="0"
         sodipodi:nodetypes="sccccccsccscs" />
      <path
         sodipodi:nodetypes="cssssc"
         inkscape:connector-curvature="0"
         id="path5089-8-7-0-6-5"
         d="m -861.83435,48.199011 c 7.2448,0.72625 26.2376,9.24412 25.3342,13.82247 -0.4044,2.04886 -3.6864,2.74184 -4.1574,5.2196 -0.5035,2.64812 2.5662,3.89739 1.0475,5.75971 -2.7791,3.40773 -33.6005,6.91725 -40.1751,1.86962 -8.96708,-6.88453 0.1115,-31.53997 12.4418,-39.34632"
         style="fill:#ffccaa;stroke:none;display:inline" />
      <path
         sodipodi:nodetypes="sssccs"
         inkscape:connector-curvature="0"
         id="path5089-8-7-0-6-2"
         d="m -836.17383,61.97381 c -0.64726,1.98555 -3.6864,2.74184 -4.1574,5.2196 -0.5035,2.64812 2.82976,4.14781 1.0475,5.75971 -2.46483,2.22922 -8.06607,2.91031 -10.7571,2.83937 -3.8316,-2.22388 -1.6976,-20.46728 4.9982,-21.47398 2.3297,0.41148 9.7722,4.884 8.8688,7.6553 z"
         style="fill:#ff9955;stroke:none;display:inline" />
      <path
         style="fill:#d45500;stroke:none;display:inline"
         d="m -758.78353,76.03471 c 2.6636,-0.5103 5.14154,-1.05287 7.93394,-0.37561 0.5365,2.20565 -0.79615,5.93393 -1.80053,7.11043 -2.02096,2.3673 -3.05635,-1.64301 -4.94245,-0.56565 -0.3859,-2.57026 -0.53628,-3.44173 -1.19096,-6.16917 z"
         id="path4097-3"
         inkscape:connector-curvature="0"
         sodipodi:nodetypes="ccscc" />
      <path
         sodipodi:nodetypes="cc"
         inkscape:connector-curvature="0"
         id="path5111-7-1-7-7-0"
         d="m -850.1176,75.83486 c -3.8653,-2.25082 -1.7313,-20.49422 4.9298,-21.50042"
         style="fill:none;stroke:#000000;stroke-width:1.64392221;stroke-linecap:butt;stroke-linejoin:miter;stroke-opacity:1;display:inline" />
      <path
         sodipodi:nodetypes="cc"
         inkscape:connector-curvature="0"
         id="path3331-2"
         d="m -874.2494,97.30081 c -5.0852,-4.75033 -5.4596,-16.42216 -2.8013,-21.14983"
         style="fill:none;stroke:#000000;stroke-width:1.64392221;stroke-linecap:butt;stroke-linejoin:miter;stroke-opacity:1;display:inline" />
      <path
         sodipodi:nodetypes="csccscccsccssc"
         inkscape:connector-curvature="0"
         id="path3327-48"
         d="m -857.9317,-0.1243 c 16.8107,-28.59489 58.5927,-19.11177 72.454,-2.18648 13.3162,16.25972 20.8666,32.04359 16.3745,46.37372 m 1.7285,-5.81399 c 17.38322,16.99589 18.55836,37.62677 14.72677,44.51235 -1.70552,3.06494 -2.85524,-1.1769 -4.89699,-0.51041 m -2.66667,-12.66667 c 4.18669,13.78671 5.84307,37.7752 -5.07671,47.62094 9.64858,4.10162 14.69151,14.79955 2.55423,18.33072 -7.20733,2.09685 -18.65503,-2.36797 -28.38433,-6.34674 -32.7365,-10.8764 -38.1573,-10.56979 -50.3649,-12.23324 -10.8285,2.43578 -23.7752,1.57581 -32.7286,-0.21737 -15.89048,-3.18254 -10.2043,-17.37167 -0.7766,-19.2809 9.1637,-1.85579 16.6323,0.24464 23.495,3.98252"
         style="fill:none;stroke:#000000;stroke-width:1.64392221;stroke-linecap:butt;stroke-linejoin:miter;stroke-opacity:1;display:inline" />
      <path
         sodipodi:nodetypes="cssssc"
         inkscape:connector-curvature="0"
         id="path5089-8-7-0-6"
         d="m -861.6185,48.16677 c 7.2448,0.72625 26.2376,9.24412 25.3342,13.82247 -0.4044,2.04886 -3.6864,2.74184 -4.1574,5.2196 -0.5035,2.64812 2.5662,3.89739 1.0475,5.75971 -2.7791,3.40773 -33.6005,6.91725 -40.1751,1.86962 -8.96708,-6.88453 0.1115,-31.53997 12.4418,-39.34632"
         style="fill:none;stroke:#000000;stroke-width:1.64392221;stroke-linecap:butt;stroke-linejoin:miter;stroke-opacity:1;display:inline" />
      <path
         sodipodi:nodetypes="cc"
         inkscape:connector-curvature="0"
         id="path5091-2-40-9-5"
         d="m -852.8456,-7.00654 c -9.4982,1.36928 -15.735,17.39417 -13.5347,24.37723"
         style="fill:none;stroke:#000000;stroke-width:1.64392221;stroke-linecap:butt;stroke-linejoin:miter;stroke-opacity:1;display:inline" />
      <path
         sodipodi:nodetypes="cc"
         inkscape:connector-curvature="0"
         id="path5093-4-9-4-0"
         d="m -861.7847,9.36614 c -9.2112,11.08737 -8.2319,26.09897 -0.1911,34.28054"
         style="fill:none;stroke:#000000;stroke-width:1.64392221;stroke-linecap:butt;stroke-linejoin:miter;stroke-opacity:1;display:inline" />
      <path
         sodipodi:nodetypes="cc"
         inkscape:connector-curvature="0"
         id="path5095-5-4-8-9"
         d="m -854.0768,4.45872 c 0.499,1.35349 1.4354,2.7837 1.5489,4.56525"
         style="fill:none;stroke:#000000;stroke-width:1.64392221;stroke-linecap:butt;stroke-linejoin:miter;stroke-opacity:1;display:inline" />
      <path
         sodipodi:nodetypes="cc"
         inkscape:connector-curvature="0"
         id="path5097-5-8-8-0"
         d="m -835.8027,2.49343 c -1.609,1.38809 -4.3337,4.65487 -5.5152,6.59991"
         style="fill:none;stroke:#000000;stroke-width:1.64392221;stroke-linecap:butt;stroke-linejoin:miter;stroke-opacity:1;display:inline" />
      <path
         sodipodi:nodetypes="csc"
         inkscape:connector-curvature="0"
         id="path5099-1-8-2-0-6"
         d="m -805.74234,-12.464623 c 27.6086,-1.79925 33.7332,34.71217 22.4667,37.83987 -5.0676,1.40683 -17.1928,-13.46669 -22.3145,-16.8991403"
         style="fill:#ffccaa;stroke:none;display:inline" />
      <path
         sodipodi:nodetypes="cscc"
         inkscape:connector-curvature="0"
         id="path5099-1-8-2-0-7"
         d="m -805.74234,-12.724924 c 27.6086,-1.79925 33.7332,34.712169 22.4667,37.839869 -5.0676,1.40683 -9.90435,-6.959147 -15.02605,-10.391597 21.14177,15.245904 20.77124,-25.17901 -7.44065,-27.448272 z"
         style="fill:#ff7f2a;stroke:none;display:inline" />
      <path
         sodipodi:nodetypes="csc"
         inkscape:connector-curvature="0"
         id="path5099-1-8-2-0"
         d="m -805.765,-12.70663 c 27.6086,-1.79925 33.7332,34.71217 22.4667,37.83987 -5.0676,1.40683 -17.1928,-13.46669 -22.3145,-16.89914"
         style="fill:none;stroke:#000000;stroke-width:1.64392221;stroke-linecap:butt;stroke-linejoin:miter;stroke-opacity:1;display:inline" />
      <path
         sodipodi:nodetypes="ssssss"
         inkscape:connector-curvature="0"
         id="path5101-7-2-4-6"
         d="m -830.364,21.39989 c 7.0363,7.986 2.0611,14.43503 -4.3904,13.53491 -7.5173,-1.04882 -13.2614,-0.89032 -17.9658,-0.16994 -6.6703,1.0214 -8.5151,-6.49642 -7.519,-13.16759 1.2042,-8.06437 5.4852,-11.49106 9.9347,-11.9857 4.4496,-0.49464 13.5985,4.59033 19.9405,11.78832 z"
         style="fill:#ff9955;stroke:#000000;stroke-width:1.64392221;stroke-linecap:butt;stroke-linejoin:miter;stroke-opacity:1;display:inline" />
      <path
         sodipodi:nodetypes="sss"
         inkscape:connector-curvature="0"
         id="path5105-1-4-55-13"
         d="m -840.539,29.05027 c -1.5063,1.45501 -6.4581,-10.81156 -4.9244,-11.62181 2.3922,-1.26378 8.5235,8.14513 4.9244,11.62181 z"
         style="fill:#000000;stroke:#000000;stroke-width:1.64392221;display:inline" />
      <path
         sodipodi:nodetypes="sss"
         inkscape:connector-curvature="0"
         id="path5107-1-5-1-8"
         d="m -853.1223,17.78876 c 1.5729,0.91347 1.6218,11.97217 -0.3608,11.25425 -2.8342,-1.02629 -1.4179,-12.28724 0.3608,-11.25425 z"
         style="fill:#000000;stroke:#000000;stroke-width:1.64392221;display:inline" />
      <path
         sodipodi:nodetypes="cc"
         inkscape:connector-curvature="0"
         id="path5173-7-5"
         d="m -758.81109,76.11996 c 2.6489,-0.62087 5.68762,-0.92934 8.00732,-0.41505"
         style="fill:none;stroke:#000000;stroke-width:1.64392221;stroke-linecap:butt;stroke-linejoin:miter;stroke-opacity:1;display:inline" />
    </g>
    <path
       sodipodi:type="arc"
       style="fill:#000000;fill-opacity:1;stroke:none"
       id="path7982-3"
       sodipodi:cx="184.81944"
       sodipodi:cy="303.52133"
       sodipodi:rx="65.914627"
       sodipodi:ry="6.1391072"
       d="m 250.73407,303.52133 a 65.914627,6.1391072 0 1 1 -131.82925,0 65.914627,6.1391072 0 1 1 131.82925,0 z"
       transform="translate(117.93547,-0.96932059)" />
    <g
       transform="matrix(1.2166026,0,0,1.2166026,1033.4678,128.21787)"
       style="stroke-width:1.64392221;display:inline"
       id="g7544">
      <path
         sodipodi:nodetypes="ccccsccsccscc"
         inkscape:connector-curvature="0"
         id="path5091-2-40-9-4-5"
         d="m -645.69346,59.448577 c -1.6141,3.15763 -2.3429,8.4405 -0.9905,12.65593 -9.2123,5.80028 -12.50323,19.92926 -10.4457,24.34301 -5.4004,8.135033 -4.4165,27.386273 5.8754,33.807923 -17.62313,-2.43289 -17.89273,13.66089 -6.2782,14.32426 6.09311,0.34801 19.7933,0.92838 25.7712,-0.0594 9.4398,1.28629 24.60323,0.9417 35.59844,0.15969 6.63944,1.13212 19.11607,1.61893 27.78232,2.05954 9.76186,0.49633 14.5722,-8.41391 3.22222,-13.058 14.00727,-12.62956 3.45918,-42.101693 -1.2175,-51.345683 4.20263,-7.67882 -3.96977,-24.33769 -14.36301,-36.83138 -11.73824,-14.11052 -39.73428,-19.434936 -52.15402,-5.96458 -8.1288,1.03166 -12.74395,8.11142 -12.80065,19.90869 z"
         style="fill:#ffccaa;stroke:none;display:inline" />
      <path
         sodipodi:nodetypes="ccccccccsccscc"
         inkscape:connector-curvature="0"
         id="path5091-2-40-9-4-5-2"
         d="m -595.05897,37.832313 2.78388,16.300154 c 7.96761,9.704805 10.53347,23.313182 2.43923,25.514367 16.20464,31.562186 -21.40573,16.269272 -36.56434,10.763949 4.64826,3.641126 -1.69535,7.03469 -18.05811,11.931467 8.4859,3.29299 22.92234,-1.09629 28.90024,-2.08407 26.44498,6.01488 35.42513,40.62692 -2.74763,44.51789 5.36394,0.88134 14.9087,0.93139 22.14869,-0.3676 6.63944,1.13212 19.11607,1.61893 27.78232,2.05954 9.76186,0.49633 14.5722,-8.41391 3.22222,-13.058 14.00727,-12.62956 3.45918,-42.101697 -1.2175,-51.345687 4.20263,-7.67882 -3.33113,-24.897839 -14.36301,-36.831375 -9.91613,-10.726595 -22.16391,-13.187686 -27.42536,-13.51333 1.50237,1.422113 9.9023,0.953123 13.09937,6.112695 z"
         style="fill:#ff7f2a;stroke:none;display:inline" />
      <path
         sodipodi:nodetypes="cc"
         inkscape:connector-curvature="0"
         id="path3331-4"
         d="m -651.27245,130.19574 c -10.29006,-6.42267 -11.27396,-25.67391 -5.87569,-33.812649"
         style="fill:none;stroke:#000000;stroke-width:1.64392221;stroke-linecap:butt;stroke-linejoin:miter;stroke-opacity:1;display:inline" />
      <path
         sodipodi:nodetypes="csccsccssc"
         inkscape:connector-curvature="0"
         id="path3327-0"
         d="m -638.4128,46.717028 c 14.36672,-24.777193 45.9194,-15.383799 57.65764,-1.273278 10.39324,12.493697 18.56564,29.15256 14.36301,36.831378 4.67668,9.243992 15.22477,38.716122 1.2175,51.345682 11.34998,4.64409 6.53964,13.55433 -3.22222,13.058 -8.66625,-0.44061 -21.14288,-0.92742 -27.78232,-2.05954 -10.99521,0.78201 -26.15865,1.1266 -35.59842,-0.15969 -5.97794,0.98778 -19.67829,0.411 -25.77119,0.0594 -8.43259,-0.48659 -11.51179,-9.59877 -3.07943,-13.44247 5.10706,-2.32796 16.27467,-0.8473 22.02469,2.73875"
         style="fill:none;stroke:#000000;stroke-width:1.64392221;stroke-linecap:butt;stroke-linejoin:miter;stroke-opacity:1;display:inline" />
      <path
         sodipodi:nodetypes="csc"
         inkscape:connector-curvature="0"
         id="path5089-8-7-0-9"
         d="m -615.53298,96.364152 c -9.80586,4.748588 -25.52107,8.036358 -36.68113,5.049808 -10.43477,-2.792464 -3.88601,-23.13239 5.64863,-29.168789"
         style="fill:none;stroke:#000000;stroke-width:1.64392221;stroke-linecap:butt;stroke-linejoin:miter;stroke-opacity:1;display:inline" />
      <path
         sodipodi:nodetypes="cc"
         inkscape:connector-curvature="0"
         id="path5091-2-40-9-4"
         d="m -632.55312,39.479581 c -6.72634,0.151969 -13.09996,8.111012 -13.15506,19.912639"
         style="fill:none;stroke:#000000;stroke-width:1.64392221;stroke-linecap:butt;stroke-linejoin:miter;stroke-opacity:1;display:inline" />
      <path
         inkscape:connector-curvature="0"
         id="path5093-4-9-4-8"
         d="m -642.9496,53.613959 c -5.36263,8.724502 -5.83774,18.610533 0.3799,24.937084"
         style="fill:none;stroke:#000000;stroke-width:1.64392221;stroke-linecap:butt;stroke-linejoin:miter;stroke-opacity:1;display:inline" />
      <path
         inkscape:connector-curvature="0"
         id="path5095-5-4-8-8"
         d="m -628.5419,46.329142 c 0.38587,1.046608 0.9399,2.156998 1.02767,3.534608"
         style="fill:none;stroke:#000000;stroke-width:1.64392221;stroke-linecap:butt;stroke-linejoin:miter;stroke-opacity:1;display:inline" />
      <path
         inkscape:connector-curvature="0"
         id="path5097-5-8-8-2"
         d="m -614.41106,44.809448 c -1.24426,1.07336 -3.01196,3.262015 -3.92559,4.766053"
         style="fill:none;stroke:#000000;stroke-width:1.64392221;stroke-linecap:butt;stroke-linejoin:miter;stroke-opacity:1;display:inline" />
      <path
         sodipodi:nodetypes="csc"
         inkscape:connector-curvature="0"
         id="path5099-1-8-2-5-7"
         d="m -595.14309,37.941802 c 26.16027,0.498906 26.03825,28.810178 17.32626,31.228738 -3.91864,1.08785 -12.26879,-13.792695 -16.04189,-17.290265"
         style="fill:#ffccaa;stroke:none;display:inline" />
      <path
         sodipodi:nodetypes="cscc"
         inkscape:connector-curvature="0"
         id="path5099-1-8-2-5-7-9"
         d="m -595.14309,37.9418 c 26.16027,0.498906 26.03825,28.810178 17.32626,31.228738 -3.91864,1.08785 -10.57683,-12.491186 -14.34993,-15.988756 11.97477,21.95401 28.52658,-6.484364 -2.97633,-15.239982 z"
         style="fill:#ff7f2a;stroke:none;display:inline" />
      <path
         sodipodi:nodetypes="csc"
         inkscape:connector-curvature="0"
         id="path5099-1-8-2-5"
         d="m -595.15132,37.896063 c 26.16027,0.498906 26.03825,28.810181 17.32626,31.228735 -3.91864,1.087858 -12.26879,-13.792692 -16.04189,-17.290262"
         style="fill:none;stroke:#000000;stroke-width:1.64392221;stroke-linecap:butt;stroke-linejoin:miter;stroke-opacity:1;display:inline" />
      <path
         sodipodi:nodetypes="ssssss"
         inkscape:connector-curvature="0"
         id="path5101-7-2-4-5"
         d="m -609.85151,59.043725 c 5.19593,6.382858 0.99468,12.17014 -3.99205,11.459128 -7.3925,-1.054032 -15.06627,-1.641999 -18.56142,-0.489675 -4.47762,1.476237 -6.06708,-4.426891 -4.02404,-9.819766 2.21244,-5.840027 7.32339,-9.436008 11.69372,-9.774023 4.52254,-0.349787 9.85827,2.450831 14.88379,8.624336 z"
         style="fill:#ff9955;stroke:#000000;stroke-width:1.64392221;stroke-linecap:butt;stroke-linejoin:miter;stroke-opacity:1;display:inline" />
      <path
         inkscape:connector-curvature="0"
         id="path5105-1-4-55-1"
         d="m -618.07354,65.345001 c -1.49881,0.450892 -4.50492,-8.380033 -3.35553,-8.647519 1.38443,-0.322183 5.56601,7.982538 3.35553,8.647519 z"
         style="fill:#000000;stroke:#000000;stroke-width:1.64392221;display:inline" />
      <path
         inkscape:connector-curvature="0"
         id="path5107-1-5-1-7"
         d="m -627.80381,57.03263 c 1.00807,-0.139818 0.15913,8.00048 -1.61561,8.242431 -1.80846,0.246549 0.58735,-8.099811 1.61561,-8.242431 z"
         style="fill:#000000;stroke:#000000;stroke-width:1.64392221;display:inline" />
      <path
         sodipodi:nodetypes="cc"
         inkscape:connector-curvature="0"
         id="path3452"
         d="m -636.74057,84.534169 c 16.65808,-4.811015 30.62551,-6.019457 45.24807,-4.732371"
         style="fill:none;stroke:#000000;stroke-width:1.64392221;stroke-linecap:butt;stroke-linejoin:miter;stroke-opacity:1" />
      <path
         sodipodi:nodetypes="cc"
         inkscape:connector-curvature="0"
         id="path3454"
         d="m -640.06491,82.404973 c 17.03431,11.462232 30.75725,17.14687 50.93326,24.983197"
         style="fill:none;stroke:#000000;stroke-width:1.64392221;stroke-linecap:butt;stroke-linejoin:miter;stroke-opacity:1" />
    </g>
    <g
       transform="matrix(1.2166026,0,0,1.2166026,1033.4678,128.21787)"
       style="stroke-width:1.64392221;display:inline"
       id="g7456">
      <path
         sodipodi:nodetypes="ssccsccscccccs"
         inkscape:connector-curvature="0"
         id="path3327-0-2-8-9"
         d="m -748.15469,125.6836 c -9.4533,4.08047 -5.5846,13.66582 3.5267,16.27751 4.3499,1.24689 21.3125,2.64184 25.1166,0.14266 10.5926,1.44338 24.7226,-1.51209 44.3352,-0.16415 1.7595,3.45241 15.6081,4.37708 24.6293,2.76117 10.79644,-1.93389 6.5629,-14.38916 -3.2161,-15.5415 15.71794,-14.17199 4.4819,-40.09378 -0.766,-50.46673 4.7159,-8.61663 -5.7164,-27.653163 -16.0027,-40.218473 -14.7211,-17.982559 -42.7791,-20.113017 -55.2174,-7.8947 -8.2416,1.26902 -14.4227,8.78284 -14.6628,21.11032 -2.7657,4.167363 -3.435,12.221153 -1.7537,17.178113 -4.3415,6.73221 -7.8387,16.36287 -7.871,25.28688 -3.3108,11.36287 -0.9648,24.97579 7.9655,30.271 -2.0886,0.0423 -4.1882,0.43977 -6.0836,1.2579 z"
         style="fill:#ffccaa;stroke:none;display:inline" />
      <path
         style="fill:#ff7f2a;stroke:none;display:inline"
         d="m -711.7535,141.94018 c 16.44014,1.38022 16.80797,-1.32803 36.42057,0.0199 1.7595,3.45241 15.6081,4.37708 24.6293,2.76117 10.79644,-1.93389 6.5629,-14.38916 -3.2161,-15.5415 15.71794,-14.17198 4.4819,-40.09377 -0.766,-50.46672 4.7159,-8.61663 -5.16192,-28.128288 -16.0027,-40.218473 -12.32831,-13.749154 -27.13391,-14.959306 -31.47352,-15.257144 8.50796,0.716837 11.71398,3.629129 14.78698,5.097004 l -2.72129,16.593848 c 20.03713,24.532912 9.90144,37.271092 -1.36522,35.442636 39.10122,20.454689 19.06303,63.799979 -20.29202,61.569279 z"
         id="path3327-0-2-8-9-1"
         inkscape:connector-curvature="0"
         sodipodi:nodetypes="ccsccsccccc" />
      <path
         sodipodi:nodetypes="cc"
         inkscape:connector-curvature="0"
         id="path3331-4-5-0"
         d="m -742.22989,124.42166 c -13.2207,-8.3611 -11.3396,-33.38674 0.3519,-48.24918"
         style="fill:none;stroke:#000000;stroke-width:1.64392221;stroke-linecap:butt;stroke-linejoin:miter;stroke-opacity:1;display:inline" />
      <path
         sodipodi:nodetypes="csccsccssc"
         inkscape:connector-curvature="0"
         id="path3327-0-2-8"
         d="m -734.13029,40.566549 c 14.1887,-25.96842 48.7164,-20.081683 63.4375,-2.09912 10.2863,12.565302 20.7186,31.601831 16.0027,40.218461 5.2479,10.37295 16.4839,36.29474 0.766,50.46673 9.779,1.15234 14.0125,13.60761 3.2161,15.5415 -9.0212,1.61591 -22.8698,0.69124 -24.6293,-2.76117 -19.6126,-1.34794 -33.7426,1.60753 -44.3352,0.16415 -3.8041,2.49918 -20.7667,1.10423 -25.1166,-0.14266 -9.1113,-2.61169 -12.9889,-11.96438 -3.5267,-16.27751 5.7307,-2.61228 15.8075,-0.41783 22.4016,4.57541"
         style="fill:none;stroke:#000000;stroke-width:1.64392221;stroke-linecap:butt;stroke-linejoin:miter;stroke-opacity:1;display:inline" />
      <path
         sodipodi:nodetypes="cc"
         inkscape:connector-curvature="0"
         id="path5091-2-40-9-4-6-7"
         d="m -725.90979,30.572633 c -8.242,1.269115 -14.3215,8.814186 -14.5937,21.145416"
         style="fill:none;stroke:#000000;stroke-width:1.64392221;stroke-linecap:butt;stroke-linejoin:miter;stroke-opacity:1;display:inline" />
      <path
         sodipodi:nodetypes="cc"
         inkscape:connector-curvature="0"
         id="path5093-4-9-4-8-1-7"
         d="m -737.48629,47.191019 c -7.1287,8.678911 -7.8281,21.975361 0.9075,29.426291"
         style="fill:none;stroke:#000000;stroke-width:1.64392221;stroke-linecap:butt;stroke-linejoin:miter;stroke-opacity:1;display:inline" />
      <path
         inkscape:connector-curvature="0"
         id="path5095-5-4-8-8-4-8"
         d="m -730.23549,44.254989 c 0.5131,1.14173 1.2193,4.20713 1.4243,5.7425"
         style="fill:none;stroke:#000000;stroke-width:1.64392221;stroke-linecap:butt;stroke-linejoin:miter;stroke-opacity:1;display:inline" />
      <path
         inkscape:connector-curvature="0"
         id="path5097-5-8-8-2-2-3"
         d="m -714.93759,42.569429 c -1.3098,1.29797 -3.7408,4.63111 -4.6471,6.38559"
         style="fill:none;stroke:#000000;stroke-width:1.64392221;stroke-linecap:butt;stroke-linejoin:miter;stroke-opacity:1;display:inline" />
      <path
         sodipodi:nodetypes="csc"
         inkscape:connector-curvature="0"
         id="path5099-1-8-2-5-3-8-8"
         d="m -687.6348,27.912654 c 29.3552,0.55983 27.0482,35.49052 16.6436,36.00457 -4.5579,0.22518 -15.713,-16.43485 -21.2714,-21.34144"
         style="fill:#ffccaa;stroke:none;display:inline" />
      <path
         sodipodi:nodetypes="cscc"
         inkscape:connector-curvature="0"
         id="path5099-1-8-2-5-3-8-8-9"
         d="m -687.50464,27.966564 c 29.3552,0.55983 27.0482,35.490523 16.6436,36.004573 -4.5579,0.22518 -7.24619,-7.231798 -12.80459,-12.138388 19.54106,17.543259 24.09269,-17.68463 -3.83901,-23.866185 z"
         style="fill:#ff7f2a;stroke:none;display:inline" />
      <path
         sodipodi:nodetypes="csc"
         inkscape:connector-curvature="0"
         id="path5099-1-8-2-5-3-8"
         d="m -687.62169,27.982161 c 29.3552,0.55983 27.0482,35.490529 16.6436,36.004579 -4.5579,0.22518 -15.713,-16.434859 -21.2714,-21.341449"
         style="fill:none;stroke:#000000;stroke-width:1.64392221;stroke-linecap:butt;stroke-linejoin:miter;stroke-opacity:1;display:inline" />
      <path
         sodipodi:nodetypes="ssssss"
         inkscape:connector-curvature="0"
         id="path5101-7-2-4-5-2-3"
         d="m -709.64279,58.56842 c 6.311,6.7428 3.217,13.00488 -2.4205,12.59524 -8.3572,-0.60727 -15.224,-0.44993 -19.2338,0.53799 -4.5464,1.12014 -7.0007,-5.16534 -5.1767,-10.88525 1.6903,-5.30043 5.5359,-9.404043 9.6068,-10.412181 3.7614,-0.93148 11.1201,1.64257 17.2242,8.164201 z"
         style="fill:#ff9955;stroke:#000000;stroke-width:1.64392221;stroke-linecap:butt;stroke-linejoin:miter;stroke-opacity:1;display:inline" />
      <path
         sodipodi:nodetypes="sss"
         inkscape:connector-curvature="0"
         id="path5105-1-4-55-1-2-7"
         d="m -717.19809,65.71737 c -1.6429,0.62086 -6.3589,-9.47651 -5.0929,-9.86499 1.5248,-0.46791 7.5159,8.94934 5.0929,9.86499 z"
         style="fill:#000000;stroke:#000000;stroke-width:1.64392221;display:inline" />
      <path
         inkscape:connector-curvature="0"
         id="path5107-1-5-1-7-1-1"
         d="m -728.73459,57.16583 c 1.1177,-0.23461 0.7979,8.94383 -1.1701,9.35217 -2.0053,0.41609 0.03,-9.11285 1.1701,-9.35217 z"
         style="fill:#000000;stroke:#000000;stroke-width:1.64392221;display:inline" />
      <path
         sodipodi:nodetypes="sssccs"
         inkscape:connector-curvature="0"
         id="path3774-0-4"
         d="m -747.04799,82.73122 c -0.3187,1.7469 0.6639,2.87643 0.6792,4.21257 0.015,1.34061 -1.6955,2.8474 -1.5901,4.50879 0.076,1.18931 3.8152,4.48196 7.5119,6.16687 -1.1863,-5.33225 -0.2666,-14.06419 1.5191,-18.13578 -3.3464,0.4562 -7.6811,0.84184 -8.1201,3.24755 z"
         style="fill:#ff9955;stroke:none;display:inline" />
      <path
         sodipodi:nodetypes="csssc"
         inkscape:connector-curvature="0"
         id="path3774-0"
         d="m -710.87819,77.21105 c -13.909,-0.23103 -34.7437,1.25227 -36.2139,5.34548 -0.6003,1.6712 0.6639,2.87643 0.6792,4.21257 0.015,1.34061 -1.7095,2.84835 -1.5901,4.50879 0.2317,3.22056 20.3113,14.8804 35.6331,19.65914"
         style="fill:none;stroke:#000000;stroke-width:1.64392221;stroke-linecap:butt;stroke-linejoin:miter;stroke-opacity:1;display:inline" />
      <path
         sodipodi:nodetypes="cc"
         inkscape:connector-curvature="0"
         id="path3776-7"
         d="m -738.97199,79.30925 c -1.7857,4.07132 -2.7054,12.80326 -1.5193,18.13542"
         style="fill:none;stroke:#000000;stroke-width:1.64392221;stroke-linecap:butt;stroke-linejoin:miter;stroke-opacity:1;display:inline" />
      <path
         sodipodi:nodetypes="cc"
         inkscape:connector-curvature="0"
         id="path3331-4-5-0-3"
         d="m -750.20339,94.14761 c 0.038,-8.92359 3.5352,-18.55425 7.8934,-25.30557"
         style="fill:none;stroke:#000000;stroke-width:1.64392221;stroke-linecap:butt;stroke-linejoin:miter;stroke-opacity:1;display:inline" />
    </g>
    <g
       transform="matrix(1.2166026,0,0,1.2166026,1033.4678,128.21787)"
       style="stroke-width:1.64392221;display:inline"
       id="g7698">
      <path
         sodipodi:nodetypes="cccccc"
         inkscape:connector-curvature="0"
         id="rect7667-4"
         d="m -844.61853,112.91999 59.41387,-2.94498 29.81788,2.94498 0,28.70218 -89.23175,0 z"
         style="fill:#918a6f;fill-opacity:1;stroke:none;display:inline" />
      <path
         inkscape:connector-curvature="0"
         id="path7676"
         d="m -755.38677,112.91431 0,28.34541 -30.00196,0 0,-31.47445 z"
         style="fill:#6c6753;stroke:none" />
      <path
         sodipodi:nodetypes="cccccc"
         inkscape:connector-curvature="0"
         id="rect7667"
         d="m -844.52922,112.87282 59.41387,-2.94498 29.81788,2.94498 0,28.70218 -89.23175,0 z"
         style="fill:none;stroke:#000000;stroke-width:1.64392221" />
      <path
         inkscape:connector-curvature="0"
         id="path7670"
         d="m -785.29941,109.92784 0,31.83122"
         style="fill:none;stroke:#000000;stroke-width:1.64392221;stroke-linecap:butt;stroke-linejoin:miter;stroke-opacity:1"
         sodipodi:nodetypes="cc" />
    </g>
  </g>
  <g
     inkscape:groupmode="layer"
     id="layer4"
     inkscape:label="字幕"
     sodipodi:insensitive="true">
    <text
       xml:space="preserve"
       style="font-size:51.13505936px;font-style:normal;font-weight:normal;line-height:125%;letter-spacing:0px;word-spacing:0px;writing-mode:lr-tb;fill:#000000;fill-opacity:1;stroke:none;display:inline;font-family:Sans;-inkscape-font-specification:HGSHeiseiMinchotaiW9"
       x="255.74747"
       y="288.57181"
       id="text11601"
       sodipodi:linespacing="125%"
       transform="scale(0.97956356,1.0208628)"><tspan
         sodipodi:role="line"
         id="tspan11603"
         x="255.74747"
         y="288.57181"
         style="font-style:normal;font-variant:normal;font-weight:normal;font-stretch:normal;font-family:HGSHeiseiMinchotaiW9;-inkscape-font-specification:HGSHeiseiMinchotaiW9">続く</tspan></text>
  </g>
  <g
     inkscape:groupmode="layer"
     id="layer2"
     inkscape:label="枠面"
     sodipodi:insensitive="true">
    <path
       style="fill:#ffffff;stroke:none;display:inline"
       d="m 0,0 0,320 370,0 0,-320 -10,10 0,300 -350,0 0,-300 350,0 10,-10 z"
       id="path21072"
       inkscape:connector-curvature="0"
       sodipodi:nodetypes="ccccccccccc" />
  </g>
</svg>
