<?xml version="1.0" encoding="UTF-8" standalone="no"?>
<!-- Created with Inkscape (http://www.inkscape.org/) -->

<svg
   xmlns:dc="http://purl.org/dc/elements/1.1/"
   xmlns:cc="http://creativecommons.org/ns#"
   xmlns:rdf="http://www.w3.org/1999/02/22-rdf-syntax-ns#"
   xmlns:svg="http://www.w3.org/2000/svg"
   xmlns="http://www.w3.org/2000/svg"
   xmlns:xlink="http://www.w3.org/1999/xlink"
   xmlns:sodipodi="http://sodipodi.sourceforge.net/DTD/sodipodi-0.dtd"
   xmlns:inkscape="http://www.inkscape.org/namespaces/inkscape"
   width="240"
   height="240"
   id="svg2"
   version="1.1"
   inkscape:version="0.48.4 r9939"
   sodipodi:docname="[00.メイン].svg"
   inkscape:export-filename="C:\Users\執安\Desktop\資料\臨時\描画3.png"
   inkscape:export-xdpi="90"
   inkscape:export-ydpi="90"
   style="enable-background:new">
  <defs
     id="defs4">
    <inkscape:perspective
       sodipodi:type="inkscape:persp3d"
       inkscape:vp_x="363.49708 : 943.81603 : 1"
       inkscape:vp_y="0 : 1000 : 0"
       inkscape:vp_z="744.09448 : 526.18109 : 1"
       inkscape:persp3d-origin="372.04724 : 350.78739 : 1"
       id="perspective5056" />
    <inkscape:perspective
       id="perspective5056-8"
       inkscape:persp3d-origin="372.04724 : 350.78739 : 1"
       inkscape:vp_z="744.09448 : 526.18109 : 1"
       inkscape:vp_y="0 : 1000 : 0"
       inkscape:vp_x="363.49708 : 943.81603 : 1"
       sodipodi:type="inkscape:persp3d" />
    <linearGradient
       id="linearGradient12499-5-3"
       inkscape:collect="always">
      <stop
         id="stop12501-0-8"
         offset="0"
         style="stop-color:#ffd5d5;stop-opacity:1;" />
      <stop
         id="stop12503-9-9"
         offset="1"
         style="stop-color:#ffd5d5;stop-opacity:0;" />
    </linearGradient>
    <linearGradient
       id="linearGradient12499-5"
       inkscape:collect="always">
      <stop
         id="stop12501-0"
         offset="0"
         style="stop-color:#ffd5d5;stop-opacity:1;" />
      <stop
         id="stop12503-9"
         offset="1"
         style="stop-color:#ffd5d5;stop-opacity:0;" />
    </linearGradient>
    <linearGradient
       id="linearGradient12499-8"
       inkscape:collect="always">
      <stop
         id="stop12501-6"
         offset="0"
         style="stop-color:#ffd5d5;stop-opacity:1;" />
      <stop
         id="stop12503-0"
         offset="1"
         style="stop-color:#ffd5d5;stop-opacity:0;" />
    </linearGradient>
    <linearGradient
       gradientTransform="translate(0,-7)"
       gradientUnits="userSpaceOnUse"
       y2="78.526123"
       x2="178.78178"
       y1="135.02612"
       x1="175.8602"
       id="linearGradient12505-2"
       xlink:href="#linearGradient12499-8"
       inkscape:collect="always" />
    <linearGradient
       id="linearGradient12499-9"
       inkscape:collect="always">
      <stop
         id="stop12501-8"
         offset="0"
         style="stop-color:#ffd5d5;stop-opacity:1;" />
      <stop
         id="stop12503-6"
         offset="1"
         style="stop-color:#ffd5d5;stop-opacity:0;" />
    </linearGradient>
    <linearGradient
       gradientTransform="translate(0,-7)"
       gradientUnits="userSpaceOnUse"
       y2="78.526123"
       x2="178.78178"
       y1="135.02612"
       x1="175.8602"
       id="linearGradient12505-1"
       xlink:href="#linearGradient12499-9"
       inkscape:collect="always" />
    <inkscape:perspective
       id="perspective5056-5"
       inkscape:persp3d-origin="372.04724 : 350.78739 : 1"
       inkscape:vp_z="744.09448 : 526.18109 : 1"
       inkscape:vp_y="0 : 1000 : 0"
       inkscape:vp_x="363.49708 : 943.81603 : 1"
       sodipodi:type="inkscape:persp3d" />
    <linearGradient
       id="linearGradient12499"
       inkscape:collect="always">
      <stop
         id="stop12501"
         offset="0"
         style="stop-color:#ffd5d5;stop-opacity:1;" />
      <stop
         id="stop12503"
         offset="1"
         style="stop-color:#ffd5d5;stop-opacity:0;" />
    </linearGradient>
    <linearGradient
       inkscape:collect="always"
       xlink:href="#linearGradient12499"
       id="linearGradient4842"
       gradientUnits="userSpaceOnUse"
       gradientTransform="matrix(0.98323667,-0.18233388,0.18233388,0.98323667,74.736688,42.602255)"
       x1="175.8602"
       y1="135.02612"
       x2="180.12286"
       y2="104.20104" />
    <linearGradient
       inkscape:collect="always"
       xlink:href="#linearGradient12499-5"
       id="linearGradient4848"
       gradientUnits="userSpaceOnUse"
       gradientTransform="matrix(0.99586062,-0.09089341,0.09089341,0.99586062,90.234074,51.049697)"
       x1="184.3886"
       y1="140.77484"
       x2="178.00351"
       y2="106.50191" />
    <linearGradient
       inkscape:collect="always"
       xlink:href="#linearGradient12499-5-3"
       id="linearGradient4854"
       gradientUnits="userSpaceOnUse"
       gradientTransform="matrix(0.99850313,0.05469451,-0.05469451,0.99850313,114.06992,56.176849)"
       x1="186.74098"
       y1="139.74136"
       x2="168.63582"
       y2="87.2258" />
    <inkscape:perspective
       sodipodi:type="inkscape:persp3d"
       inkscape:vp_x="363.49708 : 943.81603 : 1"
       inkscape:vp_y="0 : 1000 : 0"
       inkscape:vp_z="744.09448 : 526.18109 : 1"
       inkscape:persp3d-origin="372.04724 : 350.78739 : 1"
       id="perspective5056-4" />
    <inkscape:perspective
       sodipodi:type="inkscape:persp3d"
       inkscape:vp_x="363.49708 : 943.81603 : 1"
       inkscape:vp_y="0 : 1000 : 0"
       inkscape:vp_z="744.09448 : 526.18109 : 1"
       inkscape:persp3d-origin="372.04724 : 350.78739 : 1"
       id="perspective5056-8-7" />
    <inkscape:perspective
       id="perspective5056-85"
       inkscape:persp3d-origin="372.04724 : 350.78739 : 1"
       inkscape:vp_z="744.09448 : 526.18109 : 1"
       inkscape:vp_y="0 : 1000 : 0"
       inkscape:vp_x="363.49708 : 943.81603 : 1"
       sodipodi:type="inkscape:persp3d" />
    <inkscape:perspective
       id="perspective5056-7"
       inkscape:persp3d-origin="372.04724 : 350.78739 : 1"
       inkscape:vp_z="744.09448 : 526.18109 : 1"
       inkscape:vp_y="0 : 1000 : 0"
       inkscape:vp_x="363.49708 : 943.81603 : 1"
       sodipodi:type="inkscape:persp3d" />
  </defs>
  <sodipodi:namedview
     id="base"
     pagecolor="#ffffff"
     bordercolor="#666666"
     borderopacity="1.0"
     inkscape:pageopacity="0.0"
     inkscape:pageshadow="2"
     inkscape:zoom="0.7360045"
     inkscape:cx="71.835012"
     inkscape:cy="206.9479"
     inkscape:document-units="px"
     inkscape:current-layer="layer7"
     showgrid="false"
     inkscape:window-width="847"
     inkscape:window-height="694"
     inkscape:window-x="-3"
     inkscape:window-y="-2"
     inkscape:window-maximized="0"
     showguides="true"
     inkscape:guide-bbox="true"
     inkscape:snap-grids="false"
     inkscape:snap-to-guides="false"
     showborder="true"
     inkscape:showpageshadow="false"
     fit-margin-top="0"
     fit-margin-left="0"
     fit-margin-right="0"
     fit-margin-bottom="0"
     inkscape:snap-page="false" />
  <metadata
     id="metadata7">
    <rdf:RDF>
      <cc:Work
         rdf:about="">
        <dc:format>image/svg+xml</dc:format>
        <dc:type
           rdf:resource="http://purl.org/dc/dcmitype/StillImage" />
        <dc:title></dc:title>
      </cc:Work>
    </rdf:RDF>
  </metadata>
  <g
     inkscape:groupmode="layer"
     id="layer2"
     inkscape:label="補助線"
     style="display:none"
     sodipodi:insensitive="true"
     transform="translate(0,-80)">
    <path
       style="fill:none;stroke:#0000ff;stroke-width:1px;stroke-linecap:butt;stroke-linejoin:miter;stroke-opacity:1"
       d="M 10,310 360,10"
       id="path3025"
       inkscape:connector-curvature="0"
       sodipodi:nodetypes="cc" />
    <path
       style="fill:none;stroke:#0000ff;stroke-width:1px;stroke-linecap:butt;stroke-linejoin:miter;stroke-opacity:1"
       d="M 10,10 360,310"
       id="path3027"
       inkscape:connector-curvature="0"
       sodipodi:nodetypes="cc" />
    <path
       style="fill:none;stroke:#ff0000;stroke-width:1px;stroke-linecap:butt;stroke-linejoin:miter;stroke-opacity:1;display:inline"
       d="m 10,0 0,320"
       id="path3006"
       inkscape:connector-curvature="0"
       sodipodi:nodetypes="cc" />
    <path
       style="fill:none;stroke:#ff0000;stroke-width:1px;stroke-linecap:butt;stroke-linejoin:miter;stroke-opacity:1;display:inline"
       d="m 360,0 0,320"
       id="path3010"
       inkscape:connector-curvature="0"
       sodipodi:nodetypes="cc" />
    <path
       style="fill:none;stroke:#ff0000;stroke-width:1px;stroke-linecap:butt;stroke-linejoin:miter;stroke-opacity:1;display:inline"
       d="M 0,9.9999681 370,10"
       id="path3016"
       inkscape:connector-curvature="0" />
    <path
       transform="translate(84.715796,27.711696)"
       style="fill:none;stroke:#ff0000;stroke-width:1px;stroke-linecap:butt;stroke-linejoin:miter;stroke-opacity:1;display:inline"
       d="m -84.715796,282.2883 369.999996,0"
       id="path3018"
       inkscape:connector-curvature="0"
       sodipodi:nodetypes="cc" />
  </g>
  <g
     inkscape:groupmode="layer"
     id="layer11"
     inkscape:label="豚"
     style="display:inline"
     transform="translate(0,-80)"
     sodipodi:insensitive="true">
    <g
       transform="translate(84.515445,27.395609)"
       id="g14948"
       inkscape:label="豚: 胴 コピー"
       style="display:none">
      <path
         sodipodi:nodetypes="cc"
         inkscape:connector-curvature="0"
         id="path14950"
         d="M 150.55694,23.716359 C 123.35038,25.272295 95.800482,35.798632 87.900042,62.139197"
         style="fill:none;stroke:#ff00ff;stroke-width:1;stroke-linecap:butt;stroke-linejoin:miter;stroke-opacity:1" />
      <path
         sodipodi:nodetypes="csc"
         inkscape:connector-curvature="0"
         id="path14952"
         d="m 196.63142,19.530301 c -4.26442,-8.613263 -11.5177,-8.331854 -20.6783,-9.270949 -17.94988,-1.840116 -53.74553,10.83015 -48.29658,16.544665"
         style="fill:none;stroke:#ff00ff;stroke-width:1;stroke-linecap:butt;stroke-linejoin:miter;stroke-opacity:1" />
      <path
         sodipodi:nodetypes="cc"
         inkscape:connector-curvature="0"
         id="path14954"
         d="M 253.25219,69.424317 C 246.71215,48.133809 219.84902,18.525122 185.60875,19.280264"
         style="fill:none;stroke:#ff00ff;stroke-width:1;stroke-linecap:butt;stroke-linejoin:miter;stroke-opacity:1" />
      <path
         sodipodi:nodetypes="ssssss"
         inkscape:connector-curvature="0"
         id="path14956"
         d="m 146.64942,50.940285 c 12.14824,15.247899 13.34565,42.798087 4.99165,57.203455 -7.61515,13.13123 -17.93486,7.21498 -23.69297,-1.22784 -9.45141,-13.858097 -21.00229,-23.624253 -25.89374,-26.499838 -5.942372,-3.493403 -7.450146,-12.535395 -0.76984,-21.84806 7.9097,-11.026456 36.69949,-18.504139 45.3649,-7.627717 z"
         style="fill:none;stroke:#ff00ff;stroke-width:1;stroke-linecap:butt;stroke-linejoin:miter;stroke-opacity:1" />
      <path
         sodipodi:nodetypes="cc"
         inkscape:connector-curvature="0"
         id="path14958"
         d="m 162.17336,64.433513 c 7.21767,0.793715 21.36668,2.323244 29.31931,4.352568"
         style="fill:none;stroke:#ff00ff;stroke-width:1;stroke-linecap:butt;stroke-linejoin:miter;stroke-opacity:1" />
      <path
         sodipodi:nodetypes="cc"
         inkscape:connector-curvature="0"
         id="path14960"
         d="m 146.7778,46.055075 c 2.70816,-3.094739 6.97796,-8.883087 9.03191,-12.338706"
         style="fill:none;stroke:#ff00ff;stroke-width:1;stroke-linecap:butt;stroke-linejoin:miter;stroke-opacity:1" />
      <path
         sodipodi:nodetypes="cssc"
         inkscape:connector-curvature="0"
         id="path14962"
         d="m 248.09061,66.687672 c 23.00126,11.545226 34.75419,36.560788 18.98536,59.143278 -9.20375,13.18076 -26.96754,24.97159 -37.2496,22.87354 -9.93284,-2.0268 -6.08051,-25.03005 -7.14442,-47.71309"
         style="fill:none;stroke:#ff00ff;stroke-width:1;stroke-linecap:butt;stroke-linejoin:miter;stroke-opacity:1" />
      <path
         sodipodi:nodetypes="cc"
         inkscape:connector-curvature="0"
         id="path14964"
         d="m 259.16586,134.94061 c -0.99917,8.76826 -3.1018,17.89754 -7.23046,27.19148"
         style="fill:none;stroke:#ff00ff;stroke-width:1;stroke-linecap:butt;stroke-linejoin:miter;stroke-opacity:1" />
      <path
         sodipodi:nodetypes="cssssc"
         inkscape:connector-curvature="0"
         id="path14966"
         d="m 255.59238,152.23084 c 3.64083,21.08605 13.09662,72.36066 -1.62661,87.85212 -12.63269,13.29176 -103.08773,17.56602 -104.07146,8.94625 -0.53055,-4.64854 1.69444,-10.24348 0.16657,-12.74687 -2.25327,-3.69169 -4.47009,-3.68115 -5.37946,-7.44323 -1.31106,-5.42377 26.18906,-31.07048 44.02565,-39.47244"
         style="fill:none;stroke:#ff00ff;stroke-width:1;stroke-linecap:butt;stroke-linejoin:miter;stroke-opacity:1" />
      <path
         sodipodi:nodetypes="cc"
         inkscape:connector-curvature="0"
         id="path14968"
         d="M 42.640065,59.636737 C -26.901288,71.843119 -52.954948,117.0942 -42.899582,187.91356"
         style="fill:none;stroke:#ff00ff;stroke-width:1;stroke-linecap:butt;stroke-linejoin:miter;stroke-opacity:1" />
      <path
         sodipodi:nodetypes="csc"
         inkscape:connector-curvature="0"
         id="path14970"
         d="m -44.692831,166.31772 c -11.449095,19.28354 -22.822774,42.42575 -27.875773,65.58945 -4.017932,18.41903 2.4508,18.42654 10.736095,20.13654"
         style="fill:none;stroke:#ff00ff;stroke-width:1;stroke-linecap:butt;stroke-linejoin:miter;stroke-opacity:1" />
      <path
         sodipodi:nodetypes="ccc"
         inkscape:connector-curvature="0"
         id="path14972"
         d="m -35.665991,195.58262 c -31.574648,30.90257 -48.990879,56.85586 -14.157364,58.933 72.07442,3.2381 143.377338,4.15098 210.525965,-1.75329"
         style="fill:none;stroke:#ff00ff;stroke-width:1;stroke-linecap:butt;stroke-linejoin:miter;stroke-opacity:1" />
      <path
         sodipodi:nodetypes="sss"
         inkscape:connector-curvature="0"
         id="path14974"
         d="m 139.55484,69.296101 c -3.15203,-1.258604 -13.76681,23.282578 -9.81382,24.528066 6.51318,2.052155 13.43715,-23.081266 9.81382,-24.528066 z"
         style="fill:none;stroke:#ff00ff;stroke-width:1;stroke-linecap:butt;stroke-linejoin:miter;stroke-opacity:1" />
      <path
         sodipodi:nodetypes="sss"
         inkscape:connector-curvature="0"
         id="path14976"
         d="m 127.86678,59.245241 c -1.35298,-2.33282 -19.2732,11.342347 -15.59821,15.563611 1.95769,2.248687 17.25991,-12.698492 15.59821,-15.563611 z"
         style="fill:none;stroke:#ff00ff;stroke-width:1;stroke-linecap:butt;stroke-linejoin:miter;stroke-opacity:1" />
      <path
         sodipodi:nodetypes="csc"
         inkscape:connector-curvature="0"
         id="path14978"
         d="M 92.345894,50.093365 C 42.252639,45.004921 2.7505487,61.432937 3.4125427,65.433707 c 0.370973,2.241739 4.1030092,1.970785 5.6408215,3.882174"
         style="fill:none;stroke:#ff00ff;stroke-width:1;stroke-linecap:butt;stroke-linejoin:miter;stroke-opacity:1" />
      <path
         sodipodi:nodetypes="cc"
         inkscape:connector-curvature="0"
         id="path14980"
         d="m 154.30168,215.37489 c 9.99748,1.02365 16.39975,31.80751 9.94485,37.70655"
         style="fill:none;stroke:#ff00ff;stroke-width:1;stroke-linecap:butt;stroke-linejoin:miter;stroke-opacity:1" />
      <path
         sodipodi:nodetypes="cc"
         inkscape:connector-curvature="0"
         id="path14982"
         d="m 15.965945,58.338908 c 1.555767,1.468398 3.128302,4.838683 4.024061,6.768327"
         style="fill:none;stroke:#ff00ff;stroke-width:1;stroke-linecap:butt;stroke-linejoin:miter;stroke-opacity:1" />
    </g>
    <path
       sodipodi:nodetypes="cccscscscscscc"
       inkscape:connector-curvature="0"
       id="path5806-8"
       d="m 116.64669,147.76472 c -13.77267,-3.11081 -41.932175,2.94579 -47.2801,10.63856 -22.683521,9.42468 -34.828111,25.9627 -39.311732,49.67373 -8.955236,10.76093 -14.356283,19.95639 -17.420809,34.77926 -2.562429,12.39429 -0.79235,27.19888 7.832236,22.7943 -0.07324,5.15502 2.995173,11.22879 12.083448,12.3438 27.986253,3.43356 98.117097,2.1342 130.980987,-1.50167 14.23854,2.4107 44.04558,3.62908 55.73854,-9.10877 9.22713,-10.05166 5.60693,-37.52564 -0.41732,-48.1148 7.48756,-7.48202 7.2928,-23.75812 5.1293,-39.83589 -4.192,-31.15224 -22.72682,-50.45613 -42.11201,-52.45043 -4.0076,-3.4484 -10.05698,-4.7559 -18.17787,-4.19916 -18.29475,1.25424 -25.37509,7.50542 -25.90538,9.65534 0,0 -16.6468,4.93473 -21.13929,15.32573 z"
       style="fill:#ffd5d5;stroke:none;display:inline" />
    <path
       sodipodi:nodetypes="cc"
       inkscape:connector-curvature="0"
       id="path5802"
       d="m 149.50032,130.40669 c -17.36623,1.0521 -31.66208,9.29716 -36.18567,24.91654"
       style="fill:none;stroke:#000000;stroke-width:2;stroke-linecap:butt;stroke-linejoin:miter;stroke-opacity:1" />
    <path
       sodipodi:nodetypes="csc"
       inkscape:connector-curvature="0"
       id="path5804"
       d="m 181.87369,126.98141 c -5.54056,-3.98572 -11.25307,-4.26395 -18.09746,-4.17623 -11.519,0.14764 -24.22348,5.19665 -25.97636,9.59933"
       style="fill:none;stroke:#000000;stroke-width:2;stroke-linecap:butt;stroke-linejoin:miter;stroke-opacity:1" />
    <path
       sodipodi:nodetypes="csc"
       inkscape:connector-curvature="0"
       id="path5806"
       d="m 174.32578,126.48496 c 23.4189,-0.56132 45.33749,17.92904 49.62421,52.70111 3.24746,26.34205 0.28218,35.17841 -5.09926,40.06966"
       style="fill:none;stroke:#000000;stroke-width:2;stroke-linecap:butt;stroke-linejoin:miter;stroke-opacity:1" />
    <path
       sodipodi:nodetypes="ssssss"
       inkscape:connector-curvature="0"
       id="path5808"
       d="m 150.79804,148.04663 c 7.78877,9.70854 8.61272,27.29492 3.31036,36.50984 -4.83343,8.39986 -11.43464,4.64501 -15.12905,-0.73274 -6.06403,-8.82707 -13.45959,-15.03718 -16.58866,-16.86248 -3.80135,-2.21748 -4.78349,-7.98694 -0.53866,-13.94688 5.026,-7.05674 23.39024,-11.89291 28.94601,-4.96774 z"
       style="fill:#ffaaaa;stroke:#000000;stroke-width:2;stroke-linecap:butt;stroke-linejoin:miter;stroke-opacity:1" />
    <path
       sodipodi:nodetypes="cc"
       inkscape:connector-curvature="0"
       id="path5810"
       d="m 160.73819,156.62764 c 5.36095,0.18451 13.64622,1.43711 18.72783,2.71552"
       style="fill:none;stroke:#000000;stroke-width:2;stroke-linecap:butt;stroke-linejoin:miter;stroke-opacity:1" />
    <path
       sodipodi:nodetypes="cc"
       inkscape:connector-curvature="0"
       id="path5812"
       d="m 151.14696,144.59215 c 1.7223,-1.98163 4.15828,-5.35101 5.46213,-7.56163"
       style="fill:none;stroke:#000000;stroke-width:2;stroke-linecap:butt;stroke-linejoin:miter;stroke-opacity:1" />
    <path
       sodipodi:nodetypes="cssc"
       inkscape:connector-curvature="0"
       id="path5814"
       d="m 215.59128,156.62897 c 13.14859,8.57879 17.19551,29.18501 7.17692,43.63648 -5.84751,8.4349 -15.61794,14.66743 -22.18688,13.35017 -6.34583,-1.27253 -0.40526,-19.29951 -1.13347,-33.77884"
       style="fill:#ffd5d5;stroke:#000000;stroke-width:2;stroke-linecap:butt;stroke-linejoin:miter;stroke-opacity:1" />
    <path
       sodipodi:nodetypes="cssscc"
       inkscape:connector-curvature="0"
       id="path5836-7-6"
       d="m 188.22351,228.56253 c 1.12246,-2.13236 8.48733,-9.00003 13.47696,-8.42902 2.96771,0.33962 4.984,3.63391 7.41768,3.2797 2.73246,-0.39769 6.62309,-5.22812 9.03902,-4.70913 1.69627,0.36438 4.74657,9.14599 5.44244,13.58859 -3.17311,7.02372 -32.44534,8.8337 -35.3761,-3.73014 z"
       style="fill:#ffaaaa;stroke:none;display:inline" />
    <path
       sodipodi:nodetypes="cssssc"
       inkscape:connector-curvature="0"
       id="path5818"
       d="m 155.34992,274.47337 c 16.59939,5.72999 54.79012,5.1116 63.90997,-7.0898 11.79254,-15.77714 2.83793,-46.45662 -1.08732,-48.65682 -2.60565,-1.46053 -6.36234,4.35035 -9.01597,4.68581 -3.05156,0.38577 -4.47522,-2.59338 -7.46632,-3.2647 -5.67979,-1.27475 -15.80142,7.97751 -26.98753,29.35398"
       style="fill:none;stroke:#000000;stroke-width:2;stroke-linecap:butt;stroke-linejoin:miter;stroke-opacity:1" />
    <path
       sodipodi:nodetypes="cc"
       inkscape:connector-curvature="0"
       id="path5820"
       d="M 95.015142,154.15298 C 50.981041,153.68784 23.4993,188.51936 30.071897,233.71112"
       style="fill:none;stroke:#000000;stroke-width:2;stroke-linecap:butt;stroke-linejoin:miter;stroke-opacity:1" />
    <path
       sodipodi:nodetypes="csc"
       inkscape:connector-curvature="0"
       id="path5822"
       d="m 30.074279,208.06925 c -9.467173,10.51579 -14.275332,19.98138 -17.451284,34.78079 -2.525416,11.76801 -0.560505,27.67463 7.8649,22.79896"
       style="fill:none;stroke:#000000;stroke-width:2;stroke-linecap:butt;stroke-linejoin:miter;stroke-opacity:1" />
    <path
       sodipodi:nodetypes="csc"
       inkscape:connector-curvature="0"
       id="path5828"
       d="m 36.528054,236.75789 c -13.928384,4.78996 -26.527946,37.90856 -3.866248,41.25667 22.931696,3.38801 88.020984,2.38941 130.878194,-1.52507"
       style="fill:none;stroke:#000000;stroke-width:2;stroke-linecap:butt;stroke-linejoin:miter;stroke-opacity:1" />
    <path
       sodipodi:nodetypes="sss"
       inkscape:connector-curvature="0"
       id="path5830"
       d="m 146.30825,159.78092 c -2.01508,-0.79672 -8.73893,14.89411 -6.21251,15.68072 4.16266,1.29612 8.52889,-14.76486 6.21251,-15.68072 z"
       style="fill:#000000;stroke:#000000;stroke-width:2;stroke-linecap:butt;stroke-linejoin:miter;stroke-opacity:1" />
    <path
       sodipodi:nodetypes="sss"
       inkscape:connector-curvature="0"
       id="path5832"
       d="m 139.44429,152.90252 c -0.86882,-1.48643 -12.89997,7.76978 -10.54461,10.45684 1.2547,1.43143 11.61168,-8.63124 10.54461,-10.45684 z"
       style="fill:#000000;stroke:#000000;stroke-width:2;stroke-linecap:butt;stroke-linejoin:miter;stroke-opacity:1" />
    <path
       sodipodi:nodetypes="cc"
       inkscape:connector-curvature="0"
       id="path5834"
       d="m 116.63941,147.7598 c -23.494422,-3.35197 -41.508276,5.1597 -47.280989,10.65769"
       style="fill:none;stroke:#000000;stroke-width:2;stroke-linecap:butt;stroke-linejoin:miter;stroke-opacity:1" />
    <path
       sodipodi:nodetypes="cc"
       inkscape:connector-curvature="0"
       id="path5836"
       d="m 223.62724,232.26347 c -0.94969,7.34707 -33.26355,8.4486 -35.34864,-3.78286"
       style="fill:none;stroke:#000000;stroke-width:2;stroke-linecap:butt;stroke-linejoin:miter;stroke-opacity:1" />
  </g>
  <g
     inkscape:groupmode="layer"
     id="layer7"
     inkscape:label="枠面"
     style="display:inline"
     transform="translate(0,-80)"
     sodipodi:insensitive="true">
    <path
       style="fill:#ffffff;stroke:none;display:inline"
       d="m 0,80 0,240 240,0 0,-240 -10,10 0,220 -220,0 0,-220 220,0 10,-10 z"
       id="path21072"
       inkscape:connector-curvature="0"
       sodipodi:nodetypes="ccccccccccc" />
  </g>
</svg>
