<?xml version="1.0" encoding="UTF-8" standalone="no"?>
<!-- Created with Inkscape (http://www.inkscape.org/) -->

<svg
   xmlns:dc="http://purl.org/dc/elements/1.1/"
   xmlns:cc="http://creativecommons.org/ns#"
   xmlns:rdf="http://www.w3.org/1999/02/22-rdf-syntax-ns#"
   xmlns:svg="http://www.w3.org/2000/svg"
   xmlns="http://www.w3.org/2000/svg"
   xmlns:xlink="http://www.w3.org/1999/xlink"
   xmlns:sodipodi="http://sodipodi.sourceforge.net/DTD/sodipodi-0.dtd"
   xmlns:inkscape="http://www.inkscape.org/namespaces/inkscape"
   width="240"
   height="240"
   id="svg2"
   version="1.1"
   inkscape:version="0.48.4 r9939"
   sodipodi:docname="[00.メイン].svg"
   inkscape:export-filename="C:\Users\執安\Desktop\資料\臨時\TAKEDA\[00.メイン].png"
   inkscape:export-xdpi="90"
   inkscape:export-ydpi="90"
   style="enable-background:new">
  <defs
     id="defs4">
    <inkscape:perspective
       sodipodi:type="inkscape:persp3d"
       inkscape:vp_x="363.49708 : 943.81603 : 1"
       inkscape:vp_y="0 : 1000 : 0"
       inkscape:vp_z="744.09448 : 526.18109 : 1"
       inkscape:persp3d-origin="372.04724 : 350.78739 : 1"
       id="perspective5056" />
    <inkscape:perspective
       id="perspective5056-8"
       inkscape:persp3d-origin="372.04724 : 350.78739 : 1"
       inkscape:vp_z="744.09448 : 526.18109 : 1"
       inkscape:vp_y="0 : 1000 : 0"
       inkscape:vp_x="363.49708 : 943.81603 : 1"
       sodipodi:type="inkscape:persp3d" />
    <linearGradient
       id="linearGradient12499-5-3"
       inkscape:collect="always">
      <stop
         id="stop12501-0-8"
         offset="0"
         style="stop-color:#ffd5d5;stop-opacity:1;" />
      <stop
         id="stop12503-9-9"
         offset="1"
         style="stop-color:#ffd5d5;stop-opacity:0;" />
    </linearGradient>
    <linearGradient
       id="linearGradient12499-5"
       inkscape:collect="always">
      <stop
         id="stop12501-0"
         offset="0"
         style="stop-color:#ffd5d5;stop-opacity:1;" />
      <stop
         id="stop12503-9"
         offset="1"
         style="stop-color:#ffd5d5;stop-opacity:0;" />
    </linearGradient>
    <linearGradient
       id="linearGradient12499-8"
       inkscape:collect="always">
      <stop
         id="stop12501-6"
         offset="0"
         style="stop-color:#ffd5d5;stop-opacity:1;" />
      <stop
         id="stop12503-0"
         offset="1"
         style="stop-color:#ffd5d5;stop-opacity:0;" />
    </linearGradient>
    <linearGradient
       gradientTransform="translate(0,-7)"
       gradientUnits="userSpaceOnUse"
       y2="78.526123"
       x2="178.78178"
       y1="135.02612"
       x1="175.8602"
       id="linearGradient12505-2"
       xlink:href="#linearGradient12499-8"
       inkscape:collect="always" />
    <linearGradient
       id="linearGradient12499-9"
       inkscape:collect="always">
      <stop
         id="stop12501-8"
         offset="0"
         style="stop-color:#ffd5d5;stop-opacity:1;" />
      <stop
         id="stop12503-6"
         offset="1"
         style="stop-color:#ffd5d5;stop-opacity:0;" />
    </linearGradient>
    <linearGradient
       gradientTransform="translate(0,-7)"
       gradientUnits="userSpaceOnUse"
       y2="78.526123"
       x2="178.78178"
       y1="135.02612"
       x1="175.8602"
       id="linearGradient12505-1"
       xlink:href="#linearGradient12499-9"
       inkscape:collect="always" />
    <inkscape:perspective
       id="perspective5056-5"
       inkscape:persp3d-origin="372.04724 : 350.78739 : 1"
       inkscape:vp_z="744.09448 : 526.18109 : 1"
       inkscape:vp_y="0 : 1000 : 0"
       inkscape:vp_x="363.49708 : 943.81603 : 1"
       sodipodi:type="inkscape:persp3d" />
    <linearGradient
       id="linearGradient12499"
       inkscape:collect="always">
      <stop
         id="stop12501"
         offset="0"
         style="stop-color:#ffd5d5;stop-opacity:1;" />
      <stop
         id="stop12503"
         offset="1"
         style="stop-color:#ffd5d5;stop-opacity:0;" />
    </linearGradient>
    <linearGradient
       inkscape:collect="always"
       xlink:href="#linearGradient12499"
       id="linearGradient4842"
       gradientUnits="userSpaceOnUse"
       gradientTransform="matrix(0.98323667,-0.18233388,0.18233388,0.98323667,74.736688,42.602255)"
       x1="175.8602"
       y1="135.02612"
       x2="180.12286"
       y2="104.20104" />
    <linearGradient
       inkscape:collect="always"
       xlink:href="#linearGradient12499-5"
       id="linearGradient4848"
       gradientUnits="userSpaceOnUse"
       gradientTransform="matrix(0.99586062,-0.09089341,0.09089341,0.99586062,90.234074,51.049697)"
       x1="184.3886"
       y1="140.77484"
       x2="178.00351"
       y2="106.50191" />
    <linearGradient
       inkscape:collect="always"
       xlink:href="#linearGradient12499-5-3"
       id="linearGradient4854"
       gradientUnits="userSpaceOnUse"
       gradientTransform="matrix(0.99850313,0.05469451,-0.05469451,0.99850313,114.06992,56.176849)"
       x1="186.74098"
       y1="139.74136"
       x2="168.63582"
       y2="87.2258" />
    <inkscape:perspective
       sodipodi:type="inkscape:persp3d"
       inkscape:vp_x="363.49708 : 943.81603 : 1"
       inkscape:vp_y="0 : 1000 : 0"
       inkscape:vp_z="744.09448 : 526.18109 : 1"
       inkscape:persp3d-origin="372.04724 : 350.78739 : 1"
       id="perspective5056-4" />
    <inkscape:perspective
       sodipodi:type="inkscape:persp3d"
       inkscape:vp_x="363.49708 : 943.81603 : 1"
       inkscape:vp_y="0 : 1000 : 0"
       inkscape:vp_z="744.09448 : 526.18109 : 1"
       inkscape:persp3d-origin="372.04724 : 350.78739 : 1"
       id="perspective5056-8-7" />
    <inkscape:perspective
       id="perspective5056-85"
       inkscape:persp3d-origin="372.04724 : 350.78739 : 1"
       inkscape:vp_z="744.09448 : 526.18109 : 1"
       inkscape:vp_y="0 : 1000 : 0"
       inkscape:vp_x="363.49708 : 943.81603 : 1"
       sodipodi:type="inkscape:persp3d" />
    <inkscape:perspective
       id="perspective5056-7"
       inkscape:persp3d-origin="372.04724 : 350.78739 : 1"
       inkscape:vp_z="744.09448 : 526.18109 : 1"
       inkscape:vp_y="0 : 1000 : 0"
       inkscape:vp_x="363.49708 : 943.81603 : 1"
       sodipodi:type="inkscape:persp3d" />
  </defs>
  <sodipodi:namedview
     id="base"
     pagecolor="#ffffff"
     bordercolor="#666666"
     borderopacity="1.0"
     inkscape:pageopacity="0.0"
     inkscape:pageshadow="2"
     inkscape:zoom="2.3587317"
     inkscape:cx="112.48522"
     inkscape:cy="97.465649"
     inkscape:document-units="px"
     inkscape:current-layer="layer11"
     showgrid="false"
     inkscape:window-width="1164"
     inkscape:window-height="694"
     inkscape:window-x="-3"
     inkscape:window-y="-2"
     inkscape:window-maximized="0"
     showguides="true"
     inkscape:guide-bbox="true"
     inkscape:snap-grids="false"
     inkscape:snap-to-guides="false"
     showborder="true"
     inkscape:showpageshadow="false"
     fit-margin-top="0"
     fit-margin-left="0"
     fit-margin-right="0"
     fit-margin-bottom="0"
     inkscape:snap-page="false" />
  <metadata
     id="metadata7">
    <rdf:RDF>
      <cc:Work
         rdf:about="">
        <dc:format>image/svg+xml</dc:format>
        <dc:type
           rdf:resource="http://purl.org/dc/dcmitype/StillImage" />
        <dc:title></dc:title>
      </cc:Work>
    </rdf:RDF>
  </metadata>
  <g
     inkscape:groupmode="layer"
     id="layer2"
     inkscape:label="補助線"
     style="display:none"
     transform="translate(0,-80)"
     sodipodi:insensitive="true">
    <path
       style="fill:none;stroke:#0000ff;stroke-width:1px;stroke-linecap:butt;stroke-linejoin:miter;stroke-opacity:1"
       d="M 10,310 230,90"
       id="path3025"
       inkscape:connector-curvature="0"
       sodipodi:nodetypes="cc" />
    <path
       style="fill:none;stroke:#0000ff;stroke-width:1px;stroke-linecap:butt;stroke-linejoin:miter;stroke-opacity:1"
       d="M 10,90 230,310"
       id="path3027"
       inkscape:connector-curvature="0"
       sodipodi:nodetypes="cc" />
    <path
       style="fill:none;stroke:#ff0000;stroke-width:1px;stroke-linecap:butt;stroke-linejoin:miter;stroke-opacity:1;display:inline"
       d="m 10,80 0,240"
       id="path3006"
       inkscape:connector-curvature="0"
       sodipodi:nodetypes="cc" />
    <path
       style="fill:none;stroke:#ff0000;stroke-width:1px;stroke-linecap:butt;stroke-linejoin:miter;stroke-opacity:1;display:inline"
       d="m 230,80 0,240"
       id="path3010"
       inkscape:connector-curvature="0"
       sodipodi:nodetypes="cc" />
    <path
       style="fill:none;stroke:#ff0000;stroke-width:1px;stroke-linecap:butt;stroke-linejoin:miter;stroke-opacity:1;display:inline"
       d="m 0,90 240,0"
       id="path3016"
       inkscape:connector-curvature="0"
       sodipodi:nodetypes="cc" />
    <path
       transform="translate(84.715796,27.711696)"
       style="fill:none;stroke:#ff0000;stroke-width:1px;stroke-linecap:butt;stroke-linejoin:miter;stroke-opacity:1;display:inline"
       d="m -84.715796,282.2883 239.999996,0"
       id="path3018"
       inkscape:connector-curvature="0"
       sodipodi:nodetypes="cc" />
  </g>
  <g
     inkscape:groupmode="layer"
     id="layer11"
     inkscape:label="豚"
     style="display:inline"
     transform="translate(0,-80)"
     sodipodi:insensitive="true">
    <g
       transform="translate(84.515445,27.395609)"
       id="g14948"
       inkscape:label="豚: 胴 コピー"
       style="display:none">
      <path
         sodipodi:nodetypes="cc"
         inkscape:connector-curvature="0"
         id="path14950"
         d="M 150.55694,23.716359 C 123.35038,25.272295 95.800482,35.798632 87.900042,62.139197"
         style="fill:none;stroke:#ff00ff;stroke-width:1;stroke-linecap:butt;stroke-linejoin:miter;stroke-opacity:1" />
      <path
         sodipodi:nodetypes="csc"
         inkscape:connector-curvature="0"
         id="path14952"
         d="m 196.63142,19.530301 c -4.26442,-8.613263 -11.5177,-8.331854 -20.6783,-9.270949 -17.94988,-1.840116 -53.74553,10.83015 -48.29658,16.544665"
         style="fill:none;stroke:#ff00ff;stroke-width:1;stroke-linecap:butt;stroke-linejoin:miter;stroke-opacity:1" />
      <path
         sodipodi:nodetypes="cc"
         inkscape:connector-curvature="0"
         id="path14954"
         d="M 253.25219,69.424317 C 246.71215,48.133809 219.84902,18.525122 185.60875,19.280264"
         style="fill:none;stroke:#ff00ff;stroke-width:1;stroke-linecap:butt;stroke-linejoin:miter;stroke-opacity:1" />
      <path
         sodipodi:nodetypes="ssssss"
         inkscape:connector-curvature="0"
         id="path14956"
         d="m 146.64942,50.940285 c 12.14824,15.247899 13.34565,42.798087 4.99165,57.203455 -7.61515,13.13123 -17.93486,7.21498 -23.69297,-1.22784 -9.45141,-13.858097 -21.00229,-23.624253 -25.89374,-26.499838 -5.942372,-3.493403 -7.450146,-12.535395 -0.76984,-21.84806 7.9097,-11.026456 36.69949,-18.504139 45.3649,-7.627717 z"
         style="fill:none;stroke:#ff00ff;stroke-width:1;stroke-linecap:butt;stroke-linejoin:miter;stroke-opacity:1" />
      <path
         sodipodi:nodetypes="cc"
         inkscape:connector-curvature="0"
         id="path14958"
         d="m 162.17336,64.433513 c 7.21767,0.793715 21.36668,2.323244 29.31931,4.352568"
         style="fill:none;stroke:#ff00ff;stroke-width:1;stroke-linecap:butt;stroke-linejoin:miter;stroke-opacity:1" />
      <path
         sodipodi:nodetypes="cc"
         inkscape:connector-curvature="0"
         id="path14960"
         d="m 146.7778,46.055075 c 2.70816,-3.094739 6.97796,-8.883087 9.03191,-12.338706"
         style="fill:none;stroke:#ff00ff;stroke-width:1;stroke-linecap:butt;stroke-linejoin:miter;stroke-opacity:1" />
      <path
         sodipodi:nodetypes="cssc"
         inkscape:connector-curvature="0"
         id="path14962"
         d="m 248.09061,66.687672 c 23.00126,11.545226 34.75419,36.560788 18.98536,59.143278 -9.20375,13.18076 -26.96754,24.97159 -37.2496,22.87354 -9.93284,-2.0268 -6.08051,-25.03005 -7.14442,-47.71309"
         style="fill:none;stroke:#ff00ff;stroke-width:1;stroke-linecap:butt;stroke-linejoin:miter;stroke-opacity:1" />
      <path
         sodipodi:nodetypes="cc"
         inkscape:connector-curvature="0"
         id="path14964"
         d="m 259.16586,134.94061 c -0.99917,8.76826 -3.1018,17.89754 -7.23046,27.19148"
         style="fill:none;stroke:#ff00ff;stroke-width:1;stroke-linecap:butt;stroke-linejoin:miter;stroke-opacity:1" />
      <path
         sodipodi:nodetypes="cssssc"
         inkscape:connector-curvature="0"
         id="path14966"
         d="m 255.59238,152.23084 c 3.64083,21.08605 13.09662,72.36066 -1.62661,87.85212 -12.63269,13.29176 -103.08773,17.56602 -104.07146,8.94625 -0.53055,-4.64854 1.69444,-10.24348 0.16657,-12.74687 -2.25327,-3.69169 -4.47009,-3.68115 -5.37946,-7.44323 -1.31106,-5.42377 26.18906,-31.07048 44.02565,-39.47244"
         style="fill:none;stroke:#ff00ff;stroke-width:1;stroke-linecap:butt;stroke-linejoin:miter;stroke-opacity:1" />
      <path
         sodipodi:nodetypes="cc"
         inkscape:connector-curvature="0"
         id="path14968"
         d="M 42.640065,59.636737 C -26.901288,71.843119 -52.954948,117.0942 -42.899582,187.91356"
         style="fill:none;stroke:#ff00ff;stroke-width:1;stroke-linecap:butt;stroke-linejoin:miter;stroke-opacity:1" />
      <path
         sodipodi:nodetypes="csc"
         inkscape:connector-curvature="0"
         id="path14970"
         d="m -44.692831,166.31772 c -11.449095,19.28354 -22.822774,42.42575 -27.875773,65.58945 -4.017932,18.41903 2.4508,18.42654 10.736095,20.13654"
         style="fill:none;stroke:#ff00ff;stroke-width:1;stroke-linecap:butt;stroke-linejoin:miter;stroke-opacity:1" />
      <path
         sodipodi:nodetypes="ccc"
         inkscape:connector-curvature="0"
         id="path14972"
         d="m -35.665991,195.58262 c -31.574648,30.90257 -48.990879,56.85586 -14.157364,58.933 72.07442,3.2381 143.377338,4.15098 210.525965,-1.75329"
         style="fill:none;stroke:#ff00ff;stroke-width:1;stroke-linecap:butt;stroke-linejoin:miter;stroke-opacity:1" />
      <path
         sodipodi:nodetypes="sss"
         inkscape:connector-curvature="0"
         id="path14974"
         d="m 139.55484,69.296101 c -3.15203,-1.258604 -13.76681,23.282578 -9.81382,24.528066 6.51318,2.052155 13.43715,-23.081266 9.81382,-24.528066 z"
         style="fill:none;stroke:#ff00ff;stroke-width:1;stroke-linecap:butt;stroke-linejoin:miter;stroke-opacity:1" />
      <path
         sodipodi:nodetypes="sss"
         inkscape:connector-curvature="0"
         id="path14976"
         d="m 127.86678,59.245241 c -1.35298,-2.33282 -19.2732,11.342347 -15.59821,15.563611 1.95769,2.248687 17.25991,-12.698492 15.59821,-15.563611 z"
         style="fill:none;stroke:#ff00ff;stroke-width:1;stroke-linecap:butt;stroke-linejoin:miter;stroke-opacity:1" />
      <path
         sodipodi:nodetypes="csc"
         inkscape:connector-curvature="0"
         id="path14978"
         d="M 92.345894,50.093365 C 42.252639,45.004921 2.7505487,61.432937 3.4125427,65.433707 c 0.370973,2.241739 4.1030092,1.970785 5.6408215,3.882174"
         style="fill:none;stroke:#ff00ff;stroke-width:1;stroke-linecap:butt;stroke-linejoin:miter;stroke-opacity:1" />
      <path
         sodipodi:nodetypes="cc"
         inkscape:connector-curvature="0"
         id="path14980"
         d="m 154.30168,215.37489 c 9.99748,1.02365 16.39975,31.80751 9.94485,37.70655"
         style="fill:none;stroke:#ff00ff;stroke-width:1;stroke-linecap:butt;stroke-linejoin:miter;stroke-opacity:1" />
      <path
         sodipodi:nodetypes="cc"
         inkscape:connector-curvature="0"
         id="path14982"
         d="m 15.965945,58.338908 c 1.555767,1.468398 3.128302,4.838683 4.024061,6.768327"
         style="fill:none;stroke:#ff00ff;stroke-width:1;stroke-linecap:butt;stroke-linejoin:miter;stroke-opacity:1" />
    </g>
    <path
       sodipodi:nodetypes="ccccccccc"
       inkscape:connector-curvature="0"
       id="path5804-7"
       d="m 181.16048,123.07544 c -13.84989,-7.68828 -34.02227,-5.10848 -40.06562,6.82053 l -21.4845,15.15725 -38.765119,9.45611 -53.492668,68.21084 -8.622253,27.35724 151.64844,26.54848 47.86635,-53.61689 z"
       style="fill:#ffd5d5;stroke:#000000;stroke-width:2;stroke-linecap:butt;stroke-linejoin:miter;stroke-opacity:1;display:inline" />
    <path
       sodipodi:nodetypes="cc"
       inkscape:connector-curvature="0"
       id="path5834-4"
       d="M 126.43781,144.75713 C 99.024753,138.9006 80.774256,150.30278 71.996828,158.63985"
       style="fill:#ffd5d5;stroke:#000000;stroke-width:2;stroke-linecap:butt;stroke-linejoin:miter;stroke-opacity:1;display:inline" />
    <path
       style="fill:#ffd5d5;stroke:none;display:inline"
       d="m 156.05747,275.08371 c 16.70304,6.05187 55.34479,6.01453 64.758,-6.18745 12.17184,-15.77792 4.54297,-42.42899 -0.35052,-49.23607 -3.22221,-4.48226 -7.77042,2.87186 -8.95459,4.04606 -5.98667,1.81055 -7.77375,-2.91649 -10.72868,-3.85803 -3.87584,-1.23494 -13.11841,8.82203 -24.76306,30.27335"
       id="path7097-4"
       inkscape:connector-curvature="0"
       sodipodi:nodetypes="csscsc" />
    <path
       sodipodi:nodetypes="cc"
       inkscape:connector-curvature="0"
       id="path5802-4"
       d="m 151.55261,128.05547 c -18.47147,1.23397 -31.36614,9.83976 -36.89396,26.56628"
       style="fill:#ffd5d5;stroke:#000000;stroke-width:2;stroke-linecap:butt;stroke-linejoin:miter;stroke-opacity:1;display:inline" />
    <path
       sodipodi:nodetypes="csc"
       inkscape:connector-curvature="0"
       id="path5806-4"
       d="m 173.24644,122.95582 c 25.68017,-1.65011 49.8697,21.55686 53.67044,56.79692 2.87931,26.6966 -2.53277,38.43588 -9.47447,45.29327"
       style="fill:#ffd5d5;stroke:#000000;stroke-width:2;stroke-linecap:butt;stroke-linejoin:miter;stroke-opacity:1;display:inline" />
    <path
       sodipodi:nodetypes="ccscsc"
       inkscape:connector-curvature="0"
       id="path5836-1"
       d="m 189.49423,228.75746 c 1.92082,12.40496 35.21836,12.09459 36.2922,4.67721 0,0 -1.55858,-9.32115 -5.32345,-13.77447 -3.2973,-3.90027 -6.96183,2.48245 -8.95457,4.04606 -5.98667,1.81056 -7.863,-2.67232 -10.72868,-3.85803 -3.00476,-1.24326 -9.45805,5.96014 -11.2855,8.90923 z"
       style="fill:#ffaaaa;stroke:none;display:inline" />
    <path
       sodipodi:nodetypes="ssssss"
       inkscape:connector-curvature="0"
       id="path5808-4"
       d="m 152.82921,144.56528 c 6.16348,6.95261 6.659,20.21543 3.78147,30.57904 -3.16826,11.41064 -11.92583,16.52696 -17.14107,8.84508 -4.91046,-7.23296 -12.45078,-15.56256 -16.37895,-20.5859 -3.51191,-4.49105 2.48459,-12.63602 7.78084,-16.82149 6.09195,-4.81428 15.99941,-8.73792 21.95771,-2.01673 z"
       style="fill:#ffaaaa;stroke:#000000;stroke-width:2;stroke-linecap:butt;stroke-linejoin:miter;stroke-opacity:1;display:inline" />
    <path
       sodipodi:nodetypes="cc"
       inkscape:connector-curvature="0"
       id="path5810-4"
       d="m 162.37309,154.40045 14.07227,1.42612"
       style="fill:none;stroke:#000000;stroke-width:2;stroke-linecap:butt;stroke-linejoin:miter;stroke-opacity:1;display:inline" />
    <path
       sodipodi:nodetypes="cc"
       inkscape:connector-curvature="0"
       id="path5812-2"
       d="m 153.45966,139.46178 5.03841,-4.9486"
       style="fill:none;stroke:#000000;stroke-width:2;stroke-linecap:butt;stroke-linejoin:miter;stroke-opacity:1;display:inline" />
    <path
       sodipodi:nodetypes="csc"
       inkscape:connector-curvature="0"
       id="path5814-9"
       d="m 218.80895,156.80615 c 19.27687,23.23571 9.22924,58.19282 -16.06114,57.41427 -6.54464,-0.20148 -2.63058,-22.41362 -0.62635,-34.18681"
       style="fill:#ffd5d5;stroke:#000000;stroke-width:2;stroke-linecap:butt;stroke-linejoin:miter;stroke-opacity:1;display:inline" />
    <path
       style="fill:#ff8080;stroke:none;display:inline"
       d="m 211.50977,223.70641 c -5.98666,1.81055 -7.77374,-2.9165 -10.72838,-3.85778 -4.70412,5.55288 0.79787,7.73064 7.86063,5.65839 z"
       id="path5818-5"
       inkscape:connector-curvature="0"
       sodipodi:nodetypes="cccc" />
    <path
       style="fill:none;stroke:#000000;stroke-width:2;stroke-linecap:butt;stroke-linejoin:miter;stroke-opacity:1;display:inline"
       d="m 156.05622,275.08509 c 16.70304,6.05186 55.3448,6.01451 64.758,-6.18747 12.17183,-15.77794 4.52778,-42.41808 -0.35052,-49.23607 -3.34382,-4.67333 -7.35288,4.53534 -11.82236,5.84668 -7.06274,2.07224 -12.56474,-0.10549 -7.86032,-5.6581"
       id="path7097"
       inkscape:connector-curvature="0"
       sodipodi:nodetypes="csssc" />
    <path
       style="fill:none;stroke:#000000;stroke-width:2;stroke-linecap:butt;stroke-linejoin:miter;stroke-opacity:1;display:inline"
       d="m 211.50911,223.70761 c -5.98666,1.81055 -7.77375,-2.91649 -10.72868,-3.85802 -3.87584,-1.23496 -13.11842,8.82203 -24.76307,30.27334"
       id="path5818-3"
       inkscape:connector-curvature="0"
       sodipodi:nodetypes="csc" />
    <path
       sodipodi:nodetypes="cc"
       inkscape:connector-curvature="0"
       id="path5822-0"
       d="m 29.502713,215.37612 c -19.312472,21.50024 -25.8624143,56.43895 -7.45381,54.96656"
       style="fill:#ffd5d5;stroke:#000000;stroke-width:2;stroke-linecap:butt;stroke-linejoin:miter;stroke-opacity:1;display:inline" />
    <path
       sodipodi:nodetypes="csc"
       inkscape:connector-curvature="0"
       id="path5828-7"
       d="m 36.441588,235.10358 c -14.163175,4.63082 -27.4184648,37.93824 -4.54635,41.67408 23.144616,3.78034 100.353082,3.59505 140.784772,-0.65049"
       style="fill:#ffd5d5;stroke:#000000;stroke-width:2;stroke-linecap:butt;stroke-linejoin:miter;stroke-opacity:1;display:inline" />
    <path
       sodipodi:nodetypes="sss"
       inkscape:connector-curvature="0"
       id="path5830-7"
       d="m 149.95652,154.80045 c -1.53161,-1.56837 -10.80949,20.47708 -8.23286,19.75111 7.74787,-2.18297 10.56212,-17.36595 8.23286,-19.75111 z"
       style="fill:#000000;stroke:#000000;stroke-width:2;stroke-linecap:butt;stroke-linejoin:miter;stroke-opacity:1;display:inline" />
    <path
       sodipodi:nodetypes="sss"
       inkscape:connector-curvature="0"
       id="path5832-8"
       d="m 143.9731,148.5905 c -2.61697,-1.20528 -14.02272,6.80724 -13.2463,13.11952 0.23509,1.9113 14.98021,-12.32093 13.2463,-13.11952 z"
       style="fill:#000000;stroke:#000000;stroke-width:2;stroke-linecap:butt;stroke-linejoin:miter;stroke-opacity:1;display:inline" />
    <path
       sodipodi:nodetypes="cc"
       inkscape:connector-curvature="0"
       id="path5836-7"
       d="m 225.78714,233.43603 c -1.07384,7.41736 -34.37138,7.72776 -36.29221,-4.67722"
       style="fill:none;stroke:#000000;stroke-width:2;stroke-linecap:butt;stroke-linejoin:miter;stroke-opacity:1;display:inline" />
    <path
       sodipodi:nodetypes="cc"
       inkscape:connector-curvature="0"
       id="path5820-3"
       d="M 99.154079,153.58258 C 57.179697,153.2873 21.728907,190.09163 29.957712,231.92216"
       style="fill:#ffd5d5;stroke:#000000;stroke-width:2;stroke-linecap:butt;stroke-linejoin:miter;stroke-opacity:1;display:inline" />
  </g>
  <g
     inkscape:groupmode="layer"
     id="layer7"
     inkscape:label="枠面"
     style="display:inline"
     transform="translate(0,-80)"
     sodipodi:insensitive="true">
    <path
       style="fill:#ffffff;stroke:none;display:inline"
       d="m 0,80 0,240 240,0 0,-240 -10,10 0,220 -220,0 0,-220 220,0 10,-10 z"
       id="path21072"
       inkscape:connector-curvature="0"
       sodipodi:nodetypes="ccccccccccc" />
  </g>
</svg>
