<?xml version="1.0" encoding="UTF-8" standalone="no"?>
<!-- Created with Inkscape (http://www.inkscape.org/) -->

<svg
   xmlns:dc="http://purl.org/dc/elements/1.1/"
   xmlns:cc="http://creativecommons.org/ns#"
   xmlns:rdf="http://www.w3.org/1999/02/22-rdf-syntax-ns#"
   xmlns:svg="http://www.w3.org/2000/svg"
   xmlns="http://www.w3.org/2000/svg"
   xmlns:xlink="http://www.w3.org/1999/xlink"
   xmlns:sodipodi="http://sodipodi.sourceforge.net/DTD/sodipodi-0.dtd"
   xmlns:inkscape="http://www.inkscape.org/namespaces/inkscape"
   width="370"
   height="320"
   id="svg2"
   version="1.1"
   inkscape:version="0.48.4 r9939"
   sodipodi:docname="[01.行動]11.発熱.svg"
   inkscape:export-filename="C:\Users\執安\Desktop\資料\臨時\描画3.png"
   inkscape:export-xdpi="90"
   inkscape:export-ydpi="90"
   enable-background="new">
  <defs
     id="defs4">
    <inkscape:perspective
       sodipodi:type="inkscape:persp3d"
       inkscape:vp_x="363.49708 : 943.81603 : 1"
       inkscape:vp_y="0 : 1000 : 0"
       inkscape:vp_z="744.09448 : 526.18109 : 1"
       inkscape:persp3d-origin="372.04724 : 350.78739 : 1"
       id="perspective5056" />
    <inkscape:perspective
       id="perspective5056-8"
       inkscape:persp3d-origin="372.04724 : 350.78739 : 1"
       inkscape:vp_z="744.09448 : 526.18109 : 1"
       inkscape:vp_y="0 : 1000 : 0"
       inkscape:vp_x="363.49708 : 943.81603 : 1"
       sodipodi:type="inkscape:persp3d" />
    <linearGradient
       id="linearGradient12499-5-3"
       inkscape:collect="always">
      <stop
         id="stop12501-0-8"
         offset="0"
         style="stop-color:#ffd5d5;stop-opacity:1;" />
      <stop
         id="stop12503-9-9"
         offset="1"
         style="stop-color:#ffd5d5;stop-opacity:0;" />
    </linearGradient>
    <linearGradient
       id="linearGradient12499-5"
       inkscape:collect="always">
      <stop
         id="stop12501-0"
         offset="0"
         style="stop-color:#ffd5d5;stop-opacity:1;" />
      <stop
         id="stop12503-9"
         offset="1"
         style="stop-color:#ffd5d5;stop-opacity:0;" />
    </linearGradient>
    <linearGradient
       id="linearGradient12499-8"
       inkscape:collect="always">
      <stop
         id="stop12501-6"
         offset="0"
         style="stop-color:#ffd5d5;stop-opacity:1;" />
      <stop
         id="stop12503-0"
         offset="1"
         style="stop-color:#ffd5d5;stop-opacity:0;" />
    </linearGradient>
    <linearGradient
       gradientTransform="translate(0,-7)"
       gradientUnits="userSpaceOnUse"
       y2="78.526123"
       x2="178.78178"
       y1="135.02612"
       x1="175.8602"
       id="linearGradient12505-2"
       xlink:href="#linearGradient12499-8"
       inkscape:collect="always" />
    <linearGradient
       id="linearGradient12499-9"
       inkscape:collect="always">
      <stop
         id="stop12501-8"
         offset="0"
         style="stop-color:#ffd5d5;stop-opacity:1;" />
      <stop
         id="stop12503-6"
         offset="1"
         style="stop-color:#ffd5d5;stop-opacity:0;" />
    </linearGradient>
    <linearGradient
       gradientTransform="translate(0,-7)"
       gradientUnits="userSpaceOnUse"
       y2="78.526123"
       x2="178.78178"
       y1="135.02612"
       x1="175.8602"
       id="linearGradient12505-1"
       xlink:href="#linearGradient12499-9"
       inkscape:collect="always" />
    <inkscape:perspective
       id="perspective5056-5"
       inkscape:persp3d-origin="372.04724 : 350.78739 : 1"
       inkscape:vp_z="744.09448 : 526.18109 : 1"
       inkscape:vp_y="0 : 1000 : 0"
       inkscape:vp_x="363.49708 : 943.81603 : 1"
       sodipodi:type="inkscape:persp3d" />
    <linearGradient
       id="linearGradient12499"
       inkscape:collect="always">
      <stop
         id="stop12501"
         offset="0"
         style="stop-color:#ffd5d5;stop-opacity:1;" />
      <stop
         id="stop12503"
         offset="1"
         style="stop-color:#ffd5d5;stop-opacity:0;" />
    </linearGradient>
    <linearGradient
       inkscape:collect="always"
       xlink:href="#linearGradient12499"
       id="linearGradient4842"
       gradientUnits="userSpaceOnUse"
       gradientTransform="matrix(0.98323667,-0.18233388,0.18233388,0.98323667,74.736688,42.602255)"
       x1="175.8602"
       y1="135.02612"
       x2="180.12286"
       y2="104.20104" />
    <linearGradient
       inkscape:collect="always"
       xlink:href="#linearGradient12499-5"
       id="linearGradient4848"
       gradientUnits="userSpaceOnUse"
       gradientTransform="matrix(0.99586062,-0.09089341,0.09089341,0.99586062,90.234074,51.049697)"
       x1="184.3886"
       y1="140.77484"
       x2="178.00351"
       y2="106.50191" />
    <linearGradient
       inkscape:collect="always"
       xlink:href="#linearGradient12499-5-3"
       id="linearGradient4854"
       gradientUnits="userSpaceOnUse"
       gradientTransform="matrix(0.99850313,0.05469451,-0.05469451,0.99850313,114.06992,56.176849)"
       x1="186.74098"
       y1="139.74136"
       x2="168.63582"
       y2="87.2258" />
    <inkscape:perspective
       sodipodi:type="inkscape:persp3d"
       inkscape:vp_x="363.49708 : 943.81603 : 1"
       inkscape:vp_y="0 : 1000 : 0"
       inkscape:vp_z="744.09448 : 526.18109 : 1"
       inkscape:persp3d-origin="372.04724 : 350.78739 : 1"
       id="perspective5056-4" />
    <inkscape:perspective
       sodipodi:type="inkscape:persp3d"
       inkscape:vp_x="363.49708 : 943.81603 : 1"
       inkscape:vp_y="0 : 1000 : 0"
       inkscape:vp_z="744.09448 : 526.18109 : 1"
       inkscape:persp3d-origin="372.04724 : 350.78739 : 1"
       id="perspective5056-8-7" />
    <inkscape:perspective
       id="perspective5056-85"
       inkscape:persp3d-origin="372.04724 : 350.78739 : 1"
       inkscape:vp_z="744.09448 : 526.18109 : 1"
       inkscape:vp_y="0 : 1000 : 0"
       inkscape:vp_x="363.49708 : 943.81603 : 1"
       sodipodi:type="inkscape:persp3d" />
    <inkscape:perspective
       id="perspective5056-1"
       inkscape:persp3d-origin="372.04724 : 350.78739 : 1"
       inkscape:vp_z="744.09448 : 526.18109 : 1"
       inkscape:vp_y="0 : 1000 : 0"
       inkscape:vp_x="363.49708 : 943.81603 : 1"
       sodipodi:type="inkscape:persp3d" />
  </defs>
  <sodipodi:namedview
     id="base"
     pagecolor="#ffffff"
     bordercolor="#666666"
     borderopacity="1.0"
     inkscape:pageopacity="0.0"
     inkscape:pageshadow="2"
     inkscape:zoom="2.688477"
     inkscape:cx="161.20987"
     inkscape:cy="158.51484"
     inkscape:document-units="px"
     inkscape:current-layer="layer15"
     showgrid="false"
     inkscape:window-width="1139"
     inkscape:window-height="694"
     inkscape:window-x="-3"
     inkscape:window-y="-2"
     inkscape:window-maximized="0"
     showguides="true"
     inkscape:guide-bbox="true"
     inkscape:snap-grids="false"
     inkscape:snap-to-guides="false"
     showborder="true"
     inkscape:showpageshadow="false"
     fit-margin-top="0"
     fit-margin-left="0"
     fit-margin-right="0"
     fit-margin-bottom="0"
     inkscape:snap-page="false" />
  <metadata
     id="metadata7">
    <rdf:RDF>
      <cc:Work
         rdf:about="">
        <dc:format>image/svg+xml</dc:format>
        <dc:type
           rdf:resource="http://purl.org/dc/dcmitype/StillImage" />
        <dc:title />
      </cc:Work>
    </rdf:RDF>
  </metadata>
  <g
     inkscape:groupmode="layer"
     id="layer2"
     inkscape:label="補助線"
     style="display:none"
     sodipodi:insensitive="true">
    <path
       style="fill:none;stroke:#0000ff;stroke-width:1px;stroke-linecap:butt;stroke-linejoin:miter;stroke-opacity:1"
       d="M 10,310 360,10"
       id="path3025"
       inkscape:connector-curvature="0"
       sodipodi:nodetypes="cc" />
    <path
       style="fill:none;stroke:#0000ff;stroke-width:1px;stroke-linecap:butt;stroke-linejoin:miter;stroke-opacity:1"
       d="M 10,10 360,310"
       id="path3027"
       inkscape:connector-curvature="0"
       sodipodi:nodetypes="cc" />
    <path
       style="fill:none;stroke:#ff0000;stroke-width:1px;stroke-linecap:butt;stroke-linejoin:miter;stroke-opacity:1;display:inline"
       d="m 10,0 0,320"
       id="path3006"
       inkscape:connector-curvature="0"
       sodipodi:nodetypes="cc" />
    <path
       style="fill:none;stroke:#ff0000;stroke-width:1px;stroke-linecap:butt;stroke-linejoin:miter;stroke-opacity:1;display:inline"
       d="m 360,0 0,320"
       id="path3010"
       inkscape:connector-curvature="0"
       sodipodi:nodetypes="cc" />
    <path
       style="fill:none;stroke:#ff0000;stroke-width:1px;stroke-linecap:butt;stroke-linejoin:miter;stroke-opacity:1;display:inline"
       d="M 0,9.9999681 370,10"
       id="path3016"
       inkscape:connector-curvature="0" />
    <path
       transform="translate(84.715796,27.711696)"
       style="fill:none;stroke:#ff0000;stroke-width:1px;stroke-linecap:butt;stroke-linejoin:miter;stroke-opacity:1;display:inline"
       d="m -84.715796,282.2883 369.999996,0"
       id="path3018"
       inkscape:connector-curvature="0"
       sodipodi:nodetypes="cc" />
  </g>
  <g
     inkscape:groupmode="layer"
     id="layer15"
     inkscape:label="敷布団"
     sodipodi:insensitive="true">
    <path
       sodipodi:nodetypes="sssssssss"
       inkscape:connector-curvature="0"
       id="path11550"
       d="M 16.166464,141.51914 179.70537,293.47442 c 8.60016,7.99101 20.24876,10.82467 31.86634,4.39902 l 130.66881,-72.27243 c 5.83232,-3.22583 9.64039,-10.92369 0.91317,-18.05119 L 172.61537,68.271521 c -4.41922,-3.60916 -10.75349,-6.695356 -17.12384,-4.145301 L 18.906929,118.801 c -10.676496,4.2738 -10.423475,15.57933 -2.740465,22.71814 z"
       style="fill:#fefefe;fill-opacity:1;stroke:#000000;stroke-width:2;stroke-linecap:butt;stroke-linejoin:miter;stroke-opacity:1;display:inline" />
  </g>
  <g
     inkscape:groupmode="layer"
     id="layer14"
     inkscape:label="枕"
     sodipodi:insensitive="true">
    <path
       sodipodi:nodetypes="ssssccs"
       inkscape:connector-curvature="0"
       id="path11546"
       d="M 37.252744,106.28922 C 48.303744,93.402969 149.23185,54.05727 167.80888,55.869946 180.89441,57.146783 212.93492,75.532582 213.7336,90.860209 214.78396,111.01793 100.82622,157.89655 82.461102,156.85603 69.23293,156.10656 63.5781,147.79893 59.193263,149.90629 L 35.556029,128.87727 c 5.883722,-3.574 -5.790453,-13.85747 1.696715,-22.58805 z"
       style="fill:#800000;stroke:#000000;stroke-width:2;stroke-linecap:butt;stroke-linejoin:miter;stroke-opacity:1;display:inline" />
    <path
       sodipodi:nodetypes="ccscc"
       inkscape:connector-curvature="0"
       id="path5751-1-7"
       d="m 63.21304,146.32688 7.170601,6.39418 c -0.07645,0.5024 -0.24237,1.32233 -0.338487,2.02774 -0.315154,2.31293 -4.741087,1.53644 -5.271243,-2.6221 0.119267,-2.97328 -1.123181,-4.25748 -1.560871,-5.79982 z"
       style="fill:#666666;stroke:#000000;stroke-width:2;stroke-linecap:butt;stroke-linejoin:miter;stroke-opacity:1;display:inline" />
    <path
       sodipodi:nodetypes="ccsscccc"
       inkscape:connector-curvature="0"
       id="path5751-1-1"
       d="m 61.938152,149.43942 7.492807,6.47677 -0.220199,3.55302 c -0.03452,0.55742 -0.252756,1.04923 -0.725719,1.28057 l -2.837135,1.38771 -7.458078,-7.01165 3.640415,-0.51168 z"
       style="fill:#808080;stroke:#000000;stroke-width:2;stroke-linecap:butt;stroke-linejoin:miter;stroke-opacity:1;display:inline" />
    <path
       sodipodi:nodetypes="cc"
       inkscape:connector-curvature="0"
       id="path5823"
       d="m 68.729833,160.58428 -5.290595,-4.96856"
       style="fill:none;stroke:#000000;stroke-width:2;stroke-linecap:butt;stroke-linejoin:miter;stroke-opacity:1" />
    <path
       sodipodi:nodetypes="ccscssc"
       inkscape:connector-curvature="0"
       id="path5751-1"
       d="m 29.607855,125.05398 35.424745,32.51226 -0.130574,2.83626 c -0.04196,0.91143 0.441274,1.55877 0.919897,1.89935 L 30.498302,129.54291 c -0.447612,-0.41512 -0.733146,-1.06834 -0.767771,-1.8213 z"
       style="fill:#b3b3b3;stroke:#000000;stroke-width:2;stroke-linecap:butt;stroke-linejoin:miter;stroke-opacity:1;display:inline" />
    <path
       sodipodi:nodetypes="ccccc"
       inkscape:connector-curvature="0"
       id="path11546-5"
       d="m 58.851802,150.04092 c -6.438898,3.09455 0.29288,9.2908 -1.446712,14.97948 L 21.627895,129.81796 c 1.253107,-2.37552 10.036266,1.35059 13.586687,-0.80606 z"
       style="fill:#800000;stroke:#000000;stroke-width:2;stroke-linecap:butt;stroke-linejoin:miter;stroke-opacity:1;display:inline" />
    <path
       sodipodi:nodetypes="ccscssscssssc"
       inkscape:connector-curvature="0"
       id="path5782"
       d="m 33.845675,119.55267 36.711638,33.28429 c -0.337274,-0.37196 -0.791473,-0.49111 -1.414906,-0.20021 l -2.940091,1.37187 c -1.578772,0.5732 -1.159573,1.89313 -1.435597,3.17175 -0.744871,3.45045 -5.042851,0.29161 -5.219849,-2.28055 -0.203733,-2.96069 -1.52587,-4.86276 -2.6401,-5.91904 l -27.248692,-25.03916 -0.03195,-2.0585 c -0.0117,-0.75607 0.102367,-1.49229 0.832363,-1.69314 l 2.766301,-0.76114 c 0.188842,-0.052 0.425618,-0.0532 0.620901,0.12383 z"
       style="fill:#999999;stroke:#000000;stroke-width:2;stroke-linecap:butt;stroke-linejoin:miter;stroke-opacity:1" />
    <path
       sodipodi:nodetypes="cssc"
       inkscape:connector-curvature="0"
       id="path5786"
       d="m 33.673674,124.00066 30.056104,27.24204 c 1.516588,1.3746 4.152743,0.28355 2.679598,-1.05423 L 37.011655,123.49216"
       style="fill:#666666;stroke:#000000;stroke-width:2;stroke-linecap:butt;stroke-linejoin:miter;stroke-opacity:1" />
    <path
       sodipodi:nodetypes="sss"
       inkscape:connector-curvature="0"
       id="path5749-7"
       d="M 21.017535,132.17786 C 20.320612,118.87594 57.986169,151.12283 57.502474,164.21343 57.13101,174.26645 21.617737,143.63398 21.017535,132.17786 z"
       style="fill:#2b0000;stroke:#000000;stroke-width:2;stroke-linecap:butt;stroke-linejoin:miter;stroke-opacity:1;display:inline" />
    <path
       sodipodi:nodetypes="ssssssssss"
       inkscape:connector-curvature="0"
       id="path5784"
       d="m 28.797701,125.84941 c 0.602645,4.02114 3.272932,4.59166 4.584602,2.8405 1.282006,-1.71155 1.540945,-3.6905 2.933687,-2.21643 l 4.030546,4.26592 c 1.227499,1.29917 3.169653,1.81129 5.080561,2.08365 2.234305,0.31845 5.452031,-1.30994 3.619951,-2.13185 -1.782284,-0.79958 -4.632536,-2.15552 -5.862089,-3.45497 l -8.756322,-9.25413 c -1.89698,-2.00482 -5.179247,-1.0956 -5.637937,1.29786 -0.285364,1.48904 -0.356536,4.14374 0.0074,6.56945 z"
       style="fill:#cccccc;stroke:#000000;stroke-width:2;stroke-linecap:butt;stroke-linejoin:miter;stroke-opacity:1" />
  </g>
  <g
     inkscape:groupmode="layer"
     id="layer11"
     inkscape:label="豚: 胴"
     style="display:inline"
     sodipodi:insensitive="true">
    <g
       id="layer2-3"
       inkscape:label="補助線"
       style="display:none"
       transform="translate(-91.143771,-13.140163)">
      <path
         style="fill:none;stroke:#0000ff;stroke-width:1px;stroke-linecap:butt;stroke-linejoin:miter;stroke-opacity:1"
         d="M 10.003906,310 359.99609,10.003906"
         id="path3025-4"
         inkscape:connector-curvature="0" />
      <path
         style="fill:none;stroke:#0000ff;stroke-width:1px;stroke-linecap:butt;stroke-linejoin:miter;stroke-opacity:1"
         d="M 10.003906,10 359.99609,310.00391"
         id="path3027-1"
         inkscape:connector-curvature="0" />
      <path
         style="fill:none;stroke:#ff0000;stroke-width:1px;stroke-linecap:butt;stroke-linejoin:miter;stroke-opacity:1;display:inline"
         d="M 9.9974312,-0.00137819 10,320"
         id="path3006-1"
         inkscape:connector-curvature="0" />
      <path
         style="fill:none;stroke:#ff0000;stroke-width:1px;stroke-linecap:butt;stroke-linejoin:miter;stroke-opacity:1;display:inline"
         d="M 360.00391,0.00390625 359.99609,319.99609"
         id="path3010-3"
         inkscape:connector-curvature="0" />
      <path
         style="fill:none;stroke:#ff0000;stroke-width:1px;stroke-linecap:butt;stroke-linejoin:miter;stroke-opacity:1;display:inline"
         d="M 0,9.9999681 370,10"
         id="path3016-8"
         inkscape:connector-curvature="0" />
      <path
         transform="translate(84.715796,27.711696)"
         style="fill:none;stroke:#ff0000;stroke-width:1px;stroke-linecap:butt;stroke-linejoin:miter;stroke-opacity:1;display:inline"
         d="m -84.714876,282.29077 370.002826,-0.003"
         id="path3018-7"
         inkscape:connector-curvature="0"
         sodipodi:nodetypes="cc" />
    </g>
    <path
       sodipodi:nodetypes="ccscscccc"
       inkscape:connector-curvature="0"
       id="path5468-4-3"
       d="M 89.950529,201.93045 C 86.958082,191.81912 87.300507,177.7748 87.534847,170.8575 79.150342,165.04603 68.79894,140.54303 75.336571,108.30877 82.952347,70.758634 114.26292,60.583057 132.0569,59.862282 c 2.70033,-5.307193 21.9205,-2.80349 28.82704,-1.214509 10.59896,2.438495 26.6782,14.416686 27.01813,19.987924 4.71156,4.313953 8.86711,9.408554 10.33138,14.17767 7.60534,1.356225 25.90453,9.375733 33.24251,15.522593 z"
       style="fill:#ffaaaa;stroke:none;display:inline" />
    <path
       sodipodi:nodetypes="cc"
       inkscape:connector-curvature="0"
       id="path5456-0"
       d="m 168.62683,69.067832 c 22.92964,5.451722 35.87859,25.082372 31.13063,43.685968"
       style="fill:none;stroke:#000000;stroke-width:2;stroke-linecap:butt;stroke-linejoin:miter;stroke-opacity:1;display:inline" />
    <path
       sodipodi:nodetypes="csccc"
       inkscape:connector-curvature="0"
       id="path5458-9"
       d="m 142.32544,60.380534 c -21.18761,-3.355268 -60.297018,7.171056 -66.987833,47.926976 -5.536641,33.72547 3.75305,57.88344 12.137554,62.66436 m 0.128819,-5.61653 c -0.234339,6.9173 -0.486825,25.40414 2.321927,36.52229"
       style="fill:none;stroke:#000000;stroke-width:2;stroke-linecap:butt;stroke-linejoin:miter;stroke-opacity:1;display:inline" />
    <path
       sodipodi:nodetypes="ssssss"
       inkscape:connector-curvature="0"
       id="path5460-4"
       d="m 146.31364,90.446289 c -10.24873,5.988962 -14.20366,19.560911 -14.17765,30.716331 0.025,10.72539 9.88506,21.11448 18.22253,12.58417 11.29691,-11.55825 20.25,-13.79383 29.20569,-18.33879 6.46095,-3.27888 8.00513,-14.25554 -1.34053,-20.838954 -7.96441,-5.610419 -22.95739,-9.354336 -31.91004,-4.122757 z"
       style="fill:#ff8080;stroke:#000000;stroke-width:2;stroke-linecap:butt;stroke-linejoin:miter;stroke-opacity:1;display:inline" />
    <path
       sodipodi:nodetypes="cc"
       inkscape:connector-curvature="0"
       id="path5462-8"
       d="m 114.91972,91.249299 c 6.27675,1.430803 10.08896,6.366621 16.46865,7.019021"
       style="fill:none;stroke:#000000;stroke-width:2;stroke-linecap:butt;stroke-linejoin:miter;stroke-opacity:1;display:inline" />
    <path
       sodipodi:nodetypes="cc"
       inkscape:connector-curvature="0"
       id="path5464-8"
       d="m 150.19726,86.191043 c -0.66013,-3.053662 -7.49887,-11.183614 -7.55934,-12.836526"
       style="fill:none;stroke:#000000;stroke-width:2;stroke-linecap:butt;stroke-linejoin:miter;stroke-opacity:1;display:inline" />
    <path
       sodipodi:nodetypes="csc"
       inkscape:connector-curvature="0"
       id="path5468-4"
       d="m 132.06815,59.875957 c 7.98551,-5.196155 21.97751,-3.194692 28.79296,-1.2518 10.59896,3.021465 23.85283,11.67316 27.07117,20.025281"
       style="fill:none;stroke:#000000;stroke-width:2;stroke-linecap:butt;stroke-linejoin:miter;stroke-opacity:1;display:inline" />
    <path
       sodipodi:nodetypes="cssc"
       inkscape:connector-curvature="0"
       id="path5470-5"
       d="m 85.136099,90.486477 c -12.724127,7.629129 -17.197238,21.166913 -16.680738,30.563563 1.062959,19.33833 14.021264,35.15 21.02024,33.22844 9.196875,-2.52499 6.257663,-24.75245 10.268224,-35.15814"
       style="fill:#ffaaaa;stroke:#000000;stroke-width:2;stroke-linecap:butt;stroke-linejoin:miter;stroke-opacity:1;display:inline" />
    <path
       sodipodi:nodetypes="cc"
       inkscape:connector-curvature="0"
       id="path11475"
       d="m 115.05125,104.31968 c 11.92947,-11.061084 29.77202,-23.589192 40.5433,-28.396287"
       style="fill:none;stroke:#000000;stroke-width:2;stroke-linecap:butt;stroke-linejoin:miter;stroke-opacity:1" />
    <path
       sodipodi:nodetypes="cc"
       inkscape:connector-curvature="0"
       id="path11552"
       d="m 198.28395,92.823175 c 7.56622,1.065649 26.7568,9.395095 33.23168,15.575575"
       style="fill:none;stroke:#000000;stroke-width:2;stroke-linecap:butt;stroke-linejoin:miter;stroke-opacity:1" />
    <path
       sodipodi:nodetypes="sss"
       inkscape:connector-curvature="0"
       id="path5360-7"
       d="m 146.82343,102.19988 c 2.95269,-0.20508 7.42089,17.36963 2.57731,19.9582 -4.50355,2.40683 -6.1966,-19.70674 -2.57731,-19.9582 z"
       style="fill:#000000;stroke:#000000;stroke-width:2;stroke-linecap:butt;stroke-linejoin:miter;stroke-opacity:1;display:inline" />
    <path
       sodipodi:nodetypes="sss"
       inkscape:connector-curvature="0"
       id="path5362-4"
       d="m 156.76815,95.616392 c 1.84949,-1.52001 17.48232,10.406128 14.17796,13.776888 -3.41913,3.48784 -16.4807,-11.884296 -14.17796,-13.776888 z"
       style="fill:#000000;stroke:#000000;stroke-width:2;stroke-linecap:butt;stroke-linejoin:miter;stroke-opacity:1;display:inline" />
    <path
       sodipodi:nodetypes="cc"
       inkscape:connector-curvature="0"
       id="path3209"
       d="m 96.679161,27.822281 c -8.544839,13.604625 11.860079,16.142072 0.550276,32.909065"
       style="fill:none;stroke:#000000;stroke-width:2;stroke-linecap:butt;stroke-linejoin:miter;stroke-opacity:1" />
    <path
       sodipodi:nodetypes="cc"
       inkscape:connector-curvature="0"
       id="path3211"
       d="m 118.53215,24.183315 c -9.97741,12.65742 9.99437,15.207123 0.28846,29.486436"
       style="fill:none;stroke:#000000;stroke-width:2;stroke-linecap:butt;stroke-linejoin:miter;stroke-opacity:1" />
    <path
       sodipodi:nodetypes="cc"
       inkscape:connector-curvature="0"
       id="path3213"
       d="m 139.97102,21.559648 c -12.70669,11.791832 8.33299,14.116785 -0.0482,25.085913"
       style="fill:none;stroke:#000000;stroke-width:2;stroke-linecap:butt;stroke-linejoin:miter;stroke-opacity:1" />
  </g>
  <g
     inkscape:groupmode="layer"
     id="layer12"
     inkscape:label="掛け布団"
     style="display:inline"
     sodipodi:insensitive="true">
    <path
       sodipodi:nodetypes="ssssssssss"
       inkscape:connector-curvature="0"
       id="path10821-6"
       d="M 192.89591,308.10945 C 176.86149,303.3658 100.45458,239.99388 89.559667,229.55322 79.903432,220.29959 71.58452,207.46501 82.136582,195.63165 c 22.013778,-24.68683 57.387268,-56.82714 88.548468,-73.48563 16.20171,-8.66128 30.97266,-9.38635 45.45129,-13.9851 16.44845,-5.2244 27.73576,-3.37167 41.93671,4.16337 14.67467,7.78638 77.3969,58.90075 89.09192,73.93158 8.28415,10.64708 18.11628,30.21035 5.47003,37.99583 -11.317,6.96714 -96.07317,57.2222 -117.33169,73.09456 -12.96368,9.67913 -29.95012,14.44857 -42.4074,10.76319 z"
       style="fill:#fefefe;fill-opacity:1;stroke:#000000;stroke-width:2;stroke-linecap:butt;stroke-linejoin:miter;stroke-opacity:1;display:inline" />
    <path
       sodipodi:nodetypes="ccccc"
       inkscape:connector-curvature="0"
       id="path11548"
       d="m 105.85399,200.20761 c 18.55939,6.90596 70.17883,54.4472 102.04368,78.70558 33.9425,-29.2299 98.04955,-64.40586 129.75275,-77.26314 -16.56551,-31.54676 -61.31679,-65.40577 -95.01463,-82.53116 -35.64923,-2.14942 -105.77717,41.22895 -136.7818,81.08872 z"
       style="fill:#000080;stroke:#000000;stroke-width:2;stroke-linecap:butt;stroke-linejoin:miter;stroke-opacity:1;display:inline" />
  </g>
  <g
     inkscape:groupmode="layer"
     id="layer13"
     inkscape:label="豚: 手"
     style="display:inline"
     sodipodi:insensitive="true">
    <path
       sodipodi:nodetypes="csssc"
       inkscape:connector-curvature="0"
       id="path5478-1-5"
       d="m 124.72199,151.89704 c 5.13793,5.33703 4.78174,17.88027 2.04201,20.25261 -3.18005,2.7536 -7.24903,0.86849 -9.07468,2.84136 -2.55498,2.76101 -1.04198,5.28556 -2.22729,6.54196 -12.91716,13.6919 -43.846186,18.52433 -35.590298,-24.0953"
       style="fill:#ffaaaa;stroke:none;display:inline" />
    <path
       sodipodi:nodetypes="cssssc"
       inkscape:connector-curvature="0"
       id="path5474-1-1-8"
       d="m 199.72175,93.901113 c 15.41435,-4.009854 31.76963,-0.147584 36.51823,5.46456 6.36389,7.521177 4.70816,13.648797 0.95127,16.632837 -3.73363,2.96557 -7.91074,-1.64342 -11.49428,-1.75413 -2.1581,-0.0667 -4.40462,0.91029 -7.11412,3.47879 -1.33616,1.26662 -16.61303,1.70958 -15.79221,-7.15673"
       style="fill:#ffaaaa;stroke:none;display:inline" />
    <path
       sodipodi:nodetypes="ssscscs"
       inkscape:connector-curvature="0"
       id="path12418-4"
       d="m 236.11478,116.75172 c -2.91323,2.00972 -7.70061,-2.04555 -10.42925,-2.43784 -2.91755,-0.41946 -5.88383,2.50596 -6.88781,3.2078 -1.25682,0.87857 -4.40021,1.3721 -6.83156,0.97529 -8.87994,-5.82012 3.26133,-14.46602 12.64337,-15.04621 6.16614,-0.38131 13.6407,-0.21505 15.80639,5.01217 0.16438,3.51498 -1.7667,6.54039 -4.30114,8.28879 z"
       style="fill:#ff8080;stroke:none;display:inline" />
    <path
       sodipodi:nodetypes="sssss"
       inkscape:connector-curvature="0"
       id="path12418-4-2"
       d="m 235.98467,116.61181 c -2.77845,2.19229 -7.67378,-2.52014 -10.42925,-2.43784 -2.98111,0.0891 -5.6725,3.05431 -6.88781,3.2078 -5.46913,0.69073 -2.23805,-6.58309 7.33731,-7.07902 6.6573,-0.3448 13.28016,3.70493 9.97975,6.30906 z"
       style="fill:#ff2a2a;stroke:none;display:inline" />
    <path
       sodipodi:nodetypes="cssssc"
       inkscape:connector-curvature="0"
       id="path5474-1"
       d="m 199.59418,93.980107 c 15.41435,-4.009855 31.76963,-0.147585 36.51823,5.46456 6.36388,7.521173 4.70815,13.648803 0.95127,16.632843 -3.73363,2.96556 -7.91074,-1.64342 -11.49428,-1.75414 -2.1581,-0.0667 -4.40463,0.91029 -7.11413,3.47879 -1.33616,1.26663 -16.61302,1.70959 -15.79221,-7.15672"
       style="fill:none;stroke:#000000;stroke-width:2;stroke-linecap:butt;stroke-linejoin:miter;stroke-opacity:1;display:inline" />
    <path
       sodipodi:nodetypes="ssscscs"
       inkscape:connector-curvature="0"
       id="path12418-4-4"
       d="m 127.69644,170.69284 c -0.75945,3.45676 -7.73119,2.66386 -9.9941,4.23822 -2.41958,1.68335 -1.98645,7.01449 -3.1408,8.16758 -1.0849,1.08374 -6.03153,5.32705 -9.28781,6.18682 -10.082041,-0.16933 -9.257835,-16.48723 -2.79296,-23.31107 4.2489,-4.48481 20.76086,-15.27767 26.06896,-4.54223 0.33795,3.94141 -0.19258,6.2534 -0.85329,9.26068 z"
       style="fill:#ff8080;stroke:none;display:inline" />
    <path
       sodipodi:nodetypes="sssss"
       inkscape:connector-curvature="0"
       id="path12418-4-2-5"
       d="m 127.72145,170.73144 c -0.47628,4.01458 -8.09322,2.15203 -10.05202,4.09174 -2.1192,2.09856 -1.44378,7.59993 -3.10971,8.44004 -5.81241,2.93116 -7.69498,-6.86137 -0.82304,-13.54792 4.43611,-4.31644 14.8545,-6.31491 13.98477,1.01614 z"
       style="fill:#ff2a2a;stroke:none;display:inline" />
    <path
       sodipodi:nodetypes="csssc"
       inkscape:connector-curvature="0"
       id="path5478-1"
       d="m 124.70089,151.86307 c 5.13793,5.33703 4.78174,17.88027 2.04201,20.2526 -3.18005,2.75361 -7.1914,0.92343 -9.07468,2.84136 -1.7748,1.80745 -1.90517,2.99073 -2.22729,6.54197 -0.73922,8.14953 -47.26183,25.33309 -35.330224,-24.26868"
       style="fill:none;stroke:#000000;stroke-width:2;stroke-linecap:butt;stroke-linejoin:miter;stroke-opacity:1;display:inline" />
    <path
       sodipodi:nodetypes="csc"
       inkscape:connector-curvature="0"
       id="path12411"
       d="m 105.19867,189.21081 c -10.058066,-1.48237 -10.424274,-14.70353 -2.20941,-23.69483 7.8727,-8.61681 23.25985,-12.55635 25.56738,-3.86405"
       style="fill:none;stroke:#000000;stroke-width:2;stroke-linecap:butt;stroke-linejoin:miter;stroke-opacity:1;display:inline" />
    <path
       sodipodi:nodetypes="csc"
       inkscape:connector-curvature="0"
       id="path12414"
       d="m 114.70513,183.20105 c -6.757,2.79137 -7.09938,-7.91528 -0.90366,-13.50522 6.34199,-5.72191 14.92509,-5.76509 13.90019,0.95774"
       style="fill:none;stroke:#000000;stroke-width:2;stroke-linecap:butt;stroke-linejoin:miter;stroke-opacity:1" />
    <path
       sodipodi:nodetypes="csc"
       inkscape:connector-curvature="0"
       id="path12416"
       d="m 212.03677,118.36082 c -9.56913,-5.29027 2.98604,-14.3368 12.36808,-14.91698 6.16613,-0.38132 15.08553,-0.14174 15.94535,5.08157"
       style="fill:none;stroke:#000000;stroke-width:2;stroke-linecap:butt;stroke-linejoin:miter;stroke-opacity:1" />
    <path
       sodipodi:nodetypes="csc"
       inkscape:connector-curvature="0"
       id="path12418"
       d="m 218.66045,117.49228 c -5.16928,0.37173 -1.9671,-7.36638 7.62942,-7.18549 7.10884,0.134 12.65732,3.65839 9.68764,6.41553"
       style="fill:none;stroke:#000000;stroke-width:2;stroke-linecap:butt;stroke-linejoin:miter;stroke-opacity:1" />
  </g>
  <g
     inkscape:groupmode="layer"
     id="layer16"
     inkscape:label="吹き出し"
     sodipodi:insensitive="true">
    <path
       transform="translate(-10.358197,-5.067901)"
       d="m 343.64409,48.154739 a 63.876209,32.185688 0 1 1 -127.75242,0 63.876209,32.185688 0 1 1 127.75242,0 z"
       sodipodi:ry="32.185688"
       sodipodi:rx="63.876209"
       sodipodi:cy="48.154739"
       sodipodi:cx="279.76788"
       id="path7380"
       style="fill:#fefefe;fill-opacity:1;stroke:#000000;stroke-width:2;display:inline"
       sodipodi:type="arc" />
    <path
       transform="translate(-30.142913,-8.961854)"
       d="m 277.28178,78.607353 a 15.33979,6.5645728 0 1 1 -30.67958,0 15.33979,6.5645728 0 1 1 30.67958,0 z"
       sodipodi:ry="6.5645728"
       sodipodi:rx="15.33979"
       sodipodi:cy="78.607353"
       sodipodi:cx="261.94199"
       id="path7382"
       style="fill:#fefefe;fill-opacity:1;stroke:#000000;stroke-width:2;display:inline"
       sodipodi:type="arc" />
    <path
       transform="translate(-32.393013,-17.694593)"
       d="m 251.54353,97.176018 a 8.4177952,4.4564795 0 1 1 -16.83559,0 8.4177952,4.4564795 0 1 1 16.83559,0 z"
       sodipodi:ry="4.4564795"
       sodipodi:rx="8.4177952"
       sodipodi:cy="97.176018"
       sodipodi:cx="243.12573"
       id="path7384"
       style="fill:#fefefe;fill-opacity:1;stroke:#000000;stroke-width:2;display:inline"
       sodipodi:type="arc" />
    <path
       transform="matrix(0.95620738,0.07228567,-0.15661476,0.52930307,63.327379,5.522615)"
       d="m 218.48369,35.691101 c 2.10662,-0.03511 1.08666,2.822361 0.0583,3.501342 -2.78664,1.839997 -6.15233,-0.686268 -7.06104,-3.384635 -1.62546,-4.826745 2.21694,-9.561729 6.82763,-10.620733 6.76636,-1.554132 13.03157,3.753705 14.18043,10.270611 1.53124,8.686012 -5.29071,16.524734 -13.7136,17.740126 -10.59935,1.529446 -20.02946,-6.827356 -21.29982,-17.156589 -1.53858,-12.510084 8.36371,-23.540795 20.59957,-24.859517 14.41955,-1.5540686 27.05626,9.899865 28.41922,24.042565 1.57358,16.328308 -11.43589,30.574487 -27.48556,31.97891 -18.23665,1.595794 -34.09464,-12.971823 -35.5386,-30.928543 -1.61991,-20.144726 14.50769,-37.6162087 34.37153,-39.0983007 22.05262,-1.6454032 41.13883,16.0435277 42.65799,37.8145197 1.54043,22.075607 -14.78386,41.829847 -36.36932,45.628975"
       sodipodi:t0="0"
       sodipodi:argument="-18.86622"
       sodipodi:radius="45.282192"
       sodipodi:revolution="3.2327535"
       sodipodi:expansion="1"
       sodipodi:cy="35.691101"
       sodipodi:cx="218.48369"
       id="path7386"
       style="fill:none;stroke:#ff2a2a;stroke-width:2.78034139;stroke-linecap:butt;stroke-linejoin:miter;stroke-opacity:1;display:inline"
       sodipodi:type="spiral" />
  </g>
  <g
     inkscape:groupmode="layer"
     id="layer7"
     inkscape:label="枠面"
     style="display:inline"
     sodipodi:insensitive="true">
    <path
       style="fill:#ffffff;stroke:none;display:inline"
       d="m 0,0 0,320 370,0 0,-320 -10,10 0,300 -350,0 0,-300 350,0 10,-10 z"
       id="path21072"
       inkscape:connector-curvature="0"
       sodipodi:nodetypes="ccccccccccc" />
  </g>
</svg>
