<?xml version="1.0" encoding="UTF-8" standalone="no"?>
<!-- Created with Inkscape (http://www.inkscape.org/) -->

<svg
   xmlns:dc="http://purl.org/dc/elements/1.1/"
   xmlns:cc="http://creativecommons.org/ns#"
   xmlns:rdf="http://www.w3.org/1999/02/22-rdf-syntax-ns#"
   xmlns:svg="http://www.w3.org/2000/svg"
   xmlns="http://www.w3.org/2000/svg"
   xmlns:xlink="http://www.w3.org/1999/xlink"
   xmlns:sodipodi="http://sodipodi.sourceforge.net/DTD/sodipodi-0.dtd"
   xmlns:inkscape="http://www.inkscape.org/namespaces/inkscape"
   width="370"
   height="320"
   id="svg2"
   version="1.1"
   inkscape:version="0.48.4 r9939"
   sodipodi:docname="[01.行動]02.睡眠.svg"
   inkscape:export-filename="C:\Users\執安\Desktop\資料\臨時\TAKEDA\[01.行動]02.睡眠.png"
   inkscape:export-xdpi="90"
   inkscape:export-ydpi="90"
   enable-background="new">
  <sodipodi:namedview
     id="base"
     pagecolor="#ffffff"
     bordercolor="#666666"
     borderopacity="1.0"
     inkscape:pageopacity="0.0"
     inkscape:pageshadow="2"
     inkscape:zoom="2"
     inkscape:cx="154.18444"
     inkscape:cy="111.15837"
     inkscape:document-units="px"
     inkscape:current-layer="layer11"
     showgrid="false"
     inkscape:window-width="1139"
     inkscape:window-height="695"
     inkscape:window-x="-3"
     inkscape:window-y="-3"
     inkscape:window-maximized="0"
     showguides="true"
     inkscape:guide-bbox="true"
     inkscape:snap-grids="false"
     inkscape:snap-to-guides="false"
     showborder="true"
     inkscape:showpageshadow="false"
     fit-margin-top="0"
     fit-margin-left="0"
     fit-margin-right="0"
     fit-margin-bottom="0"
     inkscape:snap-page="false" />
  <defs
     id="defs4">
    <inkscape:perspective
       id="perspective5056"
       inkscape:persp3d-origin="372.04724 : 350.78739 : 1"
       inkscape:vp_z="744.09448 : 526.18109 : 1"
       inkscape:vp_y="0 : 1000 : 0"
       inkscape:vp_x="363.49708 : 943.81603 : 1"
       sodipodi:type="inkscape:persp3d" />
    <inkscape:perspective
       sodipodi:type="inkscape:persp3d"
       inkscape:vp_x="363.49708 : 943.81603 : 1"
       inkscape:vp_y="0 : 1000 : 0"
       inkscape:vp_z="744.09448 : 526.18109 : 1"
       inkscape:persp3d-origin="372.04724 : 350.78739 : 1"
       id="perspective5056-8" />
    <linearGradient
       inkscape:collect="always"
       id="linearGradient12499-5-3">
      <stop
         style="stop-color:#ffd5d5;stop-opacity:1;"
         offset="0"
         id="stop12501-0-8" />
      <stop
         style="stop-color:#ffd5d5;stop-opacity:0;"
         offset="1"
         id="stop12503-9-9" />
    </linearGradient>
    <linearGradient
       inkscape:collect="always"
       id="linearGradient12499-5">
      <stop
         style="stop-color:#ffd5d5;stop-opacity:1;"
         offset="0"
         id="stop12501-0" />
      <stop
         style="stop-color:#ffd5d5;stop-opacity:0;"
         offset="1"
         id="stop12503-9" />
    </linearGradient>
    <linearGradient
       inkscape:collect="always"
       id="linearGradient12499-8">
      <stop
         style="stop-color:#ffd5d5;stop-opacity:1;"
         offset="0"
         id="stop12501-6" />
      <stop
         style="stop-color:#ffd5d5;stop-opacity:0;"
         offset="1"
         id="stop12503-0" />
    </linearGradient>
    <linearGradient
       inkscape:collect="always"
       xlink:href="#linearGradient12499-8"
       id="linearGradient12505-2"
       x1="175.8602"
       y1="135.02612"
       x2="178.78178"
       y2="78.526123"
       gradientUnits="userSpaceOnUse"
       gradientTransform="translate(0,-7)" />
    <linearGradient
       inkscape:collect="always"
       id="linearGradient12499-9">
      <stop
         style="stop-color:#ffd5d5;stop-opacity:1;"
         offset="0"
         id="stop12501-8" />
      <stop
         style="stop-color:#ffd5d5;stop-opacity:0;"
         offset="1"
         id="stop12503-6" />
    </linearGradient>
    <linearGradient
       inkscape:collect="always"
       xlink:href="#linearGradient12499-9"
       id="linearGradient12505-1"
       x1="175.8602"
       y1="135.02612"
       x2="178.78178"
       y2="78.526123"
       gradientUnits="userSpaceOnUse"
       gradientTransform="translate(0,-7)" />
    <inkscape:perspective
       sodipodi:type="inkscape:persp3d"
       inkscape:vp_x="363.49708 : 943.81603 : 1"
       inkscape:vp_y="0 : 1000 : 0"
       inkscape:vp_z="744.09448 : 526.18109 : 1"
       inkscape:persp3d-origin="372.04724 : 350.78739 : 1"
       id="perspective5056-5" />
    <linearGradient
       inkscape:collect="always"
       id="linearGradient12499">
      <stop
         style="stop-color:#ffd5d5;stop-opacity:1;"
         offset="0"
         id="stop12501" />
      <stop
         style="stop-color:#ffd5d5;stop-opacity:0;"
         offset="1"
         id="stop12503" />
    </linearGradient>
    <linearGradient
       y2="104.20104"
       x2="180.12286"
       y1="135.02612"
       x1="175.8602"
       gradientTransform="matrix(0.98323667,-0.18233388,0.18233388,0.98323667,74.736688,42.602255)"
       gradientUnits="userSpaceOnUse"
       id="linearGradient4842"
       xlink:href="#linearGradient12499"
       inkscape:collect="always" />
    <linearGradient
       y2="106.50191"
       x2="178.00351"
       y1="140.77484"
       x1="184.3886"
       gradientTransform="matrix(0.99586062,-0.09089341,0.09089341,0.99586062,90.234074,51.049697)"
       gradientUnits="userSpaceOnUse"
       id="linearGradient4848"
       xlink:href="#linearGradient12499-5"
       inkscape:collect="always" />
    <linearGradient
       y2="87.2258"
       x2="168.63582"
       y1="139.74136"
       x1="186.74098"
       gradientTransform="matrix(0.99850313,0.05469451,-0.05469451,0.99850313,114.06992,56.176849)"
       gradientUnits="userSpaceOnUse"
       id="linearGradient4854"
       xlink:href="#linearGradient12499-5-3"
       inkscape:collect="always" />
    <inkscape:perspective
       id="perspective5056-4"
       inkscape:persp3d-origin="372.04724 : 350.78739 : 1"
       inkscape:vp_z="744.09448 : 526.18109 : 1"
       inkscape:vp_y="0 : 1000 : 0"
       inkscape:vp_x="363.49708 : 943.81603 : 1"
       sodipodi:type="inkscape:persp3d" />
    <inkscape:perspective
       id="perspective5056-8-7"
       inkscape:persp3d-origin="372.04724 : 350.78739 : 1"
       inkscape:vp_z="744.09448 : 526.18109 : 1"
       inkscape:vp_y="0 : 1000 : 0"
       inkscape:vp_x="363.49708 : 943.81603 : 1"
       sodipodi:type="inkscape:persp3d" />
    <inkscape:perspective
       sodipodi:type="inkscape:persp3d"
       inkscape:vp_x="363.49708 : 943.81603 : 1"
       inkscape:vp_y="0 : 1000 : 0"
       inkscape:vp_z="744.09448 : 526.18109 : 1"
       inkscape:persp3d-origin="372.04724 : 350.78739 : 1"
       id="perspective5056-85" />
    <inkscape:perspective
       sodipodi:type="inkscape:persp3d"
       inkscape:vp_x="363.49708 : 943.81603 : 1"
       inkscape:vp_y="0 : 1000 : 0"
       inkscape:vp_z="744.09448 : 526.18109 : 1"
       inkscape:persp3d-origin="372.04724 : 350.78739 : 1"
       id="perspective5056-1" />
  </defs>
  <metadata
     id="metadata7">
    <rdf:RDF>
      <cc:Work
         rdf:about="">
        <dc:format>image/svg+xml</dc:format>
        <dc:type
           rdf:resource="http://purl.org/dc/dcmitype/StillImage" />
        <dc:title></dc:title>
      </cc:Work>
    </rdf:RDF>
  </metadata>
  <g
     sodipodi:insensitive="true"
     style="display:none"
     inkscape:label="補助線"
     id="layer2"
     inkscape:groupmode="layer">
    <path
       sodipodi:nodetypes="cc"
       inkscape:connector-curvature="0"
       id="path3025"
       d="M 10,310 360,10"
       style="fill:none;stroke:#0000ff;stroke-width:1px;stroke-linecap:butt;stroke-linejoin:miter;stroke-opacity:1" />
    <path
       sodipodi:nodetypes="cc"
       inkscape:connector-curvature="0"
       id="path3027"
       d="M 10,10 360,310"
       style="fill:none;stroke:#0000ff;stroke-width:1px;stroke-linecap:butt;stroke-linejoin:miter;stroke-opacity:1" />
    <path
       sodipodi:nodetypes="cc"
       inkscape:connector-curvature="0"
       id="path3006"
       d="m 10,0 0,320"
       style="fill:none;stroke:#ff0000;stroke-width:1px;stroke-linecap:butt;stroke-linejoin:miter;stroke-opacity:1;display:inline" />
    <path
       sodipodi:nodetypes="cc"
       inkscape:connector-curvature="0"
       id="path3010"
       d="m 360,0 0,320"
       style="fill:none;stroke:#ff0000;stroke-width:1px;stroke-linecap:butt;stroke-linejoin:miter;stroke-opacity:1;display:inline" />
    <path
       inkscape:connector-curvature="0"
       id="path3016"
       d="M 0,9.9999681 370,10"
       style="fill:none;stroke:#ff0000;stroke-width:1px;stroke-linecap:butt;stroke-linejoin:miter;stroke-opacity:1;display:inline" />
    <path
       sodipodi:nodetypes="cc"
       inkscape:connector-curvature="0"
       id="path3018"
       d="m -84.715796,282.2883 369.999996,0"
       style="fill:none;stroke:#ff0000;stroke-width:1px;stroke-linecap:butt;stroke-linejoin:miter;stroke-opacity:1;display:inline"
       transform="translate(84.715796,27.711696)" />
  </g>
  <g
     inkscape:label="畳"
     id="layer4"
     inkscape:groupmode="layer"
     style="display:inline"
     sodipodi:insensitive="true">
    <path
       inkscape:connector-curvature="0"
       style="fill:#2d1650;fill-opacity:1;stroke:#000000;stroke-width:2"
       d="m -42.308863,217.59279 456.264163,0 0,3.22863 -456.264163,0 z"
       id="rect22094-7"
       sodipodi:nodetypes="ccccc" />
    <g
       id="g8925">
      <path
         style="fill:#e0e078;fill-opacity:1;stroke:none"
         d="m 6.3689196,221.42361 366.2880604,0 65.77188,76.82941 -498.562645,0 z"
         id="rect8726"
         inkscape:connector-curvature="0"
         sodipodi:nodetypes="ccccc" />
      <path
         style="fill:none;stroke:#bcd35f;stroke-width:2;stroke-linecap:butt;stroke-linejoin:miter;stroke-opacity:1"
         d="m 410.87067,277.55183 c -8.21924,-1.01832 -14.54298,-0.87292 -21.72841,-0.5542 -8.99629,-1.66711 -15.32806,-1.52171 -23.08133,0 -9.39832,-0.46412 -15.74613,-0.31872 -23.73817,0.12476 -9.45831,-1.54235 -15.81639,-1.39695 -23.68333,-0.47673 -9.174,-1.06562 -15.54506,-0.92022 -23.14897,0.32637 -8.75651,-0.73926 -15.1373,-0.59386 -23.08991,0.30476 -8.94216,-1.08721 -15.33698,-0.94181 -23.39467,0.14487 -8.47412,-0.84821 -15.006,-0.99358 -23.49805,-0.13941 -8.09047,-1.13149 -14.52482,-1.27689 -23.61134,-0.005 -9.11283,-0.71364 -15.97431,-0.85893 -26.15191,6e-5 -8.97668,-1.12611 -15.37778,-1.27151 -23.9129,-0.0996 -7.6493,-0.81389 -14.03906,-0.95929 -23.21446,0.0921 -8.13284,-0.93444 -14.51099,-1.07984 -23.57782,0.007 -7.849565,-0.89862 -14.213678,-1.04402 -23.054971,-0.30476 -7.460954,-1.24659 -13.815338,-1.39199 -23.111545,-0.32637 -7.761404,-0.92022 -14.102817,-1.06562 -23.738003,0.47674 -7.941179,-0.44348 -14.27232,-0.58888 -23.723854,-0.12476 -7.5787688,-1.52172 -13.8938581,-1.66712 -23.081339,2.1e-4 -7.148881,-0.31852 -13.455944,-0.46392 -21.791967,0.5544"
         id="path7642-4-9"
         inkscape:connector-curvature="0"
         sodipodi:nodetypes="cccccccccccccccccccc" />
      <path
         style="fill:none;stroke:#bcd35f;stroke-width:2;stroke-linecap:butt;stroke-linejoin:miter;stroke-opacity:1"
         d="m 400.03229,262.20768 c -7.77092,-0.96868 -14.20927,-1.21058 -20.7977,-0.76686 -8.6344,-1.40481 -15.05939,-1.64671 -21.79906,0 -8.63012,-0.20182 -15.02841,-0.44372 -22.32566,0.12476 -9.02213,-1.28005 -15.40333,-1.52195 -22.44181,-0.47674 -8.61478,-0.80331 -14.97439,-1.04521 -21.93211,0.32637 -8.39072,-0.47695 -14.73415,-0.71885 -21.82161,0.30477 -8.36805,-0.82491 -14.68812,-1.06681 -22.51597,-0.0666 -8.20509,-0.75932 -14.53238,-0.51745 -22.83745,0.0732 -7.56954,-1.25769 -13.82385,-1.01579 -22.38457,-6e-4 -8.20831,-0.83268 -14.91955,-0.59096 -24.32637,-1.1e-4 -7.9228,-1.25695 -14.23241,-1.01505 -22.35045,-0.10541 -6.93364,-0.93888 -13.26214,-0.69698 -21.98597,0.0921 -7.39355,-1.05944 -13.74137,-0.81754 -22.20401,0.007 -6.97009,-1.02362 -13.341256,-0.78172 -21.786658,-0.30477 -6.800443,-1.37158 -13.1878,-1.12968 -21.894695,-0.32637 -6.918618,-1.04521 -13.327557,-0.80331 -22.496482,0.47674 -7.232064,-0.56847 -13.658093,-0.32657 -22.311351,-0.12475 -6.550826,-1.64672 -13.0035622,-1.40482 -21.79906101,0 C -6.516248,260.99672 -12.982338,261.23862 -20.864347,262.2073"
         id="path7642-95-3-40"
         inkscape:connector-curvature="0"
         sodipodi:nodetypes="cccccccccccccccccccc" />
      <path
         style="fill:none;stroke:#bcd35f;stroke-width:2;stroke-linecap:butt;stroke-linejoin:miter;stroke-opacity:1"
         d="m 420.14231,289.35275 c -9.68087,-1.54793 -14.82362,-1.17305 -22.75751,-0.66053 -10.05101,-2.09039 -15.21446,-1.71551 -24.05263,0 -10.72613,-0.8874 -15.93097,-0.51252 -24.79469,0.12477 -10.52587,-1.96564 -15.75719,-1.59076 -24.6191,-0.47674 -10.31142,-1.4889 -15.57618,-1.11402 -24.06075,0.32636 -9.73637,-1.16253 -15.02621,-0.78765 -24.04728,0.30477 -10.05283,-1.51049 -15.37887,-1.13561 -24.8928,0.0376 -9.97568,-0.93656 -15.50027,-1.31138 -24.74691,-0.0331 -8.99453,-1.32438 -14.42248,-1.69926 -24.54373,-0.009 -10.35412,-0.9118 -16.11491,-1.28639 -27.53103,-2e-5 -10.1986,-1.31536 -15.54085,-1.69024 -25.06127,-0.095 -8.62069,-1.00769 -13.93367,-1.38257 -24.13771,0.0921 -9.09925,-1.12824 -14.38231,-1.50312 -24.60835,0.007 -8.895796,-1.09242 -14.142656,-1.4673 -24.012337,-0.30477 -8.319391,-1.44038 -13.541166,-1.81526 -24.023323,-0.32636 -8.734161,-1.11402 -13.92249,-1.4889 -24.67377,0.47672 -8.790649,-0.63726 -13.952494,-1.01214 -24.780389,-0.12474 -8.6414347,-1.71552 -13.761892,-2.0904 -24.052619,0 -7.875133,-0.51252 -12.974896,-0.8874 -22.833264,0.66053"
         id="path7642-2-17-1"
         inkscape:connector-curvature="0"
         sodipodi:nodetypes="cccccccccccccccccccc" />
      <path
         style="fill:none;stroke:#bcd35f;stroke-width:2;stroke-linecap:butt;stroke-linejoin:miter;stroke-opacity:1"
         d="m 402.60911,266.19737 c -8.25842,-0.89229 -14.12073,-1.38005 -21.16142,-0.66053 -8.98263,-1.43475 -14.81801,-1.92251 -22.13529,0 -9.09103,-0.23176 -14.87257,-0.71952 -22.69856,0.12476 -9.39739,-1.30999 -15.14447,-1.79775 -22.76823,-0.47674 -9.02639,-0.83325 -14.72995,-1.32101 -22.25307,0.32637 -8.75345,-0.50689 -14.42437,-0.99465 -22.15479,0.30477 -8.79016,-0.85485 -14.41399,-1.34261 -22.34071,0.0394 -8.44189,-1.14171 -13.98152,-0.65403 -22.62636,-0.0331 -8.23826,-1.53318 -13.72948,-1.04542 -22.69143,-0.002 -8.96978,-1.1098 -14.89219,-0.62241 -24.8182,-4e-5 -8.66622,-1.53122 -14.26896,-1.04346 -22.76899,-0.10388 -7.55676,-1.21468 -13.19757,-0.72692 -22.30947,0.0921 -7.9982,-1.33523 -13.67796,-0.84747 -22.56615,0.007 -7.58141,-1.29942 -13.308267,-0.81166 -22.119847,-0.30477 -7.334211,-1.64738 -13.093702,-1.15962 -22.215646,-0.32637 -7.472274,-1.32101 -13.275282,-0.83325 -22.822899,0.47673 -7.729184,-0.84426 -13.566651,-0.3565 -22.684256,-0.12475 -7.096808,-1.92251 -12.9881254,-1.43475 -22.1352879,0 -6.9581897,-0.71951 -12.8764321,-0.23175 -21.2371711,0.66054"
         id="path7642-7-2-58-9"
         inkscape:connector-curvature="0"
         sodipodi:nodetypes="cccccccccccccccccccc" />
      <path
         style="fill:none;stroke:#bcd35f;stroke-width:2;stroke-linecap:butt;stroke-linejoin:miter;stroke-opacity:1"
         d="m 391.12979,250.04833 c -6.65019,-0.91571 -10.98514,-0.92777 -19.57409,-0.5542 -8.06898,-1.5645 -12.40326,-1.57656 -20.80397,0 -7.7232,-0.36151 -12.05615,-0.37357 -21.24842,0.12476 -8.33719,-1.43974 -12.66929,-1.4518 -21.4849,-0.47673 -7.80662,-0.96301 -12.13764,-0.97507 -21.00185,0.32636 -7.70272,-0.63664 -12.03294,-0.6487 -20.84205,0.30477 -7.4908,-0.9846 -11.81985,-0.99666 -21.71765,0.14701 -10.3435,-0.9009 -14.72859,-0.88884 -22.31894,-0.13941 -9.5038,-1.18848 -13.82957,-1.17642 -21.45884,0.003 -10.00548,-0.75796 -14.63036,-0.74591 -22.91185,5e-5 -9.48202,-1.19145 -13.81055,-1.17939 -21.15286,-0.11005 -8.76329,-0.86874 -13.09275,-0.85668 -21.04289,0.0921 -9.218,-0.98929 -13.54844,-0.97723 -21.15215,0.007 -8.69977,-0.95347 -13.03137,-0.94141 -20.807104,-0.30477 -8.714968,-1.30143 -13.047372,-1.28937 -20.964422,-0.32636 -8.703794,-0.97507 -13.037274,-0.96301 -21.539577,0.47674 -9.13512,-0.49833 -13.469453,-0.48627 -21.23411,-0.12476 -8.219909,-1.57657 -12.555573,-1.56451 -20.8039719,0 -8.5461156,-0.37357 -12.8824452,-0.36151 -19.6376451,0.55421"
         id="path7642-2-5-8-8"
         inkscape:connector-curvature="0"
         sodipodi:nodetypes="cccccccccccccccccccc" />
      <path
         style="fill:none;stroke:#bcd35f;stroke-width:2;stroke-linecap:butt;stroke-linejoin:miter;stroke-opacity:1"
         d="m 388.0395,246.21229 c -7.71483,-0.74191 -11.48707,-0.71629 -19.05577,-0.5542 -9.44977,-1.3907 -13.22343,-1.36508 -20.48634,0 -9.0173,-0.18771 -12.79378,-0.16209 -20.90116,0.12476 -9.71983,-1.26594 -13.49812,-1.24032 -21.17828,-0.47673 -9.16913,-0.78921 -12.94971,-0.76359 -20.70237,0.32636 -9.11966,-0.46284 -12.90195,-0.43722 -20.52853,0.30477 -8.86768,-0.8108 -12.65245,-0.78518 -21.36535,0.14731 -9.06842,-0.68915 -12.91421,-0.71477 -22.03237,-0.13941 -8.32054,-0.9773 -12.11227,-1.00292 -21.16436,0.004 -8.66434,-0.54517 -12.71431,-0.57077 -22.44495,5e-5 -8.23148,-0.98143 -12.01735,-1.00705 -20.77949,-0.11151 -7.60315,-0.65726 -11.38702,-0.68288 -20.74001,0.0921 -8.07135,-0.77781 -11.85317,-0.80343 -20.81383,0.007 -7.5415,-0.74199 -11.32086,-0.76761 -20.493588,-0.30477 -7.627677,-1.08995 -11.405316,-1.11557 -20.664953,-0.32636 -7.59259,-0.76359 -11.367943,-0.78921 -21.232952,0.47674 -8.074482,-0.28685 -11.848026,-0.31247 -20.886853,-0.12476 -7.106364,-1.36509 -10.877078,-1.39071 -20.486336,0 -7.5501236,-0.16209 -11.31942375,-0.18771 -19.1193252,0.5542"
         id="path7642-7-7-3-7"
         inkscape:connector-curvature="0"
         sodipodi:nodetypes="cccccccccccccccccccc" />
      <path
         style="fill:none;stroke:#bcd35f;stroke-width:2;stroke-linecap:butt;stroke-linejoin:miter;stroke-opacity:1"
         d="m 375.3864,230.51632 c -10.72211,-0.79609 -6.98419,-0.29664 -17.65335,-0.44787 -12.99004,-1.55121 -9.27969,-1.05176 -19.19253,0 -12.1125,-0.34822 -8.45729,0.15123 -19.49203,0.12476 -13.11148,-1.42645 -9.49155,-0.927 -19.93117,-0.47674 -12.40267,-0.94971 -8.8273,-0.45026 -19.48652,0.32637 -12.51513,-0.62335 -8.97318,-0.1239 -19.25281,0.30477 -12.01827,-0.97131 -8.52455,-0.47186 -19.10907,0.25484 -10.90538,-0.48098 -7.52928,-0.98035 -20.09805,-0.24571 -11.17402,-0.66521 -7.81607,-1.16466 -19.91574,0.009 -11.3411,-0.2261 -7.69757,-0.72517 -20.60226,-10e-6 -10.68371,-0.6742 -7.21158,-1.17365 -19.26041,-0.11761 -10.38188,-0.34394 -6.87076,-0.84339 -19.50922,0.0921 -10.86114,-0.46448 -7.31014,-0.96393 -19.4398,0.007 -10.23047,-0.42867 -6.63125,-0.92812 -19.21786,-0.30477 -10.570157,-0.77663 -6.937516,-1.27608 -19.449093,-0.32637 -10.387981,-0.45026 -6.710779,-0.94971 -19.985843,0.47674 -11.037779,0.0265 -7.325293,-0.47297 -19.47772,-0.12476 -9.79223,-1.05176 -6.024603,-1.55121 -19.192535,0 -10.686509,0.15124 -6.891312,-0.34821 -17.7047116,0.44788"
         id="path7642-2-1-20-7-8"
         inkscape:connector-curvature="0"
         sodipodi:nodetypes="cccccccccccccccccccc" />
      <path
         style="fill:none;stroke:#bcd35f;stroke-width:2;stroke-linecap:butt;stroke-linejoin:miter;stroke-opacity:1"
         d="m 369.93171,223.0278 c -5.34691,-1.39346 -11.60992,-1.24696 -17.66885,-0.38516 -7.93058,-1.27379 -12.89608,-0.87729 -18.19402,0.15625 -6.33904,-1.16455 -13.08451,-0.76805 -19.21351,-0.15649 -8.45563,-1.46153 -13.78278,-1.19003 -19.32819,-0.47673 -7.67299,-0.9848 -13.02436,-0.7133 -18.89636,0.32636 -7.868,-0.65843 -13.23754,-0.38693 -18.63661,0.30477 -7.25496,-1.00639 -12.65072,-0.73489 -17.97563,0.19316 -5.65329,-0.68111 -11.21419,-0.95257 -19.09899,-0.18344 -6.53701,-0.92883 -12.00658,-1.20033 -19.28034,0.0111 -6.375,-0.95795 -13.04077,-0.94374 -19.75298,7e-5 -5.74494,-0.93998 -11.15244,-1.21148 -18.50679,-0.12034 -5.58673,-0.60697 -10.97303,-0.87847 -18.91298,0.0921 -6.03833,-0.72752 -11.40295,-0.99902 -18.77332,0.007 -5.31975,-0.6917 -10.65816,-0.9632 -18.60166,-0.30477 -5.75278,-1.03966 -12.385522,-0.99866 -19.48394,-0.17002 -5.588613,-0.74464 -12.451569,-0.83936 -18.978837,0.40874 -6.031792,-0.94362 -14.137052,-1.12673 -18.748754,-0.12471 -4.917697,-1.22641 -12.55104,-1.49791 -18.745803,0.17677 -4.598816,-0.75196 -11.830686,-0.89846 -17.405058,0.245"
         id="path7642-95-3-4-21-8"
         inkscape:connector-curvature="0"
         sodipodi:nodetypes="cccccccccccccccccccc" />
      <path
         style="fill:none;stroke:#bcd35f;stroke-width:2;stroke-linecap:butt;stroke-linejoin:miter;stroke-opacity:1"
         d="m 414.39336,281.73969 c -8.40706,-1.26942 -15.29653,-1.14827 -21.90939,-0.66053 -9.22044,-1.81188 -16.1166,-1.69073 -23.42223,0 -9.7162,-0.60889 -16.62574,-0.48774 -24.10552,0.12476 -9.68695,-1.68712 -16.60505,-1.56597 -24.01057,-0.47673 -9.42665,-1.21039 -16.35555,-1.08924 -23.46642,0.32636 -8.95513,-0.88402 -15.89214,-0.76287 -23.42507,0.30477 -9.18569,-1.23198 -16.1344,-1.11083 -24.39732,0.0382 -8.69199,-0.91118 -15.77738,-1.03231 -24.38423,-0.0331 -7.64777,-1.30019 -14.62941,-1.42134 -23.95741,-0.007 -8.73604,-0.88413 -16.18513,-1.00518 -26.61685,-5e-5 -8.61746,-1.2935 -15.57141,-1.41465 -24.30707,-0.0979 -7.20136,-0.9829 -14.14584,-1.10405 -23.53663,0.0921 -7.67512,-1.10346 -14.60993,-1.22461 -23.9369,0.007 -7.410499,-1.06764 -14.333617,-1.18879 -23.390122,-0.30477 -6.948542,-1.4156 -13.863553,-1.53675 -23.428992,-0.32636 -7.280619,-1.08924 -14.184821,-1.21039 -24.065237,0.47674 -7.409561,-0.6125 -14.305205,-0.73365 -24.0912188,-0.12477 -7.11174266,-1.69073 -13.9940113,-1.81188 -23.4222352,0 -6.556937,-0.48773 -13.432518,-0.60888 -21.985145,0.66054"
         id="path7642-95-6-6-0"
         inkscape:connector-curvature="0"
         sodipodi:nodetypes="cccccccccccccccccccc" />
      <path
         style="fill:none;stroke:#bcd35f;stroke-width:2;stroke-linecap:butt;stroke-linejoin:miter;stroke-opacity:1"
         d="m 408.36609,273.77482 c -9.35507,-1.20775 -12.96666,-0.5381 -21.30516,-0.5542 -10.33641,-1.85654 -13.98497,-1.18693 -22.76858,0 -10.61327,-0.65355 -14.33576,0.0161 -23.39625,0.12476 -10.73497,-1.73178 -14.50476,-1.06217 -23.38143,-0.47673 -10.39868,-1.25505 -14.22821,-0.58544 -22.8541,0.32636 -10.01065,-0.92868 -13.88499,-0.25907 -22.78122,0.30477 -10.12204,-1.27664 -14.06102,-0.60703 -23.50138,0.14517 -9.75619,-0.51319 -13.9725,-1.18269 -23.66816,-0.13941 -8.98303,-0.79701 -13.10405,-1.46662 -23.33019,-0.004 -10.02789,-0.37769 -14.35967,-1.04678 -25.69818,5e-5 -9.81713,-0.79277 -13.78507,-1.46238 -23.52677,-0.101 -8.60716,-0.47911 -12.52282,-1.14872 -22.91624,0.0921 -9.11407,-0.59966 -12.97627,-1.26927 -23.24471,0.007 -8.83158,-0.56384 -12.629131,-1.23345 -22.746269,-0.30477 -8.521334,-0.9118 -12.274079,-1.58141 -22.816684,-0.32636 -8.809531,-0.58544 -12.502533,-1.25505 -23.436098,0.47674 -9.048033,-0.1087 -12.69373,-0.77831 -23.381942,-0.12476 -8.6474995,-1.18694 -12.2192695,-1.85655 -22.7685921,10e-6 -8.3403409,0.0161 -11.8751479,-0.65356 -21.3687099,0.55419"
         id="path7642-9-3-9-0-1"
         inkscape:connector-curvature="0"
         sodipodi:nodetypes="cccccccccccccccccccc" />
      <path
         style="fill:none;stroke:#bcd35f;stroke-width:2;stroke-linecap:butt;stroke-linejoin:miter;stroke-opacity:1"
         d="m -47.182894,293.09418 c 8.741667,-1.20774 16.431932,-1.05156 23.042852,-0.66053 9.18975,-1.75021 16.888637,-1.59403 24.36241945,-10e-6 9.86774255,-0.5472 17.58387155,-0.39102 25.11907855,0.12473 9.740785,-1.62544 17.467948,-1.46926 24.972832,-0.47674 9.536759,-1.1487 17.277856,-0.99252 24.315405,0.32637 8.905322,-0.82234 16.656869,-0.66616 24.318121,0.30477 9.349956,-1.17027 17.116586,-1.01409 24.938316,-0.007 9.32388,-1.13448 17.10298,-0.9783 24.43313,-0.0921 8.66349,-1.25503 16.45478,-1.09885 25.43738,0.0936 10.62754,-0.94784 18.97636,-0.79178 27.96604,5e-5 9.38635,-1.34869 17.21334,-1.19251 24.84177,0.0101 8.43719,-0.93844 16.38165,-0.78229 24.97089,0.0331 8.18642,-1.05146 15.97095,-1.20764 25.18671,-0.0373 7.77259,-0.97093 15.54205,-1.12711 24.35307,-0.30477 7.18879,-1.31889 14.94779,-1.47507 24.35283,-0.32637 7.6187,-0.99252 15.36377,-1.1487 24.91815,0.47674 7.59436,-0.51579 15.3284,-0.67197 25.1334,-0.12476 7.65657,-1.59402 15.37337,-1.7502 24.36241,0 6.65575,-0.39103 14.36393,-0.54721 22.9671,0.66053"
         id="path7642-9-8-1-6-7"
         inkscape:connector-curvature="0"
         sodipodi:nodetypes="cccccccccccccccccccc" />
      <path
         style="fill:none;stroke:#bcd35f;stroke-width:2;stroke-linecap:butt;stroke-linejoin:miter;stroke-opacity:1"
         d="m -40.827095,285.30405 c 8.921599,-1.04264 15.63138,-0.86662 22.324919,-0.5542 9.6666991,-1.69144 16.3861969,-1.51542 23.7232441,1e-5 10.1420349,-0.48844 16.8809649,-0.31242 24.4256209,0.12476 10.169861,-1.56668 16.921226,-1.39066 24.357658,-0.47674 9.900707,-1.08994 16.667776,-0.91392 23.716738,0.32637 9.357709,-0.76358 16.136556,-0.58756 23.688555,0.30476 9.69575,-1.11154 16.49159,-0.93552 24.26153,-0.007 9.73764,-1.07572 16.54754,-0.8997 23.82654,-0.0921 9.08857,-1.19627 15.91221,-1.02025 24.65948,0.0965 10.90837,-0.88636 18.22561,-0.71048 27.06005,-1.6e-4 9.75205,-1.29261 16.61593,-1.11659 24.24822,0.008 8.96043,-0.87909 15.92954,-0.70311 24.81527,0.13941 8.4763,-1.07978 15.29232,-1.2558 24.86062,-0.14427 7.65432,-0.89232 14.45335,-1.06834 23.72349,-0.30476 7.19119,-1.24029 13.97845,-1.41631 23.75417,-0.32637 7.54123,-0.91392 14.31278,-1.08994 24.30299,0.47673 7.59478,-0.43718 14.35389,-0.6132 24.43992,-0.12476 7.51083,-1.51541 14.25052,-1.69143 23.72324,0 6.72936,-0.31242 13.45933,-0.48844 22.26136,0.5542"
         id="path7642-7-86-7-9-5"
         inkscape:connector-curvature="0"
         sodipodi:nodetypes="cccccccccccccccccccc" />
      <path
         style="fill:none;stroke:#bcd35f;stroke-width:2;stroke-linecap:butt;stroke-linejoin:miter;stroke-opacity:1"
         d="m -27.060977,269.82075 c 8.448093,-0.6457 13.728931,-0.96038 21.153252,-0.5542 9.5320651,-1.2945 14.7955316,-1.60918 22.441184,0 9.62387,-0.0915 14.852594,-0.40618 23.024,0.12476 9.987534,-1.16973 15.194026,-1.48441 23.120038,-0.47673 9.609999,-0.693 14.788415,-1.00768 22.507999,0.32636 9.26624,-0.36663 14.423599,-0.68131 22.423104,0.30477 9.41322,-0.7146 14.5402,-1.02928 22.89598,-0.007 9.61609,-0.67878 14.71795,-0.99346 22.60405,-0.0921 9.01176,-0.79933 14.08905,-1.11401 23.13588,0.1025 10.55555,-0.48369 15.93976,-0.79814 25.23886,-5e-5 9.57091,-0.90178 14.57624,-1.21646 23.00951,0.003 9.16036,-0.481 14.21722,-0.79564 23.2336,0.13942 8.56925,-1.17475 13.66014,-0.86007 22.99141,-0.14548 8.11258,-0.98608 13.23386,-0.6714 22.45805,-0.30477 7.87256,-1.33404 13.0149,-1.01936 22.54543,-0.32636 8.04156,-1.00768 13.21197,-0.693 23.06537,0.47673 8.23228,-0.53094 13.42492,-0.21626 23.0383,-0.12476 7.83019,-1.60917 13.05757,-1.29449 22.44118,0 7.47089,-0.40618 12.71565,-0.0915 21.0897,0.5542"
         id="path7642-2-1-266-6-32-4"
         inkscape:connector-curvature="0"
         sodipodi:nodetypes="cccccccccccccccccccc" />
      <path
         style="fill:none;stroke:#bcd35f;stroke-width:2;stroke-linecap:butt;stroke-linejoin:miter;stroke-opacity:1"
         d="m -17.491837,258.20475 c 8.4051296,-1.31907 13.7181088,-1.14789 20.7751736,-0.76687 9.1887834,-1.7552 14.5112124,-1.58402 21.4676054,0 8.897374,-0.5522 14.238702,-0.38102 21.948987,0.12476 9.467861,-1.63044 14.821282,-1.45926 22.176517,-0.47673 8.937393,-1.15371 14.306087,-0.98253 21.582196,0.32636 8.697096,-0.82734 14.077248,-0.65616 21.459498,0.30477 8.6212,-1.1753 14.01788,-1.00412 21.85097,-0.007 8.88784,-1.13948 14.29819,-0.9683 21.66992,-0.0921 8.25825,-1.26004 13.68195,-1.08886 21.95013,0.10692 9.43217,-0.93944 15.25245,-0.76839 23.86878,1.3e-4 8.56355,-1.36709 14.0264,-1.19591 22.0562,-6e-4 8.38962,-0.94071 13.93799,-0.76955 22.42525,-0.0732 8.12265,-0.93786 13.53896,-1.10904 22.02538,0.0663 7.49245,-0.96093 12.89223,-1.13211 21.49445,-0.30477 7.4262,-1.30889 12.81453,-1.48007 21.61962,-0.32636 7.46791,-0.98253 12.84096,-1.15371 22.12184,0.47673 7.76829,-0.50579 13.12924,-0.67697 21.9633,-0.12476 7.13804,-1.58402 12.4801,-1.7552 21.4676,0 7.10075,-0.38103 12.43336,-0.55221 20.68723,0.76686"
         id="path7642-60-3-8-2-8"
         inkscape:connector-curvature="0"
         sodipodi:nodetypes="cccccccccccccccccccc" />
      <path
         style="fill:none;stroke:#bcd35f;stroke-width:2;stroke-linecap:butt;stroke-linejoin:miter;stroke-opacity:1"
         d="m -12.967799,254.0024 c 7.6605874,-0.75662 11.4478282,-0.83888 19.5470161,-0.5542 9.4714689,-1.40542 13.2541689,-1.48768 21.1313789,0 9.114428,-0.20242 12.888046,-0.28468 21.59205,0.12476 9.784709,-1.28066 13.552516,-1.36292 21.855635,-0.47674 9.250372,-0.80392 13.01084,-0.88618 21.273105,0.32636 9.075604,-0.47755 12.830564,-0.55981 21.130274,0.30477 8.97752,-0.82551 12.72454,-0.90777 21.50088,-0.007 9.30362,-0.7897 13.04408,-0.87196 21.35509,-0.0921 8.7047,-0.91025 12.43873,-0.99251 21.58032,0.10854 9.85365,-0.5885 13.83361,-0.67069 23.3501,-5e-5 9.06632,-1.01874 12.78155,-1.101 21.77137,-0.002 8.97824,-0.59068 12.74032,-0.67293 21.99206,0.13941 8.84684,-1.05448 12.58443,-0.97222 21.46728,-0.14671 8.39885,-0.86458 12.14438,-0.78232 21.16522,-0.30477 8.40131,-1.21254 12.15235,-1.13028 21.31054,-0.32636 8.40473,-0.88618 12.16311,-0.80392 21.80095,0.47673 8.75096,-0.40944 12.51514,-0.32718 21.60636,-0.12476 8.04781,-1.48767 11.82108,-1.40541 21.13138,0 8.13183,-0.28468 11.90963,-0.20242 19.48346,0.5542"
         id="path7642-9-16-7-4-8-4"
         inkscape:connector-curvature="0"
         sodipodi:nodetypes="cccccccccccccccccccc" />
      <path
         style="fill:none;stroke:#bcd35f;stroke-width:2;stroke-linecap:butt;stroke-linejoin:miter;stroke-opacity:1"
         d="m -2.9397152,242.22221 c 7.3618282,-0.66791 10.8836011,-0.42218 18.5063022,-0.44788 9.568054,-1.42303 13.10339,-1.17733 20.161849,0 8.889803,-0.22003 12.452265,0.0257 20.537425,0.12476 9.788786,-1.29827 13.368606,-1.05257 20.921557,-0.47674 9.145452,-0.82153 12.747193,-0.57583 20.362974,0.32637 9.098508,-0.49517 12.716688,-0.24947 20.174618,0.30477 8.82736,-0.84275 12.46926,-0.59705 20.47223,-0.007 9.24864,-0.8073 12.91016,-0.5616 20.43349,-0.0921 8.65863,-0.92786 12.33933,-0.68216 20.41414,0.11303 9.5398,-0.60167 13.50716,-0.35616 21.9734,-1.7e-4 8.89025,-1.04077 12.62713,-0.79507 20.85662,-0.005 9.04436,-0.60739 12.84706,-0.36173 21.32439,0.24571 8.15401,-0.85136 11.82408,-1.09706 20.55475,-0.25401 7.52149,-0.55431 11.16785,-0.80001 20.20958,-0.30484 7.71923,-0.9022 11.34915,-1.1479 20.4004,-0.32637 7.61898,-0.57583 11.22697,-0.82153 20.86688,0.47674 8.09652,-0.0991 11.68715,-0.3448 20.55173,-0.12476 7.19347,-1.17733 10.75698,-1.42303 20.16185,0 7.61975,0.0257 11.1697,-0.22004 18.45493,0.44787"
         id="path7642-95-5-1-5-7-0"
         inkscape:connector-curvature="0"
         sodipodi:nodetypes="cccccccccccccccccccc" />
      <path
         style="fill:none;stroke:#bcd35f;stroke-width:2;stroke-linecap:butt;stroke-linejoin:miter;stroke-opacity:1"
         d="m 0.54019297,238.46008 c 6.65341553,-0.56722 10.43874803,-0.42182 17.94839903,-0.5542 9.215404,-1.21602 13.008763,-1.07062 19.844432,0 8.45029,-0.013 12.2597,0.13238 20.185087,0.12476 9.44292,-1.09126 13.262601,-0.94586 20.613296,-0.47674 8.781139,-0.61452 12.613792,-0.46912 20.059759,0.32636 8.792384,-0.28815 12.634764,-0.14275 19.859994,0.30477 8.48232,-0.63611 12.33874,-0.49071 20.13013,-0.007 8.95333,-0.6003 12.82136,-0.4549 20.12793,-0.0921 8.38301,-0.72085 12.26238,-0.57545 20.04023,0.11447 9.16995,-0.3933 13.33609,-0.24802 21.4929,-5e-5 8.63185,-0.83527 12.54447,-0.68987 20.56554,-0.006 8.86256,-0.40009 12.83773,-0.25472 21.13158,0.13941 8.0496,-0.63863 11.92269,-0.78403 20.33207,-0.14792 7.27655,-0.44752 11.1356,-0.59292 19.89494,-0.30477 7.53719,-0.79548 11.38651,-0.94088 20.09718,-0.32636 7.4045,-0.46912 11.24085,-0.61452 20.55862,0.47673 7.92452,0.008 11.7506,-0.13778 20.1994,-0.12476 6.95845,-1.07061 10.76848,-1.21601 19.84443,0 7.49447,0.13238 11.29647,-0.013 17.88484,0.5542"
         id="path7642-4-4-1-3-4-4"
         inkscape:connector-curvature="0"
         sodipodi:nodetypes="cccccccccccccccccccc" />
      <path
         style="fill:none;stroke:#bcd35f;stroke-width:2;stroke-linecap:butt;stroke-linejoin:miter;stroke-opacity:1"
         d="m 426.50769,297.08386 c -9.12147,-1.01834 -17.50064,-1.08559 -23.82154,-0.66053 -8.8836,-1.5608 -17.25905,-1.62805 -24.69277,0 -9.83059,-0.35781 -18.19862,-0.42506 -25.49455,0.12476 -9.51405,-1.43604 -17.87732,-1.50329 -25.23707,-0.47674 -9.41864,-0.9593 -17.77592,-1.02655 -24.66429,0.32637 -8.79281,-0.63294 -17.14559,-0.70019 -24.67915,0.30477 -9.27494,-0.9809 -17.62122,-1.04815 -25.72137,0.037 -8.51867,-0.84971 -16.95836,-0.78247 -25.44256,-0.0331 -7.3183,-1.23631 -15.6463,-1.16906 -25.13967,-0.0113 -8.7782,-0.82735 -17.68686,-0.76015 -28.47336,-4e-5 -8.77163,-1.22497 -17.115,-1.15772 -25.809,-0.0921 -7.05636,-0.92022 -15.40499,-0.85297 -24.74814,0.0921 -7.54877,-1.04077 -15.90276,-0.97352 -25.290187,0.007 -7.418319,-1.00496 -15.778808,-0.93771 -24.644199,-0.30477 -6.73323,-1.35292 -15.098219,-1.28567 -24.626868,-0.32635 -7.242026,-1.02654 -15.613014,-0.95929 -25.291738,0.47675 -7.232892,-0.54981 -15.6086317,-0.48256 -25.4802435,-0.12476 -7.2470221,-1.62805 -15.6301865,-1.5608 -24.6927755,0 -6.272163,-0.42505 -14.65904,-0.3578 -23.897284,0.66054"
         id="path7642-91-1-5-9"
         inkscape:connector-curvature="0"
         sodipodi:nodetypes="cccccccccccccccccccc" />
      <path
         style="fill:none;stroke:#bcd35f;stroke-width:2;stroke-linecap:butt;stroke-linejoin:miter;stroke-opacity:1"
         d="m 378.29026,234.47039 c -7.23846,-0.45587 -10.41296,-0.32549 -17.81565,-0.44787 -9.58114,-1.21101 -12.76284,-1.08061 -19.51994,0 -8.8503,-0.008 -12.04639,0.12238 -19.84997,0.12476 -9.79471,-1.08625 -13.00002,-0.95585 -20.24723,-0.47673 -9.15297,-0.60952 -12.36991,-0.47912 -19.79521,0.32636 -9.24409,-0.28315 -12.46976,-0.15275 -19.57597,0.30477 -8.83866,-0.63111 -12.07692,-0.50071 -19.56588,0.25454 -7.7735,-0.51014 -11.10005,-0.64052 -20.47872,-0.24571 -7.93363,-0.69376 -11.20734,-0.82416 -20.23715,0.008 -7.96523,-0.25643 -11.45011,-0.38674 -21.05794,1.3e-4 -7.56364,-0.70144 -10.80754,-0.83184 -19.65494,-0.11599 -7.17371,-0.37279 -10.40743,-0.50319 -19.82141,0.0921 -7.65418,-0.49334 -10.87749,-0.62374 -19.78853,0.007 -7.05375,-0.45752 -10.26446,-0.58792 -19.54102,-0.30477 -7.332932,-0.80548 -10.534921,-0.93588 -19.757786,-0.32636 -7.19227,-0.47912 -10.382625,-0.60952 -20.301903,0.47674 -7.803307,-0.002 -10.98445,-0.13278 -19.835661,-0.12476 -6.633176,-1.08062 -9.799922,-1.21102 -19.519945,0 -7.416725,0.12238 -10.576273,-0.008 -17.8670124,0.44787"
         id="path7642-9-3-1-25-8-0-9"
         inkscape:connector-curvature="0"
         sodipodi:nodetypes="cccccccccccccccccccc" />
      <path
         style="fill:none;stroke:#bcd35f;stroke-width:2;stroke-linecap:butt;stroke-linejoin:miter;stroke-opacity:1"
         d="m 372.57417,226.7866 c -10.5719,-0.74191 -6.87706,-0.45953 -17.68942,-0.50103 -12.60086,-1.44387 -8.9216,-1.16152 -18.88077,0 -11.62929,-0.24088 -7.9812,0.0415 -19.14853,0.12476 -12.71211,-1.31911 -9.08397,-1.03676 -19.62928,-0.47673 -11.97725,-0.84238 -8.37431,-0.56003 -19.19061,0.32636 -12.13968,-0.51601 -8.55562,-0.23366 -18.94443,0.30477 -11.59634,-0.86397 -8.03955,-0.58162 -18.45165,0.20198 -10.7575,-0.53728 -7.24527,-0.81958 -19.5017,-0.19255 -11.39734,-0.77527 -7.91731,-1.05762 -19.59451,0.01 -11.4792,-0.33435 -7.72883,-0.61648 -20.17635,8e-5 -10.76421,-0.78527 -7.21963,-1.06762 -18.88662,-0.11878 -10.53229,-0.45369 -6.96566,-0.73604 -19.21049,0.0921 -10.99947,-0.57424 -7.41029,-0.85659 -19.10571,0.007 -10.32707,-0.53843 -6.71064,-0.82078 -18.90948,-0.30477 -10.714663,-0.88639 -7.07934,-1.16874 -19.153188,-0.32636 -10.481092,-0.56003 -6.820578,-0.84238 -19.683961,0.47673 -11.157773,-0.0833 -7.477313,-0.36563 -19.134219,-0.12476 -9.825963,-1.16152 -6.11433,-1.44387 -18.880769,0 -10.817126,0.0415 -7.089908,-0.24087 -17.746881,0.50104"
         id="path7642-7-2-01-6-2-5-3"
         inkscape:connector-curvature="0"
         sodipodi:nodetypes="cccccccccccccccccccc" />
    </g>
    <g
       id="g8523"
       transform="translate(0,-60)">
      <path
         style="fill:none;stroke:#9cc040;stroke-width:2;stroke-linecap:butt;stroke-linejoin:miter;stroke-opacity:1"
         d="m 12.551529,281.84793 c 1.297434,0.57074 1.035011,1.37734 -2.224627,2.31935 1.559849,0.62535 1.286997,1.45 -2.1286152,2.41766 1.4601881,0.64402 1.1756481,1.48741 -2.3110353,2.47429 1.4476752,0.65589 1.1508178,1.51859 -2.2507673,2.52641 1.5936286,0.66922 1.2850324,1.55192 -2.2804035,2.58799 1.4902413,0.68973 1.1685282,1.59318 -2.4577372,2.65737 1.49259767,0.70974 1.1571211,1.63476 -2.3987791,2.71568 1.6285134,0.71794 1.2797668,1.66515 -2.4486863,2.7773 1.5211367,0.74055 1.1575719,1.71084 -2.6523728,2.84694 1.5075605,0.75544 1.1283779,1.74962 -2.5957203,2.91173 1.6640962,0.77212 1.2698742,1.79104 -2.636406,2.9878 1.55233,0.79714 1.141333,1.84183 -3.018864,3.05454 1.370684,0.80283 0.940582,1.87404 -2.96888,3.12664 1.699151,0.8325 1.251866,1.93141 -2.850495,3.22257 1.58257,0.8603 1.116179,1.98812 -3.08091,3.30957 1.567513,0.87925 1.080946,2.03702 -3.030713,3.39136 1.736,0.90041 1.2298,2.08934 -3.086703,3.48681 1.614112,0.93145 1.086118,2.15292 -3.31664,3.59376 1.614827,0.96218 1.063899,2.21764 -3.270875,3.68684 1.773454,0.9771 1.199985,2.26778 -3.353082,3.78546 1.645705,1.01193 1.04721,2.33944 -3.617767,3.89614 1.628556,1.03654 1.003606,2.4024 -3.578195,4.00147 1.810746,1.0639 1.159766,2.46974 -3.655536,4.12357 1.676447,1.10319 0.99663,2.55093 -4.087068,4.17093"
         id="path7642-1-2-3-0"
         inkscape:connector-curvature="0"
         sodipodi:nodetypes="ccccccccccccccccccccccccc" />
      <path
         style="fill:none;stroke:#9cc040;stroke-width:2;stroke-linecap:butt;stroke-linejoin:miter;stroke-opacity:1"
         d="m 30.774955,281.89094 c 2.525405,0.7259 0.523775,1.49595 -2.026759,2.32029 2.804331,0.78399 0.774017,1.57128 -1.922334,2.41866 2.718178,0.80627 0.657479,1.61145 -2.099982,2.47532 2.718807,0.82183 0.626736,1.6455 -2.035241,2.52747 2.878483,0.83901 0.755193,1.68176 -2.059627,2.58909 2.789505,0.86351 0.633142,1.72611 -2.231075,2.6585 2.806543,0.8877 0.615985,1.77088 -2.167141,2.71685 2.956521,0.90015 0.731902,1.80455 -2.211798,2.77853 2.864539,0.92719 0.603803,1.85366 -2.409591,2.84821 2.865943,0.94667 0.567829,1.89597 -2.3473837,2.91305 3.0381307,0.9681 0.7027076,1.94105 -2.3816047,2.98915 2.9428504,0.99809 0.5678383,1.99569 -2.7584649,3.05595 2.7758521,1.00886 0.3586651,2.03179 -2.702297,3.12811 3.1220553,1.04385 0.6638163,2.09327 -2.5757128,3.2241 3.0231425,1.07722 0.52131653,2.15425 -2.7987684,3.31114 3.02528611,1.10194 0.478257,2.20762 -2.7415882,3.39303 3.2118321,1.12906 0.6194807,2.26453 -2.7894539,3.48852 3.1089639,1.16637 0.4684491,2.33294 -3.0103064,3.59555 3.1291072,1.20364 0.438541,2.40271 -2.956622,3.6887 3.306423,1.22534 0.565601,2.45806 -3.030424,3.7874 3.199166,1.26725 0.404889,2.5352 -3.285753,3.89818 3.202033,1.29923 0.352158,2.60382 -3.23719,4.00359 3.405234,1.33425 0.49937,2.67709 -3.304135,4.12578 3.293119,1.38161 0.327625,2.76451 -3.731779,4.17319"
         id="path7642-9-499-4-7-5"
         inkscape:connector-curvature="0"
         sodipodi:nodetypes="ccccccccccccccccccccccccc" />
      <path
         style="fill:none;stroke:#9cc040;stroke-width:2;stroke-linecap:butt;stroke-linejoin:miter;stroke-opacity:1"
         d="m 49.912907,281.85654 c 1.702528,0.75384 1.570457,1.51303 -1.818215,2.31952 1.976571,0.81256 1.837473,1.58875 -1.704961,2.41788 1.882047,0.83546 1.734869,1.6293 -1.877479,2.47449 1.873481,0.85169 1.717677,1.66377 -1.808059,2.52662 2.023858,0.86956 1.860092,1.70046 -1.826927,2.5882 1.925984,0.89479 1.753082,1.74523 -1.992086,2.6576 1.933741,0.9197 1.751244,1.79045 -1.92292,2.71591 2.07322,0.93292 1.881672,1.82458 -1.962034,2.77754 1.971714,0.96077 1.769822,1.87419 -2.153522,2.84721 1.962629,0.98106 1.74973,1.91697 -2.085505,2.91199 2.124218,1.00334 1.900992,1.96258 -2.112869,2.98806 2.018746,1.03422 1.783747,2.01775 -2.483665,3.05483 1.839592,1.0459 1.590728,2.05441 -2.421023,3.12694 2.175383,1.08184 1.914661,2.11646 -2.285822,3.22286 2.06554,1.11621 1.79136,2.17805 -2.501018,3.30989 2.055596,1.14193 1.767109,2.23203 -2.436488,3.39171 2.229918,1.17015 1.927821,2.28959 -2.475745,3.48714 2.115302,1.20856 1.797757,2.35868 -2.686951,3.59411 2.123187,1.24701 1.789378,2.42916 -2.6248893,3.68722 2.2865193,1.2699 1.9369733,2.48523 -2.6898095,3.78585 2.1666046,1.31306 1.7992969,2.56312 -2.935101,3.89655 2.1554016,1.34635 1.7691927,2.63256 -2.87709563,4.00188 2.34438043,1.38278 1.93993373,2.70667 -2.93302537,4.12402 2.21854484,1.43155 1.79354661,2.79495 -3.3562969,4.17139"
         id="path7642-2-03-9-3-9"
         inkscape:connector-curvature="0"
         sodipodi:nodetypes="ccccccccccccccccccccccccc" />
      <path
         style="fill:none;stroke:#9cc040;stroke-width:2;stroke-linecap:butt;stroke-linejoin:miter;stroke-opacity:1"
         d="m 68.493943,281.78774 c 2.067794,0.70766 1.464144,1.46582 -1.615524,2.31803 2.35048,0.76531 1.735329,1.54043 -1.493712,2.41629 2.261758,0.78713 1.633898,1.57986 -1.661238,2.47285 2.258457,0.80226 1.617328,1.61318 -1.587291,2.52492 2.414235,0.81897 1.760397,1.64869 -1.600765,2.58645 2.322663,0.84301 1.654807,1.69223 -1.75981,2.65577 2.336767,0.86666 1.654347,1.73616 -1.685575,2.71403 2.481538,0.87862 1.785049,1.76897 -1.719294,2.77559 2.386887,0.90514 1.674882,1.81719 -1.904632,2.84518 2.384071,0.92404 1.655836,1.85857 -1.830958,2.9099 2.552091,0.94489 1.808186,1.9027 -1.851679,2.98588 2.454096,0.97428 1.692958,1.95632 -2.216495,3.05257 2.280965,0.98445 1.500432,1.99143 -2.147576,3.1246 2.624718,1.01878 1.826662,2.05181 -2.004047,3.22042 2.523067,1.0515 1.705735,2.11167 -2.211553,3.30735 2.520719,1.0755 1.683159,2.16387 -2.139886,3.38907 2.7028,1.10192 1.84559,2.21956 -2.170789,3.48439 2.5972,1.13846 1.718384,2.28671 -2.372571,3.59126 2.614273,1.17492 1.712846,2.35513 -2.302375,3.68423 2.785413,1.19578 1.861853,2.4091 -2.358655,3.78272 2.675485,1.23685 1.727562,2.4848 -2.59418,3.89333 2.673588,1.2679 1.700044,2.55193 -2.526963,3.9985 2.87212,1.30202 1.873482,2.62363 -2.5722,4.12049 2.757394,1.34837 1.731178,2.70939 -2.991115,4.16776"
         id="path7642-7-03-0-9-0"
         inkscape:connector-curvature="0"
         sodipodi:nodetypes="ccccccccccccccccccccccccc" />
      <path
         style="fill:none;stroke:#9cc040;stroke-width:2;stroke-linecap:butt;stroke-linejoin:miter;stroke-opacity:1"
         d="m 86.769548,281.73619 c 1.730224,0.71408 1.964066,1.45871 -1.416389,2.31689 2.013336,0.77184 2.245782,1.53313 -1.286189,2.4151 1.921909,0.79382 2.152092,1.57239 -1.448807,2.47162 1.915231,0.80909 2.142778,1.60553 -1.370411,2.52365 2.067624,0.82597 2.293367,1.64085 -1.378595,2.58514 1.973228,0.85014 2.196182,1.68418 -1.531659,2.6544 1.984312,0.87397 2.204254,1.72792 -1.45243,2.71262 2.124966,0.8861 2.34256,1.76052 -1.480841,2.77412 2.02732,0.91279 2.241545,1.80853 -1.660159,2.84365 2.020729,0.93189 2.231127,1.8497 -1.580953,2.90834 2.184987,0.95293 2.392442,1.89357 -1.595134,2.98425 2.083854,0.9825 2.287192,1.94695 -1.954131,3.05088 1.905865,0.99288 2.103214,1.98181 -1.879036,3.12284 2.246514,1.02743 2.440137,2.04194 -1.727307,3.21861 2.141553,1.06033 2.330174,2.1015 -1.927303,3.30543 2.13497,1.08459 2.318028,2.15342 -1.848617,3.3871 2.312839,1.11122 2.49127,2.20882 -1.871337,3.48234 2.20376,1.14801 2.376135,2.27566 -2.063865,3.5891 2.217099,1.18472 2.382941,2.34374 -1.985715,3.682 2.383,1.20586 2.543142,2.39737 -2.033505,3.78039 2.269397,1.24721 2.422206,2.47273 -2.259452,3.8909 2.262736,1.27855 2.407465,2.53948 -2.183208,3.99597 2.456511,1.31296 2.594197,2.61079 -2.217959,4.11784 2.337924,1.35962 2.466746,2.69615 -2.632655,4.16504"
         id="path7642-95-50-2-5-9"
         inkscape:connector-curvature="0"
         sodipodi:nodetypes="ccccccccccccccccccccccccc" />
      <path
         style="fill:none;stroke:#9cc040;stroke-width:2;stroke-linecap:butt;stroke-linejoin:miter;stroke-opacity:1"
         d="m 105.95263,281.78717 c 1.54709,0.57043 1.32552,2.50155 -1.20807,2.318 1.83331,0.62501 1.54675,2.69918 -1.06901,2.41628 1.74183,0.64364 0.88929,2.79903 -1.2266,2.47284 1.73453,0.65548 1.19065,2.45519 -1.14349,2.5249 1.88628,0.66883 0.7769,2.7385 -1.14615,2.58645 1.79192,0.68931 0.74101,2.59222 -1.293007,2.65575 2.053027,0.27183 1.872807,1.63375 -1.208543,2.71402 1.942478,0.7175 2.008743,1.66411 -1.231416,2.77556 1.845019,0.7401 1.906589,1.70979 -1.404539,2.84516 1.837984,0.75497 1.894382,1.7485 -1.319492,2.90988 2.001742,0.77162 2.053954,1.78989 -1.326859,2.98588 1.900984,0.79661 1.947701,1.84064 -1.67996,3.05255 1.721897,0.80229 1.761129,1.87279 -1.598366,3.12457 2.063234,0.83192 2.09743,1.93012 -1.437995,3.22041 1.958844,0.85973 1.986609,1.98678 -1.630232,3.30731 1.952098,0.87865 1.972837,2.03565 -1.544189,3.38906 2.12978,0.89977 2.144531,2.08788 -1.558353,3.48438 2.021537,0.93079 2.02875,2.15141 -1.741334,3.59122 2.035691,0.96149 2.034875,2.21607 -1.654806,3.6842 2.200817,0.97639 2.192872,2.26614 -1.693775,3.78271 2.088337,1.0112 2.071545,2.33773 -1.909854,3.89329 2.081982,1.03577 2.055527,2.40061 -1.824154,3.99848 2.276083,1.06309 2.241121,2.46788 -1.847945,4.12045 2.159008,1.10235 2.113601,2.54897 -2.258551,4.16773"
         id="path7642-4-76-2-9-3"
         inkscape:connector-curvature="0"
         sodipodi:nodetypes="ccccccccccccccccccccccccc" />
      <path
         style="fill:none;stroke:#9cc040;stroke-width:2;stroke-linecap:butt;stroke-linejoin:miter;stroke-opacity:1"
         d="m 124.18972,281.83015 c 2.84261,0.72549 1.17882,1.49509 -1.00993,2.31895 3.14692,0.78355 1.462,1.57038 -0.86243,2.41727 3.07053,0.80579 1.3631,1.61051 -1.01519,2.47386 3.07796,0.82135 1.34726,1.64453 -0.92763,2.52596 3.2451,0.83852 1.49155,1.68078 -0.92502,2.58756 3.16689,0.86298 1.38898,1.72506 -1.066,2.65689 3.19447,0.88713 1.39143,1.76979 -0.97652,2.71518 3.34987,0.89959 1.52206,1.80343 -0.99414,2.77679 3.26973,0.92664 1.41548,1.85251 -1.16135,2.84643 3.27965,0.94607 1.39806,1.89476 -1.07075,2.9112 3.46116,0.96746 1.55262,1.9398 -1.07162,2.98722 3.37903,0.99744 1.44173,1.99438 -1.41911,3.05396 3.21681,1.00819 1.24846,2.03045 -1.33133,3.12604 3.57822,1.04316 1.58042,2.09187 -1.16273,3.22194 3.49393,1.0765 1.46467,2.1528 -1.34758,3.30889 3.5069,1.10119 1.44499,2.20612 -1.25454,3.39071 3.70523,1.12828 1.61108,2.26295 -1.26054,3.48609 3.61871,1.16555 1.49006,2.33131 -1.43445,3.59302 3.65516,1.20277 1.49073,2.40098 -1.33995,3.68606 3.84189,1.22444 1.64198,2.45627 -1.3705,3.78464 3.75303,1.26633 1.51511,2.53335 -1.577199,3.89533 3.769879,1.29823 1.492449,2.60188 -1.482467,4.0006 3.988326,1.33324 1.671701,2.67506 -1.495855,4.12265 3.896981,1.38054 1.538319,2.76241 -1.902548,4.16999"
         id="path7642-9-3-78-1-7-5"
         inkscape:connector-curvature="0"
         sodipodi:nodetypes="ccccccccccccccccccccccccc" />
      <path
         style="fill:none;stroke:#9cc040;stroke-width:2;stroke-linecap:butt;stroke-linejoin:miter;stroke-opacity:1"
         d="m 143.30714,281.79577 c 2.0322,0.75341 2.23267,1.51217 -0.80183,2.31819 2.33186,0.81209 2.53277,1.58784 -0.64552,2.41647 2.24741,0.83497 2.44793,1.62837 -0.79319,2.47304 2.24593,0.8512 2.44583,1.66278 -0.70096,2.52512 2.40408,0.86906 2.60429,1.69944 -0.69283,2.58668 2.31728,0.89423 2.51689,1.74416 -0.82756,2.65596 2.33595,0.91914 2.53486,1.78936 -0.73286,2.71426 2.48116,0.93233 2.68018,1.82345 -0.74497,2.77581 2.39188,0.96017 2.59008,1.87301 -0.90589,2.84541 2.39168,0.98044 2.58874,1.91576 -0.80949,2.91015 2.56295,1.0027 2.7599,1.96132 -0.80354,2.98614 2.47103,1.03353 2.66685,2.01641 -1.14497,3.05282 2.29705,1.04522 2.48996,2.05306 -1.05075,3.12488 2.64845,1.08111 2.84095,2.11505 -0.87358,3.22071 2.55369,1.11545 2.74464,2.17658 -1.05059,3.30764 2.55503,1.14116 2.74404,2.23051 -0.95022,3.38938 2.74163,1.16934 2.92987,2.288 -0.94766,3.48471 2.64385,1.20772 2.8301,2.35704 -1.11195,3.59159 2.66857,1.24611 2.85258,2.42742 -1.00911,3.68457 2.84184,1.26898 3.02468,2.48343 -1.03081,3.78309 2.74087,1.31212 2.92116,2.56125 -1.22751,3.8937 2.74424,1.34536 2.92146,2.6306 -1.12339,3.99891 2.94907,1.38173 3.12457,2.70462 -1.12579,4.12089 2.84464,1.43046 3.0169,2.79281 -1.52816,4.16818"
         id="path7642-2-1-3-5-2-4"
         inkscape:connector-curvature="0"
         sodipodi:nodetypes="ccccccccccccccccccccccccc" />
      <path
         style="fill:none;stroke:#9cc040;stroke-width:2;stroke-linecap:butt;stroke-linejoin:miter;stroke-opacity:1"
         d="m 161.85276,281.72702 c 2.3771,0.70726 2.10566,1.46497 -0.59991,2.3167 2.68495,0.76485 2.40943,1.53953 -0.4351,2.41487 2.6058,0.78668 2.32531,1.57896 -0.5778,2.47141 2.60913,0.80179 2.32333,1.61221 -0.48106,2.52343 2.77219,0.8185 2.48189,1.6477 -0.46757,2.5849 2.69112,0.84248 2.39539,1.69119 -0.59623,2.65416 2.71559,0.86613 2.41417,1.7351 -0.49649,2.71236 2.86556,0.87807 2.55919,1.76788 -0.50323,2.77387 2.78254,0.90456 2.47017,1.81605 -0.65803,2.84338 2.78799,0.92347 2.46922,1.85739 -0.55604,2.90806 2.96507,0.94429 2.64086,1.90147 -0.54347,2.98395 2.87998,0.97366 2.54914,1.95505 -0.87897,3.05058 2.71135,0.98381 2.37205,1.99011 -0.77849,3.12254 3.06998,1.01811 2.72459,2.05043 -0.59307,3.21828 2.98271,1.05077 2.62993,2.11023 -0.76241,3.3051 2.99084,1.07476 2.63018,2.16238 -0.65499,3.38674 3.18442,1.10114 2.81694,2.21802 -0.64413,3.48197 3.09485,1.13765 2.71918,2.2851 -0.79903,3.58873 3.12786,1.17407 2.74359,2.35344 -0.68816,3.68159 3.30809,1.19492 2.91618,2.40736 -0.70124,3.77998 3.21614,1.23594 2.81506,2.48299 -0.88826,3.89046 3.22783,1.26698 2.81695,2.55004 -0.775,3.99553 3.44122,1.30103 3.02171,2.62166 -0.76678,4.11737 3.3468,1.34734 2.91699,2.70731 -1.16484,4.16457"
         id="path7642-7-2-64-4-0-2"
         inkscape:connector-curvature="0"
         sodipodi:nodetypes="ccccccccccccccccccccccccc" />
      <path
         style="fill:none;stroke:#9cc040;stroke-width:2;stroke-linecap:butt;stroke-linejoin:miter;stroke-opacity:1"
         d="m 180.10058,281.67548 c 2.04243,0.71368 2.60228,1.45789 -0.40139,2.31557 2.35074,0.7714 2.9165,1.53225 -0.22821,2.41371 2.26897,0.79334 2.84003,1.57147 -0.36603,2.47015 2.26897,0.80863 2.84523,1.60459 -0.26487,2.52216 2.42872,0.82549 3.01124,1.63987 -0.24611,2.58361 2.3449,0.84962 2.93303,1.68315 -0.3688,2.65278 2.36642,0.87344 2.96023,1.72686 -0.26412,2.71095 2.51233,0.88555 3.1128,1.75945 -0.26556,2.7724 2.42641,0.91223 3.03279,1.80741 -0.41439,2.84187 2.42817,0.93129 3.04041,1.84852 -0.30688,2.90648 2.60158,0.95232 3.22088,1.89236 -0.2878,2.98233 2.51343,0.98188 3.13903,1.94569 -0.61751,3.04889 2.34003,0.99224 2.97037,1.98051 -0.51091,3.12079 2.69568,1.02675 3.33349,2.04057 -0.31729,3.21646 2.60515,1.05961 3.24963,2.10009 -0.47921,3.3032 2.60918,1.08382 3.26021,2.15194 -0.36478,3.38476 2.79864,1.11046 3.45763,2.2073 -0.34578,3.47993 2.70569,1.14719 3.37178,2.27404 -0.49149,3.58657 2.7351,1.18387 3.4084,2.34207 -0.37269,3.67935 2.91018,1.205 3.59201,2.39567 -0.37736,3.77766 2.8147,1.24629 3.5041,2.47091 -0.55483,3.88804 2.82175,1.2776 3.51857,2.53759 -0.43261,3.993 3.03053,1.31197 3.73644,2.60883 -0.41398,4.11472 2.9324,1.35858 3.6464,2.69409 -0.80784,4.16186"
         id="path7642-95-3-41-4-2-7"
         inkscape:connector-curvature="0"
         sodipodi:nodetypes="ccccccccccccccccccccccccc" />
      <path
         style="fill:none;stroke:#9cc040;stroke-width:2;stroke-linecap:butt;stroke-linejoin:miter;stroke-opacity:1"
         d="m 201.48942,281.73302 c 1.80232,0.57014 2.25452,1.37587 -0.16891,2.31683 2.11295,0.62468 2.57073,1.44842 0.0142,2.41503 2.02984,0.6433 2.49254,1.48576 -0.11803,2.47155 2.02785,0.65514 2.49536,1.51689 -0.0116,2.52358 2.18551,0.66846 2.65898,1.55016 0.0133,2.58506 2.10035,0.68894 2.57908,1.59135 -0.10245,2.65431 2.12043,0.70893 2.60449,1.63287 0.008,2.71252 2.2635,0.71711 2.75396,1.66321 0.0128,2.77405 2.1762,0.73968 2.67231,1.70882 -0.12905,2.84356 2.1758,0.75452 2.67746,1.74751 -0.015,2.90823 2.34697,0.77118 2.8555,1.78887 0.0117,2.98415 2.25744,0.79616 2.77205,1.83959 -0.31145,3.05077 2.08095,0.80184 2.59993,1.87172 -0.1976,3.12275 2.43544,0.83143 2.96178,1.92897 0.006,3.2185 2.34354,0.85919 2.87638,1.98556 -0.14756,3.30532 2.34527,0.8781 2.88451,2.03439 -0.0249,3.38697 2.53237,0.89921 3.07955,2.08659 0.004,3.48222 2.43803,0.9302 2.99226,2.15005 -0.1314,3.58897 2.46594,0.96087 3.02735,2.21465 -0.003,3.68185 2.63768,0.97577 3.20772,2.26467 0.002,3.78025 2.54083,1.01056 3.1185,2.33622 -0.16448,3.89075 2.54546,1.03508 3.13065,2.39902 -0.0317,3.99582 2.75173,1.06239 3.3463,2.46621 -8e-4,4.11768 2.65228,1.1016 3.25516,2.54725 -0.39008,4.16488"
         id="path7642-60-95-4-8-2"
         inkscape:connector-curvature="0"
         sodipodi:nodetypes="ccccccccccccccccccccccccc" />
      <path
         style="fill:none;stroke:#9cc040;stroke-width:2;stroke-linecap:butt;stroke-linejoin:miter;stroke-opacity:1"
         d="m 219.74113,281.776 c 3.16702,0.72512 1.84855,1.49432 0.0296,2.31777 3.49725,0.78314 2.16538,1.56956 0.22108,2.41601 3.43085,0.80537 2.08449,1.60967 0.0937,2.47256 3.44524,0.82092 2.0839,1.64366 0.20462,2.52465 3.62001,0.83808 2.24438,1.67987 0.23482,2.58615 3.55276,0.86253 2.16167,1.72413 0.12495,2.65546 3.59117,0.88666 2.18417,1.76883 0.24054,2.71371 3.75207,0.8991 2.32981,1.80243 0.25051,2.77524 3.68409,0.92611 2.24527,1.85147 0.11457,2.84483 3.70269,0.94555 2.24677,1.89369 0.23415,2.90955 3.89373,0.96692 2.42149,1.9387 0.26736,2.98551 3.82504,0.99686 2.33506,1.99322 -0.0501,3.05218 3.66768,1.0076 2.158,2.02926 0.0699,3.12421 4.04462,1.04253 2.51738,2.09062 0.28146,3.22001 3.97529,1.07585 2.42894,2.15149 0.13562,3.30691 3.99929,1.1005 2.43317,2.20476 0.26531,3.38861 4.20969,1.1276 2.62467,2.26156 0.30203,3.48394 4.1399,1.16483 2.5343,2.32984 0.17611,3.59076 4.19299,1.20201 2.56619,2.39946 0.31226,3.68372 4.38935,1.22366 2.74216,2.45469 0.3259,3.7822 4.31927,1.26549 2.64985,2.53167 0.16887,3.89276 4.35039,1.29739 2.6579,2.60017 0.31072,3.99793 4.58443,1.33236 2.86988,2.67328 0.35206,4.11988 4.51428,1.37961 2.77563,2.76053 -0.0333,4.16715"
         id="path7642-9-16-5-2-6-6"
         inkscape:connector-curvature="0"
         sodipodi:nodetypes="ccccccccccccccccccccccccc" />
      <path
         style="fill:none;stroke:#9cc040;stroke-width:2;stroke-linecap:butt;stroke-linejoin:miter;stroke-opacity:1"
         d="m 238.83827,281.74161 c 2.36932,0.75304 2.90975,1.51143 0.23724,2.31703 2.69518,0.81167 3.24366,1.58702 0.43752,2.41523 2.62099,0.83454 3.17701,1.62751 0.31528,2.47174 2.62676,0.85076 3.19029,1.6619 0.43073,2.52379 2.79291,0.86859 3.36517,1.69853 0.46652,2.58528 2.71738,0.89376 3.29781,1.74323 0.36287,2.65454 2.74717,0.91864 3.33598,1.78838 0.48365,2.71277 2.89825,0.93183 3.49652,1.82243 0.49911,2.77428 2.82145,0.95963 3.42866,1.87197 0.36942,2.84382 2.83033,0.97988 3.44645,1.91467 0.49481,2.90848 3.01151,1.00213 3.63797,1.9602 0.5345,2.98444 2.93373,1.03293 3.56993,2.01526 0.22344,3.05104 2.76492,1.0446 3.40939,2.05186 0.34976,3.12304 3.13237,1.08047 3.78812,2.11378 0.57033,3.2188 3.05257,1.11477 3.71895,2.17527 0.43201,3.30563 3.06528,1.14046 3.74238,2.22915 0.56881,3.38731 3.26447,1.16862 3.95393,2.28659 0.61383,3.48255 3.18419,1.20697 3.88538,2.35556 0.49776,3.58934 3.22608,1.24531 3.93938,2.42587 0.64218,3.68222 3.40959,1.26817 4.13654,2.48183 0.6647,3.78065 3.32793,1.31126 4.06787,2.55958 0.51758,3.89115 3.34619,1.34447 4.09925,2.62885 0.66889,3.99624 3.56716,1.3808 4.33536,2.70279 0.72105,4.11812 3.4846,1.42947 4.26723,2.79089 0.34005,4.16533"
         id="path7642-2-5-74-5-7-7"
         inkscape:connector-curvature="0"
         sodipodi:nodetypes="ccccccccccccccccccccccccc" />
      <path
         style="fill:none;stroke:#9cc040;stroke-width:2;stroke-linecap:butt;stroke-linejoin:miter;stroke-opacity:1"
         d="m 257.34838,281.6729 c 2.69344,0.70692 2.7616,1.46424 0.43833,2.31552 3.02704,0.76447 3.09873,1.53874 0.64723,2.41364 2.95758,0.78627 3.03217,1.57814 0.52972,2.47011 2.96773,0.80137 3.04516,1.61138 0.64987,2.5221 3.13817,0.81806 3.21951,1.64683 0.69079,2.58353 3.06792,0.84202 3.15256,1.69027 0.59325,2.65272 3.10296,0.86566 3.19098,1.73414 0.71903,2.71088 3.25822,0.87759 3.35065,1.7669 0.73986,2.77233 3.18709,0.90406 3.28322,1.81505 0.61624,2.84178 3.20098,0.92296 3.3008,1.85635 0.74717,2.90642 3.38734,0.94376 3.49211,1.90037 0.79375,2.98224 3.31542,0.9731 3.42442,1.95392 0.4882,3.0488 3.15138,0.98325 3.26307,1.98896 0.62086,3.12071 3.52528,1.01752 3.64253,2.04921 0.84915,3.21637 3.45263,1.05013 3.57466,2.10896 0.71873,3.30309 3.47149,1.07411 3.59829,2.16108 0.86271,3.38468 3.67683,1.10047 3.80991,2.21665 0.91623,3.47981 3.60362,1.13695 3.74219,2.28366 0.80921,3.58646 3.65293,1.17334 3.7972,2.35196 0.96164,3.67925 3.84242,1.19417 3.99388,2.40582 0.99263,3.77755 3.76887,1.23514 3.92667,2.48136 0.85517,3.88791 3.79444,1.26614 3.95856,2.54835 1.01547,3.99288 4.02298,1.30017 4.19531,2.61989 1.07825,4.11459 3.94934,1.34641 4.129,2.70547 0.70147,4.1617"
         id="path7642-7-7-7-0-0-2"
         inkscape:connector-curvature="0"
         sodipodi:nodetypes="ccccccccccccccccccccccccc" />
      <path
         style="fill:none;stroke:#9cc040;stroke-width:2;stroke-linecap:butt;stroke-linejoin:miter;stroke-opacity:1"
         d="m 275.56847,281.6214 c 2.36171,0.71332 3.25489,1.45714 0.63629,2.31439 3.25828,0.27099 3.60233,1.53145 0.85338,2.41246 2.93637,-0.20708 3.54344,3.07066 0.74089,2.46888 2.63072,0.80819 3.43846,2.72873 0.86534,2.52082 2.79794,0.82504 2.5577,2.32649 0.91159,2.58221 2.09996,0.0367 3.62391,2.11977 0.81993,2.65136 3.67146,0.39639 3.87616,3.03069 1.08645,2.78085 3.05149,0.89217 2.93751,2.94253 1.06931,2.82861 2.60607,0.78259 2.5509,2.73978 0.63069,2.71116 2.84476,0.93077 3.68029,2.53497 0.9955,2.90484 2.71501,0.38926 4.06783,2.39127 1.04852,2.98061 2.95264,0.29381 3.57241,2.75706 0.74875,3.04712 2.65891,0.42915 3.48186,2.72935 0.88753,3.11896 2.77989,0.33863 3.74676,2.66435 1.12391,3.21452 2.76664,0.37149 4.18961,2.09883 1.00093,3.30121 3.094,1.08318 4.03588,2.90064 1.15186,3.38271 2.85781,0.23476 4.38301,3.20592 1.21346,3.47776 3.09385,0.39649 4.07711,3.71012 1.1156,3.58432 3.26465,1.18313 4.51914,3.65308 1.27592,3.67701 3.44911,1.20424 4.10166,4.26912 1.31525,3.77523 3.37216,1.24547 3.85998,4.46929 1.18729,3.88548 3.39324,1.27678 4.46681,3.97342 1.35649,3.99034 3.61732,1.31112 4.654,4.23209 1.42966,4.11196 3.54006,1.35766 4.85213,2.69225 1.057,4.159"
         id="path7642-95-5-3-4-8-2"
         inkscape:connector-curvature="0"
         sodipodi:nodetypes="ccccccccccccccccccccccccc" />
      <path
         style="fill:none;stroke:#9cc040;stroke-width:2;stroke-linecap:butt;stroke-linejoin:miter;stroke-opacity:1"
         d="m 294.78639,281.67234 c 2.05137,0.56979 3.54365,2.31256 0.84535,2.31549 2.3858,0.62431 3.76653,2.26008 1.07136,2.41363 3.1147,0.14817 4.73394,4.05616 0.96395,2.4701 2.31403,0.65475 3.90861,2.51599 1.0931,2.52208 2.47748,0.66806 3.89926,2.48672 1.14492,2.58351 2.40131,0.68852 4.0249,2.52789 1.0595,2.65271 2.4301,0.7085 3.81848,2.50687 1.1955,2.71086 2.57671,0.71667 4.10618,2.47467 1.22713,2.77231 2.49931,0.73923 3.857,3.02027 1.11572,2.84178 2.5054,0.75406 4.06655,3.0589 1.25801,2.90638 2.68381,0.77068 4.13763,2.85022 1.31792,2.98224 2.6052,0.79565 3.95137,2.83838 1.02406,3.04877 2.43124,0.80131 4.16836,3.24549 1.16937,3.1207 2.79858,0.83089 4.43014,3.11517 1.41447,3.21634 2.71883,0.85861 4.05704,3.04673 1.29929,3.30307 2.72882,0.87752 4.14899,3.28302 1.45761,3.38465 2.92508,0.89861 4.6168,3.33515 1.52785,3.47981 2.84434,0.92955 4.8073,4.21104 1.43956,3.58643 2.88563,0.96019 4.99562,4.08807 1.60832,3.67922 3.06382,0.97508 4.51029,3.63804 1.65658,3.77753 2.9822,1.00981 5.20239,4.33449 1.53852,3.88788 2.99757,1.03432 4.867,4.02222 1.71727,3.99284 3.21568,1.06159 4.42445,2.46435 1.80143,4.11456 3.13342,1.10075 4.36879,2.54529 1.43295,4.16169"
         id="path7642-4-4-4-2-1-0"
         inkscape:connector-curvature="0"
         sodipodi:nodetypes="ccccccccccccccccccccccccc" />
      <path
         style="fill:none;stroke:#9cc040;stroke-width:2;stroke-linecap:butt;stroke-linejoin:miter;stroke-opacity:1"
         d="m 313.0517,281.71528 c 3.48352,0.72469 2.81463,2.18095 1.04413,2.31644 3.83904,0.78269 3.16431,2.19365 1.27859,2.41461 3.78238,0.8049 3.03847,2.48372 1.17601,2.47112 3.80356,0.82043 2.74026,2.58018 1.30967,2.52313 3.98577,0.83757 2.97903,2.49138 1.36677,2.58462 3.92924,0.86201 2.9157,2.78558 1.28726,2.65385 3.97819,0.88612 2.95774,2.45525 1.4283,2.71204 4.14447,0.89854 3.18055,2.61381 1.46521,2.77352 4.0883,0.92554 3.05497,2.78782 1.35974,2.84304 4.1154,0.94495 3.13744,2.64249 1.50761,2.90769 4.31571,0.96631 3.33176,2.74995 1.57406,2.98359 4.26011,0.99622 3.33171,2.74194 1.28583,3.05019 4.10749,1.00695 5.35798,4.46543 1.43736,3.12215 4.49958,1.04185 3.49408,3.21423 1.69074,3.21786 4.44483,1.07513 4.0573,2.83755 1.58297,3.30466 4.47961,1.09976 5.20982,3.51575 1.74836,3.3863 4.70176,1.1268 4.17609,3.38498 1.82678,3.48151 4.64825,1.16401 4.05312,3.3282 1.74763,3.58822 4.71758,1.20117 4.30293,3.33526 1.9244,3.68109 4.92332,1.22277 4.753,3.57792 1.98111,3.77945 4.87156,1.26458 4.63189,4.09233 1.87253,3.88992 4.91658,1.29643 4.60737,3.78572 2.06032,3.99494 5.16582,1.33136 4.03876,2.67126 2.15499,4.11677 5.11633,1.37855 3.98269,2.7584 1.79045,4.16395"
         id="path7642-9-3-1-08-1-8-1"
         inkscape:connector-curvature="0"
         sodipodi:nodetypes="ccccccccccccccccccccccccc" />
      <path
         style="fill:none;stroke:#9cc040;stroke-width:2;stroke-linecap:butt;stroke-linejoin:miter;stroke-opacity:1"
         d="m 332.12835,281.68091 c 2.69824,0.75262 3.50798,2.44806 1.25135,2.3157 3.04967,0.8112 3.81237,2.3986 1.49457,2.41382 2.98549,0.83404 3.88842,2.37655 1.39704,2.47031 2.99838,0.85025 3.91678,2.53591 1.53533,2.52229 3.17223,0.86806 4.04506,2.69751 1.59792,2.58373 3.11267,1.1406 4.08773,3.15099 1.52462,2.65293 3.14843,0.91808 4.11773,2.53729 1.67083,2.7111 3.30524,0.93125 4.29314,2.94631 1.71325,2.77256 3.2406,0.95902 4.24691,2.93329 1.61398,2.84202 3.25833,0.97926 4.28338,2.91347 1.76764,2.90666 3.44915,1.00147 4.36975,3.33392 1.84083,2.9825 3.38459,1.03227 4.26301,3.38895 1.55863,3.04906 3.22103,1.04391 4.30611,3.05051 1.71657,3.12097 3.60395,1.07976 4.7117,3.36237 1.97845,3.21665 3.5396,1.11403 4.35738,3.29879 1.87846,3.30341 3.56368,1.13968 4.71699,2.2276 2.05111,3.38497 3.77505,1.16779 4.95356,2.28499 2.13803,3.48013 3.71129,1.20613 4.9149,3.6039 2.06843,3.58681 3.76995,1.24442 4.68714,3.67414 2.2535,3.6796 3.96329,1.26724 5.28361,3.79252 2.31895,3.7779 3.90055,1.31029 5.374,3.68269 2.22027,3.88828 3.93331,1.34348 5.37315,3.81441 2.41743,3.99327 4.17012,1.37975 5.51654,2.70075 2.52294,4.115 3.10886,-0.1341 5.48695,2.78876 2.16271,4.16214"
         id="path7642-2-1-20-8-2-3-1"
         inkscape:connector-curvature="0"
         sodipodi:nodetypes="ccccccccccccccccccccccccc" />
      <path
         style="fill:none;stroke:#9cc040;stroke-width:2;stroke-linecap:butt;stroke-linejoin:miter;stroke-opacity:1"
         d="m 350.60309,281.61225 c 3.00209,0.70649 3.46419,2.21339 1.45173,2.31418 3.36072,0.76402 3.83377,2.53785 1.70336,2.41224 3.3009,0.78581 3.78454,2.3272 1.61074,2.46867 3.3176,0.80088 4.062,2.61042 1.75348,2.5206 3.49531,0.81756 3.93937,2.39584 1.82137,2.58197 3.43552,0.84154 3.95388,2.43927 1.75408,2.65113 3.48089,0.86514 3.94898,1.73308 1.90526,2.7092 3.64132,0.87706 4.12292,1.76583 1.95297,2.77062 3.58176,0.90351 4.07656,1.81391 1.85976,2.84 3.60391,0.92236 4.11219,1.85518 2.01894,2.90457 3.7993,0.94315 4.32268,1.89916 2.09865,2.98033 3.74022,0.97245 4.27842,1.95265 1.82233,3.0468 3.58065,0.98261 4.13243,1.98764 1.98641,3.11865 3.96939,1.01685 4.5381,2.04786 2.25644,3.21422 3.91103,1.04943 4.49641,2.10754 2.16401,3.30086 3.94039,1.07338 4.5428,2.1596 2.34364,3.38235 4.15713,1.0997 4.77863,2.21512 2.43874,3.47741 4.0999,1.13613 4.74025,2.28205 2.3784,3.58392 4.16509,1.17251 4.82509,2.35028 2.57137,3.67663 4.3636,1.1933 5.04522,2.40408 2.64533,3.77481 4.30799,1.23424 5.01104,2.47955 2.55619,3.88505 4.34708,1.26521 5.07221,2.54645 2.76234,3.9899 4.5904,1.29919 5.34015,2.61793 2.87832,4.11149 4.53699,1.34539 5.31127,2.70341 2.52228,4.15852"
         id="path7642-7-2-01-1-7-0-7"
         inkscape:connector-curvature="0"
         sodipodi:nodetypes="ccccccccccccccccccccccccc" />
      <path
         style="fill:none;stroke:#9cc040;stroke-width:2;stroke-linecap:butt;stroke-linejoin:miter;stroke-opacity:1"
         d="m 368.79547,281.56077 c 2.67323,0.7129 3.89168,1.4563 1.64902,2.31305 3.03244,0.77056 4.27154,1.53058 1.90897,2.41106 2.97013,0.79248 4.2298,1.56974 1.8212,2.46744 2.98362,0.80772 4.26426,1.60279 1.96831,2.51933 3.15818,0.82455 4.46138,1.63802 2.04141,2.58067 3.09577,0.84865 4.42152,1.68124 1.98002,2.64976 3.13834,0.87243 4.48736,1.72486 2.13613,2.70779 3.29487,0.88454 4.66864,1.7574 2.18906,2.76916 3.23255,0.91115 4.63111,1.80528 2.10178,2.83849 3.25119,0.93019 4.67506,1.8463 2.2664,2.903 3.44308,0.95116 4.89419,1.89006 2.35258,2.9787 3.38109,0.98067 4.85956,1.94329 2.08195,3.04513 3.21697,0.991 4.72177,1.97805 2.25212,3.1169 3.60289,1.02546 5.13778,2.038 2.53025,3.21238 3.5415,1.05828 5.10661,2.09741 2.4452,3.29898 3.56692,1.08244 5.16302,2.14916 2.63171,3.38037 3.77978,1.10901 5.40925,2.2044 2.73487,3.47536 3.7194,1.14567 5.38251,2.27102 2.68363,3.58179 3.7812,1.18229 5.47924,2.33891 2.88444,3.67439 3.97481,1.20337 5.71007,2.39238 2.96671,3.77249 3.91591,1.24457 5.68877,2.46748 2.887,3.88263 3.95065,1.27583 5.76219,2.53403 3.10201,3.98738 4.1896,1.31012 6.04287,2.6051 3.22829,4.10884 3.32025,1.10662 6.02827,2.69019 2.87635,4.15581"
         id="path7642-95-3-4-52-7-3-5"
         inkscape:connector-curvature="0"
         sodipodi:nodetypes="ccccccccccccccccccccccccc" />
    </g>
    <path
       style="fill:#2d1650;fill-opacity:1;stroke:#000000;stroke-width:2"
       d="m -69.5,293.5 456,0 0,12.5 -456,0 z"
       id="rect22094"
       inkscape:connector-curvature="0"
       sodipodi:nodetypes="ccccc" />
  </g>
  <g
     style="display:inline"
     inkscape:label="豚"
     id="layer11"
     inkscape:groupmode="layer"
     sodipodi:insensitive="true">
    <path
       style="fill:#ffd5d5;stroke:#000000;stroke-width:2;stroke-linecap:butt;stroke-linejoin:miter;stroke-opacity:1"
       d="m 39.400037,177.51546 c -7.015741,17.46071 -3.479169,39.64365 8.067028,55.02102 l 37.255047,39.87775 35.173428,5.55668 z"
       id="path5608"
       inkscape:connector-curvature="0"
       sodipodi:nodetypes="ccccc" />
    <path
       style="fill:#ffd5d5;stroke:none;display:inline"
       d="m 55.524606,225.06926 c -14.36749,6.25392 -35.156526,19.95407 -37.534746,30.3269 -1.029057,4.48836 4.520521,4.72979 7.705565,5.74281 3.868079,5.87663 -2.166582,8.35077 2.727977,13.05933 5.56176,5.35041 85.779718,6.937 100.311518,5.76577"
       id="path4953-1"
       inkscape:connector-curvature="0"
       sodipodi:nodetypes="cscsc" />
    <path
       style="fill:#ffd5d5;stroke:#000000;stroke-width:2;stroke-linecap:butt;stroke-linejoin:miter;stroke-opacity:1"
       d="M 41.976839,194.19347 C 31.203157,152.00351 58.232227,104.98566 113.62355,92.823213 c 135.48978,-29.749905 192.02711,44.999747 215.9377,97.914817 11.53076,25.51803 15.73225,91.05982 5.6173,100.6987 -9.67272,9.21753 -31.24705,-2.90159 -47.61148,-10.42393 -31.06484,1.87494 -44.57555,2.68522 -94.4617,1.84735 -49.27998,-0.82768 -63.24146,-1.35965 -77.68079,-5.97669"
       id="path5604"
       inkscape:connector-curvature="0"
       sodipodi:nodetypes="cssscsc" />
    <path
       style="fill:#ffd5d5;stroke:none;display:inline"
       d="m 167.89516,235.31989 c 1.06879,14.60722 8.11839,50.59851 15.92697,50.26629 2.1579,-0.0918 4.0365,-1.72172 6.08291,-3.34722 6.58411,-0.7968 4.79408,3.16998 10.90478,4.91338 10.82775,3.08917 29.64753,-26.06242 37.71518,-40.75666"
       id="path4979-4"
       inkscape:connector-curvature="0"
       sodipodi:nodetypes="cscsc" />
    <path
       style="fill:#ffd5d5;stroke:#000000;stroke-width:2;stroke-linecap:butt;stroke-linejoin:miter;stroke-opacity:1"
       d="M 103.79723,268.60174 C 72.232408,262.84764 57.514686,237.47418 52.844158,216.28881"
       id="path5612"
       inkscape:connector-curvature="0"
       sodipodi:nodetypes="cc" />
    <g
       style="display:none"
       inkscape:label="豚: 胴 コピー"
       id="g6954"
       transform="matrix(0.53568664,0.84441685,-0.84441685,0.53568664,-89.388543,-0.77708008)">
      <path
         style="fill:none;stroke:#ff00ff;stroke-width:1;stroke-linecap:butt;stroke-linejoin:miter;stroke-opacity:1"
         d="m -5.6117798,151.73399 c -10.2099832,13.55902 -3.1508643,30.83443 2.2631307,39.87316 8.0227581,13.39404 22.3697661,12.23518 27.4257621,4.73618 9.488716,-14.07367 16.785085,-22.24738 33.227858,-35.50599 7.786235,-6.27843 5.534456,-19.79446 -8.438954,-23.94618 -15.809791,-4.69721 -44.1064392,1.06945 -54.4777968,14.84283 z"
         id="path6956"
         inkscape:connector-curvature="0"
         sodipodi:nodetypes="ssssss" />
      <path
         style="fill:none;stroke:#ff00ff;stroke-width:1;stroke-linecap:butt;stroke-linejoin:miter;stroke-opacity:1"
         d="m -53.976605,142.42937 c -0.04963,-0.1651 -0.111557,-0.32749 -0.145718,-0.49664 -5.571001,-39.90778 17.046505,-67.106464 41.71587,-79.475679"
         id="path6958"
         inkscape:connector-curvature="0"
         sodipodi:nodetypes="ccc" />
      <path
         style="fill:none;stroke:#ff00ff;stroke-width:1;stroke-linecap:butt;stroke-linejoin:miter;stroke-opacity:1"
         d="M -12.742691,64.310155 C -9.0898236,48.702798 11.7025,35.198531 29.042263,35.631774 c 30.447294,0.76077 53.16975,24.994763 44.613692,55.748765 -2.750648,9.886981 -27.040973,-3.800921 -38.325263,-9.609963"
         id="path6960"
         inkscape:connector-curvature="0"
         sodipodi:nodetypes="cssc" />
      <path
         style="fill:none;stroke:#ff00ff;stroke-width:1;stroke-linecap:butt;stroke-linejoin:miter;stroke-opacity:1"
         d="m -55.259752,126.0615 c -5.703776,5.88191 -7.471323,11.80465 -9.177513,19.63833 -2.213439,10.16283 5.487781,29.06831 12.376319,40.24808"
         id="path6962"
         inkscape:connector-curvature="0"
         sodipodi:nodetypes="csc" />
      <path
         style="fill:none;stroke:#ff00ff;stroke-width:1;stroke-linecap:butt;stroke-linejoin:miter;stroke-opacity:1"
         d="m -40.64916,178.05192 c -14.243962,6.53038 -33.369226,28.17889 -33.002714,31.93009 0.264929,2.71158 3.879019,1.72271 4.904802,5.21732 0.75922,2.58647 -2.303419,3.99192 -1.309578,7.98002 1.866155,7.48848 88.121093,7.49742 102.627545,6.0456"
         id="path6964"
         inkscape:connector-curvature="0"
         sodipodi:nodetypes="csssc" />
      <path
         style="fill:none;stroke:#ff00ff;stroke-width:1;stroke-linecap:butt;stroke-linejoin:miter;stroke-opacity:1"
         d="m 82.888262,231.10272 c -35.189808,-0.24179 -49.158804,-0.36199 -63.68466,-4.69915 M 6.7672812,221.18437 C -27.283706,214.61674 -39.269843,184.86644 -44.536026,167.0295"
         id="path6966"
         inkscape:connector-curvature="0"
         sodipodi:nodetypes="cccc" />
      <path
         style="fill:none;stroke:#ff00ff;stroke-width:1;stroke-linecap:butt;stroke-linejoin:miter;stroke-opacity:1"
         d="m 69.611156,191.81399 c 1.350852,14.58384 10.330536,42.08379 18.145305,41.96755 2.221912,-0.0326 5.348016,-3.75201 7.754103,-3.24522 2.29185,0.4827 5.176326,3.42438 7.755836,3.68445 6.25387,0.63044 24.71415,-17.76004 32.49635,-32.60744"
         id="path6968"
         inkscape:connector-curvature="0"
         sodipodi:nodetypes="csssc" />
      <path
         style="fill:none;stroke:#ff00ff;stroke-width:1;stroke-linecap:butt;stroke-linejoin:miter;stroke-opacity:1"
         d="m 111.08252,230.65345 c 35.79534,-0.0435 78.23672,-1.82474 109.25953,-4.29961 16.50674,7.20472 38.31122,18.9047 47.80403,9.50197 9.9268,-9.83253 5.61186,-67.31649 -6.40984,-92.60695 C 236.80762,90.805723 167.37372,19.800175 54.541383,42.744699"
         id="path6970"
         inkscape:connector-curvature="0"
         sodipodi:nodetypes="ccssc" />
      <path
         style="fill:none;stroke:#ff00ff;stroke-width:1;stroke-linecap:butt;stroke-linejoin:miter;stroke-opacity:1"
         d="m 2.4848103,112.82581 c 0.2212205,7.28091 2.1898741,17.15638 3.5342554,22.83098"
         id="path6972"
         inkscape:connector-curvature="0"
         sodipodi:nodetypes="cc" />
      <path
         style="fill:none;stroke:#ff00ff;stroke-width:1;stroke-linecap:butt;stroke-linejoin:miter;stroke-opacity:1"
         d="m -30.68304,151.77693 c 4.233899,0.74468 12.661836,2.8343 17.185592,5.10353"
         id="path6974"
         inkscape:connector-curvature="0"
         sodipodi:nodetypes="cc" />
      <path
         style="fill:none;stroke:#ff00ff;stroke-width:1;stroke-linecap:butt;stroke-linejoin:miter;stroke-opacity:1"
         d="m 13.038296,152.35354 c -0.74538,3.84835 23.388528,15.04696 25.651098,9.75973 2.918902,-6.82107 -24.783024,-14.24144 -25.651098,-9.75973 z"
         id="path6976"
         inkscape:connector-curvature="0"
         sodipodi:nodetypes="sss" />
      <path
         style="fill:none;stroke:#ff00ff;stroke-width:1;stroke-linecap:butt;stroke-linejoin:miter;stroke-opacity:1;display:inline"
         d="M 1.4017213,166.7087 C -1.9178839,169.95354 14.042896,187.08186 18.228401,183.66205 22.848147,179.88743 4.3269935,163.84925 1.4017213,166.7087 z"
         id="path6978"
         inkscape:connector-curvature="0"
         sodipodi:nodetypes="sss" />
      <path
         style="fill:none;stroke:#ff00ff;stroke-width:1;stroke-linecap:butt;stroke-linejoin:miter;stroke-opacity:1"
         d="m 117.97676,224.46924 c -0.0532,-8.37326 -39.499838,-11.71364 -41.618035,-7.1352"
         id="path6980"
         inkscape:connector-curvature="0"
         sodipodi:nodetypes="cc" />
      <path
         style="fill:none;stroke:#ff00ff;stroke-width:1;stroke-linecap:butt;stroke-linejoin:miter;stroke-opacity:1"
         d="m -61.593583,194.05647 c 5.578797,4.74007 12.019004,28.64242 10.258489,34.26334"
         id="path6982"
         inkscape:connector-curvature="0"
         sodipodi:nodetypes="cc" />
    </g>
    <path
       style="fill:#ffaaaa;stroke:#000000;stroke-width:2;stroke-linecap:butt;stroke-linejoin:miter;stroke-opacity:1"
       d="m 87.160263,204.79121 c -10.909213,10.61613 -4.940189,26.78631 2.492209,36.34877 8.125009,10.45357 22.109958,15.83117 28.493338,8.01527 8.26082,-10.11467 23.35064,-20.08463 36.92553,-31.83953 7.56132,-6.54757 2.00911,-20.37492 -15.01019,-23.60477 -18.03181,-3.42199 -40.12559,-1.35182 -52.900887,11.08026 z"
       id="path5602"
       inkscape:connector-curvature="0"
       sodipodi:nodetypes="ssssss" />
    <path
       style="fill:#ffd5d5;stroke:#000000;stroke-width:2;stroke-linecap:butt;stroke-linejoin:miter;stroke-opacity:1"
       d="m 94.035176,102.54293 c 42.921854,-38.80327 110.420764,-9.85348 91.955144,40.30468 -3.54548,9.63057 -38.79593,-5.37172 -54.70284,-6.47893"
       id="path5606"
       inkscape:connector-curvature="0"
       sodipodi:nodetypes="csc" />
    <path
       style="fill:#ffaaaa;stroke:none;display:inline"
       d="m 25.698036,261.13591 c 4.036828,4.18913 -2.212777,9.52515 2.727984,13.05933 2.898558,2.07337 10.013717,2.83484 15.264598,3.24398 10.638265,-0.70474 -1.375022,-41.89093 -9.858728,-39.8273 -5.388558,3.85891 -14.787657,12.15995 -15.839412,17.78118 -0.681218,3.64084 3.899687,4.94806 7.705558,5.74281 z"
       id="path5610-1"
       inkscape:connector-curvature="0"
       sodipodi:nodetypes="csccsc" />
    <path
       style="fill:#ff8080;stroke:none;display:inline"
       d="m 29.15451,262.55134 c 3.590313,2.13946 5.362346,8.22948 -1.199496,10.8708 -3.908743,-3.35026 1.413795,-7.03405 -2.259549,-12.28489 0.628798,0.28495 2.276771,0.70958 3.459045,1.41409 z"
       id="path4953-8"
       inkscape:connector-curvature="0"
       sodipodi:nodetypes="sccs" />
    <path
       style="fill:none;stroke:#000000;stroke-width:2;stroke-linecap:butt;stroke-linejoin:miter;stroke-opacity:1"
       d="m 55.524536,225.06782 c -14.36749,6.25392 -34.698848,19.87751 -37.534738,30.3269 -1.436091,5.29156 7.033088,4.52613 11.164594,7.1569 3.525409,2.24482 5.362353,8.22948 -1.199489,10.8708"
       id="path4953"
       inkscape:connector-curvature="0"
       sodipodi:nodetypes="cssc" />
    <path
       style="fill:none;stroke:#000000;stroke-width:2;stroke-linecap:butt;stroke-linejoin:miter;stroke-opacity:1"
       d="m 25.695365,261.13753 c 3.868069,5.87663 -2.166582,8.35077 2.727977,13.05933 5.561755,5.3504 85.779708,6.93699 100.311518,5.76576"
       id="path5610"
       inkscape:connector-curvature="0"
       sodipodi:nodetypes="csc" />
    <path
       style="fill:#ffaaaa;stroke:none;display:inline"
       d="m 189.90766,282.23589 c 6.73175,-0.35388 5.6162,3.28817 10.90479,4.91338 4.92081,1.51219 9.63661,-2.85494 13.33658,-6.45682 5.60862,-11.12274 -41.04628,-22.70003 -39.50255,-10.16338 1.5717,5.04133 5.02942,15.04137 9.17827,15.05404 1.80768,0.006 3.41657,-1.71315 6.08291,-3.34722 z"
       id="path5614-5"
       inkscape:connector-curvature="0"
       sodipodi:nodetypes="csccsc" />
    <path
       style="fill:#ff8080;stroke:none;display:inline"
       d="m 189.90509,282.23723 c 6.58411,-0.79681 4.79408,3.16998 10.90478,4.91338 l 0.41413,0.10199 c 3.05494,-2.09957 -2.25993,-6.6329 -5.66928,-6.90954 -2.04114,-0.16563 -4.24515,1.01029 -5.64963,1.89417 z"
       id="path5614-4"
       inkscape:connector-curvature="0"
       sodipodi:nodetypes="cccsc" />
    <path
       style="fill:none;stroke:#000000;stroke-width:2;stroke-linecap:butt;stroke-linejoin:miter;stroke-opacity:1"
       d="m 167.8951,235.31845 c 1.06879,14.60722 8.11135,50.24844 15.92697,50.26628 2.47934,0.006 7.25655,-5.54243 11.73254,-5.24139 3.41284,0.22954 8.72422,4.80997 5.66928,6.90955"
       id="path4979"
       inkscape:connector-curvature="0"
       sodipodi:nodetypes="cssc" />
    <path
       style="fill:none;stroke:#000000;stroke-width:2;stroke-linecap:butt;stroke-linejoin:miter;stroke-opacity:1"
       d="m 189.90498,282.23751 c 6.5841,-0.7968 4.79408,3.16998 10.90479,4.91337 10.82773,3.08918 29.64752,-26.0624 37.71516,-40.75665"
       id="path5614"
       inkscape:connector-curvature="0"
       sodipodi:nodetypes="csc" />
    <path
       style="fill:none;stroke:#000000;stroke-width:2;stroke-linecap:butt;stroke-linejoin:miter;stroke-opacity:1"
       d="M 97.6164,170.00308 96.766311,188.7068"
       id="path5618"
       inkscape:connector-curvature="0"
       sodipodi:nodetypes="cc" />
    <path
       style="fill:none;stroke:#000000;stroke-width:2;stroke-linecap:butt;stroke-linejoin:miter;stroke-opacity:1"
       d="m 62.160858,203.72099 17.083764,2.43466"
       id="path5620"
       inkscape:connector-curvature="0"
       sodipodi:nodetypes="cc" />
    <path
       style="fill:#000000;stroke:#000000;stroke-width:2;stroke-linecap:butt;stroke-linejoin:miter;stroke-opacity:1"
       d="m 103.89323,208.67267 c -3.3603,2.01833 34.44628,13.68514 31.6449,8.66258 -7.02611,-12.59702 -28.03873,-10.82859 -31.6449,-8.66258 z"
       id="path5624"
       inkscape:connector-curvature="0"
       sodipodi:nodetypes="sss" />
    <path
       style="fill:#000000;stroke:#000000;stroke-width:2;stroke-linecap:butt;stroke-linejoin:miter;stroke-opacity:1;display:inline"
       d="m 92.334985,220.67898 c -2.144248,4.41752 9.063145,17.07808 19.147595,17.80565 5.95025,0.4293 -17.361299,-21.48572 -19.147595,-17.80565 z"
       id="path5626"
       inkscape:connector-curvature="0"
       sodipodi:nodetypes="sss" />
    <path
       style="fill:none;stroke:#000000;stroke-width:2;stroke-linecap:butt;stroke-linejoin:miter;stroke-opacity:1"
       d="m 214.14635,280.69407 c 5.60862,-11.12274 -41.04628,-22.70003 -39.50255,-10.16338"
       id="path5857"
       inkscape:connector-curvature="0"
       sodipodi:nodetypes="cc" />
    <path
       style="fill:none;stroke:#000000;stroke-width:2;stroke-linecap:butt;stroke-linejoin:miter;stroke-opacity:1"
       d="m 33.82922,237.61354 c 8.218533,-2.85913 20.496992,39.12256 9.858721,39.8273"
       id="path5860"
       inkscape:connector-curvature="0"
       sodipodi:nodetypes="cc" />
  </g>
  <g
     style="display:inline"
     inkscape:label="枠面"
     id="layer7"
     inkscape:groupmode="layer"
     sodipodi:insensitive="true">
    <path
       sodipodi:nodetypes="ccccccccccc"
       inkscape:connector-curvature="0"
       id="path21072"
       d="m 0,0 0,320 370,0 0,-320 -10,10 0,300 -350,0 0,-300 350,0 10,-10 z"
       style="fill:#ffffff;stroke:none;display:inline" />
  </g>
</svg>
