<?xml version="1.0" encoding="UTF-8" standalone="no"?>
<!-- Created with Inkscape (http://www.inkscape.org/) -->

<svg
   xmlns:dc="http://purl.org/dc/elements/1.1/"
   xmlns:cc="http://creativecommons.org/ns#"
   xmlns:rdf="http://www.w3.org/1999/02/22-rdf-syntax-ns#"
   xmlns:svg="http://www.w3.org/2000/svg"
   xmlns="http://www.w3.org/2000/svg"
   xmlns:xlink="http://www.w3.org/1999/xlink"
   xmlns:sodipodi="http://sodipodi.sourceforge.net/DTD/sodipodi-0.dtd"
   xmlns:inkscape="http://www.inkscape.org/namespaces/inkscape"
   width="370"
   height="320"
   id="svg2"
   version="1.1"
   inkscape:version="0.48.4 r9939"
   sodipodi:docname="[01.行動]04.満悦.svg"
   inkscape:export-filename="C:\Users\執安\Desktop\資料\臨時\TAKEDA\[01.行動]04.満悦.png"
   inkscape:export-xdpi="90"
   inkscape:export-ydpi="90"
   enable-background="new">
  <defs
     id="defs4">
    <inkscape:perspective
       sodipodi:type="inkscape:persp3d"
       inkscape:vp_x="363.49708 : 943.81603 : 1"
       inkscape:vp_y="0 : 1000 : 0"
       inkscape:vp_z="744.09448 : 526.18109 : 1"
       inkscape:persp3d-origin="372.04724 : 350.78739 : 1"
       id="perspective5056" />
    <inkscape:perspective
       id="perspective5056-8"
       inkscape:persp3d-origin="372.04724 : 350.78739 : 1"
       inkscape:vp_z="744.09448 : 526.18109 : 1"
       inkscape:vp_y="0 : 1000 : 0"
       inkscape:vp_x="363.49708 : 943.81603 : 1"
       sodipodi:type="inkscape:persp3d" />
    <linearGradient
       id="linearGradient12499-5-3"
       inkscape:collect="always">
      <stop
         id="stop12501-0-8"
         offset="0"
         style="stop-color:#ffd5d5;stop-opacity:1;" />
      <stop
         id="stop12503-9-9"
         offset="1"
         style="stop-color:#ffd5d5;stop-opacity:0;" />
    </linearGradient>
    <linearGradient
       id="linearGradient12499-5"
       inkscape:collect="always">
      <stop
         id="stop12501-0"
         offset="0"
         style="stop-color:#ffd5d5;stop-opacity:1;" />
      <stop
         id="stop12503-9"
         offset="1"
         style="stop-color:#ffd5d5;stop-opacity:0;" />
    </linearGradient>
    <linearGradient
       id="linearGradient12499-8"
       inkscape:collect="always">
      <stop
         id="stop12501-6"
         offset="0"
         style="stop-color:#ffd5d5;stop-opacity:1;" />
      <stop
         id="stop12503-0"
         offset="1"
         style="stop-color:#ffd5d5;stop-opacity:0;" />
    </linearGradient>
    <linearGradient
       gradientTransform="translate(0,-7)"
       gradientUnits="userSpaceOnUse"
       y2="78.526123"
       x2="178.78178"
       y1="135.02612"
       x1="175.8602"
       id="linearGradient12505-2"
       xlink:href="#linearGradient12499-8"
       inkscape:collect="always" />
    <linearGradient
       id="linearGradient12499-9"
       inkscape:collect="always">
      <stop
         id="stop12501-8"
         offset="0"
         style="stop-color:#ffd5d5;stop-opacity:1;" />
      <stop
         id="stop12503-6"
         offset="1"
         style="stop-color:#ffd5d5;stop-opacity:0;" />
    </linearGradient>
    <linearGradient
       gradientTransform="translate(0,-7)"
       gradientUnits="userSpaceOnUse"
       y2="78.526123"
       x2="178.78178"
       y1="135.02612"
       x1="175.8602"
       id="linearGradient12505-1"
       xlink:href="#linearGradient12499-9"
       inkscape:collect="always" />
    <inkscape:perspective
       id="perspective5056-5"
       inkscape:persp3d-origin="372.04724 : 350.78739 : 1"
       inkscape:vp_z="744.09448 : 526.18109 : 1"
       inkscape:vp_y="0 : 1000 : 0"
       inkscape:vp_x="363.49708 : 943.81603 : 1"
       sodipodi:type="inkscape:persp3d" />
    <linearGradient
       id="linearGradient12499"
       inkscape:collect="always">
      <stop
         id="stop12501"
         offset="0"
         style="stop-color:#ffd5d5;stop-opacity:1;" />
      <stop
         id="stop12503"
         offset="1"
         style="stop-color:#ffd5d5;stop-opacity:0;" />
    </linearGradient>
    <linearGradient
       inkscape:collect="always"
       xlink:href="#linearGradient12499"
       id="linearGradient4842"
       gradientUnits="userSpaceOnUse"
       gradientTransform="matrix(0.98323667,-0.18233388,0.18233388,0.98323667,74.736688,42.602255)"
       x1="175.8602"
       y1="135.02612"
       x2="180.12286"
       y2="104.20104" />
    <linearGradient
       inkscape:collect="always"
       xlink:href="#linearGradient12499-5"
       id="linearGradient4848"
       gradientUnits="userSpaceOnUse"
       gradientTransform="matrix(0.99586062,-0.09089341,0.09089341,0.99586062,90.234074,51.049697)"
       x1="184.3886"
       y1="140.77484"
       x2="178.00351"
       y2="106.50191" />
    <linearGradient
       inkscape:collect="always"
       xlink:href="#linearGradient12499-5-3"
       id="linearGradient4854"
       gradientUnits="userSpaceOnUse"
       gradientTransform="matrix(0.99850313,0.05469451,-0.05469451,0.99850313,114.06992,56.176849)"
       x1="186.74098"
       y1="139.74136"
       x2="168.63582"
       y2="87.2258" />
    <inkscape:perspective
       sodipodi:type="inkscape:persp3d"
       inkscape:vp_x="363.49708 : 943.81603 : 1"
       inkscape:vp_y="0 : 1000 : 0"
       inkscape:vp_z="744.09448 : 526.18109 : 1"
       inkscape:persp3d-origin="372.04724 : 350.78739 : 1"
       id="perspective5056-4" />
    <inkscape:perspective
       sodipodi:type="inkscape:persp3d"
       inkscape:vp_x="363.49708 : 943.81603 : 1"
       inkscape:vp_y="0 : 1000 : 0"
       inkscape:vp_z="744.09448 : 526.18109 : 1"
       inkscape:persp3d-origin="372.04724 : 350.78739 : 1"
       id="perspective5056-8-7" />
    <inkscape:perspective
       id="perspective5056-85"
       inkscape:persp3d-origin="372.04724 : 350.78739 : 1"
       inkscape:vp_z="744.09448 : 526.18109 : 1"
       inkscape:vp_y="0 : 1000 : 0"
       inkscape:vp_x="363.49708 : 943.81603 : 1"
       sodipodi:type="inkscape:persp3d" />
    <inkscape:perspective
       id="perspective5056-2"
       inkscape:persp3d-origin="372.04724 : 350.78739 : 1"
       inkscape:vp_z="744.09448 : 526.18109 : 1"
       inkscape:vp_y="0 : 1000 : 0"
       inkscape:vp_x="363.49708 : 943.81603 : 1"
       sodipodi:type="inkscape:persp3d" />
  </defs>
  <sodipodi:namedview
     id="base"
     pagecolor="#ffffff"
     bordercolor="#666666"
     borderopacity="1.0"
     inkscape:pageopacity="0.0"
     inkscape:pageshadow="2"
     inkscape:zoom="1.4142136"
     inkscape:cx="122.85361"
     inkscape:cy="198.78357"
     inkscape:document-units="px"
     inkscape:current-layer="layer16"
     showgrid="false"
     inkscape:window-width="1139"
     inkscape:window-height="693"
     inkscape:window-x="-3"
     inkscape:window-y="-1"
     inkscape:window-maximized="0"
     showguides="true"
     inkscape:guide-bbox="true"
     inkscape:snap-grids="false"
     inkscape:snap-to-guides="false"
     showborder="true"
     inkscape:showpageshadow="false"
     fit-margin-top="0"
     fit-margin-left="0"
     fit-margin-right="0"
     fit-margin-bottom="0"
     inkscape:snap-page="false" />
  <metadata
     id="metadata7">
    <rdf:RDF>
      <cc:Work
         rdf:about="">
        <dc:format>image/svg+xml</dc:format>
        <dc:type
           rdf:resource="http://purl.org/dc/dcmitype/StillImage" />
        <dc:title></dc:title>
      </cc:Work>
    </rdf:RDF>
  </metadata>
  <g
     inkscape:groupmode="layer"
     id="layer2"
     inkscape:label="補助線"
     style="display:none"
     sodipodi:insensitive="true">
    <path
       style="fill:none;stroke:#0000ff;stroke-width:1px;stroke-linecap:butt;stroke-linejoin:miter;stroke-opacity:1"
       d="M 10,310 360,10"
       id="path3025"
       inkscape:connector-curvature="0"
       sodipodi:nodetypes="cc" />
    <path
       style="fill:none;stroke:#0000ff;stroke-width:1px;stroke-linecap:butt;stroke-linejoin:miter;stroke-opacity:1"
       d="M 10,10 360,310"
       id="path3027"
       inkscape:connector-curvature="0"
       sodipodi:nodetypes="cc" />
    <path
       style="fill:none;stroke:#ff0000;stroke-width:1px;stroke-linecap:butt;stroke-linejoin:miter;stroke-opacity:1;display:inline"
       d="m 10,0 0,320"
       id="path3006"
       inkscape:connector-curvature="0"
       sodipodi:nodetypes="cc" />
    <path
       style="fill:none;stroke:#ff0000;stroke-width:1px;stroke-linecap:butt;stroke-linejoin:miter;stroke-opacity:1;display:inline"
       d="m 360,0 0,320"
       id="path3010"
       inkscape:connector-curvature="0"
       sodipodi:nodetypes="cc" />
    <path
       style="fill:none;stroke:#ff0000;stroke-width:1px;stroke-linecap:butt;stroke-linejoin:miter;stroke-opacity:1;display:inline"
       d="M 0,9.9999681 370,10"
       id="path3016"
       inkscape:connector-curvature="0" />
    <path
       transform="translate(84.715796,27.711696)"
       style="fill:none;stroke:#ff0000;stroke-width:1px;stroke-linecap:butt;stroke-linejoin:miter;stroke-opacity:1;display:inline"
       d="m -84.715796,282.2883 369.999996,0"
       id="path3018"
       inkscape:connector-curvature="0"
       sodipodi:nodetypes="cc" />
  </g>
  <g
     inkscape:groupmode="layer"
     id="layer11"
     inkscape:label="豚"
     style="display:inline"
     sodipodi:insensitive="true">
    <path
       sodipodi:nodetypes="cccccccc"
       inkscape:connector-curvature="0"
       id="path4480"
       d="M 208.07211,15.680247 C 184.65905,8.5856993 151.99899,13.279973 144.5829,33.341135 L 120.00705,64.071675 87.110699,86.831514 43.379909,157.13502 282.25,172.87506 l 4.29527,-2.34008 z"
       style="fill:#ffd5d5;stroke:#000000;stroke-width:2;stroke-linecap:butt;stroke-linejoin:miter;stroke-opacity:1;display:inline" />
    <path
       style="fill:#ffd5d5;stroke:#000000;stroke-width:2;stroke-linecap:butt;stroke-linejoin:miter;stroke-opacity:1;display:inline"
       d="m 47.905118,149.36514 c -4.803542,-14.62315 -19.663859,-22.25811 -27.34668,-10.9841 -6.794937,9.9711 -1.178809,48.86272 9.155281,69.40025 7.266091,14.44032 15.105478,13.14606 21.432278,13.86666 28.6556,33.975 68.440393,70.71106 135.121863,69.32934 75.34921,-1.56132 98.03133,-68.68376 102.25593,-121.06456"
       id="path10940"
       inkscape:connector-curvature="0"
       sodipodi:nodetypes="csscsc" />
    <path
       style="fill:#ffd5d5;stroke:#000000;stroke-width:2;stroke-linecap:butt;stroke-linejoin:miter;stroke-opacity:1;display:inline"
       d="M 102.94861,94.794748 C 64.729455,103.88477 42.461481,127.5635 41.784955,159.91442"
       id="path4273"
       inkscape:connector-curvature="0"
       sodipodi:nodetypes="cc" />
    <path
       style="fill:#ffd5d5;stroke:none;display:inline"
       d="m 118.22844,65.92388 c -41.435147,2.146943 -66.788577,36.16817 -62.427477,54.96817 1.84607,7.9581 14.92852,22.42363 24.11031,21.48879 4.20194,-0.42782 0.41176,-7.15903 9.99588,-8.23253 1.386429,0.73744 3.570021,3.37006 6.22243,-1.30994 4.616807,-8.14606 4.031207,-28.327 -2.95051,-38.500134 z"
       id="path10977-3"
       inkscape:connector-curvature="0"
       sodipodi:nodetypes="csscscc" />
    <g
       style="display:none"
       inkscape:label="豚: 胴"
       id="g3163"
       transform="translate(84.22787,28.088182)">
      <path
         style="fill:none;stroke:#ff6600;stroke-width:1.27128243px;stroke-linecap:butt;stroke-linejoin:miter;stroke-opacity:1;display:inline"
         d="m 94.661459,34.861353 c -3.97094,-0.6326 -8.18889,26.039 -3.69308,26.2803 6.92723,0.3717 8.5605,-25.5048 3.69308,-26.2803 z"
         id="path5360"
         inkscape:connector-curvature="0"
         sodipodi:nodetypes="sss" />
      <path
         style="fill:none;stroke:#ff6600;stroke-width:1.16183567px;stroke-linecap:butt;stroke-linejoin:miter;stroke-opacity:1;display:inline"
         d="m 80.040359,28.277253 c -2.31995,-2.2793 -18.55061,12.6215 -14.1937,17.3268 2.80955,3.0342 17.0822,-14.4888 14.1937,-17.3268 z"
         id="path5362"
         inkscape:connector-curvature="0"
         sodipodi:nodetypes="sss" />
      <path
         style="fill:none;stroke:#ff6600;stroke-width:1px;stroke-linecap:butt;stroke-linejoin:miter;stroke-opacity:1;display:inline"
         d="m 77.708629,-0.8008467 c -31.1509,7.4064 -50.2281,29.6189997 -47.7391,60.3395997"
         id="path5456"
         inkscape:connector-curvature="0"
         sodipodi:nodetypes="cc" />
      <path
         style="fill:none;stroke:#ff6600;stroke-width:1px;stroke-linecap:butt;stroke-linejoin:miter;stroke-opacity:1;display:inline"
         d="m 116.70853,-10.522747 c 26.82419,-2.5982 50.17679,8.1369003 68.05279,28.5081"
         id="path5458"
         inkscape:connector-curvature="0"
         sodipodi:nodetypes="cc" />
      <path
         style="fill:none;stroke:#ff6600;stroke-width:1.17214322px;stroke-linecap:butt;stroke-linejoin:miter;stroke-opacity:1;display:inline"
         d="m 95.799679,17.213753 c 16.025811,10.5268 24.339851,34.5065 22.963151,49.599 -1.32363,14.5107 -17.39141,20.008101 -28.638261,8.4525 -15.31421,-15.7347 -29.54517,-17.123 -38.87202,-25.4423 -5.09815,-4.5475 -2.46985,-14.3804 4.32001,-22.5563 7.63025,-9.1878 29.29983,-17.2307 40.22712,-10.0529 z"
         id="path5460"
         inkscape:connector-curvature="0"
         sodipodi:nodetypes="ssssss" />
      <path
         style="fill:none;stroke:#ff6600;stroke-width:1px;stroke-linecap:butt;stroke-linejoin:miter;stroke-opacity:1;display:inline"
         d="m 137.93682,28.940453 c -6.421,-4.0126 -19.01189,-5.5672 -26.22479,-3.5901"
         id="path5462"
         inkscape:connector-curvature="0"
         sodipodi:nodetypes="cc" />
      <path
         style="fill:none;stroke:#ff6600;stroke-width:1px;stroke-linecap:butt;stroke-linejoin:miter;stroke-opacity:1;display:inline"
         d="m 90.756329,11.231953 c 1.0844,-4.1034997 1.6555,-9.1397997 1.8396,-11.3792997"
         id="path5464"
         inkscape:connector-curvature="0"
         sodipodi:nodetypes="cc" />
      <path
         style="fill:none;stroke:#ff6600;stroke-width:1px;stroke-linecap:butt;stroke-linejoin:miter;stroke-opacity:1;display:inline"
         d="m -22.220571,108.34565 c -12.9033,15.1847 -19.6166,43.1168 -12.3268,66.0181"
         id="path5466"
         inkscape:connector-curvature="0"
         sodipodi:nodetypes="cc" />
      <path
         style="fill:none;stroke:#ff6600;stroke-width:1px;stroke-linecap:butt;stroke-linejoin:miter;stroke-opacity:1;display:inline"
         d="m 124.06613,-10.824447 c -10.84865,-7.0592 -23.94827,-5.2331 -33.331101,-3.0744 -14.39914,3.3128 -34.1402,11.9437003 -30.38,19.1518003"
         id="path5468"
         inkscape:connector-curvature="0"
         sodipodi:nodetypes="csc" />
      <path
         style="fill:none;stroke:#ff6600;stroke-width:1px;stroke-linecap:butt;stroke-linejoin:miter;stroke-opacity:1;display:inline"
         d="m 182.22142,17.898853 c 24.8398,-0.8989 35.577,22.4869 37.0472,34.8438 2.4081,20.2405 -10.779,48.138397 -20.3313,50.583397 -13.6651,3.4978 -16.5367,-31.137997 -20.572,-48.100997"
         id="path5470"
         inkscape:connector-curvature="0"
         sodipodi:nodetypes="cssc" />
      <path
         style="fill:none;stroke:#ff6600;stroke-width:1px;stroke-linecap:butt;stroke-linejoin:miter;stroke-opacity:1;display:inline"
         d="m 212.41772,87.331154 c 0.6765,13.115696 -2.1779,36.199796 -8.1218,54.493396 -4.2246,52.3808 -33.0055,106.0524 -76.7752,124.7454"
         id="path5472"
         inkscape:connector-curvature="0"
         sodipodi:nodetypes="ccc" />
      <path
         style="fill:none;stroke:#ff6600;stroke-width:1px;stroke-linecap:butt;stroke-linejoin:miter;stroke-opacity:1;display:inline"
         d="m 29.846829,48.205353 c -36.4750996,9.5042 -59.25,40.800701 -53.3889,56.600697 2.8413,7.6594 12.7125,25.4262 17.5221004,22.1823 1.5357,-1.0358 3.2584,-7.7465 4.7108,-8.82 1.24069996,-0.917 6.2835,-0.8376 8.1263,-2.7059 3.6432996,-3.6936 4.2341996,-24.268496 2.0347,-34.809497"
         id="path5474"
         inkscape:connector-curvature="0"
         sodipodi:nodetypes="cssssc" />
      <path
         style="fill:none;stroke:#ff6600;stroke-width:1px;stroke-linecap:butt;stroke-linejoin:miter;stroke-opacity:1;display:inline"
         d="m 22.801229,74.787053 c -5.5344,1.9469 -9.4037,4.6116 -13.3509996,7.9018"
         id="path5476"
         inkscape:connector-curvature="0"
         sodipodi:nodetypes="cc" />
      <path
         style="fill:none;stroke:#ff6600;stroke-width:1px;stroke-linecap:butt;stroke-linejoin:miter;stroke-opacity:1;display:inline"
         d="m 115.35033,117.97695 c -27.495101,-3.1922 -68.870901,3.4681 -69.182101,10.066 -0.177,3.7526 0.735,6.7885 -0.068,9.091 -0.7356,2.1094 -6.6914,5.1593 -6.0779,9.6135 1.2384,8.9907 22.3425,27.2352 44.636,37.1532"
         id="path5478"
         inkscape:connector-curvature="0"
         sodipodi:nodetypes="csssc" />
      <path
         style="fill:none;stroke:#ff6600;stroke-width:1px;stroke-linecap:butt;stroke-linejoin:miter;stroke-opacity:1;display:inline"
         d="m -36.904371,143.00095 c -1.5454,-7.7604 -13.6793,-26.9556 -22.991,-20.6169 -7.3846,5.0269 3.47,58.5852 9.7946,68.5877 3.9874,6.3063 12.6536,8.2423 18.9804,8.9629 28.6556004,33.975 57.9469,51.2258 103.8654,62.7411 4.9891,13.2311 13.3054,17.6284 17.9261,18.9805 13.759801,4.0265 29.569801,-7.3983 35.430691,-13.5272 14.5447,-15.2099 22.1923,-65.1489 -5.32009,-75.8949 -21.110701,-8.2455 -54.292501,24.0761 -53.073801,51.0024"
         id="path5480"
         inkscape:connector-curvature="0"
         sodipodi:nodetypes="cssccsssc" />
      <path
         style="fill:none;stroke:#ff6600;stroke-width:1px;stroke-linecap:butt;stroke-linejoin:miter;stroke-opacity:1;display:inline"
         d="m 58.305729,121.82475 c 6.9902,0.8908 -2.6649,36.4679 -10.8616,36.2711"
         id="path5764"
         inkscape:connector-curvature="0"
         sodipodi:nodetypes="cc" />
      <path
         style="fill:none;stroke:#ff6600;stroke-width:1px;stroke-linecap:butt;stroke-linejoin:miter;stroke-opacity:1;display:inline"
         d="m 9.6841294,103.05155 c -7.9769,-6.423896 -27.0983004,8.1071 -24.6767004,17.6311"
         id="path5840"
         inkscape:connector-curvature="0"
         sodipodi:nodetypes="cc" />
      <path
         style="fill:none;stroke:#ff6600;stroke-width:1px;stroke-linecap:butt;stroke-linejoin:miter;stroke-opacity:1;display:inline"
         d="m 7.6354294,114.31415 c 0.8781,-2.7095 -8.8343,-1.14 -11.2269,1.0221 -1.8082,1.6338 -6.4933004,12.269 -2.8992,11.9266"
         id="path5842"
         inkscape:connector-curvature="0"
         sodipodi:nodetypes="csc" />
    </g>
    <path
       style="fill:#ffd5d5;stroke:#000000;stroke-width:2;stroke-linecap:butt;stroke-linejoin:miter;stroke-opacity:1;display:inline"
       d="m 286.68448,174.69495 c 10.72611,-13.14352 13.19483,-39.44929 3.29564,-82.981775 C 275.89499,29.772732 232.07394,10.613826 197.06077,16.569591"
       id="path4488"
       inkscape:connector-curvature="0"
       sodipodi:nodetypes="csc" />
    <path
       sodipodi:nodetypes="csc"
       inkscape:connector-curvature="0"
       id="path4504"
       d="m 269.88735,52.456226 c 38.55527,20.063952 38.33576,75.766214 5.74207,90.960424 -15.33508,7.14875 -11.97305,-46.722349 -15.48811,-61.084166"
       style="fill:#ffd5d5;stroke:#000000;stroke-width:2;stroke-linecap:butt;stroke-linejoin:miter;stroke-opacity:1;display:inline" />
    <path
       style="fill:#ffd5d5;stroke:#000000;stroke-width:2;stroke-linecap:butt;stroke-linejoin:miter;stroke-opacity:1;display:inline"
       d="m 151.89067,283.43293 c 4.7817,21.85458 38.8796,35.35626 61.9065,6.54284 13.13837,-16.43997 18.72482,-58.90744 -8.78757,-69.65344 -21.1107,-8.2455 -50.85987,14.75896 -53.56418,44.13714"
       id="path4694"
       inkscape:connector-curvature="0"
       sodipodi:nodetypes="cssc" />
    <g
       transform="translate(84.22787,28.088182)"
       id="g4678"
       inkscape:label="豚: 胴 コピー コピー コピー"
       style="display:none">
      <path
         sodipodi:nodetypes="sssccs"
         inkscape:connector-curvature="0"
         id="path4698"
         d="m 93.476169,534.76604 c -0.6135,-4.4542 5.3423,-7.5041 6.0779,-9.6135 0.803001,-2.3025 -0.109,-5.3384 0.068,-9.091 0.3112,-6.5979 41.687001,-13.2582 40.659801,-8.1421 -21.5321,2.8147 -31.1872,38.3918 -20.7768,51.0974 -3.6864,2.9844 -24.790501,-15.2601 -26.028901,-24.2508 z"
         style="fill:none;stroke:#000000;stroke-width:1px;stroke-linecap:butt;stroke-linejoin:miter;stroke-opacity:1;display:inline" />
      <path
         sodipodi:nodetypes="cssssc"
         inkscape:connector-curvature="0"
         id="path4700"
         d="m -9.9092734,468.0342 c -39.5958306,9.5042 -62.3707306,39.76046 -56.5096306,55.56046 2.8413,7.6594 14.446239,22.47883 24.11031,21.48879 1.842721,-0.18878 3.2584,-7.7465 4.7108,-8.82 1.2407,-0.917 6.2835,-0.8376 8.126301,-2.7059 3.643299,-3.69359 -0.10015,-26.00222 -2.29965,-36.54323"
         style="fill:none;stroke:#000000;stroke-width:1px;stroke-linecap:butt;stroke-linejoin:miter;stroke-opacity:1;display:inline" />
      <path
         sodipodi:nodetypes="cc"
         inkscape:connector-curvature="0"
         id="path4702"
         d="m -28.858355,521.14666 c -7.9769,-6.42389 -27.0983,8.1071 -24.6767,17.63109"
         style="fill:none;stroke:#000000;stroke-width:1px;stroke-linecap:butt;stroke-linejoin:miter;stroke-opacity:1;display:inline" />
      <path
         sodipodi:nodetypes="csc"
         inkscape:connector-curvature="0"
         id="path4704"
         d="m -28.653193,531.88913 c 0.8781,-2.70949 -8.834301,-1.13999 -11.226901,1.0221 -1.8082,1.6338 -6.4933,12.269 -2.8992,11.9266"
         style="fill:none;stroke:#000000;stroke-width:1px;stroke-linecap:butt;stroke-linejoin:miter;stroke-opacity:1;display:inline" />
    </g>
    <path
       sodipodi:nodetypes="ccsssc"
       inkscape:connector-curvature="0"
       id="path4490-8"
       d="m 149.98335,142.82018 c 7.14198,7.74816 -14.69937,45.90372 -19.71867,43.32293 -3.15642,-3.80754 -6.64335,-10.54831 -7.41988,-14.31944 -1.52832,-7.42216 5.58275,-6.50745 5.8279,-11.1135 0.327,-6.14628 -4.93547,-7.30952 0.318,-12.091 4.40411,-4.00843 14.6933,-5.75024 20.99265,-5.79899 z"
       style="fill:#ffaaaa;stroke:none;display:inline" />
    <path
       sodipodi:nodetypes="csssc"
       inkscape:connector-curvature="0"
       id="path4486"
       d="m 210.45928,151.55254 c -32.2451,-10.4422 -71.1039,-12.07534 -81.46763,-2.934 -5.32737,4.69901 0.009,5.94472 -0.318,12.091 -0.24515,4.60605 -7.1914,3.6593 -5.8279,11.1135 1.63299,8.92747 15.5925,27.2352 35.386,41.6532"
       style="fill:none;stroke:#000000;stroke-width:2;stroke-linecap:butt;stroke-linejoin:miter;stroke-opacity:1;display:inline" />
    <path
       sodipodi:nodetypes="cc"
       inkscape:connector-curvature="0"
       id="path4490"
       d="m 149.9843,142.81955 c 7.14198,7.74816 -14.69937,45.90372 -19.71867,43.32293"
       style="fill:none;stroke:#000000;stroke-width:2;stroke-linecap:butt;stroke-linejoin:miter;stroke-opacity:1;display:inline" />
    <path
       style="fill:#ffaaaa;stroke:none;display:inline"
       d="m 96.123003,132.84227 c 1.325186,-1.86516 3.2332,-7.30761 3.3755,-12.64356 -4.43259,-19.31582 -42.541021,6.6128 -31.466291,17.35852 3.394,2.88324 9.234317,5.0401 11.87248,4.82751 4.210027,-0.33925 0.53676,-7.09653 9.995891,-8.23253 1.87491,1.50004 2.970068,3.26764 6.22242,-1.30994 z"
       id="path4271-8"
       inkscape:connector-curvature="0"
       sodipodi:nodetypes="sccscs" />
    <path
       style="fill:#ff8080;stroke:none;display:inline"
       d="m 85.242578,129.36052 c -6.90014,-2.46887 -12.96219,11.58845 -5.33395,13.01957 4.20116,-0.42776 0.153157,-6.9949 9.737287,-8.0684 -1.725578,-1.98919 -2.680892,-4.33488 -4.403337,-4.95117 z"
       id="path4271-1"
       inkscape:connector-curvature="0"
       sodipodi:nodetypes="sccs" />
    <path
       sodipodi:nodetypes="cssc"
       inkscape:connector-curvature="0"
       id="path10977"
       d="m 118.22478,65.925672 c -41.435146,2.146943 -66.788579,36.168168 -62.427479,54.968168 1.846069,7.9581 14.928519,22.42363 24.110311,21.48879 4.201946,-0.42782 0.153945,-6.99497 9.738073,-8.06847"
       style="fill:none;stroke:#000000;stroke-width:2;stroke-linecap:butt;stroke-linejoin:miter;stroke-opacity:1;display:inline" />
    <path
       sodipodi:nodetypes="cssc"
       inkscape:connector-curvature="0"
       id="path4271"
       d="m 79.909183,142.38251 c -7.629025,-1.43106 -1.662476,-15.20315 5.333166,-13.01951 2.857166,0.89185 5.915679,11.86539 10.883572,3.47716 5.748469,-9.70622 4.031209,-28.32699 -2.950506,-38.500132"
       style="fill:none;stroke:#000000;stroke-width:2;stroke-linecap:butt;stroke-linejoin:miter;stroke-opacity:1;display:inline" />
    <path
       style="fill:none;stroke:#000000;stroke-width:2;stroke-linecap:butt;stroke-linejoin:miter;stroke-opacity:1;display:inline"
       d="m 99.501418,120.1966 c -4.432585,-19.31582 -42.541017,6.6128 -31.466292,17.35852"
       id="path4281"
       inkscape:connector-curvature="0"
       sodipodi:nodetypes="cc" />
    <path
       sodipodi:nodetypes="cc"
       inkscape:connector-curvature="0"
       id="path4472"
       d="M 159.36146,26.919472 C 130.04987,32.854421 112.87511,61.740838 114.1974,87.626935"
       style="fill:#ffd5d5;stroke:#000000;stroke-width:2;stroke-linecap:butt;stroke-linejoin:miter;stroke-opacity:1;display:inline" />
    <path
       sodipodi:nodetypes="ssssss"
       inkscape:connector-curvature="0"
       id="path4474"
       d="m 177.60311,44.394624 c 12.38429,7.326426 17.68693,26.670451 17.05941,41.844617 -0.61569,14.888189 -10.73811,31.527719 -23.38916,20.950179 -10.71801,-8.961321 -25.40132,-18.068592 -35.386,-23.806945 -8.30173,-4.771142 -3.81878,-20.894287 5.89783,-30.303348 9.281,-8.987243 24.3108,-15.492001 35.81792,-8.684503 z"
       style="fill:#ffaaaa;stroke:#000000;stroke-width:2;stroke-linecap:butt;stroke-linejoin:miter;stroke-opacity:1;display:inline" />
    <path
       sodipodi:nodetypes="cc"
       inkscape:connector-curvature="0"
       id="path4476"
       d="m 222.16469,57.028635 c -6.421,-4.0126 -19.01189,-5.5672 -26.22479,-3.5901"
       style="fill:none;stroke:#000000;stroke-width:2;stroke-linecap:butt;stroke-linejoin:miter;stroke-opacity:1;display:inline" />
    <path
       sodipodi:nodetypes="cc"
       inkscape:connector-curvature="0"
       id="path4478"
       d="m 174.9842,39.320135 c 1.0844,-4.1035 1.6555,-9.1398 1.8396,-11.3793"
       style="fill:none;stroke:#000000;stroke-width:2;stroke-linecap:butt;stroke-linejoin:miter;stroke-opacity:1;display:inline" />
    <path
       sodipodi:nodetypes="sss"
       inkscape:connector-curvature="0"
       id="path4506"
       d="m 175.41631,58.989645 c -3.43428,-2.261606 -6.88476,33.927763 -2.75391,31.894268 8.41414,-4.142034 7.99757,-28.441117 2.75391,-31.894268 z"
       style="fill:#000000;stroke:#000000;stroke-width:2;stroke-linecap:butt;stroke-linejoin:miter;stroke-opacity:1;display:inline" />
    <path
       sodipodi:nodetypes="sss"
       inkscape:connector-curvature="0"
       id="path4508"
       d="m 163.11241,52.522451 c -3.96854,-1.266881 -17.66423,14.704591 -14.8047,23.77259 1.2718,4.033079 18.74968,-22.513234 14.8047,-23.77259 z"
       style="fill:#000000;stroke:#000000;stroke-width:2;stroke-linecap:butt;stroke-linejoin:miter;stroke-opacity:1;display:inline" />
  </g>
  <g
     inkscape:groupmode="layer"
     id="layer16"
     inkscape:label="擬態"
     style="display:inline"
     sodipodi:insensitive="true">
    <path
       transform="matrix(-1,0,0,1,362.0527,125.3318)"
       sodipodi:type="arc"
       style="fill:#ffff00;stroke:none"
       id="path20532-8-7"
       sodipodi:cx="38.767509"
       sodipodi:cy="62.035736"
       sodipodi:rx="22.444349"
       sodipodi:ry="22.444349"
       d="m 61.211859,62.035736 a 22.444349,22.444349 0 1 1 -44.888699,0 22.444349,22.444349 0 1 1 44.888699,0 z" />
    <path
       sodipodi:type="arc"
       style="fill:#ffff00;fill-opacity:0.75294118;stroke:#000000;stroke-width:2"
       id="path20532"
       sodipodi:cx="38.767509"
       sodipodi:cy="62.035736"
       sodipodi:rx="22.444349"
       sodipodi:ry="22.444349"
       d="m 61.211859,62.035736 a 22.444349,22.444349 0 1 1 -44.888699,0 22.444349,22.444349 0 1 1 44.888699,0 z" />
    <path
       style="fill:#ffffff;stroke:#000000;stroke-width:2;stroke-linecap:butt;stroke-linejoin:miter;stroke-opacity:1"
       d="m 30.710547,58.857298 c 3.179062,-2.352568 7.378322,-1.836294 10.557384,-1.513504 -1.138667,-3.193593 -7.669807,-5.108288 -10.557384,1.513504 z"
       id="path20534"
       inkscape:connector-curvature="0"
       sodipodi:nodetypes="ccc" />
    <path
       style="fill:#ffffff;stroke:#000000;stroke-width:2;stroke-linecap:butt;stroke-linejoin:miter;stroke-opacity:1"
       d="m 46.605646,56.822393 c 2.304607,-2.789796 3.297532,-4.313917 6.476594,-3.991127 -1.138667,-3.193593 -4.609214,-3.067893 -6.476594,3.991127 z"
       id="path20534-8"
       inkscape:connector-curvature="0"
       sodipodi:nodetypes="ccc" />
    <path
       style="fill:#ffffff;stroke:#000000;stroke-width:2;stroke-linecap:butt;stroke-linejoin:miter;stroke-opacity:1"
       d="m 35.08163,65.10471 c 6.676882,10.472775 18.105934,6.282602 18.576256,-5.85345 -3.051001,4.960665 -11.401778,7.066392 -18.576256,5.85345 z"
       id="path20534-4"
       inkscape:connector-curvature="0"
       sodipodi:nodetypes="ccc" />
    <path
       style="fill:none;stroke:#000000;stroke-width:2;stroke-linecap:butt;stroke-linejoin:miter;stroke-opacity:1"
       d="M 33.621583,129.84211 C 34.068717,114.97498 44.388575,98.1737 55.352908,92.335962"
       id="path20572"
       inkscape:connector-curvature="0"
       sodipodi:nodetypes="cc" />
    <path
       style="fill:none;stroke:#000000;stroke-width:2;stroke-linecap:butt;stroke-linejoin:miter;stroke-opacity:1"
       d="m 297.31474,194.66143 c 0.10162,27.96698 -9.68653,54.04208 -26.54585,72.38831"
       id="path20578"
       inkscape:connector-curvature="0"
       sodipodi:nodetypes="cc" />
    <path
       transform="matrix(-1,0,0,1,347.93409,-21.522322)"
       sodipodi:type="arc"
       style="fill:#ffff00;fill-opacity:0.75294118;stroke:#000000;stroke-width:2"
       id="path20532-1"
       sodipodi:cx="38.767509"
       sodipodi:cy="62.035736"
       sodipodi:rx="22.444349"
       sodipodi:ry="22.444349"
       d="m 61.211859,62.035736 a 22.444349,22.444349 0 1 1 -44.888699,0 22.444349,22.444349 0 1 1 44.888699,0 z" />
    <path
       style="fill:#ffffff;stroke:#000000;stroke-width:2;stroke-linecap:butt;stroke-linejoin:miter;stroke-opacity:1"
       d="m 314.15082,41.254329 c -1.33976,-1.7088 -10.28506,-2.346723 -10.6559,-1.407108 1.67604,-4.133986 8.87191,-5.306647 10.6559,1.407108 z"
       id="path20534-43"
       inkscape:connector-curvature="0"
       sodipodi:nodetypes="ccc" />
    <path
       style="fill:#ffffff;stroke:#000000;stroke-width:2;stroke-linecap:butt;stroke-linejoin:miter;stroke-opacity:1"
       d="m 299.26734,38.391738 c -0.15864,-1.749327 -5.83369,-4.899186 -6.4766,-3.99113 1.13867,-3.19359 6.43005,-2.547653 6.4766,3.99113 z"
       id="path20534-8-9"
       inkscape:connector-curvature="0"
       sodipodi:nodetypes="ccc" />
    <path
       style="fill:#ffffff;stroke:#000000;stroke-width:2;stroke-linecap:butt;stroke-linejoin:miter;stroke-opacity:1"
       d="m 311.23969,46.315661 c -6.67688,10.47277 -19.00463,6.420548 -18.50931,-5.669519 2.15501,3.867668 11.22573,7.865231 18.50931,5.669519 z"
       id="path20534-4-8"
       inkscape:connector-curvature="0"
       sodipodi:nodetypes="ccc" />
    <path
       style="fill:#ffffff;stroke:#000000;stroke-width:2;stroke-linecap:butt;stroke-linejoin:miter;stroke-opacity:1"
       d="m 310.97171,182.19688 c -2.3046,-2.78979 -4.77566,-3.78827 -6.30584,-4.39298 1.13867,-3.1936 4.43846,-2.66604 6.30584,4.39298 z"
       id="path20534-8-8"
       inkscape:connector-curvature="0"
       sodipodi:nodetypes="ccc" />
    <path
       style="fill:#ffffff;stroke:#000000;stroke-width:2;stroke-linecap:butt;stroke-linejoin:miter;stroke-opacity:1"
       d="m 301.83828,180.42258 c -0.0866,2.45501 0.93236,5.6951 6.68585,6.30394 -5.14432,8.06893 -7.40274,7.76021 -7.74571,1.40861"
       id="path20534-4-7"
       inkscape:connector-curvature="0"
       sodipodi:nodetypes="ccc" />
    <path
       transform="matrix(-1,0,0,1,361.94964,125.22875)"
       sodipodi:type="arc"
       style="fill:none;stroke:#000000;stroke-width:2"
       id="path20532-8"
       sodipodi:cx="38.767509"
       sodipodi:cy="62.035736"
       sodipodi:rx="22.444349"
       sodipodi:ry="22.444349"
       d="m 61.211859,62.035736 a 22.444349,22.444349 0 1 1 -44.888699,0 22.444349,22.444349 0 1 1 44.888699,0 z" />
    <path
       style="fill:none;stroke:#000000;stroke-width:2;stroke-linecap:butt;stroke-linejoin:miter;stroke-opacity:1;display:inline"
       d="M 24.031656,117.99315 C 25.519263,106.76768 32.870075,94.774755 41.627231,88.569144"
       id="path20572-7"
       inkscape:connector-curvature="0"
       sodipodi:nodetypes="cc" />
    <path
       style="fill:none;stroke:#000000;stroke-width:2;stroke-linecap:butt;stroke-linejoin:miter;stroke-opacity:1;display:inline"
       d="m 310.29023,211.63078 c -0.93886,21.20391 -7.60559,37.91475 -20.30301,52.09908"
       id="path20578-8"
       inkscape:connector-curvature="0"
       sodipodi:nodetypes="cc" />
  </g>
  <g
     inkscape:groupmode="layer"
     id="layer7"
     inkscape:label="枠面"
     style="display:inline;"
     sodipodi:insensitive="true">
    <path
       style="fill:#ffffff;stroke:none;display:inline"
       d="m 0,0 0,320 370,0 0,-320 -10,10 0,300 -350,0 0,-300 350,0 10,-10 z"
       id="path21072"
       inkscape:connector-curvature="0"
       sodipodi:nodetypes="ccccccccccc" />
  </g>
</svg>
