<?xml version="1.0" encoding="UTF-8" standalone="no"?>
<!-- Created with Inkscape (http://www.inkscape.org/) -->

<svg
   xmlns:dc="http://purl.org/dc/elements/1.1/"
   xmlns:cc="http://creativecommons.org/ns#"
   xmlns:rdf="http://www.w3.org/1999/02/22-rdf-syntax-ns#"
   xmlns:svg="http://www.w3.org/2000/svg"
   xmlns="http://www.w3.org/2000/svg"
   xmlns:xlink="http://www.w3.org/1999/xlink"
   xmlns:sodipodi="http://sodipodi.sourceforge.net/DTD/sodipodi-0.dtd"
   xmlns:inkscape="http://www.inkscape.org/namespaces/inkscape"
   width="370"
   height="320"
   id="svg2"
   version="1.1"
   inkscape:version="0.48.4 r9939"
   sodipodi:docname="[01.行動]11.発熱.svg"
   inkscape:export-filename="C:\Users\執安\Desktop\資料\臨時\TAKEDA\[01.行動]11.発熱.png"
   inkscape:export-xdpi="90"
   inkscape:export-ydpi="90"
   enable-background="new">
  <defs
     id="defs4">
    <inkscape:perspective
       sodipodi:type="inkscape:persp3d"
       inkscape:vp_x="363.49708 : 943.81603 : 1"
       inkscape:vp_y="0 : 1000 : 0"
       inkscape:vp_z="744.09448 : 526.18109 : 1"
       inkscape:persp3d-origin="372.04724 : 350.78739 : 1"
       id="perspective5056" />
    <inkscape:perspective
       id="perspective5056-8"
       inkscape:persp3d-origin="372.04724 : 350.78739 : 1"
       inkscape:vp_z="744.09448 : 526.18109 : 1"
       inkscape:vp_y="0 : 1000 : 0"
       inkscape:vp_x="363.49708 : 943.81603 : 1"
       sodipodi:type="inkscape:persp3d" />
    <linearGradient
       id="linearGradient12499-5-3"
       inkscape:collect="always">
      <stop
         id="stop12501-0-8"
         offset="0"
         style="stop-color:#ffd5d5;stop-opacity:1;" />
      <stop
         id="stop12503-9-9"
         offset="1"
         style="stop-color:#ffd5d5;stop-opacity:0;" />
    </linearGradient>
    <linearGradient
       id="linearGradient12499-5"
       inkscape:collect="always">
      <stop
         id="stop12501-0"
         offset="0"
         style="stop-color:#ffd5d5;stop-opacity:1;" />
      <stop
         id="stop12503-9"
         offset="1"
         style="stop-color:#ffd5d5;stop-opacity:0;" />
    </linearGradient>
    <linearGradient
       id="linearGradient12499-8"
       inkscape:collect="always">
      <stop
         id="stop12501-6"
         offset="0"
         style="stop-color:#ffd5d5;stop-opacity:1;" />
      <stop
         id="stop12503-0"
         offset="1"
         style="stop-color:#ffd5d5;stop-opacity:0;" />
    </linearGradient>
    <linearGradient
       gradientTransform="translate(0,-7)"
       gradientUnits="userSpaceOnUse"
       y2="78.526123"
       x2="178.78178"
       y1="135.02612"
       x1="175.8602"
       id="linearGradient12505-2"
       xlink:href="#linearGradient12499-8"
       inkscape:collect="always" />
    <linearGradient
       id="linearGradient12499-9"
       inkscape:collect="always">
      <stop
         id="stop12501-8"
         offset="0"
         style="stop-color:#ffd5d5;stop-opacity:1;" />
      <stop
         id="stop12503-6"
         offset="1"
         style="stop-color:#ffd5d5;stop-opacity:0;" />
    </linearGradient>
    <linearGradient
       gradientTransform="translate(0,-7)"
       gradientUnits="userSpaceOnUse"
       y2="78.526123"
       x2="178.78178"
       y1="135.02612"
       x1="175.8602"
       id="linearGradient12505-1"
       xlink:href="#linearGradient12499-9"
       inkscape:collect="always" />
    <inkscape:perspective
       id="perspective5056-5"
       inkscape:persp3d-origin="372.04724 : 350.78739 : 1"
       inkscape:vp_z="744.09448 : 526.18109 : 1"
       inkscape:vp_y="0 : 1000 : 0"
       inkscape:vp_x="363.49708 : 943.81603 : 1"
       sodipodi:type="inkscape:persp3d" />
    <linearGradient
       id="linearGradient12499"
       inkscape:collect="always">
      <stop
         id="stop12501"
         offset="0"
         style="stop-color:#ffd5d5;stop-opacity:1;" />
      <stop
         id="stop12503"
         offset="1"
         style="stop-color:#ffd5d5;stop-opacity:0;" />
    </linearGradient>
    <linearGradient
       inkscape:collect="always"
       xlink:href="#linearGradient12499"
       id="linearGradient4842"
       gradientUnits="userSpaceOnUse"
       gradientTransform="matrix(0.98323667,-0.18233388,0.18233388,0.98323667,74.736688,42.602255)"
       x1="175.8602"
       y1="135.02612"
       x2="180.12286"
       y2="104.20104" />
    <linearGradient
       inkscape:collect="always"
       xlink:href="#linearGradient12499-5"
       id="linearGradient4848"
       gradientUnits="userSpaceOnUse"
       gradientTransform="matrix(0.99586062,-0.09089341,0.09089341,0.99586062,90.234074,51.049697)"
       x1="184.3886"
       y1="140.77484"
       x2="178.00351"
       y2="106.50191" />
    <linearGradient
       inkscape:collect="always"
       xlink:href="#linearGradient12499-5-3"
       id="linearGradient4854"
       gradientUnits="userSpaceOnUse"
       gradientTransform="matrix(0.99850313,0.05469451,-0.05469451,0.99850313,114.06992,56.176849)"
       x1="186.74098"
       y1="139.74136"
       x2="168.63582"
       y2="87.2258" />
    <inkscape:perspective
       sodipodi:type="inkscape:persp3d"
       inkscape:vp_x="363.49708 : 943.81603 : 1"
       inkscape:vp_y="0 : 1000 : 0"
       inkscape:vp_z="744.09448 : 526.18109 : 1"
       inkscape:persp3d-origin="372.04724 : 350.78739 : 1"
       id="perspective5056-4" />
    <inkscape:perspective
       sodipodi:type="inkscape:persp3d"
       inkscape:vp_x="363.49708 : 943.81603 : 1"
       inkscape:vp_y="0 : 1000 : 0"
       inkscape:vp_z="744.09448 : 526.18109 : 1"
       inkscape:persp3d-origin="372.04724 : 350.78739 : 1"
       id="perspective5056-8-7" />
    <inkscape:perspective
       id="perspective5056-85"
       inkscape:persp3d-origin="372.04724 : 350.78739 : 1"
       inkscape:vp_z="744.09448 : 526.18109 : 1"
       inkscape:vp_y="0 : 1000 : 0"
       inkscape:vp_x="363.49708 : 943.81603 : 1"
       sodipodi:type="inkscape:persp3d" />
    <inkscape:perspective
       id="perspective5056-1"
       inkscape:persp3d-origin="372.04724 : 350.78739 : 1"
       inkscape:vp_z="744.09448 : 526.18109 : 1"
       inkscape:vp_y="0 : 1000 : 0"
       inkscape:vp_x="363.49708 : 943.81603 : 1"
       sodipodi:type="inkscape:persp3d" />
  </defs>
  <sodipodi:namedview
     id="base"
     pagecolor="#ffffff"
     bordercolor="#666666"
     borderopacity="1.0"
     inkscape:pageopacity="0.0"
     inkscape:pageshadow="2"
     inkscape:zoom="1"
     inkscape:cx="10.071193"
     inkscape:cy="241.98188"
     inkscape:document-units="px"
     inkscape:current-layer="layer12"
     showgrid="false"
     inkscape:window-width="1139"
     inkscape:window-height="694"
     inkscape:window-x="-3"
     inkscape:window-y="-2"
     inkscape:window-maximized="0"
     showguides="true"
     inkscape:guide-bbox="true"
     inkscape:snap-grids="false"
     inkscape:snap-to-guides="false"
     showborder="true"
     inkscape:showpageshadow="false"
     fit-margin-top="0"
     fit-margin-left="0"
     fit-margin-right="0"
     fit-margin-bottom="0"
     inkscape:snap-page="false" />
  <metadata
     id="metadata7">
    <rdf:RDF>
      <cc:Work
         rdf:about="">
        <dc:format>image/svg+xml</dc:format>
        <dc:type
           rdf:resource="http://purl.org/dc/dcmitype/StillImage" />
        <dc:title></dc:title>
      </cc:Work>
    </rdf:RDF>
  </metadata>
  <g
     inkscape:groupmode="layer"
     id="layer2"
     inkscape:label="補助線"
     style="display:none"
     sodipodi:insensitive="true">
    <path
       style="fill:none;stroke:#0000ff;stroke-width:1px;stroke-linecap:butt;stroke-linejoin:miter;stroke-opacity:1"
       d="M 10,310 360,10"
       id="path3025"
       inkscape:connector-curvature="0"
       sodipodi:nodetypes="cc" />
    <path
       style="fill:none;stroke:#0000ff;stroke-width:1px;stroke-linecap:butt;stroke-linejoin:miter;stroke-opacity:1"
       d="M 10,10 360,310"
       id="path3027"
       inkscape:connector-curvature="0"
       sodipodi:nodetypes="cc" />
    <path
       style="fill:none;stroke:#ff0000;stroke-width:1px;stroke-linecap:butt;stroke-linejoin:miter;stroke-opacity:1;display:inline"
       d="m 10,0 0,320"
       id="path3006"
       inkscape:connector-curvature="0"
       sodipodi:nodetypes="cc" />
    <path
       style="fill:none;stroke:#ff0000;stroke-width:1px;stroke-linecap:butt;stroke-linejoin:miter;stroke-opacity:1;display:inline"
       d="m 360,0 0,320"
       id="path3010"
       inkscape:connector-curvature="0"
       sodipodi:nodetypes="cc" />
    <path
       style="fill:none;stroke:#ff0000;stroke-width:1px;stroke-linecap:butt;stroke-linejoin:miter;stroke-opacity:1;display:inline"
       d="M 0,9.9999681 370,10"
       id="path3016"
       inkscape:connector-curvature="0" />
    <path
       transform="translate(84.715796,27.711696)"
       style="fill:none;stroke:#ff0000;stroke-width:1px;stroke-linecap:butt;stroke-linejoin:miter;stroke-opacity:1;display:inline"
       d="m -84.715796,282.2883 369.999996,0"
       id="path3018"
       inkscape:connector-curvature="0"
       sodipodi:nodetypes="cc" />
  </g>
  <g
     inkscape:groupmode="layer"
     id="layer15"
     inkscape:label="敷布団"
     sodipodi:insensitive="true">
    <path
       sodipodi:nodetypes="sssssssss"
       inkscape:connector-curvature="0"
       id="path11550"
       d="M 16.166464,141.51914 179.70537,293.47442 c 8.60016,7.99101 20.24876,10.82467 31.86634,4.39902 l 130.66881,-72.27243 c 5.83232,-3.22583 9.64039,-10.92369 0.91317,-18.05119 L 172.61537,68.271521 c -4.41922,-3.60916 -10.75349,-6.695356 -17.12384,-4.145301 L 18.906929,118.801 c -10.676496,4.2738 -10.423475,15.57933 -2.740465,22.71814 z"
       style="fill:#fefefe;fill-opacity:1;stroke:#000000;stroke-width:2;stroke-linecap:butt;stroke-linejoin:miter;stroke-opacity:1;display:inline" />
  </g>
  <g
     inkscape:groupmode="layer"
     id="layer14"
     inkscape:label="枕"
     sodipodi:insensitive="true">
    <path
       sodipodi:nodetypes="ssssccs"
       inkscape:connector-curvature="0"
       id="path11546"
       d="M 37.252744,106.28922 C 48.303744,93.402969 149.23185,54.05727 167.80888,55.869946 180.89441,57.146783 212.93492,75.532582 213.7336,90.860209 214.78396,111.01793 100.82622,157.89655 82.461102,156.85603 69.23293,156.10656 63.5781,147.79893 59.193263,149.90629 L 35.556029,128.87727 c 5.883722,-3.574 -5.790453,-13.85747 1.696715,-22.58805 z"
       style="fill:#800000;stroke:#000000;stroke-width:2;stroke-linecap:butt;stroke-linejoin:miter;stroke-opacity:1;display:inline" />
    <path
       sodipodi:nodetypes="ccscc"
       inkscape:connector-curvature="0"
       id="path5751-1-7"
       d="m 63.21304,146.32688 7.170601,6.39418 c -0.07645,0.5024 -0.24237,1.32233 -0.338487,2.02774 -0.315154,2.31293 -4.741087,1.53644 -5.271243,-2.6221 0.119267,-2.97328 -1.123181,-4.25748 -1.560871,-5.79982 z"
       style="fill:#666666;stroke:#000000;stroke-width:2;stroke-linecap:butt;stroke-linejoin:miter;stroke-opacity:1;display:inline" />
    <path
       sodipodi:nodetypes="ccsscccc"
       inkscape:connector-curvature="0"
       id="path5751-1-1"
       d="m 61.938152,149.43942 7.492807,6.47677 -0.220199,3.55302 c -0.03452,0.55742 -0.252756,1.04923 -0.725719,1.28057 l -2.837135,1.38771 -7.458078,-7.01165 3.640415,-0.51168 z"
       style="fill:#808080;stroke:#000000;stroke-width:2;stroke-linecap:butt;stroke-linejoin:miter;stroke-opacity:1;display:inline" />
    <path
       sodipodi:nodetypes="cc"
       inkscape:connector-curvature="0"
       id="path5823"
       d="m 68.729833,160.58428 -5.290595,-4.96856"
       style="fill:none;stroke:#000000;stroke-width:2;stroke-linecap:butt;stroke-linejoin:miter;stroke-opacity:1" />
    <path
       sodipodi:nodetypes="ccscssc"
       inkscape:connector-curvature="0"
       id="path5751-1"
       d="m 29.607855,125.05398 35.424745,32.51226 -0.130574,2.83626 c -0.04196,0.91143 0.441274,1.55877 0.919897,1.89935 L 30.498302,129.54291 c -0.447612,-0.41512 -0.733146,-1.06834 -0.767771,-1.8213 z"
       style="fill:#b3b3b3;stroke:#000000;stroke-width:2;stroke-linecap:butt;stroke-linejoin:miter;stroke-opacity:1;display:inline" />
    <path
       sodipodi:nodetypes="ccccc"
       inkscape:connector-curvature="0"
       id="path11546-5"
       d="m 58.851802,150.04092 c -6.438898,3.09455 0.29288,9.2908 -1.446712,14.97948 L 21.627895,129.81796 c 1.253107,-2.37552 10.036266,1.35059 13.586687,-0.80606 z"
       style="fill:#800000;stroke:#000000;stroke-width:2;stroke-linecap:butt;stroke-linejoin:miter;stroke-opacity:1;display:inline" />
    <path
       sodipodi:nodetypes="ccscssscssssc"
       inkscape:connector-curvature="0"
       id="path5782"
       d="m 33.845675,119.55267 36.711638,33.28429 c -0.337274,-0.37196 -0.791473,-0.49111 -1.414906,-0.20021 l -2.940091,1.37187 c -1.578772,0.5732 -1.159573,1.89313 -1.435597,3.17175 -0.744871,3.45045 -5.042851,0.29161 -5.219849,-2.28055 -0.203733,-2.96069 -1.52587,-4.86276 -2.6401,-5.91904 l -27.248692,-25.03916 -0.03195,-2.0585 c -0.0117,-0.75607 0.102367,-1.49229 0.832363,-1.69314 l 2.766301,-0.76114 c 0.188842,-0.052 0.425618,-0.0532 0.620901,0.12383 z"
       style="fill:#999999;stroke:#000000;stroke-width:2;stroke-linecap:butt;stroke-linejoin:miter;stroke-opacity:1" />
    <path
       sodipodi:nodetypes="cssc"
       inkscape:connector-curvature="0"
       id="path5786"
       d="m 33.673674,124.00066 30.056104,27.24204 c 1.516588,1.3746 4.152743,0.28355 2.679598,-1.05423 L 37.011655,123.49216"
       style="fill:#666666;stroke:#000000;stroke-width:2;stroke-linecap:butt;stroke-linejoin:miter;stroke-opacity:1" />
    <path
       sodipodi:nodetypes="sss"
       inkscape:connector-curvature="0"
       id="path5749-7"
       d="M 21.017535,132.17786 C 20.320612,118.87594 57.986169,151.12283 57.502474,164.21343 57.13101,174.26645 21.617737,143.63398 21.017535,132.17786 z"
       style="fill:#2b0000;stroke:#000000;stroke-width:2;stroke-linecap:butt;stroke-linejoin:miter;stroke-opacity:1;display:inline" />
    <path
       sodipodi:nodetypes="ssssssssss"
       inkscape:connector-curvature="0"
       id="path5784"
       d="m 28.797701,125.84941 c 0.602645,4.02114 3.272932,4.59166 4.584602,2.8405 1.282006,-1.71155 1.540945,-3.6905 2.933687,-2.21643 l 4.030546,4.26592 c 1.227499,1.29917 3.169653,1.81129 5.080561,2.08365 2.234305,0.31845 5.452031,-1.30994 3.619951,-2.13185 -1.782284,-0.79958 -4.632536,-2.15552 -5.862089,-3.45497 l -8.756322,-9.25413 c -1.89698,-2.00482 -5.179247,-1.0956 -5.637937,1.29786 -0.285364,1.48904 -0.356536,4.14374 0.0074,6.56945 z"
       style="fill:#cccccc;stroke:#000000;stroke-width:2;stroke-linecap:butt;stroke-linejoin:miter;stroke-opacity:1" />
  </g>
  <g
     inkscape:groupmode="layer"
     id="layer11"
     inkscape:label="豚: 胴"
     style="display:inline"
     sodipodi:insensitive="true">
    <g
       id="layer2-3"
       inkscape:label="補助線"
       style="display:none"
       transform="translate(-91.143771,-13.140163)">
      <path
         style="fill:none;stroke:#0000ff;stroke-width:1px;stroke-linecap:butt;stroke-linejoin:miter;stroke-opacity:1"
         d="M 10.003906,310 359.99609,10.003906"
         id="path3025-4"
         inkscape:connector-curvature="0" />
      <path
         style="fill:none;stroke:#0000ff;stroke-width:1px;stroke-linecap:butt;stroke-linejoin:miter;stroke-opacity:1"
         d="M 10.003906,10 359.99609,310.00391"
         id="path3027-1"
         inkscape:connector-curvature="0" />
      <path
         style="fill:none;stroke:#ff0000;stroke-width:1px;stroke-linecap:butt;stroke-linejoin:miter;stroke-opacity:1;display:inline"
         d="M 9.9974312,-0.00137819 10,320"
         id="path3006-1"
         inkscape:connector-curvature="0" />
      <path
         style="fill:none;stroke:#ff0000;stroke-width:1px;stroke-linecap:butt;stroke-linejoin:miter;stroke-opacity:1;display:inline"
         d="M 360.00391,0.00390625 359.99609,319.99609"
         id="path3010-3"
         inkscape:connector-curvature="0" />
      <path
         style="fill:none;stroke:#ff0000;stroke-width:1px;stroke-linecap:butt;stroke-linejoin:miter;stroke-opacity:1;display:inline"
         d="M 0,9.9999681 370,10"
         id="path3016-8"
         inkscape:connector-curvature="0" />
      <path
         transform="translate(84.715796,27.711696)"
         style="fill:none;stroke:#ff0000;stroke-width:1px;stroke-linecap:butt;stroke-linejoin:miter;stroke-opacity:1;display:inline"
         d="m -84.714876,282.29077 370.002826,-0.003"
         id="path3018-7"
         inkscape:connector-curvature="0"
         sodipodi:nodetypes="cc" />
    </g>
    <path
       sodipodi:nodetypes="ccccccc"
       inkscape:connector-curvature="0"
       id="path5468-4"
       d="m 202.00381,92.100696 2.49422,26.665024 -76.76425,39.56317 -38.904522,0.3637 49.615652,-101.56458 c 20.61988,-5.634839 41.72791,5.605796 44.06385,18.454021 l 13.3217,15.681448"
       style="fill:#ffaaaa;stroke:#000000;stroke-width:2;stroke-linecap:butt;stroke-linejoin:miter;stroke-opacity:1;display:inline" />
    <path
       sodipodi:nodetypes="cc"
       inkscape:connector-curvature="0"
       id="path5456-0"
       d="m 169.58521,68.296591 c 23.96553,9.614971 31.50337,26.322956 28.59979,45.505519"
       style="fill:#ffaaaa;stroke:#000000;stroke-width:2;stroke-linecap:butt;stroke-linejoin:miter;stroke-opacity:1;display:inline" />
    <path
       sodipodi:nodetypes="csccc"
       inkscape:connector-curvature="0"
       id="path5458-9"
       d="M 152.95024,60.627622 C 128.79757,48.871353 84.004791,64.53963 76.820137,103.11866 c -5.237304,28.12244 -4.647952,56.15382 6.9487,66.61777 m 3.835143,-4.38109 c -0.234339,6.9173 -0.486825,25.40414 2.321927,36.52229"
       style="fill:#ffaaaa;stroke:#000000;stroke-width:2;stroke-linecap:butt;stroke-linejoin:miter;stroke-opacity:1;display:inline" />
    <path
       sodipodi:nodetypes="ssssss"
       inkscape:connector-curvature="0"
       id="path5460-4"
       d="m 154.22047,81.551111 c -10.24873,5.988962 -15.14464,18.463719 -16.89563,29.480889 -1.70462,10.72539 4.20674,26.13091 14.26912,19.00847 11.74637,-8.31442 20.25,-12.55839 29.20569,-17.10335 6.46095,-3.27888 5.71216,-12.44785 -0.10509,-21.333133 -5.63334,-8.604374 -17.52144,-15.284455 -26.47409,-10.052876 z"
       style="fill:#ff8080;stroke:#000000;stroke-width:2;stroke-linecap:butt;stroke-linejoin:miter;stroke-opacity:1;display:inline" />
    <path
       sodipodi:nodetypes="cc"
       inkscape:connector-curvature="0"
       id="path5462-8"
       d="m 128.28005,84.879814 10.53853,5.783579"
       style="fill:none;stroke:#000000;stroke-width:2;stroke-linecap:butt;stroke-linejoin:miter;stroke-opacity:1;display:inline" />
    <path
       sodipodi:nodetypes="cc"
       inkscape:connector-curvature="0"
       id="path5464-8"
       d="m 155.51844,78.875599 -5.45031,-7.774853"
       style="fill:none;stroke:#000000;stroke-width:2;stroke-linecap:butt;stroke-linejoin:miter;stroke-opacity:1;display:inline" />
    <path
       sodipodi:nodetypes="csc"
       inkscape:connector-curvature="0"
       id="path5470-5"
       d="m 85.136099,85.050535 c -23.167029,13.83339 -18.557895,55.215135 -1.343528,62.309475 8.81774,3.63394 12.187781,-26.97625 16.198342,-37.38194"
       style="fill:#ffaaaa;stroke:#000000;stroke-width:2;stroke-linecap:butt;stroke-linejoin:miter;stroke-opacity:1;display:inline" />
    <path
       sodipodi:nodetypes="cc"
       inkscape:connector-curvature="0"
       id="path11475"
       d="M 124.35582,96.148209 C 136.28529,85.087123 148.73429,74.939967 158.8067,73.45251"
       style="fill:none;stroke:#000000;stroke-width:2;stroke-linecap:butt;stroke-linejoin:miter;stroke-opacity:1" />
    <path
       sodipodi:nodetypes="sss"
       inkscape:connector-curvature="0"
       id="path5360-7"
       d="m 153.49481,93.55179 c 2.95269,-0.20508 3.92975,26.81159 -0.38774,23.41744 -5.73899,-4.51164 -3.23155,-23.16598 0.38774,-23.41744 z"
       style="fill:#000000;stroke:#000000;stroke-width:2;stroke-linecap:butt;stroke-linejoin:miter;stroke-opacity:1;display:inline" />
    <path
       sodipodi:nodetypes="sss"
       inkscape:connector-curvature="0"
       id="path5362-4"
       d="m 162.45118,88.450832 c 3.33202,-0.531657 12.29347,9.417767 11.45999,17.977388 -0.47336,4.86121 -14.40345,-17.50773 -11.45999,-17.977388 z"
       style="fill:#000000;stroke:#000000;stroke-width:2;stroke-linecap:butt;stroke-linejoin:miter;stroke-opacity:1;display:inline" />
    <path
       sodipodi:nodetypes="cc"
       inkscape:connector-curvature="0"
       id="path3209"
       d="m 96.679161,27.822281 c -8.544839,13.604625 11.860079,16.142072 0.550276,32.909065"
       style="fill:none;stroke:#000000;stroke-width:2;stroke-linecap:butt;stroke-linejoin:miter;stroke-opacity:1" />
    <path
       sodipodi:nodetypes="cc"
       inkscape:connector-curvature="0"
       id="path3211"
       d="m 118.53215,24.183315 c -9.97741,12.65742 9.99437,15.207123 0.28846,29.486436"
       style="fill:none;stroke:#000000;stroke-width:2;stroke-linecap:butt;stroke-linejoin:miter;stroke-opacity:1" />
    <path
       sodipodi:nodetypes="cc"
       inkscape:connector-curvature="0"
       id="path3213"
       d="m 139.97102,21.559648 c -12.70669,11.791832 8.33299,14.116785 -0.0482,25.085913"
       style="fill:none;stroke:#000000;stroke-width:2;stroke-linecap:butt;stroke-linejoin:miter;stroke-opacity:1" />
  </g>
  <g
     inkscape:groupmode="layer"
     id="layer12"
     inkscape:label="掛け布団"
     style="display:inline"
     sodipodi:insensitive="true">
    <path
       sodipodi:nodetypes="ssssssssss"
       inkscape:connector-curvature="0"
       id="path10821-6"
       d="M 192.89591,308.10945 C 176.86149,303.3658 100.45458,239.99388 89.559667,229.55322 79.903432,220.29959 71.58452,207.46501 82.136582,195.63165 c 22.013778,-24.68683 57.387268,-56.82714 88.548468,-73.48563 16.20171,-8.66128 30.97266,-9.38635 45.45129,-13.9851 16.44845,-5.2244 27.19214,-2.24298 41.93671,4.16337 23.67467,10.28638 77.8969,55.40075 89.09192,73.93158 6.97572,11.54672 18.11628,30.21035 5.47003,37.99583 -11.317,6.96714 -96.07317,57.2222 -117.33169,73.09456 -12.96368,9.67913 -29.95012,14.44857 -42.4074,10.76319 z"
       style="fill:#fefefe;fill-opacity:1;stroke:#000000;stroke-width:2;stroke-linecap:butt;stroke-linejoin:miter;stroke-opacity:1;display:inline" />
    <path
       sodipodi:nodetypes="ccccc"
       inkscape:connector-curvature="0"
       id="path11548"
       d="m 105.85399,200.20761 c 18.55939,6.90596 70.17883,54.4472 102.04368,78.70558 33.9425,-29.2299 98.04955,-64.40586 129.75275,-77.26314 -16.56551,-31.54676 -61.31679,-65.40577 -95.01463,-82.53116 -35.64923,-2.14942 -105.77717,41.22895 -136.7818,81.08872 z"
       style="fill:#000080;stroke:#000000;stroke-width:2;stroke-linecap:butt;stroke-linejoin:miter;stroke-opacity:1;display:inline" />
  </g>
  <g
     inkscape:groupmode="layer"
     id="layer13"
     inkscape:label="豚: 手"
     style="display:inline"
     sodipodi:insensitive="true">
    <path
       sodipodi:nodetypes="cssssccc"
       inkscape:connector-curvature="0"
       id="path5474-1-1"
       d="m 195.88361,91.134081 c 17.02042,-5.245297 35.47595,2.69393 40.22455,8.306077 6.36388,7.521172 4.70815,13.648802 0.95127,16.632842 -3.73363,2.96556 -7.28502,-1.77081 -11.49428,-1.75414 -2.52565,0.01 -4.15754,2.26928 -6.86704,4.83778 -1.33616,1.26663 -17.35429,-0.02 -16.53348,-8.88634 l -2.73639,-18.261455 z"
       style="fill:#ffaaaa;stroke:none;display:inline" />
    <path
       sodipodi:nodetypes="sscscss"
       inkscape:connector-curvature="0"
       id="path5474-1-0"
       d="m 225.57047,114.3244 c -2.52565,0.01 -4.48457,1.96333 -6.86704,4.83778 -1.43558,1.73203 -5.50752,0.57787 -6.49087,0.0733 -9.56913,-5.29027 3.33547,-16.60813 12.71751,-17.18831 6.16613,-0.38132 15.92294,3.96155 15.34134,8.52967 -0.28565,1.88856 -2.04778,4.513 -3.19503,5.49248 -3.63752,3.10559 -7.29665,-1.76159 -11.50591,-1.74492 z"
       style="fill:#ff8080;stroke:none;display:inline" />
    <path
       sodipodi:nodetypes="cscscc"
       inkscape:connector-curvature="0"
       id="path12418-45"
       d="m 218.83502,119.067 c -5.16928,0.37173 0.87801,-8.78247 7.4547,-8.75795 5.43464,0.0203 10.86593,5.48067 7.43296,6.72439 -1.49301,0.18764 -4.18185,-2.67166 -8.15343,-2.70781 -2.52557,-0.023 -4.15754,2.26928 -6.86704,4.83778 z"
       style="fill:#ff5555;stroke:none;display:inline" />
    <path
       sodipodi:nodetypes="csssc"
       inkscape:connector-curvature="0"
       id="path5478-1-5"
       d="m 124.72199,151.89704 c 5.13793,5.33703 4.78174,17.88027 2.04201,20.25261 -3.18005,2.7536 -7.24903,0.86849 -9.07468,2.84136 -2.55498,2.76101 -1.04198,5.28556 -2.22729,6.54196 -12.91716,13.6919 -43.846186,18.52433 -35.590298,-24.0953"
       style="fill:#ffaaaa;stroke:none;display:inline" />
    <path
       sodipodi:nodetypes="cssssc"
       inkscape:connector-curvature="0"
       id="path5474-1"
       d="m 195.88786,91.138592 c 17.02042,-5.245297 35.47595,2.69393 40.22455,8.306075 6.36388,7.521173 4.70815,13.648803 0.95127,16.632843 -3.73363,2.96556 -7.28502,-1.77081 -11.49428,-1.75414 -2.52565,0.01 -4.15754,2.26928 -6.86704,4.83778 -1.33616,1.26663 -17.35429,-0.02 -16.53348,-8.88634"
       style="fill:none;stroke:#000000;stroke-width:2;stroke-linecap:butt;stroke-linejoin:miter;stroke-opacity:1;display:inline" />
    <path
       sodipodi:nodetypes="ssscscs"
       inkscape:connector-curvature="0"
       id="path12418-4-4"
       d="m 127.69644,170.69284 c -0.75945,3.45676 -7.73119,2.66386 -9.9941,4.23822 -2.41958,1.68335 -1.98645,7.01449 -3.1408,8.16758 -1.0849,1.08374 -6.03153,5.32705 -9.28781,6.18682 -10.082041,-0.16933 -9.257835,-16.48723 -2.79296,-23.31107 4.2489,-4.48481 20.76086,-15.27767 26.06896,-4.54223 0.33795,3.94141 -0.19258,6.2534 -0.85329,9.26068 z"
       style="fill:#ff8080;stroke:none;display:inline" />
    <path
       sodipodi:nodetypes="sssss"
       inkscape:connector-curvature="0"
       id="path12418-4-2-5"
       d="m 127.72145,170.73144 c -0.47628,4.01458 -8.09322,2.15203 -10.05202,4.09174 -2.1192,2.09856 -1.44378,7.59993 -3.10971,8.44004 -5.81241,2.93116 -7.69498,-6.86137 -0.82304,-13.54792 4.43611,-4.31644 14.8545,-6.31491 13.98477,1.01614 z"
       style="fill:#ff2a2a;stroke:none;display:inline" />
    <path
       sodipodi:nodetypes="csssc"
       inkscape:connector-curvature="0"
       id="path5478-1"
       d="m 124.70089,151.86307 c 5.13793,5.33703 4.78174,17.88027 2.04201,20.2526 -3.18005,2.75361 -7.1914,0.92343 -9.07468,2.84136 -1.7748,1.80745 -1.90517,2.99073 -2.22729,6.54197 -0.73922,8.14953 -47.26183,25.33309 -35.330224,-24.26868"
       style="fill:none;stroke:#000000;stroke-width:2;stroke-linecap:butt;stroke-linejoin:miter;stroke-opacity:1;display:inline" />
    <path
       sodipodi:nodetypes="csc"
       inkscape:connector-curvature="0"
       id="path12411"
       d="m 105.19867,189.21081 c -10.058066,-1.48237 -10.424274,-14.70353 -2.20941,-23.69483 7.8727,-8.61681 23.25985,-12.55635 25.56738,-3.86405"
       style="fill:none;stroke:#000000;stroke-width:2;stroke-linecap:butt;stroke-linejoin:miter;stroke-opacity:1;display:inline" />
    <path
       sodipodi:nodetypes="csc"
       inkscape:connector-curvature="0"
       id="path12414"
       d="m 114.70513,183.20105 c -6.757,2.79137 -7.09938,-7.91528 -0.90366,-13.50522 6.34199,-5.72191 14.92509,-5.76509 13.90019,0.95774"
       style="fill:none;stroke:#000000;stroke-width:2;stroke-linecap:butt;stroke-linejoin:miter;stroke-opacity:1" />
    <path
       sodipodi:nodetypes="csc"
       inkscape:connector-curvature="0"
       id="path12416"
       d="m 212.21149,119.23441 c -9.56913,-5.29027 3.33547,-16.60813 12.71751,-17.18831 6.16613,-0.38132 15.92294,3.96155 15.34134,8.52967"
       style="fill:none;stroke:#000000;stroke-width:2;stroke-linecap:butt;stroke-linejoin:miter;stroke-opacity:1" />
    <path
       sodipodi:nodetypes="csc"
       inkscape:connector-curvature="0"
       id="path12418"
       d="m 218.83517,119.06474 c -5.16928,0.37173 0.87801,-8.78247 7.4547,-8.75795 5.43464,0.0203 10.86593,5.48067 7.43296,6.72439"
       style="fill:none;stroke:#000000;stroke-width:2;stroke-linecap:butt;stroke-linejoin:miter;stroke-opacity:1" />
  </g>
  <g
     inkscape:groupmode="layer"
     id="layer16"
     inkscape:label="吹き出し"
     sodipodi:insensitive="true">
    <path
       transform="translate(-10.358197,-5.067901)"
       d="m 343.64409,48.154739 a 63.876209,32.185688 0 1 1 -127.75242,0 63.876209,32.185688 0 1 1 127.75242,0 z"
       sodipodi:ry="32.185688"
       sodipodi:rx="63.876209"
       sodipodi:cy="48.154739"
       sodipodi:cx="279.76788"
       id="path7380"
       style="fill:#fefefe;fill-opacity:1;stroke:#000000;stroke-width:2;display:inline"
       sodipodi:type="arc" />
    <path
       transform="translate(-30.142913,-8.961854)"
       d="m 277.28178,78.607353 a 15.33979,6.5645728 0 1 1 -30.67958,0 15.33979,6.5645728 0 1 1 30.67958,0 z"
       sodipodi:ry="6.5645728"
       sodipodi:rx="15.33979"
       sodipodi:cy="78.607353"
       sodipodi:cx="261.94199"
       id="path7382"
       style="fill:#fefefe;fill-opacity:1;stroke:#000000;stroke-width:2;display:inline"
       sodipodi:type="arc" />
    <path
       transform="translate(-32.393013,-17.694593)"
       d="m 251.54353,97.176018 a 8.4177952,4.4564795 0 1 1 -16.83559,0 8.4177952,4.4564795 0 1 1 16.83559,0 z"
       sodipodi:ry="4.4564795"
       sodipodi:rx="8.4177952"
       sodipodi:cy="97.176018"
       sodipodi:cx="243.12573"
       id="path7384"
       style="fill:#fefefe;fill-opacity:1;stroke:#000000;stroke-width:2;display:inline"
       sodipodi:type="arc" />
    <path
       transform="matrix(0.95620738,0.07228567,-0.15661476,0.52930307,63.327379,5.522615)"
       d="m 218.48369,35.691101 c 2.10662,-0.03511 1.08666,2.822361 0.0583,3.501342 -2.78664,1.839997 -6.15233,-0.686268 -7.06104,-3.384635 -1.62546,-4.826745 2.21694,-9.561729 6.82763,-10.620733 6.76636,-1.554132 13.03157,3.753705 14.18043,10.270611 1.53124,8.686012 -5.29071,16.524734 -13.7136,17.740126 -10.59935,1.529446 -20.02946,-6.827356 -21.29982,-17.156589 -1.53858,-12.510084 8.36371,-23.540795 20.59957,-24.859517 14.41955,-1.5540686 27.05626,9.899865 28.41922,24.042565 1.57358,16.328308 -11.43589,30.574487 -27.48556,31.97891 -18.23665,1.595794 -34.09464,-12.971823 -35.5386,-30.928543 -1.61991,-20.144726 14.50769,-37.6162087 34.37153,-39.0983007 22.05262,-1.6454032 41.13883,16.0435277 42.65799,37.8145197 1.54043,22.075607 -14.78386,41.829847 -36.36932,45.628975"
       sodipodi:t0="0"
       sodipodi:argument="-18.86622"
       sodipodi:radius="45.282192"
       sodipodi:revolution="3.2327535"
       sodipodi:expansion="1"
       sodipodi:cy="35.691101"
       sodipodi:cx="218.48369"
       id="path7386"
       style="fill:none;stroke:#ff2a2a;stroke-width:2.78034139;stroke-linecap:butt;stroke-linejoin:miter;stroke-opacity:1;display:inline"
       sodipodi:type="spiral" />
  </g>
  <g
     inkscape:groupmode="layer"
     id="layer7"
     inkscape:label="枠面"
     style="display:inline"
     sodipodi:insensitive="true">
    <path
       style="fill:#ffffff;stroke:none;display:inline"
       d="m 0,0 0,320 370,0 0,-320 -10,10 0,300 -350,0 0,-300 350,0 10,-10 z"
       id="path21072"
       inkscape:connector-curvature="0"
       sodipodi:nodetypes="ccccccccccc" />
  </g>
</svg>
