<?xml version="1.0" encoding="UTF-8" standalone="no"?>
<!-- Created with Inkscape (http://www.inkscape.org/) -->

<svg
   xmlns:dc="http://purl.org/dc/elements/1.1/"
   xmlns:cc="http://creativecommons.org/ns#"
   xmlns:rdf="http://www.w3.org/1999/02/22-rdf-syntax-ns#"
   xmlns:svg="http://www.w3.org/2000/svg"
   xmlns="http://www.w3.org/2000/svg"
   xmlns:xlink="http://www.w3.org/1999/xlink"
   xmlns:sodipodi="http://sodipodi.sourceforge.net/DTD/sodipodi-0.dtd"
   xmlns:inkscape="http://www.inkscape.org/namespaces/inkscape"
   width="370"
   height="320"
   id="svg2"
   version="1.1"
   inkscape:version="0.48.4 r9939"
   sodipodi:docname="[01.行動]06.飲酒.svg"
   inkscape:export-filename="C:\Users\執安\Desktop\資料\臨時\TAKEDA\[01.行動]06.飲酒.png"
   inkscape:export-xdpi="90"
   inkscape:export-ydpi="90"
   enable-background="new">
  <defs
     id="defs4">
    <inkscape:perspective
       sodipodi:type="inkscape:persp3d"
       inkscape:vp_x="363.49708 : 943.81603 : 1"
       inkscape:vp_y="0 : 1000 : 0"
       inkscape:vp_z="744.09448 : 526.18109 : 1"
       inkscape:persp3d-origin="372.04724 : 350.78739 : 1"
       id="perspective5056" />
    <inkscape:perspective
       id="perspective5056-8"
       inkscape:persp3d-origin="372.04724 : 350.78739 : 1"
       inkscape:vp_z="744.09448 : 526.18109 : 1"
       inkscape:vp_y="0 : 1000 : 0"
       inkscape:vp_x="363.49708 : 943.81603 : 1"
       sodipodi:type="inkscape:persp3d" />
    <linearGradient
       id="linearGradient12499-5-3"
       inkscape:collect="always">
      <stop
         id="stop12501-0-8"
         offset="0"
         style="stop-color:#ffd5d5;stop-opacity:1;" />
      <stop
         id="stop12503-9-9"
         offset="1"
         style="stop-color:#ffd5d5;stop-opacity:0;" />
    </linearGradient>
    <linearGradient
       id="linearGradient12499-5"
       inkscape:collect="always">
      <stop
         id="stop12501-0"
         offset="0"
         style="stop-color:#ffd5d5;stop-opacity:1;" />
      <stop
         id="stop12503-9"
         offset="1"
         style="stop-color:#ffd5d5;stop-opacity:0;" />
    </linearGradient>
    <linearGradient
       id="linearGradient12499-8"
       inkscape:collect="always">
      <stop
         id="stop12501-6"
         offset="0"
         style="stop-color:#ffd5d5;stop-opacity:1;" />
      <stop
         id="stop12503-0"
         offset="1"
         style="stop-color:#ffd5d5;stop-opacity:0;" />
    </linearGradient>
    <linearGradient
       gradientTransform="translate(0,-7)"
       gradientUnits="userSpaceOnUse"
       y2="78.526123"
       x2="178.78178"
       y1="135.02612"
       x1="175.8602"
       id="linearGradient12505-2"
       xlink:href="#linearGradient12499-8"
       inkscape:collect="always" />
    <linearGradient
       id="linearGradient12499-9"
       inkscape:collect="always">
      <stop
         id="stop12501-8"
         offset="0"
         style="stop-color:#ffd5d5;stop-opacity:1;" />
      <stop
         id="stop12503-6"
         offset="1"
         style="stop-color:#ffd5d5;stop-opacity:0;" />
    </linearGradient>
    <linearGradient
       gradientTransform="translate(0,-7)"
       gradientUnits="userSpaceOnUse"
       y2="78.526123"
       x2="178.78178"
       y1="135.02612"
       x1="175.8602"
       id="linearGradient12505-1"
       xlink:href="#linearGradient12499-9"
       inkscape:collect="always" />
    <inkscape:perspective
       id="perspective5056-5"
       inkscape:persp3d-origin="372.04724 : 350.78739 : 1"
       inkscape:vp_z="744.09448 : 526.18109 : 1"
       inkscape:vp_y="0 : 1000 : 0"
       inkscape:vp_x="363.49708 : 943.81603 : 1"
       sodipodi:type="inkscape:persp3d" />
    <linearGradient
       id="linearGradient12499"
       inkscape:collect="always">
      <stop
         id="stop12501"
         offset="0"
         style="stop-color:#ffd5d5;stop-opacity:1;" />
      <stop
         id="stop12503"
         offset="1"
         style="stop-color:#ffd5d5;stop-opacity:0;" />
    </linearGradient>
    <linearGradient
       inkscape:collect="always"
       xlink:href="#linearGradient12499"
       id="linearGradient4842"
       gradientUnits="userSpaceOnUse"
       gradientTransform="matrix(0.98323667,-0.18233388,0.18233388,0.98323667,74.736688,42.602255)"
       x1="175.8602"
       y1="135.02612"
       x2="180.12286"
       y2="104.20104" />
    <linearGradient
       inkscape:collect="always"
       xlink:href="#linearGradient12499-5"
       id="linearGradient4848"
       gradientUnits="userSpaceOnUse"
       gradientTransform="matrix(0.99586062,-0.09089341,0.09089341,0.99586062,90.234074,51.049697)"
       x1="184.3886"
       y1="140.77484"
       x2="178.00351"
       y2="106.50191" />
    <linearGradient
       inkscape:collect="always"
       xlink:href="#linearGradient12499-5-3"
       id="linearGradient4854"
       gradientUnits="userSpaceOnUse"
       gradientTransform="matrix(0.99850313,0.05469451,-0.05469451,0.99850313,114.06992,56.176849)"
       x1="186.74098"
       y1="139.74136"
       x2="168.63582"
       y2="87.2258" />
    <inkscape:perspective
       sodipodi:type="inkscape:persp3d"
       inkscape:vp_x="363.49708 : 943.81603 : 1"
       inkscape:vp_y="0 : 1000 : 0"
       inkscape:vp_z="744.09448 : 526.18109 : 1"
       inkscape:persp3d-origin="372.04724 : 350.78739 : 1"
       id="perspective5056-4" />
    <inkscape:perspective
       sodipodi:type="inkscape:persp3d"
       inkscape:vp_x="363.49708 : 943.81603 : 1"
       inkscape:vp_y="0 : 1000 : 0"
       inkscape:vp_z="744.09448 : 526.18109 : 1"
       inkscape:persp3d-origin="372.04724 : 350.78739 : 1"
       id="perspective5056-8-7" />
    <inkscape:perspective
       id="perspective5056-85"
       inkscape:persp3d-origin="372.04724 : 350.78739 : 1"
       inkscape:vp_z="744.09448 : 526.18109 : 1"
       inkscape:vp_y="0 : 1000 : 0"
       inkscape:vp_x="363.49708 : 943.81603 : 1"
       sodipodi:type="inkscape:persp3d" />
    <inkscape:perspective
       id="perspective5056-81"
       inkscape:persp3d-origin="372.04724 : 350.78739 : 1"
       inkscape:vp_z="744.09448 : 526.18109 : 1"
       inkscape:vp_y="0 : 1000 : 0"
       inkscape:vp_x="363.49708 : 943.81603 : 1"
       sodipodi:type="inkscape:persp3d" />
  </defs>
  <sodipodi:namedview
     id="base"
     pagecolor="#ffffff"
     bordercolor="#666666"
     borderopacity="1.0"
     inkscape:pageopacity="0.0"
     inkscape:pageshadow="2"
     inkscape:zoom="1.4142136"
     inkscape:cx="192.88562"
     inkscape:cy="202.24294"
     inkscape:document-units="px"
     inkscape:current-layer="layer11"
     showgrid="false"
     inkscape:window-width="1242"
     inkscape:window-height="694"
     inkscape:window-x="-3"
     inkscape:window-y="-2"
     inkscape:window-maximized="0"
     showguides="true"
     inkscape:guide-bbox="true"
     inkscape:snap-grids="false"
     inkscape:snap-to-guides="false"
     showborder="true"
     inkscape:showpageshadow="false"
     fit-margin-top="0"
     fit-margin-left="0"
     fit-margin-right="0"
     fit-margin-bottom="0"
     inkscape:snap-page="false" />
  <metadata
     id="metadata7">
    <rdf:RDF>
      <cc:Work
         rdf:about="">
        <dc:format>image/svg+xml</dc:format>
        <dc:type
           rdf:resource="http://purl.org/dc/dcmitype/StillImage" />
        <dc:title></dc:title>
      </cc:Work>
    </rdf:RDF>
  </metadata>
  <g
     inkscape:groupmode="layer"
     id="layer2"
     inkscape:label="補助線"
     style="display:none"
     sodipodi:insensitive="true">
    <path
       style="fill:none;stroke:#0000ff;stroke-width:1px;stroke-linecap:butt;stroke-linejoin:miter;stroke-opacity:1"
       d="M 10,310 360,10"
       id="path3025"
       inkscape:connector-curvature="0"
       sodipodi:nodetypes="cc" />
    <path
       style="fill:none;stroke:#0000ff;stroke-width:1px;stroke-linecap:butt;stroke-linejoin:miter;stroke-opacity:1"
       d="M 10,10 360,310"
       id="path3027"
       inkscape:connector-curvature="0"
       sodipodi:nodetypes="cc" />
    <path
       style="fill:none;stroke:#ff0000;stroke-width:1px;stroke-linecap:butt;stroke-linejoin:miter;stroke-opacity:1;display:inline"
       d="m 10,0 0,320"
       id="path3006"
       inkscape:connector-curvature="0"
       sodipodi:nodetypes="cc" />
    <path
       style="fill:none;stroke:#ff0000;stroke-width:1px;stroke-linecap:butt;stroke-linejoin:miter;stroke-opacity:1;display:inline"
       d="m 360,0 0,320"
       id="path3010"
       inkscape:connector-curvature="0"
       sodipodi:nodetypes="cc" />
    <path
       style="fill:none;stroke:#ff0000;stroke-width:1px;stroke-linecap:butt;stroke-linejoin:miter;stroke-opacity:1;display:inline"
       d="M 0,9.9999681 370,10"
       id="path3016"
       inkscape:connector-curvature="0" />
    <path
       transform="translate(84.715796,27.711696)"
       style="fill:none;stroke:#ff0000;stroke-width:1px;stroke-linecap:butt;stroke-linejoin:miter;stroke-opacity:1;display:inline"
       d="m -84.715796,282.2883 369.999996,0"
       id="path3018"
       inkscape:connector-curvature="0"
       sodipodi:nodetypes="cc" />
  </g>
  <g
     inkscape:groupmode="layer"
     id="layer31"
     inkscape:label="豚: 下半身"
     style="display:inline"
     sodipodi:insensitive="true">
    <path
       sodipodi:nodetypes="ccccc"
       inkscape:connector-curvature="0"
       id="path5384-4"
       d="M 356.54524,223.37282 C 354.14895,179.6649 334.2523,134.70237 308.78365,109.72231 l -194.36791,-9.1826 -12.47463,51.34205 201.6043,75.37505"
       style="fill:#ffd5d5;stroke:#000000;stroke-width:2;display:inline" />
  </g>
  <g
     inkscape:groupmode="layer"
     id="layer30"
     inkscape:label="テーブル"
     style="display:inline"
     sodipodi:insensitive="true">
    <path
       sodipodi:nodetypes="ccsssc"
       inkscape:connector-curvature="0"
       id="path18625-9"
       d="M 26.229428,110.01324 333.32355,232.94368 C 250.04286,215.50213 187.44978,217.2925 201.27126,227.12592 241.75773,255.9304 245.20678,281.08904 103.37685,221.27389 -41.211471,160.29542 122.45073,190.4002 97.745605,161.71363 83.71246,145.41891 54.747967,133.68586 26.229428,110.01324 z"
       style="fill:#d38d5f;stroke:none;display:inline" />
    <path
       sodipodi:nodetypes="cc"
       inkscape:connector-curvature="0"
       id="path18625"
       d="M 26.199683,109.87472 333.2938,232.80516"
       style="fill:none;stroke:#000000;stroke-width:2;stroke-linecap:butt;stroke-linejoin:miter;stroke-opacity:1" />
  </g>
  <g
     inkscape:groupmode="layer"
     id="layer11"
     inkscape:label="豚: 上半身"
     style="display:inline"
     sodipodi:insensitive="true">
    <path
       style="fill:#ffd5d5;stroke:none;display:inline"
       d="m 116.58108,79.872543 c -24.387797,4.34426 -61.953937,19.606392 -70.18993,34.844117 -3.414387,6.31709 4.055,5.77229 4.055,5.77229 2.24882,8.17449 -3.30468,8.42534 -2.34363,11.475 2.40186,7.62168 48.796984,12.93764 70.62252,14.31497"
       id="path3067-0"
       inkscape:connector-curvature="0"
       sodipodi:nodetypes="cscsc" />
    <path
       style="fill:#ffd5d5;stroke:#000000;stroke-width:2;stroke-linecap:butt;stroke-linejoin:miter;stroke-opacity:1;display:inline"
       d="M 308.65252,111.49632 174.64193,17.28269 c -34.41804,4.040163 -55.24346,29.95334 -50.82531,48.72382 l -8.62598,51.19805"
       id="path18916"
       inkscape:connector-curvature="0"
       sodipodi:nodetypes="cccc" />
    <path
       style="fill:#ffaaaa;stroke:none;display:inline"
       d="m 46.39315,114.71463 c 2.374279,-4.40209 8.18037,-10.36785 13.44639,-12.82851 14.878548,-4.55088 16.93821,39.69431 4.73696,37.31661 -4.541444,-0.91999 -14.791884,-3.56103 -16.47198,-7.24081 -1.328032,-2.90868 4.59245,-3.30051 2.34363,-11.475 -1.355938,-0.32344 -6.470222,-1.29429 -4.055,-5.77229 z"
       id="path3067-8"
       inkscape:connector-curvature="0"
       sodipodi:nodetypes="sccscs" />
    <path
       style="fill:#ff8080;stroke:none;display:inline"
       d="m 49.349928,133.64044 c 5.285913,3.59171 10.209352,-3.88305 6.364909,-10.79066 -1.028346,-1.84771 -4.592466,-2.20274 -5.270218,-2.361 2.248819,8.17449 -3.30468,8.42534 -2.343625,11.475 z"
       id="path3067-1"
       inkscape:connector-curvature="0"
       sodipodi:nodetypes="csccc" />
    <g
       id="layer2-6"
       inkscape:label="枠"
       style="display:none"
       transform="translate(-0.16161474,-48.003291)">
      <path
         style="fill:none;stroke:#0000ff;stroke-width:1px;stroke-linecap:butt;stroke-linejoin:miter;stroke-opacity:1"
         d="M 10.003906,310 359.99609,10.003906"
         id="path3025-1"
         inkscape:connector-curvature="0" />
      <path
         style="fill:none;stroke:#0000ff;stroke-width:1px;stroke-linecap:butt;stroke-linejoin:miter;stroke-opacity:1"
         d="M 10.003906,10 359.99609,310.00391"
         id="path3027-2"
         inkscape:connector-curvature="0" />
      <path
         style="fill:none;stroke:#ff0000;stroke-width:1px;stroke-linecap:butt;stroke-linejoin:miter;stroke-opacity:1;display:inline"
         d="M 9.9974312,-0.00137819 10,320"
         id="path3006-4"
         inkscape:connector-curvature="0" />
      <path
         style="fill:none;stroke:#ff0000;stroke-width:1px;stroke-linecap:butt;stroke-linejoin:miter;stroke-opacity:1;display:inline"
         d="M 360.00391,0.00390625 359.99609,319.99609"
         id="path3010-2"
         inkscape:connector-curvature="0" />
      <path
         style="fill:none;stroke:#ff0000;stroke-width:1px;stroke-linecap:butt;stroke-linejoin:miter;stroke-opacity:1;display:inline"
         d="M 0,9.9999681 370,10"
         id="path3016-5"
         inkscape:connector-curvature="0" />
      <path
         transform="translate(84.715796,27.711696)"
         style="fill:none;stroke:#ff0000;stroke-width:1px;stroke-linecap:butt;stroke-linejoin:miter;stroke-opacity:1;display:inline"
         d="m -84.714876,282.29077 370.002826,-0.003"
         id="path3018-8"
         inkscape:connector-curvature="0"
         sodipodi:nodetypes="cc" />
    </g>
    <path
       style="fill:#ffd5d5;stroke:#000000;stroke-width:2;stroke-linecap:butt;stroke-linejoin:miter;stroke-opacity:1;display:inline"
       d="m 156.97512,27.297281 c 32.79596,-27.02236999 91.32667,-13.638054 118.74646,21.205952 27.60744,35.082464 35.90874,48.17826 36.58774,69.938977"
       id="path18912"
       inkscape:connector-curvature="0"
       sodipodi:nodetypes="csc" />
    <path
       style="fill:#ffd5d5;stroke:#000000;stroke-width:2;stroke-linecap:butt;stroke-linejoin:miter;stroke-opacity:1;display:inline"
       d="m 252.20929,30.450672 c 45.32946,12.867572 53.60354,70.515088 21.70428,90.044488 -11.36709,6.95917 -27.66286,-30.094806 -38.12219,-41.834852"
       id="path18914"
       inkscape:connector-curvature="0"
       sodipodi:nodetypes="csc" />
    <path
       style="fill:none;stroke:#000000;stroke-width:2;stroke-linecap:butt;stroke-linejoin:miter;stroke-opacity:1;display:inline"
       d="m 165.21434,82.063422 13.33042,-9.112695"
       id="path18922"
       inkscape:connector-curvature="0"
       sodipodi:nodetypes="cc" />
    <path
       style="fill:none;stroke:#000000;stroke-width:2;stroke-linecap:butt;stroke-linejoin:miter;stroke-opacity:1;display:inline"
       d="m 141.61289,61.711166 0.73075,11.661838"
       id="path18924"
       inkscape:connector-curvature="0"
       sodipodi:nodetypes="cc" />
    <path
       sodipodi:nodetypes="cc"
       inkscape:connector-curvature="0"
       id="path18928"
       d="m 201.34106,176.5962 c -23.82771,-0.76748 -74.09174,-20.37592 -85.56343,-33.10952"
       style="fill:#ffd5d5;stroke:#000000;stroke-width:2;stroke-linecap:butt;stroke-linejoin:miter;stroke-opacity:1;display:inline" />
    <path
       style="fill:none;stroke:#000000;stroke-width:2;stroke-linecap:butt;stroke-linejoin:miter;stroke-opacity:1;display:inline"
       d="m 116.58153,79.870533 c -24.387793,4.34426 -61.953937,19.606397 -70.189927,34.844127 -3.414386,6.31709 7.75242,5.30849 9.325215,8.13329 3.845643,6.90694 -1.078995,14.38237 -6.364908,10.79066"
       id="path3067"
       inkscape:connector-curvature="0"
       sodipodi:nodetypes="cssc" />
    <path
       style="fill:none;stroke:#000000;stroke-width:2;stroke-linecap:butt;stroke-linejoin:miter;stroke-opacity:1;display:inline"
       d="m 50.446601,120.48695 c 2.248819,8.17449 -3.30468,8.42534 -2.343625,11.475 2.401856,7.62168 48.796982,12.93764 70.622514,14.31497"
       id="path18936"
       inkscape:connector-curvature="0"
       sodipodi:nodetypes="csc" />
    <path
       style="fill:none;stroke:#000000;stroke-width:2;stroke-linecap:butt;stroke-linejoin:miter;stroke-opacity:1;display:inline"
       d="m 59.83799,101.88615 c 14.878552,-4.550881 16.938214,39.69431 4.736961,37.31661"
       id="path18938"
       inkscape:connector-curvature="0"
       sodipodi:nodetypes="cc" />
    <path
       style="fill:#ffd5d5;stroke:none;display:inline"
       d="m 195.98811,156.85921 c -7.35869,10.78786 -19.99788,45.0853 -14.29249,53.08474 2.86678,4.01946 15.2597,1.02243 18.34683,2.43556 0,0 -2.77104,5.38267 1.23374,7.22007 8.39077,3.84967 58.56351,-13.43401 71.95691,-24.13466"
       id="path3183-5"
       inkscape:connector-curvature="0"
       sodipodi:nodetypes="cscsc" />
    <path
       style="fill:#ffaaaa;stroke:none;display:inline"
       d="m 201.34471,219.61895 c 5.56958,2.06243 17.86657,-1.78381 17.86657,-1.78381 12.60333,-13.87085 -32.33499,-42.45833 -36.62987,-28.64726 0,0 -4.71798,14.63147 -0.88759,20.75591 2.61792,4.18581 15.33002,1.04196 18.41715,2.45509 0,0 -1.74381,6.11748 1.23374,7.22007 z"
       id="path18934-1"
       inkscape:connector-curvature="0"
       sodipodi:nodetypes="sccscs" />
    <path
       style="fill:#ff8080;stroke:none;display:inline"
       d="m 200.04351,212.37589 c -2.89708,-1.09266 -11.34081,0.52208 -15.56602,-0.75098 -3.01556,-3.61664 10.79257,-4.91223 13.40153,-3.43543 1.54869,0.87663 2.43612,2.72908 2.16449,4.18641 z"
       id="path3183-1"
       inkscape:connector-curvature="0"
       sodipodi:nodetypes="ccsc" />
    <path
       style="fill:none;stroke:#000000;stroke-width:2;stroke-linecap:butt;stroke-linejoin:miter;stroke-opacity:1;display:inline"
       d="m 195.98874,156.85762 c -7.35869,10.78786 -19.99788,45.0853 -14.29249,53.08474 2.86678,4.01946 15.2597,1.02243 18.34683,2.43556"
       id="path3183"
       inkscape:connector-curvature="0"
       sodipodi:nodetypes="csc" />
    <path
       style="fill:none;stroke:#000000;stroke-width:2;stroke-linecap:butt;stroke-linejoin:miter;stroke-opacity:1;display:inline"
       d="m 184.47706,211.62695 c -3.01556,-3.61664 10.89827,-5.08508 13.40153,-3.43544 4.95164,3.26312 -0.60656,9.56909 3.39823,11.40648 8.39076,3.84968 58.56351,-13.43401 71.95691,-24.13466"
       id="path18932"
       inkscape:connector-curvature="0"
       sodipodi:nodetypes="cssc" />
    <path
       style="fill:none;stroke:#000000;stroke-width:2;stroke-linecap:butt;stroke-linejoin:miter;stroke-opacity:1;display:inline"
       d="m 182.58384,189.18645 c 4.29488,-13.81107 49.16288,14.75688 36.55955,28.62773"
       id="path18934"
       inkscape:connector-curvature="0"
       sodipodi:nodetypes="cc" />
    <path
       style="fill:#ffd5d5;stroke:#000000;stroke-width:2;stroke-linecap:butt;stroke-linejoin:miter;stroke-opacity:1;display:inline"
       d="m 128.73563,60.478614 c -19.45329,19.545841 -25.0137,49.684866 -9.38824,73.898176"
       id="path18918"
       inkscape:connector-curvature="0"
       sodipodi:nodetypes="cc" />
    <path
       style="fill:#ffaaaa;stroke:#000000;stroke-width:2;stroke-linecap:butt;stroke-linejoin:miter;stroke-opacity:1;display:inline"
       d="m 144.86684,81.729228 c 15.11011,4.675313 25.69987,20.089612 31.78563,34.610632 5.97423,14.25489 0.77576,29.37211 -12.38461,23.37988 -10.64018,-4.84473 -25.72158,-10.94644 -34.17418,-12.83051 -9.87986,-2.20219 -9.82717,-16.28375 -7.30366,-27.499456 2.4373,-10.832574 10.83137,-21.140072 22.07682,-17.660546 z"
       id="path18920"
       inkscape:connector-curvature="0"
       sodipodi:nodetypes="ssssss" />
    <path
       style="fill:#000000;stroke:#000000;stroke-width:2;stroke-linecap:butt;stroke-linejoin:miter;stroke-opacity:1;display:inline"
       d="m 134.90662,118.51248 c 2.69785,3.13123 4.84295,-24.43457 2.03759,-24.124338 -2.96343,0.327716 -6.66449,18.754138 -2.03759,24.124338 z"
       id="path18926"
       inkscape:connector-curvature="0"
       sodipodi:nodetypes="sss" />
    <path
       style="fill:#000000;stroke:#000000;stroke-width:2;stroke-linecap:butt;stroke-linejoin:miter;stroke-opacity:1;display:inline"
       d="m 149.13182,96.455188 c -3.69638,-1.456093 8.09624,33.834022 9.85901,28.828542 4.16599,-11.82948 -6.18811,-27.382494 -9.85901,-28.828542 z"
       id="path18930"
       inkscape:connector-curvature="0"
       sodipodi:nodetypes="sss" />
  </g>
  <g
     inkscape:groupmode="layer"
     id="layer32"
     inkscape:label="コップ"
     style="display:inline"
     sodipodi:insensitive="true">
    <path
       sodipodi:type="arc"
       style="fill:none;stroke:#000000;stroke-width:1.36060035;display:inline"
       id="path18940"
       sodipodi:cx="1040.7037"
       sodipodi:cy="176.55797"
       sodipodi:rx="14.294053"
       sodipodi:ry="3.7909966"
       d="m 1054.9978,176.55797 a 14.294053,3.7909966 0 1 1 -28.5881,0 14.294053,3.7909966 0 1 1 28.5881,0 z"
       transform="matrix(1.2936657,0,0,1.670232,-1314.5997,-203.08328)" />
    <path
       sodipodi:type="arc"
       style="fill:#fff6d5;stroke:#000000;stroke-width:1.56501412;display:inline"
       id="path18942"
       sodipodi:cx="1042.8223"
       sodipodi:cy="208.70985"
       sodipodi:rx="12.167629"
       sodipodi:ry="3.766634"
       d="m 1054.9899,208.70985 a 12.167629,3.766634 0 1 1 -24.3353,0 12.167629,3.766634 0 1 1 24.3353,0 z"
       transform="matrix(1.3706254,0,0,1.1915292,-1398.0265,-106.10863)" />
    <path
       style="fill:none;stroke:#000000;stroke-width:2;stroke-linecap:butt;stroke-linejoin:miter;stroke-opacity:1;display:inline"
       d="m 10.942466,91.939865 c 0,-6.77898 0.326595,40.127055 1.211206,50.979915 0.884518,10.85286 37.554574,11.14865 38.044559,-0.25927 l 2.18481,-50.859425 C 52.833536,81.314259 10.684467,79.694933 10.942466,91.939955 z"
       id="path18944"
       inkscape:connector-curvature="0"
       sodipodi:nodetypes="szssss" />
  </g>
  <g
     inkscape:groupmode="layer"
     id="layer7"
     inkscape:label="枠面"
     style="display:inline;"
     sodipodi:insensitive="true">
    <path
       style="fill:#ffffff;stroke:none;display:inline"
       d="m 0,0 0,320 370,0 0,-320 -10,10 0,300 -350,0 0,-300 350,0 10,-10 z"
       id="path21072"
       inkscape:connector-curvature="0"
       sodipodi:nodetypes="ccccccccccc" />
  </g>
</svg>
