<?xml version="1.0" encoding="UTF-8" standalone="no"?>
<!-- Created with Inkscape (http://www.inkscape.org/) -->

<svg
   xmlns:dc="http://purl.org/dc/elements/1.1/"
   xmlns:cc="http://creativecommons.org/ns#"
   xmlns:rdf="http://www.w3.org/1999/02/22-rdf-syntax-ns#"
   xmlns:svg="http://www.w3.org/2000/svg"
   xmlns="http://www.w3.org/2000/svg"
   xmlns:sodipodi="http://sodipodi.sourceforge.net/DTD/sodipodi-0.dtd"
   xmlns:inkscape="http://www.inkscape.org/namespaces/inkscape"
   width="370"
   height="320"
   id="svg2"
   version="1.1"
   inkscape:version="0.48.4 r9939"
   sodipodi:docname="[01.行動]09.通話.svg"
   inkscape:export-filename="C:\Users\執安\Desktop\資料\臨時\TAKEDA\[01.行動]09.通話.png"
   inkscape:export-xdpi="90"
   inkscape:export-ydpi="90"
   enable-background="new">
  <defs
     id="defs4">
    <inkscape:perspective
       sodipodi:type="inkscape:persp3d"
       inkscape:vp_x="363.49708 : 943.81603 : 1"
       inkscape:vp_y="0 : 1000 : 0"
       inkscape:vp_z="744.09448 : 526.18109 : 1"
       inkscape:persp3d-origin="372.04724 : 350.78739 : 1"
       id="perspective5056" />
    <inkscape:perspective
       id="perspective5056-1"
       inkscape:persp3d-origin="372.04724 : 350.78739 : 1"
       inkscape:vp_z="744.09448 : 526.18109 : 1"
       inkscape:vp_y="0 : 1000 : 0"
       inkscape:vp_x="363.49708 : 943.81603 : 1"
       sodipodi:type="inkscape:persp3d" />
  </defs>
  <sodipodi:namedview
     id="base"
     pagecolor="#ffffff"
     bordercolor="#666666"
     borderopacity="1.0"
     inkscape:pageopacity="0.0"
     inkscape:pageshadow="2"
     inkscape:zoom="0.88377936"
     inkscape:cx="93.426401"
     inkscape:cy="111.4916"
     inkscape:document-units="px"
     inkscape:current-layer="g3163"
     showgrid="false"
     inkscape:window-width="1151"
     inkscape:window-height="693"
     inkscape:window-x="1"
     inkscape:window-y="-1"
     inkscape:window-maximized="0"
     showguides="true"
     inkscape:guide-bbox="true"
     inkscape:snap-grids="false"
     inkscape:snap-to-guides="false"
     showborder="true"
     inkscape:showpageshadow="false"
     fit-margin-top="0"
     fit-margin-left="0"
     fit-margin-right="0"
     fit-margin-bottom="0"
     inkscape:snap-page="false" />
  <metadata
     id="metadata7">
    <rdf:RDF>
      <cc:Work
         rdf:about="">
        <dc:format>image/svg+xml</dc:format>
        <dc:type
           rdf:resource="http://purl.org/dc/dcmitype/StillImage" />
        <dc:title></dc:title>
      </cc:Work>
    </rdf:RDF>
  </metadata>
  <g
     inkscape:groupmode="layer"
     id="layer2"
     inkscape:label="補助線"
     style="display:none"
     sodipodi:insensitive="true">
    <path
       style="fill:none;stroke:#0000ff;stroke-width:1px;stroke-linecap:butt;stroke-linejoin:miter;stroke-opacity:1"
       d="M 10,310 360,10"
       id="path3025"
       inkscape:connector-curvature="0"
       sodipodi:nodetypes="cc" />
    <path
       style="fill:none;stroke:#0000ff;stroke-width:1px;stroke-linecap:butt;stroke-linejoin:miter;stroke-opacity:1"
       d="M 10,10 360,310"
       id="path3027"
       inkscape:connector-curvature="0"
       sodipodi:nodetypes="cc" />
    <path
       style="fill:none;stroke:#ff0000;stroke-width:1px;stroke-linecap:butt;stroke-linejoin:miter;stroke-opacity:1;display:inline"
       d="m 10,0 0,320"
       id="path3006"
       inkscape:connector-curvature="0"
       sodipodi:nodetypes="cc" />
    <path
       style="fill:none;stroke:#ff0000;stroke-width:1px;stroke-linecap:butt;stroke-linejoin:miter;stroke-opacity:1;display:inline"
       d="m 360,0 0,320"
       id="path3010"
       inkscape:connector-curvature="0"
       sodipodi:nodetypes="cc" />
    <path
       style="fill:none;stroke:#ff0000;stroke-width:1px;stroke-linecap:butt;stroke-linejoin:miter;stroke-opacity:1;display:inline"
       d="M 0,9.9999681 370,10"
       id="path3016"
       inkscape:connector-curvature="0" />
    <path
       transform="translate(84.715796,27.711696)"
       style="fill:none;stroke:#ff0000;stroke-width:1px;stroke-linecap:butt;stroke-linejoin:miter;stroke-opacity:1;display:inline"
       d="m -84.715796,282.2883 369.999996,0"
       id="path3018"
       inkscape:connector-curvature="0"
       sodipodi:nodetypes="cc" />
  </g>
  <g
     style="display:inline"
     inkscape:label="豚"
     id="g3163"
     inkscape:groupmode="layer"
     transform="translate(84.715796,27.711696)"
     sodipodi:insensitive="true">
    <path
       style="fill:#ffd5d5;stroke:#000000;stroke-width:2;stroke-linecap:butt;stroke-linejoin:miter;stroke-opacity:1;display:inline"
       d="M 55.386034,41.521877 C 26.74998,45.263175 11.123155,65.080289 14.651699,84.688504 l -8.4981462,33.735526 -24.1786778,56.31386 -2.260578,77.82001 48.461195,16.99584 87.117068,2.46579 59.42836,-12.51472 0.69931,-113.52737 z"
       id="path10715"
       inkscape:connector-curvature="0"
       sodipodi:nodetypes="cccccccccc" />
    <path
       style="fill:#ffd5d5;stroke:#000000;stroke-width:2;stroke-linecap:butt;stroke-linejoin:miter;stroke-opacity:1;display:inline"
       d="M 9.8062445,115.33647 C -17.256284,136.64352 -24.656381,167.86692 -20.31989,189.12009"
       id="path10729"
       inkscape:connector-curvature="0"
       sodipodi:nodetypes="cc" />
    <g
       id="layer2-7"
       inkscape:label="枠"
       style="display:none"
       transform="matrix(0.8509374,0,0,0.8509374,-81.775057,15.547192)">
      <path
         style="fill:none;stroke:#0000ff;stroke-width:1px;stroke-linecap:butt;stroke-linejoin:miter;stroke-opacity:1"
         d="M 10.003906,310 359.99609,10.003906"
         id="path3025-4"
         inkscape:connector-curvature="0" />
      <path
         style="fill:none;stroke:#0000ff;stroke-width:1px;stroke-linecap:butt;stroke-linejoin:miter;stroke-opacity:1"
         d="M 10.003906,10 359.99609,310.00391"
         id="path3027-2"
         inkscape:connector-curvature="0" />
      <path
         style="fill:none;stroke:#ff0000;stroke-width:1px;stroke-linecap:butt;stroke-linejoin:miter;stroke-opacity:1;display:inline"
         d="M 9.9974312,-0.00137819 10,320"
         id="path3006-7"
         inkscape:connector-curvature="0" />
      <path
         style="fill:none;stroke:#ff0000;stroke-width:1px;stroke-linecap:butt;stroke-linejoin:miter;stroke-opacity:1;display:inline"
         d="M 360.00391,0.00390625 359.99609,319.99609"
         id="path3010-7"
         inkscape:connector-curvature="0" />
      <path
         style="fill:none;stroke:#ff0000;stroke-width:1px;stroke-linecap:butt;stroke-linejoin:miter;stroke-opacity:1;display:inline"
         d="M 0,9.9999681 370,10"
         id="path3016-9"
         inkscape:connector-curvature="0" />
      <path
         transform="translate(84.715796,27.711696)"
         style="fill:none;stroke:#ff0000;stroke-width:1px;stroke-linecap:butt;stroke-linejoin:miter;stroke-opacity:1;display:inline"
         d="m -84.714876,282.29077 370.002826,-0.003"
         id="path3018-3"
         inkscape:connector-curvature="0"
         sodipodi:nodetypes="cc" />
    </g>
    <path
       style="fill:#ffd5d5;stroke:#000000;stroke-width:2;stroke-linecap:butt;stroke-linejoin:miter;stroke-opacity:1;display:inline"
       d="M 22.305694,76.080404 C 5.8475094,91.679808 -2.691516,114.75992 9.5414938,140.9771"
       id="path10717"
       inkscape:connector-curvature="0"
       sodipodi:nodetypes="cc" />
    <path
       sodipodi:nodetypes="cc"
       inkscape:connector-curvature="0"
       id="path10719"
       d="M 36.693848,72.996949 35.562752,84.351247"
       style="fill:none;stroke:#000000;stroke-width:2;stroke-linecap:butt;stroke-linejoin:miter;stroke-opacity:1;display:inline" />
    <path
       sodipodi:nodetypes="cc"
       inkscape:connector-curvature="0"
       id="path10721"
       d="M 70.86941,85.394312 57.527598,92.884154"
       style="fill:none;stroke:#000000;stroke-width:2;stroke-linecap:butt;stroke-linejoin:miter;stroke-opacity:1;display:inline" />
    <path
       sodipodi:nodetypes="ssssss"
       inkscape:connector-curvature="0"
       id="path10725"
       d="m 38.473445,92.72794 c 14.235058,4.165499 28.231854,25.33078 30.834928,37.89875 2.692821,13.00131 -3.488619,21.39962 -11.121566,17.76528 -12.009964,-5.71843 -26.576884,-10.31374 -35.849336,-13.03734 -7.18635,-2.11086 -8.208122,-13.87307 -6.723494,-21.81062 2.456852,-13.13552 11.246269,-24.214354 22.859468,-20.81607 z"
       style="fill:#ffaaaa;stroke:#000000;stroke-width:2;stroke-linecap:butt;stroke-linejoin:miter;stroke-opacity:1;display:inline" />
    <path
       style="fill:#ffd5d5;stroke:#000000;stroke-width:2;stroke-linecap:butt;stroke-linejoin:miter;stroke-opacity:1;display:inline"
       d="m 174.75635,251.58248 c 17.28274,5.63541 19.95009,25.84919 1.16067,26.71223 -15.10793,0.69394 -55.02914,-2.84228 -68.46005,-5.56283"
       id="path4848"
       inkscape:connector-curvature="0"
       sodipodi:nodetypes="csc" />
    <path
       style="fill:#ffd5d5;stroke:#000000;stroke-width:2;stroke-linecap:butt;stroke-linejoin:miter;stroke-opacity:1;display:inline"
       d="m 172.73502,253.60716 c 25.27459,-24.37288 17.28699,-78.99743 0.19532,-103.85307"
       id="path4852"
       inkscape:connector-curvature="0"
       sodipodi:nodetypes="cc" />
    <path
       style="fill:#ffd5d5;stroke:#000000;stroke-width:2;stroke-linecap:butt;stroke-linejoin:miter;stroke-opacity:1;display:inline"
       d="M 173.63562,158.18343 C 184.26244,138.51245 174.25667,107.32196 155.08471,74.540072 133.271,37.241085 74.837704,21.591613 40.464145,50.721119"
       id="path4850"
       inkscape:connector-curvature="0" />
    <path
       style="fill:#ffd5d5;stroke:#000000;stroke-width:2;stroke-linecap:butt;stroke-linejoin:miter;stroke-opacity:1;display:inline"
       d="m 43.358445,270.08012 c -15.611008,3.70854 -64.357566,6.23824 -74.404695,-0.0232 -8.731571,-5.4416 -3.8731,-17.39183 9.440356,-25.33417"
       id="path4844"
       inkscape:connector-curvature="0" />
    <path
       style="fill:#ffd5d5;stroke:#000000;stroke-width:2;stroke-linecap:butt;stroke-linejoin:miter;stroke-opacity:1;display:inline"
       d="m -17.624738,251.28576 c -19.469566,-27.49828 -8.98068,-67.1642 13.2172265,-96.69527"
       id="path10727"
       inkscape:connector-curvature="0" />
    <path
       sodipodi:nodetypes="sss"
       inkscape:connector-curvature="0"
       id="path10731"
       d="m 50.847574,134.27572 c -2.352993,4.37963 -9.363197,-27.90091 -7.211576,-27.47454 3.919156,0.77632 12.256025,18.0853 7.211576,27.47454 z"
       style="fill:#000000;stroke:#000000;stroke-width:2;stroke-linecap:butt;stroke-linejoin:miter;stroke-opacity:1;display:inline" />
    <path
       sodipodi:nodetypes="sss"
       inkscape:connector-curvature="0"
       id="path10733"
       d="m 31.76666,103.73106 c 2.820288,-0.56903 -0.0291,26.66702 -2.185068,24.31373 -5.793056,-6.32323 -0.6512,-23.74148 2.185068,-24.31373 z"
       style="fill:#000000;stroke:#000000;stroke-width:2;stroke-linecap:butt;stroke-linejoin:miter;stroke-opacity:1;display:inline" />
    <g
       style="display:inline"
       id="g4736"
       transform="translate(-84.715796,-27.711696)">
      <path
         style="fill:#333333;stroke:#000000;stroke-width:2;stroke-linecap:butt;stroke-linejoin:miter;stroke-opacity:1;display:inline"
         d="m 190.39862,189.08948 -3.47144,-1.30529 c -0.81493,-0.36555 -1.74996,-0.8576 -2.52995,-1.71728 -2.84861,-3.13968 -7.917,-13.37605 -9.99702,-21.52239 -0.61467,-2.40732 -0.61714,-5.07694 1.45812,-6.63341 l 44.82154,-33.61658 c 0.94537,-0.70903 2.44039,-0.81433 3.44861,-0.59187 l 3.47144,1.30529"
         id="path10765-2"
         inkscape:connector-curvature="0"
         sodipodi:nodetypes="ccsssscc" />
      <path
         style="fill:#4d4d4d;stroke:#000000;stroke-width:2;display:inline"
         d="m 230.16639,126.64276 c 4.78276,4.37601 9.35125,17.28713 9.99702,21.52239 0.37451,2.45616 0.61714,5.07693 -1.45812,6.63339 l -44.82155,33.61659 c -2.07525,1.55648 -4.40302,0.78324 -6.06826,-1.06066 -2.84137,-3.14623 -7.917,-13.37604 -9.99702,-21.52239 -0.61467,-2.40732 -0.61714,-5.07694 1.45812,-6.63341 l 44.82155,-33.61658 c 2.07525,-1.55648 4.2352,-0.6165 6.06826,1.06067 z"
         id="rect10741"
         inkscape:connector-curvature="0"
         sodipodi:nodetypes="sssssssss" />
    </g>
    <path
       sodipodi:nodetypes="csc"
       inkscape:connector-curvature="0"
       id="path10723"
       d="m 225.40033,87.802085 c 43.18111,14.782375 41.23285,66.845585 16.37799,74.125355 -11.99753,3.51397 -8.63936,-31.5712 -25.56055,-36.81869"
       style="fill:#ffd5d5;stroke:#000000;stroke-width:2;stroke-linecap:butt;stroke-linejoin:miter;stroke-opacity:1;display:inline"
       transform="translate(-84.715796,-27.711696)" />
    <path
       sodipodi:nodetypes="cssssc"
       inkscape:connector-curvature="0"
       id="path10735-78"
       d="m 235.68921,171.25642 c -15.62102,-8.88399 -31.24929,-3.89041 -28.37943,0.90174 0.27496,0.45914 0.74493,1.43987 0.79452,1.94907 0.11402,1.17086 -2.92944,4.40786 -5.44353,5.98302 -1.72239,1.07908 -3.93908,0.47014 -6.32681,1.03542 -7.11434,1.68435 5.21736,33.17567 13.22314,41.20256"
       style="fill:#ffd5d5;stroke:none;display:inline"
       transform="translate(-84.715796,-27.711696)" />
    <path
       sodipodi:nodetypes="ccssccc"
       inkscape:connector-curvature="0"
       id="path10735-7"
       d="m 196.46081,180.95871 c 2.38773,-0.56528 4.60442,0.0437 6.32681,-1.03542 2.51409,-1.57516 5.96991,-4.69174 5.44353,-5.98302 l -0.79452,-1.94907 c -2.10852,-5.17252 9.71027,-6.11802 13.17195,-5.51605 12.07857,4.17136 -15.0311,34.10276 -23.70589,31.45494 -1.51655,-3.30896 -5.23083,-15.75211 -0.44188,-16.97138 z"
       style="fill:#ffaaaa;stroke:none;display:inline"
       transform="translate(-84.715796,-27.711696)" />
    <path
       sodipodi:nodetypes="sssscs"
       inkscape:connector-curvature="0"
       id="path10735-7-2"
       d="m 202.63862,179.95832 c -1.43618,0.85647 -3.9396,0.46799 -6.32681,1.03542 -1.1995,0.28512 -2.51589,2.43577 -2.05697,3.47702 1.96602,4.4607 12.96944,-0.60739 13.80689,-2.84341 1.18463,-3.16299 0.60314,-6.83949 -0.37684,-8.62658 1.18366,2.91134 -2.49818,5.43799 -5.04627,6.95755 z"
       style="fill:#ff8080;stroke:none;display:inline"
       transform="translate(-84.715796,-27.711696)" />
    <path
       sodipodi:nodetypes="cssccssc"
       inkscape:connector-curvature="0"
       id="path10735"
       d="m 235.73416,171.12179 c -15.93108,-8.3414 -30.87226,-4.09692 -28.37944,0.90174 1.37724,2.76163 2.06642,6.48057 0.7741,9.60112 -0.70253,1.69634 -11.15987,7.3201 -13.80689,2.84341 m 13.82731,-10.49546 c 0.1981,1.38031 -2.92944,4.40786 -5.44353,5.98302 -1.72238,1.07908 -3.93907,0.47014 -6.3268,1.03542 -7.11435,1.68435 5.21735,33.17567 13.22314,41.20256"
       style="fill:none;stroke:#000000;stroke-width:2;stroke-linecap:butt;stroke-linejoin:miter;stroke-opacity:1;display:inline"
       transform="translate(-84.715796,-27.711696)" />
    <path
       sodipodi:nodetypes="cc"
       inkscape:connector-curvature="0"
       id="path10737"
       d="m 220.87211,166.56333 c 10.82809,3.84939 -13.65779,33.25164 -23.93848,31.31184"
       style="fill:none;stroke:#000000;stroke-width:2;stroke-linecap:butt;stroke-linejoin:miter;stroke-opacity:1;display:inline"
       transform="translate(-84.715796,-27.711696)" />
    <path
       style="fill:#ffd5d5;stroke:#000000;stroke-width:2;stroke-linecap:butt;stroke-linejoin:miter;stroke-opacity:1;display:inline"
       d="m 133.5777,270.85279 c -29.55437,4.50487 -86.50608,2.80264 -113.514277,-3.71784"
       id="path4846"
       inkscape:connector-curvature="0"
       sodipodi:nodetypes="cc" />
  </g>
  <g
     inkscape:groupmode="layer"
     id="layer4"
     inkscape:label="蝶"
     style="display:inline"
     sodipodi:insensitive="true">
    <path
       style="fill:none;stroke:#000000;stroke-width:2;display:inline"
       d="m 129.81057,44.223749 c -19.52842,-1.39977 -31.895192,-3.474002 -31.895192,-5.788936 0,-4.215417 41.007252,-7.632688 91.592262,-7.632688 50.58502,0 91.59227,3.417271 91.59227,7.632688 0,4.215418 -41.00725,7.632689 -91.59227,7.632689"
       id="path5413"
       inkscape:connector-curvature="0"
       sodipodi:nodetypes="csssc" />
    <path
       style="fill:#ffff00;stroke:#000000;stroke-width:2;stroke-linecap:butt;stroke-linejoin:miter;stroke-opacity:1;display:inline"
       d="m 161.59303,39.722654 c 7.46857,-1.411325 18.8585,0.21968 19.11216,3.625413 0.21306,2.860547 -0.77961,8.369454 -5.01105,9.392374 -3.63899,0.879698 -7.95585,-4.652738 -13.64072,-10.769841"
       id="path5331"
       inkscape:connector-curvature="0"
       sodipodi:nodetypes="cssc" />
    <path
       style="fill:#ffff00;stroke:#000000;stroke-width:2;stroke-linecap:butt;stroke-linejoin:miter;stroke-opacity:1;display:inline"
       d="m 159.10728,39.728865 c -2.05434,0.639714 -4.10076,1.697637 -4.58498,3.413192 -0.55766,1.975741 4.19005,10.06975 5.2156,9.95558 2.60408,-0.2899 1.41361,-7.161684 1.69322,-9.598638"
       id="path5333"
       inkscape:connector-curvature="0"
       sodipodi:nodetypes="cssc" />
    <path
       style="fill:#ffff00;stroke:#000000;stroke-width:2;stroke-linecap:butt;stroke-linejoin:miter;stroke-opacity:1;display:inline"
       d="m 159.54719,37.504437 c 1.02217,-9.963016 25.91811,-24.551102 30.3544,-20.164436 3.11926,3.084375 -7.38867,7.241879 -9.54923,18.994851 -1.93217,10.510583 -10.62832,4.378161 -19.55022,3.328173"
       id="path5327"
       inkscape:connector-curvature="0"
       sodipodi:nodetypes="cssc" />
    <path
       style="fill:#ffff00;stroke:#000000;stroke-width:2;stroke-linecap:butt;stroke-linejoin:miter;stroke-opacity:1;display:inline"
       d="m 158.15675,37.495548 c -3.40394,-9.454572 -11.47651,-16.51966 -13.51966,-18.040296 -2.10441,-1.566241 6.64176,10.722847 8.23086,18.510742 1.0443,5.11792 4.16896,5.073251 6.06168,1.826562"
       id="path5329"
       inkscape:connector-curvature="0"
       sodipodi:nodetypes="cssc" />
    <path
       style="fill:#333333;stroke:#000000;stroke-width:2;stroke-linecap:butt;stroke-linejoin:miter;stroke-opacity:1;display:inline"
       d="m 160.10583,41.321234 c 2.44839,3.009665 0.82583,9.468194 2.50797,9.162569 1.86237,-0.338375 1.72734,-5.575267 -1.09589,-9.57968 -0.24717,-1.650122 -0.77944,-3.211439 -1.84607,-4.472756 0.40255,-1.61437 -1.44613,-3.06231 -2.56153,-2.60298 -1.57972,0.650541 -0.99563,3.192686 0.49968,3.275629 0.3974,1.916637 0.32874,3.400684 2.49584,4.217218 z"
       id="path5335"
       inkscape:connector-curvature="0"
       sodipodi:nodetypes="csccscc" />
    <path
       style="fill:none;stroke:#000000;stroke-width:2;stroke-linecap:butt;stroke-linejoin:miter;stroke-opacity:1;display:inline"
       d="m 158.41169,33.863454 c 0.99978,-2.351349 0.74686,-6.294583 0.0142,-8.951774"
       id="path5337"
       inkscape:connector-curvature="0"
       sodipodi:nodetypes="cc" />
    <path
       style="fill:none;stroke:#000000;stroke-width:2;stroke-linecap:butt;stroke-linejoin:miter;stroke-opacity:1;display:inline"
       d="m 156.65938,33.946419 c -1.48701,-2.484935 -3.90263,-4.930794 -6.61281,-6.545818"
       id="path5339"
       inkscape:connector-curvature="0"
       sodipodi:nodetypes="cc" />
    <path
       style="opacity:0.3;fill:#ffff00;stroke:#000000;stroke-width:2;stroke-linecap:butt;stroke-linejoin:miter;stroke-opacity:1;display:inline"
       d="m 162.77855,27.299665 c 2.84051,-8.844622 15.82558,-17.7621712 14.8421,-14.959425 -0.98743,2.813994 -2.461,4.842958 -3.14185,8.012725"
       id="path5389"
       inkscape:connector-curvature="0"
       sodipodi:nodetypes="csc" />
    <path
       style="opacity:0.3;fill:#ffff00;stroke:#000000;stroke-width:2;stroke-linecap:butt;stroke-linejoin:miter;stroke-opacity:1;display:inline"
       d="m 157.8656,27.973429 c -0.65696,-2.985127 -2.67396,-12.031868 -4.56819,-14.872117 -0.6674,-1.000712 1.47617,8.910768 2.40494,13.69323"
       id="path5391"
       inkscape:connector-curvature="0"
       sodipodi:nodetypes="csc" />
  </g>
  <g
     inkscape:groupmode="layer"
     id="layer15"
     inkscape:label="吹き出し"
     style="display:inline"
     sodipodi:insensitive="true">
    <path
       style="fill:#fefefe;fill-opacity:1;stroke:#000000;stroke-width:2"
       d="m 346.14161,125.98214 c 0,16.49968 -20.90904,29.87532 -46.70165,29.87532 -6.18294,0 -12.08524,-0.76862 -17.48616,-2.16465 -1.74813,-0.45186 -20.32197,14.65338 -41.80044,1.44699 21.58774,6.04063 32.66477,-4.56218 30.79701,-5.48334 -11.07639,-5.46275 -18.21205,-14.03546 -18.21205,-23.67432 0,-16.49968 20.90904,-29.875324 46.70164,-29.875324 25.79261,0 46.70165,13.375644 46.70165,29.875324 z"
       id="path16124"
       inkscape:connector-curvature="0"
       sodipodi:nodetypes="ssscssss" />
    <text
       xml:space="preserve"
       style="font-size:40px;font-style:normal;font-weight:normal;line-height:125%;letter-spacing:0px;word-spacing:0px;fill:#000000;fill-opacity:1;stroke:none;font-family:Sans"
       x="290.7041"
       y="73.625481"
       id="text16126"
       sodipodi:linespacing="125%"
       transform="matrix(0.97718068,0.2124098,-0.2124098,0.97718068,0,0)"><tspan
         sodipodi:role="line"
         id="tspan16128"
         x="290.7041"
         y="73.625481"
         style="font-style:normal;font-variant:normal;font-weight:bold;font-stretch:normal;font-family:FOT-TsukuMin Pro;-inkscape-font-specification:FOT-TsukuMin Pro Bold">♪</tspan></text>
    <text
       xml:space="preserve"
       style="font-size:30.91710854px;font-style:normal;font-weight:normal;line-height:125%;letter-spacing:0px;word-spacing:0px;fill:#000000;fill-opacity:1;stroke:none;font-family:Sans"
       x="302.01395"
       y="138.50032"
       id="text16130"
       sodipodi:linespacing="125%"><tspan
         sodipodi:role="line"
         id="tspan16132"
         x="302.01395"
         y="138.50032">～</tspan></text>
  </g>
  <g
     inkscape:groupmode="layer"
     id="layer7"
     inkscape:label="枠面"
     style="display:inline;"
     sodipodi:insensitive="true">
    <path
       style="fill:#ffffff;stroke:none;display:inline"
       d="m 0,0 0,320 370,0 0,-320 -10,10 0,300 -350,0 0,-300 350,0 10,-10 z"
       id="path21072"
       inkscape:connector-curvature="0"
       sodipodi:nodetypes="ccccccccccc" />
  </g>
</svg>
