<?xml version="1.0" encoding="UTF-8" standalone="no"?>
<!-- Created with Inkscape (http://www.inkscape.org/) -->

<svg
   xmlns:dc="http://purl.org/dc/elements/1.1/"
   xmlns:cc="http://creativecommons.org/ns#"
   xmlns:rdf="http://www.w3.org/1999/02/22-rdf-syntax-ns#"
   xmlns:svg="http://www.w3.org/2000/svg"
   xmlns="http://www.w3.org/2000/svg"
   xmlns:xlink="http://www.w3.org/1999/xlink"
   xmlns:sodipodi="http://sodipodi.sourceforge.net/DTD/sodipodi-0.dtd"
   xmlns:inkscape="http://www.inkscape.org/namespaces/inkscape"
   width="370"
   height="320"
   id="svg2"
   version="1.1"
   inkscape:version="0.48.4 r9939"
   sodipodi:docname="[01.行動]03.捜索.svg"
   inkscape:export-filename="C:\Users\執安\Desktop\資料\臨時\描画3.png"
   inkscape:export-xdpi="90"
   inkscape:export-ydpi="90"
   enable-background="new">
  <defs
     id="defs4">
    <inkscape:perspective
       sodipodi:type="inkscape:persp3d"
       inkscape:vp_x="363.49708 : 943.81603 : 1"
       inkscape:vp_y="0 : 1000 : 0"
       inkscape:vp_z="744.09448 : 526.18109 : 1"
       inkscape:persp3d-origin="372.04724 : 350.78739 : 1"
       id="perspective5056" />
    <inkscape:perspective
       id="perspective5056-8"
       inkscape:persp3d-origin="372.04724 : 350.78739 : 1"
       inkscape:vp_z="744.09448 : 526.18109 : 1"
       inkscape:vp_y="0 : 1000 : 0"
       inkscape:vp_x="363.49708 : 943.81603 : 1"
       sodipodi:type="inkscape:persp3d" />
    <linearGradient
       id="linearGradient12499-5-3"
       inkscape:collect="always">
      <stop
         id="stop12501-0-8"
         offset="0"
         style="stop-color:#ffd5d5;stop-opacity:1;" />
      <stop
         id="stop12503-9-9"
         offset="1"
         style="stop-color:#ffd5d5;stop-opacity:0;" />
    </linearGradient>
    <linearGradient
       id="linearGradient12499-5"
       inkscape:collect="always">
      <stop
         id="stop12501-0"
         offset="0"
         style="stop-color:#ffd5d5;stop-opacity:1;" />
      <stop
         id="stop12503-9"
         offset="1"
         style="stop-color:#ffd5d5;stop-opacity:0;" />
    </linearGradient>
    <linearGradient
       id="linearGradient12499-8"
       inkscape:collect="always">
      <stop
         id="stop12501-6"
         offset="0"
         style="stop-color:#ffd5d5;stop-opacity:1;" />
      <stop
         id="stop12503-0"
         offset="1"
         style="stop-color:#ffd5d5;stop-opacity:0;" />
    </linearGradient>
    <linearGradient
       gradientTransform="translate(0,-7)"
       gradientUnits="userSpaceOnUse"
       y2="78.526123"
       x2="178.78178"
       y1="135.02612"
       x1="175.8602"
       id="linearGradient12505-2"
       xlink:href="#linearGradient12499-8"
       inkscape:collect="always" />
    <linearGradient
       id="linearGradient12499-9"
       inkscape:collect="always">
      <stop
         id="stop12501-8"
         offset="0"
         style="stop-color:#ffd5d5;stop-opacity:1;" />
      <stop
         id="stop12503-6"
         offset="1"
         style="stop-color:#ffd5d5;stop-opacity:0;" />
    </linearGradient>
    <linearGradient
       gradientTransform="translate(0,-7)"
       gradientUnits="userSpaceOnUse"
       y2="78.526123"
       x2="178.78178"
       y1="135.02612"
       x1="175.8602"
       id="linearGradient12505-1"
       xlink:href="#linearGradient12499-9"
       inkscape:collect="always" />
    <inkscape:perspective
       id="perspective5056-5"
       inkscape:persp3d-origin="372.04724 : 350.78739 : 1"
       inkscape:vp_z="744.09448 : 526.18109 : 1"
       inkscape:vp_y="0 : 1000 : 0"
       inkscape:vp_x="363.49708 : 943.81603 : 1"
       sodipodi:type="inkscape:persp3d" />
    <linearGradient
       id="linearGradient12499"
       inkscape:collect="always">
      <stop
         id="stop12501"
         offset="0"
         style="stop-color:#ffd5d5;stop-opacity:1;" />
      <stop
         id="stop12503"
         offset="1"
         style="stop-color:#ffd5d5;stop-opacity:0;" />
    </linearGradient>
    <linearGradient
       inkscape:collect="always"
       xlink:href="#linearGradient12499"
       id="linearGradient4842"
       gradientUnits="userSpaceOnUse"
       gradientTransform="matrix(0.98323667,-0.18233388,0.18233388,0.98323667,74.736688,42.602255)"
       x1="175.8602"
       y1="135.02612"
       x2="180.12286"
       y2="104.20104" />
    <linearGradient
       inkscape:collect="always"
       xlink:href="#linearGradient12499-5"
       id="linearGradient4848"
       gradientUnits="userSpaceOnUse"
       gradientTransform="matrix(0.99586062,-0.09089341,0.09089341,0.99586062,90.234074,51.049697)"
       x1="184.3886"
       y1="140.77484"
       x2="178.00351"
       y2="106.50191" />
    <linearGradient
       inkscape:collect="always"
       xlink:href="#linearGradient12499-5-3"
       id="linearGradient4854"
       gradientUnits="userSpaceOnUse"
       gradientTransform="matrix(0.99850313,0.05469451,-0.05469451,0.99850313,114.06992,56.176849)"
       x1="186.74098"
       y1="139.74136"
       x2="168.63582"
       y2="87.2258" />
    <inkscape:perspective
       sodipodi:type="inkscape:persp3d"
       inkscape:vp_x="363.49708 : 943.81603 : 1"
       inkscape:vp_y="0 : 1000 : 0"
       inkscape:vp_z="744.09448 : 526.18109 : 1"
       inkscape:persp3d-origin="372.04724 : 350.78739 : 1"
       id="perspective5056-4" />
    <inkscape:perspective
       sodipodi:type="inkscape:persp3d"
       inkscape:vp_x="363.49708 : 943.81603 : 1"
       inkscape:vp_y="0 : 1000 : 0"
       inkscape:vp_z="744.09448 : 526.18109 : 1"
       inkscape:persp3d-origin="372.04724 : 350.78739 : 1"
       id="perspective5056-8-7" />
    <inkscape:perspective
       id="perspective5056-85"
       inkscape:persp3d-origin="372.04724 : 350.78739 : 1"
       inkscape:vp_z="744.09448 : 526.18109 : 1"
       inkscape:vp_y="0 : 1000 : 0"
       inkscape:vp_x="363.49708 : 943.81603 : 1"
       sodipodi:type="inkscape:persp3d" />
    <inkscape:perspective
       id="perspective5056-81"
       inkscape:persp3d-origin="372.04724 : 350.78739 : 1"
       inkscape:vp_z="744.09448 : 526.18109 : 1"
       inkscape:vp_y="0 : 1000 : 0"
       inkscape:vp_x="363.49708 : 943.81603 : 1"
       sodipodi:type="inkscape:persp3d" />
  </defs>
  <sodipodi:namedview
     id="base"
     pagecolor="#ffffff"
     bordercolor="#666666"
     borderopacity="1.0"
     inkscape:pageopacity="0.0"
     inkscape:pageshadow="2"
     inkscape:zoom="1.0527344"
     inkscape:cx="220.76493"
     inkscape:cy="148.94998"
     inkscape:document-units="px"
     inkscape:current-layer="g12416"
     showgrid="false"
     inkscape:window-width="1081"
     inkscape:window-height="694"
     inkscape:window-x="-3"
     inkscape:window-y="-2"
     inkscape:window-maximized="0"
     showguides="true"
     inkscape:guide-bbox="true"
     inkscape:snap-grids="false"
     inkscape:snap-to-guides="false"
     showborder="true"
     inkscape:showpageshadow="false"
     fit-margin-top="0"
     fit-margin-left="0"
     fit-margin-right="0"
     fit-margin-bottom="0"
     inkscape:snap-page="false" />
  <metadata
     id="metadata7">
    <rdf:RDF>
      <cc:Work
         rdf:about="">
        <dc:format>image/svg+xml</dc:format>
        <dc:type
           rdf:resource="http://purl.org/dc/dcmitype/StillImage" />
        <dc:title />
      </cc:Work>
    </rdf:RDF>
  </metadata>
  <g
     inkscape:groupmode="layer"
     id="layer2"
     inkscape:label="補助線"
     style="display:none"
     sodipodi:insensitive="true">
    <path
       style="fill:none;stroke:#0000ff;stroke-width:1px;stroke-linecap:butt;stroke-linejoin:miter;stroke-opacity:1"
       d="M 10,310 360,10"
       id="path3025"
       inkscape:connector-curvature="0"
       sodipodi:nodetypes="cc" />
    <path
       style="fill:none;stroke:#0000ff;stroke-width:1px;stroke-linecap:butt;stroke-linejoin:miter;stroke-opacity:1"
       d="M 10,10 360,310"
       id="path3027"
       inkscape:connector-curvature="0"
       sodipodi:nodetypes="cc" />
    <path
       style="fill:none;stroke:#ff0000;stroke-width:1px;stroke-linecap:butt;stroke-linejoin:miter;stroke-opacity:1;display:inline"
       d="m 10,0 0,320"
       id="path3006"
       inkscape:connector-curvature="0"
       sodipodi:nodetypes="cc" />
    <path
       style="fill:none;stroke:#ff0000;stroke-width:1px;stroke-linecap:butt;stroke-linejoin:miter;stroke-opacity:1;display:inline"
       d="m 360,0 0,320"
       id="path3010"
       inkscape:connector-curvature="0"
       sodipodi:nodetypes="cc" />
    <path
       style="fill:none;stroke:#ff0000;stroke-width:1px;stroke-linecap:butt;stroke-linejoin:miter;stroke-opacity:1;display:inline"
       d="M 0,9.9999681 370,10"
       id="path3016"
       inkscape:connector-curvature="0" />
    <path
       transform="translate(84.715796,27.711696)"
       style="fill:none;stroke:#ff0000;stroke-width:1px;stroke-linecap:butt;stroke-linejoin:miter;stroke-opacity:1;display:inline"
       d="m -84.715796,282.2883 369.999996,0"
       id="path3018"
       inkscape:connector-curvature="0"
       sodipodi:nodetypes="cc" />
  </g>
  <g
     inkscape:groupmode="layer"
     id="layer11"
     inkscape:label="豚: 2"
     style="display:inline"
     sodipodi:insensitive="true">
    <path
       style="fill:#ffd5d5;stroke:none;display:inline"
       d="m 337.66303,163.78689 c 12.74779,21.30061 17.83083,41.84689 14.86555,45.08634 -1.66294,1.81666 -3.07565,2.27256 -3.85872,3.28044 -1.45154,1.86826 -1.40407,4.6854 -2.83473,5.98703 -0.79774,0.72579 -8.09672,1.39368 -10.81706,1.39264 -2.14117,-19.14685 -33.28349,-43.7115 2.64496,-55.74645 z"
       id="path6131-3"
       inkscape:connector-curvature="0"
       sodipodi:nodetypes="cssscc" />
    <path
       sodipodi:nodetypes="cssscc"
       inkscape:connector-curvature="0"
       id="path6174-7-2"
       d="m 351.23746,193.24181 c 3.05392,8.09541 2.94724,14.36894 1.73196,15.67089 -1.68054,1.80039 -1.66144,0.85835 -3.32839,2.75011 -1.56412,1.77507 -1.34828,2.92604 -2.24006,4.64236 -1.17274,2.25704 -4.90158,3.19009 -8.8532,3.11492 6.2109,-4.63785 11.20021,-15.5639 12.68969,-26.17828 z"
       style="fill:#ffaaaa;stroke:none;display:inline" />
    <path
       style="fill:none;stroke:#000000;stroke-width:2;stroke-linecap:butt;stroke-linejoin:miter;stroke-opacity:1;display:inline"
       d="m 337.90783,163.90206 c 12.74779,21.30061 17.83083,41.84689 14.86555,45.08634 -1.66294,1.81666 -3.07565,2.27256 -3.85872,3.28044 -1.45154,1.86826 -1.40407,4.6854 -2.83473,5.98703 -0.79774,0.72579 -8.09672,1.39368 -10.81706,1.39264"
       id="path6131"
       inkscape:connector-curvature="0"
       sodipodi:nodetypes="csssc" />
    <path
       sodipodi:nodetypes="cc"
       inkscape:connector-curvature="0"
       id="path6174"
       d="m 338.37337,219.47696 c 5.03593,-1.25122 11.89732,-15.54507 12.89316,-26.26676"
       style="fill:none;stroke:#000000;stroke-width:2;stroke-linecap:butt;stroke-linejoin:miter;stroke-opacity:1;display:inline" />
    <path
       style="fill:#ffd5d5;stroke:#000000;stroke-width:2;stroke-linecap:butt;stroke-linejoin:miter;stroke-opacity:1;display:inline"
       d="m 296.79761,44.25515 c 13.97934,1.449315 24.69083,5.63198 30.55199,17.127874"
       id="path6143"
       inkscape:connector-curvature="0"
       sodipodi:nodetypes="cc" />
    <path
       style="fill:#ffd5d5;stroke:none;display:inline"
       d="M 228.36717,279.8819 C 112.86251,267.39623 121.81762,141.41458 185.38625,104.06771 184.4029,82.466742 208.94748,62.447052 224.30724,52.217346 c 43.38506,-28.894743 98.80399,-7.07736 116.07671,25.90678 3.1575,6.02963 5.58808,20.629352 15.50465,23.608854 5.46386,1.64165 1.31124,17.66945 -1.09562,33.45188 -1.69842,11.13755 -2.86381,15.23955 -5.84698,16.36035 -4.18247,1.57139 -13.66103,17.50371 -16.74667,21.27779 11.17345,41.49041 12.86295,59.45159 -9.62994,85.19466 11.19752,4.40165 19.75565,15.76056 14.62194,22.41435 -9.04116,11.71823 -74.27657,13.29365 -77.16833,-0.40744 -7.07212,0.56868 -24.40563,1.47155 -31.65583,-0.14267 z"
       id="path6135-7"
       inkscape:connector-curvature="0"
       sodipodi:nodetypes="ccsssssccscc" />
    <path
       style="fill:none;stroke:#000000;stroke-width:2;stroke-linecap:butt;stroke-linejoin:miter;stroke-opacity:1;display:inline"
       d="m 228.36757,279.86724 c 14.89543,2.50551 31.41363,0.31638 49.77938,-2.56629"
       id="path6125"
       inkscape:connector-curvature="0"
       sodipodi:nodetypes="cc" />
    <path
       style="fill:none;stroke:#000000;stroke-width:2;stroke-linecap:butt;stroke-linejoin:miter;stroke-opacity:1;display:inline"
       d="m 260.05773,280.27268 c 1.71484,12.7621 71.42041,11.9924 77.13867,0.16068 4.60302,-9.52416 -5.23533,-17.91052 -14.70866,-22.44112"
       id="path6127"
       inkscape:connector-curvature="0"
       sodipodi:nodetypes="csc" />
    <path
       style="fill:none;stroke:#000000;stroke-width:2;stroke-linecap:butt;stroke-linejoin:miter;stroke-opacity:1;display:inline"
       d="m 312.86997,265.22762 c 23.89727,-14.88061 36.48312,-42.46077 19.32184,-92.49705"
       id="path6129"
       inkscape:connector-curvature="0"
       sodipodi:nodetypes="cc" />
    <path
       style="fill:#ffaaaa;stroke:#000000;stroke-width:2;stroke-linecap:butt;stroke-linejoin:miter;stroke-opacity:1;display:inline"
       d="m 353.52821,101.32214 c -11.59615,0.59895 -35.29244,21.7721 -39.60989,35.89957 -5.3331,17.45051 4.39292,19.41535 12.25453,17.16452 12.52679,-3.58646 16.14235,-2.88554 20.42887,-2.48567 4.91552,0.45853 6.60603,-5.60654 8.30445,-16.7441 2.40686,-15.78242 7.89261,-34.31316 -1.37796,-33.83432 z"
       id="path6135"
       inkscape:connector-curvature="0"
       sodipodi:nodetypes="ssssss" />
    <path
       style="fill:none;stroke:#000000;stroke-width:2;stroke-linecap:butt;stroke-linejoin:miter;stroke-opacity:1;display:inline"
       d="m 310.85285,87.178018 c 6.35661,2.957731 14.56654,6.848814 19.58896,11.037459"
       id="path6137"
       inkscape:connector-curvature="0"
       sodipodi:nodetypes="cc" />
    <path
       style="fill:none;stroke:#000000;stroke-width:2;stroke-linecap:butt;stroke-linejoin:miter;stroke-opacity:1;display:inline"
       d="M 355.88382,101.72744 C 343.99852,96.67645 343.43603,84.016063 340.27853,77.986433 323.00581,45.002289 268.40605,23.064251 224.30517,52.23238 207.2214,63.531511 184.61634,81.795043 185.39966,104.12181"
       id="path6139"
       inkscape:connector-curvature="0"
       sodipodi:nodetypes="cssc" />
    <path
       style="fill:none;stroke:#000000;stroke-width:2;stroke-linecap:butt;stroke-linejoin:miter;stroke-opacity:1;display:inline"
       d="m 249.4281,47.970487 c -18.41562,-1.163842 -37.42538,10.812373 -41.62798,24.500083 -6.55817,21.359713 10.67095,51.32589 25.38882,50.46369 10.66205,-0.6246 22.52372,-24.580844 36.78566,-33.211848"
       id="path6141"
       inkscape:connector-curvature="0"
       sodipodi:nodetypes="cssc" />
    <path
       style="fill:none;stroke:#000000;stroke-width:2;stroke-linecap:butt;stroke-linejoin:miter;stroke-opacity:1;display:inline"
       d="m 348.96746,151.5183 c -8.2021,4.45814 -10.27821,15.37382 -20.30845,25.33751"
       id="path6153"
       inkscape:connector-curvature="0"
       sodipodi:nodetypes="cc" />
    <path
       sodipodi:nodetypes="sss"
       inkscape:connector-curvature="0"
       id="path6159"
       d="m 346.03446,114.97168 c -5.29903,1.37463 -19.80671,29.11541 -14.26134,28.56094 5.08259,-0.50817 15.87548,-28.97969 14.26134,-28.56094 z"
       style="fill:#000000;stroke:#000000;stroke-width:2;stroke-linecap:butt;stroke-linejoin:miter;stroke-opacity:1;display:inline" />
    <path
       sodipodi:nodetypes="sss"
       inkscape:connector-curvature="0"
       id="path6161"
       d="m 354.00177,115.19468 c -2.14116,-1.37961 -9.11468,26.74147 -6.19746,26.50972 4.32796,-0.34379 7.69742,-25.54321 6.19746,-26.50972 z"
       style="fill:#000000;stroke:#000000;stroke-width:2;stroke-linecap:butt;stroke-linejoin:miter;stroke-opacity:1;display:inline" />
  </g>
  <g
     style="display:inline"
     inkscape:label="豚: 1"
     id="g12278"
     inkscape:groupmode="layer"
     sodipodi:insensitive="true">
    <path
       sodipodi:nodetypes="ccsccsssccscscc"
       inkscape:connector-curvature="0"
       id="path12350"
       d="m 150.68686,282.63909 c -20.65513,-1.55286 -42.74111,1.1755 -50.83713,0.1288 0.95371,7.45418 -58.389106,10.25587 -67.132083,-2.89578 -3.990479,-6.00269 3.771241,-16.07862 13.076366,-18.12777 -10.131612,-10.0472 -17.673052,-23.30349 -14.642741,-50.22161 -7.315777,0.22717 -11.087285,0.419 -14.582657,-3.25105 -1.78251,-1.87179 1.952957,-6.08016 -0.05521,-8.40791 -1.85469,-2.14993 -4.1091,-1.59449 -5.66783,-4.07692 -2.66278,-4.24069 13.094588,-35.50289 26.181264,-47.26818 -7.447558,-13.37583 -8.56272,-23.96967 -3.332345,-36.72412 -4.428407,-6.8997 1.878394,-30.306685 9.085993,-41.482995 7.408351,-11.4876 16.218567,-18.917342 24.814933,-18.239121 24.112203,-23.044246 80.73226,-21.854429 113.3076,16.33179 10.28485,12.056348 28.25897,32.875326 27.2455,52.023326 44.76935,47.48755 80.83907,143.80802 -57.46166,162.21154 z"
       style="fill:#ffd5d5;stroke:none;display:inline" />
    <path
       sodipodi:nodetypes="csc"
       inkscape:connector-curvature="0"
       id="path12352"
       d="M 59.295203,59.921555 C 87.258388,27.961431 143.72119,27.994003 180.86672,68.344357 200.50337,89.675219 209.70305,107.57268 208.16941,120.4915"
       style="fill:none;stroke:#000000;stroke-width:2;stroke-linecap:butt;stroke-linejoin:miter;stroke-opacity:1;display:inline" />
    <path
       sodipodi:nodetypes="csc"
       inkscape:connector-curvature="0"
       id="path12354"
       d="m 67.588923,52.073292 c -9.556042,0.635401 -17.396211,6.749603 -24.804562,18.237198 -7.207599,11.176307 -13.410393,34.83963 -9.1056,41.48912"
       style="fill:none;stroke:#000000;stroke-width:2;stroke-linecap:butt;stroke-linejoin:miter;stroke-opacity:1;display:inline" />
    <path
       sodipodi:nodetypes="cc"
       inkscape:connector-curvature="0"
       id="path12356"
       d="M 40.504742,97.239834 C 29.595799,115.34863 26.744344,134.27065 39.613483,152.44044"
       style="fill:none;stroke:#000000;stroke-width:2;stroke-linecap:butt;stroke-linejoin:miter;stroke-opacity:1;display:inline" />
    <path
       style="fill:#ffaaaa;stroke:none;display:inline"
       d="m 14.95963,181.20072 c -2.07489,3.64507 -5.837101,12.38164 -4.299321,14.68483 1.627652,2.4378 3.81314,1.92699 5.66783,4.07692 2.00817,2.32775 -1.594912,6.39726 0.214145,8.24341 2.43287,2.48275 4.702386,3.68003 9.956276,3.5078 -5.038741,-3.63584 -11.479497,-21.55303 -11.53893,-30.51296 z"
       id="path12358"
       inkscape:connector-curvature="0"
       sodipodi:nodetypes="cssscc" />
    <path
       sodipodi:nodetypes="csssc"
       inkscape:connector-curvature="0"
       id="path12360"
       d="m 37.078827,148.5094 c -14.294222,14.43792 -28.867642,43.04472 -26.204853,47.28541 1.558724,2.48243 3.194415,2.01538 5.049108,4.16531 2.008172,2.32775 -1.251435,6.39066 0.585544,8.20903 3.08315,3.05192 7.684632,3.82509 14.748616,3.37512"
       style="fill:none;stroke:#000000;stroke-width:2;stroke-linecap:butt;stroke-linejoin:miter;stroke-opacity:1;display:inline" />
    <path
       sodipodi:nodetypes="cc"
       inkscape:connector-curvature="0"
       id="path12362"
       d="m 35.227011,194.96764 c -12.733485,38.98765 1.208302,61.57542 17.709156,72.11481"
       style="fill:none;stroke:#000000;stroke-width:2;stroke-linecap:butt;stroke-linejoin:miter;stroke-opacity:1;display:inline" />
    <path
       sodipodi:nodetypes="csc"
       inkscape:connector-curvature="0"
       id="path12364"
       d="m 45.958562,261.71543 c -6.456363,1.98089 -18.41142,10.83316 -13.625446,18.33845 8.49117,13.31561 64.611814,10.35931 67.536294,2.88242"
       style="fill:none;stroke:#000000;stroke-width:2;stroke-linecap:butt;stroke-linejoin:miter;stroke-opacity:1;display:inline" />
    <path
       sodipodi:nodetypes="cc"
       inkscape:connector-curvature="0"
       id="path12366"
       d="m 86.707045,280.30233 c 16.536705,5.5652 42.629425,0.36554 68.087755,2.61895"
       style="fill:none;stroke:#000000;stroke-width:2;stroke-linecap:butt;stroke-linejoin:miter;stroke-opacity:1;display:inline" />
    <path
       sodipodi:nodetypes="cssc"
       inkscape:connector-curvature="0"
       id="path12392"
       d="m 150.64776,49.453367 c 24.28078,0.284513 38.26688,17.114036 43.4608,31.906223 5.51462,15.705526 -3.71592,46.44472 -17.04519,47.36081 -14.31969,0.98416 -27.18614,-30.44232 -37.99858,-42.912517"
       style="fill:#ffd5d5;stroke:#000000;stroke-width:2;stroke-linecap:butt;stroke-linejoin:miter;stroke-opacity:1;display:inline" />
    <path
       sodipodi:nodetypes="cc"
       inkscape:connector-curvature="0"
       id="path12394"
       d="M 98.877701,84.039293 C 93.441863,88.441077 87.235863,94.043842 83.628083,99.90295"
       style="fill:none;stroke:#000000;stroke-width:2;stroke-linecap:butt;stroke-linejoin:miter;stroke-opacity:1;display:inline" />
    <path
       sodipodi:nodetypes="ssssss"
       inkscape:connector-curvature="0"
       id="path12396"
       d="m 65.315514,102.46948 c -9.439526,-0.62622 -18.874126,11.34359 -21.333999,23.55399 -2.376187,11.795 2.548421,18.39753 7.695621,18.06499 9.459651,-0.61119 20.333787,1.57315 36.358558,4.96052 11.889966,2.51337 20.785226,-4.34267 15.693496,-16.37972 -3.47413,-8.21309 -18.494022,-28.8783 -38.413676,-30.19978 z"
       style="fill:#ffaaaa;stroke:#000000;stroke-width:2;stroke-linecap:butt;stroke-linejoin:miter;stroke-opacity:1;display:inline" />
    <path
       sodipodi:nodetypes="cc"
       inkscape:connector-curvature="0"
       id="path12398"
       d="m 59.048785,80.179818 c 1.417633,4.012238 2.003906,11.219622 2.296615,17.106687"
       style="fill:none;stroke:#000000;stroke-width:2;stroke-linecap:butt;stroke-linejoin:miter;stroke-opacity:1;display:inline" />
    <path
       style="fill:#000000;stroke:#000000;stroke-width:2;stroke-linecap:butt;stroke-linejoin:miter;stroke-opacity:1;display:inline"
       d="m 74.605948,117.1763 c 4.13178,-1.30548 15.659086,20.01314 9.335863,22.33367 -5.297344,1.94405 -12.819407,-21.23301 -9.335863,-22.33367 z"
       id="path12406"
       inkscape:connector-curvature="0"
       sodipodi:nodetypes="sss" />
    <path
       style="fill:#000000;stroke:#000000;stroke-width:2;stroke-linecap:butt;stroke-linejoin:miter;stroke-opacity:1;display:inline"
       d="m 60.155268,116.06543 c 3.115028,0.84125 0.925298,20.48897 -2.584975,19.81037 -4.982498,-0.96322 -0.346986,-20.60219 2.584975,-19.81037 z"
       id="path12408"
       inkscape:connector-curvature="0"
       sodipodi:nodetypes="sss" />
    <path
       style="fill:none;stroke:#000000;stroke-width:2;stroke-linecap:butt;stroke-linejoin:miter;stroke-opacity:1;display:inline"
       d="m 15.01516,180.97011 c -0.943508,8.03947 6.300667,27.52392 11.75541,30.67751"
       id="path12410"
       inkscape:connector-curvature="0"
       sodipodi:nodetypes="cc" />
  </g>
  <g
     style="display:inline"
     inkscape:label="豚: 共通"
     id="g12416"
     inkscape:groupmode="layer"
     sodipodi:insensitive="true">
    <path
       inkscape:connector-curvature="0"
       id="path12520-2"
       d="m 231.1087,193.05286 c -3.05905,17.13705 -19.82263,37.23191 -25.7852,37.20099 -5.37187,-0.028 -7.78674,-4.55287 -13.39282,-4.58576 -3.97742,-0.0233 -5.18131,4.04401 -11.7335,4.97178 -6.26014,0.88651 -25.08404,-21.66727 -30.62642,-35.20055"
       style="fill:#ffd5d5;stroke:none;display:inline"
       sodipodi:nodetypes="csssc" />
    <path
       inkscape:connector-curvature="0"
       id="path12506"
       d="m 160.56942,264.80622 c -22.88207,12.20791 -14.95178,26.69537 16.51846,27.61483 7.79573,0.22777 20.42983,-0.0813 27.4109,-0.19224 25.30794,-0.40203 32.71024,-15.86107 12.01056,-26.13283"
       style="fill:#ffd5d5;stroke:#000000;stroke-width:2;stroke-linecap:butt;stroke-linejoin:miter;stroke-opacity:1;display:inline"
       sodipodi:nodetypes="cssc" />
    <path
       inkscape:connector-curvature="0"
       id="path12518"
       d="m 205.19277,229.99768 c -5.36896,-0.17912 -7.78674,-4.55287 -13.39281,-4.58576 -3.97742,-0.0233 -5.1725,3.92359 -11.66722,5.19275 -4.53655,0.88651 -13.74822,-9.77904 -15.3427,-12.00434 7.80501,-8.91951 49.41704,-8.56557 53.68097,0.2471 -3.41259,5.40522 -9.70216,11.26956 -13.27824,11.15025 z"
       style="fill:#ffaaaa;stroke:none;display:inline"
       sodipodi:nodetypes="sssccs" />
    <path
       inkscape:connector-curvature="0"
       id="path12520"
       d="m 231.02663,193.0106 c -3.05905,17.13705 -19.82263,37.23191 -25.7852,37.20099 -5.37187,-0.028 -7.78674,-4.55287 -13.39282,-4.58576 -3.97742,-0.0233 -5.18131,4.04401 -11.7335,4.97178 -6.26014,0.88651 -25.08404,-21.66727 -30.62642,-35.20055"
       style="fill:none;stroke:#000000;stroke-width:2;stroke-linecap:butt;stroke-linejoin:miter;stroke-opacity:1;display:inline"
       sodipodi:nodetypes="csssc" />
    <path
       style="fill:none;stroke:#000000;stroke-width:2;stroke-linecap:butt;stroke-linejoin:miter;stroke-opacity:1;display:inline"
       d="m 164.80912,218.72013 c 3.68033,-8.0299 50.09459,-9.43171 53.57795,0.14061"
       id="path12552"
       inkscape:connector-curvature="0"
       sodipodi:nodetypes="cc" />
    <path
       style="fill:#000000;stroke:none"
       d="m 159.01324,110.303 c 25.30067,-5.01263 54.17272,-7.61714 81.31728,2.12132 -26.55617,-5.65342 -53.82434,-4.8988 -81.31728,-2.12132 z"
       id="path13235"
       inkscape:connector-curvature="0"
       sodipodi:nodetypes="ccc" />
    <path
       style="fill:#000000;stroke:none"
       d="m 159.80613,161.60808 c 31.23585,-5.60946 56.64672,-3.6399 81.31728,-0.70711 -26.66293,-1.53562 -53.71225,-1.52569 -81.31728,0.70711 z"
       id="path13237"
       inkscape:connector-curvature="0"
       sodipodi:nodetypes="ccc" />
    <path
       style="fill:#000000;stroke:none;display:inline"
       d="m 156.07969,56.367353 c 22.02547,-6.76988 63.44253,-5.79943 86.84062,0.50001 -28.94687,-3.350538 -57.89375,-3.747476 -86.84062,-0.50001 z"
       id="path13239"
       inkscape:connector-curvature="0"
       sodipodi:nodetypes="ccc" />
    <text
       xml:space="preserve"
       style="font-size:40px;font-style:normal;font-weight:normal;line-height:125%;letter-spacing:0px;word-spacing:0px;fill:#000000;fill-opacity:1;stroke:none;font-family:Sans"
       x="58.689861"
       y="49.885212"
       id="text13259"
       sodipodi:linespacing="125%"><tspan
         sodipodi:role="line"
         id="tspan13261"
         x="58.689861"
         y="49.885212">?</tspan></text>
    <text
       xml:space="preserve"
       style="font-size:40px;font-style:normal;font-weight:normal;line-height:125%;letter-spacing:0px;word-spacing:0px;fill:#000000;fill-opacity:1;stroke:none;display:inline;font-family:Sans"
       x="295.30246"
       y="43.975193"
       id="text13259-5"
       sodipodi:linespacing="125%"><tspan
         sodipodi:role="line"
         id="tspan13261-0"
         x="295.30246"
         y="43.975193">?</tspan></text>
    <text
       xml:space="preserve"
       style="font-size:40px;font-style:normal;font-weight:normal;line-height:125%;letter-spacing:0px;word-spacing:0px;fill:#000000;fill-opacity:1;stroke:none;display:inline;font-family:Sans"
       x="109.48414"
       y="46.424942"
       id="text13259-5-9"
       sodipodi:linespacing="125%"><tspan
         sodipodi:role="line"
         id="tspan13261-0-4"
         x="109.48414"
         y="46.424942">?</tspan></text>
    <text
       xml:space="preserve"
       style="font-size:40px;font-style:normal;font-weight:normal;line-height:125%;letter-spacing:0px;word-spacing:0px;fill:#000000;fill-opacity:1;stroke:none;display:inline;font-family:Sans"
       x="250.63341"
       y="51.717834"
       id="text13259-5-7"
       sodipodi:linespacing="125%"><tspan
         sodipodi:role="line"
         id="tspan13261-0-8"
         x="250.63341"
         y="51.717834">?</tspan></text>
  </g>
  <g
     inkscape:groupmode="layer"
     id="layer7"
     inkscape:label="枠面"
     style="display:inline"
     sodipodi:insensitive="true">
    <path
       style="fill:#ffffff;stroke:none;display:inline"
       d="m 0,0 0,320 370,0 0,-320 -10,10 0,300 -350,0 0,-300 350,0 10,-10 z"
       id="path21072"
       inkscape:connector-curvature="0"
       sodipodi:nodetypes="ccccccccccc" />
  </g>
</svg>
