<?xml version="1.0" encoding="UTF-8" standalone="no"?>
<!-- Created with Inkscape (http://www.inkscape.org/) -->

<svg
   xmlns:dc="http://purl.org/dc/elements/1.1/"
   xmlns:cc="http://creativecommons.org/ns#"
   xmlns:rdf="http://www.w3.org/1999/02/22-rdf-syntax-ns#"
   xmlns:svg="http://www.w3.org/2000/svg"
   xmlns="http://www.w3.org/2000/svg"
   xmlns:xlink="http://www.w3.org/1999/xlink"
   xmlns:sodipodi="http://sodipodi.sourceforge.net/DTD/sodipodi-0.dtd"
   xmlns:inkscape="http://www.inkscape.org/namespaces/inkscape"
   width="370"
   height="320"
   id="svg2"
   version="1.1"
   inkscape:version="0.48.4 r9939"
   sodipodi:docname="[02.通勤]05.疲弊.svg"
   inkscape:export-filename="C:\Users\執安\Desktop\資料\臨時\TAKEDA\[02.通勤]05.疲弊.png"
   inkscape:export-xdpi="90"
   inkscape:export-ydpi="90"
   enable-background="new">
  <defs
     id="defs4">
    <inkscape:perspective
       sodipodi:type="inkscape:persp3d"
       inkscape:vp_x="363.49708 : 943.81603 : 1"
       inkscape:vp_y="0 : 1000 : 0"
       inkscape:vp_z="744.09448 : 526.18109 : 1"
       inkscape:persp3d-origin="372.04724 : 350.78739 : 1"
       id="perspective5056" />
    <inkscape:perspective
       id="perspective5056-8"
       inkscape:persp3d-origin="372.04724 : 350.78739 : 1"
       inkscape:vp_z="744.09448 : 526.18109 : 1"
       inkscape:vp_y="0 : 1000 : 0"
       inkscape:vp_x="363.49708 : 943.81603 : 1"
       sodipodi:type="inkscape:persp3d" />
    <linearGradient
       id="linearGradient12499-5-3"
       inkscape:collect="always">
      <stop
         id="stop12501-0-8"
         offset="0"
         style="stop-color:#ffd5d5;stop-opacity:1;" />
      <stop
         id="stop12503-9-9"
         offset="1"
         style="stop-color:#ffd5d5;stop-opacity:0;" />
    </linearGradient>
    <linearGradient
       id="linearGradient12499-5"
       inkscape:collect="always">
      <stop
         id="stop12501-0"
         offset="0"
         style="stop-color:#ffd5d5;stop-opacity:1;" />
      <stop
         id="stop12503-9"
         offset="1"
         style="stop-color:#ffd5d5;stop-opacity:0;" />
    </linearGradient>
    <linearGradient
       id="linearGradient12499-8"
       inkscape:collect="always">
      <stop
         id="stop12501-6"
         offset="0"
         style="stop-color:#ffd5d5;stop-opacity:1;" />
      <stop
         id="stop12503-0"
         offset="1"
         style="stop-color:#ffd5d5;stop-opacity:0;" />
    </linearGradient>
    <linearGradient
       gradientTransform="translate(0,-7)"
       gradientUnits="userSpaceOnUse"
       y2="78.526123"
       x2="178.78178"
       y1="135.02612"
       x1="175.8602"
       id="linearGradient12505-2"
       xlink:href="#linearGradient12499-8"
       inkscape:collect="always" />
    <linearGradient
       id="linearGradient12499-9"
       inkscape:collect="always">
      <stop
         id="stop12501-8"
         offset="0"
         style="stop-color:#ffd5d5;stop-opacity:1;" />
      <stop
         id="stop12503-6"
         offset="1"
         style="stop-color:#ffd5d5;stop-opacity:0;" />
    </linearGradient>
    <linearGradient
       gradientTransform="translate(0,-7)"
       gradientUnits="userSpaceOnUse"
       y2="78.526123"
       x2="178.78178"
       y1="135.02612"
       x1="175.8602"
       id="linearGradient12505-1"
       xlink:href="#linearGradient12499-9"
       inkscape:collect="always" />
    <inkscape:perspective
       id="perspective5056-5"
       inkscape:persp3d-origin="372.04724 : 350.78739 : 1"
       inkscape:vp_z="744.09448 : 526.18109 : 1"
       inkscape:vp_y="0 : 1000 : 0"
       inkscape:vp_x="363.49708 : 943.81603 : 1"
       sodipodi:type="inkscape:persp3d" />
    <linearGradient
       id="linearGradient12499"
       inkscape:collect="always">
      <stop
         id="stop12501"
         offset="0"
         style="stop-color:#ffd5d5;stop-opacity:1;" />
      <stop
         id="stop12503"
         offset="1"
         style="stop-color:#ffd5d5;stop-opacity:0;" />
    </linearGradient>
    <linearGradient
       inkscape:collect="always"
       xlink:href="#linearGradient12499"
       id="linearGradient4842"
       gradientUnits="userSpaceOnUse"
       gradientTransform="matrix(0.98323667,-0.18233388,0.18233388,0.98323667,74.736688,42.602255)"
       x1="175.8602"
       y1="135.02612"
       x2="180.12286"
       y2="104.20104" />
    <linearGradient
       inkscape:collect="always"
       xlink:href="#linearGradient12499-5"
       id="linearGradient4848"
       gradientUnits="userSpaceOnUse"
       gradientTransform="matrix(0.99586062,-0.09089341,0.09089341,0.99586062,90.234074,51.049697)"
       x1="184.3886"
       y1="140.77484"
       x2="178.00351"
       y2="106.50191" />
    <linearGradient
       inkscape:collect="always"
       xlink:href="#linearGradient12499-5-3"
       id="linearGradient4854"
       gradientUnits="userSpaceOnUse"
       gradientTransform="matrix(0.99850313,0.05469451,-0.05469451,0.99850313,114.06992,56.176849)"
       x1="186.74098"
       y1="139.74136"
       x2="168.63582"
       y2="87.2258" />
    <inkscape:perspective
       sodipodi:type="inkscape:persp3d"
       inkscape:vp_x="363.49708 : 943.81603 : 1"
       inkscape:vp_y="0 : 1000 : 0"
       inkscape:vp_z="744.09448 : 526.18109 : 1"
       inkscape:persp3d-origin="372.04724 : 350.78739 : 1"
       id="perspective5056-4" />
    <inkscape:perspective
       sodipodi:type="inkscape:persp3d"
       inkscape:vp_x="363.49708 : 943.81603 : 1"
       inkscape:vp_y="0 : 1000 : 0"
       inkscape:vp_z="744.09448 : 526.18109 : 1"
       inkscape:persp3d-origin="372.04724 : 350.78739 : 1"
       id="perspective5056-8-7" />
    <inkscape:perspective
       id="perspective5056-85"
       inkscape:persp3d-origin="372.04724 : 350.78739 : 1"
       inkscape:vp_z="744.09448 : 526.18109 : 1"
       inkscape:vp_y="0 : 1000 : 0"
       inkscape:vp_x="363.49708 : 943.81603 : 1"
       sodipodi:type="inkscape:persp3d" />
    <inkscape:perspective
       id="perspective5056-40"
       inkscape:persp3d-origin="372.04724 : 350.78739 : 1"
       inkscape:vp_z="744.09448 : 526.18109 : 1"
       inkscape:vp_y="0 : 1000 : 0"
       inkscape:vp_x="363.49708 : 943.81603 : 1"
       sodipodi:type="inkscape:persp3d" />
  </defs>
  <sodipodi:namedview
     id="base"
     pagecolor="#ffffff"
     bordercolor="#666666"
     borderopacity="1.0"
     inkscape:pageopacity="0.0"
     inkscape:pageshadow="2"
     inkscape:zoom="0.99516733"
     inkscape:cx="237.90634"
     inkscape:cy="124.89472"
     inkscape:document-units="px"
     inkscape:current-layer="layer11"
     showgrid="false"
     inkscape:window-width="1160"
     inkscape:window-height="694"
     inkscape:window-x="-3"
     inkscape:window-y="-2"
     inkscape:window-maximized="0"
     showguides="true"
     inkscape:guide-bbox="true"
     inkscape:snap-grids="false"
     inkscape:snap-to-guides="false"
     showborder="true"
     inkscape:showpageshadow="false"
     fit-margin-top="0"
     fit-margin-left="0"
     fit-margin-right="0"
     fit-margin-bottom="0"
     inkscape:snap-page="false" />
  <metadata
     id="metadata7">
    <rdf:RDF>
      <cc:Work
         rdf:about="">
        <dc:format>image/svg+xml</dc:format>
        <dc:type
           rdf:resource="http://purl.org/dc/dcmitype/StillImage" />
        <dc:title></dc:title>
      </cc:Work>
    </rdf:RDF>
  </metadata>
  <g
     inkscape:groupmode="layer"
     id="layer2"
     inkscape:label="補助線"
     style="display:none"
     sodipodi:insensitive="true">
    <path
       style="fill:none;stroke:#0000ff;stroke-width:1px;stroke-linecap:butt;stroke-linejoin:miter;stroke-opacity:1"
       d="M 10,310 360,10"
       id="path3025"
       inkscape:connector-curvature="0"
       sodipodi:nodetypes="cc" />
    <path
       style="fill:none;stroke:#0000ff;stroke-width:1px;stroke-linecap:butt;stroke-linejoin:miter;stroke-opacity:1"
       d="M 10,10 360,310"
       id="path3027"
       inkscape:connector-curvature="0"
       sodipodi:nodetypes="cc" />
    <path
       style="fill:none;stroke:#ff0000;stroke-width:1px;stroke-linecap:butt;stroke-linejoin:miter;stroke-opacity:1;display:inline"
       d="m 10,0 0,320"
       id="path3006"
       inkscape:connector-curvature="0"
       sodipodi:nodetypes="cc" />
    <path
       style="fill:none;stroke:#ff0000;stroke-width:1px;stroke-linecap:butt;stroke-linejoin:miter;stroke-opacity:1;display:inline"
       d="m 360,0 0,320"
       id="path3010"
       inkscape:connector-curvature="0"
       sodipodi:nodetypes="cc" />
    <path
       style="fill:none;stroke:#ff0000;stroke-width:1px;stroke-linecap:butt;stroke-linejoin:miter;stroke-opacity:1;display:inline"
       d="M 0,9.9999681 370,10"
       id="path3016"
       inkscape:connector-curvature="0" />
    <path
       transform="translate(84.715796,27.711696)"
       style="fill:none;stroke:#ff0000;stroke-width:1px;stroke-linecap:butt;stroke-linejoin:miter;stroke-opacity:1;display:inline"
       d="m -84.715796,282.2883 369.999996,0"
       id="path3018"
       inkscape:connector-curvature="0"
       sodipodi:nodetypes="cc" />
  </g>
  <g
     inkscape:groupmode="layer"
     id="layer3"
     inkscape:label="鞄"
     sodipodi:insensitive="true"
     style="display:inline">
    <path
       sodipodi:nodetypes="cssscscsscc"
       inkscape:connector-curvature="0"
       id="path5897-2"
       d="m 330.90654,300.02765 c -19.69022,-0.63324 -73.5834,-5.18355 -84.88198,-6.0803 -6.09888,-0.48407 -7.18769,-4.15628 -8.87152,-6.83897 -2.83592,-4.51817 -26.47414,-49.1439 -27.94081,-53.42445 -3.93763,-11.49198 8.49198,-17.9254 19.70506,-17.2712 0,0 87.01203,7.28262 89.99194,8.67793 7.49053,3.50737 14.80257,16.48461 15.76197,25.93641 7.02988,9.39831 14.50375,18.33605 23.76138,27.55643 2.74355,2.73251 -0.33146,10.22364 -2.88585,11.9435 -2.92982,1.97262 -5.6568,3.56783 -13.00108,4.73379 -2.29051,2.89447 -6.41193,4.79109 -11.63911,4.76686 z"
       style="fill:#502d16;stroke:none;display:inline" />
    <path
       sodipodi:nodetypes="cssssccsc"
       inkscape:connector-curvature="0"
       id="path5895"
       d="m 306.11996,226.30435 c 1.81276,0.0701 4.65171,0.056 6.51742,0.0238 2.84365,-0.0492 5.30321,0.72072 7.00325,3.24455 11.69668,17.36469 22.45552,32.6917 38.72042,48.89116 2.74355,2.73251 -0.33146,10.22364 -2.88585,11.9435 -2.92981,1.97262 -7.25595,3.79584 -12.91379,4.91067 m -43.61654,-61.193 c -4.88868,-3.24565 -71.85181,-7.59129 -76.54932,-7.90034 -3.317,-0.21823 -9.04113,0.58738 -10.68996,2.13658"
       style="fill:none;stroke:#000000;stroke-width:2;stroke-linecap:butt;stroke-linejoin:miter;stroke-opacity:1;display:inline" />
    <path
       sodipodi:nodetypes="ccssssssssc"
       inkscape:connector-curvature="0"
       id="path5897"
       d="m 320.40122,225.79533 c -2.48978,-3.19743 -91.55546,-9.50224 -91.55546,-9.50224 -11.21308,-0.6542 -23.64269,5.77922 -19.70506,17.2712 1.46668,4.28055 25.1049,48.90628 27.94081,53.42445 1.68384,2.68269 2.77264,6.3549 8.87153,6.83897 11.29857,0.89675 65.19175,5.44706 84.88197,6.0803 8.99899,0.28942 16.17342,-6.19788 10.80992,-11.16612 -6.71998,-6.22474 -29.16057,-36.7044 -37.28607,-50.89229 -1.42696,-2.49161 -2.89106,-4.51779 -2.08967,-6.96357 1.38031,-4.21281 5.48392,-7.11971 16.14497,-5.69699 7.56023,1.00892 15.22611,16.26659 16.03394,25.5118"
       style="fill:none;stroke:#000000;stroke-width:2;stroke-linecap:butt;stroke-linejoin:miter;stroke-opacity:1;display:inline" />
    <path
       sodipodi:nodetypes="cc"
       inkscape:connector-curvature="0"
       id="path5901"
       d="m 317.31271,232.6744 c -0.36468,3.62653 -5.82021,6.89573 -10.78444,8.84327"
       style="fill:none;stroke:#000000;stroke-width:2;stroke-linecap:butt;stroke-linejoin:miter;stroke-opacity:1;display:inline" />
    <path
       sodipodi:nodetypes="cssssc"
       inkscape:connector-curvature="0"
       id="path4188"
       d="m 302.57985,230.34113 9.55596,0.17283 c 2.69454,0.0487 5.12227,1.01762 6.78686,3.73154 13.10939,21.37333 21.96161,30.66846 35.13068,45.28965 1.61621,1.79444 0.22024,5.52291 -0.71322,6.82822 -1.56678,2.19089 -6.40526,5.03188 -10.23805,7.38873"
       style="fill:none;stroke:#000000;stroke-width:2;stroke-linecap:butt;stroke-linejoin:miter;stroke-opacity:1;display:inline" />
  </g>
  <g
     inkscape:groupmode="layer"
     id="layer11"
     inkscape:label="豚"
     style="display:inline"
     sodipodi:insensitive="true">
    <path
       style="fill:#ffd5d5;stroke:#000000;stroke-width:2;stroke-linecap:butt;stroke-linejoin:miter;stroke-opacity:1;display:inline"
       d="M 271.45421,107.27613 C 279.17134,80.101752 262.75082,49.070376 223.25783,37.107555 L 67.66394,146.78197 35.219245,265.12175 l 192.391475,22.90684 41.06598,-17.79474 12.14102,-79.8762 -6.83732,-32.36226 z"
       id="path5872"
       inkscape:connector-curvature="0"
       sodipodi:nodetypes="ccccccccc" />
    <g
       id="layer2-8"
       inkscape:label="枠"
       style="display:none"
       transform="translate(0.76132635,-5.6516797)">
      <path
         style="fill:none;stroke:#0000ff;stroke-width:1px;stroke-linecap:butt;stroke-linejoin:miter;stroke-opacity:1"
         d="M 10.003906,310 359.99609,10.003906"
         id="path3025-8"
         inkscape:connector-curvature="0" />
      <path
         style="fill:none;stroke:#0000ff;stroke-width:1px;stroke-linecap:butt;stroke-linejoin:miter;stroke-opacity:1"
         d="M 10.003906,10 359.99609,310.00391"
         id="path3027-2"
         inkscape:connector-curvature="0" />
      <path
         style="fill:none;stroke:#ff0000;stroke-width:1px;stroke-linecap:butt;stroke-linejoin:miter;stroke-opacity:1;display:inline"
         d="M 9.9974312,-0.00137819 10,320"
         id="path3006-4"
         inkscape:connector-curvature="0" />
      <path
         style="fill:none;stroke:#ff0000;stroke-width:1px;stroke-linecap:butt;stroke-linejoin:miter;stroke-opacity:1;display:inline"
         d="M 360.00391,0.00390625 359.99609,319.99609"
         id="path3010-5"
         inkscape:connector-curvature="0" />
      <path
         style="fill:none;stroke:#ff0000;stroke-width:1px;stroke-linecap:butt;stroke-linejoin:miter;stroke-opacity:1;display:inline"
         d="M 0,9.9999681 370,10"
         id="path3016-5"
         inkscape:connector-curvature="0" />
      <path
         transform="translate(84.715796,27.711696)"
         style="fill:none;stroke:#ff0000;stroke-width:1px;stroke-linecap:butt;stroke-linejoin:miter;stroke-opacity:1;display:inline"
         d="m -84.714876,282.29077 370.002826,-0.003"
         id="path3018-1"
         inkscape:connector-curvature="0"
         sodipodi:nodetypes="cc" />
    </g>
    <g
       transform="translate(85.477122,22.060016)"
       id="g3744"
       inkscape:label="豚: 胴 コピー"
       style="display:none">
      <g
         transform="matrix(0.72731119,0,0,0.68895226,-807.61104,-370.87793)"
         id="g3746"
         style="stroke:#ff6600;stroke-width:1.41268492;display:inline">
        <path
           style="fill:none;stroke:#ff6600;stroke-width:1.41268492;stroke-linecap:butt;stroke-linejoin:miter;stroke-opacity:1;display:inline"
           d="m 1077.6444,850.16168 c 4.2384,-10.46466 60.4664,-9.42012 64.5191,1.76495"
           id="path3748"
           inkscape:connector-curvature="0"
           sodipodi:nodetypes="cc" />
        <path
           style="fill:none;stroke:#ff6600;stroke-width:1.41268492;stroke-linecap:butt;stroke-linejoin:miter;stroke-opacity:1;display:inline"
           d="m 1049.2089,901.73769 c -9.8656,22.59109 -6.2846,43.63571 17.6496,44.12396 21.3976,0.4365 81.0233,0.1591 92.3662,0.1961 13.422,0.0438 14.5007,-12.76948 -6.4715,-23.72888"
           id="path3750"
           inkscape:connector-curvature="0"
           sodipodi:nodetypes="cssc" />
        <path
           style="fill:none;stroke:#ff6600;stroke-width:1.41268492;stroke-linecap:butt;stroke-linejoin:miter;stroke-opacity:1;display:inline"
           d="m 1258.1604,926.74126 c 2.4514,4.21629 3.584,7.97447 12.6489,7.74621 7.147,-0.17997 77.7858,0.4255 93.4755,-0.26171 8.5669,-0.37523 44.0679,-16.64244 -24.6421,-52.88315"
           id="path3752"
           inkscape:connector-curvature="0"
           sodipodi:nodetypes="cssc" />
        <path
           style="fill:none;stroke:#ff6600;stroke-width:1.41268492;stroke-linecap:butt;stroke-linejoin:miter;stroke-opacity:1;display:inline"
           d="m 1325.4041,573.50743 c -42.1119,-65.79555 -161.5913,-82.03131 -222.4449,-5.53838"
           id="path3754"
           inkscape:connector-curvature="0"
           sodipodi:nodetypes="cc" />
        <path
           style="fill:none;stroke:#ff6600;stroke-width:1.41268492;stroke-linecap:butt;stroke-linejoin:miter;stroke-opacity:1;display:inline"
           d="m 1363.9761,666.69249 c 4.646,-14.44237 11.2154,-51.42431 -4.7137,-82.13696 -9.2215,-17.77969 -26.4933,-29.62222 -52.7944,-33.1201"
           id="path3756"
           inkscape:connector-curvature="0"
           sodipodi:nodetypes="csc" />
        <path
           style="fill:none;stroke:#ff6600;stroke-width:1.41268492;stroke-linecap:butt;stroke-linejoin:miter;stroke-opacity:1;display:inline"
           d="m 1119.981,565.61601 c -17.6889,-0.40263 -53.9968,11.00998 -59.7753,47.55054 -5.6966,36.02343 8.3354,90.18139 28.2884,94.57173 23.8194,5.2411 58.0986,-43.12846 85.697,-66.00608"
           id="path3758"
           inkscape:connector-curvature="0"
           sodipodi:nodetypes="cssc" />
        <path
           style="fill:none;stroke:#ff6600;stroke-width:1.41268492;stroke-linecap:butt;stroke-linejoin:miter;stroke-opacity:1;display:inline"
           d="m 1059.6511,626.42834 c -8.3394,17.43808 -10.4357,29.32206 -13.776,45.33186 -17.8885,21.75753 -81.90932,171.32744 17.104,239.54304"
           id="path3760"
           inkscape:connector-curvature="0"
           sodipodi:nodetypes="ccc" />
        <path
           style="fill:none;stroke:#ff6600;stroke-width:1.41268492;stroke-linecap:butt;stroke-linejoin:miter;stroke-opacity:1;display:inline"
           d="m 1063.4723,810.87957 c 8.9474,36.8792 24.4242,59.55204 30.7072,59.10054 7.2053,-0.51778 7.0936,-3.98373 13.1734,-4.29871 7.1181,-0.36877 9.6363,3.96592 12.9873,5.90937 8.4977,4.92838 32.4227,-31.43234 44.6036,-64.03924"
           id="path3762"
           inkscape:connector-curvature="0"
           sodipodi:nodetypes="csssc" />
        <path
           style="fill:none;stroke:#ff6600;stroke-width:1.41268492;stroke-linecap:butt;stroke-linejoin:miter;stroke-opacity:1;display:inline"
           d="m 1247.1305,656.70837 c 9.0944,7.92805 19.251,16.11357 27.7792,28.13074"
           id="path3764"
           inkscape:connector-curvature="0"
           sodipodi:nodetypes="cc" />
        <path
           style="fill:none;stroke:#ff6600;stroke-width:1.41268492;stroke-linecap:butt;stroke-linejoin:miter;stroke-opacity:1;display:inline"
           d="m 1328.1128,650.0523 c -4.4038,9.5983 -7.9341,20.11874 -10.5388,31.61635"
           id="path3766"
           inkscape:connector-curvature="0"
           sodipodi:nodetypes="cc" />
        <path
           style="fill:none;stroke:#ff6600;stroke-width:1.41268492;stroke-linecap:butt;stroke-linejoin:miter;stroke-opacity:1;display:inline"
           d="m 1305.3596,689.38304 c -23.038,0.0439 -43.9139,11.27876 -71.1302,40.14059 -21.5647,22.86851 -9.1268,44.65379 10.851,44.0863 19.8573,-0.56406 56.2579,-11.61475 77.2083,-9.84968 15.5515,1.3102 21.536,-17.41951 20.2901,-27.07691 -2.0918,-16.2149 -11.6096,-47.3491 -37.2192,-47.3003 z"
           id="path3768"
           inkscape:connector-curvature="0"
           sodipodi:nodetypes="ssssss" />
        <path
           style="fill:none;stroke:#ff6600;stroke-width:1.41268492;stroke-linecap:butt;stroke-linejoin:miter;stroke-opacity:1;display:inline"
           d="m 1351.9947,637.40147 c 14.3573,34.01469 28.7872,87.34551 -3.1262,123.47667"
           id="path3770"
           inkscape:connector-curvature="0"
           sodipodi:nodetypes="cc" />
        <path
           style="fill:none;stroke:#ff6600;stroke-width:1.41268492;stroke-linecap:butt;stroke-linejoin:miter;stroke-opacity:1;display:inline"
           d="m 1360.8049,736.67644 c 17.3034,35.99674 10.8331,79.21298 -2.7119,87.14517"
           id="path3772"
           inkscape:connector-curvature="0"
           sodipodi:nodetypes="cc" />
        <path
           style="fill:none;stroke:#ff6600;stroke-width:1.41268492;stroke-linecap:butt;stroke-linejoin:miter;stroke-opacity:1;display:inline"
           d="m 1346.9717,774.85371 c 21.1198,63.70888 10.0581,91.62238 -21.0776,121.47337"
           id="path3774"
           inkscape:connector-curvature="0"
           sodipodi:nodetypes="cc" />
        <path
           style="fill:none;stroke:#ff6600;stroke-width:1.41268492;stroke-linecap:butt;stroke-linejoin:miter;stroke-opacity:1;display:inline"
           d="m 1312.0273,908.52988 c -44.2587,28.66016 -98.9004,17.30718 -149.7617,20.5229"
           id="path3776"
           inkscape:connector-curvature="0"
           sodipodi:nodetypes="cc" />
        <path
           style="fill:none;stroke:#ff6600;stroke-width:1.41268492;stroke-linecap:butt;stroke-linejoin:miter;stroke-opacity:1;display:inline"
           d="m 1400.115,828.56515 c 6.7199,1.05747 10.8908,1.45428 13.3212,1.25343 23.1824,26.90074 50.0838,47.43161 69.4304,67.3405 8.1787,8.41646 2.6551,17.64163 -1.6641,22.74159 -6.5728,7.76101 -18.1131,7.38004 -26.3469,-2.49603 -21.3104,-25.56077 -35.3719,-50.04853 -54.0806,-73.7715 -1.614,-2.04655 -5.202,-5.58574 -4.6664,-8.88587 0.9225,-5.68439 5.5867,-9.60672 19.4974,-7.68702 9.8647,1.36134 22.3405,18.32936 25.2203,30.80406 m -43.0035,-17.98133 c -6.897,-4.37941 -29.7615,-6.21266 -39.7913,-7.44423"
           id="path3778"
           inkscape:connector-curvature="0"
           sodipodi:nodetypes="ccssssssccc" />
        <path
           style="fill:none;stroke:#ff6600;stroke-width:1.41268492;stroke-linecap:butt;stroke-linejoin:miter;stroke-opacity:1;display:inline"
           d="m 1418.2669,827.87832 c -3.8212,-4.31434 -54.1004,-11.14681 -54.1004,-11.14681"
           id="path3780"
           inkscape:connector-curvature="0"
           sodipodi:nodetypes="cc" />
        <path
           style="fill:none;stroke:#ff6600;stroke-width:1.41268492;stroke-linecap:butt;stroke-linejoin:miter;stroke-opacity:1;display:inline"
           d="m 1379.42,925.4474 c 14.6606,0.39221 48.0566,1.44256 76.9587,2.55978 7.1216,0.27529 14.6953,0.18413 22.2527,-5.58296"
           id="path3782"
           inkscape:connector-curvature="0"
           sodipodi:nodetypes="csc" />
        <path
           style="fill:none;stroke:#ff6600;stroke-width:1.41268492;stroke-linecap:butt;stroke-linejoin:miter;stroke-opacity:1;display:inline"
           d="m 1413.4362,829.88501 c 0.2585,4.89332 -6.22,11.60562 -12.1759,14.23347"
           id="path3784"
           inkscape:connector-curvature="0"
           sodipodi:nodetypes="cc" />
      </g>
      <path
         sodipodi:nodetypes="sss"
         inkscape:connector-curvature="0"
         id="path3786"
         d="m 116.5243,147.48113 c 7.87455,-0.93808 18.33694,-26.16254 14.55609,-25.24531 -6.1502,1.49204 -19.07843,25.78407 -14.55609,25.24531 z"
         style="fill:none;stroke:#ff6600;stroke-width:1;stroke-linecap:butt;stroke-linejoin:miter;stroke-opacity:1;display:inline" />
      <path
         sodipodi:nodetypes="sss"
         inkscape:connector-curvature="0"
         id="path3788"
         d="m 150.47942,122.93873 c -3.98962,1.99226 -7.41743,22.61733 -3.08862,21.83095 4.37774,-0.79527 6.09038,-23.32982 3.08862,-21.83095 z"
         style="fill:none;stroke:#ff6600;stroke-width:1;stroke-linecap:butt;stroke-linejoin:miter;stroke-opacity:1;display:inline" />
    </g>
    <path
       sodipodi:nodetypes="cssscc"
       inkscape:connector-curvature="0"
       id="path5864-1"
       d="m 115.39607,237.78738 c 4.11821,4.70017 10.32435,10.69127 14.97663,10.81137 5.25089,0.13556 5.80686,-4.85449 10.09658,-5.94936 3.48491,-0.88948 6.24323,1.28966 8.50861,1.81365 4.1785,0.96652 10.12165,-8.14674 13.64065,-15.72441 -2.97697,-13.50597 -47.77431,-4.12747 -47.22247,9.04875 z"
       style="fill:#ffaaaa;stroke:none;display:inline" />
    <path
       sodipodi:nodetypes="cc"
       inkscape:connector-curvature="0"
       id="path5864"
       d="m 115.40346,238.00249 c -1.4421,-11.80096 43.32082,-23.05499 47.34031,-9.01608"
       style="fill:none;stroke:#000000;stroke-width:2;stroke-linecap:butt;stroke-linejoin:miter;stroke-opacity:1;display:inline" />
    <path
       style="fill:#ffd5d5;stroke:#000000;stroke-width:2;stroke-linecap:butt;stroke-linejoin:miter;stroke-opacity:1;display:inline"
       d="m 202.00421,288.04915 c 14.13854,7.22644 47.99795,10.32695 63.29205,8.64517 20.31166,-2.23353 34.53561,-18.90976 6.46471,-40.47743"
       id="path5868"
       inkscape:connector-curvature="0" />
    <path
       sodipodi:nodetypes="csssc"
       inkscape:connector-curvature="0"
       id="path5879"
       d="m 97.347122,198.56709 c 6.590828,26.03196 21.192708,49.2523 33.080338,49.93433 5.24402,0.30086 5.80686,-4.85449 10.09659,-5.94936 3.4849,-0.88948 5.79813,1.19222 8.5086,1.81365 6.8734,1.5759 19.34173,-21.69723 24.39428,-46.26302"
       style="fill:none;stroke:#000000;stroke-width:2;stroke-linecap:butt;stroke-linejoin:miter;stroke-opacity:1;display:inline" />
    <path
       sodipodi:nodetypes="cc"
       inkscape:connector-curvature="0"
       id="path5881"
       d="m 215.166,94.349455 4.99463,15.860035"
       style="fill:none;stroke:#000000;stroke-width:2;stroke-linecap:butt;stroke-linejoin:miter;stroke-opacity:1;display:inline" />
    <path
       sodipodi:nodetypes="cc"
       inkscape:connector-curvature="0"
       id="path5883"
       d="m 242.70486,88.473774 1.80431,15.637436"
       style="fill:none;stroke:#000000;stroke-width:2;stroke-linecap:butt;stroke-linejoin:miter;stroke-opacity:1;display:inline" />
    <path
       sodipodi:nodetypes="ssssss"
       inkscape:connector-curvature="0"
       id="path5885"
       d="m 240.80692,111.31973 c -14.78043,3.04283 -26.29037,15.0927 -34.97575,28.79153 -13.18808,20.8006 -6.31512,34.35556 9.29891,29.85353 13.85341,-3.99441 25.35006,-7.27181 34.9015,-8.3136 13.59768,-1.48314 16.57578,-10.58914 15.14012,-25.04728 -1.30535,-13.14568 -11.60949,-27.91011 -24.36478,-25.28418 z"
       style="fill:#ffaaaa;stroke:#000000;stroke-width:2;stroke-linecap:butt;stroke-linejoin:miter;stroke-opacity:1;display:inline" />
    <path
       style="fill:#ffd5d5;stroke:#000000;stroke-width:2;stroke-linecap:butt;stroke-linejoin:miter;stroke-opacity:1;display:inline"
       d="m 267.07125,141.95014 c 27.34971,22.3018 24.26033,59.54078 13.42919,78.71777"
       id="path5889"
       inkscape:connector-curvature="0"
       sodipodi:nodetypes="cc" />
    <path
       style="fill:#ffd5d5;stroke:#000000;stroke-width:2;stroke-linecap:butt;stroke-linejoin:miter;stroke-opacity:1;display:inline"
       d="m 265.14963,97.164614 c 20.11893,26.869146 16.07775,53.851986 2.60929,72.579686"
       id="path5887"
       inkscape:connector-curvature="0"
       sodipodi:nodetypes="cc" />
    <path
       style="fill:#ffd5d5;stroke:#000000;stroke-width:2;stroke-linecap:butt;stroke-linejoin:miter;stroke-opacity:1;display:inline"
       d="m 274.99818,187.00228 c 10.38986,40.41281 5.85086,60.51651 -7.43508,74.21886"
       id="path5891"
       inkscape:connector-curvature="0"
       sodipodi:nodetypes="cc" />
    <path
       style="fill:#ffd5d5;stroke:#000000;stroke-width:2;stroke-linecap:butt;stroke-linejoin:miter;stroke-opacity:1;display:inline"
       d="m 220.11085,284.76135 c -45.29301,9.6041 -73.66602,4.02973 -121.72358,1.90481 -25.362501,7.87004 -64.218066,12.34518 -75.883569,1.1111 -11.87815,-11.43886 2.223846,-33.09871 15.17978,-39.39732"
       id="path8782"
       inkscape:connector-curvature="0"
       sodipodi:nodetypes="ccsc" />
    <path
       style="fill:#ffd5d5;stroke:#000000;stroke-width:2;stroke-linecap:butt;stroke-linejoin:miter;stroke-opacity:1;display:inline"
       d="M 41.180615,258.37949 C 28.8426,238.80359 37.195001,175.46354 74.015037,138.36095"
       id="path8780"
       inkscape:connector-curvature="0"
       sodipodi:nodetypes="cc" />
    <path
       style="fill:#ffd5d5;stroke:#000000;stroke-width:2;stroke-linecap:butt;stroke-linejoin:miter;stroke-opacity:1;display:inline"
       d="M 65.874717,157.979 C 52.45465,133.58711 77.205809,91.42211 94.839332,67.119023 129.19126,19.774083 205.8226,7.0538342 248.11507,58.034826"
       id="path5893"
       inkscape:connector-curvature="0"
       sodipodi:nodetypes="csc" />
    <path
       sodipodi:nodetypes="sss"
       inkscape:connector-curvature="0"
       id="path5903"
       d="m 221.70406,157.44162 c 3.9066,5.26704 15.2092,-27.02237 11.91015,-28.42901 -4.37342,-1.86473 -18.20582,19.94088 -11.91015,28.42901 z"
       style="fill:#000000;stroke:#000000;stroke-width:2;stroke-linecap:butt;stroke-linejoin:miter;stroke-opacity:1;display:inline" />
    <path
       sodipodi:nodetypes="sss"
       inkscape:connector-curvature="0"
       id="path5905"
       d="m 247.52995,125.90808 c -3.97635,1.04287 -1.5391,29.32265 1.33311,26.45916 7.85748,-7.83363 2.08204,-27.35486 -1.33311,-26.45916 z"
       style="fill:#000000;stroke:#000000;stroke-width:2;stroke-linecap:butt;stroke-linejoin:miter;stroke-opacity:1;display:inline" />
    <path
       sodipodi:nodetypes="csc"
       inkscape:connector-curvature="0"
       id="path5874"
       d="M 120.60985,48.025715 C 60.2344,69.206775 73.558519,134.64658 98.785841,146.7814 c 14.700869,7.07139 35.754289,-27.78207 54.257949,-42.31167"
       style="fill:#ffd5d5;stroke:#000000;stroke-width:2;stroke-linecap:butt;stroke-linejoin:miter;stroke-opacity:1;display:inline" />
    <path
       style="fill:none;stroke:#000000;stroke-width:2;stroke-linecap:butt;stroke-linejoin:miter;stroke-opacity:1"
       d="M 198.2908,108.35273 256.02175,92.395935"
       id="path5138"
       inkscape:connector-curvature="0"
       sodipodi:nodetypes="cc" />
    <path
       style="fill:none;stroke:#000000;stroke-width:2;stroke-linecap:butt;stroke-linejoin:miter;stroke-opacity:1"
       d="m 31.827705,179.39045 c -9.634088,15.12728 -16.467788,44.62491 -6.176597,66.18104"
       id="path5140"
       inkscape:connector-curvature="0"
       sodipodi:nodetypes="cc" />
  </g>
  <g
     inkscape:groupmode="layer"
     id="layer7"
     inkscape:label="枠面"
     style="display:inline"
     sodipodi:insensitive="true">
    <path
       style="fill:#ffffff;stroke:none;display:inline"
       d="m 0,0 0,320 370,0 0,-320 -10,10 0,300 -350,0 0,-300 350,0 10,-10 z"
       id="path21072"
       inkscape:connector-curvature="0"
       sodipodi:nodetypes="ccccccccccc" />
  </g>
</svg>
