<?xml version="1.0" encoding="UTF-8" standalone="no"?>
<!-- Created with Inkscape (http://www.inkscape.org/) -->

<svg
   xmlns:dc="http://purl.org/dc/elements/1.1/"
   xmlns:cc="http://creativecommons.org/ns#"
   xmlns:rdf="http://www.w3.org/1999/02/22-rdf-syntax-ns#"
   xmlns:svg="http://www.w3.org/2000/svg"
   xmlns="http://www.w3.org/2000/svg"
   xmlns:xlink="http://www.w3.org/1999/xlink"
   xmlns:sodipodi="http://sodipodi.sourceforge.net/DTD/sodipodi-0.dtd"
   xmlns:inkscape="http://www.inkscape.org/namespaces/inkscape"
   width="370"
   height="320"
   id="svg2"
   version="1.1"
   inkscape:version="0.48.4 r9939"
   sodipodi:docname="[02.通勤]04.健忘.svg"
   inkscape:export-filename="C:\Users\執安\Desktop\資料\臨時\TAKEDA\[02.通勤]04.健忘.png"
   inkscape:export-xdpi="90"
   inkscape:export-ydpi="90"
   enable-background="new">
  <defs
     id="defs4">
    <inkscape:perspective
       sodipodi:type="inkscape:persp3d"
       inkscape:vp_x="363.49708 : 943.81603 : 1"
       inkscape:vp_y="0 : 1000 : 0"
       inkscape:vp_z="744.09448 : 526.18109 : 1"
       inkscape:persp3d-origin="372.04724 : 350.78739 : 1"
       id="perspective5056" />
    <inkscape:perspective
       id="perspective5056-8"
       inkscape:persp3d-origin="372.04724 : 350.78739 : 1"
       inkscape:vp_z="744.09448 : 526.18109 : 1"
       inkscape:vp_y="0 : 1000 : 0"
       inkscape:vp_x="363.49708 : 943.81603 : 1"
       sodipodi:type="inkscape:persp3d" />
    <linearGradient
       id="linearGradient12499-5-3"
       inkscape:collect="always">
      <stop
         id="stop12501-0-8"
         offset="0"
         style="stop-color:#ffd5d5;stop-opacity:1;" />
      <stop
         id="stop12503-9-9"
         offset="1"
         style="stop-color:#ffd5d5;stop-opacity:0;" />
    </linearGradient>
    <linearGradient
       id="linearGradient12499-5"
       inkscape:collect="always">
      <stop
         id="stop12501-0"
         offset="0"
         style="stop-color:#ffd5d5;stop-opacity:1;" />
      <stop
         id="stop12503-9"
         offset="1"
         style="stop-color:#ffd5d5;stop-opacity:0;" />
    </linearGradient>
    <linearGradient
       id="linearGradient12499-8"
       inkscape:collect="always">
      <stop
         id="stop12501-6"
         offset="0"
         style="stop-color:#ffd5d5;stop-opacity:1;" />
      <stop
         id="stop12503-0"
         offset="1"
         style="stop-color:#ffd5d5;stop-opacity:0;" />
    </linearGradient>
    <linearGradient
       gradientTransform="translate(0,-7)"
       gradientUnits="userSpaceOnUse"
       y2="78.526123"
       x2="178.78178"
       y1="135.02612"
       x1="175.8602"
       id="linearGradient12505-2"
       xlink:href="#linearGradient12499-8"
       inkscape:collect="always" />
    <linearGradient
       id="linearGradient12499-9"
       inkscape:collect="always">
      <stop
         id="stop12501-8"
         offset="0"
         style="stop-color:#ffd5d5;stop-opacity:1;" />
      <stop
         id="stop12503-6"
         offset="1"
         style="stop-color:#ffd5d5;stop-opacity:0;" />
    </linearGradient>
    <linearGradient
       gradientTransform="translate(0,-7)"
       gradientUnits="userSpaceOnUse"
       y2="78.526123"
       x2="178.78178"
       y1="135.02612"
       x1="175.8602"
       id="linearGradient12505-1"
       xlink:href="#linearGradient12499-9"
       inkscape:collect="always" />
    <inkscape:perspective
       id="perspective5056-5"
       inkscape:persp3d-origin="372.04724 : 350.78739 : 1"
       inkscape:vp_z="744.09448 : 526.18109 : 1"
       inkscape:vp_y="0 : 1000 : 0"
       inkscape:vp_x="363.49708 : 943.81603 : 1"
       sodipodi:type="inkscape:persp3d" />
    <linearGradient
       id="linearGradient12499"
       inkscape:collect="always">
      <stop
         id="stop12501"
         offset="0"
         style="stop-color:#ffd5d5;stop-opacity:1;" />
      <stop
         id="stop12503"
         offset="1"
         style="stop-color:#ffd5d5;stop-opacity:0;" />
    </linearGradient>
    <linearGradient
       inkscape:collect="always"
       xlink:href="#linearGradient12499"
       id="linearGradient4842"
       gradientUnits="userSpaceOnUse"
       gradientTransform="matrix(0.98323667,-0.18233388,0.18233388,0.98323667,74.736688,42.602255)"
       x1="175.8602"
       y1="135.02612"
       x2="180.12286"
       y2="104.20104" />
    <linearGradient
       inkscape:collect="always"
       xlink:href="#linearGradient12499-5"
       id="linearGradient4848"
       gradientUnits="userSpaceOnUse"
       gradientTransform="matrix(0.99586062,-0.09089341,0.09089341,0.99586062,90.234074,51.049697)"
       x1="184.3886"
       y1="140.77484"
       x2="178.00351"
       y2="106.50191" />
    <linearGradient
       inkscape:collect="always"
       xlink:href="#linearGradient12499-5-3"
       id="linearGradient4854"
       gradientUnits="userSpaceOnUse"
       gradientTransform="matrix(0.99850313,0.05469451,-0.05469451,0.99850313,114.06992,56.176849)"
       x1="186.74098"
       y1="139.74136"
       x2="168.63582"
       y2="87.2258" />
    <inkscape:perspective
       sodipodi:type="inkscape:persp3d"
       inkscape:vp_x="363.49708 : 943.81603 : 1"
       inkscape:vp_y="0 : 1000 : 0"
       inkscape:vp_z="744.09448 : 526.18109 : 1"
       inkscape:persp3d-origin="372.04724 : 350.78739 : 1"
       id="perspective5056-4" />
    <inkscape:perspective
       sodipodi:type="inkscape:persp3d"
       inkscape:vp_x="363.49708 : 943.81603 : 1"
       inkscape:vp_y="0 : 1000 : 0"
       inkscape:vp_z="744.09448 : 526.18109 : 1"
       inkscape:persp3d-origin="372.04724 : 350.78739 : 1"
       id="perspective5056-8-7" />
    <inkscape:perspective
       id="perspective5056-85"
       inkscape:persp3d-origin="372.04724 : 350.78739 : 1"
       inkscape:vp_z="744.09448 : 526.18109 : 1"
       inkscape:vp_y="0 : 1000 : 0"
       inkscape:vp_x="363.49708 : 943.81603 : 1"
       sodipodi:type="inkscape:persp3d" />
    <inkscape:perspective
       id="perspective5056-53"
       inkscape:persp3d-origin="372.04724 : 350.78739 : 1"
       inkscape:vp_z="744.09448 : 526.18109 : 1"
       inkscape:vp_y="0 : 1000 : 0"
       inkscape:vp_x="363.49708 : 943.81603 : 1"
       sodipodi:type="inkscape:persp3d" />
    <filter
       inkscape:collect="always"
       id="filter4364"
       x="-0.1106422"
       width="1.2212844"
       y="-0.13108695"
       height="1.2621739">
      <feGaussianBlur
         inkscape:collect="always"
         stdDeviation="14.212846"
         id="feGaussianBlur4366" />
    </filter>
    <filter
       inkscape:collect="always"
       id="filter4419">
      <feGaussianBlur
         inkscape:collect="always"
         stdDeviation="2.397092"
         id="feGaussianBlur4421" />
    </filter>
  </defs>
  <sodipodi:namedview
     id="base"
     pagecolor="#ffffff"
     bordercolor="#666666"
     borderopacity="1.0"
     inkscape:pageopacity="0.0"
     inkscape:pageshadow="2"
     inkscape:zoom="0.5"
     inkscape:cx="58.681274"
     inkscape:cy="65.027129"
     inkscape:document-units="px"
     inkscape:current-layer="layer25"
     showgrid="false"
     inkscape:window-width="1101"
     inkscape:window-height="692"
     inkscape:window-x="-3"
     inkscape:window-y="0"
     inkscape:window-maximized="0"
     showguides="true"
     inkscape:guide-bbox="true"
     inkscape:snap-grids="false"
     inkscape:snap-to-guides="false"
     showborder="true"
     inkscape:showpageshadow="false"
     fit-margin-top="0"
     fit-margin-left="0"
     fit-margin-right="0"
     fit-margin-bottom="0"
     inkscape:snap-page="false" />
  <metadata
     id="metadata7">
    <rdf:RDF>
      <cc:Work
         rdf:about="">
        <dc:format>image/svg+xml</dc:format>
        <dc:type
           rdf:resource="http://purl.org/dc/dcmitype/StillImage" />
        <dc:title></dc:title>
      </cc:Work>
    </rdf:RDF>
  </metadata>
  <g
     inkscape:groupmode="layer"
     id="layer2"
     inkscape:label="補助線"
     style="display:none"
     sodipodi:insensitive="true">
    <path
       style="fill:none;stroke:#0000ff;stroke-width:1px;stroke-linecap:butt;stroke-linejoin:miter;stroke-opacity:1"
       d="M 10,310 360,10"
       id="path3025"
       inkscape:connector-curvature="0"
       sodipodi:nodetypes="cc" />
    <path
       style="fill:none;stroke:#0000ff;stroke-width:1px;stroke-linecap:butt;stroke-linejoin:miter;stroke-opacity:1"
       d="M 10,10 360,310"
       id="path3027"
       inkscape:connector-curvature="0"
       sodipodi:nodetypes="cc" />
    <path
       style="fill:none;stroke:#ff0000;stroke-width:1px;stroke-linecap:butt;stroke-linejoin:miter;stroke-opacity:1;display:inline"
       d="m 10,0 0,320"
       id="path3006"
       inkscape:connector-curvature="0"
       sodipodi:nodetypes="cc" />
    <path
       style="fill:none;stroke:#ff0000;stroke-width:1px;stroke-linecap:butt;stroke-linejoin:miter;stroke-opacity:1;display:inline"
       d="m 360,0 0,320"
       id="path3010"
       inkscape:connector-curvature="0"
       sodipodi:nodetypes="cc" />
    <path
       style="fill:none;stroke:#ff0000;stroke-width:1px;stroke-linecap:butt;stroke-linejoin:miter;stroke-opacity:1;display:inline"
       d="M 0,9.9999681 370,10"
       id="path3016"
       inkscape:connector-curvature="0" />
    <path
       transform="translate(84.715796,27.711696)"
       style="fill:none;stroke:#ff0000;stroke-width:1px;stroke-linecap:butt;stroke-linejoin:miter;stroke-opacity:1;display:inline"
       d="m -84.715796,282.2883 369.999996,0"
       id="path3018"
       inkscape:connector-curvature="0"
       sodipodi:nodetypes="cc" />
  </g>
  <g
     inkscape:groupmode="layer"
     id="layer25"
     inkscape:label="闇"
     style="display:inline"
     sodipodi:insensitive="true">
    <rect
       style="fill:#162d50;fill-opacity:1;stroke:none;filter:url(#filter4364)"
       id="rect3571"
       width="301.75354"
       height="251.48857"
       x="34.829311"
       y="37.398727"
       transform="matrix(0.91672475,0,0,0.91672475,12.48483,10.860789)" />
  </g>
  <g
     inkscape:groupmode="layer"
     id="layer24"
     inkscape:label="電柱"
     style="display:inline"
     sodipodi:insensitive="true">
    <path
       style="fill:#000000;stroke:none"
       d="m 295,251.75 74,-10.5 0,16.5 -21.25,6.64645 z"
       id="path3329"
       inkscape:connector-curvature="0"
       sodipodi:nodetypes="ccccc" />
    <path
       sodipodi:nodetypes="cssc"
       inkscape:connector-curvature="0"
       id="rect4917-4"
       d="m 347.78661,16.065652 0,246.475058 c 0,7.05463 -52.61293,5.49766 -52.61293,0 l 0,-246.475058"
       style="fill:#808080;stroke:none" />
    <path
       sodipodi:nodetypes="cssccc"
       inkscape:connector-curvature="0"
       id="rect4920-2"
       d="m 347.81506,146.68409 -7.63526,0 c -4.10489,0 -7.40956,-3.30467 -7.40956,-7.40956 l 0,-123.211875 14.57643,-0.121809 z"
       style="fill:#fefefe;fill-opacity:1;stroke:none" />
    <path
       style="fill:#008000;fill-opacity:1;stroke:none"
       d="m 347.75971,120.50085 0.0976,23.48719 -7.38482,0 c -2.82011,0 -5.09045,-2.27033 -5.09045,-5.09044 l 0,-18.39675 z"
       id="rect15509"
       inkscape:connector-curvature="0"
       sodipodi:nodetypes="ccsscc" />
    <path
       sodipodi:nodetypes="cssc"
       inkscape:connector-curvature="0"
       id="rect4920"
       d="m 347.74303,146.83443 -7.65076,0 c -4.11324,0 -7.42462,-3.31138 -7.42462,-7.42462 l 0,-123.352808"
       style="fill:none;stroke:#000000;stroke-width:2;stroke-miterlimit:4;stroke-dashoffset:0" />
    <path
       sodipodi:nodetypes="cscc"
       inkscape:connector-curvature="0"
       id="rect4917-5"
       d="m 347.86957,15.948017 0,246.600063 c 0,1.44064 -4.99194,3.16262 -8.63961,3.62928 l 0,-250.229343"
       style="opacity:0.3;fill:#000000;stroke:none;display:inline" />
    <path
       sodipodi:nodetypes="cssc"
       inkscape:connector-curvature="0"
       id="rect4917"
       d="m 347.8718,15.95009 0,246.60006 c 0,6.47878 -52.63961,5.92457 -52.63961,0 l 0,-246.60006"
       style="fill:none;stroke:#000000;stroke-width:2" />
  </g>
  <g
     inkscape:groupmode="layer"
     id="layer1"
     inkscape:label="光"
     style="display:inline"
     sodipodi:insensitive="true">
    <path
       style="opacity:0.75;fill:#ffff80;fill-opacity:1;stroke:none;display:inline;filter:url(#filter4419)"
       d="m 323.8549,7.4588041 -8,257.3868759 -202.03152,0 L 275.8549,7.4588041 z"
       id="rect4368"
       inkscape:connector-curvature="0"
       sodipodi:nodetypes="ccccc" />
  </g>
  <g
     inkscape:groupmode="layer"
     id="layer11"
     inkscape:label="豚"
     style="display:inline"
     sodipodi:insensitive="true">
    <path
       style="fill:#000000;stroke:none"
       d="m 95.5,285.5 c 32.31672,11.4662 91.15834,24.84349 106.67157,21.14645 18.03001,-4.29683 38.35207,-19.95957 42.10051,-25 L 155.5,266.5 z"
       id="path3550"
       inkscape:connector-curvature="0"
       sodipodi:nodetypes="csccc" />
    <path
       sodipodi:type="arc"
       style="fill:#000000;fill-opacity:1;stroke:none"
       id="path3530"
       sodipodi:cx="255"
       sodipodi:cy="278.5"
       sodipodi:rx="85"
       sodipodi:ry="14.5"
       d="m 340,278.5 a 85,14.5 0 1 1 -170,0 85,14.5 0 1 1 170,0 z"
       transform="translate(-6,-6)" />
    <path
       style="fill:#de8787;stroke:#000000;stroke-width:2;stroke-linecap:butt;stroke-linejoin:miter;stroke-opacity:1;display:inline"
       d="m 216.90073,119.80621 c -17.45797,0.47581 -33.33082,19.89142 -27.91122,33.30899 l -1.97957,28.11663 -6.31268,40.77555 18.47565,50.03388 48.51191,0.65189 56.38814,-3.88292 15.89652,-32.21168 -6.30282,-33.81633 -16.43249,-33.31716 -29.36343,-37.82875 -25.36218,-14.06812 z"
       id="path4490"
       inkscape:connector-curvature="0"
       sodipodi:nodetypes="ccccccccccccc" />
    <path
       style="fill:#e9afaf;stroke:none;display:inline"
       d="m 302.07731,174.02345 c -0.1458,-10.0178 -6.1189,-21.40944 -20.81908,-39.14984 -20.45341,-24.68349 -54.26996,-25.47522 -73.1952,-10.04837 17.04301,-9.71013 48.18626,-2.68476 56.37461,21.5949 13.70519,2.97055 23.67836,21.75191 23.72139,41.46755 20.17375,9.73973 28.07759,33.84782 28.63758,52.18174 l 4.95006,-2.46505 c 3.83723,-6.30184 1.96131,-20.35066 -2.19209,-26.17043 1.33983,-14.1462 -9.45343,-31.52144 -17.47727,-37.4105 z"
       id="path3152-2"
       inkscape:connector-curvature="0"
       sodipodi:nodetypes="csccccccc" />
    <path
       sodipodi:nodetypes="cc"
       inkscape:connector-curvature="0"
       id="path4506"
       d="m 302.07923,174.02198 c 10.71556,7.11914 19.36583,28.42341 17.47691,37.41296"
       style="fill:#e9afaf;stroke:#000000;stroke-width:2;stroke-linecap:butt;stroke-linejoin:miter;stroke-opacity:1;display:inline" />
    <g
       id="layer2-7"
       inkscape:label="枠"
       style="display:none"
       transform="translate(9.167647,2.8344324)">
      <path
         style="fill:none;stroke:#0000ff;stroke-width:1px;stroke-linecap:butt;stroke-linejoin:miter;stroke-opacity:1"
         d="M 10.003906,310 359.99609,10.003906"
         id="path3025-4"
         inkscape:connector-curvature="0" />
      <path
         style="fill:none;stroke:#0000ff;stroke-width:1px;stroke-linecap:butt;stroke-linejoin:miter;stroke-opacity:1"
         d="M 10.003906,10 359.99609,310.00391"
         id="path3027-3"
         inkscape:connector-curvature="0" />
      <path
         style="fill:none;stroke:#ff0000;stroke-width:1px;stroke-linecap:butt;stroke-linejoin:miter;stroke-opacity:1;display:inline"
         d="M 9.9974312,-0.00137819 10,320"
         id="path3006-8"
         inkscape:connector-curvature="0" />
      <path
         style="fill:none;stroke:#ff0000;stroke-width:1px;stroke-linecap:butt;stroke-linejoin:miter;stroke-opacity:1;display:inline"
         d="M 360.00391,0.00390625 359.99609,319.99609"
         id="path3010-0"
         inkscape:connector-curvature="0" />
      <path
         style="fill:none;stroke:#ff0000;stroke-width:1px;stroke-linecap:butt;stroke-linejoin:miter;stroke-opacity:1;display:inline"
         d="M 0,9.9999681 370,10"
         id="path3016-8"
         inkscape:connector-curvature="0" />
      <path
         transform="translate(84.715796,27.711696)"
         style="fill:none;stroke:#ff0000;stroke-width:1px;stroke-linecap:butt;stroke-linejoin:miter;stroke-opacity:1;display:inline"
         d="m -84.714876,282.29077 370.002826,-0.003"
         id="path3018-8"
         inkscape:connector-curvature="0"
         sodipodi:nodetypes="cc" />
    </g>
    <path
       style="fill:none;stroke:#000000;stroke-width:2;stroke-linecap:butt;stroke-linejoin:miter;stroke-opacity:1;display:inline"
       d="m 301.57409,189.93604 c 10.39368,5.82441 26.10846,25.75123 20.17229,47.6681"
       id="path3492"
       inkscape:connector-curvature="0" />
    <path
       style="fill:#de8787;stroke:#000000;stroke-width:2;stroke-linecap:butt;stroke-linejoin:miter;stroke-opacity:1;display:inline"
       d="m 313.43301,265.73746 c -19.51674,11.61481 -63.75777,10.70901 -79.72706,5.79974"
       id="path4508"
       inkscape:connector-curvature="0"
       sodipodi:nodetypes="cc" />
    <path
       style="fill:none;stroke:#000000;stroke-width:2;stroke-linecap:butt;stroke-linejoin:miter;stroke-opacity:1;display:inline"
       d="m 145.10108,231.82582 c -0.50249,-29.41242 10.22439,-54.30251 23.08024,-71.24946"
       id="path4532"
       inkscape:connector-curvature="0"
       sodipodi:nodetypes="cc" />
    <path
       style="fill:none;stroke:#000000;stroke-width:2;stroke-linecap:butt;stroke-linejoin:miter;stroke-opacity:1;display:inline"
       d="m 155.84571,234.05207 c -0.72203,-23.57075 6.0334,-43.66794 15.66329,-56.75943"
       id="path4534"
       inkscape:connector-curvature="0"
       sodipodi:nodetypes="cc" />
    <text
       xml:space="preserve"
       style="font-size:19.97010994px;font-style:normal;font-weight:normal;line-height:125%;letter-spacing:0px;word-spacing:0px;fill:#000000;fill-opacity:1;stroke:none;display:inline;font-family:Sans"
       x="230.89493"
       y="112.17563"
       id="text4536"
       sodipodi:linespacing="125%"><tspan
         sodipodi:role="line"
         id="tspan4538"
         x="230.89493"
         y="112.17563"
         style="font-size:23.96413231px;font-style:normal;font-variant:normal;font-weight:normal;font-stretch:normal;fill:#000000;stroke:none;font-family:Resagnicto;-inkscape-font-specification:Resagnicto">???</tspan></text>
    <path
       sodipodi:nodetypes="csssc"
       inkscape:connector-curvature="0"
       id="path4496"
       d="m 180.42973,215.26621 c -11.3818,44.72174 21.35015,63.9446 32.94573,65.52957 17.49623,2.39152 29.13902,-1.56874 33.56714,-11.37489 6.90984,-15.30197 -9.53638,-35.35636 -24.73242,-35.38039 -20.54328,-0.0325 -27.42461,25.31459 -18.73653,36.23936"
       style="fill:#de8787;stroke:#000000;stroke-width:2;stroke-linecap:butt;stroke-linejoin:miter;stroke-opacity:1;display:inline" />
    <path
       style="fill:none;stroke:#000000;stroke-width:2;stroke-linecap:butt;stroke-linejoin:miter;stroke-opacity:1;display:inline"
       d="m 301.70752,179.36784 c 1.96581,-11.03776 -3.34422,-23.85145 -20.44958,-44.49446 -23.25303,-28.06211 -63.7778,-25.24433 -80.05709,-2.82168"
       id="path3152"
       inkscape:connector-curvature="0"
       sodipodi:nodetypes="csc" />
    <path
       sodipodi:nodetypes="csc"
       inkscape:connector-curvature="0"
       id="path4492-1"
       d="m 262.98848,123.01482 c 33.99412,6.47762 34.63908,42.47869 19.41186,51.26 -4.72014,2.72204 -18.37034,-20.5958 -24.80625,-27.32663"
       style="fill:#de8787;stroke:none;display:inline" />
    <path
       sodipodi:nodetypes="csc"
       inkscape:connector-curvature="0"
       id="path4492-2"
       d="m 262.98802,123.01749 c 29.75148,8.59894 31.10355,32.57919 20.82608,39.59274 -4.50068,3.07134 -15.60442,-17.47817 -24.5152,-25.97676"
       style="fill:#e9afaf;stroke:none;display:inline" />
    <path
       sodipodi:nodetypes="csc"
       inkscape:connector-curvature="0"
       id="path4492"
       d="m 262.98685,123.01676 c 33.99412,6.47762 34.63908,42.47869 19.41186,51.26 -4.72014,2.72204 -18.37034,-20.5958 -24.80625,-27.32663"
       style="fill:none;stroke:#000000;stroke-width:2;stroke-linecap:butt;stroke-linejoin:miter;stroke-opacity:1;display:inline" />
    <path
       sodipodi:nodetypes="cc"
       inkscape:connector-curvature="0"
       id="path4486"
       d="m 227.03436,147.38668 -7.25779,6.46352"
       style="fill:none;stroke:#000000;stroke-width:2;stroke-linecap:butt;stroke-linejoin:miter;stroke-opacity:1;display:inline" />
    <path
       sodipodi:nodetypes="cc"
       inkscape:connector-curvature="0"
       id="path4488"
       d="m 203.5062,142.36471 0.44108,8.10251"
       style="fill:none;stroke:#000000;stroke-width:2;stroke-linecap:butt;stroke-linejoin:miter;stroke-opacity:1;display:inline" />
    <path
       style="fill:#de8787;stroke:none;display:inline"
       d="m 185.61482,178.97433 c -19.20123,22.7767 -23.80824,54.36151 -15.47014,68.90523 2.63787,4.6011 5.34038,0.27849 6.54709,-1.04831 4.37659,0.20991 3.79479,2.66922 5.76188,4.38241 7.77314,6.76983 17.49716,-17.67682 19.16458,-20.84907"
       id="path3169-0"
       inkscape:connector-curvature="0"
       sodipodi:nodetypes="cscsc" />
    <path
       style="fill:#d35f5f;stroke:none;display:inline"
       d="m 193.51867,245.39217 c 4.5391,-5.7298 -25.31859,-24.30584 -26.81225,-9.60441 l 9.98346,11.04268 c 4.37659,0.20991 3.59353,2.93234 5.76188,4.38241 4.12644,2.75952 7.59934,-0.94414 11.06691,-5.82068 z"
       id="path3169-8"
       inkscape:connector-curvature="0"
       sodipodi:nodetypes="cccsc" />
    <path
       style="fill:#ff8080;stroke:none;display:inline"
       d="m 181.26745,242.86232 c 4.55764,-2.14303 7.07203,11.64483 1.18544,8.34848 -1.96765,-1.71218 -1.38585,-4.17149 -5.76244,-4.3814 1.17335,-1.12389 3.03141,-3.24033 4.577,-3.96708 z"
       id="path3169-1"
       inkscape:connector-curvature="0"
       sodipodi:nodetypes="sccs" />
    <path
       style="fill:none;stroke:#000000;stroke-width:2;stroke-linecap:butt;stroke-linejoin:miter;stroke-opacity:1;display:inline"
       d="m 176.68984,246.83087 c 4.37659,0.20991 3.79479,2.66922 5.76188,4.38241 7.77314,6.76983 18.87216,-20.67682 19.16458,-20.84907"
       id="path4500"
       inkscape:connector-curvature="0"
       sodipodi:nodetypes="csc" />
    <path
       style="fill:#de8787;stroke:#000000;stroke-width:2;stroke-linecap:butt;stroke-linejoin:miter;stroke-opacity:1;display:inline"
       d="m 191.86082,147.68128 c -11.29217,13.95998 -9.49128,31.71057 -0.81028,45.13899"
       id="path4480"
       inkscape:connector-curvature="0"
       sodipodi:nodetypes="cc" />
    <path
       sodipodi:nodetypes="ssssss"
       inkscape:connector-curvature="0"
       id="path4482"
       d="m 206.4272,155.17284 c 8.45613,1.58308 18.51827,11.83169 22.73754,19.51454 5.00975,9.12223 2.46447,15.39822 -3.43113,14.20101 -10.36169,-2.10411 -19.51029,-4.45743 -26.63752,-4.67817 -6.21846,-0.19259 -7.45889,-8.74229 -6.84165,-13.86427 1.08397,-8.995 5.64637,-16.76933 14.17276,-15.17311 z"
       style="fill:#d35f5f;stroke:#000000;stroke-width:2;stroke-linecap:butt;stroke-linejoin:miter;stroke-opacity:1;display:inline" />
    <path
       sodipodi:nodetypes="sss"
       inkscape:connector-curvature="0"
       id="path4502"
       d="m 218.63123,180.66037 c -1.01388,2.33475 -9.90876,-16.43574 -7.8744,-16.96746 2.67627,-0.69946 10.18096,11.65595 7.8744,16.96746 z"
       style="fill:#000000;stroke:#000000;stroke-width:2;stroke-linecap:butt;stroke-linejoin:miter;stroke-opacity:1;display:inline" />
    <path
       sodipodi:nodetypes="sss"
       inkscape:connector-curvature="0"
       id="path4504"
       d="m 202.38269,162.73919 c 1.74071,-0.90462 1.91379,17.69498 -0.16876,15.45859 -3.6852,-3.95742 -1.55282,-14.56392 0.16876,-15.45859 z"
       style="fill:#000000;stroke:#000000;stroke-width:2;stroke-linecap:butt;stroke-linejoin:miter;stroke-opacity:1;display:inline" />
    <path
       style="fill:none;stroke:#000000;stroke-width:2;stroke-linecap:butt;stroke-linejoin:miter;stroke-opacity:1;display:inline"
       d="m 182.45284,251.21125 c 5.88603,3.29737 3.11699,-10.79539 -1.186,-8.34746 l -1.87296,1.1119"
       id="path3316"
       inkscape:connector-curvature="0"
       sodipodi:nodetypes="ccc" />
    <path
       style="fill:none;stroke:#000000;stroke-width:2;stroke-linecap:butt;stroke-linejoin:miter;stroke-opacity:1;display:inline"
       d="m 166.70638,235.78819 c 1.49366,-14.70143 31.35135,3.87461 26.81225,9.60441"
       id="path3169"
       inkscape:connector-curvature="0" />
    <path
       style="fill:#502d16;stroke:#000000;stroke-width:2;stroke-linecap:butt;stroke-linejoin:miter;stroke-opacity:1;display:inline"
       d="m 192.23508,259.19136 c 1.59705,-5.74189 1.62451,-10.12444 -1.07583,-11.97401 -4.01858,-2.75249 -16.37402,-4.09414 -22.76574,-4.13909 -5.2186,-0.0367 -9.3112,6.35571 -10.03483,9.84642 l 4.42792,0.99816 c -0.037,-1.75196 2.49966,-6.8501 5.52297,-7.14689 3.66018,-0.35931 16.39125,1.4037 19.19544,3.34987 1.63882,1.13738 0.25835,7.22324 -0.53348,8.57182 z"
       id="path3275"
       inkscape:connector-curvature="0"
       sodipodi:nodetypes="cssccsscc" />
    <path
       style="fill:#502d16;stroke:none;display:inline"
       d="m 105.52282,259.64496 c -3.841,-3.03158 24.51984,-0.052 36.22386,-10.4191 1.21005,-1.07182 19.27707,3.47855 38.15418,6.24311 21.4943,3.14794 42.94219,4.99672 44.9714,6.48784 3.13703,2.30515 1.36112,16.76521 -3.70986,23.88855 -8.03418,11.28585 -17.04827,19.45018 -20.80488,19.89122 -7.37846,0.94389 -105.353353,-19.16701 -108.317513,-21.78365 -1.129303,-0.88668 1.084006,-1.97145 3.552844,-3.28745 -0.967391,-1.8888 -0.923892,-9.999 -0.328102,-11.68198 -0.48739,-0.20123 -1.692012,-0.59979 -1.795672,-1.63294 -0.42206,-3.97004 9.503643,-3.83031 15.320743,-6.13497 -1.26376,-0.52188 -2.33478,-1.11457 -3.267,-1.57063 z"
       id="path3263"
       inkscape:connector-curvature="0"
       sodipodi:nodetypes="cssssccccccc" />
    <path
       style="fill:none;stroke:#000000;stroke-width:2;stroke-linecap:butt;stroke-linejoin:miter;stroke-opacity:1;display:inline"
       d="m 198.58813,301.64905 c -1.57658,-4.61754 -1.76739,-12.57198 0.0556,-14.37149 m 26.45148,-24.77909 c -1.91504,-1.34644 -7.26075,18.87548 -15.01752,17.5534 -31.58916,-5.38413 -97.04624,-14.23073 -104.65956,-20.23969 -3.84099,-3.03158 24.51984,-0.052 36.22386,-10.4191 1.21005,-1.07182 19.27707,3.47855 38.15418,6.24311 21.4943,3.14794 42.94219,4.99672 44.9714,6.48784 3.13703,2.30515 1.36112,16.76521 -3.70986,23.88855 -8.03418,11.28585 -17.05932,19.26235 -20.81593,19.70339 -7.37846,0.94389 -105.187616,-19.11176 -108.15178,-21.7284 -1.306075,-1.24024 1.503849,-1.90516 3.817262,-3.24238 m 113.533628,-0.77527 c -1.62955,1.51008 -7.83848,6.70926 -10.24023,7.2968 -4.60483,1.12648 -105.371423,-15.37638 -105.836272,-19.74894 -0.422058,-3.97004 9.503642,-3.83031 15.320742,-6.13497"
       id="path3265"
       inkscape:connector-curvature="0"
       sodipodi:nodetypes="cccssssssccccssc" />
    <path
       style="fill:none;stroke:#000000;stroke-width:2;stroke-linecap:butt;stroke-linejoin:miter;stroke-opacity:1;display:inline"
       d="m 222.08907,266.66654 c 0.004,4.15057 0.73103,4.76424 1.1947,5.36979 0.59894,9.60356 -17.65646,29.24706 -24.36612,30.0481 -6.32167,0.75472 -100.855895,-18.19887 -102.125003,-19.75 -2.249772,-2.74972 -1.830622,-11.65541 -1.234835,-13.33839"
       id="path3267"
       inkscape:connector-curvature="0"
       sodipodi:nodetypes="cccsc" />
    <path
       style="fill:#a05a2c;stroke:#000000;stroke-width:2;stroke-linecap:butt;stroke-linejoin:miter;stroke-opacity:1;display:inline"
       d="m 119.47631,268.22084 6.4283,1.36244 c 5.01311,-1.36431 8.36455,-3.06095 12.3085,-4.63909 l -6.34251,-1.19455 c -2.95194,1.3602 -7.75024,3.12726 -12.39429,4.4712 z"
       id="path3269"
       inkscape:connector-curvature="0"
       sodipodi:nodetypes="ccccc" />
    <path
       style="fill:#a05a2c;stroke:#000000;stroke-width:2;stroke-linecap:butt;stroke-linejoin:miter;stroke-opacity:1;display:inline"
       d="m 173.65836,277.94355 6.58624,1.00889 c 3.45929,-1.42657 6.04763,-3.43379 8.84251,-5.3033 l -5.88801,-0.91422 c -2.18273,1.73621 -6.01351,3.47242 -9.54074,5.20863 z"
       id="path3271"
       inkscape:connector-curvature="0"
       sodipodi:nodetypes="ccccc" />
    <path
       inkscape:connector-curvature="0"
       style="fill:#d35f5f;stroke:none;display:inline"
       d="m 170.14472,247.87834 c 3.04857,5.22269 7.75167,-3.4929 11.12409,-5.01539 l -14.56046,-7.0756 c 0.16783,3.77173 1.41143,8.62196 3.43637,12.09099 z"
       id="path3291-1"
       sodipodi:nodetypes="sccs" />
    <path
       style="fill:none;stroke:#000000;stroke-width:2;stroke-linecap:butt;stroke-linejoin:miter;stroke-opacity:1;display:inline"
       d="m 185.61289,178.97395 c -19.20123,22.7767 -23.33306,54.09921 -15.47014,68.90523 2.83636,5.34092 7.75167,-3.4929 11.12409,-5.01539"
       id="path3291"
       inkscape:connector-curvature="0" />
    <path
       sodipodi:nodetypes="csc"
       inkscape:connector-curvature="0"
       id="path4498"
       d="m 297.52127,270.70101 c 10.76426,9.78183 42.28402,-10.63291 47.60065,-21.05469 7.29683,-14.30346 -12.4545,-20.1068 -31.25553,-7.94112"
       style="fill:#de8787;stroke:#000000;stroke-width:2;stroke-linecap:butt;stroke-linejoin:miter;stroke-opacity:1;display:inline" />
  </g>
  <g
     inkscape:groupmode="layer"
     id="layer23"
     inkscape:label="猫"
     style="display:inline"
     sodipodi:insensitive="true">
    <path
       sodipodi:type="arc"
       style="fill:#000000;fill-opacity:1;stroke:none;display:inline"
       id="path3530-8"
       sodipodi:cx="255"
       sodipodi:cy="278.5"
       sodipodi:rx="85"
       sodipodi:ry="14.5"
       d="m 340,278.5 a 85,14.5 0 1 1 -170,0 85,14.5 0 1 1 170,0 z"
       transform="matrix(0.59411765,-0.02352941,0,0.59411765,-78.363961,138.23873)" />
    <path
       sodipodi:nodetypes="cc"
       inkscape:connector-curvature="0"
       id="path4552"
       d="m 118.60569,242.65683 c 2.09166,-1.14666 4.71773,-1.61045 7.16733,-2.25638"
       style="fill:none;stroke:#ffffff;stroke-width:2;stroke-linecap:butt;stroke-linejoin:miter;stroke-opacity:1;display:inline" />
    <path
       sodipodi:nodetypes="cc"
       inkscape:connector-curvature="0"
       id="path4554"
       d="m 119.3082,246.15469 c 2.31836,0.28002 4.13372,0.43404 6.76444,1.87764"
       style="fill:none;stroke:#ffffff;stroke-width:2;stroke-linecap:butt;stroke-linejoin:miter;stroke-opacity:1;display:inline" />
    <path
       sodipodi:nodetypes="cc"
       inkscape:connector-curvature="0"
       id="path4556"
       d="m 119.80552,251.07369 c 1.47109,0.74256 3.15181,1.31959 5.05645,2.80731"
       style="fill:none;stroke:#ffffff;stroke-width:2;stroke-linecap:butt;stroke-linejoin:miter;stroke-opacity:1;display:inline" />
    <path
       style="fill:#ffb380;stroke:none;display:inline"
       d="m 85.641458,233.29378 c 0.853986,-2.89682 1.484807,-5.78397 2.813139,-5.99562 1.266537,-0.20181 3.279973,1.53005 6.107447,4.20813 0.644062,-0.80986 3.966345,-2.19318 7.665606,-0.66358 1.74467,-0.63503 1.30823,-5.67117 3.39131,-5.17702 1.30978,0.3107 4.70773,4.47336 6.96137,8.45424 4.69253,4.40785 7.22113,9.15478 7.39061,15.03798 0.21576,7.48986 -5.79187,11.79679 -11.08727,19.88566 -1.8972,7.7603 -3.63808,15.40236 -6.87718,22.33848 -0.45737,0.97939 -3.060917,1.674 -3.87256,0.515 -2.671552,-3.81486 -4.231575,-8.29634 -5.42195,-12.57658 -7.879178,4.59359 -22.012476,10.56702 -35.222007,9.81583 -9.101736,-0.5176 -10.605265,-1.42714 -12.501416,-2.15897 -1.432844,4.67201 -3.166534,10.87844 -5.543794,13.76885 -1.101786,1.33962 -3.267486,0.90422 -3.615982,0.0356 -4.561913,-11.37164 -7.76833,-21.60175 -6.867077,-32.02504 1.1441,-13.23189 12.198026,-24.87629 32.18494,-21.89265 4.958443,-0.39656 10.837128,-4.1184 16.99381,-5.70961 0.03045,-1.75492 5.525395,-6.59392 7.501004,-7.8607 z"
       id="path4518-7"
       inkscape:connector-curvature="0"
       sodipodi:nodetypes="csccscscsscscsssccc" />
    <path
       style="fill:none;stroke:#000000;stroke-width:2;stroke-linecap:butt;stroke-linejoin:miter;stroke-opacity:1;display:inline"
       d="m 78.069709,241.10757 c 1.112319,-1.98006 5.590802,-6.5539 7.566411,-7.82068 0.853986,-2.89682 1.506904,-5.69558 2.835236,-5.90723 1.266537,-0.20181 2.838031,1.86151 6.061333,4.09448 m -0.791655,0.89022 c 1.039889,-1.25497 4.384269,-2.60515 8.499356,-1.63478"
       id="path4518"
       inkscape:connector-curvature="0"
       sodipodi:nodetypes="ccsccc" />
    <path
       style="fill:none;stroke:#000000;stroke-width:2;stroke-linecap:butt;stroke-linejoin:miter;stroke-opacity:1;display:inline"
       d="m 101.40875,231.84804 c 2.16049,-1.19426 2.13284,-6.60605 4.21592,-6.1119 1.30977,0.3107 4.65249,4.38498 6.90613,8.36586 4.69253,4.40785 7.13274,9.27631 7.30222,15.15951 0.21576,7.48986 -5.79187,11.79679 -11.08727,19.88566 -1.89721,7.7603 -3.63808,15.40236 -6.87718,22.33848 -0.45737,0.97939 -3.016721,1.47513 -3.828367,0.31613 -2.671552,-3.81486 -4.231575,-8.84877 -5.63626,-13.71037"
       id="path4520"
       inkscape:connector-curvature="0"
       sodipodi:nodetypes="cscscssc" />
    <path
       style="fill:none;stroke:#000000;stroke-width:2;stroke-linecap:butt;stroke-linejoin:miter;stroke-opacity:1;display:inline"
       d="m 92.832564,279.25414 c -8.093489,4.01222 -22.270981,10.73695 -35.480512,9.98576 -9.101736,-0.5176 -15.289847,-2.33312 -19.886223,-7.83037"
       id="path4524"
       inkscape:connector-curvature="0"
       sodipodi:nodetypes="csc" />
    <path
       style="fill:#ffb380;stroke:#000000;stroke-width:2;stroke-linecap:butt;stroke-linejoin:miter;stroke-opacity:1;display:inline"
       d="m 66.125682,286.06707 c -2.578213,5.731 -6.907562,13.66334 -9.839668,17.45337 -0.758671,0.98065 -2.721621,0.92214 -3.514236,0 -2.516894,-2.92817 -4.869749,-11.30322 -5.505543,-16.44547"
       id="path4526"
       inkscape:connector-curvature="0"
       sodipodi:nodetypes="cssc" />
    <path
       style="fill:none;stroke:#000000;stroke-width:2;stroke-linecap:butt;stroke-linejoin:miter;stroke-opacity:1;display:inline"
       d="m 44.9876,287.22806 c -1.216255,4.06084 -3.303498,10.73131 -5.680758,13.62172 -1.101786,1.33962 -3.267486,0.90422 -3.615982,0.0356 -4.561913,-11.37164 -7.76833,-21.60175 -6.867077,-32.02504 1.1441,-13.23189 12.198026,-24.87629 32.18494,-21.89265 4.958443,-0.39656 12.041419,-4.59349 19.279973,-6.40985"
       id="path4530"
       inkscape:connector-curvature="0"
       sodipodi:nodetypes="cssscc" />
    <path
       sodipodi:nodetypes="cssc"
       inkscape:connector-curvature="0"
       id="path4602"
       d="m 30.542647,271.20943 c -9.08637,11.78863 -10.665491,23.64939 -9.75,28 0.63347,3.01039 3.5883,2.34732 3.5625,0.75 -0.09246,-5.72426 2.815432,-16.99751 10.0625,-22.9375"
       style="fill:#ffb380;stroke:#000000;stroke-width:2;stroke-linecap:butt;stroke-linejoin:miter;stroke-opacity:1;display:inline" />
  </g>
  <g
     inkscape:groupmode="layer"
     id="layer7"
     inkscape:label="枠面"
     style="display:inline"
     sodipodi:insensitive="true">
    <path
       style="fill:#ffffff;stroke:none;display:inline"
       d="m 0,0 0,320 370,0 0,-320 -10,10 0,300 -350,0 0,-300 350,0 10,-10 z"
       id="path21072"
       inkscape:connector-curvature="0"
       sodipodi:nodetypes="ccccccccccc" />
  </g>
</svg>
