<?xml version="1.0" encoding="UTF-8" standalone="no"?>
<!-- Created with Inkscape (http://www.inkscape.org/) -->

<svg
   xmlns:dc="http://purl.org/dc/elements/1.1/"
   xmlns:cc="http://creativecommons.org/ns#"
   xmlns:rdf="http://www.w3.org/1999/02/22-rdf-syntax-ns#"
   xmlns:svg="http://www.w3.org/2000/svg"
   xmlns="http://www.w3.org/2000/svg"
   xmlns:sodipodi="http://sodipodi.sourceforge.net/DTD/sodipodi-0.dtd"
   xmlns:inkscape="http://www.inkscape.org/namespaces/inkscape"
   width="370"
   height="320"
   id="svg2"
   version="1.1"
   inkscape:version="0.48.4 r9939"
   sodipodi:docname="[02.通勤]03.雨天.svg"
   inkscape:export-filename="C:\Users\執安\Desktop\資料\臨時\描画3.png"
   inkscape:export-xdpi="90"
   inkscape:export-ydpi="90"
   enable-background="new">
  <defs
     id="defs4">
    <inkscape:perspective
       sodipodi:type="inkscape:persp3d"
       inkscape:vp_x="363.49708 : 943.81603 : 1"
       inkscape:vp_y="0 : 1000 : 0"
       inkscape:vp_z="744.09448 : 526.18109 : 1"
       inkscape:persp3d-origin="372.04724 : 350.78739 : 1"
       id="perspective5056" />
    <inkscape:perspective
       id="perspective5056-4"
       inkscape:persp3d-origin="372.04724 : 350.78739 : 1"
       inkscape:vp_z="744.09448 : 526.18109 : 1"
       inkscape:vp_y="0 : 1000 : 0"
       inkscape:vp_x="363.49708 : 943.81603 : 1"
       sodipodi:type="inkscape:persp3d" />
  </defs>
  <sodipodi:namedview
     id="base"
     pagecolor="#ffffff"
     bordercolor="#666666"
     borderopacity="1.0"
     inkscape:pageopacity="0.0"
     inkscape:pageshadow="2"
     inkscape:zoom="1.1165008"
     inkscape:cx="232.92581"
     inkscape:cy="176.28102"
     inkscape:document-units="px"
     inkscape:current-layer="layer1"
     showgrid="false"
     inkscape:window-width="1211"
     inkscape:window-height="697"
     inkscape:window-x="-3"
     inkscape:window-y="-5"
     inkscape:window-maximized="0"
     showguides="true"
     inkscape:guide-bbox="true"
     inkscape:snap-grids="false"
     inkscape:snap-to-guides="false"
     showborder="true"
     inkscape:showpageshadow="false"
     fit-margin-top="0"
     fit-margin-left="0"
     fit-margin-right="0"
     fit-margin-bottom="0"
     inkscape:snap-page="false"
     inkscape:snap-nodes="true"
     inkscape:snap-bbox="false"
     inkscape:object-paths="false" />
  <metadata
     id="metadata7">
    <rdf:RDF>
      <cc:Work
         rdf:about="">
        <dc:format>image/svg+xml</dc:format>
        <dc:type
           rdf:resource="http://purl.org/dc/dcmitype/StillImage" />
        <dc:title />
      </cc:Work>
    </rdf:RDF>
  </metadata>
  <g
     inkscape:groupmode="layer"
     id="layer2"
     inkscape:label="補助線"
     style="display:none"
     sodipodi:insensitive="true">
    <path
       style="fill:none;stroke:#0000ff;stroke-width:1px;stroke-linecap:butt;stroke-linejoin:miter;stroke-opacity:1"
       d="M 10,310 360,10"
       id="path3025"
       inkscape:connector-curvature="0"
       sodipodi:nodetypes="cc" />
    <path
       style="fill:none;stroke:#0000ff;stroke-width:1px;stroke-linecap:butt;stroke-linejoin:miter;stroke-opacity:1"
       d="M 10,10 360,310"
       id="path3027"
       inkscape:connector-curvature="0"
       sodipodi:nodetypes="cc" />
    <path
       style="fill:none;stroke:#ff0000;stroke-width:1px;stroke-linecap:butt;stroke-linejoin:miter;stroke-opacity:1;display:inline"
       d="m 10,0 0,320"
       id="path3006"
       inkscape:connector-curvature="0"
       sodipodi:nodetypes="cc" />
    <path
       style="fill:none;stroke:#ff0000;stroke-width:1px;stroke-linecap:butt;stroke-linejoin:miter;stroke-opacity:1;display:inline"
       d="m 360,0 0,320"
       id="path3010"
       inkscape:connector-curvature="0"
       sodipodi:nodetypes="cc" />
    <path
       style="fill:none;stroke:#ff0000;stroke-width:1px;stroke-linecap:butt;stroke-linejoin:miter;stroke-opacity:1;display:inline"
       d="M 0,9.9999681 370,10"
       id="path3016"
       inkscape:connector-curvature="0" />
    <path
       transform="translate(84.715796,27.711696)"
       style="fill:none;stroke:#ff0000;stroke-width:1px;stroke-linecap:butt;stroke-linejoin:miter;stroke-opacity:1;display:inline"
       d="m -84.715796,282.2883 369.999996,0"
       id="path3018"
       inkscape:connector-curvature="0"
       sodipodi:nodetypes="cc" />
  </g>
  <g
     inkscape:groupmode="layer"
     id="layer1"
     inkscape:label="鞄"
     style="display:inline"
     sodipodi:insensitive="true">
    <path
       style="fill:#502d16;stroke:none;display:inline"
       d="m 135.47084,233.48946 -8.62166,-0.23453 c -1.92431,-0.0523 -3.14553,-0.29161 -4.53547,2.15185 -0.84991,1.49411 -4.22574,14.72948 -4.63482,18.6456 -0.18769,1.79682 0.10675,4.38162 1.29897,5.55876 -0.24874,5.79855 -1.01175,10.02467 -1.72967,22.26762 -0.18878,3.21925 1.67741,5.43153 3.93441,5.47546 l 8.4831,0.16512 c 0.36727,0.41063 1.15113,0.60837 1.91655,0.62153 0.71179,0.0122 1.99757,0.1415 2.79549,0.0919 26.36738,-10.45088 18.0893,-31.29005 1.0931,-54.74331 z"
       id="path5119-1"
       inkscape:connector-curvature="0"
       sodipodi:nodetypes="cssscsscscc" />
    <path
       style="fill:none;stroke:#000000;stroke-width:2;stroke-linecap:butt;stroke-linejoin:miter;stroke-opacity:1;display:inline"
       d="m 118.88717,259.62334 c -1.17114,-0.79092 -1.38671,-3.83305 -1.19902,-5.62987 0.40908,-3.91612 3.78491,-17.15149 4.63482,-18.6456 1.38994,-2.44346 7.58168,-3.12033 7.39716,0.17759 -0.81545,14.57428 -1.67833,30.55332 -2.27909,46.74516 -0.13814,3.72327 1.89081,5.75361 4.15047,5.81137 0.71166,0.0182 1.99757,0.1415 2.79549,0.0919"
       id="path5119"
       inkscape:connector-curvature="0"
       sodipodi:nodetypes="csssssc" />
    <path
       style="fill:none;stroke:#000000;stroke-width:2;stroke-linecap:butt;stroke-linejoin:miter;stroke-opacity:1;display:inline"
       d="m 129.64377,287.49422 -8.45191,-0.19891 c -2.2568,-0.0531 -4.1816,-2.26017 -3.93441,-5.47546 1.15948,-15.08154 2.01648,-33.80902 5.06183,-43.63693 0.17136,-0.55303 0.50574,-1.99782 2.03674,-2.54599 0.44359,-0.15883 3.94172,0.056 5.21381,0.12874"
       id="path5121"
       inkscape:connector-curvature="0"
       sodipodi:nodetypes="cssssc" />
    <path
       style="fill:none;stroke:#000000;stroke-width:2;stroke-linecap:butt;stroke-linejoin:miter;stroke-opacity:1;display:inline"
       d="m 128.31266,286.25726 c -2.47699,0.008 -6.26871,-0.34087 -6.75016,-0.44092 -1.68983,-0.35115 -2.47824,-2.72246 -2.42844,-3.81151 0.71311,-15.59449 3.71673,-35.60977 4.53569,-44.21421 1.9161,1.26168 5.01453,0.11831 5.7928,0.29234"
       id="path5123"
       inkscape:connector-curvature="0"
       sodipodi:nodetypes="csscc" />
    <path
       style="fill:none;stroke:#000000;stroke-width:2;stroke-linecap:butt;stroke-linejoin:miter;stroke-opacity:1;display:inline"
       d="m 127.13149,233.28662 8.34861,0.14393"
       id="path5125"
       inkscape:connector-curvature="0"
       sodipodi:nodetypes="cc" />
  </g>
  <g
     style="display:inline"
     inkscape:label="豚"
     id="g3163"
     inkscape:groupmode="layer"
     transform="translate(84.715796,27.711696)"
     sodipodi:insensitive="true">
    <path
       sodipodi:nodetypes="csccccscsccscc"
       inkscape:connector-curvature="0"
       id="path4977-2"
       d="m 98.714113,266.27408 c -2.666988,2.82102 -26.918589,7.92263 -44.89381,-1.41105 -9.106767,-4.72871 -3.350032,-18.90902 6.463864,-20.32555 -7.235872,-12.68014 -12.323452,-27.29689 -8.818466,-41.91045 -3.87333,-7.50257 4.029069,-40.82132 16.477202,-51.48168 -0.786066,-4.41498 -0.44262,-13.18215 1.113224,-17.89225 -1.627347,-6.02213 1.446563,-15.84471 7.593723,-26.57757 4.2573,-7.433194 12.126489,-14.421472 19.904287,-15.535682 18.256753,-14.613099 63.817563,-23.140055 90.918503,22.497812 14.39304,24.23782 16.21106,36.61161 12.33719,45.91629 23.90797,33.19712 18.8491,79.14 -2.11887,94.57816 4.41422,8.85395 -4.6362,17.96108 -22.85466,18.43616 -8.76615,0.22859 -23.87296,-1.86127 -27.42867,-4.22002 -17.32518,-0.94162 -41.5707,-0.9825 -48.693517,-2.07417 z"
       style="fill:#ffd5d5;stroke:none;display:inline" />
    <path
       sodipodi:nodetypes="csc"
       inkscape:connector-curvature="0"
       id="path4965"
       d="m 96.51131,91.096864 c -9.430153,2.105234 -15.596389,8.118603 -19.853684,15.551796 -6.147163,10.73286 -8.339518,20.49303 -7.560039,26.62675"
       style="fill:none;stroke:#000000;stroke-width:2;stroke-linecap:butt;stroke-linejoin:miter;stroke-opacity:1;display:inline" />
    <path
       sodipodi:nodetypes="cc"
       inkscape:connector-curvature="0"
       id="path4967"
       d="m 77.079845,119.07005 c -8.068121,9.47166 -14.848375,26.38253 -4.813426,41.87206"
       style="fill:none;stroke:#000000;stroke-width:2;stroke-linecap:butt;stroke-linejoin:miter;stroke-opacity:1;display:inline" />
    <path
       sodipodi:nodetypes="cc"
       inkscape:connector-curvature="0"
       id="path4969"
       d="m 90.428185,110.74189 c 0.539545,3.50509 1.957113,7.83125 2.225005,11.77853"
       style="fill:none;stroke:#000000;stroke-width:2;stroke-linecap:butt;stroke-linejoin:miter;stroke-opacity:1;display:inline" />
    <path
       sodipodi:nodetypes="cc"
       inkscape:connector-curvature="0"
       id="path4971"
       d="m 120.02754,113.12087 c -3.16327,2.96143 -7.06647,8.17382 -9.76341,11.95101"
       style="fill:none;stroke:#000000;stroke-width:2;stroke-linecap:butt;stroke-linejoin:miter;stroke-opacity:1;display:inline" />
    <path
       sodipodi:nodetypes="ssssss"
       inkscape:connector-curvature="0"
       id="path4975"
       d="m 96.538802,125.74095 c 13.022708,0.83175 22.601118,11.54193 27.768728,20.85787 5.27376,9.50732 -1.81014,18.10902 -11.77048,14.68511 -11.52716,-3.96252 -19.25557,-3.04375 -26.288316,-2.24203 -5.311508,0.6055 -9.664599,-5.66525 -9.549028,-10.80149 0.251334,-11.16928 11.331983,-23.0428 19.839096,-22.49946 z"
       style="fill:#ffaaaa;stroke:#000000;stroke-width:2;stroke-linecap:butt;stroke-linejoin:miter;stroke-opacity:1;display:inline" />
    <path
       sodipodi:nodetypes="cssscc"
       inkscape:connector-curvature="0"
       id="path4989-8-6"
       d="m 130.94831,179.15978 c -2.27964,1.73007 -7.20439,5.76987 -2.32059,10.97427 1.19359,1.27195 3.90204,1.76268 4.05835,3.69644 0.10744,1.32916 -5.96903,2.84763 -2.8414,6.35842 1.16883,1.31202 2.56947,3.20651 3.89574,4.54084 21.78418,10.16907 15.38973,-27.80842 -2.7921,-25.56997 z"
       style="fill:#ffaaaa;stroke:none;display:inline" />
    <path
       sodipodi:nodetypes="scscs"
       inkscape:connector-curvature="0"
       id="path4987-6-7-8"
       d="m 136.14776,189.76775 c -4.23652,-7.76649 -12.4498,-6.7188 -7.18429,0.3249 0.88022,1.17747 2.69768,1.14804 3.50904,3.39839 0.49944,1.38524 -5.51133,2.74526 -3.14341,5.96914 7.87442,5.37257 8.82663,-6.01135 6.81866,-9.69243 z"
       style="fill:#ff8080;stroke:none;display:inline" />
    <path
       sodipodi:nodetypes="csccsccccsccc"
       inkscape:connector-curvature="0"
       id="path4977"
       d="m 143.93019,265.09483 c 3.68109,6.53464 18.93476,7.25241 27.70238,7.41503 22.00325,0.40804 30.43577,-9.58221 26.02155,-18.43616 17.98869,-12.41405 28.39086,-58.34796 2.16348,-94.57816 4.53899,-8.51711 1.95847,-21.69986 -12.44039,-45.93423 C 159.9754,67.441999 108.21986,73.318076 86.518845,100.66424 M 147.5182,268.44917 c -21.16287,-2.28909 -51.530554,0.38229 -64.563833,-5.7581 m 15.842716,3.53317 c -2.296644,3.02054 -26.576377,8.57818 -44.961977,-1.38566 -9.021646,-4.88916 -4.551875,-16.9665 6.388337,-20.26988 m 6.404726,7.69767 C 47.612261,233.90114 45.359266,196.72862 61.537051,175.75502"
       style="fill:none;stroke:#000000;stroke-width:2;stroke-linecap:butt;stroke-linejoin:miter;stroke-opacity:1;display:inline" />
    <path
       sodipodi:nodetypes="cc"
       inkscape:connector-curvature="0"
       id="path4979"
       d="m 67.951115,151.14352 c -14.455463,16.7505 -20.216402,40.59851 -16.696261,51.47231"
       style="fill:none;stroke:#000000;stroke-width:2;stroke-linecap:butt;stroke-linejoin:miter;stroke-opacity:1;display:inline" />
    <path
       sodipodi:nodetypes="sss"
       inkscape:connector-curvature="0"
       id="path4981"
       d="m 107.71148,153.79091 c -2.94949,0.51521 -8.13909,-17.08614 -6.27877,-17.57074 2.24085,-0.58371 10.6991,16.79861 6.27877,17.57074 z"
       style="fill:#000000;stroke:#000000;stroke-width:2;stroke-linecap:butt;stroke-linejoin:miter;stroke-opacity:1;display:inline" />
    <path
       sodipodi:nodetypes="sss"
       inkscape:connector-curvature="0"
       id="path4983"
       d="m 91.383408,136.07036 c 2.196911,0.46463 -0.0039,15.45583 -2.642504,15.04049 -3.546597,-0.55825 0.07137,-15.58426 2.642504,-15.04049 z"
       style="fill:#000000;stroke:#000000;stroke-width:2;stroke-linecap:butt;stroke-linejoin:miter;stroke-opacity:1;display:inline" />
    <path
       sodipodi:nodetypes="csssc"
       inkscape:connector-curvature="0"
       id="path4985"
       d="m 168.96899,169.82367 c -16.2612,-2.3129 -51.05574,9.03799 -40.19152,20.16789 0.96565,0.98926 3.31328,1.64496 3.79318,3.51966 0.36518,1.42653 -5.69696,2.62298 -2.8414,6.35842 5.23133,6.84327 13.98218,15.29274 21.79458,18.86651"
       style="fill:none;stroke:#000000;stroke-width:2;stroke-linecap:butt;stroke-linejoin:miter;stroke-opacity:1;display:inline" />
    <path
       sodipodi:nodetypes="csc"
       inkscape:connector-curvature="0"
       id="path4987"
       d="m 128.9922,190.18991 c -5.54949,-7.16509 2.93951,-8.34983 6.98853,-0.53456 2.07931,4.01341 0.72431,15.39645 -6.83339,9.23687"
       style="fill:none;stroke:#000000;stroke-width:2;stroke-linecap:butt;stroke-linejoin:miter;stroke-opacity:1;display:inline" />
    <path
       sodipodi:nodetypes="cc"
       inkscape:connector-curvature="0"
       id="path4989"
       d="m 130.97463,179.19086 c 18.60088,-1.75798 23.65596,34.98976 3.01066,25.76876"
       style="fill:none;stroke:#000000;stroke-width:2;stroke-linecap:butt;stroke-linejoin:miter;stroke-opacity:1;display:inline" />
    <path
       sodipodi:nodetypes="cssc"
       inkscape:connector-curvature="0"
       id="path4973"
       d="m 163.98281,92.21602 c 10.71856,0.643264 26.25047,11.2097 29.98335,20.61924 8.21463,20.70684 -7.17583,40.37178 -18.47418,40.25439 -8.73499,-0.0908 -13.15542,-24.08926 -22.39836,-32.6426"
       style="fill:#ffd5d5;stroke:#000000;stroke-width:2;stroke-linecap:butt;stroke-linejoin:miter;stroke-opacity:1;display:inline" />
  </g>
  <g
     inkscape:groupmode="layer"
     id="layer4"
     inkscape:label="水"
     style="display:inline"
     sodipodi:insensitive="true">
    <path
       transform="translate(84.715796,27.711696)"
       sodipodi:nodetypes="cssssssscc"
       inkscape:connector-curvature="0"
       id="path3378"
       d="m 95.790157,92.227346 c 5.756943,-2.238099 -2.685058,7.594894 1.044769,9.787904 3.191854,1.87669 7.777194,-12.020559 15.176744,-12.97722 7.76774,-1.004264 7.67907,5.997789 10.99765,6.158682 4.06655,0.197161 3.98247,-10.186534 10.00786,-7.80833 16.02959,6.326823 11.14661,42.413788 14.62688,39.481538 10.82034,-9.11667 1.76943,-36.042821 7.69835,-33.212883 9.19822,4.390431 5.85441,7.478733 10.33778,7.038503 4.4023,-0.43229 -0.85722,-8.847986 3.79418,-7.368432 -14.801,-12.297377 -46.70223,-20.028524 -73.684213,-1.099762 z"
       style="fill:#ffffff;fill-opacity:0.75294118;stroke:none;display:inline" />
    <path
       sodipodi:nodetypes="cssssscc"
       inkscape:connector-curvature="0"
       id="path3380"
       d="m 221.40462,203.37739 c 8.76921,0.15025 7.78981,8.5506 9.29301,7.17594 3.00643,-2.74925 -1.81622,-8.29115 1.82891,-7.29058 10.61861,2.91484 9.32193,19.10606 11.58822,16.03375 3.74268,-5.07377 -0.68094,-17.50159 2.19954,-15.94659 3.86866,2.0885 5.32892,10.6621 6.15867,7.47841 1.34136,-5.14658 -3.91467,-12.79039 -1.42969,-13.55462 -10.73421,-0.4321 -21.66439,2.41431 -29.63866,6.10369 z"
       style="fill:#ffffff;fill-opacity:0.75294118;stroke:none;display:inline" />
  </g>
  <g
     inkscape:groupmode="layer"
     id="layer3"
     inkscape:label="傘"
     style="display:inline"
     sodipodi:insensitive="true">
    <path
       style="fill:none;stroke:#000000;stroke-width:2;stroke-linecap:butt;stroke-linejoin:miter;stroke-miterlimit:4;stroke-opacity:1;stroke-dasharray:3.54487295, 3.54487295;stroke-dashoffset:0;display:inline"
       d="M 110.36276,98.55854 C 163.46432,19.125929 274.42503,22.434155 336.40701,101.41302 318.92063,92.197659 307.12284,92.052716 300.9156,100.80735 286.95361,89.733993 270.13261,88.639585 255.86921,99.9628 240.25271,89.632952 219.46764,88.528292 206.62397,99.13523 191.3603,88.255622 170.76931,86.739635 154.53094,98.81792 143.7159,87.088107 126.63347,86.95834 110.36276,98.55854 z"
       id="path5113"
       inkscape:connector-curvature="0"
       sodipodi:nodetypes="ccccccc" />
    <path
       style="opacity:0.92000002;fill:none;stroke:#000000;stroke-width:2;stroke-linecap:butt;stroke-linejoin:miter;stroke-miterlimit:4;stroke-opacity:1;stroke-dasharray:3.97599888, 3.97599888;stroke-dashoffset:0;display:inline"
       d="M 224.2441,91.144564 221.27738,203.15703"
       id="path5117"
       inkscape:connector-curvature="0"
       sodipodi:nodetypes="cc" />
    <path
       style="fill:none;stroke:#000000;stroke-width:2;stroke-linecap:butt;stroke-linejoin:miter;stroke-miterlimit:4;stroke-opacity:1;stroke-dasharray:3.97599888, 3.97599888;stroke-dashoffset:0;display:inline"
       d="m 215.21482,203.11106 7.26017,0 -0.54494,25.7251 c -0.0286,13.54161 -21.85513,13.01872 -21.78048,-1.03003 l 6.81337,0.11172 c 0.12624,5.91103 7.92032,5.90682 7.93034,0.2234 z"
       id="path5167"
       inkscape:connector-curvature="0"
       sodipodi:nodetypes="ccccccc" />
    <path
       style="opacity:0.92000002;fill:none;stroke:#000000;stroke-width:2;stroke-linecap:butt;stroke-linejoin:miter;stroke-miterlimit:4;stroke-opacity:1;stroke-dasharray:3.97599888, 3.97599888;stroke-dashoffset:0;display:inline"
       d="M 219.24506,92.071298 216.27833,203.01215"
       id="path5115"
       inkscape:connector-curvature="0"
       sodipodi:nodetypes="cc" />
  </g>
  <g
     inkscape:groupmode="layer"
     id="layer6"
     inkscape:label="吹き出し"
     style="display:inline"
     sodipodi:insensitive="true">
    <path
       transform="matrix(0.49699986,0,0,0.49699986,44.52006,-374.99546)"
       d="m 191.18649,1018.6362 a 129.22791,58.418095 0 1 1 -258.455811,0 129.22791,58.418095 0 1 1 258.455811,0 z"
       sodipodi:ry="58.418095"
       sodipodi:rx="129.22791"
       sodipodi:cy="1018.6362"
       sodipodi:cx="61.958584"
       id="path3689"
       style="fill:#fefefe;fill-opacity:1;stroke:#000000;stroke-width:4.02414608;display:inline"
       sodipodi:type="arc" />
    <path
       d="m 137.19401,1008.8999 a 23.898312,11.506595 0 1 1 -47.796622,0 23.898312,11.506595 0 1 1 47.796622,0 z"
       sodipodi:ry="11.506595"
       sodipodi:rx="23.898312"
       sodipodi:cy="1008.8999"
       sodipodi:cx="113.2957"
       id="path3691"
       style="fill:#fefefe;fill-opacity:1;stroke:#000000;stroke-width:4.02414608;display:inline"
       sodipodi:type="arc"
       transform="matrix(0.49699986,0,0,0.49699986,46.279681,-346.84146)" />
    <path
       d="m 168.17331,1052.2709 a 14.604524,7.0809813 0 1 1 -29.20905,0 14.604524,7.0809813 0 1 1 29.20905,0 z"
       sodipodi:ry="7.0809813"
       sodipodi:rx="14.604524"
       sodipodi:cy="1052.2709"
       sodipodi:cx="153.56879"
       id="path3693"
       style="fill:#fefefe;fill-opacity:1;stroke:#000000;stroke-width:4.02414608;display:inline"
       sodipodi:type="arc"
       transform="matrix(0.49699986,0,0,0.49699986,46.279681,-346.84146)" />
    <path
       d="m 149.58573,1034.1259 a 15.489646,8.4086647 0 1 1 -30.97929,0 15.489646,8.4086647 0 1 1 30.97929,0 z"
       sodipodi:ry="8.4086647"
       sodipodi:rx="15.489646"
       sodipodi:cy="1034.1259"
       sodipodi:cx="134.09608"
       id="path3695"
       style="fill:#fefefe;fill-opacity:1;stroke:#000000;stroke-width:4.02414608;display:inline"
       sodipodi:type="arc"
       transform="matrix(0.49699986,0,0,0.49699986,46.279681,-346.84146)" />
    <path
       style="fill:#000000;stroke:#000000;stroke-width:2;stroke-linecap:butt;stroke-linejoin:miter;stroke-opacity:1"
       d="m 23.663022,138.4573 93.137648,-0.56791 -0.1893,-8.708 -92.191132,0.56792 z"
       id="path4507"
       inkscape:connector-curvature="0" />
    <path
       style="fill:#1a1a1a;stroke:none;display:inline"
       d="m 44.976376,140.2922 0.485633,1.5176 47.531339,0.42493 0.364225,-1.76042"
       id="path8130-2"
       inkscape:connector-curvature="0" />
    <path
       style="fill:#ffcc00;stroke:none;display:inline"
       d="m 130.00525,127.1278 -1.15338,-3.58154 c -5.04202,-0.98928 -12.66515,-1.59307 -16.19283,-1.66937 l -0.74363,0.81951 -2.9745,0.0607 -10.676574,-9.1093 1.298759,-0.58428 c -0.41922,-0.33657 -1.716809,-0.41921 -2.286649,-0.50471 -9.27903,-0.47777 -23.023309,-0.33067 -30.938927,0.23087 -0.802194,0.13946 -1.778676,0.46096 -1.782176,0.63516 l 0.173855,0.27596 c 3.7364,0.51026 23.625864,-0.98274 27.80969,-0.13309 1.66545,1.25282 5.971222,6.318 9.053382,9.7812 -4.523166,1.27968 -14.004348,0.31788 -23.007298,0.5497 0.57714,-2.79025 1.589423,-7.22255 2.18847,-10.28011 l -2.435625,0.0177 c -0.844461,3.15411 -2.048079,8.13691 -2.579423,10.39745 -10.709727,0.0758 -20.539509,0.7536 -23.001834,0.82294 3.192506,-3.50971 12.717191,-9.39693 14.260308,-11.38157 l -2.249712,0.25926 c -2.879765,2.2339 -12.1125,9.17172 -13.632024,10.55455 -1.157915,0.0838 -2.47321,-0.10317 -3.096248,-0.6369 -8.886129,0.0864 -22.021781,2.78392 -26.742913,4.09823 -0.512027,0.30797 -1.263514,0.79973 -1.633292,1.43035 l -0.495032,7.87681 0.683997,0.90739 -0.0607,1.63901 6.298054,0.24282 c 0.123319,-2.63018 -0.156855,-5.62573 2.488756,-7.60856 3.113936,-2.33384 9.240224,-1.92311 11.365171,-0.35499 3.464272,2.55648 3.966085,5.31104 5.354383,8.20095 l 48.417908,-0.005 c 0.70598,-2.51941 1.59873,-5.63839 4.28853,-7.39181 4.790634,-3.1229 9.672134,-2.71822 12.783434,0.19685 2.56982,2.40774 2.43356,4.69199 2.64584,6.93068 l 11.71589,-0.84985 2.1863,-1.25858 2.12318,-5.97533 z"
       id="path7297-9"
       inkscape:connector-curvature="0"
       sodipodi:nodetypes="ccccccccccccccccccccccccccccssccssccccc" />
    <path
       style="fill:#1a1a1a;stroke:none;display:inline"
       d="m 25.96794,137.30992 -7.687318,-0.44918 -0.90141,-1.63112 0.128773,-2.27499 10.430606,-0.30047"
       id="path7319-4"
       inkscape:connector-curvature="0"
       sodipodi:nodetypes="ccccc" />
    <path
       style="fill:none;stroke:#000000;stroke-width:2;stroke-linecap:butt;stroke-linejoin:miter;stroke-opacity:1"
       d="m 19.971661,128.93373 c 0.180813,-0.40025 0.9323,-0.89201 1.444327,-1.19998 4.721132,-1.31431 17.714855,-3.96454 26.600984,-4.05092 0.623038,0.53378 1.969873,0.70495 3.127788,0.62113 2.675599,-2.43492 9.292472,-7.49793 13.396941,-10.58011 l -0.173855,-0.27596 c 0.0035,-0.1742 0.979982,-0.4957 1.782176,-0.63516 7.915618,-0.56154 21.809709,-0.71653 31.088744,-0.23876 0.569841,0.0855 1.536258,0.23122 1.955474,0.56779 l -0.967583,0.5212 10.676563,9.1093 2.9745,-0.0607 0.74363,-0.81951 c 3.52768,0.0763 11.15081,0.68009 16.19283,1.66937 l 1.15338,3.58154"
       id="path7297"
       inkscape:connector-curvature="0"
       sodipodi:nodetypes="ccccccccccccccc" />
    <path
       style="fill:#ffffff;stroke:none;display:inline"
       d="m 18.923794,132.36153 3.518464,-0.069 c 0.05842,-0.91284 0.335322,-2.11726 0.63977,-3.11795 l -3.126263,-0.30352 c -0.669553,1.09958 -0.911815,2.47986 -1.031971,3.49049 z"
       id="path7301-3"
       inkscape:connector-curvature="0"
       sodipodi:nodetypes="ccccc" />
    <path
       style="fill:none;stroke:#000000;stroke-width:2;stroke-linecap:butt;stroke-linejoin:miter;stroke-opacity:1"
       d="m 19.287664,137.04091 0.683997,0.90739 -0.0607,1.63901 6.298054,0.24282 c 0.123319,-2.63018 -0.204165,-5.65727 2.441446,-7.6401 3.113936,-2.33384 9.110895,-1.90846 11.235842,-0.34034 3.464272,2.55648 4.010689,5.33334 5.398987,8.22325 l 48.392243,0.0215 c 0.705976,-2.51941 1.598733,-5.63839 4.288531,-7.39181 4.790626,-3.1229 9.672126,-2.71822 12.783426,0.19685 2.56982,2.40774 2.43356,4.69199 2.64584,6.93068 l 11.71589,-0.84985 2.1863,-1.25858 2.12318,-5.97533"
       id="path7299"
       inkscape:connector-curvature="0"
       sodipodi:nodetypes="ccccssccsscccc" />
    <path
       style="fill:none;stroke:#000000;stroke-width:2;stroke-linecap:butt;stroke-linejoin:miter;stroke-opacity:1"
       d="m 18.909338,132.51528 3.518464,-0.069 c 0.05842,-0.91284 0.335322,-2.11726 0.63977,-3.11795 l -3.126263,-0.30352 c -0.669553,1.09958 -0.911815,2.47986 -1.031971,3.49049 z"
       id="path7301"
       inkscape:connector-curvature="0"
       sodipodi:nodetypes="ccccc" />
    <path
       style="fill:none;stroke:#000000;stroke-width:2;stroke-linecap:butt;stroke-linejoin:miter;stroke-opacity:1"
       d="m 79.650048,113.51168 c -0.913506,3.33767 -1.85911,7.17258 -2.557995,10.58179 -0.447357,4.89337 -0.444547,10.30183 0.257546,15.45275 m -25.582886,0.47222 c -3.028614,-3.33075 -2.841958,-9.98734 -1.545275,-13.56408 l 2.48961,-1.58826 c 1.756289,-2.0208 11.106603,-8.86701 13.993324,-10.73107 2.754771,-0.49497 8.679243,-0.58262 13.020794,-0.56969 4.370934,0.013 9.48824,-0.37047 12.765221,0.0306 2.198124,1.81745 6.895329,6.74288 9.626533,10.17567 0.72692,1.99364 0.59312,4.11427 0.44982,5.85076 -2.753437,0.62128 -4.520309,1.59255 -5.772479,2.49801 -2.501862,1.80912 -3.720893,5.77726 -4.120734,8.02685"
       id="path7303"
       inkscape:connector-curvature="0"
       sodipodi:nodetypes="cccccccscccsc" />
    <path
       style="fill:none;stroke:#000000;stroke-width:2;stroke-linecap:butt;stroke-linejoin:miter;stroke-opacity:1"
       d="m 52.630486,124.89691 c 7.836099,-0.35913 15.937562,-0.56525 24.342359,-0.91057 8.442609,-0.34688 17.863009,-0.53191 26.300885,-0.52855 -2.8047,-3.44826 -5.844604,-6.73972 -9.334517,-9.73118 l -1.558295,-0.14913"
       id="path7305"
       inkscape:connector-curvature="0"
       sodipodi:nodetypes="csccc" />
    <path
       style="fill:none;stroke:#000000;stroke-width:2;stroke-linecap:butt;stroke-linejoin:miter;stroke-opacity:1"
       d="m 80.776374,113.65864 c -0.933857,3.23622 -1.496106,6.62108 -2.164518,9.96348"
       id="path7307"
       inkscape:connector-curvature="0"
       sodipodi:nodetypes="cc" />
    <path
       style="fill:none;stroke:#000000;stroke-width:2;stroke-linecap:butt;stroke-linejoin:miter;stroke-opacity:1"
       d="m 78.487397,113.48694 c -0.889255,3.26886 -1.95883,7.14722 -2.567985,10.36021"
       id="path7309"
       inkscape:connector-curvature="0"
       sodipodi:nodetypes="cc" />
    <path
       style="fill:none;stroke:#000000;stroke-width:2;stroke-linecap:butt;stroke-linejoin:miter;stroke-opacity:1"
       d="m 49.277104,124.2437 c 4.699713,-3.64598 9.844073,-7.32621 15.071797,-10.80619"
       id="path7311"
       inkscape:connector-curvature="0"
       sodipodi:nodetypes="cc" />
    <path
       style="fill:none;stroke:#000000;stroke-width:2;stroke-linecap:butt;stroke-linejoin:miter;stroke-opacity:1"
       d="m 99.155147,113.14778 c 3.428413,2.05569 9.123103,6.0438 13.306533,8.97117"
       id="path7313"
       inkscape:connector-curvature="0"
       sodipodi:nodetypes="cc" />
    <path
       style="fill:#aa0000;stroke:#000000;stroke-width:2;stroke-linecap:butt;stroke-linejoin:miter;stroke-opacity:1"
       d="m 127.39934,127.18402 2.79008,0.0429 -0.42924,4.37828 -3.3481,-0.12877 z"
       id="path7315"
       inkscape:connector-curvature="0" />
    <path
       style="fill:#1a1a1a;stroke:#000000;stroke-width:2;stroke-linecap:butt;stroke-linejoin:miter;stroke-opacity:1"
       d="m 125.98284,132.85002 4.46413,0.21463 -0.0858,2.44668 -1.84575,1.84575 -3.47687,0.0858 z"
       id="path7317"
       inkscape:connector-curvature="0" />
    <path
       style="fill:none;stroke:#000000;stroke-width:2;stroke-linecap:butt;stroke-linejoin:miter;stroke-opacity:1"
       d="m 26.230618,137.37701 -7.687318,-0.44918 -0.90141,-1.63112 0.128773,-2.27499 10.430606,-0.30047"
       id="path7319"
       inkscape:connector-curvature="0"
       sodipodi:nodetypes="ccccc" />
    <path
       sodipodi:type="arc"
       style="fill:#1a1a1a;stroke:#000000;stroke-width:1.90875828;stroke-miterlimit:4;stroke-dasharray:none;stroke-dashoffset:0"
       id="path7321"
       sodipodi:cx="36.756355"
       sodipodi:cy="139.79977"
       sodipodi:rx="7.072032"
       sodipodi:ry="7.1327362"
       d="m 43.828387,139.79977 a 7.072032,7.1327362 0 1 1 -14.144064,0 7.072032,7.1327362 0 1 1 14.144064,0 z"
       transform="matrix(1.0478016,0,0,1.0478016,-2.9403308,-7.0475021)" />
    <path
       sodipodi:type="arc"
       style="fill:#808080;stroke:#000000;stroke-width:3.15959239;stroke-miterlimit:4;stroke-dasharray:none;stroke-dashoffset:0;display:inline"
       id="path7321-7"
       sodipodi:cx="36.756355"
       sodipodi:cy="139.79977"
       sodipodi:rx="7.072032"
       sodipodi:ry="7.1327362"
       d="m 43.828387,139.79977 a 7.072032,7.1327362 0 1 1 -14.144064,0 7.072032,7.1327362 0 1 1 14.144064,0 z"
       transform="matrix(0.63299305,0,0,0.63299305,12.315739,50.948347)" />
    <path
       sodipodi:type="arc"
       style="fill:#1a1a1a;stroke:#000000;stroke-width:1.90875828;stroke-miterlimit:4;stroke-dasharray:none;stroke-dashoffset:0;display:inline"
       id="path7321-1"
       sodipodi:cx="36.756355"
       sodipodi:cy="139.79977"
       sodipodi:rx="7.072032"
       sodipodi:ry="7.1327362"
       d="m 43.828387,139.79977 a 7.072032,7.1327362 0 1 1 -14.144064,0 7.072032,7.1327362 0 1 1 14.144064,0 z"
       transform="matrix(1.0478016,0,0,1.0478016,65.047888,-6.2880782)" />
    <path
       sodipodi:type="arc"
       style="fill:#808080;stroke:#000000;stroke-width:3.15959239;stroke-miterlimit:4;stroke-dasharray:none;stroke-dashoffset:0;display:inline"
       id="path7321-7-1"
       sodipodi:cx="36.756355"
       sodipodi:cy="139.79977"
       sodipodi:rx="7.072032"
       sodipodi:ry="7.1327362"
       d="m 43.828387,139.79977 a 7.072032,7.1327362 0 1 1 -14.144064,0 7.072032,7.1327362 0 1 1 14.144064,0 z"
       transform="matrix(0.63299305,0,0,0.63299305,80.303957,51.707766)" />
    <path
       style="fill:none;stroke:#000000;stroke-width:2;stroke-linecap:butt;stroke-linejoin:miter;stroke-opacity:1"
       d="m 45.163877,140.07294 0.485633,1.5176 47.531339,0.42493 0.364225,-1.76042"
       id="path8130"
       inkscape:connector-curvature="0" />
    <path
       style="fill:#ffff00;stroke:#000000;stroke-width:2;stroke-linecap:butt;stroke-linejoin:miter;stroke-opacity:1"
       d="m 77.504255,111.10393 2.949033,-0.005 c 0.742086,-10e-4 1.503219,-1.45677 1.503335,-2.35083 1.26e-4,-0.96848 -0.706008,-2.30813 -1.503335,-2.30813 l -2.753032,0 c -1.052163,0 -1.653475,1.38543 -1.672458,2.35952 -0.01931,0.9906 0.915386,2.30488 1.476457,2.30401 z"
       id="path8132"
       inkscape:connector-curvature="0"
       sodipodi:nodetypes="cssssssc" />
  </g>
  <g
     inkscape:groupmode="layer"
     id="layer5"
     inkscape:label="雨"
     style="opacity:0.5;display:inline"
     sodipodi:insensitive="true">
    <path
       transform="translate(84.715796,27.711696)"
       inkscape:connector-curvature="0"
       id="path3384"
       d="m 74.789869,-3.459818 0,84.608426"
       style="fill:none;stroke:#0000ff;stroke-width:2;stroke-linecap:butt;stroke-linejoin:miter;stroke-opacity:1;display:inline" />
    <path
       transform="translate(84.715796,27.711696)"
       inkscape:connector-curvature="0"
       id="path3384-1"
       d="m 99.052582,27.593538 0,66.672284"
       style="fill:none;stroke:#0000ff;stroke-width:2;stroke-linecap:butt;stroke-linejoin:miter;stroke-opacity:1;display:inline" />
    <path
       transform="translate(84.715796,27.711696)"
       inkscape:connector-curvature="0"
       id="path3384-1-7"
       d="m 165.6195,-4.9512405 0,101.9000555"
       style="fill:none;stroke:#0000ff;stroke-width:2;stroke-linecap:butt;stroke-linejoin:miter;stroke-opacity:1;display:inline" />
    <path
       transform="translate(84.715796,27.711696)"
       inkscape:connector-curvature="0"
       id="path3384-1-4"
       d="m 209.16796,26.57857 0,41.951038"
       style="fill:none;stroke:#0000ff;stroke-width:2;stroke-linecap:butt;stroke-linejoin:miter;stroke-opacity:1;display:inline" />
    <path
       transform="translate(84.715796,27.711696)"
       inkscape:connector-curvature="0"
       id="path3384-1-0"
       d="m 237.78551,36.31604 0,175.5178"
       style="fill:none;stroke:#0000ff;stroke-width:2;stroke-linecap:butt;stroke-linejoin:miter;stroke-opacity:1;display:inline" />
    <path
       transform="translate(84.715796,27.711696)"
       inkscape:connector-curvature="0"
       id="path3384-1-9"
       d="m 39.951101,30.560766 0,117.350794"
       style="fill:none;stroke:#0000ff;stroke-width:2;stroke-linecap:butt;stroke-linejoin:miter;stroke-opacity:1;display:inline" />
    <path
       transform="translate(84.715796,27.711696)"
       inkscape:connector-curvature="0"
       id="path3384-1-48"
       d="m 188.01586,172.28572 0,81.50505"
       style="fill:none;stroke:#0000ff;stroke-width:2;stroke-linecap:butt;stroke-linejoin:miter;stroke-opacity:1;display:inline" />
  </g>
  <g
     inkscape:groupmode="layer"
     id="layer7"
     inkscape:label="枠面"
     style="display:inline"
     sodipodi:insensitive="true">
    <path
       style="fill:#ffffff;stroke:none;display:inline"
       d="m 0,0 0,320 370,0 0,-320 -10,10 0,300 -350,0 0,-300 350,0 10,-10 z"
       id="path21072"
       inkscape:connector-curvature="0"
       sodipodi:nodetypes="ccccccccccc" />
  </g>
</svg>
