<?xml version="1.0" encoding="UTF-8" standalone="no"?>
<!-- Created with Inkscape (http://www.inkscape.org/) -->

<svg
   xmlns:dc="http://purl.org/dc/elements/1.1/"
   xmlns:cc="http://creativecommons.org/ns#"
   xmlns:rdf="http://www.w3.org/1999/02/22-rdf-syntax-ns#"
   xmlns:svg="http://www.w3.org/2000/svg"
   xmlns="http://www.w3.org/2000/svg"
   xmlns:xlink="http://www.w3.org/1999/xlink"
   xmlns:sodipodi="http://sodipodi.sourceforge.net/DTD/sodipodi-0.dtd"
   xmlns:inkscape="http://www.inkscape.org/namespaces/inkscape"
   width="370"
   height="320"
   id="svg2"
   version="1.1"
   inkscape:version="0.48.4 r9939"
   sodipodi:docname="[04.娯楽]07.郷愁.svg"
   inkscape:export-filename="C:\Users\執安\Desktop\資料\臨時\描画3.png"
   inkscape:export-xdpi="90"
   inkscape:export-ydpi="90"
   enable-background="new">
  <defs
     id="defs4">
    <linearGradient
       id="linearGradient7002">
      <stop
         style="stop-color:#404000;stop-opacity:1;"
         offset="0"
         id="stop7004" />
      <stop
         style="stop-color:#808000;stop-opacity:0;"
         offset="1"
         id="stop7006" />
    </linearGradient>
    <inkscape:perspective
       sodipodi:type="inkscape:persp3d"
       inkscape:vp_x="363.49708 : 943.81603 : 1"
       inkscape:vp_y="0 : 1000 : 0"
       inkscape:vp_z="744.09448 : 526.18109 : 1"
       inkscape:persp3d-origin="372.04724 : 350.78739 : 1"
       id="perspective5056" />
    <linearGradient
       inkscape:collect="always"
       xlink:href="#linearGradient7002"
       id="linearGradient7008"
       x1="285.21472"
       y1="273.94971"
       x2="174.13503"
       y2="173.99188"
       gradientUnits="userSpaceOnUse" />
  </defs>
  <sodipodi:namedview
     id="base"
     pagecolor="#ffffff"
     bordercolor="#666666"
     borderopacity="1.0"
     inkscape:pageopacity="0.0"
     inkscape:pageshadow="2"
     inkscape:zoom="2.2164994"
     inkscape:cx="162.57068"
     inkscape:cy="70.585991"
     inkscape:document-units="px"
     inkscape:current-layer="layer14"
     showgrid="false"
     inkscape:window-width="1100"
     inkscape:window-height="694"
     inkscape:window-x="-2"
     inkscape:window-y="-2"
     inkscape:window-maximized="0"
     showguides="true"
     inkscape:guide-bbox="true"
     inkscape:snap-grids="false"
     inkscape:snap-to-guides="false"
     showborder="true"
     inkscape:showpageshadow="false"
     fit-margin-top="0"
     fit-margin-left="0"
     fit-margin-right="0"
     fit-margin-bottom="0"
     inkscape:snap-page="false" />
  <metadata
     id="metadata7">
    <rdf:RDF>
      <cc:Work
         rdf:about="">
        <dc:format>image/svg+xml</dc:format>
        <dc:type
           rdf:resource="http://purl.org/dc/dcmitype/StillImage" />
        <dc:title />
      </cc:Work>
    </rdf:RDF>
  </metadata>
  <g
     inkscape:groupmode="layer"
     id="layer2"
     inkscape:label="補助線"
     style="display:none"
     sodipodi:insensitive="true">
    <path
       style="fill:none;stroke:#0000ff;stroke-width:1px;stroke-linecap:butt;stroke-linejoin:miter;stroke-opacity:1"
       d="M 10,310 360,10"
       id="path3025"
       inkscape:connector-curvature="0"
       sodipodi:nodetypes="cc" />
    <path
       style="fill:none;stroke:#0000ff;stroke-width:1px;stroke-linecap:butt;stroke-linejoin:miter;stroke-opacity:1"
       d="M 10,10 360,310"
       id="path3027"
       inkscape:connector-curvature="0"
       sodipodi:nodetypes="cc" />
    <path
       style="fill:none;stroke:#ff0000;stroke-width:1px;stroke-linecap:butt;stroke-linejoin:miter;stroke-opacity:1;display:inline"
       d="m 10,0 0,320"
       id="path3006"
       inkscape:connector-curvature="0"
       sodipodi:nodetypes="cc" />
    <path
       style="fill:none;stroke:#ff0000;stroke-width:1px;stroke-linecap:butt;stroke-linejoin:miter;stroke-opacity:1;display:inline"
       d="m 360,0 0,320"
       id="path3010"
       inkscape:connector-curvature="0"
       sodipodi:nodetypes="cc" />
    <path
       style="fill:none;stroke:#ff0000;stroke-width:1px;stroke-linecap:butt;stroke-linejoin:miter;stroke-opacity:1;display:inline"
       d="M 0,9.9999681 370,10"
       id="path3016"
       inkscape:connector-curvature="0" />
    <path
       transform="translate(84.715796,27.711696)"
       style="fill:none;stroke:#ff0000;stroke-width:1px;stroke-linecap:butt;stroke-linejoin:miter;stroke-opacity:1;display:inline"
       d="m -84.715796,282.2883 369.999996,0"
       id="path3018"
       inkscape:connector-curvature="0"
       sodipodi:nodetypes="cc" />
  </g>
  <g
     inkscape:groupmode="layer"
     id="layer1"
     inkscape:label="室内"
     sodipodi:insensitive="true"
     style="display:inline">
    <path
       style="fill:url(#linearGradient7008);fill-opacity:1;stroke:none"
       d="M 291.15667,47.659574 32.680851,70.437137 26.738878,286.32882 287.19536,276.42553 z"
       id="path6232"
       inkscape:connector-curvature="0"
       sodipodi:nodetypes="ccccc" />
    <path
       style="fill:none;stroke:none"
       d="M 347.60542,48.649903 97.052224,312.07737 359.48936,314.05803 z"
       id="path7128"
       inkscape:connector-curvature="0" />
  </g>
  <g
     style="display:inline"
     inkscape:label="豚: 胴"
     id="g3163"
     inkscape:groupmode="layer"
     transform="translate(84.715796,27.711696)"
     sodipodi:insensitive="true">
    <path
       sodipodi:nodetypes="cccccc"
       inkscape:connector-curvature="0"
       id="path5925-4-2"
       d="m -10.198574,114.56908 c -17.399083,12.77733 -32.050465,39.88476 -32.897237,53.25791 -7.357991,14.73082 -12.965019,43.00569 0.807494,69.18602 l 202.305037,-2.21345 -12.11465,-97.41549 z"
       style="fill:#ffd5d5;stroke:none;display:inline" />
    <path
       sodipodi:nodetypes="cc"
       inkscape:connector-curvature="0"
       id="path5923"
       d="m -12.477502,132.42976 c -35.197497,20.26017 -48.83387,73.75744 -29.93483,104.53396"
       style="fill:none;stroke:#000000;stroke-width:2;stroke-linecap:butt;stroke-linejoin:miter;stroke-opacity:1;display:inline" />
    <path
       sodipodi:nodetypes="cc"
       inkscape:connector-curvature="0"
       id="path5925-4"
       d="m 41.628437,195.52907 c 5.17497,-23.49871 16.581672,-40.86871 33.096872,-53.46926"
       style="fill:none;stroke:#000000;stroke-width:2;stroke-linecap:butt;stroke-linejoin:miter;stroke-opacity:1;display:inline"
       transform="translate(-84.715796,-27.711696)" />
  </g>
  <g
     inkscape:groupmode="layer"
     id="layer14"
     inkscape:label="壁"
     style="display:inline"
     sodipodi:insensitive="true">
    <path
       sodipodi:nodetypes="ccccccc"
       inkscape:connector-curvature="0"
       id="path6496-4"
       d="m 272.07889,39.41334 0,218.13167 -261.626697,7.94977 4.516274,34.63133 288.862803,-4.6957 -2.77867,-257.565836 z"
       style="fill:#fefefe;fill-opacity:1;stroke:none;display:inline" />
    <path
       transform="translate(84.715796,27.711696)"
       sodipodi:nodetypes="ccc"
       inkscape:connector-curvature="0"
       id="path6496"
       d="m 187.31755,11.910033 0,218.131667 -261.6267,7.94977"
       style="fill:none;stroke:#000000;stroke-width:2;stroke-linecap:butt;stroke-linejoin:miter;stroke-opacity:1;display:inline" />
  </g>
  <g
     inkscape:groupmode="layer"
     id="layer12"
     inkscape:label="豚: 手"
     style="display:inline"
     sodipodi:insensitive="true">
    <path
       sodipodi:nodetypes="csscsccc"
       inkscape:connector-curvature="0"
       id="path5919-0"
       d="m 239.13987,161.62067 c 22.70776,28.12561 31.68345,88.2651 12.47601,97.89748 -11.6259,5.8303 -68.46161,3.23841 -75.84397,-1.18019 -1.19709,-0.7165 -1.9898,-4.31235 -1.31793,-5.93943 -4.69979,-3.44346 -15.20496,-5.32895 -15.62324,-12.95718 -0.5995,-10.93314 37.99808,-28.11647 63.22786,-30.06883 l 3.01659,-45.27581 z"
       style="fill:#ffd5d5;stroke:none;display:inline" />
    <path
       sodipodi:nodetypes="scsccs"
       inkscape:connector-curvature="0"
       id="path5919-0-8"
       d="m 158.87093,239.43277 c -0.93507,7.61491 11.69891,9.22898 15.5862,12.92244 0,0 -1.02749,4.67507 1.30839,5.99031 3.30495,1.86088 6.93406,2.6075 12.4336,3.24053 15.73512,-7.91776 3.22216,-39.85833 -17.93683,-35.19372 -4.24434,2.20649 -10.84934,8.62638 -11.39136,13.04044 z"
       style="fill:#ffaaaa;stroke:none;display:inline" />
    <path
       style="fill:#ff8080;stroke:none"
       d="m 160.625,244.5 c -0.82804,-9.81105 13.93626,-5.78054 15.5625,-0.25 0.56934,1.93621 -0.38408,5.08734 -1.66194,8.30178 -4.54166,-4.1875 -11.43109,-5.12741 -13.90056,-8.05178 z"
       id="path11742"
       inkscape:connector-curvature="0"
       sodipodi:nodetypes="cscc" />
    <path
       transform="translate(84.715796,27.711696)"
       sodipodi:nodetypes="csssccsc"
       inkscape:connector-curvature="0"
       id="path5919"
       d="m 154.46434,133.94905 c 25.05062,30.65128 30.29016,90.84379 12.41224,97.85183 -12.87196,5.04573 -67.1819,4.74152 -75.823887,-1.18257 -4.785408,-3.2804 1.823298,-9.54595 0.282453,-14.19676 -1.707894,-5.15503 -15.9346,-9.49292 -15.442832,0.37523 m 13.778859,7.89783 c -4.097858,-4.86718 -16.557191,-4.96559 -15.515963,-12.92488 1.72378,-13.17681 37.99808,-28.11647 63.22786,-30.06883"
       style="fill:none;stroke:#000000;stroke-width:2;stroke-linecap:butt;stroke-linejoin:miter;stroke-opacity:1;display:inline" />
    <path
       transform="translate(84.715796,27.711696)"
       sodipodi:nodetypes="cc"
       inkscape:connector-curvature="0"
       id="path5921"
       d="m 103.4848,233.8413 c 15.35865,-4.92911 3.92797,-40.96402 -17.975503,-35.14378"
       style="fill:none;stroke:#000000;stroke-width:2;stroke-linecap:butt;stroke-linejoin:miter;stroke-opacity:1;display:inline" />
  </g>
  <g
     inkscape:groupmode="layer"
     id="layer13"
     inkscape:label="豚: 首"
     style="display:inline"
     sodipodi:insensitive="true">
    <path
       sodipodi:nodetypes="ccsccsccc"
       inkscape:connector-curvature="0"
       id="path5927-8"
       d="m 233.57926,169.09364 c 12.67252,-14.11391 13.12325,-33.08239 6.56906,-47.55331 0.90464,-6.10502 0.24823,-17.91087 -7.16715,-28.763694 -5.81425,-8.50953 -16.96164,-17.859442 -23.18469,-18.564955 -14.5333,-12.237632 -44.04804,-19.239373 -65.85707,-8.94025 -20.74356,-5.24948 -49.908286,14.493126 -52.188657,29.323748 -0.506145,3.291764 -0.641278,6.341471 -0.232218,8.226311 -9.703692,13.17486 -17.71037,29.23074 -16.995162,42.15323 z"
       style="fill:#ffd5d5;stroke:none;display:inline" />
    <path
       transform="translate(84.715796,27.711696)"
       sodipodi:nodetypes="cc"
       inkscape:connector-curvature="0"
       id="path5907"
       d="m 148.86973,141.37651 c 14.18359,-16.67167 14.17055,-37.11647 1.36334,-57.379592"
       style="fill:none;stroke:#000000;stroke-width:2;stroke-linecap:butt;stroke-linejoin:miter;stroke-opacity:1;display:inline" />
    <path
       transform="translate(84.715796,27.711696)"
       sodipodi:nodetypes="cc"
       inkscape:connector-curvature="0"
       id="path5909"
       d="M 138.07377,59.667904 C 116.59953,32.116962 79.41446,24.876694 52.10358,41.229424"
       style="fill:none;stroke:#000000;stroke-width:2;stroke-linecap:butt;stroke-linejoin:miter;stroke-opacity:1;display:inline" />
    <path
       transform="translate(84.715796,27.711696)"
       sodipodi:nodetypes="cssc"
       inkscape:connector-curvature="0"
       id="path5911"
       d="M 59.280123,37.574817 C 36.267719,33.492055 10.447315,52.233521 7.0540652,66.84972 c -3.45177,14.868481 11.6162758,36.19436 22.4790408,35.8808 12.959359,-0.37408 22.709882,-29.945849 30.33258,-39.760966"
       style="fill:none;stroke:#000000;stroke-width:2;stroke-linecap:butt;stroke-linejoin:miter;stroke-opacity:1;display:inline" />
    <path
       inkscape:connector-curvature="0"
       id="path5913"
       d="m 220.67156,98.594381 c -1.24252,4.653319 -1.34595,8.086589 -2.50875,12.899999"
       style="fill:none;stroke:#000000;stroke-width:2;stroke-linecap:butt;stroke-linejoin:miter;stroke-opacity:1;display:inline"
       sodipodi:nodetypes="cc" />
    <path
       inkscape:connector-curvature="0"
       id="path5915"
       d="m 184.23396,96.145027 c 4.7667,3.839133 9.95931,9.303573 13.50716,14.555653"
       style="fill:none;stroke:#000000;stroke-width:2;stroke-linecap:butt;stroke-linejoin:miter;stroke-opacity:1;display:inline"
       sodipodi:nodetypes="cc" />
    <path
       sodipodi:nodetypes="ssssss"
       inkscape:connector-curvature="0"
       id="path5917"
       d="m 215.52902,113.63625 c 10.39345,1.5644 17.04043,13.33876 19.25957,21.92048 3.75965,14.53918 -2.42403,27.05815 -11.50329,23.47422 -8.10868,-3.20082 -16.69527,-3.75088 -30.39922,-2.10402 -17.93484,2.15529 -20.92304,-12.92637 -12.35804,-24.66987 6.81067,-9.33813 24.35017,-20.22395 35.00098,-18.62081 z"
       style="fill:#ffaaaa;stroke:#000000;stroke-width:2;stroke-linecap:butt;stroke-linejoin:miter;stroke-opacity:1;display:inline" />
    <path
       transform="translate(84.715796,27.711696)"
       sodipodi:nodetypes="cc"
       inkscape:connector-curvature="0"
       id="path5925"
       d="M -10.186156,117.25759 C -10.901364,104.3351 -3.7752618,88.643741 6.7746082,75.080831"
       style="fill:none;stroke:#000000;stroke-width:2;stroke-linecap:butt;stroke-linejoin:miter;stroke-opacity:1;display:inline" />
    <path
       transform="translate(84.715796,27.711696)"
       sodipodi:nodetypes="csc"
       inkscape:connector-curvature="0"
       id="path5927"
       d="m 125.09402,46.800381 c 10.06127,2.974375 17.64745,9.562296 23.17762,18.259122 6.58389,10.353928 8.07034,20.031289 7.15485,28.699402"
       style="fill:none;stroke:#000000;stroke-width:2;stroke-linecap:butt;stroke-linejoin:miter;stroke-opacity:1;display:inline" />
    <path
       sodipodi:nodetypes="sss"
       inkscape:connector-curvature="0"
       id="path5929"
       d="m 220.60047,127.25754 c 2.13912,-0.0662 7.05971,21.96131 2.50606,22.02285 -4.49071,0.0607 -5.35248,-21.93471 -2.50606,-22.02285 z"
       style="fill:#000000;stroke:#000000;stroke-width:2;stroke-linecap:butt;stroke-linejoin:miter;stroke-opacity:1;display:inline" />
    <path
       sodipodi:nodetypes="sss"
       inkscape:connector-curvature="0"
       id="path5931"
       d="m 208.21313,125.71243 c 2.43368,0.85214 -3.63256,22.54009 -8.00891,21.00952 -5.04914,-1.76587 4.49849,-22.2387 8.00891,-21.00952 z"
       style="fill:#000000;stroke:#000000;stroke-width:2;stroke-linecap:butt;stroke-linejoin:miter;stroke-opacity:1;display:inline" />
  </g>
  <g
     inkscape:groupmode="layer"
     id="layer3"
     inkscape:label="植物"
     style="display:inline"
     sodipodi:insensitive="true">
    <path
       style="fill:#008000;stroke:#000000;stroke-width:2;stroke-linecap:butt;stroke-linejoin:miter;stroke-opacity:1;display:inline"
       d="m 363.78934,33.765364 c -0.65474,1.110512 -10.91906,22.361163 -16.26257,35.390655 -9.99546,24.37268 -17.34539,49.146741 -15.59963,74.376391 2.20477,31.86324 7.99136,61.22385 -0.70027,87.1834 -12.65264,37.79002 -44.34271,44.79869 -73.80514,55.63014 -14.51282,5.33543 -38.39807,15.02857 -45.41891,26.23148 l 0.98304,2.43849 c 8.08103,-12.2246 31.45908,-21.5319 45.47045,-26.6466 30.54287,-11.14935 62.98931,-19.48827 74.76517,-56.84705 8.42138,-26.71673 3.44077,-56.20794 0.80282,-88.19861 -2.27582,-27.59914 5.80493,-49.63544 15.3409,-72.905657 5.43682,-13.26724 15.80033,-34.40603 16.56014,-35.580998 z"
       id="path7070"
       inkscape:connector-curvature="0"
       sodipodi:nodetypes="cssssccsssscc" />
    <path
       style="fill:#2ca02c;stroke:#000000;stroke-width:2;stroke-linecap:butt;stroke-linejoin:miter;stroke-opacity:1;display:inline"
       d="m 314.59492,205.2923 c 1.69845,-10.14392 -10.08975,-8.86415 -17.54756,-13.25167 2.64424,6.4075 -2.34014,10.47911 3.33263,13.07425 -10.60696,3.8371 -7.01204,11.74478 -10.71952,16.08745 6.8792,-1.16865 11.48729,4.71972 18.21043,-4.14059 -1.45052,7.08511 4.14671,5.93747 4.30482,13.80702 2.73917,-10.28483 15.68969,-17.45722 2.96151,-24.08816 2.92529,-5.23652 13.08652,-5.96978 20.45159,-2.40211 l 0.0615,-1.46523 c -8.82269,-1.63161 -16.9145,-3.39596 -21.0554,2.37904 z"
       id="path6229-4"
       inkscape:connector-curvature="0"
       sodipodi:nodetypes="cccccccccc" />
    <path
       style="fill:#2ca02c;stroke:#000000;stroke-width:2;stroke-linecap:butt;stroke-linejoin:miter;stroke-opacity:1;display:inline"
       d="m 314.18012,99.446739 c 5.0083,4.792191 2.09471,10.530921 8.33238,10.611981 -8.15129,7.79663 -1.66711,13.57679 -3.30318,19.04739 5.82001,-3.84923 12.41481,-0.32559 14.98344,-11.14723 1.53672,7.06692 6.19262,3.75502 9.51778,10.88932 -1.6512,-10.51448 5.3059,-20.80512 -8.96458,-22.43385 1.32719,-14.193524 -11.97101,-5.96851 -20.56584,-6.967611 z"
       id="path6229"
       inkscape:connector-curvature="0"
       sodipodi:nodetypes="ccccccc" />
    <path
       style="fill:#2ca02c;stroke:#000000;stroke-width:2;stroke-linecap:butt;stroke-linejoin:miter;stroke-opacity:1;display:inline"
       d="m 326.50573,159.86053 c 4.46235,-9.26667 -2.47712,-9.67029 -9.63933,-16.49028 0.75066,6.89091 -5.34716,8.18397 -1.84969,13.30977 -7.94773,-1.6829 -10.88691,3.19341 -15.65918,6.32864 6.93199,0.79794 9.01308,12.64038 17.94213,6.0088 -3.37049,6.39865 1.27421,4.05786 -0.77053,11.65878 5.50103,-9.1115 18.55232,-7.94358 10.45673,-19.61437 1.95127,-1.86652 3.84335,-3.02265 5.71247,-3.90339 l -0.45623,-1.04483 c -2.03784,0.93467 -4.0249,1.99629 -5.73637,3.74688 z"
       id="path6229-1"
       inkscape:connector-curvature="0"
       sodipodi:nodetypes="cccccccccc" />
    <path
       style="fill:#2ca02c;stroke:#000000;stroke-width:2;stroke-linecap:butt;stroke-linejoin:miter;stroke-opacity:1;display:inline"
       d="m 323.89102,202.41067 c 6.49225,-2.42874 8.38425,1.30419 12.48787,-3.35053 0.0839,9.97405 6.77278,6.91424 12.3509,12.62158 -0.44306,-7.78094 6.80523,-9.99802 -1.82558,-17.01335 7.03271,1.68636 4.48418,-3.10317 12.35463,-2.99834 -9.07348,-3.57633 -13.65043,-13.62484 -21.946,-4.12752 -9.06911,-2.93823 -8.58127,6.24387 -13.42182,14.86816 z"
       id="path6229-1-7"
       inkscape:connector-curvature="0"
       sodipodi:nodetypes="ccccccc" />
    <path
       style="fill:#2ca02c;stroke:#000000;stroke-width:2;stroke-linecap:butt;stroke-linejoin:miter;stroke-opacity:1;display:inline"
       d="m 302.31916,244.56916 c 7.82686,-6.67263 1.43515,-9.83658 -2.3597,-18.96942 -2.09839,6.60643 -8.1986,5.32471 -7.07113,11.42675 -6.58955,-4.75146 -11.24878,-1.47904 -16.88105,-0.54003 6.01812,3.53148 3.13547,15.20473 13.98298,12.74763 -5.66901,4.49057 -0.47451,4.22666 -5.41678,10.35275 8.71422,-6.11092 20.18007,0.23214 17.49195,-13.7149 6.6528,0.94406 13.69777,1.39792 17.6602,5.70495 l 1.08766,-0.97489 c -2.80202,-4.06248 -11.22807,-4.87199 -18.49413,-6.03284 z"
       id="path6229-1-0"
       inkscape:connector-curvature="0"
       sodipodi:nodetypes="cccccccccc" />
    <path
       style="fill:#2ca02c;stroke:#000000;stroke-width:2;stroke-linecap:butt;stroke-linejoin:miter;stroke-opacity:1;display:inline"
       d="m 296.07902,279.72611 c -8.99096,-6.74026 -9.84426,3.08656 -17.75743,9.01876 6.91999,0.40235 7.14189,4.58149 12.77667,1.98237 -3.95434,9.15707 3.40055,9.06165 6.19614,16.53653 2.73946,-7.29621 10.26544,-6.39471 5.20622,-16.29976 5.7512,4.38482 5.35581,-1.02613 12.51246,2.25065 -6.85402,-6.93834 -6.11613,-20.21303 -17.60897,-13.56432 -0.32026,-3.59097 -0.0308,-4.39153 0.6671,-7.02095 l -1.63086,0.88675 c -0.43377,1.95355 -0.81301,3.34098 -0.36133,6.20997 z"
       id="path6229-1-7-9"
       inkscape:connector-curvature="0"
       sodipodi:nodetypes="cccccccccc" />
    <path
       style="fill:#2ca02c;stroke:#000000;stroke-width:2;stroke-linecap:butt;stroke-linejoin:miter;stroke-opacity:1;display:inline"
       d="m 312.32693,266.63792 c 5.91687,-3.61092 10.75555,0.0477 13.90645,-7.57396 -1.01045,8.55332 4.80529,7.43677 11.0106,13.73885 1.77212,-9.30799 6.72073,-14.95461 -3.07947,-20.21407 7.22463,0.3281 3.11731,-1.79326 10.86598,-3.17641 -9.58555,-1.79874 -14.57699,-11.67762 -20.93005,-0.78474 -9.46077,-1.17294 -7.24794,7.40174 -10.37297,16.78489 z"
       id="path6229-1-7-4"
       inkscape:connector-curvature="0"
       sodipodi:nodetypes="cccccccc" />
    <path
       style="fill:#2ca02c;stroke:#000000;stroke-width:2;stroke-linecap:butt;stroke-linejoin:miter;stroke-opacity:1;display:inline"
       d="m 253.14417,287.81994 c -0.45663,-10.27499 -11.71793,-6.5625 -19.92736,-9.29645 3.92361,5.71431 -0.10095,10.73675 5.98859,12.09046 -9.57222,5.96688 -4.40569,12.94984 -7.1249,17.97081 6.48366,-2.57901 12.21948,2.21763 16.9448,-7.85099 0.0605,7.23182 5.29486,4.94098 7.09234,12.60413 0.53174,-10.63005 11.69961,-20.34797 -2.13241,-24.17566 1.76765,-5.73183 8.82852,-6.83712 12.75289,-6.12352 l 1.67303,-0.70303 c -5.91655,-1.81975 -12.04272,-1.04509 -15.26698,5.48425 z"
       id="path6229-4-8"
       inkscape:connector-curvature="0"
       sodipodi:nodetypes="cccccccccc" />
    <path
       style="fill:#deaa87;stroke:#000000;stroke-width:2;stroke-linecap:butt;stroke-linejoin:miter;stroke-opacity:1;display:inline"
       d="m 132.88944,177.3875 c -17.33076,-9.82113 -41.655397,-0.53957 -58.119614,24.76337 14.09982,-0.0267 24.394056,1.31999 43.181854,-7.2037 -7.08329,-3.35582 6.34155,-10.6399 5.46805,-4.80403 4.25425,-2.30027 6.14477,-7.41272 9.54693,-10.91744 l 16.20828,-3.46873 1.08044,-1.83047 z"
       id="path7108"
       inkscape:connector-curvature="0"
       sodipodi:nodetypes="cccccccc" />
    <path
       style="fill:none;stroke:#000000;stroke-width:2;stroke-linecap:butt;stroke-linejoin:miter;stroke-opacity:1;display:inline"
       d="M 78.731141,200.17021 C 95.860726,189.33877 112.93045,180.18358 129.73308,178.50677"
       id="path7112"
       inkscape:connector-curvature="0"
       sodipodi:nodetypes="cc" />
    <path
       style="fill:none;stroke:#000000;stroke-width:2;stroke-linecap:butt;stroke-linejoin:miter;stroke-opacity:1;display:inline"
       d="m 90.840786,192.88091 c -1.136443,-0.80926 -2.201239,-1.57546 -3.815641,-1.74745"
       id="path7114"
       inkscape:connector-curvature="0"
       sodipodi:nodetypes="cc" />
    <path
       style="fill:none;stroke:#000000;stroke-width:2;stroke-linecap:butt;stroke-linejoin:miter;stroke-opacity:1;display:inline"
       d="m 100.72788,187.42596 c -1.260563,-1.41956 -2.825152,-2.23107 -4.580273,-2.66151"
       id="path7118"
       inkscape:connector-curvature="0"
       sodipodi:nodetypes="cc" />
    <path
       style="fill:none;stroke:#000000;stroke-width:2;stroke-linecap:butt;stroke-linejoin:miter;stroke-opacity:1;display:inline"
       d="m 113.63294,182.07912 c -1.96593,-1.229 -3.88295,-2.70259 -6.00386,-3.15667"
       id="path7120"
       inkscape:connector-curvature="0"
       sodipodi:nodetypes="cc" />
    <path
       style="fill:none;stroke:#000000;stroke-width:2;stroke-linecap:butt;stroke-linejoin:miter;stroke-opacity:1;display:inline"
       d="m 90.790154,192.78587 c -1.346019,1.68934 -2.644325,3.81831 -3.33174,5.83695"
       id="path7122"
       inkscape:connector-curvature="0"
       sodipodi:nodetypes="cc" />
    <path
       style="fill:none;stroke:#000000;stroke-width:2;stroke-linecap:butt;stroke-linejoin:miter;stroke-opacity:1;display:inline"
       d="m 100.66598,187.54975 c -2.144151,2.82656 -3.749574,5.65313 -4.085104,8.47969"
       id="path7124"
       inkscape:connector-curvature="0"
       sodipodi:nodetypes="cc" />
    <path
       style="fill:none;stroke:#000000;stroke-width:2;stroke-linecap:butt;stroke-linejoin:miter;stroke-opacity:1;display:inline"
       d="m 113.38536,182.14101 c -2.06163,3.15294 -4.06842,6.32692 -4.70406,10.02708"
       id="path7126"
       inkscape:connector-curvature="0"
       sodipodi:nodetypes="cc" />
  </g>
  <g
     inkscape:groupmode="layer"
     id="layer7"
     inkscape:label="枠面"
     style="display:inline"
     sodipodi:insensitive="true">
    <path
       style="fill:#ffffff;stroke:none;display:inline"
       d="m 0,0 0,320 370,0 0,-320 -10,10 0,300 -350,0 0,-300 350,0 10,-10 z"
       id="path21072"
       inkscape:connector-curvature="0"
       sodipodi:nodetypes="ccccccccccc" />
  </g>
</svg>
