<?xml version="1.0" encoding="UTF-8" standalone="no"?>
<!-- Created with Inkscape (http://www.inkscape.org/) -->

<svg
   xmlns:dc="http://purl.org/dc/elements/1.1/"
   xmlns:cc="http://creativecommons.org/ns#"
   xmlns:rdf="http://www.w3.org/1999/02/22-rdf-syntax-ns#"
   xmlns:svg="http://www.w3.org/2000/svg"
   xmlns="http://www.w3.org/2000/svg"
   xmlns:xlink="http://www.w3.org/1999/xlink"
   xmlns:sodipodi="http://sodipodi.sourceforge.net/DTD/sodipodi-0.dtd"
   xmlns:inkscape="http://www.inkscape.org/namespaces/inkscape"
   width="370"
   height="320"
   id="svg2"
   version="1.1"
   inkscape:version="0.48.4 r9939"
   sodipodi:docname="[04.娯楽]07.郷愁.svg"
   inkscape:export-filename="C:\Users\執安\Desktop\資料\臨時\TAKEDA\[04.娯楽]07.郷愁.png"
   inkscape:export-xdpi="90"
   inkscape:export-ydpi="90"
   enable-background="new">
  <defs
     id="defs4">
    <linearGradient
       id="linearGradient7002">
      <stop
         style="stop-color:#404000;stop-opacity:1;"
         offset="0"
         id="stop7004" />
      <stop
         style="stop-color:#808000;stop-opacity:0;"
         offset="1"
         id="stop7006" />
    </linearGradient>
    <inkscape:perspective
       sodipodi:type="inkscape:persp3d"
       inkscape:vp_x="363.49708 : 943.81603 : 1"
       inkscape:vp_y="0 : 1000 : 0"
       inkscape:vp_z="744.09448 : 526.18109 : 1"
       inkscape:persp3d-origin="372.04724 : 350.78739 : 1"
       id="perspective5056" />
    <linearGradient
       inkscape:collect="always"
       xlink:href="#linearGradient7002"
       id="linearGradient7008"
       x1="285.21472"
       y1="273.94971"
       x2="174.13503"
       y2="173.99188"
       gradientUnits="userSpaceOnUse" />
  </defs>
  <sodipodi:namedview
     id="base"
     pagecolor="#ffffff"
     bordercolor="#666666"
     borderopacity="1.0"
     inkscape:pageopacity="0.0"
     inkscape:pageshadow="2"
     inkscape:zoom="2"
     inkscape:cx="185.56068"
     inkscape:cy="153.26448"
     inkscape:document-units="px"
     inkscape:current-layer="layer13"
     showgrid="false"
     inkscape:window-width="1100"
     inkscape:window-height="694"
     inkscape:window-x="-2"
     inkscape:window-y="-2"
     inkscape:window-maximized="0"
     showguides="true"
     inkscape:guide-bbox="true"
     inkscape:snap-grids="false"
     inkscape:snap-to-guides="false"
     showborder="true"
     inkscape:showpageshadow="false"
     fit-margin-top="0"
     fit-margin-left="0"
     fit-margin-right="0"
     fit-margin-bottom="0"
     inkscape:snap-page="false" />
  <metadata
     id="metadata7">
    <rdf:RDF>
      <cc:Work
         rdf:about="">
        <dc:format>image/svg+xml</dc:format>
        <dc:type
           rdf:resource="http://purl.org/dc/dcmitype/StillImage" />
        <dc:title></dc:title>
      </cc:Work>
    </rdf:RDF>
  </metadata>
  <g
     inkscape:groupmode="layer"
     id="layer2"
     inkscape:label="補助線"
     style="display:none"
     sodipodi:insensitive="true">
    <path
       style="fill:none;stroke:#0000ff;stroke-width:1px;stroke-linecap:butt;stroke-linejoin:miter;stroke-opacity:1"
       d="M 10,310 360,10"
       id="path3025"
       inkscape:connector-curvature="0"
       sodipodi:nodetypes="cc" />
    <path
       style="fill:none;stroke:#0000ff;stroke-width:1px;stroke-linecap:butt;stroke-linejoin:miter;stroke-opacity:1"
       d="M 10,10 360,310"
       id="path3027"
       inkscape:connector-curvature="0"
       sodipodi:nodetypes="cc" />
    <path
       style="fill:none;stroke:#ff0000;stroke-width:1px;stroke-linecap:butt;stroke-linejoin:miter;stroke-opacity:1;display:inline"
       d="m 10,0 0,320"
       id="path3006"
       inkscape:connector-curvature="0"
       sodipodi:nodetypes="cc" />
    <path
       style="fill:none;stroke:#ff0000;stroke-width:1px;stroke-linecap:butt;stroke-linejoin:miter;stroke-opacity:1;display:inline"
       d="m 360,0 0,320"
       id="path3010"
       inkscape:connector-curvature="0"
       sodipodi:nodetypes="cc" />
    <path
       style="fill:none;stroke:#ff0000;stroke-width:1px;stroke-linecap:butt;stroke-linejoin:miter;stroke-opacity:1;display:inline"
       d="M 0,9.9999681 370,10"
       id="path3016"
       inkscape:connector-curvature="0" />
    <path
       transform="translate(84.715796,27.711696)"
       style="fill:none;stroke:#ff0000;stroke-width:1px;stroke-linecap:butt;stroke-linejoin:miter;stroke-opacity:1;display:inline"
       d="m -84.715796,282.2883 369.999996,0"
       id="path3018"
       inkscape:connector-curvature="0"
       sodipodi:nodetypes="cc" />
  </g>
  <g
     inkscape:groupmode="layer"
     id="layer1"
     inkscape:label="室内"
     sodipodi:insensitive="true"
     style="display:inline">
    <path
       style="fill:url(#linearGradient7008);fill-opacity:1;stroke:none"
       d="M 291.15667,47.659574 32.680851,70.437137 26.738878,286.32882 287.19536,276.42553 z"
       id="path6232"
       inkscape:connector-curvature="0"
       sodipodi:nodetypes="ccccc" />
    <path
       style="fill:none;stroke:none"
       d="M 347.60542,48.649903 97.052224,312.07737 359.48936,314.05803 z"
       id="path7128"
       inkscape:connector-curvature="0" />
  </g>
  <g
     style="display:inline"
     inkscape:label="豚: 胴"
     id="g3163"
     inkscape:groupmode="layer"
     transform="translate(84.715796,27.711696)"
     sodipodi:insensitive="true">
    <path
       sodipodi:nodetypes="cccccc"
       inkscape:connector-curvature="0"
       id="path5925-4"
       d="m 41.628437,195.52907 c 0.17497,-21.49871 13.081672,-41.36871 32.596872,-56.46926 L 233.87955,166.23494 211.2046,277.06138 42.52804,271.98161 z"
       style="fill:#ffd5d5;stroke:#000000;stroke-width:2;stroke-linecap:butt;stroke-linejoin:miter;stroke-opacity:1;display:inline"
       transform="translate(-84.715796,-27.711696)" />
    <path
       sodipodi:nodetypes="cc"
       inkscape:connector-curvature="0"
       id="path5923"
       d="m -12.477502,132.42976 c -35.197497,20.26017 -48.83387,73.75744 -29.93483,104.53396"
       style="fill:#ffd5d5;stroke:#000000;stroke-width:2;stroke-linecap:butt;stroke-linejoin:miter;stroke-opacity:1;display:inline" />
  </g>
  <g
     inkscape:groupmode="layer"
     id="layer14"
     inkscape:label="壁"
     style="display:inline"
     sodipodi:insensitive="true">
    <path
       sodipodi:nodetypes="ccccccc"
       inkscape:connector-curvature="0"
       id="path6496-4"
       d="m 272.07889,39.41334 0,218.13167 -261.626697,7.94977 4.516274,34.63133 288.862803,-4.6957 -2.77867,-257.565836 z"
       style="fill:#fefefe;fill-opacity:1;stroke:none;display:inline" />
    <path
       transform="translate(84.715796,27.711696)"
       sodipodi:nodetypes="ccc"
       inkscape:connector-curvature="0"
       id="path6496"
       d="m 187.31755,11.910033 0,218.131667 -261.6267,7.94977"
       style="fill:none;stroke:#000000;stroke-width:2;stroke-linecap:butt;stroke-linejoin:miter;stroke-opacity:1;display:inline" />
  </g>
  <g
     inkscape:groupmode="layer"
     id="layer12"
     inkscape:label="豚: 手"
     style="display:inline"
     sodipodi:insensitive="true">
    <path
       sodipodi:nodetypes="csscsccc"
       inkscape:connector-curvature="0"
       id="path5919-0"
       d="m 239.13987,161.62067 c 22.70776,28.12561 28.53699,87.71294 7.58011,98.10208 -14.76633,7.32024 -63.56571,3.03381 -70.94807,-1.38479 -1.19709,-0.7165 -1.9898,-4.31235 -1.31793,-5.93943 -4.69979,-3.44346 -15.20496,-5.32895 -15.62324,-12.95718 -0.5995,-10.93314 37.99808,-28.11647 63.22786,-30.06883 l 3.01659,-45.27581 z"
       style="fill:#ffd5d5;stroke:none;display:inline" />
    <path
       sodipodi:nodetypes="scsccs"
       inkscape:connector-curvature="0"
       id="path5919-0-8"
       d="m 158.87093,239.43277 c -0.93507,7.61491 11.69891,9.22898 15.5862,12.92244 0,0 -1.02749,4.67507 1.30839,5.99031 3.30495,1.86088 6.85203,2.88875 12.35157,3.52178 15.73512,-7.91776 3.30419,-40.13958 -17.8548,-35.47497 -4.24434,2.20649 -10.84934,8.62638 -11.39136,13.04044 z"
       style="fill:#ffaaaa;stroke:none;display:inline" />
    <path
       style="fill:#ff8080;stroke:none"
       d="m 160.625,244.5 c -0.82804,-9.81105 13.93626,-5.78054 15.5625,-0.25 0.56934,1.93621 -0.38408,5.08734 -1.66194,8.30178 -4.54166,-4.1875 -11.43109,-5.12741 -13.90056,-8.05178 z"
       id="path11742"
       inkscape:connector-curvature="0"
       sodipodi:nodetypes="cscc" />
    <path
       transform="translate(84.715796,27.711696)"
       sodipodi:nodetypes="csssccsc"
       inkscape:connector-curvature="0"
       id="path5919"
       d="m 154.46434,133.94905 c 25.05062,30.65128 27.44858,88.6503 7.53803,98.06375 -13.49141,6.37857 -62.30769,4.5296 -70.949677,-1.39445 -4.785408,-3.2804 1.823298,-9.54595 0.282453,-14.19676 -1.707894,-5.15503 -15.9346,-9.49292 -15.442832,0.37523 m 13.778859,7.89783 c -4.097858,-4.86718 -16.557191,-4.96559 -15.515963,-12.92488 1.72378,-13.17681 37.99808,-28.11647 63.22786,-30.06883"
       style="fill:none;stroke:#000000;stroke-width:2;stroke-linecap:butt;stroke-linejoin:miter;stroke-opacity:1;display:inline" />
    <path
       transform="translate(84.715796,27.711696)"
       sodipodi:nodetypes="cc"
       inkscape:connector-curvature="0"
       id="path5921"
       d="m 103.40277,234.1538 c 15.35865,-4.92911 4.01,-41.27652 -17.893473,-35.45628"
       style="fill:none;stroke:#000000;stroke-width:2;stroke-linecap:butt;stroke-linejoin:miter;stroke-opacity:1;display:inline" />
  </g>
  <g
     inkscape:groupmode="layer"
     id="layer13"
     inkscape:label="豚: 首"
     style="display:inline"
     sodipodi:insensitive="true">
    <path
       sodipodi:nodetypes="cccccc"
       inkscape:connector-curvature="0"
       id="path5927"
       d="M 67.294396,147.42588 90.462063,101.18925 140.39707,65.604903 211.319,76.787911 c 22.51592,8.770795 31.19197,27.306269 27.45432,43.296029 l -3.898,48.28006"
       style="fill:#ffd5d5;stroke:#000000;stroke-width:2;stroke-linecap:butt;stroke-linejoin:miter;stroke-opacity:1;display:inline" />
    <path
       sodipodi:nodetypes="cc"
       inkscape:connector-curvature="0"
       id="path5907"
       d="m 233.27143,172.05837 c 13.91179,-18.8605 14.76886,-39.85456 1.61758,-60.66206"
       style="fill:#ffd5d5;stroke:#000000;stroke-width:2;stroke-linecap:butt;stroke-linejoin:miter;stroke-opacity:1;display:inline" />
    <path
       inkscape:connector-curvature="0"
       id="path5913"
       d="m 221.24154,99.978431 -1.03737,8.322499"
       style="fill:none;stroke:#000000;stroke-width:2;stroke-linecap:butt;stroke-linejoin:miter;stroke-opacity:1;display:inline"
       sodipodi:nodetypes="cc" />
    <path
       inkscape:connector-curvature="0"
       id="path5915"
       d="m 187.82583,99.002045 11.40799,10.945895"
       style="fill:none;stroke:#000000;stroke-width:2;stroke-linecap:butt;stroke-linejoin:miter;stroke-opacity:1;display:inline"
       sodipodi:nodetypes="cc" />
    <path
       sodipodi:nodetypes="ssssss"
       inkscape:connector-curvature="0"
       id="path5917"
       d="m 219.03838,113.88564 c 10.76112,0.82779 15.52989,15.22226 15.46843,25.89469 -0.062,10.77145 -2.48675,21.78833 -12.45199,20.71152 -10.48081,-1.13253 -22.73904,-0.97987 -35.76782,-0.28987 -11.86564,0.62841 -11.51339,-15.68492 -1.9589,-27.45472 7.21634,-8.88952 21.3113,-19.89233 34.71028,-18.86162 z"
       style="fill:#ffaaaa;stroke:#000000;stroke-width:2;stroke-linecap:butt;stroke-linejoin:miter;stroke-opacity:1;display:inline" />
    <path
       sodipodi:nodetypes="cc"
       inkscape:connector-curvature="0"
       id="path5925"
       d="M 67.331007,149.90286 C 66.363504,134.76479 75.286449,110.65161 96.146821,93.970639"
       style="fill:#ffd5d5;stroke:#000000;stroke-width:2;stroke-linecap:butt;stroke-linejoin:miter;stroke-opacity:1;display:inline" />
    <path
       sodipodi:nodetypes="sss"
       inkscape:connector-curvature="0"
       id="path5929"
       d="m 221.47629,126.3341 c 1.96917,0.9757 5.09509,18.85826 -1.42742,24.46104 -3.49832,3.00503 -1.49547,-25.9093 1.42742,-24.46104 z"
       style="fill:#000000;stroke:#000000;stroke-width:2;stroke-linecap:butt;stroke-linejoin:miter;stroke-opacity:1;display:inline" />
    <path
       sodipodi:nodetypes="sss"
       inkscape:connector-curvature="0"
       id="path5931"
       d="m 210.29493,125.9785 c 2.64778,0.0151 -10.18424,26.94629 -12.53264,22.80498 -3.64602,-6.42964 7.08138,-22.83616 12.53264,-22.80498 z"
       style="fill:#000000;stroke:#000000;stroke-width:2;stroke-linecap:butt;stroke-linejoin:miter;stroke-opacity:1;display:inline" />
    <path
       sodipodi:nodetypes="csc"
       inkscape:connector-curvature="0"
       id="path5911"
       d="m 141.27493,65.467968 c -60.24292,1.11734 -61.046028,50.408092 -33.62374,67.213912 11.351,6.95649 25.16653,-26.4418 32.99402,-36.520609"
       style="fill:#ffd5d5;stroke:#000000;stroke-width:2;stroke-linecap:butt;stroke-linejoin:miter;stroke-opacity:1;display:inline" />
    <path
       sodipodi:nodetypes="cc"
       inkscape:connector-curvature="0"
       id="path5909"
       d="M 222.18543,88.154602 C 202.28855,59.555729 158.56489,51.197683 132.05906,68.60525"
       style="fill:#ffd5d5;stroke:#000000;stroke-width:2;stroke-linecap:butt;stroke-linejoin:miter;stroke-opacity:1;display:inline" />
  </g>
  <g
     inkscape:groupmode="layer"
     id="layer3"
     inkscape:label="植物"
     style="display:inline"
     sodipodi:insensitive="true">
    <path
       style="fill:#008000;stroke:#000000;stroke-width:2;stroke-linecap:butt;stroke-linejoin:miter;stroke-opacity:1;display:inline"
       d="m 363.78934,33.765364 c -0.65474,1.110512 -10.91906,22.361163 -16.26257,35.390655 -9.99546,24.37268 -17.34539,49.146741 -15.59963,74.376391 2.20477,31.86324 7.99136,61.22385 -0.70027,87.1834 -12.65264,37.79002 -44.34271,44.79869 -73.80514,55.63014 -14.51282,5.33543 -38.39807,15.02857 -45.41891,26.23148 l 0.98304,2.43849 c 8.08103,-12.2246 31.45908,-21.5319 45.47045,-26.6466 30.54287,-11.14935 62.98931,-19.48827 74.76517,-56.84705 8.42138,-26.71673 3.44077,-56.20794 0.80282,-88.19861 -2.27582,-27.59914 5.80493,-49.63544 15.3409,-72.905657 5.43682,-13.26724 15.80033,-34.40603 16.56014,-35.580998 z"
       id="path7070"
       inkscape:connector-curvature="0"
       sodipodi:nodetypes="cssssccsssscc" />
    <path
       style="fill:#2ca02c;stroke:#000000;stroke-width:2;stroke-linecap:butt;stroke-linejoin:miter;stroke-opacity:1;display:inline"
       d="m 314.59492,205.2923 c 1.69845,-10.14392 -10.08975,-8.86415 -17.54756,-13.25167 2.64424,6.4075 -2.34014,10.47911 3.33263,13.07425 -10.60696,3.8371 -7.01204,11.74478 -10.71952,16.08745 6.8792,-1.16865 11.48729,4.71972 18.21043,-4.14059 -1.45052,7.08511 4.14671,5.93747 4.30482,13.80702 2.73917,-10.28483 15.68969,-17.45722 2.96151,-24.08816 2.92529,-5.23652 13.08652,-5.96978 20.45159,-2.40211 l 0.0615,-1.46523 c -8.82269,-1.63161 -16.9145,-3.39596 -21.0554,2.37904 z"
       id="path6229-4"
       inkscape:connector-curvature="0"
       sodipodi:nodetypes="cccccccccc" />
    <path
       style="fill:#2ca02c;stroke:#000000;stroke-width:2;stroke-linecap:butt;stroke-linejoin:miter;stroke-opacity:1;display:inline"
       d="m 314.18012,99.446739 c 5.0083,4.792191 2.09471,10.530921 8.33238,10.611981 -8.15129,7.79663 -1.66711,13.57679 -3.30318,19.04739 5.82001,-3.84923 12.41481,-0.32559 14.98344,-11.14723 1.53672,7.06692 6.19262,3.75502 9.51778,10.88932 -1.6512,-10.51448 5.3059,-20.80512 -8.96458,-22.43385 1.32719,-14.193524 -11.97101,-5.96851 -20.56584,-6.967611 z"
       id="path6229"
       inkscape:connector-curvature="0"
       sodipodi:nodetypes="ccccccc" />
    <path
       style="fill:#2ca02c;stroke:#000000;stroke-width:2;stroke-linecap:butt;stroke-linejoin:miter;stroke-opacity:1;display:inline"
       d="m 326.50573,159.86053 c 4.46235,-9.26667 -2.47712,-9.67029 -9.63933,-16.49028 0.75066,6.89091 -5.34716,8.18397 -1.84969,13.30977 -7.94773,-1.6829 -10.88691,3.19341 -15.65918,6.32864 6.93199,0.79794 9.01308,12.64038 17.94213,6.0088 -3.37049,6.39865 1.27421,4.05786 -0.77053,11.65878 5.50103,-9.1115 18.55232,-7.94358 10.45673,-19.61437 1.95127,-1.86652 3.84335,-3.02265 5.71247,-3.90339 l -0.45623,-1.04483 c -2.03784,0.93467 -4.0249,1.99629 -5.73637,3.74688 z"
       id="path6229-1"
       inkscape:connector-curvature="0"
       sodipodi:nodetypes="cccccccccc" />
    <path
       style="fill:#2ca02c;stroke:#000000;stroke-width:2;stroke-linecap:butt;stroke-linejoin:miter;stroke-opacity:1;display:inline"
       d="m 323.89102,202.41067 c 6.49225,-2.42874 8.38425,1.30419 12.48787,-3.35053 0.0839,9.97405 6.77278,6.91424 12.3509,12.62158 -0.44306,-7.78094 6.80523,-9.99802 -1.82558,-17.01335 7.03271,1.68636 4.48418,-3.10317 12.35463,-2.99834 -9.07348,-3.57633 -13.65043,-13.62484 -21.946,-4.12752 -9.06911,-2.93823 -8.58127,6.24387 -13.42182,14.86816 z"
       id="path6229-1-7"
       inkscape:connector-curvature="0"
       sodipodi:nodetypes="ccccccc" />
    <path
       style="fill:#2ca02c;stroke:#000000;stroke-width:2;stroke-linecap:butt;stroke-linejoin:miter;stroke-opacity:1;display:inline"
       d="m 302.31916,244.56916 c 7.82686,-6.67263 1.43515,-9.83658 -2.3597,-18.96942 -2.09839,6.60643 -8.1986,5.32471 -7.07113,11.42675 -6.58955,-4.75146 -11.24878,-1.47904 -16.88105,-0.54003 6.01812,3.53148 3.13547,15.20473 13.98298,12.74763 -5.66901,4.49057 -0.47451,4.22666 -5.41678,10.35275 8.71422,-6.11092 20.18007,0.23214 17.49195,-13.7149 6.6528,0.94406 13.69777,1.39792 17.6602,5.70495 l 1.08766,-0.97489 c -2.80202,-4.06248 -11.22807,-4.87199 -18.49413,-6.03284 z"
       id="path6229-1-0"
       inkscape:connector-curvature="0"
       sodipodi:nodetypes="cccccccccc" />
    <path
       style="fill:#2ca02c;stroke:#000000;stroke-width:2;stroke-linecap:butt;stroke-linejoin:miter;stroke-opacity:1;display:inline"
       d="m 296.07902,279.72611 c -8.99096,-6.74026 -9.84426,3.08656 -17.75743,9.01876 6.91999,0.40235 7.14189,4.58149 12.77667,1.98237 -3.95434,9.15707 3.40055,9.06165 6.19614,16.53653 2.73946,-7.29621 10.26544,-6.39471 5.20622,-16.29976 5.7512,4.38482 5.35581,-1.02613 12.51246,2.25065 -6.85402,-6.93834 -6.11613,-20.21303 -17.60897,-13.56432 -0.32026,-3.59097 -0.0308,-4.39153 0.6671,-7.02095 l -1.63086,0.88675 c -0.43377,1.95355 -0.81301,3.34098 -0.36133,6.20997 z"
       id="path6229-1-7-9"
       inkscape:connector-curvature="0"
       sodipodi:nodetypes="cccccccccc" />
    <path
       style="fill:#2ca02c;stroke:#000000;stroke-width:2;stroke-linecap:butt;stroke-linejoin:miter;stroke-opacity:1;display:inline"
       d="m 312.32693,266.63792 c 5.91687,-3.61092 10.75555,0.0477 13.90645,-7.57396 -1.01045,8.55332 4.80529,7.43677 11.0106,13.73885 1.77212,-9.30799 6.72073,-14.95461 -3.07947,-20.21407 7.22463,0.3281 3.11731,-1.79326 10.86598,-3.17641 -9.58555,-1.79874 -14.57699,-11.67762 -20.93005,-0.78474 -9.46077,-1.17294 -7.24794,7.40174 -10.37297,16.78489 z"
       id="path6229-1-7-4"
       inkscape:connector-curvature="0"
       sodipodi:nodetypes="cccccccc" />
    <path
       style="fill:#2ca02c;stroke:#000000;stroke-width:2;stroke-linecap:butt;stroke-linejoin:miter;stroke-opacity:1;display:inline"
       d="m 253.14417,287.81994 c -0.45663,-10.27499 -11.71793,-6.5625 -19.92736,-9.29645 3.92361,5.71431 -0.10095,10.73675 5.98859,12.09046 -9.57222,5.96688 -4.40569,12.94984 -7.1249,17.97081 6.48366,-2.57901 12.21948,2.21763 16.9448,-7.85099 0.0605,7.23182 5.29486,4.94098 7.09234,12.60413 0.53174,-10.63005 11.69961,-20.34797 -2.13241,-24.17566 1.76765,-5.73183 8.82852,-6.83712 12.75289,-6.12352 l 1.67303,-0.70303 c -5.91655,-1.81975 -12.04272,-1.04509 -15.26698,5.48425 z"
       id="path6229-4-8"
       inkscape:connector-curvature="0"
       sodipodi:nodetypes="cccccccccc" />
    <path
       style="fill:#deaa87;stroke:#000000;stroke-width:2;stroke-linecap:butt;stroke-linejoin:miter;stroke-opacity:1;display:inline"
       d="m 132.88944,177.3875 c -17.33076,-9.82113 -41.655397,-0.53957 -58.119614,24.76337 14.09982,-0.0267 24.394056,1.31999 43.181854,-7.2037 -7.08329,-3.35582 6.34155,-10.6399 5.46805,-4.80403 4.25425,-2.30027 6.14477,-7.41272 9.54693,-10.91744 l 16.20828,-3.46873 1.08044,-1.83047 z"
       id="path7108"
       inkscape:connector-curvature="0"
       sodipodi:nodetypes="cccccccc" />
    <path
       style="fill:none;stroke:#000000;stroke-width:2;stroke-linecap:butt;stroke-linejoin:miter;stroke-opacity:1;display:inline"
       d="M 78.731141,200.17021 C 95.860726,189.33877 112.93045,180.18358 129.73308,178.50677"
       id="path7112"
       inkscape:connector-curvature="0"
       sodipodi:nodetypes="cc" />
    <path
       style="fill:none;stroke:#000000;stroke-width:2;stroke-linecap:butt;stroke-linejoin:miter;stroke-opacity:1;display:inline"
       d="m 90.840786,192.88091 c -1.136443,-0.80926 -2.201239,-1.57546 -3.815641,-1.74745"
       id="path7114"
       inkscape:connector-curvature="0"
       sodipodi:nodetypes="cc" />
    <path
       style="fill:none;stroke:#000000;stroke-width:2;stroke-linecap:butt;stroke-linejoin:miter;stroke-opacity:1;display:inline"
       d="m 100.72788,187.42596 c -1.260563,-1.41956 -2.825152,-2.23107 -4.580273,-2.66151"
       id="path7118"
       inkscape:connector-curvature="0"
       sodipodi:nodetypes="cc" />
    <path
       style="fill:none;stroke:#000000;stroke-width:2;stroke-linecap:butt;stroke-linejoin:miter;stroke-opacity:1;display:inline"
       d="m 113.63294,182.07912 c -1.96593,-1.229 -3.88295,-2.70259 -6.00386,-3.15667"
       id="path7120"
       inkscape:connector-curvature="0"
       sodipodi:nodetypes="cc" />
    <path
       style="fill:none;stroke:#000000;stroke-width:2;stroke-linecap:butt;stroke-linejoin:miter;stroke-opacity:1;display:inline"
       d="m 90.790154,192.78587 c -1.346019,1.68934 -2.644325,3.81831 -3.33174,5.83695"
       id="path7122"
       inkscape:connector-curvature="0"
       sodipodi:nodetypes="cc" />
    <path
       style="fill:none;stroke:#000000;stroke-width:2;stroke-linecap:butt;stroke-linejoin:miter;stroke-opacity:1;display:inline"
       d="m 100.66598,187.54975 c -2.144151,2.82656 -3.749574,5.65313 -4.085104,8.47969"
       id="path7124"
       inkscape:connector-curvature="0"
       sodipodi:nodetypes="cc" />
    <path
       style="fill:none;stroke:#000000;stroke-width:2;stroke-linecap:butt;stroke-linejoin:miter;stroke-opacity:1;display:inline"
       d="m 113.38536,182.14101 c -2.06163,3.15294 -4.06842,6.32692 -4.70406,10.02708"
       id="path7126"
       inkscape:connector-curvature="0"
       sodipodi:nodetypes="cc" />
  </g>
  <g
     inkscape:groupmode="layer"
     id="layer7"
     inkscape:label="枠面"
     style="display:inline"
     sodipodi:insensitive="true">
    <path
       style="fill:#ffffff;stroke:none;display:inline"
       d="m 0,0 0,320 370,0 0,-320 -10,10 0,300 -350,0 0,-300 350,0 10,-10 z"
       id="path21072"
       inkscape:connector-curvature="0"
       sodipodi:nodetypes="ccccccccccc" />
  </g>
</svg>
