<?xml version="1.0" encoding="UTF-8" standalone="no"?>
<!-- Created with Inkscape (http://www.inkscape.org/) -->

<svg
   xmlns:dc="http://purl.org/dc/elements/1.1/"
   xmlns:cc="http://creativecommons.org/ns#"
   xmlns:rdf="http://www.w3.org/1999/02/22-rdf-syntax-ns#"
   xmlns:svg="http://www.w3.org/2000/svg"
   xmlns="http://www.w3.org/2000/svg"
   xmlns:sodipodi="http://sodipodi.sourceforge.net/DTD/sodipodi-0.dtd"
   xmlns:inkscape="http://www.inkscape.org/namespaces/inkscape"
   width="370"
   height="320"
   id="svg2"
   version="1.1"
   inkscape:version="0.48.4 r9939"
   sodipodi:docname="[04.娯楽]06.調理.svg"
   inkscape:export-filename="C:\Users\執安\Desktop\資料\臨時\TAKEDA\[04.娯楽]06.調理.png"
   inkscape:export-xdpi="90"
   inkscape:export-ydpi="90"
   enable-background="new">
  <defs
     id="defs4">
    <inkscape:perspective
       sodipodi:type="inkscape:persp3d"
       inkscape:vp_x="363.49708 : 943.81603 : 1"
       inkscape:vp_y="0 : 1000 : 0"
       inkscape:vp_z="744.09448 : 526.18109 : 1"
       inkscape:persp3d-origin="372.04724 : 350.78739 : 1"
       id="perspective5056" />
    <inkscape:perspective
       id="perspective5056-8"
       inkscape:persp3d-origin="372.04724 : 350.78739 : 1"
       inkscape:vp_z="744.09448 : 526.18109 : 1"
       inkscape:vp_y="0 : 1000 : 0"
       inkscape:vp_x="363.49708 : 943.81603 : 1"
       sodipodi:type="inkscape:persp3d" />
    <inkscape:perspective
       id="perspective5056-1"
       inkscape:persp3d-origin="372.04724 : 350.78739 : 1"
       inkscape:vp_z="744.09448 : 526.18109 : 1"
       inkscape:vp_y="0 : 1000 : 0"
       inkscape:vp_x="363.49708 : 943.81603 : 1"
       sodipodi:type="inkscape:persp3d" />
  </defs>
  <sodipodi:namedview
     id="base"
     pagecolor="#ffffff"
     bordercolor="#666666"
     borderopacity="1.0"
     inkscape:pageopacity="0.0"
     inkscape:pageshadow="2"
     inkscape:zoom="1"
     inkscape:cx="233.72241"
     inkscape:cy="188.32329"
     inkscape:document-units="px"
     inkscape:current-layer="layer5"
     showgrid="false"
     inkscape:window-width="989"
     inkscape:window-height="697"
     inkscape:window-x="-3"
     inkscape:window-y="-3"
     inkscape:window-maximized="0"
     showguides="true"
     inkscape:guide-bbox="true"
     inkscape:snap-grids="false"
     inkscape:snap-to-guides="false"
     showborder="true"
     inkscape:showpageshadow="false"
     fit-margin-top="0"
     fit-margin-left="0"
     fit-margin-right="0"
     fit-margin-bottom="0"
     inkscape:snap-page="false" />
  <metadata
     id="metadata7">
    <rdf:RDF>
      <cc:Work
         rdf:about="">
        <dc:format>image/svg+xml</dc:format>
        <dc:type
           rdf:resource="http://purl.org/dc/dcmitype/StillImage" />
        <dc:title></dc:title>
      </cc:Work>
    </rdf:RDF>
  </metadata>
  <g
     inkscape:groupmode="layer"
     id="layer2"
     inkscape:label="補助線"
     style="display:none"
     sodipodi:insensitive="true">
    <path
       style="fill:none;stroke:#0000ff;stroke-width:1px;stroke-linecap:butt;stroke-linejoin:miter;stroke-opacity:1"
       d="M 10,310 360,10"
       id="path3025"
       inkscape:connector-curvature="0"
       sodipodi:nodetypes="cc" />
    <path
       style="fill:none;stroke:#0000ff;stroke-width:1px;stroke-linecap:butt;stroke-linejoin:miter;stroke-opacity:1"
       d="M 10,10 360,310"
       id="path3027"
       inkscape:connector-curvature="0"
       sodipodi:nodetypes="cc" />
    <path
       style="fill:none;stroke:#ff0000;stroke-width:1px;stroke-linecap:butt;stroke-linejoin:miter;stroke-opacity:1;display:inline"
       d="m 10,0 0,320"
       id="path3006"
       inkscape:connector-curvature="0"
       sodipodi:nodetypes="cc" />
    <path
       style="fill:none;stroke:#ff0000;stroke-width:1px;stroke-linecap:butt;stroke-linejoin:miter;stroke-opacity:1;display:inline"
       d="m 360,0 0,320"
       id="path3010"
       inkscape:connector-curvature="0"
       sodipodi:nodetypes="cc" />
    <path
       style="fill:none;stroke:#ff0000;stroke-width:1px;stroke-linecap:butt;stroke-linejoin:miter;stroke-opacity:1;display:inline"
       d="M 0,9.9999681 370,10"
       id="path3016"
       inkscape:connector-curvature="0" />
    <path
       transform="translate(84.715796,27.711696)"
       style="fill:none;stroke:#ff0000;stroke-width:1px;stroke-linecap:butt;stroke-linejoin:miter;stroke-opacity:1;display:inline"
       d="m -84.715796,282.2883 369.999996,0"
       id="path3018"
       inkscape:connector-curvature="0"
       sodipodi:nodetypes="cc" />
  </g>
  <g
     inkscape:groupmode="layer"
     id="layer10"
     inkscape:label="豚: 胴"
     style="display:inline"
     sodipodi:insensitive="true">
    <path
       style="fill:#ffd5d5;stroke:#000000;stroke-width:2;stroke-linecap:butt;stroke-linejoin:miter;stroke-opacity:1;display:inline"
       d="m 207.90353,131.43706 c 2.34394,-18.32521 -6.70845,-36.09186 -31.67052,-42.35859 l -94.263365,75.44264 140.766095,31.92376 -9.91018,-41.3672 z"
       id="path4897"
       inkscape:connector-curvature="0"
       sodipodi:nodetypes="cccccc" />
    <path
       style="fill:#ffd5d5;stroke:#000000;stroke-width:2;stroke-linecap:butt;stroke-linejoin:miter;stroke-opacity:1;display:inline"
       d="m 210.81701,150.88676 c 8.45508,10.32803 19.88227,35.92735 11.49054,49.70288"
       id="path4905-5"
       inkscape:connector-curvature="0"
       sodipodi:nodetypes="cc" />
    <path
       style="fill:#ffd5d5;stroke:#000000;stroke-width:2;stroke-linecap:butt;stroke-linejoin:miter;stroke-opacity:1;display:inline"
       d="m 215.65154,179.00657 c 5.85507,11.32104 12.59376,32.89498 -1.24456,49.68361 l -135.657095,7.7736 C 65.659042,222.66153 64.202964,193.17356 81.598142,162.54455"
       id="path4907"
       inkscape:connector-curvature="0"
       sodipodi:nodetypes="cccc" />
    <path
       style="fill:#ffaaaa;stroke:#000000;stroke-width:2;stroke-linecap:butt;stroke-linejoin:miter;stroke-opacity:1;display:inline"
       d="m 188.9277,133.49342 c -9.41086,0.97031 -21.57039,12.213 -26.21557,22.11269 -5.21299,11.10977 -2.05084,20.25565 7.00224,17.82828 9.31481,-2.49756 20.65133,-5.26087 27.8738,-5.97323 5.47912,-0.54041 6.72037,-11.07516 5.97185,-17.40852 -1.08237,-9.15826 -6.42274,-17.40568 -14.63232,-16.55922 z"
       id="path4889"
       inkscape:connector-curvature="0"
       sodipodi:nodetypes="ssssss" />
    <path
       style="fill:none;stroke:#000000;stroke-width:2;stroke-linecap:butt;stroke-linejoin:miter;stroke-opacity:1;display:inline"
       d="m 166.23979,125.35448 6.56937,6.32543"
       id="path4891"
       inkscape:connector-curvature="0"
       sodipodi:nodetypes="cc" />
    <path
       style="fill:none;stroke:#000000;stroke-width:2;stroke-linecap:butt;stroke-linejoin:miter;stroke-opacity:1;display:inline"
       d="m 192.42995,119.70115 -2.10418,8.25783"
       id="path4893"
       inkscape:connector-curvature="0"
       sodipodi:nodetypes="cc" />
    <path
       style="fill:#ffd5d5;stroke:#000000;stroke-width:2;stroke-linecap:butt;stroke-linejoin:miter;stroke-opacity:1;display:inline"
       d="M 191.095,100.69504 C 173.92021,80.374095 129.03236,69.246542 99.171034,111.55649 82.804317,134.74619 77.078051,153.72795 81.303371,166.67136"
       id="path6501"
       inkscape:connector-curvature="0"
       sodipodi:nodetypes="csc" />
    <path
       style="fill:#ffd5d5;stroke:#000000;stroke-width:2;stroke-linecap:butt;stroke-linejoin:miter;stroke-opacity:1;display:inline"
       d="m 206.37503,170.80443 c 7.77345,-8.91844 11.11893,-27.25618 -2.80736,-46.27062"
       id="path4903-8"
       inkscape:connector-curvature="0"
       sodipodi:nodetypes="cc" />
    <path
       style="fill:#000000;stroke:#000000;stroke-width:2;stroke-linecap:butt;stroke-linejoin:miter;stroke-opacity:1;display:inline"
       d="m 173.13227,163.609 c 1.13988,3.6401 11.66455,-18.8049 9.02254,-19.29355 -2.91376,-0.53892 -11.25136,12.17591 -9.02254,19.29355 z"
       id="path4917"
       inkscape:connector-curvature="0"
       sodipodi:nodetypes="sss" />
    <path
       style="fill:#000000;stroke:#000000;stroke-width:2;stroke-linecap:butt;stroke-linejoin:miter;stroke-opacity:1;display:inline"
       d="m 191.6033,161.33842 c 5.21701,-5.63876 2.99477,-17.11368 0.6125,-17.61304 -2.13839,-0.44823 -2.94913,20.13856 -0.6125,17.61304 z"
       id="path4919"
       inkscape:connector-curvature="0"
       sodipodi:nodetypes="sss" />
    <path
       style="fill:#ffd5d5;stroke:#000000;stroke-width:2;stroke-linecap:butt;stroke-linejoin:miter;stroke-opacity:1;display:inline"
       d="m 129.91296,126.72778 c -9.0946,10.06411 -21.01543,34.8477 -28.84736,28.40263 C 80.141902,137.91183 89.499726,99.976489 116.9508,96.122393"
       id="path4895"
       inkscape:connector-curvature="0"
       sodipodi:nodetypes="csc" />
  </g>
  <g
     inkscape:groupmode="layer"
     id="layer6"
     inkscape:label="台"
     style="display:inline"
     sodipodi:insensitive="true">
    <path
       sodipodi:nodetypes="ccsssc"
       style="fill:#916f6f;stroke:none;display:inline"
       d="M 53.839307,238.02509 324.73864,221.8458 c -22.31546,8.11275 -49.97051,25.47862 -22.73161,29.14289 49.66668,6.68132 6.22729,48.897 -74.28082,57.0224 C 138.8059,316.9855 61.619146,288.55784 114.79249,258.65738 138.97351,245.05989 84.189731,241.71029 53.839307,238.02509 z"
       id="path4913-1"
       inkscape:connector-curvature="0" />
    <path
       style="fill:none;stroke:#000000;stroke-width:2;stroke-linecap:butt;stroke-linejoin:miter;stroke-opacity:1;display:inline"
       d="M 53.858671,238.01947 324.758,221.84019"
       id="path4913"
       inkscape:connector-curvature="0" />
  </g>
  <g
     inkscape:groupmode="layer"
     id="layer11"
     inkscape:label="火"
     style="display:inline"
     sodipodi:insensitive="true">
    <path
       sodipodi:nodetypes="cccccccccccccccccccccc"
       inkscape:connector-curvature="0"
       id="path3469"
       d="m 264.2491,250.01808 c -1.37581,2.40163 -3.89901,3.82401 -1.95841,7.15804 -9.02222,-3.20281 -16.9039,-6.82862 -19.81316,-12.29879 -3.65446,0.87454 -4.38897,3.43227 -0.30249,8.76913 -14.95553,-2.49424 -20.34175,-7.1302 -27.87933,-11.8036 -0.40627,3.30802 -3.31633,6.14128 1.10335,10.36441 -9.84138,-1.15055 -20.16482,-1.66843 -27.21057,-6.48846 -3.05423,3.59487 0.693,6.65229 1.88527,9.9116 -10.99641,0.57939 -14.01277,-3.15481 -20.00516,-5.28032 -1.54544,4.11229 -1.11066,7.51997 2.13533,9.92739 -6.56835,0.002 -14.75113,0.93999 -15.41119,-2.47942 -0.5199,2.6496 -1.93967,3.92706 1.00865,11.865 -2.77806,-0.23473 -5.78605,0.17777 -7.00017,-4.45936 -0.11414,9.34007 -3.06157,13.11543 1.93446,18.63587 3.96666,-1.21022 3.64126,-9.48806 5.63569,-13.2617 4.65563,0.83554 11.42258,-4.41533 16.89435,-7.09401 5.79839,3.60894 12.13088,-1.24295 18.19633,-1.86444 6.66902,3.10928 16.35076,-1.64372 24.80935,-3.20462 4.72318,1.89821 16.02468,-1.15877 25.27793,-2.67285 2.46603,3.32712 10.75254,3.508 18.58348,3.93513 3.74303,3.09085 9.19371,2.27231 14.44236,1.91606 -6.60356,-1.65975 -10.6856,-5.5416 -12.32607,-11.57506 z"
       style="fill:#ff6600;stroke:#000000;stroke-width:2;stroke-linecap:butt;stroke-linejoin:miter;stroke-opacity:1;display:inline" />
    <path
       sodipodi:nodetypes="cccccccccccccccccccccc"
       inkscape:connector-curvature="0"
       id="path3469-8"
       d="m 259.64304,253.40638 c -1.90288,2.6823 -3.17764,2.55075 -1.75097,6.3999 -8.06666,-2.86358 -12.1111,-6.4832 -14.71226,-11.37399 -0.84029,2.77904 -6.92655,3.44656 -3.27289,8.21818 -13.37155,-2.23007 -16.56293,-4.26374 -23.30213,-8.44217 -0.36328,2.95766 -4.58945,3.37955 -0.63786,7.15541 -8.79905,-1.0287 -12.08739,-4.12975 -18.38689,-8.43926 -2.73077,3.2141 -5.32208,8.58573 -4.25613,11.49984 -9.83167,0.51803 -11.08862,-5.74288 -16.44634,-7.64327 -1.38175,3.67674 -2.43296,9.64571 0.46923,11.79814 -5.87266,0.002 -13.60512,-0.93051 -15.71653,-3.34348 -0.46483,2.36896 0.20338,4.6378 2.83943,11.735 -2.08816,2.51008 -6.34794,0.15571 -9.76008,-4.20808 3.28064,6.6822 -1.3342,9.57814 4.62452,14.43529 3.54654,-1.08204 3.86199,-6.03533 5.64518,-9.40929 4.16252,0.74704 10.21276,-3.94768 15.10498,-6.34266 5.18429,3.22671 10.84605,-1.1113 16.26911,-1.66696 5.96261,2.77996 14.61896,-1.46963 22.18161,-2.86521 4.22293,1.69716 14.32752,-1.03604 22.60065,-2.38976 2.20482,2.97473 9.61368,3.13645 16.61522,3.51834 3.3466,2.76349 8.21996,2.03165 12.91275,1.71313 -5.9042,-1.48396 -9.5539,-4.95467 -11.0206,-10.3491 z"
       style="fill:#00ccff;stroke:#000000;stroke-width:2;stroke-linecap:butt;stroke-linejoin:miter;stroke-opacity:1;display:inline" />
    <path
       sodipodi:nodetypes="cccccccccccccccccccccc"
       inkscape:connector-curvature="0"
       id="path3469-1"
       d="m 159.18267,281.40831 c 2.12704,-0.33242 4.85076,0.38341 3.94409,-3.05045 1.60256,3.53525 3.32773,3.53511 -0.3144,9.56551 5.01752,-5.9784 12.49454,3.90639 14.64169,-8.68767 1.66867,6.77782 3.20254,5.20146 -0.86278,10.90449 9.839,-6.5155 13.66287,-3.59395 15.80559,-13.18396 1.14058,8.59763 11.35351,4.28898 4.47205,15.58652 8.95667,-8.35312 20.44592,-6.2812 18.45011,-18.721 4.02062,12.58616 14.42493,6.28677 9.32171,16.20866 9.92738,-10.45903 7.02397,-10.95035 7.38047,-20.62204 6.84551,9.98331 15.73148,9.60949 10.98676,16.22535 6.94253,-5.79767 10.29002,-13.30056 10.58642,-17.72879 2.61414,7.37946 9.68294,0.7815 8.35754,7.19448 8.00155,-8.24916 7.26636,-15.44168 7.41486,-20.65068 1.4,2.47808 1.39187,6.39212 1.00538,9.95733 -0.30462,5.58976 -5.04197,9.64139 -8.48158,13.56943 -1.40256,5.99648 -9.94696,6.09154 -15.40933,7.48115 -3.80841,7.93515 -14.35991,5.77339 -22.06638,8.15147 -4.7136,7.27429 -18.65095,1.52104 -27.77182,2.51234 -4.85002,5.05099 -14.03359,-0.67872 -21.1599,-1.61005 -2.8579,1.98495 -6.84249,-0.35038 -13.4263,-5.28772 -1.64975,-0.28564 -3.43416,-0.11961 -2.87418,-7.81437 z"
       style="fill:#00ccff;stroke:#000000;stroke-width:2;stroke-linecap:butt;stroke-linejoin:miter;stroke-opacity:1;display:inline" />
    <path
       sodipodi:nodetypes="cccccccccccccccccccccc"
       inkscape:connector-curvature="0"
       id="path3469-1-9"
       d="m 152.73231,283.88861 c 2.37902,-0.3718 0.67254,-2.60937 1.9256,-7.41015 0.0727,8.15822 7.39913,9.73247 3.32554,16.47723 5.61191,-6.68661 9.95541,1.30706 12.35691,-12.7789 1.86634,7.58072 7.60118,8.87971 3.05426,15.25833 11.00459,-7.28734 18.48189,-5.78352 20.87845,-16.50955 1.27568,9.61609 9.49796,6.56087 1.80127,19.19671 10.01766,-9.34264 30.35264,-9.92281 28.12048,-23.83624 4.49688,14.07713 8.64898,9.92905 2.94125,21.02629 11.10339,-11.69801 22.00108,-13.88213 22.39978,-24.69953 2.48577,4.09945 7.14216,7.2796 1.83546,14.6792 7.76488,-6.48447 13.32567,-12.51478 13.65723,-17.46758 1.84775,6.19994 5.32099,3.61551 3.83864,10.78818 4.19334,-14.77468 8.57206,-8.59057 8.29319,-23.09698 1.56588,2.77164 1.55675,7.14935 1.12449,11.13688 -0.34065,6.25193 -5.63922,10.78353 -9.48631,15.17689 -1.56876,6.70683 -11.12526,6.81315 -17.23473,8.36737 -4.25957,8.87514 -16.06105,6.45729 -24.68036,9.11708 -5.27206,8.136 -20.8604,1.70124 -31.06173,2.80995 -5.42453,5.64936 -15.69597,-0.7591 -23.66649,-1.80076 -3.19646,2.22009 -7.65305,-0.39189 -15.01679,-5.91411 -1.84518,-0.31948 -5.03244,-1.91404 -4.40614,-10.52031 z"
       style="fill:#ff6600;stroke:#000000;stroke-width:2;stroke-linecap:butt;stroke-linejoin:miter;stroke-opacity:1;display:inline" />
  </g>
  <g
     inkscape:groupmode="layer"
     id="layer8"
     inkscape:label="フライパン"
     style="display:inline"
     sodipodi:insensitive="true">
    <path
       transform="translate(84.715796,27.711696)"
       sodipodi:nodetypes="csccccc"
       inkscape:connector-curvature="0"
       id="path3765-3"
       d="m 65.821577,204.14068 c -5.84383,-0.53983 -5.04679,-13.24723 -1.3288,-20.65425 2.14602,-4.27534 11.20843,-7.86974 14.0066,-1.09184 l 0.47162,14.65282 c -2.52265,4.71525 -11.48529,3.95172 -12.05899,-1.05226 l 4.38621,7.26296 z"
       style="fill:#ffaaaa;stroke:none;display:inline" />
    <path
       style="fill:#483737;stroke:#000000;stroke-width:2;stroke-linecap:butt;stroke-linejoin:miter;stroke-opacity:1;display:inline"
       d="m 188.76003,235.02308 c -5.15327,-0.51835 -10.16143,-0.22671 -15.60296,-2.56104 -5.29118,-2.26984 -9.08347,-5.85408 -12.86749,-9.53814 -6.79397,-6.6145 -12.87781,-5.66217 -7.82888,2.08903 1.45308,2.2308 6.70903,9.54168 7.7389,12.21818 0.91517,2.3784 -0.16583,4.60547 -2.16235,6.71131"
       id="path5169"
       inkscape:connector-curvature="0"
       sodipodi:nodetypes="cssssc" />
    <path
       sodipodi:type="arc"
       style="fill:#6c5353;stroke:#000000;stroke-width:5.52298307;display:inline"
       id="path4915"
       sodipodi:cx="1029.3942"
       sodipodi:cy="890.35486"
       sodipodi:rx="207.74387"
       sodipodi:ry="59.059353"
       d="m 1237.138,890.35486 a 207.74387,59.059353 0 1 1 -415.4877,0 207.74387,59.059353 0 1 1 415.4877,0 z"
       transform="matrix(0.3705564,-0.06038039,0.04651191,0.34630292,-215.55835,6.285858)" />
    <path
       sodipodi:type="arc"
       style="fill:#483737;stroke:#000000;stroke-width:7.02491522;display:inline"
       id="path5061"
       sodipodi:cx="1029.3942"
       sodipodi:cy="890.35486"
       sodipodi:rx="207.74387"
       sodipodi:ry="59.059353"
       d="m 1237.138,890.35486 a 207.74387,59.059353 0 1 1 -415.4877,0 207.74387,59.059353 0 1 1 415.4877,0 z"
       transform="matrix(0.29133117,-0.04747102,0.03656763,0.2722631,-120.55556,78.291032)" />
    <g
       style="display:inline"
       id="g6411">
      <path
         style="fill:#ffb380;stroke:#000000;stroke-width:2;stroke-linecap:butt;stroke-linejoin:miter;stroke-opacity:1"
         d="m 168.1681,279.24483 c 19.31898,-3.42322 51.26331,-26.25096 59.34203,-39.05575 7.07742,-11.21774 2.8141,-20.26522 1.9463,-22.98709 -1.72098,-5.39787 8.67988,7.11165 4.52886,21.026 -3.03352,10.16834 -8.31871,15.78462 -4.89553,15.21459 10.36085,-1.72532 18.47528,-5.73227 22.89323,-14.90688 6.28421,-13.05023 -0.0921,-18.98741 -0.42421,-22.20337 -0.36337,-3.51814 8.51575,9.75654 5.3633,21.73451 -2.05678,7.81485 -7.74965,16.41397 -1.31417,14.30949 3.38688,-1.10757 12.83796,-6.43171 15.46058,-18.70318 4.41378,-20.65268 -3.31908,-27.71727 -4.10486,-30.32227 -1.65588,-5.48949 11.96697,11.25946 10.17718,30.79668 -1.43171,15.62865 -8.79392,25.76574 -26.4782,33.96655 -27.40952,12.62117 -58.76757,16.01858 -82.49451,11.13072 z"
         id="path3984"
         inkscape:connector-curvature="0"
         sodipodi:nodetypes="cssssssssssscc" />
      <path
         sodipodi:type="arc"
         style="fill:#ffffff;fill-opacity:1;stroke:#000000;stroke-width:4.57552767;stroke-miterlimit:4;stroke-dasharray:none;stroke-dashoffset:0"
         id="path4040"
         sodipodi:cx="442.29529"
         sodipodi:cy="788.25781"
         sodipodi:rx="3.8890872"
         sodipodi:ry="6.7175145"
         d="m 446.18438,788.25781 a 3.8890872,6.7175145 0 1 1 -7.77818,0 3.8890872,6.7175145 0 1 1 7.77818,0 z"
         transform="matrix(0.43710805,0,0,0.43710805,65.516731,-113.57896)" />
      <path
         transform="matrix(0.43710805,0,0,0.43710805,7.9093785,-90.23554)"
         sodipodi:type="arc"
         style="fill:#ffffff;fill-opacity:1;stroke:#000000;stroke-width:4.57552767;stroke-miterlimit:4;stroke-dasharray:none;stroke-dashoffset:0;display:inline"
         id="path4040-5"
         sodipodi:cx="442.29529"
         sodipodi:cy="788.25781"
         sodipodi:rx="3.8890872"
         sodipodi:ry="6.7175145"
         d="m 446.18438,788.25781 a 3.8890872,6.7175145 0 1 1 -7.77818,0 3.8890872,6.7175145 0 1 1 7.77818,0 z" />
      <path
         transform="matrix(0.43710805,0,0,0.43710805,34.026814,-104.29877)"
         sodipodi:type="arc"
         style="fill:#ffffff;fill-opacity:1;stroke:#000000;stroke-width:4.57552767;stroke-miterlimit:4;stroke-dasharray:none;stroke-dashoffset:0;display:inline"
         id="path4040-2"
         sodipodi:cx="442.29529"
         sodipodi:cy="788.25781"
         sodipodi:rx="3.8890872"
         sodipodi:ry="6.7175145"
         d="m 446.18438,788.25781 a 3.8890872,6.7175145 0 1 1 -7.77818,0 3.8890872,6.7175145 0 1 1 7.77818,0 z" />
      <path
         transform="matrix(0.43710805,0,0,0.43710805,44.599617,-102.44428)"
         sodipodi:type="arc"
         style="fill:#ffffff;fill-opacity:1;stroke:#000000;stroke-width:4.57552767;stroke-miterlimit:4;stroke-dasharray:none;stroke-dashoffset:0;display:inline"
         id="path4040-7"
         sodipodi:cx="442.29529"
         sodipodi:cy="788.25781"
         sodipodi:rx="3.8890872"
         sodipodi:ry="6.7175145"
         d="m 446.18438,788.25781 a 3.8890872,6.7175145 0 1 1 -7.77818,0 3.8890872,6.7175145 0 1 1 7.77818,0 z" />
      <path
         transform="matrix(0.29061103,-0.32650983,0.32650983,0.29061103,-140.3645,147.10025)"
         sodipodi:type="arc"
         style="fill:#ffffff;fill-opacity:1;stroke:#000000;stroke-width:4.57552767;stroke-miterlimit:4;stroke-dasharray:none;stroke-dashoffset:0;display:inline"
         id="path4040-2-6"
         sodipodi:cx="442.29529"
         sodipodi:cy="788.25781"
         sodipodi:rx="3.8890872"
         sodipodi:ry="6.7175145"
         d="m 446.18438,788.25781 a 3.8890872,6.7175145 0 1 1 -7.77818,0 3.8890872,6.7175145 0 1 1 7.77818,0 z" />
      <path
         transform="matrix(0.29061103,-0.32650983,0.32650983,0.29061103,-140.58304,161.19699)"
         sodipodi:type="arc"
         style="fill:#ffffff;fill-opacity:1;stroke:#000000;stroke-width:4.57552767;stroke-miterlimit:4;stroke-dasharray:none;stroke-dashoffset:0;display:inline"
         id="path4040-2-6-1"
         sodipodi:cx="442.29529"
         sodipodi:cy="788.25781"
         sodipodi:rx="3.8890872"
         sodipodi:ry="6.7175145"
         d="m 446.18438,788.25781 a 3.8890872,6.7175145 0 1 1 -7.77818,0 3.8890872,6.7175145 0 1 1 7.77818,0 z" />
      <path
         transform="matrix(0.29061103,-0.32650983,0.32650983,0.29061103,-142.55004,122.51292)"
         sodipodi:type="arc"
         style="fill:#ffffff;fill-opacity:1;stroke:#000000;stroke-width:4.57552767;stroke-miterlimit:4;stroke-dasharray:none;stroke-dashoffset:0;display:inline"
         id="path4040-2-6-4"
         sodipodi:cx="442.29529"
         sodipodi:cy="788.25781"
         sodipodi:rx="3.8890872"
         sodipodi:ry="6.7175145"
         d="m 446.18438,788.25781 a 3.8890872,6.7175145 0 1 1 -7.77818,0 3.8890872,6.7175145 0 1 1 7.77818,0 z" />
      <path
         transform="matrix(0.29061103,-0.32650983,0.32650983,0.29061103,-139.27172,133.76846)"
         sodipodi:type="arc"
         style="fill:#ffffff;fill-opacity:1;stroke:#000000;stroke-width:4.57552767;stroke-miterlimit:4;stroke-dasharray:none;stroke-dashoffset:0;display:inline"
         id="path4040-2-6-2"
         sodipodi:cx="442.29529"
         sodipodi:cy="788.25781"
         sodipodi:rx="3.8890872"
         sodipodi:ry="6.7175145"
         d="m 446.18438,788.25781 a 3.8890872,6.7175145 0 1 1 -7.77818,0 3.8890872,6.7175145 0 1 1 7.77818,0 z" />
      <path
         transform="matrix(0.29061103,-0.32650983,0.32650983,0.29061103,-121.45957,155.73313)"
         sodipodi:type="arc"
         style="fill:#ffffff;fill-opacity:1;stroke:#000000;stroke-width:4.57552767;stroke-miterlimit:4;stroke-dasharray:none;stroke-dashoffset:0;display:inline"
         id="path4040-2-6-3"
         sodipodi:cx="442.29529"
         sodipodi:cy="788.25781"
         sodipodi:rx="3.8890872"
         sodipodi:ry="6.7175145"
         d="m 446.18438,788.25781 a 3.8890872,6.7175145 0 1 1 -7.77818,0 3.8890872,6.7175145 0 1 1 7.77818,0 z" />
      <path
         transform="matrix(0.29061103,-0.32650983,0.32650983,0.29061103,-166.15386,158.02795)"
         sodipodi:type="arc"
         style="fill:#ffffff;fill-opacity:1;stroke:#000000;stroke-width:4.57552767;stroke-miterlimit:4;stroke-dasharray:none;stroke-dashoffset:0;display:inline"
         id="path4040-2-6-22"
         sodipodi:cx="442.29529"
         sodipodi:cy="788.25781"
         sodipodi:rx="3.8890872"
         sodipodi:ry="6.7175145"
         d="m 446.18438,788.25781 a 3.8890872,6.7175145 0 1 1 -7.77818,0 3.8890872,6.7175145 0 1 1 7.77818,0 z" />
      <path
         transform="matrix(0.29061103,-0.32650983,0.32650983,0.29061103,-159.92507,139.12303)"
         sodipodi:type="arc"
         style="fill:#ffffff;fill-opacity:1;stroke:#000000;stroke-width:4.57552767;stroke-miterlimit:4;stroke-dasharray:none;stroke-dashoffset:0;display:inline"
         id="path4040-2-6-16"
         sodipodi:cx="442.29529"
         sodipodi:cy="788.25781"
         sodipodi:rx="3.8890872"
         sodipodi:ry="6.7175145"
         d="m 446.18438,788.25781 a 3.8890872,6.7175145 0 1 1 -7.77818,0 3.8890872,6.7175145 0 1 1 7.77818,0 z" />
      <path
         transform="matrix(0.29061103,-0.32650983,0.32650983,0.29061103,-123.75439,134.86122)"
         sodipodi:type="arc"
         style="fill:#ffffff;fill-opacity:1;stroke:#000000;stroke-width:4.57552767;stroke-miterlimit:4;stroke-dasharray:none;stroke-dashoffset:0;display:inline"
         id="path4040-2-6-8"
         sodipodi:cx="442.29529"
         sodipodi:cy="788.25781"
         sodipodi:rx="3.8890872"
         sodipodi:ry="6.7175145"
         d="m 446.18438,788.25781 a 3.8890872,6.7175145 0 1 1 -7.77818,0 3.8890872,6.7175145 0 1 1 7.77818,0 z" />
      <path
         transform="matrix(0.36117937,0.24619688,-0.24619688,0.36117937,243.86766,-164.93745)"
         sodipodi:type="arc"
         style="fill:#ffffff;fill-opacity:1;stroke:#000000;stroke-width:4.57552767;stroke-miterlimit:4;stroke-dasharray:none;stroke-dashoffset:0;display:inline"
         id="path4040-2-6-2-5"
         sodipodi:cx="442.29529"
         sodipodi:cy="788.25781"
         sodipodi:rx="3.8890872"
         sodipodi:ry="6.7175145"
         d="m 446.18438,788.25781 a 3.8890872,6.7175145 0 1 1 -7.77818,0 3.8890872,6.7175145 0 1 1 7.77818,0 z" />
      <path
         transform="matrix(0.36117937,0.24619688,-0.24619688,0.36117937,249.27659,-159.06488)"
         sodipodi:type="arc"
         style="fill:#ffffff;fill-opacity:1;stroke:#000000;stroke-width:4.57552767;stroke-miterlimit:4;stroke-dasharray:none;stroke-dashoffset:0;display:inline"
         id="path4040-2-6-2-5-7"
         sodipodi:cx="442.29529"
         sodipodi:cy="788.25781"
         sodipodi:rx="3.8890872"
         sodipodi:ry="6.7175145"
         d="m 446.18438,788.25781 a 3.8890872,6.7175145 0 1 1 -7.77818,0 3.8890872,6.7175145 0 1 1 7.77818,0 z" />
      <path
         transform="matrix(0.36117937,0.24619688,-0.24619688,0.36117937,253.91282,-166.79194)"
         sodipodi:type="arc"
         style="fill:#ffffff;fill-opacity:1;stroke:#000000;stroke-width:4.57552767;stroke-miterlimit:4;stroke-dasharray:none;stroke-dashoffset:0;display:inline"
         id="path4040-2-6-2-5-6"
         sodipodi:cx="442.29529"
         sodipodi:cy="788.25781"
         sodipodi:rx="3.8890872"
         sodipodi:ry="6.7175145"
         d="m 446.18438,788.25781 a 3.8890872,6.7175145 0 1 1 -7.77818,0 3.8890872,6.7175145 0 1 1 7.77818,0 z" />
      <path
         transform="matrix(0.36117937,0.24619688,-0.24619688,0.36117937,265.65795,-174.98261)"
         sodipodi:type="arc"
         style="fill:#ffffff;fill-opacity:1;stroke:#000000;stroke-width:4.57552767;stroke-miterlimit:4;stroke-dasharray:none;stroke-dashoffset:0;display:inline"
         id="path4040-2-6-2-5-1"
         sodipodi:cx="442.29529"
         sodipodi:cy="788.25781"
         sodipodi:rx="3.8890872"
         sodipodi:ry="6.7175145"
         d="m 446.18438,788.25781 a 3.8890872,6.7175145 0 1 1 -7.77818,0 3.8890872,6.7175145 0 1 1 7.77818,0 z" />
      <path
         transform="matrix(0.36117937,0.24619688,-0.24619688,0.36117937,262.87621,-147.31977)"
         sodipodi:type="arc"
         style="fill:#ffffff;fill-opacity:1;stroke:#000000;stroke-width:4.57552767;stroke-miterlimit:4;stroke-dasharray:none;stroke-dashoffset:0;display:inline"
         id="path4040-2-6-2-5-8"
         sodipodi:cx="442.29529"
         sodipodi:cy="788.25781"
         sodipodi:rx="3.8890872"
         sodipodi:ry="6.7175145"
         d="m 446.18438,788.25781 a 3.8890872,6.7175145 0 1 1 -7.77818,0 3.8890872,6.7175145 0 1 1 7.77818,0 z" />
      <path
         transform="matrix(0.36117937,0.24619688,-0.24619688,0.36117937,268.1306,-165.09198)"
         sodipodi:type="arc"
         style="fill:#ffffff;fill-opacity:1;stroke:#000000;stroke-width:4.57552767;stroke-miterlimit:4;stroke-dasharray:none;stroke-dashoffset:0;display:inline"
         id="path4040-2-6-2-5-9"
         sodipodi:cx="442.29529"
         sodipodi:cy="788.25781"
         sodipodi:rx="3.8890872"
         sodipodi:ry="6.7175145"
         d="m 446.18438,788.25781 a 3.8890872,6.7175145 0 1 1 -7.77818,0 3.8890872,6.7175145 0 1 1 7.77818,0 z" />
      <path
         transform="matrix(0.36117937,0.24619688,-0.24619688,0.36117937,268.43969,-158.60126)"
         sodipodi:type="arc"
         style="fill:#ffffff;fill-opacity:1;stroke:#000000;stroke-width:4.57552767;stroke-miterlimit:4;stroke-dasharray:none;stroke-dashoffset:0;display:inline"
         id="path4040-2-6-2-5-2"
         sodipodi:cx="442.29529"
         sodipodi:cy="788.25781"
         sodipodi:rx="3.8890872"
         sodipodi:ry="6.7175145"
         d="m 446.18438,788.25781 a 3.8890872,6.7175145 0 1 1 -7.77818,0 3.8890872,6.7175145 0 1 1 7.77818,0 z" />
      <path
         transform="matrix(0.36117937,0.24619688,-0.24619688,0.36117937,287.29368,-170.50092)"
         sodipodi:type="arc"
         style="fill:#ffffff;fill-opacity:1;stroke:#000000;stroke-width:4.57552767;stroke-miterlimit:4;stroke-dasharray:none;stroke-dashoffset:0;display:inline"
         id="path4040-2-6-2-5-79"
         sodipodi:cx="442.29529"
         sodipodi:cy="788.25781"
         sodipodi:rx="3.8890872"
         sodipodi:ry="6.7175145"
         d="m 446.18438,788.25781 a 3.8890872,6.7175145 0 1 1 -7.77818,0 3.8890872,6.7175145 0 1 1 7.77818,0 z" />
      <path
         transform="matrix(0.36117937,0.24619688,-0.24619688,0.36117937,285.59374,-153.5014)"
         sodipodi:type="arc"
         style="fill:#ffffff;fill-opacity:1;stroke:#000000;stroke-width:4.57552767;stroke-miterlimit:4;stroke-dasharray:none;stroke-dashoffset:0;display:inline"
         id="path4040-2-6-2-5-5"
         sodipodi:cx="442.29529"
         sodipodi:cy="788.25781"
         sodipodi:rx="3.8890872"
         sodipodi:ry="6.7175145"
         d="m 446.18438,788.25781 a 3.8890872,6.7175145 0 1 1 -7.77818,0 3.8890872,6.7175145 0 1 1 7.77818,0 z" />
      <path
         transform="matrix(0.36117937,0.24619688,-0.24619688,0.36117937,242.9404,-150.56512)"
         sodipodi:type="arc"
         style="fill:#ffffff;fill-opacity:1;stroke:#000000;stroke-width:4.57552767;stroke-miterlimit:4;stroke-dasharray:none;stroke-dashoffset:0;display:inline"
         id="path4040-2-6-2-5-4"
         sodipodi:cx="442.29529"
         sodipodi:cy="788.25781"
         sodipodi:rx="3.8890872"
         sodipodi:ry="6.7175145"
         d="m 446.18438,788.25781 a 3.8890872,6.7175145 0 1 1 -7.77818,0 3.8890872,6.7175145 0 1 1 7.77818,0 z" />
    </g>
    <path
       transform="translate(84.715796,27.711696)"
       sodipodi:nodetypes="ccccc"
       inkscape:connector-curvature="0"
       id="path3994"
       d="m 184.18591,240.94226 c 6.815,-6.18685 16.34817,-19.97107 15.35969,-28.87592 2.36009,25.46112 -140.486179,48.92398 -153.242,27.291 5.498375,10.16405 15.656119,17.75176 30.44568,21.59112 25.88865,5.96587 86.73906,-2.42689 107.43663,-20.0062 z"
       style="fill:#550000;stroke:#000000;stroke-width:2;stroke-linecap:butt;stroke-linejoin:miter;stroke-opacity:1;display:inline" />
    <path
       transform="translate(84.715796,27.711696)"
       style="fill:#ffd5d5;stroke:none;display:inline"
       d="m 62.68896,153.78565 c 10.00233,10.28127 20.86931,34.68727 16.28099,43.2636 -2.52265,4.71525 -11.48529,3.95172 -12.05899,-1.05226 l -1.135712,7.70199 5.521922,-0.43903 c -3.4826,2.43852 -26.35212,0.29838 -42.67964,-12.48098"
       id="path6747-0"
       inkscape:connector-curvature="0"
       sodipodi:nodetypes="cscccc" />
    <path
       transform="translate(84.715796,27.711696)"
       style="fill:#ffaaaa;stroke:none;display:inline"
       d="m 78.971287,197.04783 c -2.858863,4.51932 -11.48529,3.95172 -12.05899,-1.05226 l -0.33176,6.80196 4.71797,0.461 c -1.24221,1.26153 -4.12877,1.35207 -5.47664,0.88257 -5.84383,-0.53983 -5.04679,-13.24723 -1.3288,-20.65425 2.14602,-4.27534 11.20843,-7.86974 14.0066,-1.09184 1.485923,3.80658 2.534367,11.39201 0.47162,14.65282 z"
       id="path6747-06"
       inkscape:connector-curvature="0"
       sodipodi:nodetypes="sccccscs" />
    <path
       transform="translate(84.715796,27.711696)"
       style="fill:none;stroke:#000000;stroke-width:2;stroke-linecap:butt;stroke-linejoin:miter;stroke-opacity:1;display:inline"
       d="m 62.692337,153.78399 c 10.002324,10.28127 20.869306,34.68727 16.280986,43.2636 -2.522652,4.71525 -11.485287,3.95172 -12.058986,-1.05226"
       id="path6747"
       inkscape:connector-curvature="0"
       sodipodi:nodetypes="csc" />
    <path
       transform="translate(84.715796,27.711696)"
       style="fill:none;stroke:#000000;stroke-width:2;stroke-linecap:butt;stroke-linejoin:miter;stroke-opacity:1;display:inline"
       d="m 71.300548,203.25829 c -3.482602,2.43852 -26.352124,0.29838 -42.679642,-12.48098"
       id="path3763"
       inkscape:connector-curvature="0"
       sodipodi:nodetypes="cc" />
    <path
       transform="translate(84.715796,27.711696)"
       sodipodi:nodetypes="csc"
       inkscape:connector-curvature="0"
       id="path3765"
       d="m 65.823904,204.14086 c -5.843829,-0.53983 -5.046787,-13.24723 -1.328805,-20.65425 2.146022,-4.27534 11.208437,-7.86974 14.006602,-1.09184"
       style="fill:none;stroke:#000000;stroke-width:2;stroke-linecap:butt;stroke-linejoin:miter;stroke-opacity:1;display:inline" />
  </g>
  <g
     inkscape:groupmode="layer"
     id="layer5"
     inkscape:label="豚: 帽子"
     style="display:inline"
     sodipodi:insensitive="true">
    <path
       sodipodi:nodetypes="csscc"
       inkscape:connector-curvature="0"
       id="path3423"
       d="m 115.05033,69.304546 c -0.5154,-17.792764 -6.57818,-27.54383 -1.95585,-45.639372 3.95457,-15.4814054 61.72395,-16.8817981 67.72019,-1.257963 4.75659,12.393783 -1.29605,24.987431 1.06263,42.66114 -0.84589,17.125598 -66.38088,20.506085 -66.82697,4.236195 z"
       style="fill:#fefefe;fill-opacity:1;stroke:#000000;stroke-width:2;stroke-linecap:butt;stroke-linejoin:miter;stroke-opacity:1;display:inline" />
    <path
       sodipodi:nodetypes="ccccc"
       inkscape:connector-curvature="0"
       id="path3421"
       d="m 115.00685,68.811469 0.80267,25.78021 c 0.32597,6.110821 66.67662,5.327477 66.6719,-3.983547 l -0.61844,-25.688994 c 0.2074,7.157986 -66.85516,9.483435 -66.85613,3.892331 z"
       style="fill:#fefefe;fill-opacity:1;stroke:#000000;stroke-width:2;stroke-linecap:butt;stroke-linejoin:miter;stroke-opacity:1;display:inline" />
    <path
       sodipodi:nodetypes="cc"
       inkscape:connector-curvature="0"
       id="path3425"
       d="m 121.71752,71.125178 c -0.17427,-9.318975 -7.38244,-29.679864 -2.5429,-42.637829"
       style="fill:none;stroke:#000000;stroke-width:2;stroke-linecap:butt;stroke-linejoin:miter;stroke-opacity:1;display:inline" />
    <path
       sodipodi:nodetypes="cc"
       inkscape:connector-curvature="0"
       id="path3427"
       d="m 129.02864,30.793612 c -4.10782,16.806356 1.52449,26.448097 2.12731,41.00397"
       style="fill:none;stroke:#000000;stroke-width:2;stroke-linecap:butt;stroke-linejoin:miter;stroke-opacity:1;display:inline" />
    <path
       sodipodi:nodetypes="cc"
       inkscape:connector-curvature="0"
       id="path3429"
       d="M 142.6947,71.945833 C 142.48425,56.284914 136.52245,47.724661 141.39859,31.003275"
       style="fill:none;stroke:#000000;stroke-width:2;stroke-linecap:butt;stroke-linejoin:miter;stroke-opacity:1;display:inline" />
    <path
       sodipodi:nodetypes="cc"
       inkscape:connector-curvature="0"
       id="path3431"
       d="m 154.81683,30.164634 c -3.84172,16.516937 1.14812,24.829606 1.50051,40.842998"
       style="fill:none;stroke:#000000;stroke-width:2;stroke-linecap:butt;stroke-linejoin:miter;stroke-opacity:1;display:inline" />
    <path
       sodipodi:nodetypes="cc"
       inkscape:connector-curvature="0"
       id="path3433"
       d="M 167.92804,69.823793 C 167.33711,54.946746 163.71403,45.907329 167.18677,29.116335"
       style="fill:none;stroke:#000000;stroke-width:2;stroke-linecap:butt;stroke-linejoin:miter;stroke-opacity:1;display:inline" />
    <path
       sodipodi:nodetypes="cc"
       inkscape:connector-curvature="0"
       id="path3435"
       d="m 176.41182,26.600409 c -1.96499,18.889191 0.89225,25.232989 0.91803,41.275041"
       style="fill:none;stroke:#000000;stroke-width:2;stroke-linecap:butt;stroke-linejoin:miter;stroke-opacity:1;display:inline" />
  </g>
  <g
     inkscape:groupmode="layer"
     id="layer7"
     inkscape:label="枠面"
     style="display:inline"
     sodipodi:insensitive="true">
    <path
       style="fill:#ffffff;stroke:none;display:inline"
       d="m 0,0 0,320 370,0 0,-320 -10,10 0,300 -350,0 0,-300 350,0 10,-10 z"
       id="path21072"
       inkscape:connector-curvature="0"
       sodipodi:nodetypes="ccccccccccc" />
  </g>
</svg>
