<?xml version="1.0" encoding="UTF-8" standalone="no"?>
<!-- Created with Inkscape (http://www.inkscape.org/) -->

<svg
   xmlns:dc="http://purl.org/dc/elements/1.1/"
   xmlns:cc="http://creativecommons.org/ns#"
   xmlns:rdf="http://www.w3.org/1999/02/22-rdf-syntax-ns#"
   xmlns:svg="http://www.w3.org/2000/svg"
   xmlns="http://www.w3.org/2000/svg"
   xmlns:xlink="http://www.w3.org/1999/xlink"
   xmlns:sodipodi="http://sodipodi.sourceforge.net/DTD/sodipodi-0.dtd"
   xmlns:inkscape="http://www.inkscape.org/namespaces/inkscape"
   width="370"
   height="320"
   id="svg2"
   version="1.1"
   inkscape:version="0.48.4 r9939"
   sodipodi:docname="[05.社交]02.同行.svg"
   inkscape:export-filename="C:\Users\執安\Desktop\資料\臨時\TAKEDA\[05.社交]02.同行.png"
   inkscape:export-xdpi="90"
   inkscape:export-ydpi="90"
   enable-background="new">
  <defs
     id="defs4">
    <inkscape:perspective
       sodipodi:type="inkscape:persp3d"
       inkscape:vp_x="363.49708 : 943.81603 : 1"
       inkscape:vp_y="0 : 1000 : 0"
       inkscape:vp_z="744.09448 : 526.18109 : 1"
       inkscape:persp3d-origin="372.04724 : 350.78739 : 1"
       id="perspective5056" />
    <inkscape:perspective
       id="perspective5056-8"
       inkscape:persp3d-origin="372.04724 : 350.78739 : 1"
       inkscape:vp_z="744.09448 : 526.18109 : 1"
       inkscape:vp_y="0 : 1000 : 0"
       inkscape:vp_x="363.49708 : 943.81603 : 1"
       sodipodi:type="inkscape:persp3d" />
    <linearGradient
       id="linearGradient12499-5-3"
       inkscape:collect="always">
      <stop
         id="stop12501-0-8"
         offset="0"
         style="stop-color:#ffd5d5;stop-opacity:1;" />
      <stop
         id="stop12503-9-9"
         offset="1"
         style="stop-color:#ffd5d5;stop-opacity:0;" />
    </linearGradient>
    <linearGradient
       id="linearGradient12499-5"
       inkscape:collect="always">
      <stop
         id="stop12501-0"
         offset="0"
         style="stop-color:#ffd5d5;stop-opacity:1;" />
      <stop
         id="stop12503-9"
         offset="1"
         style="stop-color:#ffd5d5;stop-opacity:0;" />
    </linearGradient>
    <linearGradient
       id="linearGradient12499-8"
       inkscape:collect="always">
      <stop
         id="stop12501-6"
         offset="0"
         style="stop-color:#ffd5d5;stop-opacity:1;" />
      <stop
         id="stop12503-0"
         offset="1"
         style="stop-color:#ffd5d5;stop-opacity:0;" />
    </linearGradient>
    <linearGradient
       gradientTransform="translate(0,-7)"
       gradientUnits="userSpaceOnUse"
       y2="78.526123"
       x2="178.78178"
       y1="135.02612"
       x1="175.8602"
       id="linearGradient12505-2"
       xlink:href="#linearGradient12499-8"
       inkscape:collect="always" />
    <linearGradient
       id="linearGradient12499-9"
       inkscape:collect="always">
      <stop
         id="stop12501-8"
         offset="0"
         style="stop-color:#ffd5d5;stop-opacity:1;" />
      <stop
         id="stop12503-6"
         offset="1"
         style="stop-color:#ffd5d5;stop-opacity:0;" />
    </linearGradient>
    <linearGradient
       gradientTransform="translate(0,-7)"
       gradientUnits="userSpaceOnUse"
       y2="78.526123"
       x2="178.78178"
       y1="135.02612"
       x1="175.8602"
       id="linearGradient12505-1"
       xlink:href="#linearGradient12499-9"
       inkscape:collect="always" />
    <inkscape:perspective
       id="perspective5056-5"
       inkscape:persp3d-origin="372.04724 : 350.78739 : 1"
       inkscape:vp_z="744.09448 : 526.18109 : 1"
       inkscape:vp_y="0 : 1000 : 0"
       inkscape:vp_x="363.49708 : 943.81603 : 1"
       sodipodi:type="inkscape:persp3d" />
    <linearGradient
       id="linearGradient12499"
       inkscape:collect="always">
      <stop
         id="stop12501"
         offset="0"
         style="stop-color:#ffd5d5;stop-opacity:1;" />
      <stop
         id="stop12503"
         offset="1"
         style="stop-color:#ffd5d5;stop-opacity:0;" />
    </linearGradient>
    <linearGradient
       inkscape:collect="always"
       xlink:href="#linearGradient12499"
       id="linearGradient4842"
       gradientUnits="userSpaceOnUse"
       gradientTransform="matrix(0.98323667,-0.18233388,0.18233388,0.98323667,74.736688,42.602255)"
       x1="175.8602"
       y1="135.02612"
       x2="180.12286"
       y2="104.20104" />
    <linearGradient
       inkscape:collect="always"
       xlink:href="#linearGradient12499-5"
       id="linearGradient4848"
       gradientUnits="userSpaceOnUse"
       gradientTransform="matrix(0.99586062,-0.09089341,0.09089341,0.99586062,90.234074,51.049697)"
       x1="184.3886"
       y1="140.77484"
       x2="178.00351"
       y2="106.50191" />
    <linearGradient
       inkscape:collect="always"
       xlink:href="#linearGradient12499-5-3"
       id="linearGradient4854"
       gradientUnits="userSpaceOnUse"
       gradientTransform="matrix(0.99850313,0.05469451,-0.05469451,0.99850313,114.06992,56.176849)"
       x1="186.74098"
       y1="139.74136"
       x2="168.63582"
       y2="87.2258" />
    <inkscape:perspective
       sodipodi:type="inkscape:persp3d"
       inkscape:vp_x="363.49708 : 943.81603 : 1"
       inkscape:vp_y="0 : 1000 : 0"
       inkscape:vp_z="744.09448 : 526.18109 : 1"
       inkscape:persp3d-origin="372.04724 : 350.78739 : 1"
       id="perspective5056-4" />
    <inkscape:perspective
       sodipodi:type="inkscape:persp3d"
       inkscape:vp_x="363.49708 : 943.81603 : 1"
       inkscape:vp_y="0 : 1000 : 0"
       inkscape:vp_z="744.09448 : 526.18109 : 1"
       inkscape:persp3d-origin="372.04724 : 350.78739 : 1"
       id="perspective5056-8-7" />
    <inkscape:perspective
       id="perspective5056-85"
       inkscape:persp3d-origin="372.04724 : 350.78739 : 1"
       inkscape:vp_z="744.09448 : 526.18109 : 1"
       inkscape:vp_y="0 : 1000 : 0"
       inkscape:vp_x="363.49708 : 943.81603 : 1"
       sodipodi:type="inkscape:persp3d" />
    <inkscape:perspective
       id="perspective5056-40"
       inkscape:persp3d-origin="372.04724 : 350.78739 : 1"
       inkscape:vp_z="744.09448 : 526.18109 : 1"
       inkscape:vp_y="0 : 1000 : 0"
       inkscape:vp_x="363.49708 : 943.81603 : 1"
       sodipodi:type="inkscape:persp3d" />
  </defs>
  <sodipodi:namedview
     id="base"
     pagecolor="#ffffff"
     bordercolor="#666666"
     borderopacity="1.0"
     inkscape:pageopacity="0.0"
     inkscape:pageshadow="2"
     inkscape:zoom="0.70710678"
     inkscape:cx="117.40845"
     inkscape:cy="205.3802"
     inkscape:document-units="px"
     inkscape:current-layer="layer11"
     showgrid="false"
     inkscape:window-width="1139"
     inkscape:window-height="695"
     inkscape:window-x="-3"
     inkscape:window-y="-3"
     inkscape:window-maximized="0"
     showguides="true"
     inkscape:guide-bbox="true"
     inkscape:snap-grids="false"
     inkscape:snap-to-guides="false"
     showborder="true"
     inkscape:showpageshadow="false"
     fit-margin-top="0"
     fit-margin-left="0"
     fit-margin-right="0"
     fit-margin-bottom="0"
     inkscape:snap-page="false" />
  <metadata
     id="metadata7">
    <rdf:RDF>
      <cc:Work
         rdf:about="">
        <dc:format>image/svg+xml</dc:format>
        <dc:type
           rdf:resource="http://purl.org/dc/dcmitype/StillImage" />
        <dc:title></dc:title>
      </cc:Work>
    </rdf:RDF>
  </metadata>
  <g
     inkscape:groupmode="layer"
     id="layer2"
     inkscape:label="補助線"
     style="display:none"
     sodipodi:insensitive="true">
    <path
       style="fill:none;stroke:#0000ff;stroke-width:1px;stroke-linecap:butt;stroke-linejoin:miter;stroke-opacity:1"
       d="M 10,310 360,10"
       id="path3025"
       inkscape:connector-curvature="0"
       sodipodi:nodetypes="cc" />
    <path
       style="fill:none;stroke:#0000ff;stroke-width:1px;stroke-linecap:butt;stroke-linejoin:miter;stroke-opacity:1"
       d="M 10,10 360,310"
       id="path3027"
       inkscape:connector-curvature="0"
       sodipodi:nodetypes="cc" />
    <path
       style="fill:none;stroke:#ff0000;stroke-width:1px;stroke-linecap:butt;stroke-linejoin:miter;stroke-opacity:1;display:inline"
       d="m 10,0 0,320"
       id="path3006"
       inkscape:connector-curvature="0"
       sodipodi:nodetypes="cc" />
    <path
       style="fill:none;stroke:#ff0000;stroke-width:1px;stroke-linecap:butt;stroke-linejoin:miter;stroke-opacity:1;display:inline"
       d="m 360,0 0,320"
       id="path3010"
       inkscape:connector-curvature="0"
       sodipodi:nodetypes="cc" />
    <path
       style="fill:none;stroke:#ff0000;stroke-width:1px;stroke-linecap:butt;stroke-linejoin:miter;stroke-opacity:1;display:inline"
       d="M 0,9.9999681 370,10"
       id="path3016"
       inkscape:connector-curvature="0" />
    <path
       transform="translate(84.715796,27.711696)"
       style="fill:none;stroke:#ff0000;stroke-width:1px;stroke-linecap:butt;stroke-linejoin:miter;stroke-opacity:1;display:inline"
       d="m -84.715796,282.2883 369.999996,0"
       id="path3018"
       inkscape:connector-curvature="0"
       sodipodi:nodetypes="cc" />
  </g>
  <g
     inkscape:groupmode="layer"
     id="layer5"
     inkscape:label="吹き出し"
     sodipodi:insensitive="true"
     style="display:inline">
    <text
       xml:space="preserve"
       style="font-size:79.57382965px;font-style:normal;font-weight:normal;line-height:125%;letter-spacing:0px;word-spacing:0px;fill:#000000;fill-opacity:1;stroke:none;font-family:Sans"
       x="103.57432"
       y="297.27219"
       id="text7212"
       sodipodi:linespacing="125%"><tspan
         sodipodi:role="line"
         id="tspan7214"
         x="103.57432"
         y="297.27219"
         style="font-style:normal;font-variant:normal;font-weight:normal;font-stretch:normal;font-family:HGSHeiseiMinchotaiW9;-inkscape-font-specification:HGSHeiseiMinchotaiW9">長蛇</tspan></text>
  </g>
  <g
     inkscape:groupmode="layer"
     id="layer4"
     inkscape:label="パンダ-C"
     style="display:inline"
     sodipodi:insensitive="true">
    <path
       style="fill:#1a1a1a;stroke:#000000;stroke-width:2;stroke-linecap:butt;stroke-linejoin:miter;stroke-opacity:1"
       d="M 243.75609,82.79016 C 240.19857,68.146803 257.8906,57.616467 265.53089,62.036058"
       id="path5071-7-1-2-9"
       inkscape:connector-curvature="0"
       sodipodi:nodetypes="cc" />
    <path
       style="fill:#1a1a1a;stroke:#000000;stroke-width:2;stroke-linecap:butt;stroke-linejoin:miter;stroke-opacity:1"
       d="m 239.25393,120.7291 c -13.33438,16.0389 -20.70191,42.21456 -17.71788,47.1176 7.38087,12.12739 36.80797,-26.8284 38.66815,-27.56218"
       id="path5077-4-4-7-5"
       inkscape:connector-curvature="0"
       sodipodi:nodetypes="csc" />
    <path
       style="fill:#e6e6e6;stroke:none"
       d="m 354.92403,160.08078 c -0.86626,-10.34655 -3.41757,-32.02367 -15.56311,-45.9042 5.87615,-22.55256 -12.88285,-49.540895 -47.86587,-55.876383 -25.11836,-4.548996 -48.6352,16.434353 -48.48925,29.426273 -4.7596,4.4118 -8.64396,8.20539 -8.69013,15.98125 -0.0323,5.43667 2.20587,15.1487 7.95445,21.35232 -17.3113,34.00981 -22.38025,60.13035 -10.65979,77.03085 -9.39466,2.57617 -15.08149,9.73863 -8.36713,14.08681 8.60547,5.57284 41.0398,4.48858 40.23087,-0.40671 8.8716,1.02477 20.59893,-2.09209 35.40838,-2.17386 -7.43281,9.86962 12.06995,12.83313 30.6846,5.96964 16.90841,-6.23438 23.00679,-11.80568 22.34279,-17.64458 12.27617,-8.40646 4.39501,-25.34906 3.01419,-41.84141 z"
       id="path5067-7-0-2-6-4"
       inkscape:connector-curvature="0"
       sodipodi:nodetypes="scscsccsccscs" />
    <path
       sodipodi:nodetypes="scsscs"
       inkscape:connector-curvature="0"
       id="path3388-9-3-1-3"
       d="m 221.08811,213.96196 c -2.72415,-4.64107 3.02669,-9.95546 10.62328,-11.88571 2.75963,2.96777 4.80389,3.83029 7.51554,4.70473 1.10129,0.35514 6.6411,2.43118 7.654,3.24956 4.19363,3.38838 11.30618,5.95212 20.74692,5.77014 1.55384,4.86948 -41.39587,6.92477 -46.53974,-1.83872 z"
       style="fill:#1a1a1a;stroke:none" />
    <path
       sodipodi:nodetypes="csccscc"
       inkscape:connector-curvature="0"
       id="path3386-4-2-4-1"
       d="m 242.32455,125.20341 c 2.37391,2.02987 4.43027,7.49016 12.06583,7.99809 32.28253,2.14747 57.32029,-7.88874 84.8357,-18.89141 10.32734,11.46921 15.92495,33.94605 15.89052,50.15525 -14.52005,-15.37186 -90.33668,-24.18224 -102.8088,-24.37205 -9.12411,-0.13883 -15.93413,2.79507 -20.45637,8.00168 2.12997,-7.79447 7.69439,-18.72519 10.47312,-22.89156 z"
       style="fill:#1a1a1a;stroke:none" />
    <path
       sodipodi:nodetypes="cscssc"
       inkscape:connector-curvature="0"
       id="path3390-8-2-2-2"
       d="m 351.93181,201.96688 c 1.83808,9.13632 -11.37714,15.50803 -19.19794,18.58334 -16.57211,6.5165 -42.08008,3.75101 -33.86687,-6.88771 5.27128,-0.52291 10.45156,0.72477 14.41266,1.49608 17.32513,3.37356 26.30019,-7.52632 32.81127,-9.80546 2.45653,-0.85989 4.0978,-2.29605 5.84088,-3.38625 z"
       style="fill:#1a1a1a;stroke:none" />
    <path
       style="fill:none;stroke:#000000;stroke-width:2;stroke-linecap:butt;stroke-linejoin:miter;stroke-opacity:1"
       d="m 242.92981,87.68008 c -0.47113,-12.62724 23.2917,-33.786274 48.41005,-29.237277 34.98302,6.335488 53.74202,33.323827 47.86587,55.876387 12.14554,13.88052 15.07421,35.53297 15.56311,45.9042 0.78447,16.64144 12.40351,35.70777 -8.68604,45.15816"
       id="path5067-8-1-3-3"
       inkscape:connector-curvature="0"
       sodipodi:nodetypes="cscsc" />
    <path
       style="fill:#1a1a1a;stroke:#000000;stroke-width:2;stroke-linecap:butt;stroke-linejoin:miter;stroke-opacity:1"
       d="M 294.83938,72.097194 C 293.42025,60.714161 317.87384,62.145031 324.61867,71.802676 335.01033,86.68203 314.48491,105.69628 308.91563,99.89322 300.51661,91.14166 296.09824,82.1947 294.83938,72.097194 z"
       id="path5069-2-6-2-3"
       inkscape:connector-curvature="0"
       sodipodi:nodetypes="ssss" />
    <path
       style="fill:#1a1a1a;stroke:#000000;stroke-width:2;stroke-linecap:butt;stroke-linejoin:miter;stroke-opacity:1"
       d="m 257.76655,94.17455 c -4.16524,-3.72354 -0.15254,-8.92664 3.10665,-8.33066 6.22402,1.13815 14.87188,7.0067 17.63508,13.74674 1.25846,3.06966 -3.8146,8.05761 -7.73359,7.47817 -5.47095,-0.80889 -10.41656,-10.5775 -13.00814,-12.89425 z"
       id="path5073-4-8-2-4"
       inkscape:connector-curvature="0"
       sodipodi:nodetypes="sssss" />
    <path
       style="fill:none;stroke:#000000;stroke-width:2;stroke-linecap:butt;stroke-linejoin:miter;stroke-opacity:1"
       d="m 245.2312,85.87939 c -4.78581,3.76596 -10.9997,9.69812 -11.07072,17.97093 -0.0467,5.43655 2.41671,14.0945 8.21509,21.32799"
       id="path5075-5-5-1-1"
       inkscape:connector-curvature="0"
       sodipodi:nodetypes="csc" />
    <path
       style="fill:none;stroke:#000000;stroke-width:2;stroke-linecap:butt;stroke-linejoin:miter;stroke-opacity:1"
       d="m 234.28246,141.81672 c -14.82926,36.42323 -9.72324,61.21373 4.97632,65.02075"
       id="path5079-5-7-6-1"
       inkscape:connector-curvature="0"
       sodipodi:nodetypes="cc" />
    <path
       style="fill:none;stroke:#000000;stroke-width:2;stroke-linecap:butt;stroke-linejoin:miter;stroke-opacity:1"
       d="m 246.8691,210.03731 c 15.62885,12.97239 44.82844,-0.63082 66.41097,5.12931"
       id="path5081-1-6-8-3"
       inkscape:connector-curvature="0"
       sodipodi:nodetypes="cc" />
    <path
       style="fill:#1a1a1a;stroke:#000000;stroke-width:2;stroke-linecap:butt;stroke-linejoin:miter;stroke-opacity:1"
       d="m 300.20909,139.10061 c -0.1566,18.8367 -5.54867,41.10276 1.66588,44.18045 10.43094,4.4498 31.12738,-9.02886 37.61265,-27.88031"
       id="path5083-7-1-5-8"
       inkscape:connector-curvature="0"
       sodipodi:nodetypes="csc" />
    <path
       style="fill:#1a1a1a;stroke:#000000;stroke-width:2;stroke-linecap:butt;stroke-linejoin:miter;stroke-opacity:1"
       d="m 235.73635,100.28775 c 1.97623,-3.42595 17.21391,2.27716 16.71994,6.80466 -0.72664,6.65981 -6.54427,8.51672 -9.91531,7.9711 -3.1779,-0.51437 -9.01651,-10.94126 -6.80463,-14.77576 z"
       id="path5085-1-8-7-7"
       inkscape:connector-curvature="0"
       sodipodi:nodetypes="ssss" />
    <path
       style="fill:none;stroke:#000000;stroke-width:2;stroke-linecap:butt;stroke-linejoin:miter;stroke-opacity:1"
       d="m 243.20516,115.082 c 7.24054,4.1828 15.36803,9.93129 17.61109,2.12013"
       id="path5087-1-9-6-4"
       inkscape:connector-curvature="0"
       sodipodi:nodetypes="cc" />
    <path
       sodipodi:nodetypes="csc"
       inkscape:connector-curvature="0"
       id="path3291-5-2-1-2"
       d="m 298.90232,213.65533 c -6.77877,7.15048 9.81954,15.59456 33.92552,6.86749 16.94488,-6.13455 20.61153,-14.50333 19.09227,-18.6172"
       style="fill:none;stroke:#000000;stroke-width:2;stroke-linecap:butt;stroke-linejoin:miter;stroke-opacity:1" />
    <path
       sodipodi:nodetypes="csc"
       inkscape:connector-curvature="0"
       id="path3293-2-7-8-7"
       d="m 231.65245,202.12691 c -8.64776,1.51491 -15.10488,9.73341 -8.39051,14.0816 8.60547,5.57284 45.71118,4.10341 44.33136,-0.38206"
       style="fill:none;stroke:#000000;stroke-width:2;stroke-linecap:butt;stroke-linejoin:miter;stroke-opacity:1" />
    <path
       sodipodi:nodetypes="cc"
       inkscape:connector-curvature="0"
       id="path3295-7-9-9-7"
       d="m 237.85859,115.07385 c 0.92402,1.53599 1.75859,1.45539 4.22271,-0.088"
       style="fill:none;stroke:#000000;stroke-width:2;stroke-linecap:butt;stroke-linejoin:miter;stroke-opacity:1" />
  </g>
  <g
     inkscape:groupmode="layer"
     id="layer11"
     inkscape:label="豚"
     style="display:inline"
     sodipodi:insensitive="true">
    <path
       style="fill:#ffd5d5;stroke:#000000;stroke-width:2;stroke-linecap:butt;stroke-linejoin:miter;stroke-opacity:1;display:inline"
       d="m 212.18231,210.18935 c -13.71055,2.06001 -28.84309,4.5074 -37.32555,1.08541 -8.00798,-3.23063 -5.93729,-17.07061 3.69111,-23.43788 l 0.81872,-41.31195 c 1.6128,-17.32065 9.83191,-29.68953 17.76745,-35.70868 l 13.67986,-23.580594 17.389,-12.979657 56.41466,39.434511 11.89085,60.69532 c 0.64941,12.8399 -6.57363,25.93652 -4.22254,30.7364 8.54459,17.44419 -2.56991,21.3473 -19.83655,20.0107 -12.63487,-0.97809 -21.31043,-5.81359 -29.29986,-10.04346"
       id="path10343"
       inkscape:connector-curvature="0"
       sodipodi:nodetypes="cscccccccssc" />
    <path
       sodipodi:nodetypes="cc"
       inkscape:connector-curvature="0"
       id="path5143-0"
       d="M 238.46199,71.165698 C 221.74229,69.751004 209.4193,78.79144 206.26964,93.39939"
       style="fill:#ffd5d5;stroke:#000000;stroke-width:2;stroke-linecap:butt;stroke-linejoin:miter;stroke-opacity:1;display:inline" />
    <path
       style="fill:#ffd5d5;stroke:#000000;stroke-width:2;stroke-linecap:butt;stroke-linejoin:miter;stroke-opacity:1;display:inline"
       d="m 245.90363,216.51893 c -17.79921,-2.01514 -31.59586,-3.7282 -38.66241,-9.21566"
       id="path10345"
       inkscape:connector-curvature="0" />
    <path
       style="fill:#ffd5d5;stroke:#000000;stroke-width:2;stroke-linecap:butt;stroke-linejoin:miter;stroke-opacity:1;display:inline"
       d="M 181.88921,192.00994 C 170.67386,179.75992 169.64769,155.9233 186.87006,135.2768"
       id="path5155-4"
       inkscape:connector-curvature="0" />
    <path
       sodipodi:nodetypes="csssc"
       inkscape:connector-curvature="0"
       id="path5163-71-8"
       d="m 265.11889,160.80698 c -1.55124,13.21099 -4.12652,22.2058 -2.65813,27.19846 0.8682,2.95201 3.93552,0.61603 5.18195,2.0692 1.45388,1.69502 0.5623,5.21989 4.07423,5.24273 11.97881,0.0779 34.71293,-12.80719 23.77074,-55.01429"
       style="fill:#ffd5d5;stroke:none;display:inline" />
    <path
       sodipodi:nodetypes="sssccs"
       inkscape:connector-curvature="0"
       id="path5163-71-0"
       d="m 271.71496,195.31838 c -3.42164,-0.79166 -2.62038,-3.54768 -4.07425,-5.24271 -1.24643,-1.45319 -4.06293,0.79713 -5.18194,-2.06922 -0.90898,-2.32826 -0.93841,-5.92231 -0.20998,-7.33886 2.74071,-6.65083 21.28218,9.75518 15.71203,13.66385 -1.73042,0.90992 -4.58523,1.3712 -6.24586,0.98694 z"
       style="fill:#ffaaaa;stroke:none;display:inline" />
    <path
       sodipodi:nodetypes="csssc"
       inkscape:connector-curvature="0"
       id="path5163-71"
       d="m 265.11972,160.80673 c -1.55124,13.21099 -4.1265,22.20581 -2.65813,27.19846 0.86821,2.95199 3.93553,0.61603 5.18195,2.06922 1.45387,1.69503 0.56231,5.21987 4.07424,5.24271 11.9788,0.0778 34.71293,-12.80719 23.77074,-55.01429"
       style="fill:none;stroke:#000000;stroke-width:2;stroke-linecap:butt;stroke-linejoin:miter;stroke-opacity:1;display:inline" />
    <path
       sodipodi:nodetypes="cc"
       inkscape:connector-curvature="0"
       id="path5165-1"
       d="m 262.25161,180.66633 c 2.74073,-6.65084 21.28219,9.75518 15.71203,13.66385"
       style="fill:none;stroke:#000000;stroke-width:2;stroke-linecap:butt;stroke-linejoin:miter;stroke-opacity:1;display:inline" />
    <path
       sodipodi:nodetypes="cc"
       inkscape:connector-curvature="0"
       id="path5145-9"
       d="M 212.70799,88.567429 C 200.76978,95.037087 194.99711,109.65039 197.9153,122.34377"
       style="fill:#ffd5d5;stroke:#000000;stroke-width:2;stroke-linecap:butt;stroke-linejoin:miter;stroke-opacity:1;display:inline" />
    <path
       sodipodi:nodetypes="ssssss"
       inkscape:connector-curvature="0"
       id="path5153-2"
       d="m 229.12767,101.19392 c 6.31783,3.46084 10.43829,11.74725 11.64213,20.57627 1.56348,11.46646 -4.91604,17.88933 -12.38602,12.00187 -6.56225,-5.17204 -12.2779,-8.15952 -18.40314,-11.02625 -4.88275,-2.28521 -3.39696,-8.96259 -0.39671,-13.86419 4.85084,-7.92496 13.02095,-11.260789 19.54374,-7.6877 z"
       style="fill:#ffaaaa;stroke:#000000;stroke-width:2;stroke-linecap:butt;stroke-linejoin:miter;stroke-opacity:1;display:inline" />
    <path
       sodipodi:nodetypes="sss"
       inkscape:connector-curvature="0"
       id="path5159-5"
       d="m 229.28436,126.50662 c -1.94162,2.13323 -1.99171,-16.98705 -0.45144,-16.49237 2.66309,0.85532 4.58932,11.94608 0.45144,16.49237 z"
       style="fill:#000000;stroke:#000000;stroke-width:2;stroke-linecap:butt;stroke-linejoin:miter;stroke-opacity:1;display:inline" />
    <path
       sodipodi:nodetypes="sss"
       inkscape:connector-curvature="0"
       id="path5161-1"
       d="m 221.70143,106.91059 c 1.70527,0.4003 -5.02963,14.04689 -6.01527,11.98733 -2.13863,-4.46888 4.35476,-12.37713 6.01527,-11.98733 z"
       style="fill:#000000;stroke:#000000;stroke-width:2;stroke-linecap:butt;stroke-linejoin:miter;stroke-opacity:1;display:inline" />
    <path
       style="fill:#ffd5d5;stroke:#000000;stroke-width:2;stroke-linecap:butt;stroke-linejoin:miter;stroke-opacity:1;display:inline"
       d="m 292.21472,149.64222 c 5.66537,-4.8847 7.11504,-22.3137 2.23765,-39.716 -9.63942,-34.392974 -44.52191,-49.814851 -68.93523,-32.987669"
       id="path10349"
       inkscape:connector-curvature="0"
       sodipodi:nodetypes="csc" />
    <path
       sodipodi:nodetypes="csc"
       inkscape:connector-curvature="0"
       id="path5151-8"
       d="m 285.21781,92.485075 c 23.45375,19.121415 9.26764,50.781725 -6.41467,49.697815 -5.76433,-0.39841 -5.45717,-17.60835 -7.92073,-27.82644"
       style="fill:#ffd5d5;stroke:#000000;stroke-width:2;stroke-linecap:butt;stroke-linejoin:miter;stroke-opacity:1;display:inline" />
    <path
       sodipodi:nodetypes="cc"
       inkscape:connector-curvature="0"
       id="path5147-4"
       d="m 226.80764,88.151041 -0.86791,7.386736"
       style="fill:none;stroke:#000000;stroke-width:2;stroke-linecap:butt;stroke-linejoin:miter;stroke-opacity:1;display:inline" />
    <path
       sodipodi:nodetypes="cc"
       inkscape:connector-curvature="0"
       id="path5149-8"
       d="m 248.92108,99.958735 -9.22552,3.800835"
       style="fill:none;stroke:#000000;stroke-width:2;stroke-linecap:butt;stroke-linejoin:miter;stroke-opacity:1;display:inline" />
  </g>
  <g
     inkscape:groupmode="layer"
     id="layer3"
     inkscape:label="パンダ-B"
     style="display:inline"
     sodipodi:insensitive="true">
    <path
       style="fill:#1a1a1a;stroke:#000000;stroke-width:2;stroke-linecap:butt;stroke-linejoin:miter;stroke-opacity:1"
       d="M 99.562911,82.56008 C 96.005406,67.916709 113.69742,57.386375 121.33772,61.805965"
       id="path5071-7-1-2-9-3"
       inkscape:connector-curvature="0"
       sodipodi:nodetypes="cc" />
    <path
       style="fill:#1a1a1a;stroke:#000000;stroke-width:2;stroke-linecap:butt;stroke-linejoin:miter;stroke-opacity:1"
       d="m 95.060764,120.49901 c -13.334384,16.0389 -20.701922,42.21456 -17.717888,47.1176 7.380868,12.12739 36.807964,-26.8284 38.668154,-27.56219"
       id="path5077-4-4-7-5-1"
       inkscape:connector-curvature="0"
       sodipodi:nodetypes="csc" />
    <path
       style="fill:#e6e6e6;stroke:none"
       d="M 210.73086,159.85069 C 209.8646,149.50415 207.31329,127.82702 195.16775,113.9465 201.04389,91.39393 182.28491,64.405591 147.30187,58.070104 122.18352,53.521107 98.66669,74.50445 98.812628,87.49638 c -4.759599,4.4118 -8.643955,8.20538 -8.690127,15.98124 -0.03229,5.43668 2.205867,15.14871 7.954458,21.35232 -17.311318,34.00983 -22.380253,60.13036 -10.659804,77.03085 -9.394657,2.57618 -15.081496,9.73864 -8.36713,14.08682 8.605468,5.57284 41.039805,4.48857 40.230885,-0.40672 8.87159,1.02477 20.59893,-2.09208 35.40838,-2.17386 -7.43283,9.86963 12.06994,12.83314 30.68458,5.96964 16.90843,-6.23438 23.00679,-11.80567 22.34281,-17.64457 12.27617,-8.40646 4.39501,-25.34907 3.01418,-41.84141 z"
       id="path5067-7-0-2-6-4-9"
       inkscape:connector-curvature="0"
       sodipodi:nodetypes="scscsccsccscs" />
    <path
       sodipodi:nodetypes="scsscs"
       inkscape:connector-curvature="0"
       id="path3388-9-3-1-3-8"
       d="m 76.894941,213.73187 c -2.72415,-4.64107 3.026684,-9.95546 10.623275,-11.88571 2.75964,2.96777 4.803889,3.83029 7.515545,4.70473 1.101286,0.35514 6.641109,2.43117 7.653999,3.24956 4.19363,3.38838 11.30618,5.95211 20.74693,5.77015 1.55382,4.86947 -41.395878,6.92475 -46.539749,-1.83873 z"
       style="fill:#1a1a1a;stroke:none" />
    <path
       sodipodi:nodetypes="csccscc"
       inkscape:connector-curvature="0"
       id="path3386-4-2-4-1-6"
       d="m 98.131378,124.97331 c 2.373922,2.02987 4.430272,7.49017 12.065842,7.99809 32.28252,2.14747 57.32028,-7.88872 84.8357,-18.89141 10.32734,11.46921 15.92493,33.94606 15.89051,50.15526 -14.52006,-15.37186 -90.33669,-24.18225 -102.80879,-24.37205 -9.12411,-0.13883 -15.934142,2.79507 -20.456383,8.00168 2.129969,-7.79448 7.694385,-18.7252 10.473121,-22.89157 z"
       style="fill:#1a1a1a;stroke:none" />
    <path
       sodipodi:nodetypes="cscssc"
       inkscape:connector-curvature="0"
       id="path3390-8-2-2-2-5"
       d="m 207.73865,201.73678 c 1.83807,9.13633 -11.37715,15.50804 -19.19795,18.58335 -16.57212,6.5165 -42.08008,3.75101 -33.86687,-6.88771 5.27127,-0.52291 10.45155,0.72476 14.41266,1.49607 17.32513,3.37356 26.30019,-7.52631 32.81127,-9.80546 2.45653,-0.85989 4.0978,-2.29605 5.84089,-3.38625 z"
       style="fill:#1a1a1a;stroke:none" />
    <path
       style="fill:none;stroke:#000000;stroke-width:2;stroke-linecap:butt;stroke-linejoin:miter;stroke-opacity:1"
       d="M 98.736634,87.44998 C 98.265519,74.82274 122.02833,53.663713 147.14668,58.212709 c 34.98304,6.335489 53.74203,33.323831 47.86589,55.876391 12.14554,13.88052 15.07421,35.53296 15.56311,45.90419 0.78447,16.64144 12.4035,35.70777 -8.68606,45.15816"
       id="path5067-8-1-3-3-0"
       inkscape:connector-curvature="0"
       sodipodi:nodetypes="cscsc" />
    <path
       style="fill:#1a1a1a;stroke:#000000;stroke-width:2;stroke-linecap:butt;stroke-linejoin:miter;stroke-opacity:1"
       d="M 150.6462,71.8671 C 149.22708,60.484068 173.68068,61.914938 180.42549,71.572582 190.81715,86.45195 170.29174,105.46619 164.72245,99.66313 156.32345,90.91156 151.90506,81.9646 150.6462,71.8671 z"
       id="path5069-2-6-2-3-2"
       inkscape:connector-curvature="0"
       sodipodi:nodetypes="ssss" />
    <path
       style="fill:#1a1a1a;stroke:#000000;stroke-width:2;stroke-linecap:butt;stroke-linejoin:miter;stroke-opacity:1"
       d="m 113.57339,93.94445 c -4.16526,-3.72353 -0.15255,-8.92664 3.10663,-8.33065 6.22403,1.13814 14.8719,7.00669 17.63509,13.74674 1.25846,3.06966 -3.81461,8.05761 -7.73359,7.47816 -5.47095,-0.80888 -10.41657,-10.57749 -13.00813,-12.89425 z"
       id="path5073-4-8-2-4-8"
       inkscape:connector-curvature="0"
       sodipodi:nodetypes="sssss" />
    <path
       style="fill:none;stroke:#000000;stroke-width:2;stroke-linecap:butt;stroke-linejoin:miter;stroke-opacity:1"
       d="m 101.03803,85.64931 c -4.785813,3.76594 -10.999697,9.69811 -11.070718,17.97092 -0.04668,5.43655 2.416704,14.09449 8.215098,21.32799"
       id="path5075-5-5-1-1-6"
       inkscape:connector-curvature="0"
       sodipodi:nodetypes="csc" />
    <path
       style="fill:none;stroke:#000000;stroke-width:2;stroke-linecap:butt;stroke-linejoin:miter;stroke-opacity:1"
       d="m 90.089291,141.58663 c -14.829269,36.42323 -9.723245,61.21372 4.976316,65.02075"
       id="path5079-5-7-6-1-0"
       inkscape:connector-curvature="0"
       sodipodi:nodetypes="cc" />
    <path
       style="fill:none;stroke:#000000;stroke-width:2;stroke-linecap:butt;stroke-linejoin:miter;stroke-opacity:1"
       d="m 102.67593,209.80721 c 15.62886,12.9724 44.82844,-0.63082 66.41096,5.12932"
       id="path5081-1-6-8-3-2"
       inkscape:connector-curvature="0"
       sodipodi:nodetypes="cc" />
    <path
       style="fill:#1a1a1a;stroke:#000000;stroke-width:2;stroke-linecap:butt;stroke-linejoin:miter;stroke-opacity:1"
       d="m 156.01591,138.87052 c -0.1566,18.8367 -5.54867,41.10276 1.66588,44.18044 10.43095,4.44981 31.1274,-9.02886 37.61267,-27.88031"
       id="path5083-7-1-5-8-4"
       inkscape:connector-curvature="0"
       sodipodi:nodetypes="csc" />
    <path
       style="fill:#1a1a1a;stroke:#000000;stroke-width:2;stroke-linecap:butt;stroke-linejoin:miter;stroke-opacity:1"
       d="m 91.543176,100.05766 c 1.976228,-3.42595 17.213924,2.27717 16.719934,6.80466 -0.72663,6.6598 -6.54426,8.51671 -9.91531,7.9711 -3.177893,-0.51436 -9.016502,-10.94127 -6.804623,-14.77576 z"
       id="path5085-1-8-7-7-8"
       inkscape:connector-curvature="0"
       sodipodi:nodetypes="ssss" />
    <path
       style="fill:none;stroke:#000000;stroke-width:2;stroke-linecap:butt;stroke-linejoin:miter;stroke-opacity:1"
       d="m 99.011991,114.8519 c 7.240539,4.1828 15.368029,9.9313 17.611089,2.12013"
       id="path5087-1-9-6-4-6"
       inkscape:connector-curvature="0"
       sodipodi:nodetypes="cc" />
    <path
       sodipodi:nodetypes="csc"
       inkscape:connector-curvature="0"
       id="path3291-5-2-1-2-5"
       d="m 154.70915,213.42523 c -6.77878,7.15049 9.81953,15.59457 33.92551,6.8675 16.9449,-6.13455 20.61155,-14.50333 19.09227,-18.6172"
       style="fill:none;stroke:#000000;stroke-width:2;stroke-linecap:butt;stroke-linejoin:miter;stroke-opacity:1" />
    <path
       sodipodi:nodetypes="csc"
       inkscape:connector-curvature="0"
       id="path3293-2-7-8-7-0"
       d="m 87.45928,201.89682 c -8.647758,1.51491 -15.104876,9.73341 -8.390511,14.0816 8.60547,5.57284 45.711171,4.10341 44.331361,-0.38206"
       style="fill:none;stroke:#000000;stroke-width:2;stroke-linecap:butt;stroke-linejoin:miter;stroke-opacity:1" />
    <path
       sodipodi:nodetypes="cc"
       inkscape:connector-curvature="0"
       id="path3295-7-9-9-7-9"
       d="m 93.665412,114.84375 c 0.924025,1.53599 1.758597,1.4554 4.222708,-0.088"
       style="fill:none;stroke:#000000;stroke-width:2;stroke-linecap:butt;stroke-linejoin:miter;stroke-opacity:1" />
  </g>
  <g
     inkscape:groupmode="layer"
     id="layer1"
     inkscape:label="パンダ-A"
     style="display:inline"
     sodipodi:insensitive="true">
    <path
       style="fill:#1a1a1a;stroke:#000000;stroke-width:2;stroke-linecap:butt;stroke-linejoin:miter;stroke-opacity:1;display:inline"
       d="M 34.511785,83.31456 C 30.954278,68.671194 48.646296,58.140858 56.286591,62.560449"
       id="path5071-7-1-2"
       inkscape:connector-curvature="0"
       sodipodi:nodetypes="cc" />
    <path
       style="fill:#1a1a1a;stroke:#000000;stroke-width:2;stroke-linecap:butt;stroke-linejoin:miter;stroke-opacity:1;display:inline"
       d="M 30.009637,121.2535 C 16.675252,137.29238 9.3077146,163.46806 12.291748,168.37109 19.672616,180.49848 49.099722,141.54269 50.9599,140.80891"
       id="path5077-4-4-7"
       inkscape:connector-curvature="0"
       sodipodi:nodetypes="csc" />
    <path
       style="fill:#e6e6e6;stroke:none;display:inline"
       d="M 145.67973,160.60518 C 144.81347,150.25863 142.26216,128.5815 130.11662,114.70097 135.99277,92.14842 117.23378,65.160076 82.250746,58.824587 57.132394,54.275591 33.615558,75.25893 33.761499,88.25086 c -4.759598,4.4118 -8.643953,8.20538 -8.690126,15.98125 -0.03229,5.43667 2.205868,15.1487 7.954456,21.35232 -17.311316,34.00982 -22.380251,60.13036 -10.659802,77.03084 -9.394657,2.57617 -15.0814961,9.73863 -8.36713,14.08682 8.605468,5.57284 41.039803,4.48857 40.23088,-0.40671 8.871595,1.02476 20.598929,-2.09209 35.40838,-2.17387 -7.432821,9.86963 12.069943,12.83314 30.684593,5.96964 16.90841,-6.23438 23.00679,-11.80567 22.34279,-17.64456 12.27617,-8.40647 4.39501,-25.34907 3.01419,-41.84141 z"
       id="path5067-7-0-2-6"
       inkscape:connector-curvature="0"
       sodipodi:nodetypes="scscsccsccscs" />
    <path
       sodipodi:nodetypes="scsscs"
       inkscape:connector-curvature="0"
       id="path3388-9-3-1"
       d="m 11.843813,214.48635 c -2.7241498,-4.64107 3.026685,-9.95545 10.623275,-11.8857 2.759641,2.96777 4.80389,3.83029 7.515545,4.70472 1.101286,0.35515 6.641102,2.43118 7.653995,3.24956 4.193634,3.38839 11.306182,5.95212 20.746925,5.77015 1.553829,4.86947 -41.395868,6.92476 -46.53974,-1.83873 z"
       style="fill:#1a1a1a;stroke:none;display:inline" />
    <path
       sodipodi:nodetypes="csccscc"
       inkscape:connector-curvature="0"
       id="path3386-4-2-4"
       d="m 33.080255,125.72779 c 2.37391,2.02987 4.430265,7.49017 12.065832,7.9981 32.282527,2.14746 57.320283,-7.88873 84.835693,-18.89142 10.32734,11.46922 15.92494,33.94607 15.89052,50.15526 -14.52005,-15.37185 -90.336686,-24.18225 -102.808796,-24.37205 -9.124107,-0.13882 -15.934133,2.79508 -20.456375,8.00167 2.129969,-7.79446 7.694386,-18.72519 10.473126,-22.89156 z"
       style="fill:#1a1a1a;stroke:none;display:inline" />
    <path
       sodipodi:nodetypes="cscssc"
       inkscape:connector-curvature="0"
       id="path3390-8-2-2"
       d="m 142.68751,202.49127 c 1.83808,9.13632 -11.37714,15.50803 -19.19794,18.58334 -16.57212,6.51649 -42.080076,3.75101 -33.866869,-6.88771 5.271277,-0.5229 10.451559,0.72476 14.412659,1.49607 17.32514,3.37357 26.3002,-7.5263 32.81127,-9.80545 2.45653,-0.8599 4.0978,-2.29605 5.84088,-3.38625 z"
       style="fill:#1a1a1a;stroke:none;display:inline" />
    <path
       style="fill:none;stroke:#000000;stroke-width:2;stroke-linecap:butt;stroke-linejoin:miter;stroke-opacity:1;display:inline"
       d="M 33.685509,88.20447 C 33.21439,75.57722 56.977205,54.418196 82.095557,58.967194 c 34.983033,6.335487 53.742023,33.323826 47.865873,55.876396 12.14554,13.88051 15.07421,35.53296 15.56311,45.90418 0.78447,16.64144 12.40351,35.70778 -8.68604,45.15817"
       id="path5067-8-1-3"
       inkscape:connector-curvature="0"
       sodipodi:nodetypes="cscsc" />
    <path
       style="fill:#1a1a1a;stroke:#000000;stroke-width:2;stroke-linecap:butt;stroke-linejoin:miter;stroke-opacity:1;display:inline"
       d="M 85.595079,72.621578 C 84.175949,61.238553 108.62954,62.669422 115.37437,72.327071 125.76602,87.20642 105.24061,106.22067 99.671325,100.41761 91.272317,91.66605 86.853939,82.71909 85.595079,72.621578 z"
       id="path5069-2-6-2"
       inkscape:connector-curvature="0"
       sodipodi:nodetypes="ssss" />
    <path
       style="fill:#1a1a1a;stroke:#000000;stroke-width:2;stroke-linecap:butt;stroke-linejoin:miter;stroke-opacity:1;display:inline"
       d="m 48.522257,94.69894 c -4.165249,-3.72353 -0.152549,-8.92665 3.106642,-8.33066 6.224023,1.13814 14.871889,7.00669 17.63508,13.74674 1.258458,3.06967 -3.814604,8.05762 -7.733587,7.47817 C 56.059443,106.7843 51.113828,97.0157 48.522257,94.69894 z"
       id="path5073-4-8-2"
       inkscape:connector-curvature="0"
       sodipodi:nodetypes="sssss" />
    <path
       style="fill:none;stroke:#000000;stroke-width:2;stroke-linecap:butt;stroke-linejoin:miter;stroke-opacity:1;display:inline"
       d="m 35.986904,86.40378 c -4.785815,3.76596 -10.999699,9.69813 -11.07072,17.97092 -0.04668,5.43656 2.416704,14.0945 8.215094,21.328"
       id="path5075-5-5-1"
       inkscape:connector-curvature="0"
       sodipodi:nodetypes="csc" />
    <path
       style="fill:none;stroke:#000000;stroke-width:2;stroke-linecap:butt;stroke-linejoin:miter;stroke-opacity:1;display:inline"
       d="m 25.038164,142.34112 c -14.82927,36.42323 -9.723246,61.21371 4.976315,65.02075"
       id="path5079-5-7-6"
       inkscape:connector-curvature="0"
       sodipodi:nodetypes="cc" />
    <path
       style="fill:none;stroke:#000000;stroke-width:2;stroke-linecap:butt;stroke-linejoin:miter;stroke-opacity:1;display:inline"
       d="m 37.6248,210.56169 c 15.628856,12.97241 44.828441,-0.63082 66.41097,5.12932"
       id="path5081-1-6-8"
       inkscape:connector-curvature="0"
       sodipodi:nodetypes="cc" />
    <path
       style="fill:#1a1a1a;stroke:#000000;stroke-width:2;stroke-linecap:butt;stroke-linejoin:miter;stroke-opacity:1;display:inline"
       d="m 90.964785,139.62501 c -0.156599,18.8367 -5.548669,41.10274 1.665882,44.18044 10.430943,4.44981 31.127383,-9.02887 37.612653,-27.88032"
       id="path5083-7-1-5"
       inkscape:connector-curvature="0"
       sodipodi:nodetypes="csc" />
    <path
       style="fill:#1a1a1a;stroke:#000000;stroke-width:2;stroke-linecap:butt;stroke-linejoin:miter;stroke-opacity:1;display:inline"
       d="m 26.492048,100.81214 c 1.976228,-3.42595 17.213918,2.27717 16.719938,6.80466 -0.726634,6.65981 -6.544263,8.51672 -9.915314,7.97109 -3.177893,-0.51435 -9.016502,-10.94125 -6.804624,-14.77575 z"
       id="path5085-1-8-7"
       inkscape:connector-curvature="0"
       sodipodi:nodetypes="ssss" />
    <path
       style="fill:none;stroke:#000000;stroke-width:2;stroke-linecap:butt;stroke-linejoin:miter;stroke-opacity:1;display:inline"
       d="m 33.960858,115.60638 c 7.240543,4.18281 15.368031,9.9313 17.611094,2.12013"
       id="path5087-1-9-6"
       inkscape:connector-curvature="0"
       sodipodi:nodetypes="cc" />
    <path
       sodipodi:nodetypes="csc"
       inkscape:connector-curvature="0"
       id="path3291-5-2-1"
       d="m 89.658024,214.17971 c -6.778779,7.15049 9.819531,15.59458 33.925506,6.86751 16.9449,-6.13456 20.61155,-14.50334 19.09228,-18.61721"
       style="fill:none;stroke:#000000;stroke-width:2;stroke-linecap:butt;stroke-linejoin:miter;stroke-opacity:1;display:inline" />
    <path
       sodipodi:nodetypes="csc"
       inkscape:connector-curvature="0"
       id="path3293-2-7-8"
       d="m 22.408152,202.6513 c -8.647757,1.51491 -15.1048759,9.73341 -8.390511,14.0816 8.605471,5.57285 45.71117,4.10341 44.33136,-0.38205"
       style="fill:none;stroke:#000000;stroke-width:2;stroke-linecap:butt;stroke-linejoin:miter;stroke-opacity:1;display:inline" />
    <path
       sodipodi:nodetypes="cc"
       inkscape:connector-curvature="0"
       id="path3295-7-9-9"
       d="m 28.614285,115.59824 c 0.924024,1.53598 1.758597,1.4554 4.222709,-0.088"
       style="fill:none;stroke:#000000;stroke-width:2;stroke-linecap:butt;stroke-linejoin:miter;stroke-opacity:1;display:inline" />
  </g>
  <g
     inkscape:groupmode="layer"
     id="layer7"
     inkscape:label="枠面"
     style="display:inline"
     sodipodi:insensitive="true">
    <path
       style="fill:#ffffff;stroke:none;display:inline"
       d="m 0,0 0,320 370,0 0,-320 -10,10 0,300 -350,0 0,-300 350,0 10,-10 z"
       id="path21072"
       inkscape:connector-curvature="0"
       sodipodi:nodetypes="ccccccccccc" />
  </g>
</svg>
