<?xml version="1.0" encoding="UTF-8" standalone="no"?>
<!-- Created with Inkscape (http://www.inkscape.org/) -->

<svg
   xmlns:dc="http://purl.org/dc/elements/1.1/"
   xmlns:cc="http://creativecommons.org/ns#"
   xmlns:rdf="http://www.w3.org/1999/02/22-rdf-syntax-ns#"
   xmlns:svg="http://www.w3.org/2000/svg"
   xmlns="http://www.w3.org/2000/svg"
   xmlns:xlink="http://www.w3.org/1999/xlink"
   xmlns:sodipodi="http://sodipodi.sourceforge.net/DTD/sodipodi-0.dtd"
   xmlns:inkscape="http://www.inkscape.org/namespaces/inkscape"
   width="370"
   height="320"
   id="svg2"
   version="1.1"
   inkscape:version="0.48.4 r9939"
   sodipodi:docname="[05.社交]05.引率.svg"
   inkscape:export-filename="C:\Users\執安\Desktop\資料\臨時\TAKEDA\[05.社交]05.引率.png"
   inkscape:export-xdpi="90"
   inkscape:export-ydpi="90"
   enable-background="new">
  <defs
     id="defs4">
    <inkscape:perspective
       sodipodi:type="inkscape:persp3d"
       inkscape:vp_x="363.49708 : 943.81603 : 1"
       inkscape:vp_y="0 : 1000 : 0"
       inkscape:vp_z="744.09448 : 526.18109 : 1"
       inkscape:persp3d-origin="372.04724 : 350.78739 : 1"
       id="perspective5056" />
    <inkscape:perspective
       id="perspective5056-8"
       inkscape:persp3d-origin="372.04724 : 350.78739 : 1"
       inkscape:vp_z="744.09448 : 526.18109 : 1"
       inkscape:vp_y="0 : 1000 : 0"
       inkscape:vp_x="363.49708 : 943.81603 : 1"
       sodipodi:type="inkscape:persp3d" />
    <linearGradient
       id="linearGradient12499-5-3"
       inkscape:collect="always">
      <stop
         id="stop12501-0-8"
         offset="0"
         style="stop-color:#ffd5d5;stop-opacity:1;" />
      <stop
         id="stop12503-9-9"
         offset="1"
         style="stop-color:#ffd5d5;stop-opacity:0;" />
    </linearGradient>
    <linearGradient
       id="linearGradient12499-5"
       inkscape:collect="always">
      <stop
         id="stop12501-0"
         offset="0"
         style="stop-color:#ffd5d5;stop-opacity:1;" />
      <stop
         id="stop12503-9"
         offset="1"
         style="stop-color:#ffd5d5;stop-opacity:0;" />
    </linearGradient>
    <linearGradient
       id="linearGradient12499-8"
       inkscape:collect="always">
      <stop
         id="stop12501-6"
         offset="0"
         style="stop-color:#ffd5d5;stop-opacity:1;" />
      <stop
         id="stop12503-0"
         offset="1"
         style="stop-color:#ffd5d5;stop-opacity:0;" />
    </linearGradient>
    <linearGradient
       gradientTransform="translate(0,-7)"
       gradientUnits="userSpaceOnUse"
       y2="78.526123"
       x2="178.78178"
       y1="135.02612"
       x1="175.8602"
       id="linearGradient12505-2"
       xlink:href="#linearGradient12499-8"
       inkscape:collect="always" />
    <linearGradient
       id="linearGradient12499-9"
       inkscape:collect="always">
      <stop
         id="stop12501-8"
         offset="0"
         style="stop-color:#ffd5d5;stop-opacity:1;" />
      <stop
         id="stop12503-6"
         offset="1"
         style="stop-color:#ffd5d5;stop-opacity:0;" />
    </linearGradient>
    <linearGradient
       gradientTransform="translate(0,-7)"
       gradientUnits="userSpaceOnUse"
       y2="78.526123"
       x2="178.78178"
       y1="135.02612"
       x1="175.8602"
       id="linearGradient12505-1"
       xlink:href="#linearGradient12499-9"
       inkscape:collect="always" />
    <inkscape:perspective
       id="perspective5056-5"
       inkscape:persp3d-origin="372.04724 : 350.78739 : 1"
       inkscape:vp_z="744.09448 : 526.18109 : 1"
       inkscape:vp_y="0 : 1000 : 0"
       inkscape:vp_x="363.49708 : 943.81603 : 1"
       sodipodi:type="inkscape:persp3d" />
    <linearGradient
       id="linearGradient12499"
       inkscape:collect="always">
      <stop
         id="stop12501"
         offset="0"
         style="stop-color:#ffd5d5;stop-opacity:1;" />
      <stop
         id="stop12503"
         offset="1"
         style="stop-color:#ffd5d5;stop-opacity:0;" />
    </linearGradient>
    <linearGradient
       inkscape:collect="always"
       xlink:href="#linearGradient12499"
       id="linearGradient4842"
       gradientUnits="userSpaceOnUse"
       gradientTransform="matrix(0.98323667,-0.18233388,0.18233388,0.98323667,74.736688,42.602255)"
       x1="175.8602"
       y1="135.02612"
       x2="180.12286"
       y2="104.20104" />
    <linearGradient
       inkscape:collect="always"
       xlink:href="#linearGradient12499-5"
       id="linearGradient4848"
       gradientUnits="userSpaceOnUse"
       gradientTransform="matrix(0.99586062,-0.09089341,0.09089341,0.99586062,90.234074,51.049697)"
       x1="184.3886"
       y1="140.77484"
       x2="178.00351"
       y2="106.50191" />
    <linearGradient
       inkscape:collect="always"
       xlink:href="#linearGradient12499-5-3"
       id="linearGradient4854"
       gradientUnits="userSpaceOnUse"
       gradientTransform="matrix(0.99850313,0.05469451,-0.05469451,0.99850313,114.06992,56.176849)"
       x1="186.74098"
       y1="139.74136"
       x2="168.63582"
       y2="87.2258" />
    <inkscape:perspective
       sodipodi:type="inkscape:persp3d"
       inkscape:vp_x="363.49708 : 943.81603 : 1"
       inkscape:vp_y="0 : 1000 : 0"
       inkscape:vp_z="744.09448 : 526.18109 : 1"
       inkscape:persp3d-origin="372.04724 : 350.78739 : 1"
       id="perspective5056-4" />
    <inkscape:perspective
       sodipodi:type="inkscape:persp3d"
       inkscape:vp_x="363.49708 : 943.81603 : 1"
       inkscape:vp_y="0 : 1000 : 0"
       inkscape:vp_z="744.09448 : 526.18109 : 1"
       inkscape:persp3d-origin="372.04724 : 350.78739 : 1"
       id="perspective5056-8-7" />
    <inkscape:perspective
       id="perspective5056-85"
       inkscape:persp3d-origin="372.04724 : 350.78739 : 1"
       inkscape:vp_z="744.09448 : 526.18109 : 1"
       inkscape:vp_y="0 : 1000 : 0"
       inkscape:vp_x="363.49708 : 943.81603 : 1"
       sodipodi:type="inkscape:persp3d" />
    <inkscape:perspective
       id="perspective5056-0"
       inkscape:persp3d-origin="372.04724 : 350.78739 : 1"
       inkscape:vp_z="744.09448 : 526.18109 : 1"
       inkscape:vp_y="0 : 1000 : 0"
       inkscape:vp_x="363.49708 : 943.81603 : 1"
       sodipodi:type="inkscape:persp3d" />
  </defs>
  <sodipodi:namedview
     id="base"
     pagecolor="#ffffff"
     bordercolor="#666666"
     borderopacity="1.0"
     inkscape:pageopacity="0.0"
     inkscape:pageshadow="2"
     inkscape:zoom="1.4142136"
     inkscape:cx="32.38798"
     inkscape:cy="198.80286"
     inkscape:document-units="px"
     inkscape:current-layer="layer11"
     showgrid="false"
     inkscape:window-width="1212"
     inkscape:window-height="694"
     inkscape:window-x="-3"
     inkscape:window-y="-2"
     inkscape:window-maximized="0"
     showguides="true"
     inkscape:guide-bbox="true"
     inkscape:snap-grids="false"
     inkscape:snap-to-guides="false"
     showborder="true"
     inkscape:showpageshadow="false"
     fit-margin-top="0"
     fit-margin-left="0"
     fit-margin-right="0"
     fit-margin-bottom="0"
     inkscape:snap-page="false" />
  <metadata
     id="metadata7">
    <rdf:RDF>
      <cc:Work
         rdf:about="">
        <dc:format>image/svg+xml</dc:format>
        <dc:type
           rdf:resource="http://purl.org/dc/dcmitype/StillImage" />
        <dc:title></dc:title>
      </cc:Work>
    </rdf:RDF>
  </metadata>
  <g
     inkscape:groupmode="layer"
     id="layer2"
     inkscape:label="補助線"
     style="display:none"
     sodipodi:insensitive="true">
    <path
       style="fill:none;stroke:#0000ff;stroke-width:1px;stroke-linecap:butt;stroke-linejoin:miter;stroke-opacity:1"
       d="M 10,310 360,10"
       id="path3025"
       inkscape:connector-curvature="0"
       sodipodi:nodetypes="cc" />
    <path
       style="fill:none;stroke:#0000ff;stroke-width:1px;stroke-linecap:butt;stroke-linejoin:miter;stroke-opacity:1"
       d="M 10,10 360,310"
       id="path3027"
       inkscape:connector-curvature="0"
       sodipodi:nodetypes="cc" />
    <path
       style="fill:none;stroke:#ff0000;stroke-width:1px;stroke-linecap:butt;stroke-linejoin:miter;stroke-opacity:1;display:inline"
       d="m 10,0 0,320"
       id="path3006"
       inkscape:connector-curvature="0"
       sodipodi:nodetypes="cc" />
    <path
       style="fill:none;stroke:#ff0000;stroke-width:1px;stroke-linecap:butt;stroke-linejoin:miter;stroke-opacity:1;display:inline"
       d="m 360,0 0,320"
       id="path3010"
       inkscape:connector-curvature="0"
       sodipodi:nodetypes="cc" />
    <path
       style="fill:none;stroke:#ff0000;stroke-width:1px;stroke-linecap:butt;stroke-linejoin:miter;stroke-opacity:1;display:inline"
       d="M 0,9.9999681 370,10"
       id="path3016"
       inkscape:connector-curvature="0" />
    <path
       transform="translate(84.715796,27.711696)"
       style="fill:none;stroke:#ff0000;stroke-width:1px;stroke-linecap:butt;stroke-linejoin:miter;stroke-opacity:1;display:inline"
       d="m -84.715796,282.2883 369.999996,0"
       id="path3018"
       inkscape:connector-curvature="0"
       sodipodi:nodetypes="cc" />
  </g>
  <g
     inkscape:groupmode="layer"
     id="layer11"
     inkscape:label="豚・鼠"
     style="display:inline"
     sodipodi:insensitive="true">
    <path
       sodipodi:type="arc"
       style="fill:#000000;fill-opacity:1;stroke:none;display:inline"
       id="path3944-6-1"
       sodipodi:cx="92.984543"
       sodipodi:cy="242.21826"
       sodipodi:rx="70.357124"
       sodipodi:ry="7.0710678"
       d="m 163.34167,242.21826 a 70.357124,7.0710678 0 1 1 -140.714251,0 70.357124,7.0710678 0 1 1 140.714251,0 z"
       transform="matrix(0.39238563,0,0,0.39238563,295.51421,149.27236)" />
    <path
       sodipodi:type="arc"
       style="fill:#000000;fill-opacity:1;stroke:none;display:inline"
       id="path3944-6"
       sodipodi:cx="92.984543"
       sodipodi:cy="242.21826"
       sodipodi:rx="70.357124"
       sodipodi:ry="7.0710678"
       d="m 163.34167,242.21826 a 70.357124,7.0710678 0 1 1 -140.714251,0 70.357124,7.0710678 0 1 1 140.714251,0 z"
       transform="matrix(0.66598976,0,0,0.66598976,190.67584,83.263389)" />
    <path
       sodipodi:type="arc"
       style="fill:#000000;fill-opacity:1;stroke:none"
       id="path3944"
       sodipodi:cx="92.984543"
       sodipodi:cy="242.21826"
       sodipodi:rx="70.357124"
       sodipodi:ry="7.0710678"
       d="m 163.34167,242.21826 a 70.357124,7.0710678 0 1 1 -140.714251,0 70.357124,7.0710678 0 1 1 140.714251,0 z"
       transform="translate(12.020815,-2.8284271)" />
    <path
       sodipodi:nodetypes="cccccccc"
       inkscape:connector-curvature="0"
       id="path5091"
       d="m 91.993695,62.064286 c 22.562785,0.376859 33.003445,15.107256 31.917405,27.262391 l 12.22425,39.783013 -18.25613,94.73279 -80.415058,-12.71665 -21.256429,-34.18425 6.00663,-36.88392 z"
       style="fill:#ffd5d5;stroke:#000000;stroke-width:2;stroke-linecap:butt;stroke-linejoin:miter;stroke-opacity:1;display:inline" />
    <path
       style="fill:#ffd5d5;stroke:#000000;stroke-width:2;stroke-linecap:butt;stroke-linejoin:miter;stroke-opacity:1;display:inline"
       d="m 23.38435,131.60812 c -12.38698,13.3078 -13.7954273,47.28336 -3.22108,57.79632"
       id="path5089"
       inkscape:connector-curvature="0"
       sodipodi:nodetypes="cc" />
    <path
       style="fill:#ffd5d5;stroke:#000000;stroke-width:2;stroke-linecap:butt;stroke-linejoin:miter;stroke-opacity:1;display:inline"
       d="M 104.76182,69.254759 C 79.727757,49.169263 37.047515,57.475704 22.402048,103.8083 16.000654,124.05983 15.41938,138.13415 22.03747,143.60446"
       id="path3910"
       inkscape:connector-curvature="0"
       sodipodi:nodetypes="csc" />
    <path
       style="fill:#ffd5d5;stroke:#000000;stroke-width:2;stroke-linecap:butt;stroke-linejoin:miter;stroke-opacity:1;display:inline"
       d="m 52.277402,227.75349 c 8.192668,6.55686 24.784346,17.34317 35.999709,16.74375 8.438113,-0.45098 14.482279,-7.93629 13.781249,-15.23076"
       id="path5103"
       inkscape:connector-curvature="0" />
    <g
       id="layer2-8"
       inkscape:label="枠"
       style="display:none"
       transform="translate(1.5051674,9.747113)">
      <path
         style="fill:none;stroke:#0000ff;stroke-width:1px;stroke-linecap:butt;stroke-linejoin:miter;stroke-opacity:1"
         d="M 10.003906,310 359.99609,10.003906"
         id="path3025-8"
         inkscape:connector-curvature="0" />
      <path
         style="fill:none;stroke:#0000ff;stroke-width:1px;stroke-linecap:butt;stroke-linejoin:miter;stroke-opacity:1"
         d="M 10.003906,10 359.99609,310.00391"
         id="path3027-2"
         inkscape:connector-curvature="0" />
      <path
         style="fill:none;stroke:#ff0000;stroke-width:1px;stroke-linecap:butt;stroke-linejoin:miter;stroke-opacity:1;display:inline"
         d="M 9.9974312,-0.00137819 10,320"
         id="path3006-4"
         inkscape:connector-curvature="0" />
      <path
         style="fill:none;stroke:#ff0000;stroke-width:1px;stroke-linecap:butt;stroke-linejoin:miter;stroke-opacity:1;display:inline"
         d="M 360.00391,0.00390625 359.99609,319.99609"
         id="path3010-5"
         inkscape:connector-curvature="0" />
      <path
         style="fill:none;stroke:#ff0000;stroke-width:1px;stroke-linecap:butt;stroke-linejoin:miter;stroke-opacity:1;display:inline"
         d="M 0,9.9999681 370,10"
         id="path3016-5"
         inkscape:connector-curvature="0" />
      <path
         transform="translate(84.715796,27.711696)"
         style="fill:none;stroke:#ff0000;stroke-width:1px;stroke-linecap:butt;stroke-linejoin:miter;stroke-opacity:1;display:inline"
         d="m -84.714876,282.29077 370.002826,-0.003"
         id="path3018-1"
         inkscape:connector-curvature="0"
         sodipodi:nodetypes="cc" />
    </g>
    <path
       sodipodi:nodetypes="scccsccsccccscscs"
       inkscape:connector-curvature="0"
       id="path3334-1"
       d="m 223.98854,183.87868 c 2.8046,0.60627 2.01816,3.85404 1.5474,6.35914 0.20846,-0.10241 0.56195,-0.24074 0.82644,-0.4466 3.09645,-4.2463 7.91471,-4.7603 9.2982,-3.6324 7.27154,-2.90948 27.41473,-5.36612 41.2532,9.74775 7.95808,8.69153 11.98445,28.92911 -0.56461,38.11394 -1.82974,6.91223 -9.58679,15.02565 -12.97072,7.10908 -1.99898,2.47243 -4.06879,3.83263 -8.97453,4.202 -2.72461,0.20513 -3.63217,-2.76353 -3.80192,-5.83198 -6.88197,0.99371 -12.27762,1.5294 -16.70438,-0.005 -1.49186,3.58315 -5.15784,3.35492 -7.85409,-2.04877 l -1.58608,-0.6375 c -2.47899,2.1537 -6.11428,6.21088 -8.34927,5.689 -2.51823,-0.58802 -3.45692,-7.12847 -3.22876,-10.32811 -6.95003,-6.77757 -15.44632,-9.92385 -15.43522,-16.42359 0.008,-4.62488 5.97781,-12.61385 10.42793,-15.74436 0.31785,-7.99334 10.10298,-17.42251 16.11641,-16.1226 z"
       style="fill:#cccccc;stroke:none;display:inline" />
    <path
       sodipodi:nodetypes="scscccsccscccscs"
       inkscape:connector-curvature="0"
       id="path3348-7"
       d="m 301.46137,221.82066 c -0.47254,-2.45713 2.28993,-6.7543 6.7711,-7.01127 -1.64627,-3.20461 7.04718,-8.90205 9.99452,-7.06599 2.27917,1.41982 0.76991,2.3698 0.5869,3.11852 l 0.97417,-0.16347 c 1.18157,-1.15157 3.27025,-1.97326 5.08905,-1.58867 8.45165,-2.35514 25.8744,1.57067 26.01461,16.8168 0.0738,8.02403 -3.14826,8.56215 -4.25114,9.59557 1.26418,8.47329 -3.5964,8.69073 -6.85273,5.73303 -0.75739,1.20726 -0.96514,3.30717 -3.9154,2.65205 -1.50719,-0.3347 -3.04401,-2.00761 -3.44831,-3.62389 -3.09203,0.87895 -7.76907,0.6708 -9.1992,0.11609 -0.50944,3.31786 -3.50466,4.35469 -6.12725,-1.20817 -1.76526,1.62672 -4.41044,3.74801 -6.2026,3.3054 -1.45621,-0.35963 -1.27926,-4.61471 -1.33337,-6.2766 -3.56607,-3.69725 -6.74266,-7.33975 -8.10035,-14.3994 z"
       style="fill:#cccccc;stroke:none;display:inline" />
    <path
       style="fill:#ffd5d5;stroke:#000000;stroke-width:2;stroke-linecap:butt;stroke-linejoin:miter;stroke-opacity:1;display:inline"
       d="m 25.259233,154.9047 c -15.177682,37.96442 3.855594,66.1128 22.361628,70.7895"
       id="path3906"
       inkscape:connector-curvature="0" />
    <path
       style="fill:#ffd5d5;stroke:#000000;stroke-width:2;stroke-linecap:butt;stroke-linejoin:miter;stroke-opacity:1;display:inline"
       d="m 111.90229,226.59564 c 69.29783,-18.3412 48.08319,-88.44294 20.93968,-109.1171"
       id="path3902"
       inkscape:connector-curvature="0"
       sodipodi:nodetypes="cc" />
    <path
       sodipodi:nodetypes="cc"
       inkscape:connector-curvature="0"
       id="path5093"
       d="m 119.98317,85.323138 c 15.65042,13.930226 18.17223,31.387132 10.46884,46.696722"
       style="fill:#ffd5d5;stroke:#000000;stroke-width:2;stroke-linecap:butt;stroke-linejoin:miter;stroke-opacity:1;display:inline" />
    <path
       sodipodi:nodetypes="cc"
       inkscape:connector-curvature="0"
       id="path5095"
       d="m 109.40203,86.404451 -0.63019,7.363822"
       style="fill:none;stroke:#000000;stroke-width:2;stroke-linecap:butt;stroke-linejoin:miter;stroke-opacity:1;display:inline"
       inkscape:transform-center-x="-6.1867503"
       inkscape:transform-center-y="-16.833948" />
    <path
       sodipodi:nodetypes="cc"
       inkscape:connector-curvature="0"
       id="path5097"
       d="M 85.106655,94.380126 92.2908,99.871171"
       style="fill:none;stroke:#000000;stroke-width:2;stroke-linecap:butt;stroke-linejoin:miter;stroke-opacity:1;display:inline"
       inkscape:transform-center-x="12.30673"
       inkscape:transform-center-y="-9.5828283" />
    <path
       sodipodi:nodetypes="csc"
       inkscape:connector-curvature="0"
       id="path5099"
       d="M 35.672952,80.934822 C 9.1383316,95.80626 15.370021,129.59165 33.709161,135.16344 c 7.25892,2.2054 12.802202,-19.33903 17.708013,-29.61869"
       style="fill:#ffd5d5;stroke:#000000;stroke-width:2;stroke-linecap:butt;stroke-linejoin:miter;stroke-opacity:1;display:inline" />
    <path
       sodipodi:nodetypes="ssssss"
       inkscape:connector-curvature="0"
       id="path5101"
       d="m 107.51818,98.429341 c -9.300038,2.436279 -18.638981,14.108889 -21.775802,25.126629 -2.859783,10.04467 3.097619,16.1721 9.283595,13.13235 8.758737,-4.304 17.855357,-6.65108 24.256307,-7.95801 4.86288,-0.9929 6.02859,-8.85564 4.23849,-16.30963 -2.3395,-9.74171 -8.70269,-15.903656 -16.00259,-13.991339 z"
       style="fill:#ffaaaa;stroke:#000000;stroke-width:2;stroke-linecap:butt;stroke-linejoin:miter;stroke-opacity:1;display:inline"
       inkscape:transform-center-x="-6.1092008"
       inkscape:transform-center-y="10.213897" />
    <path
       sodipodi:nodetypes="sss"
       inkscape:connector-curvature="0"
       id="path5105"
       d="m 97.874842,126.78198 c 1.233084,3.24047 7.506838,-18.27574 5.826518,-18.32871 -2.0239,-0.0639 -8.363353,11.66206 -5.826518,18.32871 z"
       style="fill:#000000;stroke:#000000;stroke-width:2;stroke-linecap:butt;stroke-linejoin:miter;stroke-opacity:1;display:inline"
       inkscape:transform-center-x="-2.5277128"
       inkscape:transform-center-y="10.758384" />
    <path
       sodipodi:nodetypes="sss"
       inkscape:connector-curvature="0"
       id="path5107"
       d="m 112.31123,106.65201 c -1.92588,-0.63163 0.46715,18.25326 1.70347,16.26246 2.86001,-4.60535 0.40244,-15.57178 -1.70347,-16.26246 z"
       style="fill:#000000;stroke:#000000;stroke-width:2;stroke-linecap:butt;stroke-linejoin:miter;stroke-opacity:1;display:inline"
       inkscape:transform-center-x="-13.334622"
       inkscape:transform-center-y="6.8178891" />
    <path
       sodipodi:nodetypes="ccsssc"
       inkscape:connector-curvature="0"
       id="path5111-0"
       d="m 81.373597,187.44904 c 8.70832,-1.47021 -4.44701,-30.3179 -12.53517,-24.97179 -1.897188,1.95524 -4.911133,6.28182 -4.62378,9.19317 0.324236,3.28503 4.97457,2.90343 7.42948,5.86966 2.05804,2.48669 -1.981799,4.78338 0.27079,7.08024 1.70875,1.74233 7.266046,2.70969 9.45868,2.82872 z"
       style="fill:#ffaaaa;stroke:none;display:inline" />
    <path
       sodipodi:nodetypes="csssc"
       inkscape:connector-curvature="0"
       id="path5109"
       d="m 95.89751,143.16067 c -14.398115,6.88586 -31.873845,20.12269 -31.68154,28.51049 0.07566,3.30013 4.974572,2.90343 7.429488,5.86966 2.058037,2.48669 -2.002948,5.01307 0.270781,7.08024 4.96399,4.51302 28.634081,3.61465 35.602511,2.41865"
       style="fill:none;stroke:#000000;stroke-width:2;stroke-linecap:butt;stroke-linejoin:miter;stroke-opacity:1;display:inline" />
    <path
       sodipodi:nodetypes="cc"
       inkscape:connector-curvature="0"
       id="path5111"
       d="m 68.839757,162.47799 c 8.088153,-5.34611 21.24349,23.50158 12.535162,24.97179"
       style="fill:none;stroke:#000000;stroke-width:2;stroke-linecap:butt;stroke-linejoin:miter;stroke-opacity:1;display:inline" />
    <path
       sodipodi:nodetypes="csc"
       inkscape:connector-curvature="0"
       id="path3324"
       d="m 225.50971,190.39769 c 8.72591,-6.04908 36.6191,-12.14634 51.33257,5.46753 7.5549,9.04418 15.51571,36.35098 -11.1904,43.19066"
       style="fill:none;stroke:#000000;stroke-width:2;stroke-linecap:butt;stroke-linejoin:miter;stroke-opacity:1;display:inline" />
    <path
       sodipodi:nodetypes="csc"
       inkscape:connector-curvature="0"
       id="path3326"
       d="m 207.83138,199.96774 c -4.44962,3.59151 -10.4509,11.11173 -10.45868,15.73661 -0.0111,6.49974 8.55148,8.98311 15.48422,16.79755"
       style="fill:none;stroke:#000000;stroke-width:2;stroke-linecap:butt;stroke-linejoin:miter;stroke-opacity:1;display:inline" />
    <path
       sodipodi:nodetypes="csc"
       inkscape:connector-curvature="0"
       id="path3328"
       d="m 212.89151,230.42816 c -0.24546,4.23651 0.62694,11.43987 3.14517,12.02789 2.23499,0.52188 6.73207,-4.15402 9.21106,-6.30772"
       style="fill:none;stroke:#000000;stroke-width:2;stroke-linecap:butt;stroke-linejoin:miter;stroke-opacity:1;display:inline" />
    <path
       sodipodi:nodetypes="cc"
       inkscape:connector-curvature="0"
       id="path3330"
       d="m 224.47007,236.85685 c 9.23081,3.97418 18.92846,3.48712 26.12958,2.71319"
       style="fill:none;stroke:#000000;stroke-width:2;stroke-linecap:butt;stroke-linejoin:miter;stroke-opacity:1;display:inline" />
    <path
       sodipodi:nodetypes="csc"
       inkscape:connector-curvature="0"
       id="path3332"
       d="m 250.46136,237.75549 c 0.23889,3.97572 1.14645,7.73988 3.87106,7.53475 4.90574,-0.36937 8.8538,-3.54153 12.71918,-7.67298"
       style="fill:none;stroke:#000000;stroke-width:2;stroke-linecap:butt;stroke-linejoin:miter;stroke-opacity:1;display:inline" />
    <path
       sodipodi:nodetypes="csc"
       inkscape:connector-curvature="0"
       id="path3334"
       d="m 207.83239,200.88975 c -0.26043,-8.20604 9.73698,-18.52892 16.08465,-17.05242 6.62866,1.54184 -4.01309,22.74466 -9.75164,14.63095"
       style="fill:none;stroke:#000000;stroke-width:2;stroke-linecap:butt;stroke-linejoin:miter;stroke-opacity:1;display:inline" />
    <path
       sodipodi:nodetypes="cc"
       inkscape:connector-curvature="0"
       id="path3336"
       d="m 200.85275,210.87046 c -5.19749,-1.98093 -9.82551,-2.7219 -14.40192,-2.70082"
       style="fill:none;stroke:#000000;stroke-width:2;stroke-linecap:butt;stroke-linejoin:miter;stroke-opacity:1;display:inline" />
    <path
       sodipodi:nodetypes="cc"
       inkscape:connector-curvature="0"
       id="path3338"
       d="m 200.5525,214.39096 c -3.09409,-0.40895 -7.14787,-0.60617 -11.33662,-0.2765"
       style="fill:none;stroke:#000000;stroke-width:2;stroke-linecap:butt;stroke-linejoin:miter;stroke-opacity:1;display:inline" />
    <path
       sodipodi:nodetypes="cc"
       inkscape:connector-curvature="0"
       id="path3340"
       d="m 200.36536,218.21453 c -3.55563,0.65469 -7.39148,2.99749 -11.25565,5.42253"
       style="fill:none;stroke:#000000;stroke-width:2;stroke-linecap:butt;stroke-linejoin:miter;stroke-opacity:1;display:inline" />
    <path
       sodipodi:nodetypes="cc"
       inkscape:connector-curvature="0"
       id="path3342"
       d="m 281.97517,218.41387 c 10.15151,9.57356 1.32643,21.44886 16.41488,27.00926"
       style="fill:none;stroke:#000000;stroke-width:2;stroke-linecap:butt;stroke-linejoin:miter;stroke-opacity:1;display:inline" />
    <path
       sodipodi:nodetypes="csc"
       inkscape:connector-curvature="0"
       id="path3344"
       d="m 308.25881,214.67198 c -4.46964,1.41553 -7.34148,4.6502 -6.86894,7.10733 1.35769,7.05965 4.59678,10.2334 8.21175,14.66381"
       style="fill:none;stroke:#000000;stroke-width:2;stroke-linecap:butt;stroke-linejoin:miter;stroke-opacity:1;display:inline" />
    <path
       sodipodi:nodetypes="csc"
       inkscape:connector-curvature="0"
       id="path3346"
       d="m 309.50383,234.9768 c 0.103,2.39505 -0.13645,7.11888 1.31976,7.47851 1.79216,0.44261 5.24984,-2.28805 7.7264,-4.49201"
       style="fill:none;stroke:#000000;stroke-width:2;stroke-linecap:butt;stroke-linejoin:miter;stroke-opacity:1;display:inline" />
    <path
       sodipodi:nodetypes="cc"
       inkscape:connector-curvature="0"
       id="path3348"
       d="m 317.57591,238.76215 c 4.33391,2.32742 12.32552,2.3146 14.84052,1.50486"
       style="fill:none;stroke:#000000;stroke-width:2;stroke-linecap:butt;stroke-linejoin:miter;stroke-opacity:1;display:inline" />
    <path
       sodipodi:nodetypes="csc"
       inkscape:connector-curvature="0"
       id="path3350"
       d="m 331.62594,238.18403 c 0.79954,2.65777 2.66782,5.34715 4.17501,5.68185 2.95026,0.65512 5.21304,-4.82564 6.01809,-6.74925"
       style="fill:none;stroke:#000000;stroke-width:2;stroke-linecap:butt;stroke-linejoin:miter;stroke-opacity:1;display:inline" />
    <path
       sodipodi:nodetypes="csc"
       inkscape:connector-curvature="0"
       id="path3352"
       d="m 341.16235,238.51184 c 3.49602,-0.48465 9.7317,-4.60258 9.65787,-12.62661 -0.14021,-15.24613 -19.5075,-20.91761 -32.00648,-14.82913"
       style="fill:none;stroke:#000000;stroke-width:2;stroke-linecap:butt;stroke-linejoin:miter;stroke-opacity:1;display:inline" />
    <path
       sodipodi:nodetypes="csc"
       inkscape:connector-curvature="0"
       id="path3354"
       d="m 308.28187,216.98911 c -1.6578,-4.36318 6.92628,-11.12312 9.87362,-9.28706 2.27917,1.41982 -0.18026,7.12067 -3.05912,7.91359"
       style="fill:none;stroke:#000000;stroke-width:2;stroke-linecap:butt;stroke-linejoin:miter;stroke-opacity:1;display:inline" />
    <path
       sodipodi:nodetypes="cc"
       inkscape:connector-curvature="0"
       id="path3356"
       d="m 349.38946,226.66727 c 6.62343,5.02395 2.01956,15.26772 9.89192,16.5766"
       style="fill:none;stroke:#000000;stroke-width:2;stroke-linecap:butt;stroke-linejoin:miter;stroke-opacity:1;display:inline" />
    <path
       sodipodi:nodetypes="cc"
       inkscape:connector-curvature="0"
       id="path3358"
       d="m 303.02111,219.17834 c -1.01088,-0.57335 -2.61955,-1.08168 -4.75953,-1.30937"
       style="fill:none;stroke:#000000;stroke-width:2;stroke-linecap:butt;stroke-linejoin:miter;stroke-opacity:1;display:inline" />
    <path
       sodipodi:nodetypes="cc"
       inkscape:connector-curvature="0"
       id="path3360"
       d="m 302.71108,221.32899 c -1.21853,-0.004 -2.78264,0.47775 -3.93208,1.19685"
       style="fill:none;stroke:#000000;stroke-width:2;stroke-linecap:butt;stroke-linejoin:miter;stroke-opacity:1;display:inline" />
    <path
       sodipodi:nodetypes="cc"
       inkscape:connector-curvature="0"
       id="path3362"
       d="m 302.76833,223.41056 c -1.34166,0.54847 -2.31293,1.28162 -3.26652,2.58511"
       style="fill:none;stroke:#000000;stroke-width:2;stroke-linecap:butt;stroke-linejoin:miter;stroke-opacity:1;display:inline" />
    <path
       sodipodi:nodetypes="cc"
       inkscape:connector-curvature="0"
       id="path3364"
       d="m 226.45099,189.7684 c 3.18736,-3.05366 6.51511,-4.67285 9.21747,-3.6499"
       style="fill:none;stroke:#000000;stroke-width:2;stroke-linecap:butt;stroke-linejoin:miter;stroke-opacity:1;display:inline" />
    <path
       sodipodi:nodetypes="cc"
       inkscape:connector-curvature="0"
       id="path3368"
       d="m 319.89334,210.56871 c 1.64561,-2.07965 3.51331,-1.99536 5.1589,-1.4992"
       style="fill:none;stroke:#000000;stroke-width:2;stroke-linecap:butt;stroke-linejoin:miter;stroke-opacity:1;display:inline" />
    <path
       sodipodi:nodetypes="cc"
       inkscape:connector-curvature="0"
       id="path3370"
       d="m 346.78832,235.54351 c 0.6609,9.11777 -3.28531,8.45124 -6.96495,5.65747"
       style="fill:none;stroke:#000000;stroke-width:2;stroke-linecap:butt;stroke-linejoin:miter;stroke-opacity:1;display:inline" />
    <path
       sodipodi:nodetypes="cc"
       inkscape:connector-curvature="0"
       id="path3372"
       d="m 323.2509,240.45141 c -1.00465,2.40694 -2.83612,5.07386 -6.1235,-1.33363"
       style="fill:none;stroke:#000000;stroke-width:2;stroke-linecap:butt;stroke-linejoin:miter;stroke-opacity:1;display:inline" />
    <path
       sodipodi:nodetypes="cc"
       inkscape:connector-curvature="0"
       id="path3374"
       d="m 276.48162,233.98055 c -4.9868,11.12958 -9.59999,13.6498 -13.16282,6.95475"
       style="fill:none;stroke:#000000;stroke-width:2;stroke-linecap:butt;stroke-linejoin:miter;stroke-opacity:1;display:inline" />
    <path
       sodipodi:nodetypes="cc"
       inkscape:connector-curvature="0"
       id="path3376"
       d="m 234.07817,239.48654 c -1.79591,3.7683 -5.24069,3.72259 -8.06194,-1.9936"
       style="fill:none;stroke:#000000;stroke-width:2;stroke-linecap:butt;stroke-linejoin:miter;stroke-opacity:1;display:inline" />
    <path
       style="fill:#ffd5d5;stroke:#000000;stroke-width:2;stroke-linecap:butt;stroke-linejoin:miter;stroke-opacity:1;display:inline"
       d="m 67.909259,206.02791 c -17.518916,-9.82489 -37.278992,4.3939 -27.109914,14.72672 18.974246,19.27977 75.675425,7.9351 79.340095,2.43335"
       id="path3904"
       inkscape:connector-curvature="0" />
  </g>
  <g
     inkscape:groupmode="layer"
     id="layer7"
     inkscape:label="枠面"
     style="display:inline"
     sodipodi:insensitive="true">
    <path
       style="fill:#ffffff;stroke:none;display:inline"
       d="m 0,0 0,320 370,0 0,-320 -10,10 0,300 -350,0 0,-300 350,0 10,-10 z"
       id="path21072"
       inkscape:connector-curvature="0"
       sodipodi:nodetypes="ccccccccccc" />
  </g>
</svg>
