<?xml version="1.0" encoding="UTF-8" standalone="no"?>
<!-- Created with Inkscape (http://www.inkscape.org/) -->

<svg
   xmlns:dc="http://purl.org/dc/elements/1.1/"
   xmlns:cc="http://creativecommons.org/ns#"
   xmlns:rdf="http://www.w3.org/1999/02/22-rdf-syntax-ns#"
   xmlns:svg="http://www.w3.org/2000/svg"
   xmlns="http://www.w3.org/2000/svg"
   xmlns:sodipodi="http://sodipodi.sourceforge.net/DTD/sodipodi-0.dtd"
   xmlns:inkscape="http://www.inkscape.org/namespaces/inkscape"
   width="370"
   height="320"
   id="svg2"
   version="1.1"
   inkscape:version="0.48.4 r9939"
   sodipodi:docname="[05.社交]03.観察.svg"
   inkscape:export-filename="C:\Users\執安\Desktop\資料\臨時\TAKEDA\[05.社交]03.観察.png"
   inkscape:export-xdpi="90"
   inkscape:export-ydpi="90"
   enable-background="new">
  <defs
     id="defs4">
    <inkscape:perspective
       sodipodi:type="inkscape:persp3d"
       inkscape:vp_x="363.49708 : 943.81603 : 1"
       inkscape:vp_y="0 : 1000 : 0"
       inkscape:vp_z="744.09448 : 526.18109 : 1"
       inkscape:persp3d-origin="372.04724 : 350.78739 : 1"
       id="perspective5056" />
    <inkscape:perspective
       id="perspective5056-9"
       inkscape:persp3d-origin="372.04724 : 350.78739 : 1"
       inkscape:vp_z="744.09448 : 526.18109 : 1"
       inkscape:vp_y="0 : 1000 : 0"
       inkscape:vp_x="363.49708 : 943.81603 : 1"
       sodipodi:type="inkscape:persp3d" />
  </defs>
  <sodipodi:namedview
     id="base"
     pagecolor="#ffffff"
     bordercolor="#666666"
     borderopacity="1.0"
     inkscape:pageopacity="0.0"
     inkscape:pageshadow="2"
     inkscape:zoom="1"
     inkscape:cx="193.91809"
     inkscape:cy="102.49987"
     inkscape:document-units="px"
     inkscape:current-layer="g3163"
     showgrid="false"
     inkscape:window-width="988"
     inkscape:window-height="695"
     inkscape:window-x="-3"
     inkscape:window-y="-3"
     inkscape:window-maximized="0"
     showguides="true"
     inkscape:guide-bbox="true"
     inkscape:snap-grids="false"
     inkscape:snap-to-guides="false"
     showborder="true"
     inkscape:showpageshadow="false"
     fit-margin-top="0"
     fit-margin-left="0"
     fit-margin-right="0"
     fit-margin-bottom="0"
     inkscape:snap-page="false" />
  <metadata
     id="metadata7">
    <rdf:RDF>
      <cc:Work
         rdf:about="">
        <dc:format>image/svg+xml</dc:format>
        <dc:type
           rdf:resource="http://purl.org/dc/dcmitype/StillImage" />
        <dc:title></dc:title>
      </cc:Work>
    </rdf:RDF>
  </metadata>
  <g
     inkscape:groupmode="layer"
     id="layer2"
     inkscape:label="補助線"
     style="display:none"
     sodipodi:insensitive="true">
    <path
       style="fill:none;stroke:#0000ff;stroke-width:1px;stroke-linecap:butt;stroke-linejoin:miter;stroke-opacity:1"
       d="M 10,310 360,10"
       id="path3025"
       inkscape:connector-curvature="0"
       sodipodi:nodetypes="cc" />
    <path
       style="fill:none;stroke:#0000ff;stroke-width:1px;stroke-linecap:butt;stroke-linejoin:miter;stroke-opacity:1"
       d="M 10,10 360,310"
       id="path3027"
       inkscape:connector-curvature="0"
       sodipodi:nodetypes="cc" />
    <path
       style="fill:none;stroke:#ff0000;stroke-width:1px;stroke-linecap:butt;stroke-linejoin:miter;stroke-opacity:1;display:inline"
       d="m 10,0 0,320"
       id="path3006"
       inkscape:connector-curvature="0"
       sodipodi:nodetypes="cc" />
    <path
       style="fill:none;stroke:#ff0000;stroke-width:1px;stroke-linecap:butt;stroke-linejoin:miter;stroke-opacity:1;display:inline"
       d="m 360,0 0,320"
       id="path3010"
       inkscape:connector-curvature="0"
       sodipodi:nodetypes="cc" />
    <path
       style="fill:none;stroke:#ff0000;stroke-width:1px;stroke-linecap:butt;stroke-linejoin:miter;stroke-opacity:1;display:inline"
       d="M 0,9.9999681 370,10"
       id="path3016"
       inkscape:connector-curvature="0" />
    <path
       transform="translate(84.715796,27.711696)"
       style="fill:none;stroke:#ff0000;stroke-width:1px;stroke-linecap:butt;stroke-linejoin:miter;stroke-opacity:1;display:inline"
       d="m -84.715796,282.2883 369.999996,0"
       id="path3018"
       inkscape:connector-curvature="0"
       sodipodi:nodetypes="cc" />
  </g>
  <g
     style="display:inline"
     inkscape:label="豚"
     id="g3163"
     inkscape:groupmode="layer"
     transform="translate(84.715796,27.711696)"
     sodipodi:insensitive="true">
    <path
       sodipodi:type="arc"
       style="fill:#000000;fill-opacity:1;stroke:none"
       id="path7940"
       sodipodi:cx="241.25"
       sodipodi:cy="303"
       sodipodi:rx="83.25"
       sodipodi:ry="5.5"
       d="m 324.5,303 a 83.25,5.5 0 1 1 -166.5,0 83.25,5.5 0 1 1 166.5,0 z"
       transform="matrix(1.0660831,0,0,1.2102273,-92.193884,-91.31497)" />
    <path
       sodipodi:nodetypes="cccccccccc"
       inkscape:connector-curvature="0"
       id="path5039-4"
       d="m 143.40857,106.3677 c -14.09148,0.39484 -26.71949,8.67592 -27.84123,17.74688 l -10.50073,33.85703 -8.240378,22.61922 -5.590683,26.09741 -0.740053,48.31158 128.660804,9.27283 4.89326,-46.59965 -5.51111,-42.26152 z"
       style="fill:#ffd5d5;stroke:#000000;stroke-width:2;stroke-linecap:butt;stroke-linejoin:miter;stroke-opacity:1;display:inline" />
    <path
       style="fill:#ffd5d5;stroke:none;display:inline"
       d="m 228.38747,227.4841 c 2.58253,-1.22038 3.01437,2.6127 4.81918,1.32669 7.83891,-5.58552 -1.29922,-39.71801 -14.99324,-54.40758 l -30.39733,28.31163 z"
       id="path7854-8"
       inkscape:connector-curvature="0"
       sodipodi:nodetypes="csccc" />
    <path
       sodipodi:nodetypes="csccc"
       inkscape:connector-curvature="0"
       id="path5053-4-3"
       d="m 102.18127,159.07635 c -18.975042,19.13601 -28.033862,45.81385 -21.532672,58.42668 1.01957,1.97805 1.99154,-0.26497 2.69365,-0.52569 L 118.93754,189.875 z"
       style="fill:#ffd5d5;stroke:none;display:inline" />
    <path
       style="fill:#ffaaaa;stroke:none;display:inline"
       d="m 236.09167,219.20637 -8.27072,0.47445 0.57042,7.80328 c 2.58253,-1.22038 2.96762,2.54443 4.81918,1.32669 2.28107,-1.50021 3.04315,-6.03233 2.88112,-9.60442 z"
       id="path5173-7-4"
       inkscape:connector-curvature="0"
       sodipodi:nodetypes="cccsc" />
    <path
       style="fill:none;stroke:#000000;stroke-width:2;stroke-linecap:butt;stroke-linejoin:miter;stroke-opacity:1;display:inline"
       d="m 227.81916,219.6825 8.27072,-0.47445"
       id="path5173-7"
       inkscape:connector-curvature="0"
       sodipodi:nodetypes="cc" />
    <path
       sodipodi:nodetypes="cc"
       inkscape:connector-curvature="0"
       id="path5041-0"
       d="m 123.80278,118.03436 c -16.93625,10.34525 -26.518889,27.31236 -19.71174,47.61901"
       style="fill:#ffd5d5;stroke:#000000;stroke-width:2;stroke-linecap:butt;stroke-linejoin:miter;stroke-opacity:1;display:inline" />
    <path
       sodipodi:nodetypes="cc"
       inkscape:connector-curvature="0"
       id="path5043-9"
       d="m 131.82438,118.161 -0.93545,3.94106"
       style="fill:none;stroke:#000000;stroke-width:2;stroke-linecap:butt;stroke-linejoin:miter;stroke-opacity:1;display:inline" />
    <path
       sodipodi:nodetypes="cc"
       inkscape:connector-curvature="0"
       id="path5045-4"
       d="m 156.57996,124.01771 -11.25192,3.47195"
       style="fill:none;stroke:#000000;stroke-width:2;stroke-linecap:butt;stroke-linejoin:miter;stroke-opacity:1;display:inline" />
    <path
       sodipodi:nodetypes="ssssss"
       inkscape:connector-curvature="0"
       id="path5049-8"
       d="m 131.76023,124.62425 c 6.19489,1.38336 13.53951,10.0211 16.35212,21.38414 2.57275,10.394 -1.01277,20.06966 -12.33712,14.64266 -7.02801,-3.36805 -13.38495,-4.53909 -20.6484,-5.80301 -6.67647,-1.16178 -5.84135,-11.84903 -1.64026,-19.14237 4.06747,-7.06136 11.37104,-12.62283 18.27366,-11.08142 z"
       style="fill:#ffaaaa;stroke:#000000;stroke-width:2;stroke-linecap:butt;stroke-linejoin:miter;stroke-opacity:1;display:inline" />
    <path
       style="fill:none;stroke:#000000;stroke-width:2;stroke-linecap:butt;stroke-linejoin:miter;stroke-opacity:1;display:inline"
       d="m 228.38958,227.48578 c 2.58253,-1.22038 3.01437,2.6127 4.81918,1.32669 7.83891,-5.58552 -1.29922,-39.71801 -14.99324,-54.40758"
       id="path7854"
       inkscape:connector-curvature="0"
       sodipodi:nodetypes="csc" />
    <path
       style="fill:#ffd5d5;stroke:#000000;stroke-width:2;stroke-linecap:butt;stroke-linejoin:miter;stroke-opacity:1;display:inline"
       d="m 220.21843,178.69684 c 4.29232,-12.85598 -3.12992,-28.29996 -8.85714,-40.47741 C 195.2051,103.8675 158.17748,97.226505 134.29308,110.1673"
       id="path7852"
       inkscape:connector-curvature="0"
       sodipodi:nodetypes="csc" />
    <path
       style="fill:#ffd5d5;stroke:#000000;stroke-width:2;stroke-linecap:butt;stroke-linejoin:miter;stroke-opacity:1;display:inline"
       d="m 222.02926,259.02693 c 9.06935,3.91294 10.56927,10.51535 2.97166,14.61663 -4.80038,2.5913 -22.36307,4.87844 -44.09446,0.28638 l -47.52043,-3.51676 c -7.1131,3.78382 -41.154929,8.73424 -50.040239,1.39259 -7.3538,-6.07622 1.485177,-17.97569 7.74039,-21.65905"
       id="path7848"
       inkscape:connector-curvature="0"
       sodipodi:nodetypes="csccsc" />
    <path
       style="fill:#ffd5d5;stroke:#000000;stroke-width:2;stroke-linecap:butt;stroke-linejoin:miter;stroke-opacity:1;display:inline"
       d="m 223.1356,201.71463 c 8.40347,22.5423 12.0853,53.74077 -8.11634,61.45961"
       id="path7850"
       inkscape:connector-curvature="0"
       sodipodi:nodetypes="cc" />
    <path
       style="fill:#ffd5d5;stroke:#000000;stroke-width:2;stroke-linecap:butt;stroke-linejoin:miter;stroke-opacity:1;display:inline"
       d="m 188.84478,273.05207 c -19.68796,5.61895 -57.47842,-2.55021 -69.57658,-4.48801"
       id="path7846"
       inkscape:connector-curvature="0"
       sodipodi:nodetypes="cc" />
    <path
       sodipodi:nodetypes="cccsc"
       inkscape:connector-curvature="0"
       id="path5059-1-5"
       d="m 78.663074,210.01398 6.0963,-0.0291 -1.41322,6.99246 c -0.70211,0.26072 -1.580938,2.45288 -2.69365,0.52569 -0.97132,-1.6823 -1.93284,-4.25818 -1.98943,-7.48905 z"
       style="fill:#ffaaaa;stroke:none;display:inline" />
    <path
       style="fill:#ffd5d5;stroke:#000000;stroke-width:2;stroke-linecap:butt;stroke-linejoin:miter;stroke-opacity:1;display:inline"
       d="m 93.077391,252.3682 c -16.33671,-11.86673 -11.99064,-45.19771 2.1531,-66.29691"
       id="path5051-2"
       inkscape:connector-curvature="0"
       sodipodi:nodetypes="cc" />
    <path
       sodipodi:nodetypes="csc"
       inkscape:connector-curvature="0"
       id="path5053-4"
       d="m 102.18338,159.07803 c -18.975039,19.13601 -28.033852,45.81385 -21.532669,58.42668 1.019569,1.97805 1.991541,-0.26497 2.693651,-0.52569"
       style="fill:none;stroke:#000000;stroke-width:2;stroke-linecap:butt;stroke-linejoin:miter;stroke-opacity:1;display:inline" />
    <path
       sodipodi:nodetypes="sss"
       inkscape:connector-curvature="0"
       id="path5055-5"
       d="m 135.73046,151.41658 c -1.94287,1.35917 -3.39628,-18.16238 -1.88819,-17.60988 2.21224,0.81048 7.79005,13.4811 1.88819,17.60988 z"
       style="fill:#000000;stroke:#000000;stroke-width:2;stroke-linecap:butt;stroke-linejoin:miter;stroke-opacity:1;display:inline" />
    <path
       sodipodi:nodetypes="sss"
       inkscape:connector-curvature="0"
       id="path5057-5"
       d="m 125.57892,132.25408 c 2.34253,-0.2718 -5.2566,16.86189 -6.24986,14.82363 -1.94344,-3.98808 3.09501,-14.45758 6.24986,-14.82363 z"
       style="fill:#000000;stroke:#000000;stroke-width:2;stroke-linecap:butt;stroke-linejoin:miter;stroke-opacity:1;display:inline" />
    <path
       sodipodi:nodetypes="cc"
       inkscape:connector-curvature="0"
       id="path5059-1"
       d="m 78.661285,210.01566 6.096301,-0.0291"
       style="fill:none;stroke:#000000;stroke-width:2;stroke-linecap:butt;stroke-linejoin:miter;stroke-opacity:1;display:inline" />
    <path
       sodipodi:nodetypes="csc"
       inkscape:connector-curvature="0"
       id="path5047-8"
       d="m 194.52117,117.07719 c 26.06443,9.2294 27.69489,41.80417 9.01309,47.20375 -6.99628,2.02212 -12.08524,-18.00292 -18.28032,-29.91002"
       style="fill:#ffd5d5;stroke:#000000;stroke-width:2;stroke-linecap:butt;stroke-linejoin:miter;stroke-opacity:1;display:inline" />
  </g>
  <g
     inkscape:groupmode="layer"
     id="layer8"
     inkscape:label="UFO"
     style="display:inline"
     sodipodi:insensitive="true">
    <path
       sodipodi:nodetypes="sssss"
       inkscape:connector-curvature="0"
       id="path2987-7-4-4"
       d="m 30.911449,45.383715 c -4.631902,-32.960274 29.665257,-63.629196 76.604771,-68.500959 46.93954,-4.871794 88.74647,17.8984183 93.37836,50.858688 2.44128,17.372277 -31.56293,39.542724 -78.50249,44.414518 -46.939512,4.871795 -88.663805,-6.72776 -91.480641,-26.772247 z"
       style="fill:#cccccc;stroke:#000000;stroke-width:2" />
    <path
       sodipodi:nodetypes="ssssss"
       inkscape:connector-curvature="0"
       id="path2985-8"
       d="M 257.93108,31.283304 C 265.2096,47.655017 209.13437,68.558799 131.73203,78.431843 54.329718,88.304899 -14.771264,83.247758 -22.574998,67.119784 -28.046839,55.81111 -4.3527297,38.950786 16.773611,27.653452 54.435316,7.5138213 150.9342,-1.3969254 200.64361,6.0414826 220.7093,9.0440721 252.26302,18.534031 257.93108,31.283304 z"
       style="fill:#cccccc;fill-opacity:1;stroke:none" />
    <path
       transform="matrix(0.49774651,-0.06349005,0.1238071,0.2552515,-109.84487,-68.84577)"
       d="m 604.12979,541.00946 a 281.56763,114.35314 0 1 1 -563.135253,0 281.56763,114.35314 0 1 1 563.135253,0 z"
       sodipodi:ry="114.35314"
       sodipodi:rx="281.56763"
       sodipodi:cy="541.00946"
       sodipodi:cx="322.56216"
       id="path2985"
       style="fill:none;stroke:#000000;stroke-width:5.4451046"
       sodipodi:type="arc" />
    <path
       sodipodi:nodetypes="sssss"
       inkscape:connector-curvature="0"
       id="path2987"
       d="M 85.006641,69.745426 C 86.770448,84.350196 73.710158,97.939669 55.835672,100.09835 37.961185,102.25707 22.041187,92.167523 20.27737,77.562751 19.347731,69.865053 32.296472,60.041278 50.17097,57.882578 c 17.874487,-2.1587 33.76302,2.981087 34.835671,11.862848 z"
       style="fill:#ffeeaa;fill-opacity:1;stroke:#000000;stroke-width:2" />
    <path
       sodipodi:nodetypes="sssss"
       inkscape:connector-curvature="0"
       id="path2987-1"
       d="m 230.38477,50.448996 c 1.76381,14.60477 -11.29648,28.194241 -29.17097,30.352931 -17.87448,2.158702 -33.79449,-7.930835 -35.5583,-22.535605 -0.92965,-7.697699 12.0191,-17.521473 29.8936,-19.680173 17.87449,-2.158701 33.76302,2.981086 34.83567,11.862847 z"
       style="fill:#ffeeaa;fill-opacity:1;stroke:#000000;stroke-width:2" />
    <path
       sodipodi:nodetypes="sssss"
       inkscape:connector-curvature="0"
       id="path2987-7"
       d="M 159.85668,71.258478 C 161.62049,85.863248 148.5602,99.45273 130.6857,101.61141 112.81123,103.77012 96.891217,93.680574 95.127398,79.075803 94.197764,71.378104 107.1465,61.554331 125.02101,59.39563 c 17.87448,-2.158699 33.76302,2.981087 34.83567,11.862848 z"
       style="fill:#ffeeaa;fill-opacity:1;stroke:#000000;stroke-width:2" />
    <path
       sodipodi:nodetypes="sssss"
       inkscape:connector-curvature="0"
       id="path2987-7-4"
       d="m 144.40782,36.409729 c 1.76382,14.60477 -11.29648,28.194242 -29.17097,30.352933 -17.874489,2.1587 -33.794485,-7.930837 -35.558303,-22.535607 -0.929645,-7.697698 12.019103,-17.521474 29.893603,-19.680174 17.8745,-2.158701 33.76302,2.981086 34.83567,11.862848 z"
       style="fill:#ffeeaa;fill-opacity:1;stroke:#000000;stroke-width:2" />
    <path
       sodipodi:nodetypes="sssss"
       inkscape:connector-curvature="0"
       id="path2987-0"
       d="M 70.236866,51.88626 C 72.000681,66.49103 58.940389,80.080502 41.065902,82.239193 23.191414,84.397892 7.2714135,74.308357 5.5075994,59.703586 4.5779586,52.005888 17.526702,42.182115 35.401199,40.023414 53.275686,37.864713 69.164218,43.004499 70.236866,51.88626 z"
       style="fill:#ffeeaa;fill-opacity:1;stroke:#000000;stroke-width:2" />
    <path
       sodipodi:nodetypes="sssss"
       inkscape:connector-curvature="0"
       id="path2987-1-9"
       d="m 218.88382,34.353716 c 1.76381,14.604773 -11.29648,28.194245 -29.17098,30.352935 -17.87447,2.1587 -33.79448,-7.930835 -35.55828,-22.535606 -0.92966,-7.697702 12.01909,-17.521475 29.89359,-19.680176 17.87448,-2.158699 33.76302,2.981087 34.83567,11.862847 z"
       style="fill:#ffeeaa;fill-opacity:1;stroke:#000000;stroke-width:2" />
    <path
       sodipodi:nodetypes="cssc"
       inkscape:connector-curvature="0"
       id="path3087"
       d="M -22.941407,61.5989 C -23.270075,54.748812 2.2028923,33.656535 16.744227,27.634971 73.621906,4.0819615 138.4789,-0.27771695 200.54215,6.0432658 230.2015,9.0640012 250.53824,22.753162 255.01345,27.392527"
       style="fill:none;stroke:#000000;stroke-width:2;stroke-linecap:butt;stroke-linejoin:miter;stroke-opacity:1" />
  </g>
  <g
     inkscape:groupmode="layer"
     id="layer7"
     inkscape:label="枠面"
     style="display:inline"
     sodipodi:insensitive="true">
    <path
       style="fill:#ffffff;stroke:none;display:inline"
       d="m 0,0 0,320 370,0 0,-320 -10,10 0,300 -350,0 0,-300 350,0 10,-10 z"
       id="path21072"
       inkscape:connector-curvature="0"
       sodipodi:nodetypes="ccccccccccc" />
  </g>
</svg>
