<?xml version="1.0" encoding="UTF-8" standalone="no"?>
<!-- Created with Inkscape (http://www.inkscape.org/) -->

<svg
   xmlns:dc="http://purl.org/dc/elements/1.1/"
   xmlns:cc="http://creativecommons.org/ns#"
   xmlns:rdf="http://www.w3.org/1999/02/22-rdf-syntax-ns#"
   xmlns:svg="http://www.w3.org/2000/svg"
   xmlns="http://www.w3.org/2000/svg"
   xmlns:sodipodi="http://sodipodi.sourceforge.net/DTD/sodipodi-0.dtd"
   xmlns:inkscape="http://www.inkscape.org/namespaces/inkscape"
   width="370"
   height="320"
   id="svg2"
   version="1.1"
   inkscape:version="0.48.4 r9939"
   sodipodi:docname="[06.空想]10.射撃.svg"
   inkscape:export-filename="C:\Users\執安\Desktop\資料\臨時\描画3.png"
   inkscape:export-xdpi="90"
   inkscape:export-ydpi="90"
   enable-background="new">
  <defs
     id="defs4">
    <inkscape:perspective
       sodipodi:type="inkscape:persp3d"
       inkscape:vp_x="363.49708 : 943.81603 : 1"
       inkscape:vp_y="0 : 1000 : 0"
       inkscape:vp_z="744.09448 : 526.18109 : 1"
       inkscape:persp3d-origin="372.04724 : 350.78739 : 1"
       id="perspective5056" />
    <inkscape:perspective
       id="perspective5056-5"
       inkscape:persp3d-origin="372.04724 : 350.78739 : 1"
       inkscape:vp_z="744.09448 : 526.18109 : 1"
       inkscape:vp_y="0 : 1000 : 0"
       inkscape:vp_x="363.49708 : 943.81603 : 1"
       sodipodi:type="inkscape:persp3d" />
  </defs>
  <sodipodi:namedview
     id="base"
     pagecolor="#ffffff"
     bordercolor="#666666"
     borderopacity="1.0"
     inkscape:pageopacity="0.0"
     inkscape:pageshadow="2"
     inkscape:zoom="1.0527344"
     inkscape:cx="219.24594"
     inkscape:cy="175.08778"
     inkscape:document-units="px"
     inkscape:current-layer="g3163"
     showgrid="false"
     inkscape:window-width="1088"
     inkscape:window-height="694"
     inkscape:window-x="-3"
     inkscape:window-y="-2"
     inkscape:window-maximized="0"
     showguides="true"
     inkscape:guide-bbox="true"
     inkscape:snap-grids="false"
     inkscape:snap-to-guides="false"
     showborder="true"
     inkscape:showpageshadow="false"
     fit-margin-top="0"
     fit-margin-left="0"
     fit-margin-right="0"
     fit-margin-bottom="0"
     inkscape:snap-page="false" />
  <metadata
     id="metadata7">
    <rdf:RDF>
      <cc:Work
         rdf:about="">
        <dc:format>image/svg+xml</dc:format>
        <dc:type
           rdf:resource="http://purl.org/dc/dcmitype/StillImage" />
        <dc:title />
      </cc:Work>
    </rdf:RDF>
  </metadata>
  <g
     inkscape:groupmode="layer"
     id="layer2"
     inkscape:label="補助線"
     style="display:none"
     sodipodi:insensitive="true">
    <path
       style="fill:none;stroke:#0000ff;stroke-width:1px;stroke-linecap:butt;stroke-linejoin:miter;stroke-opacity:1"
       d="M 10,310 360,10"
       id="path3025"
       inkscape:connector-curvature="0"
       sodipodi:nodetypes="cc" />
    <path
       style="fill:none;stroke:#0000ff;stroke-width:1px;stroke-linecap:butt;stroke-linejoin:miter;stroke-opacity:1"
       d="M 10,10 360,310"
       id="path3027"
       inkscape:connector-curvature="0"
       sodipodi:nodetypes="cc" />
    <path
       style="fill:none;stroke:#ff0000;stroke-width:1px;stroke-linecap:butt;stroke-linejoin:miter;stroke-opacity:1;display:inline"
       d="m 10,0 0,320"
       id="path3006"
       inkscape:connector-curvature="0"
       sodipodi:nodetypes="cc" />
    <path
       style="fill:none;stroke:#ff0000;stroke-width:1px;stroke-linecap:butt;stroke-linejoin:miter;stroke-opacity:1;display:inline"
       d="m 360,0 0,320"
       id="path3010"
       inkscape:connector-curvature="0"
       sodipodi:nodetypes="cc" />
    <path
       style="fill:none;stroke:#ff0000;stroke-width:1px;stroke-linecap:butt;stroke-linejoin:miter;stroke-opacity:1;display:inline"
       d="M 0,9.9999681 370,10"
       id="path3016"
       inkscape:connector-curvature="0" />
    <path
       transform="translate(84.715796,27.711696)"
       style="fill:none;stroke:#ff0000;stroke-width:1px;stroke-linecap:butt;stroke-linejoin:miter;stroke-opacity:1;display:inline"
       d="m -84.715796,282.2883 369.999996,0"
       id="path3018"
       inkscape:connector-curvature="0"
       sodipodi:nodetypes="cc" />
  </g>
  <g
     style="display:inline"
     inkscape:label="豚"
     id="g3163"
     inkscape:groupmode="layer"
     transform="translate(84.715796,27.711696)"
     sodipodi:insensitive="true">
    <path
       style="fill:#ffd5d5;stroke:none;display:inline"
       d="m 211.1779,180.75929 c 8.30082,19.89847 10.39128,44.27282 4.29979,65.86603 C 141.47023,232.1773 68.496999,236.27231 -2.185346,259.73057 -7.769896,246.90914 -9.5180643,220.31233 -5.6857743,206.6717 60.945151,178.93704 136.38529,167.68552 211.1779,180.75929 z"
       id="path3366-1"
       inkscape:connector-curvature="0"
       sodipodi:nodetypes="ccccc" />
    <path
       sodipodi:nodetypes="ccsccsccc"
       inkscape:connector-curvature="0"
       id="path6512-4"
       d="M 13.818978,148.02434 C 5.098858,134.8711 2.7464876,122.95435 5.6672907,110.04036 -1.4602613,102.81176 -7.690137,83.12068 -0.22255696,61.671166 5.858193,44.204924 28.889271,28.023844 44.61558,27.870279 69.462597,8.3933193 103.87268,3.9124799 134.79039,16.860207 c 17.63142,-0.475557 39.75452,7.212486 49.62822,20.282832 14.77949,19.564414 14.24674,38.515343 8.03725,50.938576 7.42031,13.377505 7.29124,31.062125 0.44776,41.259815 -31.60586,68.03048 -180.889084,67.94977 -179.084642,18.68291 z"
       style="fill:#ffd5d5;stroke:none;display:inline" />
    <path
       sodipodi:nodetypes="cc"
       inkscape:connector-curvature="0"
       id="path6506"
       d="M 30.810381,43.786647 C 54.442149,4.9424267 121.2338,-3.1302212 155.84483,31.853401"
       style="fill:none;stroke:#000000;stroke-width:2;stroke-linecap:butt;stroke-linejoin:miter;stroke-opacity:1;display:inline" />
    <path
       sodipodi:nodetypes="cssc"
       inkscape:connector-curvature="0"
       id="path6508"
       d="m 134.34403,16.997598 c 20.73385,-0.420816 39.46609,6.261009 50.59303,20.520443 20.98856,26.897339 9.3794,54.712719 2.14137,56.035403 -8.83606,1.614743 -12.33027,-26.814645 -15.9921,-29.829218"
       style="fill:none;stroke:#000000;stroke-width:2;stroke-linecap:butt;stroke-linejoin:miter;stroke-opacity:1;display:inline" />
    <path
       sodipodi:nodetypes="cssc"
       inkscape:connector-curvature="0"
       id="path6510"
       d="M 44.711743,27.881696 C 24.972535,29.769636 6.8572982,44.344704 0.0119905,61.525708 -9.4706426,85.326122 1.301327,112.517 10.328063,111.89769 16.285519,111.48895 17.282428,81.818339 21.983298,77.796798"
       style="fill:none;stroke:#000000;stroke-width:2;stroke-linecap:butt;stroke-linejoin:miter;stroke-opacity:1;display:inline" />
    <path
       sodipodi:nodetypes="csssscc"
       inkscape:connector-curvature="0"
       id="path6514-8"
       d="m 20.985704,161.98273 c 12.25522,-11.54638 60.84672,-13.64412 66.92404,-6.62325 3.31331,3.82772 -5.90989,6.02247 -5.00392,8.92595 0.94263,3.02097 5.83497,4.20049 5.39145,7.21897 -1.75758,11.96308 -51.05034,65.23614 -84.6126203,44.67668 -20.2273497,-12.39079 -24.2797897,-56.61999 3.04238,-83.19101 z"
       style="fill:#ffd5d5;stroke:none;display:inline" />
    <path
       sodipodi:nodetypes="cc"
       inkscape:connector-curvature="0"
       id="path6512"
       d="M 13.826399,148.05563 C 4.7704385,136.41368 3.1414137,124.95787 5.6712158,110.03531"
       style="fill:none;stroke:#000000;stroke-width:2;stroke-linecap:butt;stroke-linejoin:miter;stroke-opacity:1;display:inline" />
    <path
       style="fill:#ffaaaa;stroke:none;display:inline"
       d="m 73.802744,192.11835 c 4.626584,-4.51256 13.276455,-14.67065 14.284035,-20.63373 0.508303,-3.00825 -4.448816,-4.198 -5.391446,-7.21897 -0.90597,-2.90348 8.212268,-5.00984 5.003916,-8.92595 -2.577316,-3.14587 -16.834753,-4.7024 -22.137053,-4.01919 -5.37325,2.55135 -2.752312,37.65817 8.240548,40.79784 z"
       id="path3368-5-6"
       inkscape:connector-curvature="0"
       sodipodi:nodetypes="cssscc" />
    <path
       sodipodi:nodetypes="cssssc"
       inkscape:connector-curvature="0"
       id="path6514"
       d="m 20.92099,162.02982 c 12.25522,-11.54638 60.846725,-13.64412 66.924041,-6.62325 3.313307,3.82772 -5.909892,6.02247 -5.003918,8.92595 0.942627,3.02097 5.834972,4.20049 5.391452,7.21897 -1.75758,11.96308 -51.050337,65.23614 -84.612617,44.67668 -20.227356,-12.39079 -24.828964,-56.20441 2.4932096,-82.77543"
       style="fill:none;stroke:#000000;stroke-width:2;stroke-linecap:butt;stroke-linejoin:miter;stroke-opacity:1;display:inline" />
    <path
       sodipodi:nodetypes="ssssss"
       inkscape:connector-curvature="0"
       id="path6516"
       d="m 97.914926,90.392661 c -16.413709,3.044928 -31.758899,20.402009 -36.766417,37.026879 -4.968406,16.49502 4.802564,26.46075 16.634069,22.62227 19.522087,-6.33354 35.465992,-8.93074 59.381582,-7.36086 13.4249,0.88124 16.41521,-16.53806 9.17696,-27.55077 C 137.59873,101.82897 116.0139,87.035097 97.914926,90.392661 z"
       style="fill:#ffaaaa;stroke:#000000;stroke-width:2;stroke-linecap:butt;stroke-linejoin:miter;stroke-opacity:1;display:inline" />
    <path
       sodipodi:nodetypes="cc"
       inkscape:connector-curvature="0"
       id="path6518"
       d="m 116.37546,83.344409 c 3.78492,-8.181331 8.30817,-16.545862 13.3868,-22.461277"
       style="fill:none;stroke:#000000;stroke-width:2;stroke-linecap:butt;stroke-linejoin:miter;stroke-opacity:1;display:inline" />
    <path
       style="fill:none;stroke:#000000;stroke-width:2;stroke-linecap:butt;stroke-linejoin:miter;stroke-opacity:1"
       d="m 150.29264,179.01519 c -6.82618,4.91451 -0.76659,39.88925 8.28886,40.8225"
       id="path3368"
       inkscape:connector-curvature="0"
       transform="translate(-84.715796,-27.711696)"
       sodipodi:nodetypes="cc" />
    <path
       sodipodi:nodetypes="csssscc"
       inkscape:connector-curvature="0"
       id="path6522-5"
       d="m 196.47551,122.11719 c 31.97772,48.13111 10.84565,84.99716 -15.7183,96.39494 -34.92741,14.98628 -118.033157,-10.69848 -125.228947,-26.79151 -1.63058,-3.64667 4.48474,-8.32127 4.85563,-10.97257 0.53144,-3.79852 -6.87556,-7.64139 -5.15517,-10.33465 7.68593,-12.03275 49.782937,-16.32856 85.567017,-14.8691 z"
       style="fill:#ffd5d5;stroke:none;display:inline" />
    <path
       style="fill:#ffaaaa;stroke:none;display:inline"
       d="m 75.327933,205.7967 c -5.75779,-2.27586 -17.709055,-8.86933 -19.904845,-13.96236 -1.581503,-3.66822 4.48474,-8.32127 4.85563,-10.97257 0.53144,-3.79852 -6.446776,-7.41144 -5.15517,-10.33465 1.56093,-3.53275 14.307209,-9.22672 22.752939,-10.25652 6.143315,4.02484 4.446073,43.93447 -2.548554,45.5261 z"
       id="path3370-2-4"
       inkscape:connector-curvature="0"
       sodipodi:nodetypes="cssscc" />
    <path
       sodipodi:nodetypes="cssssc"
       inkscape:connector-curvature="0"
       id="path6522"
       d="m 196.35081,122.11814 c 31.97772,48.13111 10.84565,84.99716 -15.7183,96.39494 -34.92742,14.98628 -118.033169,-10.69848 -125.228955,-26.79151 -1.63058,-3.64667 4.128519,-7.37136 4.499411,-10.02266 0.531446,-3.79852 -6.519344,-8.5913 -4.798955,-11.28456 7.685931,-12.03275 51.473639,-16.01912 85.700819,-14.87913"
       style="fill:none;stroke:#000000;stroke-width:2;stroke-linecap:butt;stroke-linejoin:miter;stroke-opacity:1;display:inline" />
    <path
       sodipodi:nodetypes="sss"
       inkscape:connector-curvature="0"
       id="path6524"
       d="m 92.246938,108.86541 c -5.063004,0.52673 -11.987978,24.43217 -4.973553,26.84333 6.509815,2.23771 7.971145,-27.15527 4.973553,-26.84333 z"
       style="fill:#000000;stroke:#000000;stroke-width:2;stroke-linecap:butt;stroke-linejoin:miter;stroke-opacity:1;display:inline" />
    <path
       sodipodi:nodetypes="sss"
       inkscape:connector-curvature="0"
       id="path6526"
       d="m 111.51077,106.04309 c -2.39958,0.5072 7.26365,29.23033 12.93167,24.38226 5.66444,-4.84511 -7.59285,-25.51071 -12.93167,-24.38226 z"
       style="fill:#000000;stroke:#000000;stroke-width:2;stroke-linecap:butt;stroke-linejoin:miter;stroke-opacity:1;display:inline" />
    <path
       sodipodi:nodetypes="cc"
       inkscape:connector-curvature="0"
       id="path6530"
       d="m -5.6969232,206.65602 c -3.8322864,13.64063 -2.0737382,40.25314 3.5108034,53.07457"
       style="fill:none;stroke:#000000;stroke-width:2;stroke-linecap:butt;stroke-linejoin:miter;stroke-opacity:1;display:inline" />
    <path
       style="fill:none;stroke:#000000;stroke-width:2;stroke-linecap:butt;stroke-linejoin:miter;stroke-opacity:1"
       d="m 60.459734,71.118836 c 8.35626,6.542742 13.126263,10.223698 20.202313,17.088198"
       id="path3314"
       inkscape:connector-curvature="0"
       sodipodi:nodetypes="cc" />
    <path
       style="fill:none;stroke:#000000;stroke-width:2;stroke-linecap:butt;stroke-linejoin:miter;stroke-opacity:1"
       d="m 295.96259,208.48872 c 8.30082,19.89847 10.86154,44.68854 4.14175,65.89412"
       id="path3366"
       inkscape:connector-curvature="0"
       transform="translate(-84.715796,-27.711696)"
       sodipodi:nodetypes="cc" />
    <path
       style="fill:none;stroke:#000000;stroke-width:2;stroke-linecap:butt;stroke-linejoin:miter;stroke-opacity:1"
       d="m 162.3245,187.56311 c 6.51238,5.54703 4.3158,44.57438 -2.31544,45.93596"
       id="path3370"
       inkscape:connector-curvature="0"
       transform="translate(-84.715796,-27.711696)"
       sodipodi:nodetypes="cc" />
    <path
       sodipodi:nodetypes="cc"
       inkscape:connector-curvature="0"
       id="path6520"
       d="m 192.42546,87.951941 c 7.40951,14.844409 7.32907,31.202099 0.48559,41.399789"
       style="fill:none;stroke:#000000;stroke-width:2;stroke-linecap:butt;stroke-linejoin:miter;stroke-opacity:1;display:inline" />
  </g>
  <g
     inkscape:groupmode="layer"
     id="layer3"
     inkscape:label="銃"
     style="display:inline"
     sodipodi:insensitive="true">
    <path
       style="fill:#483737;stroke:none;display:inline"
       d="m 146.96367,130.11724 c 0.86398,-2.46049 0.90665,-5.09369 -0.0585,-7.93888 5.69367,0.89874 10.95884,4.51138 17.52177,-0.0952 -0.72929,2.65873 -1.28441,5.09821 -0.001,7.68109 z"
       id="path3316-9"
       inkscape:connector-curvature="0"
       sodipodi:nodetypes="ccccc" />
    <path
       style="fill:#483737;stroke:#000000;stroke-width:2;stroke-linecap:butt;stroke-linejoin:miter;stroke-opacity:1;display:inline"
       d="m 146.36353,172.99596 1.29134,62.99873 18.27168,-0.44796 -1.88303,-62.73579"
       id="path3312"
       inkscape:connector-curvature="0"
       sodipodi:nodetypes="cccc" />
    <path
       d="m 248.55435,113.92883 a 17.528181,17.71796 0 1 1 -35.05636,0 17.528181,17.71796 0 1 1 35.05636,0 z"
       sodipodi:ry="17.71796"
       sodipodi:rx="17.528181"
       sodipodi:cy="113.92883"
       sodipodi:cx="231.02617"
       id="path6528"
       style="fill:#ffffff;fill-opacity:0.50196078;stroke:#000000;stroke-width:2.38112998;display:inline"
       sodipodi:type="arc"
       transform="matrix(0.84474743,-0.03183572,0.03142957,0.83397023,-42.869619,22.065331)" />
    <path
       style="fill:#483737;stroke:#000000;stroke-width:2;stroke-linecap:butt;stroke-linejoin:miter;stroke-opacity:1;display:inline"
       d="m 140.66134,143.01067 c -0.45272,-20.677 29.83516,-22.25548 29.44551,-0.86906 l -0.54604,29.97158 c -0.0314,1.72404 0.19665,4.21956 -3.32254,4.24527 l -21.44222,0.15665 c -2.69174,0.0197 -3.45439,-2.43257 -3.50037,-4.53253 z"
       id="path3310"
       inkscape:connector-curvature="0"
       sodipodi:nodetypes="sssssss" />
    <path
       style="fill:none;stroke:#000000;stroke-width:2;stroke-linecap:butt;stroke-linejoin:miter;stroke-opacity:1;display:inline"
       d="m 146.95772,121.71748 c 0.96515,2.84519 0.92248,5.47839 0.0585,7.93888"
       id="path3316"
       inkscape:connector-curvature="0"
       sodipodi:nodetypes="cc" />
    <path
       style="fill:none;stroke:#000000;stroke-width:2;stroke-linecap:butt;stroke-linejoin:miter;stroke-opacity:1;display:inline"
       d="m 164.47949,121.62225 c -0.72929,2.65873 -1.28441,5.09821 -0.001,7.68109"
       id="path3318"
       inkscape:connector-curvature="0"
       sodipodi:nodetypes="cc" />
    <path
       transform="matrix(0.67325966,-0.02537292,0.02537292,0.67325966,1.6153682,33.955007)"
       d="m 238.57554,169.68338 a 16.23443,16.469711 0 1 1 -32.46886,0 16.23443,16.469711 0 1 1 32.46886,0 z"
       sodipodi:ry="16.469711"
       sodipodi:rx="16.23443"
       sodipodi:cy="169.68338"
       sodipodi:cx="222.34111"
       id="path6532"
       style="fill:#000000;stroke:#000000;stroke-width:2.96851468;display:inline"
       sodipodi:type="arc" />
    <path
       style="fill:none;stroke:#000000;stroke-width:2;stroke-linecap:butt;stroke-linejoin:miter;stroke-opacity:1"
       d="m 156.2474,95.001196 -0.3168,29.406294"
       id="path4334"
       inkscape:connector-curvature="0"
       sodipodi:nodetypes="cc" />
    <path
       style="fill:none;stroke:#000000;stroke-width:2;stroke-linecap:butt;stroke-linejoin:miter;stroke-opacity:1"
       d="m 141.11184,109.35166 29.4182,0.21809"
       id="path4336"
       inkscape:connector-curvature="0"
       sodipodi:nodetypes="cc" />
  </g>
  <g
     inkscape:groupmode="layer"
     id="layer1"
     inkscape:label="叢"
     style="display:inline"
     sodipodi:insensitive="true">
    <path
       sodipodi:nodetypes="scscccccscsccsssssssssssssss"
       inkscape:connector-curvature="0"
       id="path6536-1"
       d="m 207.18895,258.86804 c 4.50331,-9.16506 12.81181,-12.59984 19.30346,-17.14192 -2.43489,9.26236 -8.38291,22.4761 -7.12531,27.71016 0.7839,3.26264 16.12118,-15.67154 26.67279,-20.39908 -5.92261,9.20702 -9.65857,16.17583 -14.065,26.96398 14.32951,-29.80284 33.65521,-45.72738 53.26205,-60.87091 -17.27227,19.51373 -33.56305,45.2716 -44.38502,67.21166 5.86137,-10.30523 12.82439,-24.19729 24.39582,-31.70029 -1.82393,4.82134 -4.073,10.41086 -3.65717,12.30338 1.22627,5.58104 14.25359,-16.21039 29.17061,-24.65185 -2.05206,4.2355 -4.52697,11.73914 -4.80995,17.52654 -0.37999,7.77379 38.85176,-44.0466 72.83812,-70.80787 -16.80517,21.66343 -49.72609,75.74488 -36.72457,88.76075 -4.98381,-2.62935 -7.68509,-2.34023 -13.76229,1.17445 -9.61313,5.55964 -13.91345,25.46694 -21.17203,31.43796 -3.2045,2.63606 5.0483,-30.6067 1.0555,-27.12872 -5.00631,4.36081 -10.07647,9.81836 -16.68361,21.92726 -2.8622,5.24555 5.98114,-31.57318 -0.1197,-26.60439 -8.32241,6.77813 -10.2595,11.10143 -15.88693,19.80333 -1.93889,2.99818 4.14338,-17.7847 -1.5673,-11.79154 -6.88043,7.22077 -11.61471,9.18607 -16.93985,18.54785 -3.47409,6.10758 -1.39634,-22.10647 -4.71492,-14.19737 -3.79428,9.04284 -12.09936,8.65781 -16.74004,15.59351 -5.6025,8.37317 8.64404,-23.40726 3.40292,-21.61902 -5.63526,1.92273 -7.79494,7.36043 -12.8397,10.395 -6.10382,3.67162 7.50355,-14.67036 2.76587,-13.21887 -4.64958,1.4245 -7.10195,3.11505 -14.00532,8.00563 -3.65169,2.58698 8.9991,-20.44745 12.33157,-27.22963 z"
       style="fill:#008000;stroke:none;display:inline" />
    <path
       sodipodi:nodetypes="scscscscscscscccscsccsssssssssssssss"
       inkscape:connector-curvature="0"
       id="path6534-7"
       d="M 12.628966,288.04594 C 4.8859323,212.0548 39.79393,144.36021 67.143235,113.26621 c -26.482336,35.71773 -39.63275,108.3616 -35.016577,116.07717 2.897883,4.84356 3.295594,-12.64463 10.620742,-24.68683 -4.109398,19.77616 -4.445126,57.46194 -0.429109,60.52436 5.37858,4.10143 4.88237,-29.22358 23.723314,-59.75002 -3.17015,17.28614 -8.55337,44.0402 -6.1839,49.43273 3.03552,6.90831 9.11358,-26.41787 30.65007,-51.85698 -8.86915,16.59698 -19.00627,58.08157 -16.72931,65.74325 3.23758,10.89385 11.46924,-18.98883 23.45267,-29.30335 -1.23172,9.17093 -4.12435,32.6591 -1.22169,35.75944 5.142165,5.49237 15.375905,-13.05495 21.950775,-18.72431 -1.91052,5.41294 -4.87166,11.15008 -4.6723,14.76138 0.51999,9.41805 10.64788,-27.86693 39.78804,-53.57912 l -18.22958,32.49619 c 19.3845,-24.69862 39.32687,-42.96796 59.6028,-61.6635 0,0 -50.67221,77.09336 -42.79992,82.27084 4.68254,3.07966 18.86371,-23.93621 18.86371,-23.93621 -1.45959,5.48961 -2.52356,12.48544 -0.0793,14.66295 7.22442,6.43589 33.24954,-55.81652 91.96369,-88.30651 -29.06915,38.02582 -57.06119,65.70956 -58.65007,108.42796 0,0 -9.47209,-18.84205 -13.1062,-7.99024 -6.58422,19.66114 -7.87197,-5.46677 -14.69722,15.04907 -6.65089,19.99176 -15.46779,-9.83798 -23.82446,4.56235 -15.01794,25.87912 -14.02284,-14.03283 -22.54574,4.29436 -6.73967,14.49264 -1.78219,-19.39722 -8.00205,-12.05817 -2.56607,3.02781 -8.74625,10.22569 -15.70709,21.51437 -4.67373,7.57959 -9.693362,-23.58427 -12.33863,-18.62751 -15.898581,29.7911 -10.053973,-3.91105 -12.701509,1.31893 -8.54549,16.88087 -11.006025,0.73199 -14.55113,11.27812 -1.721884,5.12233 -4.371056,-21.61974 -7.317483,-18.99708 -5.486908,4.88399 -8.070096,16.96802 -11.479226,20.9884 -2.918323,3.44157 -1.265471,-25.17283 -4.723513,-20.94936 -5.942843,7.25826 -8.726305,17.22763 -9.809402,20.85464 -2.070591,6.93388 -7.683725,-22.50955 -8.639761,-21.27979 -4.72985,6.08406 -10.128618,21.64771 -11.67491,6.4722 z"
       style="fill:#37c871;stroke:none;display:inline" />
    <path
       transform="translate(84.715796,27.711696)"
       sodipodi:nodetypes="ccscscscscscscccscscc"
       inkscape:connector-curvature="0"
       id="path6534"
       d="m -72.148176,260.35192 c -8.423341,-75.76557 27.164963,-143.68573 54.514267,-174.779731 -26.482335,35.717731 -39.632749,108.361601 -35.016576,116.077171 2.897883,4.84356 3.295594,-12.64463 10.620742,-24.68683 -4.109398,19.77616 -4.445126,57.46194 -0.429109,60.52436 5.37858,4.10143 4.88237,-29.22358 23.723312,-59.75002 -3.170143,17.28614 -8.553371,44.0402 -6.183896,49.43273 3.035521,6.90831 9.113576,-26.41787 30.6500701,-51.85698 -8.8691493,16.59698 -19.0062741,58.08157 -16.7293101,65.74325 3.2375753,10.89385 11.46923814,-18.98883 23.452671,-29.30335 -1.231726,9.17093 -4.1243509,32.6591 -1.221688,35.75944 5.142168,5.49237 15.375905,-13.05495 21.950775,-18.72431 -1.910517,5.41294 -4.87166,11.15008 -4.672302,14.76138 0.519991,9.41805 10.647883,-27.86693 39.788045,-53.57912 L 50.069238,222.4661 c 19.384508,-24.69862 39.326871,-42.96796 59.602802,-61.6635 0,0 -50.672208,77.09336 -42.799922,82.27084 4.682543,3.07966 18.86371,-23.93621 18.86371,-23.93621 -1.459585,5.48961 -2.523552,12.48544 -0.07929,14.66295 7.224421,6.43589 33.249542,-55.81652 91.963692,-88.30651 -29.06915,38.02582 -57.06119,65.70956 -58.65007,108.42796"
       style="fill:none;stroke:#000000;stroke-width:2;stroke-linecap:butt;stroke-linejoin:miter;stroke-opacity:1;display:inline" />
    <path
       transform="translate(84.715796,27.711696)"
       sodipodi:nodetypes="ccscccccscscc"
       inkscape:connector-curvature="0"
       id="path6536"
       d="m 122.45486,231.1714 c 6.19361,-8.11895 12.81181,-12.59984 19.30346,-17.14192 -2.43489,9.26236 -8.38291,22.4761 -7.12531,27.71016 0.7839,3.26264 16.12118,-15.67154 26.67279,-20.39908 -5.92261,9.20702 -9.65857,16.17583 -14.065,26.96398 14.32951,-29.80284 33.65521,-45.72738 53.26205,-60.87091 -17.27227,19.51373 -33.56305,45.2716 -44.38502,67.21166 5.86137,-10.30523 12.82439,-24.19729 24.39582,-31.70029 -1.82393,4.82134 -4.073,10.41086 -3.65717,12.30338 1.22627,5.58104 14.25359,-16.21039 29.17061,-24.65185 -2.05206,4.2355 -4.52697,11.73914 -4.80995,17.52654 -0.37999,7.77379 38.85176,-44.0466 72.83812,-70.80787 -16.80517,21.66343 -49.72609,75.74488 -36.72457,88.76075"
       style="fill:none;stroke:#000000;stroke-width:2;stroke-linecap:butt;stroke-linejoin:miter;stroke-opacity:1;display:inline" />
  </g>
  <g
     inkscape:groupmode="layer"
     id="layer7"
     inkscape:label="枠面"
     style="display:inline"
     sodipodi:insensitive="true">
    <path
       style="fill:#ffffff;stroke:none;display:inline"
       d="m 0,0 0,320 370,0 0,-320 -10,10 0,300 -350,0 0,-300 350,0 10,-10 z"
       id="path21072"
       inkscape:connector-curvature="0"
       sodipodi:nodetypes="ccccccccccc" />
  </g>
</svg>
