<?xml version="1.0" encoding="UTF-8" standalone="no"?>
<!-- Created with Inkscape (http://www.inkscape.org/) -->

<svg
   xmlns:dc="http://purl.org/dc/elements/1.1/"
   xmlns:cc="http://creativecommons.org/ns#"
   xmlns:rdf="http://www.w3.org/1999/02/22-rdf-syntax-ns#"
   xmlns:svg="http://www.w3.org/2000/svg"
   xmlns="http://www.w3.org/2000/svg"
   xmlns:xlink="http://www.w3.org/1999/xlink"
   xmlns:sodipodi="http://sodipodi.sourceforge.net/DTD/sodipodi-0.dtd"
   xmlns:inkscape="http://www.inkscape.org/namespaces/inkscape"
   width="370"
   height="320"
   id="svg2"
   version="1.1"
   inkscape:version="0.48.4 r9939"
   sodipodi:docname="[06.空想]06.充填.svg"
   inkscape:export-filename="C:\Users\執安\Desktop\資料\臨時\TAKEDA\[06.空想]06.充填.png"
   inkscape:export-xdpi="90"
   inkscape:export-ydpi="90"
   enable-background="new">
  <defs
     id="defs4">
    <inkscape:perspective
       sodipodi:type="inkscape:persp3d"
       inkscape:vp_x="363.49708 : 943.81603 : 1"
       inkscape:vp_y="0 : 1000 : 0"
       inkscape:vp_z="744.09448 : 526.18109 : 1"
       inkscape:persp3d-origin="372.04724 : 350.78739 : 1"
       id="perspective5056" />
    <inkscape:perspective
       id="perspective5056-8"
       inkscape:persp3d-origin="372.04724 : 350.78739 : 1"
       inkscape:vp_z="744.09448 : 526.18109 : 1"
       inkscape:vp_y="0 : 1000 : 0"
       inkscape:vp_x="363.49708 : 943.81603 : 1"
       sodipodi:type="inkscape:persp3d" />
    <linearGradient
       id="linearGradient12499-5-3"
       inkscape:collect="always">
      <stop
         id="stop12501-0-8"
         offset="0"
         style="stop-color:#ffd5d5;stop-opacity:1;" />
      <stop
         id="stop12503-9-9"
         offset="1"
         style="stop-color:#ffd5d5;stop-opacity:0;" />
    </linearGradient>
    <linearGradient
       id="linearGradient12499-5"
       inkscape:collect="always">
      <stop
         id="stop12501-0"
         offset="0"
         style="stop-color:#ffd5d5;stop-opacity:1;" />
      <stop
         id="stop12503-9"
         offset="1"
         style="stop-color:#ffd5d5;stop-opacity:0;" />
    </linearGradient>
    <linearGradient
       id="linearGradient12499-8"
       inkscape:collect="always">
      <stop
         id="stop12501-6"
         offset="0"
         style="stop-color:#ffd5d5;stop-opacity:1;" />
      <stop
         id="stop12503-0"
         offset="1"
         style="stop-color:#ffd5d5;stop-opacity:0;" />
    </linearGradient>
    <linearGradient
       gradientTransform="translate(0,-7)"
       gradientUnits="userSpaceOnUse"
       y2="78.526123"
       x2="178.78178"
       y1="135.02612"
       x1="175.8602"
       id="linearGradient12505-2"
       xlink:href="#linearGradient12499-8"
       inkscape:collect="always" />
    <linearGradient
       id="linearGradient12499-9"
       inkscape:collect="always">
      <stop
         id="stop12501-8"
         offset="0"
         style="stop-color:#ffd5d5;stop-opacity:1;" />
      <stop
         id="stop12503-6"
         offset="1"
         style="stop-color:#ffd5d5;stop-opacity:0;" />
    </linearGradient>
    <linearGradient
       gradientTransform="translate(0,-7)"
       gradientUnits="userSpaceOnUse"
       y2="78.526123"
       x2="178.78178"
       y1="135.02612"
       x1="175.8602"
       id="linearGradient12505-1"
       xlink:href="#linearGradient12499-9"
       inkscape:collect="always" />
    <inkscape:perspective
       id="perspective5056-5"
       inkscape:persp3d-origin="372.04724 : 350.78739 : 1"
       inkscape:vp_z="744.09448 : 526.18109 : 1"
       inkscape:vp_y="0 : 1000 : 0"
       inkscape:vp_x="363.49708 : 943.81603 : 1"
       sodipodi:type="inkscape:persp3d" />
    <linearGradient
       id="linearGradient12499"
       inkscape:collect="always">
      <stop
         id="stop12501"
         offset="0"
         style="stop-color:#ffd5d5;stop-opacity:1;" />
      <stop
         id="stop12503"
         offset="1"
         style="stop-color:#ffd5d5;stop-opacity:0;" />
    </linearGradient>
    <linearGradient
       inkscape:collect="always"
       xlink:href="#linearGradient12499"
       id="linearGradient4842"
       gradientUnits="userSpaceOnUse"
       gradientTransform="matrix(0.98323667,-0.18233388,0.18233388,0.98323667,74.736688,42.602255)"
       x1="175.8602"
       y1="135.02612"
       x2="180.12286"
       y2="104.20104" />
    <linearGradient
       inkscape:collect="always"
       xlink:href="#linearGradient12499-5"
       id="linearGradient4848"
       gradientUnits="userSpaceOnUse"
       gradientTransform="matrix(0.99586062,-0.09089341,0.09089341,0.99586062,90.234074,51.049697)"
       x1="184.3886"
       y1="140.77484"
       x2="178.00351"
       y2="106.50191" />
    <linearGradient
       inkscape:collect="always"
       xlink:href="#linearGradient12499-5-3"
       id="linearGradient4854"
       gradientUnits="userSpaceOnUse"
       gradientTransform="matrix(0.99850313,0.05469451,-0.05469451,0.99850313,114.06992,56.176849)"
       x1="186.74098"
       y1="139.74136"
       x2="168.63582"
       y2="87.2258" />
    <inkscape:perspective
       sodipodi:type="inkscape:persp3d"
       inkscape:vp_x="363.49708 : 943.81603 : 1"
       inkscape:vp_y="0 : 1000 : 0"
       inkscape:vp_z="744.09448 : 526.18109 : 1"
       inkscape:persp3d-origin="372.04724 : 350.78739 : 1"
       id="perspective5056-4" />
    <inkscape:perspective
       sodipodi:type="inkscape:persp3d"
       inkscape:vp_x="363.49708 : 943.81603 : 1"
       inkscape:vp_y="0 : 1000 : 0"
       inkscape:vp_z="744.09448 : 526.18109 : 1"
       inkscape:persp3d-origin="372.04724 : 350.78739 : 1"
       id="perspective5056-8-7" />
    <inkscape:perspective
       id="perspective5056-85"
       inkscape:persp3d-origin="372.04724 : 350.78739 : 1"
       inkscape:vp_z="744.09448 : 526.18109 : 1"
       inkscape:vp_y="0 : 1000 : 0"
       inkscape:vp_x="363.49708 : 943.81603 : 1"
       sodipodi:type="inkscape:persp3d" />
    <radialGradient
       gradientUnits="userSpaceOnUse"
       gradientTransform="matrix(1,0,0,0.95238095,0,7.8077833)"
       r="65.535355"
       fy="163.96344"
       fx="76.631287"
       cy="163.96344"
       cx="76.631287"
       id="radialGradient4065"
       xlink:href="#linearGradient4059"
       inkscape:collect="always" />
    <inkscape:perspective
       id="perspective5056-40"
       inkscape:persp3d-origin="372.04724 : 350.78739 : 1"
       inkscape:vp_z="744.09448 : 526.18109 : 1"
       inkscape:vp_y="0 : 1000 : 0"
       inkscape:vp_x="363.49708 : 943.81603 : 1"
       sodipodi:type="inkscape:persp3d" />
    <linearGradient
       id="linearGradient4059">
      <stop
         id="stop4061"
         offset="0"
         style="stop-color:#ff0000;stop-opacity:1;" />
      <stop
         id="stop4063"
         offset="1"
         style="stop-color:#0000ff;stop-opacity:0;" />
    </linearGradient>
    <radialGradient
       inkscape:collect="always"
       xlink:href="#linearGradient4059"
       id="radialGradient3641"
       gradientUnits="userSpaceOnUse"
       gradientTransform="matrix(1,0,0,0.95238095,0,7.8077833)"
       cx="76.631287"
       cy="163.96344"
       fx="76.631287"
       fy="163.96344"
       r="65.535355" />
    <radialGradient
       inkscape:collect="always"
       xlink:href="#linearGradient4059"
       id="radialGradient3173"
       gradientUnits="userSpaceOnUse"
       gradientTransform="matrix(1,0,0,0.95238095,0,7.8077833)"
       cx="76.631287"
       cy="163.96344"
       fx="76.631287"
       fy="163.96344"
       r="65.535355" />
  </defs>
  <sodipodi:namedview
     id="base"
     pagecolor="#ffffff"
     bordercolor="#666666"
     borderopacity="1.0"
     inkscape:pageopacity="0.0"
     inkscape:pageshadow="2"
     inkscape:zoom="0.75268202"
     inkscape:cx="-126.87285"
     inkscape:cy="115.15647"
     inkscape:document-units="px"
     inkscape:current-layer="layer11"
     showgrid="false"
     inkscape:window-width="1259"
     inkscape:window-height="694"
     inkscape:window-x="-6"
     inkscape:window-y="-2"
     inkscape:window-maximized="0"
     showguides="true"
     inkscape:guide-bbox="true"
     inkscape:snap-grids="false"
     inkscape:snap-to-guides="false"
     showborder="true"
     inkscape:showpageshadow="false"
     fit-margin-top="0"
     fit-margin-left="0"
     fit-margin-right="0"
     fit-margin-bottom="0"
     inkscape:snap-page="false" />
  <metadata
     id="metadata7">
    <rdf:RDF>
      <cc:Work
         rdf:about="">
        <dc:format>image/svg+xml</dc:format>
        <dc:type
           rdf:resource="http://purl.org/dc/dcmitype/StillImage" />
        <dc:title></dc:title>
      </cc:Work>
    </rdf:RDF>
  </metadata>
  <g
     inkscape:groupmode="layer"
     id="layer2"
     inkscape:label="補助線"
     style="display:none"
     sodipodi:insensitive="true">
    <path
       style="fill:none;stroke:#0000ff;stroke-width:1px;stroke-linecap:butt;stroke-linejoin:miter;stroke-opacity:1"
       d="M 10,310 360,10"
       id="path3025"
       inkscape:connector-curvature="0"
       sodipodi:nodetypes="cc" />
    <path
       style="fill:none;stroke:#0000ff;stroke-width:1px;stroke-linecap:butt;stroke-linejoin:miter;stroke-opacity:1"
       d="M 10,10 360,310"
       id="path3027"
       inkscape:connector-curvature="0"
       sodipodi:nodetypes="cc" />
    <path
       style="fill:none;stroke:#ff0000;stroke-width:1px;stroke-linecap:butt;stroke-linejoin:miter;stroke-opacity:1;display:inline"
       d="m 10,0 0,320"
       id="path3006"
       inkscape:connector-curvature="0"
       sodipodi:nodetypes="cc" />
    <path
       style="fill:none;stroke:#ff0000;stroke-width:1px;stroke-linecap:butt;stroke-linejoin:miter;stroke-opacity:1;display:inline"
       d="m 360,0 0,320"
       id="path3010"
       inkscape:connector-curvature="0"
       sodipodi:nodetypes="cc" />
    <path
       style="fill:none;stroke:#ff0000;stroke-width:1px;stroke-linecap:butt;stroke-linejoin:miter;stroke-opacity:1;display:inline"
       d="M 0,9.9999681 370,10"
       id="path3016"
       inkscape:connector-curvature="0" />
    <path
       transform="translate(84.715796,27.711696)"
       style="fill:none;stroke:#ff0000;stroke-width:1px;stroke-linecap:butt;stroke-linejoin:miter;stroke-opacity:1;display:inline"
       d="m -84.715796,282.2883 369.999996,0"
       id="path3018"
       inkscape:connector-curvature="0"
       sodipodi:nodetypes="cc" />
  </g>
  <g
     inkscape:groupmode="layer"
     id="layer11"
     inkscape:label="豚"
     style="display:inline"
     sodipodi:insensitive="true">
    <path
       style="fill:#ffd5d5;stroke:#000000;stroke-width:2;stroke-linecap:butt;stroke-linejoin:miter;stroke-opacity:1;display:inline"
       d="M 192.08797,294.9237 115.10145,289.36325 77.729222,263.42868 65.573055,194.48857 74.341436,110.68319 208.45385,18.640769 c 28.8666,-0.160588 56.55785,26.497871 50.07697,51.292002 l 8.40691,38.447669 44.16291,169.04753 -60.21462,20.46883"
       id="path5580"
       inkscape:connector-curvature="0"
       sodipodi:nodetypes="cccccccccc" />
    <path
       style="fill:#ffd5d5;stroke:#000000;stroke-width:2;stroke-linecap:butt;stroke-linejoin:miter;stroke-opacity:1;display:inline"
       d="m 74.623015,252.6607 c -21.171805,6.69944 -31.325709,23.37304 -24.536714,33.52804 13.498009,20.19037 60.778639,14.43439 88.151799,6.44383"
       id="path3185"
       inkscape:connector-curvature="0"
       sodipodi:nodetypes="csc" />
    <path
       style="fill:#ffd5d5;stroke:#000000;stroke-width:2;stroke-linecap:butt;stroke-linejoin:miter;stroke-opacity:1;display:inline"
       d="m 225.59631,295.9111 c 16.79551,17.34065 97.2714,12.96859 106.90237,-0.69818 10.72282,-15.21614 -7.99487,-27.07487 -22.28099,-30.67786"
       id="path5596"
       inkscape:connector-curvature="0"
       sodipodi:nodetypes="csc" />
    <path
       sodipodi:nodetypes="cc"
       inkscape:connector-curvature="0"
       id="path5594"
       d="m 67.577686,200.13684 c -6.028284,23.59333 -1.159255,44.54073 13.386269,60.48986"
       style="fill:#ffd5d5;stroke:#000000;stroke-width:2;stroke-linecap:butt;stroke-linejoin:miter;stroke-opacity:1;display:inline" />
    <path
       style="fill:#ffd5d5;stroke:#000000;stroke-width:2;stroke-linecap:butt;stroke-linejoin:miter;stroke-opacity:1;display:inline"
       d="m 118.1152,285.3011 c 15.84563,15.21293 90.07328,6.95543 127.92107,12.08597"
       id="path3189"
       inkscape:connector-curvature="0" />
    <path
       style="fill:#ffd5d5;stroke:#000000;stroke-width:2;stroke-linecap:butt;stroke-linejoin:miter;stroke-opacity:1;display:inline"
       d="M 306.71057,270.44811 C 334.69704,228.82868 302.82252,150.04428 264.50353,114.34543"
       id="path3187"
       inkscape:connector-curvature="0"
       sodipodi:nodetypes="cc" />
    <path
       style="fill:#ffd5d5;stroke:#000000;stroke-width:2;stroke-linecap:butt;stroke-linejoin:miter;stroke-opacity:1;display:inline"
       d="m 252.11547,63.22831 c 22.79774,22.303779 25.84098,49.91415 12.26809,72.15514"
       id="path5582"
       inkscape:connector-curvature="0" />
    <path
       style="fill:none;stroke:#000000;stroke-width:2;stroke-linecap:butt;stroke-linejoin:miter;stroke-opacity:1;display:inline"
       d="m 231.37407,55.695041 -0.97744,13.085705"
       id="path5584"
       inkscape:connector-curvature="0"
       sodipodi:nodetypes="cc" />
    <path
       style="fill:none;stroke:#000000;stroke-width:2;stroke-linecap:butt;stroke-linejoin:miter;stroke-opacity:1;display:inline"
       d="M 206.32467,76.787118 192.16285,68.414975"
       id="path5586"
       inkscape:connector-curvature="0"
       sodipodi:nodetypes="cc" />
    <path
       style="fill:#ffaaaa;stroke:#000000;stroke-width:2;stroke-linecap:butt;stroke-linejoin:miter;stroke-opacity:1;display:inline"
       d="m 231.52931,76.772551 c -14.35108,3.041896 -27.03329,19.285616 -33.36647,36.009699 -7.58765,20.03679 3.1147,31.65599 14.18534,27.15586 16.66797,-6.77541 26.15743,-10.22993 36.17782,-11.65388 10.63291,-1.51098 12.57554,-14.58287 9.44952,-26.8776 -3.73629,-14.694946 -14.92257,-27.076663 -26.44621,-24.634079 z"
       id="path5588"
       inkscape:connector-curvature="0"
       sodipodi:nodetypes="ssssss" />
    <path
       style="fill:#ffd5d5;stroke:#000000;stroke-width:2;stroke-linecap:butt;stroke-linejoin:miter;stroke-opacity:1;display:inline"
       d="M 73.040104,116.37953 C 69.490507,107.12824 80.926229,79.403601 103.33702,50.411107 136.94261,6.9360723 184.7545,4.4002111 218.41308,23.442016"
       id="path5592"
       inkscape:connector-curvature="0" />
    <path
       style="fill:#000000;stroke:#000000;stroke-width:2;stroke-linecap:butt;stroke-linejoin:miter;stroke-opacity:1;display:inline"
       d="m 217.87998,123.78707 c 3.02545,4.58128 10.23505,-31.761041 7.04859,-30.876095 -4.99645,1.387615 -13.82491,20.615105 -7.04859,30.876095 z"
       id="path5598"
       inkscape:connector-curvature="0"
       sodipodi:nodetypes="sss" />
    <path
       style="fill:#000000;stroke:#000000;stroke-width:2;stroke-linecap:butt;stroke-linejoin:miter;stroke-opacity:1;display:inline"
       d="m 237.44463,89.433447 c -3.06443,-0.264304 3.15493,32.060563 5.9004,28.473513 6.70038,-8.75427 -2.14405,-28.149537 -5.9004,-28.473513 z"
       id="path5600"
       inkscape:connector-curvature="0"
       sodipodi:nodetypes="sss" />
    <path
       style="fill:#ffd5d5;stroke:#000000;stroke-width:2;stroke-linecap:butt;stroke-linejoin:miter;stroke-opacity:1;display:inline"
       d="M 123.72726,34.851477 C 76.839022,45.792941 72.469221,103.1666 99.870659,119.86186 111.70533,127.07253 127.51384,94.103043 137.55686,80.627937"
       id="path5590"
       inkscape:connector-curvature="0" />
    <path
       style="fill:#ffd5d5;stroke:none;display:inline"
       d="m 85.850627,149.71538 c 12.400951,10.56135 16.288503,24.0994 11.963394,27.50656 -3.982106,3.13694 -8.461536,5.20776 -10.570422,8.69921 -2.187242,3.62119 1.99616,10.30518 -3.752936,13.28376 -12.263453,6.35363 -47.636886,15.18371 -52.846946,-5.96911 -4.56482,-18.53308 4.94838,-62.87554 44.144984,-78.38437"
       id="path3155-4"
       inkscape:connector-curvature="0"
       sodipodi:nodetypes="cssssc" />
    <path
       sodipodi:nodetypes="ccsssc"
       inkscape:connector-curvature="0"
       id="path5788-1-2"
       d="m 69.183587,204.40046 c -12.880898,-8.77932 10.839699,-49.51531 27.587933,-41.1722 1.399784,2.55436 4.41407,10.8874 1.068035,14.03271 -3.241476,3.047 -8.820425,5.70261 -10.606547,8.68994 -2.170956,3.63097 1.5713,10.95034 -3.732742,13.24903 -3.894738,1.68791 -7.665423,3.84932 -14.316679,5.20052 z"
       style="fill:#ffaaaa;stroke:none;display:inline" />
    <path
       sodipodi:nodetypes="scscs"
       inkscape:connector-curvature="0"
       id="path5788-1-2-6"
       d="m 87.266244,185.92214 c -1.855078,3.80208 0.350501,12.11236 -3.090025,12.87922 -5.79122,-0.019 -2.403725,-12.09049 -0.675673,-15.40435 1.910185,-3.66316 14.047866,-13.04511 14.703422,-6.53857 -2.58716,2.48626 -9.359302,5.82866 -10.937724,9.0637 z"
       style="fill:#ff8080;stroke:none;display:inline" />
    <path
       style="fill:none;stroke:#000000;stroke-width:2;stroke-linecap:butt;stroke-linejoin:miter;stroke-opacity:1;display:inline"
       d="m 85.852637,149.71899 c 12.400951,10.56135 16.288503,24.0994 11.963394,27.50656 -3.982106,3.13694 -8.461536,5.20776 -10.570422,8.69921 -2.187242,3.62119 1.99616,10.30518 -3.752936,13.28376 -12.263453,6.35363 -47.636883,15.18371 -52.846951,-5.96911 -4.564813,-18.53308 4.94838,-62.87554 44.144989,-78.38437"
       id="path3155"
       inkscape:connector-curvature="0"
       sodipodi:nodetypes="cssssc" />
    <path
       sodipodi:nodetypes="csc"
       inkscape:connector-curvature="0"
       id="path5786"
       d="m 98.215641,176.85396 c 0.544475,-6.94472 -12.839621,2.84314 -14.749803,6.50629 -1.728048,3.31387 -5.394097,16.4541 0.682252,15.44817"
       style="fill:none;stroke:#000000;stroke-width:2;stroke-linecap:butt;stroke-linejoin:miter;stroke-opacity:1;display:inline" />
    <path
       sodipodi:nodetypes="cc"
       inkscape:connector-curvature="0"
       id="path5788"
       d="M 96.776142,163.21878 C 81.951347,153.74854 55.592258,196.68429 69.185841,204.39729"
       style="fill:none;stroke:#000000;stroke-width:2;stroke-linecap:butt;stroke-linejoin:miter;stroke-opacity:1;display:inline" />
    <g
       style="stroke-width:2.03877783;display:inline"
       id="g3058"
       transform="matrix(0.98097991,0,0,0.98097991,3.5642932,5.9020551)">
      <path
         sodipodi:type="arc"
         style="fill:url(#radialGradient3173);fill-opacity:1;stroke:none;display:inline"
         id="path3281"
         sodipodi:cx="76.631287"
         sodipodi:cy="163.96344"
         sodipodi:rx="65.535355"
         sodipodi:ry="62.414623"
         d="m 142.16664,163.96344 a 65.535355,62.414623 0 1 1 -131.070708,0 65.535355,62.414623 0 1 1 131.070708,0 z"
         transform="matrix(0.76294697,0,0,0.80109432,55.253125,43.151646)" />
      <path
         style="fill:none;stroke:#ff0000;stroke-width:2.03877783;stroke-linecap:butt;stroke-linejoin:miter;stroke-opacity:1"
         d="m 146.31304,126.30386 -3.46748,19.07114 -24.27235,2.08048 -6.58821,29.47358 13.17642,14.56341 -9.70894,11.78943 1.04024,10.05569 -4.85447,16.6439"
         id="path4076"
         inkscape:connector-curvature="0" />
      <path
         style="fill:none;stroke:#ff0000;stroke-width:2.03877783;stroke-linecap:butt;stroke-linejoin:miter;stroke-opacity:1"
         d="m 91.086503,190.34024 9.071947,-5.8845 10.0527,3.18744 0.98076,-10.54308 12.0142,-8.82676 14.22089,1.47113 12.50458,-5.14894"
         id="path4078"
         inkscape:connector-curvature="0" />
      <path
         style="fill:none;stroke:#ff0000;stroke-width:2.03877783;stroke-linecap:butt;stroke-linejoin:miter;stroke-opacity:1"
         d="m 93.607356,137.39979 11.095934,10.40244 -5.20122,9.3622 3.81423,10.40243 7.9752,9.70894 15.60366,4.50773 3.48359,8.9117 9.37794,13.99531"
         id="path4080"
         inkscape:connector-curvature="0"
         sodipodi:nodetypes="cccccccc" />
      <path
         style="fill:none;stroke:#ff0000;stroke-width:2.03877783;stroke-linecap:butt;stroke-linejoin:miter;stroke-opacity:1"
         d="m 75.229717,176.23556 2.080487,3.81423 17.337396,-6.93496 13.17642,6.93496 3.12073,-2.77399 16.29716,-1.73374 4.16097,-9.36219 6.93496,-5.20122"
         id="path4082"
         inkscape:connector-curvature="0" />
    </g>
    <g
       id="g3218"
       transform="matrix(0.99789384,-0.06486814,0.06486814,0.99789384,-12.29959,11.944611)">
      <path
         sodipodi:nodetypes="ccsssc"
         inkscape:connector-curvature="0"
         id="path5762-7"
         d="m 161.13193,219.811 c 6.38317,-2.2729 8.48943,-48.17583 2.55464,-52.77779 -8.08736,2.22445 -20.07839,7.96751 -23.00386,14.2718 -3.1816,6.85626 2.4083,7.83499 6.05421,11.57417 3.37186,3.45814 -2.96054,7.1465 -1.49616,13.25864 1.2711,5.30541 10.71039,10.60762 15.89117,13.67318 z"
         style="fill:#ffaaaa;stroke:none;display:inline" />
      <g
         transform="matrix(1.0417908,0,0,1.0417908,-3.8275969,-0.78609858)"
         id="g3049"
         style="stroke-width:1.91977119;display:inline">
        <path
           sodipodi:nodetypes="csssc"
           inkscape:connector-curvature="0"
           id="path5760"
           d="m 211.02947,150.23511 c -21.26032,1.87408 -64.33375,9.91824 -72.31706,24.55188 -3.47465,6.36914 2.31169,7.52069 5.81135,11.10988 3.2366,3.31941 -2.89074,6.87176 -1.43614,12.72677 3.01857,12.15023 46.01636,25.7895 51.63814,27.7386"
           style="fill:none;stroke:#000000;stroke-width:1.91977119;stroke-linecap:butt;stroke-linejoin:miter;stroke-opacity:1;display:inline" />
        <path
           sodipodi:nodetypes="cc"
           inkscape:connector-curvature="0"
           id="path5762"
           d="m 160.79348,161.08769 c 5.69672,4.41736 3.67495,48.47892 -2.45216,50.66064"
           style="fill:none;stroke:#000000;stroke-width:1.91977119;stroke-linecap:butt;stroke-linejoin:miter;stroke-opacity:1;display:inline" />
      </g>
    </g>
  </g>
  <g
     inkscape:groupmode="layer"
     id="layer7"
     inkscape:label="枠面"
     style="display:inline"
     sodipodi:insensitive="true">
    <path
       style="fill:#ffffff;stroke:none;display:inline"
       d="m 0,0 0,320 370,0 0,-320 -10,10 0,300 -350,0 0,-300 350,0 10,-10 z"
       id="path21072"
       inkscape:connector-curvature="0"
       sodipodi:nodetypes="ccccccccccc" />
  </g>
</svg>
