<?xml version="1.0" encoding="UTF-8" standalone="no"?>
<!-- Created with Inkscape (http://www.inkscape.org/) -->

<svg
   xmlns:dc="http://purl.org/dc/elements/1.1/"
   xmlns:cc="http://creativecommons.org/ns#"
   xmlns:rdf="http://www.w3.org/1999/02/22-rdf-syntax-ns#"
   xmlns:svg="http://www.w3.org/2000/svg"
   xmlns="http://www.w3.org/2000/svg"
   xmlns:xlink="http://www.w3.org/1999/xlink"
   xmlns:sodipodi="http://sodipodi.sourceforge.net/DTD/sodipodi-0.dtd"
   xmlns:inkscape="http://www.inkscape.org/namespaces/inkscape"
   width="370"
   height="320"
   id="svg2"
   version="1.1"
   inkscape:version="0.48.4 r9939"
   sodipodi:docname="[06.空想]09.回避.svg"
   inkscape:export-filename="C:\Users\執安\Desktop\資料\臨時\TAKEDA\[06.空想]09.回避.png"
   inkscape:export-xdpi="90"
   inkscape:export-ydpi="90"
   enable-background="new">
  <defs
     id="defs4">
    <inkscape:perspective
       sodipodi:type="inkscape:persp3d"
       inkscape:vp_x="363.49708 : 943.81603 : 1"
       inkscape:vp_y="0 : 1000 : 0"
       inkscape:vp_z="744.09448 : 526.18109 : 1"
       inkscape:persp3d-origin="372.04724 : 350.78739 : 1"
       id="perspective5056" />
    <inkscape:perspective
       id="perspective5056-8"
       inkscape:persp3d-origin="372.04724 : 350.78739 : 1"
       inkscape:vp_z="744.09448 : 526.18109 : 1"
       inkscape:vp_y="0 : 1000 : 0"
       inkscape:vp_x="363.49708 : 943.81603 : 1"
       sodipodi:type="inkscape:persp3d" />
    <linearGradient
       id="linearGradient12499-5-3"
       inkscape:collect="always">
      <stop
         id="stop12501-0-8"
         offset="0"
         style="stop-color:#ffd5d5;stop-opacity:1;" />
      <stop
         id="stop12503-9-9"
         offset="1"
         style="stop-color:#ffd5d5;stop-opacity:0;" />
    </linearGradient>
    <linearGradient
       id="linearGradient12499-5"
       inkscape:collect="always">
      <stop
         id="stop12501-0"
         offset="0"
         style="stop-color:#ffd5d5;stop-opacity:1;" />
      <stop
         id="stop12503-9"
         offset="1"
         style="stop-color:#ffd5d5;stop-opacity:0;" />
    </linearGradient>
    <linearGradient
       id="linearGradient12499-8"
       inkscape:collect="always">
      <stop
         id="stop12501-6"
         offset="0"
         style="stop-color:#ffd5d5;stop-opacity:1;" />
      <stop
         id="stop12503-0"
         offset="1"
         style="stop-color:#ffd5d5;stop-opacity:0;" />
    </linearGradient>
    <linearGradient
       gradientTransform="translate(0,-7)"
       gradientUnits="userSpaceOnUse"
       y2="78.526123"
       x2="178.78178"
       y1="135.02612"
       x1="175.8602"
       id="linearGradient12505-2"
       xlink:href="#linearGradient12499-8"
       inkscape:collect="always" />
    <linearGradient
       id="linearGradient12499-9"
       inkscape:collect="always">
      <stop
         id="stop12501-8"
         offset="0"
         style="stop-color:#ffd5d5;stop-opacity:1;" />
      <stop
         id="stop12503-6"
         offset="1"
         style="stop-color:#ffd5d5;stop-opacity:0;" />
    </linearGradient>
    <linearGradient
       gradientTransform="translate(0,-7)"
       gradientUnits="userSpaceOnUse"
       y2="78.526123"
       x2="178.78178"
       y1="135.02612"
       x1="175.8602"
       id="linearGradient12505-1"
       xlink:href="#linearGradient12499-9"
       inkscape:collect="always" />
    <inkscape:perspective
       id="perspective5056-5"
       inkscape:persp3d-origin="372.04724 : 350.78739 : 1"
       inkscape:vp_z="744.09448 : 526.18109 : 1"
       inkscape:vp_y="0 : 1000 : 0"
       inkscape:vp_x="363.49708 : 943.81603 : 1"
       sodipodi:type="inkscape:persp3d" />
    <linearGradient
       id="linearGradient12499"
       inkscape:collect="always">
      <stop
         id="stop12501"
         offset="0"
         style="stop-color:#ffd5d5;stop-opacity:1;" />
      <stop
         id="stop12503"
         offset="1"
         style="stop-color:#ffd5d5;stop-opacity:0;" />
    </linearGradient>
    <linearGradient
       inkscape:collect="always"
       xlink:href="#linearGradient12499"
       id="linearGradient4842"
       gradientUnits="userSpaceOnUse"
       gradientTransform="matrix(0.98323667,-0.18233388,0.18233388,0.98323667,74.736688,42.602255)"
       x1="175.8602"
       y1="135.02612"
       x2="180.12286"
       y2="104.20104" />
    <linearGradient
       inkscape:collect="always"
       xlink:href="#linearGradient12499-5"
       id="linearGradient4848"
       gradientUnits="userSpaceOnUse"
       gradientTransform="matrix(0.99586062,-0.09089341,0.09089341,0.99586062,90.234074,51.049697)"
       x1="184.3886"
       y1="140.77484"
       x2="178.00351"
       y2="106.50191" />
    <linearGradient
       inkscape:collect="always"
       xlink:href="#linearGradient12499-5-3"
       id="linearGradient4854"
       gradientUnits="userSpaceOnUse"
       gradientTransform="matrix(0.99850313,0.05469451,-0.05469451,0.99850313,114.06992,56.176849)"
       x1="186.74098"
       y1="139.74136"
       x2="168.63582"
       y2="87.2258" />
    <inkscape:perspective
       sodipodi:type="inkscape:persp3d"
       inkscape:vp_x="363.49708 : 943.81603 : 1"
       inkscape:vp_y="0 : 1000 : 0"
       inkscape:vp_z="744.09448 : 526.18109 : 1"
       inkscape:persp3d-origin="372.04724 : 350.78739 : 1"
       id="perspective5056-4" />
    <inkscape:perspective
       sodipodi:type="inkscape:persp3d"
       inkscape:vp_x="363.49708 : 943.81603 : 1"
       inkscape:vp_y="0 : 1000 : 0"
       inkscape:vp_z="744.09448 : 526.18109 : 1"
       inkscape:persp3d-origin="372.04724 : 350.78739 : 1"
       id="perspective5056-8-7" />
    <inkscape:perspective
       id="perspective5056-85"
       inkscape:persp3d-origin="372.04724 : 350.78739 : 1"
       inkscape:vp_z="744.09448 : 526.18109 : 1"
       inkscape:vp_y="0 : 1000 : 0"
       inkscape:vp_x="363.49708 : 943.81603 : 1"
       sodipodi:type="inkscape:persp3d" />
    <inkscape:perspective
       id="perspective5056-52"
       inkscape:persp3d-origin="372.04724 : 350.78739 : 1"
       inkscape:vp_z="744.09448 : 526.18109 : 1"
       inkscape:vp_y="0 : 1000 : 0"
       inkscape:vp_x="363.49708 : 943.81603 : 1"
       sodipodi:type="inkscape:persp3d" />
  </defs>
  <sodipodi:namedview
     id="base"
     pagecolor="#ffffff"
     bordercolor="#666666"
     borderopacity="1.0"
     inkscape:pageopacity="0.0"
     inkscape:pageshadow="2"
     inkscape:zoom="1"
     inkscape:cx="134.19227"
     inkscape:cy="171.55812"
     inkscape:document-units="px"
     inkscape:current-layer="layer11"
     showgrid="false"
     inkscape:window-width="982"
     inkscape:window-height="694"
     inkscape:window-x="-3"
     inkscape:window-y="-2"
     inkscape:window-maximized="0"
     showguides="true"
     inkscape:guide-bbox="true"
     inkscape:snap-grids="false"
     inkscape:snap-to-guides="false"
     showborder="true"
     inkscape:showpageshadow="false"
     fit-margin-top="0"
     fit-margin-left="0"
     fit-margin-right="0"
     fit-margin-bottom="0"
     inkscape:snap-page="false" />
  <metadata
     id="metadata7">
    <rdf:RDF>
      <cc:Work
         rdf:about="">
        <dc:format>image/svg+xml</dc:format>
        <dc:type
           rdf:resource="http://purl.org/dc/dcmitype/StillImage" />
        <dc:title></dc:title>
      </cc:Work>
    </rdf:RDF>
  </metadata>
  <g
     inkscape:groupmode="layer"
     id="layer2"
     inkscape:label="補助線"
     style="display:none"
     sodipodi:insensitive="true">
    <path
       style="fill:none;stroke:#0000ff;stroke-width:1px;stroke-linecap:butt;stroke-linejoin:miter;stroke-opacity:1"
       d="M 10,310 360,10"
       id="path3025"
       inkscape:connector-curvature="0"
       sodipodi:nodetypes="cc" />
    <path
       style="fill:none;stroke:#0000ff;stroke-width:1px;stroke-linecap:butt;stroke-linejoin:miter;stroke-opacity:1"
       d="M 10,10 360,310"
       id="path3027"
       inkscape:connector-curvature="0"
       sodipodi:nodetypes="cc" />
    <path
       style="fill:none;stroke:#ff0000;stroke-width:1px;stroke-linecap:butt;stroke-linejoin:miter;stroke-opacity:1;display:inline"
       d="m 10,0 0,320"
       id="path3006"
       inkscape:connector-curvature="0"
       sodipodi:nodetypes="cc" />
    <path
       style="fill:none;stroke:#ff0000;stroke-width:1px;stroke-linecap:butt;stroke-linejoin:miter;stroke-opacity:1;display:inline"
       d="m 360,0 0,320"
       id="path3010"
       inkscape:connector-curvature="0"
       sodipodi:nodetypes="cc" />
    <path
       style="fill:none;stroke:#ff0000;stroke-width:1px;stroke-linecap:butt;stroke-linejoin:miter;stroke-opacity:1;display:inline"
       d="M 0,9.9999681 370,10"
       id="path3016"
       inkscape:connector-curvature="0" />
    <path
       transform="translate(84.715796,27.711696)"
       style="fill:none;stroke:#ff0000;stroke-width:1px;stroke-linecap:butt;stroke-linejoin:miter;stroke-opacity:1;display:inline"
       d="m -84.715796,282.2883 369.999996,0"
       id="path3018"
       inkscape:connector-curvature="0"
       sodipodi:nodetypes="cc" />
  </g>
  <g
     inkscape:groupmode="layer"
     id="layer11"
     inkscape:label="豚"
     style="display:inline"
     sodipodi:insensitive="true">
    <path
       sodipodi:nodetypes="csssc"
       inkscape:connector-curvature="0"
       id="path6002-1"
       d="m 145.11462,39.246497 c 1.81615,-12.147415 10.1347,-24.692706 13.70061,-26.401586 3.34569,-1.603347 4.11716,1.191289 6.36566,1.310085 3.00981,0.159014 2.52086,-3.297099 6.33614,-3.050921 2.41173,0.155612 22.30261,12.612252 33.44579,23.606899"
       style="fill:#ffd5d5;stroke:none;display:inline" />
    <path
       sodipodi:nodetypes="sssccs"
       inkscape:connector-curvature="0"
       id="path6002-5"
       d="m 158.81757,12.845323 c 3.32265,-1.650556 4.11716,1.191283 6.36566,1.310085 3.00981,0.159014 2.54036,-3.508134 6.33614,-3.050921 3.7279,0.449033 10.78056,5.95029 10.69112,5.915272 -8.50516,-3.155718 -26.72159,0.795744 -30.21631,3.939268 2.05994,-3.688312 3.72091,-6.572525 6.82339,-8.113704 z"
       style="fill:#ffaaaa;stroke:none;display:inline" />
    <path
       sodipodi:nodetypes="csc"
       inkscape:connector-curvature="0"
       id="path6292"
       d="m 104.25227,235.87123 c 0.48588,12.36923 2.41127,21.13901 6.46088,25.57719 2.9724,3.25758 15.57418,7.54935 26.31551,5.49885"
       style="fill:#ffd5d5;stroke:#000000;stroke-width:2;stroke-linecap:butt;stroke-linejoin:miter;stroke-opacity:1" />
    <path
       style="fill:none;stroke:#000000;stroke-width:2;stroke-linecap:butt;stroke-linejoin:miter;stroke-opacity:1"
       d="m 145.11501,39.24783 c 1.81614,-12.14741 10.13469,-24.692701 13.7006,-26.401581 3.34569,-1.603347 4.11716,1.191289 6.36566,1.310077 3.00981,0.159022 2.52086,-3.29709 6.33615,-3.050913 2.41172,0.155613 22.30261,12.612247 33.44578,23.606899"
       id="path6002"
       inkscape:connector-curvature="0"
       sodipodi:nodetypes="csssc" />
    <path
       style="fill:#ffd5d5;stroke:#000000;stroke-width:2;stroke-linecap:butt;stroke-linejoin:miter;stroke-opacity:1"
       d="m 195.58864,31.344122 c 58.92712,4.256947 102.92041,65.440166 99.11356,127.753008 -0.57616,131.28256 -94.1593,157.67481 -129.14437,147.89604 -7.07435,-1.97737 -11.69346,-16.16989 -8.95455,-29.04692 L 104.57272,153.64032 139.81879,49.733549"
       id="path6004"
       inkscape:connector-curvature="0"
       sodipodi:nodetypes="ccsccc" />
    <path
       sodipodi:nodetypes="csc"
       inkscape:connector-curvature="0"
       id="path6290"
       d="M 205.36582,283.65054 C 163.52938,293.10128 114.3017,257.46699 97.962529,225.95069 77.273901,186.04481 86.505646,153.00018 105.02623,135.6129"
       style="fill:#ffd5d5;stroke:#000000;stroke-width:2;stroke-linecap:butt;stroke-linejoin:miter;stroke-opacity:1" />
    <path
       style="fill:none;stroke:#000000;stroke-width:2;stroke-linecap:butt;stroke-linejoin:miter;stroke-opacity:1"
       d="m 151.99223,20.959953 c 3.49472,-3.143524 21.71115,-7.094985 30.2163,-3.939263"
       id="path6028"
       inkscape:connector-curvature="0"
       sodipodi:nodetypes="cc" />
    <g
       style="stroke-width:2.0017693;display:inline"
       id="g8323"
       transform="matrix(0.99902166,-0.01373827,0.01373827,0.99902166,-1.5975065,3.3001231)">
      <path
         style="fill:none;stroke:#808080;stroke-width:2.0017693;stroke-linecap:butt;stroke-linejoin:miter;stroke-opacity:1;display:inline"
         d="m 94.788747,144.85416 c 42.016003,9.28918 16.029583,43.49384 59.067903,52.85174"
         id="path4641-5"
         inkscape:connector-curvature="0"
         sodipodi:nodetypes="cc" />
      <path
         style="fill:none;stroke:#808080;stroke-width:2.0017693;stroke-linecap:butt;stroke-linejoin:miter;stroke-opacity:1;display:inline"
         d="m 137.42054,179.65459 c 42.016,9.28918 16.02958,43.49385 59.06789,52.85175"
         id="path4641-5-1"
         inkscape:connector-curvature="0"
         sodipodi:nodetypes="cc" />
      <path
         style="fill:none;stroke:#808080;stroke-width:2.0017693;stroke-linecap:butt;stroke-linejoin:miter;stroke-opacity:1;display:inline"
         d="m 185.14432,219.8421 c 42.01601,9.28919 16.02958,43.49385 59.06791,52.85175"
         id="path4641-5-8"
         inkscape:connector-curvature="0"
         sodipodi:nodetypes="cc" />
      <path
         style="fill:none;stroke:#000000;stroke-width:2.0017693;stroke-linecap:butt;stroke-linejoin:miter;stroke-miterlimit:4;stroke-opacity:1;stroke-dasharray:4, 2, 1, 2;stroke-dashoffset:0;display:inline"
         d="M 209.19997,240.81562 50.180449,109.94433"
         id="path5988"
         inkscape:connector-curvature="0"
         sodipodi:nodetypes="cc" />
      <path
         style="fill:none;stroke:#808080;stroke-width:2.0017693;stroke-linecap:butt;stroke-linejoin:miter;stroke-opacity:1;display:inline"
         d="m 53.183797,110.1664 c 42.016,9.28917 16.029585,43.49384 59.067903,52.85174"
         id="path4641-5-7"
         inkscape:connector-curvature="0"
         sodipodi:nodetypes="cc" />
      <path
         style="fill:#483737;stroke:none;display:inline"
         d="m 215.19719,257.59589 c -6.67759,-5.97039 4.73305,-18.49651 11.83199,-12.13287 l 15.42144,13.82424 c 2.94239,2.63761 7.46021,12.63698 4.82699,15.55767 -2.55058,2.82913 -13.36457,-0.51537 -16.22778,-3.07529 z"
         id="path6312-4"
         inkscape:connector-curvature="0"
         sodipodi:nodetypes="ssssss" />
      <path
         style="fill:#a0892c;stroke:none;display:inline"
         d="m 217.4333,259.63887 c -5.01632,-4.48865 6.69818,-16.65238 11.89607,-12.06375 0,0 -1.98102,-1.7817 -2.42944,-2.1914 -7.03831,-6.43063 -18.48459,6.13462 -11.83199,12.13287 1.00737,0.90828 2.36536,2.12228 2.36536,2.12228 z"
         id="path6314-1"
         inkscape:connector-curvature="0"
         sodipodi:nodetypes="ccssc" />
      <path
         style="fill:none;stroke:#000000;stroke-width:2.0017693;stroke-linecap:butt;stroke-linejoin:miter;stroke-opacity:1;display:inline"
         d="m 215.12653,257.4455 c -6.67758,-5.97038 4.73306,-18.4965 11.83201,-12.13286 l 15.42143,13.82424 c 2.94239,2.6376 7.46021,12.63697 4.82699,15.55767 -2.55058,2.82912 -13.36457,-0.51537 -16.22778,-3.07528 z"
         id="path6312"
         inkscape:connector-curvature="0"
         sodipodi:nodetypes="ssssss" />
      <path
         style="fill:none;stroke:#000000;stroke-width:2.0017693;stroke-linecap:butt;stroke-linejoin:miter;stroke-opacity:1;display:inline"
         d="m 217.4919,259.56778 c -5.01631,-4.48865 6.69817,-16.65239 11.89606,-12.06374"
         id="path6314"
         inkscape:connector-curvature="0"
         sodipodi:nodetypes="cc" />
    </g>
    <path
       style="fill:#ffd5d5;stroke:#000000;stroke-width:2;stroke-linecap:butt;stroke-linejoin:miter;stroke-opacity:1;display:inline"
       d="M 175.69185,179.15479 104.97267,139.96163 C 90.098256,109.86293 98.109911,77.902454 122.80292,64.579191 l 43.85283,-30.318814"
       id="path5996"
       inkscape:connector-curvature="0"
       sodipodi:nodetypes="cccc" />
    <path
       style="fill:#ffd5d5;stroke:#000000;stroke-width:2;stroke-linecap:butt;stroke-linejoin:miter;stroke-opacity:1;display:inline"
       d="M 118.42259,75.062051 C 127.96159,43.76426 155.51715,26.631027 185.59785,30.5277"
       id="path5998"
       inkscape:connector-curvature="0"
       sodipodi:nodetypes="cc" />
    <path
       style="fill:#ffaaaa;stroke:#000000;stroke-width:2;stroke-linecap:butt;stroke-linejoin:miter;stroke-opacity:1;display:inline"
       d="m 145.35891,85.96604 c 10.18974,8.423561 22.34589,10.732538 39.02402,9.0868 20.27997,-2.001148 31.22805,-16.864624 20.82232,-24.452163 -10.59638,-7.726555 -22.67627,-16.955769 -29.71439,-24.994626 -6.32533,-7.224724 -18.22184,-1.919811 -26.68679,7.567001 -10.9568,12.279486 -10.58577,26.890046 -3.44516,32.792988 z"
       id="path6014"
       inkscape:connector-curvature="0"
       sodipodi:nodetypes="ssssss" />
    <path
       style="fill:none;stroke:#000000;stroke-width:2;stroke-linecap:butt;stroke-linejoin:miter;stroke-opacity:1;display:inline"
       d="m 157.57528,120.3933 -2.34733,-18.39447"
       id="path6016"
       inkscape:connector-curvature="0"
       sodipodi:nodetypes="cc" />
    <path
       style="fill:none;stroke:#000000;stroke-width:2;stroke-linecap:butt;stroke-linejoin:miter;stroke-opacity:1;display:inline"
       d="m 124.4851,92.506395 13.27565,-5.546259"
       id="path6018"
       inkscape:connector-curvature="0"
       sodipodi:nodetypes="cc" />
    <path
       style="fill:#000000;stroke:#000000;stroke-width:2;stroke-linecap:butt;stroke-linejoin:miter;stroke-opacity:1;display:inline"
       d="m 161.44411,82.295044 c 3.48388,2.74031 23.09258,0.245579 27.80746,-8.12312 2.91004,-5.165213 -30.82282,5.751346 -27.80746,8.12312 z"
       id="path6020"
       inkscape:connector-curvature="0"
       sodipodi:nodetypes="sss" />
    <path
       style="fill:#000000;stroke:#000000;stroke-width:2;stroke-linecap:butt;stroke-linejoin:miter;stroke-opacity:1;display:inline"
       d="m 151.69382,72.251875 c 1.26102,2.905064 22.05388,-16.006559 17.50533,-16.786627 -8.42452,-1.444793 -19.16849,12.955142 -17.50533,16.786627 z"
       id="path6022"
       inkscape:connector-curvature="0"
       sodipodi:nodetypes="sss" />
    <path
       style="fill:#ffd5d5;stroke:#000000;stroke-width:2;stroke-linecap:butt;stroke-linejoin:miter;stroke-opacity:1;display:inline"
       d="m 233.22389,196.34773 c -18.12399,11.16423 -46.54207,4.38376 -65.47524,0.51933 -33.99063,-6.9378 -66.64738,-33.18095 -64.01063,-75.56226"
       id="path6024"
       inkscape:connector-curvature="0"
       sodipodi:nodetypes="csc" />
    <path
       style="fill:#ffd5d5;stroke:#000000;stroke-width:2;stroke-linecap:butt;stroke-linejoin:miter;stroke-opacity:1;display:inline"
       d="m 149.85093,184.13875 c 38.94939,44.22672 92.23551,5.39263 86.74028,-27.33348 -2.03282,-12.10608 -38.09038,-5.58754 -50.82568,-7.71593"
       id="path6030"
       inkscape:connector-curvature="0"
       sodipodi:nodetypes="csc" />
    <path
       style="fill:#ffd5d5;stroke:none;display:inline"
       d="m 269.46756,96.310376 c 24.94317,18.538884 47.88063,43.204674 58.4517,63.561124 4.55043,8.76268 -1.59455,6.68268 -2.93091,7.87957 -1.72938,2.46994 -1.90383,12.02557 -4.10413,14.80848 -4.73427,5.9878 -31.4981,4.95255 -43.19897,5.8528"
       id="path8519-9"
       inkscape:connector-curvature="0"
       sodipodi:nodetypes="cscsc" />
    <path
       sodipodi:nodetypes="ccscsc"
       inkscape:connector-curvature="0"
       id="path6026-3"
       d="m 304.46102,187.19671 c -11.06318,-2.61656 2.56687,-45.51937 16.7618,-38.2841 2.4157,3.01545 5.24414,7.67897 6.69879,10.95929 2.49312,5.62224 1.7451,7.34911 -2.93091,7.87957 -1.72937,2.46993 -1.74231,12.16127 -4.10413,14.80849 -3.08031,3.45253 -11.33338,3.78977 -16.42555,4.63675 z"
       style="fill:#ffaaaa;stroke:none;display:inline" />
    <path
       style="fill:#ff8080;stroke:none;display:inline"
       d="m 324.9864,167.75171 c -1.72937,2.46993 -1.90382,12.02557 -4.10415,14.80798 -2.94507,-4.72525 -4.38553,-11.38431 -2.81185,-13.31532 1.13649,-1.39455 6.916,-1.49266 6.916,-1.49266 z"
       id="path6010-1"
       inkscape:connector-curvature="0"
       sodipodi:nodetypes="ccsc" />
    <path
       sodipodi:nodetypes="cssc"
       inkscape:connector-curvature="0"
       id="path8519"
       d="m 269.46794,96.311715 c 24.94318,18.538885 47.63692,43.333095 58.4517,63.561125 6.02346,11.26633 -7.65342,6.19095 -9.84691,9.37222 -1.19845,1.73814 -0.0979,8.55376 2.81184,13.31482"
       style="fill:none;stroke:#000000;stroke-width:2;stroke-linecap:butt;stroke-linejoin:miter;stroke-opacity:1" />
    <path
       sodipodi:nodetypes="csc"
       inkscape:connector-curvature="0"
       id="path6010"
       d="m 324.98873,167.75241 c -1.72937,2.46993 -1.90382,12.02557 -4.10413,14.80848 -4.73427,5.9878 -31.4981,4.95255 -43.19897,5.8528"
       style="fill:none;stroke:#000000;stroke-width:2;stroke-linecap:butt;stroke-linejoin:miter;stroke-opacity:1" />
    <path
       style="fill:none;stroke:#000000;stroke-width:2;stroke-linecap:butt;stroke-linejoin:miter;stroke-opacity:1"
       d="m 321.22086,148.91354 c -14.19492,-7.23527 -27.82498,35.66753 -16.76178,38.2841"
       id="path6026"
       inkscape:connector-curvature="0"
       sodipodi:nodetypes="cc" />
    <g
       id="layer2-1"
       inkscape:label="枠"
       style="display:none"
       transform="matrix(-0.66569401,0.74622483,-0.74622483,-0.66569401,439.70218,142.20905)">
      <path
         style="fill:none;stroke:#0000ff;stroke-width:1px;stroke-linecap:butt;stroke-linejoin:miter;stroke-opacity:1"
         d="M 10.003906,310 359.99609,10.003906"
         id="path3025-4"
         inkscape:connector-curvature="0" />
      <path
         style="fill:none;stroke:#0000ff;stroke-width:1px;stroke-linecap:butt;stroke-linejoin:miter;stroke-opacity:1"
         d="M 10.003906,10 359.99609,310.00391"
         id="path3027-2"
         inkscape:connector-curvature="0" />
      <path
         style="fill:none;stroke:#ff0000;stroke-width:1px;stroke-linecap:butt;stroke-linejoin:miter;stroke-opacity:1;display:inline"
         d="M 9.9974312,-0.00137819 10,320"
         id="path3006-3"
         inkscape:connector-curvature="0" />
      <path
         style="fill:none;stroke:#ff0000;stroke-width:1px;stroke-linecap:butt;stroke-linejoin:miter;stroke-opacity:1;display:inline"
         d="M 360.00391,0.00390625 359.99609,319.99609"
         id="path3010-2"
         inkscape:connector-curvature="0" />
      <path
         style="fill:none;stroke:#ff0000;stroke-width:1px;stroke-linecap:butt;stroke-linejoin:miter;stroke-opacity:1;display:inline"
         d="M 0,9.9999681 370,10"
         id="path3016-2"
         inkscape:connector-curvature="0" />
      <path
         transform="translate(84.715796,27.711696)"
         style="fill:none;stroke:#ff0000;stroke-width:1px;stroke-linecap:butt;stroke-linejoin:miter;stroke-opacity:1;display:inline"
         d="m -84.714876,282.29077 370.002826,-0.003"
         id="path3018-1"
         inkscape:connector-curvature="0"
         sodipodi:nodetypes="cc" />
    </g>
  </g>
  <g
     inkscape:groupmode="layer"
     id="layer7"
     inkscape:label="枠面"
     style="display:inline"
     sodipodi:insensitive="true">
    <path
       style="fill:#ffffff;stroke:none;display:inline"
       d="m 0,0 0,320 370,0 0,-320 -10,10 0,300 -350,0 0,-300 350,0 10,-10 z"
       id="path21072"
       inkscape:connector-curvature="0"
       sodipodi:nodetypes="ccccccccccc" />
  </g>
</svg>
