<?xml version="1.0" encoding="UTF-8" standalone="no"?>
<!-- Created with Inkscape (http://www.inkscape.org/) -->

<svg
   xmlns:dc="http://purl.org/dc/elements/1.1/"
   xmlns:cc="http://creativecommons.org/ns#"
   xmlns:rdf="http://www.w3.org/1999/02/22-rdf-syntax-ns#"
   xmlns:svg="http://www.w3.org/2000/svg"
   xmlns="http://www.w3.org/2000/svg"
   xmlns:xlink="http://www.w3.org/1999/xlink"
   xmlns:sodipodi="http://sodipodi.sourceforge.net/DTD/sodipodi-0.dtd"
   xmlns:inkscape="http://www.inkscape.org/namespaces/inkscape"
   width="370"
   height="320"
   id="svg2"
   version="1.1"
   inkscape:version="0.48.4 r9939"
   sodipodi:docname="[06.空想]02.引導.svg"
   inkscape:export-filename="C:\Users\執安\Desktop\資料\臨時\TAKEDA\[06.空想]02.引導.png"
   inkscape:export-xdpi="90"
   inkscape:export-ydpi="90"
   enable-background="new">
  <defs
     id="defs4">
    <inkscape:perspective
       sodipodi:type="inkscape:persp3d"
       inkscape:vp_x="363.49708 : 943.81603 : 1"
       inkscape:vp_y="0 : 1000 : 0"
       inkscape:vp_z="744.09448 : 526.18109 : 1"
       inkscape:persp3d-origin="372.04724 : 350.78739 : 1"
       id="perspective5056" />
    <inkscape:perspective
       id="perspective5056-8"
       inkscape:persp3d-origin="372.04724 : 350.78739 : 1"
       inkscape:vp_z="744.09448 : 526.18109 : 1"
       inkscape:vp_y="0 : 1000 : 0"
       inkscape:vp_x="363.49708 : 943.81603 : 1"
       sodipodi:type="inkscape:persp3d" />
    <linearGradient
       id="linearGradient12499-5-3"
       inkscape:collect="always">
      <stop
         id="stop12501-0-8"
         offset="0"
         style="stop-color:#ffd5d5;stop-opacity:1;" />
      <stop
         id="stop12503-9-9"
         offset="1"
         style="stop-color:#ffd5d5;stop-opacity:0;" />
    </linearGradient>
    <linearGradient
       id="linearGradient12499-5"
       inkscape:collect="always">
      <stop
         id="stop12501-0"
         offset="0"
         style="stop-color:#ffd5d5;stop-opacity:1;" />
      <stop
         id="stop12503-9"
         offset="1"
         style="stop-color:#ffd5d5;stop-opacity:0;" />
    </linearGradient>
    <linearGradient
       id="linearGradient12499-8"
       inkscape:collect="always">
      <stop
         id="stop12501-6"
         offset="0"
         style="stop-color:#ffd5d5;stop-opacity:1;" />
      <stop
         id="stop12503-0"
         offset="1"
         style="stop-color:#ffd5d5;stop-opacity:0;" />
    </linearGradient>
    <linearGradient
       gradientTransform="translate(0,-7)"
       gradientUnits="userSpaceOnUse"
       y2="78.526123"
       x2="178.78178"
       y1="135.02612"
       x1="175.8602"
       id="linearGradient12505-2"
       xlink:href="#linearGradient12499-8"
       inkscape:collect="always" />
    <linearGradient
       id="linearGradient12499-9"
       inkscape:collect="always">
      <stop
         id="stop12501-8"
         offset="0"
         style="stop-color:#ffd5d5;stop-opacity:1;" />
      <stop
         id="stop12503-6"
         offset="1"
         style="stop-color:#ffd5d5;stop-opacity:0;" />
    </linearGradient>
    <linearGradient
       gradientTransform="translate(0,-7)"
       gradientUnits="userSpaceOnUse"
       y2="78.526123"
       x2="178.78178"
       y1="135.02612"
       x1="175.8602"
       id="linearGradient12505-1"
       xlink:href="#linearGradient12499-9"
       inkscape:collect="always" />
    <inkscape:perspective
       id="perspective5056-5"
       inkscape:persp3d-origin="372.04724 : 350.78739 : 1"
       inkscape:vp_z="744.09448 : 526.18109 : 1"
       inkscape:vp_y="0 : 1000 : 0"
       inkscape:vp_x="363.49708 : 943.81603 : 1"
       sodipodi:type="inkscape:persp3d" />
    <linearGradient
       id="linearGradient12499"
       inkscape:collect="always">
      <stop
         id="stop12501"
         offset="0"
         style="stop-color:#ffd5d5;stop-opacity:1;" />
      <stop
         id="stop12503"
         offset="1"
         style="stop-color:#ffd5d5;stop-opacity:0;" />
    </linearGradient>
    <linearGradient
       inkscape:collect="always"
       xlink:href="#linearGradient12499"
       id="linearGradient4842"
       gradientUnits="userSpaceOnUse"
       gradientTransform="matrix(0.98323667,-0.18233388,0.18233388,0.98323667,74.736688,42.602255)"
       x1="175.8602"
       y1="135.02612"
       x2="180.12286"
       y2="104.20104" />
    <linearGradient
       inkscape:collect="always"
       xlink:href="#linearGradient12499-5"
       id="linearGradient4848"
       gradientUnits="userSpaceOnUse"
       gradientTransform="matrix(0.99586062,-0.09089341,0.09089341,0.99586062,90.234074,51.049697)"
       x1="184.3886"
       y1="140.77484"
       x2="178.00351"
       y2="106.50191" />
    <linearGradient
       inkscape:collect="always"
       xlink:href="#linearGradient12499-5-3"
       id="linearGradient4854"
       gradientUnits="userSpaceOnUse"
       gradientTransform="matrix(0.99850313,0.05469451,-0.05469451,0.99850313,114.06992,56.176849)"
       x1="186.74098"
       y1="139.74136"
       x2="168.63582"
       y2="87.2258" />
    <inkscape:perspective
       sodipodi:type="inkscape:persp3d"
       inkscape:vp_x="363.49708 : 943.81603 : 1"
       inkscape:vp_y="0 : 1000 : 0"
       inkscape:vp_z="744.09448 : 526.18109 : 1"
       inkscape:persp3d-origin="372.04724 : 350.78739 : 1"
       id="perspective5056-4" />
    <inkscape:perspective
       sodipodi:type="inkscape:persp3d"
       inkscape:vp_x="363.49708 : 943.81603 : 1"
       inkscape:vp_y="0 : 1000 : 0"
       inkscape:vp_z="744.09448 : 526.18109 : 1"
       inkscape:persp3d-origin="372.04724 : 350.78739 : 1"
       id="perspective5056-8-7" />
    <inkscape:perspective
       id="perspective5056-85"
       inkscape:persp3d-origin="372.04724 : 350.78739 : 1"
       inkscape:vp_z="744.09448 : 526.18109 : 1"
       inkscape:vp_y="0 : 1000 : 0"
       inkscape:vp_x="363.49708 : 943.81603 : 1"
       sodipodi:type="inkscape:persp3d" />
    <inkscape:perspective
       id="perspective5056-83"
       inkscape:persp3d-origin="372.04724 : 350.78739 : 1"
       inkscape:vp_z="744.09448 : 526.18109 : 1"
       inkscape:vp_y="0 : 1000 : 0"
       inkscape:vp_x="363.49708 : 943.81603 : 1"
       sodipodi:type="inkscape:persp3d" />
  </defs>
  <sodipodi:namedview
     id="base"
     pagecolor="#ffffff"
     bordercolor="#666666"
     borderopacity="1.0"
     inkscape:pageopacity="0.0"
     inkscape:pageshadow="2"
     inkscape:zoom="1.0644531"
     inkscape:cx="93.359582"
     inkscape:cy="173.57002"
     inkscape:document-units="px"
     inkscape:current-layer="g8255"
     showgrid="false"
     inkscape:window-width="1312"
     inkscape:window-height="694"
     inkscape:window-x="-3"
     inkscape:window-y="-2"
     inkscape:window-maximized="0"
     showguides="true"
     inkscape:guide-bbox="true"
     inkscape:snap-grids="false"
     inkscape:snap-to-guides="false"
     showborder="true"
     inkscape:showpageshadow="false"
     fit-margin-top="0"
     fit-margin-left="0"
     fit-margin-right="0"
     fit-margin-bottom="0"
     inkscape:snap-page="false" />
  <metadata
     id="metadata7">
    <rdf:RDF>
      <cc:Work
         rdf:about="">
        <dc:format>image/svg+xml</dc:format>
        <dc:type
           rdf:resource="http://purl.org/dc/dcmitype/StillImage" />
        <dc:title></dc:title>
      </cc:Work>
    </rdf:RDF>
  </metadata>
  <g
     inkscape:groupmode="layer"
     id="layer2"
     inkscape:label="補助線"
     style="display:none"
     sodipodi:insensitive="true">
    <path
       style="fill:none;stroke:#0000ff;stroke-width:1px;stroke-linecap:butt;stroke-linejoin:miter;stroke-opacity:1"
       d="M 10,310 360,10"
       id="path3025"
       inkscape:connector-curvature="0"
       sodipodi:nodetypes="cc" />
    <path
       style="fill:none;stroke:#0000ff;stroke-width:1px;stroke-linecap:butt;stroke-linejoin:miter;stroke-opacity:1"
       d="M 10,10 360,310"
       id="path3027"
       inkscape:connector-curvature="0"
       sodipodi:nodetypes="cc" />
    <path
       style="fill:none;stroke:#ff0000;stroke-width:1px;stroke-linecap:butt;stroke-linejoin:miter;stroke-opacity:1;display:inline"
       d="m 10,0 0,320"
       id="path3006"
       inkscape:connector-curvature="0"
       sodipodi:nodetypes="cc" />
    <path
       style="fill:none;stroke:#ff0000;stroke-width:1px;stroke-linecap:butt;stroke-linejoin:miter;stroke-opacity:1;display:inline"
       d="m 360,0 0,320"
       id="path3010"
       inkscape:connector-curvature="0"
       sodipodi:nodetypes="cc" />
    <path
       style="fill:none;stroke:#ff0000;stroke-width:1px;stroke-linecap:butt;stroke-linejoin:miter;stroke-opacity:1;display:inline"
       d="M 0,9.9999681 370,10"
       id="path3016"
       inkscape:connector-curvature="0" />
    <path
       transform="translate(84.715796,27.711696)"
       style="fill:none;stroke:#ff0000;stroke-width:1px;stroke-linecap:butt;stroke-linejoin:miter;stroke-opacity:1;display:inline"
       d="m -84.715796,282.2883 369.999996,0"
       id="path3018"
       inkscape:connector-curvature="0"
       sodipodi:nodetypes="cc" />
  </g>
  <g
     style="display:inline"
     inkscape:label="豚"
     id="g8255"
     inkscape:groupmode="layer"
     sodipodi:insensitive="true">
    <path
       style="fill:#ffd5d5;stroke:#000000;stroke-width:2;stroke-linecap:butt;stroke-linejoin:miter;stroke-opacity:1;display:inline"
       d="M 58.99396,297.55881 27.57712,267.71135 41.474065,131.13657 174.13622,22.205384 c 31.80132,5.552282 55.29206,35.181619 46.47986,56.981218 l 3.27122,32.278488 20.53374,45.70984 -3.88244,110.962 -34.91065,21.83402"
       id="path8263"
       inkscape:connector-curvature="0"
       sodipodi:nodetypes="ccccccccc" />
    <path
       style="fill:#ffd5d5;stroke:none;display:inline"
       d="m 222.91345,112.00119 c 34.09991,23.85035 45.68757,69.14093 38.15862,87.97433 -3.48209,8.71034 -7.67507,-2.21344 -11.57425,-1.81623 z"
       id="path8275-1"
       inkscape:connector-curvature="0"
       sodipodi:nodetypes="cscc" />
    <path
       style="fill:#ffaaaa;stroke:none;display:inline"
       d="m 246.68907,184.44207 c 3.01908,-0.89118 12.79122,-2.50663 16.36834,-2.7246 0,0 1.01675,12.45162 -1.98529,18.25794 -4.30826,8.3327 -7.67507,-2.21344 -11.57425,-1.81623 z"
       id="path8281-0"
       inkscape:connector-curvature="0"
       sodipodi:nodetypes="ccscc" />
    <path
       style="fill:none;stroke:#000000;stroke-width:2;stroke-linecap:butt;stroke-linejoin:miter;stroke-opacity:1;display:inline"
       d="m 222.91032,112.00036 c 34.09991,23.85035 45.68757,69.14093 38.15862,87.97433 -3.48209,8.71034 -7.67507,-2.21344 -11.57425,-1.81623"
       id="path8275"
       inkscape:connector-curvature="0"
       sodipodi:nodetypes="csc" />
    <path
       style="fill:none;stroke:#000000;stroke-width:2;stroke-linecap:butt;stroke-linejoin:miter;stroke-opacity:1;display:inline"
       d="m 263.05423,181.71675 c -3.57712,0.21797 -13.34926,1.83342 -16.36834,2.7246"
       id="path8281"
       inkscape:connector-curvature="0"
       sodipodi:nodetypes="cc" />
    <path
       style="fill:#ffd5d5;stroke:#000000;stroke-width:2;stroke-linecap:butt;stroke-linejoin:miter;stroke-opacity:1;display:inline"
       d="M 44.246351,135.41836 C 13.033173,185.9424 8.887121,241.44342 31.281306,273.72137"
       id="path8381"
       inkscape:connector-curvature="0"
       sodipodi:nodetypes="cc" />
    <path
       style="fill:#ffd5d5;stroke:#000000;stroke-width:2;stroke-linecap:butt;stroke-linejoin:miter;stroke-opacity:1;display:inline"
       d="M 185.13529,29.638295 C 152.98839,1.0084461 87.475047,6.8830059 59.277576,65.670631 36.109294,113.97312 33.790153,135.16698 43.165746,149.99466"
       id="path8383"
       inkscape:connector-curvature="0"
       sodipodi:nodetypes="csc" />
    <path
       style="fill:#ffd5d5;stroke:#000000;stroke-width:2;stroke-linecap:butt;stroke-linejoin:miter;stroke-opacity:1;display:inline"
       d="m 28.731721,262.29347 c -11.474846,5.5699 -24.168019,25.01143 -13.519948,34.7806 8.773652,8.04948 50.140934,5.37072 76.551927,0.70062"
       id="path8379"
       inkscape:connector-curvature="0"
       sodipodi:nodetypes="csc" />
    <path
       style="fill:#ffd5d5;stroke:#000000;stroke-width:2;stroke-linecap:butt;stroke-linejoin:miter;stroke-opacity:1;display:inline"
       d="m 181.27322,292.89218 c 26.73375,3.98155 67.91097,8.8412 77.2896,-2.59549 7.95984,-9.70658 -0.92103,-25.11207 -17.67591,-33.83356"
       id="path8375"
       inkscape:connector-curvature="0"
       sodipodi:nodetypes="csc" />
    <path
       style="fill:#ffd5d5;stroke:#000000;stroke-width:2;stroke-linecap:butt;stroke-linejoin:miter;stroke-opacity:1;display:inline"
       d="m 236.65263,264.10108 c 23.56976,-22.26052 24.11861,-70.97896 1.59992,-102.05298"
       id="path8261"
       inkscape:connector-curvature="0"
       sodipodi:nodetypes="cc" />
    <path
       style="fill:#ffd5d5;stroke:#000000;stroke-width:2;stroke-linecap:butt;stroke-linejoin:miter;stroke-opacity:1;display:inline"
       d="m 211.66802,63.75489 c 15.97265,16.916936 21.78566,39.47093 10.57219,62.1285"
       id="path8265"
       inkscape:connector-curvature="0"
       sodipodi:nodetypes="cc" />
    <path
       style="fill:none;stroke:#000000;stroke-width:2;stroke-linecap:butt;stroke-linejoin:miter;stroke-opacity:1;display:inline"
       d="m 186.11487,56.148874 -2.69364,13.183483"
       id="path8267"
       inkscape:connector-curvature="0" />
    <path
       style="fill:none;stroke:#000000;stroke-width:2;stroke-linecap:butt;stroke-linejoin:miter;stroke-opacity:1;display:inline"
       d="m 142.96952,65.135121 14.11198,9.657088"
       id="path8269"
       inkscape:connector-curvature="0" />
    <path
       style="fill:#ffd5d5;stroke:#000000;stroke-width:2;stroke-linecap:butt;stroke-linejoin:miter;stroke-opacity:1;display:inline"
       d="M 87.243089,33.513252 C 39.856305,45.015857 32.178602,102.29985 59.161612,118.0692 69.440765,124.07652 80.64254,92.443595 90.100204,82.210528"
       id="path8271"
       inkscape:connector-curvature="0" />
    <path
       style="fill:#ffaaaa;stroke:#000000;stroke-width:2;stroke-linecap:butt;stroke-linejoin:miter;stroke-opacity:1;display:inline"
       d="m 179.23602,75.09273 c -14.31868,1.811097 -30.06244,17.556507 -36.61951,32.12495 -9.30015,20.66295 2.12148,29.95087 14.47205,26.21763 11.67312,-3.52848 26.62844,-6.26329 39.04812,-6.70259 12.1944,-0.43133 14.33439,-12.44458 11.63817,-25.95607 -2.87357,-14.400262 -16.13854,-27.252366 -28.53883,-25.68392 z"
       id="path8273"
       inkscape:connector-curvature="0"
       sodipodi:nodetypes="ssssss" />
    <path
       style="fill:#000000;stroke:#000000;stroke-width:2;stroke-linecap:butt;stroke-linejoin:miter;stroke-opacity:1;display:inline"
       d="m 163.04831,120.4561 c 2.75284,3.59779 12.78732,-30.313463 9.14034,-29.746301 -4.00589,0.622981 -16.24745,20.457721 -9.14034,29.746301 z"
       id="path8277"
       inkscape:connector-curvature="0"
       sodipodi:nodetypes="sss" />
    <path
       style="fill:#000000;stroke:#000000;stroke-width:2;stroke-linecap:butt;stroke-linejoin:miter;stroke-opacity:1;display:inline"
       d="m 186.20861,89.121115 c -3.41549,0.07207 2.31801,31.116605 5.25408,26.664725 6.34327,-9.6171 -1.67382,-26.740271 -5.25408,-26.664725 z"
       id="path8279"
       inkscape:connector-curvature="0"
       sodipodi:nodetypes="scs" />
    <g
       id="g8359">
      <path
         sodipodi:nodetypes="csssssssccssscscsccsscssccsscsssscc"
         inkscape:connector-curvature="0"
         id="path8283"
         d="m 163.23624,164.26656 5.13305,-0.0128 c 1.05081,-0.002 1.45682,-0.45729 1.71941,-1.11677 1.12051,-2.81431 1.58769,-5.5969 1.46236,-7.95414 -0.12534,-2.35725 -0.95522,-3.50104 -1.80327,-3.47484 l -4.82277,0.14896 c -0.88916,0.0275 -2.05011,1.25628 -2.14923,2.14032 l -0.89525,7.98336 c -0.0926,0.82498 0.22357,2.33705 1.37626,2.29031 l 3.19267,2.27264 c -1.05661,0.0375 -1.44573,1.8583 -1.58621,2.71642 l -2.73496,16.7061 c -0.33567,2.05041 -2.02551,2.40718 -4.30234,2.39723 l -3.21633,-0.014 -8.65459,-0.0377 c -2.5725,-0.0117 -4.23154,-1.64605 -3.65858,-4.18526 l 7.35103,-29.42541 c 0.72519,-2.90288 -0.49623,-5.74676 -2.0407,-8.65526 l -1.92767,0.0633 0.36475,-12.36667 c 0.0359,-1.21808 1.56468,-2.36591 2.99526,-2.4282 l 50.30476,-2.19049 5.53887,-0.007 c 1.78905,-0.002 2.92416,2.00062 2.85489,4.23298 l -0.59989,11.88289 -1.19617,-0.009 -0.54159,3.62042 c -0.11067,0.7401 -0.34769,1.97007 -1.20817,1.98919 l -5.30888,0.11791 -18.43344,0.4094 c -0.52508,0.0117 -2.17963,1.24901 -2.30534,2.37065 -0.3758,3.3533 -1.43181,9.33809 -2.31747,11.07302 -0.414,0.81101 -1.36877,1.69516 -2.59445,1.64901 l -6.77147,0.0938 z"
         style="fill:#483737;stroke:none;display:inline" />
      <path
         sodipodi:nodetypes="csccccsscsscc"
         inkscape:connector-curvature="0"
         id="path8285"
         d="m 199.50932,128.96949 c -1.81557,0.009 -2.67113,1.78414 -2.67401,4.15817 l -0.014,11.59857 m 1.71778,0.0455 -1.75309,-0.0273 -51.00314,1.19807 0.36474,-12.36667 c 0.0359,-1.21807 1.56468,-2.3659 2.99525,-2.42819 l 50.30476,-2.19049 5.53888,-0.007 c 1.78905,-0.002 2.92415,2.00063 2.85488,4.23299 l -0.59988,11.88288 -1.19617,-0.009"
         style="fill:none;stroke:#000000;stroke-width:1.5;stroke-linecap:butt;stroke-linejoin:miter;stroke-opacity:1;display:inline" />
      <path
         transform="matrix(0.89266494,0,0,0.89266494,47.434501,7.6106624)"
         d="m 176.04199,145.59702 a 2.3674612,3.9876223 0 1 1 -4.73492,0 2.3674612,3.9876223 0 1 1 4.73492,0 z"
         sodipodi:ry="3.9876223"
         sodipodi:rx="2.3674612"
         sodipodi:cy="145.59702"
         sodipodi:cx="173.67453"
         id="path8287"
         style="fill:#000000;fill-opacity:1;stroke:#000000;stroke-width:1.68036175;stroke-miterlimit:4;stroke-dasharray:none;stroke-dashoffset:0;display:inline"
         sodipodi:type="arc" />
      <path
         sodipodi:nodetypes="sssssssss"
         inkscape:connector-curvature="0"
         id="path8289"
         d="m 205.97735,133.02937 -0.47367,15.64784 c -0.0227,0.748 -0.34753,1.9987 -1.20816,1.9892 l -4.50942,-0.0497 c -0.64205,-0.007 -1.22549,-0.79574 -1.19561,-1.93473 l 0.42161,-16.06909 c 0.0271,-1.03196 0.6706,-1.88424 1.58744,-1.88662 l 3.56989,-0.009 c 1.15886,-0.003 1.85502,0.7567 1.80792,2.31241 z"
         style="fill:none;stroke:#000000;stroke-width:1.5;stroke-linecap:butt;stroke-linejoin:miter;stroke-opacity:1;display:inline" />
      <path
         sodipodi:nodetypes="csssc"
         inkscape:connector-curvature="0"
         id="path8291"
         d="m 181.74476,151.17068 c -1.6999,0.1551 -3.37121,1.27204 -3.49691,2.39368 -0.37581,3.3533 -1.43182,9.33809 -2.31747,11.07302 -0.414,0.81101 -1.36825,1.62014 -2.59445,1.64902 l -3.52891,0.083"
         style="fill:none;stroke:#000000;stroke-width:1.5;stroke-linecap:butt;stroke-linejoin:miter;stroke-opacity:1;display:inline" />
      <path
         sodipodi:nodetypes="csssssssssssc"
         inkscape:connector-curvature="0"
         id="path8293"
         d="m 147.71046,145.87924 c 1.54449,2.9085 2.7659,5.75237 2.0407,8.65526 l -7.35103,29.42541 c -0.54469,2.18031 0.36497,4.0886 2.74113,4.11945 l 10.22824,0.13283 c 1.65593,0.0215 2.67397,-1.44019 2.94129,-3.02941 l 2.82139,-16.77306 c 0.16921,-1.00589 0.6851,-1.80695 1.49814,-1.8304 l 7.13022,-0.20571 c 1.27723,-0.0369 1.89645,-0.67371 2.34007,-1.77074 1.28644,-3.18114 1.73846,-7.36616 2.16997,-11.25972 0.15598,-1.40742 2.48418,-2.04681 5.09103,-2.12641 l 20.12946,-0.61461"
         style="fill:none;stroke:#000000;stroke-width:1.5;stroke-linecap:butt;stroke-linejoin:miter;stroke-opacity:1;display:inline" />
      <path
         sodipodi:nodetypes="csssc"
         inkscape:connector-curvature="0"
         id="path8295"
         d="m 166.43768,166.5312 c -0.87583,0.59224 -1.33027,1.70433 -1.47074,2.56244 l -2.73496,16.70612 c -0.33568,2.05041 -2.02553,2.38496 -4.30234,2.39723 l -2.86072,0.0154"
         style="fill:none;stroke:#000000;stroke-width:1.5;stroke-linecap:butt;stroke-linejoin:miter;stroke-opacity:1;display:inline" />
      <path
         sodipodi:nodetypes="sssssssss"
         inkscape:connector-curvature="0"
         id="path8297"
         d="m 168.33184,164.22852 c 1.05079,-0.004 1.59794,-0.59841 1.86055,-1.25791 1.12049,-2.8143 1.58767,-5.59688 1.46235,-7.95413 -0.12535,-2.35724 -0.95522,-3.50104 -1.80326,-3.47484 l -4.82278,0.14897 c -0.88916,0.0275 -2.05012,1.25627 -2.14924,2.14032 l -0.89525,7.98336 c -0.0926,0.82497 0.32623,2.43848 1.22967,2.43484 z"
         style="fill:none;stroke:#000000;stroke-width:1.5;stroke-linecap:butt;stroke-linejoin:miter;stroke-opacity:1;display:inline" />
      <path
         sodipodi:nodetypes="csc"
         inkscape:connector-curvature="0"
         id="path8299"
         d="m 154.10251,130.9309 c -0.91917,0.007 -1.46063,0.67613 -1.7705,2.0624 l -1.88684,8.44114"
         style="fill:none;stroke:#000000;stroke-width:1.5;stroke-linecap:butt;stroke-linejoin:miter;stroke-opacity:1;display:inline" />
      <path
         sodipodi:nodetypes="csc"
         inkscape:connector-curvature="0"
         id="path8301"
         d="m 156.55051,130.84063 c -0.91916,0.007 -1.46062,0.67613 -1.77049,2.06241 l -1.88684,8.44114"
         style="fill:none;stroke:#000000;stroke-width:1.5;stroke-linecap:butt;stroke-linejoin:miter;stroke-opacity:1;display:inline" />
      <path
         sodipodi:nodetypes="csc"
         inkscape:connector-curvature="0"
         id="path8303"
         d="m 159.00088,130.7368 c -0.91916,0.007 -1.46062,0.67613 -1.7705,2.06241 l -1.88684,8.44114"
         style="fill:none;stroke:#000000;stroke-width:1.5;stroke-linecap:butt;stroke-linejoin:miter;stroke-opacity:1;display:inline" />
      <path
         sodipodi:nodetypes="csc"
         inkscape:connector-curvature="0"
         id="path8305"
         d="m 161.4489,130.64654 c -0.91917,0.007 -1.46063,0.67613 -1.7705,2.0624 l -1.88684,8.44114"
         style="fill:none;stroke:#000000;stroke-width:1.5;stroke-linecap:butt;stroke-linejoin:miter;stroke-opacity:1;display:inline" />
    </g>
    <g
       id="g8463">
      <path
         sodipodi:nodetypes="cssssc"
         inkscape:connector-curvature="0"
         id="path8311-7"
         d="m 92.208524,142.38355 c 48.341746,-1.54596 70.414136,5.22719 74.451386,10.62524 3.69315,4.93798 1.29505,9.30603 -1.01549,10.25109 -2.248,0.91947 -2.92267,0.38226 -4.70408,2.76514 -2.8746,3.84517 9.89282,7.96766 7.29968,13.61207 -6.04855,13.16575 -25.32341,29.28951 -53.96009,39.05802"
         style="fill:#ffd5d5;stroke:none;display:inline" />
      <path
         sodipodi:nodetypes="ssssccs"
         inkscape:connector-curvature="0"
         id="path8311-3"
         d="m 168.24007,179.63698 c 1.88939,-5.91726 -10.17428,-9.7669 -7.29968,-13.61207 1.78141,-2.38288 2.45608,-1.84567 4.70408,-2.76514 2.31054,-0.94506 4.70864,-5.31311 1.01549,-10.25109 -4.03725,-5.39805 -16.07301,-6.94225 -16.07301,-6.94225 -14.41499,-0.56295 -10.98781,50.62797 8.09527,46.62114 0,0 7.50929,-6.63484 9.55785,-13.05059 z"
         style="fill:#ffaaaa;stroke:none;display:inline" />
      <path
         sodipodi:nodetypes="cssssc"
         inkscape:connector-curvature="0"
         id="path8311"
         d="m 92.205388,142.38272 c 48.341752,-1.54596 70.414142,5.22719 74.451392,10.62524 3.69315,4.93798 1.29505,9.30603 -1.01549,10.25109 -2.248,0.91947 -2.92267,0.38226 -4.70408,2.76514 -2.8746,3.84517 9.89282,7.96766 7.29968,13.61207 -6.04855,13.16575 -25.32341,29.28951 -53.96009,39.05802"
         style="fill:none;stroke:#000000;stroke-width:2;stroke-linecap:butt;stroke-linejoin:miter;stroke-opacity:1;display:inline" />
      <path
         sodipodi:nodetypes="cc"
         inkscape:connector-curvature="0"
         id="path8313"
         d="m 150.58377,146.06571 c -14.41499,-0.56295 -10.98781,50.62797 8.09527,46.62114"
         style="fill:none;stroke:#000000;stroke-width:2;stroke-linecap:butt;stroke-linejoin:miter;stroke-opacity:1;display:inline" />
    </g>
    <path
       style="fill:#ffd5d5;stroke:#000000;stroke-width:2;stroke-linecap:butt;stroke-linejoin:miter;stroke-opacity:1;display:inline"
       d="m 75.204245,296.97238 c 37.675115,6.17327 93.303695,0.21963 120.402515,-7.59687"
       id="path8377"
       inkscape:connector-curvature="0"
       sodipodi:nodetypes="cc" />
  </g>
  <g
     inkscape:groupmode="layer"
     id="layer19"
     inkscape:label="吹き出し"
     style="display:inline"
     sodipodi:insensitive="true">
    <path
       sodipodi:nodetypes="sscssss"
       id="path26611-9"
       d="m 299.17224,12.316051 c -25.53868,0 -47.04068,29.877669 -53.44781,70.516501 -1.26788,8.041845 -21.50648,13.601355 -32.9632,32.727928 25.92499,-11.10472 31.64196,9.03215 32.8131,16.78286 6.21525,41.13371 27.85599,71.48883 53.59791,71.48883 30.59243,0 55.3925,-42.87234 55.3925,-95.75806 0,-52.885709 -24.80007,-95.758059 -55.3925,-95.758059 z"
       style="fill:#fefefe;fill-opacity:1;stroke:#000000;stroke-width:2;display:inline"
       inkscape:connector-curvature="0" />
    <text
       sodipodi:linespacing="125%"
       id="text3343-2"
       y="140.81804"
       x="278.46097"
       style="font-size:41.05455017px;font-style:normal;font-weight:bold;line-height:125%;letter-spacing:0px;word-spacing:0px;fill:#000000;fill-opacity:1;stroke:none;display:inline;font-family:Sans;-inkscape-font-specification:Sans Bold"
       xml:space="preserve"><tspan
         y="140.81804"
         x="278.46097"
         sodipodi:role="line"
         style="font-size:41.05455017px;font-weight:bold;-inkscape-font-specification:Sans Bold"
         id="tspan23662-6">だ</tspan></text>
    <text
       sodipodi:linespacing="125%"
       id="text3343-8"
       y="58.779381"
       x="278.46097"
       style="font-size:41.05455017px;font-style:normal;font-weight:bold;line-height:125%;letter-spacing:0px;word-spacing:0px;fill:#000000;fill-opacity:1;stroke:none;display:inline;font-family:Sans;-inkscape-font-specification:Sans Bold"
       xml:space="preserve"><tspan
         y="58.779381"
         x="278.46097"
         sodipodi:role="line"
         style="font-size:41.05455017px;font-weight:bold;-inkscape-font-specification:Sans Bold"
         id="tspan23662-8">残</tspan></text>
    <text
       sodipodi:linespacing="125%"
       id="text3343-0"
       y="40.139771"
       x="326.09332"
       style="font-size:42.81918716px;font-style:normal;font-weight:bold;line-height:125%;letter-spacing:0px;word-spacing:0px;fill:#000000;fill-opacity:1;stroke:none;display:inline;font-family:Sans;-inkscape-font-specification:Sans Bold"
       xml:space="preserve"><tspan
         y="40.139771"
         x="326.09332"
         sodipodi:role="line"
         style="font-size:42.81918716px;font-weight:bold;-inkscape-font-specification:Sans Bold"
         id="tspan23662-2" /></text>
    <text
       sodipodi:linespacing="125%"
       id="text3343-4"
       y="182.73883"
       x="278.46097"
       style="font-size:41.05455017px;font-style:normal;font-weight:bold;line-height:125%;letter-spacing:0px;word-spacing:0px;fill:#000000;fill-opacity:1;stroke:none;display:inline;font-family:Sans;-inkscape-font-specification:Sans Bold"
       xml:space="preserve"><tspan
         y="182.73883"
         x="278.46097"
         sodipodi:role="line"
         style="font-size:41.05455017px;font-weight:bold;-inkscape-font-specification:Sans Bold"
         id="tspan23662-1">よ</tspan></text>
    <text
       sodipodi:linespacing="125%"
       id="text3343-5"
       y="97.170364"
       x="278.46097"
       style="font-size:41.05455017px;font-style:normal;font-weight:bold;line-height:125%;letter-spacing:0px;word-spacing:0px;fill:#000000;fill-opacity:1;stroke:none;display:inline;font-family:Sans;-inkscape-font-specification:Sans Bold"
       xml:space="preserve"><tspan
         y="97.170364"
         x="278.46097"
         sodipodi:role="line"
         style="font-size:41.05455017px;font-weight:bold;-inkscape-font-specification:Sans Bold"
         id="tspan23662-5">念</tspan></text>
  </g>
  <g
     inkscape:groupmode="layer"
     id="layer7"
     inkscape:label="枠面"
     style="display:inline"
     sodipodi:insensitive="true">
    <path
       style="fill:#ffffff;stroke:none;display:inline"
       d="m 0,0 0,320 370,0 0,-320 -10,10 0,300 -350,0 0,-300 350,0 10,-10 z"
       id="path21072"
       inkscape:connector-curvature="0"
       sodipodi:nodetypes="ccccccccccc" />
  </g>
</svg>
