<?xml version="1.0" encoding="UTF-8" standalone="no"?>
<!-- Created with Inkscape (http://www.inkscape.org/) -->

<svg
   xmlns:dc="http://purl.org/dc/elements/1.1/"
   xmlns:cc="http://creativecommons.org/ns#"
   xmlns:rdf="http://www.w3.org/1999/02/22-rdf-syntax-ns#"
   xmlns:svg="http://www.w3.org/2000/svg"
   xmlns="http://www.w3.org/2000/svg"
   xmlns:xlink="http://www.w3.org/1999/xlink"
   xmlns:sodipodi="http://sodipodi.sourceforge.net/DTD/sodipodi-0.dtd"
   xmlns:inkscape="http://www.inkscape.org/namespaces/inkscape"
   width="370"
   height="320"
   id="svg2"
   version="1.1"
   inkscape:version="0.48.4 r9939"
   sodipodi:docname="[06.空想]05.思索.svg"
   inkscape:export-filename="C:\Users\執安\Desktop\資料\臨時\描画3.png"
   inkscape:export-xdpi="90"
   inkscape:export-ydpi="90"
   enable-background="new">
  <defs
     id="defs4">
    <inkscape:perspective
       sodipodi:type="inkscape:persp3d"
       inkscape:vp_x="363.49708 : 943.81603 : 1"
       inkscape:vp_y="0 : 1000 : 0"
       inkscape:vp_z="744.09448 : 526.18109 : 1"
       inkscape:persp3d-origin="372.04724 : 350.78739 : 1"
       id="perspective5056" />
    <inkscape:perspective
       id="perspective5056-8"
       inkscape:persp3d-origin="372.04724 : 350.78739 : 1"
       inkscape:vp_z="744.09448 : 526.18109 : 1"
       inkscape:vp_y="0 : 1000 : 0"
       inkscape:vp_x="363.49708 : 943.81603 : 1"
       sodipodi:type="inkscape:persp3d" />
    <linearGradient
       id="linearGradient12499-5-3"
       inkscape:collect="always">
      <stop
         id="stop12501-0-8"
         offset="0"
         style="stop-color:#ffd5d5;stop-opacity:1;" />
      <stop
         id="stop12503-9-9"
         offset="1"
         style="stop-color:#ffd5d5;stop-opacity:0;" />
    </linearGradient>
    <linearGradient
       id="linearGradient12499-5"
       inkscape:collect="always">
      <stop
         id="stop12501-0"
         offset="0"
         style="stop-color:#ffd5d5;stop-opacity:1;" />
      <stop
         id="stop12503-9"
         offset="1"
         style="stop-color:#ffd5d5;stop-opacity:0;" />
    </linearGradient>
    <linearGradient
       id="linearGradient12499-8"
       inkscape:collect="always">
      <stop
         id="stop12501-6"
         offset="0"
         style="stop-color:#ffd5d5;stop-opacity:1;" />
      <stop
         id="stop12503-0"
         offset="1"
         style="stop-color:#ffd5d5;stop-opacity:0;" />
    </linearGradient>
    <linearGradient
       gradientTransform="translate(0,-7)"
       gradientUnits="userSpaceOnUse"
       y2="78.526123"
       x2="178.78178"
       y1="135.02612"
       x1="175.8602"
       id="linearGradient12505-2"
       xlink:href="#linearGradient12499-8"
       inkscape:collect="always" />
    <linearGradient
       id="linearGradient12499-9"
       inkscape:collect="always">
      <stop
         id="stop12501-8"
         offset="0"
         style="stop-color:#ffd5d5;stop-opacity:1;" />
      <stop
         id="stop12503-6"
         offset="1"
         style="stop-color:#ffd5d5;stop-opacity:0;" />
    </linearGradient>
    <linearGradient
       gradientTransform="translate(0,-7)"
       gradientUnits="userSpaceOnUse"
       y2="78.526123"
       x2="178.78178"
       y1="135.02612"
       x1="175.8602"
       id="linearGradient12505-1"
       xlink:href="#linearGradient12499-9"
       inkscape:collect="always" />
    <inkscape:perspective
       id="perspective5056-5"
       inkscape:persp3d-origin="372.04724 : 350.78739 : 1"
       inkscape:vp_z="744.09448 : 526.18109 : 1"
       inkscape:vp_y="0 : 1000 : 0"
       inkscape:vp_x="363.49708 : 943.81603 : 1"
       sodipodi:type="inkscape:persp3d" />
    <linearGradient
       id="linearGradient12499"
       inkscape:collect="always">
      <stop
         id="stop12501"
         offset="0"
         style="stop-color:#ffd5d5;stop-opacity:1;" />
      <stop
         id="stop12503"
         offset="1"
         style="stop-color:#ffd5d5;stop-opacity:0;" />
    </linearGradient>
    <linearGradient
       inkscape:collect="always"
       xlink:href="#linearGradient12499"
       id="linearGradient4842"
       gradientUnits="userSpaceOnUse"
       gradientTransform="matrix(0.98323667,-0.18233388,0.18233388,0.98323667,74.736688,42.602255)"
       x1="175.8602"
       y1="135.02612"
       x2="180.12286"
       y2="104.20104" />
    <linearGradient
       inkscape:collect="always"
       xlink:href="#linearGradient12499-5"
       id="linearGradient4848"
       gradientUnits="userSpaceOnUse"
       gradientTransform="matrix(0.99586062,-0.09089341,0.09089341,0.99586062,90.234074,51.049697)"
       x1="184.3886"
       y1="140.77484"
       x2="178.00351"
       y2="106.50191" />
    <linearGradient
       inkscape:collect="always"
       xlink:href="#linearGradient12499-5-3"
       id="linearGradient4854"
       gradientUnits="userSpaceOnUse"
       gradientTransform="matrix(0.99850313,0.05469451,-0.05469451,0.99850313,114.06992,56.176849)"
       x1="186.74098"
       y1="139.74136"
       x2="168.63582"
       y2="87.2258" />
    <inkscape:perspective
       sodipodi:type="inkscape:persp3d"
       inkscape:vp_x="363.49708 : 943.81603 : 1"
       inkscape:vp_y="0 : 1000 : 0"
       inkscape:vp_z="744.09448 : 526.18109 : 1"
       inkscape:persp3d-origin="372.04724 : 350.78739 : 1"
       id="perspective5056-4" />
    <inkscape:perspective
       sodipodi:type="inkscape:persp3d"
       inkscape:vp_x="363.49708 : 943.81603 : 1"
       inkscape:vp_y="0 : 1000 : 0"
       inkscape:vp_z="744.09448 : 526.18109 : 1"
       inkscape:persp3d-origin="372.04724 : 350.78739 : 1"
       id="perspective5056-8-7" />
    <inkscape:perspective
       id="perspective5056-85"
       inkscape:persp3d-origin="372.04724 : 350.78739 : 1"
       inkscape:vp_z="744.09448 : 526.18109 : 1"
       inkscape:vp_y="0 : 1000 : 0"
       inkscape:vp_x="363.49708 : 943.81603 : 1"
       sodipodi:type="inkscape:persp3d" />
    <inkscape:perspective
       id="perspective5056-81"
       inkscape:persp3d-origin="372.04724 : 350.78739 : 1"
       inkscape:vp_z="744.09448 : 526.18109 : 1"
       inkscape:vp_y="0 : 1000 : 0"
       inkscape:vp_x="363.49708 : 943.81603 : 1"
       sodipodi:type="inkscape:persp3d" />
  </defs>
  <sodipodi:namedview
     id="base"
     pagecolor="#ffffff"
     bordercolor="#666666"
     borderopacity="1.0"
     inkscape:pageopacity="0.0"
     inkscape:pageshadow="2"
     inkscape:zoom="0.9062594"
     inkscape:cx="154.30926"
     inkscape:cy="190.64432"
     inkscape:document-units="px"
     inkscape:current-layer="layer26"
     showgrid="false"
     inkscape:window-width="1106"
     inkscape:window-height="695"
     inkscape:window-x="-3"
     inkscape:window-y="-3"
     inkscape:window-maximized="0"
     showguides="true"
     inkscape:guide-bbox="true"
     inkscape:snap-grids="false"
     inkscape:snap-to-guides="false"
     showborder="true"
     inkscape:showpageshadow="false"
     fit-margin-top="0"
     fit-margin-left="0"
     fit-margin-right="0"
     fit-margin-bottom="0"
     inkscape:snap-page="false" />
  <metadata
     id="metadata7">
    <rdf:RDF>
      <cc:Work
         rdf:about="">
        <dc:format>image/svg+xml</dc:format>
        <dc:type
           rdf:resource="http://purl.org/dc/dcmitype/StillImage" />
        <dc:title />
      </cc:Work>
    </rdf:RDF>
  </metadata>
  <g
     inkscape:groupmode="layer"
     id="layer2"
     inkscape:label="補助線"
     style="display:none"
     sodipodi:insensitive="true">
    <path
       style="fill:none;stroke:#0000ff;stroke-width:1px;stroke-linecap:butt;stroke-linejoin:miter;stroke-opacity:1"
       d="M 10,310 360,10"
       id="path3025"
       inkscape:connector-curvature="0"
       sodipodi:nodetypes="cc" />
    <path
       style="fill:none;stroke:#0000ff;stroke-width:1px;stroke-linecap:butt;stroke-linejoin:miter;stroke-opacity:1"
       d="M 10,10 360,310"
       id="path3027"
       inkscape:connector-curvature="0"
       sodipodi:nodetypes="cc" />
    <path
       style="fill:none;stroke:#ff0000;stroke-width:1px;stroke-linecap:butt;stroke-linejoin:miter;stroke-opacity:1;display:inline"
       d="m 10,0 0,320"
       id="path3006"
       inkscape:connector-curvature="0"
       sodipodi:nodetypes="cc" />
    <path
       style="fill:none;stroke:#ff0000;stroke-width:1px;stroke-linecap:butt;stroke-linejoin:miter;stroke-opacity:1;display:inline"
       d="m 360,0 0,320"
       id="path3010"
       inkscape:connector-curvature="0"
       sodipodi:nodetypes="cc" />
    <path
       style="fill:none;stroke:#ff0000;stroke-width:1px;stroke-linecap:butt;stroke-linejoin:miter;stroke-opacity:1;display:inline"
       d="M 0,9.9999681 370,10"
       id="path3016"
       inkscape:connector-curvature="0" />
    <path
       transform="translate(84.715796,27.711696)"
       style="fill:none;stroke:#ff0000;stroke-width:1px;stroke-linecap:butt;stroke-linejoin:miter;stroke-opacity:1;display:inline"
       d="m -84.715796,282.2883 369.999996,0"
       id="path3018"
       inkscape:connector-curvature="0"
       sodipodi:nodetypes="cc" />
  </g>
  <g
     inkscape:groupmode="layer"
     id="layer11"
     inkscape:label="豚: 下半身"
     style="display:inline"
     sodipodi:insensitive="true">
    <path
       sodipodi:nodetypes="ccsccccc"
       inkscape:connector-curvature="0"
       id="path4977-1-2-8-6"
       d="m 279.50347,126.68339 c 27.79382,45.91294 41.29358,114.01035 5.85204,143.75484 13.15235,12.63492 4.1037,30.85924 -19.36996,33.81492 -17.40878,2.19202 -66.12613,6.59212 -64.00568,-10.25698 -17.95973,0.14609 -43.33749,-3.19497 -62.15263,-7.40599 C 91.546532,297.28941 45.445193,271.52205 79.365571,247.77221 59.478119,218.05393 66.751599,187.74526 84.350266,160.42813 127.68524,124.89372 212.52288,102.29002 279.50347,126.68339 z"
       style="fill:#ffd5d5;stroke:none;display:inline" />
    <path
       sodipodi:nodetypes="cccsccc"
       inkscape:connector-curvature="0"
       id="path4977-1-2-8"
       d="m 279.50982,126.61863 c 32.83667,58.03765 39.79849,120.81919 -0.0847,148.26872 m 5.75274,-4.52957 c 10.35173,9.82339 10.61989,28.58217 -19.17388,33.90251 -18.03983,3.22141 -67.85774,5.83863 -63.94936,-10.21903 m -62.19443,-7.47484 c -62.780178,9.675 -89.714637,-20.555 -60.626253,-38.73833"
       style="fill:none;stroke:#000000;stroke-width:2;stroke-linecap:butt;stroke-linejoin:miter;stroke-opacity:1;display:inline" />
    <path
       sodipodi:nodetypes="cc"
       inkscape:connector-curvature="0"
       id="path3391-7-3-1"
       d="m 216.03591,294.49999 c -39.08184,-1.36943 -79.72512,-3.01851 -97.42351,-18.37166"
       style="fill:none;stroke:#000000;stroke-width:2;stroke-linecap:butt;stroke-linejoin:miter;stroke-opacity:1;display:inline" />
    <path
       sodipodi:nodetypes="cc"
       inkscape:connector-curvature="0"
       id="path3226-2"
       d="M 84.927702,254.46432 C 54.769791,221.16036 70.562625,179.73409 84.668177,160.14946"
       style="fill:none;stroke:#000000;stroke-width:2;stroke-linecap:butt;stroke-linejoin:miter;stroke-opacity:1;display:inline" />
  </g>
  <g
     inkscape:groupmode="layer"
     id="layer29"
     inkscape:label="豚: 上半身"
     style="display:inline"
     sodipodi:insensitive="true">
    <path
       style="fill:#ffd5d5;stroke:none;display:inline"
       d="M 275.58471,136.35319 C 285.7355,121.02542 283.21842,96.831175 254.48612,56.307307 214.70812,0.20464599 161.37526,9.2567161 137.83255,23.133694 c -7.27742,-1.400848 -27.42383,6.505658 -37.5668,23.602046 -9.993109,16.843795 -13.625308,37.060771 -13.737232,49.805109 -3.172329,11.029561 -3.858057,20.749781 -1.142,29.813561 -27.024407,19.04342 -43.607657,53.11924 -36.701356,74.16857 1.982412,-18.38205 25.745923,-32.44468 31.180409,-39.75511 11.332414,-5.96687 51.476589,-17.23188 86.946779,-0.0459 31.8451,15.42957 84.39216,-3.05502 108.77236,-24.36878 z"
       id="path3216-2"
       inkscape:connector-curvature="0"
       sodipodi:nodetypes="cscsccccsc" />
    <path
       style="fill:none;stroke:#000000;stroke-width:2;stroke-linecap:butt;stroke-linejoin:miter;stroke-opacity:1;display:inline"
       d="M 121.64861,36.108204 C 153.60998,1.9443469 217.0005,1.496136 254.49098,56.339241 c 27.59892,40.373185 31.41518,63.498879 21.05908,80.061039"
       id="path3212"
       inkscape:connector-curvature="0"
       sodipodi:nodetypes="csc" />
    <path
       style="fill:none;stroke:#000000;stroke-width:2;stroke-linecap:butt;stroke-linejoin:miter;stroke-opacity:1;display:inline"
       d="M 137.76415,23.126023 C 123.28016,23.986624 110.67526,31.010691 100.25725,46.71262 89.277128,63.261754 86.208596,86.054986 86.555417,96.564404"
       id="path3214"
       inkscape:connector-curvature="0"
       sodipodi:nodetypes="csc" />
    <path
       style="fill:none;stroke:#000000;stroke-width:2;stroke-linecap:butt;stroke-linejoin:miter;stroke-opacity:1;display:inline"
       d="M 93.9567,80.114918 C 80.453588,102.87951 79.610236,128.06485 96.347292,145.91356"
       id="path3216"
       inkscape:connector-curvature="0"
       sodipodi:nodetypes="cc" />
    <path
       style="fill:none;stroke:#000000;stroke-width:2;stroke-linecap:butt;stroke-linejoin:miter;stroke-opacity:1;display:inline"
       d="m 112.4808,75.128934 c 1.53966,6.221827 3.30456,11.419485 4.17632,17.541233"
       id="path3218"
       inkscape:connector-curvature="0"
       sodipodi:nodetypes="cc" />
    <path
       style="fill:none;stroke:#000000;stroke-width:2;stroke-linecap:butt;stroke-linejoin:miter;stroke-opacity:1;display:inline"
       d="m 158.97193,79.732495 c -5.22187,5.158823 -12.11175,10.304833 -17.12698,16.698684"
       id="path3220"
       inkscape:connector-curvature="0"
       sodipodi:nodetypes="cc" />
    <path
       style="fill:#ffd5d5;stroke:#000000;stroke-width:2;stroke-linecap:butt;stroke-linejoin:miter;stroke-opacity:1;display:inline"
       d="m 217.57558,26.819044 c 20.49621,-0.05442 42.56191,14.572437 50.63634,33.101578 13.21475,30.325099 -9.88117,65.392168 -23.77636,63.521918 -11.92617,-1.60521 -18.09382,-26.691566 -34.04606,-39.645243"
       id="path3222"
       inkscape:connector-curvature="0"
       sodipodi:nodetypes="cssc" />
    <path
       style="fill:#ffaaaa;stroke:#000000;stroke-width:2;stroke-linecap:butt;stroke-linejoin:miter;stroke-opacity:1;display:inline"
       d="m 123.2253,98.198544 c 12.06162,1.386815 29.65191,15.851186 38.11964,28.371376 10.51009,15.53998 3.99007,30.82591 -10.33765,25.94838 -17.38697,-5.91898 -30.78081,-7.47372 -38.06966,-6.6187 -9.69508,1.13729 -18.208566,-12.75156 -15.089723,-24.95921 C 101.0001,108.60229 111.3083,96.828357 123.2253,98.198544 z"
       id="path3224"
       inkscape:connector-curvature="0"
       sodipodi:nodetypes="ssssss" />
    <path
       style="fill:#000000;stroke:#000000;stroke-width:2;stroke-linecap:butt;stroke-linejoin:miter;stroke-opacity:1;display:inline"
       d="m 142.75231,141.21402 c -4.20401,1.05454 -15.85694,-24.09665 -12.64631,-24.83053 3.86748,-0.88402 18.79391,23.28846 12.64631,24.83053 z"
       id="path3230"
       inkscape:connector-curvature="0"
       sodipodi:nodetypes="sss" />
    <path
       style="fill:#000000;stroke:#000000;stroke-width:2;stroke-linecap:butt;stroke-linejoin:miter;stroke-opacity:1;display:inline"
       d="m 115.75032,114.95302 c 4.31704,0.93246 2.24524,23.43548 -1.36649,22.48243 -4.40747,-1.16302 -1.68564,-23.14169 1.36649,-22.48243 z"
       id="path3232"
       inkscape:connector-curvature="0"
       sodipodi:nodetypes="sss" />
    <path
       style="fill:none;stroke:#000000;stroke-width:2;stroke-linecap:butt;stroke-linejoin:miter;stroke-opacity:1;display:inline"
       d="M 85.376096,126.33357 C 62.68496,144.27119 40.217929,174.22193 48.735335,200.65806"
       id="path3228-3"
       inkscape:connector-curvature="0"
       sodipodi:nodetypes="cc" />
  </g>
  <g
     inkscape:groupmode="layer"
     id="layer26"
     inkscape:label="爆弾: 本体"
     style="display:inline"
     sodipodi:insensitive="true">
    <path
       transform="matrix(-0.87980294,0,0,0.93178802,1247.3877,-133.45843)"
       d="m 1352.3738,366.03381 a 67.620636,63.84383 0 1 1 -135.2413,0 67.620636,63.84383 0 1 1 135.2413,0 z"
       sodipodi:ry="63.84383"
       sodipodi:rx="67.620636"
       sodipodi:cy="366.03381"
       sodipodi:cx="1284.7532"
       id="path3242"
       style="fill:#333333;stroke:#000000;stroke-width:2.20891356;stroke-miterlimit:4;stroke-dasharray:none;stroke-dashoffset:0;display:inline"
       sodipodi:type="arc" />
  </g>
  <g
     inkscape:groupmode="layer"
     id="layer28"
     inkscape:label="豚: 手"
     style="display:inline"
     sodipodi:insensitive="true">
    <path
       sodipodi:nodetypes="csssc"
       inkscape:connector-curvature="0"
       id="path3855-9"
       d="m 177.04781,169.85684 c -16.1115,20.97652 -39.73579,24.6371 -41.36038,37.82497 -0.67648,5.49146 4.7497,5.43674 4.92496,9.64711 0.14433,3.46745 -3.58182,5.08859 -2.88425,9.86698 0.8485,5.81231 16.28059,16.67338 43.19121,17.75563"
       style="fill:#ffd5d5;stroke:none;display:inline" />
    <path
       sodipodi:nodetypes="sssccs"
       inkscape:connector-curvature="0"
       id="path3853"
       d="m 137.72587,227.27768 c -0.72488,-4.30681 2.54256,-5.95153 2.96204,-9.7584 0.30903,-2.80449 -4.98579,-6.30231 -4.94212,-9.57255 0.0474,-3.55055 3.71346,-9.31084 11.42774,-13.47007 14.04031,0.9043 15.78204,44.19596 -0.79559,41.69337 -3.17652,-1.89657 -8.08507,-5.52356 -8.65207,-8.89235 z"
       style="fill:#ffaaaa;stroke:none;display:inline" />
    <path
       sodipodi:nodetypes="csssc"
       inkscape:connector-curvature="0"
       id="path3855"
       d="m 177.10125,169.90833 c -16.1115,20.97652 -39.73579,24.6371 -41.36038,37.82497 -0.67648,5.49146 4.7497,5.43674 4.92496,9.64711 0.14433,3.46745 -3.58182,5.08859 -2.88425,9.86698 0.8485,5.81231 16.28059,16.67338 43.19121,17.75563"
       style="fill:none;stroke:#000000;stroke-width:2;stroke-linecap:butt;stroke-linejoin:miter;stroke-opacity:1;display:inline" />
    <path
       sodipodi:nodetypes="cc"
       inkscape:connector-curvature="0"
       id="path3857"
       d="m 146.95865,194.40971 c 15.00264,1.39486 15.03358,45.53704 -0.62381,41.73699"
       style="fill:none;stroke:#000000;stroke-width:2;stroke-linecap:butt;stroke-linejoin:miter;stroke-opacity:1;display:inline" />
    <path
       sodipodi:nodetypes="cssscc"
       inkscape:connector-curvature="0"
       id="path3238-2-9"
       d="m 48.568952,200.35824 c 2.689113,5.8995 7.165845,14.8806 14.791331,11.85397 1.515788,-0.60163 -2.004697,-8.03411 -0.0879,-10.25756 1.5105,-1.75215 4.71226,-1.3731 7.08853,-3.39971 1.934854,-1.65015 -0.336981,-10.53561 -1.209482,-17.04456 -11.159875,-5.15301 -18.607099,10.20222 -20.582479,18.84786 z"
       style="fill:#ffaaaa;stroke:none;display:inline" />
    <path
       sodipodi:nodetypes="cccc"
       inkscape:connector-curvature="0"
       id="path4220"
       d="m 48.530272,199.61487 c -1.559939,-14.99671 10.30269,-26.36424 30.315679,-39.09297 -7.551811,7.38586 -10.001009,11.93484 -9.834393,20.71125 -9.190758,-4.32192 -18.046699,7.16475 -20.481286,18.38173 z"
       style="fill:#ffd5d5;stroke:none" />
    <path
       style="fill:none;stroke:#000000;stroke-width:2;stroke-linecap:butt;stroke-linejoin:miter;stroke-opacity:1;display:inline"
       d="m 68.837266,181.95938 c -10.332366,-7.00789 -19.99755,12.30312 -20.227144,18.33425 3.44311,10.75525 12.207312,14.62404 14.889938,11.80868 1.593059,-1.67188 -1.66643,-7.76096 -0.0254,-10.19506 1.422111,-2.10938 5.138372,-1.30884 6.879574,-3.34457 4.941888,-5.77783 -11.449798,-22.55946 9.820828,-37.63953"
       id="path3238"
       inkscape:connector-curvature="0"
       sodipodi:nodetypes="ccsssc" />
  </g>
  <g
     inkscape:groupmode="layer"
     id="layer27"
     inkscape:label="爆弾: 導火線"
     style="display:inline"
     sodipodi:insensitive="true">
    <path
       sodipodi:nodetypes="sssss"
       inkscape:connector-curvature="0"
       id="path4438"
       d="m 86.685235,174.72205 c -2.930887,-22.23064 -35.393576,-33.00002 -63.664659,-29.61782 -3.428266,0.41014 -3.66576,-3.64937 -0.06586,-4.14645 22.371012,-3.089 65.997958,4.36897 69.175068,32.00431 0.554475,4.82298 -4.994768,5.17153 -5.444549,1.75996 z"
       style="fill:#808080;stroke:#000000;stroke-width:2;stroke-linecap:butt;stroke-linejoin:miter;stroke-opacity:1" />
    <path
       sodipodi:nodetypes="ccccccc"
       inkscape:connector-curvature="0"
       id="path4440"
       d="m 25.609042,126.64377 c 2.170326,13.94611 6.842767,10.28237 15.202795,7.07107 -5.862326,4.59222 -14.528709,6.74356 -6.275573,21.74353 -7.755888,-12.97085 -11.801001,-11.15633 -14.230523,5.83363 -1.745504,-4.83373 1.378761,-17.26968 -6.363961,-12.02081 4.578711,-4.85473 8.764668,-9.44223 1.06066,-14.84925 8.992705,2.70253 10.356296,-0.13125 10.606602,-7.77817 z"
       style="fill:#ffcc00;stroke:none" />
    <path
       sodipodi:nodetypes="ccccccc"
       inkscape:connector-curvature="0"
       id="path4442"
       d="m 25.862144,134.93392 c 0.678074,1.57585 0.238387,5.49286 5.6875,3.375 -4.006135,2.4863 -4.121482,4.22632 -3.5,6.5 -2.593219,-1.6378 -4.789484,-0.22029 -6.8125,4 1.041186,-3.2907 0.231988,-4.63064 -1,-3.9375 2.108618,-2.37486 2.202015,-4.45936 1.0625,-7.625 2.97547,3.14701 3.974814,0.50995 4.5625,-2.3125 z"
       style="fill:#ff0000;stroke:none" />
  </g>
  <g
     inkscape:groupmode="layer"
     id="layer7"
     inkscape:label="枠面"
     style="display:inline;"
     sodipodi:insensitive="true">
    <path
       style="fill:#ffffff;stroke:none;display:inline"
       d="m 0,0 0,320 370,0 0,-320 -10,10 0,300 -350,0 0,-300 350,0 10,-10 z"
       id="path21072"
       inkscape:connector-curvature="0"
       sodipodi:nodetypes="ccccccccccc" />
  </g>
</svg>
