<?xml version="1.0" encoding="UTF-8" standalone="no"?>
<!-- Created with Inkscape (http://www.inkscape.org/) -->

<svg
   xmlns:dc="http://purl.org/dc/elements/1.1/"
   xmlns:cc="http://creativecommons.org/ns#"
   xmlns:rdf="http://www.w3.org/1999/02/22-rdf-syntax-ns#"
   xmlns:svg="http://www.w3.org/2000/svg"
   xmlns="http://www.w3.org/2000/svg"
   xmlns:xlink="http://www.w3.org/1999/xlink"
   xmlns:sodipodi="http://sodipodi.sourceforge.net/DTD/sodipodi-0.dtd"
   xmlns:inkscape="http://www.inkscape.org/namespaces/inkscape"
   width="370"
   height="320"
   id="svg2"
   version="1.1"
   inkscape:version="0.48.4 r9939"
   sodipodi:docname="[06.空想]07.発射.svg"
   inkscape:export-filename="C:\Users\執安\Desktop\資料\臨時\TAKEDA\[06.空想]07.発射.png"
   inkscape:export-xdpi="90"
   inkscape:export-ydpi="90"
   enable-background="new">
  <defs
     id="defs4">
    <inkscape:perspective
       sodipodi:type="inkscape:persp3d"
       inkscape:vp_x="363.49708 : 943.81603 : 1"
       inkscape:vp_y="0 : 1000 : 0"
       inkscape:vp_z="744.09448 : 526.18109 : 1"
       inkscape:persp3d-origin="372.04724 : 350.78739 : 1"
       id="perspective5056" />
    <inkscape:perspective
       id="perspective5056-8"
       inkscape:persp3d-origin="372.04724 : 350.78739 : 1"
       inkscape:vp_z="744.09448 : 526.18109 : 1"
       inkscape:vp_y="0 : 1000 : 0"
       inkscape:vp_x="363.49708 : 943.81603 : 1"
       sodipodi:type="inkscape:persp3d" />
    <linearGradient
       id="linearGradient12499-5-3"
       inkscape:collect="always">
      <stop
         id="stop12501-0-8"
         offset="0"
         style="stop-color:#ffd5d5;stop-opacity:1;" />
      <stop
         id="stop12503-9-9"
         offset="1"
         style="stop-color:#ffd5d5;stop-opacity:0;" />
    </linearGradient>
    <linearGradient
       id="linearGradient12499-5"
       inkscape:collect="always">
      <stop
         id="stop12501-0"
         offset="0"
         style="stop-color:#ffd5d5;stop-opacity:1;" />
      <stop
         id="stop12503-9"
         offset="1"
         style="stop-color:#ffd5d5;stop-opacity:0;" />
    </linearGradient>
    <linearGradient
       id="linearGradient12499-8"
       inkscape:collect="always">
      <stop
         id="stop12501-6"
         offset="0"
         style="stop-color:#ffd5d5;stop-opacity:1;" />
      <stop
         id="stop12503-0"
         offset="1"
         style="stop-color:#ffd5d5;stop-opacity:0;" />
    </linearGradient>
    <linearGradient
       gradientTransform="translate(0,-7)"
       gradientUnits="userSpaceOnUse"
       y2="78.526123"
       x2="178.78178"
       y1="135.02612"
       x1="175.8602"
       id="linearGradient12505-2"
       xlink:href="#linearGradient12499-8"
       inkscape:collect="always" />
    <linearGradient
       id="linearGradient12499-9"
       inkscape:collect="always">
      <stop
         id="stop12501-8"
         offset="0"
         style="stop-color:#ffd5d5;stop-opacity:1;" />
      <stop
         id="stop12503-6"
         offset="1"
         style="stop-color:#ffd5d5;stop-opacity:0;" />
    </linearGradient>
    <linearGradient
       gradientTransform="translate(0,-7)"
       gradientUnits="userSpaceOnUse"
       y2="78.526123"
       x2="178.78178"
       y1="135.02612"
       x1="175.8602"
       id="linearGradient12505-1"
       xlink:href="#linearGradient12499-9"
       inkscape:collect="always" />
    <inkscape:perspective
       id="perspective5056-5"
       inkscape:persp3d-origin="372.04724 : 350.78739 : 1"
       inkscape:vp_z="744.09448 : 526.18109 : 1"
       inkscape:vp_y="0 : 1000 : 0"
       inkscape:vp_x="363.49708 : 943.81603 : 1"
       sodipodi:type="inkscape:persp3d" />
    <linearGradient
       id="linearGradient12499"
       inkscape:collect="always">
      <stop
         id="stop12501"
         offset="0"
         style="stop-color:#ffd5d5;stop-opacity:1;" />
      <stop
         id="stop12503"
         offset="1"
         style="stop-color:#ffd5d5;stop-opacity:0;" />
    </linearGradient>
    <linearGradient
       inkscape:collect="always"
       xlink:href="#linearGradient12499"
       id="linearGradient4842"
       gradientUnits="userSpaceOnUse"
       gradientTransform="matrix(0.98323667,-0.18233388,0.18233388,0.98323667,74.736688,42.602255)"
       x1="175.8602"
       y1="135.02612"
       x2="180.12286"
       y2="104.20104" />
    <linearGradient
       inkscape:collect="always"
       xlink:href="#linearGradient12499-5"
       id="linearGradient4848"
       gradientUnits="userSpaceOnUse"
       gradientTransform="matrix(0.99586062,-0.09089341,0.09089341,0.99586062,90.234074,51.049697)"
       x1="184.3886"
       y1="140.77484"
       x2="178.00351"
       y2="106.50191" />
    <linearGradient
       inkscape:collect="always"
       xlink:href="#linearGradient12499-5-3"
       id="linearGradient4854"
       gradientUnits="userSpaceOnUse"
       gradientTransform="matrix(0.99850313,0.05469451,-0.05469451,0.99850313,114.06992,56.176849)"
       x1="186.74098"
       y1="139.74136"
       x2="168.63582"
       y2="87.2258" />
    <inkscape:perspective
       sodipodi:type="inkscape:persp3d"
       inkscape:vp_x="363.49708 : 943.81603 : 1"
       inkscape:vp_y="0 : 1000 : 0"
       inkscape:vp_z="744.09448 : 526.18109 : 1"
       inkscape:persp3d-origin="372.04724 : 350.78739 : 1"
       id="perspective5056-4" />
    <inkscape:perspective
       sodipodi:type="inkscape:persp3d"
       inkscape:vp_x="363.49708 : 943.81603 : 1"
       inkscape:vp_y="0 : 1000 : 0"
       inkscape:vp_z="744.09448 : 526.18109 : 1"
       inkscape:persp3d-origin="372.04724 : 350.78739 : 1"
       id="perspective5056-8-7" />
    <inkscape:perspective
       id="perspective5056-85"
       inkscape:persp3d-origin="372.04724 : 350.78739 : 1"
       inkscape:vp_z="744.09448 : 526.18109 : 1"
       inkscape:vp_y="0 : 1000 : 0"
       inkscape:vp_x="363.49708 : 943.81603 : 1"
       sodipodi:type="inkscape:persp3d" />
    <radialGradient
       inkscape:collect="always"
       xlink:href="#linearGradient4059"
       id="radialGradient6795"
       gradientUnits="userSpaceOnUse"
       gradientTransform="matrix(1,0,0,0.95238095,0,7.8077833)"
       cx="76.631287"
       cy="163.96344"
       fx="76.631287"
       fy="163.96344"
       r="65.535355" />
    <linearGradient
       id="linearGradient4059">
      <stop
         id="stop4061"
         offset="0"
         style="stop-color:#ff0000;stop-opacity:1;" />
      <stop
         id="stop4063"
         offset="1"
         style="stop-color:#0000ff;stop-opacity:0;" />
    </linearGradient>
    <radialGradient
       gradientUnits="userSpaceOnUse"
       gradientTransform="matrix(1,0,0,0.95238095,0,7.8077833)"
       r="65.535355"
       fy="163.96344"
       fx="76.631287"
       cy="163.96344"
       cx="76.631287"
       id="radialGradient4065"
       xlink:href="#linearGradient4059"
       inkscape:collect="always" />
    <inkscape:perspective
       id="perspective5056-7"
       inkscape:persp3d-origin="372.04724 : 350.78739 : 1"
       inkscape:vp_z="744.09448 : 526.18109 : 1"
       inkscape:vp_y="0 : 1000 : 0"
       inkscape:vp_x="363.49708 : 943.81603 : 1"
       sodipodi:type="inkscape:persp3d" />
    <radialGradient
       inkscape:collect="always"
       xlink:href="#linearGradient4059"
       id="radialGradient9934"
       gradientUnits="userSpaceOnUse"
       gradientTransform="matrix(2.2439459,2.1013478,-1.9709694,2.1047198,37.736415,-668.65974)"
       cx="230.81184"
       cy="168.34183"
       fx="230.81184"
       fy="168.34183"
       r="61.958221" />
  </defs>
  <sodipodi:namedview
     id="base"
     pagecolor="#ffffff"
     bordercolor="#666666"
     borderopacity="1.0"
     inkscape:pageopacity="0.0"
     inkscape:pageshadow="2"
     inkscape:zoom="1.0625"
     inkscape:cx="101.42391"
     inkscape:cy="140.04708"
     inkscape:document-units="px"
     inkscape:current-layer="layer11"
     showgrid="false"
     inkscape:window-width="1095"
     inkscape:window-height="693"
     inkscape:window-x="-3"
     inkscape:window-y="-1"
     inkscape:window-maximized="0"
     showguides="true"
     inkscape:guide-bbox="true"
     inkscape:snap-grids="false"
     inkscape:snap-to-guides="false"
     showborder="true"
     inkscape:showpageshadow="false"
     fit-margin-top="0"
     fit-margin-left="0"
     fit-margin-right="0"
     fit-margin-bottom="0"
     inkscape:snap-page="false" />
  <metadata
     id="metadata7">
    <rdf:RDF>
      <cc:Work
         rdf:about="">
        <dc:format>image/svg+xml</dc:format>
        <dc:type
           rdf:resource="http://purl.org/dc/dcmitype/StillImage" />
        <dc:title></dc:title>
      </cc:Work>
    </rdf:RDF>
  </metadata>
  <g
     inkscape:groupmode="layer"
     id="layer2"
     inkscape:label="補助線"
     style="display:none"
     sodipodi:insensitive="true">
    <path
       style="fill:none;stroke:#0000ff;stroke-width:1px;stroke-linecap:butt;stroke-linejoin:miter;stroke-opacity:1"
       d="M 10,310 360,10"
       id="path3025"
       inkscape:connector-curvature="0"
       sodipodi:nodetypes="cc" />
    <path
       style="fill:none;stroke:#0000ff;stroke-width:1px;stroke-linecap:butt;stroke-linejoin:miter;stroke-opacity:1"
       d="M 10,10 360,310"
       id="path3027"
       inkscape:connector-curvature="0"
       sodipodi:nodetypes="cc" />
    <path
       style="fill:none;stroke:#ff0000;stroke-width:1px;stroke-linecap:butt;stroke-linejoin:miter;stroke-opacity:1;display:inline"
       d="m 10,0 0,320"
       id="path3006"
       inkscape:connector-curvature="0"
       sodipodi:nodetypes="cc" />
    <path
       style="fill:none;stroke:#ff0000;stroke-width:1px;stroke-linecap:butt;stroke-linejoin:miter;stroke-opacity:1;display:inline"
       d="m 360,0 0,320"
       id="path3010"
       inkscape:connector-curvature="0"
       sodipodi:nodetypes="cc" />
    <path
       style="fill:none;stroke:#ff0000;stroke-width:1px;stroke-linecap:butt;stroke-linejoin:miter;stroke-opacity:1;display:inline"
       d="M 0,9.9999681 370,10"
       id="path3016"
       inkscape:connector-curvature="0" />
    <path
       transform="translate(84.715796,27.711696)"
       style="fill:none;stroke:#ff0000;stroke-width:1px;stroke-linecap:butt;stroke-linejoin:miter;stroke-opacity:1;display:inline"
       d="m -84.715796,282.2883 369.999996,0"
       id="path3018"
       inkscape:connector-curvature="0"
       sodipodi:nodetypes="cc" />
  </g>
  <g
     inkscape:groupmode="layer"
     id="layer11"
     inkscape:label="豚"
     style="display:inline"
     sodipodi:insensitive="true">
    <path
       style="fill:#ffd5d5;stroke:#000000;stroke-width:2;stroke-linecap:butt;stroke-linejoin:miter;stroke-opacity:1;display:inline"
       d="m 200.39365,21.824939 c 30.74042,6.749695 47.48492,35.516469 42.03612,53.861152 l 1.72166,53.464279 16.53646,50.06225 -24.1928,90.28563 -57.94166,16.18066 L 51.104501,138.08152 z"
       id="path8489"
       inkscape:connector-curvature="0"
       sodipodi:nodetypes="cccccccc" />
    <path
       style="fill:#ffd5d5;stroke:#000000;stroke-width:2;stroke-linecap:butt;stroke-linejoin:miter;stroke-opacity:1;display:inline"
       d="m 240.72829,258.69499 c 10.94991,4.16849 23.38227,14.5784 14.94327,24.87959 -10.16465,12.40765 -83.22047,13.39708 -83.92717,1.32211"
       id="path8507"
       inkscape:connector-curvature="0"
       sodipodi:nodetypes="csc" />
    <g
       id="layer2-8"
       inkscape:label="枠"
       style="display:none"
       transform="translate(-5.6842843,-0.73230059)">
      <path
         style="fill:none;stroke:#0000ff;stroke-width:1px;stroke-linecap:butt;stroke-linejoin:miter;stroke-opacity:1"
         d="M 10.003906,310 359.99609,10.003906"
         id="path3025-9"
         inkscape:connector-curvature="0" />
      <path
         style="fill:none;stroke:#0000ff;stroke-width:1px;stroke-linecap:butt;stroke-linejoin:miter;stroke-opacity:1"
         d="M 10.003906,10 359.99609,310.00391"
         id="path3027-2"
         inkscape:connector-curvature="0" />
      <path
         style="fill:none;stroke:#ff0000;stroke-width:1px;stroke-linecap:butt;stroke-linejoin:miter;stroke-opacity:1;display:inline"
         d="M 9.9974312,-0.00137819 10,320"
         id="path3006-7"
         inkscape:connector-curvature="0" />
      <path
         style="fill:none;stroke:#ff0000;stroke-width:1px;stroke-linecap:butt;stroke-linejoin:miter;stroke-opacity:1;display:inline"
         d="M 360.00391,0.00390625 359.99609,319.99609"
         id="path3010-9"
         inkscape:connector-curvature="0" />
      <path
         style="fill:none;stroke:#ff0000;stroke-width:1px;stroke-linecap:butt;stroke-linejoin:miter;stroke-opacity:1;display:inline"
         d="M 0,9.9999681 370,10"
         id="path3016-5"
         inkscape:connector-curvature="0" />
      <path
         transform="translate(84.715796,27.711696)"
         style="fill:none;stroke:#ff0000;stroke-width:1px;stroke-linecap:butt;stroke-linejoin:miter;stroke-opacity:1;display:inline"
         d="m -84.714876,282.29077 370.002826,-0.003"
         id="path3018-4"
         inkscape:connector-curvature="0"
         sodipodi:nodetypes="cc" />
    </g>
    <path
       style="fill:#ffd5d5;stroke:none;display:inline"
       d="m 249.46451,120.13366 c 25.3028,3.11467 55.66383,15.66215 54.06113,25.09833 -0.9652,5.68284 -5.39579,7.06919 -6.25857,10.97415 -0.83714,3.78892 5.66069,6.50676 3.42406,11.89823 -3.06553,7.38953 -24.64971,19.27978 -40.15161,24.80115 l -28.14675,-46.8892 z"
       id="path3874-3"
       inkscape:connector-curvature="0"
       sodipodi:nodetypes="csssccc" />
    <g
       transform="translate(79.031512,26.979395)"
       id="g5404"
       inkscape:label="豚: 胴 コピー"
       style="display:none">
      <path
         style="fill:none;stroke:#ff6600;stroke-width:1;stroke-linecap:butt;stroke-linejoin:miter;stroke-opacity:1;display:inline"
         d="M 36.746699,-4.7422491 C 56.826279,-21.941844 99.034791,-20.33492 122.24753,-1.9387765"
         id="path5406"
         inkscape:connector-curvature="0"
         sodipodi:nodetypes="cc" />
      <path
         style="fill:none;stroke:#ff6600;stroke-width:1;stroke-linecap:butt;stroke-linejoin:miter;stroke-opacity:1;display:inline"
         d="m 108.80317,-9.8741925 c 13.67245,-2.2756855 26.36767,6.6350116 34.41336,14.5028729 17.21517,16.8346436 29.5322,44.4383466 21.2364,46.9383476"
         id="path5408"
         inkscape:connector-curvature="0"
         sodipodi:nodetypes="csc" />
      <path
         style="fill:none;stroke:#ff6600;stroke-width:1;stroke-linecap:butt;stroke-linejoin:miter;stroke-opacity:1;display:inline"
         d="m 154.58111,35.69423 c 19.24366,26.580301 22.48953,50.066532 8.24997,69.32534"
         id="path5410"
         inkscape:connector-curvature="0"
         sodipodi:nodetypes="cc" />
      <path
         style="fill:none;stroke:#ff6600;stroke-width:1;stroke-linecap:butt;stroke-linejoin:miter;stroke-opacity:1;display:inline"
         d="m 133.12244,27.927275 c -1.07427,5.106305 -2.01823,13.44601 -1.79145,18.264509"
         id="path5412"
         inkscape:connector-curvature="0"
         sodipodi:nodetypes="cc" />
      <path
         style="fill:none;stroke:#ff6600;stroke-width:1;stroke-linecap:butt;stroke-linejoin:miter;stroke-opacity:1;display:inline"
         d="m 85.96694,34.703623 c 6.234054,4.671175 13.551669,11.562313 18.16393,16.819633"
         id="path5414"
         inkscape:connector-curvature="0"
         sodipodi:nodetypes="cc" />
      <path
         style="fill:none;stroke:#ff6600;stroke-width:1;stroke-linecap:butt;stroke-linejoin:miter;stroke-opacity:1;display:inline"
         d="M 129.48553,52.349357 C 113.20577,54.560821 98.273425,68.705754 90.547982,79.763322 79.514996,95.555065 86.73604,111.73316 101.91449,107.32553 c 18.78952,-5.45624 30.1827,-7.35773 42.29965,-6.3959 7.54015,0.59853 16.15672,-9.265881 13.77037,-21.455425 -1.72343,-8.803402 -14.88115,-28.974712 -28.49898,-27.124848 z"
         id="path5416"
         inkscape:connector-curvature="0"
         sodipodi:nodetypes="ssssss" />
      <path
         style="fill:none;stroke:#ff6600;stroke-width:1;stroke-linecap:butt;stroke-linejoin:miter;stroke-opacity:1;display:inline"
         d="M 43.251593,-4.2085523 C 25.143244,-6.8819517 7.7533186,-1.3042395 -2.1949602,15.8493 -15.268361,38.391411 -8.5615119,77.158526 2.3085419,79.943264 17.41957,83.81447 29.244958,58.735824 39.121215,48.353728"
         id="path5418"
         inkscape:connector-curvature="0"
         sodipodi:nodetypes="cssc" />
      <path
         style="fill:none;stroke:#ff6600;stroke-width:1;stroke-linecap:butt;stroke-linejoin:miter;stroke-opacity:1;display:inline"
         d="M -9.6891081,43.890163 C -18.044621,55.683053 -29.409285,75.814949 -25.722294,95.282214 -55.379138,145.3635 -67.976804,221.66407 -39.144622,245.65142"
         id="path5420"
         inkscape:connector-curvature="0"
         sodipodi:nodetypes="ccc" />
      <path
         style="fill:none;stroke:#ff6600;stroke-width:1;stroke-linecap:butt;stroke-linejoin:miter;stroke-opacity:1;display:inline"
         d="m 166.8493,98.375416 c 24.38018,4.894044 51.91807,19.050674 51.68965,25.229754 -0.16386,4.43272 -4.26062,9.13541 -3.81034,12.6143 0.55648,4.29935 3.78128,8.54719 3.29516,12.05573 -0.61568,4.44285 -24.85145,22.98753 -37.06819,28.67087"
         id="path5422"
         inkscape:connector-curvature="0"
         sodipodi:nodetypes="csssc" />
      <path
         style="fill:none;stroke:#ff6600;stroke-width:1;stroke-linecap:butt;stroke-linejoin:miter;stroke-opacity:1;display:inline"
         d="m 179.58089,154.42882 c 4.53065,26.08037 -1.71059,73.10662 -23.00931,95.8129"
         id="path5424"
         inkscape:connector-curvature="0"
         sodipodi:nodetypes="cc" />
      <path
         style="fill:none;stroke:#ff6600;stroke-width:1;stroke-linecap:butt;stroke-linejoin:miter;stroke-opacity:1;display:inline"
         d="m 160.66866,245.01062 c 10.9939,4.18523 27.96896,16.4863 19.24661,26.61939 -6.70116,7.78506 -85.376924,9.77629 -83.608532,1.7827"
         id="path5426"
         inkscape:connector-curvature="0"
         sodipodi:nodetypes="csc" />
      <path
         style="fill:none;stroke:#ff6600;stroke-width:1;stroke-linecap:butt;stroke-linejoin:miter;stroke-opacity:1;display:inline"
         d="m 101.06998,271.94168 c -33.752954,7.05718 -66.752789,2.81764 -99.7360204,-1.6692"
         id="path5428"
         inkscape:connector-curvature="0"
         sodipodi:nodetypes="cc" />
      <path
         style="fill:none;stroke:#ff6600;stroke-width:1;stroke-linecap:butt;stroke-linejoin:miter;stroke-opacity:1;display:inline"
         d="m 17.191595,271.94168 c 1.545432,10.7647 -76.932068,13.97322 -81.374571,1.87785 -4.634219,-12.61701 1.208097,-24.90814 16.692237,-37.76613"
         id="path5430"
         inkscape:connector-curvature="0"
         sodipodi:nodetypes="csc" />
      <path
         sodipodi:nodetypes="sss"
         inkscape:connector-curvature="0"
         id="path5432"
         d="m 110.54437,93.830566 c 5.01439,1.113874 12.23957,-22.962102 9.36183,-23.783747 -4.15454,-1.186204 -13.60037,22.84221 -9.36183,23.783747 z"
         style="fill:none;stroke:#ff6600;stroke-width:1;stroke-linecap:butt;stroke-linejoin:miter;stroke-opacity:1;display:inline" />
      <path
         sodipodi:nodetypes="sss"
         inkscape:connector-curvature="0"
         id="path5434"
         d="m 135.92908,68.635175 c -3.04377,0.744269 -1.90241,23.012975 2.41206,22.205564 4.56681,-0.854625 0.25867,-22.85863 -2.41206,-22.205564 z"
         style="fill:none;stroke:#ff6600;stroke-width:1;stroke-linecap:butt;stroke-linejoin:miter;stroke-opacity:1;display:inline" />
      <path
         sodipodi:nodetypes="csssc"
         inkscape:connector-curvature="0"
         id="path5436"
         d="m 69.524677,114.29562 c 20.160859,2.59905 63.159623,15.27843 62.954803,30.34004 -0.0372,2.74219 -4.11533,9.47896 -3.91814,11.56136 0.24044,2.53942 3.47385,9.41702 2.74282,11.96925 -2.9222,10.202 -42.401445,27.40669 -48.011952,29.23057"
         style="fill:none;stroke:#ff6600;stroke-width:1;stroke-linecap:butt;stroke-linejoin:miter;stroke-opacity:1;display:inline" />
      <path
         sodipodi:nodetypes="csc"
         inkscape:connector-curvature="0"
         id="path5438"
         d="m 132.34916,143.13973 c -3.8526,-4.87628 -8.44707,9.60238 -8.26714,13.45455 0.17325,3.70834 3.09239,16.7313 6.97317,12.77498"
         style="fill:none;stroke:#ff6600;stroke-width:1;stroke-linecap:butt;stroke-linejoin:miter;stroke-opacity:1;display:inline" />
      <path
         sodipodi:nodetypes="cc"
         inkscape:connector-curvature="0"
         id="path5440"
         d="m 117.49632,128.90376 c -13.09165,0.9931 -13.21641,50.04524 0.52174,51.53681"
         style="fill:none;stroke:#ff6600;stroke-width:1;stroke-linecap:butt;stroke-linejoin:miter;stroke-opacity:1;display:inline" />
      <path
         sodipodi:nodetypes="csc"
         inkscape:connector-curvature="0"
         id="path5442"
         d="m 218.25721,123.37391 c -1.95378,-2.01877 -7.56296,7.9589 -7.39003,13.30627 0.12016,3.71144 4.03011,15.11207 7.04112,12.28118"
         style="fill:none;stroke:#ff6600;stroke-width:1;stroke-linecap:butt;stroke-linejoin:miter;stroke-opacity:1;display:inline" />
      <path
         sodipodi:nodetypes="cc"
         inkscape:connector-curvature="0"
         id="path5444"
         d="m 207.30132,113.34136 c -8.33705,0.12083 -12.11393,44.3031 1.95936,44.22805"
         style="fill:none;stroke:#ff6600;stroke-width:1;stroke-linecap:butt;stroke-linejoin:miter;stroke-opacity:1;display:inline" />
    </g>
    <path
       style="fill:#ffd5d5;stroke:#000000;stroke-width:2;stroke-linecap:butt;stroke-linejoin:miter;stroke-opacity:1;display:inline"
       d="m 258.07593,181.63283 c 7.39187,30.5007 6.52297,67.46672 -29.90995,86.38012"
       id="path8505"
       inkscape:connector-curvature="0"
       sodipodi:nodetypes="cc" />
    <path
       style="fill:#ffd5d5;stroke:#000000;stroke-width:2;stroke-linecap:butt;stroke-linejoin:miter;stroke-opacity:1;display:inline"
       d="m 183.99252,286.1828 c -33.61789,7.02894 -79.18365,-1.73545 -103.965659,-5.26273 -16.095054,5.2285 -42.753934,16.06595 -59.16675,8.74434 -22.6477637,-10.10295 0.01836,-110.96038 30.138255,-153.27896"
       id="path3630"
       inkscape:connector-curvature="0"
       sodipodi:nodetypes="ccsc" />
    <g
       style="display:none"
       inkscape:label="豚: 胴"
       id="g3163"
       transform="translate(79.031512,26.979395)">
      <path
         sodipodi:nodetypes="cscc"
         inkscape:connector-curvature="0"
         id="path5686"
         d="M 124.20903,2.2294161 C 93.395472,-22.54161 42.689067,-27.761988 5.2068452,17.493469 -25.389051,54.434484 -32.183268,79.975924 -24.335302,101.52368 c -39.464356,50.08128 -43.641502,120.14039 -14.80932,144.12774"
         style="fill:none;stroke:#000000;stroke-width:1;stroke-linecap:butt;stroke-linejoin:miter;stroke-opacity:1;display:inline" />
      <path
         sodipodi:nodetypes="csc"
         inkscape:connector-curvature="0"
         id="path5688"
         d="m 107.76112,-8.1578779 c 15.05944,1.1917936 26.58704,6.7830492 38.05602,19.7338379 15.54232,17.550406 26.06472,41.13192 18.28904,42.591677"
         style="fill:none;stroke:#000000;stroke-width:1;stroke-linecap:butt;stroke-linejoin:miter;stroke-opacity:1;display:inline" />
      <path
         sodipodi:nodetypes="cc"
         inkscape:connector-curvature="0"
         id="path5690"
         d="m 153.88761,37.42797 c 19.24366,26.580301 21.44929,48.67954 7.20973,67.93835"
         style="fill:none;stroke:#000000;stroke-width:1;stroke-linecap:butt;stroke-linejoin:miter;stroke-opacity:1;display:inline" />
      <path
         sodipodi:nodetypes="cc"
         inkscape:connector-curvature="0"
         id="path5692"
         d="m 139.98931,28.683872 c -0.55415,6.319923 -0.95695,12.393445 -0.57783,18.548156"
         style="fill:none;stroke:#000000;stroke-width:1;stroke-linecap:butt;stroke-linejoin:miter;stroke-opacity:1;display:inline" />
      <path
         sodipodi:nodetypes="cc"
         inkscape:connector-curvature="0"
         id="path5694"
         d="m 97.438067,32.987308 c 6.234053,4.671175 13.306483,10.949344 18.409113,17.555197"
         style="fill:none;stroke:#000000;stroke-width:1;stroke-linecap:butt;stroke-linejoin:miter;stroke-opacity:1;display:inline" />
      <path
         sodipodi:nodetypes="ssssss"
         inkscape:connector-curvature="0"
         id="path5696"
         d="m 137.48553,52.349357 c -16.27976,2.211464 -29.13162,16.009649 -36.85706,27.067217 -11.032987,15.791743 -5.89243,32.316586 9.28602,27.908956 18.78952,-5.45624 30.1827,-7.35773 42.29965,-6.3959 7.54015,0.59853 16.15672,-9.265881 13.77037,-21.455425 -1.72343,-8.803402 -14.88115,-28.974712 -28.49898,-27.124848 z"
         style="fill:none;stroke:#000000;stroke-width:1;stroke-linecap:butt;stroke-linejoin:miter;stroke-opacity:1;display:inline" />
      <path
         sodipodi:nodetypes="cssc"
         inkscape:connector-curvature="0"
         id="path5698"
         d="M 43.251593,-4.2085523 C 25.143244,-6.8819517 5.6728311,4.2437271 -4.2754477,21.397267 -17.348848,43.939378 -4.0537891,79.585761 6.8162647,82.370499 21.927293,86.241705 33.059185,60.469564 42.935442,50.087468"
         style="fill:none;stroke:#000000;stroke-width:1;stroke-linecap:butt;stroke-linejoin:miter;stroke-opacity:1;display:inline" />
      <path
         sodipodi:nodetypes="csssc"
         inkscape:connector-curvature="0"
         id="path5702"
         d="m 166.8493,98.375416 c 24.38018,4.894044 51.91807,19.050674 51.68965,25.229754 -0.16386,4.43272 -4.26062,9.13541 -3.81034,12.6143 0.55648,4.29935 3.78128,8.54719 3.29516,12.05573 -0.61568,4.44285 -24.85145,22.98753 -37.06819,28.67087"
         style="fill:none;stroke:#000000;stroke-width:1;stroke-linecap:butt;stroke-linejoin:miter;stroke-opacity:1;display:inline" />
      <path
         sodipodi:nodetypes="cc"
         inkscape:connector-curvature="0"
         id="path5704"
         d="m 179.58089,154.42882 c 4.53065,26.08037 -1.71059,73.10662 -23.00931,95.8129"
         style="fill:none;stroke:#000000;stroke-width:1;stroke-linecap:butt;stroke-linejoin:miter;stroke-opacity:1;display:inline" />
      <path
         sodipodi:nodetypes="csc"
         inkscape:connector-curvature="0"
         id="path5706"
         d="m 160.66866,245.01062 c 10.9939,4.18523 27.96896,16.4863 19.24661,26.61939 -6.70116,7.78506 -85.376924,9.77629 -83.608532,1.7827"
         style="fill:none;stroke:#000000;stroke-width:1;stroke-linecap:butt;stroke-linejoin:miter;stroke-opacity:1;display:inline" />
      <path
         sodipodi:nodetypes="cc"
         inkscape:connector-curvature="0"
         id="path5708"
         d="m 101.06998,271.94168 c -33.752954,7.05718 -66.752789,2.81764 -99.7360204,-1.6692"
         style="fill:none;stroke:#000000;stroke-width:1;stroke-linecap:butt;stroke-linejoin:miter;stroke-opacity:1;display:inline" />
      <path
         sodipodi:nodetypes="csc"
         inkscape:connector-curvature="0"
         id="path5710"
         d="m 17.191595,271.94168 c 1.545432,10.7647 -68.776344,13.79134 -81.374571,1.87785 -13.714591,-12.96918 -0.998593,-28.09558 16.692237,-37.76613"
         style="fill:none;stroke:#000000;stroke-width:1;stroke-linecap:butt;stroke-linejoin:miter;stroke-opacity:1;display:inline" />
      <path
         style="fill:none;stroke:#000000;stroke-width:1;stroke-linecap:butt;stroke-linejoin:miter;stroke-opacity:1;display:inline"
         d="m 120.54437,93.830566 c 5.01439,1.113874 12.23957,-22.962102 9.36183,-23.783747 -4.15454,-1.186204 -13.60037,22.84221 -9.36183,23.783747 z"
         id="path5712"
         inkscape:connector-curvature="0"
         sodipodi:nodetypes="sss" />
      <path
         style="fill:none;stroke:#000000;stroke-width:1;stroke-linecap:butt;stroke-linejoin:miter;stroke-opacity:1;display:inline"
         d="m 145.92908,68.635175 c -3.04377,0.744269 -1.90241,23.012975 2.41206,22.205564 4.56681,-0.854625 0.25867,-22.85863 -2.41206,-22.205564 z"
         id="path5714"
         inkscape:connector-curvature="0"
         sodipodi:nodetypes="sss" />
      <path
         style="fill:none;stroke:#000000;stroke-width:1;stroke-linecap:butt;stroke-linejoin:miter;stroke-opacity:1;display:inline"
         d="m 69.524677,108.29562 c 20.160859,2.59905 63.159623,15.27843 62.954803,30.34004 -0.0372,2.74219 -4.11533,9.47896 -3.91814,11.56136 0.24044,2.53942 3.47385,9.41702 2.74282,11.96925 -2.9222,10.202 -42.401445,27.40669 -48.011952,29.23057"
         id="path5766"
         inkscape:connector-curvature="0"
         sodipodi:nodetypes="csssc" />
      <path
         style="fill:none;stroke:#000000;stroke-width:1;stroke-linecap:butt;stroke-linejoin:miter;stroke-opacity:1;display:inline"
         d="m 132.34916,137.13973 c -3.8526,-4.87628 -8.44707,9.60238 -8.26714,13.45455 0.17325,3.70834 3.09239,16.7313 6.97317,12.77498"
         id="path5768"
         inkscape:connector-curvature="0"
         sodipodi:nodetypes="csc" />
      <path
         style="fill:none;stroke:#000000;stroke-width:1;stroke-linecap:butt;stroke-linejoin:miter;stroke-opacity:1;display:inline"
         d="m 117.49632,122.90376 c -13.09165,0.9931 -13.21641,50.04524 0.52174,51.53681"
         id="path5770"
         inkscape:connector-curvature="0"
         sodipodi:nodetypes="cc" />
      <path
         style="fill:none;stroke:#000000;stroke-width:1;stroke-linecap:butt;stroke-linejoin:miter;stroke-opacity:1;display:inline"
         d="m 218.25721,123.37391 c -1.95378,-2.01877 -7.56296,7.9589 -7.39003,13.30627 0.12016,3.71144 4.03011,15.11207 7.04112,12.28118"
         id="path5790"
         inkscape:connector-curvature="0"
         sodipodi:nodetypes="csc" />
      <path
         style="fill:none;stroke:#000000;stroke-width:1;stroke-linecap:butt;stroke-linejoin:miter;stroke-opacity:1;display:inline"
         d="m 207.30132,113.34136 c -8.33705,0.12083 -12.11393,44.3031 1.95936,44.22805"
         id="path5792"
         inkscape:connector-curvature="0"
         sodipodi:nodetypes="cc" />
    </g>
    <path
       style="fill:#ffd5d5;stroke:#000000;stroke-width:2;stroke-linecap:butt;stroke-linejoin:miter;stroke-opacity:1;display:inline"
       d="m 235.2738,65.748761 c 20.08415,24.120608 20.04025,48.182839 7.08154,68.318859"
       id="path8491"
       inkscape:connector-curvature="0"
       sodipodi:nodetypes="cc" />
    <path
       style="fill:none;stroke:#000000;stroke-width:2;stroke-linecap:butt;stroke-linejoin:miter;stroke-opacity:1;display:inline"
       d="m 219.5728,57.789295 -1.82015,12.824897"
       id="path8493"
       inkscape:connector-curvature="0"
       sodipodi:nodetypes="cc" />
    <path
       style="fill:none;stroke:#000000;stroke-width:2;stroke-linecap:butt;stroke-linejoin:miter;stroke-opacity:1;display:inline"
       d="m 180.73226,64.80927 11.93726,10.363773"
       id="path8495"
       inkscape:connector-curvature="0"
       sodipodi:nodetypes="cc" />
    <path
       style="fill:#ffaaaa;stroke:#000000;stroke-width:2;stroke-linecap:butt;stroke-linejoin:miter;stroke-opacity:1;display:inline"
       d="m 215.29025,77.3933 c -13.6763,1.023684 -28.05591,16.25949 -34.65538,29.80533 -7.16694,14.71054 -3.64662,29.97039 11.69773,26.41059 12.282,-2.84935 26.35604,-5.45107 34.37125,-5.21591 12.38909,0.36349 14.84521,-14.35083 12.47015,-26.486 -1.98262,-10.129974 -9.76609,-25.570731 -23.88375,-24.51401 z"
       id="path8497"
       inkscape:connector-curvature="0"
       sodipodi:nodetypes="ssssss" />
    <path
       sodipodi:nodetypes="csssc"
       inkscape:connector-curvature="0"
       id="path3888-7"
       d="m 150.90932,133.8581 c 26.16086,0.0991 70.22273,14.569 67.74401,29.78826 -0.93114,5.71717 -6.41629,8.48161 -7.46991,12.20154 -1.04537,3.69079 5.06852,9.14817 2.21249,13.82539 -5.53056,9.05721 -43.10855,25.46215 -48.71906,27.28603"
       style="fill:#ffd5d5;stroke:none;display:inline" />
    <path
       sodipodi:nodetypes="ccsssc"
       inkscape:connector-curvature="0"
       id="path3892-4"
       d="m 198.98284,200.69236 c -21.86988,4.69561 -20.18435,-60.76793 0.7106,-55.84682 0,0 20.55471,8.09366 18.95987,18.80511 -0.85305,5.72934 -6.41629,8.48161 -7.46991,12.20154 -1.04537,3.69079 5.26579,9.2745 2.21249,13.82539 -3.58602,5.3449 -14.41305,11.01478 -14.41305,11.01478 z"
       style="fill:#ffaaaa;stroke:none;display:inline" />
    <path
       style="fill:#ffd5d5;stroke:#000000;stroke-width:2;stroke-linecap:butt;stroke-linejoin:miter;stroke-opacity:1;display:inline"
       d="M 53.457658,145.40552 C 45.258809,123.20983 55.333267,86.747645 88.427624,47.658952 126.55053,2.6308828 181.51569,1.7781675 212.15466,30.757151"
       id="path8509"
       inkscape:connector-curvature="0"
       sodipodi:nodetypes="csc" />
    <path
       sodipodi:nodetypes="sss"
       inkscape:connector-curvature="0"
       id="path8513"
       d="m 197.32285,120.80795 c 2.38624,4.51682 13.38884,-29.380198 10.41924,-29.108888 -4.64307,0.424204 -16.09727,18.361108 -10.41924,29.108888 z"
       style="fill:#000000;stroke:#000000;stroke-width:2;stroke-linecap:butt;stroke-linejoin:miter;stroke-opacity:1;display:inline" />
    <path
       sodipodi:nodetypes="sss"
       inkscape:connector-curvature="0"
       id="path8515"
       d="m 219.94694,89.975253 c -2.98042,0.937031 0.89489,31.492327 3.64767,28.086467 7.63085,-9.4412 -1.03246,-28.908674 -3.64767,-28.086467 z"
       style="fill:#000000;stroke:#000000;stroke-width:2;stroke-linecap:butt;stroke-linejoin:miter;stroke-opacity:1;display:inline" />
    <path
       style="fill:#ffd5d5;stroke:#000000;stroke-width:2;stroke-linecap:butt;stroke-linejoin:miter;stroke-opacity:1;display:inline"
       d="M 118.25298,25.507445 C 70.064066,30.681618 58.04949,86.649771 79.087513,109.78123 89.793344,121.55237 113.00806,86.625854 131.19267,72.99613"
       id="path8499"
       inkscape:connector-curvature="0"
       sodipodi:nodetypes="csc" />
    <path
       sodipodi:nodetypes="ccsssc"
       inkscape:connector-curvature="0"
       id="path3896-0"
       d="m 291.91619,132.91201 c -19.2649,-10.62501 -21.8073,49.71129 -2.14878,45.4827 0,0 8.3885,-5.37139 10.9237,-10.28605 2.67593,-5.18747 -4.2612,-8.10931 -3.42406,-11.89823 0.86278,-3.90496 5.06477,-5.3349 6.25857,-10.97415 1.24914,-5.90065 -11.60943,-12.32427 -11.60943,-12.32427 z"
       style="fill:#ffaaaa;stroke:none;display:inline" />
    <path
       style="fill:#ff8080;stroke:none;display:inline"
       d="m 300.69104,168.10592 c 2.23663,-5.39147 -4.58054,-8.19428 -3.42406,-11.89823 1.20241,-3.85105 6.64607,-7.35656 5.98979,-10.63695 -2.70455,-5.06826 -14.70902,5.59178 -14.55424,10.37803 0.10756,3.32197 6.45528,15.99853 11.84018,12.35714 z"
       id="path3874-6"
       inkscape:connector-curvature="0"
       sodipodi:nodetypes="cscscc" />
    <path
       style="fill:none;stroke:#000000;stroke-width:2;stroke-linecap:butt;stroke-linejoin:miter;stroke-opacity:1;display:inline"
       d="m 249.46488,120.13462 c 25.3028,3.11467 55.66383,15.66215 54.06113,25.09833 -0.9652,5.68284 -5.39579,7.06919 -6.25857,10.97415 -0.83714,3.78892 5.66069,6.50676 3.42406,11.89823 -3.06553,7.38953 -24.64971,19.27978 -40.15161,24.80115"
       id="path3874"
       inkscape:connector-curvature="0"
       sodipodi:nodetypes="csssc" />
    <path
       sodipodi:nodetypes="csccscc"
       inkscape:connector-curvature="0"
       id="path3890-7"
       d="m 213.19103,189.96081 c -7.5047,3.07245 -11.47775,-8.7558 -11.40385,-14.37572 0.0983,-7.47304 12.44357,-18.87914 16.91749,-13.91448 l -0.0514,1.9773 c -0.93114,5.71717 -6.41629,8.48161 -7.46991,12.20154 -1.04537,3.69079 5.06852,9.14817 2.21249,13.82539 z"
       style="fill:#ff8080;stroke:none;display:inline" />
    <path
       sodipodi:nodetypes="csssc"
       inkscape:connector-curvature="0"
       id="path3888"
       d="m 150.90969,133.85906 c 26.16086,0.0991 70.22273,14.569 67.74401,29.78826 -0.93114,5.71717 -6.41629,8.48161 -7.46991,12.20154 -1.04537,3.69079 5.06852,9.14817 2.21249,13.82539 -5.53056,9.05721 -43.10855,25.46215 -48.71906,27.28603"
       style="fill:none;stroke:#000000;stroke-width:2;stroke-linecap:butt;stroke-linejoin:miter;stroke-opacity:1;display:inline" />
    <path
       sodipodi:nodetypes="csc"
       inkscape:connector-curvature="0"
       id="path3890"
       d="m 218.70514,161.67002 c -4.47392,-4.96466 -16.81918,6.44144 -16.91749,13.91448 -0.0739,5.61992 3.89915,17.44817 11.40385,14.37572"
       style="fill:none;stroke:#000000;stroke-width:2;stroke-linecap:butt;stroke-linejoin:miter;stroke-opacity:1;display:inline" />
    <path
       sodipodi:nodetypes="cc"
       inkscape:connector-curvature="0"
       id="path3892"
       d="m 199.69383,144.84221 c -20.89495,-4.92111 -22.58048,60.54243 -0.7106,55.84682"
       style="fill:none;stroke:#000000;stroke-width:2;stroke-linecap:butt;stroke-linejoin:miter;stroke-opacity:1;display:inline" />
    <path
       sodipodi:nodetypes="csc"
       inkscape:connector-curvature="0"
       id="path3894"
       d="m 303.25723,145.57015 c -2.70455,-5.06826 -14.70902,5.59178 -14.55424,10.37803 0.10756,3.32197 6.45528,15.99853 11.84018,12.35714"
       style="fill:none;stroke:#000000;stroke-width:2;stroke-linecap:butt;stroke-linejoin:miter;stroke-opacity:1;display:inline" />
    <path
       sodipodi:nodetypes="cc"
       inkscape:connector-curvature="0"
       id="path3896"
       d="m 291.91658,132.90868 c -19.2649,-10.62501 -21.8073,49.71129 -2.14878,45.4827"
       style="fill:none;stroke:#000000;stroke-width:2;stroke-linecap:butt;stroke-linejoin:miter;stroke-opacity:1;display:inline" />
  </g>
  <g
     inkscape:groupmode="layer"
     id="layer6"
     inkscape:label="エネルギー"
     style="display:inline"
     sodipodi:insensitive="true">
    <path
       sodipodi:nodetypes="csc"
       inkscape:connector-curvature="0"
       id="path5919"
       d="M 362.34588,46.254253 C 286.71802,70.485398 221.67097,131.99626 221.23078,171.8625 c -0.49067,44.43812 62.72783,104.1849 140.69934,130.35442"
       style="fill:url(#radialGradient9934);fill-opacity:1;stroke:none;display:inline" />
    <path
       sodipodi:nodetypes="cccccccccc"
       inkscape:connector-curvature="0"
       id="path7598"
       d="m 349.3517,115.48965 -14.00536,11.20429 -21.70832,42.71636 -63.02414,-16.80643 -17.4889,21.37602 20.28998,2.4331 18.90724,30.11153 25.20965,17.5067 37.11422,9.10349 14.70563,32.21234"
       style="fill:none;stroke:#ff0000;stroke-width:2;stroke-linecap:butt;stroke-linejoin:miter;stroke-opacity:1;display:inline" />
    <path
       sodipodi:nodetypes="cccccccccc"
       inkscape:connector-curvature="0"
       id="path7598-2"
       d="m 351.7533,157.5729 -26.61019,-41.66597 -24.85953,31.16194 -47.61824,8.75335 -19.88887,17.86504 42.99773,9.79556 0.20937,16.21601 15.33125,12.0805 26.82561,6.71689 34.66327,21.35819"
       style="fill:none;stroke:#ff0000;stroke-width:2;stroke-linecap:butt;stroke-linejoin:miter;stroke-opacity:1;display:inline" />
    <path
       sodipodi:nodetypes="cccccccccc"
       inkscape:connector-curvature="0"
       id="path7598-4"
       d="m 352.15277,87.478923 -30.11153,-4.901879 -27.31047,38.164616 -33.61287,50.06918 -28.41553,3.20477 4.64265,16.82253 6.96644,-2.87073 52.52011,5.60214 19.60751,15.75604 36.76409,-16.10617"
       style="fill:none;stroke:#ff0000;stroke-width:2;stroke-linecap:butt;stroke-linejoin:miter;stroke-opacity:1;display:inline" />
  </g>
  <g
     inkscape:groupmode="layer"
     id="layer7"
     inkscape:label="枠面"
     style="display:inline;"
     sodipodi:insensitive="true">
    <path
       style="fill:#ffffff;stroke:none;display:inline"
       d="m 0,0 0,320 370,0 0,-320 -10,10 0,300 -350,0 0,-300 350,0 10,-10 z"
       id="path21072"
       inkscape:connector-curvature="0"
       sodipodi:nodetypes="ccccccccccc" />
  </g>
</svg>
