<?xml version="1.0" encoding="UTF-8" standalone="no"?>
<!-- Created with Inkscape (http://www.inkscape.org/) -->

<svg
   xmlns:dc="http://purl.org/dc/elements/1.1/"
   xmlns:cc="http://creativecommons.org/ns#"
   xmlns:rdf="http://www.w3.org/1999/02/22-rdf-syntax-ns#"
   xmlns:svg="http://www.w3.org/2000/svg"
   xmlns="http://www.w3.org/2000/svg"
   xmlns:xlink="http://www.w3.org/1999/xlink"
   xmlns:sodipodi="http://sodipodi.sourceforge.net/DTD/sodipodi-0.dtd"
   xmlns:inkscape="http://www.inkscape.org/namespaces/inkscape"
   width="370"
   height="320"
   id="svg2"
   version="1.1"
   inkscape:version="0.92.3 (2405546, 2018-03-11)"
   sodipodi:docname="[07]油断.svg"
   inkscape:export-filename="C:\Users\zhen-\Desktop\資料\臨時\因幡\第0次\展開\07.png"
   inkscape:export-xdpi="96"
   inkscape:export-ydpi="96"
   enable-background="new">
  <defs
     id="defs4">
    <inkscape:perspective
       sodipodi:type="inkscape:persp3d"
       inkscape:vp_x="363.49708 : 943.81603 : 1"
       inkscape:vp_y="0 : 1000 : 0"
       inkscape:vp_z="744.09448 : 526.18109 : 1"
       inkscape:persp3d-origin="372.04724 : 350.78739 : 1"
       id="perspective5056" />
    <inkscape:perspective
       id="perspective5056-8"
       inkscape:persp3d-origin="372.04724 : 350.78739 : 1"
       inkscape:vp_z="744.09448 : 526.18109 : 1"
       inkscape:vp_y="0 : 1000 : 0"
       inkscape:vp_x="363.49708 : 943.81603 : 1"
       sodipodi:type="inkscape:persp3d" />
    <linearGradient
       id="linearGradient12499-5-3"
       inkscape:collect="always">
      <stop
         id="stop12501-0-8"
         offset="0"
         style="stop-color:#ffd5d5;stop-opacity:1;" />
      <stop
         id="stop12503-9-9"
         offset="1"
         style="stop-color:#ffd5d5;stop-opacity:0;" />
    </linearGradient>
    <linearGradient
       id="linearGradient12499-5"
       inkscape:collect="always">
      <stop
         id="stop12501-0"
         offset="0"
         style="stop-color:#ffd5d5;stop-opacity:1;" />
      <stop
         id="stop12503-9"
         offset="1"
         style="stop-color:#ffd5d5;stop-opacity:0;" />
    </linearGradient>
    <linearGradient
       id="linearGradient12499-8"
       inkscape:collect="always">
      <stop
         id="stop12501-6"
         offset="0"
         style="stop-color:#ffd5d5;stop-opacity:1;" />
      <stop
         id="stop12503-0"
         offset="1"
         style="stop-color:#ffd5d5;stop-opacity:0;" />
    </linearGradient>
    <linearGradient
       gradientTransform="translate(0,-7)"
       gradientUnits="userSpaceOnUse"
       y2="78.526123"
       x2="178.78178"
       y1="135.02612"
       x1="175.8602"
       id="linearGradient12505-2"
       xlink:href="#linearGradient12499-8"
       inkscape:collect="always" />
    <linearGradient
       id="linearGradient12499-9"
       inkscape:collect="always">
      <stop
         id="stop12501-8"
         offset="0"
         style="stop-color:#ffd5d5;stop-opacity:1;" />
      <stop
         id="stop12503-6"
         offset="1"
         style="stop-color:#ffd5d5;stop-opacity:0;" />
    </linearGradient>
    <linearGradient
       gradientTransform="translate(0,-7)"
       gradientUnits="userSpaceOnUse"
       y2="78.526123"
       x2="178.78178"
       y1="135.02612"
       x1="175.8602"
       id="linearGradient12505-1"
       xlink:href="#linearGradient12499-9"
       inkscape:collect="always" />
    <inkscape:perspective
       id="perspective5056-5"
       inkscape:persp3d-origin="372.04724 : 350.78739 : 1"
       inkscape:vp_z="744.09448 : 526.18109 : 1"
       inkscape:vp_y="0 : 1000 : 0"
       inkscape:vp_x="363.49708 : 943.81603 : 1"
       sodipodi:type="inkscape:persp3d" />
    <linearGradient
       id="linearGradient12499"
       inkscape:collect="always">
      <stop
         id="stop12501"
         offset="0"
         style="stop-color:#ffd5d5;stop-opacity:1;" />
      <stop
         id="stop12503"
         offset="1"
         style="stop-color:#ffd5d5;stop-opacity:0;" />
    </linearGradient>
    <linearGradient
       inkscape:collect="always"
       xlink:href="#linearGradient12499"
       id="linearGradient4842"
       gradientUnits="userSpaceOnUse"
       gradientTransform="matrix(0.98323667,-0.18233388,0.18233388,0.98323667,74.736688,42.602255)"
       x1="175.8602"
       y1="135.02612"
       x2="180.12286"
       y2="104.20104" />
    <linearGradient
       inkscape:collect="always"
       xlink:href="#linearGradient12499-5"
       id="linearGradient4848"
       gradientUnits="userSpaceOnUse"
       gradientTransform="matrix(0.99586062,-0.09089341,0.09089341,0.99586062,90.234074,51.049697)"
       x1="184.3886"
       y1="140.77484"
       x2="178.00351"
       y2="106.50191" />
    <linearGradient
       inkscape:collect="always"
       xlink:href="#linearGradient12499-5-3"
       id="linearGradient4854"
       gradientUnits="userSpaceOnUse"
       gradientTransform="matrix(0.99850313,0.05469451,-0.05469451,0.99850313,114.06992,56.176849)"
       x1="186.74098"
       y1="139.74136"
       x2="168.63582"
       y2="87.2258" />
    <inkscape:perspective
       sodipodi:type="inkscape:persp3d"
       inkscape:vp_x="363.49708 : 943.81603 : 1"
       inkscape:vp_y="0 : 1000 : 0"
       inkscape:vp_z="744.09448 : 526.18109 : 1"
       inkscape:persp3d-origin="372.04724 : 350.78739 : 1"
       id="perspective5056-4" />
    <inkscape:perspective
       sodipodi:type="inkscape:persp3d"
       inkscape:vp_x="363.49708 : 943.81603 : 1"
       inkscape:vp_y="0 : 1000 : 0"
       inkscape:vp_z="744.09448 : 526.18109 : 1"
       inkscape:persp3d-origin="372.04724 : 350.78739 : 1"
       id="perspective5056-8-7" />
    <inkscape:perspective
       id="perspective5056-85"
       inkscape:persp3d-origin="372.04724 : 350.78739 : 1"
       inkscape:vp_z="744.09448 : 526.18109 : 1"
       inkscape:vp_y="0 : 1000 : 0"
       inkscape:vp_x="363.49708 : 943.81603 : 1"
       sodipodi:type="inkscape:persp3d" />
    <inkscape:perspective
       sodipodi:type="inkscape:persp3d"
       inkscape:vp_x="363.49708 : 943.81603 : 1"
       inkscape:vp_y="0 : 1000 : 0"
       inkscape:vp_z="744.09448 : 526.18109 : 1"
       inkscape:persp3d-origin="372.04724 : 350.78739 : 1"
       id="perspective5056-4-2" />
    <inkscape:perspective
       sodipodi:type="inkscape:persp3d"
       inkscape:vp_x="363.49708 : 943.81603 : 1"
       inkscape:vp_y="0 : 1000 : 0"
       inkscape:vp_z="744.09448 : 526.18109 : 1"
       inkscape:persp3d-origin="372.04724 : 350.78739 : 1"
       id="perspective5056-8-4" />
    <inkscape:perspective
       id="perspective5056-1"
       inkscape:persp3d-origin="372.04724 : 350.78739 : 1"
       inkscape:vp_z="744.09448 : 526.18109 : 1"
       inkscape:vp_y="0 : 1000 : 0"
       inkscape:vp_x="363.49708 : 943.81603 : 1"
       sodipodi:type="inkscape:persp3d" />
  </defs>
  <sodipodi:namedview
     id="base"
     pagecolor="#ffffff"
     bordercolor="#666666"
     borderopacity="1.0"
     inkscape:pageopacity="0.0"
     inkscape:pageshadow="2"
     inkscape:zoom="0.88650076"
     inkscape:cx="-393.36935"
     inkscape:cy="1.9258355"
     inkscape:document-units="px"
     inkscape:current-layer="layer3"
     showgrid="false"
     inkscape:window-width="1347"
     inkscape:window-height="982"
     inkscape:window-x="-9"
     inkscape:window-y="0"
     inkscape:window-maximized="0"
     showguides="true"
     inkscape:guide-bbox="true"
     inkscape:snap-grids="false"
     inkscape:snap-to-guides="false"
     showborder="true"
     inkscape:showpageshadow="false"
     fit-margin-top="0"
     fit-margin-left="0"
     fit-margin-right="0"
     fit-margin-bottom="0"
     inkscape:snap-page="false"
     inkscape:snap-global="true" />
  <metadata
     id="metadata7">
    <rdf:RDF>
      <cc:Work
         rdf:about="">
        <dc:format>image/svg+xml</dc:format>
        <dc:type
           rdf:resource="http://purl.org/dc/dcmitype/StillImage" />
        <dc:title />
      </cc:Work>
    </rdf:RDF>
  </metadata>
  <g
     inkscape:groupmode="layer"
     id="layer2"
     inkscape:label="補助線"
     style="display:none"
     sodipodi:insensitive="true">
    <path
       style="fill:none;stroke:#0000ff;stroke-width:1px;stroke-linecap:butt;stroke-linejoin:miter;stroke-opacity:1"
       d="M 10,310 360,10"
       id="path3025"
       inkscape:connector-curvature="0"
       sodipodi:nodetypes="cc" />
    <path
       style="fill:none;stroke:#0000ff;stroke-width:1px;stroke-linecap:butt;stroke-linejoin:miter;stroke-opacity:1"
       d="M 10,10 360,310"
       id="path3027"
       inkscape:connector-curvature="0"
       sodipodi:nodetypes="cc" />
    <path
       style="display:inline;fill:none;stroke:#ff0000;stroke-width:1px;stroke-linecap:butt;stroke-linejoin:miter;stroke-opacity:1"
       d="M 10,0 V 320"
       id="path3006"
       inkscape:connector-curvature="0"
       sodipodi:nodetypes="cc" />
    <path
       style="display:inline;fill:none;stroke:#ff0000;stroke-width:1px;stroke-linecap:butt;stroke-linejoin:miter;stroke-opacity:1"
       d="M 360,0 V 320"
       id="path3010"
       inkscape:connector-curvature="0"
       sodipodi:nodetypes="cc" />
    <path
       style="display:inline;fill:none;stroke:#ff0000;stroke-width:1px;stroke-linecap:butt;stroke-linejoin:miter;stroke-opacity:1"
       d="M 0,9.9999681 370,10"
       id="path3016"
       inkscape:connector-curvature="0" />
    <path
       transform="translate(84.715796,27.711696)"
       style="display:inline;fill:none;stroke:#ff0000;stroke-width:1px;stroke-linecap:butt;stroke-linejoin:miter;stroke-opacity:1"
       d="M -84.715796,282.2883 H 285.2842"
       id="path3018"
       inkscape:connector-curvature="0"
       sodipodi:nodetypes="cc" />
  </g>
  <g
     inkscape:groupmode="layer"
     id="layer3"
     inkscape:label="豚"
     style="display:inline"
     sodipodi:insensitive="true">
    <g
       id="g33647"
       style="stroke-width:1.88891315"
       transform="matrix(0.99708963,0,0,0.99708963,3.2704587,12.369904)">
      <path
         sodipodi:nodetypes="scscs"
         inkscape:connector-curvature="0"
         id="path109419-28-1-1"
         d="m 171.46065,294.28855 c -79.54036,0 -144.02057,-11.16419 -144.02057,-24.93595 0,-13.77177 64.48021,-88.14987 144.02057,-88.14987 79.54036,0 144.02057,74.3781 144.02057,88.14987 0,13.77176 -64.48021,24.93595 -144.02057,24.93595 z"
         style="display:inline;opacity:1;fill:#afe9af;fill-opacity:1;stroke:none;stroke-width:1.88891315;stroke-linecap:round;stroke-linejoin:round;stroke-miterlimit:4;stroke-dasharray:none;stroke-dashoffset:0;stroke-opacity:1" />
      <path
         sodipodi:nodetypes="zcsssssssscz"
         inkscape:connector-curvature="0"
         id="path109419-28-1-9"
         d="m 171.46066,181.20273 c 57.26176,0 102.91304,39.85284 102.91304,39.85284 0.31756,1.61199 0.14839,3.17864 -0.66109,4.58476 -4.41662,7.67196 -17.34056,-10.39004 -25.57755,-7.14696 -7.00376,2.75753 -4.73613,16.58619 -11.76744,19.27271 -12.89658,4.92751 -25.87556,-12.79022 -39.65591,-11.95106 -13.18407,0.80285 -23.08132,16.63393 -36.27225,15.95312 -11.48786,-0.59291 -18.58383,-15.58865 -29.99098,-17.07169 -13.69256,-1.78017 -28.63625,18.38703 -40.042661,10.60571 -5.40752,-3.68895 3.23051,-15.92098 -2.24436,-19.50923 -6.08277,-3.98667 -17.791553,12.95204 -20.870007,6.36289 0,0 46.907448,-40.95309 104.169208,-40.95309 z"
         style="display:inline;opacity:1;fill:#37c837;fill-opacity:1;stroke:none;stroke-width:1.88891315;stroke-linecap:round;stroke-linejoin:round;stroke-miterlimit:4;stroke-dasharray:none;stroke-dashoffset:0;stroke-opacity:1" />
      <path
         sodipodi:nodetypes="scscs"
         inkscape:connector-curvature="0"
         id="path109419-28-1"
         d="m 171.46065,294.28855 c -79.540358,0 -144.020568,-11.16419 -144.020568,-24.93595 0,-13.77177 64.48021,-88.14987 144.020568,-88.14987 79.54036,0 144.02057,74.3781 144.02057,88.14987 0,13.77176 -64.48021,24.93595 -144.02057,24.93595 z"
         style="display:inline;opacity:1;fill:none;fill-opacity:1;stroke:#000000;stroke-width:1.88891315;stroke-linecap:round;stroke-linejoin:round;stroke-miterlimit:4;stroke-dasharray:none;stroke-dashoffset:0;stroke-opacity:1" />
    </g>
    <path
       style="fill:#fefefe;fill-opacity:1;stroke:#000000;stroke-width:2;stroke-linecap:round;stroke-linejoin:round"
       d="m 351.27398,61.767628 c 0,21.2995 -33.78219,39.492612 -81.40264,46.727362 -7.84742,1.19224 -29.76847,18.14643 -43.47397,23.90409 3.02799,-8.99175 4.92337,-20.56341 -2.2962,-20.56341 -70.23562,0 -127.17282,-22.41623 -127.17282,-50.068042 0,-27.651812 56.9372,-50.068039 127.17282,-50.068039 70.2356,0 127.17281,22.416227 127.17281,50.068039 z"
       id="path23824"
       inkscape:connector-curvature="0"
       sodipodi:nodetypes="sscssss" />
    <text
       xml:space="preserve"
       style="font-style:normal;font-weight:normal;line-height:0%;font-family:sans-serif;letter-spacing:0px;word-spacing:0px;writing-mode:lr-tb;display:inline;fill:#000000;fill-opacity:1;stroke:none;stroke-width:2"
       x="132.99619"
       y="49.343121"
       id="text13157"><tspan
         sodipodi:role="line"
         x="132.99619"
         y="49.343121"
         id="tspan23822"
         style="font-size:28.92807961px;line-height:1.25;font-family:sans-serif;stroke-width:2">　まあ</tspan><tspan
         sodipodi:role="line"
         x="132.99619"
         y="85.50322"
         style="font-size:28.92807961px;line-height:1.25;font-family:sans-serif;stroke-width:2"
         id="tspan3347">気長に待とう。</tspan></text>
    <g
       id="g25184"
       transform="matrix(0.8575545,0,0,0.8575545,553.18517,-122.45876)"
       style="display:inline;stroke-width:2.3322134">
      <path
         sodipodi:nodetypes="cccccscccssc"
         inkscape:connector-curvature="0"
         id="path624-8-2-7"
         d="m 173.19159,530.59289 c -12.34846,9.99008 -58.09813,10.87288 -70.80562,4.82728 l -26.487632,-20.42026 35.221342,-86.23548 59.5566,-24.2642 c -2.78667,-19.44956 1.84255,-55.23745 12.39048,-52.39295 8.56727,2.31037 27.56906,36.65574 20.01508,62.04433 l 26.98032,39.03707 -21.75013,67.03829 c -6.00555,5.85666 -8.49879,11.25756 -8.76541,15.50167 -0.17511,2.78745 4.40062,10.25292 2.75985,14.90599 -3.87701,10.99477 -37.77728,4.31652 -43.11278,-9.37259"
         style="display:inline;fill:#fffefc;fill-opacity:1;stroke:#000000;stroke-width:2.3322134;stroke-linecap:round;stroke-linejoin:round;stroke-opacity:1" />
      <circle
         r="23.745459"
         cy="488.59732"
         cx="35.271111"
         id="path642-3-1-5"
         style="display:inline;opacity:1;fill:#fffefc;fill-opacity:1;stroke:#000000;stroke-width:2.3322134;stroke-linecap:round;stroke-linejoin:round;stroke-miterlimit:4;stroke-dasharray:none;stroke-opacity:1" />
      <path
         sodipodi:nodetypes="csssc"
         inkscape:connector-curvature="0"
         id="path608-1-7-1"
         d="m 145.35279,414.87856 c -53.538014,-36.81285 -112.201159,4.69359 -118.565689,56.9338 -4.089675,33.56815 9.763614,58.78373 23.335865,68.9041 13.08487,9.75695 31.138235,11.24754 43.431065,10.93649 11.053709,-0.27971 27.953369,-11.43579 1.559297,-31.27065"
         style="display:inline;fill:#fffefc;fill-opacity:1;stroke:#000000;stroke-width:2.3322134;stroke-linecap:round;stroke-linejoin:round;stroke-opacity:1" />
      <path
         sodipodi:nodetypes="csc"
         inkscape:connector-curvature="0"
         id="path628-3-7-8-5"
         d="m 199.34878,525.73294 c 16.61299,-7.90617 27.92171,-20.19511 35.39651,-31.11077 8.87257,-12.95685 7.21027,-30.89746 -4.94831,-44.46711"
         style="display:inline;fill:#fffefc;fill-opacity:1;stroke:#000000;stroke-width:2.3322134;stroke-linecap:round;stroke-linejoin:round;stroke-opacity:1" />
      <path
         sodipodi:nodetypes="ccc"
         inkscape:connector-curvature="0"
         id="path612-5-4-3"
         d="m 180.53071,450.98345 c 10.91922,-4.93422 22.49995,0.14372 21.27595,13.02453 -12.36293,6.3114 -20.79725,0.99524 -21.27595,-13.02453 z"
         style="display:inline;fill:#800000;stroke:#000000;stroke-width:2.3322134;stroke-linecap:round;stroke-linejoin:round;stroke-opacity:1" />
      <path
         sodipodi:nodetypes="cccc"
         inkscape:connector-curvature="0"
         id="path636-5-9-2-2"
         d="m 229.29138,489.64537 c -7.97195,10.72154 -22.57106,23.61461 -27.1992,10.72837 l 22.59786,-18.86513 z"
         style="display:inline;fill:#800000;stroke:#000000;stroke-width:2.3322134;stroke-linecap:round;stroke-linejoin:round;stroke-opacity:1" />
      <path
         sodipodi:nodetypes="cscsc"
         inkscape:connector-curvature="0"
         id="path620-9-8-7"
         d="m 186.5905,488.50283 c -2.16366,7.46462 7.11516,15.00704 14.15761,12.28296 5.00108,-1.93446 18.15037,-11.33546 23.2183,-14.89301 2.43297,1.39142 4.57491,6.36507 7.71381,5.49465 6.41595,-1.77915 10.00048,-12.328 6.57201,-17.83218"
         style="display:inline;fill:#fffefc;fill-opacity:1;stroke:#000000;stroke-width:2.3322134;stroke-linecap:round;stroke-linejoin:round;stroke-opacity:1" />
      <path
         sodipodi:nodetypes="cssc"
         inkscape:connector-curvature="0"
         id="path626-9-2-3"
         d="m 181.08229,528.86581 c -1.48805,2.52415 -7.91806,9.41495 -7.22947,12.04488 1.45943,5.57403 3.87285,17.77333 -6.07839,19.74254 -15.12531,2.99309 -36.24932,-8.65936 -42.23013,-27.65098"
         style="display:inline;fill:#fffefc;fill-opacity:1;stroke:#000000;stroke-width:2.3322134;stroke-linecap:round;stroke-linejoin:round;stroke-opacity:1" />
      <path
         style="display:inline;fill:#ffaaaa;stroke:none;stroke-width:2.3322134;stroke-linecap:round;stroke-linejoin:round;stroke-opacity:1"
         d="m 216.97746,475.55647 c 1.46076,0.96427 6.05141,3.8605 7.50764,4.02457 2.36574,-0.26496 5.71806,-4.95604 4.57683,-7.83178 -1.2471,2.58254 -2.3865,4.09598 -4.41444,5.31932 -1.57436,-0.28047 -4.71516,-0.88154 -7.67003,-1.51211 z"
         id="path616-1-4-1-3"
         inkscape:connector-curvature="0"
         sodipodi:nodetypes="ccccc" />
      <path
         sodipodi:nodetypes="ccc"
         inkscape:connector-curvature="0"
         id="path616-7-5-7"
         d="m 216.97746,475.55647 c 3.11966,2.01139 4.5355,2.83667 7.50764,4.02457 3.53751,-2.00782 4.77519,-5.36783 4.57683,-7.83178"
         style="display:inline;fill:none;stroke:#000000;stroke-width:2.3322134;stroke-linecap:round;stroke-linejoin:round;stroke-opacity:1" />
      <path
         sodipodi:nodetypes="cc"
         inkscape:connector-curvature="0"
         id="path618-4-2-1"
         d="m 224.4851,479.58104 c 0.5661,2.39951 0.24091,4.44251 -0.51869,6.31174"
         style="display:inline;fill:none;stroke:#000000;stroke-width:2.3322134;stroke-linecap:round;stroke-linejoin:round;stroke-opacity:1" />
      <path
         sodipodi:nodetypes="cccc"
         inkscape:connector-curvature="0"
         id="path636-5-6-0"
         d="m 120.28638,426.36558 c 11.48633,-17.18306 41.53035,-24.81084 57.89587,-20.36063 m 20.61196,5.389 c 17.49407,4.73136 32.95507,28.45964 31.8465,47.19321"
         style="display:inline;fill:#ffffff;stroke:#000000;stroke-width:2.3322134;stroke-linecap:round;stroke-linejoin:round;stroke-opacity:1" />
      <path
         sodipodi:nodetypes="sssss"
         inkscape:connector-curvature="0"
         id="path628-3-7-8-5-5"
         d="m 129.51748,462.01798 c -11.46094,8.57403 -10.5885,28.80413 -5.00004,41.0251 4.50322,9.84776 21.10584,23.70227 32.03507,17.29234 4.97752,-2.91929 -13.74512,-1.32757 -23.66051,-22.90636 -10.06075,-21.89515 2.31977,-39.67103 -3.37452,-35.41108 z"
         style="display:inline;fill:#f4e3d7;fill-opacity:1;stroke:none;stroke-width:2.3322134;stroke-linecap:round;stroke-linejoin:round;stroke-opacity:1" />
      <path
         sodipodi:nodetypes="cc"
         inkscape:connector-curvature="0"
         id="path634-6"
         d="m 195.44196,482.18644 c -13.08108,-0.0196 -27.12099,1.73886 -42.15867,5.34749"
         style="display:inline;fill:none;stroke:#000000;stroke-width:2.3322134;stroke-linecap:round;stroke-linejoin:round;stroke-opacity:1" />
      <path
         sodipodi:nodetypes="cc"
         inkscape:connector-curvature="0"
         id="path636-1"
         d="m 196.28793,487.18117 c -11.91695,4.16524 -23.87807,8.69215 -36.06596,15.07524"
         style="display:inline;fill:none;stroke:#000000;stroke-width:2.3322134;stroke-linecap:round;stroke-linejoin:round;stroke-opacity:1" />
      <path
         sodipodi:nodetypes="cc"
         inkscape:connector-curvature="0"
         id="path636-5-9"
         d="m 199.14413,493.11056 c -10.49041,6.63532 -21.48359,12.30677 -30.84405,21.10838"
         style="display:inline;fill:none;stroke:#000000;stroke-width:2.3322134;stroke-linecap:round;stroke-linejoin:round;stroke-opacity:1" />
      <path
         sodipodi:nodetypes="cc"
         inkscape:connector-curvature="0"
         id="path638-07"
         d="m 236.08811,477.12424 c 6.1851,2.13599 12.28409,3.85664 18.92403,8.18631"
         style="display:inline;fill:none;stroke:#000000;stroke-width:2.3322134;stroke-linecap:round;stroke-linejoin:round;stroke-opacity:1" />
      <path
         sodipodi:nodetypes="cc"
         inkscape:connector-curvature="0"
         id="path640-6"
         d="m 234.29246,484.48719 c 7.19224,4.07899 12.65732,10.841 16.07584,16.76821"
         style="display:inline;fill:none;stroke:#000000;stroke-width:2.3322134;stroke-linecap:round;stroke-linejoin:round;stroke-opacity:1" />
      <path
         sodipodi:nodetypes="cc"
         inkscape:connector-curvature="0"
         id="path638-0-6"
         d="m 235.23448,472.06767 c 6.54876,-1.40647 14.22925,-0.9202 22.66119,0.82284"
         style="display:inline;fill:none;stroke:#000000;stroke-width:2.3322134;stroke-linecap:round;stroke-linejoin:round;stroke-opacity:1" />
      <path
         sodipodi:nodetypes="csc"
         inkscape:connector-curvature="0"
         id="path610-5-7-4"
         d="m 175.37275,416.80187 c -3.73662,-30.24037 -42.68134,-55.24789 -58.14595,-52.62195 -11.60942,1.97131 5.24952,48.47508 28.78089,67.46933"
         style="display:inline;fill:#fffefc;fill-opacity:1;stroke:#000000;stroke-width:2.3322134;stroke-linecap:round;stroke-linejoin:round;stroke-opacity:1" />
      <path
         sodipodi:nodetypes="scs"
         inkscape:connector-curvature="0"
         id="path610-8-8-2-4"
         d="m 116.53582,374.09234 c 1.41468,7.19614 14.54235,43.42191 34.90695,54.21098 27.34425,-25.1169 -37.73907,-68.6173 -34.90695,-54.21098 z"
         style="display:inline;fill:#ff8080;fill-opacity:1;stroke:#000000;stroke-width:2.3322134;stroke-linecap:round;stroke-linejoin:round;stroke-opacity:1" />
    </g>
    <g
       id="g33569"
       transform="matrix(0.58771128,-0.35069514,0.35069514,0.58771128,-211.9037,-85.4889)"
       style="stroke-width:2.75195694">
      <path
         sodipodi:nodetypes="cscccsscccc"
         inkscape:connector-curvature="0"
         id="path4492-6-5-75-3-7-8"
         d="m 260.99606,509.91075 c -14.62301,-18.26204 -43.54944,-40.77514 -57.31643,-40.02579 -12.81527,0.69753 0.51503,42.10878 16.82497,51.00451 l -30.30932,67.7181 -3.14833,50.36263 c 27.99238,24.24606 68.33664,48.96151 84.8077,58.5593 20.32152,11.84145 56.32614,34.43311 74.57105,33.68772 15.16986,-0.61975 25.20085,-19.42319 19.88187,-33.99667 C 420.0871,627.83627 374.17449,556.46319 311.77873,552.99 l -18.26385,-26.87486 z"
         style="display:inline;fill:#fffefc;fill-opacity:1;stroke:#000000;stroke-width:2.75195694;stroke-linecap:round;stroke-linejoin:round;stroke-opacity:1" />
      <path
         sodipodi:nodetypes="csc"
         inkscape:connector-curvature="0"
         id="path141-4-2-6-0-3"
         d="m 306.19777,547.54584 c 57.70533,-13.98895 81.79994,32.80564 60.10577,50.58157 -10.22346,8.37698 -19.66768,-15.14512 -24.08847,-27.02462"
         style="display:inline;fill:#fffefc;fill-opacity:1;stroke:#000000;stroke-width:2.75195694;stroke-linecap:round;stroke-linejoin:round;stroke-opacity:1" />
      <path
         sodipodi:nodetypes="cc"
         inkscape:connector-curvature="0"
         id="path30839"
         d="m 322.39411,571.70636 c 2.69049,-23.8298 -9.77051,-44.87274 -40.42502,-52.03775"
         style="display:inline;fill:#fffefc;fill-opacity:1;stroke:#000000;stroke-width:2.75195694;stroke-linecap:round;stroke-linejoin:round;stroke-opacity:1" />
      <path
         sodipodi:nodetypes="ccc"
         inkscape:connector-curvature="0"
         id="path4480-0-0-5-3-6-8-4"
         d="m 290.3446,534.07389 c 0.29438,-3.15526 -1.37813,-8.85585 -5.33071,-10.0099 0.75673,1.97031 1.88767,6.86348 5.33071,10.0099 z"
         style="display:inline;fill:#800000;stroke:#000000;stroke-width:2.75195694;stroke-linecap:round;stroke-linejoin:round;stroke-opacity:1" />
      <path
         sodipodi:nodetypes="cc"
         inkscape:connector-curvature="0"
         id="path30984"
         d="m 285.04628,524.3518 c -4.98903,-10.21725 -24.24963,-16.23574 -36.17892,-14.22734"
         style="display:inline;fill:#fffefc;fill-opacity:1;stroke:#000000;stroke-width:2.75195694;stroke-linecap:round;stroke-linejoin:round;stroke-opacity:1" />
      <path
         sodipodi:nodetypes="cc"
         inkscape:connector-curvature="0"
         id="path1257-4-0-0"
         d="m 225.52829,517.09778 c -29.59017,15.22438 -42.61865,62.09959 -32.78084,71.80211"
         style="display:inline;fill:#fffefc;fill-opacity:1;stroke:#000000;stroke-width:2.75195694;stroke-linecap:round;stroke-linejoin:round;stroke-opacity:1" />
      <path
         sodipodi:nodetypes="cccc"
         inkscape:connector-curvature="0"
         id="path69-5-8-7-3-7-6"
         d="m 306.74333,564.99928 c -2.78824,26.80736 -22.36752,41.68293 -31.91629,23.09695 l 21.71079,-28.45553 z"
         style="display:inline;fill:#800000;stroke:none;stroke-width:2.75195694;stroke-linecap:round;stroke-linejoin:round;stroke-opacity:1" />
      <path
         sodipodi:nodetypes="csc"
         inkscape:connector-curvature="0"
         id="path4490-6-9-4-5-3-5"
         d="m 224.20548,529.8215 c -18.80425,-19.34397 -62.3249,-19.87283 -72.81946,-9.44367 -7.94485,7.89535 30.27892,34.44306 51.30116,39.53679"
         style="display:inline;fill:#fffefc;fill-opacity:1;stroke:#000000;stroke-width:2.75195694;stroke-linecap:round;stroke-linejoin:round;stroke-opacity:1" />
      <path
         sodipodi:nodetypes="scs"
         inkscape:connector-curvature="0"
         id="path4490-6-9-5-4-8-2-1"
         d="m 154.66,525.48654 c 5.19638,10.43374 39.61951,33.097 55.27224,26.97322 0.1454,-28.10541 -58.62822,-33.71165 -55.27224,-26.97322 z"
         style="display:inline;fill:#ff8080;stroke:#000000;stroke-width:2.75195694;stroke-linecap:round;stroke-linejoin:round;stroke-opacity:1" />
      <path
         sodipodi:nodetypes="ccc"
         inkscape:connector-curvature="0"
         id="path4480-0-0-3-3-6-8"
         d="m 248.06132,554.03981 c 5.25136,2.04721 16.37015,1.66424 21.29236,-0.80044 -6.69819,-3.27313 -16.83385,-1.98505 -21.29236,0.80044 z"
         style="display:inline;fill:#800000;stroke:#000000;stroke-width:2.75195694;stroke-linecap:round;stroke-linejoin:round;stroke-opacity:1" />
      <path
         sodipodi:nodetypes="ccccc"
         inkscape:connector-curvature="0"
         id="path616-1-4-1-3-3"
         d="m 283.56509,554.52521 c 2.15002,0.67735 9.72773,-0.11711 10.97653,0.0236 1.43052,-1.32397 1.22803,-7.40555 0.0998,-8.57549 -0.32166,2.61349 -0.61438,4.97301 -1.45611,6.27135 -1.20054,0.40757 -6.837,1.7744 -9.62022,2.28055 z"
         style="display:inline;fill:#ffaaaa;stroke:none;stroke-width:2.75195694;stroke-linecap:round;stroke-linejoin:round;stroke-opacity:1" />
      <path
         sodipodi:nodetypes="ccc"
         inkscape:connector-curvature="0"
         id="path4482-9-6-7-8-0-1"
         d="m 283.56509,554.52521 c 4.01465,0.3016 6.03339,0.36887 10.97653,0.0236 0.79423,-2.29045 1.25973,-5.78692 0.0998,-8.5755"
         style="display:inline;fill:none;stroke:#000000;stroke-width:2.75195694;stroke-linecap:round;stroke-linejoin:round;stroke-opacity:1" />
      <path
         sodipodi:nodetypes="cc"
         inkscape:connector-curvature="0"
         id="path69-5-8-7-3-2"
         d="m 306.74333,564.99928 c -2.38942,26.60795 -22.08551,42.52895 -31.91629,23.09695"
         style="display:inline;fill:none;stroke:#000000;stroke-width:2.75195694;stroke-linecap:round;stroke-linejoin:round;stroke-opacity:1" />
      <path
         sodipodi:nodetypes="cscsc"
         inkscape:connector-curvature="0"
         id="path4486-4-2-3-6-7-7"
         d="m 264.71588,577.51985 c -0.0528,10.07665 8.28892,12.5469 14.12537,11.00836 4.35337,-1.14759 13.85111,-15.14397 17.69658,-28.88751 4.81793,3.53241 7.09991,6.17024 11.40752,5.06357 5.6205,-1.444 7.70136,-13.00469 0.16728,-17.35442"
         style="display:inline;fill:#fffefc;fill-opacity:1;stroke:#000000;stroke-width:2.75195694;stroke-linecap:round;stroke-linejoin:round;stroke-opacity:1" />
      <path
         sodipodi:nodetypes="cc"
         inkscape:connector-curvature="0"
         id="path139-6-5-0-5"
         d="m 269.65169,569.81288 -26.29251,20.15989"
         style="display:inline;fill:none;stroke:#000000;stroke-width:2.75195694;stroke-linecap:round;stroke-linejoin:round;stroke-opacity:1" />
      <path
         sodipodi:nodetypes="cc"
         inkscape:connector-curvature="0"
         id="path141-1-6-4-7"
         d="m 273.02523,574.88105 -21.64724,23.85107"
         style="display:inline;fill:none;stroke:#000000;stroke-width:2.75195694;stroke-linecap:round;stroke-linejoin:round;stroke-opacity:1" />
      <path
         sodipodi:nodetypes="cc"
         inkscape:connector-curvature="0"
         id="path137-3-0-7-1"
         d="M 266.62724,565.53774 237.11516,580.9034"
         style="display:inline;fill:none;stroke:#000000;stroke-width:2.75195694;stroke-linecap:round;stroke-linejoin:round;stroke-opacity:1" />
      <path
         sodipodi:nodetypes="cc"
         inkscape:connector-curvature="0"
         id="path147-7-8-5-6"
         d="m 304.05893,555.74689 17.93611,2.55109"
         style="display:inline;fill:none;stroke:#000000;stroke-width:2.75195694;stroke-linecap:round;stroke-linejoin:round;stroke-opacity:1" />
      <path
         sodipodi:nodetypes="cc"
         inkscape:connector-curvature="0"
         id="path143-46-1-7-8"
         d="m 300.86906,546.50039 11.28703,-9.65393"
         style="display:inline;fill:none;stroke:#000000;stroke-width:2.75195694;stroke-linecap:round;stroke-linejoin:round;stroke-opacity:1" />
      <path
         sodipodi:nodetypes="cc"
         inkscape:connector-curvature="0"
         id="path145-6-6-6-9"
         d="m 302.83495,551.74039 14.95017,-6.02762"
         style="display:inline;fill:none;stroke:#000000;stroke-width:2.75195694;stroke-linecap:round;stroke-linejoin:round;stroke-opacity:1" />
      <path
         sodipodi:nodetypes="csssc"
         inkscape:connector-curvature="0"
         id="path27123-7"
         d="m 208.28281,607.21558 c 1.78021,-15.2739 3.20723,-45.77393 -13.31404,-45.48203 -8.83558,0.15611 -8.02604,10.20217 -11.21783,13.98545 -6.16619,7.3089 -25.76619,14.87139 -22.35505,40.15751 1.41757,10.50813 19.16129,27.41113 44.24391,36.9995"
         style="display:inline;fill:#fffefc;fill-opacity:1;stroke:#000000;stroke-width:2.75195694;stroke-linecap:round;stroke-linejoin:round;stroke-opacity:1" />
      <path
         sodipodi:nodetypes="cc"
         inkscape:connector-curvature="0"
         id="path4484-8-4-7-5-3-5"
         d="m 294.54162,554.5488 1.99621,5.0919"
         style="display:inline;fill:none;stroke:#000000;stroke-width:2.75195694;stroke-linecap:round;stroke-linejoin:round;stroke-opacity:1" />
    </g>
    <path
       style="display:inline;opacity:1;fill:none;fill-opacity:1;stroke:#00ffff;stroke-width:2;stroke-linecap:round;stroke-linejoin:round;stroke-miterlimit:4;stroke-dasharray:none;stroke-dashoffset:0;stroke-opacity:1"
       d="m 424.34347,543.01776 c -66.44364,0 -120.30686,-26.79543 -120.30686,-59.84923 0,-33.05379 53.86322,-79.84917 120.30686,-79.84917 66.44364,-1e-5 120.30686,46.79538 120.30686,79.84917 0,33.05379 -53.86322,59.84923 -120.30686,59.84923 z"
       id="path109419-28"
       inkscape:connector-curvature="0"
       sodipodi:nodetypes="scscs" />
    <path
       style="display:inline;opacity:1;fill:none;fill-opacity:1;stroke:#ff0000;stroke-width:2;stroke-linecap:round;stroke-linejoin:round;stroke-miterlimit:4;stroke-dasharray:none;stroke-dashoffset:0;stroke-opacity:1"
       inkscape:transform-center-x="3.7793293"
       inkscape:transform-center-y="-1.8269908"
       d="m 470.42814,467.38932 -24.99133,6.66107 -28.21306,1.39633 -27.1396,-4.081 -21.93438,-8.93702 -13.38986,-12.43245 -2.80685,-14.03519 8.20348,-13.50117 17.96491,-10.91172 24.99133,-6.66107 28.21306,-1.39632 27.1396,4.08098 21.93438,8.93704 13.38986,12.43246 2.80684,14.03518 -8.20348,13.50117 z"
       id="path109461-64"
       inkscape:connector-curvature="0"
       sodipodi:nodetypes="ccccccccccccccccc" />
    <path
       style="display:inline;opacity:1;fill:none;fill-opacity:1;stroke:#0000ff;stroke-width:2;stroke-linecap:round;stroke-linejoin:round;stroke-miterlimit:4;stroke-dasharray:none;stroke-dashoffset:0;stroke-opacity:1"
       inkscape:transform-center-x="4.5054265"
       inkscape:transform-center-y="-2.1780008"
       d="m 478.56317,481.80801 -29.79275,7.94081 -33.63345,1.66459 -32.35376,-4.86506 -26.14849,-10.65403 -15.96237,-14.82103 -3.3461,-16.73168 9.77956,-16.09506 21.41638,-13.00813 29.79276,-7.94081 33.63345,-1.66459 32.35375,4.86506 26.14849,10.65403 15.96237,14.82103 3.34611,16.73167 -9.77957,16.09507 z"
       id="path109461-4-9"
       inkscape:connector-curvature="0"
       sodipodi:nodetypes="ccccccccccccccccc" />
    <path
       style="display:inline;opacity:1;fill:none;fill-opacity:1;stroke:#00ff00;stroke-width:2;stroke-linecap:round;stroke-linejoin:round;stroke-miterlimit:4;stroke-dasharray:none;stroke-dashoffset:0;stroke-opacity:1"
       inkscape:transform-center-x="4.5054265"
       inkscape:transform-center-y="-2.1780008"
       d="m 478.56317,481.80801 -33.12636,-7.75762 -30.29984,17.36302 -25.05282,-20.04769 -33.44943,4.5286 -1.87481,-25.89807 -17.43366,-5.65464 22.83029,-21.88172 8.36565,-7.22147 34.59059,-10.35132 28.83561,0.74592 26.51705,1.93874 31.9852,13.58035 3.33904,7.78915 15.96944,23.76355 -21.36608,3.7728 z"
       id="path109461-4-6-8"
       inkscape:connector-curvature="0"
       sodipodi:nodetypes="ccccccccccccccccc" />
  </g>
  <g
     inkscape:groupmode="layer"
     id="layer7"
     inkscape:label="枠面"
     style="display:inline"
     sodipodi:insensitive="true">
    <path
       style="fill:#ffffff;stroke:none;display:inline"
       d="m 0,0 0,320 370,0 0,-320 -10,10 0,300 -350,0 0,-300 350,0 10,-10 z"
       id="path21072"
       inkscape:connector-curvature="0"
       sodipodi:nodetypes="ccccccccccc" />
  </g>
</svg>
