<?xml version="1.0" encoding="UTF-8" standalone="no"?>
<!-- Created with Inkscape (http://www.inkscape.org/) -->

<svg
   xmlns:dc="http://purl.org/dc/elements/1.1/"
   xmlns:cc="http://creativecommons.org/ns#"
   xmlns:rdf="http://www.w3.org/1999/02/22-rdf-syntax-ns#"
   xmlns:svg="http://www.w3.org/2000/svg"
   xmlns="http://www.w3.org/2000/svg"
   xmlns:xlink="http://www.w3.org/1999/xlink"
   xmlns:sodipodi="http://sodipodi.sourceforge.net/DTD/sodipodi-0.dtd"
   xmlns:inkscape="http://www.inkscape.org/namespaces/inkscape"
   width="370"
   height="320"
   id="svg2"
   version="1.1"
   inkscape:version="0.92.3 (2405546, 2018-03-11)"
   sodipodi:docname="[09]通告.svg"
   inkscape:export-filename="C:\Users\zhen-\Desktop\資料\臨時\因幡\第0次\展開\09.png"
   inkscape:export-xdpi="96"
   inkscape:export-ydpi="96"
   enable-background="new">
  <defs
     id="defs4">
    <inkscape:perspective
       sodipodi:type="inkscape:persp3d"
       inkscape:vp_x="363.49708 : 943.81603 : 1"
       inkscape:vp_y="0 : 1000 : 0"
       inkscape:vp_z="744.09448 : 526.18109 : 1"
       inkscape:persp3d-origin="372.04724 : 350.78739 : 1"
       id="perspective5056" />
    <inkscape:perspective
       id="perspective5056-8"
       inkscape:persp3d-origin="372.04724 : 350.78739 : 1"
       inkscape:vp_z="744.09448 : 526.18109 : 1"
       inkscape:vp_y="0 : 1000 : 0"
       inkscape:vp_x="363.49708 : 943.81603 : 1"
       sodipodi:type="inkscape:persp3d" />
    <linearGradient
       id="linearGradient12499-5-3"
       inkscape:collect="always">
      <stop
         id="stop12501-0-8"
         offset="0"
         style="stop-color:#ffd5d5;stop-opacity:1;" />
      <stop
         id="stop12503-9-9"
         offset="1"
         style="stop-color:#ffd5d5;stop-opacity:0;" />
    </linearGradient>
    <linearGradient
       id="linearGradient12499-5"
       inkscape:collect="always">
      <stop
         id="stop12501-0"
         offset="0"
         style="stop-color:#ffd5d5;stop-opacity:1;" />
      <stop
         id="stop12503-9"
         offset="1"
         style="stop-color:#ffd5d5;stop-opacity:0;" />
    </linearGradient>
    <linearGradient
       id="linearGradient12499-8"
       inkscape:collect="always">
      <stop
         id="stop12501-6"
         offset="0"
         style="stop-color:#ffd5d5;stop-opacity:1;" />
      <stop
         id="stop12503-0"
         offset="1"
         style="stop-color:#ffd5d5;stop-opacity:0;" />
    </linearGradient>
    <linearGradient
       gradientTransform="translate(0,-7)"
       gradientUnits="userSpaceOnUse"
       y2="78.526123"
       x2="178.78178"
       y1="135.02612"
       x1="175.8602"
       id="linearGradient12505-2"
       xlink:href="#linearGradient12499-8"
       inkscape:collect="always" />
    <linearGradient
       id="linearGradient12499-9"
       inkscape:collect="always">
      <stop
         id="stop12501-8"
         offset="0"
         style="stop-color:#ffd5d5;stop-opacity:1;" />
      <stop
         id="stop12503-6"
         offset="1"
         style="stop-color:#ffd5d5;stop-opacity:0;" />
    </linearGradient>
    <linearGradient
       gradientTransform="translate(0,-7)"
       gradientUnits="userSpaceOnUse"
       y2="78.526123"
       x2="178.78178"
       y1="135.02612"
       x1="175.8602"
       id="linearGradient12505-1"
       xlink:href="#linearGradient12499-9"
       inkscape:collect="always" />
    <inkscape:perspective
       id="perspective5056-5"
       inkscape:persp3d-origin="372.04724 : 350.78739 : 1"
       inkscape:vp_z="744.09448 : 526.18109 : 1"
       inkscape:vp_y="0 : 1000 : 0"
       inkscape:vp_x="363.49708 : 943.81603 : 1"
       sodipodi:type="inkscape:persp3d" />
    <linearGradient
       id="linearGradient12499"
       inkscape:collect="always">
      <stop
         id="stop12501"
         offset="0"
         style="stop-color:#ffd5d5;stop-opacity:1;" />
      <stop
         id="stop12503"
         offset="1"
         style="stop-color:#ffd5d5;stop-opacity:0;" />
    </linearGradient>
    <linearGradient
       inkscape:collect="always"
       xlink:href="#linearGradient12499"
       id="linearGradient4842"
       gradientUnits="userSpaceOnUse"
       gradientTransform="matrix(0.98323667,-0.18233388,0.18233388,0.98323667,74.736688,42.602255)"
       x1="175.8602"
       y1="135.02612"
       x2="180.12286"
       y2="104.20104" />
    <linearGradient
       inkscape:collect="always"
       xlink:href="#linearGradient12499-5"
       id="linearGradient4848"
       gradientUnits="userSpaceOnUse"
       gradientTransform="matrix(0.99586062,-0.09089341,0.09089341,0.99586062,90.234074,51.049697)"
       x1="184.3886"
       y1="140.77484"
       x2="178.00351"
       y2="106.50191" />
    <linearGradient
       inkscape:collect="always"
       xlink:href="#linearGradient12499-5-3"
       id="linearGradient4854"
       gradientUnits="userSpaceOnUse"
       gradientTransform="matrix(0.99850313,0.05469451,-0.05469451,0.99850313,114.06992,56.176849)"
       x1="186.74098"
       y1="139.74136"
       x2="168.63582"
       y2="87.2258" />
    <inkscape:perspective
       sodipodi:type="inkscape:persp3d"
       inkscape:vp_x="363.49708 : 943.81603 : 1"
       inkscape:vp_y="0 : 1000 : 0"
       inkscape:vp_z="744.09448 : 526.18109 : 1"
       inkscape:persp3d-origin="372.04724 : 350.78739 : 1"
       id="perspective5056-4" />
    <inkscape:perspective
       sodipodi:type="inkscape:persp3d"
       inkscape:vp_x="363.49708 : 943.81603 : 1"
       inkscape:vp_y="0 : 1000 : 0"
       inkscape:vp_z="744.09448 : 526.18109 : 1"
       inkscape:persp3d-origin="372.04724 : 350.78739 : 1"
       id="perspective5056-8-7" />
    <inkscape:perspective
       id="perspective5056-85"
       inkscape:persp3d-origin="372.04724 : 350.78739 : 1"
       inkscape:vp_z="744.09448 : 526.18109 : 1"
       inkscape:vp_y="0 : 1000 : 0"
       inkscape:vp_x="363.49708 : 943.81603 : 1"
       sodipodi:type="inkscape:persp3d" />
    <inkscape:perspective
       sodipodi:type="inkscape:persp3d"
       inkscape:vp_x="363.49708 : 943.81603 : 1"
       inkscape:vp_y="0 : 1000 : 0"
       inkscape:vp_z="744.09448 : 526.18109 : 1"
       inkscape:persp3d-origin="372.04724 : 350.78739 : 1"
       id="perspective5056-4-2" />
    <inkscape:perspective
       sodipodi:type="inkscape:persp3d"
       inkscape:vp_x="363.49708 : 943.81603 : 1"
       inkscape:vp_y="0 : 1000 : 0"
       inkscape:vp_z="744.09448 : 526.18109 : 1"
       inkscape:persp3d-origin="372.04724 : 350.78739 : 1"
       id="perspective5056-8-4" />
    <inkscape:perspective
       id="perspective5056-1"
       inkscape:persp3d-origin="372.04724 : 350.78739 : 1"
       inkscape:vp_z="744.09448 : 526.18109 : 1"
       inkscape:vp_y="0 : 1000 : 0"
       inkscape:vp_x="363.49708 : 943.81603 : 1"
       sodipodi:type="inkscape:persp3d" />
    <inkscape:perspective
       id="perspective5056-18"
       inkscape:persp3d-origin="372.04724 : 350.78739 : 1"
       inkscape:vp_z="744.09448 : 526.18109 : 1"
       inkscape:vp_y="0 : 1000 : 0"
       inkscape:vp_x="363.49708 : 943.81603 : 1"
       sodipodi:type="inkscape:persp3d" />
    <inkscape:perspective
       sodipodi:type="inkscape:persp3d"
       inkscape:vp_x="363.49708 : 943.81603 : 1"
       inkscape:vp_y="0 : 1000 : 0"
       inkscape:vp_z="744.09448 : 526.18109 : 1"
       inkscape:persp3d-origin="372.04724 : 350.78739 : 1"
       id="perspective5056-8-5" />
    <inkscape:perspective
       sodipodi:type="inkscape:persp3d"
       inkscape:vp_x="363.49708 : 943.81603 : 1"
       inkscape:vp_y="0 : 1000 : 0"
       inkscape:vp_z="744.09448 : 526.18109 : 1"
       inkscape:persp3d-origin="372.04724 : 350.78739 : 1"
       id="perspective5056-5-0" />
    <inkscape:perspective
       id="perspective5056-4-6"
       inkscape:persp3d-origin="372.04724 : 350.78739 : 1"
       inkscape:vp_z="744.09448 : 526.18109 : 1"
       inkscape:vp_y="0 : 1000 : 0"
       inkscape:vp_x="363.49708 : 943.81603 : 1"
       sodipodi:type="inkscape:persp3d" />
    <inkscape:perspective
       id="perspective5056-8-7-5"
       inkscape:persp3d-origin="372.04724 : 350.78739 : 1"
       inkscape:vp_z="744.09448 : 526.18109 : 1"
       inkscape:vp_y="0 : 1000 : 0"
       inkscape:vp_x="363.49708 : 943.81603 : 1"
       sodipodi:type="inkscape:persp3d" />
    <inkscape:perspective
       sodipodi:type="inkscape:persp3d"
       inkscape:vp_x="363.49708 : 943.81603 : 1"
       inkscape:vp_y="0 : 1000 : 0"
       inkscape:vp_z="744.09448 : 526.18109 : 1"
       inkscape:persp3d-origin="372.04724 : 350.78739 : 1"
       id="perspective5056-85-7" />
    <inkscape:perspective
       id="perspective5056-4-2-9"
       inkscape:persp3d-origin="372.04724 : 350.78739 : 1"
       inkscape:vp_z="744.09448 : 526.18109 : 1"
       inkscape:vp_y="0 : 1000 : 0"
       inkscape:vp_x="363.49708 : 943.81603 : 1"
       sodipodi:type="inkscape:persp3d" />
    <inkscape:perspective
       id="perspective5056-8-4-8"
       inkscape:persp3d-origin="372.04724 : 350.78739 : 1"
       inkscape:vp_z="744.09448 : 526.18109 : 1"
       inkscape:vp_y="0 : 1000 : 0"
       inkscape:vp_x="363.49708 : 943.81603 : 1"
       sodipodi:type="inkscape:persp3d" />
    <inkscape:perspective
       sodipodi:type="inkscape:persp3d"
       inkscape:vp_x="363.49708 : 943.81603 : 1"
       inkscape:vp_y="0 : 1000 : 0"
       inkscape:vp_z="744.09448 : 526.18109 : 1"
       inkscape:persp3d-origin="372.04724 : 350.78739 : 1"
       id="perspective5056-1-5" />
  </defs>
  <sodipodi:namedview
     id="base"
     pagecolor="#ffffff"
     bordercolor="#666666"
     borderopacity="1.0"
     inkscape:pageopacity="0.0"
     inkscape:pageshadow="2"
     inkscape:zoom="1.2537014"
     inkscape:cx="-205.28294"
     inkscape:cy="148.46256"
     inkscape:document-units="px"
     inkscape:current-layer="layer3"
     showgrid="false"
     inkscape:window-width="1607"
     inkscape:window-height="995"
     inkscape:window-x="239"
     inkscape:window-y="-7"
     inkscape:window-maximized="0"
     showguides="true"
     inkscape:guide-bbox="true"
     inkscape:snap-grids="false"
     inkscape:snap-to-guides="false"
     showborder="true"
     inkscape:showpageshadow="false"
     fit-margin-top="0"
     fit-margin-left="0"
     fit-margin-right="0"
     fit-margin-bottom="0"
     inkscape:snap-page="false"
     inkscape:snap-global="false" />
  <metadata
     id="metadata7">
    <rdf:RDF>
      <cc:Work
         rdf:about="">
        <dc:format>image/svg+xml</dc:format>
        <dc:type
           rdf:resource="http://purl.org/dc/dcmitype/StillImage" />
        <dc:title />
      </cc:Work>
    </rdf:RDF>
  </metadata>
  <g
     inkscape:groupmode="layer"
     id="layer2"
     inkscape:label="補助線"
     style="display:none"
     sodipodi:insensitive="true">
    <path
       style="fill:none;stroke:#0000ff;stroke-width:1px;stroke-linecap:butt;stroke-linejoin:miter;stroke-opacity:1"
       d="M 10,310 360,10"
       id="path3025"
       inkscape:connector-curvature="0"
       sodipodi:nodetypes="cc" />
    <path
       style="fill:none;stroke:#0000ff;stroke-width:1px;stroke-linecap:butt;stroke-linejoin:miter;stroke-opacity:1"
       d="M 10,10 360,310"
       id="path3027"
       inkscape:connector-curvature="0"
       sodipodi:nodetypes="cc" />
    <path
       style="display:inline;fill:none;stroke:#ff0000;stroke-width:1px;stroke-linecap:butt;stroke-linejoin:miter;stroke-opacity:1"
       d="M 10,0 V 320"
       id="path3006"
       inkscape:connector-curvature="0"
       sodipodi:nodetypes="cc" />
    <path
       style="display:inline;fill:none;stroke:#ff0000;stroke-width:1px;stroke-linecap:butt;stroke-linejoin:miter;stroke-opacity:1"
       d="M 360,0 V 320"
       id="path3010"
       inkscape:connector-curvature="0"
       sodipodi:nodetypes="cc" />
    <path
       style="display:inline;fill:none;stroke:#ff0000;stroke-width:1px;stroke-linecap:butt;stroke-linejoin:miter;stroke-opacity:1"
       d="M 0,9.9999681 370,10"
       id="path3016"
       inkscape:connector-curvature="0" />
    <path
       transform="translate(84.715796,27.711696)"
       style="display:inline;fill:none;stroke:#ff0000;stroke-width:1px;stroke-linecap:butt;stroke-linejoin:miter;stroke-opacity:1"
       d="M -84.715796,282.2883 H 285.2842"
       id="path3018"
       inkscape:connector-curvature="0"
       sodipodi:nodetypes="cc" />
  </g>
  <g
     inkscape:groupmode="layer"
     id="layer3"
     inkscape:label="豚"
     style="display:inline"
     sodipodi:insensitive="true">
    <ellipse
       style="opacity:1;fill:#000000;fill-opacity:1;stroke:none;stroke-width:2.01856399;stroke-linecap:round;stroke-linejoin:round;stroke-miterlimit:4;stroke-dasharray:none;stroke-dashoffset:0;stroke-opacity:1"
       id="path27143"
       cx="142.57071"
       cy="222.70065"
       rx="77.70105"
       ry="17.175447"
       transform="matrix(0.999825,0.01870724,-0.20880977,0.97795628,0,0)" />
    <circle
       r="18.188633"
       transform="rotate(20.897599)"
       cy="151.60368"
       cx="95.040504"
       id="path194-6-1-2-9"
       style="display:inline;opacity:1;fill:#fffefc;fill-opacity:1;stroke:#000000;stroke-width:2;stroke-linecap:round;stroke-linejoin:round;stroke-miterlimit:4;stroke-dasharray:none;stroke-opacity:1" />
    <path
       sodipodi:nodetypes="csc"
       inkscape:connector-curvature="0"
       id="path141-4-6-7-4-6-8-4-4"
       d="m 149.38909,200.3161 c 8.67077,4.14455 17.78126,13.9123 10.5234,17.71443 -7.73412,4.05162 -50.04528,0.65436 -44.08103,-15.17988"
       style="display:inline;fill:#fffefc;fill-opacity:1;stroke:#000000;stroke-width:2;stroke-linecap:round;stroke-linejoin:round;stroke-miterlimit:4;stroke-dasharray:none;stroke-opacity:1" />
    <path
       sodipodi:nodetypes="cccsccssc"
       inkscape:connector-curvature="0"
       id="path4488-3-5-3-1-7-7"
       d="m 155.46867,173.83969 c 28.61464,9.12818 9.68623,-28.61641 -2.9351,-32.47658 L 140.12001,90.817519 C 145.2677,76.880263 134.28726,49.679055 124.70976,41.255239 114.67017,32.42499 113.46224,59.339353 114.81208,79.744148 L 70.120649,114.55628 c -43.320238,24.17519 -61.7597092,89.53056 -4.942052,105.69948 18.966418,5.39738 49.360643,4.00817 72.109703,-3.80389 16.01862,-5.50082 31.52985,-25.68605 12.74985,-52.93469"
       style="display:inline;fill:#fffefc;fill-opacity:1;stroke:#000000;stroke-width:2;stroke-linecap:round;stroke-linejoin:round;stroke-miterlimit:4;stroke-dasharray:none;stroke-opacity:1" />
    <path
       style="display:inline;fill:#fffefc;fill-opacity:1;stroke:#000000;stroke-width:2;stroke-linecap:round;stroke-linejoin:round;stroke-miterlimit:4;stroke-dasharray:none;stroke-opacity:1"
       d="m 142.96292,151.87532 c 22.44627,-12.25689 21.43021,-29.72575 12.32762,-41.71303 -0.85964,-10.12037 -9.79872,-19.349628 -19.74922,-25.271463"
       id="path39801"
       inkscape:connector-curvature="0"
       sodipodi:nodetypes="ccc" />
    <path
       style="display:inline;fill:#fffefc;fill-opacity:1;stroke:#000000;stroke-width:2;stroke-linecap:round;stroke-linejoin:round;stroke-miterlimit:4;stroke-dasharray:none;stroke-opacity:1"
       d="M 117.98985,78.7353 C 98.224679,76.95967 62.488506,108.41124 70.091587,122.27399"
       id="path1257-1-3-0"
       inkscape:connector-curvature="0" />
    <path
       sodipodi:nodetypes="cccc"
       inkscape:connector-curvature="0"
       id="path69-5-8-0-9-6-9"
       d="m 147.89863,137.4566 c -10.99035,13.59384 -23.60485,13.23835 -24.12142,5.15465 2.65029,-0.23348 12.12077,-4.44034 20.62536,-10.25662 1.12324,3.17089 3.49606,5.10197 3.49606,5.10197 z"
       style="display:inline;fill:#800000;stroke:none;stroke-width:2;stroke-linecap:round;stroke-linejoin:round;stroke-miterlimit:4;stroke-dasharray:none;stroke-opacity:1" />
    <path
       sodipodi:nodetypes="csc"
       inkscape:connector-curvature="0"
       id="path4490-6-9-4-4-0-4"
       d="M 110.37852,88.540384 C 107.89099,69.523786 85.953095,50.108489 70.493088,48.806872 60.099259,47.931795 77.558085,92.70635 92.976815,97.58748"
       style="display:inline;fill:#fffefc;fill-opacity:1;stroke:#000000;stroke-width:2;stroke-linecap:round;stroke-linejoin:round;stroke-miterlimit:4;stroke-dasharray:none;stroke-opacity:1" />
    <path
       sodipodi:nodetypes="scs"
       inkscape:connector-curvature="0"
       id="path4490-6-9-5-4-3-0-9"
       d="M 71.768318,52.759256 C 63.411705,49.212689 82.421655,87.764152 94.357725,91.528744 104.65938,73.565508 86.424845,58.979529 71.768318,52.759256 Z"
       style="display:inline;fill:#ff8080;stroke:#000000;stroke-width:2;stroke-linecap:round;stroke-linejoin:round;stroke-miterlimit:4;stroke-dasharray:none;stroke-opacity:1" />
    <path
       sodipodi:nodetypes="ccc"
       inkscape:connector-curvature="0"
       id="path4480-0-0-3-1-6-5"
       d="m 121.57333,107.71383 c -2.40183,10.59505 6.65363,11.9614 12.75925,9.26524 -0.60695,-7.76297 -6.39204,-9.92671 -12.75925,-9.26524 z"
       style="display:inline;fill:#ff0000;stroke:#000000;stroke-width:2;stroke-linecap:round;stroke-linejoin:round;stroke-miterlimit:4;stroke-dasharray:none;stroke-opacity:1" />
    <path
       sodipodi:nodetypes="ccc"
       inkscape:connector-curvature="0"
       id="path4482-9-6-7-7-5-1"
       d="m 140.46134,124.78208 c 2.21084,1.62439 3.44102,2.46201 5.35481,3.63871 2.04093,-1.15912 3.72297,-3.70365 3.9665,-5.87507"
       style="display:inline;fill:none;stroke:#000000;stroke-width:2;stroke-linecap:round;stroke-linejoin:round;stroke-miterlimit:4;stroke-dasharray:none;stroke-opacity:1" />
    <path
       sodipodi:nodetypes="cc"
       inkscape:connector-curvature="0"
       id="path4484-8-4-7-4-7-7"
       d="m 145.81615,128.42079 -1.41358,3.93384"
       style="display:inline;fill:none;stroke:#000000;stroke-width:2;stroke-linecap:round;stroke-linejoin:round;stroke-miterlimit:4;stroke-dasharray:none;stroke-opacity:1" />
    <path
       sodipodi:nodetypes="cscsc"
       inkscape:connector-curvature="0"
       id="path4486-4-2-3-2-5-5"
       d="m 118.12132,130.60822 c -3.2678,2.75156 0.4961,9.58104 3.97601,11.38369 4.464,2.31245 13.55119,-4.26499 22.30524,-9.63728 1.64647,2.914 3.91095,6.79591 6.68758,6.2846 3.93391,-0.72442 6.94376,-7.09616 4.7563,-11.72167"
       style="display:inline;fill:none;stroke:#000000;stroke-width:2;stroke-linecap:round;stroke-linejoin:round;stroke-miterlimit:4;stroke-dasharray:none;stroke-opacity:1" />
    <path
       sodipodi:nodetypes="cc"
       inkscape:connector-curvature="0"
       id="path69-5-8-0-9-5"
       d="m 147.89863,137.4566 c -10.99035,13.59384 -23.60485,13.23835 -24.12142,5.15465"
       style="display:inline;fill:none;stroke:#000000;stroke-width:2;stroke-linecap:round;stroke-linejoin:round;stroke-miterlimit:4;stroke-dasharray:none;stroke-opacity:1" />
    <path
       sodipodi:nodetypes="ccc"
       inkscape:connector-curvature="0"
       id="path4480-0-0-5-3-9-1-1"
       d="m 148.93568,113.71367 c 2.47016,1.0557 4.19907,-5.11455 2.29866,-10.42109 -1.40352,2.89601 -2.78502,7.1903 -2.29866,10.42109 z"
       style="display:inline;fill:#ff0000;stroke:#000000;stroke-width:2;stroke-linecap:round;stroke-linejoin:round;stroke-miterlimit:4;stroke-dasharray:none;stroke-opacity:1" />
    <path
       sodipodi:nodetypes="cc"
       inkscape:connector-curvature="0"
       id="path137-3-3-6-0"
       d="m 127.83688,127.66456 -24.61402,-0.67469"
       style="display:inline;fill:none;stroke:#000000;stroke-width:2;stroke-linecap:round;stroke-linejoin:round;stroke-miterlimit:4;stroke-dasharray:none;stroke-opacity:1" />
    <path
       sodipodi:nodetypes="cc"
       inkscape:connector-curvature="0"
       id="path139-6-2-2-6"
       d="m 126.71587,131.87833 -24.92226,3.73085"
       style="display:inline;fill:none;stroke:#000000;stroke-width:2;stroke-linecap:round;stroke-linejoin:round;stroke-miterlimit:4;stroke-dasharray:none;stroke-opacity:1" />
    <path
       sodipodi:nodetypes="cc"
       inkscape:connector-curvature="0"
       id="path141-1-8-10-1"
       d="m 127.00223,135.61904 -23.85209,8.14019"
       style="display:inline;fill:none;stroke:#000000;stroke-width:2;stroke-linecap:round;stroke-linejoin:round;stroke-miterlimit:4;stroke-dasharray:none;stroke-opacity:1" />
    <path
       sodipodi:nodetypes="cc"
       inkscape:connector-curvature="0"
       id="path143-46-9-5-3"
       d="m 152.74763,123.57684 10.61132,-3.09273"
       style="display:inline;fill:none;stroke:#000000;stroke-width:2;stroke-linecap:round;stroke-linejoin:round;stroke-miterlimit:4;stroke-dasharray:none;stroke-opacity:1" />
    <path
       sodipodi:nodetypes="cc"
       inkscape:connector-curvature="0"
       id="path145-6-1-5-9"
       d="m 152.35309,126.85551 11.85391,3.38288"
       style="display:inline;fill:none;stroke:#000000;stroke-width:2;stroke-linecap:round;stroke-linejoin:round;stroke-miterlimit:4;stroke-dasharray:none;stroke-opacity:1" />
    <path
       sodipodi:nodetypes="cc"
       inkscape:connector-curvature="0"
       id="path147-7-7-6-8"
       d="m 150.77049,130.25205 11.32786,7.75438"
       style="display:inline;fill:none;stroke:#000000;stroke-width:2;stroke-linecap:round;stroke-linejoin:round;stroke-miterlimit:4;stroke-dasharray:none;stroke-opacity:1" />
    <path
       sodipodi:nodetypes="csc"
       inkscape:connector-curvature="0"
       id="path141-4-6-6-3-7-9"
       d="m 98.534039,187.40747 c -8.137994,3.13393 -16.194314,7.86238 -22.417634,5.68812 -6.629015,-2.31599 -14.62896,-20.15598 -0.70063,-36.71036"
       style="display:inline;fill:#fffefc;fill-opacity:1;stroke:#000000;stroke-width:2;stroke-linecap:round;stroke-linejoin:round;stroke-miterlimit:4;stroke-dasharray:none;stroke-opacity:1" />
    <path
       sodipodi:nodetypes="csc"
       inkscape:connector-curvature="0"
       id="path141-4-6-7-4-6-8-4"
       d="m 80.001655,208.65311 c 9.83949,4.5742 17.869464,14.08735 10.5234,17.71443 -9.99406,4.93451 -52.301337,1.50038 -48.31114,-19.692"
       style="display:inline;fill:#fffefc;fill-opacity:1;stroke:#000000;stroke-width:2;stroke-linecap:round;stroke-linejoin:round;stroke-miterlimit:4;stroke-dasharray:none;stroke-opacity:1" />
    <path
       style="display:inline;fill:#fefefe;fill-opacity:1;stroke:#000000;stroke-width:2;stroke-linecap:round;stroke-linejoin:round"
       d="m 134.70218,55.561785 c 0,18.608559 29.51421,34.503179 71.11838,40.823909 6.85598,1.04161 -5.57729,12.469746 -19.54803,18.628026 21.60723,-0.52356 53.22821,-15.709406 59.53568,-15.709406 61.36216,0 111.10601,-19.584195 111.10601,-43.742529 0,-24.15833 -49.74385,-43.742528 -111.10601,-43.742528 -61.36216,0 -111.10603,19.584198 -111.10603,43.742528 z"
       id="path23824"
       inkscape:connector-curvature="0"
       sodipodi:nodetypes="sscssss" />
    <text
       xml:space="preserve"
       style="font-style:normal;font-weight:normal;line-height:1.10000002;font-family:sans-serif;letter-spacing:0px;word-spacing:0px;writing-mode:lr-tb;display:inline;fill:#000000;fill-opacity:1;stroke:none;stroke-width:2"
       x="159.47557"
       y="51.171474"
       id="text13157"><tspan
         sodipodi:role="line"
         x="159.47557"
         y="51.171474"
         style="font-size:24px;line-height:1.10000002;font-family:sans-serif;stroke-width:2"
         id="tspan3347">そこにいるのは</tspan><tspan
         sodipodi:role="line"
         x="159.47557"
         y="77.571472"
         style="font-size:24px;line-height:1.10000002;font-family:sans-serif;stroke-width:2"
         id="tspan39834">分かっている！</tspan></text>
  </g>
  <g
     inkscape:groupmode="layer"
     id="layer8"
     inkscape:label="亀"
     style="display:inline"
     sodipodi:insensitive="true">
    <ellipse
       style="display:inline;opacity:1;fill:#000000;fill-opacity:1;stroke:none;stroke-width:3.29314709;stroke-linecap:round;stroke-linejoin:round;stroke-miterlimit:4;stroke-dasharray:none;stroke-dashoffset:0;stroke-opacity:1"
       id="path27143-4"
       cx="318.57895"
       cy="274.81522"
       rx="94.042953"
       ry="20.787746"
       transform="matrix(0.999825,0.01870724,-0.20880977,0.97795628,0,0)" />
    <g
       id="g39698">
      <path
         style="display:inline;fill:#93ac9d;stroke:#000000;stroke-width:2;stroke-linecap:round;stroke-linejoin:round;stroke-miterlimit:4;stroke-dasharray:none;stroke-opacity:1"
         d="m 328.6266,246.79224 c -9.99133,24.50602 -49.50308,47.82831 -88.98372,34.09833 -19.8813,-6.914 -51.26803,-28.81079 -51.11781,-53.7556 l 44.98618,-40.12873 z"
         id="path141-1-8-02-9"
         inkscape:connector-curvature="0"
         sodipodi:nodetypes="csccc" />
      <path
         style="display:inline;fill:#374837;stroke:#000000;stroke-width:2;stroke-linecap:round;stroke-linejoin:round;stroke-miterlimit:4;stroke-dasharray:none;stroke-opacity:1"
         d="m 270.08629,259.0426 c -10.33869,13.63845 -33.37413,14.46211 -51.26326,2.67249 -10.86591,-7.16105 -23.26276,-20.02562 -23.09504,-35.06967 l 26.73656,-22.64694 z"
         id="path141-1-8-8-3"
         inkscape:connector-curvature="0"
         sodipodi:nodetypes="csccc" />
      <path
         style="display:inline;fill:#d7f4e3;stroke:none;stroke-width:2;stroke-linecap:round;stroke-linejoin:round;stroke-miterlimit:4;stroke-dasharray:none;stroke-opacity:1"
         d="m 333.7682,214.61933 c 2.33479,4.40281 17.1377,8.3417 13.88374,12.31117 -13.55876,16.54017 -38.94756,40.91572 -57.56574,38.10945 -25.45669,-3.83703 -72.61747,-33.43904 -82.94205,-36.68267 -12.39232,-3.89326 -20.98248,0.60228 -23.8735,-1.74309 -2.43241,-1.97332 4.45097,-5.07604 6.32361,-7.67974 z"
         id="path137-3-3-0-6-7"
         inkscape:connector-curvature="0"
         sodipodi:nodetypes="csssscc" />
      <path
         style="display:inline;fill:#afe9c6;stroke:none;stroke-width:2;stroke-linecap:round;stroke-linejoin:round;stroke-miterlimit:4;stroke-dasharray:none;stroke-opacity:1"
         d="m 333.7682,214.61933 c 2.33479,4.40281 17.1377,8.3417 13.88374,12.31117 -13.55876,16.54017 -38.94756,40.91572 -57.56574,38.10945 -25.45669,-3.83703 -72.61747,-33.43904 -82.94205,-36.68267 -12.39232,-3.89326 -20.98248,0.60228 -23.8735,-1.74309 -2.43241,-1.97332 2.25747,-4.57752 6.32361,-7.67974 0.27787,0.89154 -5.24792,3.00094 -2.82433,4.64612 1.30457,0.88558 13.26647,-2.94949 22.42317,0.97685 25.53836,10.9507 66.29004,34.48334 81.60511,34.79336 23.41142,0.47392 51.92926,-30.3218 52.42969,-33.98749 0.47954,-3.51261 -4.17424,-5.46819 -9.4597,-10.74396 z"
         id="path137-3-3-0-6-7-1"
         inkscape:connector-curvature="0"
         sodipodi:nodetypes="csssscssssc" />
      <path
         style="display:inline;fill:#87deaa;stroke:none;stroke-width:2;stroke-linecap:round;stroke-linejoin:round;stroke-miterlimit:4;stroke-dasharray:none;stroke-opacity:1"
         d="m 198.81999,195.41178 c 11.57757,-11.54347 37.74042,-32.85372 63.51744,-35.47665 18.89006,-1.92214 38.66836,10.7932 52.42778,22.73475 6.10233,5.2961 12.72138,21.33823 19.00299,31.94945 -0.90439,3.24852 -7.65614,6.37621 -7.65614,6.37621 l -7.94876,-0.81739 c -7.73496,8.70345 -11.95038,10.4018 -23.79733,10.37666 -5.54672,4.94336 -11.57176,9.59918 -21.32041,12.01668 -12.73323,-3.44192 -25.0294,-11.64801 -37.29129,-20.22776 -11.75625,-2.46234 -22.79567,-4.13106 -34.63702,-2.28716 -5.45097,-2.82697 -7.99752,-1.23582 -11.52299,-1.12212 2.30589,-10.11616 4.99106,-19.30048 9.22573,-23.52267 z"
         id="path137-3-3-0-6-9"
         inkscape:connector-curvature="0"
         sodipodi:nodetypes="sssccccccccs" />
      <path
         style="display:inline;fill:none;stroke:#00aa44;stroke-width:2;stroke-linecap:round;stroke-linejoin:round;stroke-miterlimit:4;stroke-dasharray:none;stroke-opacity:1"
         d="m 301.41367,172.4492 -7.687,4.20418 -16.28024,0.95443 -12.62683,9.77183 -19.07245,6.2453 -9.99288,28.71879"
         id="path141-1-8-9-2"
         inkscape:connector-curvature="0"
         sodipodi:nodetypes="cccccc" />
      <path
         style="display:inline;fill:none;stroke:#00aa44;stroke-width:2;stroke-linecap:round;stroke-linejoin:round;stroke-miterlimit:4;stroke-dasharray:none;stroke-opacity:1"
         d="m 260.69181,160.23248 c -2.32849,1.63428 -4.03665,4.06514 -6.00861,6.05594 -5.03558,-0.91619 -10.0892,-0.28484 -15.15668,1.53673 -7.56778,4.96833 -12.15266,10.13134 -13.86186,15.48204 -7.279,0.80495 -13.75398,2.76854 -18.61846,6.63914 -7.09145,7.51278 -11.71204,18.11809 -14.34482,28.4276"
         id="path141-1-8-93-8"
         inkscape:connector-curvature="0"
         sodipodi:nodetypes="cccccc" />
      <path
         style="display:inline;fill:none;stroke:#00aa44;stroke-width:2;stroke-linecap:round;stroke-linejoin:round;stroke-miterlimit:4;stroke-dasharray:none;stroke-opacity:1"
         d="M 294.36597,230.55481 C 290.2203,213.22836 286.40919,195.72974 264.8196,187.37964"
         id="path158-2"
         inkscape:connector-curvature="0"
         sodipodi:nodetypes="cc" />
      <path
         style="display:inline;fill:none;stroke:#00aa44;stroke-width:2;stroke-linecap:round;stroke-linejoin:round;stroke-miterlimit:4;stroke-dasharray:none;stroke-opacity:1"
         d="m 245.74715,193.62494 c -3.51218,-5.07665 -7.7656,-9.77187 -20.08249,-10.31775"
         id="path141-1-8-1-1"
         inkscape:connector-curvature="0"
         sodipodi:nodetypes="cc" />
      <path
         style="display:inline;fill:none;stroke:#00aa44;stroke-width:2;stroke-linecap:round;stroke-linejoin:round;stroke-miterlimit:4;stroke-dasharray:none;stroke-opacity:1"
         d="m 254.6832,166.28842 c 9.95251,1.67639 16.0161,5.7717 22.76323,11.31939"
         id="path141-1-8-5-0"
         inkscape:connector-curvature="0"
         sodipodi:nodetypes="cc" />
      <path
         style="display:inline;fill:none;stroke:#00aa44;stroke-width:2;stroke-linecap:round;stroke-linejoin:round;stroke-miterlimit:4;stroke-dasharray:none;stroke-opacity:1"
         d="m 293.72667,176.65338 c 15.14061,6.68642 23.47585,24.29208 24.43663,43.52477"
         id="path141-1-8-0-0"
         inkscape:connector-curvature="0"
         sodipodi:nodetypes="cc" />
      <path
         style="display:inline;fill:none;stroke:#00aa44;stroke-width:2;stroke-linecap:round;stroke-linejoin:round;stroke-miterlimit:4;stroke-dasharray:none;stroke-opacity:1"
         d="m 333.7682,214.61933 c -0.88025,3.39094 -4.07742,5.17502 -7.65614,6.37621 l -7.94876,-0.81739 c -7.73496,8.70345 -11.95038,10.4018 -23.79733,10.37666 -5.54672,4.94336 -11.57176,9.59918 -21.32041,12.01668 -12.73323,-3.44192 -25.0294,-11.64801 -37.29129,-20.22776 -12.26319,-2.02871 -24.75817,-4.30713 -34.63702,-2.28716 -5.85367,-2.61411 -10.57166,-1.10693 -11.52299,-1.12212"
         id="path137-3-3-9-3"
         inkscape:connector-curvature="0"
         sodipodi:nodetypes="cccccccc" />
      <path
         style="display:inline;fill:#37c871;stroke:none;stroke-width:2;stroke-linecap:round;stroke-linejoin:round;stroke-miterlimit:4;stroke-dasharray:none;stroke-opacity:1"
         d="m 287.85364,228.50448 c -4.93469,3.41811 -8.70904,6.56369 -14.93538,8.35918 -10.24845,-2.69739 -19.46586,-10.09959 -30.37055,-17.03865 l 7.54304,-22.39481 14.48651,-4.98977 c 14.88586,5.34064 21.6633,24.13289 23.27638,36.06405 z"
         id="path158-2-9"
         inkscape:connector-curvature="0"
         sodipodi:nodetypes="cccccc" />
      <path
         style="display:inline;fill:#37c871;stroke:none;stroke-width:2;stroke-linecap:round;stroke-linejoin:round;stroke-miterlimit:4;stroke-dasharray:none;stroke-opacity:1"
         d="m 239.79373,194.5317 -7.97841,21.98715 c -9.15122,-1.87119 -18.42753,-2.8188 -29.73165,-1.21669 -1.28684,-0.29655 -2.37609,-0.75813 -3.91528,-0.92851 2.08392,-6.10806 6.04902,-13.27078 11.59314,-21.90838 3.14084,-2.29808 8.424,-4.38212 15.38682,-5.30741 7.26481,0.65552 12.69139,4.097 14.64538,7.37384 z"
         id="path158-2-9-8"
         inkscape:connector-curvature="0"
         sodipodi:nodetypes="ccccccc" />
      <path
         style="display:inline;fill:#37c871;stroke:none;stroke-width:2;stroke-linecap:round;stroke-linejoin:round;stroke-miterlimit:4;stroke-dasharray:none;stroke-opacity:1"
         d="m 298.21937,225.21608 c -3.18221,-14.31511 -5.92308,-28.9188 -24.41595,-38.5069 l 6.89629,-5.04789 12.25641,-0.41265 c 11.71808,6.5381 18.67484,20.73042 19.79824,36.80589 -2.87996,4.25706 -8.68244,7.47243 -14.53499,7.16155 z"
         id="path158-2-9-0"
         inkscape:connector-curvature="0"
         sodipodi:nodetypes="cccccc" />
      <path
         style="display:inline;fill:#37c871;stroke:none;stroke-width:2;stroke-linecap:round;stroke-linejoin:round;stroke-miterlimit:4;stroke-dasharray:none;stroke-opacity:1"
         d="m 332.11806,210.96351 c -1.49586,2.58377 -3.7252,3.97704 -6.16105,4.96283 l -3.26638,-0.56852 c -1.85447,-21.90519 -12.59576,-33.288 -20.07242,-38.28249 l 3.44836,-1.9386 c 11.54028,6.32796 19.26267,20.09887 26.05149,35.82678 z"
         id="path158-2-9-4"
         inkscape:connector-curvature="0"
         sodipodi:nodetypes="cccccc" />
      <path
         style="display:inline;fill:#37c871;stroke:none;stroke-width:2;stroke-linecap:round;stroke-linejoin:round;stroke-miterlimit:4;stroke-dasharray:none;stroke-opacity:1"
         d="m 297.66403,169.56618 -6.30111,3.31337 c -4.93305,-0.12666 -8.50236,-0.17622 -12.51689,0.23257 -5.09131,-4.16146 -9.77354,-6.48132 -15.92165,-8.70623 1.08446,-1.5811 3.14723,-3.63078 4.45498,-4.70079 12.9824,-0.49259 21.45591,4.93586 30.28467,9.86108 z"
         id="path158-2-9-6"
         inkscape:connector-curvature="0"
         sodipodi:nodetypes="cccccc" />
      <path
         style="display:inline;fill:#37c871;stroke:none;stroke-width:2;stroke-linecap:round;stroke-linejoin:round;stroke-miterlimit:4;stroke-dasharray:none;stroke-opacity:1"
         d="m 262.19589,183.35051 c -5.89948,1.7416 -10.20555,3.08519 -14.85427,4.83903 -4.39435,-5.07462 -10.05365,-7.89856 -15.36051,-8.25183 2.44813,-3.36461 5.47521,-6.49933 9.35917,-9.11433 8.03099,-3.26441 20.60528,0.19107 28.29289,6.82944 z"
         id="path158-2-9-9"
         inkscape:connector-curvature="0"
         sodipodi:nodetypes="cccccc" />
      <path
         style="display:inline;fill:#37c871;stroke:none;stroke-width:2;stroke-linecap:round;stroke-linejoin:round;stroke-miterlimit:4;stroke-dasharray:none;stroke-opacity:1"
         d="m 212.82907,182.50188 c 2.4278,-0.61999 6.42988,-1.95983 9.50738,-2.44199 1.00877,-2.70944 2.92884,-5.41123 6.79607,-8.34215 -5.76785,3.41288 -11.26563,6.97307 -16.30345,10.78414 z"
         id="path158-2-9-5"
         inkscape:connector-curvature="0"
         sodipodi:nodetypes="cccc" />
      <path
         style="display:inline;fill:none;stroke:#00aa44;stroke-width:2;stroke-linecap:round;stroke-linejoin:round;stroke-miterlimit:4;stroke-dasharray:none;stroke-opacity:1"
         d="m 205.2291,189.38954 1.8171,0.55679"
         id="path141-1-8-93-8-64"
         inkscape:connector-curvature="0"
         sodipodi:nodetypes="cc" />
      <path
         style="display:inline;fill:none;stroke:#000000;stroke-width:2;stroke-linecap:round;stroke-linejoin:round;stroke-miterlimit:4;stroke-dasharray:none;stroke-opacity:1"
         d="m 262.33743,159.93513 c 18.89006,-1.92214 38.79491,9.56418 52.42778,22.73475 7.53983,7.28414 13.99041,19.64618 19.00299,31.94945 3.22505,4.89425 17.1377,8.3417 13.88374,12.31117 -13.55876,16.54017 -38.94756,40.91572 -57.56574,38.10945 -25.45669,-3.83703 -72.61747,-33.43904 -82.94205,-36.68267 -12.39232,-3.89326 -20.98248,0.60228 -23.8735,-1.74309 -2.43241,-1.97332 4.45097,-5.07604 6.32361,-7.67974 2.30589,-10.11616 5.34073,-18.97667 9.22573,-23.52267 9.74452,-11.40247 37.74042,-32.85372 63.51744,-35.47665 z"
         id="path137-3-3-0-6"
         inkscape:connector-curvature="0"
         sodipodi:nodetypes="sscsssscss" />
    </g>
  </g>
  <g
     inkscape:groupmode="layer"
     id="layer7"
     inkscape:label="枠面"
     style="display:inline"
     sodipodi:insensitive="true">
    <path
       style="fill:#ffffff;stroke:none;display:inline"
       d="m 0,0 0,320 370,0 0,-320 -10,10 0,300 -350,0 0,-300 350,0 10,-10 z"
       id="path21072"
       inkscape:connector-curvature="0"
       sodipodi:nodetypes="ccccccccccc" />
  </g>
</svg>
