<?xml version="1.0" encoding="UTF-8" standalone="no"?>
<!-- Created with Inkscape (http://www.inkscape.org/) -->

<svg
   xmlns:dc="http://purl.org/dc/elements/1.1/"
   xmlns:cc="http://creativecommons.org/ns#"
   xmlns:rdf="http://www.w3.org/1999/02/22-rdf-syntax-ns#"
   xmlns:svg="http://www.w3.org/2000/svg"
   xmlns="http://www.w3.org/2000/svg"
   xmlns:xlink="http://www.w3.org/1999/xlink"
   xmlns:sodipodi="http://sodipodi.sourceforge.net/DTD/sodipodi-0.dtd"
   xmlns:inkscape="http://www.inkscape.org/namespaces/inkscape"
   width="370"
   height="320"
   id="svg2"
   version="1.1"
   inkscape:version="0.92.3 (2405546, 2018-03-11)"
   sodipodi:docname="[11]追放.svg"
   inkscape:export-filename="C:\Users\zhen-\Desktop\資料\臨時\因幡\第0次\展開\11.png"
   inkscape:export-xdpi="96"
   inkscape:export-ydpi="96"
   enable-background="new">
  <defs
     id="defs4">
    <inkscape:perspective
       sodipodi:type="inkscape:persp3d"
       inkscape:vp_x="363.49708 : 943.81603 : 1"
       inkscape:vp_y="0 : 1000 : 0"
       inkscape:vp_z="744.09448 : 526.18109 : 1"
       inkscape:persp3d-origin="372.04724 : 350.78739 : 1"
       id="perspective5056" />
    <inkscape:perspective
       id="perspective5056-8"
       inkscape:persp3d-origin="372.04724 : 350.78739 : 1"
       inkscape:vp_z="744.09448 : 526.18109 : 1"
       inkscape:vp_y="0 : 1000 : 0"
       inkscape:vp_x="363.49708 : 943.81603 : 1"
       sodipodi:type="inkscape:persp3d" />
    <linearGradient
       id="linearGradient12499-5-3"
       inkscape:collect="always">
      <stop
         id="stop12501-0-8"
         offset="0"
         style="stop-color:#ffd5d5;stop-opacity:1;" />
      <stop
         id="stop12503-9-9"
         offset="1"
         style="stop-color:#ffd5d5;stop-opacity:0;" />
    </linearGradient>
    <linearGradient
       id="linearGradient12499-5"
       inkscape:collect="always">
      <stop
         id="stop12501-0"
         offset="0"
         style="stop-color:#ffd5d5;stop-opacity:1;" />
      <stop
         id="stop12503-9"
         offset="1"
         style="stop-color:#ffd5d5;stop-opacity:0;" />
    </linearGradient>
    <linearGradient
       id="linearGradient12499-8"
       inkscape:collect="always">
      <stop
         id="stop12501-6"
         offset="0"
         style="stop-color:#ffd5d5;stop-opacity:1;" />
      <stop
         id="stop12503-0"
         offset="1"
         style="stop-color:#ffd5d5;stop-opacity:0;" />
    </linearGradient>
    <linearGradient
       gradientTransform="translate(0,-7)"
       gradientUnits="userSpaceOnUse"
       y2="78.526123"
       x2="178.78178"
       y1="135.02612"
       x1="175.8602"
       id="linearGradient12505-2"
       xlink:href="#linearGradient12499-8"
       inkscape:collect="always" />
    <linearGradient
       id="linearGradient12499-9"
       inkscape:collect="always">
      <stop
         id="stop12501-8"
         offset="0"
         style="stop-color:#ffd5d5;stop-opacity:1;" />
      <stop
         id="stop12503-6"
         offset="1"
         style="stop-color:#ffd5d5;stop-opacity:0;" />
    </linearGradient>
    <linearGradient
       gradientTransform="translate(0,-7)"
       gradientUnits="userSpaceOnUse"
       y2="78.526123"
       x2="178.78178"
       y1="135.02612"
       x1="175.8602"
       id="linearGradient12505-1"
       xlink:href="#linearGradient12499-9"
       inkscape:collect="always" />
    <inkscape:perspective
       id="perspective5056-5"
       inkscape:persp3d-origin="372.04724 : 350.78739 : 1"
       inkscape:vp_z="744.09448 : 526.18109 : 1"
       inkscape:vp_y="0 : 1000 : 0"
       inkscape:vp_x="363.49708 : 943.81603 : 1"
       sodipodi:type="inkscape:persp3d" />
    <linearGradient
       id="linearGradient12499"
       inkscape:collect="always">
      <stop
         id="stop12501"
         offset="0"
         style="stop-color:#ffd5d5;stop-opacity:1;" />
      <stop
         id="stop12503"
         offset="1"
         style="stop-color:#ffd5d5;stop-opacity:0;" />
    </linearGradient>
    <linearGradient
       inkscape:collect="always"
       xlink:href="#linearGradient12499"
       id="linearGradient4842"
       gradientUnits="userSpaceOnUse"
       gradientTransform="matrix(0.98323667,-0.18233388,0.18233388,0.98323667,74.736688,42.602255)"
       x1="175.8602"
       y1="135.02612"
       x2="180.12286"
       y2="104.20104" />
    <linearGradient
       inkscape:collect="always"
       xlink:href="#linearGradient12499-5"
       id="linearGradient4848"
       gradientUnits="userSpaceOnUse"
       gradientTransform="matrix(0.99586062,-0.09089341,0.09089341,0.99586062,90.234074,51.049697)"
       x1="184.3886"
       y1="140.77484"
       x2="178.00351"
       y2="106.50191" />
    <linearGradient
       inkscape:collect="always"
       xlink:href="#linearGradient12499-5-3"
       id="linearGradient4854"
       gradientUnits="userSpaceOnUse"
       gradientTransform="matrix(0.99850313,0.05469451,-0.05469451,0.99850313,114.06992,56.176849)"
       x1="186.74098"
       y1="139.74136"
       x2="168.63582"
       y2="87.2258" />
    <inkscape:perspective
       sodipodi:type="inkscape:persp3d"
       inkscape:vp_x="363.49708 : 943.81603 : 1"
       inkscape:vp_y="0 : 1000 : 0"
       inkscape:vp_z="744.09448 : 526.18109 : 1"
       inkscape:persp3d-origin="372.04724 : 350.78739 : 1"
       id="perspective5056-4" />
    <inkscape:perspective
       sodipodi:type="inkscape:persp3d"
       inkscape:vp_x="363.49708 : 943.81603 : 1"
       inkscape:vp_y="0 : 1000 : 0"
       inkscape:vp_z="744.09448 : 526.18109 : 1"
       inkscape:persp3d-origin="372.04724 : 350.78739 : 1"
       id="perspective5056-8-7" />
    <inkscape:perspective
       id="perspective5056-85"
       inkscape:persp3d-origin="372.04724 : 350.78739 : 1"
       inkscape:vp_z="744.09448 : 526.18109 : 1"
       inkscape:vp_y="0 : 1000 : 0"
       inkscape:vp_x="363.49708 : 943.81603 : 1"
       sodipodi:type="inkscape:persp3d" />
    <inkscape:perspective
       sodipodi:type="inkscape:persp3d"
       inkscape:vp_x="363.49708 : 943.81603 : 1"
       inkscape:vp_y="0 : 1000 : 0"
       inkscape:vp_z="744.09448 : 526.18109 : 1"
       inkscape:persp3d-origin="372.04724 : 350.78739 : 1"
       id="perspective5056-4-2" />
    <inkscape:perspective
       sodipodi:type="inkscape:persp3d"
       inkscape:vp_x="363.49708 : 943.81603 : 1"
       inkscape:vp_y="0 : 1000 : 0"
       inkscape:vp_z="744.09448 : 526.18109 : 1"
       inkscape:persp3d-origin="372.04724 : 350.78739 : 1"
       id="perspective5056-8-4" />
    <inkscape:perspective
       id="perspective5056-1"
       inkscape:persp3d-origin="372.04724 : 350.78739 : 1"
       inkscape:vp_z="744.09448 : 526.18109 : 1"
       inkscape:vp_y="0 : 1000 : 0"
       inkscape:vp_x="363.49708 : 943.81603 : 1"
       sodipodi:type="inkscape:persp3d" />
  </defs>
  <sodipodi:namedview
     id="base"
     pagecolor="#ffffff"
     bordercolor="#666666"
     borderopacity="1.0"
     inkscape:pageopacity="0.0"
     inkscape:pageshadow="2"
     inkscape:zoom="0.88388348"
     inkscape:cx="68.731275"
     inkscape:cy="190.17222"
     inkscape:document-units="px"
     inkscape:current-layer="g7642"
     showgrid="false"
     inkscape:window-width="1607"
     inkscape:window-height="982"
     inkscape:window-x="83"
     inkscape:window-y="2"
     inkscape:window-maximized="0"
     showguides="true"
     inkscape:guide-bbox="true"
     inkscape:snap-grids="false"
     inkscape:snap-to-guides="false"
     showborder="true"
     inkscape:showpageshadow="false"
     fit-margin-top="0"
     fit-margin-left="0"
     fit-margin-right="0"
     fit-margin-bottom="0"
     inkscape:snap-page="false"
     inkscape:snap-global="false" />
  <metadata
     id="metadata7">
    <rdf:RDF>
      <cc:Work
         rdf:about="">
        <dc:format>image/svg+xml</dc:format>
        <dc:type
           rdf:resource="http://purl.org/dc/dcmitype/StillImage" />
        <dc:title />
      </cc:Work>
    </rdf:RDF>
  </metadata>
  <g
     inkscape:groupmode="layer"
     id="layer2"
     inkscape:label="補助線"
     style="display:none"
     sodipodi:insensitive="true">
    <path
       style="fill:none;stroke:#0000ff;stroke-width:1px;stroke-linecap:butt;stroke-linejoin:miter;stroke-opacity:1"
       d="M 10,310 360,10"
       id="path3025"
       inkscape:connector-curvature="0"
       sodipodi:nodetypes="cc" />
    <path
       style="fill:none;stroke:#0000ff;stroke-width:1px;stroke-linecap:butt;stroke-linejoin:miter;stroke-opacity:1"
       d="M 10,10 360,310"
       id="path3027"
       inkscape:connector-curvature="0"
       sodipodi:nodetypes="cc" />
    <path
       style="display:inline;fill:none;stroke:#ff0000;stroke-width:1px;stroke-linecap:butt;stroke-linejoin:miter;stroke-opacity:1"
       d="M 10,0 V 320"
       id="path3006"
       inkscape:connector-curvature="0"
       sodipodi:nodetypes="cc" />
    <path
       style="display:inline;fill:none;stroke:#ff0000;stroke-width:1px;stroke-linecap:butt;stroke-linejoin:miter;stroke-opacity:1"
       d="M 360,0 V 320"
       id="path3010"
       inkscape:connector-curvature="0"
       sodipodi:nodetypes="cc" />
    <path
       style="display:inline;fill:none;stroke:#ff0000;stroke-width:1px;stroke-linecap:butt;stroke-linejoin:miter;stroke-opacity:1"
       d="M 0,9.9999681 370,10"
       id="path3016"
       inkscape:connector-curvature="0" />
    <path
       transform="translate(84.715796,27.711696)"
       style="display:inline;fill:none;stroke:#ff0000;stroke-width:1px;stroke-linecap:butt;stroke-linejoin:miter;stroke-opacity:1"
       d="M -84.715796,282.2883 H 285.2842"
       id="path3018"
       inkscape:connector-curvature="0"
       sodipodi:nodetypes="cc" />
  </g>
  <g
     sodipodi:insensitive="true"
     inkscape:groupmode="layer"
     id="g2809"
     inkscape:label="豚.old.01"
     style="display:none">
    <ellipse
       style="opacity:1;fill:#000000;fill-opacity:1;stroke:none;stroke-width:2;stroke-linecap:round;stroke-linejoin:round;stroke-miterlimit:4;stroke-dasharray:none;stroke-dashoffset:0;stroke-opacity:1"
       id="ellipse2743"
       cx="85.48439"
       cy="291.19684"
       rx="69.315056"
       ry="13.718604" />
    <g
       style="stroke-width:1.92876601"
       transform="matrix(1.0369324,0,0,1.0369324,-7.6577214,-13.184321)"
       id="g2807">
      <path
         sodipodi:nodetypes="ccccc"
         inkscape:connector-curvature="0"
         id="path2745"
         d="m 122.72617,139.44282 -85.629393,42.40449 108.864873,34.61324 -6.40199,-40.20104 z"
         style="display:inline;fill:#fffefc;fill-opacity:1;stroke:none;stroke-width:1.92876601;stroke-linecap:round;stroke-linejoin:round;stroke-opacity:1" />
      <path
         sodipodi:nodetypes="cc"
         inkscape:connector-curvature="0"
         id="path2747"
         d="M 99.141543,285.36783 C 85.603923,298.77073 50.759377,315.9993 56.091305,267.38727"
         style="display:inline;fill:#fffefc;fill-opacity:1;stroke:#000000;stroke-width:1.92876601;stroke-linecap:round;stroke-linejoin:round;stroke-opacity:1" />
      <circle
         r="18.871412"
         cy="256.12033"
         cx="37.038113"
         id="circle2749"
         style="display:inline;opacity:1;fill:#fffefc;fill-opacity:1;stroke:#000000;stroke-width:1.92876601;stroke-linecap:round;stroke-linejoin:round;stroke-miterlimit:4;stroke-dasharray:none;stroke-opacity:1" />
      <path
         sodipodi:nodetypes="csc"
         inkscape:connector-curvature="0"
         id="path2751"
         d="m 36.200211,180.87881 c -22.950248,46.40564 -9.909983,121.6554 62.29089,103.19873 50.257549,-12.84731 59.453369,-54.19934 42.570789,-74.2675"
         style="display:inline;fill:#fffefc;fill-opacity:1;stroke:#000000;stroke-width:1.92876601;stroke-linecap:round;stroke-linejoin:round;stroke-opacity:1" />
      <path
         sodipodi:nodetypes="csc"
         inkscape:connector-curvature="0"
         id="path2753"
         d="m 104.82201,128.95689 c -3.43947,-10.03478 -15.625427,-24.95066 -27.838584,-26.99339 -10.993727,-1.83878 -4.812398,21.70817 1.527135,29.59937"
         style="display:inline;fill:#fffefc;fill-opacity:1;stroke:#000000;stroke-width:1.92876601;stroke-linecap:round;stroke-linejoin:round;stroke-opacity:1" />
      <path
         sodipodi:nodetypes="csc"
         inkscape:connector-curvature="0"
         id="path2755"
         d="m 138.70552,173.22141 c 17.73384,5.3869 26.50343,32.93908 8.66854,46.50421 -13.30708,10.1213 -15.96752,-7.52109 -9.8696,-21.15849"
         style="display:inline;fill:#fffefc;fill-opacity:1;stroke:#000000;stroke-width:1.92876601;stroke-linecap:round;stroke-linejoin:round;stroke-opacity:1" />
      <path
         sodipodi:nodetypes="csc"
         inkscape:connector-curvature="0"
         id="path2757"
         d="m 131.93817,189.43039 c 5.31389,-11.98807 9.63839,-24.28389 5.95959,-35.10697 -2.40823,-7.08506 -8.51979,-13.51421 -15.71018,-15.53334"
         style="display:inline;fill:#fffefc;fill-opacity:1;stroke:#000000;stroke-width:1.92876601;stroke-linecap:round;stroke-linejoin:round;stroke-opacity:1" />
      <path
         sodipodi:nodetypes="csc"
         inkscape:connector-curvature="0"
         id="path2759"
         d="M 124.41555,140.23272 C 111.34519,123.23637 87.111843,122.4319 68.360472,132.38361 52.524412,140.78812 31.947121,171.66129 36.200211,183.58684"
         style="display:inline;fill:#fffefc;fill-opacity:1;stroke:#000000;stroke-width:1.92876601;stroke-linecap:round;stroke-linejoin:round;stroke-opacity:1" />
      <g
         style="stroke-width:1.92876601"
         id="g2769">
        <path
           style="display:inline;fill:#fffefc;fill-opacity:1;stroke:none;stroke-width:1.92876601;stroke-linecap:round;stroke-linejoin:round;stroke-opacity:1"
           d="M 87.073043,131.23428 C 77.158225,111.3185 36.397788,99.146486 29.678946,107.25234 c -3.602237,4.34587 3.443846,19.99803 13.285928,29.20246 6.128525,5.73147 10.572377,7.59464 15.284284,9.00738"
           id="path2761"
           inkscape:connector-curvature="0"
           sodipodi:nodetypes="cssc" />
        <path
           style="display:inline;fill:#ff8080;fill-opacity:1;stroke:none;stroke-width:1.92876601;stroke-linecap:round;stroke-linejoin:round;stroke-opacity:1"
           d="m 42.964874,136.4548 c 6.50889,5.12524 15.319894,8.01705 25.181049,4.70982 11.36243,-26.45384 -32.774789,-42.235745 -38.466979,-33.91228 -3.60224,4.34587 3.44384,19.99803 13.28593,29.20246 z"
           id="path2763"
           inkscape:connector-curvature="0"
           sodipodi:nodetypes="cccc" />
        <path
           style="display:inline;fill:none;fill-opacity:1;stroke:#000000;stroke-width:1.92876601;stroke-linecap:round;stroke-linejoin:round;stroke-opacity:1"
           d="M 87.073043,131.23428 C 77.158225,111.3185 36.397788,99.146487 29.678946,107.25234 c -3.602237,4.34587 3.443846,19.99803 13.285928,29.20246 6.128525,5.73147 10.572377,7.59464 15.284284,9.00738"
           id="path2765"
           inkscape:connector-curvature="0"
           sodipodi:nodetypes="cssc" />
        <path
           style="display:inline;fill:none;stroke:#000000;stroke-width:1.92876601;stroke-linecap:round;stroke-linejoin:round;stroke-opacity:1"
           d="m 42.964874,136.4548 c 6.508898,5.12524 15.319897,8.01705 25.181052,4.70982 11.36243,-26.45384 -32.774786,-42.235748 -38.46698,-33.91228"
           id="path2767"
           inkscape:connector-curvature="0"
           sodipodi:nodetypes="ccc" />
      </g>
      <path
         sodipodi:nodetypes="cc"
         inkscape:connector-curvature="0"
         id="path2771"
         d="m 49.992538,201.01932 c -17.691592,12.49387 -23.87375,69.6171 18.709427,40.11302"
         style="display:inline;fill:none;stroke:#000000;stroke-width:1.92876601;stroke-linecap:round;stroke-linejoin:round;stroke-opacity:1" />
      <path
         sodipodi:nodetypes="csc"
         inkscape:connector-curvature="0"
         id="path2773"
         d="m 123.92196,227.76306 c 10.51732,-5.75852 23.48458,-2.66176 27.50364,2.5697 6.13787,7.98944 3.54688,24.73303 -24.46623,39.24451"
         style="display:inline;fill:#fffefc;fill-opacity:1;stroke:#000000;stroke-width:1.92876601;stroke-linecap:round;stroke-linejoin:round;stroke-opacity:1" />
      <path
         sodipodi:nodetypes="ccc"
         inkscape:connector-curvature="0"
         id="path2775"
         d="m 97.604101,144.24948 c 4.102439,-2.27098 10.294739,-0.57874 12.237259,2.09056 -3.07367,4.29451 -9.45812,6.19418 -12.237259,-2.09056 z"
         style="display:inline;fill:#800000;stroke:#000000;stroke-width:1.92876601;stroke-linecap:round;stroke-linejoin:round;stroke-opacity:1" />
      <path
         sodipodi:nodetypes="ccccc"
         inkscape:connector-curvature="0"
         id="path2777"
         d="m 118.65921,149.54373 c 2.60573,0.69048 4.76898,2.33111 7.19098,2.83786 1.01807,-1.12513 2.05113,-3.28673 2.05733,-5.00072 -1.23221,-0.68774 -1.71808,1.36177 -2.64708,2.92845 -2.20041,-0.8594 -5.35825,-2.05291 -6.60123,-0.76559 z"
         style="display:inline;fill:#ffaaaa;stroke:none;stroke-width:1.92876601;stroke-linecap:round;stroke-linejoin:round;stroke-opacity:1" />
      <path
         sodipodi:nodetypes="cccc"
         inkscape:connector-curvature="0"
         id="path2779"
         d="m 133.36352,165.45695 c -9.99565,39.44906 -30.9814,32.76566 -30.24343,16.58593 l 23.53893,-25.90673 z"
         style="display:inline;fill:#800000;stroke:#000000;stroke-width:1.92876601;stroke-linecap:round;stroke-linejoin:round;stroke-opacity:1" />
      <path
         sodipodi:nodetypes="ccccc"
         inkscape:connector-curvature="0"
         id="path2781"
         d="m 126.37645,150.75769 -5.29393,10.33073 5.22709,-3.00663 4.58235,1.46616 z"
         style="display:inline;fill:#fffefc;fill-opacity:1;stroke:none;stroke-width:1.92876601;stroke-linecap:round;stroke-linejoin:round;stroke-opacity:1" />
      <path
         sodipodi:nodetypes="ccc"
         inkscape:connector-curvature="0"
         id="path2783"
         d="m 118.65921,149.54373 c 2.60573,0.69048 4.76898,2.33111 7.19098,2.83786 1.01807,-1.12513 2.05113,-3.28673 2.05733,-5.00072"
         style="display:inline;fill:none;stroke:#000000;stroke-width:1.92876601;stroke-linecap:round;stroke-linejoin:round;stroke-opacity:1" />
      <path
         sodipodi:nodetypes="cscsc"
         inkscape:connector-curvature="0"
         id="path2785"
         d="m 99.31541,162.5064 c -9.306116,10.60163 1.19622,22.35221 7.00806,19.39768 7.81547,-3.97311 16.4088,-20.55665 20.06297,-24.29652 3.31315,3.39826 5.24467,8.32494 7.84479,8.45432 2.69811,0.13426 4.88573,-7.44691 1.3719,-11.96061"
         style="display:inline;fill:#fffefc;fill-opacity:1;stroke:#000000;stroke-width:1.92876601;stroke-linecap:round;stroke-linejoin:round;stroke-opacity:1" />
      <path
         sodipodi:nodetypes="cc"
         inkscape:connector-curvature="0"
         id="path2787"
         d="m 104.40845,163.49472 c -7.065094,-0.15225 -14.614427,0.49653 -23.314341,2.38683"
         style="display:inline;fill:none;stroke:#000000;stroke-width:1.92876601;stroke-linecap:round;stroke-linejoin:round;stroke-opacity:1" />
      <path
         sodipodi:nodetypes="cc"
         inkscape:connector-curvature="0"
         id="path2789"
         d="m 105.97076,168.70277 c -8.783361,1.85945 -16.372053,3.97942 -24.582689,7.80324"
         style="display:inline;fill:none;stroke:#000000;stroke-width:1.92876601;stroke-linecap:round;stroke-linejoin:round;stroke-opacity:1" />
      <path
         sodipodi:nodetypes="cc"
         inkscape:connector-curvature="0"
         id="path2791"
         d="m 107.83623,173.54153 c -6.96,4.46561 -13.920006,9.27625 -20.880011,16.013"
         style="display:inline;fill:none;stroke:#000000;stroke-width:1.92876601;stroke-linecap:round;stroke-linejoin:round;stroke-opacity:1" />
      <path
         sodipodi:nodetypes="cc"
         inkscape:connector-curvature="0"
         id="path2793"
         d="m 132.8639,153.1447 c 4.34324,-2.88434 9.79431,-4.5192 13.02972,-5.08532"
         style="display:inline;fill:none;stroke:#000000;stroke-width:1.92876601;stroke-linecap:round;stroke-linejoin:round;stroke-opacity:1" />
      <path
         sodipodi:nodetypes="cc"
         inkscape:connector-curvature="0"
         id="path2795"
         d="m 133.85818,156.75253 c 4.94613,-0.57247 10.61934,-1.08883 15.61502,-0.46398"
         style="display:inline;fill:none;stroke:#000000;stroke-width:1.92876601;stroke-linecap:round;stroke-linejoin:round;stroke-opacity:1" />
      <path
         sodipodi:nodetypes="cc"
         inkscape:connector-curvature="0"
         id="path2797"
         d="m 134.36218,161.11286 c 4.26834,1.07078 7.92788,2.43988 13.10735,5.35746"
         style="display:inline;fill:none;stroke:#000000;stroke-width:1.92876601;stroke-linecap:round;stroke-linejoin:round;stroke-opacity:1" />
      <path
         sodipodi:nodetypes="cc"
         inkscape:connector-curvature="0"
         id="path2799"
         d="m 61.86439,151.51541 c 0.960388,4.38773 -0.721097,7.75916 -3.666683,10.15038"
         style="display:inline;fill:none;stroke:#000000;stroke-width:1.92876601;stroke-linecap:round;stroke-linejoin:round;stroke-opacity:1" />
      <path
         sodipodi:nodetypes="cc"
         inkscape:connector-curvature="0"
         id="path2801"
         d="m 66.564518,151.68949 c -0.511142,5.40065 2.308306,8.09573 5.324951,10.32335"
         style="display:inline;fill:none;stroke:#000000;stroke-width:1.92876601;stroke-linecap:round;stroke-linejoin:round;stroke-opacity:1" />
      <path
         sodipodi:nodetypes="cc"
         inkscape:connector-curvature="0"
         id="path2803"
         d="m 70.681946,166.48507 c -5.224589,-4.72484 -8.577018,-2.80646 -10.629835,-1.16474"
         style="display:inline;fill:none;stroke:#000000;stroke-width:1.92876601;stroke-linecap:round;stroke-linejoin:round;stroke-opacity:1" />
      <path
         sodipodi:nodetypes="cc"
         inkscape:connector-curvature="0"
         id="path2805"
         d="m 125.85019,152.38159 c 0.34373,1.16454 0.58652,3.5528 0.53625,5.22597"
         style="display:inline;fill:none;stroke:#000000;stroke-width:1.92876601;stroke-linecap:round;stroke-linejoin:round;stroke-opacity:1" />
    </g>
  </g>
  <g
     style="display:inline"
     inkscape:label="豚"
     id="g7642"
     inkscape:groupmode="layer"
     sodipodi:insensitive="true">
    <ellipse
       ry="13.718604"
       rx="69.315056"
       cy="291.19684"
       cx="85.48439"
       id="ellipse7536"
       style="opacity:1;fill:#000000;fill-opacity:1;stroke:none;stroke-width:2;stroke-linecap:round;stroke-linejoin:round;stroke-miterlimit:4;stroke-dasharray:none;stroke-dashoffset:0;stroke-opacity:1" />
    <path
       sodipodi:nodetypes="cccccc"
       inkscape:connector-curvature="0"
       id="path7602-3"
       d="m 118.80102,131.60846 -70.391891,42.97059 66.196791,69.21132 21.41887,-14.48039 -5.54432,-60.80794 z"
       style="display:inline;fill:#fffefc;fill-opacity:1;stroke:none;stroke-width:2;stroke-linecap:round;stroke-linejoin:round;stroke-opacity:1" />
    <path
       sodipodi:nodetypes="cc"
       inkscape:connector-curvature="0"
       id="path7538"
       d="M 95.145357,282.72283 C 81.10776,296.62073 44.976321,314.48559 50.50517,264.0782"
       style="display:inline;fill:#fffefc;fill-opacity:1;stroke:#000000;stroke-width:2;stroke-linecap:round;stroke-linejoin:round;stroke-opacity:1" />
    <circle
       r="19.568378"
       cy="252.39514"
       cx="30.748297"
       id="circle7540"
       style="display:inline;opacity:1;fill:#fffefc;fill-opacity:1;stroke:#000000;stroke-width:2;stroke-linecap:round;stroke-linejoin:round;stroke-miterlimit:4;stroke-dasharray:none;stroke-opacity:1" />
    <path
       sodipodi:nodetypes="cscsccc"
       inkscape:connector-curvature="0"
       id="path7542"
       d="m 46.917024,170.69726 c -26.526578,26.69989 -31.704331,65.10572 -16.627689,89.49934 10.915469,17.66096 55.447767,40.37707 86.641395,9.17038 16.50753,-12.06532 44.58833,-26.59054 35.82377,-36.07505 -4.64266,-5.02402 -23.87641,-6.80148 -34.78216,-0.83028 m 17.90252,-3.73225 c 3.9093,-7.43667 -0.13259,-25.31616 -8.69769,-33.91763"
       style="display:inline;fill:#fffefc;fill-opacity:1;stroke:#000000;stroke-width:2;stroke-linecap:round;stroke-linejoin:round;stroke-opacity:1" />
    <path
       sodipodi:nodetypes="cssc"
       inkscape:connector-curvature="0"
       id="path7544"
       d="M 88.542051,117.9196 C 84.586119,111.85756 81.073961,107.3765 76.229928,104.74939 69.697437,101.20656 56.250814,94.860472 50.504642,97.222444 39.814432,101.61667 62.008879,118.00906 68.582546,126.1917"
       style="display:inline;fill:#fffefc;fill-opacity:1;stroke:#000000;stroke-width:2;stroke-linecap:round;stroke-linejoin:round;stroke-opacity:1" />
    <path
       sodipodi:nodetypes="csc"
       inkscape:connector-curvature="0"
       id="path7546"
       d="m 130.14847,168.36545 c 18.63389,4.36036 30.64942,30.53551 14.13575,46.01584 -12.64795,11.85651 -17.7793,-4.95817 -11.45617,-19.09923"
       style="display:inline;fill:#fffefc;fill-opacity:1;stroke:#000000;stroke-width:2;stroke-linecap:round;stroke-linejoin:round;stroke-opacity:1" />
    <path
       sodipodi:nodetypes="ccc"
       inkscape:connector-curvature="0"
       id="path7548"
       d="m 124.25166,181.54233 c 3.90561,-7.09844 6.10523,-13.10784 7.2197,-19.52999 5.66063,-13.81802 -1.39639,-27.19278 -12.42882,-31.28073"
       style="display:inline;fill:#fffefc;fill-opacity:1;stroke:#000000;stroke-width:2;stroke-linecap:round;stroke-linejoin:round;stroke-opacity:1" />
    <path
       sodipodi:nodetypes="csscc"
       inkscape:connector-curvature="0"
       id="path7552"
       d="m 119.96016,131.70529 c -6.49936,-8.4516 -13.80762,-12.10524 -21.029659,-14.26118 -6.880574,-2.05401 -16.473418,-2.5869 -21.24149,-0.77911 -8.705613,3.30068 -17.609969,8.02904 -25.293667,23.9179 -17.162881,23.40865 -4.331933,36.14503 -3.632441,35.68599"
       style="display:inline;fill:#fffefc;fill-opacity:1;stroke:#000000;stroke-width:2;stroke-linecap:round;stroke-linejoin:round;stroke-opacity:1" />
    <path
       sodipodi:nodetypes="cscc"
       inkscape:connector-curvature="0"
       id="path7598"
       d="M 78.420872,119.66565 C 73.90345,113.56602 70.501965,110.0104 66.364709,107.13321 49.962768,95.726745 25.417458,90.501289 23.117339,98.029105 l 33.36886,45.075235"
       style="display:inline;fill:#fffefc;fill-opacity:1;stroke:#000000;stroke-width:2;stroke-linecap:round;stroke-linejoin:round;stroke-opacity:1" />
    <path
       sodipodi:nodetypes="scsss"
       inkscape:connector-curvature="0"
       id="path7600"
       d="m 36.893949,128.31008 c 4.599693,5.22108 9.823292,10.31107 19.59225,14.79426 2.968442,-6.91108 7.793632,-19.4558 5.097002,-25.36534 -8.006586,-17.54607 -36.375788,-27.247225 -38.465862,-19.709895 -1.87104,6.747435 4.754649,20.040215 13.77661,30.280975 z"
       style="display:inline;fill:#ff8080;stroke:#000000;stroke-width:2;stroke-linecap:round;stroke-linejoin:round;stroke-opacity:1" />
    <path
       sodipodi:nodetypes="cc"
       inkscape:connector-curvature="0"
       id="path7602"
       d="m 44.181161,195.25912 c -18.344985,12.9553 -24.755465,72.18823 19.400411,41.5945"
       style="display:inline;fill:none;stroke:#000000;stroke-width:2;stroke-linecap:round;stroke-linejoin:round;stroke-opacity:1" />
    <path
       sodipodi:nodetypes="sssss"
       inkscape:connector-curvature="0"
       id="path7606-8"
       d="m 77.952588,144.52036 c 3.387113,-4.68687 12.517593,-7.01273 16.584726,-7.13835 5.471196,-0.16899 10.301376,0.15638 13.319936,1.79023 4.12345,2.23191 -7.06757,1.17379 -12.049615,1.70181 -10.816587,1.14638 -21.777086,9.07337 -17.855047,3.64631 z"
       style="display:inline;fill:#ffd5d5;stroke:none;stroke-width:2;stroke-linecap:round;stroke-linejoin:round;stroke-opacity:1" />
    <path
       sodipodi:nodetypes="ccc"
       inkscape:connector-curvature="0"
       id="path7606"
       d="m 87.032454,137.50655 c 4.858616,-8.32254 15.714006,-4.71667 19.120846,1.5761 -3.62661,4.60284 -16.653474,8.16159 -19.120846,-1.5761 z"
       style="display:inline;fill:#000000;stroke:none;stroke-width:2;stroke-linecap:round;stroke-linejoin:round;stroke-opacity:1" />
    <path
       sodipodi:nodetypes="ccccc"
       inkscape:connector-curvature="0"
       id="path7608"
       d="m 115.38386,141.88242 c 2.70196,0.71598 6.74616,3.19607 8.90946,5.00537 1.05567,-1.16669 1.19622,-5.6993 0.68041,-7.24811 -1.27772,-0.71314 -0.39978,3.27253 -1.36309,4.89707 -1.95528,-1.5113 -6.9379,-3.9892 -8.22678,-2.65433 z"
       style="display:inline;fill:#ffaaaa;stroke:none;stroke-width:2;stroke-linecap:round;stroke-linejoin:round;stroke-opacity:1" />
    <path
       sodipodi:nodetypes="csccsc"
       inkscape:connector-curvature="0"
       id="path7616"
       d="m 108.16717,165.15819 c 3.10682,3.08641 7.16997,-3.85174 12.40087,-7.64915 5.55717,-4.03427 6.11488,-7.31571 3.72528,-10.62125 3.43552,3.52377 4.37953,8.10103 5.32993,10.51331 -3.5677,3.19506 -8.40527,17.38271 -11.86727,23.70987 -3.95469,7.22761 -10.45489,-8.22826 -9.58881,-15.95278 z"
       style="display:inline;fill:#800000;stroke:#000000;stroke-width:2;stroke-linecap:round;stroke-linejoin:round;stroke-opacity:1" />
    <path
       sodipodi:nodetypes="ccc"
       inkscape:connector-curvature="0"
       id="path7610"
       d="m 115.38386,141.88242 c 2.70196,0.71598 6.74616,3.19607 8.90946,5.00537 1.05567,-1.16669 1.19622,-5.6993 0.68041,-7.24811"
       style="display:inline;fill:none;stroke:#000000;stroke-width:2;stroke-linecap:round;stroke-linejoin:round;stroke-opacity:1" />
    <path
       sodipodi:nodetypes="cc"
       inkscape:connector-curvature="0"
       id="path7618"
       d="m 107.22177,149.03734 c -7.326017,-0.15787 -15.154165,0.51487 -24.175387,2.47498"
       style="display:inline;fill:none;stroke:#000000;stroke-width:2;stroke-linecap:round;stroke-linejoin:round;stroke-opacity:1" />
    <path
       sodipodi:nodetypes="cc"
       inkscape:connector-curvature="0"
       id="path7620"
       d="m 108.84178,154.43774 c -9.107744,1.92812 -16.976704,4.12639 -25.490579,8.09143"
       style="display:inline;fill:none;stroke:#000000;stroke-width:2;stroke-linecap:round;stroke-linejoin:round;stroke-opacity:1" />
    <path
       sodipodi:nodetypes="cc"
       inkscape:connector-curvature="0"
       id="path7622"
       d="m 110.77615,159.4552 c -7.21705,4.63054 -14.434101,9.61885 -21.651156,16.6044"
       style="display:inline;fill:none;stroke:#000000;stroke-width:2;stroke-linecap:round;stroke-linejoin:round;stroke-opacity:1" />
    <path
       sodipodi:nodetypes="cc"
       inkscape:connector-curvature="0"
       id="path7624"
       d="m 130.11316,145.61638 c 4.50365,-2.99087 10.15604,-4.6861 13.51094,-5.27313"
       style="display:inline;fill:none;stroke:#000000;stroke-width:2;stroke-linecap:round;stroke-linejoin:round;stroke-opacity:1" />
    <path
       sodipodi:nodetypes="cc"
       inkscape:connector-curvature="0"
       id="path7626"
       d="m 131.14416,149.35746 c 5.1288,-0.59362 11.01154,-1.12905 16.19172,-0.48112"
       style="display:inline;fill:none;stroke:#000000;stroke-width:2;stroke-linecap:round;stroke-linejoin:round;stroke-opacity:1" />
    <path
       sodipodi:nodetypes="cc"
       inkscape:connector-curvature="0"
       id="path7628"
       d="m 131.66678,153.87882 c 4.42598,1.11033 8.22067,2.52999 13.59143,5.55533"
       style="display:inline;fill:none;stroke:#000000;stroke-width:2;stroke-linecap:round;stroke-linejoin:round;stroke-opacity:1" />
    <path
       sodipodi:nodetypes="cc"
       inkscape:connector-curvature="0"
       id="path7630"
       d="m 58.647273,148.73853 c 0.995857,4.54978 -0.797729,7.44572 -3.852102,9.92525"
       style="display:inline;fill:none;stroke:#000000;stroke-width:2;stroke-linecap:round;stroke-linejoin:round;stroke-opacity:1" />
    <path
       sodipodi:nodetypes="cc"
       inkscape:connector-curvature="0"
       id="path7632"
       d="m 63.470988,148.31904 c -0.53002,5.6001 2.393557,8.39472 5.521614,10.70461"
       style="display:inline;fill:none;stroke:#000000;stroke-width:2;stroke-linecap:round;stroke-linejoin:round;stroke-opacity:1" />
    <path
       sodipodi:nodetypes="cc"
       inkscape:connector-curvature="0"
       id="path7634"
       d="m 66.940483,163.26105 c -5.417546,-4.89934 -8.093788,-2.51011 -10.222421,-0.80775"
       style="display:inline;fill:none;stroke:#000000;stroke-width:2;stroke-linecap:round;stroke-linejoin:round;stroke-opacity:1" />
    <path
       style="display:inline;fill:#ff0000;fill-opacity:1;stroke:none;stroke-width:1.5;stroke-linecap:round;stroke-linejoin:round;stroke-opacity:1"
       d="m 185.50973,222.7251 c -11.24018,5.35821 -17.56351,21.60034 -2.96691,30.57618 -9.90963,-4.4649 -18.41842,-8.45786 -25.08171,2.5381 8.66153,-16.69207 -0.64675,-31.42117 -17.97084,-36.5455 19.16453,5.42473 24.60572,3.39976 30.85538,-10.13325 -3.24152,12.46538 -0.79214,17.36943 15.16408,13.56447 z"
       id="path11739"
       inkscape:connector-curvature="0"
       sodipodi:nodetypes="cccccc" />
  </g>
  <g
     inkscape:groupmode="layer"
     id="layer5"
     inkscape:label="亀"
     style="display:inline"
     sodipodi:insensitive="true">
    <g
       transform="matrix(-0.37142642,0.85194096,-0.85194096,-0.37142642,589.42323,-51.690801)"
       id="g7596"
       style="display:inline;stroke-width:2.15195513;stroke-linecap:round;stroke-linejoin:round">
      <path
         sodipodi:nodetypes="csccc"
         inkscape:connector-curvature="0"
         id="path7554"
         d="m 328.6266,246.79224 c -9.99133,24.50602 -49.50308,47.82831 -88.98372,34.09833 -19.8813,-6.914 -51.26803,-28.81079 -51.11781,-53.7556 l 44.98618,-40.12873 z"
         style="display:inline;fill:#93ac9d;stroke:#000000;stroke-width:2.15195513;stroke-linecap:round;stroke-linejoin:round;stroke-miterlimit:4;stroke-dasharray:none;stroke-opacity:1" />
      <path
         sodipodi:nodetypes="csccc"
         inkscape:connector-curvature="0"
         id="path7556"
         d="m 270.08629,259.0426 c -10.33869,13.63845 -33.37413,14.46211 -51.26326,2.67249 -10.86591,-7.16105 -23.26276,-20.02562 -23.09504,-35.06967 l 26.73656,-22.64694 z"
         style="display:inline;fill:#374837;stroke:#000000;stroke-width:2.15195513;stroke-linecap:round;stroke-linejoin:round;stroke-miterlimit:4;stroke-dasharray:none;stroke-opacity:1" />
      <path
         sodipodi:nodetypes="csssscc"
         inkscape:connector-curvature="0"
         id="path7558"
         d="m 333.7682,214.61933 c 2.33479,4.40281 17.1377,8.3417 13.88374,12.31117 -13.55876,16.54017 -38.94756,40.91572 -57.56574,38.10945 -25.45669,-3.83703 -72.61747,-33.43904 -82.94205,-36.68267 -12.39232,-3.89326 -20.98248,0.60228 -23.8735,-1.74309 -2.43241,-1.97332 4.45097,-5.07604 6.32361,-7.67974 z"
         style="display:inline;fill:#d7f4e3;stroke:none;stroke-width:2.15195513;stroke-linecap:round;stroke-linejoin:round;stroke-miterlimit:4;stroke-dasharray:none;stroke-opacity:1" />
      <path
         sodipodi:nodetypes="csssscssssc"
         inkscape:connector-curvature="0"
         id="path7560"
         d="m 333.7682,214.61933 c 2.33479,4.40281 17.1377,8.3417 13.88374,12.31117 -13.55876,16.54017 -38.94756,40.91572 -57.56574,38.10945 -25.45669,-3.83703 -72.61747,-33.43904 -82.94205,-36.68267 -12.39232,-3.89326 -20.98248,0.60228 -23.8735,-1.74309 -2.43241,-1.97332 2.25747,-4.57752 6.32361,-7.67974 0.27787,0.89154 -5.24792,3.00094 -2.82433,4.64612 1.30457,0.88558 13.26647,-2.94949 22.42317,0.97685 25.53836,10.9507 66.29004,34.48334 81.60511,34.79336 23.41142,0.47392 51.92926,-30.3218 52.42969,-33.98749 0.47954,-3.51261 -4.17424,-5.46819 -9.4597,-10.74396 z"
         style="display:inline;fill:#afe9c6;stroke:none;stroke-width:2.15195513;stroke-linecap:round;stroke-linejoin:round;stroke-miterlimit:4;stroke-dasharray:none;stroke-opacity:1" />
      <path
         sodipodi:nodetypes="sssccccccccs"
         inkscape:connector-curvature="0"
         id="path7562"
         d="m 198.81999,195.41178 c 11.57757,-11.54347 37.74042,-32.85372 63.51744,-35.47665 18.89006,-1.92214 38.66836,10.7932 52.42778,22.73475 6.10233,5.2961 12.72138,21.33823 19.00299,31.94945 -0.90439,3.24852 -7.65614,6.37621 -7.65614,6.37621 l -7.94876,-0.81739 c -7.73496,8.70345 -11.95038,10.4018 -23.79733,10.37666 -5.54672,4.94336 -11.57176,9.59918 -21.32041,12.01668 -12.73323,-3.44192 -25.0294,-11.64801 -37.29129,-20.22776 -11.75625,-2.46234 -22.79567,-4.13106 -34.63702,-2.28716 -5.45097,-2.82697 -7.99752,-1.23582 -11.52299,-1.12212 2.30589,-10.11616 4.99106,-19.30048 9.22573,-23.52267 z"
         style="display:inline;fill:#87deaa;stroke:none;stroke-width:2.15195513;stroke-linecap:round;stroke-linejoin:round;stroke-miterlimit:4;stroke-dasharray:none;stroke-opacity:1" />
      <path
         sodipodi:nodetypes="cccccc"
         inkscape:connector-curvature="0"
         id="path7564"
         d="m 301.41367,172.4492 -7.687,4.20418 -16.28024,0.95443 -12.62683,9.77183 -19.07245,6.2453 -9.99288,28.71879"
         style="display:inline;fill:none;stroke:#00aa44;stroke-width:2.15195513;stroke-linecap:round;stroke-linejoin:round;stroke-miterlimit:4;stroke-dasharray:none;stroke-opacity:1" />
      <path
         sodipodi:nodetypes="cccccc"
         inkscape:connector-curvature="0"
         id="path7566"
         d="m 260.69181,160.23248 c -2.32849,1.63428 -4.03665,4.06514 -6.00861,6.05594 -5.03558,-0.91619 -10.0892,-0.28484 -15.15668,1.53673 -7.56778,4.96833 -12.15266,10.13134 -13.86186,15.48204 -7.279,0.80495 -13.75398,2.76854 -18.61846,6.63914 -7.09145,7.51278 -11.71204,18.11809 -14.34482,28.4276"
         style="display:inline;fill:none;stroke:#00aa44;stroke-width:2.15195513;stroke-linecap:round;stroke-linejoin:round;stroke-miterlimit:4;stroke-dasharray:none;stroke-opacity:1" />
      <path
         sodipodi:nodetypes="cc"
         inkscape:connector-curvature="0"
         id="path7568"
         d="M 294.36597,230.55481 C 290.2203,213.22836 286.40919,195.72974 264.8196,187.37964"
         style="display:inline;fill:none;stroke:#00aa44;stroke-width:2.15195513;stroke-linecap:round;stroke-linejoin:round;stroke-miterlimit:4;stroke-dasharray:none;stroke-opacity:1" />
      <path
         sodipodi:nodetypes="cc"
         inkscape:connector-curvature="0"
         id="path7570"
         d="m 245.74715,193.62494 c -3.51218,-5.07665 -7.7656,-9.77187 -20.08249,-10.31775"
         style="display:inline;fill:none;stroke:#00aa44;stroke-width:2.15195513;stroke-linecap:round;stroke-linejoin:round;stroke-miterlimit:4;stroke-dasharray:none;stroke-opacity:1" />
      <path
         sodipodi:nodetypes="cc"
         inkscape:connector-curvature="0"
         id="path7572"
         d="m 254.6832,166.28842 c 9.95251,1.67639 16.0161,5.7717 22.76323,11.31939"
         style="display:inline;fill:none;stroke:#00aa44;stroke-width:2.15195513;stroke-linecap:round;stroke-linejoin:round;stroke-miterlimit:4;stroke-dasharray:none;stroke-opacity:1" />
      <path
         sodipodi:nodetypes="cc"
         inkscape:connector-curvature="0"
         id="path7574"
         d="m 293.72667,176.65338 c 15.14061,6.68642 23.47585,24.29208 24.43663,43.52477"
         style="display:inline;fill:none;stroke:#00aa44;stroke-width:2.15195513;stroke-linecap:round;stroke-linejoin:round;stroke-miterlimit:4;stroke-dasharray:none;stroke-opacity:1" />
      <path
         sodipodi:nodetypes="cccccccc"
         inkscape:connector-curvature="0"
         id="path7576"
         d="m 333.7682,214.61933 c -0.88025,3.39094 -4.07742,5.17502 -7.65614,6.37621 l -7.94876,-0.81739 c -7.73496,8.70345 -11.95038,10.4018 -23.79733,10.37666 -5.54672,4.94336 -11.57176,9.59918 -21.32041,12.01668 -12.73323,-3.44192 -25.0294,-11.64801 -37.29129,-20.22776 -12.26319,-2.02871 -24.75817,-4.30713 -34.63702,-2.28716 -5.85367,-2.61411 -10.57166,-1.10693 -11.52299,-1.12212"
         style="display:inline;fill:none;stroke:#00aa44;stroke-width:2.15195513;stroke-linecap:round;stroke-linejoin:round;stroke-miterlimit:4;stroke-dasharray:none;stroke-opacity:1" />
      <path
         sodipodi:nodetypes="cccccc"
         inkscape:connector-curvature="0"
         id="path7578"
         d="m 287.85364,228.50448 c -4.93469,3.41811 -8.70904,6.56369 -14.93538,8.35918 -10.24845,-2.69739 -19.46586,-10.09959 -30.37055,-17.03865 l 7.54304,-22.39481 14.48651,-4.98977 c 14.88586,5.34064 21.6633,24.13289 23.27638,36.06405 z"
         style="display:inline;fill:#37c871;stroke:none;stroke-width:2.15195513;stroke-linecap:round;stroke-linejoin:round;stroke-miterlimit:4;stroke-dasharray:none;stroke-opacity:1" />
      <path
         sodipodi:nodetypes="ccccccc"
         inkscape:connector-curvature="0"
         id="path7580"
         d="m 239.79373,194.5317 -7.97841,21.98715 c -9.15122,-1.87119 -18.42753,-2.8188 -29.73165,-1.21669 -1.28684,-0.29655 -2.37609,-0.75813 -3.91528,-0.92851 2.08392,-6.10806 6.04902,-13.27078 11.59314,-21.90838 3.14084,-2.29808 8.424,-4.38212 15.38682,-5.30741 7.26481,0.65552 12.69139,4.097 14.64538,7.37384 z"
         style="display:inline;fill:#37c871;stroke:none;stroke-width:2.15195513;stroke-linecap:round;stroke-linejoin:round;stroke-miterlimit:4;stroke-dasharray:none;stroke-opacity:1" />
      <path
         sodipodi:nodetypes="cccccc"
         inkscape:connector-curvature="0"
         id="path7582"
         d="m 298.21937,225.21608 c -3.18221,-14.31511 -5.92308,-28.9188 -24.41595,-38.5069 l 6.89629,-5.04789 12.25641,-0.41265 c 11.71808,6.5381 18.67484,20.73042 19.79824,36.80589 -2.87996,4.25706 -8.68244,7.47243 -14.53499,7.16155 z"
         style="display:inline;fill:#37c871;stroke:none;stroke-width:2.15195513;stroke-linecap:round;stroke-linejoin:round;stroke-miterlimit:4;stroke-dasharray:none;stroke-opacity:1" />
      <path
         sodipodi:nodetypes="cccccc"
         inkscape:connector-curvature="0"
         id="path7584"
         d="m 332.11806,210.96351 c -1.49586,2.58377 -3.7252,3.97704 -6.16105,4.96283 l -3.26638,-0.56852 c -1.85447,-21.90519 -12.59576,-33.288 -20.07242,-38.28249 l 3.44836,-1.9386 c 11.54028,6.32796 19.26267,20.09887 26.05149,35.82678 z"
         style="display:inline;fill:#37c871;stroke:none;stroke-width:2.15195513;stroke-linecap:round;stroke-linejoin:round;stroke-miterlimit:4;stroke-dasharray:none;stroke-opacity:1" />
      <path
         sodipodi:nodetypes="cccccc"
         inkscape:connector-curvature="0"
         id="path7586"
         d="m 297.66403,169.56618 -6.30111,3.31337 c -4.93305,-0.12666 -8.50236,-0.17622 -12.51689,0.23257 -5.09131,-4.16146 -9.77354,-6.48132 -15.92165,-8.70623 1.08446,-1.5811 3.14723,-3.63078 4.45498,-4.70079 12.9824,-0.49259 21.45591,4.93586 30.28467,9.86108 z"
         style="display:inline;fill:#37c871;stroke:none;stroke-width:2.15195513;stroke-linecap:round;stroke-linejoin:round;stroke-miterlimit:4;stroke-dasharray:none;stroke-opacity:1" />
      <path
         sodipodi:nodetypes="cccccc"
         inkscape:connector-curvature="0"
         id="path7588"
         d="m 262.19589,183.35051 c -5.89948,1.7416 -10.20555,3.08519 -14.85427,4.83903 -4.39435,-5.07462 -10.05365,-7.89856 -15.36051,-8.25183 2.44813,-3.36461 5.47521,-6.49933 9.35917,-9.11433 8.03099,-3.26441 20.60528,0.19107 28.29289,6.82944 z"
         style="display:inline;fill:#37c871;stroke:none;stroke-width:2.15195513;stroke-linecap:round;stroke-linejoin:round;stroke-miterlimit:4;stroke-dasharray:none;stroke-opacity:1" />
      <path
         sodipodi:nodetypes="cccc"
         inkscape:connector-curvature="0"
         id="path7590"
         d="m 212.82907,182.50188 c 2.4278,-0.61999 6.42988,-1.95983 9.50738,-2.44199 1.00877,-2.70944 2.92884,-5.41123 6.79607,-8.34215 -5.76785,3.41288 -11.26563,6.97307 -16.30345,10.78414 z"
         style="display:inline;fill:#37c871;stroke:none;stroke-width:2.15195513;stroke-linecap:round;stroke-linejoin:round;stroke-miterlimit:4;stroke-dasharray:none;stroke-opacity:1" />
      <path
         sodipodi:nodetypes="cc"
         inkscape:connector-curvature="0"
         id="path7592"
         d="m 205.2291,189.38954 1.8171,0.55679"
         style="display:inline;fill:none;stroke:#00aa44;stroke-width:2.15195513;stroke-linecap:round;stroke-linejoin:round;stroke-miterlimit:4;stroke-dasharray:none;stroke-opacity:1" />
      <path
         sodipodi:nodetypes="sscsssscss"
         inkscape:connector-curvature="0"
         id="path7594"
         d="m 262.33743,159.93513 c 18.89006,-1.92214 38.79491,9.56418 52.42778,22.73475 7.53983,7.28414 13.99041,19.64618 19.00299,31.94945 3.22505,4.89425 17.1377,8.3417 13.88374,12.31117 -13.55876,16.54017 -38.94756,40.91572 -57.56574,38.10945 -25.45669,-3.83703 -72.61747,-33.43904 -82.94205,-36.68267 -12.39232,-3.89326 -20.98248,0.60228 -23.8735,-1.74309 -2.43241,-1.97332 4.45097,-5.07604 6.32361,-7.67974 2.30589,-10.11616 5.34073,-18.97667 9.22573,-23.52267 9.74452,-11.40247 37.74042,-32.85372 63.51744,-35.47665 z"
         style="display:inline;fill:none;stroke:#000000;stroke-width:2.15195513;stroke-linecap:round;stroke-linejoin:round;stroke-miterlimit:4;stroke-dasharray:none;stroke-opacity:1" />
    </g>
    <path
       sodipodi:nodetypes="cc"
       inkscape:connector-curvature="0"
       id="path7636"
       d="m 159.81787,204.82457 75.1603,-67.30538"
       style="display:inline;fill:none;stroke:#000000;stroke-width:2;stroke-linecap:round;stroke-linejoin:round;stroke-opacity:1" />
    <path
       sodipodi:nodetypes="cc"
       inkscape:connector-curvature="0"
       id="path7638"
       d="m 181.84763,203.76206 58.67813,-52.54573"
       style="display:inline;fill:none;stroke:#000000;stroke-width:2;stroke-linecap:round;stroke-linejoin:round;stroke-opacity:1" />
    <path
       sodipodi:nodetypes="cc"
       inkscape:connector-curvature="0"
       id="path7640"
       d="M 188.72086,217.08457 234.9097,175.72288"
       style="display:inline;fill:none;stroke:#000000;stroke-width:2;stroke-linecap:round;stroke-linejoin:round;stroke-opacity:1" />
  </g>
  <g
     inkscape:groupmode="layer"
     id="layer7"
     inkscape:label="枠面"
     style="display:inline"
     sodipodi:insensitive="true">
    <path
       style="fill:#ffffff;stroke:none;display:inline"
       d="m 0,0 0,320 370,0 0,-320 -10,10 0,300 -350,0 0,-300 350,0 10,-10 z"
       id="path21072"
       inkscape:connector-curvature="0"
       sodipodi:nodetypes="ccccccccccc" />
  </g>
</svg>
