<?xml version="1.0" encoding="UTF-8" standalone="no"?>
<!-- Created with Inkscape (http://www.inkscape.org/) -->

<svg
   xmlns:dc="http://purl.org/dc/elements/1.1/"
   xmlns:cc="http://creativecommons.org/ns#"
   xmlns:rdf="http://www.w3.org/1999/02/22-rdf-syntax-ns#"
   xmlns:svg="http://www.w3.org/2000/svg"
   xmlns="http://www.w3.org/2000/svg"
   xmlns:xlink="http://www.w3.org/1999/xlink"
   xmlns:sodipodi="http://sodipodi.sourceforge.net/DTD/sodipodi-0.dtd"
   xmlns:inkscape="http://www.inkscape.org/namespaces/inkscape"
   width="370"
   height="320"
   id="svg2"
   version="1.1"
   inkscape:version="0.92.3 (2405546, 2018-03-11)"
   sodipodi:docname="[13]利用.svg"
   inkscape:export-filename="C:\Users\zhen-\Desktop\資料\臨時\因幡\第0次\展開\13.png"
   inkscape:export-xdpi="96"
   inkscape:export-ydpi="96"
   enable-background="new">
  <defs
     id="defs4">
    <inkscape:perspective
       sodipodi:type="inkscape:persp3d"
       inkscape:vp_x="363.49708 : 943.81603 : 1"
       inkscape:vp_y="0 : 1000 : 0"
       inkscape:vp_z="744.09448 : 526.18109 : 1"
       inkscape:persp3d-origin="372.04724 : 350.78739 : 1"
       id="perspective5056" />
    <inkscape:perspective
       id="perspective5056-8"
       inkscape:persp3d-origin="372.04724 : 350.78739 : 1"
       inkscape:vp_z="744.09448 : 526.18109 : 1"
       inkscape:vp_y="0 : 1000 : 0"
       inkscape:vp_x="363.49708 : 943.81603 : 1"
       sodipodi:type="inkscape:persp3d" />
    <linearGradient
       id="linearGradient12499-5-3"
       inkscape:collect="always">
      <stop
         id="stop12501-0-8"
         offset="0"
         style="stop-color:#ffd5d5;stop-opacity:1;" />
      <stop
         id="stop12503-9-9"
         offset="1"
         style="stop-color:#ffd5d5;stop-opacity:0;" />
    </linearGradient>
    <linearGradient
       id="linearGradient12499-5"
       inkscape:collect="always">
      <stop
         id="stop12501-0"
         offset="0"
         style="stop-color:#ffd5d5;stop-opacity:1;" />
      <stop
         id="stop12503-9"
         offset="1"
         style="stop-color:#ffd5d5;stop-opacity:0;" />
    </linearGradient>
    <linearGradient
       id="linearGradient12499-8"
       inkscape:collect="always">
      <stop
         id="stop12501-6"
         offset="0"
         style="stop-color:#ffd5d5;stop-opacity:1;" />
      <stop
         id="stop12503-0"
         offset="1"
         style="stop-color:#ffd5d5;stop-opacity:0;" />
    </linearGradient>
    <linearGradient
       gradientTransform="translate(0,-7)"
       gradientUnits="userSpaceOnUse"
       y2="78.526123"
       x2="178.78178"
       y1="135.02612"
       x1="175.8602"
       id="linearGradient12505-2"
       xlink:href="#linearGradient12499-8"
       inkscape:collect="always" />
    <linearGradient
       id="linearGradient12499-9"
       inkscape:collect="always">
      <stop
         id="stop12501-8"
         offset="0"
         style="stop-color:#ffd5d5;stop-opacity:1;" />
      <stop
         id="stop12503-6"
         offset="1"
         style="stop-color:#ffd5d5;stop-opacity:0;" />
    </linearGradient>
    <linearGradient
       gradientTransform="translate(0,-7)"
       gradientUnits="userSpaceOnUse"
       y2="78.526123"
       x2="178.78178"
       y1="135.02612"
       x1="175.8602"
       id="linearGradient12505-1"
       xlink:href="#linearGradient12499-9"
       inkscape:collect="always" />
    <inkscape:perspective
       id="perspective5056-5"
       inkscape:persp3d-origin="372.04724 : 350.78739 : 1"
       inkscape:vp_z="744.09448 : 526.18109 : 1"
       inkscape:vp_y="0 : 1000 : 0"
       inkscape:vp_x="363.49708 : 943.81603 : 1"
       sodipodi:type="inkscape:persp3d" />
    <linearGradient
       id="linearGradient12499"
       inkscape:collect="always">
      <stop
         id="stop12501"
         offset="0"
         style="stop-color:#ffd5d5;stop-opacity:1;" />
      <stop
         id="stop12503"
         offset="1"
         style="stop-color:#ffd5d5;stop-opacity:0;" />
    </linearGradient>
    <linearGradient
       inkscape:collect="always"
       xlink:href="#linearGradient12499"
       id="linearGradient4842"
       gradientUnits="userSpaceOnUse"
       gradientTransform="matrix(0.98323667,-0.18233388,0.18233388,0.98323667,74.736688,42.602255)"
       x1="175.8602"
       y1="135.02612"
       x2="180.12286"
       y2="104.20104" />
    <linearGradient
       inkscape:collect="always"
       xlink:href="#linearGradient12499-5"
       id="linearGradient4848"
       gradientUnits="userSpaceOnUse"
       gradientTransform="matrix(0.99586062,-0.09089341,0.09089341,0.99586062,90.234074,51.049697)"
       x1="184.3886"
       y1="140.77484"
       x2="178.00351"
       y2="106.50191" />
    <linearGradient
       inkscape:collect="always"
       xlink:href="#linearGradient12499-5-3"
       id="linearGradient4854"
       gradientUnits="userSpaceOnUse"
       gradientTransform="matrix(0.99850313,0.05469451,-0.05469451,0.99850313,114.06992,56.176849)"
       x1="186.74098"
       y1="139.74136"
       x2="168.63582"
       y2="87.2258" />
    <inkscape:perspective
       sodipodi:type="inkscape:persp3d"
       inkscape:vp_x="363.49708 : 943.81603 : 1"
       inkscape:vp_y="0 : 1000 : 0"
       inkscape:vp_z="744.09448 : 526.18109 : 1"
       inkscape:persp3d-origin="372.04724 : 350.78739 : 1"
       id="perspective5056-4" />
    <inkscape:perspective
       sodipodi:type="inkscape:persp3d"
       inkscape:vp_x="363.49708 : 943.81603 : 1"
       inkscape:vp_y="0 : 1000 : 0"
       inkscape:vp_z="744.09448 : 526.18109 : 1"
       inkscape:persp3d-origin="372.04724 : 350.78739 : 1"
       id="perspective5056-8-7" />
    <inkscape:perspective
       id="perspective5056-85"
       inkscape:persp3d-origin="372.04724 : 350.78739 : 1"
       inkscape:vp_z="744.09448 : 526.18109 : 1"
       inkscape:vp_y="0 : 1000 : 0"
       inkscape:vp_x="363.49708 : 943.81603 : 1"
       sodipodi:type="inkscape:persp3d" />
    <inkscape:perspective
       sodipodi:type="inkscape:persp3d"
       inkscape:vp_x="363.49708 : 943.81603 : 1"
       inkscape:vp_y="0 : 1000 : 0"
       inkscape:vp_z="744.09448 : 526.18109 : 1"
       inkscape:persp3d-origin="372.04724 : 350.78739 : 1"
       id="perspective5056-4-2" />
    <inkscape:perspective
       sodipodi:type="inkscape:persp3d"
       inkscape:vp_x="363.49708 : 943.81603 : 1"
       inkscape:vp_y="0 : 1000 : 0"
       inkscape:vp_z="744.09448 : 526.18109 : 1"
       inkscape:persp3d-origin="372.04724 : 350.78739 : 1"
       id="perspective5056-8-4" />
    <inkscape:perspective
       id="perspective5056-1"
       inkscape:persp3d-origin="372.04724 : 350.78739 : 1"
       inkscape:vp_z="744.09448 : 526.18109 : 1"
       inkscape:vp_y="0 : 1000 : 0"
       inkscape:vp_x="363.49708 : 943.81603 : 1"
       sodipodi:type="inkscape:persp3d" />
    <inkscape:perspective
       id="perspective5056-18"
       inkscape:persp3d-origin="372.04724 : 350.78739 : 1"
       inkscape:vp_z="744.09448 : 526.18109 : 1"
       inkscape:vp_y="0 : 1000 : 0"
       inkscape:vp_x="363.49708 : 943.81603 : 1"
       sodipodi:type="inkscape:persp3d" />
    <inkscape:perspective
       sodipodi:type="inkscape:persp3d"
       inkscape:vp_x="363.49708 : 943.81603 : 1"
       inkscape:vp_y="0 : 1000 : 0"
       inkscape:vp_z="744.09448 : 526.18109 : 1"
       inkscape:persp3d-origin="372.04724 : 350.78739 : 1"
       id="perspective5056-8-5" />
    <inkscape:perspective
       sodipodi:type="inkscape:persp3d"
       inkscape:vp_x="363.49708 : 943.81603 : 1"
       inkscape:vp_y="0 : 1000 : 0"
       inkscape:vp_z="744.09448 : 526.18109 : 1"
       inkscape:persp3d-origin="372.04724 : 350.78739 : 1"
       id="perspective5056-5-0" />
    <inkscape:perspective
       id="perspective5056-4-6"
       inkscape:persp3d-origin="372.04724 : 350.78739 : 1"
       inkscape:vp_z="744.09448 : 526.18109 : 1"
       inkscape:vp_y="0 : 1000 : 0"
       inkscape:vp_x="363.49708 : 943.81603 : 1"
       sodipodi:type="inkscape:persp3d" />
    <inkscape:perspective
       id="perspective5056-8-7-5"
       inkscape:persp3d-origin="372.04724 : 350.78739 : 1"
       inkscape:vp_z="744.09448 : 526.18109 : 1"
       inkscape:vp_y="0 : 1000 : 0"
       inkscape:vp_x="363.49708 : 943.81603 : 1"
       sodipodi:type="inkscape:persp3d" />
    <inkscape:perspective
       sodipodi:type="inkscape:persp3d"
       inkscape:vp_x="363.49708 : 943.81603 : 1"
       inkscape:vp_y="0 : 1000 : 0"
       inkscape:vp_z="744.09448 : 526.18109 : 1"
       inkscape:persp3d-origin="372.04724 : 350.78739 : 1"
       id="perspective5056-85-7" />
    <inkscape:perspective
       id="perspective5056-4-2-9"
       inkscape:persp3d-origin="372.04724 : 350.78739 : 1"
       inkscape:vp_z="744.09448 : 526.18109 : 1"
       inkscape:vp_y="0 : 1000 : 0"
       inkscape:vp_x="363.49708 : 943.81603 : 1"
       sodipodi:type="inkscape:persp3d" />
    <inkscape:perspective
       id="perspective5056-8-4-8"
       inkscape:persp3d-origin="372.04724 : 350.78739 : 1"
       inkscape:vp_z="744.09448 : 526.18109 : 1"
       inkscape:vp_y="0 : 1000 : 0"
       inkscape:vp_x="363.49708 : 943.81603 : 1"
       sodipodi:type="inkscape:persp3d" />
    <inkscape:perspective
       sodipodi:type="inkscape:persp3d"
       inkscape:vp_x="363.49708 : 943.81603 : 1"
       inkscape:vp_y="0 : 1000 : 0"
       inkscape:vp_z="744.09448 : 526.18109 : 1"
       inkscape:persp3d-origin="372.04724 : 350.78739 : 1"
       id="perspective5056-1-5" />
  </defs>
  <sodipodi:namedview
     id="base"
     pagecolor="#ffffff"
     bordercolor="#666666"
     borderopacity="1.0"
     inkscape:pageopacity="0.0"
     inkscape:pageshadow="2"
     inkscape:zoom="2.3330755"
     inkscape:cx="171.17817"
     inkscape:cy="145.86096"
     inkscape:document-units="px"
     inkscape:current-layer="layer12"
     showgrid="false"
     inkscape:window-width="1358"
     inkscape:window-height="995"
     inkscape:window-x="-12"
     inkscape:window-y="-6"
     inkscape:window-maximized="0"
     showguides="false"
     inkscape:guide-bbox="true"
     inkscape:snap-grids="false"
     inkscape:snap-to-guides="false"
     showborder="true"
     inkscape:showpageshadow="false"
     fit-margin-top="0"
     fit-margin-left="0"
     fit-margin-right="0"
     fit-margin-bottom="0"
     inkscape:snap-page="false"
     inkscape:snap-global="false" />
  <metadata
     id="metadata7">
    <rdf:RDF>
      <cc:Work
         rdf:about="">
        <dc:format>image/svg+xml</dc:format>
        <dc:type
           rdf:resource="http://purl.org/dc/dcmitype/StillImage" />
        <dc:title />
      </cc:Work>
    </rdf:RDF>
  </metadata>
  <g
     inkscape:groupmode="layer"
     id="layer2"
     inkscape:label="補助線"
     style="display:none"
     sodipodi:insensitive="true">
    <path
       style="fill:none;stroke:#0000ff;stroke-width:1px;stroke-linecap:butt;stroke-linejoin:miter;stroke-opacity:1"
       d="M 10,310 360,10"
       id="path3025"
       inkscape:connector-curvature="0"
       sodipodi:nodetypes="cc" />
    <path
       style="fill:none;stroke:#0000ff;stroke-width:1px;stroke-linecap:butt;stroke-linejoin:miter;stroke-opacity:1"
       d="M 10,10 360,310"
       id="path3027"
       inkscape:connector-curvature="0"
       sodipodi:nodetypes="cc" />
    <path
       style="display:inline;fill:none;stroke:#ff0000;stroke-width:1px;stroke-linecap:butt;stroke-linejoin:miter;stroke-opacity:1"
       d="M 10,0 V 320"
       id="path3006"
       inkscape:connector-curvature="0"
       sodipodi:nodetypes="cc" />
    <path
       style="display:inline;fill:none;stroke:#ff0000;stroke-width:1px;stroke-linecap:butt;stroke-linejoin:miter;stroke-opacity:1"
       d="M 360,0 V 320"
       id="path3010"
       inkscape:connector-curvature="0"
       sodipodi:nodetypes="cc" />
    <path
       style="display:inline;fill:none;stroke:#ff0000;stroke-width:1px;stroke-linecap:butt;stroke-linejoin:miter;stroke-opacity:1"
       d="M 0,9.9999681 370,10"
       id="path3016"
       inkscape:connector-curvature="0" />
    <path
       transform="translate(84.715796,27.711696)"
       style="display:inline;fill:none;stroke:#ff0000;stroke-width:1px;stroke-linecap:butt;stroke-linejoin:miter;stroke-opacity:1"
       d="M -84.715796,282.2883 H 285.2842"
       id="path3018"
       inkscape:connector-curvature="0"
       sodipodi:nodetypes="cc" />
  </g>
  <g
     inkscape:groupmode="layer"
     id="layer15"
     inkscape:label="亀"
     style="display:inline"
     sodipodi:insensitive="true">
    <ellipse
       style="display:inline;opacity:1;fill:#000000;fill-opacity:1;stroke:none;stroke-width:2.38956237;stroke-linecap:round;stroke-linejoin:round;stroke-miterlimit:4;stroke-dasharray:none;stroke-dashoffset:0;stroke-opacity:1"
       id="path16180"
       cx="145.01683"
       cy="289.64825"
       rx="120.07403"
       ry="19.664728" />
    <g
       id="g113891">
      <path
         sodipodi:nodetypes="cccccc"
         id="path112600-3"
         d="m 23.290183,235.11794 3.859466,3.28046 c -8.651529,-1.43598 -8.672759,3.32666 -8.138515,5.38539 1.118685,6.2623 14.08064,12.65866 32.119993,1.32692 L 32.331515,230.10239 Z"
         style="display:inline;fill:#800000;stroke:none;stroke-width:2;stroke-linecap:round;stroke-linejoin:round;stroke-miterlimit:4;stroke-dasharray:none;stroke-opacity:1"
         inkscape:connector-curvature="0" />
      <path
         style="display:inline;fill:#93ac9d;stroke:#000000;stroke-width:2;stroke-linecap:round;stroke-linejoin:round;stroke-miterlimit:4;stroke-dasharray:none;stroke-opacity:1"
         d="m 223.1128,255.22497 c -11.03628,27.06901 -54.68042,52.83049 -98.2902,37.66454 -21.96061,-7.6371 -56.629959,-31.824 -56.464028,-59.37769 l 49.691118,-44.32565 z"
         id="path141-1-8-02-9-4-7-2"
         inkscape:connector-curvature="0"
         sodipodi:nodetypes="csccc" />
      <path
         style="display:inline;fill:#8a916f;stroke:#000000;stroke-width:2;stroke-linecap:round;stroke-linejoin:round;stroke-miterlimit:4;stroke-dasharray:none;stroke-opacity:1"
         d="m 158.44998,268.75655 c -11.41998,15.06484 -36.86461,15.97464 -56.6247,2.95199 -12.002331,-7.91 -25.695722,-22.12002 -25.510461,-38.73747 l 29.532841,-25.0155 z"
         id="path141-1-8-8-3-96-4-6"
         inkscape:connector-curvature="0"
         sodipodi:nodetypes="csccc" />
      <path
         sodipodi:nodetypes="ccccc"
         inkscape:connector-curvature="0"
         id="path98948-7-2-4-5"
         d="M 157.63006,273.17951 78.991961,251.23358 90.381383,230.57029 141.64627,250.3206 Z"
         style="display:inline;fill:#b7c8be;stroke:none;stroke-width:2;stroke-linecap:round;stroke-linejoin:round;stroke-miterlimit:4;stroke-dasharray:none;stroke-opacity:1" />
      <path
         style="display:inline;fill:#d7f4e3;stroke:none;stroke-width:2;stroke-linecap:round;stroke-linejoin:round;stroke-miterlimit:4;stroke-dasharray:none;stroke-opacity:1"
         d="m 228.79214,219.68721 c 2.57898,4.86328 18.93007,9.21413 15.33579,13.59875 -14.97682,18.27005 -43.02094,45.19494 -63.58632,42.09518 -28.11912,-4.23833 -80.21227,-36.93631 -91.616657,-40.51918 -13.688387,-4.30044 -23.17696,0.66527 -26.370341,-1.92539 -2.686807,-2.1797 4.91648,-5.60693 6.984973,-8.48294 z"
         id="path137-3-3-0-6-7-6-7-4"
         inkscape:connector-curvature="0"
         sodipodi:nodetypes="csssscc" />
      <path
         style="display:inline;fill:#b7c8be;stroke:#000000;stroke-width:2;stroke-linecap:round;stroke-linejoin:round;stroke-miterlimit:4;stroke-dasharray:none;stroke-opacity:1"
         d="m 242.98639,283.96903 c -12.54131,7.30836 -42.43414,0.47681 -49.68048,-10.53248 l 39.18481,-27.13609 c 11.91765,-2.08129 17.55757,-2.59552 22.53332,1.12803 4.95544,3.70836 2.10741,28.29759 -12.03765,36.54054 z"
         id="path141-1-8-8-3-9-5-7-2-9"
         inkscape:connector-curvature="0"
         sodipodi:nodetypes="sccss" />
      <path
         style="display:inline;fill:#afe9c6;stroke:none;stroke-width:2;stroke-linecap:round;stroke-linejoin:round;stroke-miterlimit:4;stroke-dasharray:none;stroke-opacity:1"
         d="m 228.79214,219.68721 c 2.57898,4.86328 18.93007,9.21413 15.33579,13.59875 -14.97682,18.27005 -43.02094,45.19494 -63.58632,42.09518 -28.11912,-4.23833 -80.21227,-36.93631 -91.616657,-40.51918 -13.688387,-4.30044 -23.17696,0.66527 -26.370341,-1.92539 -2.686807,-2.1797 2.49357,-5.05627 6.984973,-8.48294 0.306931,0.98479 -5.796781,3.3148 -3.119716,5.13204 1.44101,0.9782 14.653961,-3.25796 24.768326,1.07902 28.209325,12.09599 73.223075,38.08982 90.139885,38.43227 25.85994,0.52348 57.36035,-33.49305 57.91312,-37.54212 0.52969,-3.87998 -4.61081,-6.04009 -10.44906,-11.86763 z"
         id="path137-3-3-0-6-7-1-6-2-6"
         inkscape:connector-curvature="0"
         sodipodi:nodetypes="csssscssssc" />
      <path
         style="display:inline;fill:#87deaa;stroke:none;stroke-width:2;stroke-linecap:round;stroke-linejoin:round;stroke-miterlimit:4;stroke-dasharray:none;stroke-opacity:1"
         d="m 79.7302,198.47081 c 12.788425,-12.75075 41.68755,-36.28976 70.16049,-39.18702 20.86571,-2.12317 42.71254,11.92202 57.91101,25.1125 6.74055,5.85 14.05186,23.56991 20.99044,35.29092 -0.99897,3.58827 -8.45686,7.04308 -8.45686,7.04308 l -8.78009,-0.90288 c -8.54394,9.61371 -13.20023,11.48968 -26.28621,11.46191 -6.12683,5.46037 -12.78201,10.60313 -23.55023,13.27346 -14.06495,-3.80189 -27.64713,-12.86623 -41.19145,-22.3433 -12.98579,-2.71987 -25.179785,-4.56311 -38.259578,-2.52637 -6.021067,-3.12263 -8.833951,-1.36507 -12.728137,-1.23948 2.547054,-11.17417 5.513056,-21.31904 10.190615,-25.98282 z"
         id="path137-3-3-0-6-9-0-5-3"
         inkscape:connector-curvature="0"
         sodipodi:nodetypes="sssccccccccs" />
      <path
         style="display:inline;fill:none;stroke:#00aa44;stroke-width:2;stroke-linecap:round;stroke-linejoin:round;stroke-miterlimit:4;stroke-dasharray:none;stroke-opacity:1"
         d="m 193.05377,173.10666 -8.49095,4.64388 -17.98293,1.05425 -13.94743,10.79383 -21.06716,6.89848 -11.038,31.72238"
         id="path141-1-8-9-2-0-8-9"
         inkscape:connector-curvature="0"
         sodipodi:nodetypes="cccccc" />
      <path
         style="display:inline;fill:none;stroke:#00aa44;stroke-width:2;stroke-linecap:round;stroke-linejoin:round;stroke-miterlimit:4;stroke-dasharray:none;stroke-opacity:1"
         d="m 148.07296,159.61224 c -2.57201,1.8052 -4.45882,4.4903 -6.63702,6.68931 -5.56224,-1.01201 -11.1444,-0.31463 -16.74186,1.69745 -8.35927,5.48795 -13.42367,11.19094 -15.31163,17.10125 -8.04028,0.88914 -15.192453,3.05809 -20.565691,7.3335 -7.833119,8.29852 -12.936959,20.013 -15.845092,31.40074"
         id="path141-1-8-93-8-2-3-8"
         inkscape:connector-curvature="0"
         sodipodi:nodetypes="cccccc" />
      <path
         style="display:inline;fill:none;stroke:#00aa44;stroke-width:2;stroke-linecap:round;stroke-linejoin:round;stroke-miterlimit:4;stroke-dasharray:none;stroke-opacity:1"
         d="m 185.26898,237.28932 c -4.57925,-19.13856 -8.78895,-38.46729 -32.63652,-47.6907"
         id="path158-2-6-9-2"
         inkscape:connector-curvature="0"
         sodipodi:nodetypes="cc" />
      <path
         style="display:inline;fill:none;stroke:#00aa44;stroke-width:2;stroke-linecap:round;stroke-linejoin:round;stroke-miterlimit:4;stroke-dasharray:none;stroke-opacity:1"
         d="m 131.5653,196.4971 c -3.87951,-5.6076 -8.57778,-10.79388 -22.18285,-11.39685"
         id="path141-1-8-1-1-8-3-6"
         inkscape:connector-curvature="0"
         sodipodi:nodetypes="cc" />
      <path
         style="display:inline;fill:none;stroke:#00aa44;stroke-width:2;stroke-linecap:round;stroke-linejoin:round;stroke-miterlimit:4;stroke-dasharray:none;stroke-opacity:1"
         d="m 141.43594,166.30155 c 10.9934,1.85172 17.69116,6.37534 25.14395,12.50324"
         id="path141-1-8-5-0-1-0-9"
         inkscape:connector-curvature="0"
         sodipodi:nodetypes="cc" />
      <path
         style="display:inline;fill:none;stroke:#00aa44;stroke-width:2;stroke-linecap:round;stroke-linejoin:round;stroke-miterlimit:4;stroke-dasharray:none;stroke-opacity:1"
         d="m 184.56282,177.75054 c 16.72411,7.38573 25.9311,26.8327 26.99237,48.07687"
         id="path141-1-8-0-0-1-1-5"
         inkscape:connector-curvature="0"
         sodipodi:nodetypes="cc" />
      <path
         style="display:inline;fill:none;stroke:#00aa44;stroke-width:2;stroke-linecap:round;stroke-linejoin:round;stroke-miterlimit:4;stroke-dasharray:none;stroke-opacity:1"
         d="m 228.79214,219.68721 c -0.97231,3.74559 -4.50386,5.71626 -8.45686,7.04308 l -8.78009,-0.90288 c -8.54394,9.61371 -13.20023,11.48968 -26.28621,11.46191 -6.12683,5.46037 -12.78201,10.60313 -23.55023,13.27346 -14.06495,-3.80189 -27.64713,-12.86623 -41.19145,-22.3433 -13.54575,-2.24089 -27.347536,-4.7576 -38.259578,-2.52637 -6.465884,-2.88751 -11.677311,-1.2227 -12.728137,-1.23948"
         id="path137-3-3-9-3-2-6-6"
         inkscape:connector-curvature="0"
         sodipodi:nodetypes="cccccccc" />
      <path
         style="display:inline;fill:#37c871;stroke:none;stroke-width:2;stroke-linecap:round;stroke-linejoin:round;stroke-miterlimit:4;stroke-dasharray:none;stroke-opacity:1"
         d="m 178.07555,235.02456 c -5.45079,3.77559 -9.61989,7.25016 -16.49742,9.23343 -11.32029,-2.9795 -21.50172,-11.15587 -33.54689,-18.82066 l 8.33194,-24.737 16.0016,-5.51163 c 16.44272,5.8992 23.92898,26.65686 25.71077,39.83586 z"
         id="path158-2-9-03-8-0"
         inkscape:connector-curvature="0"
         sodipodi:nodetypes="cccccc" />
      <path
         style="display:inline;fill:#37c871;stroke:none;stroke-width:2;stroke-linecap:round;stroke-linejoin:round;stroke-miterlimit:4;stroke-dasharray:none;stroke-opacity:1"
         d="m 124.98923,197.49869 -8.81284,24.2867 c -10.10831,-2.06689 -20.354798,-3.1136 -32.841174,-1.34393 -1.421426,-0.32757 -2.624596,-0.83742 -4.324764,-1.02562 2.301869,-6.74688 6.681664,-14.65873 12.805623,-24.1997 3.469329,-2.53843 9.305035,-4.84043 16.996075,-5.86249 8.02461,0.72408 14.01873,4.52549 16.17708,8.14504 z"
         id="path158-2-9-8-9-1-5"
         inkscape:connector-curvature="0"
         sodipodi:nodetypes="ccccccc" />
      <path
         style="display:inline;fill:#37c871;stroke:none;stroke-width:2;stroke-linecap:round;stroke-linejoin:round;stroke-miterlimit:4;stroke-dasharray:none;stroke-opacity:1"
         d="m 189.52539,231.39224 c -3.51502,-15.81228 -6.54255,-31.94331 -26.96952,-42.5342 l 7.61755,-5.57583 13.53826,-0.45581 c 12.94363,7.2219 20.62797,22.89854 21.86886,40.65529 -3.18116,4.70229 -9.5905,8.25394 -16.05515,7.91055 z"
         id="path158-2-9-0-7-9-3"
         inkscape:connector-curvature="0"
         sodipodi:nodetypes="cccccc" />
      <path
         style="display:inline;fill:#37c871;stroke:none;stroke-width:2;stroke-linecap:round;stroke-linejoin:round;stroke-miterlimit:4;stroke-dasharray:none;stroke-opacity:1"
         d="m 226.96942,215.64904 c -1.6523,2.854 -4.1148,4.39299 -6.80541,5.48188 l -3.608,-0.62798 c -2.04842,-24.19618 -13.9131,-36.76947 -22.17172,-42.28632 l 3.80901,-2.14135 c 12.74724,6.98978 21.27728,22.20094 28.77612,39.57377 z"
         id="path158-2-9-4-4-1-6"
         inkscape:connector-curvature="0"
         sodipodi:nodetypes="cccccc" />
      <path
         style="display:inline;fill:#37c871;stroke:none;stroke-width:2;stroke-linecap:round;stroke-linejoin:round;stroke-miterlimit:4;stroke-dasharray:none;stroke-opacity:1"
         d="m 188.91197,169.92212 -6.96012,3.6599 c -5.44898,-0.13991 -9.39159,-0.19465 -13.82598,0.2569 -5.62379,-4.5967 -10.79572,-7.15918 -17.58684,-9.61679 1.19788,-1.74646 3.47639,-4.01051 4.92091,-5.19243 14.34018,-0.5441 23.69991,5.45209 33.45203,10.89242 z"
         id="path158-2-9-6-4-7-2"
         inkscape:connector-curvature="0"
         sodipodi:nodetypes="cccccc" />
      <path
         style="display:inline;fill:#37c871;stroke:none;stroke-width:2;stroke-linecap:round;stroke-linejoin:round;stroke-miterlimit:4;stroke-dasharray:none;stroke-opacity:1"
         d="m 149.73435,185.1481 c -6.51648,1.92375 -11.27291,3.40786 -16.40782,5.34513 -4.85394,-5.60536 -11.10513,-8.72464 -16.96701,-9.11486 2.70417,-3.7165 6.04784,-7.17907 10.33801,-10.06757 8.87092,-3.60582 22.76031,0.21106 31.25194,7.54371 z"
         id="path158-2-9-9-5-0-7"
         inkscape:connector-curvature="0"
         sodipodi:nodetypes="cccccc" />
      <path
         style="display:inline;fill:#37c871;stroke:none;stroke-width:2;stroke-linecap:round;stroke-linejoin:round;stroke-miterlimit:4;stroke-dasharray:none;stroke-opacity:1"
         d="m 95.204438,184.21072 c 2.681714,-0.68484 7.102362,-2.16481 10.501722,-2.69739 1.11427,-2.99281 3.23516,-5.97717 7.50685,-9.21463 -6.37109,3.76982 -12.44387,7.70236 -18.008572,11.91202 z"
         id="path158-2-9-5-0-8-2"
         inkscape:connector-curvature="0"
         sodipodi:nodetypes="cccc" />
      <path
         style="display:inline;fill:none;stroke:#00aa44;stroke-width:2;stroke-linecap:round;stroke-linejoin:round;stroke-miterlimit:4;stroke-dasharray:none;stroke-opacity:1"
         d="m 86.809615,191.81873 2.007144,0.61502"
         id="path141-1-8-93-8-64-1-5-0"
         inkscape:connector-curvature="0"
         sodipodi:nodetypes="cc" />
      <path
         style="display:inline;fill:none;stroke:#000000;stroke-width:2;stroke-linecap:round;stroke-linejoin:round;stroke-miterlimit:4;stroke-dasharray:none;stroke-opacity:1"
         d="m 149.89069,159.28379 c 20.86571,-2.12317 42.85233,10.56446 57.91101,25.1125 8.32839,8.04596 15.45362,21.7009 20.99044,35.29092 3.56235,5.40612 18.93007,9.21413 15.33579,13.59875 -14.97682,18.27005 -43.02094,45.19494 -63.58632,42.09518 -28.11912,-4.23833 -80.21227,-36.93631 -91.616657,-40.51918 -13.688387,-4.30044 -23.17696,0.66527 -26.370341,-1.92539 -2.686807,-2.1797 4.91648,-5.60693 6.984973,-8.48294 2.547054,-11.17417 5.899297,-20.96137 10.190615,-25.98282 10.763663,-12.59501 41.68755,-36.28976 70.16049,-39.18702 z"
         id="path137-3-3-0-6-1-9-9"
         inkscape:connector-curvature="0"
         sodipodi:nodetypes="sscsssscss" />
      <path
         sodipodi:nodetypes="ccccsssssccc"
         inkscape:connector-curvature="0"
         id="path112600-4"
         d="m 124.02571,267.5637 c -11.28375,13.07909 -26.080503,7.37723 -51.697752,3.39278 -32.834324,3.90762 -49.098419,-10.91709 -53.316823,-27.17269 1.118685,6.2623 14.08064,12.65866 32.119992,1.32692 -4.254548,2.38491 -13.916392,-6.72817 -21.780864,-10.58476 -3.738588,-1.83334 -6.524431,1.38504 -8.62932,0.99921 -1.009238,-0.18499 -2.332004,-3.16403 -2.656748,-4.22077 -3.021624,-9.83258 6.112185,-23.21183 21.604118,-23.41306 8.159701,-0.10599 17.781199,4.21124 24.14154,8.48909 10.633333,7.1518 19.405096,19.29249 30.50906,20.79893 l -3.587656,4.24062 z"
         style="display:inline;fill:#b7c8be;stroke:none;stroke-width:2;stroke-linecap:round;stroke-linejoin:round;stroke-miterlimit:4;stroke-dasharray:none;stroke-opacity:1" />
      <path
         style="display:inline;fill:none;stroke:#000000;stroke-width:2;stroke-linecap:round;stroke-linejoin:round;stroke-miterlimit:4;stroke-dasharray:none;stroke-opacity:1"
         d="m 124.02571,267.5637 c -11.28375,13.07909 -26.080503,7.37723 -51.697752,3.39278 -32.834324,3.90762 -49.098419,-10.91709 -53.316823,-27.17269 -0.534244,-2.05872 -0.513014,-6.82137 8.138515,-5.38538 l -3.859466,-3.28046"
         id="path112600"
         inkscape:connector-curvature="0"
         sodipodi:nodetypes="ccccc" />
      <path
         style="display:inline;fill:#b7c8be;stroke:none;stroke-width:2;stroke-linecap:round;stroke-linejoin:round;stroke-miterlimit:4;stroke-dasharray:none;stroke-opacity:1"
         d="m 154.00073,266.96733 c 10.09837,10.98159 44.20317,23.42199 31.63657,30.4476 -13.68097,7.64864 -57.25471,12.42066 -73.38167,1.79238 -9.79556,-6.45565 -25.857352,-27.36162 -16.294131,-35.89646 3.499617,-3.12333 11.157381,-6.42003 20.002621,-6.93662 l 36.62098,14.50742 z"
         id="path141-1-8-8-3-9-7-1-7-5"
         inkscape:connector-curvature="0"
         sodipodi:nodetypes="csssccc" />
      <path
         sodipodi:nodetypes="ccsssssc"
         inkscape:connector-curvature="0"
         id="path141-1-8-8-3-3-6-3-5-7"
         d="m 19.011135,243.78379 c 1.118685,6.2623 14.08064,12.65866 32.119992,1.32692 -4.254548,2.38491 -13.916392,-6.72817 -21.780864,-10.58476 -3.738588,-1.83334 -6.524431,1.38504 -8.62932,0.99921 -1.009238,-0.18499 -2.332004,-3.16403 -2.656748,-4.22077 -3.021624,-9.83258 6.112185,-23.21183 21.604118,-23.41306 8.159701,-0.10599 17.781199,4.21124 24.14154,8.48909 10.633333,7.1518 19.405096,19.29249 30.50906,20.79893"
         style="display:inline;fill:none;stroke:#000000;stroke-width:2;stroke-linecap:round;stroke-linejoin:round;stroke-miterlimit:4;stroke-dasharray:none;stroke-opacity:1" />
      <path
         inkscape:connector-curvature="0"
         id="path32547-6-6-8"
         d="m 33.39071,228.13517 c -3.294902,0.17447 -1.841122,-12.11512 1.803494,-10.04326 3.274327,1.86136 1.811939,9.85182 -1.803494,10.04326 z"
         style="display:inline;opacity:1;fill:#000000;fill-opacity:1;stroke:none;stroke-width:2;stroke-linecap:round;stroke-linejoin:round;stroke-miterlimit:4;stroke-dasharray:none;stroke-dashoffset:0;stroke-opacity:1"
         sodipodi:nodetypes="sss" />
      <path
         style="display:inline;fill:none;stroke:#000000;stroke-width:2;stroke-linecap:round;stroke-linejoin:round;stroke-miterlimit:4;stroke-dasharray:none;stroke-opacity:1"
         d="m 154.00074,266.96733 c 10.09837,10.98159 44.20316,23.42199 31.63656,30.4476 -13.68097,7.64864 -57.25471,12.42066 -73.38166,1.79238 -9.79556,-6.45565 -25.857351,-27.36162 -16.294141,-35.89646 3.499617,-3.12333 11.157381,-6.42003 20.002621,-6.93662"
         id="path141-1-8-8-3-9-7-0-4"
         inkscape:connector-curvature="0"
         sodipodi:nodetypes="csssc" />
      <path
         sodipodi:nodetypes="sss"
         style="display:inline;opacity:1;fill:#000000;fill-opacity:1;stroke:none;stroke-width:2;stroke-linecap:round;stroke-linejoin:round;stroke-miterlimit:4;stroke-dasharray:none;stroke-dashoffset:0;stroke-opacity:1"
         d="m 21.783371,224.44585 c -2.34554,-2.25236 -0.63246,-8.18043 1.485365,-8.73612 3.568732,-0.93638 0.836875,10.96611 -1.485365,8.73612 z"
         id="path32547-6-6-8-1"
         inkscape:connector-curvature="0" />
    </g>
  </g>
  <g
     inkscape:groupmode="layer"
     id="layer12"
     inkscape:label="吹き出し"
     sodipodi:insensitive="true">
    <path
       sodipodi:nodetypes="sscssss"
       inkscape:connector-curvature="0"
       id="path9541"
       d="m 150.62838,61.724493 c 0,21.280022 27.58481,39.456467 66.46922,46.684597 6.4078,1.19117 13.09171,12.23376 7.04905,22.34413 14.76137,-3.60015 24.42938,-19.00651 30.32451,-19.00651 57.35078,0 103.84277,-22.395704 103.84277,-50.022217 0,-27.626496 -46.49199,-50.022217 -103.84277,-50.022217 -57.35078,0 -103.84278,22.395721 -103.84278,50.022217 z"
       style="display:inline;fill:#fefefe;fill-opacity:1;stroke:#000000;stroke-width:2;stroke-linecap:round;stroke-linejoin:round" />
    <text
       id="text9547"
       y="53.295254"
       x="162.52177"
       style="font-style:normal;font-weight:normal;font-size:8.80995369px;line-height:1.10000002;font-family:sans-serif;letter-spacing:0px;word-spacing:0px;writing-mode:lr-tb;display:inline;fill:#000000;fill-opacity:1;stroke:none;stroke-width:2;stroke-linecap:round"
       xml:space="preserve"><tspan
         style="font-size:21.23791885px;line-height:1.10000002;font-family:sans-serif;stroke-width:2;stroke-linecap:round"
         y="53.295254"
         x="162.52177"
         sodipodi:role="line"
         id="tspan10349"> まあ仲良く</tspan><tspan
         style="font-size:21.23791885px;line-height:1.10000002;font-family:sans-serif;stroke-width:2;stroke-linecap:round"
         y="78.187042"
         x="162.52177"
         sodipodi:role="line"
         id="tspan10423">やろうじゃないか。</tspan></text>
  </g>
  <g
     style="display:inline"
     inkscape:label="豚"
     id="g9591"
     inkscape:groupmode="layer"
     sodipodi:insensitive="true">
    <path
       sodipodi:nodetypes="sssssss"
       inkscape:connector-curvature="0"
       id="path9549"
       d="m 75.175451,203.90734 c 2.758585,-10.07703 128.472849,-37.6818 124.790369,-25.55649 -2.47232,8.14061 -8.71322,12.83182 -17.73769,14.93075 -19.30714,4.49049 -20.03847,1.62379 -36.89743,5.28814 -11.31705,2.45979 -29.30445,18.07884 -43.55814,18.05326 -10.533193,-0.0189 -12.152126,-7.72905 -16.929281,-7.0871 -5.932791,0.79724 -11.043749,-0.60235 -9.667828,-5.62856 z"
       style="display:inline;opacity:0.5;fill:#000000;stroke:none;stroke-width:2;stroke-linecap:round;stroke-linejoin:round;stroke-opacity:1" />
    <g
       id="g10419">
      <path
         sodipodi:nodetypes="cccccccccc"
         id="path10164-3"
         d="m 120.72966,198.37331 -27.981216,2.02528 -15.311042,-15.9226 -20.854555,-46.3875 13.070127,-30.18676 15.594862,-11.64938 41.109264,9.09008 44.08162,61.61359 -10.98916,20.01465 z"
         style="display:inline;fill:#fffefc;fill-opacity:1;stroke:none;stroke-width:2;stroke-linecap:round;stroke-linejoin:round;stroke-opacity:1"
         inkscape:connector-curvature="0" />
      <path
         inkscape:connector-curvature="0"
         id="path10166"
         d="M 95.68778,201.21381 C 80.041807,210.1476 68.050535,207.20079 76.060381,181.58465"
         style="display:inline;fill:#fffefc;fill-opacity:1;stroke:#000000;stroke-width:2;stroke-linecap:round;stroke-linejoin:round;stroke-opacity:1" />
      <path
         sodipodi:nodetypes="csc"
         inkscape:connector-curvature="0"
         id="path10164"
         d="M 68.479523,109.32166 C 69.614381,84.098927 83.64883,64.731307 91.357695,64.912245 c 9.336215,0.219135 11.956415,23.804803 7.354886,34.963607"
         style="display:inline;fill:#fffefc;fill-opacity:1;stroke:#000000;stroke-width:2;stroke-linecap:round;stroke-linejoin:round;stroke-opacity:1" />
      <path
         inkscape:connector-curvature="0"
         id="path9551"
         d="m 169.18996,182.62657 c -9.20203,6.97604 -48.65317,23.39736 -60.24026,17.42948"
         style="display:inline;fill:#fffefc;fill-opacity:1;stroke:#000000;stroke-width:2;stroke-linecap:round;stroke-linejoin:round;stroke-opacity:1" />
      <circle
         style="display:inline;opacity:1;fill:#fffefc;fill-opacity:1;stroke:#000000;stroke-width:2;stroke-linecap:round;stroke-linejoin:round;stroke-miterlimit:4;stroke-dasharray:none;stroke-opacity:1"
         id="circle9557"
         cx="-164.21147"
         cy="185.39384"
         r="19.484991"
         transform="matrix(-0.97914193,0.20317744,0.20317744,0.97914193,0,0)" />
      <path
         sodipodi:nodetypes="csccc"
         inkscape:connector-curvature="0"
         id="path9559"
         d="m 123.32541,104.82028 c 30.54586,-25.416853 60.53398,-8.555256 75.46848,10.42773 12.60026,16.01598 18.28233,58.34271 -11.32468,70.63377 -8.69628,3.61016 -20.37307,5.92368 -26.11156,7.24924 -8.39101,1.93829 -9.37754,-15.33488 5.26311,-26.3946"
         style="display:inline;fill:#fffefc;fill-opacity:1;stroke:#000000;stroke-width:2;stroke-linecap:round;stroke-linejoin:round;stroke-opacity:1" />
      <path
         style="display:inline;fill:#fffefc;fill-opacity:1;stroke:#000000;stroke-width:2;stroke-linecap:round;stroke-linejoin:round;stroke-opacity:1"
         d="m 97.648082,184.00153 c -7.832754,9.46875 -10.663718,21.34518 -3.730569,24.53426 9.909947,4.55836 23.441397,-2.04025 33.429307,-9.06418"
         id="path9583"
         inkscape:connector-curvature="0"
         sodipodi:nodetypes="csc" />
      <path
         sodipodi:nodetypes="csc"
         inkscape:connector-curvature="0"
         id="path9595"
         d="M 78.866803,185.24709 C 64.242756,177.8416 55.058461,169.26111 51.574911,160.13868 48.502366,152.09256 48.849512,144.64161 56.24833,134.07469"
         style="display:inline;fill:#fffefc;fill-opacity:1;stroke:#000000;stroke-width:2;stroke-linecap:round;stroke-linejoin:round;stroke-opacity:1" />
      <path
         sodipodi:nodetypes="cc"
         inkscape:connector-curvature="0"
         id="path9553"
         d="m 56.620057,139.093 c -1.725391,-11.69243 6.023391,-25.7704 14.743962,-32.42201"
         style="display:inline;fill:#fffefc;fill-opacity:1;stroke:#000000;stroke-width:2;stroke-linecap:round;stroke-linejoin:round;stroke-opacity:1" />
      <path
         sodipodi:nodetypes="csc"
         inkscape:connector-curvature="0"
         id="path10151"
         d="m 85.018912,100.99593 c 11.529686,-6.615688 34.307868,1.55785 41.982848,12.84462 3.83095,5.63377 5.90883,10.84512 6.00843,16.93973"
         style="display:inline;fill:#fffefc;fill-opacity:1;stroke:#000000;stroke-width:2;stroke-linecap:round;stroke-linejoin:round;stroke-opacity:1" />
      <path
         style="display:inline;fill:#800000;stroke:#000000;stroke-width:2;stroke-linecap:round;stroke-linejoin:round;stroke-opacity:1"
         d="m 92.262732,130.22387 c -10.053363,-1.60485 -14.893191,4.70495 -13.519065,12.0669 8.105142,2.35881 13.78284,-0.74882 13.519065,-12.0669 z"
         id="path9561"
         inkscape:connector-curvature="0"
         sodipodi:nodetypes="ccc" />
      <path
         style="display:inline;fill:#800000;stroke:#000000;stroke-width:2;stroke-linecap:round;stroke-linejoin:round;stroke-opacity:1"
         d="m 82.172226,169.36154 c 0.731864,7.61089 -12.146828,9.11651 -21.206218,-4.09666 l 6.043308,-7.82005 z"
         id="path9571"
         inkscape:connector-curvature="0"
         sodipodi:nodetypes="cccc" />
      <path
         style="display:inline;fill:#fffefc;fill-opacity:1;stroke:#000000;stroke-width:2;stroke-linecap:round;stroke-linejoin:round;stroke-opacity:1"
         d="m 89.212464,155.94741 c 6.518468,5.39014 0.509728,15.63002 -5.381999,16.01404 -5.214478,0.33988 -14.086711,-9.16827 -18.628801,-12.7273 -1.85266,2.41971 -2.850055,5.89199 -4.903862,6.79973 -3.103996,1.3719 -10.563263,-7.64742 -6.276247,-14.82225"
         id="path9569"
         inkscape:connector-curvature="0"
         sodipodi:nodetypes="cscsc" />
      <path
         style="display:inline;fill:none;stroke:#000000;stroke-width:2;stroke-linecap:round;stroke-linejoin:round;stroke-opacity:1"
         d="m 82.684392,156.95759 c 7.780009,-1.91332 18.609138,-2.57808 29.498668,-2.95747"
         id="path9573"
         inkscape:connector-curvature="0"
         sodipodi:nodetypes="cc" />
      <path
         style="display:inline;fill:none;stroke:#000000;stroke-width:2;stroke-linecap:round;stroke-linejoin:round;stroke-opacity:1"
         d="m 83.1836,161.54419 c 10.552545,0.91484 17.48538,2.72823 29.19378,5.64346"
         id="path9575"
         inkscape:connector-curvature="0"
         sodipodi:nodetypes="cc" />
      <path
         style="display:inline;fill:none;stroke:#000000;stroke-width:2;stroke-linecap:round;stroke-linejoin:round;stroke-opacity:1"
         d="m 56.133822,156.51827 c -5.842569,1.75847 -10.945091,3.35092 -14.91115,5.10926"
         id="path9577"
         inkscape:connector-curvature="0"
         sodipodi:nodetypes="cc" />
      <path
         style="display:inline;fill:none;stroke:#000000;stroke-width:2;stroke-linecap:round;stroke-linejoin:round;stroke-opacity:1"
         d="m 57.902148,161.34811 c -4.447852,3.27202 -8.733719,7.12885 -11.353111,11.60009"
         id="path9579"
         inkscape:connector-curvature="0"
         sodipodi:nodetypes="cc" />
      <path
         style="display:inline;fill:none;stroke:#000000;stroke-width:2;stroke-linecap:round;stroke-linejoin:round;stroke-opacity:1"
         d="m 82.178273,165.96379 c 9.103263,3.64572 15.465338,7.7943 24.603327,13.52124"
         id="path9585"
         inkscape:connector-curvature="0"
         sodipodi:nodetypes="cc" />
      <path
         style="display:inline;fill:none;stroke:#000000;stroke-width:2;stroke-linecap:round;stroke-linejoin:round;stroke-opacity:1"
         d="M 56.309686,152.80906 C 50.049032,150.78157 45.782983,150.51321 41.248364,150.0996"
         id="path9587"
         inkscape:connector-curvature="0"
         sodipodi:nodetypes="cc" />
      <g
         id="g10274">
        <path
           sodipodi:nodetypes="cssc"
           inkscape:connector-curvature="0"
           id="path9581-1"
           d="M 96.516276,102.68322 C 104.4128,83.207172 129.82241,64.962234 142.0412,68.594112 c 8.92574,2.653061 2.05935,19.635254 -6.09329,33.950718 -2.81658,4.94572 -8.94359,11.02847 -13.12331,13.60259"
           style="display:inline;fill:#fffefc;fill-opacity:1;stroke:none;stroke-width:2;stroke-linecap:round;stroke-linejoin:round;stroke-opacity:1" />
        <path
           sodipodi:nodetypes="cccc"
           inkscape:connector-curvature="0"
           id="path9589-7"
           d="m 114.24695,113.7612 c -13.54817,-25.316741 19.08562,-47.84255 27.79425,-45.167095 8.92574,2.653064 2.05935,19.635254 -6.09329,33.950725 -5.06901,5.98106 -13.90471,9.80066 -21.70096,11.21637 z"
           style="display:inline;fill:#ff8080;fill-opacity:1;stroke:none;stroke-width:2;stroke-linecap:round;stroke-linejoin:round;stroke-opacity:1" />
        <path
           sodipodi:nodetypes="cssc"
           inkscape:connector-curvature="0"
           id="path9581"
           d="M 96.516278,102.68322 C 104.4128,83.207171 129.82241,64.962233 142.0412,68.594111 c 8.92574,2.653061 2.05935,19.635254 -6.09329,33.950719 -2.81658,4.94572 -8.94359,11.02847 -13.12331,13.60259"
           style="display:inline;fill:none;fill-opacity:1;stroke:#000000;stroke-width:2;stroke-linecap:round;stroke-linejoin:round;stroke-opacity:1" />
        <path
           sodipodi:nodetypes="ccc"
           inkscape:connector-curvature="0"
           id="path9589"
           d="m 135.94791,102.54483 c -5.06901,5.98106 -13.90471,9.80066 -21.70096,11.21637 -13.54817,-25.316736 19.08562,-47.842544 27.79424,-45.167089"
           style="display:inline;fill:none;fill-opacity:1;stroke:#000000;stroke-width:2;stroke-linecap:round;stroke-linejoin:round;stroke-opacity:1" />
      </g>
      <path
         style="display:inline;fill:#ffaaaa;stroke:none;stroke-width:2;stroke-linecap:round;stroke-linejoin:round;stroke-opacity:1"
         d="m 71.036537,148.61128 c -2.348253,1.81285 -4.303678,4.00284 -6.473668,5.11084 -3.315208,-1.62173 -4.439236,-5.57903 -4.474824,-7.82289 1.939038,-0.53573 1.959988,3.73586 4.290654,5.6529 2.198427,-1.52021 5.263122,-4.3697 6.657838,-2.94085 z"
         id="path9565-3"
         inkscape:connector-curvature="0"
         sodipodi:nodetypes="ccccc" />
      <path
         style="display:inline;fill:none;stroke:#000000;stroke-width:2;stroke-linecap:round;stroke-linejoin:round;stroke-opacity:1"
         d="m 71.036537,148.61128 c -2.348253,1.81285 -4.303678,4.00284 -6.473668,5.11084 -3.315208,-1.62173 -4.439236,-5.57903 -4.474824,-7.82289"
         id="path9565"
         inkscape:connector-curvature="0"
         sodipodi:nodetypes="ccc" />
      <path
         style="display:inline;fill:none;stroke:#000000;stroke-width:2;stroke-linecap:round;stroke-linejoin:round;stroke-opacity:1"
         d="m 64.562869,153.72212 c 0.317828,2.29004 -0.160377,3.70334 0.638795,5.51203"
         id="path9567"
         inkscape:connector-curvature="0"
         sodipodi:nodetypes="cc" />
    </g>
  </g>
  <g
     inkscape:groupmode="layer"
     id="layer7"
     inkscape:label="枠面"
     style="display:inline"
     sodipodi:insensitive="true">
    <path
       style="fill:#ffffff;stroke:none;display:inline"
       d="m 0,0 0,320 370,0 0,-320 -10,10 0,300 -350,0 0,-300 350,0 10,-10 z"
       id="path21072"
       inkscape:connector-curvature="0"
       sodipodi:nodetypes="ccccccccccc" />
  </g>
</svg>
