<?xml version="1.0" encoding="UTF-8" standalone="no"?>
<!-- Created with Inkscape (http://www.inkscape.org/) -->

<svg
   xmlns:dc="http://purl.org/dc/elements/1.1/"
   xmlns:cc="http://creativecommons.org/ns#"
   xmlns:rdf="http://www.w3.org/1999/02/22-rdf-syntax-ns#"
   xmlns:svg="http://www.w3.org/2000/svg"
   xmlns="http://www.w3.org/2000/svg"
   xmlns:xlink="http://www.w3.org/1999/xlink"
   xmlns:sodipodi="http://sodipodi.sourceforge.net/DTD/sodipodi-0.dtd"
   xmlns:inkscape="http://www.inkscape.org/namespaces/inkscape"
   width="370"
   height="320"
   id="svg2"
   version="1.1"
   inkscape:version="0.92.3 (2405546, 2018-03-11)"
   sodipodi:docname="[13]利用.svg"
   inkscape:export-filename="C:\Users\zhen-\Desktop\資料\臨時\因幡\第0次\展開\13.png"
   inkscape:export-xdpi="96"
   inkscape:export-ydpi="96"
   enable-background="new">
  <defs
     id="defs4">
    <inkscape:perspective
       sodipodi:type="inkscape:persp3d"
       inkscape:vp_x="363.49708 : 943.81603 : 1"
       inkscape:vp_y="0 : 1000 : 0"
       inkscape:vp_z="744.09448 : 526.18109 : 1"
       inkscape:persp3d-origin="372.04724 : 350.78739 : 1"
       id="perspective5056" />
    <inkscape:perspective
       id="perspective5056-8"
       inkscape:persp3d-origin="372.04724 : 350.78739 : 1"
       inkscape:vp_z="744.09448 : 526.18109 : 1"
       inkscape:vp_y="0 : 1000 : 0"
       inkscape:vp_x="363.49708 : 943.81603 : 1"
       sodipodi:type="inkscape:persp3d" />
    <linearGradient
       id="linearGradient12499-5-3"
       inkscape:collect="always">
      <stop
         id="stop12501-0-8"
         offset="0"
         style="stop-color:#ffd5d5;stop-opacity:1;" />
      <stop
         id="stop12503-9-9"
         offset="1"
         style="stop-color:#ffd5d5;stop-opacity:0;" />
    </linearGradient>
    <linearGradient
       id="linearGradient12499-5"
       inkscape:collect="always">
      <stop
         id="stop12501-0"
         offset="0"
         style="stop-color:#ffd5d5;stop-opacity:1;" />
      <stop
         id="stop12503-9"
         offset="1"
         style="stop-color:#ffd5d5;stop-opacity:0;" />
    </linearGradient>
    <linearGradient
       id="linearGradient12499-8"
       inkscape:collect="always">
      <stop
         id="stop12501-6"
         offset="0"
         style="stop-color:#ffd5d5;stop-opacity:1;" />
      <stop
         id="stop12503-0"
         offset="1"
         style="stop-color:#ffd5d5;stop-opacity:0;" />
    </linearGradient>
    <linearGradient
       gradientTransform="translate(0,-7)"
       gradientUnits="userSpaceOnUse"
       y2="78.526123"
       x2="178.78178"
       y1="135.02612"
       x1="175.8602"
       id="linearGradient12505-2"
       xlink:href="#linearGradient12499-8"
       inkscape:collect="always" />
    <linearGradient
       id="linearGradient12499-9"
       inkscape:collect="always">
      <stop
         id="stop12501-8"
         offset="0"
         style="stop-color:#ffd5d5;stop-opacity:1;" />
      <stop
         id="stop12503-6"
         offset="1"
         style="stop-color:#ffd5d5;stop-opacity:0;" />
    </linearGradient>
    <linearGradient
       gradientTransform="translate(0,-7)"
       gradientUnits="userSpaceOnUse"
       y2="78.526123"
       x2="178.78178"
       y1="135.02612"
       x1="175.8602"
       id="linearGradient12505-1"
       xlink:href="#linearGradient12499-9"
       inkscape:collect="always" />
    <inkscape:perspective
       id="perspective5056-5"
       inkscape:persp3d-origin="372.04724 : 350.78739 : 1"
       inkscape:vp_z="744.09448 : 526.18109 : 1"
       inkscape:vp_y="0 : 1000 : 0"
       inkscape:vp_x="363.49708 : 943.81603 : 1"
       sodipodi:type="inkscape:persp3d" />
    <linearGradient
       id="linearGradient12499"
       inkscape:collect="always">
      <stop
         id="stop12501"
         offset="0"
         style="stop-color:#ffd5d5;stop-opacity:1;" />
      <stop
         id="stop12503"
         offset="1"
         style="stop-color:#ffd5d5;stop-opacity:0;" />
    </linearGradient>
    <linearGradient
       inkscape:collect="always"
       xlink:href="#linearGradient12499"
       id="linearGradient4842"
       gradientUnits="userSpaceOnUse"
       gradientTransform="matrix(0.98323667,-0.18233388,0.18233388,0.98323667,74.736688,42.602255)"
       x1="175.8602"
       y1="135.02612"
       x2="180.12286"
       y2="104.20104" />
    <linearGradient
       inkscape:collect="always"
       xlink:href="#linearGradient12499-5"
       id="linearGradient4848"
       gradientUnits="userSpaceOnUse"
       gradientTransform="matrix(0.99586062,-0.09089341,0.09089341,0.99586062,90.234074,51.049697)"
       x1="184.3886"
       y1="140.77484"
       x2="178.00351"
       y2="106.50191" />
    <linearGradient
       inkscape:collect="always"
       xlink:href="#linearGradient12499-5-3"
       id="linearGradient4854"
       gradientUnits="userSpaceOnUse"
       gradientTransform="matrix(0.99850313,0.05469451,-0.05469451,0.99850313,114.06992,56.176849)"
       x1="186.74098"
       y1="139.74136"
       x2="168.63582"
       y2="87.2258" />
    <inkscape:perspective
       sodipodi:type="inkscape:persp3d"
       inkscape:vp_x="363.49708 : 943.81603 : 1"
       inkscape:vp_y="0 : 1000 : 0"
       inkscape:vp_z="744.09448 : 526.18109 : 1"
       inkscape:persp3d-origin="372.04724 : 350.78739 : 1"
       id="perspective5056-4" />
    <inkscape:perspective
       sodipodi:type="inkscape:persp3d"
       inkscape:vp_x="363.49708 : 943.81603 : 1"
       inkscape:vp_y="0 : 1000 : 0"
       inkscape:vp_z="744.09448 : 526.18109 : 1"
       inkscape:persp3d-origin="372.04724 : 350.78739 : 1"
       id="perspective5056-8-7" />
    <inkscape:perspective
       id="perspective5056-85"
       inkscape:persp3d-origin="372.04724 : 350.78739 : 1"
       inkscape:vp_z="744.09448 : 526.18109 : 1"
       inkscape:vp_y="0 : 1000 : 0"
       inkscape:vp_x="363.49708 : 943.81603 : 1"
       sodipodi:type="inkscape:persp3d" />
    <inkscape:perspective
       sodipodi:type="inkscape:persp3d"
       inkscape:vp_x="363.49708 : 943.81603 : 1"
       inkscape:vp_y="0 : 1000 : 0"
       inkscape:vp_z="744.09448 : 526.18109 : 1"
       inkscape:persp3d-origin="372.04724 : 350.78739 : 1"
       id="perspective5056-4-2" />
    <inkscape:perspective
       sodipodi:type="inkscape:persp3d"
       inkscape:vp_x="363.49708 : 943.81603 : 1"
       inkscape:vp_y="0 : 1000 : 0"
       inkscape:vp_z="744.09448 : 526.18109 : 1"
       inkscape:persp3d-origin="372.04724 : 350.78739 : 1"
       id="perspective5056-8-4" />
    <inkscape:perspective
       id="perspective5056-1"
       inkscape:persp3d-origin="372.04724 : 350.78739 : 1"
       inkscape:vp_z="744.09448 : 526.18109 : 1"
       inkscape:vp_y="0 : 1000 : 0"
       inkscape:vp_x="363.49708 : 943.81603 : 1"
       sodipodi:type="inkscape:persp3d" />
    <inkscape:perspective
       id="perspective5056-18"
       inkscape:persp3d-origin="372.04724 : 350.78739 : 1"
       inkscape:vp_z="744.09448 : 526.18109 : 1"
       inkscape:vp_y="0 : 1000 : 0"
       inkscape:vp_x="363.49708 : 943.81603 : 1"
       sodipodi:type="inkscape:persp3d" />
    <inkscape:perspective
       sodipodi:type="inkscape:persp3d"
       inkscape:vp_x="363.49708 : 943.81603 : 1"
       inkscape:vp_y="0 : 1000 : 0"
       inkscape:vp_z="744.09448 : 526.18109 : 1"
       inkscape:persp3d-origin="372.04724 : 350.78739 : 1"
       id="perspective5056-8-5" />
    <inkscape:perspective
       sodipodi:type="inkscape:persp3d"
       inkscape:vp_x="363.49708 : 943.81603 : 1"
       inkscape:vp_y="0 : 1000 : 0"
       inkscape:vp_z="744.09448 : 526.18109 : 1"
       inkscape:persp3d-origin="372.04724 : 350.78739 : 1"
       id="perspective5056-5-0" />
    <inkscape:perspective
       id="perspective5056-4-6"
       inkscape:persp3d-origin="372.04724 : 350.78739 : 1"
       inkscape:vp_z="744.09448 : 526.18109 : 1"
       inkscape:vp_y="0 : 1000 : 0"
       inkscape:vp_x="363.49708 : 943.81603 : 1"
       sodipodi:type="inkscape:persp3d" />
    <inkscape:perspective
       id="perspective5056-8-7-5"
       inkscape:persp3d-origin="372.04724 : 350.78739 : 1"
       inkscape:vp_z="744.09448 : 526.18109 : 1"
       inkscape:vp_y="0 : 1000 : 0"
       inkscape:vp_x="363.49708 : 943.81603 : 1"
       sodipodi:type="inkscape:persp3d" />
    <inkscape:perspective
       sodipodi:type="inkscape:persp3d"
       inkscape:vp_x="363.49708 : 943.81603 : 1"
       inkscape:vp_y="0 : 1000 : 0"
       inkscape:vp_z="744.09448 : 526.18109 : 1"
       inkscape:persp3d-origin="372.04724 : 350.78739 : 1"
       id="perspective5056-85-7" />
    <inkscape:perspective
       id="perspective5056-4-2-9"
       inkscape:persp3d-origin="372.04724 : 350.78739 : 1"
       inkscape:vp_z="744.09448 : 526.18109 : 1"
       inkscape:vp_y="0 : 1000 : 0"
       inkscape:vp_x="363.49708 : 943.81603 : 1"
       sodipodi:type="inkscape:persp3d" />
    <inkscape:perspective
       id="perspective5056-8-4-8"
       inkscape:persp3d-origin="372.04724 : 350.78739 : 1"
       inkscape:vp_z="744.09448 : 526.18109 : 1"
       inkscape:vp_y="0 : 1000 : 0"
       inkscape:vp_x="363.49708 : 943.81603 : 1"
       sodipodi:type="inkscape:persp3d" />
    <inkscape:perspective
       sodipodi:type="inkscape:persp3d"
       inkscape:vp_x="363.49708 : 943.81603 : 1"
       inkscape:vp_y="0 : 1000 : 0"
       inkscape:vp_z="744.09448 : 526.18109 : 1"
       inkscape:persp3d-origin="372.04724 : 350.78739 : 1"
       id="perspective5056-1-5" />
  </defs>
  <sodipodi:namedview
     id="base"
     pagecolor="#ffffff"
     bordercolor="#666666"
     borderopacity="1.0"
     inkscape:pageopacity="0.0"
     inkscape:pageshadow="2"
     inkscape:zoom="1.77"
     inkscape:cx="-124.71931"
     inkscape:cy="226.87026"
     inkscape:document-units="px"
     inkscape:current-layer="layer3"
     showgrid="false"
     inkscape:window-width="1358"
     inkscape:window-height="986"
     inkscape:window-x="157"
     inkscape:window-y="-3"
     inkscape:window-maximized="0"
     showguides="false"
     inkscape:guide-bbox="true"
     inkscape:snap-grids="false"
     inkscape:snap-to-guides="false"
     showborder="true"
     inkscape:showpageshadow="false"
     fit-margin-top="0"
     fit-margin-left="0"
     fit-margin-right="0"
     fit-margin-bottom="0"
     inkscape:snap-page="false"
     inkscape:snap-global="false" />
  <metadata
     id="metadata7">
    <rdf:RDF>
      <cc:Work
         rdf:about="">
        <dc:format>image/svg+xml</dc:format>
        <dc:type
           rdf:resource="http://purl.org/dc/dcmitype/StillImage" />
        <dc:title />
      </cc:Work>
    </rdf:RDF>
  </metadata>
  <g
     inkscape:groupmode="layer"
     id="layer2"
     inkscape:label="補助線"
     style="display:none"
     sodipodi:insensitive="true">
    <path
       style="fill:none;stroke:#0000ff;stroke-width:1px;stroke-linecap:butt;stroke-linejoin:miter;stroke-opacity:1"
       d="M 10,310 360,10"
       id="path3025"
       inkscape:connector-curvature="0"
       sodipodi:nodetypes="cc" />
    <path
       style="fill:none;stroke:#0000ff;stroke-width:1px;stroke-linecap:butt;stroke-linejoin:miter;stroke-opacity:1"
       d="M 10,10 360,310"
       id="path3027"
       inkscape:connector-curvature="0"
       sodipodi:nodetypes="cc" />
    <path
       style="display:inline;fill:none;stroke:#ff0000;stroke-width:1px;stroke-linecap:butt;stroke-linejoin:miter;stroke-opacity:1"
       d="M 10,0 V 320"
       id="path3006"
       inkscape:connector-curvature="0"
       sodipodi:nodetypes="cc" />
    <path
       style="display:inline;fill:none;stroke:#ff0000;stroke-width:1px;stroke-linecap:butt;stroke-linejoin:miter;stroke-opacity:1"
       d="M 360,0 V 320"
       id="path3010"
       inkscape:connector-curvature="0"
       sodipodi:nodetypes="cc" />
    <path
       style="display:inline;fill:none;stroke:#ff0000;stroke-width:1px;stroke-linecap:butt;stroke-linejoin:miter;stroke-opacity:1"
       d="M 0,9.9999681 370,10"
       id="path3016"
       inkscape:connector-curvature="0" />
    <path
       transform="translate(84.715796,27.711696)"
       style="display:inline;fill:none;stroke:#ff0000;stroke-width:1px;stroke-linecap:butt;stroke-linejoin:miter;stroke-opacity:1"
       d="M -84.715796,282.2883 H 285.2842"
       id="path3018"
       inkscape:connector-curvature="0"
       sodipodi:nodetypes="cc" />
  </g>
  <g
     inkscape:groupmode="layer"
     id="layer15"
     inkscape:label="亀"
     style="display:inline"
     sodipodi:insensitive="true">
    <ellipse
       style="display:inline;opacity:1;fill:#000000;fill-opacity:1;stroke:none;stroke-width:2.38956237;stroke-linecap:round;stroke-linejoin:round;stroke-miterlimit:4;stroke-dasharray:none;stroke-dashoffset:0;stroke-opacity:1"
       id="path16180"
       cx="145.01683"
       cy="289.64825"
       rx="120.07403"
       ry="19.664728" />
    <g
       id="g113891">
      <path
         sodipodi:nodetypes="cccccc"
         id="path112600-3"
         d="m 23.290183,235.11794 3.859466,3.28046 c -8.651529,-1.43598 -8.672759,3.32666 -8.138515,5.38539 1.118685,6.2623 14.08064,12.65866 32.119993,1.32692 L 32.331515,230.10239 Z"
         style="display:inline;fill:#800000;stroke:none;stroke-width:2;stroke-linecap:round;stroke-linejoin:round;stroke-miterlimit:4;stroke-dasharray:none;stroke-opacity:1"
         inkscape:connector-curvature="0" />
      <path
         style="display:inline;fill:#93ac9d;stroke:#000000;stroke-width:2;stroke-linecap:round;stroke-linejoin:round;stroke-miterlimit:4;stroke-dasharray:none;stroke-opacity:1"
         d="m 223.1128,255.22497 c -11.03628,27.06901 -54.68042,52.83049 -98.2902,37.66454 -21.96061,-7.6371 -56.629959,-31.824 -56.464028,-59.37769 l 49.691118,-44.32565 z"
         id="path141-1-8-02-9-4-7-2"
         inkscape:connector-curvature="0"
         sodipodi:nodetypes="csccc" />
      <path
         style="display:inline;fill:#8a916f;stroke:#000000;stroke-width:2;stroke-linecap:round;stroke-linejoin:round;stroke-miterlimit:4;stroke-dasharray:none;stroke-opacity:1"
         d="m 158.44998,268.75655 c -11.41998,15.06484 -36.86461,15.97464 -56.6247,2.95199 -12.002331,-7.91 -25.695722,-22.12002 -25.510461,-38.73747 l 29.532841,-25.0155 z"
         id="path141-1-8-8-3-96-4-6"
         inkscape:connector-curvature="0"
         sodipodi:nodetypes="csccc" />
      <path
         sodipodi:nodetypes="ccccc"
         inkscape:connector-curvature="0"
         id="path98948-7-2-4-5"
         d="M 157.63006,273.17951 78.991961,251.23358 90.381383,230.57029 141.64627,250.3206 Z"
         style="display:inline;fill:#b7c8be;stroke:none;stroke-width:2;stroke-linecap:round;stroke-linejoin:round;stroke-miterlimit:4;stroke-dasharray:none;stroke-opacity:1" />
      <path
         style="display:inline;fill:#d7f4e3;stroke:none;stroke-width:2;stroke-linecap:round;stroke-linejoin:round;stroke-miterlimit:4;stroke-dasharray:none;stroke-opacity:1"
         d="m 228.79214,219.68721 c 2.57898,4.86328 18.93007,9.21413 15.33579,13.59875 -14.97682,18.27005 -43.02094,45.19494 -63.58632,42.09518 -28.11912,-4.23833 -80.21227,-36.93631 -91.616657,-40.51918 -13.688387,-4.30044 -23.17696,0.66527 -26.370341,-1.92539 -2.686807,-2.1797 4.91648,-5.60693 6.984973,-8.48294 z"
         id="path137-3-3-0-6-7-6-7-4"
         inkscape:connector-curvature="0"
         sodipodi:nodetypes="csssscc" />
      <path
         style="display:inline;fill:#b7c8be;stroke:#000000;stroke-width:2;stroke-linecap:round;stroke-linejoin:round;stroke-miterlimit:4;stroke-dasharray:none;stroke-opacity:1"
         d="m 242.98639,283.96903 c -12.54131,7.30836 -42.43414,0.47681 -49.68048,-10.53248 l 39.18481,-27.13609 c 11.91765,-2.08129 17.55757,-2.59552 22.53332,1.12803 4.95544,3.70836 2.10741,28.29759 -12.03765,36.54054 z"
         id="path141-1-8-8-3-9-5-7-2-9"
         inkscape:connector-curvature="0"
         sodipodi:nodetypes="sccss" />
      <path
         style="display:inline;fill:#afe9c6;stroke:none;stroke-width:2;stroke-linecap:round;stroke-linejoin:round;stroke-miterlimit:4;stroke-dasharray:none;stroke-opacity:1"
         d="m 228.79214,219.68721 c 2.57898,4.86328 18.93007,9.21413 15.33579,13.59875 -14.97682,18.27005 -43.02094,45.19494 -63.58632,42.09518 -28.11912,-4.23833 -80.21227,-36.93631 -91.616657,-40.51918 -13.688387,-4.30044 -23.17696,0.66527 -26.370341,-1.92539 -2.686807,-2.1797 2.49357,-5.05627 6.984973,-8.48294 0.306931,0.98479 -5.796781,3.3148 -3.119716,5.13204 1.44101,0.9782 14.653961,-3.25796 24.768326,1.07902 28.209325,12.09599 73.223075,38.08982 90.139885,38.43227 25.85994,0.52348 57.36035,-33.49305 57.91312,-37.54212 0.52969,-3.87998 -4.61081,-6.04009 -10.44906,-11.86763 z"
         id="path137-3-3-0-6-7-1-6-2-6"
         inkscape:connector-curvature="0"
         sodipodi:nodetypes="csssscssssc" />
      <path
         style="display:inline;fill:#87deaa;stroke:none;stroke-width:2;stroke-linecap:round;stroke-linejoin:round;stroke-miterlimit:4;stroke-dasharray:none;stroke-opacity:1"
         d="m 79.7302,198.47081 c 12.788425,-12.75075 41.68755,-36.28976 70.16049,-39.18702 20.86571,-2.12317 42.71254,11.92202 57.91101,25.1125 6.74055,5.85 14.05186,23.56991 20.99044,35.29092 -0.99897,3.58827 -8.45686,7.04308 -8.45686,7.04308 l -8.78009,-0.90288 c -8.54394,9.61371 -13.20023,11.48968 -26.28621,11.46191 -6.12683,5.46037 -12.78201,10.60313 -23.55023,13.27346 -14.06495,-3.80189 -27.64713,-12.86623 -41.19145,-22.3433 -12.98579,-2.71987 -25.179785,-4.56311 -38.259578,-2.52637 -6.021067,-3.12263 -8.833951,-1.36507 -12.728137,-1.23948 2.547054,-11.17417 5.513056,-21.31904 10.190615,-25.98282 z"
         id="path137-3-3-0-6-9-0-5-3"
         inkscape:connector-curvature="0"
         sodipodi:nodetypes="sssccccccccs" />
      <path
         style="display:inline;fill:none;stroke:#00aa44;stroke-width:2;stroke-linecap:round;stroke-linejoin:round;stroke-miterlimit:4;stroke-dasharray:none;stroke-opacity:1"
         d="m 193.05377,173.10666 -8.49095,4.64388 -17.98293,1.05425 -13.94743,10.79383 -21.06716,6.89848 -11.038,31.72238"
         id="path141-1-8-9-2-0-8-9"
         inkscape:connector-curvature="0"
         sodipodi:nodetypes="cccccc" />
      <path
         style="display:inline;fill:none;stroke:#00aa44;stroke-width:2;stroke-linecap:round;stroke-linejoin:round;stroke-miterlimit:4;stroke-dasharray:none;stroke-opacity:1"
         d="m 148.07296,159.61224 c -2.57201,1.8052 -4.45882,4.4903 -6.63702,6.68931 -5.56224,-1.01201 -11.1444,-0.31463 -16.74186,1.69745 -8.35927,5.48795 -13.42367,11.19094 -15.31163,17.10125 -8.04028,0.88914 -15.192453,3.05809 -20.565691,7.3335 -7.833119,8.29852 -12.936959,20.013 -15.845092,31.40074"
         id="path141-1-8-93-8-2-3-8"
         inkscape:connector-curvature="0"
         sodipodi:nodetypes="cccccc" />
      <path
         style="display:inline;fill:none;stroke:#00aa44;stroke-width:2;stroke-linecap:round;stroke-linejoin:round;stroke-miterlimit:4;stroke-dasharray:none;stroke-opacity:1"
         d="m 185.26898,237.28932 c -4.57925,-19.13856 -8.78895,-38.46729 -32.63652,-47.6907"
         id="path158-2-6-9-2"
         inkscape:connector-curvature="0"
         sodipodi:nodetypes="cc" />
      <path
         style="display:inline;fill:none;stroke:#00aa44;stroke-width:2;stroke-linecap:round;stroke-linejoin:round;stroke-miterlimit:4;stroke-dasharray:none;stroke-opacity:1"
         d="m 131.5653,196.4971 c -3.87951,-5.6076 -8.57778,-10.79388 -22.18285,-11.39685"
         id="path141-1-8-1-1-8-3-6"
         inkscape:connector-curvature="0"
         sodipodi:nodetypes="cc" />
      <path
         style="display:inline;fill:none;stroke:#00aa44;stroke-width:2;stroke-linecap:round;stroke-linejoin:round;stroke-miterlimit:4;stroke-dasharray:none;stroke-opacity:1"
         d="m 141.43594,166.30155 c 10.9934,1.85172 17.69116,6.37534 25.14395,12.50324"
         id="path141-1-8-5-0-1-0-9"
         inkscape:connector-curvature="0"
         sodipodi:nodetypes="cc" />
      <path
         style="display:inline;fill:none;stroke:#00aa44;stroke-width:2;stroke-linecap:round;stroke-linejoin:round;stroke-miterlimit:4;stroke-dasharray:none;stroke-opacity:1"
         d="m 184.56282,177.75054 c 16.72411,7.38573 25.9311,26.8327 26.99237,48.07687"
         id="path141-1-8-0-0-1-1-5"
         inkscape:connector-curvature="0"
         sodipodi:nodetypes="cc" />
      <path
         style="display:inline;fill:none;stroke:#00aa44;stroke-width:2;stroke-linecap:round;stroke-linejoin:round;stroke-miterlimit:4;stroke-dasharray:none;stroke-opacity:1"
         d="m 228.79214,219.68721 c -0.97231,3.74559 -4.50386,5.71626 -8.45686,7.04308 l -8.78009,-0.90288 c -8.54394,9.61371 -13.20023,11.48968 -26.28621,11.46191 -6.12683,5.46037 -12.78201,10.60313 -23.55023,13.27346 -14.06495,-3.80189 -27.64713,-12.86623 -41.19145,-22.3433 -13.54575,-2.24089 -27.347536,-4.7576 -38.259578,-2.52637 -6.465884,-2.88751 -11.677311,-1.2227 -12.728137,-1.23948"
         id="path137-3-3-9-3-2-6-6"
         inkscape:connector-curvature="0"
         sodipodi:nodetypes="cccccccc" />
      <path
         style="display:inline;fill:#37c871;stroke:none;stroke-width:2;stroke-linecap:round;stroke-linejoin:round;stroke-miterlimit:4;stroke-dasharray:none;stroke-opacity:1"
         d="m 178.07555,235.02456 c -5.45079,3.77559 -9.61989,7.25016 -16.49742,9.23343 -11.32029,-2.9795 -21.50172,-11.15587 -33.54689,-18.82066 l 8.33194,-24.737 16.0016,-5.51163 c 16.44272,5.8992 23.92898,26.65686 25.71077,39.83586 z"
         id="path158-2-9-03-8-0"
         inkscape:connector-curvature="0"
         sodipodi:nodetypes="cccccc" />
      <path
         style="display:inline;fill:#37c871;stroke:none;stroke-width:2;stroke-linecap:round;stroke-linejoin:round;stroke-miterlimit:4;stroke-dasharray:none;stroke-opacity:1"
         d="m 124.98923,197.49869 -8.81284,24.2867 c -10.10831,-2.06689 -20.354798,-3.1136 -32.841174,-1.34393 -1.421426,-0.32757 -2.624596,-0.83742 -4.324764,-1.02562 2.301869,-6.74688 6.681664,-14.65873 12.805623,-24.1997 3.469329,-2.53843 9.305035,-4.84043 16.996075,-5.86249 8.02461,0.72408 14.01873,4.52549 16.17708,8.14504 z"
         id="path158-2-9-8-9-1-5"
         inkscape:connector-curvature="0"
         sodipodi:nodetypes="ccccccc" />
      <path
         style="display:inline;fill:#37c871;stroke:none;stroke-width:2;stroke-linecap:round;stroke-linejoin:round;stroke-miterlimit:4;stroke-dasharray:none;stroke-opacity:1"
         d="m 189.52539,231.39224 c -3.51502,-15.81228 -6.54255,-31.94331 -26.96952,-42.5342 l 7.61755,-5.57583 13.53826,-0.45581 c 12.94363,7.2219 20.62797,22.89854 21.86886,40.65529 -3.18116,4.70229 -9.5905,8.25394 -16.05515,7.91055 z"
         id="path158-2-9-0-7-9-3"
         inkscape:connector-curvature="0"
         sodipodi:nodetypes="cccccc" />
      <path
         style="display:inline;fill:#37c871;stroke:none;stroke-width:2;stroke-linecap:round;stroke-linejoin:round;stroke-miterlimit:4;stroke-dasharray:none;stroke-opacity:1"
         d="m 226.96942,215.64904 c -1.6523,2.854 -4.1148,4.39299 -6.80541,5.48188 l -3.608,-0.62798 c -2.04842,-24.19618 -13.9131,-36.76947 -22.17172,-42.28632 l 3.80901,-2.14135 c 12.74724,6.98978 21.27728,22.20094 28.77612,39.57377 z"
         id="path158-2-9-4-4-1-6"
         inkscape:connector-curvature="0"
         sodipodi:nodetypes="cccccc" />
      <path
         style="display:inline;fill:#37c871;stroke:none;stroke-width:2;stroke-linecap:round;stroke-linejoin:round;stroke-miterlimit:4;stroke-dasharray:none;stroke-opacity:1"
         d="m 188.91197,169.92212 -6.96012,3.6599 c -5.44898,-0.13991 -9.39159,-0.19465 -13.82598,0.2569 -5.62379,-4.5967 -10.79572,-7.15918 -17.58684,-9.61679 1.19788,-1.74646 3.47639,-4.01051 4.92091,-5.19243 14.34018,-0.5441 23.69991,5.45209 33.45203,10.89242 z"
         id="path158-2-9-6-4-7-2"
         inkscape:connector-curvature="0"
         sodipodi:nodetypes="cccccc" />
      <path
         style="display:inline;fill:#37c871;stroke:none;stroke-width:2;stroke-linecap:round;stroke-linejoin:round;stroke-miterlimit:4;stroke-dasharray:none;stroke-opacity:1"
         d="m 149.73435,185.1481 c -6.51648,1.92375 -11.27291,3.40786 -16.40782,5.34513 -4.85394,-5.60536 -11.10513,-8.72464 -16.96701,-9.11486 2.70417,-3.7165 6.04784,-7.17907 10.33801,-10.06757 8.87092,-3.60582 22.76031,0.21106 31.25194,7.54371 z"
         id="path158-2-9-9-5-0-7"
         inkscape:connector-curvature="0"
         sodipodi:nodetypes="cccccc" />
      <path
         style="display:inline;fill:#37c871;stroke:none;stroke-width:2;stroke-linecap:round;stroke-linejoin:round;stroke-miterlimit:4;stroke-dasharray:none;stroke-opacity:1"
         d="m 95.204438,184.21072 c 2.681714,-0.68484 7.102362,-2.16481 10.501722,-2.69739 1.11427,-2.99281 3.23516,-5.97717 7.50685,-9.21463 -6.37109,3.76982 -12.44387,7.70236 -18.008572,11.91202 z"
         id="path158-2-9-5-0-8-2"
         inkscape:connector-curvature="0"
         sodipodi:nodetypes="cccc" />
      <path
         style="display:inline;fill:none;stroke:#00aa44;stroke-width:2;stroke-linecap:round;stroke-linejoin:round;stroke-miterlimit:4;stroke-dasharray:none;stroke-opacity:1"
         d="m 86.809615,191.81873 2.007144,0.61502"
         id="path141-1-8-93-8-64-1-5-0"
         inkscape:connector-curvature="0"
         sodipodi:nodetypes="cc" />
      <path
         style="display:inline;fill:none;stroke:#000000;stroke-width:2;stroke-linecap:round;stroke-linejoin:round;stroke-miterlimit:4;stroke-dasharray:none;stroke-opacity:1"
         d="m 149.89069,159.28379 c 20.86571,-2.12317 42.85233,10.56446 57.91101,25.1125 8.32839,8.04596 15.45362,21.7009 20.99044,35.29092 3.56235,5.40612 18.93007,9.21413 15.33579,13.59875 -14.97682,18.27005 -43.02094,45.19494 -63.58632,42.09518 -28.11912,-4.23833 -80.21227,-36.93631 -91.616657,-40.51918 -13.688387,-4.30044 -23.17696,0.66527 -26.370341,-1.92539 -2.686807,-2.1797 4.91648,-5.60693 6.984973,-8.48294 2.547054,-11.17417 5.899297,-20.96137 10.190615,-25.98282 10.763663,-12.59501 41.68755,-36.28976 70.16049,-39.18702 z"
         id="path137-3-3-0-6-1-9-9"
         inkscape:connector-curvature="0"
         sodipodi:nodetypes="sscsssscss" />
      <path
         sodipodi:nodetypes="ccccsssssccc"
         inkscape:connector-curvature="0"
         id="path112600-4"
         d="m 124.02571,267.5637 c -11.28375,13.07909 -26.080503,7.37723 -51.697752,3.39278 -32.834324,3.90762 -49.098419,-10.91709 -53.316823,-27.17269 1.118685,6.2623 14.08064,12.65866 32.119992,1.32692 -4.254548,2.38491 -13.916392,-6.72817 -21.780864,-10.58476 -3.738588,-1.83334 -6.524431,1.38504 -8.62932,0.99921 -1.009238,-0.18499 -2.332004,-3.16403 -2.656748,-4.22077 -3.021624,-9.83258 6.112185,-23.21183 21.604118,-23.41306 8.159701,-0.10599 17.781199,4.21124 24.14154,8.48909 10.633333,7.1518 19.405096,19.29249 30.50906,20.79893 l -3.587656,4.24062 z"
         style="display:inline;fill:#b7c8be;stroke:none;stroke-width:2;stroke-linecap:round;stroke-linejoin:round;stroke-miterlimit:4;stroke-dasharray:none;stroke-opacity:1" />
      <path
         style="display:inline;fill:none;stroke:#000000;stroke-width:2;stroke-linecap:round;stroke-linejoin:round;stroke-miterlimit:4;stroke-dasharray:none;stroke-opacity:1"
         d="m 124.02571,267.5637 c -11.28375,13.07909 -26.080503,7.37723 -51.697752,3.39278 -32.834324,3.90762 -49.098419,-10.91709 -53.316823,-27.17269 -0.534244,-2.05872 -0.513014,-6.82137 8.138515,-5.38538 l -3.859466,-3.28046"
         id="path112600"
         inkscape:connector-curvature="0"
         sodipodi:nodetypes="ccccc" />
      <path
         style="display:inline;fill:#b7c8be;stroke:none;stroke-width:2;stroke-linecap:round;stroke-linejoin:round;stroke-miterlimit:4;stroke-dasharray:none;stroke-opacity:1"
         d="m 154.00073,266.96733 c 10.09837,10.98159 44.20317,23.42199 31.63657,30.4476 -13.68097,7.64864 -57.25471,12.42066 -73.38167,1.79238 -9.79556,-6.45565 -25.857352,-27.36162 -16.294131,-35.89646 3.499617,-3.12333 11.157381,-6.42003 20.002621,-6.93662 l 36.62098,14.50742 z"
         id="path141-1-8-8-3-9-7-1-7-5"
         inkscape:connector-curvature="0"
         sodipodi:nodetypes="csssccc" />
      <path
         sodipodi:nodetypes="ccsssssc"
         inkscape:connector-curvature="0"
         id="path141-1-8-8-3-3-6-3-5-7"
         d="m 19.011135,243.78379 c 1.118685,6.2623 14.08064,12.65866 32.119992,1.32692 -4.254548,2.38491 -13.916392,-6.72817 -21.780864,-10.58476 -3.738588,-1.83334 -6.524431,1.38504 -8.62932,0.99921 -1.009238,-0.18499 -2.332004,-3.16403 -2.656748,-4.22077 -3.021624,-9.83258 6.112185,-23.21183 21.604118,-23.41306 8.159701,-0.10599 17.781199,4.21124 24.14154,8.48909 10.633333,7.1518 19.405096,19.29249 30.50906,20.79893"
         style="display:inline;fill:none;stroke:#000000;stroke-width:2;stroke-linecap:round;stroke-linejoin:round;stroke-miterlimit:4;stroke-dasharray:none;stroke-opacity:1" />
      <path
         inkscape:connector-curvature="0"
         id="path32547-6-6-8"
         d="m 34.460702,228.56317 c -3.294902,0.17447 -1.841122,-12.11512 1.803494,-10.04326 3.274327,1.86136 1.811939,9.85182 -1.803494,10.04326 z"
         style="display:inline;opacity:1;fill:#000000;fill-opacity:1;stroke:none;stroke-width:2;stroke-linecap:round;stroke-linejoin:round;stroke-miterlimit:4;stroke-dasharray:none;stroke-dashoffset:0;stroke-opacity:1"
         sodipodi:nodetypes="sss" />
      <path
         style="display:inline;fill:none;stroke:#000000;stroke-width:2;stroke-linecap:round;stroke-linejoin:round;stroke-miterlimit:4;stroke-dasharray:none;stroke-opacity:1"
         d="m 154.00074,266.96733 c 10.09837,10.98159 44.20316,23.42199 31.63656,30.4476 -13.68097,7.64864 -57.25471,12.42066 -73.38166,1.79238 -9.79556,-6.45565 -25.857351,-27.36162 -16.294141,-35.89646 3.499617,-3.12333 11.157381,-6.42003 20.002621,-6.93662"
         id="path141-1-8-8-3-9-7-0-4"
         inkscape:connector-curvature="0"
         sodipodi:nodetypes="csssc" />
      <path
         sodipodi:nodetypes="sss"
         style="display:inline;opacity:1;fill:#000000;fill-opacity:1;stroke:none;stroke-width:2;stroke-linecap:round;stroke-linejoin:round;stroke-miterlimit:4;stroke-dasharray:none;stroke-dashoffset:0;stroke-opacity:1"
         d="m 22.211368,225.51584 c -2.34554,-2.25236 -0.204463,-9.25042 1.913362,-9.80611 3.568732,-0.93638 0.408878,12.0361 -1.913362,9.80611 z"
         id="path32547-6-6-8-1"
         inkscape:connector-curvature="0" />
    </g>
  </g>
  <g
     inkscape:groupmode="layer"
     id="layer3"
     inkscape:label="豚"
     style="display:inline"
     sodipodi:insensitive="true">
    <path
       style="display:inline;fill:#fefefe;fill-opacity:1;stroke:#000000;stroke-width:2;stroke-linecap:round;stroke-linejoin:round"
       d="m 352.32218,64.269593 c 0,21.819506 -26.50552,40.456747 -63.86853,47.868137 -6.15708,1.22135 -23.35634,18.58945 -34.10967,24.48768 2.37575,-9.21127 3.86287,-21.06545 -1.80161,-21.06545 -55.10686,0 -99.7798,-22.963476 -99.7798,-51.290367 0,-28.326875 44.67294,-51.290366 99.7798,-51.290366 55.10687,0 99.77981,22.963491 99.77981,51.290366 z"
       id="path23824"
       inkscape:connector-curvature="0"
       sodipodi:nodetypes="sscssss" />
    <text
       xml:space="preserve"
       style="font-style:normal;font-weight:normal;font-size:10.65781689px;line-height:1.10000002;font-family:sans-serif;letter-spacing:0px;word-spacing:0px;writing-mode:lr-tb;display:inline;fill:#000000;fill-opacity:1;stroke:none;stroke-width:2;stroke-linecap:round"
       x="167.46414"
       y="53.923405"
       id="text13157"><tspan
         sodipodi:role="line"
         x="167.46414"
         y="53.923405"
         style="font-size:25.69251442px;line-height:1.10000002;font-family:sans-serif;stroke-width:2;stroke-linecap:round"
         id="tspan3347">　全く君は</tspan><tspan
         sodipodi:role="line"
         x="167.46414"
         y="82.185173"
         style="font-size:25.69251442px;line-height:1.10000002;font-family:sans-serif;stroke-width:2;stroke-linecap:round"
         id="tspan100248">お人好しだな。</tspan></text>
    <path
       style="display:inline;opacity:0.5;fill:#000000;stroke:none;stroke-width:2;stroke-linecap:round;stroke-linejoin:miter;stroke-opacity:1"
       d="m 75.175451,203.90734 c 2.758585,-10.07703 128.472849,-37.6818 124.790369,-25.55649 -2.47232,8.14061 -8.71322,12.83182 -17.73769,14.93075 -19.30714,4.49049 -20.03847,1.62379 -36.89743,5.28814 -11.31705,2.45979 -29.30445,18.07884 -43.55814,18.05326 -10.533193,-0.0189 -12.152126,-7.72905 -16.929281,-7.0871 -5.932791,0.79724 -11.043749,-0.60235 -9.667828,-5.62856 z"
       id="path634-2"
       inkscape:connector-curvature="0"
       sodipodi:nodetypes="sssssss" />
    <path
       style="display:inline;fill:#fffefc;fill-opacity:1;stroke:#000000;stroke-width:2;stroke-linecap:round;stroke-linejoin:miter;stroke-opacity:1"
       d="M 95.68778,201.21381 C 80.041807,210.1476 68.050535,207.20079 76.060381,181.58465 L 66.575793,109.98813 C 56.001273,97.58995 63.162428,73.182289 66.84244,69.40485 73.338525,62.73678 87.534427,87.933968 87.521166,97.605868 l 88.424254,51.159542 -6.75546,33.86116 c -9.20203,6.97604 -48.65317,23.39736 -60.24026,17.42948"
       id="path624"
       inkscape:connector-curvature="0"
       sodipodi:nodetypes="cccscccc" />
    <path
       style="display:inline;fill:#fffefc;fill-opacity:1;stroke:#000000;stroke-width:2;stroke-linecap:round;stroke-linejoin:miter;stroke-opacity:1"
       d="M 80.353708,184.13191 C 49.568101,172.60026 43.593106,152.49216 53.088657,135.37573 c 0.504967,-9.64793 7.224898,-21.94425 14.83029,-28.59586"
       id="path628-3"
       inkscape:connector-curvature="0"
       sodipodi:nodetypes="ccc" />
    <path
       style="display:inline;fill:#aa0000;stroke:none;stroke-width:2;stroke-linecap:round;stroke-linejoin:miter;stroke-opacity:1"
       d="m 67.710816,158.67656 c 8.107922,4.14416 17.621083,9.5698 17.621083,9.5698 0.731864,7.61089 -14.535228,7.88133 -23.994165,-3.53907 0,0 5.017258,-3.1193 6.373082,-6.03073 z"
       id="path620-7"
       inkscape:connector-curvature="0"
       sodipodi:nodetypes="cccc" />
    <circle
       style="display:inline;opacity:1;fill:#fffefc;fill-opacity:1;stroke:#000000;stroke-width:2;stroke-linecap:round;stroke-linejoin:round;stroke-miterlimit:4;stroke-dasharray:none;stroke-opacity:1"
       id="path642"
       cx="-164.21147"
       cy="185.39384"
       r="19.484991"
       transform="matrix(-0.97914193,0.20317744,0.20317744,0.97914193,0,0)" />
    <path
       style="display:inline;fill:#fffefc;fill-opacity:1;stroke:#000000;stroke-width:2;stroke-linecap:round;stroke-linejoin:miter;stroke-opacity:1"
       d="m 81.361559,98.928894 c 6.576813,-5.620628 21.538831,-8.667128 42.226701,0.108678 38.16852,-17.531344 61.6475,-3.778809 75.20563,16.210438 9.97176,14.70173 18.28233,58.34271 -11.32468,70.63377 -8.69628,3.61016 -20.37307,5.92368 -26.11156,7.24924 -8.39101,1.93829 -9.37754,-15.33488 5.26311,-26.3946"
       id="path608"
       inkscape:connector-curvature="0"
       sodipodi:nodetypes="ccsssc" />
    <path
       style="display:inline;fill:#d40000;stroke:#000000;stroke-width:2;stroke-linecap:round;stroke-linejoin:miter;stroke-opacity:1"
       d="m 90.948481,131.01242 c -11.178498,-0.55771 -15.083553,3.04343 -13.519065,12.0669 7.919279,1.24363 13.78284,-0.74882 13.519065,-12.0669 z"
       id="path612"
       inkscape:connector-curvature="0"
       sodipodi:nodetypes="ccc" />
    <path
       style="display:inline;fill:#d40000;stroke:#000000;stroke-width:2;stroke-linecap:round;stroke-linejoin:miter;stroke-opacity:1"
       d="m 60.544851,142.03102 c -4.617997,-1.56483 -7.091776,-4.73121 -4.55651,-11.63894 3.186072,3.56338 4.370371,7.50649 4.55651,11.63894 z"
       id="path614"
       inkscape:connector-curvature="0"
       sodipodi:nodetypes="ccc" />
    <path
       style="display:inline;fill:none;stroke:#000000;stroke-width:2;stroke-linecap:round;stroke-linejoin:miter;stroke-opacity:1"
       d="m 73.545689,146.56678 c -2.534116,2.74217 -5.418857,5.30388 -7.77471,6.22602 -3.315208,-1.62173 -4.996825,-4.64971 -5.032413,-6.89357"
       id="path616"
       inkscape:connector-curvature="0"
       sodipodi:nodetypes="ccc" />
    <path
       style="display:inline;fill:none;stroke:#000000;stroke-width:2;stroke-linecap:round;stroke-linejoin:miter;stroke-opacity:1"
       d="m 65.770979,152.7928 1.939837,5.88376"
       id="path618"
       inkscape:connector-curvature="0"
       sodipodi:nodetypes="cc" />
    <path
       style="display:inline;fill:none;stroke:#000000;stroke-width:2;stroke-linecap:round;stroke-linejoin:miter;stroke-opacity:1"
       d="m 91.442821,153.53118 c 8.3771,7.43464 2.702526,15.06095 -3.151641,15.08473 -4.886916,0.0199 -12.472442,-5.79519 -20.580364,-9.93935 -2.503181,2.41971 -5.529609,5.76293 -7.413015,6.98559 -2.714037,1.76186 -10.08832,-2.89762 -6.833836,-11.10498"
       id="path620"
       inkscape:connector-curvature="0"
       sodipodi:nodetypes="cscsc" />
    <path
       style="display:inline;fill:none;stroke:#000000;stroke-width:2;stroke-linecap:round;stroke-linejoin:miter;stroke-opacity:1"
       d="m 85.331899,168.24636 c 0.731864,7.61089 -13.633733,8.37305 -23.994165,-3.53907"
       id="path622"
       inkscape:connector-curvature="0"
       sodipodi:nodetypes="cc" />
    <path
       style="display:inline;fill:none;stroke:#000000;stroke-width:2;stroke-linecap:round;stroke-linejoin:miter;stroke-opacity:1"
       d="m 87.081329,156.07337 c 10.382093,-1.16987 21.832591,-0.95041 34.394891,0.71469"
       id="path634"
       inkscape:connector-curvature="0"
       sodipodi:nodetypes="cc" />
    <path
       style="display:inline;fill:none;stroke:#000000;stroke-width:2;stroke-linecap:round;stroke-linejoin:miter;stroke-opacity:1"
       d="m 87.272589,160.28824 c 10.180819,2.40175 20.459191,5.09936 31.238281,9.31563"
       id="path636"
       inkscape:connector-curvature="0"
       sodipodi:nodetypes="cc" />
    <path
       style="display:inline;fill:none;stroke:#000000;stroke-width:2;stroke-linecap:round;stroke-linejoin:miter;stroke-opacity:1"
       d="m 54.646917,155.40309 c -4.541527,2.31606 -9.08646,4.28023 -13.610108,8.45479"
       id="path638"
       inkscape:connector-curvature="0"
       sodipodi:nodetypes="cc" />
    <path
       style="display:inline;fill:none;stroke:#000000;stroke-width:2;stroke-linecap:round;stroke-linejoin:miter;stroke-opacity:1"
       d="m 57.344558,161.34811 c -5.005441,4.01547 -8.176129,10.10266 -9.866206,15.31735"
       id="path640"
       inkscape:connector-curvature="0"
       sodipodi:nodetypes="cc" />
    <path
       style="display:inline;fill:#fffefc;fill-opacity:1;stroke:#000000;stroke-width:2;stroke-linecap:round;stroke-linejoin:miter;stroke-opacity:1"
       d="m 92.047825,100.31757 c 7.89652,-19.476051 24.198835,-33.631998 43.480425,-35.947742 12.11839,-1.455434 4.30885,37.194962 -16.6464,46.389162"
       id="path610"
       inkscape:connector-curvature="0"
       sodipodi:nodetypes="csc" />
    <path
       style="display:inline;fill:#fffefc;fill-opacity:1;stroke:#000000;stroke-width:2;stroke-linecap:round;stroke-linejoin:miter;stroke-opacity:1"
       d="m 98.930444,174.57308 c -5.974123,9.09702 -10.830901,31.14536 -3.897752,34.33444 9.909948,4.55836 22.326218,-2.41198 32.314128,-9.43591"
       id="path626"
       inkscape:connector-curvature="0"
       sodipodi:nodetypes="csc" />
    <path
       style="display:inline;fill:none;stroke:#000000;stroke-width:2;stroke-linecap:round;stroke-linejoin:miter;stroke-opacity:1"
       d="m 85.337946,164.33611 c 9.47499,4.57504 19.182604,8.30679 28.134744,14.77719"
       id="path636-5"
       inkscape:connector-curvature="0"
       sodipodi:nodetypes="cc" />
    <path
       style="display:inline;fill:none;stroke:#000000;stroke-width:2;stroke-linecap:round;stroke-linejoin:miter;stroke-opacity:1"
       d="m 54.451054,151.13629 c -5.442251,-0.58834 -11.456018,0.49209 -17.849269,2.68057"
       id="path638-0"
       inkscape:connector-curvature="0"
       sodipodi:nodetypes="cc" />
    <path
       style="display:inline;fill:#ff8080;fill-opacity:1;stroke:#000000;stroke-width:2;stroke-linecap:round;stroke-linejoin:miter;stroke-opacity:1"
       d="m 133.76135,68.893803 c 11.96721,-2.39996 -2.17307,32.982557 -24.91217,37.111707 -12.618853,-15.094257 13.22974,-34.768851 24.91217,-37.111707 z"
       id="path610-8"
       inkscape:connector-curvature="0"
       sodipodi:nodetypes="scs" />
  </g>
  <g
     inkscape:groupmode="layer"
     id="layer7"
     inkscape:label="枠面"
     style="display:inline"
     sodipodi:insensitive="true">
    <path
       style="fill:#ffffff;stroke:none;display:inline"
       d="m 0,0 0,320 370,0 0,-320 -10,10 0,300 -350,0 0,-300 350,0 10,-10 z"
       id="path21072"
       inkscape:connector-curvature="0"
       sodipodi:nodetypes="ccccccccccc" />
  </g>
</svg>
