<?xml version="1.0" encoding="UTF-8" standalone="no"?>
<!-- Created with Inkscape (http://www.inkscape.org/) -->

<svg
   xmlns:dc="http://purl.org/dc/elements/1.1/"
   xmlns:cc="http://creativecommons.org/ns#"
   xmlns:rdf="http://www.w3.org/1999/02/22-rdf-syntax-ns#"
   xmlns:svg="http://www.w3.org/2000/svg"
   xmlns="http://www.w3.org/2000/svg"
   xmlns:xlink="http://www.w3.org/1999/xlink"
   xmlns:sodipodi="http://sodipodi.sourceforge.net/DTD/sodipodi-0.dtd"
   xmlns:inkscape="http://www.inkscape.org/namespaces/inkscape"
   width="370"
   height="320"
   id="svg2"
   version="1.1"
   inkscape:version="0.92.3 (2405546, 2018-03-11)"
   sodipodi:docname="[14]打開.svg"
   inkscape:export-filename="C:\Users\zhen-\Desktop\資料\臨時\因幡\第0次\展開\14.png"
   inkscape:export-xdpi="96"
   inkscape:export-ydpi="96"
   enable-background="new">
  <defs
     id="defs4">
    <inkscape:perspective
       sodipodi:type="inkscape:persp3d"
       inkscape:vp_x="363.49708 : 943.81603 : 1"
       inkscape:vp_y="0 : 1000 : 0"
       inkscape:vp_z="744.09448 : 526.18109 : 1"
       inkscape:persp3d-origin="372.04724 : 350.78739 : 1"
       id="perspective5056" />
    <inkscape:perspective
       id="perspective5056-8"
       inkscape:persp3d-origin="372.04724 : 350.78739 : 1"
       inkscape:vp_z="744.09448 : 526.18109 : 1"
       inkscape:vp_y="0 : 1000 : 0"
       inkscape:vp_x="363.49708 : 943.81603 : 1"
       sodipodi:type="inkscape:persp3d" />
    <linearGradient
       id="linearGradient12499-5-3"
       inkscape:collect="always">
      <stop
         id="stop12501-0-8"
         offset="0"
         style="stop-color:#ffd5d5;stop-opacity:1;" />
      <stop
         id="stop12503-9-9"
         offset="1"
         style="stop-color:#ffd5d5;stop-opacity:0;" />
    </linearGradient>
    <linearGradient
       id="linearGradient12499-5"
       inkscape:collect="always">
      <stop
         id="stop12501-0"
         offset="0"
         style="stop-color:#ffd5d5;stop-opacity:1;" />
      <stop
         id="stop12503-9"
         offset="1"
         style="stop-color:#ffd5d5;stop-opacity:0;" />
    </linearGradient>
    <linearGradient
       id="linearGradient12499-8"
       inkscape:collect="always">
      <stop
         id="stop12501-6"
         offset="0"
         style="stop-color:#ffd5d5;stop-opacity:1;" />
      <stop
         id="stop12503-0"
         offset="1"
         style="stop-color:#ffd5d5;stop-opacity:0;" />
    </linearGradient>
    <linearGradient
       gradientTransform="translate(0,-7)"
       gradientUnits="userSpaceOnUse"
       y2="78.526123"
       x2="178.78178"
       y1="135.02612"
       x1="175.8602"
       id="linearGradient12505-2"
       xlink:href="#linearGradient12499-8"
       inkscape:collect="always" />
    <linearGradient
       id="linearGradient12499-9"
       inkscape:collect="always">
      <stop
         id="stop12501-8"
         offset="0"
         style="stop-color:#ffd5d5;stop-opacity:1;" />
      <stop
         id="stop12503-6"
         offset="1"
         style="stop-color:#ffd5d5;stop-opacity:0;" />
    </linearGradient>
    <linearGradient
       gradientTransform="translate(0,-7)"
       gradientUnits="userSpaceOnUse"
       y2="78.526123"
       x2="178.78178"
       y1="135.02612"
       x1="175.8602"
       id="linearGradient12505-1"
       xlink:href="#linearGradient12499-9"
       inkscape:collect="always" />
    <inkscape:perspective
       id="perspective5056-5"
       inkscape:persp3d-origin="372.04724 : 350.78739 : 1"
       inkscape:vp_z="744.09448 : 526.18109 : 1"
       inkscape:vp_y="0 : 1000 : 0"
       inkscape:vp_x="363.49708 : 943.81603 : 1"
       sodipodi:type="inkscape:persp3d" />
    <linearGradient
       id="linearGradient12499"
       inkscape:collect="always">
      <stop
         id="stop12501"
         offset="0"
         style="stop-color:#ffd5d5;stop-opacity:1;" />
      <stop
         id="stop12503"
         offset="1"
         style="stop-color:#ffd5d5;stop-opacity:0;" />
    </linearGradient>
    <linearGradient
       inkscape:collect="always"
       xlink:href="#linearGradient12499"
       id="linearGradient4842"
       gradientUnits="userSpaceOnUse"
       gradientTransform="matrix(0.98323667,-0.18233388,0.18233388,0.98323667,74.736688,42.602255)"
       x1="175.8602"
       y1="135.02612"
       x2="180.12286"
       y2="104.20104" />
    <linearGradient
       inkscape:collect="always"
       xlink:href="#linearGradient12499-5"
       id="linearGradient4848"
       gradientUnits="userSpaceOnUse"
       gradientTransform="matrix(0.99586062,-0.09089341,0.09089341,0.99586062,90.234074,51.049697)"
       x1="184.3886"
       y1="140.77484"
       x2="178.00351"
       y2="106.50191" />
    <linearGradient
       inkscape:collect="always"
       xlink:href="#linearGradient12499-5-3"
       id="linearGradient4854"
       gradientUnits="userSpaceOnUse"
       gradientTransform="matrix(0.99850313,0.05469451,-0.05469451,0.99850313,114.06992,56.176849)"
       x1="186.74098"
       y1="139.74136"
       x2="168.63582"
       y2="87.2258" />
    <inkscape:perspective
       sodipodi:type="inkscape:persp3d"
       inkscape:vp_x="363.49708 : 943.81603 : 1"
       inkscape:vp_y="0 : 1000 : 0"
       inkscape:vp_z="744.09448 : 526.18109 : 1"
       inkscape:persp3d-origin="372.04724 : 350.78739 : 1"
       id="perspective5056-4" />
    <inkscape:perspective
       sodipodi:type="inkscape:persp3d"
       inkscape:vp_x="363.49708 : 943.81603 : 1"
       inkscape:vp_y="0 : 1000 : 0"
       inkscape:vp_z="744.09448 : 526.18109 : 1"
       inkscape:persp3d-origin="372.04724 : 350.78739 : 1"
       id="perspective5056-8-7" />
    <inkscape:perspective
       id="perspective5056-85"
       inkscape:persp3d-origin="372.04724 : 350.78739 : 1"
       inkscape:vp_z="744.09448 : 526.18109 : 1"
       inkscape:vp_y="0 : 1000 : 0"
       inkscape:vp_x="363.49708 : 943.81603 : 1"
       sodipodi:type="inkscape:persp3d" />
    <inkscape:perspective
       sodipodi:type="inkscape:persp3d"
       inkscape:vp_x="363.49708 : 943.81603 : 1"
       inkscape:vp_y="0 : 1000 : 0"
       inkscape:vp_z="744.09448 : 526.18109 : 1"
       inkscape:persp3d-origin="372.04724 : 350.78739 : 1"
       id="perspective5056-4-2" />
    <inkscape:perspective
       sodipodi:type="inkscape:persp3d"
       inkscape:vp_x="363.49708 : 943.81603 : 1"
       inkscape:vp_y="0 : 1000 : 0"
       inkscape:vp_z="744.09448 : 526.18109 : 1"
       inkscape:persp3d-origin="372.04724 : 350.78739 : 1"
       id="perspective5056-8-4" />
    <inkscape:perspective
       id="perspective5056-1"
       inkscape:persp3d-origin="372.04724 : 350.78739 : 1"
       inkscape:vp_z="744.09448 : 526.18109 : 1"
       inkscape:vp_y="0 : 1000 : 0"
       inkscape:vp_x="363.49708 : 943.81603 : 1"
       sodipodi:type="inkscape:persp3d" />
  </defs>
  <sodipodi:namedview
     id="base"
     pagecolor="#ffffff"
     bordercolor="#666666"
     borderopacity="1.0"
     inkscape:pageopacity="0.0"
     inkscape:pageshadow="2"
     inkscape:zoom="1.2537014"
     inkscape:cx="-175.63351"
     inkscape:cy="38.244486"
     inkscape:document-units="px"
     inkscape:current-layer="layer3"
     showgrid="false"
     inkscape:window-width="1625"
     inkscape:window-height="989"
     inkscape:window-x="-7"
     inkscape:window-y="-5"
     inkscape:window-maximized="0"
     showguides="true"
     inkscape:guide-bbox="true"
     inkscape:snap-grids="false"
     inkscape:snap-to-guides="false"
     showborder="true"
     inkscape:showpageshadow="false"
     fit-margin-top="0"
     fit-margin-left="0"
     fit-margin-right="0"
     fit-margin-bottom="0"
     inkscape:snap-page="false"
     inkscape:snap-global="false" />
  <metadata
     id="metadata7">
    <rdf:RDF>
      <cc:Work
         rdf:about="">
        <dc:format>image/svg+xml</dc:format>
        <dc:type
           rdf:resource="http://purl.org/dc/dcmitype/StillImage" />
        <dc:title />
      </cc:Work>
    </rdf:RDF>
  </metadata>
  <g
     inkscape:groupmode="layer"
     id="layer2"
     inkscape:label="補助線"
     style="display:none"
     sodipodi:insensitive="true">
    <path
       style="fill:none;stroke:#0000ff;stroke-width:1px;stroke-linecap:butt;stroke-linejoin:miter;stroke-opacity:1"
       d="M 10,310 360,10"
       id="path3025"
       inkscape:connector-curvature="0"
       sodipodi:nodetypes="cc" />
    <path
       style="fill:none;stroke:#0000ff;stroke-width:1px;stroke-linecap:butt;stroke-linejoin:miter;stroke-opacity:1"
       d="M 10,10 360,310"
       id="path3027"
       inkscape:connector-curvature="0"
       sodipodi:nodetypes="cc" />
    <path
       style="display:inline;fill:none;stroke:#ff0000;stroke-width:1px;stroke-linecap:butt;stroke-linejoin:miter;stroke-opacity:1"
       d="M 10,0 V 320"
       id="path3006"
       inkscape:connector-curvature="0"
       sodipodi:nodetypes="cc" />
    <path
       style="display:inline;fill:none;stroke:#ff0000;stroke-width:1px;stroke-linecap:butt;stroke-linejoin:miter;stroke-opacity:1"
       d="M 360,0 V 320"
       id="path3010"
       inkscape:connector-curvature="0"
       sodipodi:nodetypes="cc" />
    <path
       style="display:inline;fill:none;stroke:#ff0000;stroke-width:1px;stroke-linecap:butt;stroke-linejoin:miter;stroke-opacity:1"
       d="M 0,9.9999681 370,10"
       id="path3016"
       inkscape:connector-curvature="0" />
    <path
       transform="translate(84.715796,27.711696)"
       style="display:inline;fill:none;stroke:#ff0000;stroke-width:1px;stroke-linecap:butt;stroke-linejoin:miter;stroke-opacity:1"
       d="M -84.715796,282.2883 H 285.2842"
       id="path3018"
       inkscape:connector-curvature="0"
       sodipodi:nodetypes="cc" />
  </g>
  <g
     inkscape:groupmode="layer"
     id="layer3"
     inkscape:label="豚"
     style="display:inline"
     sodipodi:insensitive="true">
    <path
       sodipodi:nodetypes="sssssssss"
       inkscape:connector-curvature="0"
       id="path638-5-8"
       d="M 24.229313,269.99429 C -2.6183835,248.90646 90.992554,211.27944 48.462431,193.79617 17.122943,180.91315 129.36715,147.02092 107.61248,139.53663 68.099704,125.94299 201.55765,98.414583 174.19984,89.076463 140.80588,77.678003 244.86966,49.763847 332.69037,67.926715 c 58.08203,12.012386 -38.01544,42.188855 -6.97633,52.632215 42.49729,14.29856 -47.52791,57.69023 -21.67719,65.65732 73.72592,22.72203 -43.64782,38.93476 22.98148,68.82558 97.52888,43.7528 -253.876577,53.3713 -302.789017,14.95246 z"
       style="display:inline;fill:#3771c8;stroke:none;stroke-width:2;stroke-linecap:round;stroke-linejoin:round;stroke-opacity:1" />
    <path
       sodipodi:nodetypes="scccss"
       inkscape:connector-curvature="0"
       id="path638-5-6-7-7-5"
       d="m 253.1157,68.841693 c 4.54847,-6.495304 20.51564,-11.94547 28.79755,-14.75508 3.53457,-7.030783 -1.63789,-20.754176 -1.63789,-20.754176 7.14186,0.895668 19.23239,5.672581 29.64408,19.744754 12.967,5.871926 31.54618,7.958297 43.07179,16.916644 6.32867,4.919002 -104.20708,5.033421 -99.87553,-1.152142 z"
       style="display:inline;fill:#6f7c91;stroke:#000000;stroke-width:2;stroke-linecap:round;stroke-linejoin:round;stroke-opacity:1" />
    <path
       sodipodi:nodetypes="scccss"
       inkscape:connector-curvature="0"
       id="path638-5-6-7-7"
       d="m 205.32485,104.84803 c 5.75339,-8.215939 25.95035,-15.109885 36.42618,-18.663776 4.47089,-8.893277 -2.07177,-26.252073 -2.07177,-26.252073 9.03378,1.132936 24.32716,7.175279 37.49696,24.975249 16.40203,7.427432 39.90294,10.066494 54.48175,21.39795 8.00516,6.22208 -131.81212,6.36681 -126.33312,-1.45735 z"
       style="display:inline;fill:#6f7c91;stroke:#000000;stroke-width:2;stroke-linecap:round;stroke-linejoin:round;stroke-opacity:1" />
    <path
       sodipodi:nodetypes="scccss"
       inkscape:connector-curvature="0"
       id="path638-5-6-7"
       d="m 144.55182,140.7739 c 7.10923,-10.15214 32.06585,-18.67072 45.01044,-23.06213 5.52451,-10.98908 -2.56001,-32.438673 -2.56001,-32.438673 11.16269,1.399925 30.06014,8.866218 46.33356,30.860953 20.26737,9.17779 49.30656,12.43878 67.32103,26.44065 9.89166,7.68837 -162.87521,7.8672 -156.10502,-1.8008 z"
       style="display:inline;fill:#6f7c91;stroke:#000000;stroke-width:2;stroke-linecap:round;stroke-linejoin:round;stroke-opacity:1" />
    <path
       style="fill:#fefefe;fill-opacity:1;stroke:#000000;stroke-width:2;stroke-linecap:round;stroke-linejoin:round"
       d="m 12.569947,61.756052 c 0,15.071869 23.90482,27.945607 57.60182,33.065037 5.55295,0.843643 21.06464,12.840701 30.762873,16.914911 -2.142653,-6.36271 -3.483853,-14.550998 1.62484,-14.550998 49.69984,0 89.98953,-15.862084 89.98953,-35.42895 0,-19.566868 -40.28969,-35.428949 -89.98953,-35.428949 -49.699843,0 -89.989533,15.862081 -89.989533,35.428949 z"
       id="path23824"
       inkscape:connector-curvature="0"
       sodipodi:nodetypes="sscssss" />
    <text
       xml:space="preserve"
       style="font-style:normal;font-weight:normal;font-size:10.35472012px;line-height:0%;font-family:sans-serif;letter-spacing:0px;word-spacing:0px;writing-mode:lr-tb;display:inline;fill:#000000;fill-opacity:1;stroke:none;stroke-width:2;stroke-linejoin:round"
       x="34.53503"
       y="69.593613"
       id="text13157"><tspan
         sodipodi:role="line"
         x="34.53503"
         y="69.593613"
         style="font-size:24.96184731px;line-height:1.25;font-family:sans-serif;stroke-width:2;stroke-linejoin:round"
         id="tspan5934">道は開けた。</tspan></text>
    <path
       sodipodi:nodetypes="scccss"
       inkscape:connector-curvature="0"
       id="path638-5-6"
       d="m 71.335584,179.05327 c 8.392805,-11.98512 37.855406,-22.04175 53.137176,-27.22604 6.52196,-12.97319 -3.02223,-38.29556 -3.02223,-38.29556 13.17814,1.65268 35.48757,10.46703 54.69919,36.43297 23.92669,10.83487 58.20897,14.68463 79.47599,31.21457 11.67763,9.07653 -192.282704,9.28765 -184.290126,-2.12594 z"
       style="display:inline;fill:#6f7c91;stroke:#000000;stroke-width:2;stroke-linecap:round;stroke-linejoin:round;stroke-opacity:1" />
    <g
       id="g33647"
       style="display:inline;stroke-width:3.47583318"
       transform="matrix(0.5754016,0,0,0.5754016,22.18632,108.52121)">
      <path
         sodipodi:nodetypes="scscs"
         inkscape:connector-curvature="0"
         id="path109419-28-1-1"
         d="m 171.46065,294.28855 c -79.54036,0 -144.02057,-11.16419 -144.02057,-24.93595 0,-13.77177 64.48021,-88.14987 144.02057,-88.14987 79.54036,0 144.02057,74.3781 144.02057,88.14987 0,13.77176 -64.48021,24.93595 -144.02057,24.93595 z"
         style="display:inline;opacity:1;fill:#afe9af;fill-opacity:1;stroke:none;stroke-width:3.47583318;stroke-linecap:round;stroke-linejoin:round;stroke-miterlimit:4;stroke-dasharray:none;stroke-dashoffset:0;stroke-opacity:1" />
      <path
         sodipodi:nodetypes="zcsssssssscz"
         inkscape:connector-curvature="0"
         id="path109419-28-1-9"
         d="m 171.46066,181.20273 c 57.26176,0 102.91304,39.85284 102.91304,39.85284 0.31756,1.61199 0.14839,3.17864 -0.66109,4.58476 -4.41662,7.67196 -17.34056,-10.39004 -25.57755,-7.14696 -7.00376,2.75753 -4.73613,16.58619 -11.76744,19.27271 -12.89658,4.92751 -25.87556,-12.79022 -39.65591,-11.95106 -13.18407,0.80285 -23.08132,16.63393 -36.27225,15.95312 -11.48786,-0.59291 -18.58383,-15.58865 -29.99098,-17.07169 -13.69256,-1.78017 -28.63625,18.38703 -40.042661,10.60571 -5.40752,-3.68895 3.23051,-15.92098 -2.24436,-19.50923 -6.08277,-3.98667 -17.791553,12.95204 -20.870007,6.36289 0,0 46.907448,-40.95309 104.169208,-40.95309 z"
         style="display:inline;opacity:1;fill:#37c837;fill-opacity:1;stroke:none;stroke-width:3.47583318;stroke-linecap:round;stroke-linejoin:round;stroke-miterlimit:4;stroke-dasharray:none;stroke-dashoffset:0;stroke-opacity:1" />
      <path
         sodipodi:nodetypes="scscs"
         inkscape:connector-curvature="0"
         id="path109419-28-1"
         d="m 171.46065,294.28855 c -79.540358,0 -144.020568,-11.16419 -144.020568,-24.93595 0,-13.77177 64.48021,-88.14987 144.020568,-88.14987 79.54036,0 144.02057,74.3781 144.02057,88.14987 0,13.77176 -64.48021,24.93595 -144.02057,24.93595 z"
         style="display:inline;opacity:1;fill:none;fill-opacity:1;stroke:#000000;stroke-width:3.47583318;stroke-linecap:round;stroke-linejoin:round;stroke-miterlimit:4;stroke-dasharray:none;stroke-dashoffset:0;stroke-opacity:1" />
    </g>
    <g
       id="g5667"
       transform="matrix(0.72738402,0,0,0.72738402,212.88814,-17.329886)"
       style="stroke-width:2.74957919">
      <path
         sodipodi:nodetypes="cc"
         inkscape:connector-curvature="0"
         id="path638-5"
         d="m -48.967845,252.01675 c 1.77403,-0.58974 9.40759,-3.14101 14.0027,-4.53677"
         style="display:inline;fill:none;stroke:#000000;stroke-width:2.74957919;stroke-linecap:round;stroke-linejoin:round;stroke-opacity:1" />
      <path
         sodipodi:nodetypes="cc"
         inkscape:connector-curvature="0"
         id="path640-3"
         d="m -47.430407,259.51155 c 3.151392,-0.42748 8.030177,-0.33581 12.154753,0.50164"
         style="display:inline;fill:none;stroke:#000000;stroke-width:2.74957919;stroke-linecap:round;stroke-linejoin:round;stroke-opacity:1" />
      <path
         sodipodi:nodetypes="cc"
         inkscape:connector-curvature="0"
         id="path640-3-0"
         d="m -47.967845,267.5284 c 2.706518,0.78712 7.525792,2.34697 11.21679,4.88417"
         style="display:inline;fill:none;stroke:#000000;stroke-width:2.74957919;stroke-linecap:round;stroke-linejoin:round;stroke-opacity:1" />
      <path
         sodipodi:nodetypes="csc"
         inkscape:connector-curvature="0"
         id="path610-0"
         d="m -101.97381,217.28236 c -16.72372,-17.7155 -35.55287,-21.56773 -43.99656,-20.28699 -8.53516,1.29461 3.47786,25.01309 28.02098,30.21504"
         style="display:inline;fill:#fffefc;fill-opacity:1;stroke:#000000;stroke-width:2.74957919;stroke-linecap:round;stroke-linejoin:round;stroke-opacity:1" />
      <path
         sodipodi:nodetypes="cc"
         inkscape:connector-curvature="0"
         id="path630-3-9"
         d="m -62.152465,316.95689 c 2.12193,20.85915 -2.96377,26.44456 -21.39496,21.21983"
         style="display:inline;fill:#fffefc;fill-opacity:1;stroke:#000000;stroke-width:2.74957919;stroke-linecap:round;stroke-linejoin:round;stroke-opacity:1" />
      <path
         sodipodi:nodetypes="cc"
         inkscape:connector-curvature="0"
         id="path630-3"
         d="m -83.320205,315.84187 c 9.18587,19.44634 3.47085,27.82624 -23.622625,24.33403"
         style="display:inline;fill:#fffefc;fill-opacity:1;stroke:#000000;stroke-width:2.74957919;stroke-linecap:round;stroke-linejoin:round;stroke-opacity:1" />
      <path
         sodipodi:nodetypes="cccsccc"
         inkscape:connector-curvature="0"
         id="path632-5"
         d="m -59.392885,275.77944 c 6.15916,28.7049 -5.55624,63.79939 -21.52148,65.26474 -22.198385,2.03762 -77.277165,7.13036 -97.097295,-2.42232 -28.69544,-13.83035 -18.24043,-59.64731 -5.92352,-74.64796 9.5783,-11.66531 24.46098,-25.33469 50.45439,-29.52779 11.97157,-29.31998 64.393745,-34.71131 74.770732,2.1878 14.847911,9.37975 15.66788,38.15084 0.447823,46.10766"
         style="display:inline;fill:#fffefc;fill-opacity:1;stroke:#000000;stroke-width:2.74957919;stroke-linecap:round;stroke-linejoin:round;stroke-opacity:1" />
      <circle
         r="19.715693"
         cy="314.17258"
         cx="-190.36234"
         id="path642-6"
         style="display:inline;opacity:1;fill:#fffefc;fill-opacity:1;stroke:#000000;stroke-width:2.74957919;stroke-linecap:round;stroke-linejoin:round;stroke-miterlimit:4;stroke-dasharray:none;stroke-opacity:1" />
      <path
         sodipodi:nodetypes="csc"
         inkscape:connector-curvature="0"
         id="path606-3"
         d="m -76.988205,217.84527 c -0.1674,-10.04442 -24.841415,-32.49618 -33.678295,-33.2401 -8.01754,-0.67493 -3.00259,27.43097 6.03446,32.66162"
         style="display:inline;fill:#fffefc;fill-opacity:1;stroke:#000000;stroke-width:2.74957919;stroke-linecap:round;stroke-linejoin:round;stroke-opacity:1" />
    </g>
    <text
       xml:space="preserve"
       style="font-style:normal;font-variant:normal;font-weight:normal;font-stretch:normal;font-size:21.33333397px;line-height:1.25;font-family:HGMinchoB;-inkscape-font-specification:HGMinchoB;letter-spacing:0px;word-spacing:0px;fill:#000000;fill-opacity:1;stroke:none"
       x="159.05232"
       y="86.497658"
       id="text50722"><tspan
         sodipodi:role="line"
         id="tspan50720"
         x="159.05232"
         y="105.96071" /></text>
  </g>
  <g
     inkscape:groupmode="layer"
     id="layer7"
     inkscape:label="枠面"
     style="display:inline"
     sodipodi:insensitive="true">
    <path
       style="fill:#ffffff;stroke:none;display:inline"
       d="m 0,0 0,320 370,0 0,-320 -10,10 0,300 -350,0 0,-300 350,0 10,-10 z"
       id="path21072"
       inkscape:connector-curvature="0"
       sodipodi:nodetypes="ccccccccccc" />
  </g>
</svg>
