<?xml version="1.0" encoding="UTF-8" standalone="no"?>
<!-- Created with Inkscape (http://www.inkscape.org/) -->

<svg
   xmlns:dc="http://purl.org/dc/elements/1.1/"
   xmlns:cc="http://creativecommons.org/ns#"
   xmlns:rdf="http://www.w3.org/1999/02/22-rdf-syntax-ns#"
   xmlns:svg="http://www.w3.org/2000/svg"
   xmlns="http://www.w3.org/2000/svg"
   xmlns:sodipodi="http://sodipodi.sourceforge.net/DTD/sodipodi-0.dtd"
   xmlns:inkscape="http://www.inkscape.org/namespaces/inkscape"
   width="370"
   height="320"
   id="svg3172"
   version="1.1"
   inkscape:version="0.48.4 r9939"
   sodipodi:docname="[00]規格.svg"
   inkscape:export-filename="C:\Users\執安\Desktop\資料\臨時\svg\BUTAS\[22.成功].png"
   inkscape:export-xdpi="90"
   inkscape:export-ydpi="90">
  <defs
     id="defs3174" />
  <sodipodi:namedview
     id="base"
     pagecolor="#ffffff"
     bordercolor="#666666"
     borderopacity="1.0"
     inkscape:pageopacity="0.0"
     inkscape:pageshadow="2"
     inkscape:zoom="0.66716817"
     inkscape:cx="381.38743"
     inkscape:cy="251.0302"
     inkscape:document-units="px"
     inkscape:current-layer="layer3"
     showgrid="false"
     inkscape:window-width="1100"
     inkscape:window-height="698"
     inkscape:window-x="-5"
     inkscape:window-y="-5"
     inkscape:window-maximized="0" />
  <metadata
     id="metadata3177">
    <rdf:RDF>
      <cc:Work
         rdf:about="">
        <dc:format>image/svg+xml</dc:format>
        <dc:type
           rdf:resource="http://purl.org/dc/dcmitype/StillImage" />
        <dc:title></dc:title>
      </cc:Work>
    </rdf:RDF>
  </metadata>
  <g
     inkscape:label="補助線"
     inkscape:groupmode="layer"
     id="layer1"
     transform="translate(0,-732.36218)"
     sodipodi:insensitive="true"
     style="display:none">
    <path
       style="fill:none;stroke:#0000ff;stroke-width:1px;stroke-linecap:butt;stroke-linejoin:miter;stroke-opacity:1;display:inline"
       d="M 10,1042.3622 360,742.36211"
       id="path3025"
       inkscape:connector-curvature="0"
       sodipodi:nodetypes="cc" />
    <path
       style="fill:none;stroke:#0000ff;stroke-width:1px;stroke-linecap:butt;stroke-linejoin:miter;stroke-opacity:1;display:inline"
       d="M 10,742.36211 360,1042.3622"
       id="path3027"
       inkscape:connector-curvature="0"
       sodipodi:nodetypes="cc" />
    <path
       style="fill:none;stroke:#ff0000;stroke-width:1px;stroke-linecap:butt;stroke-linejoin:miter;stroke-opacity:1;display:inline"
       d="m 10,732.36211 0,320.00009"
       id="path3006"
       inkscape:connector-curvature="0"
       sodipodi:nodetypes="cc" />
    <path
       style="fill:none;stroke:#ff0000;stroke-width:1px;stroke-linecap:butt;stroke-linejoin:miter;stroke-opacity:1;display:inline"
       d="m 360,732.36211 0,320.00009"
       id="path3010"
       inkscape:connector-curvature="0"
       sodipodi:nodetypes="cc" />
    <path
       style="fill:none;stroke:#ff0000;stroke-width:1px;stroke-linecap:butt;stroke-linejoin:miter;stroke-opacity:1;display:inline"
       d="m 0,742.36208 370,3e-5"
       id="path3016"
       inkscape:connector-curvature="0" />
    <path
       style="fill:none;stroke:#ff0000;stroke-width:1px;stroke-linecap:butt;stroke-linejoin:miter;stroke-opacity:1;display:inline"
       d="m 0,1042.3622 370,0"
       id="path3018"
       inkscape:connector-curvature="0"
       sodipodi:nodetypes="cc" />
  </g>
  <g
     inkscape:groupmode="layer"
     id="layer3"
     inkscape:label="豚"
     style="display:inline"
     sodipodi:insensitive="true">
    <g
       id="g5388"
       transform="matrix(-1.3209182,0,0,1.3209182,2350.096,-1129.2957)"
       style="stroke-width:2.27114749;display:inline">
      <path
         id="path5308"
         d="m 1675.5395,983.84364 c 1.707,-19.17856 16.0454,-34.06545 35.8955,-33.52486 22.8431,0.62211 37.009,15.61977 39.6164,38.79998 6.0304,8.33577 2.3927,24.51594 17.412,22.56164 -12.5764,11.9924 -28.7081,37.0003 -54.4536,34.6987 -29.5774,-2.644 -41.4106,-17.6632 -42.1769,-38.311 -9.5962,-17.79694 -8.4083,-25.18241 4.4918,-26.72733"
         style="fill:#fffff8;fill-opacity:1;stroke:#000000;stroke-width:2.27114749;stroke-linecap:butt;stroke-linejoin:miter;stroke-opacity:1;display:inline"
         inkscape:connector-curvature="0" />
      <path
         id="path5310"
         d="m 1686.0988,978.01128 c 4.5009,4.87175 4.6582,-2.14409 10.0807,-0.81083 8.4437,2.07608 7.5897,11.82092 15.6218,6.15228 -6.111,4.71499 -6.8335,10.78396 -15.2045,7.97809 -6.1992,-2.07792 -7.8162,-7.89177 -10.498,-13.31954 z"
         style="fill:#aa0000;stroke:#000000;stroke-width:2.27114749;stroke-linecap:butt;stroke-linejoin:miter;stroke-opacity:1;display:inline"
         inkscape:connector-curvature="0"
         sodipodi:nodetypes="cscsc" />
      <path
         id="path5312"
         d="m 1705.579,967.66707 -1.1781,8.02786"
         style="fill:none;stroke:#000000;stroke-width:2.27114749;stroke-linecap:butt;stroke-linejoin:miter;stroke-opacity:1;display:inline"
         inkscape:connector-curvature="0"
         sodipodi:nodetypes="cc" />
      <path
         id="path5314"
         d="m 1695.4583,965.4733 -1.3202,8.41243"
         style="fill:none;stroke:#000000;stroke-width:2.27114749;stroke-linecap:butt;stroke-linejoin:miter;stroke-opacity:1;display:inline"
         inkscape:connector-curvature="0"
         sodipodi:nodetypes="cc" />
      <path
         id="path5316"
         d="m 1713.4406,997.21061 c -12.2093,3.63139 -14.9237,7.96309 -2.2613,20.92599"
         style="fill:none;stroke:#000000;stroke-width:2.27114749;stroke-linecap:butt;stroke-linejoin:miter;stroke-opacity:1;display:inline"
         inkscape:connector-curvature="0" />
      <path
         sodipodi:nodetypes="ccc"
         inkscape:connector-curvature="0"
         id="path3910-85-52"
         d="m 1693.3586,957.87485 14.3498,-11.06855 10.2439,16.29556"
         style="fill:#f8fcff;fill-opacity:1;stroke:#000000;stroke-width:2.27114749;stroke-linecap:butt;stroke-linejoin:miter;stroke-opacity:1;display:inline" />
      <path
         sodipodi:nodetypes="cc"
         inkscape:connector-curvature="0"
         id="path3908-16-76"
         d="m 1689.9737,956.74484 c 2.6097,2.48209 39.9547,9.80618 52.0154,8.14169"
         style="fill:none;stroke:#000000;stroke-width:2.27114749;stroke-linecap:butt;stroke-linejoin:miter;stroke-opacity:1;display:inline" />
    </g>
    <g
       transform="matrix(-1.3209182,0,0,1.3209182,2350.0959,-1129.2957)"
       id="g5406"
       style="stroke-width:2.27114749;display:inline">
      <path
         id="path5320"
         d="m 1531.932,985.62619 c 2.5409,-15.4584 19.3884,-31.12218 40.901,-27.58506 20.9746,3.44865 31.5262,16.6632 34.4346,40.10055 6.2226,8.33582 0.5889,21.72722 16.0872,19.77292 -10.5172,15.8669 -24.794,37.2846 -52.4105,37.0831 -30.634,-0.2236 -47.2424,-18.0965 -47.654,-48.2014 -2.9721,-19.26693 -2.0714,-22.45234 8.72,-22.73723"
         style="fill:#fffff8;fill-opacity:1;stroke:#000000;stroke-width:2.27114749;stroke-linecap:butt;stroke-linejoin:miter;stroke-opacity:1;display:inline"
         inkscape:connector-curvature="0" />
      <path
         id="path5322"
         d="m 1542.3185,984.38721 c 4.8852,5.32843 4.5049,-1.85199 9.4868,-0.53505 7.9272,2.09553 7.5821,10.40905 16.3937,5.97928 -6.0884,3.45056 -6.3381,10.90226 -15.325,8.0372 -5.7865,-1.84479 -6.5395,-8.77099 -10.5555,-13.48143 z"
         style="fill:#aa0000;stroke:#000000;stroke-width:2.27114749;stroke-linecap:butt;stroke-linejoin:miter;stroke-opacity:1;display:inline"
         inkscape:connector-curvature="0" />
      <path
         id="path5324"
         d="m 1562.6925,974.93354 -2.7471,7.84512"
         style="fill:none;stroke:#000000;stroke-width:2.27114749;stroke-linecap:butt;stroke-linejoin:miter;stroke-opacity:1;display:inline"
         inkscape:connector-curvature="0" />
      <path
         id="path5326"
         d="m 1552.0686,972.49713 -2.093,8.68876"
         style="fill:none;stroke:#000000;stroke-width:2.27114749;stroke-linecap:butt;stroke-linejoin:miter;stroke-opacity:1;display:inline"
         inkscape:connector-curvature="0" />
      <path
         id="path5328"
         d="m 1569.2597,1004.339 c -12.5985,3.6314 -15.3995,7.963 -2.3334,20.9259"
         style="fill:none;stroke:#000000;stroke-width:2.27114749;stroke-linecap:butt;stroke-linejoin:miter;stroke-opacity:1;display:inline"
         inkscape:connector-curvature="0" />
      <path
         sodipodi:nodetypes="ccc"
         inkscape:connector-curvature="0"
         id="path3910-85-3"
         d="m 1550.845,963.58296 12.9914,-10.24843 8.6061,14.82308"
         style="fill:#f8fcff;fill-opacity:1;stroke:#000000;stroke-width:2.27114749;stroke-linecap:butt;stroke-linejoin:miter;stroke-opacity:1;display:inline" />
      <path
         sodipodi:nodetypes="cc"
         inkscape:connector-curvature="0"
         id="path3908-16-22"
         d="m 1548.1699,962.6814 c 4.6947,1.74781 40.2553,10.30255 49.1919,7.69655"
         style="fill:none;stroke:#000000;stroke-width:2.27114749;stroke-linecap:butt;stroke-linejoin:miter;stroke-opacity:1;display:inline" />
    </g>
    <g
       id="g5397"
       transform="matrix(-1.3209182,0,0,1.3209182,2350.0959,-1129.2957)"
       style="stroke-width:2.27114749;display:inline">
      <path
         id="path5166"
         d="m 1579.6786,990.27292 c 2.5151,-24.68851 21.2456,-42.73539 45.6897,-42.75098 26.1101,-0.0166 46.5062,18.80508 48.8065,47.80436 7.4755,10.3334 -0.01,31.5788 18.6101,29.1562 -12.6346,19.6692 -34.5756,44.1972 -65.0007,43.7284 -36.8072,-0.5673 -51.7506,-22.3124 -52.7004,-47.9083 -11.8959,-22.06183 -10.4234,-31.21719 5.5682,-33.13233"
         style="fill:#fffff8;fill-opacity:1;stroke:#000000;stroke-width:2.27114749;stroke-linecap:butt;stroke-linejoin:miter;stroke-opacity:1;display:inline"
         inkscape:connector-curvature="0" />
      <path
         id="path5168"
         d="m 1593.6634,983.67672 c 5.7856,4.42701 3.7304,-3.25495 11.948,-1.96827 9.4719,1.48309 9.6942,13.13119 20.3382,7.44082 -7.3143,4.27746 -7.0255,11.65653 -18.4295,9.69266 -10.8428,-1.86723 -9.9272,-11.17319 -13.8567,-15.16521 z"
         style="fill:#aa0000;stroke:#000000;stroke-width:2.27114749;stroke-linecap:butt;stroke-linejoin:miter;stroke-opacity:1;display:inline"
         inkscape:connector-curvature="0"
         sodipodi:nodetypes="cscsc" />
      <path
         sodipodi:nodetypes="cc"
         inkscape:connector-curvature="0"
         id="path5170"
         d="m 1617.8139,970.11311 -2.2866,9.46704"
         style="fill:none;stroke:#000000;stroke-width:2.27114749;stroke-linecap:butt;stroke-linejoin:miter;stroke-opacity:1;display:inline" />
      <path
         sodipodi:nodetypes="cc"
         inkscape:connector-curvature="0"
         id="path5172"
         d="m 1605.9734,967.46451 -1.809,9.32964"
         style="fill:none;stroke:#000000;stroke-width:2.27114749;stroke-linecap:butt;stroke-linejoin:miter;stroke-opacity:1;display:inline" />
      <path
         id="path5174"
         d="m 1631.2644,1007.5709 c -19.1848,4.8698 -22.1816,17.9709 0.3262,28.886"
         style="fill:none;stroke:#000000;stroke-width:2.27114749;stroke-linecap:butt;stroke-linejoin:miter;stroke-opacity:1;display:inline"
         inkscape:connector-curvature="0" />
      <path
         sodipodi:nodetypes="ccc"
         inkscape:connector-curvature="0"
         id="path3910-85-14"
         d="m 1604.7325,955.46478 18.1575,-13.04848 12.8613,20.60364"
         style="fill:#f8fcff;fill-opacity:1;stroke:#000000;stroke-width:2.27114749;stroke-linecap:butt;stroke-linejoin:miter;stroke-opacity:1;display:inline" />
      <path
         sodipodi:nodetypes="cc"
         inkscape:connector-curvature="0"
         id="path3908-16-2"
         d="m 1600.5203,954.35207 c 4.202,2.65701 44.5442,12.36995 63.0284,12.6743"
         style="fill:none;stroke:#000000;stroke-width:2.27114749;stroke-linecap:butt;stroke-linejoin:miter;stroke-opacity:1;display:inline" />
    </g>
  </g>
  <g
     inkscape:groupmode="layer"
     id="layer4"
     inkscape:label="吹き出し">
    <g
       id="g4874">
      <path
         sodipodi:nodetypes="sssssscsscsscsssss"
         inkscape:connector-curvature="0"
         id="rect13841"
         d="m 72.259697,11.990974 259.776023,0 c 14.39154,0 25.97752,11.58598 25.97752,25.97753 l 0,28.24943 c 0,14.39155 -11.58598,25.97753 -25.97752,25.97753 l -6.27206,0 c -11.79615,0 -10.1188,10.871386 -33.63182,22.529886 7.86953,-12.20835 5.33956,-22.529886 -5.15513,-22.529886 l -31.73523,0 c -14.17474,0 -17.16439,12.713916 -37.49181,23.366306 11.23452,-10.41871 10.41915,-23.366306 -7.32706,-23.366306 l -32.45009,0 c -9.47542,0 -12.42345,14.688066 -31.82252,23.343606 7.15244,-10.87631 5.9835,-23.343606 -3.68289,-23.343606 l -70.207413,0 c -14.391546,0 -25.977523,-11.58598 -25.977523,-25.97753 l 0,-28.24943 c 0,-14.39155 11.585977,-25.97753 25.977523,-25.97753 z"
         style="fill:#fefefe;fill-opacity:1;stroke:#000000;stroke-width:3" />
      <text
         sodipodi:linespacing="125%"
         id="text6768-1"
         y="61.813801"
         x="75.285339"
         style="font-size:33.72422791px;font-style:normal;font-variant:normal;font-weight:normal;font-stretch:normal;line-height:125%;letter-spacing:0px;word-spacing:0px;writing-mode:lr-tb;fill:#000000;fill-opacity:1;stroke:none;font-family:MS UI Gothic;-inkscape-font-specification:MS UI Gothic"
         xml:space="preserve"><tspan
           id="tspan3151-4"
           style="font-size:33.72422791px;font-style:normal;font-variant:normal;font-weight:normal;font-stretch:normal;fill:#000000;fill-opacity:1;font-family:MS UI Gothic;-inkscape-font-specification:MS UI Gothic"
           y="61.813801"
           x="75.285339"
           sodipodi:role="line">ようこそ黄泉の国へ</tspan></text>
    </g>
  </g>
  <g
     inkscape:groupmode="layer"
     id="layer2"
     inkscape:label="枠面"
     sodipodi:insensitive="true">
    <path
       style="fill:#ffffff;stroke:none;display:inline"
       d="m 0,0 0,320 370,0 0,-320 -10,10 0,300 -350,0 0,-300 350,0 10,-10 z"
       id="path21072"
       inkscape:connector-curvature="0"
       sodipodi:nodetypes="ccccccccccc" />
  </g>
</svg>
