<?xml version="1.0" encoding="UTF-8" standalone="no"?>
<!-- Created with Inkscape (http://www.inkscape.org/) -->

<svg
   xmlns:dc="http://purl.org/dc/elements/1.1/"
   xmlns:cc="http://creativecommons.org/ns#"
   xmlns:rdf="http://www.w3.org/1999/02/22-rdf-syntax-ns#"
   xmlns:svg="http://www.w3.org/2000/svg"
   xmlns="http://www.w3.org/2000/svg"
   xmlns:sodipodi="http://sodipodi.sourceforge.net/DTD/sodipodi-0.dtd"
   xmlns:inkscape="http://www.inkscape.org/namespaces/inkscape"
   width="370"
   height="320"
   id="svg3172"
   version="1.1"
   inkscape:version="0.48.4 r9939"
   sodipodi:docname="[03]俯瞰.svg"
   inkscape:export-filename="C:\Users\執安\Desktop\資料\臨時\ANCESTOR\org\[03]俯瞰.png"
   inkscape:export-xdpi="90"
   inkscape:export-ydpi="90">
  <defs
     id="defs3174" />
  <sodipodi:namedview
     id="base"
     pagecolor="#ffffff"
     bordercolor="#666666"
     borderopacity="1.0"
     inkscape:pageopacity="0.0"
     inkscape:pageshadow="2"
     inkscape:zoom="0.90716555"
     inkscape:cx="43.785092"
     inkscape:cy="209.77309"
     inkscape:document-units="px"
     inkscape:current-layer="layer3"
     showgrid="false"
     inkscape:window-width="1100"
     inkscape:window-height="698"
     inkscape:window-x="-5"
     inkscape:window-y="-5"
     inkscape:window-maximized="0" />
  <metadata
     id="metadata3177">
    <rdf:RDF>
      <cc:Work
         rdf:about="">
        <dc:format>image/svg+xml</dc:format>
        <dc:type
           rdf:resource="http://purl.org/dc/dcmitype/StillImage" />
        <dc:title></dc:title>
      </cc:Work>
    </rdf:RDF>
  </metadata>
  <g
     inkscape:label="補助線"
     inkscape:groupmode="layer"
     id="layer1"
     transform="translate(0,-732.36218)"
     sodipodi:insensitive="true"
     style="display:none">
    <path
       style="fill:none;stroke:#0000ff;stroke-width:1px;stroke-linecap:butt;stroke-linejoin:miter;stroke-opacity:1;display:inline"
       d="M 10,1042.3622 360,742.36211"
       id="path3025"
       inkscape:connector-curvature="0"
       sodipodi:nodetypes="cc" />
    <path
       style="fill:none;stroke:#0000ff;stroke-width:1px;stroke-linecap:butt;stroke-linejoin:miter;stroke-opacity:1;display:inline"
       d="M 10,742.36211 360,1042.3622"
       id="path3027"
       inkscape:connector-curvature="0"
       sodipodi:nodetypes="cc" />
    <path
       style="fill:none;stroke:#ff0000;stroke-width:1px;stroke-linecap:butt;stroke-linejoin:miter;stroke-opacity:1;display:inline"
       d="m 10,732.36211 0,320.00009"
       id="path3006"
       inkscape:connector-curvature="0"
       sodipodi:nodetypes="cc" />
    <path
       style="fill:none;stroke:#ff0000;stroke-width:1px;stroke-linecap:butt;stroke-linejoin:miter;stroke-opacity:1;display:inline"
       d="m 360,732.36211 0,320.00009"
       id="path3010"
       inkscape:connector-curvature="0"
       sodipodi:nodetypes="cc" />
    <path
       style="fill:none;stroke:#ff0000;stroke-width:1px;stroke-linecap:butt;stroke-linejoin:miter;stroke-opacity:1;display:inline"
       d="m 0,742.36208 370,3e-5"
       id="path3016"
       inkscape:connector-curvature="0" />
    <path
       style="fill:none;stroke:#ff0000;stroke-width:1px;stroke-linecap:butt;stroke-linejoin:miter;stroke-opacity:1;display:inline"
       d="m 0,1042.3622 370,0"
       id="path3018"
       inkscape:connector-curvature="0"
       sodipodi:nodetypes="cc" />
  </g>
  <g
     inkscape:groupmode="layer"
     id="layer3"
     inkscape:label="豚"
     sodipodi:insensitive="true">
    <path
       style="fill:#fefefe;fill-opacity:1;stroke:#000000;stroke-width:3;stroke-linecap:butt;stroke-linejoin:miter;stroke-opacity:1;display:inline"
       d="m 247.10384,247.47263 c -34.80962,15.80495 -6.85189,17.91535 10.43204,22.35452 12.41917,15.03463 25.9562,9.11941 37.25761,5.21608 21.7339,8.8179 31.96251,2.59071 40.98327,-5.21608 29.19146,-1.67191 26.69689,-19.53227 10.43204,-24.21727 -1.20141,-11.78398 -22.05805,-22.70276 -52.16044,-11.5499 -19.64394,-12.08269 -41.29892,0.5557 -46.94452,13.41265 z"
       id="path5787-8"
       inkscape:connector-curvature="0"
       sodipodi:nodetypes="ccccccc" />
    <g
       style="stroke-width:3;display:inline"
       id="g5405"
       transform="translate(-28.060858,0)">
      <path
         sodipodi:nodetypes="cscscc"
         inkscape:connector-curvature="0"
         id="path5106"
         d="m 281.62535,171.68776 c -6.09151,-19.33517 -22.14561,-40.76238 -57.20186,-42.70837 -34.3373,-1.90615 -64.8407,22.90849 -74.81926,59.05888 -10.20606,18.95126 -24.18192,78.33979 27.8854,108.83633 45.57924,26.69638 101.09278,-2.59568 125.11772,-30.37914 -22.52015,-8.76843 -3.36954,-18.13953 -11.44858,-41.27855"
         style="fill:#fffff8;fill-opacity:1;stroke:#000000;stroke-width:3;stroke-linecap:butt;stroke-linejoin:miter;stroke-opacity:1;display:inline" />
      <path
         inkscape:connector-curvature="0"
         id="path5108"
         d="m 262.22613,196.93496 c -8.27866,5.05017 -4.0436,-6.1505 -17.37425,-5.94989 -14.79167,0.22257 -20.08806,14.93596 -28.62561,6.30986 5.35566,6.86875 10.05825,17.13352 24.07267,16.81818 10.20282,-0.22961 13.77481,-6.65857 21.92719,-17.17815 z"
         style="fill:#aa0000;stroke:#000000;stroke-width:3;stroke-linecap:butt;stroke-linejoin:miter;stroke-opacity:1;display:inline" />
      <path
         sodipodi:nodetypes="cc"
         inkscape:connector-curvature="0"
         id="path5110"
         d="m 236.46433,171.21715 -1.4677,13.8131"
         style="fill:none;stroke:#000000;stroke-width:3;stroke-linecap:butt;stroke-linejoin:miter;stroke-opacity:1;display:inline" />
      <path
         sodipodi:nodetypes="cc"
         inkscape:connector-curvature="0"
         id="path5112"
         d="m 254.40282,172.78768 -1.49894,13.0415"
         style="fill:none;stroke:#000000;stroke-width:3;stroke-linecap:butt;stroke-linejoin:miter;stroke-opacity:1;display:inline" />
      <path
         inkscape:connector-curvature="0"
         id="path5114"
         d="m 183.08926,242.40125 c -15.64098,14.14535 -30.44517,5.54121 -22.15061,-27.17699"
         style="fill:none;stroke:#000000;stroke-width:3;stroke-linecap:butt;stroke-linejoin:miter;stroke-opacity:1;display:inline" />
      <path
         sodipodi:nodetypes="ccc"
         inkscape:connector-curvature="0"
         id="path3910-85-92"
         d="m 220.46091,154.25229 24.40266,-24.0762 19.03038,26.29242"
         style="fill:#f8fcff;fill-opacity:1;stroke:#000000;stroke-width:3;stroke-linecap:butt;stroke-linejoin:miter;stroke-opacity:1;display:inline" />
      <path
         sodipodi:nodetypes="cc"
         inkscape:connector-curvature="0"
         id="path3908-16-79"
         d="m 180.42572,140.83752 c 1.74482,11.29202 93.21295,22.62785 92.24636,11.63737"
         style="fill:none;stroke:#000000;stroke-width:3;stroke-linecap:butt;stroke-linejoin:miter;stroke-opacity:1;display:inline" />
      <path
         inkscape:connector-curvature="0"
         id="path3984"
         d="m 288.0308,229.22531 c 23.81955,-21.74742 8.05609,-57.07559 -4.86504,-58.05125 -7.77393,-0.587 -3.25988,13.01742 -3.34449,25.05136"
         style="fill:#fffff8;fill-opacity:1;stroke:#000000;stroke-width:3;stroke-linecap:butt;stroke-linejoin:miter;stroke-opacity:1;display:inline"
         sodipodi:nodetypes="csc" />
    </g>
    <path
       style="fill:#fefefe;fill-opacity:1;stroke:#000000;stroke-width:3;stroke-linecap:butt;stroke-linejoin:miter;stroke-opacity:1;display:inline"
       d="m 29.465986,182.49588 c -33.9879259,15.4319 -6.690183,17.49247 10.185862,21.82685 12.12603,14.67975 25.343437,8.90416 36.378104,5.09297 21.220869,8.60977 31.208028,2.52955 40.015878,-5.09297 28.50242,-1.63244 26.06673,-19.07122 10.18579,-23.64563 -1.17304,-11.50582 -21.53738,-22.16687 -50.929235,-11.27727 -19.180242,-11.79749 -40.323969,0.54259 -45.836399,13.09605 z"
       id="path5787"
       inkscape:connector-curvature="0"
       sodipodi:nodetypes="ccccccc" />
  </g>
  <g
     inkscape:groupmode="layer"
     id="layer4"
     inkscape:label="吹き出し"
     style="display:inline"
     sodipodi:insensitive="true">
    <g
       id="g5445"
       style="stroke-width:3">
      <path
         sodipodi:nodetypes="sssssscsssss"
         inkscape:connector-curvature="0"
         id="rect13841"
         d="m 251.04903,11.464431 -213.363198,0 c -14.39154,0 -25.977519,11.58598 -25.977519,25.97753 l 0,36.24943 c 0,14.39155 11.585979,26.251499 25.977519,26.251499 l 112.882848,0 c 21.29438,0 20.53685,15.71165 40.86427,26.36404 -11.23452,-10.41871 -13.79161,-26.36404 3.9546,-26.36404 l 55.66148,0 c 14.39155,0 25.97753,-11.859949 25.97753,-26.251499 l 0,-36.24943 c 0,-14.39155 -11.58598,-25.97753 -25.97753,-25.97753 z"
         style="fill:#fefefe;fill-opacity:1;stroke:#000000;stroke-width:3" />
      <text
         sodipodi:linespacing="125%"
         id="text6768-1"
         y="50.730991"
         x="29.284611"
         style="font-size:28px;font-style:normal;font-variant:normal;font-weight:normal;font-stretch:normal;line-height:125%;letter-spacing:0px;word-spacing:0px;writing-mode:lr-tb;fill:#000000;fill-opacity:1;stroke:none;font-family:MS UI Gothic;-inkscape-font-specification:MS UI Gothic"
         xml:space="preserve"><tspan
           id="tspan5415"
           style="font-size:28px;font-style:normal;font-variant:normal;font-weight:normal;font-stretch:normal;fill:#000000;fill-opacity:1;font-family:MS UI Gothic;-inkscape-font-specification:MS UI Gothic"
           y="50.730991"
           x="29.284611"
           sodipodi:role="line">現世ではこんなことに</tspan></text>
      <text
         sodipodi:linespacing="125%"
         id="text6768-1-1"
         y="79.687637"
         x="30.54324"
         style="font-size:28px;font-style:normal;font-variant:normal;font-weight:normal;font-stretch:normal;line-height:125%;letter-spacing:0px;word-spacing:0px;writing-mode:lr-tb;fill:#000000;fill-opacity:1;stroke:none;font-family:MS UI Gothic;-inkscape-font-specification:MS UI Gothic"
         xml:space="preserve"><tspan
           id="tspan5415-5"
           style="font-size:28px;font-style:normal;font-variant:normal;font-weight:normal;font-stretch:normal;fill:#000000;fill-opacity:1;font-family:MS UI Gothic;-inkscape-font-specification:MS UI Gothic"
           y="79.687637"
           x="30.54324"
           sodipodi:role="line">なってるんですな。</tspan></text>
    </g>
  </g>
  <g
     inkscape:groupmode="layer"
     id="layer2"
     inkscape:label="枠面"
     sodipodi:insensitive="true">
    <path
       style="fill:#ffffff;stroke:none;display:inline"
       d="m 0,0 0,320 370,0 0,-320 -10,10 0,300 -350,0 0,-300 350,0 10,-10 z"
       id="path21072"
       inkscape:connector-curvature="0"
       sodipodi:nodetypes="ccccccccccc" />
  </g>
</svg>
