<?xml version="1.0" encoding="UTF-8" standalone="no"?>
<!-- Created with Inkscape (http://www.inkscape.org/) -->

<svg
   xmlns:dc="http://purl.org/dc/elements/1.1/"
   xmlns:cc="http://creativecommons.org/ns#"
   xmlns:rdf="http://www.w3.org/1999/02/22-rdf-syntax-ns#"
   xmlns:svg="http://www.w3.org/2000/svg"
   xmlns="http://www.w3.org/2000/svg"
   xmlns:sodipodi="http://sodipodi.sourceforge.net/DTD/sodipodi-0.dtd"
   xmlns:inkscape="http://www.inkscape.org/namespaces/inkscape"
   width="370"
   height="320"
   id="svg3172"
   version="1.1"
   inkscape:version="0.48.4 r9939"
   sodipodi:docname="[05]帰還.svg"
   inkscape:export-filename="C:\Users\執安\Desktop\資料\臨時\svg\BUTAS\[22.成功].png"
   inkscape:export-xdpi="90"
   inkscape:export-ydpi="90">
  <defs
     id="defs3174" />
  <sodipodi:namedview
     id="base"
     pagecolor="#ffffff"
     bordercolor="#666666"
     borderopacity="1.0"
     inkscape:pageopacity="0.0"
     inkscape:pageshadow="2"
     inkscape:zoom="1.2583023"
     inkscape:cx="105.58639"
     inkscape:cy="227.71974"
     inkscape:document-units="px"
     inkscape:current-layer="layer3"
     showgrid="false"
     inkscape:window-width="1100"
     inkscape:window-height="698"
     inkscape:window-x="-5"
     inkscape:window-y="-5"
     inkscape:window-maximized="0" />
  <metadata
     id="metadata3177">
    <rdf:RDF>
      <cc:Work
         rdf:about="">
        <dc:format>image/svg+xml</dc:format>
        <dc:type
           rdf:resource="http://purl.org/dc/dcmitype/StillImage" />
        <dc:title />
      </cc:Work>
    </rdf:RDF>
  </metadata>
  <g
     inkscape:label="補助線"
     inkscape:groupmode="layer"
     id="layer1"
     transform="translate(0,-732.36218)"
     sodipodi:insensitive="true"
     style="display:none">
    <path
       style="fill:none;stroke:#0000ff;stroke-width:1px;stroke-linecap:butt;stroke-linejoin:miter;stroke-opacity:1;display:inline"
       d="M 10,1042.3622 360,742.36211"
       id="path3025"
       inkscape:connector-curvature="0"
       sodipodi:nodetypes="cc" />
    <path
       style="fill:none;stroke:#0000ff;stroke-width:1px;stroke-linecap:butt;stroke-linejoin:miter;stroke-opacity:1;display:inline"
       d="M 10,742.36211 360,1042.3622"
       id="path3027"
       inkscape:connector-curvature="0"
       sodipodi:nodetypes="cc" />
    <path
       style="fill:none;stroke:#ff0000;stroke-width:1px;stroke-linecap:butt;stroke-linejoin:miter;stroke-opacity:1;display:inline"
       d="m 10,732.36211 0,320.00009"
       id="path3006"
       inkscape:connector-curvature="0"
       sodipodi:nodetypes="cc" />
    <path
       style="fill:none;stroke:#ff0000;stroke-width:1px;stroke-linecap:butt;stroke-linejoin:miter;stroke-opacity:1;display:inline"
       d="m 360,732.36211 0,320.00009"
       id="path3010"
       inkscape:connector-curvature="0"
       sodipodi:nodetypes="cc" />
    <path
       style="fill:none;stroke:#ff0000;stroke-width:1px;stroke-linecap:butt;stroke-linejoin:miter;stroke-opacity:1;display:inline"
       d="m 0,742.36208 370,3e-5"
       id="path3016"
       inkscape:connector-curvature="0" />
    <path
       style="fill:none;stroke:#ff0000;stroke-width:1px;stroke-linecap:butt;stroke-linejoin:miter;stroke-opacity:1;display:inline"
       d="m 0,1042.3622 370,0"
       id="path3018"
       inkscape:connector-curvature="0"
       sodipodi:nodetypes="cc" />
  </g>
  <g
     inkscape:groupmode="layer"
     id="layer3"
     inkscape:label="豚"
     style="display:inline"
     sodipodi:insensitive="true">
    <path
       sodipodi:type="arc"
       style="fill:#000000;fill-opacity:1;stroke:none"
       id="path8295"
       sodipodi:cx="135.92949"
       sodipodi:cy="298.72409"
       sodipodi:rx="91.013657"
       sodipodi:ry="8.2739687"
       d="m 226.94315,298.72409 a 91.013657,8.2739687 0 1 1 -182.027317,0 91.013657,8.2739687 0 1 1 182.027317,0 z"
       transform="matrix(-1.0241147,0,0,1.0241147,251.01326,-4.7567358)" />
    <g
       id="g6506">
      <path
         sodipodi:nodetypes="ccccc"
         inkscape:connector-curvature="0"
         id="path8176-7-9-1"
         d="m 131.2744,235.48694 c 0.55132,-0.50423 3.63954,-2.94404 3.63954,-2.94404 l 21.0228,68.18393 -4.99377,0.56561 z"
         style="fill:#c8ab37;stroke:none" />
      <path
         sodipodi:nodetypes="ccccc"
         inkscape:connector-curvature="0"
         id="path8176-5-1"
         d="m 135.44522,232.86502 7.5991,-3.82801 15.35481,66.47471 -2.30774,5.18908 z"
         style="fill:#ffe680;stroke:none" />
      <path
         sodipodi:nodetypes="cccccc"
         inkscape:connector-curvature="0"
         id="path5238-4-3"
         d="m 151.09979,300.94993 -19.66911,-65.55321 11.7496,-6.28398 14.72757,66.70224 -2.08686,4.72992 z"
         style="fill:none;stroke:#000000;stroke-width:3;stroke-linecap:butt;stroke-linejoin:miter;stroke-opacity:1;display:inline" />
      <path
         sodipodi:nodetypes="cc"
         inkscape:connector-curvature="0"
         id="path8156-2-3-8"
         d="m 134.90128,232.31343 21.07229,68.31817"
         style="fill:none;stroke:#000000;stroke-width:3;stroke-linecap:butt;stroke-linejoin:miter;stroke-opacity:1;display:inline" />
      <path
         sodipodi:nodetypes="ccccc"
         inkscape:connector-curvature="0"
         id="path8176-7"
         d="m 106.03805,233.47723 c -0.57508,-0.43131 -3.73798,-2.44405 -3.73798,-2.44405 l -41.597119,70.01514 4.60059,-0.28753 z"
         style="fill:#c8ab37;stroke:none" />
      <path
         sodipodi:nodetypes="ccccc"
         inkscape:connector-curvature="0"
         id="path8176"
         d="m 101.86877,231.46447 c -0.57508,-0.43129 -7.188415,-4.88812 -7.188415,-4.88812 l -36.996535,69.44008 2.875366,5.03189 z"
         style="fill:#ffe680;stroke:none" />
      <path
         sodipodi:nodetypes="cccccc"
         inkscape:connector-curvature="0"
         id="path5238"
         d="m 65.109707,300.42942 40.773343,-67.01919 -10.721003,-7.03617 -36.987973,69.8736 2.60587,4.58959 z"
         style="fill:none;stroke:#000000;stroke-width:3;stroke-linecap:butt;stroke-linejoin:miter;stroke-opacity:1;display:inline" />
      <path
         sodipodi:nodetypes="cc"
         inkscape:connector-curvature="0"
         id="path8156-2"
         d="M 102.27662,230.79044 60.655176,300.95501"
         style="fill:none;stroke:#000000;stroke-width:3;stroke-linecap:butt;stroke-linejoin:miter;stroke-opacity:1;display:inline" />
      <path
         sodipodi:nodetypes="ccccc"
         inkscape:connector-curvature="0"
         id="path8176-7-9"
         d="m 69.210313,236.49216 c 0.627301,-0.40581 4.077452,-2.29957 4.077452,-2.29957 l 41.715475,67.4991 -5.0184,-0.27054 z"
         style="fill:#c8ab37;stroke:none" />
      <path
         sodipodi:nodetypes="ccccc"
         inkscape:connector-curvature="0"
         id="path8176-5"
         d="m 73.758253,234.59839 8.128788,-2.51449 36.409539,64.87337 -3.1365,4.73442 z"
         style="fill:#ffe680;stroke:none" />
      <path
         sodipodi:nodetypes="ccccccc"
         inkscape:connector-curvature="0"
         id="path5238-4"
         d="m 110.1963,301.10938 -40.816926,-64.68027 4.652195,-1.63419 7.976983,-2.6138 35.753248,64.99372 -2.84252,4.31824 z"
         style="fill:none;stroke:#000000;stroke-width:3;stroke-linecap:butt;stroke-linejoin:miter;stroke-opacity:1;display:inline" />
      <path
         sodipodi:nodetypes="cc"
         inkscape:connector-curvature="0"
         id="path8156-2-3"
         d="m 73.313337,233.9642 41.742023,67.6397"
         style="fill:none;stroke:#000000;stroke-width:3;stroke-linecap:butt;stroke-linejoin:miter;stroke-opacity:1;display:inline" />
      <path
         sodipodi:nodetypes="ccccc"
         inkscape:connector-curvature="0"
         id="path8176-7-1"
         d="m 167.09188,226.40502 c -0.63865,-0.32993 -4.0916,-1.79016 -4.0916,-1.79016 l -29.40721,75.9451 4.48916,-1.04667 z"
         style="fill:#c8ab37;stroke:none" />
      <path
         sodipodi:nodetypes="ccccc"
         inkscape:connector-curvature="0"
         id="path8176-2"
         d="m 162.71838,224.39288 -8.97791,0.18183 -23.95937,71.52385 3.67019,4.48524 z"
         style="fill:#ffe680;stroke:none" />
      <path
         sodipodi:nodetypes="ccccccc"
         inkscape:connector-curvature="0"
         id="path5238-3"
         d="m 137.83612,299.21867 29.0918,-72.85401 -4.84114,-2.3589 -8.33614,0.64898 -23.44773,71.59053 3.33107,4.09376 z"
         style="fill:none;stroke:#000000;stroke-width:3;stroke-linecap:butt;stroke-linejoin:miter;stroke-opacity:1;display:inline" />
      <path
         sodipodi:nodetypes="cc"
         inkscape:connector-curvature="0"
         id="path8156-2-34"
         d="m 162.93689,224.37939 -29.40641,76.09649"
         style="fill:none;stroke:#000000;stroke-width:3;stroke-linecap:butt;stroke-linejoin:miter;stroke-opacity:1;display:inline" />
      <path
         inkscape:connector-curvature="0"
         id="path5024"
         d="m 180.66112,142.62525 c -21.91134,6.95772 -70.58926,9.86099 -89.82772,-2.41391 -25.038345,-15.97554 -64.470992,-8.51887 -73.838099,33.39708 -8.6207825,38.57623 30.320566,75.17198 89.007919,74.55861 47.08154,-0.49208 79.81947,-31.4467 93.92079,-58.08636 z"
         style="fill:#672178;stroke:#000000;stroke-width:3;stroke-linecap:butt;stroke-linejoin:miter;stroke-opacity:1;display:inline" />
      <path
         sodipodi:nodetypes="ssssss"
         inkscape:connector-curvature="0"
         id="path8333"
         d="m 105.02425,157.76914 c -7.372377,1.02769 -13.969975,10.61611 -14.745901,9.32978 -2.156583,-3.57518 2.315514,-9.88418 -1.01906,-10.60504 -5.413358,-1.17025 -17.313063,6.12785 -20.876906,8.07174 -4.040836,2.20406 3.53656,-8.58332 13.297453,-11.22896 11.406042,-3.09155 32.491354,3.15742 23.344414,4.43248 z"
         style="fill:#441650;stroke:none" />
    </g>
    <g
       id="g8297"
       transform="translate(-10.447463,-1.0385954)">
      <path
         sodipodi:nodetypes="csccscc"
         inkscape:connector-curvature="0"
         id="path5032"
         d="M 171.33663,78.5294 C 170.03557,48.357392 145.94624,30.295766 120.98175,31.298791 92.720833,32.434258 72.225194,51.201951 68.126974,84.530053 c -7.25869,10.03373 -0.583218,28.045917 -10.913166,22.023117 5.807553,24.2789 27.420487,54.5161 67.609492,51.35152 50.73432,-3.99494 56.57892,-30.64924 55.49209,-56.35591 7.57728,-31.935498 3.74519,-36.263937 -10.09301,-32.96173"
         style="fill:#fffff8;fill-opacity:1;stroke:#000000;stroke-width:3;stroke-linecap:butt;stroke-linejoin:miter;stroke-opacity:1;display:inline" />
      <path
         sodipodi:nodetypes="cscsc"
         inkscape:connector-curvature="0"
         id="path5034"
         d="m 156.19196,66.097901 c -5.34042,6.324767 -4.46745,0.419598 -11.0565,0.577316 -10.31116,0.246883 -11.91999,14.64026 -22.48436,8.444645 7.05873,6.003912 7.83679,14.90268 20.57707,11.870593 11.67102,-2.777584 8.23728,-15.460603 12.96379,-20.892554 z"
         style="fill:#aa0000;stroke:#000000;stroke-width:3;stroke-linecap:butt;stroke-linejoin:miter;stroke-opacity:1;display:inline" />
      <path
         sodipodi:nodetypes="cc"
         inkscape:connector-curvature="0"
         id="path5036"
         d="m 127.87214,58.979246 5.21945,6.523216"
         style="fill:none;stroke:#000000;stroke-width:3;stroke-linecap:butt;stroke-linejoin:miter;stroke-opacity:1;display:inline" />
      <path
         sodipodi:nodetypes="cc"
         inkscape:connector-curvature="0"
         id="path5038"
         d="m 145.3514,54.195115 -0.8505,8.588278"
         style="fill:none;stroke:#000000;stroke-width:3;stroke-linecap:butt;stroke-linejoin:miter;stroke-opacity:1;display:inline" />
      <path
         sodipodi:nodetypes="ccc"
         inkscape:connector-curvature="0"
         id="path3910-85-4"
         d="M 144.5704,40.90887 125.64988,27.220856 115.12298,48.295255"
         style="fill:#f8fcff;fill-opacity:1;stroke:#000000;stroke-width:3;stroke-linecap:butt;stroke-linejoin:miter;stroke-opacity:1;display:inline" />
      <path
         sodipodi:nodetypes="cc"
         inkscape:connector-curvature="0"
         id="path3908-16-0"
         d="m 146.68391,37.065609 c 8.47278,5.949582 -65.7931,18.491629 -64.866642,12.15495"
         style="fill:none;stroke:#000000;stroke-width:3;stroke-linecap:butt;stroke-linejoin:miter;stroke-opacity:1;display:inline" />
    </g>
    <path
       style="fill:none;stroke:#000000;stroke-width:3;stroke-linecap:butt;stroke-linejoin:miter;stroke-opacity:1;display:inline"
       d="m 108.96465,96.292363 c 12.56019,17.968547 7.19506,27.931367 -16.315013,21.980027"
       id="path5040"
       inkscape:connector-curvature="0" />
    <path
       style="fill:none;stroke:#000000;stroke-width:3;stroke-linecap:butt;stroke-linejoin:miter;stroke-opacity:1;display:inline"
       d="m 157.90886,156.1833 c -17.08982,-8.37912 -32.50821,-22.95454 -45.42311,-38.53942"
       id="path8156"
       inkscape:connector-curvature="0"
       sodipodi:nodetypes="cc" />
    <path
       style="fill:none;stroke:#000000;stroke-width:3;stroke-linecap:butt;stroke-linejoin:miter;stroke-opacity:1;display:inline"
       d="m 115.64865,112.32446 c 25.82734,12.93719 52.04953,25.11108 79.63615,34.64728"
       id="path5254"
       inkscape:connector-curvature="0"
       sodipodi:nodetypes="cc" />
    <g
       id="g6484">
      <path
         sodipodi:nodetypes="sscccccccss"
         inkscape:connector-curvature="0"
         id="path5042"
         d="m 218.93081,157.99698 c -2.51767,-12.32195 -15.47633,-17.9919 -21.64859,-17.63343 -6.32768,0.3675 -14.74649,-5.23311 -19.68416,-9.21716 -5.15797,5.65821 -7.78513,13.17583 -8.59694,19.92059 -6.9767,-0.18561 -13.20028,5.9088 -22.01858,6.75257 5.18755,8.60325 8.17638,18.52565 18.39102,24.11266 l -6.94771,24.52134 c 9.68306,-0.89148 19.0387,-0.90964 31.87776,-10.21723 4.14667,6.20679 10.43562,10.27128 20.02575,11.03461 0.10782,-10.69566 -0.55698,-20.23734 1.54988,-24.73063 2.83529,-6.04684 9.22372,-13.9124 7.05157,-24.54332 z"
         style="fill:#22002b;stroke:#000000;stroke-width:3;stroke-linecap:butt;stroke-linejoin:miter;stroke-opacity:1;display:inline" />
      <path
         sodipodi:nodetypes="cc"
         inkscape:connector-curvature="0"
         id="path8329"
         d="m 211.14445,158.79485 c 6.95598,1.42138 12.77586,3.22537 18.75368,-3.09223"
         style="fill:none;stroke:#000000;stroke-width:3;stroke-linecap:butt;stroke-linejoin:miter;stroke-opacity:1" />
    </g>
  </g>
  <g
     inkscape:groupmode="layer"
     id="layer4"
     inkscape:label="吹き出し"
     sodipodi:insensitive="true">
    <path
       style="fill:#fefefe;fill-opacity:1;stroke:#000000;stroke-width:3"
       d="m 206.08752,13.123724 125.30453,0 c 14.39154,0 25.97752,11.58598 25.97752,25.97753 l 0,10.519497 c 0,14.39155 -11.58598,25.97753 -25.97752,25.97753 l -67.96702,0 c -21.29438,0 -33.6402,10.118168 -55.63921,18.681065 11.23452,-10.41871 28.56655,-18.681065 10.82034,-18.681065 l -12.51864,0 c -14.39155,0 -25.97753,-11.58598 -25.97753,-25.97753 l 0,-10.519497 c 0,-14.39155 11.58598,-25.97753 25.97753,-25.97753 z"
       id="rect13841"
       inkscape:connector-curvature="0"
       sodipodi:nodetypes="sssssscsssss" />
    <text
       xml:space="preserve"
       style="font-size:35.49662018px;font-style:normal;font-variant:normal;font-weight:normal;font-stretch:normal;line-height:125%;letter-spacing:0px;word-spacing:0px;writing-mode:lr-tb;fill:#000000;fill-opacity:1;stroke:none;font-family:MS UI Gothic;-inkscape-font-specification:MS UI Gothic"
       x="205.44127"
       y="54.5471"
       id="text6768-1"
       sodipodi:linespacing="125%"><tspan
         sodipodi:role="line"
         x="205.44127"
         y="54.5471"
         style="font-size:35.49662018px;font-style:normal;font-variant:normal;font-weight:normal;font-stretch:normal;fill:#000000;fill-opacity:1;font-family:MS UI Gothic;-inkscape-font-specification:MS UI Gothic"
         id="tspan3151-4">ただいま。</tspan></text>
  </g>
  <g
     inkscape:groupmode="layer"
     id="layer2"
     inkscape:label="枠面"
     sodipodi:insensitive="true">
    <path
       style="fill:#ffffff;stroke:none;display:inline"
       d="m 0,0 0,320 370,0 0,-320 -10,10 0,300 -350,0 0,-300 350,0 10,-10 z"
       id="path21072"
       inkscape:connector-curvature="0"
       sodipodi:nodetypes="ccccccccccc" />
  </g>
</svg>
