<?xml version="1.0" encoding="UTF-8" standalone="no"?>
<!-- Created with Inkscape (http://www.inkscape.org/) -->

<svg
   xmlns:dc="http://purl.org/dc/elements/1.1/"
   xmlns:cc="http://creativecommons.org/ns#"
   xmlns:rdf="http://www.w3.org/1999/02/22-rdf-syntax-ns#"
   xmlns:svg="http://www.w3.org/2000/svg"
   xmlns="http://www.w3.org/2000/svg"
   xmlns:sodipodi="http://sodipodi.sourceforge.net/DTD/sodipodi-0.dtd"
   xmlns:inkscape="http://www.inkscape.org/namespaces/inkscape"
   width="370"
   height="320"
   id="svg3172"
   version="1.1"
   inkscape:version="0.48.4 r9939"
   sodipodi:docname="[06]急行.svg"
   inkscape:export-filename="C:\Users\執安\Desktop\資料\臨時\ANCESTOR\org\[06]急行.png"
   inkscape:export-xdpi="90"
   inkscape:export-ydpi="90">
  <defs
     id="defs3174" />
  <sodipodi:namedview
     id="base"
     pagecolor="#ffffff"
     bordercolor="#666666"
     borderopacity="1.0"
     inkscape:pageopacity="0.0"
     inkscape:pageshadow="2"
     inkscape:zoom="1.2583024"
     inkscape:cx="194.60419"
     inkscape:cy="118.35406"
     inkscape:document-units="px"
     inkscape:current-layer="layer3"
     showgrid="false"
     inkscape:window-width="1100"
     inkscape:window-height="698"
     inkscape:window-x="-5"
     inkscape:window-y="-5"
     inkscape:window-maximized="0" />
  <metadata
     id="metadata3177">
    <rdf:RDF>
      <cc:Work
         rdf:about="">
        <dc:format>image/svg+xml</dc:format>
        <dc:type
           rdf:resource="http://purl.org/dc/dcmitype/StillImage" />
        <dc:title></dc:title>
      </cc:Work>
    </rdf:RDF>
  </metadata>
  <g
     inkscape:label="補助線"
     inkscape:groupmode="layer"
     id="layer1"
     transform="translate(0,-732.36218)"
     sodipodi:insensitive="true"
     style="display:none">
    <path
       style="fill:none;stroke:#0000ff;stroke-width:1px;stroke-linecap:butt;stroke-linejoin:miter;stroke-opacity:1;display:inline"
       d="M 10,1042.3622 360,742.36211"
       id="path3025"
       inkscape:connector-curvature="0"
       sodipodi:nodetypes="cc" />
    <path
       style="fill:none;stroke:#0000ff;stroke-width:1px;stroke-linecap:butt;stroke-linejoin:miter;stroke-opacity:1;display:inline"
       d="M 10,742.36211 360,1042.3622"
       id="path3027"
       inkscape:connector-curvature="0"
       sodipodi:nodetypes="cc" />
    <path
       style="fill:none;stroke:#ff0000;stroke-width:1px;stroke-linecap:butt;stroke-linejoin:miter;stroke-opacity:1;display:inline"
       d="m 10,732.36211 0,320.00009"
       id="path3006"
       inkscape:connector-curvature="0"
       sodipodi:nodetypes="cc" />
    <path
       style="fill:none;stroke:#ff0000;stroke-width:1px;stroke-linecap:butt;stroke-linejoin:miter;stroke-opacity:1;display:inline"
       d="m 360,732.36211 0,320.00009"
       id="path3010"
       inkscape:connector-curvature="0"
       sodipodi:nodetypes="cc" />
    <path
       style="fill:none;stroke:#ff0000;stroke-width:1px;stroke-linecap:butt;stroke-linejoin:miter;stroke-opacity:1;display:inline"
       d="m 0,742.36208 370,3e-5"
       id="path3016"
       inkscape:connector-curvature="0" />
    <path
       style="fill:none;stroke:#ff0000;stroke-width:1px;stroke-linecap:butt;stroke-linejoin:miter;stroke-opacity:1;display:inline"
       d="m 0,1042.3622 370,0"
       id="path3018"
       inkscape:connector-curvature="0"
       sodipodi:nodetypes="cc" />
  </g>
  <g
     inkscape:groupmode="layer"
     id="layer3"
     inkscape:label="豚"
     style="display:inline"
     sodipodi:insensitive="true">
    <g
       id="g6648"
       transform="matrix(0.9994678,-0.03262095,0.03262095,0.9994678,-5.5954799,27.980223)">
      <path
         sodipodi:nodetypes="ccccc"
         inkscape:connector-curvature="0"
         id="path8176-7-9-1"
         d="m 89.804341,189.39408 c 0.743943,0.0689 4.626472,0.71371 4.626472,0.71371 l -36.324418,61.41289 -3.776942,-3.31547 z"
         style="fill:#c8ab37;stroke:none" />
      <path
         sodipodi:nodetypes="ccccc"
         inkscape:connector-curvature="0"
         id="path8176-5-1"
         d="m 94.549704,190.71762 7.943516,3.04967 -38.871192,56.0686 -5.392365,1.78174 z"
         style="fill:#ffe680;stroke:none" />
      <path
         sodipodi:nodetypes="cccccc"
         inkscape:connector-curvature="0"
         id="path5238-4-3"
         d="m 54.688404,248.09093 35.287808,-58.64186 12.552398,4.46977 -39.461411,55.7574 -4.904001,1.63643 z"
         style="fill:none;stroke:#000000;stroke-width:3;stroke-linecap:butt;stroke-linejoin:miter;stroke-opacity:1;display:inline" />
      <path
         sodipodi:nodetypes="cc"
         inkscape:connector-curvature="0"
         id="path8156-2-3-8"
         d="M 94.592128,189.9441 58.201643,251.4839"
         style="fill:none;stroke:#000000;stroke-width:3;stroke-linecap:butt;stroke-linejoin:miter;stroke-opacity:1;display:inline" />
      <path
         sodipodi:nodetypes="ccccc"
         inkscape:connector-curvature="0"
         id="path8176-7-1"
         d="m 173.26027,185.42264 c -0.66778,0.26606 -4.03389,1.91666 -4.03389,1.91666 l 38.07963,71.98877 2.15205,-4.07636 z"
         style="fill:#c8ab37;stroke:none" />
      <path
         sodipodi:nodetypes="ccccc"
         inkscape:connector-curvature="0"
         id="path8176-2"
         d="m 168.87396,187.40669 -5.74745,6.89948 38.31152,64.97646 5.79305,0.16815 z"
         style="fill:#ffe680;stroke:none" />
      <path
         sodipodi:nodetypes="ccccccc"
         inkscape:connector-curvature="0"
         id="path5238-3"
         d="m 209.07424,255.24446 -35.95192,-69.72445 -4.95472,2.10993 -4.97398,6.72101 38.69724,64.63376 5.27511,0.16766 z"
         style="fill:none;stroke:#000000;stroke-width:3;stroke-linecap:butt;stroke-linejoin:miter;stroke-opacity:1;display:inline" />
      <path
         sodipodi:nodetypes="cc"
         inkscape:connector-curvature="0"
         id="path8156-2-34"
         d="m 169.007,187.23283 38.19448,72.0874"
         style="fill:none;stroke:#000000;stroke-width:3;stroke-linecap:butt;stroke-linejoin:miter;stroke-opacity:1;display:inline" />
      <path
         sodipodi:nodetypes="cssscc"
         inkscape:connector-curvature="0"
         id="path5494"
         d="m 54.586695,123.63143 c 24.490703,2.71204 69.208735,8.58453 87.758995,-4.04983 25.22772,-17.18229 77.45109,-17.06119 87.07759,26.01549 8.8595,39.64447 -21.59205,75.84663 -75.12611,78.63158 -48.32258,2.51384 -101.239435,-21.79419 -113.982435,-60.85718 z"
         style="fill:#672178;stroke:#000000;stroke-width:3;stroke-linecap:butt;stroke-linejoin:miter;stroke-opacity:1;display:inline" />
      <path
         sodipodi:nodetypes="ssssss"
         inkscape:connector-curvature="0"
         id="path8333"
         d="m 136.82035,137.83566 c 7.37238,1.02769 13.96998,10.61611 14.7459,9.32978 2.15658,-3.57518 -2.31551,-9.88418 1.01906,-10.60504 5.41336,-1.17025 17.31306,6.12785 20.87691,8.07174 4.04083,2.20406 -3.53656,-8.58332 -13.29746,-11.22896 -11.40604,-3.09155 -32.49135,3.15742 -23.34441,4.43248 z"
         style="fill:#441650;stroke:none" />
      <path
         sodipodi:nodetypes="ccccc"
         inkscape:connector-curvature="0"
         id="path8176-7-9"
         d="m 181.60576,203.24047 c 0.6273,-0.40581 4.07746,-2.29957 4.07746,-2.29957 l 41.71547,67.4991 -5.0184,-0.27054 z"
         style="fill:#c8ab37;stroke:none" />
      <path
         sodipodi:nodetypes="ccccc"
         inkscape:connector-curvature="0"
         id="path8176-5"
         d="m 186.1537,201.3467 8.12879,-2.51449 36.40954,64.87337 -3.1365,4.73442 z"
         style="fill:#ffe680;stroke:none" />
      <path
         sodipodi:nodetypes="ccccccc"
         inkscape:connector-curvature="0"
         id="path5238-4"
         d="m 222.59175,267.85769 -40.81693,-64.68027 4.6522,-1.63419 7.97698,-2.6138 35.75325,64.99372 -2.84252,4.31824 z"
         style="fill:none;stroke:#000000;stroke-width:3;stroke-linecap:butt;stroke-linejoin:miter;stroke-opacity:1;display:inline" />
      <path
         sodipodi:nodetypes="cc"
         inkscape:connector-curvature="0"
         id="path8156-2-3"
         d="m 185.70879,200.71251 41.74202,67.6397"
         style="fill:none;stroke:#000000;stroke-width:3;stroke-linecap:butt;stroke-linejoin:miter;stroke-opacity:1;display:inline" />
      <path
         sodipodi:nodetypes="ccccc"
         inkscape:connector-curvature="0"
         id="path8176-7"
         d="m 88.45254,199.06093 c -0.47625,-0.53845 -3.16814,-3.14782 -3.16814,-3.14782 l -54.86513,60.1852 4.56403,0.64639 z"
         style="fill:#c8ab37;stroke:none" />
      <path
         sodipodi:nodetypes="ccccc"
         inkscape:connector-curvature="0"
         id="path8176"
         d="m 84.77497,196.24854 c -0.47626,-0.53843 -6.05466,-6.23765 -6.05466,-6.23765 l -50.2431,60.54996 1.80126,5.50846 z"
         style="fill:#ffe680;stroke:none" />
      <path
         sodipodi:nodetypes="cccccc"
         inkscape:connector-curvature="0"
         id="path5238"
         d="m 34.86029,256.38104 53.45395,-57.417 -9.08132,-9.05412 -50.32218,60.9763 1.62652,5.02089 z"
         style="fill:none;stroke:#000000;stroke-width:3;stroke-linecap:butt;stroke-linejoin:miter;stroke-opacity:1;display:inline" />
      <path
         sodipodi:nodetypes="cc"
         inkscape:connector-curvature="0"
         id="path8156-2"
         d="M 85.3104,195.67063 30.39131,255.99728"
         style="fill:none;stroke:#000000;stroke-width:3;stroke-linecap:butt;stroke-linejoin:miter;stroke-opacity:1;display:inline" />
    </g>
    <path
       sodipodi:type="arc"
       style="fill:#000000;fill-opacity:1;stroke:none"
       id="path8295"
       sodipodi:cx="135.92949"
       sodipodi:cy="298.72409"
       sodipodi:rx="91.013657"
       sodipodi:ry="8.2739687"
       d="m 226.94315,298.72409 a 91.013657,8.2739687 0 1 1 -182.027317,0 91.013657,8.2739687 0 1 1 182.027317,0 z"
       transform="matrix(-1.0241147,0,0,1.0241147,285.01326,-4.7567358)" />
    <g
       id="g6623"
       transform="matrix(0.9994678,-0.03262095,0.03262095,0.9994678,4.399198,27.654013)">
      <path
         sodipodi:nodetypes="ccsccc"
         inkscape:connector-curvature="0"
         id="path5484"
         d="m 63.436838,88.884534 c -22.964373,3.2934 -14.949903,-16.07987 -7.142193,-24.521322 -2.88279,-35.886345 23.875523,-50.744124 47.029015,-50.982414 25.87502,-0.2663 48.36899,14.882339 53.66751,45.433884 27.58042,43.284238 1.31336,95.763828 -76.271332,81.041488 16.98154,-14.94913 -25.342133,-11.53014 -24.993233,-50.731326"
         style="fill:#fffff8;fill-opacity:1;stroke:#000000;stroke-width:3;stroke-linecap:butt;stroke-linejoin:miter;stroke-opacity:1;display:inline" />
      <path
         inkscape:connector-curvature="0"
         id="path5486"
         d="m 68.012098,63.020822 c 0.0925,-7.93123 4.70524,-9.678535 10.78713,-7.15352 6.66666,2.76778 10.19389,11.99116 18.31324,3.47117"
         style="fill:none;stroke:#000000;stroke-width:3;stroke-linecap:butt;stroke-linejoin:miter;stroke-opacity:1;display:inline" />
      <path
         inkscape:connector-curvature="0"
         id="path5488"
         d="m 82.089428,42.385007 -1.38009,8.68829"
         style="fill:none;stroke:#000000;stroke-width:3;stroke-linecap:butt;stroke-linejoin:miter;stroke-opacity:1;display:inline" />
      <path
         inkscape:connector-curvature="0"
         id="path5490"
         d="m 68.639028,45.154927 2.40883,4.57939"
         style="fill:none;stroke:#000000;stroke-width:3;stroke-linecap:butt;stroke-linejoin:miter;stroke-opacity:1;display:inline" />
      <path
         inkscape:connector-curvature="0"
         id="path5492"
         d="m 85.956928,76.945824 c -13.59994,8.33457 -13.83648,17.573 2.34891,23.690116"
         style="fill:#fffff8;fill-opacity:1;stroke:#000000;stroke-width:3;stroke-linecap:butt;stroke-linejoin:miter;stroke-opacity:1;display:inline" />
      <path
         sodipodi:nodetypes="ccc"
         inkscape:connector-curvature="0"
         id="path3910-5"
         d="m 64.956408,31.574197 11.80857,-18.054019 14.0075,16.636789"
         style="fill:#f8fcff;fill-opacity:1;stroke:#000000;stroke-width:3;stroke-linecap:butt;stroke-linejoin:miter;stroke-opacity:1;display:inline" />
      <path
         sodipodi:nodetypes="cc"
         inkscape:connector-curvature="0"
         id="path3908-6"
         d="m 63.967828,31.457157 78.369892,-3.51049"
         style="fill:none;stroke:#000000;stroke-width:3;stroke-linecap:butt;stroke-linejoin:miter;stroke-opacity:1;display:inline" />
    </g>
    <path
       style="fill:none;stroke:#000000;stroke-width:3;stroke-linecap:butt;stroke-linejoin:miter;stroke-opacity:1;display:inline"
       d="m 87.491951,121.45378 c -2.333113,8.31839 -19.580812,23.26471 -26.529955,36.46065"
       id="path8156"
       inkscape:connector-curvature="0"
       sodipodi:nodetypes="cc" />
    <path
       style="fill:none;stroke:#000000;stroke-width:3;stroke-linecap:butt;stroke-linejoin:miter;stroke-opacity:1;display:inline"
       d="m 53.481247,140.07055 c 0.774409,-3.92017 13.914883,-19.45208 12.971592,-25.44008"
       id="path5254"
       inkscape:connector-curvature="0"
       sodipodi:nodetypes="cc" />
    <path
       style="fill:none;stroke:#000000;stroke-width:3;stroke-linecap:butt;stroke-linejoin:miter;stroke-opacity:1;display:inline"
       d="m 84.317125,117.47509 c -6.545467,3.34024 -18.636551,0.24597 -20.890251,-2.69771"
       id="path8156-3"
       inkscape:connector-curvature="0"
       sodipodi:nodetypes="cc" />
    <g
       id="g3594">
      <path
         inkscape:connector-curvature="0"
         id="path5502"
         d="m 12.068429,168.98698 c 0.908279,-9.34384 11.672732,-18.02156 18.197131,-19.155 6.417746,-1.11492 15.794816,-6.97067 20.732953,-11.22839 5.487667,5.63889 8.438156,13.2725 9.498125,20.17313 7.159862,-0.42454 16.103502,5.12037 25.189505,5.69141 -5.039945,9.0107 -7.777309,19.30264 -18.081922,25.38373 l 7.95836,24.95405 c -9.97579,-0.59106 -19.585985,-0.29607 -33.085593,-9.42589 -4.051154,6.51428 -10.374555,10.89994 -20.19942,12.00548 -0.469305,-10.98237 -0.106346,-20.80534 -2.421028,-25.34997 -3.114965,-6.11592 -9.004274,-10.53867 -7.788111,-23.04855 z"
         style="fill:#22002b;stroke:#000000;stroke-width:3;stroke-linecap:butt;stroke-linejoin:miter;stroke-opacity:1;display:inline" />
      <path
         sodipodi:nodetypes="cc"
         inkscape:connector-curvature="0"
         id="path3592"
         d="m 17.139566,168.1322 c -6.139781,-4.88245 -4.72099,-10.93179 0.746513,-16.60171"
         style="fill:none;stroke:#000000;stroke-width:3;stroke-linecap:butt;stroke-linejoin:miter;stroke-opacity:1" />
    </g>
  </g>
  <g
     inkscape:groupmode="layer"
     id="layer4"
     inkscape:label="吹き出し"
     sodipodi:insensitive="true">
    <path
       style="fill:#fefefe;fill-opacity:1;stroke:#000000;stroke-width:3"
       d="m 192.45308,11.845495 139.79112,0 c 14.39154,0 25.97752,11.58598 25.97752,25.97753 l 0,10.519497 c 0,14.39155 -11.58598,25.97753 -25.97752,25.97753 l -67.96702,0 c -21.29438,0 -33.6402,10.118168 -55.63921,18.681065 11.23452,-10.41871 28.56655,-18.681065 10.82034,-18.681065 l -27.00523,0 c -14.39155,0 -25.97753,-11.58598 -25.97753,-25.97753 l 0,-10.519497 c 0,-14.39155 11.58598,-25.97753 25.97753,-25.97753 z"
       id="rect13841"
       inkscape:connector-curvature="0"
       sodipodi:nodetypes="sssssscsssss" />
    <text
       xml:space="preserve"
       style="font-size:35.49662018px;font-style:normal;font-variant:normal;font-weight:normal;font-stretch:normal;line-height:125%;letter-spacing:0px;word-spacing:0px;writing-mode:lr-tb;fill:#000000;fill-opacity:1;stroke:none;font-family:MS UI Gothic;-inkscape-font-specification:MS UI Gothic"
       x="181.44127"
       y="54.5471"
       id="text6768-1"
       sodipodi:linespacing="125%"><tspan
         sodipodi:role="line"
         x="181.44127"
         y="54.5471"
         style="font-size:35.49662018px;font-style:normal;font-variant:normal;font-weight:normal;font-stretch:normal;fill:#000000;fill-opacity:1;font-family:MS UI Gothic;-inkscape-font-specification:MS UI Gothic"
         id="tspan3151-4">馳せ参じ中</tspan></text>
  </g>
  <g
     inkscape:groupmode="layer"
     id="layer2"
     inkscape:label="枠面"
     sodipodi:insensitive="true">
    <path
       style="fill:#ffffff;stroke:none;display:inline"
       d="m 0,0 0,320 370,0 0,-320 -10,10 0,300 -350,0 0,-300 350,0 10,-10 z"
       id="path21072"
       inkscape:connector-curvature="0"
       sodipodi:nodetypes="ccccccccccc" />
  </g>
</svg>
