<?xml version="1.0" encoding="UTF-8" standalone="no"?>
<!-- Created with Inkscape (http://www.inkscape.org/) -->

<svg
   xmlns:dc="http://purl.org/dc/elements/1.1/"
   xmlns:cc="http://creativecommons.org/ns#"
   xmlns:rdf="http://www.w3.org/1999/02/22-rdf-syntax-ns#"
   xmlns:svg="http://www.w3.org/2000/svg"
   xmlns="http://www.w3.org/2000/svg"
   xmlns:sodipodi="http://sodipodi.sourceforge.net/DTD/sodipodi-0.dtd"
   xmlns:inkscape="http://www.inkscape.org/namespaces/inkscape"
   width="370"
   height="320"
   id="svg3172"
   version="1.1"
   inkscape:version="0.48.4 r9939"
   sodipodi:docname="[11]召喚.svg"
   inkscape:export-filename="C:\Users\執安\Desktop\資料\臨時\svg\BUTAS\[22.成功].png"
   inkscape:export-xdpi="90"
   inkscape:export-ydpi="90">
  <defs
     id="defs3174">
    <filter
       inkscape:collect="always"
       id="filter4335"
       x="-0.073800002"
       width="1.1476"
       y="-0.32086953"
       height="1.6417391">
      <feGaussianBlur
         inkscape:collect="always"
         stdDeviation="3.5906181"
         id="feGaussianBlur4337" />
    </filter>
    <filter
       inkscape:collect="always"
       id="filter20893">
      <feGaussianBlur
         inkscape:collect="always"
         stdDeviation="6.3199717"
         id="feGaussianBlur20895" />
    </filter>
    <filter
       inkscape:collect="always"
       id="filter20901">
      <feGaussianBlur
         inkscape:collect="always"
         stdDeviation="3.1035338"
         id="feGaussianBlur20903" />
    </filter>
  </defs>
  <sodipodi:namedview
     id="base"
     pagecolor="#ffffff"
     bordercolor="#666666"
     borderopacity="1.0"
     inkscape:pageopacity="0.0"
     inkscape:pageshadow="2"
     inkscape:zoom="0.65760595"
     inkscape:cx="-14.123159"
     inkscape:cy="116.2889"
     inkscape:document-units="px"
     inkscape:current-layer="layer3"
     showgrid="false"
     inkscape:window-width="1366"
     inkscape:window-height="705"
     inkscape:window-x="-8"
     inkscape:window-y="-8"
     inkscape:window-maximized="1" />
  <metadata
     id="metadata3177">
    <rdf:RDF>
      <cc:Work
         rdf:about="">
        <dc:format>image/svg+xml</dc:format>
        <dc:type
           rdf:resource="http://purl.org/dc/dcmitype/StillImage" />
        <dc:title />
      </cc:Work>
    </rdf:RDF>
  </metadata>
  <g
     inkscape:label="補助線"
     inkscape:groupmode="layer"
     id="layer1"
     transform="translate(0,-732.36218)"
     sodipodi:insensitive="true"
     style="display:none">
    <path
       style="fill:none;stroke:#0000ff;stroke-width:1px;stroke-linecap:butt;stroke-linejoin:miter;stroke-opacity:1;display:inline"
       d="M 10,1042.3622 360,742.36211"
       id="path3025"
       inkscape:connector-curvature="0"
       sodipodi:nodetypes="cc" />
    <path
       style="fill:none;stroke:#0000ff;stroke-width:1px;stroke-linecap:butt;stroke-linejoin:miter;stroke-opacity:1;display:inline"
       d="M 10,742.36211 360,1042.3622"
       id="path3027"
       inkscape:connector-curvature="0"
       sodipodi:nodetypes="cc" />
    <path
       style="fill:none;stroke:#ff0000;stroke-width:1px;stroke-linecap:butt;stroke-linejoin:miter;stroke-opacity:1;display:inline"
       d="m 10,732.36211 0,320.00009"
       id="path3006"
       inkscape:connector-curvature="0"
       sodipodi:nodetypes="cc" />
    <path
       style="fill:none;stroke:#ff0000;stroke-width:1px;stroke-linecap:butt;stroke-linejoin:miter;stroke-opacity:1;display:inline"
       d="m 360,732.36211 0,320.00009"
       id="path3010"
       inkscape:connector-curvature="0"
       sodipodi:nodetypes="cc" />
    <path
       style="fill:none;stroke:#ff0000;stroke-width:1px;stroke-linecap:butt;stroke-linejoin:miter;stroke-opacity:1;display:inline"
       d="m 0,742.36208 370,3e-5"
       id="path3016"
       inkscape:connector-curvature="0" />
    <path
       style="fill:none;stroke:#ff0000;stroke-width:1px;stroke-linecap:butt;stroke-linejoin:miter;stroke-opacity:1;display:inline"
       d="m 0,1042.3622 370,0"
       id="path3018"
       inkscape:connector-curvature="0"
       sodipodi:nodetypes="cc" />
  </g>
  <g
     inkscape:groupmode="layer"
     id="layer3"
     inkscape:label="豚">
    <rect
       style="fill:#000000;fill-opacity:1;stroke:none;filter:url(#filter20901)"
       id="rect4280"
       width="313.82928"
       height="250.70174"
       x="29.167711"
       y="71.443367"
       ry="0"
       transform="matrix(0.96473949,0,0,1.4646098,-0.44472523,-132.8852)" />
    <path
       style="fill:#ffff80;fill-opacity:1;stroke:none;filter:url(#filter20893)"
       d="m 99.080986,-109.35097 166.786334,0 0,386.41586 c 0,27.35313 -166.786334,27.71624 -166.786334,0 z"
       id="rect4313"
       inkscape:connector-curvature="0"
       sodipodi:nodetypes="ccssc" />
    <path
       sodipodi:type="arc"
       style="fill:#ffff00;fill-opacity:1;stroke:none;filter:url(#filter4335)"
       id="path4311"
       sodipodi:cx="184.49355"
       sodipodi:cy="285.55341"
       sodipodi:rx="66.640785"
       sodipodi:ry="13.428329"
       d="m 251.13433,285.55341 a 66.640785,13.428329 0 1 1 -133.28157,0 66.640785,13.428329 0 1 1 133.28157,0 z"
       transform="translate(-1.368023,-5.2373765)" />
    <g
       transform="translate(5.878633,0.514087)"
       id="g11136">
      <path
         sodipodi:nodetypes="csccc"
         inkscape:connector-curvature="0"
         id="path5405-1"
         d="m 266.58622,92.103821 c -2.92676,-3.235648 -11.20089,-12.966554 -15.60097,-10.269157 -4.90489,3.006853 -2.87073,16.252217 -3.30758,25.504396 2.79654,-0.66019 2.67963,-1.44993 5.39023,-5.09264 l 8.31516,4.42561"
         style="fill:#fffff8;fill-opacity:1;stroke:#000000;stroke-width:3;stroke-linecap:butt;stroke-linejoin:miter;stroke-opacity:1;display:inline" />
      <path
         sodipodi:nodetypes="ccc"
         inkscape:connector-curvature="0"
         id="path5413-6-4"
         d="m 258.92514,101.50359 c -0.3364,4.60623 -2.02775,6.261 -4.06751,8.67363 -1.74484,-3.61855 -2.39812,-8.78661 -1.30358,-11.254878"
         style="fill:#fffff8;fill-opacity:1;stroke:#000000;stroke-width:3;stroke-linecap:butt;stroke-linejoin:miter;stroke-opacity:1;display:inline" />
      <path
         inkscape:connector-curvature="0"
         id="path5094-0"
         d="m 260.46121,124.29967 c -5.6641,1.71821 -5.20639,-3.78494 -2.8168,-12.06973 -1.41347,-13.343569 6.99467,-20.959346 16.39753,-21.867098 10.39436,-1.003479 20.38811,5.285669 22.02831,17.251798 3.77072,3.41279 3.88294,11.59033 9.39948,13.11693 -4.17109,8.15104 -12.89027,17.42729 -24.50641,18.25822 -11.67828,0.83538 -21.37408,-4.14586 -21.43506,-17.1391"
         style="fill:#fffff8;fill-opacity:1;stroke:#000000;stroke-width:3;stroke-linecap:butt;stroke-linejoin:miter;stroke-opacity:1;display:inline" />
      <path
         inkscape:connector-curvature="0"
         id="path5096-1"
         d="m 264.8517,115.02275 c 1.09708,-3.0734 3.58579,-3.68255 5.85064,-1.66956 2.01557,1.79143 4.07036,3.25421 6.92295,1.06197"
         style="fill:#fffff8;fill-opacity:1;stroke:#000000;stroke-width:3;stroke-linecap:butt;stroke-linejoin:miter;stroke-opacity:1;display:inline" />
      <path
         inkscape:connector-curvature="0"
         id="path5098-6"
         d="m 271.94952,106.53464 0.0496,3.79183"
         style="fill:#fffff8;fill-opacity:1;stroke:#000000;stroke-width:3;stroke-linecap:butt;stroke-linejoin:miter;stroke-opacity:1;display:inline" />
      <path
         inkscape:connector-curvature="0"
         id="path5100-4"
         d="m 266.10714,105.88787 0.25746,4.31924"
         style="fill:#fffff8;fill-opacity:1;stroke:#000000;stroke-width:3;stroke-linecap:butt;stroke-linejoin:miter;stroke-opacity:1;display:inline" />
      <path
         inkscape:connector-curvature="0"
         id="path5102-0"
         d="m 279.18788,117.3761 c -3.34866,8.45922 1.30477,10.14063 7.81494,5.76459"
         style="fill:#fffff8;fill-opacity:1;stroke:#000000;stroke-width:3;stroke-linecap:butt;stroke-linejoin:miter;stroke-opacity:1;display:inline" />
      <path
         sodipodi:nodetypes="cssccc"
         inkscape:connector-curvature="0"
         id="path5405"
         d="m 290.73932,106.97005 c 6.67309,-3.1705 17.08116,-15.122985 25.55296,-15.374725 5.40434,-0.16059 8.4751,4.357695 12.45493,10.042515 3.51431,5.01988 8.25815,10.94935 8.48083,15.37005 -2.73002,-0.89655 -5.40572,-1.78118 -7.79546,-5.64208 l -32.30999,6.41596"
         style="fill:#fffff8;fill-opacity:1;stroke:#000000;stroke-width:3;stroke-linecap:butt;stroke-linejoin:miter;stroke-opacity:1;display:inline" />
      <path
         sodipodi:nodetypes="ccc"
         inkscape:connector-curvature="0"
         id="path5407"
         d="m 295.67051,114.69325 c 0.99155,2.38378 3.27781,6.5059 6.24464,7.97906 1.17085,-2.29437 0.58868,-4.77479 -0.77242,-7.5399"
         style="fill:#fffff8;fill-opacity:1;stroke:#000000;stroke-width:3;stroke-linecap:butt;stroke-linejoin:miter;stroke-opacity:1;display:inline" />
      <path
         sodipodi:nodetypes="ccc"
         inkscape:connector-curvature="0"
         id="path5409"
         d="m 303.57428,112.52055 c 2.40973,5.72755 5.86682,9.56039 9.40234,10.89001 1.07969,-2.9616 -0.12487,-5.6494 -1.85163,-9.69853"
         style="fill:#fffff8;fill-opacity:1;stroke:#000000;stroke-width:3;stroke-linecap:butt;stroke-linejoin:miter;stroke-opacity:1;display:inline" />
      <path
         sodipodi:nodetypes="ccc"
         inkscape:connector-curvature="0"
         id="path5413"
         d="m 316.82348,111.28596 c 2.03998,4.46373 4.76989,7.63737 8.1075,8.87287 0.9568,-2.82417 0.63187,-5.31481 -1.52605,-11.1561"
         style="fill:#fffff8;fill-opacity:1;stroke:#000000;stroke-width:3;stroke-linecap:butt;stroke-linejoin:miter;stroke-opacity:1;display:inline" />
      <path
         sodipodi:nodetypes="ccc"
         inkscape:connector-curvature="0"
         id="path5413-6"
         d="m 321.37635,107.65497 c 1.84987,3.5304 3.26457,5.62217 7.74974,7.47838 0.5472,-4.2174 -0.67041,-5.77214 -2.69942,-8.74276"
         style="fill:#fffff8;fill-opacity:1;stroke:#000000;stroke-width:3;stroke-linecap:butt;stroke-linejoin:miter;stroke-opacity:1;display:inline" />
      <path
         sodipodi:nodetypes="ccc"
         inkscape:connector-curvature="0"
         id="path5413-6-1-8"
         d="m 309.42827,111.51951 c 2.36484,4.34085 4.77357,6.6997 7.78561,7.06791 0.75614,-2.97113 0.79223,-5.15579 -1.4099,-9.65766"
         style="fill:#fffff8;fill-opacity:1;stroke:#000000;stroke-width:3;stroke-linecap:butt;stroke-linejoin:miter;stroke-opacity:1;display:inline" />
      <path
         sodipodi:nodetypes="ccc"
         inkscape:connector-curvature="0"
         id="path5413-6-1-8-9"
         d="m 300.06666,112.95226 c 1.11114,3.08713 3.34386,5.752 5.32149,6.56346 0.75615,-2.2324 0.46831,-5.2065 -1.15024,-7.90696"
         style="fill:#fffff8;fill-opacity:1;stroke:#000000;stroke-width:3;stroke-linecap:butt;stroke-linejoin:miter;stroke-opacity:1;display:inline" />
    </g>
    <g
       transform="translate(5.878633,0.514087)"
       id="g10494"
       style="stroke-width:3">
      <path
         inkscape:connector-curvature="0"
         id="path5332"
         d="m 125.46281,184.60396 c -15.83195,10.97058 -11.79078,-24.03492 -6.54103,-35.39723 -2.25395,-29.3663 20.81437,-62.135669 62.5142,-58.369836 30.45643,2.750477 55.57367,29.252056 55.2216,69.279116 9.15148,59.04967 -31.37386,88.37323 -74.86793,82.08702 -31.35581,-4.53185 -41.92379,-18.00524 -51.11746,-29.17367 12.40698,-3.25608 7.44337,-15.84219 8.62792,-26.5062"
         style="fill:#fffff8;fill-opacity:1;stroke:#000000;stroke-width:3;stroke-linecap:butt;stroke-linejoin:miter;stroke-opacity:1;display:inline" />
      <path
         inkscape:connector-curvature="0"
         id="path5336"
         d="m 161.93623,132.90694 -0.30504,14.46861"
         style="fill:none;stroke:#000000;stroke-width:3;stroke-linecap:butt;stroke-linejoin:miter;stroke-opacity:1;display:inline" />
      <path
         inkscape:connector-curvature="0"
         id="path5338"
         d="m 143.85909,130.82363 0.38098,16.02273"
         style="fill:none;stroke:#000000;stroke-width:3;stroke-linecap:butt;stroke-linejoin:miter;stroke-opacity:1;display:inline" />
      <path
         inkscape:connector-curvature="0"
         id="path5340"
         d="m 183.39169,173.53099 c -0.61138,16.97716 7.02445,25.32842 22.7807,11.06668"
         style="fill:none;stroke:#000000;stroke-width:3;stroke-linecap:butt;stroke-linejoin:miter;stroke-opacity:1;display:inline" />
      <path
         inkscape:connector-curvature="0"
         id="path5368"
         d="m 136.9834,137.33339 33.31439,3.95815"
         style="fill:none;stroke:#000000;stroke-width:3;stroke-linecap:butt;stroke-linejoin:miter;stroke-opacity:1;display:inline" />
      <path
         inkscape:connector-curvature="0"
         id="path3759"
         d="m 144.88354,150.79363 c -0.0588,14.99135 -1.68096,25.2092 10.35379,26.13102 14.54854,1.11439 11.9153,-9.21697 12.32597,-14.2981"
         style="fill:#aa0000;stroke:#000000;stroke-width:3;stroke-linecap:butt;stroke-linejoin:miter;stroke-opacity:1;display:inline" />
      <path
         inkscape:connector-curvature="0"
         id="path3761"
         d="m 155.56604,159.01093 0.82173,10.18946"
         style="fill:none;stroke:#000000;stroke-width:3;stroke-linecap:butt;stroke-linejoin:miter;stroke-opacity:1;display:inline" />
      <path
         inkscape:connector-curvature="0"
         id="path5334"
         d="m 134.7824,159.45216 c 1.83511,-6.78702 10.75447,-12.67766 19.60448,-2.87384 6.59937,7.31061 14.52662,8.36456 21.42758,0.45611"
         style="fill:none;stroke:#000000;stroke-width:3;stroke-linecap:butt;stroke-linejoin:miter;stroke-opacity:1;display:inline" />
      <path
         sodipodi:nodetypes="ccc"
         inkscape:connector-curvature="0"
         id="path3910-85-6"
         d="m 139.93739,112.83434 26.25586,-26.267444 21.35382,31.379374"
         style="fill:#f8fcff;fill-opacity:1;stroke:#000000;stroke-width:3;stroke-linecap:butt;stroke-linejoin:miter;stroke-opacity:1;display:inline" />
      <path
         sodipodi:nodetypes="cc"
         inkscape:connector-curvature="0"
         id="path3908-16-5"
         d="m 132.79183,108.8866 c 6.25978,5.65333 76.73323,13.58746 91.5257,8.37444"
         style="fill:none;stroke:#000000;stroke-width:3;stroke-linecap:butt;stroke-linejoin:miter;stroke-opacity:1;display:inline" />
    </g>
    <g
       transform="translate(5.878633,0.514087)"
       id="g11152">
      <path
         sodipodi:nodetypes="csccc"
         inkscape:connector-curvature="0"
         id="path5405-1-7"
         d="m 41.537249,122.2422 c -2.92676,-3.53449 -11.200887,-14.11022 -15.600967,-11.86209 -4.90489,2.50604 -2.87073,15.9591 -3.30758,25.16668 2.79654,-0.37465 2.67963,-1.17633 5.39023,-4.54227 l 8.31516,5.27462"
         style="fill:#fffff8;fill-opacity:1;stroke:#000000;stroke-width:3;stroke-linecap:butt;stroke-linejoin:miter;stroke-opacity:1;display:inline" />
      <path
         sodipodi:nodetypes="ccc"
         inkscape:connector-curvature="0"
         id="path5413-6-4-2"
         d="m 33.876172,130.85974 c -0.3364,4.57188 -2.02775,6.05395 -4.06751,8.25832 -1.74484,-3.79671 -2.39812,-9.03147 -1.30358,-11.38799"
         style="fill:#fffff8;fill-opacity:1;stroke:#000000;stroke-width:3;stroke-linecap:butt;stroke-linejoin:miter;stroke-opacity:1;display:inline" />
      <path
         inkscape:connector-curvature="0"
         id="path5028-4"
         d="m 81.006245,137.46814 c 1.98302,-15.14987 -7.256549,-24.63202 -18.061729,-26.47659 -11.75638,-2.00695 -23.196262,3.58703 -25.529908,21.08752 -2.385047,8.35454 0.872096,15.61581 -7.634263,19.84283 5.496564,2.40424 5.600775,11.12598 21.714209,14.31479 15.96496,3.15941 26.954491,-4.14045 28.992481,-17.27417 5.92379,-1.01802 5.03344,-6.54213 -0.18666,-12.79708"
         style="fill:#fffff8;fill-opacity:1;stroke:#000000;stroke-width:3;stroke-linecap:butt;stroke-linejoin:miter;stroke-opacity:1;display:inline" />
      <path
         sodipodi:nodetypes="cssccc"
         inkscape:connector-curvature="0"
         id="path5405-5"
         d="m 60.883182,133.68169 c 8.469083,-2.47477 24.26301,-13.30163 33.623133,-12.6919 5.971015,0.38896 7.663575,5.19287 9.920305,11.24885 1.99275,5.34763 4.99498,11.72442 3.60802,16.14218 -2.65567,-1.16851 -5.25631,-2.31965 -6.44638,-6.40084 l -37.710256,3.09896"
         style="fill:#fffff8;fill-opacity:1;stroke:#000000;stroke-width:3;stroke-linecap:butt;stroke-linejoin:miter;stroke-opacity:1;display:inline" />
      <path
         sodipodi:nodetypes="ccc"
         inkscape:connector-curvature="0"
         id="path5407-75"
         d="m 63.428756,141.86085 c 0.205414,2.47067 1.185937,6.80106 3.887977,8.56689 2.127049,-2.16226 2.405097,-4.68744 1.936083,-7.57475"
         style="fill:#fffff8;fill-opacity:1;stroke:#000000;stroke-width:3;stroke-linecap:butt;stroke-linejoin:miter;stroke-opacity:1;display:inline" />
      <path
         sodipodi:nodetypes="ccc"
         inkscape:connector-curvature="0"
         id="path5409-4"
         d="m 72.876042,140.50306 c 0.523435,5.93908 2.891425,10.10071 6.268495,11.78157 2.27343,-2.83489 1.94714,-5.62944 1.551732,-9.83047"
         style="fill:#fffff8;fill-opacity:1;stroke:#000000;stroke-width:3;stroke-linecap:butt;stroke-linejoin:miter;stroke-opacity:1;display:inline" />
      <path
         sodipodi:nodetypes="ccc"
         inkscape:connector-curvature="0"
         id="path5413-1"
         d="m 87.824662,140.62059 c 0.585117,4.64503 2.400783,8.07746 5.596082,9.64463 2.088313,-2.71073 2.651521,-5.21995 2.445495,-11.24656"
         style="fill:#fffff8;fill-opacity:1;stroke:#000000;stroke-width:3;stroke-linecap:butt;stroke-linejoin:miter;stroke-opacity:1;display:inline" />
      <path
         sodipodi:nodetypes="ccc"
         inkscape:connector-curvature="0"
         id="path5413-6-2"
         d="m 94.144291,137.47276 c 0.721407,3.69779 1.497413,5.92108 5.719073,8.22188 2.154126,-4.13748 1.395636,-5.80684 0.271806,-8.96627"
         style="fill:#fffff8;fill-opacity:1;stroke:#000000;stroke-width:3;stroke-linecap:butt;stroke-linejoin:miter;stroke-opacity:1;display:inline" />
      <path
         sodipodi:nodetypes="ccc"
         inkscape:connector-curvature="0"
         id="path5413-6-1-8-0"
         d="m 79.648929,140.10206 c 0.985802,4.55584 2.750658,7.14559 5.909708,7.81743 1.923017,-2.87721 2.768288,-5.04558 2.019866,-9.74499"
         style="fill:#fffff8;fill-opacity:1;stroke:#000000;stroke-width:3;stroke-linecap:butt;stroke-linejoin:miter;stroke-opacity:1;display:inline" />
      <path
         sodipodi:nodetypes="ccc"
         inkscape:connector-curvature="0"
         id="path5413-6-1-8-9-01"
         d="m 68.879837,140.5762 c 0.07681,3.18209 1.53626,6.05821 3.40028,7.06575 1.650552,-2.14274 2.432656,-5.12888 1.658176,-7.97805"
         style="fill:#fffff8;fill-opacity:1;stroke:#000000;stroke-width:3;stroke-linecap:butt;stroke-linejoin:miter;stroke-opacity:1;display:inline" />
    </g>
  </g>
  <g
     inkscape:groupmode="layer"
     id="layer2"
     inkscape:label="枠面"
     sodipodi:insensitive="true">
    <path
       style="fill:#ffffff;stroke:none;display:inline"
       d="m 0,0 0,320 370,0 0,-320 -10,10 0,300 -350,0 0,-300 350,0 10,-10 z"
       id="path21072"
       inkscape:connector-curvature="0"
       sodipodi:nodetypes="ccccccccccc" />
  </g>
</svg>
