<?xml version="1.0" encoding="UTF-8" standalone="no"?>
<!-- Created with Inkscape (http://www.inkscape.org/) -->

<svg
   xmlns:dc="http://purl.org/dc/elements/1.1/"
   xmlns:cc="http://creativecommons.org/ns#"
   xmlns:rdf="http://www.w3.org/1999/02/22-rdf-syntax-ns#"
   xmlns:svg="http://www.w3.org/2000/svg"
   xmlns="http://www.w3.org/2000/svg"
   xmlns:xlink="http://www.w3.org/1999/xlink"
   xmlns:sodipodi="http://sodipodi.sourceforge.net/DTD/sodipodi-0.dtd"
   xmlns:inkscape="http://www.inkscape.org/namespaces/inkscape"
   width="370"
   height="320"
   id="svg3172"
   version="1.1"
   inkscape:version="0.48.4 r9939"
   sodipodi:docname="[13]契約.svg"
   inkscape:export-filename="C:\Users\執安\Desktop\資料\臨時\ANCESTOR\org\[13]契約.png"
   inkscape:export-xdpi="90"
   inkscape:export-ydpi="90">
  <defs
     id="defs3174">
    <radialGradient
       r="146.79102"
       fy="209.84151"
       fx="124.79624"
       cy="209.84151"
       cx="124.79624"
       gradientTransform="matrix(0.89434123,-0.04270413,0.1315753,1.0053583,-13.952803,-1.4495317)"
       gradientUnits="userSpaceOnUse"
       id="radialGradient7363"
       xlink:href="#linearGradient4464-9-7"
       inkscape:collect="always" />
    <linearGradient
       id="linearGradient4464-9-7">
      <stop
         style="stop-color:#2d495a;stop-opacity:1;"
         offset="0"
         id="stop4466-3-7" />
      <stop
         style="stop-color:#000000;stop-opacity:0;"
         offset="1"
         id="stop4468-4-1" />
    </linearGradient>
    <filter
       color-interpolation-filters="sRGB"
       inkscape:collect="always"
       id="filter4476-4-9"
       x="-0.29205009"
       width="1.5841002"
       y="-0.30013067"
       height="1.6002613">
      <feGaussianBlur
         inkscape:collect="always"
         stdDeviation="33.532769"
         id="feGaussianBlur4478-0-0" />
    </filter>
    <radialGradient
       r="146.79102"
       fy="209.84151"
       fx="124.79624"
       cy="209.84151"
       cx="124.79624"
       gradientTransform="matrix(0.89434123,-0.04270413,0.1315753,1.0053583,-13.952803,-1.4495317)"
       gradientUnits="userSpaceOnUse"
       id="radialGradient7422"
       xlink:href="#linearGradient4464-9-7"
       inkscape:collect="always" />
    <radialGradient
       r="146.79102"
       fy="209.84151"
       fx="124.79624"
       cy="209.84151"
       cx="124.79624"
       gradientTransform="matrix(0.89434123,-0.04270413,0.1315753,1.0053583,-13.952803,-1.4495317)"
       gradientUnits="userSpaceOnUse"
       id="radialGradient7363-6"
       xlink:href="#linearGradient4464-9-7-8"
       inkscape:collect="always" />
    <linearGradient
       id="linearGradient4464-9-7-8">
      <stop
         style="stop-color:#2d495a;stop-opacity:1;"
         offset="0"
         id="stop4466-3-7-0" />
      <stop
         style="stop-color:#000000;stop-opacity:0;"
         offset="1"
         id="stop4468-4-1-7" />
    </linearGradient>
    <filter
       color-interpolation-filters="sRGB"
       inkscape:collect="always"
       id="filter4476-4-9-7"
       x="-0.29205009"
       width="1.5841002"
       y="-0.30013067"
       height="1.6002613">
      <feGaussianBlur
         inkscape:collect="always"
         stdDeviation="33.532769"
         id="feGaussianBlur4478-0-0-4" />
    </filter>
    <radialGradient
       r="146.79102"
       fy="209.84151"
       fx="124.79624"
       cy="209.84151"
       cx="124.79624"
       gradientTransform="matrix(0.89434123,-0.04270413,0.1315753,1.0053583,-13.952803,-1.4495317)"
       gradientUnits="userSpaceOnUse"
       id="radialGradient7422-3"
       xlink:href="#linearGradient4464-9-7-8"
       inkscape:collect="always" />
    <radialGradient
       r="146.79102"
       fy="209.84151"
       fx="124.79624"
       cy="209.84151"
       cx="124.79624"
       gradientTransform="matrix(0.89434123,-0.04270413,0.1315753,1.0053583,-13.952803,-1.4495317)"
       gradientUnits="userSpaceOnUse"
       id="radialGradient7363-3"
       xlink:href="#linearGradient4464-9-7-6"
       inkscape:collect="always" />
    <linearGradient
       id="linearGradient4464-9-7-6">
      <stop
         style="stop-color:#2d495a;stop-opacity:1;"
         offset="0"
         id="stop4466-3-7-3" />
      <stop
         style="stop-color:#000000;stop-opacity:0;"
         offset="1"
         id="stop4468-4-1-0" />
    </linearGradient>
    <filter
       color-interpolation-filters="sRGB"
       inkscape:collect="always"
       id="filter4476-4-9-1"
       x="-0.29205009"
       width="1.5841002"
       y="-0.30013067"
       height="1.6002613">
      <feGaussianBlur
         inkscape:collect="always"
         stdDeviation="33.532769"
         id="feGaussianBlur4478-0-0-9" />
    </filter>
    <radialGradient
       r="146.79102"
       fy="209.84151"
       fx="124.79624"
       cy="209.84151"
       cx="124.79624"
       gradientTransform="matrix(0.89434123,-0.04270413,0.1315753,1.0053583,-13.952803,-1.4495317)"
       gradientUnits="userSpaceOnUse"
       id="radialGradient7422-0"
       xlink:href="#linearGradient4464-9-7-6"
       inkscape:collect="always" />
  </defs>
  <sodipodi:namedview
     id="base"
     pagecolor="#ffffff"
     bordercolor="#666666"
     borderopacity="1.0"
     inkscape:pageopacity="0.0"
     inkscape:pageshadow="2"
     inkscape:zoom="1.1152344"
     inkscape:cx="76.999012"
     inkscape:cy="175.0264"
     inkscape:document-units="px"
     inkscape:current-layer="layer3"
     showgrid="false"
     inkscape:window-width="1100"
     inkscape:window-height="698"
     inkscape:window-x="-5"
     inkscape:window-y="-5"
     inkscape:window-maximized="0" />
  <metadata
     id="metadata3177">
    <rdf:RDF>
      <cc:Work
         rdf:about="">
        <dc:format>image/svg+xml</dc:format>
        <dc:type
           rdf:resource="http://purl.org/dc/dcmitype/StillImage" />
        <dc:title />
      </cc:Work>
    </rdf:RDF>
  </metadata>
  <g
     inkscape:label="補助線"
     inkscape:groupmode="layer"
     id="layer1"
     transform="translate(0,-732.36218)"
     sodipodi:insensitive="true"
     style="display:none">
    <path
       style="fill:none;stroke:#0000ff;stroke-width:1px;stroke-linecap:butt;stroke-linejoin:miter;stroke-opacity:1;display:inline"
       d="M 10,1042.3622 360,742.36211"
       id="path3025"
       inkscape:connector-curvature="0"
       sodipodi:nodetypes="cc" />
    <path
       style="fill:none;stroke:#0000ff;stroke-width:1px;stroke-linecap:butt;stroke-linejoin:miter;stroke-opacity:1;display:inline"
       d="M 10,742.36211 360,1042.3622"
       id="path3027"
       inkscape:connector-curvature="0"
       sodipodi:nodetypes="cc" />
    <path
       style="fill:none;stroke:#ff0000;stroke-width:1px;stroke-linecap:butt;stroke-linejoin:miter;stroke-opacity:1;display:inline"
       d="m 10,732.36211 0,320.00009"
       id="path3006"
       inkscape:connector-curvature="0"
       sodipodi:nodetypes="cc" />
    <path
       style="fill:none;stroke:#ff0000;stroke-width:1px;stroke-linecap:butt;stroke-linejoin:miter;stroke-opacity:1;display:inline"
       d="m 360,732.36211 0,320.00009"
       id="path3010"
       inkscape:connector-curvature="0"
       sodipodi:nodetypes="cc" />
    <path
       style="fill:none;stroke:#ff0000;stroke-width:1px;stroke-linecap:butt;stroke-linejoin:miter;stroke-opacity:1;display:inline"
       d="m 0,742.36208 370,3e-5"
       id="path3016"
       inkscape:connector-curvature="0" />
    <path
       style="fill:none;stroke:#ff0000;stroke-width:1px;stroke-linecap:butt;stroke-linejoin:miter;stroke-opacity:1;display:inline"
       d="m 0,1042.3622 370,0"
       id="path3018"
       inkscape:connector-curvature="0"
       sodipodi:nodetypes="cc" />
  </g>
  <g
     inkscape:groupmode="layer"
     id="layer4"
     inkscape:label="吹き出し"
     style="display:inline"
     sodipodi:insensitive="true">
    <g
       id="g7665">
      <path
         sodipodi:nodetypes="sssssscsssss"
         inkscape:connector-curvature="0"
         id="rect13841"
         d="m 200.65993,12.013428 131.46951,0 c 14.39154,0 25.97752,11.58598 25.97752,25.97753 l 0,22.973821 c 0,14.39155 -11.58598,25.97753 -25.97752,25.97753 l -54.72536,0 c -21.29438,0 -17.58186,12.165662 -40.86427,26.364041 5.80184,-10.41871 13.79161,-26.364041 -3.9546,-26.364041 l -31.92528,0 c -14.39155,0 -25.97753,-11.58598 -25.97753,-25.97753 l 0,-22.973821 c 0,-14.39155 11.58598,-25.97753 25.97753,-25.97753 z"
         style="fill:#fefefe;fill-opacity:1;stroke:#000000;stroke-width:3" />
      <text
         sodipodi:linespacing="125%"
         id="text6768-1"
         y="44.898205"
         x="201.05342"
         style="font-size:28px;font-style:normal;font-variant:normal;font-weight:normal;font-stretch:normal;line-height:125%;letter-spacing:0px;word-spacing:0px;writing-mode:lr-tb;fill:#000000;fill-opacity:1;stroke:none;font-family:MS UI Gothic;-inkscape-font-specification:MS UI Gothic"
         xml:space="preserve"><tspan
           id="tspan6459"
           style="font-size:28px;font-style:normal;font-variant:normal;font-weight:normal;font-stretch:normal;fill:#000000;fill-opacity:1;font-family:MS UI Gothic;-inkscape-font-specification:MS UI Gothic"
           y="44.898205"
           x="201.05342"
           sodipodi:role="line">何かあったら</tspan></text>
      <text
         sodipodi:linespacing="125%"
         id="text6768-1-3"
         y="74.449554"
         x="201.95493"
         style="font-size:28px;font-style:normal;font-variant:normal;font-weight:normal;font-stretch:normal;line-height:125%;letter-spacing:0px;word-spacing:0px;writing-mode:lr-tb;fill:#000000;fill-opacity:1;stroke:none;font-family:MS UI Gothic;-inkscape-font-specification:MS UI Gothic"
         xml:space="preserve"><tspan
           id="tspan6459-7"
           style="font-size:28px;font-style:normal;font-variant:normal;font-weight:normal;font-stretch:normal;fill:#000000;fill-opacity:1;font-family:MS UI Gothic;-inkscape-font-specification:MS UI Gothic"
           y="74.449554"
           x="201.95493"
           sodipodi:role="line">呼んでね…</tspan></text>
    </g>
  </g>
  <g
     inkscape:groupmode="layer"
     id="layer8"
     inkscape:label="後光"
     style="display:inline"
     sodipodi:insensitive="true">
    <rect
       style="fill:url(#radialGradient7422-0);fill-opacity:1;stroke:none;display:inline;filter:url(#filter4476-4-9-1)"
       id="rect3694-5-3-4"
       width="275.56454"
       height="268.14536"
       x="-10.833732"
       y="38.076473"
       transform="matrix(0.26384359,0.06870088,-0.06299755,0.72898447,130.34307,-17.326483)" />
    <rect
       style="fill:url(#radialGradient7422);fill-opacity:1;stroke:none;display:inline;filter:url(#filter4476-4-9)"
       id="rect3694-5-3"
       width="275.56454"
       height="268.14536"
       x="-10.833732"
       y="38.076473"
       transform="matrix(0.26384359,0.06870088,-0.06299755,0.72898447,191.9202,83.569539)" />
    <rect
       style="fill:url(#radialGradient7422-3);fill-opacity:1;stroke:none;display:inline;filter:url(#filter4476-4-9-7)"
       id="rect3694-5-3-1"
       width="275.56454"
       height="268.14536"
       x="-10.833732"
       y="38.076473"
       transform="matrix(0.26384359,0.06870088,-0.06299755,0.72898447,241.46562,61.148202)" />
  </g>
  <g
     inkscape:groupmode="layer"
     id="layer3"
     inkscape:label="豚01"
     style="display:inline"
     sodipodi:insensitive="true">
    <g
       style="stroke-width:2.31816196;display:inline"
       id="g7640"
       transform="matrix(1.2941287,0,0,1.2941287,-129.73389,-943.31191)">
      <path
         inkscape:connector-curvature="0"
         id="path5211"
         d="m 300.9502,890.9858 c -11.59277,8.79756 -24.24537,50.63138 -75.88498,39.05205 -45.19406,-10.13402 -72.28409,-61.99801 -37.13758,-105.16658 3.42894,-27.3558 36.87383,-47.60342 68.47686,-37.67496 32.25183,10.13229 43.51268,42.84933 37.60942,75.04127 1.36322,10.04824 -8.86867,20.52475 6.93628,28.74822 z"
         style="fill:#fffff8;fill-opacity:1;stroke:#000000;stroke-width:2.31816196;stroke-linecap:butt;stroke-linejoin:miter;stroke-opacity:1;display:inline" />
      <path
         inkscape:connector-curvature="0"
         id="path5807"
         d="m 201.71804,833.51247 c 4.5587,-6.77807 15.47053,-10.30964 21.27153,0.19668 3.90311,7.06903 7.75997,18.28095 23.22623,10.54679"
         style="fill:none;stroke:#000000;stroke-width:2.31816196;stroke-linecap:butt;stroke-linejoin:miter;stroke-opacity:1;display:inline" />
      <path
         inkscape:connector-curvature="0"
         id="path5809"
         d="m 232.79187,822.97082 13.82384,5.49898"
         style="fill:none;stroke:#000000;stroke-width:2.31816196;stroke-linecap:butt;stroke-linejoin:miter;stroke-opacity:1;display:inline" />
      <path
         inkscape:connector-curvature="0"
         id="path5811"
         d="m 208.31498,814.47398 11.77964,4.23393"
         style="fill:none;stroke:#000000;stroke-width:2.31816196;stroke-linecap:butt;stroke-linejoin:miter;stroke-opacity:1;display:inline" />
      <path
         sodipodi:nodetypes="ccc"
         inkscape:connector-curvature="0"
         id="path3910-42"
         d="m 217.51683,796.54671 25.75289,-16.37732 11.14569,28.45158"
         style="fill:#f8fcff;fill-opacity:1;stroke:#000000;stroke-width:2.31816196;stroke-linecap:butt;stroke-linejoin:miter;stroke-opacity:1;display:inline" />
      <path
         sodipodi:nodetypes="cc"
         inkscape:connector-curvature="0"
         id="path3908-87"
         d="m 208.21317,793.62977 82.7508,27.25011"
         style="fill:none;stroke:#000000;stroke-width:2.31816196;stroke-linecap:butt;stroke-linejoin:miter;stroke-opacity:1;display:inline" />
    </g>
  </g>
  <g
     inkscape:groupmode="layer"
     id="layer5"
     inkscape:label="机"
     sodipodi:insensitive="true">
    <g
       id="g3208"
       transform="matrix(1.0575327,0.03341872,0,1.0575327,-50.756864,-339.32747)"
       style="stroke-width:1.89119446">
      <path
         inkscape:connector-curvature="0"
         id="path3129"
         d="m 67.875,502.125 -1.3125,4.4375 14,-0.0625 0.875,-3.875 z"
         style="fill:#e9c6af;stroke:none" />
      <path
         inkscape:connector-curvature="0"
         id="path3156-8"
         d="m 80.52773,508.26768 2.20971,-5.39168 0.35355,102.26531 -3.18198,5.56847 z"
         style="fill:#c87137;stroke:none" />
      <path
         sodipodi:nodetypes="ccccc"
         inkscape:connector-curvature="0"
         id="path3156-82"
         d="m 66.379651,507.29491 13.169865,-0.26516 -0.17678,103.14919 -14.230524,0.0884 z"
         style="fill:#deaa87;stroke:none" />
      <path
         sodipodi:nodetypes="ccccc"
         inkscape:connector-curvature="0"
         id="path3082-7"
         d="m 65.759287,610.22678 0.917418,-103.57819 1.264974,-4.36804 14,0 0.381187,102.80669"
         style="fill:none;stroke:#000000;stroke-width:1.89119446;stroke-linecap:butt;stroke-linejoin:miter;stroke-opacity:1" />
      <path
         sodipodi:nodetypes="ccc"
         inkscape:connector-curvature="0"
         id="path3086-4"
         d="m 79.473076,610.30667 0.917418,-103.5782 1.264974,-4.36804"
         style="fill:none;stroke:#000000;stroke-width:1.89119446;stroke-linecap:butt;stroke-linejoin:miter;stroke-opacity:1" />
      <path
         inkscape:connector-curvature="0"
         id="path3099-0"
         d="m 66.664996,506.61521 13.51325,0"
         style="fill:none;stroke:#000000;stroke-width:1.89119446;stroke-linecap:butt;stroke-linejoin:miter;stroke-opacity:1" />
      <path
         sodipodi:nodetypes="ccccc"
         inkscape:connector-curvature="0"
         id="path3129-4"
         d="m 82.5,504.46875 -0.4375,4.4375 126.79241,-0.0625 0.34467,-4.05178 z"
         style="fill:#e9c6af;stroke:none" />
      <path
         sodipodi:nodetypes="ccccc"
         inkscape:connector-curvature="0"
         id="path3156-82-5"
         d="m 80.831142,508.70912 127.157308,0.69191 0.32322,42.39919 -128.058958,-0.54548 z"
         style="fill:#deaa87;stroke:none" />
      <path
         sodipodi:nodetypes="cccccc"
         inkscape:connector-curvature="0"
         id="path3125"
         d="m 82.115353,505.0852 127.872057,0 0.20352,46.9148 -129.75,0 0.655882,-43.18306 z"
         style="fill:none;stroke:#000000;stroke-width:1.89119446;stroke-linecap:butt;stroke-linejoin:miter;stroke-opacity:1" />
      <path
         inkscape:connector-curvature="0"
         id="path3127"
         d="m 81.06218,508.8417 128.40997,0"
         style="fill:none;stroke:#000000;stroke-width:1.89119446;stroke-linecap:butt;stroke-linejoin:miter;stroke-opacity:1" />
      <path
         inkscape:connector-curvature="0"
         id="path3129-9"
         d="m 211.0625,502.21875 -1.3125,4.4375 14,-0.0625 0.875,-3.875 z"
         style="fill:#e9c6af;stroke:none" />
      <path
         inkscape:connector-curvature="0"
         id="path3156"
         d="m 222.91541,507.47168 2.20971,-5.39168 0.35355,102.26531 -3.18198,5.56847 z"
         style="fill:#c87137;stroke:none" />
      <path
         sodipodi:nodetypes="ccccc"
         inkscape:connector-curvature="0"
         id="path3156-82-4"
         d="m 209.3478,507.47168 13.16987,-0.26516 -0.17678,103.14919 -14.23053,0.0884 z"
         style="fill:#deaa87;stroke:none" />
      <path
         sodipodi:nodetypes="ccccc"
         inkscape:connector-curvature="0"
         id="path3082"
         d="m 208.29318,610.22643 0.91742,-103.5782 1.26497,-4.36804 14,0 0.38119,102.8067"
         style="fill:none;stroke:#000000;stroke-width:1.89119446;stroke-linecap:butt;stroke-linejoin:miter;stroke-opacity:1" />
      <path
         sodipodi:nodetypes="ccc"
         inkscape:connector-curvature="0"
         id="path3086"
         d="m 222.00697,610.30632 0.91741,-103.5782 1.26498,-4.36804"
         style="fill:none;stroke:#000000;stroke-width:1.89119446;stroke-linecap:butt;stroke-linejoin:miter;stroke-opacity:1" />
      <path
         inkscape:connector-curvature="0"
         id="path3099"
         d="m 209.19889,506.61486 13.51325,0"
         style="fill:none;stroke:#000000;stroke-width:1.89119446;stroke-linecap:butt;stroke-linejoin:miter;stroke-opacity:1" />
    </g>
    <path
       style="fill:#552200;fill-opacity:1;stroke:#000000;stroke-width:2;stroke-linecap:round;stroke-miterlimit:4;stroke-opacity:1;stroke-dashoffset:0;display:inline"
       d="m -72.238708,283.35812 531.898008,10.76007 0,80.25359 -531.898008,0 z"
       id="rect6363"
       inkscape:connector-curvature="0"
       sodipodi:nodetypes="ccccc" />
    <path
       style="fill:#fefefe;fill-opacity:1;stroke:#000000;stroke-width:1.5;stroke-linecap:butt;stroke-linejoin:miter;stroke-opacity:1;display:inline"
       d="M 6.9252964,301.74825 113.87509,304.8866 86.474729,345.5452 7.3672287,342.40685 z"
       id="path6936-9"
       inkscape:connector-curvature="0"
       sodipodi:nodetypes="ccccc" />
    <path
       style="fill:#fefefe;fill-opacity:1;stroke:#000000;stroke-width:1.5;stroke-linecap:butt;stroke-linejoin:miter;stroke-opacity:1;display:inline"
       d="M 7.3865604,296.67558 114.33636,299.81393 86.935998,340.47253 7.8284928,337.33418 z"
       id="path6936"
       inkscape:connector-curvature="0"
       sodipodi:nodetypes="ccccc" />
    <path
       style="fill:none;stroke:#cccccc;stroke-width:1.5;stroke-linecap:butt;stroke-linejoin:miter;stroke-opacity:1"
       d="m 9.7025688,315.42117 84.2853032,0"
       id="path7663"
       inkscape:connector-curvature="0"
       sodipodi:nodetypes="cc" />
    <path
       style="fill:none;stroke:#cccccc;stroke-width:1.5;stroke-linecap:butt;stroke-linejoin:miter;stroke-opacity:1"
       d="m 15.309098,311.48565 81.785306,0"
       id="path7663-1"
       inkscape:connector-curvature="0"
       sodipodi:nodetypes="cc" />
    <path
       style="fill:none;stroke:#cccccc;stroke-width:1.5;stroke-linecap:butt;stroke-linejoin:miter;stroke-opacity:1"
       d="m 17.352273,305.08879 82.722807,2.35376"
       id="path7663-3"
       inkscape:connector-curvature="0"
       sodipodi:nodetypes="cc" />
    <path
       style="fill:none;stroke:#cccccc;stroke-width:1.5;stroke-linecap:butt;stroke-linejoin:miter;stroke-opacity:1"
       d="m 21.396304,301.46576 81.785306,2.35377"
       id="path7663-1-5"
       inkscape:connector-curvature="0"
       sodipodi:nodetypes="cc" />
    <text
       xml:space="preserve"
       style="font-size:4.61261129px;font-style:normal;font-weight:normal;line-height:125%;letter-spacing:0px;word-spacing:0px;writing-mode:lr-tb;fill:#000000;fill-opacity:1;stroke:none;font-family:Sans"
       x="-361.03198"
       y="-521.14917"
       id="text7760"
       sodipodi:linespacing="125%"
       transform="matrix(-1.6690517,0,0.97089021,-0.59914262,0,0)"><tspan
         sodipodi:role="line"
         id="tspan7762"
         x="-361.03198"
         y="-521.14917">グーグーですな</tspan></text>
  </g>
  <g
     inkscape:groupmode="layer"
     id="layer6"
     inkscape:label="女"
     sodipodi:insensitive="true"
     style="display:inline">
    <path
       style="fill:#ffccaa;stroke:#000000;stroke-width:1.5;stroke-linecap:butt;stroke-linejoin:miter;stroke-opacity:1"
       d="m 119.13268,142.70792 -0.93232,24.66214 6.35205,12.31308 -39.276354,16.34763 -22.3937,-17.1892 4.3959,-6.42378 -3.16001,-23.34525 z"
       id="path6017"
       inkscape:connector-curvature="0"
       sodipodi:nodetypes="cccccccc" />
    <g
       id="g7297"
       transform="matrix(-1,0,0,1,-353.2647,37.575164)">
      <path
         sodipodi:nodetypes="cccsssc"
         inkscape:connector-curvature="0"
         id="path11235-1-1"
         d="m -408.44355,190.11114 6.51614,20.40728 c 0.77982,18.17539 4.18947,29.57575 6.23983,43.31306 1.84748,5.25183 18.92913,14.99015 23.48064,8.54875 11.73906,-16.61337 -5.86398,-60.0453 -8.12792,-78.21889 -1.3586,-10.90611 -0.64261,-27.84667 -6.30797,-34.97998 -7.96789,-10.03255 -25.85467,-10.69944 -30.88818,-14.39096"
         style="fill:#ffccaa;stroke:#000000;stroke-width:1.5;stroke-linecap:butt;stroke-linejoin:miter;stroke-opacity:1;display:inline" />
      <path
         sodipodi:nodetypes="csccc"
         inkscape:connector-curvature="0"
         id="path4344-4"
         d="m -417.59482,134.65554 c 11.61878,2.24519 26.0595,5.16005 31.68438,12.08271 6.3424,7.80574 5.83959,32.63038 11.44672,59.17748 l -36.66106,9.16759 -9.59825,-50.45746"
         style="fill:#c8b7b7;stroke:#000000;stroke-width:1.5;stroke-linecap:butt;stroke-linejoin:miter;stroke-opacity:1" />
      <path
         inkscape:connector-curvature="0"
         id="path6893-1-7-3"
         d="m -398.22754,165.38708 c 2.12509,11.8886 5.30908,22.05616 4.72863,32.16318 -0.67801,11.8055 -7.8977,22.02782 -9.76927,32.08824 l 4.40783,38.53751 -102.02166,5.03634 -0.14272,-100.01204 27.61756,-26.39498"
         style="fill:#c8b7b7;stroke:#000000;stroke-width:1.5;stroke-linecap:butt;stroke-linejoin:miter;stroke-opacity:1;display:inline"
         sodipodi:nodetypes="csccccc" />
      <path
         sodipodi:nodetypes="ccc"
         inkscape:connector-curvature="0"
         id="path6901-6-9"
         d="m -426.95834,150.61092 -13.59589,2.04412 c 3.16111,28.43553 4.14602,33.18352 1.76493,57.0775"
         style="fill:#c8b7b7;stroke:#000000;stroke-width:1.5;stroke-linecap:butt;stroke-linejoin:miter;stroke-opacity:1" />
      <path
         transform="matrix(1.0797956,0,0,1.0797956,113.78606,-808.57553)"
         d="m -503.12287,897.26843 a 3.5826087,3.5826087 0 1 1 -7.16521,0 3.5826087,3.5826087 0 1 1 7.16521,0 z"
         sodipodi:ry="3.5826087"
         sodipodi:rx="3.5826087"
         sodipodi:cy="897.26843"
         sodipodi:cx="-506.70547"
         id="path6903-7-8"
         style="fill:#c8b7b7;fill-opacity:1;stroke:#000000;stroke-width:1.38915181;stroke-linecap:round;stroke-miterlimit:4;stroke-opacity:1;stroke-dasharray:none;stroke-dashoffset:0"
         sodipodi:type="arc" />
      <path
         inkscape:connector-curvature="0"
         id="path6907-1-8"
         d="m -434.52963,159.19768 0.16819,2.60704"
         style="fill:none;stroke:#000000;stroke-width:1.5;stroke-linecap:butt;stroke-linejoin:miter;stroke-opacity:1" />
      <path
         inkscape:connector-curvature="0"
         id="path6909-7-0"
         d="m -432.259,159.11359 0.0841,2.35472"
         style="fill:none;stroke:#000000;stroke-width:1.5;stroke-linecap:butt;stroke-linejoin:miter;stroke-opacity:1" />
      <path
         d="m -503.12287,897.26843 a 3.5826087,3.5826087 0 1 1 -7.16521,0 3.5826087,3.5826087 0 1 1 7.16521,0 z"
         sodipodi:ry="3.5826087"
         sodipodi:rx="3.5826087"
         sodipodi:cy="897.26843"
         sodipodi:cx="-506.70547"
         id="path6903-8-7-8"
         style="fill:#c8b7b7;fill-opacity:1;stroke:#000000;stroke-width:1.38915181;stroke-linecap:round;stroke-miterlimit:4;stroke-opacity:1;stroke-dasharray:none;stroke-dashoffset:0;display:inline"
         sodipodi:type="arc"
         transform="matrix(1.0797956,0,0,1.0797956,117.44594,-786.78417)" />
      <path
         inkscape:connector-curvature="0"
         id="path6907-9-7-7"
         d="m -430.86977,180.98906 0.16818,2.60702"
         style="fill:none;stroke:#000000;stroke-width:1.5;stroke-linecap:butt;stroke-linejoin:miter;stroke-opacity:1;display:inline" />
      <path
         inkscape:connector-curvature="0"
         id="path6909-3-7-7"
         d="m -428.59915,180.90497 0.0841,2.35472"
         style="fill:none;stroke:#000000;stroke-width:1.5;stroke-linecap:butt;stroke-linejoin:miter;stroke-opacity:1;display:inline" />
      <path
         d="m -503.12287,897.26843 a 3.5826087,3.5826087 0 1 1 -7.16521,0 3.5826087,3.5826087 0 1 1 7.16521,0 z"
         sodipodi:ry="3.5826087"
         sodipodi:rx="3.5826087"
         sodipodi:cy="897.26843"
         sodipodi:cx="-506.70547"
         id="path6903-8-4-3-8"
         style="fill:#c8b7b7;fill-opacity:1;stroke:#000000;stroke-width:1.38915181;stroke-linecap:round;stroke-miterlimit:4;stroke-opacity:1;stroke-dasharray:none;stroke-dashoffset:0;display:inline"
         sodipodi:type="arc"
         transform="matrix(1.0797956,0,0,1.0797956,116.6097,-765.76204)" />
      <path
         inkscape:connector-curvature="0"
         id="path6907-9-4-3-3"
         d="m -431.70601,202.01118 0.16819,2.60702"
         style="fill:none;stroke:#000000;stroke-width:1.5;stroke-linecap:butt;stroke-linejoin:miter;stroke-opacity:1;display:inline" />
      <path
         inkscape:connector-curvature="0"
         id="path6909-3-6-5-8"
         d="m -429.43539,201.92708 0.0841,2.35477"
         style="fill:none;stroke:#000000;stroke-width:1.5;stroke-linecap:butt;stroke-linejoin:miter;stroke-opacity:1;display:inline" />
      <path
         sodipodi:nodetypes="csssscccc"
         inkscape:connector-curvature="0"
         id="path4388-3"
         d="m -470.37155,130.92655 c -18.11362,7.63672 -30.00674,-1.23086 -38.78298,15.75016 -6.20107,11.99838 -4.43137,23.45656 -3.36499,36.12064 0.73656,8.74734 0.3953,36.23001 1.86357,53.81618 1.00929,12.08871 2.3906,20.95984 6.69387,28.49478 6.23283,10.91364 52.03524,3.51286 67.63278,-0.14383 l -2.04008,-9.64126 -41.71383,-12.01775 c 1.42485,-14.28628 -4.29524,-44.4695 -3.92539,-62.80681"
         style="fill:#ffccaa;stroke:#000000;stroke-width:1.5;stroke-linecap:butt;stroke-linejoin:miter;stroke-opacity:1;display:inline" />
      <path
         style="fill:#ffccaa;stroke:none;display:inline"
         d="m -437.83898,264.03845 c 2.39256,2.7556 7.55136,4.04532 10.94775,3.57634 2.97833,-0.41128 8.4757,-3.82473 11.45258,-6.08483 0.0605,1.69229 -1.80159,7.28642 -0.009,8.15492 3.003,1.45485 10.78041,2.08742 11.68732,-1.01667 0.62066,-2.12432 4.17782,-17.27999 0.18219,-18.91875 -7.12504,-2.92214 -18.74535,-1.92812 -28.86534,0.83394 -16.92328,-0.088 -41.05407,-12.37826 -56.90839,-7.61405"
         id="path4384-1-7"
         inkscape:connector-curvature="0"
         sodipodi:nodetypes="cscssscc" />
      <path
         sodipodi:nodetypes="cssscc"
         inkscape:connector-curvature="0"
         id="path11194-0-1"
         d="m -415.39886,261.60518 c 0.0643,1.69285 -1.79772,7.28698 -0.005,8.15547 3.003,1.45486 10.7804,2.08743 11.68732,-1.01667 0.62066,-2.12431 4.17782,-17.27998 0.18218,-18.91873 -7.12503,-2.92215 -18.74535,-1.92813 -28.86533,0.83394 -16.92328,-0.088 -41.05408,-12.48279 -56.90839,-7.71859"
         style="fill:none;stroke:#000000;stroke-width:1.5;stroke-linecap:butt;stroke-linejoin:miter;stroke-opacity:1;display:inline" />
      <path
         sodipodi:nodetypes="csccc"
         inkscape:connector-curvature="0"
         id="path4384-0"
         d="m -437.79532,264.11424 c 2.39256,2.75559 7.55136,4.04531 10.94775,3.57632 2.97833,-0.41128 8.9936,-3.89377 11.97435,-6.15332 0.76149,-0.25883 2.51176,-1.08681 4.13575,-0.84287 0.36885,1.51336 0.5722,2.7763 0.9894,4.18819"
         style="fill:none;stroke:#000000;stroke-width:1.5;stroke-linecap:butt;stroke-linejoin:miter;stroke-opacity:1;display:inline" />
      <path
         sodipodi:nodetypes="ccccccccsscc"
         inkscape:connector-curvature="0"
         id="path11260-6-7"
         d="m -380.24865,252.28215 -1.68782,6.88955 -3.13373,5.46976 3.22928,0.4985 7.592,-4.65057 2.00122,-10.02277 c -7.61151,-6.70773 -15.32755,-11.95206 -23.36267,-12.72906 l -11.32036,14.1513 c -0.40875,3.02994 3.02974,9.62108 4.47519,11.23886 1.10924,1.24146 4.03381,3.19987 4.63266,-0.55337 0.3136,-1.96552 -0.83165,-4.28278 -1.53813,-6.41603 0.41623,-0.68938 -0.23377,-2.79894 1.39101,-4.69691"
         style="fill:#ffccaa;stroke:#000000;stroke-width:1.5;stroke-linecap:butt;stroke-linejoin:miter;stroke-opacity:1;display:inline" />
      <path
         sodipodi:nodetypes="cccccc"
         inkscape:connector-curvature="0"
         id="path11258-8-3"
         d="m -376.47239,252.53671 c 0.0176,0.88388 -0.55726,3.63572 -1.60664,6.75236 -2.80138,2.7068 -8.24838,6.77774 -8.24838,6.77774 l -1.20219,-3.1666 5.55401,-4.77572 0.57754,-7.14268"
         style="fill:#ffccaa;stroke:#000000;stroke-width:1.5;stroke-linecap:butt;stroke-linejoin:miter;stroke-opacity:1;display:inline" />
      <path
         inkscape:connector-curvature="0"
         id="path11256-5-4"
         d="m -380.06904,249.54326 -1.26722,7.33356 -5.94081,8.68516 -3.6986,-1.42613 2.5511,-7.53895 -0.015,-7.74278"
         style="fill:#ffccaa;stroke:#000000;stroke-width:1.5;stroke-linecap:butt;stroke-linejoin:miter;stroke-opacity:1;display:inline" />
      <path
         inkscape:connector-curvature="0"
         id="path11262-7-9"
         d="m -394.55517,214.07092 1.26342,53.50718 -2.57842,8.79451 -2.09773,-8.09438 -1.55015,-54.27576 z"
         style="fill:#483737;stroke:#000000;stroke-width:1.5;stroke-linecap:butt;stroke-linejoin:miter;stroke-opacity:1;display:inline" />
      <path
         inkscape:connector-curvature="0"
         id="path11254-6-6"
         d="m -393.42608,246.41211 c -0.0285,2.71431 -0.37236,5.99945 -0.0488,8.09361 l -2.12853,10.0282 c -0.37503,1.76687 2.13321,3.94062 3.49229,1.78641 1.56429,-2.47954 4.79137,-7.85808 5.10504,-9.95805 0.30271,-2.02661 -0.32819,-7.03126 -0.52503,-10.32677"
         style="fill:#ffccaa;stroke:#000000;stroke-width:1.5;stroke-linecap:butt;stroke-linejoin:miter;stroke-opacity:1;display:inline" />
      <path
         sodipodi:nodetypes="cccscc"
         inkscape:connector-curvature="0"
         id="path4344-1-5"
         d="m -480.07166,161.05238 c 3.33894,13.95875 5.70587,38.5729 6.05007,52.79772 l -40.88701,5.19784 c -0.11454,-29.67939 -6.20065,-64.32541 3.73135,-78.29854 7.48542,-10.53107 30.70253,-7.92398 43.57567,-9.33292 l 9.46232,24.44664"
         style="fill:#c8b7b7;stroke:#000000;stroke-width:1.5;stroke-linecap:butt;stroke-linejoin:miter;stroke-opacity:1;display:inline" />
      <path
         inkscape:connector-curvature="0"
         id="path3874-0-4-9-1"
         d="m -418.63202,128.20707 -14.51325,22.82084 13.77038,19.38538 2.49887,-36.22172 z"
         style="fill:#c8b7b7;stroke:#000000;stroke-width:1.5;stroke-linecap:butt;stroke-linejoin:miter;stroke-opacity:1;display:inline"
         sodipodi:nodetypes="ccccc" />
      <path
         sodipodi:nodetypes="ccccc"
         inkscape:connector-curvature="0"
         id="path3876-9-0-4-0"
         d="m -472.04105,122.22748 36.3701,29.71051 -18.81431,22.13107 -21.5197,-43.17387 z"
         style="fill:#c8b7b7;stroke:#000000;stroke-width:1.5;stroke-linecap:butt;stroke-linejoin:miter;stroke-opacity:1;display:inline" />
    </g>
    <g
       id="g7277"
       transform="matrix(-1,0,0,1,-353.2647,37.575164)">
      <path
         style="fill:#552200;stroke:#000000;stroke-width:1.5;stroke-linecap:butt;stroke-linejoin:miter;stroke-opacity:1;display:inline"
         d="m -398.77765,80.019682 c 9.67012,21.175018 9.35778,35.150048 5.74105,55.335938 -8.72101,-19.1496 -7.57758,-25.55976 -9.57234,-48.483634"
         id="path5466-1-6-8-9"
         inkscape:connector-curvature="0"
         sodipodi:nodetypes="ccc" />
      <path
         sodipodi:nodetypes="ccsc"
         inkscape:connector-curvature="0"
         id="path5825-8-6"
         d="m -402.39995,98.054516 c 21.27954,-35.738143 4.64459,-90.7975183 -37.07376,-90.2043825 -21.0747,-4.4224159 -54.04487,11.0320115 -58.61659,50.4039515 -3.3301,28.678414 11.61513,42.418935 23.11332,57.465175"
         style="fill:#552200;stroke:#000000;stroke-width:1.5;stroke-linecap:butt;stroke-linejoin:miter;stroke-opacity:1;display:inline" />
      <path
         style="fill:#552200;stroke:#000000;stroke-width:1.5;stroke-linecap:butt;stroke-linejoin:miter;stroke-opacity:1;display:inline"
         d="m -492.84834,84.153851 c -10.93564,12.905203 -11.63524,36.904379 -7.43939,55.792059 7.58658,-18.23939 9.863,-29.93033 10.79721,-46.290143"
         id="path5468-5-1-2-8"
         inkscape:connector-curvature="0"
         sodipodi:nodetypes="ccc" />
      <path
         sodipodi:nodetypes="ccsssssscc"
         inkscape:connector-curvature="0"
         id="path5813-4-3"
         d="m -485.45607,77.380642 c 0,0 5.19386,23.072558 6.7625,27.663728 2.09247,6.12443 5.45382,12.42762 7.51026,16.3509 1.78869,3.41251 8.88716,10.13452 14.17736,14.34403 5.10195,4.0597 13.55397,9.13222 18.1849,9.16805 7.12494,0.0551 16.0279,-8.91306 21.10714,-14.43134 5.26011,-5.71478 9.08336,-11.12558 11.38682,-18.86887 1.47515,-4.95887 2.6346,-12.289742 3.78492,-19.191807 0.62604,-3.756295 2.70949,-8.574256 3.42721,-10.508392 l -3.60194,-43.311269"
         style="fill:#ffccaa;stroke:#000000;stroke-width:1.5;stroke-linecap:butt;stroke-linejoin:miter;stroke-opacity:1;display:inline" />
      <path
         sodipodi:nodetypes="csc"
         inkscape:connector-curvature="0"
         id="path5815-5-4"
         d="m -423.7619,80.237172 c -1.96647,2.884265 -3.88929,9.374619 -4.24213,12.078076 -0.67221,5.150222 0.47408,14.893732 0.80758,22.103372"
         style="fill:none;stroke:#000000;stroke-width:1.5;stroke-linecap:butt;stroke-linejoin:miter;stroke-opacity:1;display:inline" />
      <path
         sodipodi:nodetypes="cc"
         inkscape:connector-curvature="0"
         id="path5817-5-8"
         d="m -439.2793,87.337163 c -4.09609,-4.343749 -10.31369,-4.615117 -21.15463,-0.66675"
         style="fill:none;stroke:#000000;stroke-width:1.5;stroke-linecap:butt;stroke-linejoin:miter;stroke-opacity:1;display:inline" />
      <path
         sodipodi:nodetypes="cc"
         inkscape:connector-curvature="0"
         id="path5819-1-4"
         d="m -421.40316,88.104846 c 5.1751,-4.824921 13.78101,-8.086308 16.21176,-2.465951"
         style="fill:none;stroke:#000000;stroke-width:1.5;stroke-linecap:butt;stroke-linejoin:miter;stroke-opacity:1;display:inline" />
      <path
         inkscape:connector-curvature="0"
         id="path5823-7-9"
         d="m -424.76444,123.50255 c -3.00596,1.94539 -3.50604,-0.29518 -7.24304,-0.0599 -5.40451,0.34029 -14.18657,5.04139 -16.3554,1.19814"
         style="fill:none;stroke:#000000;stroke-width:1.5;stroke-linecap:butt;stroke-linejoin:miter;stroke-opacity:1;display:inline"
         sodipodi:nodetypes="csc" />
      <path
         sodipodi:type="arc"
         style="fill:#550000;stroke:#000000;stroke-width:1.43088126;stroke-linecap:round;stroke-miterlimit:4;stroke-opacity:1;stroke-dasharray:none;stroke-dashoffset:0;display:inline"
         id="path5827-1-9"
         sodipodi:cx="100.48453"
         sodipodi:cy="571.1853"
         sodipodi:rx="2.3499656"
         sodipodi:ry="4.2769375"
         d="m 102.83449,571.1853 a 2.3499656,4.2769375 0 1 1 -4.699928,0 2.3499656,4.2769375 0 1 1 4.699928,0 z"
         transform="matrix(-1.1393071,-0.12243606,-0.17085005,0.94621122,-201.84036,-437.2703)" />
      <path
         sodipodi:type="arc"
         style="fill:#550000;stroke:#000000;stroke-width:1.4598515;stroke-linecap:round;stroke-miterlimit:4;stroke-opacity:1;stroke-dasharray:none;stroke-dashoffset:0;display:inline"
         id="path5829-1-2"
         sodipodi:cx="132.35007"
         sodipodi:cy="569.77533"
         sodipodi:rx="3.5272925"
         sodipodi:ry="3.243937"
         d="m 135.87736,569.77533 a 3.5272925,3.243937 0 1 1 -7.05459,0 3.5272925,3.243937 0 1 1 7.05459,0 z"
         transform="matrix(-0.9007284,-0.05728648,-0.07424655,1.1673959,-286.56342,-566.63112)" />
      <path
         sodipodi:nodetypes="cc"
         inkscape:connector-curvature="0"
         id="path5831-5-5"
         d="m -433.86803,77.622529 c -4.4609,-4.077487 -17.91331,-4.989603 -26.76314,-2.764168"
         style="fill:none;stroke:#000000;stroke-width:1.5;stroke-linecap:butt;stroke-linejoin:miter;stroke-opacity:1;display:inline" />
      <path
         inkscape:connector-curvature="0"
         id="path5833-2-5"
         d="m -402.66925,74.432124 c -5.37814,-2.261299 -15.42415,-0.08514 -19.3501,4.677672"
         style="fill:none;stroke:#000000;stroke-width:1.5;stroke-linecap:butt;stroke-linejoin:miter;stroke-opacity:1;display:inline"
         sodipodi:nodetypes="cc" />
      <path
         sodipodi:nodetypes="cssc"
         inkscape:connector-curvature="0"
         id="path5835-7-3"
         d="m -483.72614,77.362322 c -2.64656,-2.761713 -8.37673,-7.45697 -10.18156,0.586898 -1.3728,6.118296 2.50017,12.641315 5.22586,17.842712 2.55294,4.871718 3.68901,5.327338 10.84494,6.818478"
         style="fill:#ffccaa;stroke:#000000;stroke-width:1.5;stroke-linecap:butt;stroke-linejoin:miter;stroke-opacity:1;display:inline" />
      <path
         sodipodi:nodetypes="csssc"
         inkscape:connector-curvature="0"
         id="path5837-6-3"
         d="m -484.71785,79.897028 c -2.00301,-1.06758 -5.05934,-4.175049 -5.80059,1.897118 -0.48686,3.988176 2.46102,6.318597 3.79371,9.386956 0.83779,1.928914 4.83068,5.56872 6.14923,4.850932 1.44681,-0.787613 -1.33894,-7.483003 1.04509,-7.588686"
         style="fill:none;stroke:#000000;stroke-width:1.5;stroke-linecap:butt;stroke-linejoin:miter;stroke-opacity:1;display:inline" />
      <path
         sodipodi:nodetypes="ccccccccccccccc"
         inkscape:connector-curvature="0"
         id="path5821-1-3"
         d="m -407.39088,27.700802 c 19.75445,17.605251 17.69668,39.175243 6.84916,62.409897 -0.74225,-14.361478 -3.46838,-18.474632 -7.07191,-28.528123 1.28932,5.195704 0.36379,12.605844 -0.28683,20.084899 -2.44036,-9.482104 -2.64115,-17.495241 -6.55114,-24.321614 -0.1262,7.86875 -1.76629,16.497368 -4.83266,28.821938 0.50124,-17.192491 -1.73859,-27.841343 -3.38595,-42.539417 -4.21714,17.199522 -5.47925,27.667176 -14.60021,45.502715 0.26215,-14.955876 -0.40289,-22.640695 -1.54513,-30.474322 -5.26779,8.768768 -12.8962,26.262145 -19.84762,35.120183 1.38872,-8.965178 2.58951,-17.249212 4.03159,-25.682157 -6.70144,10.21537 -10.07961,17.863883 -17.82809,28.007184 0.85589,-11.412014 0.32637,-22.143627 2.51027,-31.91333 -3.57071,10.737386 -4.05657,19.615328 -7.34402,29.596182 -8.94527,-17.215091 -13.53194,-39.213165 3.40108,-59.77738"
         style="fill:#552200;stroke:#000000;stroke-width:1.5;stroke-linecap:butt;stroke-linejoin:miter;stroke-opacity:1;display:inline" />
      <path
         style="fill:none;stroke:#d38d5f;stroke-width:1.5;stroke-linecap:butt;stroke-linejoin:miter;stroke-opacity:1;display:inline"
         d="m -408.14749,94.494955 -3.93102,0.404325"
         id="path5458-8-0-4-7"
         inkscape:connector-curvature="0"
         sodipodi:nodetypes="cc" />
      <path
         sodipodi:nodetypes="cc"
         style="fill:none;stroke:#d38d5f;stroke-width:1.5;stroke-linecap:butt;stroke-linejoin:miter;stroke-opacity:1;display:inline"
         d="m -454.39829,94.658767 -2.1545,-2.238232"
         id="path5460-6-6-2-4"
         inkscape:connector-curvature="0" />
      <path
         style="fill:none;stroke:#d38d5f;stroke-width:1.5;stroke-linecap:butt;stroke-linejoin:miter;stroke-opacity:1;display:inline"
         d="m -431.14798,116.2956 -2.42955,1.74529"
         id="path5458-8-0-4-7-3"
         inkscape:connector-curvature="0"
         sodipodi:nodetypes="cc" />
    </g>
  </g>
  <g
     inkscape:groupmode="layer"
     id="layer7"
     inkscape:label="豚02"
     sodipodi:insensitive="true">
    <path
       style="fill:#fffff8;fill-opacity:1;stroke:#000000;stroke-width:3;stroke-linecap:butt;stroke-linejoin:miter;stroke-opacity:1;display:inline"
       d="m 166.69887,156.35096 c -13.92856,0.82746 -23.06277,10.64444 -20.52188,20.1149 1.95066,7.27059 21.71697,4.3848 35.39605,14.56862"
       id="path5805"
       inkscape:connector-curvature="0" />
  </g>
  <g
     inkscape:groupmode="layer"
     id="layer2"
     inkscape:label="枠面"
     sodipodi:insensitive="true">
    <path
       style="fill:#ffffff;stroke:none;display:inline"
       d="m 0,0 0,320 370,0 0,-320 -10,10 0,300 -350,0 0,-300 350,0 10,-10 z"
       id="path21072"
       inkscape:connector-curvature="0"
       sodipodi:nodetypes="ccccccccccc" />
  </g>
</svg>
