<?xml version="1.0" encoding="UTF-8" standalone="no"?>
<!-- Created with Inkscape (http://www.inkscape.org/) -->

<svg
   xmlns:dc="http://purl.org/dc/elements/1.1/"
   xmlns:cc="http://creativecommons.org/ns#"
   xmlns:rdf="http://www.w3.org/1999/02/22-rdf-syntax-ns#"
   xmlns:svg="http://www.w3.org/2000/svg"
   xmlns="http://www.w3.org/2000/svg"
   xmlns:sodipodi="http://sodipodi.sourceforge.net/DTD/sodipodi-0.dtd"
   xmlns:inkscape="http://www.inkscape.org/namespaces/inkscape"
   width="370"
   height="320"
   id="svg3172"
   version="1.1"
   inkscape:version="0.48.4 r9939"
   sodipodi:docname="[03]契約.svg"
   inkscape:export-filename="C:\Users\執安\Desktop\資料\臨時\svg\BUTAS\[22.成功].png"
   inkscape:export-xdpi="90"
   inkscape:export-ydpi="90">
  <defs
     id="defs3174" />
  <sodipodi:namedview
     id="base"
     pagecolor="#ffffff"
     bordercolor="#666666"
     borderopacity="1.0"
     inkscape:pageopacity="0.0"
     inkscape:pageshadow="2"
     inkscape:zoom="0.59823135"
     inkscape:cx="209.64294"
     inkscape:cy="286.49899"
     inkscape:document-units="px"
     inkscape:current-layer="layer2"
     showgrid="false"
     inkscape:window-width="1100"
     inkscape:window-height="698"
     inkscape:window-x="-5"
     inkscape:window-y="-5"
     inkscape:window-maximized="0" />
  <metadata
     id="metadata3177">
    <rdf:RDF>
      <cc:Work
         rdf:about="">
        <dc:format>image/svg+xml</dc:format>
        <dc:type
           rdf:resource="http://purl.org/dc/dcmitype/StillImage" />
        <dc:title></dc:title>
      </cc:Work>
    </rdf:RDF>
  </metadata>
  <g
     inkscape:label="補助線"
     inkscape:groupmode="layer"
     id="layer1"
     transform="translate(0,-732.36218)"
     sodipodi:insensitive="true"
     style="display:none">
    <path
       style="fill:none;stroke:#0000ff;stroke-width:1px;stroke-linecap:butt;stroke-linejoin:miter;stroke-opacity:1;display:inline"
       d="M 10,1042.3622 360,742.36211"
       id="path3025"
       inkscape:connector-curvature="0"
       sodipodi:nodetypes="cc" />
    <path
       style="fill:none;stroke:#0000ff;stroke-width:1px;stroke-linecap:butt;stroke-linejoin:miter;stroke-opacity:1;display:inline"
       d="M 10,742.36211 360,1042.3622"
       id="path3027"
       inkscape:connector-curvature="0"
       sodipodi:nodetypes="cc" />
    <path
       style="fill:none;stroke:#ff0000;stroke-width:1px;stroke-linecap:butt;stroke-linejoin:miter;stroke-opacity:1;display:inline"
       d="m 10,732.36211 0,320.00009"
       id="path3006"
       inkscape:connector-curvature="0"
       sodipodi:nodetypes="cc" />
    <path
       style="fill:none;stroke:#ff0000;stroke-width:1px;stroke-linecap:butt;stroke-linejoin:miter;stroke-opacity:1;display:inline"
       d="m 360,732.36211 0,320.00009"
       id="path3010"
       inkscape:connector-curvature="0"
       sodipodi:nodetypes="cc" />
    <path
       style="fill:none;stroke:#ff0000;stroke-width:1px;stroke-linecap:butt;stroke-linejoin:miter;stroke-opacity:1;display:inline"
       d="m 0,742.36208 370,3e-5"
       id="path3016"
       inkscape:connector-curvature="0" />
    <path
       style="fill:none;stroke:#ff0000;stroke-width:1px;stroke-linecap:butt;stroke-linejoin:miter;stroke-opacity:1;display:inline"
       d="m 0,1042.3622 370,0"
       id="path3018"
       inkscape:connector-curvature="0"
       sodipodi:nodetypes="cc" />
  </g>
  <g
     inkscape:groupmode="layer"
     id="layer4"
     inkscape:label="吹き出し"
     style="display:inline"
     sodipodi:insensitive="true">
    <g
       id="g7665">
      <path
         sodipodi:nodetypes="sssssscsssss"
         inkscape:connector-curvature="0"
         id="rect13841"
         d="m 200.65993,12.013428 131.46951,0 c 14.39154,0 25.97752,11.58598 25.97752,25.97753 l 0,28.24943 c 0,14.39155 -11.58598,25.97753 -25.97752,25.97753 l -54.72536,0 c -21.29438,0 -17.58186,12.165662 -40.86427,26.364042 5.80184,-10.41871 13.79161,-26.364042 -3.9546,-26.364042 l -31.92528,0 c -14.39155,0 -25.97753,-11.58598 -25.97753,-25.97753 l 0,-28.24943 c 0,-14.39155 11.58598,-25.97753 25.97753,-25.97753 z"
         style="fill:#fefefe;fill-opacity:1;stroke:#000000;stroke-width:2" />
      <text
         sodipodi:linespacing="125%"
         id="text6768-1"
         y="46.898205"
         x="201.05342"
         style="font-size:28px;font-style:normal;font-variant:normal;font-weight:normal;font-stretch:normal;line-height:125%;letter-spacing:0px;word-spacing:0px;writing-mode:lr-tb;fill:#000000;fill-opacity:1;stroke:none;font-family:MS UI Gothic;-inkscape-font-specification:MS UI Gothic"
         xml:space="preserve"><tspan
           id="tspan6459"
           style="font-size:28px;font-style:normal;font-variant:normal;font-weight:normal;font-stretch:normal;fill:#000000;fill-opacity:1;font-family:MS UI Gothic;-inkscape-font-specification:MS UI Gothic"
           y="46.898205"
           x="201.05342"
           sodipodi:role="line">何かあったら</tspan></text>
      <text
         sodipodi:linespacing="125%"
         id="text6768-1-3"
         y="78.449554"
         x="201.95493"
         style="font-size:28px;font-style:normal;font-variant:normal;font-weight:normal;font-stretch:normal;line-height:125%;letter-spacing:0px;word-spacing:0px;writing-mode:lr-tb;fill:#000000;fill-opacity:1;stroke:none;font-family:MS UI Gothic;-inkscape-font-specification:MS UI Gothic"
         xml:space="preserve"><tspan
           id="tspan6459-7"
           style="font-size:28px;font-style:normal;font-variant:normal;font-weight:normal;font-stretch:normal;fill:#000000;fill-opacity:1;font-family:MS UI Gothic;-inkscape-font-specification:MS UI Gothic"
           y="78.449554"
           x="201.95493"
           sodipodi:role="line">呼んでね…</tspan></text>
    </g>
  </g>
  <g
     inkscape:groupmode="layer"
     id="layer5"
     inkscape:label="机"
     sodipodi:insensitive="true">
    <rect
       style="fill:#552200;fill-opacity:1;stroke:#000000;stroke-width:3;stroke-linecap:round;stroke-miterlimit:4;stroke-opacity:1;stroke-dasharray:none;stroke-dashoffset:0;display:inline"
       id="rect6363"
       width="531.89801"
       height="91.013657"
       x="-76.238708"
       y="283.35812" />
    <path
       style="fill:#fefefe;fill-opacity:1;stroke:#000000;stroke-width:1.5;stroke-linecap:butt;stroke-linejoin:miter;stroke-opacity:1;display:inline"
       d="m 2.9252964,299.10508 101.1314336,0 -25.90971,38.44666 -74.8038336,0 z"
       id="path6936-9"
       inkscape:connector-curvature="0" />
    <path
       style="fill:#fefefe;fill-opacity:1;stroke:#000000;stroke-width:1.5;stroke-linecap:butt;stroke-linejoin:miter;stroke-opacity:1;display:inline"
       d="m 3.3614664,294.30838 101.1314336,0 -25.909705,38.44666 -74.8038386,0 z"
       id="path6936"
       inkscape:connector-curvature="0" />
    <path
       style="fill:none;stroke:#cccccc;stroke-width:1px;stroke-linecap:butt;stroke-linejoin:miter;stroke-opacity:1"
       d="m 5.5514775,309.06654 79.6999495,0"
       id="path7663"
       inkscape:connector-curvature="0"
       sodipodi:nodetypes="cc" />
    <path
       style="fill:none;stroke:#cccccc;stroke-width:1px;stroke-linecap:butt;stroke-linejoin:miter;stroke-opacity:1"
       d="m 10.852996,305.34512 77.335959,0"
       id="path7663-1"
       inkscape:connector-curvature="0"
       sodipodi:nodetypes="cc" />
    <path
       style="fill:none;stroke:#cccccc;stroke-width:1px;stroke-linecap:butt;stroke-linejoin:miter;stroke-opacity:1"
       d="m 12.785017,301.52198 78.222456,0"
       id="path7663-3"
       inkscape:connector-curvature="0"
       sodipodi:nodetypes="cc" />
    <path
       style="fill:none;stroke:#cccccc;stroke-width:1px;stroke-linecap:butt;stroke-linejoin:miter;stroke-opacity:1"
       d="m 16.609041,298.09606 77.335959,0"
       id="path7663-1-5"
       inkscape:connector-curvature="0"
       sodipodi:nodetypes="cc" />
    <text
       xml:space="preserve"
       style="font-size:4.3616724px;font-style:normal;font-weight:normal;line-height:125%;letter-spacing:0px;word-spacing:0px;writing-mode:lr-tb;fill:#000000;fill-opacity:1;stroke:none;font-family:Sans"
       x="-349.71063"
       y="-510.83157"
       id="text7760"
       sodipodi:linespacing="125%"
       transform="matrix(-1.6690517,0,0.97089021,-0.59914262,0,0)"><tspan
         sodipodi:role="line"
         id="tspan7762"
         x="-349.71063"
         y="-510.83157">グーグーですな</tspan></text>
  </g>
  <g
     inkscape:groupmode="layer"
     id="layer3"
     inkscape:label="豚"
     style="display:inline"
     sodipodi:insensitive="true">
    <g
       style="display:inline"
       id="g7640"
       transform="matrix(1.2237245,0,0,1.2237245,-126.29925,-881.18798)">
      <path
         inkscape:connector-curvature="0"
         id="path5211"
         d="m 300.9502,890.9858 c -11.59277,8.79756 -24.24537,50.63138 -75.88498,39.05205 -45.19406,-10.13402 -72.28409,-61.99801 -37.13758,-105.16658 3.42894,-27.3558 36.87383,-47.60342 68.47686,-37.67496 32.25183,10.13229 43.51268,42.84933 37.60942,75.04127 1.36322,10.04824 -8.86867,20.52475 6.93628,28.74822 z"
         style="fill:#fffff8;fill-opacity:1;stroke:#000000;stroke-width:3;stroke-linecap:butt;stroke-linejoin:miter;stroke-opacity:1;display:inline" />
      <path
         inkscape:connector-curvature="0"
         id="path5807"
         d="m 201.71804,833.51247 c 4.5587,-6.77807 15.47053,-10.30964 21.27153,0.19668 3.90311,7.06903 7.75997,18.28095 23.22623,10.54679"
         style="fill:none;stroke:#000000;stroke-width:3;stroke-linecap:butt;stroke-linejoin:miter;stroke-opacity:1;display:inline" />
      <path
         inkscape:connector-curvature="0"
         id="path5809"
         d="m 232.79187,822.97082 13.82384,5.49898"
         style="fill:none;stroke:#000000;stroke-width:3;stroke-linecap:butt;stroke-linejoin:miter;stroke-opacity:1;display:inline" />
      <path
         inkscape:connector-curvature="0"
         id="path5811"
         d="m 208.31498,814.47398 11.77964,4.23393"
         style="fill:none;stroke:#000000;stroke-width:3;stroke-linecap:butt;stroke-linejoin:miter;stroke-opacity:1;display:inline" />
      <path
         sodipodi:nodetypes="ccc"
         inkscape:connector-curvature="0"
         id="path3910-42"
         d="m 220.82391,797.4041 26.79221,-16.03088 10.10637,28.10514"
         style="fill:#f8fcff;fill-opacity:1;stroke:#000000;stroke-width:3;stroke-linecap:butt;stroke-linejoin:miter;stroke-opacity:1;display:inline" />
      <path
         sodipodi:nodetypes="cc"
         inkscape:connector-curvature="0"
         id="path3908-87"
         d="m 208.21317,793.62977 82.7508,27.25011"
         style="fill:none;stroke:#000000;stroke-width:3;stroke-linecap:butt;stroke-linejoin:miter;stroke-opacity:1;display:inline" />
    </g>
    <g
       style="display:inline"
       id="g6432"
       transform="translate(-3.8655614,0)">
      <path
         sodipodi:nodetypes="cccsssc"
         inkscape:connector-curvature="0"
         id="path11235-1"
         d="m 52.799568,220.80303 -6.161648,19.29706 c -0.737392,17.1866 -3.961551,27.96675 -5.900359,40.95671 -1.746977,4.96612 -17.899333,14.17465 -22.203227,8.08368 -11.1004295,-15.70956 6.731078,-61.12778 5.708864,-75.94044 -0.715475,-10.36784 -0.742201,-23.20025 4.61491,-29.94549 7.534423,-9.48675 22.30747,-10.8485 31.416251,-15.88095"
         style="fill:#ffccaa;stroke:#000000;stroke-width:1.5;stroke-linecap:butt;stroke-linejoin:miter;stroke-opacity:1;display:inline" />
      <path
         sodipodi:nodetypes="csccc"
         inkscape:connector-curvature="0"
         id="path4344"
         d="m 60.46455,166.18981 c -14.149669,6.07677 -27.211717,8.63538 -32.530586,15.18143 -5.997364,7.38109 -7.103403,27.69221 -12.405489,52.79507 l 39.806455,10.25034 6.839506,-46.59415"
         style="fill:#c8b7b7;stroke:#000000;stroke-width:1.5;stroke-linecap:butt;stroke-linejoin:miter;stroke-opacity:1" />
      <path
         inkscape:connector-curvature="0"
         id="path6893-1-7"
         d="m 43.13934,197.42402 c -2.009478,11.24183 -5.020256,20.85625 -4.471379,30.41342 0.641122,11.16325 11.026406,20.43407 12.796157,29.94718 l 2.948686,25.3705 85.796316,16.22818 0.13496,-94.57111 -31.98609,-44.52901"
         style="fill:#c8b7b7;stroke:#000000;stroke-width:1.5;stroke-linecap:butt;stroke-linejoin:miter;stroke-opacity:1;display:inline"
         sodipodi:nodetypes="csccccc" />
      <path
         inkscape:connector-curvature="0"
         id="path6901-6"
         d="m 87.680269,185.4567 c -0.980399,17.05381 -2.019084,34.07848 -1.349536,51.95731"
         style="fill:none;stroke:#000000;stroke-width:1.5;stroke-linecap:butt;stroke-linejoin:miter;stroke-opacity:1" />
      <path
         transform="matrix(-1.0210517,0,0,1.0210517,-437.06557,-724.34308)"
         d="m -503.12287,897.26843 a 3.5826087,3.5826087 0 1 1 -7.16521,0 3.5826087,3.5826087 0 1 1 7.16521,0 z"
         sodipodi:ry="3.5826087"
         sodipodi:rx="3.5826087"
         sodipodi:cy="897.26843"
         sodipodi:cx="-506.70547"
         id="path6903-7"
         style="fill:#c8b7b7;fill-opacity:1;stroke:#000000;stroke-width:1.46907353;stroke-linecap:round;stroke-miterlimit:4;stroke-opacity:1;stroke-dasharray:none;stroke-dashoffset:0"
         sodipodi:type="arc" />
      <path
         inkscape:connector-curvature="0"
         id="path6907-1"
         d="m 81.420233,190.7806 -0.159036,2.46521"
         style="fill:none;stroke:#000000;stroke-width:1.5;stroke-linecap:butt;stroke-linejoin:miter;stroke-opacity:1" />
      <path
         inkscape:connector-curvature="0"
         id="path6909-7"
         d="m 79.273135,190.70108 -0.07954,2.22662"
         style="fill:none;stroke:#000000;stroke-width:1.5;stroke-linecap:butt;stroke-linejoin:miter;stroke-opacity:1" />
      <path
         d="m -503.12287,897.26843 a 3.5826087,3.5826087 0 1 1 -7.16521,0 3.5826087,3.5826087 0 1 1 7.16521,0 z"
         sodipodi:ry="3.5826087"
         sodipodi:rx="3.5826087"
         sodipodi:cy="897.26843"
         sodipodi:cx="-506.70547"
         id="path6903-8-7"
         style="fill:#c8b7b7;fill-opacity:1;stroke:#000000;stroke-width:1.46907353;stroke-linecap:round;stroke-miterlimit:4;stroke-opacity:1;stroke-dasharray:none;stroke-dashoffset:0;display:inline"
         sodipodi:type="arc"
         transform="matrix(-1.0210517,0,0,1.0210517,-438.35177,-703.93491)" />
      <path
         inkscape:connector-curvature="0"
         id="path6907-9-7"
         d="m 80.134037,211.18878 -0.159035,2.46519"
         style="fill:none;stroke:#000000;stroke-width:1.5;stroke-linecap:butt;stroke-linejoin:miter;stroke-opacity:1;display:inline" />
      <path
         inkscape:connector-curvature="0"
         id="path6909-3-7"
         d="m 77.986939,211.10926 -0.07954,2.22662"
         style="fill:none;stroke:#000000;stroke-width:1.5;stroke-linecap:butt;stroke-linejoin:miter;stroke-opacity:1;display:inline" />
      <path
         d="m -503.12287,897.26843 a 3.5826087,3.5826087 0 1 1 -7.16521,0 3.5826087,3.5826087 0 1 1 7.16521,0 z"
         sodipodi:ry="3.5826087"
         sodipodi:rx="3.5826087"
         sodipodi:cy="897.26843"
         sodipodi:cx="-506.70547"
         id="path6903-8-4-3"
         style="fill:#c8b7b7;fill-opacity:1;stroke:#000000;stroke-width:1.46907353;stroke-linecap:round;stroke-miterlimit:4;stroke-opacity:1;stroke-dasharray:none;stroke-dashoffset:0;display:inline"
         sodipodi:type="arc"
         transform="matrix(-1.0210517,0,0,1.0210517,-438.35177,-684.25413)" />
      <path
         inkscape:connector-curvature="0"
         id="path6907-9-4-3"
         d="m 80.134037,230.86955 -0.159047,2.46519"
         style="fill:none;stroke:#000000;stroke-width:1.5;stroke-linecap:butt;stroke-linejoin:miter;stroke-opacity:1;display:inline" />
      <path
         inkscape:connector-curvature="0"
         id="path6909-3-6-5"
         d="m 77.986939,230.79003 -0.07954,2.22666"
         style="fill:none;stroke:#000000;stroke-width:1.5;stroke-linecap:butt;stroke-linejoin:miter;stroke-opacity:1;display:inline" />
      <path
         sodipodi:nodetypes="csssscccc"
         inkscape:connector-curvature="0"
         id="path4388"
         d="m 111.35851,164.83824 c 17.12819,7.22126 33.40657,6.6641 41.70536,22.72131 5.86372,11.34563 4.19029,22.18046 3.18193,34.15558 -0.69649,8.27146 -0.3738,34.25899 -1.76219,50.88843 -0.95438,11.43105 -2.26054,19.81956 -6.3297,26.94458 -5.89375,10.31991 -54.23666,-4.50625 -68.985649,-7.964 l 1.929092,-9.11675 44.476757,-7.88507 c -1.34733,-13.50906 4.06157,-37.70112 3.71184,-55.04083"
         style="fill:#ffccaa;stroke:#000000;stroke-width:1.5;stroke-linecap:butt;stroke-linejoin:miter;stroke-opacity:1;display:inline" />
      <path
         style="fill:#ffccaa;stroke:none;display:inline"
         d="m 80.595803,290.70849 c -2.262397,2.60568 -7.140542,3.82524 -10.352158,3.38177 -2.816304,-0.3889 -8.014598,-3.61665 -10.829533,-5.7538 -0.05716,1.60023 1.703583,6.89002 0.0086,7.71127 -2.839633,1.37571 -10.193924,1.97386 -11.051498,-0.96136 -0.586898,-2.00875 -3.950538,-16.33991 -0.172276,-17.88951 6.737411,-2.76317 17.725552,-1.82323 27.294979,0.78857 16.002609,-0.0832 45.541973,-7.84995 60.533773,-3.34493"
         id="path4384-1"
         inkscape:connector-curvature="0"
         sodipodi:nodetypes="cscssscc" />
      <path
         sodipodi:nodetypes="cssscc"
         inkscape:connector-curvature="0"
         id="path11194-0"
         d="m 59.376488,288.40759 c -0.06082,1.60076 1.699924,6.89055 0.0049,7.71179 -2.839628,1.37571 -10.193919,1.97387 -11.051493,-0.96136 -0.586898,-2.00874 -3.950538,-16.3399 -0.172276,-17.8895 6.737411,-2.76317 17.725552,-1.82323 27.294979,0.78857 16.002609,-0.0832 45.541982,-7.84995 60.533772,-3.34493"
         style="fill:none;stroke:#000000;stroke-width:1.5;stroke-linecap:butt;stroke-linejoin:miter;stroke-opacity:1;display:inline" />
      <path
         sodipodi:nodetypes="csccc"
         inkscape:connector-curvature="0"
         id="path4384"
         d="m 80.554521,290.78015 c -2.262397,2.60568 -7.140543,3.82524 -10.352159,3.38176 -2.816304,-0.3889 -8.504322,-3.68194 -11.322914,-5.81856 -0.720064,-0.24475 -2.375115,-1.02769 -3.910755,-0.79702 -0.348786,1.43103 -0.541069,2.62526 -0.935574,3.96034"
         style="fill:none;stroke:#000000;stroke-width:1.5;stroke-linecap:butt;stroke-linejoin:miter;stroke-opacity:1;display:inline" />
      <path
         sodipodi:nodetypes="ccccccccsscc"
         inkscape:connector-curvature="0"
         id="path11260-6"
         d="m 26.138552,279.59176 1.595994,6.51474 2.963248,5.17219 -3.053596,0.47138 -7.17898,-4.39757 -1.892349,-9.4775 c 7.197427,-6.34281 14.493689,-11.30183 22.091684,-12.03656 l 10.704494,13.38143 c 0.386513,2.8651 -2.864911,9.09766 -4.231725,10.62743 -1.048891,1.17392 -3.814362,3.02579 -4.380628,-0.52326 -0.296545,-1.85859 0.786402,-4.04979 1.454445,-6.06698 -0.393586,-0.65188 0.221054,-2.64667 -1.315332,-4.44139"
         style="fill:#ffccaa;stroke:#000000;stroke-width:1.5;stroke-linecap:butt;stroke-linejoin:miter;stroke-opacity:1;display:inline" />
      <path
         sodipodi:nodetypes="cccccc"
         inkscape:connector-curvature="0"
         id="path11258-8"
         d="m 22.567724,279.83247 c -0.01664,0.8358 0.526948,3.43793 1.519241,6.38502 2.648972,2.55954 7.799641,6.40901 7.799641,6.40901 l 1.136791,-2.99433 -5.251858,-4.51591 -0.546124,-6.7541"
         style="fill:#ffccaa;stroke:#000000;stroke-width:1.5;stroke-linecap:butt;stroke-linejoin:miter;stroke-opacity:1;display:inline" />
      <path
         inkscape:connector-curvature="0"
         id="path11256-5"
         d="m 25.968711,277.00187 1.198283,6.9346 5.617606,8.21266 3.497392,-1.34854 -2.412316,-7.12881 0.0142,-7.32155"
         style="fill:#ffccaa;stroke:#000000;stroke-width:1.5;stroke-linecap:butt;stroke-linejoin:miter;stroke-opacity:1;display:inline" />
      <path
         inkscape:connector-curvature="0"
         id="path11262-7"
         d="m 39.666753,243.45933 -1.194686,50.59624 2.438149,8.31606 1.983608,-7.65402 1.465814,-51.32301 z"
         style="fill:#483737;stroke:#000000;stroke-width:1.5;stroke-linecap:butt;stroke-linejoin:miter;stroke-opacity:1;display:inline" />
      <path
         inkscape:connector-curvature="0"
         id="path11254-6"
         d="m 38.59909,274.04107 c 0.02692,2.56664 0.352102,5.67306 0.04613,7.65329 l 2.012733,9.48264 c 0.354623,1.67075 -2.017163,3.72624 -3.302306,1.68923 -1.479189,-2.34465 -4.530705,-7.43058 -4.827312,-9.41631 -0.286241,-1.91636 0.310337,-6.64874 0.496465,-9.76496"
         style="fill:#ffccaa;stroke:#000000;stroke-width:1.5;stroke-linecap:butt;stroke-linejoin:miter;stroke-opacity:1;display:inline" />
      <path
         sodipodi:nodetypes="cccscc"
         inkscape:connector-curvature="0"
         id="path4344-1"
         d="m 125.67076,209.53545 c -1.18041,12.80399 -0.65096,18.68263 -0.97644,32.13358 l 35.10429,4.12431 c 0.1083,-28.06475 0.49214,-55.58733 -5.50523,-62.96842 -5.31887,-6.54604 -34.17209,-15.40037 -48.32176,-21.47714 l -6.17993,27.07041"
         style="fill:#c8b7b7;stroke:#000000;stroke-width:1.5;stroke-linecap:butt;stroke-linejoin:miter;stroke-opacity:1;display:inline" />
      <path
         inkscape:connector-curvature="0"
         id="path3874-0-4-9"
         d="m 61.049956,155.14999 18.072795,20.59088 -14.309108,21.83534 -7.994091,-33.40662 z"
         style="fill:#c8b7b7;stroke:#000000;stroke-width:1.5;stroke-linecap:butt;stroke-linejoin:miter;stroke-opacity:1;display:inline" />
      <path
         sodipodi:nodetypes="ccccc"
         inkscape:connector-curvature="0"
         id="path3876-9-0-4"
         d="m 108.0207,153.07974 -24.349169,24.97917 17.217569,19.18421 13.25211,-35.69345 z"
         style="fill:#c8b7b7;stroke:#000000;stroke-width:1.5;stroke-linecap:butt;stroke-linejoin:miter;stroke-opacity:1;display:inline" />
    </g>
    <g
       id="g4292"
       transform="matrix(-1.2237245,0,0,1.2237245,-135.89339,-958.5919)"
       style="stroke-width:1.22576606;display:inline">
      <path
         style="fill:#552200;stroke:#000000;stroke-width:1.22576606;stroke-linecap:butt;stroke-linejoin:miter;stroke-opacity:1;display:inline"
         d="m -140.23714,886.99709 c 8.18567,11.6548 8.26932,25.64827 5.28423,41.21101 -4.9584,-10.30933 -6.52744,-18.90678 -7.8523,-36.63804"
         id="path5466-1-6-8"
         inkscape:connector-curvature="0"
         sodipodi:nodetypes="ccc" />
      <path
         sodipodi:nodetypes="ccsc"
         inkscape:connector-curvature="0"
         id="path5825-8"
         d="m -146.63311,903.18233 c 16.77932,-27.41264 7.19218,-70.91976 -28.92472,-69.72451 -15.89492,-5.90907 -40.73181,7.6907 -44.63592,38.06878 -2.8438,22.12731 8.57411,32.8852 17.31628,44.61943"
         style="fill:#552200;stroke:#000000;stroke-width:1.22576606;stroke-linecap:butt;stroke-linejoin:miter;stroke-opacity:1;display:inline" />
      <path
         style="fill:#552200;stroke:#000000;stroke-width:1.22576606;stroke-linecap:butt;stroke-linejoin:miter;stroke-opacity:1;display:inline"
         d="m -216.388,891.58788 c -8.5714,9.86813 -9.33853,28.4048 -6.27487,43.03823 6.03407,-14.02128 7.90334,-23.03295 8.77963,-35.66475"
         id="path5468-5-1-2"
         inkscape:connector-curvature="0"
         sodipodi:nodetypes="ccc" />
      <path
         sodipodi:nodetypes="ccssssscc"
         inkscape:connector-curvature="0"
         id="path5813-4"
         d="m -210.61232,884.48572 c 0,0 3.79528,19.81489 4.96396,23.37712 1.55895,4.75188 4.09664,9.65386 5.64853,12.70464 1.34984,2.65361 7.7403,7.92632 11.7881,11.22879 3.90376,3.18496 8.47204,5.62018 12.04986,5.69158 5.50465,0.10984 10.21068,-5.03908 14.59292,-8.83154 5.03201,-4.35478 9.13638,-9.38129 11.77353,-15.03944 2.17009,-4.65627 4.6845,-17.51668 6.30987,-21.73786 l -2.83111,-34.64132"
         style="fill:#ffccaa;stroke:#000000;stroke-width:1.22576606;stroke-linecap:butt;stroke-linejoin:miter;stroke-opacity:1;display:inline" />
      <path
         sodipodi:nodetypes="csc"
         inkscape:connector-curvature="0"
         id="path5815-5"
         d="m -163.77821,889.86003 c -1.54666,2.21 -3.37525,6.86002 -3.65776,8.94773 -0.40646,3.00377 -0.63903,11.28611 -0.44134,15.97713"
         style="fill:none;stroke:#000000;stroke-width:1.22576606;stroke-linecap:butt;stroke-linejoin:miter;stroke-opacity:1;display:inline" />
      <path
         sodipodi:nodetypes="cc"
         inkscape:connector-curvature="0"
         id="path5817-5"
         d="m -175.02724,893.74552 c -1.37798,-3.24486 -9.87762,-3.0129 -15.87018,-0.0507"
         style="fill:none;stroke:#000000;stroke-width:1.22576606;stroke-linecap:butt;stroke-linejoin:miter;stroke-opacity:1;display:inline" />
      <path
         sodipodi:nodetypes="cc"
         inkscape:connector-curvature="0"
         id="path5819-1"
         d="m -160.89917,895.31518 c 4.04417,-3.67918 9.9167,-5.95634 11.74179,-1.59075"
         style="fill:none;stroke:#000000;stroke-width:1.22576606;stroke-linecap:butt;stroke-linejoin:miter;stroke-opacity:1;display:inline" />
      <path
         inkscape:connector-curvature="0"
         id="path5823-7"
         d="m -164.51587,922.63394 c -2.34096,1.47475 -4.08884,-0.39135 -7.65053,-0.24004 -3.96642,0.16875 -9.97264,2.51186 -11.61213,-0.47814"
         style="fill:none;stroke:#000000;stroke-width:1.22576606;stroke-linecap:butt;stroke-linejoin:miter;stroke-opacity:1;display:inline" />
      <path
         sodipodi:type="arc"
         style="fill:#550000;stroke:#000000;stroke-width:1.51320374;stroke-linecap:round;stroke-miterlimit:4;stroke-opacity:1;stroke-dasharray:none;stroke-dashoffset:0;display:inline"
         id="path5827-1"
         sodipodi:cx="100.48453"
         sodipodi:cy="571.1853"
         sodipodi:rx="2.3499656"
         sodipodi:ry="4.2769375"
         d="m 102.83449,571.1853 a 2.3499656,4.2769375 0 1 1 -4.699928,0 2.3499656,4.2769375 0 1 1 4.699928,0 z"
         transform="matrix(-0.87914455,-0.10535798,-0.14094267,0.72948941,13.708938,491.45013)" />
      <path
         sodipodi:type="arc"
         style="fill:#550000;stroke:#000000;stroke-width:1.54384065;stroke-linecap:round;stroke-miterlimit:4;stroke-opacity:1;stroke-dasharray:none;stroke-dashoffset:0;display:inline"
         id="path5829-1"
         sodipodi:cx="132.35007"
         sodipodi:cy="569.77533"
         sodipodi:rx="3.3839505"
         sodipodi:ry="3.8069444"
         d="m 135.73402,569.77533 a 3.3839505,3.8069444 0 1 1 -6.7679,0 3.3839505,3.8069444 0 1 1 6.7679,0 z"
         transform="matrix(-0.69541866,-0.05276689,-0.06838892,0.90130263,-51.662588,391.31384)" />
      <path
         sodipodi:nodetypes="cc"
         inkscape:connector-curvature="0"
         id="path5831-5"
         d="m -171.03021,886.86162 c -5.46441,-2.96418 -13.19498,-2.81855 -20.05392,-1.18259"
         style="fill:none;stroke:#000000;stroke-width:1.22576606;stroke-linecap:butt;stroke-linejoin:miter;stroke-opacity:1;display:inline" />
      <path
         inkscape:connector-curvature="0"
         id="path5833-2"
         d="m -147.58744,885.89691 c -4.16521,-1.53034 -8.8002,-0.0857 -13.37982,1.0084"
         style="fill:none;stroke:#000000;stroke-width:1.22576606;stroke-linecap:butt;stroke-linejoin:miter;stroke-opacity:1;display:inline" />
      <path
         sodipodi:nodetypes="cssc"
         inkscape:connector-curvature="0"
         id="path5835-7"
         d="m -209.27549,886.42644 c -2.01883,-2.15886 -6.40199,-5.84081 -7.87246,0.35735 -1.11847,4.71442 1.81244,9.79108 3.86938,13.83574 1.92656,3.7883 2.80006,4.15106 8.31511,5.37077"
         style="fill:#ffccaa;stroke:#000000;stroke-width:1.22576606;stroke-linecap:butt;stroke-linejoin:miter;stroke-opacity:1;display:inline" />
      <path
         sodipodi:nodetypes="csssc"
         inkscape:connector-curvature="0"
         id="path5837-6"
         d="m -210.06568,888.37555 c -1.53758,-0.84379 -3.86975,-3.27367 -4.49981,1.41107 -0.41383,3.07692 1.84188,4.90538 2.84263,7.28877 0.62912,1.49831 3.67992,4.34835 4.70549,3.80619 1.12533,-0.5949 -0.96391,-5.79448 0.87915,-5.85363"
         style="fill:none;stroke:#000000;stroke-width:1.22576606;stroke-linecap:butt;stroke-linejoin:miter;stroke-opacity:1;display:inline" />
      <path
         sodipodi:nodetypes="ccccccccccccccc"
         inkscape:connector-curvature="0"
         id="path5821-1"
         d="m -149.47846,844.57942 c 13.49783,17.15434 14.41087,37.05559 2.57914,52.15947 0.3698,-11.10359 -3.1861,-26.69965 -6.84477,-33.20927 -0.0728,5.40221 1.76129,17.97477 -0.98239,25.91105 -0.4253,-6.43567 -1.41863,-9.31636 -1.97647,-14.85622 -1.3141,6.76408 -1.17781,10.6741 -6.51917,19.02559 2.60573,-12.2512 2.57485,-21.29993 1.44076,-32.67214 -3.4208,13.24962 -10.58958,22.70791 -17.73848,32.01798 0.66684,-5.41466 1.89168,-12.71799 2.21389,-16.03526 -4.15302,6.72557 -7.30455,15.64677 -12.75929,22.42542 1.15766,-6.91395 2.16367,-13.30338 3.35753,-19.80559 -5.2744,7.82977 -7.95679,13.7076 -14.03952,21.4718 0.76905,-8.80956 0.46123,-17.10648 2.24088,-24.63455 -2.86032,8.26267 -3.31954,15.11774 -5.95386,22.79854 -6.24747,-12.56082 -8.74812,-23.19367 -2.48032,-41.94806"
         style="fill:#552200;stroke:#000000;stroke-width:1.22576606;stroke-linecap:butt;stroke-linejoin:miter;stroke-opacity:1;display:inline" />
      <path
         style="fill:none;stroke:#d38d5f;stroke-width:1.22576606;stroke-linecap:butt;stroke-linejoin:miter;stroke-opacity:1;display:inline"
         d="m -152.65587,902.96245 -4.01044,0.43684"
         id="path5458-8-0-4"
         inkscape:connector-curvature="0"
         sodipodi:nodetypes="cc" />
      <path
         style="fill:none;stroke:#d38d5f;stroke-width:1.22576606;stroke-linecap:butt;stroke-linejoin:miter;stroke-opacity:1;display:inline"
         d="m -182.4882,904.40165 -4.61354,-2.20666"
         id="path5460-6-6-2"
         inkscape:connector-curvature="0" />
    </g>
    <path
       style="fill:#fffff8;fill-opacity:1;stroke:#000000;stroke-width:3.67117357;stroke-linecap:butt;stroke-linejoin:miter;stroke-opacity:1;display:inline"
       d="m 154.00675,158.65019 c -13.17081,0.78244 -21.8081,10.06535 -19.40544,19.02059 1.84454,6.87505 20.53551,4.14626 33.47041,13.77605"
       id="path5805"
       inkscape:connector-curvature="0" />
  </g>
  <g
     inkscape:groupmode="layer"
     id="layer2"
     inkscape:label="枠面"
     sodipodi:insensitive="true">
    <path
       style="fill:#ffffff;stroke:none;display:inline"
       d="m 0,0 0,320 370,0 0,-320 -10,10 0,300 -350,0 0,-300 350,0 10,-10 z"
       id="path21072"
       inkscape:connector-curvature="0"
       sodipodi:nodetypes="ccccccccccc" />
  </g>
</svg>
