<?xml version="1.0" encoding="UTF-8" standalone="no"?>
<!-- Created with Inkscape (http://www.inkscape.org/) -->

<svg
   xmlns:dc="http://purl.org/dc/elements/1.1/"
   xmlns:cc="http://creativecommons.org/ns#"
   xmlns:rdf="http://www.w3.org/1999/02/22-rdf-syntax-ns#"
   xmlns:svg="http://www.w3.org/2000/svg"
   xmlns="http://www.w3.org/2000/svg"
   xmlns:sodipodi="http://sodipodi.sourceforge.net/DTD/sodipodi-0.dtd"
   xmlns:inkscape="http://www.inkscape.org/namespaces/inkscape"
   width="370"
   height="320"
   id="svg3172"
   version="1.1"
   inkscape:version="0.48.4 r9939"
   sodipodi:docname="[14]応援.svg"
   inkscape:export-filename="C:\Users\執安\Desktop\資料\臨時\ANCESTOR\org\[14]応援.png"
   inkscape:export-xdpi="90"
   inkscape:export-ydpi="90">
  <defs
     id="defs3174" />
  <sodipodi:namedview
     id="base"
     pagecolor="#ffffff"
     bordercolor="#666666"
     borderopacity="1.0"
     inkscape:pageopacity="0.0"
     inkscape:pageshadow="2"
     inkscape:zoom="1"
     inkscape:cx="146.55167"
     inkscape:cy="108.64568"
     inkscape:document-units="px"
     inkscape:current-layer="layer7"
     showgrid="false"
     inkscape:window-width="1100"
     inkscape:window-height="698"
     inkscape:window-x="-5"
     inkscape:window-y="-5"
     inkscape:window-maximized="0" />
  <metadata
     id="metadata3177">
    <rdf:RDF>
      <cc:Work
         rdf:about="">
        <dc:format>image/svg+xml</dc:format>
        <dc:type
           rdf:resource="http://purl.org/dc/dcmitype/StillImage" />
        <dc:title></dc:title>
      </cc:Work>
    </rdf:RDF>
  </metadata>
  <g
     inkscape:label="補助線"
     inkscape:groupmode="layer"
     id="layer1"
     transform="translate(0,-732.36218)"
     sodipodi:insensitive="true"
     style="display:none">
    <path
       style="fill:none;stroke:#0000ff;stroke-width:1px;stroke-linecap:butt;stroke-linejoin:miter;stroke-opacity:1;display:inline"
       d="M 10,1042.3622 360,742.36211"
       id="path3025"
       inkscape:connector-curvature="0"
       sodipodi:nodetypes="cc" />
    <path
       style="fill:none;stroke:#0000ff;stroke-width:1px;stroke-linecap:butt;stroke-linejoin:miter;stroke-opacity:1;display:inline"
       d="M 10,742.36211 360,1042.3622"
       id="path3027"
       inkscape:connector-curvature="0"
       sodipodi:nodetypes="cc" />
    <path
       style="fill:none;stroke:#ff0000;stroke-width:1px;stroke-linecap:butt;stroke-linejoin:miter;stroke-opacity:1;display:inline"
       d="m 10,732.36211 0,320.00009"
       id="path3006"
       inkscape:connector-curvature="0"
       sodipodi:nodetypes="cc" />
    <path
       style="fill:none;stroke:#ff0000;stroke-width:1px;stroke-linecap:butt;stroke-linejoin:miter;stroke-opacity:1;display:inline"
       d="m 360,732.36211 0,320.00009"
       id="path3010"
       inkscape:connector-curvature="0"
       sodipodi:nodetypes="cc" />
    <path
       style="fill:none;stroke:#ff0000;stroke-width:1px;stroke-linecap:butt;stroke-linejoin:miter;stroke-opacity:1;display:inline"
       d="m 0,742.36208 370,3e-5"
       id="path3016"
       inkscape:connector-curvature="0" />
    <path
       style="fill:none;stroke:#ff0000;stroke-width:1px;stroke-linecap:butt;stroke-linejoin:miter;stroke-opacity:1;display:inline"
       d="m 0,1042.3622 370,0"
       id="path3018"
       inkscape:connector-curvature="0"
       sodipodi:nodetypes="cc" />
  </g>
  <g
     inkscape:groupmode="layer"
     id="layer4"
     inkscape:label="吹き出し"
     style="display:inline"
     sodipodi:insensitive="true">
    <g
       id="g21544">
      <path
         sodipodi:nodetypes="sssssscsssss"
         inkscape:connector-curvature="0"
         id="rect13841"
         d="m 187.66013,12.013428 144.46931,0 c 14.39154,0 25.97752,11.58598 25.97752,25.97753 l 0,9.048787 c 0,14.39155 -11.58598,25.97753 -25.97752,25.97753 l -88.97282,0 c -21.29438,0 -11.64053,8.444254 -5.79702,16.939994 -18.28045,-4.314018 -21.27564,-16.939994 -39.02185,-16.939994 l -10.67762,0 c -14.39155,0 -25.97753,-11.58598 -25.97753,-25.97753 l 0,-9.048787 c 0,-14.39155 11.58598,-25.97753 25.97753,-25.97753 z"
         style="fill:#fefefe;fill-opacity:1;stroke:#000000;stroke-width:3" />
      <text
         sodipodi:linespacing="125%"
         id="text6768-1"
         y="51.211113"
         x="196.5144"
         style="font-size:28px;font-style:normal;font-variant:normal;font-weight:normal;font-stretch:normal;line-height:125%;letter-spacing:0px;word-spacing:0px;writing-mode:lr-tb;fill:#000000;fill-opacity:1;stroke:none;font-family:MS UI Gothic;-inkscape-font-specification:MS UI Gothic"
         xml:space="preserve"><tspan
           id="tspan6459"
           style="font-size:28px;font-style:normal;font-variant:normal;font-weight:normal;font-stretch:normal;fill:#000000;fill-opacity:1;font-family:MS UI Gothic;-inkscape-font-specification:MS UI Gothic"
           y="51.211113"
           x="196.5144"
           sodipodi:role="line">お疲れさま。</tspan></text>
    </g>
  </g>
  <g
     inkscape:groupmode="layer"
     id="layer3"
     inkscape:label="豚"
     style="display:inline"
     sodipodi:insensitive="true">
    <path
       sodipodi:nodetypes="ccsccsc"
       style="fill:#fffff8;fill-opacity:1;stroke:#000000;stroke-width:3;stroke-linecap:butt;stroke-linejoin:miter;stroke-opacity:1;display:inline"
       d="m 206.00696,147.74887 c -22.20625,20.29006 -21.12491,42.81825 -4.9424,40.84003 -2.67514,51.00293 38.48026,72.29343 83.30092,67.14667 59.01753,-6.77699 65.98397,-60.08115 70.20195,-76.2671 -21.32354,-5.92373 -17.51363,-22.86579 -22.67062,-30.03862 -9.00882,-34.49778 -31.02163,-55.063103 -63.65953,-56.863953 -32.71569,-1.805136 -61.89692,21.089623 -61.93036,60.283703"
       id="path5607"
       inkscape:connector-curvature="0" />
    <path
       style="fill:#aa0000;fill-opacity:1;stroke:#000000;stroke-width:3;stroke-linecap:butt;stroke-linejoin:miter;stroke-opacity:1;display:inline"
       d="m 226.52039,148.00604 c 7.23,7.65635 4.07488,-1.95381 15.1277,-2.30155 12.86888,-0.40504 22.63815,18.02068 30.65389,3.96546 -6.51816,10.7309 -10.90529,19.49066 -23.70273,18.06611 -12.74923,-1.41915 -17.63694,-7.84549 -22.07886,-19.73002 z"
       id="path5609"
       inkscape:connector-curvature="0" />
    <path
       style="fill:none;stroke:#000000;stroke-width:3;stroke-linecap:butt;stroke-linejoin:miter;stroke-opacity:1;display:inline"
       d="m 236.72727,127.14996 0.18804,13.09576"
       id="path5611"
       inkscape:connector-curvature="0"
       sodipodi:nodetypes="cc" />
    <path
       style="fill:none;stroke:#000000;stroke-width:3;stroke-linecap:butt;stroke-linejoin:miter;stroke-opacity:1;display:inline"
       d="m 254.32547,128.65397 -0.2863,12.7046"
       id="path5613"
       inkscape:connector-curvature="0"
       sodipodi:nodetypes="cc" />
    <path
       style="fill:#f8fcff;fill-opacity:1;stroke:#000000;stroke-width:3;stroke-linecap:butt;stroke-linejoin:miter;stroke-opacity:1;display:inline"
       d="m 231.21285,114.49176 20.62982,-23.734003 19.29232,27.760213"
       id="path3910-3"
       inkscape:connector-curvature="0"
       sodipodi:nodetypes="ccc" />
    <path
       style="fill:none;stroke:#000000;stroke-width:3;stroke-linecap:butt;stroke-linejoin:miter;stroke-opacity:1;display:inline"
       d="m 223.54291,108.35114 c -4.84818,10.93351 89.27072,16.37238 86.50598,1.22754"
       id="path3908-54"
       inkscape:connector-curvature="0"
       sodipodi:nodetypes="cc" />
    <path
       style="fill:#502d16;fill-opacity:1;stroke:#000000;stroke-width:3"
       d="m 280.3871,194.35647 c 0,7.88362 -21.09008,13.51375 -47.10603,12.57525 -26.01592,-0.9385 -47.106,-8.09025 -47.106,-15.97387 0,-7.88362 21.09008,-13.51373 47.106,-12.57523 26.01595,0.9385 47.10603,8.09023 47.10603,15.97385 z"
       id="path21549"
       inkscape:connector-curvature="0" />
    <path
       style="fill:#e3dbdb;stroke:#000000;stroke-width:3;stroke-linecap:butt;stroke-linejoin:miter;stroke-opacity:1"
       d="m 247.78678,178.73555 c 11.45279,-2.9699 5.27187,9.14335 -5.37262,11.59358 l 0.32321,-2.73628 c 8.38233,-1.74331 13.008,-9.75641 4.24156,-6.64509 z"
       id="path21590"
       inkscape:connector-curvature="0"
       sodipodi:nodetypes="ccccc" />
    <path
       style="fill:#e3dbdb;fill-opacity:1;stroke:#000000;stroke-width:3;display:inline"
       d="m 221.10381,197.07786 c -12.19325,-5.16897 -14.37543,-16.87845 -14.37543,-20.74927 0,-3.87083 9.52707,-7.00875 21.27931,-7.00875 11.75224,0 21.27929,3.13792 21.27929,7.00875 0,3.87082 -2.80792,16.15028 -14.37543,20.74927 -2.13948,0.85061 -11.48562,0.98439 -13.80774,0 z"
       id="path21549-3"
       inkscape:connector-curvature="0"
       sodipodi:nodetypes="ssssss" />
    <path
       style="fill:#c8b7b7;stroke:none"
       d="m 211.27759,179.39538 -3.45952,-4.20084 9.80009,-4.53125 20.15209,-0.4296 11.3149,5.70218 -4.69505,3.70662 -16.80175,3.01979 z"
       id="path22127"
       inkscape:connector-curvature="0"
       sodipodi:nodetypes="cccccccc" />
    <path
       style="fill:#2b1100;stroke:none;display:inline"
       d="m 215.21947,180.97769 -3.80899,-2.10405 6.91702,-2.69657 18.66686,0.18196 9.13075,2.46964 -7.49076,3.09506 -11.38506,1.01037 z"
       id="path22127-1"
       inkscape:connector-curvature="0"
       sodipodi:nodetypes="cccccccc" />
    <path
       style="fill:none;stroke:#000000;stroke-width:3;display:inline"
       d="m 247.892,176.22397 c 0,3.2771 -9.79178,5.93375 -19.74144,5.93375 -9.94965,0 -19.74142,-2.65665 -19.74142,-5.93375 0,-3.27713 9.79177,-5.93377 19.74142,-5.93377 9.94966,0 19.74144,2.65664 19.74144,5.93377 z"
       id="path21549-3-3"
       inkscape:connector-curvature="0"
       sodipodi:nodetypes="sssss" />
    <path
       sodipodi:nodetypes="cc"
       style="fill:#fffff8;fill-opacity:1;stroke:#000000;stroke-width:3;stroke-linecap:butt;stroke-linejoin:miter;stroke-opacity:1;display:inline"
       d="m 283.06063,170.68997 c -22.15096,17.63978 -17.43605,32.51995 5.24313,36.749"
       id="path5605"
       inkscape:connector-curvature="0" />
    <path
       style="fill:none;stroke:#000000;stroke-width:3;stroke-linecap:butt;stroke-linejoin:miter;stroke-opacity:1"
       d="m 210.89022,179.04274 c 5.68045,-4.3543 28.10902,-4.01169 34.39122,0"
       id="path21617"
       inkscape:connector-curvature="0"
       sodipodi:nodetypes="cc" />
  </g>
  <g
     inkscape:groupmode="layer"
     id="layer8"
     inkscape:label="椅子"
     sodipodi:insensitive="true">
    <g
       style="stroke-width:2;display:inline"
       id="g3208"
       transform="matrix(1,0.0316866,0,1,-45.034531,-327.08404)">
      <path
         inkscape:connector-curvature="0"
         id="path3129"
         d="m 67.875,502.125 -1.3125,4.4375 14,-0.0625 0.875,-3.875 z"
         style="fill:#e9c6af;stroke:none" />
      <path
         inkscape:connector-curvature="0"
         id="path3156-8"
         d="m 80.52773,508.26768 2.20971,-5.39168 0.35355,102.26531 -3.18198,5.56847 z"
         style="fill:#c87137;stroke:none" />
      <path
         sodipodi:nodetypes="ccccc"
         inkscape:connector-curvature="0"
         id="path3156-82"
         d="m 66.379651,507.29491 13.169865,-0.26516 -0.17678,103.14919 -14.230524,0.0884 z"
         style="fill:#deaa87;stroke:none" />
      <path
         sodipodi:nodetypes="ccccc"
         inkscape:connector-curvature="0"
         id="path3082-7"
         d="m 65.759287,610.22678 0.917418,-103.57819 1.264974,-4.36804 14,0 0.381187,102.80669"
         style="fill:none;stroke:#000000;stroke-width:2;stroke-linecap:butt;stroke-linejoin:miter;stroke-opacity:1" />
      <path
         sodipodi:nodetypes="ccc"
         inkscape:connector-curvature="0"
         id="path3086-4"
         d="m 79.473076,610.30667 0.917418,-103.5782 1.264974,-4.36804"
         style="fill:none;stroke:#000000;stroke-width:2;stroke-linecap:butt;stroke-linejoin:miter;stroke-opacity:1" />
      <path
         inkscape:connector-curvature="0"
         id="path3099-0"
         d="m 66.664996,506.61521 13.51325,0"
         style="fill:none;stroke:#000000;stroke-width:2;stroke-linecap:butt;stroke-linejoin:miter;stroke-opacity:1" />
      <path
         sodipodi:nodetypes="ccccc"
         inkscape:connector-curvature="0"
         id="path3129-4"
         d="m 82.5,504.46875 -0.4375,4.4375 126.79241,-0.0625 0.34467,-4.05178 z"
         style="fill:#e9c6af;stroke:none" />
      <path
         sodipodi:nodetypes="ccccc"
         inkscape:connector-curvature="0"
         id="path3156-82-5"
         d="m 80.831142,508.70912 127.157308,0.69191 0.32322,42.39919 -128.058958,-0.54548 z"
         style="fill:#deaa87;stroke:none" />
      <path
         sodipodi:nodetypes="cccccc"
         inkscape:connector-curvature="0"
         id="path3125"
         d="m 82.115353,505.0852 127.872057,0 0.20352,46.9148 -129.75,0 0.655882,-43.18306 z"
         style="fill:none;stroke:#000000;stroke-width:2;stroke-linecap:butt;stroke-linejoin:miter;stroke-opacity:1" />
      <path
         inkscape:connector-curvature="0"
         id="path3127"
         d="m 81.06218,508.8417 128.40997,0"
         style="fill:none;stroke:#000000;stroke-width:2;stroke-linecap:butt;stroke-linejoin:miter;stroke-opacity:1" />
      <path
         inkscape:connector-curvature="0"
         id="path3129-9"
         d="m 211.0625,502.21875 -1.3125,4.4375 14,-0.0625 0.875,-3.875 z"
         style="fill:#e9c6af;stroke:none" />
      <path
         inkscape:connector-curvature="0"
         id="path3156"
         d="m 222.91541,507.47168 2.20971,-5.39168 0.35355,102.26531 -3.18198,5.56847 z"
         style="fill:#c87137;stroke:none" />
      <path
         sodipodi:nodetypes="ccccc"
         inkscape:connector-curvature="0"
         id="path3156-82-4"
         d="m 209.3478,507.47168 13.16987,-0.26516 -0.17678,103.14919 -14.23053,0.0884 z"
         style="fill:#deaa87;stroke:none" />
      <path
         sodipodi:nodetypes="ccccc"
         inkscape:connector-curvature="0"
         id="path3082"
         d="m 208.29318,610.22643 0.91742,-103.5782 1.26497,-4.36804 14,0 0.38119,102.8067"
         style="fill:none;stroke:#000000;stroke-width:2;stroke-linecap:butt;stroke-linejoin:miter;stroke-opacity:1" />
      <path
         sodipodi:nodetypes="ccc"
         inkscape:connector-curvature="0"
         id="path3086"
         d="m 222.00697,610.30632 0.91741,-103.5782 1.26498,-4.36804"
         style="fill:none;stroke:#000000;stroke-width:2;stroke-linecap:butt;stroke-linejoin:miter;stroke-opacity:1" />
      <path
         inkscape:connector-curvature="0"
         id="path3099"
         d="m 209.19889,506.61486 13.51325,0"
         style="fill:none;stroke:#000000;stroke-width:2;stroke-linecap:butt;stroke-linejoin:miter;stroke-opacity:1" />
    </g>
  </g>
  <g
     inkscape:groupmode="layer"
     id="layer6"
     inkscape:label="女2"
     style="display:inline"
     sodipodi:insensitive="true">
    <g
       transform="matrix(1.3918416,0,0,1.3918416,-119.09172,-1369.4914)"
       style="stroke-width:1.103513;display:inline"
       id="g4560-1-8">
      <path
         sodipodi:nodetypes="cccssc"
         inkscape:connector-curvature="0"
         id="path11235-1-7-7-3"
         d="m 125.44712,1136.8527 c -0.88154,12.4481 -8.91892,25.4428 -12.50018,34.6512 l -12.4075,11.089 c -9.071018,-12.8375 2.40739,-39.8486 1.57206,-51.9532 -0.58467,-8.4723 -0.60651,-18.9587 3.7712,-24.4707 6.15696,-7.7524 18.22916,-8.8652 25.67265,-12.9776"
         style="fill:#ffccaa;stroke:#000000;stroke-width:1.103513;stroke-linecap:butt;stroke-linejoin:miter;stroke-opacity:1;display:inline" />
      <path
         sodipodi:nodetypes="csccc"
         inkscape:connector-curvature="0"
         id="path4344-4-4-5"
         d="m 132.58901,1091.3458 c -11.56279,3.9529 -22.2368,4.3557 -26.58326,9.705 -4.90091,6.0316 -5.80474,25.3304 -10.137483,45.8439 l 32.528933,8.3763 5.58909,-38.0756"
         style="fill:#c8b7b7;stroke:#000000;stroke-width:1.103513;stroke-linecap:butt;stroke-linejoin:miter;stroke-opacity:1" />
      <path
         inkscape:connector-curvature="0"
         id="path6893-1-7-0-0-1"
         d="m 109.64886,1125.2129 c -1.6421,9.1866 -4.10244,17.0433 -3.65391,24.8532 0.52391,9.1223 12.42607,16.6982 13.87227,24.4721 l 2.4096,30.6356 76.9419,1.1844 -10.13634,-75.1078 -26.13831,-36.3881"
         style="fill:#c8b7b7;stroke:#000000;stroke-width:1.103513;stroke-linecap:butt;stroke-linejoin:miter;stroke-opacity:1;display:inline"
         sodipodi:nodetypes="csccccc" />
      <path
         inkscape:connector-curvature="0"
         id="path6901-6-9-9-2"
         d="m 153.95084,1117.19 c -0.80116,13.936 -1.64995,28.2958 -1.10281,42.9059"
         style="fill:none;stroke:#000000;stroke-width:1.103513;stroke-linecap:butt;stroke-linejoin:miter;stroke-opacity:1"
         sodipodi:nodetypes="cc" />
      <path
         transform="matrix(-0.83438038,0,0,0.83438038,-275.28164,373.72221)"
         d="m -503.12287,897.26843 a 3.5826087,3.5826087 0 1 1 -7.16521,0 3.5826087,3.5826087 0 1 1 7.16521,0 z"
         sodipodi:ry="3.5826087"
         sodipodi:rx="3.5826087"
         sodipodi:cy="897.26843"
         sodipodi:cx="-506.70547"
         id="path6903-7-4-4-0"
         style="fill:#c8b7b7;fill-opacity:1;stroke:#000000;stroke-width:1.32255399;stroke-linecap:round;stroke-miterlimit:4;stroke-opacity:1;stroke-dasharray:none;stroke-dashoffset:0"
         sodipodi:type="arc" />
      <path
         inkscape:connector-curvature="0"
         id="path6907-1-8-8-1"
         d="m 148.41324,1121.5406 -0.12996,2.0145"
         style="fill:none;stroke:#000000;stroke-width:1.103513;stroke-linecap:butt;stroke-linejoin:miter;stroke-opacity:1" />
      <path
         inkscape:connector-curvature="0"
         id="path6909-7-8-8-6"
         d="m 146.65868,1121.4756 -0.065,1.8195"
         style="fill:none;stroke:#000000;stroke-width:1.103513;stroke-linecap:butt;stroke-linejoin:miter;stroke-opacity:1" />
      <path
         d="m -503.12287,897.26843 a 3.5826087,3.5826087 0 1 1 -7.16521,0 3.5826087,3.5826087 0 1 1 7.16521,0 z"
         sodipodi:ry="3.5826087"
         sodipodi:rx="3.5826087"
         sodipodi:cy="897.26843"
         sodipodi:cx="-506.70547"
         id="path6903-8-7-2-2-4"
         style="fill:#c8b7b7;fill-opacity:1;stroke:#000000;stroke-width:1.32255399;stroke-linecap:round;stroke-miterlimit:4;stroke-opacity:1;stroke-dasharray:none;stroke-dashoffset:0;display:inline"
         sodipodi:type="arc"
         transform="matrix(-0.83438038,0,0,0.83438038,-276.74624,390.39931)" />
      <path
         inkscape:connector-curvature="0"
         id="path6907-9-7-4-4-0"
         d="m 146.94864,1138.2177 -0.12996,2.0145"
         style="fill:none;stroke:#000000;stroke-width:1.103513;stroke-linecap:butt;stroke-linejoin:miter;stroke-opacity:1;display:inline" />
      <path
         inkscape:connector-curvature="0"
         id="path6909-3-7-5-5-6"
         d="m 145.19408,1138.1527 -0.065,1.8195"
         style="fill:none;stroke:#000000;stroke-width:1.103513;stroke-linecap:butt;stroke-linejoin:miter;stroke-opacity:1;display:inline" />
      <path
         d="m -503.12287,897.26843 a 3.5826087,3.5826087 0 1 1 -7.16521,0 3.5826087,3.5826087 0 1 1 7.16521,0 z"
         sodipodi:ry="3.5826087"
         sodipodi:rx="3.5826087"
         sodipodi:cy="897.26843"
         sodipodi:cx="-506.70547"
         id="path6903-8-4-3-5-5-1"
         style="fill:#c8b7b7;fill-opacity:1;stroke:#000000;stroke-width:1.32255399;stroke-linecap:round;stroke-miterlimit:4;stroke-opacity:1;stroke-dasharray:none;stroke-dashoffset:0;display:inline"
         sodipodi:type="arc"
         transform="matrix(-0.83438038,0,0,0.83438038,-275.91065,406.72074)" />
      <path
         inkscape:connector-curvature="0"
         id="path6907-9-4-3-1-1-8"
         d="m 147.78423,1154.5391 -0.12997,2.0145"
         style="fill:none;stroke:#000000;stroke-width:1.103513;stroke-linecap:butt;stroke-linejoin:miter;stroke-opacity:1;display:inline" />
      <path
         inkscape:connector-curvature="0"
         id="path6909-3-6-5-7-7-9"
         d="m 146.02967,1154.4741 -0.065,1.8196"
         style="fill:none;stroke:#000000;stroke-width:1.103513;stroke-linecap:butt;stroke-linejoin:miter;stroke-opacity:1;display:inline" />
      <path
         sodipodi:nodetypes="csssccc"
         inkscape:connector-curvature="0"
         id="path4388-1-1-8"
         d="m 173.30016,1091.1196 c 13.99677,5.901 24.33283,4.8981 30.97705,18.0898 5.03044,9.9876 1.99176,18.6029 1.16775,28.3887 -0.56915,6.7592 -2.40862,20.0675 -4.25941,32.463 -1.38425,9.2709 -6.16252,16.2957 -11.15894,17.582 l -10.39584,-8.1306 c -1.10101,-11.0393 5.09213,-34.3514 6.56282,-48.521"
         style="fill:#ffccaa;stroke:#000000;stroke-width:1.103513;stroke-linecap:butt;stroke-linejoin:miter;stroke-opacity:1;display:inline" />
      <path
         sodipodi:nodetypes="cccscc"
         inkscape:connector-curvature="0"
         id="path4344-1-3-1-4"
         d="m 183.67845,1126.3278 c -0.9646,10.4631 -0.53195,15.267 -0.79792,26.2588 l 25.5828,3.3703 c 0.0885,-22.9338 2.31209,-48.4634 -2.58882,-54.495 -4.34646,-5.3493 -26.73096,-9.5462 -38.29375,-14.512 l -5.0501,22.1214"
         style="fill:#c8b7b7;stroke:#000000;stroke-width:1.103513;stroke-linecap:butt;stroke-linejoin:miter;stroke-opacity:1;display:inline" />
      <path
         inkscape:connector-curvature="0"
         id="path3874-0-4-9-2-5-1"
         d="m 131.3488,1087.3819 12.76649,23.7052 -12.10436,17.5298 -2.71854,-33.3041 z"
         style="fill:#c8b7b7;stroke:#000000;stroke-width:1.103513;stroke-linecap:butt;stroke-linejoin:miter;stroke-opacity:1;display:inline"
         sodipodi:nodetypes="ccccc" />
      <path
         sodipodi:nodetypes="ccccc"
         inkscape:connector-curvature="0"
         id="path3876-9-0-4-2-2-4"
         d="m 173.466,1084.8913 c -8.33908,17.2904 -18.31976,22.9713 -26.71264,26.2534 l 15.19028,16.5172 13.68136,-36.8042 z"
         style="fill:#c8b7b7;stroke:#000000;stroke-width:1.103513;stroke-linecap:butt;stroke-linejoin:miter;stroke-opacity:1;display:inline" />
    </g>
  </g>
  <g
     inkscape:groupmode="layer"
     id="layer5"
     inkscape:label="机"
     style="display:inline"
     sodipodi:insensitive="true">
    <rect
       style="fill:#552200;fill-opacity:1;stroke:#000000;stroke-width:2.00050187;stroke-linecap:round;stroke-miterlimit:4;stroke-opacity:1;stroke-dasharray:none;stroke-dashoffset:0;display:inline"
       id="rect6363"
       width="532.16498"
       height="91.013657"
       x="-76.27697"
       y="261.34686"
       transform="matrix(0.99949836,0.03167071,0,1,0,0)" />
  </g>
  <g
     inkscape:groupmode="layer"
     id="layer7"
     inkscape:label="女1"
     style="display:inline"
     sodipodi:insensitive="true">
    <path
       style="fill:none;stroke:#000000;stroke-width:1.5;stroke-linecap:butt;stroke-linejoin:miter;stroke-opacity:1"
       d="m -727.82022,222.16673 16.30555,22.23484"
       id="path3347"
       inkscape:connector-curvature="0" />
    <g
       style="display:inline"
       id="g6313"
       transform="translate(545.78065,32.942088)">
      <path
         style="fill:#552200;stroke:#000000;stroke-width:1.5;stroke-linecap:butt;stroke-linejoin:miter;stroke-opacity:1;display:inline"
         d="m -506.18424,69.568856 c -9.41946,18.238356 -10.53549,37.283314 -6.58636,57.872024 7.05394,-15.12134 10.19547,-27.797477 11.77818,-48.362641"
         id="path5466-1-6-8-7-6-9"
         inkscape:connector-curvature="0"
         sodipodi:nodetypes="ccc" />
      <path
         sodipodi:nodetypes="ccsc"
         inkscape:connector-curvature="0"
         id="path5825-8-9-1-8"
         d="m -500.20776,98.05639 c -22.19825,-36.265568 -6.28563,-99.3595542 37.34337,-92.7036479 22.41221,-5.0494451 52.9636,12.0198169 57.66723,48.0566469 3.81986,29.265958 -9.03651,46.273571 -20.60199,61.797361"
         style="fill:#552200;stroke:#000000;stroke-width:1.5;stroke-linecap:butt;stroke-linejoin:miter;stroke-opacity:1;display:inline" />
      <path
         style="fill:#552200;stroke:#000000;stroke-width:1.5;stroke-linecap:butt;stroke-linejoin:miter;stroke-opacity:1;display:inline"
         d="m -408.46584,65.61561 c 9.92978,18.224237 15.35225,46.91811 9.45387,69.50686 -7.98279,-18.54951 -11.05058,-36.704394 -12.20987,-57.175091"
         id="path5468-5-1-2-5-4-8"
         inkscape:connector-curvature="0"
         sodipodi:nodetypes="ccc" />
      <path
         sodipodi:nodetypes="ccssssscc"
         inkscape:connector-curvature="0"
         id="path5813-4-4-2-0"
         d="m -415.56631,73.321676 c 0,0 -5.02097,26.214171 -6.56708,30.926794 -1.57311,3.51376 -4.59635,9.50951 -6.48632,12.24075 -2.24125,3.23885 -9.43232,12.79758 -13.64564,16.02492 -5.29139,4.053 -13.81684,8.81708 -18.55105,8.8065 -7.93481,-0.0172 -14.93872,-7.86694 -18.24798,-10.77267 -4.90242,-4.30462 -10.97325,-11.81449 -13.80966,-17.66896 -2.96322,-6.11614 -9.34751,-24.191902 -11.49779,-29.776349 l 3.74542,-45.828795"
         style="fill:#ffccaa;stroke:#000000;stroke-width:1.5;stroke-linecap:butt;stroke-linejoin:miter;stroke-opacity:1;display:inline" />
      <path
         sodipodi:nodetypes="cssscccc"
         inkscape:connector-curvature="0"
         id="path4512-3-8"
         d="m -502.68369,86.179054 c 3.0446,7.314208 11.49415,21.475096 15.98416,18.593966 5.67434,-3.64103 7.14384,-13.314062 12.72209,-11.298544 5.25871,1.900157 16.19748,10.948224 25.4442,10.972304 7.49725,0.0198 17.70306,-10.186603 27.07523,-23.487038 l -9.46002,-25.770321 -72.25571,3.816321 z"
         style="fill:#d38d5f;stroke:none" />
      <path
         sodipodi:nodetypes="csc"
         inkscape:connector-curvature="0"
         id="path5815-5-3-2-7"
         d="m -479.14026,87.195585 c 2.04616,2.923725 4.92662,7.460791 5.30037,10.222719 0.53773,3.973886 2.0547,15.597506 1.79317,21.803476"
         style="fill:none;stroke:#000000;stroke-width:1.5;stroke-linecap:butt;stroke-linejoin:miter;stroke-opacity:1;display:inline" />
      <path
         inkscape:connector-curvature="0"
         id="path5823-7-3-2-7"
         d="m -473.33201,127.9235 c 1.79214,-0.65857 0.5606,-1.38937 6.08806,-1.6783 5.24496,-0.27425 7.03976,2.3444 11.00286,2.14014"
         style="fill:none;stroke:#000000;stroke-width:1.5;stroke-linecap:butt;stroke-linejoin:miter;stroke-opacity:1;display:inline"
         sodipodi:nodetypes="csc" />
      <path
         sodipodi:nodetypes="cssc"
         inkscape:connector-curvature="0"
         id="path5835-7-3-1-8"
         d="m -421.73866,76.21537 c 1.03977,-4.32407 8.63262,-9.358169 10.57798,-1.158245 1.47969,6.236927 -0.44053,13.768496 -2.34624,18.793334 -1.99387,5.257149 -3.54124,7.449021 -9.04325,8.410141"
         style="fill:#ffccaa;stroke:#000000;stroke-width:1.5;stroke-linecap:butt;stroke-linejoin:miter;stroke-opacity:1;display:inline" />
      <path
         sodipodi:nodetypes="csssc"
         inkscape:connector-curvature="0"
         id="path5837-6-8-6-3"
         d="m -419.71466,78.957057 c 0.89241,-1.931908 4.63017,-5.47279 5.46371,0.724978 0.54748,4.070592 -0.96878,8.446919 -1.47721,10.458336 -0.52684,2.084312 -2.9111,5.752594 -4.26788,5.035422 -1.48876,-0.787157 0.94899,-7.828969 -1.48929,-7.907287"
         style="fill:none;stroke:#000000;stroke-width:1.5;stroke-linecap:butt;stroke-linejoin:miter;stroke-opacity:1;display:inline" />
    </g>
    <g
       transform="matrix(1.3895171,0,0,1.3895171,-118.88849,-1381.897)"
       style="stroke-width:1.1053592;display:inline"
       id="g4549-5-3">
      <path
         sodipodi:nodetypes="ccccssc"
         inkscape:connector-curvature="0"
         id="path4497-7-7"
         d="m 113.86454,1124.796 15.80575,-15.6789 6.1896,5.1545 -7.96284,15.0064 c -7.54635,20.5885 -4.93922,51.8624 -23.79266,63.9608 -7.307846,4.6895 -11.481798,-8.8372 -10.747316,-16.6628 2.053288,-21.8768 14.065576,-32.4765 20.507466,-51.78 z"
         style="fill:#ffccaa;stroke:#000000;stroke-width:1.1053592;stroke-linecap:butt;stroke-linejoin:miter;stroke-opacity:1;display:inline" />
      <path
         sodipodi:nodetypes="cccssssccccscc"
         inkscape:connector-curvature="0"
         id="path18409-7-9-6-8-5-0-1-6-1"
         d="m 112.87652,1127.4307 c 1.88665,-9.7416 7.0612,-23.6591 9.31639,-25.4606 l 10.12263,-3.3248 c 2.96044,-0.7713 9.29085,-2.5049 11.0824,-2.6081 1.3863,-0.08 8.48089,4.0045 10.32631,5.5677 1.31185,1.1112 3.33319,6.1414 3.46239,8.8146 0.0513,1.0612 -1.67322,2.4473 -2.97467,1.5868 -2.37193,-1.5683 -3.2299,-3.4304 -4.20753,-6.1716 -1.48198,-0.8141 -6.636,-2.7682 -7.8071,-3.4036 -1.17114,0.1003 -3.21834,3.386 -4.18854,4.1371 -0.43855,2.4802 -0.79697,5.2084 -1.20434,6.8277 0.35157,3.4311 0.24688,5.9197 -1.02335,9.1204 -1.07343,2.7048 -2.90834,5.1927 -5.06423,5.0657 -1.5169,1.0046 -3.81426,2.5329 -5.53463,2.4382"
         style="fill:#ffccaa;stroke:#000000;stroke-width:1.1053592;stroke-linecap:butt;stroke-linejoin:miter;stroke-opacity:1;display:inline" />
      <path
         sodipodi:nodetypes="ccssssscccccsc"
         inkscape:connector-curvature="0"
         id="path18409-7-9-6-8-5-7-9-7-1-0"
         d="m 194.27236,1172.7922 c -5.5527,-16.6248 -20.22203,-30.1166 -30.75916,-49.8501 -1.46359,-6.6558 -3.67954,-19.1739 -5.84226,-21.6917 -1.30901,-1.524 -9.16789,-6.9593 -10.4018,-7.4509 -1.41681,-0.5645 -6.21451,0.7395 -8.52775,0.7267 -1.82477,-0.01 -3.77546,4.4519 -5.18387,5.6703 -0.75893,0.6565 -0.2386,2.4552 1.4174,2.4499 0.58537,0 3.45773,-2.9671 4.78068,-4.4508 1.62535,0.6289 5.04454,-0.09 6.41666,0 0.77981,0.48 4.9286,5.0308 6.2062,6.7775 l -10.95937,5.0614 c 0.71787,5.4259 0.11584,17.0394 6.90157,20.3062 15.25607,22.6732 16.05187,55.1612 39.60762,68.2809 5.50801,3.0678 14.24501,-8.1515 11.65503,-18.2668"
         style="fill:#ffccaa;stroke:#000000;stroke-width:1.1053592;stroke-linecap:butt;stroke-linejoin:miter;stroke-opacity:1;display:inline" />
      <path
         sodipodi:nodetypes="cssscccc"
         inkscape:connector-curvature="0"
         id="path18705-1-6-0-8-0-8-7"
         d="m 124.75098,1103.2966 c 2.56989,-3.1431 9.18393,-10.3681 10.77348,-10.7613 3.46927,-0.8581 11.61732,-1.1346 14.25192,0.4374 1.48084,0.8836 6.18644,7.6381 6.64202,10.2107 0.195,1.1011 -1.39661,2.4898 -2.67764,1.6019 -0.45454,-0.3149 -6.05701,-4.4401 -7.03463,-7.1813 -2.00558,-0.1884 -7.66261,2.5564 -8.83367,1.9209 -3.30669,3.9443 -4.70218,7.5921 -6.60408,8.5575"
         style="fill:#ffccaa;stroke:#000000;stroke-width:1.1053592;stroke-linecap:butt;stroke-linejoin:miter;stroke-opacity:1;display:inline" />
      <path
         inkscape:connector-curvature="0"
         id="path18699-8-8-0-1-9-8-9-9-3"
         d="m 153.5934,1103.4933 c -0.66745,-1.0124 -1.51274,-2.9096 -1.83586,-3.6914 -0.53077,-1.2843 -2.78641,-5.0872 -3.58415,-5.7142 -0.98349,-0.773 -8.87947,-2.9211 -11.574,-2.6861 -1.9155,0.1671 -7.42412,4.9978 -8.87562,6.7189 -0.78201,0.9273 -0.44896,2.5764 1.25337,2.582 2.42344,0.01 5.40883,-2.794 7.93061,-4.2439 1.79771,0.1455 5.84543,1.7707 8.1225,2.508 0.92686,1.6644 4.38385,7.026 4.93808,7.5778"
         style="fill:#ffccaa;stroke:#000000;stroke-width:1.1053592;stroke-linecap:butt;stroke-linejoin:miter;stroke-opacity:1;display:inline" />
      <path
         inkscape:connector-curvature="0"
         id="path18699-2-3-2-4-4-8-2-4"
         d="m 154.40208,1105.708 c -0.65918,-1.0716 -1.19439,-2.8213 -2.51196,-4.744 -2.94724,-4.3007 -8.84788,-9.0304 -10.00091,-9.4059 -1.44563,-0.4708 -10.50582,2.286 -11.76333,2.5194 -1.82175,0.3382 -3.993,5.9329 -4.55781,7.1934 -0.55679,1.2426 0.33026,2.8346 1.95265,1.5437 1.12421,-0.8944 3.30222,-2.3816 4.84501,-4.4388 1.98619,0.4208 5.67465,-0.417 6.96541,-1.4057 0.92686,1.6644 3.67196,6.2457 4.93078,8.949"
         style="fill:#ffccaa;stroke:#000000;stroke-width:1.1053592;stroke-linecap:butt;stroke-linejoin:miter;stroke-opacity:1;display:inline" />
      <path
         sodipodi:nodetypes="csscsccc"
         inkscape:connector-curvature="0"
         id="path18699-2-3-2-5-8-7-9"
         d="m 122.52232,1101.3744 c 2.48894,-2.9533 6.6432,-9.1553 8.25568,-9.3021 2.67524,-0.2435 13.54494,0.3214 15.1069,1.8017 1.2483,1.183 6.50684,6.9349 7.09755,8.7609 0.98524,3.0453 -1.06219,3.9888 -2.36591,3.1314 -1.44663,-0.9514 -7.37632,-4.7084 -8.35389,-7.4496 -1.48204,-0.814 -8.4389,0.4989 -9.60995,-0.1366 -1.17123,0.1005 -6.43799,7.2587 -7.31551,7.3914"
         style="fill:#ffccaa;stroke:#000000;stroke-width:1.1053592;stroke-linecap:butt;stroke-linejoin:miter;stroke-opacity:1;display:inline" />
      <path
         sodipodi:nodetypes="ccssssccc"
         inkscape:connector-curvature="0"
         id="path18892-5-2-9-6"
         d="m 151.33754,1107.3115 c -1.97742,-2.1988 -2.38291,-3.1235 -3.43908,-4.2573 -1.30522,-1.4011 -6.8435,-6.5082 -7.93131,-6.7925 -2.01011,-0.5254 -8.68023,-0.2139 -10.70108,0.2885 -1.74984,0.435 -6.79533,4.9169 -7.33378,5.9229 -1.13536,2.1212 -0.17627,4.5506 3.19314,3.4251 1.18371,-0.3954 3.53626,-2.1782 4.98565,-3.9991 2.10722,0.2298 5.6423,0.3919 7.75787,0.1835 0.96538,1.4051 2.27405,6.7681 3.8626,9.4832"
         style="fill:#ffccaa;stroke:#000000;stroke-width:1.1053592;stroke-linecap:butt;stroke-linejoin:miter;stroke-opacity:1;display:inline" />
      <path
         sodipodi:nodetypes="csssscccc"
         inkscape:connector-curvature="0"
         id="path18884-1-4-5-5"
         d="m 122.93422,1106.3579 c 2.84227,-1.9748 8.07132,-5.3769 9.67582,-5.2345 2.70627,0.2401 8.10667,1.7856 9.25463,3.2751 0.53335,0.692 3.98968,3.9992 4.73594,6.4086 0.7889,2.5471 -1.32562,2.4454 -2.51424,1.9878 -1.08057,-0.416 -3.95922,-3.0449 -5.16307,-4.2443 -1.39818,-0.366 -3.80541,-0.6076 -5.44452,-1.5688 -0.83419,0.9125 -2.13225,3.2799 -2.74599,5.0321 0.44755,2.0793 0.69258,5.4036 0.68413,8.5482"
         style="fill:#ffccaa;stroke:#000000;stroke-width:1.1053592;stroke-linecap:butt;stroke-linejoin:miter;stroke-opacity:1;display:inline" />
    </g>
    <path
       style="fill:#552200;stroke:#000000;stroke-width:1.5;stroke-linecap:butt;stroke-linejoin:miter;stroke-opacity:1;display:inline"
       d="m 51.283418,62.213818 c -25.00236,21.283131 -20.54124,59.549972 -4.88842,79.531722 -0.48923,-14.68954 -1.99645,-16.2602 1.21275,-31.39623 0.0963,7.14686 2.70491,19.48965 6.33467,29.98887 0.56265,-8.51399 0.99371,-15.87746 1.7317,-23.20649 1.738504,8.94859 2.352524,17.91402 9.418884,28.96266 -1.60195,-15.97704 1.44713,-30.50548 2.94748,-45.55036 4.52555,17.52859 6.747,29.03682 14.12868,42.27626 -0.8822,-7.16338 1.22097,-25.94156 0.79476,-30.33019 3.04768,11.67042 5.81167,29.55561 9.11353,38.84961 5.00976,-10.10577 9.386508,-18.63497 7.30843,-27.16405 6.977778,10.35846 7.590578,9.32695 12.701878,21.22955 2.57086,-12.63314 3.55136,-27.37546 1.19696,-37.33464 3.78407,10.93102 4.3916,20 7.87668,30.16133 4.57449,-19.38536 10.81097,-39.51791 -2.10347,-64.70693"
       id="path5821-1-7-8-8"
       inkscape:connector-curvature="0"
       sodipodi:nodetypes="ccccccccccccccc" />
  </g>
  <g
     inkscape:groupmode="layer"
     id="layer2"
     inkscape:label="枠面"
     sodipodi:insensitive="true">
    <path
       style="fill:#ffffff;stroke:none;display:inline"
       d="m 0,0 0,320 370,0 0,-320 -10,10 0,300 -350,0 0,-300 350,0 10,-10 z"
       id="path21072"
       inkscape:connector-curvature="0"
       sodipodi:nodetypes="ccccccccccc" />
  </g>
</svg>
