<?xml version="1.0" encoding="UTF-8" standalone="no"?>
<!-- Created with Inkscape (http://www.inkscape.org/) -->

<svg
   xmlns:dc="http://purl.org/dc/elements/1.1/"
   xmlns:cc="http://creativecommons.org/ns#"
   xmlns:rdf="http://www.w3.org/1999/02/22-rdf-syntax-ns#"
   xmlns:svg="http://www.w3.org/2000/svg"
   xmlns="http://www.w3.org/2000/svg"
   xmlns:sodipodi="http://sodipodi.sourceforge.net/DTD/sodipodi-0.dtd"
   xmlns:inkscape="http://www.inkscape.org/namespaces/inkscape"
   width="370"
   height="320"
   id="svg3172"
   version="1.1"
   inkscape:version="0.48.4 r9939"
   sodipodi:docname="[14]応援.svg"
   inkscape:export-filename="C:\Users\執安\Desktop\資料\臨時\新しいフォルダー (2)\[14]応援.png"
   inkscape:export-xdpi="90"
   inkscape:export-ydpi="90">
  <defs
     id="defs3174" />
  <sodipodi:namedview
     id="base"
     pagecolor="#ffffff"
     bordercolor="#666666"
     borderopacity="1.0"
     inkscape:pageopacity="0.0"
     inkscape:pageshadow="2"
     inkscape:zoom="1.0117022"
     inkscape:cx="33.150981"
     inkscape:cy="170.75131"
     inkscape:document-units="px"
     inkscape:current-layer="layer7"
     showgrid="false"
     inkscape:window-width="1100"
     inkscape:window-height="698"
     inkscape:window-x="-5"
     inkscape:window-y="-5"
     inkscape:window-maximized="0" />
  <metadata
     id="metadata3177">
    <rdf:RDF>
      <cc:Work
         rdf:about="">
        <dc:format>image/svg+xml</dc:format>
        <dc:type
           rdf:resource="http://purl.org/dc/dcmitype/StillImage" />
        <dc:title></dc:title>
      </cc:Work>
    </rdf:RDF>
  </metadata>
  <g
     inkscape:label="補助線"
     inkscape:groupmode="layer"
     id="layer1"
     transform="translate(0,-732.36218)"
     sodipodi:insensitive="true"
     style="display:none">
    <path
       style="fill:none;stroke:#0000ff;stroke-width:1px;stroke-linecap:butt;stroke-linejoin:miter;stroke-opacity:1;display:inline"
       d="M 10,1042.3622 360,742.36211"
       id="path3025"
       inkscape:connector-curvature="0"
       sodipodi:nodetypes="cc" />
    <path
       style="fill:none;stroke:#0000ff;stroke-width:1px;stroke-linecap:butt;stroke-linejoin:miter;stroke-opacity:1;display:inline"
       d="M 10,742.36211 360,1042.3622"
       id="path3027"
       inkscape:connector-curvature="0"
       sodipodi:nodetypes="cc" />
    <path
       style="fill:none;stroke:#ff0000;stroke-width:1px;stroke-linecap:butt;stroke-linejoin:miter;stroke-opacity:1;display:inline"
       d="m 10,732.36211 0,320.00009"
       id="path3006"
       inkscape:connector-curvature="0"
       sodipodi:nodetypes="cc" />
    <path
       style="fill:none;stroke:#ff0000;stroke-width:1px;stroke-linecap:butt;stroke-linejoin:miter;stroke-opacity:1;display:inline"
       d="m 360,732.36211 0,320.00009"
       id="path3010"
       inkscape:connector-curvature="0"
       sodipodi:nodetypes="cc" />
    <path
       style="fill:none;stroke:#ff0000;stroke-width:1px;stroke-linecap:butt;stroke-linejoin:miter;stroke-opacity:1;display:inline"
       d="m 0,742.36208 370,3e-5"
       id="path3016"
       inkscape:connector-curvature="0" />
    <path
       style="fill:none;stroke:#ff0000;stroke-width:1px;stroke-linecap:butt;stroke-linejoin:miter;stroke-opacity:1;display:inline"
       d="m 0,1042.3622 370,0"
       id="path3018"
       inkscape:connector-curvature="0"
       sodipodi:nodetypes="cc" />
  </g>
  <g
     inkscape:groupmode="layer"
     id="layer4"
     inkscape:label="吹き出し"
     style="display:inline"
     sodipodi:insensitive="true">
    <g
       id="g21544">
      <path
         sodipodi:nodetypes="sssssscsssss"
         inkscape:connector-curvature="0"
         id="rect13841"
         d="m 187.66013,12.013428 144.46931,0 c 14.39154,0 25.97752,11.58598 25.97752,25.97753 l 0,9.048787 c 0,14.39155 -11.58598,25.97753 -25.97752,25.97753 l -88.97282,0 c -21.29438,0 -11.64053,8.444254 -5.79702,16.939994 -18.28045,-4.314018 -21.27564,-16.939994 -39.02185,-16.939994 l -10.67762,0 c -14.39155,0 -25.97753,-11.58598 -25.97753,-25.97753 l 0,-9.048787 c 0,-14.39155 11.58598,-25.97753 25.97753,-25.97753 z"
         style="fill:#fefefe;fill-opacity:1;stroke:#000000;stroke-width:3" />
      <text
         sodipodi:linespacing="125%"
         id="text6768-1"
         y="51.211113"
         x="196.5144"
         style="font-size:28px;font-style:normal;font-variant:normal;font-weight:normal;font-stretch:normal;line-height:125%;letter-spacing:0px;word-spacing:0px;writing-mode:lr-tb;fill:#000000;fill-opacity:1;stroke:none;font-family:MS UI Gothic;-inkscape-font-specification:MS UI Gothic"
         xml:space="preserve"><tspan
           id="tspan6459"
           style="font-size:28px;font-style:normal;font-variant:normal;font-weight:normal;font-stretch:normal;fill:#000000;fill-opacity:1;font-family:MS UI Gothic;-inkscape-font-specification:MS UI Gothic"
           y="51.211113"
           x="196.5144"
           sodipodi:role="line">お疲れさま。</tspan></text>
    </g>
  </g>
  <g
     inkscape:groupmode="layer"
     id="layer3"
     inkscape:label="豚"
     style="display:inline"
     sodipodi:insensitive="true">
    <g
       style="stroke-width:2.93608117;display:inline"
       id="g4308"
       transform="matrix(1.0217701,0,0,1.0217701,-329.1886,-942.68457)">
      <path
         sodipodi:nodetypes="ccscc"
         inkscape:connector-curvature="0"
         id="path5853"
         d="m 233.99615,1030.5508 c 14.42244,-2.3335 13.70855,12.1588 8.94125,28.4177 4.0468,38.3395 -17.7213,51.9563 -44.5586,52.4591 -43.082,0.8073 -47.5679,-27.3596 -46.1014,-44.9076 -12.2388,-17.5809 -12.30163,-27.1478 4.03676,-27.8663"
         style="fill:#fffff8;fill-opacity:1;stroke:#000000;stroke-width:2.93608117;stroke-linecap:butt;stroke-linejoin:miter;stroke-opacity:1;display:inline" />
      <path
         inkscape:connector-curvature="0"
         id="path5855"
         d="m 156.7064,1044.8286 c -0.6553,-22.382 14.0842,-40.772 39.4034,-41.6394 20.5231,-0.7031 34.5103,12.032 39.9071,30.8831"
         style="fill:#fffff8;fill-opacity:1;stroke:#000000;stroke-width:2.93608117;stroke-linecap:butt;stroke-linejoin:miter;stroke-opacity:1;display:inline" />
      <path
         inkscape:connector-curvature="0"
         id="path5857"
         d="m 216.5817,1040.167 c -6.1256,7.6742 -6.592,-2.4168 -16.6614,-1.2119 -10.3266,1.2357 -8.7164,12.5903 -17.5139,4.6588 7.0503,8.0045 8.9944,11.677 19.2908,10.4007 9.3265,-1.1561 11.6636,-5.6067 14.8845,-13.8476 z"
         style="fill:#aa0000;fill-opacity:1;stroke:#000000;stroke-width:2.93608117;stroke-linecap:butt;stroke-linejoin:miter;stroke-opacity:1;display:inline" />
      <path
         inkscape:connector-curvature="0"
         id="path5859"
         d="m 209.6414,1029.0124 -3.9753,6.3599"
         style="fill:none;stroke:#000000;stroke-width:2.93608117;stroke-linecap:butt;stroke-linejoin:miter;stroke-opacity:1;display:inline" />
      <path
         inkscape:connector-curvature="0"
         id="path5861"
         d="m 189.898,1030.0727 4.5658,6.8093"
         style="fill:none;stroke:#000000;stroke-width:2.93608117;stroke-linecap:butt;stroke-linejoin:miter;stroke-opacity:1;display:inline" />
      <path
         sodipodi:nodetypes="ccc"
         inkscape:connector-curvature="0"
         id="path3910-33"
         d="m 182.57374,1017.6968 17.54391,-16.0414 13.45839,17.3542"
         style="fill:#f8fcff;fill-opacity:1;stroke:#000000;stroke-width:2.93608117;stroke-linecap:butt;stroke-linejoin:miter;stroke-opacity:1;display:inline" />
      <path
         sodipodi:nodetypes="cc"
         inkscape:connector-curvature="0"
         id="path3908-12"
         d="m 165.92783,1016.6342 63.39612,3.5417"
         style="fill:none;stroke:#000000;stroke-width:2.93608117;stroke-linecap:butt;stroke-linejoin:miter;stroke-opacity:1;display:inline" />
    </g>
    <path
       style="fill:#ffcc00;fill-opacity:1;stroke:#000000;stroke-width:3;stroke-linecap:round;stroke-miterlimit:4;stroke-opacity:1;stroke-dashoffset:0;display:inline"
       inkscape:transform-center-x="-0.61668989"
       inkscape:transform-center-y="-2.2082578"
       d="m -162.47775,126.80816 -3.10197,-5.70505 -1.9674,7.21186 -3.5409,0.0552 -2.46391,-7.66113 -3.02378,5.7774 -3.02874,-0.42792 0.45401,-8.88051 -5.80545,5.6788 -3.23152,-2.39115 c 0.65146,-4.58816 2.39663,-7.87519 3.97669,-10.43881 l -5.23193,2.82141 -1.81768,-3.56271 c 1.49185,-2.80659 4.37722,-4.84789 7.21904,-6.68421 l -4.05456,0.73669 -1.02766,-3.830913 c 1.85381,-1.777674 5.62129,-3.288868 9.21507,-3.139179 l -3.76565,0.350365 0.21148,-3.529092 c 3.14013,-1.140295 7.05051,-1.484427 10.54303,-0.192399 l -2.1188,-2.362741 1.9814,-2.389205 c 3.39502,0.686834 5.67108,3.037518 8.10963,5.146247 3.9172,-0.523044 7.78999,-0.841019 10.89578,2.378885 l -0.71284,1.938806 -3.36356,-0.263208 8.4926,4.616554 -4.65323,2.01135 6.43982,4.08821 -2.04894,3.58713 -4.68893,-1.43324 c 1.63076,1.21734 2.80712,3.201 3.29422,6.34703 l -2.17373,4.36194 -5.7164,-3.22788 1.43112,6.9885 z"
       id="path4599-6"
       inkscape:connector-curvature="0"
       sodipodi:nodetypes="cccccccccccccccccccccccccccccccccccc" />
    <g
       style="stroke-width:2.93608117;display:inline"
       id="g4299"
       transform="matrix(1.0217701,0,0,1.0217701,-315.11883,-942.67098)">
      <path
         inkscape:connector-curvature="0"
         id="path5845"
         d="m 110.8953,1057.0569 c 12.6694,-2.083 14.9221,3.3763 12.7957,24.5107 9.1253,44.4338 -19.3465,66.7858 -50.449798,68.3044 -43.0384,2.1014 -55.8968,-32.6414 -61.3373,-43.4856 14.231,-7.4277 8.9657,-18.8701 11.5391,-24.7386 1.1729,-25.8354 13.5981,-44.0573 36.5593,-49.9683 25.8032,-6.6425 48.387898,8.8802 52.298998,29.8674"
         style="fill:#fffff8;fill-opacity:1;stroke:#000000;stroke-width:2.93608117;stroke-linecap:butt;stroke-linejoin:miter;stroke-opacity:1;display:inline" />
      <path
         inkscape:connector-curvature="0"
         id="path5843"
         d="m 40.881202,1086.2192 c 13.0848,-11.9173 19.8071,-1.7657 16.8645,20.428"
         style="fill:none;stroke:#000000;stroke-width:2.93608117;stroke-linecap:butt;stroke-linejoin:miter;stroke-opacity:1;display:inline" />
      <path
         sodipodi:nodetypes="cscsc"
         inkscape:connector-curvature="0"
         id="path5847"
         d="m 98.439904,1062.946 c -3.094378,8.1528 -5.994442,0.4629 -12.171704,1.9242 -11.205974,2.6509 -9.742514,15.621 -19.893678,7.7739 7.304538,6.6789 8.658549,12.9155 19.442417,9.7809 12.281404,-3.5699 10.392943,-12.7555 12.622965,-19.479 z"
         style="fill:#aa0000;fill-opacity:1;stroke:#000000;stroke-width:2.93608117;stroke-linecap:butt;stroke-linejoin:miter;stroke-opacity:1;display:inline" />
      <path
         sodipodi:nodetypes="cc"
         inkscape:connector-curvature="0"
         id="path5849"
         d="m 89.872202,1054.0449 -0.691758,7.8354"
         style="fill:none;stroke:#000000;stroke-width:2.93608117;stroke-linecap:butt;stroke-linejoin:miter;stroke-opacity:1;display:inline" />
      <path
         sodipodi:nodetypes="cc"
         inkscape:connector-curvature="0"
         id="path5851"
         d="m 72.457702,1058.3989 5.328958,6.1635"
         style="fill:none;stroke:#000000;stroke-width:2.93608117;stroke-linecap:butt;stroke-linejoin:miter;stroke-opacity:1;display:inline" />
      <path
         sodipodi:nodetypes="ccc"
         inkscape:connector-curvature="0"
         id="path3910-13"
         d="m 63.219035,1049.2177 12.750059,-21.25 17.708407,15.5834"
         style="fill:#f8fcff;fill-opacity:1;stroke:#000000;stroke-width:2.93608117;stroke-linecap:butt;stroke-linejoin:miter;stroke-opacity:1;display:inline" />
      <path
         sodipodi:nodetypes="cc"
         inkscape:connector-curvature="0"
         id="path3908-41"
         d="m 29.927215,1054.1761 71.896155,-11.6876"
         style="fill:none;stroke:#000000;stroke-width:2.93608117;stroke-linecap:butt;stroke-linejoin:miter;stroke-opacity:1;display:inline" />
    </g>
    <path
       style="fill:#ffcc00;fill-opacity:1;stroke:#000000;stroke-width:3;stroke-linecap:round;stroke-miterlimit:4;stroke-opacity:1;stroke-dashoffset:0;display:inline"
       inkscape:transform-center-x="-0.22291933"
       inkscape:transform-center-y="-1.756104"
       d="m -61.843313,145.55652 -4.24026,-4.91829 -0.39477,7.46495 -3.4489,0.80383 -4.03112,-6.9652 -1.73109,6.28695 -3.05065,0.22346 -1.43778,-8.77507 -4.47051,6.77986 -3.66476,-1.6522 c -0.33543,-4.62208 0.67371,-8.20421 1.67475,-11.04442 l -4.51538,3.86587 -2.53124,-3.09668 c 0.86335,-3.05898 3.25072,-5.66531 5.63898,-8.06197 l -3.80645,1.57894 -1.81598,-3.52623 c 1.43508,-2.13008 4.79687,-4.40516 8.34078,-5.02026 l -3.60594,1.14019 -0.54101,-3.49374 c 2.82724,-1.77972 6.57594,-2.94454 10.26291,-2.4218 l -2.57128,-1.86013 1.43021,-2.75479 c 3.46349,-0.048 6.1859,1.76704 9.01587,3.31125 3.71746,-1.34108 7.43495,-2.47238 11.15242,0.0163 l -0.28587,2.04589 -3.34297,0.45541 9.2779,2.71239 -4.12145,2.95159 7.15978,2.63095 -1.24241,3.93984 -4.88615,-0.40727 c 1.85165,0.84418 3.42158,2.53358 4.56417,5.50499 l -1.20022,4.72344 -6.2705,-1.94341 2.87927,6.52666 z"
       id="path4599"
       inkscape:connector-curvature="0"
       sodipodi:nodetypes="cccccccccccccccccccccccccccccccccccc" />
    <path
       style="fill:#8080ff;fill-opacity:1;stroke:#000000;stroke-width:3;stroke-linecap:round;stroke-miterlimit:4;stroke-opacity:1;stroke-dashoffset:0;display:inline"
       inkscape:transform-center-x="-0.29168501"
       inkscape:transform-center-y="-2.2978153"
       d="m -248.16564,205.14932 -5.54824,-6.43542 -0.51655,9.76772 -4.51277,1.05171 -5.27459,-9.11368 -2.26506,8.22627 -3.99168,0.29243 -1.88128,-11.48194 -5.84951,8.87121 -4.79522,-2.16186 c -0.4389,-6.04785 0.88153,-10.73492 2.19135,-14.4512 l -5.90822,5.05838 -3.31204,-4.05193 c 1.12966,-4.00258 4.25345,-7.41284 7.37842,-10.54886 l -4.98062,2.06602 -2.37615,-4.61401 c 1.87776,-2.78708 6.27655,-5.76401 10.91363,-6.56886 l -4.71825,1.49199 -0.70789,-4.5715 c 3.69935,-2.32861 8.6044,-3.85279 13.42867,-3.16881 l -3.36443,-2.43386 1.87138,-3.6046 c 4.53185,-0.0623 8.09404,2.31216 11.79695,4.33271 4.86419,-1.75478 9.72839,-3.23502 14.59258,0.0215 l -0.37404,2.67704 -4.37418,0.59579 12.13982,3.54912 -5.39278,3.86198 9.36834,3.44255 -1.62566,5.15524 -6.39336,-0.53295 c 2.42283,1.10453 4.47703,3.31503 5.97205,7.20307 l -1.57045,6.18048 -8.20473,-2.54288 3.76743,8.53995 z"
       id="path4599-8-5-7"
       inkscape:connector-curvature="0"
       sodipodi:nodetypes="cccccccccccccccccccccccccccccccccccc" />
    <path
       sodipodi:nodetypes="ccsccsc"
       style="fill:#fffff8;fill-opacity:1;stroke:#000000;stroke-width:3;stroke-linecap:butt;stroke-linejoin:miter;stroke-opacity:1;display:inline"
       d="m 206.00696,147.74887 c -22.20625,20.29006 -21.12491,42.81825 -4.9424,40.84003 -2.67514,51.00293 38.48026,72.29343 83.30092,67.14667 59.01753,-6.77699 65.98397,-60.08115 70.20195,-76.2671 -21.32354,-5.92373 -17.51363,-22.86579 -22.67062,-30.03862 -9.00882,-34.49778 -31.02163,-55.063103 -63.65953,-56.863953 -32.71569,-1.805136 -61.89692,21.089623 -61.93036,60.283703"
       id="path5607"
       inkscape:connector-curvature="0" />
    <path
       style="fill:#aa0000;fill-opacity:1;stroke:#000000;stroke-width:3;stroke-linecap:butt;stroke-linejoin:miter;stroke-opacity:1;display:inline"
       d="m 226.52039,148.00604 c 7.23,7.65635 4.07488,-1.95381 15.1277,-2.30155 12.86888,-0.40504 22.63815,18.02068 30.65389,3.96546 -6.51816,10.7309 -10.90529,19.49066 -23.70273,18.06611 -12.74923,-1.41915 -17.63694,-7.84549 -22.07886,-19.73002 z"
       id="path5609"
       inkscape:connector-curvature="0" />
    <path
       style="fill:none;stroke:#000000;stroke-width:3;stroke-linecap:butt;stroke-linejoin:miter;stroke-opacity:1;display:inline"
       d="m 236.31191,127.14996 0.6034,13.09576"
       id="path5611"
       inkscape:connector-curvature="0"
       sodipodi:nodetypes="cc" />
    <path
       style="fill:none;stroke:#000000;stroke-width:3;stroke-linecap:butt;stroke-linejoin:miter;stroke-opacity:1;display:inline"
       d="m 254.32547,128.65397 -0.2863,12.7046"
       id="path5613"
       inkscape:connector-curvature="0"
       sodipodi:nodetypes="cc" />
    <path
       style="fill:#f8fcff;fill-opacity:1;stroke:#000000;stroke-width:3;stroke-linecap:butt;stroke-linejoin:miter;stroke-opacity:1;display:inline"
       d="M 231.21285,114.49176 254.8972,90.757757 272.54477,118.51797"
       id="path3910-3"
       inkscape:connector-curvature="0"
       sodipodi:nodetypes="ccc" />
    <path
       style="fill:none;stroke:#000000;stroke-width:3;stroke-linecap:butt;stroke-linejoin:miter;stroke-opacity:1;display:inline"
       d="m 223.54291,108.35114 c -4.84818,10.93351 89.27072,16.37238 86.50598,1.22754"
       id="path3908-54"
       inkscape:connector-curvature="0"
       sodipodi:nodetypes="cc" />
    <path
       style="fill:#ff5599;fill-opacity:1;stroke:#000000;stroke-width:3;stroke-linecap:round;stroke-miterlimit:4;stroke-opacity:1;stroke-dashoffset:0;display:inline"
       inkscape:transform-center-x="-0.8773825"
       inkscape:transform-center-y="-2.9297158"
       d="m 520.92316,188.62348 -3.83148,-7.58399 -2.85817,9.35441 -4.63319,-0.0685 -2.91968,-10.11705 -4.18307,7.43664 -3.94429,-0.67937 0.94481,-11.59668 -7.81723,7.19765 -4.13189,-3.25505 c 1.03337,-5.97501 3.44574,-10.20493 5.61357,-13.49544 l -6.9542,3.48332 -2.23647,-4.73131 c 2.06208,-3.61175 5.91644,-6.1675 9.70576,-8.45688 l -5.33196,0.80321 -1.19261,-5.05102 c 2.49477,-2.25167 7.4819,-4.07921 12.17618,-3.74141 l -4.93885,0.30949 0.4161,-4.60726 c 4.15192,-1.36723 9.2798,-1.66273 13.79649,0.16501 l -2.67775,-3.17372 2.68586,-3.04651 c 4.41298,1.03301 7.29697,4.19682 10.40293,7.05124 5.14387,-0.52928 10.22152,-0.79208 14.15621,3.54186 l -1.00893,2.50773 -4.3887,-0.47727 10.92474,6.3735 -6.1653,2.44663 8.26086,5.60134 -2.82154,4.61064 -6.07586,-2.05989 c 2.08473,1.65649 3.54485,4.29736 4.05754,8.43124 l -3.01535,5.61891 -7.34872,-4.44745 1.59548,9.19664 z"
       id="path4599-8"
       inkscape:connector-curvature="0"
       sodipodi:nodetypes="cccccccccccccccccccccccccccccccccccc" />
    <path
       style="fill:#ff5599;fill-opacity:1;stroke:#000000;stroke-width:3;stroke-linecap:round;stroke-miterlimit:4;stroke-opacity:1;stroke-dashoffset:0;display:inline"
       inkscape:transform-center-x="-0.25038931"
       inkscape:transform-center-y="-1.9724997"
       d="m 455.66975,147.25477 -4.76278,-5.5243 -0.44341,8.38485 -3.87389,0.90283 -4.52787,-7.82349 -1.94439,7.06176 -3.42658,0.25095 -1.61495,-9.8564 -5.0214,7.61535 -4.11635,-1.85584 c -0.37677,-5.19161 0.75673,-9.21514 1.88112,-12.40531 l -5.07179,4.34222 -2.84316,-3.47831 c 0.96973,-3.43591 3.65129,-6.36338 6.33385,-9.05544 l -4.2755,1.77359 -2.03976,-3.96079 c 1.61192,-2.39258 5.38798,-4.94803 9.36859,-5.63895 l -4.05029,1.28079 -0.60768,-3.92431 c 3.17564,-1.99899 7.38627,-3.30737 11.52756,-2.72026 l -2.88811,-2.08931 1.60645,-3.09423 c 3.89026,-0.0531 6.94815,1.98479 10.12684,3.71935 4.17557,-1.5064 8.35114,-2.77707 12.5267,0.0184 l -0.32108,2.29806 -3.75493,0.5114 10.42119,3.04671 -4.62932,3.31524 8.04205,2.95516 -1.39551,4.42539 -5.48826,-0.45745 c 2.07984,0.9481 3.84322,2.84573 5.12659,6.18334 l -1.34812,5.30544 -7.04318,-2.1828 3.23407,7.33089 z"
       id="path4599-8-5"
       inkscape:connector-curvature="0"
       sodipodi:nodetypes="cccccccccccccccccccccccccccccccccccc" />
    <path
       style="fill:#502d16;fill-opacity:1;stroke:#000000;stroke-width:3"
       d="m 280.3871,192.65716 c 0,7.88362 -21.09008,14.27456 -47.10603,14.27456 -26.01592,0 -47.106,-6.39094 -47.106,-14.27456 0,-7.88362 21.09008,-14.27454 47.106,-14.27454 26.01595,0 47.10603,6.39092 47.10603,14.27454 z"
       id="path21549"
       inkscape:connector-curvature="0" />
    <path
       style="fill:#e3dbdb;stroke:#000000;stroke-width:3;stroke-linecap:butt;stroke-linejoin:miter;stroke-opacity:1"
       d="m 247.78678,178.73555 c 11.45279,-2.9699 5.27187,9.14335 -5.37262,11.59358 l 0.32321,-2.73628 c 8.38233,-1.74331 13.008,-9.75641 4.24156,-6.64509 z"
       id="path21590"
       inkscape:connector-curvature="0"
       sodipodi:nodetypes="ccccc" />
    <path
       style="fill:#e3dbdb;fill-opacity:1;stroke:#000000;stroke-width:3;display:inline"
       d="m 221.10381,197.07786 c -12.19325,-5.16897 -14.37543,-16.87845 -14.37543,-20.74927 0,-3.87083 9.52707,-7.00875 21.27931,-7.00875 11.75224,0 21.27929,3.13792 21.27929,7.00875 0,3.87082 -2.80792,16.15028 -14.37543,20.74927 -2.13948,0.85061 -11.48562,0.98439 -13.80774,0 z"
       id="path21549-3"
       inkscape:connector-curvature="0"
       sodipodi:nodetypes="ssssss" />
    <path
       style="fill:#c8b7b7;stroke:none"
       d="m 211.27759,179.39538 -3.45952,-4.20084 9.80009,-4.53125 20.15209,-0.4296 11.3149,5.70218 -4.69505,3.70662 -16.80175,3.01979 z"
       id="path22127"
       inkscape:connector-curvature="0"
       sodipodi:nodetypes="cccccccc" />
    <path
       style="fill:#2b1100;stroke:none;display:inline"
       d="m 215.21947,180.97769 -3.80899,-2.10405 6.91702,-2.69657 18.66686,0.18196 9.13075,2.46964 -7.49076,3.09506 -11.38506,1.01037 z"
       id="path22127-1"
       inkscape:connector-curvature="0"
       sodipodi:nodetypes="cccccccc" />
    <path
       style="fill:none;stroke:#000000;stroke-width:3;display:inline"
       d="m 247.892,176.22397 c 0,3.2771 -9.79178,5.93375 -19.74144,5.93375 -9.94965,0 -19.74142,-2.65665 -19.74142,-5.93375 0,-3.27713 9.79177,-5.93377 19.74142,-5.93377 9.94966,0 19.74144,2.65664 19.74144,5.93377 z"
       id="path21549-3-3"
       inkscape:connector-curvature="0"
       sodipodi:nodetypes="sssss" />
    <path
       sodipodi:nodetypes="cc"
       style="fill:#fffff8;fill-opacity:1;stroke:#000000;stroke-width:3;stroke-linecap:butt;stroke-linejoin:miter;stroke-opacity:1;display:inline"
       d="m 283.47391,167.79698 c -22.15096,17.63978 -17.43605,32.51995 5.24313,36.749"
       id="path5605"
       inkscape:connector-curvature="0" />
    <path
       style="fill:none;stroke:#000000;stroke-width:3;stroke-linecap:butt;stroke-linejoin:miter;stroke-opacity:1"
       d="m 210.89022,179.04274 c 5.68045,-4.3543 28.10902,-4.01169 34.39122,0"
       id="path21617"
       inkscape:connector-curvature="0"
       sodipodi:nodetypes="cc" />
  </g>
  <g
     inkscape:groupmode="layer"
     id="layer6"
     inkscape:label="女2"
     sodipodi:insensitive="true">
    <g
       transform="matrix(1.3229525,0,0,1.3229525,-111.67996,-1301.4096)"
       style="stroke-width:1.13382757;display:inline"
       id="g4560">
      <path
         sodipodi:nodetypes="cccssc"
         inkscape:connector-curvature="0"
         id="path11235-1-7"
         d="m 125.44712,1136.8527 c -0.88154,12.4481 -8.91892,25.4428 -12.50018,34.6512 l -15.500586,18.3981 c -9.07102,-12.8375 5.500476,-47.1577 4.665146,-59.2623 -0.58467,-8.4723 -0.60651,-18.9587 3.7712,-24.4707 6.15696,-7.7524 18.22916,-8.8652 25.67265,-12.9776"
         style="fill:#ffccaa;stroke:#000000;stroke-width:1.13382757;stroke-linecap:butt;stroke-linejoin:miter;stroke-opacity:1;display:inline" />
      <path
         sodipodi:nodetypes="csccc"
         inkscape:connector-curvature="0"
         id="path4344-4"
         d="m 132.58901,1091.3458 c -11.56279,4.9658 -22.2368,7.0567 -26.58326,12.406 -4.90091,6.0316 -5.80474,22.6294 -10.137483,43.1429 l 32.528933,8.3763 5.58909,-38.0756"
         style="fill:#c8b7b7;stroke:#000000;stroke-width:1.13382757;stroke-linecap:butt;stroke-linejoin:miter;stroke-opacity:1" />
      <path
         inkscape:connector-curvature="0"
         id="path6893-1-7-0"
         d="m 109.64886,1125.2129 c -1.6421,9.1866 -4.10244,17.0433 -3.65391,24.8532 0.52391,9.1223 12.42607,16.6982 13.87227,24.4721 l 2.4096,30.6356 76.9419,1.1844 -10.13634,-75.1078 -26.13831,-36.3881"
         style="fill:#c8b7b7;stroke:#000000;stroke-width:1.13382757;stroke-linecap:butt;stroke-linejoin:miter;stroke-opacity:1;display:inline"
         sodipodi:nodetypes="csccccc" />
      <path
         inkscape:connector-curvature="0"
         id="path6901-6-9"
         d="m 153.95084,1117.19 c -0.80116,13.936 -1.64995,27.8482 -1.10281,42.4583"
         style="fill:none;stroke:#000000;stroke-width:1.13382757;stroke-linecap:butt;stroke-linejoin:miter;stroke-opacity:1" />
      <path
         transform="matrix(-0.83438038,0,0,0.83438038,-274.8596,373.72221)"
         d="m -503.12287,897.26843 a 3.5826087,3.5826087 0 1 1 -7.16521,0 3.5826087,3.5826087 0 1 1 7.16521,0 z"
         sodipodi:ry="3.5826087"
         sodipodi:rx="3.5826087"
         sodipodi:cy="897.26843"
         sodipodi:cx="-506.70547"
         id="path6903-7-4"
         style="fill:#c8b7b7;fill-opacity:1;stroke:#000000;stroke-width:1.35888565;stroke-linecap:round;stroke-miterlimit:4;stroke-opacity:1;stroke-dasharray:none;stroke-dashoffset:0"
         sodipodi:type="arc" />
      <path
         inkscape:connector-curvature="0"
         id="path6907-1-8"
         d="m 148.83528,1121.5406 -0.12996,2.0145"
         style="fill:none;stroke:#000000;stroke-width:1.13382757;stroke-linecap:butt;stroke-linejoin:miter;stroke-opacity:1" />
      <path
         inkscape:connector-curvature="0"
         id="path6909-7-8"
         d="m 147.08072,1121.4756 -0.065,1.8195"
         style="fill:none;stroke:#000000;stroke-width:1.13382757;stroke-linecap:butt;stroke-linejoin:miter;stroke-opacity:1" />
      <path
         d="m -503.12287,897.26843 a 3.5826087,3.5826087 0 1 1 -7.16521,0 3.5826087,3.5826087 0 1 1 7.16521,0 z"
         sodipodi:ry="3.5826087"
         sodipodi:rx="3.5826087"
         sodipodi:cy="897.26843"
         sodipodi:cx="-506.70547"
         id="path6903-8-7-2"
         style="fill:#c8b7b7;fill-opacity:1;stroke:#000000;stroke-width:1.35888565;stroke-linecap:round;stroke-miterlimit:4;stroke-opacity:1;stroke-dasharray:none;stroke-dashoffset:0;display:inline"
         sodipodi:type="arc"
         transform="matrix(-0.83438038,0,0,0.83438038,-275.91065,390.39931)" />
      <path
         inkscape:connector-curvature="0"
         id="path6907-9-7-4"
         d="m 147.78423,1138.2177 -0.12996,2.0145"
         style="fill:none;stroke:#000000;stroke-width:1.13382757;stroke-linecap:butt;stroke-linejoin:miter;stroke-opacity:1;display:inline" />
      <path
         inkscape:connector-curvature="0"
         id="path6909-3-7-5"
         d="m 146.02967,1138.1527 -0.065,1.8195"
         style="fill:none;stroke:#000000;stroke-width:1.13382757;stroke-linecap:butt;stroke-linejoin:miter;stroke-opacity:1;display:inline" />
      <path
         d="m -503.12287,897.26843 a 3.5826087,3.5826087 0 1 1 -7.16521,0 3.5826087,3.5826087 0 1 1 7.16521,0 z"
         sodipodi:ry="3.5826087"
         sodipodi:rx="3.5826087"
         sodipodi:cy="897.26843"
         sodipodi:cx="-506.70547"
         id="path6903-8-4-3-5"
         style="fill:#c8b7b7;fill-opacity:1;stroke:#000000;stroke-width:1.35888565;stroke-linecap:round;stroke-miterlimit:4;stroke-opacity:1;stroke-dasharray:none;stroke-dashoffset:0;display:inline"
         sodipodi:type="arc"
         transform="matrix(-0.83438038,0,0,0.83438038,-275.91065,406.482)" />
      <path
         inkscape:connector-curvature="0"
         id="path6907-9-4-3-1"
         d="m 147.78423,1154.3004 -0.12997,2.0145"
         style="fill:none;stroke:#000000;stroke-width:1.13382757;stroke-linecap:butt;stroke-linejoin:miter;stroke-opacity:1;display:inline" />
      <path
         inkscape:connector-curvature="0"
         id="path6909-3-6-5-7"
         d="m 146.02967,1154.2354 -0.065,1.8196"
         style="fill:none;stroke:#000000;stroke-width:1.13382757;stroke-linecap:butt;stroke-linejoin:miter;stroke-opacity:1;display:inline" />
      <path
         sodipodi:nodetypes="csssccc"
         inkscape:connector-curvature="0"
         id="path4388-1"
         d="m 173.30016,1091.1196 c 13.99677,5.901 27.2991,5.4457 34.08068,18.5673 4.7917,9.2714 3.42421,18.1254 2.6002,27.9112 -0.56915,6.7592 -5.27352,23.6486 -6.40808,37.2378 -0.7799,9.3412 -0.5299,13.5016 -3.85513,19.324 l -17.90604,-12.739 c -1.10101,-11.0393 2.91111,-36.2598 4.3818,-50.4294"
         style="fill:#ffccaa;stroke:#000000;stroke-width:1.13382757;stroke-linecap:butt;stroke-linejoin:miter;stroke-opacity:1;display:inline" />
      <path
         sodipodi:nodetypes="cccscc"
         inkscape:connector-curvature="0"
         id="path4344-1-3"
         d="m 183.67845,1126.3278 c -0.9646,10.4631 -0.53195,15.267 -0.79792,26.2588 l 28.68643,3.3703 c 0.0885,-22.9338 0.40216,-45.4247 -4.49875,-51.4563 -4.34646,-5.3493 -27.92466,-12.5849 -39.48745,-17.5507 l -5.0501,22.1214"
         style="fill:#c8b7b7;stroke:#000000;stroke-width:1.13382757;stroke-linecap:butt;stroke-linejoin:miter;stroke-opacity:1;display:inline" />
      <path
         inkscape:connector-curvature="0"
         id="path3874-0-4-9-2"
         d="m 132.18915,1092.424 14.76868,16.8264 -11.69308,17.8434 -6.53259,-27.2991 z"
         style="fill:#c8b7b7;stroke:#000000;stroke-width:1.13382757;stroke-linecap:butt;stroke-linejoin:miter;stroke-opacity:1;display:inline" />
      <path
         sodipodi:nodetypes="ccccc"
         inkscape:connector-curvature="0"
         id="path3876-9-0-4-2"
         d="m 170.57258,1090.7323 -19.89759,20.4124 14.06981,15.6769 10.82932,-29.1679 z"
         style="fill:#c8b7b7;stroke:#000000;stroke-width:1.13382757;stroke-linecap:butt;stroke-linejoin:miter;stroke-opacity:1;display:inline" />
    </g>
  </g>
  <g
     inkscape:groupmode="layer"
     id="layer5"
     inkscape:label="机"
     style="display:inline"
     sodipodi:insensitive="true">
    <rect
       style="fill:#552200;fill-opacity:1;stroke:#000000;stroke-width:3;stroke-linecap:round;stroke-miterlimit:4;stroke-opacity:1;stroke-dasharray:none;stroke-dashoffset:0;display:inline"
       id="rect6363"
       width="531.89801"
       height="91.013657"
       x="-76.238708"
       y="267.35812" />
  </g>
  <g
     inkscape:groupmode="layer"
     id="layer7"
     inkscape:label="女1"
     style="display:inline"
     sodipodi:insensitive="true">
    <g
       style="stroke-width:1.13382757;display:inline"
       id="g4433"
       transform="matrix(1.3229525,0,0,1.3229525,-111.67996,-1301.4096)">
      <path
         style="fill:#552200;stroke:#000000;stroke-width:1.13382757;stroke-linecap:butt;stroke-linejoin:miter;stroke-opacity:1;display:inline"
         d="m 113.32379,1069.6433 c -8.18567,11.6548 -9.02926,25.6954 -6.04417,41.2581 5.33197,-11.43 10.90351,-17.4596 9.61337,-34.0701"
         id="path5466-1-6-8-7"
         inkscape:connector-curvature="0"
         sodipodi:nodetypes="ccc" />
      <path
         sodipodi:nodetypes="ccsc"
         inkscape:connector-curvature="0"
         id="path5825-8-9"
         d="m 116.77568,1088.6901 c -16.779321,-27.4126 -4.75121,-75.1044 28.2273,-70.0733 16.94105,-3.8168 40.03439,9.0856 43.58979,36.3253 2.88738,22.1217 -6.83056,34.9775 -15.57273,46.7117"
         style="fill:#552200;stroke:#000000;stroke-width:1.13382757;stroke-linecap:butt;stroke-linejoin:miter;stroke-opacity:1;display:inline" />
      <path
         style="fill:#552200;stroke:#000000;stroke-width:1.13382757;stroke-linecap:butt;stroke-linejoin:miter;stroke-opacity:1;display:inline"
         d="m 186.12203,1064.1686 c 8.5714,9.8681 12.31496,29.4261 7.85646,46.5006 -6.03407,-14.0213 -9.77381,-15.3119 -10.6501,-27.9437"
         id="path5468-5-1-2-5"
         inkscape:connector-curvature="0"
         sodipodi:nodetypes="ccc" />
      <path
         sodipodi:nodetypes="ccssssscc"
         inkscape:connector-curvature="0"
         id="path5813-4-4"
         d="m 180.75489,1069.9935 c 0,0 -3.79528,19.8149 -4.96396,23.3771 -1.18909,2.656 -2.4939,7.1881 -3.9225,9.2526 -1.69413,2.4482 -8.11016,9.6735 -11.29495,12.113 -3.99968,3.0636 -10.44394,6.6647 -14.02246,6.6567 -5.9978,-0.013 -11.29195,-5.9465 -13.79337,-8.1429 -3.70567,-3.2538 -8.29452,-8.9304 -10.43852,-13.3557 -2.23985,-4.6231 -7.06564,-18.2863 -8.69101,-22.5075 l 2.83111,-34.6413"
         style="fill:#ffccaa;stroke:#000000;stroke-width:1.13382757;stroke-linecap:butt;stroke-linejoin:miter;stroke-opacity:1;display:inline" />
      <path
         sodipodi:nodetypes="cssscccc"
         inkscape:connector-curvature="0"
         id="path4512"
         d="m 114.90416,1079.7122 c 2.30137,5.5287 8.68826,16.2327 12.08219,14.0549 4.28915,-2.7522 5.39992,-10.0639 9.61644,-8.5404 3.97498,1.4363 12.24343,8.2756 19.23289,8.2938 5.66706,0.015 13.38148,-7.6999 20.46576,-17.7535 l -7.15069,-19.4794 -54.61701,2.8847 z"
         style="fill:#d38d5f;stroke:none" />
      <path
         sodipodi:nodetypes="csc"
         inkscape:connector-curvature="0"
         id="path5815-5-3"
         d="m 132.70029,1078.4712 c 1.54666,2.21 3.72396,5.6395 4.00647,7.7272 0.40646,3.0038 1.55312,13.7993 1.35543,18.4903"
         style="fill:none;stroke:#000000;stroke-width:1.13382757;stroke-linecap:butt;stroke-linejoin:miter;stroke-opacity:1;display:inline" />
      <path
         inkscape:connector-curvature="0"
         id="path5823-7-3"
         d="m 137.09066,1111.2662 c 1.35465,-0.4978 0.42375,-1.0502 4.60187,-1.2686 3.96459,-0.2073 5.32125,1.7721 8.3169,1.6177"
         style="fill:none;stroke:#000000;stroke-width:1.13382757;stroke-linecap:butt;stroke-linejoin:miter;stroke-opacity:1;display:inline"
         sodipodi:nodetypes="csc" />
      <path
         sodipodi:nodetypes="cssc"
         inkscape:connector-curvature="0"
         id="path5835-7-3"
         d="m 176.0893,1072.1808 c 0.78595,-3.2685 6.52527,-7.0737 7.99574,-0.8755 1.11847,4.7144 -0.33299,10.4074 -1.77349,14.2056 -1.50714,3.9738 -2.67677,5.6306 -6.83566,6.3571"
         style="fill:#ffccaa;stroke:#000000;stroke-width:1.13382757;stroke-linecap:butt;stroke-linejoin:miter;stroke-opacity:1;display:inline" />
      <path
         sodipodi:nodetypes="csssc"
         inkscape:connector-curvature="0"
         id="path5837-6-8"
         d="m 177.61921,1074.2532 c 0.67456,-1.4603 3.49988,-4.1368 4.12994,0.548 0.41383,3.0769 -0.73229,6.3849 -1.1166,7.9053 -0.39823,1.5755 -2.20046,4.3483 -3.22603,3.8062 -1.12533,-0.595 0.71733,-5.9178 -1.12573,-5.977"
         style="fill:none;stroke:#000000;stroke-width:1.13382757;stroke-linecap:butt;stroke-linejoin:miter;stroke-opacity:1;display:inline" />
      <path
         sodipodi:nodetypes="ccccccccccccccc"
         inkscape:connector-curvature="0"
         id="path5821-1-7"
         d="m 117.65569,1034.6204 c -14.97728,14.4069 -12.44553,42.3854 -0.6138,57.4893 -0.3698,-11.1036 -1.50909,-10.7838 0.9167,-22.2249 0.0728,5.4022 2.0446,13.2249 4.78828,21.1611 0.4253,-6.4356 0.75113,-10.4945 1.30897,-16.0344 1.3141,6.7641 1.77823,12.0339 7.11959,20.3854 -1.21089,-12.0768 1.09386,-21.5516 2.22795,-32.9238 3.4208,13.2496 5.09996,21.9485 10.67966,31.956 -0.66684,-5.4147 0.42057,-13.5807 0.0984,-16.898 2.3037,8.8215 4.8953,16.3125 7.39113,23.3377 3.7868,-7.6388 7.09512,-14.0859 5.52433,-20.5329 5.2744,7.8298 5.73761,7.0501 9.60116,16.0471 1.94328,-9.5492 2.68442,-20.6927 0.90477,-28.2207 2.86032,8.2626 3.31954,15.1177 5.95386,22.7985 3.45779,-14.6531 6.30715,-18.6605 4.57258,-34.6251"
         style="fill:#552200;stroke:#000000;stroke-width:1.13382757;stroke-linecap:butt;stroke-linejoin:miter;stroke-opacity:1;display:inline" />
    </g>
    <g
       transform="matrix(1.3229525,0,0,1.3229525,-111.67996,-1301.4096)"
       style="stroke-width:1.13382757;display:inline"
       id="g4549">
      <path
         sodipodi:nodetypes="ccccssc"
         inkscape:connector-curvature="0"
         id="path4497"
         d="m 113.86454,1124.796 15.80575,-15.6789 6.1896,5.1545 -7.96284,15.0064 c -7.54635,20.5885 -4.93922,51.8624 -23.79266,63.9608 -7.307846,4.6895 -11.991236,-8.9019 -10.747316,-16.6628 3.96641,-24.7465 14.065576,-32.4765 20.507466,-51.78 z"
         style="fill:#ffccaa;stroke:#000000;stroke-width:1.13382757;stroke-linecap:butt;stroke-linejoin:miter;stroke-opacity:1;display:inline" />
      <path
         sodipodi:nodetypes="cccssssccccscc"
         inkscape:connector-curvature="0"
         id="path18409-7-9-6-8-5-0-1"
         d="m 112.87652,1127.4307 c 1.88665,-9.7416 7.0612,-23.6591 9.31639,-25.4606 l 10.12263,-3.3248 c 2.96044,-0.7713 9.29085,-2.5049 11.0824,-2.6081 1.3863,-0.08 8.48089,4.0045 10.32631,5.5677 1.31185,1.1112 3.33319,6.1414 3.46239,8.8146 0.0513,1.0612 -1.67322,2.4473 -2.97467,1.5868 -2.37193,-1.5683 -3.2299,-3.4304 -4.20753,-6.1716 -1.48198,-0.8141 -6.636,-2.7682 -7.8071,-3.4036 -1.17114,0.1003 -3.21834,3.386 -4.18854,4.1371 -0.43855,2.4802 -0.79697,5.2084 -1.20434,6.8277 0.35157,3.4311 0.24688,5.9197 -1.02335,9.1204 -1.07343,2.7048 -2.90834,5.1927 -5.06423,5.0657 -1.5169,1.0046 -3.81426,2.5329 -5.53463,2.4382"
         style="fill:#ffccaa;stroke:#000000;stroke-width:1.13382757;stroke-linecap:butt;stroke-linejoin:miter;stroke-opacity:1;display:inline" />
      <path
         sodipodi:nodetypes="ccssssscccccsc"
         inkscape:connector-curvature="0"
         id="path18409-7-9-6-8-5-7-9-7"
         d="m 194.08627,1168.4897 c -5.5527,-16.6248 -20.03594,-25.8141 -30.57307,-45.5476 -1.46359,-6.6558 -3.67954,-19.1739 -5.84226,-21.6917 -1.30901,-1.524 -9.16789,-6.9593 -10.4018,-7.4509 -1.41681,-0.5645 -6.21451,0.7395 -8.52775,0.7267 -1.82477,-0.01 -3.77546,4.4519 -5.18387,5.6703 -0.75893,0.6565 -0.2386,2.4552 1.4174,2.4499 0.58537,0 3.45773,-2.9671 4.78068,-4.4508 1.62535,0.6289 5.04454,-0.09 6.41666,0 0.77981,0.48 4.9286,5.0308 6.2062,6.7775 l -10.95937,5.0614 c 0.71787,5.4259 0.11584,17.0394 6.90157,20.3062 15.25607,25.0406 16.22097,59.3887 43.83506,68.45 5.99043,1.9657 11.14821,-9.5163 8.55823,-19.6316"
         style="fill:#ffccaa;stroke:#000000;stroke-width:1.13382757;stroke-linecap:butt;stroke-linejoin:miter;stroke-opacity:1;display:inline" />
      <path
         sodipodi:nodetypes="cssscccc"
         inkscape:connector-curvature="0"
         id="path18705-1-6-0-8-0"
         d="m 124.75098,1103.2966 c 2.56989,-3.1431 9.18393,-10.3681 10.77348,-10.7613 3.46927,-0.8581 11.61732,-1.1346 14.25192,0.4374 1.48084,0.8836 6.18644,7.6381 6.64202,10.2107 0.195,1.1011 -1.39661,2.4898 -2.67764,1.6019 -0.45454,-0.3149 -6.05701,-4.4401 -7.03463,-7.1813 -2.00558,-0.1884 -7.66261,2.5564 -8.83367,1.9209 -3.30669,3.9443 -4.70218,7.5921 -6.60408,8.5575"
         style="fill:#ffccaa;stroke:#000000;stroke-width:1.13382757;stroke-linecap:butt;stroke-linejoin:miter;stroke-opacity:1;display:inline" />
      <path
         inkscape:connector-curvature="0"
         id="path18699-8-8-0-1-9-8-9"
         d="m 153.5934,1103.4933 c -0.66745,-1.0124 -1.51274,-2.9096 -1.83586,-3.6914 -0.53077,-1.2843 -2.78641,-5.0872 -3.58415,-5.7142 -0.98349,-0.773 -8.87947,-2.9211 -11.574,-2.6861 -1.9155,0.1671 -7.42412,4.9978 -8.87562,6.7189 -0.78201,0.9273 -0.44896,2.5764 1.25337,2.582 2.42344,0.01 5.40883,-2.794 7.93061,-4.2439 1.79771,0.1455 5.84543,1.7707 8.1225,2.508 0.92686,1.6644 4.38385,7.026 4.93808,7.5778"
         style="fill:#ffccaa;stroke:#000000;stroke-width:1.13382757;stroke-linecap:butt;stroke-linejoin:miter;stroke-opacity:1;display:inline" />
      <path
         inkscape:connector-curvature="0"
         id="path18699-2-3-2-4-4-8"
         d="m 154.40208,1105.708 c -0.65918,-1.0716 -1.19439,-2.8213 -2.51196,-4.744 -2.94724,-4.3007 -8.84788,-9.0304 -10.00091,-9.4059 -1.44563,-0.4708 -10.50582,2.286 -11.76333,2.5194 -1.82175,0.3382 -3.993,5.9329 -4.55781,7.1934 -0.55679,1.2426 0.33026,2.8346 1.95265,1.5437 1.12421,-0.8944 3.30222,-2.3816 4.84501,-4.4388 1.98619,0.4208 5.67465,-0.417 6.96541,-1.4057 0.92686,1.6644 3.67196,6.2457 4.93078,8.949"
         style="fill:#ffccaa;stroke:#000000;stroke-width:1.13382757;stroke-linecap:butt;stroke-linejoin:miter;stroke-opacity:1;display:inline" />
      <path
         sodipodi:nodetypes="csscsccc"
         inkscape:connector-curvature="0"
         id="path18699-2-3-2-5-8"
         d="m 122.52232,1101.3744 c 2.48894,-2.9533 6.6432,-9.1553 8.25568,-9.3021 2.67524,-0.2435 13.54494,0.3214 15.1069,1.8017 1.2483,1.183 6.50684,6.9349 7.09755,8.7609 0.98524,3.0453 -1.06219,3.9888 -2.36591,3.1314 -1.44663,-0.9514 -7.37632,-4.7084 -8.35389,-7.4496 -1.48204,-0.814 -8.4389,0.4989 -9.60995,-0.1366 -1.17123,0.1005 -6.43799,7.2587 -7.31551,7.3914"
         style="fill:#ffccaa;stroke:#000000;stroke-width:1.13382757;stroke-linecap:butt;stroke-linejoin:miter;stroke-opacity:1;display:inline" />
      <path
         sodipodi:nodetypes="ccssssccc"
         inkscape:connector-curvature="0"
         id="path18892-5-2"
         d="m 151.33754,1107.3115 c -1.97742,-2.1988 -2.38291,-3.1235 -3.43908,-4.2573 -1.30522,-1.4011 -6.8435,-6.5082 -7.93131,-6.7925 -2.01011,-0.5254 -9.27207,-0.2984 -11.29292,0.204 -1.74984,0.435 -6.20349,5.0014 -6.74194,6.0074 -1.13536,2.1212 -0.17627,4.5506 3.19314,3.4251 1.18371,-0.3954 3.53626,-2.1782 4.98565,-3.9991 2.10722,0.2298 5.6423,0.3919 7.75787,0.1835 0.96538,1.4051 2.27405,6.7681 3.8626,9.4832"
         style="fill:#ffccaa;stroke:#000000;stroke-width:1.13382757;stroke-linecap:butt;stroke-linejoin:miter;stroke-opacity:1;display:inline" />
      <path
         sodipodi:nodetypes="csssscccc"
         inkscape:connector-curvature="0"
         id="path18884-1-4"
         d="m 122.93422,1106.3579 c 2.84227,-1.9748 8.07132,-5.3769 9.67582,-5.2345 2.70627,0.2401 8.10667,1.7856 9.25463,3.2751 0.53335,0.692 3.87011,3.2818 4.61637,5.6912 0.7889,2.5471 -1.08648,3.1628 -2.39467,2.7052 -1.09295,-0.3823 -3.95922,-2.746 -5.16307,-3.9454 -1.39818,-0.366 -3.80541,-0.9065 -5.44452,-1.8677 -0.83419,0.9125 -2.13225,3.2799 -2.74599,5.0321 0.44755,2.0793 0.69258,5.4036 0.68413,8.5482"
         style="fill:#ffccaa;stroke:#000000;stroke-width:1.13382757;stroke-linecap:butt;stroke-linejoin:miter;stroke-opacity:1;display:inline" />
    </g>
  </g>
  <g
     inkscape:groupmode="layer"
     id="layer2"
     inkscape:label="枠面"
     sodipodi:insensitive="true">
    <path
       style="fill:#ffffff;stroke:none;display:inline"
       d="m 0,0 0,320 370,0 0,-320 -10,10 0,300 -350,0 0,-300 350,0 10,-10 z"
       id="path21072"
       inkscape:connector-curvature="0"
       sodipodi:nodetypes="ccccccccccc" />
  </g>
</svg>
