<?xml version="1.0" encoding="UTF-8" standalone="no"?>
<!-- Created with Inkscape (http://www.inkscape.org/) -->

<svg
   xmlns:dc="http://purl.org/dc/elements/1.1/"
   xmlns:cc="http://creativecommons.org/ns#"
   xmlns:rdf="http://www.w3.org/1999/02/22-rdf-syntax-ns#"
   xmlns:svg="http://www.w3.org/2000/svg"
   xmlns="http://www.w3.org/2000/svg"
   xmlns:sodipodi="http://sodipodi.sourceforge.net/DTD/sodipodi-0.dtd"
   xmlns:inkscape="http://www.inkscape.org/namespaces/inkscape"
   width="370"
   height="320"
   id="svg3172"
   version="1.1"
   inkscape:version="0.48.4 r9939"
   sodipodi:docname="[10]留意.svg"
   inkscape:export-filename="C:\Users\執安\Desktop\資料\臨時\svg\BUTAS\[22.成功].png"
   inkscape:export-xdpi="90"
   inkscape:export-ydpi="90">
  <defs
     id="defs3174" />
  <sodipodi:namedview
     id="base"
     pagecolor="#ffffff"
     bordercolor="#666666"
     borderopacity="1.0"
     inkscape:pageopacity="0.0"
     inkscape:pageshadow="2"
     inkscape:zoom="0.52612201"
     inkscape:cx="-166.03244"
     inkscape:cy="180.02464"
     inkscape:document-units="px"
     inkscape:current-layer="layer3"
     showgrid="false"
     inkscape:window-width="1100"
     inkscape:window-height="698"
     inkscape:window-x="-5"
     inkscape:window-y="-5"
     inkscape:window-maximized="0" />
  <metadata
     id="metadata3177">
    <rdf:RDF>
      <cc:Work
         rdf:about="">
        <dc:format>image/svg+xml</dc:format>
        <dc:type
           rdf:resource="http://purl.org/dc/dcmitype/StillImage" />
        <dc:title />
      </cc:Work>
    </rdf:RDF>
  </metadata>
  <g
     inkscape:label="補助線"
     inkscape:groupmode="layer"
     id="layer1"
     transform="translate(0,-732.36218)"
     sodipodi:insensitive="true"
     style="display:none">
    <path
       style="fill:none;stroke:#0000ff;stroke-width:1px;stroke-linecap:butt;stroke-linejoin:miter;stroke-opacity:1;display:inline"
       d="M 10,1042.3622 360,742.36211"
       id="path3025"
       inkscape:connector-curvature="0"
       sodipodi:nodetypes="cc" />
    <path
       style="fill:none;stroke:#0000ff;stroke-width:1px;stroke-linecap:butt;stroke-linejoin:miter;stroke-opacity:1;display:inline"
       d="M 10,742.36211 360,1042.3622"
       id="path3027"
       inkscape:connector-curvature="0"
       sodipodi:nodetypes="cc" />
    <path
       style="fill:none;stroke:#ff0000;stroke-width:1px;stroke-linecap:butt;stroke-linejoin:miter;stroke-opacity:1;display:inline"
       d="m 10,732.36211 0,320.00009"
       id="path3006"
       inkscape:connector-curvature="0"
       sodipodi:nodetypes="cc" />
    <path
       style="fill:none;stroke:#ff0000;stroke-width:1px;stroke-linecap:butt;stroke-linejoin:miter;stroke-opacity:1;display:inline"
       d="m 360,732.36211 0,320.00009"
       id="path3010"
       inkscape:connector-curvature="0"
       sodipodi:nodetypes="cc" />
    <path
       style="fill:none;stroke:#ff0000;stroke-width:1px;stroke-linecap:butt;stroke-linejoin:miter;stroke-opacity:1;display:inline"
       d="m 0,742.36208 370,3e-5"
       id="path3016"
       inkscape:connector-curvature="0" />
    <path
       style="fill:none;stroke:#ff0000;stroke-width:1px;stroke-linecap:butt;stroke-linejoin:miter;stroke-opacity:1;display:inline"
       d="m 0,1042.3622 370,0"
       id="path3018"
       inkscape:connector-curvature="0"
       sodipodi:nodetypes="cc" />
  </g>
  <g
     inkscape:groupmode="layer"
     id="layer5"
     inkscape:label="軌跡"
     sodipodi:insensitive="true"
     style="display:none">
    <path
       style="fill:none;stroke:#000000;stroke-width:0.5;display:inline"
       d="m 185.00131,104.58606 0,110.79066 M 340.1844,159.98139 c 0,30.594 -69.47784,55.39533 -155.18309,55.39533 -85.70523,0 -155.183078,-24.80133 -155.183078,-55.39533 0,-30.594 69.477848,-55.39533 155.183078,-55.39533 85.70525,0 155.18309,24.80133 155.18309,55.39533 z m 0,0 -310.366168,0"
       id="path4161"
       inkscape:connector-curvature="0"
       sodipodi:nodetypes="ccssssscc" />
    <path
       style="fill:none;stroke:#ff0000;stroke-width:0.5;display:inline"
       d="m 185.0036,114.96099 0,90.03757 M 311.11789,159.9796 c 0,24.86312 -56.4633,45.01896 -126.11429,45.01896 -69.651,0 -126.114286,-20.15584 -126.114286,-45.01896 0,-24.86313 56.463286,-45.01861 126.114286,-45.01861 69.65099,0 126.11429,20.15548 126.11429,45.01861 z m 0,0 -252.228576,0"
       id="path4161-5"
       inkscape:connector-curvature="0"
       sodipodi:nodetypes="ccssssscc" />
  </g>
  <g
     inkscape:groupmode="layer"
     id="layer3"
     inkscape:label="豚"
     style="display:inline"
     sodipodi:insensitive="true">
    <path
       style="fill:none;stroke:#000000;stroke-width:3;display:inline"
       d="m 29.818232,213.98139 c 0,-22.26598 36.800814,-41.46371 89.874758,-50.2655"
       id="path6038"
       inkscape:connector-curvature="0" />
    <path
       style="fill:none;stroke:#000000;stroke-width:3;display:inline"
       d="m 222.54368,160.2181 c 45.67754,4.05112 83.36058,15.32579 102.98242,30.23053"
       id="path6072"
       inkscape:connector-curvature="0" />
    <path
       style="fill:none;stroke:#000000;stroke-width:3;display:inline"
       d="m 58.889314,213.9796 c 0,-15.52794 22.0233,-29.21968 55.528036,-37.31216"
       id="path6032"
       inkscape:connector-curvature="0" />
    <path
       style="fill:none;stroke:#000000;stroke-width:3;display:inline"
       d="m 249.37622,175.25912 c 27.97206,5.93848 48.96175,15.62952 57.52136,27.12848"
       id="path6066"
       inkscape:connector-curvature="0" />
    <g
       id="g4049"
       transform="matrix(-1.590363,0,0,1.590363,1019.2276,-1123.0247)"
       style="stroke-width:1.88636184;display:inline">
      <path
         sodipodi:nodetypes="cccssssssssc"
         inkscape:connector-curvature="0"
         id="path4020-8-2"
         d="m 554.49084,804.22025 c -4.05396,3.39839 -9.26656,0.6597 -10.321,-3.40838 4.33542,1.43032 4.87216,-4.55817 9.86392,-4.22614 1.63123,-8.77217 -4.07964,-13.05218 -8.97665,-14.65533 -6.02203,-1.97145 -19.66846,-1.68665 -25.15137,1.44148 -3.80516,2.17092 -7.0616,6.20418 -6.79618,13.03212 l 0.98393,25.3117 c 0.28216,7.25863 4.12966,11.39591 9.70209,13.63865 5.25598,2.11538 18.02968,2.79869 23.53629,-0.0575 4.67747,-2.42613 8.48057,-6.22303 8.18728,-11.97085 l -0.96386,-18.88964 c -0.11947,-2.34143 -3.33708,-5.45247 -6.32245,-4.61003"
         style="fill:#ffeeaa;stroke:none;display:inline" />
      <path
         sodipodi:nodetypes="cssc"
         inkscape:connector-curvature="0"
         id="path4036-5-8"
         d="m 525.46803,836.38259 0.0723,2.84909 c 0.11405,4.49691 22.78323,4.23122 22.72691,-0.24867 l -0.0442,-3.51586"
         style="fill:#800033;stroke:#000000;stroke-width:1.88636184;stroke-linecap:butt;stroke-linejoin:miter;stroke-opacity:1;display:inline" />
      <path
         sodipodi:nodetypes="cc"
         inkscape:connector-curvature="0"
         id="path4024-8"
         d="m 555.38425,826.03203 c -7.6,6.89673 -29.35633,8.47783 -40.25114,1.00171"
         style="fill:none;stroke:#ffcc00;stroke-width:1.88636184;stroke-linecap:butt;stroke-linejoin:miter;stroke-opacity:1" />
      <path
         sodipodi:nodetypes="cc"
         inkscape:connector-curvature="0"
         id="path4026-2"
         d="m 554.6283,814.1929 c -8.23606,7.164 -30.91642,6.96115 -40.98151,0.82568"
         style="fill:none;stroke:#ffcc00;stroke-width:1.88636184;stroke-linecap:butt;stroke-linejoin:miter;stroke-opacity:1" />
      <path
         sodipodi:nodetypes="cc"
         inkscape:connector-curvature="0"
         id="path4028-9"
         d="m 552.25588,787.82537 c -5.34396,5.37238 -31.45441,5.48205 -36.64532,1.58007"
         style="fill:none;stroke:#ffcc00;stroke-width:1.88636184;stroke-linecap:butt;stroke-linejoin:miter;stroke-opacity:1" />
      <path
         sodipodi:nodetypes="cc"
         inkscape:connector-curvature="0"
         id="path4030-1"
         d="m 552.28648,801.56616 c -6.29722,5.58895 -30.66238,5.88331 -38.36235,1.22921"
         style="fill:none;stroke:#ffcc00;stroke-width:1.88636184;stroke-linecap:butt;stroke-linejoin:miter;stroke-opacity:1" />
      <path
         sodipodi:nodetypes="cccc"
         inkscape:connector-curvature="0"
         id="path3929"
         d="m 544.0024,801.45134 c 0.92296,0.14065 2.83761,0.36026 3.95669,-1.35762 2.98537,-0.84244 6.30929,2.64068 6.39653,4.87405 -4.08618,3.29034 -9.29878,0.55165 -10.35322,-3.51643 z"
         style="fill:#aa0000;stroke:none;display:inline" />
      <path
         sodipodi:nodetypes="cccssssssssc"
         inkscape:connector-curvature="0"
         id="path4020-8"
         d="m 554.65454,804.58176 c -4.05396,3.39839 -9.26656,0.6597 -10.321,-3.40838 4.33542,1.43032 4.87216,-4.55817 9.86392,-4.22614 1.63123,-8.77217 -4.07964,-13.05218 -8.97665,-14.65533 -6.02203,-1.97145 -19.66846,-1.68665 -25.15137,1.44148 -3.80516,2.17092 -7.0616,6.20418 -6.79618,13.03212 l 0.98393,25.3117 c 0.28216,7.25863 4.12966,11.39591 9.70209,13.63865 5.25598,2.11538 18.02968,2.79869 23.53629,-0.0575 4.67747,-2.42613 8.48057,-6.22303 8.18728,-11.97085 l -0.96386,-18.88964 c -0.11947,-2.34143 -3.33708,-5.45247 -6.32245,-4.61003"
         style="fill:none;stroke:#000000;stroke-width:1.88636184;stroke-linecap:butt;stroke-linejoin:miter;stroke-opacity:1" />
      <path
         sodipodi:nodetypes="sssss"
         inkscape:connector-curvature="0"
         id="path4036-7"
         d="m 544.66958,783.39029 -0.3073,-4.94557 c -0.19809,-3.18793 -21.19951,-2.03614 -21.1533,0.38954 l 0.0989,5.19099 c 0.0529,2.7779 21.54349,2.29064 21.3617,-0.63496 z"
         style="fill:#800033;stroke:#000000;stroke-width:1.88636184;stroke-linecap:butt;stroke-linejoin:miter;stroke-opacity:1" />
      <path
         sodipodi:nodetypes="cc"
         inkscape:connector-curvature="0"
         id="path3907"
         d="m 523.03909,779.17278 c -0.15034,3.63461 21.9499,2.99771 21.19819,-0.75171"
         style="fill:none;stroke:#000000;stroke-width:1.88636184;stroke-linecap:butt;stroke-linejoin:miter;stroke-opacity:1" />
    </g>
    <g
       transform="matrix(1.4542731,0,0,1.4542731,-651.97206,-1034.5058)"
       id="g5752"
       style="stroke-width:2.06288624;display:inline">
      <path
         inkscape:connector-curvature="0"
         id="path5142"
         d="m 463.26824,847.94747 c 1.18173,-12.01515 10.81881,-24.13226 26.14583,-23.52314 14.17958,0.56352 26.07543,9.29125 27.59565,26.72607 4.1754,5.77164 3.48975,13.30476 13.42152,15.61855 -7.63907,10.54769 -20.37739,31.26907 -46.34681,26.39719 -18.1092,-3.3973 -24.53037,-18.46456 -23.8882,-33.95624 -6.598,-13.24192 -4.01737,-16.99783 4.16475,-16.193"
         style="fill:#fffff8;fill-opacity:1;stroke:#000000;stroke-width:2.06288624;stroke-linecap:butt;stroke-linejoin:miter;stroke-opacity:1;display:inline" />
      <path
         inkscape:connector-curvature="0"
         id="path5144"
         d="m 471.34765,843.86659 c 2.85226,4.5128 3.96021,-0.0409 7.91588,0.68586 5.21739,0.95854 4.77953,7.60308 11.0951,2.76531 -3.18779,3.1745 -5.51785,8.06794 -12.05335,6.83672 -5.87955,-1.10765 -4.5078,-6.95665 -6.95763,-10.28789 z"
         style="fill:#aa0000;stroke:#000000;stroke-width:2.06288624;stroke-linecap:butt;stroke-linejoin:miter;stroke-opacity:1;display:inline" />
      <path
         inkscape:connector-curvature="0"
         id="path5146"
         d="m 487.22785,839.16463 -3.69347,4.13563"
         style="fill:none;stroke:#000000;stroke-width:2.06288624;stroke-linecap:butt;stroke-linejoin:miter;stroke-opacity:1;display:inline" />
      <path
         inkscape:connector-curvature="0"
         id="path5148"
         d="m 476.06914,837.47801 0.41803,5.10553"
         style="fill:none;stroke:#000000;stroke-width:2.06288624;stroke-linecap:butt;stroke-linejoin:miter;stroke-opacity:1;display:inline" />
      <path
         inkscape:connector-curvature="0"
         id="path5150"
         d="m 493.44468,864.67963 c -4.87852,3.5662 -2.79495,8.80494 5.13539,8.70082"
         style="fill:none;stroke:#000000;stroke-width:2.06288624;stroke-linecap:butt;stroke-linejoin:miter;stroke-opacity:1;display:inline" />
      <path
         sodipodi:nodetypes="ccc"
         inkscape:connector-curvature="0"
         id="path3910-85-86"
         d="m 475.23992,831.1966 10.51679,-9.32585 7.9175,12.4587"
         style="fill:#f8fcff;fill-opacity:1;stroke:#000000;stroke-width:2.06288624;stroke-linecap:butt;stroke-linejoin:miter;stroke-opacity:1;display:inline" />
      <path
         sodipodi:nodetypes="cc"
         inkscape:connector-curvature="0"
         id="path3908-16-50"
         d="m 471.20105,830.13904 c 4.21301,1.48152 28.33391,5.38942 39.09149,4.24806"
         style="fill:none;stroke:#000000;stroke-width:2.06288624;stroke-linecap:butt;stroke-linejoin:miter;stroke-opacity:1;display:inline" />
    </g>
    <g
       id="g5716"
       style="stroke-width:1.90468323;display:inline"
       transform="matrix(1.5750651,0,0,1.5750651,-729.47024,-1138.3465)">
      <path
         inkscape:connector-curvature="0"
         id="path5528"
         d="m 640.31257,821.99786 c 2.06038,-23.30101 27.00551,-26.50564 33.37911,-14.00731 l 3.39116,13.6881 c 11.09662,14.23852 9.55807,29.66136 2.33444,38.91996 2.41391,0.34411 5.45632,4.16414 3.36871,6.76882 -3.46744,4.3263 -13.30339,2.84282 -17.80126,1.56232 z"
         style="fill:#44aa00;stroke:#000000;stroke-width:1.90468323;stroke-linecap:butt;stroke-linejoin:miter;stroke-opacity:1" />
      <path
         sodipodi:nodetypes="cccccccccccc"
         inkscape:connector-curvature="0"
         id="path5522-1"
         d="m 642.59507,809.43696 c -1.31472,1.34162 -2.29999,4.77813 -4.03924,6.03365 1.95447,-0.90918 5.6352,-0.46392 7.20545,-2.14152 1.12222,1.57213 2.77863,2.64075 4.37627,4.01524 1.43916,-1.81366 2.63125,-3.75085 3.27831,-5.96056 2.35919,1.68803 4.59352,2.87664 6.55661,2.98028 0.86387,-2.14235 1.50909,-4.21182 1.19211,-5.96055 0,0 4.29263,1.77854 6.10957,2.08619 0.4624,-1.62379 0.32523,-3.10208 0,-4.61943 2.79446,-0.44522 5.06079,-3.17985 7.55211,-3.90268 -3.066,-0.17392 -5.86409,-0.47483 -7.85014,-0.56774 -9.96699,-4.63156 -22.34315,-0.0689 -24.38105,8.03712 z"
         style="fill:#008000;stroke:none;display:inline" />
      <path
         sodipodi:nodetypes="ccc"
         inkscape:connector-curvature="0"
         id="path5524"
         d="m 642.85205,809.16651 c 6.64004,-1.34257 17.27746,-3.95599 22.65945,-7.85637 -7.66906,-3.77486 -18.51267,-1.01756 -22.65945,7.85637 z"
         style="fill:#8dd35f;stroke:none" />
      <path
         sodipodi:nodetypes="cccccccccccc"
         inkscape:connector-curvature="0"
         id="path5522"
         d="m 642.75402,809.62007 c -1.31472,1.34162 -2.29999,4.77813 -4.03924,6.03365 1.95447,-0.90918 5.6352,-0.46392 7.20545,-2.14152 1.12222,1.57213 2.77863,2.64075 4.37627,4.01524 1.43916,-1.81366 2.63125,-3.75085 3.27831,-5.96056 2.35919,1.68803 4.59352,2.87664 6.55661,2.98028 0.86387,-2.14235 1.50909,-4.21182 1.19211,-5.96055 0,0 4.29263,1.77854 6.10957,2.08619 0.4624,-1.62379 0.32523,-3.10208 0,-4.61943 2.79446,-0.44522 5.06079,-3.17985 7.55211,-3.90268 -3.066,-0.17392 -5.86409,-0.47483 -7.85014,-0.56774 -9.96699,-4.63156 -22.34315,-0.0689 -24.38105,8.03712 z"
         style="fill:none;stroke:#000000;stroke-width:1.90468323;stroke-linecap:butt;stroke-linejoin:miter;stroke-opacity:1" />
      <path
         inkscape:connector-curvature="0"
         id="path5530"
         d="m 678.38562,813.20604 c 0.92234,0.13554 1.58821,0.59834 2.36019,1.22216 0.25223,1.61065 -0.0307,5.96693 -3.4778,7.56966 -3.45216,-0.58607 -5.58345,-2.25878 -6.8004,-4.98668 -0.51038,-3.43912 -0.031,-8.02497 3.07505,-9.31866 2.09926,-0.1642 5.09893,0.9378 6.20435,2.70034 -0.80876,2.43541 -2.13253,3.96121 -3.60784,4.94301 1.55031,0.97563 4.06393,0.0929 4.68929,-0.89782"
         style="fill:#8dd35f;stroke:#000000;stroke-width:1.90468323;stroke-linecap:butt;stroke-linejoin:miter;stroke-opacity:1" />
      <path
         inkscape:connector-curvature="0"
         id="path3751"
         d="m 675.93939,824.47274 c 4.03757,-1.08264 13.61596,-8.43585 14.27898,-4.52206 0.64269,3.79379 -1.55808,11.52192 -8.63625,18.48038"
         style="fill:#44aa00;stroke:#000000;stroke-width:1.90468323;stroke-linecap:butt;stroke-linejoin:miter;stroke-opacity:1" />
      <path
         sodipodi:nodetypes="sssssssss"
         inkscape:connector-curvature="0"
         id="path5526-6"
         d="m 643.84188,817.53855 c 5.42351,-0.48186 15.7001,-1.45348 18.95394,0.6848 7.33452,4.81992 11.83149,17.60654 11.24489,28.08385 -0.71637,12.79512 -2.87451,21.35926 -13.09923,25.83236 -3.98482,1.74327 -9.24012,1.55187 -15.62541,0.82666 -8.3222,-0.9452 -4.37022,-4.15573 -6.36728,-6.69499 -4.21916,-5.36469 -7.95657,-11.7554 -8.17265,-21.19751 -0.23447,-10.24587 5.07099,-16.98909 9.51822,-21.06884 3.80643,-3.4919 -1.99297,-5.97409 3.54752,-6.46633 z"
         style="fill:#5d6c53;stroke:none;display:inline" />
      <path
         sodipodi:nodetypes="sssssssss"
         inkscape:connector-curvature="0"
         id="path5526"
         d="m 643.94301,817.56796 c 5.42351,-0.48186 15.7001,-1.45348 18.95394,0.6848 7.33452,4.81992 11.83149,17.60654 11.24489,28.08385 -0.71637,12.79512 -2.87451,21.35926 -13.09923,25.83236 -3.98482,1.74327 -9.24012,1.55187 -15.62541,0.82666 -8.3222,-0.9452 -4.37022,-4.15573 -6.36728,-6.69499 -4.21916,-5.36469 -7.95657,-11.7554 -8.17265,-21.19751 -0.23447,-10.24587 5.07099,-16.98909 9.51822,-21.06884 3.80643,-3.4919 -1.99297,-5.97409 3.54752,-6.46633 z"
         style="fill:none;stroke:#000000;stroke-width:1.90468323;stroke-linecap:butt;stroke-linejoin:miter;stroke-opacity:1" />
      <path
         sodipodi:nodetypes="ccccccc"
         inkscape:connector-curvature="0"
         id="path5611"
         d="m 639.3471,829.42589 13.40169,0.13315 7.41228,8.3577 -6.02955,7.7109 -15.75269,-0.2206 -3.74318,-7.33428 z"
         style="fill:none;stroke:#000000;stroke-width:1.90468323;stroke-linecap:butt;stroke-linejoin:miter;stroke-opacity:1" />
      <path
         sodipodi:nodetypes="cccccc"
         inkscape:connector-curvature="0"
         id="path5613"
         d="m 638.45682,845.00757 -3.97717,5.74988 5.67188,10.22179 13.37723,0.3443 6.07687,-7.55881 -5.49696,-8.27024"
         style="fill:none;stroke:#000000;stroke-width:1.90468323;stroke-linecap:butt;stroke-linejoin:miter;stroke-opacity:1" />
      <path
         sodipodi:nodetypes="csssc"
         inkscape:connector-curvature="0"
         id="path5598"
         d="m 640.8395,823.6242 c 1.52337,-2.01654 11.02528,-2.55986 16.47558,-1.09976 4.80677,1.2877 11.04197,10.4724 10.47629,25.51234 -0.3655,9.71751 -5.1091,19.87584 -11.83763,20.25055 -3.84056,0.21388 -10.79915,-0.24146 -16.02148,-0.55692"
         style="fill:none;stroke:#000000;stroke-width:1.90468323;stroke-linecap:butt;stroke-linejoin:miter;stroke-opacity:1;display:inline" />
      <path
         inkscape:connector-curvature="0"
         id="path5633"
         d="m 640.31372,861.43909 -0.39945,5.85856"
         style="fill:none;stroke:#000000;stroke-width:1.90468323;stroke-linecap:butt;stroke-linejoin:miter;stroke-opacity:1" />
      <path
         inkscape:connector-curvature="0"
         id="path5635"
         d="m 652.56343,861.17279 5.45911,7.0569"
         style="fill:none;stroke:#000000;stroke-width:1.90468323;stroke-linecap:butt;stroke-linejoin:miter;stroke-opacity:1" />
      <path
         inkscape:connector-curvature="0"
         id="path5637"
         d="m 659.48718,853.317 6.92375,1.19834"
         style="fill:none;stroke:#000000;stroke-width:1.90468323;stroke-linecap:butt;stroke-linejoin:miter;stroke-opacity:1" />
      <path
         inkscape:connector-curvature="0"
         id="path5639"
         d="m 660.15293,837.60541 5.9917,-0.93204"
         style="fill:none;stroke:#000000;stroke-width:1.90468323;stroke-linecap:butt;stroke-linejoin:miter;stroke-opacity:1" />
      <path
         inkscape:connector-curvature="0"
         id="path5641"
         d="m 652.82973,829.35017 c 0.39945,-0.66574 3.86132,-6.65745 3.86132,-6.65745"
         style="fill:none;stroke:#000000;stroke-width:1.90468323;stroke-linecap:butt;stroke-linejoin:miter;stroke-opacity:1" />
      <path
         inkscape:connector-curvature="0"
         id="path5643"
         d="m 639.91427,829.35017 -1.19834,-3.32872"
         style="fill:none;stroke:#000000;stroke-width:1.90468323;stroke-linecap:butt;stroke-linejoin:miter;stroke-opacity:1" />
      <path
         inkscape:connector-curvature="0"
         id="path5645"
         d="m 634.45516,838.40431 -3.19557,-0.13315"
         style="fill:none;stroke:#000000;stroke-width:1.90468323;stroke-linecap:butt;stroke-linejoin:miter;stroke-opacity:1" />
      <path
         inkscape:connector-curvature="0"
         id="path5647"
         d="m 634.32201,850.38772 -2.92927,1.73094"
         style="fill:none;stroke:#000000;stroke-width:1.90468323;stroke-linecap:butt;stroke-linejoin:miter;stroke-opacity:1" />
      <path
         sodipodi:nodetypes="cc"
         inkscape:connector-curvature="0"
         id="path5696"
         d="m 642.48361,809.42535 c 6.37119,-0.21416 19.42211,-4.96644 24.29084,-8.09695"
         style="fill:none;stroke:#000000;stroke-width:1.90468323;stroke-linecap:butt;stroke-linejoin:miter;stroke-opacity:1" />
    </g>
    <g
       transform="matrix(1.4542731,0,0,1.4542731,-655.68158,-1034.5058)"
       style="stroke-width:2.06288624;display:inline"
       id="g4218">
      <path
         sodipodi:nodetypes="ccscssc"
         inkscape:connector-curvature="0"
         id="path4070"
         d="m 519.58044,796.90093 c 0.32732,10.8822 -12.21823,14.24731 -4.20071,24.37781 -3.07927,5.68763 2.11936,8.85548 6.97485,8.26568 4.2645,-0.51801 0.46139,-4.59984 7.27038,-5.92691 -10.26818,-3.97168 -3.7899,-6.90873 -4.35328,-10.49775 -0.28142,-1.79284 -3.1377,3.56105 -4.88678,1.44359 -3.02714,-3.6647 3.93021,-7.04021 -0.80446,-17.66242 z"
         style="fill:#00aad4;stroke:#000000;stroke-width:2.06288624;stroke-linecap:butt;stroke-linejoin:miter;stroke-opacity:1" />
      <path
         sodipodi:nodetypes="ccscssc"
         inkscape:connector-curvature="0"
         id="path4070-3"
         d="m 519.32519,802.4414 c -0.70119,6.22679 -7.04662,12.50134 -2.12671,18.71787 -1.88958,3.49018 1.30054,7.01271 4.28008,6.65078 2.61689,-0.31787 1.03484,-3.57438 5.21314,-4.38873 -6.30101,-2.4372 -3.7539,-4.31467 -4.09962,-6.51706 -0.17269,-1.10016 -2.82748,0.75697 -3.90079,-0.54239 -1.85759,-2.24883 1.66004,-7.25186 0.6339,-13.92047 z"
         style="fill:#80e5ff;stroke:none;display:inline" />
    </g>
    <g
       transform="matrix(1.4542731,0,0,1.4542731,-655.68158,-1034.5058)"
       style="stroke-width:2.06288624;display:inline"
       id="g4222">
      <path
         sodipodi:nodetypes="cssssssssc"
         inkscape:connector-curvature="0"
         id="path4070-2"
         d="m 543.96299,842.49839 c -6.35764,5.74058 -3.27303,8.70901 -3.70467,12.11605 -0.55451,4.37688 -3.27232,-2.93542 -3.45291,1.12137 -0.12112,2.72076 0.34485,4.95103 3.24703,6.93033 3.17136,2.16288 -4.07742,2.9357 -0.87979,5.83825 2.04596,1.85716 8.01952,4.50859 12.72879,1.35217 5.2427,-3.51395 -3.71653,-6.21283 -6.50641,-10.59345 -0.96559,-1.51615 6.72593,-2.37744 3.55971,-3.50378 -2.79823,-0.99543 -3.65626,-1.69045 -4.74593,-3.45715 -1.41854,-2.29991 -2.51088,-4.05125 -0.24582,-9.80379 z"
         style="fill:#00aad4;stroke:#000000;stroke-width:2.06288624;stroke-linecap:butt;stroke-linejoin:miter;stroke-opacity:1;display:inline" />
      <path
         sodipodi:nodetypes="csssssssc"
         inkscape:connector-curvature="0"
         id="path4070-2-1"
         d="m 541.79309,847.16775 c -1.19268,2.6957 -0.98922,4.82583 -0.0753,6.76502 1.82005,3.86166 -2.03074,3.89062 -2.15029,5.32912 -0.0797,0.95913 2.13189,1.04086 3.25574,3.98572 1.05264,2.75828 -2.06056,3.15675 -1.12866,4.65345 0.92115,1.47944 12.6256,1.26871 8.07135,-1.92824 -3.68064,-2.58371 -6.68753,-5.03115 -6.23512,-6.83592 0.52864,-2.10886 4.51295,-1.39258 1.70483,-3.72223 -1.4115,-1.17099 -4.10108,-4.16406 -3.44259,-8.24692 z"
         style="fill:#80e5ff;stroke:none;display:inline" />
    </g>
    <g
       transform="matrix(1.4542731,0,0,1.4542731,-655.68158,-1034.5058)"
       style="stroke-width:2.06288624;display:inline"
       id="g4226">
      <path
         sodipodi:nodetypes="ccscssc"
         inkscape:connector-curvature="0"
         id="path4070-6"
         d="m 621.55739,795.61563 c 0.59388,9.25878 -13.58925,19.87728 -4.27462,23.76676 -3.38201,6.83236 2.58829,6.39809 8.09212,2.90785 4.83392,-3.06541 0.43028,-4.28141 8.13825,-9.61048 -11.74551,2.84417 -4.36393,-4.25767 -6.21194,-6.15506 -0.9984,-1.02507 -2.43938,4.71895 -4.46955,3.95091 -3.51362,-1.32925 4.32108,-8.52993 -1.27426,-14.85998 z"
         style="fill:#00aad4;stroke:#000000;stroke-width:2.06288624;stroke-linecap:butt;stroke-linejoin:miter;stroke-opacity:1;display:inline" />
      <path
         sodipodi:nodetypes="ccscssc"
         inkscape:connector-curvature="0"
         id="path4070-3-8"
         d="m 621.38047,800.58829 c -0.6695,5.84271 -7.74991,15.18817 -2.03402,17.57493 -2.07537,4.19265 1.6205,5.29837 4.99789,3.1566 2.96632,-1.88107 1.1027,-3.74169 5.8326,-7.01182 -7.20771,1.7454 -4.35249,-1.44857 -4.79016,-3.15103 -0.21862,-0.85043 -3.19659,2.39191 -4.44238,1.92061 -2.15612,-0.81569 1.73784,-7.32177 0.43607,-12.48929 z"
         style="fill:#80e5ff;stroke:none;display:inline" />
    </g>
    <g
       transform="matrix(1.4542731,0,0,1.4542731,-655.68158,-1034.5058)"
       style="stroke-width:2.06288624;display:inline"
       id="g4356">
      <path
         sodipodi:nodetypes="cccc"
         inkscape:connector-curvature="0"
         id="path4189"
         d="m 586.75154,820.4544 2.02579,-3.59206 9.85607,0.11042 1.72242,3.01582"
         style="fill:#008000;stroke:#000000;stroke-width:2.06288624;stroke-linecap:butt;stroke-linejoin:miter;stroke-opacity:1" />
      <path
         inkscape:connector-curvature="0"
         id="path5518"
         d="m 566.5062,855.53724 c -6.0659,14.65603 -10.82012,28.65622 -13.70928,41.72388 24.22614,15.60006 48.81553,22.91571 77.78524,14.0073 8.76191,-25.36921 6.81232,-51.25682 3.2783,-64.07596 l -9.83491,-0.29803 z"
         style="fill:#454837;stroke:#000000;stroke-width:2.06288624;stroke-linecap:butt;stroke-linejoin:miter;stroke-opacity:1" />
      <path
         id="path5224-1"
         d="m 576.24578,862.15501 c -8.7081,-1.7213 -15.95308,-10.34051 -11.52028,-22.52129 6.4935,-17.84292 21.51648,-19.87639 29.12458,-17.89686 10.4109,-3.79765 27.119,4.47129 30.2404,19.68935 1.981,9.65768 -3.4655,14.22025 -7.9366,18.00931 -9.6021,5.06701 -31.4646,4.55508 -39.9081,2.71949 z"
         style="fill:#ff6600;stroke:none;display:inline"
         inkscape:connector-curvature="0" />
      <path
         sodipodi:nodetypes="cc"
         inkscape:connector-curvature="0"
         id="path5508"
         d="m 587.40266,821.04124 c -15.03015,-1.32039 -30.55844,31.35425 -6.00509,42.46044"
         style="fill:none;stroke:#aa4400;stroke-width:2.06288624;stroke-linecap:butt;stroke-linejoin:miter;stroke-opacity:1" />
      <path
         sodipodi:nodetypes="cc"
         inkscape:connector-curvature="0"
         id="path5510"
         d="m 591.09151,820.62087 c -12.8902,1.65333 -16.45997,45.33681 1.79181,43.3034"
         style="fill:none;stroke:#aa4400;stroke-width:2.06288624;stroke-linecap:butt;stroke-linejoin:miter;stroke-opacity:1" />
      <path
         sodipodi:nodetypes="cc"
         inkscape:connector-curvature="0"
         id="path5512"
         d="m 597.94138,820.30384 c 10.1896,1.1209 16.16687,40.52047 2.94996,42.98822"
         style="fill:none;stroke:#aa4400;stroke-width:2.06288624;stroke-linecap:butt;stroke-linejoin:miter;stroke-opacity:1" />
      <path
         sodipodi:nodetypes="cc"
         inkscape:connector-curvature="0"
         id="path5514"
         d="m 600.5806,820.30495 c 17.89414,1.3192 27.75631,32.12715 10.74391,41.40454"
         style="fill:none;stroke:#aa4400;stroke-width:2.06288624;stroke-linecap:butt;stroke-linejoin:miter;stroke-opacity:1" />
      <path
         sodipodi:nodetypes="cc"
         inkscape:connector-curvature="0"
         id="path5516"
         d="m 593.62071,821.14605 c 1.64813,1.90502 4.34555,33.55167 0.94851,42.56748"
         style="fill:none;stroke:#aa4400;stroke-width:2.06288624;stroke-linecap:butt;stroke-linejoin:miter;stroke-opacity:1" />
      <path
         sodipodi:nodetypes="cscscc"
         inkscape:connector-curvature="0"
         id="path5224"
         d="m 576.15695,862.56024 c -8.7081,-1.7213 -15.95308,-11.28716 -11.52028,-23.46794 6.4935,-17.84292 21.93722,-19.87639 29.86087,-18.21242 8.93832,-3.4821 26.38271,5.7335 29.50411,20.95156 1.981,9.65768 -3.4655,14.22025 -7.9366,18.00931 -9.6021,5.06701 -31.4646,4.55508 -39.9081,2.71949 z"
         style="fill:none;stroke:#000000;stroke-width:2.06288624;stroke-linecap:butt;stroke-linejoin:miter;stroke-opacity:1" />
      <path
         sodipodi:nodetypes="ccccccccccccccc"
         inkscape:connector-curvature="0"
         id="path5226"
         d="m 585.81877,842.72426 c 1.77884,2.86953 7.88121,1.51521 11.439,1.24226 l 0.3557,4.09137 4.44715,-0.17789 -0.17785,-4.26924 5.51447,-1.06732 0.35571,4.09136 4.09133,-0.88943 0.17796,-4.09136 c 2.71258,-0.4599 4.27679,-1.13678 5.05348,-2.95751 0.1763,5.91068 -0.50383,13.58078 -10.31743,16.07307 l 1.2e-4,-4.44714 -4.80297,1.06732 -0.17785,4.09135 c -7.16529,0.32272 -14.13727,-3.57082 -15.95882,-12.75684 z"
         style="fill:#000000;stroke:none" />
      <path
         sodipodi:nodetypes="ccccc"
         inkscape:connector-curvature="0"
         id="path5228"
         d="m 586.9018,839.43662 7.88346,-6.86224 6.13692,7.20487 -6.54406,-1.86382 z"
         style="fill:#000000;stroke:none" />
      <path
         sodipodi:nodetypes="ccccc"
         inkscape:connector-curvature="0"
         id="path5230"
         d="m 605.75214,838.46523 2.32752,-7.58318 7.19082,4.2234 -5.26085,0.86407 z"
         style="fill:#000000;stroke:none" />
      <path
         inkscape:connector-curvature="0"
         id="path5520"
         d="m 583.7918,864.7761 c 7.15267,-3.31493 18.17969,-4.33297 26.22645,-2.38422 1.09833,8.13942 1.33687,12.48252 -1.49014,25.33235"
         style="fill:#454837;stroke:#000000;stroke-width:2.06288624;stroke-linecap:butt;stroke-linejoin:miter;stroke-opacity:1" />
    </g>
    <path
       style="fill:none;stroke:#000000;stroke-width:3;display:inline"
       d="m 185.00131,269.37672 c -16.67726,0 -32.74007,-0.9391 -47.79608,-2.67723 -40.637322,-4.69135 -73.940122,-15.20371 -92.193679,-28.78316"
       id="path5984"
       inkscape:connector-curvature="0" />
    <path
       style="fill:none;stroke:#000000;stroke-width:3;display:inline"
       d="m 340.1844,213.98139 c 0,18.80344 -26.2451,35.4187 -66.37224,45.4326"
       id="path5946"
       inkscape:connector-curvature="0" />
    <path
       style="fill:none;stroke:#000000;stroke-width:3;display:inline"
       d="M 140.54843,256.1219 C 106.31846,251.51838 79.176098,241.75297 66.567965,229.48395"
       id="path5976"
       inkscape:connector-curvature="0"
       sodipodi:nodetypes="cc" />
    <path
       style="fill:none;stroke:#000000;stroke-width:3;display:inline"
       d="m 311.11789,213.9796 c 0,14.66244 -19.63665,27.68779 -50.0344,35.90766"
       id="path5918"
       inkscape:connector-curvature="0" />
  </g>
  <g
     inkscape:groupmode="layer"
     id="layer4"
     inkscape:label="字幕"
     style="display:inline"
     sodipodi:insensitive="true">
    <text
       xml:space="preserve"
       style="font-size:32.52526474px;font-style:normal;font-variant:normal;font-weight:bold;font-stretch:normal;line-height:125%;letter-spacing:0px;word-spacing:0px;writing-mode:lr-tb;fill:#000000;fill-opacity:1;stroke:none;font-family:HGHeiseiMinchotaiW3;-inkscape-font-specification:HGHeiseiMinchotaiW3 Bold"
       x="4.3454604"
       y="61.49337"
       id="text6768-1"
       sodipodi:linespacing="125%"><tspan
         sodipodi:role="line"
         x="4.3454604"
         y="61.49337"
         style="font-size:32.52526474px;font-style:normal;font-variant:normal;font-weight:bold;font-stretch:normal;fill:#000000;fill-opacity:1;font-family:HGHeiseiMinchotaiW3;-inkscape-font-specification:HGHeiseiMinchotaiW3 Bold"
         id="tspan3151-4">しばらくお待ちください</tspan></text>
  </g>
  <g
     inkscape:groupmode="layer"
     id="layer2"
     inkscape:label="枠面"
     sodipodi:insensitive="true">
    <path
       style="fill:#ffffff;stroke:none;display:inline"
       d="m 0,0 0,320 370,0 0,-320 -10,10 0,300 -350,0 0,-300 350,0 10,-10 z"
       id="path21072"
       inkscape:connector-curvature="0"
       sodipodi:nodetypes="ccccccccccc" />
  </g>
</svg>
