<?xml version="1.0" encoding="UTF-8" standalone="no"?>
<!-- Created with Inkscape (http://www.inkscape.org/) -->

<svg
   xmlns:dc="http://purl.org/dc/elements/1.1/"
   xmlns:cc="http://creativecommons.org/ns#"
   xmlns:rdf="http://www.w3.org/1999/02/22-rdf-syntax-ns#"
   xmlns:svg="http://www.w3.org/2000/svg"
   xmlns="http://www.w3.org/2000/svg"
   xmlns:sodipodi="http://sodipodi.sourceforge.net/DTD/sodipodi-0.dtd"
   xmlns:inkscape="http://www.inkscape.org/namespaces/inkscape"
   width="370"
   height="320"
   id="svg3172"
   version="1.1"
   inkscape:version="0.48.4 r9939"
   sodipodi:docname="[16]留意.svg"
   inkscape:export-filename="C:\Users\執安\Desktop\資料\臨時\ANCESTOR\org\[16]留意.png"
   inkscape:export-xdpi="90"
   inkscape:export-ydpi="90">
  <defs
     id="defs3174" />
  <sodipodi:namedview
     id="base"
     pagecolor="#ffffff"
     bordercolor="#666666"
     borderopacity="1.0"
     inkscape:pageopacity="0.0"
     inkscape:pageshadow="2"
     inkscape:zoom="1.1152344"
     inkscape:cx="257.2434"
     inkscape:cy="206.77667"
     inkscape:document-units="px"
     inkscape:current-layer="layer3"
     showgrid="false"
     inkscape:window-width="1100"
     inkscape:window-height="698"
     inkscape:window-x="-5"
     inkscape:window-y="-5"
     inkscape:window-maximized="0" />
  <metadata
     id="metadata3177">
    <rdf:RDF>
      <cc:Work
         rdf:about="">
        <dc:format>image/svg+xml</dc:format>
        <dc:type
           rdf:resource="http://purl.org/dc/dcmitype/StillImage" />
        <dc:title />
      </cc:Work>
    </rdf:RDF>
  </metadata>
  <g
     inkscape:label="補助線"
     inkscape:groupmode="layer"
     id="layer1"
     transform="translate(0,-732.36218)"
     sodipodi:insensitive="true"
     style="display:none">
    <path
       style="fill:none;stroke:#0000ff;stroke-width:1px;stroke-linecap:butt;stroke-linejoin:miter;stroke-opacity:1;display:inline"
       d="M 10,1042.3622 360,742.36211"
       id="path3025"
       inkscape:connector-curvature="0"
       sodipodi:nodetypes="cc" />
    <path
       style="fill:none;stroke:#0000ff;stroke-width:1px;stroke-linecap:butt;stroke-linejoin:miter;stroke-opacity:1;display:inline"
       d="M 10,742.36211 360,1042.3622"
       id="path3027"
       inkscape:connector-curvature="0"
       sodipodi:nodetypes="cc" />
    <path
       style="fill:none;stroke:#ff0000;stroke-width:1px;stroke-linecap:butt;stroke-linejoin:miter;stroke-opacity:1;display:inline"
       d="m 10,732.36211 0,320.00009"
       id="path3006"
       inkscape:connector-curvature="0"
       sodipodi:nodetypes="cc" />
    <path
       style="fill:none;stroke:#ff0000;stroke-width:1px;stroke-linecap:butt;stroke-linejoin:miter;stroke-opacity:1;display:inline"
       d="m 360,732.36211 0,320.00009"
       id="path3010"
       inkscape:connector-curvature="0"
       sodipodi:nodetypes="cc" />
    <path
       style="fill:none;stroke:#ff0000;stroke-width:1px;stroke-linecap:butt;stroke-linejoin:miter;stroke-opacity:1;display:inline"
       d="m 0,742.36208 370,3e-5"
       id="path3016"
       inkscape:connector-curvature="0" />
    <path
       style="fill:none;stroke:#ff0000;stroke-width:1px;stroke-linecap:butt;stroke-linejoin:miter;stroke-opacity:1;display:inline"
       d="m 0,1042.3622 370,0"
       id="path3018"
       inkscape:connector-curvature="0"
       sodipodi:nodetypes="cc" />
  </g>
  <g
     inkscape:groupmode="layer"
     id="layer5"
     inkscape:label="軌跡"
     style="display:none"
     sodipodi:insensitive="true">
    <path
       style="fill:none;stroke:#000000;stroke-width:0.5;display:inline"
       d="m 185.00131,104.58606 0,110.79066 M 340.1844,159.98139 c 0,30.594 -69.47784,55.39533 -155.18309,55.39533 -85.70523,0 -155.183078,-24.80133 -155.183078,-55.39533 0,-30.594 69.477848,-55.39533 155.183078,-55.39533 85.70525,0 155.18309,24.80133 155.18309,55.39533 z m 0,0 -310.366168,0"
       id="path4161"
       inkscape:connector-curvature="0"
       sodipodi:nodetypes="ccssssscc" />
    <path
       style="fill:none;stroke:#ff0000;stroke-width:0.5;display:inline"
       d="m 185.0036,114.96099 0,90.03757 M 311.11789,159.9796 c 0,24.86312 -56.4633,45.01896 -126.11429,45.01896 -69.651,0 -126.114286,-20.15584 -126.114286,-45.01896 0,-24.86313 56.463286,-45.01861 126.114286,-45.01861 69.65099,0 126.11429,20.15548 126.11429,45.01861 z m 0,0 -252.228576,0"
       id="path4161-5"
       inkscape:connector-curvature="0"
       sodipodi:nodetypes="ccssssscc" />
  </g>
  <g
     inkscape:groupmode="layer"
     id="layer3"
     inkscape:label="豚"
     style="display:inline"
     sodipodi:insensitive="true">
    <path
       sodipodi:type="arc"
       style="fill:#000000;fill-opacity:1;stroke:none;display:inline"
       id="path4562-4"
       sodipodi:cx="65.807838"
       sodipodi:cy="250.86853"
       sodipodi:rx="40.548264"
       sodipodi:ry="11.521911"
       d="m 106.3561,250.86853 a 40.548264,11.521911 0 1 1 -81.096525,0 40.548264,11.521911 0 1 1 81.096525,0 z"
       transform="matrix(0.71153846,0,0,0.71153846,117.80557,12.762198)" />
    <path
       sodipodi:type="arc"
       style="fill:#000000;fill-opacity:1;stroke:none"
       id="path4562"
       sodipodi:cx="65.807838"
       sodipodi:cy="250.86853"
       sodipodi:rx="40.548264"
       sodipodi:ry="11.521911"
       d="m 106.3561,250.86853 a 40.548264,11.521911 0 1 1 -81.096525,0 40.548264,11.521911 0 1 1 81.096525,0 z"
       transform="translate(2.8739551,-2.8609099)" />
    <path
       sodipodi:type="arc"
       style="fill:#000000;fill-opacity:1;stroke:none;display:inline"
       id="path4562-3"
       sodipodi:cx="65.807838"
       sodipodi:cy="250.86853"
       sodipodi:rx="40.548264"
       sodipodi:ry="11.521911"
       d="m 106.3561,250.86853 a 40.548264,11.521911 0 1 1 -81.096525,0 40.548264,11.521911 0 1 1 81.096525,0 z"
       transform="matrix(1.3224044,0,0,1,121.17357,20.676009)" />
    <path
       sodipodi:type="arc"
       style="fill:#000000;fill-opacity:1;stroke:none;display:inline"
       id="path4562-32"
       sodipodi:cx="65.807838"
       sodipodi:cy="250.86853"
       sodipodi:rx="40.548264"
       sodipodi:ry="11.521911"
       d="m 106.3561,250.86853 a 40.548264,11.521911 0 1 1 -81.096525,0 40.548264,11.521911 0 1 1 81.096525,0 z"
       transform="matrix(0.90163935,0,0,0.90163935,254.18745,-17.316165)" />
    <path
       style="fill:none;stroke:#000000;stroke-width:3;display:inline"
       d="m 29.818232,191.98139 c 0,-22.26598 36.800814,-41.46371 89.874758,-50.2655"
       id="path6038"
       inkscape:connector-curvature="0" />
    <path
       style="fill:none;stroke:#000000;stroke-width:3;display:inline"
       d="m 222.54368,138.2181 c 45.67754,4.05112 83.36058,15.32579 102.98242,30.23053"
       id="path6072"
       inkscape:connector-curvature="0" />
    <path
       style="fill:none;stroke:#000000;stroke-width:3;display:inline"
       d="m 58.889314,191.9796 c 0,-15.52794 22.0233,-29.21968 55.528036,-37.31216"
       id="path6032"
       inkscape:connector-curvature="0" />
    <path
       style="fill:none;stroke:#000000;stroke-width:3;display:inline"
       d="m 249.37622,153.25912 c 27.97206,5.93848 48.96175,15.62952 57.52136,27.12848"
       id="path6066"
       inkscape:connector-curvature="0" />
    <g
       id="g4606">
      <path
         sodipodi:nodetypes="cssc"
         inkscape:connector-curvature="0"
         id="path4036-5-8"
         d="m 183.54269,185.12722 -0.11499,4.53109 c -0.18138,7.15172 -36.2336,6.72918 -36.14403,-0.39547 l 0.0703,-5.5915"
         style="fill:#800033;stroke:#000000;stroke-width:3;stroke-linecap:butt;stroke-linejoin:miter;stroke-opacity:1;display:inline" />
      <path
         sodipodi:nodetypes="cccssssssssc"
         inkscape:connector-curvature="0"
         id="path4020-8-2"
         d="m 137.38588,133.97743 c 6.44727,5.40467 14.7372,1.04916 16.41414,-5.42056 -6.89489,2.27473 -7.7485,-7.24915 -15.68721,-6.7211 -2.59425,-13.95093 6.48811,-20.7577 14.27613,-23.307293 9.57721,-3.135321 31.27999,-2.682386 39.99981,2.292473 6.05158,3.45255 11.2305,9.8669 10.80839,20.7258 l -1.56481,40.2548 c -0.44873,11.54385 -6.56765,18.12363 -15.42984,21.6904 -8.35892,3.36422 -28.67374,4.45093 -37.43124,-0.0915 -7.43888,-3.85842 -13.48719,-9.89687 -13.02075,-19.03799 l 1.53289,-30.04139 c 0.19,-3.72372 5.30716,-8.6714 10.05499,-7.33162"
         style="fill:#ffeeaa;stroke:none;display:inline" />
      <path
         sodipodi:nodetypes="cc"
         inkscape:connector-curvature="0"
         id="path4024-8"
         d="m 135.96504,168.66608 c 12.08676,10.9683 46.68722,13.48282 64.01392,1.59308"
         style="fill:none;stroke:#ffcc00;stroke-width:3;stroke-linecap:butt;stroke-linejoin:miter;stroke-opacity:1" />
      <path
         sodipodi:nodetypes="cc"
         inkscape:connector-curvature="0"
         id="path4026-2"
         d="m 137.16727,149.83756 c 13.09833,11.39336 49.16833,11.07076 65.17548,1.31313"
         style="fill:none;stroke:#ffcc00;stroke-width:3;stroke-linecap:butt;stroke-linejoin:miter;stroke-opacity:1" />
      <path
         sodipodi:nodetypes="cc"
         inkscape:connector-curvature="0"
         id="path4028-9"
         d="m 140.94028,107.90362 c 8.49884,8.54403 50.02393,8.71845 58.27936,2.51288"
         style="fill:none;stroke:#ffcc00;stroke-width:3;stroke-linecap:butt;stroke-linejoin:miter;stroke-opacity:1" />
      <path
         sodipodi:nodetypes="cc"
         inkscape:connector-curvature="0"
         id="path4030-1"
         d="m 140.89162,129.75646 c 10.01486,8.88846 48.76431,9.3566 61.01006,1.95489"
         style="fill:none;stroke:#ffcc00;stroke-width:3;stroke-linecap:butt;stroke-linejoin:miter;stroke-opacity:1" />
      <path
         sodipodi:nodetypes="cccc"
         inkscape:connector-curvature="0"
         id="path3929"
         d="m 154.06631,129.57386 c -1.46784,0.22368 -4.51283,0.57294 -6.29257,-2.15911 -4.74782,-1.33979 -10.03406,4.19964 -10.17281,7.75151 6.49851,5.23283 14.78844,0.87732 16.46538,-5.5924 z"
         style="fill:#aa0000;stroke:none;display:inline" />
      <path
         sodipodi:nodetypes="cccssssssssc"
         inkscape:connector-curvature="0"
         id="path4020-8"
         d="m 137.12554,134.55236 c 6.44727,5.40468 14.7372,1.04916 16.41414,-5.42056 -6.89489,2.27473 -7.7485,-7.24914 -15.68722,-6.7211 -2.59424,-13.95093 6.48811,-20.7577 14.27614,-23.307291 9.57721,-3.135321 31.27999,-2.682386 39.99981,2.292481 6.05158,3.45255 11.2305,9.86689 10.80839,20.7258 l -1.56481,40.25479 c -0.44873,11.54385 -6.56766,18.12363 -15.42984,21.6904 -8.35892,3.36422 -28.67374,4.45094 -37.43125,-0.0914 -7.43887,-3.85843 -13.48718,-9.89688 -13.02074,-19.038 l 1.53288,-30.04139 c 0.19,-3.72372 5.30717,-8.6714 10.05499,-7.33162"
         style="fill:none;stroke:#000000;stroke-width:3;stroke-linecap:butt;stroke-linejoin:miter;stroke-opacity:1" />
      <path
         sodipodi:nodetypes="sssss"
         inkscape:connector-curvature="0"
         id="path4036-7"
         d="m 153.00525,100.85023 0.48872,-7.86525 c 0.31504,-5.069966 33.71492,-3.238201 33.64143,0.61951 l -0.15729,8.25556 c -0.0841,4.41787 -34.26197,3.64295 -33.97286,-1.00982 z"
         style="fill:#800033;stroke:#000000;stroke-width:3;stroke-linecap:butt;stroke-linejoin:miter;stroke-opacity:1" />
      <path
         sodipodi:nodetypes="cc"
         inkscape:connector-curvature="0"
         id="path3907"
         d="m 187.40558,94.14286 c 0.2391,5.780349 -34.90831,4.767447 -33.71281,-1.195492"
         style="fill:none;stroke:#000000;stroke-width:3;stroke-linecap:butt;stroke-linejoin:miter;stroke-opacity:1" />
    </g>
    <g
       transform="matrix(1.4542731,0,0,1.4542731,-651.97206,-1056.5058)"
       id="g5752"
       style="stroke-width:2.06288624;display:inline">
      <path
         inkscape:connector-curvature="0"
         id="path5142"
         d="m 463.26824,847.94747 c 1.18173,-12.01515 10.81881,-24.13226 26.14583,-23.52314 14.17958,0.56352 26.07543,9.29125 27.59565,26.72607 4.1754,5.77164 3.48975,13.30476 13.42152,15.61855 -7.63907,10.54769 -20.37739,31.26907 -46.34681,26.39719 -18.1092,-3.3973 -24.53037,-18.46456 -23.8882,-33.95624 -6.598,-13.24192 -4.01737,-16.99783 4.16475,-16.193"
         style="fill:#fffff8;fill-opacity:1;stroke:#000000;stroke-width:2.06288624;stroke-linecap:butt;stroke-linejoin:miter;stroke-opacity:1;display:inline" />
      <path
         inkscape:connector-curvature="0"
         id="path5144"
         d="m 471.34765,843.86659 c 2.85226,4.5128 3.96021,-0.0409 7.91588,0.68586 5.21739,0.95854 4.77953,7.60308 11.0951,2.76531 -3.18779,3.1745 -5.51785,8.06794 -12.05335,6.83672 -5.87955,-1.10765 -4.5078,-6.95665 -6.95763,-10.28789 z"
         style="fill:#aa0000;stroke:#000000;stroke-width:2.06288624;stroke-linecap:butt;stroke-linejoin:miter;stroke-opacity:1;display:inline" />
      <path
         inkscape:connector-curvature="0"
         id="path5146"
         d="m 487.22785,839.16463 -3.69347,4.13563"
         style="fill:none;stroke:#000000;stroke-width:2.06288624;stroke-linecap:butt;stroke-linejoin:miter;stroke-opacity:1;display:inline" />
      <path
         inkscape:connector-curvature="0"
         id="path5148"
         d="m 476.06914,837.47801 0.41803,5.10553"
         style="fill:none;stroke:#000000;stroke-width:2.06288624;stroke-linecap:butt;stroke-linejoin:miter;stroke-opacity:1;display:inline" />
      <path
         inkscape:connector-curvature="0"
         id="path5150"
         d="m 495.34277,859.11306 c -9.92977,7.47458 -7.30896,12.84556 3.2373,14.26739"
         style="fill:none;stroke:#000000;stroke-width:2.06288624;stroke-linecap:butt;stroke-linejoin:miter;stroke-opacity:1;display:inline"
         sodipodi:nodetypes="cc" />
      <path
         sodipodi:nodetypes="ccc"
         inkscape:connector-curvature="0"
         id="path3910-85-86"
         d="m 475.23992,831.1966 10.51679,-9.32585 7.9175,12.4587"
         style="fill:#f8fcff;fill-opacity:1;stroke:#000000;stroke-width:2.06288624;stroke-linecap:butt;stroke-linejoin:miter;stroke-opacity:1;display:inline" />
      <path
         sodipodi:nodetypes="cc"
         inkscape:connector-curvature="0"
         id="path3908-16-50"
         d="m 471.20105,830.13904 c 4.21301,1.48152 28.33391,5.38942 39.09149,4.24806"
         style="fill:none;stroke:#000000;stroke-width:2.06288624;stroke-linecap:butt;stroke-linejoin:miter;stroke-opacity:1;display:inline" />
    </g>
    <g
       id="g6981">
      <path
         sodipodi:nodetypes="cccc"
         style="fill:#550000;stroke:none;display:inline"
         d="m 335.37079,123.90991 c 2.44184,1.53668 6.40095,0.14632 7.32085,-1.42188 -1.28101,-0.99032 -2.3298,-1.71926 -3.78254,-1.93274 -0.55035,1.29795 -1.95218,2.35261 -3.53831,3.35462 z"
         id="path5530-5"
         inkscape:connector-curvature="0" />
      <path
         inkscape:connector-curvature="0"
         id="path5528"
         d="m 279.06374,134.35364 c 3.24523,-36.700606 44.12055,-41.748107 52.57427,-22.06242 l 5.3413,21.55965 c 17.4779,22.42659 15.05458,46.71857 3.6769,61.30147 3.80206,0.54199 8.59406,6.55879 5.30593,10.66133 -5.46144,6.8142 -20.9537,4.47762 -28.03814,2.46075 z"
         style="fill:#44aa00;stroke:#000000;stroke-width:3;stroke-linecap:butt;stroke-linejoin:miter;stroke-opacity:1"
         sodipodi:nodetypes="ccccscc" />
      <path
         sodipodi:nodetypes="cccccccccccc"
         inkscape:connector-curvature="0"
         id="path5522-1"
         d="m 282.65883,114.56941 c -2.07077,2.11314 -3.62264,7.52586 -6.36207,9.50339 3.07842,-1.43202 8.87581,-0.73071 11.34906,-3.37304 1.76756,2.47621 4.37652,4.15936 6.89291,6.32427 2.26677,-2.85663 4.14439,-5.90783 5.16355,-9.38827 3.71587,2.65876 7.23509,4.53089 10.32708,4.69413 1.36066,-3.37434 2.37692,-6.63389 1.87766,-9.38825 0,0 6.76117,2.80132 9.62297,3.28588 0.72831,-2.55757 0.51225,-4.88597 0,-7.2759 4.40145,-0.70125 7.97107,-5.00847 11.89506,-6.14697 -4.82915,-0.27394 -9.23632,-0.74789 -12.36448,-0.89423 -15.69866,-7.295009 -35.19192,-0.10852 -38.40174,12.65899 z"
         style="fill:#008000;stroke:none;display:inline" />
      <path
         sodipodi:nodetypes="ccc"
         inkscape:connector-curvature="0"
         id="path5524"
         d="m 282.50316,114.47967 c 7.54431,4.38625 35.50736,-3.87716 38.26805,-12.59845 -12.07926,-5.945653 -31.7366,-1.37856 -38.26805,12.59845 z"
         style="fill:#8dd35f;stroke:none" />
      <path
         sodipodi:nodetypes="cccccccccccc"
         inkscape:connector-curvature="0"
         id="path5522"
         d="m 282.90918,114.85782 c -2.07076,2.11314 -3.62263,7.52586 -6.36206,9.50339 3.07842,-1.43202 8.87581,-0.73071 11.34905,-3.37304 1.71487,2.45512 1.97732,3.98427 5.77206,6.66051 3.16346,-1.95994 5.82567,-4.33864 6.84483,-7.81908 3.71588,2.65876 6.67467,4.19464 9.76666,4.35788 1.36065,-3.37434 2.93734,-6.52181 2.43808,-9.27617 0,0 6.20074,1.12006 9.06254,1.60462 0.72831,-2.55757 0.51226,-4.88597 0,-7.2759 4.40146,-0.70125 7.97108,-5.00847 11.89507,-6.14697 -4.82915,-0.27394 -9.23633,-0.74789 -12.36448,-0.89423 -15.69866,-7.295009 -35.19192,-0.10852 -38.40175,12.65899 z"
         style="fill:none;stroke:#000000;stroke-width:3;stroke-linecap:butt;stroke-linejoin:miter;stroke-opacity:1" />
      <path
         inkscape:connector-curvature="0"
         id="path5530"
         d="m 339.03127,120.50595 c 1.45275,0.21349 2.50154,0.94243 3.71746,1.92498 0.39728,2.53688 -0.0484,9.39831 -5.47776,11.92271 -5.43738,-0.9231 -8.7943,-3.55772 -10.71108,-7.85434 -0.80388,-5.41684 -0.0488,-12.63985 4.84341,-14.6775 3.30647,-0.25863 8.03114,1.4771 9.77225,4.25321 -1.27385,3.83593 -3.35887,6.23916 -5.68258,7.78556 2.44184,1.53668 6.40095,0.14633 7.38594,-1.41412"
         style="fill:#8dd35f;stroke:#000000;stroke-width:3;stroke-linecap:butt;stroke-linejoin:miter;stroke-opacity:1" />
      <path
         inkscape:connector-curvature="0"
         id="path3751"
         d="m 335.1783,138.25174 c 6.35944,-1.70523 21.44603,-13.28701 22.49033,-7.12254 1.01227,5.97547 -2.45408,18.14777 -13.60266,29.1078"
         style="fill:#44aa00;stroke:#000000;stroke-width:3;stroke-linecap:butt;stroke-linejoin:miter;stroke-opacity:1" />
      <path
         sodipodi:nodetypes="sssssssss"
         inkscape:connector-curvature="0"
         id="path5526-6"
         d="m 284.62264,127.32994 c 8.54238,-0.75896 24.72867,-2.28933 29.85368,1.0786 11.55235,7.59169 18.63537,27.73145 17.71144,44.23389 -1.12833,20.15315 -4.52754,33.64223 -20.63214,40.68765 -6.27635,2.74577 -14.55379,2.4443 -24.61104,1.30205 -13.10801,-1.48875 -6.88338,-6.54555 -10.02888,-10.54505 -6.64545,-8.44973 -12.53212,-18.51552 -12.87246,-33.38746 -0.3693,-16.13791 7.98714,-26.75892 14.99182,-33.18479 5.99538,-5.49997 -3.13906,-9.40958 5.58758,-10.18489 z"
         style="fill:#5d6c53;stroke:none;display:inline" />
      <path
         sodipodi:nodetypes="sssssssss"
         inkscape:connector-curvature="0"
         id="path5526"
         d="m 284.78192,127.37626 c 8.54238,-0.75896 24.72868,-2.28932 29.85369,1.07861 11.55235,7.59168 18.63537,27.73144 17.71143,44.23389 -1.12832,20.15314 -4.52754,34.98723 -20.63214,42.03266 -6.27635,2.74576 -14.55379,1.09928 -24.61103,-0.043 -13.10801,-1.48875 -7.78005,-7.44222 -10.92555,-11.44172 -6.64545,-8.44973 -11.63545,-17.61885 -11.97579,-32.49079 -0.36931,-16.13791 7.98714,-26.75892 14.99182,-33.18479 5.99537,-5.49997 -3.13906,-9.40958 5.58757,-10.18489 z"
         style="fill:none;stroke:#000000;stroke-width:3;stroke-linecap:butt;stroke-linejoin:miter;stroke-opacity:1" />
      <path
         sodipodi:nodetypes="ccccccc"
         inkscape:connector-curvature="0"
         id="path5611"
         d="m 277.54306,146.05327 c 4.24627,-1.32053 11.97996,-1.22907 17.97019,-0.0142 3.32011,3.09694 7.26147,8.06411 10.32981,12.93976 -2.67038,4.75217 -5.93206,9.11017 -9.49693,13.26601 l -21.67317,-1.01996 c -2.30272,-3.83779 -4.25015,-7.79402 -4.7749,-12.22448 1.97962,-6.02186 4.84774,-9.37823 7.645,-12.94716 z"
         style="fill:none;stroke:#000000;stroke-width:3;stroke-linecap:butt;stroke-linejoin:miter;stroke-opacity:1" />
      <path
         sodipodi:nodetypes="cccccc"
         inkscape:connector-curvature="0"
         id="path5613"
         d="m 274.57164,170.8196 c -1.92089,2.75619 -3.36741,6.08162 -3.79846,10.62561 1.49398,5.69053 3.86061,10.70236 8.03691,14.30664 5.93137,2.73109 12.46549,2.86557 16.88774,1.84885 4.05258,-3.99977 8.65042,-8.8401 10.61539,-13.43633 -3.33437,-5.75972 -6.66872,-9.39645 -10.00308,-12.80201"
         style="fill:none;stroke:#000000;stroke-width:3;stroke-linecap:butt;stroke-linejoin:miter;stroke-opacity:1" />
      <path
         sodipodi:nodetypes="csssc"
         inkscape:connector-curvature="0"
         id="path5598"
         d="m 279.89369,136.91523 c 2.39941,-3.17618 17.36553,-4.03194 25.95011,-1.73219 7.57098,2.02821 17.39182,16.49471 16.50084,40.1836 -0.57569,15.30571 -8.27133,32.53867 -18.8692,33.12886 -6.04913,0.33687 -16.7852,-1.61324 -25.01071,-2.11012"
         style="fill:none;stroke:#000000;stroke-width:3;stroke-linecap:butt;stroke-linejoin:miter;stroke-opacity:1;display:inline" />
      <path
         inkscape:connector-curvature="0"
         id="path5633"
         d="m 279.06555,196.47615 -0.62916,9.22761"
         style="fill:none;stroke:#000000;stroke-width:3;stroke-linecap:butt;stroke-linejoin:miter;stroke-opacity:1" />
      <path
         inkscape:connector-curvature="0"
         id="path5635"
         d="m 295.45674,197.47534 8.36301,10.70519"
         style="fill:none;stroke:#000000;stroke-width:3;stroke-linecap:butt;stroke-linejoin:miter;stroke-opacity:1"
         sodipodi:nodetypes="cc" />
      <path
         inkscape:connector-curvature="0"
         id="path5637"
         d="m 306.23873,184.46791 12.81078,3.1204"
         style="fill:none;stroke:#000000;stroke-width:3;stroke-linecap:butt;stroke-linejoin:miter;stroke-opacity:1"
         sodipodi:nodetypes="cc" />
      <path
         inkscape:connector-curvature="0"
         id="path5639"
         d="m 305.60608,159.16071 14.14484,-1.46802"
         style="fill:none;stroke:#000000;stroke-width:3;stroke-linecap:butt;stroke-linejoin:miter;stroke-opacity:1"
         sodipodi:nodetypes="cc" />
      <path
         inkscape:connector-curvature="0"
         id="path5641"
         d="m 295.19239,146.15817 c 2.92306,-4.18693 5.62084,-7.57173 9.66852,-10.71008"
         style="fill:none;stroke:#000000;stroke-width:3;stroke-linecap:butt;stroke-linejoin:miter;stroke-opacity:1"
         sodipodi:nodetypes="cc" />
      <path
         inkscape:connector-curvature="0"
         id="path5643"
         d="m 277.53972,145.70985 -0.99079,-5.01879"
         style="fill:none;stroke:#000000;stroke-width:3;stroke-linecap:butt;stroke-linejoin:miter;stroke-opacity:1"
         sodipodi:nodetypes="cc" />
      <path
         inkscape:connector-curvature="0"
         id="path5645"
         d="m 269.61378,159.07402 -3.46406,-1.10639"
         style="fill:none;stroke:#000000;stroke-width:3;stroke-linecap:butt;stroke-linejoin:miter;stroke-opacity:1"
         sodipodi:nodetypes="cc" />
      <path
         inkscape:connector-curvature="0"
         id="path5647"
         d="m 270.89631,181.68495 -5.88188,0.11088"
         style="fill:none;stroke:#000000;stroke-width:3;stroke-linecap:butt;stroke-linejoin:miter;stroke-opacity:1"
         sodipodi:nodetypes="cc" />
      <path
         sodipodi:nodetypes="cc"
         inkscape:connector-curvature="0"
         id="path5696"
         d="m 282.48327,114.55112 c 4.54291,4.81855 40.3424,-6.14121 38.25966,-12.75322"
         style="fill:none;stroke:#000000;stroke-width:3;stroke-linecap:butt;stroke-linejoin:miter;stroke-opacity:1" />
    </g>
    <g
       transform="matrix(1.4542731,0,0,1.4542731,-666.76034,-1059.1647)"
       style="stroke-width:2.06288624;display:inline"
       id="g4218">
      <path
         sodipodi:nodetypes="ccscssc"
         inkscape:connector-curvature="0"
         id="path4070"
         d="m 519.58044,796.90093 c 0.32732,10.8822 -12.21823,14.24731 -4.20071,24.37781 -3.07927,5.68763 2.11936,8.85548 6.97485,8.26568 4.2645,-0.51801 0.46139,-4.59984 7.27038,-5.92691 -10.26818,-3.97168 -3.7899,-6.90873 -4.35328,-10.49775 -0.28142,-1.79284 -3.1377,3.56105 -4.88678,1.44359 -3.02714,-3.6647 3.93021,-7.04021 -0.80446,-17.66242 z"
         style="fill:#00aad4;stroke:#000000;stroke-width:2.06288624;stroke-linecap:butt;stroke-linejoin:miter;stroke-opacity:1" />
      <path
         sodipodi:nodetypes="ccscssc"
         inkscape:connector-curvature="0"
         id="path4070-3"
         d="m 519.32519,802.4414 c -0.70119,6.22679 -7.04662,12.50134 -2.12671,18.71787 -1.88958,3.49018 1.30054,7.01271 4.28008,6.65078 2.61689,-0.31787 1.03484,-3.57438 5.21314,-4.38873 -6.30101,-2.4372 -3.7539,-4.31467 -4.09962,-6.51706 -0.17269,-1.10016 -2.82748,0.75697 -3.90079,-0.54239 -1.85759,-2.24883 1.66004,-7.25186 0.6339,-13.92047 z"
         style="fill:#80e5ff;stroke:none;display:inline" />
    </g>
    <g
       transform="matrix(1.4542731,0,0,1.4542731,-660.11308,-1052.0743)"
       style="stroke-width:2.06288624;display:inline"
       id="g4222">
      <path
         sodipodi:nodetypes="cssssssssc"
         inkscape:connector-curvature="0"
         id="path4070-2"
         d="m 543.96299,842.49839 c -6.35764,5.74058 -3.27303,8.70901 -3.70467,12.11605 -0.55451,4.37688 -3.27232,-2.93542 -3.45291,1.12137 -0.12112,2.72076 0.34485,4.95103 3.24703,6.93033 3.17136,2.16288 -4.07742,2.9357 -0.87979,5.83825 2.04596,1.85716 8.01952,4.50859 12.72879,1.35217 5.2427,-3.51395 -3.71653,-6.21283 -6.50641,-10.59345 -0.96559,-1.51615 6.72593,-2.37744 3.55971,-3.50378 -2.79823,-0.99543 -3.65626,-1.69045 -4.74593,-3.45715 -1.41854,-2.29991 -2.51088,-4.05125 -0.24582,-9.80379 z"
         style="fill:#00aad4;stroke:#000000;stroke-width:2.06288624;stroke-linecap:butt;stroke-linejoin:miter;stroke-opacity:1;display:inline" />
      <path
         sodipodi:nodetypes="csssssssc"
         inkscape:connector-curvature="0"
         id="path4070-2-1"
         d="m 541.79309,847.16775 c -1.19268,2.6957 -0.98922,4.82583 -0.0753,6.76502 1.82005,3.86166 -2.03074,3.89062 -2.15029,5.32912 -0.0797,0.95913 2.13189,1.04086 3.25574,3.98572 1.05264,2.75828 -2.06056,3.15675 -1.12866,4.65345 0.92115,1.47944 12.6256,1.26871 8.07135,-1.92824 -3.68064,-2.58371 -6.68753,-5.03115 -6.23512,-6.83592 0.52864,-2.10886 4.51295,-1.39258 1.70483,-3.72223 -1.4115,-1.17099 -4.10108,-4.16406 -3.44259,-8.24692 z"
         style="fill:#80e5ff;stroke:none;display:inline" />
    </g>
    <g
       transform="matrix(1.4542731,0,0,1.4542731,-641.50077,-1064.4825)"
       style="stroke-width:2.06288624;display:inline"
       id="g4226">
      <path
         sodipodi:nodetypes="ccsccsc"
         inkscape:connector-curvature="0"
         id="path4070-6"
         d="m 620.64322,795.00618 c 0.59388,9.25878 -12.67508,20.48673 -3.36045,24.37621 -3.38201,6.83236 3.84931,7.17961 8.09212,3.36493 2.62351,-2.35878 1.34445,-6.10974 6.91936,-9.07721 -11.74551,2.84417 -5.43046,-5.09566 -4.99305,-7.14541 -0.92222,1.10799 -2.43938,4.71895 -4.46955,3.95091 -3.51362,-1.32925 3.40691,-9.13938 -2.18843,-15.46943 z"
         style="fill:#00aad4;stroke:#000000;stroke-width:2.06288624;stroke-linecap:butt;stroke-linejoin:miter;stroke-opacity:1;display:inline" />
      <path
         sodipodi:nodetypes="ccscsscc"
         inkscape:connector-curvature="0"
         id="path4070-3-8"
         d="m 620.99957,801.04537 c -0.6695,5.84271 -7.36901,14.73109 -1.65312,17.11785 -2.07537,4.19265 1.29643,5.48722 4.23608,2.7757 2.20451,-2.03344 0.7218,-3.05607 3.62336,-4.95495 -5.83646,1.97394 -2.98124,-1.60092 -3.41891,-3.30338 -0.21862,-0.85043 -1.59679,0.86829 -2.84258,0.39699 -2.15612,-0.81569 0.51895,-6.86469 0.0552,-12.03221 z"
         style="fill:#80e5ff;stroke:none;display:inline" />
    </g>
    <g
       transform="matrix(1.4542731,0,0,1.4542731,-655.68158,-1056.5058)"
       style="stroke-width:2.06288624;display:inline"
       id="g4356">
      <path
         sodipodi:nodetypes="cccc"
         inkscape:connector-curvature="0"
         id="path4189"
         d="m 586.75154,820.4544 2.02579,-3.59206 9.85607,0.11042 1.72242,3.01582"
         style="fill:#008000;stroke:#000000;stroke-width:2.06288624;stroke-linecap:butt;stroke-linejoin:miter;stroke-opacity:1" />
      <path
         inkscape:connector-curvature="0"
         id="path5518"
         d="m 566.5062,855.53724 c -6.0659,14.65603 -10.82012,28.65622 -13.70928,41.72388 24.22614,15.60006 48.81553,22.91571 77.78524,14.0073 8.76191,-25.36921 6.81232,-51.25682 3.2783,-64.07596 l -9.83491,-0.29803 z"
         style="fill:#454837;stroke:#000000;stroke-width:2.06288624;stroke-linecap:butt;stroke-linejoin:miter;stroke-opacity:1" />
      <path
         id="path5224-1"
         d="m 576.24578,862.15501 c -8.7081,-1.7213 -15.95308,-10.34051 -11.52028,-22.52129 6.4935,-17.84292 21.51648,-19.87639 29.12458,-17.89686 10.4109,-3.79765 27.119,4.47129 30.2404,19.68935 1.981,9.65768 -3.4655,14.22025 -7.9366,18.00931 -9.6021,5.06701 -31.4646,4.55508 -39.9081,2.71949 z"
         style="fill:#ff6600;stroke:none;display:inline"
         inkscape:connector-curvature="0" />
      <path
         sodipodi:nodetypes="cc"
         inkscape:connector-curvature="0"
         id="path5508"
         d="m 587.40266,821.04124 c -15.03015,-1.32039 -30.55844,31.35425 -6.00509,42.46044"
         style="fill:none;stroke:#aa4400;stroke-width:2.06288624;stroke-linecap:butt;stroke-linejoin:miter;stroke-opacity:1" />
      <path
         sodipodi:nodetypes="cc"
         inkscape:connector-curvature="0"
         id="path5510"
         d="m 591.09151,820.62087 c -12.8902,1.65333 -16.45997,45.33681 1.79181,43.3034"
         style="fill:none;stroke:#aa4400;stroke-width:2.06288624;stroke-linecap:butt;stroke-linejoin:miter;stroke-opacity:1" />
      <path
         sodipodi:nodetypes="cc"
         inkscape:connector-curvature="0"
         id="path5512"
         d="m 597.94138,820.30384 c 10.1896,1.1209 16.16687,40.52047 2.94996,42.98822"
         style="fill:none;stroke:#aa4400;stroke-width:2.06288624;stroke-linecap:butt;stroke-linejoin:miter;stroke-opacity:1" />
      <path
         sodipodi:nodetypes="cc"
         inkscape:connector-curvature="0"
         id="path5514"
         d="m 600.5806,820.30495 c 17.89414,1.3192 27.75631,32.12715 10.74391,41.40454"
         style="fill:none;stroke:#aa4400;stroke-width:2.06288624;stroke-linecap:butt;stroke-linejoin:miter;stroke-opacity:1" />
      <path
         sodipodi:nodetypes="cc"
         inkscape:connector-curvature="0"
         id="path5516"
         d="m 593.62071,821.14605 c 1.64813,1.90502 4.34555,33.55167 0.94851,42.56748"
         style="fill:none;stroke:#aa4400;stroke-width:2.06288624;stroke-linecap:butt;stroke-linejoin:miter;stroke-opacity:1" />
      <path
         sodipodi:nodetypes="cscscc"
         inkscape:connector-curvature="0"
         id="path5224"
         d="m 576.15695,862.56024 c -8.7081,-1.7213 -15.95308,-11.28716 -11.52028,-23.46794 6.4935,-17.84292 21.93722,-19.87639 29.86087,-18.21242 12.6442,-2.17414 26.38271,5.7335 29.50411,20.95156 1.981,9.65768 -3.4655,14.22025 -7.9366,18.00931 -9.6021,5.06701 -31.4646,4.55508 -39.9081,2.71949 z"
         style="fill:none;stroke:#000000;stroke-width:2.06288624;stroke-linecap:butt;stroke-linejoin:miter;stroke-opacity:1" />
      <path
         sodipodi:nodetypes="ccccccccccccccc"
         inkscape:connector-curvature="0"
         id="path5226"
         d="m 585.81877,842.72426 c 1.77884,2.86953 7.88121,1.51521 11.439,1.24226 l 0.3557,4.09137 4.44715,-0.17789 -0.17785,-4.26924 5.51447,-1.06732 0.35571,4.09136 4.09133,-0.88943 0.17796,-4.09136 c 2.71258,-0.4599 4.27679,-1.13678 5.05348,-2.95751 0.1763,5.91068 -0.50383,13.58078 -10.31743,16.07307 l 1.2e-4,-4.44714 -4.80297,1.06732 -0.17785,4.09135 c -7.16529,0.32272 -14.13727,-3.57082 -15.95882,-12.75684 z"
         style="fill:#000000;stroke:none" />
      <path
         sodipodi:nodetypes="ccccc"
         inkscape:connector-curvature="0"
         id="path5228"
         d="m 586.9018,839.43662 7.88346,-6.86224 6.13692,7.20487 -6.54406,-1.86382 z"
         style="fill:#000000;stroke:none" />
      <path
         sodipodi:nodetypes="ccccc"
         inkscape:connector-curvature="0"
         id="path5230"
         d="m 605.75214,838.46523 2.32752,-7.58318 7.19082,4.2234 -5.26085,0.86407 z"
         style="fill:#000000;stroke:none" />
      <path
         inkscape:connector-curvature="0"
         id="path5520"
         d="m 583.7918,864.7761 c 7.15267,-3.31493 18.17969,-4.33297 26.22645,-2.38422 1.09833,8.13942 1.33687,12.48252 -1.49014,25.33235"
         style="fill:#454837;stroke:#000000;stroke-width:2.06288624;stroke-linecap:butt;stroke-linejoin:miter;stroke-opacity:1" />
    </g>
    <path
       style="fill:none;stroke:#000000;stroke-width:3;display:inline"
       d="m 166.2155,246.97495 c -9.99357,-0.43048 -19.69463,-1.20002 -29.01027,-2.27546 -40.637322,-4.69135 -73.940122,-15.20371 -92.193679,-28.78316"
       id="path5984"
       inkscape:connector-curvature="0"
       sodipodi:nodetypes="csc" />
    <path
       style="fill:none;stroke:#000000;stroke-width:3;display:inline"
       d="m 340.1844,191.98139 c 0,18.80344 -26.2451,35.4187 -66.37224,45.4326"
       id="path5946"
       inkscape:connector-curvature="0" />
    <path
       style="fill:none;stroke:#000000;stroke-width:3;display:inline"
       d="M 131.627,232.77937 C 101.62544,227.76927 78.059631,218.66653 66.567965,207.48395"
       id="path5976"
       inkscape:connector-curvature="0"
       sodipodi:nodetypes="cc" />
    <path
       style="fill:none;stroke:#000000;stroke-width:3;display:inline"
       d="m 311.11789,191.9796 c 0,14.66244 -19.63665,27.68779 -50.0344,35.90766"
       id="path5918"
       inkscape:connector-curvature="0" />
    <path
       style="fill:none;stroke:#fefefe;stroke-width:3;stroke-opacity:1;display:inline"
       d="m 340.18092,191.98143 c 0,9.55814 -6.78142,18.55089 -18.72046,26.39859"
       id="path5946-1"
       inkscape:connector-curvature="0"
       sodipodi:nodetypes="cc" />
    <path
       style="fill:none;stroke:#fefefe;stroke-width:3;stroke-opacity:1;display:inline"
       d="m 311.1144,191.97964 c 0,8.75769 -7.00542,16.93135 -19.12503,23.84584"
       id="path5409"
       inkscape:connector-curvature="0" />
    <path
       style="fill:none;stroke:#fefefe;stroke-width:3;stroke-opacity:1;display:inline"
       d="m 271.44029,224.76058 c -3.29173,1.10649 -6.75012,2.15049 -10.36029,3.12672"
       id="path5918-2"
       inkscape:connector-curvature="0" />
    <path
       style="fill:none;stroke:#fefefe;stroke-width:3;stroke-opacity:1;display:inline"
       d="m 166.21563,246.97683 c -6.43086,-0.27701 -12.74059,-0.69443 -18.90444,-1.24341"
       id="path5984-9"
       inkscape:connector-curvature="0"
       sodipodi:nodetypes="cc" />
  </g>
  <g
     inkscape:groupmode="layer"
     id="layer4"
     inkscape:label="字幕"
     style="display:inline"
     sodipodi:insensitive="true">
    <text
       xml:space="preserve"
       style="font-size:32.52526474px;font-style:normal;font-variant:normal;font-weight:bold;font-stretch:normal;line-height:125%;letter-spacing:0px;word-spacing:0px;writing-mode:lr-tb;fill:#000000;fill-opacity:1;stroke:none;font-family:HGHeiseiMinchotaiW3;-inkscape-font-specification:HGHeiseiMinchotaiW3 Bold"
       x="4.3454604"
       y="61.49337"
       id="text6768-1"
       sodipodi:linespacing="125%"><tspan
         sodipodi:role="line"
         x="4.3454604"
         y="61.49337"
         style="font-size:32.52526474px;font-style:normal;font-variant:normal;font-weight:bold;font-stretch:normal;fill:#000000;fill-opacity:1;font-family:HGHeiseiMinchotaiW3;-inkscape-font-specification:HGHeiseiMinchotaiW3 Bold"
         id="tspan3151-4">しばらくお待ちください</tspan></text>
  </g>
  <g
     inkscape:groupmode="layer"
     id="layer2"
     inkscape:label="枠面"
     sodipodi:insensitive="true">
    <path
       style="fill:#ffffff;stroke:none;display:inline"
       d="m 0,0 0,320 370,0 0,-320 -10,10 0,300 -350,0 0,-300 350,0 10,-10 z"
       id="path21072"
       inkscape:connector-curvature="0"
       sodipodi:nodetypes="ccccccccccc" />
  </g>
</svg>
