<?xml version="1.0" encoding="UTF-8" standalone="no"?>
<!-- Created with Inkscape (http://www.inkscape.org/) -->

<svg
   xmlns:dc="http://purl.org/dc/elements/1.1/"
   xmlns:cc="http://creativecommons.org/ns#"
   xmlns:rdf="http://www.w3.org/1999/02/22-rdf-syntax-ns#"
   xmlns:svg="http://www.w3.org/2000/svg"
   xmlns="http://www.w3.org/2000/svg"
   xmlns:sodipodi="http://sodipodi.sourceforge.net/DTD/sodipodi-0.dtd"
   xmlns:inkscape="http://www.inkscape.org/namespaces/inkscape"
   width="370"
   height="320"
   id="svg3172"
   version="1.1"
   inkscape:version="0.48.4 r9939"
   sodipodi:docname="[17]延長.svg"
   inkscape:export-filename="C:\Users\執安\Desktop\資料\臨時\ANCESTOR\org\[17]延長.png"
   inkscape:export-xdpi="90"
   inkscape:export-ydpi="90">
  <defs
     id="defs3174" />
  <sodipodi:namedview
     id="base"
     pagecolor="#ffffff"
     bordercolor="#666666"
     borderopacity="1.0"
     inkscape:pageopacity="0.0"
     inkscape:pageshadow="2"
     inkscape:zoom="0.78858979"
     inkscape:cx="254.97223"
     inkscape:cy="80.864283"
     inkscape:document-units="px"
     inkscape:current-layer="layer6"
     showgrid="false"
     inkscape:window-width="1044"
     inkscape:window-height="698"
     inkscape:window-x="-5"
     inkscape:window-y="-5"
     inkscape:window-maximized="0" />
  <metadata
     id="metadata3177">
    <rdf:RDF>
      <cc:Work
         rdf:about="">
        <dc:format>image/svg+xml</dc:format>
        <dc:type
           rdf:resource="http://purl.org/dc/dcmitype/StillImage" />
        <dc:title />
      </cc:Work>
    </rdf:RDF>
  </metadata>
  <g
     inkscape:label="補助線"
     inkscape:groupmode="layer"
     id="layer1"
     transform="translate(0,-732.36218)"
     sodipodi:insensitive="true"
     style="display:none">
    <path
       style="fill:none;stroke:#0000ff;stroke-width:1px;stroke-linecap:butt;stroke-linejoin:miter;stroke-opacity:1;display:inline"
       d="M 10,1042.3622 360,742.36211"
       id="path3025"
       inkscape:connector-curvature="0"
       sodipodi:nodetypes="cc" />
    <path
       style="fill:none;stroke:#0000ff;stroke-width:1px;stroke-linecap:butt;stroke-linejoin:miter;stroke-opacity:1;display:inline"
       d="M 10,742.36211 360,1042.3622"
       id="path3027"
       inkscape:connector-curvature="0"
       sodipodi:nodetypes="cc" />
    <path
       style="fill:none;stroke:#ff0000;stroke-width:1px;stroke-linecap:butt;stroke-linejoin:miter;stroke-opacity:1;display:inline"
       d="m 10,732.36211 0,320.00009"
       id="path3006"
       inkscape:connector-curvature="0"
       sodipodi:nodetypes="cc" />
    <path
       style="fill:none;stroke:#ff0000;stroke-width:1px;stroke-linecap:butt;stroke-linejoin:miter;stroke-opacity:1;display:inline"
       d="m 360,732.36211 0,320.00009"
       id="path3010"
       inkscape:connector-curvature="0"
       sodipodi:nodetypes="cc" />
    <path
       style="fill:none;stroke:#ff0000;stroke-width:1px;stroke-linecap:butt;stroke-linejoin:miter;stroke-opacity:1;display:inline"
       d="m 0,742.36208 370,3e-5"
       id="path3016"
       inkscape:connector-curvature="0" />
    <path
       style="fill:none;stroke:#ff0000;stroke-width:1px;stroke-linecap:butt;stroke-linejoin:miter;stroke-opacity:1;display:inline"
       d="m 0,1042.3622 370,0"
       id="path3018"
       inkscape:connector-curvature="0"
       sodipodi:nodetypes="cc" />
  </g>
  <g
     inkscape:groupmode="layer"
     id="layer5"
     inkscape:label="軌跡"
     style="display:none"
     sodipodi:insensitive="true">
    <path
       style="fill:none;stroke:#000000;stroke-width:0.5;display:inline"
       d="m 185.0041,165.65999 0,92.69826 m 173.26977,-46.34916 c 0,25.5979 -77.57552,46.34916 -173.26977,46.34916 -95.694238,0 -173.269755,-20.75126 -173.269755,-46.34916 0,-25.59789 77.575516,-46.3491 173.269755,-46.3491 95.69425,0 173.26977,20.75121 173.26977,46.3491 z m 0,0 -346.539524,0"
       id="path4161-6-3"
       inkscape:connector-curvature="0"
       sodipodi:nodetypes="ccssssscc" />
    <path
       style="fill:none;stroke:#ff0000;stroke-width:0.5;display:inline"
       d="m 185.00665,174.34067 0,75.33424 m 140.813,-37.6673 c 0,20.80301 -63.04412,37.6673 -140.813,37.6673 -77.76884,0 -140.812979,-16.86429 -140.812979,-37.6673 0,-20.80289 63.044139,-37.66694 140.812979,-37.66694 77.76888,0 140.813,16.86405 140.813,37.66694 z m 0,0 -281.625979,0"
       id="path4161-5-1-8"
       inkscape:connector-curvature="0"
       sodipodi:nodetypes="ccssssscc" />
  </g>
  <g
     inkscape:groupmode="layer"
     id="layer6"
     inkscape:label="豚"
     style="display:inline"
     sodipodi:insensitive="true">
    <path
       sodipodi:type="arc"
       style="fill:#000000;fill-opacity:1;stroke:none;display:inline"
       id="path5609-0"
       sodipodi:cx="211.81915"
       sodipodi:cy="280.65509"
       sodipodi:rx="54.934406"
       sodipodi:ry="12.620066"
       d="m 266.75356,280.65509 a 54.934406,12.620066 0 1 1 -109.86881,0 54.934406,12.620066 0 1 1 109.86881,0 z"
       transform="matrix(1,0,0,0.72270321,70.220669,28.991741)" />
    <path
       sodipodi:type="arc"
       style="fill:#000000;fill-opacity:1;stroke:none"
       id="path5609"
       sodipodi:cx="211.81915"
       sodipodi:cy="280.65509"
       sodipodi:rx="54.934406"
       sodipodi:ry="12.620066"
       d="m 266.75356,280.65509 a 54.934406,12.620066 0 1 1 -109.86881,0 54.934406,12.620066 0 1 1 109.86881,0 z"
       transform="translate(7.6637363,0.53007637)" />
    <path
       sodipodi:type="arc"
       style="fill:#000000;fill-opacity:1;stroke:none;display:inline"
       id="path5609-2"
       sodipodi:cx="211.81915"
       sodipodi:cy="280.65509"
       sodipodi:rx="54.934406"
       sodipodi:ry="12.620066"
       d="m 266.75356,280.65509 a 54.934406,12.620066 0 1 1 -109.86881,0 54.934406,12.620066 0 1 1 109.86881,0 z"
       transform="matrix(0.72972973,0,0,0.72972973,-92.467502,52.549754)" />
    <path
       sodipodi:type="arc"
       style="fill:#000000;fill-opacity:1;stroke:none;display:inline"
       id="path5609-4"
       sodipodi:cx="211.81915"
       sodipodi:cy="280.65509"
       sodipodi:rx="54.934406"
       sodipodi:ry="12.620066"
       d="m 266.75356,280.65509 a 54.934406,12.620066 0 1 1 -109.86881,0 54.934406,12.620066 0 1 1 109.86881,0 z"
       transform="matrix(0.72972973,0,0,0.72972973,-25.89555,-2.0947439)" />
    <path
       style="fill:none;stroke:#000000;stroke-width:3;display:inline"
       d="m 149.23621,155.56673 c 11.42221,-0.80008 23.41035,-1.22606 35.77044,-1.22606 10.27593,0 20.29477,0.29444 29.94506,0.85349"
       id="path6559"
       inkscape:connector-curvature="0" />
    <g
       id="g7944">
      <path
         sodipodi:nodetypes="cccc"
         style="fill:#550000;stroke:none;display:inline"
         d="m 96.589754,114.33405 c -1.41416,0.37745 -2.39932,1.21889 -3.59638,2.34558 1.00149,1.44698 4.97821,2.37034 7.281886,0.5701 -2.379506,-1.26484 -3.685506,-2.91568 -3.685506,-2.91568 z"
         id="path5530-8-5"
         inkscape:connector-curvature="0" />
      <path
         inkscape:connector-curvature="0"
         id="path5528-4"
         d="M 156.05849,121.38569 C 150.58532,85.431265 111.66502,84.928782 103.02631,105.56139 L 99.12,127.51159 c -15.777638,24.19628 -11.884451,47.96288 0.202857,61.09554 -3.702131,0.97129 -8.036173,7.47464 -4.549937,11.15921 5.79051,6.11997 20.86759,2.03549 27.70314,-0.77099 z"
         style="fill:#44aa00;stroke:#000000;stroke-width:3;stroke-linecap:butt;stroke-linejoin:miter;stroke-opacity:1" />
      <path
         sodipodi:nodetypes="cccccccccccc"
         inkscape:connector-curvature="0"
         id="path5522-1-0"
         d="m 151.29452,102.21478 c 2.16625,1.85472 4.02801,7.03466 6.84284,8.67868 -3.11396,-1.06532 -8.76675,0.29185 -11.36141,-2.04063 -1.58266,2.65306 -4.04142,4.61738 -6.37924,7.04795 -2.40512,-2.5682 -4.43997,-5.37349 -5.65802,-8.7018 -3.48569,3.05656 -6.8271,5.31204 -9.8551,5.82723 -1.547,-3.18425 -2.74846,-6.29427 -2.42933,-9.07758 0,0 -6.46909,3.54593 -9.2509,4.35284 -0.87482,-2.44815 -0.80746,-4.77746 -0.45289,-7.20155 -4.36847,-0.19071 -8.14404,-4.045677 -12.07058,-4.723778 4.72802,-0.823424 9.02896,-1.796561 12.09354,-2.299158 14.97125,-9.015844 34.57244,-4.132148 38.52109,8.137796 z"
         style="fill:#008000;stroke:none;display:inline" />
      <path
         sodipodi:nodetypes="ccc"
         inkscape:connector-curvature="0"
         id="path5524-9"
         d="m 150.87029,101.83945 c -8.50259,3.58642 -30.04135,-1.1496 -37.40812,-8.166132 11.49886,-7.266342 30.12039,-4.921085 37.40812,8.166132 z"
         style="fill:#8dd35f;stroke:none" />
      <path
         sodipodi:nodetypes="cccccccccccc"
         inkscape:connector-curvature="0"
         id="path5522-4"
         d="m 151.06648,102.52888 c 2.16625,1.85472 4.8126,8.82799 7.85159,9.35118 -3.11395,-1.06532 -9.77551,-0.38066 -12.37016,-2.71313 -1.58267,2.65305 -4.04143,4.61737 -6.37925,7.04795 -2.40511,-2.5682 -4.43996,-5.37349 -5.65802,-8.7018 -3.48569,3.05655 -6.8271,5.31203 -9.85509,5.82722 -1.547,-3.18425 -2.74846,-6.29426 -2.42934,-9.07758 0,0 -6.46908,3.54594 -9.25089,4.35284 -0.87483,-2.44814 -0.80747,-4.77746 -0.45289,-7.20155 -4.36847,-0.19071 -8.14405,-4.045672 -12.07058,-4.723773 4.49363,0.348476 8.80135,-3.754232 12.56907,-2.61618 11.84416,-9.240012 34.0969,-3.815126 38.04556,8.454823 z"
         style="fill:none;stroke:#000000;stroke-width:3;stroke-linecap:butt;stroke-linejoin:miter;stroke-opacity:1" />
      <path
         inkscape:connector-curvature="0"
         id="path5530-8"
         d="m 96.273105,114.53772 c -1.414164,0.37744 -2.399319,1.21888 -3.532907,2.33046 -0.232453,2.55639 0.632513,9.29673 6.124521,11.1744 5.285251,-1.53551 8.419731,-4.52713 10.035681,-8.99906 0.45272,-5.45342 -0.73879,-12.51627 -5.67268,-13.97359 -3.264998,0.12216 -7.799371,2.38049 -9.337365,5.32736 1.49044,3.65104 3.688751,5.79126 6.068258,7.05611 -2.303672,1.80024 -6.280398,0.87687 -7.345362,-0.55498"
         style="fill:#8dd35f;stroke:#000000;stroke-width:3;stroke-linecap:butt;stroke-linejoin:miter;stroke-opacity:1" />
      <path
         inkscape:connector-curvature="0"
         id="path3751-8"
         d="m 101.16358,130.09234 c -6.354849,-0.96051 -21.899675,-9.12938 -22.542082,-2.90847 -0.622709,6.03018 3.540964,17.68167 15.177645,27.25468"
         style="fill:#44aa00;fill-opacity:1;stroke:#000000;stroke-width:3;stroke-linecap:butt;stroke-linejoin:miter;stroke-opacity:1"
         sodipodi:nodetypes="csc" />
      <path
         sodipodi:nodetypes="sssssssss"
         inkscape:connector-curvature="0"
         id="path5526-6-2"
         d="m 150.15919,115.06951 c -8.44089,0.22574 -24.44062,0.56217 -29.26676,4.48181 -10.87866,8.83529 -16.58475,29.5793 -14.64971,45.80744 2.36313,19.81817 6.54279,32.78065 22.80553,37.91227 6.33799,1.99991 14.45254,0.75487 24.26358,-1.52591 12.78712,-2.97264 6.35611,-7.26588 9.19789,-11.58425 6.00379,-9.1234 11.16141,-19.75955 10.57012,-34.51844 -0.64164,-16.01523 -9.5137,-25.57202 -16.7964,-31.13114 -6.23333,-4.7581 2.4987,-9.67242 -6.12425,-9.44178 z"
         style="fill:#5d6c53;stroke:none;display:inline" />
      <path
         sodipodi:nodetypes="sssssssss"
         inkscape:connector-curvature="0"
         id="path5526-4"
         d="m 150.00556,115.13357 c -8.44089,0.22575 -24.44062,0.56218 -29.26676,4.48181 -10.87866,8.8353 -16.58475,29.57931 -14.64971,45.80745 2.36313,19.81816 6.54279,32.78064 22.80553,37.91226 6.33799,1.99991 14.45254,0.75487 24.26358,-1.52591 12.78712,-2.97264 6.35611,-7.26588 9.19789,-11.58424 6.00379,-9.1234 11.16141,-19.75955 10.57012,-34.51844 -0.64164,-16.01524 -9.5137,-25.57202 -16.7964,-31.13114 -6.23333,-4.7581 2.4987,-9.67242 -6.12425,-9.44179 z"
         style="fill:none;stroke:#000000;stroke-width:3;stroke-linecap:butt;stroke-linejoin:miter;stroke-opacity:1" />
      <path
         sodipodi:nodetypes="ccccccc"
         inkscape:connector-curvature="0"
         id="path5611-5"
         d="m 158.75647,132.79185 c -5.99627,-0.054 -10.50518,0.40455 -16.9237,1.19506 -3.52215,4.00921 -7.77869,9.95667 -10.17662,14.52311 3.565,4.05881 5.35573,7.61143 8.50246,11.25197 l 21.18767,-2.23043 c 1.98857,-3.59024 4.20032,-6.84569 5.39106,-11.63266 -1.81682,-5.15348 -4.00509,-9.11389 -7.98087,-13.10705 z"
         style="fill:none;stroke:#000000;stroke-width:3;stroke-linecap:butt;stroke-linejoin:miter;stroke-opacity:1" />
      <path
         sodipodi:nodetypes="cccccc"
         inkscape:connector-curvature="0"
         id="path5613-5"
         d="m 161.18641,156.92285 c 2.79944,2.77058 4.53913,6.6009 6.08492,10.62513 -1.27331,5.96713 -3.75608,10.72481 -7.14185,14.57949 -4.87401,1.93473 -14.03669,3.83843 -19.40131,2.62942 -3.09332,-3.56311 -5.67137,-6.80919 -7.92674,-10.3723 3.09436,-4.57345 5.01968,-9.32528 7.69651,-15.15132"
         style="fill:none;stroke:#000000;stroke-width:3;stroke-linecap:butt;stroke-linejoin:miter;stroke-opacity:1" />
      <path
         sodipodi:nodetypes="csssc"
         inkscape:connector-curvature="0"
         id="path5598-1"
         d="m 155.40244,124.01602 c -2.55533,-2.86931 -17.31415,-2.00473 -25.60611,1.2533 -7.31291,2.87335 -16.06229,18.31518 -13.7123,41.66009 1.51837,15.08347 9.86847,28.62448 20.30578,29.43765 7.2582,0.56549 18.34555,-1.13885 24.74091,-3.75421"
         style="fill:none;stroke:#000000;stroke-width:3;stroke-linecap:butt;stroke-linejoin:miter;stroke-opacity:1;display:inline" />
      <path
         inkscape:connector-curvature="0"
         id="path5633-7"
         d="m 159.92355,182.87358 1.19258,9.06136"
         style="fill:none;stroke:#000000;stroke-width:3;stroke-linecap:butt;stroke-linejoin:miter;stroke-opacity:1" />
      <path
         inkscape:connector-curvature="0"
         id="path5635-1"
         d="m 140.93928,184.665 -7.75688,11.98486"
         style="fill:none;stroke:#000000;stroke-width:3;stroke-linecap:butt;stroke-linejoin:miter;stroke-opacity:1" />
      <path
         inkscape:connector-curvature="0"
         id="path5637-1"
         d="m 132.86159,174.61633 -14.00597,2.1643"
         style="fill:none;stroke:#000000;stroke-width:3;stroke-linecap:butt;stroke-linejoin:miter;stroke-opacity:1"
         sodipodi:nodetypes="cc" />
      <path
         inkscape:connector-curvature="0"
         id="path5639-5"
         d="m 131.95525,148.18172 -14.27822,-0.21521"
         style="fill:none;stroke:#000000;stroke-width:3;stroke-linecap:butt;stroke-linejoin:miter;stroke-opacity:1"
         sodipodi:nodetypes="cc" />
      <path
         inkscape:connector-curvature="0"
         id="path5641-2"
         d="m 140.73596,133.99289 c -2.04442,-2.26495 -7.20863,-6.54781 -9.95736,-8.57363"
         style="fill:none;stroke:#000000;stroke-width:3;stroke-linecap:butt;stroke-linejoin:miter;stroke-opacity:1"
         sodipodi:nodetypes="cc" />
      <path
         inkscape:connector-curvature="0"
         id="path5643-7"
         d="m 158.66383,132.77597 0.26016,-5.40523"
         style="fill:none;stroke:#000000;stroke-width:3;stroke-linecap:butt;stroke-linejoin:miter;stroke-opacity:1"
         sodipodi:nodetypes="cc" />
      <path
         inkscape:connector-curvature="0"
         id="path5645-6"
         d="m 166.73216,145.90774 4.93254,-0.78321"
         style="fill:none;stroke:#000000;stroke-width:3;stroke-linecap:butt;stroke-linejoin:miter;stroke-opacity:1" />
      <path
         inkscape:connector-curvature="0"
         id="path5647-1"
         d="m 166.68649,167.73575 5.02018,0.58571"
         style="fill:none;stroke:#000000;stroke-width:3;stroke-linecap:butt;stroke-linejoin:miter;stroke-opacity:1"
         sodipodi:nodetypes="cc" />
      <path
         sodipodi:nodetypes="cc"
         inkscape:connector-curvature="0"
         id="path5696-4"
         d="m 151.46588,102.17661 c -5.51003,4.06423 -36.09325,-2.658866 -38.38734,-8.247326"
         style="fill:none;stroke:#000000;stroke-width:3;stroke-linecap:butt;stroke-linejoin:miter;stroke-opacity:1" />
    </g>
    <path
       style="fill:none;stroke:#000000;stroke-width:3;display:inline"
       d="m 185.0041,145.65999 c 63.89216,0 119.7073,9.25054 149.74895,23.01785"
       id="path6565"
       inkscape:connector-curvature="0"
       sodipodi:nodetypes="cc" />
    <g
       style="stroke-width:2.16878343;display:inline"
       id="g4371"
       transform="matrix(1.383264,0,0,1.383264,-281.673,-1019.0514)">
      <path
         id="path5224-1-2"
         d="m 391.07286,848.89396 c -8.7081,-1.7213 -15.95308,-10.34051 -11.52028,-22.52129 6.4935,-17.84292 21.51648,-19.87639 29.12458,-17.89686 10.4109,-3.79765 27.119,4.47129 30.2404,19.68935 1.981,9.65768 -3.4655,14.22025 -7.9366,18.00931 -9.6021,5.06701 -31.4646,4.55508 -39.9081,2.71949 z"
         style="fill:#ff6600;stroke:none;display:inline"
         inkscape:connector-curvature="0" />
      <path
         sodipodi:nodetypes="cc"
         inkscape:connector-curvature="0"
         id="path5508-7"
         d="m 394.59141,809.61197 c -14.11341,5.32593 -18.70662,32.76362 1.63324,40.62866"
         style="fill:none;stroke:#aa4400;stroke-width:2.16878343;stroke-linecap:butt;stroke-linejoin:miter;stroke-opacity:1" />
      <path
         sodipodi:nodetypes="cc"
         inkscape:connector-curvature="0"
         id="path5510-9"
         d="m 405.91859,807.35982 c -12.8902,1.65333 -16.45997,45.33681 1.79181,43.3034"
         style="fill:none;stroke:#aa4400;stroke-width:2.16878343;stroke-linecap:butt;stroke-linejoin:miter;stroke-opacity:1" />
      <path
         sodipodi:nodetypes="cc"
         inkscape:connector-curvature="0"
         id="path5512-5"
         d="m 413.45601,808.07412 c 11.96768,0.79761 20.13787,38.64213 2.26241,41.95689"
         style="fill:none;stroke:#aa4400;stroke-width:2.16878343;stroke-linecap:butt;stroke-linejoin:miter;stroke-opacity:1" />
      <path
         sodipodi:nodetypes="cc"
         inkscape:connector-curvature="0"
         id="path5514-4"
         d="m 419.99135,807.78875 c 18.00873,5.32992 23.17264,31.3823 6.16024,40.65969"
         style="fill:none;stroke:#aa4400;stroke-width:2.16878343;stroke-linecap:butt;stroke-linejoin:miter;stroke-opacity:1" />
      <path
         sodipodi:nodetypes="cc"
         inkscape:connector-curvature="0"
         id="path5516-3"
         d="m 408.44779,807.885 c 1.64813,3.20148 4.18349,33.87578 1.92085,42.24337"
         style="fill:none;stroke:#aa4400;stroke-width:2.16878343;stroke-linecap:butt;stroke-linejoin:miter;stroke-opacity:1" />
      <path
         sodipodi:nodetypes="cscscc"
         inkscape:connector-curvature="0"
         id="path5224-12"
         d="m 390.98403,849.29919 c -8.7081,-1.7213 -15.14292,-10.72773 -11.52028,-23.46794 3.69099,-12.98061 15.97844,-18.95966 28.94414,-18.21242 13.40741,-3.25292 27.29944,5.7335 30.42084,20.95156 1.981,9.65768 -3.4655,14.22025 -7.9366,18.00931 -9.6021,5.06701 -31.4646,4.55508 -39.9081,2.71949 z"
         style="fill:none;stroke:#000000;stroke-width:2.16878343;stroke-linecap:butt;stroke-linejoin:miter;stroke-opacity:1" />
      <path
         sodipodi:nodetypes="cccccc"
         inkscape:connector-curvature="0"
         id="path5226-3"
         d="m 425.25851,823.95423 c 1.77884,2.86953 5.03787,-0.0842 7.44055,-1.33451 l 1.77737,5.06877 2.75892,-3.82092 1.76062,7.6011 c -6.36561,6.27596 -12.18248,-1.61603 -13.73746,-7.51444 z"
         style="fill:#000000;stroke:none" />
      <path
         sodipodi:nodetypes="ccccc"
         inkscape:connector-curvature="0"
         id="path5230-4"
         d="m 427.68757,821.82771 -1.04895,-7.9386 8.43479,4.57882 -4.90543,0.15325 z"
         style="fill:#000000;stroke:none" />
      <path
         sodipodi:nodetypes="cccccc"
         inkscape:connector-curvature="0"
         id="path5518-9"
         d="m 380.09825,842.26726 c -6.0659,14.65603 -9.58509,28.66515 -12.47425,41.73281 24.22614,15.60006 48.81553,22.91571 77.78524,14.0073 8.76191,-25.36921 6.81232,-51.25682 3.2783,-64.07596 l -10.19033,3.01746 c -7.45342,14.5744 -53.56203,14.26495 -58.39896,5.31839 z"
         style="fill:#454837;stroke:#000000;stroke-width:2.16878343;stroke-linecap:butt;stroke-linejoin:miter;stroke-opacity:1" />
      <path
         sodipodi:nodetypes="ccccc"
         inkscape:connector-curvature="0"
         id="path4189-1"
         d="m 401.95914,804.50084 c 2.65539,-1.08756 9.60752,-1.55956 11.92366,-0.5935 l 1.90199,3.17447 c 0.80357,3.4679 -14.41356,4.17775 -15.19486,1.68322 z"
         style="fill:#008000;stroke:#000000;stroke-width:2.16878343;stroke-linecap:butt;stroke-linejoin:miter;stroke-opacity:1" />
    </g>
    <g
       transform="matrix(1.6227521,0,0,1.6227521,-269.34911,-1199.0926)"
       id="g4061"
       style="stroke-width:1.84871125;display:inline">
      <path
         inkscape:connector-curvature="0"
         id="path5130"
         d="m 329.26141,857.70017 c -1.11524,-12.00695 -9.29688,-26.29434 -28.14052,-25.79054 -14.84622,0.39692 -29.01814,9.18259 -29.86566,29.24764 -4.50674,6.22965 -0.40083,16.28391 -11.12074,18.78131 9.04666,8.17914 23.27668,29.90377 46.65885,26.56862 19.68797,-2.80823 28.07977,-17.68593 27.38665,-34.40697 6.32019,-16.0558 2.89366,-20.27004 -6.25831,-17.95884"
         style="fill:#fffff8;fill-opacity:1;stroke:#000000;stroke-width:1.84871125;stroke-linecap:butt;stroke-linejoin:miter;stroke-opacity:1;display:inline"
         sodipodi:nodetypes="csccscc" />
      <path
         inkscape:connector-curvature="0"
         id="path5132"
         d="m 321.24835,850.44931 c -3.0786,4.87092 -3.45085,1.28896 -7.05459,2.20225 -5.5896,1.41656 -5.61216,7.97976 -12.42891,2.75808 3.44076,3.42642 6.52239,9.50152 12.89652,7.71926 6.21923,-1.73896 3.94275,-9.08399 6.58698,-12.67959 z"
         style="fill:#aa0000;stroke:#000000;stroke-width:1.84871125;stroke-linecap:butt;stroke-linejoin:miter;stroke-opacity:1;display:inline" />
      <path
         inkscape:connector-curvature="0"
         id="path5134"
         d="m 305.46797,847.83346 3.88463,3.79751"
         style="fill:none;stroke:#000000;stroke-width:1.84871125;stroke-linecap:butt;stroke-linejoin:miter;stroke-opacity:1;display:inline" />
      <path
         inkscape:connector-curvature="0"
         id="path5136"
         d="m 315.5776,845.05742 -0.24413,5.37981"
         style="fill:none;stroke:#000000;stroke-width:1.84871125;stroke-linecap:butt;stroke-linejoin:miter;stroke-opacity:1;display:inline" />
      <path
         inkscape:connector-curvature="0"
         id="path5138"
         d="m 307.23035,867.26007 c 10.0257,-2.95085 11.74348,-0.92308 8.28385,8.59794"
         style="fill:none;stroke:#000000;stroke-width:1.84871125;stroke-linecap:butt;stroke-linejoin:miter;stroke-opacity:1;display:inline" />
      <path
         sodipodi:nodetypes="ccc"
         inkscape:connector-curvature="0"
         id="path3910-85-90"
         d="m 296.07757,842.38667 7.86051,-13.79777 11.77881,10.46146"
         style="fill:#f8fcff;fill-opacity:1;stroke:#000000;stroke-width:1.84871125;stroke-linecap:butt;stroke-linejoin:miter;stroke-opacity:1;display:inline" />
      <path
         sodipodi:nodetypes="cc"
         inkscape:connector-curvature="0"
         id="path3908-16-06"
         d="m 277.79844,842.18315 c 5.8108,2.94615 37.57922,-1.95312 41.2799,-4.69227"
         style="fill:none;stroke:#000000;stroke-width:1.84871125;stroke-linecap:butt;stroke-linejoin:miter;stroke-opacity:1;display:inline" />
    </g>
    <path
       style="fill:none;stroke:#fefefe;stroke-width:3;stroke-opacity:1;display:inline"
       d="m 44.193671,192.00761 c 0,-13.58571 26.888223,-25.49151 67.206129,-32.11731"
       id="path6561"
       inkscape:connector-curvature="0" />
    <path
       style="fill:none;stroke:#000000;stroke-width:3;display:inline"
       d="m 334.75305,168.67784 c 14.95312,6.85263 23.52082,14.8243 23.52082,23.33125 0,14.37836 -24.47568,27.22757 -62.89005,35.72899"
       id="path6471"
       inkscape:connector-curvature="0" />
    <path
       style="fill:none;stroke:#000000;stroke-width:3;display:inline"
       d="m 296.55328,169.01602 c 18.35048,6.36104 29.26637,14.33532 29.26637,22.99159 0,8.12576 -9.61878,15.65058 -25.97674,21.80415"
       id="path6477"
       inkscape:connector-curvature="0" />
    <g
       transform="matrix(1.2855491,0,0,1.2855491,-476.774,-939.8622)"
       style="stroke-width:2.33363318;display:inline"
       id="g4218">
      <path
         sodipodi:nodetypes="ccscssc"
         inkscape:connector-curvature="0"
         id="path4070"
         d="m 519.58044,796.90093 c 0.32732,10.8822 -12.21823,14.24731 -4.20071,24.37781 -3.07927,5.68763 2.11936,8.85548 6.97485,8.26568 4.2645,-0.51801 0.46139,-4.59984 7.27038,-5.92691 -10.26818,-3.97168 -3.7899,-6.90873 -4.35328,-10.49775 -0.28142,-1.79284 -3.1377,3.56105 -4.88678,1.44359 -3.02714,-3.6647 3.93021,-7.04021 -0.80446,-17.66242 z"
         style="fill:#00aad4;stroke:#000000;stroke-width:2.33363318;stroke-linecap:butt;stroke-linejoin:miter;stroke-opacity:1" />
      <path
         sodipodi:nodetypes="ccscssc"
         inkscape:connector-curvature="0"
         id="path4070-3"
         d="m 519.32519,802.4414 c -0.70119,6.22679 -7.04662,12.50134 -2.12671,18.71787 -1.88958,3.49018 1.30054,7.01271 4.28008,6.65078 2.61689,-0.31787 1.03484,-3.57438 5.21314,-4.38873 -6.30101,-2.4372 -3.7539,-4.31467 -4.09962,-6.51706 -0.17269,-1.10016 -2.82748,0.75697 -3.90079,-0.54239 -1.85759,-2.24883 1.66004,-7.25186 0.6339,-13.92047 z"
         style="fill:#80e5ff;stroke:none;display:inline" />
    </g>
    <path
       style="fill:none;stroke:#fefefe;stroke-width:3;stroke-opacity:1;display:inline"
       d="m 296.54966,169.01367 c 18.35048,6.36104 29.26637,14.33532 29.26637,22.99159 0,8.12576 -9.61878,15.65058 -25.97674,21.80415"
       id="path6183"
       inkscape:connector-curvature="0"
       sodipodi:nodetypes="csc" />
    <g
       transform="matrix(1.2855491,0,0,1.2855491,-365.80848,-916.48962)"
       style="stroke-width:2.33363318;display:inline"
       id="g4222">
      <path
         sodipodi:nodetypes="cssssssssc"
         inkscape:connector-curvature="0"
         id="path4070-2"
         d="m 543.96299,842.49839 c -6.35764,5.74058 -3.27303,8.70901 -3.70467,12.11605 -0.55451,4.37688 -3.27232,-2.93542 -3.45291,1.12137 -0.12112,2.72076 0.34485,4.95103 3.24703,6.93033 3.17136,2.16288 -4.07742,2.9357 -0.87979,5.83825 2.04596,1.85716 8.01952,4.50859 12.72879,1.35217 5.2427,-3.51395 -3.71653,-6.21283 -6.50641,-10.59345 -0.96559,-1.51615 6.72593,-2.37744 3.55971,-3.50378 -2.79823,-0.99543 -3.65626,-1.69045 -4.74593,-3.45715 -1.41854,-2.29991 -2.51088,-4.05125 -0.24582,-9.80379 z"
         style="fill:#00aad4;stroke:#000000;stroke-width:2.33363318;stroke-linecap:butt;stroke-linejoin:miter;stroke-opacity:1;display:inline" />
      <path
         sodipodi:nodetypes="csssssssc"
         inkscape:connector-curvature="0"
         id="path4070-2-1"
         d="m 541.79309,847.16775 c -1.19268,2.6957 -0.98922,4.82583 -0.0753,6.76502 1.82005,3.86166 -2.03074,3.89062 -2.15029,5.32912 -0.0797,0.95913 2.13189,1.04086 3.25574,3.98572 1.05264,2.75828 -2.06056,3.15675 -1.12866,4.65345 0.92115,1.47944 12.6256,1.26871 8.07135,-1.92824 -3.68064,-2.58371 -6.68753,-5.03115 -6.23512,-6.83592 0.52864,-2.10886 4.51295,-1.39258 1.70483,-3.72223 -1.4115,-1.17099 -4.10108,-4.16406 -3.44259,-8.24692 z"
         style="fill:#80e5ff;stroke:none;display:inline" />
    </g>
    <path
       inkscape:connector-curvature="0"
       style="fill:none;stroke:#fefefe;stroke-width:3;stroke-opacity:1;display:inline"
       d="m 49.686358,163.05794 c 12.7312,-4.25237 28.205561,-7.89164 45.705468,-10.72586"
       id="path6567" />
    <g
       id="g6856"
       transform="translate(0,-20)">
      <path
         sodipodi:nodetypes="csssssssscc"
         inkscape:connector-curvature="0"
         id="path4020-4"
         d="m 33.216329,206.25291 c -5.142594,-2.07869 -12.905006,-3.5185 -13.288871,-10.60136 -1.227441,-22.64835 10.856571,-26.00744 19.996305,-26.75116 8.878805,-0.72248 28.00733,-0.16871 35.377015,1.55996 14.462211,3.39239 17.34657,19.06745 17.45632,27.51642 l 0.618525,47.60966 c 0.167819,12.92629 -9.15066,19.81902 -19.63561,21.90211 -10.005129,1.98774 -30.328528,1.38696 -37.620532,-0.10233 -9.18757,-1.87649 -16.072468,-8.69935 -16.465907,-18.93405 l -1.365113,-35.51207 c -0.160166,-4.16921 7.719399,-6.05376 14.927868,-6.68713 z"
         style="fill:#ffeeaa;stroke:none;display:inline" />
      <path
         sodipodi:nodetypes="cssc"
         inkscape:connector-curvature="0"
         id="path4036-5"
         d="m 75.211174,267.35633 0.266961,4.50089 c 0.533887,9.00157 -38.630077,8.15762 -38.39296,1.48932 l 0.237242,-6.67152"
         style="fill:#800033;stroke:#000000;stroke-width:3;stroke-linecap:butt;stroke-linejoin:miter;stroke-opacity:1;display:inline" />
      <path
         sodipodi:nodetypes="cc"
         inkscape:connector-curvature="0"
         id="path4024"
         d="m 20.769362,249.05123 c 3.749733,13.23877 60.378551,13.71529 71.96695,0.10714"
         style="fill:none;stroke:#ffcc00;stroke-width:3;stroke-linecap:butt;stroke-linejoin:miter;stroke-opacity:1" />
      <path
         sodipodi:nodetypes="cc"
         inkscape:connector-curvature="0"
         id="path4026"
         d="m 19.098723,230.32779 c 5.70549,12.20871 65.151039,12.34807 73.601836,-0.87634"
         style="fill:none;stroke:#ffcc00;stroke-width:3;stroke-linecap:butt;stroke-linejoin:miter;stroke-opacity:1" />
      <path
         sodipodi:nodetypes="cc"
         inkscape:connector-curvature="0"
         id="path4028"
         d="m 21.993371,182.85469 c -1.239477,9.01452 66.026808,11.88117 67.824054,0.7749"
         style="fill:none;stroke:#ffcc00;stroke-width:3;stroke-linecap:butt;stroke-linejoin:miter;stroke-opacity:1" />
      <path
         sodipodi:nodetypes="cc"
         inkscape:connector-curvature="0"
         id="path4030"
         d="m 24.786167,208.71359 c 3.303675,6.03674 62.201877,11.36829 67.322685,-1.83752"
         style="fill:none;stroke:#ffcc00;stroke-width:3;stroke-linecap:butt;stroke-linejoin:miter;stroke-opacity:1" />
      <path
         sodipodi:nodetypes="ccccc"
         inkscape:connector-curvature="0"
         id="path4022-9"
         d="m 21.075546,195.16762 c 9.804083,-9.59466 36.681771,22.52574 48.214795,9.56982 -6.743614,18.57702 -50.327723,18.12365 -50.586231,7.86326 -0.420952,-5.07317 5.349849,-4.3764 10.415741,-5.57569 -6.848505,-1.27245 -9.214763,-6.37462 -8.044305,-11.85739 z"
         style="fill:#aa0000;stroke:none;display:inline" />
      <path
         sodipodi:nodetypes="ssssssssscs"
         inkscape:connector-curvature="0"
         id="path4020"
         d="m 20.200559,195.28064 c -1.227441,-22.64835 10.856571,-26.00744 19.996305,-26.75116 8.878805,-0.72248 28.00733,-0.16871 35.377014,1.55996 14.462212,3.39239 17.346571,19.06745 17.456321,27.51642 l 0.618525,47.60966 c 0.167819,12.92629 -9.15066,19.81902 -19.63561,21.90211 -10.005129,1.98775 -30.328528,1.38696 -37.620532,-0.10233 -9.18757,-1.87649 -16.072468,-8.69935 -16.465907,-18.93405 l -1.365113,-35.51207 c -0.160344,-4.16921 7.99465,-4.72709 10.449319,-5.96468 -2.402918,-1.23756 -8.426457,-4.24099 -8.810322,-11.32386 z"
         style="fill:none;stroke:#000000;stroke-width:3;stroke-linecap:butt;stroke-linejoin:miter;stroke-opacity:1" />
      <path
         inkscape:connector-curvature="0"
         id="path4022"
         d="m 20.260942,195.40874 c 9.706175,-12.80896 34.126331,23.68147 49.806801,8.77382 -6.743613,18.57702 -51.249524,18.66832 -51.508032,8.40792"
         style="fill:none;stroke:#000000;stroke-width:3;stroke-linecap:butt;stroke-linejoin:miter;stroke-opacity:1"
         sodipodi:nodetypes="ccc" />
      <path
         sodipodi:nodetypes="sssss"
         inkscape:connector-curvature="0"
         id="path4036"
         d="m 37.198591,170.37685 -0.05749,-7.15069 c -0.05076,-6.31371 37.7762,-5.89551 37.803726,0.48908 l 0.03257,7.55464 c 0.01712,3.97004 -37.735569,4.4848 -37.778806,-0.89303 z"
         style="fill:#800033;stroke:#000000;stroke-width:3;stroke-linecap:butt;stroke-linejoin:miter;stroke-opacity:1" />
      <path
         sodipodi:nodetypes="cc"
         inkscape:connector-curvature="0"
         id="path6828"
         d="m 37.366651,163.17255 c -3.188166,5.54994 41.305047,6.16986 37.325031,0.21372"
         style="fill:none;stroke:#000000;stroke-width:3;stroke-linecap:butt;stroke-linejoin:miter;stroke-opacity:1" />
    </g>
    <path
       style="fill:none;stroke:#000000;stroke-width:3;display:inline"
       d="m 219.89073,237.41842 c -11.26914,0.61623 -22.93661,0.93983 -34.88663,0.93983 -54.59409,0 -103.290954,-6.75405 -135.050303,-17.30888"
       id="path6592"
       inkscape:connector-curvature="0"
       sodipodi:nodetypes="csc" />
    <path
       style="fill:none;stroke:#000000;stroke-width:3;display:inline"
       d="m 185.00665,229.67491 c -41.84673,0 -79.43005,-4.88292 -105.221759,-12.63496"
       id="path6588"
       inkscape:connector-curvature="0"
       sodipodi:nodetypes="cc" />
    <g
       transform="matrix(1.2855491,0,0,1.2855491,-679.47963,-804.77537)"
       style="stroke-width:2.33363318;display:inline"
       id="g4226">
      <path
         sodipodi:nodetypes="ccscssc"
         inkscape:connector-curvature="0"
         id="path4070-6"
         d="m 621.55739,795.61563 c 0.59388,9.25878 -13.58925,19.87728 -4.27462,23.76676 -3.38201,6.83236 2.58829,6.39809 8.09212,2.90785 4.83392,-3.06541 0.43028,-4.28141 8.13825,-9.61048 -11.74551,2.84417 -4.36393,-4.25767 -6.21194,-6.15506 -0.9984,-1.02507 -2.43938,4.71895 -4.46955,3.95091 -3.51362,-1.32925 4.32108,-8.52993 -1.27426,-14.85998 z"
         style="fill:#00aad4;stroke:#000000;stroke-width:2.33363318;stroke-linecap:butt;stroke-linejoin:miter;stroke-opacity:1;display:inline" />
      <path
         sodipodi:nodetypes="ccscssc"
         inkscape:connector-curvature="0"
         id="path4070-3-8"
         d="m 621.38047,800.58829 c -0.6695,5.84271 -7.74991,15.18817 -2.03402,17.57493 -2.07537,4.19265 1.6205,5.29837 4.99789,3.1566 2.96632,-1.88107 1.1027,-3.74169 5.8326,-7.01182 -7.20771,1.7454 -4.35249,-1.44857 -4.79016,-3.15103 -0.21862,-0.85043 -3.19659,2.39191 -4.44238,1.92061 -2.15612,-0.81569 1.73784,-7.32177 0.43607,-12.48929 z"
         style="fill:#80e5ff;stroke:none;display:inline" />
    </g>
    <path
       style="fill:none;stroke:#fefefe;stroke-width:3;stroke-opacity:1;display:inline"
       d="m 334.74943,168.67549 c 3.55748,1.6303 6.75354,3.32394 9.5588,5.07306"
       id="path6181"
       inkscape:connector-curvature="0"
       sodipodi:nodetypes="cc" />
    <path
       style="fill:none;stroke:#fefefe;stroke-width:3;stroke-opacity:1;display:inline"
       d="m 338.07741,213.74126 c -10.70644,5.38442 -25.26696,10.13701 -42.69721,13.99447"
       id="path6588-2"
       inkscape:connector-curvature="0"
       sodipodi:nodetypes="cc" />
  </g>
  <g
     inkscape:groupmode="layer"
     id="layer4"
     inkscape:label="字幕"
     style="display:inline"
     sodipodi:insensitive="true">
    <text
       xml:space="preserve"
       style="font-size:27.4338131px;font-style:normal;font-variant:normal;font-weight:bold;font-stretch:normal;line-height:125%;letter-spacing:0px;word-spacing:0px;writing-mode:lr-tb;fill:#000000;fill-opacity:1;stroke:none;font-family:HGHeiseiMinchotaiW3;-inkscape-font-specification:HGHeiseiMinchotaiW3 Bold"
       x="5.2034621"
       y="59.532646"
       id="text6768-1"
       sodipodi:linespacing="125%"><tspan
         sodipodi:role="line"
         x="5.2034621"
         y="59.532646"
         style="font-size:27.4338131px;font-style:normal;font-variant:normal;font-weight:bold;font-stretch:normal;fill:#000000;fill-opacity:1;font-family:HGHeiseiMinchotaiW3;-inkscape-font-specification:HGHeiseiMinchotaiW3 Bold"
         id="tspan3151-4">もうしばらくお待ちください</tspan></text>
  </g>
  <g
     inkscape:groupmode="layer"
     id="layer2"
     inkscape:label="枠面"
     sodipodi:insensitive="true">
    <path
       style="fill:#ffffff;stroke:none;display:inline"
       d="m 0,0 0,320 370,0 0,-320 -10,10 0,300 -350,0 0,-300 350,0 10,-10 z"
       id="path21072"
       inkscape:connector-curvature="0"
       sodipodi:nodetypes="ccccccccccc" />
  </g>
</svg>
