<?xml version="1.0" encoding="UTF-8" standalone="no"?>
<!-- Created with Inkscape (http://www.inkscape.org/) -->

<svg
   xmlns:dc="http://purl.org/dc/elements/1.1/"
   xmlns:cc="http://creativecommons.org/ns#"
   xmlns:rdf="http://www.w3.org/1999/02/22-rdf-syntax-ns#"
   xmlns:svg="http://www.w3.org/2000/svg"
   xmlns="http://www.w3.org/2000/svg"
   xmlns:sodipodi="http://sodipodi.sourceforge.net/DTD/sodipodi-0.dtd"
   xmlns:inkscape="http://www.inkscape.org/namespaces/inkscape"
   width="370"
   height="320"
   id="svg3172"
   version="1.1"
   inkscape:version="0.48.4 r9939"
   sodipodi:docname="[17]告白.svg"
   inkscape:export-filename="C:\Users\執安\Desktop\資料\臨時\svg\BUTAS\[22.成功].png"
   inkscape:export-xdpi="90"
   inkscape:export-ydpi="90">
  <defs
     id="defs3174" />
  <sodipodi:namedview
     id="base"
     pagecolor="#ffffff"
     bordercolor="#666666"
     borderopacity="1.0"
     inkscape:pageopacity="0.0"
     inkscape:pageshadow="2"
     inkscape:zoom="0.47175914"
     inkscape:cx="-179.69523"
     inkscape:cy="96.159142"
     inkscape:document-units="px"
     inkscape:current-layer="layer3"
     showgrid="false"
     inkscape:window-width="1100"
     inkscape:window-height="698"
     inkscape:window-x="-5"
     inkscape:window-y="-5"
     inkscape:window-maximized="0" />
  <metadata
     id="metadata3177">
    <rdf:RDF>
      <cc:Work
         rdf:about="">
        <dc:format>image/svg+xml</dc:format>
        <dc:type
           rdf:resource="http://purl.org/dc/dcmitype/StillImage" />
        <dc:title></dc:title>
      </cc:Work>
    </rdf:RDF>
  </metadata>
  <g
     inkscape:label="補助線"
     inkscape:groupmode="layer"
     id="layer1"
     transform="translate(0,-732.36218)"
     sodipodi:insensitive="true"
     style="display:none">
    <path
       style="fill:none;stroke:#0000ff;stroke-width:1px;stroke-linecap:butt;stroke-linejoin:miter;stroke-opacity:1;display:inline"
       d="M 10,1042.3622 360,742.36211"
       id="path3025"
       inkscape:connector-curvature="0"
       sodipodi:nodetypes="cc" />
    <path
       style="fill:none;stroke:#0000ff;stroke-width:1px;stroke-linecap:butt;stroke-linejoin:miter;stroke-opacity:1;display:inline"
       d="M 10,742.36211 360,1042.3622"
       id="path3027"
       inkscape:connector-curvature="0"
       sodipodi:nodetypes="cc" />
    <path
       style="fill:none;stroke:#ff0000;stroke-width:1px;stroke-linecap:butt;stroke-linejoin:miter;stroke-opacity:1;display:inline"
       d="m 10,732.36211 0,320.00009"
       id="path3006"
       inkscape:connector-curvature="0"
       sodipodi:nodetypes="cc" />
    <path
       style="fill:none;stroke:#ff0000;stroke-width:1px;stroke-linecap:butt;stroke-linejoin:miter;stroke-opacity:1;display:inline"
       d="m 360,732.36211 0,320.00009"
       id="path3010"
       inkscape:connector-curvature="0"
       sodipodi:nodetypes="cc" />
    <path
       style="fill:none;stroke:#ff0000;stroke-width:1px;stroke-linecap:butt;stroke-linejoin:miter;stroke-opacity:1;display:inline"
       d="m 0,742.36208 370,3e-5"
       id="path3016"
       inkscape:connector-curvature="0" />
    <path
       style="fill:none;stroke:#ff0000;stroke-width:1px;stroke-linecap:butt;stroke-linejoin:miter;stroke-opacity:1;display:inline"
       d="m 0,1042.3622 370,0"
       id="path3018"
       inkscape:connector-curvature="0"
       sodipodi:nodetypes="cc" />
  </g>
  <g
     inkscape:groupmode="layer"
     id="layer3"
     inkscape:label="豚"
     style="display:inline"
     sodipodi:insensitive="true">
    <path
       transform="matrix(2.8072059,0,0,2.8072059,-3607.6316,-1489.7299)"
       sodipodi:type="arc"
       style="fill:#000000;fill-opacity:1;stroke:none;display:inline"
       id="path12650"
       sodipodi:cx="1355.1702"
       sodipodi:cy="620.57269"
       sodipodi:rx="57.629204"
       sodipodi:ry="10.960155"
       d="m 1412.7994,620.57269 a 57.629204,10.960155 0 1 1 -115.2584,0 57.629204,10.960155 0 1 1 115.2584,0 z" />
    <g
       id="g3968"
       transform="matrix(1.638826,0,0,1.638826,-164.22304,-224.27609)"
       style="stroke-width:1.83057868">
      <path
         sodipodi:nodetypes="ccccccccc"
         inkscape:connector-curvature="0"
         id="path3871-4"
         d="m 195.80967,259.19037 8.21394,-3.44455 7.15408,3.44455 7.684,-1.85476 11.12856,1.58979 12.45339,-0.52993 -2.16065,19.53374 -42.08837,0.48623 z"
         style="fill:#ffffff;stroke:none;display:inline" />
      <path
         inkscape:connector-curvature="0"
         id="path3871"
         d="m 195.5447,259.32285 8.21394,-3.44455 7.15408,3.44455 7.684,-1.85476 11.12856,1.58979 12.45339,-0.52993"
         style="fill:none;stroke:#000000;stroke-width:1.83057868;stroke-linecap:butt;stroke-linejoin:miter;stroke-opacity:1" />
      <path
         inkscape:connector-curvature="0"
         id="path5072"
         d="m 175.1598,265.20926 c 1.6492,-21.97269 20.8117,-43.08056 46.7131,-43.1828 21.9626,-0.0867 48.2759,12.95818 52.9981,44.45617 4.1313,4.93519 8.0259,13.93017 7.9267,17.77106 -23.1479,21.98201 -117.2955,16.47965 -119.089,-2.6268 -3.6889,-25.3281 -0.1131,-32.65873 13.2677,-26.79122"
         style="fill:#fffff8;fill-opacity:1;stroke:#000000;stroke-width:1.83057868;stroke-linecap:butt;stroke-linejoin:miter;stroke-opacity:1;display:inline" />
      <path
         inkscape:connector-curvature="0"
         id="path5074"
         d="m 187.7896,257.32305 c 5.8502,6.16052 5.4903,-1.57469 11.4261,-0.62524 9.8783,1.58005 10.4354,15.19013 20.9311,5.60218 -5.2989,6.96367 -7.7809,12.717 -19.0983,10.43749 -8.0852,-1.62852 -9.1378,-8.62206 -13.2589,-15.41443 z"
         style="fill:#aa0000;stroke:#000000;stroke-width:1.83057868;stroke-linecap:butt;stroke-linejoin:miter;stroke-opacity:1;display:inline" />
      <path
         inkscape:connector-curvature="0"
         id="path5076"
         d="m 213.5324,248.26216 -5.4226,6.79184"
         style="fill:none;stroke:#000000;stroke-width:1.83057868;stroke-linecap:butt;stroke-linejoin:miter;stroke-opacity:1;display:inline" />
      <path
         inkscape:connector-curvature="0"
         id="path5078"
         d="m 196.8979,245.39545 1.4723,7.37903"
         style="fill:none;stroke:#000000;stroke-width:1.83057868;stroke-linecap:butt;stroke-linejoin:miter;stroke-opacity:1;display:inline" />
      <path
         sodipodi:nodetypes="ccc"
         inkscape:connector-curvature="0"
         id="path3910-85-8"
         d="m 196.0809,234.49983 18.2328,-15.94154 14.8334,20.3145"
         style="fill:#f8fcff;fill-opacity:1;stroke:#000000;stroke-width:1.83057868;stroke-linecap:butt;stroke-linejoin:miter;stroke-opacity:1;display:inline" />
      <path
         sodipodi:nodetypes="cc"
         inkscape:connector-curvature="0"
         id="path3908-16-8"
         d="m 191.8849,232.97429 c 5.8108,3.6119 59.3096,8.6953 69.6756,5.14779"
         style="fill:none;stroke:#000000;stroke-width:1.83057868;stroke-linecap:butt;stroke-linejoin:miter;stroke-opacity:1;display:inline" />
    </g>
  </g>
  <g
     inkscape:groupmode="layer"
     id="layer4"
     inkscape:label="吹き出し"
     sodipodi:insensitive="true">
    <path
       style="fill:#fefefe;fill-opacity:1;stroke:#000000;stroke-width:3"
       d="m 38.447936,39.786861 205.089234,0 c 14.39154,0 25.97752,11.58598 25.97752,25.97753 l 0,28.24943 c 0,14.391549 -11.58598,25.977529 -25.97752,25.977529 l -112.88285,0 c -21.29438,0 -8.54587,15.71165 9.34795,25.23989 -30.35918,-8.54512 -36.42061,-25.23989 -54.166824,-25.23989 l -47.38751,0 c -14.39155,0 -25.97753,-11.58598 -25.97753,-25.977529 l 0,-28.24943 c 0,-14.39155 11.58598,-25.97753 25.97753,-25.97753 z"
       id="rect13841"
       inkscape:connector-curvature="0"
       sodipodi:nodetypes="sssssscsssss" />
    <text
       xml:space="preserve"
       style="font-size:48.89624786px;font-style:normal;font-variant:normal;font-weight:normal;font-stretch:normal;line-height:125%;letter-spacing:0px;word-spacing:0px;writing-mode:lr-tb;fill:#000000;fill-opacity:1;stroke:none;font-family:MS UI Gothic;-inkscape-font-specification:MS UI Gothic"
       x="61.007446"
       y="95.20472"
       id="text6768-1"
       sodipodi:linespacing="125%"><tspan
         sodipodi:role="line"
         x="61.007446"
         y="95.20472"
         style="font-size:48.89624786px;font-style:normal;font-variant:normal;font-weight:normal;font-stretch:normal;fill:#000000;fill-opacity:1;font-family:MS UI Gothic;-inkscape-font-specification:MS UI Gothic"
         id="tspan3151-4">In 墓穴.</tspan></text>
  </g>
  <g
     inkscape:groupmode="layer"
     id="layer2"
     inkscape:label="枠面"
     sodipodi:insensitive="true">
    <path
       style="fill:#ffffff;stroke:none;display:inline"
       d="m 0,0 0,320 370,0 0,-320 -10,10 0,300 -350,0 0,-300 350,0 10,-10 z"
       id="path21072"
       inkscape:connector-curvature="0"
       sodipodi:nodetypes="ccccccccccc" />
  </g>
</svg>
