<?xml version="1.0" encoding="UTF-8" standalone="no"?>
<!-- Created with Inkscape (http://www.inkscape.org/) -->

<svg
   xmlns:dc="http://purl.org/dc/elements/1.1/"
   xmlns:cc="http://creativecommons.org/ns#"
   xmlns:rdf="http://www.w3.org/1999/02/22-rdf-syntax-ns#"
   xmlns:svg="http://www.w3.org/2000/svg"
   xmlns="http://www.w3.org/2000/svg"
   xmlns:sodipodi="http://sodipodi.sourceforge.net/DTD/sodipodi-0.dtd"
   xmlns:inkscape="http://www.inkscape.org/namespaces/inkscape"
   width="370"
   height="320"
   id="svg3172"
   version="1.1"
   inkscape:version="0.48.4 r9939"
   sodipodi:docname="[19]実践.svg"
   inkscape:export-filename="C:\Users\執安\Desktop\資料\臨時\ANCESTOR\org\[19]実践.png"
   inkscape:export-xdpi="90"
   inkscape:export-ydpi="90">
  <defs
     id="defs3174" />
  <sodipodi:namedview
     id="base"
     pagecolor="#ffffff"
     bordercolor="#666666"
     borderopacity="1.0"
     inkscape:pageopacity="0.0"
     inkscape:pageshadow="2"
     inkscape:zoom="1.0117022"
     inkscape:cx="338.27652"
     inkscape:cy="34.004804"
     inkscape:document-units="px"
     inkscape:current-layer="layer3"
     showgrid="false"
     inkscape:window-width="1100"
     inkscape:window-height="698"
     inkscape:window-x="-5"
     inkscape:window-y="-5"
     inkscape:window-maximized="0" />
  <metadata
     id="metadata3177">
    <rdf:RDF>
      <cc:Work
         rdf:about="">
        <dc:format>image/svg+xml</dc:format>
        <dc:type
           rdf:resource="http://purl.org/dc/dcmitype/StillImage" />
        <dc:title></dc:title>
      </cc:Work>
    </rdf:RDF>
  </metadata>
  <g
     inkscape:label="補助線"
     inkscape:groupmode="layer"
     id="layer1"
     transform="translate(0,-732.36218)"
     sodipodi:insensitive="true"
     style="display:none">
    <path
       style="fill:none;stroke:#0000ff;stroke-width:1px;stroke-linecap:butt;stroke-linejoin:miter;stroke-opacity:1;display:inline"
       d="M 10,1042.3622 360,742.36211"
       id="path3025"
       inkscape:connector-curvature="0"
       sodipodi:nodetypes="cc" />
    <path
       style="fill:none;stroke:#0000ff;stroke-width:1px;stroke-linecap:butt;stroke-linejoin:miter;stroke-opacity:1;display:inline"
       d="M 10,742.36211 360,1042.3622"
       id="path3027"
       inkscape:connector-curvature="0"
       sodipodi:nodetypes="cc" />
    <path
       style="fill:none;stroke:#ff0000;stroke-width:1px;stroke-linecap:butt;stroke-linejoin:miter;stroke-opacity:1;display:inline"
       d="m 10,732.36211 0,320.00009"
       id="path3006"
       inkscape:connector-curvature="0"
       sodipodi:nodetypes="cc" />
    <path
       style="fill:none;stroke:#ff0000;stroke-width:1px;stroke-linecap:butt;stroke-linejoin:miter;stroke-opacity:1;display:inline"
       d="m 360,732.36211 0,320.00009"
       id="path3010"
       inkscape:connector-curvature="0"
       sodipodi:nodetypes="cc" />
    <path
       style="fill:none;stroke:#ff0000;stroke-width:1px;stroke-linecap:butt;stroke-linejoin:miter;stroke-opacity:1;display:inline"
       d="m 0,742.36208 370,3e-5"
       id="path3016"
       inkscape:connector-curvature="0" />
    <path
       style="fill:none;stroke:#ff0000;stroke-width:1px;stroke-linecap:butt;stroke-linejoin:miter;stroke-opacity:1;display:inline"
       d="m 0,1042.3622 370,0"
       id="path3018"
       inkscape:connector-curvature="0"
       sodipodi:nodetypes="cc" />
  </g>
  <g
     inkscape:groupmode="layer"
     id="layer3"
     inkscape:label="豚"
     style="display:inline"
     sodipodi:insensitive="true">
    <path
       inkscape:connector-curvature="0"
       style="fill:#000000;fill-opacity:1;stroke:none;display:inline"
       d="m 34.879013,251.97989 c 0,16.99238 72.430117,30.76742 161.777027,30.76742 89.34718,0 161.77703,-13.77504 161.77703,-30.76742 0,-16.99236 -72.42985,-30.7674 -161.77703,-30.7674 -89.34691,0 -161.777027,13.77504 -161.777027,30.7674 z"
       id="path12650-1" />
    <path
       style="fill:none;stroke:#000000;stroke-width:3;display:inline"
       d="m 34.833151,252.34542 c 0,-16.99236 72.429839,-30.7674 161.777029,-30.7674 89.34691,0 161.77703,13.77504 161.77703,30.7674"
       id="path12650"
       inkscape:connector-curvature="0" />
    <path
       inkscape:connector-curvature="0"
       id="path5072-4"
       d="m 199.32324,139.51569 c 35.99311,-0.0616 77.63316,23.70729 85.37202,75.32701 13.75977,17.87291 12.53892,54.6055 33.3442,65.09361 -33.4605,86.43401 -218.44217,100.67625 -213.33829,-37.85339 -10.239021,-42.20729 -0.88428,-58.41447 21.04453,-48.79864 6.62545,-22.21329 26.32627,-53.6877 73.57754,-53.76859 z"
       style="fill:#fffff8;fill-opacity:1;stroke:none;display:inline"
       sodipodi:nodetypes="sccccs" />
    <path
       inkscape:connector-curvature="0"
       id="path5072-4-0"
       d="m 296.35174,239.99075 c 4.90023,16.21992 9.24769,33.35409 22.40759,39.9881 -32.26387,83.34291 -219.994806,95.30444 -212.8227,-35.71678 5.26025,44.3335 196.48764,46.3786 190.41511,-4.27132 z"
       style="fill:#333333;fill-opacity:1;stroke:none;display:inline"
       sodipodi:nodetypes="cccc" />
    <path
       sodipodi:nodetypes="cscccc"
       style="fill:none;stroke:#000000;stroke-width:3;stroke-linecap:butt;stroke-linejoin:miter;stroke-opacity:1;display:inline"
       d="m 122.83339,210.35574 c 2.70276,-36.00941 28.17616,-71.58997 76.55465,-70.76909 35.98798,0.61064 77.63315,23.70729 85.37202,75.32701 13.75976,17.87291 12.53892,54.6055 33.34419,65.09361 -33.4605,86.43401 -218.442167,100.67625 -213.33829,-37.85339 -10.239024,-42.20729 -0.88428,-58.41448 21.04453,-48.79865"
       id="path5072"
       inkscape:connector-curvature="0" />
    <path
       style="fill:#aa0000;stroke:#000000;stroke-width:3;stroke-linecap:butt;stroke-linejoin:miter;stroke-opacity:1;display:inline"
       d="m 143.53144,197.43161 c 9.58746,10.09603 8.99765,-2.58064 18.72539,-1.02465 16.18881,2.58942 17.1018,24.89398 34.30243,9.18099 -8.68398,11.41225 -12.75154,20.84095 -31.29879,17.10523 -13.25024,-2.66886 -14.97527,-14.13005 -21.72903,-25.26157 z"
       id="path5074"
       inkscape:connector-curvature="0" />
    <path
       style="fill:none;stroke:#000000;stroke-width:3;stroke-linecap:butt;stroke-linejoin:miter;stroke-opacity:1;display:inline"
       d="m 185.71941,182.58239 -8.8867,11.13065"
       id="path5076"
       inkscape:connector-curvature="0" />
    <path
       style="fill:none;stroke:#000000;stroke-width:3;stroke-linecap:butt;stroke-linejoin:miter;stroke-opacity:1;display:inline"
       d="m 158.45836,177.88435 2.41284,12.09295"
       id="path5078"
       inkscape:connector-curvature="0" />
    <path
       style="fill:#f8fcff;fill-opacity:1;stroke:#000000;stroke-width:3;stroke-linecap:butt;stroke-linejoin:miter;stroke-opacity:1;display:inline"
       d="m 155.54685,159.15467 29.88039,-26.12541 24.30936,33.29193"
       id="path3910-85-8"
       inkscape:connector-curvature="0"
       sodipodi:nodetypes="ccc" />
    <path
       style="fill:none;stroke:#000000;stroke-width:3;stroke-linecap:butt;stroke-linejoin:miter;stroke-opacity:1;display:inline"
       d="m 148.67034,156.65458 c 9.52289,5.91927 95.10133,14.51218 112.0894,8.69843"
       id="path3908-16-8"
       inkscape:connector-curvature="0"
       sodipodi:nodetypes="cc" />
    <path
       style="fill:#fffff8;fill-opacity:1;stroke:#000000;stroke-width:3;stroke-linecap:butt;stroke-linejoin:miter;stroke-opacity:1"
       d="m 200.59228,251.50508 c 0.80585,43.46858 26.33192,35.99067 51.72065,20.96783"
       id="path3046"
       inkscape:connector-curvature="0"
       sodipodi:nodetypes="cc" />
    <path
       inkscape:connector-curvature="0"
       style="fill:#ffffff;stroke:none;display:inline"
       d="m 358.37531,251.99501 c 0,16.99238 -72.43012,30.76742 -161.77703,30.76742 -89.34719,0 -161.777037,-13.77504 -161.777037,-30.76742 l 10.109703,94.35525 293.406244,4.38961 z"
       id="path3026-7"
       sodipodi:nodetypes="cscccc" />
    <path
       style="fill:none;stroke:#000000;stroke-width:3;display:inline"
       d="m 358.38721,252.34542 c 0,16.99238 -72.43012,30.76742 -161.77703,30.76742 -89.34719,0 -161.777029,-13.77504 -161.777029,-30.76742"
       id="path3026"
       inkscape:connector-curvature="0" />
  </g>
  <g
     inkscape:groupmode="layer"
     id="layer4"
     inkscape:label="吹き出し"
     sodipodi:insensitive="true">
    <path
       style="fill:#fefefe;fill-opacity:1;stroke:#000000;stroke-width:3"
       d="m 38.447936,39.786861 205.089234,0 c 14.39154,0 25.97752,11.58598 25.97752,25.97753 l 0,28.24943 c 0,14.391549 -11.58598,25.977529 -25.97752,25.977529 l -112.88285,0 c -21.29438,0 -8.54587,15.71165 9.34795,25.23989 -30.35918,-8.54512 -36.42061,-25.23989 -54.166824,-25.23989 l -47.38751,0 c -14.39155,0 -25.97753,-11.58598 -25.97753,-25.977529 l 0,-28.24943 c 0,-14.39155 11.58598,-25.97753 25.97753,-25.97753 z"
       id="rect13841"
       inkscape:connector-curvature="0"
       sodipodi:nodetypes="sssssscsssss" />
    <text
       xml:space="preserve"
       style="font-size:48.89624786px;font-style:normal;font-variant:normal;font-weight:normal;font-stretch:normal;line-height:125%;letter-spacing:0px;word-spacing:0px;writing-mode:lr-tb;fill:#000000;fill-opacity:1;stroke:none;font-family:MS UI Gothic;-inkscape-font-specification:MS UI Gothic"
       x="61.007446"
       y="95.20472"
       id="text6768-1"
       sodipodi:linespacing="125%"><tspan
         sodipodi:role="line"
         x="61.007446"
         y="95.20472"
         style="font-size:48.89624786px;font-style:normal;font-variant:normal;font-weight:normal;font-stretch:normal;fill:#000000;fill-opacity:1;font-family:MS UI Gothic;-inkscape-font-specification:MS UI Gothic"
         id="tspan3151-4">In 墓穴.</tspan></text>
  </g>
  <g
     inkscape:groupmode="layer"
     id="layer2"
     inkscape:label="枠面"
     sodipodi:insensitive="true">
    <path
       style="fill:#ffffff;stroke:none;display:inline"
       d="m 0,0 0,320 370,0 0,-320 -10,10 0,300 -350,0 0,-300 350,0 10,-10 z"
       id="path21072"
       inkscape:connector-curvature="0"
       sodipodi:nodetypes="ccccccccccc" />
  </g>
</svg>
