<?xml version="1.0" encoding="UTF-8" standalone="no"?>
<!-- Created with Inkscape (http://www.inkscape.org/) -->

<svg
   xmlns:dc="http://purl.org/dc/elements/1.1/"
   xmlns:cc="http://creativecommons.org/ns#"
   xmlns:rdf="http://www.w3.org/1999/02/22-rdf-syntax-ns#"
   xmlns:svg="http://www.w3.org/2000/svg"
   xmlns="http://www.w3.org/2000/svg"
   xmlns:sodipodi="http://sodipodi.sourceforge.net/DTD/sodipodi-0.dtd"
   xmlns:inkscape="http://www.inkscape.org/namespaces/inkscape"
   width="370"
   height="320"
   id="svg3172"
   version="1.1"
   inkscape:version="0.48.4 r9939"
   sodipodi:docname="[00]規格.svg"
   inkscape:export-filename="C:\Users\執安\Desktop\資料\臨時\svg\BUTAS\[22.成功].png"
   inkscape:export-xdpi="90"
   inkscape:export-ydpi="90">
  <defs
     id="defs3174" />
  <sodipodi:namedview
     id="base"
     pagecolor="#ffffff"
     bordercolor="#666666"
     borderopacity="1.0"
     inkscape:pageopacity="0.0"
     inkscape:pageshadow="2"
     inkscape:zoom="0.94351827"
     inkscape:cx="13.723499"
     inkscape:cy="102.35303"
     inkscape:document-units="px"
     inkscape:current-layer="layer3"
     showgrid="false"
     inkscape:window-width="1100"
     inkscape:window-height="698"
     inkscape:window-x="-5"
     inkscape:window-y="-5"
     inkscape:window-maximized="0" />
  <metadata
     id="metadata3177">
    <rdf:RDF>
      <cc:Work
         rdf:about="">
        <dc:format>image/svg+xml</dc:format>
        <dc:type
           rdf:resource="http://purl.org/dc/dcmitype/StillImage" />
        <dc:title></dc:title>
      </cc:Work>
    </rdf:RDF>
  </metadata>
  <g
     inkscape:label="補助線"
     inkscape:groupmode="layer"
     id="layer1"
     transform="translate(0,-732.36218)"
     sodipodi:insensitive="true"
     style="display:none">
    <path
       style="fill:none;stroke:#0000ff;stroke-width:1px;stroke-linecap:butt;stroke-linejoin:miter;stroke-opacity:1;display:inline"
       d="M 10,1042.3622 360,742.36211"
       id="path3025"
       inkscape:connector-curvature="0"
       sodipodi:nodetypes="cc" />
    <path
       style="fill:none;stroke:#0000ff;stroke-width:1px;stroke-linecap:butt;stroke-linejoin:miter;stroke-opacity:1;display:inline"
       d="M 10,742.36211 360,1042.3622"
       id="path3027"
       inkscape:connector-curvature="0"
       sodipodi:nodetypes="cc" />
    <path
       style="fill:none;stroke:#ff0000;stroke-width:1px;stroke-linecap:butt;stroke-linejoin:miter;stroke-opacity:1;display:inline"
       d="m 10,732.36211 0,320.00009"
       id="path3006"
       inkscape:connector-curvature="0"
       sodipodi:nodetypes="cc" />
    <path
       style="fill:none;stroke:#ff0000;stroke-width:1px;stroke-linecap:butt;stroke-linejoin:miter;stroke-opacity:1;display:inline"
       d="m 360,732.36211 0,320.00009"
       id="path3010"
       inkscape:connector-curvature="0"
       sodipodi:nodetypes="cc" />
    <path
       style="fill:none;stroke:#ff0000;stroke-width:1px;stroke-linecap:butt;stroke-linejoin:miter;stroke-opacity:1;display:inline"
       d="m 0,742.36208 370,3e-5"
       id="path3016"
       inkscape:connector-curvature="0" />
    <path
       style="fill:none;stroke:#ff0000;stroke-width:1px;stroke-linecap:butt;stroke-linejoin:miter;stroke-opacity:1;display:inline"
       d="m 0,1042.3622 370,0"
       id="path3018"
       inkscape:connector-curvature="0"
       sodipodi:nodetypes="cc" />
  </g>
  <g
     inkscape:groupmode="layer"
     id="layer3"
     inkscape:label="豚"
     style="display:inline"
     sodipodi:insensitive="true">
    <path
       sodipodi:nodetypes="ccscscscscscscccscscscscscscscscscccscscc"
       inkscape:connector-curvature="0"
       id="path6534-4-9"
       d="m 423.8866,343.26934 c 8.42334,-75.76557 -8.74595,-122.35075 -36.09525,-157.15428 21.18301,34.65788 26.45978,80.24404 21.84361,87.95961 -2.89789,4.84356 -10.78996,-30.6311 -18.11511,-42.67329 4.1094,19.77615 4.97506,46.8633 0.95904,49.92572 -5.37858,4.10143 -5.4123,-18.62495 -24.25323,-49.15138 3.17013,17.28613 10.67309,64.70752 8.30362,70.10005 -3.03552,6.90831 -4.3442,-38.6063 -25.88068,-64.0454 8.86915,16.59697 8.40764,44.30335 6.13068,51.96503 -3.23758,10.89385 -10.93931,-32.76705 -22.92274,-43.08157 1.23172,9.17093 7.30394,51.73663 4.40127,54.83697 -5.14216,5.49237 -7.42693,-33.19234 -14.00179,-38.8617 1.91052,5.41294 -3.07731,31.28747 -3.27669,34.89877 -0.51999,9.41805 -1.63905,-55.42337 -27.59962,-88.5546 9.58418,34.86137 5.18494,61.60371 5.51123,69.5914 -9.3158,-20.45917 -9.65072,-35.01899 -28.86679,-56.89411 13.04516,30.20609 24.61823,75.70576 12.59384,75.38172 -3.09026,-0.0833 -10.22169,-30.62164 -23.6331,-47.78313 4.10924,15.55831 0.93376,41.10174 -1.5105,43.27925 -7.22442,6.43589 -10.45792,-25.19346 -38.44061,-60.22013 8.53498,24.43401 14.0776,51.43747 7.37252,69.63627 -5.24439,14.23422 -5.44514,-99.70348 -50.40619,-140.16544 26.85705,48.08344 29.03412,85.04462 24.41795,92.76019 -2.89789,4.84356 -3.2956,-12.64463 -10.62075,-24.68682 4.1094,19.77615 4.44513,57.46193 0.42911,60.52435 -5.37858,4.10143 -4.88237,-29.22358 -23.72331,-59.75001 3.17014,17.28613 8.55337,44.04019 6.1839,49.43272 -3.03552,6.90831 -9.11358,-26.41787 -30.65007,-51.85697 8.86915,16.59697 19.00627,58.08156 16.72931,65.74324 -3.23758,10.89385 -11.46924,-18.98883 -23.45267,-29.30335 1.23172,9.17093 4.12435,32.6591 1.22168,35.75944 -5.14216,5.49237 -10.60651,-17.82433 -17.18138,-23.49369 1.91052,5.41294 0.10228,15.91946 -0.0971,19.53076 -0.51999,9.41805 0.48068,-29.98666 -28.659478,-55.69885 9.584178,19.78684 6.77473,25.40953 7.10102,34.61592 -12.49539,-24.69862 -23.95886,-47.2074 -44.2348,-65.90294 0,0 36.84862,86.83432 27.43192,86.51028 -3.08955,-0.10632 -10.22168,-30.62164 -23.6331,-47.78313 4.10925,15.55831 7.29295,36.33236 4.84869,38.50987 -7.22443,6.43589 -17.35161,-38.8587 -69.7065796,-85.12691 29.0691496,38.02582 42.3516896,87.82895 38.6412596,133.72694"
       style="fill:#5aa02c;stroke:#000000;stroke-width:3;stroke-linecap:butt;stroke-linejoin:miter;stroke-opacity:1;display:inline" />
    <g
       id="g4563"
       style="stroke-width:3"
       transform="matrix(-1,0,0,1,445.84057,-20)">
      <path
         sodipodi:nodetypes="csccscc"
         inkscape:connector-curvature="0"
         id="path5094"
         d="m 185.68698,181.61942 c 2.58622,-27.84418 28.58556,-57.82519 64.52746,-59.3214 34.41094,-1.43247 69.2987,19.64881 75.68223,69.78578 10.45111,14.44658 8.04181,43.72448 27.61053,49.13991 -14.79624,28.91482 -60.6125,60.21318 -105.216,56.05444 -44.15099,-4.11652 -72.09874,-31.25441 -69.41916,-73.62312 -15.95589,-7.55657 -12.07529,-30.85833 8.13865,-48.61724"
         style="fill:#fffff8;fill-opacity:1;stroke:#000000;stroke-width:3;stroke-linecap:butt;stroke-linejoin:miter;stroke-opacity:1;display:inline" />
      <path
         inkscape:connector-curvature="0"
         id="path5096"
         d="m 202.9152,174.69638 c -0.60485,8.20813 8.6718,15.6902 15.13373,8.69148 8.06551,-8.73551 22.87768,-1.59521 23.96471,9.91855"
         style="fill:none;stroke:#000000;stroke-width:3;stroke-linecap:butt;stroke-linejoin:miter;stroke-opacity:1;display:inline"
         sodipodi:nodetypes="csc" />
      <path
         inkscape:connector-curvature="0"
         id="path5098"
         d="m 237.00019,160.22213 -2.71955,13.86474"
         style="fill:none;stroke:#000000;stroke-width:3;stroke-linecap:butt;stroke-linejoin:miter;stroke-opacity:1;display:inline" />
      <path
         inkscape:connector-curvature="0"
         id="path5100"
         d="m 218.75728,156.27304 -1.98264,14.90826"
         style="fill:none;stroke:#000000;stroke-width:3;stroke-linecap:butt;stroke-linejoin:miter;stroke-opacity:1;display:inline" />
      <path
         inkscape:connector-curvature="0"
         id="path5102"
         d="m 261.84994,213.57359 c -18.08415,25.87115 -15.64215,38.45477 18.20769,35.75563"
         style="fill:none;stroke:#000000;stroke-width:3;stroke-linecap:butt;stroke-linejoin:miter;stroke-opacity:1;display:inline" />
      <path
         sodipodi:nodetypes="ccc"
         inkscape:connector-curvature="0"
         id="path3910-85-5"
         d="m 217.87056,138.72743 24.49549,-23.1901 20.11864,33.80684"
         style="fill:#f8fcff;fill-opacity:1;stroke:#000000;stroke-width:3;stroke-linecap:butt;stroke-linejoin:miter;stroke-opacity:1;display:inline" />
      <path
         sodipodi:nodetypes="cc"
         inkscape:connector-curvature="0"
         id="path3908-16-1"
         d="m 210.57796,137.04469 c 3.91022,5.57397 81.04347,21.62522 100.79303,15.3518"
         style="fill:none;stroke:#000000;stroke-width:3;stroke-linecap:butt;stroke-linejoin:miter;stroke-opacity:1;display:inline" />
    </g>
    <path
       sodipodi:nodetypes="ccscscscscscscccscscc"
       inkscape:connector-curvature="0"
       id="path6534"
       d="m -489.58791,145.93566 c -8.42334,-75.76557 18.81465,-148.8473203 46.16395,-179.94133 -26.48233,35.7177397 -29.03412,85.04462 -24.41795,92.76019 2.89789,4.84356 3.2956,-12.64463 10.62075,-24.68682 -4.1094,19.77615 -4.44513,57.46193 -0.42911,60.52435 5.37858,4.10143 4.88237,-29.22358 23.72331,-59.75001 -3.17014,17.28613 -8.55337,44.04019 -6.1839,49.43272 3.03552,6.90831 9.11358,-26.41787 30.65007,-51.85697 -8.86915,16.59697 -19.00627,58.08156 -16.72931,65.74324 3.23758,10.89385 11.46924,-18.98883 23.45267,-29.30335 -1.23172,9.17093 -4.12435,32.6591 -1.22168,35.75944 5.14216,5.49237 10.60651,-17.82433 17.18138,-23.49369 -1.91052,5.41294 -0.10228,15.91946 0.0971,19.53076 0.51999,9.41805 -0.48068,-29.98666 28.65948,-55.69885 -9.58418,19.78684 -6.77473,25.40953 -7.10102,34.61592 12.49539,-24.69862 23.95886,-47.2074 44.23479,-65.90294 0,0 -36.84861,86.83432 -27.43191,86.51028 3.08955,-0.10632 10.22168,-30.62164 23.63309,-47.78313 -4.10924,15.55831 -7.29294,36.33236 -4.84868,38.50987 7.22442,6.43589 17.3516,-38.8587 69.70657,-85.1269103 C -288.89746,43.80425 -302.18,93.60738 -298.46957,139.50537"
       style="fill:#447821;stroke:#000000;stroke-width:3;stroke-linecap:butt;stroke-linejoin:miter;stroke-opacity:1;display:inline" />
    <path
       sodipodi:nodetypes="ccscscscscscscccscscc"
       inkscape:connector-curvature="0"
       id="path6534-4"
       d="m -330.08219,155.9978 c -8.42334,-75.76557 8.74595,-122.35075 36.09525,-157.1542803 -21.18301,34.6578803 -26.45978,80.2440403 -21.84361,87.9596103 2.89789,4.84356 10.78996,-30.6311 18.11511,-42.67329 -4.1094,19.77615 -4.97506,46.8633 -0.95904,49.92572 5.37858,4.10143 5.4123,-18.62495 24.25324,-49.15138 -3.17014,17.28613 -10.6731,64.70752 -8.30363,70.10005 3.03552,6.90831 4.3442,-38.6063 25.88069,-64.0454 -8.86915,16.59697 -8.40764,44.30335 -6.13068,51.96503 3.23758,10.89385 10.93931,-32.76705 22.92274,-43.08157 -1.23172,9.17093 -7.30394,51.73663 -4.40127,54.83697 5.14216,5.49237 7.42693,-33.19234 14.00179,-38.8617 -1.91052,5.41294 3.07731,31.28747 3.27669,34.89877 0.51999,9.41805 1.63905,-55.42337 27.59962,-88.5546 -9.58418,34.86137 -5.18494,61.60371 -5.51123,69.5914 9.3158,-20.45917 9.65072,-35.01899 28.86678,-56.89411 -13.04515,30.20609 -24.61822,75.70576 -12.59383,75.38172 3.09026,-0.0833 10.22168,-30.62164 23.63309,-47.78313 -4.10924,15.55831 -0.93376,41.10174 1.5105,43.27925 7.22443,6.43589 -4.90552,-13.95192 38.44062,-60.22013 -21.65011,42.7952 -15.32518,71.40108 -13.73448,104.05078"
       style="fill:#447821;stroke:#000000;stroke-width:3;stroke-linecap:butt;stroke-linejoin:miter;stroke-opacity:1;display:inline" />
    <path
       sodipodi:nodetypes="ccscscscscscscscscscscscscscscscscscscscc"
       inkscape:connector-curvature="0"
       id="path6534-4-4"
       d="m 451.19456,347.53259 c 8.42334,-75.76557 -7.68609,-179.58335 -35.03538,-214.38688 21.183,34.65788 25.39991,137.47664 20.78374,145.19221 -2.89789,4.84356 -23.50831,-124.9589 -30.83346,-137.00109 4.1094,19.77615 17.69341,141.1911 13.67739,144.25352 -5.37858,4.10143 -9.65175,-92.81535 -28.49269,-123.34178 3.17014,17.28613 14.91255,138.89792 12.54308,144.29045 -3.03552,6.90831 -14.94283,-87.35999 -36.47932,-112.79909 8.86915,16.59697 19.00627,93.05704 16.72931,100.71872 -3.23758,10.89385 -17.29849,-69.86225 -29.28192,-80.17677 1.23172,9.17093 13.66312,88.83183 10.76045,91.93217 -5.14216,5.49237 -21.20516,-88.30521 -27.78002,-93.97457 1.91052,5.41294 10.70092,86.40034 10.50154,90.01164 -0.51999,9.41805 -1.63905,-55.42337 -27.59963,-88.5546 9.58418,34.86137 9.81697,62.85565 5.51123,69.5914 -4.15175,6.49487 0.53096,-46.18521 -18.6851,-78.65896 13.04515,39.74486 10.41533,106.12655 2.41215,97.14657 -3.09026,-3.46743 5.97755,-100.17633 -19.09235,-140.55879 15.76773,44.17461 -3.60698,133.8774 -6.05124,136.05491 -7.22442,6.43589 10.48406,-47.24668 1.46136,-103.49266 1.82826,55.81603 -29.74655,76.69651 -41.12098,99.66504 -7.04477,14.22558 66.36227,-90.90141 24.95471,-155.72638 22.5528,101.23578 -42.79878,141.97326 -47.41495,149.68883 -2.89787,4.84357 -31.00268,-89.7354 -66.05697,-127.25842 24.34418,40.76036 46.172,114.96083 42.15598,118.02325 -5.37858,4.10143 -22.39218,-73.33001 -62.96677,-121.09347 40.9959,71.89168 47.71577,122.14235 47.01715,142.04214 -0.26475,7.54116 -27.68325,-87.35999 -49.21974,-112.79909 8.86915,16.59697 31.74669,93.05704 29.46973,100.71872 -3.23758,10.89385 -17.29849,-69.86225 -29.28192,-80.17677 1.23172,9.17093 13.66312,88.83183 10.76045,91.93217 -5.14216,5.49237 -21.20515,-88.30521 -27.78001,-93.97457 1.91052,5.41294 10.70091,86.40034 10.50153,90.01164 -0.51999,9.41805 -7.63454,-55.42337 -33.595108,-88.5546 9.584178,34.86137 15.161828,62.48156 11.506718,69.5914 -5.650628,10.99148 -10.710578,-42.43803 -29.926638,-74.91178 13.04515,39.74486 21.65687,102.37937 13.65369,93.39939 -3.09026,-3.46743 -23.9999,-96.42915 -49.0698,-136.81161 15.76773,44.17461 26.37047,130.13022 23.92621,132.30773 -7.22442,6.43589 -6.75297,-45.74781 -35.26102,-100.49492 7.82375,54.31717 10.91748,112.69929 10.55489,144.32557"
       style="fill:#447821;stroke:#000000;stroke-width:3;stroke-linecap:butt;stroke-linejoin:miter;stroke-opacity:1;display:inline" />
  </g>
  <g
     inkscape:groupmode="layer"
     id="layer4"
     inkscape:label="字幕"
     sodipodi:insensitive="true">
    <text
       xml:space="preserve"
       style="font-size:39.38398743px;font-style:normal;font-variant:normal;font-weight:normal;font-stretch:normal;line-height:125%;letter-spacing:0px;word-spacing:0px;writing-mode:lr-tb;fill:#000000;fill-opacity:1;stroke:none;font-family:MS UI Gothic;-inkscape-font-specification:MS UI Gothic"
       x="7.4908733"
       y="53.613762"
       id="text6768-1"
       sodipodi:linespacing="125%"><tspan
         sodipodi:role="line"
         x="7.4908733"
         y="53.613762"
         style="font-size:39.38398743px;font-style:normal;font-variant:normal;font-weight:bold;font-stretch:normal;fill:#000000;fill-opacity:1;font-family:MS Mincho;-inkscape-font-specification:MS Mincho Bold"
         id="tspan3151-4">草場の陰より監視中</tspan></text>
  </g>
  <g
     inkscape:groupmode="layer"
     id="layer2"
     inkscape:label="枠面"
     sodipodi:insensitive="true">
    <path
       style="fill:#ffffff;stroke:none;display:inline"
       d="m 0,0 0,320 370,0 0,-320 -10,10 0,300 -350,0 0,-300 350,0 10,-10 z"
       id="path21072"
       inkscape:connector-curvature="0"
       sodipodi:nodetypes="ccccccccccc" />
  </g>
</svg>
