<?xml version="1.0" encoding="UTF-8" standalone="no"?>
<!-- Created with Inkscape (http://www.inkscape.org/) -->

<svg
   xmlns:dc="http://purl.org/dc/elements/1.1/"
   xmlns:cc="http://creativecommons.org/ns#"
   xmlns:rdf="http://www.w3.org/1999/02/22-rdf-syntax-ns#"
   xmlns:svg="http://www.w3.org/2000/svg"
   xmlns="http://www.w3.org/2000/svg"
   xmlns:sodipodi="http://sodipodi.sourceforge.net/DTD/sodipodi-0.dtd"
   xmlns:inkscape="http://www.inkscape.org/namespaces/inkscape"
   width="370"
   height="320"
   id="svg3172"
   version="1.1"
   inkscape:version="0.48.4 r9939"
   sodipodi:docname="[40]感謝.svg"
   inkscape:export-filename="C:\Users\執安\Desktop\資料\臨時\svg\BUTAS\[22.成功].png"
   inkscape:export-xdpi="90"
   inkscape:export-ydpi="90">
  <defs
     id="defs3174" />
  <sodipodi:namedview
     id="base"
     pagecolor="#ffffff"
     bordercolor="#666666"
     borderopacity="1.0"
     inkscape:pageopacity="0.0"
     inkscape:pageshadow="2"
     inkscape:zoom="1.1539459"
     inkscape:cx="103.08881"
     inkscape:cy="166.62612"
     inkscape:document-units="px"
     inkscape:current-layer="layer3"
     showgrid="false"
     inkscape:window-width="1100"
     inkscape:window-height="699"
     inkscape:window-x="-5"
     inkscape:window-y="-6"
     inkscape:window-maximized="0" />
  <metadata
     id="metadata3177">
    <rdf:RDF>
      <cc:Work
         rdf:about="">
        <dc:format>image/svg+xml</dc:format>
        <dc:type
           rdf:resource="http://purl.org/dc/dcmitype/StillImage" />
        <dc:title />
      </cc:Work>
    </rdf:RDF>
  </metadata>
  <g
     inkscape:label="補助線"
     inkscape:groupmode="layer"
     id="layer1"
     transform="translate(0,-732.36218)"
     sodipodi:insensitive="true"
     style="display:none">
    <path
       style="fill:none;stroke:#0000ff;stroke-width:1px;stroke-linecap:butt;stroke-linejoin:miter;stroke-opacity:1;display:inline"
       d="M 10,1042.3622 360,742.36211"
       id="path3025"
       inkscape:connector-curvature="0"
       sodipodi:nodetypes="cc" />
    <path
       style="fill:none;stroke:#0000ff;stroke-width:1px;stroke-linecap:butt;stroke-linejoin:miter;stroke-opacity:1;display:inline"
       d="M 10,742.36211 360,1042.3622"
       id="path3027"
       inkscape:connector-curvature="0"
       sodipodi:nodetypes="cc" />
    <path
       style="fill:none;stroke:#ff0000;stroke-width:1px;stroke-linecap:butt;stroke-linejoin:miter;stroke-opacity:1;display:inline"
       d="m 10,732.36211 0,320.00009"
       id="path3006"
       inkscape:connector-curvature="0"
       sodipodi:nodetypes="cc" />
    <path
       style="fill:none;stroke:#ff0000;stroke-width:1px;stroke-linecap:butt;stroke-linejoin:miter;stroke-opacity:1;display:inline"
       d="m 360,732.36211 0,320.00009"
       id="path3010"
       inkscape:connector-curvature="0"
       sodipodi:nodetypes="cc" />
    <path
       style="fill:none;stroke:#ff0000;stroke-width:1px;stroke-linecap:butt;stroke-linejoin:miter;stroke-opacity:1;display:inline"
       d="m 0,742.36208 370,3e-5"
       id="path3016"
       inkscape:connector-curvature="0" />
    <path
       style="fill:none;stroke:#ff0000;stroke-width:1px;stroke-linecap:butt;stroke-linejoin:miter;stroke-opacity:1;display:inline"
       d="m 0,1042.3622 370,0"
       id="path3018"
       inkscape:connector-curvature="0"
       sodipodi:nodetypes="cc" />
  </g>
  <g
     inkscape:groupmode="layer"
     id="layer3"
     inkscape:label="豚"
     style="display:inline"
     sodipodi:insensitive="true">
    <path
       style="fill:#b3b3b3;fill-opacity:1;stroke:#000000;stroke-width:3;display:inline"
       d="m 335.68264,36.432793 73.59926,0 0,191.382797 -73.59926,0 z"
       id="rect12809-8-3"
       inkscape:connector-curvature="0"
       sodipodi:nodetypes="ccccc" />
    <path
       style="fill:#e9afaf;fill-opacity:1;stroke:#000000;stroke-width:3;stroke-linecap:round;stroke-miterlimit:4;stroke-opacity:1;stroke-dashoffset:0;display:inline"
       d="m 306.95781,229.12162 c 0,7.64797 -9.52055,13.84786 -21.26473,13.84786 -11.74419,0 -21.26474,-6.19989 -21.26474,-13.84786 0,-7.64796 9.52055,-13.84786 21.26474,-13.84786 11.74418,0 21.26473,6.1999 21.26473,13.84786 z"
       id="path12815"
       inkscape:connector-curvature="0" />
    <path
       style="fill:#fffff8;fill-opacity:1;stroke:#000000;stroke-width:3;stroke-linecap:butt;stroke-linejoin:miter;stroke-opacity:1;display:inline"
       d="m 84.863371,211.21904 c 17.400749,13.20514 28.896869,43.78508 78.693179,45.95172 51.40131,2.23645 84.28969,-48.97584 59.13295,-99.54158 -2.35918,-27.44275 -20.15313,-51.18746 -52.66781,-53.84115 -41.89279,-3.41905 -65.51577,29.81279 -68.13457,58.54181 -14.011475,22.54937 5.89152,43.41354 -17.023749,48.8892 z"
       id="path4888"
       inkscape:connector-curvature="0" />
    <path
       style="fill:#aa0000;stroke:#000000;stroke-width:3;stroke-linecap:butt;stroke-linejoin:miter;stroke-opacity:1;display:inline"
       d="m 203.41963,152.83571 c -10.32424,10.9114 -7.99603,-2.43302 -18.05943,-1.64528 -10.04252,0.78611 -17.70999,16.17614 -25.68109,5.00929 9.72739,18.56905 28.27096,24.13903 43.74052,-3.36401 z"
       id="path5474"
       inkscape:connector-curvature="0" />
    <path
       style="fill:#f4d7d7;fill-opacity:1;stroke:#000000;stroke-width:3;stroke-linecap:round;stroke-miterlimit:4;stroke-opacity:1;stroke-dashoffset:0;display:inline"
       d="m 217.2931,186.81801 c 0,11.83353 -9.10102,21.42649 -20.32771,21.42649 -11.22668,0 -20.32771,-9.59296 -20.32771,-21.42649 0,-11.83353 9.10103,-21.42651 20.32771,-21.42651 11.22669,0 20.32771,9.59298 20.32771,21.42651 z"
       id="path12817"
       inkscape:connector-curvature="0" />
    <path
       style="fill:#fffff8;fill-opacity:1;stroke:#000000;stroke-width:3;stroke-linecap:butt;stroke-linejoin:miter;stroke-opacity:1;display:inline"
       d="m 162.15814,184.86606 c 29.53236,-9.01091 25.31131,15.10288 13.74347,27.10057"
       id="path5472"
       inkscape:connector-curvature="0" />
    <path
       style="fill:none;stroke:#000000;stroke-width:3;stroke-linecap:butt;stroke-linejoin:miter;stroke-opacity:1;display:inline"
       d="m 172.95704,139.94083 -11.33099,7.36082"
       id="path5476"
       inkscape:connector-curvature="0" />
    <path
       style="fill:none;stroke:#000000;stroke-width:3;stroke-linecap:butt;stroke-linejoin:miter;stroke-opacity:1;display:inline"
       d="m 199.4721,144.61464 -9.69661,-5.7911"
       id="path5478"
       inkscape:connector-curvature="0" />
    <path
       style="fill:#fffff8;fill-opacity:1;stroke:#000000;stroke-width:3;stroke-linecap:butt;stroke-linejoin:miter;stroke-opacity:1;display:inline"
       d="m 220.5395,176.9055 c -9.16456,-0.8797 -12.14908,6.00955 -1.93597,31.59338"
       id="path5480"
       inkscape:connector-curvature="0" />
    <path
       style="fill:#f8fcff;fill-opacity:1;stroke:#000000;stroke-width:3;stroke-linecap:butt;stroke-linejoin:miter;stroke-opacity:1;display:inline"
       d="m 157.10147,125.82065 20.72961,-24.09514 22.55103,24.02836"
       id="path3910-9"
       inkscape:connector-curvature="0"
       sodipodi:nodetypes="ccc" />
    <path
       style="fill:none;stroke:#000000;stroke-width:3;stroke-linecap:butt;stroke-linejoin:miter;stroke-opacity:1;display:inline"
       d="m 114.2424,129.00209 c 28.7711,-2.82997 66.08589,-5.03802 97.00559,-3.15691"
       id="path3908-77"
       inkscape:connector-curvature="0"
       sodipodi:nodetypes="cc" />
    <path
       style="fill:#fefefe;fill-opacity:1;stroke:#000000;stroke-width:3;stroke-linecap:round;stroke-miterlimit:4;stroke-opacity:1;stroke-dashoffset:0;display:inline"
       d="m 279.02929,244.23004 c 0,9.36692 -10.66806,16.96031 -23.82777,16.96031 -13.15972,0 -23.82778,-7.59339 -23.82778,-16.96031 0,-9.36692 10.66806,-16.96031 23.82778,-16.96031 13.15971,0 23.82777,7.59339 23.82777,16.96031 z"
       id="path12811"
       inkscape:connector-curvature="0" />
    <path
       style="fill:#803300;fill-opacity:1;stroke:#000000;stroke-width:3;stroke-linecap:round;stroke-miterlimit:4;stroke-opacity:1;stroke-dashoffset:0;display:inline"
       d="m 320.63954,249.72394 c 0,8.68057 -9.49672,15.71757 -21.21154,15.71757 -11.71482,0 -21.21156,-7.037 -21.21156,-15.71757 0,-8.68058 9.49674,-15.71758 21.21156,-15.71758 11.71482,0 21.21154,7.037 21.21154,15.71758 z"
       id="path12813"
       inkscape:connector-curvature="0" />
    <path
       style="fill:#b3b3b3;fill-opacity:1;stroke:#000000;stroke-width:3;display:inline"
       d="m 305.6315,194.01085 97.55419,0 0,104.38577 -97.55419,0 z"
       id="rect12809-8"
       inkscape:connector-curvature="0"
       sodipodi:nodetypes="ccccc" />
    <path
       style="fill:#b3b3b3;fill-opacity:1;stroke:#000000;stroke-width:3;display:inline"
       d="m 224.30594,252.74574 175.38714,0 0,62.63133 -175.38714,0 z"
       id="rect12809"
       inkscape:connector-curvature="0"
       sodipodi:nodetypes="ccccc" />
    <path
       style="fill:none;stroke:#000000;stroke-width:3;stroke-linecap:butt;stroke-linejoin:miter;stroke-opacity:1"
       d="m 195.02545,180.36364 5.12,13.96363"
       id="path13381"
       inkscape:connector-curvature="0" />
    <path
       style="fill:none;stroke:#000000;stroke-width:3;stroke-linecap:butt;stroke-linejoin:miter;stroke-opacity:1"
       d="m 199.68,179.43273 4.18909,13.96363"
       id="path13383"
       inkscape:connector-curvature="0" />
    <path
       style="fill:none;stroke:#000000;stroke-width:3;stroke-linecap:butt;stroke-linejoin:miter;stroke-opacity:1"
       d="m 204.8,178.03636 3.25818,13.03273"
       id="path13385"
       inkscape:connector-curvature="0" />
    <path
       style="fill:none;stroke:#000000;stroke-width:3;stroke-linecap:butt;stroke-linejoin:miter;stroke-opacity:1"
       d="M 193.16364,184.78545 207.36,179.43273"
       id="path13387"
       inkscape:connector-curvature="0" />
    <path
       style="fill:none;stroke:#000000;stroke-width:3;stroke-linecap:butt;stroke-linejoin:miter;stroke-opacity:1"
       d="m 195.72364,188.27636 12.33454,-4.88727"
       id="path13389"
       inkscape:connector-curvature="0" />
    <path
       style="fill:none;stroke:#000000;stroke-width:3;stroke-linecap:butt;stroke-linejoin:miter;stroke-opacity:1"
       d="M 196.42182,192.46545 210.15273,186.88"
       id="path13391"
       inkscape:connector-curvature="0" />
    <path
       style="fill:#217821;stroke:#000000;stroke-width:3;stroke-linecap:butt;stroke-linejoin:miter;stroke-opacity:1"
       d="m 238.28727,230.97139 c 5.25908,-8.36559 15.21063,-3.06281 30.2796,-5.26601 -2.04886,1.2068 -4.66179,2.57816 -11.35485,6.74709 7.58103,-6.9969 15.37744,3.34931 21.55775,2.633 -5.22736,5.01526 -26.60206,13.5653 -17.03083,17.77634 -3.41182,0.85864 -14.69561,0.0339 -20.48953,0.3256 -19.18068,0.96578 -15.02338,-17.77253 -10.20291,-25.34271 2.67328,1.47552 7.68508,-1.21501 7.24077,3.12669 z"
       id="path13393"
       inkscape:connector-curvature="0"
       sodipodi:nodetypes="cccccscc" />
  </g>
  <g
     inkscape:groupmode="layer"
     id="layer4"
     inkscape:label="吹き出し"
     sodipodi:insensitive="true">
    <g
       id="g5116"
       transform="translate(-81.553636,-96.868562)">
      <g
         id="g7742">
        <path
           style="fill:#fefefe;fill-opacity:1;stroke:#000000;stroke-width:3"
           d="m 120.46338,110.48679 145.33091,0 c 14.39154,0 25.97752,11.58598 25.97752,25.97753 l 0,28.24943 c 0,14.39155 -11.58598,25.97753 -25.97752,25.97753 l -79.68378,0 c -21.29438,0 -19.83792,15.01272 -13.60609,30.20814 -17.07205,-18.80584 -19.05799,-30.20814 -36.8042,-30.20814 l -15.23684,0 c -14.39155,0 -25.977526,-11.58598 -25.977526,-25.97753 l 0,-28.24943 c 0,-14.39155 11.585976,-25.97753 25.977526,-25.97753 z"
           id="rect13841"
           inkscape:connector-curvature="0"
           sodipodi:nodetypes="sssssscsssss" />
        <text
           xml:space="preserve"
           style="font-size:34.28142929px;font-style:normal;font-variant:normal;font-weight:normal;font-stretch:normal;line-height:125%;letter-spacing:0px;word-spacing:0px;writing-mode:lr-tb;fill:#000000;fill-opacity:1;stroke:none;font-family:MS UI Gothic;-inkscape-font-specification:MS UI Gothic"
           x="128.75226"
           y="163.19601"
           id="text6768-1"
           sodipodi:linespacing="125%"><tspan
             sodipodi:role="line"
             x="128.75226"
             y="163.19601"
             style="font-size:34.28142929px;font-style:normal;font-variant:normal;font-weight:normal;font-stretch:normal;fill:#000000;fill-opacity:1;font-family:MS UI Gothic;-inkscape-font-specification:MS UI Gothic"
             id="tspan3151-4">ありがたや</tspan></text>
      </g>
    </g>
  </g>
  <g
     inkscape:groupmode="layer"
     id="layer2"
     inkscape:label="枠面"
     sodipodi:insensitive="true">
    <path
       style="fill:#ffffff;stroke:none;display:inline"
       d="m 0,0 0,320 370,0 0,-320 -10,10 0,300 -350,0 0,-300 350,0 10,-10 z"
       id="path21072"
       inkscape:connector-curvature="0"
       sodipodi:nodetypes="ccccccccccc" />
  </g>
</svg>
