<?xml version="1.0" encoding="UTF-8" standalone="no"?>
<!-- Created with Inkscape (http://www.inkscape.org/) -->

<svg
   xmlns:dc="http://purl.org/dc/elements/1.1/"
   xmlns:cc="http://creativecommons.org/ns#"
   xmlns:rdf="http://www.w3.org/1999/02/22-rdf-syntax-ns#"
   xmlns:svg="http://www.w3.org/2000/svg"
   xmlns="http://www.w3.org/2000/svg"
   xmlns:sodipodi="http://sodipodi.sourceforge.net/DTD/sodipodi-0.dtd"
   xmlns:inkscape="http://www.inkscape.org/namespaces/inkscape"
   width="370"
   height="320"
   id="svg3172"
   version="1.1"
   inkscape:version="0.48.4 r9939"
   sodipodi:docname="[24]感謝.svg"
   inkscape:export-filename="C:\Users\執安\Desktop\資料\臨時\svg\BUTAS\[22.成功].png"
   inkscape:export-xdpi="90"
   inkscape:export-ydpi="90">
  <defs
     id="defs3174" />
  <sodipodi:namedview
     id="base"
     pagecolor="#ffffff"
     bordercolor="#666666"
     borderopacity="1.0"
     inkscape:pageopacity="0.0"
     inkscape:pageshadow="2"
     inkscape:zoom="0.64458697"
     inkscape:cx="-29.771123"
     inkscape:cy="201.56372"
     inkscape:document-units="px"
     inkscape:current-layer="layer4"
     showgrid="false"
     inkscape:window-width="1100"
     inkscape:window-height="699"
     inkscape:window-x="-5"
     inkscape:window-y="-6"
     inkscape:window-maximized="0" />
  <metadata
     id="metadata3177">
    <rdf:RDF>
      <cc:Work
         rdf:about="">
        <dc:format>image/svg+xml</dc:format>
        <dc:type
           rdf:resource="http://purl.org/dc/dcmitype/StillImage" />
        <dc:title />
      </cc:Work>
    </rdf:RDF>
  </metadata>
  <g
     inkscape:label="補助線"
     inkscape:groupmode="layer"
     id="layer1"
     transform="translate(0,-732.36218)"
     sodipodi:insensitive="true"
     style="display:none">
    <path
       style="fill:none;stroke:#0000ff;stroke-width:1px;stroke-linecap:butt;stroke-linejoin:miter;stroke-opacity:1;display:inline"
       d="M 10,1042.3622 360,742.36211"
       id="path3025"
       inkscape:connector-curvature="0"
       sodipodi:nodetypes="cc" />
    <path
       style="fill:none;stroke:#0000ff;stroke-width:1px;stroke-linecap:butt;stroke-linejoin:miter;stroke-opacity:1;display:inline"
       d="M 10,742.36211 360,1042.3622"
       id="path3027"
       inkscape:connector-curvature="0"
       sodipodi:nodetypes="cc" />
    <path
       style="fill:none;stroke:#ff0000;stroke-width:1px;stroke-linecap:butt;stroke-linejoin:miter;stroke-opacity:1;display:inline"
       d="m 10,732.36211 0,320.00009"
       id="path3006"
       inkscape:connector-curvature="0"
       sodipodi:nodetypes="cc" />
    <path
       style="fill:none;stroke:#ff0000;stroke-width:1px;stroke-linecap:butt;stroke-linejoin:miter;stroke-opacity:1;display:inline"
       d="m 360,732.36211 0,320.00009"
       id="path3010"
       inkscape:connector-curvature="0"
       sodipodi:nodetypes="cc" />
    <path
       style="fill:none;stroke:#ff0000;stroke-width:1px;stroke-linecap:butt;stroke-linejoin:miter;stroke-opacity:1;display:inline"
       d="m 0,742.36208 370,3e-5"
       id="path3016"
       inkscape:connector-curvature="0" />
    <path
       style="fill:none;stroke:#ff0000;stroke-width:1px;stroke-linecap:butt;stroke-linejoin:miter;stroke-opacity:1;display:inline"
       d="m 0,1042.3622 370,0"
       id="path3018"
       inkscape:connector-curvature="0"
       sodipodi:nodetypes="cc" />
  </g>
  <g
     inkscape:groupmode="layer"
     id="layer3"
     inkscape:label="豚"
     style="display:inline"
     sodipodi:insensitive="true">
    <path
       style="fill:#b3b3b3;fill-opacity:1;stroke:#000000;stroke-width:3;display:inline"
       d="m 335.68264,36.432793 73.59926,0 0,191.382797 -73.59926,0 z"
       id="rect12809-8-3"
       inkscape:connector-curvature="0"
       sodipodi:nodetypes="ccccc" />
    <path
       style="fill:#e9afaf;fill-opacity:1;stroke:#000000;stroke-width:3;stroke-linecap:round;stroke-miterlimit:4;stroke-opacity:1;stroke-dashoffset:0;display:inline"
       d="m 306.95781,229.12162 c 0,7.64797 -9.52055,13.84786 -21.26473,13.84786 -11.74419,0 -21.26474,-6.19989 -21.26474,-13.84786 0,-7.64796 9.52055,-13.84786 21.26474,-13.84786 11.74418,0 21.26473,6.1999 21.26473,13.84786 z"
       id="path12815"
       inkscape:connector-curvature="0" />
    <path
       style="fill:#fffff8;fill-opacity:1;stroke:#000000;stroke-width:3;stroke-linecap:butt;stroke-linejoin:miter;stroke-opacity:1;display:inline"
       d="m 48.1507,243.69864 c 22.665802,17.20071 37.640375,57.03342 102.50387,59.85563 66.95414,2.91314 109.79377,-63.79477 77.02519,-129.66051 -3.07302,-35.74628 -26.25098,-66.67558 -68.60384,-70.13222 -54.56857,-4.453579 -85.339296,38.83344 -88.750481,76.25518 -18.251022,29.37227 7.674149,56.54946 -22.174739,63.68192 z"
       id="path4888"
       inkscape:connector-curvature="0" />
    <path
       style="fill:#aa0000;stroke:#000000;stroke-width:3;stroke-linecap:butt;stroke-linejoin:miter;stroke-opacity:1;display:inline"
       d="m 202.57928,167.64989 c -10.99544,12.9866 -9.48412,-2.97512 -25.0567,-2.1431 -16.15857,0.86332 -21.2291,18.92456 -31.91866,6.52498 12.67067,24.1876 38.99295,31.87652 56.97536,-4.38188 z"
       id="path5474"
       inkscape:connector-curvature="0"
       sodipodi:nodetypes="cscc" />
    <path
       style="fill:#f4d7d7;fill-opacity:1;stroke:#000000;stroke-width:3;stroke-linecap:round;stroke-miterlimit:4;stroke-opacity:1;stroke-dashoffset:0;display:inline"
       d="m 220.65053,211.91443 c 0,15.41408 -11.85477,27.90964 -26.47838,27.90964 -14.62363,0 -26.4784,-12.49556 -26.4784,-27.90964 0,-15.41407 11.85477,-27.90965 26.4784,-27.90965 14.62361,0 26.47838,12.49558 26.47838,27.90965 z"
       id="path12817"
       inkscape:connector-curvature="0" />
    <path
       style="fill:#fffff8;fill-opacity:1;stroke:#000000;stroke-width:3;stroke-linecap:butt;stroke-linejoin:miter;stroke-opacity:1;display:inline"
       d="m 148.83304,209.37188 c 38.46816,-11.73741 32.96991,19.67265 17.90192,35.30055"
       id="path5472"
       inkscape:connector-curvature="0" />
    <path
       style="fill:none;stroke:#000000;stroke-width:3;stroke-linecap:butt;stroke-linejoin:miter;stroke-opacity:1;display:inline"
       d="m 162.89943,150.31135 -14.75948,9.58803"
       id="path5476"
       inkscape:connector-curvature="0"
       sodipodi:nodetypes="cc" />
    <path
       style="fill:none;stroke:#000000;stroke-width:3;stroke-linecap:butt;stroke-linejoin:miter;stroke-opacity:1;display:inline"
       d="m 197.43732,156.94133 -12.63057,-7.54335"
       id="path5478"
       inkscape:connector-curvature="0" />
    <path
       style="fill:#fffff8;fill-opacity:1;stroke:#000000;stroke-width:3;stroke-linecap:butt;stroke-linejoin:miter;stroke-opacity:1;display:inline"
       d="m 224.87922,199.00263 c -11.93754,-1.14588 -15.8251,7.82789 -2.52174,41.15279"
       id="path5480"
       inkscape:connector-curvature="0" />
    <path
       style="fill:#f8fcff;fill-opacity:1;stroke:#000000;stroke-width:3;stroke-linecap:butt;stroke-linejoin:miter;stroke-opacity:1;display:inline"
       d="m 142.24635,132.46071 27.00189,-31.38576 29.37444,31.29878"
       id="path3910-9"
       inkscape:connector-curvature="0"
       sodipodi:nodetypes="ccc" />
    <path
       style="fill:none;stroke:#000000;stroke-width:3;stroke-linecap:butt;stroke-linejoin:miter;stroke-opacity:1;display:inline"
       d="m 86.419128,136.60478 c 37.476562,-3.68626 86.081922,-6.56241 126.357192,-4.11212"
       id="path3908-77"
       inkscape:connector-curvature="0"
       sodipodi:nodetypes="cc" />
    <path
       style="fill:#fefefe;fill-opacity:1;stroke:#000000;stroke-width:3;stroke-linecap:round;stroke-miterlimit:4;stroke-opacity:1;stroke-dashoffset:0;display:inline"
       d="m 279.02929,244.23004 c 0,9.36692 -10.66806,16.96031 -23.82777,16.96031 -13.15972,0 -23.82778,-7.59339 -23.82778,-16.96031 0,-9.36692 10.66806,-16.96031 23.82778,-16.96031 13.15971,0 23.82777,7.59339 23.82777,16.96031 z"
       id="path12811"
       inkscape:connector-curvature="0" />
    <path
       style="fill:#803300;fill-opacity:1;stroke:#000000;stroke-width:3;stroke-linecap:round;stroke-miterlimit:4;stroke-opacity:1;stroke-dashoffset:0;display:inline"
       d="m 320.63954,249.72394 c 0,8.68057 -9.49672,15.71757 -21.21154,15.71757 -11.71482,0 -21.21156,-7.037 -21.21156,-15.71757 0,-8.68058 9.49674,-15.71758 21.21156,-15.71758 11.71482,0 21.21154,7.037 21.21154,15.71758 z"
       id="path12813"
       inkscape:connector-curvature="0" />
    <path
       style="fill:#b3b3b3;fill-opacity:1;stroke:#000000;stroke-width:3;display:inline"
       d="m 305.6315,194.01085 97.55419,0 0,104.38577 -97.55419,0 z"
       id="rect12809-8"
       inkscape:connector-curvature="0"
       sodipodi:nodetypes="ccccc" />
    <path
       style="fill:#b3b3b3;fill-opacity:1;stroke:#000000;stroke-width:3;display:inline"
       d="m 224.30594,252.74574 175.38714,0 0,62.63133 -175.38714,0 z"
       id="rect12809"
       inkscape:connector-curvature="0"
       sodipodi:nodetypes="ccccc" />
    <path
       style="fill:none;stroke:#000000;stroke-width:3;stroke-linecap:butt;stroke-linejoin:miter;stroke-opacity:1"
       d="m 191.64523,203.50713 6.66919,18.18867"
       id="path13381"
       inkscape:connector-curvature="0" />
    <path
       style="fill:none;stroke:#000000;stroke-width:3;stroke-linecap:butt;stroke-linejoin:miter;stroke-opacity:1"
       d="m 197.70812,202.29455 5.45662,18.18868"
       id="path13383"
       inkscape:connector-curvature="0" />
    <path
       style="fill:none;stroke:#000000;stroke-width:3;stroke-linecap:butt;stroke-linejoin:miter;stroke-opacity:1"
       d="m 204.37732,200.47568 4.24403,16.97611"
       id="path13385"
       inkscape:connector-curvature="0" />
    <path
       style="fill:none;stroke:#000000;stroke-width:3;stroke-linecap:butt;stroke-linejoin:miter;stroke-opacity:1"
       d="m 189.22008,209.26687 18.49183,-6.97232"
       id="path13387"
       inkscape:connector-curvature="0" />
    <path
       style="fill:none;stroke:#000000;stroke-width:3;stroke-linecap:butt;stroke-linejoin:miter;stroke-opacity:1"
       d="M 192.55467,213.81405 208.62135,207.448"
       id="path13389"
       inkscape:connector-curvature="0" />
    <path
       style="fill:none;stroke:#000000;stroke-width:3;stroke-linecap:butt;stroke-linejoin:miter;stroke-opacity:1"
       d="m 193.4641,219.27065 17.88556,-7.27547"
       id="path13391"
       inkscape:connector-curvature="0" />
    <path
       style="fill:#217821;stroke:#000000;stroke-width:3;stroke-linecap:butt;stroke-linejoin:miter;stroke-opacity:1"
       d="m 238.28727,230.97139 c 5.25908,-8.36559 15.21063,-3.06281 30.2796,-5.26601 -2.04886,1.2068 -4.66179,2.57816 -11.35485,6.74709 7.58103,-6.9969 15.37744,3.34931 21.55775,2.633 -5.22736,5.01526 -26.60206,13.5653 -17.03083,17.77634 -3.41182,0.85864 -14.69561,0.0339 -20.48953,0.3256 -19.18068,0.96578 -15.02338,-17.77253 -10.20291,-25.34271 2.67328,1.47552 7.68508,-1.21501 7.24077,3.12669 z"
       id="path13393"
       inkscape:connector-curvature="0"
       sodipodi:nodetypes="cccccscc" />
  </g>
  <g
     inkscape:groupmode="layer"
     id="layer4"
     inkscape:label="吹き出し"
     sodipodi:insensitive="true">
    <g
       id="g5116"
       transform="matrix(1.0241814,0,0,1.0241814,-83.802167,-99.466504)">
      <g
         id="g7742">
        <path
           style="fill:#fefefe;fill-opacity:1;stroke:#000000;stroke-width:2.9291687"
           d="m 120.46338,108.93541 151.91286,0 c 14.39154,0 25.97752,11.58598 25.97752,25.97753 l 0,28.24943 c 0,14.39155 -11.58598,25.97753 -25.97752,25.97753 l -86.26573,0 c -21.29438,0 -21.9801,9.12172 -15.74827,24.31714 C 153.29019,194.6512 153.44643,189.1399 135.70022,189.1399 l -15.23684,0 c -14.39155,0 -25.977526,-11.58598 -25.977526,-25.97753 l 0,-28.24943 c 0,-14.39155 11.585976,-25.97753 25.977526,-25.97753 z"
           id="rect13841"
           inkscape:connector-curvature="0"
           sodipodi:nodetypes="sssssscsssss" />
        <text
           xml:space="preserve"
           style="font-size:36.36452484px;font-style:normal;font-variant:normal;font-weight:normal;font-stretch:normal;line-height:125%;letter-spacing:0px;word-spacing:0px;writing-mode:lr-tb;fill:#000000;fill-opacity:1;stroke:none;font-family:MS UI Gothic;-inkscape-font-specification:MS UI Gothic"
           x="107.23798"
           y="162.40953"
           id="text6768-1"
           sodipodi:linespacing="125%"><tspan
             sodipodi:role="line"
             x="107.23798"
             y="162.40953"
             style="font-size:36.36452484px;font-style:normal;font-variant:normal;font-weight:normal;font-stretch:normal;fill:#000000;fill-opacity:1;font-family:MS UI Gothic;-inkscape-font-specification:MS UI Gothic"
             id="tspan3151-4">ありがたや…</tspan></text>
      </g>
    </g>
  </g>
  <g
     inkscape:groupmode="layer"
     id="layer2"
     inkscape:label="枠面"
     sodipodi:insensitive="true">
    <path
       style="fill:#ffffff;stroke:none;display:inline"
       d="m 0,0 0,320 370,0 0,-320 -10,10 0,300 -350,0 0,-300 350,0 10,-10 z"
       id="path21072"
       inkscape:connector-curvature="0"
       sodipodi:nodetypes="ccccccccccc" />
  </g>
</svg>
