<?xml version="1.0" encoding="UTF-8" standalone="no"?>
<!-- Created with Inkscape (http://www.inkscape.org/) -->

<svg
   xmlns:dc="http://purl.org/dc/elements/1.1/"
   xmlns:cc="http://creativecommons.org/ns#"
   xmlns:rdf="http://www.w3.org/1999/02/22-rdf-syntax-ns#"
   xmlns:svg="http://www.w3.org/2000/svg"
   xmlns="http://www.w3.org/2000/svg"
   xmlns:sodipodi="http://sodipodi.sourceforge.net/DTD/sodipodi-0.dtd"
   xmlns:inkscape="http://www.inkscape.org/namespaces/inkscape"
   width="370"
   height="320"
   id="svg3172"
   version="1.1"
   inkscape:version="0.48.4 r9939"
   sodipodi:docname="[35]分離.svg"
   inkscape:export-filename="C:\Users\執安\Desktop\資料\臨時\svg\BUTAS\[22.成功].png"
   inkscape:export-xdpi="90"
   inkscape:export-ydpi="90">
  <defs
     id="defs3174" />
  <sodipodi:namedview
     id="base"
     pagecolor="#ffffff"
     bordercolor="#666666"
     borderopacity="1.0"
     inkscape:pageopacity="0.0"
     inkscape:pageshadow="2"
     inkscape:zoom="0.76707897"
     inkscape:cx="204.86732"
     inkscape:cy="99.890824"
     inkscape:document-units="px"
     inkscape:current-layer="layer3"
     showgrid="false"
     inkscape:window-width="1100"
     inkscape:window-height="698"
     inkscape:window-x="-5"
     inkscape:window-y="-5"
     inkscape:window-maximized="0" />
  <metadata
     id="metadata3177">
    <rdf:RDF>
      <cc:Work
         rdf:about="">
        <dc:format>image/svg+xml</dc:format>
        <dc:type
           rdf:resource="http://purl.org/dc/dcmitype/StillImage" />
        <dc:title />
      </cc:Work>
    </rdf:RDF>
  </metadata>
  <g
     inkscape:label="補助線"
     inkscape:groupmode="layer"
     id="layer1"
     transform="translate(0,-732.36218)"
     sodipodi:insensitive="true"
     style="display:none">
    <path
       style="fill:none;stroke:#0000ff;stroke-width:1px;stroke-linecap:butt;stroke-linejoin:miter;stroke-opacity:1;display:inline"
       d="M 10,1042.3622 360,742.36211"
       id="path3025"
       inkscape:connector-curvature="0"
       sodipodi:nodetypes="cc" />
    <path
       style="fill:none;stroke:#0000ff;stroke-width:1px;stroke-linecap:butt;stroke-linejoin:miter;stroke-opacity:1;display:inline"
       d="M 10,742.36211 360,1042.3622"
       id="path3027"
       inkscape:connector-curvature="0"
       sodipodi:nodetypes="cc" />
    <path
       style="fill:none;stroke:#ff0000;stroke-width:1px;stroke-linecap:butt;stroke-linejoin:miter;stroke-opacity:1;display:inline"
       d="m 10,732.36211 0,320.00009"
       id="path3006"
       inkscape:connector-curvature="0"
       sodipodi:nodetypes="cc" />
    <path
       style="fill:none;stroke:#ff0000;stroke-width:1px;stroke-linecap:butt;stroke-linejoin:miter;stroke-opacity:1;display:inline"
       d="m 360,732.36211 0,320.00009"
       id="path3010"
       inkscape:connector-curvature="0"
       sodipodi:nodetypes="cc" />
    <path
       style="fill:none;stroke:#ff0000;stroke-width:1px;stroke-linecap:butt;stroke-linejoin:miter;stroke-opacity:1;display:inline"
       d="m 0,742.36208 370,3e-5"
       id="path3016"
       inkscape:connector-curvature="0" />
    <path
       style="fill:none;stroke:#ff0000;stroke-width:1px;stroke-linecap:butt;stroke-linejoin:miter;stroke-opacity:1;display:inline"
       d="m 0,1042.3622 370,0"
       id="path3018"
       inkscape:connector-curvature="0"
       sodipodi:nodetypes="cc" />
  </g>
  <g
     inkscape:groupmode="layer"
     id="layer3"
     inkscape:label="豚"
     style="display:inline"
     sodipodi:insensitive="true">
    <g
       id="g4578">
      <path
         sodipodi:nodetypes="csssccssscc"
         inkscape:connector-curvature="0"
         id="path7988-17"
         d="m 335.14161,183.95604 c -14.9099,-21.36781 -34.95206,-33.13884 -44.76542,-26.29133 -9.81336,6.84751 -5.68181,29.72054 9.22809,51.08835 14.9099,21.36781 34.95206,33.13884 44.76542,26.29133 9.81337,-6.8475 5.68181,-29.72054 -9.22809,-51.08835 l -1.83163,1.70422 c 12.72419,18.2354 16.25008,37.75538 7.8753,43.59908 -8.37477,5.8437 -25.47887,-4.20177 -38.20305,-22.43717 -12.7242,-18.23541 -16.25008,-37.75538 -7.8753,-43.59909 8.37477,-5.84369 25.47886,4.20176 38.20305,22.43718 z"
         style="fill:#ffff00;stroke:none;display:inline" />
      <path
         id="path7988"
         d="m 344.5714,141.07448 c 0,11.96622 -21.12215,21.66676 -47.17763,21.66676 -26.05549,0 -47.17763,-9.70054 -47.17763,-21.66676 0,-11.96622 21.12214,-21.66676 47.17763,-21.66676 26.05548,0 47.17763,9.70054 47.17763,21.66676 z"
         style="fill:none;stroke:#000000;stroke-width:3"
         transform="matrix(0.57223639,0.82008872,-0.82008872,0.57223639,263.17673,-128.32746)"
         inkscape:connector-curvature="0" />
      <path
         id="path7988-1"
         d="m 344.5714,141.07448 c 0,11.96622 -21.12215,21.66676 -47.17763,21.66676 -26.05549,0 -47.17763,-9.70054 -47.17763,-21.66676 0,-11.96622 21.12214,-21.66676 47.17763,-21.66676 26.05548,0 47.17763,9.70054 47.17763,21.66676 z"
         style="fill:none;stroke:#000000;stroke-width:3.51532769;display:inline"
         transform="matrix(0.48834968,0.69986823,-0.69986823,0.48834968,271.93723,-80.853704)"
         inkscape:connector-curvature="0" />
    </g>
    <g
       id="g7979"
       transform="matrix(0.30556116,0.78838207,-0.96172684,0.137949,316.67171,0.53336054)"
       style="stroke-width:3.35334754">
      <path
         inkscape:connector-curvature="0"
         id="path4067"
         d="m 323.48199,259.14391 c -43.64827,30.53852 -13.95924,53.71176 -55.35076,80.52076 14.19029,-17.66829 18.00578,-47.81971 -12.39701,-54.90194 -54.44773,-12.68342 -114.21237,-75.5213 -79.58806,-147.49381 7.94097,-35.88721 40.50948,-61.369485 81.32726,-61.042169 39.07922,0.313372 72.56538,24.248899 89.78811,67.796619 18.9345,47.87593 6.04813,94.25161 -23.77954,115.12054 z"
         style="fill:#fffff8;fill-opacity:1;stroke:#000000;stroke-width:3.35334754;stroke-linecap:butt;stroke-linejoin:miter;stroke-opacity:1;display:inline"
         sodipodi:nodetypes="scscsss" />
      <path
         inkscape:connector-curvature="0"
         id="path5202"
         d="m 229.5799,204.92656 c 16.22613,-15.29999 14.2118,-34.59041 -8.92281,-36.88568"
         style="fill:none;stroke:#000000;stroke-width:3.35334754;stroke-linecap:butt;stroke-linejoin:miter;stroke-opacity:1;display:inline"
         sodipodi:nodetypes="cc" />
      <path
         inkscape:connector-curvature="0"
         id="path5204"
         d="m 206.21374,147.1971 c 5.02432,-12.13694 22.06811,-17.9933 31.96565,-10.8655 18.7904,13.53191 28.96083,11.24445 40.1437,1.2909"
         style="fill:none;stroke:#000000;stroke-width:3.35334754;stroke-linecap:butt;stroke-linejoin:miter;stroke-opacity:1;display:inline" />
      <path
         inkscape:connector-curvature="0"
         id="path5206"
         d="M 245.73324,106.59566 242.525,121.33038"
         style="fill:none;stroke:#000000;stroke-width:3.35334754;stroke-linecap:butt;stroke-linejoin:miter;stroke-opacity:1;display:inline" />
      <path
         inkscape:connector-curvature="0"
         id="path5208"
         d="m 219.93132,110.55938 -2.60364,14.4794"
         style="fill:none;stroke:#000000;stroke-width:3.35334754;stroke-linecap:butt;stroke-linejoin:miter;stroke-opacity:1;display:inline" />
      <path
         inkscape:connector-curvature="0"
         id="path5210"
         d="m 340.78035,135.95574 c 26.02163,3.95849 26.93002,21.11417 4.53031,45.81406"
         style="fill:#fffff8;fill-opacity:1;stroke:#000000;stroke-width:3.35334754;stroke-linecap:butt;stroke-linejoin:miter;stroke-opacity:1;display:inline"
         sodipodi:nodetypes="cc" />
      <path
         inkscape:connector-curvature="0"
         id="path7971"
         d="m 201.99013,121.50451 60.80672,-12.5807"
         style="fill:none;stroke:#000000;stroke-width:3.35334754;stroke-linecap:butt;stroke-linejoin:miter;stroke-opacity:1" />
    </g>
    <path
       style="fill:#5f8dd3;fill-opacity:0.70980392;stroke:none;display:inline"
       d="m 105.23124,228.82483 c 1.72753,8.63767 75.38346,5.78663 76.18313,-5.59141 z"
       id="path8776-8"
       inkscape:connector-curvature="0"
       sodipodi:nodetypes="ccc" />
    <path
       style="fill:none;stroke:#000000;stroke-width:3;stroke-linecap:butt;stroke-linejoin:miter;stroke-opacity:1"
       d="m 105.50298,228.28541 c 1.72753,8.63767 75.38346,5.78663 76.18313,-5.59141"
       id="path8776"
       inkscape:connector-curvature="0"
       sodipodi:nodetypes="cc" />
    <path
       style="fill:#5f8dd3;fill-opacity:0.70980392;stroke:none;display:inline"
       d="m 124.90658,248.76911 c 16.48046,6.34082 43.88953,1.48222 52.31422,-5.96572 z"
       id="path8778-7"
       inkscape:connector-curvature="0"
       sodipodi:nodetypes="ccc" />
    <path
       style="fill:none;stroke:#000000;stroke-width:3;stroke-linecap:butt;stroke-linejoin:miter;stroke-opacity:1"
       d="m 125.17832,248.22969 c 16.48046,6.34082 43.88953,1.48222 52.31422,-5.96572"
       id="path8778"
       inkscape:connector-curvature="0"
       sodipodi:nodetypes="cc" />
    <g
       id="g8843"
       transform="translate(314.32175,-88.958985)">
      <path
         sodipodi:nodetypes="ccc"
         inkscape:connector-curvature="0"
         id="path8841"
         d="m -175.23859,204.63012 c 5.17348,3.01142 12.89993,5.71793 21.03764,7.38554 -0.75228,-3.43077 -2.9075,-13.69358 -21.03764,-7.38554 z"
         style="fill:#aa0000;stroke:none" />
      <path
         style="fill:#aa0000;fill-opacity:1;stroke:#000000;stroke-width:3;stroke-linecap:butt;stroke-linejoin:miter;stroke-opacity:1;display:inline"
         d="m -175.07537,205.03267 c 7.05691,3.17004 14.33121,6.15949 21.33004,6.59102"
         id="path8815"
         inkscape:connector-curvature="0" />
      <path
         inkscape:connector-curvature="0"
         id="path5673-3"
         d="m -104.94049,177.79825 c 24.023654,25.37161 27.916674,52.91004 11.729394,53.55715 0.038,43.41012 -32.466904,75.43144 -83.769034,75.70633 -72.11894,0.38644 -68.09063,-48.82554 -97.44327,-59.3706 26.30833,-4.76183 18.7091,-42.41621 23.03663,-52.28438 0.52982,-46.38664 32.09101,-78.83752 71.70296,-80.45821 45.74867,-1.87177 74.55004,30.21685 74.8854,67.0222"
         style="fill:#5f8dd3;fill-opacity:0.71078431;stroke:#000000;stroke-width:3;stroke-linecap:butt;stroke-linejoin:miter;stroke-opacity:1;display:inline"
         sodipodi:nodetypes="ccsccsc" />
      <path
         sodipodi:nodetypes="cccsccc"
         id="path5675-3-3"
         d="m -153.80077,211.33919 c 2.47106,0.15237 4.90778,-0.0141 7.28848,-0.60413 8.40765,-2.08362 14.85798,-12.09329 18.03662,-21.08124 -6.67728,10.97228 -4.31276,-1.55711 -17.64287,0.50025 -18.07686,2.78999 -20.36924,19.324 -36.51512,11.21602 2.4576,1.07575 4.96619,2.23858 7.50286,3.37808 18.3038,-5.50343 19.6206,3.19962 21.33003,6.59102 z"
         style="fill:#aa0000;fill-opacity:1;stroke:none;display:inline"
         inkscape:connector-curvature="0" />
      <path
         style="fill:none;stroke:#000000;stroke-width:3;stroke-linecap:butt;stroke-linejoin:miter;stroke-opacity:1;display:inline"
         d="m -153.74533,211.62369 c 2.47106,0.15237 4.90778,-0.0141 7.28847,-0.60413 8.40766,-2.08362 14.85798,-12.09329 18.03662,-21.08124 -6.67728,10.97228 -4.31276,-1.55711 -17.64287,0.50025 -18.07686,2.78999 -20.36924,19.324 -36.51512,11.21602 2.45761,1.07575 4.96619,2.23858 7.50286,3.37808"
         id="path5675-3"
         inkscape:connector-curvature="0" />
      <path
         sodipodi:nodetypes="cc"
         inkscape:connector-curvature="0"
         id="path5677-4"
         d="m -141.92572,164.79752 0.0293,18.66985"
         style="fill:none;stroke:#000000;stroke-width:3;stroke-linecap:butt;stroke-linejoin:miter;stroke-opacity:1;display:inline" />
      <path
         inkscape:connector-curvature="0"
         id="path5679-1"
         d="m -161.3304,167.08681 0.0834,18.33048"
         style="fill:none;stroke:#000000;stroke-width:3;stroke-linecap:butt;stroke-linejoin:miter;stroke-opacity:1;display:inline" />
      <path
         inkscape:connector-curvature="0"
         id="path5671-1"
         d="m -175.51522,204.68654 c 24.5563,-10.25239 28.62616,15.75466 14.74166,37.32992"
         style="fill:none;stroke:#000000;stroke-width:3;stroke-linecap:butt;stroke-linejoin:miter;stroke-opacity:1;display:inline" />
    </g>
  </g>
  <g
     inkscape:groupmode="layer"
     id="layer4"
     inkscape:label="吹き出し"
     sodipodi:insensitive="true">
    <g
       id="g5116"
       transform="translate(183.75878,-97.375752)">
      <path
         sodipodi:nodetypes="sssssscsssss"
         inkscape:connector-curvature="0"
         id="rect13841"
         d="m 60.705053,109.49836 87.096607,0 c 14.39154,0 25.97752,11.58598 25.97752,25.97753 l 0,18.10944 c 0,14.39155 -11.58598,25.97753 -25.97752,25.97753 l -17.01384,0 c -21.29438,0 -35.746837,7.8762 -56.074257,18.52859 11.23452,-10.41871 29.001597,-18.52859 11.255388,-18.52859 l -25.263898,0 c -14.391549,0 -25.977526,-11.58598 -25.977526,-25.97753 l 0,-18.10944 c 0,-14.39155 11.585977,-25.97753 25.977526,-25.97753 z"
         style="fill:#fefefe;fill-opacity:1;stroke:#000000;stroke-width:3" />
      <text
         sodipodi:linespacing="125%"
         id="text6768-1"
         y="159.71451"
         x="66.115463"
         style="font-size:40.31227493px;font-style:normal;font-variant:normal;font-weight:normal;font-stretch:normal;line-height:125%;letter-spacing:0px;word-spacing:0px;writing-mode:lr-tb;fill:#000000;fill-opacity:1;stroke:none;font-family:MS UI Gothic;-inkscape-font-specification:MS UI Gothic"
         xml:space="preserve"><tspan
           style="font-size:40.31227493px;font-style:normal;font-variant:normal;font-weight:normal;font-stretch:normal;fill:#000000;fill-opacity:1;font-family:MS UI Gothic;-inkscape-font-specification:MS UI Gothic"
           y="159.71451"
           x="66.115463"
           sodipodi:role="line"
           id="tspan4549">あら。</tspan></text>
    </g>
  </g>
  <g
     inkscape:groupmode="layer"
     id="layer2"
     inkscape:label="枠面"
     sodipodi:insensitive="true">
    <path
       style="fill:#ffffff;stroke:none;display:inline"
       d="m 0,0 0,320 370,0 0,-320 -10,10 0,300 -350,0 0,-300 350,0 10,-10 z"
       id="path21072"
       inkscape:connector-curvature="0"
       sodipodi:nodetypes="ccccccccccc" />
  </g>
</svg>
