<?xml version="1.0" encoding="UTF-8" standalone="no"?>
<!-- Created with Inkscape (http://www.inkscape.org/) -->

<svg
   xmlns:dc="http://purl.org/dc/elements/1.1/"
   xmlns:cc="http://creativecommons.org/ns#"
   xmlns:rdf="http://www.w3.org/1999/02/22-rdf-syntax-ns#"
   xmlns:svg="http://www.w3.org/2000/svg"
   xmlns="http://www.w3.org/2000/svg"
   xmlns:sodipodi="http://sodipodi.sourceforge.net/DTD/sodipodi-0.dtd"
   xmlns:inkscape="http://www.inkscape.org/namespaces/inkscape"
   width="370"
   height="320"
   id="svg3172"
   version="1.1"
   inkscape:version="0.48.4 r9939"
   sodipodi:docname="[00]規格.svg"
   inkscape:export-filename="C:\Users\執安\Desktop\資料\臨時\svg\BUTAS\[22.成功].png"
   inkscape:export-xdpi="90"
   inkscape:export-ydpi="90">
  <defs
     id="defs3174" />
  <sodipodi:namedview
     id="base"
     pagecolor="#ffffff"
     bordercolor="#666666"
     borderopacity="1.0"
     inkscape:pageopacity="0.0"
     inkscape:pageshadow="2"
     inkscape:zoom="0.74404886"
     inkscape:cx="-0.54313927"
     inkscape:cy="82.310839"
     inkscape:document-units="px"
     inkscape:current-layer="layer3"
     showgrid="false"
     inkscape:window-width="1100"
     inkscape:window-height="698"
     inkscape:window-x="-5"
     inkscape:window-y="-5"
     inkscape:window-maximized="0" />
  <metadata
     id="metadata3177">
    <rdf:RDF>
      <cc:Work
         rdf:about="">
        <dc:format>image/svg+xml</dc:format>
        <dc:type
           rdf:resource="http://purl.org/dc/dcmitype/StillImage" />
        <dc:title></dc:title>
      </cc:Work>
    </rdf:RDF>
  </metadata>
  <g
     inkscape:label="補助線"
     inkscape:groupmode="layer"
     id="layer1"
     transform="translate(0,-732.36218)"
     sodipodi:insensitive="true"
     style="display:none">
    <path
       style="fill:none;stroke:#0000ff;stroke-width:1px;stroke-linecap:butt;stroke-linejoin:miter;stroke-opacity:1;display:inline"
       d="M 10,1042.3622 360,742.36211"
       id="path3025"
       inkscape:connector-curvature="0"
       sodipodi:nodetypes="cc" />
    <path
       style="fill:none;stroke:#0000ff;stroke-width:1px;stroke-linecap:butt;stroke-linejoin:miter;stroke-opacity:1;display:inline"
       d="M 10,742.36211 360,1042.3622"
       id="path3027"
       inkscape:connector-curvature="0"
       sodipodi:nodetypes="cc" />
    <path
       style="fill:none;stroke:#ff0000;stroke-width:1px;stroke-linecap:butt;stroke-linejoin:miter;stroke-opacity:1;display:inline"
       d="m 10,732.36211 0,320.00009"
       id="path3006"
       inkscape:connector-curvature="0"
       sodipodi:nodetypes="cc" />
    <path
       style="fill:none;stroke:#ff0000;stroke-width:1px;stroke-linecap:butt;stroke-linejoin:miter;stroke-opacity:1;display:inline"
       d="m 360,732.36211 0,320.00009"
       id="path3010"
       inkscape:connector-curvature="0"
       sodipodi:nodetypes="cc" />
    <path
       style="fill:none;stroke:#ff0000;stroke-width:1px;stroke-linecap:butt;stroke-linejoin:miter;stroke-opacity:1;display:inline"
       d="m 0,742.36208 370,3e-5"
       id="path3016"
       inkscape:connector-curvature="0" />
    <path
       style="fill:none;stroke:#ff0000;stroke-width:1px;stroke-linecap:butt;stroke-linejoin:miter;stroke-opacity:1;display:inline"
       d="m 0,1042.3622 370,0"
       id="path3018"
       inkscape:connector-curvature="0"
       sodipodi:nodetypes="cc" />
  </g>
  <g
     inkscape:groupmode="layer"
     id="layer3"
     inkscape:label="豚"
     style="display:inline"
     sodipodi:insensitive="true">
    <path
       sodipodi:type="arc"
       style="fill:#000000;fill-opacity:1;stroke:none;display:inline"
       id="path5310-7-9"
       sodipodi:cx="56.111908"
       sodipodi:cy="285.72806"
       sodipodi:rx="38.639935"
       sodipodi:ry="10.079983"
       d="m 94.751842,285.72806 a 38.639935,10.079983 0 1 1 -77.279869,0 38.639935,10.079983 0 1 1 77.279869,0 z"
       transform="matrix(0.68695651,0,0,0.53333331,211.77314,127.25978)" />
    <path
       sodipodi:type="arc"
       style="fill:#000000;fill-opacity:1;stroke:none"
       id="path5310-7"
       sodipodi:cx="56.111908"
       sodipodi:cy="285.72806"
       sodipodi:rx="38.639935"
       sodipodi:ry="10.079983"
       d="m 94.751842,285.72806 a 38.639935,10.079983 0 1 1 -77.279869,0 38.639935,10.079983 0 1 1 77.279869,0 z"
       transform="matrix(1.1826087,0,0,0.66666665,92.33172,87.616435)" />
    <g
       style="stroke-width:2.80709982;display:inline"
       id="g4664"
       transform="matrix(1.0687187,0,0,1.0687187,-931.48355,154.4725)">
      <path
         sodipodi:nodetypes="cssc"
         inkscape:connector-curvature="0"
         id="path4036-5"
         d="m 1110.5192,39.928133 0.1842,-3.105188 c 0.3683,-6.210231 -26.6511,-5.627986 -26.4875,-1.02749 l 0.1636,4.602717"
         style="fill:#800033;stroke:#000000;stroke-width:2.80709982;stroke-linecap:butt;stroke-linejoin:miter;stroke-opacity:1;display:inline" />
      <path
         sodipodi:nodetypes="sssss"
         inkscape:connector-curvature="0"
         id="path4036"
         d="m 1084.1289,110.18295 c -0.032,3.3528 26.1923,3.69166 26.2062,0.53926 l 0.023,-5.21198 c 0.012,-2.73895 -26.1566,-2.96882 -26.1742,-1.11376 z"
         style="fill:#800033;stroke:#000000;stroke-width:2.80709982;stroke-linecap:butt;stroke-linejoin:miter;stroke-opacity:1" />
      <path
         sodipodi:nodetypes="ssssssssscss"
         inkscape:connector-curvature="0"
         id="path4020-9"
         d="m 1071.6715,89.29507 c -0.6187,15.63591 7.948,17.13936 14.2535,17.65245 6.1256,0.49845 19.5729,1.3688 24.6573,0.17618 9.9776,-2.34043 11.9702,-12.52851 12.0432,-18.35754 l 0.4268,-34.098548 c 0.1116,-8.917968 -6.3131,-13.673247 -13.5468,-15.110382 -6.9025,-1.371359 -20.9238,-0.956871 -25.9546,0.0706 -6.3385,1.294601 -11.1712,5.999029 -11.3599,13.062701 l -0.2942,11.014987 c -0.064,2.382906 2.33,5.235668 5.6898,6.022718 -2.787,0.288671 -5.2204,2.013837 -5.2878,3.716528 z"
         style="fill:#ffeeaa;stroke:none;display:inline" />
      <path
         sodipodi:nodetypes="cc"
         inkscape:connector-curvature="0"
         id="path4024"
         d="m 1072.6052,52.55692 c 3.4309,-6.320209 43.5138,-5.098157 50.3589,0.457426"
         style="fill:none;stroke:#ffcc00;stroke-width:2.80709982;stroke-linecap:butt;stroke-linejoin:miter;stroke-opacity:1" />
      <path
         sodipodi:nodetypes="cc"
         inkscape:connector-curvature="0"
         id="path4026"
         d="m 1073.0593,65.767774 c 6.0283,-1.310553 41.8009,-0.325544 49.8068,1.722844"
         style="fill:none;stroke:#ffcc00;stroke-width:2.80709982;stroke-linecap:butt;stroke-linejoin:miter;stroke-opacity:1" />
      <path
         inkscape:connector-curvature="0"
         id="path4022-7"
         d="m 1072.242,75.354238 c 2.5177,8.891472 23.8267,2.719347 31.2732,-5.857649 -6.1349,3.125686 -30.2678,-17.979765 -31.6391,-6.199177 -0.3931,3.37721 2.5925,5.088746 5.6974,6.125929 -3.0286,0.88193 -6.4669,1.921142 -5.3315,5.930897 z"
         style="fill:#aa0000;stroke:none;display:inline"
         sodipodi:nodetypes="scscs" />
      <path
         sodipodi:nodetypes="cc"
         inkscape:connector-curvature="0"
         id="path4028"
         d="m 1072.5515,97.016848 c 5.613,2.605058 44.0216,3.511882 48.3255,0.986064"
         style="fill:none;stroke:#ffcc00;stroke-width:2.80709982;stroke-linecap:butt;stroke-linejoin:miter;stroke-opacity:1" />
      <path
         sodipodi:nodetypes="cc"
         inkscape:connector-curvature="0"
         id="path4030"
         d="m 1072.1884,82.511454 c 4.0742,0.997778 45.6268,1.886938 50.4895,1.634531"
         style="fill:none;stroke:#ffcc00;stroke-width:2.80709982;stroke-linecap:butt;stroke-linejoin:miter;stroke-opacity:1" />
      <path
         sodipodi:nodetypes="ssssssssscss"
         inkscape:connector-curvature="0"
         id="path4020"
         d="m 1071.8586,89.122191 c -0.6187,15.635909 7.948,17.139359 14.2535,17.652449 6.1256,0.49845 19.5729,1.3688 24.6573,0.17618 9.9776,-2.34043 11.9702,-12.528509 12.0432,-18.357533 l 0.4268,-34.098551 c 0.1116,-8.917969 -6.3131,-13.673248 -13.5468,-15.110383 -6.9025,-1.371359 -20.9238,-0.956871 -25.9546,0.0706 -6.3385,1.294601 -11.1712,5.999029 -11.3599,13.062702 l -0.2942,11.014987 c -0.064,2.382906 2.33,5.235668 5.6898,6.022718 -2.787,0.288671 -5.2204,2.013837 -5.2878,3.716528 z"
         style="fill:none;stroke:#000000;stroke-width:2.80709982;stroke-linecap:butt;stroke-linejoin:miter;stroke-opacity:1" />
      <path
         inkscape:connector-curvature="0"
         id="path4022"
         d="m 1072.4208,75.268235 c 2.977,8.748413 22.9652,2.586511 31.5389,-5.990485 -6.6359,3.877121 -29.8667,-17.750039 -31.9048,-6.066341"
         style="fill:none;stroke:#000000;stroke-width:2.80709982;stroke-linecap:butt;stroke-linejoin:miter;stroke-opacity:1"
         sodipodi:nodetypes="ccc" />
    </g>
    <g
       style="stroke-width:2.80709982;display:inline"
       id="g5099"
       transform="matrix(1.0687187,0,0,1.0687187,-885.72225,168.17674)">
      <path
         inkscape:connector-curvature="0"
         id="path4821"
         d="m 965.98579,7.2100704 0,-5.3134532 12.04383,0.7084605 0,5.6676834"
         style="fill:#008000;stroke:#000000;stroke-width:2.80709982;stroke-linecap:butt;stroke-linejoin:miter;stroke-opacity:1" />
      <path
         inkscape:connector-curvature="0"
         id="path5791-8"
         d="m 1000.8007,41.305421 c 6.4151,15.499927 11.4429,30.306256 14.4985,44.126357 -25.62097,16.498322 -51.62625,24.235222 -82.26404,14.813842 -9.26645,-26.829969 -7.2046,-54.208207 -3.46704,-67.765478 l 10.4012,-0.315191 z"
         style="fill:#3e4837;stroke:#000000;stroke-width:2.80709982;stroke-linecap:butt;stroke-linejoin:miter;stroke-opacity:1;display:inline" />
      <path
         sodipodi:nodetypes="cscscc"
         id="path5773-2-8"
         d="M 990.33367,48.500371 C 999.54319,46.679956 1007.1626,36.915414 1002.163,24.150943 995.1186,6.1661962 979.7619,3.661408 971.71571,5.75492 958.22576,1.7386 943.03526,10.483682 939.73407,26.577992 c -2.09499,10.213792 4.10784,17.164443 8.83642,20.286105 10.15493,5.35877 32.83353,3.577553 41.76318,1.636274 z"
         style="fill:#ff6600;stroke:none;display:inline"
         inkscape:connector-curvature="0" />
      <path
         sodipodi:nodetypes="cc"
         inkscape:connector-curvature="0"
         id="path5781-2"
         d="m 982.84048,6.0955054 c 13.48416,2.2650573 26.04392,33.0790986 2.25998,43.5355826"
         style="fill:none;stroke:#aa4400;stroke-width:2.80709982;stroke-linecap:butt;stroke-linejoin:miter;stroke-opacity:1;display:inline" />
      <path
         sodipodi:nodetypes="cc"
         inkscape:connector-curvature="0"
         id="path5783-4"
         d="M 975.06242,5.6866451 C 988.6948,7.4351701 992.20739,52.325876 972.90466,50.17538"
         style="fill:none;stroke:#aa4400;stroke-width:2.80709982;stroke-linecap:butt;stroke-linejoin:miter;stroke-opacity:1;display:inline" />
      <path
         sodipodi:nodetypes="cc"
         inkscape:connector-curvature="0"
         id="path5785-5"
         d="M 966.44732,5.1536054 C 955.0801,3.7342996 947.95462,49.288457 964.43555,49.506766"
         style="fill:none;stroke:#aa4400;stroke-width:2.80709982;stroke-linecap:butt;stroke-linejoin:miter;stroke-opacity:1;display:inline" />
      <path
         sodipodi:nodetypes="cc"
         inkscape:connector-curvature="0"
         id="path5787-5"
         d="m 956.494,6.361777 c -14.50436,4.409524 -18.5291,34.887542 -4.09348,41.102761"
         style="fill:none;stroke:#aa4400;stroke-width:2.80709982;stroke-linecap:butt;stroke-linejoin:miter;stroke-opacity:1;display:inline" />
      <path
         sodipodi:nodetypes="cc"
         inkscape:connector-curvature="0"
         id="path5789-1"
         d="m 970.71588,5.443834 c -0.40065,6.934844 -3.01912,35.696683 0.40581,44.508669"
         style="fill:none;stroke:#aa4400;stroke-width:2.80709982;stroke-linecap:butt;stroke-linejoin:miter;stroke-opacity:1;display:inline" />
      <path
         sodipodi:nodetypes="cscscc"
         inkscape:connector-curvature="0"
         id="path5773-7"
         d="M 990.59415,48.732809 C 999.80368,46.912394 1006.3107,37.529381 1002.4235,24.383382 997.68159,8.3469003 984.80449,4.0709621 971.9762,5.987359 c -15.084,-5.25612674 -29.92027,5.968567 -31.98165,20.823071 -1.43316,10.327465 2.60236,18.05002 8.57075,20.108991 10.15493,5.35877 33.0992,3.754667 42.02885,1.813388 z"
         style="fill:none;stroke:#000000;stroke-width:2.80709982;stroke-linecap:butt;stroke-linejoin:miter;stroke-opacity:1;display:inline" />
      <path
         sodipodi:nodetypes="ccc"
         inkscape:connector-curvature="0"
         id="path5793-1"
         d="m 974.72671,50.722027 c -7.56459,-3.505807 -19.22649,-4.582465 -27.73664,-2.521508 -1.16151,8.608097 -1.41386,13.201272 1.57599,26.791008"
         style="fill:#3e4837;stroke:#000000;stroke-width:2.80709982;stroke-linecap:butt;stroke-linejoin:miter;stroke-opacity:1;display:inline" />
      <path
         sodipodi:nodetypes="ccccccccccccccc"
         inkscape:connector-curvature="0"
         id="path5775-1"
         d="m 962.39362,28.873761 -0.40755,4.718756 -4.49709,-0.785337 0.15353,-4.940925 -4.89375,-0.595977 -0.44206,4.583679 -3.15749,-0.572957 0.11434,-4.320431 c -2.86453,-0.485643 -3.17143,-0.321727 -3.99159,-2.244404 -1.2484,6.772698 1.27125,14.858259 7.04467,15.512479 l -1.6e-4,-3.95749 4.40796,0.521201 0.18784,4.32043 c 8.69309,2.030714 14.53044,-4.700154 15.34963,-11.885621 -2.23459,1.975827 -7.30617,-0.06517 -9.86828,-0.353403 z"
         style="fill:#000000;stroke:none;display:inline" />
      <path
         sodipodi:nodetypes="ccccc"
         inkscape:connector-curvature="0"
         id="path5777-5"
         d="m 972.09321,25.2291 -7.46549,-9.742604 -5.81653,8.923612 5.20731,-1.312617 z"
         style="fill:#000000;stroke:none;display:inline" />
      <path
         sodipodi:nodetypes="ccccc"
         inkscape:connector-curvature="0"
         id="path5779-2"
         d="m 953.77448,23.320299 -1.54933,-8.32891 -5.8124,5.66266 3.62173,-0.08884 z"
         style="fill:#000000;stroke:none;display:inline" />
    </g>
    <g
       transform="matrix(1.0378172,0,0,1.0378172,-193.3011,-602.58495)"
       style="stroke-width:2.89068246;display:inline"
       id="g4218">
      <path
         sodipodi:nodetypes="ccscssc"
         inkscape:connector-curvature="0"
         id="path4070"
         d="m 519.58044,796.90093 c 0.32732,10.8822 -12.21823,14.24731 -4.20071,24.37781 -3.07927,5.68763 2.11936,8.85548 6.97485,8.26568 4.2645,-0.51801 0.46139,-4.59984 7.27038,-5.92691 -10.26818,-3.97168 -3.7899,-6.90873 -4.35328,-10.49775 -0.28142,-1.79284 -3.1377,3.56105 -4.88678,1.44359 -3.02714,-3.6647 3.93021,-7.04021 -0.80446,-17.66242 z"
         style="fill:#00aad4;stroke:#000000;stroke-width:2.89068246;stroke-linecap:butt;stroke-linejoin:miter;stroke-opacity:1" />
      <path
         sodipodi:nodetypes="ccscssc"
         inkscape:connector-curvature="0"
         id="path4070-3"
         d="m 519.32519,802.4414 c -0.70119,6.22679 -7.04662,12.50134 -2.12671,18.71787 -1.88958,3.49018 1.30054,7.01271 4.28008,6.65078 2.61689,-0.31787 1.03484,-3.57438 5.21314,-4.38873 -6.30101,-2.4372 -3.7539,-4.31467 -4.09962,-6.51706 -0.17269,-1.10016 -2.82748,0.75697 -3.90079,-0.54239 -1.85759,-2.24883 1.66004,-7.25186 0.6339,-13.92047 z"
         style="fill:#80e5ff;stroke:none;display:inline" />
    </g>
    <g
       transform="matrix(1.3738904,0,0,1.3738904,-549.91931,-875.54694)"
       style="stroke-width:2.1835804;display:inline"
       id="g4226">
      <path
         sodipodi:nodetypes="ccscssc"
         inkscape:connector-curvature="0"
         id="path4070-6"
         d="m 621.55739,795.61563 c 0.59388,9.25878 -13.58925,19.87728 -4.27462,23.76676 -3.38201,6.83236 2.58829,6.39809 8.09212,2.90785 4.83392,-3.06541 0.43028,-4.28141 8.13825,-9.61048 -11.74551,2.84417 -4.36393,-4.25767 -6.21194,-6.15506 -0.9984,-1.02507 -2.43938,4.71895 -4.46955,3.95091 -3.51362,-1.32925 4.32108,-8.52993 -1.27426,-14.85998 z"
         style="fill:#00aad4;stroke:#000000;stroke-width:2.1835804;stroke-linecap:butt;stroke-linejoin:miter;stroke-opacity:1;display:inline" />
      <path
         sodipodi:nodetypes="ccscssc"
         inkscape:connector-curvature="0"
         id="path4070-3-8"
         d="m 621.38047,800.58829 c -0.6695,5.84271 -7.74991,15.18817 -2.03402,17.57493 -2.07537,4.19265 1.6205,5.29837 4.99789,3.1566 2.96632,-1.88107 1.1027,-3.74169 5.8326,-7.01182 -7.20771,1.7454 -4.35249,-1.44857 -4.79016,-3.15103 -0.21862,-0.85043 -3.19659,2.39191 -4.44238,1.92061 -2.15612,-0.81569 1.73784,-7.32177 0.43607,-12.48929 z"
         style="fill:#80e5ff;stroke:none;display:inline" />
    </g>
    <g
       style="stroke-width:3.20263004;display:inline"
       id="g5090"
       transform="matrix(0.9367301,0,0,0.9367301,-761.7596,154.68272)">
      <path
         sodipodi:nodetypes="ccsccsc"
         inkscape:connector-curvature="0"
         id="path5719-6"
         d="m 836.4317,44.624458 c -16.38345,15.29387 -11.36335,19.918389 -2.98116,31.166355 -0.25294,17.926882 13.30321,36.731047 46.692,34.729847 35.80448,-2.14598 44.94315,-30.252128 52.72847,-44.041475 C 917.31676,65.114654 917.36466,51.746064 913.72815,46.145439 909.52311,25.150187 894.83519,9.9353129 873.1453,9.1204249 851.34751,8.3014832 835.66108,22.728068 835.59942,49.233108"
         style="fill:#fffff8;fill-opacity:1;stroke:#000000;stroke-width:3.20263004;stroke-linecap:butt;stroke-linejoin:miter;stroke-opacity:1;display:inline" />
      <path
         sodipodi:nodetypes="cc"
         inkscape:connector-curvature="0"
         id="path5717-8"
         d="M 873.25814,83.412861 C 854.33816,73.967633 853.7044,65.840936 870.39704,59.374272"
         style="fill:#fffff8;fill-opacity:1;stroke:#000000;stroke-width:3.20263004;stroke-linecap:butt;stroke-linejoin:miter;stroke-opacity:1;display:inline" />
      <path
         sodipodi:nodetypes="cscsc"
         inkscape:connector-curvature="0"
         id="path5721-5"
         d="m 844.64478,49.468044 c -0.0226,-5.431561 6.55262,-10.039821 12.1452,-5.980023 3.95088,2.867991 7.27559,9.683925 13.4983,2.22137 -3.95082,6.696021 -8.98052,11.609397 -16.41163,8.294218 -3.42387,-1.52746 -6.28199,-4.125604 -9.23187,-4.535565 z"
         style="fill:#aa0000;fill-opacity:1;stroke:#000000;stroke-width:3.20263004;stroke-linecap:butt;stroke-linejoin:miter;stroke-opacity:1;display:inline" />
      <path
         sodipodi:nodetypes="cc"
         inkscape:connector-curvature="0"
         id="path5723-7"
         d="m 850.54984,29.288539 -0.7759,9.238191"
         style="fill:none;stroke:#000000;stroke-width:3.20263004;stroke-linecap:butt;stroke-linejoin:miter;stroke-opacity:1;display:inline" />
      <path
         sodipodi:nodetypes="cc"
         inkscape:connector-curvature="0"
         id="path5725-6"
         d="m 860.50795,29.995042 -0.81256,9.747462"
         style="fill:none;stroke:#000000;stroke-width:3.20263004;stroke-linecap:butt;stroke-linejoin:miter;stroke-opacity:1;display:inline" />
      <path
         sodipodi:nodetypes="ccc"
         inkscape:connector-curvature="0"
         id="path3910-18-1"
         d="M 845.11673,22.974419 857.6338,9.1968391 871.74805,24.529761"
         style="fill:#f8fcff;fill-opacity:1;stroke:#000000;stroke-width:3.20263004;stroke-linecap:butt;stroke-linejoin:miter;stroke-opacity:1;display:inline" />
      <path
         sodipodi:nodetypes="cc"
         inkscape:connector-curvature="0"
         id="path3908-76-8"
         d="m 842.77498,23.207398 62.71457,2.705311"
         style="fill:none;stroke:#000000;stroke-width:3.20263004;stroke-linecap:butt;stroke-linejoin:miter;stroke-opacity:1;display:inline" />
    </g>
    <path
       style="fill:none;stroke:#000000;stroke-width:3;stroke-linecap:butt;stroke-linejoin:miter;stroke-opacity:1"
       d="m 277.69491,243.98807 c 0.0467,8.47305 -2.35111,17.45044 -5.59839,22.21384"
       id="path5284"
       inkscape:connector-curvature="0"
       sodipodi:nodetypes="cc" />
    <path
       style="fill:none;stroke:#000000;stroke-width:3;stroke-linecap:butt;stroke-linejoin:miter;stroke-opacity:1;display:inline"
       d="m 287.05473,251.39716 c 0.5331,4.24804 -1.03485,11.12029 -2.91041,13.14184"
       id="path5284-9"
       inkscape:connector-curvature="0"
       sodipodi:nodetypes="cc" />
  </g>
  <g
     inkscape:groupmode="layer"
     id="layer4"
     inkscape:label="吹き出し"
     sodipodi:insensitive="true">
    <g
       id="g5116"
       transform="translate(-21.858048,-41.815397)">
      <path
         sodipodi:nodetypes="sssssscsssss"
         inkscape:connector-curvature="0"
         id="rect13841"
         d="m 60.705053,109.49836 205.089237,0 c 14.39154,0 25.97752,11.58598 25.97752,25.97753 l 0,28.24943 c 0,14.39155 -11.58598,25.97753 -25.97752,25.97753 l -112.88285,0 c -21.29438,0 -20.53685,15.71165 -40.86427,26.36404 11.23452,-10.41871 13.79161,-26.36404 -3.9546,-26.36404 l -47.387517,0 c -14.391549,0 -25.977526,-11.58598 -25.977526,-25.97753 l 0,-28.24943 c 0,-14.39155 11.585977,-25.97753 25.977526,-25.97753 z"
         style="fill:#fefefe;fill-opacity:1;stroke:#000000;stroke-width:3" />
      <text
         sodipodi:linespacing="125%"
         id="text6768-1"
         y="157.24168"
         x="45.41465"
         style="font-size:28px;font-style:normal;font-variant:normal;font-weight:normal;font-stretch:normal;line-height:125%;letter-spacing:0px;word-spacing:0px;writing-mode:lr-tb;fill:#000000;fill-opacity:1;stroke:none;font-family:MS UI Gothic;-inkscape-font-specification:MS UI Gothic"
         xml:space="preserve"><tspan
           id="tspan3151-4"
           style="font-size:28px;font-style:normal;font-variant:normal;font-weight:normal;font-stretch:normal;fill:#000000;fill-opacity:1;font-family:MS UI Gothic;-inkscape-font-specification:MS UI Gothic"
           y="157.24168"
           x="45.41465"
           sodipodi:role="line">前進あるのみですな。</tspan></text>
    </g>
    <path
       sodipodi:type="arc"
       style="fill:#000000;fill-opacity:1;stroke:none"
       id="path5310"
       sodipodi:cx="56.111908"
       sodipodi:cy="285.72806"
       sodipodi:rx="38.639935"
       sodipodi:ry="10.079983"
       d="m 94.751842,285.72806 a 38.639935,10.079983 0 1 1 -77.279869,0 38.639935,10.079983 0 1 1 77.279869,0 z"
       transform="matrix(1,0,0,0.66666665,0.67199888,88.522702)" />
  </g>
  <g
     inkscape:groupmode="layer"
     id="layer2"
     inkscape:label="枠面"
     sodipodi:insensitive="true">
    <path
       style="fill:#ffffff;stroke:none;display:inline"
       d="m 0,0 0,320 370,0 0,-320 -10,10 0,300 -350,0 0,-300 350,0 10,-10 z"
       id="path21072"
       inkscape:connector-curvature="0"
       sodipodi:nodetypes="ccccccccccc" />
  </g>
</svg>
