<?xml version="1.0" encoding="UTF-8" standalone="no"?>
<!-- Created with Inkscape (http://www.inkscape.org/) -->

<svg
   xmlns:dc="http://purl.org/dc/elements/1.1/"
   xmlns:cc="http://creativecommons.org/ns#"
   xmlns:rdf="http://www.w3.org/1999/02/22-rdf-syntax-ns#"
   xmlns:svg="http://www.w3.org/2000/svg"
   xmlns="http://www.w3.org/2000/svg"
   xmlns:sodipodi="http://sodipodi.sourceforge.net/DTD/sodipodi-0.dtd"
   xmlns:inkscape="http://www.inkscape.org/namespaces/inkscape"
   width="370"
   height="320"
   id="svg3172"
   version="1.1"
   inkscape:version="0.48.4 r9939"
   sodipodi:docname="[32]交流.svg"
   inkscape:export-filename="C:\Users\執安\Desktop\資料\臨時\svg\BUTAS\[22.成功].png"
   inkscape:export-xdpi="90"
   inkscape:export-ydpi="90">
  <defs
     id="defs3174" />
  <sodipodi:namedview
     id="base"
     pagecolor="#ffffff"
     bordercolor="#666666"
     borderopacity="1.0"
     inkscape:pageopacity="0.0"
     inkscape:pageshadow="2"
     inkscape:zoom="1.5341579"
     inkscape:cx="159.52451"
     inkscape:cy="190.40951"
     inkscape:document-units="px"
     inkscape:current-layer="layer3"
     showgrid="false"
     inkscape:window-width="1100"
     inkscape:window-height="698"
     inkscape:window-x="-5"
     inkscape:window-y="-5"
     inkscape:window-maximized="0" />
  <metadata
     id="metadata3177">
    <rdf:RDF>
      <cc:Work
         rdf:about="">
        <dc:format>image/svg+xml</dc:format>
        <dc:type
           rdf:resource="http://purl.org/dc/dcmitype/StillImage" />
        <dc:title />
      </cc:Work>
    </rdf:RDF>
  </metadata>
  <g
     inkscape:label="補助線"
     inkscape:groupmode="layer"
     id="layer1"
     transform="translate(0,-732.36218)"
     sodipodi:insensitive="true"
     style="display:none">
    <path
       style="fill:none;stroke:#0000ff;stroke-width:1px;stroke-linecap:butt;stroke-linejoin:miter;stroke-opacity:1;display:inline"
       d="M 10,1042.3622 360,742.36211"
       id="path3025"
       inkscape:connector-curvature="0"
       sodipodi:nodetypes="cc" />
    <path
       style="fill:none;stroke:#0000ff;stroke-width:1px;stroke-linecap:butt;stroke-linejoin:miter;stroke-opacity:1;display:inline"
       d="M 10,742.36211 360,1042.3622"
       id="path3027"
       inkscape:connector-curvature="0"
       sodipodi:nodetypes="cc" />
    <path
       style="fill:none;stroke:#ff0000;stroke-width:1px;stroke-linecap:butt;stroke-linejoin:miter;stroke-opacity:1;display:inline"
       d="m 10,732.36211 0,320.00009"
       id="path3006"
       inkscape:connector-curvature="0"
       sodipodi:nodetypes="cc" />
    <path
       style="fill:none;stroke:#ff0000;stroke-width:1px;stroke-linecap:butt;stroke-linejoin:miter;stroke-opacity:1;display:inline"
       d="m 360,732.36211 0,320.00009"
       id="path3010"
       inkscape:connector-curvature="0"
       sodipodi:nodetypes="cc" />
    <path
       style="fill:none;stroke:#ff0000;stroke-width:1px;stroke-linecap:butt;stroke-linejoin:miter;stroke-opacity:1;display:inline"
       d="m 0,742.36208 370,3e-5"
       id="path3016"
       inkscape:connector-curvature="0" />
    <path
       style="fill:none;stroke:#ff0000;stroke-width:1px;stroke-linecap:butt;stroke-linejoin:miter;stroke-opacity:1;display:inline"
       d="m 0,1042.3622 370,0"
       id="path3018"
       inkscape:connector-curvature="0"
       sodipodi:nodetypes="cc" />
  </g>
  <g
     inkscape:groupmode="layer"
     id="layer3"
     inkscape:label="豚"
     style="display:inline"
     sodipodi:insensitive="true">
    <path
       transform="matrix(1.2719641,0,0,1,145.68874,-2.2441791)"
       sodipodi:type="arc"
       style="fill:#000000;fill-opacity:1;stroke:none"
       id="path5504-5"
       sodipodi:cx="102.39292"
       sodipodi:cy="291.69342"
       sodipodi:rx="59.059399"
       sodipodi:ry="14.32802"
       d="m 161.45232,291.69342 a 59.059399,14.32802 0 1 1 -118.118797,0 59.059399,14.32802 0 1 1 118.118797,0 z" />
    <path
       transform="translate(3.2755313,-1.6548818)"
       sodipodi:type="arc"
       style="fill:#000000;fill-opacity:1;stroke:none"
       id="path5504"
       sodipodi:cx="102.39292"
       sodipodi:cy="291.69342"
       sodipodi:rx="59.059399"
       sodipodi:ry="14.32802"
       d="m 161.45232,291.69342 a 59.059399,14.32802 0 1 1 -118.118797,0 59.059399,14.32802 0 1 1 118.118797,0 z" />
    <g
       id="g25342">
      <path
         inkscape:connector-curvature="0"
         id="path25328"
         d="m 250.30017,108.1574 2.6073,-7.17005 19.5547,1.95547 0,6.51823"
         style="fill:#008000;stroke:#000000;stroke-width:3;stroke-linecap:butt;stroke-linejoin:miter;stroke-opacity:1" />
      <path
         inkscape:connector-curvature="0"
         id="path5791"
         d="m 317.00569,176.85282 c 12.23569,29.56347 21.82557,57.80402 27.65361,84.16352 -48.86781,31.46774 -98.46846,46.22456 -156.90483,28.25489 C 170.0803,238.09762 174.01292,185.87829 181.14168,160.0201 l 19.83852,-0.60117 z"
         style="fill:#3e4837;stroke:#000000;stroke-width:3;stroke-linecap:butt;stroke-linejoin:miter;stroke-opacity:1;display:inline" />
      <path
         sodipodi:nodetypes="cscscc"
         id="path5773-2"
         d="m 297.04162,190.57596 c 17.56559,-3.47213 32.17976,-20.85841 23.23807,-45.42894 -13.09815,-35.99193 -43.40192,-40.09375 -58.74865,-36.10073 -21.00036,-7.66045 -54.70308,9.01931 -60.99954,39.71646 -3.99583,19.48107 6.99046,28.68446 16.00942,36.32758 19.3688,10.22094 63.46892,9.18829 80.5007,5.48563 z"
         style="fill:#ff6600;stroke:none;display:inline"
         inkscape:connector-curvature="0" />
      <path
         sodipodi:nodetypes="cc"
         inkscape:connector-curvature="0"
         id="path5781"
         d="m 276.37036,108.33438 c 26.05654,1.78659 56.05368,64.45427 10.68981,84.39823"
         style="fill:none;stroke:#aa4400;stroke-width:3;stroke-linecap:butt;stroke-linejoin:miter;stroke-opacity:1;display:inline" />
      <path
         sodipodi:nodetypes="cc"
         inkscape:connector-curvature="0"
         id="path5783"
         d="m 266.05633,108.57825 c 26.00145,3.33501 34.5591,89.29421 -2.25757,85.1925"
         style="fill:none;stroke:#aa4400;stroke-width:3;stroke-linecap:butt;stroke-linejoin:miter;stroke-opacity:1;display:inline" />
      <path
         sodipodi:nodetypes="cc"
         inkscape:connector-curvature="0"
         id="path5785"
         d="m 253.17158,108.32766 c -21.80048,-7.36511 -36.96077,83.75144 -5.5262,84.16783"
         style="fill:none;stroke:#aa4400;stroke-width:3;stroke-linecap:butt;stroke-linejoin:miter;stroke-opacity:1;display:inline" />
      <path
         sodipodi:nodetypes="cc"
         inkscape:connector-curvature="0"
         id="path5787"
         d="m 243.20651,107.97194 c -34.42094,12.63313 -42.84014,65.73352 -18.51591,80.62835"
         style="fill:none;stroke:#aa4400;stroke-width:3;stroke-linecap:butt;stroke-linejoin:miter;stroke-opacity:1;display:inline" />
      <path
         sodipodi:nodetypes="cc"
         inkscape:connector-curvature="0"
         id="path5789"
         d="m 259.62403,108.45294 c -0.76417,13.22704 -5.75845,68.08535 0.77403,84.89272"
         style="fill:none;stroke:#aa4400;stroke-width:3;stroke-linecap:butt;stroke-linejoin:miter;stroke-opacity:1;display:inline" />
      <path
         sodipodi:nodetypes="cscscc"
         inkscape:connector-curvature="0"
         id="path5773"
         d="m 297.53846,191.0193 c 17.56558,-3.47214 32.17975,-20.85842 23.23806,-45.42894 -13.09815,-35.99193 -43.40191,-40.09375 -58.74864,-36.10074 -21.00036,-7.66044 -54.70309,9.01931 -60.99955,39.71647 -3.99583,19.48107 6.99046,28.68445 16.00942,36.32758 19.3688,10.22094 63.46892,9.18829 80.50071,5.48563 z"
         style="fill:none;stroke:#000000;stroke-width:3;stroke-linecap:butt;stroke-linejoin:miter;stroke-opacity:1;display:inline" />
      <path
         sodipodi:nodetypes="ccc"
         inkscape:connector-curvature="0"
         id="path5793"
         d="m 282.13794,195.48903 c -14.42816,-6.68673 -36.67126,-8.74028 -52.90292,-4.80935 -2.21538,16.41848 11.10241,47.69348 16.80504,73.61359"
         style="fill:#3e4837;stroke:#000000;stroke-width:3;stroke-linecap:butt;stroke-linejoin:miter;stroke-opacity:1;display:inline" />
      <path
         sodipodi:nodetypes="ccccccccccccccc"
         inkscape:connector-curvature="0"
         id="path5775"
         d="m 276.50316,152.9902 c -3.37954,5.45166 -14.77321,3.57122 -21.53257,3.05265 l -0.49437,7.77297 -8.44906,-0.33798 0.15672,-8.29211 -10.47655,-2.02773 -0.67588,7.41051 -7.59167,-1.50856 0.20572,-7.77295 c -5.15361,-0.87373 -9.04998,-2.4898 -10.52555,-5.94892 -2.13245,12.77002 5.15361,29.59818 19.60149,30.53632 l -2.9e-4,-7.11997 9.12479,0.69883 0.33794,7.77294 c 13.61296,0.61314 26.85855,-6.78401 30.31928,-24.236 z"
         style="fill:#000000;stroke:none;display:inline" />
      <path
         sodipodi:nodetypes="ccccc"
         inkscape:connector-curvature="0"
         id="path5777"
         d="m 274.96337,143.86372 -16.3317,-13.79657 -11.62636,17.79782 13.26952,-4.86663 z"
         style="fill:#000000;stroke:none;display:inline" />
      <path
         sodipodi:nodetypes="ccccc"
         inkscape:connector-curvature="0"
         id="path5779"
         d="m 237.29206,146.64622 -8.03747,-18.01918 -13.24342,10.40285 11.05008,0.004 z"
         style="fill:#000000;stroke:none;display:inline" />
    </g>
    <g
       transform="matrix(1.4497605,0,0,1.4497605,-2012.3585,-237.28555)"
       style="stroke-width:2.06930733;display:inline"
       id="g5373">
      <path
         inkscape:connector-curvature="0"
         id="path5695"
         d="m 1501.4388,272.90537 c 15.465,0.91409 14.7278,11.53873 7.9876,30.27253 -1.1842,25.32828 -13.7211,46.25052 -46.8156,47.32478 -43.5613,1.41402 -47.2775,-36.0332 -57.6769,-41.57587 14.8301,-7.74032 10.2155,-18.792 12.8973,-24.90749 1.6336,-25.27794 17.8466,-40.84914 40.032,-42.28954 20.5168,-1.33208 38.9813,9.92554 44.4239,32.97554"
         style="fill:#fffff8;fill-opacity:1;stroke:#000000;stroke-width:2.06930733;stroke-linecap:butt;stroke-linejoin:miter;stroke-opacity:1;display:inline" />
      <path
         inkscape:connector-curvature="0"
         id="path5693"
         d="m 1438.9653,304.52931 c 2.942,10.61354 6.4513,18.72479 18.6027,5.24749"
         style="fill:none;stroke:#000000;stroke-width:2.06930733;stroke-linecap:butt;stroke-linejoin:miter;stroke-opacity:1;display:inline" />
      <path
         sodipodi:nodetypes="cscsc"
         inkscape:connector-curvature="0"
         id="path5697"
         d="m 1492.4545,273.33688 c -3.5564,10.09056 -5.2961,0.0494 -12.7885,1.87046 -9.2761,2.25455 -9.3727,14.20918 -18.3176,4.45454 4.038,6.03311 6.6495,15.66259 18.2724,12.58346 8.7009,-2.30504 10.6962,-11.31289 12.8337,-18.90846 z"
         style="fill:#aa0000;fill-opacity:1;stroke:#000000;stroke-width:2.06930733;stroke-linecap:butt;stroke-linejoin:miter;stroke-opacity:1;display:inline" />
      <path
         sodipodi:nodetypes="cc"
         inkscape:connector-curvature="0"
         id="path5699"
         d="m 1482.2395,262.16607 -0.3274,8.46154"
         style="fill:none;stroke:#000000;stroke-width:2.06930733;stroke-linecap:butt;stroke-linejoin:miter;stroke-opacity:1;display:inline" />
      <path
         sodipodi:nodetypes="cc"
         inkscape:connector-curvature="0"
         id="path5701"
         d="m 1467.1933,267.15807 5.5435,5.80519"
         style="fill:none;stroke:#000000;stroke-width:2.06930733;stroke-linecap:butt;stroke-linejoin:miter;stroke-opacity:1;display:inline" />
    </g>
  </g>
  <g
     inkscape:groupmode="layer"
     id="layer4"
     inkscape:label="吹き出し"
     sodipodi:insensitive="true">
    <g
       id="g5116"
       transform="translate(27.935668,-95.753108)">
      <path
         sodipodi:nodetypes="sssssscsssss"
         inkscape:connector-curvature="0"
         id="rect13841"
         d="m 60.705053,109.49836 205.089237,0 c 14.39154,0 25.97752,11.58598 25.97752,25.97753 l 0,28.24943 c 0,14.39155 -11.58598,25.97753 -25.97752,25.97753 l -112.88285,0 c -21.29438,0 -17.74114,10.81916 -38.06856,21.47155 11.23452,-10.41871 10.9959,-21.47155 -6.75031,-21.47155 l -47.387517,0 c -14.391549,0 -25.977526,-11.58598 -25.977526,-25.97753 l 0,-28.24943 c 0,-14.39155 11.585977,-25.97753 25.977526,-25.97753 z"
         style="fill:#fefefe;fill-opacity:1;stroke:#000000;stroke-width:3" />
      <text
         sodipodi:linespacing="125%"
         id="text6768-1"
         y="165.63722"
         x="54.42128"
         style="font-size:47.90450668px;font-style:normal;font-variant:normal;font-weight:normal;font-stretch:normal;line-height:125%;letter-spacing:0px;word-spacing:0px;writing-mode:lr-tb;fill:#000000;fill-opacity:1;stroke:none;font-family:MS UI Gothic;-inkscape-font-specification:MS UI Gothic"
         xml:space="preserve"><tspan
           id="tspan3151-4"
           style="font-size:47.90450668px;font-style:normal;font-variant:normal;font-weight:normal;font-stretch:normal;fill:#000000;fill-opacity:1;font-family:MS UI Gothic;-inkscape-font-specification:MS UI Gothic"
           y="165.63722"
           x="54.42128"
           sodipodi:role="line">友好の契り</tspan></text>
    </g>
  </g>
  <g
     inkscape:groupmode="layer"
     id="layer2"
     inkscape:label="枠面"
     sodipodi:insensitive="true">
    <path
       style="fill:#ffffff;stroke:none;display:inline"
       d="m 0,0 0,320 370,0 0,-320 -10,10 0,300 -350,0 0,-300 350,0 10,-10 z"
       id="path21072"
       inkscape:connector-curvature="0"
       sodipodi:nodetypes="ccccccccccc" />
  </g>
</svg>
