<?xml version="1.0" encoding="UTF-8" standalone="no"?>
<!-- Created with Inkscape (http://www.inkscape.org/) -->

<svg
   xmlns:dc="http://purl.org/dc/elements/1.1/"
   xmlns:cc="http://creativecommons.org/ns#"
   xmlns:rdf="http://www.w3.org/1999/02/22-rdf-syntax-ns#"
   xmlns:svg="http://www.w3.org/2000/svg"
   xmlns="http://www.w3.org/2000/svg"
   xmlns:sodipodi="http://sodipodi.sourceforge.net/DTD/sodipodi-0.dtd"
   xmlns:inkscape="http://www.inkscape.org/namespaces/inkscape"
   width="370"
   height="320"
   id="svg3172"
   version="1.1"
   inkscape:version="0.48.4 r9939"
   sodipodi:docname="[00]規格.svg"
   inkscape:export-filename="C:\Users\執安\Desktop\資料\臨時\svg\BUTAS\[22.成功].png"
   inkscape:export-xdpi="90"
   inkscape:export-ydpi="90">
  <defs
     id="defs3174" />
  <sodipodi:namedview
     id="base"
     pagecolor="#ffffff"
     bordercolor="#666666"
     borderopacity="1.0"
     inkscape:pageopacity="0.0"
     inkscape:pageshadow="2"
     inkscape:zoom="0.50585109"
     inkscape:cx="-34.174022"
     inkscape:cy="335.51828"
     inkscape:document-units="px"
     inkscape:current-layer="layer3"
     showgrid="false"
     inkscape:window-width="1100"
     inkscape:window-height="698"
     inkscape:window-x="-5"
     inkscape:window-y="-5"
     inkscape:window-maximized="0" />
  <metadata
     id="metadata3177">
    <rdf:RDF>
      <cc:Work
         rdf:about="">
        <dc:format>image/svg+xml</dc:format>
        <dc:type
           rdf:resource="http://purl.org/dc/dcmitype/StillImage" />
        <dc:title></dc:title>
      </cc:Work>
    </rdf:RDF>
  </metadata>
  <g
     inkscape:label="補助線"
     inkscape:groupmode="layer"
     id="layer1"
     transform="translate(0,-732.36218)"
     sodipodi:insensitive="true"
     style="display:none">
    <path
       style="fill:none;stroke:#0000ff;stroke-width:1px;stroke-linecap:butt;stroke-linejoin:miter;stroke-opacity:1;display:inline"
       d="M 10,1042.3622 360,742.36211"
       id="path3025"
       inkscape:connector-curvature="0"
       sodipodi:nodetypes="cc" />
    <path
       style="fill:none;stroke:#0000ff;stroke-width:1px;stroke-linecap:butt;stroke-linejoin:miter;stroke-opacity:1;display:inline"
       d="M 10,742.36211 360,1042.3622"
       id="path3027"
       inkscape:connector-curvature="0"
       sodipodi:nodetypes="cc" />
    <path
       style="fill:none;stroke:#ff0000;stroke-width:1px;stroke-linecap:butt;stroke-linejoin:miter;stroke-opacity:1;display:inline"
       d="m 10,732.36211 0,320.00009"
       id="path3006"
       inkscape:connector-curvature="0"
       sodipodi:nodetypes="cc" />
    <path
       style="fill:none;stroke:#ff0000;stroke-width:1px;stroke-linecap:butt;stroke-linejoin:miter;stroke-opacity:1;display:inline"
       d="m 360,732.36211 0,320.00009"
       id="path3010"
       inkscape:connector-curvature="0"
       sodipodi:nodetypes="cc" />
    <path
       style="fill:none;stroke:#ff0000;stroke-width:1px;stroke-linecap:butt;stroke-linejoin:miter;stroke-opacity:1;display:inline"
       d="m 0,742.36208 370,3e-5"
       id="path3016"
       inkscape:connector-curvature="0" />
    <path
       style="fill:none;stroke:#ff0000;stroke-width:1px;stroke-linecap:butt;stroke-linejoin:miter;stroke-opacity:1;display:inline"
       d="m 0,1042.3622 370,0"
       id="path3018"
       inkscape:connector-curvature="0"
       sodipodi:nodetypes="cc" />
  </g>
  <g
     inkscape:groupmode="layer"
     id="layer3"
     inkscape:label="豚"
     style="display:inline"
     sodipodi:insensitive="true">
    <path
       style="fill:none;stroke:#000000;stroke-width:3;stroke-linecap:butt;stroke-linejoin:miter;stroke-opacity:1;display:inline"
       d="m 165.83648,326.44623 7,0 c 2.24077,0 2.29464,5 0,5 l -7,0 0,40 7,0 c 2.12179,0 2.16295,5 0,5 l -7,0 c -3.25491,0 -5,-1.9144 -5,-5 l 0,-40 c 0,-2.6836 1.28644,-5 5,-5 z"
       id="path5645"
       inkscape:connector-curvature="0" />
    <g
       transform="matrix(1.3465709,0,0,1.3465709,-926.47078,-1046.0289)"
       style="stroke-width:2.22788119;display:inline"
       id="g5754">
      <path
         sodipodi:nodetypes="csccsccc"
         inkscape:connector-curvature="0"
         id="path5553"
         d="m 851.0402,938.76945 c -3.59872,37.25662 28.18117,46.78881 49.51018,48.71016 22.69255,2.04418 45.18069,-14.12585 52.30651,-21.48078 -15.00178,-8.30101 -10.69734,-21.38827 -14.2632,-37.30374 0.92259,-24.59587 -14.3587,-43.35867 -36.93508,-46.31859 -21.98936,-2.88296 -38.81391,11.15045 -40.59086,28.65128 l -13.45112,8.16576 1.83671,20.65718"
         style="fill:#fffff8;fill-opacity:1;stroke:#000000;stroke-width:2.22788119;stroke-linecap:butt;stroke-linejoin:miter;stroke-opacity:1;display:inline" />
      <rect
         ry="1.4235077"
         y="902.73425"
         x="853.63531"
         height="27.046648"
         width="4.2705283"
         id="rect5549"
         style="fill:none;stroke:#000000;stroke-width:2.22788119;stroke-linecap:round;stroke-miterlimit:4;stroke-opacity:1;stroke-dasharray:none;stroke-dashoffset:0;display:inline" />
      <path
         inkscape:connector-curvature="0"
         id="path5551"
         d="m 852.37601,925.60002 c 14.52002,-7.87471 6.53856,-20.6816 -2.99514,-13.91916 -7.9592,5.64561 -5.24527,22.49741 1.18127,31.58508"
         style="fill:#fffff8;fill-opacity:1;stroke:#000000;stroke-width:2.22788119;stroke-linecap:butt;stroke-linejoin:miter;stroke-opacity:1;display:inline" />
      <path
         sodipodi:nodetypes="cscsc"
         inkscape:connector-curvature="0"
         id="path5555"
         d="m 873.2322,912.03422 c 5.31329,3.30034 5.36394,-1.98869 11.99094,-1.04239 7.4332,1.06142 10.86964,11.00541 17.71048,4.30139 -5.38174,5.89942 -5.96216,13.02899 -17.95459,11.32876 -11.43327,-1.62094 -8.04852,-11.31168 -11.74683,-14.58776 z"
         style="fill:#aa0000;fill-opacity:1;stroke:#000000;stroke-width:2.22788119;stroke-linecap:butt;stroke-linejoin:miter;stroke-opacity:1;display:inline" />
      <path
         sodipodi:nodetypes="cc"
         inkscape:connector-curvature="0"
         id="path5557"
         d="m 881.6462,900.74447 0.35734,6.23969"
         style="fill:none;stroke:#000000;stroke-width:2.22788119;stroke-linecap:butt;stroke-linejoin:miter;stroke-opacity:1;display:inline" />
      <path
         sodipodi:nodetypes="cc"
         inkscape:connector-curvature="0"
         id="path5559"
         d="m 896.59616,903.64061 -4.52434,5.55729"
         style="fill:none;stroke:#000000;stroke-width:2.22788119;stroke-linecap:butt;stroke-linejoin:miter;stroke-opacity:1;display:inline" />
      <path
         inkscape:connector-curvature="0"
         id="path5561"
         d="m 863.12731,908.45465 0,23.19675 c 0,2.94941 -1.02192,3.97135 -3.97131,3.97135 l -14.45044,0 c -2.94941,0 -3.79966,-1.02691 -3.97133,-3.97135 l 0,-23.19675 z"
         style="opacity:0.65;fill:#ff6600;stroke:none;display:inline" />
      <path
         inkscape:connector-curvature="0"
         id="path5563"
         d="m 842.83437,894.19323 18.34836,0 c 3.15448,0 4.24747,1.09298 4.24747,4.24748 l 0,33.78053 c 0,3.15448 -2.53955,5.694 -5.69404,5.694 l -15.45521,0 c -3.1545,0 -5.69405,-2.53952 -5.69405,-5.694 l 0,-33.78053 c 0,-3.1545 1.09298,-4.24748 4.24747,-4.24748 z"
         style="fill:none;stroke:#000000;stroke-width:2.22788119;display:inline" />
      <path
         sodipodi:nodetypes="cc"
         inkscape:connector-curvature="0"
         id="path3870"
         d="m 915.52497,949.16519 c 17.52116,10.93096 22.01622,4.58882 17.00008,-12.75006"
         style="fill:none;stroke:#000000;stroke-width:2.22788119;stroke-linecap:butt;stroke-linejoin:miter;stroke-opacity:1" />
      <path
         sodipodi:nodetypes="ccc"
         inkscape:connector-curvature="0"
         id="path3910-2"
         d="m 878.69147,889.84201 19.30218,-10.0938 7.96879,16.11465"
         style="fill:#f8fcff;fill-opacity:1;stroke:#000000;stroke-width:2.22788119;stroke-linecap:butt;stroke-linejoin:miter;stroke-opacity:1;display:inline" />
      <path
         sodipodi:nodetypes="cc"
         inkscape:connector-curvature="0"
         id="path3908-14"
         d="m 872.13935,889.842 c 12.97642,-1.58308 47.15747,8.5524 62.15658,16.46883"
         style="fill:none;stroke:#000000;stroke-width:2.22788119;stroke-linecap:butt;stroke-linejoin:miter;stroke-opacity:1;display:inline" />
    </g>
    <g
       transform="matrix(1.3465709,0,0,1.3465709,-926.47078,-1046.0289)"
       style="stroke-width:2.22788119;display:inline"
       id="g5737">
      <path
         sodipodi:nodetypes="cscccsccc"
         inkscape:connector-curvature="0"
         id="path5537"
         d="m 800.66381,939.49166 c 8.71547,34.0322 -16.03721,50.85253 -38.29436,53.46394 -28.34495,3.32567 -46.86625,-6.59217 -62.84685,-21.51479 4.0579,-2.31944 7.3731,-7.92566 7.7511,-16.29712 -14.043,-5.41673 -13.0126,-10.26602 1.5496,-23.44849 1.0095,-22.63562 9.2401,-41.38199 33.343,-47.32635 22.53227,-5.55702 45.53859,7.40699 50.80918,28.26558 l 13.29005,0.0693 1.46016,21.65254"
         style="fill:#fffff8;fill-opacity:1;stroke:#000000;stroke-width:2.22788119;stroke-linecap:butt;stroke-linejoin:miter;stroke-opacity:1;display:inline" />
      <path
         inkscape:connector-curvature="0"
         id="path5645-1-7"
         d="m 798.15149,920.71499 -1.21185,-11.40442 c -0.22094,-2.07931 0.42043,-5.52969 3.29779,-5.83544 l 5.42378,-0.57633 c 1.7362,-0.18449 2.35427,5.23484 0.57633,5.42376 l -3.87413,0.41168 1.75844,16.5483"
         style="fill:none;stroke:#000000;stroke-width:2.22788119;stroke-linecap:butt;stroke-linejoin:miter;stroke-opacity:1;display:inline" />
      <path
         sodipodi:nodetypes="cscsc"
         inkscape:connector-curvature="0"
         id="path5539"
         d="m 781.68003,909.65234 c -3.49865,8.56615 -4.88009,-1.04292 -12.06773,1.58882 -9.48938,3.47451 -8.51871,14.99238 -17.1792,10.51057 6.92997,2.33865 8.73135,13.25322 20.06345,7.57568 8.90585,-4.46196 6.29053,-14.22995 9.18348,-19.67507 z"
         style="fill:#aa0000;fill-opacity:1;stroke:#000000;stroke-width:2.22788119;stroke-linecap:butt;stroke-linejoin:miter;stroke-opacity:1;display:inline" />
      <path
         sodipodi:nodetypes="cc"
         inkscape:connector-curvature="0"
         id="path5541"
         d="m 773.1216,901.47187 -0.53325,6.79994"
         style="fill:none;stroke:#000000;stroke-width:2.22788119;stroke-linecap:butt;stroke-linejoin:miter;stroke-opacity:1;display:inline" />
      <path
         sodipodi:nodetypes="cc"
         inkscape:connector-curvature="0"
         id="path5543"
         d="m 757.86805,905.47587 4.72847,4.79137"
         style="fill:none;stroke:#000000;stroke-width:2.22788119;stroke-linecap:butt;stroke-linejoin:miter;stroke-opacity:1;display:inline" />
      <path
         sodipodi:nodetypes="csccc"
         inkscape:connector-curvature="0"
         id="path5535-7"
         d="m 800.2588,922.79767 c -8.87967,-8.82697 2.82465,-18.41763 9.79027,-10.11437 6.56279,7.82307 -0.87987,24.51416 -9.79237,32.01264 l -5.81368,0.48073 z"
         style="fill:#fffff8;fill-opacity:1;stroke:none;display:inline" />
      <path
         sodipodi:nodetypes="ccc"
         inkscape:connector-curvature="0"
         id="path3910-22"
         d="m 745.34622,896.08724 9.67149,-16.45319 17.86985,12.64632"
         style="fill:#f8fcff;fill-opacity:1;stroke:#000000;stroke-width:2.22788119;stroke-linecap:butt;stroke-linejoin:miter;stroke-opacity:1;display:inline" />
      <path
         sodipodi:nodetypes="cc"
         inkscape:connector-curvature="0"
         id="path3908-3"
         d="m 715.38214,903.54472 c 18.8404,-5.54376 49.70093,-12.43877 64.80543,-11.60288"
         style="fill:none;stroke:#000000;stroke-width:2.22788119;stroke-linecap:butt;stroke-linejoin:miter;stroke-opacity:1;display:inline" />
      <path
         inkscape:connector-curvature="0"
         id="path5535"
         d="m 804.50409,926.36479 c -16.46589,-9.39215 -2.56951,-22.81167 5.29155,-13.44102 6.56281,7.82306 -0.64699,24.16484 -9.55949,31.66332"
         style="fill:none;stroke:#000000;stroke-width:2.22788119;stroke-linecap:butt;stroke-linejoin:miter;stroke-opacity:1;display:inline" />
      <path
         inkscape:connector-curvature="0"
         id="path5724"
         d="m 804.12185,925.28254 0.54691,5.14679 3.87413,-0.41167 c 1.64401,-0.17469 2.25223,5.24569 0.57633,5.42377 l -5.42377,0.57634 c -2.52198,0.26799 -4.19641,-2.6213 -4.45046,-5.0121 l -1.0935,-10.29068"
         style="fill:none;stroke:#000000;stroke-width:2.22788119;stroke-linecap:butt;stroke-linejoin:miter;stroke-opacity:1;display:inline" />
      <path
         sodipodi:nodetypes="cssc"
         inkscape:connector-curvature="0"
         id="path5547-8"
         d="m 799.49857,893.214 c 0.24265,2.06824 1.66086,3.32506 5.39551,3.60788 7.48878,0.56712 14.70951,-0.20597 21.66036,-2.3285 3.58206,-1.09383 4.95429,-2.06581 4.6328,-4.68595"
         style="fill:none;stroke:#e3dbdb;stroke-width:2.22788119;display:inline" />
      <path
         inkscape:connector-curvature="0"
         id="path5547"
         d="m 825.84087,887.92718 c -7.48878,-0.56712 -14.70951,0.20597 -21.66036,2.3285 -3.58206,1.09383 -4.87545,1.82929 -4.47512,5.5532 l 4.28693,39.87812 c 0.40033,3.7239 3.70273,5.83423 7.44445,5.99924 6.6499,0.29326 12.73622,-0.35275 18.245,-1.96135 3.5952,-1.04982 6.39955,-3.72054 5.99922,-7.44445 l -4.28693,-39.87813 c -0.40033,-3.7239 -1.81854,-4.19231 -5.55319,-4.47513 z"
         style="fill:none;stroke:#000000;stroke-width:2.22788119;display:inline" />
      <path
         inkscape:connector-curvature="0"
         id="path5547-4"
         d="m 825.93888,902.52394 c -5.15381,-1.05808 -13.21529,-0.96407 -19.19045,0.86052 -3.07925,0.9403 -4.24069,1.57823 -3.84696,4.77369 l 3.25726,26.43522 c 0.39373,3.19546 3.18298,5.01528 6.39947,5.15712 5.71646,0.25211 10.94844,-0.30322 15.68395,-1.68603 3.09056,-0.90246 5.4972,-3.19785 5.15713,-6.39947 l -2.68671,-25.29411 c -0.34007,-3.2016 -1.61985,-3.19945 -4.77369,-3.84694 z"
         style="fill:#c83737;fill-opacity:0.75294118;stroke:none;display:inline" />
      <path
         inkscape:connector-curvature="0"
         id="path5547-4-0-4"
         d="m 826.98864,929.94448 c -5.71853,0.0841 -10.9276,0.7074 -15.61459,1.88319 -3.0589,0.76736 -5.41735,2.47497 -4.9519,4.68095 0.46544,2.20595 3.33594,3.34066 6.5536,3.29331 5.71853,-0.0841 10.9276,-0.70739 15.61459,-1.88319 3.0589,-0.76736 5.41734,-2.47497 4.9519,-4.68095 -0.46544,-2.20595 -3.33594,-3.34066 -6.5536,-3.29331 z"
         style="fill:#c83737;fill-opacity:0.75294118;stroke:none;display:inline" />
      <path
         inkscape:connector-curvature="0"
         id="path5547-4-0-4-8"
         d="m 824.39637,901.90837 c -5.83517,-0.38677 -11.19651,-0.19424 -16.07226,0.59187 -3.18208,0.51304 -5.72942,2.02078 -5.4407,4.25758 0.28872,2.23677 3.11874,3.60385 6.40204,3.82144 5.83518,0.38677 11.19651,0.19425 16.07227,-0.59187 3.18208,-0.51304 5.72941,-2.02078 5.44069,-4.25758 -0.28872,-2.23677 -3.11873,-3.60385 -6.40204,-3.82144 z"
         style="fill:#c83737;fill-opacity:0.75294118;stroke:none;display:inline" />
    </g>
    <path
       sodipodi:type="star"
       style="fill:#ffff00;fill-opacity:1;stroke:#000000;stroke-width:5.66232157"
       id="path5774"
       sodipodi:sides="5"
       sodipodi:cx="188.01158"
       sodipodi:cy="235.42973"
       sodipodi:r1="19.41963"
       sodipodi:r2="8.2449398"
       sodipodi:arg1="1.0427219"
       sodipodi:arg2="1.7172027"
       inkscape:flatsided="false"
       inkscape:rounded="0"
       inkscape:randomized="0"
       d="m 197.79657,252.204 -10.98779,-8.61753 -11.72675,6.33287 4.80035,-13.11297 -9.64669,-9.19583 13.95457,0.51327 5.76477,-12.01622 3.82405,13.4302 13.20951,1.7694 -11.59118,7.78705 z"
       transform="matrix(0.50412312,0.10000035,-0.1062724,0.53574189,135.27903,2.4172555)" />
  </g>
  <g
     inkscape:groupmode="layer"
     id="layer4"
     inkscape:label="吹き出し"
     sodipodi:insensitive="true">
    <g
       id="g5116"
       transform="translate(27.258184,-77.580986)">
      <path
         sodipodi:nodetypes="sssssscsscsssss"
         inkscape:connector-curvature="0"
         id="rect13841"
         d="m 60.705053,90.223913 205.089237,0 c 14.39154,0 25.97752,11.585977 25.97752,25.977527 l 0,47.52388 c 0,14.39155 -11.58598,25.97753 -25.97752,25.97753 l -37.2449,0 c -12.90786,0 -15.12484,11.84192 -8.42226,25.47148 -14.70565,-11.86158 -22.66861,-25.47148 -37.00805,-25.47148 l -30.20764,0 c -21.29438,0 -20.53685,15.71165 -40.86427,26.36404 11.23452,-10.41871 13.79161,-26.36404 -3.9546,-26.36404 l -47.387517,0 c -14.391549,0 -25.977526,-11.58598 -25.977526,-25.97753 l 0,-47.52388 c 0,-14.39155 11.585977,-25.977527 25.977526,-25.977527 z"
         style="fill:#fefefe;fill-opacity:1;stroke:#000000;stroke-width:3" />
      <text
         sodipodi:linespacing="125%"
         id="text6768-1"
         y="165.01089"
         x="89.420471"
         style="font-size:69.82243347px;font-style:normal;font-variant:normal;font-weight:normal;font-stretch:normal;line-height:125%;letter-spacing:0px;word-spacing:0px;writing-mode:lr-tb;fill:#000000;fill-opacity:1;stroke:none;font-family:MS UI Gothic;-inkscape-font-specification:MS UI Gothic"
         xml:space="preserve"><tspan
           id="tspan3151-4"
           style="font-size:69.82243347px;font-style:normal;font-variant:normal;font-weight:normal;font-stretch:normal;fill:#000000;fill-opacity:1;font-family:MS UI Gothic;-inkscape-font-specification:MS UI Gothic"
           y="165.01089"
           x="89.420471"
           sodipodi:role="line">成仏</tspan></text>
    </g>
    <path
       sodipodi:type="arc"
       style="fill:#000000;fill-opacity:1;stroke:none"
       id="path5754"
       sodipodi:cx="90.441635"
       sodipodi:cy="300.72556"
       sodipodi:rx="59.305992"
       sodipodi:ry="8.4016819"
       d="m 149.74763,300.72556 a 59.305992,8.4016819 0 1 1 -118.611987,0 59.305992,8.4016819 0 1 1 118.611987,0 z" />
    <path
       transform="matrix(0.90833334,0,0,1,211.41351,-1.4826521)"
       sodipodi:type="arc"
       style="fill:#000000;fill-opacity:1;stroke:none"
       id="path5754-4"
       sodipodi:cx="90.441635"
       sodipodi:cy="300.72556"
       sodipodi:rx="59.305992"
       sodipodi:ry="8.4016819"
       d="m 149.74763,300.72556 a 59.305992,8.4016819 0 1 1 -118.611987,0 59.305992,8.4016819 0 1 1 118.611987,0 z" />
  </g>
  <g
     inkscape:groupmode="layer"
     id="layer2"
     inkscape:label="枠面"
     sodipodi:insensitive="true">
    <path
       style="fill:#ffffff;stroke:none;display:inline"
       d="m 0,0 0,320 370,0 0,-320 -10,10 0,300 -350,0 0,-300 350,0 10,-10 z"
       id="path21072"
       inkscape:connector-curvature="0"
       sodipodi:nodetypes="ccccccccccc" />
  </g>
</svg>
