<?xml version="1.0" encoding="UTF-8" standalone="no"?>
<!-- Created with Inkscape (http://www.inkscape.org/) -->

<svg
   xmlns:dc="http://purl.org/dc/elements/1.1/"
   xmlns:cc="http://creativecommons.org/ns#"
   xmlns:rdf="http://www.w3.org/1999/02/22-rdf-syntax-ns#"
   xmlns:svg="http://www.w3.org/2000/svg"
   xmlns="http://www.w3.org/2000/svg"
   xmlns:sodipodi="http://sodipodi.sourceforge.net/DTD/sodipodi-0.dtd"
   xmlns:inkscape="http://www.inkscape.org/namespaces/inkscape"
   width="370"
   height="320"
   id="svg3172"
   version="1.1"
   inkscape:version="0.48.4 r9939"
   sodipodi:docname="[00]規格.svg"
   inkscape:export-filename="C:\Users\執安\Desktop\資料\臨時\svg\BUTAS\[22.成功].png"
   inkscape:export-xdpi="90"
   inkscape:export-ydpi="90">
  <defs
     id="defs3174" />
  <sodipodi:namedview
     id="base"
     pagecolor="#ffffff"
     bordercolor="#666666"
     borderopacity="1.0"
     inkscape:pageopacity="0.0"
     inkscape:pageshadow="2"
     inkscape:zoom="1.0117022"
     inkscape:cx="97.681818"
     inkscape:cy="156.1454"
     inkscape:document-units="px"
     inkscape:current-layer="layer3"
     showgrid="false"
     inkscape:window-width="1100"
     inkscape:window-height="698"
     inkscape:window-x="-5"
     inkscape:window-y="-5"
     inkscape:window-maximized="0" />
  <metadata
     id="metadata3177">
    <rdf:RDF>
      <cc:Work
         rdf:about="">
        <dc:format>image/svg+xml</dc:format>
        <dc:type
           rdf:resource="http://purl.org/dc/dcmitype/StillImage" />
        <dc:title></dc:title>
      </cc:Work>
    </rdf:RDF>
  </metadata>
  <g
     inkscape:label="補助線"
     inkscape:groupmode="layer"
     id="layer1"
     transform="translate(0,-732.36218)"
     sodipodi:insensitive="true"
     style="display:none">
    <path
       style="fill:none;stroke:#0000ff;stroke-width:1px;stroke-linecap:butt;stroke-linejoin:miter;stroke-opacity:1;display:inline"
       d="M 10,1042.3622 360,742.36211"
       id="path3025"
       inkscape:connector-curvature="0"
       sodipodi:nodetypes="cc" />
    <path
       style="fill:none;stroke:#0000ff;stroke-width:1px;stroke-linecap:butt;stroke-linejoin:miter;stroke-opacity:1;display:inline"
       d="M 10,742.36211 360,1042.3622"
       id="path3027"
       inkscape:connector-curvature="0"
       sodipodi:nodetypes="cc" />
    <path
       style="fill:none;stroke:#ff0000;stroke-width:1px;stroke-linecap:butt;stroke-linejoin:miter;stroke-opacity:1;display:inline"
       d="m 10,732.36211 0,320.00009"
       id="path3006"
       inkscape:connector-curvature="0"
       sodipodi:nodetypes="cc" />
    <path
       style="fill:none;stroke:#ff0000;stroke-width:1px;stroke-linecap:butt;stroke-linejoin:miter;stroke-opacity:1;display:inline"
       d="m 360,732.36211 0,320.00009"
       id="path3010"
       inkscape:connector-curvature="0"
       sodipodi:nodetypes="cc" />
    <path
       style="fill:none;stroke:#ff0000;stroke-width:1px;stroke-linecap:butt;stroke-linejoin:miter;stroke-opacity:1;display:inline"
       d="m 0,742.36208 370,3e-5"
       id="path3016"
       inkscape:connector-curvature="0" />
    <path
       style="fill:none;stroke:#ff0000;stroke-width:1px;stroke-linecap:butt;stroke-linejoin:miter;stroke-opacity:1;display:inline"
       d="m 0,1042.3622 370,0"
       id="path3018"
       inkscape:connector-curvature="0"
       sodipodi:nodetypes="cc" />
  </g>
  <g
     inkscape:groupmode="layer"
     id="layer3"
     inkscape:label="豚"
     style="display:inline"
     sodipodi:insensitive="true">
    <g
       transform="matrix(-1.4443678,0,0,1.4443678,937.43847,-1180.9165)"
       style="stroke-width:2.07703328;display:inline"
       id="g5632">
      <path
         sodipodi:nodetypes="csc"
         inkscape:connector-curvature="0"
         id="path5519-9-2"
         d="m 509.48764,948.2105 c 15.96891,-8.66049 7.19101,-22.74532 -3.29401,-15.3081 -8.75342,6.20897 -2.18821,28.88856 7.79404,31.72953"
         style="fill:#fffff8;fill-opacity:1;stroke:none;display:inline" />
      <path
         sodipodi:nodetypes="csccscc"
         inkscape:connector-curvature="0"
         id="path5521"
         d="m 513.61737,963.3076 c 1.07617,41.5042 26.6078,49.9184 50.05319,52.1599 33.53376,3.206 52.43744,-24.23774 62.52246,-37.94694 -13.69103,-9.11917 -8.32273,-19.74539 -16.42673,-30.83518 -0.90225,-33.44071 -23.18776,-46.8542 -41.91976,-50.03134 -22.65117,-3.84188 -44.92165,9.84045 -47.33699,36.44572 l -14.46793,6.68722"
         style="fill:#fffff8;fill-opacity:1;stroke:#000000;stroke-width:2.07703328;stroke-linecap:butt;stroke-linejoin:miter;stroke-opacity:1;display:inline" />
      <path
         inkscape:connector-curvature="0"
         id="path5523"
         d="m 531.21882,929.15604 c 4.38627,5.35181 3.60459,-3.1102 11.10536,-2.02198 10.03845,1.45639 9.60187,14.09887 18.72819,6.68454 -6.47509,6.05215 -6.74789,12.38401 -16.34991,10.90304 -10.74783,-1.65769 -9.41629,-11.96262 -13.48364,-15.5656 z"
         style="fill:#aa0000;fill-opacity:1;stroke:#000000;stroke-width:2.07703328;stroke-linecap:butt;stroke-linejoin:miter;stroke-opacity:1;display:inline"
         sodipodi:nodetypes="cscsc" />
      <path
         sodipodi:nodetypes="cc"
         inkscape:connector-curvature="0"
         id="path5525"
         d="m 540.19269,916.86533 0.30916,6.93054"
         style="fill:none;stroke:#000000;stroke-width:2.07703328;stroke-linecap:butt;stroke-linejoin:miter;stroke-opacity:1;display:inline" />
      <path
         sodipodi:nodetypes="cc"
         inkscape:connector-curvature="0"
         id="path5527"
         d="m 556.1263,920.50867 -5.33337,5.79418"
         style="fill:none;stroke:#000000;stroke-width:2.07703328;stroke-linecap:butt;stroke-linejoin:miter;stroke-opacity:1;display:inline" />
      <path
         inkscape:connector-curvature="0"
         id="path5601"
         d="m 574.39181,959.01502 c -5.797,17.27934 -2.7982,24.80494 16.0515,17.21944"
         style="fill:none;stroke:#000000;stroke-width:2.07703328;stroke-linecap:butt;stroke-linejoin:miter;stroke-opacity:1;display:inline" />
      <path
         sodipodi:nodetypes="ccc"
         inkscape:connector-curvature="0"
         id="path3910-79"
         d="m 538.36729,904.59092 19.1542,-13.26675 12.51475,17.68901"
         style="fill:#f8fcff;fill-opacity:1;stroke:#000000;stroke-width:2.07703328;stroke-linecap:butt;stroke-linejoin:miter;stroke-opacity:1;display:inline" />
      <path
         sodipodi:nodetypes="cc"
         inkscape:connector-curvature="0"
         id="path3908-92"
         d="m 534.21799,904.85393 c 21.89941,-2.28563 52.1586,7.61177 70.29261,18.37068"
         style="fill:none;stroke:#000000;stroke-width:2.07703328;stroke-linecap:butt;stroke-linejoin:miter;stroke-opacity:1;display:inline" />
      <path
         sodipodi:nodetypes="sssccssssss"
         inkscape:connector-curvature="0"
         id="path5645-18"
         d="m 512.56396,924.29157 -2.19045,0 c -1.47077,0 -1.50613,3.28184 0,3.28184 l 2.19045,0 0,21.17944 -2.19045,0 c -1.39268,0 -1.4197,3.28183 0,3.28183 l 2.19045,0 c 2.13641,0 3.28181,-1.25655 3.28181,-3.28183 l 0,-21.17944 c 0,-1.76143 -0.84437,-3.28184 -3.28181,-3.28184 z"
         style="fill:none;stroke:#000000;stroke-width:2.07703328;stroke-linecap:butt;stroke-linejoin:miter;stroke-opacity:1;display:inline" />
      <path
         sodipodi:nodetypes="cccc"
         inkscape:connector-curvature="0"
         id="path5519-9"
         d="m 509.29472,947.5252 c 15.96891,-8.66049 6.72525,-22.27956 -3.75977,-14.84234 l -0.56897,9.59363 z"
         style="fill:#fffff8;fill-opacity:1;stroke:none;display:inline" />
      <path
         inkscape:connector-curvature="0"
         id="path5519"
         d="m 509.25764,947.76425 c 15.96891,-8.66049 7.19101,-22.74532 -3.29401,-15.3081 -8.75342,6.20897 -1.52953,30.04125 8.45272,32.88219"
         style="fill:none;stroke:#000000;stroke-width:2.07703328;stroke-linecap:butt;stroke-linejoin:miter;stroke-opacity:1;display:inline" />
      <path
         inkscape:connector-curvature="0"
         id="path5529"
         d="m 519.05894,926.33426 0,25.77274 c 0,3.27694 -1.1354,4.41234 -4.41234,4.41234 l -16.05513,0 c -3.27694,0 -4.22159,-1.14095 -4.41234,-4.41234 l 0,-25.77274 z"
         style="opacity:0.65;fill:#ff6600;stroke:none;display:inline" />
      <path
         inkscape:connector-curvature="0"
         id="path5531"
         d="m 496.03122,909.7498 20.86506,0 c 3.58717,0 4.83006,1.24289 4.83006,4.83007 l 0,38.41395 c 0,3.58718 -2.88786,6.47504 -6.47503,6.47504 l -17.57511,0 c -3.58717,0 -6.47504,-2.88786 -6.47504,-6.47504 l 0,-38.41395 c 0,-3.58718 1.24289,-4.83007 4.83006,-4.83007 z"
         style="fill:none;stroke:#000000;stroke-width:2.07703328;display:inline" />
    </g>
    <path
       sodipodi:type="arc"
       style="fill:#000000;fill-opacity:1;stroke:none"
       id="path5884"
       sodipodi:cx="121.78817"
       sodipodi:cy="299.73108"
       sodipodi:rx="74.960007"
       sodipodi:ry="9.0860615"
       d="m 196.74818,299.73108 a 74.960007,9.0860615 0 1 1 -149.920017,0 74.960007,9.0860615 0 1 1 149.920017,0 z"
       transform="matrix(0.83846978,0,0,1,7.5641635,0.96102572)" />
  </g>
  <g
     inkscape:groupmode="layer"
     id="layer4"
     inkscape:label="吹き出し"
     sodipodi:insensitive="true">
    <g
       id="g5116"
       transform="translate(44.289277,-97.750657)">
      <path
         sodipodi:nodetypes="sssssscsssss"
         inkscape:connector-curvature="0"
         id="rect13841"
         d="m 60.705053,109.49836 227.454927,0 c 14.39154,0 25.97752,11.58598 25.97752,25.97753 l 0,25.77835 c 0,14.39155 -11.58598,25.97753 -25.97752,25.97753 l -105.89357,0 c -21.29438,0 -20.53685,15.71165 -40.86427,26.36404 11.23452,-10.41871 13.79161,-26.36404 -3.9546,-26.36404 l -76.742487,0 c -14.391549,0 -25.977526,-11.58598 -25.977526,-25.97753 l 0,-25.77835 c 0,-14.39155 11.585977,-25.97753 25.977526,-25.97753 z"
         style="fill:#fefefe;fill-opacity:1;stroke:#000000;stroke-width:3" />
      <text
         sodipodi:linespacing="125%"
         id="text6768-1"
         y="157.24168"
         x="45.41465"
         style="font-size:28px;font-style:normal;font-variant:normal;font-weight:normal;font-stretch:normal;line-height:125%;letter-spacing:0px;word-spacing:0px;writing-mode:lr-tb;fill:#000000;fill-opacity:1;stroke:none;font-family:MS UI Gothic;-inkscape-font-specification:MS UI Gothic"
         xml:space="preserve"><tspan
           id="tspan3151-4"
           style="font-size:28px;font-style:normal;font-variant:normal;font-weight:normal;font-stretch:normal;fill:#000000;fill-opacity:1;font-family:MS UI Gothic;-inkscape-font-specification:MS UI Gothic"
           y="157.24168"
           x="45.41465"
           sodipodi:role="line">生き返った気分ですな!!</tspan></text>
    </g>
  </g>
  <g
     inkscape:groupmode="layer"
     id="layer2"
     inkscape:label="枠面"
     sodipodi:insensitive="true">
    <path
       style="fill:#ffffff;stroke:none;display:inline"
       d="m 0,0 0,320 370,0 0,-320 -10,10 0,300 -350,0 0,-300 350,0 10,-10 z"
       id="path21072"
       inkscape:connector-curvature="0"
       sodipodi:nodetypes="ccccccccccc" />
  </g>
</svg>
