<?xml version="1.0" encoding="UTF-8" standalone="no"?>
<!-- Created with Inkscape (http://www.inkscape.org/) -->

<svg
   xmlns:dc="http://purl.org/dc/elements/1.1/"
   xmlns:cc="http://creativecommons.org/ns#"
   xmlns:rdf="http://www.w3.org/1999/02/22-rdf-syntax-ns#"
   xmlns:svg="http://www.w3.org/2000/svg"
   xmlns="http://www.w3.org/2000/svg"
   xmlns:sodipodi="http://sodipodi.sourceforge.net/DTD/sodipodi-0.dtd"
   xmlns:inkscape="http://www.inkscape.org/namespaces/inkscape"
   width="370"
   height="320"
   id="svg3172"
   version="1.1"
   inkscape:version="0.48.4 r9939"
   sodipodi:docname="[36]勤労.svg"
   inkscape:export-filename="C:\Users\執安\Desktop\資料\臨時\svg\BUTAS\[22.成功].png"
   inkscape:export-xdpi="90"
   inkscape:export-ydpi="90">
  <defs
     id="defs3174" />
  <sodipodi:namedview
     id="base"
     pagecolor="#ffffff"
     bordercolor="#666666"
     borderopacity="1.0"
     inkscape:pageopacity="0.0"
     inkscape:pageshadow="2"
     inkscape:zoom="0.79781804"
     inkscape:cx="129.46223"
     inkscape:cy="208.71429"
     inkscape:document-units="px"
     inkscape:current-layer="layer3"
     showgrid="false"
     inkscape:window-width="1100"
     inkscape:window-height="698"
     inkscape:window-x="-5"
     inkscape:window-y="-5"
     inkscape:window-maximized="0" />
  <metadata
     id="metadata3177">
    <rdf:RDF>
      <cc:Work
         rdf:about="">
        <dc:format>image/svg+xml</dc:format>
        <dc:type
           rdf:resource="http://purl.org/dc/dcmitype/StillImage" />
        <dc:title />
      </cc:Work>
    </rdf:RDF>
  </metadata>
  <g
     inkscape:label="補助線"
     inkscape:groupmode="layer"
     id="layer1"
     transform="translate(0,-732.36218)"
     sodipodi:insensitive="true"
     style="display:none">
    <path
       style="fill:none;stroke:#0000ff;stroke-width:1px;stroke-linecap:butt;stroke-linejoin:miter;stroke-opacity:1;display:inline"
       d="M 10,1042.3622 360,742.36211"
       id="path3025"
       inkscape:connector-curvature="0"
       sodipodi:nodetypes="cc" />
    <path
       style="fill:none;stroke:#0000ff;stroke-width:1px;stroke-linecap:butt;stroke-linejoin:miter;stroke-opacity:1;display:inline"
       d="M 10,742.36211 360,1042.3622"
       id="path3027"
       inkscape:connector-curvature="0"
       sodipodi:nodetypes="cc" />
    <path
       style="fill:none;stroke:#ff0000;stroke-width:1px;stroke-linecap:butt;stroke-linejoin:miter;stroke-opacity:1;display:inline"
       d="m 10,732.36211 0,320.00009"
       id="path3006"
       inkscape:connector-curvature="0"
       sodipodi:nodetypes="cc" />
    <path
       style="fill:none;stroke:#ff0000;stroke-width:1px;stroke-linecap:butt;stroke-linejoin:miter;stroke-opacity:1;display:inline"
       d="m 360,732.36211 0,320.00009"
       id="path3010"
       inkscape:connector-curvature="0"
       sodipodi:nodetypes="cc" />
    <path
       style="fill:none;stroke:#ff0000;stroke-width:1px;stroke-linecap:butt;stroke-linejoin:miter;stroke-opacity:1;display:inline"
       d="m 0,742.36208 370,3e-5"
       id="path3016"
       inkscape:connector-curvature="0" />
    <path
       style="fill:none;stroke:#ff0000;stroke-width:1px;stroke-linecap:butt;stroke-linejoin:miter;stroke-opacity:1;display:inline"
       d="m 0,1042.3622 370,0"
       id="path3018"
       inkscape:connector-curvature="0"
       sodipodi:nodetypes="cc" />
  </g>
  <g
     inkscape:groupmode="layer"
     id="layer3"
     inkscape:label="豚"
     style="display:inline"
     sodipodi:insensitive="true">
    <g
       style="stroke-width:2.37860847;display:inline"
       id="g4593"
       transform="matrix(1.2612416,0,0,1.2612416,-1157.1452,-1518.4808)">
      <path
         inkscape:connector-curvature="0"
         id="path4411-9"
         d="m 1051.7664,1278.9897 c 0,9.7967 -10.2164,17.7383 -22.819,17.7383 -12.6026,0 -22.819,-7.9416 -22.819,-17.7383 0,-9.7965 10.2164,-17.7382 22.819,-17.7382 12.6026,0 22.819,7.9417 22.819,17.7382 z"
         style="fill:#999999;stroke:#000000;stroke-width:2.37860847;stroke-linecap:round;stroke-miterlimit:4;stroke-opacity:1;stroke-dashoffset:0;display:inline" />
      <path
         inkscape:connector-curvature="0"
         id="rect4413-4-8"
         d="m 1018.0707,1291.2901 35.8122,0 0,153.5997 -35.8122,0 z"
         style="fill:#b3b3b3;stroke:none;display:inline" />
      <path
         inkscape:connector-curvature="0"
         id="rect4413-4-8-2"
         d="m 1002.8957,1291.2901 14.3888,0 0,153.5997 -14.3888,0 z"
         style="fill:#808080;stroke:none;display:inline" />
      <path
         sodipodi:nodetypes="ssccsss"
         inkscape:connector-curvature="0"
         id="path4403-1"
         d="m 1027.4093,1215.4499 c -2.4017,4.9344 -6.6876,5.708 -7.8813,9.0654 -1.0862,3.0551 0.5856,6.5051 3.1256,8.1117 l 13.2465,0 c 2.3084,-1.3774 4.3159,-4.6098 2.9767,-8.1115 -1.3182,-3.4469 -5.535,-4.2039 -8.2415,-9.0656 -0.8013,-1.4395 -2.5236,-1.4431 -3.226,0 z"
         style="fill:#b3b3b3;stroke:#000000;stroke-width:2.37860847;stroke-linecap:butt;stroke-linejoin:miter;stroke-opacity:1;display:inline" />
      <path
         sodipodi:nodetypes="ccccccc"
         inkscape:connector-curvature="0"
         id="rect4405-7"
         d="m 1017.9066,1232.9248 22.7316,0 0,2.7471 -1.5854,6.7784 -19.5606,0 -1.5856,-6.7784 z"
         style="fill:#b3b3b3;stroke:#000000;stroke-width:2.37860847;stroke-linecap:round;stroke-miterlimit:4;stroke-opacity:1;stroke-dashoffset:0;display:inline" />
      <path
         sodipodi:nodetypes="cccccccc"
         inkscape:connector-curvature="0"
         id="path4407-4-4"
         d="m 1027.0162,1241.458 15.2574,0.2889 c 5.5112,7.7507 13.6555,11.6773 21.112,13.8506 l -1.8805,12.5513 -36.6682,1.4395 0.035,-0.1859 -0.086,-11.5691 c 1.5409,-5.1612 2.4432,-10.9833 2.2303,-16.3753 z"
         style="fill:#b3b3b3;stroke:none;display:inline" />
      <path
         sodipodi:nodetypes="ccccccc"
         inkscape:connector-curvature="0"
         id="path4407-4-4-5"
         d="m 1016.6465,1241.0071 10.4784,0.4693 c 0.5518,5.6768 -1.0204,14.693 -2.2422,16.9164 l 0.3737,11.6495 -27.47073,-2.1672 -2.12492,-12.3798 c 6.94795,-2.1998 18.03165,-4.6827 20.98575,-14.4882 z"
         style="fill:#808080;stroke:none;display:inline" />
      <path
         sodipodi:nodetypes="cccccccc"
         inkscape:connector-curvature="0"
         id="path4407-4"
         d="m 1016.9978,1241.5573 25.1762,0.2889 c 5.5112,7.7507 13.7831,11.6773 21.112,13.8506 l -1.8496,12.3528 -36.6991,1.638 -27.19696,-1.6286 -1.78361,-12.9153 c 5.15607,-1.0304 17.19887,-4.2081 21.24107,-13.5864 z"
         style="fill:none;stroke:#000000;stroke-width:2.37860847;stroke-linecap:butt;stroke-linejoin:miter;stroke-opacity:1;display:inline" />
      <path
         sodipodi:nodetypes="ccc"
         inkscape:connector-curvature="0"
         id="path4409-0"
         d="m 995.73541,1255.0162 c 7.31389,7.968 21.09929,8.6785 29.29959,2.7644 13.5272,6.5567 29.3606,4.7654 38.1022,-1.786"
         style="fill:none;stroke:#000000;stroke-width:2.37860847;stroke-linecap:butt;stroke-linejoin:miter;stroke-opacity:1;display:inline" />
      <path
         inkscape:connector-curvature="0"
         id="rect4413-4"
         d="m 1003.3048,1291.7154 50.6046,0 0,153.5997 -50.6046,0 z"
         style="fill:none;stroke:#000000;stroke-width:2.37860847;stroke-linecap:round;stroke-miterlimit:4;stroke-opacity:1;stroke-dashoffset:0;display:inline" />
      <path
         sodipodi:nodetypes="ccc"
         inkscape:connector-curvature="0"
         id="path4415-8"
         d="m 1026.884,1241.3998 c 0.1677,5.1227 0.063,11.1631 -1.7002,15.9342 l 0.1488,12.0558"
         style="fill:none;stroke:#000000;stroke-width:2.37860847;stroke-linecap:butt;stroke-linejoin:miter;stroke-opacity:1;display:inline" />
      <path
         inkscape:connector-curvature="0"
         id="path4456"
         d="m 1017.8592,1291.9431 0,154.3721"
         style="fill:none;stroke:#000000;stroke-width:2.37860847;stroke-linecap:butt;stroke-linejoin:miter;stroke-opacity:1" />
      <path
         inkscape:connector-curvature="0"
         id="rect4413-4-8-5"
         d="m 1014.99,1401.9302 53.8407,0 0,47.7544 -53.8407,0 z"
         style="fill:#b3b3b3;stroke:none;display:inline" />
      <path
         inkscape:connector-curvature="0"
         id="rect4413-4-8-2-1"
         d="m 992.17556,1401.9302 21.63244,0 0,47.7544 -21.63244,0 z"
         style="fill:#808080;stroke:none;display:inline" />
      <path
         inkscape:connector-curvature="0"
         id="rect4413-4-7"
         d="m 992.79062,1402.0624 76.07988,0 0,47.7544 -76.07988,0 z"
         style="fill:none;stroke:#000000;stroke-width:2.37860847;stroke-linecap:round;stroke-miterlimit:4;stroke-opacity:1;stroke-dashoffset:0;display:inline" />
      <path
         inkscape:connector-curvature="0"
         id="path4456-1"
         d="m 1014.672,1402.1332 0,47.9945"
         style="fill:none;stroke:#000000;stroke-width:2.37860847;stroke-linecap:butt;stroke-linejoin:miter;stroke-opacity:1;display:inline" />
    </g>
    <rect
       style="fill:#deaa87;fill-opacity:1;stroke:#000000;stroke-width:3;display:inline"
       id="rect4722"
       width="412.29712"
       height="47.606922"
       x="-28.348658"
       y="304.47675" />
    <g
       transform="matrix(1.2612416,0,0,1.2612416,-1113.3983,-1181.3724)"
       style="stroke-width:2.37860847;display:inline"
       id="g6184">
      <path
         inkscape:connector-curvature="0"
         id="path5567"
         d="m 1060.2472,1110.1104 c 33.9746,-1.5989 40.8031,-20.4199 46.9139,-35.1889 -10.2467,2.0086 -6.2925,-13.4792 -10.6872,-22.4494 -1.336,-26.4366 -22.6747,-40.8341 -40.4497,-41.2497 -23.2429,-0.5435 -41.1797,14.5209 -40.8723,40.618 -13.7508,39.9469 14.5299,59.7084 45.0953,58.27 z"
         style="fill:#fffff8;fill-opacity:1;stroke:#000000;stroke-width:2.37860847;stroke-linecap:butt;stroke-linejoin:miter;stroke-opacity:1;display:inline" />
      <path
         sodipodi:nodetypes="cscsc"
         inkscape:connector-curvature="0"
         id="path5569"
         d="m 1027.8926,1047.7851 c 4.5188,5.0869 3.3408,-2.2182 11.8392,-1.6008 11.3456,0.8242 10.6954,13.4135 19.0269,5.9992 -6.5101,6.9056 -15.7192,4.6114 -18.5925,4.3678 -5.6806,-0.4816 -9.5309,-5.5606 -12.2736,-8.7662 z"
         style="fill:#aa0000;fill-opacity:1;stroke:#000000;stroke-width:2.37860847;stroke-linecap:butt;stroke-linejoin:miter;stroke-opacity:1;display:inline" />
      <path
         sodipodi:nodetypes="cc"
         inkscape:connector-curvature="0"
         id="path5571"
         d="m 1036.737,1034.2785 -0.509,7.7895"
         style="fill:none;stroke:#000000;stroke-width:2.37860847;stroke-linecap:butt;stroke-linejoin:miter;stroke-opacity:1;display:inline" />
      <path
         sodipodi:nodetypes="cc"
         inkscape:connector-curvature="0"
         id="path5573"
         d="m 1048.4042,1035.0045 -1.0577,8.5221"
         style="fill:none;stroke:#000000;stroke-width:2.37860847;stroke-linecap:butt;stroke-linejoin:miter;stroke-opacity:1;display:inline" />
      <path
         sodipodi:nodetypes="ccc"
         inkscape:connector-curvature="0"
         id="path3910-85"
         d="m 1030.5596,1025.4075 15.0403,-15.3631 13.9583,18.6291"
         style="fill:#f8fcff;fill-opacity:1;stroke:#000000;stroke-width:2.37860847;stroke-linecap:butt;stroke-linejoin:miter;stroke-opacity:1;display:inline" />
      <path
         sodipodi:nodetypes="cc"
         inkscape:connector-curvature="0"
         id="path3908-16"
         d="m 1024.8775,1023.0429 c 5.8108,3.6119 48.6285,8.0034 63.5137,5.3974"
         style="fill:none;stroke:#000000;stroke-width:2.37860847;stroke-linecap:butt;stroke-linejoin:miter;stroke-opacity:1;display:inline" />
    </g>
    <g
       transform="matrix(1.2612416,0,0,1.2612416,-1113.3983,-1181.3724)"
       style="stroke-width:2.37860847;display:inline"
       id="g6178">
      <path
         sodipodi:nodetypes="cccccccccc"
         inkscape:connector-curvature="0"
         id="path6154"
         d="m 1044.017,1118.5064 c -3.7808,41.28 22.4014,52.54 35.481,55.4022 -7.3805,-8.8116 -12.3401,-16.2934 -13.4788,-25.7685 5.977,10.0581 17.3475,17.2608 41.2295,17.8397 -10.0297,-5.1319 -18.2334,-4.9216 -28.4556,-19.5133 15.0233,7.5566 31.8772,0.7534 45.8988,-0.705 -13.1251,-2.4763 -28.3326,-0.2867 -40.4366,-9.9109 12.6103,10.3427 26.5021,4.8085 38.058,-2.7751 -22.5694,-1.5202 -32.934,5.6096 -72.7462,-16.1547 z"
         style="fill:#a0892c;stroke:#000000;stroke-width:2.37860847;stroke-linecap:butt;stroke-linejoin:miter;stroke-opacity:1" />
      <path
         sodipodi:nodetypes="ccc"
         inkscape:connector-curvature="0"
         id="path6156"
         d="m 1052.7386,1144.9687 c 8.1872,20.1867 31.2786,29.6191 48.3653,30.3274 -9.0443,-4.4577 -27.7468,-18.3196 -38.9295,-36.4829"
         style="fill:#a0892c;stroke:#000000;stroke-width:2.37860847;stroke-linecap:butt;stroke-linejoin:miter;stroke-opacity:1" />
      <path
         sodipodi:nodetypes="ccccccc"
         inkscape:connector-curvature="0"
         id="path6158"
         d="m 1063.2194,1133.181 c 9.007,13.5318 26.5384,29.1367 51.5616,29.2309 -6.4689,-2.2751 -12.6748,-2.9722 -19.6236,-8.1269 4.8792,1.2528 9.4541,1.4405 13.2806,-0.9912 -8.2508,-0.201 -13.8984,-1.6662 -15.8575,-3.9644 7.087,3.0412 13.2383,1.7373 17.8397,10e-5 -8.7588,0.1963 -22.2002,-4.9235 -27.7506,-9.1181"
         style="fill:#a0892c;stroke:#000000;stroke-width:2.37860847;stroke-linecap:butt;stroke-linejoin:miter;stroke-opacity:1" />
      <rect
         transform="matrix(0.94123039,-0.33776523,0.33776523,0.94123039,0,0)"
         y="1277.876"
         x="605.34552"
         height="128.67253"
         width="5.5275922"
         id="rect6151"
         style="fill:#a05a2c;fill-opacity:1;stroke:#000000;stroke-width:2.37860847;stroke-linecap:round;stroke-miterlimit:4;stroke-opacity:1;stroke-dasharray:none;stroke-dashoffset:0" />
    </g>
    <path
       style="fill:#fffff8;fill-opacity:1;stroke:#000000;stroke-width:3;stroke-linecap:butt;stroke-linejoin:miter;stroke-opacity:1;display:inline"
       d="m 178.84401,163.78391 c 20.14064,-10.92299 0.3814,-25.67989 -12.84285,-16.29979 -11.04014,7.83105 -6.60725,31.20615 5.9827,34.78921"
       id="path5565"
       inkscape:connector-curvature="0" />
    <path
       style="fill:#fffff8;fill-opacity:1;stroke:#000000;stroke-width:3;stroke-linecap:butt;stroke-linejoin:miter;stroke-opacity:1;display:inline"
       d="m 202.32669,168.23899 c -17.6541,7.6715 -14.27663,21.49547 5.63573,26.53741"
       id="path5587"
       inkscape:connector-curvature="0" />
    <path
       style="fill:#deaa87;stroke:#000000;stroke-width:3;stroke-linecap:butt;stroke-linejoin:miter;stroke-opacity:1;display:inline"
       d="m 68.108569,306.06493 c 21.900531,-2.9344 49.069751,-41.99922 71.000421,-42.50018 30.83519,-0.70453 38.42547,39.48846 72.70741,45.37897"
       id="path6160"
       inkscape:connector-curvature="0"
       sodipodi:nodetypes="csc" />
    <path
       style="fill:#d38d5f;stroke:#000000;stroke-width:3;stroke-linecap:butt;stroke-linejoin:miter;stroke-opacity:1;display:inline"
       d="m 122.3589,281.06473 c 3.86987,8.54882 7.36392,16.53563 20.25012,18.00019 -0.56744,-7.10433 -0.83036,-13.39376 -9.25006,-16.25009 -0.88075,1.97888 -3.2547,2.79592 -5.50004,-0.75006 z"
       id="path6162"
       inkscape:connector-curvature="0"
       sodipodi:nodetypes="ccccc" />
    <path
       style="fill:none;stroke:#000000;stroke-width:3;stroke-linecap:butt;stroke-linejoin:miter;stroke-opacity:1;display:inline"
       d="m 144.35903,301.56495 c -3.40874,-6.58797 -11.84406,-14.92087 -18.12512,-17.12514"
       id="path6164"
       inkscape:connector-curvature="0"
       sodipodi:nodetypes="cc" />
    <path
       style="fill:#808000;stroke:#000000;stroke-width:3;stroke-linecap:butt;stroke-linejoin:miter;stroke-opacity:1;display:inline"
       d="m 155.07025,290.80555 c -2.92243,-3.54195 -6.76392,-5.70523 -10.60665,-7.86662 2.30345,-1.60972 5.42912,-1.57504 8.66206,-1.32581 l 1.76789,3.80075 0.26511,-3.97758 c 1.56369,0.38304 2.64949,0.76608 3.2704,1.14912 l 0.17683,1.85617 1.14899,-0.9723 c 2.37175,1.47313 2.9248,2.42663 3.71232,3.4471 -2.88709,1.64883 -5.74254,3.17127 -8.39695,3.88917 z"
       id="path6166"
       inkscape:connector-curvature="0"
       sodipodi:nodetypes="cccccccccc" />
    <path
       style="fill:none;stroke:#000000;stroke-width:3;stroke-linecap:butt;stroke-linejoin:miter;stroke-opacity:1;display:inline"
       d="m 155.15866,290.54031 0.26524,5.12669"
       id="path6168"
       inkscape:connector-curvature="0"
       sodipodi:nodetypes="cc" />
    <path
       style="fill:#916f6f;stroke:#000000;stroke-width:3;stroke-linecap:butt;stroke-linejoin:miter;stroke-opacity:1;display:inline"
       d="m 161.69945,295.75529 c 5.04496,3.97972 8.48563,5.0118 13.96535,6.18727 -2.09984,-4.45167 -8.64468,-9.43156 -13.96535,-6.18727 z"
       id="path6170"
       inkscape:connector-curvature="0"
       sodipodi:nodetypes="ccc" />
    <path
       style="fill:#ffccaa;stroke:#000000;stroke-width:3;stroke-linecap:butt;stroke-linejoin:miter;stroke-opacity:1;display:inline"
       d="m 115.56044,295.04824 c 5.05827,4.13788 8.07071,4.6956 11.31378,5.65679 -1.80076,-3.67689 -4.38707,-6.6398 -11.31378,-5.65679 z"
       id="path6172"
       inkscape:connector-curvature="0"
       sodipodi:nodetypes="ccc" />
    <path
       style="fill:#89a02c;stroke:#000000;stroke-width:3;stroke-linecap:butt;stroke-linejoin:miter;stroke-opacity:1;display:inline"
       d="m 160.63876,274.18844 c -1.0486,-4.59622 -4.42923,-9.19244 -7.24786,-13.78865 4.83623,4.65511 7.94998,9.31036 9.0156,13.96547"
       id="path6174"
       inkscape:connector-curvature="0"
       sodipodi:nodetypes="ccc" />
    <path
       style="fill:#89a02c;stroke:#000000;stroke-width:3;stroke-linecap:butt;stroke-linejoin:miter;stroke-opacity:1;display:inline"
       d="m 168.59377,280.72924 c 2.05419,-1.79021 3.06457,-3.92827 3.71234,-6.18728 -0.50891,3.9376 -1.50971,5.4154 -2.47493,7.07116"
       id="path6176"
       inkscape:connector-curvature="0"
       sodipodi:nodetypes="ccc" />
    <path
       style="fill:#89a02c;stroke:#000000;stroke-width:3;stroke-linecap:butt;stroke-linejoin:miter;stroke-opacity:1;display:inline"
       d="m 124.80624,277.31493 c -3.4468,-3.21629 -8.82399,-5.12417 -13.73596,-7.34724 6.61512,1.13991 11.80452,3.24631 15.29846,6.5017"
       id="path6174-8"
       inkscape:connector-curvature="0"
       sodipodi:nodetypes="ccc" />
  </g>
  <g
     inkscape:groupmode="layer"
     id="layer4"
     inkscape:label="吹き出し"
     sodipodi:insensitive="true">
    <g
       id="g5116"
       transform="translate(66.719239,-96.866451)">
      <path
         sodipodi:nodetypes="sssssscsssss"
         inkscape:connector-curvature="0"
         id="rect13841"
         d="m 151.43459,108.6247 114.18497,0 c 14.39154,0 25.97752,11.58598 25.97752,25.97753 l 0,15.66873 c 0,14.39155 -11.58598,25.97753 -25.97752,25.97753 l -22.72116,0 c -21.29438,0 -20.53685,15.71165 -40.86427,26.36404 11.23452,-10.41871 13.79161,-26.36404 -3.9546,-26.36404 l -46.64494,0 c -14.39155,0 -25.97753,-11.58598 -25.97753,-25.97753 l 0,-15.66873 c 0,-14.39155 11.58598,-25.97753 25.97753,-25.97753 z"
         style="fill:#fefefe;fill-opacity:1;stroke:#000000;stroke-width:3" />
      <text
         sodipodi:linespacing="125%"
         id="text6768-1"
         y="150.32265"
         x="162.83"
         style="font-size:28px;font-style:normal;font-variant:normal;font-weight:normal;font-stretch:normal;line-height:125%;letter-spacing:0px;word-spacing:0px;writing-mode:lr-tb;fill:#000000;fill-opacity:1;stroke:none;font-family:MS UI Gothic;-inkscape-font-specification:MS UI Gothic"
         xml:space="preserve"><tspan
           style="font-size:28px;font-style:normal;font-variant:normal;font-weight:normal;font-stretch:normal;fill:#000000;fill-opacity:1;font-family:MS UI Gothic;-inkscape-font-specification:MS UI Gothic"
           y="150.32265"
           x="162.83"
           sodipodi:role="line"
           id="tspan5696">掃除中。</tspan></text>
    </g>
  </g>
  <g
     inkscape:groupmode="layer"
     id="layer2"
     inkscape:label="枠面"
     sodipodi:insensitive="true">
    <path
       style="fill:#ffffff;stroke:none;display:inline"
       d="m 0,0 0,320 370,0 0,-320 -10,10 0,300 -350,0 0,-300 350,0 10,-10 z"
       id="path21072"
       inkscape:connector-curvature="0"
       sodipodi:nodetypes="ccccccccccc" />
  </g>
</svg>
