<?xml version="1.0" encoding="UTF-8" standalone="no"?>
<!-- Created with Inkscape (http://www.inkscape.org/) -->

<svg
   xmlns:dc="http://purl.org/dc/elements/1.1/"
   xmlns:cc="http://creativecommons.org/ns#"
   xmlns:rdf="http://www.w3.org/1999/02/22-rdf-syntax-ns#"
   xmlns:svg="http://www.w3.org/2000/svg"
   xmlns="http://www.w3.org/2000/svg"
   xmlns:sodipodi="http://sodipodi.sourceforge.net/DTD/sodipodi-0.dtd"
   xmlns:inkscape="http://www.inkscape.org/namespaces/inkscape"
   width="370"
   height="320"
   id="svg3172"
   version="1.1"
   inkscape:version="0.48.4 r9939"
   sodipodi:docname="[37]無残.svg"
   inkscape:export-filename="C:\Users\執安\Desktop\資料\臨時\ANCESTOR\[37]無残.png"
   inkscape:export-xdpi="90"
   inkscape:export-ydpi="90">
  <defs
     id="defs3174" />
  <sodipodi:namedview
     id="base"
     pagecolor="#ffffff"
     bordercolor="#666666"
     borderopacity="1.0"
     inkscape:pageopacity="0.0"
     inkscape:pageshadow="2"
     inkscape:zoom="0.4277364"
     inkscape:cx="263.2325"
     inkscape:cy="324.52737"
     inkscape:document-units="px"
     inkscape:current-layer="layer3"
     showgrid="false"
     inkscape:window-width="1360"
     inkscape:window-height="698"
     inkscape:window-x="-5"
     inkscape:window-y="-5"
     inkscape:window-maximized="0" />
  <metadata
     id="metadata3177">
    <rdf:RDF>
      <cc:Work
         rdf:about="">
        <dc:format>image/svg+xml</dc:format>
        <dc:type
           rdf:resource="http://purl.org/dc/dcmitype/StillImage" />
        <dc:title />
      </cc:Work>
    </rdf:RDF>
  </metadata>
  <g
     inkscape:label="補助線"
     inkscape:groupmode="layer"
     id="layer1"
     transform="translate(0,-732.36218)"
     sodipodi:insensitive="true"
     style="display:none">
    <path
       style="fill:none;stroke:#0000ff;stroke-width:1px;stroke-linecap:butt;stroke-linejoin:miter;stroke-opacity:1;display:inline"
       d="M 10,1042.3622 360,742.36211"
       id="path3025"
       inkscape:connector-curvature="0"
       sodipodi:nodetypes="cc" />
    <path
       style="fill:none;stroke:#0000ff;stroke-width:1px;stroke-linecap:butt;stroke-linejoin:miter;stroke-opacity:1;display:inline"
       d="M 10,742.36211 360,1042.3622"
       id="path3027"
       inkscape:connector-curvature="0"
       sodipodi:nodetypes="cc" />
    <path
       style="fill:none;stroke:#ff0000;stroke-width:1px;stroke-linecap:butt;stroke-linejoin:miter;stroke-opacity:1;display:inline"
       d="m 10,732.36211 0,320.00009"
       id="path3006"
       inkscape:connector-curvature="0"
       sodipodi:nodetypes="cc" />
    <path
       style="fill:none;stroke:#ff0000;stroke-width:1px;stroke-linecap:butt;stroke-linejoin:miter;stroke-opacity:1;display:inline"
       d="m 360,732.36211 0,320.00009"
       id="path3010"
       inkscape:connector-curvature="0"
       sodipodi:nodetypes="cc" />
    <path
       style="fill:none;stroke:#ff0000;stroke-width:1px;stroke-linecap:butt;stroke-linejoin:miter;stroke-opacity:1;display:inline"
       d="m 0,742.36208 370,3e-5"
       id="path3016"
       inkscape:connector-curvature="0" />
    <path
       style="fill:none;stroke:#ff0000;stroke-width:1px;stroke-linecap:butt;stroke-linejoin:miter;stroke-opacity:1;display:inline"
       d="m 0,1042.3622 370,0"
       id="path3018"
       inkscape:connector-curvature="0"
       sodipodi:nodetypes="cc" />
  </g>
  <g
     inkscape:groupmode="layer"
     id="layer3"
     inkscape:label="豚"
     style="display:inline"
     sodipodi:insensitive="true">
    <g
       style="stroke-width:2.37860847;display:inline"
       id="g4593"
       transform="matrix(1.2612416,0,0,1.2612416,-1157.1452,-1518.4808)">
      <path
         inkscape:connector-curvature="0"
         id="path4411-9"
         d="m 1051.7664,1278.9897 c 0,9.7967 -10.2164,17.7383 -22.819,17.7383 -12.6026,0 -22.819,-7.9416 -22.819,-17.7383 0,-9.7965 10.2164,-17.7382 22.819,-17.7382 12.6026,0 22.819,7.9417 22.819,17.7382 z"
         style="fill:#999999;stroke:#000000;stroke-width:2.37860847;stroke-linecap:round;stroke-miterlimit:4;stroke-opacity:1;stroke-dashoffset:0;display:inline" />
      <path
         inkscape:connector-curvature="0"
         id="rect4413-4-8"
         d="m 1018.0707,1291.2901 35.8122,0 0,153.5997 -35.8122,0 z"
         style="fill:#b3b3b3;stroke:none;display:inline" />
      <path
         inkscape:connector-curvature="0"
         id="rect4413-4-8-2"
         d="m 1002.8957,1291.2901 14.3888,0 0,153.5997 -14.3888,0 z"
         style="fill:#808080;stroke:none;display:inline" />
      <path
         sodipodi:nodetypes="ssccsss"
         inkscape:connector-curvature="0"
         id="path4403-1"
         d="m 1027.4093,1215.4499 c -2.4017,4.9344 -6.6876,5.708 -7.8813,9.0654 -1.0862,3.0551 0.5856,6.5051 3.1256,8.1117 l 13.2465,0 c 2.3084,-1.3774 4.3159,-4.6098 2.9767,-8.1115 -1.3182,-3.4469 -5.535,-4.2039 -8.2415,-9.0656 -0.8013,-1.4395 -2.5236,-1.4431 -3.226,0 z"
         style="fill:#b3b3b3;stroke:#000000;stroke-width:2.37860847;stroke-linecap:butt;stroke-linejoin:miter;stroke-opacity:1;display:inline" />
      <path
         sodipodi:nodetypes="ccccccc"
         inkscape:connector-curvature="0"
         id="rect4405-7"
         d="m 1017.9066,1232.9248 22.7319,0 0,2.7471 -1.5857,6.7784 -19.5606,0 -1.5857,-6.7784 z"
         style="fill:#b3b3b3;stroke:#000000;stroke-width:2.37860847;stroke-linecap:round;stroke-miterlimit:4;stroke-opacity:1;stroke-dashoffset:0;display:inline" />
      <path
         sodipodi:nodetypes="cccccccc"
         inkscape:connector-curvature="0"
         id="path4407-4-4"
         d="m 1027.0162,1241.458 15.2574,0.2889 c 5.5112,7.7507 13.6555,11.6773 21.112,13.8506 l -1.8805,12.5513 -36.6682,1.4395 0.035,-0.1859 -0.086,-11.5691 c 1.5409,-5.1612 2.4432,-10.9833 2.2303,-16.3753 z"
         style="fill:#b3b3b3;stroke:none;display:inline" />
      <path
         sodipodi:nodetypes="ccccccc"
         inkscape:connector-curvature="0"
         id="path4407-4-4-5"
         d="m 1016.6465,1241.0071 10.4784,0.4693 c 0.5518,5.6768 -1.0204,14.693 -2.2422,16.9164 l 0.3737,11.6495 -27.47073,-2.1672 -2.12492,-12.3798 c 6.94795,-2.1998 18.03165,-4.6827 20.98575,-14.4882 z"
         style="fill:#808080;stroke:none;display:inline" />
      <path
         sodipodi:nodetypes="cccccccc"
         inkscape:connector-curvature="0"
         id="path4407-4"
         d="m 1016.9978,1241.5573 25.1762,0.2889 c 5.5112,7.7507 13.7831,11.6773 21.112,13.8506 l -1.8496,12.3528 -36.6991,1.638 -27.19696,-1.6286 -1.78361,-12.9153 c 5.15607,-1.0304 17.19887,-4.2081 21.24107,-13.5864 z"
         style="fill:none;stroke:#000000;stroke-width:2.37860847;stroke-linecap:butt;stroke-linejoin:miter;stroke-opacity:1;display:inline" />
      <path
         sodipodi:nodetypes="ccc"
         inkscape:connector-curvature="0"
         id="path4409-0"
         d="m 995.73541,1255.0162 c 7.31389,7.968 21.09929,8.6785 29.29959,2.7644 13.5272,6.5567 29.3606,4.7654 38.1022,-1.786"
         style="fill:none;stroke:#000000;stroke-width:2.37860847;stroke-linecap:butt;stroke-linejoin:miter;stroke-opacity:1;display:inline" />
      <path
         inkscape:connector-curvature="0"
         id="rect4413-4"
         d="m 1003.3048,1291.7154 50.6046,0 0,153.5997 -50.6046,0 z"
         style="fill:none;stroke:#000000;stroke-width:2.37860847;stroke-linecap:round;stroke-miterlimit:4;stroke-opacity:1;stroke-dashoffset:0;display:inline" />
      <path
         sodipodi:nodetypes="ccc"
         inkscape:connector-curvature="0"
         id="path4415-8"
         d="m 1026.884,1241.3998 c 0.1677,5.1227 0.063,11.1631 -1.7002,15.9342 l 0.1488,12.0558"
         style="fill:none;stroke:#000000;stroke-width:2.37860847;stroke-linecap:butt;stroke-linejoin:miter;stroke-opacity:1;display:inline" />
      <path
         inkscape:connector-curvature="0"
         id="path4456"
         d="m 1017.8592,1291.9431 0,154.3721"
         style="fill:none;stroke:#000000;stroke-width:2.37860847;stroke-linecap:butt;stroke-linejoin:miter;stroke-opacity:1" />
      <path
         inkscape:connector-curvature="0"
         id="rect4413-4-8-5"
         d="m 1014.99,1401.9302 53.8407,0 0,47.7544 -53.8407,0 z"
         style="fill:#b3b3b3;stroke:none;display:inline" />
      <path
         inkscape:connector-curvature="0"
         id="rect4413-4-8-2-1"
         d="m 992.17556,1401.9302 21.63244,0 0,47.7544 -21.63244,0 z"
         style="fill:#808080;stroke:none;display:inline" />
      <path
         inkscape:connector-curvature="0"
         id="rect4413-4-7"
         d="m 992.79062,1402.0624 76.07988,0 0,47.7544 -76.07988,0 z"
         style="fill:none;stroke:#000000;stroke-width:2.37860847;stroke-linecap:round;stroke-miterlimit:4;stroke-opacity:1;stroke-dashoffset:0;display:inline" />
      <path
         inkscape:connector-curvature="0"
         id="path4456-1"
         d="m 1014.672,1402.1332 0,47.9945"
         style="fill:none;stroke:#000000;stroke-width:2.37860847;stroke-linecap:butt;stroke-linejoin:miter;stroke-opacity:1;display:inline" />
    </g>
    <g
       id="g6202"
       transform="matrix(1.3824014,0,0,1.3824014,-1608.9472,-950.28973)"
       style="stroke-width:2.17013669;display:inline">
      <path
         inkscape:connector-curvature="0"
         id="path5577"
         d="m 1320.8942,847.55993 c 20.6182,0.63216 39.2915,-11.44853 49.6519,-24.86964 -3.7477,-1.39075 1.0003,-7.82104 5.3704,-11.69095 -5.3747,-0.23162 -2.479,-4.81167 0.5024,-7.10278 -9.0582,1.77563 -16.1604,-7.9416 -18.9857,-15.34148 -2.4262,-22.22241 -20.8395,-32.52113 -36.5529,-32.88852 -20.547,-0.48046 -34.3849,13.42744 -34.807,29.94557 -13.4806,27.8951 5.9222,61.06175 34.8209,61.9478 z"
         style="fill:#fffff8;fill-opacity:1;stroke:#000000;stroke-width:2.17013669;stroke-linecap:butt;stroke-linejoin:miter;stroke-opacity:1;display:inline" />
      <path
         inkscape:connector-curvature="0"
         id="path5579"
         d="m 1295.4009,786.9287 c 3.7298,3.83452 2.7021,-1.85958 7.949,-0.88524 8.9894,1.66929 12.2387,12.65256 21.8559,5.96575 -5.755,6.10464 -17.7395,3.2817 -20.2796,3.06635 -5.0217,-0.42574 -8.028,-4.91565 -9.5253,-8.14686 z"
         style="fill:#aa0000;fill-opacity:1;stroke:#000000;stroke-width:2.17013669;stroke-linecap:butt;stroke-linejoin:miter;stroke-opacity:1;display:inline" />
      <path
         inkscape:connector-curvature="0"
         id="path5581"
         d="m 1302.6909,772.84355 -0.9941,9.63864"
         style="fill:none;stroke:#000000;stroke-width:2.17013669;stroke-linecap:butt;stroke-linejoin:miter;stroke-opacity:1;display:inline" />
      <path
         inkscape:connector-curvature="0"
         id="path5583"
         d="m 1311.4966,773.66704 -0.7094,10.32757"
         style="fill:none;stroke:#000000;stroke-width:2.17013669;stroke-linecap:butt;stroke-linejoin:miter;stroke-opacity:1;display:inline" />
      <path
         sodipodi:nodetypes="ccc"
         inkscape:connector-curvature="0"
         id="path3910-11"
         d="m 1298.8335,765.4109 13.1829,-12.27784 10.4152,15.3604"
         style="fill:#f8fcff;fill-opacity:1;stroke:#000000;stroke-width:2.17013669;stroke-linecap:butt;stroke-linejoin:miter;stroke-opacity:1;display:inline" />
      <path
         sodipodi:nodetypes="cc"
         inkscape:connector-curvature="0"
         id="path3908-7"
         d="m 1294.4392,765.20102 57.3227,7.20139"
         style="fill:none;stroke:#000000;stroke-width:2.17013669;stroke-linecap:butt;stroke-linejoin:miter;stroke-opacity:1;display:inline" />
      <path
         inkscape:connector-curvature="0"
         id="path6200"
         d="m 1295.1598,776.48041 23.7863,3.1715"
         style="fill:none;stroke:#000000;stroke-width:2.17013669;stroke-linecap:butt;stroke-linejoin:miter;stroke-opacity:1" />
    </g>
    <rect
       style="fill:#deaa87;fill-opacity:1;stroke:#000000;stroke-width:3;display:inline"
       id="rect4722"
       width="412.29712"
       height="47.606922"
       x="-28.348658"
       y="304.47675" />
    <g
       transform="matrix(1.2612416,0,0,1.2612416,-1113.3983,-1181.3724)"
       style="stroke-width:2.37860847;display:inline"
       id="g6178">
      <path
         sodipodi:nodetypes="cccccccccc"
         inkscape:connector-curvature="0"
         id="path6154"
         d="m 1044.017,1118.5064 c -3.7808,41.28 22.4014,52.54 35.481,55.4022 -7.3805,-8.8116 -12.3401,-16.2934 -13.4788,-25.7685 5.977,10.0581 17.3475,17.2608 41.2295,17.8397 -10.0297,-5.1319 -18.2334,-4.9216 -28.4556,-19.5133 15.0233,7.5566 31.8772,0.7534 45.8988,-0.705 -13.1251,-2.4763 -28.3326,-0.2867 -40.4366,-9.9109 12.6103,10.3427 26.5021,4.8085 38.058,-2.7751 -22.5694,-1.5202 -32.934,5.6096 -72.7462,-16.1547 z"
         style="fill:#a0892c;stroke:#000000;stroke-width:2.37860847;stroke-linecap:butt;stroke-linejoin:miter;stroke-opacity:1" />
      <path
         sodipodi:nodetypes="ccc"
         inkscape:connector-curvature="0"
         id="path6156"
         d="m 1052.7386,1144.9687 c 8.1872,20.1867 31.2786,29.6191 48.3653,30.3274 -9.0443,-4.4577 -27.7468,-18.3196 -38.9295,-36.4829"
         style="fill:#a0892c;stroke:#000000;stroke-width:2.37860847;stroke-linecap:butt;stroke-linejoin:miter;stroke-opacity:1" />
      <path
         sodipodi:nodetypes="ccccccc"
         inkscape:connector-curvature="0"
         id="path6158"
         d="m 1063.2194,1133.181 c 9.007,13.5318 26.5384,29.1367 51.5616,29.2309 -6.4689,-2.2751 -12.6748,-2.9722 -19.6236,-8.1269 4.8792,1.2528 9.4541,1.4405 13.2806,-0.9912 -8.2508,-0.201 -13.8984,-1.6662 -15.8575,-3.9644 7.087,3.0412 13.2383,1.7373 17.8397,10e-5 -8.7588,0.1963 -22.2002,-4.9235 -27.7506,-9.1181"
         style="fill:#a0892c;stroke:#000000;stroke-width:2.37860847;stroke-linecap:butt;stroke-linejoin:miter;stroke-opacity:1" />
      <rect
         transform="matrix(0.94123039,-0.33776523,0.33776523,0.94123039,0,0)"
         y="1277.876"
         x="605.34552"
         height="128.67253"
         width="5.5275922"
         id="rect6151"
         style="fill:#a05a2c;fill-opacity:1;stroke:#000000;stroke-width:2.37860847;stroke-linecap:round;stroke-miterlimit:4;stroke-opacity:1;stroke-dasharray:none;stroke-dashoffset:0" />
    </g>
    <path
       style="fill:#fffff8;fill-opacity:1;stroke:#000000;stroke-width:3;stroke-linecap:butt;stroke-linejoin:miter;stroke-opacity:1;display:inline"
       d="m 178.34979,163.04259 c 20.14064,-10.92299 0.3814,-25.67989 -12.84285,-16.29979 -11.04014,7.83105 -6.60725,31.20615 5.9827,34.78921"
       id="path5565"
       inkscape:connector-curvature="0" />
    <path
       style="fill:#deaa87;stroke:#000000;stroke-width:3;stroke-linecap:butt;stroke-linejoin:miter;stroke-opacity:1;display:inline"
       d="m 68.108569,306.06493 c 90.613451,4.52922 111.902221,-9.45662 116.485141,-24.21657 7.29971,-23.50971 -32.8688,-34.95143 -16.34586,-31.29426 19.57541,4.33279 42.13225,32.16837 22.08839,47.10392 -5.90688,4.40147 -6.02298,9.9528 56.57816,8.57182"
       id="path6160"
       inkscape:connector-curvature="0"
       sodipodi:nodetypes="csssc" />
    <path
       style="fill:#d38d5f;stroke:#000000;stroke-width:3;stroke-linecap:butt;stroke-linejoin:miter;stroke-opacity:1;display:inline"
       d="m 165.08557,204.40069 c 0.90772,9.33993 1.64083,18.0267 13.36715,23.56679 1.75283,-6.90805 3.53126,-12.94653 -3.51834,-18.36438 -1.4716,1.58936 -3.98221,1.59758 -4.9647,-2.48289 z"
       id="path6162"
       inkscape:connector-curvature="0"
       sodipodi:nodetypes="ccccc" />
    <path
       style="fill:none;stroke:#000000;stroke-width:3;stroke-linecap:butt;stroke-linejoin:miter;stroke-opacity:1;display:inline"
       d="m 179.30347,230.89816 c -1.10325,-7.3351 -6.40234,-17.94225 -11.63763,-22.05348"
       id="path6164"
       inkscape:connector-curvature="0"
       sodipodi:nodetypes="cc" />
    <path
       style="fill:#808000;stroke:#000000;stroke-width:3;stroke-linecap:butt;stroke-linejoin:miter;stroke-opacity:1;display:inline"
       d="m 237.29304,226.96138 c -1.62474,-4.2949 -4.56389,-7.58097 -7.50482,-10.86565 2.69938,-0.78131 5.64704,0.25903 8.62708,1.53706 l 0.44841,4.16774 1.53308,-3.67983 c 1.35676,0.86663 2.26114,1.57922 2.72544,2.14196 l -0.43092,1.8141 1.40107,-0.55005 c 1.77031,2.15901 1.9865,3.23988 2.40305,4.45973 -3.26447,0.63021 -6.45825,1.15097 -9.20239,0.97494 z"
       id="path6166"
       inkscape:connector-curvature="0"
       sodipodi:nodetypes="cccccccccc" />
    <path
       style="fill:none;stroke:#000000;stroke-width:3;stroke-linecap:butt;stroke-linejoin:miter;stroke-opacity:1;display:inline"
       d="m 237.46223,226.7388 -1.40144,4.93855"
       id="path6168"
       inkscape:connector-curvature="0"
       sodipodi:nodetypes="cc" />
    <path
       style="fill:#916f6f;stroke:#000000;stroke-width:3;stroke-linecap:butt;stroke-linejoin:miter;stroke-opacity:1;display:inline"
       d="m 154.6839,220.92078 c -2.86803,5.75015 -3.17724,9.32895 -3.21128,14.93322 3.9303,-2.96302 7.47183,-10.3854 3.21128,-14.93322 z"
       id="path6170"
       inkscape:connector-curvature="0"
       sodipodi:nodetypes="ccc" />
    <path
       style="fill:#ffccaa;stroke:#000000;stroke-width:3;stroke-linecap:butt;stroke-linejoin:miter;stroke-opacity:1;display:inline"
       d="m 167.61057,230.44862 c 2.00799,4.92756 5.50644,8.49295 8.88652,9.00171 0.51376,-4.68102 -1.1861,-8.93936 -8.88652,-9.00171 z"
       id="path6172"
       inkscape:connector-curvature="0"
       sodipodi:nodetypes="ccc" />
    <path
       style="fill:#fffff8;fill-opacity:1;stroke:#000000;stroke-width:3;stroke-linecap:butt;stroke-linejoin:miter;stroke-opacity:1;display:inline"
       d="m 205.1134,161.25731 c -19.53307,3.64707 -23.04639,16.22701 2.77645,24.39978"
       id="path5585"
       inkscape:connector-curvature="0"
       sodipodi:nodetypes="cc" />
    <path
       style="fill:#916f6f;stroke:#000000;stroke-width:3;stroke-linecap:butt;stroke-linejoin:miter;stroke-opacity:1;display:inline"
       d="m 274.22969,215.35459 c -3.48317,6.98266 -3.8587,11.32856 -3.90004,18.13408 4.77328,-3.59812 9.07441,-12.61145 3.90004,-18.13408 z"
       id="path6170-9"
       inkscape:connector-curvature="0"
       sodipodi:nodetypes="ccc" />
    <path
       style="fill:#ac9393;stroke:#000000;stroke-width:3;stroke-linecap:butt;stroke-linejoin:miter;stroke-opacity:1;display:inline"
       d="m 177.71388,110.78071 c -8.86695,8.03705 -17.20028,15.47337 -13.75477,24.13501 8.44443,-5.10055 16.01749,-9.47334 16.08554,-16.40603 -2.77408,0.80163 -4.73595,-0.0655 -1.31801,-3.78071 z"
       id="path6162-9"
       inkscape:connector-curvature="0"
       sodipodi:nodetypes="ccccc" />
    <path
       style="fill:#ac9393;stroke:#000000;stroke-width:3;stroke-linecap:butt;stroke-linejoin:miter;stroke-opacity:1;display:inline"
       d="m 161.61717,137.63459 c 6.6599,-6.44777 13.40891,-17.06099 13.54937,-22.28198"
       id="path6164-5"
       inkscape:connector-curvature="0"
       sodipodi:nodetypes="cc" />
    <path
       style="fill:#d35f5f;stroke:#000000;stroke-width:3;stroke-linecap:butt;stroke-linejoin:miter;stroke-opacity:1"
       d="m 255.5027,149.80749 c -4.29652,-1.8742 -2.40518,-6.10512 -4.4489,-10.82228 2.90571,1.57777 3.5269,2.77714 4.32,5.42368 -1.34443,-4.67397 2.52129,-5.513 5.7173,-9.78764 0.51586,5.31204 1.85973,7.19668 -0.88607,10.17897 3.65661,-7.07554 9.92802,-6.82965 15.81493,-7.66036 -1.98573,3.94691 -5.23285,10.79451 -12.81237,10.43851 4.76396,-0.10775 9.56221,0.0397 14.84148,2.58842 -5.14592,0.74863 -9.77035,5.24315 -16.16752,0.98676 2.98505,1.79735 1.39282,4.1319 1.61415,6.52144 -4.12808,-4.23658 -8.6567,-4.46566 -7.993,-7.8675 z"
       id="path5969"
       inkscape:connector-curvature="0"
       sodipodi:nodetypes="ccccccccccc" />
    <path
       style="fill:#d35f5f;stroke:#000000;stroke-width:3;stroke-linecap:butt;stroke-linejoin:miter;stroke-opacity:1"
       d="m 255.45811,149.81108 -4.89249,3.49464"
       id="path5971"
       inkscape:connector-curvature="0" />
    <path
       style="fill:#d35f5f;stroke:#000000;stroke-width:3;stroke-linecap:butt;stroke-linejoin:miter;stroke-opacity:1;display:inline"
       d="m 104.8146,294.43682 c -3.62763,-2.03622 -2.70626,-4.05684 -3.91919,-5.90424 1.92569,0.80732 4.76121,0.80783 4.7948,2.6211 -0.0237,-3.18667 1.99715,-4.84672 4.78181,-6.52547 -0.39646,2.43116 2.03813,6.50822 -1.78766,8.10978 2.29068,-3.79533 8.69295,-1.17352 11.82181,-0.70344 -2.77784,1.29455 -4.53735,5.16733 -10.41051,3.21277 5.30001,0.51365 6.12242,4.68675 7.60806,6.35297 -3.15195,-1.73839 -5.78118,-0.22652 -9.0829,-4.57281 1.57413,1.91452 -1.11851,3.48147 -1.40191,4.98052 -0.98029,-3.32478 -3.87967,-5.66785 -2.40431,-7.57118 z"
       id="path5969-1-1"
       inkscape:connector-curvature="0"
       sodipodi:nodetypes="ccccccccccc" />
    <path
       style="fill:#deaa87;stroke:#000000;stroke-width:3;stroke-linecap:butt;stroke-linejoin:miter;stroke-opacity:1"
       d="m 138.78178,307.3288 c 35.58969,2.35849 -24.40498,-1.32147 -54.720292,-20.59431 -25.627701,-16.29271 -22.253755,-28.56041 -14.161493,-35.01959 9.291471,-7.41637 45.579615,-6.62732 30.123235,-8.53732 -15.362064,-1.89834 -35.076656,1.88607 -43.920055,9.74453 -7.095837,6.30553 -6.498646,15.41694 3.747123,24.94561 18.896453,17.5739 57.167032,28.01877 78.931482,29.46108 z"
       id="path3129"
       inkscape:connector-curvature="0"
       sodipodi:nodetypes="sssssss" />
    <path
       style="fill:#deaa87;stroke:#000000;stroke-width:3;stroke-linecap:butt;stroke-linejoin:miter;stroke-opacity:1;display:inline"
       d="m 182.6797,244.17687 c 21.40769,18.05987 13.73383,28.48098 3.6311,32.76298 -11.59986,4.91656 -48.92934,-2.96882 -33.73745,1.1116 15.09917,4.05553 36.59979,6.95116 47.87064,1.58355 9.04358,-4.3069 11.06027,-12.24108 3.37022,-22.05555 -14.1829,-18.10102 -50.12047,-33.64828 -78.81165,-39.27901 -26.909095,-5.28097 32.35371,4.51318 57.67714,25.87643 z"
       id="path3129-1"
       inkscape:connector-curvature="0"
       sodipodi:nodetypes="sssssss" />
    <path
       style="fill:#d35f5f;stroke:#000000;stroke-width:3;stroke-linecap:butt;stroke-linejoin:miter;stroke-opacity:1;display:inline"
       d="m 163.61703,281.01917 c 2.95325,1.65769 2.20317,3.30267 3.19061,4.80664 -1.5677,-0.65724 -3.8761,-0.65765 -3.90344,-2.13384 0.0193,2.59427 -1.62588,3.94572 -3.89287,5.31239 0.32276,-1.97921 -1.65924,-5.29834 1.45533,-6.60217 -1.86484,3.08977 -7.07692,0.95536 -9.62413,0.57267 2.26144,-1.05389 3.69386,-4.20672 8.47519,-2.61552 -4.31473,-0.41816 -4.98426,-3.81548 -6.19372,-5.17195 2.56601,1.41523 4.70646,0.18441 7.39439,3.72273 -1.2815,-1.55861 0.91058,-2.83427 1.14129,-4.05464 0.79806,2.7067 3.15844,4.61419 1.95735,6.16369 z"
       id="path5969-1-1-8"
       inkscape:connector-curvature="0"
       sodipodi:nodetypes="ccccccccccc" />
    <path
       style="fill:#d35f5f;stroke:#000000;stroke-width:3;stroke-linecap:butt;stroke-linejoin:miter;stroke-opacity:1;display:inline"
       d="m 104.78569,294.42652 -3.7221,0.73592"
       id="path5971-1-6"
       inkscape:connector-curvature="0"
       sodipodi:nodetypes="cc" />
    <path
       style="fill:#deaa87;stroke:#000000;stroke-width:3;stroke-linecap:butt;stroke-linejoin:miter;stroke-opacity:1;display:inline"
       d="m 132.58591,280.56892 c 40.57092,6.64849 -32.22218,-3.57033 -63.758811,-33.94596 -22.390276,-21.56599 -4.012582,-30.77297 8.331366,-37.14343 14.173233,-7.3145 55.926935,-1.65445 38.702145,-5.53984 -17.119681,-3.86168 -41.863454,-1.80838 -55.709768,6.05449 -11.110104,6.30907 -14.474208,16.64239 -6.740244,28.52785 14.263884,21.92057 54.364662,37.98108 79.175312,42.04689 z"
       id="path3129-1-7"
       inkscape:connector-curvature="0"
       sodipodi:nodetypes="sssssss" />
    <path
       style="fill:#808000;stroke:#000000;stroke-width:3;stroke-linecap:butt;stroke-linejoin:miter;stroke-opacity:1;display:inline"
       d="m 158.19823,271.115 c -3.49648,1.3227 -6.17167,3.71546 -8.84572,6.10967 -0.63607,-2.19757 0.21087,-4.59725 1.25132,-7.0233 l 3.39295,-0.36505 -2.99574,-1.24808 c 0.70552,-1.10454 1.28564,-1.8408 1.74376,-2.21878 l 1.47686,0.35081 -0.44779,-1.14061 c 1.75765,-1.44121 2.63758,-1.61721 3.63066,-1.95632 0.51306,2.6576 0.93701,5.25765 0.7937,7.49166 z"
       id="path6166-1-7"
       inkscape:connector-curvature="0"
       sodipodi:nodetypes="cccccccccc" />
    <path
       style="fill:#deaa87;stroke:#000000;stroke-width:3;stroke-linecap:butt;stroke-linejoin:miter;stroke-opacity:1;display:inline"
       d="m 103.45132,165.87143 c -38.670666,-9.31038 20.19075,4.94536 57.61471,29.84403 31.63711,21.0486 39.34986,34.8078 32.37413,39.56642 -8.00951,5.4638 -48.90351,-3.65752 -31.87902,1.25646 16.9206,4.884 37.01951,5.03775 44.43505,-0.94858 5.95007,-4.80341 2.94481,-13.87601 -10.4866,-25.25439 -24.7718,-20.98536 -68.4097,-38.77028 -92.05827,-44.46394 z"
       id="path3129-1-4"
       inkscape:connector-curvature="0"
       sodipodi:nodetypes="sssssss" />
    <path
       style="fill:#d38d5f;stroke:#000000;stroke-width:3;stroke-linecap:butt;stroke-linejoin:miter;stroke-opacity:1;display:inline"
       d="m 164.84424,294.0264 c -1.5672,-7.10309 -11.68188,-11.66247 -23.46695,-7.30878 0.7449,6.0953 6.66609,10.56286 13.46757,9.20498 0.21346,-2.10668 1.55569,-2.89102 4.67007,-0.62091 z"
       id="path6162-94"
       inkscape:connector-curvature="0"
       sodipodi:nodetypes="ccccc" />
    <path
       style="fill:#916f6f;stroke:#000000;stroke-width:3;stroke-linecap:butt;stroke-linejoin:miter;stroke-opacity:1;display:inline"
       d="m 111.24681,281.39449 c 5.68457,2.83565 9.22257,3.14136 14.76294,3.17502 -2.92923,-3.88593 -10.26697,-7.38747 -14.76294,-3.17502 z"
       id="path6170-9-2-6"
       inkscape:connector-curvature="0"
       sodipodi:nodetypes="ccc" />
    <path
       style="fill:none;stroke:#000000;stroke-width:3;stroke-linecap:butt;stroke-linejoin:miter;stroke-opacity:1;display:inline"
       d="m 136.83707,286.35178 c 5.47924,0.54614 17.32255,0.15833 23.45348,6.19794"
       id="path6164-8"
       inkscape:connector-curvature="0"
       sodipodi:nodetypes="cc" />
    <path
       style="fill:#916f6f;stroke:#000000;stroke-width:3;stroke-linecap:butt;stroke-linejoin:miter;stroke-opacity:1;display:inline"
       d="m 148.85719,279.1034 c -0.38021,-6.3412 -1.88122,-9.55956 -4.61744,-14.37723 -1.90518,4.47784 -1.27685,12.58392 4.61744,14.37723 z"
       id="path6170-9-8-3-1"
       inkscape:connector-curvature="0"
       sodipodi:nodetypes="ccc" />
    <path
       style="fill:#916f6f;stroke:#000000;stroke-width:3;stroke-linecap:butt;stroke-linejoin:miter;stroke-opacity:1;display:inline"
       d="m 211.40294,270.95015 c -6.42514,4.42804 -8.85514,8.0506 -12.18186,13.98775 5.91796,-0.84164 14.04094,-6.65172 12.18186,-13.98775 z"
       id="path6170-9-8"
       inkscape:connector-curvature="0"
       sodipodi:nodetypes="ccc" />
    <path
       style="fill:#5d6c53;stroke:#000000;stroke-width:3;stroke-linecap:butt;stroke-linejoin:miter;stroke-opacity:1"
       d="m 23.166255,214.70656 c -3.44479,-0.92866 -4.980534,-5.12608 -2.928872,-8.44106 2.458858,1.19643 13.709355,-2.19335 11.607973,3.36106 2.551104,-4.79363 5.915711,-1.37403 8.172964,-0.27915 -2.921246,6.42072 -6.861682,5.36489 -7.219795,9.46345 -5.032645,-0.17959 -11.145486,3.65416 -17.560748,-0.3166 1.188047,-2.24126 3.541033,-3.78182 7.928478,-3.7877 z"
       id="path3227"
       inkscape:connector-curvature="0"
       sodipodi:nodetypes="ccccccc" />
    <path
       style="fill:none;stroke:#000000;stroke-width:3;stroke-linecap:butt;stroke-linejoin:miter;stroke-opacity:1"
       d="m 24.22382,209.30306 c 7.6865,4.91474 8.144198,9.38329 11.626715,14.03853"
       id="path3229"
       inkscape:connector-curvature="0"
       sodipodi:nodetypes="cc" />
    <path
       style="fill:#deaa87;stroke:#000000;stroke-width:3;stroke-linecap:butt;stroke-linejoin:miter;stroke-opacity:1;display:inline"
       d="m 147.94679,257.71141 c 45.74874,8.53712 -33.03273,-4.6807 -74.620082,-32.48297 -33.990115,-22.72331 -23.968334,-30.80028 -13.964268,-34.02052 15.082211,-4.85486 58.26358,5.18213 38.597175,-0.73104 -21.966327,-6.60469 -43.11883,-6.39929 -54.261178,1.73086 -7.526407,5.49174 -5.603884,13.80183 9.102083,24.83735 27.122491,20.35301 67.16917,35.44553 95.14627,40.66632 z"
       id="path3129-1-7-2"
       inkscape:connector-curvature="0"
       sodipodi:nodetypes="sssssss" />
    <path
       style="fill:#deaa87;stroke:#000000;stroke-width:3;stroke-linecap:butt;stroke-linejoin:miter;stroke-opacity:1;display:inline"
       d="m 103.07848,129.23994 c -38.670646,-9.31038 20.19075,4.94536 57.61471,29.84403 31.63711,21.0486 39.34986,34.8078 32.37413,39.56642 -8.00951,5.4638 -48.90351,-3.65752 -31.87902,1.25646 16.9206,4.884 37.01951,5.03775 44.43505,-0.94858 5.95007,-4.80341 2.94481,-13.87601 -10.4866,-25.25439 -24.7718,-20.98536 -68.4097,-38.77028 -92.05827,-44.46394 z"
       id="path3129-1-4-4"
       inkscape:connector-curvature="0"
       sodipodi:nodetypes="sssssss" />
    <path
       style="fill:#deaa87;stroke:#000000;stroke-width:3;stroke-linecap:butt;stroke-linejoin:miter;stroke-opacity:1;display:inline"
       d="m 153.10231,230.5761 c 45.22573,10.88859 -32.70556,-9.08992 -76.473213,-38.20914 -36.999937,-24.61656 -35.94705,-36.98148 -27.788839,-42.54673 9.367185,-6.38999 56.212362,3.85717 36.302055,-1.88978 -19.788837,-5.7119 -43.294715,-5.89172 -51.967237,1.10938 -6.958723,5.61759 -3.444017,16.22812 12.264159,29.53525 28.970884,24.5426 80.005845,45.34224 107.663075,52.00102 z"
       id="path3129-1-7-0"
       inkscape:connector-curvature="0"
       sodipodi:nodetypes="sssssss" />
    <path
       style="fill:#deaa87;stroke:#000000;stroke-width:3;stroke-linecap:butt;stroke-linejoin:miter;stroke-opacity:1;display:inline"
       d="m 135.39588,181.22805 c 45.22573,10.88859 -32.70555,-9.08992 -76.47321,-38.20914 -36.99994,-24.61656 -35.94705,-36.98148 -27.78884,-42.54673 9.36719,-6.389994 56.212372,3.85717 36.30206,-1.889784 -19.78884,-5.7119 -43.29472,-5.89172 -51.96724,1.10938 -6.9587201,5.617594 -3.44402,16.228124 12.26416,29.535254 28.97088,24.5426 80.00585,45.34224 107.66307,52.00102 z"
       id="path3129-1-7-0-5"
       inkscape:connector-curvature="0"
       sodipodi:nodetypes="sssssss" />
    <path
       style="fill:#d35f5f;stroke:#000000;stroke-width:3;stroke-linecap:butt;stroke-linejoin:miter;stroke-opacity:1;display:inline"
       d="m 55.587807,186.56147 c -3.334728,5.25462 -7.3001,3.25993 -10.627244,4.71342 1.251423,-2.86052 0.840875,-7.38156 4.274461,-6.9635 -6.039358,-0.79111 -9.480537,-4.44507 -13.068036,-9.32182 4.66768,1.26444 12.045546,-1.55701 15.637775,4.95976 -7.529423,-4.63963 -3.486897,-14.16605 -3.04959,-19.03273 2.857959,4.76595 10.457167,8.57881 7.603155,17.4351 0.204812,-8.31721 7.998799,-8.54309 10.942793,-10.47855 -2.83903,4.57358 0.409448,9.15909 -7.35311,13.29319 3.402008,-2.01196 6.764142,2.689 9.647885,3.53077 -6.162411,0.69829 -10.18472,4.7119 -14.008089,1.86436 z"
       id="path5969-1"
       inkscape:connector-curvature="0"
       sodipodi:nodetypes="ccccccccccc" />
    <path
       style="fill:#d35f5f;stroke:#000000;stroke-width:3;stroke-linecap:butt;stroke-linejoin:miter;stroke-opacity:1;display:inline"
       d="m 55.57249,186.6049 1.935683,6.12626"
       id="path5971-1"
       inkscape:connector-curvature="0"
       sodipodi:nodetypes="cc" />
    <path
       style="fill:#d38d5f;stroke:#000000;stroke-width:3;stroke-linecap:butt;stroke-linejoin:miter;stroke-opacity:1;display:inline"
       d="m 63.730892,79.092063 c 7.368649,8.66656 14.129856,16.75955 27.777008,18.6296 -3.440032,-7.11869 -6.242874,-13.413284 -15.925775,-16.533611 -0.09433,1.950132 -2.170156,2.691933 -5.875216,-0.923068 z"
       id="path6162-5"
       inkscape:connector-curvature="0"
       sodipodi:nodetypes="ccccc" />
    <path
       style="fill:none;stroke:#000000;stroke-width:3;stroke-linecap:butt;stroke-linejoin:miter;stroke-opacity:1;display:inline"
       d="M 94.289266,100.27561 C 88.178632,93.583463 76.271266,84.988789 69.018242,82.587616"
       id="path6164-2"
       inkscape:connector-curvature="0"
       sodipodi:nodetypes="cc" />
    <path
       style="fill:#916f6f;stroke:#000000;stroke-width:3;stroke-linecap:butt;stroke-linejoin:miter;stroke-opacity:1;display:inline"
       d="m 139.51067,115.05925 c -2.86803,5.75015 -3.17724,9.32895 -3.21128,14.93322 3.9303,-2.96302 7.47183,-10.3854 3.21128,-14.93322 z"
       id="path6170-7"
       inkscape:connector-curvature="0"
       sodipodi:nodetypes="ccc" />
    <path
       style="fill:#ffccaa;stroke:#000000;stroke-width:3;stroke-linecap:butt;stroke-linejoin:miter;stroke-opacity:1;display:inline"
       d="m 87.853165,154.97964 c 2.00799,4.92756 5.506439,8.49295 8.886519,9.00171 0.51376,-4.68102 -1.1861,-8.93936 -8.886519,-9.00171 z"
       id="path6172-6"
       inkscape:connector-curvature="0"
       sodipodi:nodetypes="ccc" />
    <path
       style="fill:#808000;stroke:#000000;stroke-width:3;stroke-linecap:butt;stroke-linejoin:miter;stroke-opacity:1;display:inline"
       d="m 125.13521,292.99672 c 4.2949,-1.62474 7.58097,-4.56389 10.86565,-7.50482 0.78131,2.69938 -0.25903,5.64704 -1.53706,8.62708 l -4.16774,0.44841 3.67983,1.53308 c -0.86663,1.35676 -1.57922,2.26114 -2.14196,2.72544 l -1.8141,-0.43092 0.55005,1.40107 c -2.15901,1.77031 -3.23988,1.9865 -4.45973,2.40305 -0.63021,-3.26447 -1.15097,-6.45825 -0.97494,-9.20239 z"
       id="path6166-1"
       inkscape:connector-curvature="0"
       sodipodi:nodetypes="cccccccccc" />
    <path
       style="fill:none;stroke:#000000;stroke-width:3;stroke-linecap:butt;stroke-linejoin:miter;stroke-opacity:1;display:inline"
       d="m 130.42963,295.05154 c -4.46065,-0.44461 -14.10228,-0.12889 -19.09347,-5.04574"
       id="path6164-8-5"
       inkscape:connector-curvature="0"
       sodipodi:nodetypes="cc" />
    <path
       style="fill:#5d6c53;stroke:#000000;stroke-width:3;stroke-linecap:butt;stroke-linejoin:miter;stroke-opacity:1;display:inline"
       d="m 153.34288,306.31805 c -2.60316,-0.1491 -4.47649,2.62219 -3.65484,5.61225 1.95862,-0.29378 9.25034,5.01054 8.81555,0.32859 0.89513,4.22172 3.91106,2.4828 5.70844,2.2157 -0.84947,-5.53298 -3.82596,-5.70837 -3.30622,-8.87042 -3.58129,-1.10072 -7.16788,-5.47684 -12.43802,-4.0734 0.41519,1.9727 1.78353,3.70583 4.87509,4.78728 z"
       id="path3227-2-8"
       inkscape:connector-curvature="0"
       sodipodi:nodetypes="ccccccc" />
    <path
       style="fill:none;stroke:#000000;stroke-width:3;stroke-linecap:butt;stroke-linejoin:miter;stroke-opacity:1;display:inline"
       d="m 131.77451,302.34325 -4.93855,-1.40144"
       id="path6168-4"
       inkscape:connector-curvature="0"
       sodipodi:nodetypes="cc" />
    <path
       style="fill:#916f6f;stroke:#000000;stroke-width:3;stroke-linecap:butt;stroke-linejoin:miter;stroke-opacity:1;display:inline"
       d="m 186.63822,287.71146 c -6.98266,-3.48317 -11.32856,-3.8587 -18.13408,-3.90004 3.59812,4.77328 12.61145,9.07441 18.13408,3.90004 z"
       id="path6170-9-2"
       inkscape:connector-curvature="0"
       sodipodi:nodetypes="ccc" />
    <path
       style="fill:#916f6f;stroke:#000000;stroke-width:3;stroke-linecap:butt;stroke-linejoin:miter;stroke-opacity:1;display:inline"
       d="m 148.96878,238.17688 c 0.46702,7.78922 2.31079,11.74249 5.67183,17.66028 2.34023,-5.50036 1.56842,-15.45747 -5.67183,-17.66028 z"
       id="path6170-9-8-3"
       inkscape:connector-curvature="0"
       sodipodi:nodetypes="ccc" />
    <path
       style="fill:#5d6c53;stroke:#000000;stroke-width:3;stroke-linecap:butt;stroke-linejoin:miter;stroke-opacity:1;display:inline"
       d="m 128.18026,266.25391 c 3.19759,0.18314 5.4987,-3.22097 4.48942,-6.89381 -2.40587,0.36086 -11.36266,-6.1547 -10.82859,-0.40363 -1.09953,-5.18575 -4.80415,-3.04975 -7.01197,-2.72166 1.04345,6.79645 4.69963,7.01189 4.0612,10.89599 4.39908,1.35208 8.80468,6.72749 15.27826,5.00357 -0.51,-2.42317 -2.1908,-4.55206 -5.98832,-5.88046 z"
       id="path3227-2"
       inkscape:connector-curvature="0"
       sodipodi:nodetypes="ccccccc" />
    <path
       style="fill:none;stroke:#000000;stroke-width:3;stroke-linecap:butt;stroke-linejoin:miter;stroke-opacity:1;display:inline"
       d="m 128.51506,260.95662 c -7.79274,2.21029 -9.22317,6.18928 -13.31584,9.42816"
       id="path3229-2"
       inkscape:connector-curvature="0"
       sodipodi:nodetypes="cc" />
    <path
       style="fill:none;stroke:#000000;stroke-width:3;stroke-linecap:butt;stroke-linejoin:miter;stroke-opacity:1;display:inline"
       d="m 164.32827,273.61287 c -3.30346,-2.89099 -7.46761,-2.88787 -9.82699,-4.2481"
       id="path3229-2-9"
       inkscape:connector-curvature="0"
       sodipodi:nodetypes="cc" />
  </g>
  <g
     inkscape:groupmode="layer"
     id="layer4"
     inkscape:label="吹き出し"
     sodipodi:insensitive="true">
    <g
       id="g5116"
       transform="translate(66.719239,-96.866451)">
      <path
         sodipodi:nodetypes="sssssscsssss"
         inkscape:connector-curvature="0"
         id="rect13841"
         d="m 151.43459,108.6247 114.18497,0 c 14.39154,0 25.97752,11.58598 25.97752,25.97753 l 0,15.66873 c 0,14.39155 -11.58598,25.97753 -25.97752,25.97753 l -22.72116,0 c -21.29438,0 -20.53685,15.71165 -40.86427,26.36404 11.23452,-10.41871 13.79161,-26.36404 -3.9546,-26.36404 l -46.64494,0 c -14.39155,0 -25.97753,-11.58598 -25.97753,-25.97753 l 0,-15.66873 c 0,-14.39155 11.58598,-25.97753 25.97753,-25.97753 z"
         style="fill:#fefefe;fill-opacity:1;stroke:#000000;stroke-width:3" />
      <text
         sodipodi:linespacing="125%"
         id="text6768-1"
         y="150.32265"
         x="150.83"
         style="font-size:28px;font-style:normal;font-variant:normal;font-weight:normal;font-stretch:normal;line-height:125%;letter-spacing:0px;word-spacing:0px;writing-mode:lr-tb;fill:#000000;fill-opacity:1;stroke:none;font-family:MS UI Gothic;-inkscape-font-specification:MS UI Gothic"
         xml:space="preserve"><tspan
           style="font-size:28px;font-style:normal;font-variant:normal;font-weight:normal;font-stretch:normal;fill:#000000;fill-opacity:1;font-family:MS UI Gothic;-inkscape-font-specification:MS UI Gothic"
           y="150.32265"
           x="150.83"
           sodipodi:role="line"
           id="tspan5696">諸行無常</tspan></text>
    </g>
  </g>
  <g
     inkscape:groupmode="layer"
     id="layer2"
     inkscape:label="枠面"
     sodipodi:insensitive="true">
    <path
       style="fill:#ffffff;stroke:none;display:inline"
       d="m 0,0 0,320 370,0 0,-320 -10,10 0,300 -350,0 0,-300 350,0 10,-10 z"
       id="path21072"
       inkscape:connector-curvature="0"
       sodipodi:nodetypes="ccccccccccc" />
  </g>
</svg>
