<?xml version="1.0" encoding="UTF-8" standalone="no"?>
<!-- Created with Inkscape (http://www.inkscape.org/) -->

<svg
   xmlns:dc="http://purl.org/dc/elements/1.1/"
   xmlns:cc="http://creativecommons.org/ns#"
   xmlns:rdf="http://www.w3.org/1999/02/22-rdf-syntax-ns#"
   xmlns:svg="http://www.w3.org/2000/svg"
   xmlns="http://www.w3.org/2000/svg"
   xmlns:sodipodi="http://sodipodi.sourceforge.net/DTD/sodipodi-0.dtd"
   xmlns:inkscape="http://www.inkscape.org/namespaces/inkscape"
   width="370"
   height="320"
   id="svg3172"
   version="1.1"
   inkscape:version="0.48.4 r9939"
   sodipodi:docname="[37]無残.svg"
   inkscape:export-filename="C:\Users\執安\Desktop\資料\臨時\ANCESTOR\[37]無残.png"
   inkscape:export-xdpi="90"
   inkscape:export-ydpi="90">
  <defs
     id="defs3174" />
  <sodipodi:namedview
     id="base"
     pagecolor="#ffffff"
     bordercolor="#666666"
     borderopacity="1.0"
     inkscape:pageopacity="0.0"
     inkscape:pageshadow="2"
     inkscape:zoom="1.128285"
     inkscape:cx="183.55934"
     inkscape:cy="171.81011"
     inkscape:document-units="px"
     inkscape:current-layer="layer3"
     showgrid="false"
     inkscape:window-width="1100"
     inkscape:window-height="698"
     inkscape:window-x="-5"
     inkscape:window-y="-5"
     inkscape:window-maximized="0" />
  <metadata
     id="metadata3177">
    <rdf:RDF>
      <cc:Work
         rdf:about="">
        <dc:format>image/svg+xml</dc:format>
        <dc:type
           rdf:resource="http://purl.org/dc/dcmitype/StillImage" />
        <dc:title></dc:title>
      </cc:Work>
    </rdf:RDF>
  </metadata>
  <g
     inkscape:label="補助線"
     inkscape:groupmode="layer"
     id="layer1"
     transform="translate(0,-732.36218)"
     sodipodi:insensitive="true"
     style="display:none">
    <path
       style="fill:none;stroke:#0000ff;stroke-width:1px;stroke-linecap:butt;stroke-linejoin:miter;stroke-opacity:1;display:inline"
       d="M 10,1042.3622 360,742.36211"
       id="path3025"
       inkscape:connector-curvature="0"
       sodipodi:nodetypes="cc" />
    <path
       style="fill:none;stroke:#0000ff;stroke-width:1px;stroke-linecap:butt;stroke-linejoin:miter;stroke-opacity:1;display:inline"
       d="M 10,742.36211 360,1042.3622"
       id="path3027"
       inkscape:connector-curvature="0"
       sodipodi:nodetypes="cc" />
    <path
       style="fill:none;stroke:#ff0000;stroke-width:1px;stroke-linecap:butt;stroke-linejoin:miter;stroke-opacity:1;display:inline"
       d="m 10,732.36211 0,320.00009"
       id="path3006"
       inkscape:connector-curvature="0"
       sodipodi:nodetypes="cc" />
    <path
       style="fill:none;stroke:#ff0000;stroke-width:1px;stroke-linecap:butt;stroke-linejoin:miter;stroke-opacity:1;display:inline"
       d="m 360,732.36211 0,320.00009"
       id="path3010"
       inkscape:connector-curvature="0"
       sodipodi:nodetypes="cc" />
    <path
       style="fill:none;stroke:#ff0000;stroke-width:1px;stroke-linecap:butt;stroke-linejoin:miter;stroke-opacity:1;display:inline"
       d="m 0,742.36208 370,3e-5"
       id="path3016"
       inkscape:connector-curvature="0" />
    <path
       style="fill:none;stroke:#ff0000;stroke-width:1px;stroke-linecap:butt;stroke-linejoin:miter;stroke-opacity:1;display:inline"
       d="m 0,1042.3622 370,0"
       id="path3018"
       inkscape:connector-curvature="0"
       sodipodi:nodetypes="cc" />
  </g>
  <g
     inkscape:groupmode="layer"
     id="layer3"
     inkscape:label="豚"
     style="display:inline"
     sodipodi:insensitive="true">
    <g
       style="stroke-width:2.37860847;display:inline"
       id="g4593"
       transform="matrix(1.2612416,0,0,1.2612416,-1157.1452,-1518.4808)">
      <path
         inkscape:connector-curvature="0"
         id="path4411-9"
         d="m 1051.7664,1278.9897 c 0,9.7967 -10.2164,17.7383 -22.819,17.7383 -12.6026,0 -22.819,-7.9416 -22.819,-17.7383 0,-9.7965 10.2164,-17.7382 22.819,-17.7382 12.6026,0 22.819,7.9417 22.819,17.7382 z"
         style="fill:#999999;stroke:#000000;stroke-width:2.37860847;stroke-linecap:round;stroke-miterlimit:4;stroke-opacity:1;stroke-dashoffset:0;display:inline" />
      <path
         inkscape:connector-curvature="0"
         id="rect4413-4-8"
         d="m 1018.0707,1291.2901 35.8122,0 0,153.5997 -35.8122,0 z"
         style="fill:#b3b3b3;stroke:none;display:inline" />
      <path
         inkscape:connector-curvature="0"
         id="rect4413-4-8-2"
         d="m 1002.8957,1291.2901 14.3888,0 0,153.5997 -14.3888,0 z"
         style="fill:#808080;stroke:none;display:inline" />
      <path
         sodipodi:nodetypes="ssccsss"
         inkscape:connector-curvature="0"
         id="path4403-1"
         d="m 1027.4093,1215.4499 c -2.4017,4.9344 -6.6876,5.708 -7.8813,9.0654 -1.0862,3.0551 0.5856,6.5051 3.1256,8.1117 l 13.2465,0 c 2.3084,-1.3774 4.3159,-4.6098 2.9767,-8.1115 -1.3182,-3.4469 -5.535,-4.2039 -8.2415,-9.0656 -0.8013,-1.4395 -2.5236,-1.4431 -3.226,0 z"
         style="fill:#b3b3b3;stroke:#000000;stroke-width:2.37860847;stroke-linecap:butt;stroke-linejoin:miter;stroke-opacity:1;display:inline" />
      <path
         sodipodi:nodetypes="ccccccc"
         inkscape:connector-curvature="0"
         id="rect4405-7"
         d="m 1017.9066,1232.9248 22.7319,0 0,2.7471 -1.5857,6.7784 -19.5606,0 -1.5857,-6.7784 z"
         style="fill:#b3b3b3;stroke:#000000;stroke-width:2.37860847;stroke-linecap:round;stroke-miterlimit:4;stroke-opacity:1;stroke-dashoffset:0;display:inline" />
      <path
         sodipodi:nodetypes="cccccccc"
         inkscape:connector-curvature="0"
         id="path4407-4-4"
         d="m 1027.0162,1241.458 15.2574,0.2889 c 5.5112,7.7507 13.6555,11.6773 21.112,13.8506 l -1.8805,12.5513 -36.6682,1.4395 0.035,-0.1859 -0.086,-11.5691 c 1.5409,-5.1612 2.4432,-10.9833 2.2303,-16.3753 z"
         style="fill:#b3b3b3;stroke:none;display:inline" />
      <path
         sodipodi:nodetypes="ccccccc"
         inkscape:connector-curvature="0"
         id="path4407-4-4-5"
         d="m 1016.6465,1241.0071 10.4784,0.4693 c 0.5518,5.6768 -1.0204,14.693 -2.2422,16.9164 l 0.3737,11.6495 -27.47073,-2.1672 -2.12492,-12.3798 c 6.94795,-2.1998 18.03165,-4.6827 20.98575,-14.4882 z"
         style="fill:#808080;stroke:none;display:inline" />
      <path
         sodipodi:nodetypes="cccccccc"
         inkscape:connector-curvature="0"
         id="path4407-4"
         d="m 1016.9978,1241.5573 25.1762,0.2889 c 5.5112,7.7507 13.7831,11.6773 21.112,13.8506 l -1.8496,12.3528 -36.6991,1.638 -27.19696,-1.6286 -1.78361,-12.9153 c 5.15607,-1.0304 17.19887,-4.2081 21.24107,-13.5864 z"
         style="fill:none;stroke:#000000;stroke-width:2.37860847;stroke-linecap:butt;stroke-linejoin:miter;stroke-opacity:1;display:inline" />
      <path
         sodipodi:nodetypes="ccc"
         inkscape:connector-curvature="0"
         id="path4409-0"
         d="m 995.73541,1255.0162 c 7.31389,7.968 21.09929,8.6785 29.29959,2.7644 13.5272,6.5567 29.3606,4.7654 38.1022,-1.786"
         style="fill:none;stroke:#000000;stroke-width:2.37860847;stroke-linecap:butt;stroke-linejoin:miter;stroke-opacity:1;display:inline" />
      <path
         inkscape:connector-curvature="0"
         id="rect4413-4"
         d="m 1003.3048,1291.7154 50.6046,0 0,153.5997 -50.6046,0 z"
         style="fill:none;stroke:#000000;stroke-width:2.37860847;stroke-linecap:round;stroke-miterlimit:4;stroke-opacity:1;stroke-dashoffset:0;display:inline" />
      <path
         sodipodi:nodetypes="ccc"
         inkscape:connector-curvature="0"
         id="path4415-8"
         d="m 1026.884,1241.3998 c 0.1677,5.1227 0.063,11.1631 -1.7002,15.9342 l 0.1488,12.0558"
         style="fill:none;stroke:#000000;stroke-width:2.37860847;stroke-linecap:butt;stroke-linejoin:miter;stroke-opacity:1;display:inline" />
      <path
         inkscape:connector-curvature="0"
         id="path4456"
         d="m 1017.8592,1291.9431 0,154.3721"
         style="fill:none;stroke:#000000;stroke-width:2.37860847;stroke-linecap:butt;stroke-linejoin:miter;stroke-opacity:1" />
      <path
         inkscape:connector-curvature="0"
         id="rect4413-4-8-5"
         d="m 1014.99,1401.9302 53.8407,0 0,47.7544 -53.8407,0 z"
         style="fill:#b3b3b3;stroke:none;display:inline" />
      <path
         inkscape:connector-curvature="0"
         id="rect4413-4-8-2-1"
         d="m 992.17556,1401.9302 21.63244,0 0,47.7544 -21.63244,0 z"
         style="fill:#808080;stroke:none;display:inline" />
      <path
         inkscape:connector-curvature="0"
         id="rect4413-4-7"
         d="m 992.79062,1402.0624 76.07988,0 0,47.7544 -76.07988,0 z"
         style="fill:none;stroke:#000000;stroke-width:2.37860847;stroke-linecap:round;stroke-miterlimit:4;stroke-opacity:1;stroke-dashoffset:0;display:inline" />
      <path
         inkscape:connector-curvature="0"
         id="path4456-1"
         d="m 1014.672,1402.1332 0,47.9945"
         style="fill:none;stroke:#000000;stroke-width:2.37860847;stroke-linecap:butt;stroke-linejoin:miter;stroke-opacity:1;display:inline" />
    </g>
    <g
       id="g6202"
       transform="matrix(1.3824014,0,0,1.3824014,-1608.9472,-950.28973)"
       style="stroke-width:2.17013669;display:inline">
      <path
         inkscape:connector-curvature="0"
         id="path5577"
         d="m 1320.8942,847.55993 c 20.6182,0.63216 39.2915,-11.44853 49.6519,-24.86964 -3.7477,-1.39075 1.0003,-7.82104 5.3704,-11.69095 -5.3747,-0.23162 -2.479,-4.81167 0.5024,-7.10278 -9.0582,1.77563 -16.1604,-7.9416 -18.9857,-15.34148 -2.4262,-22.22241 -20.8395,-32.52113 -36.5529,-32.88852 -20.547,-0.48046 -34.3849,13.42744 -34.807,29.94557 -13.4806,27.8951 5.9222,61.06175 34.8209,61.9478 z"
         style="fill:#fffff8;fill-opacity:1;stroke:#000000;stroke-width:2.17013669;stroke-linecap:butt;stroke-linejoin:miter;stroke-opacity:1;display:inline" />
      <path
         inkscape:connector-curvature="0"
         id="path5579"
         d="m 1295.4009,786.9287 c 3.7298,3.83452 2.7021,-1.85958 7.949,-0.88524 8.9894,1.66929 12.2387,12.65256 21.8559,5.96575 -5.755,6.10464 -17.7395,3.2817 -20.2796,3.06635 -5.0217,-0.42574 -8.028,-4.91565 -9.5253,-8.14686 z"
         style="fill:#aa0000;fill-opacity:1;stroke:#000000;stroke-width:2.17013669;stroke-linecap:butt;stroke-linejoin:miter;stroke-opacity:1;display:inline" />
      <path
         inkscape:connector-curvature="0"
         id="path5581"
         d="m 1302.6909,772.84355 -0.9941,9.63864"
         style="fill:none;stroke:#000000;stroke-width:2.17013669;stroke-linecap:butt;stroke-linejoin:miter;stroke-opacity:1;display:inline" />
      <path
         inkscape:connector-curvature="0"
         id="path5583"
         d="m 1311.4966,773.66704 -0.7094,10.32757"
         style="fill:none;stroke:#000000;stroke-width:2.17013669;stroke-linecap:butt;stroke-linejoin:miter;stroke-opacity:1;display:inline" />
      <path
         sodipodi:nodetypes="ccc"
         inkscape:connector-curvature="0"
         id="path3910-11"
         d="m 1298.8335,765.4109 13.1829,-12.27784 10.4152,15.3604"
         style="fill:#f8fcff;fill-opacity:1;stroke:#000000;stroke-width:2.17013669;stroke-linecap:butt;stroke-linejoin:miter;stroke-opacity:1;display:inline" />
      <path
         sodipodi:nodetypes="cc"
         inkscape:connector-curvature="0"
         id="path3908-7"
         d="m 1294.4392,765.20102 57.3227,7.20139"
         style="fill:none;stroke:#000000;stroke-width:2.17013669;stroke-linecap:butt;stroke-linejoin:miter;stroke-opacity:1;display:inline" />
      <path
         inkscape:connector-curvature="0"
         id="path6200"
         d="m 1295.1598,776.48041 23.7863,3.1715"
         style="fill:none;stroke:#000000;stroke-width:2.17013669;stroke-linecap:butt;stroke-linejoin:miter;stroke-opacity:1" />
    </g>
    <rect
       style="fill:#deaa87;fill-opacity:1;stroke:#000000;stroke-width:3;display:inline"
       id="rect4722"
       width="412.29712"
       height="47.606922"
       x="-28.348658"
       y="304.47675" />
    <g
       transform="matrix(1.2612416,0,0,1.2612416,-1113.3983,-1181.3724)"
       style="stroke-width:2.37860847;display:inline"
       id="g6178">
      <path
         sodipodi:nodetypes="cccccccccc"
         inkscape:connector-curvature="0"
         id="path6154"
         d="m 1044.017,1118.5064 c -3.7808,41.28 22.4014,52.54 35.481,55.4022 -7.3805,-8.8116 -12.3401,-16.2934 -13.4788,-25.7685 5.977,10.0581 17.3475,17.2608 41.2295,17.8397 -10.0297,-5.1319 -18.2334,-4.9216 -28.4556,-19.5133 15.0233,7.5566 31.8772,0.7534 45.8988,-0.705 -13.1251,-2.4763 -28.3326,-0.2867 -40.4366,-9.9109 12.6103,10.3427 26.5021,4.8085 38.058,-2.7751 -22.5694,-1.5202 -32.934,5.6096 -72.7462,-16.1547 z"
         style="fill:#a0892c;stroke:#000000;stroke-width:2.37860847;stroke-linecap:butt;stroke-linejoin:miter;stroke-opacity:1" />
      <path
         sodipodi:nodetypes="ccc"
         inkscape:connector-curvature="0"
         id="path6156"
         d="m 1052.7386,1144.9687 c 8.1872,20.1867 31.2786,29.6191 48.3653,30.3274 -9.0443,-4.4577 -27.7468,-18.3196 -38.9295,-36.4829"
         style="fill:#a0892c;stroke:#000000;stroke-width:2.37860847;stroke-linecap:butt;stroke-linejoin:miter;stroke-opacity:1" />
      <path
         sodipodi:nodetypes="ccccccc"
         inkscape:connector-curvature="0"
         id="path6158"
         d="m 1063.2194,1133.181 c 9.007,13.5318 26.5384,29.1367 51.5616,29.2309 -6.4689,-2.2751 -12.6748,-2.9722 -19.6236,-8.1269 4.8792,1.2528 9.4541,1.4405 13.2806,-0.9912 -8.2508,-0.201 -13.8984,-1.6662 -15.8575,-3.9644 7.087,3.0412 13.2383,1.7373 17.8397,10e-5 -8.7588,0.1963 -22.2002,-4.9235 -27.7506,-9.1181"
         style="fill:#a0892c;stroke:#000000;stroke-width:2.37860847;stroke-linecap:butt;stroke-linejoin:miter;stroke-opacity:1" />
      <rect
         transform="matrix(0.94123039,-0.33776523,0.33776523,0.94123039,0,0)"
         y="1277.876"
         x="605.34552"
         height="128.67253"
         width="5.5275922"
         id="rect6151"
         style="fill:#a05a2c;fill-opacity:1;stroke:#000000;stroke-width:2.37860847;stroke-linecap:round;stroke-miterlimit:4;stroke-opacity:1;stroke-dasharray:none;stroke-dashoffset:0" />
    </g>
    <path
       style="fill:#fffff8;fill-opacity:1;stroke:#000000;stroke-width:3;stroke-linecap:butt;stroke-linejoin:miter;stroke-opacity:1;display:inline"
       d="m 178.34979,163.04259 c 20.14064,-10.92299 0.3814,-25.67989 -12.84285,-16.29979 -11.04014,7.83105 -6.60725,31.20615 5.9827,34.78921"
       id="path5565"
       inkscape:connector-curvature="0" />
    <path
       style="fill:#deaa87;stroke:#000000;stroke-width:3;stroke-linecap:butt;stroke-linejoin:miter;stroke-opacity:1;display:inline"
       d="m 68.108569,306.06493 c 21.900531,-2.9344 93.830221,-71.74291 115.760891,-72.24399 9.38404,-0.21441 -30.0356,23.3182 -27.15233,30.99149 3.04354,8.09986 46.74496,-16.96545 91.15824,-22.61181 14.764,-1.87698 -56.45426,22.29316 -65.87824,33.1496 -5.21189,6.00411 16.06966,1.3242 30.05885,4.96034 14.77534,3.84047 -33.08548,8.19789 -24.19945,16.10761 5.50234,4.89779 50.18368,7.47309 56.57816,8.57182"
       id="path6160"
       inkscape:connector-curvature="0"
       sodipodi:nodetypes="cssssssc" />
    <path
       style="fill:#d38d5f;stroke:#000000;stroke-width:3;stroke-linecap:butt;stroke-linejoin:miter;stroke-opacity:1;display:inline"
       d="m 165.08557,204.40069 c 0.90772,9.33993 1.64083,18.0267 13.36715,23.56679 1.75283,-6.90805 3.53126,-12.94653 -3.51834,-18.36438 -1.4716,1.58936 -3.98221,1.59758 -4.9647,-2.48289 z"
       id="path6162"
       inkscape:connector-curvature="0"
       sodipodi:nodetypes="ccccc" />
    <path
       style="fill:none;stroke:#000000;stroke-width:3;stroke-linecap:butt;stroke-linejoin:miter;stroke-opacity:1;display:inline"
       d="m 179.30347,230.89816 c -1.10325,-7.3351 -6.40234,-17.94225 -11.63763,-22.05348"
       id="path6164"
       inkscape:connector-curvature="0"
       sodipodi:nodetypes="cc" />
    <path
       style="fill:#808000;stroke:#000000;stroke-width:3;stroke-linecap:butt;stroke-linejoin:miter;stroke-opacity:1;display:inline"
       d="m 237.29304,226.96138 c -1.62474,-4.2949 -4.56389,-7.58097 -7.50482,-10.86565 2.69938,-0.78131 5.64704,0.25903 8.62708,1.53706 l 0.44841,4.16774 1.53308,-3.67983 c 1.35676,0.86663 2.26114,1.57922 2.72544,2.14196 l -0.43092,1.8141 1.40107,-0.55005 c 1.77031,2.15901 1.9865,3.23988 2.40305,4.45973 -3.26447,0.63021 -6.45825,1.15097 -9.20239,0.97494 z"
       id="path6166"
       inkscape:connector-curvature="0"
       sodipodi:nodetypes="cccccccccc" />
    <path
       style="fill:none;stroke:#000000;stroke-width:3;stroke-linecap:butt;stroke-linejoin:miter;stroke-opacity:1;display:inline"
       d="m 237.46223,226.7388 -1.40144,4.93855"
       id="path6168"
       inkscape:connector-curvature="0"
       sodipodi:nodetypes="cc" />
    <path
       style="fill:#916f6f;stroke:#000000;stroke-width:3;stroke-linecap:butt;stroke-linejoin:miter;stroke-opacity:1;display:inline"
       d="m 193.5513,234.94811 c -2.86803,5.75015 -3.17724,9.32895 -3.21128,14.93322 3.9303,-2.96302 7.47183,-10.3854 3.21128,-14.93322 z"
       id="path6170"
       inkscape:connector-curvature="0"
       sodipodi:nodetypes="ccc" />
    <path
       style="fill:#ffccaa;stroke:#000000;stroke-width:3;stroke-linecap:butt;stroke-linejoin:miter;stroke-opacity:1;display:inline"
       d="m 170.91684,266.81763 c 3.45449,5.54749 6.12637,7.04646 8.88652,9.00171 -0.51945,-4.06109 -2.01266,-7.69951 -8.88652,-9.00171 z"
       id="path6172"
       inkscape:connector-curvature="0"
       sodipodi:nodetypes="ccc" />
    <path
       style="fill:#fffff8;fill-opacity:1;stroke:#000000;stroke-width:3;stroke-linecap:butt;stroke-linejoin:miter;stroke-opacity:1;display:inline"
       d="m 205.1134,161.25731 c -19.53307,3.64707 -23.04639,16.22701 2.77645,24.39978"
       id="path5585"
       inkscape:connector-curvature="0"
       sodipodi:nodetypes="cc" />
    <path
       style="fill:#916f6f;stroke:#000000;stroke-width:3.64324164;stroke-linecap:butt;stroke-linejoin:miter;stroke-opacity:1;display:inline"
       d="m 274.22969,215.35459 c -3.48317,6.98266 -3.8587,11.32856 -3.90004,18.13408 4.77328,-3.59812 9.07441,-12.61145 3.90004,-18.13408 z"
       id="path6170-9"
       inkscape:connector-curvature="0"
       sodipodi:nodetypes="ccc" />
    <path
       style="fill:#ac9393;stroke:#000000;stroke-width:3;stroke-linecap:butt;stroke-linejoin:miter;stroke-opacity:1;display:inline"
       d="m 177.71388,110.78071 c -8.86695,8.03705 -17.20028,15.47337 -13.75477,24.13501 8.44443,-5.10055 16.01749,-9.47334 16.08554,-16.40603 -2.77408,0.80163 -4.73595,-0.0655 -1.31801,-3.78071 z"
       id="path6162-9"
       inkscape:connector-curvature="0"
       sodipodi:nodetypes="ccccc" />
    <path
       style="fill:#ac9393;stroke:#000000;stroke-width:3;stroke-linecap:butt;stroke-linejoin:miter;stroke-opacity:1;display:inline"
       d="m 161.61717,137.63459 c 6.6599,-6.44777 13.40891,-17.06099 13.54937,-22.28198"
       id="path6164-5"
       inkscape:connector-curvature="0"
       sodipodi:nodetypes="cc" />
    <path
       style="fill:#d35f5f;stroke:#000000;stroke-width:3;stroke-linecap:butt;stroke-linejoin:miter;stroke-opacity:1"
       d="m 255.5027,149.80749 c -4.29652,-1.8742 -2.40518,-6.10512 -4.4489,-10.82228 2.90571,1.57777 3.5269,2.77714 4.32,5.42368 -1.34443,-4.67397 2.52129,-5.513 5.7173,-9.78764 0.51586,5.31204 1.85973,7.19668 -0.88607,10.17897 3.65661,-7.07554 9.92802,-6.82965 15.81493,-7.66036 -1.98573,3.94691 -5.23285,10.79451 -12.81237,10.43851 4.76396,-0.10775 9.56221,0.0397 14.84148,2.58842 -5.14592,0.74863 -9.77035,5.24315 -16.16752,0.98676 2.98505,1.79735 1.39282,4.1319 1.61415,6.52144 -4.12808,-4.23658 -8.6567,-4.46566 -7.993,-7.8675 z"
       id="path5969"
       inkscape:connector-curvature="0"
       sodipodi:nodetypes="ccccccccccc" />
    <path
       style="fill:#d35f5f;stroke:#000000;stroke-width:3;stroke-linecap:butt;stroke-linejoin:miter;stroke-opacity:1"
       d="m 255.45811,149.81108 -4.89249,3.49464"
       id="path5971"
       inkscape:connector-curvature="0" />
    <path
       style="fill:none;stroke:#000000;stroke-width:3;stroke-linecap:butt;stroke-linejoin:miter;stroke-opacity:1"
       d="m 30.320829,151.83212 c 25.839831,14.28572 116.223551,-26.46097 70.081001,-17.63358 -25.544181,4.88678 -53.99141,25.03474 -18.725837,29.39357 13.573163,1.67764 53.920237,-0.75837 79.986987,-21.86323"
       id="path5973"
       inkscape:connector-curvature="0"
       sodipodi:nodetypes="cssc" />
  </g>
  <g
     inkscape:groupmode="layer"
     id="layer4"
     inkscape:label="吹き出し"
     sodipodi:insensitive="true">
    <g
       id="g5116"
       transform="translate(66.719239,-96.866451)">
      <path
         sodipodi:nodetypes="sssssscsssss"
         inkscape:connector-curvature="0"
         id="rect13841"
         d="m 151.43459,108.6247 114.18497,0 c 14.39154,0 25.97752,11.58598 25.97752,25.97753 l 0,15.66873 c 0,14.39155 -11.58598,25.97753 -25.97752,25.97753 l -22.72116,0 c -21.29438,0 -20.53685,15.71165 -40.86427,26.36404 11.23452,-10.41871 13.79161,-26.36404 -3.9546,-26.36404 l -46.64494,0 c -14.39155,0 -25.97753,-11.58598 -25.97753,-25.97753 l 0,-15.66873 c 0,-14.39155 11.58598,-25.97753 25.97753,-25.97753 z"
         style="fill:#fefefe;fill-opacity:1;stroke:#000000;stroke-width:3" />
      <text
         sodipodi:linespacing="125%"
         id="text6768-1"
         y="150.32265"
         x="150.83"
         style="font-size:28px;font-style:normal;font-variant:normal;font-weight:normal;font-stretch:normal;line-height:125%;letter-spacing:0px;word-spacing:0px;writing-mode:lr-tb;fill:#000000;fill-opacity:1;stroke:none;font-family:MS UI Gothic;-inkscape-font-specification:MS UI Gothic"
         xml:space="preserve"><tspan
           style="font-size:28px;font-style:normal;font-variant:normal;font-weight:normal;font-stretch:normal;fill:#000000;fill-opacity:1;font-family:MS UI Gothic;-inkscape-font-specification:MS UI Gothic"
           y="150.32265"
           x="150.83"
           sodipodi:role="line"
           id="tspan5696">諸行無常</tspan></text>
    </g>
  </g>
  <g
     inkscape:groupmode="layer"
     id="layer2"
     inkscape:label="枠面"
     sodipodi:insensitive="true">
    <path
       style="fill:#ffffff;stroke:none;display:inline"
       d="m 0,0 0,320 370,0 0,-320 -10,10 0,300 -350,0 0,-300 350,0 10,-10 z"
       id="path21072"
       inkscape:connector-curvature="0"
       sodipodi:nodetypes="ccccccccccc" />
  </g>
</svg>
