<?xml version="1.0" encoding="UTF-8" standalone="no"?>
<!-- Created with Inkscape (http://www.inkscape.org/) -->

<svg
   xmlns:dc="http://purl.org/dc/elements/1.1/"
   xmlns:cc="http://creativecommons.org/ns#"
   xmlns:rdf="http://www.w3.org/1999/02/22-rdf-syntax-ns#"
   xmlns:svg="http://www.w3.org/2000/svg"
   xmlns="http://www.w3.org/2000/svg"
   xmlns:sodipodi="http://sodipodi.sourceforge.net/DTD/sodipodi-0.dtd"
   xmlns:inkscape="http://www.inkscape.org/namespaces/inkscape"
   width="370"
   height="320"
   id="svg3172"
   version="1.1"
   inkscape:version="0.48.4 r9939"
   sodipodi:docname="[00]規格.svg"
   inkscape:export-filename="C:\Users\執安\Desktop\資料\臨時\svg\BUTAS\[22.成功].png"
   inkscape:export-xdpi="90"
   inkscape:export-ydpi="90">
  <defs
     id="defs3174" />
  <sodipodi:namedview
     id="base"
     pagecolor="#ffffff"
     bordercolor="#666666"
     borderopacity="1.0"
     inkscape:pageopacity="0.0"
     inkscape:pageshadow="2"
     inkscape:zoom="0.35769074"
     inkscape:cx="100.36749"
     inkscape:cy="292.10874"
     inkscape:document-units="px"
     inkscape:current-layer="layer3"
     showgrid="false"
     inkscape:window-width="1100"
     inkscape:window-height="698"
     inkscape:window-x="-5"
     inkscape:window-y="-5"
     inkscape:window-maximized="0" />
  <metadata
     id="metadata3177">
    <rdf:RDF>
      <cc:Work
         rdf:about="">
        <dc:format>image/svg+xml</dc:format>
        <dc:type
           rdf:resource="http://purl.org/dc/dcmitype/StillImage" />
        <dc:title></dc:title>
      </cc:Work>
    </rdf:RDF>
  </metadata>
  <g
     inkscape:label="補助線"
     inkscape:groupmode="layer"
     id="layer1"
     transform="translate(0,-732.36218)"
     sodipodi:insensitive="true"
     style="display:none">
    <path
       style="fill:none;stroke:#0000ff;stroke-width:1px;stroke-linecap:butt;stroke-linejoin:miter;stroke-opacity:1;display:inline"
       d="M 10,1042.3622 360,742.36211"
       id="path3025"
       inkscape:connector-curvature="0"
       sodipodi:nodetypes="cc" />
    <path
       style="fill:none;stroke:#0000ff;stroke-width:1px;stroke-linecap:butt;stroke-linejoin:miter;stroke-opacity:1;display:inline"
       d="M 10,742.36211 360,1042.3622"
       id="path3027"
       inkscape:connector-curvature="0"
       sodipodi:nodetypes="cc" />
    <path
       style="fill:none;stroke:#ff0000;stroke-width:1px;stroke-linecap:butt;stroke-linejoin:miter;stroke-opacity:1;display:inline"
       d="m 10,732.36211 0,320.00009"
       id="path3006"
       inkscape:connector-curvature="0"
       sodipodi:nodetypes="cc" />
    <path
       style="fill:none;stroke:#ff0000;stroke-width:1px;stroke-linecap:butt;stroke-linejoin:miter;stroke-opacity:1;display:inline"
       d="m 360,732.36211 0,320.00009"
       id="path3010"
       inkscape:connector-curvature="0"
       sodipodi:nodetypes="cc" />
    <path
       style="fill:none;stroke:#ff0000;stroke-width:1px;stroke-linecap:butt;stroke-linejoin:miter;stroke-opacity:1;display:inline"
       d="m 0,742.36208 370,3e-5"
       id="path3016"
       inkscape:connector-curvature="0" />
    <path
       style="fill:none;stroke:#ff0000;stroke-width:1px;stroke-linecap:butt;stroke-linejoin:miter;stroke-opacity:1;display:inline"
       d="m 0,1042.3622 370,0"
       id="path3018"
       inkscape:connector-curvature="0"
       sodipodi:nodetypes="cc" />
  </g>
  <g
     inkscape:groupmode="layer"
     id="layer3"
     inkscape:label="豚"
     style="display:inline"
     sodipodi:insensitive="true">
    <path
       sodipodi:type="arc"
       style="fill:#000000;fill-opacity:1;stroke:none"
       id="path6109"
       sodipodi:cx="213.8719"
       sodipodi:cy="290.64502"
       sodipodi:rx="81.075623"
       sodipodi:ry="11.182845"
       d="m 294.94753,290.64502 a 81.075623,11.182845 0 1 1 -162.15125,0 81.075623,11.182845 0 1 1 162.15125,0 z"
       transform="matrix(0.69221727,0,0,0.78125001,66.175542,73.755446)" />
    <g
       id="g6092"
       transform="matrix(0.85806656,0,0,0.85806656,27.263156,24.676113)"
       style="stroke-width:3.49623227">
      <path
         inkscape:connector-curvature="0"
         id="path5593"
         d="m 199.75272,297.95236 c -89.50745,-21.1803 -74.25385,-101.30992 -84.95798,-126.89305 10.40655,7.5166 18.37509,2.25168 23.28922,-8.95432 11.83728,-37.5917 48.024,-54.53217 77.70223,-55.63507 31.81774,-1.18241 62.94228,17.16742 75.29245,55.60284 18.76778,2.92707 25.24622,11.34396 14.77462,41.34418 7.6607,62.52922 -48.23473,108.22832 -106.10054,94.53542 z"
         style="fill:#fffff8;fill-opacity:1;stroke:#000000;stroke-width:3.49623227;stroke-linecap:butt;stroke-linejoin:miter;stroke-opacity:1;display:inline" />
      <path
         inkscape:connector-curvature="0"
         id="path5591"
         d="m 194.26854,226.00387 c 14.65221,-13.42835 45.6811,-0.65979 41.65514,27.74665 -3.29703,23.26279 -37.63046,37.65916 -59.95547,8.69584"
         style="fill:none;stroke:#000000;stroke-width:3.49623227;stroke-linecap:butt;stroke-linejoin:miter;stroke-opacity:1;display:inline" />
      <path
         inkscape:connector-curvature="0"
         id="path5595"
         d="m 261.96717,190.29101 c -11.07006,9.32122 -7.52528,-4.52749 -24.48393,-2.58458 -23.15362,2.65265 -23.06731,27.01997 -37.98522,10.29545 11.92908,12.6538 20.96243,25.13764 34.3994,21.95279 17.28885,-4.09782 22.34663,-22.74354 28.06975,-29.66366 z"
         style="fill:#aa0000;fill-opacity:1;stroke:#000000;stroke-width:3.49623227;stroke-linecap:butt;stroke-linejoin:miter;stroke-opacity:1;display:inline" />
      <path
         inkscape:connector-curvature="0"
         id="path5597"
         d="m 248.57364,167.15685 -5.32623,13.35561"
         style="fill:none;stroke:#000000;stroke-width:3.49623227;stroke-linecap:butt;stroke-linejoin:miter;stroke-opacity:1;display:inline" />
      <path
         inkscape:connector-curvature="0"
         id="path5599"
         d="m 210.43743,170.93732 8.60127,12.26612"
         style="fill:none;stroke:#000000;stroke-width:3.49623227;stroke-linecap:butt;stroke-linejoin:miter;stroke-opacity:1;display:inline" />
      <path
         sodipodi:nodetypes="ccc"
         inkscape:connector-curvature="0"
         id="path3910-76"
         d="m 193.34318,145.81885 30.23601,-36.4454 30.53103,32.24102"
         style="fill:#f8fcff;fill-opacity:1;stroke:#000000;stroke-width:3.49623227;stroke-linecap:butt;stroke-linejoin:miter;stroke-opacity:1;display:inline" />
      <path
         sodipodi:nodetypes="cc"
         inkscape:connector-curvature="0"
         id="path3908-52"
         d="m 152.55916,135.35055 c 5.71689,17.48797 119.79532,13.3738 123.36776,-3.01012"
         style="fill:none;stroke:#000000;stroke-width:3.49623227;stroke-linecap:butt;stroke-linejoin:miter;stroke-opacity:1;display:inline" />
    </g>
  </g>
  <g
     inkscape:groupmode="layer"
     id="layer4"
     inkscape:label="吹き出し"
     sodipodi:insensitive="true">
    <g
       id="g6104">
      <path
         sodipodi:nodetypes="sssssscsssss"
         inkscape:connector-curvature="0"
         id="rect13841"
         d="m 58.910409,13.215427 119.329651,0 c 16.01406,0 28.90626,12.892199 28.90626,28.906271 l 0,44.655644 c 0,16.014068 -12.8922,28.906268 -28.90626,28.906268 l -31.50459,0 c -23.69513,0 -11.18631,18.26073 -0.36326,32.44726 -28.71836,-11.59333 -36.76114,-32.44726 -56.508076,-32.44726 l -30.953725,0 c -16.014071,0 -28.906266,-12.8922 -28.906266,-28.906268 l 0,-44.655644 c 0,-16.014072 12.892195,-28.906271 28.906266,-28.906271 z"
         style="fill:#fefefe;fill-opacity:1;stroke:#000000;stroke-width:3" />
      <text
         sodipodi:linespacing="125%"
         id="text6768-1"
         y="87.715721"
         x="75.977974"
         style="font-size:66.30407715px;font-style:normal;font-variant:normal;font-weight:normal;font-stretch:normal;line-height:125%;letter-spacing:0px;word-spacing:0px;writing-mode:lr-tb;fill:#000000;fill-opacity:1;stroke:none;font-family:MS UI Gothic;-inkscape-font-specification:MS UI Gothic"
         xml:space="preserve"><tspan
           id="tspan3151-4"
           style="font-size:66.30407715px;font-style:normal;font-variant:normal;font-weight:normal;font-stretch:normal;fill:#000000;fill-opacity:1;font-family:MS UI Gothic;-inkscape-font-specification:MS UI Gothic"
           y="87.715721"
           x="75.977974"
           sodipodi:role="line">喝!</tspan></text>
    </g>
  </g>
  <g
     inkscape:groupmode="layer"
     id="layer2"
     inkscape:label="枠面"
     sodipodi:insensitive="true">
    <path
       style="fill:#ffffff;stroke:none;display:inline"
       d="m 0,0 0,320 370,0 0,-320 -10,10 0,300 -350,0 0,-300 350,0 10,-10 z"
       id="path21072"
       inkscape:connector-curvature="0"
       sodipodi:nodetypes="ccccccccccc" />
  </g>
</svg>
