<?xml version="1.0" encoding="UTF-8" standalone="no"?>
<!-- Created with Inkscape (http://www.inkscape.org/) -->

<svg
   xmlns:dc="http://purl.org/dc/elements/1.1/"
   xmlns:cc="http://creativecommons.org/ns#"
   xmlns:rdf="http://www.w3.org/1999/02/22-rdf-syntax-ns#"
   xmlns:svg="http://www.w3.org/2000/svg"
   xmlns="http://www.w3.org/2000/svg"
   xmlns:sodipodi="http://sodipodi.sourceforge.net/DTD/sodipodi-0.dtd"
   xmlns:inkscape="http://www.inkscape.org/namespaces/inkscape"
   width="370"
   height="320"
   id="svg3172"
   version="1.1"
   inkscape:version="0.48.4 r9939"
   sodipodi:docname="[16]睡眠.svg"
   inkscape:export-filename="C:\Users\執安\Desktop\資料\臨時\svg\BUTAS\[22.成功].png"
   inkscape:export-xdpi="90"
   inkscape:export-ydpi="90">
  <defs
     id="defs3174" />
  <sodipodi:namedview
     id="base"
     pagecolor="#ffffff"
     bordercolor="#666666"
     borderopacity="1.0"
     inkscape:pageopacity="0.0"
     inkscape:pageshadow="2"
     inkscape:zoom="0.47175914"
     inkscape:cx="-183.77292"
     inkscape:cy="105.32745"
     inkscape:document-units="px"
     inkscape:current-layer="layer3"
     showgrid="false"
     inkscape:window-width="1100"
     inkscape:window-height="698"
     inkscape:window-x="-5"
     inkscape:window-y="-5"
     inkscape:window-maximized="0" />
  <metadata
     id="metadata3177">
    <rdf:RDF>
      <cc:Work
         rdf:about="">
        <dc:format>image/svg+xml</dc:format>
        <dc:type
           rdf:resource="http://purl.org/dc/dcmitype/StillImage" />
        <dc:title />
      </cc:Work>
    </rdf:RDF>
  </metadata>
  <g
     inkscape:label="補助線"
     inkscape:groupmode="layer"
     id="layer1"
     transform="translate(0,-732.36218)"
     sodipodi:insensitive="true"
     style="display:none">
    <path
       style="fill:none;stroke:#0000ff;stroke-width:1px;stroke-linecap:butt;stroke-linejoin:miter;stroke-opacity:1;display:inline"
       d="M 10,1042.3622 360,742.36211"
       id="path3025"
       inkscape:connector-curvature="0"
       sodipodi:nodetypes="cc" />
    <path
       style="fill:none;stroke:#0000ff;stroke-width:1px;stroke-linecap:butt;stroke-linejoin:miter;stroke-opacity:1;display:inline"
       d="M 10,742.36211 360,1042.3622"
       id="path3027"
       inkscape:connector-curvature="0"
       sodipodi:nodetypes="cc" />
    <path
       style="fill:none;stroke:#ff0000;stroke-width:1px;stroke-linecap:butt;stroke-linejoin:miter;stroke-opacity:1;display:inline"
       d="m 10,732.36211 0,320.00009"
       id="path3006"
       inkscape:connector-curvature="0"
       sodipodi:nodetypes="cc" />
    <path
       style="fill:none;stroke:#ff0000;stroke-width:1px;stroke-linecap:butt;stroke-linejoin:miter;stroke-opacity:1;display:inline"
       d="m 360,732.36211 0,320.00009"
       id="path3010"
       inkscape:connector-curvature="0"
       sodipodi:nodetypes="cc" />
    <path
       style="fill:none;stroke:#ff0000;stroke-width:1px;stroke-linecap:butt;stroke-linejoin:miter;stroke-opacity:1;display:inline"
       d="m 0,742.36208 370,3e-5"
       id="path3016"
       inkscape:connector-curvature="0" />
    <path
       style="fill:none;stroke:#ff0000;stroke-width:1px;stroke-linecap:butt;stroke-linejoin:miter;stroke-opacity:1;display:inline"
       d="m 0,1042.3622 370,0"
       id="path3018"
       inkscape:connector-curvature="0"
       sodipodi:nodetypes="cc" />
  </g>
  <g
     inkscape:groupmode="layer"
     id="layer3"
     inkscape:label="豚"
     style="display:inline"
     sodipodi:insensitive="true">
    <g
       id="g12517">
      <path
         transform="matrix(-1.1580333,0,0,3.4244211,377.73955,-754.8547)"
         d="m 226.94315,298.72409 a 91.013657,8.2739687 0 1 1 -182.027317,0 91.013657,8.2739687 0 1 1 182.027317,0 z"
         sodipodi:ry="8.2739687"
         sodipodi:rx="91.013657"
         sodipodi:cy="298.72409"
         sodipodi:cx="135.92949"
         id="path8295"
         style="fill:#000000;fill-opacity:1;stroke:none;display:inline"
         sodipodi:type="arc" />
      <path
         inkscape:connector-curvature="0"
         id="path12490"
         d="m 67.823979,281.40403 7.869081,5.24606 90.68178,-0.74944 -21.73365,-7.11964 z"
         style="fill:#000000;stroke:none" />
      <path
         sodipodi:nodetypes="ccccc"
         inkscape:connector-curvature="0"
         id="path12490-6"
         d="m 42.155791,250.8645 -1.124158,3.37247 95.087477,8.31588 -7.60412,-6.47995 z"
         style="fill:#000000;stroke:none;display:inline" />
      <path
         sodipodi:nodetypes="ccccc"
         inkscape:connector-curvature="0"
         id="path12490-65"
         d="m 258.74287,263.2302 9.74267,10.49211 86.55988,-7.86908 -12.3657,-4.87133 z"
         style="fill:#000000;stroke:none;display:inline" />
    </g>
    <g
       id="g12523">
      <path
         sodipodi:nodetypes="ccccc"
         inkscape:connector-curvature="0"
         id="path8176-7-94-3-7"
         d="m 355.55231,263.65466 0.9494,-9.50094 -66.33158,-3.46794 -1.77556,12.28836 z"
         style="fill:#c8ab37;stroke:none;display:inline" />
      <path
         sodipodi:nodetypes="ccccc"
         inkscape:connector-curvature="0"
         id="path8176-1-9-6"
         d="m 356.24583,253.49428 -8.07407,-2.7654 -64.37328,-5.13304 6.60518,4.9067 z"
         style="fill:#ffe680;stroke:none;display:inline" />
      <path
         sodipodi:nodetypes="ccccc"
         inkscape:connector-curvature="0"
         id="path8176-7-94-3-9-9"
         d="m 288.2268,262.84719 1.42272,-12.47692 -6.70427,-4.30167 -1.29896,12.65016 z"
         style="fill:#d3bc5f;stroke:none;display:inline" />
      <path
         sodipodi:nodetypes="ccccccc"
         inkscape:connector-curvature="0"
         id="path5238-9-6-3"
         d="m 282.13293,258.72359 5.93219,4.25015 67.38658,1.07128 1.452,-10.24053 -7.30781,-2.74687 -66.58323,-5.62888 z"
         style="fill:none;stroke:#000000;stroke-width:3;stroke-linecap:butt;stroke-linejoin:miter;stroke-opacity:1;display:inline" />
      <path
         sodipodi:nodetypes="cc"
         inkscape:connector-curvature="0"
         id="path8156-2-6-7-5"
         d="m 356.39455,254.29168 -66.58714,-3.7826"
         style="fill:none;stroke:#000000;stroke-width:3;stroke-linecap:butt;stroke-linejoin:miter;stroke-opacity:1;display:inline" />
      <path
         sodipodi:nodetypes="ccc"
         inkscape:connector-curvature="0"
         id="path8156-2-6-7-9-7"
         d="m 288.33448,262.97774 1.49431,-12.46357 -7.01298,-4.80161"
         style="fill:none;stroke:#000000;stroke-width:3;stroke-linecap:butt;stroke-linejoin:miter;stroke-opacity:1;display:inline" />
      <path
         sodipodi:nodetypes="ccccc"
         inkscape:connector-curvature="0"
         id="path8176-7-94"
         d="m 151.82654,254.79336 -0.25518,-10.5347 -110.188223,2.25423 0.568735,5.97524 z"
         style="fill:#c8ab37;stroke:none;display:inline" />
      <path
         sodipodi:nodetypes="ccccc"
         inkscape:connector-curvature="0"
         id="path8176-1"
         d="m 151.76939,243.99929 -0.11874,-3.32916 -107.66784,2.29135 -2.386785,2.54405 z"
         style="fill:#ffe680;stroke:none;display:inline" />
      <path
         sodipodi:nodetypes="cccccc"
         inkscape:connector-curvature="0"
         id="path5238-9"
         d="m 41.708239,252.8256 110.565041,1.89375 -0.47869,-14.00594 -107.769185,2.83994 -3.184805,1.87352 z"
         style="fill:none;stroke:#000000;stroke-width:3;stroke-linecap:butt;stroke-linejoin:miter;stroke-opacity:1;display:inline" />
      <path
         sodipodi:nodetypes="cc"
         inkscape:connector-curvature="0"
         id="path8156-2-6"
         d="M 152.4263,244.53931 41.481705,246.19149"
         style="fill:none;stroke:#000000;stroke-width:3;stroke-linecap:butt;stroke-linejoin:miter;stroke-opacity:1;display:inline" />
      <path
         sodipodi:nodetypes="cssscc"
         inkscape:connector-curvature="0"
         id="path5354"
         d="m 140.19419,157.29065 c 24.28147,0.66135 40.69137,4.9706 64.42229,-8.51479 30.70564,-17.4488 96.96695,-22.79006 114.74309,34.37862 16.7425,53.84412 -24.65542,104.07034 -117.35337,102.92207 -62.7482,-0.77728 -87.44295,-43.2839 -92.28695,-84.0717 z"
         style="fill:#672178;stroke:#000000;stroke-width:3;stroke-linecap:butt;stroke-linejoin:miter;stroke-opacity:1;display:inline" />
      <path
         sodipodi:nodetypes="ccccccccccc"
         inkscape:connector-curvature="0"
         id="path5356"
         d="m 89.193724,186.03353 c 8.25444,-10.20002 9.438389,-12.13797 17.243566,-14.91667 1.24174,-6.41211 9.91393,-16.12411 16.55191,-24.13901 10.88624,0.72101 23.76012,7.63184 31.43296,16.4597 7.8184,1.03615 10.37038,4.86143 22.01712,5.28126 -3.16175,10.8616 -5.95064,22.90524 -17.05928,29.91862 3.2881,8.46118 2.0208,17.75579 -0.47236,31.08475 -15.29496,-1.40815 -16.38377,-1.37852 -32.49748,-8.67363 -8.40153,5.63768 -14.30243,8.53861 -27.13589,11.13309 -0.626787,-9.1344 -0.49476,-21.07016 -0.170914,-25.42874 -3.565525,-5.89957 -4.645112,-13.43118 -9.909632,-20.71937 z"
         style="fill:#22002b;stroke:#000000;stroke-width:3;stroke-linecap:butt;stroke-linejoin:miter;stroke-opacity:1;display:inline" />
      <path
         sodipodi:nodetypes="cc"
         inkscape:connector-curvature="0"
         id="path5785"
         d="m 125.43336,162.9083 c -18.46489,-3.61515 -26.819038,14.19021 -21.09462,27.64341"
         style="fill:#22002b;stroke:#000000;stroke-width:3;stroke-linecap:butt;stroke-linejoin:miter;stroke-opacity:1;display:inline" />
      <path
         sodipodi:nodetypes="cc"
         inkscape:connector-curvature="0"
         id="path5783"
         d="m 97.890478,164.77264 14.950412,10.25445"
         style="fill:none;stroke:#000000;stroke-width:3;stroke-linecap:butt;stroke-linejoin:miter;stroke-opacity:1;display:inline" />
      <path
         sodipodi:nodetypes="ccccc"
         inkscape:connector-curvature="0"
         id="path8176-7-94-3"
         d="m 162.07372,275.13483 0.67154,-12.51265 -86.972814,8.48309 -0.116263,12.20584 z"
         style="fill:#c8ab37;stroke:none;display:inline" />
      <path
         sodipodi:nodetypes="ccccc"
         inkscape:connector-curvature="0"
         id="path8176-1-9"
         d="m 162.39736,262.02983 -8.51917,-1.23452 -85.22482,6.52263 7.329614,3.56837 z"
         style="fill:#ffe680;stroke:none;display:inline" />
      <path
         sodipodi:nodetypes="ccccc"
         inkscape:connector-curvature="0"
         id="path8176-7-94-3-9"
         d="m 75.469696,283.21822 -0.265255,-12.32529 -7.347113,-2.96531 0.413668,12.4708 z"
         style="fill:#d3bc5f;stroke:none;display:inline" />
      <path
         sodipodi:nodetypes="ccccccc"
         inkscape:connector-curvature="0"
         id="path5238-9-6"
         d="m 68.762414,280.31624 6.561477,3.05328 86.732209,-8.30895 1.04697,-12.84803 -8.72694,-1.45805 -86.537997,6.54202 z"
         style="fill:none;stroke:#000000;stroke-width:3;stroke-linecap:butt;stroke-linejoin:miter;stroke-opacity:1;display:inline" />
      <path
         sodipodi:nodetypes="cc"
         inkscape:connector-curvature="0"
         id="path8156-2-6-7"
         d="m 162.65599,262.77477 -87.273408,8.22427"
         style="fill:none;stroke:#000000;stroke-width:3;stroke-linecap:butt;stroke-linejoin:miter;stroke-opacity:1;display:inline" />
      <path
         sodipodi:nodetypes="ccc"
         inkscape:connector-curvature="0"
         id="path8156-2-6-7-9"
         d="m 75.596075,283.32532 -0.191241,-12.32516 -7.726545,-3.39391"
         style="fill:none;stroke:#000000;stroke-width:3;stroke-linecap:butt;stroke-linejoin:miter;stroke-opacity:1;display:inline" />
    </g>
    <g
       id="g12321"
       transform="matrix(0.87128809,0,0,0.87128809,39.27629,68.427143)"
       style="stroke-width:3.44317794">
      <path
         inkscape:connector-curvature="0"
         id="path5344"
         d="m 280.43564,189.92942 c 27.01768,12.27346 17.26834,-18.34086 11.9478,-29.85636 2.28435,-35.55989 -27.35223,-68.74829 -70.44253,-62.44698 -30.66649,4.48451 -51.06272,25.55718 -58.87283,60.8154 -13.36988,65.46456 24.06176,93.75974 68.54487,91.83926 35.25453,-1.52208 69.63101,-13.0506 85.8785,-41.69427 -9.39807,2.18617 -17.17802,-9.217 -21.8435,-18.58106"
         style="fill:#fffff8;fill-opacity:1;stroke:#000000;stroke-width:3.44317794;stroke-linecap:butt;stroke-linejoin:miter;stroke-opacity:1;display:inline" />
      <path
         sodipodi:nodetypes="csc"
         inkscape:connector-curvature="0"
         id="path5346"
         d="m 273.54355,153.73062 c -0.15264,8.0913 -7.52096,12.76188 -14.28592,7.62871 -7.88791,-5.98524 -15.7675,-3.97585 -23.99596,7.90162"
         style="fill:none;stroke:#000000;stroke-width:3.44317794;stroke-linecap:butt;stroke-linejoin:miter;stroke-opacity:1;display:inline" />
      <path
         inkscape:connector-curvature="0"
         id="path5348"
         d="m 248.73818,146.51301 -12.10686,2.91166"
         style="fill:none;stroke:#000000;stroke-width:3.44317794;stroke-linecap:butt;stroke-linejoin:miter;stroke-opacity:1;display:inline" />
      <path
         sodipodi:nodetypes="cc"
         inkscape:connector-curvature="0"
         id="path5350"
         d="m 259.55127,145.36236 11.22311,-2.45648"
         style="fill:none;stroke:#000000;stroke-width:3.44317794;stroke-linecap:butt;stroke-linejoin:miter;stroke-opacity:1;display:inline" />
      <path
         inkscape:connector-curvature="0"
         id="path5352"
         d="m 227.2729,200.21009 c -2.60212,13.52882 -12.77287,14.34871 -24.39577,1.90041"
         style="fill:none;stroke:#000000;stroke-width:3.44317794;stroke-linecap:butt;stroke-linejoin:miter;stroke-opacity:1;display:inline" />
      <path
         sodipodi:nodetypes="ccc"
         inkscape:connector-curvature="0"
         id="path3910-85-60"
         d="m 226.96279,126.5719 22.77981,-28.23123 20.05569,22.67224"
         style="fill:#f8fcff;fill-opacity:1;stroke:#000000;stroke-width:3.44317794;stroke-linecap:butt;stroke-linejoin:miter;stroke-opacity:1;display:inline" />
      <path
         sodipodi:nodetypes="cc"
         inkscape:connector-curvature="0"
         id="path3908-16-24"
         d="m 180.2735,121.14973 c 11.29895,7.02326 85.64548,6.33713 98.01948,-3.13158"
         style="fill:none;stroke:#000000;stroke-width:3.44317794;stroke-linecap:butt;stroke-linejoin:miter;stroke-opacity:1;display:inline" />
    </g>
    <text
       xml:space="preserve"
       style="font-size:50.67435455px;font-style:normal;font-weight:normal;line-height:125%;letter-spacing:0px;word-spacing:0px;writing-mode:tb-rl;fill:#000000;fill-opacity:1;stroke:none;font-family:Sans"
       x="219.94685"
       y="26.587162"
       id="text12616"
       sodipodi:linespacing="125%"><tspan
         sodipodi:role="line"
         id="tspan12618"
         x="26.587162"
         y="219.94685">Z</tspan></text>
    <text
       xml:space="preserve"
       style="font-size:24.02306938px;font-style:normal;font-weight:normal;line-height:125%;letter-spacing:0px;word-spacing:0px;writing-mode:tb-rl;fill:#000000;fill-opacity:1;stroke:none;display:inline;font-family:Sans"
       x="276.14316"
       y="121.43472"
       id="text12616-8"
       sodipodi:linespacing="125%"><tspan
         sodipodi:role="line"
         id="tspan12618-2"
         x="121.43472"
         y="276.14316">Z</tspan></text>
    <text
       xml:space="preserve"
       style="font-size:38.82933807px;font-style:normal;font-weight:normal;line-height:125%;letter-spacing:0px;word-spacing:0px;writing-mode:tb-rl;fill:#000000;fill-opacity:1;stroke:none;display:inline;font-family:Sans"
       x="266.12985"
       y="72.969734"
       id="text12616-5"
       sodipodi:linespacing="125%"><tspan
         sodipodi:role="line"
         id="tspan12618-4"
         x="72.969734"
         y="266.12985">Z</tspan></text>
  </g>
  <g
     inkscape:groupmode="layer"
     id="layer2"
     inkscape:label="枠面"
     sodipodi:insensitive="true">
    <path
       style="fill:#ffffff;stroke:none;display:inline"
       d="m 0,0 0,320 370,0 0,-320 -10,10 0,300 -350,0 0,-300 350,0 10,-10 z"
       id="path21072"
       inkscape:connector-curvature="0"
       sodipodi:nodetypes="ccccccccccc" />
  </g>
</svg>
