<?xml version="1.0" encoding="UTF-8" standalone="no"?>
<!-- Created with Inkscape (http://www.inkscape.org/) -->

<svg
   xmlns:dc="http://purl.org/dc/elements/1.1/"
   xmlns:cc="http://creativecommons.org/ns#"
   xmlns:rdf="http://www.w3.org/1999/02/22-rdf-syntax-ns#"
   xmlns:svg="http://www.w3.org/2000/svg"
   xmlns="http://www.w3.org/2000/svg"
   xmlns:sodipodi="http://sodipodi.sourceforge.net/DTD/sodipodi-0.dtd"
   xmlns:inkscape="http://www.inkscape.org/namespaces/inkscape"
   width="370"
   height="320"
   id="svg3172"
   version="1.1"
   inkscape:version="0.48.4 r9939"
   sodipodi:docname="[14]出向.svg"
   inkscape:export-filename="C:\Users\執安\Desktop\資料\臨時\svg\BUTAS\[22.成功].png"
   inkscape:export-xdpi="90"
   inkscape:export-ydpi="90">
  <defs
     id="defs3174" />
  <sodipodi:namedview
     id="base"
     pagecolor="#ffffff"
     bordercolor="#666666"
     borderopacity="1.0"
     inkscape:pageopacity="0.0"
     inkscape:pageshadow="2"
     inkscape:zoom="1.4880978"
     inkscape:cx="136.64784"
     inkscape:cy="195.65925"
     inkscape:document-units="px"
     inkscape:current-layer="layer3"
     showgrid="false"
     inkscape:window-width="1100"
     inkscape:window-height="698"
     inkscape:window-x="-5"
     inkscape:window-y="-5"
     inkscape:window-maximized="0" />
  <metadata
     id="metadata3177">
    <rdf:RDF>
      <cc:Work
         rdf:about="">
        <dc:format>image/svg+xml</dc:format>
        <dc:type
           rdf:resource="http://purl.org/dc/dcmitype/StillImage" />
        <dc:title />
      </cc:Work>
    </rdf:RDF>
  </metadata>
  <g
     inkscape:label="補助線"
     inkscape:groupmode="layer"
     id="layer1"
     transform="translate(0,-732.36218)"
     sodipodi:insensitive="true"
     style="display:none">
    <path
       style="fill:none;stroke:#0000ff;stroke-width:1px;stroke-linecap:butt;stroke-linejoin:miter;stroke-opacity:1;display:inline"
       d="M 10,1042.3622 360,742.36211"
       id="path3025"
       inkscape:connector-curvature="0"
       sodipodi:nodetypes="cc" />
    <path
       style="fill:none;stroke:#0000ff;stroke-width:1px;stroke-linecap:butt;stroke-linejoin:miter;stroke-opacity:1;display:inline"
       d="M 10,742.36211 360,1042.3622"
       id="path3027"
       inkscape:connector-curvature="0"
       sodipodi:nodetypes="cc" />
    <path
       style="fill:none;stroke:#ff0000;stroke-width:1px;stroke-linecap:butt;stroke-linejoin:miter;stroke-opacity:1;display:inline"
       d="m 10,732.36211 0,320.00009"
       id="path3006"
       inkscape:connector-curvature="0"
       sodipodi:nodetypes="cc" />
    <path
       style="fill:none;stroke:#ff0000;stroke-width:1px;stroke-linecap:butt;stroke-linejoin:miter;stroke-opacity:1;display:inline"
       d="m 360,732.36211 0,320.00009"
       id="path3010"
       inkscape:connector-curvature="0"
       sodipodi:nodetypes="cc" />
    <path
       style="fill:none;stroke:#ff0000;stroke-width:1px;stroke-linecap:butt;stroke-linejoin:miter;stroke-opacity:1;display:inline"
       d="m 0,742.36208 370,3e-5"
       id="path3016"
       inkscape:connector-curvature="0" />
    <path
       style="fill:none;stroke:#ff0000;stroke-width:1px;stroke-linecap:butt;stroke-linejoin:miter;stroke-opacity:1;display:inline"
       d="m 0,1042.3622 370,0"
       id="path3018"
       inkscape:connector-curvature="0"
       sodipodi:nodetypes="cc" />
  </g>
  <g
     inkscape:groupmode="layer"
     id="layer3"
     inkscape:label="豚"
     style="display:inline"
     sodipodi:insensitive="true">
    <path
       sodipodi:type="arc"
       style="fill:#000000;fill-opacity:1;stroke:none;display:inline"
       id="path8295"
       sodipodi:cx="135.92949"
       sodipodi:cy="298.72409"
       sodipodi:rx="91.013657"
       sodipodi:ry="8.2739687"
       d="m 226.94315,298.72409 a 91.013657,8.2739687 0 1 1 -182.027317,0 91.013657,8.2739687 0 1 1 182.027317,0 z"
       transform="matrix(-1.0241147,0,0,1.0241147,403.91422,-4.7013937)" />
    <g
       id="g10969"
       transform="matrix(1.1813803,0,0,1.1813803,-385.16197,-26.678433)"
       style="stroke-width:2.53940248">
      <path
         sodipodi:nodetypes="ccccc"
         inkscape:connector-curvature="0"
         id="path8176-7-9-1"
         d="m 559.7572,214.71577 c 0.55132,-0.50423 3.63954,-2.94403 3.63954,-2.94403 l 21.0228,68.18392 -4.99377,0.56561 z"
         style="fill:#c8ab37;stroke:none;display:inline" />
      <path
         sodipodi:nodetypes="ccccc"
         inkscape:connector-curvature="0"
         id="path8176-5-1"
         d="m 563.92802,212.09385 7.5991,-3.82801 15.35481,66.47471 -2.30774,5.18908 z"
         style="fill:#ffe680;stroke:none;display:inline" />
      <path
         sodipodi:nodetypes="cccccc"
         inkscape:connector-curvature="0"
         id="path5238-4-3"
         d="m 579.58259,280.17876 -19.66911,-65.55321 11.7496,-6.28398 14.72757,66.70224 -2.08686,4.72992 z"
         style="fill:none;stroke:#000000;stroke-width:2.53940248;stroke-linecap:butt;stroke-linejoin:miter;stroke-opacity:1;display:inline" />
      <path
         sodipodi:nodetypes="cc"
         inkscape:connector-curvature="0"
         id="path8156-2-3-8"
         d="m 563.38408,211.54227 21.07229,68.31816"
         style="fill:none;stroke:#000000;stroke-width:2.53940248;stroke-linecap:butt;stroke-linejoin:miter;stroke-opacity:1;display:inline" />
      <path
         sodipodi:nodetypes="ccccc"
         inkscape:connector-curvature="0"
         id="path8176-7"
         d="m 595.62539,219.06578 c -0.47136,-0.39381 -3.06385,-2.23155 -3.06385,-2.23155 l -34.09525,63.92772 3.7709,-0.26254 z"
         style="fill:#c8ab37;stroke:none;display:inline" />
      <path
         sodipodi:nodetypes="ccccc"
         inkscape:connector-curvature="0"
         id="path8176"
         d="m 592.20803,217.22802 c -0.47137,-0.39379 -5.89202,-4.46312 -5.89202,-4.46312 l -30.32436,63.40265 2.35681,4.5944 z"
         style="fill:#ffe680;stroke:none;display:inline" />
      <path
         sodipodi:nodetypes="cccccc"
         inkscape:connector-curvature="0"
         id="path5238"
         d="m 562.07831,280.19686 33.42004,-61.19225 -8.78752,-6.42441 -30.31734,63.79848 2.13591,4.19055 z"
         style="fill:none;stroke:#000000;stroke-width:2.53940248;stroke-linecap:butt;stroke-linejoin:miter;stroke-opacity:1;display:inline" />
      <path
         sodipodi:nodetypes="cc"
         inkscape:connector-curvature="0"
         id="path8156-2"
         d="m 592.54232,216.61259 -34.11518,64.06416"
         style="fill:none;stroke:#000000;stroke-width:2.53940248;stroke-linecap:butt;stroke-linejoin:miter;stroke-opacity:1;display:inline" />
      <path
         sodipodi:nodetypes="ccccc"
         inkscape:connector-curvature="0"
         id="path8176-7-1"
         d="m 541.18781,212.21795 c -0.50788,-0.29986 -3.2538,-1.62701 -3.2538,-1.62701 l -23.38571,69.02346 3.56995,-0.95128 z"
         style="fill:#c8ab37;stroke:none;display:inline" />
      <path
         sodipodi:nodetypes="ccccc"
         inkscape:connector-curvature="0"
         id="path8176-2"
         d="m 537.70984,210.38919 -7.13957,0.16525 -19.05339,65.00516 2.91867,4.07646 z"
         style="fill:#ffe680;stroke:none;display:inline" />
      <path
         sodipodi:nodetypes="ccccccc"
         inkscape:connector-curvature="0"
         id="path5238-3"
         d="m 517.92253,278.39534 23.13489,-66.21408 -3.84985,-2.14391 -6.62922,0.58983 -18.64651,65.06576 2.64899,3.72065 z"
         style="fill:none;stroke:#000000;stroke-width:2.53940248;stroke-linecap:butt;stroke-linejoin:miter;stroke-opacity:1;display:inline" />
      <path
         sodipodi:nodetypes="cc"
         inkscape:connector-curvature="0"
         id="path8156-2-34"
         d="m 537.8836,210.37693 -23.38507,69.16104"
         style="fill:none;stroke:#000000;stroke-width:2.53940248;stroke-linecap:butt;stroke-linejoin:miter;stroke-opacity:1;display:inline" />
      <path
         sodipodi:nodetypes="ccccccccccc"
         inkscape:connector-curvature="0"
         id="path5232"
         d="m 481.8383,158.26744 c 4.2463,1.68736 7.53837,-0.95881 11.97654,-1.87882 0.8079,-4.17184 10.77232,-17.18323 17.30782,-22.47152 4.71874,4.01508 6.40087,11.39507 8.43804,16.54765 5.38796,-0.78473 15.35388,5.37804 23.22693,2.9917 -4.71339,9.72948 -6.33594,17.59869 -12.67558,24.82535 2.13931,5.50501 3.41638,15.93432 1.79429,24.6064 -9.9512,-0.91617 -12.2069,-0.51693 -25.4015,-10.08226 -6.38123,1.60928 -11.70286,6.03682 -17.31911,8.94101 -6.23704,-8.59268 -3.03495,-20.63153 -2.82423,-23.46731 -2.31982,-3.83837 -3.34629,-13.58414 -4.5232,-20.0122 z"
         style="fill:#22002b;stroke:#000000;stroke-width:2.53940248;stroke-linecap:butt;stroke-linejoin:miter;stroke-opacity:1;display:inline" />
      <path
         inkscape:connector-curvature="0"
         id="path5358"
         d="m 500.76312,157.75069 c 15.798,0.43029 26.4746,4.61311 41.9144,-4.16075 19.9777,-11.35253 76.45799,-5.42235 79.65259,35.53964 2.8525,36.57546 -36.3419,58.1546 -91.00159,32.64218 -24.4218,-11.39888 -40.1021,-17.64792 -39.9053,-48.37074 -0.6216,-8.19479 4.4904,-12.70471 9.3399,-15.65033 z"
         style="fill:#672178;stroke:#000000;stroke-width:2.53940248;stroke-linecap:butt;stroke-linejoin:miter;stroke-opacity:1;display:inline" />
      <path
         sodipodi:nodetypes="ccccc"
         inkscape:connector-curvature="0"
         id="path8176-7-9"
         d="m 506.65715,205.55635 4.59977,-0.11994 17.84707,76.56672 -4.66613,-1.86674 z"
         style="fill:#c8ab37;stroke:none;display:inline" />
      <path
         sodipodi:nodetypes="ccccc"
         inkscape:connector-curvature="0"
         id="path8176-5"
         d="m 511.57228,205.22228 7.75634,2.47553 14.41389,70.87823 -4.48997,3.47743 z"
         style="fill:#ffe680;stroke:none;display:inline" />
      <path
         sodipodi:nodetypes="ccccccc"
         inkscape:connector-curvature="0"
         id="path5238-4"
         d="m 524.73819,279.90897 -17.90069,-74.35808 4.93058,-0.0548 8.01914,2.14535 13.37898,70.96896 -4.07799,3.1776 z"
         style="fill:none;stroke:#000000;stroke-width:2.53940248;stroke-linecap:butt;stroke-linejoin:miter;stroke-opacity:1;display:inline" />
      <path
         sodipodi:nodetypes="cc"
         inkscape:connector-curvature="0"
         id="path8156-2-3"
         d="m 511.35443,204.47885 17.8271,77.45786"
         style="fill:none;stroke:#000000;stroke-width:2.53940248;stroke-linecap:butt;stroke-linejoin:miter;stroke-opacity:1;display:inline" />
    </g>
    <g
       id="g10117"
       transform="matrix(1.1813803,0,0,1.1813803,-385.16197,-26.678433)"
       style="stroke-width:2.53940248">
      <path
         inkscape:connector-curvature="0"
         id="path5190"
         d="m 495.41778,107.90993 c 0.96754,-22.43675 16.04462,-34.95648 34.62391,-34.97351 19.93738,-0.0182 34.3651,11.92618 37.56111,35.22494 5.3978,7.46136 3.31456,22.79215 12.76057,26.75723 -0.45298,14.33925 -14.98908,37.28727 -48.95826,34.99848 -32.4281,-2.18497 -40.08035,-24.79412 -41.13666,-43.91032 -6.18614,-20.38573 -4.60577,-31.007492 6.72041,-28.718322"
         style="fill:#fffff8;fill-opacity:1;stroke:#000000;stroke-width:2.53940248;stroke-linecap:butt;stroke-linejoin:miter;stroke-opacity:1;display:inline"
         sodipodi:nodetypes="csccscc" />
      <path
         sodipodi:nodetypes="cscsc"
         inkscape:connector-curvature="0"
         id="path5192"
         d="m 504.17305,98.032818 c 1.5468,4.517982 3.39423,1.14339 6.67841,1.81827 6.3458,1.303982 7.38832,7.750742 14.71264,1.179572 -4.28713,5.40969 -6.09306,14.48871 -13.71921,12.57807 -5.73479,-1.43677 -6.66017,-11.42044 -7.67184,-15.575912 z"
         style="fill:#aa0000;stroke:#000000;stroke-width:2.53940248;stroke-linecap:butt;stroke-linejoin:miter;stroke-opacity:1;display:inline" />
      <path
         inkscape:connector-curvature="0"
         id="path5194"
         d="m 519.70634,93.548748 -2.94856,4.70125"
         style="fill:none;stroke:#000000;stroke-width:2.53940248;stroke-linecap:butt;stroke-linejoin:miter;stroke-opacity:1;display:inline" />
      <path
         inkscape:connector-curvature="0"
         id="path5196"
         d="m 509.35287,92.349108 0.0428,4.92543"
         style="fill:none;stroke:#000000;stroke-width:2.53940248;stroke-linecap:butt;stroke-linejoin:miter;stroke-opacity:1;display:inline" />
      <path
         inkscape:connector-curvature="0"
         id="path5198"
         d="m 532.39691,122.48527 c -9.34013,13.36191 -5.35048,20.77056 12.13228,16.34497"
         style="fill:none;stroke:#000000;stroke-width:2.53940248;stroke-linecap:butt;stroke-linejoin:miter;stroke-opacity:1;display:inline" />
      <path
         sodipodi:nodetypes="ccc"
         inkscape:connector-curvature="0"
         id="path3910-85-12"
         d="m 509.6965,82.3356 13.44607,-12.25513 7.51805,15.92058"
         style="fill:#f8fcff;fill-opacity:1;stroke:#000000;stroke-width:2.53940248;stroke-linecap:butt;stroke-linejoin:miter;stroke-opacity:1;display:inline" />
      <path
         sodipodi:nodetypes="cc"
         inkscape:connector-curvature="0"
         id="path3908-16-33"
         d="m 506.58967,81.14489 c 6.08084,3.59903 44.76183,8.696408 53.60474,6.378448"
         style="fill:none;stroke:#000000;stroke-width:2.53940248;stroke-linecap:butt;stroke-linejoin:miter;stroke-opacity:1;display:inline" />
    </g>
    <path
       style="fill:none;stroke:#000000;stroke-width:3;stroke-linecap:butt;stroke-linejoin:miter;stroke-opacity:1;display:inline"
       d="m 204.73662,160.78397 c 9.51036,-6.2844 19.06024,-13.64145 33.13437,-29.05334"
       id="path3757-9"
       inkscape:connector-curvature="0"
       sodipodi:nodetypes="cc" />
    <path
       style="fill:none;stroke:#000000;stroke-width:3;stroke-linecap:butt;stroke-linejoin:miter;stroke-opacity:1;display:inline"
       d="m 199.20144,165.38853 c 17.69856,-5.393 34.31081,-13.03479 47.30028,-26.66865"
       id="path3757-2"
       inkscape:connector-curvature="0"
       sodipodi:nodetypes="cc" />
  </g>
  <g
     inkscape:groupmode="layer"
     id="layer4"
     inkscape:label="吹き出し"
     style="display:inline"
     sodipodi:insensitive="true">
    <path
       style="fill:#fefefe;fill-opacity:1;stroke:#000000;stroke-width:3"
       d="m 37.755801,11.846111 132.193639,0 c 14.39154,0 25.97752,11.58598 25.97752,25.977525 l 0,29.067097 c 0,14.39155 -11.58598,25.97753 -25.97752,25.97753 l -27.1623,0 c -21.29438,0 -7.14363,12.237897 -1.05627,20.800797 C 124.34909,107.4898 115.71448,92.868263 97.968271,92.868263 l -60.21247,0 c -14.39155,0 -25.97753,-11.58598 -25.97753,-25.97753 l 0,-29.067097 c 0,-14.391545 11.58598,-25.977525 25.97753,-25.977525 z"
       id="rect13841"
       inkscape:connector-curvature="0"
       sodipodi:nodetypes="sssssscsssss" />
    <text
       xml:space="preserve"
       style="font-size:30.14450264px;font-style:normal;font-variant:normal;font-weight:normal;font-stretch:normal;line-height:125%;letter-spacing:0px;word-spacing:0px;writing-mode:lr-tb;fill:#000000;fill-opacity:1;stroke:none;font-family:MS UI Gothic;-inkscape-font-specification:MS UI Gothic"
       x="32.536015"
       y="46.375763"
       id="text6768-1"
       sodipodi:linespacing="125%"><tspan
         sodipodi:role="line"
         x="32.536015"
         y="46.375763"
         style="font-size:30.14450264px;font-style:normal;font-variant:normal;font-weight:normal;font-stretch:normal;fill:#000000;fill-opacity:1;font-family:MS UI Gothic;-inkscape-font-specification:MS UI Gothic"
         id="tspan3151-4">それでは</tspan></text>
    <text
       xml:space="preserve"
       style="font-size:30.14450264px;font-style:normal;font-variant:normal;font-weight:normal;font-stretch:normal;line-height:125%;letter-spacing:0px;word-spacing:0px;writing-mode:lr-tb;fill:#000000;fill-opacity:1;stroke:none;display:inline;font-family:MS UI Gothic;-inkscape-font-specification:MS UI Gothic"
       x="31.274422"
       y="78.298615"
       id="text6768-1-4"
       sodipodi:linespacing="125%"><tspan
         sodipodi:role="line"
         x="31.274422"
         y="78.298615"
         style="font-size:30.14450264px;font-style:normal;font-variant:normal;font-weight:normal;font-stretch:normal;fill:#000000;fill-opacity:1;font-family:MS UI Gothic;-inkscape-font-specification:MS UI Gothic"
         id="tspan3151-4-6">ごきげんよう</tspan></text>
  </g>
  <g
     inkscape:groupmode="layer"
     id="layer2"
     inkscape:label="枠面"
     sodipodi:insensitive="true">
    <path
       style="fill:#ffffff;stroke:none;display:inline"
       d="m 0,0 0,320 370,0 0,-320 -10,10 0,300 -350,0 0,-300 350,0 10,-10 z"
       id="path21072"
       inkscape:connector-curvature="0"
       sodipodi:nodetypes="ccccccccccc" />
  </g>
</svg>
