<?xml version="1.0" encoding="UTF-8" standalone="no"?>
<!-- Created with Inkscape (http://www.inkscape.org/) -->

<svg
   xmlns:dc="http://purl.org/dc/elements/1.1/"
   xmlns:cc="http://creativecommons.org/ns#"
   xmlns:rdf="http://www.w3.org/1999/02/22-rdf-syntax-ns#"
   xmlns:svg="http://www.w3.org/2000/svg"
   xmlns="http://www.w3.org/2000/svg"
   xmlns:sodipodi="http://sodipodi.sourceforge.net/DTD/sodipodi-0.dtd"
   xmlns:inkscape="http://www.inkscape.org/namespaces/inkscape"
   width="96"
   height="74"
   id="svg3042"
   version="1.1"
   inkscape:version="0.92.3 (2405546, 2018-03-11)"
   sodipodi:docname="[00]サムネイル.svg"
   inkscape:export-filename="C:\Users\zhen-\Desktop\資料\臨時\HOSHI\tab.png"
   inkscape:export-xdpi="96"
   inkscape:export-ydpi="96">
  <defs
     id="defs3044" />
  <sodipodi:namedview
     id="base"
     pagecolor="#ffffff"
     bordercolor="#666666"
     borderopacity="1.0"
     inkscape:pageopacity="0.0"
     inkscape:pageshadow="2"
     inkscape:zoom="5.6568542"
     inkscape:cx="27.872822"
     inkscape:cy="35.952169"
     inkscape:document-units="px"
     inkscape:current-layer="layer3"
     showgrid="false"
     inkscape:window-width="1656"
     inkscape:window-height="995"
     inkscape:window-x="250"
     inkscape:window-y="-6"
     inkscape:window-maximized="0"
     inkscape:snap-global="false" />
  <metadata
     id="metadata3047">
    <rdf:RDF>
      <cc:Work
         rdf:about="">
        <dc:format>image/svg+xml</dc:format>
        <dc:type
           rdf:resource="http://purl.org/dc/dcmitype/StillImage" />
        <dc:title />
      </cc:Work>
    </rdf:RDF>
  </metadata>
  <g
     inkscape:groupmode="layer"
     id="layer2"
     inkscape:label="補助線"
     style="display:none"
     sodipodi:insensitive="true">
    <path
       transform="translate(0,-978.36218)"
       style="display:inline;fill:none;stroke:#0000ff;stroke-width:1px;stroke-linecap:butt;stroke-linejoin:miter;stroke-opacity:1"
       d="M 9.999995,1042.3622 86,988.36218"
       id="path3025"
       inkscape:connector-curvature="0"
       sodipodi:nodetypes="cc" />
    <path
       transform="translate(0,-978.36218)"
       style="display:inline;fill:none;stroke:#0000ff;stroke-width:1px;stroke-linecap:butt;stroke-linejoin:miter;stroke-opacity:1"
       d="M 9.999995,988.36218 86,1042.3622"
       id="path3027"
       inkscape:connector-curvature="0"
       sodipodi:nodetypes="cc" />
    <path
       transform="translate(0,-978.36218)"
       style="display:inline;fill:none;stroke:#ff0000;stroke-width:1px;stroke-linecap:butt;stroke-linejoin:miter;stroke-opacity:1"
       d="m 9.999995,978.36218 v 74.00002"
       id="path3006"
       inkscape:connector-curvature="0"
       sodipodi:nodetypes="cc" />
    <path
       transform="translate(0,-978.36218)"
       style="display:inline;fill:none;stroke:#ff0000;stroke-width:1px;stroke-linecap:butt;stroke-linejoin:miter;stroke-opacity:1"
       d="m 86,978.36218 v 74.00002"
       id="path3010"
       inkscape:connector-curvature="0"
       sodipodi:nodetypes="cc" />
    <path
       transform="translate(0,-978.36218)"
       style="display:inline;fill:none;stroke:#ff0000;stroke-width:1px;stroke-linecap:butt;stroke-linejoin:miter;stroke-opacity:1"
       d="M 0,988.36218 H 96"
       id="path3016"
       inkscape:connector-curvature="0"
       sodipodi:nodetypes="cc" />
    <path
       transform="translate(0,-978.36218)"
       style="display:inline;fill:none;stroke:#ff0000;stroke-width:1px;stroke-linecap:butt;stroke-linejoin:miter;stroke-opacity:1"
       d="M 0,1042.3622 H 96"
       id="path3018"
       inkscape:connector-curvature="0"
       sodipodi:nodetypes="cc" />
  </g>
  <g
     inkscape:groupmode="layer"
     id="layer3"
     inkscape:label="豚"
     sodipodi:insensitive="true">
    <path
       sodipodi:nodetypes="cccccccc"
       inkscape:connector-curvature="0"
       id="path6902"
       d="m 69.360384,43.360143 c -0.446652,-2.438291 -0.964032,-4.510296 -0.631178,-6.03052 L 57.931458,27.482184 33.746028,42.8576 c 1.030633,6.269102 3.71878,7.346344 4.755994,14.751055 l -2.023178,8.062501 13.433719,2.614825 z"
       style="display:inline;fill:#deaa87;stroke:#000000;stroke-width:1;stroke-linecap:round;stroke-linejoin:round;stroke-opacity:1" />
    <g
       id="g2694"
       transform="matrix(0.47309193,0,0,0.47309193,3.2898988,-26.07266)"
       style="display:inline;stroke-width:2.11375403">
      <path
         sodipodi:nodetypes="cccc"
         style="display:inline;fill:#dbdee3;stroke:none;stroke-width:2.11375403;stroke-linecap:round;stroke-linejoin:round"
         d="m 52.309933,189.4084 82.478557,5.68619 -71.146047,125.65837 z"
         id="path6878"
         inkscape:connector-curvature="0" />
      <path
         style="display:inline;fill:#550000;stroke:#000000;stroke-width:2.11375403;stroke-linecap:round;stroke-linejoin:round;stroke-opacity:1"
         d="m 70.579763,216.54606 c -11.56796,37.27632 -12.95186,73.14171 -21.05954,106.83717 l 15.41208,29.58612 15.292561,-23.90744 c 0.53514,-35.59356 -2.70611,-69.7977 0.65972,-112.45814 z"
         id="path6882"
         inkscape:connector-curvature="0"
         sodipodi:nodetypes="cccccc" />
      <path
         sodipodi:nodetypes="cssscccc"
         inkscape:connector-curvature="0"
         id="path6892"
         d="m 24.51449,428.92107 c -0.0522,-46.19456 7.222618,-106.14446 3.729218,-121.51311 -7.75075,-34.09818 -16.460939,-89.91653 -15.519292,-110.00772 0.885412,-18.89134 6.786997,-32.36457 14.732057,-35.45526 8.114389,-3.15656 36.494133,-6.97127 43.378359,-11.2873 l -18.724725,69.06061 8.282336,105.78467 z"
         style="display:inline;fill:#1c1f24;fill-opacity:1;stroke:#000000;stroke-width:2.11375403;stroke-linecap:round;stroke-linejoin:round;stroke-opacity:1" />
      <path
         sodipodi:nodetypes="csssccccc"
         inkscape:connector-curvature="0"
         id="path2627"
         d="m 150.04479,160.66173 c 14.71981,9.47152 45.85408,28.04838 53.38493,36.2103 9.47617,10.27025 3.2357,28.51548 1.22289,44.06709 -2.57474,19.89321 -24.75742,57.07905 -26.72183,85.00412 -1.69417,24.08335 9.66662,67.1494 7.78405,98.6819 -6.24364,7.06274 -5.1108,3.80356 -11.60866,8.73644 -2.59459,-10.99285 -3.62173,-23.76414 -6.78165,-32.37423 L 61.057205,332.97743 Z"
         style="display:inline;fill:#1c1f24;stroke:#000000;stroke-width:2.11375403;stroke-linecap:round;stroke-linejoin:round;stroke-opacity:1" />
      <path
         style="display:inline;fill:#550000;stroke:#000000;stroke-width:2.11375403;stroke-linecap:round;stroke-linejoin:round;stroke-opacity:1"
         d="m 72.248093,187.72848 c 3.9367,1.85391 8.819671,3.04534 21.141061,3.26676 l 0.88934,8.81786 c -3.08407,7.08893 -10.22381,14.66737 -13.97727,19.30487 -3.297391,0.009 -7.298871,-0.40487 -9.851991,-2.16644 -0.51698,-5.51837 -4.8778,-13.2119 -4.07944,-18.39344 z"
         id="path6884"
         inkscape:connector-curvature="0"
         sodipodi:nodetypes="ccccccc" />
      <path
         style="display:inline;fill:#dbdbe3;stroke:#000000;stroke-width:2.11375403;stroke-linecap:round;stroke-linejoin:round;stroke-opacity:1"
         d="m 79.781594,189.10609 c 8.02207,8.27416 12.42137,18.23677 20.243146,32.2692 24.67083,-29.78602 34.14411,-39.04722 45.35376,-60.54232 -1.7231,-5.59457 -1.95369,-10.77748 -6.03101,-17.32717 0.89805,7.15741 -21.71118,34.01185 -59.565896,45.60029 z"
         id="path287"
         inkscape:connector-curvature="0" />
      <path
         style="display:inline;fill:#dbdbe3;stroke:#000000;stroke-width:2.11375403;stroke-linecap:round;stroke-linejoin:round;stroke-opacity:1"
         d="m 70.050253,153.75619 c -8.50014,24.268 -10.35092,49.05321 -10.52934,61.88616 4.67867,-8.82104 9.735782,-23.68874 17.218285,-26.75475 -6.09852,-11.61512 -8.218465,-39.9948 4.460013,-47.21283 z"
         id="path6886"
         inkscape:connector-curvature="0" />
      <path
         sodipodi:nodetypes="cccccc"
         style="display:inline;fill:#1c1f24;fill-opacity:1;stroke:#000000;stroke-width:2.11375403;stroke-linecap:round;stroke-linejoin:round;stroke-opacity:1"
         d="m 133.71003,220.63928 -19.86839,9.85379 -9.59446,-14.6823 c 18.15377,-29.50183 40.5618,-54.94168 38.44928,-66.9146 2.82567,0.98028 6.61906,8.49313 9.41083,12.95306 -6.99485,4.65006 -17.16459,40.12371 -18.39726,58.79005 z"
         id="path6896"
         inkscape:connector-curvature="0" />
      <path
         sodipodi:nodetypes="ccsssccc"
         inkscape:connector-curvature="0"
         id="path2623"
         d="m 169.62262,399.57314 c 0.38488,10.90521 -2.18257,37.00878 -3.20165,37.19824 -27.3144,19.78305 -87.542396,19.72837 -92.542757,19.91303 -6.6551,0.24577 -11.94935,-6.78345 -13.07417,-16.4872 -4.41959,-38.12741 -2.5388,-102.69212 -1.1937,-106.40426 14.755251,-40.72086 23.060162,-83.37534 44.636837,-117.98218 l 21.82695,22.03425 c -18.05762,17.1885 -50.098317,67.12678 -63.605667,94.45283"
         style="display:inline;fill:#1c1f24;stroke:#000000;stroke-width:2.11375403;stroke-linecap:round;stroke-linejoin:round;stroke-opacity:1" />
      <path
         style="display:inline;fill:#1c1f24;stroke:#000000;stroke-width:2.11375403;stroke-linecap:round;stroke-linejoin:round;stroke-opacity:1"
         d="m 48.523423,212.37154 -4.248297,-15.74831 c 4.633902,-7.07136 19.836097,-37.16897 24.843012,-47.19176 2.076735,-0.99467 7.923131,-4.51802 9.277661,-4.91284 -7.753671,8.62996 -14.454637,30.97322 -17.228013,61.61915 z"
         id="path6890"
         inkscape:connector-curvature="0"
         sodipodi:nodetypes="cccccc" />
      <path
         id="path2680"
         d="M 60.392443,325.50296 C 52.644813,290.39221 45.798175,249.18672 41.211035,214.01671 l 19.957587,-8.00875 c -2.843975,31.54663 -2.817503,71.57748 2.001261,119.78332 0.739127,7.39406 -0.23522,72.5486 2.1836,107.25085 0.33583,4.81808 -5.22865,13.1758 -12.32373,16.65754 -5.41392,2.65675 -11.287913,-2.30483 -28.515263,-20.7786"
         style="display:inline;fill:#1c1f24;fill-opacity:1;stroke:#000000;stroke-width:2.11375403;stroke-linecap:round;stroke-linejoin:round;stroke-opacity:1"
         inkscape:connector-curvature="0"
         sodipodi:nodetypes="cccsssc" />
      <path
         sodipodi:nodetypes="sssccs"
         style="display:inline;fill:#1c1f24;stroke:#000000;stroke-width:2.11375403;stroke-linecap:round;stroke-linejoin:round;stroke-opacity:1"
         d="m 164.34138,261.06578 c 1.0833,-20.76466 11.95798,-53.46283 27.76627,-61.5023 17.08916,-8.69087 25.21624,18.29336 22.88274,40.32358 -1.80234,17.01566 7.63685,81.201 2.5833,107.36139 l -36.26152,27.71821 c -3.63635,-30.24572 -18.95034,-75.95691 -16.97079,-113.90088 z"
         id="path6900"
         inkscape:connector-curvature="0" />
    </g>
    <path
       sodipodi:nodetypes="csssscc"
       inkscape:connector-curvature="0"
       id="path6942-3"
       d="m 19.668417,17.515145 15.086288,-6.268596 c 3.847212,-1.5985786 5.143568,3.877558 7.040988,7.192104 0.959975,1.676949 -0.692995,4.099559 -2.275624,1.850342 -1.584945,-2.252517 -1.251859,-9.468548 -4.274502,-7.976097 l -15.471412,7.639141 z"
       style="display:inline;opacity:0.95;fill:#241c1c;stroke:#000000;stroke-width:1;stroke-linecap:round;stroke-linejoin:round" />
    <g
       style="display:inline;stroke-width:2.15476322"
       id="g283"
       transform="matrix(-0.46408811,0,0,0.46408811,112.81702,-21.953948)">
      <path
         style="display:inline;fill:#deaa87;stroke:#000000;stroke-width:2.15476322;stroke-linecap:round;stroke-linejoin:round;stroke-opacity:1"
         d="m 101.64533,126.32403 c 1.1977,4.56599 4.29362,12.9178 4.72765,14.47415 1.47808,5.30004 34.06193,26.459 48.21791,32.34441 6.63273,2.75759 15.70887,-1.16038 18.38612,-4.93953 4.42835,-6.25098 8.51761,-13.90817 11.19732,-20.30967 3.11602,-7.44378 8.1539,-20.73342 9.6802,-27.92957 1.49746,-7.06016 1.08324,-18.38649 1.67352,-21.517118 0.58443,-3.099632 2.72284,-12.44127 3.37923,-15.1734 C 200.27795,77.568128 198.09991,71.9266 197.78761,68.317816 197.23857,61.973496 193.93955,50.09696 191.952,44.561837 187.60438,32.454161 170.16234,13.611532 140.81965,12.260732 102.89297,10.514766 81.910506,48.985017 79.383105,63.295751 c -1.819386,10.301884 -1.871192,32.073919 0.681704,38.821179 1.734471,4.58418 15.851941,24.11688 15.876335,30.32165"
         id="path6904"
         inkscape:connector-curvature="0"
         sodipodi:nodetypes="cssssssssssssc" />
      <path
         inkscape:connector-curvature="0"
         style="display:inline;fill:#deaa87;stroke:none;stroke-width:2.15476322;stroke-linecap:round;stroke-linejoin:round"
         d="m 156.90575,125.04566 c -0.95265,4.10514 0.28584,5.2628 1.75976,6.92182 0.84142,0.94711 2.15655,1.85435 2.69948,2.97687 0.58501,-1.19045 2.28206,4.21221 4.27029,3.68717 1.07747,-3.79751 2.79585,-5.9568 4.83792,-6.21929 1.49238,-0.19183 2.31135,1.56804 2.83331,6.48534 0.0833,-3.20201 -0.24364,-5.28144 1.17247,-6.60108 1.22177,-1.13851 4.31521,-2.3605 4.81714,-2.67222 2.45102,-1.52215 1.92221,-1.4842 2.54008,-5.2132 -1.98678,4.59344 -7.66526,4.61785 -9.94367,3.21865 -3.87653,-0.9648 -10.41008,7.07135 -14.98678,-2.58406 z"
         id="path6906"
         sodipodi:nodetypes="ccccccccccc" />
      <path
         inkscape:connector-curvature="0"
         style="display:inline;fill:#e9c6af;stroke:none;stroke-width:2.15476322;stroke-linecap:round;stroke-linejoin:round"
         d="m 190.96321,122.13158 c -3.32172,9.54701 -6.06812,14.04899 -10.53368,22.20976 5.18361,0.34341 -4.23178,16.33544 -6.71268,20.99239 -1.16426,2.18546 -5.30217,5.55231 -9.00136,5.71815 -5.45788,0.2447 -13.38612,-6.09506 -16.61613,-12.36246 -1.88809,-3.66357 -5.49478,-8.30977 -5.74739,-14.13177 -0.42766,-9.85641 -9.92552,-18.78996 -12.01231,-31.89722 -0.36321,-2.28134 3.80415,-8.05959 5.90241,-7.41052 3.16956,0.98048 7.95314,5.24308 12.89008,5.88724 3.76416,0.49114 9.96215,-8.24157 12.96713,-7.81247 1.44683,2.49024 2.87891,0.42259 3.83284,-1.64069 1.0173,-2.200363 5.4466,-11.014648 2.89116,-14.271178 -2.11236,-2.691896 -2.40289,4.526778 -6.73118,3.454755 l -4.6965,-1.049993 c 2.38342,2.883926 -0.41646,7.958138 1.6944,9.225447 l -19.95171,0.453195 c -1.66955,-2.890695 -1.917,-7.655733 1.77361,-10.453331 l -7.1542,0.614207 c -8.92026,-6.654395 -17.69431,-24.004052 -18.90302,-29.11927 -4.57918,-19.379035 -0.96175,-34.995308 19.93807,-42.457927 14.84212,-5.29962 42.2312,3.406405 52.78524,21.229717 4.41512,7.456101 6.09695,16.152294 6.4253,26.866108 0.19486,6.358292 3.22153,10.58622 0.26397,15.26464 4.23692,1.875112 1.42017,7.611812 -0.0786,9.414933 l -13.49757,3.441213 c -0.77471,-1.139904 -1.8545,-1.400525 -1.56077,-5.6198 -3.57443,1.703975 -4.10482,6.502265 -4.36126,8.468262 -0.1435,1.100117 0.45638,7.070282 1.41944,9.520672 0.21025,-1.95159 1.28369,-6.23039 2.57248,-5.70807 2.0992,0.85074 4.53889,4.0398 7.42014,3.7554 2.47739,-0.24454 4.6304,-3.53299 5.26308,-1.6121 1.71364,5.20276 1.67013,12.84805 -0.48102,19.03071 z"
         id="path6908"
         sodipodi:nodetypes="ccssssssscssccccccssssccccsccsssc" />
      <path
         sodipodi:nodetypes="cccccc"
         inkscape:connector-curvature="0"
         style="display:inline;fill:#ffffff;stroke:none;stroke-width:2.15476322;stroke-linecap:round;stroke-linejoin:round"
         d="m 156.62152,96.176506 2.81702,3.38696 -10.5278,2.072064 -10.50558,-2.160364 5.34788,-1.750098 z"
         id="path6910" />
      <path
         sodipodi:nodetypes="cccccc"
         inkscape:connector-curvature="0"
         style="display:inline;fill:#ffffff;stroke:none;stroke-width:2.15476322;stroke-linecap:round;stroke-linejoin:round"
         d="m 180.04369,93.060717 12.52884,-2.687203 1.75791,0.721512 -6.46149,6.843301 -10.21367,-0.546246 z"
         id="path6912" />
      <path
         sodipodi:nodetypes="cssc"
         inkscape:connector-curvature="0"
         style="display:inline;fill:#ffffff;fill-opacity:1;stroke:#916f6f;stroke-width:2.15476322;stroke-linecap:round;stroke-linejoin:round;stroke-opacity:1"
         d="m 194.33044,91.095026 c -1.04105,2.475361 -3.12278,7.477694 -4.87338,8.141742 -1.08509,0.411604 -4.34923,1.076242 -5.89358,0.799562 -1.47077,-0.26351 -5.58087,-2.75934 -5.9082,-2.644249"
         id="path6914" />
      <path
         inkscape:connector-curvature="0"
         style="display:inline;fill:#2b0000;stroke:none;stroke-width:2.15476322;stroke-linecap:round;stroke-linejoin:round"
         d="m 191.92699,90.159328 c -0.23988,2.107917 -1.61983,6.437926 -4.63894,6.769598 -3.55284,0.390308 -4.62646,-2.96397 -4.54074,-5.304974 z"
         id="path6916" />
      <path
         inkscape:connector-curvature="0"
         style="display:inline;fill:#ffffff;fill-opacity:1;stroke:#916f6f;stroke-width:2.15476322;stroke-linecap:round;stroke-linejoin:round;stroke-opacity:1"
         d="m 159.43854,99.563466 c -1.84111,1.289764 -3.02059,3.962624 -5.1198,4.525334 -1.87604,0.50289 -7.10839,0.81668 -8.52478,0.64658 -1.6238,-0.19501 -5.50786,-3.87734 -7.3888,-5.260214"
         id="path6918"
         sodipodi:nodetypes="cssc" />
      <path
         inkscape:connector-curvature="0"
         style="display:inline;fill:#2b0000;stroke:none;stroke-width:2.15476322;stroke-linecap:round;stroke-linejoin:round"
         d="m 155.83731,96.309507 c -0.27091,2.299056 -0.65342,4.862023 -4.42725,5.516053 -3.76158,0.6519 -5.04437,-1.923398 -5.01691,-4.265819 z"
         id="path6920"
         sodipodi:nodetypes="cscc" />
      <path
         sodipodi:nodetypes="csssc"
         inkscape:connector-curvature="0"
         style="display:inline;fill:none;stroke:#000000;stroke-width:2.15476322;stroke-linecap:round;stroke-linejoin:round;stroke-opacity:1"
         d="m 176.96577,88.321546 c -0.81619,3.659309 -2.79327,9.69555 -2.46288,12.668924 0.30174,2.71549 4.90879,17.28175 5.59464,19.75357 1.05992,3.81999 -0.0867,6.37293 -1.46351,7.63418 -0.91045,0.83406 -3.79905,2.62534 -5.6979,5.15346"
         id="path6922" />
      <path
         sodipodi:nodetypes="cc"
         inkscape:connector-curvature="0"
         style="display:inline;fill:none;stroke:#000000;stroke-width:2.15476322;stroke-linecap:round;stroke-linejoin:round;stroke-opacity:1"
         d="m 171.07859,129.41371 c -2.1046,0.21553 -4.62958,1.51789 -7.05828,1.86821"
         id="path6924" />
      <path
         sodipodi:nodetypes="scsssssss"
         inkscape:connector-curvature="0"
         style="display:inline;fill:#000000;stroke:none;stroke-width:2.15476322;stroke-linecap:round;stroke-linejoin:round"
         d="m 171.93275,134.71219 c -3.24509,0.17033 -5.40876,-0.46687 -6.52143,-0.0261 -4.92943,1.95265 -13.63786,8.97873 -16.82767,11.36849 -1.98321,1.48578 -0.10112,7.48489 1.36069,7.22688 4.00798,-0.7074 12.19382,-4.72514 20.43053,-6.05033 8.26156,-1.32918 11.18074,-0.39651 12.68139,-0.94802 0.62966,-0.23142 3.49484,-5.29106 2.55833,-6.53541 -1.82231,-2.42133 -7.29762,-5.28873 -8.66058,-6.02114 -1.36296,-0.7324 -2.69988,0.86378 -5.02126,0.98562 z"
         id="path6926" />
      <path
         inkscape:connector-curvature="0"
         style="display:inline;fill:none;stroke:#000000;stroke-width:2.15476322;stroke-linecap:round;stroke-linejoin:round;stroke-opacity:1"
         d="m 168.82328,87.412812 c 0.87957,2.687686 -0.59737,4.950176 -1.18885,6.571727"
         id="path6928" />
      <path
         sodipodi:nodetypes="cscssc"
         inkscape:connector-curvature="0"
         style="display:inline;fill:#000000;stroke:none;stroke-width:2.15476322;stroke-linecap:round;stroke-linejoin:round"
         d="m 150.57808,90.707572 c -7.64839,-1.453549 -22.31386,0.590753 -20.61774,-0.870599 2.35691,-2.030673 14.15905,-1.488769 20.67328,-1.232838 2.32339,0.09134 7.45012,1.058123 9.8242,1.59237 3.17193,0.713785 7.34897,1.454719 4.0577,2.454772 -7.16106,2.175888 -9.64387,-1.06553 -13.93744,-1.943705 z"
         id="path6930" />
      <path
         inkscape:connector-curvature="0"
         style="display:inline;fill:#000000;stroke:none;stroke-width:2.15476322;stroke-linecap:round;stroke-linejoin:round"
         d="m 198.48727,80.263741 c 1.05495,-0.926289 -7.19744,1.332847 -8.99532,1.94356 -3.66959,1.246462 -14.00949,7.193016 -12.43423,7.809413 5.4932,2.149427 9.53357,-4.639636 13.49747,-6.353749 3.0894,-1.335956 7.18719,-2.745176 7.93208,-3.399224 z"
         id="path6932" />
      <path
         sodipodi:nodetypes="cc"
         inkscape:connector-curvature="0"
         style="display:inline;fill:none;stroke:#000000;stroke-width:2.15476322;stroke-linecap:round;stroke-linejoin:round;stroke-opacity:1"
         d="m 156.23862,124.87655 c -1.19052,2.87319 0.70768,4.94147 2.52077,6.22047"
         id="path6934" />
      <path
         sodipodi:nodetypes="cssc"
         inkscape:connector-curvature="0"
         style="display:inline;fill:none;stroke:#000000;stroke-width:2.15476322;stroke-linecap:round;stroke-linejoin:round;stroke-opacity:1"
         d="m 160.24679,100.55492 c -1.68478,-1.599945 -1.26721,-4.315823 -3.62527,-4.378414 -2.43975,-0.06473 -10.8905,1.125745 -12.86848,1.548562 -1.83647,0.392582 -5.66225,1.783962 -8.38397,2.673962"
         id="path6936" />
      <path
         sodipodi:nodetypes="cssc"
         inkscape:connector-curvature="0"
         style="display:inline;fill:none;stroke:#000000;stroke-width:2.15476322;stroke-linecap:round;stroke-linejoin:round;stroke-opacity:1"
         d="m 195.72409,91.827782 c -1.30991,-0.857786 -1.89983,-1.592866 -3.15156,-1.454268 -1.62443,0.179853 -10.36946,1.47224 -12.52884,2.687203 -1.07777,0.606401 -1.96213,3.886028 -3.40173,5.621283"
         id="path6938" />
      <path
         inkscape:connector-curvature="0"
         style="display:inline;fill:#deaa87;stroke:none;stroke-width:2.15476322;stroke-linecap:round;stroke-linejoin:round"
         d="m 172.96845,147.76938 c -2.92893,0.23283 -9.55399,1.29841 -14.43181,3.08331 -2.57,0.94041 3.76497,5.44333 7.98904,4.49646 3.52005,-0.78906 11.0526,-7.94621 6.44277,-7.57977 z"
         id="path6940" />
    </g>
    <g
       id="g2672"
       style="display:inline;stroke:#000000;stroke-width:2.11375403"
       transform="matrix(0.47309193,0,0,0.47309193,3.2898988,-26.07266)">
      <path
         style="display:inline;opacity:0.95;fill:#241c1c;stroke:#000000;stroke-width:2.11375403;stroke-linecap:round;stroke-linejoin:round"
         d="M 99.114664,103.42039 136.12989,91.761111 c 8.39932,-2.645668 9.28125,9.610419 13.29193,16.616549 2.02915,3.54466 -1.46482,8.66547 -4.81011,3.91116 -3.35019,-4.76126 -0.83041,-20.925111 -7.44426,-18.273709 l -36.65834,14.695829 z"
         id="path6942"
         inkscape:connector-curvature="0"
         sodipodi:nodetypes="csssscc" />
      <path
         style="display:inline;opacity:0.8;fill:#280b0b;stroke:#000000;stroke-width:2.11375403;stroke-linecap:round;stroke-linejoin:round"
         d="m 34.620162,92.133904 c 2.484331,-0.478765 17.557812,4.422904 19.15491,5.44017 2.297195,1.463191 1.345597,1.518216 4.850946,1.020446 8.711605,-1.237046 30.937146,2.29991 40.488646,4.82587 0.626189,1.13034 1.476216,3.94378 1.394446,5.29055 -6.694296,5.8859 -12.649466,7.54845 -18.733596,8.32284 -4.533013,0.57695 -15.384836,-6.48959 -18.17819,-8.5474 -1.544668,-1.13792 -5.887131,-1.96654 -6.765413,-1.32049 -1.932295,1.42131 -5.849552,6.13771 -9.301113,5.00495 -4.028013,-1.32195 -10.018392,-8.27416 -12.687134,-14.88594 -0.515006,-1.403183 -0.600896,-3.496111 -0.223502,-5.150996 z"
         id="path6944"
         inkscape:connector-curvature="0"
         sodipodi:nodetypes="cssccsssscc" />
    </g>
    <g
       id="g2653"
       transform="matrix(0.47309193,0,0,0.47309193,3.2898988,-26.07266)"
       style="display:inline;stroke-width:2.11375403">
      <path
         inkscape:connector-curvature="0"
         style="display:inline;fill:#deaa87;stroke:#000000;stroke-width:2.11375403;stroke-linecap:round;stroke-linejoin:round;stroke-opacity:1"
         d="m 133.80291,131.00634 c 2.13297,-3.79314 10.69516,-0.55505 14.41119,-8.25322 1.57056,-3.25361 2.54077,-6.48269 3.66142,-10.28264 1.27379,-4.31927 3.59299,-7.94502 3.50358,-13.075646 -0.177,-10.156995 -4.78882,-13.080596 -8.69852,-12.598249 -6.79403,0.838193 -8.92376,6.06747 -12.52338,9.68376"
         id="path6946"
         sodipodi:nodetypes="cccssc" />
      <path
         inkscape:connector-curvature="0"
         style="display:inline;fill:none;stroke:#000000;stroke-width:2.11375403;stroke-linecap:round;stroke-linejoin:round;stroke-opacity:1"
         d="m 145.15697,116.44627 c -3.21698,-0.66225 -4.59105,-6.06845 -6.17862,-9.29518 -1.50432,-3.05751 0.36622,-6.17658 1.0179,-8.530265 0.98576,-3.560198 6.02399,-8.297579 8.54376,-7.299525 2.50331,0.991536 2.90579,1.895184 3.43864,5.39318 0.88944,5.83884 -2.05383,16.5673 -5.90232,19.04987 -2.8242,1.82183 -5.60212,7.55039 -7.23198,6.01327 -1.59767,-1.50677 0.13316,-3.74638 0.22429,-5.45679 0.0549,-1.0305 -1.47757,-2.32582 -2.74643,-4.08864"
         id="path6948"
         sodipodi:nodetypes="csssssssc" />
    </g>
  </g>
  <g
     inkscape:label="枠面"
     inkscape:groupmode="layer"
     id="layer1"
     transform="translate(0,-978.36218)"
     style="display:inline"
     sodipodi:insensitive="true">
    <path
       style="fill:#ffffff;stroke:none;display:inline;enable-background:new"
       d="m 0,978.3622 0,74 96,0 0,-74 -10,10 0,54 -76,0 0,-54 76,0 10,-10 z"
       id="path21072"
       inkscape:connector-curvature="0"
       sodipodi:nodetypes="ccccccccccc" />
  </g>
</svg>
