<?xml version="1.0" encoding="UTF-8" standalone="no"?>
<!-- Created with Inkscape (http://www.inkscape.org/) -->

<svg
   xmlns:dc="http://purl.org/dc/elements/1.1/"
   xmlns:cc="http://creativecommons.org/ns#"
   xmlns:rdf="http://www.w3.org/1999/02/22-rdf-syntax-ns#"
   xmlns:svg="http://www.w3.org/2000/svg"
   xmlns="http://www.w3.org/2000/svg"
   xmlns:sodipodi="http://sodipodi.sourceforge.net/DTD/sodipodi-0.dtd"
   xmlns:inkscape="http://www.inkscape.org/namespaces/inkscape"
   width="370"
   height="320"
   id="svg2"
   version="1.1"
   inkscape:version="0.92.3 (2405546, 2018-03-11)"
   sodipodi:docname="[01]考察.svg"
   inkscape:export-filename="C:\Users\zhen-\Desktop\資料\臨時\HOSHI\01.png"
   inkscape:export-xdpi="96"
   inkscape:export-ydpi="96"
   enable-background="new">
  <defs
     id="defs4">
    <inkscape:perspective
       sodipodi:type="inkscape:persp3d"
       inkscape:vp_x="363.49708 : 943.81603 : 1"
       inkscape:vp_y="0 : 1000 : 0"
       inkscape:vp_z="744.09448 : 526.18109 : 1"
       inkscape:persp3d-origin="372.04724 : 350.78739 : 1"
       id="perspective5056" />
    <inkscape:perspective
       id="perspective5056-8"
       inkscape:persp3d-origin="372.04724 : 350.78739 : 1"
       inkscape:vp_z="744.09448 : 526.18109 : 1"
       inkscape:vp_y="0 : 1000 : 0"
       inkscape:vp_x="363.49708 : 943.81603 : 1"
       sodipodi:type="inkscape:persp3d" />
    <inkscape:perspective
       id="perspective5056-5"
       inkscape:persp3d-origin="372.04724 : 350.78739 : 1"
       inkscape:vp_z="744.09448 : 526.18109 : 1"
       inkscape:vp_y="0 : 1000 : 0"
       inkscape:vp_x="363.49708 : 943.81603 : 1"
       sodipodi:type="inkscape:persp3d" />
    <inkscape:perspective
       sodipodi:type="inkscape:persp3d"
       inkscape:vp_x="363.49708 : 943.81603 : 1"
       inkscape:vp_y="0 : 1000 : 0"
       inkscape:vp_z="744.09448 : 526.18109 : 1"
       inkscape:persp3d-origin="372.04724 : 350.78739 : 1"
       id="perspective5056-5-2" />
    <inkscape:perspective
       sodipodi:type="inkscape:persp3d"
       inkscape:vp_x="363.49708 : 943.81603 : 1"
       inkscape:vp_y="0 : 1000 : 0"
       inkscape:vp_z="744.09448 : 526.18109 : 1"
       inkscape:persp3d-origin="372.04724 : 350.78739 : 1"
       id="perspective5056-8-5" />
    <inkscape:perspective
       id="perspective5056-1"
       inkscape:persp3d-origin="372.04724 : 350.78739 : 1"
       inkscape:vp_z="744.09448 : 526.18109 : 1"
       inkscape:vp_y="0 : 1000 : 0"
       inkscape:vp_x="363.49708 : 943.81603 : 1"
       sodipodi:type="inkscape:persp3d" />
    <inkscape:perspective
       sodipodi:type="inkscape:persp3d"
       inkscape:vp_x="363.49708 : 943.81603 : 1"
       inkscape:vp_y="0 : 1000 : 0"
       inkscape:vp_z="744.09448 : 526.18109 : 1"
       inkscape:persp3d-origin="372.04724 : 350.78739 : 1"
       id="perspective5056-5-5" />
    <inkscape:perspective
       id="perspective5056-4"
       inkscape:persp3d-origin="372.04724 : 350.78739 : 1"
       inkscape:vp_z="744.09448 : 526.18109 : 1"
       inkscape:vp_y="0 : 1000 : 0"
       inkscape:vp_x="363.49708 : 943.81603 : 1"
       sodipodi:type="inkscape:persp3d" />
    <inkscape:perspective
       sodipodi:type="inkscape:persp3d"
       inkscape:vp_x="363.49708 : 943.81603 : 1"
       inkscape:vp_y="0 : 1000 : 0"
       inkscape:vp_z="744.09448 : 526.18109 : 1"
       inkscape:persp3d-origin="372.04724 : 350.78739 : 1"
       id="perspective5056-1-2" />
    <inkscape:perspective
       id="perspective5056-8-5-8"
       inkscape:persp3d-origin="372.04724 : 350.78739 : 1"
       inkscape:vp_z="744.09448 : 526.18109 : 1"
       inkscape:vp_y="0 : 1000 : 0"
       inkscape:vp_x="363.49708 : 943.81603 : 1"
       sodipodi:type="inkscape:persp3d" />
    <inkscape:perspective
       id="perspective5056-5-2-8"
       inkscape:persp3d-origin="372.04724 : 350.78739 : 1"
       inkscape:vp_z="744.09448 : 526.18109 : 1"
       inkscape:vp_y="0 : 1000 : 0"
       inkscape:vp_x="363.49708 : 943.81603 : 1"
       sodipodi:type="inkscape:persp3d" />
    <inkscape:perspective
       sodipodi:type="inkscape:persp3d"
       inkscape:vp_x="363.49708 : 943.81603 : 1"
       inkscape:vp_y="0 : 1000 : 0"
       inkscape:vp_z="744.09448 : 526.18109 : 1"
       inkscape:persp3d-origin="372.04724 : 350.78739 : 1"
       id="perspective5056-5-4" />
    <inkscape:perspective
       sodipodi:type="inkscape:persp3d"
       inkscape:vp_x="363.49708 : 943.81603 : 1"
       inkscape:vp_y="0 : 1000 : 0"
       inkscape:vp_z="744.09448 : 526.18109 : 1"
       inkscape:persp3d-origin="372.04724 : 350.78739 : 1"
       id="perspective5056-8-9" />
    <inkscape:perspective
       id="perspective5056-40"
       inkscape:persp3d-origin="372.04724 : 350.78739 : 1"
       inkscape:vp_z="744.09448 : 526.18109 : 1"
       inkscape:vp_y="0 : 1000 : 0"
       inkscape:vp_x="363.49708 : 943.81603 : 1"
       sodipodi:type="inkscape:persp3d" />
    <inkscape:perspective
       sodipodi:type="inkscape:persp3d"
       inkscape:vp_x="363.49708 : 943.81603 : 1"
       inkscape:vp_y="0 : 1000 : 0"
       inkscape:vp_z="744.09448 : 526.18109 : 1"
       inkscape:persp3d-origin="372.04724 : 350.78739 : 1"
       id="perspective5056-1-5" />
    <inkscape:perspective
       id="perspective5056-8-5-4"
       inkscape:persp3d-origin="372.04724 : 350.78739 : 1"
       inkscape:vp_z="744.09448 : 526.18109 : 1"
       inkscape:vp_y="0 : 1000 : 0"
       inkscape:vp_x="363.49708 : 943.81603 : 1"
       sodipodi:type="inkscape:persp3d" />
    <inkscape:perspective
       id="perspective5056-5-2-82"
       inkscape:persp3d-origin="372.04724 : 350.78739 : 1"
       inkscape:vp_z="744.09448 : 526.18109 : 1"
       inkscape:vp_y="0 : 1000 : 0"
       inkscape:vp_x="363.49708 : 943.81603 : 1"
       sodipodi:type="inkscape:persp3d" />
    <inkscape:perspective
       sodipodi:type="inkscape:persp3d"
       inkscape:vp_x="363.49708 : 943.81603 : 1"
       inkscape:vp_y="0 : 1000 : 0"
       inkscape:vp_z="744.09448 : 526.18109 : 1"
       inkscape:persp3d-origin="372.04724 : 350.78739 : 1"
       id="perspective5056-5-8" />
    <inkscape:perspective
       sodipodi:type="inkscape:persp3d"
       inkscape:vp_x="363.49708 : 943.81603 : 1"
       inkscape:vp_y="0 : 1000 : 0"
       inkscape:vp_z="744.09448 : 526.18109 : 1"
       inkscape:persp3d-origin="372.04724 : 350.78739 : 1"
       id="perspective5056-8-4" />
    <inkscape:perspective
       id="perspective5056-409"
       inkscape:persp3d-origin="372.04724 : 350.78739 : 1"
       inkscape:vp_z="744.09448 : 526.18109 : 1"
       inkscape:vp_y="0 : 1000 : 0"
       inkscape:vp_x="363.49708 : 943.81603 : 1"
       sodipodi:type="inkscape:persp3d" />
    <inkscape:perspective
       sodipodi:type="inkscape:persp3d"
       inkscape:vp_x="363.49708 : 943.81603 : 1"
       inkscape:vp_y="0 : 1000 : 0"
       inkscape:vp_z="744.09448 : 526.18109 : 1"
       inkscape:persp3d-origin="372.04724 : 350.78739 : 1"
       id="perspective5056-1-7" />
    <inkscape:perspective
       id="perspective5056-8-5-2"
       inkscape:persp3d-origin="372.04724 : 350.78739 : 1"
       inkscape:vp_z="744.09448 : 526.18109 : 1"
       inkscape:vp_y="0 : 1000 : 0"
       inkscape:vp_x="363.49708 : 943.81603 : 1"
       sodipodi:type="inkscape:persp3d" />
    <inkscape:perspective
       id="perspective5056-5-2-89"
       inkscape:persp3d-origin="372.04724 : 350.78739 : 1"
       inkscape:vp_z="744.09448 : 526.18109 : 1"
       inkscape:vp_y="0 : 1000 : 0"
       inkscape:vp_x="363.49708 : 943.81603 : 1"
       sodipodi:type="inkscape:persp3d" />
    <inkscape:perspective
       sodipodi:type="inkscape:persp3d"
       inkscape:vp_x="363.49708 : 943.81603 : 1"
       inkscape:vp_y="0 : 1000 : 0"
       inkscape:vp_z="744.09448 : 526.18109 : 1"
       inkscape:persp3d-origin="372.04724 : 350.78739 : 1"
       id="perspective5056-5-1" />
    <inkscape:perspective
       sodipodi:type="inkscape:persp3d"
       inkscape:vp_x="363.49708 : 943.81603 : 1"
       inkscape:vp_y="0 : 1000 : 0"
       inkscape:vp_z="744.09448 : 526.18109 : 1"
       inkscape:persp3d-origin="372.04724 : 350.78739 : 1"
       id="perspective5056-8-6" />
    <inkscape:perspective
       id="perspective5056-7"
       inkscape:persp3d-origin="372.04724 : 350.78739 : 1"
       inkscape:vp_z="744.09448 : 526.18109 : 1"
       inkscape:vp_y="0 : 1000 : 0"
       inkscape:vp_x="363.49708 : 943.81603 : 1"
       sodipodi:type="inkscape:persp3d" />
    <inkscape:perspective
       sodipodi:type="inkscape:persp3d"
       inkscape:vp_x="363.49708 : 943.81603 : 1"
       inkscape:vp_y="0 : 1000 : 0"
       inkscape:vp_z="744.09448 : 526.18109 : 1"
       inkscape:persp3d-origin="372.04724 : 350.78739 : 1"
       id="perspective5056-1-1" />
    <inkscape:perspective
       id="perspective5056-8-5-82"
       inkscape:persp3d-origin="372.04724 : 350.78739 : 1"
       inkscape:vp_z="744.09448 : 526.18109 : 1"
       inkscape:vp_y="0 : 1000 : 0"
       inkscape:vp_x="363.49708 : 943.81603 : 1"
       sodipodi:type="inkscape:persp3d" />
    <inkscape:perspective
       id="perspective5056-5-2-1"
       inkscape:persp3d-origin="372.04724 : 350.78739 : 1"
       inkscape:vp_z="744.09448 : 526.18109 : 1"
       inkscape:vp_y="0 : 1000 : 0"
       inkscape:vp_x="363.49708 : 943.81603 : 1"
       sodipodi:type="inkscape:persp3d" />
    <inkscape:perspective
       sodipodi:type="inkscape:persp3d"
       inkscape:vp_x="363.49708 : 943.81603 : 1"
       inkscape:vp_y="0 : 1000 : 0"
       inkscape:vp_z="744.09448 : 526.18109 : 1"
       inkscape:persp3d-origin="372.04724 : 350.78739 : 1"
       id="perspective5056-5-46" />
    <inkscape:perspective
       sodipodi:type="inkscape:persp3d"
       inkscape:vp_x="363.49708 : 943.81603 : 1"
       inkscape:vp_y="0 : 1000 : 0"
       inkscape:vp_z="744.09448 : 526.18109 : 1"
       inkscape:persp3d-origin="372.04724 : 350.78739 : 1"
       id="perspective5056-8-92" />
    <inkscape:perspective
       id="perspective5056-3"
       inkscape:persp3d-origin="372.04724 : 350.78739 : 1"
       inkscape:vp_z="744.09448 : 526.18109 : 1"
       inkscape:vp_y="0 : 1000 : 0"
       inkscape:vp_x="363.49708 : 943.81603 : 1"
       sodipodi:type="inkscape:persp3d" />
  </defs>
  <sodipodi:namedview
     id="base"
     pagecolor="#ffffff"
     bordercolor="#666666"
     borderopacity="1.0"
     inkscape:pageopacity="0.0"
     inkscape:pageshadow="2"
     inkscape:zoom="1"
     inkscape:cx="-48.545184"
     inkscape:cy="313.50997"
     inkscape:document-units="px"
     inkscape:current-layer="g6950"
     showgrid="false"
     inkscape:window-width="1755"
     inkscape:window-height="988"
     inkscape:window-x="-6"
     inkscape:window-y="-1"
     inkscape:window-maximized="0"
     showguides="true"
     inkscape:guide-bbox="true"
     inkscape:snap-grids="false"
     inkscape:snap-to-guides="false"
     showborder="true"
     inkscape:showpageshadow="false"
     fit-margin-top="0"
     fit-margin-left="0"
     fit-margin-right="0"
     fit-margin-bottom="0"
     inkscape:snap-page="false"
     inkscape:snap-global="false" />
  <metadata
     id="metadata7">
    <rdf:RDF>
      <cc:Work
         rdf:about="">
        <dc:format>image/svg+xml</dc:format>
        <dc:type
           rdf:resource="http://purl.org/dc/dcmitype/StillImage" />
        <dc:title />
      </cc:Work>
    </rdf:RDF>
  </metadata>
  <g
     inkscape:groupmode="layer"
     id="layer2"
     inkscape:label="補助線"
     style="display:none"
     sodipodi:insensitive="true">
    <path
       style="fill:none;stroke:#0000ff;stroke-width:1px;stroke-linecap:butt;stroke-linejoin:miter;stroke-opacity:1"
       d="M 10,310 360,10"
       id="path3025"
       inkscape:connector-curvature="0"
       sodipodi:nodetypes="cc" />
    <path
       style="fill:none;stroke:#0000ff;stroke-width:1px;stroke-linecap:butt;stroke-linejoin:miter;stroke-opacity:1"
       d="M 10,10 360,310"
       id="path3027"
       inkscape:connector-curvature="0"
       sodipodi:nodetypes="cc" />
    <path
       style="display:inline;fill:none;stroke:#ff0000;stroke-width:1px;stroke-linecap:butt;stroke-linejoin:miter;stroke-opacity:1"
       d="M 10,0 V 320"
       id="path3006"
       inkscape:connector-curvature="0"
       sodipodi:nodetypes="cc" />
    <path
       style="display:inline;fill:none;stroke:#ff0000;stroke-width:1px;stroke-linecap:butt;stroke-linejoin:miter;stroke-opacity:1"
       d="M 360,0 V 320"
       id="path3010"
       inkscape:connector-curvature="0"
       sodipodi:nodetypes="cc" />
    <path
       style="display:inline;fill:none;stroke:#ff0000;stroke-width:1px;stroke-linecap:butt;stroke-linejoin:miter;stroke-opacity:1"
       d="M 0,9.9999681 370,10"
       id="path3016"
       inkscape:connector-curvature="0" />
    <path
       transform="translate(84.715796,27.711696)"
       style="display:inline;fill:none;stroke:#ff0000;stroke-width:1px;stroke-linecap:butt;stroke-linejoin:miter;stroke-opacity:1"
       d="M -84.715796,282.2883 H 285.2842"
       id="path3018"
       inkscape:connector-curvature="0"
       sodipodi:nodetypes="cc" />
  </g>
  <g
     inkscape:groupmode="layer"
     id="layer4"
     inkscape:label="吹き出し"
     sodipodi:insensitive="true">
    <path
       style="display:inline;opacity:1;fill:#fefefe;fill-opacity:1;stroke:#000000;stroke-width:1.5;stroke-linecap:round;stroke-linejoin:round;stroke-miterlimit:4;stroke-dasharray:none;stroke-dashoffset:0;stroke-opacity:1"
       d="m 285.87226,300.74657 c -40.06787,0 -72.54929,-60.11384 -72.54929,-134.26806 0,-11.04367 -16.99868,-33.55706 -32.82862,-33.90484 16.96708,-10.56263 37.39018,-13.74205 39.16574,-21.05713 11.34733,-46.749726 36.72542,-79.306075 66.21217,-79.306075 40.06784,0 72.54924,60.113853 72.54924,134.268045 0,74.15422 -32.4814,134.26806 -72.54924,134.26806 z"
       id="path7611"
       inkscape:connector-curvature="0"
       sodipodi:nodetypes="sscssss" />
    <text
       xml:space="preserve"
       style="font-style:normal;font-variant:normal;font-weight:normal;font-stretch:normal;font-size:32.42362976px;line-height:1;font-family:HGMinchoB;-inkscape-font-specification:HGMinchoB;letter-spacing:0px;word-spacing:0px;display:inline;fill:#000000;fill-opacity:1;stroke:none;stroke-width:2.27978611;stroke-linecap:round"
       x="252.28458"
       y="89.818001"
       id="text7607"><tspan
         sodipodi:role="line"
         x="252.28458"
         y="89.818001"
         id="tspan8675"
         style="line-height:1;stroke-width:2.27978611">必先</tspan><tspan
         sodipodi:role="line"
         x="252.28458"
         y="124.57758"
         style="line-height:1;stroke-width:2.27978611"
         id="tspan217">死方</tspan><tspan
         sodipodi:role="line"
         x="252.28458"
         y="159.33716"
         style="line-height:1;stroke-width:2.27978611"
         id="tspan219">のも</tspan><tspan
         sodipodi:role="line"
         x="252.28458"
         y="194.09674"
         style="line-height:1;stroke-width:2.27978611"
         id="tspan221">よ</tspan><tspan
         sodipodi:role="line"
         x="252.28458"
         y="228.85632"
         style="line-height:1;stroke-width:2.27978611"
         id="tspan223">う</tspan><tspan
         sodipodi:role="line"
         x="252.28458"
         y="263.61591"
         style="line-height:1;stroke-width:2.27978611"
         id="tspan227">だ</tspan></text>
    <text
       xml:space="preserve"
       style="font-style:normal;font-variant:normal;font-weight:normal;font-stretch:normal;font-size:30.28827477px;line-height:1.25;font-family:HGMinchoB;-inkscape-font-specification:HGMinchoB;letter-spacing:0px;word-spacing:0px;fill:#000000;fill-opacity:1;stroke:none;stroke-width:1.41976285"
       x="270.37613"
       y="279.14392"
       id="text233"><tspan
         sodipodi:role="line"
         id="tspan231"
         x="270.37613"
         y="279.14392"
         style="stroke-width:1.41976285">。</tspan></text>
  </g>
  <g
     inkscape:groupmode="layer"
     id="layer6"
     inkscape:label="豚.old.01"
     style="display:none"
     sodipodi:insensitive="true">
    <path
       style="display:inline;fill:#dbdee3;stroke:none"
       d="M 62.245613,177.57375 134.78849,195.09459 41.873981,331.48825 Z"
       id="path4684-5-4"
       inkscape:connector-curvature="0" />
    <path
       style="display:inline;fill:#deaa87;stroke:none"
       d="m 77.771604,144.24705 -25.461671,45.16135 77.198497,17.88587 15.15293,-56.26852 c -0.77391,-16.35147 -51.877286,-19.45172 -66.889756,-6.7787 z"
       id="path56599"
       inkscape:connector-curvature="0"
       sodipodi:nodetypes="ccccc" />
    <path
       style="display:inline;fill:#550000;stroke:#000000;stroke-width:1.5;stroke-linecap:butt;stroke-linejoin:miter;stroke-opacity:1"
       d="m 70.579763,216.54606 c -11.56796,37.27632 -12.95186,73.14171 -21.05954,106.83717 l 15.41208,29.58612 15.292561,-23.90744 c 0.53514,-35.59356 -2.70611,-69.7977 0.65972,-112.45814 z"
       id="path6770-0-7"
       inkscape:connector-curvature="0"
       sodipodi:nodetypes="cccccc" />
    <path
       style="display:inline;fill:#550000;stroke:#000000;stroke-width:1.5;stroke-linecap:butt;stroke-linejoin:miter;stroke-opacity:1"
       d="m 72.248093,187.72848 c 3.9367,1.85391 8.819671,3.04534 21.141061,3.26676 l 0.88934,8.81786 c -3.08407,7.08893 -10.22381,14.66737 -13.97727,19.30487 -3.297391,0.009 -7.298871,-0.40487 -9.851991,-2.16644 -0.51698,-5.51837 -4.8778,-13.2119 -4.07944,-18.39344 z"
       id="path6768-9-1"
       inkscape:connector-curvature="0"
       sodipodi:nodetypes="ccccccc" />
    <path
       sodipodi:nodetypes="ccccssccccc"
       style="display:inline;fill:#dbdbe3;stroke:#000000;stroke-width:1.5;stroke-linecap:butt;stroke-linejoin:miter;stroke-opacity:1"
       d="m 80.893724,141.25027 c -4.579861,4.17976 -8.401421,5.37565 -10.843471,12.50592 -8.50014,24.268 -10.35092,49.05321 -10.52934,61.88616 4.67867,-8.82104 9.56237,-26.81016 16.87146,-27.62181 -6.09852,-11.61512 -7.87164,-39.12774 5.377491,-46.27481 18.525386,-9.99329 54.985116,-8.33867 59.322886,3.87232 2.7636,7.77964 -23.45644,31.8996 -61.311156,43.48804 8.02207,8.27416 12.42137,18.23677 20.243146,32.2692 24.67083,-29.78602 34.14411,-39.04722 45.35376,-60.54232 -1.7231,-5.59457 -0.18474,-8.43944 -2.48013,-15.71878 -8.99063,-14.89762 -42.5603,-13.34974 -62.004646,-3.86392 z"
       id="path6762-7-7"
       inkscape:connector-curvature="0" />
    <path
       sodipodi:nodetypes="cssscssscc"
       style="display:inline;fill:#1c1f24;stroke:#000000;stroke-width:1.5;stroke-linecap:butt;stroke-linejoin:miter;stroke-opacity:1"
       d="m 77.181913,144.34522 c -15.70238,17.477 -23.53132,86.21721 -14.01203,181.44606 0.73913,7.39406 -0.23522,72.5486 2.1836,107.25085 0.33583,4.81808 -5.22865,13.1758 -12.32373,16.65754 -5.41392,2.65675 -11.287913,-2.30483 -28.515263,-20.7786 -0.0522,-46.19456 7.222618,-106.14446 3.729218,-121.51311 -7.75075,-34.09818 -16.460939,-89.91653 -15.519292,-110.00772 0.885412,-18.89134 3.647715,-30.6017 13.864995,-35.45526 8.77142,-4.16672 36.297912,-11.59269 42.446412,-12.47533 2.15905,-1.03285 6.79156,-4.72961 8.14609,-5.12443 z"
       id="path6764-3-7"
       inkscape:connector-curvature="0" />
    <path
       style="display:inline;fill:#1c1f24;stroke:#000000;stroke-width:1.5;stroke-linecap:butt;stroke-linejoin:miter;stroke-opacity:1"
       d="m 49.148423,208.99654 -6.845122,-18.76497 c 6.633902,-6.32136 21.807922,-30.77731 26.897152,-40.83828"
       id="path56584"
       inkscape:connector-curvature="0"
       sodipodi:nodetypes="ccc" />
    <path
       style="display:inline;fill:none;stroke:#000000;stroke-width:1.5;stroke-linecap:butt;stroke-linejoin:miter;stroke-opacity:1"
       d="m 60.822633,204.49084 -22.73302,9.17905 c 4.58714,35.17001 14.5552,76.72232 22.30283,111.83307"
       id="path6766-7-7"
       inkscape:connector-curvature="0"
       sodipodi:nodetypes="ccc" />
    <path
       sodipodi:nodetypes="ccccssssccsssc"
       style="display:inline;fill:#1c1f24;stroke:#000000;stroke-width:1.5;stroke-linecap:butt;stroke-linejoin:miter;stroke-opacity:1"
       d="m 185.71483,424.62514 c -6.24364,7.06274 -5.1108,3.80356 -11.60866,8.73644 -2.59459,-10.99285 -3.62173,-23.76414 -6.78165,-32.37423 0.38488,10.90521 0.11553,35.59457 -0.90355,35.78403 -27.3144,19.78305 -87.542396,19.72837 -92.542757,19.91303 -6.6551,0.24577 -11.94935,-6.78345 -13.07417,-16.4872 -4.41959,-38.12741 -2.49329,-102.67594 -1.1937,-106.40426 6.88615,-19.75534 19.507531,-64.26223 31.110981,-92.23101 16.125596,-38.86888 55.818806,-78.39693 53.102316,-93.79295 2.82567,0.98028 5.49188,9.62031 8.28365,14.08024 14.71981,9.47152 43.79158,26.86088 51.32243,35.0228 9.47617,10.27025 3.2357,28.51548 1.22289,44.06709 -2.57474,19.89321 -24.75742,57.07905 -26.72183,85.00412 -1.69417,24.08335 9.66662,67.1494 7.78405,98.6819 z"
       id="path56564"
       inkscape:connector-curvature="0" />
    <path
       sodipodi:nodetypes="ccc"
       style="display:inline;fill:#1c1f24;stroke:#000000;stroke-width:1.5;stroke-linecap:butt;stroke-linejoin:miter;stroke-opacity:1"
       d="m 152.10729,161.84923 c -6.99485,4.65006 -17.16459,40.12371 -18.39726,58.79005 l -19.29387,5.43437"
       id="path6653-3-9"
       inkscape:connector-curvature="0" />
    <path
       sodipodi:nodetypes="ccc"
       style="display:inline;fill:none;stroke:#000000;stroke-width:1.5;stroke-linecap:butt;stroke-linejoin:miter;stroke-opacity:1"
       d="m 104.71473,216.27631 21.3594,21.56871 c -18.05762,17.1885 -50.098317,67.12678 -63.605667,94.45283"
       id="path6655-8-9"
       inkscape:connector-curvature="0" />
    <path
       sodipodi:nodetypes="sssccs"
       style="display:inline;fill:#1c1f24;stroke:#000000;stroke-width:1.5;stroke-linecap:butt;stroke-linejoin:miter;stroke-opacity:1"
       d="m 164.34138,261.06578 c 1.0833,-20.76466 11.95798,-53.46283 27.76627,-61.5023 17.08916,-8.69087 25.21624,18.29336 22.88274,40.32358 -1.80234,17.01566 7.63685,81.201 2.5833,107.36139 l -36.26152,27.71821 c -3.63635,-30.24572 -18.95034,-75.95691 -16.97079,-113.90088 z"
       id="path6661-0-8"
       inkscape:connector-curvature="0" />
    <path
       style="display:inline;fill:#deaa87;stroke:#000000;stroke-width:1.5;stroke-linecap:round;stroke-linejoin:miter;stroke-opacity:1"
       d="m 141.03613,146.67898 c -1.1827,-7.91674 0.13847,-8.13414 0.16147,-13.97465 l -25.69878,-19.50256 -51.122047,32.49985 c 2.1785,13.25133 7.86058,15.52836 10.053,31.1801"
       id="path6635-6-5"
       inkscape:connector-curvature="0"
       sodipodi:nodetypes="ccccc" />
    <path
       style="display:inline;fill:#deaa87;stroke:#000000;stroke-width:1.5;stroke-linecap:round;stroke-linejoin:miter;stroke-opacity:1"
       d="m 131.80257,132.62579 c -0.92491,5.72909 -3.58691,12.67195 -4.01268,14.19868 -1.44995,5.19917 -30.798946,24.052 -44.800236,29.54134 -9.131491,3.5801 -15.516171,1.97851 -21.411191,-2.65803 -2.68895,-2.11491 -7.62949,-11.2647 -8.90596,-14.48332 -1.74516,-4.40037 -10.101132,-22.52383 -12.052782,-31.72539 -1.46896,-6.92579 -0.79117,-19.83466 -1.37022,-22.90571 -0.57331,-3.04064 -2.238,-11.399194 -3.3094,-13.938844 -1.1678,-2.768167 -0.51865,-10.393316 -0.2123,-13.933418 0.53859,-6.223576 5.501657,-20.011648 6.897467,-25.609472 3.115825,-12.495963 17.589295,-31.785147 52.998536,-32.235239 37.241266,-0.473379 56.027876,36.632296 58.507176,50.67067 1.78476,10.10582 2.33558,34.213493 -0.16873,40.832343 -1.70146,4.49693 -13.54013,19.65789 -13.56406,25.74457"
       id="path56903"
       inkscape:connector-curvature="0"
       sodipodi:nodetypes="cssssssssssssc" />
    <path
       inkscape:connector-curvature="0"
       style="display:inline;fill:#deaa87;stroke:none;stroke-width:1.5;stroke-linecap:round"
       d="m 77.593854,131.37175 c 0.93452,4.02701 -0.280401,5.16264 -1.726271,6.79009 -0.8254,0.92908 -2.1155,1.81905 -2.6481,2.92021 -0.57388,-1.16779 -2.23863,4.13204 -4.18902,3.617 -1.05696,-3.72524 -2.74264,-5.84343 -4.74585,-6.10093 -1.46397,-0.18818 -2.26736,1.5382 -2.77938,6.36191 -0.0817,-3.14107 0.239,-5.18092 -1.15016,-6.47545 -1.19852,-1.11684 -4.23308,-2.31557 -4.72546,-2.62136 -2.40437,-1.49318 -1.88563,-1.45595 -2.49174,-5.11398 1.94897,4.50602 7.51938,4.52996 9.75443,3.15739 3.80275,-0.94644 10.21195,6.93677 14.701551,-2.53488 z"
       id="path60112"
       sodipodi:nodetypes="ccccccccccc" />
    <path
       inkscape:connector-curvature="0"
       style="display:inline;fill:#e9c6af;stroke:none;stroke-width:1.5;stroke-linecap:round;stroke-linejoin:round"
       d="m 45.507793,130.97544 c 3.2585,9.36531 4.00441,11.3193 8.38498,19.32476 -5.08495,0.33687 4.77624,16.02454 7.20993,20.59286 1.1421,2.14387 5.20126,5.44664 8.83004,5.60933 5.35401,0.24004 13.131361,-5.97906 16.299901,-12.12718 1.85215,-3.59385 5.3902,-8.15162 5.638,-13.86282 0.41953,-9.66882 9.736626,-18.43235 11.783696,-31.29016 0.3563,-2.23792 -3.731746,-7.9062 -5.790076,-7.26948 -3.10924,0.96182 -9.03921,5.67362 -13.88219,6.30553 -3.69252,0.48179 -8.535121,-8.61505 -11.482911,-8.19412 -1.41929,2.44285 -2.82412,0.41455 -3.75989,-1.60946 -0.99794,-2.15849 -2.5773,-9.94714 -2.83614,-13.999575 2.66784,3.003475 0.91966,4.690625 5.85308,3.201505 l 5.35711,-0.84251 c -2.33806,2.82904 0.408541,7.80668 -1.66215,9.04987 l 19.571991,0.44457 c 1.63778,-2.83568 1.88052,-7.51003 -1.73985,-10.254385 l 7.018036,0.602518 c 8.75049,-6.52775 17.28872,-23.563978 18.54326,-28.565076 5.15942,-20.567458 11.90114,-43.04994 -14.72093,-47.621434 -15.236946,-2.616461 -42.504647,2.48387 -56.128147,21.474012 -8.095683,11.284789 -10.063766,38.215998 -7.052129,46.652145 -4.156283,1.839425 -1.393143,7.466945 0.07707,9.23575 l 13.240689,3.37572 c 0.75997,-1.11821 1.81921,-1.37387 1.53107,-5.512845 3.5064,1.671545 4.02669,6.378515 4.27825,8.307095 0.14077,1.07918 -0.44769,6.93572 -1.39242,9.33948 -0.20625,-1.91445 -1.25926,-6.11182 -2.52352,-5.59944 -2.05925,0.83455 -5.51317,3.96292 -8.33958,3.68393 -2.43024,-0.23989 -3.126932,-3.30903 -4.102259,-1.58142 -3.979122,7.04828 -0.315119,15.06584 1.795089,21.13083 z"
       id="path3438-5-7"
       sodipodi:nodetypes="scssssssscscccccccsssccccsccsss" />
    <path
       sodipodi:nodetypes="cccccc"
       inkscape:connector-curvature="0"
       style="display:inline;fill:#ffffff;stroke:none;stroke-width:1.5;stroke-linecap:round"
       d="m 77.872674,103.05203 -2.677471,3.40062 10.241501,1.95451 9.92999,-2.01981 -4.87045,-1.81623 z"
       id="path3337-0-4-6" />
    <path
       sodipodi:nodetypes="cccccc"
       inkscape:connector-curvature="0"
       style="display:inline;fill:#ffffff;stroke:none;stroke-width:1.5;stroke-linecap:round"
       d="m 54.896273,99.99554 -12.290392,-2.63606 -1.72446,0.70778 6.338522,6.71306 10.01928,-0.53585 z"
       id="path3353-4-1-9" />
    <path
       sodipodi:nodetypes="cssc"
       inkscape:connector-curvature="0"
       style="display:inline;fill:#ffffff;fill-opacity:1;stroke:#916f6f;stroke-width:1.5;stroke-linecap:round;stroke-linejoin:miter;stroke-opacity:1"
       d="m 40.881421,98.06726 c 1.02124,2.42825 3.06335,7.33538 4.780632,7.98679 1.06444,0.40377 4.26646,1.05576 5.78142,0.78434 1.44278,-0.25849 5.47465,-2.70682 5.79575,-2.59392"
       id="path3355-7-6" />
    <path
       inkscape:connector-curvature="0"
       style="display:inline;fill:#2b0000;stroke:none;stroke-width:1.5;stroke-linecap:round"
       d="m 43.239131,97.14937 c 0.23532,2.0678 1.589,6.3154 4.550652,6.64076 3.48523,0.38288 4.53841,-2.90756 4.45432,-5.20401 z"
       id="path3357-1-2-3" />
    <path
       inkscape:connector-curvature="0"
       style="display:inline;fill:#ffffff;fill-opacity:1;stroke:#916f6f;stroke-width:1.5;stroke-linecap:round;stroke-linejoin:miter;stroke-opacity:1"
       d="m 75.195202,106.45265 c 2.05607,1.14804 2.877172,3.80909 4.936422,4.36109 1.84034,0.49332 6.97311,0.80114 8.36254,0.63427 1.5929,-0.1913 4.87271,-3.83669 6.87253,-5.06066"
       id="path3339-7-4"
       sodipodi:nodetypes="cssc" />
    <path
       inkscape:connector-curvature="0"
       style="display:inline;fill:#2b0000;stroke:none;stroke-width:1.5;stroke-linecap:round"
       d="m 78.641964,103.1825 c 0.26575,2.2553 0.64098,4.76949 4.34299,5.41107 3.68999,0.6395 4.94836,-1.88679 4.92143,-4.18463 z"
       id="path3357-0-5"
       sodipodi:nodetypes="cscc" />
    <path
       sodipodi:nodetypes="csssc"
       inkscape:connector-curvature="0"
       style="display:inline;fill:none;stroke:#000000;stroke-width:1.5;stroke-linecap:round;stroke-linejoin:miter;stroke-opacity:1"
       d="m 57.915613,95.346565 c 0.80066,3.589665 2.74011,9.511025 2.41601,12.427815 -0.296,2.6638 -4.81537,16.95284 -5.48817,19.37762 -1.03974,3.74729 0.0851,7.04714 1.43566,8.28439 0.89312,0.81818 4.8758,1.5147 5.58946,4.25988"
       id="path6629-0-7" />
    <path
       sodipodi:nodetypes="cc"
       inkscape:connector-curvature="0"
       style="display:inline;fill:none;stroke:#000000;stroke-width:1.5;stroke-linecap:round;stroke-linejoin:miter;stroke-opacity:1"
       d="m 63.337193,136.54055 c 2.06455,0.21143 4.89503,0.60512 7.2775,0.94877"
       id="path6631-1-6" />
    <path
       sodipodi:nodetypes="scssscsss"
       inkscape:connector-curvature="0"
       style="display:inline;fill:#000000;stroke:none;stroke-width:1.5;stroke-linecap:round"
       d="m 62.852843,140.85431 c 3.18333,0.16709 5.30582,-0.45799 6.39732,-0.0256 4.83561,1.91549 13.555081,8.18913 16.684181,10.53341 1.94547,1.4575 0.0992,7.34244 -1.33479,7.08934 -3.9317,-0.69394 -12.138531,-4.01649 -20.218481,-5.31646 -8.10432,-1.30388 -11.49828,-0.0354 -12.97037,-0.57643 -0.61767,-0.227 -2.89799,-5.54391 -1.97931,-6.76458 1.78763,-2.37524 7.15874,-5.18807 8.49576,-5.90654 1.33702,-0.71846 2.64849,0.84734 4.92569,0.96686 z"
       id="path6633-4-6" />
    <path
       inkscape:connector-curvature="0"
       style="display:inline;fill:none;stroke:#000000;stroke-width:1.5;stroke-linecap:round;stroke-linejoin:miter;stroke-opacity:1"
       d="m 65.903133,94.455125 c -0.86283,2.636535 0.586,4.855965 1.16623,6.446655"
       id="path6643-0-8" />
    <path
       sodipodi:nodetypes="cscssc"
       inkscape:connector-curvature="0"
       style="display:inline;fill:#000000;stroke:none;stroke-width:1.5;stroke-linecap:round"
       d="m 83.801094,97.68718 c 7.50283,-1.425885 21.889186,0.57951 20.225346,-0.85403 -2.31205,-1.992025 -13.889576,-1.460435 -20.279826,-1.209375 -2.27917,0.0896 -7.308331,1.037985 -9.637231,1.562065 -3.11156,0.7002 -7.2091,1.427033 -3.98047,2.408053 7.02477,2.134477 9.460331,-1.045251 13.672181,-1.906713 z"
       id="path6645-7-2" />
    <path
       inkscape:connector-curvature="0"
       style="display:inline;fill:#000000;stroke:none;stroke-width:1.5;stroke-linecap:round"
       d="m 36.803711,87.442115 c -1.03488,-0.90866 7.06046,1.30748 8.824122,1.90657 3.59975,1.22274 13.74286,7.05612 12.19758,7.660785 -5.38865,2.10852 -9.35213,-4.551335 -13.240592,-6.232825 -3.0306,-1.31053 -7.0504,-2.69293 -7.78111,-3.33453 z"
       id="path6647-1-5" />
    <path
       sodipodi:nodetypes="cc"
       inkscape:connector-curvature="0"
       style="display:inline;fill:none;stroke:#000000;stroke-width:1.5;stroke-linecap:round;stroke-linejoin:miter;stroke-opacity:1"
       d="m 78.248284,131.20586 c 1.16787,2.81851 -0.69421,4.84742 -2.472791,6.10208"
       id="path6649-7-4" />
    <path
       sodipodi:nodetypes="cssc"
       inkscape:connector-curvature="0"
       style="display:inline;fill:none;stroke:#000000;stroke-width:1.5;stroke-linecap:round;stroke-linejoin:miter;stroke-opacity:1"
       d="m 74.316403,107.34711 c 2.34021,-2.00699 1.24309,-4.23368 3.556271,-4.29508 2.39332,-0.0635 10.68323,1.10432 12.62357,1.51909 1.80152,0.38511 5.55449,1.75001 8.22441,2.62307"
       id="path3337-7-1" />
    <path
       sodipodi:nodetypes="cssc"
       inkscape:connector-curvature="0"
       style="display:inline;fill:none;stroke:#000000;stroke-width:1.5;stroke-linecap:round;stroke-linejoin:miter;stroke-opacity:1"
       d="m 39.514301,98.78607 c 1.28498,-0.84146 1.86367,-1.56255 3.09158,-1.42659 1.59351,0.17643 10.172112,1.44422 12.290392,2.63606 1.05726,0.59486 1.92479,3.81207 3.33699,5.5143"
       id="path3353-3-1" />
    <path
       inkscape:connector-curvature="0"
       style="display:inline;fill:#deaa87;stroke:none;stroke-width:1.5;stroke-linecap:round"
       d="m 61.836853,153.663 c 2.87319,0.22839 9.37216,1.27369 14.15715,3.02462 2.521091,0.92252 -3.69332,5.33974 -7.83699,4.41089 -3.45306,-0.77404 -10.84225,-7.79498 -6.32016,-7.43551 z"
       id="path6710-3-6" />
    <path
       style="display:inline;opacity:0.95;fill:#241c1c;stroke:none;stroke-width:1.5;stroke-linecap:round"
       d="M 99.114664,103.42039 136.12989,91.761111 c 8.39932,-2.645667 12.10968,8.903309 16.12036,15.909439 2.02915,3.54466 -1.46482,8.66547 -4.81011,3.91116 -3.35019,-4.76126 -3.65884,-20.218001 -10.27269,-17.566599 l -36.65834,14.695829 z"
       id="path6641-9-06-6"
       inkscape:connector-curvature="0"
       sodipodi:nodetypes="csssscc" />
    <path
       style="display:inline;opacity:0.9;fill:#280b0b;stroke:none;stroke-width:1.5;stroke-linecap:round"
       d="m 33.64789,92.752622 c 2.438788,-0.491416 15.277735,2.174072 20.834289,4.114345 3.938601,1.37532 6.472121,3.10921 9.97747,2.61144 8.711605,-1.23705 25.103515,1.416023 34.655015,3.941983 1.863626,2.27939 0.76911,3.83329 1.394446,5.29055 -6.694296,5.8859 -12.649466,7.54845 -18.733596,8.32284 -4.533013,0.57695 -14.677729,-7.1967 -17.471083,-9.25451 -1.544668,-1.13792 -5.887131,-1.96654 -6.765413,-1.32049 -1.932295,1.42131 -3.463067,7.90548 -8.41723,6.154 -3.99696,-1.41306 -9.001926,-6.19703 -13.791988,-12.36687 -0.780171,-1.403183 -1.042838,-4.95452 -1.68191,-7.493288 z"
       id="path6627-9-6-9"
       inkscape:connector-curvature="0"
       sodipodi:nodetypes="cssccsssscc" />
    <path
       inkscape:connector-curvature="0"
       style="display:inline;fill:#deaa87;stroke:#000000;stroke-width:1.5;stroke-linecap:round;stroke-linejoin:miter;stroke-opacity:1"
       d="m 133.80291,131.00634 c 2.13297,-3.79314 10.69516,-0.55505 14.41119,-8.25322 1.57056,-3.25361 2.54077,-6.48269 3.66142,-10.28264 1.27379,-4.31927 3.59299,-8.98549 3.50358,-14.11612 -0.177,-10.156995 -4.78882,-13.167305 -8.69852,-12.684955 -6.79403,0.83819 -8.92376,6.06747 -12.52338,9.68376"
       id="path6637-1-3" />
    <path
       inkscape:connector-curvature="0"
       style="display:inline;fill:none;stroke:#000000;stroke-width:1.5;stroke-linecap:round;stroke-linejoin:miter;stroke-opacity:1"
       d="m 145.15697,116.44627 c -3.21698,-0.66225 -4.59105,-6.06845 -6.17862,-9.29518 -1.50432,-3.05751 0.0194,-8.08412 0.67108,-10.4378 0.98577,-3.560195 6.02399,-8.297575 8.54376,-7.299525 2.50331,0.99154 3.2526,3.80272 3.78546,7.300715 0.88943,5.83884 -2.05383,16.5673 -5.90232,19.04987 -2.8242,1.82183 -5.60212,7.55039 -7.23198,6.01327 -1.59767,-1.50677 0.13316,-3.74638 0.22429,-5.45679 0.0549,-1.0305 -1.47757,-2.32582 -2.74643,-4.08864"
       id="path6639-8-5" />
  </g>
  <g
     sodipodi:insensitive="true"
     inkscape:groupmode="layer"
     id="g213"
     inkscape:label="豚.old.02"
     style="display:none">
    <g
       id="g155">
      <path
         inkscape:connector-curvature="0"
         id="path131"
         d="m 52.309933,189.4084 82.478557,5.68619 -71.146047,125.65837 z"
         style="display:inline;fill:#dbdee3;stroke:none;stroke-linecap:round;stroke-linejoin:round"
         sodipodi:nodetypes="cccc" />
      <path
         sodipodi:nodetypes="cccccc"
         inkscape:connector-curvature="0"
         id="path133"
         d="m 70.579763,216.54606 c -11.56796,37.27632 -12.95186,73.14171 -21.05954,106.83717 l 15.41208,29.58612 15.292561,-23.90744 c 0.53514,-35.59356 -2.70611,-69.7977 0.65972,-112.45814 z"
         style="display:inline;fill:#550000;stroke:#000000;stroke-width:1.5;stroke-linecap:round;stroke-linejoin:round;stroke-opacity:1" />
      <path
         style="display:inline;fill:#1c1f24;fill-opacity:1;stroke:#000000;stroke-width:1.5;stroke-linecap:round;stroke-linejoin:round;stroke-opacity:1"
         d="m 24.51449,428.92107 c -0.0522,-46.19456 7.222618,-106.14446 3.729218,-121.51311 -7.75075,-34.09818 -16.460939,-89.91653 -15.519292,-110.00772 0.885412,-18.89134 3.647715,-30.6017 13.864995,-35.45526 8.77142,-4.16672 36.380227,-11.63087 42.528727,-12.51351 l -17.008031,70.28682 8.282336,105.78467 z"
         id="path135"
         inkscape:connector-curvature="0"
         sodipodi:nodetypes="cssscccc" />
      <path
         style="display:inline;fill:#1c1f24;stroke:#000000;stroke-width:1.5;stroke-linecap:round;stroke-linejoin:round;stroke-opacity:1"
         d="m 150.04479,160.66173 c 14.71981,9.47152 45.85408,28.04838 53.38493,36.2103 9.47617,10.27025 3.2357,28.51548 1.22289,44.06709 -2.57474,19.89321 -24.75742,57.07905 -26.72183,85.00412 -1.69417,24.08335 9.66662,67.1494 7.78405,98.6819 -6.24364,7.06274 -5.1108,3.80356 -11.60866,8.73644 -2.59459,-10.99285 -3.62173,-23.76414 -6.78165,-32.37423 L 61.057205,332.97743 Z"
         id="path137"
         inkscape:connector-curvature="0"
         sodipodi:nodetypes="csssccccc" />
      <path
         sodipodi:nodetypes="ccccc"
         inkscape:connector-curvature="0"
         id="path139"
         d="m 77.771604,144.24705 -25.461671,45.16135 77.198497,17.88587 15.15293,-56.26852 c -0.77391,-16.35147 -51.877286,-19.45172 -66.889756,-6.7787 z"
         style="display:inline;fill:#deaa87;stroke:none;stroke-linecap:round;stroke-linejoin:round" />
      <path
         sodipodi:nodetypes="ccccccc"
         inkscape:connector-curvature="0"
         id="path141"
         d="m 72.248093,187.72848 c 3.9367,1.85391 8.819671,3.04534 21.141061,3.26676 l 0.88934,8.81786 c -3.08407,7.08893 -10.22381,14.66737 -13.97727,19.30487 -3.297391,0.009 -7.298871,-0.40487 -9.851991,-2.16644 -0.51698,-5.51837 -4.8778,-13.2119 -4.07944,-18.39344 z"
         style="display:inline;fill:#550000;stroke:#000000;stroke-width:1.5;stroke-linecap:round;stroke-linejoin:round;stroke-opacity:1" />
      <path
         inkscape:connector-curvature="0"
         id="path143"
         d="m 80.628559,141.60382 c -4.579861,4.17976 -8.136256,5.0221 -10.578306,12.15237 -8.50014,24.268 -10.35092,49.05321 -10.52934,61.88616 4.67867,-8.82104 9.56237,-26.81016 16.87146,-27.62181 -6.09852,-11.61512 -7.87164,-39.12774 5.377491,-46.27481 18.525386,-9.99329 55.834676,-9.7781 58.609496,2.8799 1.5136,6.90464 -22.74305,32.89202 -60.597766,44.48046 8.02207,8.27416 12.42137,18.23677 20.243146,32.2692 24.67083,-29.78602 34.14411,-39.04722 45.35376,-60.54232 -1.7231,-5.59457 -0.30627,-9.99713 -3.76805,-16.79959 -7.89196,-15.50766 -41.53755,-11.91538 -60.981891,-2.42956 z"
         style="display:inline;fill:#dbdbe3;stroke:#000000;stroke-width:1.5;stroke-linecap:round;stroke-linejoin:round;stroke-opacity:1"
         sodipodi:nodetypes="ccccsscccsc" />
      <path
         inkscape:connector-curvature="0"
         id="path145"
         d="m 133.71003,220.63928 -19.86839,9.85379 -9.59446,-14.6823 c 18.15377,-29.50183 41.68898,-56.06886 39.57646,-68.04178 2.82567,0.98028 5.49188,9.62031 8.28365,14.08024 -6.99485,4.65006 -17.16459,40.12371 -18.39726,58.79005 z"
         style="display:inline;fill:#1c1f24;fill-opacity:1;stroke:#000000;stroke-width:1.5;stroke-linecap:round;stroke-linejoin:round;stroke-opacity:1"
         sodipodi:nodetypes="cccccc" />
      <path
         style="display:inline;fill:#1c1f24;stroke:#000000;stroke-width:1.5;stroke-linecap:round;stroke-linejoin:round;stroke-opacity:1"
         d="m 169.62262,399.57314 c 0.38488,10.90521 -2.18257,37.00878 -3.20165,37.19824 -27.3144,19.78305 -87.542396,19.72837 -92.542757,19.91303 -6.6551,0.24577 -11.94935,-6.78345 -13.07417,-16.4872 -4.41959,-38.12741 -2.5388,-102.69212 -1.1937,-106.40426 14.755251,-40.72086 23.060162,-83.37534 44.636837,-117.98218 l 21.82695,22.03425 c -18.05762,17.1885 -50.098317,67.12678 -63.605667,94.45283"
         id="path147"
         inkscape:connector-curvature="0"
         sodipodi:nodetypes="ccsssccc" />
      <path
         sodipodi:nodetypes="cccccc"
         inkscape:connector-curvature="0"
         id="path149"
         d="m 48.523423,212.37154 -4.595122,-19.38997 c 4.633902,-7.07136 20.182922,-33.52731 25.189837,-43.5501 2.076735,-0.99467 6.709245,-4.69143 8.063775,-5.08625 -7.753671,8.62996 -13.587576,29.75933 -16.360952,60.40526 z"
         style="display:inline;fill:#1c1f24;stroke:#000000;stroke-width:1.5;stroke-linecap:round;stroke-linejoin:round;stroke-opacity:1" />
      <path
         inkscape:connector-curvature="0"
         style="display:inline;fill:#1c1f24;fill-opacity:1;stroke:#000000;stroke-width:1.5;stroke-linecap:round;stroke-linejoin:round;stroke-opacity:1"
         d="M 60.392443,325.50296 C 52.644813,290.39221 42.676753,248.8399 38.089613,213.66989 l 22.732184,-9.04923 c -2.843975,31.54663 -2.470678,72.96478 2.348086,121.17062 0.739127,7.39406 -0.23522,72.5486 2.1836,107.25085 0.33583,4.81808 -5.22865,13.1758 -12.32373,16.65754 -5.41392,2.65675 -11.287913,-2.30483 -28.515263,-20.7786"
         id="path151" />
      <path
         inkscape:connector-curvature="0"
         id="path153"
         d="m 164.34138,261.06578 c 1.0833,-20.76466 11.95798,-53.46283 27.76627,-61.5023 17.08916,-8.69087 25.21624,18.29336 22.88274,40.32358 -1.80234,17.01566 7.63685,81.201 2.5833,107.36139 l -36.26152,27.71821 c -3.63635,-30.24572 -18.95034,-75.95691 -16.97079,-113.90088 z"
         style="display:inline;fill:#1c1f24;stroke:#000000;stroke-width:1.5;stroke-linecap:round;stroke-linejoin:round;stroke-opacity:1"
         sodipodi:nodetypes="sssccs" />
    </g>
    <path
       style="display:inline;opacity:0.95;fill:#241c1c;stroke:#000000;stroke-width:1.5;stroke-linecap:round;stroke-linejoin:round"
       d="M 34.620162,92.133904 66.508864,78.883635 c 8.132064,-3.379004 10.872243,8.196202 14.882923,15.202332 2.02915,3.544661 -1.46482,8.665463 -4.81011,3.911166 C 73.231487,93.235867 73.935548,77.98295 67.546424,81.137635 L 34.843664,97.2849 Z"
       id="path157"
       inkscape:connector-curvature="0"
       sodipodi:nodetypes="csssscc" />
    <g
       id="g199">
      <path
         sodipodi:nodetypes="ccccc"
         inkscape:connector-curvature="0"
         id="path159"
         d="m 139.87858,147.14681 c -0.94411,-5.15395 -1.25955,-9.4166 -0.55598,-12.62998 l -23.82378,-21.31506 -51.122047,32.49985 c 2.1785,13.25133 7.86058,15.52836 10.053,31.1801"
         style="display:inline;fill:#deaa87;stroke:#000000;stroke-width:1.5;stroke-linecap:round;stroke-linejoin:round;stroke-opacity:1" />
      <path
         sodipodi:nodetypes="cssssssssssssc"
         inkscape:connector-curvature="0"
         id="path161"
         d="m 131.80257,132.62579 c -1.17491,4.47909 -4.21191,12.67195 -4.63768,14.19868 -1.44995,5.19917 -33.272742,26.30681 -47.300236,31.72884 -5.381491,2.0801 -16.953671,-2.95899 -18.286191,-4.40803 -2.315654,-2.51814 -7.62949,-11.7022 -8.90596,-14.92082 -1.74516,-4.40037 -9.726132,-22.39883 -11.677782,-31.60039 -1.46896,-6.92579 -1.41617,-20.33466 -1.99522,-23.40571 -0.57331,-3.04064 -1.7905,-10.883711 -2.4344,-13.563844 -1.344577,-5.596594 0.79201,-11.130753 1.09836,-14.670855 0.53859,-6.223576 2.734357,-18.134197 4.684079,-23.563977 4.264873,-11.877244 22.242023,-30.968205 51.026264,-32.293297 37.204866,-1.712738 57.527876,36.632296 60.007176,50.67067 1.78476,10.10582 1.83558,31.463493 -0.66873,38.082343 -1.70146,4.49693 -14.04013,23.65789 -14.06406,29.74457"
         style="display:inline;fill:#deaa87;stroke:#000000;stroke-width:1.5;stroke-linecap:round;stroke-linejoin:round;stroke-opacity:1" />
      <path
         sodipodi:nodetypes="ccccccccccc"
         id="path163"
         d="m 77.593854,131.37175 c 0.93452,4.02701 -0.280401,5.16264 -1.726271,6.79009 -0.8254,0.92908 -2.1155,1.81905 -2.6481,2.92021 -0.57388,-1.16779 -2.23863,4.13204 -4.18902,3.617 -1.05696,-3.72524 -2.74264,-5.84343 -4.74585,-6.10093 -1.46397,-0.18818 -2.26736,1.5382 -2.77938,6.36191 -0.0817,-3.14107 0.239,-5.18092 -1.15016,-6.47545 -1.19852,-1.11684 -4.23308,-2.31557 -4.72546,-2.62136 -2.40437,-1.49318 -1.88563,-1.45595 -2.49174,-5.11398 1.94897,4.50602 7.51938,4.52996 9.75443,3.15739 3.80275,-0.94644 10.21195,6.93677 14.701551,-2.53488 z"
         style="display:inline;fill:#deaa87;stroke:none;stroke-width:1.5;stroke-linecap:round;stroke-linejoin:round"
         inkscape:connector-curvature="0" />
      <path
         sodipodi:nodetypes="scssssssscssccccccssssccccsccsss"
         id="path165"
         d="m 45.507793,130.97544 c 3.2585,9.36531 4.00441,11.3193 8.38498,19.32476 -5.08495,0.33687 4.77624,16.02454 7.20993,20.59286 1.1421,2.14387 5.20126,5.44664 8.83004,5.60933 5.35401,0.24004 13.131361,-5.97906 16.299901,-12.12718 1.85215,-3.59385 5.3902,-8.15162 5.638,-13.86282 0.41953,-9.66882 9.736626,-18.43235 11.783696,-31.29016 0.3563,-2.23792 -3.731746,-7.9062 -5.790076,-7.26948 -3.10924,0.96182 -7.801773,5.14329 -12.644753,5.7752 -3.69252,0.48179 -9.772558,-8.08472 -12.720348,-7.66379 -1.41929,2.44285 -2.82412,0.41455 -3.75989,-1.60946 -0.99794,-2.15849 -5.342942,-10.805022 -2.83614,-13.999575 2.072159,-2.640664 2.35716,4.440625 6.60308,3.389005 l 4.60711,-1.03001 c -2.33806,2.82904 0.408541,7.80668 -1.66215,9.04987 l 19.571991,0.44457 c 1.63778,-2.83568 1.88052,-7.51003 -1.73985,-10.254385 l 7.018036,0.602518 c 8.75049,-6.52775 17.35756,-23.547211 18.54326,-28.565076 4.49203,-19.010216 4.75852,-31.554686 -17.82448,-43.383997 -13.694894,-7.173589 -44.028653,5.075698 -54.38183,22.559799 -4.331088,7.314197 -5.113851,15.844886 -5.435947,26.354796 -0.191154,6.237282 -3.160225,10.384744 -0.258949,14.974125 -4.156283,1.839425 -1.393143,7.466945 0.07707,9.23575 l 13.240689,3.37572 c 0.75997,-1.11821 1.81921,-1.37387 1.53107,-5.512845 3.5064,1.671545 4.02669,6.378515 4.27825,8.307095 0.14077,1.07918 -0.44769,6.93572 -1.39242,9.33948 -0.20625,-1.91445 -1.25926,-6.11182 -2.52352,-5.59944 -2.05925,0.83455 -5.51317,3.96292 -8.33958,3.68393 -2.43024,-0.23989 -3.126932,-3.30903 -4.102259,-1.58142 -3.979122,7.04828 -0.315119,15.06584 1.795089,21.13083 z"
         style="display:inline;fill:#e9c6af;stroke:none;stroke-width:1.5;stroke-linecap:round;stroke-linejoin:round"
         inkscape:connector-curvature="0" />
      <path
         id="path167"
         d="m 77.872674,103.05203 -2.763408,3.3225 10.327438,2.03263 10.30564,-2.11925 -5.2461,-1.71679 z"
         style="display:inline;fill:#ffffff;stroke:none;stroke-width:1.5;stroke-linecap:round;stroke-linejoin:round"
         inkscape:connector-curvature="0"
         sodipodi:nodetypes="cccccc" />
      <path
         id="path169"
         d="m 54.896273,99.99554 -12.290392,-2.63606 -1.72446,0.70778 6.338522,6.71306 10.01928,-0.53585 z"
         style="display:inline;fill:#ffffff;stroke:none;stroke-width:1.5;stroke-linecap:round;stroke-linejoin:round"
         inkscape:connector-curvature="0"
         sodipodi:nodetypes="cccccc" />
      <path
         id="path171"
         d="m 40.881421,98.06726 c 1.02124,2.42825 3.06335,7.33538 4.780632,7.98679 1.06444,0.40377 4.26646,1.05576 5.78142,0.78434 1.44278,-0.25849 5.47465,-2.70682 5.79575,-2.59392"
         style="display:inline;fill:#ffffff;fill-opacity:1;stroke:#916f6f;stroke-width:1.5;stroke-linecap:round;stroke-linejoin:round;stroke-opacity:1"
         inkscape:connector-curvature="0"
         sodipodi:nodetypes="cssc" />
      <path
         id="path173"
         d="m 43.239131,97.14937 c 0.23532,2.0678 1.589,6.3154 4.550652,6.64076 3.48523,0.38288 4.53841,-2.90756 4.45432,-5.20401 z"
         style="display:inline;fill:#2b0000;stroke:none;stroke-width:1.5;stroke-linecap:round;stroke-linejoin:round"
         inkscape:connector-curvature="0" />
      <path
         sodipodi:nodetypes="cssc"
         id="path175"
         d="m 75.109265,106.37453 c 1.80607,1.26522 2.963109,3.88721 5.022359,4.43921 1.84034,0.49332 6.97311,0.80114 8.36254,0.63427 1.5929,-0.1913 5.40304,-3.80354 7.24818,-5.1601"
         style="display:inline;fill:#ffffff;fill-opacity:1;stroke:#916f6f;stroke-width:1.5;stroke-linecap:round;stroke-linejoin:round;stroke-opacity:1"
         inkscape:connector-curvature="0" />
      <path
         sodipodi:nodetypes="cscc"
         id="path177"
         d="m 78.641964,103.1825 c 0.26575,2.2553 0.64098,4.76949 4.34299,5.41107 3.68999,0.6395 4.94836,-1.88679 4.92143,-4.18463 z"
         style="display:inline;fill:#2b0000;stroke:none;stroke-width:1.5;stroke-linecap:round;stroke-linejoin:round"
         inkscape:connector-curvature="0" />
      <path
         id="path179"
         d="m 57.915613,95.346565 c 0.80066,3.589665 2.74011,9.511025 2.41601,12.427815 -0.296,2.6638 -4.81537,16.95284 -5.48817,19.37762 -1.03974,3.74729 0.0851,6.25164 1.43566,7.48889 0.89312,0.81818 3.726752,2.57537 5.58946,5.05538"
         style="display:inline;fill:none;stroke:#000000;stroke-width:1.5;stroke-linecap:round;stroke-linejoin:round;stroke-opacity:1"
         inkscape:connector-curvature="0"
         sodipodi:nodetypes="csssc" />
      <path
         id="path181"
         d="m 63.690746,135.65667 c 2.06455,0.21143 4.541477,1.489 6.923947,1.83265"
         style="display:inline;fill:none;stroke:#000000;stroke-width:1.5;stroke-linecap:round;stroke-linejoin:round;stroke-opacity:1"
         inkscape:connector-curvature="0"
         sodipodi:nodetypes="cc" />
      <path
         id="path183"
         d="m 62.852843,140.85431 c 3.18333,0.16709 5.30582,-0.45799 6.39732,-0.0256 4.83561,1.91549 13.378304,8.80785 16.507404,11.15213 1.94547,1.4575 0.0992,7.34244 -1.33479,7.08934 -3.9317,-0.69394 -11.961754,-4.63521 -20.041704,-5.93518 -8.10432,-1.30388 -10.967948,-0.38896 -12.44004,-0.92998 -0.617668,-0.22701 -3.42832,-5.19036 -2.50964,-6.41103 1.78763,-2.37524 7.15874,-5.18807 8.49576,-5.90654 1.33702,-0.71846 2.64849,0.84734 4.92569,0.96686 z"
         style="display:inline;fill:#000000;stroke:none;stroke-width:1.5;stroke-linecap:round;stroke-linejoin:round"
         inkscape:connector-curvature="0"
         sodipodi:nodetypes="scsssssss" />
      <path
         id="path185"
         d="m 65.903133,94.455125 c -0.86283,2.636535 0.586,4.855965 1.16623,6.446655"
         style="display:inline;fill:none;stroke:#000000;stroke-width:1.5;stroke-linecap:round;stroke-linejoin:round;stroke-opacity:1"
         inkscape:connector-curvature="0" />
      <path
         id="path187"
         d="m 83.801094,97.68718 c 7.50283,-1.425885 21.889186,0.57951 20.225346,-0.85403 -2.31205,-1.992025 -13.889576,-1.460435 -20.279826,-1.209375 -2.27917,0.0896 -7.308331,1.037985 -9.637231,1.562065 -3.11156,0.7002 -7.2091,1.427033 -3.98047,2.408053 7.02477,2.134477 9.460331,-1.045251 13.672181,-1.906713 z"
         style="display:inline;fill:#000000;stroke:none;stroke-width:1.5;stroke-linecap:round;stroke-linejoin:round"
         inkscape:connector-curvature="0"
         sodipodi:nodetypes="cscssc" />
      <path
         id="path189"
         d="m 36.803711,87.442115 c -1.03488,-0.90866 7.06046,1.30748 8.824122,1.90657 3.59975,1.22274 13.74286,7.05612 12.19758,7.660785 -5.38865,2.10852 -9.35213,-4.551335 -13.240592,-6.232825 -3.0306,-1.31053 -7.0504,-2.69293 -7.78111,-3.33453 z"
         style="display:inline;fill:#000000;stroke:none;stroke-width:1.5;stroke-linecap:round;stroke-linejoin:round"
         inkscape:connector-curvature="0" />
      <path
         id="path191"
         d="m 78.248284,131.20586 c 1.16787,2.81851 -0.69421,4.84742 -2.472791,6.10208"
         style="display:inline;fill:none;stroke:#000000;stroke-width:1.5;stroke-linecap:round;stroke-linejoin:round;stroke-opacity:1"
         inkscape:connector-curvature="0"
         sodipodi:nodetypes="cc" />
      <path
         id="path193"
         d="m 74.316403,107.34711 c 1.65271,-1.56949 1.24309,-4.23368 3.556271,-4.29508 2.39332,-0.0635 10.68323,1.10432 12.62357,1.51909 1.80152,0.38511 5.55449,1.75001 8.22441,2.62307"
         style="display:inline;fill:none;stroke:#000000;stroke-width:1.5;stroke-linecap:round;stroke-linejoin:round;stroke-opacity:1"
         inkscape:connector-curvature="0"
         sodipodi:nodetypes="cssc" />
      <path
         id="path195"
         d="m 39.514301,98.78607 c 1.28498,-0.84146 1.86367,-1.56255 3.09158,-1.42659 1.59351,0.17643 10.172112,1.44422 12.290392,2.63606 1.05726,0.59486 1.92479,3.81207 3.33699,5.5143"
         style="display:inline;fill:none;stroke:#000000;stroke-width:1.5;stroke-linecap:round;stroke-linejoin:round;stroke-opacity:1"
         inkscape:connector-curvature="0"
         sodipodi:nodetypes="cssc" />
      <path
         id="path197"
         d="m 61.836853,153.663 c 2.87319,0.22839 9.37216,1.27369 14.15715,3.02462 2.521091,0.92252 -3.69332,5.33974 -7.83699,4.41089 -3.45306,-0.77404 -10.84225,-7.79498 -6.32016,-7.43551 z"
         style="display:inline;fill:#deaa87;stroke:none;stroke-width:1.5;stroke-linecap:round;stroke-linejoin:round"
         inkscape:connector-curvature="0" />
    </g>
    <g
       style="stroke:#000000"
       id="g205">
      <path
         sodipodi:nodetypes="csssscc"
         inkscape:connector-curvature="0"
         id="path201"
         d="M 99.114664,103.42039 136.12989,91.761111 c 8.39932,-2.645668 12.10968,8.903309 16.12036,15.909439 2.02915,3.54466 -1.46482,8.66547 -4.81011,3.91116 -3.35019,-4.76126 -3.65884,-20.218001 -10.27269,-17.566599 l -36.65834,14.695829 z"
         style="display:inline;opacity:0.95;fill:#241c1c;stroke:#000000;stroke-width:1.5;stroke-linecap:round;stroke-linejoin:round" />
      <path
         sodipodi:nodetypes="cssccsssscc"
         inkscape:connector-curvature="0"
         id="path203"
         d="m 34.620162,92.133904 c 2.484331,-0.478765 17.557812,4.422904 19.15491,5.44017 2.297195,1.463191 1.345597,1.518216 4.850946,1.020446 8.711605,-1.237046 30.937146,2.29991 40.488646,4.82587 0.626189,1.13034 1.476216,3.94378 1.394446,5.29055 -6.694296,5.8859 -12.649466,7.54845 -18.733596,8.32284 -4.533013,0.57695 -15.384836,-6.48959 -18.17819,-8.5474 -1.544668,-1.13792 -5.887131,-1.96654 -6.765413,-1.32049 -1.932295,1.42131 -5.849552,6.13771 -9.301113,5.00495 -4.028013,-1.32195 -10.018392,-8.27416 -12.687134,-14.88594 -0.515006,-1.403183 -0.600896,-3.496111 -0.223502,-5.150996 z"
         style="display:inline;opacity:0.8;fill:#280b0b;stroke:#000000;stroke-width:1.5;stroke-linecap:round;stroke-linejoin:round" />
    </g>
    <g
       id="g211">
      <path
         id="path207"
         d="m 133.80291,131.00634 c 2.13297,-3.79314 10.69516,-0.55505 14.41119,-8.25322 1.57056,-3.25361 2.54077,-6.48269 3.66142,-10.28264 1.27379,-4.31927 3.59299,-8.98549 3.50358,-14.11612 -0.177,-10.156995 -4.78882,-13.167305 -8.69852,-12.684955 -6.79403,0.83819 -8.92376,6.06747 -12.52338,9.68376"
         style="display:inline;fill:#deaa87;stroke:#000000;stroke-width:1.5;stroke-linecap:round;stroke-linejoin:round;stroke-opacity:1"
         inkscape:connector-curvature="0" />
      <path
         id="path209"
         d="m 145.15697,116.44627 c -3.21698,-0.66225 -4.59105,-6.06845 -6.17862,-9.29518 -1.50432,-3.05751 0.0194,-8.08412 0.67108,-10.4378 0.98577,-3.560195 6.02399,-8.297575 8.54376,-7.299525 2.50331,0.99154 3.2526,3.80272 3.78546,7.300715 0.88943,5.83884 -2.05383,16.5673 -5.90232,19.04987 -2.8242,1.82183 -5.60212,7.55039 -7.23198,6.01327 -1.59767,-1.50677 0.13316,-3.74638 0.22429,-5.45679 0.0549,-1.0305 -1.47757,-2.32582 -2.74643,-4.08864"
         style="display:inline;fill:none;stroke:#000000;stroke-width:1.5;stroke-linecap:round;stroke-linejoin:round;stroke-opacity:1"
         inkscape:connector-curvature="0" />
    </g>
  </g>
  <g
     style="display:inline"
     inkscape:label="豚"
     id="g6950"
     inkscape:groupmode="layer"
     sodipodi:insensitive="true">
    <path
       sodipodi:nodetypes="cccccccc"
       inkscape:connector-curvature="0"
       id="path6902"
       d="m 142.13531,140.7364 c -0.96243,-5.25394 -2.07726,-9.71862 -1.36004,-12.99434 l -23.26659,-21.2189 -52.113874,33.13038 c 2.22077,13.50843 8.01309,15.82963 10.24804,31.78503 l -4.35947,17.37278 28.946484,5.63433 z"
       style="display:inline;fill:#deaa87;stroke:#000000;stroke-width:1.5;stroke-linecap:round;stroke-linejoin:round;stroke-opacity:1" />
    <g
       id="g2694"
       transform="matrix(1.0194011,0,0,1.0194011,-0.23094449,-8.8748468)"
       style="stroke-width:1.47145224">
      <path
         sodipodi:nodetypes="cccc"
         style="display:inline;fill:#dbdee3;stroke:none;stroke-width:1.47145224;stroke-linecap:round;stroke-linejoin:round"
         d="m 52.309933,189.4084 82.478557,5.68619 -71.146047,125.65837 z"
         id="path6878"
         inkscape:connector-curvature="0" />
      <path
         style="display:inline;fill:#550000;stroke:#000000;stroke-width:1.47145224;stroke-linecap:round;stroke-linejoin:round;stroke-opacity:1"
         d="m 70.579763,216.54606 c -11.56796,37.27632 -12.95186,73.14171 -21.05954,106.83717 l 15.41208,29.58612 15.292561,-23.90744 c 0.53514,-35.59356 -2.70611,-69.7977 0.65972,-112.45814 z"
         id="path6882"
         inkscape:connector-curvature="0"
         sodipodi:nodetypes="cccccc" />
      <path
         sodipodi:nodetypes="cssscccc"
         inkscape:connector-curvature="0"
         id="path6892"
         d="m 24.51449,428.92107 c -0.0522,-46.19456 7.222618,-106.14446 3.729218,-121.51311 -7.75075,-34.09818 -16.460939,-89.91653 -15.519292,-110.00772 0.885412,-18.89134 6.786997,-32.36457 14.732057,-35.45526 8.114389,-3.15656 36.494133,-6.97127 43.378359,-11.2873 l -18.724725,69.06061 8.282336,105.78467 z"
         style="display:inline;fill:#1c1f24;fill-opacity:1;stroke:#000000;stroke-width:1.47145224;stroke-linecap:round;stroke-linejoin:round;stroke-opacity:1" />
      <path
         sodipodi:nodetypes="csssccccc"
         inkscape:connector-curvature="0"
         id="path2627"
         d="m 150.04479,160.66173 c 14.71981,9.47152 45.85408,28.04838 53.38493,36.2103 9.47617,10.27025 3.2357,28.51548 1.22289,44.06709 -2.57474,19.89321 -24.75742,57.07905 -26.72183,85.00412 -1.69417,24.08335 9.66662,67.1494 7.78405,98.6819 -6.24364,7.06274 -5.1108,3.80356 -11.60866,8.73644 -2.59459,-10.99285 -3.62173,-23.76414 -6.78165,-32.37423 L 61.057205,332.97743 Z"
         style="display:inline;fill:#1c1f24;stroke:#000000;stroke-width:1.47145224;stroke-linecap:round;stroke-linejoin:round;stroke-opacity:1" />
      <path
         style="display:inline;fill:#550000;stroke:#000000;stroke-width:1.47145224;stroke-linecap:round;stroke-linejoin:round;stroke-opacity:1"
         d="m 72.248093,187.72848 c 3.9367,1.85391 8.819671,3.04534 21.141061,3.26676 l 0.88934,8.81786 c -3.08407,7.08893 -10.22381,14.66737 -13.97727,19.30487 -3.297391,0.009 -7.298871,-0.40487 -9.851991,-2.16644 -0.51698,-5.51837 -4.8778,-13.2119 -4.07944,-18.39344 z"
         id="path6884"
         inkscape:connector-curvature="0"
         sodipodi:nodetypes="ccccccc" />
      <path
         style="display:inline;fill:#dbdbe3;stroke:#000000;stroke-width:1.47145224;stroke-linecap:round;stroke-linejoin:round;stroke-opacity:1"
         d="m 79.781594,189.10609 c 8.02207,8.27416 12.42137,18.23677 20.243146,32.2692 24.67083,-29.78602 34.14411,-39.04722 45.35376,-60.54232 -1.7231,-5.59457 -1.95369,-10.77748 -6.03101,-17.32717 0.89805,7.15741 -21.71118,34.01185 -59.565896,45.60029 z"
         id="path287"
         inkscape:connector-curvature="0" />
      <path
         style="display:inline;fill:#dbdbe3;stroke:#000000;stroke-width:1.47145224;stroke-linecap:round;stroke-linejoin:round;stroke-opacity:1"
         d="m 70.050253,153.75619 c -8.50014,24.268 -10.35092,49.05321 -10.52934,61.88616 4.67867,-8.82104 9.735782,-23.68874 17.218285,-26.75475 -6.09852,-11.61512 -8.218465,-39.9948 4.460013,-47.21283 z"
         id="path6886"
         inkscape:connector-curvature="0" />
      <path
         sodipodi:nodetypes="cccccc"
         style="display:inline;fill:#1c1f24;fill-opacity:1;stroke:#000000;stroke-width:1.47145224;stroke-linecap:round;stroke-linejoin:round;stroke-opacity:1"
         d="m 133.71003,220.63928 -19.86839,9.85379 -9.59446,-14.6823 c 18.15377,-29.50183 40.5618,-54.94168 38.44928,-66.9146 2.82567,0.98028 6.61906,8.49313 9.41083,12.95306 -6.99485,4.65006 -17.16459,40.12371 -18.39726,58.79005 z"
         id="path6896"
         inkscape:connector-curvature="0" />
      <path
         sodipodi:nodetypes="ccsssccc"
         inkscape:connector-curvature="0"
         id="path2623"
         d="m 169.62262,399.57314 c 0.38488,10.90521 -2.18257,37.00878 -3.20165,37.19824 -27.3144,19.78305 -87.542396,19.72837 -92.542757,19.91303 -6.6551,0.24577 -11.94935,-6.78345 -13.07417,-16.4872 -4.41959,-38.12741 -2.5388,-102.69212 -1.1937,-106.40426 14.755251,-40.72086 23.060162,-83.37534 44.636837,-117.98218 l 21.82695,22.03425 c -18.05762,17.1885 -50.098317,67.12678 -63.605667,94.45283"
         style="display:inline;fill:#1c1f24;stroke:#000000;stroke-width:1.47145224;stroke-linecap:round;stroke-linejoin:round;stroke-opacity:1" />
      <path
         style="display:inline;fill:#1c1f24;stroke:#000000;stroke-width:1.47145224;stroke-linecap:round;stroke-linejoin:round;stroke-opacity:1"
         d="m 48.523423,212.37154 -4.248297,-15.74831 c 4.633902,-7.07136 19.836097,-37.16897 24.843012,-47.19176 2.076735,-0.99467 7.923131,-4.51802 9.277661,-4.91284 -7.753671,8.62996 -14.454637,30.97322 -17.228013,61.61915 z"
         id="path6890"
         inkscape:connector-curvature="0"
         sodipodi:nodetypes="cccccc" />
      <path
         id="path2680"
         d="M 60.392443,325.50296 C 52.644813,290.39221 45.798175,249.18672 41.211035,214.01671 l 19.957587,-8.00875 c -2.843975,31.54663 -2.817503,71.57748 2.001261,119.78332 0.739127,7.39406 -0.23522,72.5486 2.1836,107.25085 0.33583,4.81808 -5.22865,13.1758 -12.32373,16.65754 -5.41392,2.65675 -11.287913,-2.30483 -28.515263,-20.7786"
         style="display:inline;fill:#1c1f24;fill-opacity:1;stroke:#000000;stroke-width:1.47145224;stroke-linecap:round;stroke-linejoin:round;stroke-opacity:1"
         inkscape:connector-curvature="0"
         sodipodi:nodetypes="cccsssc" />
      <path
         sodipodi:nodetypes="sssccs"
         style="display:inline;fill:#1c1f24;stroke:#000000;stroke-width:1.47145224;stroke-linecap:round;stroke-linejoin:round;stroke-opacity:1"
         d="m 164.34138,261.06578 c 1.0833,-20.76466 11.95798,-53.46283 27.76627,-61.5023 17.08916,-8.69087 25.21624,18.29336 22.88274,40.32358 -1.80234,17.01566 7.63685,81.201 2.5833,107.36139 l -36.26152,27.71821 c -3.63635,-30.24572 -18.95034,-75.95691 -16.97079,-113.90088 z"
         id="path6900"
         inkscape:connector-curvature="0" />
    </g>
    <path
       sodipodi:nodetypes="csssscc"
       inkscape:connector-curvature="0"
       id="path6942-3"
       d="m 35.060886,85.046555 32.50738,-13.507338 c 8.28983,-3.444561 11.08317,8.355217 15.17166,15.497274 2.06852,3.613431 -1.49324,8.833582 -4.90343,3.987047 -3.41518,-4.85364 -2.69746,-20.40248 -9.21054,-17.186591 l -33.33723,16.460539 z"
       style="display:inline;opacity:0.95;fill:#241c1c;stroke:#000000;stroke-width:1.5;stroke-linecap:round;stroke-linejoin:round" />
    <g
       id="g283"
       transform="matrix(-1,0,0,1,235.77407,0)">
      <path
         style="display:inline;fill:#deaa87;stroke:#000000;stroke-width:1.5;stroke-linecap:round;stroke-linejoin:round;stroke-opacity:1"
         d="m 101.64533,126.32403 c 1.1977,4.56599 4.29362,12.9178 4.72765,14.47415 1.47808,5.30004 34.06193,26.459 48.21791,32.34441 6.63273,2.75759 15.70887,-1.16038 18.38612,-4.93953 4.42835,-6.25098 8.51761,-13.90817 11.19732,-20.30967 3.11602,-7.44378 8.1539,-20.73342 9.6802,-27.92957 1.49746,-7.06016 1.08324,-18.38649 1.67352,-21.517118 0.58443,-3.099632 2.72284,-12.44127 3.37923,-15.1734 C 200.27795,77.568128 198.09991,71.9266 197.78761,68.317816 197.23857,61.973496 193.93955,50.09696 191.952,44.561837 187.60438,32.454161 170.16234,13.611532 140.81965,12.260732 102.89297,10.514766 81.910506,48.985017 79.383105,63.295751 c -1.819386,10.301884 -1.871192,32.073919 0.681704,38.821179 1.734471,4.58418 15.851941,24.11688 15.876335,30.32165"
         id="path6904"
         inkscape:connector-curvature="0"
         sodipodi:nodetypes="cssssssssssssc" />
      <path
         inkscape:connector-curvature="0"
         style="display:inline;fill:#deaa87;stroke:none;stroke-width:1.5;stroke-linecap:round;stroke-linejoin:round"
         d="m 156.90575,125.04566 c -0.95265,4.10514 0.28584,5.2628 1.75976,6.92182 0.84142,0.94711 2.15655,1.85435 2.69948,2.97687 0.58501,-1.19045 2.28206,4.21221 4.27029,3.68717 1.07747,-3.79751 2.79585,-5.9568 4.83792,-6.21929 1.49238,-0.19183 2.31135,1.56804 2.83331,6.48534 0.0833,-3.20201 -0.24364,-5.28144 1.17247,-6.60108 1.22177,-1.13851 4.31521,-2.3605 4.81714,-2.67222 2.45102,-1.52215 1.92221,-1.4842 2.54008,-5.2132 -1.98678,4.59344 -7.66526,4.61785 -9.94367,3.21865 -3.87653,-0.9648 -10.41008,7.07135 -14.98678,-2.58406 z"
         id="path6906"
         sodipodi:nodetypes="ccccccccccc" />
      <path
         inkscape:connector-curvature="0"
         style="display:inline;fill:#e9c6af;stroke:none;stroke-width:1.5;stroke-linecap:round;stroke-linejoin:round"
         d="m 190.96321,122.13158 c -3.32172,9.54701 -6.06812,14.04899 -10.53368,22.20976 5.18361,0.34341 -4.23178,16.33544 -6.71268,20.99239 -1.16426,2.18546 -5.30217,5.55231 -9.00136,5.71815 -5.45788,0.2447 -13.38612,-6.09506 -16.61613,-12.36246 -1.88809,-3.66357 -5.49478,-8.30977 -5.74739,-14.13177 -0.42766,-9.85641 -9.92552,-18.78996 -12.01231,-31.89722 -0.36321,-2.28134 3.80415,-8.05959 5.90241,-7.41052 3.16956,0.98048 7.95314,5.24308 12.89008,5.88724 3.76416,0.49114 9.96215,-8.24157 12.96713,-7.81247 1.44683,2.49024 2.87891,0.42259 3.83284,-1.64069 1.0173,-2.200363 5.4466,-11.014648 2.89116,-14.271178 -2.11236,-2.691896 -2.40289,4.526778 -6.73118,3.454755 l -4.6965,-1.049993 c 2.38342,2.883926 -0.41646,7.958138 1.6944,9.225447 l -19.95171,0.453195 c -1.66955,-2.890695 -1.917,-7.655733 1.77361,-10.453331 l -7.1542,0.614207 c -8.92026,-6.654395 -17.69431,-24.004052 -18.90302,-29.11927 -4.57918,-19.379035 -0.96175,-34.995308 19.93807,-42.457927 14.84212,-5.29962 42.2312,3.406405 52.78524,21.229717 4.41512,7.456101 6.09695,16.152294 6.4253,26.866108 0.19486,6.358292 3.22153,10.58622 0.26397,15.26464 4.23692,1.875112 1.42017,7.611812 -0.0786,9.414933 l -13.49757,3.441213 c -0.77471,-1.139904 -1.8545,-1.400525 -1.56077,-5.6198 -3.57443,1.703975 -4.10482,6.502265 -4.36126,8.468262 -0.1435,1.100117 0.45638,7.070282 1.41944,9.520672 0.21025,-1.95159 1.28369,-6.23039 2.57248,-5.70807 2.0992,0.85074 4.53889,4.0398 7.42014,3.7554 2.47739,-0.24454 4.6304,-3.53299 5.26308,-1.6121 1.71364,5.20276 1.67013,12.84805 -0.48102,19.03071 z"
         id="path6908"
         sodipodi:nodetypes="ccssssssscssccccccssssccccsccsssc" />
      <path
         sodipodi:nodetypes="cccccc"
         inkscape:connector-curvature="0"
         style="display:inline;fill:#ffffff;stroke:none;stroke-width:1.5;stroke-linecap:round;stroke-linejoin:round"
         d="m 156.62152,96.176506 2.81702,3.38696 -10.5278,2.072064 -10.50558,-2.160364 5.34788,-1.750098 z"
         id="path6910" />
      <path
         sodipodi:nodetypes="cccccc"
         inkscape:connector-curvature="0"
         style="display:inline;fill:#ffffff;stroke:none;stroke-width:1.5;stroke-linecap:round;stroke-linejoin:round"
         d="m 180.04369,93.060717 12.52884,-2.687203 1.75791,0.721512 -6.46149,6.843301 -10.21367,-0.546246 z"
         id="path6912" />
      <path
         sodipodi:nodetypes="cssc"
         inkscape:connector-curvature="0"
         style="display:inline;fill:#ffffff;fill-opacity:1;stroke:#916f6f;stroke-width:1.5;stroke-linecap:round;stroke-linejoin:round;stroke-opacity:1"
         d="m 194.33044,91.095026 c -1.04105,2.475361 -3.12278,7.477694 -4.87338,8.141742 -1.08509,0.411604 -4.34923,1.076242 -5.89358,0.799562 -1.47077,-0.26351 -5.58087,-2.75934 -5.9082,-2.644249"
         id="path6914" />
      <path
         inkscape:connector-curvature="0"
         style="display:inline;fill:#2b0000;stroke:none;stroke-width:1.5;stroke-linecap:round;stroke-linejoin:round"
         d="m 191.92699,90.159328 c -0.23988,2.107917 -1.61983,6.437926 -4.63894,6.769598 -3.55284,0.390308 -4.62646,-2.96397 -4.54074,-5.304974 z"
         id="path6916" />
      <path
         inkscape:connector-curvature="0"
         style="display:inline;fill:#ffffff;fill-opacity:1;stroke:#916f6f;stroke-width:1.5;stroke-linecap:round;stroke-linejoin:round;stroke-opacity:1"
         d="m 159.43854,99.563466 c -1.84111,1.289764 -3.02059,3.962624 -5.1198,4.525334 -1.87604,0.50289 -7.10839,0.81668 -8.52478,0.64658 -1.6238,-0.19501 -5.50786,-3.87734 -7.3888,-5.260214"
         id="path6918"
         sodipodi:nodetypes="cssc" />
      <path
         inkscape:connector-curvature="0"
         style="display:inline;fill:#2b0000;stroke:none;stroke-width:1.5;stroke-linecap:round;stroke-linejoin:round"
         d="m 155.83731,96.309507 c -0.27091,2.299056 -0.65342,4.862023 -4.42725,5.516053 -3.76158,0.6519 -5.04437,-1.923398 -5.01691,-4.265819 z"
         id="path6920"
         sodipodi:nodetypes="cscc" />
      <path
         sodipodi:nodetypes="csssc"
         inkscape:connector-curvature="0"
         style="display:inline;fill:none;stroke:#000000;stroke-width:1.5;stroke-linecap:round;stroke-linejoin:round;stroke-opacity:1"
         d="m 176.96577,88.321546 c -0.81619,3.659309 -2.79327,9.69555 -2.46288,12.668924 0.30174,2.71549 4.90879,17.28175 5.59464,19.75357 1.05992,3.81999 -0.0867,6.37293 -1.46351,7.63418 -0.91045,0.83406 -3.79905,2.62534 -5.6979,5.15346"
         id="path6922" />
      <path
         sodipodi:nodetypes="cc"
         inkscape:connector-curvature="0"
         style="display:inline;fill:none;stroke:#000000;stroke-width:1.5;stroke-linecap:round;stroke-linejoin:round;stroke-opacity:1"
         d="m 171.07859,129.41371 c -2.1046,0.21553 -4.62958,1.51789 -7.05828,1.86821"
         id="path6924" />
      <path
         sodipodi:nodetypes="scsssssss"
         inkscape:connector-curvature="0"
         style="display:inline;fill:#000000;stroke:none;stroke-width:1.5;stroke-linecap:round;stroke-linejoin:round"
         d="m 171.93275,134.71219 c -3.24509,0.17033 -5.40876,-0.46687 -6.52143,-0.0261 -4.92943,1.95265 -13.63786,8.97873 -16.82767,11.36849 -1.98321,1.48578 -0.10112,7.48489 1.36069,7.22688 4.00798,-0.7074 12.19382,-4.72514 20.43053,-6.05033 8.26156,-1.32918 11.18074,-0.39651 12.68139,-0.94802 0.62966,-0.23142 3.49484,-5.29106 2.55833,-6.53541 -1.82231,-2.42133 -7.29762,-5.28873 -8.66058,-6.02114 -1.36296,-0.7324 -2.69988,0.86378 -5.02126,0.98562 z"
         id="path6926" />
      <path
         inkscape:connector-curvature="0"
         style="display:inline;fill:none;stroke:#000000;stroke-width:1.5;stroke-linecap:round;stroke-linejoin:round;stroke-opacity:1"
         d="m 168.82328,87.412812 c 0.87957,2.687686 -0.59737,4.950176 -1.18885,6.571727"
         id="path6928" />
      <path
         sodipodi:nodetypes="cscssc"
         inkscape:connector-curvature="0"
         style="display:inline;fill:#000000;stroke:none;stroke-width:1.5;stroke-linecap:round;stroke-linejoin:round"
         d="m 150.57808,90.707572 c -7.64839,-1.453549 -22.31386,0.590753 -20.61774,-0.870599 2.35691,-2.030673 14.15905,-1.488769 20.67328,-1.232838 2.32339,0.09134 7.45012,1.058123 9.8242,1.59237 3.17193,0.713785 7.34897,1.454719 4.0577,2.454772 -7.16106,2.175888 -9.64387,-1.06553 -13.93744,-1.943705 z"
         id="path6930" />
      <path
         inkscape:connector-curvature="0"
         style="display:inline;fill:#000000;stroke:none;stroke-width:1.5;stroke-linecap:round;stroke-linejoin:round"
         d="m 198.48727,80.263741 c 1.05495,-0.926289 -7.19744,1.332847 -8.99532,1.94356 -3.66959,1.246462 -14.00949,7.193016 -12.43423,7.809413 5.4932,2.149427 9.53357,-4.639636 13.49747,-6.353749 3.0894,-1.335956 7.18719,-2.745176 7.93208,-3.399224 z"
         id="path6932" />
      <path
         sodipodi:nodetypes="cc"
         inkscape:connector-curvature="0"
         style="display:inline;fill:none;stroke:#000000;stroke-width:1.5;stroke-linecap:round;stroke-linejoin:round;stroke-opacity:1"
         d="m 156.23862,124.87655 c -1.19052,2.87319 0.70768,4.94147 2.52077,6.22047"
         id="path6934" />
      <path
         sodipodi:nodetypes="cssc"
         inkscape:connector-curvature="0"
         style="display:inline;fill:none;stroke:#000000;stroke-width:1.5;stroke-linecap:round;stroke-linejoin:round;stroke-opacity:1"
         d="m 160.24679,100.55492 c -1.68478,-1.599945 -1.26721,-4.315823 -3.62527,-4.378414 -2.43975,-0.06473 -10.8905,1.125745 -12.86848,1.548562 -1.83647,0.392582 -5.66225,1.783962 -8.38397,2.673962"
         id="path6936" />
      <path
         sodipodi:nodetypes="cssc"
         inkscape:connector-curvature="0"
         style="display:inline;fill:none;stroke:#000000;stroke-width:1.5;stroke-linecap:round;stroke-linejoin:round;stroke-opacity:1"
         d="m 195.72409,91.827782 c -1.30991,-0.857786 -1.89983,-1.592866 -3.15156,-1.454268 -1.62443,0.179853 -10.36946,1.47224 -12.52884,2.687203 -1.07777,0.606401 -1.96213,3.886028 -3.40173,5.621283"
         id="path6938" />
      <path
         inkscape:connector-curvature="0"
         style="display:inline;fill:#deaa87;stroke:none;stroke-width:1.5;stroke-linecap:round;stroke-linejoin:round"
         d="m 172.96845,147.76938 c -2.92893,0.23283 -9.55399,1.29841 -14.43181,3.08331 -2.57,0.94041 3.76497,5.44333 7.98904,4.49646 3.52005,-0.78906 11.0526,-7.94621 6.44277,-7.57977 z"
         id="path6940" />
    </g>
    <g
       id="g2672"
       style="stroke:#000000;stroke-width:1.47145224"
       transform="matrix(1.0194011,0,0,1.0194011,-0.23094449,-8.8748468)">
      <path
         style="display:inline;opacity:0.95;fill:#241c1c;stroke:#000000;stroke-width:1.47145224;stroke-linecap:round;stroke-linejoin:round"
         d="M 99.114664,103.42039 136.12989,91.761111 c 8.39932,-2.645668 9.28125,9.610419 13.29193,16.616549 2.02915,3.54466 -1.46482,8.66547 -4.81011,3.91116 -3.35019,-4.76126 -0.83041,-20.925111 -7.44426,-18.273709 l -36.65834,14.695829 z"
         id="path6942"
         inkscape:connector-curvature="0"
         sodipodi:nodetypes="csssscc" />
      <path
         style="display:inline;opacity:0.8;fill:#280b0b;stroke:#000000;stroke-width:1.47145224;stroke-linecap:round;stroke-linejoin:round"
         d="m 34.620162,92.133904 c 2.484331,-0.478765 17.557812,4.422904 19.15491,5.44017 2.297195,1.463191 1.345597,1.518216 4.850946,1.020446 8.711605,-1.237046 30.937146,2.29991 40.488646,4.82587 0.626189,1.13034 1.476216,3.94378 1.394446,5.29055 -6.694296,5.8859 -12.649466,7.54845 -18.733596,8.32284 -4.533013,0.57695 -15.384836,-6.48959 -18.17819,-8.5474 -1.544668,-1.13792 -5.887131,-1.96654 -6.765413,-1.32049 -1.932295,1.42131 -5.849552,6.13771 -9.301113,5.00495 -4.028013,-1.32195 -10.018392,-8.27416 -12.687134,-14.88594 -0.515006,-1.403183 -0.600896,-3.496111 -0.223502,-5.150996 z"
         id="path6944"
         inkscape:connector-curvature="0"
         sodipodi:nodetypes="cssccsssscc" />
    </g>
    <g
       id="g2653"
       transform="matrix(1.0194011,0,0,1.0194011,-0.23094449,-8.8748468)"
       style="stroke-width:1.47145224">
      <path
         inkscape:connector-curvature="0"
         style="display:inline;fill:#deaa87;stroke:#000000;stroke-width:1.47145224;stroke-linecap:round;stroke-linejoin:round;stroke-opacity:1"
         d="m 133.80291,131.00634 c 2.13297,-3.79314 10.69516,-0.55505 14.41119,-8.25322 1.57056,-3.25361 2.54077,-6.48269 3.66142,-10.28264 1.27379,-4.31927 3.59299,-7.94502 3.50358,-13.075646 -0.177,-10.156995 -4.78882,-13.080596 -8.69852,-12.598249 -6.79403,0.838193 -8.92376,6.06747 -12.52338,9.68376"
         id="path6946"
         sodipodi:nodetypes="cccssc" />
      <path
         inkscape:connector-curvature="0"
         style="display:inline;fill:none;stroke:#000000;stroke-width:1.47145224;stroke-linecap:round;stroke-linejoin:round;stroke-opacity:1"
         d="m 145.15697,116.44627 c -3.21698,-0.66225 -4.59105,-6.06845 -6.17862,-9.29518 -1.50432,-3.05751 0.36622,-6.17658 1.0179,-8.530265 0.98576,-3.560198 6.02399,-8.297579 8.54376,-7.299525 2.50331,0.991536 2.90579,1.895184 3.43864,5.39318 0.88944,5.83884 -2.05383,16.5673 -5.90232,19.04987 -2.8242,1.82183 -5.60212,7.55039 -7.23198,6.01327 -1.59767,-1.50677 0.13316,-3.74638 0.22429,-5.45679 0.0549,-1.0305 -1.47757,-2.32582 -2.74643,-4.08864"
         id="path6948"
         sodipodi:nodetypes="csssssssc" />
    </g>
  </g>
  <g
     inkscape:groupmode="layer"
     id="layer7"
     inkscape:label="枠面"
     style="display:inline"
     sodipodi:insensitive="true">
    <path
       style="fill:#ffffff;stroke:none;display:inline"
       d="m 0,0 0,320 370,0 0,-320 -10,10 0,300 -350,0 0,-300 350,0 10,-10 z"
       id="path21072"
       inkscape:connector-curvature="0"
       sodipodi:nodetypes="ccccccccccc" />
  </g>
</svg>
