<?xml version="1.0" encoding="UTF-8" standalone="no"?>
<!-- Created with Inkscape (http://www.inkscape.org/) -->

<svg
   xmlns:dc="http://purl.org/dc/elements/1.1/"
   xmlns:cc="http://creativecommons.org/ns#"
   xmlns:rdf="http://www.w3.org/1999/02/22-rdf-syntax-ns#"
   xmlns:svg="http://www.w3.org/2000/svg"
   xmlns="http://www.w3.org/2000/svg"
   xmlns:sodipodi="http://sodipodi.sourceforge.net/DTD/sodipodi-0.dtd"
   xmlns:inkscape="http://www.inkscape.org/namespaces/inkscape"
   width="370"
   height="320"
   id="svg2"
   version="1.1"
   inkscape:version="0.92.3 (2405546, 2018-03-11)"
   sodipodi:docname="[02.遠望].svg"
   inkscape:export-filename="C:\Users\zhen-\Desktop\資料\臨時\HOSHI\02.png"
   inkscape:export-xdpi="96"
   inkscape:export-ydpi="96"
   enable-background="new">
  <defs
     id="defs4">
    <inkscape:perspective
       sodipodi:type="inkscape:persp3d"
       inkscape:vp_x="363.49708 : 943.81603 : 1"
       inkscape:vp_y="0 : 1000 : 0"
       inkscape:vp_z="744.09448 : 526.18109 : 1"
       inkscape:persp3d-origin="372.04724 : 350.78739 : 1"
       id="perspective5056" />
    <inkscape:perspective
       id="perspective5056-8"
       inkscape:persp3d-origin="372.04724 : 350.78739 : 1"
       inkscape:vp_z="744.09448 : 526.18109 : 1"
       inkscape:vp_y="0 : 1000 : 0"
       inkscape:vp_x="363.49708 : 943.81603 : 1"
       sodipodi:type="inkscape:persp3d" />
    <inkscape:perspective
       id="perspective5056-5"
       inkscape:persp3d-origin="372.04724 : 350.78739 : 1"
       inkscape:vp_z="744.09448 : 526.18109 : 1"
       inkscape:vp_y="0 : 1000 : 0"
       inkscape:vp_x="363.49708 : 943.81603 : 1"
       sodipodi:type="inkscape:persp3d" />
    <inkscape:perspective
       sodipodi:type="inkscape:persp3d"
       inkscape:vp_x="363.49708 : 943.81603 : 1"
       inkscape:vp_y="0 : 1000 : 0"
       inkscape:vp_z="744.09448 : 526.18109 : 1"
       inkscape:persp3d-origin="372.04724 : 350.78739 : 1"
       id="perspective5056-5-2" />
    <inkscape:perspective
       sodipodi:type="inkscape:persp3d"
       inkscape:vp_x="363.49708 : 943.81603 : 1"
       inkscape:vp_y="0 : 1000 : 0"
       inkscape:vp_z="744.09448 : 526.18109 : 1"
       inkscape:persp3d-origin="372.04724 : 350.78739 : 1"
       id="perspective5056-8-5" />
    <inkscape:perspective
       id="perspective5056-1"
       inkscape:persp3d-origin="372.04724 : 350.78739 : 1"
       inkscape:vp_z="744.09448 : 526.18109 : 1"
       inkscape:vp_y="0 : 1000 : 0"
       inkscape:vp_x="363.49708 : 943.81603 : 1"
       sodipodi:type="inkscape:persp3d" />
    <inkscape:perspective
       sodipodi:type="inkscape:persp3d"
       inkscape:vp_x="363.49708 : 943.81603 : 1"
       inkscape:vp_y="0 : 1000 : 0"
       inkscape:vp_z="744.09448 : 526.18109 : 1"
       inkscape:persp3d-origin="372.04724 : 350.78739 : 1"
       id="perspective5056-5-5" />
    <inkscape:perspective
       id="perspective5056-4"
       inkscape:persp3d-origin="372.04724 : 350.78739 : 1"
       inkscape:vp_z="744.09448 : 526.18109 : 1"
       inkscape:vp_y="0 : 1000 : 0"
       inkscape:vp_x="363.49708 : 943.81603 : 1"
       sodipodi:type="inkscape:persp3d" />
    <inkscape:perspective
       sodipodi:type="inkscape:persp3d"
       inkscape:vp_x="363.49708 : 943.81603 : 1"
       inkscape:vp_y="0 : 1000 : 0"
       inkscape:vp_z="744.09448 : 526.18109 : 1"
       inkscape:persp3d-origin="372.04724 : 350.78739 : 1"
       id="perspective5056-1-2" />
    <inkscape:perspective
       id="perspective5056-8-5-8"
       inkscape:persp3d-origin="372.04724 : 350.78739 : 1"
       inkscape:vp_z="744.09448 : 526.18109 : 1"
       inkscape:vp_y="0 : 1000 : 0"
       inkscape:vp_x="363.49708 : 943.81603 : 1"
       sodipodi:type="inkscape:persp3d" />
    <inkscape:perspective
       id="perspective5056-5-2-8"
       inkscape:persp3d-origin="372.04724 : 350.78739 : 1"
       inkscape:vp_z="744.09448 : 526.18109 : 1"
       inkscape:vp_y="0 : 1000 : 0"
       inkscape:vp_x="363.49708 : 943.81603 : 1"
       sodipodi:type="inkscape:persp3d" />
    <inkscape:perspective
       sodipodi:type="inkscape:persp3d"
       inkscape:vp_x="363.49708 : 943.81603 : 1"
       inkscape:vp_y="0 : 1000 : 0"
       inkscape:vp_z="744.09448 : 526.18109 : 1"
       inkscape:persp3d-origin="372.04724 : 350.78739 : 1"
       id="perspective5056-5-4" />
    <inkscape:perspective
       sodipodi:type="inkscape:persp3d"
       inkscape:vp_x="363.49708 : 943.81603 : 1"
       inkscape:vp_y="0 : 1000 : 0"
       inkscape:vp_z="744.09448 : 526.18109 : 1"
       inkscape:persp3d-origin="372.04724 : 350.78739 : 1"
       id="perspective5056-8-9" />
    <inkscape:perspective
       id="perspective5056-40"
       inkscape:persp3d-origin="372.04724 : 350.78739 : 1"
       inkscape:vp_z="744.09448 : 526.18109 : 1"
       inkscape:vp_y="0 : 1000 : 0"
       inkscape:vp_x="363.49708 : 943.81603 : 1"
       sodipodi:type="inkscape:persp3d" />
    <inkscape:perspective
       sodipodi:type="inkscape:persp3d"
       inkscape:vp_x="363.49708 : 943.81603 : 1"
       inkscape:vp_y="0 : 1000 : 0"
       inkscape:vp_z="744.09448 : 526.18109 : 1"
       inkscape:persp3d-origin="372.04724 : 350.78739 : 1"
       id="perspective5056-1-5" />
    <inkscape:perspective
       id="perspective5056-8-5-4"
       inkscape:persp3d-origin="372.04724 : 350.78739 : 1"
       inkscape:vp_z="744.09448 : 526.18109 : 1"
       inkscape:vp_y="0 : 1000 : 0"
       inkscape:vp_x="363.49708 : 943.81603 : 1"
       sodipodi:type="inkscape:persp3d" />
    <inkscape:perspective
       id="perspective5056-5-2-82"
       inkscape:persp3d-origin="372.04724 : 350.78739 : 1"
       inkscape:vp_z="744.09448 : 526.18109 : 1"
       inkscape:vp_y="0 : 1000 : 0"
       inkscape:vp_x="363.49708 : 943.81603 : 1"
       sodipodi:type="inkscape:persp3d" />
    <inkscape:perspective
       sodipodi:type="inkscape:persp3d"
       inkscape:vp_x="363.49708 : 943.81603 : 1"
       inkscape:vp_y="0 : 1000 : 0"
       inkscape:vp_z="744.09448 : 526.18109 : 1"
       inkscape:persp3d-origin="372.04724 : 350.78739 : 1"
       id="perspective5056-5-8" />
    <inkscape:perspective
       sodipodi:type="inkscape:persp3d"
       inkscape:vp_x="363.49708 : 943.81603 : 1"
       inkscape:vp_y="0 : 1000 : 0"
       inkscape:vp_z="744.09448 : 526.18109 : 1"
       inkscape:persp3d-origin="372.04724 : 350.78739 : 1"
       id="perspective5056-8-4" />
    <inkscape:perspective
       id="perspective5056-409"
       inkscape:persp3d-origin="372.04724 : 350.78739 : 1"
       inkscape:vp_z="744.09448 : 526.18109 : 1"
       inkscape:vp_y="0 : 1000 : 0"
       inkscape:vp_x="363.49708 : 943.81603 : 1"
       sodipodi:type="inkscape:persp3d" />
    <inkscape:perspective
       sodipodi:type="inkscape:persp3d"
       inkscape:vp_x="363.49708 : 943.81603 : 1"
       inkscape:vp_y="0 : 1000 : 0"
       inkscape:vp_z="744.09448 : 526.18109 : 1"
       inkscape:persp3d-origin="372.04724 : 350.78739 : 1"
       id="perspective5056-1-7" />
    <inkscape:perspective
       id="perspective5056-8-5-2"
       inkscape:persp3d-origin="372.04724 : 350.78739 : 1"
       inkscape:vp_z="744.09448 : 526.18109 : 1"
       inkscape:vp_y="0 : 1000 : 0"
       inkscape:vp_x="363.49708 : 943.81603 : 1"
       sodipodi:type="inkscape:persp3d" />
    <inkscape:perspective
       id="perspective5056-5-2-89"
       inkscape:persp3d-origin="372.04724 : 350.78739 : 1"
       inkscape:vp_z="744.09448 : 526.18109 : 1"
       inkscape:vp_y="0 : 1000 : 0"
       inkscape:vp_x="363.49708 : 943.81603 : 1"
       sodipodi:type="inkscape:persp3d" />
    <inkscape:perspective
       sodipodi:type="inkscape:persp3d"
       inkscape:vp_x="363.49708 : 943.81603 : 1"
       inkscape:vp_y="0 : 1000 : 0"
       inkscape:vp_z="744.09448 : 526.18109 : 1"
       inkscape:persp3d-origin="372.04724 : 350.78739 : 1"
       id="perspective5056-5-1" />
    <inkscape:perspective
       sodipodi:type="inkscape:persp3d"
       inkscape:vp_x="363.49708 : 943.81603 : 1"
       inkscape:vp_y="0 : 1000 : 0"
       inkscape:vp_z="744.09448 : 526.18109 : 1"
       inkscape:persp3d-origin="372.04724 : 350.78739 : 1"
       id="perspective5056-8-6" />
    <inkscape:perspective
       id="perspective5056-7"
       inkscape:persp3d-origin="372.04724 : 350.78739 : 1"
       inkscape:vp_z="744.09448 : 526.18109 : 1"
       inkscape:vp_y="0 : 1000 : 0"
       inkscape:vp_x="363.49708 : 943.81603 : 1"
       sodipodi:type="inkscape:persp3d" />
    <inkscape:perspective
       sodipodi:type="inkscape:persp3d"
       inkscape:vp_x="363.49708 : 943.81603 : 1"
       inkscape:vp_y="0 : 1000 : 0"
       inkscape:vp_z="744.09448 : 526.18109 : 1"
       inkscape:persp3d-origin="372.04724 : 350.78739 : 1"
       id="perspective5056-1-1" />
    <inkscape:perspective
       id="perspective5056-8-5-82"
       inkscape:persp3d-origin="372.04724 : 350.78739 : 1"
       inkscape:vp_z="744.09448 : 526.18109 : 1"
       inkscape:vp_y="0 : 1000 : 0"
       inkscape:vp_x="363.49708 : 943.81603 : 1"
       sodipodi:type="inkscape:persp3d" />
    <inkscape:perspective
       id="perspective5056-5-2-1"
       inkscape:persp3d-origin="372.04724 : 350.78739 : 1"
       inkscape:vp_z="744.09448 : 526.18109 : 1"
       inkscape:vp_y="0 : 1000 : 0"
       inkscape:vp_x="363.49708 : 943.81603 : 1"
       sodipodi:type="inkscape:persp3d" />
    <inkscape:perspective
       sodipodi:type="inkscape:persp3d"
       inkscape:vp_x="363.49708 : 943.81603 : 1"
       inkscape:vp_y="0 : 1000 : 0"
       inkscape:vp_z="744.09448 : 526.18109 : 1"
       inkscape:persp3d-origin="372.04724 : 350.78739 : 1"
       id="perspective5056-5-46" />
    <inkscape:perspective
       sodipodi:type="inkscape:persp3d"
       inkscape:vp_x="363.49708 : 943.81603 : 1"
       inkscape:vp_y="0 : 1000 : 0"
       inkscape:vp_z="744.09448 : 526.18109 : 1"
       inkscape:persp3d-origin="372.04724 : 350.78739 : 1"
       id="perspective5056-8-92" />
    <inkscape:perspective
       id="perspective5056-3"
       inkscape:persp3d-origin="372.04724 : 350.78739 : 1"
       inkscape:vp_z="744.09448 : 526.18109 : 1"
       inkscape:vp_y="0 : 1000 : 0"
       inkscape:vp_x="363.49708 : 943.81603 : 1"
       sodipodi:type="inkscape:persp3d" />
  </defs>
  <sodipodi:namedview
     id="base"
     pagecolor="#ffffff"
     bordercolor="#666666"
     borderopacity="1.0"
     inkscape:pageopacity="0.0"
     inkscape:pageshadow="2"
     inkscape:zoom="1.0917969"
     inkscape:cx="186.46176"
     inkscape:cy="98.019832"
     inkscape:document-units="px"
     inkscape:current-layer="g5126"
     showgrid="false"
     inkscape:window-width="1364"
     inkscape:window-height="990"
     inkscape:window-x="-6"
     inkscape:window-y="-4"
     inkscape:window-maximized="0"
     showguides="true"
     inkscape:guide-bbox="true"
     inkscape:snap-grids="false"
     inkscape:snap-to-guides="false"
     showborder="true"
     inkscape:showpageshadow="false"
     fit-margin-top="0"
     fit-margin-left="0"
     fit-margin-right="0"
     fit-margin-bottom="0"
     inkscape:snap-page="false"
     inkscape:snap-global="false" />
  <metadata
     id="metadata7">
    <rdf:RDF>
      <cc:Work
         rdf:about="">
        <dc:format>image/svg+xml</dc:format>
        <dc:type
           rdf:resource="http://purl.org/dc/dcmitype/StillImage" />
        <dc:title />
      </cc:Work>
    </rdf:RDF>
  </metadata>
  <g
     inkscape:groupmode="layer"
     id="layer2"
     inkscape:label="補助線"
     style="display:none"
     sodipodi:insensitive="true">
    <path
       style="fill:none;stroke:#0000ff;stroke-width:1px;stroke-linecap:butt;stroke-linejoin:miter;stroke-opacity:1"
       d="M 10,310 360,10"
       id="path3025"
       inkscape:connector-curvature="0"
       sodipodi:nodetypes="cc" />
    <path
       style="fill:none;stroke:#0000ff;stroke-width:1px;stroke-linecap:butt;stroke-linejoin:miter;stroke-opacity:1"
       d="M 10,10 360,310"
       id="path3027"
       inkscape:connector-curvature="0"
       sodipodi:nodetypes="cc" />
    <path
       style="display:inline;fill:none;stroke:#ff0000;stroke-width:1px;stroke-linecap:butt;stroke-linejoin:miter;stroke-opacity:1"
       d="M 10,0 V 320"
       id="path3006"
       inkscape:connector-curvature="0"
       sodipodi:nodetypes="cc" />
    <path
       style="display:inline;fill:none;stroke:#ff0000;stroke-width:1px;stroke-linecap:butt;stroke-linejoin:miter;stroke-opacity:1"
       d="M 360,0 V 320"
       id="path3010"
       inkscape:connector-curvature="0"
       sodipodi:nodetypes="cc" />
    <path
       style="display:inline;fill:none;stroke:#ff0000;stroke-width:1px;stroke-linecap:butt;stroke-linejoin:miter;stroke-opacity:1"
       d="M 0,9.9999681 370,10"
       id="path3016"
       inkscape:connector-curvature="0" />
    <path
       transform="translate(84.715796,27.711696)"
       style="display:inline;fill:none;stroke:#ff0000;stroke-width:1px;stroke-linecap:butt;stroke-linejoin:miter;stroke-opacity:1"
       d="M -84.715796,282.2883 H 285.2842"
       id="path3018"
       inkscape:connector-curvature="0"
       sodipodi:nodetypes="cc" />
  </g>
  <g
     style="display:inline"
     inkscape:label="吹き出し"
     id="g5126"
     inkscape:groupmode="layer"
     sodipodi:insensitive="true">
    <path
       style="display:inline;opacity:1;fill:#fefefe;fill-opacity:1;stroke:#000000;stroke-width:1.5;stroke-linecap:round;stroke-linejoin:round;stroke-miterlimit:4;stroke-dasharray:none;stroke-dashoffset:0;stroke-opacity:1"
       d="m 76.542858,265.65402 c 36.061322,0 65.294822,-56.42363 65.294822,-126.02571 0,-10.36572 9.33084,-27.41383 25.34316,-22.93037 -9.94363,-15.99656 -29.44861,-21.791604 -31.04661,-28.65762 -10.2127,-43.879914 -33.05312,-74.437703 -59.591372,-74.437703 -36.061323,0 -65.294806,56.423619 -65.294806,126.025693 0,69.60208 29.233483,126.02571 65.294806,126.02571 z"
       id="path7611-8"
       inkscape:connector-curvature="0"
       sodipodi:nodetypes="sscssss" />
    <text
       id="text4940-7"
       y="42.834805"
       x="99.180679"
       style="font-style:normal;font-weight:normal;font-size:11.31839943px;line-height:0%;font-family:sans-serif;letter-spacing:0px;word-spacing:0px;writing-mode:tb-rl;display:inline;fill:#000000;fill-opacity:1;stroke:none;stroke-width:1.41479993;stroke-linecap:round;stroke-linejoin:round"
       xml:space="preserve"><tspan
         id="tspan4250"
         style="font-style:normal;font-variant:normal;font-weight:normal;font-stretch:normal;font-size:31.27401543px;line-height:1.25;font-family:HGPMinchoE;-inkscape-font-specification:HGPMinchoE;stroke-width:1.41479993;stroke-linecap:round;stroke-linejoin:round"
         y="99.180679"
         x="42.834805"
         sodipodi:role="line">ここは</tspan><tspan
         style="font-style:normal;font-variant:normal;font-weight:normal;font-stretch:normal;font-size:31.27401543px;line-height:1.25;font-family:HGPMinchoE;-inkscape-font-specification:HGPMinchoE;stroke-width:1.41479993;stroke-linecap:round;stroke-linejoin:round"
         y="60.088161"
         x="42.834805"
         sodipodi:role="line"
         id="tspan14155">打って出るか</tspan></text>
    <text
       id="text4940-7-8"
       y="232.86198"
       x="59.315907"
       style="font-style:normal;font-weight:normal;font-size:11.31839943px;line-height:0%;font-family:sans-serif;letter-spacing:0px;word-spacing:0px;writing-mode:tb-rl;display:inline;fill:#000000;fill-opacity:1;stroke:none;stroke-width:1.41479993;stroke-linecap:round;stroke-linejoin:round"
       xml:space="preserve"><tspan
         style="font-style:normal;font-variant:normal;font-weight:normal;font-stretch:normal;font-size:31.27401543px;line-height:1.25;font-family:HGPMinchoE;-inkscape-font-specification:HGPMinchoE;stroke-width:1.41479993;stroke-linecap:round;stroke-linejoin:round"
         y="59.315907"
         x="232.86198"
         sodipodi:role="line"
         id="tspan14155-5">。</tspan></text>
  </g>
  <g
     inkscape:groupmode="layer"
     id="layer1"
     inkscape:label="豚"
     sodipodi:insensitive="true">
    <path
       style="fill:#deaa87;stroke:#000000;stroke-width:1.5;stroke-linecap:round;stroke-linejoin:round;stroke-opacity:1"
       d="m 195.98027,157.68652 c 9.03707,8.48194 5.9451,19.50621 4.24943,26.01876 l 66.98436,-17.24827 -48.57026,-18.39263 z"
       id="path6570-3"
       inkscape:connector-curvature="0"
       sodipodi:nodetypes="ccccc" />
    <path
       style="display:inline;fill:#deaa87;stroke:#000000;stroke-width:1.5;stroke-linecap:round;stroke-linejoin:round;stroke-opacity:1"
       d="m 263.20879,126.26148 c -2.10107,6.1624 -5.30676,11.87006 -7.6611,14.94633 -2.02942,2.65171 -21.89407,9.26496 -36.6667,13.02207 m -10.02332,2.19072 c -13.67224,3.13253 -23.91438,0.60824 -25.58823,-4.97631 -1.74153,-5.81029 -3.13383,-10.87694 -4.58098,-16.96018 -1.31416,-5.52385 -6.93458,-26.90458 -6.10279,-35.209221 0.31479,-3.14317 1.92862,-14.265965 2.27282,-19.077977 0.23432,-3.276228 -0.82467,-9.941394 -0.78697,-12.840836 0.0555,-4.272913 2.22162,-8.330551 3.72874,-11.940624 2.61291,-6.258687 8.45793,-18.071689 12.39394,-22.675094 8.18619,-9.57425 19.48044,-14.413667 32.2931,-17.871423 18.57299,-5.0123149 43.82004,5.777028 58.35709,26.621206 12.70196,18.212863 13.49447,42.524785 10.801,55.389162 -2.09085,9.986117 -7.86966,19.850387 -11.51343,24.962367 -2.4756,3.47318 -5.70951,8.21486 -6.94343,11.75674 -1.70515,4.89449 1.17623,25.37198 2.07404,33.43261"
       id="path6635-6-9-1-1-7"
       inkscape:connector-curvature="0"
       sodipodi:nodetypes="csccssssssssssssc" />
    <path
       style="display:inline;fill:#e9c6af;stroke:none;stroke-width:1.5;stroke-linecap:round;stroke-linejoin:round"
       d="m 181.19409,88.466699 c 4.08716,0.678802 8.44249,-3.331381 10.26601,-6.621401 l 1.53961,0.362553 c 1.14074,-1.960144 -0.75894,-9.056188 -2.36041,-10.821618 -0.58993,-0.650378 -3.86037,-1.883725 -4.56166,-2.993452 0.009,1.570602 3.93317,8.775781 1.76512,8.381256 l -8.58061,0.422381 c -2.63194,-2.550715 -3.51497,-9.027216 -0.33565,-10.265066 -0.69463,-1.907107 -2.51063,-4.339256 -1.72421,-6.453113 5.05193,-13.579281 12.4533,-26.49639 18.42479,-31.580418 7.87376,-6.703597 33.76027,-18.753366 51.26366,-8.546837 12.32757,7.188418 4.78099,25.794216 -2.49153,37.819525 -3.62985,6.001991 -14.91142,6.315971 -16.11445,7.879174 1.66494,2.69695 3.25764,5.311977 1.40954,9.047123 -1.60298,3.239823 -5.16519,2.519055 -6.88962,3.292053 l -12.62864,-0.639234 c -1.04332,-3.503581 0,-6.551101 3.66636,-10.761577 -5.49935,1.748989 -9.70895,2.60552 -12.57716,3.87331 -0.94082,0.415849 -1.81779,1.640779 -1.55818,3.180626 0.52495,3.113978 2.54693,5.752252 4.04543,7.759411 2.32948,3.120254 3.26475,7.305475 8.73881,10.01563 2.5484,1.26169 11.49477,-5.115893 13.27296,-5.106856 2.67368,0.01355 3.59598,3.525256 4.70494,6.716785 1.35607,3.902574 -4.42295,47.395306 -20.69616,57.743106 -9.123,5.80111 -21.2858,6.60514 -24.49078,0.81277 -2.81764,-5.09231 -5.74029,-21.80593 -3.90729,-24.15524 1.21729,-1.56016 2.73894,-7.58601 2.80852,-9.72569 -2.48836,3.33633 -6.16726,-6.58541 -8.29609,-12.18584 -1.83001,-4.81429 -1.63925,-13.872209 1.67262,-19.823989 1.25153,1.326964 0.92946,1.925443 3.63407,2.374628 z"
       id="path5573-3-9-8"
       inkscape:connector-curvature="0"
       sodipodi:nodetypes="sccsccccsssscscccssssssssscscs" />
    <path
       style="fill:#deaa87;stroke:none;stroke-width:1.5;stroke-linecap:round;stroke-linejoin:round"
       d="m 208.3727,111.89135 c -1.22676,0.0996 -3.04171,0.42542 -4.59525,-0.082 -2.8926,-0.94473 -4.0225,-2.85509 -6.64976,-3.87642 -1.67005,-0.64924 -3.2864,-1.31891 -4.30414,-1.59025 -1.70453,-0.45444 -2.88374,-2.41032 -5.29852,-2.70742 -2.20888,-0.27176 -3.62132,0.0978 -4.02094,2.06611 -0.82562,4.0668 -0.5393,2.51208 0.54361,5.33228 l 2.43766,6.34839 c 0.32062,-1.99054 1.01499,-5.44499 1.95344,-5.6481 0.68964,-0.14925 2.55835,-0.50093 3.30923,0.0782 0.58572,0.45172 1.94231,2.29728 3.24178,4.91633 -2.51643,-11.54433 10.03771,1.75951 13.38289,-4.83712 z"
       id="path3561-4"
       inkscape:connector-curvature="0"
       sodipodi:nodetypes="csssssscsscc" />
    <path
       style="display:inline;fill:#fefefe;fill-opacity:1;stroke:none;stroke-width:1.5;stroke-linecap:round;stroke-linejoin:round"
       d="m 186.97962,76.726856 4.05007,4.10633 -5.05527,0.782088 -9.81436,-0.598521 2.93233,-3.804686 z"
       id="path3337-0-4-0-1-8-6"
       inkscape:connector-curvature="0"
       sodipodi:nodetypes="cccccc" />
    <path
       style="display:inline;fill:#fefefe;fill-opacity:1;stroke:none;stroke-width:1.5;stroke-linecap:round;stroke-linejoin:round"
       d="m 209.73114,76.962262 10.8918,0.322445 7.49481,3.611375 -8.79614,1.54603 -12.08663,-1.548227 z"
       id="path3353-4-1-2-2-4-9"
       inkscape:connector-curvature="0"
       sodipodi:nodetypes="cccccc" />
    <path
       style="display:inline;fill:#fefefe;fill-opacity:1;stroke:#916f6f;stroke-width:1.5;stroke-linecap:round;stroke-linejoin:round;stroke-opacity:1"
       d="m 207.23498,80.893885 c 1.38956,0.54607 2.91041,4.171485 5.28754,4.344255 2.54745,0.185141 6.06575,0.154998 8.04605,-0.633285 2.02283,-0.805234 5.36573,-2.547332 7.54918,-3.708773"
       id="path3339-7-3-9-4-5"
       inkscape:connector-curvature="0"
       sodipodi:nodetypes="cssc" />
    <path
       style="display:inline;fill:#2b0000;stroke:none;stroke-width:1.5;stroke-linecap:round;stroke-linejoin:round"
       d="m 214.2586,82.849263 c 3.31487,0.268875 5.47956,-3.547981 5.79553,-5.736706 l -9.87065,-0.05772 c -0.19174,4.341328 2.39455,5.658109 4.07512,5.794421 z"
       id="path3357-1-2-4-7-5-3"
       inkscape:connector-curvature="0"
       sodipodi:nodetypes="cccsc" />
    <path
       style="display:inline;fill:#fefefe;fill-opacity:1;stroke:#916f6f;stroke-width:1.5;stroke-linecap:round;stroke-linejoin:round;stroke-opacity:1"
       d="m 176.16006,81.016753 c 0.83908,1.27877 3.30424,3.279806 4.52797,3.089625 1.8841,-0.292822 4.78745,-0.242265 7.33396,-0.628145 0.70579,-0.106956 2.53812,-2.193537 3.0077,-2.645047"
       id="path3355-7-9-3-0-3"
       inkscape:connector-curvature="0"
       sodipodi:nodetypes="cssc" />
    <path
       style="display:inline;fill:#2b0000;stroke:none;stroke-width:1.5;stroke-linecap:round;stroke-linejoin:round"
       d="m 178.72649,77.654715 c -0.13693,2.181042 0.63413,4.70894 2.89521,4.722425 2.68078,0.01601 3.73196,-3.281405 3.72012,-6.116823 z"
       id="path3357-0-8-6-7-0"
       inkscape:connector-curvature="0"
       sodipodi:nodetypes="cscc" />
    <path
       style="display:inline;fill:none;stroke:#000000;stroke-width:1.5;stroke-linecap:round;stroke-linejoin:round;stroke-opacity:1"
       d="m 189.98822,68.484049 c 1.19801,4.467765 3.71145,10.790433 3.02143,13.637706 -0.76632,3.162452 -9.19148,15.907695 -9.73901,18.887635 -0.37785,2.05652 -0.9624,4.94472 1.71932,10.43717"
       id="path6629-0-6-3-5-0"
       inkscape:connector-curvature="0"
       sodipodi:nodetypes="cssc" />
    <path
       style="display:inline;fill:#000000;stroke:none;stroke-width:1.5;stroke-linecap:round;stroke-linejoin:round"
       d="m 185.06582,114.25552 c 0.90387,-0.55355 1.45227,1.35304 3.75366,1.62167 3.11706,0.36375 4.17052,-2.28931 5.20952,-1.80401 4.38499,2.04869 16.42773,7.81214 17.2516,10.02713 0.83235,2.2376 0.29376,7.51906 -1.05933,7.07082 -6.01303,-1.99206 -15.96845,-5.13674 -20.41691,-5.6495 -6.29423,-0.72551 -7.24722,2.33841 -10.09691,1.70841 -0.63085,-0.13946 -2.59896,-6.39272 -1.42743,-7.3946 1.05204,-1.96944 5.41045,-4.73761 6.7858,-5.57992 z"
       id="path6633-4-0-6-4-8"
       inkscape:connector-curvature="0"
       sodipodi:nodetypes="ssssssscs" />
    <path
       style="display:inline;fill:none;stroke:#000000;stroke-width:1.5;stroke-linecap:round;stroke-linejoin:round;stroke-opacity:1"
       d="m 199.50098,68.343469 c -1.00955,2.228241 0.0474,4.312861 0.40313,5.762927"
       id="path6643-0-0-5-2-6"
       inkscape:connector-curvature="0"
       sodipodi:nodetypes="cc" />
    <path
       style="display:inline;fill:#000000;stroke:none;stroke-width:1.5;stroke-linecap:round;stroke-linejoin:round"
       d="m 202.9137,71.946622 c 6.61296,0.672692 10.63082,-3.301597 17.22886,-3.703464 5.44801,-0.331818 15.9033,-0.288957 14.0955,-0.983589 -3.97021,-1.525533 -9.72481,-1.450317 -15.20124,-1.106734 -2.00739,0.12594 -5.83366,0.292467 -9.51068,1.338834 -4.19747,1.194464 -12.95002,3.810272 -6.61244,4.454953 z"
       id="path6645-7-0-4-0-3"
       inkscape:connector-curvature="0"
       sodipodi:nodetypes="ssssss" />
    <path
       style="display:inline;fill:#000000;stroke:none;stroke-width:1.5;stroke-linecap:round;stroke-linejoin:round"
       d="m 174.78171,65.903713 c 1.10509,-0.503674 4.56853,0.227955 7.28707,0.622162 3.31775,0.4811 8.99941,3.67882 7.64145,4.223914 -4.04713,1.624575 -5.82106,-1.594777 -9.40169,-2.660028 -3.56211,-1.059724 -6.9826,-1.522512 -5.52683,-2.186048 z"
       id="path6647-1-6-2-0-5"
       inkscape:connector-curvature="0"
       sodipodi:nodetypes="sssss" />
    <path
       style="display:inline;fill:none;stroke:#000000;stroke-width:1.5;stroke-linecap:round;stroke-linejoin:round;stroke-opacity:1"
       d="m 208.44877,109.4097 c 0.37698,1.96086 -0.64398,3.92528 -2.27657,4.02257"
       id="path6649-7-1-0-1-6"
       inkscape:connector-curvature="0"
       sodipodi:nodetypes="cc" />
    <path
       style="display:inline;fill:none;stroke:#000000;stroke-width:1.5;stroke-linecap:round;stroke-linejoin:round;stroke-opacity:1"
       d="m 206.02229,81.885544 c 2.34662,-1.815319 1.54354,-4.4033 3.70885,-4.923282 2.56829,-0.616763 7.15003,-0.345577 10.8918,0.322445 3.3107,0.591067 7.40808,3.667157 9.9318,4.635845"
       id="path3337-7-8-7-6-8"
       inkscape:connector-curvature="0"
       sodipodi:nodetypes="cssc" />
    <path
       style="display:inline;fill:none;stroke:#000000;stroke-width:1.5;stroke-linecap:round;stroke-linejoin:round;stroke-opacity:1"
       d="m 175.41125,82.330433 c 1.10228,-1.650124 1.74702,-4.832677 3.68114,-5.118366 1.63135,-0.241118 5.96235,-1.287111 7.88723,-0.485211 1.07728,0.448797 3.17897,2.727795 4.61959,4.962032"
       id="path3353-3-3-7-7-9"
       inkscape:connector-curvature="0"
       sodipodi:nodetypes="cssc" />
    <path
       style="display:inline;opacity:0.95;fill:#deaa87;stroke:#000000;stroke-width:1.5;stroke-linecap:round;stroke-linejoin:round;stroke-opacity:1"
       d="m 265.09237,123.66958 c 2.65213,-2.64103 9.9589,5.17382 13.82846,-1.43249 2.45561,-4.19237 6.7434,-9.08187 9.48112,-17.69202 2.71479,-8.538078 1.39416,-14.710616 -0.28354,-17.321653 -3.24931,-5.056954 -9.3023,-2.725066 -13.68653,1.348587"
       id="path6637-1-1-2-1-4"
       inkscape:connector-curvature="0"
       sodipodi:nodetypes="csssc" />
    <path
       style="display:inline;opacity:0.95;fill:none;stroke:#000000;stroke-width:1.5;stroke-linecap:round;stroke-linejoin:round;stroke-opacity:1"
       d="m 278.32985,113.14326 c -0.88744,-2.24181 -4.07574,-4.82644 -4.35861,-7.92156 -0.26804,-2.93276 -0.2689,-7.549811 0.87536,-9.356121 1.73087,-2.732285 6.26169,-7.099076 8.85954,-6.410649 2.08327,0.552071 3.02983,4.376709 3.17041,7.486997 0.34458,7.623773 -5.19778,16.802533 -10.10455,16.715293 -2.75026,-0.0489 -7.33812,4.24683 -8.12486,2.55456 -0.77115,-1.65887 2.51245,-4.0861 3.05857,-5.49412 0.32905,-0.84832 -1.64703,-4.19329 -1.57172,-6.46867"
       id="path6639-8-8-6-7-8"
       inkscape:connector-curvature="0"
       sodipodi:nodetypes="csssssssc" />
    <path
       style="fill:none;stroke:#000000;stroke-width:1.5;stroke-linecap:round;stroke-linejoin:round;stroke-opacity:1"
       d="m 198.34245,112.29865 c -1.75669,-2.34245 -4.65902,-3.14684 -7.62244,-4.68482"
       id="path3823-9"
       inkscape:connector-curvature="0"
       sodipodi:nodetypes="cc" />
    <path
       style="display:inline;fill:none;stroke:#000000;stroke-width:1.5;stroke-linecap:round;stroke-linejoin:round;stroke-opacity:1"
       d="m 186.99468,111.25696 c -0.27552,-0.66519 -1.02688,-2.60423 -1.0958,-3.13091"
       id="path3823-1-7"
       inkscape:connector-curvature="0"
       sodipodi:nodetypes="cc" />
    <path
       style="display:inline;fill:#deaa87;stroke:none;stroke-width:1.5;stroke-linecap:round;stroke-linejoin:round"
       d="m 198.56357,133.0681 c 0.463,-1.44116 -3.40969,-2.51961 -6.56389,-3.32774 -3.2792,-0.84014 -6.17142,-0.80246 -6.05201,0.36615 0.23569,2.30674 2.02482,4.26137 5.83385,5.27572 3.17419,0.84529 6.09004,-0.15977 6.78205,-2.31413 z"
       id="path6710-3-4-7-4-0-6"
       inkscape:connector-curvature="0"
       sodipodi:nodetypes="sssss" />
    <g
       style="display:inline;stroke:#000000;stroke-width:1.32383323;stroke-linecap:round;stroke-linejoin:round"
       transform="matrix(-1.0773661,0.40224327,0.39048415,1.0458705,1849.1859,-533.35096)"
       id="g4680-9-3-1" />
    <path
       style="display:inline;fill:#dbdee3;stroke:none;stroke-width:1.5;stroke-linecap:round;stroke-linejoin:round"
       d="M 186.35933,188.19766 272.31835,172.56793 168.65333,345.78544 Z"
       id="path4684-5-5-2-1"
       inkscape:connector-curvature="0"
       sodipodi:nodetypes="cccc" />
    <path
       style="display:inline;fill:#550000;stroke:#000000;stroke-width:1.5;stroke-linecap:round;stroke-linejoin:round;stroke-opacity:1"
       d="m 199.86372,201.96166 c -11.26872,28.31319 -22.1151,73.01289 -28.23855,108.41994 0.94105,8.5798 6.1736,25.36087 13.32619,34.60102 10.39598,-8.79713 18.69126,-36.47716 18.69126,-36.47716 1.24996,-35.60407 -2.64465,-73.43946 5.1439,-105.66396 l -5.45907,-4.71798 z"
       id="path6770-0-4-6-9"
       inkscape:connector-curvature="0"
       sodipodi:nodetypes="ccccccc" />
    <path
       style="display:inline;fill:#550000;stroke:#000000;stroke-width:1.5;stroke-linecap:round;stroke-linejoin:round;stroke-opacity:1"
       d="m 199.28782,178.47431 14.4732,-0.0467 7.17879,5.64108 c -3.07413,7.00843 -9.36758,14.13054 -12.07854,20.28586 -3.28773,-3.21394 -8.38997,-3.33951 -9.81938,-1.27004 -0.51531,-5.51022 -3.91616,-13.20622 -3.71945,-18.18496 z"
       id="path6768-9-1-6-6"
       inkscape:connector-curvature="0"
       sodipodi:nodetypes="ccccccc" />
    <path
       style="display:inline;fill:#dbdbe3;stroke:#000000;stroke-width:1.5;stroke-linecap:round;stroke-linejoin:round;stroke-opacity:1"
       d="m 205.13258,177.86213 c -6.15039,4.88277 -13.42074,20.95488 -17.03189,31.12257 1.20737,-11.64959 5.58644,-24.88665 9.11835,-34.61515 l 3.90173,-8.29915 c -0.28245,3.82975 2.69511,10.10117 4.01181,11.79173 z"
       id="path6762-7-2-0-4"
       inkscape:connector-curvature="0"
       sodipodi:nodetypes="ccccc" />
    <path
       style="display:inline;fill:#1c1f24;stroke:#000000;stroke-width:1.5;stroke-linecap:round;stroke-linejoin:round;stroke-opacity:1"
       d="m 154.54437,192.47604 c -15.37485,18.7754 -33.61222,61.18526 -49.80332,85.38213 -7.76847,11.60962 -19.481177,31.03256 -13.744805,45.51305 3.083068,7.78264 12.418215,18.68451 28.370695,16.98169 7.93542,-0.84703 60.34243,-21.64272 71.57566,-35.01863"
       id="path10001-9-9-6-1-1-4"
       inkscape:connector-curvature="0"
       sodipodi:nodetypes="csssc" />
    <path
       style="display:inline;fill:#1c1f24;stroke:#000000;stroke-width:1.5;stroke-linecap:round;stroke-linejoin:round;stroke-opacity:1"
       d="m 193.20714,175.43728 c -6.41268,3.29347 -29.7714,10.76329 -36.81312,15.25208 -6.6296,4.22608 -11.96197,29.29401 -12.62829,48.88698 -0.65233,19.18132 1.57225,57.51892 2.18904,74.89996 0.55855,15.7398 -4.88956,91.13571 -4.83753,137.1826 l 41.15124,-126.92695 -0.70585,-114.68922 z"
       id="path30747"
       inkscape:connector-curvature="0"
       sodipodi:nodetypes="cssscccc" />
    <path
       style="display:inline;fill:#1c1f24;stroke:#000000;stroke-width:1.5;stroke-linecap:round;stroke-linejoin:round;stroke-opacity:1"
       d="m 187.5986,209.11128 c 2.24237,-10.44543 7.42364,-29.5665 12.09896,-40.61224 -1.43574,0.96729 -4.09448,4.18096 -6.97959,6.42702 -3.3269,2.59001 -12.40231,23.72321 -19.01483,33.57959 l 4.56767,11.53233 z"
       id="path3341-7-0-1-6-8-5"
       inkscape:connector-curvature="0"
       sodipodi:nodetypes="cccccc" />
    <path
       style="display:inline;fill:#1c1f24;stroke:#000000;stroke-width:1.5;stroke-linecap:round;stroke-linejoin:round;stroke-opacity:1"
       d="m 141.11724,451.6589 c 18.33139,-4.45537 44.5114,7.325 52.93377,3.80767 7.2163,-3.01365 9.83637,-9.20104 9.50162,-14.00987 -2.41102,-34.63563 -18.1151,-119.60423 -18.62034,-127.00795 -3.03311,-44.44659 -4.73986,-70.83797 2.66631,-105.33747 l -20.12337,13.38695 c 3.82606,26.22638 3.98594,58.79918 13.04676,91.24297"
       id="path30745"
       inkscape:connector-curvature="0"
       sodipodi:nodetypes="csssccc" />
    <path
       style="display:inline;fill:#dbdbe3;stroke:#000000;stroke-width:1.5;stroke-linecap:round;stroke-linejoin:round;stroke-opacity:1"
       d="m 275.68432,157.06233 c -0.1089,-4.18126 -0.9055,-9.0644 -1.81217,-11.65427 -5.94963,4.96085 -43.59162,21.99049 -66.53384,31.84418 7.2818,5.54342 12.50997,19.20394 20.97288,33.01228 21.68031,-26.02851 34.82573,-38.39737 47.37313,-53.20219 z"
       id="path6657-6-4-0-2"
       inkscape:connector-curvature="0"
       sodipodi:nodetypes="ccccc" />
    <path
       style="display:inline;fill:#1c1f24;stroke:#000000;stroke-width:1.5;stroke-linecap:round;stroke-linejoin:round;stroke-opacity:1"
       d="m 280.32177,160.52206 c 13.65752,8.43103 36.63594,20.47847 50.3475,27.57871 8.41223,4.35609 11.62204,31.82506 8.36943,44.95275 -4.5426,18.33409 -27.03614,72.90175 -30.91303,106.96113 -1.29963,11.41756 9.33753,64.70666 10.13279,112.87597 l -142.00801,-138.94223 60.48328,-92.58672 26.53481,-47.12309 z"
       id="path30753"
       inkscape:connector-curvature="0"
       sodipodi:nodetypes="csssccccc" />
    <path
       style="display:inline;fill:#1c1f24;stroke:#000000;stroke-width:1.5;stroke-linecap:round;stroke-linejoin:round;stroke-opacity:1"
       d="m 230.77337,207.03063 c 12.0889,-23.03377 42.96542,-49.95711 44.77542,-57.09642 2.49819,3.19921 3.80689,6.93216 6.73515,11.319 -6.44976,-0.93399 -20.70824,31.86556 -21.93694,50.44862 -6.8252,2.16254 -14.12754,9.46151 -19.70091,11.34106 z"
       id="path6659-6-6-1-3"
       inkscape:connector-curvature="0"
       sodipodi:nodetypes="cccccc" />
    <path
       style="display:inline;fill:#1c1f24;stroke:#000000;stroke-width:1.5;stroke-linecap:round;stroke-linejoin:round;stroke-opacity:1"
       d="m 318.25846,452.89062 c -18.00361,3.27948 -65.76734,2.66517 -125.99024,1.74978 -6.63366,0.12065 -17.47105,-8.28051 -18.59225,-17.97414 -4.40533,-38.08707 -1.93101,-119.08728 -0.22355,-122.60118 10.43838,-21.48174 43.07532,-83.28602 57.32095,-107.03445 l 25.28385,22.31993 c -17.71862,14.06206 -58.09924,63.26551 -78.73688,85.35038"
       id="path30751"
       inkscape:connector-curvature="0"
       sodipodi:nodetypes="ccccccc" />
    <path
       style="fill:#e9c6af;stroke:#000000;stroke-width:1.5;stroke-linecap:round;stroke-linejoin:round;stroke-opacity:1"
       d="m 124.53104,290.00944 c 0.53312,-1.85367 -0.53758,-7.15637 0.3872,-9.30187 2.48019,-5.7539 13.67404,-14.7623 18.15207,-15.10443 8.37375,-0.63973 19.2887,7.81546 29.89655,8.96017 l -10.98494,20.46963 c -12.41211,-2.1272 -21.73732,-5.58591 -37.45088,-5.0235 z"
       id="path11364-8"
       inkscape:connector-curvature="0"
       sodipodi:nodetypes="cssccc" />
    <path
       style="fill:#dbdbe3;stroke:#000000;stroke-width:1.5;stroke-linecap:round;stroke-linejoin:round;stroke-opacity:1"
       d="m 142.19084,291.19439 c 0.9592,-7.11909 6.02395,-21.08631 19.07878,-21.47511 3.22443,1.62532 5.21672,2.65864 8.34553,4.55061 l -23.79185,19.51279 z"
       id="path11366-2"
       inkscape:connector-curvature="0"
       sodipodi:nodetypes="ccccc" />
    <path
       style="fill:#1c1f24;stroke:#000000;stroke-width:1.5;stroke-linecap:round;stroke-linejoin:round;stroke-opacity:1"
       d="m 114.8332,291.12797 c 16.005,-5.2261 70.62453,7.71893 105.11536,4.00054 5.40896,11.67183 3.23823,27.41308 9.86883,47.63667 -27.37101,-0.87457 -47.62476,-0.26409 -72.27235,-1.0126 -21.83753,-0.66315 -37.08861,0.0271 -40.73675,-2.03396"
       id="path11362-6"
       inkscape:connector-curvature="0"
       sodipodi:nodetypes="cccsc" />
    <path
       style="fill:#1c1f24;stroke:#000000;stroke-width:1.5;stroke-linecap:round;stroke-linejoin:round;stroke-opacity:1"
       d="m 245.0903,293.32305 c 16.21343,-25.99274 33.22687,-61.39972 54.68709,-88.38155 8.71652,-10.95923 22.33432,-19.15727 30.11945,-16.70095 6.43148,2.02922 16.05349,27.9043 10.28575,53.40377 -3.96947,17.54919 -24.50353,47.14106 -35.83714,66.87878 -19.11005,33.28046 -38.67233,46.08514 -51.47813,48.05365 -9.80856,1.50777 -44.15468,-28.40263 -63.66142,-41.71449 -14.35874,-9.79873 -27.19014,-19.84011 -44.38334,-23.94759 5.26217,-14.17274 17.99661,-20.63864 23.0019,-20.69892 11.07548,1.06044 61.31298,19.32559 84.82646,27.21672"
       id="path3726-6"
       inkscape:connector-curvature="0"
       sodipodi:nodetypes="cssssssccc" />
    <path
       style="fill:#e9c6af;stroke:#000000;stroke-width:1.5;stroke-linecap:round;stroke-linejoin:round;stroke-opacity:1"
       d="m 250.83936,271.66204 c 0,0 3.54701,-10.6311 8.45722,-11.55244 2.64257,-0.4958 12.6166,2.28585 20.04781,4.96806 7.28496,2.62945 5.14206,7.40846 -0.81087,7.33806 -3.59154,-0.0426 -13.69668,-1.92585 -17.75904,-2.8424 -1.25849,2.02244 -3.79875,7.8416 -3.79875,7.8416"
       id="path11303-3"
       inkscape:connector-curvature="0"
       sodipodi:nodetypes="cssscc" />
    <path
       style="display:inline;fill:#e9c6af;stroke:#000000;stroke-width:1.5;stroke-linecap:round;stroke-linejoin:round;stroke-opacity:1"
       d="m 247.31521,280.45563 c 0,0 0.90614,-14.79566 5.02989,-14.57097 4.00746,0.21829 16.60784,7.86091 21.32735,12.78299 5.93385,6.18879 -0.009,8.90474 -3.62442,6.2297 -3.07048,-2.27177 -11.05287,-5.93187 -14.61754,-7.71936 -0.45794,1.63412 -1.27519,4.63184 -1.27519,4.63184"
       id="path11303-8-9"
       inkscape:connector-curvature="0"
       sodipodi:nodetypes="cssscc" />
    <path
       style="display:inline;fill:#e9c6af;stroke:#000000;stroke-width:1.5;stroke-linecap:round;stroke-linejoin:round;stroke-opacity:1"
       d="m 244.6741,287.52505 c -1.36689,-3.60873 -0.69526,-11.71583 4.52494,-11.12142 4.48142,0.51032 12.01513,5.59879 15.52016,9.38897 6.13684,6.63632 -0.54049,8.75718 -3.6723,6.46716 -2.93105,-2.14318 -8.17372,-4.85381 -11.73844,-6.64126 -2.12934,1.89803 -3.47439,7.53486 -3.47439,7.53486"
       id="path11303-0-4"
       inkscape:connector-curvature="0"
       sodipodi:nodetypes="cssscc" />
    <path
       style="display:inline;fill:#e9c6af;stroke:#000000;stroke-width:1.5;stroke-linecap:round;stroke-linejoin:round;stroke-opacity:1"
       d="m 248.52219,285.42558 c 2.1744,1.02049 6.09235,4.41238 9.0997,9.69552 4.47159,7.85535 -2.00976,7.64495 -5.04073,5.22306 -2.68226,-2.14323 -5.23686,-4.04077 -6.93542,-5.57947 -0.86915,-0.48176 -2.5346,-0.32727 -3.94326,-1.50409 -2.18197,-3.11071 0.98394,-10.57407 6.81971,-7.83502 z"
       id="path11303-7-5"
       inkscape:connector-curvature="0"
       sodipodi:nodetypes="sssccs" />
    <g
       style="display:inline;stroke:#000000;stroke-width:0.76959163;stroke-linecap:round;stroke-linejoin:round"
       transform="matrix(1.2203294,1.5569628,-1.5114468,1.1846544,-237.30603,-2424.6945)"
       id="g4680-9-9-5" />
  </g>
  <g
     inkscape:groupmode="layer"
     id="layer7"
     inkscape:label="枠面"
     style="display:inline"
     sodipodi:insensitive="true">
    <path
       style="fill:#ffffff;stroke:none;display:inline"
       d="m 0,0 0,320 370,0 0,-320 -10,10 0,300 -350,0 0,-300 350,0 10,-10 z"
       id="path21072"
       inkscape:connector-curvature="0"
       sodipodi:nodetypes="ccccccccccc" />
  </g>
</svg>
