<?xml version="1.0" encoding="UTF-8" standalone="no"?>
<!-- Created with Inkscape (http://www.inkscape.org/) -->

<svg
   xmlns:dc="http://purl.org/dc/elements/1.1/"
   xmlns:cc="http://creativecommons.org/ns#"
   xmlns:rdf="http://www.w3.org/1999/02/22-rdf-syntax-ns#"
   xmlns:svg="http://www.w3.org/2000/svg"
   xmlns="http://www.w3.org/2000/svg"
   xmlns:sodipodi="http://sodipodi.sourceforge.net/DTD/sodipodi-0.dtd"
   xmlns:inkscape="http://www.inkscape.org/namespaces/inkscape"
   width="370"
   height="320"
   id="svg2"
   version="1.1"
   inkscape:version="0.48.4 r9939"
   sodipodi:docname="[16.独白].svg"
   inkscape:export-filename="C:\Users\root\Desktop\資料\作業\SANARO\ORG\[01.行動]03..png"
   inkscape:export-xdpi="90"
   inkscape:export-ydpi="90"
   enable-background="new">
  <defs
     id="defs4">
    <inkscape:perspective
       sodipodi:type="inkscape:persp3d"
       inkscape:vp_x="363.49708 : 943.81603 : 1"
       inkscape:vp_y="0 : 1000 : 0"
       inkscape:vp_z="744.09448 : 526.18109 : 1"
       inkscape:persp3d-origin="372.04724 : 350.78739 : 1"
       id="perspective5056" />
    <inkscape:perspective
       id="perspective5056-8"
       inkscape:persp3d-origin="372.04724 : 350.78739 : 1"
       inkscape:vp_z="744.09448 : 526.18109 : 1"
       inkscape:vp_y="0 : 1000 : 0"
       inkscape:vp_x="363.49708 : 943.81603 : 1"
       sodipodi:type="inkscape:persp3d" />
    <inkscape:perspective
       id="perspective5056-5"
       inkscape:persp3d-origin="372.04724 : 350.78739 : 1"
       inkscape:vp_z="744.09448 : 526.18109 : 1"
       inkscape:vp_y="0 : 1000 : 0"
       inkscape:vp_x="363.49708 : 943.81603 : 1"
       sodipodi:type="inkscape:persp3d" />
    <inkscape:perspective
       sodipodi:type="inkscape:persp3d"
       inkscape:vp_x="363.49708 : 943.81603 : 1"
       inkscape:vp_y="0 : 1000 : 0"
       inkscape:vp_z="744.09448 : 526.18109 : 1"
       inkscape:persp3d-origin="372.04724 : 350.78739 : 1"
       id="perspective5056-5-2" />
    <inkscape:perspective
       sodipodi:type="inkscape:persp3d"
       inkscape:vp_x="363.49708 : 943.81603 : 1"
       inkscape:vp_y="0 : 1000 : 0"
       inkscape:vp_z="744.09448 : 526.18109 : 1"
       inkscape:persp3d-origin="372.04724 : 350.78739 : 1"
       id="perspective5056-8-5" />
    <inkscape:perspective
       id="perspective5056-1"
       inkscape:persp3d-origin="372.04724 : 350.78739 : 1"
       inkscape:vp_z="744.09448 : 526.18109 : 1"
       inkscape:vp_y="0 : 1000 : 0"
       inkscape:vp_x="363.49708 : 943.81603 : 1"
       sodipodi:type="inkscape:persp3d" />
    <inkscape:perspective
       sodipodi:type="inkscape:persp3d"
       inkscape:vp_x="363.49708 : 943.81603 : 1"
       inkscape:vp_y="0 : 1000 : 0"
       inkscape:vp_z="744.09448 : 526.18109 : 1"
       inkscape:persp3d-origin="372.04724 : 350.78739 : 1"
       id="perspective5056-5-5" />
    <inkscape:perspective
       id="perspective5056-4"
       inkscape:persp3d-origin="372.04724 : 350.78739 : 1"
       inkscape:vp_z="744.09448 : 526.18109 : 1"
       inkscape:vp_y="0 : 1000 : 0"
       inkscape:vp_x="363.49708 : 943.81603 : 1"
       sodipodi:type="inkscape:persp3d" />
    <inkscape:perspective
       sodipodi:type="inkscape:persp3d"
       inkscape:vp_x="363.49708 : 943.81603 : 1"
       inkscape:vp_y="0 : 1000 : 0"
       inkscape:vp_z="744.09448 : 526.18109 : 1"
       inkscape:persp3d-origin="372.04724 : 350.78739 : 1"
       id="perspective5056-1-2" />
    <inkscape:perspective
       id="perspective5056-8-5-8"
       inkscape:persp3d-origin="372.04724 : 350.78739 : 1"
       inkscape:vp_z="744.09448 : 526.18109 : 1"
       inkscape:vp_y="0 : 1000 : 0"
       inkscape:vp_x="363.49708 : 943.81603 : 1"
       sodipodi:type="inkscape:persp3d" />
    <inkscape:perspective
       id="perspective5056-5-2-8"
       inkscape:persp3d-origin="372.04724 : 350.78739 : 1"
       inkscape:vp_z="744.09448 : 526.18109 : 1"
       inkscape:vp_y="0 : 1000 : 0"
       inkscape:vp_x="363.49708 : 943.81603 : 1"
       sodipodi:type="inkscape:persp3d" />
    <inkscape:perspective
       sodipodi:type="inkscape:persp3d"
       inkscape:vp_x="363.49708 : 943.81603 : 1"
       inkscape:vp_y="0 : 1000 : 0"
       inkscape:vp_z="744.09448 : 526.18109 : 1"
       inkscape:persp3d-origin="372.04724 : 350.78739 : 1"
       id="perspective5056-5-4" />
    <inkscape:perspective
       sodipodi:type="inkscape:persp3d"
       inkscape:vp_x="363.49708 : 943.81603 : 1"
       inkscape:vp_y="0 : 1000 : 0"
       inkscape:vp_z="744.09448 : 526.18109 : 1"
       inkscape:persp3d-origin="372.04724 : 350.78739 : 1"
       id="perspective5056-8-9" />
    <inkscape:perspective
       id="perspective5056-40"
       inkscape:persp3d-origin="372.04724 : 350.78739 : 1"
       inkscape:vp_z="744.09448 : 526.18109 : 1"
       inkscape:vp_y="0 : 1000 : 0"
       inkscape:vp_x="363.49708 : 943.81603 : 1"
       sodipodi:type="inkscape:persp3d" />
    <inkscape:perspective
       sodipodi:type="inkscape:persp3d"
       inkscape:vp_x="363.49708 : 943.81603 : 1"
       inkscape:vp_y="0 : 1000 : 0"
       inkscape:vp_z="744.09448 : 526.18109 : 1"
       inkscape:persp3d-origin="372.04724 : 350.78739 : 1"
       id="perspective5056-1-5" />
    <inkscape:perspective
       id="perspective5056-8-5-4"
       inkscape:persp3d-origin="372.04724 : 350.78739 : 1"
       inkscape:vp_z="744.09448 : 526.18109 : 1"
       inkscape:vp_y="0 : 1000 : 0"
       inkscape:vp_x="363.49708 : 943.81603 : 1"
       sodipodi:type="inkscape:persp3d" />
    <inkscape:perspective
       id="perspective5056-5-2-82"
       inkscape:persp3d-origin="372.04724 : 350.78739 : 1"
       inkscape:vp_z="744.09448 : 526.18109 : 1"
       inkscape:vp_y="0 : 1000 : 0"
       inkscape:vp_x="363.49708 : 943.81603 : 1"
       sodipodi:type="inkscape:persp3d" />
    <inkscape:perspective
       sodipodi:type="inkscape:persp3d"
       inkscape:vp_x="363.49708 : 943.81603 : 1"
       inkscape:vp_y="0 : 1000 : 0"
       inkscape:vp_z="744.09448 : 526.18109 : 1"
       inkscape:persp3d-origin="372.04724 : 350.78739 : 1"
       id="perspective5056-5-8" />
    <inkscape:perspective
       sodipodi:type="inkscape:persp3d"
       inkscape:vp_x="363.49708 : 943.81603 : 1"
       inkscape:vp_y="0 : 1000 : 0"
       inkscape:vp_z="744.09448 : 526.18109 : 1"
       inkscape:persp3d-origin="372.04724 : 350.78739 : 1"
       id="perspective5056-8-4" />
    <inkscape:perspective
       id="perspective5056-409"
       inkscape:persp3d-origin="372.04724 : 350.78739 : 1"
       inkscape:vp_z="744.09448 : 526.18109 : 1"
       inkscape:vp_y="0 : 1000 : 0"
       inkscape:vp_x="363.49708 : 943.81603 : 1"
       sodipodi:type="inkscape:persp3d" />
    <inkscape:perspective
       sodipodi:type="inkscape:persp3d"
       inkscape:vp_x="363.49708 : 943.81603 : 1"
       inkscape:vp_y="0 : 1000 : 0"
       inkscape:vp_z="744.09448 : 526.18109 : 1"
       inkscape:persp3d-origin="372.04724 : 350.78739 : 1"
       id="perspective5056-1-7" />
    <inkscape:perspective
       id="perspective5056-8-5-2"
       inkscape:persp3d-origin="372.04724 : 350.78739 : 1"
       inkscape:vp_z="744.09448 : 526.18109 : 1"
       inkscape:vp_y="0 : 1000 : 0"
       inkscape:vp_x="363.49708 : 943.81603 : 1"
       sodipodi:type="inkscape:persp3d" />
    <inkscape:perspective
       id="perspective5056-5-2-89"
       inkscape:persp3d-origin="372.04724 : 350.78739 : 1"
       inkscape:vp_z="744.09448 : 526.18109 : 1"
       inkscape:vp_y="0 : 1000 : 0"
       inkscape:vp_x="363.49708 : 943.81603 : 1"
       sodipodi:type="inkscape:persp3d" />
    <inkscape:perspective
       sodipodi:type="inkscape:persp3d"
       inkscape:vp_x="363.49708 : 943.81603 : 1"
       inkscape:vp_y="0 : 1000 : 0"
       inkscape:vp_z="744.09448 : 526.18109 : 1"
       inkscape:persp3d-origin="372.04724 : 350.78739 : 1"
       id="perspective5056-5-1" />
    <inkscape:perspective
       sodipodi:type="inkscape:persp3d"
       inkscape:vp_x="363.49708 : 943.81603 : 1"
       inkscape:vp_y="0 : 1000 : 0"
       inkscape:vp_z="744.09448 : 526.18109 : 1"
       inkscape:persp3d-origin="372.04724 : 350.78739 : 1"
       id="perspective5056-8-6" />
    <inkscape:perspective
       id="perspective5056-7"
       inkscape:persp3d-origin="372.04724 : 350.78739 : 1"
       inkscape:vp_z="744.09448 : 526.18109 : 1"
       inkscape:vp_y="0 : 1000 : 0"
       inkscape:vp_x="363.49708 : 943.81603 : 1"
       sodipodi:type="inkscape:persp3d" />
    <inkscape:perspective
       sodipodi:type="inkscape:persp3d"
       inkscape:vp_x="363.49708 : 943.81603 : 1"
       inkscape:vp_y="0 : 1000 : 0"
       inkscape:vp_z="744.09448 : 526.18109 : 1"
       inkscape:persp3d-origin="372.04724 : 350.78739 : 1"
       id="perspective5056-1-1" />
    <inkscape:perspective
       id="perspective5056-8-5-82"
       inkscape:persp3d-origin="372.04724 : 350.78739 : 1"
       inkscape:vp_z="744.09448 : 526.18109 : 1"
       inkscape:vp_y="0 : 1000 : 0"
       inkscape:vp_x="363.49708 : 943.81603 : 1"
       sodipodi:type="inkscape:persp3d" />
    <inkscape:perspective
       id="perspective5056-5-2-1"
       inkscape:persp3d-origin="372.04724 : 350.78739 : 1"
       inkscape:vp_z="744.09448 : 526.18109 : 1"
       inkscape:vp_y="0 : 1000 : 0"
       inkscape:vp_x="363.49708 : 943.81603 : 1"
       sodipodi:type="inkscape:persp3d" />
    <inkscape:perspective
       sodipodi:type="inkscape:persp3d"
       inkscape:vp_x="363.49708 : 943.81603 : 1"
       inkscape:vp_y="0 : 1000 : 0"
       inkscape:vp_z="744.09448 : 526.18109 : 1"
       inkscape:persp3d-origin="372.04724 : 350.78739 : 1"
       id="perspective5056-5-46" />
    <inkscape:perspective
       sodipodi:type="inkscape:persp3d"
       inkscape:vp_x="363.49708 : 943.81603 : 1"
       inkscape:vp_y="0 : 1000 : 0"
       inkscape:vp_z="744.09448 : 526.18109 : 1"
       inkscape:persp3d-origin="372.04724 : 350.78739 : 1"
       id="perspective5056-8-92" />
    <inkscape:perspective
       id="perspective5056-3"
       inkscape:persp3d-origin="372.04724 : 350.78739 : 1"
       inkscape:vp_z="744.09448 : 526.18109 : 1"
       inkscape:vp_y="0 : 1000 : 0"
       inkscape:vp_x="363.49708 : 943.81603 : 1"
       sodipodi:type="inkscape:persp3d" />
  </defs>
  <sodipodi:namedview
     id="base"
     pagecolor="#ffffff"
     bordercolor="#666666"
     borderopacity="1.0"
     inkscape:pageopacity="0.0"
     inkscape:pageshadow="2"
     inkscape:zoom="1.1441257"
     inkscape:cx="252.83541"
     inkscape:cy="173.71853"
     inkscape:document-units="px"
     inkscape:current-layer="layer8"
     showgrid="false"
     inkscape:window-width="1139"
     inkscape:window-height="693"
     inkscape:window-x="75"
     inkscape:window-y="-2"
     inkscape:window-maximized="0"
     showguides="true"
     inkscape:guide-bbox="true"
     inkscape:snap-grids="false"
     inkscape:snap-to-guides="false"
     showborder="true"
     inkscape:showpageshadow="false"
     fit-margin-top="0"
     fit-margin-left="0"
     fit-margin-right="0"
     fit-margin-bottom="0"
     inkscape:snap-page="false" />
  <metadata
     id="metadata7">
    <rdf:RDF>
      <cc:Work
         rdf:about="">
        <dc:format>image/svg+xml</dc:format>
        <dc:type
           rdf:resource="http://purl.org/dc/dcmitype/StillImage" />
        <dc:title></dc:title>
      </cc:Work>
    </rdf:RDF>
  </metadata>
  <g
     inkscape:groupmode="layer"
     id="layer2"
     inkscape:label="補助線"
     style="display:none"
     sodipodi:insensitive="true">
    <path
       style="fill:none;stroke:#0000ff;stroke-width:1px;stroke-linecap:butt;stroke-linejoin:miter;stroke-opacity:1"
       d="M 10,310 360,10"
       id="path3025"
       inkscape:connector-curvature="0"
       sodipodi:nodetypes="cc" />
    <path
       style="fill:none;stroke:#0000ff;stroke-width:1px;stroke-linecap:butt;stroke-linejoin:miter;stroke-opacity:1"
       d="M 10,10 360,310"
       id="path3027"
       inkscape:connector-curvature="0"
       sodipodi:nodetypes="cc" />
    <path
       style="fill:none;stroke:#ff0000;stroke-width:1px;stroke-linecap:butt;stroke-linejoin:miter;stroke-opacity:1;display:inline"
       d="m 10,0 0,320"
       id="path3006"
       inkscape:connector-curvature="0"
       sodipodi:nodetypes="cc" />
    <path
       style="fill:none;stroke:#ff0000;stroke-width:1px;stroke-linecap:butt;stroke-linejoin:miter;stroke-opacity:1;display:inline"
       d="m 360,0 0,320"
       id="path3010"
       inkscape:connector-curvature="0"
       sodipodi:nodetypes="cc" />
    <path
       style="fill:none;stroke:#ff0000;stroke-width:1px;stroke-linecap:butt;stroke-linejoin:miter;stroke-opacity:1;display:inline"
       d="M 0,9.9999681 370,10"
       id="path3016"
       inkscape:connector-curvature="0" />
    <path
       transform="translate(84.715796,27.711696)"
       style="fill:none;stroke:#ff0000;stroke-width:1px;stroke-linecap:butt;stroke-linejoin:miter;stroke-opacity:1;display:inline"
       d="m -84.715796,282.2883 369.999996,0"
       id="path3018"
       inkscape:connector-curvature="0"
       sodipodi:nodetypes="cc" />
  </g>
  <g
     inkscape:groupmode="layer"
     id="layer8"
     inkscape:label="原型"
     style="display:inline">
    <path
       style="fill:#dbdee3;stroke:none;display:inline"
       d="M 197.62784,177.63078 83.560616,185.57012 173.19843,344.12021 z"
       id="path4684-5-5-2-7-6"
       inkscape:connector-curvature="0"
       sodipodi:nodetypes="cccc" />
    <path
       style="fill:#550000;stroke:#000000;stroke-width:1.5;stroke-linecap:butt;stroke-linejoin:miter;stroke-opacity:1;display:inline"
       d="m 158.98275,210.76719 17.97052,90.70747 c -1.71611,9.44042 -11.11824,22.03102 -19.18654,33.80168 -9.75134,-6.71184 -19.27604,-29.48492 -19.27604,-29.48492 l 9.34361,-93.50636 z"
       id="path6770-0-4-6-6-4"
       inkscape:connector-curvature="0"
       sodipodi:nodetypes="cccccc" />
    <path
       style="fill:#550000;stroke:#000000;stroke-width:1.5;stroke-linecap:butt;stroke-linejoin:miter;stroke-opacity:1;display:inline"
       d="m 162.83594,185.81554 c -6.40012,2.69734 -15.36159,3.33018 -21.79636,2.18891 l -4.9432,5.32878 c 2.49177,6.70761 8.45765,17.6848 11.84369,21.58615 4.15384,0.9774 9.13668,-0.98161 12.05907,-2.86781 1.01188,-6.03967 6.26537,-13.86655 5.91682,-19.1776 z"
       id="path6768-9-1-6-8-4"
       inkscape:connector-curvature="0"
       sodipodi:nodetypes="ccccccc" />
    <path
       style="fill:#dbdbe3;stroke:#000000;stroke-width:1.5;stroke-linecap:butt;stroke-linejoin:miter;stroke-opacity:1;display:inline"
       d="m 96.65734,162.73712 c 0.48197,-4.50931 1.73969,-8.67602 4.29508,-13.58783 0.31121,12.55222 24.97432,32.51725 47.34369,37.08404 -7.39787,3.32283 -14.018,18.56902 -22.99102,31.43244 -13.69887,-15.79611 -26.337,-42.57213 -28.64775,-54.92865 z"
       id="path6657-6-4-0-2-2"
       inkscape:connector-curvature="0"
       sodipodi:nodetypes="ccccc" />
    <path
       style="fill:#1c1f24;stroke:#000000;stroke-width:1.5;stroke-linecap:butt;stroke-linejoin:miter;stroke-opacity:1;display:inline"
       d="m 93.55659,152.02392 c -17.514104,11.14051 -65.758004,21.1208 -68.476744,32.63186 -4.73753,20.05861 29.03983,102.40788 30.79259,130.60928 2.57149,41.37483 -8.2426,99.70425 2.44241,107.75519 14.87124,11.20515 83.565924,21.02744 100.918204,16.30531 6.65737,-1.81171 13.16195,-8.16186 15.15957,-18.843 7.84882,-41.96701 3.98359,-96.88881 2.56586,-100.20844 -8.66682,-20.29432 -46.08995,-76.41009 -53.89535,-99.53167 -5.20075,-15.40591 -27.54898,-65.24329 -23.52174,-79.19457 -4.2613,5.59616 -10.06079,11.28216 -12.714164,16.94768 -0.13924,7.43485 0.3174,27.27867 -0.0894,46.87236 3.928224,1.43477 8.434084,3.33585 12.999694,6.12579"
       id="path6659-6-6-1-7-6"
       inkscape:connector-curvature="0"
       sodipodi:nodetypes="cssssssscccc" />
    <path
       style="fill:#dbdbe3;stroke:#000000;stroke-width:1.5;stroke-linecap:butt;stroke-linejoin:miter;stroke-opacity:1;display:inline"
       d="m 152.94986,185.57247 c 6.8136,-0.88104 19.48199,18.31032 23.30343,27.98835 6.06363,-15.77489 10.46909,-53.74233 8.62282,-58.82597 -1.74022,-4.79167 -3.08548,-9.91362 -4.41313,-12.2809 1.55767,14.58335 -16.34072,41.64253 -27.51312,43.11852 z"
       id="path6762-7-2-0-9-6"
       inkscape:connector-curvature="0"
       sodipodi:nodetypes="ccscc" />
    <path
       style="fill:none;stroke:#000000;stroke-width:1.5;stroke-linecap:butt;stroke-linejoin:miter;stroke-opacity:1;display:inline"
       d="M 113.48131,201.26312 86.933636,222.82278 C 103.63639,233.264 155.2082,298.89932 174.1554,317.17571"
       id="path6655-8-1-5-4-8"
       inkscape:connector-curvature="0"
       sodipodi:nodetypes="ccc" />
    <g
       id="g9921-2-0-0"
       transform="matrix(-2.274587,0.84923533,0.8244089,2.208092,3099.845,-1596.3838)"
       style="stroke:#000000;stroke-width:0.83605099;display:inline" />
    <g
       id="g4656-2-7"
       transform="matrix(-2.3490673,0.61386419,0.59591857,2.280395,3329.298,-1275.9427)"
       style="stroke:#000000;stroke-width:0.83605099;display:inline" />
    <g
       id="g4658-5-7"
       transform="matrix(-2.3490673,0.61386419,0.59591857,2.280395,3848.3192,-1385.3779)"
       style="stroke:#000000;stroke-width:0.83605099;display:inline" />
    <g
       transform="matrix(2.8502614,-1.064168,1.064168,2.8502614,-311.31777,561.65348)"
       id="g4678-0-3"
       inkscape:label="駅員: 左手"
       style="stroke-width:0.65736705;display:inline">
      <g
         id="g4680-9-3"
         transform="matrix(-0.7980275,0,0,0.77469807,1298.4706,-272.34221)"
         style="stroke:#000000;stroke-width:0.83605099;display:inline" />
    </g>
    <g
       id="g4682-4-5"
       transform="matrix(-2.274587,0.84923533,0.8244089,2.208092,3099.8452,-1596.3839)"
       style="stroke:#000000;stroke-width:0.83605099;display:inline" />
    <g
       id="g9921-2-0-1"
       transform="matrix(2.5764182,3.2871347,-3.191039,2.5010994,-1305.2567,-5589.4791)"
       style="stroke:#000000;stroke-width:0.48602632;display:inline" />
    <g
       id="g4656-2-4"
       transform="matrix(2.8969034,3.0085104,-2.9205601,2.8122157,-1929.5147,-5325.0402)"
       style="stroke:#000000;stroke-width:0.48602632;display:inline" />
    <g
       id="g4658-5-1"
       transform="matrix(2.8969034,3.0085104,-2.9205601,2.8122157,-2593.0825,-5951.3157)"
       style="stroke:#000000;stroke-width:0.48602632;display:inline" />
    <g
       transform="matrix(-3.2284829,-4.1190744,-4.1190744,3.2284829,1765.0355,638.27002)"
       id="g4678-0-2"
       inkscape:label="駅員: 左手"
       style="stroke-width:0.38215098;display:inline">
      <g
         id="g4680-9-9"
         transform="matrix(-0.7980275,0,0,0.77469807,1298.4706,-272.34221)"
         style="stroke:#000000;stroke-width:0.48602632;display:inline" />
    </g>
    <g
       id="g4682-4-0"
       transform="matrix(2.5764182,3.2871347,-3.191039,2.5010994,-1305.2569,-5589.4794)"
       style="stroke:#000000;stroke-width:0.48602632;display:inline" />
    <path
       style="opacity:0.95;fill:#241c1c;stroke:none;display:inline"
       d="m 338.92908,-31.197083 -7.83628,0.44534 c -2.68902,0.15281 -2.00423,7.34852 -1.76705,12.12904 0.12001,2.41867 1.53391,4.49696 1.48615,1.17237 -0.0481,-3.32943 -1.90888,-12.34167 0.29128,-11.76883 l 7.73359,0.60827 z"
       id="path6641-9-0-7-9-4"
       inkscape:connector-curvature="0"
       sodipodi:nodetypes="csssscc" />
    <path
       sodipodi:nodetypes="cssssssscccc"
       inkscape:connector-curvature="0"
       id="path3341-7-0-1-6-8-5-1"
       d="m 185.40353,148.70122 c 13.67723,5.7175 51.5845,17.74525 62.53145,26.83563 14.88631,12.36166 1.22275,78.62301 -4.98877,100.7529 -5.5141,19.64521 1.96991,85.05127 2.70183,118.81075 0.52852,24.37733 -60.7935,39.43672 -71.76938,39.49338 -9.55468,0.0493 -15.25855,-14.44953 -15.21699,-19.74601 0.24556,-31.29906 -4.26927,-92.48196 -1.95781,-101.03118 14.4869,-53.58178 21.64538,-86.71695 23.81725,-125.14943 1.01275,-17.92117 3.67225,-36.08594 -1.21855,-46.76971 1.58226,1.2772 6.59369,6.22456 9.22651,9.60105 4.51289,8.46746 8.89109,32.51999 12.37008,42.52772 l -11.13171,7.89272"
       style="fill:#1c1f24;stroke:#000000;stroke-width:1.5;stroke-linecap:butt;stroke-linejoin:miter;stroke-opacity:1;display:inline" />
    <path
       style="fill:none;stroke:#000000;stroke-width:1.5;stroke-linecap:butt;stroke-linejoin:miter;stroke-opacity:1;display:inline"
       d="m 179.38573,197.33295 24.42653,14.12463 c -10.97523,31.60356 -27.04962,62.33671 -44.19974,100.02183"
       id="path6766-7-0-8-3-2"
       inkscape:connector-curvature="0"
       sodipodi:nodetypes="ccc" />
    <g
       id="g6021"
       transform="matrix(-0.76290789,0,0,0.76290789,222.59445,523.67944)"
       style="stroke-width:1.96616137;display:inline">
      <path
         sodipodi:nodetypes="csssc"
         inkscape:connector-curvature="0"
         id="path6637-1-9-9-2-9-1"
         d="m 42.72866,-532.30689 c -2.3989,-3.9734 -9.78267,-1.78003 -12.97497,-13.52763 -1.5213,-5.59835 -2.2943,-11.96181 -3.453,-22.83289 -1.1489,-10.78007 2.4299,-15.99083 6.3628,-16.79569 4.7169,-0.96532 7.20763,2.51301 9.29333,8.12549"
         style="fill:#deaa87;stroke:#000000;stroke-width:1.96616137;stroke-linecap:butt;stroke-linejoin:miter;stroke-opacity:1;display:inline" />
      <path
         sodipodi:nodetypes="cssssssc"
         inkscape:connector-curvature="0"
         id="path6639-8-6-8-4-6-4"
         d="m 32.394975,-552.13417 c 0.70141,-5.65069 5.41573,-9.43471 5.145065,-13.6463 -0.240965,-3.74946 -2.83685,-13.9584 -5.43635,-14.51211 -2.9529,-0.62898 -2.4218,4.59932 -2.1108,8.33055 0.6408,7.68743 -0.3682,16.89516 2.8895,20.52243 2.1086,2.34794 4.058,9.11307 6.4402,6.19093 1.334,-1.63635 -2.189635,-6.8168 -1.98098,-8.63524 0.213748,-1.86282 2.253255,-4.71487 2.70058,-7.53307"
         style="opacity:0.95;fill:#deaa87;stroke:#000000;stroke-width:1.96616137;stroke-linecap:butt;stroke-linejoin:miter;stroke-opacity:1;display:inline" />
      <path
         sodipodi:nodetypes="csssc"
         inkscape:connector-curvature="0"
         id="path6637-1-9-6-8-7"
         d="m 173.39229,-519.07295 c 3.1501,-3.40881 13.3888,0.28861 17.81413,-11.05214 1.61062,-4.12752 4.47947,-11.07385 7.30484,-21.63512 2.61754,-9.78442 1.73781,-15.87671 -1.3762,-18.03348 -3.95803,-2.74134 -9.66537,-0.9983 -12.40337,2.14192"
         style="fill:#deaa87;stroke:#000000;stroke-width:1.96616137;stroke-linecap:butt;stroke-linejoin:miter;stroke-opacity:1;display:inline" />
      <path
         sodipodi:nodetypes="cssssssc"
         inkscape:connector-curvature="0"
         id="path6639-8-6-0-4-6"
         d="m 190.62931,-539.88547 c -1.3822,-1.58719 -5.2078,-7.85686 -4.39967,-11.98181 1.02794,-5.24695 6.39808,-12.97549 9.05578,-12.99428 3.0191,-0.0213 1.63393,6.95452 0.57773,10.54664 -2.176,7.40083 -4.49406,17.20285 -8.41556,20.09964 -2.5384,1.87512 -4.72365,8.38064 -6.46855,5.0386 -0.9771,-1.8715 4.26906,-7.88554 4.03406,-9.70077 -0.308,-2.37863 -0.97474,-5.56336 -1.45979,-9.06758"
         style="opacity:0.95;fill:none;stroke:#000000;stroke-width:1.96616137;stroke-linecap:butt;stroke-linejoin:miter;stroke-opacity:1;display:inline" />
      <path
         sodipodi:nodetypes="ssccsssccsss"
         inkscape:connector-curvature="0"
         id="path6635-7-0-4-2-5-1"
         d="m 83.97697,-454.02885 c -7.94301,-7.46443 -36.00703,-39.97078 -37.94263,-50.1491 -0.9637,-5.06736 -4.496743,-41.44055 -5.816043,-50.78088 2.526358,-4.04022 3.836257,-14.09937 -0.227407,-17.81928 -2.19271,-34.13312 7.395427,-66.39282 30.066137,-83.39863 15.04832,-11.28808 42.611303,-16.8385 53.995703,-16.1569 16.377,0.98052 41.11603,19.98957 50.81143,29.1966 19.1759,18.21011 19.6301,50.04617 12.00476,80.30924 -5.57885,-2.01002 -7.61869,21.52305 -5.23118,23.23167 -1.65975,5.72285 -12.78583,42.57961 -15.91933,46.09237 -5.7605,6.4575 -36.09631,36.61892 -47.9263,43.0643 -7.55573,4.11662 -28.25592,1.63488 -33.81514,-3.58939 z"
         style="fill:#e9c6af;stroke:none;display:inline" />
      <path
         sodipodi:nodetypes="ccssccccssssssscscc"
         inkscape:connector-curvature="0"
         id="path6760-6-4-3-0-7"
         d="m 39.94426,-572.85147 c -1.315,-40.66325 11.681546,-76.76732 37.357966,-87.89832 -23.0299,16.11807 -25.449056,55.33783 -26.235056,59.65457 -1.1676,6.41226 1.24626,14.79135 4.8254,20.77988 1.60164,2.67983 10.2275,10.92274 16.5845,13.25493 -15.4871,-0.25868 -16.79146,8.98298 -10.51526,9.90057 l 31.70557,6.94095 c 2.3354,-2.03369 1.45639,-5.88026 2.71119,-9.23924 1.2823,3.28094 3.5351,11.42947 1.7034,14.36767 -0.8212,1.31729 -7.7016,12.10425 -9.3344,9.56751 -2.541,-3.94767 -7.6827,-4.85955 -14.3046,-3.05852 -8.4926,2.30983 -11.4037,-7.21222 -14.0066,-7.84856 -0.7203,-0.17612 -7.9737,6.8709 -8.2714,16.5609 -0.3057,9.94881 1.3087,14.58211 6.7629,28.33301 2.39,6.02585 6.233,14.47047 8.777,19.80291 6.7629,14.17608 9.5682,19.03239 16.481,28.02586 -9.3849,-8.06295 -35.94074,-39.16721 -38.31274,-50.77848 -0.9322,-4.56319 -4.664083,-41.64672 -5.729783,-50.47084 1.262743,-1.95921 3.381004,-15.57647 -0.199087,-17.8948 z"
         style="fill:#deaa87;stroke:none;display:inline" />
      <path
         sodipodi:nodetypes="ccccscsssccssssc"
         inkscape:connector-curvature="0"
         id="path6706-5-3-4-9-4"
         d="m 122.61177,-555.48422 12.00882,-1.61822 c 0.6313,1.32382 -5.22679,5.38674 -6.36659,9.17086 l 33.87997,1.69994 c -0.9511,2.89925 -10.4108,12.81217 -17.1714,12.67533 -5.0326,-0.10188 -12.0256,-3.63059 -15.5117,-4.75026 0.2487,3.32371 -1.0046,7.3751 -0.2328,11.95764 0.6363,3.7778 -0.1752,9.53498 0.2638,12.79325 0.5536,4.10857 13.0286,24.72965 5.4994,39.49723 -0.5654,1.10902 -25.0554,-13.21572 -25.697,-12.17087 -1.1049,-1.63706 0.84864,-13.78629 -4.15831,-14.3344 3.28381,-2.13459 5.6375,-6.88733 5.35792,-10.76073 -0.14612,-2.02432 -0.001,-10.73281 0.34852,-15.90801 0.55101,-8.15493 0.49496,-18.40995 1.7677,-24.74375 0.4608,-2.29316 3.73058,-10.22153 5.73353,-10.58087 3.2087,-0.57566 0.8293,5.28939 4.27814,7.07286 z"
         style="fill:#deaa87;stroke:none;display:inline" />
      <path
         sodipodi:nodetypes="scccssccscssccs"
         inkscape:connector-curvature="0"
         id="path3438-5-8-1-0-0"
         d="m 160.31187,-536.40558 c -3.3419,12.62264 -28.1152,39.15609 -29.9521,50.64187 l -12.871,2.62814 c 12.4539,11.16953 -0.58081,29.53414 -11.34721,35.08722 2.57895,0.0956 9.13261,-1.25937 11.35421,-2.24472 18.0906,-8.0235 38.54704,-30.965 47.98034,-43.07531 6.3294,-8.12552 13.44689,-41.29153 16.11459,-46.10751 -1.98678,-2.31467 1.39707,-23.01418 5.11186,-23.23529 3.40517,-26.94118 8.55149,-56.4999 -11.8608,-80.41604 -9.80117,-11.48357 -26.4543,-24.73982 -45.45439,-28.25999 11.786,6.38116 27.5604,15.48859 36.5198,33.22404 8.6345,17.09233 -4.30454,56.86112 -3.91552,63.66355 0.30916,5.40602 2.56359,12.24866 -2.61791,14.16257 -1.00562,4.78299 -1.33617,9.04896 -7.33179,10.83795 4.3774,4.68544 9.03172,10.21614 8.26992,13.09352 z"
         style="fill:#deaa87;stroke:none;display:inline" />
      <path
         sodipodi:nodetypes="sscsscs"
         inkscape:connector-curvature="0"
         id="path3337-0-4-8-1-0-9"
         d="m 149.82438,-549.81065 c -2.55465,-0.6085 -11.29148,-1.32225 -14.4601,-1.29886 -3.0625,0.0226 -5.22884,2.97283 -7.84671,4.83696 3.40995,1.21686 5.07952,4.93449 9.20355,5.53803 3.4758,0.50869 8.45358,2.25817 11.29984,1.55695 4.58606,-1.12993 8.14124,-5.75859 11.53544,-7.84141 -2.63665,-0.83967 -6.7667,-2.08531 -9.73202,-2.79167 z"
         style="fill:#fefefe;fill-opacity:1;stroke:none;display:inline" />
      <path
         sodipodi:nodetypes="cscc"
         inkscape:connector-curvature="0"
         id="path3357-0-7-3-6-4"
         d="m 135.88859,-550.71688 c 0.31175,3.78379 -0.0661,6.86666 6.15727,7.99385 4.0214,0.7281 8.55907,-4.33942 8.58174,-7.38077 z"
         style="fill:#2b0000;stroke:none;display:inline" />
      <path
         sodipodi:nodetypes="ssssss"
         inkscape:connector-curvature="0"
         id="path6645-7-7-7-1-8"
         d="m 122.00017,-553.00182 c 8.5976,2.32654 11.5263,-2.8774 21.4029,-5.42427 10.0622,-2.59471 26.9343,0.63579 24.6947,-1.34267 -4.0713,-3.59673 -21.023,-2.81544 -30.4054,-0.70325 -3.0278,0.68161 -9.3055,2.21564 -12.487,2.86991 -5.6237,1.15653 -8.9569,3.04383 -3.2052,4.60028 z"
         style="fill:#000000;stroke:none;display:inline" />
      <path
         sodipodi:nodetypes="cssc"
         inkscape:connector-curvature="0"
         id="path3339-7-7-4-3-8"
         d="m 126.77938,-546.68211 c 4.05272,1.83405 5.33787,5.97925 9.4619,6.58281 3.4758,0.50869 10.05856,1.49043 12.86377,0.63946 3.40713,-1.03364 6.14747,-6.17939 9.09888,-7.86994"
         style="fill:none;stroke:#916f6f;stroke-width:1.96616137;stroke-linecap:butt;stroke-linejoin:miter;stroke-opacity:1;display:inline" />
      <path
         sodipodi:nodetypes="cssc"
         inkscape:connector-curvature="0"
         id="path3337-7-3-2-8-2"
         d="m 124.89494,-545.9377 c 2.96065,-1.04564 7.04713,-4.91523 10.10963,-4.93786 3.16862,-0.0234 14.08249,0.28642 16.61194,0.99246 4.45494,1.24349 7.01445,2.67279 10.52537,3.89579"
         style="fill:none;stroke:#000000;stroke-width:1.96616137;stroke-linecap:butt;stroke-linejoin:miter;stroke-opacity:1;display:inline" />
      <path
         sodipodi:nodetypes="ccccccc"
         inkscape:connector-curvature="0"
         id="path3337-0-4-8-8-9-3-5"
         d="m 93.52922,-550.05359 -10.64985,3.51095 -12.036,-1.49687 -10.1452,-9.12521 10.267556,-0.6636 16.476154,2.63206 z"
         style="fill:#fefefe;fill-opacity:1;stroke:none;display:inline" />
      <path
         sodipodi:nodetypes="cscc"
         inkscape:connector-curvature="0"
         id="path3357-0-7-8-3-4-5"
         d="m 84.85324,-555.60568 c -0.492,2.62496 -1.85347,6.38787 -7.38807,6.2553 -5.1697,-0.12383 -6.83423,-4.98758 -6.11323,-8.03007 z"
         style="fill:#2b0000;stroke:none;display:inline" />
      <path
         style="fill:#deaa87;stroke:none;display:inline"
         d="m 83.927953,-503.41075 c -0.469162,-3.91468 -12.277377,13.73022 -8.679202,13.95496 2.860205,0.17865 5.298325,0.1394 7.182016,-4.16898 1.23765,-2.83075 1.942112,-6.07353 1.497186,-9.78598 z"
         id="path4329-1"
         inkscape:connector-curvature="0"
         sodipodi:nodetypes="ssss" />
      <path
         sodipodi:nodetypes="sssssssss"
         inkscape:connector-curvature="0"
         id="path6633-4-3-0-8-4-1"
         d="m 72.71557,-483.10553 c -1.0999,-0.95423 -1.8661,-6.44084 -0.3058,-8.30827 1.5444,-1.84848 18.4847,-5.76172 23.4057,-6.35733 1.166,-0.14105 3.7283,1.69003 7.4742,2.20008 3.757,0.51156 7.0732,-1.87302 8.187,-1.50002 4.7003,1.57457 23.5408,10.67388 24.6813,12.79556 1.1521,2.1434 -1.2402,6.37652 -3.7086,7.29207 -4.5474,1.68661 -13.6233,-3.39551 -29.6816,-5.19342 -18.8068,-2.10562 -27.1797,1.56308 -30.0522,-0.92867 z"
         style="fill:#000000;stroke:none;display:inline" />
      <path
         sodipodi:nodetypes="ssssss"
         inkscape:connector-curvature="0"
         id="path6645-7-7-6-6-6-7"
         d="m 96.19697,-555.83817 c -5.54,0.77839 -11.6567,-6.39582 -19.6168,-8.64993 -9.9982,-2.83126 -25.8669,-3.77583 -23.0445,-4.7575 3.6963,-1.28562 14.8821,0.72837 21.5718,1.79501 3.065,0.48869 11.9354,3.81085 14.9065,5.12321 6.9003,3.0479 13.6208,5.44413 6.183,6.48921 z"
         style="fill:#000000;stroke:none;display:inline" />
      <path
         sodipodi:nodetypes="cssc"
         inkscape:connector-curvature="0"
         id="path3339-7-7-8-5-0-1"
         d="m 94.23907,-550.06493 c -4.4953,0.84054 -7.5263,3.74409 -11.8098,3.63153 -3.6247,-0.0952 -9.8077,-0.28968 -12.3787,-2.00826 -3.043,-2.03416 -6.1534,-6.1825 -8.6873,-8.59222"
         style="fill:none;stroke:#916f6f;stroke-width:1.96616137;stroke-linecap:butt;stroke-linejoin:miter;stroke-opacity:1;display:inline" />
      <path
         sodipodi:nodetypes="cssc"
         inkscape:connector-curvature="0"
         id="path3337-7-3-1-0-6-1"
         d="m 96.13007,-548.32724 c -2.7006,-1.76794 -6.6139,-6.15771 -9.6665,-6.92907 -3.1583,-0.79802 -13.642342,-2.71914 -16.340642,-2.63255 -4.7526,0.15247 -7.863058,0.45036 -11.667858,0.81319"
         style="fill:none;stroke:#000000;stroke-width:1.96616137;stroke-linecap:butt;stroke-linejoin:miter;stroke-opacity:1;display:inline" />
      <path
         sodipodi:nodetypes="cc"
         inkscape:connector-curvature="0"
         id="path13794-2-6-5"
         d="m 95.38137,-506.01115 c 4.5895,6.11768 11.0492,7.53835 17.1369,2.21934"
         style="fill:none;stroke:#000000;stroke-width:1.96616137;stroke-linecap:butt;stroke-linejoin:miter;stroke-opacity:1;display:inline" />
      <path
         sodipodi:nodetypes="czszc"
         inkscape:connector-curvature="0"
         id="path12612-8-1-2"
         d="m 186.64482,-562.59052 c 7.7071,-38.45257 5.00082,-59.87661 -10.17328,-78.37899 -15.1741,-18.50238 -36.57035,-29.10737 -50.06745,-30.30454 -11.34909,-1.00665 -33.065896,-0.60141 -54.557696,13.564 -21.4917,14.16542 -33.979624,43.94213 -31.819894,85.00464"
         style="fill:none;stroke:#000000;stroke-width:1.96616137;stroke-linecap:butt;stroke-linejoin:miter;stroke-opacity:1;display:inline" />
      <path
         sodipodi:nodetypes="cssssc"
         inkscape:connector-curvature="0"
         id="path12608-8-8-3-2"
         d="m 40.045447,-555.07602 c 1.2661,15.38128 2.509773,41.17865 6.156673,51.05273 5.9898,16.21724 32.77905,46.16588 37.78045,49.94479 8.278,6.25448 20.5978,8.18782 33.6813,3.51314 5.903,-2.10911 41.56079,-29.98619 47.79949,-42.87396 6.9184,-14.29188 11.93569,-31.41462 16.27389,-46.22567"
         style="fill:none;stroke:#000000;stroke-width:1.96616137;stroke-linecap:butt;stroke-linejoin:miter;stroke-opacity:1;display:inline" />
      <path
         inkscape:transform-center-x="0.75123036"
         inkscape:transform-center-y="-5.3727693"
         sodipodi:nodetypes="ssss"
         inkscape:connector-curvature="0"
         id="path6710-3-6-7-3"
         d="m 91.04917,-478.83397 c 4.2914,-0.17508 14.2254,0.46933 21.5737,2.39942 3.8716,1.01694 -3.4441,7.3599 -12.0763,6.33791 -7.204,-0.8529 -16.2515,-8.46179 -9.4974,-8.73733 z"
         style="fill:#deaa87;stroke:none;display:inline" />
      <path
         sodipodi:nodetypes="cc"
         inkscape:connector-curvature="0"
         id="path4327"
         d="m 118.82477,-560.18605 c -0.80324,3.4058 -1.25436,5.75524 -2.71663,11.13815"
         style="fill:none;stroke:#000000;stroke-width:1.96616137;stroke-linecap:butt;stroke-linejoin:miter;stroke-opacity:1" />
      <path
         sodipodi:nodetypes="ssss"
         inkscape:connector-curvature="0"
         id="path4329"
         d="m 101.7109,-551.32808 c 2.52086,-0.81846 4.62928,-8.34796 1.69389,-10.44101 -1.36587,-0.97392 -1.49711,2.93842 -2.03851,5.24364 -0.57053,2.42929 -0.70242,5.53732 0.34462,5.19737 z"
         style="fill:#deaa87;stroke:none" />
    </g>
    <path
       style="fill:#e9c6af;stroke:#000000;stroke-width:1.5;stroke-linecap:butt;stroke-linejoin:miter;stroke-opacity:1;display:inline"
       d="m 141.45295,309.16675 c 16.47469,-1.82828 44.2269,-6.40437 49.42406,-4.99719 7.46252,2.02054 21.41577,12.0474 17.74561,20.06405 l -6.30347,13.76853 -4.9177,8.36009 -5.40948,0 3.44239,-7.86833 -7.86833,-8.85187 -35.40751,12.29426"
       id="path10585"
       inkscape:connector-curvature="0"
       sodipodi:nodetypes="csscccccc" />
    <path
       style="opacity:0.9;fill:#280b0b;stroke:none;display:inline"
       d="m 137.07092,107.46646 c -3.58967,0.28714 -11.76183,8.65014 -17.86628,8.20969 -8.1932,-0.59118 -14.50145,-3.32917 -25.6588,-8.42752 0.18807,-1.29719 -0.49496,-4.34852 0.94377,-6.39108 12.17601,-1.728353 38.09961,-2.163123 41.66528,-2.445363 l 5.20673,-0.41213 c 3.42647,-0.27123 28.51953,-3.17203 40.86322,-3.61136 1.9311,1.74467 2.03078,4.71254 2.54803,5.947393 -9.59293,6.93277 -14.55271,9.56274 -22.40777,11.57266 -5.85248,1.4975 -15.98124,-5.18722 -19.57084,-4.90009 z"
       id="path6627-9-1-6"
       inkscape:connector-curvature="0"
       sodipodi:nodetypes="ssccssccsss" />
    <path
       style="fill:#1c1f24;stroke:#000000;stroke-width:1.5;stroke-linecap:butt;stroke-linejoin:miter;stroke-opacity:1;display:inline"
       d="m 58.101156,305.24571 c -2.57397,-25.84172 -2.06847,-65.06421 -8.01279,-87.41419 -6.63805,-24.95838 -19.45042,-33.2707 -24.91715,-33.79331 -7.43026,-0.71031 -9.82153,27.17403 -10.97412,47.44632 -0.90572,15.93007 -0.076,63.04889 -0.60713,94.93325 -0.21895,13.14466 6.36716,28.75878 10.52996,31.4116 11.21587,7.14749 121.000394,-2.17854 128.451104,-2.00223 5.19345,-15.561 -5.59185,-32.48441 -5.37832,-49.29038 -19.01328,-1.98072 -70.432094,-0.055 -99.090794,-0.54991"
       id="path6661-0-3-5-5"
       inkscape:connector-curvature="0"
       sodipodi:nodetypes="csssssccc" />
    <g
       id="g9921-2-0-7"
       transform="matrix(7.7299176,2.8860268,-2.8016571,7.5039421,-11795.964,-5916.7991)"
       style="stroke:#000000;stroke-width:0.24601436;display:inline" />
    <g
       id="g4656-2-0"
       transform="matrix(7.9830301,2.0861456,-2.0251595,7.7496554,-12575.733,-4827.8175)"
       style="stroke:#000000;stroke-width:0.24601436;display:inline" />
    <g
       id="g4658-5-16"
       transform="matrix(7.9830301,2.0861456,-2.0251595,7.7496554,-14339.566,-5199.7203)"
       style="stroke:#000000;stroke-width:0.24601436;display:inline" />
    <g
       transform="matrix(-9.6862796,-3.6164503,-3.6164503,9.6862796,-203.52563,1417.038)"
       id="g4678-0-5"
       inkscape:label="駅員: 左手"
       style="stroke-width:0.19343524;display:inline">
      <g
         id="g4680-9-7"
         transform="matrix(-0.7980275,0,0,0.77469807,1298.4706,-272.34221)"
         style="stroke:#000000;stroke-width:0.24601436;display:inline" />
    </g>
    <g
       id="g4682-4-54"
       transform="matrix(7.7299176,2.8860268,-2.8016571,7.5039421,-11795.965,-5916.7994)"
       style="stroke:#000000;stroke-width:0.24601436;display:inline" />
    <path
       style="opacity:0.95;fill:#241c1c;stroke:none;display:inline"
       d="m 250.58822,92.032447 23.163,-4.14136 c 7.94837,-1.42112 10.94668,20.039893 13.57369,34.146523 1.32911,7.13713 -1.35157,14.17986 -3.52032,4.45084 -2.1712,-9.74337 -3.00083,-37.318563 -9.01969,-34.120523 l -22.13208,7.14281 z"
       id="path6641-9-0-7-9-4-7"
       inkscape:connector-curvature="0"
       sodipodi:nodetypes="csssscc" />
  </g>
  <g
     inkscape:groupmode="layer"
     id="layer7"
     inkscape:label="枠面"
     style="display:inline"
     sodipodi:insensitive="true">
    <path
       style="fill:#ff0000;stroke:none;display:inline"
       d="m 0,0 0,320 370,0 0,-320 -10,10 0,300 -350,0 0,-300 350,0 10,-10 z"
       id="path21072"
       inkscape:connector-curvature="0"
       sodipodi:nodetypes="ccccccccccc" />
  </g>
</svg>
