<?xml version="1.0" encoding="UTF-8" standalone="no"?>
<!-- Created with Inkscape (http://www.inkscape.org/) -->

<svg
   xmlns:dc="http://purl.org/dc/elements/1.1/"
   xmlns:cc="http://creativecommons.org/ns#"
   xmlns:rdf="http://www.w3.org/1999/02/22-rdf-syntax-ns#"
   xmlns:svg="http://www.w3.org/2000/svg"
   xmlns="http://www.w3.org/2000/svg"
   xmlns:sodipodi="http://sodipodi.sourceforge.net/DTD/sodipodi-0.dtd"
   xmlns:inkscape="http://www.inkscape.org/namespaces/inkscape"
   width="370"
   height="320"
   id="svg2"
   version="1.1"
   inkscape:version="0.92.3 (2405546, 2018-03-11)"
   sodipodi:docname="[04]懇願.svg"
   inkscape:export-filename="C:\Users\zhen-\Desktop\資料\臨時\HOSHI\04.png"
   inkscape:export-xdpi="96"
   inkscape:export-ydpi="96"
   enable-background="new">
  <defs
     id="defs4">
    <inkscape:perspective
       sodipodi:type="inkscape:persp3d"
       inkscape:vp_x="363.49708 : 943.81603 : 1"
       inkscape:vp_y="0 : 1000 : 0"
       inkscape:vp_z="744.09448 : 526.18109 : 1"
       inkscape:persp3d-origin="372.04724 : 350.78739 : 1"
       id="perspective5056" />
    <inkscape:perspective
       id="perspective5056-8"
       inkscape:persp3d-origin="372.04724 : 350.78739 : 1"
       inkscape:vp_z="744.09448 : 526.18109 : 1"
       inkscape:vp_y="0 : 1000 : 0"
       inkscape:vp_x="363.49708 : 943.81603 : 1"
       sodipodi:type="inkscape:persp3d" />
    <inkscape:perspective
       id="perspective5056-5"
       inkscape:persp3d-origin="372.04724 : 350.78739 : 1"
       inkscape:vp_z="744.09448 : 526.18109 : 1"
       inkscape:vp_y="0 : 1000 : 0"
       inkscape:vp_x="363.49708 : 943.81603 : 1"
       sodipodi:type="inkscape:persp3d" />
    <inkscape:perspective
       sodipodi:type="inkscape:persp3d"
       inkscape:vp_x="363.49708 : 943.81603 : 1"
       inkscape:vp_y="0 : 1000 : 0"
       inkscape:vp_z="744.09448 : 526.18109 : 1"
       inkscape:persp3d-origin="372.04724 : 350.78739 : 1"
       id="perspective5056-5-2" />
    <inkscape:perspective
       sodipodi:type="inkscape:persp3d"
       inkscape:vp_x="363.49708 : 943.81603 : 1"
       inkscape:vp_y="0 : 1000 : 0"
       inkscape:vp_z="744.09448 : 526.18109 : 1"
       inkscape:persp3d-origin="372.04724 : 350.78739 : 1"
       id="perspective5056-8-5" />
    <inkscape:perspective
       id="perspective5056-1"
       inkscape:persp3d-origin="372.04724 : 350.78739 : 1"
       inkscape:vp_z="744.09448 : 526.18109 : 1"
       inkscape:vp_y="0 : 1000 : 0"
       inkscape:vp_x="363.49708 : 943.81603 : 1"
       sodipodi:type="inkscape:persp3d" />
    <inkscape:perspective
       sodipodi:type="inkscape:persp3d"
       inkscape:vp_x="363.49708 : 943.81603 : 1"
       inkscape:vp_y="0 : 1000 : 0"
       inkscape:vp_z="744.09448 : 526.18109 : 1"
       inkscape:persp3d-origin="372.04724 : 350.78739 : 1"
       id="perspective5056-5-5" />
    <inkscape:perspective
       id="perspective5056-4"
       inkscape:persp3d-origin="372.04724 : 350.78739 : 1"
       inkscape:vp_z="744.09448 : 526.18109 : 1"
       inkscape:vp_y="0 : 1000 : 0"
       inkscape:vp_x="363.49708 : 943.81603 : 1"
       sodipodi:type="inkscape:persp3d" />
    <inkscape:perspective
       sodipodi:type="inkscape:persp3d"
       inkscape:vp_x="363.49708 : 943.81603 : 1"
       inkscape:vp_y="0 : 1000 : 0"
       inkscape:vp_z="744.09448 : 526.18109 : 1"
       inkscape:persp3d-origin="372.04724 : 350.78739 : 1"
       id="perspective5056-1-2" />
    <inkscape:perspective
       id="perspective5056-8-5-8"
       inkscape:persp3d-origin="372.04724 : 350.78739 : 1"
       inkscape:vp_z="744.09448 : 526.18109 : 1"
       inkscape:vp_y="0 : 1000 : 0"
       inkscape:vp_x="363.49708 : 943.81603 : 1"
       sodipodi:type="inkscape:persp3d" />
    <inkscape:perspective
       id="perspective5056-5-2-8"
       inkscape:persp3d-origin="372.04724 : 350.78739 : 1"
       inkscape:vp_z="744.09448 : 526.18109 : 1"
       inkscape:vp_y="0 : 1000 : 0"
       inkscape:vp_x="363.49708 : 943.81603 : 1"
       sodipodi:type="inkscape:persp3d" />
    <inkscape:perspective
       sodipodi:type="inkscape:persp3d"
       inkscape:vp_x="363.49708 : 943.81603 : 1"
       inkscape:vp_y="0 : 1000 : 0"
       inkscape:vp_z="744.09448 : 526.18109 : 1"
       inkscape:persp3d-origin="372.04724 : 350.78739 : 1"
       id="perspective5056-5-4" />
    <inkscape:perspective
       sodipodi:type="inkscape:persp3d"
       inkscape:vp_x="363.49708 : 943.81603 : 1"
       inkscape:vp_y="0 : 1000 : 0"
       inkscape:vp_z="744.09448 : 526.18109 : 1"
       inkscape:persp3d-origin="372.04724 : 350.78739 : 1"
       id="perspective5056-8-9" />
    <inkscape:perspective
       id="perspective5056-40"
       inkscape:persp3d-origin="372.04724 : 350.78739 : 1"
       inkscape:vp_z="744.09448 : 526.18109 : 1"
       inkscape:vp_y="0 : 1000 : 0"
       inkscape:vp_x="363.49708 : 943.81603 : 1"
       sodipodi:type="inkscape:persp3d" />
    <inkscape:perspective
       sodipodi:type="inkscape:persp3d"
       inkscape:vp_x="363.49708 : 943.81603 : 1"
       inkscape:vp_y="0 : 1000 : 0"
       inkscape:vp_z="744.09448 : 526.18109 : 1"
       inkscape:persp3d-origin="372.04724 : 350.78739 : 1"
       id="perspective5056-1-5" />
    <inkscape:perspective
       id="perspective5056-8-5-4"
       inkscape:persp3d-origin="372.04724 : 350.78739 : 1"
       inkscape:vp_z="744.09448 : 526.18109 : 1"
       inkscape:vp_y="0 : 1000 : 0"
       inkscape:vp_x="363.49708 : 943.81603 : 1"
       sodipodi:type="inkscape:persp3d" />
    <inkscape:perspective
       id="perspective5056-5-2-82"
       inkscape:persp3d-origin="372.04724 : 350.78739 : 1"
       inkscape:vp_z="744.09448 : 526.18109 : 1"
       inkscape:vp_y="0 : 1000 : 0"
       inkscape:vp_x="363.49708 : 943.81603 : 1"
       sodipodi:type="inkscape:persp3d" />
    <inkscape:perspective
       sodipodi:type="inkscape:persp3d"
       inkscape:vp_x="363.49708 : 943.81603 : 1"
       inkscape:vp_y="0 : 1000 : 0"
       inkscape:vp_z="744.09448 : 526.18109 : 1"
       inkscape:persp3d-origin="372.04724 : 350.78739 : 1"
       id="perspective5056-5-8" />
    <inkscape:perspective
       sodipodi:type="inkscape:persp3d"
       inkscape:vp_x="363.49708 : 943.81603 : 1"
       inkscape:vp_y="0 : 1000 : 0"
       inkscape:vp_z="744.09448 : 526.18109 : 1"
       inkscape:persp3d-origin="372.04724 : 350.78739 : 1"
       id="perspective5056-8-4" />
    <inkscape:perspective
       id="perspective5056-409"
       inkscape:persp3d-origin="372.04724 : 350.78739 : 1"
       inkscape:vp_z="744.09448 : 526.18109 : 1"
       inkscape:vp_y="0 : 1000 : 0"
       inkscape:vp_x="363.49708 : 943.81603 : 1"
       sodipodi:type="inkscape:persp3d" />
    <inkscape:perspective
       sodipodi:type="inkscape:persp3d"
       inkscape:vp_x="363.49708 : 943.81603 : 1"
       inkscape:vp_y="0 : 1000 : 0"
       inkscape:vp_z="744.09448 : 526.18109 : 1"
       inkscape:persp3d-origin="372.04724 : 350.78739 : 1"
       id="perspective5056-1-7" />
    <inkscape:perspective
       id="perspective5056-8-5-2"
       inkscape:persp3d-origin="372.04724 : 350.78739 : 1"
       inkscape:vp_z="744.09448 : 526.18109 : 1"
       inkscape:vp_y="0 : 1000 : 0"
       inkscape:vp_x="363.49708 : 943.81603 : 1"
       sodipodi:type="inkscape:persp3d" />
    <inkscape:perspective
       id="perspective5056-5-2-89"
       inkscape:persp3d-origin="372.04724 : 350.78739 : 1"
       inkscape:vp_z="744.09448 : 526.18109 : 1"
       inkscape:vp_y="0 : 1000 : 0"
       inkscape:vp_x="363.49708 : 943.81603 : 1"
       sodipodi:type="inkscape:persp3d" />
    <inkscape:perspective
       sodipodi:type="inkscape:persp3d"
       inkscape:vp_x="363.49708 : 943.81603 : 1"
       inkscape:vp_y="0 : 1000 : 0"
       inkscape:vp_z="744.09448 : 526.18109 : 1"
       inkscape:persp3d-origin="372.04724 : 350.78739 : 1"
       id="perspective5056-5-1" />
    <inkscape:perspective
       sodipodi:type="inkscape:persp3d"
       inkscape:vp_x="363.49708 : 943.81603 : 1"
       inkscape:vp_y="0 : 1000 : 0"
       inkscape:vp_z="744.09448 : 526.18109 : 1"
       inkscape:persp3d-origin="372.04724 : 350.78739 : 1"
       id="perspective5056-8-6" />
    <inkscape:perspective
       id="perspective5056-7"
       inkscape:persp3d-origin="372.04724 : 350.78739 : 1"
       inkscape:vp_z="744.09448 : 526.18109 : 1"
       inkscape:vp_y="0 : 1000 : 0"
       inkscape:vp_x="363.49708 : 943.81603 : 1"
       sodipodi:type="inkscape:persp3d" />
    <inkscape:perspective
       sodipodi:type="inkscape:persp3d"
       inkscape:vp_x="363.49708 : 943.81603 : 1"
       inkscape:vp_y="0 : 1000 : 0"
       inkscape:vp_z="744.09448 : 526.18109 : 1"
       inkscape:persp3d-origin="372.04724 : 350.78739 : 1"
       id="perspective5056-1-1" />
    <inkscape:perspective
       id="perspective5056-8-5-82"
       inkscape:persp3d-origin="372.04724 : 350.78739 : 1"
       inkscape:vp_z="744.09448 : 526.18109 : 1"
       inkscape:vp_y="0 : 1000 : 0"
       inkscape:vp_x="363.49708 : 943.81603 : 1"
       sodipodi:type="inkscape:persp3d" />
    <inkscape:perspective
       id="perspective5056-5-2-1"
       inkscape:persp3d-origin="372.04724 : 350.78739 : 1"
       inkscape:vp_z="744.09448 : 526.18109 : 1"
       inkscape:vp_y="0 : 1000 : 0"
       inkscape:vp_x="363.49708 : 943.81603 : 1"
       sodipodi:type="inkscape:persp3d" />
    <inkscape:perspective
       sodipodi:type="inkscape:persp3d"
       inkscape:vp_x="363.49708 : 943.81603 : 1"
       inkscape:vp_y="0 : 1000 : 0"
       inkscape:vp_z="744.09448 : 526.18109 : 1"
       inkscape:persp3d-origin="372.04724 : 350.78739 : 1"
       id="perspective5056-5-46" />
    <inkscape:perspective
       sodipodi:type="inkscape:persp3d"
       inkscape:vp_x="363.49708 : 943.81603 : 1"
       inkscape:vp_y="0 : 1000 : 0"
       inkscape:vp_z="744.09448 : 526.18109 : 1"
       inkscape:persp3d-origin="372.04724 : 350.78739 : 1"
       id="perspective5056-8-92" />
    <inkscape:perspective
       id="perspective5056-3"
       inkscape:persp3d-origin="372.04724 : 350.78739 : 1"
       inkscape:vp_z="744.09448 : 526.18109 : 1"
       inkscape:vp_y="0 : 1000 : 0"
       inkscape:vp_x="363.49708 : 943.81603 : 1"
       sodipodi:type="inkscape:persp3d" />
  </defs>
  <sodipodi:namedview
     id="base"
     pagecolor="#ffffff"
     bordercolor="#666666"
     borderopacity="1.0"
     inkscape:pageopacity="0.0"
     inkscape:pageshadow="2"
     inkscape:zoom="0.85372519"
     inkscape:cx="15.09373"
     inkscape:cy="93.254848"
     inkscape:document-units="px"
     inkscape:current-layer="layer1"
     showgrid="false"
     inkscape:window-width="1810"
     inkscape:window-height="992"
     inkscape:window-x="32"
     inkscape:window-y="-6"
     inkscape:window-maximized="0"
     showguides="true"
     inkscape:guide-bbox="true"
     inkscape:snap-grids="false"
     inkscape:snap-to-guides="false"
     showborder="true"
     inkscape:showpageshadow="false"
     fit-margin-top="0"
     fit-margin-left="0"
     fit-margin-right="0"
     fit-margin-bottom="0"
     inkscape:snap-page="false"
     inkscape:snap-global="false" />
  <metadata
     id="metadata7">
    <rdf:RDF>
      <cc:Work
         rdf:about="">
        <dc:format>image/svg+xml</dc:format>
        <dc:type
           rdf:resource="http://purl.org/dc/dcmitype/StillImage" />
        <dc:title />
      </cc:Work>
    </rdf:RDF>
  </metadata>
  <g
     inkscape:groupmode="layer"
     id="layer2"
     inkscape:label="補助線"
     style="display:none"
     sodipodi:insensitive="true">
    <path
       style="fill:none;stroke:#0000ff;stroke-width:1px;stroke-linecap:butt;stroke-linejoin:miter;stroke-opacity:1"
       d="M 10,310 360,10"
       id="path3025"
       inkscape:connector-curvature="0"
       sodipodi:nodetypes="cc" />
    <path
       style="fill:none;stroke:#0000ff;stroke-width:1px;stroke-linecap:butt;stroke-linejoin:miter;stroke-opacity:1"
       d="M 10,10 360,310"
       id="path3027"
       inkscape:connector-curvature="0"
       sodipodi:nodetypes="cc" />
    <path
       style="display:inline;fill:none;stroke:#ff0000;stroke-width:1px;stroke-linecap:butt;stroke-linejoin:miter;stroke-opacity:1"
       d="M 10,0 V 320"
       id="path3006"
       inkscape:connector-curvature="0"
       sodipodi:nodetypes="cc" />
    <path
       style="display:inline;fill:none;stroke:#ff0000;stroke-width:1px;stroke-linecap:butt;stroke-linejoin:miter;stroke-opacity:1"
       d="M 360,0 V 320"
       id="path3010"
       inkscape:connector-curvature="0"
       sodipodi:nodetypes="cc" />
    <path
       style="display:inline;fill:none;stroke:#ff0000;stroke-width:1px;stroke-linecap:butt;stroke-linejoin:miter;stroke-opacity:1"
       d="M 0,9.9999681 370,10"
       id="path3016"
       inkscape:connector-curvature="0" />
    <path
       transform="translate(84.715796,27.711696)"
       style="display:inline;fill:none;stroke:#ff0000;stroke-width:1px;stroke-linecap:butt;stroke-linejoin:miter;stroke-opacity:1"
       d="M -84.715796,282.2883 H 285.2842"
       id="path3018"
       inkscape:connector-curvature="0"
       sodipodi:nodetypes="cc" />
  </g>
  <g
     inkscape:groupmode="layer"
     id="layer1"
     inkscape:label="吹き出し"
     sodipodi:insensitive="true">
    <path
       style="display:inline;opacity:1;fill:#fefefe;fill-opacity:1;stroke:#000000;stroke-width:1.5;stroke-linecap:round;stroke-linejoin:round;stroke-miterlimit:4;stroke-dasharray:none;stroke-dashoffset:0;stroke-opacity:1"
       d="m 294.15551,242.04407 c -34.15446,0 -61.84213,-50.79452 -61.84213,-113.45274 0,-9.33159 -10.45738,-31.161784 -27.02253,-24.36895 14.37847,-14.380381 30.91088,-15.891339 32.42438,-22.072379 9.67264,-39.502217 31.30534,-67.011428 56.44028,-67.011428 34.15447,0 61.84215,50.794532 61.84215,113.452757 0,62.65823 -27.68768,113.45276 -61.84215,113.45274 z"
       id="path7611-2"
       inkscape:connector-curvature="0"
       sodipodi:nodetypes="sscssss" />
    <text
       xml:space="preserve"
       style="font-style:normal;font-variant:normal;font-weight:normal;font-stretch:normal;font-size:31.66041183px;line-height:1;font-family:HGMinchoB;-inkscape-font-specification:HGMinchoB;letter-spacing:0px;word-spacing:0px;display:inline;fill:#000000;fill-opacity:1;stroke:none;stroke-width:1.48408175;stroke-linecap:round"
       x="261.06204"
       y="69.255882"
       id="text7607-1"><tspan
         sodipodi:role="line"
         x="261.06204"
         y="69.255882"
         id="tspan9531-9"
         style="line-height:1;stroke-width:1.48408175">必君</tspan><tspan
         sodipodi:role="line"
         x="261.06204"
         y="103.19726"
         id="tspan49841"
         style="line-height:1;stroke-width:1.48408175">要の</tspan><tspan
         sodipodi:role="line"
         x="261.06204"
         y="137.13864"
         id="tspan49843"
         style="line-height:1;stroke-width:1.48408175">な助</tspan><tspan
         sodipodi:role="line"
         x="261.06204"
         y="171.08002"
         id="tspan49845"
         style="line-height:1;stroke-width:1.48408175">のけ</tspan><tspan
         sodipodi:role="line"
         x="261.06204"
         y="205.02139"
         id="tspan49849"
         style="line-height:1;stroke-width:1.48408175">だが</tspan></text>
    <text
       xml:space="preserve"
       style="font-style:normal;font-variant:normal;font-weight:normal;font-stretch:normal;font-size:31.66041183px;line-height:1;font-family:HGMinchoB;-inkscape-font-specification:HGMinchoB;letter-spacing:0px;word-spacing:0px;display:inline;fill:#000000;fill-opacity:1;stroke:none;stroke-width:1.48408175;stroke-linecap:round"
       x="277.71964"
       y="220.44672"
       id="text7607-1-5"><tspan
         sodipodi:role="line"
         x="277.71964"
         y="220.44672"
         id="tspan49849-2"
         style="line-height:1;stroke-width:1.48408175">。</tspan></text>
  </g>
  <g
     style="display:none"
     inkscape:label="豚.old.01"
     id="g334"
     inkscape:groupmode="layer"
     sodipodi:insensitive="true">
    <path
       sodipodi:nodetypes="cccc"
       inkscape:connector-curvature="0"
       id="path224"
       d="M 181.37746,166.96601 75.845905,174.31125 158.77611,320.997 Z"
       style="display:inline;fill:#dbdee3;stroke:none;stroke-width:1.5;stroke-linecap:round" />
    <path
       sodipodi:nodetypes="cccccc"
       inkscape:connector-curvature="0"
       id="path226"
       d="m 145.6242,197.62282 16.62577,83.91981 c -1.58769,8.73399 -10.28626,20.38243 -17.7508,31.27229 -9.02165,-6.20959 -17.83361,-27.27856 -17.83361,-27.27856 l 8.64442,-86.50926 z"
       style="display:inline;fill:#550000;stroke:#000000;stroke-width:1.5;stroke-linecap:round;stroke-linejoin:miter;stroke-opacity:1" />
    <path
       sodipodi:nodetypes="ccccccc"
       inkscape:connector-curvature="0"
       id="path228"
       d="m 149.18905,174.5383 c -5.9212,2.49549 -14.21208,3.08098 -20.16533,2.02512 l -4.5733,4.93002 c 2.30531,6.20568 7.82475,16.36145 10.95742,19.97085 3.84301,0.90426 8.45298,-0.90815 11.15668,-2.6532 0.93617,-5.58773 5.79654,-12.82892 5.47407,-17.74254 z"
       style="display:inline;fill:#550000;stroke:#000000;stroke-width:1.5;stroke-linecap:round;stroke-linejoin:miter;stroke-opacity:1" />
    <path
       sodipodi:nodetypes="ccccc"
       inkscape:connector-curvature="0"
       id="path230"
       d="m 87.962598,153.18684 c 0.445907,-4.17187 1.609507,-8.02679 3.973677,-12.57104 0.28792,11.61293 23.105495,30.08397 43.800965,34.30903 -6.84429,3.07418 -12.96903,17.1795 -21.2706,29.08034 -12.67378,-14.61408 -24.366205,-39.38644 -26.504042,-50.81833 z"
       style="display:inline;fill:#dbdbe3;stroke:#000000;stroke-width:1.5;stroke-linecap:round;stroke-linejoin:miter;stroke-opacity:1" />
    <path
       sodipodi:nodetypes="cssssssscccc"
       inkscape:connector-curvature="0"
       id="path232"
       d="m 85.093877,143.27532 c -16.203519,10.30686 -60.837319,19.54032 -63.352614,30.19 -4.38302,18.55762 26.866772,94.74468 28.488374,120.83577 2.379064,38.27874 -7.625805,92.24336 2.259643,99.69185 13.758423,10.36666 77.31268,19.45395 93.36648,15.08517 6.1592,-1.67614 12.17704,-7.5511 14.02518,-17.43297 7.26149,-38.82661 3.6855,-89.6386 2.37386,-92.70982 -8.01829,-18.77569 -42.64104,-70.69231 -49.86235,-92.0837 -4.81158,-14.25308 -25.487497,-60.36112 -21.761615,-73.26842 -3.942427,5.1774 -9.30794,10.43791 -11.762761,15.67948 -0.128821,6.8785 0.293649,25.2374 -0.08271,43.36489 3.634273,1.32741 7.802959,3.08623 12.026921,5.66739"
       style="display:inline;fill:#1c1f24;stroke:#000000;stroke-width:1.5;stroke-linecap:round;stroke-linejoin:miter;stroke-opacity:1" />
    <path
       sodipodi:nodetypes="ccscc"
       inkscape:connector-curvature="0"
       id="path234"
       d="m 140.04275,174.31342 c 6.30373,-0.81511 18.02414,16.94016 21.55963,25.89397 5.60989,-14.59445 9.68568,-49.72078 7.97757,-54.42401 -1.61,-4.4331 -2.8546,-9.17178 -4.0829,-11.36191 1.44111,13.49207 -15.11794,38.52641 -25.4543,39.89195 z"
       style="display:inline;fill:#dbdbe3;stroke:#000000;stroke-width:1.5;stroke-linecap:round;stroke-linejoin:miter;stroke-opacity:1" />
    <path
       sodipodi:nodetypes="ccc"
       inkscape:connector-curvature="0"
       id="path236"
       d="m 103.52763,188.82994 -24.561109,19.94634 c 15.452884,9.6599 63.165579,70.38372 80.694949,87.29249"
       style="display:inline;fill:none;stroke:#000000;stroke-width:1.5;stroke-linecap:round;stroke-linejoin:miter;stroke-opacity:1" />
    <g
       style="display:inline;stroke:#000000;stroke-width:0.67775476"
       transform="matrix(-2.1043792,0.78568688,0.76271821,2.0428601,2866.4212,-1474.2987)"
       id="g238" />
    <g
       style="display:inline;stroke:#000000;stroke-width:0.67775476"
       transform="matrix(-2.1732861,0.56792861,0.55132586,2.1097525,3078.7043,-1177.8363)"
       id="g240" />
    <g
       style="display:inline;stroke:#000000;stroke-width:0.67775476"
       transform="matrix(-2.1732861,0.56792861,0.55132586,2.1097525,3558.8869,-1279.0824)"
       id="g242" />
    <g
       style="display:inline;stroke-width:0.53290248"
       inkscape:label="駅員: 左手"
       id="g246"
       transform="matrix(2.6369758,-0.98453612,0.98453612,2.6369758,-289.48364,522.25221)">
      <g
         style="display:inline;stroke:#000000;stroke-width:0.67775476"
         transform="matrix(-0.7980275,0,0,0.77469807,1298.4706,-272.34221)"
         id="g244" />
    </g>
    <g
       style="display:inline;stroke:#000000;stroke-width:0.67775476"
       transform="matrix(-2.1043792,0.78568688,0.76271821,2.0428601,2866.4214,-1474.2988)"
       id="g248" />
    <g
       style="display:inline;stroke:#000000;stroke-width:0.39400309"
       transform="matrix(2.3836243,3.0411577,-2.9522529,2.3139416,-1209.0458,-5168.5899)"
       id="g250" />
    <g
       style="display:inline;stroke:#000000;stroke-width:0.39400309"
       transform="matrix(2.6801275,2.7833829,-2.702014,2.6017771,-1786.5905,-4923.939)"
       id="g252" />
    <g
       style="display:inline;stroke:#000000;stroke-width:0.39400309"
       transform="matrix(2.6801275,2.7833829,-2.702014,2.6017771,-2400.5034,-5503.3502)"
       id="g254" />
    <g
       style="display:inline;stroke-width:0.30979526"
       inkscape:label="駅員: 左手"
       id="g258"
       transform="matrix(-2.9868949,-3.8108432,-3.8108432,2.9868949,1631.4958,593.13552)">
      <g
         style="display:inline;stroke:#000000;stroke-width:0.39400309"
         transform="matrix(-0.7980275,0,0,0.77469807,1298.4706,-272.34221)"
         id="g256" />
    </g>
    <g
       style="display:inline;stroke:#000000;stroke-width:0.39400309"
       transform="matrix(2.3836243,3.0411577,-2.9522529,2.3139416,-1209.046,-5168.5902)"
       id="g260" />
    <path
       style="display:inline;fill:#1c1f24;stroke:#000000;stroke-width:1.5;stroke-linecap:round;stroke-linejoin:miter;stroke-opacity:1"
       d="m 170.0679,140.20125 c 12.65376,5.28966 47.72442,16.41737 57.85221,24.82752 13.77236,11.43664 1.13125,72.73963 -4.61546,93.21354 -5.10148,18.17515 1.8225,78.68687 2.49966,109.92011 0.48896,22.55317 -56.24432,36.48566 -66.39887,36.53809 -8.83971,0.0456 -14.11675,-13.36828 -14.0783,-18.26842 0.22719,-28.95694 -3.9498,-85.56151 -1.81131,-93.47099 13.40285,-49.57225 20.02566,-80.22791 22.035,-115.78447 0.93697,-16.58013 3.39746,-33.38563 -1.12736,-43.26993 1.46386,1.18163 6.10028,5.75877 8.53609,8.88261 4.17518,7.83383 8.22577,30.0865 11.44442,39.34535 l -10.29872,7.30211"
       id="path264"
       inkscape:connector-curvature="0"
       sodipodi:nodetypes="cssssssscccc" />
    <path
       sodipodi:nodetypes="ccc"
       inkscape:connector-curvature="0"
       id="path266"
       d="m 164.50041,185.19386 22.59869,13.06768 c -10.15395,29.23866 -25.02549,57.67204 -40.89226,92.53718"
       style="display:inline;fill:none;stroke:#000000;stroke-width:1.5;stroke-linecap:round;stroke-linejoin:miter;stroke-opacity:1" />
    <path
       sodipodi:nodetypes="csscccccc"
       inkscape:connector-curvature="0"
       id="path268"
       d="m 129.40615,288.65912 c 15.24189,-1.69148 40.9174,-5.92514 45.72565,-4.62325 6.9041,1.86934 19.81322,11.14589 16.4177,18.56265 l -5.83178,12.73823 -4.54971,7.7345 h -5.00468 l 3.18479,-7.27955 -7.27954,-8.18947 -32.75796,11.37427"
       style="display:inline;fill:#e9c6af;stroke:#000000;stroke-width:1.5;stroke-linecap:round;stroke-linejoin:miter;stroke-opacity:1" />
    <path
       sodipodi:nodetypes="csssssccc"
       inkscape:connector-curvature="0"
       id="path270"
       d="m 52.291581,285.03149 c -2.381359,-23.90798 -1.913686,-60.19545 -7.413192,-80.87298 -6.141323,-23.09073 -17.99494,-30.78104 -23.052594,-31.26454 -6.874252,-0.65716 -9.086583,25.14059 -10.152924,43.8959 -0.837945,14.73802 -0.07032,58.33093 -0.561699,87.82938 -0.202565,12.16104 5.890705,26.60675 9.742001,29.06106 10.376584,6.61264 111.945917,-2.01552 118.839087,-1.8524 4.80482,-14.39657 -5.17341,-30.0536 -4.97586,-45.60198 -17.59051,-1.83249 -65.16165,-0.0509 -91.675814,-0.50875"
       style="display:inline;fill:#1c1f24;stroke:#000000;stroke-width:1.5;stroke-linecap:round;stroke-linejoin:miter;stroke-opacity:1" />
    <g
       style="display:inline;stroke:#000000;stroke-width:0.19943449"
       transform="matrix(7.1514863,2.6700648,-2.5920085,6.9424206,-10914.732,-5471.4165)"
       id="g272" />
    <g
       style="display:inline;stroke:#000000;stroke-width:0.19943449"
       transform="matrix(7.3856584,1.9300389,-1.8736164,7.1697472,-11636.15,-4463.9236)"
       id="g274" />
    <g
       style="display:inline;stroke:#000000;stroke-width:0.19943449"
       transform="matrix(7.3856584,1.9300389,-1.8736164,7.1697472,-13267.996,-4807.9969)"
       id="g276" />
    <g
       style="display:inline;stroke-width:0.1568106"
       inkscape:label="駅員: 左手"
       id="g280"
       transform="matrix(-8.9614534,-3.3458306,-3.3458306,8.9614534,-189.75761,1313.6281)">
      <g
         style="display:inline;stroke:#000000;stroke-width:0.19943447"
         transform="matrix(-0.7980275,0,0,0.77469807,1298.4706,-272.34221)"
         id="g278" />
    </g>
    <g
       style="display:inline;stroke:#000000;stroke-width:0.19943449"
       transform="matrix(7.1514863,2.6700648,-2.5920085,6.9424206,-10914.733,-5471.4168)"
       id="g282" />
    <path
       sodipodi:nodetypes="csssccsssc"
       inkscape:connector-curvature="0"
       id="path284"
       d="m 174.78911,107.74785 c 1.69318,-2.80449 6.90479,-1.25638 9.15797,-9.548063 1.07377,-3.951429 1.61936,-8.442876 2.4372,-16.115891 0.81092,-7.608782 -1.71508,-11.286637 -4.49099,-11.854728 -3.32927,-0.681342 -5.08728,1.773735 -6.55941,5.735127 L 74.560607,82.800754 c -1.932532,-2.216429 -5.960878,-3.446701 -8.75454,-1.511811 -2.197926,1.522294 -2.818853,5.822344 -0.971344,12.728379 1.994203,7.454348 4.019094,12.357208 5.155897,15.270498 3.123484,8.00451 10.350152,5.3948 12.573557,7.80081"
       style="display:inline;fill:#deaa87;stroke:#000000;stroke-width:1.5;stroke-linecap:round;stroke-linejoin:miter;stroke-opacity:1" />
    <path
       sodipodi:nodetypes="cssssssc"
       inkscape:connector-curvature="0"
       id="path286"
       d="m 70.397954,102.39875 c 0.975582,-1.12027 3.675763,-5.545534 3.105378,-8.456999 -0.725546,-3.7034 -4.515893,-9.158358 -6.391748,-9.171616 -2.130944,-0.01508 -1.153262,4.908636 -0.407778,7.444018 1.535865,5.22366 3.172,12.142107 5.939867,14.186717 1.791657,1.3235 3.334044,5.91522 4.56563,3.55635 0.689659,-1.32095 -3.013186,-5.56577 -2.847321,-6.84699 0.217397,-1.67889 0.687993,-3.926734 1.030353,-6.400083"
       style="display:inline;opacity:0.95;fill:none;stroke:#000000;stroke-width:1.5;stroke-linecap:round;stroke-linejoin:miter;stroke-opacity:1" />
    <path
       sodipodi:nodetypes="czszc"
       inkscape:connector-curvature="0"
       id="path288"
       d="M 73.210285,86.373075 C 68.387643,58.821047 69.886343,45.345385 80.596516,32.286039 91.306685,19.226703 106.40858,11.741495 115.9351,10.89651 c 8.0104,-0.710512 31.19402,0.302872 44.03581,14.228829 12.84178,13.925958 16.35867,24.834794 15.70711,53.962979"
       style="display:inline;fill:#deaa87;stroke:#000000;stroke-width:1.5;stroke-linecap:round;stroke-linejoin:miter;stroke-opacity:1" />
    <path
       sodipodi:nodetypes="cssssc"
       inkscape:connector-curvature="0"
       id="path290"
       d="m 175.65433,93.322779 c -0.89364,10.856401 -3.3613,30.619251 -5.93536,37.588561 -4.22771,11.44645 -20.51759,30.83911 -24.04768,33.50634 -5.84276,4.41454 -15.77484,5.77912 -24.06385,2.47964 -5.12689,-2.04079 -27.588765,-20.58294 -31.992155,-29.67938 -4.88314,-10.08748 -9.879158,-24.20965 -12.941147,-34.66357"
       style="display:inline;fill:#deaa87;stroke:#000000;stroke-width:1.5;stroke-linecap:round;stroke-linejoin:miter;stroke-opacity:1" />
    <path
       sodipodi:nodetypes="ssssssccccccssssccsccsss"
       inkscape:connector-curvature="0"
       id="path292"
       d="m 157.17756,137.76893 c 7.40902,-16.84435 10.75551,-20.24975 10.53975,-27.27182 -0.21013,-6.83939 -2.58076,-11.939828 -5.42665,-12.717648 -1.82438,-0.498621 -5.84631,4.289798 -10.81191,4.305298 -4.84362,0.0151 -10.05167,-3.404916 -11.84515,-0.61857 -1.15246,1.79048 -3.84863,-3.354417 -4.42825,-4.284197 -1.29284,-2.073837 0.0915,-5.665075 1.71661,-7.569371 0.88565,2.370831 0.26524,4.057174 1.9136,5.492595 l 22.37841,-4.899062 c 4.42987,-0.647646 3.50922,-7.170593 -7.42187,-6.98801 4.48689,-1.646109 10.57519,-7.464114 11.70566,-9.355586 2.52622,-4.226823 4.22997,-10.140943 3.40586,-14.666846 -0.55477,-3.046834 -6.68174,-30.885203 -18.37905,-38.90925 -10.46655,-7.17979 -21.91616,-9.516995 -33.87002,-8.165746 -9.39993,1.062553 -22.483515,8.393702 -28.807228,20.911722 -6.094399,12.064102 3.038223,40.13368 2.763643,44.934969 -0.21821,3.815669 -0.79789,7.132571 1.84777,9.99621 -2.533386,3.084197 0.471386,6.937269 5.17492,7.649641 -3.08965,3.30707 -6.37475,7.210751 -5.83706,9.241661 2.35879,8.9093 19.844245,27.63712 21.140775,35.74401 l 9.08461,1.85499 c -9.22663,5.26518 -3.17496,21.45634 4.89668,24.22801 3.24728,1.11507 12.85179,0.5782 15.70265,-1.95118 5.44036,-4.82687 9.47219,-15.40326 14.55625,-26.96182 z"
       style="display:inline;fill:#e9c6af;stroke:none;stroke-width:1.5;stroke-linecap:round" />
    <path
       inkscape:transform-center-x="0.69501554"
       inkscape:transform-center-y="-4.9707261"
       sodipodi:nodetypes="ssss"
       inkscape:connector-curvature="0"
       id="path294"
       d="m 140.68355,145.49008 c -3.02896,-0.12358 -10.04055,0.33126 -15.22713,1.69355 -2.73265,0.71777 2.4309,5.19476 8.52369,4.47341 5.08471,-0.60199 11.47062,-5.97249 6.70344,-6.16696 z"
       style="display:inline;fill:#deaa87;stroke:none;stroke-width:1.5;stroke-linecap:round" />
    <path
       sodipodi:nodetypes="ssscs"
       inkscape:connector-curvature="0"
       id="path296"
       d="m 139.44978,119.61193 c 1.6322,0.0299 5.27811,3.46766 5.87806,5.44029 1.47681,4.85568 0.0367,7.3751 -4.69118,10.65097 -1.08257,0.75008 -1.46328,-6.29304 -4.44103,-6.45527 3.32243,-2.1288 1.91128,-9.66069 3.25415,-9.63599 z"
       style="display:inline;fill:#deaa87;fill-opacity:1;stroke:none;stroke-width:1.5;stroke-linecap:round;stroke-linejoin:round;stroke-opacity:1" />
    <path
       sodipodi:nodetypes="ccccscsssccssssc"
       inkscape:connector-curvature="0"
       id="path298"
       d="m 118.40606,91.388846 -8.47605,-1.142177 c 0.62364,0.815239 5.6426,3.584396 4.49365,6.472973 l -23.913145,1.199847 c 0.6713,2.046347 7.34814,9.043091 12.119915,8.946501 3.55211,-0.0719 8.4879,-2.56254 10.94846,-3.35283 -0.17554,2.34594 0.70906,5.20549 0.16431,8.43993 -0.44912,2.66645 0.12366,6.72998 -0.18619,9.02973 -0.39074,2.89991 -9.19584,17.45466 -3.88159,27.87791 0.39908,0.78277 17.68459,-9.32791 18.13745,-8.59043 0.77986,-1.15547 -0.599,-9.73063 2.93501,-10.11751 -2.31777,-1.50663 -3.97906,-4.8612 -3.78172,-7.59513 0.10313,-1.4288 7.1e-4,-7.57542 -0.24599,-11.22818 -0.38892,-5.7559 -0.34935,-12.994102 -1.24768,-17.46462 -0.32524,-1.618557 -2.63312,-7.214548 -4.04684,-7.468174 -2.26476,-0.406317 -0.58533,3.733346 -3.01959,4.99216 z"
       style="display:inline;fill:#deaa87;stroke:none;stroke-width:1.5;stroke-linecap:round" />
    <path
       sodipodi:nodetypes="cccccc"
       inkscape:connector-curvature="0"
       id="path300"
       d="m 98.448275,95.650811 11.647115,-1.59097 5.36909,3.541696 -14.05224,3.011563 -8.642145,-2.44006 z"
       style="display:inline;fill:#fefefe;fill-opacity:1;stroke:none;stroke-width:1.5;stroke-linecap:round" />
    <path
       sodipodi:nodetypes="cssc"
       inkscape:connector-curvature="0"
       id="path302"
       d="m 115.46448,97.601537 c -2.86048,1.29452 -4.02481,2.752383 -6.12147,3.113663 -1.71383,0.29531 -8.52197,1.54134 -10.065525,1.37712 -2.49895,-0.26586 -4.42423,-2.726045 -6.50739,-3.91928"
       style="display:inline;fill:#fefefe;fill-opacity:1;stroke:#916f6f;stroke-width:1.5;stroke-linecap:round;stroke-linejoin:miter;stroke-opacity:1" />
    <path
       sodipodi:nodetypes="cscc"
       inkscape:connector-curvature="0"
       id="path304"
       d="m 108.74407,94.171839 c 0.65279,2.379727 -0.97164,5.428513 -4.49138,5.642214 -2.87923,0.174809 -5.604745,-2.480965 -5.620755,-4.627611 z"
       style="display:inline;fill:#2b0000;stroke:none;stroke-width:1.5;stroke-linecap:round" />
    <path
       sodipodi:nodetypes="ssssss"
       inkscape:connector-curvature="0"
       id="path306"
       d="m 118.83774,93.14097 c -6.06835,1.64211 -8.13548,-2.030924 -15.10659,-3.828557 -7.102095,-1.831392 -19.010754,0.448754 -17.43,-0.947679 2.873605,-2.538647 14.83845,-1.98719 21.46073,-0.496371 2.13707,0.481097 6.568,1.563842 8.81356,2.02564 3.96932,0.816296 6.32196,2.148392 2.2623,3.246967 z"
       style="display:inline;fill:#000000;stroke:none;stroke-width:1.5;stroke-linecap:round" />
    <path
       sodipodi:nodetypes="cssc"
       inkscape:connector-curvature="0"
       id="path308"
       d="m 116.79455,98.12696 c -2.08968,-0.738036 -4.53758,-4.051151 -6.69916,-4.067119 -2.23647,-0.01655 -9.86178,1.092629 -11.647115,1.59097 -3.14439,0.877673 -5.77385,2.709416 -8.25193,3.572628"
       style="display:inline;fill:none;stroke:#000000;stroke-width:1.5;stroke-linecap:round;stroke-linejoin:miter;stroke-opacity:1" />
    <path
       sodipodi:nodetypes="cc"
       inkscape:connector-curvature="0"
       id="path310"
       d="m 121.07899,88.070197 c 0.56695,2.403878 0.88536,4.062162 1.91745,7.861525"
       style="fill:none;stroke:#000000;stroke-width:1.5;stroke-linecap:round;stroke-linejoin:miter;stroke-opacity:1" />
    <path
       sodipodi:nodetypes="cc"
       inkscape:connector-curvature="0"
       id="path312"
       d="m 117.53465,123.96307 c -0.81758,3.63618 2.02197,5.83188 3.34585,5.81888"
       style="fill:none;stroke:#6c5353;stroke-width:1.5;stroke-linecap:round;stroke-linejoin:miter;stroke-opacity:1" />
    <path
       sodipodi:nodetypes="sssssssss"
       inkscape:connector-curvature="0"
       id="path314"
       d="m 153.62376,143.92051 c 0.77634,-0.67351 1.31713,-4.54607 0.21583,-5.86413 -1.09006,-1.3047 -13.86975,-5.09538 -17.3431,-5.51577 -0.82298,-0.0995 -2.6315,1.19286 -5.27543,1.55286 -2.65177,0.36107 -4.9924,-1.32201 -5.77854,-1.05874 -3.31757,1.11136 -14.79291,8.00596 -16.01575,9.18717 -0.81318,0.78548 0.68167,6.24984 2.47213,6.74706 2.19135,0.60855 9.17918,-3.12398 20.51343,-4.39297 13.27421,-1.48619 19.18397,1.10325 21.21143,-0.65548 z"
       style="display:inline;fill:#000000;stroke:none;stroke-width:1.5;stroke-linecap:round" />
    <path
       sodipodi:nodetypes="cssssssc"
       inkscape:connector-curvature="0"
       id="path316"
       d="m 182.08283,93.753374 c -0.49508,-3.988367 -3.82254,-6.659203 -3.6315,-9.631819 0.17008,-2.646449 2.0023,-9.852115 3.83709,-10.242934 2.0842,-0.443943 1.70935,3.24629 1.48983,5.87986 -0.45229,5.425945 0.25989,11.924939 -2.03946,14.485134 -1.48829,1.657223 -2.86421,6.432175 -4.54562,4.36968 -0.94157,-1.154976 1.54549,-4.811432 1.39822,-6.094927 -0.15087,-1.314815 -1.5904,-3.327846 -1.90613,-5.316979"
       style="display:inline;opacity:0.95;fill:#deaa87;stroke:#000000;stroke-width:1.5;stroke-linecap:round;stroke-linejoin:miter;stroke-opacity:1" />
    <path
       sodipodi:nodetypes="cccccc"
       inkscape:connector-curvature="0"
       id="path318"
       d="m 138.43206,94.390962 7.91224,0.624707 15.29213,-5.543524 -6.18274,-0.603462 -12.40637,1.276217 z"
       style="display:inline;fill:#fefefe;fill-opacity:1;stroke:none;stroke-width:1.5;stroke-linecap:round" />
    <path
       sodipodi:nodetypes="cssc"
       inkscape:connector-curvature="0"
       id="path320"
       d="m 138.43206,94.390962 c 2.45283,0.593274 5.72366,2.95124 7.82127,2.768925 2.54965,-0.221596 8.62889,-0.784516 10.48581,-1.931781 1.3249,-0.818573 3.10881,-4.055139 4.89729,-5.755961"
       style="display:inline;fill:#fefefe;fill-opacity:1;stroke:#916f6f;stroke-width:1.5;stroke-linecap:round;stroke-linejoin:miter;stroke-opacity:1" />
    <path
       sodipodi:nodetypes="cscc"
       inkscape:connector-curvature="0"
       id="path322"
       d="m 144.83855,90.480191 c 0.34726,1.852754 1.30821,4.508685 5.21464,4.41511 3.64887,-0.08742 4.82374,-3.520323 4.31484,-5.667772 z"
       style="display:inline;fill:#2b0000;stroke:none;stroke-width:1.5;stroke-linecap:round" />
    <path
       sodipodi:nodetypes="cssc"
       inkscape:connector-curvature="0"
       id="path324"
       d="m 137.09736,95.617453 c 1.90613,-1.247844 3.79538,-4.92811 5.94996,-5.472553 2.22919,-0.563252 10.50187,-1.337333 12.40637,-1.276217 3.35448,0.107616 5.54991,0.317871 8.2354,0.573967"
       style="display:inline;fill:none;stroke:#000000;stroke-width:1.5;stroke-linecap:round;stroke-linejoin:miter;stroke-opacity:1" />
    <path
       sodipodi:nodetypes="ssssss"
       inkscape:connector-curvature="0"
       id="path326"
       d="m 135.61003,91.139013 c 3.94839,-0.04607 9.66763,-5.337212 15.28602,-6.928208 7.05693,-1.998357 17.02299,-3.487963 15.03088,-4.180842 -2.60891,-0.907416 -10.50407,1.131279 -15.22578,1.884136 -2.16335,0.344931 -8.01279,2.484044 -10.10984,3.410334 -4.87038,2.15126 -12.28829,5.899853 -4.98128,5.81458 z"
       style="display:inline;fill:#000000;stroke:none;stroke-width:1.5;stroke-linecap:round" />
    <path
       sodipodi:nodetypes="ssss"
       inkscape:connector-curvature="0"
       id="path328"
       d="m 133.1583,93.499408 c -1.77927,-0.577685 -3.26744,-5.892156 -1.19558,-7.369468 0.96406,-0.68741 1.05668,2.073991 1.43881,3.701059 0.4027,1.714645 0.49579,3.908351 -0.24323,3.668409 z"
       style="fill:#deaa87;stroke:none;stroke-width:1.5;stroke-linecap:round" />
    <path
       sodipodi:nodetypes="cc"
       inkscape:connector-curvature="0"
       id="path330"
       d="m 136.73633,127.86447 c -3.23936,4.31799 -7.79873,5.32072 -12.09556,1.56645"
       style="display:inline;fill:none;stroke:#000000;stroke-width:1.5;stroke-linecap:round;stroke-linejoin:miter;stroke-opacity:1" />
    <path
       sodipodi:nodetypes="ssccssccsss"
       inkscape:connector-curvature="0"
       id="path332"
       d="m 125.4473,99.572574 c -3.57164,0.339462 -11.58802,8.792016 -17.67562,8.444086 -8.170615,-0.46699 -14.495415,-3.1006 -25.685871,-8.01337 0.168048,-1.295016 -0.557775,-4.324486 0.845041,-6.380626 12.103635,-1.902931 37.92139,-2.721808 41.4692,-3.056025 l 5.18063,-0.488037 c 3.4093,-0.321173 28.36301,-3.584274 40.65284,-4.205618 1.94966,1.709261 2.09313,4.664262 2.62676,5.886689 -9.45298,7.048965 -14.35461,9.742637 -22.14966,11.861757 -5.80776,1.57884 -15.99716,-4.929514 -19.56873,-4.59007 z"
       style="display:inline;opacity:0.9;fill:#280b0b;stroke:none;stroke-width:1.5;stroke-linecap:round" />
  </g>
  <g
     sodipodi:insensitive="true"
     style="display:none"
     inkscape:label="豚.old.01"
     id="g49513"
     inkscape:groupmode="layer">
    <path
       sodipodi:nodetypes="csssc"
       inkscape:connector-curvature="0"
       id="path49391"
       d="m 247.03499,336.35552 c 1.04364,-34.65152 -10.38862,-112.2115 -10.32904,-134.24593 0.0408,-15.0792 -3.57917,-38.84487 -8.63683,-39.32837 -6.87425,-0.65716 -11.0071,28.55537 -14.94173,46.92429 -3.06163,14.29328 -3.22355,100.28409 -3.71492,129.78254"
       style="display:inline;fill:#1c1f24;stroke:#000000;stroke-width:1.5;stroke-linecap:round;stroke-linejoin:round;stroke-opacity:1" />
    <path
       sodipodi:nodetypes="ccccc"
       inkscape:connector-curvature="0"
       id="path49393"
       d="m 91.495453,141.795 73.804847,-1.47818 0.34044,48.38808 -68.908587,8.95404 z"
       style="display:inline;fill:#deaa87;fill-opacity:1;stroke:none;stroke-width:1.5;stroke-linecap:round;stroke-linejoin:round;stroke-opacity:1" />
    <path
       sodipodi:nodetypes="cccc"
       inkscape:connector-curvature="0"
       id="path49395"
       d="M 179.82088,168.96732 90.077463,188.32044 158.77611,320.997 Z"
       style="display:inline;fill:#dbdee3;stroke:none;stroke-width:1.5;stroke-linecap:round;stroke-linejoin:round" />
    <path
       sodipodi:nodetypes="cccccc"
       inkscape:connector-curvature="0"
       id="path49397"
       d="m 145.6242,197.62282 17.25472,93.98304 -8.94547,41.02104 -22.55075,-33.2536 4.20524,-99.6235 z"
       style="display:inline;fill:#550000;stroke:#000000;stroke-width:1.5;stroke-linecap:round;stroke-linejoin:round;stroke-opacity:1" />
    <path
       sodipodi:nodetypes="ccccccc"
       inkscape:connector-curvature="0"
       id="path49399"
       d="m 149.18905,174.5383 c -6.5883,0.93891 -14.768,3.85927 -20.72125,2.80341 l -4.68448,4.65206 c 2.75004,5.48298 9.38132,14.5825 11.62452,19.47052 3.84301,0.90426 8.11943,-0.46341 10.82313,-2.20846 0.93617,-5.58773 6.13009,-13.27366 5.80762,-18.18728 z"
       style="display:inline;fill:#550000;stroke:#000000;stroke-width:1.5;stroke-linecap:round;stroke-linejoin:round;stroke-opacity:1" />
    <path
       sodipodi:nodetypes="ccccc"
       inkscape:connector-curvature="0"
       id="path49401"
       d="m 87.962603,153.18684 c 0.4459,-4.17187 1.6095,-8.02679 3.97367,-12.57104 0.28792,11.61293 26.721967,31.49911 43.800967,35.56693 -6.84429,3.07418 -14.0697,16.39331 -22.37127,28.29415 -11.78431,-17.06013 -23.265537,-39.85815 -25.403367,-51.29004 z"
       style="display:inline;fill:#dbdbe3;stroke:#000000;stroke-width:1.5;stroke-linecap:round;stroke-linejoin:round;stroke-opacity:1" />
    <path
       sodipodi:nodetypes="csscccc"
       inkscape:connector-curvature="0"
       id="path49403"
       d="m 85.093873,143.27532 c -16.20351,10.30686 -63.06099,20.87453 -65.57629,31.52421 -4.38302,18.55762 27.61673,109.14735 29.23833,135.23844 2.37906,38.27874 -6.15208,76.50648 3.73337,83.95497 L 158.9116,318.66153 103.63141,203.5432 Z"
       style="display:inline;fill:#1c1f24;stroke:#000000;stroke-width:1.5;stroke-linecap:round;stroke-linejoin:round;stroke-opacity:1" />
    <path
       sodipodi:nodetypes="cccccc"
       inkscape:connector-curvature="0"
       id="path49405"
       d="M 106.91937,194.91599 C 102.10779,180.66291 86.904953,146.4905 90.630833,133.5832 c -3.94242,5.1774 -9.30794,10.43791 -11.76276,15.67948 -0.12882,6.8785 -0.26227,27.79463 -0.63863,45.92212 3.63427,1.32741 14.14045,9.64609 18.36441,12.22725 z"
       style="display:inline;fill:#1c1f24;stroke:#000000;stroke-width:1.5;stroke-linecap:round;stroke-linejoin:round;stroke-opacity:1" />
    <path
       sodipodi:nodetypes="csscccc"
       inkscape:connector-curvature="0"
       id="path49407"
       d="m 52.489283,393.99294 c 13.75842,10.36666 77.312677,19.45396 93.366477,15.08517 6.1592,-1.67613 12.17704,-7.5511 14.02518,-17.43297 7.26149,-38.82661 -2.91849,-84.92146 -4.23013,-87.99268 -8.01829,-18.77569 -37.07772,-78.33424 -48.73144,-108.73647 l -25.951537,20.30896 c 9.53044,16.62966 55.954627,66.97484 71.460687,90.2781"
       style="display:inline;fill:#1c1f24;stroke:#000000;stroke-width:1.5;stroke-linecap:round;stroke-linejoin:round;stroke-opacity:1" />
    <path
       sodipodi:nodetypes="ccscc"
       inkscape:connector-curvature="0"
       id="path49409"
       d="m 139.4138,175.41409 c 6.30373,-0.81511 18.65309,15.83949 22.18858,24.7933 5.60989,-14.59445 9.68568,-49.72078 7.97757,-54.42401 -1.61,-4.4331 -2.8546,-9.17178 -4.0829,-11.36191 1.44111,13.49207 -18.10546,37.42574 -26.08325,40.99262 z"
       style="display:inline;fill:#dbdbe3;stroke:#000000;stroke-width:1.5;stroke-linecap:round;stroke-linejoin:round;stroke-opacity:1" />
    <g
       style="display:inline;stroke:#000000;stroke-width:0.67775476;stroke-linecap:round;stroke-linejoin:round"
       transform="matrix(-2.1043792,0.78568688,0.76271821,2.0428601,2866.4212,-1474.2987)"
       id="g49411" />
    <g
       style="display:inline;stroke:#000000;stroke-width:0.67775476;stroke-linecap:round;stroke-linejoin:round"
       transform="matrix(-2.1732861,0.56792861,0.55132586,2.1097525,3078.7043,-1177.8363)"
       id="g49413" />
    <g
       style="display:inline;stroke:#000000;stroke-width:0.67775476;stroke-linecap:round;stroke-linejoin:round"
       transform="matrix(-2.1732861,0.56792861,0.55132586,2.1097525,3558.8869,-1279.0824)"
       id="g49415" />
    <g
       style="display:inline;stroke-width:0.53290248;stroke-linecap:round;stroke-linejoin:round"
       inkscape:label="駅員: 左手"
       id="g49419"
       transform="matrix(2.6369758,-0.98453612,0.98453612,2.6369758,-289.48364,522.25221)">
      <g
         style="display:inline;stroke:#000000;stroke-width:0.67775476;stroke-linecap:round;stroke-linejoin:round"
         transform="matrix(-0.7980275,0,0,0.77469807,1298.4706,-272.34221)"
         id="g49417" />
    </g>
    <g
       style="display:inline;stroke:#000000;stroke-width:0.67775476;stroke-linecap:round;stroke-linejoin:round"
       transform="matrix(-2.1043792,0.78568688,0.76271821,2.0428601,2866.4214,-1474.2988)"
       id="g49421" />
    <g
       style="display:inline;stroke:#000000;stroke-width:0.39400309;stroke-linecap:round;stroke-linejoin:round"
       transform="matrix(2.3836243,3.0411577,-2.9522529,2.3139416,-1209.0458,-5168.5899)"
       id="g49423" />
    <g
       style="display:inline;stroke:#000000;stroke-width:0.39400309;stroke-linecap:round;stroke-linejoin:round"
       transform="matrix(2.6801275,2.7833829,-2.702014,2.6017771,-1786.5905,-4923.939)"
       id="g49425" />
    <g
       style="display:inline;stroke:#000000;stroke-width:0.39400309;stroke-linecap:round;stroke-linejoin:round"
       transform="matrix(2.6801275,2.7833829,-2.702014,2.6017771,-2400.5034,-5503.3502)"
       id="g49427" />
    <g
       style="display:inline;stroke-width:0.30979526;stroke-linecap:round;stroke-linejoin:round"
       inkscape:label="駅員: 左手"
       id="g49431"
       transform="matrix(-2.9868949,-3.8108432,-3.8108432,2.9868949,1631.4958,593.13552)">
      <g
         style="display:inline;stroke:#000000;stroke-width:0.39400309;stroke-linecap:round;stroke-linejoin:round"
         transform="matrix(-0.7980275,0,0,0.77469807,1298.4706,-272.34221)"
         id="g49429" />
    </g>
    <g
       style="display:inline;stroke:#000000;stroke-width:0.39400309;stroke-linecap:round;stroke-linejoin:round"
       transform="matrix(2.3836243,3.0411577,-2.9522529,2.3139416,-1209.046,-5168.5902)"
       id="g49433" />
    <path
       sodipodi:nodetypes="cssscccc"
       inkscape:connector-curvature="0"
       id="path49435"
       d="m 169.91066,142.87429 c 15.76691,9.73702 47.39224,9.97986 57.52002,18.39002 7.31142,6.07144 12.79319,31.93518 9.03565,52.12893 -3.32046,17.84476 -7.94995,59.14444 -10.64587,68.74924 -5.10149,18.17515 -0.69331,54.7867 -0.0162,86.01994 L 147.13439,327.14843 172.2425,194.39241 Z"
       style="display:inline;fill:#1c1f24;stroke:#000000;stroke-width:1.5;stroke-linecap:round;stroke-linejoin:round;stroke-opacity:1" />
    <path
       sodipodi:nodetypes="cccccc"
       inkscape:connector-curvature="0"
       id="path49437"
       d="m 164.45063,190.24973 c 0.93697,-16.58013 4.49766,-46.45873 -0.0272,-56.34303 1.46386,1.18163 5.7858,7.01667 8.22161,10.14051 4.17518,7.83383 10.86394,30.0944 14.08259,39.35325 l -11.52174,15.62782 z"
       style="display:inline;fill:#1c1f24;stroke:#000000;stroke-width:1.5;stroke-linecap:round;stroke-linejoin:round;stroke-opacity:1" />
    <path
       sodipodi:nodetypes="csssccc"
       inkscape:connector-curvature="0"
       id="path49439"
       d="m 225.80431,368.16242 c 0.48896,22.55317 -56.24432,36.48568 -66.39887,36.53809 -8.83971,0.0456 -13.58706,-13.39281 -14.0783,-18.26842 -2.91757,-28.95694 -5.83665,-70.78114 -3.69816,-78.69062 13.40285,-49.57225 21.33752,-85.94379 22.82165,-117.49174 l 27.05113,11.15657 c -10.15395,26.0939 -29.39,69.18393 -45.25677,106.2504"
       style="display:inline;fill:#1c1f24;stroke:#000000;stroke-width:1.5;stroke-linecap:round;stroke-linejoin:round;stroke-opacity:1" />
    <path
       sodipodi:nodetypes="cssscccccc"
       inkscape:connector-curvature="0"
       id="path49441"
       d="m 145.12994,306.26977 c 6.13583,-0.68093 10.18879,0.74197 17.66429,-0.23593 11.09424,-1.4513 28.96245,-5.16511 31.83507,-4.38732 6.90409,1.86937 16.03951,10.51694 12.64399,17.9337 l -5.83178,12.73823 -4.54971,7.7345 h -5.00468 l 3.18479,-7.27955 -7.27954,-8.18947 -32.75796,11.37427"
       style="display:inline;fill:#e9c6af;stroke:#000000;stroke-width:1.5;stroke-linecap:round;stroke-linejoin:round;stroke-opacity:1" />
    <path
       sodipodi:nodetypes="csssssccc"
       inkscape:connector-curvature="0"
       id="path49443"
       d="m 48.550633,307.0729 c -0.60241,-33.24743 -4.84378,-78.23424 -10.34328,-98.91177 -6.14133,-23.09073 -11.3239,-34.78366 -16.38156,-35.26716 -6.87425,-0.65716 -2.6604,13.07437 -6.59503,31.44329 -3.06163,14.29328 -7.6308397,79.67826 -8.1222097,109.17671 -0.20257,12.16104 14.3406797,31.94358 18.1919797,34.39789 10.37658,6.61264 117.561787,4.50834 124.454957,4.67146 4.80482,-14.39657 2.68849,-39.80236 -4.34691,-47.48884 -17.59051,-1.83249 -75.631457,-0.24054 -103.257467,2.63713"
       style="display:inline;fill:#1c1f24;stroke:#000000;stroke-width:1.5;stroke-linecap:round;stroke-linejoin:round;stroke-opacity:1" />
    <g
       style="display:inline;stroke:#000000;stroke-width:0.19943449;stroke-linecap:round;stroke-linejoin:round"
       transform="matrix(7.1514863,2.6700648,-2.5920085,6.9424206,-10914.732,-5471.4165)"
       id="g49445" />
    <g
       style="display:inline;stroke:#000000;stroke-width:0.19943449;stroke-linecap:round;stroke-linejoin:round"
       transform="matrix(7.3856584,1.9300389,-1.8736164,7.1697472,-11636.15,-4463.9236)"
       id="g49447" />
    <g
       style="display:inline;stroke:#000000;stroke-width:0.19943449;stroke-linecap:round;stroke-linejoin:round"
       transform="matrix(7.3856584,1.9300389,-1.8736164,7.1697472,-13267.996,-4807.9969)"
       id="g49449" />
    <g
       style="display:inline;stroke-width:0.1568106;stroke-linecap:round;stroke-linejoin:round"
       inkscape:label="駅員: 左手"
       id="g49453"
       transform="matrix(-8.9614534,-3.3458306,-3.3458306,8.9614534,-189.75761,1313.6281)">
      <g
         style="display:inline;stroke:#000000;stroke-width:0.19943447;stroke-linecap:round;stroke-linejoin:round"
         transform="matrix(-0.7980275,0,0,0.77469807,1298.4706,-272.34221)"
         id="g49451" />
    </g>
    <g
       style="display:inline;stroke:#000000;stroke-width:0.19943449;stroke-linecap:round;stroke-linejoin:round"
       transform="matrix(7.1514863,2.6700648,-2.5920085,6.9424206,-10914.733,-5471.4168)"
       id="g49455" />
    <path
       sodipodi:nodetypes="csssccsssc"
       inkscape:connector-curvature="0"
       id="path49457"
       d="m 174.12201,109.74916 c 1.69318,-2.80449 5.96136,-1.25638 8.21454,-9.54806 1.07377,-3.95143 2.56279,-8.442877 3.38063,-16.115892 0.81092,-7.608782 -1.71508,-11.286637 -4.49099,-11.854728 -3.32927,-0.681342 -5.08728,1.773735 -6.55941,5.735127 L 74.560603,84.802066 c -1.93253,-2.216429 -5.96087,-3.446701 -8.75454,-1.511811 -2.19792,1.522294 -2.81885,5.822344 -0.97134,12.728379 1.9942,7.454346 4.01909,12.357206 5.1559,15.270496 3.12348,8.00451 10.35015,5.3948 12.57355,7.80081"
       style="display:inline;fill:#deaa87;stroke:#000000;stroke-width:1.5;stroke-linecap:round;stroke-linejoin:round;stroke-opacity:1" />
    <path
       sodipodi:nodetypes="cssssssc"
       inkscape:connector-curvature="0"
       id="path49459"
       d="m 70.397953,104.40006 c 0.97558,-1.12027 3.67576,-5.545532 3.10538,-8.456997 -0.72555,-3.7034 -4.51589,-9.158358 -6.39175,-9.171616 -2.13094,-0.01508 -1.15326,4.908636 -0.40778,7.444018 1.53587,5.22366 3.172,12.142105 5.93987,14.186715 1.79166,1.3235 3.33404,5.91522 4.56563,3.55635 0.68966,-1.32095 -3.01319,-5.56577 -2.84732,-6.84699 0.2174,-1.67889 0.68799,-3.92673 1.03035,-6.400081"
       style="display:inline;opacity:0.95;fill:none;stroke:#000000;stroke-width:1.5;stroke-linecap:round;stroke-linejoin:round;stroke-opacity:1" />
    <path
       sodipodi:nodetypes="czszc"
       inkscape:connector-curvature="0"
       id="path49461"
       d="m 73.210283,86.373075 c -4.82264,-27.552028 -3.10157,-39.026388 6.27439,-52.308092 9.37596,-13.281704 26.508077,-21.712594 37.315237,-22.775378 11.16286,-1.097763 30.2371,3.288081 43.15751,16.11337 12.92041,12.825288 16.37216,22.557158 15.7206,51.685343"
       style="display:inline;fill:#deaa87;stroke:#000000;stroke-width:1.5;stroke-linecap:round;stroke-linejoin:round;stroke-opacity:1" />
    <path
       sodipodi:nodetypes="cssssc"
       inkscape:connector-curvature="0"
       id="path49463"
       d="m 175.65433,93.322779 c -0.89364,10.856401 -3.3613,30.619251 -5.93536,37.588561 -4.22771,11.44645 -20.9893,32.09701 -24.51939,34.76424 -5.84276,4.41454 -15.30313,4.52122 -23.59214,1.22174 -5.12689,-2.04079 -27.588767,-20.58294 -31.992157,-29.67938 -4.88314,-10.08748 -9.87916,-24.20965 -12.94114,-34.66357"
       style="display:inline;fill:#deaa87;stroke:#000000;stroke-width:1.5;stroke-linecap:round;stroke-linejoin:round;stroke-opacity:1" />
    <path
       sodipodi:nodetypes="ssssssccccsssssccsccsss"
       inkscape:connector-curvature="0"
       id="path49465"
       d="m 157.17756,137.76893 c 7.40902,-16.84435 9.86604,-22.25106 9.87265,-27.27182 0.009,-6.84261 -1.91366,-11.939828 -4.75955,-12.717648 -1.82438,-0.498621 -5.84631,4.289798 -10.81191,4.305298 -4.84362,0.0151 -10.05167,-3.404916 -11.84515,-0.61857 -1.15246,1.79048 -3.84863,-3.354417 -4.42825,-4.284197 -1.29284,-2.073837 0.0915,-5.665075 1.71661,-7.569371 0.88565,2.370831 0.26524,4.057174 1.9136,5.492595 l 22.37841,-4.899062 c 4.42987,-0.647646 3.50922,-7.170593 -7.42187,-6.98801 4.48689,-1.646109 10.95294,-8.282154 11.2142,-18.092644 0.16506,-6.19837 3.43314,-28.257592 -12.42877,-39.823227 -9.82318,-7.162523 -23.81188,-13.667997 -35.76574,-12.316748 -9.39993,1.062553 -22.640757,7.528893 -28.964467,20.046913 -6.0944,12.064102 3.03822,40.13368 2.76364,44.934969 -0.21821,3.815669 -0.79789,7.132571 1.84777,9.99621 -2.53338,3.084197 0.47139,6.937269 5.17492,7.649641 -3.08965,3.30707 -6.37475,7.210751 -5.83706,9.241661 2.35879,8.9093 19.844247,27.63712 21.140777,35.74401 l 9.08461,1.85499 c -10.84524,-0.56182 -1.88641,20.74902 6.46906,24.54249 3.12628,1.41936 11.27941,0.26372 14.13027,-2.26566 5.44036,-4.82687 9.47219,-15.40326 14.55625,-26.96182 z"
       style="display:inline;fill:#e9c6af;stroke:none;stroke-width:1.5;stroke-linecap:round;stroke-linejoin:round" />
    <path
       inkscape:transform-center-x="0.69501651"
       inkscape:transform-center-y="-4.9707261"
       sodipodi:nodetypes="ssss"
       inkscape:connector-curvature="0"
       id="path49467"
       d="m 140.36907,146.90522 c -3.02896,-0.12358 -10.04055,0.33126 -15.22713,1.69355 -2.73265,0.71777 2.4309,5.19476 8.52369,4.47341 5.08471,-0.60199 11.47062,-5.97249 6.70344,-6.16696 z"
       style="display:inline;fill:#deaa87;stroke:none;stroke-width:1.5;stroke-linecap:round;stroke-linejoin:round" />
    <path
       sodipodi:nodetypes="ssscs"
       inkscape:connector-curvature="0"
       id="path49469"
       d="m 139.44978,119.61193 c 1.6322,0.0299 5.27811,3.46766 5.87806,5.44029 1.47681,4.85568 0.0367,7.3751 -4.69118,10.65097 -1.08257,0.75008 -1.46328,-6.29304 -4.44103,-6.45527 3.32243,-2.1288 1.91128,-9.66069 3.25415,-9.63599 z"
       style="display:inline;fill:#deaa87;fill-opacity:1;stroke:none;stroke-width:1.5;stroke-linecap:round;stroke-linejoin:round;stroke-opacity:1" />
    <path
       sodipodi:nodetypes="ccccscsssccssssc"
       inkscape:connector-curvature="0"
       id="path49471"
       d="m 118.40606,91.388846 -8.47605,-1.142177 c 0.62364,0.815239 5.6426,3.584396 4.49365,6.472973 l -23.913147,1.199847 c 0.6713,2.046347 7.34814,9.043091 12.119917,8.946501 3.55211,-0.0719 8.4879,-2.56254 10.94846,-3.35283 -0.17554,2.34594 0.70906,5.20549 0.16431,8.43993 -0.44912,2.66645 0.12366,6.72998 -0.18619,9.02973 -0.39074,2.89991 -9.19584,17.45466 -3.88159,27.87791 0.39908,0.78277 17.68459,-9.32791 18.13745,-8.59043 0.77986,-1.15547 -0.599,-9.73063 2.93501,-10.11751 -2.31777,-1.50663 -3.97906,-4.8612 -3.78172,-7.59513 0.10313,-1.4288 7.1e-4,-7.57542 -0.24599,-11.22818 -0.38892,-5.7559 -0.34935,-12.994102 -1.24768,-17.46462 -0.32524,-1.618557 -2.63312,-7.214548 -4.04684,-7.468174 -2.26476,-0.406317 -0.58533,3.733346 -3.01959,4.99216 z"
       style="display:inline;fill:#deaa87;stroke:none;stroke-width:1.5;stroke-linecap:round;stroke-linejoin:round" />
    <path
       sodipodi:nodetypes="cccccc"
       inkscape:connector-curvature="0"
       id="path49473"
       d="m 98.503863,94.233215 11.702717,-1.340806 5.36909,3.541696 -14.05224,3.011563 -8.406297,-2.400751 z"
       style="display:inline;fill:#fefefe;fill-opacity:1;stroke:none;stroke-width:1.5;stroke-linecap:round;stroke-linejoin:round" />
    <path
       sodipodi:nodetypes="cssc"
       inkscape:connector-curvature="0"
       id="path49475"
       d="m 115.57567,96.434105 c -2.86048,1.29452 -3.78895,2.98824 -5.88561,3.349521 -1.71383,0.295314 -7.5437,1.303794 -9.08279,1.101954 -2.027247,-0.26586 -5.406977,-2.647428 -7.490137,-3.840663"
       style="display:inline;fill:#fefefe;fill-opacity:1;stroke:#916f6f;stroke-width:1.5;stroke-linecap:round;stroke-linejoin:round;stroke-opacity:1" />
    <path
       sodipodi:nodetypes="cscc"
       inkscape:connector-curvature="0"
       id="path49477"
       d="m 108.85526,93.004407 c 0.65279,2.379727 -0.97164,5.428513 -4.49138,5.642214 -2.87923,0.174809 -5.604747,-2.480965 -5.620757,-4.627611 z"
       style="display:inline;fill:#2b0000;stroke:none;stroke-width:1.5;stroke-linecap:round;stroke-linejoin:round" />
    <path
       sodipodi:nodetypes="ssssss"
       inkscape:connector-curvature="0"
       id="path49479"
       d="m 119.02755,91.187348 c -5.4394,0.462826 -8.2141,-1.244734 -15.18521,-3.042367 -7.102097,-1.831392 -19.010757,0.448754 -17.430007,-0.947679 2.87361,-2.538647 14.838457,-1.98719 21.460737,-0.496371 2.13707,0.481097 6.33214,0.856271 8.5777,1.318069 3.96932,0.816296 6.76731,2.811786 2.57678,3.168348 z"
       style="display:inline;fill:#000000;stroke:none;stroke-width:1.5;stroke-linecap:round;stroke-linejoin:round" />
    <path
       sodipodi:nodetypes="cssc"
       inkscape:connector-curvature="0"
       id="path49481"
       d="m 116.90574,96.959528 c -2.08968,-0.738036 -4.53758,-4.051151 -6.69916,-4.067119 -2.23647,-0.01655 -9.88101,0.998466 -11.702717,1.340806 -1.5327,0.288031 -4.81414,2.409247 -7.25291,3.901411"
       style="display:inline;fill:none;stroke:#000000;stroke-width:1.5;stroke-linecap:round;stroke-linejoin:round;stroke-opacity:1" />
    <path
       sodipodi:nodetypes="cc"
       inkscape:connector-curvature="0"
       id="path49483"
       d="m 121.19018,86.902765 c 0.56695,2.403878 0.88536,4.062162 1.91745,7.861525"
       style="fill:none;stroke:#000000;stroke-width:1.5;stroke-linecap:round;stroke-linejoin:round;stroke-opacity:1" />
    <path
       sodipodi:nodetypes="cc"
       inkscape:connector-curvature="0"
       id="path49485"
       d="m 117.53465,123.96307 c -0.81758,3.63618 2.02197,5.83188 3.34585,5.81888"
       style="fill:none;stroke:#6c5353;stroke-width:1.5;stroke-linecap:round;stroke-linejoin:round;stroke-opacity:1" />
    <path
       sodipodi:nodetypes="sssssssss"
       inkscape:connector-curvature="0"
       id="path49487"
       d="m 153.62376,143.92051 c 0.77634,-0.67351 1.31713,-4.54607 0.21583,-5.86413 -1.09006,-1.3047 -14.02699,-5.64571 -17.50034,-6.0661 -0.82298,-0.0995 -2.47426,1.74319 -5.11819,2.10319 -2.65177,0.36107 -4.9924,-1.32201 -5.77854,-1.05874 -3.31757,1.11136 -14.79291,8.00596 -16.01575,9.18717 -0.81318,0.78548 0.68167,6.24984 2.47213,6.74706 2.19135,0.60855 9.17918,-3.12398 20.51343,-4.39297 13.27421,-1.48619 19.18397,1.10325 21.21143,-0.65548 z"
       style="display:inline;fill:#000000;stroke:none;stroke-width:1.5;stroke-linecap:round;stroke-linejoin:round" />
    <path
       sodipodi:nodetypes="cssssssc"
       inkscape:connector-curvature="0"
       id="path49489"
       d="m 180.99879,95.699094 c -0.49508,-3.988367 -3.4056,-6.603611 -3.21456,-9.576227 0.17008,-2.646449 2.0023,-9.852115 3.83709,-10.242934 2.0842,-0.443943 1.70935,3.24629 1.48983,5.87986 -0.45229,5.425945 -0.15705,11.869347 -2.4564,14.429542 -1.48829,1.657223 -2.44727,6.487765 -4.12868,4.425275 -0.94157,-1.154979 1.54549,-4.811435 1.39822,-6.09493 -0.15087,-1.314815 -1.5904,-3.327846 -1.90613,-5.316979"
       style="display:inline;opacity:0.95;fill:#deaa87;stroke:#000000;stroke-width:1.5;stroke-linecap:round;stroke-linejoin:round;stroke-opacity:1" />
    <path
       sodipodi:nodetypes="cccccc"
       inkscape:connector-curvature="0"
       id="path49491"
       d="m 138.65443,93.612674 7.91224,0.624707 14.45825,-4.959808 -5.34886,-1.187178 -12.40637,1.276217 z"
       style="display:inline;fill:#fefefe;fill-opacity:1;stroke:none;stroke-width:1.5;stroke-linecap:round;stroke-linejoin:round" />
    <path
       sodipodi:nodetypes="cssc"
       inkscape:connector-curvature="0"
       id="path49493"
       d="m 138.65443,93.612674 c 2.45283,0.593274 5.72366,2.95124 7.82127,2.768925 2.54965,-0.221596 8.62889,-0.784516 10.48581,-1.931781 1.3249,-0.818573 2.63628,-3.276851 4.06341,-5.172245"
       style="display:inline;fill:#fefefe;fill-opacity:1;stroke:#916f6f;stroke-width:1.5;stroke-linecap:round;stroke-linejoin:round;stroke-opacity:1" />
    <path
       sodipodi:nodetypes="cscc"
       inkscape:connector-curvature="0"
       id="path49495"
       d="m 145.06092,89.701903 c 0.34726,1.852754 1.30821,4.508685 5.21464,4.41511 3.64887,-0.08742 4.82374,-3.520323 4.31484,-5.667772 z"
       style="display:inline;fill:#2b0000;stroke:none;stroke-width:1.5;stroke-linecap:round;stroke-linejoin:round" />
    <path
       sodipodi:nodetypes="cssc"
       inkscape:connector-curvature="0"
       id="path49497"
       d="m 137.31973,94.839165 c 1.90613,-1.247844 3.79538,-4.92811 5.94996,-5.472553 2.22919,-0.563252 10.50272,-1.359693 12.40637,-1.276217 1.18639,0.05202 4.25862,0.659325 7.38885,1.582525"
       style="display:inline;fill:none;stroke:#000000;stroke-width:1.5;stroke-linecap:round;stroke-linejoin:round;stroke-opacity:1" />
    <path
       sodipodi:nodetypes="ssss"
       inkscape:connector-curvature="0"
       id="path49499"
       d="m 133.38067,92.72112 c -1.77927,-0.577685 -3.26744,-5.892156 -1.19558,-7.369468 0.96406,-0.68741 1.05668,2.073991 1.43881,3.701059 0.4027,1.714645 0.49579,3.908351 -0.24323,3.668409 z"
       style="fill:#deaa87;stroke:none;stroke-width:1.5;stroke-linecap:round;stroke-linejoin:round" />
    <path
       sodipodi:nodetypes="ssssss"
       inkscape:connector-curvature="0"
       id="path49501"
       d="m 135.8324,90.360725 c 3.94839,-0.04607 9.66763,-5.337212 15.28602,-6.928208 7.05693,-1.998357 17.02299,-3.487963 15.03088,-4.180842 -2.60891,-0.907416 -10.50407,1.131279 -15.22578,1.884136 -2.16335,0.344931 -8.01279,2.484044 -10.10984,3.410334 -4.87038,2.15126 -12.28829,5.899853 -4.98128,5.81458 z"
       style="display:inline;fill:#000000;stroke:none;stroke-width:1.5;stroke-linecap:round;stroke-linejoin:round" />
    <path
       sodipodi:nodetypes="cc"
       inkscape:connector-curvature="0"
       id="path49503"
       d="m 136.73633,127.86447 c -3.23936,4.31799 -7.79873,5.32072 -12.09556,1.56645"
       style="display:inline;fill:none;stroke:#000000;stroke-width:1.5;stroke-linecap:round;stroke-linejoin:round;stroke-opacity:1" />
    <path
       sodipodi:nodetypes="ssccssccsss"
       inkscape:connector-curvature="0"
       id="path49505"
       d="m 124.10313,97.35114 c -3.36722,1.238422 -10.80973,8.45847 -16.00786,8.44409 -8.18391,-0.0226 -12.844408,-3.1006 -24.034868,-8.013374 -0.221094,-1.628568 -0.05744,-3.768566 0.622672,-5.37997 11.436536,-3.348323 34.182146,-4.098332 37.681996,-3.427729 2.69064,0.515551 5.59944,1.121191 7.87275,-0.449885 2.81711,-1.946888 24.2492,-4.473746 37.53969,-3.204962 0.67104,1.598077 1.226,4.106706 1.14812,5.551501 -9.45298,7.048965 -15.86022,9.667969 -20.35327,10.843669 -5.8225,1.52357 -14.19679,-4.630712 -17.77398,-4.904554 -2.47851,-0.189735 -4.80637,-0.153493 -6.69525,0.541214 z"
       style="display:inline;opacity:0.9;fill:#280b0b;stroke:#000000;stroke-width:1.5;stroke-linecap:round;stroke-linejoin:round" />
    <path
       sodipodi:nodetypes="ssccssccsss"
       inkscape:connector-curvature="0"
       id="path49507"
       d="m 124.55096,99.625084 c -3.22387,1.185686 -10.79427,9.210196 -15.7711,9.196436 -7.8355,-0.0216 -13.669409,-3.45149 -22.496605,-8.78407 0.160896,-1.239879 -0.746925,-3.182321 0.596163,-5.150925 10.949651,-3.205776 32.656622,-3.923855 36.007472,-3.281801 2.5761,0.493603 5.36106,1.073459 7.53759,-0.430732 2.69718,-1.864004 23.12691,-4.283286 35.85158,-3.068518 0.64247,1.530043 1.17381,3.931872 1.09924,5.315158 -9.05054,6.748868 -13.64968,10.590588 -17.95144,11.716238 -5.57462,1.4587 -15.03779,-5.767786 -18.46269,-6.029966 -2.37299,-0.18166 -4.60174,-0.146959 -6.41021,0.51818 z"
       style="display:inline;opacity:0.1;fill:#000000;stroke:none;stroke-width:1.43614066;stroke-linecap:round;stroke-linejoin:round" />
    <path
       sodipodi:nodetypes="csccscc"
       inkscape:connector-curvature="0"
       id="path49509"
       d="M 84.683074,92.401886 72.473906,80.03627 c -1.750726,-1.77316 -3.050495,-0.924744 -2.909684,2.515309 l 1.158737,0.121558 c 0,0 0.89225,0.02933 2.231113,1.651579 l 11.10633,13.45714 z"
       style="display:inline;opacity:0.95;fill:#241c1c;stroke:#000000;stroke-width:1.5;stroke-linecap:round;stroke-linejoin:round" />
    <path
       sodipodi:nodetypes="csccscc"
       inkscape:connector-curvature="0"
       id="path49511"
       d="m 167.77751,85.31931 8.54323,-14.038822 c 1.29537,-2.128652 2.85593,-2.175564 2.71512,1.264488 l -1.13908,0.909963 c 0,0 -1.19001,0.197232 -2.0562,2.113994 l -6.91495,15.301878 z"
       style="display:inline;opacity:0.95;fill:#241c1c;stroke:#000000;stroke-width:1.5;stroke-linecap:round;stroke-linejoin:round" />
  </g>
  <g
     inkscape:groupmode="layer"
     id="layer8"
     inkscape:label="豚"
     style="display:inline"
     sodipodi:insensitive="true">
    <path
       style="display:inline;fill:#1c1f24;stroke:#000000;stroke-width:1.5;stroke-linecap:round;stroke-linejoin:round;stroke-opacity:1"
       d="m 247.00009,336.35552 c 1.04364,-34.65152 -6.24732,-113.45389 -6.18774,-135.48832 0.0408,-15.0792 -3.57917,-38.84487 -8.63683,-39.32837 -6.87425,-0.65716 -11.0071,28.55537 -14.94173,46.92429 -3.06163,14.29328 -7.36485,101.52648 -7.85622,131.02493"
       id="path6661-0-3-5-5-0"
       inkscape:connector-curvature="0"
       sodipodi:nodetypes="csssc" />
    <path
       style="display:inline;fill:#deaa87;fill-opacity:1;stroke:none;stroke-width:1.5;stroke-linecap:round;stroke-linejoin:round;stroke-opacity:1"
       d="m 91.46055,141.795 73.80485,-1.47818 0.34044,48.38808 -68.90859,8.95404 z"
       id="path3906-6-5"
       inkscape:connector-curvature="0"
       sodipodi:nodetypes="ccccc" />
    <path
       style="display:inline;fill:#dbdee3;stroke:none;stroke-width:1.5;stroke-linecap:round;stroke-linejoin:round"
       d="M 179.78598,168.96732 90.04256,188.32044 158.74121,320.997 Z"
       id="path4684-5-5-2-7-6"
       inkscape:connector-curvature="0"
       sodipodi:nodetypes="cccc" />
    <path
       style="display:inline;fill:#550000;stroke:#000000;stroke-width:1.5;stroke-linecap:round;stroke-linejoin:round;stroke-opacity:1"
       d="m 144.7108,199.81908 18.13322,91.78678 -8.94547,41.02104 -22.55075,-33.2536 3.32674,-98.45216 z"
       id="path6770-0-4-6-6-4"
       inkscape:connector-curvature="0"
       sodipodi:nodetypes="cccccc" />
    <path
       style="display:inline;fill:#550000;stroke:#000000;stroke-width:1.5;stroke-linecap:round;stroke-linejoin:round;stroke-opacity:1"
       d="m 149.15415,174.5383 c -6.5883,0.93891 -14.768,3.85927 -20.72125,2.80341 l -4.68448,4.65206 c 2.75004,5.48298 8.50282,15.75384 10.74602,20.64186 3.84301,0.90426 8.11943,0.36485 10.82313,-1.3802 1.97149,-5.7948 7.00859,-15.27326 6.68612,-20.18688 z"
       id="path6768-9-1-6-8-4"
       inkscape:connector-curvature="0"
       sodipodi:nodetypes="ccccccc" />
    <path
       style="display:inline;fill:#dbdbe3;stroke:#000000;stroke-width:1.5;stroke-linecap:round;stroke-linejoin:round;stroke-opacity:1"
       d="m 87.9277,153.18684 c 0.4459,-4.17187 0.58458,-12.4193 2.94875,-16.96355 0.28792,11.61293 27.74689,35.89162 44.82589,39.95944 -6.84429,3.07418 -15.10503,18.2569 -23.4066,30.15774 C 103.41035,189.4874 90.06553,164.61873 87.9277,153.18684 Z"
       id="path6657-6-4-0-2-2"
       inkscape:connector-curvature="0"
       sodipodi:nodetypes="ccccc" />
    <path
       style="display:inline;fill:#1c1f24;stroke:#000000;stroke-width:1.5;stroke-linecap:round;stroke-linejoin:round;stroke-opacity:1"
       d="m 85.351804,144.88591 c -16.20351,10.30686 -66.252734,22.16285 -68.768034,32.81253 -4.38302,18.55762 30.51564,106.24844 32.13724,132.33953 2.37906,38.27874 -6.15208,76.50648 3.73337,83.95497 L 158.8767,318.66153 103.59651,203.5432 Z"
       id="path1160"
       inkscape:connector-curvature="0"
       sodipodi:nodetypes="csscccc" />
    <path
       style="display:inline;fill:#1c1f24;stroke:#000000;stroke-width:1.5;stroke-linecap:round;stroke-linejoin:round;stroke-opacity:1"
       d="M 106.88447,194.91599 C 102.07289,180.66291 86.87005,146.4905 90.59593,133.5832 c -3.94242,5.1774 -8.136603,10.87716 -10.591423,16.11873 -0.12882,6.8785 -1.433607,27.35538 -1.809967,45.48287 3.63427,1.32741 14.14045,9.64609 18.36441,12.22725 z"
       id="path6659-6-6-1-7-6"
       inkscape:connector-curvature="0"
       sodipodi:nodetypes="cccccc" />
    <path
       style="display:inline;fill:#1c1f24;stroke:#000000;stroke-width:1.5;stroke-linecap:round;stroke-linejoin:round;stroke-opacity:1"
       d="m 52.45438,393.99294 c 13.75842,10.36666 77.31268,19.45396 93.36648,15.08517 6.1592,-1.67613 12.17704,-7.5511 14.02518,-17.43297 7.26149,-38.82661 -4.16088,-67.52799 -5.47252,-70.59921 -8.01829,-18.77569 -35.83533,-95.72771 -47.48905,-126.12994 l -25.95154,20.30896 c 9.53044,16.62966 54.71224,84.36831 70.2183,107.67157"
       id="path347"
       inkscape:connector-curvature="0"
       sodipodi:nodetypes="csscccc" />
    <path
       style="display:inline;fill:#dbdbe3;stroke:#000000;stroke-width:1.5;stroke-linecap:round;stroke-linejoin:round;stroke-opacity:1"
       d="m 139.3789,175.41409 c 6.1747,-0.83662 17.28586,16.1983 23.63804,25.62156 5.60989,-14.59445 8.23622,-50.54904 6.52811,-55.25227 -1.61,-4.4331 -2.8546,-9.17178 -4.0829,-11.36191 1.44111,13.49207 -18.10546,37.42574 -26.08325,40.99262 z"
       id="path6762-7-2-0-9-6"
       inkscape:connector-curvature="0"
       sodipodi:nodetypes="ccscc" />
    <g
       id="g9921-2-0-0"
       transform="matrix(-2.1043792,0.78568688,0.76271821,2.0428601,2866.3863,-1474.2987)"
       style="display:inline;stroke:#000000;stroke-width:0.67775476;stroke-linecap:round;stroke-linejoin:round" />
    <g
       id="g4656-2-7"
       transform="matrix(-2.1732861,0.56792861,0.55132586,2.1097525,3078.6694,-1177.8363)"
       style="display:inline;stroke:#000000;stroke-width:0.67775476;stroke-linecap:round;stroke-linejoin:round" />
    <g
       id="g4658-5-7"
       transform="matrix(-2.1732861,0.56792861,0.55132586,2.1097525,3558.852,-1279.0824)"
       style="display:inline;stroke:#000000;stroke-width:0.67775476;stroke-linecap:round;stroke-linejoin:round" />
    <g
       transform="matrix(2.6369758,-0.98453612,0.98453612,2.6369758,-289.51854,522.25221)"
       id="g4678-0-3"
       inkscape:label="駅員: 左手"
       style="display:inline;stroke-width:0.53290248;stroke-linecap:round;stroke-linejoin:round">
      <g
         id="g4680-9-3"
         transform="matrix(-0.7980275,0,0,0.77469807,1298.4706,-272.34221)"
         style="display:inline;stroke:#000000;stroke-width:0.67775476;stroke-linecap:round;stroke-linejoin:round" />
    </g>
    <g
       id="g4682-4-5"
       transform="matrix(-2.1043792,0.78568688,0.76271821,2.0428601,2866.3865,-1474.2988)"
       style="display:inline;stroke:#000000;stroke-width:0.67775476;stroke-linecap:round;stroke-linejoin:round" />
    <g
       id="g9921-2-0-1"
       transform="matrix(2.3836243,3.0411577,-2.9522529,2.3139416,-1209.0807,-5168.5899)"
       style="display:inline;stroke:#000000;stroke-width:0.39400309;stroke-linecap:round;stroke-linejoin:round" />
    <g
       id="g4656-2-4"
       transform="matrix(2.6801275,2.7833829,-2.702014,2.6017771,-1786.6254,-4923.939)"
       style="display:inline;stroke:#000000;stroke-width:0.39400309;stroke-linecap:round;stroke-linejoin:round" />
    <g
       id="g4658-5-1"
       transform="matrix(2.6801275,2.7833829,-2.702014,2.6017771,-2400.5383,-5503.3502)"
       style="display:inline;stroke:#000000;stroke-width:0.39400309;stroke-linecap:round;stroke-linejoin:round" />
    <g
       transform="matrix(-2.9868949,-3.8108432,-3.8108432,2.9868949,1631.4609,593.13552)"
       id="g4678-0-2"
       inkscape:label="駅員: 左手"
       style="display:inline;stroke-width:0.30979526;stroke-linecap:round;stroke-linejoin:round">
      <g
         id="g4680-9-9"
         transform="matrix(-0.7980275,0,0,0.77469807,1298.4706,-272.34221)"
         style="display:inline;stroke:#000000;stroke-width:0.39400309;stroke-linecap:round;stroke-linejoin:round" />
    </g>
    <g
       id="g4682-4-0"
       transform="matrix(2.3836243,3.0411577,-2.9522529,2.3139416,-1209.0809,-5168.5902)"
       style="display:inline;stroke:#000000;stroke-width:0.39400309;stroke-linecap:round;stroke-linejoin:round" />
    <path
       style="display:inline;fill:#1c1f24;stroke:#000000;stroke-width:1.5;stroke-linecap:round;stroke-linejoin:round;stroke-opacity:1"
       d="m 169.87576,142.87429 c 15.76691,9.73702 51.53354,8.73747 61.66132,17.14763 7.31142,6.07144 12.79319,31.93518 9.03565,52.12893 -3.32046,17.84476 -12.09125,60.38683 -14.78717,69.99163 -5.10149,18.17515 -0.69331,54.7867 -0.0162,86.01994 L 145.8571,344.5419 172.2076,194.39241 Z"
       id="path1164"
       inkscape:connector-curvature="0"
       sodipodi:nodetypes="cssscccc" />
    <path
       style="display:inline;fill:#1c1f24;stroke:#000000;stroke-width:1.5;stroke-linecap:round;stroke-linejoin:round;stroke-opacity:1"
       d="m 164.41573,190.24973 c 0.93697,-16.58013 4.49766,-46.45873 -0.0272,-56.34303 1.46386,1.18163 5.7858,7.01667 8.22161,10.14051 4.17518,7.83383 10.86394,30.0944 14.08259,39.35325 l -11.52174,15.62782 z"
       id="path3341-7-0-1-6-8-5-1"
       inkscape:connector-curvature="0"
       sodipodi:nodetypes="cccccc" />
    <path
       style="display:inline;fill:#1c1f24;stroke:#000000;stroke-width:1.5;stroke-linecap:round;stroke-linejoin:round;stroke-opacity:1"
       d="m 225.76941,368.16242 c 0.48896,22.55317 -56.24432,36.48568 -66.39887,36.53809 -8.83971,0.0456 -13.58706,-13.39281 -14.0783,-18.26842 -2.91757,-28.95694 -7.19086,-53.41875 -4.94055,-61.29715 13.40285,-46.92381 22.57991,-93.5973 24.06404,-134.88521 l 27.05113,11.15657 c -10.15395,26.0939 -30.63239,86.5774 -46.49916,123.64387"
       id="path351"
       inkscape:connector-curvature="0"
       sodipodi:nodetypes="csssccc" />
    <path
       style="display:inline;fill:#e9c6af;stroke:#000000;stroke-width:1.5;stroke-linecap:round;stroke-linejoin:round;stroke-opacity:1"
       d="m 145.09504,306.26977 c 6.13583,-0.68093 10.18879,0.74197 17.66429,-0.23593 11.09424,-1.4513 28.96245,-5.16511 31.83507,-4.38732 6.90409,1.86937 16.03951,10.51694 12.64399,17.9337 l -5.83178,12.73823 -4.54971,7.7345 h -5.00468 l 3.18479,-7.27955 -7.27954,-8.18947 -32.75796,11.37427"
       id="path10585"
       inkscape:connector-curvature="0"
       sodipodi:nodetypes="cssscccccc" />
    <path
       style="display:inline;fill:#1c1f24;stroke:#000000;stroke-width:1.5;stroke-linecap:round;stroke-linejoin:round;stroke-opacity:1"
       d="m 48.51573,307.0729 c -0.60241,-33.24743 -7.74269,-75.33533 -13.24219,-96.01286 -6.14133,-23.09073 -11.3239,-34.78366 -16.38156,-35.26716 -6.87425,-0.65716 -2.6604,13.07437 -6.59503,31.44329 -3.0616296,14.29328 -4.7319296,76.77935 -5.2232996,106.2778 -0.20257,12.16104 14.3406796,31.94358 18.1919796,34.39789 10.37658,6.61264 117.56179,4.50834 124.45496,4.67146 4.80482,-14.39657 2.68849,-39.80236 -4.34691,-47.48884 -17.59051,-1.83249 -75.63146,-0.24054 -103.25747,2.63713"
       id="path6661-0-3-5-5"
       inkscape:connector-curvature="0"
       sodipodi:nodetypes="csssssccc" />
    <g
       id="g9921-2-0-7"
       transform="matrix(7.1514863,2.6700648,-2.5920085,6.9424206,-10914.767,-5471.4165)"
       style="display:inline;stroke:#000000;stroke-width:0.19943449;stroke-linecap:round;stroke-linejoin:round" />
    <g
       id="g4656-2-0"
       transform="matrix(7.3856584,1.9300389,-1.8736164,7.1697472,-11636.185,-4463.9236)"
       style="display:inline;stroke:#000000;stroke-width:0.19943449;stroke-linecap:round;stroke-linejoin:round" />
    <g
       id="g4658-5-16"
       transform="matrix(7.3856584,1.9300389,-1.8736164,7.1697472,-13268.031,-4807.9969)"
       style="display:inline;stroke:#000000;stroke-width:0.19943449;stroke-linecap:round;stroke-linejoin:round" />
    <g
       transform="matrix(-8.9614534,-3.3458306,-3.3458306,8.9614534,-189.79251,1313.6281)"
       id="g4678-0-5"
       inkscape:label="駅員: 左手"
       style="display:inline;stroke-width:0.1568106;stroke-linecap:round;stroke-linejoin:round">
      <g
         id="g4680-9-7"
         transform="matrix(-0.7980275,0,0,0.77469807,1298.4706,-272.34221)"
         style="display:inline;stroke:#000000;stroke-width:0.19943447;stroke-linecap:round;stroke-linejoin:round" />
    </g>
    <g
       id="g4682-4-54"
       transform="matrix(7.1514863,2.6700648,-2.5920085,6.9424206,-10914.768,-5471.4168)"
       style="display:inline;stroke:#000000;stroke-width:0.19943449;stroke-linecap:round;stroke-linejoin:round" />
    <path
       style="display:inline;fill:#deaa87;stroke:#000000;stroke-width:1.5;stroke-linecap:round;stroke-linejoin:round;stroke-opacity:1"
       d="m 175.39826,110.71888 c 1.69318,-2.80448 5.96136,-1.25638 8.21454,-9.54806 1.07377,-3.951429 2.21176,-10.963659 2.87784,-17.111179 0.6501,-6.00008 -1.21229,-10.291345 -3.9882,-10.859436 -3.32927,-0.681342 -5.08728,1.773735 -6.55941,5.735127 l -7.14562,-10.099077 -84.9651,4.454133 -7.99547,12.481404 c -1.93253,-2.216429 -5.96087,-3.446701 -8.75454,-1.511812 -2.19792,1.522295 -2.81885,5.822345 -0.97134,12.72838 1.99421,7.45435 4.75397,11.25362 5.89077,14.16692 3.12349,8.00451 9.61528,6.49837 11.83868,8.90439"
       id="path6637-1-9-9-2-9-1-7"
       inkscape:connector-curvature="0"
       sodipodi:nodetypes="csssccccsssc" />
    <path
       style="display:inline;opacity:0.95;fill:none;stroke:#000000;stroke-width:1.5;stroke-linecap:round;stroke-linejoin:round;stroke-opacity:1"
       d="m 71.67419,105.36978 c 0.97558,-1.12026 3.67576,-5.545526 3.10538,-8.456991 -0.72554,-3.7034 -4.51589,-9.158358 -6.39175,-9.171616 -2.13094,-0.01508 -1.15326,4.908636 -0.40778,7.444018 1.53587,5.223659 3.29707,11.195809 6.06494,13.240419 1.79166,1.32351 3.20897,6.86151 4.44056,4.50265 0.68966,-1.32096 -3.01318,-5.56578 -2.84732,-6.847 0.2174,-1.67888 0.68799,-3.92672 1.03035,-6.400075"
       id="path6639-8-6-0-4-6-9"
       inkscape:connector-curvature="0"
       sodipodi:nodetypes="cssssssc" />
    <path
       style="display:inline;fill:#deaa87;stroke:#000000;stroke-width:1.5;stroke-linecap:round;stroke-linejoin:round;stroke-opacity:1"
       d="M 75.31464,86.608957 C 69.835278,63.334242 73.814545,47.419938 80.763619,35.892967 87.712693,24.365996 106.11478,12.873016 119.03885,12.248594 c 11.20363,-0.541299 31.83754,3.536315 41.82961,15.190266 9.99207,11.653951 16.60754,23.386025 16.75289,51.605474"
       id="path12612-8-1-2-2"
       inkscape:connector-curvature="0"
       sodipodi:nodetypes="czszc" />
    <path
       style="display:inline;fill:#deaa87;stroke:#000000;stroke-width:1.5;stroke-linecap:round;stroke-linejoin:round;stroke-opacity:1"
       d="m 176.89628,93.781087 c -0.89364,10.856403 -4.20896,30.000123 -6.78302,36.969443 -4.22771,11.44644 -21.50303,32.39431 -25.03312,35.06153 -5.84276,4.41454 -15.50073,6.23396 -22.90661,2.33758 -4.88349,-2.5693 -27.86017,-22.21643 -32.26356,-31.31287 -4.88314,-10.08749 -9.2619,-23.78223 -12.32388,-34.23614"
       id="path12608-8-8-3-2-3"
       inkscape:connector-curvature="0"
       sodipodi:nodetypes="cssssc" />
    <path
       style="display:inline;fill:#e9c6af;stroke:none;stroke-width:1.5;stroke-linecap:round;stroke-linejoin:round"
       d="m 157.05812,137.90541 c 7.40902,-16.84435 9.86604,-22.25105 9.87265,-27.27181 0.009,-6.84262 -1.91366,-11.939833 -4.75955,-12.717657 -1.82438,-0.498612 -6.31668,2.273287 -11.28228,2.288787 -4.84363,0.0151 -9.5813,-1.3884 -11.37479,1.39795 -1.15245,1.79047 -3.84862,-3.354421 -4.42824,-4.284201 -1.29285,-2.073837 0.0915,-5.665075 1.71661,-7.569371 0.88565,2.370831 0.26521,4.057175 1.9136,5.492594 l 22.37841,-4.899061 c 4.42987,-0.647646 3.50922,-7.170593 -7.42187,-6.988011 4.48689,-1.646108 10.95294,-8.282154 11.2142,-18.092644 0.16506,-6.198369 3.28786,-29.918174 -12.57405,-41.483809 -9.82318,-7.162523 -23.57727,-10.986394 -35.53113,-9.635146 -9.39993,1.062553 -22.64076,7.528893 -28.96448,20.046914 -6.09439,12.064101 2.9489,39.11266 2.67431,43.913949 -0.2182,3.815669 -0.79788,7.132571 1.84778,9.996209 -2.53338,3.084198 0.47139,6.93727 5.17491,7.649642 -3.08964,3.30707 -6.37474,7.210755 -5.83705,9.241665 2.35879,8.90929 17.40696,33.20178 19.53419,37.98936 1.91075,4.30036 6.05897,20.89283 14.41444,24.6863 3.12628,1.41937 13.04249,0.25646 15.89335,-2.27292 5.44036,-4.82687 10.45492,-15.93017 15.53899,-27.48874 z"
       id="path6760-6-4-3-0-7-8"
       inkscape:connector-curvature="0"
       sodipodi:nodetypes="ssssssccccsssssccsssss" />
    <path
       style="display:inline;fill:#deaa87;stroke:none;stroke-width:1.5;stroke-linecap:round;stroke-linejoin:round"
       d="m 138.24313,148.46654 c -3.02895,-0.12358 -8.98488,-0.20202 -14.17146,1.16024 -2.73265,0.71777 1.69522,5.18564 7.788,4.46428 5.08471,-0.60198 11.15064,-5.43007 6.38346,-5.62455 z"
       id="path6710-3-6-7-3-2"
       inkscape:connector-curvature="0"
       sodipodi:nodetypes="ssss"
       inkscape:transform-center-y="-4.8985043"
       inkscape:transform-center-x="1.2448678" />
    <path
       style="display:inline;fill:#deaa87;fill-opacity:1;stroke:none;stroke-width:1.5;stroke-linecap:round;stroke-linejoin:round;stroke-opacity:1"
       d="m 139.82925,121.88725 c 1.6322,0.0299 3.94633,3.68811 4.54628,5.66074 1.47681,4.85568 0.56147,7.43312 -3.85831,8.29168 -1.29287,0.25115 -1.46328,-6.29304 -4.44103,-6.45527 3.32242,-2.1288 2.41019,-7.52185 3.75306,-7.49715 z"
       id="path3906-6"
       inkscape:connector-curvature="0"
       sodipodi:nodetypes="ssscs" />
    <path
       style="display:inline;fill:#deaa87;stroke:none;stroke-width:1.5;stroke-linecap:round;stroke-linejoin:round"
       d="m 118.28662,91.525332 -8.47605,-1.142177 c 0.62364,0.815238 5.6426,3.584396 4.49364,6.472974 l -23.91314,1.199845 c 0.6713,2.046346 7.20777,7.438636 11.97955,7.342036 3.55211,-0.0719 8.62827,-0.95808 11.08883,-1.74837 -0.17554,2.34595 0.70906,5.20549 0.16431,8.43994 -0.44913,2.66645 0.12365,6.72998 -0.18619,9.02973 -0.39074,2.89991 -7.78431,19.29797 -4.20391,25.02269 0.46591,0.74494 18.0069,-6.4727 18.45977,-5.73522 0.77986,-1.15546 -0.59901,-9.73062 2.93501,-10.1175 -2.31777,-1.50664 -3.97906,-4.8612 -3.78172,-7.59514 0.10313,-1.42879 7e-4,-7.57541 -0.24599,-11.22817 -0.38892,-5.75591 -0.34935,-12.994106 -1.24768,-17.464624 -0.32524,-1.618558 -2.63312,-7.214548 -4.04684,-7.468175 -2.26476,-0.406317 -0.58533,3.733347 -3.01959,4.992161 z"
       id="path6706-5-3-4-9-4-8"
       inkscape:connector-curvature="0"
       sodipodi:nodetypes="ccccscsssccssssc" />
    <path
       style="display:inline;fill:#fefefe;fill-opacity:1;stroke:none;stroke-width:1.5;stroke-linecap:round;stroke-linejoin:round"
       d="m 98.36528,94.15091 11.70272,-1.340805 5.36909,3.541695 -14.05224,3.011563 -8.40631,-2.400751 z"
       id="path3337-0-4-8-1-0-9-4"
       inkscape:connector-curvature="0"
       sodipodi:nodetypes="cccccc" />
    <path
       style="display:inline;fill:#fefefe;fill-opacity:1;stroke:#916f6f;stroke-width:1.5;stroke-linecap:round;stroke-linejoin:round;stroke-opacity:1"
       d="m 115.43709,96.3518 c -2.13851,1.231356 -3.51306,3.17196 -5.60973,3.533241 -1.71382,0.295309 -8.54606,1.131669 -10.08515,0.929829 -2.02726,-0.26586 -4.6805,-2.65902 -6.76367,-3.852255"
       id="path3339-7-7-4-3-8-1"
       inkscape:connector-curvature="0"
       sodipodi:nodetypes="cssc" />
    <path
       style="display:inline;fill:#2b0000;stroke:none;stroke-width:1.5;stroke-linecap:round;stroke-linejoin:round"
       d="m 108.71668,92.922102 c 0.65279,2.379727 -0.97164,5.428513 -4.49138,5.642214 -2.87923,0.174807 -5.60475,-2.480965 -5.62076,-4.627611 z"
       id="path3357-0-7-3-6-4-5"
       inkscape:connector-curvature="0"
       sodipodi:nodetypes="cscc" />
    <path
       style="display:inline;fill:#000000;stroke:none;stroke-width:1.5;stroke-linecap:round;stroke-linejoin:round"
       d="m 118.90811,91.323833 c -5.4394,0.462827 -8.2141,-1.244733 -15.18521,-3.042366 -7.1021,-1.831392 -19.01076,0.448753 -17.43001,-0.947679 2.87361,-2.538647 14.83846,-1.98719 21.46074,-0.496371 2.13707,0.481096 6.33214,0.85627 8.5777,1.318069 3.96932,0.816296 6.76731,2.811786 2.57678,3.168347 z"
       id="path6645-7-7-7-1-8-5"
       inkscape:connector-curvature="0"
       sodipodi:nodetypes="ssssss" />
    <path
       style="display:inline;fill:none;stroke:#000000;stroke-width:1.5;stroke-linecap:round;stroke-linejoin:round;stroke-opacity:1"
       d="m 116.76715,96.877223 c -2.08967,-0.738036 -4.53757,-4.05115 -6.69915,-4.067118 -2.23647,-0.01655 -9.88101,0.998465 -11.70272,1.340805 -1.5327,0.288032 -4.81414,2.409247 -7.25291,3.901411"
       id="path3337-7-3-2-8-2-7"
       inkscape:connector-curvature="0"
       sodipodi:nodetypes="cssc" />
    <path
       style="fill:none;stroke:#000000;stroke-width:1.5;stroke-linecap:round;stroke-linejoin:round;stroke-opacity:1"
       d="m 121.07073,87.039251 c 0.56695,2.403878 0.88536,4.062162 1.91746,7.861525"
       id="path4327-2"
       inkscape:connector-curvature="0"
       sodipodi:nodetypes="cc" />
    <path
       style="fill:none;stroke:#6c5353;stroke-width:1.5;stroke-linecap:round;stroke-linejoin:round;stroke-opacity:1"
       d="m 117.41521,124.09955 c -0.81758,3.63619 2.02197,5.83189 3.34584,5.81889"
       id="path3906"
       inkscape:connector-curvature="0"
       sodipodi:nodetypes="cc" />
    <path
       style="display:inline;fill:#000000;stroke:none;stroke-width:1.5;stroke-linecap:round;stroke-linejoin:round"
       d="m 152.86435,145.14183 c 0.77634,-0.67352 1.27884,-4.98365 0.17754,-6.30171 -1.09006,-1.3047 -13.34874,-6.29296 -16.82208,-6.71335 -0.82299,-0.0995 -2.47426,1.74319 -5.11819,2.10318 -2.65178,0.36107 -4.9924,-1.322 -5.77854,-1.05873 -3.31757,1.11135 -14.79291,8.00596 -16.01575,9.18716 -0.81318,0.78548 0.0982,6.30089 1.88869,6.79811 2.19135,0.60855 8.03782,-2.73017 19.37207,-3.99916 13.27421,-1.48619 20.2688,1.74323 22.29626,-0.0155 z"
       id="path6633-4-3-0-8-4-1-2"
       inkscape:connector-curvature="0"
       sodipodi:nodetypes="sssssssss" />
    <path
       style="display:inline;opacity:0.95;fill:#deaa87;stroke:#000000;stroke-width:1.5;stroke-linecap:round;stroke-linejoin:round;stroke-opacity:1"
       d="m 182.27504,96.668814 c -0.49508,-3.988362 -3.4056,-6.603606 -3.21456,-9.576222 0.17008,-2.646449 2.0023,-9.852115 3.83709,-10.242934 2.0842,-0.443943 1.70935,3.246291 1.48983,5.879861 -0.45229,5.425945 -0.15705,11.869346 -2.4564,14.429536 -1.48829,1.657229 -2.44727,6.487775 -4.12868,4.425275 -0.94157,-1.15498 1.54549,-4.811435 1.39822,-6.094923 -0.15087,-1.314817 -1.5904,-3.327847 -1.90613,-5.316981"
       id="path6639-8-6-8-4-6-4-4"
       inkscape:connector-curvature="0"
       sodipodi:nodetypes="cssssssc" />
    <path
       style="display:inline;fill:#fefefe;fill-opacity:1;stroke:none;stroke-width:1.5;stroke-linecap:round;stroke-linejoin:round"
       d="m 138.56051,94.040879 7.91224,0.624708 14.19205,-4.642566 -5.08266,-1.504421 -12.40637,1.276217 z"
       id="path3337-0-4-8-8-9-3-5-1"
       inkscape:connector-curvature="0"
       sodipodi:nodetypes="cccccc" />
    <path
       style="display:inline;fill:#fefefe;fill-opacity:1;stroke:#916f6f;stroke-width:1.5;stroke-linecap:round;stroke-linejoin:round;stroke-opacity:1"
       d="m 138.56051,94.040879 c 2.45283,0.593274 5.72366,2.951241 7.82127,2.768925 2.54965,-0.22156 8.62889,-0.784513 10.48581,-1.931781 1.3249,-0.818573 2.37008,-2.959609 3.79721,-4.855002"
       id="path3339-7-7-8-5-0-1-6"
       inkscape:connector-curvature="0"
       sodipodi:nodetypes="cssc" />
    <path
       style="display:inline;fill:#2b0000;stroke:none;stroke-width:1.5;stroke-linecap:round;stroke-linejoin:round"
       d="m 144.967,90.130108 c 0.34726,1.852754 1.30821,4.508685 5.21464,4.41511 3.64887,-0.08742 4.82374,-3.520323 4.31484,-5.667772 z"
       id="path3357-0-7-8-3-4-5-1"
       inkscape:connector-curvature="0"
       sodipodi:nodetypes="cscc" />
    <path
       style="display:inline;fill:none;stroke:#000000;stroke-width:1.5;stroke-linecap:round;stroke-linejoin:round;stroke-opacity:1"
       d="m 137.22581,95.26737 c 1.90613,-1.247844 3.79538,-4.92811 5.94996,-5.472553 2.22919,-0.563252 10.50307,-1.367389 12.40637,-1.276217 1.1764,0.05635 5.10661,1.292186 7.37335,2.245276"
       id="path3337-7-3-1-0-6-1-1"
       inkscape:connector-curvature="0"
       sodipodi:nodetypes="cssc" />
    <path
       style="fill:#deaa87;stroke:none;stroke-width:1.5;stroke-linecap:round;stroke-linejoin:round"
       d="m 133.26123,92.857605 c -1.77927,-0.577684 -3.26744,-5.892155 -1.19558,-7.369467 0.96406,-0.687411 1.05668,2.073991 1.43881,3.701059 0.4027,1.714645 0.49579,3.90835 -0.24323,3.668408 z"
       id="path4329-16"
       inkscape:connector-curvature="0"
       sodipodi:nodetypes="ssss" />
    <path
       style="display:inline;fill:#000000;stroke:none;stroke-width:1.5;stroke-linecap:round;stroke-linejoin:round"
       d="m 135.71295,90.497211 c 3.94839,-0.04607 9.66763,-5.337212 15.28603,-6.928208 7.05693,-1.998357 17.02299,-3.487964 15.03088,-4.180842 -2.60891,-0.907416 -10.50407,1.131278 -15.22578,1.884136 -2.16335,0.344931 -8.0128,2.484044 -10.10984,3.410334 -4.87038,2.151259 -12.28829,5.899852 -4.98129,5.81458 z"
       id="path6645-7-7-6-6-6-7-7"
       inkscape:connector-curvature="0"
       sodipodi:nodetypes="ssssss" />
    <path
       style="display:inline;fill:none;stroke:#000000;stroke-width:1.5;stroke-linecap:round;stroke-linejoin:round;stroke-opacity:1"
       d="m 135.68864,128.08216 c -3.23936,4.31799 -7.29206,5.17247 -11.58889,1.41821"
       id="path13794-2-6-5-4"
       inkscape:connector-curvature="0"
       sodipodi:nodetypes="cc" />
    <path
       style="display:inline;opacity:0.9;fill:#280b0b;stroke:#000000;stroke-width:1.5;stroke-linecap:round;stroke-linejoin:round"
       d="m 122.13867,97.757695 c -2.82809,1.48129 -8.39307,6.597055 -13.55278,7.302665 -4.77755,0.65336 -14.34076,-1.68646 -23.83656,-7.027131 -0.36331,-1.615886 -0.38592,-3.752542 0.15455,-5.377764 12.44183,-3.263658 28.61692,-4.937605 37.22107,-3.29028 1.98748,0.380518 4.90607,0.361736 7.85618,-0.533223 8.17203,-2.479107 25.04614,-4.740687 37.96172,-3.666778 0.81116,1.572311 1.58546,4.055114 1.6334,5.496696 -8.85047,7.299444 -17.66728,9.56857 -22.06349,10.87161 -5.69701,1.68857 -13.41001,-3.340411 -16.81274,-4.544369 -2.18237,-0.772165 -6.10108,-0.520059 -8.56135,0.768574 z"
       id="path6627-9-1-6-1-27"
       inkscape:connector-curvature="0"
       sodipodi:nodetypes="ssccssccsss" />
    <path
       style="display:inline;opacity:0.95;fill:#241c1c;stroke:#000000;stroke-width:1.5;stroke-linecap:round;stroke-linejoin:round"
       d="M 84.90388,92.655466 74.63584,81.200147 c -1.71213,-1.910103 -3.13492,-0.83174 -2.69411,2.591092 l 1.17079,0.0871 c 0,0 1.0944,-0.163265 2.37785,1.579845 l 9.25896,12.575042 z"
       id="path6641-9-0-7-9-4-6"
       inkscape:connector-curvature="0"
       sodipodi:nodetypes="csccscc" />
    <path
       style="display:inline;opacity:0.95;fill:#241c1c;stroke:#000000;stroke-width:1.5;stroke-linecap:round;stroke-linejoin:round"
       d="m 167.94285,85.165149 9.10279,-13.164836 c 1.38082,-1.997005 2.66989,-2.251062 2.82873,1.18003 l -1.0612,0.939915 c 0,0 -0.93211,0.337086 -1.87453,2.166267 l -7.36239,14.37532 z"
       id="path6641-9-0-7-9-4-8-6"
       inkscape:connector-curvature="0"
       sodipodi:nodetypes="csccscc" />
    <path
       style="display:inline;opacity:0.1;fill:#000000;stroke:none;stroke-width:1.5;stroke-linecap:round;stroke-linejoin:round"
       d="m 121.83486,101.99577 c -2.82809,1.48129 -8.39307,6.59706 -13.55278,7.30267 -4.77755,0.65336 -14.194346,-3.58988 -23.690146,-8.93055 -0.36331,-1.615893 -0.532337,-1.849135 0.0081,-3.474355 12.44183,-3.26366 28.616926,-4.9376 37.221076,-3.29028 1.98748,0.38052 4.90607,0.36174 7.85618,-0.53322 8.17203,-2.47911 25.04614,-4.74069 37.96172,-3.66678 0.81116,1.57231 1.43904,3.03019 1.48698,4.47178 -8.85047,7.299445 -17.52086,10.593495 -21.91707,11.896535 -5.69701,1.68857 -13.41001,-3.34041 -16.81274,-4.54437 -2.18237,-0.77217 -6.10108,-0.52006 -8.56135,0.76857 z"
       id="path6627-9-1-6-1-27-6"
       inkscape:connector-curvature="0"
       sodipodi:nodetypes="ssccssccsss" />
  </g>
  <g
     inkscape:groupmode="layer"
     id="layer7"
     inkscape:label="枠面"
     style="display:inline"
     sodipodi:insensitive="true">
    <path
       style="display:inline;fill:#ffffff;stroke:none"
       d="M 0,0 V 320 H 370 V 0 L 360,10 V 310 H 10 V 10 H 360 L 370,0 Z"
       id="path21072"
       inkscape:connector-curvature="0"
       sodipodi:nodetypes="ccccccccccc" />
  </g>
</svg>
