<?xml version="1.0" encoding="UTF-8" standalone="no"?>
<!-- Created with Inkscape (http://www.inkscape.org/) -->

<svg
   xmlns:dc="http://purl.org/dc/elements/1.1/"
   xmlns:cc="http://creativecommons.org/ns#"
   xmlns:rdf="http://www.w3.org/1999/02/22-rdf-syntax-ns#"
   xmlns:svg="http://www.w3.org/2000/svg"
   xmlns="http://www.w3.org/2000/svg"
   xmlns:sodipodi="http://sodipodi.sourceforge.net/DTD/sodipodi-0.dtd"
   xmlns:inkscape="http://www.inkscape.org/namespaces/inkscape"
   width="370"
   height="320"
   id="svg2"
   version="1.1"
   inkscape:version="0.48.4 r9939"
   sodipodi:docname="[06.通話].svg"
   inkscape:export-filename="C:\Users\root\Desktop\資料\作業\SANARO\ORG\[01.行動]03..png"
   inkscape:export-xdpi="90"
   inkscape:export-ydpi="90"
   enable-background="new">
  <defs
     id="defs4">
    <inkscape:perspective
       sodipodi:type="inkscape:persp3d"
       inkscape:vp_x="363.49708 : 943.81603 : 1"
       inkscape:vp_y="0 : 1000 : 0"
       inkscape:vp_z="744.09448 : 526.18109 : 1"
       inkscape:persp3d-origin="372.04724 : 350.78739 : 1"
       id="perspective5056" />
    <inkscape:perspective
       id="perspective5056-8"
       inkscape:persp3d-origin="372.04724 : 350.78739 : 1"
       inkscape:vp_z="744.09448 : 526.18109 : 1"
       inkscape:vp_y="0 : 1000 : 0"
       inkscape:vp_x="363.49708 : 943.81603 : 1"
       sodipodi:type="inkscape:persp3d" />
    <inkscape:perspective
       id="perspective5056-5"
       inkscape:persp3d-origin="372.04724 : 350.78739 : 1"
       inkscape:vp_z="744.09448 : 526.18109 : 1"
       inkscape:vp_y="0 : 1000 : 0"
       inkscape:vp_x="363.49708 : 943.81603 : 1"
       sodipodi:type="inkscape:persp3d" />
    <inkscape:perspective
       sodipodi:type="inkscape:persp3d"
       inkscape:vp_x="363.49708 : 943.81603 : 1"
       inkscape:vp_y="0 : 1000 : 0"
       inkscape:vp_z="744.09448 : 526.18109 : 1"
       inkscape:persp3d-origin="372.04724 : 350.78739 : 1"
       id="perspective5056-5-2" />
    <inkscape:perspective
       sodipodi:type="inkscape:persp3d"
       inkscape:vp_x="363.49708 : 943.81603 : 1"
       inkscape:vp_y="0 : 1000 : 0"
       inkscape:vp_z="744.09448 : 526.18109 : 1"
       inkscape:persp3d-origin="372.04724 : 350.78739 : 1"
       id="perspective5056-8-5" />
    <inkscape:perspective
       id="perspective5056-1"
       inkscape:persp3d-origin="372.04724 : 350.78739 : 1"
       inkscape:vp_z="744.09448 : 526.18109 : 1"
       inkscape:vp_y="0 : 1000 : 0"
       inkscape:vp_x="363.49708 : 943.81603 : 1"
       sodipodi:type="inkscape:persp3d" />
    <inkscape:perspective
       sodipodi:type="inkscape:persp3d"
       inkscape:vp_x="363.49708 : 943.81603 : 1"
       inkscape:vp_y="0 : 1000 : 0"
       inkscape:vp_z="744.09448 : 526.18109 : 1"
       inkscape:persp3d-origin="372.04724 : 350.78739 : 1"
       id="perspective5056-5-5" />
    <inkscape:perspective
       id="perspective5056-4"
       inkscape:persp3d-origin="372.04724 : 350.78739 : 1"
       inkscape:vp_z="744.09448 : 526.18109 : 1"
       inkscape:vp_y="0 : 1000 : 0"
       inkscape:vp_x="363.49708 : 943.81603 : 1"
       sodipodi:type="inkscape:persp3d" />
    <inkscape:perspective
       sodipodi:type="inkscape:persp3d"
       inkscape:vp_x="363.49708 : 943.81603 : 1"
       inkscape:vp_y="0 : 1000 : 0"
       inkscape:vp_z="744.09448 : 526.18109 : 1"
       inkscape:persp3d-origin="372.04724 : 350.78739 : 1"
       id="perspective5056-1-2" />
    <inkscape:perspective
       id="perspective5056-8-5-8"
       inkscape:persp3d-origin="372.04724 : 350.78739 : 1"
       inkscape:vp_z="744.09448 : 526.18109 : 1"
       inkscape:vp_y="0 : 1000 : 0"
       inkscape:vp_x="363.49708 : 943.81603 : 1"
       sodipodi:type="inkscape:persp3d" />
    <inkscape:perspective
       id="perspective5056-5-2-8"
       inkscape:persp3d-origin="372.04724 : 350.78739 : 1"
       inkscape:vp_z="744.09448 : 526.18109 : 1"
       inkscape:vp_y="0 : 1000 : 0"
       inkscape:vp_x="363.49708 : 943.81603 : 1"
       sodipodi:type="inkscape:persp3d" />
    <inkscape:perspective
       sodipodi:type="inkscape:persp3d"
       inkscape:vp_x="363.49708 : 943.81603 : 1"
       inkscape:vp_y="0 : 1000 : 0"
       inkscape:vp_z="744.09448 : 526.18109 : 1"
       inkscape:persp3d-origin="372.04724 : 350.78739 : 1"
       id="perspective5056-5-4" />
    <inkscape:perspective
       sodipodi:type="inkscape:persp3d"
       inkscape:vp_x="363.49708 : 943.81603 : 1"
       inkscape:vp_y="0 : 1000 : 0"
       inkscape:vp_z="744.09448 : 526.18109 : 1"
       inkscape:persp3d-origin="372.04724 : 350.78739 : 1"
       id="perspective5056-8-9" />
    <inkscape:perspective
       id="perspective5056-40"
       inkscape:persp3d-origin="372.04724 : 350.78739 : 1"
       inkscape:vp_z="744.09448 : 526.18109 : 1"
       inkscape:vp_y="0 : 1000 : 0"
       inkscape:vp_x="363.49708 : 943.81603 : 1"
       sodipodi:type="inkscape:persp3d" />
    <inkscape:perspective
       sodipodi:type="inkscape:persp3d"
       inkscape:vp_x="363.49708 : 943.81603 : 1"
       inkscape:vp_y="0 : 1000 : 0"
       inkscape:vp_z="744.09448 : 526.18109 : 1"
       inkscape:persp3d-origin="372.04724 : 350.78739 : 1"
       id="perspective5056-1-5" />
    <inkscape:perspective
       id="perspective5056-8-5-4"
       inkscape:persp3d-origin="372.04724 : 350.78739 : 1"
       inkscape:vp_z="744.09448 : 526.18109 : 1"
       inkscape:vp_y="0 : 1000 : 0"
       inkscape:vp_x="363.49708 : 943.81603 : 1"
       sodipodi:type="inkscape:persp3d" />
    <inkscape:perspective
       id="perspective5056-5-2-82"
       inkscape:persp3d-origin="372.04724 : 350.78739 : 1"
       inkscape:vp_z="744.09448 : 526.18109 : 1"
       inkscape:vp_y="0 : 1000 : 0"
       inkscape:vp_x="363.49708 : 943.81603 : 1"
       sodipodi:type="inkscape:persp3d" />
    <inkscape:perspective
       sodipodi:type="inkscape:persp3d"
       inkscape:vp_x="363.49708 : 943.81603 : 1"
       inkscape:vp_y="0 : 1000 : 0"
       inkscape:vp_z="744.09448 : 526.18109 : 1"
       inkscape:persp3d-origin="372.04724 : 350.78739 : 1"
       id="perspective5056-5-8" />
    <inkscape:perspective
       sodipodi:type="inkscape:persp3d"
       inkscape:vp_x="363.49708 : 943.81603 : 1"
       inkscape:vp_y="0 : 1000 : 0"
       inkscape:vp_z="744.09448 : 526.18109 : 1"
       inkscape:persp3d-origin="372.04724 : 350.78739 : 1"
       id="perspective5056-8-4" />
    <inkscape:perspective
       id="perspective5056-409"
       inkscape:persp3d-origin="372.04724 : 350.78739 : 1"
       inkscape:vp_z="744.09448 : 526.18109 : 1"
       inkscape:vp_y="0 : 1000 : 0"
       inkscape:vp_x="363.49708 : 943.81603 : 1"
       sodipodi:type="inkscape:persp3d" />
    <inkscape:perspective
       sodipodi:type="inkscape:persp3d"
       inkscape:vp_x="363.49708 : 943.81603 : 1"
       inkscape:vp_y="0 : 1000 : 0"
       inkscape:vp_z="744.09448 : 526.18109 : 1"
       inkscape:persp3d-origin="372.04724 : 350.78739 : 1"
       id="perspective5056-1-7" />
    <inkscape:perspective
       id="perspective5056-8-5-2"
       inkscape:persp3d-origin="372.04724 : 350.78739 : 1"
       inkscape:vp_z="744.09448 : 526.18109 : 1"
       inkscape:vp_y="0 : 1000 : 0"
       inkscape:vp_x="363.49708 : 943.81603 : 1"
       sodipodi:type="inkscape:persp3d" />
    <inkscape:perspective
       id="perspective5056-5-2-89"
       inkscape:persp3d-origin="372.04724 : 350.78739 : 1"
       inkscape:vp_z="744.09448 : 526.18109 : 1"
       inkscape:vp_y="0 : 1000 : 0"
       inkscape:vp_x="363.49708 : 943.81603 : 1"
       sodipodi:type="inkscape:persp3d" />
    <inkscape:perspective
       sodipodi:type="inkscape:persp3d"
       inkscape:vp_x="363.49708 : 943.81603 : 1"
       inkscape:vp_y="0 : 1000 : 0"
       inkscape:vp_z="744.09448 : 526.18109 : 1"
       inkscape:persp3d-origin="372.04724 : 350.78739 : 1"
       id="perspective5056-5-1" />
    <inkscape:perspective
       sodipodi:type="inkscape:persp3d"
       inkscape:vp_x="363.49708 : 943.81603 : 1"
       inkscape:vp_y="0 : 1000 : 0"
       inkscape:vp_z="744.09448 : 526.18109 : 1"
       inkscape:persp3d-origin="372.04724 : 350.78739 : 1"
       id="perspective5056-8-6" />
    <inkscape:perspective
       id="perspective5056-7"
       inkscape:persp3d-origin="372.04724 : 350.78739 : 1"
       inkscape:vp_z="744.09448 : 526.18109 : 1"
       inkscape:vp_y="0 : 1000 : 0"
       inkscape:vp_x="363.49708 : 943.81603 : 1"
       sodipodi:type="inkscape:persp3d" />
    <inkscape:perspective
       sodipodi:type="inkscape:persp3d"
       inkscape:vp_x="363.49708 : 943.81603 : 1"
       inkscape:vp_y="0 : 1000 : 0"
       inkscape:vp_z="744.09448 : 526.18109 : 1"
       inkscape:persp3d-origin="372.04724 : 350.78739 : 1"
       id="perspective5056-1-1" />
    <inkscape:perspective
       id="perspective5056-8-5-82"
       inkscape:persp3d-origin="372.04724 : 350.78739 : 1"
       inkscape:vp_z="744.09448 : 526.18109 : 1"
       inkscape:vp_y="0 : 1000 : 0"
       inkscape:vp_x="363.49708 : 943.81603 : 1"
       sodipodi:type="inkscape:persp3d" />
    <inkscape:perspective
       id="perspective5056-5-2-1"
       inkscape:persp3d-origin="372.04724 : 350.78739 : 1"
       inkscape:vp_z="744.09448 : 526.18109 : 1"
       inkscape:vp_y="0 : 1000 : 0"
       inkscape:vp_x="363.49708 : 943.81603 : 1"
       sodipodi:type="inkscape:persp3d" />
    <inkscape:perspective
       sodipodi:type="inkscape:persp3d"
       inkscape:vp_x="363.49708 : 943.81603 : 1"
       inkscape:vp_y="0 : 1000 : 0"
       inkscape:vp_z="744.09448 : 526.18109 : 1"
       inkscape:persp3d-origin="372.04724 : 350.78739 : 1"
       id="perspective5056-5-46" />
    <inkscape:perspective
       sodipodi:type="inkscape:persp3d"
       inkscape:vp_x="363.49708 : 943.81603 : 1"
       inkscape:vp_y="0 : 1000 : 0"
       inkscape:vp_z="744.09448 : 526.18109 : 1"
       inkscape:persp3d-origin="372.04724 : 350.78739 : 1"
       id="perspective5056-8-92" />
    <inkscape:perspective
       id="perspective5056-3"
       inkscape:persp3d-origin="372.04724 : 350.78739 : 1"
       inkscape:vp_z="744.09448 : 526.18109 : 1"
       inkscape:vp_y="0 : 1000 : 0"
       inkscape:vp_x="363.49708 : 943.81603 : 1"
       sodipodi:type="inkscape:persp3d" />
  </defs>
  <sodipodi:namedview
     id="base"
     pagecolor="#ffffff"
     bordercolor="#666666"
     borderopacity="1.0"
     inkscape:pageopacity="0.0"
     inkscape:pageshadow="2"
     inkscape:zoom="0.77043161"
     inkscape:cx="371.85202"
     inkscape:cy="163.26263"
     inkscape:document-units="px"
     inkscape:current-layer="layer3"
     showgrid="false"
     inkscape:window-width="1158"
     inkscape:window-height="696"
     inkscape:window-x="194"
     inkscape:window-y="-4"
     inkscape:window-maximized="0"
     showguides="true"
     inkscape:guide-bbox="true"
     inkscape:snap-grids="false"
     inkscape:snap-to-guides="false"
     showborder="true"
     inkscape:showpageshadow="false"
     fit-margin-top="0"
     fit-margin-left="0"
     fit-margin-right="0"
     fit-margin-bottom="0"
     inkscape:snap-page="false" />
  <metadata
     id="metadata7">
    <rdf:RDF>
      <cc:Work
         rdf:about="">
        <dc:format>image/svg+xml</dc:format>
        <dc:type
           rdf:resource="http://purl.org/dc/dcmitype/StillImage" />
        <dc:title></dc:title>
      </cc:Work>
    </rdf:RDF>
  </metadata>
  <g
     inkscape:groupmode="layer"
     id="layer2"
     inkscape:label="補助線"
     style="display:none"
     sodipodi:insensitive="true">
    <path
       style="fill:none;stroke:#0000ff;stroke-width:1px;stroke-linecap:butt;stroke-linejoin:miter;stroke-opacity:1"
       d="M 10,310 360,10"
       id="path3025"
       inkscape:connector-curvature="0"
       sodipodi:nodetypes="cc" />
    <path
       style="fill:none;stroke:#0000ff;stroke-width:1px;stroke-linecap:butt;stroke-linejoin:miter;stroke-opacity:1"
       d="M 10,10 360,310"
       id="path3027"
       inkscape:connector-curvature="0"
       sodipodi:nodetypes="cc" />
    <path
       style="fill:none;stroke:#ff0000;stroke-width:1px;stroke-linecap:butt;stroke-linejoin:miter;stroke-opacity:1;display:inline"
       d="m 10,0 0,320"
       id="path3006"
       inkscape:connector-curvature="0"
       sodipodi:nodetypes="cc" />
    <path
       style="fill:none;stroke:#ff0000;stroke-width:1px;stroke-linecap:butt;stroke-linejoin:miter;stroke-opacity:1;display:inline"
       d="m 360,0 0,320"
       id="path3010"
       inkscape:connector-curvature="0"
       sodipodi:nodetypes="cc" />
    <path
       style="fill:none;stroke:#ff0000;stroke-width:1px;stroke-linecap:butt;stroke-linejoin:miter;stroke-opacity:1;display:inline"
       d="M 0,9.9999681 370,10"
       id="path3016"
       inkscape:connector-curvature="0" />
    <path
       transform="translate(84.715796,27.711696)"
       style="fill:none;stroke:#ff0000;stroke-width:1px;stroke-linecap:butt;stroke-linejoin:miter;stroke-opacity:1;display:inline"
       d="m -84.715796,282.2883 369.999996,0"
       id="path3018"
       inkscape:connector-curvature="0"
       sodipodi:nodetypes="cc" />
  </g>
  <g
     inkscape:groupmode="layer"
     id="layer3"
     inkscape:label="レイヤー"
     style="display:inline">
    <g
       id="g7066"
       transform="matrix(0.47031045,-0.01777968,0,0.47031045,-304.25873,-98.69885)"
       style="stroke-width:3.18938267">
      <path
         sodipodi:nodetypes="cccccc"
         inkscape:connector-curvature="0"
         id="path4893-4"
         d="m 1132.3174,578.10165 138.52,24.82844 -30.8341,62.46405 -112.7986,31.02488 -31.4022,-69.22897 z"
         style="fill:#e9c6af;stroke:none;stroke-width:3.18938267" />
      <path
         sodipodi:nodetypes="cccc"
         inkscape:connector-curvature="0"
         id="path4684-5-8-5"
         d="m 1080.5292,670.54295 149.0051,49.29122 -182.9397,244.53951 z"
         style="fill:#dbdee3;stroke:none;display:inline;stroke-width:3.18938267" />
      <path
         sodipodi:nodetypes="cccccc"
         inkscape:connector-curvature="0"
         id="path6770-0-0-5"
         d="m 1114.3623,734.22065 c -27.4571,68.04372 -42.3219,131.46193 -60.5096,199.87673 1.2526,17.8843 11.4777,65.03 25.4833,85.23362 22.1378,-16.5917 44.2124,-58.76402 44.2124,-58.76402 2.7837,-73.7773 -4.5465,-142.6468 13.2161,-219.03798 z"
         style="fill:#550000;stroke:#000000;stroke-width:3.18938267;stroke-linecap:butt;stroke-linejoin:miter;stroke-opacity:1;display:inline" />
      <path
         sodipodi:nodetypes="ccccccc"
         inkscape:connector-curvature="0"
         id="path6768-9-9-1"
         d="m 1115.9071,674.26191 c 6.0235,7.15956 21.8023,11.66867 47.7579,8.85803 l 5.8725,16.98807 c -6.8994,14.01835 -25.1817,36.86672 -33.2598,45.70454 -7.3034,-0.23131 -16.6473,0.0925 -24.0928,-6.6544 -0.6209,-11.47217 -7.2856,-39.00356 -5.2323,-49.52929 z"
         style="fill:#550000;stroke:#000000;stroke-width:3.18938267;stroke-linecap:butt;stroke-linejoin:miter;stroke-opacity:1;display:inline" />
      <path
         sodipodi:nodetypes="ccscsc"
         inkscape:connector-curvature="0"
         id="path6762-7-0-7"
         d="m 1129.8893,679.04992 c -15.0741,0.27111 -30.3267,21.7177 -40.6389,39.0001 3.3967,-30.06112 14.9731,-77.80126 30.6255,-117.13554 4.1952,-10.54237 13.2868,-23.87357 17.9397,-32.35484 -5.6152,13.79618 -20.1173,38.78022 -22.1756,60.17197 -1.3939,14.48709 4.4679,39.80046 14.2493,50.31831 z"
         style="fill:#dbdbe3;stroke:#000000;stroke-width:3.18938267;stroke-linecap:butt;stroke-linejoin:miter;stroke-opacity:1;display:inline" />
      <path
         sodipodi:nodetypes="ccsccc"
         inkscape:connector-curvature="0"
         id="path6657-6-0-1"
         d="m 1278.234,625.85031 c -0.9279,-9.61741 -4.7064,-22.97049 -6.2724,-33.22707 0.9091,11.57236 -18.4159,50.80807 -58.6672,71.73025 -18.837,9.79125 -43.7404,10.76637 -75.862,16.98518 20.2611,19.00638 27.4465,41.78049 42.3877,72.20044 55.8625,-52.65832 73.6779,-85.5384 98.4139,-127.6888 z"
         style="fill:#dbdbe3;stroke:#000000;stroke-width:3.18938267;stroke-linecap:butt;stroke-linejoin:miter;stroke-opacity:1;display:inline" />
    </g>
    <g
       id="g7089"
       transform="matrix(0.40298496,0,0,0.40298496,-216.00949,-78.846092)"
       style="stroke-width:3.72222328">
      <path
         sodipodi:nodetypes="cssc"
         inkscape:connector-curvature="0"
         id="path10001-9-9-6-2-1"
         d="m 907.35359,968.78415 c 18.97199,-3.11087 101.72811,-246.18159 117.71801,-285.28593 36.9285,-90.31181 -42.32023,-134.2578 -77.93906,-67.40942 -44.65168,83.80087 -80.43348,203.37721 -118.7699,284.6054"
         style="fill:#1c1f24;stroke:#000000;stroke-width:3.72222328;stroke-linecap:butt;stroke-linejoin:miter;stroke-opacity:1;display:inline" />
      <path
         sodipodi:nodetypes="ccccsssscsscc"
         inkscape:connector-curvature="0"
         id="path6764-3-06-4"
         d="m 1032.1507,702.05973 -3.3715,-41.76814 c 16.832,-23.2345 49.3211,-64.32145 55.5708,-73.317 6.4658,-8.23677 14.4525,-15.71092 18.1296,-18.8857 -25.5219,52.54308 -42.3212,104.03324 -50.8176,179.67789 -7.8192,69.61646 -8.6418,160.61504 -1.9628,271.15552 1.082,17.9091 -12.5193,174.4334 -9.9574,258.3455 0.3556,11.6503 -13.7592,31.041 -31.0877,38.4825 -13.22255,5.6784 -69.93871,-59.2196 -89.20351,-101.6404 -1.69022,-115.1227 18.13734,-251.36481 14.43755,-289.26001 -4.6084,-47.20193 -14.5231,-107.10943 -11.95575,-170.42211 2.64937,-65.33532 34.36355,-163.771 51.4968,-171.897 21.4473,-8.77601 94.38891,-1.32506 121.93841,-2.72897"
         style="fill:#1c1f24;stroke:#000000;stroke-width:3.72222328;stroke-linecap:butt;stroke-linejoin:miter;stroke-opacity:1;display:inline" />
      <path
         sodipodi:nodetypes="ccc"
         inkscape:connector-curvature="0"
         id="path6766-7-1-2"
         d="m 1060.2667,693.03009 -58.8439,17.92417 c 7.7148,85.32771 26.3519,221.29762 41.6466,306.90354"
         style="fill:none;stroke:#000000;stroke-width:3.72222328;stroke-linecap:butt;stroke-linejoin:miter;stroke-opacity:1;display:inline" />
    </g>
    <path
       style="fill:#e9c6af;stroke:none;display:inline;stroke-width:1.5"
       d="m 285.14885,175.01256 -3.26548,-22.8051 c -2.42264,5.4483 -42.89822,28.36302 -55.34235,33.7079 -8.26546,3.55008 -20.58028,-1.69001 -23.81565,-7.40528 -2.03668,-3.59784 -3.86574,-9.22025 -5.95667,-13.60625 -1.87481,-3.93286 -3.83348,-7.64481 -4.60476,-9.25354 -2.23036,-4.65223 -8.74343,-22.33106 -10.26039,-30.42084 -0.9672,-5.15799 0.56281,-14.54554 -0.72782,-17.69808 -1.52878,-3.73408 -2.12583,-11.521465 -3.71259,-14.075655 -1.4059,-2.26312 0.8046,-8.24426 0.96769,-12.13072 0.38719,-9.22815 1.70224,-22.97754 4.26447,-31.499 3.90461,-12.986087 19.62097,-22.666589 31.98076,-30.398917 15.57657,-9.7448739 50.71268,-6.422554 62.95571,2.583393 12.01044,8.834801 29.08677,27.520424 31.92951,44.426254 2.08037,12.37244 2.60618,32.42453 0.26081,39.855605 -1.59369,5.04878 -12.85265,26.65997 -13.88291,33.25944 -1.01121,6.47675 -0.5614,16.05144 0.80947,27.71344"
       id="path6635-6-7-3"
       inkscape:connector-curvature="0"
       sodipodi:nodetypes="ccssssssssssssssc" />
    <g
       id="g9921-2-0-0-4-1"
       transform="matrix(-0.9993167,0.37310291,0.36219566,0.97010269,2147.7343,-720.64783)"
       style="stroke:#000000;stroke-width:1.42722828;display:inline" />
    <g
       id="g4656-2-7-5-6"
       transform="matrix(-1.0320388,0.26969499,0.26181076,1.0018683,2248.542,-579.86519)"
       style="stroke:#000000;stroke-width:1.42722832;display:inline" />
    <g
       id="g4658-5-7-8-8"
       transform="matrix(-1.0320388,0.26969499,0.26181076,1.0018683,2476.5688,-627.94442)"
       style="stroke:#000000;stroke-width:1.42722832;display:inline" />
    <g
       transform="matrix(1.2522334,-0.46753138,0.46753138,1.2522334,649.07446,227.46399)"
       id="g4678-0-3-6-5"
       inkscape:label="駅員: 左手"
       style="stroke-width:1.12219568;display:inline">
      <g
         id="g4680-9-3-1-7"
         transform="matrix(-0.7980275,0,0,0.77469807,1298.4706,-272.34221)"
         style="stroke:#000000;stroke-width:1.42722822;display:inline" />
    </g>
    <g
       id="g4682-4-5-5-6"
       transform="matrix(-0.9993167,0.37310291,0.36219566,0.97010269,2147.7343,-720.64783)"
       style="stroke:#000000;stroke-width:1.42722828;display:inline" />
    <g
       id="g9921-2-0-1-6-2"
       transform="matrix(1.1319232,1.4441692,-1.4019505,1.0988325,212.3975,-2474.9737)"
       style="stroke:#000000;stroke-width:0.82969885;display:inline" />
    <g
       id="g4656-2-4-2-7"
       transform="matrix(1.2727251,1.3217584,-1.2831183,1.2355184,-61.863902,-2358.7951)"
       style="stroke:#000000;stroke-width:0.82969886;display:inline" />
    <g
       id="g4658-5-1-5-7"
       transform="matrix(1.2727251,1.3217584,-1.2831183,1.2355184,-353.39565,-2633.9428)"
       style="stroke:#000000;stroke-width:0.82969886;display:inline" />
    <g
       transform="matrix(-1.4184011,-1.8096735,-1.8096735,1.4184011,1561.2991,261.12468)"
       id="g4678-0-2-3-9"
       inkscape:label="駅員: 左手"
       style="stroke-width:0.6523725;display:inline">
      <g
         id="g4680-9-9-5-3"
         transform="matrix(-0.7980275,0,0,0.77469807,1298.4706,-272.34221)"
         style="stroke:#000000;stroke-width:0.82969883;display:inline" />
    </g>
    <g
       id="g4682-4-0-6-1"
       transform="matrix(1.1319232,1.4441692,-1.4019505,1.0988325,212.39742,-2474.9737)"
       style="stroke:#000000;stroke-width:0.82969885;display:inline" />
    <path
       style="fill:#deaa87;stroke:none;display:inline;stroke-width:1.5"
       d="m 178.11585,90.372325 5.92704,2.3639 c -1.50749,0.9101 -2.14274,4.62956 -0.846,8.407725 l 15.49046,8.4893 c -2.07328,2.21006 -2.70274,3.31622 -6.96511,3.06312 -2.59765,-0.15423 -5.04837,-1.61894 -6.56714,0.31744 -2.15925,2.75296 -1.66344,11.96224 -2.00549,17.65254 -0.20439,-3.44067 -1.0911,-2.21661 -1.39247,-5.55159 -0.46848,-5.18512 0.0504,-15.92751 -0.57944,-18.12204 -1.3611,-4.74289 -2.28161,-8.316815 -3.68942,-13.681695 -0.258,-0.98317 -0.0907,-2.22433 0.62757,-2.9387 z"
       id="path6760-6-44"
       inkscape:connector-curvature="0"
       sodipodi:nodetypes="ccccsscsssc" />
    <path
       style="fill:#deaa87;stroke:none;display:inline;stroke-width:1.5"
       d="m 229.5547,126.071 c -6.03632,-1.0839 -7.36024,-3.90514 -11.68419,-4.43593 0.34947,3.61255 -0.48967,8.33946 0.1687,10.82098 1.06807,4.0258 -0.81568,6.13829 -0.25577,9.67161 0.70594,4.45544 -0.74654,6.20391 -2.49933,7.88082 -1.0006,0.9573 -3.1114,4.38969 -3.80284,5.55511 -1.26574,-1.73867 -4.38447,-7.56448 -7.81117,-9.34937 -1.55416,-0.80952 -3.00007,-0.14075 -6.06819,-1.99621 -1.90692,-1.15329 -1.9436,-3.98916 -1.22899,-6.46869 2.77931,-9.64434 6.33432,-15.81167 9.10492,-24.15234 0.79917,-2.40576 -0.28385,-3.71734 1.15653,-7.61615 2.63278,-2.90773 8.68824,-2.04348 12.20758,-0.70442 l -4.02932,1.3468 c -0.18487,1.43058 -0.10615,3.4588 1.64401,5.01943 l 20.47619,2.55939 c 2.00868,-2.8588 6.16927,-3.9382 3.53141,-9.33174 10.16585,-6.731585 16.74216,-25.201505 25.42895,-34.777075 15.85407,-17.47621 11.56614,-41.365603 -2.89395,-53.896863 5.29621,1.066121 10.02847,3.015533 14.54327,5.717951 9.05818,5.421913 29.9274,28.505682 31.92661,44.517122 1.61302,12.91887 2.98409,29.00279 0.33753,39.859935 -1.88303,7.72489 -11.44976,22.41183 -13.86936,33.19507 -1.53816,3.03036 0.24508,22.1767 0.77694,27.66204 l -9.96548,4.2118 c -0.84067,-3.62254 -4.48027,-16.77274 -5.40178,-18.28429 -2.33296,3.58881 -34.36063,24.47461 -54.81409,32.79682 -2.51475,1.02345 -9.88349,1.54104 -12.72131,0.12159 4.00853,-0.36397 6.84965,-3.22428 8.50714,-6.37069 2.08448,-3.95697 2.58393,-9.72031 2.21202,-15.95603 1.52203,-12.62498 18.21886,-20.88754 21.36361,-34.84732 0.59798,-2.65452 -2.63698,-7.54416 -5.26532,-7.94546 -1.66244,-0.25385 -7.46801,5.84371 -11.07432,5.19611 z"
       id="path6706-5-6"
       inkscape:connector-curvature="0"
       sodipodi:nodetypes="scssscssssccccccscsssccccscscsss" />
    <path
       style="fill:#ffffff;stroke:none;display:inline;stroke-width:1.5"
       d="m 229.15159,112.32249 -10.58479,-1.34873 -3.17013,1.03864 3.09416,4.62424 1.69561,1.52658 8.19674,1.41353 9.01437,-5.14626 z"
       id="path3337-0-4-6"
       inkscape:connector-curvature="0"
       sodipodi:nodetypes="cccccccc" />
    <path
       style="fill:#ffffff;stroke:none;display:inline;stroke-width:1.5"
       d="m 194.35715,105.82197 -9.38792,-3.19797 -1.71194,0.14719 2.20728,6.70825 2.33936,1.85435 3.92644,1.56592 6.4819,-2.19091 z"
       id="path3353-4-1-1"
       inkscape:connector-curvature="0"
       sodipodi:nodetypes="cccccccc" />
    <path
       style="fill:#2b0000;stroke:none;display:inline;stroke-width:1.5"
       d="m 185.58364,102.68388 c -0.15482,2.25014 0.98214,6.56368 3.82201,7.15057 3.25518,0.67271 4.70903,-1.61843 5.07578,-4.07486 z"
       id="path3357-1-2-8"
       inkscape:connector-curvature="0"
       sodipodi:nodetypes="cscc" />
    <path
       style="fill:#2b0000;stroke:none;display:inline;stroke-width:1.5"
       d="m 219.15346,110.92298 c 0.0177,2.88514 1.52074,5.64179 3.86547,6.21053 3.96581,0.9619 5.76603,-2.71112 5.83006,-4.97917 z"
       id="path3357-0-4"
       inkscape:connector-curvature="0"
       sodipodi:nodetypes="cscc" />
    <path
       style="fill:none;stroke:#000000;stroke-width:1.5;stroke-linecap:butt;stroke-linejoin:miter;stroke-opacity:1;display:inline"
       d="m 198.11652,102.01541 c 0.74665,3.39625 1.40444,5.15625 1.54448,7.56674 0.11545,1.98454 -7.54433,24.87866 -8.30551,27.541 -0.56849,1.98831 0.25355,4.70079 1.34802,5.66461 0.99533,0.8764 7.66558,2.59711 11.43611,3.5886"
       id="path6629-0-9"
       inkscape:connector-curvature="0"
       sodipodi:nodetypes="csssc" />
    <path
       style="fill:#000000;stroke:none;display:inline;stroke-width:1.5"
       d="m 202.56704,150.75069 c 1.21251,0.14778 3.56686,-1.11359 4.59838,-0.86055 4.35349,1.06673 18.08274,9.05119 19.33373,10.79371 1.26388,1.76035 -0.10792,6.6828 -1.40051,6.46694 -2.9668,-0.49541 -13.37595,-5.26716 -21.36733,-7.16385 -6.05775,-1.43774 -8.86475,0.0644 -10.19455,-0.44034 -0.55802,-0.21176 -2.76598,-4.80195 -1.96954,-5.82245 1.54987,-1.98575 5.19515,-4.08331 6.91041,-4.42683 1.28352,-0.25701 3.16686,1.34091 4.08941,1.45337 z"
       id="path6633-4-3"
       inkscape:connector-curvature="0"
       sodipodi:nodetypes="sssssssss" />
    <path
       style="fill:none;stroke:#000000;stroke-width:1.5;stroke-linecap:butt;stroke-linejoin:miter;stroke-opacity:1;display:inline"
       d="m 284.67269,140.50666 c -0.5095,3.75655 -0.88903,7.07931 -2.89561,11.59208 -2.42268,5.4483 -42.89824,28.36302 -55.34236,33.70789 -8.26547,3.55008 -20.58029,-1.69 -23.81565,-7.40528 -2.03669,-3.59783 -3.86575,-9.22023 -5.95668,-13.60625 -1.8748,-3.93285 -3.83348,-7.64481 -4.60475,-9.25352 -2.23036,-4.65224 -8.74345,-22.33108 -10.26039,-30.42084 -0.96722,-5.158 0.56281,-14.54554 -0.72785,-17.6981 -1.52877,-3.73407 -2.12582,-11.521445 -3.71256,-14.075645 -1.40591,-2.26312 0.80458,-8.24426 0.96768,-12.13072 0.3872,-9.22815 1.70226,-22.97754 4.26445,-31.499 3.90461,-12.986083 19.621,-22.666591 31.98078,-30.39892 15.57657,-9.7448669 50.71267,-6.422553 62.95571,2.583394 12.01045,8.8348 29.08677,27.520426 31.92951,44.426256 2.08037,12.37244 2.60618,32.42452 0.26081,39.855605 -1.59368,5.04878 -12.85264,26.65997 -13.88291,33.25945 -1.01122,6.47675 -0.5614,16.05143 0.80948,27.71344"
       id="path6635-6-7"
       inkscape:connector-curvature="0"
       sodipodi:nodetypes="csssssssssssssssc" />
    <path
       style="fill:none;stroke:#000000;stroke-width:1.5;stroke-linecap:butt;stroke-linejoin:miter;stroke-opacity:1;display:inline"
       d="m 206.92142,100.04986 c -0.93521,2.41409 -0.88367,5.19963 -0.007,7.11884"
       id="path6643-0-8"
       inkscape:connector-curvature="0"
       sodipodi:nodetypes="cc" />
    <path
       style="fill:#000000;stroke:none;display:inline;stroke-width:1.5"
       d="m 210.27856,106.41272 c 4.50617,3.00225 8.08004,-0.58355 16.46605,-0.89174 8.54347,-0.31394 21.19165,0.95768 18.95637,-0.12419 -3.37924,-1.63553 -14.84323,-2.63592 -21.91998,-2.72379 -2.55532,-0.0317 -6.47337,0.40942 -9.48791,0.97216 -4.6664,0.87112 -6.05875,1.40557 -4.01453,2.76756 z"
       id="path6645-7-8"
       inkscape:connector-curvature="0"
       sodipodi:nodetypes="ssssss" />
    <path
       style="fill:#000000;stroke:none;display:inline;stroke-width:1.5"
       d="m 177.90274,90.437805 c -0.79056,-1.31665 5.82639,1.38264 7.64549,2.44126 3.71282,2.1607 13.95101,10.468545 12.13129,10.739335 -6.34552,0.94423 -8.76069,-6.390565 -13.11245,-8.382045 -3.72355,-1.70405 -5.66237,-3.13002 -6.66433,-4.79855 z"
       id="path6647-1-2"
       inkscape:connector-curvature="0"
       sodipodi:nodetypes="sssss" />
    <path
       style="fill:none;stroke:#000000;stroke-width:1.5;stroke-linecap:butt;stroke-linejoin:miter;stroke-opacity:1;display:inline"
       d="m 213.94,138.42429 c 2.47022,3.67241 0.20076,7.99511 -2.33114,8.07912"
       id="path6649-7-9"
       inkscape:connector-curvature="0"
       sodipodi:nodetypes="cc" />
    <path
       style="fill:none;stroke:#916f6f;stroke-width:1.5;stroke-linecap:butt;stroke-linejoin:miter;stroke-opacity:1;display:inline"
       d="m 215.27388,111.89461 c 1.83431,2.74828 3.09755,5.13343 4.74716,6.10983 1.28222,0.75889 6.58486,1.81092 8.3297,1.48683 1.85326,-0.34423 6.45981,-3.6008 8.70717,-5.16406"
       id="path3339-7-1"
       inkscape:connector-curvature="0"
       sodipodi:nodetypes="cssc" />
    <path
       style="fill:none;stroke:#000000;stroke-width:1.5;stroke-linecap:butt;stroke-linejoin:miter;stroke-opacity:1;display:inline"
       d="m 213.63813,112.2755 c 2.50802,-0.18884 3.97843,-1.40885 6.09381,-1.16743 2.02629,0.23125 6.28899,0.32133 8.93567,0.96392 1.95641,0.47502 6.50232,1.62962 10.72053,2.76577"
       id="path3337-7-35"
       inkscape:connector-curvature="0"
       sodipodi:nodetypes="cssc" />
    <path
       style="fill:none;stroke:#916f6f;stroke-width:1.5;stroke-linecap:butt;stroke-linejoin:miter;stroke-opacity:1;display:inline"
       d="m 183.15516,102.84966 c 0.70923,1.73677 1.50086,5.13584 2.02046,6.2026 0.88492,1.8168 5.20125,3.98991 7.1544,3.72583 1.62012,-0.21904 4.559,-1.33791 5.92984,-2.16414"
       id="path3355-7-98"
       inkscape:connector-curvature="0"
       sodipodi:nodetypes="cssc" />
    <path
       style="fill:none;stroke:#000000;stroke-width:1.5;stroke-linecap:butt;stroke-linejoin:miter;stroke-opacity:1;display:inline"
       d="m 180.53795,102.84846 c 1.49418,0.27996 3.79032,-0.5791 5.96821,0.13365 2.63354,0.86189 7.18602,1.90832 8.54581,3.5491 1.22814,1.48193 2.3281,2.85465 3.7877,4.74745"
       id="path3353-3-4"
       inkscape:connector-curvature="0"
       sodipodi:nodetypes="cssc" />
    <path
       style="fill:#deaa87;stroke:none;display:inline;stroke-width:1.5"
       d="m 202.61286,163.61536 c 1.51366,-0.58687 8.21682,0.9062 10.59846,3.54092 1.39151,1.53943 -2.02109,3.37255 -5.32597,3.53546 -2.22085,0.10948 -8.54106,-5.80906 -5.27249,-7.07638 z"
       id="path6710-3-0"
       inkscape:connector-curvature="0"
       sodipodi:nodetypes="ssss" />
    <path
       style="fill:none;stroke:#000000;stroke-width:1.5;stroke-linecap:butt;stroke-linejoin:miter;stroke-opacity:1;display:inline"
       d="m 285.72775,138.93155 c 1.92908,-3.93099 10.00175,-3.66971 12.94464,-14.26322 1.4698,-5.29075 3.68843,-8.876 4.807,-19.23347 0.96052,-8.894265 -6.13956,-10.723515 -9.65903,-10.301575 -4.87349,0.58426 -7.10341,4.28036 -10.36187,8.169665"
       id="path6637-1-5"
       inkscape:connector-curvature="0"
       sodipodi:nodetypes="csssc" />
    <path
       style="opacity:0.94999999999999996;fill:none;stroke:#000000;stroke-width:1.5;stroke-linecap:butt;stroke-linejoin:miter;stroke-opacity:1;display:inline"
       d="m 294.92704,121.12036 c -2.916,-0.36185 -3.7301,-3.09843 -5.1722,-6.13492 -1.36643,-2.87723 -2.56503,-6.94113 -1.97683,-9.31963 0.88971,-3.59772 6.29043,-7.536625 8.57516,-6.780845 2.26952,0.75089 3.70576,2.804085 4.19228,6.203235 0.81214,5.67383 -1.9838,13.17827 -6.52078,17.01918 -2.50922,2.12425 -4.61607,6.35351 -6.09465,4.986 -1.44942,-1.34054 1.2027,-3.18482 1.28359,-4.8787 0.0487,-1.02054 -1.56045,-4.01966 -2.71089,-4.38706"
       id="path6639-8-4"
       inkscape:connector-curvature="0"
       sodipodi:nodetypes="csssssssc" />
    <path
       style="fill:none;stroke:#000000;stroke-width:1.5;stroke-linecap:butt;stroke-linejoin:miter;stroke-opacity:1;display:inline"
       d="m 198.31995,99.343975 c -0.43704,1.955165 -0.13609,4.922235 0.38022,6.684855"
       id="path6643-0-8-0"
       inkscape:connector-curvature="0"
       sodipodi:nodetypes="cc" />
    <g
       id="g7081"
       transform="matrix(0.47031045,-0.01777968,0,0.47031045,-304.25873,-98.69885)"
       style="stroke-width:3.18938267">
      <path
         sodipodi:nodetypes="cssccccssssccscc"
         inkscape:connector-curvature="0"
         id="path6659-6-9-5"
         d="m 1288.2256,625.0091 c 26.6446,14.99207 114.4845,77.62784 116.4815,103.54978 6.6655,86.52192 -73.2757,185.6381 -73.5372,222.8282 -0.2735,38.876 -3.2551,160.67302 -1.6101,233.70422 -13.3856,13.3585 -5.826,5.675 -19.5634,14.5952 -4.4499,-23.1531 -5.539,-49.6709 -11.3402,-68.0217 -0.081,22.5487 -2.606,73.3802 -4.7138,73.5752 -57.6704,35.5335 -192.7732,22.8035 -203.0562,22.2252 -13.6859,-0.7698 -35.3556,-19.8051 -36.8902,-40.0196 -6.0301,-79.4257 8.2154,-231.01882 11.6596,-238.21532 29.049,-60.6967 88.4696,-161.89896 115.1337,-197.51532 32.4163,-43.29988 102.9888,-132.62105 94.7785,-156.16341 4.8322,7.05167 15.133,22.40602 19.2922,32.56528 -5.5986,3.2328 -8.9265,14.90892 -11.3429,22.72506 -7.2505,23.45203 -10.1852,57.65864 -12.8251,82.75137 l -38.0401,2.7378"
         style="fill:#1c1f24;stroke:#000000;stroke-width:3.18938267;stroke-linecap:butt;stroke-linejoin:miter;stroke-opacity:1;display:inline" />
      <path
         sodipodi:nodetypes="ccc"
         inkscape:connector-curvature="0"
         id="path6655-8-7-2"
         d="m 1216.5232,711.30782 40.3716,58.53357 c -57.6651,33.65409 -138.1929,105.98209 -187.2666,181.91289"
         style="fill:none;stroke:#000000;stroke-width:3.18938267;stroke-linecap:butt;stroke-linejoin:miter;stroke-opacity:1;display:inline" />
      <path
         sodipodi:nodetypes="csssc"
         inkscape:connector-curvature="0"
         id="path6661-0-2-7"
         d="m 1228.5595,926.91758 c 22.3304,-62.6311 61.9184,-116.0813 90.7639,-170.22765 21.7046,-40.74219 49.5569,-55.01289 66.1507,-49.01115 18.7218,6.77144 24.5488,38.9731 20.5801,82.37683 -3.4522,37.75474 -62.6915,136.97297 -83.1764,215.44159"
         style="fill:#1c1f24;stroke:#000000;stroke-width:3.18938267;stroke-linecap:butt;stroke-linejoin:miter;stroke-opacity:1;display:inline" />
    </g>
    <rect
       style="fill:#ff0000;stroke:#000000;stroke-width:1.57347992"
       id="rect6897"
       width="34.265732"
       height="66.520676"
       x="306.77139"
       y="-262.80972"
       ry="5.3683419"
       transform="matrix(0.39026369,0.92070313,-0.67387407,0.73884622,0,0)" />
    <g
       id="g6954"
       transform="matrix(0.40298496,0,0,0.40298496,-211.2302,-77.95394)"
       style="stroke-width:3.72222328">
      <path
         sodipodi:nodetypes="ccscccsssscccsssscccsssscccssssscc"
         inkscape:connector-curvature="0"
         id="path6857-9"
         d="m 1171.0386,692.1514 c 1.5875,-17.17364 7.4389,-44.02541 9.8315,-54.70005 -2.0311,-11.10937 -6.1077,-22.76093 -3.8849,-32.74569 2.6946,-12.10414 14.178,-32.53883 18.9646,-42.03344 -1.7906,-10.80866 -1.7303,-17.03768 -2.5891,-23.13012 -2.3792,-1.29238 -6.703,-14.00187 -9.0898,-18.27671 -4.1205,-2.4646 -15.866,-8.99524 -18.0171,-13.00149 -2.9786,-5.54744 -1.4599,-10.88353 5.9734,-9.27591 4.047,0.87524 19.2299,7.11615 23.4528,10.83063 5.655,4.97404 11.8578,17.42417 13.7872,20.80469 2.9034,5.08672 2.717,5.39089 4.5573,9.19423 l -1.8817,-17.22812 c -3.5043,-2.04863 -10.5539,-15.09535 -14.747,-18.91621 -6.545,-4.19162 -15.8433,-7.71626 -19.1052,-11.84658 -5.4826,-6.9425 -0.5345,-11.35227 5.7756,-10.11218 4.855,0.9541 20.8525,6.45 25.4847,10.5851 6.9339,6.18979 13.5238,15.74393 16.046,19.01414 4.1937,5.4373 4.9894,8.82096 7.6704,15.60469 -1.2485,-5.75431 -0.7561,-14.26774 -2.9452,-20.60247 -2.3939,-4.42792 -13.8698,-16.0569 -15.6601,-21.32672 -7.477,-4.68114 -20.3635,-7.96709 -23.0238,-11.99391 -3.4227,-5.18082 -4.0865,-10.93704 3.9006,-10.55477 6.367,0.30474 24.9953,5.18039 29.5992,10.78422 2.1567,2.62516 18.9443,15.7164 22.069,22.19632 1.1924,2.4728 2.7026,6.16014 4.1577,9.31786 1.0755,-3.21725 2.5414,-7.37581 3.297,-8.81379 0.3596,-12.36866 0.838,-19.823 2.7992,-30.59002 -5.2757,-6.82599 -11.5568,-22.03689 -13.6202,-30.20211 -1.8334,-7.25483 3.7086,-9.41196 9.3681,-6.35266 4.3681,2.36122 20.2609,23.42823 21.1921,30.5429 0.9558,7.30247 0.2925,29.27897 -1.9333,40.53292 -2.3898,12.08314 -6.3411,37.83178 -7.8049,43.04925 -2.0549,7.32441 -20.3238,49.49086 -32.1156,78.38492 0.1112,13.29707 -0.8885,42.11395 -1.2863,70.36528"
         style="fill:#e9c6af;stroke:none;display:inline;stroke-width:3.72222328" />
      <path
         sodipodi:nodetypes="ccscccssssc"
         inkscape:connector-curvature="0"
         id="path6857"
         d="m 1171.1716,692.20025 c 1.5875,-17.17362 7.4389,-44.02539 9.8315,-54.70003 -2.0311,-11.10937 -6.1077,-22.76093 -3.8849,-32.74569 2.6946,-12.10414 14.178,-32.53883 18.9646,-42.03344 -1.7906,-10.80866 -1.7303,-17.03768 -2.5891,-23.13012 -2.3792,-1.29238 -6.703,-14.00187 -9.0898,-18.27671 -4.1205,-2.4646 -15.866,-8.99524 -18.0171,-13.00149 -2.9786,-5.54744 -1.4599,-10.88353 5.9734,-9.27591 4.047,0.87524 19.2299,7.11615 23.4528,10.83063 5.655,4.97404 11.8578,17.42417 13.7872,20.80469 2.9034,5.08672 5.1507,13.82772 8.407,21.42891"
         style="fill:none;stroke:#000000;stroke-width:3.72222328;stroke-linecap:butt;stroke-linejoin:miter;stroke-opacity:1" />
      <path
         sodipodi:nodetypes="cccssssc"
         inkscape:connector-curvature="0"
         id="path6859"
         d="m 1213.9132,541.07653 -1.6374,-18.43824 c -3.5043,-2.04863 -10.5539,-15.09535 -14.747,-18.91621 -6.545,-4.19162 -15.8433,-7.71626 -19.1052,-11.84658 -5.4826,-6.9425 -0.5345,-11.35227 5.7756,-10.11218 4.855,0.9541 20.8525,6.45 25.4847,10.5851 6.9339,6.18979 13.5238,15.74393 16.046,19.01414 4.1937,5.4373 7.4231,18.55576 12.1773,29.11053"
         style="fill:none;stroke:#000000;stroke-width:3.72222328;stroke-linecap:butt;stroke-linejoin:miter;stroke-opacity:1" />
      <path
         sodipodi:nodetypes="cccssssc"
         inkscape:connector-curvature="0"
         id="path6859-1"
         d="m 1233.3018,528.4567 c -0.7977,-6.20167 -0.6576,-15.75719 -2.8467,-22.09192 -2.3939,-4.42792 -13.8698,-16.0569 -15.6601,-21.32672 -7.477,-4.68114 -20.3635,-7.96709 -23.0238,-11.99391 -3.4227,-5.18082 -4.0865,-10.93704 3.9006,-10.55477 6.367,0.30474 24.9953,5.18039 29.5992,10.78422 2.1567,2.62516 18.6198,16.04541 22.069,22.35857 3.2001,5.85721 9.0235,29.92492 11.5585,37.6953"
         style="fill:none;stroke:#000000;stroke-width:3.72222328;stroke-linecap:butt;stroke-linejoin:miter;stroke-opacity:1;display:inline" />
      <path
         sodipodi:nodetypes="cccssssscc"
         inkscape:connector-curvature="0"
         id="path6859-1-7"
         d="m 1251.1669,506.15241 c 0.6736,-2.156 2.9968,-8.61588 3.4656,-10.34067 0.3596,-12.36866 0.7708,-20.3491 2.732,-31.11612 -5.2757,-6.82599 -13.6219,-25.24921 -13.6203,-30.66102 0,-7.4829 4.3593,-8.94025 9.5976,-5.2054 3.7945,2.7054 20.2609,23.42823 21.1921,30.5429 0.9558,7.30247 0.2729,29.3937 -1.953,40.64765 -2.3898,12.08314 -6.3214,37.71705 -7.7852,42.93452 -2.0549,7.32441 -20.3238,49.49086 -32.1156,78.38492 0.1112,13.29707 -0.8885,42.11395 -1.2863,70.3653"
         style="fill:none;stroke:#000000;stroke-width:3.72222328;stroke-linecap:butt;stroke-linejoin:miter;stroke-opacity:1;display:inline" />
    </g>
    <rect
       style="fill:#fefefe;stroke:#000000;stroke-width:2;fill-opacity:1"
       id="rect7150"
       width="129.41064"
       height="225.78029"
       x="12.849284"
       y="14.370589"
       ry="28.062269" />
  </g>
  <g
     inkscape:groupmode="layer"
     id="layer7"
     inkscape:label="枠面"
     style="display:inline"
     sodipodi:insensitive="true">
    <path
       style="fill:#ff0000;stroke:none;display:inline"
       d="m 0,0 0,320 370,0 0,-320 -10,10 0,300 -350,0 0,-300 350,0 10,-10 z"
       id="path21072"
       inkscape:connector-curvature="0"
       sodipodi:nodetypes="ccccccccccc" />
  </g>
</svg>
