<?xml version="1.0" encoding="UTF-8" standalone="no"?>
<!-- Created with Inkscape (http://www.inkscape.org/) -->

<svg
   xmlns:dc="http://purl.org/dc/elements/1.1/"
   xmlns:cc="http://creativecommons.org/ns#"
   xmlns:rdf="http://www.w3.org/1999/02/22-rdf-syntax-ns#"
   xmlns:svg="http://www.w3.org/2000/svg"
   xmlns="http://www.w3.org/2000/svg"
   xmlns:sodipodi="http://sodipodi.sourceforge.net/DTD/sodipodi-0.dtd"
   xmlns:inkscape="http://www.inkscape.org/namespaces/inkscape"
   width="370"
   height="320"
   id="svg2"
   version="1.1"
   inkscape:version="0.48.4 r9939"
   sodipodi:docname="[06.俯瞰].svg"
   inkscape:export-filename="C:\Users\root\Desktop\資料\作業\SANARO\ORG\[01.行動]03..png"
   inkscape:export-xdpi="90"
   inkscape:export-ydpi="90"
   enable-background="new">
  <defs
     id="defs4">
    <inkscape:perspective
       sodipodi:type="inkscape:persp3d"
       inkscape:vp_x="363.49708 : 943.81603 : 1"
       inkscape:vp_y="0 : 1000 : 0"
       inkscape:vp_z="744.09448 : 526.18109 : 1"
       inkscape:persp3d-origin="372.04724 : 350.78739 : 1"
       id="perspective5056" />
    <inkscape:perspective
       id="perspective5056-8"
       inkscape:persp3d-origin="372.04724 : 350.78739 : 1"
       inkscape:vp_z="744.09448 : 526.18109 : 1"
       inkscape:vp_y="0 : 1000 : 0"
       inkscape:vp_x="363.49708 : 943.81603 : 1"
       sodipodi:type="inkscape:persp3d" />
    <inkscape:perspective
       id="perspective5056-5"
       inkscape:persp3d-origin="372.04724 : 350.78739 : 1"
       inkscape:vp_z="744.09448 : 526.18109 : 1"
       inkscape:vp_y="0 : 1000 : 0"
       inkscape:vp_x="363.49708 : 943.81603 : 1"
       sodipodi:type="inkscape:persp3d" />
    <inkscape:perspective
       sodipodi:type="inkscape:persp3d"
       inkscape:vp_x="363.49708 : 943.81603 : 1"
       inkscape:vp_y="0 : 1000 : 0"
       inkscape:vp_z="744.09448 : 526.18109 : 1"
       inkscape:persp3d-origin="372.04724 : 350.78739 : 1"
       id="perspective5056-5-2" />
    <inkscape:perspective
       sodipodi:type="inkscape:persp3d"
       inkscape:vp_x="363.49708 : 943.81603 : 1"
       inkscape:vp_y="0 : 1000 : 0"
       inkscape:vp_z="744.09448 : 526.18109 : 1"
       inkscape:persp3d-origin="372.04724 : 350.78739 : 1"
       id="perspective5056-8-5" />
    <inkscape:perspective
       id="perspective5056-1"
       inkscape:persp3d-origin="372.04724 : 350.78739 : 1"
       inkscape:vp_z="744.09448 : 526.18109 : 1"
       inkscape:vp_y="0 : 1000 : 0"
       inkscape:vp_x="363.49708 : 943.81603 : 1"
       sodipodi:type="inkscape:persp3d" />
    <inkscape:perspective
       sodipodi:type="inkscape:persp3d"
       inkscape:vp_x="363.49708 : 943.81603 : 1"
       inkscape:vp_y="0 : 1000 : 0"
       inkscape:vp_z="744.09448 : 526.18109 : 1"
       inkscape:persp3d-origin="372.04724 : 350.78739 : 1"
       id="perspective5056-5-5" />
    <inkscape:perspective
       id="perspective5056-4"
       inkscape:persp3d-origin="372.04724 : 350.78739 : 1"
       inkscape:vp_z="744.09448 : 526.18109 : 1"
       inkscape:vp_y="0 : 1000 : 0"
       inkscape:vp_x="363.49708 : 943.81603 : 1"
       sodipodi:type="inkscape:persp3d" />
    <inkscape:perspective
       sodipodi:type="inkscape:persp3d"
       inkscape:vp_x="363.49708 : 943.81603 : 1"
       inkscape:vp_y="0 : 1000 : 0"
       inkscape:vp_z="744.09448 : 526.18109 : 1"
       inkscape:persp3d-origin="372.04724 : 350.78739 : 1"
       id="perspective5056-1-2" />
    <inkscape:perspective
       id="perspective5056-8-5-8"
       inkscape:persp3d-origin="372.04724 : 350.78739 : 1"
       inkscape:vp_z="744.09448 : 526.18109 : 1"
       inkscape:vp_y="0 : 1000 : 0"
       inkscape:vp_x="363.49708 : 943.81603 : 1"
       sodipodi:type="inkscape:persp3d" />
    <inkscape:perspective
       id="perspective5056-5-2-8"
       inkscape:persp3d-origin="372.04724 : 350.78739 : 1"
       inkscape:vp_z="744.09448 : 526.18109 : 1"
       inkscape:vp_y="0 : 1000 : 0"
       inkscape:vp_x="363.49708 : 943.81603 : 1"
       sodipodi:type="inkscape:persp3d" />
    <inkscape:perspective
       sodipodi:type="inkscape:persp3d"
       inkscape:vp_x="363.49708 : 943.81603 : 1"
       inkscape:vp_y="0 : 1000 : 0"
       inkscape:vp_z="744.09448 : 526.18109 : 1"
       inkscape:persp3d-origin="372.04724 : 350.78739 : 1"
       id="perspective5056-5-4" />
    <inkscape:perspective
       sodipodi:type="inkscape:persp3d"
       inkscape:vp_x="363.49708 : 943.81603 : 1"
       inkscape:vp_y="0 : 1000 : 0"
       inkscape:vp_z="744.09448 : 526.18109 : 1"
       inkscape:persp3d-origin="372.04724 : 350.78739 : 1"
       id="perspective5056-8-9" />
    <inkscape:perspective
       id="perspective5056-40"
       inkscape:persp3d-origin="372.04724 : 350.78739 : 1"
       inkscape:vp_z="744.09448 : 526.18109 : 1"
       inkscape:vp_y="0 : 1000 : 0"
       inkscape:vp_x="363.49708 : 943.81603 : 1"
       sodipodi:type="inkscape:persp3d" />
    <inkscape:perspective
       sodipodi:type="inkscape:persp3d"
       inkscape:vp_x="363.49708 : 943.81603 : 1"
       inkscape:vp_y="0 : 1000 : 0"
       inkscape:vp_z="744.09448 : 526.18109 : 1"
       inkscape:persp3d-origin="372.04724 : 350.78739 : 1"
       id="perspective5056-1-5" />
    <inkscape:perspective
       id="perspective5056-8-5-4"
       inkscape:persp3d-origin="372.04724 : 350.78739 : 1"
       inkscape:vp_z="744.09448 : 526.18109 : 1"
       inkscape:vp_y="0 : 1000 : 0"
       inkscape:vp_x="363.49708 : 943.81603 : 1"
       sodipodi:type="inkscape:persp3d" />
    <inkscape:perspective
       id="perspective5056-5-2-82"
       inkscape:persp3d-origin="372.04724 : 350.78739 : 1"
       inkscape:vp_z="744.09448 : 526.18109 : 1"
       inkscape:vp_y="0 : 1000 : 0"
       inkscape:vp_x="363.49708 : 943.81603 : 1"
       sodipodi:type="inkscape:persp3d" />
    <inkscape:perspective
       sodipodi:type="inkscape:persp3d"
       inkscape:vp_x="363.49708 : 943.81603 : 1"
       inkscape:vp_y="0 : 1000 : 0"
       inkscape:vp_z="744.09448 : 526.18109 : 1"
       inkscape:persp3d-origin="372.04724 : 350.78739 : 1"
       id="perspective5056-5-8" />
    <inkscape:perspective
       sodipodi:type="inkscape:persp3d"
       inkscape:vp_x="363.49708 : 943.81603 : 1"
       inkscape:vp_y="0 : 1000 : 0"
       inkscape:vp_z="744.09448 : 526.18109 : 1"
       inkscape:persp3d-origin="372.04724 : 350.78739 : 1"
       id="perspective5056-8-4" />
    <inkscape:perspective
       id="perspective5056-409"
       inkscape:persp3d-origin="372.04724 : 350.78739 : 1"
       inkscape:vp_z="744.09448 : 526.18109 : 1"
       inkscape:vp_y="0 : 1000 : 0"
       inkscape:vp_x="363.49708 : 943.81603 : 1"
       sodipodi:type="inkscape:persp3d" />
    <inkscape:perspective
       sodipodi:type="inkscape:persp3d"
       inkscape:vp_x="363.49708 : 943.81603 : 1"
       inkscape:vp_y="0 : 1000 : 0"
       inkscape:vp_z="744.09448 : 526.18109 : 1"
       inkscape:persp3d-origin="372.04724 : 350.78739 : 1"
       id="perspective5056-1-7" />
    <inkscape:perspective
       id="perspective5056-8-5-2"
       inkscape:persp3d-origin="372.04724 : 350.78739 : 1"
       inkscape:vp_z="744.09448 : 526.18109 : 1"
       inkscape:vp_y="0 : 1000 : 0"
       inkscape:vp_x="363.49708 : 943.81603 : 1"
       sodipodi:type="inkscape:persp3d" />
    <inkscape:perspective
       id="perspective5056-5-2-89"
       inkscape:persp3d-origin="372.04724 : 350.78739 : 1"
       inkscape:vp_z="744.09448 : 526.18109 : 1"
       inkscape:vp_y="0 : 1000 : 0"
       inkscape:vp_x="363.49708 : 943.81603 : 1"
       sodipodi:type="inkscape:persp3d" />
    <inkscape:perspective
       sodipodi:type="inkscape:persp3d"
       inkscape:vp_x="363.49708 : 943.81603 : 1"
       inkscape:vp_y="0 : 1000 : 0"
       inkscape:vp_z="744.09448 : 526.18109 : 1"
       inkscape:persp3d-origin="372.04724 : 350.78739 : 1"
       id="perspective5056-5-1" />
    <inkscape:perspective
       sodipodi:type="inkscape:persp3d"
       inkscape:vp_x="363.49708 : 943.81603 : 1"
       inkscape:vp_y="0 : 1000 : 0"
       inkscape:vp_z="744.09448 : 526.18109 : 1"
       inkscape:persp3d-origin="372.04724 : 350.78739 : 1"
       id="perspective5056-8-6" />
    <inkscape:perspective
       id="perspective5056-7"
       inkscape:persp3d-origin="372.04724 : 350.78739 : 1"
       inkscape:vp_z="744.09448 : 526.18109 : 1"
       inkscape:vp_y="0 : 1000 : 0"
       inkscape:vp_x="363.49708 : 943.81603 : 1"
       sodipodi:type="inkscape:persp3d" />
    <inkscape:perspective
       sodipodi:type="inkscape:persp3d"
       inkscape:vp_x="363.49708 : 943.81603 : 1"
       inkscape:vp_y="0 : 1000 : 0"
       inkscape:vp_z="744.09448 : 526.18109 : 1"
       inkscape:persp3d-origin="372.04724 : 350.78739 : 1"
       id="perspective5056-1-1" />
    <inkscape:perspective
       id="perspective5056-8-5-82"
       inkscape:persp3d-origin="372.04724 : 350.78739 : 1"
       inkscape:vp_z="744.09448 : 526.18109 : 1"
       inkscape:vp_y="0 : 1000 : 0"
       inkscape:vp_x="363.49708 : 943.81603 : 1"
       sodipodi:type="inkscape:persp3d" />
    <inkscape:perspective
       id="perspective5056-5-2-1"
       inkscape:persp3d-origin="372.04724 : 350.78739 : 1"
       inkscape:vp_z="744.09448 : 526.18109 : 1"
       inkscape:vp_y="0 : 1000 : 0"
       inkscape:vp_x="363.49708 : 943.81603 : 1"
       sodipodi:type="inkscape:persp3d" />
    <inkscape:perspective
       sodipodi:type="inkscape:persp3d"
       inkscape:vp_x="363.49708 : 943.81603 : 1"
       inkscape:vp_y="0 : 1000 : 0"
       inkscape:vp_z="744.09448 : 526.18109 : 1"
       inkscape:persp3d-origin="372.04724 : 350.78739 : 1"
       id="perspective5056-5-46" />
    <inkscape:perspective
       sodipodi:type="inkscape:persp3d"
       inkscape:vp_x="363.49708 : 943.81603 : 1"
       inkscape:vp_y="0 : 1000 : 0"
       inkscape:vp_z="744.09448 : 526.18109 : 1"
       inkscape:persp3d-origin="372.04724 : 350.78739 : 1"
       id="perspective5056-8-92" />
    <inkscape:perspective
       id="perspective5056-3"
       inkscape:persp3d-origin="372.04724 : 350.78739 : 1"
       inkscape:vp_z="744.09448 : 526.18109 : 1"
       inkscape:vp_y="0 : 1000 : 0"
       inkscape:vp_x="363.49708 : 943.81603 : 1"
       sodipodi:type="inkscape:persp3d" />
  </defs>
  <sodipodi:namedview
     id="base"
     pagecolor="#ffffff"
     bordercolor="#666666"
     borderopacity="1.0"
     inkscape:pageopacity="0.0"
     inkscape:pageshadow="2"
     inkscape:zoom="1.1441257"
     inkscape:cx="192.12095"
     inkscape:cy="171.34446"
     inkscape:document-units="px"
     inkscape:current-layer="layer8"
     showgrid="false"
     inkscape:window-width="1139"
     inkscape:window-height="693"
     inkscape:window-x="75"
     inkscape:window-y="-2"
     inkscape:window-maximized="0"
     showguides="true"
     inkscape:guide-bbox="true"
     inkscape:snap-grids="false"
     inkscape:snap-to-guides="false"
     showborder="true"
     inkscape:showpageshadow="false"
     fit-margin-top="0"
     fit-margin-left="0"
     fit-margin-right="0"
     fit-margin-bottom="0"
     inkscape:snap-page="false" />
  <metadata
     id="metadata7">
    <rdf:RDF>
      <cc:Work
         rdf:about="">
        <dc:format>image/svg+xml</dc:format>
        <dc:type
           rdf:resource="http://purl.org/dc/dcmitype/StillImage" />
        <dc:title></dc:title>
      </cc:Work>
    </rdf:RDF>
  </metadata>
  <g
     inkscape:groupmode="layer"
     id="layer2"
     inkscape:label="補助線"
     style="display:none"
     sodipodi:insensitive="true">
    <path
       style="fill:none;stroke:#0000ff;stroke-width:1px;stroke-linecap:butt;stroke-linejoin:miter;stroke-opacity:1"
       d="M 10,310 360,10"
       id="path3025"
       inkscape:connector-curvature="0"
       sodipodi:nodetypes="cc" />
    <path
       style="fill:none;stroke:#0000ff;stroke-width:1px;stroke-linecap:butt;stroke-linejoin:miter;stroke-opacity:1"
       d="M 10,10 360,310"
       id="path3027"
       inkscape:connector-curvature="0"
       sodipodi:nodetypes="cc" />
    <path
       style="fill:none;stroke:#ff0000;stroke-width:1px;stroke-linecap:butt;stroke-linejoin:miter;stroke-opacity:1;display:inline"
       d="m 10,0 0,320"
       id="path3006"
       inkscape:connector-curvature="0"
       sodipodi:nodetypes="cc" />
    <path
       style="fill:none;stroke:#ff0000;stroke-width:1px;stroke-linecap:butt;stroke-linejoin:miter;stroke-opacity:1;display:inline"
       d="m 360,0 0,320"
       id="path3010"
       inkscape:connector-curvature="0"
       sodipodi:nodetypes="cc" />
    <path
       style="fill:none;stroke:#ff0000;stroke-width:1px;stroke-linecap:butt;stroke-linejoin:miter;stroke-opacity:1;display:inline"
       d="M 0,9.9999681 370,10"
       id="path3016"
       inkscape:connector-curvature="0" />
    <path
       transform="translate(84.715796,27.711696)"
       style="fill:none;stroke:#ff0000;stroke-width:1px;stroke-linecap:butt;stroke-linejoin:miter;stroke-opacity:1;display:inline"
       d="m -84.715796,282.2883 369.999996,0"
       id="path3018"
       inkscape:connector-curvature="0"
       sodipodi:nodetypes="cc" />
  </g>
  <g
     inkscape:groupmode="layer"
     id="layer8"
     inkscape:label="原型"
     style="display:inline">
    <path
       style="fill:#1c1f24;stroke:#000000;stroke-width:1.5;stroke-linecap:butt;stroke-linejoin:miter;stroke-opacity:1;display:inline"
       d="m 228.44157,383.36388 c 0.85661,-45.40357 -0.59621,-104.4964 4.10692,-147.33563 2.18455,-19.89829 9.55693,-42.10734 18.9945,-37.98897 11.60439,5.06393 12.66039,22.87616 13.86084,48.25626 1.97133,41.6784 -3.32275,98.00944 -1.02673,143.22871"
       id="path7580"
       inkscape:connector-curvature="0"
       sodipodi:nodetypes="csssc" />
    <path
       style="fill:#e9c6af;stroke:none;display:inline"
       d="m 107.01278,130.34246 c 0.72588,12.59531 -3.00929,21.78059 -3.24502,31.17049 l 50.73252,44.41225 26.74672,-38.01187 -0.363,-31.58131 z"
       id="path6724"
       inkscape:connector-curvature="0"
       sodipodi:nodetypes="cccccc" />
    <path
       style="fill:#deaa87;stroke:none;display:inline"
       d="m 106.91103,130.39422 c 0.72588,12.59531 -2.91854,21.59908 -3.15427,30.98898 l 17.60844,21.99679 c -4.09841,-15.68061 -6.5493,-39.63393 -1.38605,-49.80949 z"
       id="path6724-1"
       inkscape:connector-curvature="0"
       sodipodi:nodetypes="ccccc" />
    <path
       style="fill:none;stroke:#000000;stroke-width:1.5;stroke-linecap:butt;stroke-linejoin:miter;stroke-opacity:1;display:inline"
       d="m 103.56424,161.37927 c 2.10557,-10.01882 3.09645,-20.59499 3.26703,-31.58131"
       id="path6722"
       inkscape:connector-curvature="0"
       sodipodi:nodetypes="cc" />
    <path
       style="fill:#dbdee3;stroke:none;display:inline"
       d="M 201.01306,199.2997 96.020933,205.36314 178.03566,361.13539 z"
       id="path4684-5-5-2-7-6"
       inkscape:connector-curvature="0"
       sodipodi:nodetypes="cccc" />
    <path
       style="fill:#550000;stroke:#000000;stroke-width:1.5;stroke-linecap:butt;stroke-linejoin:miter;stroke-opacity:1;display:inline"
       d="m 161.36623,222.55489 18.42427,94.09229 c -1.71611,9.36851 -11.11824,21.56512 -19.18654,32.99768 -9.75134,-7.12046 -19.27604,-30.29267 -19.27604,-30.29267 l 9.97887,-96.74486 z"
       id="path6770-0-4-6-6-4"
       inkscape:connector-curvature="0"
       sodipodi:nodetypes="cccccc" />
    <path
       style="fill:#550000;stroke:#000000;stroke-width:1.5;stroke-linecap:butt;stroke-linejoin:miter;stroke-opacity:1;display:inline"
       d="m 166.5181,196.41257 c -6.40012,2.42914 -15.36159,2.68646 -21.79636,1.27554 l -4.04481,5.37832 c 2.87679,6.17032 7.43737,14.58045 10.1817,19.77876 4.15384,1.15147 8.04767,1.39778 10.97006,-0.36596 1.73789,-4.90826 8.24632,-13.81019 7.89777,-19.13585 z"
       id="path6768-9-1-6-8-4"
       inkscape:connector-curvature="0"
       sodipodi:nodetypes="ccccccc" />
    <path
       style="fill:#dbdbe3;stroke:#000000;stroke-width:1.5;stroke-linecap:butt;stroke-linejoin:miter;stroke-opacity:1;display:inline"
       d="m 100.21116,165.22194 c 0.48197,-4.48911 1.73969,-8.60312 4.29508,-13.40785 0.31121,12.56526 32.61251,39.39387 49.33487,45.41139 -7.39787,3.01283 -15.45178,19.33109 -24.4248,31.8185 -13.69887,-16.37015 -26.8944,-51.36869 -29.20515,-63.82204 z"
       id="path6657-6-4-0-2-2"
       inkscape:connector-curvature="0"
       sodipodi:nodetypes="ccccc" />
    <path
       style="fill:#1c1f24;stroke:#000000;stroke-width:1.5;stroke-linecap:butt;stroke-linejoin:miter;stroke-opacity:1;display:inline"
       d="m 89.281603,169.68034 c -14.6906,8.48147 -56.64578,14.38667 -59.36452,25.7838 -4.73753,19.86008 29.03983,103.62478 30.79259,131.89962 2.57149,41.48259 -8.2426,99.35885 2.44242,107.85754 14.87123,11.82832 83.565907,24.52922 100.918187,20.53423 6.65737,-1.53274 -0.004,-8.09102 1.81209,-18.72111 2.20181,-12.8897 3.47023,-101.85553 2.0525,-105.23457 -8.66682,-20.65749 -31.1401,-75.96148 -38.9455,-99.41014 -5.20075,-15.62384 -30.948127,-65.18414 -26.92089,-78.96666 -4.261297,5.41759 -10.060787,10.86056 -12.714157,16.4149 -0.13924,7.42901 2.62754,29.34543 2.22078,48.92207 3.92822,1.59938 8.947447,4.01013 13.513047,6.99139"
       id="path6659-6-6-1-7-6"
       inkscape:connector-curvature="0"
       sodipodi:nodetypes="cssssssscccc" />
    <path
       style="fill:#dbdbe3;stroke:#000000;stroke-width:1.5;stroke-linecap:butt;stroke-linejoin:miter;stroke-opacity:1;display:inline"
       d="m 156.69808,197.65804 c 6.8136,-0.59552 19.48199,22.1188 23.30343,31.95696 6.06363,-15.52079 10.10609,-52.39612 8.25982,-57.55712 -1.74022,-4.8646 -5.39562,-14.91988 -6.72327,-17.34279 0.78762,15.93203 -15.72104,39.62499 -24.83998,42.94295 z"
       id="path6762-7-2-0-9-6"
       inkscape:connector-curvature="0"
       sodipodi:nodetypes="ccscc" />
    <path
       style="fill:none;stroke:#000000;stroke-width:1.5;stroke-linecap:butt;stroke-linejoin:miter;stroke-opacity:1;display:inline"
       d="m 121.22257,213.41637 -26.884867,20.75326 c 16.702737,11.14113 55.440427,79.96427 74.387627,99.03463"
       id="path6655-8-1-5-4-8"
       inkscape:connector-curvature="0"
       sodipodi:nodetypes="ccc" />
    <g
       id="g9921-2-0-0"
       transform="matrix(-2.274587,0.84923533,0.8244089,2.208092,3100.0619,-1595.894)"
       style="stroke:#000000;stroke-width:0.83605099;display:inline" />
    <g
       id="g4656-2-7"
       transform="matrix(-2.3490673,0.61386419,0.59591857,2.280395,3329.5149,-1275.4529)"
       style="stroke:#000000;stroke-width:0.83605099;display:inline" />
    <g
       id="g4658-5-7"
       transform="matrix(-2.3490673,0.61386419,0.59591857,2.280395,3848.5361,-1384.8881)"
       style="stroke:#000000;stroke-width:0.83605099;display:inline" />
    <g
       transform="matrix(2.8502614,-1.064168,1.064168,2.8502614,-311.10081,562.14319)"
       id="g4678-0-3"
       inkscape:label="駅員: 左手"
       style="stroke-width:0.65736705;display:inline">
      <g
         id="g4680-9-3"
         transform="matrix(-0.7980275,0,0,0.77469807,1298.4706,-272.34221)"
         style="stroke:#000000;stroke-width:0.83605099;display:inline" />
    </g>
    <g
       id="g4682-4-5"
       transform="matrix(-2.274587,0.84923533,0.8244089,2.208092,3100.0621,-1595.8941)"
       style="stroke:#000000;stroke-width:0.83605099;display:inline" />
    <g
       id="g9921-2-0-1"
       transform="matrix(2.5764182,3.2871347,-3.191039,2.5010994,-1305.0398,-5588.9893)"
       style="stroke:#000000;stroke-width:0.48602632;display:inline" />
    <g
       id="g4656-2-4"
       transform="matrix(2.8969034,3.0085104,-2.9205601,2.8122157,-1929.2978,-5324.5504)"
       style="stroke:#000000;stroke-width:0.48602632;display:inline" />
    <g
       id="g4658-5-1"
       transform="matrix(2.8969034,3.0085104,-2.9205601,2.8122157,-2592.8656,-5950.8259)"
       style="stroke:#000000;stroke-width:0.48602632;display:inline" />
    <g
       transform="matrix(-3.2284829,-4.1190744,-4.1190744,3.2284829,1765.2524,638.75973)"
       id="g4678-0-2"
       inkscape:label="駅員: 左手"
       style="stroke-width:0.38215098;display:inline">
      <g
         id="g4680-9-9"
         transform="matrix(-0.7980275,0,0,0.77469807,1298.4706,-272.34221)"
         style="stroke:#000000;stroke-width:0.48602632;display:inline" />
    </g>
    <g
       id="g4682-4-0"
       transform="matrix(2.5764182,3.2871347,-3.191039,2.5010994,-1305.04,-5588.9896)"
       style="stroke:#000000;stroke-width:0.48602632;display:inline" />
    <path
       sodipodi:nodetypes="cssssssscccc"
       inkscape:connector-curvature="0"
       id="path3341-7-0-1-6-8-5-1"
       d="m 190.53236,167.40117 c 13.67723,6.29063 51.6559,20.91157 62.60285,30.46067 14.88631,12.98546 -0.16698,84.71006 -6.3785,106.57966 -5.5141,19.41414 -4.19046,83.08036 -3.45854,116.87051 0.52852,24.39948 -60.7935,36.8892 -71.76938,36.48593 -9.55468,-0.35109 -15.25855,-15.08894 -15.21699,-20.38367 0.24556,-31.28877 -0.3492,-98.82124 1.96226,-107.27359 14.4869,-52.97472 21.61958,-82.90588 23.79145,-121.24736 1.01275,-17.87873 5.36271,-42.24813 0.47191,-53.13685 1.58226,1.3435 6.01804,7.67797 8.65086,11.16478 4.51289,8.65657 11.06911,35.12752 14.5481,45.28103 l -11.13171,7.42625"
       style="fill:#1c1f24;stroke:#000000;stroke-width:1.5;stroke-linecap:butt;stroke-linejoin:miter;stroke-opacity:1;display:inline" />
    <path
       style="fill:none;stroke:#000000;stroke-width:1.5;stroke-linecap:butt;stroke-linejoin:miter;stroke-opacity:1;display:inline"
       d="m 181.65614,211.27054 25.70994,17.71502 c -10.97523,31.14365 -28.33303,62.74332 -45.48315,99.70977"
       id="path6766-7-0-8-3-2"
       inkscape:connector-curvature="0"
       sodipodi:nodetypes="ccc" />
    <path
       style="fill:#1c1f24;stroke:#000000;stroke-width:1.5;stroke-linecap:butt;stroke-linejoin:miter;stroke-opacity:1;display:inline"
       d="m 87.459453,270.02847 c -6.90834,-13.20983 -24.53607,-23.90192 -30.48039,-41.88071 -8.19163,-24.77589 -19.32586,-35.08669 -24.79259,-35.83838 -7.43026,-1.02167 -16.10646,26.22329 -13.15214,49.52747 2.00193,15.79152 5.36902,59.41568 12.824,76.75764 5.18839,12.06936 29.96239,4.70435 34.12519,7.5316 11.21588,7.61749 26.98247,-17.79929 43.145267,-33.28291"
       id="path6661-0-3-5-5"
       inkscape:connector-curvature="0"
       sodipodi:nodetypes="csssssc" />
    <g
       style="display:inline"
       id="g6686"
       transform="translate(3.074543,12.027422)">
      <path
         sodipodi:nodetypes="ccsssssssssssscc"
         inkscape:connector-curvature="0"
         id="path6635-6-9-1-4-4"
         d="m 106.1838,139.89824 -3.11072,-7.63328 c 1.90867,5.39318 27.81348,28.07936 36.72173,33.69763 8.4469,5.32729 24.99123,5.05669 30.54726,-1.96898 4.4949,-5.68382 12.22419,-17.4364 15.53328,-22.56067 3.82561,-5.92414 8.9429,-19.00305 12.16018,-27.28775 2.24092,-5.77045 1.78885,-18.036362 2.87748,-23.695996 0.74119,-3.853294 4.02351,-16.69202 3.97468,-19.613045 -0.12737,-7.618679 0.13983,-25.392706 -5.0909,-38.014464 C 191.9286,13.835801 170.58959,-0.79349162 149.01006,-0.3764795 130.79669,-0.02451107 113.5537,1.5783682 99.405616,19.577654 86.916834,35.46596 84.595473,45.503933 83.822158,60.341018 c -0.826689,15.861078 1.437448,27.444826 4.064129,34.469491 1.784566,4.772621 8.386559,21.974951 9.695711,27.457051 0.917713,3.84302 4.774332,11.87135 5.618152,17.48372 z"
         style="fill:#e9c6af;stroke:none;display:inline" />
      <path
         sodipodi:nodetypes="ssssccccscssscscscssss"
         inkscape:connector-curvature="0"
         id="path5573-4"
         d="m 165.35818,93.546661 c -0.0655,-3.75315 1.91565,-5.861634 2.48836,-8.192731 0.64021,-2.605839 -1.07114,-5.817947 0.36532,-6.291181 0.82167,-0.270686 2.24858,1.276626 3.40053,1.109083 2.32862,-0.338673 4.71588,-2.154188 6.9394,-1.520299 -1.18895,2.447115 -10.32662,10.638713 -6.64424,11.645088 l 22.77396,-5.356774 1.51382,0.712873 c -2.38163,3.396724 -5.05747,10.901733 -9.55248,12.434507 -4.8848,1.665721 -12.50896,-3.881071 -16.11877,-5.464207 -0.48848,0.135246 -0.87114,2.320012 -1.13668,4.603393 -0.3048,2.621388 2.62005,12.715237 3.77829,19.595507 1.01,5.99989 -3.26829,8.21984 -5.06757,10.45153 -0.44919,0.55716 -3.02616,2.46185 -3.72527,5.40117 -0.42471,-3.10011 -1.71134,-4.98893 -3.37322,-4.95405 -1.9758,0.0415 -3.442,1.29311 -4.51338,5.27248 -2.04339,-4.3417 -10.7963,-5.68682 -12.07605,-6.52127 -0.9016,-0.58784 -2.58699,-2.73774 -1.84587,-5.62348 -0.0636,5.62142 5.48456,1.50631 8.34772,0.74946 3.81411,-1.00821 4.67585,3.53301 9.82785,3.58433 5.86665,0.0585 6.38148,-4.79069 6.22608,-8.42851 -0.33524,-7.84743 -1.56585,-20.80281 -1.6078,-23.206919 z"
         style="fill:#deaa87;stroke:none;display:inline" />
      <path
         sodipodi:nodetypes="cscscccsssscssccccsssssssc"
         inkscape:connector-curvature="0"
         id="path3438-5-86-7-0"
         d="m 141.56639,144.07157 c -5.11586,5.54791 1.69883,15.31172 6.82732,20.73515 2.49269,2.63605 5.79564,3.97648 8.32662,4.84023 -3.73886,0.0338 -12.39254,-0.87926 -16.87567,-3.71614 -7.04068,-4.45526 -33.63806,-27.37806 -35.9103,-32.09665 l 2.46823,6.80183 -3.30486,-0.70128 c -0.93262,-5.6177 -2.93772,-9.60284 -3.795291,-13.82034 C 97.215363,115.85011 90.943557,106.37445 87.937646,94.791666 84.274727,80.677216 83.159423,72.897243 83.867324,60.318458 85.120608,38.048675 92.863131,28.50905 99.448764,19.545487 108.38882,7.3773448 124.39914,0.41596809 137.93391,0.11129762 129.12258,2.4388882 125.13846,7.0790591 122.12571,19.120772 c -4.19773,16.778046 0.47506,43.017756 4.11563,46.697782 3.16166,3.19594 8.37144,9.088897 8.78562,12.928132 -5.22335,2.683051 -5.17466,6.61807 -3.60645,7.939277 l 14.96909,3.065539 c 2.38842,-1.470108 1.74365,-5.959413 0.84509,-8.433918 2.53159,0.987678 5.35424,-1.647269 7.8858,-0.659593 2.46223,0.960615 0.62441,4.446312 -0.26459,9.14447 -0.91378,4.829098 -0.93995,10.857099 -2.85476,10.599619 -1.61065,-0.21661 -3.58006,-4.568486 -5.56252,-3.332163 -1.37491,0.857461 -8.17749,6.469633 -10.78608,6.178953 -4.8338,-0.53866 -11.25354,-4.853468 -14.13753,-4.650411 -1.83031,0.128841 -2.80602,8.344361 -2.66207,10.352551 0.36234,5.055 17.21999,27.4172 22.71345,35.12056 z"
         style="fill:#deaa87;stroke:none;display:inline" />
      <path
         sodipodi:nodetypes="cccccccc"
         inkscape:connector-curvature="0"
         id="path3353-4-1-2-2-9"
         d="m 143.63903,85.460431 -11.63569,-0.418265 -7.24305,2.179385 5.98919,5.19348 3.27177,1.507026 8.28662,-0.135398 7.42974,-4.132841 z"
         style="fill:#fefefe;fill-opacity:1;stroke:none;display:inline" />
      <path
         sodipodi:nodetypes="cccccccc"
         inkscape:connector-curvature="0"
         id="path3337-0-4-0-1-4"
         d="m 177.77145,85.315686 -5.47788,4.530931 7.2358,3.709233 4.49125,0.01887 4.05797,-1.140119 6.7626,-7.312705 -3.97274,-1.121959 z"
         style="fill:#fefefe;fill-opacity:1;stroke:none;display:inline" />
      <path
         sodipodi:nodetypes="scccs"
         inkscape:connector-curvature="0"
         id="path3357-1-2-4-7-8"
         d="m 183.1166,90.811355 c -3.64945,-0.0095 -6.01198,-2.414644 -5.89831,-4.954676 l 5.04976,-1.532051 5.62194,-0.190332 c 0.65357,3.279907 -2.32338,6.683465 -4.77339,6.677059 z"
         style="fill:#2b0000;stroke:none;display:inline" />
      <path
         sodipodi:nodetypes="cscc"
         inkscape:connector-curvature="0"
         id="path3357-0-8-6-8"
         d="m 142.38779,85.566545 c 0.40133,2.869707 -1.71814,6.21149 -5.52311,6.069056 -3.79442,-0.142039 -5.41871,-3.610257 -5.44532,-6.154716 z"
         style="fill:#2b0000;stroke:none;display:inline" />
      <path
         sodipodi:nodetypes="sssscsscs"
         inkscape:connector-curvature="0"
         id="path6633-4-0-6-2"
         d="m 167.53891,128.94927 c -1.20747,-0.31743 -5.3336,2.28357 -8.1176,2.1968 -3.77075,-0.11757 -6.96545,-2.32144 -8.24798,-1.78561 -6.68633,2.79354 -17.67911,7.73151 -19.12902,10.18606 -1.46474,2.47962 1.61059,6.92966 3.30956,6.64011 7.55006,-1.28684 14.74034,-3.49314 23.72657,-4.29498 7.61426,-0.67933 17.08402,2.39438 20.59497,2.15297 0.77723,-0.0536 3.23119,-5.40903 2.05754,-6.78894 -2.42518,-2.56475 -9.70609,-7.12651 -14.19404,-8.30641 z"
         style="fill:#000000;stroke:none;display:inline" />
      <path
         sodipodi:nodetypes="csssssssssssssc"
         inkscape:connector-curvature="0"
         id="path6635-6-9-1-4"
         d="m 98.921056,119.51424 c 1.492914,4.17509 2.550854,8.0641 4.200064,12.72413 1.90868,5.39318 27.81348,28.07935 36.72171,33.69761 8.44693,5.3273 24.99126,5.05668 30.54727,-1.96897 4.49488,-5.68381 12.2242,-17.4364 15.53329,-22.56068 3.8256,-5.92413 8.94288,-19.00303 12.16018,-27.28775 2.24092,-5.77044 1.78884,-18.036359 2.87749,-23.695996 0.74119,-3.853284 4.02349,-16.692008 3.97467,-19.613034 -0.12738,-7.618679 0.13981,-25.392705 -5.09091,-38.014462 C 191.97665,13.809204 170.63764,-0.82009168 149.05811,-0.4030769 130.84472,-0.05110837 113.60173,1.5517707 99.453662,19.551057 86.964872,35.439362 84.643511,45.477337 83.870197,60.31442 c -0.82669,15.861078 1.437448,27.444824 4.064128,34.469472 1.784567,4.772648 9.926655,25.953548 11.235802,31.435648 0.917713,3.84301 2.977563,8.34195 3.821383,13.95432"
         style="fill:none;stroke:#000000;stroke-width:1.5;stroke-linecap:butt;stroke-linejoin:miter;stroke-opacity:1;display:inline" />
      <path
         inkscape:connector-curvature="0"
         id="path6643-0-0-5-55"
         d="m 156.78839,80.269908 c 0.8536,2.988126 -0.87447,5.327302 -1.59766,7.040971"
         style="fill:none;stroke:#000000;stroke-width:1.5;stroke-linecap:butt;stroke-linejoin:miter;stroke-opacity:1;display:inline" />
      <path
         sodipodi:nodetypes="ssssss"
         inkscape:connector-curvature="0"
         id="path6645-7-0-4-1"
         d="m 152.46009,83.088558 c -5.75545,0.649046 -9.50426,-2.334593 -15.68986,-4.85851 -4.29009,-1.750483 -21.03989,-4.709216 -18.59639,-4.998493 7.31284,-0.865756 11.84528,0.576942 17.56137,1.810973 4.7804,1.032028 9.98148,3.155264 12.59146,3.843308 6.33709,1.670593 9.38277,3.610742 4.13342,4.202722 z"
         style="fill:#000000;stroke:none;display:inline" />
      <path
         sodipodi:nodetypes="sssss"
         inkscape:connector-curvature="0"
         id="path6647-1-6-2-7"
         d="m 201.68486,71.728353 c 0.96071,-1.167535 -13.93897,1.848836 -21.73847,4.532037 -5.59853,1.926025 -11.62623,5.625452 -9.76136,5.889915 4.51693,0.640572 8.78204,-1.396927 14.17723,-4.409716 6.5555,-3.660748 16.10505,-4.532596 17.3226,-6.012236 z"
         style="fill:#000000;stroke:none;display:inline" />
      <path
         inkscape:connector-curvature="0"
         id="path6649-7-1-0-1"
         d="m 142.74262,120.69846 c -0.88596,2.21483 -0.78472,5.0644 1.84649,5.7701"
         style="fill:none;stroke:#000000;stroke-width:1.5;stroke-linecap:butt;stroke-linejoin:miter;stroke-opacity:1;display:inline" />
      <path
         sodipodi:nodetypes="cssc"
         inkscape:connector-curvature="0"
         id="path3339-7-3-9-1"
         d="m 149.68655,89.620219 c -2.52391,1.303589 -5.82385,4.284962 -8.61319,4.34987 -2.15806,0.05031 -5.45714,0.580847 -8.1649,-0.30494 -2.44313,-0.799201 -5.78299,-4.449091 -7.66072,-6.062598"
         style="fill:none;stroke:#916f6f;stroke-width:1.5;stroke-linecap:butt;stroke-linejoin:miter;stroke-opacity:1;display:inline" />
      <path
         sodipodi:nodetypes="cssc"
         inkscape:connector-curvature="0"
         id="path3337-7-8-7-5"
         d="m 151.13107,90.831441 c -2.68875,-2.247628 -4.26625,-4.314811 -6.7645,-5.145237 -2.10768,-0.700604 -10.95737,-1.104696 -13.1018,-0.542623 -2.47501,0.648767 -5.19924,2.066226 -8.18838,3.004582"
         style="fill:none;stroke:#000000;stroke-width:1.5;stroke-linecap:butt;stroke-linejoin:miter;stroke-opacity:1;display:inline" />
      <path
         sodipodi:nodetypes="cssc"
         inkscape:connector-curvature="0"
         id="path3355-7-9-3-27"
         d="m 194.7778,85.080743 c -1.49342,1.963263 -5.55175,7.100372 -7.73985,7.883471 -2.07834,0.743797 -4.00081,0.646045 -7.01321,0.693108 -1.67118,0.02603 -6.67833,-3.463 -7.78909,-3.822963"
         style="fill:none;stroke:#916f6f;stroke-width:1.5;stroke-linecap:butt;stroke-linejoin:miter;stroke-opacity:1;display:inline" />
      <path
         inkscape:connector-curvature="0"
         id="path3353-3-3-7-6"
         d="m 196.61292,85.89429 c -1.62045,-1.020946 -4.63767,-1.911799 -6.44617,-1.788084 -1.92104,0.131427 -10.50095,-0.164801 -13.19222,1.72246 -2.63174,1.845513 -3.2581,2.554021 -6.08204,5.295749"
         style="fill:none;stroke:#000000;stroke-width:1.5;stroke-linecap:butt;stroke-linejoin:miter;stroke-opacity:1;display:inline" />
      <path
         sodipodi:nodetypes="csssc"
         inkscape:connector-curvature="0"
         id="path6637-1-1-2-1"
         d="m 97.604916,119.45126 c -2.408368,-3.38521 -7.339141,2.11498 -12.3537,-9.69366 -2.165168,-5.09865 -3.052861,-7.40475 -5.862426,-17.380586 -2.558235,-9.083525 -0.870686,-18.937162 2.149697,-21.738953 4.235276,-3.928749 10.066232,3.383671 12.515884,9.071774"
         style="fill:#deaa87;stroke:#000000;stroke-width:1.5;stroke-linecap:butt;stroke-linejoin:miter;stroke-opacity:1;display:inline" />
      <path
         sodipodi:nodetypes="csssssssc"
         inkscape:connector-curvature="0"
         id="path6639-8-8-6-4"
         d="m 84.733952,102.56492 c 2.153045,-1.18211 3.615572,-4.369507 4.006026,-7.809485 0.369953,-3.259527 1.719391,-4.938996 1.440648,-7.366595 -0.640272,-5.577341 -4.047327,-16.035228 -7.447689,-13.715215 -2.965882,2.02358 -2.656626,12.025822 -1.045714,16.832045 1.891891,5.644475 0.964164,13.32414 5.616711,13.98892 2.607808,0.37265 5.067932,6.17865 5.880273,4.39605 0.796285,-1.74731 -2.218891,-4.99006 -2.680651,-6.65994 -0.278192,-1.00605 0.249359,-4.455712 1.045733,-5.146568"
         style="opacity:0.95;fill:none;stroke:#000000;stroke-width:1.5;stroke-linecap:butt;stroke-linejoin:miter;stroke-opacity:1;display:inline" />
      <path
         sodipodi:nodetypes="sssss"
         inkscape:connector-curvature="0"
         id="path6710-3-4-7-2"
         d="m 150.08587,149.37714 c -0.26986,-1.97615 5.00242,-2.48659 9.2805,-2.81115 4.44766,-0.33738 8.19159,0.37531 7.76844,1.86421 -0.83529,2.93889 -3.60526,5.06439 -8.78033,5.50623 -4.31255,0.36819 -7.8652,-1.60516 -8.26861,-4.55929 z"
         style="fill:#deaa87;stroke:none;display:inline" />
      <path
         inkscape:connector-curvature="0"
         id="path6407-3"
         d="m 168.98128,125.90743 c 2.77513,-0.65313 3.61784,-3.65562 2.82647,-6.57894"
         style="fill:none;stroke:#000000;stroke-width:1.5;stroke-linecap:butt;stroke-linejoin:miter;stroke-opacity:1;display:inline" />
      <path
         sodipodi:nodetypes="cc"
         inkscape:connector-curvature="0"
         id="path3412-2"
         d="m 163.49272,126.14326 c 1.09664,0.0237 3.28772,-2.06312 3.64469,-4.06539"
         style="fill:none;stroke:#000000;stroke-width:1.5;stroke-linecap:butt;stroke-linejoin:miter;stroke-opacity:1;display:inline" />
      <path
         sodipodi:nodetypes="cc"
         inkscape:connector-curvature="0"
         id="path6643-0-0-5-55-7"
         d="m 168.8364,79.967492 c 0.46013,1.717156 0.40119,3.639471 0.0597,4.957609"
         style="fill:none;stroke:#000000;stroke-width:1.5;stroke-linecap:butt;stroke-linejoin:miter;stroke-opacity:1;display:inline" />
    </g>
    <path
       style="fill:#1c1f24;stroke:#000000;stroke-width:1.5;stroke-linecap:butt;stroke-linejoin:miter;stroke-opacity:1;display:inline"
       d="m 48.602473,292.86814 c 7.28234,-17.85296 17.31327,-61.20625 27.40675,-70.76913 11.7873,-11.16767 47.944387,-7.04453 57.508407,14.97476 4.21579,9.70604 -5.96619,36.45254 -10.28138,53.62214 -5.02989,20.01332 -22.88294,56.05491 -30.249947,61.26568 -16.9394,11.98158 -24.09034,4.46086 -37.84316,-1.72728 -15.05461,-6.77389 -21.87257,-44.04894 -23.12034,-58.02236"
       id="path3986-55-0"
       inkscape:connector-curvature="0"
       sodipodi:nodetypes="csssssc" />
    <path
       sodipodi:nodetypes="sssss"
       inkscape:connector-curvature="0"
       id="path4950-1-6"
       d="m 130.21565,250.38213 c 1.65914,-15.6719 -8.12983,-26.30636 -27.27063,-26.89391 -16.132197,-0.4952 -31.766447,4.91866 -31.337637,19.07568 0.68207,22.51792 14.13686,37.48303 30.039417,36.09632 18.72028,-1.63242 27.56411,-18.78739 28.56885,-28.27809 z"
       style="fill:#000000;stroke:#000000;stroke-width:1.5;stroke-linecap:butt;stroke-linejoin:miter;stroke-opacity:1;display:inline" />
    <path
       style="fill:#b7c4c8;stroke:#000000;stroke-width:1.5;stroke-linecap:butt;stroke-linejoin:miter;stroke-opacity:1;display:inline"
       d="m 74.078223,238.3316 c 15.02475,33.01214 47.654587,31.1104 56.447047,-1.45201 l -1.27051,13.79412 c -11.45902,34.62542 -46.415627,28.69958 -55.902547,-1.99652 z"
       id="path7512"
       inkscape:connector-curvature="0"
       sodipodi:nodetypes="ccccc" />
    <g
       transform="translate(-0.51900704,0.73340221)"
       style="display:inline"
       id="g7527">
      <path
         sodipodi:nodetypes="sssscsscsscssscssscssssccs"
         inkscape:connector-curvature="0"
         id="path4802"
         d="m 127.23857,181.59955 c -0.94163,-5.0562 -1.10549,-9.31773 -4.23128,-13.39842 -4.70655,-6.14428 -12.09272,-1.46538 -14.19177,0.98228 -1.17053,1.36491 2.13376,10.82523 1.60999,16.51668 -0.37199,4.04232 1.69235,15.31941 -0.67546,16.24856 -4.23057,-8.20242 -5.71811,-10.65759 -7.16257,-12.01402 -3.150773,-2.95872 -12.280651,0.0399 -12.450575,5.68745 -0.136672,4.54199 2.344811,8.9541 2.62163,13.44175 -1.566657,-2.08029 -3.041356,-5.8942 -4.634522,-7.91396 -2.676803,-3.39352 -14.119887,2.96719 -12.137147,8.08016 0.900991,2.32359 1.722322,5.10812 2.999026,8.71588 -3.207999,-1.82948 -7.496694,-2.83016 -9.386688,-2.83065 -3.51646,-9.7e-4 -4.776,3.85228 -4.986596,5.94407 -0.435958,4.33041 4.080993,15.92767 6.695312,18.42496 0.948986,0.90651 2.730378,1.1388 4.166778,1.29737 1.884324,5.65844 6.537029,8.7784 13.874817,7.68918 6.395463,-0.94934 8.622818,-3.77009 16.491895,-6.50705 6.37837,-2.21829 12.1284,3.63439 21.97807,-0.67205 10.0492,-4.39359 11.25036,-11.29936 12.47721,-16.93525 3.76915,-2.74035 6.28944,2.7993 10.43983,0.14465 3.99439,-2.55479 12.766,-2.47853 15.97218,-5.72304 6.68848,-6.76863 2.63094,-9.86703 -3.96333,-9.77782 -10.62746,0.14356 -18.85798,0.0278 -26.02601,-0.57509 -2.38869,-0.20069 -4.6358,-3.00362 -5.69717,-3.86063 -0.6072,-3.79804 -3.41367,-7.79207 -4.25606,-13.75635 0.63279,-3.31846 0.81374,-7.37591 0.47244,-9.20866 z"
         style="fill:#e9c6af;fill-opacity:1;stroke:none;display:inline" />
      <path
         style="fill:#deaa87;fill-opacity:1;stroke:none;display:inline"
         d="m 113.16864,210.31847 c -0.72245,-0.1639 -3.1896,-3.64025 -4.63406,-4.99669 0.67574,3.19166 0.55408,7.69821 -3.45044,9.14917 -3.84707,1.39391 -7.334475,0.26904 -8.990376,-3.08147 0,0 -2.597519,-7.06088 -3.46567,-7.68299 -0.7484,-0.5363 -0.406,3.08517 0.319202,6.09033 -0.590716,-0.52182 -1.542466,-0.93638 -2.607133,-1.54758 1.493548,2.14683 4.467457,7.83034 4.05874,9.62142 -0.876601,3.84144 -6.214095,5.14682 -8.123591,5.06465 -2.594223,-0.11164 -4.692813,-6.78904 -6.731558,-8.30472 1.600078,4.04812 0.600557,8.58081 2.025433,11.87894 -1.688562,-1.37484 -4.374661,-0.95336 -4.747651,-2.55612 0.380156,3.56431 0.792595,5.3208 0.88396,6.73268 1.264005,0.37656 1.768875,1.8371 1.839736,2.44048 0.248981,2.12007 -6.981453,6.12081 -9.839182,2.47886 0.240041,0.88586 0.309375,2.68663 1.551143,3.35085 1.987146,1.06293 5.153449,0.60502 4.51574,1.57375 1.107386,2.05015 4.393081,9.52493 13.142622,7.72982 6.333603,-1.29942 8.62283,-3.77008 16.491895,-6.50692 6.37837,-2.21841 12.1284,3.63427 21.97807,-0.67217 10.0492,-4.39359 11.59457,-10.72561 12.82143,-16.3615 3.76914,-2.74035 6.40417,2.22555 10.55456,-0.42898 3.9944,-2.55491 15.55038,-3.48188 17.34907,-7.67369 1.73544,-4.0445 2.15023,-6.42776 -6.43986,-5.07254 l -16.10984,2.54172 c -5.37662,0.84817 -10.61859,-1.76133 -14.66783,-3.65606 -2.5166,3.44532 -0.56428,0.0351 -2.51549,4.40642 5.79806,10.13515 -2.53485,22.46401 -4.94815,20.52837 -11.63903,-9.33492 1.47763,-18.93383 6.65509,-19.717 -0.33612,-3.15493 5.95848,-1.21063 1.83995,-4.24083 -5.4272,-3.99306 -5.63984,-13.73628 -8.02042,-16.59501 2.17107,-1.59758 4.44608,-12.13587 3.03553,-13.71851 -0.59548,3.51962 -2.63124,5.56898 -4.7448,5.65276 -5.2464,0.20797 -6.47634,-0.91158 -8.56488,-4.29264 -0.47507,3.74261 1.24979,26.85616 -0.46124,27.8652 z"
         id="path4804"
         inkscape:connector-curvature="0"
         sodipodi:nodetypes="ccscsccssccccscscssscssssccscsccscc" />
      <path
         sodipodi:nodetypes="ccscc"
         inkscape:connector-curvature="0"
         id="path4806"
         d="m 75.7899,241.32636 6.066819,-3.80713 c 0.67092,1.41067 -0.06077,3.91377 -1.371871,4.69863 -1.116512,0.66829 -2.487596,1.18576 -3.214911,0.72761 z"
         style="fill:#917c6f;stroke:none;display:inline" />
      <path
         sodipodi:nodetypes="csscsc"
         inkscape:connector-curvature="0"
         id="path4808"
         d="m 80.640524,217.36895 c -0.420488,3.98422 2.628797,9.57804 4.835762,12.17338 1.945384,2.28776 6.151344,0.68257 7.765839,-0.28071 1.563207,-0.93265 6.115588,-3.10482 3.183294,-11.12808 0.737908,4.01374 -6.026816,8.1895 -8.899858,8.04824 -2.645761,-0.13008 -3.607678,-4.31816 -6.885037,-8.81283 z"
         style="fill:#917c6f;stroke:none;display:inline" />
      <path
         sodipodi:nodetypes="cssscsc"
         inkscape:connector-curvature="0"
         id="path4810"
         d="m 93.137432,204.31696 c 0.603355,4.18915 2.289549,8.60268 3.374148,10.89295 1.098436,2.31949 3.97391,7.44354 5.40129,8.39283 2.2322,1.48455 8.21148,-1.49794 8.63239,-3.33021 0.53055,-2.30955 0.91547,-3.76495 -0.0995,-9.62646 0.16616,6.81132 -5.51474,9.12437 -9.04835,8.15019 -3.036248,-0.83703 -5.17878,-9.8366 -8.259928,-14.4793 z"
         style="fill:#917c6f;stroke:none;display:inline" />
      <path
         sodipodi:nodetypes="csscc"
         inkscape:connector-curvature="0"
         id="path4812"
         d="m 112.31454,179.23451 c 0.85359,5.48772 0.66428,13.75083 1.1023,16.90504 0.43469,3.13036 2.13563,5.12483 5.60838,5.27843 1.55312,0.069 4.50138,-2.76115 5.32324,-6.6869 -8.59492,1.0426 -9.8122,-8.67577 -12.03392,-15.49657 z"
         style="fill:#917c6f;stroke:none;display:inline" />
      <path
         sodipodi:nodetypes="cssssssscsscsscssssscc"
         inkscape:connector-curvature="0"
         id="path4814"
         d="m 112.45012,178.68041 c 1.04644,2.00827 1.56834,5.53626 2.51087,9.12115 1.16515,4.4316 3.02748,6.2353 5.05508,6.88459 2.8441,0.91075 5.78256,0.23604 6.62243,-3.51698 0.66573,-2.97482 0.80693,-6.2324 0.63274,-9.35186 -0.16764,-3.00242 -2.29478,-12.28976 -4.32297,-13.79158 -5.61176,-4.15549 -12.62773,-1.473 -14.04679,1.42253 -1.4,2.85656 1.30374,10.43534 1.46839,16.12691 0.11742,4.05757 1.69235,15.31941 -0.67546,16.24856 -4.23056,-8.20242 -5.74725,-10.71823 -7.19171,-12.07467 -3.150773,-2.95871 -12.251504,0.45901 -12.42144,6.10639 -0.13666,4.542 2.344824,8.59582 2.621643,13.08346 -2.78365,-2.97276 -2.554535,-4.92063 -4.553373,-7.83286 -2.445897,-3.56358 -14.089335,0.71114 -12.056023,8.4859 1.229121,4.69972 3.929431,8.98171 2.836765,8.54473 -3.235949,-1.67273 -7.2237,-3.36579 -9.200521,-3.16316 -2.709497,0.27792 -4.988181,4.07185 -5.198788,6.16364 -0.435958,4.33041 4.365063,12.5597 5.505809,15.99037 0.948997,2.85377 3.167776,2.89033 5.316832,3.55075 1.305319,0.40127 5.907292,-1.57105 6.417705,-4.30632 0.473603,-2.53796 -0.344641,-8.30239 -3.697447,-5.70936 -0.715235,-2.78005 -0.677626,-5.18523 -1.524449,-6.89584"
         style="fill:none;stroke:#000000;stroke-width:1.5;stroke-linecap:butt;stroke-linejoin:miter;stroke-opacity:1;display:inline" />
      <path
         sodipodi:nodetypes="cssc"
         inkscape:connector-curvature="0"
         id="path4816"
         d="m 92.278432,201.27515 c 0.909295,2.39186 4.107804,11.88777 5.865859,15.16133 3.127689,5.82362 13.466599,2.22494 12.052529,-6.27658 -0.65194,-3.91946 -5.08794,-16.12667 -6.3447,-18.99037"
         style="fill:none;stroke:#000000;stroke-width:1.5;stroke-linecap:butt;stroke-linejoin:miter;stroke-opacity:1;display:inline" />
      <path
         sodipodi:nodetypes="cssscssssssc"
         inkscape:connector-curvature="0"
         id="path4818"
         d="m 75.248258,240.74195 c 1.329323,2.81685 5.296012,9.39907 14.04554,7.60385 6.333591,-1.29943 8.622818,-3.77009 16.491912,-6.50693 6.37836,-2.21841 12.42482,3.76355 22.21522,-0.67592 5.61114,-2.5445 11.22215,-10.80574 12.44901,-16.44175 3.76914,-2.74035 6.81823,0.63452 11.49558,-0.91292 3.80948,-1.26045 11.35948,-1.95501 14.56566,-5.19964 6.68849,-6.76851 2.11331,-11.00595 -3.92424,-10.01689 -4.17975,0.68464 -9.27434,-0.15603 -14.88395,0.15978 -1.97354,0.11136 -7.79895,-0.0871 -11.13181,-0.45126 -0.77893,-0.0847 -4.23975,-1.12959 -5.49363,-3.45428 -2.58205,-4.78699 -2.91161,-8.89152 -4.19973,-14.40212"
         style="fill:none;stroke:#000000;stroke-width:1.5;stroke-linecap:butt;stroke-linejoin:miter;stroke-opacity:1;display:inline" />
      <path
         sodipodi:nodetypes="cssc"
         inkscape:connector-curvature="0"
         id="path4820"
         d="m 79.355541,213.6707 c 3.799453,7.54901 0.767793,5.6026 6.6463,11.97844 2.205016,2.3915 11.086363,-3.10579 10.594652,-5.99684 -0.881285,-5.1816 -3.20018,-6.41288 -6.194462,-11.82217"
         style="fill:none;stroke:#000000;stroke-width:1.5;stroke-linecap:butt;stroke-linejoin:miter;stroke-opacity:1;display:inline" />
      <path
         sodipodi:nodetypes="ccscc"
         inkscape:connector-curvature="0"
         id="path4822"
         d="m 112.36486,219.79283 c 0.45199,5.89226 -2.05358,12.05324 5.09598,17.33652 -3.83083,0.28445 -6.55591,1.37616 -12.80109,0.87564 -8.662603,-0.69444 -10.798646,-3.81608 -14.359518,-5.95399 8.536779,-2.01771 16.163558,-5.6279 22.064628,-12.25817 z"
         style="fill:#c19171;fill-opacity:1;stroke:none;display:inline" />
    </g>
  </g>
  <g
     inkscape:groupmode="layer"
     id="layer7"
     inkscape:label="枠面"
     style="display:inline"
     sodipodi:insensitive="true">
    <path
       style="fill:#ff0000;stroke:none;display:inline"
       d="m 0,0 0,320 370,0 0,-320 -10,10 0,300 -350,0 0,-300 350,0 10,-10 z"
       id="path21072"
       inkscape:connector-curvature="0"
       sodipodi:nodetypes="ccccccccccc" />
  </g>
</svg>
