<?xml version="1.0" encoding="UTF-8" standalone="no"?>
<!-- Created with Inkscape (http://www.inkscape.org/) -->

<svg
   xmlns:dc="http://purl.org/dc/elements/1.1/"
   xmlns:cc="http://creativecommons.org/ns#"
   xmlns:rdf="http://www.w3.org/1999/02/22-rdf-syntax-ns#"
   xmlns:svg="http://www.w3.org/2000/svg"
   xmlns="http://www.w3.org/2000/svg"
   xmlns:sodipodi="http://sodipodi.sourceforge.net/DTD/sodipodi-0.dtd"
   xmlns:inkscape="http://www.inkscape.org/namespaces/inkscape"
   width="370"
   height="320"
   id="svg2"
   version="1.1"
   inkscape:version="0.48.4 r9939"
   sodipodi:docname="[08.主張].svg"
   inkscape:export-filename="C:\Users\root\Desktop\資料\作業\SANARO\ORG\[01.行動]03..png"
   inkscape:export-xdpi="90"
   inkscape:export-ydpi="90"
   enable-background="new">
  <defs
     id="defs4">
    <inkscape:perspective
       sodipodi:type="inkscape:persp3d"
       inkscape:vp_x="363.49708 : 943.81603 : 1"
       inkscape:vp_y="0 : 1000 : 0"
       inkscape:vp_z="744.09448 : 526.18109 : 1"
       inkscape:persp3d-origin="372.04724 : 350.78739 : 1"
       id="perspective5056" />
    <inkscape:perspective
       id="perspective5056-8"
       inkscape:persp3d-origin="372.04724 : 350.78739 : 1"
       inkscape:vp_z="744.09448 : 526.18109 : 1"
       inkscape:vp_y="0 : 1000 : 0"
       inkscape:vp_x="363.49708 : 943.81603 : 1"
       sodipodi:type="inkscape:persp3d" />
    <inkscape:perspective
       id="perspective5056-5"
       inkscape:persp3d-origin="372.04724 : 350.78739 : 1"
       inkscape:vp_z="744.09448 : 526.18109 : 1"
       inkscape:vp_y="0 : 1000 : 0"
       inkscape:vp_x="363.49708 : 943.81603 : 1"
       sodipodi:type="inkscape:persp3d" />
    <inkscape:perspective
       sodipodi:type="inkscape:persp3d"
       inkscape:vp_x="363.49708 : 943.81603 : 1"
       inkscape:vp_y="0 : 1000 : 0"
       inkscape:vp_z="744.09448 : 526.18109 : 1"
       inkscape:persp3d-origin="372.04724 : 350.78739 : 1"
       id="perspective5056-5-2" />
    <inkscape:perspective
       sodipodi:type="inkscape:persp3d"
       inkscape:vp_x="363.49708 : 943.81603 : 1"
       inkscape:vp_y="0 : 1000 : 0"
       inkscape:vp_z="744.09448 : 526.18109 : 1"
       inkscape:persp3d-origin="372.04724 : 350.78739 : 1"
       id="perspective5056-8-5" />
    <inkscape:perspective
       id="perspective5056-1"
       inkscape:persp3d-origin="372.04724 : 350.78739 : 1"
       inkscape:vp_z="744.09448 : 526.18109 : 1"
       inkscape:vp_y="0 : 1000 : 0"
       inkscape:vp_x="363.49708 : 943.81603 : 1"
       sodipodi:type="inkscape:persp3d" />
    <inkscape:perspective
       sodipodi:type="inkscape:persp3d"
       inkscape:vp_x="363.49708 : 943.81603 : 1"
       inkscape:vp_y="0 : 1000 : 0"
       inkscape:vp_z="744.09448 : 526.18109 : 1"
       inkscape:persp3d-origin="372.04724 : 350.78739 : 1"
       id="perspective5056-5-5" />
    <inkscape:perspective
       id="perspective5056-4"
       inkscape:persp3d-origin="372.04724 : 350.78739 : 1"
       inkscape:vp_z="744.09448 : 526.18109 : 1"
       inkscape:vp_y="0 : 1000 : 0"
       inkscape:vp_x="363.49708 : 943.81603 : 1"
       sodipodi:type="inkscape:persp3d" />
    <inkscape:perspective
       sodipodi:type="inkscape:persp3d"
       inkscape:vp_x="363.49708 : 943.81603 : 1"
       inkscape:vp_y="0 : 1000 : 0"
       inkscape:vp_z="744.09448 : 526.18109 : 1"
       inkscape:persp3d-origin="372.04724 : 350.78739 : 1"
       id="perspective5056-1-2" />
    <inkscape:perspective
       id="perspective5056-8-5-8"
       inkscape:persp3d-origin="372.04724 : 350.78739 : 1"
       inkscape:vp_z="744.09448 : 526.18109 : 1"
       inkscape:vp_y="0 : 1000 : 0"
       inkscape:vp_x="363.49708 : 943.81603 : 1"
       sodipodi:type="inkscape:persp3d" />
    <inkscape:perspective
       id="perspective5056-5-2-8"
       inkscape:persp3d-origin="372.04724 : 350.78739 : 1"
       inkscape:vp_z="744.09448 : 526.18109 : 1"
       inkscape:vp_y="0 : 1000 : 0"
       inkscape:vp_x="363.49708 : 943.81603 : 1"
       sodipodi:type="inkscape:persp3d" />
    <inkscape:perspective
       sodipodi:type="inkscape:persp3d"
       inkscape:vp_x="363.49708 : 943.81603 : 1"
       inkscape:vp_y="0 : 1000 : 0"
       inkscape:vp_z="744.09448 : 526.18109 : 1"
       inkscape:persp3d-origin="372.04724 : 350.78739 : 1"
       id="perspective5056-5-4" />
    <inkscape:perspective
       sodipodi:type="inkscape:persp3d"
       inkscape:vp_x="363.49708 : 943.81603 : 1"
       inkscape:vp_y="0 : 1000 : 0"
       inkscape:vp_z="744.09448 : 526.18109 : 1"
       inkscape:persp3d-origin="372.04724 : 350.78739 : 1"
       id="perspective5056-8-9" />
    <inkscape:perspective
       id="perspective5056-40"
       inkscape:persp3d-origin="372.04724 : 350.78739 : 1"
       inkscape:vp_z="744.09448 : 526.18109 : 1"
       inkscape:vp_y="0 : 1000 : 0"
       inkscape:vp_x="363.49708 : 943.81603 : 1"
       sodipodi:type="inkscape:persp3d" />
    <inkscape:perspective
       sodipodi:type="inkscape:persp3d"
       inkscape:vp_x="363.49708 : 943.81603 : 1"
       inkscape:vp_y="0 : 1000 : 0"
       inkscape:vp_z="744.09448 : 526.18109 : 1"
       inkscape:persp3d-origin="372.04724 : 350.78739 : 1"
       id="perspective5056-1-5" />
    <inkscape:perspective
       id="perspective5056-8-5-4"
       inkscape:persp3d-origin="372.04724 : 350.78739 : 1"
       inkscape:vp_z="744.09448 : 526.18109 : 1"
       inkscape:vp_y="0 : 1000 : 0"
       inkscape:vp_x="363.49708 : 943.81603 : 1"
       sodipodi:type="inkscape:persp3d" />
    <inkscape:perspective
       id="perspective5056-5-2-82"
       inkscape:persp3d-origin="372.04724 : 350.78739 : 1"
       inkscape:vp_z="744.09448 : 526.18109 : 1"
       inkscape:vp_y="0 : 1000 : 0"
       inkscape:vp_x="363.49708 : 943.81603 : 1"
       sodipodi:type="inkscape:persp3d" />
    <inkscape:perspective
       sodipodi:type="inkscape:persp3d"
       inkscape:vp_x="363.49708 : 943.81603 : 1"
       inkscape:vp_y="0 : 1000 : 0"
       inkscape:vp_z="744.09448 : 526.18109 : 1"
       inkscape:persp3d-origin="372.04724 : 350.78739 : 1"
       id="perspective5056-5-8" />
    <inkscape:perspective
       sodipodi:type="inkscape:persp3d"
       inkscape:vp_x="363.49708 : 943.81603 : 1"
       inkscape:vp_y="0 : 1000 : 0"
       inkscape:vp_z="744.09448 : 526.18109 : 1"
       inkscape:persp3d-origin="372.04724 : 350.78739 : 1"
       id="perspective5056-8-4" />
    <inkscape:perspective
       id="perspective5056-409"
       inkscape:persp3d-origin="372.04724 : 350.78739 : 1"
       inkscape:vp_z="744.09448 : 526.18109 : 1"
       inkscape:vp_y="0 : 1000 : 0"
       inkscape:vp_x="363.49708 : 943.81603 : 1"
       sodipodi:type="inkscape:persp3d" />
    <inkscape:perspective
       sodipodi:type="inkscape:persp3d"
       inkscape:vp_x="363.49708 : 943.81603 : 1"
       inkscape:vp_y="0 : 1000 : 0"
       inkscape:vp_z="744.09448 : 526.18109 : 1"
       inkscape:persp3d-origin="372.04724 : 350.78739 : 1"
       id="perspective5056-1-7" />
    <inkscape:perspective
       id="perspective5056-8-5-2"
       inkscape:persp3d-origin="372.04724 : 350.78739 : 1"
       inkscape:vp_z="744.09448 : 526.18109 : 1"
       inkscape:vp_y="0 : 1000 : 0"
       inkscape:vp_x="363.49708 : 943.81603 : 1"
       sodipodi:type="inkscape:persp3d" />
    <inkscape:perspective
       id="perspective5056-5-2-89"
       inkscape:persp3d-origin="372.04724 : 350.78739 : 1"
       inkscape:vp_z="744.09448 : 526.18109 : 1"
       inkscape:vp_y="0 : 1000 : 0"
       inkscape:vp_x="363.49708 : 943.81603 : 1"
       sodipodi:type="inkscape:persp3d" />
    <inkscape:perspective
       sodipodi:type="inkscape:persp3d"
       inkscape:vp_x="363.49708 : 943.81603 : 1"
       inkscape:vp_y="0 : 1000 : 0"
       inkscape:vp_z="744.09448 : 526.18109 : 1"
       inkscape:persp3d-origin="372.04724 : 350.78739 : 1"
       id="perspective5056-5-1" />
    <inkscape:perspective
       sodipodi:type="inkscape:persp3d"
       inkscape:vp_x="363.49708 : 943.81603 : 1"
       inkscape:vp_y="0 : 1000 : 0"
       inkscape:vp_z="744.09448 : 526.18109 : 1"
       inkscape:persp3d-origin="372.04724 : 350.78739 : 1"
       id="perspective5056-8-6" />
    <inkscape:perspective
       id="perspective5056-7"
       inkscape:persp3d-origin="372.04724 : 350.78739 : 1"
       inkscape:vp_z="744.09448 : 526.18109 : 1"
       inkscape:vp_y="0 : 1000 : 0"
       inkscape:vp_x="363.49708 : 943.81603 : 1"
       sodipodi:type="inkscape:persp3d" />
    <inkscape:perspective
       sodipodi:type="inkscape:persp3d"
       inkscape:vp_x="363.49708 : 943.81603 : 1"
       inkscape:vp_y="0 : 1000 : 0"
       inkscape:vp_z="744.09448 : 526.18109 : 1"
       inkscape:persp3d-origin="372.04724 : 350.78739 : 1"
       id="perspective5056-1-1" />
    <inkscape:perspective
       id="perspective5056-8-5-82"
       inkscape:persp3d-origin="372.04724 : 350.78739 : 1"
       inkscape:vp_z="744.09448 : 526.18109 : 1"
       inkscape:vp_y="0 : 1000 : 0"
       inkscape:vp_x="363.49708 : 943.81603 : 1"
       sodipodi:type="inkscape:persp3d" />
    <inkscape:perspective
       id="perspective5056-5-2-1"
       inkscape:persp3d-origin="372.04724 : 350.78739 : 1"
       inkscape:vp_z="744.09448 : 526.18109 : 1"
       inkscape:vp_y="0 : 1000 : 0"
       inkscape:vp_x="363.49708 : 943.81603 : 1"
       sodipodi:type="inkscape:persp3d" />
    <inkscape:perspective
       sodipodi:type="inkscape:persp3d"
       inkscape:vp_x="363.49708 : 943.81603 : 1"
       inkscape:vp_y="0 : 1000 : 0"
       inkscape:vp_z="744.09448 : 526.18109 : 1"
       inkscape:persp3d-origin="372.04724 : 350.78739 : 1"
       id="perspective5056-5-46" />
    <inkscape:perspective
       sodipodi:type="inkscape:persp3d"
       inkscape:vp_x="363.49708 : 943.81603 : 1"
       inkscape:vp_y="0 : 1000 : 0"
       inkscape:vp_z="744.09448 : 526.18109 : 1"
       inkscape:persp3d-origin="372.04724 : 350.78739 : 1"
       id="perspective5056-8-92" />
    <inkscape:perspective
       id="perspective5056-3"
       inkscape:persp3d-origin="372.04724 : 350.78739 : 1"
       inkscape:vp_z="744.09448 : 526.18109 : 1"
       inkscape:vp_y="0 : 1000 : 0"
       inkscape:vp_x="363.49708 : 943.81603 : 1"
       sodipodi:type="inkscape:persp3d" />
  </defs>
  <sodipodi:namedview
     id="base"
     pagecolor="#ffffff"
     bordercolor="#666666"
     borderopacity="1.0"
     inkscape:pageopacity="0.0"
     inkscape:pageshadow="2"
     inkscape:zoom="0.35765116"
     inkscape:cx="-113.26207"
     inkscape:cy="213.29586"
     inkscape:document-units="px"
     inkscape:current-layer="layer3"
     showgrid="false"
     inkscape:window-width="1158"
     inkscape:window-height="696"
     inkscape:window-x="194"
     inkscape:window-y="-4"
     inkscape:window-maximized="0"
     showguides="true"
     inkscape:guide-bbox="true"
     inkscape:snap-grids="false"
     inkscape:snap-to-guides="false"
     showborder="true"
     inkscape:showpageshadow="false"
     fit-margin-top="0"
     fit-margin-left="0"
     fit-margin-right="0"
     fit-margin-bottom="0"
     inkscape:snap-page="false" />
  <metadata
     id="metadata7">
    <rdf:RDF>
      <cc:Work
         rdf:about="">
        <dc:format>image/svg+xml</dc:format>
        <dc:type
           rdf:resource="http://purl.org/dc/dcmitype/StillImage" />
        <dc:title></dc:title>
      </cc:Work>
    </rdf:RDF>
  </metadata>
  <g
     inkscape:groupmode="layer"
     id="layer2"
     inkscape:label="補助線"
     style="display:none"
     sodipodi:insensitive="true">
    <path
       style="fill:none;stroke:#0000ff;stroke-width:1px;stroke-linecap:butt;stroke-linejoin:miter;stroke-opacity:1"
       d="M 10,310 360,10"
       id="path3025"
       inkscape:connector-curvature="0"
       sodipodi:nodetypes="cc" />
    <path
       style="fill:none;stroke:#0000ff;stroke-width:1px;stroke-linecap:butt;stroke-linejoin:miter;stroke-opacity:1"
       d="M 10,10 360,310"
       id="path3027"
       inkscape:connector-curvature="0"
       sodipodi:nodetypes="cc" />
    <path
       style="fill:none;stroke:#ff0000;stroke-width:1px;stroke-linecap:butt;stroke-linejoin:miter;stroke-opacity:1;display:inline"
       d="m 10,0 0,320"
       id="path3006"
       inkscape:connector-curvature="0"
       sodipodi:nodetypes="cc" />
    <path
       style="fill:none;stroke:#ff0000;stroke-width:1px;stroke-linecap:butt;stroke-linejoin:miter;stroke-opacity:1;display:inline"
       d="m 360,0 0,320"
       id="path3010"
       inkscape:connector-curvature="0"
       sodipodi:nodetypes="cc" />
    <path
       style="fill:none;stroke:#ff0000;stroke-width:1px;stroke-linecap:butt;stroke-linejoin:miter;stroke-opacity:1;display:inline"
       d="M 0,9.9999681 370,10"
       id="path3016"
       inkscape:connector-curvature="0" />
    <path
       transform="translate(84.715796,27.711696)"
       style="fill:none;stroke:#ff0000;stroke-width:1px;stroke-linecap:butt;stroke-linejoin:miter;stroke-opacity:1;display:inline"
       d="m -84.715796,282.2883 369.999996,0"
       id="path3018"
       inkscape:connector-curvature="0"
       sodipodi:nodetypes="cc" />
  </g>
  <g
     inkscape:groupmode="layer"
     id="layer3"
     inkscape:label="レイヤー"
     style="display:inline">
    <g
       id="g4895"
       transform="matrix(-0.32574505,0,0,0.32574505,50.123678,130.42892)"
       style="stroke-width:4.60482836">
      <path
         sodipodi:nodetypes="cccccc"
         inkscape:connector-curvature="0"
         id="path4893"
         d="m -313.37547,0.456359 181.5753,-7.0120012 c -8.53318,52.7566872 -5.42598,96.8445772 9.89524,126.5212422 l -193.77075,169.26192 -86.49713,-116.6492 C -376.53298,103.00679 -301.3006,52.585069 -313.37547,0.456359 z"
         style="fill:#deaa87;stroke:#000000;stroke-width:4.60482836" />
      <path
         sodipodi:nodetypes="cccc"
         inkscape:connector-curvature="0"
         id="path4684-5-8"
         d="m -393.47313,185.28432 206.99321,52.22732 -237.9173,353.08382 z"
         style="fill:#dbdee3;stroke:none;display:inline" />
      <path
         sodipodi:nodetypes="cccccc"
         inkscape:connector-curvature="0"
         id="path6770-0-0"
         d="m -343.68318,268.9242 c -34.04248,95.85704 -51.05952,184.10481 -72.36842,279.52472 2.66872,24.33148 19.19958,87.76748 39.48348,113.97141 29.48177,-24.94742 57.51714,-84.87342 57.51714,-84.87342 -0.10392,-101.18395 -13.81906,-194.62516 6.48284,-300.91057 z"
         style="fill:#550000;stroke:#000000;stroke-width:4.60482836;stroke-linecap:butt;stroke-linejoin:miter;stroke-opacity:1;display:inline" />
      <path
         sodipodi:nodetypes="ccccccc"
         inkscape:connector-curvature="0"
         id="path6768-9-9"
         d="m -344.75176,186.76515 c 8.64231,9.17782 30.52401,13.73662 65.97488,7.24757 l 8.95766,22.635 c -8.71784,19.87508 -32.57885,52.98642 -43.18894,65.89656 -10.02945,0.42794 -22.82821,1.82304 -33.39903,-6.6455 -1.46138,-15.62646 -12.0662,-52.60012 -9.80947,-67.20472 z"
         style="fill:#550000;stroke:#000000;stroke-width:4.60482836;stroke-linecap:butt;stroke-linejoin:miter;stroke-opacity:1;display:inline" />
      <path
         sodipodi:nodetypes="ccscsc"
         inkscape:connector-curvature="0"
         id="path6762-7-0"
         d="m -325.31941,191.88848 c -20.66095,1.90697 -40.44111,32.79244 -53.66651,57.47935 3.06082,-41.45876 16.401,-107.92955 35.77858,-163.319575 5.19357,-14.845626 16.95476,-34.00435 22.88582,-46.077799 -6.96834,19.44037 -25.53102,55.087284 -27.21691,84.553124 -1.14173,19.95509 8.2439,53.97714 22.21902,67.3649 z"
         style="fill:#dbdbe3;stroke:#000000;stroke-width:4.60482836;stroke-linecap:butt;stroke-linejoin:miter;stroke-opacity:1;display:inline" />
      <path
         sodipodi:nodetypes="ccsccc"
         inkscape:connector-curvature="0"
         id="path6657-6-0"
         d="m -118.77921,93.283831 c -1.78393,-13.058543 -11.96803,-29.326201 -16.80713,-39.975047 -3.28895,21.012597 -17.77782,71.608576 -71.87363,104.324446 -25.31598,15.31051 -63.66487,24.83815 -107.39187,36.61671 28.8002,23.92897 39.86634,54.34336 61.97653,94.42407 73.82075,-77.71022 102.40925,-135.22303 134.0961,-195.390179 z"
         style="fill:#dbdbe3;stroke:#000000;stroke-width:4.60482836;stroke-linecap:butt;stroke-linejoin:miter;stroke-opacity:1;display:inline" />
    </g>
    <g
       id="g4914"
       transform="matrix(-0.32574505,0,0,0.32574505,50.123678,130.42892)"
       style="stroke-width:4.60482836">
      <path
         sodipodi:nodetypes="cssccccssssccscc"
         inkscape:connector-curvature="0"
         id="path6659-6-9"
         d="m -95.463214,102.38092 c 34.12341,23.15299 144.945263,121.47237 151.704961,141.89152 8.756559,26.45111 -92.628789,248.67206 -91.010549,299.56115 1.69154,53.19606 4.07683,220.07364 10.21537,319.7859 -17.64921,19.63369 -7.68917,8.35501 -26.05696,21.95456 -7.33424,-31.21149 -10.23769,-67.36714 -19.16997,-91.87313 1.0879,30.84666 0.32657,100.6229 -2.5541,101.10443 -77.210868,54.474 -263.192398,50.83219 -277.327198,51.08922 -18.8123,0.34195 -49.54591,-23.48297 -52.72544,-50.97268 -12.49309,-108.01072 -1.0128,-316.78643 3.32863,-326.9796 36.61645,-85.97118 112.73686,-230.43436 147.41547,-281.86182 42.15984,-62.52192 136.35351,-196.700789 123.84096,-228.061409 7.00265,9.151655 26.49935,29.859716 32.744105,43.329999 -7.507135,4.99184 -12.079455,34.4733 -14.978295,45.40918 -8.69786,32.81268 -14.85998,69.69863 -17.14682,104.28532 l -57.86089,9.8396"
         style="fill:#1c1f24;stroke:#000000;stroke-width:4.60482836;stroke-linecap:butt;stroke-linejoin:miter;stroke-opacity:1;display:inline" />
      <path
         sodipodi:nodetypes="ccc"
         inkscape:connector-curvature="0"
         id="path6655-8-7"
         d="m -208.27395,221.23513 48.65278,82.21721 c -77.3035,51.9031 -170.58222,158.69051 -233.85444,267.53705"
         style="fill:none;stroke:#000000;stroke-width:4.60482836;stroke-linecap:butt;stroke-linejoin:miter;stroke-opacity:1;display:inline" />
      <path
         sodipodi:nodetypes="csssc"
         inkscape:connector-curvature="0"
         id="path6661-0-2"
         d="m -143.42648,555.72444 c 27.29856,-87.932 38.92839,-149.51103 75.613915,-226.50304 27.603863,-57.93231 86.057824,-94.4102 109.09597,-87.75079 37.406788,10.81281 41.334672,48.00315 36.800537,120.35011 -3.256199,51.95613 -64.042314,182.35605 -87.9676338,291.75993"
         style="fill:#1c1f24;stroke:#000000;stroke-width:4.60482836;stroke-linecap:butt;stroke-linejoin:miter;stroke-opacity:1;display:inline" />
    </g>
    <g
       id="g4907"
       transform="matrix(-0.32574505,0,0,0.32574505,50.123678,130.42892)"
       style="stroke-width:4.60482836">
      <path
         sodipodi:nodetypes="csssc"
         inkscape:connector-curvature="0"
         id="path10001-9-9-6-2"
         d="m -567.01728,514.3101 c 22.18762,-4.46165 103.46089,-270.87045 120.49909,-317.38297 24.34612,-66.46241 -15.69086,-117.534372 -40.73198,-125.770677 -21.95632,-7.221681 -46.61689,21.134225 -60.70543,65.393987 -25.08101,78.79312 -84.96002,207.52079 -126.38057,304.35768"
         style="fill:#1c1f24;stroke:#000000;stroke-width:4.60482836;stroke-linecap:butt;stroke-linejoin:miter;stroke-opacity:1;display:inline" />
      <path
         sodipodi:nodetypes="ccccsssscsscc"
         inkscape:connector-curvature="0"
         id="path6764-3-06"
         d="m -411.59636,198.89291 -7.7674,-50.31854 c 18.75232,-27.9516 64.22326,-69.910464 71.16929,-80.72082 7.23486,-9.930471 16.29445,-19.032684 20.47763,-22.911248 -27.64494,62.670848 -45.07182,123.732598 -51.62603,212.742698 -6.0319,81.91683 -2.85498,188.58938 10.04099,317.83957 2.08932,20.94031 -6.78921,204.9492 0.0482,303.17189 0.94924,13.6373 -14.7801,36.96756 -34.83609,46.43343 -15.30381,7.22303 -85.01269,-66.38805 -109.61891,-115.27044 -7.23318,-134.83442 9.89724,-295.34347 3.81659,-339.59203 -7.57396,-55.11551 -34.55408,-138.17304 -34.41631,-212.4768 0.14216,-76.67755 25.29569,-179.252231 45.09075,-189.511798 24.84286,-11.206886 131.30286,-13.302447 163.66378,-16.132826"
         style="fill:#1c1f24;stroke:#000000;stroke-width:4.60482836;stroke-linecap:butt;stroke-linejoin:miter;stroke-opacity:1;display:inline" />
      <path
         sodipodi:nodetypes="ccc"
         inkscape:connector-curvature="0"
         id="path6766-7-1"
         d="m -370.36758,185.80677 -72.89277,22.68529 c 12.96671,99.65987 44.20633,266.41053 66.1069,366.07038"
         style="fill:none;stroke:#000000;stroke-width:4.60482836;stroke-linecap:butt;stroke-linejoin:miter;stroke-opacity:1;display:inline" />
    </g>
    <g
       id="g9921-2-0-0-4-1"
       transform="matrix(-1.0773661,0.40224328,0.39048414,1.0458704,2278.3448,-772.76107)"
       style="stroke:#000000;stroke-width:1.32383323;display:inline" />
    <g
       id="g4656-2-7-5-6"
       transform="matrix(-1.1126439,0.29075892,0.28225891,1.080117,2387.0259,-620.98292)"
       style="stroke:#000000;stroke-width:1.32383323;display:inline" />
    <g
       id="g4658-5-7-8-8"
       transform="matrix(-1.1126439,0.29075892,0.28225891,1.080117,2632.8622,-672.81727)"
       style="stroke:#000000;stroke-width:1.32383323;display:inline" />
    <g
       transform="matrix(1.3500363,-0.50404688,0.50404688,1.3500363,662.63547,249.40091)"
       id="g4678-0-3-6-5"
       inkscape:label="駅員: 左手"
       style="stroke-width:1.04089856;display:inline">
      <g
         id="g4680-9-3-1-7"
         transform="matrix(-0.7980275,0,0,0.77469807,1298.4706,-272.34221)"
         style="stroke:#000000;stroke-width:1.32383323;display:inline" />
    </g>
    <g
       id="g4682-4-5-5-6"
       transform="matrix(-1.0773661,0.40224328,0.39048414,1.0458704,2278.3449,-772.76107)"
       style="stroke:#000000;stroke-width:1.32383323;display:inline" />
    <g
       id="g9921-2-0-1-6-2"
       transform="matrix(1.2203295,1.5569628,-1.5114467,1.1846544,191.85283,-2664.1047)"
       style="stroke:#000000;stroke-width:0.76959163;display:inline" />
    <g
       id="g4656-2-4-2-7"
       transform="matrix(1.3721285,1.4249914,-1.3833334,1.3320158,-103.82915,-2538.8522)"
       style="stroke:#000000;stroke-width:0.76959163;display:inline" />
    <g
       id="g4658-5-1-5-7"
       transform="matrix(1.3721285,1.4249914,-1.3833334,1.3320158,-418.13034,-2835.4897)"
       style="stroke:#000000;stroke-width:0.76959163;display:inline" />
    <g
       transform="matrix(-1.5291821,-1.951014,-1.951014,1.5291821,1646.1074,285.69059)"
       id="g4678-0-2-3-9"
       inkscape:label="駅員: 左手"
       style="stroke-width:0.6051116;display:inline">
      <g
         id="g4680-9-9-5-3"
         transform="matrix(-0.7980275,0,0,0.77469807,1298.4706,-272.34221)"
         style="stroke:#000000;stroke-width:0.76959163;display:inline" />
    </g>
    <g
       id="g4682-4-0-6-1"
       transform="matrix(1.2203295,1.5569628,-1.5114467,1.1846544,191.85274,-2664.1047)"
       style="stroke:#000000;stroke-width:0.76959163;display:inline" />
    <path
       style="fill:none;stroke:#000000;stroke-width:1.5;stroke-linecap:butt;stroke-linejoin:miter;stroke-opacity:1"
       d="m 256.1511,169.41201 c 3.13517,-1.97895 8.38759,-18.42501 8.0304,-21.87988 -0.88805,-8.58991 -1.63754,-17.86607 -3.33496,-21.84704 -0.99993,-2.34511 -5.0843,-3.61891 -6.57363,-3.6793 -1.78962,-0.0726 -9.33458,4.10378 -10.79951,5.37742 -1.59989,1.39099 -7.97235,10.01734 -7.66922,11.4624 0.26582,1.26705 2.27151,2.14158 3.36508,1.41511 3.003,-1.99487 5.71059,-5.64756 7.43444,-7.07556 2.90816,-0.31947 6.11719,-1.23803 8.21703,-2.47644 -0.78531,3.88288 1.54731,4.19049 0.83866,7.74269"
       id="path3576"
       inkscape:connector-curvature="0"
       sodipodi:nodetypes="cssssssccc" />
    <path
       style="fill:none;stroke:#000000;stroke-width:1.5;stroke-linecap:butt;stroke-linejoin:miter;stroke-opacity:1"
       d="m 255.44711,138.91355 c 0.22732,-3.8967 1.13035,-17.40613 -0.1941,-20.56632 -0.80192,-1.91341 -4.06045,-5.12063 -4.86329,-5.05649 -4.62273,0.3693 -10.41966,6.45267 -12.34106,9.18693 -1.47137,2.09378 -2.3873,10.10518 -2.23272,11.42293 0.23087,1.96812 2.21303,1.63889 3.73735,0.91481 1.4204,-0.67472 3.62968,-6.42854 3.91179,-8.99593 1.73078,-0.86678 4.9182,-2.44039 6.29071,-3.81369 0.72188,1.8093 -0.67728,10.39612 -0.1207,11.76909"
       id="path3578"
       inkscape:connector-curvature="0"
       sodipodi:nodetypes="csssssccc" />
    <path
       style="fill:none;stroke:#000000;stroke-width:1.5;stroke-linecap:butt;stroke-linejoin:miter;stroke-opacity:1;display:inline"
       d="m 250.47233,114.50548 c -2.5096,-3.35171 -5.55594,-8.44653 -8.09415,-8.24376 -4.62272,0.36924 -10.41965,6.45267 -12.34104,9.18691 -1.47136,2.09378 -1.98695,10.01471 -1.83238,11.33245 0.23087,1.96812 2.01288,1.91038 3.53718,1.18628 1.42039,-0.67471 3.62967,-7.33348 3.9118,-9.90086 1.73076,-0.86678 4.71801,-1.71644 6.09052,-3.08973 0.72187,1.80929 0.73364,3.5602 1.99792,5.18913"
       id="path3578-3"
       inkscape:connector-curvature="0"
       sodipodi:nodetypes="cssssccc" />
    <path
       style="fill:none;stroke:#000000;stroke-width:1.5;stroke-linecap:butt;stroke-linejoin:miter;stroke-opacity:1;display:inline"
       d="m 243.45482,116.85152 c -0.5318,-4.53835 -4.01808,-13.86146 -6.55629,-13.6587 -4.62271,0.36927 -14.19177,2.64559 -16.00249,4.17908 -2.00244,1.69583 -7.34641,10.0286 -7.19183,11.34637 0.23087,1.96813 1.65969,2.93971 3.184,2.21562 1.42038,-0.67471 7.03934,-6.25191 8.20685,-8.51911 1.73077,0.0338 7.57433,0.86172 8.94684,-0.5116 0.72187,1.80929 -0.52147,11.03142 1.42244,13.46713 -0.96148,1.61514 -0.29281,8.99565 -4.90522,8.69706 -2.1599,-0.13982 -4.09407,-3.45148 -4.92842,-4.67036 -0.56812,-3.16252 -5.31035,-6.69169 -8.33145,-8.22949 -1.92628,-0.98051 -4.04522,0.16817 -3.8647,3.04794 0.27162,4.33322 3.63565,7.67943 6.76497,10.44888 1.244,1.78286 3.67928,6.30963 4.84514,9.04208 -0.26998,3.06713 -0.0944,9.92194 1.89293,13.35658 1.72383,2.97933 3.30021,6.54405 5.41126,7.51583"
       id="path3578-3-6"
       inkscape:connector-curvature="0"
       sodipodi:nodetypes="csssscccscssccsc" />
    <g
       id="g4696"
       transform="matrix(0.32574505,0,0,0.32574505,270.35662,184.21616)"
       style="stroke-width:4.60482836">
      <path
         sodipodi:nodetypes="csssssssssssscc"
         inkscape:connector-curvature="0"
         id="path6635-6-9-1-1-7-5-8-0"
         d="m -498.96874,-94.312381 c 15.03683,15.518154 85.70482,66.80169 141.20956,90.3166299 16.57745,7.02314 60.5477,2.43309 72.12416,-18.3623299 10.48361,-18.83229 20.97944,-43.09106 27.61739,-58.25609 8.07035,-18.43746 31.53874,-58.703589 33.1623,-87.797629 0.6146,-11.01159 1.37259,-46.04451 2.7976,-62.84853 0.97028,-11.44091 6.84792,-32.72595 8.30297,-42.78443 2.14458,-14.82319 -3.55151,-31.64351 -4.92012,-45.0858 -2.50338,-24.5879 -6.99724,-54.40416 -12.94917,-71.01187 -14.64715,-40.86983 -46.63655,-72.07259 -89.77899,-89.08356 -62.53845,-24.6589 -160.23436,-10.1626 -202.51537,29.19462 -27.26829,25.38266 -52.44571,53.16466 -64.46788,97.23905 -6.42352,23.54924 -6.95643,117.87265 3.05212,137.01197 6.79983,13.00361 43.38049,85.18657 45.77828,97.94037 z"
         style="fill:#e9c6af;stroke:none;display:inline" />
      <path
         sodipodi:nodetypes="csssccccscsscscsc"
         inkscape:connector-curvature="0"
         id="path5573-3-9-8-0-5"
         d="m -288.19464,-131.42285 c 2.60809,1.61191 11.13573,2.10894 14.96797,-3.86913 4.69296,-7.32074 3.46435,-13.13737 2.37385,-17.85146 -5.9562,-25.74777 -17.51402,-67.23132 -17.51297,-73.70085 5.1e-4,-3.16046 2.97879,-26.22222 16.50579,-26.60031 -2.91632,5.16723 -11.34699,17.59375 -7.08532,24.0174 l 49.77289,-20.11431 4.01504,4.01941 c -0.50233,3.71652 -8.51575,31.15378 -19.32896,35.45484 -7.90753,3.14529 -24.12154,-2.94299 -32.47608,-8.21309 -2.84936,4.29946 3.87673,38.99407 12.77959,64.10589 2.19147,6.18135 2.70948,17.69106 -4.31205,23.26754 -4.21418,3.34688 -10.86772,10.08664 -17.98804,19.43683 2.98557,-8.73299 3.32346,-15.07832 -0.6719,-14.17673 -3.32451,0.75022 -8.5943,3.96437 -10.29097,10.89515 -4.14685,-5.35827 -15.78262,-4.30754 -14.95525,-7.71861 0.82244,-3.39079 13.70887,-7.3459 24.20641,-8.95257 z"
         style="fill:#deaa87;stroke:none;display:inline" />
      <path
         style="fill:#fefefe;fill-opacity:1;stroke:none;display:inline"
         d="m -265.35127,-242.0765 -14.1838,12.65923 19.1378,8.24055 11.03045,-1.18491 10.62696,-4.35246 11.091,-21.04917 -6.0543,-3.54822 -12.26619,1.48529 z"
         id="path3337-0-4-0-1-8-6-9-1"
         inkscape:connector-curvature="0"
         sodipodi:nodetypes="ccccccccc" />
      <path
         sodipodi:nodetypes="csccssscssccscccsssssssscc"
         inkscape:connector-curvature="0"
         id="path3438-5-86-7-3-4-0-4-2"
         d="m -285.55617,-22.155374 c -8.652,14.1263928 -50.7451,28.1909914 -72.1183,18.3731905 C -399.38571,-22.942285 -460.85031,-60.57944 -498.53868,-93.399575 l -41.00567,-24.239435 c -3.02423,-7.84891 -36.14182,-80.59219 -45.73172,-98.04631 -12.40099,-22.57045 -9.08335,-109.29681 -3.03804,-136.90869 9.22487,-42.1345 42.36441,-77.62004 64.3272,-97.3 23.42242,-20.98788 50.15404,-30.05398 89.45429,-37.72935 -19.35281,10.14999 -48.82326,26.24936 -54.80114,48.572 -14.65588,54.72813 21.19317,127.99402 40.9375,150.83824 13.87425,16.05253 45.33505,33.89943 49.77866,37.95846 l 48.52937,5.10028 c -13.47511,-1.86307 -30.83146,0.7644 -38.49849,6.75858 -9.69817,7.58215 -9.93367,21.39706 -7.90751,24.21972 l 64.31847,-7.11577 c 2.08894,-10.86511 -3.23167,-17.77622 -16.57299,-28.50781 18.35287,2.57825 27.72785,-8.37945 37.42902,-5.98205 3.18213,0.78638 -2.03649,22.01688 -2.04359,26.70631 -0.0153,10.10794 -2.29582,28.77362 -11.90973,21.70194 -9.78266,-7.19581 -13.30782,15.69347 -31.96746,21.28476 -8.80535,2.63849 -34.77808,-5.81168 -40.50372,-4.94441 -8.60906,1.30404 -10.30507,12.13586 -12.71892,22.10815 -1.83188,7.56797 14.15363,55.27703 32.90951,98.264115 11.46502,26.276985 21.30789,53.889795 36.51511,60.43069 15.60178,6.7105964 40.66323,5.9696593 55.48196,-11.925219 z"
         style="fill:#deaa87;stroke:none;display:inline" />
      <path
         style="fill:#fefefe;fill-opacity:1;stroke:none;display:inline"
         d="m -342.21009,-226.857 -18.3922,1.05006 -21.36668,2.53775 -15.55618,6.8803 21.74765,13.92186 27.44614,-4.28641 15.23957,-13.8922 z"
         id="path3353-4-1-2-2-4-9-8-7"
         inkscape:connector-curvature="0"
         sodipodi:nodetypes="cccccccc" />
      <path
         sodipodi:nodetypes="sccs"
         inkscape:connector-curvature="0"
         id="path3357-1-2-4-7-5-3-8-6"
         d="m -366.87064,-207.89466 c -8.58881,0.80209 -14.08969,-8.03197 -15.0647,-15.38359 l 29.08193,-3.7185 c 0.63521,10.49601 -5.44002,18.30108 -14.01723,19.10209 z"
         style="fill:#2b0000;stroke:none;display:inline" />
      <path
         sodipodi:nodetypes="csccc"
         inkscape:connector-curvature="0"
         id="path3357-0-8-6-7-0-2-0"
         d="m -246.61201,-248.26783 c 0.33524,8.56862 -1.79878,18.04465 -8.66577,20.3457 -7.8757,2.63905 -15.79821,-2.52919 -16.66202,-7.46015 l 9.01834,-7.83005 z"
         style="fill:#2b0000;stroke:none;display:inline" />
      <path
         sodipodi:nodetypes="csccc"
         inkscape:connector-curvature="0"
         id="path6629-0-6-3-5-0-4-2"
         d="m -280.28911,-257.95314 c -1.22542,8.98065 -8.11125,25.6408 -7.83812,31.91902 0.491,11.28615 16.8999,66.73341 18.73631,72.48299 m -17.8628,21.59588 c -6.3793,2.26152 -20.43785,4.21747 -25.43797,9.2965"
         style="fill:none;stroke:#000000;stroke-width:4.60482836;stroke-linecap:butt;stroke-linejoin:miter;stroke-opacity:1;display:inline" />
      <path
         sodipodi:nodetypes="ssssssscs"
         inkscape:connector-curvature="0"
         id="path6633-4-0-6-4-8-5-4"
         d="m -282.80576,-123.58007 c -3.16951,-1.83803 -5.19647,4.91035 -13.34432,6.11484 -11.03562,1.63107 -15.05606,-2.93825 -18.7514,-1.11793 -15.59586,7.68429 -52.35801,28.357682 -55.37305,36.218962 -3.04607,7.941521 -0.96621,20.951312 3.83642,19.221502 15.47593,-5.574125 49.78566,-20.611856 65.53468,-22.917316 22.28364,-3.262069 31.28939,0.462438 41.39221,-2.071816 2.23653,-0.560909 6.90221,-18.021032 2.80734,-21.400692 -3.62767,-6.78625 -21.27907,-11.25069 -26.10188,-14.04755 z"
         style="fill:#000000;stroke:none;display:inline" />
      <path
         sodipodi:nodetypes="csssssssssssssc"
         inkscape:connector-curvature="0"
         id="path6635-6-9-1-1-7-5-8"
         d="m -518.23202,-142.369 c 3.4177,13.86712 12.74665,36.67737 19.3376,48.258454 5.68133,9.982762 85.70482,66.801689 141.20956,90.316621 16.57745,7.0231418 60.5477,2.433093 72.12416,-18.362325 10.48361,-18.832289 20.97944,-43.09106 27.61739,-58.256087 8.07035,-18.437467 31.53875,-58.703593 33.16231,-87.797633 0.6146,-11.01159 2.70028,-48.32055 2.60793,-62.08985 -0.077,-11.48173 7.03759,-33.48463 8.49264,-43.54311 2.14458,-14.82319 -3.55151,-31.64351 -4.92012,-45.0858 -2.50338,-24.5879 -6.99724,-54.40416 -12.94917,-71.01187 -14.64716,-40.86983 -46.63656,-72.07259 -89.779,-89.08356 -62.53845,-24.6589 -160.34831,-10.27655 -202.62932,29.08067 -27.26829,25.38266 -52.33176,53.27861 -64.35393,97.353 -6.42352,23.54924 -6.95643,117.87265 3.05212,137.01197 6.79983,13.00361 42.02617,86.23508 45.82197,98.98888"
         style="fill:none;stroke:#000000;stroke-width:4.60482836;stroke-linecap:butt;stroke-linejoin:miter;stroke-opacity:1;display:inline" />
      <path
         sodipodi:nodetypes="cc"
         inkscape:connector-curvature="0"
         id="path6643-0-0-5-2-6-1-6"
         d="m -312.29748,-256.2834 c 0.66416,4.98311 0.42967,13.47582 -1.61471,18.816"
         style="fill:none;stroke:#000000;stroke-width:4.60482836;stroke-linecap:butt;stroke-linejoin:miter;stroke-opacity:1;display:inline" />
      <path
         sodipodi:nodetypes="ssssss"
         inkscape:connector-curvature="0"
         id="path6645-7-0-4-0-3-7-5"
         d="m -328.07981,-238.92457 c -13.30532,2.29403 -23.65057,-5.38188 -46.76335,-7.01002 -18.12882,-1.27705 -54.43387,1.88146 -47.11512,-0.53957 13.60397,-4.50017 28.7825,-5.07297 48.00362,-5.10201 11.4359,-0.0173 21.84987,2.04383 34.23709,2.94315 10.09159,0.73265 36.67342,5.39194 11.63776,9.70845 z"
         style="fill:#000000;stroke:none;display:inline" />
      <path
         sodipodi:nodetypes="sssss"
         inkscape:connector-curvature="0"
         id="path6647-1-6-2-0-5-1-0"
         d="m -215.59503,-285.13197 c -3.66036,-1.22749 -27.18546,8.80668 -36.60191,13.41759 -11.04998,5.41078 -31.93181,19.69011 -27.45711,21.11173 13.33587,4.23694 19.47228,-7.21618 30.27121,-16.38798 10.74496,-9.12597 38.38077,-16.60111 33.78781,-18.14134 z"
         style="fill:#000000;stroke:none;display:inline" />
      <path
         sodipodi:nodetypes="cc"
         inkscape:connector-curvature="0"
         id="path6649-7-1-0-1-6-1-9"
         d="m -334.77678,-146.95278 c -2.39874,6.64432 -2.89193,19.46621 6.14891,22.54185"
         style="fill:none;stroke:#000000;stroke-width:4.60482836;stroke-linecap:butt;stroke-linejoin:miter;stroke-opacity:1;display:inline" />
      <path
         sodipodi:nodetypes="cssc"
         inkscape:connector-curvature="0"
         id="path3339-7-3-9-4-5-5-0"
         d="m -332.35952,-221.11493 c -4.29343,3.09732 -11.34486,13.384 -18.01533,14.93716 -8.96733,2.08796 -16.78781,3.68624 -24.15573,3.73415 -6.98991,0.0455 -17.25922,-10.02264 -24.29797,-13.33051"
         style="fill:none;stroke:#916f6f;stroke-width:4.60482836;stroke-linecap:butt;stroke-linejoin:miter;stroke-opacity:1;display:inline" />
      <path
         sodipodi:nodetypes="cssc"
         inkscape:connector-curvature="0"
         id="path3337-7-8-7-6-8-2-0"
         d="m -330.24723,-219.02547 c -3.83281,-2.40695 -8.16573,-7.02835 -13.34511,-7.72314 -6.66238,-0.89372 -22.70021,0.72319 -36.53037,3.253 -6.47781,1.18492 -14.31842,4.85321 -22.48227,9.31837"
         style="fill:none;stroke:#000000;stroke-width:4.60482836;stroke-linecap:butt;stroke-linejoin:miter;stroke-opacity:1;display:inline" />
      <path
         sodipodi:nodetypes="cssc"
         inkscape:connector-curvature="0"
         id="path3355-7-9-3-0-3-7-6"
         d="m -227.64233,-248.06361 c -2.46312,5.21228 -8.71174,20.22365 -12.54372,21.9479 -2.60637,1.17277 -11.60527,5.47116 -20.34482,5.08734 -2.42223,-0.10649 -17.81554,-7.28757 -19.21886,-8.72246"
         style="fill:none;stroke:#916f6f;stroke-width:4.60482836;stroke-linecap:butt;stroke-linejoin:miter;stroke-opacity:1;display:inline" />
      <path
         sodipodi:nodetypes="cssc"
         inkscape:connector-curvature="0"
         id="path3353-3-3-7-7-9-6-1"
         d="m -225.02758,-245.50978 c -3.2675,-2.62084 -5.42736,-6.35601 -9.55253,-5.99184 -5.58482,0.49302 -21.53138,5.27517 -28.73631,8.90703 -4.03233,2.03262 -12.61662,9.65503 -18.90369,16.13633"
         style="fill:none;stroke:#000000;stroke-width:4.60482836;stroke-linecap:butt;stroke-linejoin:miter;stroke-opacity:1;display:inline" />
      <path
         sodipodi:nodetypes="csssc"
         inkscape:connector-curvature="0"
         id="path6637-1-1-2-1-4-1-3"
         d="m -524.55156,-149.27624 c -6.35932,-10.20612 -33.06124,6.0006 -41.12263,-18.4414 -5.11571,-15.51093 -12.61345,-26.13045 -16.57666,-57.07914 -3.93,-30.68964 4.64354,-47.55898 13.02499,-51.67048 14.24315,-6.98679 25.44526,0.7781 34.99795,9.61318"
         style="fill:#deaa87;stroke:#000000;stroke-width:4.60482836;stroke-linecap:butt;stroke-linejoin:miter;stroke-opacity:1;display:inline" />
      <path
         sodipodi:nodetypes="csssssssc"
         inkscape:connector-curvature="0"
         id="path6639-8-8-6-7-8-4-8"
         d="m -556.11206,-187.64306 c 3.50978,-7.42845 13.70114,-15.14096 15.87235,-25.76771 2.05734,-10.06928 5.01704,-20.30098 2.56815,-27.01789 -3.70438,-10.16022 -17.14223,-30.60627 -24.81951,-29.23997 -6.15657,1.09565 -10.94801,11.21767 -12.72208,21.95301 -4.34855,26.31391 9.33078,60.8407 23.29518,62.46859 7.82708,0.91243 18.94861,17.62085 21.92961,12.05936 2.922,-5.45179 -5.32402,-15.16459 -6.25143,-20.26439 -0.55883,-3.07257 6.52833,-13.8999 7.32057,-21.82361"
         style="opacity:0.95;fill:none;stroke:#000000;stroke-width:4.60482836;stroke-linecap:butt;stroke-linejoin:miter;stroke-opacity:1;display:inline" />
      <path
         sodipodi:nodetypes="sssss"
         inkscape:connector-curvature="0"
         id="path6710-3-4-7-4-0-6-2-4"
         d="m -329.95571,-61.634206 c -1.55495,-5.005585 12.19753,-9.187998 23.39454,-12.348169 11.64074,-3.285343 21.86351,-3.452505 21.37493,0.657625 -0.96434,8.113076 -7.40057,15.152224 -20.92433,19.103287 -11.2698,3.292553 -21.52113,0.07 -23.84514,-7.412743 z"
         style="fill:#deaa87;stroke:none;display:inline" />
      <path
         sodipodi:nodetypes="cc"
         inkscape:connector-curvature="0"
         id="path4597"
         d="m -264.27095,-154.47435 c 3.42321,13.10977 -0.19462,18.17644 -4.50926,23.54836"
         style="fill:none;stroke:#916f6f;stroke-width:4.60482836;stroke-linecap:butt;stroke-linejoin:miter;stroke-opacity:1" />
    </g>
    <g
       id="g4720"
       transform="matrix(0.32574505,0,0,0.32574505,245.83653,78.51915)"
       style="stroke-width:4.60482836">
      <path
         sodipodi:nodetypes="cssccsssscc"
         inkscape:connector-curvature="0"
         id="path6627-9-63"
         d="m 424.82173,-410.4917 c -7.34697,-1.3322 -43.05253,8.25228 -57.07654,12.88087 -9.94049,3.28092 -20.02638,6.22404 -30.4014,4.83163 -25.78412,-3.46042 -72.80638,5.92443 -99.58342,9.97367 -3.25829,5.63149 -4.33263,7.91118 -4.81149,11.53505 24.19307,15.01999 48.42698,23.58386 66.355,25.7763 13.35733,1.63339 33.49267,-16.80752 39.58221,-21.84535 3.36736,-2.78583 14.9374,-4.68073 17.99956,-3.02614 6.73693,3.64017 18.54255,19.33675 31.02708,15.15591 10.07241,-3.373 27.68667,-19.97248 35.78533,-35.22629 0.96563,-3.48187 1.56568,-13.72364 1.12367,-20.05565 z"
         style="opacity:0.95;fill:#280b0b;stroke:none;display:inline" />
      <path
         sodipodi:nodetypes="csssscc"
         inkscape:connector-curvature="0"
         id="path6641-9-6"
         d="m 239.68197,-382.47763 -113.38084,-32.84396 c -25.4237,-7.36468 -37.763335,34.77405 -41.183325,58.15928 -1.7303,11.83141 14.77095,19.42034 18.756405,3.21538 3.99135,-16.22875 -0.0765,-61.18301 20.42913,-53.91016 l 112.8292,40.01683 z"
         style="opacity:0.95;fill:#241c1c;stroke:none;display:inline" />
    </g>
  </g>
  <g
     inkscape:groupmode="layer"
     id="layer7"
     inkscape:label="枠面"
     style="display:inline"
     sodipodi:insensitive="true">
    <path
       style="fill:#ffffff;stroke:none;display:inline"
       d="m 0,0 0,320 370,0 0,-320 -10,10 0,300 -350,0 0,-300 350,0 10,-10 z"
       id="path21072"
       inkscape:connector-curvature="0"
       sodipodi:nodetypes="ccccccccccc" />
  </g>
</svg>
