<?xml version="1.0" encoding="UTF-8" standalone="no"?>
<!-- Created with Inkscape (http://www.inkscape.org/) -->

<svg
   xmlns:dc="http://purl.org/dc/elements/1.1/"
   xmlns:cc="http://creativecommons.org/ns#"
   xmlns:rdf="http://www.w3.org/1999/02/22-rdf-syntax-ns#"
   xmlns:svg="http://www.w3.org/2000/svg"
   xmlns="http://www.w3.org/2000/svg"
   xmlns:sodipodi="http://sodipodi.sourceforge.net/DTD/sodipodi-0.dtd"
   xmlns:inkscape="http://www.inkscape.org/namespaces/inkscape"
   width="370"
   height="320"
   id="svg2"
   version="1.1"
   inkscape:version="0.92.3 (2405546, 2018-03-11)"
   sodipodi:docname="[08]主張.svg"
   inkscape:export-filename="C:\Users\zhen-\Desktop\資料\臨時\HOSHI\08.png"
   inkscape:export-xdpi="96"
   inkscape:export-ydpi="96"
   enable-background="new">
  <defs
     id="defs4">
    <inkscape:perspective
       sodipodi:type="inkscape:persp3d"
       inkscape:vp_x="363.49708 : 943.81603 : 1"
       inkscape:vp_y="0 : 1000 : 0"
       inkscape:vp_z="744.09448 : 526.18109 : 1"
       inkscape:persp3d-origin="372.04724 : 350.78739 : 1"
       id="perspective5056" />
    <inkscape:perspective
       id="perspective5056-8"
       inkscape:persp3d-origin="372.04724 : 350.78739 : 1"
       inkscape:vp_z="744.09448 : 526.18109 : 1"
       inkscape:vp_y="0 : 1000 : 0"
       inkscape:vp_x="363.49708 : 943.81603 : 1"
       sodipodi:type="inkscape:persp3d" />
    <inkscape:perspective
       id="perspective5056-5"
       inkscape:persp3d-origin="372.04724 : 350.78739 : 1"
       inkscape:vp_z="744.09448 : 526.18109 : 1"
       inkscape:vp_y="0 : 1000 : 0"
       inkscape:vp_x="363.49708 : 943.81603 : 1"
       sodipodi:type="inkscape:persp3d" />
    <inkscape:perspective
       sodipodi:type="inkscape:persp3d"
       inkscape:vp_x="363.49708 : 943.81603 : 1"
       inkscape:vp_y="0 : 1000 : 0"
       inkscape:vp_z="744.09448 : 526.18109 : 1"
       inkscape:persp3d-origin="372.04724 : 350.78739 : 1"
       id="perspective5056-5-2" />
    <inkscape:perspective
       sodipodi:type="inkscape:persp3d"
       inkscape:vp_x="363.49708 : 943.81603 : 1"
       inkscape:vp_y="0 : 1000 : 0"
       inkscape:vp_z="744.09448 : 526.18109 : 1"
       inkscape:persp3d-origin="372.04724 : 350.78739 : 1"
       id="perspective5056-8-5" />
    <inkscape:perspective
       id="perspective5056-1"
       inkscape:persp3d-origin="372.04724 : 350.78739 : 1"
       inkscape:vp_z="744.09448 : 526.18109 : 1"
       inkscape:vp_y="0 : 1000 : 0"
       inkscape:vp_x="363.49708 : 943.81603 : 1"
       sodipodi:type="inkscape:persp3d" />
    <inkscape:perspective
       sodipodi:type="inkscape:persp3d"
       inkscape:vp_x="363.49708 : 943.81603 : 1"
       inkscape:vp_y="0 : 1000 : 0"
       inkscape:vp_z="744.09448 : 526.18109 : 1"
       inkscape:persp3d-origin="372.04724 : 350.78739 : 1"
       id="perspective5056-5-5" />
    <inkscape:perspective
       id="perspective5056-4"
       inkscape:persp3d-origin="372.04724 : 350.78739 : 1"
       inkscape:vp_z="744.09448 : 526.18109 : 1"
       inkscape:vp_y="0 : 1000 : 0"
       inkscape:vp_x="363.49708 : 943.81603 : 1"
       sodipodi:type="inkscape:persp3d" />
    <inkscape:perspective
       sodipodi:type="inkscape:persp3d"
       inkscape:vp_x="363.49708 : 943.81603 : 1"
       inkscape:vp_y="0 : 1000 : 0"
       inkscape:vp_z="744.09448 : 526.18109 : 1"
       inkscape:persp3d-origin="372.04724 : 350.78739 : 1"
       id="perspective5056-1-2" />
    <inkscape:perspective
       id="perspective5056-8-5-8"
       inkscape:persp3d-origin="372.04724 : 350.78739 : 1"
       inkscape:vp_z="744.09448 : 526.18109 : 1"
       inkscape:vp_y="0 : 1000 : 0"
       inkscape:vp_x="363.49708 : 943.81603 : 1"
       sodipodi:type="inkscape:persp3d" />
    <inkscape:perspective
       id="perspective5056-5-2-8"
       inkscape:persp3d-origin="372.04724 : 350.78739 : 1"
       inkscape:vp_z="744.09448 : 526.18109 : 1"
       inkscape:vp_y="0 : 1000 : 0"
       inkscape:vp_x="363.49708 : 943.81603 : 1"
       sodipodi:type="inkscape:persp3d" />
    <inkscape:perspective
       sodipodi:type="inkscape:persp3d"
       inkscape:vp_x="363.49708 : 943.81603 : 1"
       inkscape:vp_y="0 : 1000 : 0"
       inkscape:vp_z="744.09448 : 526.18109 : 1"
       inkscape:persp3d-origin="372.04724 : 350.78739 : 1"
       id="perspective5056-5-4" />
    <inkscape:perspective
       sodipodi:type="inkscape:persp3d"
       inkscape:vp_x="363.49708 : 943.81603 : 1"
       inkscape:vp_y="0 : 1000 : 0"
       inkscape:vp_z="744.09448 : 526.18109 : 1"
       inkscape:persp3d-origin="372.04724 : 350.78739 : 1"
       id="perspective5056-8-9" />
    <inkscape:perspective
       id="perspective5056-40"
       inkscape:persp3d-origin="372.04724 : 350.78739 : 1"
       inkscape:vp_z="744.09448 : 526.18109 : 1"
       inkscape:vp_y="0 : 1000 : 0"
       inkscape:vp_x="363.49708 : 943.81603 : 1"
       sodipodi:type="inkscape:persp3d" />
    <inkscape:perspective
       sodipodi:type="inkscape:persp3d"
       inkscape:vp_x="363.49708 : 943.81603 : 1"
       inkscape:vp_y="0 : 1000 : 0"
       inkscape:vp_z="744.09448 : 526.18109 : 1"
       inkscape:persp3d-origin="372.04724 : 350.78739 : 1"
       id="perspective5056-1-5" />
    <inkscape:perspective
       id="perspective5056-8-5-4"
       inkscape:persp3d-origin="372.04724 : 350.78739 : 1"
       inkscape:vp_z="744.09448 : 526.18109 : 1"
       inkscape:vp_y="0 : 1000 : 0"
       inkscape:vp_x="363.49708 : 943.81603 : 1"
       sodipodi:type="inkscape:persp3d" />
    <inkscape:perspective
       id="perspective5056-5-2-82"
       inkscape:persp3d-origin="372.04724 : 350.78739 : 1"
       inkscape:vp_z="744.09448 : 526.18109 : 1"
       inkscape:vp_y="0 : 1000 : 0"
       inkscape:vp_x="363.49708 : 943.81603 : 1"
       sodipodi:type="inkscape:persp3d" />
    <inkscape:perspective
       sodipodi:type="inkscape:persp3d"
       inkscape:vp_x="363.49708 : 943.81603 : 1"
       inkscape:vp_y="0 : 1000 : 0"
       inkscape:vp_z="744.09448 : 526.18109 : 1"
       inkscape:persp3d-origin="372.04724 : 350.78739 : 1"
       id="perspective5056-5-8" />
    <inkscape:perspective
       sodipodi:type="inkscape:persp3d"
       inkscape:vp_x="363.49708 : 943.81603 : 1"
       inkscape:vp_y="0 : 1000 : 0"
       inkscape:vp_z="744.09448 : 526.18109 : 1"
       inkscape:persp3d-origin="372.04724 : 350.78739 : 1"
       id="perspective5056-8-4" />
    <inkscape:perspective
       id="perspective5056-409"
       inkscape:persp3d-origin="372.04724 : 350.78739 : 1"
       inkscape:vp_z="744.09448 : 526.18109 : 1"
       inkscape:vp_y="0 : 1000 : 0"
       inkscape:vp_x="363.49708 : 943.81603 : 1"
       sodipodi:type="inkscape:persp3d" />
    <inkscape:perspective
       sodipodi:type="inkscape:persp3d"
       inkscape:vp_x="363.49708 : 943.81603 : 1"
       inkscape:vp_y="0 : 1000 : 0"
       inkscape:vp_z="744.09448 : 526.18109 : 1"
       inkscape:persp3d-origin="372.04724 : 350.78739 : 1"
       id="perspective5056-1-7" />
    <inkscape:perspective
       id="perspective5056-8-5-2"
       inkscape:persp3d-origin="372.04724 : 350.78739 : 1"
       inkscape:vp_z="744.09448 : 526.18109 : 1"
       inkscape:vp_y="0 : 1000 : 0"
       inkscape:vp_x="363.49708 : 943.81603 : 1"
       sodipodi:type="inkscape:persp3d" />
    <inkscape:perspective
       id="perspective5056-5-2-89"
       inkscape:persp3d-origin="372.04724 : 350.78739 : 1"
       inkscape:vp_z="744.09448 : 526.18109 : 1"
       inkscape:vp_y="0 : 1000 : 0"
       inkscape:vp_x="363.49708 : 943.81603 : 1"
       sodipodi:type="inkscape:persp3d" />
    <inkscape:perspective
       sodipodi:type="inkscape:persp3d"
       inkscape:vp_x="363.49708 : 943.81603 : 1"
       inkscape:vp_y="0 : 1000 : 0"
       inkscape:vp_z="744.09448 : 526.18109 : 1"
       inkscape:persp3d-origin="372.04724 : 350.78739 : 1"
       id="perspective5056-5-1" />
    <inkscape:perspective
       sodipodi:type="inkscape:persp3d"
       inkscape:vp_x="363.49708 : 943.81603 : 1"
       inkscape:vp_y="0 : 1000 : 0"
       inkscape:vp_z="744.09448 : 526.18109 : 1"
       inkscape:persp3d-origin="372.04724 : 350.78739 : 1"
       id="perspective5056-8-6" />
    <inkscape:perspective
       id="perspective5056-7"
       inkscape:persp3d-origin="372.04724 : 350.78739 : 1"
       inkscape:vp_z="744.09448 : 526.18109 : 1"
       inkscape:vp_y="0 : 1000 : 0"
       inkscape:vp_x="363.49708 : 943.81603 : 1"
       sodipodi:type="inkscape:persp3d" />
    <inkscape:perspective
       sodipodi:type="inkscape:persp3d"
       inkscape:vp_x="363.49708 : 943.81603 : 1"
       inkscape:vp_y="0 : 1000 : 0"
       inkscape:vp_z="744.09448 : 526.18109 : 1"
       inkscape:persp3d-origin="372.04724 : 350.78739 : 1"
       id="perspective5056-1-1" />
    <inkscape:perspective
       id="perspective5056-8-5-82"
       inkscape:persp3d-origin="372.04724 : 350.78739 : 1"
       inkscape:vp_z="744.09448 : 526.18109 : 1"
       inkscape:vp_y="0 : 1000 : 0"
       inkscape:vp_x="363.49708 : 943.81603 : 1"
       sodipodi:type="inkscape:persp3d" />
    <inkscape:perspective
       id="perspective5056-5-2-1"
       inkscape:persp3d-origin="372.04724 : 350.78739 : 1"
       inkscape:vp_z="744.09448 : 526.18109 : 1"
       inkscape:vp_y="0 : 1000 : 0"
       inkscape:vp_x="363.49708 : 943.81603 : 1"
       sodipodi:type="inkscape:persp3d" />
    <inkscape:perspective
       sodipodi:type="inkscape:persp3d"
       inkscape:vp_x="363.49708 : 943.81603 : 1"
       inkscape:vp_y="0 : 1000 : 0"
       inkscape:vp_z="744.09448 : 526.18109 : 1"
       inkscape:persp3d-origin="372.04724 : 350.78739 : 1"
       id="perspective5056-5-46" />
    <inkscape:perspective
       sodipodi:type="inkscape:persp3d"
       inkscape:vp_x="363.49708 : 943.81603 : 1"
       inkscape:vp_y="0 : 1000 : 0"
       inkscape:vp_z="744.09448 : 526.18109 : 1"
       inkscape:persp3d-origin="372.04724 : 350.78739 : 1"
       id="perspective5056-8-92" />
    <inkscape:perspective
       id="perspective5056-3"
       inkscape:persp3d-origin="372.04724 : 350.78739 : 1"
       inkscape:vp_z="744.09448 : 526.18109 : 1"
       inkscape:vp_y="0 : 1000 : 0"
       inkscape:vp_x="363.49708 : 943.81603 : 1"
       sodipodi:type="inkscape:persp3d" />
  </defs>
  <sodipodi:namedview
     id="base"
     pagecolor="#ffffff"
     bordercolor="#666666"
     borderopacity="1.0"
     inkscape:pageopacity="0.0"
     inkscape:pageshadow="2"
     inkscape:zoom="1.1696434"
     inkscape:cx="165.39751"
     inkscape:cy="376.15329"
     inkscape:document-units="px"
     inkscape:current-layer="layer1"
     showgrid="false"
     inkscape:window-width="1279"
     inkscape:window-height="988"
     inkscape:window-x="-4"
     inkscape:window-y="-8"
     inkscape:window-maximized="0"
     showguides="false"
     inkscape:guide-bbox="true"
     inkscape:snap-grids="false"
     inkscape:snap-to-guides="false"
     showborder="true"
     inkscape:showpageshadow="false"
     fit-margin-top="0"
     fit-margin-left="0"
     fit-margin-right="0"
     fit-margin-bottom="0"
     inkscape:snap-page="false"
     inkscape:snap-global="false"
     inkscape:lockguides="false" />
  <metadata
     id="metadata7">
    <rdf:RDF>
      <cc:Work
         rdf:about="">
        <dc:format>image/svg+xml</dc:format>
        <dc:type
           rdf:resource="http://purl.org/dc/dcmitype/StillImage" />
        <dc:title />
      </cc:Work>
    </rdf:RDF>
  </metadata>
  <g
     inkscape:groupmode="layer"
     id="layer2"
     inkscape:label="補助線"
     style="display:none"
     sodipodi:insensitive="true">
    <path
       style="fill:none;stroke:#0000ff;stroke-width:1px;stroke-linecap:butt;stroke-linejoin:miter;stroke-opacity:1"
       d="M 10,310 360,10"
       id="path3025"
       inkscape:connector-curvature="0"
       sodipodi:nodetypes="cc" />
    <path
       style="fill:none;stroke:#0000ff;stroke-width:1px;stroke-linecap:butt;stroke-linejoin:miter;stroke-opacity:1"
       d="M 10,10 360,310"
       id="path3027"
       inkscape:connector-curvature="0"
       sodipodi:nodetypes="cc" />
    <path
       style="display:inline;fill:none;stroke:#ff0000;stroke-width:1px;stroke-linecap:butt;stroke-linejoin:miter;stroke-opacity:1"
       d="M 10,0 V 320"
       id="path3006"
       inkscape:connector-curvature="0"
       sodipodi:nodetypes="cc" />
    <path
       style="display:inline;fill:none;stroke:#ff0000;stroke-width:1px;stroke-linecap:butt;stroke-linejoin:miter;stroke-opacity:1"
       d="M 360,0 V 320"
       id="path3010"
       inkscape:connector-curvature="0"
       sodipodi:nodetypes="cc" />
    <path
       style="display:inline;fill:none;stroke:#ff0000;stroke-width:1px;stroke-linecap:butt;stroke-linejoin:miter;stroke-opacity:1"
       d="M 0,9.9999681 370,10"
       id="path3016"
       inkscape:connector-curvature="0" />
    <path
       transform="translate(84.715796,27.711696)"
       style="display:inline;fill:none;stroke:#ff0000;stroke-width:1px;stroke-linecap:butt;stroke-linejoin:miter;stroke-opacity:1"
       d="M -84.715796,282.2883 H 285.2842"
       id="path3018"
       inkscape:connector-curvature="0"
       sodipodi:nodetypes="cc" />
  </g>
  <g
     inkscape:groupmode="layer"
     id="layer1"
     inkscape:label="吹き出し"
     style="display:inline"
     sodipodi:insensitive="true">
    <path
       style="display:inline;opacity:1;fill:#fefefe;fill-opacity:1;stroke:#000000;stroke-width:1.5;stroke-linecap:round;stroke-linejoin:round;stroke-miterlimit:4;stroke-dasharray:none;stroke-dashoffset:0;stroke-opacity:1"
       d="m 163.91348,62.249324 c 0,28.207097 43.66293,51.073466 97.52386,51.073466 8.02142,0 15.60187,10.01176 4.90898,20.09654 14.49577,-7.23784 29.69872,-23.30779 35.01192,-24.55775 33.95608,-7.98835 57.60296,-25.85409 57.60296,-46.612256 0,-28.207095 -43.66292,-51.073465 -97.52386,-51.073467 -53.86093,0 -97.52386,22.86637 -97.52386,51.073467 z"
       id="path7611"
       inkscape:connector-curvature="0"
       sodipodi:nodetypes="sscssss" />
    <text
       xml:space="preserve"
       style="font-style:normal;font-variant:normal;font-weight:normal;font-stretch:normal;font-size:26.06349373px;line-height:1.25;font-family:HGMinchoB;-inkscape-font-specification:HGMinchoB;letter-spacing:0px;word-spacing:0px;display:inline;fill:#000000;fill-opacity:1;stroke:none;stroke-width:1.83258939;stroke-linecap:round;stroke-linejoin:round"
       x="192.82179"
       y="52.144474"
       id="text7607"><tspan
         sodipodi:role="line"
         x="192.82179"
         y="52.144474"
         id="tspan7609"
         style="stroke-width:1.83258939">ここは私を</tspan><tspan
         sodipodi:role="line"
         x="192.82179"
         y="86.601578"
         id="tspan212"
         style="stroke-width:1.83258939">信じてくれ。</tspan></text>
  </g>
  <g
     sodipodi:insensitive="true"
     style="display:none"
     inkscape:label="豚.old.01"
     id="g39964"
     inkscape:groupmode="layer">
    <path
       sodipodi:nodetypes="cccccc"
       inkscape:connector-curvature="0"
       id="path39846"
       d="m 164.05909,160.63924 -70.947209,6.85534 -5.899929,14.64333 75.130968,42.75593 19.48377,-45.29937 z"
       style="display:inline;fill:#deaa87;stroke:none;stroke-width:1.5;stroke-linecap:round;stroke-linejoin:round" />
    <path
       sodipodi:nodetypes="csssscccc"
       inkscape:connector-curvature="0"
       id="path39848"
       d="m 85.022252,175.66834 c -15.666499,10.52323 -44.618209,27.72096 -52.564905,33.39542 -11.032121,7.87766 -1.713771,42.76523 0.183129,57.7894 2.40352,19.03671 17.959157,52.83576 18.967041,72.91937 0.803016,16.00132 -14.844051,66.99192 -13.361911,82.16797 1.53725,15.74043 11.369263,26.66378 23.280953,31.36157 L 178.01703,335.33011 124.11867,257.71149 Z"
       style="display:inline;fill:#1c1f24;fill-opacity:1;stroke:#000000;stroke-width:1.5;stroke-linecap:round;stroke-linejoin:round;stroke-opacity:1" />
    <path
       sodipodi:nodetypes="csssc"
       inkscape:connector-curvature="0"
       id="path39850"
       d="m 60.652798,389.54204 c 3.631232,-31.7283 10.022289,-93.60471 6.034854,-130.08033 -1.771181,-16.20212 -22.784157,-45.42493 -31.856414,-47.84749 -15.13974,-4.04275 -15.176793,41.29964 -15.700464,56.86133 -0.902009,26.80454 1.067908,68.38205 -0.487306,115.20174"
       style="display:inline;fill:#1c1f24;stroke:#000000;stroke-width:1.5;stroke-linecap:round;stroke-linejoin:round;stroke-opacity:1" />
    <path
       sodipodi:nodetypes="ssssss"
       inkscape:connector-curvature="0"
       id="path39852"
       d="m 305.77996,258.44334 c -15.76123,-21.23153 -72.89393,-55.6765 -81.41577,-74.23197 -4.28035,-9.32004 -14.81264,-19.95074 -22.95665,-19.70749 -11.18311,0.33402 -25.68351,30.82872 -20.003,45.32604 10.94247,27.92645 84.64997,79.76451 107.39881,95.85856 15.99072,11.31289 36.11156,-21.46895 16.97661,-47.24514 z"
       style="display:inline;fill:#1c1f24;stroke:#000000;stroke-width:1.5;stroke-linecap:round;stroke-linejoin:round;stroke-opacity:1" />
    <path
       sodipodi:nodetypes="csssscccc"
       inkscape:connector-curvature="0"
       id="path39854"
       d="m 151.20307,159.26267 c 12.72674,0.30296 47.77642,2.00415 52.3964,4.85418 3.77711,2.33009 18.25181,14.07229 19.4095,23.82284 0.81513,6.86539 -0.11133,41.5782 -3.61828,56.48064 -3.88226,16.49724 -10.29063,55.04526 -14.23391,68.33192 -4.88172,16.44867 -3.97166,95.15746 -7.32026,108.73792 l -25.02583,-90.05851 3.28664,-142.11046 z"
       style="display:inline;fill:#1c1f24;fill-opacity:1;stroke:#000000;stroke-width:1.5;stroke-linecap:round;stroke-linejoin:round;stroke-opacity:1" />
    <path
       sodipodi:nodetypes="cccc"
       inkscape:connector-curvature="0"
       id="path39856"
       d="m 182.72995,209.31377 -73.59798,16.81373 63.56592,98.69209 z"
       style="display:inline;fill:#dbdee3;stroke:none;stroke-width:1.5;stroke-linecap:round;stroke-linejoin:round" />
    <path
       sodipodi:nodetypes="cccccc"
       inkscape:connector-curvature="0"
       id="path39858"
       d="m 164.63989,239.50931 c 9.66061,43.10708 13.59528,88.61555 17.06553,116.61445 l -10.57594,33.49431 -18.18599,-23.58925 c -0.70915,-26.11169 2.29832,-75.0782 0.27082,-124.74842 z"
       style="display:inline;fill:#550000;stroke:#000000;stroke-width:1.5;stroke-linecap:round;stroke-linejoin:round;stroke-opacity:1" />
    <path
       sodipodi:nodetypes="ccccccc"
       inkscape:connector-curvature="0"
       id="path39860"
       d="m 162.61306,211.80699 -13.01482,1.22616 -6.07324,10.40369 c 4.43538,7.4235 5.75222,12.39366 9.64123,18.7559 4.52998,1.07477 9.23785,1.73917 11.71131,-2.47831 2.22387,-6.27365 6.99065,-12.89959 6.91834,-21.02492 z"
       style="display:inline;fill:#550000;stroke:#000000;stroke-width:1.5;stroke-linecap:round;stroke-linejoin:round;stroke-opacity:1" />
    <path
       inkscape:transform-center-x="19.56642"
       sodipodi:nodetypes="sccssssccssss"
       inkscape:connector-curvature="0"
       id="path39862"
       d="m 169.84729,178.54433 c 2.96591,10.33187 -5.96121,26.39107 -10.70858,33.05175 3.48303,0.55342 12.1434,14.58299 18.33127,24.87412 -1.46781,-33.4088 -4.17904,-50.3305 -5.82972,-59.96657 -0.50635,-2.95589 -6.40751,-15.09331 -17.64776,-22.48548 -20.42653,-13.43356 -54.470773,-10.46212 -61.957548,10.74722 -1.528111,4.329 -5.23599,11.72582 -5.07542,16.00777 0.340835,9.0891 31.701528,44.09824 47.088978,66.15601 8.04968,-15.30525 16.85157,-28.82315 22.661,-35.11339 -9.95844,-4.02481 -22.9874,-10.29039 -38.16749,-19.52928 -15.77068,-9.59832 -26.223016,-20.87137 -24.95581,-27.72018 3.639571,-19.67061 36.34366,-24.95944 60.28336,-9.81059 3.08126,1.9498 11.44287,7.99124 15.97772,23.78862 z"
       style="display:inline;fill:#dbdbe3;stroke:#000000;stroke-width:1.5;stroke-linecap:round;stroke-linejoin:round;stroke-opacity:1" />
    <path
       sodipodi:nodetypes="cccccc"
       inkscape:connector-curvature="0"
       id="path39864"
       d="m 97.142863,247.6724 26.975807,10.03909 2.27655,-19.68067 c -11.16392,-16.58887 -38.623873,-59.39497 -35.44859,-73.5996 -3.39818,3.10707 -5.145332,8.23921 -6.442044,11.23712 z"
       style="display:inline;fill:#1c1f24;fill-opacity:1;stroke:#000000;stroke-width:1.5;stroke-linecap:round;stroke-linejoin:round;stroke-opacity:1" />
    <path
       sodipodi:nodetypes="cccsccc"
       inkscape:connector-curvature="0"
       id="path39866"
       d="m 58.425406,453.28224 c 7.54615,2.97603 75.010514,16.11578 108.056214,4.15084 8.62603,-3.1233 7.19531,-3.42107 12.06522,-11.91318 4.90283,-8.54959 4.18291,-89.84302 0.15927,-99.73653 -7.83993,-19.2772 -26.58253,-69.52185 -52.31089,-107.75255 l -21.2177,25.22813 70.70592,83.10493"
       style="display:inline;fill:#1c1f24;stroke:#000000;stroke-width:1.5;stroke-linecap:round;stroke-linejoin:round;stroke-opacity:1" />
    <path
       sodipodi:nodetypes="cccccc"
       inkscape:connector-curvature="0"
       id="path39868"
       d="m 191.15713,212.6892 -4.86374,17.97405 -9.48051,-8.77631 c -2.86216,-37.80821 -2.739,-57.69449 -28.9016,-70.45438 l 7.89856,5.09444 c 13.8393,11.66152 25.79083,30.95336 35.34729,56.1622 z"
       style="display:inline;fill:#1c1f24;fill-opacity:1;stroke:#000000;stroke-width:1.5;stroke-linecap:round;stroke-linejoin:round;stroke-opacity:1" />
    <path
       sodipodi:nodetypes="cccsccc"
       inkscape:connector-curvature="0"
       id="path39870"
       d="m 172.24418,343.88985 26.2222,-114.24949 -21.6535,-7.75342 c 3.78258,46.67752 -6.24888,96.49865 -9.51437,122.70979 -1.47553,11.84369 4.51867,96.3075 4.92426,102.07018 0.58648,8.33609 -0.0977,6.56852 5.51751,5.98186 8.01205,-0.83709 17.14957,-19.20764 20.09624,-31.1586"
       style="display:inline;fill:#1c1f24;fill-opacity:1;stroke:#000000;stroke-width:1.5;stroke-linecap:round;stroke-linejoin:round;stroke-opacity:1" />
    <path
       sodipodi:nodetypes="csssscc"
       inkscape:connector-curvature="0"
       id="path39872"
       d="m 227.31937,126.65133 -28.60357,-17.2263 c -7.20452,-4.33888 -16.46881,12.86682 -19.57888,20.95404 -1.57347,4.09159 3.80043,6.26276 6.54113,0.61708 2.74473,-5.65395 6.14976,-22.90581 11.7166,-18.96639 l 27.8299,19.69406 z"
       style="display:inline;opacity:0.95;fill:#241c1c;stroke:#000000;stroke-width:1.5;stroke-linecap:round;stroke-linejoin:round" />
    <path
       sodipodi:nodetypes="csssc"
       inkscape:connector-curvature="0"
       id="path39874"
       d="m 292.46498,306.75302 c 12.15327,11.25465 26.06906,-13.88639 20.44398,-33.47588 0,0 -18.19725,-66.64282 -27.22522,-95.83846 -5.82862,-18.84924 -43.44798,15.34055 -39.77657,28.55106 7.58323,27.28608 21.45577,77.57836 21.45577,77.57836"
       style="fill:#1c1f24;stroke:#000000;stroke-width:1.5;stroke-linecap:round;stroke-linejoin:round;stroke-opacity:1" />
    <path
       sodipodi:nodetypes="sss"
       inkscape:connector-curvature="0"
       id="path39876"
       d="m 283.82472,175.51084 c 6.57586,21.3757 -32.16596,46.96716 -36.7512,29.53608 -3.18703,-12.11573 33.0081,-41.7035 36.7512,-29.53608 z"
       style="display:inline;fill:#000000;stroke:none;stroke-width:1.5;stroke-linecap:round;stroke-linejoin:round" />
    <path
       sodipodi:nodetypes="sssss"
       inkscape:connector-curvature="0"
       id="path39878"
       d="m 281.28336,172.65751 3.61984,8.79666 c 4.88545,11.87224 -26.77558,38.54795 -32.77705,24.72099 l -3.46488,-7.98285 c -5.91622,-13.63054 28.47149,-35.62127 32.62209,-25.5348 z"
       style="display:inline;fill:#dbdee3;fill-opacity:1;stroke:#000000;stroke-width:1.5;stroke-linecap:round;stroke-linejoin:round" />
    <path
       sodipodi:nodetypes="sss"
       inkscape:connector-curvature="0"
       id="path39880"
       d="m 279.98944,173.65284 c 3.86111,19.2477 -30.14117,31.14866 -30.39117,22.11242 -0.34646,-12.52311 28.51985,-31.441 30.39117,-22.11242 z"
       style="display:inline;fill:#000000;stroke:none;stroke-width:1.5;stroke-linecap:round;stroke-linejoin:round" />
    <g
       id="g39920">
      <path
         style="display:inline;fill:#deaa87;stroke:#000000;stroke-width:1.5;stroke-linecap:round;stroke-linejoin:round;stroke-opacity:1"
         d="m 93.608425,166.84507 c 1.48831,-12.35731 -1.445375,-27.12204 -2.661255,-38.51603 l 85.36574,3.71763 c -3.56249,14.26192 -7.40143,46.95563 -8.58017,63.65138"
         id="path39882"
         inkscape:connector-curvature="0"
         sodipodi:nodetypes="cccc" />
      <path
         style="display:inline;fill:#deaa87;stroke:#000000;stroke-width:1.5;stroke-linecap:round;stroke-linejoin:round;stroke-opacity:1"
         d="m 98.98866,148.95982 c 0.90619,3.11951 2.81788,11.20988 5.14029,15.33325 1.83616,3.26004 37.95956,25.05354 48.87385,29.41977 4.51727,1.80711 17.96638,1.09496 22.84925,-7.2357 3.55033,-6.0572 6.14871,-14.98017 8.31099,-19.9201 2.62887,-6.00592 9.78174,-23.47332 10.3106,-32.95056 0.2002,-3.58697 0.87405,-11.64965 0.84395,-16.13493 -0.0251,-3.74011 2.93643,-14.84194 3.4104,-18.118438 0.69859,-4.82858 -1.45548,-10.30772 -1.90129,-14.68648 -0.81547,-8.00938 -6.36105,-20.08644 -9.38076,-25.64979 -6.48811,-11.95335 -31.99231,-28.72395 -55.98382,-26.28889 -29.06164,2.94966 -47.7531,26.12191 -52.92071,48.92613 -1.75727,7.75469 -2.04173,37.441548 1.2185,43.676078 2.21501,4.23587 13.88978,25.52824 15.37209,32.14126"
         id="path39884"
         inkscape:connector-curvature="0"
         sodipodi:nodetypes="cssssssssssssc" />
      <path
         style="display:inline;fill:none;stroke:#916f6f;stroke-width:1.5;stroke-linecap:round;stroke-linejoin:round;stroke-opacity:1"
         d="m 180.55638,141.65287 c 1.11509,4.27044 -0.0634,5.92088 -1.46887,7.67076"
         id="path39886"
         inkscape:connector-curvature="0"
         sodipodi:nodetypes="cc" />
      <path
         style="display:inline;fill:#e9c6af;stroke:none;stroke-width:1.5;stroke-linecap:round;stroke-linejoin:round"
         d="m 193.53588,122.63912 c 0.01,-4.14888 -1.46586,-6.37115 -2.47235,-4.59232 -1.69493,2.99555 -3.11035,6.88872 -5.32035,7.76777 -2.57584,1.02457 -6.59951,-1.90213 -9.32096,-3.61884 -0.92816,1.40052 1.26283,12.70212 4.16289,20.88217 0.71386,2.01355 0.8826,5.76278 -1.40463,7.57929 -1.37275,1.09023 -3.5401,3.28567 -5.85951,6.33145 0.97253,-2.84473 1.0826,-4.91169 -0.21887,-4.618 -1.08294,0.24438 -2.79955,1.29137 -3.35223,3.54904 -1.35082,-1.74543 -5.14111,-1.40316 -4.8716,-2.5143 0.2679,-1.10453 4.46559,-2.39289 7.88512,-2.91625 h -3e-5 c 0.84957,0.52507 3.62741,0.68697 4.87574,-1.26035 1.52871,-2.3847 1.12849,-4.27944 0.77327,-5.81503 -1.9402,-8.38721 -5.70511,-21.90027 -5.70476,-24.00768 1.6e-4,-1.02951 0.97032,-8.54176 5.37667,-8.66492 -0.94997,1.6832 -3.69622,5.73107 -2.308,7.82355 l 16.21327,-6.55214 c 1.44446,-1.88181 1.98197,-7.13813 -3.79002,-8.98168 1.02705,-0.42394 5.11707,-2.74919 6.34512,-2.46964 0.83103,-9.920187 -1.9874,-24.812523 -6.10179,-33.493846 -8.8768,-18.729956 -31.71131,-30.891143 -49.5451,-32.032961 -11.87876,-0.760544 -24.51042,6.57502 -28.55778,15.527755 -7.60259,16.816924 7.18509,40.567335 13.33519,51.949982 3.28542,6.08067 11.87003,9.09049 13.31751,10.4127 l 15.60915,0.51677 c -4.38945,-0.60688 -10.0432,0.249 -12.5407,2.20158 -3.15913,2.46985 -3.23584,6.96998 -2.57583,7.88945 l 20.95142,-2.31792 c 0.68047,-3.53926 1.23653,-4.69567 -3.10934,-8.19143 4.48538,0.34219 6.74298,-3.82442 9.90309,-3.04348 1.03657,0.25616 -0.66337,7.17189 -0.66569,8.69945 -0.005,3.29261 -0.74785,9.37287 -3.87953,7.0693 -3.18666,-2.344 -4.99864,6.2182 -11.07692,8.03954 -2.8683,0.85947 -10.94726,-3.74276 -12.53021,-2.71675 -2.36191,1.53091 -4.02051,5.28055 -4.80681,8.52897 -0.59672,2.46523 5.27416,16.67887 11.38379,30.6817 3.73468,8.5596 7.22246,18.96192 12.17614,21.09259 5.0822,2.18594 14.28843,-0.85559 16.77965,-3.12362 3.53645,-3.21963 4.75937,-9.59427 7.09551,-14.44768 3.82479,-7.94616 7.30879,-17.49059 9.34552,-24.49997 3.23624,-11.13745 4.45603,-14.76741 4.48396,-26.66425 z"
         id="path39888"
         inkscape:connector-curvature="0"
         sodipodi:nodetypes="ssscsscscsccssscccccssssccscccssssssssssss" />
      <path
         sodipodi:nodetypes="cccccc"
         inkscape:connector-curvature="0"
         id="path39890"
         d="m 154.94254,118.7925 -12.17623,1.89865 -5.6124,2.43687 12.93987,3.77485 8.47727,-5.51848 z"
         style="display:inline;fill:#fefefe;fill-opacity:1;stroke:none;stroke-width:1.5;stroke-linecap:round;stroke-linejoin:round" />
      <path
         sodipodi:nodetypes="cccccc"
         inkscape:connector-curvature="0"
         id="path39892"
         d="m 179.96709,113.81034 -3.66871,4.41755 8.15697,0.57314 8.36029,-6.6603 -2.3303,-0.5439 z"
         style="display:inline;fill:#fefefe;fill-opacity:1;stroke:none;stroke-width:1.5;stroke-linecap:round;stroke-linejoin:round" />
      <path
         style="display:inline;fill:#fefefe;fill-opacity:1;stroke:#916f6f;stroke-width:1.5;stroke-linecap:round;stroke-linejoin:round;stroke-opacity:1"
         d="m 158.57105,121.38439 c -1.37152,1.0454 -3.05533,4.66625 -4.4947,5.12911 -1.79076,0.57585 -5.51951,1.07416 -7.91832,1.15295 -2.27576,0.0747 -6.68372,-3.52164 -9.00412,-4.53843"
         id="path39894"
         inkscape:connector-curvature="0"
         sodipodi:nodetypes="cssc" />
      <path
         style="display:inline;fill:#fefefe;fill-opacity:1;stroke:#916f6f;stroke-width:1.5;stroke-linecap:round;stroke-linejoin:round;stroke-opacity:1"
         d="m 192.81564,112.14073 c -0.75737,1.7184 -2.44261,5.77301 -3.67564,6.36735 -0.83866,0.40424 -5.47682,2.57986 -7.77294,2.52982 -0.78961,-0.0172 -4.5994,-2.35479 -5.06868,-2.81001"
         id="path39896"
         inkscape:connector-curvature="0"
         sodipodi:nodetypes="cssc" />
      <path
         style="display:inline;fill:#2b0000;stroke:none;stroke-width:1.5;stroke-linecap:round;stroke-linejoin:round"
         d="m 186.85753,111.8072 c 0.18265,2.78735 -1.83743,6.24299 -4.05382,7.05117 -2.54195,0.9269 -4.1136,-1.80902 -4.43716,-3.40729 l 2.32839,-2.05666 z"
         id="path39898"
         inkscape:connector-curvature="0"
         sodipodi:nodetypes="csccc" />
      <path
         style="display:inline;fill:none;stroke:#000000;stroke-width:1.5;stroke-linecap:round;stroke-linejoin:round;stroke-opacity:1"
         d="m 175.33854,109.27251 c -0.39917,2.9254 -2.95506,9.29095 -2.86608,11.33604 0.15994,3.67641 5.81791,20.7995 6.41612,22.6724 m -5.81872,7.03475 c -2.07803,0.73668 -6.65753,1.37382 -8.2863,3.02829"
         id="path39900"
         inkscape:connector-curvature="0"
         sodipodi:nodetypes="csccc" />
      <path
         style="display:inline;fill:#000000;stroke:none;stroke-width:1.5;stroke-linecap:round;stroke-linejoin:round"
         d="m 175.46223,154.5339 c -1.03245,-0.59873 -1.69273,1.59952 -4.34685,1.99188 -3.5948,0.53131 -4.90443,-0.95712 -6.10817,-0.36416 -5.08028,2.50312 -17.05537,9.23737 -18.0375,11.79815 -0.99224,2.58691 -0.31474,6.82478 1.2497,6.26131 5.0412,-1.81575 15.22211,-5.51983 20.35227,-6.27083 7.25879,-1.0626 11.18769,-1.04374 14.47863,-1.86926 0.72854,-0.18271 2.24836,-5.87026 0.91448,-6.97117 -1.1817,-2.21059 -6.93155,-3.66485 -8.50256,-4.57592 z"
         id="path39902"
         inkscape:connector-curvature="0"
         sodipodi:nodetypes="ssssssscs" />
      <path
         style="display:inline;fill:none;stroke:#000000;stroke-width:1.5;stroke-linecap:round;stroke-linejoin:round;stroke-opacity:1"
         d="m 164.80231,109.76036 c 0.259,1.61696 0.25547,4.38447 -0.36445,6.14094"
         id="path39904"
         inkscape:connector-curvature="0"
         sodipodi:nodetypes="cc" />
      <path
         style="display:inline;fill:#000000;stroke:none;stroke-width:1.5;stroke-linecap:round;stroke-linejoin:round"
         d="m 159.35691,116.18948 c -4.31296,0.8611 -7.29252,-2.19089 -14.83274,-2.52286 -5.91428,-0.26039 -17.70928,1.07946 -15.34683,0.22833 4.3913,-1.58206 9.89074,-1.9866 16.1495,-2.16088 3.72374,-0.10407 6.57082,0.56602 10.61221,0.75263 3.29242,0.15204 11.53326,2.08249 3.41786,3.70278 z"
         id="path39906"
         inkscape:connector-curvature="0"
         sodipodi:nodetypes="ssssss" />
      <path
         style="display:inline;fill:#000000;stroke:none;stroke-width:1.5;stroke-linecap:round;stroke-linejoin:round"
         d="m 196.64153,99.537079 c -1.20245,-0.36833 -8.77694,3.100861 -11.80369,4.683071 -3.55183,1.85668 -10.22918,6.68556 -8.75988,7.11012 4.37893,1.26532 6.27892,-2.51681 9.71675,-5.59605 3.42065,-3.06385 12.35564,-5.734981 10.84682,-6.197141 z"
         id="path39908"
         inkscape:connector-curvature="0"
         sodipodi:nodetypes="sssss" />
      <path
         style="display:inline;fill:none;stroke:#000000;stroke-width:1.5;stroke-linecap:round;stroke-linejoin:round;stroke-opacity:1"
         d="m 157.58946,145.43033 c -0.78138,2.16435 -0.94204,6.34102 2.00297,7.3429"
         id="path39910"
         inkscape:connector-curvature="0"
         sodipodi:nodetypes="cc" />
      <path
         style="display:inline;fill:none;stroke:#000000;stroke-width:1.5;stroke-linecap:round;stroke-linejoin:round;stroke-opacity:1"
         d="m 194.5796,112.61381 c -1.14178,-0.54888 -3.25259,-1.12188 -4.09426,-1.01698 -1.26083,0.15714 -8.20324,0.96908 -10.51825,2.21351 -1.29564,0.69647 -2.52598,3.23968 -4.51767,5.40412"
         id="path39912"
         inkscape:connector-curvature="0"
         sodipodi:nodetypes="cssc" />
      <path
         style="display:inline;fill:#deaa87;stroke:none;stroke-width:1.5;stroke-linecap:round;stroke-linejoin:round"
         d="m 159.08951,174.84116 c -0.50651,-1.63054 3.97329,-2.99294 7.62066,-4.02235 3.79191,-1.07019 7.12193,-1.12464 6.96278,0.21422 -0.31413,2.64279 -2.4107,4.93576 -6.816,6.2228 -3.67108,1.07253 -7.0104,0.0228 -7.76744,-2.41467 z"
         id="path39914"
         inkscape:connector-curvature="0"
         sodipodi:nodetypes="sssss" />
      <path
         style="display:inline;fill:#2b0000;stroke:none;stroke-width:1.5;stroke-linecap:round;stroke-linejoin:round"
         d="m 147.42579,125.19933 c -2.78991,0.33483 -4.63624,-1.70869 -5.01677,-4.09425 l 9.43811,-1.46026 c 0.29686,3.41239 -1.6352,5.22011 -4.42134,5.55451 z"
         id="path39916"
         inkscape:connector-curvature="0"
         sodipodi:nodetypes="sccs" />
      <path
         style="display:inline;fill:none;stroke:#000000;stroke-width:1.5;stroke-linecap:round;stroke-linejoin:round;stroke-opacity:1"
         d="m 159.27679,122.04667 c -1.26873,-0.75091 -2.63198,-3.25424 -4.33425,-3.25417 -2.6159,1.7e-4 -7.69437,0.95626 -12.17623,1.89865 -2.09922,0.44139 -4.54626,1.71789 -7.16639,3.24189"
         id="path39918"
         inkscape:connector-curvature="0"
         sodipodi:nodetypes="cssc" />
    </g>
    <g
       id="g39930">
      <path
         style="display:inline;fill:#deaa87;stroke:#000000;stroke-width:1.5;stroke-linecap:round;stroke-linejoin:round;stroke-opacity:1"
         d="m 250.94035,169.43779 c 3.09788,6.52038 2.36083,15.36763 3.21585,21.0182 1.85098,12.23285 26.92242,-0.9181 23.95633,-14.01556 l -2.61617,-11.55227 -10.30263,-30.14618 -20.87485,-7.00549 -5.16971,13.08757 z"
         id="path39922"
         inkscape:connector-curvature="0"
         sodipodi:nodetypes="cssccccc" />
      <path
         style="display:inline;fill:#deaa87;stroke:#000000;stroke-width:1.5;stroke-linecap:round;stroke-linejoin:round;stroke-opacity:1"
         d="m 241.8252,137.88165 c -2.12622,-1.07485 -10.58313,-3.54333 -11.4557,-4.81806 -1.80361,-3.18212 -8.16879,-4.95419 -9.84089,-5.22376 -2.23171,-0.35979 -3.96529,0.50754 -3.7765,3.51928 0.28407,4.5318 7.58313,8.09768 10.39154,9.66743 1.30102,1.86458 4.64386,5.00686 6.46013,7.40021 1.70843,10.29554 9.20443,20.94502 20.44826,21.37016"
         id="path39924"
         inkscape:connector-curvature="0" />
      <path
         style="display:inline;fill:#deaa87;stroke:#000000;stroke-width:1.5;stroke-linecap:round;stroke-linejoin:round;stroke-opacity:1"
         d="m 247.21933,145.60581 c 1.51298,3.05575 6.08654,6.30845 8.98575,11.18349"
         id="path39926"
         inkscape:connector-curvature="0"
         sodipodi:nodetypes="cc" />
      <path
         style="display:inline;fill:#deaa87;stroke:#000000;stroke-width:1.5;stroke-linecap:round;stroke-linejoin:round;stroke-opacity:1"
         d="m 261.41193,141.9874 c -1.00745,2.70642 -6.87129,16.29922 -5.38698,21.16802"
         id="path39928"
         inkscape:connector-curvature="0"
         sodipodi:nodetypes="cc" />
    </g>
    <g
       style="stroke-width:1.5"
       transform="matrix(0.99352835,-0.00982847,-0.16305051,1.0081268,21.698978,1.9098739)"
       id="g39936">
      <path
         style="display:inline;opacity:0.85;fill:#280b0b;stroke:#000000;stroke-width:1.5;stroke-linecap:round;stroke-linejoin:round"
         d="m 227.63058,125.95511 c -2.62061,-0.28999 -15.75579,3.74559 -20.93635,5.62363 -3.67209,1.33122 -7.3883,2.5511 -11.10114,2.30734 -9.22722,-0.6058 -26.44504,3.61117 -36.2176,5.57346 -1.31691,1.98113 -1.76164,2.77773 -2.02471,4.01698 8.36515,4.56022 16.90554,6.93053 23.32665,7.27931 4.78407,0.25983 12.51546,-6.43593 14.84026,-8.27809 1.28555,-1.01868 5.51177,-1.91582 6.57669,-1.42221 2.34289,1.08597 6.21684,6.14823 10.8302,4.45589 3.72203,-1.36534 10.49702,-7.38126 13.8015,-12.73148 0.43535,-1.20182 0.90672,-4.68762 0.9045,-6.82483 z"
         id="path39932"
         inkscape:connector-curvature="0"
         sodipodi:nodetypes="cssccsssscc" />
      <path
         style="display:inline;opacity:0.95;fill:#241c1c;stroke:#000000;stroke-width:1.5;stroke-linecap:round;stroke-linejoin:round"
         d="m 160.06143,139.52842 -45.44611,-18.17395 c -8.54801,-3.41836 -6.52088,8.19808 -8.33759,16.20237 -0.91914,4.04966 2.17802,4.99276 2.61287,1.94423 0.83132,-5.82803 -2.00393,-18.69241 4.81753,-15.5717 l 45.06852,20.61813 z"
         id="path39934"
         inkscape:connector-curvature="0"
         sodipodi:nodetypes="csssscc" />
    </g>
    <g
       style="stroke-width:1.5"
       id="g39942">
      <path
         style="display:inline;fill:#deaa87;stroke:#000000;stroke-width:1.5;stroke-linecap:round;stroke-linejoin:round;stroke-opacity:1"
         d="m 96.29279,148.32421 c -2.07152,-3.32459 -9.59082,1.08805 -12.14405,-7.88435 -0.99634,-3.50124 -5.1486,-8.49272 -6.65121,-16.71609 -1.4644,-8.01424 1.16492,-13.57981 4.76436,-14.74526 4.91649,-1.5919 9.44593,2.34683 11.86229,5.22481"
         id="path39938"
         inkscape:connector-curvature="0"
         sodipodi:nodetypes="csssc" />
      <path
         style="display:inline;opacity:0.95;fill:none;stroke:#000000;stroke-width:1.5;stroke-linecap:round;stroke-linejoin:round;stroke-opacity:1"
         d="m 86.01211,135.82641 c 1.1433,-2.41978 4.46308,-4.93209 5.17034,-8.3937 0.67017,-3.28002 1.63428,-5.91757 0.83656,-8.10557 -1.20668,-3.30964 -5.58399,-7.36217 -8.08483,-6.9171 -2.00547,0.3569 -2.87088,3.48025 -3.44877,6.97723 -1.41652,8.57163 3.12622,15.43792 6.89291,17.21964 2.3204,1.09759 6.17241,5.7399 7.14346,3.92827 0.95183,-1.77589 -1.73427,-4.93979 -2.03637,-6.60102 -0.18204,-1.00088 2.12657,-4.52782 2.38464,-7.10893"
         id="path39940"
         inkscape:connector-curvature="0"
         sodipodi:nodetypes="csssssssc" />
    </g>
    <g
       id="g39962">
      <path
         style="display:inline;fill:#deaa87;stroke:#000000;stroke-width:1.5;stroke-linecap:round;stroke-linejoin:round;stroke-opacity:1"
         d="m 249.67375,125.05065 c -0.55616,-4.74633 -4.20222,-14.4967 -6.85674,-14.28465 -4.83456,0.38618 -14.84215,2.76683 -16.73585,4.3706 -2.09421,1.77354 -9.05325,9.63966 -8.89157,11.01782 0.24145,2.05832 1.73575,3.07443 3.32991,2.31716 1.48547,-0.70564 8.73209,-5.6899 9.95311,-8.061 1.81009,0.0353 7.72006,-0.91124 9.15546,-2.3475 0.75496,1.89221 -0.0548,14.08864 1.97828,16.63597"
         id="path39944"
         inkscape:connector-curvature="0"
         sodipodi:nodetypes="cssssccc" />
      <path
         style="display:inline;fill:#e9c6af;stroke:none;stroke-width:1.5;stroke-linecap:round;stroke-linejoin:round"
         d="m 218.55628,125.4247 c 0.78983,-1.75646 7.06603,-8.4092 8.37588,-9.63838 0.91228,-0.85609 10.47488,-3.42294 15.70434,-3.92499 1.67496,-0.16081 3.15911,3.59728 3.9509,5.46004 -2.50768,-1.21336 -3.6223,-1.44804 -4.19964,-2.03163 -2.68862,1.1109 -10.58379,2.63937 -13.34731,3.29323 -1.37966,1.61848 -6.22922,6.81504 -8.69954,8.27477 -1.267,0.74869 -2.42149,-0.0168 -1.78463,-1.43304 z"
         id="path39946"
         inkscape:connector-curvature="0"
         sodipodi:nodetypes="ssscccss" />
      <path
         style="display:inline;fill:#deaa87;stroke:#000000;stroke-width:1.5;stroke-linecap:round;stroke-linejoin:round;stroke-opacity:1"
         d="m 268.17577,133.76001 c -0.69139,-0.92338 -6.1638,-13.67124 -7.95671,-14.81028 -5.01325,-3.18495 -11.85748,-6.08178 -13.81273,-5.92558 -4.83457,0.38623 -10.63183,8.07499 -12.64128,10.93455 -1.53879,2.18972 -2.07801,10.47365 -1.91635,11.85178 0.24145,2.05831 2.10512,1.99793 3.69928,1.24064 1.48548,-0.70562 4.45314,-8.04505 4.7482,-10.73009 1.81007,-0.9065 6.69172,-2.42569 8.12713,-3.86191 0.75495,1.8922 7.8099,8.14949 9.13212,9.85307"
         id="path39948"
         inkscape:connector-curvature="0"
         sodipodi:nodetypes="csssssccc" />
      <path
         style="display:inline;fill:#e9c6af;stroke:none;stroke-width:1.5;stroke-linecap:round;stroke-linejoin:round"
         d="m 262.90951,126.80886 c -1.76815,-1.45052 -14.31209,-9.6085 -16.39991,-8.84388 -2.18123,0.79882 -5.94341,5.62699 -8.42726,7.36585 -0.579,0.40534 -2.97863,0.60283 -3.17078,-0.62636 -0.19322,-1.23605 6.89603,-9.43494 10.82283,-10.49626 2.49252,-0.67368 12.45276,4.62991 13.71392,5.46003 1.75302,1.15387 5.52012,8.82967 3.4612,7.14062 z"
         id="path39950"
         inkscape:connector-curvature="0"
         sodipodi:nodetypes="sssssss" />
      <path
         style="display:inline;fill:#deaa87;stroke:#000000;stroke-width:1.5;stroke-linecap:round;stroke-linejoin:round;stroke-opacity:1"
         d="m 267.82512,133.93235 c 0.23774,-4.07528 -9.49013,-12.03715 -11.81332,-14.29909 -2.05035,-1.99628 -5.69609,-2.32806 -6.52933,-2.20481 -3.50797,0.51888 -8.04967,6.98817 -10.05912,9.84775 -1.5388,2.18973 -4.94899,15.15534 -4.78733,16.53348 0.24145,2.05832 2.44711,2.90795 4.04129,2.15069 1.48549,-0.70565 7.64596,-11.948 7.941,-14.63305 1.8101,-0.9065 5.82169,-5.262 7.25709,-6.69823"
         id="path39952"
         inkscape:connector-curvature="0"
         sodipodi:nodetypes="cssssscc" />
      <path
         style="display:inline;fill:#e9c6af;stroke:none;stroke-width:1.5;stroke-linecap:round;stroke-linejoin:round"
         d="m 260.18258,125.64948 c -2.09661,-0.91357 -6.14494,-4.35149 -8.23276,-3.58687 -2.18123,0.79882 -6.78829,5.81474 -9.27214,7.5536 -0.57899,0.40534 -2.03987,0.22733 -2.23202,-1.00185 -0.19323,-1.23606 4.84236,-8.30447 8.56981,-9.93302 1.54192,-0.67368 4.56725,0.49941 5.82841,1.32953 1.75301,1.15387 7.49149,6.57666 5.3387,5.63861 z"
         id="path39954"
         inkscape:connector-curvature="0"
         sodipodi:nodetypes="sssssss" />
      <path
         style="display:inline;fill:#deaa87;stroke:#000000;stroke-width:1.5;stroke-linecap:round;stroke-linejoin:round;stroke-opacity:1"
         d="m 274.66887,167.24663 c 3.27884,-2.06964 -0.95519,-22.84549 -3.40847,-28.7197 -2.21187,-5.29616 -8.92665,-10.37979 -11.39806,-12.585 -1.45738,-1.30039 -4.52134,-2.59077 -6.07892,-2.65395 -1.87164,-0.076 -9.59389,8.59498 -11.12594,9.92699 -1.67322,1.45473 -4.96042,15.10873 -4.6434,16.62003 0.278,1.32511 2.3756,2.23972 3.51929,1.47996 3.14062,-2.08629 5.62819,-11.49531 7.03306,-13.78472 3.17411,-1.34858 6.09854,-3.16317 8.19391,-4.90071"
         id="path39956"
         inkscape:connector-curvature="0"
         sodipodi:nodetypes="csssscccc" />
      <path
         style="display:inline;fill:#deaa87;stroke:#000000;stroke-width:1.5;stroke-linecap:round;stroke-linejoin:round;stroke-opacity:1"
         d="m 255.66686,133.48517 c 0.76824,2.06828 3.56369,5.99929 5.24985,9.05338"
         id="path39958"
         inkscape:connector-curvature="0"
         sodipodi:nodetypes="cc" />
      <path
         style="display:inline;fill:#e9c6af;stroke:none;stroke-width:1.5;stroke-linecap:round;stroke-linejoin:round"
         d="m 269.87857,137.57015 c 1.80721,2.98821 6.72164,24.60441 4.52361,28.32964 -0.71471,1.2113 -0.69486,2.18902 0.29429,2.28428 1.07412,0.10342 1.58071,4.93307 2.54032,9.84405 1.01926,5.21616 -6.97552,12.5914 -7.56522,12.45543 -1.02101,-0.23541 -1.3386,-23.14018 -2.04069,-24.03515 -1.68141,-2.14333 -2.58364,-7.15125 -2.7176,-9.80634 -0.39877,-7.90403 -0.44699,-13.03487 -0.17765,-16.44731 -0.86614,-0.88958 -6.86255,-9.70101 -8.11166,-10.79074 -2.71953,1.83611 -8.35194,5.11218 -10.56237,6.42781 -2.04798,1.21895 -3.35112,-1.30407 -2.65223,-1.96978 2.17356,-2.07034 8.32455,-9.13884 10.4109,-9.64451 0.94235,-0.2284 2.39326,0.48969 3.74508,1.38458 4.48236,2.96727 10.97503,9.75533 12.31322,11.96804 z"
         id="path39960"
         inkscape:connector-curvature="0"
         sodipodi:nodetypes="sssssssccsssss" />
    </g>
  </g>
  <g
     inkscape:groupmode="layer"
     id="layer4"
     inkscape:label="豚"
     style="display:inline"
     sodipodi:insensitive="true">
    <path
       style="display:inline;fill:#deaa87;stroke:#000000;stroke-width:1.5;stroke-linecap:round;stroke-linejoin:round;stroke-opacity:1"
       d="m 86.213441,165.16108 c 1.084212,-10.46015 1.549343,-19.83399 -0.0597,-31.91601 l 81.090929,-1.1984 c -3.56249,14.26192 -7.7037,44.99085 -8.88244,61.6866 L 154.4955,223.3517 89.469189,185.97692 Z"
       id="path15190-1"
       inkscape:connector-curvature="0"
       sodipodi:nodetypes="ccccccc" />
    <path
       style="display:inline;fill:#1c1f24;fill-opacity:1;stroke:#000000;stroke-width:1.5;stroke-linecap:round;stroke-linejoin:round;stroke-opacity:1"
       d="m 78.091421,177.592 c -15.666499,10.52323 -44.337417,36.07463 -52.284113,41.74909 -11.032121,7.87766 -4.131967,32.4879 -2.235067,47.51207 2.40352,19.03671 17.959157,52.83576 18.967041,72.91937 0.803016,16.00132 -14.844051,66.99192 -13.361911,82.16797 1.53725,15.74043 11.369263,26.66378 23.280953,31.36157 L 168.94879,335.33011 115.05043,257.71149 Z"
       id="path17363"
       inkscape:connector-curvature="0"
       sodipodi:nodetypes="csssscccc" />
    <path
       style="display:inline;fill:#1c1f24;stroke:#000000;stroke-width:1.5;stroke-linecap:round;stroke-linejoin:round;stroke-opacity:1"
       d="M 53.39821,400.12165 C 57.029442,368.39335 63.420499,306.51694 59.433064,270.04132 57.661883,253.8392 36.648907,224.61639 27.57665,222.19383 12.43691,218.15108 12.399857,263.49347 11.876186,279.05516 10.974177,305.8597 12.944094,347.43721 11.38888,394.2569"
       id="path17462-2"
       inkscape:connector-curvature="0"
       sodipodi:nodetypes="csssc" />
    <path
       style="display:inline;fill:#1c1f24;stroke:#000000;stroke-width:1.5;stroke-linecap:round;stroke-linejoin:round;stroke-opacity:1"
       d="m 293.71936,265.28303 c -15.76123,-21.23153 -73.68446,-65.94048 -82.2063,-84.49595 -4.28035,-9.32004 -11.93658,-20.15374 -20.08059,-19.91049 -11.18311,0.33402 -24.77668,34.45601 -19.09617,48.95333 10.94247,27.92645 84.14915,85.18766 106.89799,101.28171 15.99072,11.31289 33.62002,-20.05241 14.48507,-45.8286 z"
       id="path17462"
       inkscape:connector-curvature="0"
       sodipodi:nodetypes="ssssss" />
    <path
       style="display:inline;fill:#1c1f24;fill-opacity:1;stroke:#000000;stroke-width:1.5;stroke-linecap:round;stroke-linejoin:round;stroke-opacity:1"
       d="m 142.13483,159.26267 c 13.33129,2.26774 43.99799,0.34164 50.58275,2.13371 4.28225,1.16543 16.05365,10.92434 17.21134,20.67489 0.81513,6.86539 3.90048,47.44662 0.39353,62.34906 -3.88226,16.49724 -10.29063,55.04526 -14.23391,68.33192 -4.88172,16.44867 -3.97166,95.15746 -7.32026,108.73792 l -25.02583,-90.05851 3.28664,-142.11046 z"
       id="path17367"
       inkscape:connector-curvature="0"
       sodipodi:nodetypes="csssscccc" />
    <path
       style="display:inline;fill:#dbdee3;stroke:none;stroke-width:1.5;stroke-linecap:round;stroke-linejoin:round"
       d="m 173.66171,209.31377 -73.59798,16.81373 63.56592,98.69209 z"
       id="path4684-5-8-1-0"
       inkscape:connector-curvature="0"
       sodipodi:nodetypes="cccc" />
    <path
       style="display:inline;fill:#550000;stroke:#000000;stroke-width:1.5;stroke-linecap:round;stroke-linejoin:round;stroke-opacity:1"
       d="m 155.57165,239.50931 c 9.66061,43.10708 13.59528,88.61555 17.06553,116.61445 l -10.57594,33.49431 -18.18599,-23.58925 c -0.70915,-26.11169 2.29832,-75.0782 0.27082,-124.74842 z"
       id="path6770-0-1-04-1-9-6"
       inkscape:connector-curvature="0"
       sodipodi:nodetypes="cccccc" />
    <path
       style="display:inline;fill:#550000;stroke:#000000;stroke-width:1.5;stroke-linecap:round;stroke-linejoin:round;stroke-opacity:1"
       d="m 153.54482,211.80699 -13.01482,1.22616 -6.07324,10.40369 c 4.43538,7.4235 5.75222,12.39366 9.64123,18.7559 4.52998,1.07477 9.23785,1.73917 11.71131,-2.47831 2.22387,-6.27365 6.99065,-12.89959 6.91834,-21.02492 z"
       id="path6768-9-7-2-7-4-5"
       inkscape:connector-curvature="0"
       sodipodi:nodetypes="ccccccc" />
    <path
       style="display:inline;fill:#dbdbe3;stroke:#000000;stroke-width:1.5;stroke-linecap:round;stroke-linejoin:round;stroke-opacity:1"
       d="m 77.891297,180.77314 c 0.340835,9.0891 31.701523,44.09824 47.088973,66.15601 8.04968,-15.30525 16.85157,-28.82315 22.661,-35.11339 -18.35896,-8.90887 -61.559068,-32.32741 -61.93414,-50.02153 -2.30374,4.42853 -7.976403,14.69696 -7.815833,18.97891 z m 82.887753,-2.22881 c 1.45454,9.87846 -5.96121,26.39107 -10.70858,33.05175 3.48303,0.55342 12.1434,14.58299 18.33127,24.87412 -1.46781,-33.4088 -3.76356,-51.76123 -5.82972,-59.96657 l -17.70923,-22.1167 c 3.0198,2.31858 13.52207,7.89733 15.91626,24.1574 z"
       id="path6762-7-7-9-4-2-0"
       inkscape:connector-curvature="0"
       sodipodi:nodetypes="scccssccccs"
       inkscape:transform-center-x="19.56642" />
    <path
       style="display:inline;fill:#1c1f24;fill-opacity:1;stroke:#000000;stroke-width:1.5;stroke-linecap:round;stroke-linejoin:round;stroke-opacity:1"
       d="m 88.074628,247.6724 26.975802,10.03909 2.27655,-19.68067 C 106.16306,221.44195 80.365622,180.60063 83.540905,166.396 c -3.39818,3.10707 -5.145332,8.23921 -6.442044,11.23712 z"
       id="path1031"
       inkscape:connector-curvature="0"
       sodipodi:nodetypes="cccccc" />
    <path
       style="display:inline;fill:#1c1f24;stroke:#000000;stroke-width:1.5;stroke-linecap:round;stroke-linejoin:round;stroke-opacity:1"
       d="m 49.357171,453.28224 c 7.54615,2.97603 75.010509,16.11578 108.056209,4.15084 8.62603,-3.1233 7.19531,-3.42107 12.06522,-11.91318 4.90283,-8.54959 -0.65348,-83.49526 -4.67712,-93.38877 -7.83993,-19.2772 -21.74614,-75.86961 -47.4745,-114.10031 l -21.217695,25.22813 65.869525,89.45269"
       id="path15188"
       inkscape:connector-curvature="0"
       sodipodi:nodetypes="cccsccc" />
    <path
       style="display:inline;fill:#1c1f24;fill-opacity:1;stroke:#000000;stroke-width:1.5;stroke-linecap:round;stroke-linejoin:round;stroke-opacity:1"
       d="m 181.03093,214.20057 -3.80578,16.46268 -9.48051,-8.77631 c -5.33233,-34.98516 -2.80594,-57.61799 -28.9016,-70.45438 l 7.89856,5.09444 c 13.8393,11.66152 24.73287,32.46473 34.28933,57.67357 z"
       id="path1035"
       inkscape:connector-curvature="0"
       sodipodi:nodetypes="cccccc" />
    <path
       style="display:inline;fill:#1c1f24;fill-opacity:1;stroke:#000000;stroke-width:1.5;stroke-linecap:round;stroke-linejoin:round;stroke-opacity:1"
       d="m 163.17594,343.88985 26.2222,-114.24949 -21.6535,-7.75342 c 3.78258,46.67752 -6.24888,96.49865 -9.51437,122.70979 -1.47553,11.84369 4.51867,96.3075 4.92426,102.07018 0.58648,8.33609 -0.0977,6.56852 5.51751,5.98186 8.01205,-0.83709 17.14957,-19.20764 20.09624,-31.1586"
       id="path17369"
       inkscape:connector-curvature="0"
       sodipodi:nodetypes="cccsccc" />
    <path
       style="display:inline;opacity:0.95;fill:#241c1c;stroke:#000000;stroke-width:1.5;stroke-linecap:round;stroke-linejoin:round"
       d="m 218.25113,126.65133 -28.60357,-17.2263 c -7.20452,-4.33888 -16.46881,12.86682 -19.57888,20.95404 -1.57347,4.09159 3.80043,6.26276 6.54113,0.61708 2.74473,-5.65395 6.14976,-22.90581 11.7166,-18.96639 l 27.8299,19.69406 z"
       id="path6641-9-6-4"
       inkscape:connector-curvature="0"
       sodipodi:nodetypes="csssscc" />
    <path
       style="fill:#1c1f24;stroke:#000000;stroke-width:1.5;stroke-linecap:round;stroke-linejoin:round;stroke-opacity:1"
       d="m 282.1143,313.16523 c 12.15327,11.25465 33.62592,-29.60467 22.5599,-51.00781 0,0 -17.55289,-59.95349 -27.73809,-85.5737 -7.28867,-18.33417 -41.4693,15.19386 -37.79789,28.40437 7.58323,27.28608 27.8491,79.85355 27.8491,79.85355"
       id="path17487"
       inkscape:connector-curvature="0"
       sodipodi:nodetypes="csssc" />
    <path
       style="display:inline;fill:#000000;stroke:none;stroke-width:1.5;stroke-linecap:round;stroke-linejoin:round"
       d="m 274.75648,175.51084 c 4.83837,15.72775 -10.34987,41.6094 -23.1381,43.51785 -4.59235,0.68534 -9.52368,-11.07081 -10.7352,-15.67651 -3.18704,-12.11572 30.13021,-40.00876 33.8733,-27.84134 z"
       id="path3357-0-8-6-7-0-2-0-1-8-7"
       inkscape:connector-curvature="0"
       sodipodi:nodetypes="ssss" />
    <path
       style="display:inline;fill:#dbdee3;fill-opacity:1;stroke:#000000;stroke-width:1.5;stroke-linecap:round;stroke-linejoin:round"
       d="m 272.21512,172.65751 3.61984,8.79666 c 3.3412,8.11953 -8.12775,25.27358 -17.83937,30.16835 -4.48856,2.26229 -9.44213,1.23349 -10.87661,-3.30996 l -4.74733,-15.03628 c -4.47371,-14.16966 25.69287,-30.70524 29.84347,-20.61877 z"
       id="path3357-0-8-6-7-0-2-0-1-8-7-1"
       inkscape:connector-curvature="0"
       sodipodi:nodetypes="ssssss" />
    <path
       style="display:inline;fill:#000000;stroke:none;stroke-width:1.5;stroke-linecap:round;stroke-linejoin:round"
       d="m 270.9212,173.65284 c 2.28513,11.39142 -9.14006,26.23655 -17.67798,29.17513 -5.88831,2.02664 -8.1552,-6.97278 -9.29334,-10.48256 -4.40754,-13.59181 25.1,-28.02115 26.97132,-18.69257 z"
       id="path3357-0-8-6-7-0-2-0-1-8-7-6"
       inkscape:connector-curvature="0"
       sodipodi:nodetypes="ssss" />
    <g
       id="g40012"
       transform="translate(-9.0682352)">
      <path
         sodipodi:nodetypes="cssssssssssssc"
         inkscape:connector-curvature="0"
         id="path6635-6-9-1-1-7-5-8-3-9"
         d="m 98.98866,148.95982 c 0.90619,3.11951 3.24536,9.7137 5.56777,13.83707 1.83616,3.26004 33.68475,24.62606 49.30133,30.27473 4.57522,1.6549 16.04717,1.47334 21.35307,-6.59448 4.40529,-6.69842 6.78993,-14.98017 8.95221,-19.9201 2.62887,-6.00592 9.78174,-23.47332 10.3106,-32.95056 0.2002,-3.58697 0.87405,-11.64965 0.84395,-16.13493 -0.0251,-3.74011 2.93643,-14.84194 3.4104,-18.118438 0.69859,-4.82858 -1.45548,-10.30772 -1.90129,-14.68648 -0.81547,-8.00938 -6.36105,-20.08644 -9.38076,-25.64979 -6.48811,-11.95335 -30.17866,-27.817126 -54.17017,-25.382066 -29.06164,2.94966 -48.055377,25.819635 -53.222987,48.623855 -1.75727,7.75469 -3.553103,36.836999 -0.292873,43.071529 2.21501,4.23587 15.703427,26.13279 17.185737,32.74581"
         style="display:inline;fill:#deaa87;stroke:#000000;stroke-width:1.5;stroke-linecap:round;stroke-linejoin:round;stroke-opacity:1" />
      <path
         sodipodi:nodetypes="cc"
         inkscape:connector-curvature="0"
         id="path4597-2-1"
         d="m 180.55638,141.65287 c 1.11509,4.27044 -0.0634,5.92088 -1.46887,7.67076"
         style="display:inline;fill:none;stroke:#916f6f;stroke-width:1.5;stroke-linecap:round;stroke-linejoin:round;stroke-opacity:1" />
      <path
         sodipodi:nodetypes="ssscsscscsccssscccccssssccscccssssssssssss"
         inkscape:connector-curvature="0"
         id="path5573-3-9-8-0-5-1-4"
         d="m 193.53588,122.63912 c 0.01,-4.14888 -1.46586,-6.37115 -2.47235,-4.59232 -1.69493,2.99555 -3.11035,6.88872 -5.32035,7.76777 -2.57584,1.02457 -6.59951,-1.90213 -9.32096,-3.61884 -0.92816,1.40052 1.26283,12.70212 4.16289,20.88217 0.71386,2.01355 0.8826,5.76278 -1.40463,7.57929 -1.37275,1.09023 -3.5401,3.28567 -5.85951,6.33145 0.97253,-2.84473 1.0826,-4.91169 -0.21887,-4.618 -1.08294,0.24438 -2.79955,1.29137 -3.35223,3.54904 -1.35082,-1.74543 -5.14111,-1.40316 -4.8716,-2.5143 0.2679,-1.10453 4.46559,-2.39289 7.88512,-2.91625 h -3e-5 c 0.84957,0.52507 3.62741,0.68697 4.87574,-1.26035 1.52871,-2.3847 1.12849,-4.27944 0.77327,-5.81503 -1.9402,-8.38721 -5.70511,-21.90027 -5.70476,-24.00768 1.6e-4,-1.02951 0.97032,-8.54176 5.37667,-8.66492 -0.94997,1.6832 -3.69622,5.73107 -2.308,7.82355 l 16.21327,-6.55214 c 1.44446,-1.88181 1.98197,-7.13813 -3.79002,-8.98168 1.02705,-0.42394 5.11707,-2.74919 6.34512,-2.46964 0.83103,-9.920187 -1.9874,-24.812523 -6.10179,-33.493846 -8.8768,-18.729956 -31.71131,-30.891143 -49.5451,-32.032961 -11.87876,-0.760544 -24.51042,6.57502 -28.55778,15.527755 -7.60259,16.816924 7.18509,40.567335 13.33519,51.949982 3.28542,6.08067 11.87003,9.09049 13.31751,10.4127 l 15.60915,0.51677 c -4.38945,-0.60688 -10.0432,0.249 -12.5407,2.20158 -3.15913,2.46985 -3.23584,6.96998 -2.57583,7.88945 l 20.95142,-2.31792 c 0.68047,-3.53926 1.23653,-4.69567 -3.10934,-8.19143 4.48538,0.34219 6.74298,-3.82442 9.90309,-3.04348 1.03657,0.25616 -0.66337,7.17189 -0.66569,8.69945 -0.005,3.29261 -0.74785,9.37287 -3.87953,7.0693 -3.18666,-2.344 -4.99864,6.2182 -11.07692,8.03954 -2.8683,0.85947 -10.94726,-3.74276 -12.53021,-2.71675 -2.36191,1.53091 -4.02051,5.28055 -4.80681,8.52897 -0.59672,2.46523 4.51847,16.07432 10.6281,30.07715 3.73468,8.5596 9.73993,19.44126 14.69361,21.57193 5.0822,2.18594 11.35108,-0.51664 13.8423,-2.78467 3.53645,-3.21963 5.93494,-9.80801 8.27108,-14.66142 3.82479,-7.94616 7.30879,-17.49059 9.34552,-24.49997 3.23624,-11.13745 4.45603,-14.76741 4.48396,-26.66425 z"
         style="display:inline;fill:#e9c6af;stroke:none;stroke-width:1.5;stroke-linecap:round;stroke-linejoin:round" />
      <path
         style="display:inline;fill:#fefefe;fill-opacity:1;stroke:none;stroke-width:1.5;stroke-linecap:round;stroke-linejoin:round"
         d="m 154.94254,118.7925 -12.17623,1.89865 -5.6124,2.43687 12.93987,3.77485 8.47727,-5.51848 z"
         id="path3353-4-1-2-2-4-9-8-7-7-3"
         inkscape:connector-curvature="0"
         sodipodi:nodetypes="cccccc" />
      <path
         style="display:inline;fill:#fefefe;fill-opacity:1;stroke:none;stroke-width:1.5;stroke-linecap:round;stroke-linejoin:round"
         d="m 179.96709,113.81034 -3.66871,4.41755 8.15697,0.57314 8.36029,-6.6603 -2.3303,-0.5439 z"
         id="path3337-0-4-0-1-8-6-9-1-5-9"
         inkscape:connector-curvature="0"
         sodipodi:nodetypes="cccccc" />
      <path
         sodipodi:nodetypes="cssc"
         inkscape:connector-curvature="0"
         id="path3339-7-3-9-4-5-5-0-8-8"
         d="m 158.57105,121.38439 c -1.37152,1.0454 -3.05533,4.66625 -4.4947,5.12911 -1.79076,0.57585 -5.51951,1.07416 -7.91832,1.15295 -2.27576,0.0747 -6.68372,-3.52164 -9.00412,-4.53843"
         style="display:inline;fill:#fefefe;fill-opacity:1;stroke:#916f6f;stroke-width:1.5;stroke-linecap:round;stroke-linejoin:round;stroke-opacity:1" />
      <path
         sodipodi:nodetypes="cssc"
         inkscape:connector-curvature="0"
         id="path3355-7-9-3-0-3-7-6-7-0"
         d="m 192.81564,112.14073 c -0.75737,1.7184 -2.44261,5.77301 -3.67564,6.36735 -0.83866,0.40424 -5.47682,2.57986 -7.77294,2.52982 -0.78961,-0.0172 -4.5994,-2.35479 -5.06868,-2.81001"
         style="display:inline;fill:#fefefe;fill-opacity:1;stroke:#916f6f;stroke-width:1.5;stroke-linecap:round;stroke-linejoin:round;stroke-opacity:1" />
      <path
         sodipodi:nodetypes="csccc"
         inkscape:connector-curvature="0"
         id="path3357-0-8-6-7-0-2-0-1-8"
         d="m 186.85753,111.8072 c 0.18265,2.78735 -1.83743,6.24299 -4.05382,7.05117 -2.54195,0.9269 -4.1136,-1.80902 -4.43716,-3.40729 l 2.32839,-2.05666 z"
         style="display:inline;fill:#2b0000;stroke:none;stroke-width:1.5;stroke-linecap:round;stroke-linejoin:round" />
      <path
         sodipodi:nodetypes="csccc"
         inkscape:connector-curvature="0"
         id="path6629-0-6-3-5-0-4-2-4-8"
         d="m 175.33854,109.27251 c -0.39917,2.9254 -2.95506,9.29095 -2.86608,11.33604 0.15994,3.67641 5.81791,20.7995 6.41612,22.6724 m -5.81872,7.03475 c -2.07803,0.73668 -6.65753,1.37382 -8.2863,3.02829"
         style="display:inline;fill:none;stroke:#000000;stroke-width:1.5;stroke-linecap:round;stroke-linejoin:round;stroke-opacity:1" />
      <path
         sodipodi:nodetypes="sssssssss"
         inkscape:connector-curvature="0"
         id="path6633-4-0-6-4-8-5-4-2-2"
         d="m 175.46223,154.5339 c -1.03245,-0.59873 -1.69273,1.59952 -4.34685,1.99188 -3.5948,0.53131 -4.90443,-0.95712 -6.10817,-0.36416 -5.08028,2.50312 -16.29968,10.29533 -17.28181,12.85611 -0.99224,2.58691 0.74322,6.67364 2.30766,6.11017 5.0412,-1.81575 13.86187,-5.97324 18.99203,-6.72424 7.25879,-1.0626 10.28087,-0.59033 13.57181,-1.41585 0.72854,-0.18271 2.26295,-5.59396 1.21675,-6.97117 -1.51627,-1.99601 -6.78041,-4.57167 -8.35142,-5.48274 z"
         style="display:inline;fill:#000000;stroke:none;stroke-width:1.5;stroke-linecap:round;stroke-linejoin:round" />
      <path
         sodipodi:nodetypes="cc"
         inkscape:connector-curvature="0"
         id="path6643-0-0-5-2-6-1-6-2-1"
         d="m 164.80231,109.76036 c 0.259,1.61696 0.25547,4.38447 -0.36445,6.14094"
         style="display:inline;fill:none;stroke:#000000;stroke-width:1.5;stroke-linecap:round;stroke-linejoin:round;stroke-opacity:1" />
      <path
         sodipodi:nodetypes="ssssss"
         inkscape:connector-curvature="0"
         id="path6645-7-0-4-0-3-7-5-2-3"
         d="m 159.35691,116.18948 c -4.31296,0.8611 -7.29252,-2.19089 -14.83274,-2.52286 -5.91428,-0.26039 -17.70928,1.07946 -15.34683,0.22833 4.3913,-1.58206 9.89074,-1.9866 16.1495,-2.16088 3.72374,-0.10407 6.57082,0.56602 10.61221,0.75263 3.29242,0.15204 11.53326,2.08249 3.41786,3.70278 z"
         style="display:inline;fill:#000000;stroke:none;stroke-width:1.5;stroke-linecap:round;stroke-linejoin:round" />
      <path
         sodipodi:nodetypes="sssss"
         inkscape:connector-curvature="0"
         id="path6647-1-6-2-0-5-1-0-1-5"
         d="m 196.64153,99.537079 c -1.20245,-0.36833 -8.77694,3.100861 -11.80369,4.683071 -3.55183,1.85668 -10.22918,6.68556 -8.75988,7.11012 4.37893,1.26532 6.27892,-2.51681 9.71675,-5.59605 3.42065,-3.06385 12.35564,-5.734981 10.84682,-6.197141 z"
         style="display:inline;fill:#000000;stroke:none;stroke-width:1.5;stroke-linecap:round;stroke-linejoin:round" />
      <path
         sodipodi:nodetypes="cc"
         inkscape:connector-curvature="0"
         id="path6649-7-1-0-1-6-1-9-6-9"
         d="m 157.58946,145.43033 c -0.78138,2.16435 -0.94204,6.34102 2.00297,7.3429"
         style="display:inline;fill:none;stroke:#000000;stroke-width:1.5;stroke-linecap:round;stroke-linejoin:round;stroke-opacity:1" />
      <path
         sodipodi:nodetypes="cssc"
         inkscape:connector-curvature="0"
         id="path3353-3-3-7-7-9-6-1-6-7"
         d="m 194.5796,112.61381 c -1.14178,-0.54888 -3.25259,-1.12188 -4.09426,-1.01698 -1.26083,0.15714 -8.20324,0.96908 -10.51825,2.21351 -1.29564,0.69647 -2.52598,3.23968 -4.51767,5.40412"
         style="display:inline;fill:none;stroke:#000000;stroke-width:1.5;stroke-linecap:round;stroke-linejoin:round;stroke-opacity:1" />
      <path
         sodipodi:nodetypes="sssss"
         inkscape:connector-curvature="0"
         id="path6710-3-4-7-4-0-6-2-4-9-6"
         d="m 159.08951,174.84116 c -0.50651,-1.63054 3.97329,-2.99294 7.62066,-4.02235 3.79191,-1.07019 5.83949,-0.37655 5.68034,0.96231 -0.31413,2.64279 -2.4885,4.18767 -5.53356,5.47471 -3.5228,1.48896 -7.0104,0.0228 -7.76744,-2.41467 z"
         style="display:inline;fill:#deaa87;stroke:none;stroke-width:1.5;stroke-linecap:round;stroke-linejoin:round" />
      <path
         sodipodi:nodetypes="sccs"
         inkscape:connector-curvature="0"
         id="path3357-1-2-4-7-5-3-8-6-6-7"
         d="m 147.42579,125.19933 c -2.78991,0.33483 -4.68968,-2.18961 -5.07021,-4.57517 l 9.81216,-1.40682 c 0.29686,3.41239 -1.95581,5.64759 -4.74195,5.98199 z"
         style="display:inline;fill:#2b0000;stroke:none;stroke-width:1.5;stroke-linecap:round;stroke-linejoin:round" />
      <path
         sodipodi:nodetypes="cssc"
         inkscape:connector-curvature="0"
         id="path3337-7-8-7-6-8-2-0-5-4"
         d="m 159.27679,122.04667 c -1.26873,-0.75091 -2.63198,-3.25424 -4.33425,-3.25417 -2.6159,1.7e-4 -7.69437,0.58221 -12.17623,1.5246 -2.09922,0.44139 -4.54626,2.09194 -7.16639,3.61594"
         style="display:inline;fill:none;stroke:#000000;stroke-width:1.5;stroke-linecap:round;stroke-linejoin:round;stroke-opacity:1" />
    </g>
    <g
       id="g1363"
       transform="translate(-9.0682352)">
      <path
         sodipodi:nodetypes="cssccccc"
         inkscape:connector-curvature="0"
         id="path1263"
         d="m 250.94035,169.43779 c 3.09788,6.52038 3.11694,16.60159 4.12267,22.2273 2.81591,15.75131 27.69951,-0.56424 23.04951,-15.22466 l -3.25739,-10.26983 -9.66141,-31.42862 -20.87485,-7.00549 -5.16971,13.08757 z"
         style="display:inline;fill:#deaa87;stroke:#000000;stroke-width:1.5;stroke-linecap:round;stroke-linejoin:round;stroke-opacity:1" />
      <path
         inkscape:connector-curvature="0"
         id="path3578-3-6"
         d="m 241.8252,137.88165 c -2.12622,-1.07485 -10.58313,-3.54333 -11.4557,-4.81806 -1.80361,-3.18212 -8.16879,-4.95419 -9.84089,-5.22376 -2.23171,-0.35979 -3.96529,0.50754 -3.7765,3.51928 0.28407,4.5318 7.58313,8.09768 10.39154,9.66743 1.30102,1.86458 4.64386,5.00686 6.46013,7.40021 1.70843,10.29554 9.20443,20.94502 20.44826,21.37016"
         style="display:inline;fill:#deaa87;stroke:#000000;stroke-width:1.5;stroke-linecap:round;stroke-linejoin:round;stroke-opacity:1" />
      <path
         sodipodi:nodetypes="cc"
         inkscape:connector-curvature="0"
         id="path3576-1"
         d="m 247.21933,145.60581 c 1.51298,3.05575 6.08654,6.30845 8.98575,11.18349"
         style="display:inline;fill:#deaa87;stroke:#000000;stroke-width:1.5;stroke-linecap:round;stroke-linejoin:round;stroke-opacity:1" />
      <path
         sodipodi:nodetypes="cc"
         inkscape:connector-curvature="0"
         id="path3576-1-6"
         d="m 261.41193,141.9874 c -1.00745,2.70642 -6.87129,18.00914 -4.31828,24.58787"
         style="display:inline;fill:#deaa87;stroke:#000000;stroke-width:1.5;stroke-linecap:round;stroke-linejoin:round;stroke-opacity:1" />
    </g>
    <g
       id="g1251"
       transform="matrix(0.99352835,-0.00982847,-0.16305051,1.0081268,12.630743,1.9098739)"
       style="stroke-width:1.5">
      <path
         sodipodi:nodetypes="cssccsssscc"
         inkscape:connector-curvature="0"
         id="path6627-9-63"
         d="m 227.63058,125.95511 c -2.62061,-0.28999 -15.75579,3.74559 -20.93635,5.62363 -3.67209,1.33122 -7.3883,2.5511 -11.10114,2.30734 -9.22722,-0.6058 -26.44504,3.61117 -36.2176,5.57346 -1.31691,1.98113 -1.76164,2.77773 -2.02471,4.01698 8.36515,4.56022 16.90554,6.93053 23.32665,7.27931 4.78407,0.25983 12.51546,-6.43593 14.84026,-8.27809 1.28555,-1.01868 5.51177,-1.91582 6.57669,-1.42221 2.34289,1.08597 6.21684,6.14823 10.8302,4.45589 3.72203,-1.36534 10.49702,-7.38126 13.8015,-12.73148 0.43535,-1.20182 0.90672,-4.68762 0.9045,-6.82483 z"
         style="display:inline;opacity:0.85;fill:#280b0b;stroke:#000000;stroke-width:1.5;stroke-linecap:round;stroke-linejoin:round" />
      <path
         sodipodi:nodetypes="csssscc"
         inkscape:connector-curvature="0"
         id="path6641-9-6"
         d="m 160.06143,139.52842 -45.44611,-18.17395 c -8.54801,-3.41836 -6.52088,8.19808 -8.33759,16.20237 -0.91914,4.04966 2.17802,4.99276 2.61287,1.94423 0.83132,-5.82803 -2.00393,-18.69241 4.81753,-15.5717 l 45.06852,20.61813 z"
         style="display:inline;opacity:0.95;fill:#241c1c;stroke:#000000;stroke-width:1.5;stroke-linecap:round;stroke-linejoin:round" />
    </g>
    <g
       id="g1259"
       style="stroke-width:1.5"
       transform="translate(-9.0682352)">
      <path
         sodipodi:nodetypes="csssc"
         inkscape:connector-curvature="0"
         id="path6637-1-1-2-1-4-1-3-1-6"
         d="m 96.29279,148.32421 c -2.07152,-3.32459 -9.59082,1.08805 -12.14405,-7.88435 -0.99634,-3.50124 -5.1486,-8.49272 -6.65121,-16.71609 -1.4644,-8.01424 1.16492,-13.57981 4.76436,-14.74526 4.91649,-1.5919 9.44593,2.34683 11.86229,5.22481"
         style="display:inline;fill:#deaa87;stroke:#000000;stroke-width:1.5;stroke-linecap:round;stroke-linejoin:round;stroke-opacity:1" />
      <path
         sodipodi:nodetypes="csssssssc"
         inkscape:connector-curvature="0"
         id="path6639-8-8-6-7-8-4-8-8-3"
         d="m 86.01211,135.82641 c 1.1433,-2.41978 4.46308,-4.93209 5.17034,-8.3937 0.67017,-3.28002 1.63428,-5.91757 0.83656,-8.10557 -1.20668,-3.30964 -5.58399,-7.36217 -8.08483,-6.9171 -2.00547,0.3569 -2.87088,3.48025 -3.44877,6.97723 -1.41652,8.57163 3.12622,15.43792 6.89291,17.21964 2.3204,1.09759 6.17241,5.7399 7.14346,3.92827 0.95183,-1.77589 -1.73427,-4.93979 -2.03637,-6.60102 -0.18204,-1.00088 2.12657,-4.52782 2.38464,-7.10893"
         style="display:inline;opacity:0.95;fill:none;stroke:#000000;stroke-width:1.5;stroke-linecap:round;stroke-linejoin:round;stroke-opacity:1" />
    </g>
    <g
       id="g1357"
       transform="translate(-9.0682352)">
      <path
         sodipodi:nodetypes="cssssccc"
         inkscape:connector-curvature="0"
         id="path15128"
         d="m 249.67375,125.05065 c -0.55616,-4.74633 -4.20222,-14.4967 -6.85674,-14.28465 -4.83456,0.38618 -14.84215,2.76683 -16.73585,4.3706 -2.09421,1.77354 -9.05325,9.63966 -8.89157,11.01782 0.24145,2.05832 1.73575,3.07443 3.32991,2.31716 1.48547,-0.70564 8.73209,-5.6899 9.95311,-8.061 1.81009,0.0353 7.72006,-0.91124 9.15546,-2.3475 0.75496,1.89221 -0.0548,14.08864 1.97828,16.63597"
         style="display:inline;fill:#deaa87;stroke:#000000;stroke-width:1.5;stroke-linecap:round;stroke-linejoin:round;stroke-opacity:1" />
      <path
         sodipodi:nodetypes="ssscccss"
         inkscape:connector-curvature="0"
         id="path3357-0-8-6-7-0-2-0-1-8-9-61"
         d="m 218.55628,125.4247 c 0.78983,-1.75646 7.06603,-8.4092 8.37588,-9.63838 0.91228,-0.85609 10.47488,-3.42294 15.70434,-3.92499 1.67496,-0.16081 3.15911,3.59728 3.9509,5.46004 -2.50768,-1.21336 -3.6223,-1.44804 -4.19964,-2.03163 -2.68862,1.1109 -10.58379,2.63937 -13.34731,3.29323 -1.37966,1.61848 -6.22922,6.81504 -8.69954,8.27477 -1.267,0.74869 -2.42149,-0.0168 -1.78463,-1.43304 z"
         style="display:inline;fill:#e9c6af;stroke:none;stroke-width:1.5;stroke-linecap:round;stroke-linejoin:round" />
      <path
         sodipodi:nodetypes="csssssccc"
         inkscape:connector-curvature="0"
         id="path3578-3"
         d="m 268.17577,133.76001 c -0.69139,-0.92338 -7.44847,-13.06669 -9.24138,-14.20573 -5.01325,-3.18495 -10.57281,-6.68633 -12.52806,-6.53013 -4.83457,0.38623 -10.63183,8.07499 -12.64128,10.93455 -1.53879,2.18972 -2.07801,10.47365 -1.91635,11.85178 0.24145,2.05831 2.10512,1.99793 3.69928,1.24064 1.48548,-0.70562 4.45314,-8.04505 4.7482,-10.73009 1.81007,-0.9065 6.69172,-2.42569 8.12713,-3.86191 0.75495,1.8922 7.8099,8.14949 9.13212,9.85307"
         style="display:inline;fill:#deaa87;stroke:#000000;stroke-width:1.5;stroke-linecap:round;stroke-linejoin:round;stroke-opacity:1" />
      <path
         sodipodi:nodetypes="sssssss"
         inkscape:connector-curvature="0"
         id="path3357-0-8-6-7-0-2-0-1-8-9-6"
         d="m 262.90951,126.80886 c -1.76815,-1.45052 -14.31209,-9.6085 -16.39991,-8.84388 -2.18123,0.79882 -5.94341,5.62699 -8.42726,7.36585 -0.579,0.40534 -2.97863,0.60283 -3.17078,-0.62636 -0.19322,-1.23605 6.89603,-9.43494 10.82283,-10.49626 2.49252,-0.67368 11.16809,5.23446 12.42925,6.06458 1.75302,1.15387 6.80479,8.22512 4.74587,6.53607 z"
         style="display:inline;fill:#e9c6af;stroke:none;stroke-width:1.5;stroke-linecap:round;stroke-linejoin:round" />
      <path
         sodipodi:nodetypes="cssssscc"
         inkscape:connector-curvature="0"
         id="path3578"
         d="m 267.82512,133.93235 c 0.23774,-4.07528 -9.49013,-12.03715 -11.81332,-14.29909 -2.05035,-1.99628 -5.69609,-2.32806 -6.52933,-2.20481 -3.50797,0.51888 -8.04967,6.98817 -10.05912,9.84775 -1.5388,2.18973 -4.94899,15.15534 -4.78733,16.53348 0.24145,2.05832 2.44711,2.90795 4.04129,2.15069 1.48549,-0.70565 7.64596,-11.948 7.941,-14.63305 1.8101,-0.9065 5.82169,-5.262 7.25709,-6.69823"
         style="display:inline;fill:#deaa87;stroke:#000000;stroke-width:1.5;stroke-linecap:round;stroke-linejoin:round;stroke-opacity:1" />
      <path
         sodipodi:nodetypes="sssssss"
         inkscape:connector-curvature="0"
         id="path3357-0-8-6-7-0-2-0-1-8-9"
         d="m 260.18258,125.64948 c -2.09661,-0.91357 -6.14494,-4.35149 -8.23276,-3.58687 -2.18123,0.79882 -6.78829,5.81474 -9.27214,7.5536 -0.57899,0.40534 -2.03987,0.22733 -2.23202,-1.00185 -0.19323,-1.23606 4.84236,-8.30447 8.56981,-9.93302 1.54192,-0.67368 4.56725,0.49941 5.82841,1.32953 1.75301,1.15387 7.49149,6.57666 5.3387,5.63861 z"
         style="display:inline;fill:#e9c6af;stroke:none;stroke-width:1.5;stroke-linecap:round;stroke-linejoin:round" />
      <path
         sodipodi:nodetypes="csssscccc"
         inkscape:connector-curvature="0"
         id="path1116"
         d="m 274.66887,167.24663 c -0.29377,-6.0392 -2.28461,-24.32262 -3.40847,-28.7197 -1.42128,-5.56072 -8.92665,-10.37979 -11.39806,-12.585 -1.45738,-1.30039 -4.52134,-2.59077 -6.07892,-2.65395 -1.87164,-0.076 -9.59389,8.59498 -11.12594,9.92699 -1.67322,1.45473 -4.96042,15.10873 -4.6434,16.62003 0.278,1.32511 2.3756,2.23972 3.51929,1.47996 3.14062,-2.08629 5.62819,-11.49531 7.03306,-13.78472 3.17411,-1.34858 6.09854,-3.16317 8.19391,-4.90071"
         style="display:inline;fill:#deaa87;stroke:#000000;stroke-width:1.5;stroke-linecap:round;stroke-linejoin:round;stroke-opacity:1" />
      <path
         sodipodi:nodetypes="cc"
         inkscape:connector-curvature="0"
         id="path3576"
         d="m 255.66686,133.48517 c 0.76824,2.06828 3.56369,5.99929 5.24985,9.05338"
         style="display:inline;fill:#deaa87;stroke:#000000;stroke-width:1.5;stroke-linecap:round;stroke-linejoin:round;stroke-opacity:1" />
      <path
         sodipodi:nodetypes="sssssssccsssss"
         inkscape:connector-curvature="0"
         id="path3357-0-8-6-7-0-2-0-1-8-8"
         d="m 269.87857,137.57015 c 1.80721,2.98821 2.23309,22.36014 3.66865,29.50521 0.11647,0.57971 0.008,0.65416 0.84049,1.19613 0.50736,0.33013 1.54941,4.7323 2.84908,9.75663 1.331,5.14545 -6.5221,14.55619 -7.1118,14.42022 -1.02101,-0.23541 -1.79202,-25.10497 -2.49411,-25.99994 -1.68141,-2.14333 -2.58364,-7.15125 -2.7176,-9.80634 -0.39877,-7.90403 -0.44699,-13.03487 -0.17765,-16.44731 -0.86614,-0.88958 -6.86255,-9.70101 -8.11166,-10.79074 -2.71953,1.83611 -8.35194,5.11218 -10.56237,6.42781 -2.04798,1.21895 -3.35112,-1.30407 -2.65223,-1.96978 2.17356,-2.07034 8.32455,-9.13884 10.4109,-9.64451 0.94235,-0.2284 2.39326,0.48969 3.74508,1.38458 4.48236,2.96727 10.97503,9.75533 12.31322,11.96804 z"
         style="display:inline;fill:#e9c6af;stroke:none;stroke-width:1.5;stroke-linecap:round;stroke-linejoin:round" />
    </g>
  </g>
  <g
     inkscape:groupmode="layer"
     id="layer7"
     inkscape:label="枠面"
     style="display:inline"
     sodipodi:insensitive="true">
    <path
       style="fill:#ffffff;stroke:none;display:inline"
       d="m 0,0 0,320 370,0 0,-320 -10,10 0,300 -350,0 0,-300 350,0 10,-10 z"
       id="path21072"
       inkscape:connector-curvature="0"
       sodipodi:nodetypes="ccccccccccc" />
  </g>
</svg>
