<?xml version="1.0" encoding="UTF-8" standalone="no"?>
<!-- Created with Inkscape (http://www.inkscape.org/) -->

<svg
   xmlns:dc="http://purl.org/dc/elements/1.1/"
   xmlns:cc="http://creativecommons.org/ns#"
   xmlns:rdf="http://www.w3.org/1999/02/22-rdf-syntax-ns#"
   xmlns:svg="http://www.w3.org/2000/svg"
   xmlns="http://www.w3.org/2000/svg"
   xmlns:sodipodi="http://sodipodi.sourceforge.net/DTD/sodipodi-0.dtd"
   xmlns:inkscape="http://www.inkscape.org/namespaces/inkscape"
   width="370"
   height="320"
   id="svg2"
   version="1.1"
   inkscape:version="0.48.4 r9939"
   sodipodi:docname="[07.指摘].svg"
   inkscape:export-filename="C:\Users\root\Desktop\資料\作業\SANARO\ORG\[01.行動]03..png"
   inkscape:export-xdpi="90"
   inkscape:export-ydpi="90"
   enable-background="new">
  <defs
     id="defs4">
    <inkscape:perspective
       sodipodi:type="inkscape:persp3d"
       inkscape:vp_x="363.49708 : 943.81603 : 1"
       inkscape:vp_y="0 : 1000 : 0"
       inkscape:vp_z="744.09448 : 526.18109 : 1"
       inkscape:persp3d-origin="372.04724 : 350.78739 : 1"
       id="perspective5056" />
    <inkscape:perspective
       id="perspective5056-8"
       inkscape:persp3d-origin="372.04724 : 350.78739 : 1"
       inkscape:vp_z="744.09448 : 526.18109 : 1"
       inkscape:vp_y="0 : 1000 : 0"
       inkscape:vp_x="363.49708 : 943.81603 : 1"
       sodipodi:type="inkscape:persp3d" />
    <inkscape:perspective
       id="perspective5056-5"
       inkscape:persp3d-origin="372.04724 : 350.78739 : 1"
       inkscape:vp_z="744.09448 : 526.18109 : 1"
       inkscape:vp_y="0 : 1000 : 0"
       inkscape:vp_x="363.49708 : 943.81603 : 1"
       sodipodi:type="inkscape:persp3d" />
    <inkscape:perspective
       sodipodi:type="inkscape:persp3d"
       inkscape:vp_x="363.49708 : 943.81603 : 1"
       inkscape:vp_y="0 : 1000 : 0"
       inkscape:vp_z="744.09448 : 526.18109 : 1"
       inkscape:persp3d-origin="372.04724 : 350.78739 : 1"
       id="perspective5056-5-2" />
    <inkscape:perspective
       sodipodi:type="inkscape:persp3d"
       inkscape:vp_x="363.49708 : 943.81603 : 1"
       inkscape:vp_y="0 : 1000 : 0"
       inkscape:vp_z="744.09448 : 526.18109 : 1"
       inkscape:persp3d-origin="372.04724 : 350.78739 : 1"
       id="perspective5056-8-5" />
    <inkscape:perspective
       id="perspective5056-1"
       inkscape:persp3d-origin="372.04724 : 350.78739 : 1"
       inkscape:vp_z="744.09448 : 526.18109 : 1"
       inkscape:vp_y="0 : 1000 : 0"
       inkscape:vp_x="363.49708 : 943.81603 : 1"
       sodipodi:type="inkscape:persp3d" />
    <inkscape:perspective
       sodipodi:type="inkscape:persp3d"
       inkscape:vp_x="363.49708 : 943.81603 : 1"
       inkscape:vp_y="0 : 1000 : 0"
       inkscape:vp_z="744.09448 : 526.18109 : 1"
       inkscape:persp3d-origin="372.04724 : 350.78739 : 1"
       id="perspective5056-5-5" />
    <inkscape:perspective
       id="perspective5056-4"
       inkscape:persp3d-origin="372.04724 : 350.78739 : 1"
       inkscape:vp_z="744.09448 : 526.18109 : 1"
       inkscape:vp_y="0 : 1000 : 0"
       inkscape:vp_x="363.49708 : 943.81603 : 1"
       sodipodi:type="inkscape:persp3d" />
    <inkscape:perspective
       sodipodi:type="inkscape:persp3d"
       inkscape:vp_x="363.49708 : 943.81603 : 1"
       inkscape:vp_y="0 : 1000 : 0"
       inkscape:vp_z="744.09448 : 526.18109 : 1"
       inkscape:persp3d-origin="372.04724 : 350.78739 : 1"
       id="perspective5056-1-2" />
    <inkscape:perspective
       id="perspective5056-8-5-8"
       inkscape:persp3d-origin="372.04724 : 350.78739 : 1"
       inkscape:vp_z="744.09448 : 526.18109 : 1"
       inkscape:vp_y="0 : 1000 : 0"
       inkscape:vp_x="363.49708 : 943.81603 : 1"
       sodipodi:type="inkscape:persp3d" />
    <inkscape:perspective
       id="perspective5056-5-2-8"
       inkscape:persp3d-origin="372.04724 : 350.78739 : 1"
       inkscape:vp_z="744.09448 : 526.18109 : 1"
       inkscape:vp_y="0 : 1000 : 0"
       inkscape:vp_x="363.49708 : 943.81603 : 1"
       sodipodi:type="inkscape:persp3d" />
    <inkscape:perspective
       sodipodi:type="inkscape:persp3d"
       inkscape:vp_x="363.49708 : 943.81603 : 1"
       inkscape:vp_y="0 : 1000 : 0"
       inkscape:vp_z="744.09448 : 526.18109 : 1"
       inkscape:persp3d-origin="372.04724 : 350.78739 : 1"
       id="perspective5056-5-4" />
    <inkscape:perspective
       sodipodi:type="inkscape:persp3d"
       inkscape:vp_x="363.49708 : 943.81603 : 1"
       inkscape:vp_y="0 : 1000 : 0"
       inkscape:vp_z="744.09448 : 526.18109 : 1"
       inkscape:persp3d-origin="372.04724 : 350.78739 : 1"
       id="perspective5056-8-9" />
    <inkscape:perspective
       id="perspective5056-40"
       inkscape:persp3d-origin="372.04724 : 350.78739 : 1"
       inkscape:vp_z="744.09448 : 526.18109 : 1"
       inkscape:vp_y="0 : 1000 : 0"
       inkscape:vp_x="363.49708 : 943.81603 : 1"
       sodipodi:type="inkscape:persp3d" />
    <inkscape:perspective
       sodipodi:type="inkscape:persp3d"
       inkscape:vp_x="363.49708 : 943.81603 : 1"
       inkscape:vp_y="0 : 1000 : 0"
       inkscape:vp_z="744.09448 : 526.18109 : 1"
       inkscape:persp3d-origin="372.04724 : 350.78739 : 1"
       id="perspective5056-1-5" />
    <inkscape:perspective
       id="perspective5056-8-5-4"
       inkscape:persp3d-origin="372.04724 : 350.78739 : 1"
       inkscape:vp_z="744.09448 : 526.18109 : 1"
       inkscape:vp_y="0 : 1000 : 0"
       inkscape:vp_x="363.49708 : 943.81603 : 1"
       sodipodi:type="inkscape:persp3d" />
    <inkscape:perspective
       id="perspective5056-5-2-82"
       inkscape:persp3d-origin="372.04724 : 350.78739 : 1"
       inkscape:vp_z="744.09448 : 526.18109 : 1"
       inkscape:vp_y="0 : 1000 : 0"
       inkscape:vp_x="363.49708 : 943.81603 : 1"
       sodipodi:type="inkscape:persp3d" />
    <inkscape:perspective
       sodipodi:type="inkscape:persp3d"
       inkscape:vp_x="363.49708 : 943.81603 : 1"
       inkscape:vp_y="0 : 1000 : 0"
       inkscape:vp_z="744.09448 : 526.18109 : 1"
       inkscape:persp3d-origin="372.04724 : 350.78739 : 1"
       id="perspective5056-5-8" />
    <inkscape:perspective
       sodipodi:type="inkscape:persp3d"
       inkscape:vp_x="363.49708 : 943.81603 : 1"
       inkscape:vp_y="0 : 1000 : 0"
       inkscape:vp_z="744.09448 : 526.18109 : 1"
       inkscape:persp3d-origin="372.04724 : 350.78739 : 1"
       id="perspective5056-8-4" />
    <inkscape:perspective
       id="perspective5056-409"
       inkscape:persp3d-origin="372.04724 : 350.78739 : 1"
       inkscape:vp_z="744.09448 : 526.18109 : 1"
       inkscape:vp_y="0 : 1000 : 0"
       inkscape:vp_x="363.49708 : 943.81603 : 1"
       sodipodi:type="inkscape:persp3d" />
    <inkscape:perspective
       sodipodi:type="inkscape:persp3d"
       inkscape:vp_x="363.49708 : 943.81603 : 1"
       inkscape:vp_y="0 : 1000 : 0"
       inkscape:vp_z="744.09448 : 526.18109 : 1"
       inkscape:persp3d-origin="372.04724 : 350.78739 : 1"
       id="perspective5056-1-7" />
    <inkscape:perspective
       id="perspective5056-8-5-2"
       inkscape:persp3d-origin="372.04724 : 350.78739 : 1"
       inkscape:vp_z="744.09448 : 526.18109 : 1"
       inkscape:vp_y="0 : 1000 : 0"
       inkscape:vp_x="363.49708 : 943.81603 : 1"
       sodipodi:type="inkscape:persp3d" />
    <inkscape:perspective
       id="perspective5056-5-2-89"
       inkscape:persp3d-origin="372.04724 : 350.78739 : 1"
       inkscape:vp_z="744.09448 : 526.18109 : 1"
       inkscape:vp_y="0 : 1000 : 0"
       inkscape:vp_x="363.49708 : 943.81603 : 1"
       sodipodi:type="inkscape:persp3d" />
    <inkscape:perspective
       sodipodi:type="inkscape:persp3d"
       inkscape:vp_x="363.49708 : 943.81603 : 1"
       inkscape:vp_y="0 : 1000 : 0"
       inkscape:vp_z="744.09448 : 526.18109 : 1"
       inkscape:persp3d-origin="372.04724 : 350.78739 : 1"
       id="perspective5056-5-1" />
    <inkscape:perspective
       sodipodi:type="inkscape:persp3d"
       inkscape:vp_x="363.49708 : 943.81603 : 1"
       inkscape:vp_y="0 : 1000 : 0"
       inkscape:vp_z="744.09448 : 526.18109 : 1"
       inkscape:persp3d-origin="372.04724 : 350.78739 : 1"
       id="perspective5056-8-6" />
    <inkscape:perspective
       id="perspective5056-7"
       inkscape:persp3d-origin="372.04724 : 350.78739 : 1"
       inkscape:vp_z="744.09448 : 526.18109 : 1"
       inkscape:vp_y="0 : 1000 : 0"
       inkscape:vp_x="363.49708 : 943.81603 : 1"
       sodipodi:type="inkscape:persp3d" />
    <inkscape:perspective
       sodipodi:type="inkscape:persp3d"
       inkscape:vp_x="363.49708 : 943.81603 : 1"
       inkscape:vp_y="0 : 1000 : 0"
       inkscape:vp_z="744.09448 : 526.18109 : 1"
       inkscape:persp3d-origin="372.04724 : 350.78739 : 1"
       id="perspective5056-1-1" />
    <inkscape:perspective
       id="perspective5056-8-5-82"
       inkscape:persp3d-origin="372.04724 : 350.78739 : 1"
       inkscape:vp_z="744.09448 : 526.18109 : 1"
       inkscape:vp_y="0 : 1000 : 0"
       inkscape:vp_x="363.49708 : 943.81603 : 1"
       sodipodi:type="inkscape:persp3d" />
    <inkscape:perspective
       id="perspective5056-5-2-1"
       inkscape:persp3d-origin="372.04724 : 350.78739 : 1"
       inkscape:vp_z="744.09448 : 526.18109 : 1"
       inkscape:vp_y="0 : 1000 : 0"
       inkscape:vp_x="363.49708 : 943.81603 : 1"
       sodipodi:type="inkscape:persp3d" />
    <inkscape:perspective
       sodipodi:type="inkscape:persp3d"
       inkscape:vp_x="363.49708 : 943.81603 : 1"
       inkscape:vp_y="0 : 1000 : 0"
       inkscape:vp_z="744.09448 : 526.18109 : 1"
       inkscape:persp3d-origin="372.04724 : 350.78739 : 1"
       id="perspective5056-5-46" />
    <inkscape:perspective
       sodipodi:type="inkscape:persp3d"
       inkscape:vp_x="363.49708 : 943.81603 : 1"
       inkscape:vp_y="0 : 1000 : 0"
       inkscape:vp_z="744.09448 : 526.18109 : 1"
       inkscape:persp3d-origin="372.04724 : 350.78739 : 1"
       id="perspective5056-8-92" />
    <inkscape:perspective
       id="perspective5056-3"
       inkscape:persp3d-origin="372.04724 : 350.78739 : 1"
       inkscape:vp_z="744.09448 : 526.18109 : 1"
       inkscape:vp_y="0 : 1000 : 0"
       inkscape:vp_x="363.49708 : 943.81603 : 1"
       sodipodi:type="inkscape:persp3d" />
  </defs>
  <sodipodi:namedview
     id="base"
     pagecolor="#ffffff"
     bordercolor="#666666"
     borderopacity="1.0"
     inkscape:pageopacity="0.0"
     inkscape:pageshadow="2"
     inkscape:zoom="0.87854412"
     inkscape:cx="110.66669"
     inkscape:cy="190.58996"
     inkscape:document-units="px"
     inkscape:current-layer="layer8"
     showgrid="false"
     inkscape:window-width="994"
     inkscape:window-height="693"
     inkscape:window-x="75"
     inkscape:window-y="-2"
     inkscape:window-maximized="0"
     showguides="true"
     inkscape:guide-bbox="true"
     inkscape:snap-grids="false"
     inkscape:snap-to-guides="false"
     showborder="true"
     inkscape:showpageshadow="false"
     fit-margin-top="0"
     fit-margin-left="0"
     fit-margin-right="0"
     fit-margin-bottom="0"
     inkscape:snap-page="false" />
  <metadata
     id="metadata7">
    <rdf:RDF>
      <cc:Work
         rdf:about="">
        <dc:format>image/svg+xml</dc:format>
        <dc:type
           rdf:resource="http://purl.org/dc/dcmitype/StillImage" />
        <dc:title></dc:title>
      </cc:Work>
    </rdf:RDF>
  </metadata>
  <g
     inkscape:groupmode="layer"
     id="layer2"
     inkscape:label="補助線"
     style="display:none"
     sodipodi:insensitive="true">
    <path
       style="fill:none;stroke:#0000ff;stroke-width:1px;stroke-linecap:butt;stroke-linejoin:miter;stroke-opacity:1"
       d="M 10,310 360,10"
       id="path3025"
       inkscape:connector-curvature="0"
       sodipodi:nodetypes="cc" />
    <path
       style="fill:none;stroke:#0000ff;stroke-width:1px;stroke-linecap:butt;stroke-linejoin:miter;stroke-opacity:1"
       d="M 10,10 360,310"
       id="path3027"
       inkscape:connector-curvature="0"
       sodipodi:nodetypes="cc" />
    <path
       style="fill:none;stroke:#ff0000;stroke-width:1px;stroke-linecap:butt;stroke-linejoin:miter;stroke-opacity:1;display:inline"
       d="m 10,0 0,320"
       id="path3006"
       inkscape:connector-curvature="0"
       sodipodi:nodetypes="cc" />
    <path
       style="fill:none;stroke:#ff0000;stroke-width:1px;stroke-linecap:butt;stroke-linejoin:miter;stroke-opacity:1;display:inline"
       d="m 360,0 0,320"
       id="path3010"
       inkscape:connector-curvature="0"
       sodipodi:nodetypes="cc" />
    <path
       style="fill:none;stroke:#ff0000;stroke-width:1px;stroke-linecap:butt;stroke-linejoin:miter;stroke-opacity:1;display:inline"
       d="M 0,9.9999681 370,10"
       id="path3016"
       inkscape:connector-curvature="0" />
    <path
       transform="translate(84.715796,27.711696)"
       style="fill:none;stroke:#ff0000;stroke-width:1px;stroke-linecap:butt;stroke-linejoin:miter;stroke-opacity:1;display:inline"
       d="m -84.715796,282.2883 369.999996,0"
       id="path3018"
       inkscape:connector-curvature="0"
       sodipodi:nodetypes="cc" />
  </g>
  <g
     inkscape:groupmode="layer"
     id="layer8"
     inkscape:label="原型"
     style="display:inline">
    <path
       style="fill:#deaa87;stroke:#000000;stroke-width:1.5;stroke-linecap:butt;stroke-linejoin:miter;stroke-opacity:1;display:inline"
       d="m 199.27575,102.1399 c 1.49576,-2.623097 5.89699,-0.99255 7.97834,-8.829677 0.99185,-3.73481 1.54528,-8.000075 2.39361,-15.290106 0.84114,-7.228995 -1.23379,-10.809949 -3.58316,-11.433924 -2.81777,-0.748382 -4.36173,1.539711 -5.69257,5.272181"
       id="path6637-1-9-9-2-9-1-5"
       inkscape:connector-curvature="0" />
    <path
       style="opacity:0.95;fill:#deaa87;stroke:#000000;stroke-width:1.5;stroke-linecap:butt;stroke-linejoin:miter;stroke-opacity:1;display:inline"
       d="m 205.75719,89.016308 c -0.34159,-3.816623 -3.11816,-6.461436 -2.89649,-9.289414 0.19731,-2.517686 1.89906,-9.332073 3.46712,-9.650118 1.78132,-0.361278 1.3891,3.145305 1.14995,5.649235 -0.49272,5.158857 -0.0165,11.375184 -2.02287,13.747402 -1.29871,1.53553 -2.56393,6.04641 -3.95276,4.03038 -0.77772,-1.12895 1.41015,-4.540598 1.31046,-5.768474 -0.10215,-1.25783 -1.28622,-3.219515 -1.51514,-5.125036"
       id="path6639-8-6-8-4-6-4-5"
       inkscape:connector-curvature="0" />
    <path
       style="fill:#deaa87;stroke:#000000;stroke-width:1.5;stroke-linecap:butt;stroke-linejoin:miter;stroke-opacity:1;display:inline"
       d="m 113.40761,109.73371 c -1.86086,-2.28361 -7.56649,0.45375 -10.33245,-7.25903 -1.00665,-2.807097 -2.7904,-7.52825 -4.633331,-14.73562 -1.70732,-6.677217 -1.35097,-10.882658 0.36041,-12.4249 2.175231,-1.96024 5.443901,-0.87068 7.065361,1.236123"
       id="path6637-1-9-6-8-7-1"
       inkscape:connector-curvature="0" />
    <path
       style="opacity:0.95;fill:none;stroke:#000000;stroke-width:1.5;stroke-linecap:butt;stroke-linejoin:miter;stroke-opacity:1;display:inline"
       d="m 103.17536,95.75307 c 0.74503,-1.1176 2.76359,-5.50119 2.21082,-8.32183 -0.70303,-3.587866 -3.91968,-8.799109 -5.423401,-8.76134 -1.70821,0.04289 -0.76298,4.812636 -0.0823,7.262205 1.402301,5.046855 2.940691,11.741875 5.226011,13.658748 1.47921,1.240807 2.86609,5.671897 3.77559,3.340857 0.50927,-1.30536 -2.59749,-5.34018 -2.50671,-6.5927 0.1191,-1.64125 0.42244,-3.84359 0.61554,-6.26212"
       id="path6639-8-6-0-4-6-7"
       inkscape:connector-curvature="0" />
    <path
       style="fill:#550000;stroke:#000000;stroke-width:1.5;stroke-linecap:butt;stroke-linejoin:miter;stroke-opacity:1;display:inline"
       d="m 171.98665,174.14662 15.94879,80.50277 c -1.52303,8.37841 -9.86739,19.55254 -17.02799,29.99893 -8.65427,-5.95669 -17.10744,-26.16783 -17.10744,-26.16783 l 8.29244,-82.98673 z"
       id="path6770-0-4-6-6-4-7"
       inkscape:connector-curvature="0" />
    <path
       style="fill:#550000;stroke:#000000;stroke-width:1.5;stroke-linecap:butt;stroke-linejoin:miter;stroke-opacity:1;display:inline"
       d="m 176.18834,153.45016 c -5.68008,2.39389 -13.6334,2.95552 -19.34428,1.94268 l -4.38709,4.7292 c 2.21147,5.95304 7.5062,15.69531 10.51127,19.15775 3.68658,0.86745 8.10882,-0.87113 10.70244,-2.54517 0.89807,-5.36018 5.56054,-12.30661 5.25117,-17.02011 z"
       id="path6768-9-1-6-8-4-4"
       inkscape:connector-curvature="0" />
    <path
       style="fill:none;stroke:#000000;stroke-width:1.5;stroke-linecap:butt;stroke-linejoin:miter;stroke-opacity:1;display:inline"
       d="m 119.94262,130.16941 c 0.42775,-4.00203 1.54397,-7.69994 3.81187,-12.05917 0.2762,11.1401 21.85373,33.21244 41.70654,37.2655 -6.56562,2.94905 -11.1971,17.10204 -19.16063,28.51825 -12.15775,-14.01903 -24.30699,-42.75818 -26.35778,-53.72458 z"
       id="path6657-6-4-0-2-2-0"
       inkscape:connector-curvature="0" />
    <path
       style="fill:none;stroke:#000000;stroke-width:1.5;stroke-linecap:butt;stroke-linejoin:miter;stroke-opacity:1;display:inline"
       d="m 117.81722,125.02333 c -10.1598,6.23099 -44.789801,19.7751 -47.202681,29.99117 -4.20455,17.80204 24.63645,81.76308 26.19202,106.7918 2.2822,36.72009 -6.07143,66.09793 3.411501,73.24317 13.19821,9.94448 53.01906,28.61263 68.4192,24.4218 5.90845,-1.60788 14.65605,-3.37066 15.31993,-12.9916 1.36844,-19.8316 -2.68385,-87.23253 -3.94214,-90.17877 -7.69179,-18.01113 -32.19774,-60.97266 -39.12503,-81.493 -4.61571,-13.6728 -21.96199,-45.77573 -18.38781,-58.15749 -3.78189,4.96651 -5.8193,8.76897 -8.17416,13.79719 -0.12357,6.59839 -0.34024,14.56979 -0.70127,31.95922 3.48629,1.2734 3.75367,4.82644 7.80564,7.30244"
       id="path6659-6-6-1-7-6-9"
       inkscape:connector-curvature="0" />
    <path
       style="fill:none;stroke:#000000;stroke-width:1.5;stroke-linecap:butt;stroke-linejoin:miter;stroke-opacity:1;display:inline"
       d="m 167.41444,153.54541 c 6.04706,-0.78195 17.29025,6.29953 20.68183,14.88873 5.38145,-14.00022 9.29123,-47.69619 7.65273,-52.20791 -1.54443,-4.25261 -2.73838,-8.79842 -3.91671,-10.89928 1.38245,12.94266 -14.50235,46.90856 -24.41785,48.21846 z"
       id="path6762-7-2-0-9-6-4"
       inkscape:connector-curvature="0" />
    <path
       style="fill:none;stroke:#000000;stroke-width:1.5;stroke-linecap:butt;stroke-linejoin:miter;stroke-opacity:1;display:inline"
       d="m 132.38618,157.51992 -23.56106,19.13427 c 14.82369,9.26653 60.59365,67.51777 77.40927,83.73808"
       id="path6655-8-1-5-4-8-8"
       inkscape:connector-curvature="0" />
    <path
       style="fill:none;stroke:#000000;stroke-width:1.5;stroke-linecap:butt;stroke-linejoin:miter;stroke-opacity:1;display:inline"
       d="m 197.14996,113.04812 c 9.96173,1.34269 36.93247,-4.89819 46.64784,3.16949 13.21165,10.97092 -1.5528,99.94477 0.84975,120.20204 1.70275,14.35669 15.02977,44.88113 15.67935,74.84262 0.46906,21.63484 -64.59707,47.06895 -74.33816,47.1193 -8.4798,0.0431 -13.54192,-6.60469 -13.50509,-11.30526 0.21797,-27.77799 -3.78891,-82.07772 -1.73754,-89.66515 12.85711,-47.55381 19.21027,-76.96114 21.13783,-111.06997 0.89877,-15.90506 6.05776,-28.29473 1.71718,-37.77649 1.40428,1.13353 2.74225,3.65849 5.07886,6.65511 4.00518,7.5149 1.98253,29.48341 5.07011,38.36523 l -8.32453,12.29113"
       id="path3341-7-0-1-6-8-5-1-8"
       inkscape:connector-curvature="0" />
    <path
       style="fill:none;stroke:#000000;stroke-width:1.5;stroke-linecap:butt;stroke-linejoin:miter;stroke-opacity:1;display:inline"
       d="m 190.87627,154.03198 21.67852,12.5356 c -9.74051,28.04806 -24.00652,55.32378 -39.22721,88.76927"
       id="path6766-7-0-8-3-2-2"
       inkscape:connector-curvature="0" />
    <path
       style="fill:#e9c6af;stroke:none;display:inline"
       d="m 179.02873,143.60608 c 5.14582,-4.59964 15.72776,-20.82649 17.11355,-27.23888 0.69007,-3.19243 5.30308,-25.29788 5.46828,-32.592033 l 0.0135,-9.313444 c 0.68222,-19.329761 -2.20779,-33.870285 -10.5715,-44.862207 -7.52514,-9.889853 -21.58425,-17.712403 -39.5609,-16.843278 -20.47959,0.990137 -33.36062,7.207498 -41.91554,25.819364 -5.53562,12.043155 -6.25793,25.015 -4.82853,42.52034 l 3.38272,12.658118 c 1.21102,7.82053 9.32397,29.04861 11.67805,32.62512 5.26902,8.00517 12.78405,14.2475 19.10569,19.97507 4.19171,3.79782 12.3991,9.90437 20.61554,8.84914 11.66532,-1.49816 17.51985,-9.82811 19.49916,-11.59731 z"
       id="path6635-7-0-4-2-5-1-1"
       inkscape:connector-curvature="0" />
    <path
       style="fill:#deaa87;stroke:none;display:inline"
       d="m 201.69282,74.464863 c 0.65532,-25.029977 -5.22368,-45.041291 -20.58263,-53.848439 11.99237,10.906294 14.63621,30.03591 12.35547,40.318312 -1.03217,4.653472 -2.88543,9.755563 -7.08872,10.961104 6.68884,1.325578 4.12454,11.519189 0.0392,11.817357 l -20.49849,1.112146 c -1.95351,-1.030138 -2.95706,-3.000222 -2.83112,-5.688691 -3.69988,1.820175 -3.21682,4.522624 -3.49341,6.741379 -0.41209,3.305499 1.88593,9.468389 3.05596,7.910699 1.8208,-2.42411 3.90915,-0.86802 10.06917,2.36006 5.03414,2.63807 11.20419,-2.18535 12.91041,-2.47376 0.47213,-0.0799 6.13678,6.97425 5.8764,13.22938 -0.26723,6.42219 -4.1619,14.38847 -9.39779,24.21249 -7.91876,14.85792 -9.853,16.3392 -14.72514,21.80923 11.44444,-6.31241 25.03394,-24.99595 28.77914,-36.58951 1.31323,-4.06518 5.06389,-24.25494 5.38458,-32.531948 z"
       id="path6760-6-4-3-0-7-1"
       inkscape:connector-curvature="0" />
    <flowRoot
       transform="matrix(0.43977008,0,0,0.43977008,-803.32714,-161.36483)"
       xml:space="preserve"
       id="flowRoot8240"
       style="font-size:40px;font-style:normal;font-weight:normal;line-height:125%;letter-spacing:0px;word-spacing:0px;fill:#000000;fill-opacity:1;stroke:none;display:inline;font-family:Sans"><flowRegion
         id="flowRegion8242"><rect
           id="rect8244"
           width="38.683781"
           height="77.367561"
           x="51.141266"
           y="59.048405" /></flowRegion><flowPara
         id="flowPara8246" /></flowRoot>    <text
       xml:space="preserve"
       style="font-size:17.59080315px;font-style:normal;font-weight:normal;line-height:125%;letter-spacing:0px;word-spacing:0px;fill:#000000;fill-opacity:1;stroke:none;display:inline;font-family:Sans"
       x="-773.91669"
       y="-67.060898"
       id="text8248"
       sodipodi:linespacing="125%"><tspan
         sodipodi:role="line"
         id="tspan8250"
         x="-773.91669"
         y="-67.060898" /></text>
    <path
       style="fill:#dbdee3;stroke:none;display:inline"
       d="m -5.7826106,192.83689 -101.2345394,7.04613 79.553487,140.71306 z"
       id="path4684-5-5-2-7-6-1"
       inkscape:connector-curvature="0" />
    <path
       style="fill:#deaa87;stroke:none;display:inline"
       d="m 169.71659,115.82093 c 0.40765,-3.40157 10.66815,11.93055 7.54157,12.12584 -2.48523,0.15523 -4.60383,0.12113 -6.24064,-3.62254 -1.07541,-2.45972 -1.68749,-5.27747 -1.30093,-8.5033 z"
       id="path4329-1-1"
       inkscape:connector-curvature="0" />
    <path
       style="fill:#deaa87;stroke:none;display:inline"
       d="m 166.60147,135.27891 c -2.83162,-0.11551 -9.38631,0.30967 -14.23493,1.5832 -2.55461,0.67103 2.27256,4.85619 7.96825,4.18188 4.7534,-0.56272 10.72316,-5.58327 6.26668,-5.76508 z"
       id="path6710-3-6-7-3-2"
       inkscape:connector-curvature="0" />
    <path
       style="fill:none;stroke:#000000;stroke-width:1.5;stroke-linecap:butt;stroke-linejoin:miter;stroke-opacity:1;display:inline"
       d="m 98.582299,255.10443 c -2.18121,-21.89862 -6.59031,-52.49761 -11.62761,-71.43727 -5.62516,-21.15008 -8.56667,-29.51332 -13.19924,-29.95622 -6.2965,-0.60191 -8.32288,23.0276 -9.29961,40.2066 -0.76752,13.49936 -2.15731,53.47468 -0.51449,80.44767 1.13377,18.61499 8.61027,29.17747 31.79127,23.97995 12.000231,-2.69064 40.969451,-63.85373 48.602581,-76.89735 4.40095,-13.18659 -30.68508,-41.16064 -40.61879,-35.17277 -7.756471,11.07486 -29.340931,52.28607 -37.355181,72.97562"
       id="path6661-0-3-5-5-4"
       inkscape:connector-curvature="0" />
    <path
       style="fill:#deaa87;stroke:none;display:inline"
       d="m 145.53029,79.658088 -3.00471,0.55444 c -0.29627,0.70609 6.04826,7.846422 6.73684,9.791512 l -17.84632,2.60945 c 0.56819,1.4883 5.96817,5.54297 9.49047,5.30333 2.62201,-0.17841 6.1811,-2.19275 7.97127,-2.86344 -0.047,1.73953 0.70748,3.82118 0.41908,6.23023 -0.23782,1.986 0.32873,4.96824 0.18087,6.67838 -0.18643,2.15644 -6.17895,13.22108 -1.88481,20.73511 0.3225,0.56428 6.47093,-4.98716 6.83157,-4.45822 0.53546,-0.88125 -0.78577,-7.16857 1.81176,-7.57906 -1.76565,-1.03147 -1.90206,-5.32049 -1.85268,-7.34748 0.0258,-1.05934 -0.70643,-11.53419 -1.01753,-14.22441 -0.49015,-4.23919 -0.60647,-7.16992 -1.42788,-10.441373 -0.29739,-1.184445 -3.2994,-8.645985 -4.3529,-8.783529 -1.68771,-0.220342 -0.30081,2.779109 -2.05503,3.79506 z"
       id="path6706-5-3-4-9-4-8-3"
       inkscape:connector-curvature="0" />
    <path
       style="fill:#deaa87;stroke:none;display:inline"
       d="m 123.07263,99.512723 c 1.92705,7.982447 16.50838,19.417777 19.07779,29.018127 -5.23701,6.45336 4.54284,24.50588 13.93804,26.73472 -7.02176,-0.23364 -15.96592,-7.97228 -17.15699,-8.92997 -5.8535,-4.70659 -14.45417,-12.63941 -19.12811,-19.9006 -4.65841,-7.23704 -10.47451,-27.90032 -11.70139,-32.62814 l -3.37248,-12.738108 c -1.79884,-17.864966 0.45027,-30.948301 4.84465,-42.485685 5.97407,-15.684887 19.381,-23.840164 34.80052,-25.35671 -7.49841,3.849452 -17.58261,9.884404 -23.46044,20.911735 -5.66465,10.627475 -2.13129,39.576954 2.46744,43.46208 -1.64313,1.790957 0.61059,6.815158 3.84199,8.090001 l 1.09654,7.210487 c -3.52436,1.47931 -5.68684,4.79242 -5.24756,6.612063 z"
       id="path3438-5-8-1-0-0-2"
       inkscape:connector-curvature="0" />
    <path
       style="fill:#fefefe;fill-opacity:1;stroke:none;display:inline"
       d="m 127.7239,87.45446 5.72204,-1.211267 6.43703,-0.410066 4.26516,2.011523 -4.57823,4.59368 -7.5416,1.25758 -2.07672,-0.69636 -6.484,-3.36463 z"
       id="path3337-0-4-8-1-0-9-7"
       inkscape:connector-curvature="0" />
    <path
       style="fill:#2b0000;stroke:none;display:inline"
       d="m 138.06306,85.72217 c 2.14992,3.485092 -0.57749,6.22745 -3.30963,6.45241 -3.02751,0.24928 -6.21447,-1.68911 -5.17258,-5.119482 z"
       id="path3357-0-7-3-6-4-6"
       inkscape:connector-curvature="0" />
    <path
       style="fill:#fefefe;fill-opacity:1;stroke:none;display:inline"
       d="m 165.96868,86.4892 2.96724,2.271339 2.78259,1.238834 8.23612,-0.50221 2.04202,-0.626583 4.66575,-3.523336 -4.53318,-0.805704 -11.74711,0.02791 z"
       id="path3337-0-4-8-8-9-3-5-32"
       inkscape:connector-curvature="0" />
    <path
       style="fill:#2b0000;stroke:none;display:inline"
       d="m 170.54705,84.47493 c 0.11398,1.897705 1.41956,4.561218 5.05041,4.530852 3.27251,-0.02737 5.11497,-2.759322 4.64307,-4.583598 z"
       id="path3357-0-7-8-3-4-5-2"
       inkscape:connector-curvature="0" />
    <path
       style="fill:none;stroke:#916f6f;stroke-width:1.5;stroke-linecap:butt;stroke-linejoin:miter;stroke-opacity:1;display:inline"
       d="m 123.53389,89.64537 c 1.9885,1.18591 7.07916,3.82693 8.32862,3.98125 1.69269,0.20908 6.39953,-0.77661 7.28253,-1.08374 0.96595,-0.33597 3.9575,-3.663542 5.06373,-4.729305"
       id="path4687"
       inkscape:connector-curvature="0" />
    <path
       style="fill:none;stroke:#916f6f;stroke-width:1.5;stroke-linecap:butt;stroke-linejoin:miter;stroke-opacity:1;display:inline"
       d="m 165.78814,86.262881 c 1.2641,1.457874 3.74714,3.052872 5.62864,3.632782 1.55144,0.47819 6.9107,-0.21264 8.78947,-0.46753 1.80193,-0.24446 5.21308,-2.563908 6.44635,-4.144798"
       id="path4689"
       inkscape:connector-curvature="0" />
    <path
       style="fill:none;stroke:#000000;stroke-width:1.5;stroke-linecap:butt;stroke-linejoin:miter;stroke-opacity:1;display:inline"
       d="m 160.1278,78.84139 0.11392,3.378882"
       id="path4691"
       inkscape:connector-curvature="0" />
    <path
       style="fill:none;stroke:#000000;stroke-width:1.5;stroke-linecap:butt;stroke-linejoin:miter;stroke-opacity:1;display:inline"
       d="m 148.58869,80.047487 0.4377,3.838724"
       id="path4693"
       inkscape:connector-curvature="0" />
    <path
       style="fill:none;stroke:#000000;stroke-width:1.5;stroke-linecap:butt;stroke-linejoin:miter;stroke-opacity:1;display:inline"
       d="m 147.46794,113.78449 c -1.20729,2.06765 -1.17152,4.86124 0.2701,6.36792 2.45518,2.56598 5.62265,0.077 8.23418,0.8447 3.02792,0.89014 4.62629,-0.011 5.80773,-0.39325 4.08873,-1.32293 5.28806,-0.90837 6.45163,-3.37994 0.85107,-1.80776 -0.45964,-3.97126 -2.13376,-5.70574"
       id="path4695"
       inkscape:connector-curvature="0" />
    <path
       style="fill:none;stroke:#000000;stroke-width:1.5;stroke-linecap:butt;stroke-linejoin:miter;stroke-opacity:1;display:inline"
       d="m 201.51861,83.815835 c -0.91454,10.387175 -2.745,23.667015 -5.37646,32.550545 -2.89505,9.77343 -9.89023,19.60292 -17.12075,27.24845 -5.52828,5.84556 -11.04617,10.77129 -19.48795,11.59582 -8.14128,0.79515 -14.67897,-3.73198 -20.62095,-8.86146 -7.4555,-6.43603 -13.86712,-11.70868 -19.10766,-19.97226 -4.68393,-7.38588 -9.08864,-22.42665 -11.65585,-32.67951"
       id="path4697"
       inkscape:connector-curvature="0" />
    <path
       style="fill:none;stroke:#000000;stroke-width:1.5;stroke-linecap:butt;stroke-linejoin:miter;stroke-opacity:1;display:inline"
       d="m 104.73211,81.06746 c -0.94325,-15.469193 -2.10744,-25.763928 4.84855,-42.503397 8.45828,-20.354757 24.97683,-25.40287 41.9129,-25.815498 17.02692,-0.414837 31.89024,6.53658 39.56552,16.854551 8.11301,10.906419 11.23565,23.876131 10.56174,44.882853"
       id="path4699"
       inkscape:connector-curvature="0" />
    <path
       style="fill:#000000;stroke:none;display:inline"
       d="m 145.15986,83.873667 c -5.70412,1.751833 -7.78251,-1.666398 -14.45296,-3.148742 -6.79589,-1.51017 -18.01983,1.033701 -16.56494,-0.341546 2.64477,-2.500143 14.01262,-2.359673 20.34239,-1.157237 2.04265,0.388037 6.28057,1.273452 8.42556,1.639711 3.79156,0.647413 6.06592,1.835842 2.24995,3.007814 z"
       id="path6645-7-7-7-1-8-1"
       inkscape:connector-curvature="0" />
    <path
       style="fill:#000000;stroke:none;display:inline"
       d="m 178.67875,131.66107 c 0.78494,-0.72246 1.45045,-5.07734 0.41613,-6.62542 -1.02372,-1.53237 -12.65566,-5.27074 -16.04797,-5.92442 -0.80373,-0.15484 -2.62274,1.21514 -5.22869,1.48711 -2.61361,0.27278 -5.25336,-0.63828 -6.03362,-0.3806 -3.29289,1.08776 -14.59013,7.3884 -15.43192,9.0419 -0.85033,1.67045 0.48201,5.1457 2.16837,5.96628 3.10682,1.51167 8.16718,-3.05426 19.32898,-3.90974 13.07219,-1.00187 18.77876,2.23138 20.82872,0.34489 z"
       id="path6633-4-3-0-8-4-1-6"
       inkscape:connector-curvature="0" />
    <path
       style="fill:#000000;stroke:none;display:inline"
       d="m 162.14583,83.144075 c 5.93655,-0.391743 7.78566,-4.310483 14.84148,-6.405343 6.97427,-2.070622 17.3908,-3.0512 15.39279,-3.671514 -2.61667,-0.81238 -11.34399,0.414607 -15.97142,1.453934 -3.92114,0.880686 -7.21448,2.451203 -9.91299,3.76211 -3.94892,1.918334 -9.59697,5.20707 -4.34986,4.860813 z"
       id="path6645-7-7-6-6-6-7-8"
       inkscape:connector-curvature="0" />
    <path
       style="fill:#deaa87;stroke:none;display:inline"
       d="m 158.24721,84.73384 c -1.78532,-0.579637 -3.27859,-5.91212 -1.19965,-7.394437 0.96729,-0.689741 1.06022,2.081023 1.4437,3.713599 0.404,1.720454 0.49738,3.921603 -0.24405,3.680838 z"
       id="path4329-9"
       inkscape:connector-curvature="0" />
    <path
       style="fill:none;stroke:#000000;stroke-width:1.5;stroke-linecap:butt;stroke-linejoin:miter;stroke-opacity:1;display:inline"
       d="m 121.54268,90.71341 c 2.58885,-1.482763 4.59992,-2.792423 6.56122,-3.35965 3.03579,-0.878003 9.72759,-1.844546 11.64528,-1.473756 1.79088,0.346265 4.66173,2.249911 5.674,2.580419"
       id="path4683"
       inkscape:connector-curvature="0" />
    <path
       style="fill:none;stroke:#000000;stroke-width:1.5;stroke-linecap:butt;stroke-linejoin:miter;stroke-opacity:1;display:inline"
       d="m 164.46292,86.9911 c 1.29858,-0.54718 4.14391,-1.683465 5.31747,-2.212115 1.84171,-0.829591 12.1828,-0.320189 13.58203,-0.05411 1.7719,0.336862 4.31445,0.666931 5.81072,1.070833"
       id="path4685"
       inkscape:connector-curvature="0" />
    <path
       style="fill:none;stroke:#000000;stroke-width:1.5;stroke-linecap:butt;stroke-linejoin:miter;stroke-opacity:1;display:inline"
       d="m 243.68569,115.7275 c 27.86607,30.5972 84.90685,76.97474 94.99034,93.23127 9.39753,15.15066 3.90133,43.83602 -24.1162,36.62037 -16.03643,-4.13001 -24.54621,-17.58162 -20.74035,-27.38519"
       id="path11518"
       inkscape:connector-curvature="0" />
    <path
       style="fill:none;stroke:#000000;stroke-width:1.5;stroke-linecap:butt;stroke-linejoin:miter;stroke-opacity:1;display:inline"
       d="M 303.46351,238.02225 C 288.95272,226.42438 258.31056,199.59141 243.68569,183.89189"
       id="path6645"
       inkscape:connector-curvature="0" />
    <path
       style="fill:none;stroke:#000000;stroke-width:1.5;stroke-linecap:butt;stroke-linejoin:miter;stroke-opacity:1;display:inline"
       d="m 118.73661,206.76683 c 10.06992,1.68159 19.01438,-2.82861 20.48226,-10.77964 1.59104,-8.618 2.53943,-24.01145 3.36859,-35.8957 1.91362,1.33157 6.15337,2.41627 9.45306,3.28578 -2.60181,0.90381 -2.60417,4.69758 -2.8921,7.45252 -2.55009,-0.34215 -7.35774,-2.84004 -9.15276,-2.5705 -2.50971,0.37684 -4.159,1.63546 -2.43568,4.82057 1.27596,2.35832 9.34937,6.95211 13.87992,5.93905 4.70116,-1.05117 13.40832,-17.98311 12.43858,-22.51357 -1.02534,-4.79016 -23.11796,-17.02852 -28.03884,-14.4191 -7.15357,3.79337 -12.48585,15.13359 -15.54821,22.7004"
       id="path6648"
       inkscape:connector-curvature="0" />
    <path
       style="fill:none;stroke:#000000;stroke-width:1.5;stroke-linecap:butt;stroke-linejoin:miter;stroke-opacity:1;display:inline"
       d="m 104.43225,190.28574 18.65786,-40.73634 18.65786,-13.9934 23.63329,16.17014 -5.28639,22.38943 -6.84122,-2.17672 4.04254,-14.30437 -14.30437,-7.77411 -7.7741,5.28638"
       id="path6650"
       inkscape:connector-curvature="0" />
    <path
       style="fill:none;stroke:#000000;stroke-width:1.5;stroke-linecap:butt;stroke-linejoin:miter;stroke-opacity:1;display:inline"
       d="m 139.88218,159.1893 38.55959,-5.2864 0,-8.39604 -38.87055,0.93289"
       id="path6652"
       inkscape:connector-curvature="0" />
  </g>
  <g
     inkscape:groupmode="layer"
     id="layer7"
     inkscape:label="枠面"
     style="display:inline"
     sodipodi:insensitive="true">
    <path
       style="fill:#ff0000;stroke:none;display:inline"
       d="m 0,0 0,320 370,0 0,-320 -10,10 0,300 -350,0 0,-300 350,0 10,-10 z"
       id="path21072"
       inkscape:connector-curvature="0"
       sodipodi:nodetypes="ccccccccccc" />
  </g>
</svg>
