<?xml version="1.0" encoding="UTF-8" standalone="no"?>
<!-- Created with Inkscape (http://www.inkscape.org/) -->

<svg
   xmlns:dc="http://purl.org/dc/elements/1.1/"
   xmlns:cc="http://creativecommons.org/ns#"
   xmlns:rdf="http://www.w3.org/1999/02/22-rdf-syntax-ns#"
   xmlns:svg="http://www.w3.org/2000/svg"
   xmlns="http://www.w3.org/2000/svg"
   xmlns:sodipodi="http://sodipodi.sourceforge.net/DTD/sodipodi-0.dtd"
   xmlns:inkscape="http://www.inkscape.org/namespaces/inkscape"
   width="370"
   height="320"
   id="svg2"
   version="1.1"
   inkscape:version="0.92.3 (2405546, 2018-03-11)"
   sodipodi:docname="[10.質疑].svg"
   inkscape:export-filename="C:\Users\zhen-\Desktop\資料\臨時\HOSHI\10.png"
   inkscape:export-xdpi="96"
   inkscape:export-ydpi="96"
   enable-background="new">
  <defs
     id="defs4">
    <inkscape:perspective
       sodipodi:type="inkscape:persp3d"
       inkscape:vp_x="363.49708 : 943.81603 : 1"
       inkscape:vp_y="0 : 1000 : 0"
       inkscape:vp_z="744.09448 : 526.18109 : 1"
       inkscape:persp3d-origin="372.04724 : 350.78739 : 1"
       id="perspective5056" />
    <inkscape:perspective
       id="perspective5056-8"
       inkscape:persp3d-origin="372.04724 : 350.78739 : 1"
       inkscape:vp_z="744.09448 : 526.18109 : 1"
       inkscape:vp_y="0 : 1000 : 0"
       inkscape:vp_x="363.49708 : 943.81603 : 1"
       sodipodi:type="inkscape:persp3d" />
    <inkscape:perspective
       id="perspective5056-5"
       inkscape:persp3d-origin="372.04724 : 350.78739 : 1"
       inkscape:vp_z="744.09448 : 526.18109 : 1"
       inkscape:vp_y="0 : 1000 : 0"
       inkscape:vp_x="363.49708 : 943.81603 : 1"
       sodipodi:type="inkscape:persp3d" />
    <inkscape:perspective
       sodipodi:type="inkscape:persp3d"
       inkscape:vp_x="363.49708 : 943.81603 : 1"
       inkscape:vp_y="0 : 1000 : 0"
       inkscape:vp_z="744.09448 : 526.18109 : 1"
       inkscape:persp3d-origin="372.04724 : 350.78739 : 1"
       id="perspective5056-5-2" />
    <inkscape:perspective
       sodipodi:type="inkscape:persp3d"
       inkscape:vp_x="363.49708 : 943.81603 : 1"
       inkscape:vp_y="0 : 1000 : 0"
       inkscape:vp_z="744.09448 : 526.18109 : 1"
       inkscape:persp3d-origin="372.04724 : 350.78739 : 1"
       id="perspective5056-8-5" />
    <inkscape:perspective
       id="perspective5056-1"
       inkscape:persp3d-origin="372.04724 : 350.78739 : 1"
       inkscape:vp_z="744.09448 : 526.18109 : 1"
       inkscape:vp_y="0 : 1000 : 0"
       inkscape:vp_x="363.49708 : 943.81603 : 1"
       sodipodi:type="inkscape:persp3d" />
    <inkscape:perspective
       sodipodi:type="inkscape:persp3d"
       inkscape:vp_x="363.49708 : 943.81603 : 1"
       inkscape:vp_y="0 : 1000 : 0"
       inkscape:vp_z="744.09448 : 526.18109 : 1"
       inkscape:persp3d-origin="372.04724 : 350.78739 : 1"
       id="perspective5056-5-5" />
    <inkscape:perspective
       id="perspective5056-4"
       inkscape:persp3d-origin="372.04724 : 350.78739 : 1"
       inkscape:vp_z="744.09448 : 526.18109 : 1"
       inkscape:vp_y="0 : 1000 : 0"
       inkscape:vp_x="363.49708 : 943.81603 : 1"
       sodipodi:type="inkscape:persp3d" />
    <inkscape:perspective
       sodipodi:type="inkscape:persp3d"
       inkscape:vp_x="363.49708 : 943.81603 : 1"
       inkscape:vp_y="0 : 1000 : 0"
       inkscape:vp_z="744.09448 : 526.18109 : 1"
       inkscape:persp3d-origin="372.04724 : 350.78739 : 1"
       id="perspective5056-1-2" />
    <inkscape:perspective
       id="perspective5056-8-5-8"
       inkscape:persp3d-origin="372.04724 : 350.78739 : 1"
       inkscape:vp_z="744.09448 : 526.18109 : 1"
       inkscape:vp_y="0 : 1000 : 0"
       inkscape:vp_x="363.49708 : 943.81603 : 1"
       sodipodi:type="inkscape:persp3d" />
    <inkscape:perspective
       id="perspective5056-5-2-8"
       inkscape:persp3d-origin="372.04724 : 350.78739 : 1"
       inkscape:vp_z="744.09448 : 526.18109 : 1"
       inkscape:vp_y="0 : 1000 : 0"
       inkscape:vp_x="363.49708 : 943.81603 : 1"
       sodipodi:type="inkscape:persp3d" />
    <inkscape:perspective
       sodipodi:type="inkscape:persp3d"
       inkscape:vp_x="363.49708 : 943.81603 : 1"
       inkscape:vp_y="0 : 1000 : 0"
       inkscape:vp_z="744.09448 : 526.18109 : 1"
       inkscape:persp3d-origin="372.04724 : 350.78739 : 1"
       id="perspective5056-5-4" />
    <inkscape:perspective
       sodipodi:type="inkscape:persp3d"
       inkscape:vp_x="363.49708 : 943.81603 : 1"
       inkscape:vp_y="0 : 1000 : 0"
       inkscape:vp_z="744.09448 : 526.18109 : 1"
       inkscape:persp3d-origin="372.04724 : 350.78739 : 1"
       id="perspective5056-8-9" />
    <inkscape:perspective
       id="perspective5056-40"
       inkscape:persp3d-origin="372.04724 : 350.78739 : 1"
       inkscape:vp_z="744.09448 : 526.18109 : 1"
       inkscape:vp_y="0 : 1000 : 0"
       inkscape:vp_x="363.49708 : 943.81603 : 1"
       sodipodi:type="inkscape:persp3d" />
    <inkscape:perspective
       sodipodi:type="inkscape:persp3d"
       inkscape:vp_x="363.49708 : 943.81603 : 1"
       inkscape:vp_y="0 : 1000 : 0"
       inkscape:vp_z="744.09448 : 526.18109 : 1"
       inkscape:persp3d-origin="372.04724 : 350.78739 : 1"
       id="perspective5056-1-5" />
    <inkscape:perspective
       id="perspective5056-8-5-4"
       inkscape:persp3d-origin="372.04724 : 350.78739 : 1"
       inkscape:vp_z="744.09448 : 526.18109 : 1"
       inkscape:vp_y="0 : 1000 : 0"
       inkscape:vp_x="363.49708 : 943.81603 : 1"
       sodipodi:type="inkscape:persp3d" />
    <inkscape:perspective
       id="perspective5056-5-2-82"
       inkscape:persp3d-origin="372.04724 : 350.78739 : 1"
       inkscape:vp_z="744.09448 : 526.18109 : 1"
       inkscape:vp_y="0 : 1000 : 0"
       inkscape:vp_x="363.49708 : 943.81603 : 1"
       sodipodi:type="inkscape:persp3d" />
    <inkscape:perspective
       sodipodi:type="inkscape:persp3d"
       inkscape:vp_x="363.49708 : 943.81603 : 1"
       inkscape:vp_y="0 : 1000 : 0"
       inkscape:vp_z="744.09448 : 526.18109 : 1"
       inkscape:persp3d-origin="372.04724 : 350.78739 : 1"
       id="perspective5056-5-8" />
    <inkscape:perspective
       sodipodi:type="inkscape:persp3d"
       inkscape:vp_x="363.49708 : 943.81603 : 1"
       inkscape:vp_y="0 : 1000 : 0"
       inkscape:vp_z="744.09448 : 526.18109 : 1"
       inkscape:persp3d-origin="372.04724 : 350.78739 : 1"
       id="perspective5056-8-4" />
    <inkscape:perspective
       id="perspective5056-409"
       inkscape:persp3d-origin="372.04724 : 350.78739 : 1"
       inkscape:vp_z="744.09448 : 526.18109 : 1"
       inkscape:vp_y="0 : 1000 : 0"
       inkscape:vp_x="363.49708 : 943.81603 : 1"
       sodipodi:type="inkscape:persp3d" />
    <inkscape:perspective
       sodipodi:type="inkscape:persp3d"
       inkscape:vp_x="363.49708 : 943.81603 : 1"
       inkscape:vp_y="0 : 1000 : 0"
       inkscape:vp_z="744.09448 : 526.18109 : 1"
       inkscape:persp3d-origin="372.04724 : 350.78739 : 1"
       id="perspective5056-1-7" />
    <inkscape:perspective
       id="perspective5056-8-5-2"
       inkscape:persp3d-origin="372.04724 : 350.78739 : 1"
       inkscape:vp_z="744.09448 : 526.18109 : 1"
       inkscape:vp_y="0 : 1000 : 0"
       inkscape:vp_x="363.49708 : 943.81603 : 1"
       sodipodi:type="inkscape:persp3d" />
    <inkscape:perspective
       id="perspective5056-5-2-89"
       inkscape:persp3d-origin="372.04724 : 350.78739 : 1"
       inkscape:vp_z="744.09448 : 526.18109 : 1"
       inkscape:vp_y="0 : 1000 : 0"
       inkscape:vp_x="363.49708 : 943.81603 : 1"
       sodipodi:type="inkscape:persp3d" />
    <inkscape:perspective
       sodipodi:type="inkscape:persp3d"
       inkscape:vp_x="363.49708 : 943.81603 : 1"
       inkscape:vp_y="0 : 1000 : 0"
       inkscape:vp_z="744.09448 : 526.18109 : 1"
       inkscape:persp3d-origin="372.04724 : 350.78739 : 1"
       id="perspective5056-5-1" />
    <inkscape:perspective
       sodipodi:type="inkscape:persp3d"
       inkscape:vp_x="363.49708 : 943.81603 : 1"
       inkscape:vp_y="0 : 1000 : 0"
       inkscape:vp_z="744.09448 : 526.18109 : 1"
       inkscape:persp3d-origin="372.04724 : 350.78739 : 1"
       id="perspective5056-8-6" />
    <inkscape:perspective
       id="perspective5056-7"
       inkscape:persp3d-origin="372.04724 : 350.78739 : 1"
       inkscape:vp_z="744.09448 : 526.18109 : 1"
       inkscape:vp_y="0 : 1000 : 0"
       inkscape:vp_x="363.49708 : 943.81603 : 1"
       sodipodi:type="inkscape:persp3d" />
    <inkscape:perspective
       sodipodi:type="inkscape:persp3d"
       inkscape:vp_x="363.49708 : 943.81603 : 1"
       inkscape:vp_y="0 : 1000 : 0"
       inkscape:vp_z="744.09448 : 526.18109 : 1"
       inkscape:persp3d-origin="372.04724 : 350.78739 : 1"
       id="perspective5056-1-1" />
    <inkscape:perspective
       id="perspective5056-8-5-82"
       inkscape:persp3d-origin="372.04724 : 350.78739 : 1"
       inkscape:vp_z="744.09448 : 526.18109 : 1"
       inkscape:vp_y="0 : 1000 : 0"
       inkscape:vp_x="363.49708 : 943.81603 : 1"
       sodipodi:type="inkscape:persp3d" />
    <inkscape:perspective
       id="perspective5056-5-2-1"
       inkscape:persp3d-origin="372.04724 : 350.78739 : 1"
       inkscape:vp_z="744.09448 : 526.18109 : 1"
       inkscape:vp_y="0 : 1000 : 0"
       inkscape:vp_x="363.49708 : 943.81603 : 1"
       sodipodi:type="inkscape:persp3d" />
    <inkscape:perspective
       sodipodi:type="inkscape:persp3d"
       inkscape:vp_x="363.49708 : 943.81603 : 1"
       inkscape:vp_y="0 : 1000 : 0"
       inkscape:vp_z="744.09448 : 526.18109 : 1"
       inkscape:persp3d-origin="372.04724 : 350.78739 : 1"
       id="perspective5056-5-46" />
    <inkscape:perspective
       sodipodi:type="inkscape:persp3d"
       inkscape:vp_x="363.49708 : 943.81603 : 1"
       inkscape:vp_y="0 : 1000 : 0"
       inkscape:vp_z="744.09448 : 526.18109 : 1"
       inkscape:persp3d-origin="372.04724 : 350.78739 : 1"
       id="perspective5056-8-92" />
    <inkscape:perspective
       id="perspective5056-3"
       inkscape:persp3d-origin="372.04724 : 350.78739 : 1"
       inkscape:vp_z="744.09448 : 526.18109 : 1"
       inkscape:vp_y="0 : 1000 : 0"
       inkscape:vp_x="363.49708 : 943.81603 : 1"
       sodipodi:type="inkscape:persp3d" />
    <filter
       inkscape:collect="always"
       style="color-interpolation-filters:sRGB"
       id="filter16998"
       x="-0.11941463"
       width="1.2388293"
       y="-0.12059114"
       height="1.2411823">
      <feGaussianBlur
         inkscape:collect="always"
         stdDeviation="14.424978"
         id="feGaussianBlur17000" />
    </filter>
  </defs>
  <sodipodi:namedview
     id="base"
     pagecolor="#ffffff"
     bordercolor="#666666"
     borderopacity="1.0"
     inkscape:pageopacity="0.0"
     inkscape:pageshadow="2"
     inkscape:zoom="0.60614335"
     inkscape:cx="416.45251"
     inkscape:cy="163.84986"
     inkscape:document-units="px"
     inkscape:current-layer="layer12"
     showgrid="false"
     inkscape:window-width="1246"
     inkscape:window-height="985"
     inkscape:window-x="64"
     inkscape:window-y="-1"
     inkscape:window-maximized="0"
     showguides="true"
     inkscape:guide-bbox="true"
     inkscape:snap-grids="false"
     inkscape:snap-to-guides="false"
     showborder="true"
     inkscape:showpageshadow="false"
     fit-margin-top="0"
     fit-margin-left="0"
     fit-margin-right="0"
     fit-margin-bottom="0"
     inkscape:snap-page="false"
     inkscape:snap-global="false" />
  <metadata
     id="metadata7">
    <rdf:RDF>
      <cc:Work
         rdf:about="">
        <dc:format>image/svg+xml</dc:format>
        <dc:type
           rdf:resource="http://purl.org/dc/dcmitype/StillImage" />
        <dc:title />
      </cc:Work>
    </rdf:RDF>
  </metadata>
  <g
     inkscape:groupmode="layer"
     id="layer2"
     inkscape:label="補助線"
     style="display:none"
     sodipodi:insensitive="true">
    <path
       style="fill:none;stroke:#0000ff;stroke-width:1px;stroke-linecap:butt;stroke-linejoin:miter;stroke-opacity:1"
       d="M 10,310 360,10"
       id="path3025"
       inkscape:connector-curvature="0"
       sodipodi:nodetypes="cc" />
    <path
       style="fill:none;stroke:#0000ff;stroke-width:1px;stroke-linecap:butt;stroke-linejoin:miter;stroke-opacity:1"
       d="M 10,10 360,310"
       id="path3027"
       inkscape:connector-curvature="0"
       sodipodi:nodetypes="cc" />
    <path
       style="display:inline;fill:none;stroke:#ff0000;stroke-width:1px;stroke-linecap:butt;stroke-linejoin:miter;stroke-opacity:1"
       d="M 10,0 V 320"
       id="path3006"
       inkscape:connector-curvature="0"
       sodipodi:nodetypes="cc" />
    <path
       style="display:inline;fill:none;stroke:#ff0000;stroke-width:1px;stroke-linecap:butt;stroke-linejoin:miter;stroke-opacity:1"
       d="M 360,0 V 320"
       id="path3010"
       inkscape:connector-curvature="0"
       sodipodi:nodetypes="cc" />
    <path
       style="display:inline;fill:none;stroke:#ff0000;stroke-width:1px;stroke-linecap:butt;stroke-linejoin:miter;stroke-opacity:1"
       d="M 0,9.9999681 370,10"
       id="path3016"
       inkscape:connector-curvature="0" />
    <path
       transform="translate(84.715796,27.711696)"
       style="display:inline;fill:none;stroke:#ff0000;stroke-width:1px;stroke-linecap:butt;stroke-linejoin:miter;stroke-opacity:1"
       d="M -84.715796,282.2883 H 285.2842"
       id="path3018"
       inkscape:connector-curvature="0"
       sodipodi:nodetypes="cc" />
  </g>
  <g
     inkscape:groupmode="layer"
     id="layer11"
     inkscape:label="背景"
     sodipodi:insensitive="true">
    <rect
       style="display:inline;fill:#000000;fill-opacity:1;stroke:none;stroke-width:1.5;stroke-linecap:round;stroke-linejoin:round;filter:url(#filter16998)"
       id="rect4930"
       width="289.91379"
       height="287.08533"
       x="-29.814814"
       y="70.836555"
       ry="0"
       transform="matrix(1.1320885,0,0,1.0730502,7.4754571,-29.683533)" />
  </g>
  <g
     inkscape:groupmode="layer"
     id="layer12"
     inkscape:label="吹き出し"
     sodipodi:insensitive="true">
    <path
       style="display:inline;opacity:1;fill:#fefefe;fill-opacity:1;stroke:#000000;stroke-width:1.5;stroke-linecap:round;stroke-linejoin:round;stroke-miterlimit:4;stroke-dasharray:none;stroke-dashoffset:0;stroke-opacity:1"
       d="m 288.37862,250.59567 c -37.72774,0 -68.31212,-53.13037 -68.31212,-118.66999 0,-9.7607 -12.40666,-27.68474 -29.85696,-16.91552 15.56763,-18.025917 34.1521,-25.196174 35.82395,-31.661454 10.68463,-41.318775 34.58054,-70.093019 62.34513,-70.093019 37.72774,0 68.31211,53.130359 68.31211,118.669993 0,65.53962 -30.58437,118.66999 -68.31211,118.66999 z"
       id="path7611"
       inkscape:connector-curvature="0"
       sodipodi:nodetypes="sscssss" />
    <text
       xml:space="preserve"
       style="font-style:normal;font-variant:normal;font-weight:normal;font-stretch:normal;font-size:28.7490139px;line-height:1;font-family:HGMinchoB;-inkscape-font-specification:HGMinchoB;letter-spacing:0px;word-spacing:0px;display:inline;fill:#000000;fill-opacity:1;stroke:none;stroke-width:2.021415;stroke-linecap:round;stroke-linejoin:round"
       x="258.87454"
       y="61.093369"
       id="text7607"><tspan
         sodipodi:role="line"
         x="258.87454"
         y="61.093369"
         id="tspan13941"
         style="stroke-width:2.021415">と今</tspan><tspan
         sodipodi:role="line"
         x="258.87454"
         y="91.913597"
         id="tspan17040"
         style="stroke-width:2.021415">いが</tspan><tspan
         sodipodi:role="line"
         x="258.87454"
         y="122.73383"
         id="tspan17042"
         style="stroke-width:2.021415">う好</tspan><tspan
         sodipodi:role="line"
         x="258.87454"
         y="153.55405"
         id="tspan17044"
         style="stroke-width:2.021415">わ機</tspan><tspan
         sodipodi:role="line"
         x="258.87454"
         y="184.37428"
         id="tspan17046"
         style="stroke-width:2.021415">け</tspan><tspan
         sodipodi:role="line"
         x="258.87454"
         y="215.1945"
         id="tspan17050"
         style="stroke-width:2.021415">だ</tspan></text>
    <text
       xml:space="preserve"
       style="font-style:normal;font-variant:normal;font-weight:normal;font-stretch:normal;font-size:28.7490139px;line-height:1;font-family:HGMinchoB;-inkscape-font-specification:HGMinchoB;letter-spacing:0px;word-spacing:0px;display:inline;fill:#000000;fill-opacity:1;stroke:none;stroke-width:2.021415;stroke-linecap:round;stroke-linejoin:round"
       x="275.86652"
       y="169.84645"
       id="text7607-8"><tspan
         sodipodi:role="line"
         x="275.86652"
         y="169.84645"
         id="tspan17046-2"
         style="stroke-width:2.021415">　、</tspan><tspan
         sodipodi:role="line"
         x="275.86652"
         y="198.59546"
         id="tspan17048-5"
         style="stroke-width:2.021415">　</tspan><tspan
         sodipodi:role="line"
         x="275.86652"
         y="229.4157"
         id="tspan17050-7"
         style="stroke-width:2.021415">。</tspan></text>
  </g>
  <g
     inkscape:groupmode="layer"
     id="layer6"
     inkscape:label="豚"
     style="display:inline"
     sodipodi:insensitive="true">
    <path
       style="display:inline;fill:#dbdbe3;stroke:none;stroke-width:1.5;stroke-linecap:round;stroke-linejoin:round;stroke-opacity:1"
       d="m 14.867279,302.353 88.061441,205.15044 41.32332,6.37475 8.66137,-220.97866 z"
       id="path16354-1"
       inkscape:connector-curvature="0"
       sodipodi:nodetypes="ccccc" />
    <path
       inkscape:connector-curvature="0"
       style="display:inline;fill:#a05a2c;fill-opacity:1;stroke:#000000;stroke-width:1.5;stroke-linecap:round;stroke-linejoin:round;stroke-opacity:1"
       d="m 29.687432,206.64859 c 7.453972,19.68662 2.633693,36.51601 3.797704,54.80486 l 67.190954,43.7629 52.43817,-62.46936 c -1.52382,-12.5037 -4.13296,-26.00419 -2.67728,-42.97714 z"
       id="path16354-9"
       sodipodi:nodetypes="cccccc" />
    <path
       style="display:inline;fill:#1c1f24;stroke:#000000;stroke-width:1.5;stroke-linecap:round;stroke-linejoin:round;stroke-opacity:1"
       d="M 369.0047,462.47015 C 312.82891,401.35755 250.56923,349.80013 230.67568,321.51618 c -14.85075,-21.11429 -6.94641,-85.67899 3.99452,-101.75054 9.60441,-14.10831 23.20955,12.12793 45.27369,32.22681 22.13211,20.16081 75.6852,71.94461 102.12132,100.32328"
       id="path11518-7"
       inkscape:connector-curvature="0" />
    <path
       style="display:inline;fill:#550000;stroke:#000000;stroke-width:1.5;stroke-linecap:round;stroke-linejoin:round;stroke-opacity:1"
       d="m 114.78681,335.20962 37.8629,186.14133 -32.2312,57.12881 L 83.690171,523.9226 96.866822,335.93001 Z"
       id="path6770-0-4-6-6-4-7-6"
       inkscape:connector-curvature="0"
       sodipodi:nodetypes="cccccc" />
    <path
       style="display:inline;fill:#550000;stroke:#000000;stroke-width:1.5;stroke-linecap:round;stroke-linejoin:round;stroke-opacity:1"
       d="m 119.15309,289.53238 -34.20738,3.35571 -10.802337,12.11512 22.40548,37.02241 c 6.363117,0.60291 12.726237,1.84532 19.089347,-2.03534 l 13.5264,-41.88049 z"
       id="path6768-9-1-6-8-4-4-8"
       inkscape:connector-curvature="0"
       sodipodi:nodetypes="ccccccc" />
    <path
       style="display:inline;fill:#dbdbe3;stroke:#000000;stroke-width:1.5;stroke-linecap:round;stroke-linejoin:round;stroke-opacity:1"
       d="m 105.29521,289.43309 c 11.44381,1.66494 33.56048,23.40278 48.39816,41.83108 4.30724,-36.14767 7.85783,-99.42372 4.57646,-107.36553 -2.73247,-6.61332 -5.17652,-16.68757 -8.25385,-19.16259 1.76178,16.97224 -13.78652,61.1612 -44.72077,84.69704 z"
       id="path16354"
       inkscape:connector-curvature="0"
       sodipodi:nodetypes="ccscc" />
    <path
       style="display:inline;fill:#dbdbe3;stroke:#000000;stroke-width:1.5;stroke-linecap:round;stroke-linejoin:round;stroke-opacity:1"
       d="m 26.61434,237.1804 c 3.707037,19.82303 17.679711,87.91971 31.49026,109.17771 9.445675,-17.33655 28.622142,-50.54973 40.490255,-55.88049 C 56.334753,271.42146 31.088276,234.5371 32.433704,214.7822 c -3.610789,6.12927 -3.943018,14.88138 -5.819364,22.3982 z"
       id="path6657-6-4-0-2-2-0-5"
       inkscape:connector-curvature="0"
       sodipodi:nodetypes="ccccc" />
    <path
       style="display:inline;fill:#1c1f24;stroke:#000000;stroke-width:1.5;stroke-linecap:round;stroke-linejoin:round;stroke-opacity:1"
       d="m 16.483254,238.59248 c -17.32037634,11.63301 -79.217943,37.38635 -86.763558,42.77775 -6.041337,4.31658 -1.179414,44.76543 2.244113,58.58495 9.194099,37.1132 45.598173,125.87416 49.742578,145.9365 4.165353,20.16376 4.606019,116.82081 5.441089,142.55358 L 123.60641,499.68564 50.722297,352.48655 Z"
       id="path16344"
       inkscape:connector-curvature="0"
       sodipodi:nodetypes="cssscccc" />
    <path
       style="display:inline;fill:#1c1f24;stroke:#000000;stroke-width:1.5;stroke-linecap:round;stroke-linejoin:round;stroke-opacity:1"
       d="M 51.633946,334.86802 C 32.813816,290.7905 26.112238,247.3907 28.282355,224.42119 c -2.716201,2.17219 -12.58734,12.3886 -13.455803,16.24174 -1.638465,13.65612 -11.3518641,41.72178 -12.0044647,73.15517 6.0102257,8.42628 25.8234607,35.399 30.8147277,43.37433 z"
       id="path4904"
       inkscape:connector-curvature="0"
       sodipodi:nodetypes="cccccc" />
    <path
       style="display:inline;fill:#1c1f24;stroke:#000000;stroke-width:1.5;stroke-linecap:round;stroke-linejoin:round;stroke-opacity:1"
       d="m -12.852524,628.44526 147.014544,4.69855 c 2.47362,-35.8479 -5.11493,-118.97507 -6.0538,-124.68949 -3.46334,-20.74398 -44.320305,-97.44913 -76.474274,-173.5863 L 9.8403819,359.88969 C 29.380059,382.44467 90.470723,470.87069 120.86688,500.19076"
       id="path16342"
       inkscape:connector-curvature="0"
       sodipodi:nodetypes="cccccc" />
    <path
       style="display:inline;fill:#1c1f24;stroke:#000000;stroke-width:1.5;stroke-linecap:round;stroke-linejoin:round;stroke-opacity:1"
       d="m 165.31747,216.74572 c 16.62411,0.46428 69.37445,-8.11507 81.36676,0.89872 9.55661,7.18303 20.74921,68.87396 19.60659,103.18856 -1.82422,54.78478 -23.64321,104.63585 -20.97289,127.15085 3.07788,25.95136 11.83077,128.32404 13.00496,182.48285 L 117.14794,506.19204 172.47521,320.75413 Z"
       id="path4898"
       inkscape:connector-curvature="0"
       sodipodi:nodetypes="cssscccc" />
    <path
       style="display:inline;fill:#1c1f24;stroke:#000000;stroke-width:1.5;stroke-linecap:round;stroke-linejoin:round;stroke-opacity:1"
       d="m 155.59437,312.13911 c 2.93316,-32.60245 3.49328,-74.72965 -2.26056,-103.96764 2.39259,0.88241 11.1843,5.70359 14.09672,7.85367 6.72811,13.59256 22.17363,64.94792 27.75477,81.00283 l -17.50356,31.06072 z"
       id="path16348"
       inkscape:connector-curvature="0"
       sodipodi:nodetypes="cccccc" />
    <path
       style="display:inline;fill:#1c1f24;stroke:#000000;stroke-width:1.5;stroke-linecap:round;stroke-linejoin:round;stroke-opacity:1"
       d="m -31.450286,378.18619 c -3.942787,-9.82646 -6.782087,-28.19692 -9.730797,-39.34459 -10.116303,-38.24491 -19.946443,-51.64598 -26.867039,-56.42808 -12.548202,-8.67075 -8.403278,40.43562 -13.802201,74.95681 -5.723065,36.59379 -3.899582,96.66161 -0.929999,145.41835 2.04942,33.64871 15.564048,52.74162 57.466349,43.3465 21.6917873,-4.86364 74.056967,-115.42292 87.854713,-139.00074 7.955222,-23.83628 -55.466786,-74.40255 -73.4231,-63.5788 -14.020705,20.01907 -53.03708,94.51305 -67.523751,131.91177"
       id="path6661-0-3-5-5-4-2"
       inkscape:connector-curvature="0"
       sodipodi:nodetypes="csssssccc" />
    <path
       style="display:inline;fill:#a05a2c;stroke:#000000;stroke-width:1.5;stroke-linecap:round;stroke-linejoin:round;stroke-opacity:1"
       d="m 17.4895,180.27193 c -3.019533,-3.76196 -10.5000396,-1.02551 -14.9359132,-13.68872 -1.61445003,-4.60882 -3.29822477,-12.27073 -6.520392,-22.19949 -3.4837877,-10.73491 -1.5248343,-18.93492 0.9467802,-21.78504 2.76079668,-3.18358 6.3648796,-1.52033 8.85604,1.49405 l 154.516635,-4.78919 c 2.22447,-6.09582 4.7804,-9.82392 9.38547,-8.56432 3.83953,1.0502 6.53776,6.21006 5.07283,18.03739 -1.47732,11.92723 -4.62256,19.99857 -5.56285,25.66487 -2.1738,13.09944 -9.88837,13.36579 -12.36945,17.64305"
       id="path6637-1-9-6-8-7-1-4-8-9"
       inkscape:connector-curvature="0"
       sodipodi:nodetypes="csssccsssc" />
    <g
       id="g16251"
       transform="translate(-8.2781852,5.9950892)"
       style="stroke-linecap:round;stroke-linejoin:round">
      <path
         sodipodi:nodetypes="ccscsscsccc"
         style="display:inline;fill:#a05a2c;fill-opacity:1;stroke:#000000;stroke-width:1.5;stroke-linecap:round;stroke-linejoin:round;stroke-opacity:1"
         d="m 60.18461,251.61359 c -0.18717,2.02604 -0.19004,4.54009 -0.0873,6.45143 3.78256,2.72762 8.45809,7.15589 10.90863,6.70664 4.54498,-0.83321 10.13579,-7.84074 14.1894,-8.45696 6.20706,-4.81921 15.58271,-6.21703 20.86582,-5.67659 4.93474,0.50481 5.87827,6.60788 1.48246,10.64944 -3.73622,3.43515 -8.66016,7.45689 -15.00232,9.21408 -4.62686,0.15337 -16.7242,10.91868 -20.38081,13.46917 -4.65065,3.2439 -2.62076,9.78271 -9.05723,18.58704 L 42.11483,247.52857 Z"
         id="path13306-1-6"
         inkscape:connector-curvature="0" />
      <path
         style="display:inline;fill:#d8986c;fill-opacity:1;stroke:none;stroke-width:1.5;stroke-linecap:round;stroke-linejoin:round"
         d="m 91.23027,257.89676 c 1.63266,-2.74791 13.09172,-6.93291 15.44635,-3.82731 3.2203,4.24732 -6.90628,10.32364 -12.76518,10.77423 -7.56505,0.58179 -4.31346,-4.19958 -2.68117,-6.94692 z"
         id="path6415-1-8-1-8-5"
         inkscape:connector-curvature="0"
         sodipodi:nodetypes="ssss" />
    </g>
    <path
       style="display:inline;fill:#a05a2c;fill-opacity:1;stroke:#000000;stroke-width:1.5;stroke-linecap:round;stroke-linejoin:round;stroke-opacity:1"
       d="m 161.11515,138.89066 c -1.6233,16.99801 -4.12709,46.7758 -6.75984,56.83122 -4.22782,16.14759 -33.46714,51.74327 -40.62411,56.78265 -8.94154,6.29588 -24.007338,5.61253 -34.216055,5.15053 C 68.891822,257.17431 35.611774,224.30119 28.50419,211.30604 21.631783,198.74083 14.379434,168.95743 10.578459,155.47706"
       id="path4697-2-8-2"
       inkscape:connector-curvature="0"
       sodipodi:nodetypes="cssssc" />
    <path
       style="display:inline;fill:#a05a2c;fill-opacity:1;stroke:#000000;stroke-width:1.5;stroke-linecap:round;stroke-linejoin:round;stroke-opacity:1"
       d="M 6.5252121,132.8119 C 2.6845531,109.31107 3.9595394,88.768646 8.7332749,70.193131 15.013003,45.757524 49.700116,24.033392 78.884,21.90332 c 26.84124,-1.959087 59.56501,20.032651 69.55356,33.704065 8.06467,11.03819 14.63994,31.423744 13.16059,66.843775"
       id="path4699-3-4-7"
       inkscape:connector-curvature="0"
       sodipodi:nodetypes="csssc" />
    <path
       style="display:inline;opacity:0.95;fill:none;stroke:#000000;stroke-width:1.5;stroke-linecap:round;stroke-linejoin:round;stroke-opacity:1"
       d="m 166.48431,149.79807 c -0.51318,-6.25385 -2.54878,-12.95151 -2.15159,-17.57967 0.35361,-4.12032 3.22269,-15.25832 5.79424,-15.76015 2.92131,-0.57003 2.23661,5.16729 1.81469,9.26459 -0.86928,8.4417 -2.64369,20.95987 -5.95786,24.8201 -2.14523,2.49873 -5.65208,10.98724 -5.35487,6.98939 0.19136,-2.57404 1.93425,-7.43247 2.21571,-9.43005 0.31218,-2.21562 -1.78594,-6.92392 -1.10664,-11.18124"
       id="path6639-8-6-8-4-6-4-5-9-1-0"
       inkscape:connector-curvature="0"
       sodipodi:nodetypes="cscscssc" />
    <path
       style="display:inline;opacity:0.95;fill:none;stroke:#000000;stroke-width:1.5;stroke-linecap:round;stroke-linejoin:round;stroke-opacity:1"
       d="m 4.7700336,158.44045 c 1.2335108,-2.85215 2.6843643,-11.08853 1.8134035,-15.71406 -1.1078585,-5.88366 -6.72443887,-16.10586 -8.2592315,-13.89684 -1.5965885,2.29796 -1.3075963,7.8715 -0.2226927,11.8909 2.23524053,8.28123 7.3542101,19.26297 8.8047498,23.35756 1.0557413,2.98016 7.5321643,9.93187 6.6576653,5.92883 -1.006224,-4.60602 -4.9965008,-9.4054 -5.26229,-11.4446 -0.4038698,-3.09858 0.8413824,-5.87634 0.2588664,-10.1437"
       id="path6639-8-6-0-4-6-7-8-4-4"
       inkscape:connector-curvature="0"
       sodipodi:nodetypes="cssssssc" />
    <path
       style="display:inline;fill:#d8986c;fill-opacity:1;stroke:none;stroke-width:1.5;stroke-linecap:round;stroke-linejoin:round"
       d="m 69.876732,155.18941 c -3.312642,-2.79138 -8.181781,5.95914 -15.498681,7.14915 -5.706292,0.92806 -14.246875,-4.11264 -17.360364,-5.16085 -5.91184,-1.99031 -5.547213,11.36915 -4.849915,14.35414 1.898602,8.12752 20.667316,32.3953 28.465642,19.21488 6.442183,-10.88832 14.371786,-31.23584 9.243318,-35.55732 z"
       id="path8652"
       inkscape:connector-curvature="0"
       sodipodi:nodetypes="ssssss" />
    <path
       style="display:inline;opacity:0.1;fill:#000000;fill-opacity:1;stroke:none;stroke-width:1.5;stroke-linecap:round;stroke-linejoin:round;stroke-opacity:1"
       d="m 32.103066,151.60878 c 2.47042,1.60922 7.879229,4.83045 10.36191,6.04219 3.913463,1.91007 13.848173,1.51758 17.701093,-0.32 2.68774,-1.28186 6.716993,-6.78949 8.755623,-9.3633 l -3.405306,-2.36858 -30.85542,3.81415 z"
       id="path4689-7-5-1-4-8"
       inkscape:connector-curvature="0"
       sodipodi:nodetypes="csscccc" />
    <path
       style="display:inline;fill:#d8986c;fill-opacity:1;stroke:none;stroke-width:1.5;stroke-linecap:round;stroke-linejoin:round"
       d="M 76.79016,252.40638 C 64.225941,242.80619 66.753094,225.37315 65.806613,212.05549 l 18.179798,-3.26217 c -0.08563,-3.94601 2.567408,-6.26935 5.472704,-6.69237 2.048073,-0.2982 7.301599,2.33488 8.787912,6.18267 1.427284,-6.41503 0.989642,-8.46664 -1.808361,-9.98935 -13.199172,6.00964 -14.242511,-5.47466 -14.452316,-10.63751 -0.465292,-11.44985 -0.487812,-36.27487 -1.099064,-47.99877 -0.221679,-4.25188 -4.471585,-13.17851 -7.124689,-10.8269 -4.508312,3.996 -0.447402,6.59761 -10.535505,8.3821 1.642596,2.30296 5.564306,5.92731 4.244381,10.09249 l -31.834711,0.1636 c -2.970191,-1.19723 -6.483439,-10.5033 0.515811,-16.69398 l -4.102869,-0.87187 C 17.039662,125.79036 21.292129,73.908475 30.696713,56.574499 40.455155,38.588311 58.981169,26.967287 72.574539,24.573203 c 20.207796,-3.559025 38.290241,5.298069 55.584001,17.692766 21.5755,15.463489 24.87641,42.256558 21.01723,59.066451 -1.74653,7.60759 -1.56967,18.70889 -8.46716,20.63211 l -8.92192,1.97934 c 9.59046,3.66985 7.76077,13.15484 4.13168,15.64752 l -32.83904,4.13072 c -3.186408,-1.7105 -3.706225,-4.18139 -3.467488,-8.58226 -4.635217,-6.93495 -7.066626,-1.12968 -7.562646,4.69591 -0.462769,5.43516 3.722694,17.75774 5.65745,15.22117 0.734516,-0.96296 3.569824,-3.43659 5.190564,-3.17272 5.02299,0.81781 9.80777,6.57083 16.73461,6.75462 8.03763,0.21327 16.22857,-7.36411 18.97413,-6.66302 4.45506,1.1376 7.36169,10.89995 4.4615,25.68223 -2.02645,10.32884 -4.88242,16.77644 -11.55592,33.74052 -8.56745,21.7785 -14.19514,32.42916 -23.47016,40.47013 -6.9645,6.03786 -24.434015,5.74664 -31.25121,0.53769 z"
       id="path6706-5-3-4-9-4-8-3-5-8-4"
       inkscape:connector-curvature="0"
       sodipodi:nodetypes="scccccssscccccsssscccccsssssssss" />
    <path
       sodipodi:nodetypes="cccccc"
       style="display:inline;fill:#cccccc;fill-opacity:1;stroke:none;stroke-width:1.5;stroke-linecap:round;stroke-linejoin:round"
       d="m 41.690432,146.37384 20.5062,-2.96446 5.469009,3.80721 -14.221746,5.33243 -18.891045,-2.26689 z"
       id="path3337-0-4-8-1-0-9-7-7-8-5"
       inkscape:connector-curvature="0" />
    <path
       style="display:inline;fill:#cccccc;fill-opacity:1;stroke:#28170b;stroke-width:1.5;stroke-linecap:round;stroke-linejoin:round;stroke-opacity:1"
       d="m 34.55285,150.28213 c 3.241827,1.966 9.236951,5.09237 11.281083,5.36018 2.76925,0.36289 12.559201,-0.61448 14.008855,-1.10675 1.585803,-0.53851 5.998513,-5.58715 7.822853,-7.31897"
       id="path4687-2-3-1"
       inkscape:connector-curvature="0"
       sodipodi:nodetypes="cssc" />
    <path
       sodipodi:nodetypes="sssssss"
       style="display:inline;fill:#f2f2f2;fill-opacity:1;stroke:none;stroke-width:1.5;stroke-linecap:round;stroke-linejoin:round"
       d="m 64.330435,147.60307 c 0.651017,0.6327 -3.338866,4.92628 -5.274264,5.38847 -2.129626,0.50857 -12.527308,1.00396 -13.785533,0.91062 -0.987219,-0.0732 -5.310322,-2.41887 -6.001623,-3.17015 -0.756539,-0.82216 1.46973,-1.91077 2.557277,-2.16676 6.018045,-1.41653 15.283139,-2.83285 18.364345,-2.87351 1.564344,-0.0206 3.572056,1.35958 4.139798,1.91133 z"
       id="path3337-0-4-8-8-9-3-5-32-1-9-1-7-2"
       inkscape:connector-curvature="0" />
    <path
       style="display:inline;fill:#280b0b;stroke:none;stroke-width:1.5;stroke-linecap:round;stroke-linejoin:round"
       d="m 58.590518,143.463 c 0.764077,4.01533 -2.048251,7.56566 -6.52487,7.90096 -4.960593,0.37149 -7.693896,-2.51482 -8.408677,-5.59795 z"
       id="path3357-0-7-3-6-4-6-1-2-5"
       inkscape:connector-curvature="0"
       sodipodi:nodetypes="cscc" />
    <path
       style="display:inline;opacity:0.1;fill:#000000;fill-opacity:1;stroke:none;stroke-width:1.5;stroke-linecap:round;stroke-linejoin:round;stroke-opacity:1"
       d="m 101.08286,145.59514 c 2.47042,1.90086 6.42102,4.61172 7.99232,5.89637 3.37139,2.75632 15.01474,1.04366 18.86766,-0.79392 2.68774,-1.28186 7.88356,-7.55505 9.92219,-10.12886 l -4.13441,-1.53011 -30.01695,3.81415 z"
       id="path4689-7-5-1-4"
       inkscape:connector-curvature="0"
       sodipodi:nodetypes="csscccc" />
    <path
       sodipodi:nodetypes="cccccc"
       style="display:inline;fill:#cccccc;fill-opacity:1;stroke:none;stroke-width:1.5;stroke-linecap:round;stroke-linejoin:round"
       d="m 102.21088,144.50702 17.29735,4.20095 16.18527,-8.71181 -6.15886,-1.87731 -21.64667,1.38908 z"
       id="path3337-0-4-8-8-9-3-5-32-1-9-1"
       inkscape:connector-curvature="0" />
    <path
       style="display:inline;fill:#cccccc;fill-opacity:1;stroke:#28170b;stroke-width:1.5;stroke-linecap:round;stroke-linejoin:round;stroke-opacity:1"
       d="m 102.21088,144.50702 c 2.47042,1.90086 6.36032,3.74772 8.14699,4.71059 2.34028,1.26122 13.31341,-0.86389 16.39299,-1.25791 2.95362,-0.37851 6.90401,-5.38973 8.94264,-7.96354"
       id="path4689-7-5-1"
       inkscape:connector-curvature="0"
       sodipodi:nodetypes="cssc" />
    <path
       sodipodi:nodetypes="sssssss"
       style="display:inline;fill:#f2f2f2;fill-opacity:1;stroke:none;stroke-width:1.5;stroke-linecap:round;stroke-linejoin:round"
       d="m 106.30281,144.59166 c -0.5002,0.75758 3.54482,2.83321 5.50992,3.1459 4.7205,0.75113 13.24832,-0.71947 14.45726,-1.08045 0.94855,-0.28323 4.6681,-3.50133 5.18222,-4.38337 0.56264,-0.96526 -1.84528,-1.55116 -2.96242,-1.56798 -6.18181,-0.0931 -15.53509,0.5103 -18.55334,1.13131 -1.53238,0.31529 -3.19742,2.09393 -3.63364,2.75459 z"
       id="path3337-0-4-8-8-9-3-5-32-1-9-1-7"
       inkscape:connector-curvature="0" />
    <path
       style="display:inline;fill:#280b0b;stroke:none;stroke-width:1.5;stroke-linecap:round;stroke-linejoin:round"
       d="m 110.16573,138.97603 c 0.16359,3.10887 2.3183,6.47368 8.2642,6.46791 5.3591,-0.005 8.47104,-4.30482 7.72036,-7.29781 z"
       id="path3357-0-7-8-3-4-5-2-5-1-7"
       inkscape:connector-curvature="0"
       sodipodi:nodetypes="cscc" />
    <path
       style="display:inline;fill:none;stroke:#000000;stroke-width:1.5;stroke-linecap:round;stroke-linejoin:round;stroke-opacity:1"
       d="m 75.458105,134.1887 0.67017,6.29124"
       id="path4693-1-9-5"
       inkscape:connector-curvature="0" />
    <path
       style="display:inline;fill:#000000;stroke:none;stroke-width:1.5;stroke-linecap:round;stroke-linejoin:round"
       d="m 69.797029,139.627 c -9.36172,2.79962 -12.723718,-2.82297 -23.628676,-5.33103 -11.110032,-2.55523 -29.520055,1.47459 -27.121073,-0.75981 4.36114,-4.06195 22.974331,-3.69437 33.324807,-1.64875 3.340161,0.66014 10.269059,2.1613 13.777062,2.78702 6.200863,1.10604 9.910754,3.07966 3.64788,4.95257 z"
       id="path6645-7-7-7-1-8-1-2-0-6"
       inkscape:connector-curvature="0"
       sodipodi:nodetypes="ssssss" />
    <path
       style="display:inline;fill:#000000;stroke:none;stroke-width:1.5;stroke-linecap:round;stroke-linejoin:round"
       d="m 95.825815,140.59256 c 9.725875,-0.56962 13.586835,-9.05911 25.166125,-12.40402 11.44548,-3.30623 29.43101,-5.57144 26.16677,-6.61139 -4.27498,-1.36194 -18.58985,1.75527 -26.17988,3.40114 -6.43155,1.39467 -12.09629,3.36753 -16.531,5.48147 -6.489618,3.0935 -17.218375,10.63627 -8.622015,10.1328 z"
       id="path6645-7-7-6-6-6-7-8-1-6-4"
       inkscape:connector-curvature="0"
       sodipodi:nodetypes="ssssss" />
    <path
       style="display:inline;fill:none;stroke:#000000;stroke-width:1.5;stroke-linecap:round;stroke-linejoin:round;stroke-opacity:1"
       d="m 31.365405,151.68196 c 4.257199,-2.39669 7.106515,-4.40302 10.325027,-5.30812 4.981741,-1.40098 17.32661,-3.31117 20.5062,-2.96446 2.00258,0.21838 6.122674,4.73865 7.776266,5.29209"
       id="path4683-8-6-2"
       inkscape:connector-curvature="0"
       sodipodi:nodetypes="cssc" />
    <path
       style="display:inline;fill:none;stroke:#000000;stroke-width:1.5;stroke-linecap:round;stroke-linejoin:round;stroke-opacity:1"
       d="m 99.954749,146.218 c 2.133071,-0.88029 5.895151,-6.17255 7.933221,-6.71007 4.07329,-1.07431 19.35862,-1.84166 21.64667,-1.38908 2.89739,0.57318 8.06445,2.40972 10.50972,3.08925"
       id="path4685-5-1-3"
       inkscape:connector-curvature="0"
       sodipodi:nodetypes="cssc" />
    <path
       style="display:inline;fill:#a05a2c;stroke:none;stroke-width:1.5;stroke-linecap:round;stroke-linejoin:round"
       d="m 107.73559,187.00205 c 0.70872,-5.56514 19.21127,25.68709 14.08909,25.96905 -4.07145,0.22412 -7.54026,0.14262 -10.17521,-6.00749 -1.73121,-4.04082 -4.58592,-14.68391 -3.91388,-19.96156 z"
       id="path4329-1-1-4-3-8"
       inkscape:connector-curvature="0"
       sodipodi:nodetypes="ssss" />
    <path
       style="display:inline;fill:#a05a2c;fill-opacity:1;stroke:none;stroke-width:1.5;stroke-linecap:round;stroke-linejoin:round"
       d="m 104.28557,224.8485 c -4.63541,-0.22341 -15.37391,0.39347 -23.328974,2.4202 -4.191319,1.06791 3.66254,7.97956 12.997451,6.94431 7.790523,-0.86391 17.626823,-9.01282 10.331523,-9.36451 z"
       id="path6710-3-6-7-3-2-5-7-2"
       inkscape:connector-curvature="0" />
    <path
       style="display:inline;fill:#000000;stroke:none;stroke-width:1.5;stroke-linecap:round;stroke-linejoin:round"
       d="m 124.36624,220.99379 c 1.2941,-1.17354 2.43656,-8.29662 0.76161,-10.84413 -1.65779,-2.52165 -20.65991,-8.78405 -26.206926,-9.89551 -1.314246,-0.26331 -4.309479,1.95805 -8.580018,2.37185 -4.283126,0.41503 -8.594697,-1.10878 -9.875487,-0.69627 -5.405308,1.74136 -23.980879,11.92191 -25.379327,14.61934 -1.412643,2.7251 0.72706,8.43195 3.478509,9.7961 5.069132,2.51295 13.410775,-4.90251 31.698656,-6.16827 21.417903,-1.48233 30.723323,3.8812 34.102983,0.81689 z"
       id="path6633-4-3-0-8-4-1-6-2-7-1"
       inkscape:connector-curvature="0" />
    <path
       style="display:inline;fill:none;stroke:#483737;stroke-width:1.5;stroke-linecap:round;stroke-linejoin:round;stroke-opacity:1"
       d="m 104.83005,198.58649 c 3.52308,-1.50764 5.0651,-5.12348 4.14459,-9.19541"
       id="path10217-5-2"
       inkscape:connector-curvature="0"
       sodipodi:nodetypes="cc" />
    <path
       style="display:inline;fill:none;stroke:#000000;stroke-width:1.5;stroke-linecap:round;stroke-linejoin:round;stroke-opacity:1"
       d="m 83.127813,199.44582 c 4.43727,3.62545 11.143829,1.55513 13.241785,-1.77905"
       id="path17579-2"
       inkscape:connector-curvature="0"
       sodipodi:nodetypes="cc" />
    <path
       style="display:inline;fill:none;stroke:#483737;stroke-width:1.5;stroke-linecap:round;stroke-linejoin:round;stroke-opacity:1"
       d="m 73.187962,201.79914 c -3.05007,-1.50764 -5.301622,-4.17746 -4.381105,-8.24938"
       id="path10217-5-2-1"
       inkscape:connector-curvature="0"
       sodipodi:nodetypes="cc" />
    <g
       id="g16247"
       transform="translate(-8.2781852,5.9950892)"
       style="stroke-linecap:round;stroke-linejoin:round">
      <path
         sodipodi:nodetypes="cssssscccc"
         style="display:inline;fill:#a05a2c;fill-opacity:1;stroke:#000000;stroke-width:1.5;stroke-linecap:round;stroke-linejoin:round;stroke-opacity:1"
         d="m 42.82686,247.92392 c 5.96212,-10.96051 19.81611,-30.29115 22.85938,-30.93002 4.75036,-0.99721 37.47186,5.43585 40.42708,10.22665 4.65159,7.54088 -4.59474,28.72611 -9.62279,32.11502 -3.70728,2.49879 -14.62137,0.96717 -18.34454,0.58179 -5.5256,-0.57193 -7.25526,-7.41024 -1.24471,-8.81053 2.79077,-0.65018 7.81569,-2.414 12.41619,-2.50015 0.0358,-3.31498 3.60752,-10.37031 4.43012,-14.41074 -6.69105,-1.01917 -19.0043,-3.28112 -25.31646,-4.96892 -1.51946,4.96026 -5.41805,15.1529 -8.913,24.45738"
         id="path13304-6-0-2-4"
         inkscape:connector-curvature="0" />
      <path
         sodipodi:nodetypes="cssssscccc"
         style="display:inline;fill:#a05a2c;fill-opacity:1;stroke:#000000;stroke-width:1.5;stroke-linecap:round;stroke-linejoin:round;stroke-opacity:1"
         d="m 38.60178,253.90357 c 8.79251,-24.08425 21.3489,-36.30117 24.83659,-36.83639 10.72787,-1.64628 35.17736,2.35674 38.90643,7.60332 5.86214,8.2477 -3.03508,35.67401 -8.51304,39.91024 -4.03901,3.12348 -16.591,2.19008 -20.86272,2.02791 -6.3397,-0.24065 -8.81966,-7.90514 -2.07407,-9.94816 3.1321,-0.94857 8.7274,-3.33256 13.96384,-3.77314 -0.20578,-3.78049 3.33965,-12.08673 3.97649,-16.7525 -8.35143,-0.71964 -19.97345,0.28333 -26.37065,1.10457 -1.94151,5.07168 -3.06008,8.29817 -6.12015,16.48265"
         id="path13304-6-9-3"
         inkscape:connector-curvature="0" />
      <path
         sodipodi:nodetypes="cssssscccc"
         style="display:inline;fill:#a05a2c;fill-opacity:1;stroke:#000000;stroke-width:1.5;stroke-linecap:round;stroke-linejoin:round;stroke-opacity:1"
         d="m 37.41749,254.62529 c 6.65064,-14.68216 17.4849,-36.66377 22.66228,-37.54523 10.75267,-1.83065 33.75319,3.61757 37.42784,8.78755 5.86215,8.24771 1.68639,36.01038 -3.79157,40.24662 -4.03901,3.12347 -18.407,4.14894 -23.23034,2.47393 -7.82108,-2.71598 -7.45743,-7.18111 -2.07404,-9.94815 2.91069,-1.49588 10.14795,-3.60019 15.38438,-4.04077 -0.20577,-3.78049 -0.50687,-10.38144 0.12987,-15.04724 -7.07854,-0.60995 -16.17242,-1.99008 -22.63489,-2.98067 -1.14757,3.73459 -4.5849,11.71982 -7.3777,18.61214"
         id="path13304-3-8"
         inkscape:connector-curvature="0" />
      <path
         sodipodi:nodetypes="ssssssssccccscss"
         style="display:inline;fill:#a05a2c;fill-opacity:1;stroke:#000000;stroke-width:1.5;stroke-linecap:round;stroke-linejoin:round;stroke-opacity:1"
         d="m 13.777543,335.30907 c 3.60986,-10.99094 8.51078,-27.03631 8.98596,-34.11176 0.89571,-13.33747 4.56381,-38.12477 6.4406,-45.63039 1.837437,-7.34828 13.494187,-32.70701 23.595677,-38.4225 6.33261,-3.58305 36.81693,4.68539 42.32735,13.23561 3.12045,4.84179 -5.36451,32.96902 -9.21295,35.88739 -1.50203,1.13905 -20.057782,3.18688 -25.319212,0.48001 -5.09958,-2.62359 -2.4202,-5.63679 -0.505016,-7.45527 3.147681,-2.98874 11.039767,-2.80735 16.101808,-2.49889 0.80608,-5.00701 1.01139,-12.33636 2.41795,-16.53251 -5.61265,-0.24267 -14.81976,-4.28764 -18.42164,-5.45648 -1.49647,7.19676 -7.44536,15.20146 -8.97562,20.31523 1.30276,7.31516 15.41543,34.47396 13.81309,48.11426 -1.02333,8.71143 -8.81229,16.97237 -11.0823,21.43014 -0.55499,6.12413 0.85361,17.08651 1.27444,29.20182 0.43213,12.44172 -45.027837,-7.63321 -41.440137,-18.55666 z"
         id="path13298-5-9"
         inkscape:connector-curvature="0" />
      <path
         inkscape:connector-curvature="0"
         id="path13298-5-4"
         d="m 27.822793,330.71544 c 0.91055,-12.27101 0.61182,-17.63279 1.087,-24.70824 0.89572,-13.33747 0.14418,-41.32196 2.020957,-48.82759 1.83742,-7.34827 12.55382,-32.33087 22.65532,-38.04635 6.33261,-3.58306 31.766308,3.72598 37.464788,11.42987 3.42552,4.631 -4.616237,29.4514 -8.17313,32.7188 -2.668607,2.45141 -14.713666,1.26742 -18.134376,0.71987 -2.77782,-0.44464 0.439821,-3.84923 3.408961,-4.73365 2.59897,-0.77416 6.298563,-1.46229 9.610724,-0.42472 0.8061,-5.00702 2.859403,-18.41593 4.265963,-22.61208 -5.61267,-0.24268 -19.780464,-5.09037 -23.382354,-6.25923 -1.49647,7.19675 -8.785026,22.86876 -12.384056,24.22112 2.61924,6.93905 17.49364,35.93012 15.89131,49.57042 -1.02333,8.71143 -8.25754,17.58504 -14.28894,17.71715 1.88953,4.61958 5.25027,24.72172 4.9418,31.45867 -0.44703,9.76314 -25.978107,-8.82676 -24.983967,-22.22404 z"
         style="display:inline;fill:#d8986c;fill-opacity:1;stroke:none;stroke-width:1.5;stroke-linecap:round;stroke-linejoin:round;stroke-opacity:1"
         sodipodi:nodetypes="ssssssssccccscss" />
    </g>
    <path
       style="display:inline;fill:#000000;stroke:none;stroke-width:1.04807186;stroke-linecap:round;stroke-linejoin:round"
       d="m 56.260883,143.97963 c 0.533872,2.80557 -1.431143,5.28623 -4.559021,5.52051 -3.466039,0.25957 -5.375838,-1.75714 -5.875266,-3.91137 z"
       id="path3357-0-7-3-6-4-6-1-2-5-2"
       inkscape:connector-curvature="0"
       sodipodi:nodetypes="cscc" />
    <path
       style="display:inline;fill:#000000;stroke:none;stroke-width:0.96187979;stroke-linecap:round;stroke-linejoin:round"
       d="m 113.16025,138.79332 c 0.1049,1.99357 1.48661,4.15127 5.29944,4.14757 3.43654,-0.003 5.43208,-2.76048 4.95071,-4.67975 z"
       id="path3357-0-7-8-3-4-5-2-5-1-7-4"
       inkscape:connector-curvature="0"
       sodipodi:nodetypes="cscc" />
    <path
       style="display:inline;fill:#1c1f24;stroke:#000000;stroke-width:1.5;stroke-linecap:round;stroke-linejoin:round;stroke-opacity:1"
       d="m 258.32289,630.4667 -144.90059,3.75559 c 0.39401,-50.21189 -0.21397,-110.2827 0.10799,-124.48662 0.44472,-19.61961 32.47525,-102.84498 42.06408,-197.59656 l 46.72044,19.5771 c -19.40762,61.34778 -57.53274,121.17252 -82.7725,176.71442"
       id="path16350"
       inkscape:connector-curvature="0"
       sodipodi:nodetypes="ccsccc" />
  </g>
  <g
     inkscape:groupmode="layer"
     id="layer7"
     inkscape:label="枠面"
     style="display:inline"
     sodipodi:insensitive="true">
    <path
       style="display:inline;fill:#ffffff;stroke:none"
       d="M 0,0 V 320 H 370 V 0 L 360,10 V 310 H 10 V 10 H 360 L 370,0 Z"
       id="path21072"
       inkscape:connector-curvature="0"
       sodipodi:nodetypes="ccccccccccc" />
  </g>
</svg>
