<?xml version="1.0" encoding="UTF-8" standalone="no"?>
<!-- Created with Inkscape (http://www.inkscape.org/) -->

<svg
   xmlns:dc="http://purl.org/dc/elements/1.1/"
   xmlns:cc="http://creativecommons.org/ns#"
   xmlns:rdf="http://www.w3.org/1999/02/22-rdf-syntax-ns#"
   xmlns:svg="http://www.w3.org/2000/svg"
   xmlns="http://www.w3.org/2000/svg"
   xmlns:sodipodi="http://sodipodi.sourceforge.net/DTD/sodipodi-0.dtd"
   xmlns:inkscape="http://www.inkscape.org/namespaces/inkscape"
   width="370"
   height="320"
   id="svg2"
   version="1.1"
   inkscape:version="0.48.4 r9939"
   sodipodi:docname="[08.主張].svg"
   inkscape:export-filename="C:\Users\root\Desktop\資料\作業\SANARO\ORG\[01.行動]03..png"
   inkscape:export-xdpi="90"
   inkscape:export-ydpi="90"
   enable-background="new">
  <defs
     id="defs4">
    <inkscape:perspective
       sodipodi:type="inkscape:persp3d"
       inkscape:vp_x="363.49708 : 943.81603 : 1"
       inkscape:vp_y="0 : 1000 : 0"
       inkscape:vp_z="744.09448 : 526.18109 : 1"
       inkscape:persp3d-origin="372.04724 : 350.78739 : 1"
       id="perspective5056" />
    <inkscape:perspective
       id="perspective5056-8"
       inkscape:persp3d-origin="372.04724 : 350.78739 : 1"
       inkscape:vp_z="744.09448 : 526.18109 : 1"
       inkscape:vp_y="0 : 1000 : 0"
       inkscape:vp_x="363.49708 : 943.81603 : 1"
       sodipodi:type="inkscape:persp3d" />
    <inkscape:perspective
       id="perspective5056-5"
       inkscape:persp3d-origin="372.04724 : 350.78739 : 1"
       inkscape:vp_z="744.09448 : 526.18109 : 1"
       inkscape:vp_y="0 : 1000 : 0"
       inkscape:vp_x="363.49708 : 943.81603 : 1"
       sodipodi:type="inkscape:persp3d" />
    <inkscape:perspective
       sodipodi:type="inkscape:persp3d"
       inkscape:vp_x="363.49708 : 943.81603 : 1"
       inkscape:vp_y="0 : 1000 : 0"
       inkscape:vp_z="744.09448 : 526.18109 : 1"
       inkscape:persp3d-origin="372.04724 : 350.78739 : 1"
       id="perspective5056-5-2" />
    <inkscape:perspective
       sodipodi:type="inkscape:persp3d"
       inkscape:vp_x="363.49708 : 943.81603 : 1"
       inkscape:vp_y="0 : 1000 : 0"
       inkscape:vp_z="744.09448 : 526.18109 : 1"
       inkscape:persp3d-origin="372.04724 : 350.78739 : 1"
       id="perspective5056-8-5" />
    <inkscape:perspective
       id="perspective5056-1"
       inkscape:persp3d-origin="372.04724 : 350.78739 : 1"
       inkscape:vp_z="744.09448 : 526.18109 : 1"
       inkscape:vp_y="0 : 1000 : 0"
       inkscape:vp_x="363.49708 : 943.81603 : 1"
       sodipodi:type="inkscape:persp3d" />
    <inkscape:perspective
       sodipodi:type="inkscape:persp3d"
       inkscape:vp_x="363.49708 : 943.81603 : 1"
       inkscape:vp_y="0 : 1000 : 0"
       inkscape:vp_z="744.09448 : 526.18109 : 1"
       inkscape:persp3d-origin="372.04724 : 350.78739 : 1"
       id="perspective5056-5-5" />
    <inkscape:perspective
       id="perspective5056-4"
       inkscape:persp3d-origin="372.04724 : 350.78739 : 1"
       inkscape:vp_z="744.09448 : 526.18109 : 1"
       inkscape:vp_y="0 : 1000 : 0"
       inkscape:vp_x="363.49708 : 943.81603 : 1"
       sodipodi:type="inkscape:persp3d" />
    <inkscape:perspective
       sodipodi:type="inkscape:persp3d"
       inkscape:vp_x="363.49708 : 943.81603 : 1"
       inkscape:vp_y="0 : 1000 : 0"
       inkscape:vp_z="744.09448 : 526.18109 : 1"
       inkscape:persp3d-origin="372.04724 : 350.78739 : 1"
       id="perspective5056-1-2" />
    <inkscape:perspective
       id="perspective5056-8-5-8"
       inkscape:persp3d-origin="372.04724 : 350.78739 : 1"
       inkscape:vp_z="744.09448 : 526.18109 : 1"
       inkscape:vp_y="0 : 1000 : 0"
       inkscape:vp_x="363.49708 : 943.81603 : 1"
       sodipodi:type="inkscape:persp3d" />
    <inkscape:perspective
       id="perspective5056-5-2-8"
       inkscape:persp3d-origin="372.04724 : 350.78739 : 1"
       inkscape:vp_z="744.09448 : 526.18109 : 1"
       inkscape:vp_y="0 : 1000 : 0"
       inkscape:vp_x="363.49708 : 943.81603 : 1"
       sodipodi:type="inkscape:persp3d" />
    <inkscape:perspective
       sodipodi:type="inkscape:persp3d"
       inkscape:vp_x="363.49708 : 943.81603 : 1"
       inkscape:vp_y="0 : 1000 : 0"
       inkscape:vp_z="744.09448 : 526.18109 : 1"
       inkscape:persp3d-origin="372.04724 : 350.78739 : 1"
       id="perspective5056-5-4" />
    <inkscape:perspective
       sodipodi:type="inkscape:persp3d"
       inkscape:vp_x="363.49708 : 943.81603 : 1"
       inkscape:vp_y="0 : 1000 : 0"
       inkscape:vp_z="744.09448 : 526.18109 : 1"
       inkscape:persp3d-origin="372.04724 : 350.78739 : 1"
       id="perspective5056-8-9" />
    <inkscape:perspective
       id="perspective5056-40"
       inkscape:persp3d-origin="372.04724 : 350.78739 : 1"
       inkscape:vp_z="744.09448 : 526.18109 : 1"
       inkscape:vp_y="0 : 1000 : 0"
       inkscape:vp_x="363.49708 : 943.81603 : 1"
       sodipodi:type="inkscape:persp3d" />
    <inkscape:perspective
       sodipodi:type="inkscape:persp3d"
       inkscape:vp_x="363.49708 : 943.81603 : 1"
       inkscape:vp_y="0 : 1000 : 0"
       inkscape:vp_z="744.09448 : 526.18109 : 1"
       inkscape:persp3d-origin="372.04724 : 350.78739 : 1"
       id="perspective5056-1-5" />
    <inkscape:perspective
       id="perspective5056-8-5-4"
       inkscape:persp3d-origin="372.04724 : 350.78739 : 1"
       inkscape:vp_z="744.09448 : 526.18109 : 1"
       inkscape:vp_y="0 : 1000 : 0"
       inkscape:vp_x="363.49708 : 943.81603 : 1"
       sodipodi:type="inkscape:persp3d" />
    <inkscape:perspective
       id="perspective5056-5-2-82"
       inkscape:persp3d-origin="372.04724 : 350.78739 : 1"
       inkscape:vp_z="744.09448 : 526.18109 : 1"
       inkscape:vp_y="0 : 1000 : 0"
       inkscape:vp_x="363.49708 : 943.81603 : 1"
       sodipodi:type="inkscape:persp3d" />
    <inkscape:perspective
       sodipodi:type="inkscape:persp3d"
       inkscape:vp_x="363.49708 : 943.81603 : 1"
       inkscape:vp_y="0 : 1000 : 0"
       inkscape:vp_z="744.09448 : 526.18109 : 1"
       inkscape:persp3d-origin="372.04724 : 350.78739 : 1"
       id="perspective5056-5-8" />
    <inkscape:perspective
       sodipodi:type="inkscape:persp3d"
       inkscape:vp_x="363.49708 : 943.81603 : 1"
       inkscape:vp_y="0 : 1000 : 0"
       inkscape:vp_z="744.09448 : 526.18109 : 1"
       inkscape:persp3d-origin="372.04724 : 350.78739 : 1"
       id="perspective5056-8-4" />
    <inkscape:perspective
       id="perspective5056-409"
       inkscape:persp3d-origin="372.04724 : 350.78739 : 1"
       inkscape:vp_z="744.09448 : 526.18109 : 1"
       inkscape:vp_y="0 : 1000 : 0"
       inkscape:vp_x="363.49708 : 943.81603 : 1"
       sodipodi:type="inkscape:persp3d" />
    <inkscape:perspective
       sodipodi:type="inkscape:persp3d"
       inkscape:vp_x="363.49708 : 943.81603 : 1"
       inkscape:vp_y="0 : 1000 : 0"
       inkscape:vp_z="744.09448 : 526.18109 : 1"
       inkscape:persp3d-origin="372.04724 : 350.78739 : 1"
       id="perspective5056-1-7" />
    <inkscape:perspective
       id="perspective5056-8-5-2"
       inkscape:persp3d-origin="372.04724 : 350.78739 : 1"
       inkscape:vp_z="744.09448 : 526.18109 : 1"
       inkscape:vp_y="0 : 1000 : 0"
       inkscape:vp_x="363.49708 : 943.81603 : 1"
       sodipodi:type="inkscape:persp3d" />
    <inkscape:perspective
       id="perspective5056-5-2-89"
       inkscape:persp3d-origin="372.04724 : 350.78739 : 1"
       inkscape:vp_z="744.09448 : 526.18109 : 1"
       inkscape:vp_y="0 : 1000 : 0"
       inkscape:vp_x="363.49708 : 943.81603 : 1"
       sodipodi:type="inkscape:persp3d" />
    <inkscape:perspective
       sodipodi:type="inkscape:persp3d"
       inkscape:vp_x="363.49708 : 943.81603 : 1"
       inkscape:vp_y="0 : 1000 : 0"
       inkscape:vp_z="744.09448 : 526.18109 : 1"
       inkscape:persp3d-origin="372.04724 : 350.78739 : 1"
       id="perspective5056-5-1" />
    <inkscape:perspective
       sodipodi:type="inkscape:persp3d"
       inkscape:vp_x="363.49708 : 943.81603 : 1"
       inkscape:vp_y="0 : 1000 : 0"
       inkscape:vp_z="744.09448 : 526.18109 : 1"
       inkscape:persp3d-origin="372.04724 : 350.78739 : 1"
       id="perspective5056-8-6" />
    <inkscape:perspective
       id="perspective5056-7"
       inkscape:persp3d-origin="372.04724 : 350.78739 : 1"
       inkscape:vp_z="744.09448 : 526.18109 : 1"
       inkscape:vp_y="0 : 1000 : 0"
       inkscape:vp_x="363.49708 : 943.81603 : 1"
       sodipodi:type="inkscape:persp3d" />
    <inkscape:perspective
       sodipodi:type="inkscape:persp3d"
       inkscape:vp_x="363.49708 : 943.81603 : 1"
       inkscape:vp_y="0 : 1000 : 0"
       inkscape:vp_z="744.09448 : 526.18109 : 1"
       inkscape:persp3d-origin="372.04724 : 350.78739 : 1"
       id="perspective5056-1-1" />
    <inkscape:perspective
       id="perspective5056-8-5-82"
       inkscape:persp3d-origin="372.04724 : 350.78739 : 1"
       inkscape:vp_z="744.09448 : 526.18109 : 1"
       inkscape:vp_y="0 : 1000 : 0"
       inkscape:vp_x="363.49708 : 943.81603 : 1"
       sodipodi:type="inkscape:persp3d" />
    <inkscape:perspective
       id="perspective5056-5-2-1"
       inkscape:persp3d-origin="372.04724 : 350.78739 : 1"
       inkscape:vp_z="744.09448 : 526.18109 : 1"
       inkscape:vp_y="0 : 1000 : 0"
       inkscape:vp_x="363.49708 : 943.81603 : 1"
       sodipodi:type="inkscape:persp3d" />
    <inkscape:perspective
       sodipodi:type="inkscape:persp3d"
       inkscape:vp_x="363.49708 : 943.81603 : 1"
       inkscape:vp_y="0 : 1000 : 0"
       inkscape:vp_z="744.09448 : 526.18109 : 1"
       inkscape:persp3d-origin="372.04724 : 350.78739 : 1"
       id="perspective5056-5-46" />
    <inkscape:perspective
       sodipodi:type="inkscape:persp3d"
       inkscape:vp_x="363.49708 : 943.81603 : 1"
       inkscape:vp_y="0 : 1000 : 0"
       inkscape:vp_z="744.09448 : 526.18109 : 1"
       inkscape:persp3d-origin="372.04724 : 350.78739 : 1"
       id="perspective5056-8-92" />
    <inkscape:perspective
       id="perspective5056-3"
       inkscape:persp3d-origin="372.04724 : 350.78739 : 1"
       inkscape:vp_z="744.09448 : 526.18109 : 1"
       inkscape:vp_y="0 : 1000 : 0"
       inkscape:vp_x="363.49708 : 943.81603 : 1"
       sodipodi:type="inkscape:persp3d" />
  </defs>
  <sodipodi:namedview
     id="base"
     pagecolor="#ffffff"
     bordercolor="#666666"
     borderopacity="1.0"
     inkscape:pageopacity="0.0"
     inkscape:pageshadow="2"
     inkscape:zoom="1.1044511"
     inkscape:cx="396.49712"
     inkscape:cy="148.04531"
     inkscape:document-units="px"
     inkscape:current-layer="layer3"
     showgrid="false"
     inkscape:window-width="1158"
     inkscape:window-height="696"
     inkscape:window-x="194"
     inkscape:window-y="-4"
     inkscape:window-maximized="0"
     showguides="true"
     inkscape:guide-bbox="true"
     inkscape:snap-grids="false"
     inkscape:snap-to-guides="false"
     showborder="true"
     inkscape:showpageshadow="false"
     fit-margin-top="0"
     fit-margin-left="0"
     fit-margin-right="0"
     fit-margin-bottom="0"
     inkscape:snap-page="false" />
  <metadata
     id="metadata7">
    <rdf:RDF>
      <cc:Work
         rdf:about="">
        <dc:format>image/svg+xml</dc:format>
        <dc:type
           rdf:resource="http://purl.org/dc/dcmitype/StillImage" />
        <dc:title />
      </cc:Work>
    </rdf:RDF>
  </metadata>
  <g
     inkscape:groupmode="layer"
     id="layer2"
     inkscape:label="補助線"
     style="display:none"
     sodipodi:insensitive="true">
    <path
       style="fill:none;stroke:#0000ff;stroke-width:1px;stroke-linecap:butt;stroke-linejoin:miter;stroke-opacity:1"
       d="M 10,310 360,10"
       id="path3025"
       inkscape:connector-curvature="0"
       sodipodi:nodetypes="cc" />
    <path
       style="fill:none;stroke:#0000ff;stroke-width:1px;stroke-linecap:butt;stroke-linejoin:miter;stroke-opacity:1"
       d="M 10,10 360,310"
       id="path3027"
       inkscape:connector-curvature="0"
       sodipodi:nodetypes="cc" />
    <path
       style="fill:none;stroke:#ff0000;stroke-width:1px;stroke-linecap:butt;stroke-linejoin:miter;stroke-opacity:1;display:inline"
       d="m 10,0 0,320"
       id="path3006"
       inkscape:connector-curvature="0"
       sodipodi:nodetypes="cc" />
    <path
       style="fill:none;stroke:#ff0000;stroke-width:1px;stroke-linecap:butt;stroke-linejoin:miter;stroke-opacity:1;display:inline"
       d="m 360,0 0,320"
       id="path3010"
       inkscape:connector-curvature="0"
       sodipodi:nodetypes="cc" />
    <path
       style="fill:none;stroke:#ff0000;stroke-width:1px;stroke-linecap:butt;stroke-linejoin:miter;stroke-opacity:1;display:inline"
       d="M 0,9.9999681 370,10"
       id="path3016"
       inkscape:connector-curvature="0" />
    <path
       transform="translate(84.715796,27.711696)"
       style="fill:none;stroke:#ff0000;stroke-width:1px;stroke-linecap:butt;stroke-linejoin:miter;stroke-opacity:1;display:inline"
       d="m -84.715796,282.2883 369.999996,0"
       id="path3018"
       inkscape:connector-curvature="0"
       sodipodi:nodetypes="cc" />
  </g>
  <g
     inkscape:groupmode="layer"
     id="layer3"
     inkscape:label="レイヤー"
     style="display:inline">
    <path
       sodipodi:nodetypes="cccc"
       inkscape:connector-curvature="0"
       id="path4684-5-5-2-1-7"
       d="M 197.02787,204.40912 274.83572,192.35272 168.14889,345.1616 z"
       style="fill:#dbdee3;stroke:none;display:inline" />
    <path
       sodipodi:nodetypes="cccccc"
       inkscape:connector-curvature="0"
       id="path6770-0-4-6-9-4"
       d="m 219.0747,213.12702 c -16.22145,27.72142 -30.25014,66.91758 -38.03376,102.42027 0.12328,7.70628 2.54864,22.77068 8.1454,31.20886 7.76463,-9.58781 16.24766,-27.01672 16.24766,-27.01672 4.07674,-31.86264 8.2623,-72.70811 22.06623,-106.12242 z"
       style="fill:#550000;stroke:#000000;stroke-width:1.5;stroke-linecap:butt;stroke-linejoin:miter;stroke-opacity:1;display:inline" />
    <path
       sodipodi:nodetypes="ccccccc"
       inkscape:connector-curvature="0"
       id="path6768-9-1-6-6-0"
       d="m 225.23381,192.38681 c 2.78339,-0.69502 7.70109,1.29056 13.11421,2.5987 l 5.08133,3.98115 c -3.31955,6.20802 -12.17822,12.43105 -15.8872,16.42416 -4.29198,-1.86386 -7.50457,-3.08611 -8.94909,-1.26478 1.1e-4,-4.94722 1.37717,-10.53924 1.96675,-14.9943 z"
       style="fill:#550000;stroke:#000000;stroke-width:1.5;stroke-linecap:butt;stroke-linejoin:miter;stroke-opacity:1;display:inline" />
    <path
       sodipodi:nodetypes="csssc"
       inkscape:connector-curvature="0"
       id="path10001-9-9-6-1-1-4-9"
       d="m 199.01472,185.56134 c -11.64491,19.09606 -70.42678,68.94047 -86.77834,85.07015 -9.19753,9.07271 -24.641972,20.3331 -18.00744,32.12176 3.56578,6.33589 18.71811,18.39084 32.6952,14.22696 6.95276,-2.07127 61.81738,-44.81566 72.62728,-55.33244"
       style="fill:#1c1f24;stroke:#000000;stroke-width:1.5;stroke-linecap:butt;stroke-linejoin:miter;stroke-opacity:1;display:inline" />
    <path
       style="fill:#1c1f24;stroke:#000000;stroke-width:1.5;stroke-linecap:butt;stroke-linejoin:miter;stroke-opacity:1;display:inline"
       d="m 221.18023,182.19564 c -5.93845,1.21658 -17.44921,2.00136 -20.45978,3.49438 -6.46161,3.20454 -25.95517,49.86278 -28.17943,67.3973 -2.17753,17.16614 -4.86513,50.11992 -3.20199,64.74809 1.57835,13.8827 -18.69784,77.42297 -15.041,113.65685 7.12102,3.34525 23.18641,11.90136 30.97544,8.94127 6.67367,-2.53621 9.52076,-8.01908 9.62317,-12.33397 0.73771,-31.07795 -6.13068,-102.71 -5.96397,-109.353 1.30389,-51.95417 20.41752,-102.10306 38.15297,-139.94579 -1.35839,0.83394 -3.40829,1.49679 -6.16314,3.4434 -3.17669,2.24469 -15.51385,17.89629 -22.21981,26.57524 l 2.32148,9.54075"
       id="path3341-7-0-1-6-8-5-4"
       inkscape:connector-curvature="0"
       sodipodi:nodetypes="cssscssscscc" />
    <path
       sodipodi:nodetypes="cccc"
       inkscape:connector-curvature="0"
       id="path6762-7-2-0-4-8"
       d="m 228.49844,191.87172 c -6.12,0.59418 -15.10648,22.93841 -20.10375,31.94028 2.62206,-13.34746 13.33091,-35.32967 17.7154,-41.64293 0.301,1.36844 0.48276,8.68315 2.38835,9.70265 z"
       style="fill:#dbdbe3;stroke:#000000;stroke-width:1.5;stroke-linecap:butt;stroke-linejoin:miter;stroke-opacity:1;display:inline" />
    <path
       sodipodi:nodetypes="ccccc"
       inkscape:connector-curvature="0"
       id="path6657-6-4-0-2-8"
       d="m 298.39075,181.15547 c 0.25118,-3.74765 -0.76045,-11.25126 -0.69275,-14.08874 -6.73464,-0.0344 -41.05377,18.64061 -62.29355,26.94799 6.21904,-0.313 5.07942,17.6266 11.4621,30.18616 25.44985,-23.95609 39.813,-24.29441 51.5242,-43.04541 z"
       style="fill:#dbdbe3;stroke:#000000;stroke-width:1.5;stroke-linecap:butt;stroke-linejoin:miter;stroke-opacity:1;display:inline" />
    <path
       sodipodi:nodetypes="ccc"
       inkscape:connector-curvature="0"
       id="path6766-7-0-8-5-2"
       d="m 210.31203,211.20455 -19.69537,15.01554 c 1.22186,23.57769 -7.96273,62.82794 -2.59938,92.09295"
       style="fill:none;stroke:#000000;stroke-width:1.5;stroke-linecap:butt;stroke-linejoin:miter;stroke-opacity:1;display:inline" />
    <path
       sodipodi:nodetypes="cssscsssscccc"
       inkscape:connector-curvature="0"
       id="path6659-6-6-1-3-4"
       d="m 300.28126,179.81886 c 10.44046,8.9549 27.15048,19.51141 34.483,26.27125 9.18197,8.46481 5.09664,30.29277 6.29688,42.24123 1.80086,17.9272 -24.89665,57.90966 -26.88438,88.62357 -1.08342,16.74196 -3.43398,78.23838 -8.90246,101.43105 -20.45798,9.78102 -75.5688,6.04259 -115.29783,4.56771 -5.89835,-0.21896 -14.86045,-7.81188 -15.05132,-16.51991 -0.74995,-34.21449 6.52871,-104.77433 8.34097,-107.88314 11.079,-19.00541 28.36731,-63.137 43.02362,-84.08662 21.72551,-31.05433 66.16736,-60.30849 72.36657,-63.47712 0.7238,2.36734 2.82528,6.91015 2.71287,9.75407 -3.47321,3.43433 -16.94932,16.49116 -27.47196,39.60645 -6.25471,1.78272 -10.92852,2.1662 -15.83293,2.45725"
       style="fill:#1c1f24;stroke:#000000;stroke-width:1.5;stroke-linecap:butt;stroke-linejoin:miter;stroke-opacity:1;display:inline" />
    <path
       sodipodi:nodetypes="ccc"
       inkscape:connector-curvature="0"
       id="path6655-8-1-5-2-5"
       d="m 252.05733,211.8065 7.77284,20.09776 c -16.94094,12.19494 -54.36121,68.70535 -74.56811,88.0204"
       style="fill:none;stroke:#000000;stroke-width:1.5;stroke-linecap:butt;stroke-linejoin:miter;stroke-opacity:1;display:inline" />
    <path
       sodipodi:nodetypes="cssccc"
       inkscape:connector-curvature="0"
       id="path11364-8-7"
       d="m 132.33054,355.61693 c 0.0602,-2.00437 -2.37702,-6.89418 -1.99798,-9.3142 1.01654,-6.49003 9.95758,-19.02798 14.37143,-20.82192 8.25375,-3.35456 21.39621,1.44847 32.3538,-0.86981 l -5.78957,23.7913 c -13.02351,1.93444 -23.28557,1.54998 -38.93768,7.21463 z"
       style="fill:#e9c6af;stroke:#000000;stroke-width:1.5;stroke-linecap:butt;stroke-linejoin:miter;stroke-opacity:1;display:inline" />
    <path
       sodipodi:nodetypes="ccccc"
       inkscape:connector-curvature="0"
       id="path11366-2-1"
       d="m 161.42261,358.83913 c -2.62095,-6.79826 -2.18533,-30.21396 9.55352,-37.78278 3.74507,-0.35403 6.07335,-0.54719 9.86204,-0.61349 l -12.53309,40.18518 z"
       style="fill:#dbdbe3;stroke:#000000;stroke-width:1.5;stroke-linecap:butt;stroke-linejoin:miter;stroke-opacity:1;display:inline" />
    <path
       sodipodi:nodetypes="csssssccc"
       inkscape:connector-curvature="0"
       id="path3726-6-5"
       d="m 254.57304,321.68877 c 10.72034,-21.54119 22.46163,-55.74239 36.59675,-85.34995 7.41058,-15.5223 30.63589,-33.95832 38.6148,-31.66082 13.29156,3.82726 19.29201,18.26958 9.57289,50.20765 -6.35722,20.89069 -23.3133,64.6504 -32.17631,92.85674 -6.90972,21.98996 -18.14525,26.42939 -31.397,25.077 -49.33887,-5.0352 -92.16848,-3.71298 -111.56851,-10.02468 -2.6603,-14.75593 5.61389,-33.17102 12.79903,-44.95574 12.89272,-0.57913 60.68958,0.7443 83.39401,3.62781"
       style="fill:#1c1f24;stroke:#000000;stroke-width:1.5;stroke-linecap:butt;stroke-linejoin:miter;stroke-opacity:1;display:inline" />
    <g
       id="g9921-2-0-0-4-1"
       transform="matrix(1.0773661,0.40224328,-0.39048414,1.0458704,-1870.6289,-772.76107)"
       style="stroke:#000000;stroke-width:1.32383324;display:inline" />
    <g
       id="g4656-2-7-5-6"
       transform="matrix(1.1126439,0.29075892,-0.28225891,1.080117,-1979.31,-620.98292)"
       style="stroke:#000000;stroke-width:1.32383326;display:inline" />
    <g
       id="g4658-5-7-8-8"
       transform="matrix(1.1126439,0.29075892,-0.28225891,1.080117,-2225.1463,-672.81727)"
       style="stroke:#000000;stroke-width:1.32383326;display:inline" />
    <g
       transform="matrix(-1.3500363,-0.50404688,-0.50404688,1.3500363,-254.9196,249.40091)"
       id="g4678-0-3-6-5"
       inkscape:label="駅員: 左手"
       style="stroke-width:1.04089861;display:inline">
      <g
         id="g4680-9-3-1-7"
         transform="matrix(-0.7980275,0,0,0.77469807,1298.4706,-272.34221)"
         style="stroke:#000000;stroke-width:1.32383318;display:inline" />
    </g>
    <g
       id="g4682-4-5-5-6"
       transform="matrix(1.0773661,0.40224328,-0.39048414,1.0458704,-1870.629,-772.76107)"
       style="stroke:#000000;stroke-width:1.32383324;display:inline" />
    <g
       id="g9921-2-0-1-6-2"
       transform="matrix(-1.2203295,1.5569628,1.5114467,1.1846544,215.86304,-2664.1047)"
       style="stroke:#000000;stroke-width:0.76959162;display:inline" />
    <g
       id="g4656-2-4-2-7"
       transform="matrix(-1.3721285,1.4249914,1.3833334,1.3320158,511.54502,-2538.8522)"
       style="stroke:#000000;stroke-width:0.76959161;display:inline" />
    <g
       id="g4658-5-1-5-7"
       transform="matrix(-1.3721285,1.4249914,1.3833334,1.3320158,825.84621,-2835.4897)"
       style="stroke:#000000;stroke-width:0.76959161;display:inline" />
    <g
       transform="matrix(1.5291821,-1.951014,1.951014,1.5291821,-1238.3915,285.69059)"
       id="g4678-0-2-3-9"
       inkscape:label="駅員: 左手"
       style="stroke-width:0.60511162;display:inline">
      <g
         id="g4680-9-9-5-3"
         transform="matrix(-0.7980275,0,0,0.77469807,1298.4706,-272.34221)"
         style="stroke:#000000;stroke-width:0.76959161;display:inline" />
    </g>
    <g
       id="g4682-4-0-6-1"
       transform="matrix(-1.2203295,1.5569628,1.5114467,1.1846544,215.86313,-2664.1047)"
       style="stroke:#000000;stroke-width:0.76959162;display:inline" />
    <g
       id="g4696"
       transform="matrix(-0.32352832,0.00368872,-0.00601342,0.32804553,125.31058,186.49342)"
       style="stroke-width:4.60482836">
      <path
         sodipodi:nodetypes="csssssssssssscc"
         inkscape:connector-curvature="0"
         id="path6635-6-9-1-1-7-5-8-0"
         d="m -498.96874,-94.312381 c 15.03683,15.518154 85.70482,66.80169 141.20956,90.3166299 16.57745,7.02314 60.5477,2.43309 72.12416,-18.3623299 10.48361,-18.83229 23.8107,-44.847937 30.44865,-60.012967 8.07035,-18.437462 28.70748,-56.946712 30.33104,-86.040752 0.6146,-11.01159 1.37259,-46.04451 2.7976,-62.84853 0.97028,-11.44091 6.84792,-32.72595 8.30297,-42.78443 2.14458,-14.82319 -3.55151,-31.64351 -4.92012,-45.0858 -2.50338,-24.5879 -6.99724,-54.40416 -12.94917,-71.01187 -14.64715,-40.86983 -46.63655,-72.07259 -89.77899,-89.08356 -62.53845,-24.6589 -160.23436,-10.1626 -202.51537,29.19462 -27.26829,25.38266 -52.44571,53.16466 -64.46788,97.23905 -6.42352,23.54924 -6.95643,117.87265 3.05212,137.01197 6.79983,13.00361 43.38049,85.18657 45.77828,97.94037 z"
         style="fill:#e9c6af;stroke:none;display:inline" />
      <path
         sodipodi:nodetypes="csssccccscsscscsc"
         inkscape:connector-curvature="0"
         id="path5573-3-9-8-0-5"
         d="m -288.19464,-131.42285 c 2.60809,1.61191 11.13573,2.10894 14.96797,-3.86913 4.69296,-7.32074 3.46435,-13.13737 2.37385,-17.85146 -5.9562,-25.74777 -17.51402,-67.23132 -17.51297,-73.70085 5.1e-4,-3.16046 2.97879,-26.22222 16.50579,-26.60031 -2.91632,5.16723 -11.34699,17.59375 -7.08532,24.0174 l 49.77289,-20.11431 4.01504,4.01941 c -0.50233,3.71652 -8.51575,31.15378 -19.32896,35.45484 -7.90753,3.14529 -24.12154,-2.94299 -32.47608,-8.21309 -2.84936,4.29946 3.87673,38.99407 12.77959,64.10589 2.19147,6.18135 2.70948,17.69106 -4.31205,23.26754 -4.21418,3.34688 -10.86772,10.08664 -17.98804,19.43683 2.98557,-8.73299 3.32346,-15.07832 -0.6719,-14.17673 -3.32451,0.75022 -8.5943,3.96437 -10.29097,10.89515 -4.14685,-5.35827 -15.78262,-4.30754 -14.95525,-7.71861 0.82244,-3.39079 13.70887,-7.3459 24.20641,-8.95257 z"
         style="fill:#deaa87;stroke:none;display:inline" />
      <path
         style="fill:#fefefe;fill-opacity:1;stroke:none;display:inline"
         d="m -265.35127,-242.0765 -14.1838,12.65923 19.1378,8.24055 11.03045,-1.18491 10.62696,-4.35246 11.091,-21.04917 -6.0543,-3.54822 -12.26619,1.48529 z"
         id="path3337-0-4-0-1-8-6-9-1"
         inkscape:connector-curvature="0"
         sodipodi:nodetypes="ccccccccc" />
      <path
         sodipodi:nodetypes="csccssscssccscccsssssssscc"
         inkscape:connector-curvature="0"
         id="path3438-5-86-7-3-4-0-4-2"
         d="m -285.55617,-22.155374 c -8.652,14.1263928 -50.7451,28.1909914 -72.1183,18.3731905 C -399.38571,-22.942285 -460.85031,-60.57944 -498.53868,-93.399575 l -41.00567,-24.239435 c -3.02423,-7.84891 -36.14182,-80.59219 -45.73172,-98.04631 -12.40099,-22.57045 -9.08335,-109.29681 -3.03804,-136.90869 9.22487,-42.1345 42.36441,-77.62004 64.3272,-97.3 23.42242,-20.98788 50.15404,-30.05398 89.45429,-37.72935 -19.35281,10.14999 -48.82326,26.24936 -54.80114,48.572 -14.65588,54.72813 21.19317,127.99402 40.9375,150.83824 13.87425,16.05253 45.33505,33.89943 49.77866,37.95846 l 48.52937,5.10028 c -13.47511,-1.86307 -30.83146,0.7644 -38.49849,6.75858 -9.69817,7.58215 -9.93367,21.39706 -7.90751,24.21972 l 64.31847,-7.11577 c 2.08894,-10.86511 -3.23167,-17.77622 -16.57299,-28.50781 18.35287,2.57825 27.72785,-8.37945 37.42902,-5.98205 3.18213,0.78638 -2.03649,22.01688 -2.04359,26.70631 -0.0153,10.10794 -2.29582,28.77362 -11.90973,21.70194 -9.78266,-7.19581 -13.30782,15.69347 -31.96746,21.28476 -8.80535,2.63849 -34.77808,-5.81168 -40.50372,-4.94441 -8.60906,1.30404 -10.30507,12.13586 -12.71892,22.10815 -1.83188,7.56797 14.15363,55.27703 32.90951,98.264115 11.46502,26.276985 21.30789,53.889795 36.51511,60.43069 15.60178,6.7105964 40.66323,5.9696593 55.48196,-11.925219 z"
         style="fill:#deaa87;stroke:none;display:inline" />
      <path
         style="fill:#fefefe;fill-opacity:1;stroke:none;display:inline"
         d="m -342.21009,-226.857 -18.3922,1.05006 -21.36668,2.53775 -15.55618,6.8803 21.74765,13.92186 27.44614,-4.28641 15.23957,-13.8922 z"
         id="path3353-4-1-2-2-4-9-8-7"
         inkscape:connector-curvature="0"
         sodipodi:nodetypes="cccccccc" />
      <path
         sodipodi:nodetypes="sccs"
         inkscape:connector-curvature="0"
         id="path3357-1-2-4-7-5-3-8-6"
         d="m -365.82655,-210.83389 c -8.58881,0.80209 -15.13378,-5.09274 -16.10879,-12.44436 l 29.08193,-3.7185 c 0.63521,10.49601 -4.39593,15.36185 -12.97314,16.16286 z"
         style="fill:#2b0000;stroke:none;display:inline" />
      <path
         sodipodi:nodetypes="csccc"
         inkscape:connector-curvature="0"
         id="path3357-0-8-6-7-0-2-0"
         d="m -246.61201,-248.26783 c 0.33524,8.56862 -1.79878,18.04465 -8.66577,20.3457 -7.8757,2.63905 -15.79821,-2.52919 -16.66202,-7.46015 l 9.01834,-7.83005 z"
         style="fill:#2b0000;stroke:none;display:inline" />
      <path
         sodipodi:nodetypes="csccc"
         inkscape:connector-curvature="0"
         id="path6629-0-6-3-5-0-4-2"
         d="m -280.28911,-257.95314 c -1.22542,8.98065 -8.11125,25.6408 -7.83812,31.91902 0.491,11.28615 16.8999,66.73341 18.73631,72.48299 m -17.8628,21.59588 c -6.3793,2.26152 -20.43785,4.21747 -25.43797,9.2965"
         style="fill:none;stroke:#000000;stroke-width:4.60482836;stroke-linecap:butt;stroke-linejoin:miter;stroke-opacity:1;display:inline" />
      <path
         sodipodi:nodetypes="ssssssscs"
         inkscape:connector-curvature="0"
         id="path6633-4-0-6-4-8-5-4"
         d="m -282.80576,-123.58007 c -3.16951,-1.83803 -5.19647,4.91035 -13.34432,6.11484 -11.03562,1.63107 -15.05606,-2.93825 -18.7514,-1.11793 -15.59586,7.68429 -52.35801,28.357682 -55.37305,36.218962 -3.04607,7.941521 -0.96621,20.951312 3.83642,19.221502 15.47593,-5.574125 49.78566,-20.611856 65.53468,-22.917316 22.28364,-3.262069 31.28939,0.462438 41.39221,-2.071816 2.23653,-0.560909 6.90221,-18.021032 2.80734,-21.400692 -3.62767,-6.78625 -21.27907,-11.25069 -26.10188,-14.04755 z"
         style="fill:#000000;stroke:none;display:inline" />
      <path
         sodipodi:nodetypes="csssssssssssssc"
         inkscape:connector-curvature="0"
         id="path6635-6-9-1-1-7-5-8"
         d="m -514.64324,-147.23947 c 3.4177,13.86712 9.15787,41.54784 15.74882,53.128924 5.68133,9.982762 85.70482,66.801689 141.20956,90.316621 16.57745,7.0231418 60.5477,2.433093 72.12416,-18.362325 10.48361,-18.832289 25.22953,-45.898916 31.86748,-61.063943 8.07035,-18.437467 27.28866,-55.895737 28.91222,-84.989777 0.6146,-11.01159 2.70028,-48.32055 2.60793,-62.08985 -0.077,-11.48173 7.03759,-33.48463 8.49264,-43.54311 2.14458,-14.82319 -3.55151,-31.64351 -4.92012,-45.0858 -2.50338,-24.5879 -6.99724,-54.40416 -12.94917,-71.01187 -14.64716,-40.86983 -45.71946,-68.17958 -88.8619,-85.19055 -62.53845,-24.6589 -155.54514,-2.52392 -197.82615,36.8333 -27.26829,25.38266 -49.43533,57.14937 -61.4575,101.22376 -6.42352,23.54924 -8.62735,101.30232 1.3812,120.44164 6.79983,13.00361 43.84222,94.99713 47.63802,107.75093"
         style="fill:none;stroke:#000000;stroke-width:4.60482836;stroke-linecap:butt;stroke-linejoin:miter;stroke-opacity:1;display:inline" />
      <path
         sodipodi:nodetypes="cc"
         inkscape:connector-curvature="0"
         id="path6643-0-0-5-2-6-1-6"
         d="m -312.29748,-256.2834 c 0.66416,4.98311 0.42967,13.47582 -1.61471,18.816"
         style="fill:none;stroke:#000000;stroke-width:4.60482836;stroke-linecap:butt;stroke-linejoin:miter;stroke-opacity:1;display:inline" />
      <path
         sodipodi:nodetypes="ssssss"
         inkscape:connector-curvature="0"
         id="path6645-7-0-4-0-3-7-5"
         d="m -328.07981,-238.92457 c -13.30532,2.29403 -23.65057,-5.38188 -46.76335,-7.01002 -18.12882,-1.27705 -54.43387,1.88146 -47.11512,-0.53957 13.60397,-4.50017 30.92037,-7.16706 50.14149,-7.1961 11.4359,-0.0173 21.16291,1.36154 33.55013,2.26086 10.09159,0.73265 35.22251,8.16832 10.18685,12.48483 z"
         style="fill:#000000;stroke:none;display:inline" />
      <path
         sodipodi:nodetypes="sssss"
         inkscape:connector-curvature="0"
         id="path6647-1-6-2-0-5-1-0"
         d="m -215.59503,-285.13197 c -3.66036,-1.22749 -27.18546,8.80668 -36.60191,13.41759 -11.04998,5.41078 -31.93181,19.69011 -27.45711,21.11173 13.33587,4.23694 19.47228,-7.21618 30.27121,-16.38798 10.74496,-9.12597 38.38077,-16.60111 33.78781,-18.14134 z"
         style="fill:#000000;stroke:none;display:inline" />
      <path
         sodipodi:nodetypes="cc"
         inkscape:connector-curvature="0"
         id="path6649-7-1-0-1-6-1-9"
         d="m -334.77678,-146.95278 c -2.39874,6.64432 -2.89193,19.46621 6.14891,22.54185"
         style="fill:none;stroke:#000000;stroke-width:4.60482836;stroke-linecap:butt;stroke-linejoin:miter;stroke-opacity:1;display:inline" />
      <path
         sodipodi:nodetypes="cssc"
         inkscape:connector-curvature="0"
         id="path3339-7-3-9-4-5-5-0"
         d="m -332.35952,-221.11493 c -4.29343,3.09732 -11.34486,13.384 -18.01533,14.93716 -8.96733,2.08796 -17.23729,1.25172 -24.60521,1.29963 -6.98991,0.0455 -16.80974,-7.58812 -23.84849,-10.89599"
         style="fill:none;stroke:#916f6f;stroke-width:4.60482836;stroke-linecap:butt;stroke-linejoin:miter;stroke-opacity:1;display:inline" />
      <path
         sodipodi:nodetypes="cssc"
         inkscape:connector-curvature="0"
         id="path3337-7-8-7-6-8-2-0"
         d="m -330.24723,-219.02547 c -3.83281,-2.40695 -7.63462,-8.98598 -12.814,-9.68077 -6.66238,-0.89372 -21.21571,0.70649 -35.04587,3.2363 -6.47781,1.18492 -16.33403,6.82754 -24.49788,11.2927"
         style="fill:none;stroke:#000000;stroke-width:4.60482836;stroke-linecap:butt;stroke-linejoin:miter;stroke-opacity:1;display:inline" />
      <path
         sodipodi:nodetypes="cssc"
         inkscape:connector-curvature="0"
         id="path3355-7-9-3-0-3-7-6"
         d="m -227.64233,-248.06361 c -2.46312,5.21228 -8.71174,20.22365 -12.54372,21.9479 -2.60637,1.17277 -11.60527,5.47116 -20.34482,5.08734 -2.42223,-0.10649 -17.81554,-7.28757 -19.21886,-8.72246"
         style="fill:none;stroke:#916f6f;stroke-width:4.60482836;stroke-linecap:butt;stroke-linejoin:miter;stroke-opacity:1;display:inline" />
      <path
         sodipodi:nodetypes="cssc"
         inkscape:connector-curvature="0"
         id="path3353-3-3-7-7-9-6-1"
         d="m -225.02758,-245.50978 c -3.2675,-2.62084 -5.42736,-6.35601 -9.55253,-5.99184 -5.58482,0.49302 -21.53138,5.27517 -28.73631,8.90703 -4.03233,2.03262 -12.61662,9.65503 -18.90369,16.13633"
         style="fill:none;stroke:#000000;stroke-width:4.60482836;stroke-linecap:butt;stroke-linejoin:miter;stroke-opacity:1;display:inline" />
      <path
         sodipodi:nodetypes="csssc"
         inkscape:connector-curvature="0"
         id="path6637-1-1-2-1-4-1-3"
         d="m -524.55156,-149.27624 c -6.35932,-10.20612 -33.06124,6.0006 -41.12263,-18.4414 -5.11571,-15.51093 -12.61345,-26.13045 -16.57666,-57.07914 -3.93,-30.68964 4.64354,-47.55898 13.02499,-51.67048 14.24315,-6.98679 25.44526,0.7781 34.99795,9.61318"
         style="fill:#deaa87;stroke:#000000;stroke-width:4.60482836;stroke-linecap:butt;stroke-linejoin:miter;stroke-opacity:1;display:inline" />
      <path
         sodipodi:nodetypes="csssssssc"
         inkscape:connector-curvature="0"
         id="path6639-8-8-6-7-8-4-8"
         d="m -556.11206,-187.64306 c 3.50978,-7.42845 13.70114,-15.14096 15.87235,-25.76771 2.05734,-10.06928 5.01704,-20.30098 2.56815,-27.01789 -3.70438,-10.16022 -17.14223,-30.60627 -24.81951,-29.23997 -6.15657,1.09565 -10.94801,11.21767 -12.72208,21.95301 -4.34855,26.31391 9.33078,60.8407 23.29518,62.46859 7.82708,0.91243 18.94861,17.62085 21.92961,12.05936 2.922,-5.45179 -5.32402,-15.16459 -6.25143,-20.26439 -0.55883,-3.07257 6.52833,-13.8999 7.32057,-21.82361"
         style="opacity:0.95;fill:none;stroke:#000000;stroke-width:4.60482836;stroke-linecap:butt;stroke-linejoin:miter;stroke-opacity:1;display:inline" />
      <path
         sodipodi:nodetypes="sssss"
         inkscape:connector-curvature="0"
         id="path6710-3-4-7-4-0-6-2-4"
         d="m -329.95571,-61.634206 c -1.55495,-5.005585 12.19753,-9.187998 23.39454,-12.348169 11.64074,-3.285343 21.86351,-3.452505 21.37493,0.657625 -0.96434,8.113076 -7.40057,15.152224 -20.92433,19.103287 -11.2698,3.292553 -21.52113,0.07 -23.84514,-7.412743 z"
         style="fill:#deaa87;stroke:none;display:inline" />
      <path
         sodipodi:nodetypes="cc"
         inkscape:connector-curvature="0"
         id="path4597"
         d="m -264.27095,-154.47435 c 3.42321,13.10977 -0.19462,18.17644 -4.50926,23.54836"
         style="fill:none;stroke:#916f6f;stroke-width:4.60482836;stroke-linecap:butt;stroke-linejoin:miter;stroke-opacity:1" />
    </g>
    <g
       id="g4720"
       transform="matrix(-0.32574505,0,0,0.32574505,161.87934,78.51915)"
       style="stroke-width:4.60482822">
      <path
         sodipodi:nodetypes="cssccsssscc"
         inkscape:connector-curvature="0"
         id="path6627-9-63"
         d="m 424.82173,-410.4917 c -7.34697,-1.3322 -43.05253,8.25228 -57.07654,12.88087 -9.94049,3.28092 -20.02638,6.22404 -30.4014,4.83163 -25.78412,-3.46042 -72.80638,5.92443 -99.58342,9.97367 -3.25829,5.63149 -4.33263,7.91118 -4.81149,11.53505 24.19307,15.01999 48.42698,23.58386 66.355,25.7763 13.35733,1.63339 33.49267,-16.80752 39.58221,-21.84535 3.36736,-2.78583 14.9374,-4.68073 17.99956,-3.02614 6.73693,3.64017 18.54255,19.33675 31.02708,15.15591 10.07241,-3.373 27.68667,-19.97248 35.78533,-35.22629 0.96563,-3.48187 1.56568,-13.72364 1.12367,-20.05565 z"
         style="opacity:0.94999999999999996;fill:#280b0b;stroke:none;display:inline;stroke-width:4.60482822" />
      <path
         sodipodi:nodetypes="csssscc"
         inkscape:connector-curvature="0"
         id="path6641-9-6"
         d="m 239.68197,-382.47763 -113.38084,-32.84396 c -25.4237,-7.36468 -37.763335,34.77405 -41.183325,58.15928 -1.7303,11.83141 14.77095,19.42034 18.756405,3.21538 3.99135,-16.22875 -0.0765,-61.18301 20.42913,-53.91016 l 112.8292,40.01683 z"
         style="opacity:0.94999999999999996;fill:#241c1c;stroke:none;display:inline;stroke-width:4.60482822" />
    </g>
  </g>
  <g
     inkscape:groupmode="layer"
     id="layer7"
     inkscape:label="枠面"
     style="display:inline"
     sodipodi:insensitive="true">
    <path
       style="fill:#ffffff;stroke:none;display:inline"
       d="m 0,0 0,320 370,0 0,-320 -10,10 0,300 -350,0 0,-300 350,0 10,-10 z"
       id="path21072"
       inkscape:connector-curvature="0"
       sodipodi:nodetypes="ccccccccccc" />
  </g>
</svg>
