<?xml version="1.0" encoding="UTF-8" standalone="no"?>
<!-- Created with Inkscape (http://www.inkscape.org/) -->

<svg
   xmlns:dc="http://purl.org/dc/elements/1.1/"
   xmlns:cc="http://creativecommons.org/ns#"
   xmlns:rdf="http://www.w3.org/1999/02/22-rdf-syntax-ns#"
   xmlns:svg="http://www.w3.org/2000/svg"
   xmlns="http://www.w3.org/2000/svg"
   xmlns:sodipodi="http://sodipodi.sourceforge.net/DTD/sodipodi-0.dtd"
   xmlns:inkscape="http://www.inkscape.org/namespaces/inkscape"
   width="370"
   height="320"
   id="svg2"
   version="1.1"
   inkscape:version="0.48.4 r9939"
   sodipodi:docname="[10.質疑].svg"
   inkscape:export-filename="C:\Users\root\Desktop\資料\作業\SANARO\ORG\[01.行動]03..png"
   inkscape:export-xdpi="90"
   inkscape:export-ydpi="90"
   enable-background="new">
  <defs
     id="defs4">
    <inkscape:perspective
       sodipodi:type="inkscape:persp3d"
       inkscape:vp_x="363.49708 : 943.81603 : 1"
       inkscape:vp_y="0 : 1000 : 0"
       inkscape:vp_z="744.09448 : 526.18109 : 1"
       inkscape:persp3d-origin="372.04724 : 350.78739 : 1"
       id="perspective5056" />
    <inkscape:perspective
       id="perspective5056-8"
       inkscape:persp3d-origin="372.04724 : 350.78739 : 1"
       inkscape:vp_z="744.09448 : 526.18109 : 1"
       inkscape:vp_y="0 : 1000 : 0"
       inkscape:vp_x="363.49708 : 943.81603 : 1"
       sodipodi:type="inkscape:persp3d" />
    <inkscape:perspective
       id="perspective5056-5"
       inkscape:persp3d-origin="372.04724 : 350.78739 : 1"
       inkscape:vp_z="744.09448 : 526.18109 : 1"
       inkscape:vp_y="0 : 1000 : 0"
       inkscape:vp_x="363.49708 : 943.81603 : 1"
       sodipodi:type="inkscape:persp3d" />
    <inkscape:perspective
       sodipodi:type="inkscape:persp3d"
       inkscape:vp_x="363.49708 : 943.81603 : 1"
       inkscape:vp_y="0 : 1000 : 0"
       inkscape:vp_z="744.09448 : 526.18109 : 1"
       inkscape:persp3d-origin="372.04724 : 350.78739 : 1"
       id="perspective5056-5-2" />
    <inkscape:perspective
       sodipodi:type="inkscape:persp3d"
       inkscape:vp_x="363.49708 : 943.81603 : 1"
       inkscape:vp_y="0 : 1000 : 0"
       inkscape:vp_z="744.09448 : 526.18109 : 1"
       inkscape:persp3d-origin="372.04724 : 350.78739 : 1"
       id="perspective5056-8-5" />
    <inkscape:perspective
       id="perspective5056-1"
       inkscape:persp3d-origin="372.04724 : 350.78739 : 1"
       inkscape:vp_z="744.09448 : 526.18109 : 1"
       inkscape:vp_y="0 : 1000 : 0"
       inkscape:vp_x="363.49708 : 943.81603 : 1"
       sodipodi:type="inkscape:persp3d" />
    <inkscape:perspective
       sodipodi:type="inkscape:persp3d"
       inkscape:vp_x="363.49708 : 943.81603 : 1"
       inkscape:vp_y="0 : 1000 : 0"
       inkscape:vp_z="744.09448 : 526.18109 : 1"
       inkscape:persp3d-origin="372.04724 : 350.78739 : 1"
       id="perspective5056-5-5" />
    <inkscape:perspective
       id="perspective5056-4"
       inkscape:persp3d-origin="372.04724 : 350.78739 : 1"
       inkscape:vp_z="744.09448 : 526.18109 : 1"
       inkscape:vp_y="0 : 1000 : 0"
       inkscape:vp_x="363.49708 : 943.81603 : 1"
       sodipodi:type="inkscape:persp3d" />
    <inkscape:perspective
       sodipodi:type="inkscape:persp3d"
       inkscape:vp_x="363.49708 : 943.81603 : 1"
       inkscape:vp_y="0 : 1000 : 0"
       inkscape:vp_z="744.09448 : 526.18109 : 1"
       inkscape:persp3d-origin="372.04724 : 350.78739 : 1"
       id="perspective5056-1-2" />
    <inkscape:perspective
       id="perspective5056-8-5-8"
       inkscape:persp3d-origin="372.04724 : 350.78739 : 1"
       inkscape:vp_z="744.09448 : 526.18109 : 1"
       inkscape:vp_y="0 : 1000 : 0"
       inkscape:vp_x="363.49708 : 943.81603 : 1"
       sodipodi:type="inkscape:persp3d" />
    <inkscape:perspective
       id="perspective5056-5-2-8"
       inkscape:persp3d-origin="372.04724 : 350.78739 : 1"
       inkscape:vp_z="744.09448 : 526.18109 : 1"
       inkscape:vp_y="0 : 1000 : 0"
       inkscape:vp_x="363.49708 : 943.81603 : 1"
       sodipodi:type="inkscape:persp3d" />
    <inkscape:perspective
       sodipodi:type="inkscape:persp3d"
       inkscape:vp_x="363.49708 : 943.81603 : 1"
       inkscape:vp_y="0 : 1000 : 0"
       inkscape:vp_z="744.09448 : 526.18109 : 1"
       inkscape:persp3d-origin="372.04724 : 350.78739 : 1"
       id="perspective5056-5-4" />
    <inkscape:perspective
       sodipodi:type="inkscape:persp3d"
       inkscape:vp_x="363.49708 : 943.81603 : 1"
       inkscape:vp_y="0 : 1000 : 0"
       inkscape:vp_z="744.09448 : 526.18109 : 1"
       inkscape:persp3d-origin="372.04724 : 350.78739 : 1"
       id="perspective5056-8-9" />
    <inkscape:perspective
       id="perspective5056-40"
       inkscape:persp3d-origin="372.04724 : 350.78739 : 1"
       inkscape:vp_z="744.09448 : 526.18109 : 1"
       inkscape:vp_y="0 : 1000 : 0"
       inkscape:vp_x="363.49708 : 943.81603 : 1"
       sodipodi:type="inkscape:persp3d" />
    <inkscape:perspective
       sodipodi:type="inkscape:persp3d"
       inkscape:vp_x="363.49708 : 943.81603 : 1"
       inkscape:vp_y="0 : 1000 : 0"
       inkscape:vp_z="744.09448 : 526.18109 : 1"
       inkscape:persp3d-origin="372.04724 : 350.78739 : 1"
       id="perspective5056-1-5" />
    <inkscape:perspective
       id="perspective5056-8-5-4"
       inkscape:persp3d-origin="372.04724 : 350.78739 : 1"
       inkscape:vp_z="744.09448 : 526.18109 : 1"
       inkscape:vp_y="0 : 1000 : 0"
       inkscape:vp_x="363.49708 : 943.81603 : 1"
       sodipodi:type="inkscape:persp3d" />
    <inkscape:perspective
       id="perspective5056-5-2-82"
       inkscape:persp3d-origin="372.04724 : 350.78739 : 1"
       inkscape:vp_z="744.09448 : 526.18109 : 1"
       inkscape:vp_y="0 : 1000 : 0"
       inkscape:vp_x="363.49708 : 943.81603 : 1"
       sodipodi:type="inkscape:persp3d" />
    <inkscape:perspective
       sodipodi:type="inkscape:persp3d"
       inkscape:vp_x="363.49708 : 943.81603 : 1"
       inkscape:vp_y="0 : 1000 : 0"
       inkscape:vp_z="744.09448 : 526.18109 : 1"
       inkscape:persp3d-origin="372.04724 : 350.78739 : 1"
       id="perspective5056-5-8" />
    <inkscape:perspective
       sodipodi:type="inkscape:persp3d"
       inkscape:vp_x="363.49708 : 943.81603 : 1"
       inkscape:vp_y="0 : 1000 : 0"
       inkscape:vp_z="744.09448 : 526.18109 : 1"
       inkscape:persp3d-origin="372.04724 : 350.78739 : 1"
       id="perspective5056-8-4" />
    <inkscape:perspective
       id="perspective5056-409"
       inkscape:persp3d-origin="372.04724 : 350.78739 : 1"
       inkscape:vp_z="744.09448 : 526.18109 : 1"
       inkscape:vp_y="0 : 1000 : 0"
       inkscape:vp_x="363.49708 : 943.81603 : 1"
       sodipodi:type="inkscape:persp3d" />
    <inkscape:perspective
       sodipodi:type="inkscape:persp3d"
       inkscape:vp_x="363.49708 : 943.81603 : 1"
       inkscape:vp_y="0 : 1000 : 0"
       inkscape:vp_z="744.09448 : 526.18109 : 1"
       inkscape:persp3d-origin="372.04724 : 350.78739 : 1"
       id="perspective5056-1-7" />
    <inkscape:perspective
       id="perspective5056-8-5-2"
       inkscape:persp3d-origin="372.04724 : 350.78739 : 1"
       inkscape:vp_z="744.09448 : 526.18109 : 1"
       inkscape:vp_y="0 : 1000 : 0"
       inkscape:vp_x="363.49708 : 943.81603 : 1"
       sodipodi:type="inkscape:persp3d" />
    <inkscape:perspective
       id="perspective5056-5-2-89"
       inkscape:persp3d-origin="372.04724 : 350.78739 : 1"
       inkscape:vp_z="744.09448 : 526.18109 : 1"
       inkscape:vp_y="0 : 1000 : 0"
       inkscape:vp_x="363.49708 : 943.81603 : 1"
       sodipodi:type="inkscape:persp3d" />
    <inkscape:perspective
       sodipodi:type="inkscape:persp3d"
       inkscape:vp_x="363.49708 : 943.81603 : 1"
       inkscape:vp_y="0 : 1000 : 0"
       inkscape:vp_z="744.09448 : 526.18109 : 1"
       inkscape:persp3d-origin="372.04724 : 350.78739 : 1"
       id="perspective5056-5-1" />
    <inkscape:perspective
       sodipodi:type="inkscape:persp3d"
       inkscape:vp_x="363.49708 : 943.81603 : 1"
       inkscape:vp_y="0 : 1000 : 0"
       inkscape:vp_z="744.09448 : 526.18109 : 1"
       inkscape:persp3d-origin="372.04724 : 350.78739 : 1"
       id="perspective5056-8-6" />
    <inkscape:perspective
       id="perspective5056-7"
       inkscape:persp3d-origin="372.04724 : 350.78739 : 1"
       inkscape:vp_z="744.09448 : 526.18109 : 1"
       inkscape:vp_y="0 : 1000 : 0"
       inkscape:vp_x="363.49708 : 943.81603 : 1"
       sodipodi:type="inkscape:persp3d" />
    <inkscape:perspective
       sodipodi:type="inkscape:persp3d"
       inkscape:vp_x="363.49708 : 943.81603 : 1"
       inkscape:vp_y="0 : 1000 : 0"
       inkscape:vp_z="744.09448 : 526.18109 : 1"
       inkscape:persp3d-origin="372.04724 : 350.78739 : 1"
       id="perspective5056-1-1" />
    <inkscape:perspective
       id="perspective5056-8-5-82"
       inkscape:persp3d-origin="372.04724 : 350.78739 : 1"
       inkscape:vp_z="744.09448 : 526.18109 : 1"
       inkscape:vp_y="0 : 1000 : 0"
       inkscape:vp_x="363.49708 : 943.81603 : 1"
       sodipodi:type="inkscape:persp3d" />
    <inkscape:perspective
       id="perspective5056-5-2-1"
       inkscape:persp3d-origin="372.04724 : 350.78739 : 1"
       inkscape:vp_z="744.09448 : 526.18109 : 1"
       inkscape:vp_y="0 : 1000 : 0"
       inkscape:vp_x="363.49708 : 943.81603 : 1"
       sodipodi:type="inkscape:persp3d" />
    <inkscape:perspective
       sodipodi:type="inkscape:persp3d"
       inkscape:vp_x="363.49708 : 943.81603 : 1"
       inkscape:vp_y="0 : 1000 : 0"
       inkscape:vp_z="744.09448 : 526.18109 : 1"
       inkscape:persp3d-origin="372.04724 : 350.78739 : 1"
       id="perspective5056-5-46" />
    <inkscape:perspective
       sodipodi:type="inkscape:persp3d"
       inkscape:vp_x="363.49708 : 943.81603 : 1"
       inkscape:vp_y="0 : 1000 : 0"
       inkscape:vp_z="744.09448 : 526.18109 : 1"
       inkscape:persp3d-origin="372.04724 : 350.78739 : 1"
       id="perspective5056-8-92" />
    <inkscape:perspective
       id="perspective5056-3"
       inkscape:persp3d-origin="372.04724 : 350.78739 : 1"
       inkscape:vp_z="744.09448 : 526.18109 : 1"
       inkscape:vp_y="0 : 1000 : 0"
       inkscape:vp_x="363.49708 : 943.81603 : 1"
       sodipodi:type="inkscape:persp3d" />
  </defs>
  <sodipodi:namedview
     id="base"
     pagecolor="#ffffff"
     bordercolor="#666666"
     borderopacity="1.0"
     inkscape:pageopacity="0.0"
     inkscape:pageshadow="2"
     inkscape:zoom="0.87854412"
     inkscape:cx="110.66669"
     inkscape:cy="190.58996"
     inkscape:document-units="px"
     inkscape:current-layer="layer8"
     showgrid="false"
     inkscape:window-width="994"
     inkscape:window-height="693"
     inkscape:window-x="75"
     inkscape:window-y="-2"
     inkscape:window-maximized="0"
     showguides="true"
     inkscape:guide-bbox="true"
     inkscape:snap-grids="false"
     inkscape:snap-to-guides="false"
     showborder="true"
     inkscape:showpageshadow="false"
     fit-margin-top="0"
     fit-margin-left="0"
     fit-margin-right="0"
     fit-margin-bottom="0"
     inkscape:snap-page="false" />
  <metadata
     id="metadata7">
    <rdf:RDF>
      <cc:Work
         rdf:about="">
        <dc:format>image/svg+xml</dc:format>
        <dc:type
           rdf:resource="http://purl.org/dc/dcmitype/StillImage" />
        <dc:title></dc:title>
      </cc:Work>
    </rdf:RDF>
  </metadata>
  <g
     inkscape:groupmode="layer"
     id="layer2"
     inkscape:label="補助線"
     style="display:none"
     sodipodi:insensitive="true">
    <path
       style="fill:none;stroke:#0000ff;stroke-width:1px;stroke-linecap:butt;stroke-linejoin:miter;stroke-opacity:1"
       d="M 10,310 360,10"
       id="path3025"
       inkscape:connector-curvature="0"
       sodipodi:nodetypes="cc" />
    <path
       style="fill:none;stroke:#0000ff;stroke-width:1px;stroke-linecap:butt;stroke-linejoin:miter;stroke-opacity:1"
       d="M 10,10 360,310"
       id="path3027"
       inkscape:connector-curvature="0"
       sodipodi:nodetypes="cc" />
    <path
       style="fill:none;stroke:#ff0000;stroke-width:1px;stroke-linecap:butt;stroke-linejoin:miter;stroke-opacity:1;display:inline"
       d="m 10,0 0,320"
       id="path3006"
       inkscape:connector-curvature="0"
       sodipodi:nodetypes="cc" />
    <path
       style="fill:none;stroke:#ff0000;stroke-width:1px;stroke-linecap:butt;stroke-linejoin:miter;stroke-opacity:1;display:inline"
       d="m 360,0 0,320"
       id="path3010"
       inkscape:connector-curvature="0"
       sodipodi:nodetypes="cc" />
    <path
       style="fill:none;stroke:#ff0000;stroke-width:1px;stroke-linecap:butt;stroke-linejoin:miter;stroke-opacity:1;display:inline"
       d="M 0,9.9999681 370,10"
       id="path3016"
       inkscape:connector-curvature="0" />
    <path
       transform="translate(84.715796,27.711696)"
       style="fill:none;stroke:#ff0000;stroke-width:1px;stroke-linecap:butt;stroke-linejoin:miter;stroke-opacity:1;display:inline"
       d="m -84.715796,282.2883 369.999996,0"
       id="path3018"
       inkscape:connector-curvature="0"
       sodipodi:nodetypes="cc" />
  </g>
  <g
     inkscape:groupmode="layer"
     id="layer8"
     inkscape:label="原型"
     style="display:inline">
    <path
       style="fill:#1c1f24;stroke:#000000;stroke-width:1.5;stroke-linecap:butt;stroke-linejoin:miter;stroke-opacity:1;display:inline"
       d="m 216.40078,384.42209 c 0.85661,-45.40357 -0.59621,-104.4964 4.10692,-147.33563 2.18455,-19.89829 7.66598,-49.67116 17.10355,-45.55279 11.60439,5.06393 10.76943,28.54903 11.96988,53.92913 1.97133,41.6784 0.45916,99.90039 2.75518,145.11966"
       id="path7580"
       inkscape:connector-curvature="0"
       sodipodi:nodetypes="csssc" />
    <path
       style="fill:#e9c6af;stroke:none;display:inline"
       d="m 94.971992,131.40067 c 0.72588,12.59531 -3.00929,21.78059 -3.24502,31.17049 l 50.732518,44.41225 26.74672,-38.01187 -0.363,-31.58131 z"
       id="path6724"
       inkscape:connector-curvature="0"
       sodipodi:nodetypes="cccccc" />
    <path
       style="fill:#deaa87;stroke:none;display:inline"
       d="m 94.870242,131.45243 c 0.72588,12.59531 -2.91854,21.59908 -3.15427,30.98898 l 17.608438,21.99679 c -4.09841,-15.68061 -6.5493,-39.63393 -1.38605,-49.80949 z"
       id="path6724-1"
       inkscape:connector-curvature="0"
       sodipodi:nodetypes="ccccc" />
    <path
       style="fill:none;stroke:#000000;stroke-width:1.5;stroke-linecap:butt;stroke-linejoin:miter;stroke-opacity:1;display:inline"
       d="m 91.523452,162.43748 c 2.10557,-10.01882 3.09645,-20.59499 3.26703,-31.58131"
       id="path6722"
       inkscape:connector-curvature="0"
       sodipodi:nodetypes="cc" />
    <path
       style="fill:#dbdee3;stroke:none;display:inline"
       d="M 188.97227,200.35791 83.980142,206.42135 165.99487,362.1936 z"
       id="path4684-5-5-2-7-6"
       inkscape:connector-curvature="0"
       sodipodi:nodetypes="cccc" />
    <path
       style="fill:#550000;stroke:#000000;stroke-width:1.5;stroke-linecap:butt;stroke-linejoin:miter;stroke-opacity:1;display:inline"
       d="m 149.32544,223.6131 18.42427,94.09229 c -1.71611,9.36851 -11.11824,21.56512 -19.18654,32.99768 -9.75134,-7.12046 -19.27604,-30.29267 -19.27604,-30.29267 l 9.97887,-96.74486 z"
       id="path6770-0-4-6-6-4"
       inkscape:connector-curvature="0"
       sodipodi:nodetypes="cccccc" />
    <path
       style="fill:#550000;stroke:#000000;stroke-width:1.5;stroke-linecap:butt;stroke-linejoin:miter;stroke-opacity:1;display:inline"
       d="m 154.47731,197.47078 c -6.40012,2.42914 -15.36159,2.68646 -21.79636,1.27554 l -4.04481,5.37832 c 2.87679,6.17032 7.43737,14.58045 10.1817,19.77876 4.15384,1.15147 8.04767,1.39778 10.97006,-0.36596 1.73789,-4.90826 8.24632,-13.81019 7.89777,-19.13585 z"
       id="path6768-9-1-6-8-4"
       inkscape:connector-curvature="0"
       sodipodi:nodetypes="ccccccc" />
    <path
       style="fill:#dbdbe3;stroke:#000000;stroke-width:1.5;stroke-linecap:butt;stroke-linejoin:miter;stroke-opacity:1;display:inline"
       d="m 90.176032,163.94021 c 0.48197,-4.48911 0.73686,-8.93739 3.29225,-13.74212 1.64832,9.55677 31.609678,42.06808 48.332038,48.0856 -7.39787,3.01283 -15.45178,19.33109 -24.4248,31.8185 -13.69887,-16.37015 -24.888738,-53.70863 -27.199488,-66.16198 z"
       id="path6657-6-4-0-2-2"
       inkscape:connector-curvature="0"
       sodipodi:nodetypes="ccccc" />
    <path
       style="fill:#1c1f24;stroke:#000000;stroke-width:1.5;stroke-linecap:butt;stroke-linejoin:miter;stroke-opacity:1;display:inline"
       d="m 83.257792,168.06434 c -14.6906,8.48147 -60.99138,19.06654 -63.71011,30.46367 -4.73754,19.86008 27.36844,101.61912 29.1212,129.89396 2.57149,41.48259 -8.2426,99.35885 2.44242,107.85754 14.87123,11.82832 83.565908,24.52922 100.918188,20.53423 6.65737,-1.53274 -0.004,-8.09102 1.81209,-18.72111 2.20181,-12.8897 3.47023,-101.85553 2.0525,-105.23457 -8.66682,-20.65749 -31.1401,-75.96148 -38.9455,-99.41014 -5.20075,-15.62384 -29.945298,-65.51842 -25.918058,-79.30094 -4.2613,5.41759 -7.0523,10.19201 -9.70567,15.74635 -0.13924,7.42901 -1.38378,30.34826 -1.79054,49.9249 3.92822,1.59938 8.94745,4.01013 13.51305,6.99139"
       id="path6659-6-6-1-7-6"
       inkscape:connector-curvature="0"
       sodipodi:nodetypes="cssssssscccc" />
    <path
       style="fill:#dbdbe3;stroke:#000000;stroke-width:1.5;stroke-linecap:butt;stroke-linejoin:miter;stroke-opacity:1;display:inline"
       d="m 144.65729,198.71625 c 6.8136,-0.59552 19.48199,22.1188 23.30343,31.95696 6.06363,-15.52079 10.10609,-52.39612 8.25982,-57.55712 -1.74022,-4.8646 -5.39562,-14.91988 -6.72327,-17.34279 0.78762,15.93203 -15.72104,39.62499 -24.83998,42.94295 z"
       id="path6762-7-2-0-9-6"
       inkscape:connector-curvature="0"
       sodipodi:nodetypes="ccscc" />
    <path
       style="fill:none;stroke:#000000;stroke-width:1.5;stroke-linecap:butt;stroke-linejoin:miter;stroke-opacity:1;display:inline"
       d="m 109.18178,214.47458 -26.884868,20.75326 c 16.70274,11.14113 55.440428,79.96427 74.387628,99.03463"
       id="path6655-8-1-5-4-8"
       inkscape:connector-curvature="0"
       sodipodi:nodetypes="ccc" />
    <g
       id="g9921-2-0-0"
       transform="matrix(-2.274587,0.84923533,0.8244089,2.208092,3088.0211,-1594.8359)"
       style="stroke:#000000;stroke-width:0.83605099;display:inline" />
    <g
       id="g4656-2-7"
       transform="matrix(-2.3490673,0.61386419,0.59591857,2.280395,3317.4741,-1274.3948)"
       style="stroke:#000000;stroke-width:0.83605099;display:inline" />
    <g
       id="g4658-5-7"
       transform="matrix(-2.3490673,0.61386419,0.59591857,2.280395,3836.4953,-1383.83)"
       style="stroke:#000000;stroke-width:0.83605099;display:inline" />
    <g
       transform="matrix(2.8502614,-1.064168,1.064168,2.8502614,-323.1416,563.2014)"
       id="g4678-0-3"
       inkscape:label="駅員: 左手"
       style="stroke-width:0.65736705;display:inline">
      <g
         id="g4680-9-3"
         transform="matrix(-0.7980275,0,0,0.77469807,1298.4706,-272.34221)"
         style="stroke:#000000;stroke-width:0.83605099;display:inline" />
    </g>
    <g
       id="g4682-4-5"
       transform="matrix(-2.274587,0.84923533,0.8244089,2.208092,3088.0213,-1594.836)"
       style="stroke:#000000;stroke-width:0.83605099;display:inline" />
    <g
       id="g9921-2-0-1"
       transform="matrix(2.5764182,3.2871347,-3.191039,2.5010994,-1317.0806,-5587.9312)"
       style="stroke:#000000;stroke-width:0.48602632;display:inline" />
    <g
       id="g4656-2-4"
       transform="matrix(2.8969034,3.0085104,-2.9205601,2.8122157,-1941.3386,-5323.4923)"
       style="stroke:#000000;stroke-width:0.48602632;display:inline" />
    <g
       id="g4658-5-1"
       transform="matrix(2.8969034,3.0085104,-2.9205601,2.8122157,-2604.9064,-5949.7678)"
       style="stroke:#000000;stroke-width:0.48602632;display:inline" />
    <g
       transform="matrix(-3.2284829,-4.1190744,-4.1190744,3.2284829,1753.2116,639.81794)"
       id="g4678-0-2"
       inkscape:label="駅員: 左手"
       style="stroke-width:0.38215098;display:inline">
      <g
         id="g4680-9-9"
         transform="matrix(-0.7980275,0,0,0.77469807,1298.4706,-272.34221)"
         style="stroke:#000000;stroke-width:0.48602632;display:inline" />
    </g>
    <g
       id="g4682-4-0"
       transform="matrix(2.5764182,3.2871347,-3.191039,2.5010994,-1317.0808,-5587.9315)"
       style="stroke:#000000;stroke-width:0.48602632;display:inline" />
    <path
       sodipodi:nodetypes="cssssssscccc"
       inkscape:connector-curvature="0"
       id="path3341-7-0-1-6-8-5-1"
       d="m 178.49157,168.45938 c 13.67723,6.29063 48.34673,11.92954 59.29368,21.47864 14.88631,12.98546 3.14219,93.69209 -3.06933,115.56169 -5.5141,19.41414 -4.19046,83.08036 -3.45854,116.87051 0.52852,24.39948 -60.7935,36.8892 -71.76938,36.48593 -9.55468,-0.35109 -15.25855,-15.08894 -15.21699,-20.38367 0.24556,-31.28877 -0.3492,-98.82124 1.96226,-107.27359 14.4869,-52.97472 21.61958,-82.90588 23.79145,-121.24736 1.01275,-17.87873 5.36271,-42.24813 0.47191,-53.13685 1.58226,1.3435 6.01804,7.67797 8.65086,11.16478 4.51289,8.65657 11.06911,35.12752 14.5481,45.28103 l -11.13171,7.42625"
       style="fill:#1c1f24;stroke:#000000;stroke-width:1.5;stroke-linecap:butt;stroke-linejoin:miter;stroke-opacity:1;display:inline" />
    <path
       style="fill:none;stroke:#000000;stroke-width:1.5;stroke-linecap:butt;stroke-linejoin:miter;stroke-opacity:1;display:inline"
       d="m 169.61535,212.32875 25.70994,17.71502 c -10.97523,31.14365 -28.33303,62.74332 -45.48315,99.70977"
       id="path6766-7-0-8-3-2"
       inkscape:connector-curvature="0"
       sodipodi:nodetypes="ccc" />
    <path
       style="fill:#1c1f24;stroke:#000000;stroke-width:1.5;stroke-linecap:butt;stroke-linejoin:miter;stroke-opacity:1;display:inline"
       d="m 63.127452,283.37788 c -6.90833,-13.20983 -12.24486,-36.19312 -18.18918,-54.17191 -8.19163,-24.77589 -14.59847,-35.08669 -20.0652,-35.83838 -7.43026,-1.02167 -14.21551,26.22329 -11.26119,49.52747 2.00192,15.79152 -1.24932,59.41568 6.20566,76.75764 5.18839,12.06936 29.96239,4.70435 34.12519,7.5316 11.21588,7.61749 26.98247,-17.79929 43.14527,-33.28291"
       id="path6661-0-3-5-5"
       inkscape:connector-curvature="0"
       sodipodi:nodetypes="csssssc" />
    <path
       style="fill:#e9c6af;stroke:none;display:inline"
       d="m 97.217552,152.98387 -3.11072,-7.63328 c 1.90867,5.39318 27.813478,28.07936 36.721728,33.69763 8.4469,5.32729 27.11855,6.00217 32.67458,-1.0235 4.4949,-5.68382 11.75146,-19.56373 15.06055,-24.688 3.82561,-5.92414 7.28831,-17.8212 10.50559,-26.1059 2.24092,-5.77045 1.78885,-18.03636 2.87748,-23.696 0.74119,-3.853288 4.02351,-16.69201 3.97468,-19.613035 -0.12737,-7.618679 0.13983,-25.392706 -5.0909,-38.014464 -7.86819,-18.985884 -29.2072,-33.615177 -50.78673,-33.198165 -18.21337,0.351969 -35.45636,1.954848 -49.604438,19.954134 -12.48878,15.888306 -14.81015,25.926279 -15.58346,40.763364 -0.82669,15.861078 1.43745,27.444826 4.06413,34.469486 1.78456,4.77262 8.38656,21.97495 9.69571,27.45705 0.91771,3.84302 4.77433,11.87135 5.61815,17.48372 z"
       id="path6635-6-9-1-4-4"
       inkscape:connector-curvature="0"
       sodipodi:nodetypes="ccsssssssssssscc" />
    <path
       style="fill:#deaa87;stroke:none;display:inline"
       d="m 156.39193,106.63229 c -0.0655,-3.75315 1.91565,-5.86163 2.48836,-8.192728 0.64021,-2.60584 -1.07114,-5.81794 0.36532,-6.29118 0.82167,-0.27068 2.24858,1.27663 3.40053,1.10909 2.32862,-0.33868 4.71588,-2.15419 6.9394,-1.5203 -1.18895,2.44711 -10.32662,10.638708 -6.64424,11.645078 l 22.77396,-5.356768 1.51382,0.71287 c -2.38163,3.396718 -5.05747,10.901728 -9.55248,12.434508 -4.8848,1.66572 -12.50896,-3.88107 -16.11877,-5.46421 -0.48848,0.13525 -0.87114,2.32001 -1.13668,4.60339 -0.3048,2.62139 2.62005,12.71524 3.77829,19.59551 1.01,5.99989 -3.26829,8.21984 -5.06757,10.45153 -0.44919,0.55716 -3.02616,2.46185 -3.72527,5.40117 -0.42471,-3.10011 -1.71134,-4.98893 -3.37322,-4.95405 -1.9758,0.0415 -3.442,1.29311 -4.51338,5.27248 -2.04339,-4.3417 -10.7963,-5.68682 -12.07605,-6.52127 -0.9016,-0.58784 -2.58699,-2.73774 -1.84587,-5.62348 -0.0636,5.62142 5.48456,1.50631 8.34772,0.74946 3.81411,-1.00821 4.67585,3.53301 9.82785,3.58433 5.86665,0.0585 6.38148,-4.79069 6.22608,-8.42851 -0.33524,-7.84743 -1.56585,-20.80281 -1.6078,-23.20692 z"
       id="path5573-4"
       inkscape:connector-curvature="0"
       sodipodi:nodetypes="ssssccccscssscscscssss" />
    <path
       style="fill:#deaa87;stroke:none;display:inline"
       d="m 132.60014,157.1572 c -5.11586,5.54791 1.69883,15.31172 6.82732,20.73515 2.49269,2.63605 5.79564,3.97648 8.32662,4.84023 -3.73886,0.0338 -12.39254,-0.87926 -16.87567,-3.71614 -7.04068,-4.45526 -33.638058,-27.37806 -35.910298,-32.09665 l 2.46823,6.80183 -3.30486,-0.70128 c -0.93262,-5.6177 -2.93772,-9.60284 -3.79529,-13.82034 -2.08708,-10.26426 -8.35888,-19.73992 -11.36479,-31.3227 -3.66292,-14.114448 -4.77822,-21.894421 -4.07032,-34.473206 1.25328,-22.269783 8.9958,-31.809408 15.58144,-40.772971 8.94005,-12.168142 24.950368,-19.129519 38.485138,-19.434189 -8.81133,2.32759 -12.79545,6.967761 -15.8082,19.009474 -4.19773,16.778046 0.47506,43.017756 4.11563,46.697782 3.16166,3.19594 8.37144,9.088897 8.78562,12.928132 -5.22335,2.68305 -5.17466,6.61807 -3.60645,7.93928 l 14.96909,3.065528 c 2.38842,-1.4701 1.74365,-5.959408 0.84509,-8.433908 2.53159,0.98768 5.35424,-1.64727 7.8858,-0.6596 2.46223,0.96062 0.62441,4.44632 -0.26459,9.144468 -0.91378,4.8291 -0.93995,10.8571 -2.85476,10.59962 -1.61065,-0.21661 -3.58006,-4.56849 -5.56252,-3.33216 -1.37491,0.85746 -8.17749,6.46963 -10.78608,6.17895 -4.8338,-0.53866 -11.25354,-4.85347 -14.13753,-4.65041 -1.83031,0.12884 -2.80602,8.34436 -2.66207,10.35255 0.36234,5.055 17.21999,27.4172 22.71345,35.12056 z"
       id="path3438-5-86-7-0"
       inkscape:connector-curvature="0"
       sodipodi:nodetypes="cscscccsssscssccccsssssssc" />
    <path
       style="fill:#fefefe;fill-opacity:1;stroke:none;display:inline"
       d="m 135.38189,101.0188 -11.63569,-0.41826 -7.24305,2.17938 5.98919,5.19348 3.27177,1.50703 8.28662,-0.1354 7.42974,-4.13284 z"
       id="path3353-4-1-2-2-9"
       inkscape:connector-curvature="0"
       sodipodi:nodetypes="cccccccc" />
    <path
       style="fill:#fefefe;fill-opacity:1;stroke:none;display:inline"
       d="m 169.51431,98.874062 -5.47788,4.530928 7.2358,3.70923 4.49125,0.0189 4.05797,-1.14012 6.7626,-7.312698 -3.97274,-1.12196 z"
       id="path3337-0-4-0-1-4"
       inkscape:connector-curvature="0"
       sodipodi:nodetypes="cccccccc" />
    <path
       style="fill:#2b0000;stroke:none;display:inline"
       d="m 174.85946,104.36973 c -3.64945,-0.01 -6.01198,-2.41465 -5.89831,-4.954678 l 5.04976,-1.53205 5.62194,-0.19033 c 0.65357,3.279908 -2.32338,6.683458 -4.77339,6.677058 z"
       id="path3357-1-2-4-7-8"
       inkscape:connector-curvature="0"
       sodipodi:nodetypes="scccs" />
    <path
       style="fill:#2b0000;stroke:none;display:inline"
       d="m 134.13065,101.12492 c 0.40133,2.8697 -1.71814,6.21149 -5.52311,6.06905 -3.79442,-0.14204 -5.41871,-3.61026 -5.44532,-6.15471 z"
       id="path3357-0-8-6-8"
       inkscape:connector-curvature="0"
       sodipodi:nodetypes="cscc" />
    <path
       style="fill:#000000;stroke:none;display:inline"
       d="m 160.24404,142.70345 c -1.20747,-0.31743 -4.33077,2.28357 -7.11477,2.1968 -3.77075,-0.11757 -7.96828,-2.32144 -9.25081,-1.78561 -6.68633,2.79354 -15.67345,8.73434 -17.12336,11.18889 -1.46474,2.47962 1.10917,6.92966 2.80814,6.64011 7.55006,-1.28684 14.57321,-4.49597 23.55944,-5.29781 7.61426,-0.67933 14.91122,2.39438 18.42217,2.15297 0.77723,-0.0536 3.39833,-5.57617 2.22468,-6.95608 -2.42518,-2.56475 -9.03754,-6.95937 -13.52549,-8.13927 z"
       id="path6633-4-0-6-2"
       inkscape:connector-curvature="0"
       sodipodi:nodetypes="sssscsscs" />
    <path
       style="fill:none;stroke:#000000;stroke-width:1.5;stroke-linecap:butt;stroke-linejoin:miter;stroke-opacity:1;display:inline"
       d="m 89.954812,132.59987 c 1.49291,4.17509 2.55085,8.0641 4.20006,12.72413 1.90868,5.39318 28.816308,31.42212 39.395918,37.04038 8.82001,4.68382 23.08175,2.55771 30.88155,-5.31174 2.90503,-2.93097 11.55565,-19.44206 14.86474,-24.56634 3.8256,-5.92413 6.83931,-16.761 10.05661,-25.04572 2.24092,-5.77044 1.55247,-18.27273 2.64112,-23.93237 0.74119,-3.853278 4.02349,-16.691998 3.97467,-19.613024 -0.12738,-7.618679 0.13981,-25.392705 -5.09091,-38.014462 -7.86817,-18.985884 -29.20718,-33.61518 -50.78671,-33.198165 -18.21339,0.351969 -35.45638,1.954848 -49.604448,19.954134 -12.48879,15.888305 -14.81015,25.92628 -15.58346,40.763363 -0.82669,15.861076 1.43745,27.444824 4.06413,34.469464 1.78456,4.77265 9.92665,25.95355 11.2358,31.43565 0.91771,3.84301 2.97756,8.34195 3.82138,13.95432"
       id="path6635-6-9-1-4"
       inkscape:connector-curvature="0"
       sodipodi:nodetypes="csssssssssssssc" />
    <path
       style="fill:none;stroke:#000000;stroke-width:1.5;stroke-linecap:butt;stroke-linejoin:miter;stroke-opacity:1;display:inline"
       d="m 148.53125,95.828282 c 0.8536,2.98813 -0.87447,5.327298 -1.59766,7.040968"
       id="path6643-0-0-5-55"
       inkscape:connector-curvature="0" />
    <path
       style="fill:#000000;stroke:none;display:inline"
       d="m 144.20295,98.646932 c -5.75545,0.64905 -9.50426,-2.33459 -15.68986,-4.85851 -4.29009,-1.75048 -21.03989,-4.70922 -18.59639,-4.99849 7.31284,-0.865758 11.84528,0.57694 17.56137,1.81097 4.7804,1.03203 9.98148,3.15526 12.59146,3.84331 6.33709,1.67059 9.38277,3.61074 4.13342,4.20272 z"
       id="path6645-7-0-4-1"
       inkscape:connector-curvature="0"
       sodipodi:nodetypes="ssssss" />
    <path
       style="fill:#000000;stroke:none;display:inline"
       d="m 193.42772,85.286728 c 0.96071,-1.167535 -13.93897,1.848836 -21.73847,4.532034 -5.59853,1.92603 -11.62623,5.62545 -9.76136,5.88992 4.51693,0.64057 8.78204,-1.39693 14.17723,-4.40972 6.5555,-3.660746 16.10505,-4.532594 17.3226,-6.012234 z"
       id="path6647-1-6-2-7"
       inkscape:connector-curvature="0"
       sodipodi:nodetypes="sssss" />
    <path
       style="fill:none;stroke:#000000;stroke-width:1.5;stroke-linecap:butt;stroke-linejoin:miter;stroke-opacity:1;display:inline"
       d="m 136.95199,135.45547 c -0.88596,2.21483 -0.78472,5.0644 1.84649,5.7701"
       id="path6649-7-1-0-1"
       inkscape:connector-curvature="0"
       sodipodi:nodetypes="cc" />
    <path
       style="fill:none;stroke:#916f6f;stroke-width:1.5;stroke-linecap:butt;stroke-linejoin:miter;stroke-opacity:1;display:inline"
       d="m 141.42941,105.17859 c -2.52391,1.30359 -5.82385,4.28496 -8.61319,4.34987 -2.15806,0.0503 -5.45714,0.58085 -8.1649,-0.30494 -2.44313,-0.7992 -5.78299,-4.44909 -7.66072,-6.0626"
       id="path3339-7-3-9-1"
       inkscape:connector-curvature="0"
       sodipodi:nodetypes="cssc" />
    <path
       style="fill:none;stroke:#000000;stroke-width:1.5;stroke-linecap:butt;stroke-linejoin:miter;stroke-opacity:1;display:inline"
       d="m 142.87393,106.38981 c -2.68875,-2.24763 -4.26625,-4.31481 -6.7645,-5.14523 -2.10768,-0.70061 -10.95737,-1.1047 -13.1018,-0.54263 -2.47501,0.64877 -5.19924,2.06623 -8.18838,3.00458"
       id="path3337-7-8-7-5"
       inkscape:connector-curvature="0"
       sodipodi:nodetypes="cssc" />
    <path
       style="fill:none;stroke:#916f6f;stroke-width:1.5;stroke-linecap:butt;stroke-linejoin:miter;stroke-opacity:1;display:inline"
       d="m 186.52066,98.639122 c -1.49342,1.963258 -5.55175,7.100368 -7.73985,7.883458 -2.07834,0.7438 -4.00081,0.64605 -7.01321,0.69311 -1.67118,0.026 -6.67833,-3.463 -7.78909,-3.82296"
       id="path3355-7-9-3-27"
       inkscape:connector-curvature="0"
       sodipodi:nodetypes="cssc" />
    <path
       style="fill:none;stroke:#000000;stroke-width:1.5;stroke-linecap:butt;stroke-linejoin:miter;stroke-opacity:1;display:inline"
       d="m 188.35578,99.452662 c -1.62045,-1.02094 -4.63767,-1.9118 -6.44617,-1.78808 -1.92104,0.13143 -11.00236,0.16947 -13.69363,2.05674 -2.63174,1.845508 -2.75669,2.219738 -5.58063,4.961468"
       id="path3353-3-3-7-6"
       inkscape:connector-curvature="0"
       sodipodi:nodetypes="cssc" />
    <path
       style="fill:#deaa87;stroke:#000000;stroke-width:1.5;stroke-linecap:butt;stroke-linejoin:miter;stroke-opacity:1;display:inline"
       d="m 88.638672,132.53689 c -2.40837,-3.38521 -7.33914,2.11498 -12.3537,-9.69366 -2.16517,-5.09865 -3.05286,-7.40475 -5.86243,-17.38059 -2.55823,-9.083518 -0.87068,-18.937152 2.1497,-21.738943 4.23527,-3.928749 10.06623,3.383671 12.51588,9.071775"
       id="path6637-1-1-2-1"
       inkscape:connector-curvature="0"
       sodipodi:nodetypes="csssc" />
    <path
       style="opacity:0.95;fill:none;stroke:#000000;stroke-width:1.5;stroke-linecap:butt;stroke-linejoin:miter;stroke-opacity:1;display:inline"
       d="m 75.767702,115.65055 c 2.15305,-1.18211 3.61558,-4.36951 4.00603,-7.80948 0.36995,-3.25953 1.71939,-4.939 1.44065,-7.3666 -0.64027,-5.577338 -4.04733,-16.035222 -7.44769,-13.715209 -2.96588,2.023581 -2.65663,12.025821 -1.04572,16.832039 1.8919,5.64448 0.96417,13.32414 5.61672,13.98892 2.6078,0.37265 5.06793,6.17865 5.88027,4.39605 0.79628,-1.74731 -2.21889,-4.99006 -2.68065,-6.65994 -0.27819,-1.00605 0.24936,-4.45571 1.04573,-5.14657"
       id="path6639-8-8-6-4"
       inkscape:connector-curvature="0"
       sodipodi:nodetypes="csssssssc" />
    <path
       style="fill:#deaa87;stroke:none;display:inline"
       d="m 141.11962,162.46277 c -0.26986,-1.97615 5.00242,-2.48659 9.2805,-2.81115 4.44766,-0.33738 8.19159,0.37531 7.76844,1.86421 -0.83529,2.93889 -3.60526,5.06439 -8.78033,5.50623 -4.31255,0.36819 -7.8652,-1.60516 -8.26861,-4.55929 z"
       id="path6710-3-4-7-2"
       inkscape:connector-curvature="0"
       sodipodi:nodetypes="sssss" />
    <path
       style="fill:none;stroke:#000000;stroke-width:1.5;stroke-linecap:butt;stroke-linejoin:miter;stroke-opacity:1;display:inline"
       d="m 161.68641,139.66161 c 2.77513,-0.65313 3.61784,-3.65562 2.82647,-6.57894"
       id="path6407-3"
       inkscape:connector-curvature="0" />
    <path
       style="fill:none;stroke:#000000;stroke-width:1.5;stroke-linecap:butt;stroke-linejoin:miter;stroke-opacity:1;display:inline"
       d="m 156.53213,141.73596 c 1.09664,0.0237 3.28772,-2.06312 3.64469,-4.06539"
       id="path3412-2"
       inkscape:connector-curvature="0"
       sodipodi:nodetypes="cc" />
    <path
       style="fill:none;stroke:#000000;stroke-width:1.5;stroke-linecap:butt;stroke-linejoin:miter;stroke-opacity:1;display:inline"
       d="m 160.57926,93.525862 c 0.46013,1.71716 0.40119,3.63948 0.0597,4.95761"
       id="path6643-0-0-5-55-7"
       inkscape:connector-curvature="0"
       sodipodi:nodetypes="cc" />
    <path
       style="fill:#1c1f24;stroke:#000000;stroke-width:1.5;stroke-linecap:butt;stroke-linejoin:miter;stroke-opacity:1;display:inline"
       d="m -223.44453,320.39971 c 7.28233,-17.85296 17.31327,-61.20625 27.40674,-70.76913 11.78731,-11.16767 47.9444,-7.04453 57.50842,14.97476 4.21579,9.70604 -5.96619,36.45254 -10.28138,53.62214 -5.02989,20.01332 -22.88294,56.05491 -30.24995,61.26568 -16.9394,11.98158 -24.09035,4.46086 -37.84316,-1.72728 -15.05462,-6.77389 -21.87258,-44.04894 -23.12035,-58.02236"
       id="path3986-55-0"
       inkscape:connector-curvature="0"
       sodipodi:nodetypes="csssssc" />
    <text
       xml:space="preserve"
       style="font-size:64px;font-style:normal;font-weight:normal;line-height:125%;letter-spacing:0px;word-spacing:0px;fill:#000000;fill-opacity:1;stroke:none;display:inline;font-family:Sans"
       x="205.37268"
       y="74.549339"
       id="text4810"
       sodipodi:linespacing="125%"><tspan
         sodipodi:role="line"
         id="tspan4812"
         x="205.37268"
         y="74.549339">good</tspan><tspan
         sodipodi:role="line"
         x="205.37268"
         y="154.54935"
         id="tspan4814">luck</tspan></text>
  </g>
  <g
     inkscape:groupmode="layer"
     id="layer7"
     inkscape:label="枠面"
     style="display:inline"
     sodipodi:insensitive="true">
    <path
       style="fill:#ff0000;stroke:none;display:inline"
       d="m 0,0 0,320 370,0 0,-320 -10,10 0,300 -350,0 0,-300 350,0 10,-10 z"
       id="path21072"
       inkscape:connector-curvature="0"
       sodipodi:nodetypes="ccccccccccc" />
  </g>
</svg>
