<?xml version="1.0" encoding="UTF-8" standalone="no"?>
<!-- Created with Inkscape (http://www.inkscape.org/) -->

<svg
   xmlns:dc="http://purl.org/dc/elements/1.1/"
   xmlns:cc="http://creativecommons.org/ns#"
   xmlns:rdf="http://www.w3.org/1999/02/22-rdf-syntax-ns#"
   xmlns:svg="http://www.w3.org/2000/svg"
   xmlns="http://www.w3.org/2000/svg"
   xmlns:sodipodi="http://sodipodi.sourceforge.net/DTD/sodipodi-0.dtd"
   xmlns:inkscape="http://www.inkscape.org/namespaces/inkscape"
   width="370"
   height="320"
   id="svg2"
   version="1.1"
   inkscape:version="0.92.3 (2405546, 2018-03-11)"
   sodipodi:docname="[12.祈願].svg"
   inkscape:export-filename="C:\Users\zhen-\Desktop\資料\臨時\HOSHI\12.png"
   inkscape:export-xdpi="96"
   inkscape:export-ydpi="96"
   enable-background="new">
  <defs
     id="defs4">
    <inkscape:perspective
       sodipodi:type="inkscape:persp3d"
       inkscape:vp_x="363.49708 : 943.81603 : 1"
       inkscape:vp_y="0 : 1000 : 0"
       inkscape:vp_z="744.09448 : 526.18109 : 1"
       inkscape:persp3d-origin="372.04724 : 350.78739 : 1"
       id="perspective5056" />
    <inkscape:perspective
       id="perspective5056-8"
       inkscape:persp3d-origin="372.04724 : 350.78739 : 1"
       inkscape:vp_z="744.09448 : 526.18109 : 1"
       inkscape:vp_y="0 : 1000 : 0"
       inkscape:vp_x="363.49708 : 943.81603 : 1"
       sodipodi:type="inkscape:persp3d" />
    <inkscape:perspective
       id="perspective5056-5"
       inkscape:persp3d-origin="372.04724 : 350.78739 : 1"
       inkscape:vp_z="744.09448 : 526.18109 : 1"
       inkscape:vp_y="0 : 1000 : 0"
       inkscape:vp_x="363.49708 : 943.81603 : 1"
       sodipodi:type="inkscape:persp3d" />
    <inkscape:perspective
       sodipodi:type="inkscape:persp3d"
       inkscape:vp_x="363.49708 : 943.81603 : 1"
       inkscape:vp_y="0 : 1000 : 0"
       inkscape:vp_z="744.09448 : 526.18109 : 1"
       inkscape:persp3d-origin="372.04724 : 350.78739 : 1"
       id="perspective5056-5-2" />
    <inkscape:perspective
       sodipodi:type="inkscape:persp3d"
       inkscape:vp_x="363.49708 : 943.81603 : 1"
       inkscape:vp_y="0 : 1000 : 0"
       inkscape:vp_z="744.09448 : 526.18109 : 1"
       inkscape:persp3d-origin="372.04724 : 350.78739 : 1"
       id="perspective5056-8-5" />
    <inkscape:perspective
       id="perspective5056-1"
       inkscape:persp3d-origin="372.04724 : 350.78739 : 1"
       inkscape:vp_z="744.09448 : 526.18109 : 1"
       inkscape:vp_y="0 : 1000 : 0"
       inkscape:vp_x="363.49708 : 943.81603 : 1"
       sodipodi:type="inkscape:persp3d" />
    <inkscape:perspective
       sodipodi:type="inkscape:persp3d"
       inkscape:vp_x="363.49708 : 943.81603 : 1"
       inkscape:vp_y="0 : 1000 : 0"
       inkscape:vp_z="744.09448 : 526.18109 : 1"
       inkscape:persp3d-origin="372.04724 : 350.78739 : 1"
       id="perspective5056-5-5" />
    <inkscape:perspective
       id="perspective5056-4"
       inkscape:persp3d-origin="372.04724 : 350.78739 : 1"
       inkscape:vp_z="744.09448 : 526.18109 : 1"
       inkscape:vp_y="0 : 1000 : 0"
       inkscape:vp_x="363.49708 : 943.81603 : 1"
       sodipodi:type="inkscape:persp3d" />
    <inkscape:perspective
       sodipodi:type="inkscape:persp3d"
       inkscape:vp_x="363.49708 : 943.81603 : 1"
       inkscape:vp_y="0 : 1000 : 0"
       inkscape:vp_z="744.09448 : 526.18109 : 1"
       inkscape:persp3d-origin="372.04724 : 350.78739 : 1"
       id="perspective5056-1-2" />
    <inkscape:perspective
       id="perspective5056-8-5-8"
       inkscape:persp3d-origin="372.04724 : 350.78739 : 1"
       inkscape:vp_z="744.09448 : 526.18109 : 1"
       inkscape:vp_y="0 : 1000 : 0"
       inkscape:vp_x="363.49708 : 943.81603 : 1"
       sodipodi:type="inkscape:persp3d" />
    <inkscape:perspective
       id="perspective5056-5-2-8"
       inkscape:persp3d-origin="372.04724 : 350.78739 : 1"
       inkscape:vp_z="744.09448 : 526.18109 : 1"
       inkscape:vp_y="0 : 1000 : 0"
       inkscape:vp_x="363.49708 : 943.81603 : 1"
       sodipodi:type="inkscape:persp3d" />
    <inkscape:perspective
       sodipodi:type="inkscape:persp3d"
       inkscape:vp_x="363.49708 : 943.81603 : 1"
       inkscape:vp_y="0 : 1000 : 0"
       inkscape:vp_z="744.09448 : 526.18109 : 1"
       inkscape:persp3d-origin="372.04724 : 350.78739 : 1"
       id="perspective5056-5-4" />
    <inkscape:perspective
       sodipodi:type="inkscape:persp3d"
       inkscape:vp_x="363.49708 : 943.81603 : 1"
       inkscape:vp_y="0 : 1000 : 0"
       inkscape:vp_z="744.09448 : 526.18109 : 1"
       inkscape:persp3d-origin="372.04724 : 350.78739 : 1"
       id="perspective5056-8-9" />
    <inkscape:perspective
       id="perspective5056-40"
       inkscape:persp3d-origin="372.04724 : 350.78739 : 1"
       inkscape:vp_z="744.09448 : 526.18109 : 1"
       inkscape:vp_y="0 : 1000 : 0"
       inkscape:vp_x="363.49708 : 943.81603 : 1"
       sodipodi:type="inkscape:persp3d" />
    <inkscape:perspective
       sodipodi:type="inkscape:persp3d"
       inkscape:vp_x="363.49708 : 943.81603 : 1"
       inkscape:vp_y="0 : 1000 : 0"
       inkscape:vp_z="744.09448 : 526.18109 : 1"
       inkscape:persp3d-origin="372.04724 : 350.78739 : 1"
       id="perspective5056-1-5" />
    <inkscape:perspective
       id="perspective5056-8-5-4"
       inkscape:persp3d-origin="372.04724 : 350.78739 : 1"
       inkscape:vp_z="744.09448 : 526.18109 : 1"
       inkscape:vp_y="0 : 1000 : 0"
       inkscape:vp_x="363.49708 : 943.81603 : 1"
       sodipodi:type="inkscape:persp3d" />
    <inkscape:perspective
       id="perspective5056-5-2-82"
       inkscape:persp3d-origin="372.04724 : 350.78739 : 1"
       inkscape:vp_z="744.09448 : 526.18109 : 1"
       inkscape:vp_y="0 : 1000 : 0"
       inkscape:vp_x="363.49708 : 943.81603 : 1"
       sodipodi:type="inkscape:persp3d" />
    <inkscape:perspective
       sodipodi:type="inkscape:persp3d"
       inkscape:vp_x="363.49708 : 943.81603 : 1"
       inkscape:vp_y="0 : 1000 : 0"
       inkscape:vp_z="744.09448 : 526.18109 : 1"
       inkscape:persp3d-origin="372.04724 : 350.78739 : 1"
       id="perspective5056-5-8" />
    <inkscape:perspective
       sodipodi:type="inkscape:persp3d"
       inkscape:vp_x="363.49708 : 943.81603 : 1"
       inkscape:vp_y="0 : 1000 : 0"
       inkscape:vp_z="744.09448 : 526.18109 : 1"
       inkscape:persp3d-origin="372.04724 : 350.78739 : 1"
       id="perspective5056-8-4" />
    <inkscape:perspective
       id="perspective5056-409"
       inkscape:persp3d-origin="372.04724 : 350.78739 : 1"
       inkscape:vp_z="744.09448 : 526.18109 : 1"
       inkscape:vp_y="0 : 1000 : 0"
       inkscape:vp_x="363.49708 : 943.81603 : 1"
       sodipodi:type="inkscape:persp3d" />
    <inkscape:perspective
       sodipodi:type="inkscape:persp3d"
       inkscape:vp_x="363.49708 : 943.81603 : 1"
       inkscape:vp_y="0 : 1000 : 0"
       inkscape:vp_z="744.09448 : 526.18109 : 1"
       inkscape:persp3d-origin="372.04724 : 350.78739 : 1"
       id="perspective5056-1-7" />
    <inkscape:perspective
       id="perspective5056-8-5-2"
       inkscape:persp3d-origin="372.04724 : 350.78739 : 1"
       inkscape:vp_z="744.09448 : 526.18109 : 1"
       inkscape:vp_y="0 : 1000 : 0"
       inkscape:vp_x="363.49708 : 943.81603 : 1"
       sodipodi:type="inkscape:persp3d" />
    <inkscape:perspective
       id="perspective5056-5-2-89"
       inkscape:persp3d-origin="372.04724 : 350.78739 : 1"
       inkscape:vp_z="744.09448 : 526.18109 : 1"
       inkscape:vp_y="0 : 1000 : 0"
       inkscape:vp_x="363.49708 : 943.81603 : 1"
       sodipodi:type="inkscape:persp3d" />
    <inkscape:perspective
       sodipodi:type="inkscape:persp3d"
       inkscape:vp_x="363.49708 : 943.81603 : 1"
       inkscape:vp_y="0 : 1000 : 0"
       inkscape:vp_z="744.09448 : 526.18109 : 1"
       inkscape:persp3d-origin="372.04724 : 350.78739 : 1"
       id="perspective5056-5-1" />
    <inkscape:perspective
       sodipodi:type="inkscape:persp3d"
       inkscape:vp_x="363.49708 : 943.81603 : 1"
       inkscape:vp_y="0 : 1000 : 0"
       inkscape:vp_z="744.09448 : 526.18109 : 1"
       inkscape:persp3d-origin="372.04724 : 350.78739 : 1"
       id="perspective5056-8-6" />
    <inkscape:perspective
       id="perspective5056-7"
       inkscape:persp3d-origin="372.04724 : 350.78739 : 1"
       inkscape:vp_z="744.09448 : 526.18109 : 1"
       inkscape:vp_y="0 : 1000 : 0"
       inkscape:vp_x="363.49708 : 943.81603 : 1"
       sodipodi:type="inkscape:persp3d" />
    <inkscape:perspective
       sodipodi:type="inkscape:persp3d"
       inkscape:vp_x="363.49708 : 943.81603 : 1"
       inkscape:vp_y="0 : 1000 : 0"
       inkscape:vp_z="744.09448 : 526.18109 : 1"
       inkscape:persp3d-origin="372.04724 : 350.78739 : 1"
       id="perspective5056-1-1" />
    <inkscape:perspective
       id="perspective5056-8-5-82"
       inkscape:persp3d-origin="372.04724 : 350.78739 : 1"
       inkscape:vp_z="744.09448 : 526.18109 : 1"
       inkscape:vp_y="0 : 1000 : 0"
       inkscape:vp_x="363.49708 : 943.81603 : 1"
       sodipodi:type="inkscape:persp3d" />
    <inkscape:perspective
       id="perspective5056-5-2-1"
       inkscape:persp3d-origin="372.04724 : 350.78739 : 1"
       inkscape:vp_z="744.09448 : 526.18109 : 1"
       inkscape:vp_y="0 : 1000 : 0"
       inkscape:vp_x="363.49708 : 943.81603 : 1"
       sodipodi:type="inkscape:persp3d" />
    <inkscape:perspective
       sodipodi:type="inkscape:persp3d"
       inkscape:vp_x="363.49708 : 943.81603 : 1"
       inkscape:vp_y="0 : 1000 : 0"
       inkscape:vp_z="744.09448 : 526.18109 : 1"
       inkscape:persp3d-origin="372.04724 : 350.78739 : 1"
       id="perspective5056-5-46" />
    <inkscape:perspective
       sodipodi:type="inkscape:persp3d"
       inkscape:vp_x="363.49708 : 943.81603 : 1"
       inkscape:vp_y="0 : 1000 : 0"
       inkscape:vp_z="744.09448 : 526.18109 : 1"
       inkscape:persp3d-origin="372.04724 : 350.78739 : 1"
       id="perspective5056-8-92" />
    <inkscape:perspective
       id="perspective5056-3"
       inkscape:persp3d-origin="372.04724 : 350.78739 : 1"
       inkscape:vp_z="744.09448 : 526.18109 : 1"
       inkscape:vp_y="0 : 1000 : 0"
       inkscape:vp_x="363.49708 : 943.81603 : 1"
       sodipodi:type="inkscape:persp3d" />
  </defs>
  <sodipodi:namedview
     id="base"
     pagecolor="#ffffff"
     bordercolor="#666666"
     borderopacity="1.0"
     inkscape:pageopacity="0.0"
     inkscape:pageshadow="2"
     inkscape:zoom="1.251579"
     inkscape:cx="151.13401"
     inkscape:cy="167.52615"
     inkscape:document-units="px"
     inkscape:current-layer="layer3"
     showgrid="false"
     inkscape:window-width="1508"
     inkscape:window-height="988"
     inkscape:window-x="75"
     inkscape:window-y="-5"
     inkscape:window-maximized="0"
     showguides="true"
     inkscape:guide-bbox="true"
     inkscape:snap-grids="false"
     inkscape:snap-to-guides="false"
     showborder="true"
     inkscape:showpageshadow="false"
     fit-margin-top="0"
     fit-margin-left="0"
     fit-margin-right="0"
     fit-margin-bottom="0"
     inkscape:snap-page="false"
     inkscape:snap-global="false" />
  <metadata
     id="metadata7">
    <rdf:RDF>
      <cc:Work
         rdf:about="">
        <dc:format>image/svg+xml</dc:format>
        <dc:type
           rdf:resource="http://purl.org/dc/dcmitype/StillImage" />
        <dc:title />
      </cc:Work>
    </rdf:RDF>
  </metadata>
  <g
     inkscape:groupmode="layer"
     id="layer2"
     inkscape:label="補助線"
     style="display:none"
     sodipodi:insensitive="true">
    <path
       style="fill:none;stroke:#0000ff;stroke-width:1px;stroke-linecap:butt;stroke-linejoin:miter;stroke-opacity:1"
       d="M 10,310 360,10"
       id="path3025"
       inkscape:connector-curvature="0"
       sodipodi:nodetypes="cc" />
    <path
       style="fill:none;stroke:#0000ff;stroke-width:1px;stroke-linecap:butt;stroke-linejoin:miter;stroke-opacity:1"
       d="M 10,10 360,310"
       id="path3027"
       inkscape:connector-curvature="0"
       sodipodi:nodetypes="cc" />
    <path
       style="display:inline;fill:none;stroke:#ff0000;stroke-width:1px;stroke-linecap:butt;stroke-linejoin:miter;stroke-opacity:1"
       d="M 10,0 V 320"
       id="path3006"
       inkscape:connector-curvature="0"
       sodipodi:nodetypes="cc" />
    <path
       style="display:inline;fill:none;stroke:#ff0000;stroke-width:1px;stroke-linecap:butt;stroke-linejoin:miter;stroke-opacity:1"
       d="M 360,0 V 320"
       id="path3010"
       inkscape:connector-curvature="0"
       sodipodi:nodetypes="cc" />
    <path
       style="display:inline;fill:none;stroke:#ff0000;stroke-width:1px;stroke-linecap:butt;stroke-linejoin:miter;stroke-opacity:1"
       d="M 0,9.9999681 370,10"
       id="path3016"
       inkscape:connector-curvature="0" />
    <path
       transform="translate(84.715796,27.711696)"
       style="display:inline;fill:none;stroke:#ff0000;stroke-width:1px;stroke-linecap:butt;stroke-linejoin:miter;stroke-opacity:1"
       d="M -84.715796,282.2883 H 285.2842"
       id="path3018"
       inkscape:connector-curvature="0"
       sodipodi:nodetypes="cc" />
  </g>
  <g
     inkscape:groupmode="layer"
     id="layer9"
     inkscape:label="吹き出し"
     sodipodi:insensitive="true"
     style="display:inline">
    <path
       style="display:inline;opacity:1;fill:#fefefe;fill-opacity:1;stroke:#000000;stroke-width:1.5;stroke-linecap:round;stroke-linejoin:round;stroke-miterlimit:4;stroke-dasharray:none;stroke-dashoffset:0;stroke-opacity:1"
       d="m 358.39624,74.930395 c 0,29.158115 -40.49297,52.795455 -90.44358,52.795455 -7.43906,0 -18.89936,15.645 -33.95292,19.88755 6.69384,-9.80025 1.85776,-23.20709 -3.06971,-24.49919 -31.49084,-8.25768 -53.42094,-26.725778 -53.42094,-48.183815 0,-29.158105 40.49296,-52.79543 90.44357,-52.79543 49.95061,0 90.44358,23.637325 90.44358,52.79543 z"
       id="path7611"
       inkscape:connector-curvature="0"
       sodipodi:nodetypes="sscssss" />
    <text
       xml:space="preserve"
       style="font-style:normal;font-variant:normal;font-weight:normal;font-stretch:normal;font-size:31.06125069px;line-height:1.25;font-family:HGMinchoB;-inkscape-font-specification:HGMinchoB;letter-spacing:0px;word-spacing:0px;display:inline;fill:#000000;fill-opacity:1;stroke:none;stroke-width:2.18399405;stroke-linecap:round"
       x="220.32027"
       y="66.151527"
       id="text7607"><tspan
         sodipodi:role="line"
         x="220.32027"
         y="66.151527"
         id="tspan13941"
         style="stroke-width:2.18399405">成功を</tspan><tspan
         sodipodi:role="line"
         x="220.32027"
         y="107.21589"
         style="stroke-width:2.18399405"
         id="tspan6747">祈る。</tspan></text>
  </g>
  <g
     inkscape:groupmode="layer"
     id="layer3"
     inkscape:label="豚"
     style="display:inline"
     sodipodi:insensitive="true">
    <path
       sodipodi:nodetypes="sssccs"
       style="display:inline;fill:#1c1f24;stroke:#000000;stroke-width:1.5;stroke-linecap:round;stroke-linejoin:round;stroke-opacity:1"
       d="m 219.93695,248.01576 c 1.0833,-20.76466 0.88737,-46.56829 16.03751,-55.78829 6.24384,-3.79984 9.89635,18.5425 10.32734,40.57272 0.33469,17.10758 -3.86674,89.07177 -3.20628,116.43511 l -28.14161,12.68134 c 2.07766,-36.26047 3.00349,-75.95691 4.98304,-113.90088 z"
       id="path6900-5"
       inkscape:connector-curvature="0" />
    <path
       style="display:inline;fill:#1c1f24;fill-opacity:1;stroke:#000000;stroke-width:1.5;stroke-linecap:round;stroke-linejoin:miter;stroke-opacity:1"
       d="m 49.428692,441.74344 c -10.68502,-8.49869 -12.99198,-66.37495 -15.56349,-107.85754 -1.15912,-18.69849 -9.416331,-64.52375 -13.803211,-96.63269 -2.24672,-16.44445 1.104334,-38.53406 5.106814,-44.17311 7.35773,-10.36624 47.107279,-20.96405 66.770582,-32.31461 14.029863,-8.09868 62.399183,-9.83516 81.915753,0.53139 11.15906,5.92732 50.10074,22.08263 62.59401,29.0485 6.87434,3.83292 6.82048,29.24547 6.54381,44.06034 -0.36024,19.2893 -8.40987,64.67886 -12.14651,77.83488 -5.51411,19.41414 -2.00361,81.8034 -1.27169,115.59355"
       id="path6056"
       inkscape:connector-curvature="0"
       sodipodi:nodetypes="cssssssssc" />
    <path
       style="display:inline;fill:#deaa87;stroke:none;stroke-linecap:round;stroke-linejoin:round"
       d="m 97.308632,149.47752 9.838808,62.59893 66.35317,6.82789 -2.072,-65.83792 z"
       id="path6880-5"
       inkscape:connector-curvature="0"
       sodipodi:nodetypes="ccccc" />
    <path
       sodipodi:nodetypes="cccc"
       style="display:inline;fill:#dbdee3;stroke:none;stroke-linecap:round;stroke-linejoin:round"
       d="m 100.38793,199.03782 85.0304,1.85842 -31.5925,163.936 z"
       id="path6878-8"
       inkscape:connector-curvature="0" />
    <path
       style="display:inline;opacity:0.95;fill:#241c1c;stroke:none;stroke-width:1.5;stroke-linecap:round;stroke-linejoin:round"
       d="M 194.28716,93.944817 166.4658,84.255441 c -8.31623,-2.896301 -8.38825,11.986787 -8.57117,20.481479 -0.0879,4.08343 2.00166,8.95704 3.64052,3.37953 1.64896,-5.61187 -2.63012,-24.474209 3.89309,-21.607009 l 28.63542,12.586374 z"
       id="path6942-2"
       inkscape:connector-curvature="0"
       sodipodi:nodetypes="csssscc" />
    <path
       style="display:inline;fill:#550000;stroke:#000000;stroke-width:1.5;stroke-linecap:round;stroke-linejoin:round;stroke-opacity:1"
       d="m 152.10257,225.72938 14.90752,130.70782 -14.54754,30.42046 -21.10679,-27.47042 10.537,-133.33803 z"
       id="path6770-0-4-6-6-4-4"
       inkscape:connector-curvature="0"
       sodipodi:nodetypes="cccccc" />
    <path
       style="display:inline;fill:#550000;stroke:#000000;stroke-width:1.5;stroke-linecap:round;stroke-linejoin:round;stroke-opacity:1"
       d="m 154.2524,196.44756 -19.84157,0.0726 -4.48836,8.85817 c 2.87679,6.17032 9.06563,15.76516 11.80996,20.96347 3.85591,1.05749 7.62762,1.38191 10.54476,-0.79127 1.73789,-4.90826 7.63728,-16.39539 7.28873,-21.72105 z"
       id="path6768-9-1-6-8-4-6"
       inkscape:connector-curvature="0"
       sodipodi:nodetypes="ccccccc" />
    <path
       style="display:inline;fill:#dbdbe3;stroke:#000000;stroke-width:1.5;stroke-linecap:round;stroke-linejoin:round;stroke-opacity:1"
       d="m 110.75307,173.09162 c 10.93848,10.57777 24.2211,19.25579 32.64344,22.28656 -7.09713,6.32094 -18.53543,21.43356 -25.80722,33.70832 -11.14702,-21.92825 -25.666361,-63.78068 -24.399796,-69.43999 1.057038,-4.72309 1.888075,-11.34926 3.978975,-13.84296 -0.260813,7.48777 2.8082,16.86703 13.584601,27.28807 z m 63.28772,2.54536 c 0.012,15.57967 -1.20103,33.01782 -4.67074,52.08736 -3.82144,-9.83816 -14.64455,-29.09001 -22.36036,-32.40408 8.08231,-4.21113 14.54594,-10.99759 18.52684,-16.27607 3.32235,-4.40527 6.88364,-9.20391 7.13533,-19.75962 z"
       id="path6762-7-2-0-9-6-2"
       inkscape:connector-curvature="0"
       sodipodi:nodetypes="sccccscccscc" />
    <path
       style="display:inline;fill:#1c1f24;fill-opacity:1;stroke:#000000;stroke-width:1.5;stroke-linecap:round;stroke-linejoin:round;stroke-opacity:1"
       d="m 170.44529,223.0801 10.54048,11.91599 13.73384,-18.07609 c -3.47899,-10.15351 -14.46912,-38.01569 -15.99059,-44.11978 -0.99125,-3.97686 -2.73683,-8.0035 -6.67084,-15.36074 1.87813,6.47765 1.80263,42.22314 -1.61289,65.64062 z"
       id="path6085"
       inkscape:connector-curvature="0"
       sodipodi:nodetypes="cccscc" />
    <path
       style="display:inline;fill:#1c1f24;fill-opacity:1;stroke:#000000;stroke-width:1.5;stroke-linecap:round;stroke-linejoin:round;stroke-opacity:1"
       d="m 115.90023,226.97084 c -6.23059,-15.24243 -23.243886,-60.86056 -21.442669,-73.36285 -1.556114,0.95015 -4.806859,9.49938 -5.34393,11.2121 -1.453775,4.63609 -4.223384,41.32817 -6.149393,58.65765 3.92822,3.93857 16.806775,17.08518 21.372372,20.06644 z"
       id="path6058"
       inkscape:connector-curvature="0"
       sodipodi:nodetypes="ccsccc" />
    <path
       style="display:inline;fill:#1c1f24;fill-opacity:1;stroke:#000000;stroke-width:1.5;stroke-linecap:round;stroke-linejoin:round;stroke-opacity:1"
       d="m 229.57476,427.83415 c 0.52852,24.39948 -60.7935,36.88922 -71.76938,36.48593 -9.55468,-0.35107 -10.1041,-7.87272 -10.06255,-13.16745 0.24557,-31.28877 -3.22887,-98.40783 -0.91742,-106.86019 14.48691,-52.97471 18.711,-86.00154 23.61988,-121.21234 l 27.79373,14.18938 c -10.97523,31.14365 -26.00437,64.26181 -43.15449,101.22826"
       id="path6054"
       inkscape:connector-curvature="0"
       sodipodi:nodetypes="csssccc" />
    <flowRoot
       xml:space="preserve"
       id="flowRoot15395"
       style="font-style:normal;font-variant:normal;font-weight:normal;font-stretch:normal;font-size:21.33333397px;line-height:1.25;font-family:HGMinchoB;-inkscape-font-specification:HGMinchoB;letter-spacing:0px;word-spacing:0px;fill:#000000;fill-opacity:1;stroke:none;stroke-width:1.5;stroke-linecap:round"><flowRegion
         id="flowRegion15397"
         style="stroke-width:1.5;stroke-linecap:round"><rect
           id="rect15399"
           width="451.29166"
           height="578.83063"
           x="-724.02881"
           y="-192.11794"
           style="stroke-width:1.5;stroke-linecap:round" /></flowRegion><flowPara
         id="flowPara15401" /></flowRoot>    <g
       id="g7015"
       transform="translate(0,4)">
      <path
         sodipodi:nodetypes="cccc"
         inkscape:connector-curvature="0"
         id="path6722-3"
         d="m 97.238549,145.69199 c 0.287567,-9.27951 -0.912222,-11.63058 -2.363116,-24.77033 l 80.663927,11.2898 -3.60852,29.4696"
         style="display:inline;fill:#deaa87;stroke:#000000;stroke-width:1.5;stroke-linecap:round;stroke-linejoin:miter;stroke-opacity:1" />
      <path
         sodipodi:nodetypes="cssssssssssssc"
         inkscape:connector-curvature="0"
         id="path6635-6-9-1-4-6"
         d="m 94.302606,123.91968 c 1.42958,3.99798 2.442641,7.72201 4.021891,12.18436 1.827713,5.1644 27.583753,29.55267 38.824933,35.28574 9.02614,4.60339 19.42353,4.58737 27.49391,-3.54973 2.78272,-2.80572 12.54352,-19.68139 15.21157,-24.87754 3.66332,-7.13449 7.75214,-16.83861 9.32927,-24.43437 1.20509,-5.80391 1.8346,-17.04648 2.87707,-22.46604 0.70975,-3.689818 3.35149,-14.558877 3.05422,-18.781024 -0.44436,-6.311199 -0.46805,-21.301947 -5.31455,-33.454282 -6.59495,-16.536451 -27.47171,-32.209115 -47.28836,-32.233519 -17.44401,-0.02148 -34.29245,1.655512 -47.699947,19.000696 -8.36355,10.819864 -14.181895,22.429499 -14.922401,36.637184 -0.791621,15.18824 1.376473,26.280598 3.891728,33.007245 1.708857,4.5702 11.292861,27.42536 12.546476,32.6749"
         style="display:inline;fill:#deaa87;stroke:#000000;stroke-width:1.5;stroke-linecap:round;stroke-linejoin:miter;stroke-opacity:1" />
      <path
         sodipodi:nodetypes="sssssscscscsssssssccccssssccccssssssscsssss"
         inkscape:connector-curvature="0"
         id="path5573-4-1"
         d="m 185.25419,107.23387 c -0.78086,-2.84047 -4.92117,1.22709 -8.54884,1.11598 -4.93975,-0.1513 -11.1021,-6.22424 -12.02192,-6.29194 -0.97421,-0.0717 -1.54733,1.93407 -1.8016,4.12059 -0.29187,2.51019 1.9624,8.7113 3.57916,15.96052 1.5002,6.72657 -2.27903,6.70156 -4.00198,8.83858 -0.43013,0.53352 -4.81167,2.72955 -5.48112,5.54419 -0.40669,-2.96861 -1.63874,-4.7773 -3.23012,-4.7439 -1.89199,0.0397 -3.29599,1.23826 -4.32192,5.04882 -1.95671,-4.15752 -7.22645,-3.50067 -8.45192,-4.29972 -0.86335,-0.56291 -2.47724,-2.62161 -1.76756,-5.38493 -0.0609,5.38295 3.95529,2.35004 6.69699,1.6253 3.65231,-0.96544 2.53259,1.30856 7.46604,1.3577 5.61778,0.056 6.24043,-5.36543 6.09162,-8.84893 -0.32102,-7.51454 -1.49943,-19.92035 -1.5396,-22.22247 -0.0627,-3.593941 1.83439,-5.612978 2.38281,-7.84519 0.61305,-2.495299 -1.02571,-5.571139 0.34982,-6.024304 0.7868,-0.259197 2.15318,1.222474 3.25627,1.06204 2.22983,-0.324311 4.42414,-0.870914 6.55333,-0.263913 -1.13851,2.343297 -7.03927,9.37552 -5.06903,12.024787 l 20.94149,-3.695403 c 2.79128,-3.943845 3.34531,-8.048135 1.01868,-12.440694 1.58405,-10.077467 3.33184,-23.936907 0.40707,-32.516466 -5.87848,-17.244011 -28.09374,-40.25459 -53.02667,-35.738441 -8.58724,1.555423 -15.52709,5.034966 -18.41204,16.565863 -4.01966,16.066311 0.65466,38.795945 4.14079,42.319862 3.02754,3.060366 8.01632,8.70334 8.41293,12.379713 -5.00177,2.569232 -9.23396,11.077314 -7.73227,12.342476 l 20.81713,1.57405 c 2.28711,-1.40774 0.50274,-8.047868 -0.3577,-10.417398 2.4242,0.945782 5.38643,-3.392645 7.8106,-2.446873 2.35778,0.919869 0.85725,4.906013 0.006,9.404864 -0.87502,4.624247 0.13721,12.478477 -1.69637,12.231917 -1.54233,-0.20742 -3.42819,-4.37469 -5.32656,-3.19081 -1.31658,0.82109 -10.42381,5.41722 -12.92175,5.13887 -4.62874,-0.51581 -8.18293,-4.38826 -10.94458,-4.19381 -1.75267,0.12337 -4.76157,9.40929 -4.62372,11.33229 0.34697,4.84056 17.43781,26.33549 20.09417,30.34212 0.91437,6.29873 3.53742,17.1224 8.1428,22.63049 3.31209,3.96131 14.27207,2.72618 19.18496,-1.39978 3.11716,-2.61787 7.1296,-9.95637 9.79935,-14.1844 5.77408,-9.14431 11.38921,-19.73736 14.4249,-31.74041 1.18988,-4.70473 0.52366,-12.07634 -0.29964,-15.07124 z"
         style="display:inline;fill:#e9c6af;stroke:none;stroke-width:1.5;stroke-linecap:round" />
      <path
         sodipodi:nodetypes="cccccc"
         inkscape:connector-curvature="0"
         id="path3353-4-1-2-2-9-0"
         d="m 140.18491,95.238646 -13.71296,-9.57e-4 -5.32735,1.507831 9.84931,4.94493 12.59971,-3.33298 z"
         style="display:inline;fill:#fefefe;fill-opacity:1;stroke:none;stroke-width:1.5;stroke-linecap:round" />
      <path
         sodipodi:nodetypes="cssc"
         inkscape:connector-curvature="0"
         id="path3339-7-3-9-1-4"
         d="m 143.59362,98.35747 c -2.41684,1.24829 -4.74977,3.72727 -7.42078,3.78943 -2.06651,0.0482 -6.39525,0.66254 -7.95145,-0.13252 -2.19198,-1.11987 -5.27871,-3.72379 -7.07679,-5.26886"
         style="display:inline;fill:#fefefe;fill-opacity:1;stroke:#916f6f;stroke-width:1.5;stroke-linecap:round;stroke-linejoin:miter;stroke-opacity:1" />
      <path
         sodipodi:nodetypes="cccccc"
         inkscape:connector-curvature="0"
         id="path3337-0-4-0-1-4-1"
         d="m 168.64352,94.141874 -3.2489,3.865206 10.86914,2.98836 9.43439,-6.683763 -4.08598,-1.714089 z"
         style="display:inline;fill:#fefefe;fill-opacity:1;stroke:none;stroke-width:1.5;stroke-linecap:round" />
      <path
         sodipodi:nodetypes="cssc"
         inkscape:connector-curvature="0"
         id="path3355-7-9-3-27-4"
         d="m 185.69815,94.311677 c -1.43006,1.879983 -4.12955,5.791383 -5.81132,6.202923 -2.0532,0.50243 -5.40996,0.69384 -8.29457,0.7389 -1.60029,0.0249 -5.34245,-2.94018 -6.40609,-3.28487"
         style="display:inline;fill:#fefefe;fill-opacity:1;stroke:#916f6f;stroke-width:1.5;stroke-linecap:round;stroke-linejoin:miter;stroke-opacity:1" />
      <path
         sodipodi:nodetypes="sccs"
         inkscape:connector-curvature="0"
         id="path3357-1-2-4-7-8-6"
         d="m 175.14712,98.99588 c -3.49464,-0.01 -5.75695,-2.31222 -5.6481,-4.744502 l 10.219,-1.649315 c 0.62584,3.140774 -2.22482,6.399947 -4.5709,6.393817 z"
         style="display:inline;fill:#2b0000;stroke:none;stroke-width:1.5;stroke-linecap:round" />
      <path
         sodipodi:nodetypes="cscc"
         inkscape:connector-curvature="0"
         id="path3357-0-8-6-8-4"
         d="m 137.38245,94.475762 c 0.3843,2.747968 -1.64526,5.947998 -5.28882,5.811598 -3.63346,-0.13602 -4.79987,-2.87364 -4.82535,-5.310152 z"
         style="display:inline;fill:#2b0000;stroke:none;stroke-width:1.5;stroke-linecap:round" />
      <path
         sodipodi:nodetypes="ssssssscs"
         inkscape:connector-curvature="0"
         id="path6633-4-0-6-2-0"
         d="m 161.29113,134.33895 c -1.15623,-0.30397 -4.14704,2.1867 -6.81294,2.10361 -3.6108,-0.11258 -7.63026,-2.22296 -8.85839,-1.70987 -6.40269,2.67504 -15.00857,7.38643 -16.39697,9.73686 -1.40261,2.37443 0.1599,6.78608 1.7868,6.5088 7.22978,-1.23223 14.85722,-3.47822 23.46225,-4.24605 7.29125,-0.65051 14.27866,2.29281 17.64068,2.06164 0.74426,-0.0513 3.25417,-5.33962 2.13031,-6.661 -2.32231,-2.45595 -8.65417,-6.66414 -12.95174,-7.79399 z"
         style="display:inline;fill:#000000;stroke:none;stroke-width:1.5;stroke-linecap:round" />
      <path
         inkscape:connector-curvature="0"
         id="path6643-0-0-5-55-1"
         d="m 150.3942,89.882275 c 0.81739,2.861375 -0.83738,5.101316 -1.52989,6.742295"
         style="display:inline;fill:none;stroke:#000000;stroke-width:1.5;stroke-linecap:round;stroke-linejoin:miter;stroke-opacity:1" />
      <path
         sodipodi:nodetypes="ssssss"
         inkscape:connector-curvature="0"
         id="path6645-7-0-4-1-8"
         d="m 146.24951,92.58136 c -5.5113,0.621517 -9.10109,-2.235559 -15.02429,-4.652412 -4.1081,-1.676223 -20.14736,-4.509452 -17.80752,-4.786451 7.00263,-0.829032 11.3428,0.552466 16.81641,1.734147 4.57761,0.988252 9.55806,3.021411 12.05732,3.680274 6.06827,1.599723 8.98475,3.45757 3.95808,4.024442 z"
         style="display:inline;fill:#000000;stroke:none;stroke-width:1.5;stroke-linecap:round" />
      <path
         sodipodi:nodetypes="sssss"
         inkscape:connector-curvature="0"
         id="path6647-1-6-2-7-9"
         d="m 193.38612,80.630697 c 0.91996,-1.118007 -13.28284,2.418712 -20.75148,4.988087 -5.36104,1.84433 -10.87372,6.164774 -9.08795,6.418026 4.32531,0.6134 8.15017,-2.115638 13.3165,-5.000617 6.27741,-3.505456 15.35703,-4.988624 16.52293,-6.405496 z"
         style="display:inline;fill:#000000;stroke:none;stroke-width:1.5;stroke-linecap:round" />
      <path
         sodipodi:nodetypes="cc"
         inkscape:connector-curvature="0"
         id="path6649-7-1-0-1-8"
         d="m 139.30614,126.65414 c -0.84838,2.12088 -0.75143,4.84957 1.76816,5.52533"
         style="display:inline;fill:none;stroke:#000000;stroke-width:1.5;stroke-linecap:round;stroke-linejoin:miter;stroke-opacity:1" />
      <path
         sodipodi:nodetypes="cssc"
         inkscape:connector-curvature="0"
         id="path3337-7-8-7-5-1"
         d="m 144.97686,99.51731 c -2.57469,-2.15228 -3.04798,-3.61314 -4.79195,-4.278664 -1.98708,-0.758307 -11.6595,-0.539194 -13.71296,-9.57e-4 -2.37002,0.621251 -4.55753,1.300331 -7.41987,2.198881"
         style="display:inline;fill:none;stroke:#000000;stroke-width:1.5;stroke-linecap:round;stroke-linejoin:miter;stroke-opacity:1" />
      <path
         sodipodi:nodetypes="cssc"
         inkscape:connector-curvature="0"
         id="path3353-3-3-7-6-3"
         d="m 186.83792,94.733716 c -1.87069,-0.818141 -4.35916,-1.993456 -5.22575,-2.136128 -1.95854,-0.322444 -11.1204,0.46542 -12.96865,1.544286 -1.74482,1.018501 -2.75253,3.214636 -4.74354,5.062096"
         style="display:inline;fill:none;stroke:#000000;stroke-width:1.5;stroke-linecap:round;stroke-linejoin:miter;stroke-opacity:1" />
      <path
         sodipodi:nodetypes="ssss"
         inkscape:connector-curvature="0"
         id="path6710-3-4-7-2-8"
         d="m 143.29697,152.51578 c 1.60449,-2.05479 16.1716,-2.77611 16.32572,-0.90677 0.26174,3.17471 -4.7359,6.13313 -8.49955,6.18949 -4.14417,0.062 -9.58331,-3.03242 -7.82617,-5.28272 z"
         style="display:inline;fill:#deaa87;stroke:none;stroke-width:1.5;stroke-linecap:round" />
      <path
         inkscape:connector-curvature="0"
         id="path6407-3-0"
         d="m 162.9913,130.68185 c 2.65741,-0.62542 3.46437,-3.50054 2.70657,-6.29985"
         style="display:inline;fill:none;stroke:#000000;stroke-width:1.5;stroke-linecap:round;stroke-linejoin:miter;stroke-opacity:1" />
      <path
         sodipodi:nodetypes="cc"
         inkscape:connector-curvature="0"
         id="path3412-2-8"
         d="m 158.05568,132.66821 c 1.05012,0.0227 3.14824,-1.9756 3.49007,-3.89293"
         style="display:inline;fill:none;stroke:#000000;stroke-width:1.5;stroke-linecap:round;stroke-linejoin:miter;stroke-opacity:1" />
      <path
         sodipodi:nodetypes="cc"
         inkscape:connector-curvature="0"
         id="path6643-0-0-5-55-7-7"
         d="m 161.93111,88.52032 c 0.44062,1.644317 0.38418,3.485091 0.0572,4.747308"
         style="display:inline;fill:none;stroke:#000000;stroke-width:1.5;stroke-linecap:round;stroke-linejoin:miter;stroke-opacity:1" />
    </g>
    <g
       transform="matrix(-1,0,0,1,221.08815,-3.1512554)"
       style="display:inline"
       id="g2672">
      <path
         style="display:inline;opacity:0.9;fill:#280b0b;stroke:#000000;stroke-width:1.5;stroke-linecap:round;stroke-linejoin:round"
         d="m 26.800989,97.096072 c 8.799817,-1.681715 28.138806,-1.306322 33.740675,1.229846 2.869691,1.299212 7.555284,0.752623 10.527365,0.0055 7.41255,-1.863478 25.561465,-2.541924 35.112961,-0.01596 0.62619,1.130342 1.47621,3.943782 1.39444,5.290552 -6.69429,5.8859 -17.349607,12.40076 -23.358531,11.17228 -4.533013,-0.92673 -11.511735,-6.03848 -14.305089,-8.09629 -1.544668,-1.13792 -6.977304,-1.13951 -8.193916,-0.38069 -2.035284,1.26945 -10.1049,7.43913 -13.73699,7.37326 -4.178382,-0.0758 -17.799973,-5.4371 -21.182966,-11.42746 -0.363669,-1.84042 -0.289682,-3.446615 0.0021,-5.150993 z"
         id="path6944"
         inkscape:connector-curvature="0"
         sodipodi:nodetypes="cssccssssccc" />
      <path
         style="display:inline;opacity:0.95;fill:#241c1c;stroke:none;stroke-width:1.5;stroke-linecap:round;stroke-linejoin:round"
         d="m 106.18199,98.315413 29.30994,-10.594718 c 8.28169,-2.993599 9.13253,12.943725 9.31545,21.438425 0.0879,4.08343 -3.17125,9.48867 -4.81011,3.91116 -1.64896,-5.61187 2.88203,-26.328674 -3.46778,-23.095585 l -28.95306,13.631265 z"
         id="path6942"
         inkscape:connector-curvature="0"
         sodipodi:nodetypes="csssscc" />
    </g>
    <g
       id="g7020">
      <g
         id="g6062">
        <path
           style="display:inline;fill:#deaa87;stroke:#000000;stroke-width:1.5;stroke-linecap:round;stroke-linejoin:miter;stroke-opacity:1"
           d="m 94.200794,128.1683 c -2.306205,-3.2416 -8.186306,1.71633 -12.988145,-9.59138 -2.073322,-4.88236 -2.923356,-7.09064 -5.613742,-16.64329 -2.449709,-8.698195 -0.833746,-18.133831 2.058508,-20.816769 4.055607,-3.762089 9.639214,3.240134 11.984949,8.686945"
           id="path6637-1-1-2-1-9"
           inkscape:connector-curvature="0"
           sodipodi:nodetypes="csssc" />
        <path
           style="display:inline;opacity:0.95;fill:none;stroke:#000000;stroke-width:1.5;stroke-linecap:round;stroke-linejoin:miter;stroke-opacity:1"
           d="m 80.717322,111.68936 c 2.061716,-1.13197 3.462205,-4.18415 3.836091,-7.4782 0.354257,-3.12126 1.646453,-4.729484 1.379537,-7.054104 -0.613109,-5.340745 -3.87564,-15.354999 -7.131754,-13.133402 -2.840066,1.937739 -2.543935,11.515677 -1.00136,16.118016 1.811644,5.40504 0.923269,12.75892 5.378455,13.3955 2.497176,0.35684 4.852945,5.91655 5.630825,4.20957 0.762502,-1.67319 -2.124763,-4.77838 -2.566935,-6.37742 -0.266389,-0.96338 0.238782,-4.2667 1.00137,-4.92825"
           id="path6639-8-8-6-4-8"
           inkscape:connector-curvature="0"
           sodipodi:nodetypes="csssssssc" />
      </g>
    </g>
    <path
       style="display:inline;fill:#1c1f24;fill-opacity:1;stroke:#000000;stroke-width:1.5;stroke-linecap:round;stroke-linejoin:round;stroke-opacity:1"
       d="m 49.428692,441.74344 c 14.87123,11.82832 83.565898,24.52922 100.918178,20.53423 6.65737,-1.53274 7.72767,-0.8748 9.54376,-11.50489 2.20181,-12.8897 -2.62213,-104.15003 -4.03982,-107.52909 -8.66686,-20.65747 -31.62974,-95.91686 -39.95058,-116.27285 l -29.544284,18.18665 c 16.229934,23.8993 49.363934,78.81054 65.030864,101.16117"
       id="path6634"
       inkscape:connector-curvature="0"
       sodipodi:nodetypes="cccsccc" />
    <path
       sodipodi:nodetypes="sssccs"
       style="display:inline;fill:#1c1f24;stroke:#000000;stroke-width:1.5;stroke-linecap:round;stroke-linejoin:round;stroke-opacity:1"
       d="m 16.666604,246.64166 c 0.361229,-20.78976 -2.420742,-44.76387 10.323499,-53.98387 5.921919,-4.28429 21.925847,25.45947 22.356837,47.48969 0.33469,17.10758 28.612901,93.28208 37.694008,134.78008 L 33.938133,389.41332 C 31.203994,344.7322 15.962975,287.13747 16.666604,246.64166 Z"
       id="path6900-5-1"
       inkscape:connector-curvature="0" />
    <path
       style="display:inline;fill:#1c1f24;fill-opacity:1;stroke:#000000;stroke-width:1.5;stroke-linecap:round;stroke-linejoin:round;stroke-opacity:1"
       d="m 104.65373,362.61076 c 5.38081,-10.45338 17.08425,-89.22447 16.1135,-101.50056 -2.52243,-31.89848 -52.931198,-28.88987 -58.206843,-0.40924 -2.158452,11.65241 -19.645505,81.3061 -14.465115,91.39687 10.828127,21.09186 47.288315,28.52218 56.558458,10.51293 z"
       id="path6085-8-6"
       inkscape:connector-curvature="0"
       sodipodi:nodetypes="sssss" />
    <path
       style="display:inline;fill:#000000;fill-opacity:1;stroke:none;stroke-width:1.5;stroke-linecap:round;stroke-linejoin:round;stroke-opacity:1"
       d="m 99.033711,311.5577 c 15.615729,-0.86836 18.178269,-26.22866 19.023649,-42.377 0.86275,-16.48023 -17.75118,-28.32657 -34.426862,-26.11103 -12.048989,1.60083 -16.275636,9.77518 -17.948362,20.30198 -2.875197,18.09418 12.680311,49.33554 33.351575,48.18605 z"
       id="path6085-8-4-4"
       inkscape:connector-curvature="0"
       sodipodi:nodetypes="sssss" />
    <path
       style="display:inline;fill:#dbdee3;fill-opacity:1;stroke:#000000;stroke-width:1.5;stroke-linecap:round;stroke-linejoin:round;stroke-opacity:1"
       d="m 98.237721,300.22754 c 24.623649,-10.32553 26.745069,-83.14727 -11.36939,-71.61572 -38.274689,11.58002 -15.609753,82.92897 11.36939,71.61572 z"
       id="path6085-8"
       inkscape:connector-curvature="0"
       sodipodi:nodetypes="sss" />
    <path
       style="display:inline;fill:#000000;fill-opacity:1;stroke:none;stroke-width:1.5;stroke-linecap:round;stroke-linejoin:round;stroke-opacity:1"
       d="m 99.920721,290.81561 c 21.261509,-7.16781 18.683489,-70.27129 -11.55097,-60.31773 -37.777191,12.43672 -9.48853,67.41068 11.55097,60.31773 z"
       id="path6085-8-4"
       inkscape:connector-curvature="0"
       sodipodi:nodetypes="sss" />
    <path
       style="display:inline;fill:#784421;fill-opacity:1;stroke:none;stroke-width:1.5;stroke-linecap:round;stroke-linejoin:round;stroke-opacity:1"
       d="m 98.561053,282.08508 c 21.261507,-7.1678 19.544347,-68.33871 -9.895687,-56.23581 -30.909328,12.70691 -11.143819,63.32877 9.895687,56.23581 z"
       id="path6085-8-4-9"
       inkscape:connector-curvature="0"
       sodipodi:nodetypes="sss" />
    <g
       id="g7029"
       transform="rotate(-3.5455032,163.71638,468.63883)">
      <path
         sodipodi:nodetypes="ccsssc"
         inkscape:connector-curvature="0"
         id="path6667"
         d="m 110.9503,201.46476 c 0.76526,-2.53859 0.1925,-9.98198 0.32759,-13.19387 1.98955,-5.8719 0.62461,-17.9921 -2.15928,-22.59373 -4.99779,-8.26109 -9.308845,-6.27148 -11.39803,-1.66421 -2.229149,4.91592 -3.664695,19.48145 -3.603261,22.60094 0.121061,6.14702 -3.068826,16.75601 -4.66078,22.37541"
         style="display:inline;fill:#deaa87;stroke:#000000;stroke-width:1.5;stroke-linecap:round;stroke-linejoin:miter;stroke-opacity:1" />
      <path
         sodipodi:nodetypes="cscssscc"
         inkscape:connector-curvature="0"
         id="path6667-2"
         d="m 107.64063,202.74207 c 0.64939,-2.15423 1.71368,-10.42169 0.5486,-13.42443 -0.20787,-0.53576 -2.34851,-0.66575 -3.96603,-0.86659 1.81,-0.091 4.47189,-0.46869 4.77876,-0.86044 2.80575,-3.58169 0.61131,-17.19583 -1.71205,-21.45079 -3.58536,-6.56618 -6.90771,-4.15284 -8.996896,0.45443 -2.22914,4.91592 -2.958476,17.50405 -2.049588,21.04727 -0.380823,1.29548 -2.937885,14.39648 -4.519537,20.11552"
         style="display:inline;fill:#e9c6af;stroke:none;stroke-width:1.5;stroke-linecap:round;stroke-linejoin:miter;stroke-opacity:1" />
      <path
         style="display:inline;fill:#deaa87;stroke:#000000;stroke-width:1.5;stroke-linecap:round;stroke-linejoin:round;stroke-opacity:1"
         d="m 84.808967,266.27806 c -1.994609,-2.60374 0.776755,-6.4061 -0.495721,-9.44118 -1.229291,-2.93209 -3.560263,-6.85734 -3.99319,-9.79226 -0.373733,-2.53366 0.606441,-4.13714 1.207482,-7.84079 0.405566,-2.49912 -1.373365,-6.43615 -2.17201,-10.27169 -0.553421,-2.65784 1.591423,-6.46452 2.526849,-8.71314 1.6349,-3.93005 -1.072284,-7.11145 1.241185,-11.1792 2.191302,-3.85296 8.840967,-9.6561 13.845443,-9.98442 5.201925,-0.34127 29.394835,2.24176 34.919055,6.93311 1.6752,1.42264 4.18017,10.13312 0.28279,12.51364 4.13617,0.32635 5.03152,13.67913 0.95056,14.86725 4.16879,0.10632 2.51502,14.82211 -2.40834,16.52218 5.47171,-0.26844 5.67982,11.4216 0.19479,14.57044 -11.00818,6.31959 -23.78706,13.21383 -29.11408,11.91385 -7.987312,-1.94918 -15.393085,-8.01995 -16.984813,-10.09779 z"
         id="path6659-8"
         inkscape:connector-curvature="0"
         sodipodi:nodetypes="ssssssssscccsss" />
      <path
         sodipodi:nodetypes="ssssssssssssssssssssssss"
         inkscape:connector-curvature="0"
         id="path6667-3"
         d="m 105.55768,216.68441 c -9.040581,0.72946 -8.673726,4.18252 -1.61164,5.12443 4.27206,0.56979 19.20875,-1.32291 24.86111,-1.16952 3.91209,0.10615 5.39828,6.28649 0.20392,9.15019 -5.92862,3.2685 -20.31868,5.00003 -25.63273,6.18808 -3.796337,0.84874 -11.467793,3.72937 -2.42834,4.25483 5.02376,0.29203 23.03119,-2.74741 28.83851,-4.43179 4.49264,-1.30307 2.7295,10.15067 0.0817,11.19307 -3.69073,1.453 -20.01003,5.47284 -23.28501,6.04504 -5.79199,1.01196 -3.40634,5.65451 1.1137,5.57742 4.92202,-0.0839 16.19715,-4.91369 20.65,-6.38731 4.2895,-1.41956 5.40847,7.61038 1.51376,9.84623 -11.00819,6.31957 -22.12879,10.62743 -27.61096,10.51352 -5.72841,-0.11903 -12.005719,-3.244 -13.947213,-6.21066 -3.147509,-4.80948 3.673091,-7.50472 2.400616,-10.5398 -1.229295,-2.93209 -6.692517,-4.75487 -6.98941,-8.59377 -0.445802,-5.76434 2.90354,-6.33437 2.905337,-9.03927 0.0017,-2.53183 -4.693946,-6.56712 -4.568981,-9.4727 0.23087,-5.36796 5.885997,-6.56441 6.22218,-8.81303 0.629386,-4.20976 -5.866227,-5.81308 -3.552758,-9.88083 2.191298,-3.85295 8.441473,-9.45635 13.445943,-9.78467 5.201926,-0.34127 25.999116,2.04203 31.523346,6.73337 1.27957,1.08665 4.55641,6.26576 0.12535,8.25636 -5.80418,2.60745 -19.15243,1.02882 -24.25843,1.44081 z"
         style="display:inline;fill:#e9c6af;stroke:none;stroke-width:1.5;stroke-linecap:round;stroke-linejoin:miter;stroke-opacity:1" />
      <path
         style="display:inline;fill:none;stroke:#000000;stroke-width:1.5;stroke-linecap:round;stroke-linejoin:miter;stroke-opacity:1"
         d="m 132.17085,218.50213 c -8.03458,0.62186 -16.35661,1.0897 -25.51789,1.10787"
         id="path6667-4"
         inkscape:connector-curvature="0"
         sodipodi:nodetypes="cc" />
      <path
         style="display:inline;fill:none;stroke:#000000;stroke-width:1.5;stroke-linecap:round;stroke-linejoin:miter;stroke-opacity:1"
         d="m 133.12141,233.36938 c -7.25313,2.23332 -16.17175,3.10059 -26.08974,4.65089"
         id="path6667-4-7"
         inkscape:connector-curvature="0"
         sodipodi:nodetypes="cc" />
      <path
         style="display:inline;fill:none;stroke:#000000;stroke-width:1.5;stroke-linecap:round;stroke-linejoin:miter;stroke-opacity:1"
         d="m 130.71307,249.89156 c -7.66547,2.54814 -14.47987,5.30393 -22.14534,6.64957"
         id="path6667-4-6"
         inkscape:connector-curvature="0"
         sodipodi:nodetypes="cc" />
    </g>
  </g>
  <g
     inkscape:groupmode="layer"
     id="layer7"
     inkscape:label="枠面"
     style="display:inline"
     sodipodi:insensitive="true">
    <path
       style="display:inline;fill:#ffffff;stroke:none"
       d="M 0,0 V 320 H 370 V 0 L 360,10 V 310 H 10 V 10 H 360 L 370,0 Z"
       id="path21072"
       inkscape:connector-curvature="0"
       sodipodi:nodetypes="ccccccccccc" />
  </g>
</svg>
