<?xml version="1.0" encoding="UTF-8" standalone="no"?>
<!-- Created with Inkscape (http://www.inkscape.org/) -->

<svg
   xmlns:dc="http://purl.org/dc/elements/1.1/"
   xmlns:cc="http://creativecommons.org/ns#"
   xmlns:rdf="http://www.w3.org/1999/02/22-rdf-syntax-ns#"
   xmlns:svg="http://www.w3.org/2000/svg"
   xmlns="http://www.w3.org/2000/svg"
   xmlns:sodipodi="http://sodipodi.sourceforge.net/DTD/sodipodi-0.dtd"
   xmlns:inkscape="http://www.inkscape.org/namespaces/inkscape"
   width="370"
   height="320"
   id="svg2"
   version="1.1"
   inkscape:version="0.48.4 r9939"
   sodipodi:docname="[01.考察].svg"
   inkscape:export-filename="C:\Users\root\Desktop\資料\作業\SANARO\ORG\[01.行動]03..png"
   inkscape:export-xdpi="90"
   inkscape:export-ydpi="90"
   enable-background="new">
  <defs
     id="defs4">
    <inkscape:perspective
       sodipodi:type="inkscape:persp3d"
       inkscape:vp_x="363.49708 : 943.81603 : 1"
       inkscape:vp_y="0 : 1000 : 0"
       inkscape:vp_z="744.09448 : 526.18109 : 1"
       inkscape:persp3d-origin="372.04724 : 350.78739 : 1"
       id="perspective5056" />
    <inkscape:perspective
       id="perspective5056-8"
       inkscape:persp3d-origin="372.04724 : 350.78739 : 1"
       inkscape:vp_z="744.09448 : 526.18109 : 1"
       inkscape:vp_y="0 : 1000 : 0"
       inkscape:vp_x="363.49708 : 943.81603 : 1"
       sodipodi:type="inkscape:persp3d" />
    <inkscape:perspective
       id="perspective5056-5"
       inkscape:persp3d-origin="372.04724 : 350.78739 : 1"
       inkscape:vp_z="744.09448 : 526.18109 : 1"
       inkscape:vp_y="0 : 1000 : 0"
       inkscape:vp_x="363.49708 : 943.81603 : 1"
       sodipodi:type="inkscape:persp3d" />
    <inkscape:perspective
       sodipodi:type="inkscape:persp3d"
       inkscape:vp_x="363.49708 : 943.81603 : 1"
       inkscape:vp_y="0 : 1000 : 0"
       inkscape:vp_z="744.09448 : 526.18109 : 1"
       inkscape:persp3d-origin="372.04724 : 350.78739 : 1"
       id="perspective5056-5-2" />
    <inkscape:perspective
       sodipodi:type="inkscape:persp3d"
       inkscape:vp_x="363.49708 : 943.81603 : 1"
       inkscape:vp_y="0 : 1000 : 0"
       inkscape:vp_z="744.09448 : 526.18109 : 1"
       inkscape:persp3d-origin="372.04724 : 350.78739 : 1"
       id="perspective5056-8-5" />
    <inkscape:perspective
       id="perspective5056-1"
       inkscape:persp3d-origin="372.04724 : 350.78739 : 1"
       inkscape:vp_z="744.09448 : 526.18109 : 1"
       inkscape:vp_y="0 : 1000 : 0"
       inkscape:vp_x="363.49708 : 943.81603 : 1"
       sodipodi:type="inkscape:persp3d" />
    <inkscape:perspective
       sodipodi:type="inkscape:persp3d"
       inkscape:vp_x="363.49708 : 943.81603 : 1"
       inkscape:vp_y="0 : 1000 : 0"
       inkscape:vp_z="744.09448 : 526.18109 : 1"
       inkscape:persp3d-origin="372.04724 : 350.78739 : 1"
       id="perspective5056-5-5" />
    <inkscape:perspective
       id="perspective5056-4"
       inkscape:persp3d-origin="372.04724 : 350.78739 : 1"
       inkscape:vp_z="744.09448 : 526.18109 : 1"
       inkscape:vp_y="0 : 1000 : 0"
       inkscape:vp_x="363.49708 : 943.81603 : 1"
       sodipodi:type="inkscape:persp3d" />
    <inkscape:perspective
       sodipodi:type="inkscape:persp3d"
       inkscape:vp_x="363.49708 : 943.81603 : 1"
       inkscape:vp_y="0 : 1000 : 0"
       inkscape:vp_z="744.09448 : 526.18109 : 1"
       inkscape:persp3d-origin="372.04724 : 350.78739 : 1"
       id="perspective5056-1-2" />
    <inkscape:perspective
       id="perspective5056-8-5-8"
       inkscape:persp3d-origin="372.04724 : 350.78739 : 1"
       inkscape:vp_z="744.09448 : 526.18109 : 1"
       inkscape:vp_y="0 : 1000 : 0"
       inkscape:vp_x="363.49708 : 943.81603 : 1"
       sodipodi:type="inkscape:persp3d" />
    <inkscape:perspective
       id="perspective5056-5-2-8"
       inkscape:persp3d-origin="372.04724 : 350.78739 : 1"
       inkscape:vp_z="744.09448 : 526.18109 : 1"
       inkscape:vp_y="0 : 1000 : 0"
       inkscape:vp_x="363.49708 : 943.81603 : 1"
       sodipodi:type="inkscape:persp3d" />
    <inkscape:perspective
       sodipodi:type="inkscape:persp3d"
       inkscape:vp_x="363.49708 : 943.81603 : 1"
       inkscape:vp_y="0 : 1000 : 0"
       inkscape:vp_z="744.09448 : 526.18109 : 1"
       inkscape:persp3d-origin="372.04724 : 350.78739 : 1"
       id="perspective5056-5-4" />
    <inkscape:perspective
       sodipodi:type="inkscape:persp3d"
       inkscape:vp_x="363.49708 : 943.81603 : 1"
       inkscape:vp_y="0 : 1000 : 0"
       inkscape:vp_z="744.09448 : 526.18109 : 1"
       inkscape:persp3d-origin="372.04724 : 350.78739 : 1"
       id="perspective5056-8-9" />
    <inkscape:perspective
       id="perspective5056-40"
       inkscape:persp3d-origin="372.04724 : 350.78739 : 1"
       inkscape:vp_z="744.09448 : 526.18109 : 1"
       inkscape:vp_y="0 : 1000 : 0"
       inkscape:vp_x="363.49708 : 943.81603 : 1"
       sodipodi:type="inkscape:persp3d" />
    <inkscape:perspective
       sodipodi:type="inkscape:persp3d"
       inkscape:vp_x="363.49708 : 943.81603 : 1"
       inkscape:vp_y="0 : 1000 : 0"
       inkscape:vp_z="744.09448 : 526.18109 : 1"
       inkscape:persp3d-origin="372.04724 : 350.78739 : 1"
       id="perspective5056-1-5" />
    <inkscape:perspective
       id="perspective5056-8-5-4"
       inkscape:persp3d-origin="372.04724 : 350.78739 : 1"
       inkscape:vp_z="744.09448 : 526.18109 : 1"
       inkscape:vp_y="0 : 1000 : 0"
       inkscape:vp_x="363.49708 : 943.81603 : 1"
       sodipodi:type="inkscape:persp3d" />
    <inkscape:perspective
       id="perspective5056-5-2-82"
       inkscape:persp3d-origin="372.04724 : 350.78739 : 1"
       inkscape:vp_z="744.09448 : 526.18109 : 1"
       inkscape:vp_y="0 : 1000 : 0"
       inkscape:vp_x="363.49708 : 943.81603 : 1"
       sodipodi:type="inkscape:persp3d" />
    <inkscape:perspective
       sodipodi:type="inkscape:persp3d"
       inkscape:vp_x="363.49708 : 943.81603 : 1"
       inkscape:vp_y="0 : 1000 : 0"
       inkscape:vp_z="744.09448 : 526.18109 : 1"
       inkscape:persp3d-origin="372.04724 : 350.78739 : 1"
       id="perspective5056-5-8" />
    <inkscape:perspective
       sodipodi:type="inkscape:persp3d"
       inkscape:vp_x="363.49708 : 943.81603 : 1"
       inkscape:vp_y="0 : 1000 : 0"
       inkscape:vp_z="744.09448 : 526.18109 : 1"
       inkscape:persp3d-origin="372.04724 : 350.78739 : 1"
       id="perspective5056-8-4" />
    <inkscape:perspective
       id="perspective5056-409"
       inkscape:persp3d-origin="372.04724 : 350.78739 : 1"
       inkscape:vp_z="744.09448 : 526.18109 : 1"
       inkscape:vp_y="0 : 1000 : 0"
       inkscape:vp_x="363.49708 : 943.81603 : 1"
       sodipodi:type="inkscape:persp3d" />
    <inkscape:perspective
       sodipodi:type="inkscape:persp3d"
       inkscape:vp_x="363.49708 : 943.81603 : 1"
       inkscape:vp_y="0 : 1000 : 0"
       inkscape:vp_z="744.09448 : 526.18109 : 1"
       inkscape:persp3d-origin="372.04724 : 350.78739 : 1"
       id="perspective5056-1-7" />
    <inkscape:perspective
       id="perspective5056-8-5-2"
       inkscape:persp3d-origin="372.04724 : 350.78739 : 1"
       inkscape:vp_z="744.09448 : 526.18109 : 1"
       inkscape:vp_y="0 : 1000 : 0"
       inkscape:vp_x="363.49708 : 943.81603 : 1"
       sodipodi:type="inkscape:persp3d" />
    <inkscape:perspective
       id="perspective5056-5-2-89"
       inkscape:persp3d-origin="372.04724 : 350.78739 : 1"
       inkscape:vp_z="744.09448 : 526.18109 : 1"
       inkscape:vp_y="0 : 1000 : 0"
       inkscape:vp_x="363.49708 : 943.81603 : 1"
       sodipodi:type="inkscape:persp3d" />
    <inkscape:perspective
       sodipodi:type="inkscape:persp3d"
       inkscape:vp_x="363.49708 : 943.81603 : 1"
       inkscape:vp_y="0 : 1000 : 0"
       inkscape:vp_z="744.09448 : 526.18109 : 1"
       inkscape:persp3d-origin="372.04724 : 350.78739 : 1"
       id="perspective5056-5-1" />
    <inkscape:perspective
       sodipodi:type="inkscape:persp3d"
       inkscape:vp_x="363.49708 : 943.81603 : 1"
       inkscape:vp_y="0 : 1000 : 0"
       inkscape:vp_z="744.09448 : 526.18109 : 1"
       inkscape:persp3d-origin="372.04724 : 350.78739 : 1"
       id="perspective5056-8-6" />
    <inkscape:perspective
       id="perspective5056-7"
       inkscape:persp3d-origin="372.04724 : 350.78739 : 1"
       inkscape:vp_z="744.09448 : 526.18109 : 1"
       inkscape:vp_y="0 : 1000 : 0"
       inkscape:vp_x="363.49708 : 943.81603 : 1"
       sodipodi:type="inkscape:persp3d" />
    <inkscape:perspective
       sodipodi:type="inkscape:persp3d"
       inkscape:vp_x="363.49708 : 943.81603 : 1"
       inkscape:vp_y="0 : 1000 : 0"
       inkscape:vp_z="744.09448 : 526.18109 : 1"
       inkscape:persp3d-origin="372.04724 : 350.78739 : 1"
       id="perspective5056-1-1" />
    <inkscape:perspective
       id="perspective5056-8-5-82"
       inkscape:persp3d-origin="372.04724 : 350.78739 : 1"
       inkscape:vp_z="744.09448 : 526.18109 : 1"
       inkscape:vp_y="0 : 1000 : 0"
       inkscape:vp_x="363.49708 : 943.81603 : 1"
       sodipodi:type="inkscape:persp3d" />
    <inkscape:perspective
       id="perspective5056-5-2-1"
       inkscape:persp3d-origin="372.04724 : 350.78739 : 1"
       inkscape:vp_z="744.09448 : 526.18109 : 1"
       inkscape:vp_y="0 : 1000 : 0"
       inkscape:vp_x="363.49708 : 943.81603 : 1"
       sodipodi:type="inkscape:persp3d" />
    <inkscape:perspective
       sodipodi:type="inkscape:persp3d"
       inkscape:vp_x="363.49708 : 943.81603 : 1"
       inkscape:vp_y="0 : 1000 : 0"
       inkscape:vp_z="744.09448 : 526.18109 : 1"
       inkscape:persp3d-origin="372.04724 : 350.78739 : 1"
       id="perspective5056-5-46" />
    <inkscape:perspective
       sodipodi:type="inkscape:persp3d"
       inkscape:vp_x="363.49708 : 943.81603 : 1"
       inkscape:vp_y="0 : 1000 : 0"
       inkscape:vp_z="744.09448 : 526.18109 : 1"
       inkscape:persp3d-origin="372.04724 : 350.78739 : 1"
       id="perspective5056-8-92" />
    <inkscape:perspective
       id="perspective5056-3"
       inkscape:persp3d-origin="372.04724 : 350.78739 : 1"
       inkscape:vp_z="744.09448 : 526.18109 : 1"
       inkscape:vp_y="0 : 1000 : 0"
       inkscape:vp_x="363.49708 : 943.81603 : 1"
       sodipodi:type="inkscape:persp3d" />
  </defs>
  <sodipodi:namedview
     id="base"
     pagecolor="#ffffff"
     bordercolor="#666666"
     borderopacity="1.0"
     inkscape:pageopacity="0.0"
     inkscape:pageshadow="2"
     inkscape:zoom="1.1441257"
     inkscape:cx="174.97929"
     inkscape:cy="143.01855"
     inkscape:document-units="px"
     inkscape:current-layer="layer8"
     showgrid="false"
     inkscape:window-width="1139"
     inkscape:window-height="693"
     inkscape:window-x="75"
     inkscape:window-y="-2"
     inkscape:window-maximized="0"
     showguides="true"
     inkscape:guide-bbox="true"
     inkscape:snap-grids="false"
     inkscape:snap-to-guides="false"
     showborder="true"
     inkscape:showpageshadow="false"
     fit-margin-top="0"
     fit-margin-left="0"
     fit-margin-right="0"
     fit-margin-bottom="0"
     inkscape:snap-page="false" />
  <metadata
     id="metadata7">
    <rdf:RDF>
      <cc:Work
         rdf:about="">
        <dc:format>image/svg+xml</dc:format>
        <dc:type
           rdf:resource="http://purl.org/dc/dcmitype/StillImage" />
        <dc:title></dc:title>
      </cc:Work>
    </rdf:RDF>
  </metadata>
  <g
     inkscape:groupmode="layer"
     id="layer2"
     inkscape:label="補助線"
     style="display:none"
     sodipodi:insensitive="true">
    <path
       style="fill:none;stroke:#0000ff;stroke-width:1px;stroke-linecap:butt;stroke-linejoin:miter;stroke-opacity:1"
       d="M 10,310 360,10"
       id="path3025"
       inkscape:connector-curvature="0"
       sodipodi:nodetypes="cc" />
    <path
       style="fill:none;stroke:#0000ff;stroke-width:1px;stroke-linecap:butt;stroke-linejoin:miter;stroke-opacity:1"
       d="M 10,10 360,310"
       id="path3027"
       inkscape:connector-curvature="0"
       sodipodi:nodetypes="cc" />
    <path
       style="fill:none;stroke:#ff0000;stroke-width:1px;stroke-linecap:butt;stroke-linejoin:miter;stroke-opacity:1;display:inline"
       d="m 10,0 0,320"
       id="path3006"
       inkscape:connector-curvature="0"
       sodipodi:nodetypes="cc" />
    <path
       style="fill:none;stroke:#ff0000;stroke-width:1px;stroke-linecap:butt;stroke-linejoin:miter;stroke-opacity:1;display:inline"
       d="m 360,0 0,320"
       id="path3010"
       inkscape:connector-curvature="0"
       sodipodi:nodetypes="cc" />
    <path
       style="fill:none;stroke:#ff0000;stroke-width:1px;stroke-linecap:butt;stroke-linejoin:miter;stroke-opacity:1;display:inline"
       d="M 0,9.9999681 370,10"
       id="path3016"
       inkscape:connector-curvature="0" />
    <path
       transform="translate(84.715796,27.711696)"
       style="fill:none;stroke:#ff0000;stroke-width:1px;stroke-linecap:butt;stroke-linejoin:miter;stroke-opacity:1;display:inline"
       d="m -84.715796,282.2883 369.999996,0"
       id="path3018"
       inkscape:connector-curvature="0"
       sodipodi:nodetypes="cc" />
  </g>
  <g
     inkscape:groupmode="layer"
     id="layer8"
     inkscape:label="原型"
     style="display:inline">
    <path
       style="fill:none;stroke:#000000;stroke-width:1.5;stroke-linecap:butt;stroke-linejoin:miter;stroke-opacity:1;display:inline"
       d="m 130.80859,127.2468 c 10.77754,-0.7158 18.04746,-1.82715 23.72399,-2.66719 4.31662,-0.6388 15.08522,-3.1237 16.4243,-5.75552 2.91366,-5.72653 -0.39231,-16.12847 -0.14038,-24.706638 0.22037,-7.503599 -2.37536,-18.110937 -4.91326,-26.110421 -2.30666,-7.270626 -7.85015,-11.809427 -10.10726,-17.406938 -2.31259,-5.735162 -0.87567,-8.647379 -2.52681,-11.7918 C 147.43596,27.69952 136.80478,20.833136 124.35119,16.066957 98.69318,7.8081345 81.79723,12.326308 67.638226,21.682104 45.461983,36.335436 43.246759,74.258813 51.635084,92.994419 c 4.211351,9.406221 17.37456,21.371721 21.337535,28.356481 1.875383,3.30535 1.123033,13.47634 1.123033,13.47634"
       id="path3520"
       inkscape:connector-curvature="0" />
    <path
       style="fill:none;stroke:#000000;stroke-width:1.5;stroke-linecap:butt;stroke-linejoin:miter;stroke-opacity:1;display:inline"
       d="m 142.39107,44.054468 c -0.32132,1.953002 -0.23576,4.865356 0.43443,7.630838 0.74432,3.071616 7.56884,7.666936 9.8444,9.888941"
       id="path5636"
       inkscape:connector-curvature="0" />
    <path
       style="fill:none;stroke:#000000;stroke-width:1.5;stroke-linecap:butt;stroke-linejoin:miter;stroke-opacity:1;display:inline"
       d="m 157.99286,65.933423 c 0.93914,1.941537 2.27731,5.886286 1.80976,9.157878"
       id="path6629-0-6-3-5-0-8"
       inkscape:connector-curvature="0" />
    <path
       style="fill:none;stroke:#000000;stroke-width:1.5;stroke-linecap:butt;stroke-linejoin:miter;stroke-opacity:1;display:inline"
       d="m 156.77864,68.849311 c -0.6932,4.147175 -0.70504,5.808598 -0.7019,8.563087"
       id="path3540"
       inkscape:connector-curvature="0" />
    <path
       style="fill:none;stroke:#000000;stroke-width:1.5;stroke-linecap:butt;stroke-linejoin:miter;stroke-opacity:1;display:inline"
       d="m 150.06387,78.434164 c 0.45336,-2.604055 1.62784,-5.333646 3.07714,-7.742478"
       id="path3542"
       inkscape:connector-curvature="0" />
    <path
       style="fill:none;stroke:#000000;stroke-width:1.5;stroke-linecap:butt;stroke-linejoin:miter;stroke-opacity:1;display:inline"
       d="m 114.52468,64.918704 c 5.26601,-3.403269 10.05351,-7.401368 16.56468,-9.826498 1.12299,-0.418266 2.26554,0.586898 3.08832,1.965304"
       id="path3544"
       inkscape:connector-curvature="0" />
    <path
       style="fill:none;stroke:#000000;stroke-width:1.5;stroke-linecap:butt;stroke-linejoin:miter;stroke-opacity:1;display:inline"
       d="m 145.47817,52.354821 c 0.43019,-0.576101 0.99495,-1.633129 2.03548,-1.895105 2.5032,-0.630239 4.87318,0.274888 7.29969,1.193212"
       id="path3548"
       inkscape:connector-curvature="0" />
    <path
       style="fill:#000000;stroke:none;display:inline"
       d="m 132.81706,47.558817 c -6.11717,2.064485 -9.7873,0.160788 -14.5341,1.204451 -5.17766,1.138405 -16.18331,8.078904 -15.04951,6.577983 2.33855,-3.095757 8.59842,-6.549738 12.36977,-7.803553 1.85379,-0.616304 8.86319,-2.669726 12.57114,-2.472536 4.23279,0.225091 10.50515,0.515145 4.6427,2.493655 z"
       id="path6645-7-0-4-0-3-8"
       inkscape:connector-curvature="0" />
    <path
       style="fill:#000000;stroke:none;display:inline"
       d="m 153.58721,40.032074 c -0.57669,-0.323966 -3.67055,-0.403213 -5.77384,0.276156 -3.09854,1.000832 -6.25686,4.496147 -4.83565,4.507927 3.99571,0.03307 2.75399,-1.682522 5.86656,-3.547287 2.19697,-1.316219 5.94363,-0.562264 4.74293,-1.236796 z"
       id="path6647-1-6-2-0-5-2"
       inkscape:connector-curvature="0" />
    <path
       style="fill:#dbdee3;stroke:none;display:inline"
       d="M 165.34103,161.64308 94.587,143.21646 170.24702,294.2592 z"
       id="path4684-5-5-2-1-7"
       inkscape:connector-curvature="0" />
    <path
       style="fill:#550000;stroke:#000000;stroke-width:1.5;stroke-linecap:butt;stroke-linejoin:miter;stroke-opacity:1;display:inline"
       d="m 143.39147,167.62099 c 10.80077,27.10712 17.75617,64.59912 19.45982,98.09638 -1.32266,7.10092 -5.94767,20.77703 -12.49522,28.03998 -5.74682,-9.57743 -10.93564,-26.4592 -10.93564,-26.4592 1.18679,-29.78993 3.67958,-67.88076 -3.97202,-100.01532 z"
       id="path6770-0-4-6-9-4"
       inkscape:connector-curvature="0" />
    <path
       style="fill:#550000;stroke:#000000;stroke-width:1.5;stroke-linecap:butt;stroke-linejoin:miter;stroke-opacity:1;display:inline"
       d="m 140.89119,147.9011 c -2.48972,-0.90257 -7.39216,0.46868 -12.65094,1.16822 l -5.36792,3.19769 c 2.12641,6.04108 9.42193,12.61565 12.25899,16.64901 4.29915,-1.3176 7.49006,-2.14429 8.55327,-0.32781 0.77514,-4.566 0.36577,-9.85633 0.51342,-14.02342 z"
       id="path6768-9-1-6-6-0"
       inkscape:connector-curvature="0" />
    <path
       style="fill:#1c1f24;stroke:#000000;stroke-width:1.5;stroke-linecap:butt;stroke-linejoin:miter;stroke-opacity:1;display:inline"
       d="m 164.37837,141.0514 c 11.65442,16.63101 68.54167,57.04745 84.46071,70.40785 8.95422,7.51504 23.82425,16.41722 18.13033,28.14194 -3.06025,6.30153 -16.68489,19.17359 -29.8906,16.75348 -6.56907,-1.20384 -59.50763,-35.39332 -70.02546,-44.08882"
       id="path10001-9-9-6-1-1-4-9"
       inkscape:connector-curvature="0" />
    <path
       style="fill:#1c1f24;stroke:#000000;stroke-width:1.5;stroke-linecap:butt;stroke-linejoin:miter;stroke-opacity:1;display:inline"
       d="m 146.27269,138.87548 c 4.92885,-0.0811 15.08796,0.19659 17.66474,1.857 5.53056,3.56377 17.30823,51.74299 16.63718,68.13508 -0.65696,16.0477 -9.95829,49.86264 -13.80327,63.20766 -3.64904,12.6649 -15.91834,73.55696 -25.01035,106.65584 -7.17257,2.41944 -16.02717,6.12712 -22.83536,2.6644 -5.83327,-2.96684 -7.6322,-8.29432 -7.05167,-12.28633 4.18121,-28.75247 42.22278,-95.03257 43.10808,-101.17934 6.92398,-48.07323 -3.06257,-96.15101 -13.6908,-132.7416 1.13755,0.89712 2.94752,1.70121 5.21447,3.75624 2.61409,2.36975 11.67974,17.97269 16.58058,26.612 l -3.66245,8.58781"
       id="path3341-7-0-1-6-8-5-4"
       inkscape:connector-curvature="0" />
    <path
       style="fill:#dbdbe3;stroke:#000000;stroke-width:1.5;stroke-linecap:butt;stroke-linejoin:miter;stroke-opacity:1;display:inline"
       d="m 137.92398,147.11946 c 5.62068,1.12251 10.50928,22.58806 13.76426,31.3651 -0.35645,-12.56498 -6.90985,-33.85798 -10.01402,-40.09608 -0.49546,1.23476 -1.81138,7.96879 -3.75024,8.73098 z"
       id="path6762-7-2-0-4-8"
       inkscape:connector-curvature="0" />
    <path
       style="fill:#dbdbe3;stroke:#000000;stroke-width:1.5;stroke-linecap:butt;stroke-linejoin:miter;stroke-opacity:1;display:inline"
       d="m 71.163133,136.04537 c 0.352743,-3.48245 2.840188,-9.79572 3.221618,-12.42092 6.293018,0.60007 38.227599,15.16524 56.755789,24.82503 -5.7572,-0.8723 -7.50436,15.79188 -15.43149,26.78493 C 95.7024,150.73678 79.158671,154.45017 71.163133,136.04537 z"
       id="path6657-6-4-0-2-8"
       inkscape:connector-curvature="0" />
    <path
       style="fill:none;stroke:#000000;stroke-width:1.5;stroke-linecap:butt;stroke-linejoin:miter;stroke-opacity:1;display:inline"
       d="m 151.87375,166.6687 16.03511,15.70616 c -4.83538,21.64632 -2.41102,58.7338 -12.00424,85.2407"
       id="path6766-7-0-8-5-2"
       inkscape:connector-curvature="0" />
    <path
       style="fill:#1c1f24;stroke:#000000;stroke-width:1.5;stroke-linecap:butt;stroke-linejoin:miter;stroke-opacity:1;display:inline"
       d="m 71.188632,136.04017 c -11.150726,7.28546 -28.405813,15.46098 -36.310919,21.01207 -9.898949,6.9512 -7.899388,20.70165 -10.892313,31.61682 -4.490549,16.37689 -7.626606,76.9791 -10.583738,105.51285 -1.61198,15.55359 -7.089398,50.24275 -5.618218,72.16134 17.567371,10.94652 72.46171,13.32564 109.784796,15.69143 5.54116,0.35124 15.09823,-5.81588 16.64097,-13.83502 6.06164,-31.5078 27.29878,-96.87984 26.09398,-99.91913 -7.36545,-18.58029 -16.59075,-60.9332 -26.99139,-81.64349 -15.4172,-30.69956 -54.773595,-56.82519 -60.064795,-60.33122 -1.046733,2.117 -2.02689,6.85515 -2.367597,9.49047 2.704515,3.49552 13.994999,11.02448 20.196992,33.3458 5.5602,2.23211 9.86368,3.02449 14.39694,3.7532"
       id="path6659-6-6-1-3-4"
       inkscape:connector-curvature="0" />
    <path
       style="fill:none;stroke:#000000;stroke-width:1.5;stroke-linecap:butt;stroke-linejoin:miter;stroke-opacity:1;display:inline"
       d="m 112.80502,163.30811 -10.40627,17.81997 c 13.90552,12.84452 39.9867,68.511 55.82568,88.23338"
       id="path6655-8-1-5-2-5"
       inkscape:connector-curvature="0" />
    <path
       style="fill:none;stroke:#000000;stroke-width:1.5;stroke-linecap:butt;stroke-linejoin:miter;stroke-opacity:1;display:inline"
       d="m 151.84411,124.95099 c -7.54964,5.83666 -11.6065,16.0982 -13.34049,22.67302"
       id="path5209"
       inkscape:connector-curvature="0" />
    <path
       style="fill:#000000;stroke:none;display:inline"
       d="m 160.47129,77.041577 c -1.15435,-0.3827 -0.69181,2.084688 -3.18015,3.025539 -3.37022,1.274226 -5.95552,-0.763067 -6.98114,0.07725 -4.32822,3.546825 -11.97518,11.622648 -12.29679,14.377856 -0.3249,2.783354 2.53375,6.841728 3.91873,5.957198 6.15479,-3.930858 11.57691,-10.187877 17.78945,-12.279297 6.89409,-2.32087 9.02629,-0.860201 12.02757,-1.383897 0.73211,-0.12774 1.02485,-5.015643 -0.54776,-5.836291 -1.6995,-1.957952 -8.97347,-3.355923 -10.72991,-3.938293 z"
       id="path6633-4-0-6-4-8-5"
       inkscape:connector-curvature="0" />
    <path
       style="fill:#e9c6af;stroke:#000000;stroke-width:1.5;stroke-linecap:butt;stroke-linejoin:miter;stroke-opacity:1;display:inline"
       d="m 202.04953,307.26905 c 0.25789,-1.85559 3.29958,-6.13998 3.32492,-8.40906 0.0678,-6.08532 -6.31494,-18.49594 -10.1547,-20.56572 -7.18024,-3.87037 -20.20301,-0.67032 -30.07,-3.83793 l 1.67717,22.50122 c 11.85593,3.00714 21.49707,3.61497 35.22261,10.31149 z"
       id="path11364-8-7"
       inkscape:connector-curvature="0" />
    <path
       style="fill:#dbdbe3;stroke:#000000;stroke-width:1.5;stroke-linecap:butt;stroke-linejoin:miter;stroke-opacity:1;display:inline"
       d="m 174.38355,307.51383 c 3.51228,-6.02857 6.77485,-27.68086 -2.99879,-35.7677 -3.44101,-0.67809 -5.58446,-1.07477 -9.11129,-1.49145 l 5.40412,38.26451 z"
       id="path11366-2-1"
       inkscape:connector-curvature="0" />
    <path
       style="fill:#1c1f24;stroke:#000000;stroke-width:1.5;stroke-linecap:butt;stroke-linejoin:miter;stroke-opacity:1;display:inline"
       d="M 93.23757,264.48754 C 86.604345,243.6005 83.488196,217.72443 74.930876,189.07221 70.444549,174.0508 50.698603,152.42035 42.889273,153.79232 c -13.009055,2.28547 -20.874363,15.05205 -16.805092,45.44092 2.661657,19.87738 10.099782,57.50079 13.954522,84.36518 3.005217,20.94375 12.799316,26.09512 25.383393,26.0901 46.852984,-0.0187 86.632564,5.2195 105.733924,1.21407 4.79601,-13.36936 -0.0433,-31.1417 -4.90483,-42.69241 -11.9462,-1.74399 -56.7779,-5.00638 -78.42716,-4.47497"
       id="path3726-6-5"
       inkscape:connector-curvature="0" />
    <path
       style="fill:none;stroke:#000000;stroke-width:1.5;stroke-linecap:butt;stroke-linejoin:miter;stroke-opacity:1;display:inline"
       d="M 252.0042,152.19532 240.90831,112.96349"
       id="path5334"
       inkscape:connector-curvature="0" />
    <path
       style="fill:none;stroke:#000000;stroke-width:1.5;stroke-linecap:butt;stroke-linejoin:miter;stroke-opacity:1;display:inline"
       d="m 240.3139,115.14303 -5.54794,-31.702504 -7.3312,-6.934918 -7.52935,-5.547931 -9.11446,-3.764672 -8.52005,-4.557243 -15.05868,8.12377 -0.90431,15.632399 7.27508,10.939689 5.12138,-0.615673"
       id="path5336"
       inkscape:connector-curvature="0" />
    <path
       style="fill:none;stroke:#000000;stroke-width:1.5;stroke-linecap:butt;stroke-linejoin:miter;stroke-opacity:1;display:inline"
       d="m 218.12215,81.459123 c -4.22657,4.63991 -9.24648,11.460866 -8.91633,14.860543 0.15295,1.574878 3.12882,3.47394 4.16096,3.962814 3.24314,1.53617 7.75651,2.94319 9.70888,2.97211 1.50392,0.0223 3.30896,-2.7481 4.31102,-4.605304 0.90528,-1.677839 -0.61601,-4.40613 -1.30491,-5.818194"
       id="path5338"
       inkscape:connector-curvature="0" />
    <path
       style="fill:none;stroke:#000000;stroke-width:1.5;stroke-linecap:butt;stroke-linejoin:miter;stroke-opacity:1;display:inline"
       d="m 211.2013,75.476786 c -2.65984,4.251286 -8.01165,10.787788 -9.72297,16.384719 -1.29731,4.242931 1.6421,5.019579 3.99681,6.654716 3.07157,2.132919 7.78777,4.166339 9.81853,4.136909 0.90625,-0.0131 1.83586,-0.25013 2.48173,-0.63692"
       id="path5340"
       inkscape:connector-curvature="0" />
    <path
       style="fill:none;stroke:#000000;stroke-width:1.5;stroke-linecap:butt;stroke-linejoin:miter;stroke-opacity:1;display:inline"
       d="m 202.66718,71.353958 -8.12376,14.860544 6.14235,12.482859 5.3498,1.386979"
       id="path5342"
       inkscape:connector-curvature="0" />
    <path
       style="fill:none;stroke:#000000;stroke-width:1.5;stroke-linecap:butt;stroke-linejoin:miter;stroke-opacity:1;display:inline"
       d="m 186.22151,73.929778 -5.15166,-3.368391 -3.56653,3.368391 8.32191,10.897736"
       id="path5344"
       inkscape:connector-curvature="0" />
    <path
       style="fill:none;stroke:#000000;stroke-width:1.5;display:inline"
       d="m 193.41856,42.417235 60.40515,43.616117 C 271.30567,98.656371 230.55033,149.61 215.48229,138.72997 L 155.07714,95.113867 C 136.02065,81.353939 172.77971,27.514759 193.41856,42.417235 z"
       id="rect5373"
       inkscape:connector-curvature="0" />
    <path
       inkscape:connector-curvature="0"
       style="fill:#550000;stroke:#000000;stroke-width:1.5;stroke-linecap:butt;stroke-linejoin:miter;stroke-opacity:1;display:inline"
       d="m 143.35177,173.25411 c 9.85582,27.46481 16.27798,59.47626 16.82086,93.01243 l -11.94596,29.1031 -6.98797,-26.31777 c 2.21744,-29.73097 1.96875,-62.78274 -4.56571,-95.16295 z"
       id="path6770-0-4-6-9-4-1"
       sodipodi:nodetypes="cccccc" />
    <path
       inkscape:connector-curvature="0"
       style="fill:#550000;stroke:#000000;stroke-width:1.5;stroke-linecap:butt;stroke-linejoin:miter;stroke-opacity:1;display:inline"
       d="m 142.47141,152.12091 -9.58581,1.33487 -4.08533,7.14831 c 2.12643,6.04108 5.43364,10.42728 8.27067,14.46064 3.03109,-1.49876 5.70464,-2.31676 6.76785,-0.50029 0.77513,-4.56601 2.70046,-11.63598 2.84814,-15.80306 z"
       id="path6768-9-1-6-6-0-9"
       sodipodi:nodetypes="ccccccc" />
    <path
       inkscape:connector-curvature="0"
       style="fill:none;stroke:#ff0000;stroke-width:1.5;stroke-linecap:butt;stroke-linejoin:miter;stroke-opacity:1;display:inline"
       d="m 150.6204,169.97822 15.31055,11.35844 c -0.85004,18.38554 -1.47194,62.52495 -11.06517,89.03183"
       id="path6766-7-0-8-5-2-2"
       sodipodi:nodetypes="ccc" />
    <path
       inkscape:connector-curvature="0"
       style="fill:none;stroke:#ff0000;stroke-width:1.5;stroke-linecap:butt;stroke-linejoin:miter;stroke-opacity:1;display:inline"
       d="M 103.26811,180.09696 C 98.3725,177.91903 92.05058,177.72692 88.633164,177.21312 84.242672,154.5295 71.9039,136.65963 67.387803,136.06259 c 0.340707,-2.63532 3.275263,-6.44164 4.166267,-8.96521 1.897999,-5.37568 17.739585,-8.48539 29.66993,-8.55836 9.83076,-0.0601 30.08164,5.2429 34.89911,8.74842 3.40134,2.47507 2.95507,3.43993 5.40318,6.40075 2.24834,2.7192 17.19696,25.28856 22.09781,33.92787 l -4.62512,7.55017 M 72.066479,127.60975 c 0.655058,2.24934 6.480485,6.12859 11.879802,11.74365 15.391469,16.00651 32.104989,33.29783 41.565799,50.97345 10.91185,20.38662 16.80343,38.63222 31.66803,80.0502 1.20482,3.03928 -18.85835,97.75263 -20.57228,104.4422 -2.02681,7.91067 -6.53716,10.4003 -11.5686,12.7481 C 97.49846,400.41858 17.891581,365.07794 15.2544,349.23157 c -2.807013,-16.86638 2.666488,-71.81381 4.168944,-87.37835 1.14559,-11.86751 4.134982,-69.79055 5.364774,-79.28355 1.453997,-11.22429 6.054109,-26.21033 11.605376,-30.26304 7.801654,-5.69564 34.648168,-15.99614 47.415421,-20.75684 3.720564,-1.38733 27.766085,-1.84033 35.039105,-1.195 9.67035,0.85802 43.1328,7.59214 46.39084,8.91309 4.75093,1.92625 8.37434,8.09918 10.13873,11.01444 2.12512,3.5114 6.08216,48.84383 5.41109,65.23592 -0.65691,16.04768 -10.39691,43.49693 -14.24193,56.84194 -3.64903,12.66492 -8.22277,68.47883 -17.31481,101.57772 -3.18713,7.49178 -10.79967,12.33189 -14.13997,11.72214 -2.73344,-0.49898 -3.49002,-5.17807 -3.47563,-9.21205 0.0148,-4.11539 22.513,-101.09062 22.74774,-107.29637 0.91392,-24.16193 0.0397,-57.08098 -2.00593,-83.44022 -1.14593,-14.76621 -7.06791,-43.69918 -9.50658,-49.01391 -0.77041,-1.67903 -4.11117,-5.84123 -6.50333,-8.08513 -4.66064,-4.37177 -26.59024,-9.60267 -34.98879,-9.46354 -6.77366,0.11221 -30.823052,3.20704 -29.292971,8.46093 z"
       id="path6659-6-6-1-3-4-8"
       sodipodi:nodetypes="cccssssccssscsssssssssssscssssssss" />
    <path
       inkscape:connector-curvature="0"
       style="fill:none;stroke:#ff0000;stroke-width:1.5;stroke-linecap:butt;stroke-linejoin:miter;stroke-opacity:1;display:inline"
       d="M 110.34358,171.35339 93.3873,189.80741 c 13.90555,12.84451 50.31435,61.31652 61.08096,81.03891"
       id="path6655-8-1-5-2-5-6"
       sodipodi:nodetypes="ccc" />
    <g
       id="g6336"
       transform="matrix(0.56889907,0,0,0.56889907,457.44208,428.00991)"
       style="stroke-width:2.63667154;display:inline">
      <path
         inkscape:connector-curvature="0"
         id="path3520-6"
         d="m -574.21902,-528.73826 c 18.94454,-1.25821 31.72346,-3.21172 41.70157,-4.68834 7.58767,-1.12286 26.5165,-5.49077 28.87031,-10.11695 5.1216,-10.06597 -0.68961,-28.3503 -0.24676,-43.42884 0.38738,-13.1897 -4.17535,-31.83506 -8.63642,-45.8964 -4.05461,-12.78018 -13.79886,-20.75839 -17.76634,-30.5976 -4.06505,-10.08116 -1.53926,-15.20019 -4.44159,-20.7274 -10.25351,-19.52679 -28.9408,-31.59639 -50.83149,-39.97429 -45.10116,-14.5172 -74.80053,-6.57524 -99.68895,9.8702 -38.981,25.75735 -42.87487,92.41834 -28.13004,125.35144 7.40264,16.53408 30.54068,37.56681 37.50673,49.84448 3.2965,5.81009 1.97403,23.68846 1.97403,23.68846"
         style="fill:none;stroke:#000000;stroke-width:2.63667154;stroke-linecap:butt;stroke-linejoin:miter;stroke-opacity:1;display:inline" />
      <path
         inkscape:connector-curvature="0"
         id="path5636-5"
         d="m -553.85957,-674.97216 c -0.56483,3.43294 -0.41442,8.55222 0.76364,13.41334 1.30834,5.39923 13.30436,13.4768 17.3043,17.3826"
         style="fill:none;stroke:#000000;stroke-width:2.63667154;stroke-linecap:butt;stroke-linejoin:miter;stroke-opacity:1;display:inline" />
      <path
         inkscape:connector-curvature="0"
         id="path6629-0-6-3-5-0-8-0"
         d="m -526.43504,-636.51375 c 1.65079,3.41279 4.00301,10.34679 3.18116,16.09756"
         style="fill:none;stroke:#000000;stroke-width:2.63667154;stroke-linecap:butt;stroke-linejoin:miter;stroke-opacity:1;display:inline" />
      <path
         inkscape:connector-curvature="0"
         id="path3540-9"
         d="m -528.56938,-631.38826 c -1.21849,7.28982 -1.2393,10.21025 -1.23377,15.05204"
         style="fill:none;stroke:#000000;stroke-width:2.63667154;stroke-linecap:butt;stroke-linejoin:miter;stroke-opacity:1;display:inline" />
      <path
         inkscape:connector-curvature="0"
         id="path3542-0"
         d="m -540.37248,-614.54018 c 0.79692,-4.57736 2.8614,-9.37539 5.40894,-13.60959"
         style="fill:none;stroke:#000000;stroke-width:2.63667154;stroke-linecap:butt;stroke-linejoin:miter;stroke-opacity:1;display:inline" />
      <path
         inkscape:connector-curvature="0"
         id="path3544-0"
         d="m -602.84258,-638.2974 c 9.25649,-5.98221 17.67186,-13.00999 29.11707,-17.27284 1.97398,-0.73522 3.98233,1.03164 5.42861,3.45457"
         style="fill:none;stroke:#000000;stroke-width:2.63667154;stroke-linecap:butt;stroke-linejoin:miter;stroke-opacity:1;display:inline" />
      <path
         inkscape:connector-curvature="0"
         id="path3548-6"
         d="m -548.43314,-660.38196 c 0.75619,-1.01266 1.74891,-2.87068 3.57795,-3.33118 4.40006,-1.10782 8.56598,0.48319 12.83125,2.09741"
         style="fill:none;stroke:#000000;stroke-width:2.63667154;stroke-linecap:butt;stroke-linejoin:miter;stroke-opacity:1;display:inline" />
      <path
         inkscape:connector-curvature="0"
         id="path6645-7-0-4-0-3-8-1"
         d="m -570.68859,-668.81229 c -10.75266,3.62891 -17.20392,0.28263 -25.54776,2.11717 -9.10118,2.00106 -28.44672,14.20094 -26.45374,11.56265 4.11066,-5.44167 15.11415,-11.513 21.74333,-13.71693 3.25857,-1.08334 15.57955,-4.6928 22.09733,-4.34619 7.44031,0.39566 18.46574,0.90551 8.16084,4.3833 z"
         style="fill:#000000;stroke:none;display:inline" />
      <path
         inkscape:connector-curvature="0"
         id="path6647-1-6-2-0-5-2-3"
         d="m -534.17922,-682.04265 c -1.01368,-0.56946 -6.45202,-0.70876 -10.14913,0.48542 -5.44655,1.75925 -10.99819,7.90324 -8.50003,7.92395 7.0236,0.0582 4.84091,-2.9575 10.31214,-6.23535 3.86179,-2.31363 10.4476,-0.98834 8.33702,-2.17402 z"
         style="fill:#000000;stroke:none;display:inline" />
      <path
         inkscape:connector-curvature="0"
         id="path5209-8"
         d="m -537.2432,-532.77379 c -13.27061,10.25958 -20.40169,28.29711 -23.44967,39.85421"
         style="fill:none;stroke:#000000;stroke-width:2.63667154;stroke-linecap:butt;stroke-linejoin:miter;stroke-opacity:1;display:inline" />
      <path
         inkscape:connector-curvature="0"
         id="path6633-4-0-6-4-8-5-9"
         d="m -522.0785,-616.98804 c -2.02909,-0.67271 -1.21606,3.66441 -5.59,5.31823 -5.92411,2.23981 -10.46853,-1.3413 -12.27133,0.13569 -7.60807,6.23452 -21.04975,20.43007 -21.61505,25.27312 -0.5711,4.89252 4.45376,12.02623 6.88825,10.47143 10.81877,-6.90958 20.34967,-17.90804 31.26996,-21.58431 12.11831,-4.07958 15.86626,-1.51203 21.14183,-2.43258 1.28688,-0.22455 1.80146,-8.8164 -0.96282,-10.25893 -2.98736,-3.44165 -15.77341,-5.89897 -18.86084,-6.92265 z"
         style="fill:#000000;stroke:none;display:inline" />
      <path
         inkscape:connector-curvature="0"
         id="path5334-3"
         d="m -361.1837,-484.88421 -19.50412,-68.96099"
         style="fill:none;stroke:#000000;stroke-width:2.63667154;stroke-linecap:butt;stroke-linejoin:miter;stroke-opacity:1;display:inline" />
      <path
         inkscape:connector-curvature="0"
         id="path5336-4"
         d="m -381.73268,-550.01403 -9.75206,-55.72606 -12.88665,-12.19007 -13.23494,-9.75206 -16.02124,-6.61747 -14.97638,-8.01062 -26.46987,14.2798 -1.58957,27.47833 12.78801,19.22959 9.00226,-1.08221"
         style="fill:none;stroke:#000000;stroke-width:2.63667154;stroke-linecap:butt;stroke-linejoin:miter;stroke-opacity:1;display:inline" />
      <path
         inkscape:connector-curvature="0"
         id="path5338-4"
         d="m -420.74092,-609.22296 c -7.42939,8.15593 -16.2533,20.14567 -15.67295,26.12158 0.26884,2.76829 5.49977,6.10641 7.31404,6.96576 5.70074,2.70023 13.63426,5.17348 17.06611,5.22432 2.64357,0.0392 5.81642,-4.83057 7.57782,-8.09513 1.59128,-2.94927 -1.08282,-7.74501 -2.29375,-10.22711"
         style="fill:none;stroke:#000000;stroke-width:2.63667154;stroke-linecap:butt;stroke-linejoin:miter;stroke-opacity:1;display:inline" />
      <path
         inkscape:connector-curvature="0"
         id="path5340-6"
         d="m -432.90624,-619.73861 c -4.67544,7.47283 -14.08273,18.96257 -17.09086,28.80076 -2.2804,7.45813 2.88645,8.82332 7.02551,11.69752 5.39914,3.74921 13.6892,7.32351 17.25882,7.27179 1.59299,-0.0231 3.22704,-0.43966 4.36235,-1.11956"
         style="fill:none;stroke:#000000;stroke-width:2.63667154;stroke-linecap:butt;stroke-linejoin:miter;stroke-opacity:1;display:inline" />
      <path
         inkscape:connector-curvature="0"
         id="path5342-0"
         d="m -447.90737,-626.98564 -14.2798,26.12158 10.79692,21.94214 9.40377,2.43801"
         style="fill:none;stroke:#000000;stroke-width:2.63667154;stroke-linecap:butt;stroke-linejoin:miter;stroke-opacity:1;display:inline" />
      <path
         inkscape:connector-curvature="0"
         id="path5344-6"
         d="m -476.81526,-622.4579 -9.05548,-5.92089 -6.26918,5.92089 14.62809,19.15583"
         style="fill:none;stroke:#000000;stroke-width:2.63667154;stroke-linecap:butt;stroke-linejoin:miter;stroke-opacity:1;display:inline" />
      <path
         inkscape:connector-curvature="0"
         id="rect5373-6"
         d="m -464.16442,-677.85006 106.17902,76.66759 c 30.72946,22.1885 -40.9095,111.75383 -67.39581,92.62913 l -106.17902,-76.66758 c -33.49714,-24.18693 31.11724,-118.82443 67.39581,-92.62914 z"
         style="fill:none;stroke:#000000;stroke-width:2.63667154;display:inline" />
    </g>
    <path
       style="fill:none;stroke:#0000ff;stroke-width:1.5;stroke-linecap:butt;stroke-linejoin:miter;stroke-opacity:1;display:inline"
       d="m 137.4295,151.12964 c -17.56409,-4.12565 -68.584314,-22.86034 -64.750526,-25.95279 4.1096,-3.31493 12.555783,-5.60555 28.019456,-5.46927 12.64323,0.11144 28.16915,4.42136 33.20411,6.39149 5.10289,1.99674 12.09679,12.43326 5.31939,24.70395 5.91044,0.27752 9.40007,18.46762 11.72705,26.67631 -1.33994,-9.63668 -9.32914,-38.07845 -13.62948,-43.24069 -5.00435,-6.00732 -61.00449,-8.01242 -65.756641,-0.15428 -1.6734,2.76712 37.328281,36.1245 51.077221,47.80188 3.00927,-8.59893 7.9829,-29.03691 14.78942,-30.7566 z"
       id="path6369"
       inkscape:connector-curvature="0"
       sodipodi:nodetypes="csssccsscc" />
  </g>
  <g
     inkscape:groupmode="layer"
     id="layer7"
     inkscape:label="枠面"
     style="display:inline"
     sodipodi:insensitive="true">
    <path
       style="fill:#d40000;stroke:none;display:inline"
       d="m 0,0 0,320 370,0 0,-320 -10,10 0,300 -350,0 0,-300 350,0 10,-10 z"
       id="path21072"
       inkscape:connector-curvature="0"
       sodipodi:nodetypes="ccccccccccc" />
  </g>
</svg>
