<?xml version="1.0" encoding="UTF-8" standalone="no"?>
<!-- Created with Inkscape (http://www.inkscape.org/) -->

<svg
   xmlns:dc="http://purl.org/dc/elements/1.1/"
   xmlns:cc="http://creativecommons.org/ns#"
   xmlns:rdf="http://www.w3.org/1999/02/22-rdf-syntax-ns#"
   xmlns:svg="http://www.w3.org/2000/svg"
   xmlns="http://www.w3.org/2000/svg"
   xmlns:sodipodi="http://sodipodi.sourceforge.net/DTD/sodipodi-0.dtd"
   xmlns:inkscape="http://www.inkscape.org/namespaces/inkscape"
   width="370"
   height="320"
   id="svg2"
   version="1.1"
   inkscape:version="0.48.4 r9939"
   sodipodi:docname="[14.飲酒].svg"
   inkscape:export-filename="C:\Users\root\Desktop\資料\作業\SANARO\ORG\[01.行動]03..png"
   inkscape:export-xdpi="90"
   inkscape:export-ydpi="90"
   enable-background="new">
  <defs
     id="defs4">
    <inkscape:perspective
       sodipodi:type="inkscape:persp3d"
       inkscape:vp_x="363.49708 : 943.81603 : 1"
       inkscape:vp_y="0 : 1000 : 0"
       inkscape:vp_z="744.09448 : 526.18109 : 1"
       inkscape:persp3d-origin="372.04724 : 350.78739 : 1"
       id="perspective5056" />
    <inkscape:perspective
       id="perspective5056-8"
       inkscape:persp3d-origin="372.04724 : 350.78739 : 1"
       inkscape:vp_z="744.09448 : 526.18109 : 1"
       inkscape:vp_y="0 : 1000 : 0"
       inkscape:vp_x="363.49708 : 943.81603 : 1"
       sodipodi:type="inkscape:persp3d" />
    <inkscape:perspective
       id="perspective5056-5"
       inkscape:persp3d-origin="372.04724 : 350.78739 : 1"
       inkscape:vp_z="744.09448 : 526.18109 : 1"
       inkscape:vp_y="0 : 1000 : 0"
       inkscape:vp_x="363.49708 : 943.81603 : 1"
       sodipodi:type="inkscape:persp3d" />
    <inkscape:perspective
       sodipodi:type="inkscape:persp3d"
       inkscape:vp_x="363.49708 : 943.81603 : 1"
       inkscape:vp_y="0 : 1000 : 0"
       inkscape:vp_z="744.09448 : 526.18109 : 1"
       inkscape:persp3d-origin="372.04724 : 350.78739 : 1"
       id="perspective5056-5-2" />
    <inkscape:perspective
       sodipodi:type="inkscape:persp3d"
       inkscape:vp_x="363.49708 : 943.81603 : 1"
       inkscape:vp_y="0 : 1000 : 0"
       inkscape:vp_z="744.09448 : 526.18109 : 1"
       inkscape:persp3d-origin="372.04724 : 350.78739 : 1"
       id="perspective5056-8-5" />
    <inkscape:perspective
       id="perspective5056-1"
       inkscape:persp3d-origin="372.04724 : 350.78739 : 1"
       inkscape:vp_z="744.09448 : 526.18109 : 1"
       inkscape:vp_y="0 : 1000 : 0"
       inkscape:vp_x="363.49708 : 943.81603 : 1"
       sodipodi:type="inkscape:persp3d" />
    <inkscape:perspective
       sodipodi:type="inkscape:persp3d"
       inkscape:vp_x="363.49708 : 943.81603 : 1"
       inkscape:vp_y="0 : 1000 : 0"
       inkscape:vp_z="744.09448 : 526.18109 : 1"
       inkscape:persp3d-origin="372.04724 : 350.78739 : 1"
       id="perspective5056-5-5" />
    <inkscape:perspective
       id="perspective5056-4"
       inkscape:persp3d-origin="372.04724 : 350.78739 : 1"
       inkscape:vp_z="744.09448 : 526.18109 : 1"
       inkscape:vp_y="0 : 1000 : 0"
       inkscape:vp_x="363.49708 : 943.81603 : 1"
       sodipodi:type="inkscape:persp3d" />
    <inkscape:perspective
       sodipodi:type="inkscape:persp3d"
       inkscape:vp_x="363.49708 : 943.81603 : 1"
       inkscape:vp_y="0 : 1000 : 0"
       inkscape:vp_z="744.09448 : 526.18109 : 1"
       inkscape:persp3d-origin="372.04724 : 350.78739 : 1"
       id="perspective5056-1-2" />
    <inkscape:perspective
       id="perspective5056-8-5-8"
       inkscape:persp3d-origin="372.04724 : 350.78739 : 1"
       inkscape:vp_z="744.09448 : 526.18109 : 1"
       inkscape:vp_y="0 : 1000 : 0"
       inkscape:vp_x="363.49708 : 943.81603 : 1"
       sodipodi:type="inkscape:persp3d" />
    <inkscape:perspective
       id="perspective5056-5-2-8"
       inkscape:persp3d-origin="372.04724 : 350.78739 : 1"
       inkscape:vp_z="744.09448 : 526.18109 : 1"
       inkscape:vp_y="0 : 1000 : 0"
       inkscape:vp_x="363.49708 : 943.81603 : 1"
       sodipodi:type="inkscape:persp3d" />
    <inkscape:perspective
       sodipodi:type="inkscape:persp3d"
       inkscape:vp_x="363.49708 : 943.81603 : 1"
       inkscape:vp_y="0 : 1000 : 0"
       inkscape:vp_z="744.09448 : 526.18109 : 1"
       inkscape:persp3d-origin="372.04724 : 350.78739 : 1"
       id="perspective5056-5-4" />
    <inkscape:perspective
       sodipodi:type="inkscape:persp3d"
       inkscape:vp_x="363.49708 : 943.81603 : 1"
       inkscape:vp_y="0 : 1000 : 0"
       inkscape:vp_z="744.09448 : 526.18109 : 1"
       inkscape:persp3d-origin="372.04724 : 350.78739 : 1"
       id="perspective5056-8-9" />
    <inkscape:perspective
       id="perspective5056-40"
       inkscape:persp3d-origin="372.04724 : 350.78739 : 1"
       inkscape:vp_z="744.09448 : 526.18109 : 1"
       inkscape:vp_y="0 : 1000 : 0"
       inkscape:vp_x="363.49708 : 943.81603 : 1"
       sodipodi:type="inkscape:persp3d" />
    <inkscape:perspective
       sodipodi:type="inkscape:persp3d"
       inkscape:vp_x="363.49708 : 943.81603 : 1"
       inkscape:vp_y="0 : 1000 : 0"
       inkscape:vp_z="744.09448 : 526.18109 : 1"
       inkscape:persp3d-origin="372.04724 : 350.78739 : 1"
       id="perspective5056-1-5" />
    <inkscape:perspective
       id="perspective5056-8-5-4"
       inkscape:persp3d-origin="372.04724 : 350.78739 : 1"
       inkscape:vp_z="744.09448 : 526.18109 : 1"
       inkscape:vp_y="0 : 1000 : 0"
       inkscape:vp_x="363.49708 : 943.81603 : 1"
       sodipodi:type="inkscape:persp3d" />
    <inkscape:perspective
       id="perspective5056-5-2-82"
       inkscape:persp3d-origin="372.04724 : 350.78739 : 1"
       inkscape:vp_z="744.09448 : 526.18109 : 1"
       inkscape:vp_y="0 : 1000 : 0"
       inkscape:vp_x="363.49708 : 943.81603 : 1"
       sodipodi:type="inkscape:persp3d" />
    <inkscape:perspective
       sodipodi:type="inkscape:persp3d"
       inkscape:vp_x="363.49708 : 943.81603 : 1"
       inkscape:vp_y="0 : 1000 : 0"
       inkscape:vp_z="744.09448 : 526.18109 : 1"
       inkscape:persp3d-origin="372.04724 : 350.78739 : 1"
       id="perspective5056-5-8" />
    <inkscape:perspective
       sodipodi:type="inkscape:persp3d"
       inkscape:vp_x="363.49708 : 943.81603 : 1"
       inkscape:vp_y="0 : 1000 : 0"
       inkscape:vp_z="744.09448 : 526.18109 : 1"
       inkscape:persp3d-origin="372.04724 : 350.78739 : 1"
       id="perspective5056-8-4" />
    <inkscape:perspective
       id="perspective5056-409"
       inkscape:persp3d-origin="372.04724 : 350.78739 : 1"
       inkscape:vp_z="744.09448 : 526.18109 : 1"
       inkscape:vp_y="0 : 1000 : 0"
       inkscape:vp_x="363.49708 : 943.81603 : 1"
       sodipodi:type="inkscape:persp3d" />
    <inkscape:perspective
       sodipodi:type="inkscape:persp3d"
       inkscape:vp_x="363.49708 : 943.81603 : 1"
       inkscape:vp_y="0 : 1000 : 0"
       inkscape:vp_z="744.09448 : 526.18109 : 1"
       inkscape:persp3d-origin="372.04724 : 350.78739 : 1"
       id="perspective5056-1-7" />
    <inkscape:perspective
       id="perspective5056-8-5-2"
       inkscape:persp3d-origin="372.04724 : 350.78739 : 1"
       inkscape:vp_z="744.09448 : 526.18109 : 1"
       inkscape:vp_y="0 : 1000 : 0"
       inkscape:vp_x="363.49708 : 943.81603 : 1"
       sodipodi:type="inkscape:persp3d" />
    <inkscape:perspective
       id="perspective5056-5-2-89"
       inkscape:persp3d-origin="372.04724 : 350.78739 : 1"
       inkscape:vp_z="744.09448 : 526.18109 : 1"
       inkscape:vp_y="0 : 1000 : 0"
       inkscape:vp_x="363.49708 : 943.81603 : 1"
       sodipodi:type="inkscape:persp3d" />
    <inkscape:perspective
       sodipodi:type="inkscape:persp3d"
       inkscape:vp_x="363.49708 : 943.81603 : 1"
       inkscape:vp_y="0 : 1000 : 0"
       inkscape:vp_z="744.09448 : 526.18109 : 1"
       inkscape:persp3d-origin="372.04724 : 350.78739 : 1"
       id="perspective5056-5-1" />
    <inkscape:perspective
       sodipodi:type="inkscape:persp3d"
       inkscape:vp_x="363.49708 : 943.81603 : 1"
       inkscape:vp_y="0 : 1000 : 0"
       inkscape:vp_z="744.09448 : 526.18109 : 1"
       inkscape:persp3d-origin="372.04724 : 350.78739 : 1"
       id="perspective5056-8-6" />
    <inkscape:perspective
       id="perspective5056-7"
       inkscape:persp3d-origin="372.04724 : 350.78739 : 1"
       inkscape:vp_z="744.09448 : 526.18109 : 1"
       inkscape:vp_y="0 : 1000 : 0"
       inkscape:vp_x="363.49708 : 943.81603 : 1"
       sodipodi:type="inkscape:persp3d" />
    <inkscape:perspective
       sodipodi:type="inkscape:persp3d"
       inkscape:vp_x="363.49708 : 943.81603 : 1"
       inkscape:vp_y="0 : 1000 : 0"
       inkscape:vp_z="744.09448 : 526.18109 : 1"
       inkscape:persp3d-origin="372.04724 : 350.78739 : 1"
       id="perspective5056-1-1" />
    <inkscape:perspective
       id="perspective5056-8-5-82"
       inkscape:persp3d-origin="372.04724 : 350.78739 : 1"
       inkscape:vp_z="744.09448 : 526.18109 : 1"
       inkscape:vp_y="0 : 1000 : 0"
       inkscape:vp_x="363.49708 : 943.81603 : 1"
       sodipodi:type="inkscape:persp3d" />
    <inkscape:perspective
       id="perspective5056-5-2-1"
       inkscape:persp3d-origin="372.04724 : 350.78739 : 1"
       inkscape:vp_z="744.09448 : 526.18109 : 1"
       inkscape:vp_y="0 : 1000 : 0"
       inkscape:vp_x="363.49708 : 943.81603 : 1"
       sodipodi:type="inkscape:persp3d" />
    <inkscape:perspective
       sodipodi:type="inkscape:persp3d"
       inkscape:vp_x="363.49708 : 943.81603 : 1"
       inkscape:vp_y="0 : 1000 : 0"
       inkscape:vp_z="744.09448 : 526.18109 : 1"
       inkscape:persp3d-origin="372.04724 : 350.78739 : 1"
       id="perspective5056-5-46" />
    <inkscape:perspective
       sodipodi:type="inkscape:persp3d"
       inkscape:vp_x="363.49708 : 943.81603 : 1"
       inkscape:vp_y="0 : 1000 : 0"
       inkscape:vp_z="744.09448 : 526.18109 : 1"
       inkscape:persp3d-origin="372.04724 : 350.78739 : 1"
       id="perspective5056-8-92" />
    <inkscape:perspective
       id="perspective5056-3"
       inkscape:persp3d-origin="372.04724 : 350.78739 : 1"
       inkscape:vp_z="744.09448 : 526.18109 : 1"
       inkscape:vp_y="0 : 1000 : 0"
       inkscape:vp_x="363.49708 : 943.81603 : 1"
       sodipodi:type="inkscape:persp3d" />
  </defs>
  <sodipodi:namedview
     id="base"
     pagecolor="#ffffff"
     bordercolor="#666666"
     borderopacity="1.0"
     inkscape:pageopacity="0.0"
     inkscape:pageshadow="2"
     inkscape:zoom="0.80901904"
     inkscape:cx="306.24964"
     inkscape:cy="83.725186"
     inkscape:document-units="px"
     inkscape:current-layer="layer8"
     showgrid="false"
     inkscape:window-width="1139"
     inkscape:window-height="693"
     inkscape:window-x="75"
     inkscape:window-y="-2"
     inkscape:window-maximized="0"
     showguides="true"
     inkscape:guide-bbox="true"
     inkscape:snap-grids="false"
     inkscape:snap-to-guides="false"
     showborder="true"
     inkscape:showpageshadow="false"
     fit-margin-top="0"
     fit-margin-left="0"
     fit-margin-right="0"
     fit-margin-bottom="0"
     inkscape:snap-page="false" />
  <metadata
     id="metadata7">
    <rdf:RDF>
      <cc:Work
         rdf:about="">
        <dc:format>image/svg+xml</dc:format>
        <dc:type
           rdf:resource="http://purl.org/dc/dcmitype/StillImage" />
        <dc:title></dc:title>
      </cc:Work>
    </rdf:RDF>
  </metadata>
  <g
     inkscape:groupmode="layer"
     id="layer2"
     inkscape:label="補助線"
     style="display:none"
     sodipodi:insensitive="true">
    <path
       style="fill:none;stroke:#0000ff;stroke-width:1px;stroke-linecap:butt;stroke-linejoin:miter;stroke-opacity:1"
       d="M 10,310 360,10"
       id="path3025"
       inkscape:connector-curvature="0"
       sodipodi:nodetypes="cc" />
    <path
       style="fill:none;stroke:#0000ff;stroke-width:1px;stroke-linecap:butt;stroke-linejoin:miter;stroke-opacity:1"
       d="M 10,10 360,310"
       id="path3027"
       inkscape:connector-curvature="0"
       sodipodi:nodetypes="cc" />
    <path
       style="fill:none;stroke:#ff0000;stroke-width:1px;stroke-linecap:butt;stroke-linejoin:miter;stroke-opacity:1;display:inline"
       d="m 10,0 0,320"
       id="path3006"
       inkscape:connector-curvature="0"
       sodipodi:nodetypes="cc" />
    <path
       style="fill:none;stroke:#ff0000;stroke-width:1px;stroke-linecap:butt;stroke-linejoin:miter;stroke-opacity:1;display:inline"
       d="m 360,0 0,320"
       id="path3010"
       inkscape:connector-curvature="0"
       sodipodi:nodetypes="cc" />
    <path
       style="fill:none;stroke:#ff0000;stroke-width:1px;stroke-linecap:butt;stroke-linejoin:miter;stroke-opacity:1;display:inline"
       d="M 0,9.9999681 370,10"
       id="path3016"
       inkscape:connector-curvature="0" />
    <path
       transform="translate(84.715796,27.711696)"
       style="fill:none;stroke:#ff0000;stroke-width:1px;stroke-linecap:butt;stroke-linejoin:miter;stroke-opacity:1;display:inline"
       d="m -84.715796,282.2883 369.999996,0"
       id="path3018"
       inkscape:connector-curvature="0"
       sodipodi:nodetypes="cc" />
  </g>
  <g
     inkscape:groupmode="layer"
     id="layer8"
     inkscape:label="原型"
     style="display:inline">
    <g
       transform="matrix(-0.4334969,-0.12764519,-0.12764519,0.4334969,897.16702,-37.523416)"
       id="g11368-1-1"
       style="stroke-width:3.31932455;display:inline">
      <path
         style="fill:#e9c6af;stroke:none;display:inline;stroke-width:3.31932455"
         d="m 1485.8243,941.0336 c 3.5799,-13.7496 11.241,-37.0014 -8.3766,-55.0865 -8.8627,-0.73706 -23.862,-1.19074 -27.3959,-12.98104 -3.6768,-12.267 -6.6162,-22.96405 -9.6716,-35.80725 -2.7745,-11.6622 -14.6406,-56.8022 -12.8845,-74.3354 0.6646,-6.636 4.0719,-30.119 4.7985,-40.2783 0.4947,-6.917 -1.7411,-20.9888 -1.6615,-27.1102 0.1172,-9.0212 4.6904,-17.5879 7.8723,-25.20965 5.5165,-13.21364 17.0022,-36.10278 22.0646,-45.65079 12.4581,-23.49661 46.1328,-35.78953 73.0429,-43.59188 38.2478,-11.0896 105.7151,11.70135 129.469,51.35466 20.9315,34.94172 24.3968,103.72297 18.7101,130.88287 -4.4143,21.0832 -19.3693,39.83878 -27.0622,50.63138 -5.2266,7.3328 -11.6374,13.59058 -14.5961,24.60388 -2.839,10.56795 0.122,51.10718 2.0175,68.12518"
         id="path6570-7-8-7"
         inkscape:connector-curvature="0"
         sodipodi:nodetypes="ccssssssssssssc" />
      <path
         style="fill:#deaa87;stroke:none;stroke-width:3.31932455"
         d="m 1503.1794,789.5296 c -2.59,0.21029 -6.4218,0.89816 -9.7017,-0.17306 -6.107,-1.99456 -8.4925,-6.0278 -14.0393,-8.18409 -3.5259,-1.3707 -6.9384,-2.78454 -9.0871,-3.3574 -3.5987,-0.95945 -6.0883,-5.0888 -11.1865,-5.71604 -4.6635,-0.57375 -7.6455,0.20642 -8.4892,4.36207 -1.7431,8.58603 -1.1386,5.30362 1.1477,11.25776 l 5.1465,13.40304 c 0.6769,-4.20253 2.1429,-11.49573 4.1242,-11.92454 1.456,-0.31511 5.4013,-1.05759 6.9866,0.16503 1.2366,0.9537 4.1007,4.85012 6.8442,10.37959 -5.3128,-24.37294 21.1921,3.71476 28.2546,-10.21236 z"
         id="path3561-4-4"
         inkscape:connector-curvature="0"
         sodipodi:nodetypes="csssssscsscc" />
      <path
         style="fill:#deaa87;stroke:none;display:inline;stroke-width:3.31932455"
         d="m 1470.7232,726.86037 c 2.4084,-4.13835 -1.6023,-19.11986 -4.9834,-22.84712 -1.2455,-1.37311 -8.1502,-3.97701 -9.6308,-6.31992 0.018,3.31593 8.3039,18.52785 3.7266,17.69491 l -24.9533,9.78313 c -0.601,1.0105 0.8412,2.89242 -1.0466,2.28227 0.6606,1.75916 3.5181,11.50145 9.2282,12.44979 8.629,1.43312 20.5589,-6.86245 24.4088,-13.8085 3.3643,2.93133 -6.2102,16.81989 -8.3522,27.57273 3.0486,-5.40861 9.6011,-23.36799 11.6027,-26.80729 z"
         id="path5573-3-9-8-0"
         inkscape:connector-curvature="0"
         sodipodi:nodetypes="ssccccsccs" />
      <path
         style="fill:#fefefe;fill-opacity:1;stroke:none;display:inline;stroke-width:3.31932455"
         d="m 1457.6122,715.76834 c 2.8251,1.93557 5.9366,3.67315 9.2549,9.50678 -2.5226,1.2633 -3.7609,4.16472 -6.3821,5.01852 -2.1672,0.70594 -12.6287,1.74382 -15.8955,1.21413 -3.6075,-0.58495 -5.7998,-2.95476 -9.3797,-6.28685 1.2089,-3.6083 4.0059,-7.68391 5.2335,-8.01436 3.3596,-0.90428 14.2192,-3.45911 17.1689,-1.43822 z"
         id="path3337-0-4-0-1-8-6-9"
         inkscape:connector-curvature="0"
         sodipodi:nodetypes="scsscss" />
      <path
         style="fill:#deaa87;stroke:none;display:inline;stroke-width:3.31932455"
         d="m 1464.1357,883.84131 c 16.2531,4.47963 37.9258,0.23498 51.5546,-2.71223 26.3764,-5.70389 76.4849,-22.29607 86.8812,-29.67321 3.4072,-2.41774 4.5811,-7.40716 7.8632,-11.34811 0.045,18.32453 3.1349,50.12456 2.808,72.60399 l 31.9281,-6.5248 c -0.8608,-12.09136 -10.41,-54.50468 -5.1578,-67.3876 2.2373,-5.48793 4.0649,-8.42831 14.5258,-24.81557 9.6545,-15.12407 22.3901,-28.02251 27.2985,-50.83704 8.7052,-40.46259 -0.1488,-105.84194 -18.6287,-130.47663 -12.7731,-17.02725 -43.5002,-44.48643 -74.1811,-50.41029 16.0603,25.44695 5.567,68.46335 -9.7871,93.85176 -7.6635,12.67169 -31.4817,13.33458 -34.0216,16.63489 3.5151,5.69393 6.8777,11.2149 2.9759,19.10072 -3.3843,6.84007 -10.905,5.31835 -14.5457,6.95034 l -26.6622,-1.34958 c -2.2027,-7.39693 0,-13.831 7.7406,-22.72036 -11.6105,3.69255 -20.498,5.5009 -26.5535,8.17752 -1.9863,0.87796 -3.8378,3.46409 -3.2897,6.71509 1.1083,6.57438 5.3772,12.14443 8.5409,16.38204 4.9181,6.58763 6.8927,15.42367 18.4498,21.14548 5.3803,2.66374 24.2683,-10.80092 28.0225,-10.78184 5.6448,0.0286 7.592,7.44269 9.9333,14.1808 2.863,8.2393 -8.2502,99.94237 -42.607,121.78914 -19.2609,12.24759 -31.6424,12.72472 -43.088,11.50549 z"
         id="path3438-5-86-7-3-4-0-4"
         inkscape:connector-curvature="0"
         sodipodi:nodetypes="csscccsssscscscccsssssssc" />
      <path
         style="fill:#fefefe;fill-opacity:1;stroke:none;display:inline;stroke-width:3.31932455"
         d="m 1504.9922,717.21286 c 6.3308,-3.37482 23.2597,0.11063 27.5136,1.28061 3.2949,0.90621 6.9737,2.94987 11.9431,6.12615 -6.4387,3.31495 -12.2659,5.91323 -15.3254,8.00688 -4.1042,2.80859 -13.938,1.58223 -16.8963,1.27853 -2.8027,-0.28778 -8.838,-7.30781 -11.7617,-9.71231 2.5466,-3.52411 2.2477,-5.76498 4.5267,-6.97986 z"
         id="path3353-4-1-2-2-4-9-8"
         inkscape:connector-curvature="0"
         sodipodi:nodetypes="sscsscs" />
      <path
         style="fill:#2b0000;stroke:none;display:inline;stroke-width:3.31932455"
         d="m 1515.606,728.89823 c 6.9985,0.56766 11.5687,-7.49067 12.2358,-12.11161 -6.3301,-1.43579 -14.9308,-1.77767 -20.8394,-0.12185 -0.4048,9.16562 5.0555,11.94567 8.6036,12.23346 z"
         id="path3357-1-2-4-7-5-3-8"
         inkscape:connector-curvature="0"
         sodipodi:nodetypes="sccs" />
      <path
         style="fill:#2b0000;stroke:none;display:inline;stroke-width:3.31932455"
         d="m 1440.5889,717.93125 c -0.2891,4.60472 1.3388,9.94174 6.1125,9.97021 5.6598,0.0338 7.8791,-6.92786 7.8541,-12.91413 -4.2824,-0.0562 -8.4453,1.03011 -13.9666,2.94392 z"
         id="path3357-0-8-6-7-0-2"
         inkscape:connector-curvature="0"
         sodipodi:nodetypes="cscc" />
      <path
         style="fill:none;stroke:#000000;stroke-width:3.31932455;stroke-linecap:butt;stroke-linejoin:miter;stroke-opacity:1;display:inline"
         d="m 1464.3652,697.88602 c 2.5293,9.43256 7.8358,22.78128 6.379,28.79258 -1.6179,6.67672 -15.2317,30.70187 -17.4318,33.70097 -1.2591,1.71628 -4.7859,6.78849 -5.483,11.03817 -0.7838,4.7782 1.5075,10.97678 4.0495,17.17279"
         id="path6629-0-6-3-5-0-4"
         inkscape:connector-curvature="0"
         sodipodi:nodetypes="csssc" />
      <path
         style="fill:#000000;stroke:none;display:inline;stroke-width:3.31932455"
         d="m 1453.9728,794.52095 c 1.9083,-1.16869 3.0661,2.85661 7.9249,3.42374 6.5809,0.76797 8.805,-4.83329 10.9986,-3.80871 9.2578,4.3253 34.683,16.49337 36.4224,21.16976 1.7573,4.72413 0.6202,15.87461 -2.2365,14.92825 -12.695,-4.20572 -33.2006,-12.38321 -42.5924,-13.46576 -13.2887,-1.53174 -16.3262,4.4242 -22.3426,3.09411 -1.3319,-0.29444 -4.9743,-11.44558 -2.5009,-13.56079 2.2211,-4.15798 11.4228,-10.00228 14.3265,-11.7806 z"
         id="path6633-4-0-6-4-8-55"
         inkscape:connector-curvature="0"
         sodipodi:nodetypes="ssssssscs" />
      <path
         style="fill:none;stroke:#000000;stroke-width:3.31932455;stroke-linecap:butt;stroke-linejoin:miter;stroke-opacity:1;display:inline"
         d="m 1618.952,819.8685 c -4.4359,13.01036 -11.2039,25.06065 -16.1745,31.55542 -4.2846,5.59841 -46.2238,19.56063 -77.4125,27.49282 m -21.1617,4.62514 c -28.8655,6.61355 -50.4892,1.28415 -54.0231,-10.50621 -3.6768,-12.26697 -6.6163,-22.96392 -9.6716,-35.80716 -2.7745,-11.66221 -14.6406,-56.80224 -12.8845,-74.33539 0.6646,-6.63601 4.0718,-30.11899 4.7985,-40.27834 0.4947,-6.91693 -1.7411,-20.98875 -1.6615,-27.11019 0.1172,-9.02118 4.6904,-17.58786 7.8723,-25.20962 5.5165,-13.21364 17.0022,-36.10278 22.0646,-45.65079 12.4581,-23.49661 45.9138,-36.41302 72.9645,-43.7132 39.2122,-10.58224 98.834,7.72853 129.5253,51.73576 26.817,38.45187 24.3881,103.32659 18.7015,130.48648 -4.4143,21.08317 -19.5154,39.97535 -27.2083,50.76801 -5.2266,7.33274 -12.0542,17.34361 -14.6593,24.8214 -3.6,10.33347 -10.0996,48.64977 -8.2041,65.66776"
         id="path6635-6-9-1-1-7-1"
         inkscape:connector-curvature="0"
         sodipodi:nodetypes="csccssssssssssssc" />
      <path
         style="fill:none;stroke:#000000;stroke-width:3.31932455;stroke-linecap:butt;stroke-linejoin:miter;stroke-opacity:1;display:inline"
         d="m 1484.449,697.58922 c -2.1314,4.70437 0.1,9.10552 0.8511,12.16697"
         id="path6643-0-0-5-2-6-7"
         inkscape:connector-curvature="0"
         sodipodi:nodetypes="cc" />
      <path
         style="fill:#000000;stroke:none;display:inline;stroke-width:3.31932455"
         d="m 1491.6541,705.19637 c 13.9616,1.42022 22.4443,-6.97049 36.3744,-7.81893 11.5021,-0.70055 33.5758,-0.61006 29.7591,-2.0766 -8.3821,-3.22078 -20.5315,-3.06198 -32.0936,-2.33659 -4.2381,0.26589 -12.3163,0.61747 -20.0794,2.82661 -8.8619,2.52181 -27.3407,8.04443 -13.9605,9.40551 z"
         id="path6645-7-0-4-0-3-1"
         inkscape:connector-curvature="0"
         sodipodi:nodetypes="ssssss" />
      <path
         style="fill:#000000;stroke:none;display:inline;stroke-width:3.31932455"
         d="m 1432.2605,692.43829 c 2.3331,-1.06338 9.6453,0.48127 15.3848,1.31354 7.0046,1.01572 19,7.7669 16.133,8.91773 -8.5445,3.42988 -12.2897,-3.36697 -19.8493,-5.61598 -7.5205,-2.23734 -14.742,-3.2144 -11.6685,-4.61529 z"
         id="path6647-1-6-2-0-5-1"
         inkscape:connector-curvature="0"
         sodipodi:nodetypes="sssss" />
      <path
         style="fill:none;stroke:#000000;stroke-width:3.31932455;stroke-linecap:butt;stroke-linejoin:miter;stroke-opacity:1;display:inline"
         d="m 1503.34,784.29021 c 0.7959,4.13987 -1.3596,8.28725 -4.8064,8.49266"
         id="path6649-7-1-0-1-6-5"
         inkscape:connector-curvature="0"
         sodipodi:nodetypes="cc" />
      <path
         style="fill:none;stroke:#916f6f;stroke-width:3.31932455;stroke-linecap:butt;stroke-linejoin:miter;stroke-opacity:1;display:inline"
         d="m 1500.7774,724.76994 c 2.9337,1.15289 6.1446,8.80704 11.1633,9.1718 5.3783,0.39088 12.8063,0.32724 16.9872,-1.33702 4.2707,-1.70005 11.3284,-5.37805 15.9382,-7.83014"
         id="path3339-7-3-9-4-5-2"
         inkscape:connector-curvature="0"
         sodipodi:nodetypes="cssc" />
      <path
         style="fill:none;stroke:#000000;stroke-width:3.31932455;stroke-linecap:butt;stroke-linejoin:miter;stroke-opacity:1;display:inline"
         d="m 1498.2171,726.86358 c 4.9543,-3.83259 3.2588,-9.29646 7.8303,-10.39427 5.4223,-1.30214 15.0955,-0.7296 22.9953,0.68076 6.9897,1.24789 15.6403,7.74228 20.9685,9.78742"
         id="path3337-7-8-7-6-8-7"
         inkscape:connector-curvature="0"
         sodipodi:nodetypes="cssc" />
      <path
         style="fill:none;stroke:#916f6f;stroke-width:3.31932455;stroke-linecap:butt;stroke-linejoin:miter;stroke-opacity:1;display:inline"
         d="m 1435.7446,725.51278 c 1.7715,2.6998 6.402,6.44105 8.9856,6.03953 3.9778,-0.61822 10.1075,-0.51148 15.4838,-1.32617 1.4901,-0.22581 5.3586,-4.6311 6.35,-5.58435"
         id="path3355-7-9-3-0-3-6"
         inkscape:connector-curvature="0"
         sodipodi:nodetypes="cssc" />
      <path
         style="fill:none;stroke:#000000;stroke-width:3.31932455;stroke-linecap:butt;stroke-linejoin:miter;stroke-opacity:1;display:inline"
         d="m 1433.5896,727.80285 c 2.3272,-3.48382 3.6884,-10.20298 7.7718,-10.80614 3.4442,-0.50906 12.588,-2.71741 16.6519,-1.0244 2.2744,0.94752 6.7116,5.75905 9.7531,10.47608"
         id="path3353-3-3-7-7-9-1"
         inkscape:connector-curvature="0"
         sodipodi:nodetypes="cssc" />
      <path
         style="opacity:0.94999999999999996;fill:#deaa87;stroke:#000000;stroke-width:3.31932455;stroke-linecap:butt;stroke-linejoin:miter;stroke-opacity:1;display:inline"
         d="m 1622.9287,814.39636 c 5.5993,-5.57586 21.0257,10.92322 29.1953,-3.02434 5.1844,-8.85114 14.237,-19.17407 20.017,-37.35225 5.7316,-18.02599 1.0359,-28.82426 -4.7078,-31.97767 -9.7607,-5.35871 -18.6726,-1.6441 -26.4785,2.8472"
         id="path6637-1-1-2-1-4-4"
         inkscape:connector-curvature="0"
         sodipodi:nodetypes="csssc" />
      <path
         style="opacity:0.94999999999999996;fill:none;stroke:#000000;stroke-width:3.31932455;stroke-linecap:butt;stroke-linejoin:miter;stroke-opacity:1;display:inline"
         d="m 1650.8763,792.17269 c -1.8736,-4.73301 -8.6049,-10.18981 -9.2021,-16.72437 -0.5659,-6.1918 -1.7763,-12.55549 0.6395,-16.36906 3.6543,-5.76853 13.22,-14.98791 18.7047,-13.53447 4.3983,1.16556 7.6053,5.85628 7.9021,12.42287 0.7275,16.09568 -10.9738,35.47431 -21.3332,35.29012 -5.8065,-0.10318 -15.4926,8.96612 -17.1536,5.39332 -1.6281,-3.50228 5.3044,-8.62677 6.4574,-11.59945 0.6947,-1.79102 -3.4773,-8.85308 -3.3183,-13.65696"
         id="path6639-8-8-6-7-8-2"
         inkscape:connector-curvature="0"
         sodipodi:nodetypes="csssssssc" />
      <path
         style="fill:none;stroke:#000000;stroke-width:3.31932455;stroke-linecap:butt;stroke-linejoin:miter;stroke-opacity:1"
         d="m 1477.0159,886.21456 c 14.8852,17.39657 7.5725,43.33694 3.9925,57.08655"
         id="path6570-3-3"
         inkscape:connector-curvature="0"
         sodipodi:nodetypes="cc" />
      <path
         style="fill:none;stroke:#000000;stroke-width:3.31932455;stroke-linecap:butt;stroke-linejoin:miter;stroke-opacity:1"
         d="m 1483.3704,787.99665 c -3.7088,-4.94551 -11.2037,-4.2509 -17.4602,-7.49796"
         id="path3823-9-2"
         inkscape:connector-curvature="0"
         sodipodi:nodetypes="cc" />
      <path
         style="fill:none;stroke:#000000;stroke-width:3.31932455;stroke-linecap:butt;stroke-linejoin:miter;stroke-opacity:1;display:inline"
         d="m 1458.0451,788.19025 c -0.5817,-1.40439 -2.168,-5.49818 -2.3135,-6.61013"
         id="path3823-1-7-2"
         inkscape:connector-curvature="0"
         sodipodi:nodetypes="cc" />
      <path
         style="fill:#deaa87;stroke:none;display:inline;stroke-width:3.31932455"
         d="m 1482.4699,834.23897 c 0.9775,-3.04264 -7.1987,-5.31953 -13.858,-7.02568 -6.9232,-1.77375 -13.0294,-1.69419 -12.7773,0.77303 0.4976,4.8701 4.2749,8.9968 12.3167,11.13836 6.7015,1.7846 12.8576,-0.33733 14.3186,-4.88571 z"
         id="path6710-3-4-7-4-0-6-1"
         inkscape:connector-curvature="0"
         sodipodi:nodetypes="sssss" />
    </g>
    <path
       style="fill:#dbdee3;stroke:none;display:inline;stroke-width:1.5"
       d="m 259.21256,166.42884 -75.49707,-17.98161 91.04809,157.26588 z"
       id="path4684-5-5-2-1-3"
       inkscape:connector-curvature="0" />
    <path
       style="fill:#550000;stroke:#000000;stroke-width:1.5;stroke-linecap:butt;stroke-linejoin:miter;stroke-opacity:1;display:inline"
       d="m 255.37321,188.97157 c 9.89725,25.42492 15.0957,60.77623 20.47383,92.17698 -0.8265,7.489 -4.48046,19.77136 -8.87917,29.10245 -5.67775,-10.75218 -10.766,-31.07917 -10.766,-31.07917 -1.09786,-31.33261 -2.32761,-61.71224 -9.16826,-90.40021 z"
       id="path6770-0-4-6-9-3"
       inkscape:connector-curvature="0" />
    <path
       style="fill:#550000;stroke:#000000;stroke-width:1.5;stroke-linecap:butt;stroke-linejoin:miter;stroke-opacity:1;display:inline"
       d="m 254.6307,168.04598 c -2.67656,-0.89989 -7.83172,-1.12977 -13.28048,-0.29163 l -5.59403,4.35489 c 2.69998,6.30758 8.02634,14.17022 11.31234,18.35377 4.39593,-1.46896 7.6705,-2.40028 8.92597,-0.51194 0.4526,-4.81408 2.43392,-11.46176 2.26119,-15.84428 z"
       id="path6768-9-1-6-6-4"
       inkscape:connector-curvature="0" />
    <path
       style="fill:#dbdbe3;stroke:#000000;stroke-width:1.5;stroke-linecap:butt;stroke-linejoin:miter;stroke-opacity:1;display:inline"
       d="m 182.48,186.85639 c 5.97065,1.74361 8.77659,19.75194 12.42861,28.21529 -1.36003,-13.35237 -5.19726,-30.21373 -8.936,-37.13122 -0.42151,1.25987 -1.52335,8.29917 -3.49261,8.91593 z"
       id="path6762-7-2-0-4-87"
       inkscape:connector-curvature="0" />
    <path
       style="fill:none;stroke:#000000;stroke-width:1.5;stroke-linecap:butt;stroke-linejoin:miter;stroke-opacity:1;display:inline"
       d="m 173.88194,214.68027 c 0.0956,-3.66698 4.08651,-11.60656 4.27945,-14.37312 4.74989,2.07703 46.34655,34.35532 60.8462,44.45907 -3.65231,1.85947 -10.90025,10.8505 -17.00132,23.66923 -18.46813,-26.92509 -37.369,-42.72967 -48.12433,-53.75518 z"
       id="path6657-6-4-0-2-4"
       inkscape:connector-curvature="0" />
    <path
       style="fill:none;stroke:#000000;stroke-width:1.5;stroke-linecap:butt;stroke-linejoin:miter;stroke-opacity:1;display:inline"
       d="m 143.47875,192.36173 12.24842,13.5935 c 0.63501,16.70171 2.46113,45.50966 -0.61376,84.75145"
       id="path6766-7-0-8-5-27"
       inkscape:connector-curvature="0"
       sodipodi:nodetypes="ccc" />
    <path
       style="fill:none;stroke:#000000;stroke-width:1.5;stroke-linecap:butt;stroke-linejoin:miter;stroke-opacity:1;display:inline"
       d="m 104.63017,188.11576 c -4.895024,-2.47909 -5.384354,-3.62167 -11.378844,-6.53536 -3.59047,-20.86814 -21.79129,-36.1429 -25.83806,-38.02318 2.57187,-3.41772 4.7577,-8.47279 8.08831,-9.98064 5.2529,-2.37807 37.212864,9.86232 45.147264,16.85067 3.65036,3.21512 7.41579,6.29438 9.94974,8.69586 2.922,2.76922 14.08127,23.17505 19.88902,32.81458 l -2.89405,4.01353 M 120.3574,150.97138 C 106.82639,139.84539 80.328366,130.98896 75.378616,135.0586 c -1.87906,1.54498 15.16304,10.99242 20.21629,18.14052 6.983684,9.87878 25.429304,36.41923 33.811144,55.1462 9.59173,21.43008 26.30007,64.34467 29.25301,82.72999 0.56623,3.52537 -6.02209,83.826 -7.44966,92.03834 -1.43113,8.23288 -3.13028,14.59367 -8.60881,12.33019 -33.10942,-13.67914 -94.241194,-5.9848 -107.134118,-8.51338 0.698452,-42.18844 3.051859,-76.92726 1.910427,-87.14835 C 33.97184,269.29188 21.949611,199.61418 21.626525,182.77293 c -0.345532,-18.00802 2.84309,-29.45333 14.373963,-32.67423 11.982706,-3.34714 39.395208,-8.73073 47.793578,-6.0363 8.80084,2.82355 28.427834,10.61853 34.495864,14.81493 10.75888,7.44046 29.99859,20.21177 36.46443,27.23588 4.40577,4.78622 8.93381,11.56078 10.09537,14.21215 1.56835,3.57991 7.60651,22.42353 8.19174,39.7309 0.57293,16.94372 -1.07241,43.5788 -2.502,52.88146 -2.06195,13.41764 -2.52963,69.82015 -2.57535,110.25503 -7.02916,-2.98145 -19.24384,-4.85034 -21.55403,-6.66004 -2.22501,-1.74292 -3.75596,-4.99658 -3.46194,-9.17042 2.11759,-30.06182 11.16589,-85.25232 10.4038,-97.25178 -0.87028,-13.70273 0.0918,-47.99028 -5.971,-79.56954 -3.58211,-18.65758 -8.51791,-35.49222 -15.4351,-48.42547 -2.44395,-4.56946 -4.29464,-5.14669 -11.58845,-11.14412 z"
       id="path6659-6-6-1-3-7"
       inkscape:connector-curvature="0"
       sodipodi:nodetypes="cccsssccssssssscssssssssscssssss" />
    <path
       style="fill:none;stroke:#000000;stroke-width:1.5;stroke-linecap:butt;stroke-linejoin:miter;stroke-opacity:1;display:inline"
       d="m 114.97221,182.95065 -19.239714,12.60883 c 15.562104,14.98388 51.654654,73.06677 60.677294,94.50341"
       id="path6655-8-1-5-2-9"
       inkscape:connector-curvature="0"
       sodipodi:nodetypes="ccc" />
  </g>
  <g
     inkscape:groupmode="layer"
     id="layer7"
     inkscape:label="枠面"
     style="display:inline"
     sodipodi:insensitive="true">
    <path
       style="fill:#d40000;stroke:none;display:inline"
       d="m 0,0 0,320 370,0 0,-320 -10,10 0,300 -350,0 0,-300 350,0 10,-10 z"
       id="path21072"
       inkscape:connector-curvature="0"
       sodipodi:nodetypes="ccccccccccc" />
  </g>
</svg>
