<?xml version="1.0" encoding="UTF-8" standalone="no"?>
<!-- Created with Inkscape (http://www.inkscape.org/) -->

<svg
   xmlns:dc="http://purl.org/dc/elements/1.1/"
   xmlns:cc="http://creativecommons.org/ns#"
   xmlns:rdf="http://www.w3.org/1999/02/22-rdf-syntax-ns#"
   xmlns:svg="http://www.w3.org/2000/svg"
   xmlns="http://www.w3.org/2000/svg"
   xmlns:sodipodi="http://sodipodi.sourceforge.net/DTD/sodipodi-0.dtd"
   xmlns:inkscape="http://www.inkscape.org/namespaces/inkscape"
   width="370"
   height="320"
   id="svg2"
   version="1.1"
   inkscape:version="0.92.3 (2405546, 2018-03-11)"
   sodipodi:docname="[15]裁断.svg"
   inkscape:export-filename="C:\Users\zhen-\Desktop\資料\臨時\HOSHI\15.png"
   inkscape:export-xdpi="96"
   inkscape:export-ydpi="96"
   enable-background="new">
  <defs
     id="defs4">
    <inkscape:perspective
       sodipodi:type="inkscape:persp3d"
       inkscape:vp_x="363.49708 : 943.81603 : 1"
       inkscape:vp_y="0 : 1000 : 0"
       inkscape:vp_z="744.09448 : 526.18109 : 1"
       inkscape:persp3d-origin="372.04724 : 350.78739 : 1"
       id="perspective5056" />
    <inkscape:perspective
       id="perspective5056-8"
       inkscape:persp3d-origin="372.04724 : 350.78739 : 1"
       inkscape:vp_z="744.09448 : 526.18109 : 1"
       inkscape:vp_y="0 : 1000 : 0"
       inkscape:vp_x="363.49708 : 943.81603 : 1"
       sodipodi:type="inkscape:persp3d" />
    <inkscape:perspective
       id="perspective5056-5"
       inkscape:persp3d-origin="372.04724 : 350.78739 : 1"
       inkscape:vp_z="744.09448 : 526.18109 : 1"
       inkscape:vp_y="0 : 1000 : 0"
       inkscape:vp_x="363.49708 : 943.81603 : 1"
       sodipodi:type="inkscape:persp3d" />
    <inkscape:perspective
       sodipodi:type="inkscape:persp3d"
       inkscape:vp_x="363.49708 : 943.81603 : 1"
       inkscape:vp_y="0 : 1000 : 0"
       inkscape:vp_z="744.09448 : 526.18109 : 1"
       inkscape:persp3d-origin="372.04724 : 350.78739 : 1"
       id="perspective5056-5-2" />
    <inkscape:perspective
       sodipodi:type="inkscape:persp3d"
       inkscape:vp_x="363.49708 : 943.81603 : 1"
       inkscape:vp_y="0 : 1000 : 0"
       inkscape:vp_z="744.09448 : 526.18109 : 1"
       inkscape:persp3d-origin="372.04724 : 350.78739 : 1"
       id="perspective5056-8-5" />
    <inkscape:perspective
       id="perspective5056-1"
       inkscape:persp3d-origin="372.04724 : 350.78739 : 1"
       inkscape:vp_z="744.09448 : 526.18109 : 1"
       inkscape:vp_y="0 : 1000 : 0"
       inkscape:vp_x="363.49708 : 943.81603 : 1"
       sodipodi:type="inkscape:persp3d" />
    <inkscape:perspective
       sodipodi:type="inkscape:persp3d"
       inkscape:vp_x="363.49708 : 943.81603 : 1"
       inkscape:vp_y="0 : 1000 : 0"
       inkscape:vp_z="744.09448 : 526.18109 : 1"
       inkscape:persp3d-origin="372.04724 : 350.78739 : 1"
       id="perspective5056-5-5" />
    <inkscape:perspective
       id="perspective5056-4"
       inkscape:persp3d-origin="372.04724 : 350.78739 : 1"
       inkscape:vp_z="744.09448 : 526.18109 : 1"
       inkscape:vp_y="0 : 1000 : 0"
       inkscape:vp_x="363.49708 : 943.81603 : 1"
       sodipodi:type="inkscape:persp3d" />
    <inkscape:perspective
       sodipodi:type="inkscape:persp3d"
       inkscape:vp_x="363.49708 : 943.81603 : 1"
       inkscape:vp_y="0 : 1000 : 0"
       inkscape:vp_z="744.09448 : 526.18109 : 1"
       inkscape:persp3d-origin="372.04724 : 350.78739 : 1"
       id="perspective5056-1-2" />
    <inkscape:perspective
       id="perspective5056-8-5-8"
       inkscape:persp3d-origin="372.04724 : 350.78739 : 1"
       inkscape:vp_z="744.09448 : 526.18109 : 1"
       inkscape:vp_y="0 : 1000 : 0"
       inkscape:vp_x="363.49708 : 943.81603 : 1"
       sodipodi:type="inkscape:persp3d" />
    <inkscape:perspective
       id="perspective5056-5-2-8"
       inkscape:persp3d-origin="372.04724 : 350.78739 : 1"
       inkscape:vp_z="744.09448 : 526.18109 : 1"
       inkscape:vp_y="0 : 1000 : 0"
       inkscape:vp_x="363.49708 : 943.81603 : 1"
       sodipodi:type="inkscape:persp3d" />
    <inkscape:perspective
       sodipodi:type="inkscape:persp3d"
       inkscape:vp_x="363.49708 : 943.81603 : 1"
       inkscape:vp_y="0 : 1000 : 0"
       inkscape:vp_z="744.09448 : 526.18109 : 1"
       inkscape:persp3d-origin="372.04724 : 350.78739 : 1"
       id="perspective5056-5-4" />
    <inkscape:perspective
       sodipodi:type="inkscape:persp3d"
       inkscape:vp_x="363.49708 : 943.81603 : 1"
       inkscape:vp_y="0 : 1000 : 0"
       inkscape:vp_z="744.09448 : 526.18109 : 1"
       inkscape:persp3d-origin="372.04724 : 350.78739 : 1"
       id="perspective5056-8-9" />
    <inkscape:perspective
       id="perspective5056-40"
       inkscape:persp3d-origin="372.04724 : 350.78739 : 1"
       inkscape:vp_z="744.09448 : 526.18109 : 1"
       inkscape:vp_y="0 : 1000 : 0"
       inkscape:vp_x="363.49708 : 943.81603 : 1"
       sodipodi:type="inkscape:persp3d" />
    <inkscape:perspective
       sodipodi:type="inkscape:persp3d"
       inkscape:vp_x="363.49708 : 943.81603 : 1"
       inkscape:vp_y="0 : 1000 : 0"
       inkscape:vp_z="744.09448 : 526.18109 : 1"
       inkscape:persp3d-origin="372.04724 : 350.78739 : 1"
       id="perspective5056-1-5" />
    <inkscape:perspective
       id="perspective5056-8-5-4"
       inkscape:persp3d-origin="372.04724 : 350.78739 : 1"
       inkscape:vp_z="744.09448 : 526.18109 : 1"
       inkscape:vp_y="0 : 1000 : 0"
       inkscape:vp_x="363.49708 : 943.81603 : 1"
       sodipodi:type="inkscape:persp3d" />
    <inkscape:perspective
       id="perspective5056-5-2-82"
       inkscape:persp3d-origin="372.04724 : 350.78739 : 1"
       inkscape:vp_z="744.09448 : 526.18109 : 1"
       inkscape:vp_y="0 : 1000 : 0"
       inkscape:vp_x="363.49708 : 943.81603 : 1"
       sodipodi:type="inkscape:persp3d" />
    <inkscape:perspective
       sodipodi:type="inkscape:persp3d"
       inkscape:vp_x="363.49708 : 943.81603 : 1"
       inkscape:vp_y="0 : 1000 : 0"
       inkscape:vp_z="744.09448 : 526.18109 : 1"
       inkscape:persp3d-origin="372.04724 : 350.78739 : 1"
       id="perspective5056-5-8" />
    <inkscape:perspective
       sodipodi:type="inkscape:persp3d"
       inkscape:vp_x="363.49708 : 943.81603 : 1"
       inkscape:vp_y="0 : 1000 : 0"
       inkscape:vp_z="744.09448 : 526.18109 : 1"
       inkscape:persp3d-origin="372.04724 : 350.78739 : 1"
       id="perspective5056-8-4" />
    <inkscape:perspective
       id="perspective5056-409"
       inkscape:persp3d-origin="372.04724 : 350.78739 : 1"
       inkscape:vp_z="744.09448 : 526.18109 : 1"
       inkscape:vp_y="0 : 1000 : 0"
       inkscape:vp_x="363.49708 : 943.81603 : 1"
       sodipodi:type="inkscape:persp3d" />
    <inkscape:perspective
       sodipodi:type="inkscape:persp3d"
       inkscape:vp_x="363.49708 : 943.81603 : 1"
       inkscape:vp_y="0 : 1000 : 0"
       inkscape:vp_z="744.09448 : 526.18109 : 1"
       inkscape:persp3d-origin="372.04724 : 350.78739 : 1"
       id="perspective5056-1-7" />
    <inkscape:perspective
       id="perspective5056-8-5-2"
       inkscape:persp3d-origin="372.04724 : 350.78739 : 1"
       inkscape:vp_z="744.09448 : 526.18109 : 1"
       inkscape:vp_y="0 : 1000 : 0"
       inkscape:vp_x="363.49708 : 943.81603 : 1"
       sodipodi:type="inkscape:persp3d" />
    <inkscape:perspective
       id="perspective5056-5-2-89"
       inkscape:persp3d-origin="372.04724 : 350.78739 : 1"
       inkscape:vp_z="744.09448 : 526.18109 : 1"
       inkscape:vp_y="0 : 1000 : 0"
       inkscape:vp_x="363.49708 : 943.81603 : 1"
       sodipodi:type="inkscape:persp3d" />
    <inkscape:perspective
       sodipodi:type="inkscape:persp3d"
       inkscape:vp_x="363.49708 : 943.81603 : 1"
       inkscape:vp_y="0 : 1000 : 0"
       inkscape:vp_z="744.09448 : 526.18109 : 1"
       inkscape:persp3d-origin="372.04724 : 350.78739 : 1"
       id="perspective5056-5-1" />
    <inkscape:perspective
       sodipodi:type="inkscape:persp3d"
       inkscape:vp_x="363.49708 : 943.81603 : 1"
       inkscape:vp_y="0 : 1000 : 0"
       inkscape:vp_z="744.09448 : 526.18109 : 1"
       inkscape:persp3d-origin="372.04724 : 350.78739 : 1"
       id="perspective5056-8-6" />
    <inkscape:perspective
       id="perspective5056-7"
       inkscape:persp3d-origin="372.04724 : 350.78739 : 1"
       inkscape:vp_z="744.09448 : 526.18109 : 1"
       inkscape:vp_y="0 : 1000 : 0"
       inkscape:vp_x="363.49708 : 943.81603 : 1"
       sodipodi:type="inkscape:persp3d" />
    <inkscape:perspective
       sodipodi:type="inkscape:persp3d"
       inkscape:vp_x="363.49708 : 943.81603 : 1"
       inkscape:vp_y="0 : 1000 : 0"
       inkscape:vp_z="744.09448 : 526.18109 : 1"
       inkscape:persp3d-origin="372.04724 : 350.78739 : 1"
       id="perspective5056-1-1" />
    <inkscape:perspective
       id="perspective5056-8-5-82"
       inkscape:persp3d-origin="372.04724 : 350.78739 : 1"
       inkscape:vp_z="744.09448 : 526.18109 : 1"
       inkscape:vp_y="0 : 1000 : 0"
       inkscape:vp_x="363.49708 : 943.81603 : 1"
       sodipodi:type="inkscape:persp3d" />
    <inkscape:perspective
       id="perspective5056-5-2-1"
       inkscape:persp3d-origin="372.04724 : 350.78739 : 1"
       inkscape:vp_z="744.09448 : 526.18109 : 1"
       inkscape:vp_y="0 : 1000 : 0"
       inkscape:vp_x="363.49708 : 943.81603 : 1"
       sodipodi:type="inkscape:persp3d" />
    <inkscape:perspective
       sodipodi:type="inkscape:persp3d"
       inkscape:vp_x="363.49708 : 943.81603 : 1"
       inkscape:vp_y="0 : 1000 : 0"
       inkscape:vp_z="744.09448 : 526.18109 : 1"
       inkscape:persp3d-origin="372.04724 : 350.78739 : 1"
       id="perspective5056-5-46" />
    <inkscape:perspective
       sodipodi:type="inkscape:persp3d"
       inkscape:vp_x="363.49708 : 943.81603 : 1"
       inkscape:vp_y="0 : 1000 : 0"
       inkscape:vp_z="744.09448 : 526.18109 : 1"
       inkscape:persp3d-origin="372.04724 : 350.78739 : 1"
       id="perspective5056-8-92" />
    <inkscape:perspective
       id="perspective5056-3"
       inkscape:persp3d-origin="372.04724 : 350.78739 : 1"
       inkscape:vp_z="744.09448 : 526.18109 : 1"
       inkscape:vp_y="0 : 1000 : 0"
       inkscape:vp_x="363.49708 : 943.81603 : 1"
       sodipodi:type="inkscape:persp3d" />
  </defs>
  <sodipodi:namedview
     id="base"
     pagecolor="#ffffff"
     bordercolor="#666666"
     borderopacity="1.0"
     inkscape:pageopacity="0.0"
     inkscape:pageshadow="2"
     inkscape:zoom="1.6180381"
     inkscape:cx="34.75339"
     inkscape:cy="124.88979"
     inkscape:document-units="px"
     inkscape:current-layer="layer8"
     showgrid="false"
     inkscape:window-width="1484"
     inkscape:window-height="975"
     inkscape:window-x="-10"
     inkscape:window-y="-3"
     inkscape:window-maximized="0"
     showguides="true"
     inkscape:guide-bbox="true"
     inkscape:snap-grids="false"
     inkscape:snap-to-guides="false"
     showborder="true"
     inkscape:showpageshadow="false"
     fit-margin-top="0"
     fit-margin-left="0"
     fit-margin-right="0"
     fit-margin-bottom="0"
     inkscape:snap-page="false"
     inkscape:snap-global="false" />
  <metadata
     id="metadata7">
    <rdf:RDF>
      <cc:Work
         rdf:about="">
        <dc:format>image/svg+xml</dc:format>
        <dc:type
           rdf:resource="http://purl.org/dc/dcmitype/StillImage" />
        <dc:title />
      </cc:Work>
    </rdf:RDF>
  </metadata>
  <g
     inkscape:groupmode="layer"
     id="layer2"
     inkscape:label="補助線"
     style="display:none"
     sodipodi:insensitive="true">
    <path
       style="fill:none;stroke:#0000ff;stroke-width:1px;stroke-linecap:butt;stroke-linejoin:miter;stroke-opacity:1"
       d="M 10,310 360,10"
       id="path3025"
       inkscape:connector-curvature="0"
       sodipodi:nodetypes="cc" />
    <path
       style="fill:none;stroke:#0000ff;stroke-width:1px;stroke-linecap:butt;stroke-linejoin:miter;stroke-opacity:1"
       d="M 10,10 360,310"
       id="path3027"
       inkscape:connector-curvature="0"
       sodipodi:nodetypes="cc" />
    <path
       style="display:inline;fill:none;stroke:#ff0000;stroke-width:1px;stroke-linecap:butt;stroke-linejoin:miter;stroke-opacity:1"
       d="M 10,0 V 320"
       id="path3006"
       inkscape:connector-curvature="0"
       sodipodi:nodetypes="cc" />
    <path
       style="display:inline;fill:none;stroke:#ff0000;stroke-width:1px;stroke-linecap:butt;stroke-linejoin:miter;stroke-opacity:1"
       d="M 360,0 V 320"
       id="path3010"
       inkscape:connector-curvature="0"
       sodipodi:nodetypes="cc" />
    <path
       style="display:inline;fill:none;stroke:#ff0000;stroke-width:1px;stroke-linecap:butt;stroke-linejoin:miter;stroke-opacity:1"
       d="M 0,9.9999681 370,10"
       id="path3016"
       inkscape:connector-curvature="0" />
    <path
       transform="translate(84.715796,27.711696)"
       style="display:inline;fill:none;stroke:#ff0000;stroke-width:1px;stroke-linecap:butt;stroke-linejoin:miter;stroke-opacity:1"
       d="M -84.715796,282.2883 H 285.2842"
       id="path3018"
       inkscape:connector-curvature="0"
       sodipodi:nodetypes="cc" />
  </g>
  <g
     inkscape:groupmode="layer"
     id="layer1"
     inkscape:label="吹き出し"
     sodipodi:insensitive="true">
    <path
       style="display:inline;opacity:1;fill:#fefefe;fill-opacity:1;stroke:#000000;stroke-width:1.5;stroke-linecap:round;stroke-linejoin:round;stroke-miterlimit:4;stroke-dasharray:none;stroke-dashoffset:0;stroke-opacity:1"
       d="m 284.87188,306.89804 c -40.69322,0 -73.68157,-55.0283 -73.68157,-122.90913 0,-10.10938 -21.83426,-25.68346 -27.75519,-46.14063 13.67725,9.09667 32.38792,2.52463 34.1912,-4.1716 11.52445,-42.794758 37.29862,-72.596878 67.24556,-72.596878 40.69322,0 73.68159,55.028288 73.68159,122.909108 0,67.88083 -32.98837,122.90913 -73.68159,122.90913 z"
       id="path7611-1"
       inkscape:connector-curvature="0"
       sodipodi:nodetypes="sscssss" />
    <text
       xml:space="preserve"
       style="font-style:normal;font-variant:normal;font-weight:normal;font-stretch:normal;font-size:21.33333397px;line-height:1.25;font-family:HGMinchoB;-inkscape-font-specification:HGMinchoB;letter-spacing:0px;word-spacing:0px;display:inline;fill:#000000;fill-opacity:1;stroke:none;stroke-width:1.5;stroke-linecap:round"
       x="424.86627"
       y="161.04077"
       id="text7607-6"><tspan
         sodipodi:role="line"
         x="424.86627"
         y="180.50381"
         id="tspan1492-8"
         style="line-height:0" /></text>
    <text
       xml:space="preserve"
       style="font-style:normal;font-variant:normal;font-weight:normal;font-stretch:normal;font-size:26.69381332px;line-height:1;font-family:HGMinchoB;-inkscape-font-specification:HGMinchoB;letter-spacing:0px;word-spacing:0px;fill:#000000;fill-opacity:1;stroke:none;stroke-width:1.25127244"
       x="242.68388"
       y="112.10346"
       id="text7655"><tspan
         sodipodi:role="line"
         x="242.68388"
         y="112.10346"
         id="tspan7659"
         style="stroke-width:1.25127244">な判我</tspan><tspan
         sodipodi:role="line"
         x="242.68388"
         y="140.72043"
         id="tspan7673"
         style="stroke-width:1.25127244">ら断々</tspan><tspan
         sodipodi:role="line"
         x="242.68388"
         y="169.33739"
         id="tspan7675"
         style="stroke-width:1.25127244">なしは</tspan><tspan
         sodipodi:role="line"
         x="242.68388"
         y="197.95435"
         id="tspan7677"
         style="stroke-width:1.25127244">いな今</tspan><tspan
         sodipodi:role="line"
         x="242.68388"
         y="226.5713"
         id="tspan7679"
         style="stroke-width:1.25127244">　けこ</tspan><tspan
         sodipodi:role="line"
         x="242.68388"
         y="255.18826"
         id="tspan7683"
         style="stroke-width:1.25127244">　れこ</tspan><tspan
         sodipodi:role="line"
         x="242.68388"
         y="283.80524"
         id="tspan7687"
         style="stroke-width:1.25127244">　ばで</tspan></text>
    <text
       xml:space="preserve"
       style="font-style:normal;font-variant:normal;font-weight:normal;font-stretch:normal;font-size:26.69381332px;line-height:1;font-family:HGMinchoB;-inkscape-font-specification:HGMinchoB;letter-spacing:0px;word-spacing:0px;fill:#000000;fill-opacity:1;stroke:none;stroke-width:1.25127244"
       x="256.73257"
       y="211.96439"
       id="text7655-7"><tspan
         sodipodi:role="line"
         x="256.73257"
         y="211.96439"
         id="tspan7687-9"
         style="stroke-width:1.25127244">。</tspan></text>
  </g>
  <g
     style="display:none"
     inkscape:label="豚.old.01"
     id="g474"
     inkscape:groupmode="layer"
     sodipodi:insensitive="true">
    <path
       style="display:inline;fill:#deaa87;stroke:#000000;stroke-width:1.5;stroke-linecap:round;stroke-linejoin:miter;stroke-opacity:1"
       d="m 90.704076,111.2356 c 0.262239,6.20617 1.657985,12.29384 2.983698,15.74378 1.142751,2.9738 17.541056,14.37971 30.048756,21.79938 m 8.58315,4.70617 c 11.66892,6.5515 21.723,7.00138 24.75991,2.34138 3.15971,-4.84836 5.79938,-9.11025 8.76323,-14.28776 2.69136,-4.70138 13.59718,-22.75479 15.07394,-30.57951 0.55895,-2.96153 2.07943,-13.576237 3.0612,-18.073044 0.66846,-3.061614 3.43388,-8.876315 4.18074,-11.540101 1.10071,-3.925613 0.21173,-8.22299 -0.19473,-11.933153 -0.70473,-6.432227 -2.76206,-15.854128 -3.73784,-20.639351 -2.40132,-11.775925 -15.25554,-21.645608 -26.0501,-28.263105 -15.6476,-9.592617 -42.08268,-9.265388 -61.004572,5.894013 -16.533282,13.245705 -24.273292,39.094138 -25.274998,51.593734 -0.77758,9.702953 3.357204,19.820237 5.314421,25.480787 1.329726,3.84587 1.775555,9.67509 1.950354,13.24921 0.241571,4.93905 -1.831764,22.37869 -4.825722,29.51399"
       id="path404"
       inkscape:connector-curvature="0"
       sodipodi:nodetypes="csccssssssssssssc" />
    <path
       style="fill:#deaa87;stroke:none;stroke-width:1.5;stroke-linecap:round"
       d="m 144.76375,112.8616 c 1.09592,0.42176 2.66919,1.20906 4.22775,1.16335 2.90196,-0.0851 4.45089,-1.529 7.13065,-1.75573 1.70343,-0.14413 3.36321,-0.32143 4.36779,-0.29549 1.68249,0.0434 3.28882,-1.42884 5.57894,-1.04999 2.09485,0.34656 3.28795,1.0654 3.12324,2.97455 -0.34033,3.94452 -0.1834,2.44444 -1.93452,4.73371 l -3.94183,5.15325 c 0.243,-1.90819 0.53844,-5.2569 -0.26571,-5.69569 -0.59095,-0.32245 -2.20645,-1.14791 -3.04974,-0.82026 -0.6578,0.25558 -2.39673,1.57907 -4.29184,3.62589 5.41417,-9.88744 -9.66088,-1.09473 -10.94473,-8.03359 z"
       id="path406"
       inkscape:connector-curvature="0"
       sodipodi:nodetypes="csssssscsscc" />
    <path
       style="display:inline;fill:#e9c6af;stroke:none;stroke-width:1.5;stroke-linecap:round"
       d="m 134.35359,49.616268 c 0.12,7.893019 2.76781,14.933912 6.50669,17.453568 -2.90612,0.817824 -6.37956,2.454167 -5.69473,6.370692 0.59398,3.397138 4.04842,3.697459 5.41834,4.869639 l 11.73024,2.818263 c 1.89905,-2.925382 1.76546,-5.995696 -0.45538,-10.837256 4.56178,3.082733 8.18366,5.001094 10.46704,6.934356 0.74899,0.634135 1.2215,1.991549 0.56893,3.330885 -1.31964,2.708504 -3.88118,4.578199 -5.79355,6.011359 -2.97286,2.227945 -4.95672,5.806293 -10.69705,6.811472 -2.67235,0.467953 -9.14154,-7.779898 -10.77141,-8.250832 -2.45066,-0.708134 -4.24111,2.257315 -6.11617,4.879395 -1.14123,1.59589 -5.82293,11.778351 -4.03126,23.722081 1.80431,12.02797 2.65068,26.33464 6.95547,34.51171 5.57149,10.5832 17.54805,10.58775 21.10432,8.40628 4.02743,-2.4705 7.60768,-11.57871 13.36431,-19.73354 3.75633,-5.3212 10.00952,-17.73332 11.58628,-22.50441 1.45987,-4.41739 2.53517,-8.06093 1.95774,-11.5219 -0.3671,-2.20032 -0.69886,-3.548004 -3.29522,-3.865768 -3.92358,-0.480198 -8.03626,-5.599096 -8.81855,-9.101608 -1.83259,0.841285 0.54512,8.084072 0.10112,13.018806 -0.63117,-2.73375 -1.17923,-11.355481 -1.60791,-13.101901 -0.51579,-2.101383 3.13515,-8.083874 5.07662,-9.268049 0.71519,-0.436257 4.04073,-0.683688 4.98162,-1.51034 -0.43106,1.435148 -5.9647,6.971812 -3.87413,7.195006 l 9.5684,7.426125 c 0.78267,-4.18031 4.80742,-10.034838 2.26721,-13.922142 3.48269,-4.80359 -0.72434,-29.697598 -3.57897,-35.716648 -4.02516,-8.487158 -24.707,-27.571122 -37.05227,-26.747081 -9.25666,0.617878 -10.09238,17.545836 -9.86773,32.321838 z"
       id="path408"
       inkscape:connector-curvature="0"
       sodipodi:nodetypes="scscccsssssssssssssccssccccsss" />
    <path
       style="display:inline;fill:#fefefe;fill-opacity:1;stroke:none;stroke-width:1.5;stroke-linecap:round"
       d="m 173.73235,86.739976 -4.81332,2.666737 3.51445,3.605589 9.73449,0.705931 -1.34783,-4.408648 z"
       id="path410"
       inkscape:connector-curvature="0"
       sodipodi:nodetypes="cccccc" />
    <path
       style="display:inline;fill:#fefefe;fill-opacity:1;stroke:none;stroke-width:1.5;stroke-linecap:round"
       d="m 152.84628,80.824102 -9.35174,-3.081412 -8.63274,1.28249 10.62916,6.508003 8.58031,-0.438093 z"
       id="path412"
       inkscape:connector-curvature="0"
       sodipodi:nodetypes="cccccc" />
    <path
       style="display:inline;fill:#fefefe;fill-opacity:1;stroke:#916f6f;stroke-width:1.5;stroke-linecap:round;stroke-linejoin:miter;stroke-opacity:1"
       d="m 154.07127,85.09509 c -1.41891,0.125301 -3.78784,3.033496 -6.00999,2.551005 -2.38137,-0.517069 -5.59326,-1.492805 -7.19323,-2.747928 -1.63434,-1.282101 -4.32092,-4.221595 -6.00625,-5.872987"
       id="path414"
       inkscape:connector-curvature="0"
       sodipodi:nodetypes="cssc" />
    <path
       style="display:inline;fill:#2b0000;stroke:none;stroke-width:1.5;stroke-linecap:round"
       d="m 147.11616,84.991891 c -3.10628,-0.647246 -3.9769,-5.106259 -3.67625,-7.194574 l 8.96743,2.989615 c -0.99447,4.024939 -3.71635,4.533101 -5.29118,4.204959 z"
       id="path416"
       inkscape:connector-curvature="0"
       sodipodi:nodetypes="sccs" />
    <path
       style="display:inline;fill:#fefefe;fill-opacity:1;stroke:#916f6f;stroke-width:1.5;stroke-linecap:round;stroke-linejoin:miter;stroke-opacity:1"
       d="m 182.16797,93.718233 c -1.05794,1.162738 -2.60488,2.652118 -3.7648,2.427119 -2.02784,-0.393358 -5.95041,-1.166197 -7.28037,-2.851771 -0.42187,-0.534669 -1.89568,-3.347089 -2.20377,-3.886868"
       id="path418"
       inkscape:connector-curvature="0"
       sodipodi:nodetypes="cssc" />
    <path
       style="display:inline;fill:#2b0000;stroke:none;stroke-width:1.5;stroke-linecap:round"
       d="m 181.03573,89.813311 c -0.0376,2.457932 -1.7335,4.718228 -3.80652,4.121229 -2.45782,-0.707794 -3.11066,-5.013237 -1.91081,-6.871162 z"
       id="path420"
       inkscape:connector-curvature="0"
       sodipodi:nodetypes="cscc" />
    <path
       style="display:inline;fill:none;stroke:#000000;stroke-width:1.5;stroke-linecap:round;stroke-linejoin:miter;stroke-opacity:1"
       d="m 173.28745,78.088836 c -2.30046,3.766133 -6.30471,8.875412 -6.44051,11.667246 -0.1509,3.100854 2.68395,15.253418 3.25487,16.834348 0.32674,0.90472 1.20815,3.55369 0.96789,5.48489 -0.27014,2.17139 -2.05463,4.56598 -3.94747,6.92746"
       id="path422"
       inkscape:connector-curvature="0"
       sodipodi:nodetypes="csssc" />
    <path
       style="display:inline;fill:#000000;stroke:none;stroke-width:1.5;stroke-linecap:round"
       d="m 165.45754,121.30632 c -0.67806,-0.75021 -1.69378,0.84696 -3.87244,0.4726 -2.95083,-0.5071 -3.2,-3.21913 -4.2817,-3.05498 -4.56533,0.69329 -17.14027,2.72271 -18.49121,4.52788 -1.3648,1.82359 -2.29518,6.80243 -0.93601,6.75683 6.04009,-0.20271 15.97302,-1.13019 20.18252,-0.40065 5.95613,1.03224 6.51262,4.00184 9.2905,4.19321 0.61495,0.0424 3.61731,-4.32667 2.8151,-5.55933 -0.4321,-2.08598 -3.67501,-5.79402 -4.70676,-6.93556 z"
       id="path424"
       inkscape:connector-curvature="0"
       sodipodi:nodetypes="ssssssscs" />
    <path
       style="display:inline;fill:none;stroke:#000000;stroke-width:1.5;stroke-linecap:round;stroke-linejoin:miter;stroke-opacity:1"
       d="m 164.61907,75.396574 c 0.32347,2.311392 -1.20562,3.93445 -1.922,5.165705"
       id="path426"
       inkscape:connector-curvature="0"
       sodipodi:nodetypes="cc" />
    <path
       style="display:inline;fill:#000000;stroke:none;stroke-width:1.5;stroke-linecap:round"
       d="m 160.52467,77.774553 c -6.2336,-1.16647 -8.83979,-5.886592 -14.77014,-8.032499 -4.89671,-1.771874 -14.47714,-4.550248 -12.63541,-4.698805 4.04473,-0.326264 9.29119,1.293388 14.21073,3.083689 1.80326,0.656235 5.26026,1.839787 8.34355,3.788365 3.51971,2.224376 10.82528,6.977144 4.85127,5.85925 z"
       id="path428"
       inkscape:connector-curvature="0"
       sodipodi:nodetypes="ssssss" />
    <path
       style="display:inline;fill:#000000;stroke:none;stroke-width:1.5;stroke-linecap:round"
       d="m 187.90012,79.825273 c -0.87566,-0.758781 -4.24264,-1.022548 -6.83693,-1.394381 -3.16613,-0.453792 -9.22785,0.941669 -8.13191,1.806509 3.2662,2.577506 5.75732,0.10915 9.32146,0.09916 3.5457,-0.0099 6.80091,0.488312 5.64738,-0.511286 z"
       id="path430"
       inkscape:connector-curvature="0"
       sodipodi:nodetypes="sssss" />
    <path
       style="display:inline;fill:none;stroke:#000000;stroke-width:1.5;stroke-linecap:round;stroke-linejoin:miter;stroke-opacity:1"
       d="m 145.36292,110.56984 c -0.87346,1.69303 -0.46845,3.76604 0.99951,4.29505"
       id="path432"
       inkscape:connector-curvature="0"
       sodipodi:nodetypes="cc" />
    <path
       style="display:inline;fill:none;stroke:#000000;stroke-width:1.5;stroke-linecap:round;stroke-linejoin:miter;stroke-opacity:1"
       d="m 154.91391,86.329486 c -1.65846,-2.293808 -0.22603,-4.445956 -2.06763,-5.505384 -2.18434,-1.256604 -5.74717,-2.684427 -9.35174,-3.081412 -3.1893,-0.351245 -8.36258,1.145604 -10.68757,1.761747"
       id="path434"
       inkscape:connector-curvature="0"
       sodipodi:nodetypes="cssc" />
    <path
       style="display:inline;fill:none;stroke:#000000;stroke-width:1.5;stroke-linecap:round;stroke-linejoin:miter;stroke-opacity:1"
       d="m 182.80984,94.986046 c -0.56414,-1.807281 -0.29655,-4.893766 -1.9897,-5.676461 -1.42807,-0.660311 -5.10999,-2.784786 -7.08779,-2.569609 -1.10689,0.120431 -3.64457,1.639827 -5.56516,3.296412"
       id="path436"
       inkscape:connector-curvature="0"
       sodipodi:nodetypes="cssc" />
    <path
       style="display:inline;opacity:0.95;fill:#deaa87;stroke:#000000;stroke-width:1.5;stroke-linecap:round;stroke-linejoin:miter;stroke-opacity:1"
       d="m 89.678682,108.35584 c -1.715548,-3.13184 -10.508873,2.05135 -12.27003,-5.03768 -1.117616,-4.498708 -3.724218,-10.129187 -3.909472,-18.747161 -0.1837,-8.545822 3.230218,-12.627455 6.122612,-13.261293 4.915247,-1.077077 8.304376,1.670756 11.114916,4.614106"
       id="path438"
       inkscape:connector-curvature="0"
       sodipodi:nodetypes="csssc" />
    <path
       style="display:inline;opacity:0.95;fill:none;stroke:#000000;stroke-width:1.5;stroke-linecap:round;stroke-linejoin:miter;stroke-opacity:1"
       d="m 80.400228,95.15457 c 1.416346,-1.812589 5.030878,-3.318877 6.123867,-6.075358 1.03567,-2.611892 2.372669,-5.21603 1.812211,-7.177566 -0.847803,-2.967094 -3.817695,-8.184682 -6.38082,-8.254716 -2.055427,-0.05616 -4.0444,1.567899 -5.011255,4.376611 -2.369905,6.884565 0.228983,16.778756 4.743262,18.021238 2.53027,0.696443 5.571512,5.864341 6.747601,4.527561 1.152825,-1.310408 -1.198275,-4.416759 -1.318649,-5.852581 -0.07254,-0.865077 2.637452,-3.393922 3.181718,-5.496685"
       id="path440"
       inkscape:connector-curvature="0"
       sodipodi:nodetypes="csssssssc" />
    <path
       style="fill:none;stroke:#000000;stroke-width:1.5;stroke-linecap:round;stroke-linejoin:miter;stroke-opacity:1"
       d="m 143.76418,158.11387 c -8.67328,5.64134 -8.81441,17.81984 -9.01756,24.23722"
       id="path442"
       inkscape:connector-curvature="0"
       sodipodi:nodetypes="cc" />
    <path
       style="fill:none;stroke:#000000;stroke-width:1.5;stroke-linecap:round;stroke-linejoin:miter;stroke-opacity:1"
       d="m 153.54657,114.72559 c 2.23902,-1.67045 5.39937,-0.41265 8.52602,-1.02163"
       id="path444"
       inkscape:connector-curvature="0"
       sodipodi:nodetypes="cc" />
    <path
       style="display:inline;fill:none;stroke:#000000;stroke-width:1.5;stroke-linecap:round;stroke-linejoin:miter;stroke-opacity:1"
       d="m 164.50029,118.04217 c 0.43143,-0.53455 2.62492,-2.65298 2.82993,-3.11643"
       id="path446"
       inkscape:connector-curvature="0"
       sodipodi:nodetypes="cc" />
    <path
       style="display:inline;fill:#deaa87;stroke:none;stroke-width:1.5;stroke-linecap:round"
       d="m 148.03432,134.88644 c -0.0354,-1.44375 3.79963,-1.38712 6.9042,-1.2767 3.22759,0.11479 5.86446,0.92871 5.44024,1.96606 -0.83735,2.04766 -3.00155,3.35442 -6.76101,3.25628 -3.13287,-0.0818 -5.53067,-1.78744 -5.58343,-3.94564 z"
       id="path448"
       inkscape:connector-curvature="0"
       sodipodi:nodetypes="sssss" />
    <path
       inkscape:connector-curvature="0"
       id="path450"
       d="m 259.21256,166.42884 -75.49707,-17.98161 91.04809,157.26588 z"
       style="display:inline;fill:#dbdee3;stroke:none;stroke-width:1.5;stroke-linecap:round" />
    <path
       inkscape:connector-curvature="0"
       id="path452"
       d="m 255.37321,188.97157 c 9.89725,25.42492 15.0957,60.77623 20.47383,92.17698 -0.8265,7.489 -4.48046,19.77136 -8.87917,29.10245 -5.67775,-10.75218 -10.766,-31.07917 -10.766,-31.07917 -1.09786,-31.33261 -2.32761,-61.71224 -9.16826,-90.40021 z"
       style="display:inline;fill:#550000;stroke:#000000;stroke-width:1.5;stroke-linecap:round;stroke-linejoin:miter;stroke-opacity:1" />
    <path
       inkscape:connector-curvature="0"
       id="path454"
       d="m 254.6307,168.04598 c -2.67656,-0.89989 -7.83172,-1.12977 -13.28048,-0.29163 l -5.59403,4.35489 c 2.69998,6.30758 8.02634,14.17022 11.31234,18.35377 4.39593,-1.46896 7.6705,-2.40028 8.92597,-0.51194 0.4526,-4.81408 2.43392,-11.46176 2.26119,-15.84428 z"
       style="display:inline;fill:#550000;stroke:#000000;stroke-width:1.5;stroke-linecap:round;stroke-linejoin:miter;stroke-opacity:1" />
    <path
       inkscape:connector-curvature="0"
       id="path456"
       d="m 182.48,186.85639 c 5.97065,1.74361 8.77659,19.75194 12.42861,28.21529 -1.36003,-13.35237 -5.19726,-30.21373 -8.936,-37.13122 -0.42151,1.25987 -1.52335,8.29917 -3.49261,8.91593 z"
       style="display:inline;fill:#dbdbe3;stroke:#000000;stroke-width:1.5;stroke-linecap:round;stroke-linejoin:miter;stroke-opacity:1" />
    <path
       inkscape:connector-curvature="0"
       id="path458"
       d="m 173.88194,214.68027 c 0.0956,-3.66698 4.08651,-11.60656 4.27945,-14.37312 4.74989,2.07703 46.34655,34.35532 60.8462,44.45907 -3.65231,1.85947 -10.90025,10.8505 -17.00132,23.66923 -18.46813,-26.92509 -37.369,-42.72967 -48.12433,-53.75518 z"
       style="display:inline;fill:none;stroke:#000000;stroke-width:1.5;stroke-linecap:round;stroke-linejoin:miter;stroke-opacity:1" />
    <path
       sodipodi:nodetypes="ccc"
       inkscape:connector-curvature="0"
       id="path460"
       d="m 143.47875,192.36173 12.24842,13.5935 c 0.63501,16.70171 2.46113,45.50966 -0.61376,84.75145"
       style="display:inline;fill:none;stroke:#000000;stroke-width:1.5;stroke-linecap:round;stroke-linejoin:miter;stroke-opacity:1" />
    <path
       sodipodi:nodetypes="cccsssccsssssssscssssssssscssssss"
       inkscape:connector-curvature="0"
       id="path462"
       d="m 104.63017,188.11576 c -4.895024,-2.47909 -5.384354,-3.62167 -11.378844,-6.53536 -3.59047,-20.86814 -21.79129,-36.1429 -25.83806,-38.02318 2.57187,-3.41772 4.7577,-8.47279 8.08831,-9.98064 5.2529,-2.37807 37.212864,9.86232 45.147264,16.85067 3.65036,3.21512 7.41579,6.29438 9.94974,8.69586 2.922,2.76922 12.22717,23.17505 18.03492,32.81458 l -1.03995,4.01353 M 120.3574,150.97138 C 106.82639,139.84539 80.328366,130.98896 75.378616,135.0586 c -1.87906,1.54498 15.16304,10.99242 20.21629,18.14052 6.983684,9.87878 25.892054,36.2189 33.811144,55.1462 3.48598,8.33178 7.42239,17.0522 11.29693,25.67175 8.88513,19.76643 17.4449,39.00244 19.50116,51.80496 0.56623,3.52538 -7.56717,89.07928 -8.99474,97.29162 -1.43113,8.23288 -3.13028,14.59367 -8.60881,12.33019 -33.10942,-13.67914 -110.310037,-0.42251 -123.202961,-2.95109 0.698452,-42.18844 12.940378,-77.85431 11.798946,-88.0754 -3.405059,-30.49023 -16.045321,-87.49826 -16.368407,-104.33951 -0.345532,-18.00802 9.641447,-46.75824 21.17232,-49.97914 11.982706,-3.34714 39.395208,-8.73073 47.793578,-6.0363 8.80084,2.82355 28.427834,10.61853 34.495864,14.81493 10.75888,7.44046 29.68957,22.06587 36.15541,29.08998 4.40577,4.78622 7.07972,9.70668 8.24128,12.35805 1.56835,3.57991 9.76962,22.42353 10.35485,39.7309 0.57293,16.94372 -1.07241,43.5788 -2.502,52.88146 -2.06195,13.41764 -2.52963,69.82015 -2.57535,110.25503 -7.02916,-2.98145 -19.24384,-4.85034 -21.55403,-6.66004 -2.22501,-1.74292 -3.75596,-4.99658 -3.46194,-9.17042 2.11759,-30.06182 11.16589,-85.25232 10.4038,-97.25178 -0.87028,-13.70273 0.0918,-47.99028 -5.971,-79.56954 -3.58211,-18.65758 -8.51791,-35.49222 -15.4351,-48.42547 -2.44395,-4.56946 -4.29464,-5.14669 -11.58845,-11.14412 z"
       style="display:inline;fill:none;stroke:#000000;stroke-width:1.5;stroke-linecap:round;stroke-linejoin:miter;stroke-opacity:1" />
    <path
       sodipodi:nodetypes="ccc"
       inkscape:connector-curvature="0"
       id="path464"
       d="m 114.97221,182.95065 -19.239714,12.60883 c 15.562104,14.98388 51.654654,73.06677 60.677294,94.50341"
       style="display:inline;fill:none;stroke:#000000;stroke-width:1.5;stroke-linecap:round;stroke-linejoin:miter;stroke-opacity:1" />
    <path
       sodipodi:nodetypes="sscssss"
       inkscape:connector-curvature="0"
       id="path466"
       d="m 419.03497,74.351013 c 0,24.410108 -49.53378,44.198407 -110.63679,44.198407 -9.09997,0 -23.11899,13.09743 -41.53354,16.64913 8.18837,-8.20439 2.27254,-19.42812 -3.75508,-20.50982 -38.52175,-6.91302 -65.34816,-22.373831 -65.34816,-40.337717 0,-24.410106 49.53377,-44.198408 110.63678,-44.19841 61.10301,0 110.63679,19.788302 110.63679,44.19841 z"
       style="display:inline;opacity:1;fill:#fefefe;fill-opacity:1;stroke:#000000;stroke-width:1.5;stroke-linecap:round;stroke-linejoin:round;stroke-miterlimit:4;stroke-dasharray:none;stroke-dashoffset:0;stroke-opacity:1" />
    <text
       id="text472"
       y="68.157608"
       x="228.16539"
       style="font-style:normal;font-variant:normal;font-weight:normal;font-stretch:normal;font-size:21.33333397px;line-height:1.25;font-family:HGMinchoB;-inkscape-font-specification:HGMinchoB;letter-spacing:0px;word-spacing:0px;display:inline;fill:#000000;fill-opacity:1;stroke:none;stroke-width:1.5;stroke-linecap:round"
       xml:space="preserve"><tspan
         id="tspan468"
         y="68.157608"
         x="228.16539"
         sodipodi:role="line">我々はここで</tspan><tspan
         id="tspan470"
         y="96.361229"
         x="228.16539"
         sodipodi:role="line">判断しなければならない。</tspan></text>
  </g>
  <g
     style="display:none"
     inkscape:label="豚.old.02"
     id="g7867"
     inkscape:groupmode="layer">
    <path
       style="display:inline;opacity:0.95;fill:#241c1c;stroke:#000000;stroke-width:1.5;stroke-linecap:round;stroke-linejoin:round"
       d="m 188.27182,90.761709 -43.53901,-2.877298 c -10.71774,-0.708287 -11.80066,11.40867 -11.63962,18.180839 0.0778,3.27075 4.23801,6.47399 4.6556,1.90389 0.41453,-4.53671 -0.95909,-19.233049 7.80056,-18.176429 l 42.07213,5.396851 z"
       id="path7777"
       inkscape:connector-curvature="0"
       sodipodi:nodetypes="csssscc" />
    <path
       sodipodi:nodetypes="ccccc"
       inkscape:connector-curvature="0"
       id="path7779"
       d="m 78.488338,131.77767 -7.98107,14.3518 61.902982,36.89602 2.698,-13.87808 z"
       style="display:inline;fill:#deaa87;stroke:none;stroke-linecap:round;stroke-linejoin:round" />
    <path
       sodipodi:nodetypes="ccccc"
       inkscape:connector-curvature="0"
       id="path7781"
       d="m 140.78152,175.60615 -33.10663,-6.1822 35.0189,111.79248 23.11002,-9.43481 z"
       style="display:inline;fill:#dbdee3;stroke:none;stroke-width:1.5;stroke-linecap:round" />
    <path
       sodipodi:nodetypes="ccccccc"
       inkscape:connector-curvature="0"
       id="path7783"
       d="m 139.78277,194.65277 c 9.89725,25.42492 16.18823,49.85085 20.03681,88.24384 -0.8265,7.489 -3.60643,24.14151 -8.00514,33.4726 -5.67775,-10.75218 -9.89197,-37.63439 -9.89197,-37.63439 0.6502,-35.26575 -2.1091,-54.93851 -8.94975,-83.62648 l 3.272,-5.99785 z"
       style="display:inline;fill:#550000;stroke:#000000;stroke-width:1.5;stroke-linecap:round;stroke-linejoin:miter;stroke-opacity:1" />
    <path
       sodipodi:nodetypes="csssscccccc"
       inkscape:connector-curvature="0"
       id="path7785"
       d="m 138.28492,171.25511 c 9.28855,8.4428 14.31758,13.47944 16.05117,15.51041 3.71507,4.35235 6.75196,10.03444 7.91352,12.68581 1.56835,3.57991 9.98812,26.79368 10.79186,40.60493 0.98493,16.92477 -1.07241,43.5788 -2.502,52.88146 -2.06195,13.41764 -2.52963,69.82015 -2.57535,110.25503 l -13.68654,-20.30422 -2.14612,-103.49372 2.41424,-44.20107 -5.58466,-36.69791 z"
       style="display:inline;fill:#1c1f24;fill-opacity:1;stroke:#000000;stroke-width:1.5;stroke-linecap:round;stroke-linejoin:round;stroke-opacity:1" />
    <path
       sodipodi:nodetypes="ccccccc"
       inkscape:connector-curvature="0"
       id="path7787"
       d="m 136.85518,174.49195 c -2.67656,-0.89989 -5.20963,-1.45753 -10.65839,-0.61939 l -5.59403,4.35489 c 2.69998,6.30758 9.00962,13.29619 12.29562,17.47974 4.39593,-1.46896 6.14095,-1.85401 7.39642,0.0343 0.4526,-4.81408 0.24885,-12.22654 0.0761,-16.60906 z"
       style="display:inline;fill:#550000;stroke:#000000;stroke-width:1.5;stroke-linecap:round;stroke-linejoin:round;stroke-opacity:1" />
    <path
       sodipodi:nodetypes="ccccc"
       inkscape:connector-curvature="0"
       id="path7789"
       d="m 137.48199,170.73957 c 2.89509,7.27766 4.6504,11.2088 6.30432,20.70847 -2.10846,-9.3088 -6.18407,-16.46934 -9.34152,-19.02905 -0.0197,-6.80796 -5.25691,-12.55992 -8.62674,-17.92537 4.47166,3.76815 9.22189,9.11568 11.66394,16.24595 z"
       style="display:inline;fill:#dbdbe3;stroke:#000000;stroke-width:1.5;stroke-linecap:round;stroke-linejoin:round;stroke-opacity:1" />
    <path
       sodipodi:nodetypes="cccccc"
       inkscape:connector-curvature="0"
       id="path7791"
       d="m 143.29331,189.54794 c -2.38032,-11.55609 -3.84168,-16.14093 -8.08797,-24.99551 l 4.05952,6.83744 c 2.93089,5.46071 8.82331,13.72431 10.49223,18.38925 l 0.5678,9.4497 z"
       style="display:inline;fill:#1c1f24;fill-opacity:1;stroke:#000000;stroke-width:1.5;stroke-linecap:round;stroke-linejoin:round;stroke-opacity:1" />
    <path
       style="fill:#deaa87;fill-opacity:1;stroke:#000000;stroke-width:1.5;stroke-linecap:round;stroke-linejoin:round;stroke-opacity:1"
       d="m 133.65408,171.09796 c 0.74942,-5.98037 4.27742,-10.2926 7.051,-13.85812 L 105.21849,95.14808 80.882788,111.31381 c 0.24157,4.93905 -0.40598,12.48574 -2.7819,20.8571"
       id="path7793"
       inkscape:connector-curvature="0"
       sodipodi:nodetypes="ccccc" />
    <path
       sodipodi:nodetypes="ccccc"
       inkscape:connector-curvature="0"
       id="path7795"
       d="m 133.89617,172.35739 c -3.10566,1.93744 -10.09973,18.3187 -13.11435,23.61083 -18.66188,-18.64214 -38.495522,-36.24999 -49.595922,-55.99703 l 6.31852,-8.12675 c -0.54059,2.21648 24.988972,11.89266 56.391752,40.51295 z"
       style="display:inline;fill:#dbdbe3;stroke:#000000;stroke-width:1.5;stroke-linecap:round;stroke-linejoin:round;stroke-opacity:1" />
    <path
       sodipodi:nodetypes="ccccccc"
       inkscape:connector-curvature="0"
       id="path7797"
       d="m 19.397628,392.49275 c 0.69845,-42.18844 12.94038,-77.85431 11.79895,-88.0754 -3.40506,-30.49023 -16.04532,-87.49826 -16.36841,-104.33951 -0.34553,-18.00802 9.64145,-46.75824 21.17232,-49.97914 11.98271,-3.34714 39.39521,-8.73073 47.79358,-6.0363 l 74.036022,138.46198 z"
       style="display:inline;fill:#1c1f24;fill-opacity:1;stroke:#000000;stroke-width:1.5;stroke-linecap:round;stroke-linejoin:miter;stroke-opacity:1" />
    <path
       sodipodi:nodetypes="ccccccc"
       inkscape:connector-curvature="0"
       id="path7799"
       d="m 95.594905,153.19912 c 7.202195,7.03818 13.297085,13.92975 21.106915,28.81466 l -8.13169,9.88743 c -4.89502,-4.17868 -9.324315,-7.40712 -15.318805,-10.32081 -3.59047,-20.86814 -20.530987,-42.18386 -25.451787,-37.94593 l 6.32724,-8.9306 c 0.69294,2.48856 16.418973,11.34747 21.468127,18.49525 z"
       style="display:inline;fill:#1c1f24;fill-opacity:1;stroke:#000000;stroke-width:1.5;stroke-linecap:round;stroke-linejoin:round;stroke-opacity:1" />
    <path
       sodipodi:nodetypes="ccccsccc"
       inkscape:connector-curvature="0"
       id="path7801"
       d="m 19.397628,392.49275 c 12.89292,2.52858 90.093542,-10.72805 123.202962,2.95109 5.47853,2.26348 7.17768,-4.09731 8.60881,-12.33019 1.42757,-8.21234 9.56097,-93.76624 8.99474,-97.29162 -2.05626,-12.80252 -10.61603,-32.03853 -19.50116,-51.80496 -3.87454,-8.61955 -20.09662,-43.95285 -24.00116,-52.00329 l -20.969325,13.5457 c 15.562105,14.98388 50.109575,63.39487 59.132215,84.83151"
       style="display:inline;fill:#1c1f24;fill-opacity:1;stroke:#000000;stroke-width:1.5;stroke-linecap:round;stroke-linejoin:round;stroke-opacity:1" />
    <path
       inkscape:connector-curvature="0"
       id="path7803"
       d="m 10.358878,198.9646 c 3.60065,-20.47877 6.27678,-37.73029 22.08507,-45.76976 17.08916,-8.69087 34.83057,20.47843 32.49707,37.70149 -2.2973,16.95593 -12.90285,109.60697 -17.08237,140.57452 L 1.5457876,324.66488 c -3.63635,-30.24572 5.52249,-106.98496 8.8130904,-125.70028 z"
       style="display:inline;fill:#1c1f24;stroke:#000000;stroke-width:1.5;stroke-linecap:round;stroke-linejoin:round;stroke-opacity:1"
       sodipodi:nodetypes="sssccs" />
    <path
       sodipodi:nodetypes="ccccc"
       inkscape:connector-curvature="0"
       id="path7805"
       d="m 164.36556,283.17316 -7.96935,50.66225 -4.4997,-53.96552 2.59157,-14.67624 z"
       style="display:inline;fill:#1c1f24;fill-opacity:1;stroke:none;stroke-width:1.5;stroke-linecap:round;stroke-linejoin:round;stroke-opacity:1" />
    <path
       sodipodi:nodetypes="cccsccc"
       inkscape:connector-curvature="0"
       id="path7807"
       d="m 167.96412,403.19275 c -7.02916,-2.98145 -19.24384,-4.85034 -21.55403,-6.66004 -2.22501,-1.74292 -3.75596,-4.99658 -3.46194,-9.17042 2.11759,-30.06182 5.26025,-96.46366 7.46627,-108.28319 5.12299,-27.44835 3.0818,-64.72715 -7.12111,-89.53116 l 10.16282,10.09575 c 4.3304,18.64929 5.94343,47.28824 -0.36419,79.24163"
       style="display:inline;fill:#1c1f24;fill-opacity:1;stroke:#000000;stroke-width:1.5;stroke-linecap:round;stroke-linejoin:round;stroke-opacity:1" />
    <g
       id="g7853">
      <path
         sodipodi:nodetypes="cccccsssscscc"
         inkscape:connector-curvature="0"
         style="display:inline;fill:#deaa87;stroke:#000000;stroke-width:1.5;stroke-linecap:round;stroke-linejoin:miter;stroke-opacity:1"
         d="m 132.31968,153.48493 c 11.66892,6.5515 21.723,7.00138 24.75991,2.34138 3.15971,-4.84836 5.79938,-9.11025 8.76323,-14.28776 2.69136,-4.70138 13.59718,-22.75479 15.07394,-30.57951 0.55895,-2.96153 2.07943,-13.576237 3.0612,-18.073044 0.66846,-3.061614 3.53106,-8.85096 4.18074,-11.540101 0.81239,-3.362669 -0.33452,-8.222992 -0.741,-11.933153 -0.70471,-6.432229 -2.48042,-15.920304 -3.73784,-20.639351 -3.0966,-11.621419 -14.70927,-21.645608 -25.50383,-28.263105 -15.6476,-9.592617 -42.08268,-9.265388 -61.004573,5.894013 -16.533279,13.245705 -24.273289,39.094138 -25.274999,51.593734 -0.77758,9.702953 3.35721,19.820237 5.31442,25.480787 1.32973,3.84587 2.85711,8.51628 4.19072,12.32216"
         id="path7809" />
      <path
         sodipodi:nodetypes="csssssscsscc"
         inkscape:connector-curvature="0"
         id="path7811"
         d="m 144.76375,112.8616 c 1.09592,0.42176 2.66919,1.20906 4.22775,1.16335 2.90196,-0.0851 4.45089,-1.529 7.13065,-1.75573 1.70343,-0.14413 3.36321,-0.32143 4.36779,-0.29549 1.68249,0.0434 3.28882,-1.42884 5.57894,-1.04999 2.09485,0.34656 3.28795,1.0654 3.12324,2.97455 -0.34033,3.94452 -0.1834,2.44444 -1.93452,4.73371 l -3.94183,5.15325 c 0.243,-1.90819 0.53844,-5.2569 -0.26571,-5.69569 -0.59095,-0.32245 -2.20645,-1.14791 -3.04974,-0.82026 -0.6578,0.25558 -2.39673,1.57907 -4.29184,3.62589 5.41417,-9.88744 -9.66088,-1.09473 -10.94473,-8.03359 z"
         style="fill:#deaa87;stroke:none;stroke-width:1.5;stroke-linecap:round" />
      <path
         sodipodi:nodetypes="scscccsssssssssssssccssccccsss"
         inkscape:connector-curvature="0"
         id="path7813"
         d="m 134.35359,49.616268 c 0.12,7.893019 2.76781,14.933912 6.50669,17.453568 -2.90612,0.817824 -6.37956,2.454167 -5.69473,6.370692 0.59398,3.397138 4.04842,3.697459 5.41834,4.869639 l 11.73024,2.818263 c 1.89905,-2.925382 1.76546,-5.995696 -0.45538,-10.837256 4.56178,3.082733 8.18366,5.001094 10.46704,6.934356 0.74899,0.634135 1.2215,1.991549 0.56893,3.330885 -1.31964,2.708504 -3.88118,4.578199 -5.79355,6.011359 -2.97286,2.227945 -4.95672,5.806293 -10.69705,6.811472 -2.67235,0.467953 -9.14154,-7.779898 -10.77141,-8.250832 -2.45066,-0.708134 -4.24111,2.257315 -6.11617,4.879395 -1.14123,1.59589 -5.82293,11.778351 -4.03126,23.722081 1.80431,12.02797 2.65068,26.33464 6.95547,34.51171 5.57149,10.5832 17.54805,10.58775 21.10432,8.40628 4.02743,-2.4705 7.60768,-11.57871 13.36431,-19.73354 3.75633,-5.3212 10.00952,-17.73332 11.58628,-22.50441 1.45987,-4.41739 2.53517,-8.06093 1.95774,-11.5219 -0.3671,-2.20032 -0.69886,-3.548004 -3.29522,-3.865768 -3.92358,-0.480198 -6.66945,-5.026318 -7.45174,-8.52883 -1.36907,1.150302 -0.54856,5.544727 -0.28241,12.664538 -0.63117,-2.73375 -1.85349,-11.45811 -2.28217,-13.20453 -0.51579,-2.101383 2.82613,-8.199755 4.7676,-9.38393 0.71519,-0.436257 4.04073,-0.683688 4.98162,-1.51034 -0.43106,1.435148 -5.9647,6.971812 -3.87413,7.195006 l 9.5684,7.426125 c 0.78267,-4.18031 4.80742,-10.034838 2.26721,-13.922142 3.48269,-4.80359 -1.27061,-29.697598 -4.12524,-35.716648 -4.02516,-8.487158 -24.16073,-27.571122 -36.506,-26.747081 -9.25666,0.617878 -10.09238,17.545836 -9.86773,32.321838 z"
         style="display:inline;fill:#e9c6af;stroke:none;stroke-width:1.5;stroke-linecap:round" />
      <path
         sodipodi:nodetypes="cccccc"
         inkscape:connector-curvature="0"
         id="path7815"
         d="m 173.73235,86.739976 -4.81332,2.666737 3.51445,3.605589 9.73449,0.705931 -1.34783,-4.408648 z"
         style="display:inline;fill:#fefefe;fill-opacity:1;stroke:none;stroke-width:1.5;stroke-linecap:round" />
      <path
         sodipodi:nodetypes="cccccc"
         inkscape:connector-curvature="0"
         id="path7817"
         d="m 152.84628,80.16858 -9.35174,-3.081412 -8.63274,1.28249 10.62916,6.508003 8.58031,-0.438093 z"
         style="display:inline;fill:#fefefe;fill-opacity:1;stroke:none;stroke-width:1.5;stroke-linecap:round" />
      <path
         sodipodi:nodetypes="cssc"
         inkscape:connector-curvature="0"
         id="path7819"
         d="m 154.07127,84.439568 c -1.41891,0.125301 -3.78784,3.033496 -6.00999,2.551005 -2.38137,-0.517069 -5.59326,-1.492805 -7.19323,-2.747928 -1.63434,-1.282101 -4.32092,-4.221595 -6.00625,-5.872987"
         style="display:inline;fill:#fefefe;fill-opacity:1;stroke:#916f6f;stroke-width:1.5;stroke-linecap:round;stroke-linejoin:miter;stroke-opacity:1" />
      <path
         sodipodi:nodetypes="sccs"
         inkscape:connector-curvature="0"
         id="path7821"
         d="m 147.11616,84.336369 c -3.10628,-0.647246 -3.9769,-5.106259 -3.67625,-7.194574 l 8.96743,2.989615 c -0.99447,4.024939 -3.71635,4.533101 -5.29118,4.204959 z"
         style="display:inline;fill:#2b0000;stroke:none;stroke-width:1.5;stroke-linecap:round" />
      <path
         sodipodi:nodetypes="cssc"
         inkscape:connector-curvature="0"
         id="path7823"
         d="m 182.16797,93.718233 c -1.05794,1.162738 -2.60488,2.652118 -3.7648,2.427119 -2.02784,-0.393358 -5.95041,-1.166197 -7.28037,-2.851771 -0.42187,-0.534669 -1.89568,-3.347089 -2.20377,-3.886868"
         style="display:inline;fill:#fefefe;fill-opacity:1;stroke:#916f6f;stroke-width:1.5;stroke-linecap:round;stroke-linejoin:miter;stroke-opacity:1" />
      <path
         sodipodi:nodetypes="cscc"
         inkscape:connector-curvature="0"
         id="path7825"
         d="m 181.03573,89.813311 c -0.0376,2.457932 -1.7335,4.718228 -3.80652,4.121229 -2.45782,-0.707794 -3.11066,-5.013237 -1.91081,-6.871162 z"
         style="display:inline;fill:#2b0000;stroke:none;stroke-width:1.5;stroke-linecap:round" />
      <path
         sodipodi:nodetypes="cc"
         inkscape:connector-curvature="0"
         id="path7827"
         d="m 164.61907,75.396574 c 0.32347,2.311392 -1.20562,3.93445 -1.922,5.165705"
         style="display:inline;fill:none;stroke:#000000;stroke-width:1.5;stroke-linecap:round;stroke-linejoin:miter;stroke-opacity:1" />
      <path
         sodipodi:nodetypes="ssssss"
         inkscape:connector-curvature="0"
         id="path7829"
         d="m 160.52467,77.119031 c -6.2336,-1.16647 -8.83979,-5.886592 -14.77014,-8.032499 -4.89671,-1.771874 -14.47714,-4.550248 -12.63541,-4.698805 4.04473,-0.326264 9.29119,1.293388 14.21073,3.083689 1.80326,0.656235 5.26026,1.839787 8.34355,3.788365 3.51971,2.224376 10.82528,6.977144 4.85127,5.85925 z"
         style="display:inline;fill:#000000;stroke:none;stroke-width:1.5;stroke-linecap:round" />
      <path
         sodipodi:nodetypes="sssss"
         inkscape:connector-curvature="0"
         id="path7831"
         d="m 187.35934,80.916203 c -0.52563,-0.720683 -4.24264,-1.022548 -6.83693,-1.394381 -3.16613,-0.453792 -9.22785,0.941669 -8.13191,1.806509 3.2662,2.577506 5.75731,0.09965 9.32146,0.09916 2.89752,-3.99e-4 6.46802,0.613871 5.64738,-0.511288 z"
         style="display:inline;fill:#000000;stroke:none;stroke-width:1.5;stroke-linecap:round" />
      <path
         style="display:inline;fill:#deaa87;stroke:none;stroke-width:1.5;stroke-linecap:round"
         d="m 145.81713,113.66406 c 0.59931,1.93678 1.9954,3.03365 3.59245,1.88502 4.03022,-2.89863 14.79696,-6.07951 17.9186,-3.88902 2.64369,1.85511 0.25734,5.97121 -0.90306,7.45526 -0.86902,1.11143 -1.14423,1.98875 -2.33623,3.80255 l -14.75666,-1.99193 c -2.49697,-2.18759 -3.8687,-4.76888 -3.5151,-7.26188 z"
         id="path7833"
         inkscape:connector-curvature="0"
         sodipodi:nodetypes="csssccc" />
      <path
         sodipodi:nodetypes="cc"
         inkscape:connector-curvature="0"
         id="path7835"
         d="m 145.36292,110.56984 c -0.87346,1.69303 0.18707,4.53082 1.65503,5.05983"
         style="display:inline;fill:none;stroke:#000000;stroke-width:1.5;stroke-linecap:round;stroke-linejoin:miter;stroke-opacity:1" />
      <path
         sodipodi:nodetypes="cssc"
         inkscape:connector-curvature="0"
         id="path7837"
         d="m 154.91391,85.673964 c -1.65846,-2.293808 -0.22603,-4.445956 -2.06763,-5.505384 -2.18434,-1.256604 -5.74717,-2.684427 -9.35174,-3.081412 -3.1893,-0.351245 -8.36258,1.145604 -10.68757,1.761747"
         style="display:inline;fill:none;stroke:#000000;stroke-width:1.5;stroke-linecap:round;stroke-linejoin:miter;stroke-opacity:1" />
      <path
         sodipodi:nodetypes="cssc"
         inkscape:connector-curvature="0"
         id="path7839"
         d="m 182.80984,94.986046 c -0.56414,-1.807281 -0.29655,-4.893766 -1.9897,-5.676461 -1.42807,-0.660311 -5.10999,-2.784786 -7.08779,-2.569609 -1.10689,0.120431 -3.64457,1.639827 -5.56516,3.296412"
         style="display:inline;fill:none;stroke:#000000;stroke-width:1.5;stroke-linecap:round;stroke-linejoin:miter;stroke-opacity:1" />
      <path
         sodipodi:nodetypes="cc"
         inkscape:connector-curvature="0"
         id="path7841"
         d="m 155.18538,115.59962 c 2.23902,-1.67045 5.1356,-1.33194 8.26225,-1.94092"
         style="fill:none;stroke:#000000;stroke-width:1.5;stroke-linecap:round;stroke-linejoin:miter;stroke-opacity:1" />
      <path
         sodipodi:nodetypes="cc"
         inkscape:connector-curvature="0"
         id="path7843"
         d="m 164.3419,117.32814 c 0.43143,-0.53455 2.2039,-2.09346 2.79518,-2.71142"
         style="display:inline;fill:none;stroke:#000000;stroke-width:1.5;stroke-linecap:round;stroke-linejoin:miter;stroke-opacity:1" />
      <path
         sodipodi:nodetypes="sssss"
         inkscape:connector-curvature="0"
         id="path7845"
         d="m 148.03432,134.88644 c -0.0354,-1.44375 3.79963,-1.38712 6.9042,-1.2767 3.22759,0.11479 5.86446,0.92871 5.44024,1.96606 -0.83735,2.04766 -3.00155,3.35442 -6.76101,3.25628 -3.13287,-0.0818 -5.53067,-1.78744 -5.58343,-3.94564 z"
         style="display:inline;fill:#deaa87;stroke:none;stroke-width:1.5;stroke-linecap:round" />
      <path
         sodipodi:nodetypes="csc"
         inkscape:connector-curvature="0"
         style="display:inline;fill:#deaa87;stroke:#000000;stroke-width:1.5;stroke-linecap:round;stroke-linejoin:miter;stroke-opacity:1"
         d="m 90.704075,112.76515 c 0.371493,3.69334 1.657983,10.76429 2.983698,14.21423 1.142749,2.9738 17.541057,14.37971 30.048757,21.79938"
         id="path7847" />
      <path
         sodipodi:nodetypes="ssssssscs"
         inkscape:connector-curvature="0"
         id="path7849"
         d="m 165.45754,121.30632 c -0.67806,-0.75021 -1.69378,0.84696 -3.87244,0.4726 -2.95083,-0.5071 -3.2,-3.21913 -4.2817,-3.05498 -4.56533,0.69329 -17.14027,2.72271 -18.49121,4.52788 -1.3648,1.82359 -2.29518,6.80243 -0.93601,6.75683 6.04009,-0.20271 15.97302,-1.13019 20.18252,-0.40065 5.95613,1.03224 6.60919,4.42674 9.38707,4.61811 0.61495,0.0424 3.61731,-4.32667 2.8151,-5.55933 -0.4321,-2.08598 -3.77158,-6.21892 -4.80333,-7.36046 z"
         style="display:inline;fill:#000000;stroke:none;stroke-width:1.5;stroke-linecap:round" />
      <path
         sodipodi:nodetypes="csssc"
         inkscape:connector-curvature="0"
         id="path7851"
         d="m 173.28745,78.088836 c -2.30046,3.766133 -5.84119,8.875412 -5.97699,11.667246 -0.1509,3.100854 4.10421,14.756838 4.52843,16.423838 0.27815,1.09304 0.40018,2.94381 -0.13242,4.6031 -0.62209,1.93811 -2.99653,4.85398 -5.34902,8.27439"
         style="display:inline;fill:none;stroke:#000000;stroke-width:1.5;stroke-linecap:round;stroke-linejoin:miter;stroke-opacity:1" />
    </g>
    <g
       id="g7859">
      <path
         sodipodi:nodetypes="csssscc"
         inkscape:connector-curvature="0"
         id="path7855"
         d="M 131.8479,72.119873 84.887908,70.388168 c -10.733809,-0.395822 -12.41869,14.498834 -12.25765,21.271004 0.0778,3.270756 4.23801,6.473996 4.6556,1.903887 0.41453,-4.536707 -0.2974,-22.637482 8.41859,-21.266591 l 44.749002,4.327013 z"
         style="display:inline;opacity:0.95;fill:#241c1c;stroke:#000000;stroke-width:1.5;stroke-linecap:round;stroke-linejoin:round" />
      <path
         sodipodi:nodetypes="cssccsssscc"
         inkscape:connector-curvature="0"
         id="path7857"
         d="m 188.27182,90.761709 c -3.27315,-3.771549 -11.82108,-7.831293 -16.39384,-8.265547 -2.45048,-0.232711 -3.27392,-0.806629 -4.85095,-1.717125 -9.2367,-5.332809 -26.37366,-8.536242 -35.17913,-8.659164 -0.62619,0.776955 -1.47622,3.110697 -1.39445,4.503608 5.22647,5.801036 9.88934,9.262761 14.96917,11.539298 5.02956,2.254008 14.14327,-0.495715 16.93663,-0.97713 1.54466,-0.266205 5.48097,1.180258 6.35925,2.321958 1.93229,2.511769 5.96051,8.751204 9.41151,9.568664 2.1707,0.51419 6.3857,-0.52906 9.49147,-3.886709 0.515,-1.112546 0.86385,-2.969691 0.65034,-4.427853 z"
         style="display:inline;opacity:0.8;fill:#280b0b;stroke:#000000;stroke-width:1.5;stroke-linecap:round;stroke-linejoin:round" />
    </g>
    <g
       style="stroke-width:1.42943096"
       transform="matrix(1.0493686,0,0,1.0493686,-5.6148624,-5.6053691)"
       id="g7865">
      <path
         sodipodi:nodetypes="csssc"
         inkscape:connector-curvature="0"
         id="path7861"
         d="m 89.678682,108.35584 c -1.715548,-3.13184 -10.508873,2.05135 -12.27003,-5.03768 -1.117616,-4.498708 -3.724218,-10.129187 -3.909472,-18.747161 -0.1837,-8.545822 2.747238,-11.953144 5.139328,-13.698308 3.46466,-2.527664 8.915647,1.080235 12.207454,4.504852"
         style="display:inline;opacity:1;fill:#deaa87;stroke:#000000;stroke-width:1.42943096;stroke-linecap:round;stroke-linejoin:miter;stroke-opacity:1" />
      <path
         sodipodi:nodetypes="csssssssc"
         inkscape:connector-curvature="0"
         id="path7863"
         d="m 80.400228,95.15457 c 1.416346,-1.812589 5.030878,-3.318877 6.123867,-6.075358 1.03567,-2.611892 2.372669,-5.21603 1.812211,-7.177566 -0.847803,-2.967094 -3.817695,-8.184682 -6.38082,-8.254716 -2.055427,-0.05616 -4.0444,1.567899 -5.011255,4.376611 -2.369905,6.884565 0.228983,16.778756 4.743262,18.021238 2.53027,0.696443 5.571512,5.864341 6.747601,4.527561 1.152825,-1.310408 -1.198275,-4.416759 -1.318649,-5.852581 -0.07254,-0.865077 2.637452,-3.393922 3.181718,-5.496685"
         style="display:inline;opacity:0.95;fill:none;stroke:#000000;stroke-width:1.42943096;stroke-linecap:round;stroke-linejoin:miter;stroke-opacity:1" />
    </g>
  </g>
  <g
     inkscape:groupmode="layer"
     id="layer8"
     inkscape:label="豚"
     style="display:inline"
     sodipodi:insensitive="true">
    <path
       sodipodi:nodetypes="csssscc"
       inkscape:connector-curvature="0"
       id="path6942-2"
       d="m 188.27535,92.318575 -41.29931,-4.434164 c -10.67974,-1.146647 -11.80066,11.40867 -11.63962,18.180839 0.0778,3.27075 4.23801,6.47399 4.6556,1.90389 0.41453,-4.53671 -1.61494,-19.61339 7.09041,-18.176429 l 40.54258,6.953717 z"
       style="display:inline;opacity:0.95;fill:#241c1c;stroke:#000000;stroke-width:1.5;stroke-linecap:round;stroke-linejoin:round" />
    <path
       style="display:inline;fill:#deaa87;stroke:none;stroke-linecap:round;stroke-linejoin:round"
       d="m 80.731568,131.77767 -7.98107,14.3518 61.902982,36.89602 2.698,-13.87808 z"
       id="path6880-9"
       inkscape:connector-curvature="0"
       sodipodi:nodetypes="ccccc" />
    <path
       style="display:inline;fill:#dbdee3;stroke:none;stroke-width:1.5;stroke-linecap:round"
       d="m 143.02475,175.60615 -33.10663,-6.1822 35.0189,111.79248 23.11002,-9.43481 z"
       id="path4684-5-5-2-1-3"
       inkscape:connector-curvature="0"
       sodipodi:nodetypes="ccccc" />
    <path
       style="display:inline;fill:#550000;stroke:#000000;stroke-width:1.5;stroke-linecap:round;stroke-linejoin:miter;stroke-opacity:1"
       d="m 142.026,194.65277 c 9.89725,25.42492 16.18823,49.85085 20.03681,88.24384 -0.8265,7.489 -3.60643,24.14151 -8.00514,33.4726 -5.67775,-10.75218 -9.89197,-37.63439 -9.89197,-37.63439 0.6502,-35.26575 -2.1091,-54.93851 -8.94975,-83.62648 l 3.272,-5.99785 z"
       id="path6770-0-4-6-9-3"
       inkscape:connector-curvature="0"
       sodipodi:nodetypes="ccccccc" />
    <path
       style="display:inline;fill:#1c1f24;fill-opacity:1;stroke:#000000;stroke-width:1.5;stroke-linecap:round;stroke-linejoin:round;stroke-opacity:1"
       d="m 140.52815,171.25511 c 9.28855,8.4428 14.31758,13.47944 16.05117,15.51041 3.71507,4.35235 6.75196,10.03444 7.91352,12.68581 1.56835,3.57991 9.98812,26.79368 10.79186,40.60493 0.98493,16.92477 -1.07241,43.5788 -2.502,52.88146 -2.06195,13.41764 -2.52963,69.82015 -2.57535,110.25503 l -13.68654,-20.30422 -2.14612,-103.49372 2.41424,-44.20107 -5.58466,-36.69791 z"
       id="path1365"
       inkscape:connector-curvature="0"
       sodipodi:nodetypes="csssscccccc" />
    <path
       style="display:inline;fill:#550000;stroke:#000000;stroke-width:1.5;stroke-linecap:round;stroke-linejoin:round;stroke-opacity:1"
       d="m 139.09841,174.49195 c -2.67656,-0.89989 -5.20963,-1.45753 -10.65839,-0.61939 l -5.59403,4.35489 c 2.69998,6.30758 9.00962,13.29619 12.29562,17.47974 4.39593,-1.46896 6.14095,-1.85401 7.39642,0.0343 0.4526,-4.81408 0.24885,-12.22654 0.0761,-16.60906 z"
       id="path6768-9-1-6-6-4"
       inkscape:connector-curvature="0"
       sodipodi:nodetypes="ccccccc" />
    <path
       style="display:inline;fill:#dbdbe3;stroke:#000000;stroke-width:1.5;stroke-linecap:round;stroke-linejoin:round;stroke-opacity:1"
       d="m 139.72522,170.73957 c 2.89509,7.27766 4.6504,11.2088 6.30432,20.70847 -2.10846,-9.3088 -6.18407,-16.46934 -9.34152,-19.02905 -0.0197,-6.80796 -5.25691,-12.55992 -8.62674,-17.92537 4.47166,3.76815 9.22189,9.11568 11.66394,16.24595 z"
       id="path6886-1"
       inkscape:connector-curvature="0"
       sodipodi:nodetypes="ccccc" />
    <path
       style="display:inline;fill:#1c1f24;fill-opacity:1;stroke:#000000;stroke-width:1.5;stroke-linecap:round;stroke-linejoin:round;stroke-opacity:1"
       d="m 145.53654,189.54794 c -2.38032,-11.55609 -3.84168,-16.14093 -8.08797,-24.99551 l 4.05952,6.83744 c 2.93089,5.46071 8.82331,13.72431 10.49223,18.38925 l 0.5678,9.4497 z"
       id="path484"
       inkscape:connector-curvature="0"
       sodipodi:nodetypes="cccccc" />
    <path
       style="display:inline;fill:#1c1f24;fill-opacity:1;stroke:#000000;stroke-width:1.5;stroke-linecap:round;stroke-linejoin:miter;stroke-opacity:1"
       d="m 22.077868,392.05574 c 0.69845,-42.18844 12.94038,-77.85431 11.79895,-88.0754 -3.40506,-30.49023 -16.04532,-87.49826 -16.36841,-104.33951 -0.34553,-18.00802 9.64145,-46.75824 21.17232,-49.97914 11.98271,-3.34714 39.39521,-8.73073 47.79358,-6.0363 l 74.036022,138.46198 z"
       id="path522"
       inkscape:connector-curvature="0"
       sodipodi:nodetypes="ccccccc" />
    <path
       sodipodi:nodetypes="sssccs"
       style="display:inline;fill:#1c1f24;stroke:#000000;stroke-width:1.5;stroke-linecap:round;stroke-linejoin:round;stroke-opacity:1"
       d="m 12.602108,198.9646 c -0.84252,-10.75116 6.59927,-35.95658 22.08507,-45.76976 16.19438,-10.2622 34.83057,20.47843 32.49707,37.70149 -2.2973,16.95593 -8.96972,108.29593 -13.14924,139.26348 L 3.7890182,324.66488 C 5.2520482,299.51854 14.589508,224.32537 12.602108,198.9646 Z"
       id="path6900-3"
       inkscape:connector-curvature="0" />
    <path
       style="display:inline;fill:#1c1f24;fill-opacity:1;stroke:none;stroke-width:1.5;stroke-linecap:round;stroke-linejoin:round;stroke-opacity:1"
       d="m 166.60879,283.17316 -7.96935,50.66225 -4.4997,-53.96552 2.59157,-14.67624 z"
       id="path482-9"
       inkscape:connector-curvature="0"
       sodipodi:nodetypes="ccccc" />
    <path
       style="display:inline;fill:#1c1f24;fill-opacity:1;stroke:#000000;stroke-width:1.5;stroke-linecap:round;stroke-linejoin:round;stroke-opacity:1"
       d="m 170.20735,403.19275 c -7.02916,-2.98145 -19.24384,-4.85034 -21.55403,-6.66004 -2.22501,-1.74292 -3.75596,-4.99658 -3.46194,-9.17042 2.11759,-30.06182 5.26025,-96.46366 7.46627,-108.28319 5.12299,-27.44835 3.0818,-64.72715 -7.12111,-89.53116 l 10.16282,10.09575 c 4.3304,18.64929 5.94343,47.28824 -0.36419,79.24163"
       id="path541"
       inkscape:connector-curvature="0"
       sodipodi:nodetypes="cccsccc" />
    <g
       id="g7914"
       transform="matrix(-1,0,0,1,191.39776,0)">
      <path
         style="fill:#deaa87;fill-opacity:1;stroke:#000000;stroke-width:1.5;stroke-linecap:round;stroke-linejoin:round;stroke-opacity:1"
         d="m 55.500449,171.09796 c -0.74942,-5.98037 -4.27742,-10.2926 -7.051,-13.85812 l 35.48659,-62.09176 24.335701,16.16573 c -0.24157,4.93905 0.40598,12.48574 2.7819,20.8571"
         id="path6570-3-3"
         inkscape:connector-curvature="0"
         sodipodi:nodetypes="ccccc" />
      <path
         id="path1369"
         d="M 55.13526,156.18654 C 44.70241,163.04706 34.72788,162.3404 30.7639,155.82631 27.75554,150.88262 24.96455,146.71604 22.00067,141.53855 19.30934,136.83715 9.71454,118.78376 8.23777,110.95904 7.67883,107.99751 6.15836,97.382799 5.17657,92.885996 4.50813,89.824378 1.64551,84.035036 0.99583,81.345895 0.18344,77.983226 1.33035,73.122903 1.73683,69.412742 2.44154,62.980513 4.8352824,55.037519 6.0927024,50.318472 9.1893024,38.697053 20.18394,28.672864 30.9785,22.055367 46.6261,12.46275 73.06118,11.244898 91.983073,26.404299 c 16.533277,13.245705 24.273287,39.094138 25.274997,51.593734 0.77758,9.702953 -3.35721,19.820237 -5.31442,25.480787 -1.32973,3.84587 -2.85711,8.51628 -4.19072,12.32216"
         style="display:inline;fill:#deaa87;stroke:#000000;stroke-width:1.5;stroke-linecap:round;stroke-linejoin:miter;stroke-opacity:1"
         inkscape:connector-curvature="0"
         sodipodi:nodetypes="csssssssscscc" />
      <path
         style="fill:#deaa87;stroke:none;stroke-width:1.5;stroke-linecap:round"
         d="m 44.39078,112.8616 c -1.09592,0.42176 -2.66919,1.20906 -4.22775,1.16335 -2.90196,-0.0851 -4.45089,-1.529 -7.13065,-1.75573 -1.70343,-0.14413 -3.36321,-0.32143 -4.36779,-0.29549 -1.68249,0.0434 -3.28882,-1.42884 -5.57894,-1.04999 -2.09485,0.34656 -3.28795,1.0654 -3.12324,2.97455 0.34033,3.94452 0.1834,2.44444 1.93452,4.73371 l 3.94183,5.15325 c -0.243,-1.90819 -0.53844,-5.2569 0.26571,-5.69569 0.59095,-0.32245 2.20645,-1.14791 3.04974,-0.82026 0.6578,0.25558 2.39673,1.57907 4.29184,3.62589 -5.41417,-9.88744 9.66088,-1.09473 10.94473,-8.03359 z"
         id="path3561-4-4"
         inkscape:connector-curvature="0"
         sodipodi:nodetypes="csssssscsscc" />
      <path
         style="display:inline;fill:#e9c6af;stroke:none;stroke-width:1.5;stroke-linecap:round"
         d="m 54.80094,49.616268 c -0.12,7.893019 -2.76781,14.933912 -6.50669,17.453568 2.90612,0.817824 6.37956,2.454167 5.69473,6.370692 -0.59398,3.397138 -4.04842,3.697459 -5.41834,4.869639 L 36.8404,81.12843 c -1.89905,-2.925382 -1.76546,-5.995696 0.45538,-10.837256 -4.56178,3.082733 -8.18366,5.001094 -10.46704,6.934356 -0.74899,0.634135 -1.2215,1.991549 -0.56893,3.330885 1.31964,2.708504 3.88118,4.578199 5.79355,6.011359 2.97286,2.227945 4.95672,5.806293 10.69705,6.811472 2.67235,0.467953 9.14154,-7.779898 10.77141,-8.250832 2.45066,-0.708134 4.24111,2.257315 6.11617,4.879395 1.14123,1.59589 5.82293,11.778351 4.03126,23.722081 -1.80431,12.02797 -9.547866,32.75227 -14.526373,40.53753 -3.408376,5.32992 -10.749687,5.64349 -14.305957,3.46202 -4.02743,-2.4705 -8.53473,-12.66027 -14.29136,-20.8151 -3.75633,-5.3212 -8.30993,-17.73332 -9.88669,-22.50441 C 9.199,109.99254 8.1237,106.349 8.70113,102.88803 c 0.3671,-2.20032 0.69886,-3.548004 3.29522,-3.865768 3.92358,-0.480198 6.66945,-5.026318 7.45174,-8.52883 1.36907,1.150302 -0.842013,5.815116 -1.108163,12.934928 0.63117,-2.73375 2.857793,-12.539668 3.286473,-14.286088 0.51579,-2.101383 -2.43986,-5.92076 -4.38133,-7.104935 -0.71519,-0.436257 -4.04073,-0.683688 -4.98162,-1.51034 0.43106,1.435148 5.9647,5.503985 3.87413,5.727179 l -9.5684,7.426125 C 5.78651,89.499991 1.76176,83.645463 4.30197,79.758159 0.81928,74.954569 6.1906124,51.605642 9.0452424,45.586592 13.070402,37.099434 32.58794,18.01547 44.93321,18.839511 c 9.25666,0.617878 10.09238,16.000755 9.86773,30.776757 z"
         id="path3438-5-86-7-3-4-0-4"
         inkscape:connector-curvature="0"
         sodipodi:nodetypes="scscccsssssssssssssccssccccsss" />
      <path
         style="display:inline;fill:#fefefe;fill-opacity:1;stroke:none;stroke-width:1.5;stroke-linecap:round"
         d="m 15.42218,86.739976 4.81332,2.666737 -3.51445,3.605589 -9.73449,0.705931 1.34783,-4.408648 z"
         id="path3337-0-4-0-1-8-6-9"
         inkscape:connector-curvature="0"
         sodipodi:nodetypes="cccccc" />
      <path
         style="display:inline;fill:#fefefe;fill-opacity:1;stroke:none;stroke-width:1.5;stroke-linecap:round"
         d="m 35.098694,79.904818 9.35174,-3.081412 8.63274,1.28249 -10.62916,6.508003 -8.58031,-0.438093 z"
         id="path3353-4-1-2-2-4-9-8"
         inkscape:connector-curvature="0"
         sodipodi:nodetypes="cccccc" />
      <path
         style="display:inline;fill:#fefefe;fill-opacity:1;stroke:#916f6f;stroke-width:1.5;stroke-linecap:round;stroke-linejoin:miter;stroke-opacity:1"
         d="m 33.873704,84.175806 c 1.41891,0.125301 3.78784,3.033496 6.00999,2.551005 2.38137,-0.517069 5.59326,-1.492805 7.19323,-2.747928 1.63434,-1.282101 4.32092,-4.221595 6.00625,-5.872987"
         id="path3339-7-3-9-4-5-2"
         inkscape:connector-curvature="0"
         sodipodi:nodetypes="cssc" />
      <path
         style="display:inline;fill:#2b0000;stroke:none;stroke-width:1.5;stroke-linecap:round"
         d="m 40.828814,84.072607 c 3.10628,-0.647246 3.9769,-5.106259 3.67625,-7.194574 l -8.96743,2.989615 c 0.99447,4.024939 3.71635,4.533101 5.29118,4.204959 z"
         id="path3357-1-2-4-7-5-3-8"
         inkscape:connector-curvature="0"
         sodipodi:nodetypes="sccs" />
      <path
         style="display:inline;fill:#fefefe;fill-opacity:1;stroke:#916f6f;stroke-width:1.5;stroke-linecap:round;stroke-linejoin:miter;stroke-opacity:1"
         d="m 6.98656,93.718233 c 1.05794,1.162738 2.60488,2.652118 3.7648,2.427119 2.02784,-0.393358 5.95041,-1.166197 7.28037,-2.851771 0.42187,-0.534669 1.89568,-3.347089 2.20377,-3.886868"
         id="path3355-7-9-3-0-3-6"
         inkscape:connector-curvature="0"
         sodipodi:nodetypes="cssc" />
      <path
         style="display:inline;fill:#2b0000;stroke:none;stroke-width:1.5;stroke-linecap:round"
         d="m 8.1188,89.813311 c 0.0376,2.457932 1.7335,4.718228 3.80652,4.121229 2.45782,-0.707794 3.11066,-5.013237 1.91081,-6.871162 z"
         id="path3357-0-8-6-7-0-2"
         inkscape:connector-curvature="0"
         sodipodi:nodetypes="cscc" />
      <path
         style="display:inline;fill:none;stroke:#000000;stroke-width:1.5;stroke-linecap:round;stroke-linejoin:miter;stroke-opacity:1"
         d="m 24.53546,75.396574 c -0.32347,2.311392 1.20562,3.93445 1.922,5.165705"
         id="path6643-0-0-5-2-6-7"
         inkscape:connector-curvature="0"
         sodipodi:nodetypes="cc" />
      <path
         style="display:inline;fill:#000000;stroke:none;stroke-width:1.5;stroke-linecap:round"
         d="m 28.47535,78.741366 c 6.2336,-1.16647 9.07155,-6.968149 15.0019,-9.114056 4.89671,-1.771874 14.47714,-4.550248 12.63541,-4.698805 -4.04473,-0.326264 -9.29119,1.293388 -14.21073,3.083689 -1.80326,0.656235 -5.26026,1.839787 -8.34355,3.788365 -3.51971,2.224376 -11.05704,8.058701 -5.08303,6.940807 z"
         id="path6645-7-0-4-0-3-1"
         inkscape:connector-curvature="0"
         sodipodi:nodetypes="ssssss" />
      <path
         style="display:inline;fill:#000000;stroke:none;stroke-width:1.5;stroke-linecap:round"
         d="m 2.10421,81.456981 c 0.52563,-0.720683 4.24264,-1.022548 6.83693,-1.394381 3.16613,-0.453792 9.63345,1.19851 8.51818,2.038271 -4.03874,3.04103 -6.14358,-0.132112 -9.70773,-0.132602 C 4.85407,81.96787 1.28357,82.58214 2.10421,81.456981 Z"
         id="path6647-1-6-2-0-5-1"
         inkscape:connector-curvature="0"
         sodipodi:nodetypes="sssss" />
      <path
         sodipodi:nodetypes="csssccc"
         inkscape:connector-curvature="0"
         id="path6710-3-4-7-4-0-6-1-1"
         d="m 43.3374,113.66406 c -0.59931,1.93678 -1.9954,3.03365 -3.59245,1.88502 -4.03022,-2.89863 -14.79696,-6.07951 -17.9186,-3.88902 -2.64369,1.85511 -0.25734,5.97121 0.90306,7.45526 0.86902,1.11143 1.14423,1.98875 2.33623,3.80255 l 14.75666,-1.99193 c 2.49697,-2.18759 3.8687,-4.76888 3.5151,-7.26188 z"
         style="display:inline;fill:#deaa87;stroke:none;stroke-width:1.5;stroke-linecap:round" />
      <path
         style="display:inline;fill:none;stroke:#000000;stroke-width:1.5;stroke-linecap:round;stroke-linejoin:miter;stroke-opacity:1"
         d="m 43.79161,110.56984 c 0.87346,1.69303 -0.18707,4.53082 -1.65503,5.05983"
         id="path6649-7-1-0-1-6-5"
         inkscape:connector-curvature="0"
         sodipodi:nodetypes="cc" />
      <path
         style="display:inline;fill:none;stroke:#000000;stroke-width:1.5;stroke-linecap:round;stroke-linejoin:miter;stroke-opacity:1"
         d="m 33.031064,85.410202 c 1.65846,-2.293808 0.22603,-4.445956 2.06763,-5.505384 2.18434,-1.256604 5.74717,-2.684427 9.35174,-3.081412 3.1893,-0.351245 8.36258,1.145604 10.68757,1.761747"
         id="path3337-7-8-7-6-8-7"
         inkscape:connector-curvature="0"
         sodipodi:nodetypes="cssc" />
      <path
         style="display:inline;fill:none;stroke:#000000;stroke-width:1.5;stroke-linecap:round;stroke-linejoin:miter;stroke-opacity:1"
         d="m 6.34469,94.986046 c 0.56414,-1.807281 0.29655,-4.893766 1.9897,-5.676461 1.42807,-0.660311 5.10999,-2.784786 7.08779,-2.569609 1.10689,0.120431 3.64457,1.639827 5.56516,3.296412"
         id="path3353-3-3-7-7-9-1"
         inkscape:connector-curvature="0"
         sodipodi:nodetypes="cssc" />
      <path
         style="fill:none;stroke:#000000;stroke-width:1.5;stroke-linecap:round;stroke-linejoin:miter;stroke-opacity:1"
         d="m 33.96915,115.59962 c -2.23902,-1.67045 -5.1356,-1.33194 -8.26225,-1.94092"
         id="path3823-9-2"
         inkscape:connector-curvature="0"
         sodipodi:nodetypes="cc" />
      <path
         style="display:inline;fill:none;stroke:#000000;stroke-width:1.5;stroke-linecap:round;stroke-linejoin:miter;stroke-opacity:1"
         d="m 24.81263,117.32814 c -0.43143,-0.53455 -2.2039,-2.09346 -2.79518,-2.71142"
         id="path3823-1-7-2"
         inkscape:connector-curvature="0"
         sodipodi:nodetypes="cc" />
      <path
         style="display:inline;fill:#deaa87;stroke:none;stroke-width:1.5;stroke-linecap:round"
         d="m 39.1116,137.04955 c 0.0354,-1.44375 -3.79963,-1.38712 -6.9042,-1.2767 -3.22759,0.11479 -4.47388,1.31498 -4.04966,2.35233 0.83735,2.04766 1.61097,2.96815 5.37043,2.87001 3.13287,-0.0818 5.53067,-1.78744 5.58343,-3.94564 z"
         id="path6710-3-4-7-4-0-6-1"
         inkscape:connector-curvature="0"
         sodipodi:nodetypes="sssss" />
      <path
         id="path1371"
         d="m 98.450455,115.60575 c -0.371493,3.69334 -1.657983,9.23473 -2.983698,12.68467 -1.142749,2.9738 -17.541057,13.99572 -30.048757,21.41539"
         style="display:inline;fill:#deaa87;stroke:#000000;stroke-width:1.5;stroke-linecap:round;stroke-linejoin:miter;stroke-opacity:1"
         inkscape:connector-curvature="0"
         sodipodi:nodetypes="csc" />
      <path
         style="display:inline;fill:#000000;stroke:none;stroke-width:1.5;stroke-linecap:round"
         d="m 23.04147,121.30632 c 0.67806,-0.75021 1.69378,0.84696 3.87244,0.4726 2.95083,-0.5071 3.2,-3.21913 4.2817,-3.05498 4.56533,0.69329 18.53084,3.64976 19.88178,5.45493 1.3648,1.82359 1.05912,7.57497 -0.30005,7.52937 -6.04009,-0.20271 -16.45726,0.14223 -20.57428,1.28341 -5.30061,1.46926 -6.21743,3.8087 -8.99531,4.00007 -0.61495,0.0424 -3.70081,-5.41693 -3.18812,-6.79539 0.74261,-1.99663 3.99009,-7.74847 5.02184,-8.89001 z"
         id="path6633-4-0-6-4-8-55"
         inkscape:connector-curvature="0"
         sodipodi:nodetypes="sssssssss" />
      <path
         style="display:inline;fill:none;stroke:#000000;stroke-width:1.5;stroke-linecap:round;stroke-linejoin:miter;stroke-opacity:1"
         d="m 15.86708,78.088836 c 2.30046,3.766133 5.223158,7.948363 5.358958,10.740197 0.1509,3.100854 -3.486178,15.683887 -3.910398,17.350887 -0.27815,1.09304 -0.40018,2.94381 0.13242,4.6031 0.62209,1.93811 2.99653,4.85398 5.34902,8.27439"
         id="path6629-0-6-3-5-0-4"
         inkscape:connector-curvature="0"
         sodipodi:nodetypes="csssc" />
    </g>
    <path
       style="display:inline;fill:#dbdbe3;stroke:#000000;stroke-width:1.5;stroke-linecap:round;stroke-linejoin:round;stroke-opacity:1"
       d="m 136.1394,172.35739 c -3.10566,1.93744 -10.09973,18.3187 -13.11435,23.61083 -18.66188,-18.64214 -38.495522,-36.24999 -49.595922,-55.99703 l 6.31852,-8.12675 c -0.54059,2.21648 24.988972,11.89266 56.391752,40.51295 z"
       id="path1538"
       inkscape:connector-curvature="0"
       sodipodi:nodetypes="ccccc" />
    <path
       style="display:inline;opacity:0.2;fill:#000000;stroke:none;stroke-width:1.5;stroke-linecap:round;stroke-linejoin:round"
       d="m 186.62389,93.186234 c -2.50837,-4.427071 -8.58806,-4.713818 -13.59783,-6.295236 -2.34733,-0.740974 -3.27392,-1.243644 -4.85095,-2.15414 -9.2367,-5.332809 -26.37366,-8.536242 -35.17913,-8.659164 -0.62619,0.776955 -1.47622,3.110697 -1.39445,4.503608 5.99125,5.582529 17.07519,12.197432 20.3226,13.178104 4.13603,1.249021 11.41869,-2.764731 14.56959,-3.305732 1.54483,-0.265242 3.50892,-0.478808 4.06815,0.848641 l 0.41233,1.550948 c 1.24543,3.063943 4.56041,8.829877 7.00222,9.408287 2.1707,0.51419 4.76885,-1.29692 7.76537,-3.179635 0.515,-1.112551 1.09561,-4.437519 0.8821,-5.895681 z"
       id="path6944-8"
       inkscape:connector-curvature="0"
       sodipodi:nodetypes="cssccssccscc" />
    <g
       id="g2052"
       transform="translate(2.2432282)">
      <path
         style="display:inline;opacity:0.95;fill:#241c1c;stroke:#000000;stroke-width:1.5;stroke-linecap:round;stroke-linejoin:round"
         d="M 133.08396,73.664954 87.051021,73.47833 c -10.741016,-0.04355 -12.41869,14.498834 -12.25765,21.271004 0.0778,3.270756 4.23801,6.473996 4.6556,1.903887 0.41453,-4.536707 -0.400832,-21.522739 8.41859,-21.266591 l 43.821949,2.781932 z"
         id="path6942"
         inkscape:connector-curvature="0"
         sodipodi:nodetypes="csssscc" />
      <path
         style="display:inline;opacity:0.8;fill:#280b0b;stroke:#000000;stroke-width:1.5;stroke-linecap:round;stroke-linejoin:round"
         d="m 186.03212,92.318575 c -2.50837,-4.427071 -6.52228,-6.711443 -12.40608,-8.620622 -2.34133,-0.759717 -3.27392,-1.243644 -4.85095,-2.15414 -9.2367,-5.332809 -26.88566,-7.755937 -35.69113,-7.878859 -0.62619,0.776955 -1.47622,3.110697 -1.39445,4.503608 5.99125,5.582529 15.83913,10.652351 19.08654,11.633023 4.13603,1.249021 11.62167,-0.454874 14.77257,-0.995875 1.54483,-0.265242 4.79799,1.066276 5.35723,2.393721 0.92798,2.202753 2.62599,7.05938 6.07699,7.87684 2.1707,0.51419 5.40242,-0.447126 8.39894,-2.329843 0.515,-1.112546 0.86385,-2.969691 0.65034,-4.427853 z"
         id="path6944"
         inkscape:connector-curvature="0"
         sodipodi:nodetypes="cssccsssscc" />
    </g>
    <path
       style="display:inline;opacity:0.2;fill:#000000;stroke:none;stroke-width:1.5;stroke-linecap:round;stroke-linejoin:round"
       d="M 132.99598,76.077693 90.825748,73.109924 c -10.7146,-0.75405 -12.41869,14.498834 -12.25765,21.271004 0.0778,3.270756 4.23801,6.473992 4.6556,1.903887 0.41453,-4.536707 -0.32027,-22.483204 8.418586,-21.266591 l 39.959246,5.563078 z"
       id="path6942-6"
       inkscape:connector-curvature="0"
       sodipodi:nodetypes="csssscc" />
    <g
       id="g1398"
       transform="matrix(1.0493686,0,0,1.0493686,-2.2790918,-3.2017871)"
       style="stroke-width:1.42943096">
      <path
         style="display:inline;opacity:1;fill:#deaa87;stroke:#000000;stroke-width:1.42943096;stroke-linecap:round;stroke-linejoin:miter;stroke-opacity:1"
         d="m 89.678682,109.82823 c -1.715548,-3.13184 -8.634825,0.37073 -10.395982,-6.7183 -1.117616,-4.498706 -5.598266,-9.920957 -5.78352,-18.538931 -0.1837,-8.545822 2.747238,-10.92247 5.139328,-12.667634 3.46466,-2.527664 8.915647,0.04956 12.207454,3.474178"
         id="path6637-1-1-2-1-4-4"
         inkscape:connector-curvature="0"
         sodipodi:nodetypes="csssc" />
      <path
         style="display:inline;opacity:0.95;fill:none;stroke:#000000;stroke-width:1.42943096;stroke-linecap:round;stroke-linejoin:miter;stroke-opacity:1"
         d="m 81.283663,96.332483 c 1.416346,-1.812589 5.030878,-3.318877 6.123867,-6.075358 1.03567,-2.611892 1.489234,-6.393943 0.928776,-8.355479 -0.847803,-2.967094 -5.437325,-7.448486 -8.00045,-7.51852 -2.055427,-0.05616 -3.455444,2.745812 -4.422299,5.554524 -2.369905,6.884565 2.143092,16.04256 6.657371,17.285042 2.53027,0.696443 5.571512,5.864338 6.747601,4.527558 1.152825,-1.31041 -1.198275,-4.416756 -1.318649,-5.852578 -0.07254,-0.865077 2.637452,-3.393922 3.181718,-5.496685"
         id="path6639-8-8-6-7-8-2"
         inkscape:connector-curvature="0"
         sodipodi:nodetypes="csssssssc" />
    </g>
    <path
       style="display:inline;fill:#1c1f24;fill-opacity:1;stroke:#000000;stroke-width:1.5;stroke-linecap:round;stroke-linejoin:round;stroke-opacity:1"
       d="m 97.838134,153.19912 c 7.202196,7.03818 13.297086,13.92975 21.106916,28.81466 l -8.13169,9.88743 c -4.89502,-4.17868 -9.32432,-7.40712 -15.318806,-10.32081 -3.59047,-20.86814 -20.530986,-42.18386 -25.451786,-37.94593 l 6.32724,-8.9306 c 0.69294,2.48856 16.418972,11.34747 21.468126,18.49525 z"
       id="path482"
       inkscape:connector-curvature="0"
       sodipodi:nodetypes="ccccccc" />
    <path
       style="display:inline;fill:#1c1f24;fill-opacity:1;stroke:#000000;stroke-width:1.5;stroke-linecap:round;stroke-linejoin:round;stroke-opacity:1"
       d="m 21.640858,392.49275 c 12.89292,2.52858 90.093542,-10.72805 123.202962,2.95109 5.47853,2.26348 7.17768,-4.09731 8.60881,-12.33019 1.42757,-8.21234 9.56097,-93.76624 8.99474,-97.29162 -2.05626,-12.80252 -10.61603,-32.03853 -19.50116,-51.80496 -3.87454,-8.61955 -20.09662,-43.95285 -24.00116,-52.00329 l -20.969326,13.5457 c 15.562106,14.98388 50.109576,63.39487 59.132216,84.83151"
       id="path488"
       inkscape:connector-curvature="0"
       sodipodi:nodetypes="ccccsccc" />
  </g>
  <g
     inkscape:groupmode="layer"
     id="layer7"
     inkscape:label="枠面"
     style="display:inline"
     sodipodi:insensitive="true">
    <path
       style="display:inline;fill:#ffffff;stroke:none"
       d="M 0,0 V 320 H 370 V 0 L 360,10 V 310 H 10 V 10 H 360 L 370,0 Z"
       id="path21072"
       inkscape:connector-curvature="0"
       sodipodi:nodetypes="ccccccccccc" />
  </g>
</svg>
