<?xml version="1.0" encoding="UTF-8" standalone="no"?>
<!-- Created with Inkscape (http://www.inkscape.org/) -->

<svg
   xmlns:dc="http://purl.org/dc/elements/1.1/"
   xmlns:cc="http://creativecommons.org/ns#"
   xmlns:rdf="http://www.w3.org/1999/02/22-rdf-syntax-ns#"
   xmlns:svg="http://www.w3.org/2000/svg"
   xmlns="http://www.w3.org/2000/svg"
   xmlns:sodipodi="http://sodipodi.sourceforge.net/DTD/sodipodi-0.dtd"
   xmlns:inkscape="http://www.inkscape.org/namespaces/inkscape"
   width="370"
   height="320"
   id="svg2"
   version="1.1"
   inkscape:version="0.92.3 (2405546, 2018-03-11)"
   sodipodi:docname="[16.独白].svg"
   inkscape:export-filename="C:\Users\zhen-\Desktop\資料\臨時\HOSHI\16.png"
   inkscape:export-xdpi="96"
   inkscape:export-ydpi="96"
   enable-background="new">
  <defs
     id="defs4">
    <inkscape:perspective
       sodipodi:type="inkscape:persp3d"
       inkscape:vp_x="363.49708 : 943.81603 : 1"
       inkscape:vp_y="0 : 1000 : 0"
       inkscape:vp_z="744.09448 : 526.18109 : 1"
       inkscape:persp3d-origin="372.04724 : 350.78739 : 1"
       id="perspective5056" />
    <inkscape:perspective
       id="perspective5056-8"
       inkscape:persp3d-origin="372.04724 : 350.78739 : 1"
       inkscape:vp_z="744.09448 : 526.18109 : 1"
       inkscape:vp_y="0 : 1000 : 0"
       inkscape:vp_x="363.49708 : 943.81603 : 1"
       sodipodi:type="inkscape:persp3d" />
    <inkscape:perspective
       id="perspective5056-5"
       inkscape:persp3d-origin="372.04724 : 350.78739 : 1"
       inkscape:vp_z="744.09448 : 526.18109 : 1"
       inkscape:vp_y="0 : 1000 : 0"
       inkscape:vp_x="363.49708 : 943.81603 : 1"
       sodipodi:type="inkscape:persp3d" />
    <inkscape:perspective
       sodipodi:type="inkscape:persp3d"
       inkscape:vp_x="363.49708 : 943.81603 : 1"
       inkscape:vp_y="0 : 1000 : 0"
       inkscape:vp_z="744.09448 : 526.18109 : 1"
       inkscape:persp3d-origin="372.04724 : 350.78739 : 1"
       id="perspective5056-5-2" />
    <inkscape:perspective
       sodipodi:type="inkscape:persp3d"
       inkscape:vp_x="363.49708 : 943.81603 : 1"
       inkscape:vp_y="0 : 1000 : 0"
       inkscape:vp_z="744.09448 : 526.18109 : 1"
       inkscape:persp3d-origin="372.04724 : 350.78739 : 1"
       id="perspective5056-8-5" />
    <inkscape:perspective
       id="perspective5056-1"
       inkscape:persp3d-origin="372.04724 : 350.78739 : 1"
       inkscape:vp_z="744.09448 : 526.18109 : 1"
       inkscape:vp_y="0 : 1000 : 0"
       inkscape:vp_x="363.49708 : 943.81603 : 1"
       sodipodi:type="inkscape:persp3d" />
    <inkscape:perspective
       sodipodi:type="inkscape:persp3d"
       inkscape:vp_x="363.49708 : 943.81603 : 1"
       inkscape:vp_y="0 : 1000 : 0"
       inkscape:vp_z="744.09448 : 526.18109 : 1"
       inkscape:persp3d-origin="372.04724 : 350.78739 : 1"
       id="perspective5056-5-5" />
    <inkscape:perspective
       id="perspective5056-4"
       inkscape:persp3d-origin="372.04724 : 350.78739 : 1"
       inkscape:vp_z="744.09448 : 526.18109 : 1"
       inkscape:vp_y="0 : 1000 : 0"
       inkscape:vp_x="363.49708 : 943.81603 : 1"
       sodipodi:type="inkscape:persp3d" />
    <inkscape:perspective
       sodipodi:type="inkscape:persp3d"
       inkscape:vp_x="363.49708 : 943.81603 : 1"
       inkscape:vp_y="0 : 1000 : 0"
       inkscape:vp_z="744.09448 : 526.18109 : 1"
       inkscape:persp3d-origin="372.04724 : 350.78739 : 1"
       id="perspective5056-1-2" />
    <inkscape:perspective
       id="perspective5056-8-5-8"
       inkscape:persp3d-origin="372.04724 : 350.78739 : 1"
       inkscape:vp_z="744.09448 : 526.18109 : 1"
       inkscape:vp_y="0 : 1000 : 0"
       inkscape:vp_x="363.49708 : 943.81603 : 1"
       sodipodi:type="inkscape:persp3d" />
    <inkscape:perspective
       id="perspective5056-5-2-8"
       inkscape:persp3d-origin="372.04724 : 350.78739 : 1"
       inkscape:vp_z="744.09448 : 526.18109 : 1"
       inkscape:vp_y="0 : 1000 : 0"
       inkscape:vp_x="363.49708 : 943.81603 : 1"
       sodipodi:type="inkscape:persp3d" />
    <inkscape:perspective
       sodipodi:type="inkscape:persp3d"
       inkscape:vp_x="363.49708 : 943.81603 : 1"
       inkscape:vp_y="0 : 1000 : 0"
       inkscape:vp_z="744.09448 : 526.18109 : 1"
       inkscape:persp3d-origin="372.04724 : 350.78739 : 1"
       id="perspective5056-5-4" />
    <inkscape:perspective
       sodipodi:type="inkscape:persp3d"
       inkscape:vp_x="363.49708 : 943.81603 : 1"
       inkscape:vp_y="0 : 1000 : 0"
       inkscape:vp_z="744.09448 : 526.18109 : 1"
       inkscape:persp3d-origin="372.04724 : 350.78739 : 1"
       id="perspective5056-8-9" />
    <inkscape:perspective
       id="perspective5056-40"
       inkscape:persp3d-origin="372.04724 : 350.78739 : 1"
       inkscape:vp_z="744.09448 : 526.18109 : 1"
       inkscape:vp_y="0 : 1000 : 0"
       inkscape:vp_x="363.49708 : 943.81603 : 1"
       sodipodi:type="inkscape:persp3d" />
    <inkscape:perspective
       sodipodi:type="inkscape:persp3d"
       inkscape:vp_x="363.49708 : 943.81603 : 1"
       inkscape:vp_y="0 : 1000 : 0"
       inkscape:vp_z="744.09448 : 526.18109 : 1"
       inkscape:persp3d-origin="372.04724 : 350.78739 : 1"
       id="perspective5056-1-5" />
    <inkscape:perspective
       id="perspective5056-8-5-4"
       inkscape:persp3d-origin="372.04724 : 350.78739 : 1"
       inkscape:vp_z="744.09448 : 526.18109 : 1"
       inkscape:vp_y="0 : 1000 : 0"
       inkscape:vp_x="363.49708 : 943.81603 : 1"
       sodipodi:type="inkscape:persp3d" />
    <inkscape:perspective
       id="perspective5056-5-2-82"
       inkscape:persp3d-origin="372.04724 : 350.78739 : 1"
       inkscape:vp_z="744.09448 : 526.18109 : 1"
       inkscape:vp_y="0 : 1000 : 0"
       inkscape:vp_x="363.49708 : 943.81603 : 1"
       sodipodi:type="inkscape:persp3d" />
    <inkscape:perspective
       sodipodi:type="inkscape:persp3d"
       inkscape:vp_x="363.49708 : 943.81603 : 1"
       inkscape:vp_y="0 : 1000 : 0"
       inkscape:vp_z="744.09448 : 526.18109 : 1"
       inkscape:persp3d-origin="372.04724 : 350.78739 : 1"
       id="perspective5056-5-8" />
    <inkscape:perspective
       sodipodi:type="inkscape:persp3d"
       inkscape:vp_x="363.49708 : 943.81603 : 1"
       inkscape:vp_y="0 : 1000 : 0"
       inkscape:vp_z="744.09448 : 526.18109 : 1"
       inkscape:persp3d-origin="372.04724 : 350.78739 : 1"
       id="perspective5056-8-4" />
    <inkscape:perspective
       id="perspective5056-409"
       inkscape:persp3d-origin="372.04724 : 350.78739 : 1"
       inkscape:vp_z="744.09448 : 526.18109 : 1"
       inkscape:vp_y="0 : 1000 : 0"
       inkscape:vp_x="363.49708 : 943.81603 : 1"
       sodipodi:type="inkscape:persp3d" />
    <inkscape:perspective
       sodipodi:type="inkscape:persp3d"
       inkscape:vp_x="363.49708 : 943.81603 : 1"
       inkscape:vp_y="0 : 1000 : 0"
       inkscape:vp_z="744.09448 : 526.18109 : 1"
       inkscape:persp3d-origin="372.04724 : 350.78739 : 1"
       id="perspective5056-1-7" />
    <inkscape:perspective
       id="perspective5056-8-5-2"
       inkscape:persp3d-origin="372.04724 : 350.78739 : 1"
       inkscape:vp_z="744.09448 : 526.18109 : 1"
       inkscape:vp_y="0 : 1000 : 0"
       inkscape:vp_x="363.49708 : 943.81603 : 1"
       sodipodi:type="inkscape:persp3d" />
    <inkscape:perspective
       id="perspective5056-5-2-89"
       inkscape:persp3d-origin="372.04724 : 350.78739 : 1"
       inkscape:vp_z="744.09448 : 526.18109 : 1"
       inkscape:vp_y="0 : 1000 : 0"
       inkscape:vp_x="363.49708 : 943.81603 : 1"
       sodipodi:type="inkscape:persp3d" />
    <inkscape:perspective
       sodipodi:type="inkscape:persp3d"
       inkscape:vp_x="363.49708 : 943.81603 : 1"
       inkscape:vp_y="0 : 1000 : 0"
       inkscape:vp_z="744.09448 : 526.18109 : 1"
       inkscape:persp3d-origin="372.04724 : 350.78739 : 1"
       id="perspective5056-5-1" />
    <inkscape:perspective
       sodipodi:type="inkscape:persp3d"
       inkscape:vp_x="363.49708 : 943.81603 : 1"
       inkscape:vp_y="0 : 1000 : 0"
       inkscape:vp_z="744.09448 : 526.18109 : 1"
       inkscape:persp3d-origin="372.04724 : 350.78739 : 1"
       id="perspective5056-8-6" />
    <inkscape:perspective
       id="perspective5056-7"
       inkscape:persp3d-origin="372.04724 : 350.78739 : 1"
       inkscape:vp_z="744.09448 : 526.18109 : 1"
       inkscape:vp_y="0 : 1000 : 0"
       inkscape:vp_x="363.49708 : 943.81603 : 1"
       sodipodi:type="inkscape:persp3d" />
    <inkscape:perspective
       sodipodi:type="inkscape:persp3d"
       inkscape:vp_x="363.49708 : 943.81603 : 1"
       inkscape:vp_y="0 : 1000 : 0"
       inkscape:vp_z="744.09448 : 526.18109 : 1"
       inkscape:persp3d-origin="372.04724 : 350.78739 : 1"
       id="perspective5056-1-1" />
    <inkscape:perspective
       id="perspective5056-8-5-82"
       inkscape:persp3d-origin="372.04724 : 350.78739 : 1"
       inkscape:vp_z="744.09448 : 526.18109 : 1"
       inkscape:vp_y="0 : 1000 : 0"
       inkscape:vp_x="363.49708 : 943.81603 : 1"
       sodipodi:type="inkscape:persp3d" />
    <inkscape:perspective
       id="perspective5056-5-2-1"
       inkscape:persp3d-origin="372.04724 : 350.78739 : 1"
       inkscape:vp_z="744.09448 : 526.18109 : 1"
       inkscape:vp_y="0 : 1000 : 0"
       inkscape:vp_x="363.49708 : 943.81603 : 1"
       sodipodi:type="inkscape:persp3d" />
    <inkscape:perspective
       sodipodi:type="inkscape:persp3d"
       inkscape:vp_x="363.49708 : 943.81603 : 1"
       inkscape:vp_y="0 : 1000 : 0"
       inkscape:vp_z="744.09448 : 526.18109 : 1"
       inkscape:persp3d-origin="372.04724 : 350.78739 : 1"
       id="perspective5056-5-46" />
    <inkscape:perspective
       sodipodi:type="inkscape:persp3d"
       inkscape:vp_x="363.49708 : 943.81603 : 1"
       inkscape:vp_y="0 : 1000 : 0"
       inkscape:vp_z="744.09448 : 526.18109 : 1"
       inkscape:persp3d-origin="372.04724 : 350.78739 : 1"
       id="perspective5056-8-92" />
    <inkscape:perspective
       id="perspective5056-3"
       inkscape:persp3d-origin="372.04724 : 350.78739 : 1"
       inkscape:vp_z="744.09448 : 526.18109 : 1"
       inkscape:vp_y="0 : 1000 : 0"
       inkscape:vp_x="363.49708 : 943.81603 : 1"
       sodipodi:type="inkscape:persp3d" />
  </defs>
  <sodipodi:namedview
     id="base"
     pagecolor="#ffffff"
     bordercolor="#666666"
     borderopacity="1.0"
     inkscape:pageopacity="0.0"
     inkscape:pageshadow="2"
     inkscape:zoom="1.3290231"
     inkscape:cx="136.91631"
     inkscape:cy="192.32983"
     inkscape:document-units="px"
     inkscape:current-layer="layer13"
     showgrid="false"
     inkscape:window-width="1567"
     inkscape:window-height="991"
     inkscape:window-x="75"
     inkscape:window-y="-2"
     inkscape:window-maximized="0"
     showguides="true"
     inkscape:guide-bbox="true"
     inkscape:snap-grids="false"
     inkscape:snap-to-guides="false"
     showborder="true"
     inkscape:showpageshadow="false"
     fit-margin-top="0"
     fit-margin-left="0"
     fit-margin-right="0"
     fit-margin-bottom="0"
     inkscape:snap-page="false"
     inkscape:snap-global="false" />
  <metadata
     id="metadata7">
    <rdf:RDF>
      <cc:Work
         rdf:about="">
        <dc:format>image/svg+xml</dc:format>
        <dc:type
           rdf:resource="http://purl.org/dc/dcmitype/StillImage" />
        <dc:title />
      </cc:Work>
    </rdf:RDF>
  </metadata>
  <g
     inkscape:groupmode="layer"
     id="layer2"
     inkscape:label="補助線"
     style="display:none"
     sodipodi:insensitive="true">
    <path
       style="fill:none;stroke:#0000ff;stroke-width:1px;stroke-linecap:butt;stroke-linejoin:miter;stroke-opacity:1"
       d="M 10,310 360,10"
       id="path3025"
       inkscape:connector-curvature="0"
       sodipodi:nodetypes="cc" />
    <path
       style="fill:none;stroke:#0000ff;stroke-width:1px;stroke-linecap:butt;stroke-linejoin:miter;stroke-opacity:1"
       d="M 10,10 360,310"
       id="path3027"
       inkscape:connector-curvature="0"
       sodipodi:nodetypes="cc" />
    <path
       style="display:inline;fill:none;stroke:#ff0000;stroke-width:1px;stroke-linecap:butt;stroke-linejoin:miter;stroke-opacity:1"
       d="M 10,0 V 320"
       id="path3006"
       inkscape:connector-curvature="0"
       sodipodi:nodetypes="cc" />
    <path
       style="display:inline;fill:none;stroke:#ff0000;stroke-width:1px;stroke-linecap:butt;stroke-linejoin:miter;stroke-opacity:1"
       d="M 360,0 V 320"
       id="path3010"
       inkscape:connector-curvature="0"
       sodipodi:nodetypes="cc" />
    <path
       style="display:inline;fill:none;stroke:#ff0000;stroke-width:1px;stroke-linecap:butt;stroke-linejoin:miter;stroke-opacity:1"
       d="M 0,9.9999681 370,10"
       id="path3016"
       inkscape:connector-curvature="0" />
    <path
       transform="translate(84.715796,27.711696)"
       style="display:inline;fill:none;stroke:#ff0000;stroke-width:1px;stroke-linecap:butt;stroke-linejoin:miter;stroke-opacity:1"
       d="M -84.715796,282.2883 H 285.2842"
       id="path3018"
       inkscape:connector-curvature="0"
       sodipodi:nodetypes="cc" />
  </g>
  <g
     inkscape:groupmode="layer"
     id="layer13"
     inkscape:label="吹き出し"
     sodipodi:insensitive="true">
    <path
       style="display:inline;opacity:1;fill:#fefefe;fill-opacity:1;stroke:#000000;stroke-width:1.53179955;stroke-linecap:round;stroke-linejoin:round;stroke-miterlimit:4;stroke-dasharray:none;stroke-dashoffset:0;stroke-opacity:1"
       d="m 357.50548,78.21589 c 0,36.73679 -48.79065,66.51783 -108.97697,66.51783 -8.96346,0 -22.77214,19.7114 -40.91043,25.05664 8.06551,-12.34747 2.23844,-29.23899 -3.69875,-30.8669 -37.94384,-10.404 -64.36778,-33.67225 -64.36778,-60.70757 0,-36.736773 48.79065,-66.517812 108.97696,-66.517814 60.18632,0 108.97697,29.781037 108.97697,66.517814 z"
       id="path7611"
       inkscape:connector-curvature="0"
       sodipodi:nodetypes="sscssss" />
    <text
       xml:space="preserve"
       style="font-style:normal;font-variant:normal;font-weight:normal;font-stretch:normal;font-size:23.86815834px;line-height:1.25;font-family:HGMinchoB;-inkscape-font-specification:HGMinchoB;letter-spacing:0px;word-spacing:0px;display:inline;fill:#000000;fill-opacity:1;stroke:none;stroke-width:1.67822981;stroke-linecap:round;stroke-linejoin:round"
       x="178.73817"
       y="54.728809"
       id="text7607"><tspan
         sodipodi:role="line"
         x="178.73817"
         y="54.728809"
         id="tspan16772"
         style="stroke-width:1.67822981">これが最後の</tspan><tspan
         sodipodi:role="line"
         x="178.73817"
         y="86.283585"
         id="tspan1758"
         style="stroke-width:1.67822981">チャンスに</tspan><tspan
         sodipodi:role="line"
         x="178.73817"
         y="117.83836"
         id="tspan23973"
         style="stroke-width:1.67822981">なるだろう。</tspan></text>
  </g>
  <g
     inkscape:groupmode="layer"
     id="layer5"
     inkscape:label="豚"
     sodipodi:insensitive="true">
    <path
       style="display:inline;opacity:0.95;fill:#241c1c;stroke:#000000;stroke-width:1.5;stroke-linecap:round;stroke-linejoin:round"
       d="m 11.91821,152.10982 91.33264,-21.5621 c 11.51761,-2.71911 21.3963,15.14694 26.98324,25.64596 2.82665,5.31185 -3.95591,9.10986 -8.61596,1.87032 -4.66688,-7.25013 -7.73584,-26.81196 -16.92194,-24.18515 l -90.636523,24.34639 z"
       id="path6641-9-06-6-8"
       inkscape:connector-curvature="0"
       sodipodi:nodetypes="csssscc" />
    <path
       style="display:inline;fill:#deaa87;stroke:#000000;stroke-width:1.5;stroke-linecap:round;stroke-linejoin:round;stroke-opacity:1"
       d="m 88.560454,239.79426 c 12.502006,2.55486 12.647416,17.19966 14.988736,25.53111 l 75.43295,-53.93426 -25.12689,-56.36753 z"
       id="path9742-8"
       inkscape:connector-curvature="0"
       sodipodi:nodetypes="ccccc" />
    <path
       style="display:inline;fill:#e9c6af;stroke:#000000;stroke-width:1.5;stroke-linecap:round;stroke-linejoin:round;stroke-opacity:1"
       d="M 80.264574,37.739811 C 62.629818,38.066759 26.078163,61.285092 18.727685,78.562432 12.74147,92.633062 9.5333427,108.30992 11.412341,125.41157 c 1.018188,9.26701 0.355889,15.95006 1.582369,18.91947 1.20437,2.91589 7.845359,11.6582 8.722319,15.17238 0.87238,3.49575 -4.329688,21.14935 -4.899274,28.94698 -0.199336,2.7289 1.796205,7.80783 3.970175,8.64425 2.76973,1.06565 10.786068,1.46658 11.798998,3.17946 1.00434,1.69834 3.61599,13.0057 3.61599,13.0057 l 5.343035,1.70115 c -0.418895,1.91657 0.424705,7.21408 2.467215,8.39338 3.83151,2.21224 3.822168,0.66788 5.487398,2.72103 1.6703,2.05935 4.977794,15.09991 7.525502,18.66789 1.663903,2.33024 3.937366,3.87026 6.394246,4.763 l 9.830477,-0.5088 z"
       id="path22683"
       inkscape:connector-curvature="0"
       sodipodi:nodetypes="cssccsccccccsccc" />
    <path
       style="display:inline;fill:#deaa87;stroke:none;stroke-width:1.5;stroke-linecap:round;stroke-linejoin:round"
       d="m 42.452524,190.58679 c -3.05076,-1.48867 -9.515503,0.21682 -12.800758,1.10239 -5.259212,1.41767 3.34624,-8.00936 7.306575,-7.15886 4.656853,1.00009 7.436749,7.00438 5.494183,6.05647 z"
       id="path22691"
       inkscape:connector-curvature="0" />
    <path
       style="display:inline;fill:#deaa87;stroke:none;stroke-width:1.5;stroke-linecap:round;stroke-linejoin:round"
       d="m 34.86943,163.71253 c -0.0561,-2.57867 2.135333,0.81877 5.118669,2.27399 2.163018,1.05508 10.253114,-9.37643 11.507322,-7.53817 1.991656,2.91912 -3.019474,22.65196 -6.34734,23.21633 -2.890456,0.49019 -10.19346,-14.03636 -10.278651,-17.95215 z"
       id="path22689"
       inkscape:connector-curvature="0" />
    <path
       style="display:inline;fill:#deaa87;stroke:none;stroke-width:1.5;stroke-linecap:round;stroke-linejoin:round"
       d="m 80.253204,37.721492 c -2.55245,1.674202 -8.214245,1.443722 -11.938927,4.048557 -10.58004,7.399091 -19.190222,24.015249 -26.57457,42.08077 -3.660676,8.955701 3.003585,28.932551 4.224187,40.033851 0.708533,6.44407 -8.242387,8.42458 -9.904925,12.79415 6.73267,0.0995 10.128108,5.67902 6.549406,10.45921 l -10.903497,9.12239 c -0.854786,-3.68364 -4.255868,-7.64083 -1.822643,-12.81576 l -6.187507,3.50393 c -3.093237,2.0878 -6.186473,-0.34643 -9.27971,-2.0976 1.513353,2.76311 4.476818,7.6448 6.515787,12.07107 1.79532,0.16645 1.578188,2.4356 2.053912,4.83702 0.257468,1.29967 -3.728774,23.40804 -3.360612,29.18513 0.368163,5.77709 9.419133,5.62818 13.168542,7.01095 1.431131,0.5278 2.433978,2.94744 2.764048,4.64302 l 21.965307,9.40297 c 7.879306,7.49389 17.995832,34.48942 6.047813,37.41269 3.037533,1.53019 5.656741,1.20705 9.167184,0.66713 5.041805,-0.77545 56.128381,-36.40944 62.491171,-46.6512 l 29.83729,-55.63728 z"
       id="path3563-9-9-96"
       inkscape:connector-curvature="0"
       sodipodi:nodetypes="csssccccccccsscccsccc" />
    <path
       style="fill:#ffffff;stroke:none;stroke-width:1.5;stroke-linecap:round;stroke-linejoin:round"
       d="m 29.28167,149.44205 0.0853,3.83475 7.315357,4.46376 10.412138,-9.23724 -8.330944,-0.63055 z"
       id="path46426"
       inkscape:connector-curvature="0"
       sodipodi:nodetypes="cccccc" />
    <path
       style="display:inline;fill:#deaa87;stroke:#000000;stroke-width:1.5;stroke-linecap:round;stroke-linejoin:round;stroke-opacity:1"
       d="m 178.98214,211.39111 c -4.53113,-10.76396 -10.33151,-27.21284 -10.92024,-33.78758 -0.79726,-8.90402 8.48557,-33.2197 7.60973,-47.48538 -0.98499,-16.04346 -8.6168,-49.964541 -21.4229,-64.520169 C 140.02811,49.434645 107.57156,37.860544 80.264574,37.739811"
       id="path22685"
       inkscape:connector-curvature="0" />
    <path
       style="display:inline;fill:none;stroke:#000000;stroke-width:1.5;stroke-linecap:round;stroke-linejoin:round;stroke-opacity:1"
       d="m 63.420314,249.52626 c 3.102949,1.1275 6.498462,1.22253 9.328064,0.57303 4.971786,-1.14121 56.128382,-36.40944 62.491172,-46.6512 1.55544,-2.50366 1.75255,-13.03636 1.61216,-20.50851"
       id="path3563-9-9"
       inkscape:connector-curvature="0" />
    <path
       style="display:inline;fill:#000000;stroke:none;stroke-width:1.5;stroke-linecap:round;stroke-linejoin:round"
       d="m 60.72903,217.62412 c 5.111056,-0.9766 -0.28944,-9.81434 -4.57389,-11.44363 -1.95082,-0.74188 -20.474048,-6.94401 -21.339638,-5.03487 -1.0483,2.31215 -3.58045,-0.31722 -3.82916,0.9509 -0.54915,2.79989 3.624107,17.61744 7.521029,17.19063 4.957152,-0.54293 15.282261,-0.33708 22.221659,-1.66303 z"
       id="path3567-5-8"
       inkscape:connector-curvature="0"
       sodipodi:nodetypes="ssssss" />
    <path
       style="display:inline;fill:none;stroke:#000000;stroke-width:1.5;stroke-linecap:round;stroke-linejoin:round;stroke-opacity:1"
       d="m 42.901983,186.33276 c 3.138196,3.0558 4.194644,8.42786 1.106627,10.29497"
       id="path3569-4-2"
       inkscape:connector-curvature="0"
       sodipodi:nodetypes="cc" />
    <path
       style="display:inline;fill:#ffffff;fill-opacity:1;stroke:#916f6f;stroke-width:1.5;stroke-linecap:round;stroke-linejoin:round;stroke-opacity:1"
       d="m 47.094465,148.50332 c -1.487223,2.09198 -5.100482,6.86254 -6.632552,8.43988 -1.715478,1.76617 -5.535042,1.35677 -6.619498,1.44385 -1.270611,0.10204 -1.82184,-1.83625 -2.92996,-4.0372"
       id="path9483-5"
       inkscape:connector-curvature="0"
       sodipodi:nodetypes="cssc" />
    <path
       style="display:inline;fill:#2b0000;stroke:none;stroke-width:1.5;stroke-linecap:round;stroke-linejoin:round"
       d="m 28.849851,149.61144 c 0.409985,1.79181 2.70594,5.47048 3.6289,7.11677 3.117988,0.0575 3.338449,-6.24221 2.786099,-8.58999 z"
       id="path9485-4"
       inkscape:connector-curvature="0"
       sodipodi:nodetypes="cccc" />
    <path
       style="display:inline;fill:#000000;stroke:none;stroke-width:1.5;stroke-linecap:round;stroke-linejoin:round"
       d="m 55.303884,129.28867 c -2.96508,-1.71221 -11.80337,1.24893 -15.69822,2.83798 -8.54226,3.48515 -17.517773,10.60331 -19.322673,14.35586 -0.77577,1.61288 5.081219,0.45751 6.776589,-0.11602 7.49511,-2.53557 10.367244,-10.01475 17.272174,-13.87839 3.32462,-1.86029 14.27127,-1.29432 10.97213,-3.19943 z"
       id="path9487-9"
       inkscape:connector-curvature="0"
       sodipodi:nodetypes="ssssss" />
    <path
       style="display:inline;fill:none;stroke:#000000;stroke-width:1.5;stroke-linecap:round;stroke-linejoin:round;stroke-opacity:1"
       d="m 37.824265,196.62713 c -3.301848,-0.39444 -6.349525,0.25163 -10.729135,0.46269"
       id="path9489-1"
       inkscape:connector-curvature="0"
       sodipodi:nodetypes="cc" />
    <path
       style="display:inline;fill:none;stroke:#000000;stroke-width:1.5;stroke-linecap:round;stroke-linejoin:round;stroke-opacity:1"
       d="m 49.021984,149.23271 c -1.472116,-0.98928 -5.610402,-1.51219 -8.15037,-1.66893 -2.431396,-0.15004 -5.342724,-0.18896 -11.589944,1.87827 -1.09728,0.36309 -0.94156,1.90873 0.0853,3.83475"
       id="path9481-5"
       inkscape:connector-curvature="0"
       sodipodi:nodetypes="cssc" />
    <path
       style="fill:none;stroke:#000000;stroke-width:1.5;stroke-linecap:round;stroke-linejoin:round;stroke-opacity:1"
       d="m 18.154784,145.50925 c 0.393542,2.54835 5.25189,4.03078 5.910415,4.50076"
       id="path20424"
       inkscape:connector-curvature="0"
       sodipodi:nodetypes="cc" />
    <path
       style="fill:#550000;stroke:#000000;stroke-width:1.5;stroke-linecap:round;stroke-linejoin:round;stroke-opacity:1"
       d="m 100.3053,263.94379 17.68216,16.92973 c -5.10722,9.06358 -10.44967,17.89194 -16.55351,25.95891 l -8.276756,-0.37621 c 1.08049,-16.9195 4.14159,-29.65837 7.148106,-42.51243 z"
       id="path20426"
       inkscape:connector-curvature="0"
       sodipodi:nodetypes="ccccc" />
    <path
       style="fill:#550000;stroke:#000000;stroke-width:1.5;stroke-linecap:round;stroke-linejoin:round;stroke-opacity:1"
       d="M 93.909624,304.95135 C 73.348169,347.86596 56.051348,398.25773 52.14963,450.17081 L 80.365844,426.46919 100.68152,306.45622 Z"
       id="path20428"
       inkscape:connector-curvature="0"
       sodipodi:nodetypes="ccccc" />
    <path
       style="display:inline;fill:#dbdee3;stroke:#000000;stroke-width:1.5;stroke-linecap:round;stroke-linejoin:round;stroke-opacity:1"
       d="m 97.406974,263.99698 c 18.637326,-18.09019 74.851756,-60.89407 76.689466,-69.2461 3.64245,3.41008 6.4327,11.08115 9.40489,17.84251 -21.9976,22.64286 -37.61807,54.3149 -53.98366,85.98694 z"
       id="path9740-0"
       inkscape:connector-curvature="0"
       sodipodi:nodetypes="ccccc" />
    <path
       style="fill:#1c1f24;stroke:#000000;stroke-width:1.5;stroke-linecap:round;stroke-linejoin:round;stroke-opacity:1"
       d="m 188.07746,213.99686 c 10.35066,8.08264 28.5972,22.2884 35.55997,30.81717 16.45511,20.15604 15.96145,53.46363 12.53316,65.31955 -5.64043,19.50606 -26.26779,140.54378 -25.73014,155.02479 0.49424,13.31184 4.74672,81.49352 8.25069,119.27441 L 54.041628,421.08885 111.39159,300.34958 l 50.8555,-73.44713 z"
       id="path23956"
       inkscape:connector-curvature="0"
       sodipodi:nodetypes="csssccccc" />
    <path
       style="fill:#1c1f24;stroke:#000000;stroke-width:1.5;stroke-linecap:round;stroke-linejoin:round;stroke-opacity:1"
       d="m 109.11239,293.79169 c 19.61543,-32.26802 47.9462,-63.93991 71.77456,-90.44366 2.85654,2.52394 6.94436,7.73865 7.6753,10.91986 -16.59279,3.63092 -49.00939,61.24208 -51.69786,84.20232 -10.4045,1.78451 -17.2524,5.14973 -24.59704,8.29417 z"
       id="path20430"
       inkscape:connector-curvature="0"
       sodipodi:nodetypes="cccccc" />
    <path
       style="fill:#1c1f24;stroke:#000000;stroke-width:1.5;stroke-linecap:round;stroke-linejoin:round;stroke-opacity:1"
       d="M 220.95235,586.96002 56.885393,584.20849 C 55.81739,529.93939 48.043344,449.40517 52.94066,422.15361 c 2.640084,-14.69099 23.866034,-69.6236 56.17173,-128.36192 l 13.15706,17.62151 C 92.134644,340.83524 71.390236,382.38194 55.926777,421.77316"
       id="path23960"
       inkscape:connector-curvature="0"
       sodipodi:nodetypes="ccsccc" />
    <path
       style="display:inline;fill:#1c1f24;stroke:#000000;stroke-width:1.5;stroke-linecap:round;stroke-linejoin:round;stroke-opacity:1"
       d="m 226.14575,512.30245 c 6.90477,-56.04822 12.148,-166.12652 13.96271,-200.70548 1.16207,-22.14316 -4.96641,-51.17379 -20.46237,-65.06576 -14.29331,-12.81382 -47.36397,4.62299 -61.7259,27.46119 -32.00516,50.89426 -12.70767,136.85074 -17.52112,198.07464"
       id="path9744-3"
       inkscape:connector-curvature="0"
       sodipodi:nodetypes="csssc" />
    <path
       style="display:inline;opacity:0.9;fill:#280b0b;stroke:#000000;stroke-width:1.5;stroke-linecap:round;stroke-linejoin:round"
       d="m 20.456667,169.25476 c -1.195039,-2.13767 -5.042276,-7.36664 -6.397,-11.02952 -1.053305,-1.81233 -1.565107,-4.1929 -2.141457,-6.11542 0,0 -0.676994,-4.45618 1.066577,-4.40123 1.810271,0.057 3.406616,0.49063 5.071038,-1.30033 2.446139,-2.63206 17.125434,-3.07219 21.265778,-2.75917 1.073865,1.67579 2.872597,5.53897 3.143665,7.4004 -2.662532,8.42008 -9.724588,17.8738 -13.42601,18.01142 -3.085647,0.11473 -6.925143,-7.71492 -8.135991,-9.68615 -0.669579,-1.09007 -3.08398,-1.04273 -2.799633,0.97815 0.227544,1.61717 2.024673,4.65802 2.797814,6.75591"
       id="path6627-9-6-9"
       inkscape:connector-curvature="0"
       sodipodi:nodetypes="cccssccsssc" />
    <path
       style="display:inline;opacity:0.95;fill:#241c1c;stroke:#000000;stroke-width:1.5;stroke-linecap:round;stroke-linejoin:round"
       d="m 39.321603,143.64909 91.332637,-21.5621 c 11.51762,-2.71912 21.39631,15.14694 26.98325,25.64596 2.82665,5.31185 -3.95591,9.10986 -8.61596,1.87032 -4.66688,-7.25013 -7.65867,-26.52532 -16.92195,-24.18515 l -89.634312,25.63137 z"
       id="path6641-9-06-6"
       inkscape:connector-curvature="0"
       sodipodi:nodetypes="csssscc" />
    <path
       style="display:inline;fill:#deaa87;stroke:#000000;stroke-width:1.5;stroke-linecap:round;stroke-linejoin:round;stroke-opacity:1"
       d="m 130.82143,126.91805 c 3.30007,-5.34278 9.60819,-12.20545 17.01239,-10.66872 6.37804,1.32376 10.2263,6.82553 11.51406,12.01111 3.82783,15.41403 -2.86866,22.24778 -4.91381,34.28544 -0.95209,5.60388 -5.76181,9.56597 -8.76274,10.18148 -5.02342,1.03035 -6.74351,3.59132 -8.63255,6.14587"
       id="path9491-2"
       inkscape:connector-curvature="0"
       sodipodi:nodetypes="cssssc" />
    <path
       style="display:inline;fill:none;stroke:#000000;stroke-width:1.5;stroke-linecap:round;stroke-linejoin:round;stroke-opacity:1"
       d="m 146.26061,158.66854 c -4.1889,-7.21167 -7.09422,-8.48734 -8.74079,-13.75496 -2.79792,-8.95092 0.33572,-15.83252 2.94117,-20.82219 2.98149,-5.70981 11.13546,-2.74191 13.11494,1.21126 4.81082,9.60753 0.27257,19.10673 -3.24169,25.66157 -1.99886,3.72829 -5.84784,11.39532 -8.10555,15.04245 -0.70157,1.13333 -4.54531,1.71201 -4.38708,-2.03956 0.0871,-2.0647 1.89467,-4.74442 1.8008,-7.04752 -0.11014,-2.70227 -3.95193,-2.30172 -4.29207,-8.69105"
       id="path23966"
       inkscape:connector-curvature="0"
       sodipodi:nodetypes="csssssssc" />
  </g>
  <g
     inkscape:groupmode="layer"
     id="layer7"
     inkscape:label="枠面"
     style="display:inline"
     sodipodi:insensitive="true">
    <path
       style="display:inline;fill:#ffffff;stroke:none"
       d="M 0,0 V 320 H 370 V 0 L 360,10 V 310 H 10 V 10 H 360 L 370,0 Z"
       id="path21072"
       inkscape:connector-curvature="0"
       sodipodi:nodetypes="ccccccccccc" />
  </g>
</svg>
