<?xml version="1.0" encoding="UTF-8" standalone="no"?>
<!-- Created with Inkscape (http://www.inkscape.org/) -->

<svg
   xmlns:dc="http://purl.org/dc/elements/1.1/"
   xmlns:cc="http://creativecommons.org/ns#"
   xmlns:rdf="http://www.w3.org/1999/02/22-rdf-syntax-ns#"
   xmlns:svg="http://www.w3.org/2000/svg"
   xmlns="http://www.w3.org/2000/svg"
   xmlns:sodipodi="http://sodipodi.sourceforge.net/DTD/sodipodi-0.dtd"
   xmlns:inkscape="http://www.inkscape.org/namespaces/inkscape"
   width="370"
   height="320"
   id="svg2"
   version="1.1"
   inkscape:version="0.48.4 r9939"
   sodipodi:docname="[01.考察].svg"
   inkscape:export-filename="C:\Users\root\Desktop\資料\作業\SANARO\ORG\[01.行動]03..png"
   inkscape:export-xdpi="90"
   inkscape:export-ydpi="90"
   enable-background="new">
  <defs
     id="defs4">
    <inkscape:perspective
       sodipodi:type="inkscape:persp3d"
       inkscape:vp_x="363.49708 : 943.81603 : 1"
       inkscape:vp_y="0 : 1000 : 0"
       inkscape:vp_z="744.09448 : 526.18109 : 1"
       inkscape:persp3d-origin="372.04724 : 350.78739 : 1"
       id="perspective5056" />
    <inkscape:perspective
       id="perspective5056-8"
       inkscape:persp3d-origin="372.04724 : 350.78739 : 1"
       inkscape:vp_z="744.09448 : 526.18109 : 1"
       inkscape:vp_y="0 : 1000 : 0"
       inkscape:vp_x="363.49708 : 943.81603 : 1"
       sodipodi:type="inkscape:persp3d" />
    <inkscape:perspective
       id="perspective5056-5"
       inkscape:persp3d-origin="372.04724 : 350.78739 : 1"
       inkscape:vp_z="744.09448 : 526.18109 : 1"
       inkscape:vp_y="0 : 1000 : 0"
       inkscape:vp_x="363.49708 : 943.81603 : 1"
       sodipodi:type="inkscape:persp3d" />
    <inkscape:perspective
       sodipodi:type="inkscape:persp3d"
       inkscape:vp_x="363.49708 : 943.81603 : 1"
       inkscape:vp_y="0 : 1000 : 0"
       inkscape:vp_z="744.09448 : 526.18109 : 1"
       inkscape:persp3d-origin="372.04724 : 350.78739 : 1"
       id="perspective5056-5-2" />
    <inkscape:perspective
       sodipodi:type="inkscape:persp3d"
       inkscape:vp_x="363.49708 : 943.81603 : 1"
       inkscape:vp_y="0 : 1000 : 0"
       inkscape:vp_z="744.09448 : 526.18109 : 1"
       inkscape:persp3d-origin="372.04724 : 350.78739 : 1"
       id="perspective5056-8-5" />
    <inkscape:perspective
       id="perspective5056-1"
       inkscape:persp3d-origin="372.04724 : 350.78739 : 1"
       inkscape:vp_z="744.09448 : 526.18109 : 1"
       inkscape:vp_y="0 : 1000 : 0"
       inkscape:vp_x="363.49708 : 943.81603 : 1"
       sodipodi:type="inkscape:persp3d" />
    <inkscape:perspective
       sodipodi:type="inkscape:persp3d"
       inkscape:vp_x="363.49708 : 943.81603 : 1"
       inkscape:vp_y="0 : 1000 : 0"
       inkscape:vp_z="744.09448 : 526.18109 : 1"
       inkscape:persp3d-origin="372.04724 : 350.78739 : 1"
       id="perspective5056-5-5" />
    <inkscape:perspective
       id="perspective5056-4"
       inkscape:persp3d-origin="372.04724 : 350.78739 : 1"
       inkscape:vp_z="744.09448 : 526.18109 : 1"
       inkscape:vp_y="0 : 1000 : 0"
       inkscape:vp_x="363.49708 : 943.81603 : 1"
       sodipodi:type="inkscape:persp3d" />
    <inkscape:perspective
       sodipodi:type="inkscape:persp3d"
       inkscape:vp_x="363.49708 : 943.81603 : 1"
       inkscape:vp_y="0 : 1000 : 0"
       inkscape:vp_z="744.09448 : 526.18109 : 1"
       inkscape:persp3d-origin="372.04724 : 350.78739 : 1"
       id="perspective5056-1-2" />
    <inkscape:perspective
       id="perspective5056-8-5-8"
       inkscape:persp3d-origin="372.04724 : 350.78739 : 1"
       inkscape:vp_z="744.09448 : 526.18109 : 1"
       inkscape:vp_y="0 : 1000 : 0"
       inkscape:vp_x="363.49708 : 943.81603 : 1"
       sodipodi:type="inkscape:persp3d" />
    <inkscape:perspective
       id="perspective5056-5-2-8"
       inkscape:persp3d-origin="372.04724 : 350.78739 : 1"
       inkscape:vp_z="744.09448 : 526.18109 : 1"
       inkscape:vp_y="0 : 1000 : 0"
       inkscape:vp_x="363.49708 : 943.81603 : 1"
       sodipodi:type="inkscape:persp3d" />
    <inkscape:perspective
       sodipodi:type="inkscape:persp3d"
       inkscape:vp_x="363.49708 : 943.81603 : 1"
       inkscape:vp_y="0 : 1000 : 0"
       inkscape:vp_z="744.09448 : 526.18109 : 1"
       inkscape:persp3d-origin="372.04724 : 350.78739 : 1"
       id="perspective5056-5-4" />
    <inkscape:perspective
       sodipodi:type="inkscape:persp3d"
       inkscape:vp_x="363.49708 : 943.81603 : 1"
       inkscape:vp_y="0 : 1000 : 0"
       inkscape:vp_z="744.09448 : 526.18109 : 1"
       inkscape:persp3d-origin="372.04724 : 350.78739 : 1"
       id="perspective5056-8-9" />
    <inkscape:perspective
       id="perspective5056-40"
       inkscape:persp3d-origin="372.04724 : 350.78739 : 1"
       inkscape:vp_z="744.09448 : 526.18109 : 1"
       inkscape:vp_y="0 : 1000 : 0"
       inkscape:vp_x="363.49708 : 943.81603 : 1"
       sodipodi:type="inkscape:persp3d" />
    <inkscape:perspective
       sodipodi:type="inkscape:persp3d"
       inkscape:vp_x="363.49708 : 943.81603 : 1"
       inkscape:vp_y="0 : 1000 : 0"
       inkscape:vp_z="744.09448 : 526.18109 : 1"
       inkscape:persp3d-origin="372.04724 : 350.78739 : 1"
       id="perspective5056-1-5" />
    <inkscape:perspective
       id="perspective5056-8-5-4"
       inkscape:persp3d-origin="372.04724 : 350.78739 : 1"
       inkscape:vp_z="744.09448 : 526.18109 : 1"
       inkscape:vp_y="0 : 1000 : 0"
       inkscape:vp_x="363.49708 : 943.81603 : 1"
       sodipodi:type="inkscape:persp3d" />
    <inkscape:perspective
       id="perspective5056-5-2-82"
       inkscape:persp3d-origin="372.04724 : 350.78739 : 1"
       inkscape:vp_z="744.09448 : 526.18109 : 1"
       inkscape:vp_y="0 : 1000 : 0"
       inkscape:vp_x="363.49708 : 943.81603 : 1"
       sodipodi:type="inkscape:persp3d" />
    <inkscape:perspective
       sodipodi:type="inkscape:persp3d"
       inkscape:vp_x="363.49708 : 943.81603 : 1"
       inkscape:vp_y="0 : 1000 : 0"
       inkscape:vp_z="744.09448 : 526.18109 : 1"
       inkscape:persp3d-origin="372.04724 : 350.78739 : 1"
       id="perspective5056-5-8" />
    <inkscape:perspective
       sodipodi:type="inkscape:persp3d"
       inkscape:vp_x="363.49708 : 943.81603 : 1"
       inkscape:vp_y="0 : 1000 : 0"
       inkscape:vp_z="744.09448 : 526.18109 : 1"
       inkscape:persp3d-origin="372.04724 : 350.78739 : 1"
       id="perspective5056-8-4" />
    <inkscape:perspective
       id="perspective5056-409"
       inkscape:persp3d-origin="372.04724 : 350.78739 : 1"
       inkscape:vp_z="744.09448 : 526.18109 : 1"
       inkscape:vp_y="0 : 1000 : 0"
       inkscape:vp_x="363.49708 : 943.81603 : 1"
       sodipodi:type="inkscape:persp3d" />
    <inkscape:perspective
       sodipodi:type="inkscape:persp3d"
       inkscape:vp_x="363.49708 : 943.81603 : 1"
       inkscape:vp_y="0 : 1000 : 0"
       inkscape:vp_z="744.09448 : 526.18109 : 1"
       inkscape:persp3d-origin="372.04724 : 350.78739 : 1"
       id="perspective5056-1-7" />
    <inkscape:perspective
       id="perspective5056-8-5-2"
       inkscape:persp3d-origin="372.04724 : 350.78739 : 1"
       inkscape:vp_z="744.09448 : 526.18109 : 1"
       inkscape:vp_y="0 : 1000 : 0"
       inkscape:vp_x="363.49708 : 943.81603 : 1"
       sodipodi:type="inkscape:persp3d" />
    <inkscape:perspective
       id="perspective5056-5-2-89"
       inkscape:persp3d-origin="372.04724 : 350.78739 : 1"
       inkscape:vp_z="744.09448 : 526.18109 : 1"
       inkscape:vp_y="0 : 1000 : 0"
       inkscape:vp_x="363.49708 : 943.81603 : 1"
       sodipodi:type="inkscape:persp3d" />
    <inkscape:perspective
       sodipodi:type="inkscape:persp3d"
       inkscape:vp_x="363.49708 : 943.81603 : 1"
       inkscape:vp_y="0 : 1000 : 0"
       inkscape:vp_z="744.09448 : 526.18109 : 1"
       inkscape:persp3d-origin="372.04724 : 350.78739 : 1"
       id="perspective5056-5-1" />
    <inkscape:perspective
       sodipodi:type="inkscape:persp3d"
       inkscape:vp_x="363.49708 : 943.81603 : 1"
       inkscape:vp_y="0 : 1000 : 0"
       inkscape:vp_z="744.09448 : 526.18109 : 1"
       inkscape:persp3d-origin="372.04724 : 350.78739 : 1"
       id="perspective5056-8-6" />
    <inkscape:perspective
       id="perspective5056-7"
       inkscape:persp3d-origin="372.04724 : 350.78739 : 1"
       inkscape:vp_z="744.09448 : 526.18109 : 1"
       inkscape:vp_y="0 : 1000 : 0"
       inkscape:vp_x="363.49708 : 943.81603 : 1"
       sodipodi:type="inkscape:persp3d" />
    <inkscape:perspective
       sodipodi:type="inkscape:persp3d"
       inkscape:vp_x="363.49708 : 943.81603 : 1"
       inkscape:vp_y="0 : 1000 : 0"
       inkscape:vp_z="744.09448 : 526.18109 : 1"
       inkscape:persp3d-origin="372.04724 : 350.78739 : 1"
       id="perspective5056-1-1" />
    <inkscape:perspective
       id="perspective5056-8-5-82"
       inkscape:persp3d-origin="372.04724 : 350.78739 : 1"
       inkscape:vp_z="744.09448 : 526.18109 : 1"
       inkscape:vp_y="0 : 1000 : 0"
       inkscape:vp_x="363.49708 : 943.81603 : 1"
       sodipodi:type="inkscape:persp3d" />
    <inkscape:perspective
       id="perspective5056-5-2-1"
       inkscape:persp3d-origin="372.04724 : 350.78739 : 1"
       inkscape:vp_z="744.09448 : 526.18109 : 1"
       inkscape:vp_y="0 : 1000 : 0"
       inkscape:vp_x="363.49708 : 943.81603 : 1"
       sodipodi:type="inkscape:persp3d" />
    <inkscape:perspective
       sodipodi:type="inkscape:persp3d"
       inkscape:vp_x="363.49708 : 943.81603 : 1"
       inkscape:vp_y="0 : 1000 : 0"
       inkscape:vp_z="744.09448 : 526.18109 : 1"
       inkscape:persp3d-origin="372.04724 : 350.78739 : 1"
       id="perspective5056-5-46" />
    <inkscape:perspective
       sodipodi:type="inkscape:persp3d"
       inkscape:vp_x="363.49708 : 943.81603 : 1"
       inkscape:vp_y="0 : 1000 : 0"
       inkscape:vp_z="744.09448 : 526.18109 : 1"
       inkscape:persp3d-origin="372.04724 : 350.78739 : 1"
       id="perspective5056-8-92" />
    <inkscape:perspective
       id="perspective5056-3"
       inkscape:persp3d-origin="372.04724 : 350.78739 : 1"
       inkscape:vp_z="744.09448 : 526.18109 : 1"
       inkscape:vp_y="0 : 1000 : 0"
       inkscape:vp_x="363.49708 : 943.81603 : 1"
       sodipodi:type="inkscape:persp3d" />
  </defs>
  <sodipodi:namedview
     id="base"
     pagecolor="#ffffff"
     bordercolor="#666666"
     borderopacity="1.0"
     inkscape:pageopacity="0.0"
     inkscape:pageshadow="2"
     inkscape:zoom="0.80901904"
     inkscape:cx="41.422959"
     inkscape:cy="349.11821"
     inkscape:document-units="px"
     inkscape:current-layer="layer8"
     showgrid="false"
     inkscape:window-width="1139"
     inkscape:window-height="693"
     inkscape:window-x="75"
     inkscape:window-y="-2"
     inkscape:window-maximized="0"
     showguides="true"
     inkscape:guide-bbox="true"
     inkscape:snap-grids="false"
     inkscape:snap-to-guides="false"
     showborder="true"
     inkscape:showpageshadow="false"
     fit-margin-top="0"
     fit-margin-left="0"
     fit-margin-right="0"
     fit-margin-bottom="0"
     inkscape:snap-page="false" />
  <metadata
     id="metadata7">
    <rdf:RDF>
      <cc:Work
         rdf:about="">
        <dc:format>image/svg+xml</dc:format>
        <dc:type
           rdf:resource="http://purl.org/dc/dcmitype/StillImage" />
        <dc:title></dc:title>
      </cc:Work>
    </rdf:RDF>
  </metadata>
  <g
     inkscape:groupmode="layer"
     id="layer2"
     inkscape:label="補助線"
     style="display:none"
     sodipodi:insensitive="true">
    <path
       style="fill:none;stroke:#0000ff;stroke-width:1px;stroke-linecap:butt;stroke-linejoin:miter;stroke-opacity:1"
       d="M 10,310 360,10"
       id="path3025"
       inkscape:connector-curvature="0"
       sodipodi:nodetypes="cc" />
    <path
       style="fill:none;stroke:#0000ff;stroke-width:1px;stroke-linecap:butt;stroke-linejoin:miter;stroke-opacity:1"
       d="M 10,10 360,310"
       id="path3027"
       inkscape:connector-curvature="0"
       sodipodi:nodetypes="cc" />
    <path
       style="fill:none;stroke:#ff0000;stroke-width:1px;stroke-linecap:butt;stroke-linejoin:miter;stroke-opacity:1;display:inline"
       d="m 10,0 0,320"
       id="path3006"
       inkscape:connector-curvature="0"
       sodipodi:nodetypes="cc" />
    <path
       style="fill:none;stroke:#ff0000;stroke-width:1px;stroke-linecap:butt;stroke-linejoin:miter;stroke-opacity:1;display:inline"
       d="m 360,0 0,320"
       id="path3010"
       inkscape:connector-curvature="0"
       sodipodi:nodetypes="cc" />
    <path
       style="fill:none;stroke:#ff0000;stroke-width:1px;stroke-linecap:butt;stroke-linejoin:miter;stroke-opacity:1;display:inline"
       d="M 0,9.9999681 370,10"
       id="path3016"
       inkscape:connector-curvature="0" />
    <path
       transform="translate(84.715796,27.711696)"
       style="fill:none;stroke:#ff0000;stroke-width:1px;stroke-linecap:butt;stroke-linejoin:miter;stroke-opacity:1;display:inline"
       d="m -84.715796,282.2883 369.999996,0"
       id="path3018"
       inkscape:connector-curvature="0"
       sodipodi:nodetypes="cc" />
  </g>
  <g
     inkscape:groupmode="layer"
     id="layer8"
     inkscape:label="原型"
     style="display:inline">
    <path
       style="fill:#e9c6af;stroke:none;display:inline"
       d="m 103.50038,126.11349 c 4.52343,3.97082 25.29581,16.62232 41.23455,21.90456 4.76038,1.57762 16.86541,-0.6843 19.61252,-6.71804 2.48777,-5.46414 4.85706,-12.43519 6.35947,-16.79478 1.8266,-5.30032 7.10495,-17.92101 6.90231,-26.035292 -0.0766,-3.07112 -0.31983,-11.90091 -0.30157,-16.59848 0.0125,-3.1983 1.16632,-9.23999 1.3444,-12.065344 0.26252,-4.163763 -1.69674,-8.705916 -2.37863,-12.407366 -1.24726,-6.77049 -3.16461,-14.947885 -5.19012,-19.425264 -4.9846,-11.018351 -14.56707,-18.96319 -26.9274,-22.717278 -17.9173,-5.4418816 -41.9936,-0.778876 -52.848784,11.098046 -7.000842,7.659779 -14.923236,17.105734 -17.271272,29.612778 -1.254572,6.682604 0.845537,33.790648 4.054198,38.879798 2.179986,3.45765 12.660938,22.158702 13.61311,25.645862 z"
       id="path6635-6-9-1-1-7-5-8-0"
       inkscape:connector-curvature="0"
       sodipodi:nodetypes="cssscccsssssscc" />
    <path
       style="fill:#deaa87;stroke:none;display:inline"
       d="m 161.18731,111.07621 c 0.76032,0.38895 3.13915,0.33542 4.0689,-1.41041 1.13855,-2.13798 0.6668,-3.72534 0.25815,-5.00967 -2.23197,-7.014992 -6.37262,-18.273122 -6.51762,-20.069372 -0.0708,-0.8775 0.2381,-7.34737 3.98534,-7.75614 -0.69365,1.50015 -2.7553,5.13964 -1.4278,6.82743 l 13.36746,-6.70248 1.205,1.0258 c -0.056,1.04316 -1.66466,8.84095 -4.57031,10.27796 -2.12484,1.05088 -6.76331,-0.27531 -9.20127,-1.55094 -0.69454,1.2577 1.95211,10.73943 4.98793,17.511652 0.74728,1.66702 1.1496,4.85099 -0.67465,6.55697 -1.09488,1.02389 -2.79083,3.04459 -4.55776,5.80054 0.6328,-2.49174 0.5841,-4.26107 -0.50493,-3.92102 -0.90619,0.28297 -2.29714,1.2937 -2.61256,3.25612 -1.27169,-1.39457 -4.47871,-0.84153 -4.32561,-1.80717 0.1522,-0.95989 3.64123,-2.34743 6.51973,-3.02927 z"
       id="path5573-3-9-8-0-5"
       inkscape:connector-curvature="0" />
    <path
       style="fill:#fefefe;fill-opacity:1;stroke:none;display:inline"
       d="m 165.04451,79.840728 -3.65375,3.83333 5.49859,1.85814 3.03594,-0.57672 2.85277,-1.44711 2.60662,-6.09331 -1.76065,-0.84916 -3.37227,0.68788 z"
       id="path3337-0-4-0-1-8-6-9-1"
       inkscape:connector-curvature="0" />
    <path
       style="fill:#deaa87;stroke:none;display:inline"
       d="m 164.3739,141.35452 c -2.08494,4.11644 -13.456,8.96676 -19.61067,6.7209 -12.01122,-4.38291 -29.92185,-13.45226 -41.12293,-21.71817 L 91.710884,120.54824 C 90.694948,118.43695 81.292571,99.891558 78.237986,95.260878 74.288003,89.272828 73.261354,63.433551 74.319669,55.631482 75.934622,43.725858 84.987007,32.869875 90.642875,26.912567 c 6.031756,-6.3532 10.527115,-9.081741 21.266255,-12.095414 -5.14526,3.252735 -12.317679,9.03283 -13.476069,15.364863 -2.84001,15.52415 8.758769,35.060935 14.753739,40.960089 4.21264,4.145313 13.3484,8.393833 14.67331,9.421003 l 13.58847,0.32616 c -3.78314,-0.21464 -8.54302,0.90466 -10.53713,2.74111 -2.52235,2.32296 -2.27746,6.16389 -1.65152,6.9021 l 17.6979,-3.42019 c 0.33595,-3.06357 -1.2965,-4.86291 -5.24167,-7.54284 5.15348,0.30365 7.51031,-2.94925 10.25762,-2.5015 0.90118,0.14686 -0.0709,6.1586 0.0324,7.46077 0.22275,2.80675 0.009,8.0404 -2.81927,6.29292 -2.87772,-1.77818 -3.34239,4.65608 -8.39757,6.62755 -2.38552,0.93031 -9.78649,-0.83251 -11.35671,-0.46313 -2.36097,0.55541 -2.5886,3.600912 -3.03482,6.423872 -0.33866,2.14235 5.17114,15.02952 11.34406,26.54343 3.77336,7.03819 7.12633,14.48369 11.49545,15.95822 4.48246,1.51276 11.42399,0.74418 15.13646,-4.55705 z"
       id="path3438-5-86-7-3-4-0-4-2"
       inkscape:connector-curvature="0"
       sodipodi:nodetypes="csccssscssccscccscsssssscc" />
    <path
       style="fill:#fefefe;fill-opacity:1;stroke:none;display:inline"
       d="m 144.04684,85.792508 -5.0829,0.70462 -5.87536,1.18447 -4.16458,2.25964 6.3508,3.37692 7.52401,-1.80651 3.91919,-4.19938 z"
       id="path3353-4-1-2-2-4-9-8-7"
       inkscape:connector-curvature="0" />
    <path
       style="fill:#2b0000;stroke:none;display:inline"
       d="m 137.62585,91.611148 c -2.36662,0.4156 -4.09233,-1.91359 -4.52815,-3.93283 l 7.99096,-1.68558 c 0.41207,2.89991 -1.09938,5.2034 -3.46281,5.61841 z"
       id="path3357-1-2-4-7-5-3-8-6"
       inkscape:connector-curvature="0" />
    <path
       style="fill:#2b0000;stroke:none;display:inline"
       d="m 170.10832,77.700878 c 0.28552,2.3715 -0.0941,5.05041 -1.94905,5.84351 -2.12739,0.90959 -4.44311,-0.34742 -4.79368,-1.69707 l 2.32804,-2.37652 z"
       id="path3357-0-8-6-7-0-2-0"
       inkscape:connector-curvature="0" />
    <path
       style="fill:none;stroke:#000000;stroke-width:1.5;stroke-linecap:butt;stroke-linejoin:miter;stroke-opacity:1;display:inline"
       d="m 160.54053,75.768138 c -0.13857,2.52095 -1.67619,7.30123 -1.45937,9.0382 0.3898,3.12252 6.19094,18.148642 6.82993,19.703742"
       id="path5947"
       inkscape:connector-curvature="0" />
    <path
       style="fill:none;stroke:#000000;stroke-width:1.5;stroke-linecap:butt;stroke-linejoin:miter;stroke-opacity:1;display:inline"
       d="m 161.4366,110.90725 c -1.72039,0.77118 -5.57976,1.62998 -6.85393,3.15245"
       id="path6629-0-6-3-5-0-4-2"
       inkscape:connector-curvature="0" />
    <path
       style="fill:#000000;stroke:none;display:inline"
       d="m 162.85965,113.13268 c -0.92128,-0.43914 -1.3325,1.48006 -3.56765,1.99746 -3.02736,0.7007 -4.24623,-0.47766 -5.23135,0.11075 -4.15751,2.48377 -13.90005,9.04927 -14.56061,11.29962 -0.66737,2.27333 0.20228,5.83873 1.49685,5.25059 4.17165,-1.8952 13.35982,-6.8409 17.6807,-7.83471 6.11366,-1.40616 8.69772,-0.57433 11.44579,-1.50485 0.60837,-0.20596 1.51165,-5.15846 0.29881,-6.00484 -1.15961,-1.80269 -6.1607,-2.64579 -7.56254,-3.31402 z"
       id="path6633-4-0-6-4-8-5-4"
       inkscape:connector-curvature="0" />
    <path
       style="fill:none;stroke:#000000;stroke-width:1.5;stroke-linecap:butt;stroke-linejoin:miter;stroke-opacity:1;display:inline"
       d="m 97.072731,113.20343 c 1.26034,3.77338 4.362779,9.89701 6.452829,12.96443 1.80159,2.64406 25.29581,16.62232 41.23455,21.90455 4.76037,1.57763 16.86541,-0.68429 19.61251,-6.71804 2.48778,-5.46414 4.85706,-12.4352 6.35947,-16.79476 1.82659,-5.30033 7.11612,-18.28214 6.91347,-26.396412 -0.0766,-3.07111 -0.0135,-12.20157 -0.34836,-16.02247 -0.27925,-3.18611 1.20194,-9.4549 1.38003,-12.280258 0.26252,-4.163746 -1.69674,-8.705909 -2.37864,-12.407352 -1.24725,-6.770473 -3.16458,-14.947886 -5.19011,-19.425264 C 166.12389,27.009494 156.54141,19.064648 144.18107,15.310575 126.26377,9.8686944 102.8016,13.724636 91.946405,25.601566 84.94557,33.261337 76.538724,43.125372 74.190688,55.632408 c -1.254577,6.682593 0.975243,33.40161 4.18386,38.4908 1.409137,2.23503 10.366283,16.976502 12.018539,25.418362 1.143584,5.84289 -0.0094,11.31321 -0.804462,17.06726"
       id="path6635-6-9-1-1-7-5-8"
       inkscape:connector-curvature="0"
       sodipodi:nodetypes="csssscscsssssssc" />
    <path
       style="fill:none;stroke:#000000;stroke-width:1.5;stroke-linecap:butt;stroke-linejoin:miter;stroke-opacity:1;display:inline"
       d="m 151.69104,76.950608 c 0.29633,1.36862 0.42195,3.73185 -0.0257,5.26045"
       id="path6643-0-0-5-2-6-1-6"
       inkscape:connector-curvature="0" />
    <path
       style="fill:#000000;stroke:none;display:inline"
       d="m 134.55798,81.228608 c -5.06205,0.0526 -15.07104,1.7449 -13.09339,0.90834 3.676,-1.55497 7.87739,-2.0547 13.21337,-2.49465 3.17473,-0.26175 6.11242,0.0767 9.57187,0.0483 2.81833,-0.0232 10.30643,0.69227 5.0565,2.03106 -5.24993,1.3388 -8.29464,-0.56002 -14.74835,-0.49298 z"
       id="path6645-7-0-4-0-3-7-5"
       inkscape:connector-curvature="0"
       sodipodi:nodetypes="ssssss" />
    <path
       style="fill:#000000;stroke:none;display:inline"
       d="m 177.89211,66.769117 c -1.04386,-0.2586 -7.35012,3.055685 -9.86099,4.547382 -2.94646,1.750439 -8.4235,6.183999 -7.14919,6.478209 3.79779,0.87686 5.24432,-2.44086 8.03659,-5.2299 2.77833,-2.775106 10.28339,-5.47121 8.97359,-5.795691 z"
       id="path6647-1-6-2-0-5-1-0"
       inkscape:connector-curvature="0" />
    <path
       style="fill:none;stroke:#000000;stroke-width:1.5;stroke-linecap:butt;stroke-linejoin:miter;stroke-opacity:1;display:inline"
       d="m 147.90523,107.81057 c -0.51677,1.89864 -0.36573,5.46965 2.21347,6.12055"
       id="path6649-7-1-0-1-6-1-9"
       inkscape:connector-curvature="0" />
    <path
       style="fill:none;stroke:#916f6f;stroke-width:1.5;stroke-linecap:butt;stroke-linejoin:miter;stroke-opacity:1;display:inline"
       d="m 146.91077,87.165538 c -1.12248,0.95638 -2.84925,3.9708 -4.66639,4.55183 -2.44285,0.7811 -4.57827,1.40049 -6.62286,1.57927 -1.93968,0.1696 -5.01703,-2.39511 -7.0456,-3.15543"
       id="path3339-7-3-9-4-5-5-0"
       inkscape:connector-curvature="0" />
    <path
       style="fill:none;stroke:#000000;stroke-width:1.5;stroke-linecap:butt;stroke-linejoin:miter;stroke-opacity:1;display:inline"
       d="m 147.54417,87.698218 c -1.11822,-0.58219 -2.42504,-1.76799 -3.87866,-1.84458 -1.86984,-0.0986 -6.28636,0.71061 -10.06942,1.72363 -1.77191,0.47445 -3.86644,1.66903 -6.03279,3.09212"
       id="path3337-7-8-7-6-8-2-0"
       inkscape:connector-curvature="0" />
    <path
       style="fill:none;stroke:#916f6f;stroke-width:1.5;stroke-linecap:butt;stroke-linejoin:miter;stroke-opacity:1;display:inline"
       d="m 175.37975,77.331538 c -0.56682,1.50247 -1.96458,5.81066 -2.98978,6.37545 -0.69732,0.38415 -3.09927,1.77967 -5.53437,1.86939 -0.67493,0.0248 -5.11009,-1.62324 -5.53193,-1.99012"
       id="path3355-7-9-3-0-3-7-6"
       inkscape:connector-curvature="0" />
    <path
       style="fill:none;stroke:#000000;stroke-width:1.5;stroke-linecap:butt;stroke-linejoin:miter;stroke-opacity:1;display:inline"
       d="m 176.16307,77.981868 c -0.96606,-0.65428 -1.64964,-1.6428 -2.78676,-1.44907 -1.53955,0.26232 -5.85962,1.9482 -7.77846,3.11839 -1.07391,0.6549 -3.28611,2.96401 -4.88613,4.90472"
       id="path3353-3-3-7-7-9-6-1"
       inkscape:connector-curvature="0" />
    <path
       style="fill:#deaa87;stroke:#000000;stroke-width:1.5;stroke-linecap:butt;stroke-linejoin:miter;stroke-opacity:1;display:inline"
       d="m 95.163031,111.42759 c -1.994856,-2.69084 -9.044536,2.40857 -11.831678,-4.19659 -1.768707,-4.19163 -4.088923,-6.9717 -5.884358,-15.475452 -1.780398,-8.43256 0.221139,-13.30879 2.455863,-14.63857 3.797621,-2.25973 7.08222,-0.35544 9.932908,1.88303"
       id="path6637-1-1-2-1-4-1-3"
       inkscape:connector-curvature="0" />
    <path
       style="opacity:0.95;fill:none;stroke:#000000;stroke-width:1.5;stroke-linecap:butt;stroke-linejoin:miter;stroke-opacity:1;display:inline"
       d="m 85.538733,101.48405 c 0.807637,-2.141302 3.46401,-4.511512 3.828163,-7.510752 0.34507,-2.84187 0.937015,-5.74915 0.106247,-7.55905 -1.256688,-2.73774 -5.446843,-8.1127 -7.547717,-7.56093 -1.684727,0.44248 -2.787713,3.36042 -3.039178,6.38088 -0.616372,7.4036 3.957056,16.682562 7.870763,16.820922 2.193641,0.0776 5.656732,4.46677 6.359489,2.85569 0.688826,-1.57928 -1.818773,-4.0908 -2.190805,-5.485902 -0.224158,-0.84054 1.500379,-4.00586 1.542395,-6.22364"
       id="path6639-8-8-6-7-8-4-8"
       inkscape:connector-curvature="0" />
    <path
       style="fill:#deaa87;stroke:none;display:inline"
       d="m 151.15994,131.39058 c -0.54416,-1.35485 3.18023,-2.82494 6.21804,-3.95383 3.15821,-1.1736 5.99276,-1.4496 5.94941,-0.29746 -0.0856,2.27421 -1.71443,4.37315 -5.38048,5.77387 -3.05506,1.16726 -5.97367,0.50276 -6.78697,-1.52258 z"
       id="path6710-3-4-7-4-0-6-2-4"
       inkscape:connector-curvature="0" />
    <path
       style="fill:none;stroke:#916f6f;stroke-width:1.5;stroke-linecap:butt;stroke-linejoin:miter;stroke-opacity:1;display:inline"
       d="m 167.31189,104.13877 c 1.24487,3.56297 0.35419,5.05097 -0.7231,6.63935"
       id="path4597"
       inkscape:connector-curvature="0" />
    <path
       style="fill:none;stroke:#000000;stroke-width:1.5;stroke-linecap:butt;stroke-linejoin:miter;stroke-opacity:1;display:inline"
       d="m 148.00327,148.10963 -2.56374,8.71669"
       id="path5409"
       inkscape:connector-curvature="0" />
    <path
       style="fill:#dbdbe3;stroke:#000000;stroke-width:1.5;stroke-linecap:butt;stroke-linejoin:miter;stroke-opacity:1;display:inline"
       d="m 87.923096,127.04178 c 5.819056,4.19684 15.326374,9.2051 25.559284,13.92544 6.92232,3.1932 26.11433,12.61793 35.28301,13.48469 2.03354,6.14068 5.92689,15.94492 6.49239,21.10691 -16.67725,-11.43541 -30.15548,-13.89281 -43.02309,-21.27357 -12.600069,-7.22727 -22.690996,-10.96477 -28.014515,-13.85573 0.170944,-2.74268 0.906812,-6.03103 3.702921,-13.38774 z"
       id="path5225"
       inkscape:connector-curvature="0"
       sodipodi:nodetypes="csccscc" />
    <path
       style="fill:#1c1f24;stroke:#000000;stroke-width:1.5;stroke-linecap:butt;stroke-linejoin:miter;stroke-opacity:1;display:inline"
       d="m 155.62171,175.78265 c -2.76689,-1.30803 -4.35406,-4.87488 -8.10278,-4.91625 -17.01138,-14.0881 -36.46006,-19.25837 -42.60848,-20.98099 -9.709809,-2.72041 -20.514643,-6.11519 -22.439442,-10.37972 0.458825,-1.7121 1.99582,-4.42163 3.301111,-7.29038 4.3529,1.72955 18.163321,7.47739 32.887161,15.32121 7.5527,4.02355 28.51415,15.06149 34.65256,23.60087 10.76668,14.97794 28.6519,53.01975 29.99484,67.87013 3.4379,38.01677 2.24049,104.17188 0.63267,109.83255 -1.32365,4.66035 -4.36989,12.69578 -7.0522,14.0064 -4.77234,2.33185 -36.79037,6.56042 -53.71528,3.40331 -13.45459,-2.50979 -45.804768,-24.61365 -45.393628,-37.88601 0.340253,-10.98405 8.181898,-61.91841 7.050027,-72.20099 -0.740411,-6.72628 -11.261101,-48.16041 -12.592798,-84.11368 -0.20128,-5.43404 0.0093,-16.55217 1.406936,-23.43639 0.977067,-4.8128 7.020071,-8.66665 9.676267,-11.55679"
       id="path6003-7"
       inkscape:connector-curvature="0"
       sodipodi:nodetypes="ccsccsssccssssss" />
    <path
       style="fill:none;stroke:#000000;stroke-width:1.5;stroke-linecap:butt;stroke-linejoin:miter;stroke-opacity:1;display:inline"
       d="m 127.97552,364.70466 43.37777,-17.67242 c -7.4974,-24.46952 -18.2388,-51.4097 -24.1111,-73.8597 0.42418,-13.42211 3.98,-37.1865 3.23167,-61.03169 -0.67355,-21.46218 -12.83278,-33.70614 -27.26875,-35.84337 -20.62773,-3.05392 -25.439639,21.46842 -26.253219,31.63317 -1.81903,22.72704 2.05215,53.60138 2.08043,65.16787 0.0383,15.63407 21.005729,61.90585 28.943199,91.60614 z"
       id="path5407"
       inkscape:connector-curvature="0"
       sodipodi:nodetypes="cccssssc" />
  </g>
  <g
     inkscape:groupmode="layer"
     id="layer7"
     inkscape:label="枠面"
     style="display:inline"
     sodipodi:insensitive="true">
    <path
       style="fill:#ff0000;stroke:none;display:inline"
       d="m 0,0 0,320 370,0 0,-320 -10,10 0,300 -350,0 0,-300 350,0 10,-10 z"
       id="path21072"
       inkscape:connector-curvature="0"
       sodipodi:nodetypes="ccccccccccc" />
  </g>
</svg>
