<?xml version="1.0" encoding="UTF-8" standalone="no"?>
<!-- Created with Inkscape (http://www.inkscape.org/) -->

<svg
   xmlns:dc="http://purl.org/dc/elements/1.1/"
   xmlns:cc="http://creativecommons.org/ns#"
   xmlns:rdf="http://www.w3.org/1999/02/22-rdf-syntax-ns#"
   xmlns:svg="http://www.w3.org/2000/svg"
   xmlns="http://www.w3.org/2000/svg"
   xmlns:sodipodi="http://sodipodi.sourceforge.net/DTD/sodipodi-0.dtd"
   xmlns:inkscape="http://www.inkscape.org/namespaces/inkscape"
   width="370"
   height="320"
   id="svg2"
   version="1.1"
   inkscape:version="0.92.3 (2405546, 2018-03-11)"
   sodipodi:docname="[17.追伸].svg"
   inkscape:export-filename="C:\Users\zhen-\Desktop\資料\臨時\HOSHI\17.png"
   inkscape:export-xdpi="96"
   inkscape:export-ydpi="96"
   enable-background="new">
  <defs
     id="defs4">
    <inkscape:perspective
       sodipodi:type="inkscape:persp3d"
       inkscape:vp_x="363.49708 : 943.81603 : 1"
       inkscape:vp_y="0 : 1000 : 0"
       inkscape:vp_z="744.09448 : 526.18109 : 1"
       inkscape:persp3d-origin="372.04724 : 350.78739 : 1"
       id="perspective5056" />
    <inkscape:perspective
       id="perspective5056-8"
       inkscape:persp3d-origin="372.04724 : 350.78739 : 1"
       inkscape:vp_z="744.09448 : 526.18109 : 1"
       inkscape:vp_y="0 : 1000 : 0"
       inkscape:vp_x="363.49708 : 943.81603 : 1"
       sodipodi:type="inkscape:persp3d" />
    <inkscape:perspective
       id="perspective5056-5"
       inkscape:persp3d-origin="372.04724 : 350.78739 : 1"
       inkscape:vp_z="744.09448 : 526.18109 : 1"
       inkscape:vp_y="0 : 1000 : 0"
       inkscape:vp_x="363.49708 : 943.81603 : 1"
       sodipodi:type="inkscape:persp3d" />
    <inkscape:perspective
       sodipodi:type="inkscape:persp3d"
       inkscape:vp_x="363.49708 : 943.81603 : 1"
       inkscape:vp_y="0 : 1000 : 0"
       inkscape:vp_z="744.09448 : 526.18109 : 1"
       inkscape:persp3d-origin="372.04724 : 350.78739 : 1"
       id="perspective5056-5-2" />
    <inkscape:perspective
       sodipodi:type="inkscape:persp3d"
       inkscape:vp_x="363.49708 : 943.81603 : 1"
       inkscape:vp_y="0 : 1000 : 0"
       inkscape:vp_z="744.09448 : 526.18109 : 1"
       inkscape:persp3d-origin="372.04724 : 350.78739 : 1"
       id="perspective5056-8-5" />
    <inkscape:perspective
       id="perspective5056-1"
       inkscape:persp3d-origin="372.04724 : 350.78739 : 1"
       inkscape:vp_z="744.09448 : 526.18109 : 1"
       inkscape:vp_y="0 : 1000 : 0"
       inkscape:vp_x="363.49708 : 943.81603 : 1"
       sodipodi:type="inkscape:persp3d" />
    <inkscape:perspective
       sodipodi:type="inkscape:persp3d"
       inkscape:vp_x="363.49708 : 943.81603 : 1"
       inkscape:vp_y="0 : 1000 : 0"
       inkscape:vp_z="744.09448 : 526.18109 : 1"
       inkscape:persp3d-origin="372.04724 : 350.78739 : 1"
       id="perspective5056-5-5" />
    <inkscape:perspective
       id="perspective5056-4"
       inkscape:persp3d-origin="372.04724 : 350.78739 : 1"
       inkscape:vp_z="744.09448 : 526.18109 : 1"
       inkscape:vp_y="0 : 1000 : 0"
       inkscape:vp_x="363.49708 : 943.81603 : 1"
       sodipodi:type="inkscape:persp3d" />
    <inkscape:perspective
       sodipodi:type="inkscape:persp3d"
       inkscape:vp_x="363.49708 : 943.81603 : 1"
       inkscape:vp_y="0 : 1000 : 0"
       inkscape:vp_z="744.09448 : 526.18109 : 1"
       inkscape:persp3d-origin="372.04724 : 350.78739 : 1"
       id="perspective5056-1-2" />
    <inkscape:perspective
       id="perspective5056-8-5-8"
       inkscape:persp3d-origin="372.04724 : 350.78739 : 1"
       inkscape:vp_z="744.09448 : 526.18109 : 1"
       inkscape:vp_y="0 : 1000 : 0"
       inkscape:vp_x="363.49708 : 943.81603 : 1"
       sodipodi:type="inkscape:persp3d" />
    <inkscape:perspective
       id="perspective5056-5-2-8"
       inkscape:persp3d-origin="372.04724 : 350.78739 : 1"
       inkscape:vp_z="744.09448 : 526.18109 : 1"
       inkscape:vp_y="0 : 1000 : 0"
       inkscape:vp_x="363.49708 : 943.81603 : 1"
       sodipodi:type="inkscape:persp3d" />
    <inkscape:perspective
       sodipodi:type="inkscape:persp3d"
       inkscape:vp_x="363.49708 : 943.81603 : 1"
       inkscape:vp_y="0 : 1000 : 0"
       inkscape:vp_z="744.09448 : 526.18109 : 1"
       inkscape:persp3d-origin="372.04724 : 350.78739 : 1"
       id="perspective5056-5-4" />
    <inkscape:perspective
       sodipodi:type="inkscape:persp3d"
       inkscape:vp_x="363.49708 : 943.81603 : 1"
       inkscape:vp_y="0 : 1000 : 0"
       inkscape:vp_z="744.09448 : 526.18109 : 1"
       inkscape:persp3d-origin="372.04724 : 350.78739 : 1"
       id="perspective5056-8-9" />
    <inkscape:perspective
       id="perspective5056-40"
       inkscape:persp3d-origin="372.04724 : 350.78739 : 1"
       inkscape:vp_z="744.09448 : 526.18109 : 1"
       inkscape:vp_y="0 : 1000 : 0"
       inkscape:vp_x="363.49708 : 943.81603 : 1"
       sodipodi:type="inkscape:persp3d" />
    <inkscape:perspective
       sodipodi:type="inkscape:persp3d"
       inkscape:vp_x="363.49708 : 943.81603 : 1"
       inkscape:vp_y="0 : 1000 : 0"
       inkscape:vp_z="744.09448 : 526.18109 : 1"
       inkscape:persp3d-origin="372.04724 : 350.78739 : 1"
       id="perspective5056-1-5" />
    <inkscape:perspective
       id="perspective5056-8-5-4"
       inkscape:persp3d-origin="372.04724 : 350.78739 : 1"
       inkscape:vp_z="744.09448 : 526.18109 : 1"
       inkscape:vp_y="0 : 1000 : 0"
       inkscape:vp_x="363.49708 : 943.81603 : 1"
       sodipodi:type="inkscape:persp3d" />
    <inkscape:perspective
       id="perspective5056-5-2-82"
       inkscape:persp3d-origin="372.04724 : 350.78739 : 1"
       inkscape:vp_z="744.09448 : 526.18109 : 1"
       inkscape:vp_y="0 : 1000 : 0"
       inkscape:vp_x="363.49708 : 943.81603 : 1"
       sodipodi:type="inkscape:persp3d" />
    <inkscape:perspective
       sodipodi:type="inkscape:persp3d"
       inkscape:vp_x="363.49708 : 943.81603 : 1"
       inkscape:vp_y="0 : 1000 : 0"
       inkscape:vp_z="744.09448 : 526.18109 : 1"
       inkscape:persp3d-origin="372.04724 : 350.78739 : 1"
       id="perspective5056-5-8" />
    <inkscape:perspective
       sodipodi:type="inkscape:persp3d"
       inkscape:vp_x="363.49708 : 943.81603 : 1"
       inkscape:vp_y="0 : 1000 : 0"
       inkscape:vp_z="744.09448 : 526.18109 : 1"
       inkscape:persp3d-origin="372.04724 : 350.78739 : 1"
       id="perspective5056-8-4" />
    <inkscape:perspective
       id="perspective5056-409"
       inkscape:persp3d-origin="372.04724 : 350.78739 : 1"
       inkscape:vp_z="744.09448 : 526.18109 : 1"
       inkscape:vp_y="0 : 1000 : 0"
       inkscape:vp_x="363.49708 : 943.81603 : 1"
       sodipodi:type="inkscape:persp3d" />
    <inkscape:perspective
       sodipodi:type="inkscape:persp3d"
       inkscape:vp_x="363.49708 : 943.81603 : 1"
       inkscape:vp_y="0 : 1000 : 0"
       inkscape:vp_z="744.09448 : 526.18109 : 1"
       inkscape:persp3d-origin="372.04724 : 350.78739 : 1"
       id="perspective5056-1-7" />
    <inkscape:perspective
       id="perspective5056-8-5-2"
       inkscape:persp3d-origin="372.04724 : 350.78739 : 1"
       inkscape:vp_z="744.09448 : 526.18109 : 1"
       inkscape:vp_y="0 : 1000 : 0"
       inkscape:vp_x="363.49708 : 943.81603 : 1"
       sodipodi:type="inkscape:persp3d" />
    <inkscape:perspective
       id="perspective5056-5-2-89"
       inkscape:persp3d-origin="372.04724 : 350.78739 : 1"
       inkscape:vp_z="744.09448 : 526.18109 : 1"
       inkscape:vp_y="0 : 1000 : 0"
       inkscape:vp_x="363.49708 : 943.81603 : 1"
       sodipodi:type="inkscape:persp3d" />
    <inkscape:perspective
       sodipodi:type="inkscape:persp3d"
       inkscape:vp_x="363.49708 : 943.81603 : 1"
       inkscape:vp_y="0 : 1000 : 0"
       inkscape:vp_z="744.09448 : 526.18109 : 1"
       inkscape:persp3d-origin="372.04724 : 350.78739 : 1"
       id="perspective5056-5-1" />
    <inkscape:perspective
       sodipodi:type="inkscape:persp3d"
       inkscape:vp_x="363.49708 : 943.81603 : 1"
       inkscape:vp_y="0 : 1000 : 0"
       inkscape:vp_z="744.09448 : 526.18109 : 1"
       inkscape:persp3d-origin="372.04724 : 350.78739 : 1"
       id="perspective5056-8-6" />
    <inkscape:perspective
       id="perspective5056-7"
       inkscape:persp3d-origin="372.04724 : 350.78739 : 1"
       inkscape:vp_z="744.09448 : 526.18109 : 1"
       inkscape:vp_y="0 : 1000 : 0"
       inkscape:vp_x="363.49708 : 943.81603 : 1"
       sodipodi:type="inkscape:persp3d" />
    <inkscape:perspective
       sodipodi:type="inkscape:persp3d"
       inkscape:vp_x="363.49708 : 943.81603 : 1"
       inkscape:vp_y="0 : 1000 : 0"
       inkscape:vp_z="744.09448 : 526.18109 : 1"
       inkscape:persp3d-origin="372.04724 : 350.78739 : 1"
       id="perspective5056-1-1" />
    <inkscape:perspective
       id="perspective5056-8-5-82"
       inkscape:persp3d-origin="372.04724 : 350.78739 : 1"
       inkscape:vp_z="744.09448 : 526.18109 : 1"
       inkscape:vp_y="0 : 1000 : 0"
       inkscape:vp_x="363.49708 : 943.81603 : 1"
       sodipodi:type="inkscape:persp3d" />
    <inkscape:perspective
       id="perspective5056-5-2-1"
       inkscape:persp3d-origin="372.04724 : 350.78739 : 1"
       inkscape:vp_z="744.09448 : 526.18109 : 1"
       inkscape:vp_y="0 : 1000 : 0"
       inkscape:vp_x="363.49708 : 943.81603 : 1"
       sodipodi:type="inkscape:persp3d" />
    <inkscape:perspective
       sodipodi:type="inkscape:persp3d"
       inkscape:vp_x="363.49708 : 943.81603 : 1"
       inkscape:vp_y="0 : 1000 : 0"
       inkscape:vp_z="744.09448 : 526.18109 : 1"
       inkscape:persp3d-origin="372.04724 : 350.78739 : 1"
       id="perspective5056-5-46" />
    <inkscape:perspective
       sodipodi:type="inkscape:persp3d"
       inkscape:vp_x="363.49708 : 943.81603 : 1"
       inkscape:vp_y="0 : 1000 : 0"
       inkscape:vp_z="744.09448 : 526.18109 : 1"
       inkscape:persp3d-origin="372.04724 : 350.78739 : 1"
       id="perspective5056-8-92" />
    <inkscape:perspective
       id="perspective5056-3"
       inkscape:persp3d-origin="372.04724 : 350.78739 : 1"
       inkscape:vp_z="744.09448 : 526.18109 : 1"
       inkscape:vp_y="0 : 1000 : 0"
       inkscape:vp_x="363.49708 : 943.81603 : 1"
       sodipodi:type="inkscape:persp3d" />
  </defs>
  <sodipodi:namedview
     id="base"
     pagecolor="#ffffff"
     bordercolor="#666666"
     borderopacity="1.0"
     inkscape:pageopacity="0.0"
     inkscape:pageshadow="2"
     inkscape:zoom="1.9424062"
     inkscape:cx="85.846043"
     inkscape:cy="194.28515"
     inkscape:document-units="px"
     inkscape:current-layer="layer8"
     showgrid="false"
     inkscape:window-width="1649"
     inkscape:window-height="969"
     inkscape:window-x="75"
     inkscape:window-y="-2"
     inkscape:window-maximized="1"
     showguides="true"
     inkscape:guide-bbox="true"
     inkscape:snap-grids="false"
     inkscape:snap-to-guides="false"
     showborder="true"
     inkscape:showpageshadow="false"
     fit-margin-top="0"
     fit-margin-left="0"
     fit-margin-right="0"
     fit-margin-bottom="0"
     inkscape:snap-page="false"
     inkscape:snap-global="false" />
  <metadata
     id="metadata7">
    <rdf:RDF>
      <cc:Work
         rdf:about="">
        <dc:format>image/svg+xml</dc:format>
        <dc:type
           rdf:resource="http://purl.org/dc/dcmitype/StillImage" />
        <dc:title />
      </cc:Work>
    </rdf:RDF>
  </metadata>
  <g
     inkscape:groupmode="layer"
     id="layer2"
     inkscape:label="補助線"
     style="display:none"
     sodipodi:insensitive="true">
    <path
       style="fill:none;stroke:#0000ff;stroke-width:1px;stroke-linecap:butt;stroke-linejoin:miter;stroke-opacity:1"
       d="M 10,310 360,10"
       id="path3025"
       inkscape:connector-curvature="0"
       sodipodi:nodetypes="cc" />
    <path
       style="fill:none;stroke:#0000ff;stroke-width:1px;stroke-linecap:butt;stroke-linejoin:miter;stroke-opacity:1"
       d="M 10,10 360,310"
       id="path3027"
       inkscape:connector-curvature="0"
       sodipodi:nodetypes="cc" />
    <path
       style="display:inline;fill:none;stroke:#ff0000;stroke-width:1px;stroke-linecap:butt;stroke-linejoin:miter;stroke-opacity:1"
       d="M 10,0 V 320"
       id="path3006"
       inkscape:connector-curvature="0"
       sodipodi:nodetypes="cc" />
    <path
       style="display:inline;fill:none;stroke:#ff0000;stroke-width:1px;stroke-linecap:butt;stroke-linejoin:miter;stroke-opacity:1"
       d="M 360,0 V 320"
       id="path3010"
       inkscape:connector-curvature="0"
       sodipodi:nodetypes="cc" />
    <path
       style="display:inline;fill:none;stroke:#ff0000;stroke-width:1px;stroke-linecap:butt;stroke-linejoin:miter;stroke-opacity:1"
       d="M 0,9.9999681 370,10"
       id="path3016"
       inkscape:connector-curvature="0" />
    <path
       transform="translate(84.715796,27.711696)"
       style="display:inline;fill:none;stroke:#ff0000;stroke-width:1px;stroke-linecap:butt;stroke-linejoin:miter;stroke-opacity:1"
       d="M -84.715796,282.2883 H 285.2842"
       id="path3018"
       inkscape:connector-curvature="0"
       sodipodi:nodetypes="cc" />
  </g>
  <g
     inkscape:groupmode="layer"
     id="layer1"
     inkscape:label="吹き出し"
     sodipodi:insensitive="true">
    <path
       style="display:inline;opacity:1;fill:#fefefe;fill-opacity:1;stroke:#000000;stroke-width:1.5;stroke-linecap:round;stroke-linejoin:round;stroke-miterlimit:4;stroke-dasharray:none;stroke-dashoffset:0;stroke-opacity:1"
       d="m 284.64506,294.98403 c -40.56679,0 -73.45266,-62.06143 -73.45266,-138.61808 0,-11.40146 -16.36885,-18.07007 -26.86096,-37.8839 12.55799,12.97269 31.47932,-11.30666 33.27698,-18.858735 11.48867,-48.264324 37.18274,-81.875434 67.03664,-81.875434 40.56677,0 73.45263,62.061415 73.45264,138.618069 0,76.55665 -32.88587,138.61808 -73.45264,138.61808 z"
       id="path7611"
       inkscape:connector-curvature="0"
       sodipodi:nodetypes="sscssss" />
    <text
       xml:space="preserve"
       style="font-style:normal;font-variant:normal;font-weight:normal;font-stretch:normal;font-size:25.65791512px;line-height:1.25;font-family:HGMinchoB;-inkscape-font-specification:HGMinchoB;letter-spacing:0px;word-spacing:0px;display:inline;fill:#000000;fill-opacity:1;stroke:none;stroke-width:1.80407214;stroke-linecap:round"
       x="246.78279"
       y="63.806145"
       id="text7607"><tspan
         sodipodi:role="line"
         x="246.78279"
         y="63.806145"
         id="tspan3814"
         style="stroke-width:1.80407214">　一お</tspan><tspan
         sodipodi:role="line"
         x="246.78279"
         y="97.727058"
         id="tspan3846"
         style="stroke-width:1.80407214">有つ</tspan><tspan
         sodipodi:role="line"
         x="246.78279"
         y="131.64796"
         id="tspan3870"
         style="stroke-width:1.80407214">り言と</tspan><tspan
         sodipodi:role="line"
         x="246.78279"
         y="165.56888"
         id="tspan3887"
         style="stroke-width:1.80407214">難い</tspan><tspan
         sodipodi:role="line"
         x="246.78279"
         y="199.48979"
         id="tspan3775"
         style="stroke-width:1.80407214">う忘</tspan><tspan
         sodipodi:role="line"
         x="246.78279"
         y="233.41069"
         id="tspan3896"
         style="stroke-width:1.80407214">　れ</tspan><tspan
         sodipodi:role="line"
         x="246.78279"
         y="267.3316"
         id="tspan3898"
         style="stroke-width:1.80407214">　た</tspan></text>
    <text
       xml:space="preserve"
       style="font-style:normal;font-variant:normal;font-weight:normal;font-stretch:normal;font-size:25.65791512px;line-height:1.25;font-family:HGMinchoB;-inkscape-font-specification:HGMinchoB;letter-spacing:0px;word-spacing:0px;fill:#1a1a1a;fill-opacity:1;stroke:none;stroke-width:1.2027148"
       x="261.48834"
       y="146.9516"
       id="text3750"><tspan
         sodipodi:role="line"
         x="261.48834"
         y="146.9516"
         id="tspan3752"
         style="stroke-width:1.2027148">　　、</tspan><tspan
         sodipodi:role="line"
         x="261.48834"
         y="179.02399"
         id="tspan3754"
         style="stroke-width:1.2027148" /><tspan
         sodipodi:role="line"
         x="261.48834"
         y="212.9449"
         id="tspan3756"
         style="stroke-width:1.2027148">。</tspan><tspan
         sodipodi:role="line"
         x="261.48834"
         y="245.0173"
         id="tspan3904"
         style="stroke-width:1.2027148">　</tspan><tspan
         sodipodi:role="line"
         x="261.48834"
         y="278.9382"
         id="tspan3906"
         style="stroke-width:1.2027148">　。</tspan></text>
    <text
       xml:space="preserve"
       style="font-style:normal;font-variant:normal;font-weight:normal;font-stretch:normal;font-size:25.65791512px;line-height:1.25;font-family:HGMinchoB;-inkscape-font-specification:HGMinchoB;letter-spacing:0px;word-spacing:0px;fill:#000000;fill-opacity:1;stroke:none;stroke-width:1.2027148"
       x="302.20224"
       y="93.620789"
       id="text3916"><tspan
         sodipodi:role="line"
         id="tspan3914"
         x="302.20224"
         y="93.620789"
         style="stroke-width:1.2027148">っ</tspan></text>
    <text
       xml:space="preserve"
       style="font-style:normal;font-variant:normal;font-weight:normal;font-stretch:normal;font-size:25.65791512px;line-height:1.25;font-family:HGMinchoB;-inkscape-font-specification:HGMinchoB;letter-spacing:0px;word-spacing:0px;fill:#000000;fill-opacity:1;stroke:none;stroke-width:1.2027148"
       x="43.534"
       y="-258.76947"
       id="text3920"
       transform="rotate(90)"><tspan
         sodipodi:role="line"
         id="tspan3918"
         x="43.534"
         y="-258.76947"
         style="stroke-width:1.2027148">…</tspan></text>
  </g>
  <g
     inkscape:groupmode="layer"
     id="layer8"
     inkscape:label="豚"
     style="display:inline"
     sodipodi:insensitive="true">
    <path
       style="display:inline;opacity:0.95;fill:#241c1c;stroke:#000000;stroke-width:1.5;stroke-linecap:round;stroke-linejoin:round"
       d="m 181.91053,72.056725 -31.99627,-6.172456 c -7.85236,-1.514812 -7.29027,8.767405 -8.09729,16.10438 -0.40554,3.686903 3.07948,7.502572 3.24816,2.226025 0.17396,-5.44236 -2.14989,-18.049698 4.05717,-16.220778 l 32.74158,9.107093 z"
       id="path6942-2"
       inkscape:connector-curvature="0"
       sodipodi:nodetypes="csssscc" />
    <path
       style="display:inline;fill:#550000;stroke:#000000;stroke-width:1.5;stroke-linecap:round;stroke-linejoin:round;stroke-opacity:1"
       d="m 144.92723,160.67398 -2.23629,4.64258 -6.48592,8.81662 21.46856,15.06327 2.11751,-3.68036 c -1.91148,-8.03072 -7.45686,-19.79229 -14.86386,-24.84211 z"
       id="path6768-9-9"
       inkscape:connector-curvature="0"
       sodipodi:nodetypes="cccccc" />
    <path
       style="display:inline;fill:#1c1f24;stroke:#000000;stroke-width:1.5;stroke-linecap:round;stroke-linejoin:round;stroke-opacity:1"
       d="m 123.17187,366.24978 c -13.45459,-2.50979 -45.804768,-24.61365 -45.393628,-37.88601 0.340253,-10.98405 8.181898,-61.91841 7.050027,-72.20099 -0.740411,-6.72628 -16.791685,-41.63898 -18.123382,-77.59225 -0.20128,-5.43404 2.978709,-17.85753 4.376329,-24.74175 0.977083,-4.8128 7.943098,-13.88272 12.419476,-16.77286 l 15.347787,3.0258 54.407101,36.84224 19.38011,33.91575 10.70604,29.16436 z"
       id="path6003-7"
       inkscape:connector-curvature="0"
       sodipodi:nodetypes="csssscccccc" />
    <path
       style="display:inline;fill:#deaa87;fill-opacity:1;stroke:#000000;stroke-width:1.5;stroke-linecap:round;stroke-linejoin:round;stroke-opacity:1"
       d="m 143.50894,164.42 c -0.71683,-9.37795 2.2238,-17.38435 5.31074,-25.33589 l -58.608611,-32.1018 c 1.143584,5.84289 0.172618,23.87247 -0.622444,29.62652 z"
       id="path5409"
       inkscape:connector-curvature="0"
       sodipodi:nodetypes="ccccc" />
    <path
       style="display:inline;fill:#deaa87;stroke:#000000;stroke-width:1.5;stroke-linecap:round;stroke-linejoin:round;stroke-opacity:1"
       d="m 98.619886,117.11682 c 1.715384,3.04531 2.815624,5.98362 4.905674,9.05104 1.80159,2.64406 26.29691,16.4403 42.23565,21.72253 4.76037,1.57763 15.8643,-0.50227 18.61141,-6.53602 2.48777,-5.46414 4.85707,-12.4352 6.35947,-16.79476 1.8266,-5.30033 6.54693,-19.98951 6.91347,-26.396412 0.17547,-3.06705 -0.23525,-11.44403 -0.57012,-15.264929 -0.27924,-3.186111 1.80979,-11.113387 1.98791,-13.938743 0.26249,-4.163748 -1.43934,-7.290137 -2.12123,-10.991583 -1.24726,-6.77047 -5.35141,-14.54345 -7.47181,-18.976686 -4.46976,-9.345177 -14.01186,-16.628197 -26.3722,-20.38227 -17.9173,-5.441881 -36.69652,1.219729 -46.823642,10.184367 -7.7701,6.878178 -14.183077,17.42097 -17.560763,27.482586 -2.163866,6.445828 -3.547774,32.758078 -0.339157,37.847268 1.409137,2.23503 11.094356,18.068612 12.746612,26.510472"
       id="path2112"
       inkscape:connector-curvature="0"
       sodipodi:nodetypes="cssssssssscsssc" />
    <path
       style="display:inline;fill:#e9c6af;stroke:none;stroke-width:1.5;stroke-linecap:round;stroke-linejoin:round"
       d="m 101.80686,34.554243 c -3.015071,15.4911 5.43444,30.638851 11.37994,36.587862 4.15681,4.15927 9.59818,9.588801 14.4159,9.742769 l 14.10329,0.454866 c -3.78314,-0.21464 -8.80043,0.454188 -10.79454,2.290638 -2.52235,2.32296 -2.27746,6.16389 -1.65152,6.9021 l 17.6979,-3.42019 c 0.33595,-3.06357 -0.84603,-4.348085 -4.7912,-7.028015 5.15348,0.30365 7.05984,-3.464075 9.80715,-3.016325 0.90118,0.14686 -0.0709,6.158602 0.0324,7.46077 0.22272,2.806752 0.009,8.0404 -2.81927,6.29292 -2.87772,-1.77818 -3.34239,4.65608 -8.39757,6.62755 -2.38552,0.93031 -9.78649,-0.83251 -11.35671,-0.46313 -2.36097,0.55541 -2.5886,3.600912 -3.03482,6.423872 -0.33866,2.14235 5.17114,15.02952 11.34406,26.54343 3.77336,7.03819 7.06882,14.66655 11.49545,15.95822 3.43315,1.00178 8.89373,0.10265 12.16972,-3.63112 2.94821,-3.36019 3.9434,-9.4461 5.89456,-13.30158 4.16183,-8.22379 6.52467,-19.11382 8.58593,-26.88589 1.44251,-5.439074 0.54937,-8.671678 -0.67088,-11.916399 -0.36773,-0.977802 -0.75457,-3.354273 -3.66022,-1.917263 -2.12484,1.05088 -6.76331,-0.27531 -9.20127,-1.55094 -0.69454,1.2577 1.95211,10.73943 4.98793,17.511652 0.74728,1.66702 1.1496,4.85099 -0.67465,6.55697 -1.09488,1.02389 -2.79083,3.04459 -4.55776,5.80054 0.6328,-2.49174 0.5841,-4.26108 -0.50493,-3.92102 -0.90619,0.28296 -2.29714,1.2937 -2.61256,3.25612 -1.27169,-1.39457 -4.15694,-0.26235 -4.00384,-1.22799 0.1522,-0.95989 3.31946,-2.92661 6.19796,-3.60845 0.76032,0.38895 3.13916,0.33543 4.0689,-1.41041 1.13856,-2.13797 0.6668,-3.72534 0.25815,-5.00967 -2.23197,-7.014992 -6.37264,-18.27312 -6.51762,-20.069372 -0.0708,-0.877498 0.2381,-7.34737 3.98534,-7.75614 -0.69365,1.50015 -2.7553,5.13964 -1.4278,6.82743 l 11.56557,-6.123301 c 2.82334,-1.803469 2.04994,-6.675488 -0.29816,-7.801749 2.77395,-3.517874 2.70931,-7.949282 1.52581,-13.777908 -1.77821,-8.757482 -5.15646,-14.84359 -7.64319,-19.106554 -4.98786,-8.550631 -20.84295,-18.503729 -36.06146,-18.902935 -13.44205,-0.352607 -26.57122,4.972534 -28.83599,16.608642 z"
       id="path3438-5-86-7-3-4-0-4-2"
       inkscape:connector-curvature="0"
       sodipodi:nodetypes="ssccscccssssssssssssscsscscccsssccccssss" />
    <path
       style="display:inline;fill:#fefefe;fill-opacity:1;stroke:none;stroke-width:1.5;stroke-linecap:round;stroke-linejoin:round"
       d="m 163.67208,80.336244 -2.11129,3.597342 8.18373,1.227405 5.28079,-7.436621 -1.74961,-0.38671 z"
       id="path3337-0-4-0-1-8-6-9-1"
       inkscape:connector-curvature="0"
       sodipodi:nodetypes="cccccc" />
    <path
       style="display:inline;fill:#fefefe;fill-opacity:1;stroke:none;stroke-width:1.5;stroke-linecap:round;stroke-linejoin:round"
       d="m 144.21156,85.580611 -10.79749,1.837391 -4.83815,2.723206 10.71151,3.157797 7.45425,-6.016075 z"
       id="path3353-4-1-2-2-4-9-8-7"
       inkscape:connector-curvature="0"
       sodipodi:nodetypes="cccccc" />
    <path
       style="display:inline;fill:#fefefe;fill-opacity:1;stroke:#916f6f;stroke-width:1.5;stroke-linecap:round;stroke-linejoin:round;stroke-opacity:1"
       d="m 146.74168,87.28293 c -1.12248,0.95638 -2.68016,4.707093 -4.4973,5.288123 -2.44285,0.7811 -4.06344,1.190337 -6.10803,1.369117 -1.93968,0.1696 -5.53186,-3.038642 -7.56043,-3.798962"
       id="path3339-7-3-9-4-5-5-0"
       inkscape:connector-curvature="0"
       sodipodi:nodetypes="cssc" />
    <path
       style="display:inline;fill:#2b0000;stroke:none;stroke-width:1.5;stroke-linecap:round;stroke-linejoin:round"
       d="m 137.62585,91.611148 c -2.36662,0.415586 -4.09233,-1.91359 -4.52815,-3.93283 l 7.99096,-1.68558 c 0.41207,2.89991 -1.09938,5.203386 -3.46281,5.61841 z"
       id="path3357-1-2-4-7-5-3-8-6"
       inkscape:connector-curvature="0"
       sodipodi:nodetypes="sccs" />
    <path
       style="display:inline;fill:#fefefe;fill-opacity:1;stroke:#916f6f;stroke-width:1.5;stroke-linecap:round;stroke-linejoin:round;stroke-opacity:1"
       d="m 175.02531,77.72437 c -0.56682,1.50247 -1.50953,5.719651 -2.53473,6.284441 -0.69732,0.38415 -3.09927,1.779723 -5.53437,1.86939 -0.67493,0.02485 -4.97358,-1.577735 -5.39542,-1.944615"
       id="path3355-7-9-3-0-3-7-6"
       inkscape:connector-curvature="0"
       sodipodi:nodetypes="cssc" />
    <path
       style="display:inline;fill:#2b0000;stroke:none;stroke-width:1.5;stroke-linecap:round;stroke-linejoin:round"
       d="m 170.20893,78.002701 c 0.28552,2.3715 -0.0941,5.05041 -1.94905,5.84351 -2.12739,0.90959 -4.74493,-0.598939 -5.0955,-1.948589 l 0.41187,-1.64116 z"
       id="path3357-0-8-6-7-0-2-0"
       inkscape:connector-curvature="0"
       sodipodi:nodetypes="csccc" />
    <path
       style="display:inline;fill:none;stroke:#000000;stroke-width:1.5;stroke-linecap:round;stroke-linejoin:round;stroke-opacity:1"
       d="m 160.54053,75.768138 c -0.13857,2.52095 -1.67619,7.30123 -1.45937,9.0382 0.3898,3.12252 6.19094,18.148642 6.82993,19.703742"
       id="path5947"
       inkscape:connector-curvature="0" />
    <path
       style="display:inline;fill:none;stroke:#000000;stroke-width:1.5;stroke-linecap:round;stroke-linejoin:round;stroke-opacity:1"
       d="m 161.4366,110.90725 c -1.72039,0.77118 -5.25799,2.14481 -6.53216,3.66728"
       id="path6629-0-6-3-5-0-4-2"
       inkscape:connector-curvature="0"
       sodipodi:nodetypes="cc" />
    <path
       style="display:inline;fill:#000000;stroke:none;stroke-width:1.5;stroke-linecap:round;stroke-linejoin:round"
       d="m 162.98836,113.71186 c -0.92128,-0.43915 -1.26814,2.50974 -3.5033,3.02711 -3.02735,0.70073 -4.11756,-0.9282 -5.10264,-0.33972 -4.15755,2.4837 -13.70696,8.98492 -14.36755,11.23527 -0.66734,2.27333 0.13792,5.71001 1.4325,5.12188 4.17164,-1.89521 13.29546,-6.39043 17.61634,-7.38424 6.11366,-1.40616 8.4403,-1.15354 11.05967,-1.5692 0.63435,-0.10067 1.2855,-4.96747 0.29881,-6.0692 -1.42999,-1.59672 -6.03199,-3.35368 -7.43383,-4.0219 z"
       id="path6633-4-0-6-4-8-5-4"
       inkscape:connector-curvature="0"
       sodipodi:nodetypes="sssssssss" />
    <path
       style="display:inline;fill:none;stroke:#000000;stroke-width:1.5;stroke-linecap:round;stroke-linejoin:round;stroke-opacity:1"
       d="m 151.69104,76.950608 c 0.29633,1.36862 0.42195,3.73185 -0.0257,5.26045"
       id="path6643-0-0-5-2-6-1-6"
       inkscape:connector-curvature="0" />
    <path
       style="display:inline;fill:#000000;stroke:none;stroke-width:1.5;stroke-linecap:round;stroke-linejoin:round"
       d="m 134.55798,81.228608 c -5.06205,0.0526 -15.07104,1.7449 -13.09339,0.90834 3.676,-1.55497 7.87739,-2.0547 13.21337,-2.49465 3.17473,-0.26175 6.11242,0.0767 9.57187,0.0483 2.81833,-0.0232 10.30643,0.69227 5.0565,2.03106 -5.24993,1.3388 -8.29464,-0.56002 -14.74835,-0.49298 z"
       id="path6645-7-0-4-0-3-7-5"
       inkscape:connector-curvature="0"
       sodipodi:nodetypes="ssssss" />
    <path
       style="display:inline;fill:#000000;stroke:none;stroke-width:1.5;stroke-linecap:round;stroke-linejoin:round"
       d="m 177.99272,67.07094 c -1.04386,-0.2586 -7.35012,3.055685 -9.86099,4.547382 -2.94646,1.750439 -8.4235,6.183999 -7.14919,6.478209 3.79779,0.87686 5.24432,-2.44086 8.03659,-5.2299 2.77833,-2.775106 10.28339,-5.47121 8.97359,-5.795691 z"
       id="path6647-1-6-2-0-5-1-0"
       inkscape:connector-curvature="0" />
    <path
       style="display:inline;fill:none;stroke:#000000;stroke-width:1.5;stroke-linecap:round;stroke-linejoin:round;stroke-opacity:1"
       d="m 147.90523,107.81057 c -0.51677,1.89864 -0.36573,5.46965 2.21347,6.12055"
       id="path6649-7-1-0-1-6-1-9"
       inkscape:connector-curvature="0" />
    <path
       style="display:inline;fill:none;stroke:#000000;stroke-width:1.5;stroke-linecap:round;stroke-linejoin:round;stroke-opacity:1"
       d="m 147.54417,87.698218 c -1.11822,-0.58219 -1.87899,-2.040982 -3.33261,-2.117607 -1.86984,-0.09857 -7.01443,0.824389 -10.79749,1.837391 -1.77191,0.474468 -4.38867,2.431943 -5.85077,3.251386"
       id="path3337-7-8-7-6-8-2-0"
       inkscape:connector-curvature="0"
       sodipodi:nodetypes="cssc" />
    <path
       style="display:inline;fill:none;stroke:#000000;stroke-width:1.5;stroke-linecap:round;stroke-linejoin:round;stroke-opacity:1"
       d="m 176.26368,78.283691 c -0.96606,-0.65428 -1.85086,-1.139773 -2.98798,-0.946031 -1.53955,0.262308 -7.68478,1.828394 -9.60362,2.998584 -1.07391,0.6549 -1.25973,2.580777 -2.85975,4.521487"
       id="path3353-3-3-7-7-9-6-1"
       inkscape:connector-curvature="0"
       sodipodi:nodetypes="cssc" />
    <path
       style="display:inline;fill:#deaa87;stroke:none;stroke-width:1.5;stroke-linecap:round;stroke-linejoin:round"
       d="m 151.15994,131.39058 c -0.54416,-1.35485 3.18023,-2.82494 6.21804,-3.95383 3.15821,-1.1736 5.99276,-1.4496 5.94941,-0.29746 -0.0856,2.27421 -1.71443,4.37315 -5.38048,5.77387 -3.05506,1.16726 -5.97367,0.50276 -6.78697,-1.52258 z"
       id="path6710-3-4-7-4-0-6-2-4"
       inkscape:connector-curvature="0" />
    <path
       style="display:inline;fill:none;stroke:#916f6f;stroke-width:1.5;stroke-linecap:round;stroke-linejoin:round;stroke-opacity:1"
       d="m 167.31189,104.13877 c 1.24487,3.56297 0.35419,5.05097 -0.7231,6.63935"
       id="path4597"
       inkscape:connector-curvature="0" />
    <path
       style="display:inline;fill:#dbdbe3;stroke:#000000;stroke-width:1.5;stroke-linecap:round;stroke-linejoin:round;stroke-opacity:1"
       d="m 89.789338,126.4626 c -1.344334,4.54793 9.124899,10.57676 20.267832,16.50303 10.44866,5.55703 21.22158,10.14507 34.60255,15.8478 2.03354,6.14068 4.81081,12.214 6.93372,17.4312 -19.95358,-11.61743 -23.59335,-12.86885 -36.46096,-20.24961 -12.60007,-7.22727 -24.301723,-15.76349 -29.625242,-18.65445 0.170944,-2.74268 1.550344,-6.41716 4.2821,-10.87797 z"
       id="path5225"
       inkscape:connector-curvature="0"
       sodipodi:nodetypes="csccscc" />
    <path
       style="display:inline;fill:#1c1f24;stroke:#000000;stroke-width:1.5;stroke-linecap:round;stroke-linejoin:round;stroke-opacity:1"
       d="m 157.40609,185.21937 c -2.70577,-2.08216 -9.38221,-3.43355 -13.16215,-4.4448 -15.00918,-17.36443 -40.51013,-23.48205 -46.579527,-25.4652 -11.33489,-3.70362 -16.628676,-9.05665 -15.450818,-14.45227 0.458825,-1.7121 2.768058,-8.41152 4.073349,-9.99321 -1.443875,5.32654 13.153374,12.58347 27.249946,21.2048 10.17468,6.22274 30.05139,16.5987 40.74025,24.41001 z"
       id="path2116"
       inkscape:connector-curvature="0"
       sodipodi:nodetypes="ccsccscc" />
    <path
       style="display:inline;fill:#1c1f24;stroke:#000000;stroke-width:1.5;stroke-linecap:round;stroke-linejoin:round;stroke-opacity:1"
       d="m 181.34173,238.00407 c -5.74707,-17.38775 -6.9561,-27.91877 -26.73559,-42.02417 l -0.329,-19.5012 c 10.8484,16.21524 27.74811,48.35857 29.02954,62.52882 3.43791,38.01677 2.24049,104.17188 0.63267,109.83255 -1.32365,4.66035 -4.36989,12.69578 -7.0522,14.0064 -4.77234,2.33185 -36.79037,6.56042 -53.71528,3.40331"
       id="path2120"
       inkscape:connector-curvature="0"
       sodipodi:nodetypes="cccsccc" />
    <path
       style="display:inline;fill:none;stroke:#000000;stroke-width:1.5;stroke-linecap:round;stroke-linejoin:round;stroke-opacity:1"
       d="m 127.97552,364.70466 43.37777,-17.67242 c -7.4974,-24.46952 -15.14985,-30.55927 -21.02215,-53.00927 0.42418,-13.42211 3.98,-48.77007 3.23167,-72.61526 -0.67355,-21.46218 -14.63467,-38.8544 -29.07064,-40.99163 -20.62773,-3.05392 -29.558239,26.61668 -30.371819,36.78143 -1.81903,22.72704 -0.0072,63.12565 0.02113,74.69214 0.0383,15.63407 25.896569,43.11472 33.834039,72.81501 z"
       id="path5407"
       inkscape:connector-curvature="0"
       sodipodi:nodetypes="cccssssc" />
    <g
       transform="matrix(-0.90576059,0.06557994,0.06557994,0.90576059,207.86304,-14.301986)"
       id="g2672"
       style="display:inline;stroke:#000000;stroke-width:1.65174305">
      <path
         style="display:inline;opacity:0.95;fill:#241c1c;stroke:#000000;stroke-width:1.65174305;stroke-linecap:round;stroke-linejoin:round"
         d="M 98.987126,104.43441 135.78933,93.996287 c 8.47197,-2.402883 9.25443,9.712903 10.7242,17.706833 0.73858,4.01703 -3.97641,10.07825 -4.58125,4.2965 -0.62384,-5.96344 1.63446,-22.061779 -5.10539,-19.749333 l -36.44532,13.474673 z"
         id="path6942"
         inkscape:connector-curvature="0"
         sodipodi:nodetypes="csssscc" />
      <path
         style="display:inline;opacity:0.8;fill:#280b0b;stroke:#000000;stroke-width:1.65174305;stroke-linecap:round;stroke-linejoin:round"
         d="m 35.3705,92.782924 c 1.998599,-0.898909 18.418852,3.668568 21.182941,5.695247 2.196451,1.610479 3.414996,2.308289 6.915162,1.775289 8.654753,-1.31792 24.680288,1.34868 35.518523,4.18095 0.626189,1.13034 1.476214,3.94378 1.394444,5.29055 -7.373626,4.82983 -18.16432,6.81179 -24.290332,6.51465 -4.590909,-0.22269 -9.70056,-5.69542 -12.493914,-7.75323 -1.544668,-1.13792 -5.887131,-1.96654 -6.765413,-1.32049 -1.932295,1.42131 -5.708222,4.62031 -8.587642,4.4509 C 44.012195,111.36781 38.590191,103.51721 35.822858,98.319263 35.307852,96.91608 35.328472,94.212571 35.3705,92.782924 Z"
         id="path6944"
         inkscape:connector-curvature="0"
         sodipodi:nodetypes="cssccsssscc" />
    </g>
    <g
       id="g4203"
       transform="translate(1.0011004,1.9111917)">
      <path
         sodipodi:nodetypes="ccscc"
         inkscape:connector-curvature="0"
         id="path6637-1-1-2-1-4-1-3"
         d="m 95.527068,113.24777 c -1.994856,-2.69084 -9.044536,2.40857 -11.831678,-4.19659 -1.768707,-4.19163 -4.088923,-6.9717 -5.884358,-15.475449 -1.780398,-8.43256 0.221139,-13.30879 2.455863,-14.63857 3.797621,-2.25973 7.08222,-0.35544 9.932908,1.88303"
         style="display:inline;fill:#deaa87;stroke:#000000;stroke-width:1.5;stroke-linecap:round;stroke-linejoin:round;stroke-opacity:1" />
      <path
         sodipodi:nodetypes="ccccscccc"
         inkscape:connector-curvature="0"
         id="path6639-8-8-6-7-8-4-8"
         d="m 85.90277,103.30423 c 0.807637,-2.1413 3.46401,-4.511509 3.828163,-7.510749 0.34507,-2.84187 0.937015,-5.74915 0.106247,-7.55905 -1.256688,-2.73774 -5.446843,-8.1127 -7.547717,-7.56093 -1.684727,0.44248 -2.787713,3.36042 -3.039178,6.38088 -0.616372,7.4036 3.957056,16.682559 7.870763,16.820919 2.193641,0.0776 5.656732,4.46677 6.359489,2.85569 0.688826,-1.57928 -1.818773,-4.0908 -2.190805,-5.4859 -0.224158,-0.84054 1.500379,-4.005859 1.542395,-6.223639"
         style="display:inline;opacity:0.95;fill:none;stroke:#000000;stroke-width:1.5;stroke-linecap:round;stroke-linejoin:round;stroke-opacity:1" />
    </g>
  </g>
  <g
     inkscape:groupmode="layer"
     id="layer7"
     inkscape:label="枠面"
     style="display:inline"
     sodipodi:insensitive="true">
    <path
       style="display:inline;fill:#ffffff;stroke:none"
       d="M 0,0 V 320 H 370 V 0 L 360,10 V 310 H 10 V 10 H 360 L 370,0 Z"
       id="path21072"
       inkscape:connector-curvature="0"
       sodipodi:nodetypes="ccccccccccc" />
  </g>
</svg>
