<?xml version="1.0" encoding="UTF-8" standalone="no"?>
<!-- Created with Inkscape (http://www.inkscape.org/) -->

<svg
   xmlns:dc="http://purl.org/dc/elements/1.1/"
   xmlns:cc="http://creativecommons.org/ns#"
   xmlns:rdf="http://www.w3.org/1999/02/22-rdf-syntax-ns#"
   xmlns:svg="http://www.w3.org/2000/svg"
   xmlns="http://www.w3.org/2000/svg"
   xmlns:sodipodi="http://sodipodi.sourceforge.net/DTD/sodipodi-0.dtd"
   xmlns:inkscape="http://www.inkscape.org/namespaces/inkscape"
   width="370"
   height="320"
   id="svg2"
   version="1.1"
   inkscape:version="0.48.4 r9939"
   sodipodi:docname="[17.追伸].svg"
   inkscape:export-filename="C:\Users\root\Desktop\資料\作業\SANARO\ORG\[01.行動]03..png"
   inkscape:export-xdpi="90"
   inkscape:export-ydpi="90"
   enable-background="new">
  <defs
     id="defs4">
    <inkscape:perspective
       sodipodi:type="inkscape:persp3d"
       inkscape:vp_x="363.49708 : 943.81603 : 1"
       inkscape:vp_y="0 : 1000 : 0"
       inkscape:vp_z="744.09448 : 526.18109 : 1"
       inkscape:persp3d-origin="372.04724 : 350.78739 : 1"
       id="perspective5056" />
    <inkscape:perspective
       id="perspective5056-8"
       inkscape:persp3d-origin="372.04724 : 350.78739 : 1"
       inkscape:vp_z="744.09448 : 526.18109 : 1"
       inkscape:vp_y="0 : 1000 : 0"
       inkscape:vp_x="363.49708 : 943.81603 : 1"
       sodipodi:type="inkscape:persp3d" />
    <inkscape:perspective
       id="perspective5056-5"
       inkscape:persp3d-origin="372.04724 : 350.78739 : 1"
       inkscape:vp_z="744.09448 : 526.18109 : 1"
       inkscape:vp_y="0 : 1000 : 0"
       inkscape:vp_x="363.49708 : 943.81603 : 1"
       sodipodi:type="inkscape:persp3d" />
    <inkscape:perspective
       sodipodi:type="inkscape:persp3d"
       inkscape:vp_x="363.49708 : 943.81603 : 1"
       inkscape:vp_y="0 : 1000 : 0"
       inkscape:vp_z="744.09448 : 526.18109 : 1"
       inkscape:persp3d-origin="372.04724 : 350.78739 : 1"
       id="perspective5056-5-2" />
    <inkscape:perspective
       sodipodi:type="inkscape:persp3d"
       inkscape:vp_x="363.49708 : 943.81603 : 1"
       inkscape:vp_y="0 : 1000 : 0"
       inkscape:vp_z="744.09448 : 526.18109 : 1"
       inkscape:persp3d-origin="372.04724 : 350.78739 : 1"
       id="perspective5056-8-5" />
    <inkscape:perspective
       id="perspective5056-1"
       inkscape:persp3d-origin="372.04724 : 350.78739 : 1"
       inkscape:vp_z="744.09448 : 526.18109 : 1"
       inkscape:vp_y="0 : 1000 : 0"
       inkscape:vp_x="363.49708 : 943.81603 : 1"
       sodipodi:type="inkscape:persp3d" />
    <inkscape:perspective
       sodipodi:type="inkscape:persp3d"
       inkscape:vp_x="363.49708 : 943.81603 : 1"
       inkscape:vp_y="0 : 1000 : 0"
       inkscape:vp_z="744.09448 : 526.18109 : 1"
       inkscape:persp3d-origin="372.04724 : 350.78739 : 1"
       id="perspective5056-5-5" />
    <inkscape:perspective
       id="perspective5056-4"
       inkscape:persp3d-origin="372.04724 : 350.78739 : 1"
       inkscape:vp_z="744.09448 : 526.18109 : 1"
       inkscape:vp_y="0 : 1000 : 0"
       inkscape:vp_x="363.49708 : 943.81603 : 1"
       sodipodi:type="inkscape:persp3d" />
    <inkscape:perspective
       sodipodi:type="inkscape:persp3d"
       inkscape:vp_x="363.49708 : 943.81603 : 1"
       inkscape:vp_y="0 : 1000 : 0"
       inkscape:vp_z="744.09448 : 526.18109 : 1"
       inkscape:persp3d-origin="372.04724 : 350.78739 : 1"
       id="perspective5056-1-2" />
    <inkscape:perspective
       id="perspective5056-8-5-8"
       inkscape:persp3d-origin="372.04724 : 350.78739 : 1"
       inkscape:vp_z="744.09448 : 526.18109 : 1"
       inkscape:vp_y="0 : 1000 : 0"
       inkscape:vp_x="363.49708 : 943.81603 : 1"
       sodipodi:type="inkscape:persp3d" />
    <inkscape:perspective
       id="perspective5056-5-2-8"
       inkscape:persp3d-origin="372.04724 : 350.78739 : 1"
       inkscape:vp_z="744.09448 : 526.18109 : 1"
       inkscape:vp_y="0 : 1000 : 0"
       inkscape:vp_x="363.49708 : 943.81603 : 1"
       sodipodi:type="inkscape:persp3d" />
    <inkscape:perspective
       sodipodi:type="inkscape:persp3d"
       inkscape:vp_x="363.49708 : 943.81603 : 1"
       inkscape:vp_y="0 : 1000 : 0"
       inkscape:vp_z="744.09448 : 526.18109 : 1"
       inkscape:persp3d-origin="372.04724 : 350.78739 : 1"
       id="perspective5056-5-4" />
    <inkscape:perspective
       sodipodi:type="inkscape:persp3d"
       inkscape:vp_x="363.49708 : 943.81603 : 1"
       inkscape:vp_y="0 : 1000 : 0"
       inkscape:vp_z="744.09448 : 526.18109 : 1"
       inkscape:persp3d-origin="372.04724 : 350.78739 : 1"
       id="perspective5056-8-9" />
    <inkscape:perspective
       id="perspective5056-40"
       inkscape:persp3d-origin="372.04724 : 350.78739 : 1"
       inkscape:vp_z="744.09448 : 526.18109 : 1"
       inkscape:vp_y="0 : 1000 : 0"
       inkscape:vp_x="363.49708 : 943.81603 : 1"
       sodipodi:type="inkscape:persp3d" />
    <inkscape:perspective
       sodipodi:type="inkscape:persp3d"
       inkscape:vp_x="363.49708 : 943.81603 : 1"
       inkscape:vp_y="0 : 1000 : 0"
       inkscape:vp_z="744.09448 : 526.18109 : 1"
       inkscape:persp3d-origin="372.04724 : 350.78739 : 1"
       id="perspective5056-1-5" />
    <inkscape:perspective
       id="perspective5056-8-5-4"
       inkscape:persp3d-origin="372.04724 : 350.78739 : 1"
       inkscape:vp_z="744.09448 : 526.18109 : 1"
       inkscape:vp_y="0 : 1000 : 0"
       inkscape:vp_x="363.49708 : 943.81603 : 1"
       sodipodi:type="inkscape:persp3d" />
    <inkscape:perspective
       id="perspective5056-5-2-82"
       inkscape:persp3d-origin="372.04724 : 350.78739 : 1"
       inkscape:vp_z="744.09448 : 526.18109 : 1"
       inkscape:vp_y="0 : 1000 : 0"
       inkscape:vp_x="363.49708 : 943.81603 : 1"
       sodipodi:type="inkscape:persp3d" />
    <inkscape:perspective
       sodipodi:type="inkscape:persp3d"
       inkscape:vp_x="363.49708 : 943.81603 : 1"
       inkscape:vp_y="0 : 1000 : 0"
       inkscape:vp_z="744.09448 : 526.18109 : 1"
       inkscape:persp3d-origin="372.04724 : 350.78739 : 1"
       id="perspective5056-5-8" />
    <inkscape:perspective
       sodipodi:type="inkscape:persp3d"
       inkscape:vp_x="363.49708 : 943.81603 : 1"
       inkscape:vp_y="0 : 1000 : 0"
       inkscape:vp_z="744.09448 : 526.18109 : 1"
       inkscape:persp3d-origin="372.04724 : 350.78739 : 1"
       id="perspective5056-8-4" />
    <inkscape:perspective
       id="perspective5056-409"
       inkscape:persp3d-origin="372.04724 : 350.78739 : 1"
       inkscape:vp_z="744.09448 : 526.18109 : 1"
       inkscape:vp_y="0 : 1000 : 0"
       inkscape:vp_x="363.49708 : 943.81603 : 1"
       sodipodi:type="inkscape:persp3d" />
    <inkscape:perspective
       sodipodi:type="inkscape:persp3d"
       inkscape:vp_x="363.49708 : 943.81603 : 1"
       inkscape:vp_y="0 : 1000 : 0"
       inkscape:vp_z="744.09448 : 526.18109 : 1"
       inkscape:persp3d-origin="372.04724 : 350.78739 : 1"
       id="perspective5056-1-7" />
    <inkscape:perspective
       id="perspective5056-8-5-2"
       inkscape:persp3d-origin="372.04724 : 350.78739 : 1"
       inkscape:vp_z="744.09448 : 526.18109 : 1"
       inkscape:vp_y="0 : 1000 : 0"
       inkscape:vp_x="363.49708 : 943.81603 : 1"
       sodipodi:type="inkscape:persp3d" />
    <inkscape:perspective
       id="perspective5056-5-2-89"
       inkscape:persp3d-origin="372.04724 : 350.78739 : 1"
       inkscape:vp_z="744.09448 : 526.18109 : 1"
       inkscape:vp_y="0 : 1000 : 0"
       inkscape:vp_x="363.49708 : 943.81603 : 1"
       sodipodi:type="inkscape:persp3d" />
    <inkscape:perspective
       sodipodi:type="inkscape:persp3d"
       inkscape:vp_x="363.49708 : 943.81603 : 1"
       inkscape:vp_y="0 : 1000 : 0"
       inkscape:vp_z="744.09448 : 526.18109 : 1"
       inkscape:persp3d-origin="372.04724 : 350.78739 : 1"
       id="perspective5056-5-1" />
    <inkscape:perspective
       sodipodi:type="inkscape:persp3d"
       inkscape:vp_x="363.49708 : 943.81603 : 1"
       inkscape:vp_y="0 : 1000 : 0"
       inkscape:vp_z="744.09448 : 526.18109 : 1"
       inkscape:persp3d-origin="372.04724 : 350.78739 : 1"
       id="perspective5056-8-6" />
    <inkscape:perspective
       id="perspective5056-7"
       inkscape:persp3d-origin="372.04724 : 350.78739 : 1"
       inkscape:vp_z="744.09448 : 526.18109 : 1"
       inkscape:vp_y="0 : 1000 : 0"
       inkscape:vp_x="363.49708 : 943.81603 : 1"
       sodipodi:type="inkscape:persp3d" />
    <inkscape:perspective
       sodipodi:type="inkscape:persp3d"
       inkscape:vp_x="363.49708 : 943.81603 : 1"
       inkscape:vp_y="0 : 1000 : 0"
       inkscape:vp_z="744.09448 : 526.18109 : 1"
       inkscape:persp3d-origin="372.04724 : 350.78739 : 1"
       id="perspective5056-1-1" />
    <inkscape:perspective
       id="perspective5056-8-5-82"
       inkscape:persp3d-origin="372.04724 : 350.78739 : 1"
       inkscape:vp_z="744.09448 : 526.18109 : 1"
       inkscape:vp_y="0 : 1000 : 0"
       inkscape:vp_x="363.49708 : 943.81603 : 1"
       sodipodi:type="inkscape:persp3d" />
    <inkscape:perspective
       id="perspective5056-5-2-1"
       inkscape:persp3d-origin="372.04724 : 350.78739 : 1"
       inkscape:vp_z="744.09448 : 526.18109 : 1"
       inkscape:vp_y="0 : 1000 : 0"
       inkscape:vp_x="363.49708 : 943.81603 : 1"
       sodipodi:type="inkscape:persp3d" />
    <inkscape:perspective
       sodipodi:type="inkscape:persp3d"
       inkscape:vp_x="363.49708 : 943.81603 : 1"
       inkscape:vp_y="0 : 1000 : 0"
       inkscape:vp_z="744.09448 : 526.18109 : 1"
       inkscape:persp3d-origin="372.04724 : 350.78739 : 1"
       id="perspective5056-5-46" />
    <inkscape:perspective
       sodipodi:type="inkscape:persp3d"
       inkscape:vp_x="363.49708 : 943.81603 : 1"
       inkscape:vp_y="0 : 1000 : 0"
       inkscape:vp_z="744.09448 : 526.18109 : 1"
       inkscape:persp3d-origin="372.04724 : 350.78739 : 1"
       id="perspective5056-8-92" />
    <inkscape:perspective
       id="perspective5056-3"
       inkscape:persp3d-origin="372.04724 : 350.78739 : 1"
       inkscape:vp_z="744.09448 : 526.18109 : 1"
       inkscape:vp_y="0 : 1000 : 0"
       inkscape:vp_x="363.49708 : 943.81603 : 1"
       sodipodi:type="inkscape:persp3d" />
  </defs>
  <sodipodi:namedview
     id="base"
     pagecolor="#ffffff"
     bordercolor="#666666"
     borderopacity="1.0"
     inkscape:pageopacity="0.0"
     inkscape:pageshadow="2"
     inkscape:zoom="1.6180381"
     inkscape:cx="263.07564"
     inkscape:cy="156.40262"
     inkscape:document-units="px"
     inkscape:current-layer="layer8"
     showgrid="false"
     inkscape:window-width="1139"
     inkscape:window-height="693"
     inkscape:window-x="75"
     inkscape:window-y="-2"
     inkscape:window-maximized="0"
     showguides="true"
     inkscape:guide-bbox="true"
     inkscape:snap-grids="false"
     inkscape:snap-to-guides="false"
     showborder="true"
     inkscape:showpageshadow="false"
     fit-margin-top="0"
     fit-margin-left="0"
     fit-margin-right="0"
     fit-margin-bottom="0"
     inkscape:snap-page="false" />
  <metadata
     id="metadata7">
    <rdf:RDF>
      <cc:Work
         rdf:about="">
        <dc:format>image/svg+xml</dc:format>
        <dc:type
           rdf:resource="http://purl.org/dc/dcmitype/StillImage" />
        <dc:title></dc:title>
      </cc:Work>
    </rdf:RDF>
  </metadata>
  <g
     inkscape:groupmode="layer"
     id="layer2"
     inkscape:label="補助線"
     style="display:none"
     sodipodi:insensitive="true">
    <path
       style="fill:none;stroke:#0000ff;stroke-width:1px;stroke-linecap:butt;stroke-linejoin:miter;stroke-opacity:1"
       d="M 10,310 360,10"
       id="path3025"
       inkscape:connector-curvature="0"
       sodipodi:nodetypes="cc" />
    <path
       style="fill:none;stroke:#0000ff;stroke-width:1px;stroke-linecap:butt;stroke-linejoin:miter;stroke-opacity:1"
       d="M 10,10 360,310"
       id="path3027"
       inkscape:connector-curvature="0"
       sodipodi:nodetypes="cc" />
    <path
       style="fill:none;stroke:#ff0000;stroke-width:1px;stroke-linecap:butt;stroke-linejoin:miter;stroke-opacity:1;display:inline"
       d="m 10,0 0,320"
       id="path3006"
       inkscape:connector-curvature="0"
       sodipodi:nodetypes="cc" />
    <path
       style="fill:none;stroke:#ff0000;stroke-width:1px;stroke-linecap:butt;stroke-linejoin:miter;stroke-opacity:1;display:inline"
       d="m 360,0 0,320"
       id="path3010"
       inkscape:connector-curvature="0"
       sodipodi:nodetypes="cc" />
    <path
       style="fill:none;stroke:#ff0000;stroke-width:1px;stroke-linecap:butt;stroke-linejoin:miter;stroke-opacity:1;display:inline"
       d="M 0,9.9999681 370,10"
       id="path3016"
       inkscape:connector-curvature="0" />
    <path
       transform="translate(84.715796,27.711696)"
       style="fill:none;stroke:#ff0000;stroke-width:1px;stroke-linecap:butt;stroke-linejoin:miter;stroke-opacity:1;display:inline"
       d="m -84.715796,282.2883 369.999996,0"
       id="path3018"
       inkscape:connector-curvature="0"
       sodipodi:nodetypes="cc" />
  </g>
  <g
     inkscape:groupmode="layer"
     id="layer8"
     inkscape:label="原型"
     style="display:inline">
    <path
       style="fill:#550000;stroke:#000000;stroke-width:1.5;stroke-linecap:butt;stroke-linejoin:miter;stroke-opacity:1;display:inline"
       d="m 197.5079,254.74042 c -8.8981,39.86925 -13.70233,74.90185 -15.99285,111.09034 l 13.21429,32.30856 17.39893,-28.5891 c -4.38225,-38.49829 -7.27047,-71.78584 -3.43261,-111.75437 z"
       id="path6770-0-1-04-1"
       inkscape:connector-curvature="0"
       sodipodi:nodetypes="cccccc" />
    <path
       style="fill:#550000;stroke:#000000;stroke-width:1.5;stroke-linecap:butt;stroke-linejoin:miter;stroke-opacity:1;display:inline"
       d="m 193.67699,225.35043 19.16396,2.62405 5.39433,15.04284 c -4.5823,7.1708 -5.53753,8.20875 -9.55028,14.35743 -4.45438,1.17029 -9.48117,1.9328 -11.74661,-1.97142 -1.2269,-7.97157 -8.00708,-13.07642 -7.65474,-20.7625 z"
       id="path6768-9-7-2-7"
       inkscape:connector-curvature="0"
       sodipodi:nodetypes="ccccccc" />
    <path
       style="fill:#80b3ff;stroke:#000000;stroke-width:1.5;stroke-linecap:butt;stroke-linejoin:miter;stroke-opacity:1;display:inline"
       d="m 185.30509,171.16271 c -15.99077,23.82101 -4.42727,67.30055 -3.29202,84.53874 5.39666,-12.53617 12.11864,-29.25309 17.65404,-30.82029 -18.92856,-16.74936 -22.79186,-45.31614 -6.8833,-63.35839 11.01866,-12.49654 56.36477,-6.53966 66.61958,9.24415 7.56666,11.64632 -25.55495,51.12812 -54.30178,54.99561 9.02881,6.29502 14.19849,24.69558 20.85408,36.59861 11.62521,-19.08443 40.15488,-55.6915 40.4719,-70.54099 0.13201,-6.18315 -0.21909,-12.19904 -6.25065,-21.80111 -6.9604,-11.08077 -50.7628,-24.37164 -67.75815,-8.95826 -3.39872,3.08234 -4.16389,5.70773 -7.1137,10.10193 z"
       id="path6762-7-7-9-4"
       inkscape:connector-curvature="0"
       sodipodi:nodetypes="sccssccssss" />
    <path
       style="fill:none;stroke:#000000;stroke-width:1.5;stroke-linecap:butt;stroke-linejoin:miter;stroke-opacity:1;display:inline"
       d="m 192.81247,161.6618 c -14.92141,4.74985 -14.04037,45.25214 -13.12324,74.96913 1.58612,51.38985 13.08891,97.52769 19.43278,113.21243 1.39175,3.441 3.63627,14.58636 2.91217,26.63921 -1.58086,26.3122 -5.29253,65.43547 -5.85617,70.60776 -0.81535,7.48196 -8.17651,13.68826 -13.34089,13.34377 -7.36865,-0.49148 -25.45455,-13.84017 -27.78216,-24.44463 -2.64522,-12.05056 8.63419,-78.37884 4.30553,-92.82755 -6.37699,-21.28605 -35.03432,-79.41275 -37.66639,-113.06183 -1.11946,-14.31187 -0.71122,-40.32068 10.6987,-51.46267 8.08296,-7.89314 45.67854,-13.28297 59.58307,-13.53032 14.29195,-0.25424 41.59017,0.49893 59.69114,5.6768 20.77315,5.94226 59.63267,33.95644 75.46741,45.79663 15.66598,11.71402 11.85183,27.5487 12.49382,41.12685 1.2612,26.67192 -10.77467,57.43787 -12.36464,75.45068 -1.26684,14.35144 7.23107,42.76183 4.92774,64.92164 -2.82576,27.18507 -17.36507,43.01668 -40.33764,56.21275 -12.73367,7.31452 -61.22761,19.28289 -91.34028,9.63459 -7.86032,-2.51852 -12.42087,-8.54228 -16.63743,-15.98827 -4.2451,-7.49649 5.69086,-47.895 8.09867,-74.49711 0.76591,-8.4611 -1.9887,-21.82492 -1.85766,-24.06218 0.45519,-7.7723 21.80102,-62.30809 43.31914,-100.00786 10.49332,-18.3843 42.58932,-63.6878 26.6675,-78.87647 -7.41907,-7.07745 -50.08499,-14.31047 -67.29117,-8.83335 z"
       id="path8915"
       inkscape:connector-curvature="0"
       sodipodi:nodetypes="sssssscsssssssssssssssss" />
    <path
       style="fill:none;stroke:#000000;stroke-width:1.5;stroke-linecap:butt;stroke-linejoin:miter;stroke-opacity:1;display:inline"
       d="m 168.4463,233.11863 -7.22937,-13.05242 c 5.73248,-13.45465 20.29967,-45.37839 22.09548,-47.56607 1.44091,-1.7554 5.42789,-9.17841 7.33795,-10.93846 16.13409,-14.86729 63.23434,-1.81584 70.95853,8.44859 3.03904,4.03849 5.84051,10.69515 7.08203,15.54768 1.5724,6.14582 -2.79389,35.20109 -3.4942,58.91257 l -17.15642,8.16666"
       id="path8921"
       inkscape:connector-curvature="0"
       sodipodi:nodetypes="ccsssscc" />
    <path
       style="fill:none;stroke:#000000;stroke-width:1.5;stroke-linecap:butt;stroke-linejoin:miter;stroke-opacity:1;display:inline"
       d="m 177.95446,227.31163 -19.9068,12.8305 38.54649,109.93005"
       id="path8923"
       inkscape:connector-curvature="0"
       sodipodi:nodetypes="ccc" />
    <path
       style="fill:none;stroke:#000000;stroke-width:1.5;stroke-linecap:butt;stroke-linejoin:miter;stroke-opacity:1;display:inline"
       d="m 193.06715,349.83944 c 14.39432,-28.3542 45.6883,-60.13458 67.10875,-84.81749 L 237.97769,242.6832"
       id="path8917"
       inkscape:connector-curvature="0"
       sodipodi:nodetypes="ccc" />
    <g
       transform="matrix(0.67445678,0,0,0.67445678,545.59861,60.22477)"
       style="display:inline;stroke-width:2.22401204"
       id="g5570">
      <path
         sodipodi:nodetypes="ccssssscccsssssscc"
         inkscape:connector-curvature="0"
         id="path6635-6-7-11-4"
         d="m -440.36495,200.29727 c -0.14284,7.27628 -5.74515,-15.76035 -14.90235,-36.26205 -1.15673,10.44478 -42.44442,50.95155 -60.42954,66.13716 -11.94576,10.08631 -38.52897,7.72087 -46.98436,-0.40171 -5.32281,-5.11325 -8.89883,-13.62647 -14.73151,-20.05217 -5.23021,-5.76182 -10.48302,-11.10726 -12.62971,-13.46196 -6.20796,-6.80955 -21.81185,-29.8901 -28.65428,-42.88984 -4.36276,-8.28852 -8.3129,-29.38384 -12.15014,-34.10658 -4.54527,-5.59385 -10.35883,-18.24844 -14.37348,-21.809344 -3.55691,-3.15516 -2.36703,-14.68377 -4.16142,-21.36659 -4.26085,-15.86789 -0.87123,-30.16273 -1.11586,-45.89704 -0.37276,-23.97796 15.64203,-55.742482 32.21588,-74.942782 20.88753,-24.19766 75.05994,-29.57914 101.42165,-24.04372 23.40103,4.91374 69.05081,34.232152 82.80194,61.559242 10.06364,19.9992 14.20312,49.32786 14.22989,63.10357 0.0182,9.35937 -9.29082,65.890514 -7.50477,77.607994 1.75285,11.4996 -1.50869,24.04253 6.98943,43.18286 z"
         style="fill:#e9c6af;stroke:none;display:inline;stroke-width:2.22401204" />
      <path
         sodipodi:nodetypes="cscccsssscsccssssccsssscsccc"
         inkscape:connector-curvature="0"
         id="path3438-5-86-7-3-4-0-0-9"
         d="m -550.11284,235.07173 c 6.57067,1.96726 27.73385,0.95917 34.12478,-5.27224 2.62315,-2.55768 55.70569,-49.777 58.79452,-62.81835 5.09929,14.76987 10.62304,17.16751 16.60419,35.42678 l 19.76916,-26.11901 c -3.96147,-9.44031 -7.24358,-30.95334 -7.03481,-43.27954 0.0889,-5.25077 4.73583,-60.717455 7.71541,-77.78616 2.74991,-15.752936 -8.68416,-49.9502741 -14.20631,-62.7558517 -14.32999,-33.2305173 -66.61084,-58.0315293 -82.91998,-61.6734483 -15.19801,-3.393796 -27.95182,-2.626746 -47.29124,-2.22e-4 40.47037,1.745812 67.78035,36.046177 67.64156,57.989535 -0.0834,13.1941433 -14.25716,94.990242 -39.76607,121.135047 l -41.2043,4.78863 c -10.98931,-11.12256 -17.97255,-8.83714 -15.72404,8.3531 1.21019,9.2521 0.0867,26.48187 -0.47962,36.03809 -0.33617,5.673 0.17812,12.74586 2.68357,14.14971 1.78587,1.00066 8.50587,3.28731 13.51545,3.72824 1.9944,0.17554 2.71839,8.23175 0.85685,13.55402 l 20.44824,-1.98093 c 8.10466,0.94241 -4.21168,-12.37538 10e-4,-14.2051 6.10055,-2.64956 2.07645,-13.16968 -0.1198,-14.75288 -8.05098,-5.80366 -15.63472,-13.74325 -15.31338,-17.04013 0.37036,-3.79981 7.9254,1.85939 15.22873,2.22797 4.59697,0.232 17.38006,-9.59111 20.08084,-10.95578 4.06086,-2.052 7.50904,3.21477 11.05327,7.79122 4.33391,5.59598 1.60229,23.94607 -17.02487,54.20442 10.00359,23.62453 7.38826,37.8972 -7.43337,39.25288 z"
         style="fill:#deaa87;stroke:none;display:inline;stroke-width:2.22401204" />
      <path
         inkscape:connector-curvature="0"
         id="path6629-0-9-1"
         d="m -603.77597,110.96354 c 1.48007,2.95159 5.11492,11.2435 5.4867,15.38148 0.317,3.52823 -2.56847,34.07264 -2.42626,38.96919 0.10621,3.65692 4.03584,9.25139 6.38057,10.35184 2.13199,1.00069 12.48591,0.7909 17.57281,2.2268"
         style="fill:none;stroke:#000000;stroke-width:2.22401204;stroke-linecap:butt;stroke-linejoin:miter;stroke-opacity:1;display:inline" />
      <path
         inkscape:connector-curvature="0"
         id="path6633-4-3-7"
         d="m -575.88091,183.20175 c 2.13559,0.0396 5.94328,-2.61918 7.78801,-2.36058 7.78475,1.0891 33.34699,12.68683 35.89848,15.53685 2.57762,2.87917 1.27558,11.82656 -1.01372,11.68138 -5.25464,-0.33319 -24.35458,-6.86153 -38.63136,-8.75222 -10.82233,-1.43321 -15.36255,1.73354 -17.77957,1.08488 -1.01419,-0.27214 -5.84908,-7.97842 -4.69084,-9.92693 2.25355,-3.79156 8.1174,-8.16348 11.01748,-9.08381 2.17015,-0.68862 5.78677,1.79037 7.4115,1.82044 z"
         style="fill:#000000;stroke:none;display:inline;stroke-width:2.22401204" />
      <path
         sodipodi:nodetypes="ccssssscccssssssc"
         inkscape:connector-curvature="0"
         id="path6635-6-7-11"
         d="m -453.46248,143.43014 c -0.14284,7.27628 -1.18999,11.57062 -2.1479,20.22194 -1.15673,10.44478 -42.44442,50.95155 -60.42954,66.13716 -11.94576,10.08631 -38.52896,7.72087 -46.98435,-0.40171 -5.32281,-5.11325 -8.89883,-13.62647 -14.73151,-20.05217 -5.23021,-5.76182 -10.48302,-11.10726 -12.62971,-13.46196 -6.20796,-6.80955 -21.81185,-29.8901 -28.65428,-42.88984 -4.36276,-8.28852 -8.3129,-29.38384 -12.15014,-34.10658 -4.54527,-5.59385 -10.35883,-18.24844 -14.37348,-21.809346 -3.55691,-3.155157 -2.36703,-14.683767 -4.16142,-21.366593 -4.26085,-15.867887 -0.87123,-30.162728 -1.11586,-45.897038 -0.37276,-23.9779599 15.64203,-55.74248 32.21588,-74.94278 20.88753,-24.19766 75.05993,-29.57914 101.42164,-24.04372 23.40103,4.91374 69.05081,34.232152 82.80194,61.5592422 10.06364,19.9991998 14.20312,49.3278618 14.22989,63.1035748 0.0182,9.359363 -9.29082,65.89051 -7.50477,77.60799 1.75285,11.4996 -1.50869,24.04253 6.98943,43.18286"
         style="fill:none;stroke:#000000;stroke-width:2.22401204;stroke-linecap:butt;stroke-linejoin:miter;stroke-opacity:1;display:inline" />
      <path
         inkscape:connector-curvature="0"
         id="path6643-0-8-5"
         d="m -589.63501,104.18497 c -0.53066,4.53789 0.77644,9.32395 3.10625,12.28656"
         style="fill:none;stroke:#000000;stroke-width:2.22401204;stroke-linecap:butt;stroke-linejoin:miter;stroke-opacity:1;display:inline" />
      <path
         inkscape:connector-curvature="0"
         id="path6645-7-8-2"
         d="m -584.67717,115.27503 c 8.71865,3.98285 12.84359,2.64806 27.17759,-0.26329 14.60355,-2.96602 36.7799,-4.31642 32.58574,-5.57872 -6.34063,-1.90831 -25.69149,0.63308 -32.99504,0.7291 -4.45792,0.0586 -13.35102,1.10261 -18.64489,1.75847 -6.00029,0.74337 -12.0787,1.54763 -8.1234,3.35444 z"
         style="fill:#000000;stroke:none;display:inline;stroke-width:2.22401204" />
      <path
         inkscape:connector-curvature="0"
         id="path6647-1-2-7"
         d="m -644.94848,97.890644 c -2.02364,-1.849015 10.48751,-0.50942 14.09533,0.39665 7.36368,1.849356 27.49788,11.828856 24.40749,12.665256 -11.48094,3.10725 -16.61988,-6.0997 -24.79567,-8.17906 -6.14808,-1.56365 -11.14249,-2.53973 -13.70715,-4.882846 z"
         style="fill:#000000;stroke:none;display:inline;stroke-width:2.22401204" />
      <path
         inkscape:connector-curvature="0"
         id="path6649-7-9-6"
         d="m -557.01933,159.44007 c 6.08803,5.02729 4.58903,13.48459 0.39591,14.86947"
         style="fill:none;stroke:#000000;stroke-width:2.22401204;stroke-linecap:butt;stroke-linejoin:miter;stroke-opacity:1;display:inline" />
      <path
         inkscape:connector-curvature="0"
         id="path3337-7-35-4"
         d="m -575.32868,125.76515 c 3.89363,2.74798 9.99953,6.10944 16.67471,5.9196 4.61498,-0.13124 15.32146,-2.49561 23.8086,-4.79537"
         style="fill:none;stroke:#000000;stroke-width:2.22401204;stroke-linecap:butt;stroke-linejoin:miter;stroke-opacity:1;display:inline" />
      <path
         inkscape:connector-curvature="0"
         id="path3353-3-4-3"
         d="m -630.96352,117.22015 c 2.64985,1.47657 7.08005,6.29188 11.05125,6.95934 5.43434,0.91338 11.34998,0.69721 18.68384,-0.7702"
         style="fill:none;stroke:#000000;stroke-width:2.22401204;stroke-linecap:butt;stroke-linejoin:miter;stroke-opacity:1;display:inline" />
      <path
         inkscape:connector-curvature="0"
         id="path6710-3-0-2"
         d="m -566.97028,204.78075 c 2.4639,-1.37455 14.44911,-0.25654 19.25943,3.84585 2.81062,2.39701 -2.61075,6.39405 -8.28387,7.42585 -3.81226,0.69345 -16.29624,-8.30338 -10.97556,-11.2717 z"
         style="fill:#deaa87;stroke:none;display:inline;stroke-width:2.22401204" />
      <path
         sodipodi:nodetypes="cssssc"
         inkscape:connector-curvature="0"
         id="path6637-1-5-2"
         d="m -449.56604,143.07863 c 1.18234,-4.15976 9.93844,-4.03328 15.81383,-12.29713 3.37404,-4.74567 4.27646,-12.58303 4.71652,-19.11471 0.60249,-8.94261 5.77778,-14.906918 3.15631,-29.519344 -1.92983,-10.757134 -11.49508,-15.386527 -17.28879,-15.062458 -8.02308,0.448718 -10.47562,6.558406 -14.59672,12.883134"
         style="fill:#deaa87;stroke:#000000;stroke-width:2.22401204;stroke-linecap:butt;stroke-linejoin:miter;stroke-opacity:1;display:inline" />
      <path
         sodipodi:nodetypes="csccscccc"
         inkscape:connector-curvature="0"
         id="path6639-8-4-1"
         d="m -439.09975,117.55354 c -5.05316,-0.95662 -6.45984,-9.75297 -9.97399,-15.14675 -3.32992,-5.110922 -3.45741,-11.513853 -3.30922,-15.542345 0.22437,-6.093577 9.78713,-14.592134 13.91403,-13.029355 4.0997,1.552586 5.45242,4.392455 6.70988,10.512353 1.70855,8.315239 0.26177,20.837797 -2.84701,26.021937 -3.48302,3.37102 -9.6087,20.76897 -12.5917,18.24499 -2.92405,-2.47419 0.8997,-5.34678 0.43443,-8.25437 -0.28038,-1.75179 -4.06343,-7.10037 -6.13682,-7.86461"
         style="opacity:0.94999999999999996;fill:none;stroke:#000000;stroke-width:2.22401204;stroke-linecap:butt;stroke-linejoin:miter;stroke-opacity:1;display:inline" />
      <path
         inkscape:connector-curvature="0"
         id="path6643-0-8-0-6"
         d="m -609.00988,101.33965 c 0.30857,3.5361 2.3907,8.42921 4.19235,11.17051"
         style="fill:none;stroke:#000000;stroke-width:2.22401204;stroke-linecap:butt;stroke-linejoin:miter;stroke-opacity:1;display:inline" />
    </g>
    <path
       style="fill:none;stroke:#000000;stroke-width:1.5;stroke-linecap:butt;stroke-linejoin:miter;stroke-opacity:1;display:inline"
       d="m 171.9379,251.72972 -4.34364,-21.7182 5.68014,-42.76816 7.35078,-19.71344 8.35317,-15.36981 -4.67777,-4.00951 -11.69443,14.36743 -9.68966,12.36267 -11.79923,1.49864 -10.96964,-22.42962 -4.98833,-27.4926 -6.22904,0.19121 2.33927,30.76201 2.24387,20.14337"
       id="path4737"
       inkscape:connector-curvature="0" />
    <path
       style="fill:none;stroke:#000000;stroke-width:1.5;stroke-linecap:butt;stroke-linejoin:miter;stroke-opacity:1;display:inline"
       d="m 127.55978,180.34596 -1.95832,-15.36806 2.41964,-19.85612 -3.74318,-2.63365 -4.12958,21.97438 -1.67064,25.11974 19.71345,52.12368 2.00476,15.03568"
       id="path4739"
       inkscape:connector-curvature="0" />
    <path
       style="fill:none;stroke:#000000;stroke-width:1.5;stroke-linecap:butt;stroke-linejoin:miter;stroke-opacity:1;display:inline"
       d="m 124.82082,185.22268 -1.59326,-28.92252 2.60492,-23.68461 5.36596,0.0152 -0.35841,21.41385 2.68809,18.58663"
       id="path4741"
       inkscape:connector-curvature="0" />
  </g>
  <g
     inkscape:groupmode="layer"
     id="layer7"
     inkscape:label="枠面"
     style="display:inline"
     sodipodi:insensitive="true">
    <path
       style="fill:#ff0000;stroke:none;display:inline"
       d="m 0,0 0,320 370,0 0,-320 -10,10 0,300 -350,0 0,-300 350,0 10,-10 z"
       id="path21072"
       inkscape:connector-curvature="0"
       sodipodi:nodetypes="ccccccccccc" />
  </g>
</svg>
