<?xml version="1.0" encoding="UTF-8" standalone="no"?>
<!-- Created with Inkscape (http://www.inkscape.org/) -->

<svg
   xmlns:dc="http://purl.org/dc/elements/1.1/"
   xmlns:cc="http://creativecommons.org/ns#"
   xmlns:rdf="http://www.w3.org/1999/02/22-rdf-syntax-ns#"
   xmlns:svg="http://www.w3.org/2000/svg"
   xmlns="http://www.w3.org/2000/svg"
   xmlns:sodipodi="http://sodipodi.sourceforge.net/DTD/sodipodi-0.dtd"
   xmlns:inkscape="http://www.inkscape.org/namespaces/inkscape"
   width="370"
   height="320"
   id="svg2"
   version="1.1"
   inkscape:version="0.48.4 r9939"
   sodipodi:docname="[11.勧誘].svg"
   inkscape:export-filename="C:\Users\root\Desktop\資料\作業\SANARO\ORG\[01.行動]03..png"
   inkscape:export-xdpi="90"
   inkscape:export-ydpi="90"
   enable-background="new">
  <defs
     id="defs4">
    <inkscape:perspective
       sodipodi:type="inkscape:persp3d"
       inkscape:vp_x="363.49708 : 943.81603 : 1"
       inkscape:vp_y="0 : 1000 : 0"
       inkscape:vp_z="744.09448 : 526.18109 : 1"
       inkscape:persp3d-origin="372.04724 : 350.78739 : 1"
       id="perspective5056" />
    <inkscape:perspective
       id="perspective5056-8"
       inkscape:persp3d-origin="372.04724 : 350.78739 : 1"
       inkscape:vp_z="744.09448 : 526.18109 : 1"
       inkscape:vp_y="0 : 1000 : 0"
       inkscape:vp_x="363.49708 : 943.81603 : 1"
       sodipodi:type="inkscape:persp3d" />
    <inkscape:perspective
       id="perspective5056-5"
       inkscape:persp3d-origin="372.04724 : 350.78739 : 1"
       inkscape:vp_z="744.09448 : 526.18109 : 1"
       inkscape:vp_y="0 : 1000 : 0"
       inkscape:vp_x="363.49708 : 943.81603 : 1"
       sodipodi:type="inkscape:persp3d" />
    <inkscape:perspective
       sodipodi:type="inkscape:persp3d"
       inkscape:vp_x="363.49708 : 943.81603 : 1"
       inkscape:vp_y="0 : 1000 : 0"
       inkscape:vp_z="744.09448 : 526.18109 : 1"
       inkscape:persp3d-origin="372.04724 : 350.78739 : 1"
       id="perspective5056-5-2" />
    <inkscape:perspective
       sodipodi:type="inkscape:persp3d"
       inkscape:vp_x="363.49708 : 943.81603 : 1"
       inkscape:vp_y="0 : 1000 : 0"
       inkscape:vp_z="744.09448 : 526.18109 : 1"
       inkscape:persp3d-origin="372.04724 : 350.78739 : 1"
       id="perspective5056-8-5" />
    <inkscape:perspective
       id="perspective5056-1"
       inkscape:persp3d-origin="372.04724 : 350.78739 : 1"
       inkscape:vp_z="744.09448 : 526.18109 : 1"
       inkscape:vp_y="0 : 1000 : 0"
       inkscape:vp_x="363.49708 : 943.81603 : 1"
       sodipodi:type="inkscape:persp3d" />
    <inkscape:perspective
       sodipodi:type="inkscape:persp3d"
       inkscape:vp_x="363.49708 : 943.81603 : 1"
       inkscape:vp_y="0 : 1000 : 0"
       inkscape:vp_z="744.09448 : 526.18109 : 1"
       inkscape:persp3d-origin="372.04724 : 350.78739 : 1"
       id="perspective5056-5-5" />
    <inkscape:perspective
       id="perspective5056-4"
       inkscape:persp3d-origin="372.04724 : 350.78739 : 1"
       inkscape:vp_z="744.09448 : 526.18109 : 1"
       inkscape:vp_y="0 : 1000 : 0"
       inkscape:vp_x="363.49708 : 943.81603 : 1"
       sodipodi:type="inkscape:persp3d" />
    <inkscape:perspective
       sodipodi:type="inkscape:persp3d"
       inkscape:vp_x="363.49708 : 943.81603 : 1"
       inkscape:vp_y="0 : 1000 : 0"
       inkscape:vp_z="744.09448 : 526.18109 : 1"
       inkscape:persp3d-origin="372.04724 : 350.78739 : 1"
       id="perspective5056-1-2" />
    <inkscape:perspective
       id="perspective5056-8-5-8"
       inkscape:persp3d-origin="372.04724 : 350.78739 : 1"
       inkscape:vp_z="744.09448 : 526.18109 : 1"
       inkscape:vp_y="0 : 1000 : 0"
       inkscape:vp_x="363.49708 : 943.81603 : 1"
       sodipodi:type="inkscape:persp3d" />
    <inkscape:perspective
       id="perspective5056-5-2-8"
       inkscape:persp3d-origin="372.04724 : 350.78739 : 1"
       inkscape:vp_z="744.09448 : 526.18109 : 1"
       inkscape:vp_y="0 : 1000 : 0"
       inkscape:vp_x="363.49708 : 943.81603 : 1"
       sodipodi:type="inkscape:persp3d" />
    <inkscape:perspective
       sodipodi:type="inkscape:persp3d"
       inkscape:vp_x="363.49708 : 943.81603 : 1"
       inkscape:vp_y="0 : 1000 : 0"
       inkscape:vp_z="744.09448 : 526.18109 : 1"
       inkscape:persp3d-origin="372.04724 : 350.78739 : 1"
       id="perspective5056-5-4" />
    <inkscape:perspective
       sodipodi:type="inkscape:persp3d"
       inkscape:vp_x="363.49708 : 943.81603 : 1"
       inkscape:vp_y="0 : 1000 : 0"
       inkscape:vp_z="744.09448 : 526.18109 : 1"
       inkscape:persp3d-origin="372.04724 : 350.78739 : 1"
       id="perspective5056-8-9" />
    <inkscape:perspective
       id="perspective5056-40"
       inkscape:persp3d-origin="372.04724 : 350.78739 : 1"
       inkscape:vp_z="744.09448 : 526.18109 : 1"
       inkscape:vp_y="0 : 1000 : 0"
       inkscape:vp_x="363.49708 : 943.81603 : 1"
       sodipodi:type="inkscape:persp3d" />
    <inkscape:perspective
       sodipodi:type="inkscape:persp3d"
       inkscape:vp_x="363.49708 : 943.81603 : 1"
       inkscape:vp_y="0 : 1000 : 0"
       inkscape:vp_z="744.09448 : 526.18109 : 1"
       inkscape:persp3d-origin="372.04724 : 350.78739 : 1"
       id="perspective5056-1-5" />
    <inkscape:perspective
       id="perspective5056-8-5-4"
       inkscape:persp3d-origin="372.04724 : 350.78739 : 1"
       inkscape:vp_z="744.09448 : 526.18109 : 1"
       inkscape:vp_y="0 : 1000 : 0"
       inkscape:vp_x="363.49708 : 943.81603 : 1"
       sodipodi:type="inkscape:persp3d" />
    <inkscape:perspective
       id="perspective5056-5-2-82"
       inkscape:persp3d-origin="372.04724 : 350.78739 : 1"
       inkscape:vp_z="744.09448 : 526.18109 : 1"
       inkscape:vp_y="0 : 1000 : 0"
       inkscape:vp_x="363.49708 : 943.81603 : 1"
       sodipodi:type="inkscape:persp3d" />
    <inkscape:perspective
       sodipodi:type="inkscape:persp3d"
       inkscape:vp_x="363.49708 : 943.81603 : 1"
       inkscape:vp_y="0 : 1000 : 0"
       inkscape:vp_z="744.09448 : 526.18109 : 1"
       inkscape:persp3d-origin="372.04724 : 350.78739 : 1"
       id="perspective5056-5-8" />
    <inkscape:perspective
       sodipodi:type="inkscape:persp3d"
       inkscape:vp_x="363.49708 : 943.81603 : 1"
       inkscape:vp_y="0 : 1000 : 0"
       inkscape:vp_z="744.09448 : 526.18109 : 1"
       inkscape:persp3d-origin="372.04724 : 350.78739 : 1"
       id="perspective5056-8-4" />
    <inkscape:perspective
       id="perspective5056-409"
       inkscape:persp3d-origin="372.04724 : 350.78739 : 1"
       inkscape:vp_z="744.09448 : 526.18109 : 1"
       inkscape:vp_y="0 : 1000 : 0"
       inkscape:vp_x="363.49708 : 943.81603 : 1"
       sodipodi:type="inkscape:persp3d" />
    <inkscape:perspective
       sodipodi:type="inkscape:persp3d"
       inkscape:vp_x="363.49708 : 943.81603 : 1"
       inkscape:vp_y="0 : 1000 : 0"
       inkscape:vp_z="744.09448 : 526.18109 : 1"
       inkscape:persp3d-origin="372.04724 : 350.78739 : 1"
       id="perspective5056-1-7" />
    <inkscape:perspective
       id="perspective5056-8-5-2"
       inkscape:persp3d-origin="372.04724 : 350.78739 : 1"
       inkscape:vp_z="744.09448 : 526.18109 : 1"
       inkscape:vp_y="0 : 1000 : 0"
       inkscape:vp_x="363.49708 : 943.81603 : 1"
       sodipodi:type="inkscape:persp3d" />
    <inkscape:perspective
       id="perspective5056-5-2-89"
       inkscape:persp3d-origin="372.04724 : 350.78739 : 1"
       inkscape:vp_z="744.09448 : 526.18109 : 1"
       inkscape:vp_y="0 : 1000 : 0"
       inkscape:vp_x="363.49708 : 943.81603 : 1"
       sodipodi:type="inkscape:persp3d" />
    <inkscape:perspective
       sodipodi:type="inkscape:persp3d"
       inkscape:vp_x="363.49708 : 943.81603 : 1"
       inkscape:vp_y="0 : 1000 : 0"
       inkscape:vp_z="744.09448 : 526.18109 : 1"
       inkscape:persp3d-origin="372.04724 : 350.78739 : 1"
       id="perspective5056-5-1" />
    <inkscape:perspective
       sodipodi:type="inkscape:persp3d"
       inkscape:vp_x="363.49708 : 943.81603 : 1"
       inkscape:vp_y="0 : 1000 : 0"
       inkscape:vp_z="744.09448 : 526.18109 : 1"
       inkscape:persp3d-origin="372.04724 : 350.78739 : 1"
       id="perspective5056-8-6" />
    <inkscape:perspective
       id="perspective5056-7"
       inkscape:persp3d-origin="372.04724 : 350.78739 : 1"
       inkscape:vp_z="744.09448 : 526.18109 : 1"
       inkscape:vp_y="0 : 1000 : 0"
       inkscape:vp_x="363.49708 : 943.81603 : 1"
       sodipodi:type="inkscape:persp3d" />
    <inkscape:perspective
       sodipodi:type="inkscape:persp3d"
       inkscape:vp_x="363.49708 : 943.81603 : 1"
       inkscape:vp_y="0 : 1000 : 0"
       inkscape:vp_z="744.09448 : 526.18109 : 1"
       inkscape:persp3d-origin="372.04724 : 350.78739 : 1"
       id="perspective5056-1-1" />
    <inkscape:perspective
       id="perspective5056-8-5-82"
       inkscape:persp3d-origin="372.04724 : 350.78739 : 1"
       inkscape:vp_z="744.09448 : 526.18109 : 1"
       inkscape:vp_y="0 : 1000 : 0"
       inkscape:vp_x="363.49708 : 943.81603 : 1"
       sodipodi:type="inkscape:persp3d" />
    <inkscape:perspective
       id="perspective5056-5-2-1"
       inkscape:persp3d-origin="372.04724 : 350.78739 : 1"
       inkscape:vp_z="744.09448 : 526.18109 : 1"
       inkscape:vp_y="0 : 1000 : 0"
       inkscape:vp_x="363.49708 : 943.81603 : 1"
       sodipodi:type="inkscape:persp3d" />
    <inkscape:perspective
       sodipodi:type="inkscape:persp3d"
       inkscape:vp_x="363.49708 : 943.81603 : 1"
       inkscape:vp_y="0 : 1000 : 0"
       inkscape:vp_z="744.09448 : 526.18109 : 1"
       inkscape:persp3d-origin="372.04724 : 350.78739 : 1"
       id="perspective5056-5-46" />
    <inkscape:perspective
       sodipodi:type="inkscape:persp3d"
       inkscape:vp_x="363.49708 : 943.81603 : 1"
       inkscape:vp_y="0 : 1000 : 0"
       inkscape:vp_z="744.09448 : 526.18109 : 1"
       inkscape:persp3d-origin="372.04724 : 350.78739 : 1"
       id="perspective5056-8-92" />
    <inkscape:perspective
       id="perspective5056-3"
       inkscape:persp3d-origin="372.04724 : 350.78739 : 1"
       inkscape:vp_z="744.09448 : 526.18109 : 1"
       inkscape:vp_y="0 : 1000 : 0"
       inkscape:vp_x="363.49708 : 943.81603 : 1"
       sodipodi:type="inkscape:persp3d" />
  </defs>
  <sodipodi:namedview
     id="base"
     pagecolor="#ffffff"
     bordercolor="#666666"
     borderopacity="1.0"
     inkscape:pageopacity="0.0"
     inkscape:pageshadow="2"
     inkscape:zoom="1.70531"
     inkscape:cx="306.38083"
     inkscape:cy="168.30788"
     inkscape:document-units="px"
     inkscape:current-layer="layer3"
     showgrid="false"
     inkscape:window-width="1158"
     inkscape:window-height="696"
     inkscape:window-x="194"
     inkscape:window-y="-4"
     inkscape:window-maximized="0"
     showguides="true"
     inkscape:guide-bbox="true"
     inkscape:snap-grids="false"
     inkscape:snap-to-guides="false"
     showborder="true"
     inkscape:showpageshadow="false"
     fit-margin-top="0"
     fit-margin-left="0"
     fit-margin-right="0"
     fit-margin-bottom="0"
     inkscape:snap-page="false" />
  <metadata
     id="metadata7">
    <rdf:RDF>
      <cc:Work
         rdf:about="">
        <dc:format>image/svg+xml</dc:format>
        <dc:type
           rdf:resource="http://purl.org/dc/dcmitype/StillImage" />
        <dc:title></dc:title>
      </cc:Work>
    </rdf:RDF>
  </metadata>
  <g
     inkscape:groupmode="layer"
     id="layer2"
     inkscape:label="補助線"
     style="display:none"
     sodipodi:insensitive="true">
    <path
       style="fill:none;stroke:#0000ff;stroke-width:1px;stroke-linecap:butt;stroke-linejoin:miter;stroke-opacity:1"
       d="M 10,310 360,10"
       id="path3025"
       inkscape:connector-curvature="0"
       sodipodi:nodetypes="cc" />
    <path
       style="fill:none;stroke:#0000ff;stroke-width:1px;stroke-linecap:butt;stroke-linejoin:miter;stroke-opacity:1"
       d="M 10,10 360,310"
       id="path3027"
       inkscape:connector-curvature="0"
       sodipodi:nodetypes="cc" />
    <path
       style="fill:none;stroke:#ff0000;stroke-width:1px;stroke-linecap:butt;stroke-linejoin:miter;stroke-opacity:1;display:inline"
       d="m 10,0 0,320"
       id="path3006"
       inkscape:connector-curvature="0"
       sodipodi:nodetypes="cc" />
    <path
       style="fill:none;stroke:#ff0000;stroke-width:1px;stroke-linecap:butt;stroke-linejoin:miter;stroke-opacity:1;display:inline"
       d="m 360,0 0,320"
       id="path3010"
       inkscape:connector-curvature="0"
       sodipodi:nodetypes="cc" />
    <path
       style="fill:none;stroke:#ff0000;stroke-width:1px;stroke-linecap:butt;stroke-linejoin:miter;stroke-opacity:1;display:inline"
       d="M 0,9.9999681 370,10"
       id="path3016"
       inkscape:connector-curvature="0" />
    <path
       transform="translate(84.715796,27.711696)"
       style="fill:none;stroke:#ff0000;stroke-width:1px;stroke-linecap:butt;stroke-linejoin:miter;stroke-opacity:1;display:inline"
       d="m -84.715796,282.2883 369.999996,0"
       id="path3018"
       inkscape:connector-curvature="0"
       sodipodi:nodetypes="cc" />
  </g>
  <g
     inkscape:groupmode="layer"
     id="layer3"
     inkscape:label="レイヤー"
     style="display:inline">
    <path
       style="fill:#dbdee3;stroke:none;display:inline"
       d="m 302.60315,217.43508 -74.32808,-25.97607 77.1851,169.63223 z"
       id="path4684-5-5-2-1-7"
       inkscape:connector-curvature="0" />
    <path
       style="fill:#550000;stroke:#000000;stroke-width:1.5;stroke-linecap:butt;stroke-linejoin:miter;stroke-opacity:1;display:inline"
       d="m 279.34033,222.00738 c 10.92149,30.20486 17.60429,71.29601 18.81598,107.62173 -1.5197,7.55595 -6.63854,21.9301 -13.67365,29.21253 -5.8958,-10.83767 -11.07515,-29.51662 -11.07515,-29.51662 1.77309,-32.07341 5.06928,-73.00026 -2.44173,-108.36478 z"
       id="path6770-0-4-6-9-4"
       inkscape:connector-curvature="0" />
    <path
       style="fill:#550000;stroke:#000000;stroke-width:1.5;stroke-linecap:butt;stroke-linejoin:miter;stroke-opacity:1;display:inline"
       d="m 277.04722,200.49383 c -2.61105,-1.18858 -7.80742,-0.12839 -13.36805,0.17571 l -5.71942,2.99293 c 2.13786,6.70735 9.72014,14.43464 12.64291,19.03452 4.55895,-1.05404 7.94,-1.67301 9.03002,0.38022 0.89767,-4.8651 0.55826,-10.61416 0.78693,-15.10225 z"
       id="path6768-9-1-6-6-0"
       inkscape:connector-curvature="0" />
    <path
       style="fill:#1c1f24;stroke:#000000;stroke-width:1.5;stroke-linecap:butt;stroke-linejoin:miter;stroke-opacity:1;display:inline"
       d="m 304.0696,198.53969 c 7.98619,20.8922 56.74677,80.5762 69.89977,99.4054 7.39838,10.59115 20.54297,24.46729 11.87929,34.85624 -4.65636,5.58361 -21.74472,14.6887 -34.73412,8.05752 -6.46144,-3.2986 -52.65826,-55.2896 -61.38018,-67.59344"
       id="path10001-9-9-6-1-1-4-9"
       inkscape:connector-curvature="0" />
    <path
       style="fill:#1c1f24;stroke:#000000;stroke-width:1.5;stroke-linecap:butt;stroke-linejoin:miter;stroke-opacity:1;display:inline"
       d="m 282.8829,191.20748 c 5.61908,2.27403 16.7963,5.13465 19.48594,7.14921 5.7728,4.32393 16.47559,53.74498 15.48092,71.392 -0.97378,17.27628 -4.31095,50.17062 -8.60106,64.2541 -4.07145,13.36577 4.33738,79.53058 -5.83413,114.49923 -7.60985,1.99745 -24.96118,7.4961 -32.08371,3.17168 -6.10262,-3.70517 -7.90745,-9.61367 -7.22514,-13.8755 4.91428,-30.69582 24.66775,-99.8921 25.70932,-106.45506 8.14592,-51.32816 -1.5498,-104.11296 -12.12343,-144.54582 1.1845,1.0666 3.08008,2.09044 5.43593,4.50465 2.7166,2.7839 12.00861,20.41446 17.02825,30.16624 l -4.0143,8.96106"
       id="path3341-7-0-1-6-8-5-4"
       inkscape:connector-curvature="0" />
    <path
       style="fill:#dbdbe3;stroke:#000000;stroke-width:1.5;stroke-linecap:butt;stroke-linejoin:miter;stroke-opacity:1;display:inline"
       d="m 273.93027,199.39486 c 5.91056,1.69491 10.69301,25.29893 13.97373,35.0582 -0.15635,-13.60168 -6.69827,-37.16224 -9.86429,-44.16634 -0.54433,1.2911 -2.05048,8.45137 -4.10944,9.10814 z"
       id="path6762-7-2-0-4-8"
       inkscape:connector-curvature="0" />
    <path
       style="fill:#dbdbe3;stroke:#000000;stroke-width:1.5;stroke-linecap:butt;stroke-linejoin:miter;stroke-opacity:1;display:inline"
       d="m 207.14312,176.17313 c 0.43308,-3.73101 2.78959,-10.92645 3.23794,-13.7291 6.62906,1.18831 36.9894,25.78116 56.36898,37.80501 -6.05898,-1.43638 -8.1938,16.41217 -16.7497,27.60492 -20.67996,-28.17673 -34.74323,-31.11593 -42.85722,-51.68083 z"
       id="path6657-6-4-0-2-8"
       inkscape:connector-curvature="0" />
    <path
       style="fill:none;stroke:#000000;stroke-width:1.5;stroke-linecap:butt;stroke-linejoin:miter;stroke-opacity:1;display:inline"
       d="m 288.30638,221.70699 16.64347,18.34036 c -5.48023,22.96449 -3.57091,63.22977 -14.15595,91.03559"
       id="path6766-7-0-8-5-2"
       inkscape:connector-curvature="0" />
    <path
       style="fill:#1c1f24;stroke:#000000;stroke-width:1.5;stroke-linecap:butt;stroke-linejoin:miter;stroke-opacity:1;display:inline"
       d="m 205.52655,174.51564 c -11.89216,6.91158 -30.24043,14.26043 -38.67792,19.5774 -10.56563,6.658 -10.50927,28.8649 -13.85787,40.39717 -5.02422,17.30274 13.97436,61.46616 10.35541,92.03082 -1.97274,16.66059 -10.82101,77.5625 -9.65212,101.36246 18.34334,13.33114 73.21753,19.65579 112.55456,25.41505 5.84015,0.85505 16.03134,-4.98544 17.7993,-13.51424 6.94642,-33.51032 12.59316,-104.21947 11.37515,-107.60553 -7.44612,-20.70037 -16.43879,-67.23653 -27.05001,-90.498 -15.72934,-34.48126 -54.12452,-71.31459 -59.64578,-75.55559 -1.14139,2.19669 -4.03236,6.28271 -4.43791,9.09981 2.79231,4.0076 13.67524,19.29316 19.82842,43.9342 5.82734,2.88817 10.35396,4.11344 15.12412,5.28966"
       id="path6659-6-6-1-3-4"
       inkscape:connector-curvature="0" />
    <path
       style="fill:none;stroke:#000000;stroke-width:1.5;stroke-linecap:butt;stroke-linejoin:miter;stroke-opacity:1;display:inline"
       d="m 247.14497,214.7234 -11.29094,18.35352 c 14.44663,15.06674 40.99061,77.42956 57.35688,100.09087"
       id="path6655-8-1-5-2-5"
       inkscape:connector-curvature="0" />
    <path
       style="fill:#e9c6af;stroke:#000000;stroke-width:1.5;stroke-linecap:butt;stroke-linejoin:miter;stroke-opacity:1;display:inline"
       d="m 338.78647,377.87296 c 0.30454,-1.98202 3.58865,-6.34835 3.65506,-8.79698 0.17809,-6.56674 -6.33922,-20.51905 -10.35424,-23.08419 -7.50795,-4.79668 -21.30381,-2.45837 -31.65876,-6.72664 l 1.37601,24.44692 c 12.45623,4.26571 22.61767,5.74989 36.98193,14.16089 z"
       id="path11364-8-7"
       inkscape:connector-curvature="0" />
    <path
       style="fill:#dbdbe3;stroke:#000000;stroke-width:1.5;stroke-linecap:butt;stroke-linejoin:miter;stroke-opacity:1;display:inline"
       d="m 309.5927,375.7623 c 3.81112,-6.20976 7.632,-29.31573 -2.53843,-38.88913 -3.61864,-1.02778 -5.87321,-1.64024 -9.58696,-2.39298 l 5.03256,41.79235 z"
       id="path11366-2-1"
       inkscape:connector-curvature="0" />
    <path
       style="fill:#1c1f24;stroke:#000000;stroke-width:1.5;stroke-linecap:butt;stroke-linejoin:miter;stroke-opacity:1;display:inline"
       d="m 224.73061,322.32469 c -6.63325,-23.12895 -11.97307,-58.89299 -20.50059,-90.57406 -4.4707,-16.60938 -23.96478,-38.95401 -32.22814,-38.14259 -13.76541,1.35168 -22.28709,14.4653 -18.52517,47.63682 2.46062,21.69747 11.19406,67.80765 14.79129,97.15403 2.80446,22.87876 13.04781,29.2834 26.32495,30.35827 49.43341,4.00196 91.31195,13.07455 111.53525,10.38819 5.2939,-14.02817 0.49889,-33.63902 -4.42836,-46.53196 -12.57356,-2.90917 -59.81698,-10.28145 -82.66771,-11.566"
       id="path3726-6-5"
       inkscape:connector-curvature="0" />
    <g
       id="g9921-2-0-0-4-1"
       transform="matrix(1.0773661,0.40224328,-0.39048414,1.0458704,-1870.6289,-772.76107)"
       style="stroke:#000000;stroke-width:1.32383324;display:inline" />
    <g
       id="g4656-2-7-5-6"
       transform="matrix(1.1126439,0.29075892,-0.28225891,1.080117,-1979.31,-620.98292)"
       style="stroke:#000000;stroke-width:1.32383326;display:inline" />
    <g
       id="g4658-5-7-8-8"
       transform="matrix(1.1126439,0.29075892,-0.28225891,1.080117,-2225.1463,-672.81727)"
       style="stroke:#000000;stroke-width:1.32383326;display:inline" />
    <g
       transform="matrix(-1.3500363,-0.50404688,-0.50404688,1.3500363,-254.9196,249.40091)"
       id="g4678-0-3-6-5"
       inkscape:label="駅員: 左手"
       style="stroke-width:1.04089861;display:inline">
      <g
         id="g4680-9-3-1-7"
         transform="matrix(-0.7980275,0,0,0.77469807,1298.4706,-272.34221)"
         style="stroke:#000000;stroke-width:1.32383318;display:inline" />
    </g>
    <g
       id="g4682-4-5-5-6"
       transform="matrix(1.0773661,0.40224328,-0.39048414,1.0458704,-1870.629,-772.76107)"
       style="stroke:#000000;stroke-width:1.32383324;display:inline" />
    <g
       id="g9921-2-0-1-6-2"
       transform="matrix(-1.2203295,1.5569628,1.5114467,1.1846544,215.86304,-2664.1047)"
       style="stroke:#000000;stroke-width:0.76959162;display:inline" />
    <g
       id="g4656-2-4-2-7"
       transform="matrix(-1.3721285,1.4249914,1.3833334,1.3320158,511.54502,-2538.8522)"
       style="stroke:#000000;stroke-width:0.76959161;display:inline" />
    <g
       id="g4658-5-1-5-7"
       transform="matrix(-1.3721285,1.4249914,1.3833334,1.3320158,825.84621,-2835.4897)"
       style="stroke:#000000;stroke-width:0.76959161;display:inline" />
    <g
       transform="matrix(1.5291821,-1.951014,1.951014,1.5291821,-1238.3915,285.69059)"
       id="g4678-0-2-3-9"
       inkscape:label="駅員: 左手"
       style="stroke-width:0.60511162;display:inline">
      <g
         id="g4680-9-9-5-3"
         transform="matrix(-0.7980275,0,0,0.77469807,1298.4706,-272.34221)"
         style="stroke:#000000;stroke-width:0.76959161;display:inline" />
    </g>
    <g
       id="g4682-4-0-6-1"
       transform="matrix(-1.2203295,1.5569628,1.5114467,1.1846544,215.86313,-2664.1047)"
       style="stroke:#000000;stroke-width:0.76959162;display:inline" />
    <path
       style="fill:#e9c6af;stroke:none;display:inline"
       d="m 220.16588,150.32067 c 3.62103,6.1607 16.00049,22.78789 31.75293,34.7098 4.70473,3.56068 21.36422,5.9806 26.46589,0.23289 4.62006,-5.20509 11.0797,-12.48696 14.23404,-16.82109 3.83502,-5.26936 12.59146,-15.9763 15.15694,-25.16967 0.97103,-3.47951 3.68465,-14.64411 5.31929,-19.91546 1.11295,-3.58896 4.46126,-9.94403 5.62862,-13.05173 1.72041,-4.57981 1.12201,-10.419311 1.64259,-14.834401 0.95223,-8.07584 0.0368,-17.617692 -0.65686,-23.4093 -1.70715,-14.252546 -7.04628,-25.312693 -19.37975,-34.173476 -17.87838,-12.844463 -47.17204,-13.797174 -63.21884,-4.529537 -10.34906,5.97698 -16.18016,14.610556 -23.06682,27.781582 -3.67958,7.037367 -9.8329,31.845047 -8.04544,38.768484 0.6375,2.469268 6.4225,29.802328 7.73625,45.832198 0.81296,9.91936 -4.98392,32.2301 -5.05472,34.26138 l 11.22229,5.48245 z"
       id="path6635-6-9-1-1-7-5-8-0"
       inkscape:connector-curvature="0"
       sodipodi:nodetypes="cssscscsssssssccc" />
    <path
       style="fill:#deaa87;stroke:none;display:inline"
       d="m 286.24223,114.53593 c 0.22355,-1.01255 2.78772,-8.1661 7.05845,-7.2179 -1.28015,1.42504 -3.24847,6.60594 -2.36536,9.00097 l 19.36066,-1.00843 c -0.42025,1.15106 -5.18442,9.61946 -8.88095,10.14271 -2.70322,0.38264 -9.95155,-4.92303 -12.20029,-7.27201 -0.0596,1.88895 1.13573,6.17426 -0.0324,5.35167 -0.54984,-0.38718 -2.53482,-4.42367 -2.94007,-8.99701 z"
       id="path5573-3-9-8-0-5" />
    <path
       style="fill:#fefefe;fill-opacity:1;stroke:none;display:inline"
       d="m 295.60652,112.62803 -4.97821,3.37455 5.86179,4.37304 8.32649,-0.0621 4.94214,-5.98361 -2.03087,-2.08561 z"
       id="path3337-0-4-0-1-8-6-9-1" />
    <path
       style="fill:#deaa87;stroke:none;display:inline"
       d="m 278.39512,185.33455 c -3.71284,3.84213 -20.19381,4.65807 -26.20568,-0.17714 -11.73257,-9.43623 -22.41125,-20.86017 -31.9163,-34.35504 l -0.25824,35.0202 -11.04059,-5.85942 c -0.20194,-1.41091 5.21543,-24.7931 4.7227,-33.90764 -0.60072,-11.11207 -6.8124,-43.16883 -7.67813,-46.265673 -2.29565,-8.211878 4.25894,-30.431283 8.10697,-38.800215 5.87192,-12.77062 14.64978,-23.093964 22.93126,-27.663212 8.83187,-4.872918 14.43675,-6.766436 27.30938,-6.118867 -6.78913,1.722176 -16.9898,1.765297 -20.44288,8.444892 -8.46587,16.376278 -2.39623,42.684539 2.184,51.564632 3.21852,6.240003 1.85903,9.753934 2.96632,11.405724 l 14.86534,5.470449 c -4.09607,-1.66215 -9.72719,-2.19237 -12.55628,-0.87792 -3.57858,1.66265 5.34008,10.76155 5.7763,11.8261 l 11.44652,-0.56723 c 1.42324,-3.31603 1.41515,-5.29125 -2.01219,-9.7843 5.57589,2.2769 10.02463,-0.2729 12.89888,1.2621 0.9428,0.50351 -1.56643,7.54032 -1.75348,10.65486 -0.0692,1.15256 -3.36774,24.01263 -2.95263,25.8053 0.40113,1.73227 2.33753,2.72355 3.10432,2.50551 1.23358,-0.35078 3.26329,-1.72779 4.40733,-2.40388 1.62537,-0.96055 2.40745,4.65409 4.86561,-0.015 -0.23934,6.06153 -4.19042,7.96327 -6.20093,7.86206 -1.91949,-0.0966 -2.39317,2.6993 -3.90857,3.1373 -0.27739,-2.37535 -1.90103,-5.01328 -2.9881,-4.89219 -2.11388,0.23548 -5.07917,4.95638 -5.50446,7.26792 -1.3116,-0.65823 2.17558,-6.9629 0.2128,-7.30717 -2.06212,-0.36171 -4.65928,0.97047 -6.39231,0.3242 -3.91208,-1.45889 -5.51347,-5.39621 -5.95679,-5.92923 -2.56071,-3.07887 14.02824,-16.79955 7.95477,-18.30589 -2.74177,-0.68001 -7.39081,-2.12343 -9.24848,-2.29817 -2.7932,-0.26275 -4.09081,3.07369 -5.55289,6.07798 -1.10958,2.27996 0.53413,18.82958 3.38074,34.0853 1.74007,9.32545 2.87678,18.95067 7.18569,22.24853 4.42072,3.38341 12.33594,5.12716 18.24987,0.56511 z"
       id="path3438-5-86-7-3-4-0-4-2"
       inkscape:connector-curvature="0"
       sodipodi:nodetypes="cscccsssscssccscccscssscscscsssssssscc" />
    <path
       style="fill:#fefefe;fill-opacity:1;stroke:none;display:inline"
       d="m 264.66595,110.09358 -5.84465,-1.1175 -7.1029,-0.36288 -5.36689,0.9747 5.83932,6.17975 8.91398,0.7963 7.44899,-2.51334 z"
       id="path3353-4-1-2-2-4-9-8-7" />
    <path
       style="fill:#2b0000;stroke:none;display:inline"
       d="m 254.69532,113.88509 c -2.75137,-0.42197 -4.75472,-3.26785 -4.54107,-5.70038 l 9.90015,1.03426 c -0.54247,3.41314 -2.61143,5.08752 -5.35908,4.66612 z"
       id="path3357-1-2-4-7-5-3-8-6" />
    <path
       style="fill:#2b0000;stroke:none;display:inline"
       d="m 301.37423,112.28385 c -0.50036,2.77188 -2.13278,5.9325 -4.44987,6.12691 -2.65746,0.22295 -4.77785,-2.05923 -4.70039,-3.70739 l 3.3828,-1.79583 z"
       id="path3357-0-8-6-7-0-2-0" />
    <path
       style="fill:none;stroke:#000000;stroke-width:1.5;stroke-linecap:butt;stroke-linejoin:miter;stroke-opacity:1;display:inline"
       d="m 287.89196,105.21637 c -1.01914,2.78052 -1.86469,6.84107 -2.95569,9.16741"
       id="path3185" />
    <path
       style="fill:none;stroke:#000000;stroke-width:1.5;stroke-linecap:butt;stroke-linejoin:miter;stroke-opacity:1;display:inline"
       d="m 271.96465,146.79463 c -2.16129,0.2203 -5.24429,-0.26437 -7.17198,0.96768"
       id="path6629-0-6-3-5-0-4-2"
       inkscape:connector-curvature="0"
       sodipodi:nodetypes="cc" />
    <path
       style="fill:#000000;stroke:none;display:inline"
       d="m 282.28588,151.45949 c -0.86452,-0.83946 -1.97738,1.16248 -4.61884,0.9043 -3.57762,-0.34979 -4.51609,-2.13163 -5.80412,-1.84052 -5.43616,1.22917 -18.43105,4.9468 -19.93256,7.22719 -1.51692,2.30367 0.85503,6.05001 2.48407,5.87544 5.2494,-0.56255 14.43776,-2.08199 19.54185,-1.57566 7.22188,0.71639 11.83657,3.50125 15.18537,3.48792 0.74134,-0.003 3.43908,-4.6419 2.39318,-6.04844 -0.65856,-2.46108 -7.93348,-6.75286 -9.24895,-8.03023 z"
       id="path6633-4-0-6-4-8-5-4" />
    <path
       style="fill:none;stroke:#000000;stroke-width:1.5;stroke-linecap:butt;stroke-linejoin:miter;stroke-opacity:1;display:inline"
       d="m 215.32797,130.64677 c 0.97191,4.41999 1.24661,10.24039 2.49602,14.47198 1.07699,3.64759 18.43743,27.92324 34.18987,39.84515 4.70474,3.56069 21.27823,6.11771 26.3799,0.37001 4.62006,-5.20511 11.15932,-12.71154 14.31366,-17.04567 3.83501,-5.26936 12.51184,-15.75173 15.07731,-24.94509 0.97104,-3.47952 4.26206,-15.2684 5.20617,-19.68738 0.78722,-3.68483 4.57438,-10.17212 5.74174,-13.27982 1.72042,-4.57981 1.12201,-10.419309 1.6426,-14.834399 0.95223,-8.07584 -0.009,-17.984195 -0.70285,-23.775803 -1.70715,-14.252545 -7.03798,-25.044235 -19.37147,-33.905021 -17.87836,-12.844461 -47.17774,-13.791782 -63.22454,-4.524144 -10.34906,5.97698 -16.06416,14.548888 -22.95081,27.719917 -3.67958,7.037367 -9.86582,31.775158 -8.07837,38.698588 0.77817,3.014142 5.92221,34.264442 7.50837,44.969242 0.88921,6.00116 -2.98869,24.70203 -4.95791,35.40001"
       id="path6635-6-9-1-1-7-5-8"
       inkscape:connector-curvature="0"
       sodipodi:nodetypes="csssscccscsssssc" />
    <path
       style="fill:none;stroke:#000000;stroke-width:1.5;stroke-linecap:butt;stroke-linejoin:miter;stroke-opacity:1;display:inline"
       d="m 275.91052,103.54312 c -0.14378,1.6491 -0.81754,4.35162 -1.83634,5.90099"
       id="path6643-0-0-5-2-6-1-6" />
    <path
       style="fill:#000000;stroke:none;display:inline"
       d="m 269.73216,107.85726 c -4.33659,-0.31681 -7.03988,-3.59397 -14.1763,-5.94272 -5.59755,-1.84229 -17.21124,-3.700277 -14.74394,-3.897413 4.58619,-0.366435 10.20758,0.14798 16.24013,1.658142 3.58917,0.898481 6.5435,2.109201 10.36636,3.376571 3.1144,1.0325 10.47357,5.40153 2.31375,4.80542 z"
       id="path6645-7-0-4-0-3-7-5" />
    <path
       style="fill:#000000;stroke:none;display:inline"
       d="m 316.28508,104.8648 c -2.0983,-1.51194 -13.29813,-0.36403 -16.57834,0.36892 -3.84925,0.86009 -12.03188,3.36978 -10.72844,4.179 3.88461,2.41174 10.97309,-0.56541 15.00936,-2.65038 4.0161,-2.07455 13.58238,-0.97165 12.29742,-1.89754 z"
       id="path6647-1-6-2-0-5-1-0" />
    <path
       style="fill:none;stroke:#000000;stroke-width:1.5;stroke-linecap:butt;stroke-linejoin:miter;stroke-opacity:1;display:inline"
       d="m 262.22646,139.77191 c -1.22214,1.93921 -2.28301,6.00835 0.33613,7.70847"
       id="path6649-7-1-0-1-6-1-9" />
    <path
       style="fill:none;stroke:#916f6f;stroke-width:1.5;stroke-linecap:butt;stroke-linejoin:miter;stroke-opacity:1;display:inline"
       d="m 268.58208,114.26175 c -1.56593,0.65298 -5.95651,2.35478 -8.15909,2.3251 -2.961,-0.0399 -5.0819,0.48969 -7.39693,-0.0774 -2.19624,-0.53803 -5.15233,-5.21134 -7.12692,-6.82761"
       id="path3339-7-3-9-4-5-5-0" />
    <path
       style="fill:none;stroke:#000000;stroke-width:1.5;stroke-linecap:butt;stroke-linejoin:miter;stroke-opacity:1;display:inline"
       d="m 269.71911,115.30552 c -1.03242,-1.07416 -3.83352,-4.72658 -5.40942,-5.35863 -2.02711,-0.81301 -7.95016,-1.65809 -12.46807,-1.94084 -2.11612,-0.13243 -4.36325,1.10363 -7.24017,1.8889"
       id="path3337-7-8-7-6-8-2-0" />
    <path
       style="fill:none;stroke:#916f6f;stroke-width:1.5;stroke-linecap:butt;stroke-linejoin:miter;stroke-opacity:1;display:inline"
       d="m 309.54648,114.27712 c -1.14115,1.47529 -4.16248,5.79097 -5.48659,6.04048 -0.90061,0.16972 -5.34714,0.68894 -8.06199,-0.1249 -0.75243,-0.22563 -5.0745,-3.74329 -5.41337,-4.31396"
       id="path3355-7-9-3-0-3-7-6" />
    <path
       style="fill:none;stroke:#000000;stroke-width:1.5;stroke-linecap:butt;stroke-linejoin:miter;stroke-opacity:1;display:inline"
       d="m 310.33296,115.30206 c -0.83994,-1.09801 -1.47601,-2.6121 -2.79566,-2.82152 -1.78705,-0.28353 -9.61603,-0.42655 -12.1332,0.1675 -1.40876,0.33249 -3.39676,2.51075 -5.82733,4.09035"
       id="path3353-3-3-7-7-9-6-1" />
    <path
       style="fill:#deaa87;stroke:#000000;stroke-width:1.5;stroke-linecap:butt;stroke-linejoin:miter;stroke-opacity:1;display:inline"
       d="m 213.56297,129.75389 c -1.06124,-3.78365 -6.92176,-1.31672 -7.58976,-9.80964 -0.4239,-5.38961 -3.45121,-10.8464 -2.66503,-21.105185 0.77961,-10.172897 2.94305,-12.21609 6.06656,-13.496506 4.01049,-1.644014 6.60468,2.26732 8.58128,5.863583"
       id="path6637-1-1-2-1-4-1-3" />
    <path
       style="opacity:0.94999999999999996;fill:none;stroke:#000000;stroke-width:1.5;stroke-linecap:butt;stroke-linejoin:miter;stroke-opacity:1;display:inline"
       d="m 209.99089,115.1315 c 1.35467,-2.10868 4.12696,-3.77892 5.32006,-7.02142 1.13051,-3.07242 1.37009,-4.86594 1.22555,-7.23037 -0.37003,-6.053483 -3.88748,-12.441101 -5.97448,-12.610729 -1.67362,-0.136033 -2.14015,2.73655 -3.23584,6.045429 -2.68573,8.11054 0.23858,20.70518 3.79255,22.33536 1.99201,0.91371 3.7424,7.99594 4.84895,6.44523 1.08467,-1.52014 -0.49874,-5.29483 -0.44089,-7.00705 0.0348,-1.0316 0.62476,-2.28542 1.29831,-4.7687"
       id="path6639-8-8-6-7-8-4-8" />
    <path
       style="fill:#deaa87;stroke:none;display:inline"
       d="m 260.61749,166.67897 c -0.1341,-1.72671 4.47623,-1.97959 8.21254,-2.10697 3.8844,-0.13239 7.10354,0.62217 6.65978,1.90043 -0.87591,2.52319 -3.3927,4.26974 -7.91492,4.46659 -3.76851,0.16403 -6.75707,-1.67884 -6.9574,-4.26005 z"
       id="path6710-3-4-7-4-0-6-2-4" />
    <path
       style="fill:none;stroke:#916f6f;stroke-width:1.5;stroke-linecap:butt;stroke-linejoin:miter;stroke-opacity:1"
       d="m 287.37526,141.71973 c 0.14753,4.47098 -1.34564,5.80833 -3.07893,7.18842"
       id="path4597" />
    <g
       id="g4720"
       transform="matrix(-0.32574505,0,0,0.32574505,161.87934,78.51915)"
       style="stroke-width:4.60482822">
      <path
         sodipodi:nodetypes="cssccsssscc"
         inkscape:connector-curvature="0"
         id="path6627-9-63"
         d="m 424.82173,-410.4917 c -7.34697,-1.3322 -43.05253,8.25228 -57.07654,12.88087 -9.94049,3.28092 -20.02638,6.22404 -30.4014,4.83163 -25.78412,-3.46042 -72.80638,5.92443 -99.58342,9.97367 -3.25829,5.63149 -4.33263,7.91118 -4.81149,11.53505 24.19307,15.01999 48.42698,23.58386 66.355,25.7763 13.35733,1.63339 33.49267,-16.80752 39.58221,-21.84535 3.36736,-2.78583 14.9374,-4.68073 17.99956,-3.02614 6.73693,3.64017 18.54255,19.33675 31.02708,15.15591 10.07241,-3.373 27.68667,-19.97248 35.78533,-35.22629 0.96563,-3.48187 1.56568,-13.72364 1.12367,-20.05565 z"
         style="opacity:0.94999999999999996;fill:#280b0b;stroke:none;display:inline;stroke-width:4.60482822" />
      <path
         sodipodi:nodetypes="csssscc"
         inkscape:connector-curvature="0"
         id="path6641-9-6"
         d="m 239.68197,-382.47763 -113.38084,-32.84396 c -25.4237,-7.36468 -37.763335,34.77405 -41.183325,58.15928 -1.7303,11.83141 14.77095,19.42034 18.756405,3.21538 3.99135,-16.22875 -0.0765,-61.18301 20.42913,-53.91016 l 112.8292,40.01683 z"
         style="opacity:0.94999999999999996;fill:#241c1c;stroke:none;display:inline;stroke-width:4.60482822" />
    </g>
    <path
       inkscape:connector-curvature="0"
       style="fill:none;stroke:#000000;stroke-width:1.5;stroke-linecap:butt;stroke-linejoin:miter;stroke-opacity:1;display:inline"
       d="m 280.26857,149.61332 c 0.32661,-0.71266 -1.10211,-1.60462 -2.09684,-2.03117"
       id="path6629-0-6-3-5-0-4-2-4"
       sodipodi:nodetypes="cc" />
  </g>
  <g
     inkscape:groupmode="layer"
     id="layer7"
     inkscape:label="枠面"
     style="display:inline"
     sodipodi:insensitive="true">
    <path
       style="fill:#ffffff;stroke:none;display:inline"
       d="m 0,0 0,320 370,0 0,-320 -10,10 0,300 -350,0 0,-300 350,0 10,-10 z"
       id="path21072"
       inkscape:connector-curvature="0"
       sodipodi:nodetypes="ccccccccccc" />
  </g>
</svg>
