<?xml version="1.0" encoding="UTF-8" standalone="no"?>
<!-- Created with Inkscape (http://www.inkscape.org/) -->

<svg
   xmlns:dc="http://purl.org/dc/elements/1.1/"
   xmlns:cc="http://creativecommons.org/ns#"
   xmlns:rdf="http://www.w3.org/1999/02/22-rdf-syntax-ns#"
   xmlns:svg="http://www.w3.org/2000/svg"
   xmlns="http://www.w3.org/2000/svg"
   xmlns:sodipodi="http://sodipodi.sourceforge.net/DTD/sodipodi-0.dtd"
   xmlns:inkscape="http://www.inkscape.org/namespaces/inkscape"
   width="370"
   height="320"
   id="svg2"
   version="1.1"
   inkscape:version="0.92.3 (2405546, 2018-03-11)"
   sodipodi:docname="[19]反応.svg"
   inkscape:export-filename="C:\Users\zhen-\Desktop\資料\臨時\HOSHI\19.png"
   inkscape:export-xdpi="96"
   inkscape:export-ydpi="96"
   enable-background="new">
  <defs
     id="defs4">
    <inkscape:perspective
       sodipodi:type="inkscape:persp3d"
       inkscape:vp_x="363.49708 : 943.81603 : 1"
       inkscape:vp_y="0 : 1000 : 0"
       inkscape:vp_z="744.09448 : 526.18109 : 1"
       inkscape:persp3d-origin="372.04724 : 350.78739 : 1"
       id="perspective5056" />
    <inkscape:perspective
       id="perspective5056-8"
       inkscape:persp3d-origin="372.04724 : 350.78739 : 1"
       inkscape:vp_z="744.09448 : 526.18109 : 1"
       inkscape:vp_y="0 : 1000 : 0"
       inkscape:vp_x="363.49708 : 943.81603 : 1"
       sodipodi:type="inkscape:persp3d" />
    <inkscape:perspective
       id="perspective5056-5"
       inkscape:persp3d-origin="372.04724 : 350.78739 : 1"
       inkscape:vp_z="744.09448 : 526.18109 : 1"
       inkscape:vp_y="0 : 1000 : 0"
       inkscape:vp_x="363.49708 : 943.81603 : 1"
       sodipodi:type="inkscape:persp3d" />
    <inkscape:perspective
       sodipodi:type="inkscape:persp3d"
       inkscape:vp_x="363.49708 : 943.81603 : 1"
       inkscape:vp_y="0 : 1000 : 0"
       inkscape:vp_z="744.09448 : 526.18109 : 1"
       inkscape:persp3d-origin="372.04724 : 350.78739 : 1"
       id="perspective5056-5-2" />
    <inkscape:perspective
       sodipodi:type="inkscape:persp3d"
       inkscape:vp_x="363.49708 : 943.81603 : 1"
       inkscape:vp_y="0 : 1000 : 0"
       inkscape:vp_z="744.09448 : 526.18109 : 1"
       inkscape:persp3d-origin="372.04724 : 350.78739 : 1"
       id="perspective5056-8-5" />
    <inkscape:perspective
       id="perspective5056-1"
       inkscape:persp3d-origin="372.04724 : 350.78739 : 1"
       inkscape:vp_z="744.09448 : 526.18109 : 1"
       inkscape:vp_y="0 : 1000 : 0"
       inkscape:vp_x="363.49708 : 943.81603 : 1"
       sodipodi:type="inkscape:persp3d" />
    <inkscape:perspective
       sodipodi:type="inkscape:persp3d"
       inkscape:vp_x="363.49708 : 943.81603 : 1"
       inkscape:vp_y="0 : 1000 : 0"
       inkscape:vp_z="744.09448 : 526.18109 : 1"
       inkscape:persp3d-origin="372.04724 : 350.78739 : 1"
       id="perspective5056-5-5" />
    <inkscape:perspective
       id="perspective5056-4"
       inkscape:persp3d-origin="372.04724 : 350.78739 : 1"
       inkscape:vp_z="744.09448 : 526.18109 : 1"
       inkscape:vp_y="0 : 1000 : 0"
       inkscape:vp_x="363.49708 : 943.81603 : 1"
       sodipodi:type="inkscape:persp3d" />
    <inkscape:perspective
       sodipodi:type="inkscape:persp3d"
       inkscape:vp_x="363.49708 : 943.81603 : 1"
       inkscape:vp_y="0 : 1000 : 0"
       inkscape:vp_z="744.09448 : 526.18109 : 1"
       inkscape:persp3d-origin="372.04724 : 350.78739 : 1"
       id="perspective5056-1-2" />
    <inkscape:perspective
       id="perspective5056-8-5-8"
       inkscape:persp3d-origin="372.04724 : 350.78739 : 1"
       inkscape:vp_z="744.09448 : 526.18109 : 1"
       inkscape:vp_y="0 : 1000 : 0"
       inkscape:vp_x="363.49708 : 943.81603 : 1"
       sodipodi:type="inkscape:persp3d" />
    <inkscape:perspective
       id="perspective5056-5-2-8"
       inkscape:persp3d-origin="372.04724 : 350.78739 : 1"
       inkscape:vp_z="744.09448 : 526.18109 : 1"
       inkscape:vp_y="0 : 1000 : 0"
       inkscape:vp_x="363.49708 : 943.81603 : 1"
       sodipodi:type="inkscape:persp3d" />
    <inkscape:perspective
       sodipodi:type="inkscape:persp3d"
       inkscape:vp_x="363.49708 : 943.81603 : 1"
       inkscape:vp_y="0 : 1000 : 0"
       inkscape:vp_z="744.09448 : 526.18109 : 1"
       inkscape:persp3d-origin="372.04724 : 350.78739 : 1"
       id="perspective5056-5-4" />
    <inkscape:perspective
       sodipodi:type="inkscape:persp3d"
       inkscape:vp_x="363.49708 : 943.81603 : 1"
       inkscape:vp_y="0 : 1000 : 0"
       inkscape:vp_z="744.09448 : 526.18109 : 1"
       inkscape:persp3d-origin="372.04724 : 350.78739 : 1"
       id="perspective5056-8-9" />
    <inkscape:perspective
       id="perspective5056-40"
       inkscape:persp3d-origin="372.04724 : 350.78739 : 1"
       inkscape:vp_z="744.09448 : 526.18109 : 1"
       inkscape:vp_y="0 : 1000 : 0"
       inkscape:vp_x="363.49708 : 943.81603 : 1"
       sodipodi:type="inkscape:persp3d" />
    <inkscape:perspective
       sodipodi:type="inkscape:persp3d"
       inkscape:vp_x="363.49708 : 943.81603 : 1"
       inkscape:vp_y="0 : 1000 : 0"
       inkscape:vp_z="744.09448 : 526.18109 : 1"
       inkscape:persp3d-origin="372.04724 : 350.78739 : 1"
       id="perspective5056-1-5" />
    <inkscape:perspective
       id="perspective5056-8-5-4"
       inkscape:persp3d-origin="372.04724 : 350.78739 : 1"
       inkscape:vp_z="744.09448 : 526.18109 : 1"
       inkscape:vp_y="0 : 1000 : 0"
       inkscape:vp_x="363.49708 : 943.81603 : 1"
       sodipodi:type="inkscape:persp3d" />
    <inkscape:perspective
       id="perspective5056-5-2-82"
       inkscape:persp3d-origin="372.04724 : 350.78739 : 1"
       inkscape:vp_z="744.09448 : 526.18109 : 1"
       inkscape:vp_y="0 : 1000 : 0"
       inkscape:vp_x="363.49708 : 943.81603 : 1"
       sodipodi:type="inkscape:persp3d" />
    <inkscape:perspective
       sodipodi:type="inkscape:persp3d"
       inkscape:vp_x="363.49708 : 943.81603 : 1"
       inkscape:vp_y="0 : 1000 : 0"
       inkscape:vp_z="744.09448 : 526.18109 : 1"
       inkscape:persp3d-origin="372.04724 : 350.78739 : 1"
       id="perspective5056-5-8" />
    <inkscape:perspective
       sodipodi:type="inkscape:persp3d"
       inkscape:vp_x="363.49708 : 943.81603 : 1"
       inkscape:vp_y="0 : 1000 : 0"
       inkscape:vp_z="744.09448 : 526.18109 : 1"
       inkscape:persp3d-origin="372.04724 : 350.78739 : 1"
       id="perspective5056-8-4" />
    <inkscape:perspective
       id="perspective5056-409"
       inkscape:persp3d-origin="372.04724 : 350.78739 : 1"
       inkscape:vp_z="744.09448 : 526.18109 : 1"
       inkscape:vp_y="0 : 1000 : 0"
       inkscape:vp_x="363.49708 : 943.81603 : 1"
       sodipodi:type="inkscape:persp3d" />
    <inkscape:perspective
       sodipodi:type="inkscape:persp3d"
       inkscape:vp_x="363.49708 : 943.81603 : 1"
       inkscape:vp_y="0 : 1000 : 0"
       inkscape:vp_z="744.09448 : 526.18109 : 1"
       inkscape:persp3d-origin="372.04724 : 350.78739 : 1"
       id="perspective5056-1-7" />
    <inkscape:perspective
       id="perspective5056-8-5-2"
       inkscape:persp3d-origin="372.04724 : 350.78739 : 1"
       inkscape:vp_z="744.09448 : 526.18109 : 1"
       inkscape:vp_y="0 : 1000 : 0"
       inkscape:vp_x="363.49708 : 943.81603 : 1"
       sodipodi:type="inkscape:persp3d" />
    <inkscape:perspective
       id="perspective5056-5-2-89"
       inkscape:persp3d-origin="372.04724 : 350.78739 : 1"
       inkscape:vp_z="744.09448 : 526.18109 : 1"
       inkscape:vp_y="0 : 1000 : 0"
       inkscape:vp_x="363.49708 : 943.81603 : 1"
       sodipodi:type="inkscape:persp3d" />
    <inkscape:perspective
       sodipodi:type="inkscape:persp3d"
       inkscape:vp_x="363.49708 : 943.81603 : 1"
       inkscape:vp_y="0 : 1000 : 0"
       inkscape:vp_z="744.09448 : 526.18109 : 1"
       inkscape:persp3d-origin="372.04724 : 350.78739 : 1"
       id="perspective5056-5-1" />
    <inkscape:perspective
       sodipodi:type="inkscape:persp3d"
       inkscape:vp_x="363.49708 : 943.81603 : 1"
       inkscape:vp_y="0 : 1000 : 0"
       inkscape:vp_z="744.09448 : 526.18109 : 1"
       inkscape:persp3d-origin="372.04724 : 350.78739 : 1"
       id="perspective5056-8-6" />
    <inkscape:perspective
       id="perspective5056-7"
       inkscape:persp3d-origin="372.04724 : 350.78739 : 1"
       inkscape:vp_z="744.09448 : 526.18109 : 1"
       inkscape:vp_y="0 : 1000 : 0"
       inkscape:vp_x="363.49708 : 943.81603 : 1"
       sodipodi:type="inkscape:persp3d" />
    <inkscape:perspective
       sodipodi:type="inkscape:persp3d"
       inkscape:vp_x="363.49708 : 943.81603 : 1"
       inkscape:vp_y="0 : 1000 : 0"
       inkscape:vp_z="744.09448 : 526.18109 : 1"
       inkscape:persp3d-origin="372.04724 : 350.78739 : 1"
       id="perspective5056-1-1" />
    <inkscape:perspective
       id="perspective5056-8-5-82"
       inkscape:persp3d-origin="372.04724 : 350.78739 : 1"
       inkscape:vp_z="744.09448 : 526.18109 : 1"
       inkscape:vp_y="0 : 1000 : 0"
       inkscape:vp_x="363.49708 : 943.81603 : 1"
       sodipodi:type="inkscape:persp3d" />
    <inkscape:perspective
       id="perspective5056-5-2-1"
       inkscape:persp3d-origin="372.04724 : 350.78739 : 1"
       inkscape:vp_z="744.09448 : 526.18109 : 1"
       inkscape:vp_y="0 : 1000 : 0"
       inkscape:vp_x="363.49708 : 943.81603 : 1"
       sodipodi:type="inkscape:persp3d" />
    <inkscape:perspective
       sodipodi:type="inkscape:persp3d"
       inkscape:vp_x="363.49708 : 943.81603 : 1"
       inkscape:vp_y="0 : 1000 : 0"
       inkscape:vp_z="744.09448 : 526.18109 : 1"
       inkscape:persp3d-origin="372.04724 : 350.78739 : 1"
       id="perspective5056-5-46" />
    <inkscape:perspective
       sodipodi:type="inkscape:persp3d"
       inkscape:vp_x="363.49708 : 943.81603 : 1"
       inkscape:vp_y="0 : 1000 : 0"
       inkscape:vp_z="744.09448 : 526.18109 : 1"
       inkscape:persp3d-origin="372.04724 : 350.78739 : 1"
       id="perspective5056-8-92" />
    <inkscape:perspective
       id="perspective5056-3"
       inkscape:persp3d-origin="372.04724 : 350.78739 : 1"
       inkscape:vp_z="744.09448 : 526.18109 : 1"
       inkscape:vp_y="0 : 1000 : 0"
       inkscape:vp_x="363.49708 : 943.81603 : 1"
       sodipodi:type="inkscape:persp3d" />
  </defs>
  <sodipodi:namedview
     id="base"
     pagecolor="#ffffff"
     bordercolor="#666666"
     borderopacity="1.0"
     inkscape:pageopacity="0.0"
     inkscape:pageshadow="2"
     inkscape:zoom="1.4892684"
     inkscape:cx="122.53714"
     inkscape:cy="110.91157"
     inkscape:document-units="px"
     inkscape:current-layer="layer3"
     showgrid="false"
     inkscape:window-width="1544"
     inkscape:window-height="987"
     inkscape:window-x="-7"
     inkscape:window-y="-1"
     inkscape:window-maximized="0"
     showguides="true"
     inkscape:guide-bbox="true"
     inkscape:snap-grids="false"
     inkscape:snap-to-guides="false"
     showborder="true"
     inkscape:showpageshadow="false"
     fit-margin-top="0"
     fit-margin-left="0"
     fit-margin-right="0"
     fit-margin-bottom="0"
     inkscape:snap-page="false"
     inkscape:snap-global="false" />
  <metadata
     id="metadata7">
    <rdf:RDF>
      <cc:Work
         rdf:about="">
        <dc:format>image/svg+xml</dc:format>
        <dc:type
           rdf:resource="http://purl.org/dc/dcmitype/StillImage" />
        <dc:title />
      </cc:Work>
    </rdf:RDF>
  </metadata>
  <g
     inkscape:groupmode="layer"
     id="layer2"
     inkscape:label="補助線"
     style="display:none"
     sodipodi:insensitive="true">
    <path
       style="fill:none;stroke:#0000ff;stroke-width:1px;stroke-linecap:butt;stroke-linejoin:miter;stroke-opacity:1"
       d="M 10,310 360,10"
       id="path3025"
       inkscape:connector-curvature="0"
       sodipodi:nodetypes="cc" />
    <path
       style="fill:none;stroke:#0000ff;stroke-width:1px;stroke-linecap:butt;stroke-linejoin:miter;stroke-opacity:1"
       d="M 10,10 360,310"
       id="path3027"
       inkscape:connector-curvature="0"
       sodipodi:nodetypes="cc" />
    <path
       style="display:inline;fill:none;stroke:#ff0000;stroke-width:1px;stroke-linecap:butt;stroke-linejoin:miter;stroke-opacity:1"
       d="M 10,0 V 320"
       id="path3006"
       inkscape:connector-curvature="0"
       sodipodi:nodetypes="cc" />
    <path
       style="display:inline;fill:none;stroke:#ff0000;stroke-width:1px;stroke-linecap:butt;stroke-linejoin:miter;stroke-opacity:1"
       d="M 360,0 V 320"
       id="path3010"
       inkscape:connector-curvature="0"
       sodipodi:nodetypes="cc" />
    <path
       style="display:inline;fill:none;stroke:#ff0000;stroke-width:1px;stroke-linecap:butt;stroke-linejoin:miter;stroke-opacity:1"
       d="M 0,9.9999681 370,10"
       id="path3016"
       inkscape:connector-curvature="0" />
    <path
       transform="translate(84.715796,27.711696)"
       style="display:inline;fill:none;stroke:#ff0000;stroke-width:1px;stroke-linecap:butt;stroke-linejoin:miter;stroke-opacity:1"
       d="M -84.715796,282.2883 H 285.2842"
       id="path3018"
       inkscape:connector-curvature="0"
       sodipodi:nodetypes="cc" />
  </g>
  <g
     inkscape:groupmode="layer"
     id="layer4"
     inkscape:label="吹き出し"
     sodipodi:insensitive="true">
    <path
       style="display:inline;opacity:1;fill:#fefefe;fill-opacity:1;stroke:#000000;stroke-width:1.5;stroke-linecap:round;stroke-linejoin:round;stroke-miterlimit:4;stroke-dasharray:none;stroke-dashoffset:0;stroke-opacity:1"
       d="m 10.841128,77.716997 c 0,36.813613 49.457521,66.656953 110.466452,66.656953 9.08596,0 26.5897,15.65223 50.34766,15.48794 -15.98408,-9.95566 -11.1471,-19.67901 -5.12876,-21.31036 38.46244,-10.42576 65.24755,-33.74267 65.24755,-60.834533 0,-36.813612 -49.45751,-66.656943 -110.46645,-66.656946 -61.008931,0 -110.466452,29.843331 -110.466452,66.656946 z"
       id="path7611"
       inkscape:connector-curvature="0"
       sodipodi:nodetypes="sscssss" />
    <text
       xml:space="preserve"
       style="font-style:normal;font-variant:normal;font-weight:normal;font-stretch:normal;font-size:20.12748909px;line-height:1.25;font-family:HGMinchoB;-inkscape-font-specification:HGMinchoB;letter-spacing:0px;word-spacing:0px;display:inline;fill:#000000;fill-opacity:1;stroke:none;stroke-width:1.41521406;stroke-linecap:round"
       x="38.502655"
       y="57.823631"
       id="text7607"><tspan
         sodipodi:role="line"
         x="38.502655"
         y="57.823631"
         id="tspan1758"
         style="stroke-width:1.41521406">いや、強ち</tspan><tspan
         sodipodi:role="line"
         x="38.502655"
         y="84.433075"
         id="tspan2466"
         style="stroke-width:1.41521406">間違いと言えない</tspan><tspan
         sodipodi:role="line"
         x="38.502655"
         y="111.04251"
         id="tspan2468"
         style="stroke-width:1.41521406">所もある。</tspan></text>
  </g>
  <g
     inkscape:groupmode="layer"
     id="layer3"
     inkscape:label="豚"
     style="display:inline"
     sodipodi:insensitive="true">
    <path
       sodipodi:nodetypes="csssscc"
       inkscape:connector-curvature="0"
       id="path6942-6"
       d="m 317.20438,105.43464 -23.19141,-7.648076 c -8.46632,-2.792026 -10.07698,12.341866 -9.91594,19.114036 0.0778,3.27075 2.1337,6.13826 2.55129,1.56815 0.41453,-4.53671 -0.0262,-24.384608 7.23159,-19.367387 l 21.79096,13.063827 z"
       style="display:inline;opacity:0.95;fill:#241c1c;stroke:none;stroke-width:1.5;stroke-linecap:round;stroke-linejoin:round" />
    <path
       style="display:inline;fill:#deaa87;stroke:none;stroke-width:1.5;stroke-linecap:round"
       d="m 276.26868,172.77357 -63.96668,-22.44202 -2.54897,51.98927 77.30518,6.97739 z"
       id="path4684-5-5-2-1-7-5"
       inkscape:connector-curvature="0"
       sodipodi:nodetypes="ccccc" />
    <path
       style="display:inline;fill:#dbdee3;stroke:none;stroke-width:1.5;stroke-linecap:round"
       d="m 306.45299,211.57091 -79.16033,-27.66484 39.47096,130.80631 33.86085,7.68959 z"
       id="path4684-5-5-2-1-7"
       inkscape:connector-curvature="0"
       sodipodi:nodetypes="ccccc" />
    <path
       style="display:inline;fill:#550000;stroke:#000000;stroke-width:1.5;stroke-linecap:round;stroke-linejoin:round;stroke-opacity:1"
       d="m 276.21686,214.73547 c 10.44451,33.35556 18.51211,75.26213 19.80257,113.94948 -1.6185,8.04718 -1.37251,25.72984 -8.86499,33.48572 -6.2791,-11.54225 -14.48106,-32.77851 -14.48106,-32.77851 1.88837,-34.15859 3.73951,-75.44943 -3.5476,-114.77489 z"
       id="path6770-0-4-6-9-4"
       inkscape:connector-curvature="0"
       sodipodi:nodetypes="cccccc" />
    <path
       style="display:inline;fill:#1c1f24;stroke:#000000;stroke-width:1.5;stroke-linecap:round;stroke-linejoin:round;stroke-opacity:1"
       d="m 281.45504,310.34825 9.09231,-41.92083 3.02847,-50.49093 -8.42364,-33.12322 c 4.73804,2.42186 14.38836,9.99101 17.25285,12.13655 2.30999,1.73022 9.28305,12.5331 10.73168,19.06755 1.58823,7.1642 5.45383,41.21192 4.5687,52.92999 -1.39204,18.42904 -5.95072,47.91884 -6.07403,66.29482 -0.0817,12.17989 11.43084,97.32574 -1.48266,114.89394"
       id="path2850"
       inkscape:connector-curvature="0"
       sodipodi:nodetypes="ccccssssc" />
    <path
       style="display:inline;fill:#550000;stroke:#000000;stroke-width:1.5;stroke-linecap:round;stroke-linejoin:round;stroke-opacity:1"
       d="m 275.08458,192.99238 -12.81623,0.12953 -3.36114,3.78101 c 2.27685,7.1434 7.26586,15.13567 10.37865,20.0346 2.75512,-1.73871 6.4939,-2.01761 7.56195,-0.5735 0.95602,-5.18139 3.00578,-12.22502 3.24932,-17.00489 z"
       id="path6768-9-1-6-6-0"
       inkscape:connector-curvature="0"
       sodipodi:nodetypes="ccccccc" />
    <path
       style="display:inline;fill:#dbdbe3;stroke:#000000;stroke-width:1.5;stroke-linecap:round;stroke-linejoin:round;stroke-opacity:1"
       d="m 269.73495,192.06972 c 6.29482,1.8051 16.72991,21.35645 20.22392,31.75019 0.20978,-9.96095 -3.43218,-29.10639 -8.80184,-41.94573 l -3.44004,-9.46004 c 1.59781,8.76743 -5.22577,16.72713 -7.98204,19.65558 z"
       id="path6762-7-2-0-4-8"
       inkscape:connector-curvature="0"
       sodipodi:nodetypes="ccccc" />
    <path
       style="display:inline;fill:#1c1f24;stroke:#000000;stroke-width:1.5;stroke-linecap:round;stroke-linejoin:round;stroke-opacity:1"
       d="m 287.41721,217.00832 c -2.87127,-18.82652 -4.35298,-29.82965 -6.96117,-38.1857 l 5.00862,5.84471 c 2.77451,3.97384 8.50345,20.81315 13.84943,31.19892 l -4.25841,12.71131 z"
       id="path3341-7-0-1-6-8-5-4"
       inkscape:connector-curvature="0"
       sodipodi:nodetypes="cccccc" />
    <path
       style="display:inline;fill:#1c1f24;stroke:#000000;stroke-width:1.5;stroke-linecap:round;stroke-linejoin:round;stroke-opacity:1"
       d="m 203.0652,165.86118 c -12.6653,7.36092 -35.53004,17.08676 -44.51608,22.74938 -11.25252,7.09087 -5.91407,29.13777 -7.74211,41.79576 -3.00068,20.77778 11.18978,64.79075 7.33556,97.34249 -2.101,17.74375 -11.52451,82.60504 -10.27964,107.95229 l 133.7341,-100.87251 -0.53811,-31.0927 -32.0884,-88.18547 -35.18924,-46.31238 z"
       id="path2834"
       inkscape:connector-curvature="0"
       sodipodi:nodetypes="cssccccccc" />
    <path
       style="display:inline;fill:#dbdbe3;stroke:#000000;stroke-width:1.5;stroke-linecap:round;stroke-linejoin:round;stroke-opacity:1"
       d="m 207.16087,161.81011 c 0.46123,-3.97358 2.98905,-9.97522 4.51573,-12.24664 -2.59236,2.90228 38.47307,34.52753 56.50116,42.58506 -6.45289,2.26866 -9.53921,13.55024 -16.06874,25.4826 -22.02442,-30.00857 -37.98533,-50.87378 -44.94815,-55.82102 z"
       id="path6657-6-4-0-2-8"
       inkscape:connector-curvature="0"
       sodipodi:nodetypes="ccccc" />
    <path
       style="display:inline;fill:#1c1f24;stroke:#000000;stroke-width:1.5;stroke-linecap:round;stroke-linejoin:round;stroke-opacity:1"
       d="M 249.51765,207.51244 C 232.17221,179.3359 209.6241,162.15415 207.5423,157.28133 c -1.80909,1.74601 -4.17581,6.69117 -5.79473,9.33531 3.26874,-1.70291 20.21742,17.39217 26.93384,43.58558 6.20619,3.07594 11.77654,7.06323 17.19255,11.00181 z"
       id="path6659-6-6-1-3-4"
       inkscape:connector-curvature="0"
       sodipodi:nodetypes="cccccc" />
    <path
       style="display:inline;fill:#1c1f24;stroke:#000000;stroke-width:1.5;stroke-linecap:round;stroke-linejoin:round;stroke-opacity:1"
       d="m 147.86293,435.7011 c 19.53589,14.19783 77.97759,20.93366 119.87202,27.06735 6.21983,0.91064 17.07358,-5.30956 18.95647,-14.39284 7.39803,-35.68891 0.55851,-127.62585 -0.73868,-131.23205 -6.26842,-21.57136 -13.82992,-70.5024 -36.43509,-109.63112 l -15.34031,21.90423 c 15.38584,16.04626 36.97455,64.17082 49.41942,88.78021"
       id="path2830"
       inkscape:connector-curvature="0"
       sodipodi:nodetypes="csscccc" />
    <g
       id="g9921-2-0-0-4-1"
       transform="matrix(1.0773661,0.40224328,-0.39048414,1.0458704,-1870.6289,-772.76107)"
       style="display:inline;stroke:#000000;stroke-width:1.32383323;stroke-linecap:round" />
    <g
       id="g4656-2-7-5-6"
       transform="matrix(1.1126439,0.29075892,-0.28225891,1.080117,-1979.31,-620.98292)"
       style="display:inline;stroke:#000000;stroke-width:1.32383323;stroke-linecap:round" />
    <g
       id="g4658-5-7-8-8"
       transform="matrix(1.1126439,0.29075892,-0.28225891,1.080117,-2225.1463,-672.81727)"
       style="display:inline;stroke:#000000;stroke-width:1.32383323;stroke-linecap:round" />
    <g
       transform="matrix(-1.3500363,-0.50404688,-0.50404688,1.3500363,-254.9196,249.40091)"
       id="g4678-0-3-6-5"
       inkscape:label="駅員: 左手"
       style="display:inline;stroke-width:1.04089856;stroke-linecap:round">
      <g
         id="g4680-9-3-1-7"
         transform="matrix(-0.7980275,0,0,0.77469807,1298.4706,-272.34221)"
         style="display:inline;stroke:#000000;stroke-width:1.32383323;stroke-linecap:round" />
    </g>
    <g
       id="g4682-4-5-5-6"
       transform="matrix(1.0773661,0.40224328,-0.39048414,1.0458704,-1870.629,-772.76107)"
       style="display:inline;stroke:#000000;stroke-width:1.32383323;stroke-linecap:round" />
    <g
       id="g9921-2-0-1-6-2"
       transform="matrix(-1.2203295,1.5569628,1.5114467,1.1846544,215.86304,-2664.1047)"
       style="display:inline;stroke:#000000;stroke-width:0.76959163;stroke-linecap:round" />
    <g
       id="g4656-2-4-2-7"
       transform="matrix(-1.3721285,1.4249914,1.3833334,1.3320158,511.54502,-2538.8522)"
       style="display:inline;stroke:#000000;stroke-width:0.76959163;stroke-linecap:round" />
    <g
       id="g4658-5-1-5-7"
       transform="matrix(-1.3721285,1.4249914,1.3833334,1.3320158,825.84621,-2835.4897)"
       style="display:inline;stroke:#000000;stroke-width:0.76959163;stroke-linecap:round" />
    <g
       transform="matrix(1.5291821,-1.951014,1.951014,1.5291821,-1238.3915,285.69059)"
       id="g4678-0-2-3-9"
       inkscape:label="駅員: 左手"
       style="display:inline;stroke-width:0.6051116;stroke-linecap:round">
      <g
         id="g4680-9-9-5-3"
         transform="matrix(-0.7980275,0,0,0.77469807,1298.4706,-272.34221)"
         style="display:inline;stroke:#000000;stroke-width:0.76959163;stroke-linecap:round" />
    </g>
    <g
       id="g4682-4-0-6-1"
       transform="matrix(-1.2203295,1.5569628,1.5114467,1.1846544,215.86313,-2664.1047)"
       style="display:inline;stroke:#000000;stroke-width:0.76959163;stroke-linecap:round" />
    <flowRoot
       xml:space="preserve"
       id="flowRoot2470"
       style="font-style:normal;font-variant:normal;font-weight:normal;font-stretch:normal;font-size:21.33333397px;line-height:1.25;font-family:HGMinchoB;-inkscape-font-specification:HGMinchoB;letter-spacing:0px;word-spacing:0px;fill:#000000;fill-opacity:1;stroke:none;stroke-width:1.5;stroke-linecap:round"><flowRegion
         id="flowRegion2472"
         style="stroke-width:1.5;stroke-linecap:round"><rect
           id="rect2474"
           width="142.44043"
           height="108.72953"
           x="225.53069"
           y="75.952065"
           style="stroke-width:1.5;stroke-linecap:round" /></flowRegion><flowPara
         id="flowPara2476" /></flowRoot>    <path
       style="display:inline;fill:#1c1f24;stroke:#000000;stroke-width:1.5;stroke-linecap:round;stroke-linejoin:round;stroke-opacity:1"
       d="m 310.14872,450.13612 -23.3596,-9.8584 c -0.81429,-42.03168 -11.28617,-116.50911 -9.73928,-123.31602 7.31223,-32.17657 12.82097,-71.91547 10.36737,-99.95338 l 14.29431,11.16683 c -1.80069,19.47204 -10.56897,57.01356 -20.89257,88.7637"
       id="path2844"
       inkscape:connector-curvature="0"
       sodipodi:nodetypes="ccsccc" />
    <path
       style="display:inline;fill:#deaa87;stroke:#000000;stroke-width:1.5;stroke-linecap:round;stroke-linejoin:miter;stroke-opacity:1"
       d="m 277.96469,177.10902 3.75551,-31.09827 -66.50584,-32.42219 c 0.88927,5.94228 -0.0717,29.13584 -2.90571,36.91792"
       id="path6635-6-9-1-1-7-5-8"
       inkscape:connector-curvature="0"
       sodipodi:nodetypes="cccc" />
    <path
       style="display:inline;fill:#deaa87;stroke:#000000;stroke-width:1.5;stroke-linecap:round;stroke-linejoin:miter;stroke-opacity:1"
       d="m 215.32506,123.27719 c 0.38424,3.98528 0.19129,9.45181 1.44079,13.64187 1.07705,3.61181 17.51613,25.25782 33.26955,37.06275 4.70503,3.52575 21.00136,7.65056 26.10334,1.95926 4.62035,-5.15404 13.02419,-14.65029 16.17872,-18.94189 3.83525,-5.21766 11.83581,-17.21468 14.76663,-24.71155 2.09826,-5.36724 4.18103,-16.61022 5.66564,-20.83318 1.07818,-3.06688 3.31106,-10.62952 4.47559,-13.712596 1.71385,-4.537398 1.67114,-10.286271 1.6427,-14.688841 -0.0549,-8.500202 0.36574,-12.358216 -1.27094,-22.219416 C 316.22863,52.588534 306.7497,40.594292 294.86245,31.242711 279.16769,18.89579 244.57497,19.725599 226.0925,37.532768 c -15.01106,14.46259 -21.07202,36.84345 -20.52358,46.246631 0.41814,7.16914 8.17788,41.287671 9.64544,50.463021"
       id="path2235"
       inkscape:connector-curvature="0"
       sodipodi:nodetypes="cssscssscssssc" />
    <path
       style="display:inline;fill:#e9c6af;stroke:none;stroke-width:1.5;stroke-linecap:round"
       d="m 307.29972,117.29742 c -0.42816,-4.42494 -4.64468,-1.36175 -7.67993,-0.74127 -2.79493,0.57134 -9.10545,-5.66739 -11.39916,-8.15135 -0.10715,1.95267 -0.49496,7.19845 -1.6959,6.31946 -0.56527,-0.41374 -3.17208,-6.86867 -2.65957,-9.71518 1.8711,-10.391987 5.2675,-8.871622 10.52214,-8.175542 -3.1377,1.47819 -4.37597,6.279962 -3.7134,8.541552 l 18.1459,1.1933 c 2.69824,-2.65761 2.23462,-6.15248 1.01,-10.678232 3.47574,-1.997126 6.61058,-6.103075 6.82193,-11.859741 0.39709,-10.815859 -0.035,-22.062137 -1.99104,-26.329072 -6.79641,-14.825451 -20.56848,-25.840693 -30.62457,-30.414187 -8.43094,-3.834381 -27.90388,-3.112614 -35.39296,3.950978 -9.52032,8.979436 -7.67472,25.636082 -7.4043,37.193103 0.13695,5.852824 1.69127,12.511977 7.16319,17.504913 l 7.40356,2.091714 c -6.79643,0.30226 -8.37134,9.27109 -5.68051,12.205454 l 18.82671,0.97903 c 0.48812,-1.836253 1.0616,-4.553461 -2.35752,-7.086354 5.57624,2.25456 10.02525,-0.27022 12.89968,1.24972 0.94286,0.49857 -1.56654,7.466334 -1.75359,10.550314 -0.0692,1.14126 -2.3814,24.00072 -2.11347,25.8039 0.31722,2.13494 2.42161,2.78077 3.18844,2.56487 1.23366,-0.34734 2.34022,-2.04658 3.48434,-2.71604 1.62547,-0.95112 2.40759,4.60843 4.86591,-0.0148 -0.23936,6.00205 -3.53769,8.16222 -5.54833,8.062 -1.91961,-0.0957 -2.02018,2.85755 -3.53568,3.29125 0.37558,-2.72149 -0.12875,-4.59464 -2.61515,-4.5671 -2.12695,0.0236 -6.47874,4.16884 -6.90405,6.4577 l -7.8096,1.26191 c -2.06225,-0.35816 1.68374,-4.76555 0.51029,-6.69855 -2.15106,-3.54347 -4.9541,-5.15855 -4.83775,-7.34886 0.21036,-3.95981 11.64835,-20.20115 5.93736,-17.65147 -6.10116,2.72388 -8.52448,0.20586 -11.51177,-1.40748 -2.46847,-1.33314 -4.76254,3.12747 -3.79062,8.78816 0.42568,2.47928 3.05217,14.53206 5.89896,29.63809 -1.95367,6.62154 0.2662,19.83149 5.60306,23.59768 4.46339,3.14978 13.67014,2.71894 18.48127,-2.44556 4.67438,-5.01772 5.92536,-9.23462 11.38138,-16.4442 7.2293,-9.55276 15.52862,-21.32782 17.2223,-26.87846 1.08849,-3.56726 1.90295,-9.3327 1.65245,-11.92165 z"
       id="path5573-3-9-8-0-5"
       inkscape:connector-curvature="0"
       sodipodi:nodetypes="sscssccccssssscccccssssscscsccssssscsssss" />
    <path
       style="display:inline;fill:#fefefe;fill-opacity:1;stroke:none;stroke-width:1.5;stroke-linecap:round"
       d="m 294.41511,103.67839 -4.16248,3.09654 9.16753,4.61375 8.78526,-3.89263 -2.52233,-2.2191 z"
       id="path3337-0-4-0-1-8-6-9-1"
       inkscape:connector-curvature="0"
       sodipodi:nodetypes="cccccc" />
    <path
       style="display:inline;fill:#fefefe;fill-opacity:1;stroke:none;stroke-width:1.5;stroke-linecap:round"
       d="m 266.36244,98.362765 -11.72958,-2.280585 -6.62111,1.253389 10.26817,7.047441 10.86029,-1.42933 z"
       id="path3353-4-1-2-2-4-9-8-7"
       inkscape:connector-curvature="0"
       sodipodi:nodetypes="cccccc" />
    <path
       style="display:inline;fill:#fefefe;fill-opacity:1;stroke:#916f6f;stroke-width:1.5;stroke-linecap:round;stroke-linejoin:miter;stroke-opacity:1"
       d="m 269.14021,102.95368 c -1.57771,0.60937 -4.75974,2.84531 -6.94717,2.6204 -1.64888,-0.16955 -6.0894,-1.30553 -8.38707,-1.91903 -2.17979,-0.58201 -4.2798,-4.5511 -5.79422,-6.319481"
       id="path3339-7-3-9-4-5-5-0"
       inkscape:connector-curvature="0"
       sodipodi:nodetypes="cssc" />
    <path
       style="display:inline;fill:#2b0000;stroke:none;stroke-width:1.5;stroke-linecap:round"
       d="m 255.05144,102.85665 c -2.73647,-0.48007 -4.43396,-3.931825 -4.16552,-6.330795 l 9.60574,0.493596 c 0.0526,4.115869 -2.70745,6.316609 -5.44022,5.837199 z"
       id="path3357-1-2-4-7-5-3-8-6"
       inkscape:connector-curvature="0"
       sodipodi:nodetypes="cccc" />
    <path
       style="display:inline;fill:#fefefe;fill-opacity:1;stroke:#916f6f;stroke-width:1.5;stroke-linecap:round;stroke-linejoin:miter;stroke-opacity:1"
       d="m 308.20542,107.49605 c -1.17244,1.43175 -3.71515,4.3839 -5.05279,4.52389 -1.82585,0.19107 -6.23195,-0.55585 -8.00893,-1.0753 -0.7522,-0.21988 -4.56581,-3.59798 -4.89107,-4.16971"
       id="path3355-7-9-3-0-3-7-6"
       inkscape:connector-curvature="0"
       sodipodi:nodetypes="cssc" />
    <path
       style="display:inline;fill:#2b0000;stroke:none;stroke-width:1.5;stroke-linecap:round"
       d="m 301.79031,104.06013 c -0.56231,2.72772 -2.86018,5.20304 -5.1772,5.34202 -2.65739,0.15942 -4.84194,-2.42095 -4.72722,-4.0479 l 3.23477,-1.80885 z"
       id="path3357-0-8-6-7-0-2-0"
       inkscape:connector-curvature="0"
       sodipodi:nodetypes="csccc" />
    <path
       style="display:inline;fill:none;stroke:#000000;stroke-width:1.5;stroke-linecap:round;stroke-linejoin:miter;stroke-opacity:1"
       d="m 288.49014,96.208245 c -0.58353,1.47168 -2.1783,3.28941 -2.73283,5.030605 -0.47202,1.48213 -0.57352,3.55211 -0.58381,5.13123"
       id="path3185"
       inkscape:connector-curvature="0"
       sodipodi:nodetypes="csc" />
    <path
       style="display:inline;fill:none;stroke:#000000;stroke-width:1.5;stroke-linecap:round;stroke-linejoin:miter;stroke-opacity:1"
       d="m 272.76152,136.39045 c -2.25873,0.22797 -5.48074,-0.27355 -7.49534,1.00133"
       id="path6629-0-6-3-5-0-4-2"
       inkscape:connector-curvature="0"
       sodipodi:nodetypes="cc" />
    <path
       style="display:inline;fill:#000000;stroke:none;stroke-width:1.5;stroke-linecap:round"
       d="m 279.44933,140.58212 c -0.99807,-0.95957 -2.28285,1.32885 -5.33235,1.03368 -4.13029,-0.39978 -5.21375,-2.43673 -6.70072,-2.10386 -6.27597,1.40493 -18.51167,5.28892 -19.77712,8.14737 -0.92403,2.08729 -0.76678,6.30054 1.11392,6.101 6.06031,-0.64305 15.18737,-1.6509 21.07993,-1.07213 8.3375,0.81889 13.42767,4.35809 17.29378,4.34308 0.85586,-0.003 3.10413,-3.89343 2.28809,-5.72685 -1.18612,-2.6649 -8.44685,-9.26216 -9.96553,-10.72229 z"
       id="path6633-4-0-6-4-8-5-4"
       inkscape:connector-curvature="0"
       sodipodi:nodetypes="sssssssss" />
    <path
       style="display:inline;fill:none;stroke:#000000;stroke-width:1.5;stroke-linecap:round;stroke-linejoin:miter;stroke-opacity:1"
       d="m 277.8034,93.141675 c -0.18094,1.62637 -0.91473,4.2816 -1.96672,5.78935"
       id="path6643-0-0-5-2-6-1-6"
       inkscape:connector-curvature="0"
       sodipodi:nodetypes="cc" />
    <path
       style="display:inline;fill:#000000;stroke:none;stroke-width:1.5;stroke-linecap:round"
       d="m 270.43344,96.651035 c -4.32173,-0.40521 -6.55963,-4.2575 -13.62895,-6.74215 -5.54492,-1.948869 -17.09399,-4.051173 -14.62699,-4.189439 4.58563,-0.256987 10.18449,0.38022 16.1711,2.010856 3.56186,0.970164 6.56171,2.659063 10.3484,3.999133 3.08496,1.09171 11.90468,5.87495 1.73644,4.9216 z"
       id="path6645-7-0-4-0-3-7-5"
       inkscape:connector-curvature="0"
       sodipodi:nodetypes="ssssss" />
    <path
       style="display:inline;fill:#000000;stroke:none;stroke-width:1.5;stroke-linecap:round"
       d="m 316.08299,96.87801 c -2.05994,-1.5422 -12.94023,-2.067825 -18.41509,-0.947155 -3.85567,0.78924 -10.82605,2.867078 -9.5435,3.696628 3.82237,2.472367 11.40231,-0.373768 15.82715,-1.357128 5.75007,-1.27785 13.39649,-0.445225 12.13144,-1.392345 z"
       id="path6647-1-6-2-0-5-1-0"
       inkscape:connector-curvature="0"
       sodipodi:nodetypes="sssss" />
    <path
       style="display:inline;fill:none;stroke:#000000;stroke-width:1.5;stroke-linecap:round;stroke-linejoin:miter;stroke-opacity:1"
       d="m 260.35046,129.02706 c -1.27724,2.00662 -2.38594,6.21724 0.35129,7.97647"
       id="path6649-7-1-0-1-6-1-9"
       inkscape:connector-curvature="0"
       sodipodi:nodetypes="cc" />
    <path
       style="display:inline;fill:none;stroke:#000000;stroke-width:1.5;stroke-linecap:round;stroke-linejoin:miter;stroke-opacity:1"
       d="m 270.25137,104.0112 c -1.00605,-1.08517 -2.33041,-4.987725 -3.88893,-5.648435 -2.00474,-0.8499 -7.22681,-1.897615 -11.72958,-2.280585 -2.10903,-0.17938 -5.97107,0.954318 -8.62286,1.753413"
       id="path3337-7-8-7-6-8-2-0"
       inkscape:connector-curvature="0"
       sodipodi:nodetypes="cssc" />
    <path
       style="display:inline;fill:none;stroke:#000000;stroke-width:1.5;stroke-linecap:round;stroke-linejoin:miter;stroke-opacity:1"
       d="m 309.20037,108.7748 c -0.81339,-1.10432 -2.20494,-3.26068 -3.51728,-3.49785 -1.77716,-0.32115 -9.05648,-2.33603 -11.26798,-1.59856 -2.07065,0.6905 -3.74121,2.4089 -5.35231,4.11368"
       id="path3353-3-3-7-7-9-6-1"
       inkscape:connector-curvature="0"
       sodipodi:nodetypes="cssc" />
    <path
       style="display:inline;fill:#deaa87;stroke:none;stroke-width:1.5;stroke-linecap:round"
       d="m 261.25468,158.0871 c 1.03858,-3.85593 15.79784,-2.1586 15.20237,-0.20903 -0.79031,2.58748 -3.46799,4.3214 -8.09057,4.52063 -3.85214,0.16601 -7.79373,-1.77979 -7.1118,-4.3116 z"
       id="path6710-3-4-7-4-0-6-2-4"
       inkscape:connector-curvature="0"
       sodipodi:nodetypes="ssss" />
    <path
       style="fill:none;stroke:#916f6f;stroke-width:1.5;stroke-linecap:round;stroke-linejoin:miter;stroke-opacity:1"
       d="m 286.63313,131.0426 c 0.15419,4.62642 -1.40631,6.01026 -3.21774,7.43834"
       id="path4597"
       inkscape:connector-curvature="0"
       sodipodi:nodetypes="cc" />
    <path
       inkscape:connector-curvature="0"
       style="display:inline;fill:none;stroke:#000000;stroke-width:1.5;stroke-linecap:round;stroke-linejoin:miter;stroke-opacity:1"
       d="m 279.20602,139.21062 c 0.34134,-0.73743 0.59459,-1.27432 -0.44498,-1.71571"
       id="path6629-0-6-3-5-0-4-2-4"
       sodipodi:nodetypes="cc" />
    <path
       sodipodi:nodetypes="cssccsssscc"
       inkscape:connector-curvature="0"
       id="path6944"
       d="m 317.20438,105.43464 c -4.48149,-4.52987 -22.16578,-7.368678 -29.56957,-6.61546 -2.45359,0.249612 -6.51982,-0.715408 -8.17456,-1.437151 -9.43511,-4.115295 -26.76032,-6.762599 -37.82953,-6.154144 -0.62619,0.790323 -1.73398,4.273609 -1.53351,6.730544 5.24176,5.796181 14.7163,10.311811 19.41199,11.221031 5.4023,1.04604 16.16962,-3.61414 18.96298,-4.15517 1.54466,-0.29916 6.07447,0.45713 6.95275,1.58009 1.93229,2.47053 7.65272,8.55004 11.09784,9.32064 2.84217,0.63574 16.0946,-1.0639 19.20037,-4.48783 0.515,-1.12354 1.69475,-4.54895 1.48124,-6.00255 z"
       style="display:inline;opacity:0.8;fill:#280b0b;stroke:#000000;stroke-width:1.5;stroke-linecap:round;stroke-linejoin:round" />
    <path
       sodipodi:nodetypes="csssscc"
       inkscape:connector-curvature="0"
       id="path6942"
       d="M 241.63072,91.227885 214.6409,80.155397 c -9.93737,-4.076772 -10.90788,14.834574 -10.74684,21.606743 0.0778,3.27075 2.7272,6.13826 3.14479,1.56815 0.41453,-4.536705 1.00427,-26.049454 8.41859,-21.266593 l 24.63977,15.894732 z"
       style="display:inline;opacity:0.95;fill:#241c1c;stroke:none;stroke-width:1.5;stroke-linecap:round;stroke-linejoin:round" />
    <path
       style="display:inline;fill:#deaa87;stroke:#000000;stroke-width:1.5;stroke-linecap:round;stroke-linejoin:miter;stroke-opacity:1"
       d="m 213.46667,121.33601 c -1.06131,-3.74652 -6.92219,-1.3038 -7.59023,-9.71339 -0.42393,-5.33672 -3.35282,-8.91457 -2.32946,-19.051556 0.77965,-7.722933 2.60749,-12.43196 5.2276,-14.203415 3.58585,-2.424396 7.78016,2.412941 9.75688,7.316858"
       id="path6637-1-1-2-1-4-1-3"
       inkscape:connector-curvature="0"
       sodipodi:nodetypes="csssc" />
    <path
       style="display:inline;opacity:0.95;fill:none;stroke:#000000;stroke-width:1.5;stroke-linecap:round;stroke-linejoin:miter;stroke-opacity:1"
       d="m 209.89437,106.8571 c 1.35475,-2.08799 6.83463,-3.77485 6.15879,-9.825596 -0.62412,-5.587737 -3.5005,-14.087372 -5.58763,-14.255338 -1.67372,-0.134696 -2.14027,2.709701 -3.23604,5.98611 -2.68589,8.030958 0.2386,17.984004 3.79279,19.598194 1.99213,0.90474 3.74263,7.91748 4.84925,6.38199 1.08473,-1.50523 -0.49878,-5.24288 -0.44092,-6.9383 0.0348,-1.02148 0.6248,-2.26299 1.29839,-4.72191"
       id="path6639-8-8-6-7-8-4-8"
       inkscape:connector-curvature="0"
       sodipodi:nodetypes="cssscccc" />
    <path
       style="display:inline;fill:#e9c6af;stroke:#000000;stroke-width:1.5;stroke-linecap:round;stroke-linejoin:round;stroke-opacity:1"
       d="m 342.50577,389.90501 c 0.33195,-2.16034 3.91152,-6.91951 3.98392,-9.58845 0.19411,-7.15755 -6.90956,-22.36515 -11.28583,-25.16107 -8.18343,-5.22825 -23.22051,-2.67956 -34.50709,-7.33184 l 1.49981,26.6464 c 13.57691,4.64952 24.65258,6.26723 40.30919,15.43496 z"
       id="path11364-8-7"
       inkscape:connector-curvature="0" />
    <path
       style="display:inline;fill:#dbdbe3;stroke:#000000;stroke-width:1.5;stroke-linecap:round;stroke-linejoin:round;stroke-opacity:1"
       d="m 310.68544,387.60446 c 4.154,-6.76846 8.31865,-31.95327 -2.76681,-42.38799 -3.94421,-1.12026 -6.40163,-1.78782 -10.4495,-2.60828 l 5.48534,45.55241 z"
       id="path11366-2-1"
       inkscape:connector-curvature="0" />
    <path
       style="display:inline;fill:#1c1f24;stroke:#000000;stroke-width:1.5;stroke-linecap:round;stroke-linejoin:round;stroke-opacity:1"
       d="m 214.75227,328.67185 c -7.23005,-30.02031 -13.3939,-62.47358 -22.68863,-97.00501 -4.87294,-18.10372 -22.34126,-43.4895 -31.34809,-42.60508 -15.00388,1.4733 -20.35301,24.25617 -20.03229,53.54008 0.26066,23.79976 12.04161,72.29093 15.96247,104.27761 3.05679,24.93717 14.22173,31.91803 28.69342,33.08962 53.88094,4.36201 99.52729,14.25086 121.57009,11.32281 5.7702,-15.2903 0.54377,-36.66553 -4.82677,-50.71846 -13.70482,-3.17089 -65.19872,-11.20646 -90.10534,-12.60658"
       id="path3726-6-5"
       inkscape:connector-curvature="0"
       sodipodi:nodetypes="cssscsccc" />
    <path
       style="display:inline;fill:#e9c6af;stroke:#000000;stroke-width:1.5;stroke-linecap:round;stroke-linejoin:round;stroke-opacity:1"
       d="m 277.24824,195.22607 c -2.95981,-1.23951 -7.32167,-2.45113 -10.68751,-3.12517 -5.19211,-2.38314 -9.44233,-2.08006 -11.92114,-1.2384 -3.26297,1.1079 -3.80682,3.8185 -0.42593,6.41435 1.53784,1.18076 5.1074,3.08684 10.34785,3.13217 2.73474,1.25715 7.26992,4.40315 10.26684,5.85681 2.22314,5.34539 6.32355,11.47687 11.48475,14.10528 l 14.9683,23.87671 20.63293,-6.91207 -13.21954,-23.26253 -11.49005,-24.97392 -19.89348,-0.77066 z"
       id="path2915"
       inkscape:connector-curvature="0"
       sodipodi:nodetypes="ccccccccccccc" />
    <path
       style="display:inline;fill:#e9c6af;stroke:#000000;stroke-width:1.5;stroke-linecap:round;stroke-linejoin:round;stroke-opacity:1"
       d="m 296.20039,183.47312 c -6.94075,-13.4698 -14.13589,-19.78926 -17.29467,-20.85608 -3.67854,-1.24235 -12.95639,1.48033 -17.4286,3.45652 -3.22746,1.42616 -10.88822,12.31612 -12.29823,15.38479 -1.5058,3.27714 2.97479,3.79808 5.25544,2.25895 3.35305,-2.26283 5.86396,-6.25821 10.2194,-10.88049 l 11.82114,-2.96157 20.45208,20.72283"
       id="path11364-8-7-5"
       inkscape:connector-curvature="0"
       sodipodi:nodetypes="cssssccc" />
    <path
       sodipodi:nodetypes="cssssccc"
       inkscape:connector-curvature="0"
       id="path11364-8-7-5-6-0"
       d="m 297.03009,189.66029 c -5.02107,-7.08711 -10.45739,-20.097 -15.18192,-21.97354 -4.03334,-1.60201 -16.59356,5.76422 -19.5652,9.62894 -2.43845,3.17129 -2.22571,15.91865 -2.64977,21.02974 -0.40326,4.86037 5.08338,1.89982 6.38135,-0.84761 1.37863,-2.91818 2.29518,-9.3968 1.92086,-14.42958 1.70873,-0.14355 9.30623,-4.00687 10.48314,-5.64252 0.51134,2.75131 1.90475,8.86777 3.53059,13.38378"
       style="display:inline;fill:#e9c6af;stroke:#000000;stroke-width:1.5;stroke-linecap:round;stroke-linejoin:round;stroke-opacity:1" />
    <path
       style="display:inline;fill:#e9c6af;stroke:#000000;stroke-width:1.5;stroke-linecap:round;stroke-linejoin:round;stroke-opacity:1"
       d="m 301.74582,191.46893 c -5.02107,-7.08711 -10.45739,-20.097 -15.18192,-21.97354 -4.03334,-1.60201 -16.59356,5.76422 -19.5652,9.62894 -2.43845,3.17129 -2.22571,15.91865 -2.64977,21.02974 -0.40326,4.86037 5.08338,1.89982 6.38135,-0.84761 1.37863,-2.91818 2.29518,-9.3968 1.92086,-14.42958 1.70873,-0.14355 9.30623,-4.00687 10.48314,-5.64252 0.51134,2.75131 1.90475,8.86777 3.53059,13.38378"
       id="path11364-8-7-5-6"
       inkscape:connector-curvature="0"
       sodipodi:nodetypes="cssssccc" />
    <path
       style="display:inline;fill:#dbdee3;fill-opacity:1;stroke:#000000;stroke-width:1.5;stroke-linecap:round;stroke-linejoin:round;stroke-opacity:1"
       d="m 291.68751,252.27465 -5.41956,-12.70022 c 10.11503,-1.4839 27.1583,-7.1668 29.5226,-15.88463 l 4.89603,10.09641"
       id="path10001-9-9-6-1-1-4-9-8"
       inkscape:connector-curvature="0"
       sodipodi:nodetypes="cccc" />
    <path
       style="display:inline;fill:#1c1f24;stroke:#000000;stroke-width:1.5;stroke-linecap:round;stroke-linejoin:round;stroke-opacity:1"
       d="m 350.41038,334.37012 -20.19746,17.9793 -45.91674,-103.11265 c 10.58982,2.90801 33.13548,-11.09234 35.49978,-19.81017 l 41.27101,88.27427"
       id="path10001-9-9-6-1-1-4-9"
       inkscape:connector-curvature="0"
       sodipodi:nodetypes="ccccc" />
    <path
       style="display:inline;fill:#e9c6af;stroke:#000000;stroke-width:1.5;stroke-linecap:round;stroke-linejoin:round;stroke-opacity:1"
       d="m 308.69479,214.07322 c -2.31679,-7.63787 -4.2583,-19.18119 -6.44043,-22.45126 -3.20004,-4.79546 -6.75401,-16.15947 -12.30576,-16.90727 -4.61556,-0.6217 -19.92109,3.06298 -19.23296,8.38434 0.47974,3.70985 4.81912,12.18246 8.0386,15.8608 1.66216,1.89906 2.90712,-0.0912 3.28701,-2.06312 0.63001,-3.27023 -1.30227,-8.43752 -3.07863,-11.60265 2.58625,-0.10675 5.3666,-0.46002 8.37184,-1.82374 1.0018,10.6989 -2.88405,23.33385 4.95643,30.67682"
       id="path2911"
       inkscape:connector-curvature="0" />
  </g>
  <g
     inkscape:groupmode="layer"
     id="layer7"
     inkscape:label="枠面"
     style="display:inline"
     sodipodi:insensitive="true">
    <path
       style="fill:#ffffff;stroke:none;display:inline"
       d="m 0,0 0,320 370,0 0,-320 -10,10 0,300 -350,0 0,-300 350,0 10,-10 z"
       id="path21072"
       inkscape:connector-curvature="0"
       sodipodi:nodetypes="ccccccccccc" />
  </g>
</svg>
