<?xml version="1.0" encoding="UTF-8" standalone="no"?>
<!-- Created with Inkscape (http://www.inkscape.org/) -->

<svg
   xmlns:dc="http://purl.org/dc/elements/1.1/"
   xmlns:cc="http://creativecommons.org/ns#"
   xmlns:rdf="http://www.w3.org/1999/02/22-rdf-syntax-ns#"
   xmlns:svg="http://www.w3.org/2000/svg"
   xmlns="http://www.w3.org/2000/svg"
   xmlns:sodipodi="http://sodipodi.sourceforge.net/DTD/sodipodi-0.dtd"
   xmlns:inkscape="http://www.inkscape.org/namespaces/inkscape"
   width="370"
   height="320"
   id="svg2"
   version="1.1"
   inkscape:version="0.48.4 r9939"
   sodipodi:docname="[04.嘆願].svg"
   inkscape:export-filename="C:\Users\執安\Desktop\資料\臨時\HOSHI\[04.嘆願].png"
   inkscape:export-xdpi="90"
   inkscape:export-ydpi="90"
   enable-background="new">
  <defs
     id="defs4">
    <inkscape:perspective
       sodipodi:type="inkscape:persp3d"
       inkscape:vp_x="363.49708 : 943.81603 : 1"
       inkscape:vp_y="0 : 1000 : 0"
       inkscape:vp_z="744.09448 : 526.18109 : 1"
       inkscape:persp3d-origin="372.04724 : 350.78739 : 1"
       id="perspective5056" />
    <inkscape:perspective
       id="perspective5056-8"
       inkscape:persp3d-origin="372.04724 : 350.78739 : 1"
       inkscape:vp_z="744.09448 : 526.18109 : 1"
       inkscape:vp_y="0 : 1000 : 0"
       inkscape:vp_x="363.49708 : 943.81603 : 1"
       sodipodi:type="inkscape:persp3d" />
    <inkscape:perspective
       id="perspective5056-5"
       inkscape:persp3d-origin="372.04724 : 350.78739 : 1"
       inkscape:vp_z="744.09448 : 526.18109 : 1"
       inkscape:vp_y="0 : 1000 : 0"
       inkscape:vp_x="363.49708 : 943.81603 : 1"
       sodipodi:type="inkscape:persp3d" />
    <inkscape:perspective
       sodipodi:type="inkscape:persp3d"
       inkscape:vp_x="363.49708 : 943.81603 : 1"
       inkscape:vp_y="0 : 1000 : 0"
       inkscape:vp_z="744.09448 : 526.18109 : 1"
       inkscape:persp3d-origin="372.04724 : 350.78739 : 1"
       id="perspective5056-5-2" />
    <inkscape:perspective
       sodipodi:type="inkscape:persp3d"
       inkscape:vp_x="363.49708 : 943.81603 : 1"
       inkscape:vp_y="0 : 1000 : 0"
       inkscape:vp_z="744.09448 : 526.18109 : 1"
       inkscape:persp3d-origin="372.04724 : 350.78739 : 1"
       id="perspective5056-8-5" />
    <inkscape:perspective
       id="perspective5056-1"
       inkscape:persp3d-origin="372.04724 : 350.78739 : 1"
       inkscape:vp_z="744.09448 : 526.18109 : 1"
       inkscape:vp_y="0 : 1000 : 0"
       inkscape:vp_x="363.49708 : 943.81603 : 1"
       sodipodi:type="inkscape:persp3d" />
    <inkscape:perspective
       sodipodi:type="inkscape:persp3d"
       inkscape:vp_x="363.49708 : 943.81603 : 1"
       inkscape:vp_y="0 : 1000 : 0"
       inkscape:vp_z="744.09448 : 526.18109 : 1"
       inkscape:persp3d-origin="372.04724 : 350.78739 : 1"
       id="perspective5056-5-5" />
    <inkscape:perspective
       id="perspective5056-4"
       inkscape:persp3d-origin="372.04724 : 350.78739 : 1"
       inkscape:vp_z="744.09448 : 526.18109 : 1"
       inkscape:vp_y="0 : 1000 : 0"
       inkscape:vp_x="363.49708 : 943.81603 : 1"
       sodipodi:type="inkscape:persp3d" />
    <inkscape:perspective
       sodipodi:type="inkscape:persp3d"
       inkscape:vp_x="363.49708 : 943.81603 : 1"
       inkscape:vp_y="0 : 1000 : 0"
       inkscape:vp_z="744.09448 : 526.18109 : 1"
       inkscape:persp3d-origin="372.04724 : 350.78739 : 1"
       id="perspective5056-1-2" />
    <inkscape:perspective
       id="perspective5056-8-5-8"
       inkscape:persp3d-origin="372.04724 : 350.78739 : 1"
       inkscape:vp_z="744.09448 : 526.18109 : 1"
       inkscape:vp_y="0 : 1000 : 0"
       inkscape:vp_x="363.49708 : 943.81603 : 1"
       sodipodi:type="inkscape:persp3d" />
    <inkscape:perspective
       id="perspective5056-5-2-8"
       inkscape:persp3d-origin="372.04724 : 350.78739 : 1"
       inkscape:vp_z="744.09448 : 526.18109 : 1"
       inkscape:vp_y="0 : 1000 : 0"
       inkscape:vp_x="363.49708 : 943.81603 : 1"
       sodipodi:type="inkscape:persp3d" />
    <inkscape:perspective
       sodipodi:type="inkscape:persp3d"
       inkscape:vp_x="363.49708 : 943.81603 : 1"
       inkscape:vp_y="0 : 1000 : 0"
       inkscape:vp_z="744.09448 : 526.18109 : 1"
       inkscape:persp3d-origin="372.04724 : 350.78739 : 1"
       id="perspective5056-5-4" />
    <inkscape:perspective
       sodipodi:type="inkscape:persp3d"
       inkscape:vp_x="363.49708 : 943.81603 : 1"
       inkscape:vp_y="0 : 1000 : 0"
       inkscape:vp_z="744.09448 : 526.18109 : 1"
       inkscape:persp3d-origin="372.04724 : 350.78739 : 1"
       id="perspective5056-8-9" />
    <inkscape:perspective
       id="perspective5056-40"
       inkscape:persp3d-origin="372.04724 : 350.78739 : 1"
       inkscape:vp_z="744.09448 : 526.18109 : 1"
       inkscape:vp_y="0 : 1000 : 0"
       inkscape:vp_x="363.49708 : 943.81603 : 1"
       sodipodi:type="inkscape:persp3d" />
    <inkscape:perspective
       sodipodi:type="inkscape:persp3d"
       inkscape:vp_x="363.49708 : 943.81603 : 1"
       inkscape:vp_y="0 : 1000 : 0"
       inkscape:vp_z="744.09448 : 526.18109 : 1"
       inkscape:persp3d-origin="372.04724 : 350.78739 : 1"
       id="perspective5056-1-5" />
    <inkscape:perspective
       id="perspective5056-8-5-4"
       inkscape:persp3d-origin="372.04724 : 350.78739 : 1"
       inkscape:vp_z="744.09448 : 526.18109 : 1"
       inkscape:vp_y="0 : 1000 : 0"
       inkscape:vp_x="363.49708 : 943.81603 : 1"
       sodipodi:type="inkscape:persp3d" />
    <inkscape:perspective
       id="perspective5056-5-2-82"
       inkscape:persp3d-origin="372.04724 : 350.78739 : 1"
       inkscape:vp_z="744.09448 : 526.18109 : 1"
       inkscape:vp_y="0 : 1000 : 0"
       inkscape:vp_x="363.49708 : 943.81603 : 1"
       sodipodi:type="inkscape:persp3d" />
    <inkscape:perspective
       sodipodi:type="inkscape:persp3d"
       inkscape:vp_x="363.49708 : 943.81603 : 1"
       inkscape:vp_y="0 : 1000 : 0"
       inkscape:vp_z="744.09448 : 526.18109 : 1"
       inkscape:persp3d-origin="372.04724 : 350.78739 : 1"
       id="perspective5056-5-8" />
    <inkscape:perspective
       sodipodi:type="inkscape:persp3d"
       inkscape:vp_x="363.49708 : 943.81603 : 1"
       inkscape:vp_y="0 : 1000 : 0"
       inkscape:vp_z="744.09448 : 526.18109 : 1"
       inkscape:persp3d-origin="372.04724 : 350.78739 : 1"
       id="perspective5056-8-4" />
    <inkscape:perspective
       id="perspective5056-409"
       inkscape:persp3d-origin="372.04724 : 350.78739 : 1"
       inkscape:vp_z="744.09448 : 526.18109 : 1"
       inkscape:vp_y="0 : 1000 : 0"
       inkscape:vp_x="363.49708 : 943.81603 : 1"
       sodipodi:type="inkscape:persp3d" />
    <inkscape:perspective
       sodipodi:type="inkscape:persp3d"
       inkscape:vp_x="363.49708 : 943.81603 : 1"
       inkscape:vp_y="0 : 1000 : 0"
       inkscape:vp_z="744.09448 : 526.18109 : 1"
       inkscape:persp3d-origin="372.04724 : 350.78739 : 1"
       id="perspective5056-1-7" />
    <inkscape:perspective
       id="perspective5056-8-5-2"
       inkscape:persp3d-origin="372.04724 : 350.78739 : 1"
       inkscape:vp_z="744.09448 : 526.18109 : 1"
       inkscape:vp_y="0 : 1000 : 0"
       inkscape:vp_x="363.49708 : 943.81603 : 1"
       sodipodi:type="inkscape:persp3d" />
    <inkscape:perspective
       id="perspective5056-5-2-89"
       inkscape:persp3d-origin="372.04724 : 350.78739 : 1"
       inkscape:vp_z="744.09448 : 526.18109 : 1"
       inkscape:vp_y="0 : 1000 : 0"
       inkscape:vp_x="363.49708 : 943.81603 : 1"
       sodipodi:type="inkscape:persp3d" />
    <inkscape:perspective
       sodipodi:type="inkscape:persp3d"
       inkscape:vp_x="363.49708 : 943.81603 : 1"
       inkscape:vp_y="0 : 1000 : 0"
       inkscape:vp_z="744.09448 : 526.18109 : 1"
       inkscape:persp3d-origin="372.04724 : 350.78739 : 1"
       id="perspective5056-5-1" />
    <inkscape:perspective
       sodipodi:type="inkscape:persp3d"
       inkscape:vp_x="363.49708 : 943.81603 : 1"
       inkscape:vp_y="0 : 1000 : 0"
       inkscape:vp_z="744.09448 : 526.18109 : 1"
       inkscape:persp3d-origin="372.04724 : 350.78739 : 1"
       id="perspective5056-8-6" />
    <inkscape:perspective
       id="perspective5056-7"
       inkscape:persp3d-origin="372.04724 : 350.78739 : 1"
       inkscape:vp_z="744.09448 : 526.18109 : 1"
       inkscape:vp_y="0 : 1000 : 0"
       inkscape:vp_x="363.49708 : 943.81603 : 1"
       sodipodi:type="inkscape:persp3d" />
    <inkscape:perspective
       sodipodi:type="inkscape:persp3d"
       inkscape:vp_x="363.49708 : 943.81603 : 1"
       inkscape:vp_y="0 : 1000 : 0"
       inkscape:vp_z="744.09448 : 526.18109 : 1"
       inkscape:persp3d-origin="372.04724 : 350.78739 : 1"
       id="perspective5056-1-1" />
    <inkscape:perspective
       id="perspective5056-8-5-82"
       inkscape:persp3d-origin="372.04724 : 350.78739 : 1"
       inkscape:vp_z="744.09448 : 526.18109 : 1"
       inkscape:vp_y="0 : 1000 : 0"
       inkscape:vp_x="363.49708 : 943.81603 : 1"
       sodipodi:type="inkscape:persp3d" />
    <inkscape:perspective
       id="perspective5056-5-2-1"
       inkscape:persp3d-origin="372.04724 : 350.78739 : 1"
       inkscape:vp_z="744.09448 : 526.18109 : 1"
       inkscape:vp_y="0 : 1000 : 0"
       inkscape:vp_x="363.49708 : 943.81603 : 1"
       sodipodi:type="inkscape:persp3d" />
    <inkscape:perspective
       sodipodi:type="inkscape:persp3d"
       inkscape:vp_x="363.49708 : 943.81603 : 1"
       inkscape:vp_y="0 : 1000 : 0"
       inkscape:vp_z="744.09448 : 526.18109 : 1"
       inkscape:persp3d-origin="372.04724 : 350.78739 : 1"
       id="perspective5056-5-46" />
    <inkscape:perspective
       sodipodi:type="inkscape:persp3d"
       inkscape:vp_x="363.49708 : 943.81603 : 1"
       inkscape:vp_y="0 : 1000 : 0"
       inkscape:vp_z="744.09448 : 526.18109 : 1"
       inkscape:persp3d-origin="372.04724 : 350.78739 : 1"
       id="perspective5056-8-92" />
    <inkscape:perspective
       id="perspective5056-3"
       inkscape:persp3d-origin="372.04724 : 350.78739 : 1"
       inkscape:vp_z="744.09448 : 526.18109 : 1"
       inkscape:vp_y="0 : 1000 : 0"
       inkscape:vp_x="363.49708 : 943.81603 : 1"
       sodipodi:type="inkscape:persp3d" />
  </defs>
  <sodipodi:namedview
     id="base"
     pagecolor="#ffffff"
     bordercolor="#666666"
     borderopacity="1.0"
     inkscape:pageopacity="0.0"
     inkscape:pageshadow="2"
     inkscape:zoom="0.92461917"
     inkscape:cx="286.50719"
     inkscape:cy="172.00744"
     inkscape:document-units="px"
     inkscape:current-layer="layer1"
     showgrid="false"
     inkscape:window-width="1205"
     inkscape:window-height="696"
     inkscape:window-x="42"
     inkscape:window-y="-2"
     inkscape:window-maximized="0"
     showguides="true"
     inkscape:guide-bbox="true"
     inkscape:snap-grids="false"
     inkscape:snap-to-guides="false"
     showborder="true"
     inkscape:showpageshadow="false"
     fit-margin-top="0"
     fit-margin-left="0"
     fit-margin-right="0"
     fit-margin-bottom="0"
     inkscape:snap-page="false" />
  <metadata
     id="metadata7">
    <rdf:RDF>
      <cc:Work
         rdf:about="">
        <dc:format>image/svg+xml</dc:format>
        <dc:type
           rdf:resource="http://purl.org/dc/dcmitype/StillImage" />
        <dc:title></dc:title>
      </cc:Work>
    </rdf:RDF>
  </metadata>
  <g
     inkscape:groupmode="layer"
     id="layer2"
     inkscape:label="補助線"
     style="display:none"
     sodipodi:insensitive="true">
    <path
       style="fill:none;stroke:#0000ff;stroke-width:1px;stroke-linecap:butt;stroke-linejoin:miter;stroke-opacity:1"
       d="M 10,310 360,10"
       id="path3025"
       inkscape:connector-curvature="0"
       sodipodi:nodetypes="cc" />
    <path
       style="fill:none;stroke:#0000ff;stroke-width:1px;stroke-linecap:butt;stroke-linejoin:miter;stroke-opacity:1"
       d="M 10,10 360,310"
       id="path3027"
       inkscape:connector-curvature="0"
       sodipodi:nodetypes="cc" />
    <path
       style="fill:none;stroke:#ff0000;stroke-width:1px;stroke-linecap:butt;stroke-linejoin:miter;stroke-opacity:1;display:inline"
       d="m 10,0 0,320"
       id="path3006"
       inkscape:connector-curvature="0"
       sodipodi:nodetypes="cc" />
    <path
       style="fill:none;stroke:#ff0000;stroke-width:1px;stroke-linecap:butt;stroke-linejoin:miter;stroke-opacity:1;display:inline"
       d="m 360,0 0,320"
       id="path3010"
       inkscape:connector-curvature="0"
       sodipodi:nodetypes="cc" />
    <path
       style="fill:none;stroke:#ff0000;stroke-width:1px;stroke-linecap:butt;stroke-linejoin:miter;stroke-opacity:1;display:inline"
       d="M 0,9.9999681 370,10"
       id="path3016"
       inkscape:connector-curvature="0" />
    <path
       transform="translate(84.715796,27.711696)"
       style="fill:none;stroke:#ff0000;stroke-width:1px;stroke-linecap:butt;stroke-linejoin:miter;stroke-opacity:1;display:inline"
       d="m -84.715796,282.2883 369.999996,0"
       id="path3018"
       inkscape:connector-curvature="0"
       sodipodi:nodetypes="cc" />
  </g>
  <g
     inkscape:groupmode="layer"
     id="layer1"
     inkscape:label="豚">
    <path
       style="fill:#e9c6af;stroke:none;display:inline"
       d="m 163.64408,193.91631 c -0.6177,-6.38201 -0.27066,-11.34558 -1.97716,-16.89349 -9.2936,-5.1191 -14.37187,-5.73846 -17.28897,-8.95894 -4.2578,-4.7007 -9.39229,-21.21308 -13.26939,-29.6891 -4.2099,-9.20365 -6.8971,-16.03399 -8.3561,-24.74002 -0.7366,-4.39517 0.16091,-13.2468 0.075,-18.970651 -0.058,-3.89698 -2.79695,-15.05027 -2.94532,-17.9482 -0.12954,-2.53021 0.80773,-6.80281 1.37432,-9.85254 0.98224,-5.28705 1.591,-10.71698 3.9629,-19.16964 4.0384,-14.39135 16.1897,-22.62844 30.0558,-29.70922 12.3146,-6.28855 32.79389,-5.66219 51.09049,-0.93741 14.1713,3.65947 23.1204,11.75983 30.0345,20.96717 10.9853,14.62912 11.869,14.94396 15.0089,29.62164 3.4249,16.01028 -2.7974,41.429691 -6.5818,47.845791 -2.5712,4.35919 -7.3533,19.16131 -8.4762,25.47149 -1.0775,6.05498 1.9064,27.16913 3.7925,36.60633"
       id="path3416-4"
       inkscape:connector-curvature="0"
       sodipodi:nodetypes="ccsssssssssssssc" />
    <path
       style="fill:#deaa87;stroke:none;display:inline"
       d="m 166.93195,116.68061 c -2.0097,1.54519 -1.60504,2.97066 -3.79939,2.14548 -3.72765,-1.40177 -4.9613,-3.93872 -8.3997,-5.2754 -2.1857,-0.84969 -6.2212,-1.11977 -7.5532,-1.47489 -2.2308,-0.59475 -3.2643,-1.86362 -5.34,-2.65624 -2.3171,-0.8848 -4.9255,0.57075 -4.707,2.93488 0.1333,1.44203 0.2004,3.80332 0.9167,4.90019 l 7.505,11.49224 c 0.4196,-2.60511 0.6657,-3.50439 0.7375,-5.3708 0.064,-1.67125 2.4784,-2.6805 3.4611,-1.92259 0.7666,0.59119 2.4013,3.61665 4.102,7.04434 l 8.4169,-0.65713 c 5.0151,-0.39154 5.64905,-5.60537 4.66009,-11.16008 z"
       id="path3561-1"
       inkscape:connector-curvature="0"
       sodipodi:nodetypes="csssssscsscsc" />
    <path
       style="fill:#deaa87;stroke:none;display:inline"
       d="m 144.39296,86.601039 c 0.4587,-2.39207 -0.6946,-7.51713 -3.0061,-10.01798 -1.4225,-1.53908 -5.9796,-1.36289 -7.7247,-0.52329 1.0343,2.16284 6.1062,7.48727 2.856,8.35387 l -10.9773,8.24865 c -1.4751,-0.45146 0.8522,1.62606 -0.5705,1.80911 1.4761,1.3934 5.2034,3.92065 7.5701,3.08164 3.8606,-1.36859 5.5109,-3.8995 7.8937,-6.08858 0.6029,2.73761 -1.7967,6.83957 -2.3735,10.276711 1.3816,-2.238111 5.882,-12.792261 6.3323,-15.140131 z"
       id="path5573-3"
       inkscape:connector-curvature="0"
       sodipodi:nodetypes="ssccccsccs" />
    <path
       style="fill:#fefefe;fill-opacity:1;stroke:none;display:inline"
       d="m 136.98996,84.340219 4.8238,3.52765 -5.0819,3.61166 -6.8653,2.21957 -4.7872,-0.68859 0.089,-5.86997 z"
       id="path3337-0-4-0-1-8-5"
       inkscape:connector-curvature="0"
       sodipodi:nodetypes="ccccccc" />
    <path
       style="fill:#deaa87;stroke:none;display:inline"
       d="m 153.28479,168.81858 c -2.67122,0.21367 -5.87218,0.95292 -8.98842,-1.60957 1.85666,1.97456 10.35939,5.98247 17.14009,9.44915 1.7547,-0.15967 13.0151,0.27902 18.499,-0.73931 12.27899,-2.28009 32.86889,-19.44497 41.59019,-22.9864 1.0566,11.31008 1.831,23.82896 1.4418,28.09826 l 17.2528,-3.59618 c -1.2104,-7.41624 -5.3439,-28.09458 -3.6998,-36.56064 1.698,-8.74205 4.5376,-14.08183 8.3787,-25.50505 4.2509,-12.64194 8.9683,-32.579131 6.7005,-47.806191 -2.3859,-16.02027 -10.7133,-22.31865 -15.2048,-29.74241 -4.4181,-7.30265 -19.8794,-18.37253 -30.6638,-21.11145 -8.3103,-2.11058 -15.1114,-2.37241 -20.8243,-2.68554 8.6497,2.49567 17.1076,5.11248 16.7749,18.05016 -0.6994,27.20057 -13.6437,27.63127 -18.0811,30.7908 1.4012,3.75447 2.5159,12.7664 -5.18859,12.83917 l -10.4383,0.0986 c -2.0762,0.0196 -5.0382,-0.39772 -3.4401,-5.37098 l -7.7483,2.63868 c -2.02356,1.43597 -2.4063,6.60146 0.3336,12.20521 2.4994,5.1119 7.0909,9.07162 9.3182,8.82352 4.2877,-0.47752 18.14469,-8.13206 20.46339,-8.33106 3.4864,-0.29926 7.5268,6.68052 8.3433,11.0264 0.7158,3.809771 -10.1719,22.996901 -15.6507,38.447681 -3.1742,8.95166 -6.02555,18.96691 -10.33928,25.5635 -3.26748,4.99665 -12.38811,7.72722 -15.96898,8.01365 z"
       id="path3438-5-86-7-3"
       inkscape:connector-curvature="0"
       sodipodi:nodetypes="sccscccssssscscssccsssssss" />
    <path
       style="fill:#fefefe;fill-opacity:1;stroke:none;display:inline"
       d="m 162.45566,78.712199 10.5644,-4.08595 11.05526,2.292669 -8.41887,6.793641 -9.89739,0.77766 -5.7647,-0.86524 z"
       id="path3353-4-1-2-2-4-5"
       inkscape:connector-curvature="0"
       sodipodi:nodetypes="ccccccc" />
    <path
       style="fill:#2b0000;stroke:none;display:inline"
       d="m 130.02456,91.794899 c 3.6189,-0.47163 4.2107,-5.1838 3.9423,-7.57327 l -7.9847,2.15947 c -0.1621,1.95125 1.1986,5.78445 4.0424,5.4138 z"
       id="path3357-1-2-4-7-59"
       inkscape:connector-curvature="0"
       sodipodi:nodetypes="sccs" />
    <path
       style="fill:#2b0000;stroke:none;display:inline"
       d="m 162.88976,78.410799 c 0.4549,2.33221 2.9857,4.96863 6.0917,4.39024 3.4869,-0.64935 4.0619,-5.58665 3.8532,-7.98209 z"
       id="path3357-0-8-6-9"
       inkscape:connector-curvature="0"
       sodipodi:nodetypes="cscc" />
    <path
       style="fill:#000000;stroke:none;display:inline"
       d="m 147.72126,124.54403 c 3.7243,-0.41304 6.2898,-3.37114 7.6419,-3.09207 5.7066,1.17831 18.15321,4.43758 19.78191,6.75383 1.6452,2.33995 0.85542,8.59825 -0.84958,8.4452 -7.5768,-0.68027 -17.14563,-2.44816 -25.24883,-1.10603 -7.4908,1.24072 -9.97992,5.44598 -13.47522,5.48308 -0.7737,0.008 -3.17619,-4.36552 -2.48039,-6.02484 1.009,-2.40631 7.68941,-8.95098 8.52291,-9.82862 1.3064,-1.37556 3.3576,-0.32556 6.1073,-0.63055 z"
       id="path6633-4-0-6-8"
       inkscape:connector-curvature="0"
       sodipodi:nodetypes="sssssssss" />
    <path
       style="fill:none;stroke:#000000;stroke-width:1.5;stroke-linecap:butt;stroke-linejoin:miter;stroke-opacity:1;display:inline"
       d="m 230.51825,131.18593 c -1.1567,3.95481 -2.05596,9.85141 -4.52256,14.54261 -2.63892,5.01894 -26.97375,12.05596 -44.52101,16.80916"
       id="path6635-6-9-1-18"
       inkscape:connector-curvature="0"
       sodipodi:nodetypes="csc" />
    <path
       style="fill:none;stroke:#000000;stroke-width:1.5;stroke-linecap:butt;stroke-linejoin:miter;stroke-opacity:1;display:inline"
       d="m 151.61376,69.474329 c -0.6928,2.81877 0.9934,5.02055 1.724,6.63464"
       id="path6643-0-0-5-26"
       inkscape:connector-curvature="0"
       sodipodi:nodetypes="cc" />
    <path
       style="fill:#000000;stroke:none;display:inline"
       d="m 155.91036,75.190239 c 5.8758,0.54421 10.2569,-5.6346 17.5208,-8.59441 5.9977,-2.4439 20.94537,-3.226879 18.69859,-3.7099 -7.66238,-1.647285 -14.97118,0.0014 -20.70349,1.153558 -2.33983,0.470299 -5.9921,2.444382 -8.2798,3.446982 -4.1849,1.83399 -11.7332,7.28726 -7.2361,7.70377 z"
       id="path6645-7-0-4-6"
       inkscape:connector-curvature="0"
       sodipodi:nodetypes="ssssss" />
    <path
       style="fill:#000000;stroke:none;display:inline"
       d="m 119.55666,78.019569 c -0.9669,-1.06856 5.45842,-1.369853 10.21306,-1.870435 3.95609,-0.416508 12.90162,1.070365 11.45782,2.03461 -3.705,2.474406 -5.94711,1.659081 -10.28931,0.767251 -4.7677,-0.97922 -10.15627,0.422784 -11.38157,-0.931426 z"
       id="path6647-1-6-2-03"
       inkscape:connector-curvature="0"
       sodipodi:nodetypes="sssss" />
    <path
       style="fill:none;stroke:#000000;stroke-width:1.5;stroke-linecap:butt;stroke-linejoin:miter;stroke-opacity:1;display:inline"
       d="m 166.98835,113.48695 c 0.4833,2.31954 -1.0255,5.21268 -3.7081,5.72269"
       id="path6649-7-1-0-8"
       inkscape:connector-curvature="0"
       sodipodi:nodetypes="cc" />
    <path
       style="fill:none;stroke:#916f6f;stroke-width:1.5;stroke-linecap:butt;stroke-linejoin:miter;stroke-opacity:1;display:inline"
       d="m 160.28676,83.691409 c 2.7921,-0.004 3.9232,1.01621 6.4918,0.67214 2.7017,-0.36192 7.82644,-0.25084 9.85524,-1.37115 2.0723,-1.14436 5.95777,-4.749715 7.51153,-5.829046"
       id="path3339-7-3-9-0"
       inkscape:connector-curvature="0"
       sodipodi:nodetypes="cssc" />
    <path
       style="fill:none;stroke:#000000;stroke-width:1.5;stroke-linecap:butt;stroke-linejoin:miter;stroke-opacity:1;display:inline"
       d="m 159.19986,84.552469 c 2.284,-2.27813 1.8988,-5.27582 4.0007,-6.47774 2.4671,-1.41082 7.00653,-3.546107 10.28294,-3.481052 3.48786,0.06925 8.40752,1.307156 12.70879,3.077192"
       id="path3337-7-8-7-1"
       inkscape:connector-curvature="0"
       sodipodi:nodetypes="cssc" />
    <path
       style="fill:none;stroke:#916f6f;stroke-width:1.5;stroke-linecap:butt;stroke-linejoin:miter;stroke-opacity:1;display:inline"
       d="m 125.29276,92.818159 c 1.3576,0.23003 2.3165,0.82273 4.5018,0.78529 2.2442,-0.0383 5.827,-1.45061 7.72,-2.92147 1.4717,-1.14343 3.7908,-2.54479 4.5277,-2.70236"
       id="path3355-7-9-3-2"
       inkscape:connector-curvature="0"
       sodipodi:nodetypes="cssc" />
    <path
       style="fill:none;stroke:#000000;stroke-width:1.5;stroke-linecap:butt;stroke-linejoin:miter;stroke-opacity:1;display:inline"
       d="m 124.48356,94.507839 c 1.1675,-0.88679 -0.8088,-6.34058 1.0794,-7.738 1.4413,-1.06667 4.8459,-3.03193 9.9074,-2.5368 2.1163,0.20704 6.2535,4.00656 7.4056,4.30335"
       id="path3353-3-3-7-5"
       inkscape:connector-curvature="0"
       sodipodi:nodetypes="cssc" />
    <path
       style="fill:#deaa87;stroke:none;display:inline"
       d="m 162.69636,140.60157 c -0.2701,-1.96259 -5.4501,-1.04141 -9.6292,-0.20827 -4.3448,0.86616 -7.7358,2.54884 -6.933,3.85997 1.5847,2.58805 4.8027,3.88079 9.8712,2.92006 4.2238,-0.80062 7.0948,-3.63804 6.691,-6.57176 z"
       id="path6710-3-4-7-4"
       inkscape:connector-curvature="0"
       sodipodi:nodetypes="sssss"
       inkscape:transform-center-y="-4.0289092" />
    <path
       style="fill:none;stroke:#000000;stroke-width:1.5;stroke-linecap:butt;stroke-linejoin:miter;stroke-opacity:1;display:inline"
       d="m 141.35196,77.528179 c 1.4517,3.55301 2.7857,6.67839 2.9341,9.84719 0.1648,3.51906 -6.3083,14.499641 -8.473,22.953301 -0.6969,2.7218 3.2803,9.0122 6.3324,13.38807"
       id="path6411-8"
       inkscape:connector-curvature="0"
       sodipodi:nodetypes="cssc" />
    <path
       style="fill:none;stroke:#000000;stroke-width:1.5;stroke-linecap:butt;stroke-linejoin:miter;stroke-opacity:1;display:inline"
       d="m 163.29321,193.89646 c 0.52943,-5.2349 0.0981,-11.59956 -1.60838,-17.14748 -9.2936,-5.1191 -14.26268,-5.65224 -17.17978,-8.87272 -4.2579,-4.7007 -9.39229,-21.0453 -13.26939,-29.52132 -4.2099,-9.20368 -6.8971,-16.03398 -8.3561,-24.74004 -0.7367,-4.39517 0.1608,-13.08288 0.075,-18.806721 -0.058,-3.89701 -1.73139,-13.70987 -2.61749,-16.47298 -0.7852,-2.44824 -0.25781,-5.98324 1.04649,-11.49168 1.239,-5.23284 1.591,-10.71698 3.9629,-19.16963 4.0384,-14.39135 16.0298,-22.95055 30.0557,-29.70922 14.7012,-7.08406 32.79399,-5.66221 51.09059,-0.93743 14.1713,3.65948 23.1204,11.75985 30.0344,20.96719 10.9854,14.62911 11.869,14.94394 15.009,29.62162 3.4249,16.01027 -2.7974,41.429711 -6.5818,47.845801 -2.5712,4.35917 -7.3534,19.16129 -8.4762,25.47148 -1.0775,6.05496 1.9064,27.16913 3.7925,36.60633"
       id="path3416"
       inkscape:connector-curvature="0"
       sodipodi:nodetypes="ccsssssssssssssc" />
    <path
       style="fill:none;stroke:#000000;stroke-width:1.5;stroke-linecap:butt;stroke-linejoin:miter;stroke-opacity:1;display:inline"
       d="m 143.76806,121.59992 c -1.0236,-1.42813 -1.3375,-3.58988 -2.3273,-5.30701"
       id="path4341"
       inkscape:connector-curvature="0"
       sodipodi:nodetypes="cc" />
    <path
       style="fill:none;stroke:#000000;stroke-width:1.5;stroke-linecap:butt;stroke-linejoin:miter;stroke-opacity:1;display:inline"
       d="m 157.59635,118.29494 c -3.6761,-1.88172 -7.39659,-3.06052 -9.18259,-3.31578"
       id="path4341-2"
       inkscape:connector-curvature="0"
       sodipodi:nodetypes="cc" />
    <path
       style="fill:#deaa87;stroke:#000000;stroke-width:1.5;stroke-linecap:butt;stroke-linejoin:miter;stroke-opacity:1;display:inline"
       d="m 232.54327,128.04793 c 2.47606,-2.87837 11.64352,5.53237 15.06558,-5.98938 1.53706,-5.17531 4.84471,-7.6274 5.9798,-18.14128 0.59144,-5.478361 -0.80181,-10.095131 -3.90734,-13.189621 -3.41671,-3.40457 -8.51266,-3.96719 -12.10204,-1.8275"
       id="path6637-1-1-2-0"
       inkscape:connector-curvature="0"
       sodipodi:nodetypes="csssc" />
    <path
       style="opacity:0.95;fill:none;stroke:#000000;stroke-width:1.5;stroke-linecap:butt;stroke-linejoin:miter;stroke-opacity:1;display:inline"
       d="m 246.22917,115.72632 c -2.38375,-1.88791 -3.91161,-6.98077 -4.66216,-10.70943 -0.41929,-2.08297 0.75281,-5.128641 0.566,-7.621151 -0.17532,-2.33916 1.28602,-5.25972 4.72277,-3.79507 2.17366,0.92637 4.74481,5.17684 4.42262,8.796031 -0.53774,6.04117 -2.69016,15.36957 -7.71098,14.70252 -2.81424,-0.37391 -5.70153,3.18666 -6.65505,1.05757 -0.93459,-2.08703 2.20555,-4.63543 2.63905,-6.26937 0.26109,-0.98441 -0.4507,-4.79672 -1.34269,-5.76381"
       id="path6639-8-8-6-9"
       inkscape:connector-curvature="0"
       sodipodi:nodetypes="csssssssc" />
    <path
       style="fill:#dbdee3;stroke:none;display:inline"
       d="m 146.63872,196.08417 93.6991,-13.64579 -121.0494,193.98654 z"
       id="path4684-5-5"
       inkscape:connector-curvature="0"
       sodipodi:nodetypes="cccc" />
    <path
       style="fill:#550000;stroke:#000000;stroke-width:1.5;stroke-linecap:butt;stroke-linejoin:miter;stroke-opacity:1;display:inline"
       d="m 153.87492,218.25381 -47.14083,115.69428 c 1.09887,8.97339 10.94156,18.34203 19.29355,27.36411 12.13942,-10.38829 25.58061,-37.02726 25.58061,-37.02726 l 12.08311,-104.6741 z"
       id="path6770-0-4"
       inkscape:connector-curvature="0"
       sodipodi:nodetypes="cccccc" />
    <path
       style="fill:#550000;stroke:#000000;stroke-width:1.5;stroke-linecap:butt;stroke-linejoin:miter;stroke-opacity:1;display:inline"
       d="m 154.69883,193.91116 c 3.5586,-1.2204 9.38585,-2.89627 18.08885,-0.88243 l 3.88457,8.14451 c -4.87906,6.62649 -9.3013,14.85032 -12.74909,19.87069 -6.78974,-2.14342 -9.80941,-2.30546 -11.47852,0.0322 -0.60168,-5.77231 -1.93994,-12.80043 -1.01079,-18.32881 z"
       id="path6768-9-1"
       inkscape:connector-curvature="0"
       sodipodi:nodetypes="ccccccc" />
    <path
       style="fill:#dbdbe3;stroke:#000000;stroke-width:1.5;stroke-linecap:butt;stroke-linejoin:miter;stroke-opacity:1;display:inline"
       d="m 161.48805,190.70669 c -7.93812,1.59355 -13.30238,20.81043 -18.04881,33.0975 1.80811,-15.95902 10.16501,-31.85277 19.59319,-40.79439 -1.48509,3.57698 -1.26227,6.09908 -1.54438,7.69689 z"
       id="path6762-7-2"
       inkscape:connector-curvature="0"
       sodipodi:nodetypes="cccc" />
    <path
       style="fill:#1c1f24;stroke:#000000;stroke-width:1.5;stroke-linecap:butt;stroke-linejoin:miter;stroke-opacity:1;display:inline"
       d="m 137.82814,221.78265 -4.56378,-5.22578 c 7.7214,-11.11283 16.7388,-23.79089 19.38195,-25.8923 2.13483,-1.69728 5.59685,-3.93237 7.69783,-4.81251 -6.41816,6.10353 -11.72364,11.79874 -16.26845,31.58095 -8.01052,34.86744 -14.0003,98.45832 -6.93115,161.97951 0.86029,7.73033 -6.7515,33.64639 -3.93618,70.01573 0.3909,5.04954 -6.08577,10.37227 -14.34404,14.64096 -6.30145,3.25723 -31.561974,8.47922 -38.263264,23.09792 -0.0607,-48.68125 24.739984,-140.53834 22.236244,-156.81183 -3.118663,-20.27009 -4.243303,-46.11544 -3.052613,-62.80059 1.563153,-21.90439 5.352313,-46.96439 13.503133,-51.51935 6.58239,-7.69916 23.86455,-17.52046 39.52154,-25.21885"
       id="path6764-3-0"
       inkscape:connector-curvature="0"
       sodipodi:nodetypes="ccscsssscsscc" />
    <path
       style="fill:none;stroke:#000000;stroke-width:1.5;stroke-linecap:butt;stroke-linejoin:miter;stroke-opacity:1;display:inline"
       d="m 145.42414,214.45966 -13.84619,11.61429 c -0.34714,15.17056 -4.8548,97.26216 4.16287,133.61199"
       id="path6766-7-0"
       inkscape:connector-curvature="0"
       sodipodi:nodetypes="ccc" />
    <path
       style="fill:#dbdbe3;stroke:#000000;stroke-width:1.5;stroke-linecap:butt;stroke-linejoin:miter;stroke-opacity:1;display:inline"
       d="m 242.69126,173.54051 c -0.1271,-4.40959 -5.44764,-13.09161 -5.70413,-16.41217 -8.81902,0.95049 -47.40077,21.27459 -74.19043,34.09186 12.65594,-4.7805 12.15783,21.92391 22.04006,35.6392 30.39616,-31.69502 44.80731,-29.71797 57.8545,-53.31889 z"
       id="path6657-6-4"
       inkscape:connector-curvature="0"
       sodipodi:nodetypes="ccccc" />
    <path
       style="fill:#1c1f24;stroke:#000000;stroke-width:1.5;stroke-linecap:butt;stroke-linejoin:miter;stroke-opacity:1;display:inline"
       d="m 246.9342,171.84489 c 13.35637,3.06222 69.74218,17.70054 73.35998,26.53139 13.13775,32.06861 -16.84499,118.56715 -16.17863,137.48103 0.69654,19.7713 2.77494,117.35176 5.30256,154.30225 -32.3264,-12.30692 -118.46435,-27.90482 -170.46657,-23.09651 -12.85712,-0.71786 -22.03015,-4.38702 -22.60256,-16.36101 -1.91675,-40.09541 2.04966,-129.84727 2.96324,-134.12548 1.35027,-6.32317 43.48932,-76.05737 60.12392,-102.65679 24.65798,-39.4292 51.67165,-49.34511 59.40025,-53.95415 1.93296,3.10231 5.81597,9.85054 8.79142,12.21792 -4.985,-0.27871 -12.44578,3.01025 -29.47375,34.63719 -5.38037,1.33598 -11.63662,2.29368 -16.69666,4.17927"
       id="path6659-6-6"
       inkscape:connector-curvature="0"
       sodipodi:nodetypes="cssccssscccc" />
    <path
       style="fill:none;stroke:#000000;stroke-width:1.5;stroke-linecap:butt;stroke-linejoin:miter;stroke-opacity:1;display:inline"
       d="m 187.72396,201.44203 23.17263,16.33979 c -25.11072,13.77363 -58.98636,56.47822 -87.5055,98.1961"
       id="path6655-8-1"
       inkscape:connector-curvature="0"
       sodipodi:nodetypes="ccc" />
  </g>
  <g
     inkscape:groupmode="layer"
     id="layer7"
     inkscape:label="枠面"
     style="display:inline"
     sodipodi:insensitive="true">
    <path
       style="fill:#ffffff;stroke:none;display:inline"
       d="m 0,0 0,320 370,0 0,-320 -10,10 0,300 -350,0 0,-300 350,0 10,-10 z"
       id="path21072"
       inkscape:connector-curvature="0"
       sodipodi:nodetypes="ccccccccccc" />
  </g>
</svg>
