<?xml version="1.0" encoding="UTF-8" standalone="no"?>
<!-- Created with Inkscape (http://www.inkscape.org/) -->

<svg
   xmlns:dc="http://purl.org/dc/elements/1.1/"
   xmlns:cc="http://creativecommons.org/ns#"
   xmlns:rdf="http://www.w3.org/1999/02/22-rdf-syntax-ns#"
   xmlns:svg="http://www.w3.org/2000/svg"
   xmlns="http://www.w3.org/2000/svg"
   xmlns:sodipodi="http://sodipodi.sourceforge.net/DTD/sodipodi-0.dtd"
   xmlns:inkscape="http://www.inkscape.org/namespaces/inkscape"
   width="370"
   height="320"
   id="svg2"
   version="1.1"
   inkscape:version="0.48.4 r9939"
   sodipodi:docname="[18.悲嘆].svg"
   inkscape:export-filename="C:\Users\root\Desktop\資料\作業\SANARO\ORG\[01.行動]03..png"
   inkscape:export-xdpi="90"
   inkscape:export-ydpi="90"
   enable-background="new">
  <defs
     id="defs4">
    <inkscape:perspective
       sodipodi:type="inkscape:persp3d"
       inkscape:vp_x="363.49708 : 943.81603 : 1"
       inkscape:vp_y="0 : 1000 : 0"
       inkscape:vp_z="744.09448 : 526.18109 : 1"
       inkscape:persp3d-origin="372.04724 : 350.78739 : 1"
       id="perspective5056" />
    <inkscape:perspective
       id="perspective5056-8"
       inkscape:persp3d-origin="372.04724 : 350.78739 : 1"
       inkscape:vp_z="744.09448 : 526.18109 : 1"
       inkscape:vp_y="0 : 1000 : 0"
       inkscape:vp_x="363.49708 : 943.81603 : 1"
       sodipodi:type="inkscape:persp3d" />
    <inkscape:perspective
       id="perspective5056-5"
       inkscape:persp3d-origin="372.04724 : 350.78739 : 1"
       inkscape:vp_z="744.09448 : 526.18109 : 1"
       inkscape:vp_y="0 : 1000 : 0"
       inkscape:vp_x="363.49708 : 943.81603 : 1"
       sodipodi:type="inkscape:persp3d" />
    <inkscape:perspective
       sodipodi:type="inkscape:persp3d"
       inkscape:vp_x="363.49708 : 943.81603 : 1"
       inkscape:vp_y="0 : 1000 : 0"
       inkscape:vp_z="744.09448 : 526.18109 : 1"
       inkscape:persp3d-origin="372.04724 : 350.78739 : 1"
       id="perspective5056-5-2" />
    <inkscape:perspective
       sodipodi:type="inkscape:persp3d"
       inkscape:vp_x="363.49708 : 943.81603 : 1"
       inkscape:vp_y="0 : 1000 : 0"
       inkscape:vp_z="744.09448 : 526.18109 : 1"
       inkscape:persp3d-origin="372.04724 : 350.78739 : 1"
       id="perspective5056-8-5" />
    <inkscape:perspective
       id="perspective5056-1"
       inkscape:persp3d-origin="372.04724 : 350.78739 : 1"
       inkscape:vp_z="744.09448 : 526.18109 : 1"
       inkscape:vp_y="0 : 1000 : 0"
       inkscape:vp_x="363.49708 : 943.81603 : 1"
       sodipodi:type="inkscape:persp3d" />
    <inkscape:perspective
       sodipodi:type="inkscape:persp3d"
       inkscape:vp_x="363.49708 : 943.81603 : 1"
       inkscape:vp_y="0 : 1000 : 0"
       inkscape:vp_z="744.09448 : 526.18109 : 1"
       inkscape:persp3d-origin="372.04724 : 350.78739 : 1"
       id="perspective5056-5-5" />
    <inkscape:perspective
       id="perspective5056-4"
       inkscape:persp3d-origin="372.04724 : 350.78739 : 1"
       inkscape:vp_z="744.09448 : 526.18109 : 1"
       inkscape:vp_y="0 : 1000 : 0"
       inkscape:vp_x="363.49708 : 943.81603 : 1"
       sodipodi:type="inkscape:persp3d" />
    <inkscape:perspective
       sodipodi:type="inkscape:persp3d"
       inkscape:vp_x="363.49708 : 943.81603 : 1"
       inkscape:vp_y="0 : 1000 : 0"
       inkscape:vp_z="744.09448 : 526.18109 : 1"
       inkscape:persp3d-origin="372.04724 : 350.78739 : 1"
       id="perspective5056-1-2" />
    <inkscape:perspective
       id="perspective5056-8-5-8"
       inkscape:persp3d-origin="372.04724 : 350.78739 : 1"
       inkscape:vp_z="744.09448 : 526.18109 : 1"
       inkscape:vp_y="0 : 1000 : 0"
       inkscape:vp_x="363.49708 : 943.81603 : 1"
       sodipodi:type="inkscape:persp3d" />
    <inkscape:perspective
       id="perspective5056-5-2-8"
       inkscape:persp3d-origin="372.04724 : 350.78739 : 1"
       inkscape:vp_z="744.09448 : 526.18109 : 1"
       inkscape:vp_y="0 : 1000 : 0"
       inkscape:vp_x="363.49708 : 943.81603 : 1"
       sodipodi:type="inkscape:persp3d" />
    <inkscape:perspective
       sodipodi:type="inkscape:persp3d"
       inkscape:vp_x="363.49708 : 943.81603 : 1"
       inkscape:vp_y="0 : 1000 : 0"
       inkscape:vp_z="744.09448 : 526.18109 : 1"
       inkscape:persp3d-origin="372.04724 : 350.78739 : 1"
       id="perspective5056-5-4" />
    <inkscape:perspective
       sodipodi:type="inkscape:persp3d"
       inkscape:vp_x="363.49708 : 943.81603 : 1"
       inkscape:vp_y="0 : 1000 : 0"
       inkscape:vp_z="744.09448 : 526.18109 : 1"
       inkscape:persp3d-origin="372.04724 : 350.78739 : 1"
       id="perspective5056-8-9" />
    <inkscape:perspective
       id="perspective5056-40"
       inkscape:persp3d-origin="372.04724 : 350.78739 : 1"
       inkscape:vp_z="744.09448 : 526.18109 : 1"
       inkscape:vp_y="0 : 1000 : 0"
       inkscape:vp_x="363.49708 : 943.81603 : 1"
       sodipodi:type="inkscape:persp3d" />
    <inkscape:perspective
       sodipodi:type="inkscape:persp3d"
       inkscape:vp_x="363.49708 : 943.81603 : 1"
       inkscape:vp_y="0 : 1000 : 0"
       inkscape:vp_z="744.09448 : 526.18109 : 1"
       inkscape:persp3d-origin="372.04724 : 350.78739 : 1"
       id="perspective5056-1-5" />
    <inkscape:perspective
       id="perspective5056-8-5-4"
       inkscape:persp3d-origin="372.04724 : 350.78739 : 1"
       inkscape:vp_z="744.09448 : 526.18109 : 1"
       inkscape:vp_y="0 : 1000 : 0"
       inkscape:vp_x="363.49708 : 943.81603 : 1"
       sodipodi:type="inkscape:persp3d" />
    <inkscape:perspective
       id="perspective5056-5-2-82"
       inkscape:persp3d-origin="372.04724 : 350.78739 : 1"
       inkscape:vp_z="744.09448 : 526.18109 : 1"
       inkscape:vp_y="0 : 1000 : 0"
       inkscape:vp_x="363.49708 : 943.81603 : 1"
       sodipodi:type="inkscape:persp3d" />
    <inkscape:perspective
       sodipodi:type="inkscape:persp3d"
       inkscape:vp_x="363.49708 : 943.81603 : 1"
       inkscape:vp_y="0 : 1000 : 0"
       inkscape:vp_z="744.09448 : 526.18109 : 1"
       inkscape:persp3d-origin="372.04724 : 350.78739 : 1"
       id="perspective5056-5-8" />
    <inkscape:perspective
       sodipodi:type="inkscape:persp3d"
       inkscape:vp_x="363.49708 : 943.81603 : 1"
       inkscape:vp_y="0 : 1000 : 0"
       inkscape:vp_z="744.09448 : 526.18109 : 1"
       inkscape:persp3d-origin="372.04724 : 350.78739 : 1"
       id="perspective5056-8-4" />
    <inkscape:perspective
       id="perspective5056-409"
       inkscape:persp3d-origin="372.04724 : 350.78739 : 1"
       inkscape:vp_z="744.09448 : 526.18109 : 1"
       inkscape:vp_y="0 : 1000 : 0"
       inkscape:vp_x="363.49708 : 943.81603 : 1"
       sodipodi:type="inkscape:persp3d" />
    <inkscape:perspective
       sodipodi:type="inkscape:persp3d"
       inkscape:vp_x="363.49708 : 943.81603 : 1"
       inkscape:vp_y="0 : 1000 : 0"
       inkscape:vp_z="744.09448 : 526.18109 : 1"
       inkscape:persp3d-origin="372.04724 : 350.78739 : 1"
       id="perspective5056-1-7" />
    <inkscape:perspective
       id="perspective5056-8-5-2"
       inkscape:persp3d-origin="372.04724 : 350.78739 : 1"
       inkscape:vp_z="744.09448 : 526.18109 : 1"
       inkscape:vp_y="0 : 1000 : 0"
       inkscape:vp_x="363.49708 : 943.81603 : 1"
       sodipodi:type="inkscape:persp3d" />
    <inkscape:perspective
       id="perspective5056-5-2-89"
       inkscape:persp3d-origin="372.04724 : 350.78739 : 1"
       inkscape:vp_z="744.09448 : 526.18109 : 1"
       inkscape:vp_y="0 : 1000 : 0"
       inkscape:vp_x="363.49708 : 943.81603 : 1"
       sodipodi:type="inkscape:persp3d" />
    <inkscape:perspective
       sodipodi:type="inkscape:persp3d"
       inkscape:vp_x="363.49708 : 943.81603 : 1"
       inkscape:vp_y="0 : 1000 : 0"
       inkscape:vp_z="744.09448 : 526.18109 : 1"
       inkscape:persp3d-origin="372.04724 : 350.78739 : 1"
       id="perspective5056-5-1" />
    <inkscape:perspective
       sodipodi:type="inkscape:persp3d"
       inkscape:vp_x="363.49708 : 943.81603 : 1"
       inkscape:vp_y="0 : 1000 : 0"
       inkscape:vp_z="744.09448 : 526.18109 : 1"
       inkscape:persp3d-origin="372.04724 : 350.78739 : 1"
       id="perspective5056-8-6" />
    <inkscape:perspective
       id="perspective5056-7"
       inkscape:persp3d-origin="372.04724 : 350.78739 : 1"
       inkscape:vp_z="744.09448 : 526.18109 : 1"
       inkscape:vp_y="0 : 1000 : 0"
       inkscape:vp_x="363.49708 : 943.81603 : 1"
       sodipodi:type="inkscape:persp3d" />
    <inkscape:perspective
       sodipodi:type="inkscape:persp3d"
       inkscape:vp_x="363.49708 : 943.81603 : 1"
       inkscape:vp_y="0 : 1000 : 0"
       inkscape:vp_z="744.09448 : 526.18109 : 1"
       inkscape:persp3d-origin="372.04724 : 350.78739 : 1"
       id="perspective5056-1-1" />
    <inkscape:perspective
       id="perspective5056-8-5-82"
       inkscape:persp3d-origin="372.04724 : 350.78739 : 1"
       inkscape:vp_z="744.09448 : 526.18109 : 1"
       inkscape:vp_y="0 : 1000 : 0"
       inkscape:vp_x="363.49708 : 943.81603 : 1"
       sodipodi:type="inkscape:persp3d" />
    <inkscape:perspective
       id="perspective5056-5-2-1"
       inkscape:persp3d-origin="372.04724 : 350.78739 : 1"
       inkscape:vp_z="744.09448 : 526.18109 : 1"
       inkscape:vp_y="0 : 1000 : 0"
       inkscape:vp_x="363.49708 : 943.81603 : 1"
       sodipodi:type="inkscape:persp3d" />
    <inkscape:perspective
       sodipodi:type="inkscape:persp3d"
       inkscape:vp_x="363.49708 : 943.81603 : 1"
       inkscape:vp_y="0 : 1000 : 0"
       inkscape:vp_z="744.09448 : 526.18109 : 1"
       inkscape:persp3d-origin="372.04724 : 350.78739 : 1"
       id="perspective5056-5-46" />
    <inkscape:perspective
       sodipodi:type="inkscape:persp3d"
       inkscape:vp_x="363.49708 : 943.81603 : 1"
       inkscape:vp_y="0 : 1000 : 0"
       inkscape:vp_z="744.09448 : 526.18109 : 1"
       inkscape:persp3d-origin="372.04724 : 350.78739 : 1"
       id="perspective5056-8-92" />
    <inkscape:perspective
       id="perspective5056-3"
       inkscape:persp3d-origin="372.04724 : 350.78739 : 1"
       inkscape:vp_z="744.09448 : 526.18109 : 1"
       inkscape:vp_y="0 : 1000 : 0"
       inkscape:vp_x="363.49708 : 943.81603 : 1"
       sodipodi:type="inkscape:persp3d" />
  </defs>
  <sodipodi:namedview
     id="base"
     pagecolor="#ffffff"
     bordercolor="#666666"
     borderopacity="1.0"
     inkscape:pageopacity="0.0"
     inkscape:pageshadow="2"
     inkscape:zoom="1.242449"
     inkscape:cx="354.42013"
     inkscape:cy="137.29175"
     inkscape:document-units="px"
     inkscape:current-layer="layer8"
     showgrid="false"
     inkscape:window-width="1139"
     inkscape:window-height="693"
     inkscape:window-x="75"
     inkscape:window-y="-2"
     inkscape:window-maximized="0"
     showguides="true"
     inkscape:guide-bbox="true"
     inkscape:snap-grids="false"
     inkscape:snap-to-guides="false"
     showborder="true"
     inkscape:showpageshadow="false"
     fit-margin-top="0"
     fit-margin-left="0"
     fit-margin-right="0"
     fit-margin-bottom="0"
     inkscape:snap-page="false" />
  <metadata
     id="metadata7">
    <rdf:RDF>
      <cc:Work
         rdf:about="">
        <dc:format>image/svg+xml</dc:format>
        <dc:type
           rdf:resource="http://purl.org/dc/dcmitype/StillImage" />
        <dc:title></dc:title>
      </cc:Work>
    </rdf:RDF>
  </metadata>
  <g
     inkscape:groupmode="layer"
     id="layer2"
     inkscape:label="補助線"
     style="display:none"
     sodipodi:insensitive="true">
    <path
       style="fill:none;stroke:#0000ff;stroke-width:1px;stroke-linecap:butt;stroke-linejoin:miter;stroke-opacity:1"
       d="M 10,310 360,10"
       id="path3025"
       inkscape:connector-curvature="0"
       sodipodi:nodetypes="cc" />
    <path
       style="fill:none;stroke:#0000ff;stroke-width:1px;stroke-linecap:butt;stroke-linejoin:miter;stroke-opacity:1"
       d="M 10,10 360,310"
       id="path3027"
       inkscape:connector-curvature="0"
       sodipodi:nodetypes="cc" />
    <path
       style="fill:none;stroke:#ff0000;stroke-width:1px;stroke-linecap:butt;stroke-linejoin:miter;stroke-opacity:1;display:inline"
       d="m 10,0 0,320"
       id="path3006"
       inkscape:connector-curvature="0"
       sodipodi:nodetypes="cc" />
    <path
       style="fill:none;stroke:#ff0000;stroke-width:1px;stroke-linecap:butt;stroke-linejoin:miter;stroke-opacity:1;display:inline"
       d="m 360,0 0,320"
       id="path3010"
       inkscape:connector-curvature="0"
       sodipodi:nodetypes="cc" />
    <path
       style="fill:none;stroke:#ff0000;stroke-width:1px;stroke-linecap:butt;stroke-linejoin:miter;stroke-opacity:1;display:inline"
       d="M 0,9.9999681 370,10"
       id="path3016"
       inkscape:connector-curvature="0" />
    <path
       transform="translate(84.715796,27.711696)"
       style="fill:none;stroke:#ff0000;stroke-width:1px;stroke-linecap:butt;stroke-linejoin:miter;stroke-opacity:1;display:inline"
       d="m -84.715796,282.2883 369.999996,0"
       id="path3018"
       inkscape:connector-curvature="0"
       sodipodi:nodetypes="cc" />
  </g>
  <g
     inkscape:groupmode="layer"
     id="layer8"
     inkscape:label="原型"
     style="display:inline">
    <path
       sodipodi:nodetypes="cssssssssssssscc"
       inkscape:connector-curvature="0"
       id="path6635-6-9-1-1-7-5-8-0-5"
       d="m 266.6003,196.71654 c -7.16104,7.39025 -45.68733,26.94626 -72.12054,38.14487 -7.89474,3.34465 -26.21273,-1.1334 -30.69737,-8.08006 -5.56726,-8.62364 -6.35224,-17.92855 -9.51346,-25.15064 -3.84338,-8.78054 -14.28772,-28.681 -15.06091,-42.53656 -0.2927,-5.24408 0.10016,-18.40787 -0.57851,-26.4105 -0.46208,-5.44854 -4.03137,-17.66566 -4.72431,-22.45585 -1.02132,-7.05929 1.6661,-15.023187 2.31789,-21.424855 1.19219,-11.709566 5.39308,-27.634024 8.18941,-35.556753 3.37586,-9.564688 28.76152,-33.885664 39.71415,-38.335862 11.69029,-4.749914 67.17796,-1.815372 79.30808,7.313482 14.17562,10.66825 36.9767,34.06524 40.13092,43.22769 3.78391,10.991581 6.61918,55.816098 6.19802,62.122398 -0.38528,5.76907 -19.72335,49.70866 -21.95952,57.3768 -3.27979,11.24683 6.31576,43.92572 5.78368,46.75583 z"
       style="fill:#e9c6af;stroke:none;display:inline;stroke-width:1.5" />
    <path
       sodipodi:nodetypes="csssccccscsscscsc"
       inkscape:connector-curvature="0"
       id="path5573-3-9-8-0-5-7"
       d="m 157.72771,174.19682 c -1.24206,0.76764 -12.60371,-5.77996 -10.003,-7.9415 0.63981,-0.53177 1.63156,-6.73448 2.15874,-8.97765 1.39917,-5.95346 8.22885,-21.45707 8.22835,-24.53807 -2.4e-4,-1.50512 -0.24388,-15.43546 -6.68589,-15.61552 1.38886,2.4608 4.82899,9.25547 5.17099,13.27454 l -17.31516,-7.6626 -0.95385,1.9541 c 0.23922,1.76994 3.34283,11.32285 6.17063,12.53272 2.46729,1.05564 5.17899,0.0359 8.59873,-0.95674 1.35696,2.04754 -2.56492,12.18193 -6.80476,24.14103 -1.04365,2.94375 -1.29035,8.42507 2.05354,11.08078 2.00694,1.59388 8.28989,7.43877 11.68082,11.89165 -1.42183,-4.15894 0.89275,-5.98298 2.79547,-5.55361 1.58324,0.35728 3.61376,3.64475 4.42177,6.94542 1.97488,-2.55179 6.15869,-3.40892 5.76467,-5.03338 -0.39167,-1.61481 -10.28177,-4.77603 -15.28105,-5.54117 z"
       style="fill:#deaa87;stroke:none;display:inline;stroke-width:1.5" />
    <path
       style="fill:#fefefe;fill-opacity:1;stroke:none;display:inline;stroke-width:1.5"
       d="m 153.40335,124.76548 3.40091,5.46977 -6.55871,4.56326 -6.80039,-2.35758 -4.23529,-9.23861 1.56935,-2.68647 z"
       id="path3337-0-4-0-1-8-6-9-1-5"
       inkscape:connector-curvature="0"
       sodipodi:nodetypes="ccccccc" />
    <path
       sodipodi:nodetypes="csccsssscssccscccsssssssscc"
       inkscape:connector-curvature="0"
       id="path3438-5-86-7-3-4-0-4-2-4"
       d="m 162.61996,225.99406 c 4.12038,6.72747 21.68105,13.52532 31.85968,8.84974 19.86429,-9.12468 57.03695,-26.79522 72.11066,-38.11314 l 27.00375,34.99234 c -3.68336,-14.95896 -7.41535,-40.43475 -5.81199,-46.76849 3.14284,-12.41506 21.27515,-46.28766 21.97653,-57.44527 0.46553,-7.40563 -0.0159,-49.079033 -6.20288,-62.066601 -6.23905,-13.096787 -28.90252,-34.85081 -40.16357,-43.242892 -7.65367,-5.703751 -18.65353,-7.131331 -36.9151,-9.241233 11.02335,3.252722 21.91777,22.91456 21.89551,33.919911 -0.0222,10.930598 -8.51187,48.532598 -12.04236,55.346255 -4.64864,8.97163 -21.81593,16.36992 -23.93212,18.30296 l -19.04579,-0.73315 c 6.41729,-0.88725 9.37522,2.05801 13.02651,4.91263 4.61859,3.61087 -1.02874,8.49604 -1.99367,9.84027 l -27.24266,-1.46893 c -1.10776,-4.15795 -0.71959,-6.77166 5.63398,-11.88241 -8.74025,1.22785 -10.26871,-4.66816 -14.88874,-3.52644 -1.51543,0.3745 -2.30515,8.22655 -2.30177,10.45982 0.007,4.81373 3.80369,14.38054 8.38216,11.01277 4.65883,-3.42688 3.74022,6.9091 12.62655,9.57187 4.1934,1.25653 17.91765,-3.10653 20.6444,-2.6935 4.09992,0.62103 12.36107,6.90881 13.51063,11.65796 0.87239,3.60411 -6.9663,22.25924 -15.89848,42.73112 -5.46002,12.51399 -8.56648,28.1486 -15.80867,31.26359 -7.43009,3.19581 -19.36519,2.84296 -26.42236,-5.67918 z"
       style="fill:#deaa87;stroke:none;display:inline;stroke-width:1.5" />
    <path
       style="fill:#fefefe;fill-opacity:1;stroke:none;display:inline;stroke-width:1.5"
       d="m 178.22925,129.72365 10.98936,0.38713 10.0626,1.99909 5.00859,2.45787 -9.14295,7.08178 -10.84037,-0.29091 -7.34229,-8.42281 z"
       id="path3353-4-1-2-2-4-9-8-7-1"
       inkscape:connector-curvature="0"
       sodipodi:nodetypes="cccccccc" />
    <path
       sodipodi:nodetypes="sccs"
       inkscape:connector-curvature="0"
       id="path3357-1-2-4-7-5-3-8-6-2"
       d="m 193.24957,139.5938 c 4.09027,0.38198 6.54775,-2.45902 7.22102,-6.73153 l -12.92367,-2.74873 c -1.93877,4.45313 1.6179,9.09879 5.70265,9.48026 z"
       style="fill:#2b0000;stroke:none;display:inline;stroke-width:1.5" />
    <path
       sodipodi:nodetypes="csccc"
       inkscape:connector-curvature="0"
       id="path3357-0-8-6-7-0-2-0-0"
       d="m 145.27742,121.708 c -0.15966,4.08066 1.24231,10.32709 4.5126,11.42293 3.75067,1.2568 5.63939,-2.62774 6.05077,-4.97603 l -2.92482,-3.20557 z"
       style="fill:#2b0000;stroke:none;display:inline;stroke-width:1.5" />
    <path
       sodipodi:nodetypes="csssccc"
       inkscape:connector-curvature="0"
       id="path6629-0-6-3-5-0-4-2-01"
       d="m 155.28252,118.81624 c 1.85625,4.27688 3.09442,10.94779 2.82375,13.92825 -0.46008,5.06625 -6.71886,20.7687 -8.22399,24.53729 -1.60044,4.00719 -2.69919,7.23201 -2.17251,8.98403 1.83905,6.11783 7.36039,5.03323 10.47264,9.22515 m 3.10747,1.2e-4 c 3.03803,1.07701 9.73319,2.00849 12.1144,4.4273"
       style="fill:none;stroke:#000000;stroke-width:1.5;stroke-linecap:butt;stroke-linejoin:miter;stroke-opacity:1;display:inline" />
    <path
       sodipodi:nodetypes="ssssssscs"
       inkscape:connector-curvature="0"
       id="path6633-4-0-6-4-8-5-4-4"
       d="m 154.63779,176.88107 c 1.50943,-0.87533 2.83835,2.52028 6.71862,3.09389 5.25553,0.77678 4.44309,-2.12652 6.20294,-1.25962 7.42727,3.65952 22.48292,12.56465 23.91877,16.30845 1.45065,3.78201 0.50425,9.43228 -1.78292,8.60849 -7.37015,-2.65459 -20.13282,-8.90813 -27.71135,-9.06471 -4.79438,-0.0991 -9.81045,0.58384 -14.62175,-0.62306 -1.06511,-0.26713 -3.28706,-8.58222 -1.33695,-10.19172 1.72762,-3.23184 6.31585,-5.53977 8.61264,-6.87172 z"
       style="fill:#000000;stroke:none;display:inline;stroke-width:1.5" />
    <path
       sodipodi:nodetypes="cssssssssssssssc"
       inkscape:connector-curvature="0"
       id="path6635-6-9-1-1-7-5-8-6"
       d="m 274.24626,173.74562 c -1.62763,6.60399 -4.52769,17.46699 -7.66652,22.98229 -2.70563,4.75413 -59.12099,33.0912 -72.10047,38.10834 -7.99732,3.09133 -27.01676,-1.38656 -30.71178,-8.01751 -4.99645,-8.96644 -6.35496,-17.9761 -9.51618,-25.19819 -3.84337,-8.78054 -14.29258,-28.68383 -15.06578,-42.5394 -0.29269,-5.24408 -0.57701,-19.88237 -0.53302,-26.43977 0.0367,-5.46798 -4.06049,-17.62153 -4.75344,-22.41171 -1.02132,-7.0593 1.69135,-15.069701 2.34312,-21.471359 1.1922,-11.709585 5.29578,-27.587746 8.16135,-35.485693 3.8901,-10.721686 28.38057,-34.83781 39.6704,-38.310728 14.05888,-4.324716 62.60207,-4.010677 79.33887,7.246991 11.70341,7.872061 36.15172,33.559414 40.14364,43.246063 3.95408,9.594834 7.49428,52.320566 6.21031,62.112836 -2.09927,16.01005 -19.5764,48.21038 -21.98228,57.3828 -2.8526,10.8756 3.29299,32.09591 5.81683,46.83835"
       style="fill:none;stroke:#000000;stroke-width:1.5;stroke-linecap:butt;stroke-linejoin:miter;stroke-opacity:1;display:inline" />
    <path
       sodipodi:nodetypes="cc"
       inkscape:connector-curvature="0"
       id="path6643-0-0-5-2-6-1-6-0"
       d="m 165.05414,120.29832 c -0.31628,2.37313 -0.20462,6.41763 0.76898,8.9608"
       style="fill:none;stroke:#000000;stroke-width:1.5;stroke-linecap:butt;stroke-linejoin:miter;stroke-opacity:1;display:inline" />
    <path
       sodipodi:nodetypes="ssssss"
       inkscape:connector-curvature="0"
       id="path6645-7-0-4-0-3-7-5-7"
       d="m 172.95212,126.13173 c 6.33644,1.09249 9.60108,-4.01748 20.60816,-4.79286 8.63354,-0.60818 24.64002,1.7739 21.71056,-0.43877 -2.11529,-1.59771 -12.25273,-2.59773 -21.40648,-2.61156 -5.44614,-0.008 -12.40549,1.51876 -17.03207,2.12885 -4.77724,0.62997 -15.80299,3.65867 -3.88017,5.71434 z"
       style="fill:#000000;stroke:none;display:inline;stroke-width:1.5" />
    <path
       sodipodi:nodetypes="sssss"
       inkscape:connector-curvature="0"
       id="path6647-1-6-2-0-5-1-0-1"
       d="m 134.08364,105.58068 c 1.74319,-0.58458 7.85602,2.73957 12.34045,4.93544 5.26237,2.5768 10.76093,8.43791 8.53082,8.59966 -5.26015,0.3815 -7.27348,-3.8002 -11.14364,-6.71366 -5.36371,-4.03781 -11.91495,-6.08793 -9.72763,-6.82144 z"
       style="fill:#000000;stroke:none;display:inline;stroke-width:1.5" />
    <path
       sodipodi:nodetypes="cc"
       inkscape:connector-curvature="0"
       id="path6649-7-1-0-1-6-1-9-7"
       d="m 179.42245,168.73442 c 1.14236,3.16425 1.37723,9.27046 -2.92831,10.73519"
       style="fill:none;stroke:#000000;stroke-width:1.5;stroke-linecap:butt;stroke-linejoin:miter;stroke-opacity:1;display:inline" />
    <path
       sodipodi:nodetypes="cssc"
       inkscape:connector-curvature="0"
       id="path3339-7-3-9-4-5-5-0-7"
       d="m 176.89369,132.99907 c 2.04467,1.47505 4.58588,7.09143 7.57956,8.38623 2.08885,0.90344 9.02583,0.51693 10.77653,0.0511 1.82753,-0.48621 6.67405,-4.31859 8.93531,-6.62114"
       style="fill:none;stroke:#916f6f;stroke-width:1.5;stroke-linecap:butt;stroke-linejoin:miter;stroke-opacity:1;display:inline" />
    <path
       sodipodi:nodetypes="cssc"
       inkscape:connector-curvature="0"
       id="path3337-7-8-7-6-8-2-0-7"
       d="m 176.15778,133.85265 c 1.82531,-1.14626 0.79807,-3.98344 3.26466,-4.31434 3.17284,-0.42561 9.90156,0.61713 16.48795,1.8219 3.08495,0.5643 6.54619,2.12946 10.43409,4.25592"
       style="fill:none;stroke:#000000;stroke-width:1.5;stroke-linecap:butt;stroke-linejoin:miter;stroke-opacity:1;display:inline" />
    <path
       sodipodi:nodetypes="cssc"
       inkscape:connector-curvature="0"
       id="path3355-7-9-3-0-3-7-6-7"
       d="m 138.9383,122.5679 c 1.17302,2.48226 3.2758,9.38276 5.10072,10.20391 1.24125,0.55851 4.36067,2.32637 6.72293,2.14357 1.15123,-0.0891 5.25751,-3.77179 5.92582,-4.45513"
       style="fill:none;stroke:#916f6f;stroke-width:1.5;stroke-linecap:butt;stroke-linejoin:miter;stroke-opacity:1;display:inline" />
    <path
       sodipodi:nodetypes="cssc"
       inkscape:connector-curvature="0"
       id="path3353-3-3-7-7-9-6-1-3"
       d="m 137.82644,124.62656 c 1.5561,-1.24814 1.09526,-4.24636 3.0598,-4.07293 2.65968,0.2348 8.51151,2.31484 11.98277,3.96266 2.14378,1.01765 3.10261,4.85584 4.73812,6.61207"
       style="fill:none;stroke:#000000;stroke-width:1.5;stroke-linecap:butt;stroke-linejoin:miter;stroke-opacity:1;display:inline" />
    <path
       sodipodi:nodetypes="csssc"
       inkscape:connector-curvature="0"
       id="path6637-1-1-2-1-4-1-3-3"
       d="m 276.38736,172.33096 c 3.38211,-4.23539 15.58291,2.49016 20.25989,-7.65291 2.968,-6.43681 6.9077,-10.84375 9.84824,-23.687 2.91591,-12.73574 -0.60644,-19.73627 -4.4692,-21.44248 -6.56421,-2.89942 -12.17601,0.3229 -17.03647,3.98934"
       style="fill:#deaa87;stroke:#000000;stroke-width:1.5;stroke-linecap:butt;stroke-linejoin:miter;stroke-opacity:1;display:inline" />
    <path
       sodipodi:nodetypes="csssssssc"
       inkscape:connector-curvature="0"
       id="path6639-8-8-6-7-8-4-8-5"
       d="m 292.75634,156.4093 c -1.42426,-3.0827 -6.02924,-6.28328 -6.70604,-10.69322 -0.64131,-4.17861 -1.70797,-8.4246 -0.31118,-11.21203 2.11288,-4.21633 9.22167,-10.91353 12.84117,-10.34654 2.90255,0.45469 4.84755,2.86755 5.33105,7.32257 1.18515,10.91988 -6.51586,25.24799 -13.23874,25.92353 -3.76819,0.37865 -9.6444,7.3124 -10.87941,5.00446 -1.21056,-2.26241 3.0557,-6.29308 3.67125,-8.40942 0.3709,-1.27507 -2.64639,-5.76825 -2.75631,-9.05647"
       style="opacity:0.94999999999999996;fill:none;stroke:#000000;stroke-width:1.5;stroke-linecap:butt;stroke-linejoin:miter;stroke-opacity:1;display:inline" />
    <path
       sodipodi:nodetypes="sssss"
       inkscape:connector-curvature="0"
       id="path6710-3-4-7-4-0-6-2-4-9"
       d="m 183.76451,207.19293 c 0.74052,-2.38384 -5.80888,-4.37563 -11.14127,-5.88061 -5.5437,-1.56459 -10.41213,-1.6442 -10.17945,0.31318 0.45925,3.86372 3.5244,7.216 9.96487,9.09762 5.36705,1.56803 10.24908,0.0334 11.35585,-3.53019 z"
       style="fill:#deaa87;stroke:none;display:inline;stroke-width:1.5" />
    <path
       style="fill:#1c1f24;stroke:#000000;stroke-width:1.5;stroke-linecap:butt;stroke-linejoin:miter;stroke-opacity:1;display:inline"
       d="m 124.67979,322.56401 c 0,0 -4.43809,-16.38958 -1.68331,-24.30211 3.31543,-9.52287 11.81741,-20.244 20.51517,-25.34553 14.85217,-8.7113 77.41961,-32.31828 92.44734,-34.81042 13.76393,-2.28257 58.8356,-6.45536 64.48488,-5.13597 13.20304,3.08359 37.89955,11.80789 48.50632,22.82651 4.69445,4.87673 8.52302,11.07288 9.04875,15.63961 1.33114,11.56292 -9.62095,41.96806 -9.62095,41.96806"
       id="path3771"
       inkscape:connector-curvature="0"
       sodipodi:nodetypes="cssssssc" />
    <path
       style="fill:#1c1f24;stroke:#000000;stroke-width:1.5;stroke-linecap:butt;stroke-linejoin:miter;stroke-opacity:1;display:inline"
       d="m 187.32609,254.131 1.77528,-13.05601 c 24.33834,-16.24712 88.48758,-35.4506 104.15432,-28.79819 l 8.35818,23.32793 c -36.76891,-0.42852 -75.60163,11.38722 -114.28778,18.52627 z"
       id="path3791"
       inkscape:connector-curvature="0"
       sodipodi:nodetypes="ccccc" />
  </g>
  <g
     inkscape:groupmode="layer"
     id="layer7"
     inkscape:label="枠面"
     style="display:inline"
     sodipodi:insensitive="true">
    <path
       style="fill:#ff0000;stroke:none;display:inline"
       d="m 0,0 0,320 370,0 0,-320 -10,10 0,300 -350,0 0,-300 350,0 10,-10 z"
       id="path21072"
       inkscape:connector-curvature="0"
       sodipodi:nodetypes="ccccccccccc" />
  </g>
</svg>
