<?xml version="1.0" encoding="UTF-8" standalone="no"?>
<!-- Created with Inkscape (http://www.inkscape.org/) -->

<svg
   xmlns:dc="http://purl.org/dc/elements/1.1/"
   xmlns:cc="http://creativecommons.org/ns#"
   xmlns:rdf="http://www.w3.org/1999/02/22-rdf-syntax-ns#"
   xmlns:svg="http://www.w3.org/2000/svg"
   xmlns="http://www.w3.org/2000/svg"
   xmlns:sodipodi="http://sodipodi.sourceforge.net/DTD/sodipodi-0.dtd"
   xmlns:inkscape="http://www.inkscape.org/namespaces/inkscape"
   width="370"
   height="320"
   id="svg2"
   version="1.1"
   inkscape:version="0.92.3 (2405546, 2018-03-11)"
   sodipodi:docname="[23.忠告].svg"
   inkscape:export-filename="C:\Users\zhen-\Desktop\資料\臨時\HOSHI\23.png"
   inkscape:export-xdpi="96"
   inkscape:export-ydpi="96"
   enable-background="new">
  <defs
     id="defs4">
    <inkscape:perspective
       sodipodi:type="inkscape:persp3d"
       inkscape:vp_x="363.49708 : 943.81603 : 1"
       inkscape:vp_y="0 : 1000 : 0"
       inkscape:vp_z="744.09448 : 526.18109 : 1"
       inkscape:persp3d-origin="372.04724 : 350.78739 : 1"
       id="perspective5056" />
    <inkscape:perspective
       id="perspective5056-8"
       inkscape:persp3d-origin="372.04724 : 350.78739 : 1"
       inkscape:vp_z="744.09448 : 526.18109 : 1"
       inkscape:vp_y="0 : 1000 : 0"
       inkscape:vp_x="363.49708 : 943.81603 : 1"
       sodipodi:type="inkscape:persp3d" />
    <inkscape:perspective
       id="perspective5056-5"
       inkscape:persp3d-origin="372.04724 : 350.78739 : 1"
       inkscape:vp_z="744.09448 : 526.18109 : 1"
       inkscape:vp_y="0 : 1000 : 0"
       inkscape:vp_x="363.49708 : 943.81603 : 1"
       sodipodi:type="inkscape:persp3d" />
    <inkscape:perspective
       sodipodi:type="inkscape:persp3d"
       inkscape:vp_x="363.49708 : 943.81603 : 1"
       inkscape:vp_y="0 : 1000 : 0"
       inkscape:vp_z="744.09448 : 526.18109 : 1"
       inkscape:persp3d-origin="372.04724 : 350.78739 : 1"
       id="perspective5056-5-2" />
    <inkscape:perspective
       sodipodi:type="inkscape:persp3d"
       inkscape:vp_x="363.49708 : 943.81603 : 1"
       inkscape:vp_y="0 : 1000 : 0"
       inkscape:vp_z="744.09448 : 526.18109 : 1"
       inkscape:persp3d-origin="372.04724 : 350.78739 : 1"
       id="perspective5056-8-5" />
    <inkscape:perspective
       id="perspective5056-1"
       inkscape:persp3d-origin="372.04724 : 350.78739 : 1"
       inkscape:vp_z="744.09448 : 526.18109 : 1"
       inkscape:vp_y="0 : 1000 : 0"
       inkscape:vp_x="363.49708 : 943.81603 : 1"
       sodipodi:type="inkscape:persp3d" />
    <inkscape:perspective
       sodipodi:type="inkscape:persp3d"
       inkscape:vp_x="363.49708 : 943.81603 : 1"
       inkscape:vp_y="0 : 1000 : 0"
       inkscape:vp_z="744.09448 : 526.18109 : 1"
       inkscape:persp3d-origin="372.04724 : 350.78739 : 1"
       id="perspective5056-5-5" />
    <inkscape:perspective
       id="perspective5056-4"
       inkscape:persp3d-origin="372.04724 : 350.78739 : 1"
       inkscape:vp_z="744.09448 : 526.18109 : 1"
       inkscape:vp_y="0 : 1000 : 0"
       inkscape:vp_x="363.49708 : 943.81603 : 1"
       sodipodi:type="inkscape:persp3d" />
    <inkscape:perspective
       sodipodi:type="inkscape:persp3d"
       inkscape:vp_x="363.49708 : 943.81603 : 1"
       inkscape:vp_y="0 : 1000 : 0"
       inkscape:vp_z="744.09448 : 526.18109 : 1"
       inkscape:persp3d-origin="372.04724 : 350.78739 : 1"
       id="perspective5056-1-2" />
    <inkscape:perspective
       id="perspective5056-8-5-8"
       inkscape:persp3d-origin="372.04724 : 350.78739 : 1"
       inkscape:vp_z="744.09448 : 526.18109 : 1"
       inkscape:vp_y="0 : 1000 : 0"
       inkscape:vp_x="363.49708 : 943.81603 : 1"
       sodipodi:type="inkscape:persp3d" />
    <inkscape:perspective
       id="perspective5056-5-2-8"
       inkscape:persp3d-origin="372.04724 : 350.78739 : 1"
       inkscape:vp_z="744.09448 : 526.18109 : 1"
       inkscape:vp_y="0 : 1000 : 0"
       inkscape:vp_x="363.49708 : 943.81603 : 1"
       sodipodi:type="inkscape:persp3d" />
    <inkscape:perspective
       sodipodi:type="inkscape:persp3d"
       inkscape:vp_x="363.49708 : 943.81603 : 1"
       inkscape:vp_y="0 : 1000 : 0"
       inkscape:vp_z="744.09448 : 526.18109 : 1"
       inkscape:persp3d-origin="372.04724 : 350.78739 : 1"
       id="perspective5056-5-4" />
    <inkscape:perspective
       sodipodi:type="inkscape:persp3d"
       inkscape:vp_x="363.49708 : 943.81603 : 1"
       inkscape:vp_y="0 : 1000 : 0"
       inkscape:vp_z="744.09448 : 526.18109 : 1"
       inkscape:persp3d-origin="372.04724 : 350.78739 : 1"
       id="perspective5056-8-9" />
    <inkscape:perspective
       id="perspective5056-40"
       inkscape:persp3d-origin="372.04724 : 350.78739 : 1"
       inkscape:vp_z="744.09448 : 526.18109 : 1"
       inkscape:vp_y="0 : 1000 : 0"
       inkscape:vp_x="363.49708 : 943.81603 : 1"
       sodipodi:type="inkscape:persp3d" />
    <inkscape:perspective
       sodipodi:type="inkscape:persp3d"
       inkscape:vp_x="363.49708 : 943.81603 : 1"
       inkscape:vp_y="0 : 1000 : 0"
       inkscape:vp_z="744.09448 : 526.18109 : 1"
       inkscape:persp3d-origin="372.04724 : 350.78739 : 1"
       id="perspective5056-1-5" />
    <inkscape:perspective
       id="perspective5056-8-5-4"
       inkscape:persp3d-origin="372.04724 : 350.78739 : 1"
       inkscape:vp_z="744.09448 : 526.18109 : 1"
       inkscape:vp_y="0 : 1000 : 0"
       inkscape:vp_x="363.49708 : 943.81603 : 1"
       sodipodi:type="inkscape:persp3d" />
    <inkscape:perspective
       id="perspective5056-5-2-82"
       inkscape:persp3d-origin="372.04724 : 350.78739 : 1"
       inkscape:vp_z="744.09448 : 526.18109 : 1"
       inkscape:vp_y="0 : 1000 : 0"
       inkscape:vp_x="363.49708 : 943.81603 : 1"
       sodipodi:type="inkscape:persp3d" />
    <inkscape:perspective
       sodipodi:type="inkscape:persp3d"
       inkscape:vp_x="363.49708 : 943.81603 : 1"
       inkscape:vp_y="0 : 1000 : 0"
       inkscape:vp_z="744.09448 : 526.18109 : 1"
       inkscape:persp3d-origin="372.04724 : 350.78739 : 1"
       id="perspective5056-5-8" />
    <inkscape:perspective
       sodipodi:type="inkscape:persp3d"
       inkscape:vp_x="363.49708 : 943.81603 : 1"
       inkscape:vp_y="0 : 1000 : 0"
       inkscape:vp_z="744.09448 : 526.18109 : 1"
       inkscape:persp3d-origin="372.04724 : 350.78739 : 1"
       id="perspective5056-8-4" />
    <inkscape:perspective
       id="perspective5056-409"
       inkscape:persp3d-origin="372.04724 : 350.78739 : 1"
       inkscape:vp_z="744.09448 : 526.18109 : 1"
       inkscape:vp_y="0 : 1000 : 0"
       inkscape:vp_x="363.49708 : 943.81603 : 1"
       sodipodi:type="inkscape:persp3d" />
    <inkscape:perspective
       sodipodi:type="inkscape:persp3d"
       inkscape:vp_x="363.49708 : 943.81603 : 1"
       inkscape:vp_y="0 : 1000 : 0"
       inkscape:vp_z="744.09448 : 526.18109 : 1"
       inkscape:persp3d-origin="372.04724 : 350.78739 : 1"
       id="perspective5056-1-7" />
    <inkscape:perspective
       id="perspective5056-8-5-2"
       inkscape:persp3d-origin="372.04724 : 350.78739 : 1"
       inkscape:vp_z="744.09448 : 526.18109 : 1"
       inkscape:vp_y="0 : 1000 : 0"
       inkscape:vp_x="363.49708 : 943.81603 : 1"
       sodipodi:type="inkscape:persp3d" />
    <inkscape:perspective
       id="perspective5056-5-2-89"
       inkscape:persp3d-origin="372.04724 : 350.78739 : 1"
       inkscape:vp_z="744.09448 : 526.18109 : 1"
       inkscape:vp_y="0 : 1000 : 0"
       inkscape:vp_x="363.49708 : 943.81603 : 1"
       sodipodi:type="inkscape:persp3d" />
    <inkscape:perspective
       sodipodi:type="inkscape:persp3d"
       inkscape:vp_x="363.49708 : 943.81603 : 1"
       inkscape:vp_y="0 : 1000 : 0"
       inkscape:vp_z="744.09448 : 526.18109 : 1"
       inkscape:persp3d-origin="372.04724 : 350.78739 : 1"
       id="perspective5056-5-1" />
    <inkscape:perspective
       sodipodi:type="inkscape:persp3d"
       inkscape:vp_x="363.49708 : 943.81603 : 1"
       inkscape:vp_y="0 : 1000 : 0"
       inkscape:vp_z="744.09448 : 526.18109 : 1"
       inkscape:persp3d-origin="372.04724 : 350.78739 : 1"
       id="perspective5056-8-6" />
    <inkscape:perspective
       id="perspective5056-7"
       inkscape:persp3d-origin="372.04724 : 350.78739 : 1"
       inkscape:vp_z="744.09448 : 526.18109 : 1"
       inkscape:vp_y="0 : 1000 : 0"
       inkscape:vp_x="363.49708 : 943.81603 : 1"
       sodipodi:type="inkscape:persp3d" />
    <inkscape:perspective
       sodipodi:type="inkscape:persp3d"
       inkscape:vp_x="363.49708 : 943.81603 : 1"
       inkscape:vp_y="0 : 1000 : 0"
       inkscape:vp_z="744.09448 : 526.18109 : 1"
       inkscape:persp3d-origin="372.04724 : 350.78739 : 1"
       id="perspective5056-1-1" />
    <inkscape:perspective
       id="perspective5056-8-5-82"
       inkscape:persp3d-origin="372.04724 : 350.78739 : 1"
       inkscape:vp_z="744.09448 : 526.18109 : 1"
       inkscape:vp_y="0 : 1000 : 0"
       inkscape:vp_x="363.49708 : 943.81603 : 1"
       sodipodi:type="inkscape:persp3d" />
    <inkscape:perspective
       id="perspective5056-5-2-1"
       inkscape:persp3d-origin="372.04724 : 350.78739 : 1"
       inkscape:vp_z="744.09448 : 526.18109 : 1"
       inkscape:vp_y="0 : 1000 : 0"
       inkscape:vp_x="363.49708 : 943.81603 : 1"
       sodipodi:type="inkscape:persp3d" />
    <inkscape:perspective
       sodipodi:type="inkscape:persp3d"
       inkscape:vp_x="363.49708 : 943.81603 : 1"
       inkscape:vp_y="0 : 1000 : 0"
       inkscape:vp_z="744.09448 : 526.18109 : 1"
       inkscape:persp3d-origin="372.04724 : 350.78739 : 1"
       id="perspective5056-5-46" />
    <inkscape:perspective
       sodipodi:type="inkscape:persp3d"
       inkscape:vp_x="363.49708 : 943.81603 : 1"
       inkscape:vp_y="0 : 1000 : 0"
       inkscape:vp_z="744.09448 : 526.18109 : 1"
       inkscape:persp3d-origin="372.04724 : 350.78739 : 1"
       id="perspective5056-8-92" />
    <inkscape:perspective
       id="perspective5056-3"
       inkscape:persp3d-origin="372.04724 : 350.78739 : 1"
       inkscape:vp_z="744.09448 : 526.18109 : 1"
       inkscape:vp_y="0 : 1000 : 0"
       inkscape:vp_x="363.49708 : 943.81603 : 1"
       sodipodi:type="inkscape:persp3d" />
  </defs>
  <sodipodi:namedview
     id="base"
     pagecolor="#ffffff"
     bordercolor="#666666"
     borderopacity="1.0"
     inkscape:pageopacity="0.0"
     inkscape:pageshadow="2"
     inkscape:zoom="1.242449"
     inkscape:cx="245.18234"
     inkscape:cy="31.811105"
     inkscape:document-units="px"
     inkscape:current-layer="layer8"
     showgrid="false"
     inkscape:window-width="1674"
     inkscape:window-height="983"
     inkscape:window-x="75"
     inkscape:window-y="-2"
     inkscape:window-maximized="0"
     showguides="true"
     inkscape:guide-bbox="true"
     inkscape:snap-grids="false"
     inkscape:snap-to-guides="false"
     showborder="true"
     inkscape:showpageshadow="false"
     fit-margin-top="0"
     fit-margin-left="0"
     fit-margin-right="0"
     fit-margin-bottom="0"
     inkscape:snap-page="false"
     inkscape:snap-global="false" />
  <metadata
     id="metadata7">
    <rdf:RDF>
      <cc:Work
         rdf:about="">
        <dc:format>image/svg+xml</dc:format>
        <dc:type
           rdf:resource="http://purl.org/dc/dcmitype/StillImage" />
        <dc:title />
      </cc:Work>
    </rdf:RDF>
  </metadata>
  <g
     inkscape:groupmode="layer"
     id="layer2"
     inkscape:label="補助線"
     style="display:none"
     sodipodi:insensitive="true">
    <path
       style="fill:none;stroke:#0000ff;stroke-width:1px;stroke-linecap:butt;stroke-linejoin:miter;stroke-opacity:1"
       d="M 10,310 360,10"
       id="path3025"
       inkscape:connector-curvature="0"
       sodipodi:nodetypes="cc" />
    <path
       style="fill:none;stroke:#0000ff;stroke-width:1px;stroke-linecap:butt;stroke-linejoin:miter;stroke-opacity:1"
       d="M 10,10 360,310"
       id="path3027"
       inkscape:connector-curvature="0"
       sodipodi:nodetypes="cc" />
    <path
       style="display:inline;fill:none;stroke:#ff0000;stroke-width:1px;stroke-linecap:butt;stroke-linejoin:miter;stroke-opacity:1"
       d="M 10,0 V 320"
       id="path3006"
       inkscape:connector-curvature="0"
       sodipodi:nodetypes="cc" />
    <path
       style="display:inline;fill:none;stroke:#ff0000;stroke-width:1px;stroke-linecap:butt;stroke-linejoin:miter;stroke-opacity:1"
       d="M 360,0 V 320"
       id="path3010"
       inkscape:connector-curvature="0"
       sodipodi:nodetypes="cc" />
    <path
       style="display:inline;fill:none;stroke:#ff0000;stroke-width:1px;stroke-linecap:butt;stroke-linejoin:miter;stroke-opacity:1"
       d="M 0,9.9999681 370,10"
       id="path3016"
       inkscape:connector-curvature="0" />
    <path
       transform="translate(84.715796,27.711696)"
       style="display:inline;fill:none;stroke:#ff0000;stroke-width:1px;stroke-linecap:butt;stroke-linejoin:miter;stroke-opacity:1"
       d="M -84.715796,282.2883 H 285.2842"
       id="path3018"
       inkscape:connector-curvature="0"
       sodipodi:nodetypes="cc" />
  </g>
  <g
     inkscape:groupmode="layer"
     id="layer14"
     inkscape:label="吹き出し"
     sodipodi:insensitive="true">
    <path
       style="display:inline;opacity:1;fill:#fefefe;fill-opacity:1;stroke:#000000;stroke-width:1.5;stroke-linecap:round;stroke-linejoin:round;stroke-miterlimit:4;stroke-dasharray:none;stroke-dashoffset:0;stroke-opacity:1"
       d="m 82.088771,26.097358 c 37.262779,0 67.470249,57.824731 67.470249,129.155142 0,10.62312 19.99363,26.98863 25.41542,48.48542 -12.52426,-9.55895 -29.65763,-2.65293 -31.30889,4.3836 -10.55295,44.9695 -34.15436,76.2861 -61.576779,76.2861 -37.262777,0 -67.470227,-57.82472 -67.470227,-129.15512 0,-71.330411 30.20745,-129.155142 67.470227,-129.155142 z"
       id="path7611"
       inkscape:connector-curvature="0"
       sodipodi:nodetypes="sscssss" />
    <text
       xml:space="preserve"
       style="font-style:normal;font-variant:normal;font-weight:normal;font-stretch:normal;font-size:19.35318375px;line-height:1.25;font-family:HGMinchoB;-inkscape-font-specification:HGMinchoB;letter-spacing:0px;word-spacing:0px;display:inline;fill:#000000;fill-opacity:1;stroke:none;stroke-width:0.90718043"
       x="52.359356"
       y="64.577568"
       id="text42890"><tspan
         sodipodi:role="line"
         id="tspan42888"
         x="52.359356"
         y="64.577568"
         style="stroke-width:0.90718043">いな土</tspan><tspan
         sodipodi:role="line"
         x="52.359356"
         y="90.163345"
         id="tspan42892"
         style="stroke-width:0.90718043">うに下</tspan><tspan
         sodipodi:role="line"
         x="52.359356"
         y="115.74911"
         id="tspan42894"
         style="stroke-width:0.90718043">話　座</tspan><tspan
         sodipodi:role="line"
         x="52.359356"
         y="141.33488"
         id="tspan42896"
         style="stroke-width:0.90718043">で誰し</tspan><tspan
         sodipodi:role="line"
         x="52.359356"
         y="166.92067"
         id="tspan42898"
         style="stroke-width:0.90718043">はがて</tspan><tspan
         sodipodi:role="line"
         x="52.359356"
         y="192.50644"
         id="tspan42900"
         style="stroke-width:0.90718043">な悪く</tspan><tspan
         sodipodi:role="line"
         x="52.359356"
         y="218.09221"
         id="tspan42902"
         style="stroke-width:0.90718043">いいる</tspan><tspan
         sodipodi:role="line"
         x="52.359356"
         y="243.67798"
         id="tspan42904"
         style="stroke-width:0.90718043">　とよ</tspan><tspan
         sodipodi:role="line"
         x="52.359356"
         y="269.26376"
         id="tspan42906"
         style="stroke-width:0.90718043">　か</tspan></text>
  </g>
  <g
     inkscape:groupmode="layer"
     id="layer8"
     inkscape:label="豚"
     style="display:inline"
     sodipodi:insensitive="true">
    <path
       sodipodi:nodetypes="ccccc"
       inkscape:connector-curvature="0"
       id="path892-6"
       d="m 290.40596,184.38726 12.76812,37.96119 -69.66479,36.06304 -12.37883,-37.4343 z"
       style="display:inline;fill:#deaa87;fill-opacity:1;stroke:#000000;stroke-width:1.5;stroke-linecap:round;stroke-linejoin:round" />
    <path
       sodipodi:nodetypes="cccccc"
       inkscape:connector-curvature="0"
       id="path896-8"
       d="m 225.3801,244.184 4.61341,0.81023 -0.29506,11.32745 -9.90266,19.02852 -13.25136,-6.87813 c 4.4804,-9.43479 11.10389,-17.01839 18.83567,-24.28807 z"
       style="display:inline;fill:#550000;stroke:#000000;stroke-width:1.5;stroke-linecap:round;stroke-linejoin:round;stroke-opacity:1" />
    <path
       sodipodi:nodetypes="csssssssssssssc"
       inkscape:connector-curvature="0"
       id="path6635-6-9-1-1-7-5-8-6"
       d="m 288.61144,191.50938 c -1.4186,5.75586 -3.19436,10.28437 -5.93008,15.09136 -2.35815,4.14357 -48.95289,30.46699 -61.00951,34.34377 -7.11414,2.28753 -19.35292,-0.63068 -22.5734,-6.41004 -4.35477,-7.81491 -6.77889,-15.41947 -9.53413,-21.71405 -3.34978,-7.65288 -10.81451,-26.25415 -11.48841,-38.33029 -0.2551,-4.5706 -0.90534,-16.32286 -0.867,-22.03812 0.032,-4.76574 -3.53901,-15.35845 -4.14297,-19.53344 -0.89016,-6.1527 1.87656,-13.13435 2.44463,-18.71386 1.03909,-10.20576 1.56532,-28.395308 27.1388,-47.328477 23.23036,-17.198453 50.71492,-11.224668 64.18731,-6.908322 11.707,3.750743 37.43368,23.058077 43.35406,38.806948 3.71476,9.881671 9.06802,30.266501 7.94895,44.234001 -1.12395,14.02842 -14.50728,40.90517 -16.60418,48.89961 -2.48625,9.47888 -0.33058,18.41396 1.86913,31.26307"
       style="display:inline;fill:#deaa87;stroke:#000000;stroke-width:1.5;stroke-linecap:round;stroke-linejoin:round;stroke-opacity:1" />
    <path
       sodipodi:nodetypes="sscsscscccscsssccccsssssccscccsssssssssss"
       inkscape:connector-curvature="0"
       id="path5573-3-9-8-0-5-7"
       d="m 180.0695,174.36988 c -0.19896,-3.5849 -0.12339,-19.99194 2.37884,-18.92137 2.18322,0.9341 4.58271,0.0318 7.60873,-0.84659 1.20073,1.8118 -2.34076,9.99685 -6.09245,20.57906 -0.92349,2.60483 -1.07065,8.2376 1.88825,10.58755 1.77587,1.41037 7.33544,6.58232 10.33597,10.52252 -1.25813,-3.6801 0.28823,-4.38153 1.9045,-3.77595 1.24055,0.4648 3.52406,3.04074 4.33952,6.71489 l 16.41578,6.10414 c 0.0893,-3.20045 -2.25286,-14.60174 -5.48131,-22.08276 -0.5664,4.32912 -4.03964,8.07385 -7.49744,8.4595 -4.4418,0.49539 -9.79724,-3.44919 -12.2846,-3.82988 -1.09906,0.67926 -10.58349,-4.82993 -8.2822,-6.7426 0.56615,-0.47055 0.0209,-3.1135 0.48738,-5.0984 1.23808,-5.26803 8.70425,-21.83228 8.70381,-24.55855 -2.2e-4,-1.33183 -0.2158,-13.65833 -5.91613,-13.81766 1.22896,2.17749 4.27301,8.18986 4.57564,11.7462 l -14.39678,-5.74884 c -1.3323,-4.41564 -1.58116,-8.70746 1.24864,-11.23124 -0.45553,-4.67508 -1.63923,-12.11772 -1.37953,-15.88476 1.0385,-15.06335 1.72778,-20.460422 7.35466,-30.386625 6.1757,-10.894365 16.41871,-18.70335 28.99681,-24.251932 18.25958,-8.054851 40.93122,-8.686838 46.99472,15.796744 2.29019,9.247466 -5.80899,39.080263 -8.88607,45.018863 -4.05163,7.81943 -9.55705,15.47487 -14.01727,17.7633 l -14.18521,0.76952 c 5.59314,-0.7733 8.17119,1.79371 11.35356,4.28172 4.02543,3.14713 -0.89663,7.40492 -1.73763,8.57651 l -23.74397,-1.28028 c -0.9655,-3.62396 -0.62718,-5.902 4.91042,-10.35639 -7.61777,1.07016 -8.94993,-4.06864 -12.97662,-3.07355 -1.32081,0.32641 -2.00911,7.17004 -2.00616,9.1165 0.006,4.19552 3.31519,12.53369 7.30566,9.59843 4.06051,-2.98677 4.96725,6.02179 12.71233,8.34259 3.65486,1.09516 13.90917,-2.70757 16.28574,-2.34758 3.57338,0.54127 10.77357,6.02153 11.7755,10.16076 0.76035,3.14125 -6.07164,19.40056 -13.85669,37.2433 -4.75881,10.90686 -9.36738,23.90266 -15.20122,27.53306 -7.45837,4.64134 -13.08597,-0.68615 -17.39006,-3.66388 -5.30768,-3.67205 -10.17712,-23.01373 -15.82209,-34.10169 -4.29461,-8.43557 -5.97751,-18.88725 -6.42303,-26.91463 z"
       style="display:inline;fill:#e9c6af;stroke:none;stroke-width:1.5;stroke-linecap:round;stroke-linejoin:round" />
    <path
       style="display:inline;fill:#fefefe;fill-opacity:1;stroke:none;stroke-width:1.5;stroke-linecap:round;stroke-linejoin:round"
       d="m 189.81974,144.15205 3.38435,4.8052 -8.79927,3.02229 -6.04772,-6.60851 2.06887,-2.57251 z"
       id="path3337-0-4-0-1-8-6-9-1-5"
       inkscape:connector-curvature="0"
       sodipodi:nodetypes="cccccc" />
    <path
       style="display:inline;fill:#fefefe;fill-opacity:1;stroke:none;stroke-width:1.5;stroke-linecap:round;stroke-linejoin:round"
       d="m 213.40672,148.26965 14.10743,1.63551 7.74885,3.41296 -14.01818,4.04232 -10.13107,-5.6494 z"
       id="path3353-4-1-2-2-4-9-8-7-1"
       inkscape:connector-curvature="0"
       sodipodi:nodetypes="cccccc" />
    <path
       sodipodi:nodetypes="cssc"
       inkscape:connector-curvature="0"
       id="path3339-7-3-9-4-5-5-0-7"
       d="m 211.11375,151.71104 c 1.80926,1.30522 2.14547,5.19514 4.92819,5.96093 1.74163,0.47928 9.89126,1.28768 11.4404,0.87549 1.61712,-0.43024 5.42405,-3.54759 7.78066,-5.22934"
       style="display:inline;fill:#fefefe;fill-opacity:1;stroke:#916f6f;stroke-width:1.5;stroke-linecap:round;stroke-linejoin:round;stroke-opacity:1" />
    <path
       sodipodi:nodetypes="sccs"
       inkscape:connector-curvature="0"
       id="path3357-1-2-4-7-5-3-8-6-2"
       d="m 225.58652,157.54649 c 3.61934,0.338 5.86503,-3.10072 5.57153,-6.38334 l -10.47534,-2.1477 c -1.71555,3.94043 1.28935,8.1935 4.90381,8.53104 z"
       style="display:inline;fill:#2b0000;stroke:none;stroke-width:1.5;stroke-linecap:round;stroke-linejoin:round" />
    <path
       sodipodi:nodetypes="cssc"
       inkscape:connector-curvature="0"
       id="path3355-7-9-3-0-3-7-6-7"
       d="m 178.3571,145.37103 c 1.03797,2.19647 1.69687,5.54953 3.31168,6.27613 1.09834,0.49421 5.11387,1.70057 7.20416,1.53881 1.01869,-0.0789 3.73978,-3.62404 4.33115,-4.22872"
       style="display:inline;fill:#fefefe;fill-opacity:1;stroke:#916f6f;stroke-width:1.5;stroke-linecap:round;stroke-linejoin:round;stroke-opacity:1" />
    <path
       sodipodi:nodetypes="csccc"
       inkscape:connector-curvature="0"
       id="path3357-0-8-6-7-0-2-0-0"
       d="m 183.54711,143.03683 c -0.14127,3.61084 0.65798,7.20949 3.5835,8.07869 2.78529,0.82754 4.5277,-2.28883 4.89172,-4.36676 l -2.0901,-2.40966 z"
       style="display:inline;fill:#2b0000;stroke:none;stroke-width:1.5;stroke-linecap:round;stroke-linejoin:round" />
    <path
       sodipodi:nodetypes="csssccc"
       inkscape:connector-curvature="0"
       id="path6629-0-6-3-5-0-4-2-01"
       d="m 191.99074,139.16112 c 1.64253,3.78447 2.73815,9.68734 2.49864,12.32464 -0.40711,4.48296 -7.46205,20.95832 -8.84222,24.2733 -0.68759,1.65151 -0.85251,5.31285 -0.14387,7.09598 1.10928,2.79125 6.44182,3.60006 9.05346,6.45565 m 2.7497,1.2e-4 c 2.68826,0.953 8.61258,1.77724 10.71963,3.91756"
       style="display:inline;fill:none;stroke:#000000;stroke-width:1.5;stroke-linecap:round;stroke-linejoin:round;stroke-opacity:1" />
    <path
       sodipodi:nodetypes="sssssssss"
       inkscape:connector-curvature="0"
       id="path6633-4-0-6-4-8-5-4-4"
       d="m 191.95439,192.1432 c 1.33565,-0.77455 2.51156,2.23011 5.94508,2.73768 4.65045,0.68734 6.14492,-1.88169 7.70215,-1.1146 6.57215,3.23819 18.88831,10.5144 20.15884,13.82716 1.28364,3.34657 1.04985,9.55361 -0.97399,8.82467 -6.52161,-2.34896 -18.82095,-6.474 -26.53302,-7.61863 -4.19731,-0.62297 -8.27849,0.71783 -11.32857,0.45475 -0.96808,-0.0835 -4.54859,-7.84033 -3.19518,-9.62196 1.96153,-2.58216 6.19233,-6.31047 8.22469,-7.48907 z"
       style="display:inline;fill:#000000;stroke:none;stroke-width:1.5;stroke-linecap:round;stroke-linejoin:round" />
    <path
       sodipodi:nodetypes="cc"
       inkscape:connector-curvature="0"
       id="path6643-0-0-5-2-6-1-6-0"
       d="m 200.63732,140.47256 c -0.27986,2.09991 -0.18106,5.67875 0.68044,7.92911"
       style="display:inline;fill:none;stroke:#000000;stroke-width:1.5;stroke-linecap:round;stroke-linejoin:round;stroke-opacity:1" />
    <path
       sodipodi:nodetypes="ssssss"
       inkscape:connector-curvature="0"
       id="path6645-7-0-4-0-3-7-5-7"
       d="m 206.67588,144.04189 c 5.6069,0.96672 10.69212,-1.42832 20.43193,-2.11443 7.63953,-0.53816 22.89352,0.91809 19.67197,0.50041 -2.54202,-0.32958 -11.83721,-3.00926 -19.93705,-3.0215 -4.81912,-0.007 -11.6894,0.63171 -15.78331,1.17156 -4.22723,0.55743 -14.93365,1.64497 -4.38354,3.46396 z"
       style="display:inline;fill:#000000;stroke:none;stroke-width:1.5;stroke-linecap:round;stroke-linejoin:round" />
    <path
       sodipodi:nodetypes="sssss"
       inkscape:connector-curvature="0"
       id="path6647-1-6-2-0-5-1-0-1"
       d="m 173.23256,128.45661 c 1.54248,-0.51728 6.95153,2.42416 10.91965,4.36721 4.65649,2.28012 9.89969,8.22182 7.92634,8.36495 -4.65453,0.33757 -6.81376,-4.11807 -10.23834,-6.6961 -4.74616,-3.57291 -10.54315,-5.387 -8.60765,-6.03606 z"
       style="display:inline;fill:#000000;stroke:none;stroke-width:1.5;stroke-linecap:round;stroke-linejoin:round" />
    <path
       sodipodi:nodetypes="cc"
       inkscape:connector-curvature="0"
       id="path6649-7-1-0-1-6-1-9-7"
       d="m 213.35137,183.33206 c 1.01083,2.79994 1.21866,8.20312 -2.59117,9.49921"
       style="display:inline;fill:none;stroke:#000000;stroke-width:1.5;stroke-linecap:round;stroke-linejoin:round;stroke-opacity:1" />
    <path
       sodipodi:nodetypes="cssc"
       inkscape:connector-curvature="0"
       id="path3337-7-8-7-6-8-2-0-7"
       d="m 210.46256,152.46634 c 1.36617,-1.15657 1.28397,-3.7168 2.94416,-4.19669 1.48648,-0.42968 9.77331,0.78288 14.10743,1.63551 2.72288,0.53566 6.21935,2.23999 9.65962,4.12162"
       style="display:inline;fill:none;stroke:#000000;stroke-width:1.5;stroke-linecap:round;stroke-linejoin:round;stroke-opacity:1" />
    <path
       sodipodi:nodetypes="cssc"
       inkscape:connector-curvature="0"
       id="path3353-3-3-7-7-9-6-1-3"
       d="m 177.50483,146.32998 c 1.02124,-1.31786 1.18279,-3.68493 2.92114,-3.53146 2.35347,0.20776 6.85571,0.64239 9.39377,1.35353 2.02197,0.56653 2.78076,4.34963 4.22797,5.90365"
       style="display:inline;fill:none;stroke:#000000;stroke-width:1.5;stroke-linecap:round;stroke-linejoin:round;stroke-opacity:1" />
    <path
       sodipodi:nodetypes="sssss"
       inkscape:connector-curvature="0"
       id="path6710-3-4-7-4-0-6-2-4-9"
       d="m 214.67551,218.11812 c 0.65526,-2.10938 -5.14008,-3.87185 -9.85854,-5.20356 -4.90544,-1.38445 -9.21334,-1.45489 -9.00745,0.27712 0.40637,3.41888 3.11862,6.3852 8.81758,8.05019 4.74913,1.3875 9.06907,0.0295 10.04841,-3.12375 z"
       style="display:inline;fill:#deaa87;stroke:none;stroke-width:1.5;stroke-linecap:round;stroke-linejoin:round" />
    <path
       style="display:inline;fill:#dbdbe3;fill-opacity:1;stroke:#000000;stroke-width:1.5;stroke-linecap:round;stroke-linejoin:round;stroke-opacity:1"
       d="m 219.18551,273.05687 6.44551,-31.89977 c 21.21264,-14.16056 63.61581,-31.20259 77.27052,-25.40452 l 8.15867,22.05959 c -32.04679,-0.37348 -58.15689,29.0225 -91.8747,35.2447 z"
       id="path3791-4"
       inkscape:connector-curvature="0"
       sodipodi:nodetypes="ccccc" />
    <path
       style="display:inline;fill:#1c1f24;stroke:#000000;stroke-width:1.5;stroke-linecap:round;stroke-linejoin:round;stroke-opacity:1"
       d="m 153.64819,319.12173 c 0,0 7.51435,-15.42297 9.91535,-22.31932 2.88963,-8.29988 9.8973,-10.8028 17.47804,-15.24915 12.94475,-7.59254 30.78239,-19.57442 41.46556,-23.95987 l 61.63895,-28.20387 29.24665,9.70135 c 8.76795,4.42724 30.21051,16.89319 43.88653,24.72414 5.11982,2.93163 10.64788,5.62651 11.10609,9.60675 C 369.54555,283.49969 360,310 360,310"
       id="path3771"
       inkscape:connector-curvature="0"
       sodipodi:nodetypes="csscccssc" />
    <path
       style="display:inline;fill:#1c1f24;stroke:#000000;stroke-width:1.5;stroke-linecap:round;stroke-linejoin:round;stroke-opacity:1"
       d="m 209.96267,263.82666 c 6.2571,-5.74609 11.07551,-11.9448 14.12067,-17.15557 21.21264,-14.16056 69.7921,-28.5969 83.44681,-22.79883 l 6.88233,16.71012 c -32.04679,-0.37348 -74.75631,6.9613 -104.44981,23.24428 z"
       id="path3791"
       inkscape:connector-curvature="0"
       sodipodi:nodetypes="ccccc" />
    <text
       xml:space="preserve"
       style="font-style:normal;font-variant:normal;font-weight:normal;font-stretch:normal;font-size:19.35318375px;line-height:1.25;font-family:HGMinchoB;-inkscape-font-specification:HGMinchoB;letter-spacing:0px;word-spacing:0px;display:inline;fill:#000000;fill-opacity:1;stroke:none;stroke-width:0.90718043;stroke-linejoin:round"
       x="61.368172"
       y="105.98241"
       id="text42890-3"><tspan
         sodipodi:role="line"
         x="61.368172"
         y="105.98241"
         id="tspan42904-3"
         style="stroke-width:0.90718043;stroke-linejoin:round">　、</tspan><tspan
         sodipodi:role="line"
         x="61.368172"
         y="130.17389"
         style="stroke-width:0.90718043;stroke-linejoin:round"
         id="tspan42993"></tspan><tspan
         sodipodi:role="line"
         x="61.368172"
         y="154.36537"
         style="stroke-width:0.90718043;stroke-linejoin:round"
         id="tspan42995"></tspan><tspan
         sodipodi:role="line"
         x="61.368172"
         y="178.55684"
         style="stroke-width:0.90718043;stroke-linejoin:round"
         id="tspan42997"></tspan><tspan
         sodipodi:role="line"
         x="61.368172"
         y="202.74832"
         style="stroke-width:0.90718043;stroke-linejoin:round"
         id="tspan42999"></tspan><tspan
         sodipodi:role="line"
         x="61.368172"
         y="228.33411"
         style="stroke-width:0.90718043;stroke-linejoin:round"
         id="tspan43001">。</tspan><tspan
         sodipodi:role="line"
         x="61.368172"
         y="253.91988"
         style="stroke-width:0.90718043;stroke-linejoin:round"
         id="tspan43003">　　。</tspan><tspan
         sodipodi:role="line"
         x="61.368172"
         y="278.11136"
         id="tspan42906-2"
         style="stroke-width:0.90718043;stroke-linejoin:round" /></text>
    <g
       transform="matrix(1.1896128,0.07435812,0,1.1896128,129.30486,20.660149)"
       id="g2672"
       style="display:inline;stroke:#000000;stroke-width:1.26091444">
      <path
         style="display:inline;opacity:0.95;fill:#241c1c;stroke:#000000;stroke-width:1.26091444;stroke-linecap:round;stroke-linejoin:round"
         d="M 97.765005,103.69225 141.41762,91.481193 c 8.46547,-2.368067 8.28581,13.767767 8.92149,21.609857 0.33723,4.16026 -4.20781,11.10815 -4.31011,5.1299 -0.12323,-7.20144 3.1678,-26.967459 -3.57382,-24.485757 L 98.471955,109.15077 Z"
         id="path6942"
         inkscape:connector-curvature="0"
         sodipodi:nodetypes="csssscc" />
      <path
         style="display:inline;opacity:0.8;fill:#280b0b;stroke:#000000;stroke-width:1.26091444;stroke-linecap:round;stroke-linejoin:round"
         d="m 33.850627,93.827422 c 5.699627,0.124024 16.270403,1.916838 19.462226,4.311057 2.175606,1.631944 4.761508,0.84788 8.266857,0.35011 8.711605,-1.237046 26.633799,2.677701 36.185295,5.203661 0.62619,1.13034 0.78872,4.11175 0.70695,5.45852 -7.889683,4.72235 -22.053206,7.23957 -26.072754,6.89262 -4.493029,-0.38781 -8.240591,-5.60443 -11.033945,-7.66224 -1.544668,-1.13792 -7.124276,-1.33637 -8.080514,-0.82223 -2.551013,1.3716 -5.204346,5.4831 -8.047099,5.65491 -4.324515,0.26136 -8.822366,-6.88554 -11.491108,-13.497321 -0.205647,-1.422519 -0.273302,-4.234202 0.104092,-5.889087 z"
         id="path6944"
         inkscape:connector-curvature="0"
         sodipodi:nodetypes="cssccsssscc" />
    </g>
    <g
       id="g44328">
      <path
         style="display:inline;fill:#deaa87;stroke:#000000;stroke-width:1.5;stroke-linecap:round;stroke-linejoin:round;stroke-opacity:1"
         d="m 291.92255,186.30033 c 2.94776,-3.69145 13.58165,2.17036 17.65798,-6.67007 2.58683,-5.61015 6.02056,-9.45112 8.58346,-20.64495 2.54143,-11.10013 -0.52856,-17.2016 -3.89524,-18.68869 -5.72119,-2.52706 -10.61228,0.28143 -14.84853,3.477"
         id="path6637-1-1-2-1-4-1-3-3"
         inkscape:connector-curvature="0"
         sodipodi:nodetypes="csssc" />
      <path
         style="display:inline;opacity:0.95;fill:none;stroke:#000000;stroke-width:1.5;stroke-linecap:round;stroke-linejoin:round;stroke-opacity:1"
         d="m 306.18931,172.42344 c -1.24134,-2.6868 -5.25492,-5.47634 -5.8448,-9.31992 -0.55895,-3.64197 -1.48862,-7.34266 -0.27122,-9.77211 1.84153,-3.67484 8.03736,-9.51194 11.19202,-9.01776 2.52979,0.39629 4.225,2.49928 4.6464,6.38215 1.03295,9.51748 -5.67905,22.00547 -11.53853,22.59426 -3.28425,0.33002 -8.4058,6.37329 -9.4822,4.36175 -1.05509,-1.97186 2.66327,-5.48488 3.19976,-7.32943 0.32327,-1.11131 -2.30652,-5.02745 -2.40232,-7.89337"
         id="path6639-8-8-6-7-8-4-8-5"
         inkscape:connector-curvature="0"
         sodipodi:nodetypes="csssssssc" />
    </g>
  </g>
  <g
     inkscape:groupmode="layer"
     id="layer7"
     inkscape:label="枠面"
     style="display:inline"
     sodipodi:insensitive="true">
    <path
       style="display:inline;fill:#ffffff;stroke:none"
       d="M 0,0 V 320 H 370 V 0 L 360,10 V 310 H 10 V 10 H 360 L 370,0 Z"
       id="path21072"
       inkscape:connector-curvature="0"
       sodipodi:nodetypes="ccccccccccc" />
  </g>
</svg>
