<?xml version="1.0" encoding="UTF-8" standalone="no"?>
<!-- Created with Inkscape (http://www.inkscape.org/) -->

<svg
   xmlns:dc="http://purl.org/dc/elements/1.1/"
   xmlns:cc="http://creativecommons.org/ns#"
   xmlns:rdf="http://www.w3.org/1999/02/22-rdf-syntax-ns#"
   xmlns:svg="http://www.w3.org/2000/svg"
   xmlns="http://www.w3.org/2000/svg"
   xmlns:sodipodi="http://sodipodi.sourceforge.net/DTD/sodipodi-0.dtd"
   xmlns:inkscape="http://www.inkscape.org/namespaces/inkscape"
   width="370"
   height="320"
   id="svg3172"
   version="1.1"
   inkscape:version="0.92.3 (2405546, 2018-03-11)"
   sodipodi:docname="[24]焦眉.svg"
   inkscape:export-filename="C:\Users\zhen-\Desktop\資料\臨時\HOSHI\24.png"
   inkscape:export-xdpi="96"
   inkscape:export-ydpi="96">
  <defs
     id="defs3174" />
  <sodipodi:namedview
     id="base"
     pagecolor="#ffffff"
     bordercolor="#666666"
     borderopacity="1.0"
     inkscape:pageopacity="0.0"
     inkscape:pageshadow="2"
     inkscape:zoom="1.4142136"
     inkscape:cx="264.14942"
     inkscape:cy="190.74193"
     inkscape:document-units="px"
     inkscape:current-layer="layer6"
     showgrid="false"
     inkscape:window-width="1308"
     inkscape:window-height="989"
     inkscape:window-x="556"
     inkscape:window-y="-1"
     inkscape:window-maximized="0"
     inkscape:snap-global="true"
     showguides="false" />
  <metadata
     id="metadata3177">
    <rdf:RDF>
      <cc:Work
         rdf:about="">
        <dc:format>image/svg+xml</dc:format>
        <dc:type
           rdf:resource="http://purl.org/dc/dcmitype/StillImage" />
        <dc:title />
      </cc:Work>
    </rdf:RDF>
  </metadata>
  <g
     inkscape:label="補助線"
     inkscape:groupmode="layer"
     id="layer1"
     transform="translate(0,-732.36218)"
     sodipodi:insensitive="true"
     style="display:none">
    <path
       style="display:inline;fill:none;stroke:#0000ff;stroke-width:1px;stroke-linecap:butt;stroke-linejoin:miter;stroke-opacity:1"
       d="M 10,1042.3622 360,742.36211"
       id="path3025"
       inkscape:connector-curvature="0"
       sodipodi:nodetypes="cc" />
    <path
       style="display:inline;fill:none;stroke:#0000ff;stroke-width:1px;stroke-linecap:butt;stroke-linejoin:miter;stroke-opacity:1"
       d="M 10,742.36211 360,1042.3622"
       id="path3027"
       inkscape:connector-curvature="0"
       sodipodi:nodetypes="cc" />
    <path
       style="display:inline;fill:none;stroke:#ff0000;stroke-width:1px;stroke-linecap:butt;stroke-linejoin:miter;stroke-opacity:1"
       d="M 10,732.36211 V 1052.3622"
       id="path3006"
       inkscape:connector-curvature="0"
       sodipodi:nodetypes="cc" />
    <path
       style="display:inline;fill:none;stroke:#ff0000;stroke-width:1px;stroke-linecap:butt;stroke-linejoin:miter;stroke-opacity:1"
       d="M 360,732.36211 V 1052.3622"
       id="path3010"
       inkscape:connector-curvature="0"
       sodipodi:nodetypes="cc" />
    <path
       style="display:inline;fill:none;stroke:#ff0000;stroke-width:1px;stroke-linecap:butt;stroke-linejoin:miter;stroke-opacity:1"
       d="m 0,742.36208 370,3e-5"
       id="path3016"
       inkscape:connector-curvature="0" />
    <path
       style="display:inline;fill:none;stroke:#ff0000;stroke-width:1px;stroke-linecap:butt;stroke-linejoin:miter;stroke-opacity:1"
       d="M 0,1042.3622 H 370"
       id="path3018"
       inkscape:connector-curvature="0"
       sodipodi:nodetypes="cc" />
  </g>
  <g
     inkscape:label="作業"
     id="g8070"
     inkscape:groupmode="layer"
     sodipodi:insensitive="true"
     style="display:none">
    <path
       sodipodi:nodetypes="ccccc"
       inkscape:connector-curvature="0"
       id="path8084"
       d="M -1425,-27 275.67619,104.45317 940,-27 277.0904,106.14146 Z"
       style="display:inline;fill:none;stroke:#0000ff;stroke-width:0.1;stroke-linecap:butt;stroke-linejoin:miter;stroke-opacity:1" />
    <path
       sodipodi:nodetypes="ccccc"
       inkscape:connector-curvature="0"
       id="path8086"
       d="M -1425,-27 278.47726,107.358 940,-27 279.71837,103.7505 Z"
       style="display:inline;fill:none;stroke:#008080;stroke-width:0.1;stroke-linecap:butt;stroke-linejoin:miter;stroke-opacity:1" />
    <g
       id="g8088">
      <path
         style="fill:#28170b;stroke:none"
         d="m 89.000376,295.37323 v 13.002 L -199.44062,244.4816 v -10.52537 z"
         id="path8090"
         inkscape:connector-curvature="0"
         sodipodi:nodetypes="ccccc" />
      <path
         style="fill:#784421;stroke:none"
         d="m 242.29236,237.30199 -269.679377,-42.75106 -172.052623,39.40306 288.441003,61.417 z"
         id="path8092"
         inkscape:connector-curvature="0"
         sodipodi:nodetypes="ccccc" />
      <path
         style="fill:#502d16;stroke:none"
         d="m 88.998557,295.37222 153.291003,-58.069 v 10.66 l -153.291003,60.411 z"
         id="path8094"
         inkscape:connector-curvature="0"
         sodipodi:nodetypes="ccccc" />
      <path
         style="fill:none;stroke:#000000;stroke-width:2;stroke-linecap:round;stroke-miterlimit:4;stroke-dashoffset:0;stroke-opacity:1"
         d="M -199.441,244.48037 V 233.955 L -27.388383,194.55194 242.291,237.303 v 10.66 L 89,308.374 Z"
         id="path8096"
         inkscape:connector-curvature="0"
         sodipodi:nodetypes="ccccccc" />
      <path
         style="fill:none;stroke:#000000;stroke-width:2;stroke-linecap:round;stroke-miterlimit:4;stroke-dashoffset:0;stroke-opacity:1"
         d="M -199.441,233.955 89,295.372"
         id="path8098"
         inkscape:connector-curvature="0"
         sodipodi:nodetypes="cc" />
      <path
         style="fill:none;stroke:#000000;stroke-width:2;stroke-linecap:round;stroke-miterlimit:4;stroke-dashoffset:0;stroke-opacity:1"
         d="M 242.291,237.303 89,295.372 v 13.002"
         id="path8100"
         inkscape:connector-curvature="0"
         sodipodi:nodetypes="ccc" />
    </g>
    <path
       sodipodi:nodetypes="ccccc"
       inkscape:connector-curvature="0"
       id="path8104"
       d="M -1425,-27 276.67995,106.87399 940,-27 274.47942,109.2669 Z"
       style="display:inline;fill:none;stroke:#0000ff;stroke-width:0.1;stroke-linecap:butt;stroke-linejoin:miter;stroke-opacity:1" />
    <path
       sodipodi:nodetypes="ccccc"
       inkscape:connector-curvature="0"
       id="path8106"
       d="M -1425,-27 289.87689,102.43314 940,-27 279.06055,102.95271 Z"
       style="display:inline;fill:none;stroke:#0000ff;stroke-width:0.1;stroke-linecap:butt;stroke-linejoin:miter;stroke-opacity:1" />
    <path
       sodipodi:nodetypes="ccc"
       inkscape:connector-curvature="0"
       id="path8108"
       d="M 215.234,297.854 940,-7 213.558,301.692"
       style="display:inline;fill:none;stroke:#008000;stroke-width:0.1;stroke-linecap:round;stroke-miterlimit:4;stroke-dashoffset:0;stroke-opacity:1" />
    <path
       sodipodi:nodetypes="ccc"
       inkscape:connector-curvature="0"
       id="path8110"
       d="M 219.058,302.344 940,-6.9765625 209.234,296.961"
       style="display:inline;fill:none;stroke:#008000;stroke-width:0.1;stroke-linecap:round;stroke-miterlimit:4;stroke-dashoffset:0;stroke-opacity:1" />
    <path
       sodipodi:nodetypes="ccc"
       inkscape:connector-curvature="0"
       id="path8112"
       d="M 205.617,291.008 940,-7 214.441,306.346"
       style="display:inline;fill:none;stroke:#008000;stroke-width:0.1;stroke-linecap:round;stroke-miterlimit:4;stroke-dashoffset:0;stroke-opacity:1" />
    <path
       sodipodi:nodetypes="ccc"
       inkscape:connector-curvature="0"
       id="path8114"
       d="M -31.897191,296.48119 1810,5520 -39.925705,297.94917"
       style="display:inline;fill:none;stroke:#008000;stroke-width:0.1;stroke-linecap:round;stroke-miterlimit:4;stroke-dashoffset:0;stroke-opacity:1" />
    <path
       sodipodi:nodetypes="ccc"
       inkscape:connector-curvature="0"
       id="path8116"
       d="M -32.558879,300.49485 1810,5520 -36.185259,299.69105"
       style="display:inline;fill:none;stroke:#ff00ff;stroke-width:0.1;stroke-linecap:round;stroke-miterlimit:4;stroke-dashoffset:0;stroke-opacity:1" />
    <path
       sodipodi:nodetypes="ccc"
       inkscape:connector-curvature="0"
       id="path8118"
       d="M -78.566239,150.81679 2200,-1680 -79.864542,144.66148"
       style="display:inline;fill:none;stroke:#008000;stroke-width:0.1;stroke-linecap:round;stroke-miterlimit:4;stroke-dashoffset:0;stroke-opacity:1" />
    <path
       sodipodi:nodetypes="ccc"
       inkscape:connector-curvature="0"
       id="path8120"
       d="M -89.400286,145.94746 2200,-1680 -75.281228,150.69341"
       style="display:inline;fill:none;stroke:#008000;stroke-width:0.1;stroke-linecap:round;stroke-miterlimit:4;stroke-dashoffset:0;stroke-opacity:1" />
    <g
       id="g8122">
      <path
         style="display:inline;fill:#916f6f;stroke:none"
         d="m 111.05702,253.69152 v 5.052 L 5.233017,239.05752 v -4.704 z"
         id="path8124"
         inkscape:connector-curvature="0"
         sodipodi:nodetypes="ccccc" />
      <path
         style="display:inline;fill:#c8b7b7;stroke:none"
         d="m 19.624321,230.63795 105.123999,18.748 -13.69,4.306 -105.8239992,-19.338 z"
         id="path8126"
         inkscape:connector-curvature="0"
         sodipodi:nodetypes="ccccc" />
      <path
         style="display:inline;fill:#6c5353;stroke:none"
         d="m 125.9899,249.63701 -1.239,-0.252 -103.821996,-18.487 33.89122,-8.771 103.278776,17.387 z"
         id="path8128"
         inkscape:connector-curvature="0"
         sodipodi:nodetypes="cccccc" />
      <path
         style="display:inline;fill:#916f6f;stroke:none"
         d="m 158.09669,239.514 -103.279001,-17.387 0.736,-0.766 103.238001,17.318 z"
         id="path8130"
         inkscape:connector-curvature="0"
         sodipodi:nodetypes="ccccc" />
      <path
         style="display:inline;fill:#c8b7b7;stroke:none"
         d="m 158.78814,238.67736 18.894,-5.941 -102.104997,-16.548 -20.027,5.171 z"
         id="path8132"
         inkscape:connector-curvature="0"
         sodipodi:nodetypes="ccccc" />
      <path
         style="display:inline;fill:#ac9393;stroke:none"
         d="m 158.79126,238.68102 -0.695,0.835 -32.109,10.123 -1.239,-0.252 -13.69,4.306 v 5.052 l 66.627,-22.966 v -3.039 z"
         id="path8134"
         inkscape:connector-curvature="0"
         sodipodi:nodetypes="ccccccccc" />
      <path
         style="display:inline;fill:none;stroke:#000000;stroke-width:2;stroke-linecap:round;stroke-miterlimit:4;stroke-dashoffset:0;stroke-opacity:1"
         d="m 19.624,230.638 -14.39,3.716 v 4.704 l 105.824,19.686 66.627,-22.966 v -3.039 L 75.58,216.191 55.553,221.362 54.817437,222.128 20.926,230.899 Z"
         id="path8136"
         inkscape:connector-curvature="0"
         sodipodi:nodetypes="ccccccccccc" />
      <path
         style="display:inline;fill:none;stroke:#000000;stroke-width:2;stroke-linecap:round;stroke-miterlimit:4;stroke-dashoffset:0;stroke-opacity:1"
         d="m 5.234,234.354 105.824,19.338 13.69,-4.306 1.239,0.252 32.109,-10.123 0.695,-0.835 18.894,-5.941"
         id="path8138"
         inkscape:connector-curvature="0"
         sodipodi:nodetypes="ccccccc" />
      <path
         style="display:inline;fill:none;stroke:#000000;stroke-width:2;stroke-linecap:butt;stroke-linejoin:miter;stroke-opacity:1"
         d="M 55.553,221.362 158.791,238.68"
         id="path8140"
         inkscape:connector-curvature="0"
         sodipodi:nodetypes="cc" />
      <path
         style="display:inline;fill:none;stroke:#000000;stroke-width:2;stroke-linecap:butt;stroke-linejoin:miter;stroke-opacity:1"
         d="m 54.817,222.128 103.279,17.387"
         id="path8142"
         inkscape:connector-curvature="0"
         sodipodi:nodetypes="cc" />
      <path
         style="display:inline;fill:none;stroke:#000000;stroke-width:2;stroke-linecap:butt;stroke-linejoin:miter;stroke-opacity:1"
         d="m 5.234,234.354 14.39,-3.716 105.124,18.748"
         id="path8144"
         inkscape:connector-curvature="0"
         sodipodi:nodetypes="ccc" />
    </g>
    <g
       id="g8188">
      <path
         style="display:inline;fill:#ac9393;stroke:none"
         d="m 81.946835,182.63768 23.084005,71.294 2.715,-2.505 -23.016005,-71.236 z"
         id="path8190"
         inkscape:connector-curvature="0"
         sodipodi:nodetypes="ccccc" />
      <path
         style="display:inline;fill:#c8b7b7;stroke:none"
         d="m 81.946976,182.63563 -105.243,-14.641 2.716,-2.258 105.31,14.452 z"
         id="path8192"
         inkscape:connector-curvature="0"
         sodipodi:nodetypes="ccccc" />
      <path
         style="display:inline;fill:#916f6f;stroke:none"
         d="m 81.946992,182.63624 23.083998,71.294 -105.52699836,-19.376 -22.79999964,-66.559 z"
         id="path8194"
         inkscape:connector-curvature="0"
         sodipodi:nodetypes="ccccc" />
      <path
         style="display:inline;fill:none;stroke:#000000;stroke-width:2;stroke-linecap:round;stroke-miterlimit:4;stroke-dashoffset:0;stroke-opacity:1"
         d="m 105.031,253.931 -105.527,-19.376 -22.8,-66.559 2.716,-2.258 105.31,14.452 23.016,71.236 z"
         id="path8196"
         inkscape:connector-curvature="0"
         sodipodi:nodetypes="ccccccc" />
      <path
         style="display:inline;fill:none;stroke:#000000;stroke-width:2;stroke-linecap:round;stroke-miterlimit:4;stroke-dashoffset:0;stroke-opacity:1"
         d="m -23.296,167.996 105.243,14.641 23.084,71.294"
         id="path8198"
         inkscape:connector-curvature="0"
         sodipodi:nodetypes="ccc" />
    </g>
  </g>
  <g
     inkscape:groupmode="layer"
     id="layer7"
     inkscape:label="椅子"
     sodipodi:insensitive="true"
     style="display:inline">
    <g
       style="display:inline"
       id="g7490"
       transform="matrix(1,0.02131459,0,1,126.73739,-49.805001)">
      <path
         sodipodi:nodetypes="sssss"
         inkscape:connector-curvature="0"
         id="path7910-8"
         d="m 135.50043,136.0001 c 16.10276,-3.99205 68.93646,-4.54624 96.71142,9.11092 19.32761,9.50353 34.48378,66.77659 12.78858,82.38908 -16.37765,11.78583 -93.60314,-3.2165 -107,-17 -11.1784,-11.50101 -21.52065,-69.78457 -2.5,-74.5 z"
         style="fill:#ac9d93;stroke:none" />
      <path
         sodipodi:nodetypes="sssss"
         inkscape:connector-curvature="0"
         id="path7910-4"
         d="m 232.21226,145.11008 c 20.09285,7.75573 33.94316,68.13103 12.78858,82.38908 -8.59563,5.7934 -14.88141,-7.10905 -15.08972,-13.87476 -0.48921,-15.88896 -0.67331,-32.01236 -5.57778,-44.38836 -3.505,-8.84454 -0.30039,-27.28313 7.87892,-24.12596 z"
         style="fill:#917c6f;stroke:none" />
      <path
         sodipodi:nodetypes="sssss"
         inkscape:connector-curvature="0"
         id="path7910"
         d="m 135.5,136 c 16.10276,-3.99205 68.93646,-4.54624 96.71142,9.11092 19.32761,9.50353 34.48378,66.77659 12.78858,82.38908 -16.37765,11.78583 -93.60314,-3.2165 -107,-17 -11.1784,-11.50101 -21.52065,-69.78457 -2.5,-74.5 z"
         style="fill:none;stroke:#000000;stroke-width:2;stroke-linecap:butt;stroke-linejoin:miter;stroke-opacity:1" />
      <path
         sodipodi:nodetypes="sssss"
         inkscape:connector-curvature="0"
         id="path7910-0"
         d="m 135.50367,136.00382 c 16.10276,-3.99205 68.93646,-4.54624 96.71142,9.11092 19.32761,9.50353 34.48378,66.77659 12.78858,82.38908 -16.37765,11.78583 -93.60314,-3.2165 -107,-17 -11.1784,-11.50101 -21.52065,-69.78457 -2.5,-74.5 z"
         style="opacity:0.5;fill:#000000;stroke:none" />
    </g>
  </g>
  <g
     style="display:none"
     inkscape:label="豚.old.01"
     id="g9614"
     inkscape:groupmode="layer"
     sodipodi:insensitive="true">
    <path
       style="display:inline;fill:#1c1f24;stroke:#000000;stroke-width:1.5;stroke-linecap:round;stroke-linejoin:round;stroke-opacity:1"
       d="m 203.28994,201.48978 c 7.95633,-25.60972 17.85425,-55.19701 19.38583,-67.37927 1.4033,-11.16188 2.07854,-30.73951 10.57359,-28.72323 7.06711,1.67737 19.15284,24.8247 16.73456,38.98804 -3.72207,21.79939 -8.26851,41.80845 -13.09079,60.39425"
       id="path9508"
       inkscape:connector-curvature="0"
       sodipodi:nodetypes="csssc" />
    <path
       style="display:inline;opacity:0.95;fill:#241c1c;stroke:#000000;stroke-width:1.5;stroke-linecap:round;stroke-linejoin:round"
       d="m 228.175,80.505878 17.89957,-10.195734 c 4.7372,-2.698351 6.20411,4.905893 6.67279,9.416027 0.26828,2.581669 -1.38653,3.34086 -1.954,1.513092 -1.08483,-3.494223 -0.17661,-11.795537 -3.91187,-9.412041 l -18.30236,11.678906 z"
       id="path9510"
       inkscape:connector-curvature="0"
       sodipodi:nodetypes="csssscc" />
    <path
       sodipodi:nodetypes="ccccc"
       inkscape:connector-curvature="0"
       id="path9512"
       d="m 245.57284,107.11492 51.35924,-14.536747 3.18791,10.705137 -28.18724,30.84679 z"
       style="display:inline;fill:#deaa87;stroke:none;stroke-width:1.5;stroke-linecap:round;stroke-linejoin:round" />
    <path
       style="display:inline;fill:#dbdee3;stroke:none;stroke-width:1.5;stroke-linecap:round;stroke-linejoin:round"
       d="m 297.34153,123.89091 -44.9296,5.02759 26.77366,70.23638 z"
       id="path9514"
       inkscape:connector-curvature="0"
       sodipodi:nodetypes="cccc" />
    <path
       sodipodi:nodetypes="cccccc"
       style="display:inline;fill:#550000;stroke:#000000;stroke-width:1.5;stroke-linecap:round;stroke-linejoin:round;stroke-opacity:1"
       d="m 269.88962,141.41373 c -0.32268,17.06659 3.28741,40.33967 5.98139,59.49914 l 6.77712,16.26636 7.25324,-14.66841 c -6.71521,-20.09609 -11.12272,-38.74155 -13.3597,-59.95721 z"
       id="path9516"
       inkscape:connector-curvature="0" />
    <path
       sodipodi:nodetypes="ccccccc"
       style="display:inline;fill:#550000;stroke:#000000;stroke-width:1.5;stroke-linecap:round;stroke-linejoin:round;stroke-opacity:1"
       d="m 265.77106,125.95168 11.3409,-0.18864 3.52881,6.68149 c -1.63785,3.44538 -2.38913,6.71965 -3.97693,10.1271 -2.3855,0.80346 -5.23481,0.9584 -6.94382,-1.00315 -2.57684,-4.022 -5.66817,-8.11977 -6.31606,-12.18341 z"
       id="path9518"
       inkscape:connector-curvature="0" />
    <path
       sodipodi:nodetypes="ccccc"
       inkscape:connector-curvature="0"
       id="path9520"
       d="m 296.8604,90.434039 c 1.66703,7.91015 -2.63437,21.919301 -25.669,34.859071 5.79024,2.93707 11.90959,12.01038 16.43391,17.89241 4.4598,-10.54127 9.95937,-33.64698 11.93955,-45.037356 z"
       style="display:inline;fill:#dbdbe3;stroke:#000000;stroke-width:1.5;stroke-linecap:round;stroke-linejoin:round;stroke-opacity:1" />
    <path
       sodipodi:nodetypes="cssscccccc"
       inkscape:connector-curvature="0"
       id="path9522"
       d="m 266.73123,237.6255 c -2.82079,-6.23694 -1.24138,-38.0237 -5.27671,-45.45325 -5.94491,-10.94533 -25.27374,-31.87378 -34.41107,-57.63001 -2.6207,-7.38724 -2.13749,-22.56209 3.07579,-28.91044 3.69316,-4.49725 18.69016,-6.731 30.86556,-10.380572 l -4.13568,11.972172 -2.75142,26.81092 24.46907,53.21031 4.67657,24.33703 z"
       style="display:inline;fill:#1c1f24;stroke:#000000;stroke-width:1.5;stroke-linecap:round;stroke-linejoin:round;stroke-opacity:1" />
    <path
       sodipodi:nodetypes="cccccc"
       style="display:inline;fill:#1c1f24;fill-opacity:1;stroke:#000000;stroke-width:1.5;stroke-linecap:round;stroke-linejoin:round;stroke-opacity:1"
       d="m 265.01336,90.741085 c -1.08303,0.827686 -3.29986,3.818859 -4.02354,4.737154 -0.66345,1.285868 -12.23148,22.290531 -13.9851,29.618781 l 6.48557,8.41762 5.05936,-8.7253 c -3.79173,-15.61574 -0.95485,-28.613677 6.10824,-33.126811"
       id="path9524"
       inkscape:connector-curvature="0" />
    <path
       sodipodi:nodetypes="csssccccc"
       inkscape:connector-curvature="0"
       id="path9526"
       d="m 302.66298,98.759345 c 11.73877,4.544265 24.47827,7.466665 34.72135,13.039085 10.13393,5.51307 7.7247,17.86201 9.58306,24.98774 3.65042,13.99723 10.37784,54.33274 11.46479,63.88824 0.86604,7.61319 -3.24625,33.15163 -2.1051,44.92163 l -25.30511,-4.89076 -52.32437,-48.17107 20.29446,-76.24247 z"
       style="display:inline;fill:#1c1f24;stroke:#000000;stroke-width:1.5;stroke-linecap:round;stroke-linejoin:round;stroke-opacity:1" />
    <path
       sodipodi:nodetypes="cccccc"
       inkscape:connector-curvature="0"
       id="path9528"
       d="m 289.28369,135.04512 c 2.92577,-11.49856 11.89514,-35.16509 8.06336,-43.171859 2.37175,1.777752 3.98651,4.602614 5.42362,7.014982 -1.23883,3.473187 -0.73912,21.416877 1.47792,33.936987 l -9.67042,11.27691 z"
       style="display:inline;fill:#1c1f24;stroke:#000000;stroke-width:1.5;stroke-linecap:round;stroke-linejoin:round;stroke-opacity:1" />
    <path
       sodipodi:nodetypes="ccscccc"
       inkscape:connector-curvature="0"
       id="path9530"
       d="m 266.73123,237.6255 24.43677,4.12137 c -0.25164,-2.74832 -2.46675,-23.51339 -4.47326,-37.44047 -0.91911,-6.37956 -3.41404,-12.15647 -4.57879,-13.91069 -5.30912,-7.99608 -17.00923,-38.60191 -23.5663,-65.60637 l -11.61696,12.49422 33.78149,53.3388"
       style="display:inline;fill:#1c1f24;stroke:#000000;stroke-width:1.5;stroke-linecap:round;stroke-linejoin:round;stroke-opacity:1" />
    <path
       sodipodi:nodetypes="ccccc"
       inkscape:connector-curvature="0"
       id="path9532"
       d="m 259.46191,98.623336 c -4.87875,12.185854 1.0093,32.668584 3.5493,41.701624 1.66528,-6.83033 3.39692,-13.91966 6.34897,-14.97759 -12.78559,-10.44313 -12.12592,-24.76285 -7.11912,-35.092588 z"
       style="display:inline;fill:#dbdbe3;stroke:#000000;stroke-width:1.5;stroke-linecap:round;stroke-linejoin:round;stroke-opacity:1" />
    <g
       transform="matrix(0.52354913,0,0,0.52354913,159.96765,22.644877)"
       id="g9570"
       style="display:inline;stroke-width:2.86506057">
      <path
         sodipodi:nodetypes="cssssssssssssssc"
         inkscape:connector-curvature="0"
         id="path9534"
         d="m 251.08111,139.70716 c 0.11547,4.05216 -1.57912,7.62576 -2.89057,12.70184 -1.58336,6.12835 -37.86645,36.42453 -49.88885,43.93947 -7.98529,4.99143 -21.69162,1.28351 -26.03781,-4.2828 -2.73601,-3.50406 -6.63278,-9.182 -9.56056,-13.51219 -2.62525,-3.88282 -5.29968,-7.51932 -6.37806,-9.10691 -3.11858,-4.59116 -11.74375,-18.49336 -14.26996,-27.12344 -1.58495,-5.41451 -2.51031,-19.02317 -4.39402,-22.16728 -2.23124,-3.72407 -4.6146,-11.76638 -6.70343,-14.23297 -1.85077,-2.18551 -0.15481,-8.957221 -0.65286,-13.095161 -1.18262,-9.825261 0.87385,-24.281327 3.54417,-33.830265 3.89002,-13.910568 14.85295,-24.278591 26.37741,-34.307895 14.52402,-12.639698 50.4404,-13.622798 64.71899,-5.918213 14.00724,7.55817 31.4541,20.692245 37.31438,38.161715 4.28882,12.78494 7.84341,33.036095 6.68059,41.251667 -0.78992,5.581752 -7.03671,27.792182 -7.85617,35.663222"
         style="display:inline;fill:#deaa87;stroke:#000000;stroke-width:2.86506057;stroke-linecap:round;stroke-linejoin:round;stroke-opacity:1" />
      <path
         sodipodi:nodetypes="ssscssscsscssssccccccsssscccsssss"
         inkscape:connector-curvature="0"
         id="path9536"
         d="m 174.59333,191.70616 c 2.80625,3.67837 5.54002,4.96373 10.21621,5.35175 4.20764,0.34914 6.86303,-3.11244 8.04612,-6.69018 1.4879,-4.4994 1.01719,-10.67411 -0.44082,-17.21872 -0.58598,-13.59002 15.35753,-24.82799 16.22961,-40.07308 0.16582,-2.89891 -4.03819,-7.59139 -6.84032,-7.62378 -1.77231,-0.0205 -6.44139,6.05239 -10.41565,7.30889 -4.50995,1.42587 -9.562,-3.07689 -13.12015,-3.10683 0.21959,3.68657 0.92336,8.89995 3.77557,17.18217 2.85221,8.28222 -0.0564,11.19895 -1.59098,13.23552 -0.87607,1.16263 -2.48151,5.11072 -3.00034,6.44748 -1.61489,-1.65134 -3.09848,-4.50679 -6.92298,-6.01657 -3.99709,-1.57768 -4.14495,-2.47666 -7.65415,-3.98254 -2.18116,-0.93602 -3.1913,-4.89311 -2.71659,-7.60128 1.74297,-9.94347 3.56857,-14.58351 5.01686,-23.8252 0.41777,-2.66569 -1.5402,-6.92247 -0.71205,-11.26417 3.66214,-1.97255 8.11483,-2.52704 12.00459,-1.63511 l -1.66191,3.75038 c 0.0535,1.54175 -0.11823,4.51431 1.96992,5.90487 l 22.79121,-1.10063 c 1.59772,-3.32572 3.25263,-6.07009 -0.23654,-9.12969 9.41504,-8.64257 12.63331,-32.256242 20.02167,-43.688202 13.48441,-20.86429 3.21647,-41.439898 -15.3861,-49.96932 -19.1693,-8.7892741 -58.20517,12.628718 -67.00404,39.30984 -2.26046,6.854485 -3.26143,19.16526 -2.98316,29.615856 0.22769,8.550745 -1.23295,14.730166 5.42767,18.527076 -3.48987,1.70796 -1.50335,6.33891 0.49414,10.14428 l 17.04719,6.20529 c -1.77636,2.64873 -2.24091,3.91349 -6.71682,4.28191 -2.72778,0.22454 -5.52789,-0.95992 -6.77459,1.31635 -1.77245,3.23621 -0.37853,11.44898 1.48346,17.15256 4.30481,13.18648 13.85702,23.72922 18.74037,31.7162 2.79982,4.57926 7.883,11.50373 10.9126,15.47488 z"
         style="display:inline;fill:#e9c6af;stroke:none;stroke-width:2.86506057;stroke-linecap:round;stroke-linejoin:round" />
      <path
         sodipodi:nodetypes="ccccccc"
         inkscape:connector-curvature="0"
         id="path9538"
         d="m 190.76626,118.98575 -10.71433,-0.45052 -3.76198,3.08293 5.4818,5.40465 9.78827,0.57158 7.9944,-6.44986 z"
         style="display:inline;fill:#ffffff;stroke:none;stroke-width:2.86506057;stroke-linecap:round;stroke-linejoin:round" />
      <path
         sodipodi:nodetypes="cscc"
         inkscape:connector-curvature="0"
         id="path9540"
         d="m 180.23938,126.47482 c -0.50514,-2.93642 0.78246,-6.54389 3.31246,-6.32889 4.2791,0.36362 6.29401,3.00597 6.51259,7.24562 z"
         style="display:inline;fill:#2b0000;stroke:none;stroke-width:2.86506057;stroke-linecap:round;stroke-linejoin:round" />
      <path
         sodipodi:nodetypes="cssc"
         inkscape:connector-curvature="0"
         id="path9542"
         d="m 176.28995,121.61816 c 2.37496,2.60615 3.60278,4.64347 5.4818,5.40465 1.46041,0.59164 8.03395,1.20257 9.78827,0.57158 1.86335,-0.6702 5.48408,-4.1903 7.9944,-6.44986"
         style="display:inline;fill:none;fill-opacity:1;stroke:#916f6f;stroke-width:2.86506057;stroke-linecap:round;stroke-linejoin:round;stroke-opacity:1" />
      <path
         sodipodi:nodetypes="ccccccc"
         inkscape:connector-curvature="0"
         id="path9544"
         d="m 152.98903,117.36274 -11.29585,-2.18682 -2.55209,1.09494 3.22443,6.96984 8.32751,0.84308 5.56271,-3.17255 z"
         style="display:inline;fill:#ffffff;stroke:none;stroke-width:2.86506057;stroke-linecap:round;stroke-linejoin:round" />
      <path
         sodipodi:nodetypes="cscc"
         inkscape:connector-curvature="0"
         id="path9546"
         d="m 142.60164,122.38736 c 0.0133,-1.58676 -0.37926,-5.03362 2.67476,-4.83638 3.50062,0.22608 5.09988,4.31589 5.3317,6.83004 z"
         style="display:inline;fill:#2b0000;stroke:none;stroke-width:2.86506057;stroke-linecap:round;stroke-linejoin:round" />
      <path
         sodipodi:nodetypes="cssc"
         inkscape:connector-curvature="0"
         id="path9548"
         d="m 139.14109,116.27086 c 1.03589,1.73238 1.43556,5.69344 3.22443,6.96984 1.1111,0.79279 6.99246,1.06339 8.32751,0.84308 1.23651,-0.20405 3.91164,-2.31384 5.56271,-3.17255"
         style="display:inline;fill:none;fill-opacity:1;stroke:#916f6f;stroke-width:2.86506057;stroke-linecap:round;stroke-linejoin:round;stroke-opacity:1" />
      <path
         sodipodi:nodetypes="csssc"
         inkscape:connector-curvature="0"
         id="path9550"
         d="m 156.78066,113.71903 c 1.35985,3.48329 2.78502,6.70293 3.34466,9.2334 0.46114,2.08326 -4.4976,23.93027 -4.83184,26.86184 -0.30019,2.63294 1.12045,5.38942 2.91839,6.57091 1.18555,0.77907 6.5287,1.63251 10.45008,2.79848"
         style="display:inline;fill:none;stroke:#000000;stroke-width:2.86506057;stroke-linecap:round;stroke-linejoin:round;stroke-opacity:1" />
      <path
         sodipodi:nodetypes="sssssssss"
         inkscape:connector-curvature="0"
         id="path9552"
         d="m 169.86708,162.48585 c 1.41365,-0.027 4.7547,-1.79981 5.98134,-1.67469 5.17685,0.52663 20.75835,7.70906 22.51709,9.53082 1.77676,1.8404 1.13828,7.79154 -0.37971,7.7525 -3.4842,-0.0896 -16.28144,-3.93251 -25.77269,-4.82773 -7.19463,-0.67861 -10.11914,1.52925 -11.7342,1.16034 -0.67769,-0.15479 -4.06778,-5.1321 -3.35018,-6.44989 1.39639,-2.56423 4.93803,-6.74449 6.83352,-7.42549 1.41834,-0.50957 4.82926,1.95471 5.90483,1.93414 z"
         style="display:inline;fill:#000000;stroke:none;stroke-width:2.86506057;stroke-linecap:round;stroke-linejoin:round" />
      <path
         sodipodi:nodetypes="cc"
         inkscape:connector-curvature="0"
         id="path9554"
         d="m 164.70266,110.2713 c -0.55779,2.69478 -0.0256,5.63541 1.21562,7.53592"
         style="display:inline;fill:none;stroke:#000000;stroke-width:2.86506057;stroke-linecap:round;stroke-linejoin:round;stroke-opacity:1" />
      <path
         sodipodi:nodetypes="ssssss"
         inkscape:connector-curvature="0"
         id="path9556"
         d="m 168.96673,117.22547 c 5.64182,1.22579 8.55861,-3.87813 18.96778,-4.87455 8.74662,-0.83727 24.13324,-2.10711 20.08928,-2.82831 -3.92637,-0.70022 -14.99801,0.22515 -21.2827,0.55924 -4.10027,0.21797 -9.4307,1.6051 -13.08536,2.41844 -4.85496,1.08045 -9.91939,3.58878 -4.689,4.72518 z"
         style="display:inline;fill:#000000;stroke:none;stroke-width:2.86506057;stroke-linecap:round;stroke-linejoin:round" />
      <path
         sodipodi:nodetypes="sssss"
         inkscape:connector-curvature="0"
         id="path9558"
         d="m 130.87069,104.99391 c 1.71092,-0.45245 6.59416,0.56878 9.59699,1.18033 6.69393,1.36316 16.80545,6.58474 14.95967,7.14302 -6.4365,1.9467 -9.06794,-3.81499 -15.46259,-5.31308 -3.06342,-0.71767 -12.13179,-2.20694 -9.09407,-3.01027 z"
         style="display:inline;fill:#000000;stroke:none;stroke-width:2.86506057;stroke-linecap:round;stroke-linejoin:round" />
      <path
         sodipodi:nodetypes="cc"
         inkscape:connector-curvature="0"
         id="path9560"
         d="m 181.39587,150.68872 c 3.19963,3.51828 1.58227,8.43238 -1.03623,8.89927"
         style="display:inline;fill:none;stroke:#000000;stroke-width:2.86506057;stroke-linecap:round;stroke-linejoin:round;stroke-opacity:1" />
      <path
         sodipodi:nodetypes="cssc"
         inkscape:connector-curvature="0"
         id="path9562"
         d="m 174.6586,122.29126 c 2.56922,-0.61376 3.15742,-3.66243 5.39333,-3.75603 2.14161,-0.0896 7.85847,0.20719 10.71433,0.45052 2.1111,0.17989 6.05557,0.93062 10.81652,2.50149"
         style="display:inline;fill:none;stroke:#000000;stroke-width:2.86506057;stroke-linecap:round;stroke-linejoin:round;stroke-opacity:1" />
      <path
         sodipodi:nodetypes="cssc"
         inkscape:connector-curvature="0"
         id="path9564"
         d="m 137.5216,117.24822 c 0.6677,-0.13901 2.55408,-1.99544 4.17158,-2.0723 2.37565,-0.11289 9.59996,0.65314 11.29585,2.18682 1.53171,1.3852 2.28776,2.67394 4.13073,4.45947"
         style="display:inline;fill:none;stroke:#000000;stroke-width:2.86506057;stroke-linecap:round;stroke-linejoin:round;stroke-opacity:1" />
      <path
         sodipodi:nodetypes="ssss"
         inkscape:connector-curvature="0"
         id="path9566"
         d="m 171.77506,176.71043 c 1.47318,-0.84712 8.70028,-0.26746 11.62952,2.1657 1.71149,1.42167 -1.52235,3.87136 -4.93109,4.53715 -2.29062,0.44744 -9.87971,-4.87351 -6.69843,-6.70285 z"
         style="display:inline;fill:#deaa87;stroke:none;stroke-width:2.86506057;stroke-linecap:round;stroke-linejoin:round" />
      <path
         sodipodi:nodetypes="cc"
         inkscape:connector-curvature="0"
         id="path9568"
         d="m 154.52912,109.26763 c -0.11863,2.13468 0.70406,5.23019 1.54372,7.01876"
         style="display:inline;fill:none;stroke:#000000;stroke-width:2.86506057;stroke-linecap:round;stroke-linejoin:round;stroke-opacity:1" />
    </g>
    <path
       sodipodi:nodetypes="ccssccc"
       inkscape:connector-curvature="0"
       id="path9572"
       d="m 356.32708,245.59604 -74.34253,-2.88582 c 0.66528,-5.32578 0.26823,-25.46891 -1.3033,-39.58341 -0.49986,-4.48928 -3.5272,-11.4134 -3.69971,-12.59744 -0.59929,-4.1134 6.82394,-37.61399 12.30215,-55.48425 l 14.72247,10.26423 c -9.37238,13.90165 -20.30689,29.79784 -25.30856,45.33846"
       style="display:inline;fill:#1c1f24;stroke:#000000;stroke-width:1.5;stroke-linecap:round;stroke-linejoin:round;stroke-opacity:1" />
    <path
       style="display:inline;fill:#1c1f24;stroke:#000000;stroke-width:1.5;stroke-linecap:round;stroke-linejoin:round;stroke-opacity:1"
       d="m 291.81736,207.76762 c 10.79025,-22.49238 16.55734,-48.96186 25.33707,-66.81246 3.98346,-8.09903 15.39798,-34.9904 23.89304,-26.73948 5.21035,5.06063 7.81713,23.97452 5.39886,38.13784 -3.72207,21.7994 -3.75438,46.16839 -13.1797,63.50324"
       id="path9574"
       inkscape:connector-curvature="0"
       sodipodi:nodetypes="csssc" />
    <path
       style="display:inline;fill:#1c1f24;stroke:#000000;stroke-width:1.5;stroke-linecap:round;stroke-linejoin:round;stroke-opacity:1"
       d="m 337.03907,205.45964 c -4.6567,15.2092 -11.89229,29.59186 -21.61949,30.95867 -14.19853,1.99509 -39.52962,-12.90244 -46.68271,-17.03229 -3.20643,-1.85122 -10.32689,-17.01298 -6.28017,-28.14255 3.05745,-8.40881 9.99211,-16.10111 19.25338,-11.45655 19.76824,9.91387 29.5169,13.46299 42.73669,24.91223"
       id="path9576"
       inkscape:connector-curvature="0"
       sodipodi:nodetypes="cssssc" />
    <path
       sodipodi:nodetypes="sss"
       inkscape:connector-curvature="0"
       id="path9578"
       d="m 268.70367,217.26032 c 6.64927,6.59031 23.14027,-31.0731 9.53979,-37.23711 -13.60048,-6.16401 -19.09424,27.76738 -9.53979,37.23711 z"
       style="display:inline;fill:#000000;stroke:none;stroke-width:1.5;stroke-linecap:round;stroke-linejoin:round;stroke-opacity:1" />
    <path
       sodipodi:nodetypes="sssss"
       inkscape:connector-curvature="0"
       id="path9580"
       d="m 272.08743,178.37057 c -14.51022,-6.57629 -19.28921,30.46273 -7.04069,34.65981 l 3.49806,1.19864 c 12.62434,4.32585 17.90533,-29.34899 8.12603,-33.78117 z"
       style="display:inline;fill:#dbdbe3;stroke:#000000;stroke-width:1.5;stroke-linecap:round;stroke-linejoin:round;stroke-opacity:1" />
    <path
       sodipodi:nodetypes="sss"
       inkscape:connector-curvature="0"
       id="path9582"
       d="m 263.39281,211.23404 c 6.64928,6.59031 21.43324,-26.03049 7.80237,-32.12701 -10.12563,-4.52877 -17.35682,22.65729 -7.80237,32.12701 z"
       style="display:inline;fill:#000000;stroke:none;stroke-width:1.5;stroke-linecap:round;stroke-linejoin:round;stroke-opacity:1" />
    <path
       sodipodi:nodetypes="cccccccssscc"
       inkscape:connector-curvature="0"
       id="path9584"
       d="m 242.12882,179.81934 -6.53969,2.31868 -7.35495,0.0975 -1.33187,4.02998 9.88341,2.74059 3.54521,-0.9921 c 4.94027,5.5454 8.00806,6.78204 14.3178,6.72651 5.15383,0.29897 11.53692,10.76946 15.45721,8.90985 5.63773,-2.67428 9.80558,-19.49346 -0.29272,-23.64688 -5.01068,-2.06086 -12.74642,-7.9972 -17.39473,-10.94399 -3.77348,-2.39217 -9.20391,-0.72391 -12.80851,-0.60476 z"
       style="display:inline;fill:#deaa87;stroke:#000000;stroke-width:1.5;stroke-linecap:round;stroke-linejoin:round;stroke-opacity:1" />
    <path
       sodipodi:nodetypes="cc"
       inkscape:connector-curvature="0"
       id="path9586"
       d="m 247.23042,183.27891 c 1.64485,5.40181 4.38677,13.30051 10.59216,11.38974"
       style="display:inline;fill:#deaa87;stroke:#000000;stroke-width:1.5;stroke-linecap:round;stroke-linejoin:round;stroke-opacity:1" />
    <g
       style="display:inline;stroke-width:2.45596647"
       transform="matrix(-0.60680492,0.04948348,0.09958432,0.60661504,352.12597,-8.3791132)"
       id="g9592">
      <path
         style="display:inline;opacity:0.9;fill:#280b0b;stroke:#000000;stroke-width:2.45596647;stroke-linecap:round;stroke-linejoin:round"
         d="m 225.29893,128.14785 c -2.62061,-0.28999 -16.29219,1.90564 -21.25152,4.23647 -2.43922,1.14642 -4.74148,1.74552 -8.45432,1.50176 -9.22722,-0.6058 -25.06925,2.85299 -34.84181,4.81528 -0.53196,1.32144 -0.55986,3.48943 -0.4116,4.69513 8.07742,3.3201 19.86884,7.87285 24.74207,7.00007 4.6284,-0.82893 8.94214,-6.14445 11.26694,-7.98661 1.28555,-1.01868 5.51177,-1.91582 6.57669,-1.42221 2.34289,1.08597 5.38584,6.21602 9.9992,4.52368 3.72203,-1.36534 9.21364,-7.07919 12.51812,-12.42941 0.57838,-1.41635 0.32706,-3.54638 -0.14377,-4.93416 z"
         id="path9588"
         inkscape:connector-curvature="0"
         sodipodi:nodetypes="cssccsssscc" />
      <path
         style="display:inline;opacity:0.95;fill:#241c1c;stroke:#000000;stroke-width:2.45596647;stroke-linecap:round;stroke-linejoin:round"
         d="m 160.75128,138.70136 -34.91001,-15.65121 c -8.41884,-3.77442 -8.77948,8.80351 -8.33759,16.20237 0.25294,4.23522 3.14669,5.2507 3.58154,2.20217 0.83132,-5.82803 -2.02029,-19.33656 4.66353,-15.8961 l 34.59093,17.8379 z"
         id="path9590"
         inkscape:connector-curvature="0"
         sodipodi:nodetypes="csssscc" />
    </g>
    <g
       transform="matrix(0.52354913,0,0,0.52354913,159.96765,22.644877)"
       id="g9598"
       style="display:inline;stroke-width:2.86506057">
      <path
         sodipodi:nodetypes="csssc"
         inkscape:connector-curvature="0"
         id="path9594"
         d="m 251.45475,138.80385 c 1.45436,-3.83401 7.95802,-3.13415 9.60446,-13.81743 0.82231,-5.33558 5.07012,-10.33767 4.90776,-21.05664 -0.13943,-9.204674 -4.37619,-14.76389 -7.74563,-15.692929 -5.04572,-1.391235 -11.31305,4.79452 -13.48845,11.287766"
         style="display:inline;opacity:1;fill:#deaa87;stroke:#000000;stroke-width:2.86506057;stroke-linecap:round;stroke-linejoin:round;stroke-opacity:1" />
      <path
         sodipodi:nodetypes="csssssssc"
         inkscape:connector-curvature="0"
         id="path9596"
         d="m 258.50661,121.50345 c -2.98323,-0.83444 -4.14419,-3.83924 -5.97522,-7.2572 -1.73502,-3.23871 -3.4486,-7.69931 -3.15205,-10.10924 0.44854,-3.64529 6.64715,-12.767292 9.04321,-11.616812 2.3803,1.142962 4.84112,6.32657 4.99643,10.086542 0.27748,6.7172 -1.60549,16.46097 -5.6987,19.79432 -2.26385,1.84355 -3.86015,5.9636 -5.52024,4.29522 -1.62733,-1.63546 0.81538,-3.16233 0.68597,-4.9312 -0.078,-1.06572 -2.07275,-4.4704 -3.27765,-5.03586"
         style="display:inline;opacity:1;fill:none;stroke:#000000;stroke-width:2.86506057;stroke-linecap:round;stroke-linejoin:round;stroke-opacity:1" />
    </g>
    <g
       id="g9610"
       style="display:inline;stroke-width:1.92923975"
       transform="matrix(0.77750835,0,0,0.77750835,83.977942,19.873021)">
      <path
         style="display:inline;fill:#deaa87;stroke:#000000;stroke-width:1.92923975;stroke-linecap:round;stroke-linejoin:round;stroke-opacity:1"
         d="m 208.67216,191.46746 c -7.84794,-1.26392 -18.22012,-5.02381 -23.04943,-2.45977 -3.25244,1.72683 -4.42633,11.5658 -4.98635,15.53877 -0.41517,2.94535 0.85171,9.82742 2.28576,15.94303 0.78538,3.3493 4.83337,2.81942 4.59503,0.55653 l -1.49409,-14.18577 4.35501,-6.75346 8.46977,7.22867"
         id="path9600"
         inkscape:connector-curvature="0"
         sodipodi:nodetypes="cssssccc" />
      <path
         style="display:inline;fill:#deaa87;stroke:#000000;stroke-width:1.92923975;stroke-linecap:round;stroke-linejoin:round;stroke-opacity:1"
         d="m 209.22237,190.2287 c -4.78416,-2.10111 -12.90748,-5.5873 -16.9283,-3.91046 -4.12572,1.72059 -7.22956,12.96001 -8.33686,16.6673 -0.97412,3.2614 0.38105,12.14067 1.44354,17.42121 0.59914,2.97773 4.14051,2.85912 4.40174,-0.92544 l 1.02337,-14.8263 5.25707,-7.97769 7.50328,6.64877"
         id="path9602"
         inkscape:connector-curvature="0"
         sodipodi:nodetypes="cssssccc" />
      <path
         style="display:inline;fill:#deaa87;stroke:#000000;stroke-width:1.92923975;stroke-linecap:round;stroke-linejoin:round;stroke-opacity:1"
         d="m 212.28425,191.75979 c -4.45897,-1.72665 -11.98915,-4.88433 -15.83294,-2.36406 -3.75223,2.46024 -6.44449,13.7845 -7.30593,17.31163 -0.52273,2.14028 -1.28003,11.14561 -0.48944,17.0346 0.49935,3.71966 3.61779,1.75771 4.40173,0.2988 2.22738,-4.14513 3.1525,-9.72175 3.14966,-15.01961 l 3.58181,-8.29985 8.21204,3.81372"
         id="path9604"
         inkscape:connector-curvature="0"
         sodipodi:nodetypes="cssssccc" />
      <path
         style="display:inline;fill:#deaa87;stroke:#000000;stroke-width:1.92923975;stroke-linecap:round;stroke-linejoin:round;stroke-opacity:1"
         d="m 218.82847,197.48958 c -6.05858,-2.58995 -12.73783,-5.51285 -16.26107,-2.84481 -3.04669,2.30716 -6.30063,12.33566 -7.16791,15.56088 -0.92586,3.44308 -2.6207,11.08488 -3.60434,14.67381 -0.93775,3.42148 2.69873,3.83418 3.91675,2.95618 3.34868,-2.41387 5.62899,-10.33606 6.35647,-14.31654 2.43437,-2.68958 6.15409,-7.7002 6.36079,-11.50474"
         id="path9606"
         inkscape:connector-curvature="0"
         sodipodi:nodetypes="csccscc" />
      <path
         style="display:inline;fill:#deaa87;stroke:#000000;stroke-width:1.92923975;stroke-linecap:round;stroke-linejoin:round;stroke-opacity:1"
         d="m 208.24692,203.8368 c 1.5389,2.34108 4.56855,5.94147 6.9158,6.14705"
         id="path9608"
         inkscape:connector-curvature="0"
         sodipodi:nodetypes="cc" />
    </g>
    <g
       transform="translate(20,-4)"
       id="g9612" />
  </g>
  <g
     inkscape:groupmode="layer"
     id="layer6"
     inkscape:label="吹き出し"
     sodipodi:insensitive="true">
    <path
       sodipodi:nodetypes="sscssss"
       inkscape:connector-curvature="0"
       id="path7874"
       d="m 11.581178,73.531357 c 0,31.187403 47.157817,56.469753 105.329932,56.469753 8.66348,0 34.07071,16.3318 52.80804,13.63321 -13.42392,-3.6479 -15.43025,-17.18377 -9.69174,-18.5658 36.67398,-8.83235 62.21362,-28.585748 62.21362,-51.537163 0,-31.18737 -47.15781,-56.469735 -105.32992,-56.469746 -58.172115,0 -105.329932,25.282365 -105.329932,56.469746 z"
       style="display:inline;opacity:1;fill:#fefefe;fill-opacity:1;stroke:#000000;stroke-width:1.5;stroke-linecap:round;stroke-linejoin:round;stroke-miterlimit:4;stroke-dasharray:none;stroke-dashoffset:0;stroke-opacity:1" />
    <text
       id="text7884"
       y="62.900555"
       x="37.027515"
       style="font-style:normal;font-variant:normal;font-weight:normal;font-stretch:normal;font-size:26.04367638px;line-height:1.25;font-family:HGMinchoB;-inkscape-font-specification:HGMinchoB;letter-spacing:0px;word-spacing:0px;display:inline;fill:#000000;fill-opacity:1;stroke:none;stroke-width:2.49790096;stroke-linecap:round"
       xml:space="preserve"><tspan
         id="tspan7882"
         y="62.900555"
         x="37.027515"
         sodipodi:role="line"
         style="stroke-width:2.49790096">今日中には</tspan><tspan
         y="97.331459"
         x="37.027515"
         sodipodi:role="line"
         style="stroke-width:2.49790096"
         id="tspan9422">終わらせる。</tspan></text>
  </g>
  <g
     inkscape:groupmode="layer"
     id="layer3"
     inkscape:label="豚.01"
     style="display:inline"
     sodipodi:insensitive="true">
    <path
       sodipodi:nodetypes="csssc"
       inkscape:connector-curvature="0"
       id="path3346-6"
       d="m 211.80035,183.13192 c 7.95633,-25.60972 12.62709,-41.21968 12.73418,-49.92522 0.11372,-9.24456 -0.31055,-28.95182 8.1845,-26.93554 7.06711,1.67737 22.5116,31.71899 20.09332,45.88233 -3.72207,21.79939 -4.93358,33.4965 -10.63974,47.30933"
       style="display:inline;fill:#1c1f24;stroke:#000000;stroke-width:1.5;stroke-linecap:round;stroke-linejoin:round;stroke-opacity:1" />
    <path
       sodipodi:nodetypes="csssscc"
       inkscape:connector-curvature="0"
       id="path6641-9-6-6"
       d="m 228.175,80.505878 17.89957,-10.195734 c 4.7372,-2.698351 6.20411,4.905893 6.67279,9.416027 0.26828,2.581669 -1.38653,3.34086 -1.954,1.513092 -1.08483,-3.494223 -0.17661,-11.795537 -3.91187,-9.412041 l -18.30236,11.678906 z"
       style="display:inline;opacity:0.95;fill:#241c1c;stroke:#000000;stroke-width:1.5;stroke-linecap:round;stroke-linejoin:round" />
    <path
       style="display:inline;fill:#deaa87;stroke:none;stroke-width:1.5;stroke-linecap:round;stroke-linejoin:round"
       d="m 245.57284,107.11492 51.35924,-14.536747 3.18791,10.705137 -28.18724,30.84679 z"
       id="path3296-5"
       inkscape:connector-curvature="0"
       sodipodi:nodetypes="ccccc" />
    <path
       sodipodi:nodetypes="cccc"
       inkscape:connector-curvature="0"
       id="path3234"
       d="m 297.34153,123.89091 -44.9296,5.02759 26.77366,70.23638 z"
       style="display:inline;fill:#dbdee3;stroke:none;stroke-width:1.5;stroke-linecap:round;stroke-linejoin:round" />
    <path
       inkscape:connector-curvature="0"
       id="path3236"
       d="m 269.88962,141.41373 c -0.32268,17.06659 3.28741,40.33967 5.98139,59.49914 l 6.77712,16.26636 7.25324,-14.66841 c -6.71521,-20.09609 -11.68522,-38.99155 -13.9222,-60.20721 z"
       style="display:inline;fill:#550000;stroke:#000000;stroke-width:1.5;stroke-linecap:round;stroke-linejoin:round;stroke-opacity:1"
       sodipodi:nodetypes="cccccc" />
    <path
       inkscape:connector-curvature="0"
       id="path3238"
       d="m 265.77106,125.95168 11.3409,-0.18864 3.52881,6.68149 c -1.63785,3.44538 -3.07663,6.71965 -4.66443,10.1271 -2.3855,0.80346 -4.54731,0.9584 -6.25632,-1.00315 -2.57684,-4.022 -5.66817,-8.11977 -6.31606,-12.18341 z"
       style="display:inline;fill:#550000;stroke:#000000;stroke-width:1.5;stroke-linecap:round;stroke-linejoin:round;stroke-opacity:1"
       sodipodi:nodetypes="ccccccc" />
    <path
       style="display:inline;fill:#dbdbe3;stroke:#000000;stroke-width:1.5;stroke-linecap:round;stroke-linejoin:round;stroke-opacity:1"
       d="m 296.8604,90.434039 c 1.66703,7.91015 -2.63437,21.919301 -25.669,34.859071 5.79024,2.93707 11.90959,12.01038 16.43391,17.89241 4.4598,-10.54127 9.95937,-33.64698 11.93955,-45.037356 z"
       id="path743"
       inkscape:connector-curvature="0"
       sodipodi:nodetypes="ccccc" />
    <path
       style="display:inline;fill:#1c1f24;stroke:#000000;stroke-width:1.5;stroke-linecap:round;stroke-linejoin:round;stroke-opacity:1"
       d="m 255.23123,233.7505 c -2.57079,-9.98694 1.50862,-32.7737 -2.52671,-40.20325 -5.94491,-10.94533 -16.52374,-33.24878 -25.66107,-59.00501 -2.6207,-7.38724 -2.13749,-22.56209 3.07579,-28.91044 3.69316,-4.49725 18.69016,-6.731 30.86556,-10.380572 l -4.13568,11.972172 -2.75142,26.81092 22.96907,53.08531 6.17657,24.46203 z"
       id="path3254"
       inkscape:connector-curvature="0"
       sodipodi:nodetypes="cssscccccc" />
    <path
       inkscape:connector-curvature="0"
       id="path3256"
       d="m 265.01336,90.741085 c -1.08303,0.827686 -3.29986,3.818859 -4.02354,4.737154 -0.66345,1.285868 -8.35648,27.665531 -10.1101,34.993781 l 5.36057,9.66762 4.30936,-6.8503 c -3.79173,-15.61574 -2.95485,-37.113677 4.10824,-41.626811"
       style="display:inline;fill:#1c1f24;fill-opacity:1;stroke:#000000;stroke-width:1.5;stroke-linecap:round;stroke-linejoin:round;stroke-opacity:1"
       sodipodi:nodetypes="cccccc" />
    <path
       style="display:inline;fill:#1c1f24;stroke:#000000;stroke-width:1.5;stroke-linecap:round;stroke-linejoin:round;stroke-opacity:1"
       d="m 302.66298,98.759345 c 11.73877,4.544265 24.47827,7.466665 34.72135,13.039085 10.13393,5.51307 7.7247,17.86201 9.58306,24.98774 3.65042,13.99723 10.37784,54.33274 11.46479,63.88824 0.86604,7.61319 -3.24625,33.15163 -2.1051,44.92163 l -25.30511,-4.89076 -52.32437,-48.17107 20.29446,-76.24247 z"
       id="path709"
       inkscape:connector-curvature="0"
       sodipodi:nodetypes="csssccccc" />
    <path
       style="display:inline;fill:#1c1f24;stroke:#000000;stroke-width:1.5;stroke-linecap:round;stroke-linejoin:round;stroke-opacity:1"
       d="m 289.28369,135.04512 c 2.92577,-11.49856 11.89514,-35.16509 8.06336,-43.171859 2.37175,1.777752 3.98651,4.602614 5.42362,7.014982 -1.23883,3.473187 -1.97656,22.477537 0.24048,34.997647 l -10.80798,10.09125 z"
       id="path3260"
       inkscape:connector-curvature="0"
       sodipodi:nodetypes="cccccc" />
    <path
       style="display:inline;fill:#1c1f24;stroke:#000000;stroke-width:1.5;stroke-linecap:round;stroke-linejoin:round;stroke-opacity:1"
       d="m 261.48123,234.2505 29.68677,7.49637 c -0.25164,-2.74832 -2.46675,-23.51339 -4.47326,-37.44047 -0.91911,-6.37956 -3.11365,-12.39831 -4.57879,-13.91069 -10.85894,-11.20913 -15.15732,-30.18765 -21.5663,-57.10637 l -10.99196,7.49422 c 9.24666,16.71646 16.97094,33.44633 29.78149,49.8388"
       id="path737"
       inkscape:connector-curvature="0"
       sodipodi:nodetypes="ccssccc" />
    <path
       style="display:inline;fill:#dbdbe3;stroke:#000000;stroke-width:1.5;stroke-linecap:round;stroke-linejoin:round;stroke-opacity:1"
       d="m 259.46191,98.623336 c -4.87875,12.185854 0.74413,33.552464 3.28413,42.585504 1.66528,-6.83033 3.66209,-14.80354 6.61414,-15.86147 -12.78559,-10.44313 -12.12592,-24.76285 -7.11912,-35.092588 z"
       id="path3240"
       inkscape:connector-curvature="0"
       sodipodi:nodetypes="ccccc" />
    <g
       style="display:inline;stroke-width:2.86506057"
       id="g729"
       transform="matrix(0.52354913,0,0,0.52354913,159.96765,22.644877)">
      <path
         style="display:inline;fill:#deaa87;stroke:#000000;stroke-width:2.86506057;stroke-linecap:round;stroke-linejoin:round;stroke-opacity:1"
         d="m 251.08111,139.70716 c 0.11547,4.05216 -1.57912,7.62576 -2.89057,12.70184 -1.58336,6.12835 -37.86645,36.42453 -49.88885,43.93947 -7.98529,4.99143 -21.69162,1.28351 -26.03781,-4.2828 -2.73601,-3.50406 -6.63278,-9.182 -9.56056,-13.51219 -2.62525,-3.88282 -5.29968,-7.51932 -6.37806,-9.10691 -3.11858,-4.59116 -11.74375,-18.49336 -14.26996,-27.12344 -1.58495,-5.41451 -2.51031,-19.02317 -4.39402,-22.16728 -2.23124,-3.72407 -4.6146,-11.76638 -6.70343,-14.23297 -1.85077,-2.18551 -0.15481,-8.957221 -0.65286,-13.095161 -1.18262,-9.825261 0.87385,-24.281327 3.54417,-33.830265 3.89002,-13.910568 14.85295,-24.278591 26.37741,-34.307895 14.52402,-12.639698 50.4404,-13.622798 64.71899,-5.918213 14.00724,7.55817 31.4541,20.692245 37.31438,38.161715 4.28882,12.78494 7.84341,33.036095 6.68059,41.251667 -0.78992,5.581752 -7.03671,27.792182 -7.85617,35.663222"
         id="path3264"
         inkscape:connector-curvature="0"
         sodipodi:nodetypes="cssssssssssssssc" />
      <path
         style="display:inline;fill:#e9c6af;stroke:none;stroke-width:2.86506057;stroke-linecap:round;stroke-linejoin:round"
         d="m 174.59333,191.70616 c 2.80625,3.67837 5.54002,4.96373 10.21621,5.35175 4.20764,0.34914 6.86303,-3.11244 8.04612,-6.69018 1.4879,-4.4994 1.01719,-10.67411 -0.44082,-17.21872 -0.58598,-13.59002 15.35753,-24.82799 16.22961,-40.07308 0.16582,-2.89891 -4.03819,-7.59139 -6.84032,-7.62378 -1.77231,-0.0205 -6.44139,6.05239 -10.41565,7.30889 -4.50995,1.42587 -9.562,-3.07689 -13.12015,-3.10683 0.21959,3.68657 0.92336,8.89995 3.77557,17.18217 2.85221,8.28222 -0.0564,11.19895 -1.59098,13.23552 -0.87607,1.16263 -2.48151,5.11072 -3.00034,6.44748 -1.61489,-1.65134 -3.09848,-4.50679 -6.92298,-6.01657 -3.99709,-1.57768 -4.14495,-2.47666 -7.65415,-3.98254 -2.18116,-0.93602 -3.1913,-4.89311 -2.71659,-7.60128 1.74297,-9.94347 3.56857,-14.58351 5.01686,-23.8252 0.41777,-2.66569 -1.5402,-6.92247 -0.71205,-11.26417 3.66214,-1.97255 8.11483,-2.52704 12.00459,-1.63511 l -1.66191,3.75038 c 0.0535,1.54175 -0.11823,4.51431 1.96992,5.90487 l 22.79121,-1.10063 c 1.59772,-3.32572 3.25263,-6.07009 -0.23654,-9.12969 9.41504,-8.64257 12.63331,-32.256242 20.02167,-43.688202 13.48441,-20.86429 3.21647,-41.439898 -15.3861,-49.96932 -19.1693,-8.7892741 -58.20517,12.628718 -67.00404,39.30984 -2.26046,6.854485 -3.26143,19.16526 -2.98316,29.615856 0.22769,8.550745 -1.23295,14.730166 5.42767,18.527076 -3.48987,1.70796 -1.50335,6.33891 0.49414,10.14428 l 17.04719,6.20529 c -1.77636,2.64873 -2.24091,3.91349 -6.71682,4.28191 -2.72778,0.22454 -5.52789,-0.95992 -6.77459,1.31635 -1.77245,3.23621 -0.37853,11.44898 1.48346,17.15256 4.30481,13.18648 13.85702,23.72922 18.74037,31.7162 2.79982,4.57926 7.883,11.50373 10.9126,15.47488 z"
         id="path3266"
         inkscape:connector-curvature="0"
         sodipodi:nodetypes="ssscssscsscssssccccccsssscccsssss" />
      <path
         style="display:inline;fill:#ffffff;stroke:none;stroke-width:2.86506057;stroke-linecap:round;stroke-linejoin:round"
         d="m 190.76626,118.98575 -10.71433,-0.45052 -3.76198,3.08293 5.4818,5.40465 9.78827,0.57158 7.9944,-6.44986 z"
         id="path3268"
         inkscape:connector-curvature="0"
         sodipodi:nodetypes="ccccccc" />
      <path
         style="display:inline;fill:#2b0000;stroke:none;stroke-width:2.86506057;stroke-linecap:round;stroke-linejoin:round"
         d="m 180.23938,126.47482 c -0.50514,-2.93642 0.78246,-6.54389 3.31246,-6.32889 4.2791,0.36362 6.29401,3.00597 6.51259,7.24562 z"
         id="path3274"
         inkscape:connector-curvature="0"
         sodipodi:nodetypes="cscc" />
      <path
         style="display:inline;fill:none;fill-opacity:1;stroke:#916f6f;stroke-width:2.86506057;stroke-linecap:round;stroke-linejoin:round;stroke-opacity:1"
         d="m 176.28995,121.61816 c 2.37496,2.60615 3.60278,4.64347 5.4818,5.40465 1.46041,0.59164 8.03395,1.20257 9.78827,0.57158 1.86335,-0.6702 5.48408,-4.1903 7.9944,-6.44986"
         id="path3288"
         inkscape:connector-curvature="0"
         sodipodi:nodetypes="cssc" />
      <path
         style="display:inline;fill:#ffffff;stroke:none;stroke-width:2.86506057;stroke-linecap:round;stroke-linejoin:round"
         d="m 152.98903,117.36274 -11.29585,-2.18682 -2.55209,1.09494 3.22443,6.96984 8.32751,0.84308 5.56271,-3.17255 z"
         id="path3270"
         inkscape:connector-curvature="0"
         sodipodi:nodetypes="ccccccc" />
      <path
         style="display:inline;fill:#2b0000;stroke:none;stroke-width:2.86506057;stroke-linecap:round;stroke-linejoin:round"
         d="m 142.60164,122.38736 c 0.0133,-1.58676 -0.37926,-5.03362 2.67476,-4.83638 3.50062,0.22608 5.09988,4.31589 5.3317,6.83004 z"
         id="path3272"
         inkscape:connector-curvature="0"
         sodipodi:nodetypes="cscc" />
      <path
         style="display:inline;fill:none;fill-opacity:1;stroke:#916f6f;stroke-width:2.86506057;stroke-linecap:round;stroke-linejoin:round;stroke-opacity:1"
         d="m 139.14109,116.27086 c 1.03589,1.73238 1.43556,5.69344 3.22443,6.96984 1.1111,0.79279 6.99246,1.06339 8.32751,0.84308 1.23651,-0.20405 3.91164,-2.31384 5.56271,-3.17255"
         id="path3292"
         inkscape:connector-curvature="0"
         sodipodi:nodetypes="cssc" />
      <path
         style="display:inline;fill:none;stroke:#000000;stroke-width:2.86506057;stroke-linecap:round;stroke-linejoin:round;stroke-opacity:1"
         d="m 156.78066,113.71903 c 1.35985,3.48329 2.78502,6.70293 3.34466,9.2334 0.46114,2.08326 -4.4976,23.93027 -4.83184,26.86184 -0.30019,2.63294 1.12045,5.38942 2.91839,6.57091 1.18555,0.77907 6.5287,1.63251 10.45008,2.79848"
         id="path3276"
         inkscape:connector-curvature="0"
         sodipodi:nodetypes="csssc" />
      <path
         style="display:inline;fill:#000000;stroke:none;stroke-width:2.86506057;stroke-linecap:round;stroke-linejoin:round"
         d="m 169.86708,162.48585 c 1.41365,-0.027 4.7547,-1.79981 5.98134,-1.67469 5.17685,0.52663 20.75835,7.70906 22.51709,9.53082 1.77676,1.8404 1.13828,7.79154 -0.37971,7.7525 -3.4842,-0.0896 -16.28144,-3.93251 -25.77269,-4.82773 -7.19463,-0.67861 -10.11914,1.52925 -11.7342,1.16034 -0.67769,-0.15479 -4.06778,-5.1321 -3.35018,-6.44989 1.39639,-2.56423 4.93803,-6.74449 6.83352,-7.42549 1.41834,-0.50957 4.82926,1.95471 5.90483,1.93414 z"
         id="path3278"
         inkscape:connector-curvature="0"
         sodipodi:nodetypes="sssssssss" />
      <path
         style="display:inline;fill:none;stroke:#000000;stroke-width:2.86506057;stroke-linecap:round;stroke-linejoin:round;stroke-opacity:1"
         d="m 164.70266,110.2713 c -0.55779,2.69478 -0.0256,5.63541 1.21562,7.53592"
         id="path3280"
         inkscape:connector-curvature="0"
         sodipodi:nodetypes="cc" />
      <path
         style="display:inline;fill:#000000;stroke:none;stroke-width:2.86506057;stroke-linecap:round;stroke-linejoin:round"
         d="m 168.96673,117.22547 c 5.64182,1.22579 8.55861,-3.87813 18.96778,-4.87455 8.74662,-0.83727 24.13324,-2.10711 20.08928,-2.82831 -3.92637,-0.70022 -14.99801,0.22515 -21.2827,0.55924 -4.10027,0.21797 -9.4307,1.6051 -13.08536,2.41844 -4.85496,1.08045 -9.91939,3.58878 -4.689,4.72518 z"
         id="path3282"
         inkscape:connector-curvature="0"
         sodipodi:nodetypes="ssssss" />
      <path
         style="display:inline;fill:#000000;stroke:none;stroke-width:2.86506057;stroke-linecap:round;stroke-linejoin:round"
         d="m 130.87069,104.99391 c 1.71092,-0.45245 6.59416,0.56878 9.59699,1.18033 6.69393,1.36316 16.80545,6.58474 14.95967,7.14302 -6.4365,1.9467 -9.06794,-3.81499 -15.46259,-5.31308 -3.06342,-0.71767 -12.13179,-2.20694 -9.09407,-3.01027 z"
         id="path3284"
         inkscape:connector-curvature="0"
         sodipodi:nodetypes="sssss" />
      <path
         style="display:inline;fill:none;stroke:#000000;stroke-width:2.86506057;stroke-linecap:round;stroke-linejoin:round;stroke-opacity:1"
         d="m 181.39587,150.68872 c 3.19963,3.51828 1.58227,8.43238 -1.03623,8.89927"
         id="path3286"
         inkscape:connector-curvature="0"
         sodipodi:nodetypes="cc" />
      <path
         style="display:inline;fill:none;stroke:#000000;stroke-width:2.86506057;stroke-linecap:round;stroke-linejoin:round;stroke-opacity:1"
         d="m 174.6586,122.29126 c 2.56922,-0.61376 3.15742,-3.66243 5.39333,-3.75603 2.14161,-0.0896 7.85847,0.20719 10.71433,0.45052 2.1111,0.17989 6.05557,0.93062 10.81652,2.50149"
         id="path3290"
         inkscape:connector-curvature="0"
         sodipodi:nodetypes="cssc" />
      <path
         style="display:inline;fill:none;stroke:#000000;stroke-width:2.86506057;stroke-linecap:round;stroke-linejoin:round;stroke-opacity:1"
         d="m 137.5216,117.24822 c 0.6677,-0.13901 2.55408,-1.99544 4.17158,-2.0723 2.37565,-0.11289 9.59996,0.65314 11.29585,2.18682 1.53171,1.3852 2.28776,2.67394 4.13073,4.45947"
         id="path3294"
         inkscape:connector-curvature="0"
         sodipodi:nodetypes="cssc" />
      <path
         style="display:inline;fill:#deaa87;stroke:none;stroke-width:2.86506057;stroke-linecap:round;stroke-linejoin:round"
         d="m 171.77506,176.71043 c 1.47318,-0.84712 8.70028,-0.26746 11.62952,2.1657 1.71149,1.42167 -1.52235,3.87136 -4.93109,4.53715 -2.29062,0.44744 -9.87971,-4.87351 -6.69843,-6.70285 z"
         id="path3296"
         inkscape:connector-curvature="0"
         sodipodi:nodetypes="ssss" />
      <path
         style="display:inline;fill:none;stroke:#000000;stroke-width:2.86506057;stroke-linecap:round;stroke-linejoin:round;stroke-opacity:1"
         d="m 154.52912,109.26763 c -0.11863,2.13468 0.70406,5.23019 1.54372,7.01876"
         id="path3302"
         inkscape:connector-curvature="0"
         sodipodi:nodetypes="cc" />
    </g>
    <path
       style="display:inline;fill:#1c1f24;stroke:#000000;stroke-width:1.5;stroke-linecap:round;stroke-linejoin:round;stroke-opacity:1"
       d="m 356.32708,245.59604 -74.34253,-2.88582 c 0.66528,-5.32578 0.26823,-25.46891 -1.3033,-39.58341 -0.49986,-4.48928 -3.5272,-11.4134 -3.69971,-12.59744 -0.59929,-4.1134 6.82394,-37.61399 12.30215,-55.48425 l 12.60115,11.32489 c -9.37238,13.90165 -18.18557,28.73718 -23.18724,44.2778"
       id="path707"
       inkscape:connector-curvature="0"
       sodipodi:nodetypes="ccssccc" />
    <path
       sodipodi:nodetypes="csssc"
       inkscape:connector-curvature="0"
       id="path3346"
       d="m 291.81736,207.76762 c 10.79025,-22.49238 16.55734,-48.96186 25.33707,-66.81246 3.98346,-8.09903 15.39798,-34.9904 23.89304,-26.73948 5.21035,5.06063 7.81713,23.97452 5.39886,38.13784 -3.72207,21.7994 -3.75438,46.16839 -13.1797,63.50324"
       style="display:inline;fill:#1c1f24;stroke:#000000;stroke-width:1.5;stroke-linecap:round;stroke-linejoin:round;stroke-opacity:1" />
    <path
       sodipodi:nodetypes="cssssc"
       inkscape:connector-curvature="0"
       id="path3346-8"
       d="m 337.03907,205.45964 c -4.6567,15.2092 -11.89229,29.59186 -21.61949,30.95867 -14.19853,1.99509 -39.52962,-12.90244 -46.68271,-17.03229 -3.20643,-1.85122 -10.32689,-17.01298 -6.28017,-28.14255 3.05745,-8.40881 9.99211,-16.10111 19.25338,-11.45655 19.76824,9.91387 29.5169,13.46299 42.73669,24.91223"
       style="display:inline;fill:#1c1f24;stroke:#000000;stroke-width:1.5;stroke-linecap:round;stroke-linejoin:round;stroke-opacity:1" />
    <path
       style="display:inline;fill:#000000;stroke:none;stroke-width:1.5;stroke-linecap:round;stroke-linejoin:round;stroke-opacity:1"
       d="m 268.70367,217.26032 c 6.64927,6.59031 23.14027,-31.0731 9.53979,-37.23711 -13.60048,-6.16401 -19.09424,27.76738 -9.53979,37.23711 z"
       id="path743-6-0"
       inkscape:connector-curvature="0"
       sodipodi:nodetypes="sss" />
    <path
       style="display:inline;fill:#dbdbe3;stroke:#000000;stroke-width:1.5;stroke-linecap:round;stroke-linejoin:round;stroke-opacity:1"
       d="m 272.08743,178.37057 c -14.51022,-6.57629 -19.28921,30.46273 -7.04069,34.65981 l 3.49806,1.19864 c 12.62434,4.32585 17.90533,-29.34899 8.12603,-33.78117 z"
       id="path743-6"
       inkscape:connector-curvature="0"
       sodipodi:nodetypes="sssss" />
    <path
       style="display:inline;fill:#000000;stroke:none;stroke-width:1.5;stroke-linecap:round;stroke-linejoin:round;stroke-opacity:1"
       d="m 263.39281,211.23404 c 6.64928,6.59031 21.43324,-26.03049 7.80237,-32.12701 -10.12563,-4.52877 -17.35682,22.65729 -7.80237,32.12701 z"
       id="path743-6-0-8"
       inkscape:connector-curvature="0"
       sodipodi:nodetypes="sss" />
    <g
       id="g1251"
       transform="matrix(-0.60680492,0.04948348,0.09958432,0.60661504,352.12597,-8.3791132)"
       style="display:inline;stroke-width:2.45596647">
      <path
         sodipodi:nodetypes="cssccsssscc"
         inkscape:connector-curvature="0"
         id="path6627-9-63"
         d="m 225.29893,128.14785 c -2.62061,-0.28999 -16.29219,1.90564 -21.25152,4.23647 -2.43922,1.14642 -4.74148,1.74552 -8.45432,1.50176 -9.22722,-0.6058 -25.06925,2.85299 -34.84181,4.81528 -0.53196,1.32144 -0.55986,3.48943 -0.4116,4.69513 8.07742,3.3201 19.86884,7.87285 24.74207,7.00007 4.6284,-0.82893 8.94214,-6.14445 11.26694,-7.98661 1.28555,-1.01868 5.51177,-1.91582 6.57669,-1.42221 2.34289,1.08597 5.38584,6.21602 9.9992,4.52368 3.72203,-1.36534 9.21364,-7.07919 12.51812,-12.42941 0.57838,-1.41635 0.32706,-3.54638 -0.14377,-4.93416 z"
         style="display:inline;opacity:0.9;fill:#280b0b;stroke:#000000;stroke-width:2.45596647;stroke-linecap:round;stroke-linejoin:round" />
      <path
         sodipodi:nodetypes="csssscc"
         inkscape:connector-curvature="0"
         id="path6641-9-6"
         d="m 160.75128,138.70136 -34.91001,-15.65121 c -8.41884,-3.77442 -8.77948,8.80351 -8.33759,16.20237 0.25294,4.23522 3.14669,5.2507 3.58154,2.20217 0.83132,-5.82803 -2.02029,-19.33656 4.66353,-15.8961 l 34.59093,17.8379 z"
         style="display:inline;opacity:0.95;fill:#241c1c;stroke:#000000;stroke-width:2.45596647;stroke-linecap:round;stroke-linejoin:round" />
    </g>
    <g
       style="display:inline;stroke-width:2.86506057"
       id="g733"
       transform="matrix(0.52354913,0,0,0.52354913,159.96765,22.644877)">
      <path
         style="display:inline;opacity:1;fill:#deaa87;stroke:#000000;stroke-width:2.86506057;stroke-linecap:round;stroke-linejoin:round;stroke-opacity:1"
         d="m 251.45475,138.80385 c 1.45436,-3.83401 7.95802,-3.13415 9.60446,-13.81743 0.82231,-5.33558 5.07012,-10.33767 4.90776,-21.05664 -0.13943,-9.204674 -4.37619,-14.76389 -7.74563,-15.692929 -5.04572,-1.391235 -11.31305,4.79452 -13.48845,11.287766"
         id="path3298"
         inkscape:connector-curvature="0"
         sodipodi:nodetypes="csssc" />
      <path
         style="display:inline;opacity:1;fill:none;stroke:#000000;stroke-width:2.86506057;stroke-linecap:round;stroke-linejoin:round;stroke-opacity:1"
         d="m 258.50661,121.50345 c -2.98323,-0.83444 -4.14419,-3.83924 -5.97522,-7.2572 -1.73502,-3.23871 -3.4486,-7.69931 -3.15205,-10.10924 0.44854,-3.64529 6.64715,-12.767292 9.04321,-11.616812 2.3803,1.142962 4.84112,6.32657 4.99643,10.086542 0.27748,6.7172 -1.60549,16.46097 -5.6987,19.79432 -2.26385,1.84355 -3.86015,5.9636 -5.52024,4.29522 -1.62733,-1.63546 0.81538,-3.16233 0.68597,-4.9312 -0.078,-1.06572 -2.07275,-4.4704 -3.27765,-5.03586"
         id="path3300"
         inkscape:connector-curvature="0"
         sodipodi:nodetypes="csssssssc" />
    </g>
    <g
       id="g7777"
       transform="translate(20,-4)" />
  </g>
  <g
     inkscape:groupmode="layer"
     id="layer4"
     inkscape:label="机.01"
     style="display:inline"
     sodipodi:insensitive="true">
    <g
       style="display:inline;stroke-width:1.31981432;stroke-linecap:round;stroke-linejoin:round"
       id="g7496"
       transform="matrix(1.1365235,0,0,1.1365235,80.20198,-28.769348)">
      <g
         id="g7838"
         style="stroke-width:1.31981432;stroke-linecap:round;stroke-linejoin:round">
        <path
           style="fill:#28170b;stroke:none;stroke-width:1.31981432;stroke-linecap:round;stroke-linejoin:round"
           d="m 89.000376,295.37323 v 13.002 L -199.44062,244.4816 v -10.52537 z"
           id="path4884-0"
           inkscape:connector-curvature="0"
           sodipodi:nodetypes="ccccc" />
        <path
           style="fill:#784421;stroke:none;stroke-width:1.31981432;stroke-linecap:round;stroke-linejoin:round"
           d="m 242.29236,237.30199 -269.679377,-42.75106 -172.052623,39.40306 288.441003,61.417 z"
           id="path3453-9-4"
           inkscape:connector-curvature="0"
           sodipodi:nodetypes="ccccc" />
        <path
           style="fill:#502d16;stroke:none;stroke-width:1.31981432;stroke-linecap:round;stroke-linejoin:round"
           d="m 88.998557,295.37222 153.291003,-58.069 v 10.66 l -153.291003,60.411 z"
           id="path4884-56"
           inkscape:connector-curvature="0"
           sodipodi:nodetypes="ccccc" />
        <path
           style="fill:none;stroke:#000000;stroke-width:1.31981432;stroke-linecap:round;stroke-linejoin:round;stroke-miterlimit:4;stroke-dashoffset:0;stroke-opacity:1"
           d="M -199.441,244.48037 V 233.955 L -27.388383,194.55194 242.291,237.303 v 10.66 L 89,308.374 Z"
           id="path3453-9"
           inkscape:connector-curvature="0"
           sodipodi:nodetypes="ccccccc" />
        <path
           style="fill:none;stroke:#000000;stroke-width:1.31981432;stroke-linecap:round;stroke-linejoin:round;stroke-miterlimit:4;stroke-dashoffset:0;stroke-opacity:1"
           d="M -199.441,233.955 89,295.372"
           id="path4884"
           inkscape:connector-curvature="0"
           sodipodi:nodetypes="cc" />
        <path
           style="fill:none;stroke:#000000;stroke-width:1.31981432;stroke-linecap:round;stroke-linejoin:round;stroke-miterlimit:4;stroke-dashoffset:0;stroke-opacity:1"
           d="M 242.291,237.303 89,295.372 v 13.002"
           id="path3787"
           inkscape:connector-curvature="0"
           sodipodi:nodetypes="ccc" />
      </g>
      <path
         style="display:inline;opacity:0.5;fill:#000000;stroke:none;stroke-width:1.31981432;stroke-linecap:round;stroke-linejoin:round"
         d="m -199.44174,244.47979 v -10.52537 l 172.052624,-39.40306 269.679376,42.75106 v 10.66 l -153.290996,60.411 z"
         id="path3453-9-9"
         inkscape:connector-curvature="0"
         sodipodi:nodetypes="ccccccc" />
    </g>
    <path
       style="display:inline;opacity:0.8;fill:#000000;stroke:none;stroke-width:1.5;stroke-linecap:round;stroke-linejoin:round"
       d="m 283.22851,239.98169 -3.20233,2.88873 -82.06191,29.57739 L 86.5061,288.44777 11.195098,263.11222 72.567366,223.61355 Z"
       id="path7950"
       inkscape:connector-curvature="0"
       sodipodi:nodetypes="ccccccc" />
    <g
       style="display:inline;stroke-width:1.31981432;stroke-linecap:round;stroke-linejoin:round"
       id="g7869"
       transform="matrix(1.1365235,0,0,1.1365235,80.20198,-28.769348)">
      <path
         sodipodi:nodetypes="ccccc"
         inkscape:connector-curvature="0"
         id="path3413-4-4-2"
         d="m 111.05702,253.69152 v 5.052 L 5.233017,239.05752 v -4.704 z"
         style="display:inline;fill:#916f6f;stroke:none;stroke-width:1.31981432;stroke-linecap:round;stroke-linejoin:round" />
      <path
         sodipodi:nodetypes="ccccc"
         inkscape:connector-curvature="0"
         id="path3512-5-7-5-3-2-3-0"
         d="m 19.624321,230.63795 105.123999,18.748 -13.69,4.306 -105.8239992,-19.338 z"
         style="display:inline;fill:#c8b7b7;stroke:none;stroke-width:1.31981432;stroke-linecap:round;stroke-linejoin:round" />
      <path
         sodipodi:nodetypes="cccccc"
         inkscape:connector-curvature="0"
         id="path3453-3-0"
         d="m 125.9899,249.63701 -1.239,-0.252 -103.821996,-18.487 33.89122,-8.771 103.278776,17.387 z"
         style="display:inline;fill:#6c5353;stroke:none;stroke-width:1.31981432;stroke-linecap:round;stroke-linejoin:round" />
      <path
         sodipodi:nodetypes="ccccc"
         inkscape:connector-curvature="0"
         id="path3512-5-7-5-3-25-5"
         d="m 158.09669,239.514 -103.279001,-17.387 0.736,-0.766 103.238001,17.318 z"
         style="display:inline;fill:#916f6f;stroke:none;stroke-width:1.31981432;stroke-linecap:round;stroke-linejoin:round" />
      <path
         sodipodi:nodetypes="ccccc"
         inkscape:connector-curvature="0"
         id="path3512-5-7-5-32-3"
         d="m 158.78814,238.67736 18.894,-5.941 -102.104997,-16.548 -20.027,5.171 z"
         style="display:inline;fill:#c8b7b7;stroke:none;stroke-width:1.31981432;stroke-linecap:round;stroke-linejoin:round" />
      <path
         sodipodi:nodetypes="ccccccccc"
         inkscape:connector-curvature="0"
         id="path3413-4-4-7"
         d="m 158.79126,238.68102 -0.695,0.835 -32.109,10.123 -1.239,-0.252 -13.69,4.306 v 5.052 l 66.627,-22.966 v -3.039 z"
         style="display:inline;fill:#ac9393;stroke:none;stroke-width:1.31981432;stroke-linecap:round;stroke-linejoin:round" />
      <path
         sodipodi:nodetypes="ccccccccccc"
         inkscape:connector-curvature="0"
         id="path3453"
         d="m 19.624,230.638 -14.39,3.716 v 4.704 l 105.824,19.686 66.627,-22.966 v -3.039 L 75.58,216.191 55.553,221.362 54.817437,222.128 20.926,230.899 Z"
         style="display:inline;fill:none;stroke:#000000;stroke-width:1.31981432;stroke-linecap:round;stroke-linejoin:round;stroke-miterlimit:4;stroke-dashoffset:0;stroke-opacity:1" />
      <path
         sodipodi:nodetypes="ccccccc"
         inkscape:connector-curvature="0"
         id="path3413-4"
         d="m 5.234,234.354 105.824,19.338 13.69,-4.306 1.239,0.252 32.109,-10.123 0.695,-0.835 18.894,-5.941"
         style="display:inline;fill:none;stroke:#000000;stroke-width:1.31981432;stroke-linecap:round;stroke-linejoin:round;stroke-miterlimit:4;stroke-dashoffset:0;stroke-opacity:1" />
      <path
         sodipodi:nodetypes="cc"
         inkscape:connector-curvature="0"
         id="path3512-5-7-5"
         d="M 55.553,221.362 158.791,238.68"
         style="display:inline;fill:none;stroke:#000000;stroke-width:1.31981432;stroke-linecap:round;stroke-linejoin:round;stroke-opacity:1" />
      <path
         sodipodi:nodetypes="cc"
         inkscape:connector-curvature="0"
         id="path3512-5-7-5-3"
         d="m 54.817,222.128 103.279,17.387"
         style="display:inline;fill:none;stroke:#000000;stroke-width:1.31981432;stroke-linecap:round;stroke-linejoin:round;stroke-opacity:1" />
      <path
         sodipodi:nodetypes="ccc"
         inkscape:connector-curvature="0"
         id="path3512-5-7-5-3-2"
         d="m 5.234,234.354 14.39,-3.716 105.124,18.748"
         style="display:inline;fill:none;stroke:#000000;stroke-width:1.31981432;stroke-linecap:round;stroke-linejoin:round;stroke-opacity:1" />
    </g>
    <path
       sodipodi:nodetypes="ccccccccccc"
       inkscape:connector-curvature="0"
       id="path3453-0"
       d="m 102.50604,233.35751 -16.354576,4.22332 v 5.34621 l 120.271456,22.3736 75.72315,-26.10139 v -3.4539 l -116.04472,-18.80719 -22.76115,5.87696 -0.83599,0.87058 -38.51841,9.96844 z"
       style="display:inline;opacity:0.5;fill:#000000;stroke:none;stroke-width:1.5;stroke-linecap:round;stroke-linejoin:round" />
    <path
       style="display:inline;fill:#241c1c;stroke:#000000;stroke-width:1.5;stroke-linecap:round;stroke-linejoin:round;stroke-opacity:1"
       d="m 189.15451,258.27571 -8.05182,2.01214 -1.12109,1.04497 c -54.62816,20.38774 -82.264646,8.21332 -124.131234,26.30726 l 2.737895,2.78418 c 39.627068,-18.73969 67.525649,-5.31952 122.291569,-26.61131 l 1.19014,0.15934 7.93694,-2.14911 c 1.80932,-0.48992 0.76463,-4.0065 -0.8524,-3.54747 z"
       id="path7948"
       inkscape:connector-curvature="0"
       sodipodi:nodetypes="sccccccss" />
    <path
       style="display:inline;fill:none;stroke:#000000;stroke-width:1.5;stroke-linecap:round;stroke-linejoin:round;stroke-opacity:1"
       d="m 246.70266,243.71216 -23.29873,6.81914 -40.34657,-7.3874"
       id="path7952"
       inkscape:connector-curvature="0" />
    <path
       style="display:inline;fill:none;stroke:#000000;stroke-width:1.5;stroke-linecap:round;stroke-linejoin:round;stroke-opacity:1"
       d="M 219.60978,244.97426 183.90975,238.5978"
       id="path7954"
       inkscape:connector-curvature="0"
       sodipodi:nodetypes="cc" />
    <path
       style="display:inline;fill:none;stroke:#000000;stroke-width:1.5;stroke-linecap:round;stroke-linejoin:round;stroke-opacity:1"
       d="m 233.91678,242.7177 -48.87051,-8.666"
       id="path7956"
       inkscape:connector-curvature="0"
       sodipodi:nodetypes="cc" />
  </g>
  <g
     inkscape:groupmode="layer"
     id="layer9"
     inkscape:label="豚.02"
     style="display:inline"
     sodipodi:insensitive="true">
    <path
       sodipodi:nodetypes="cssssc"
       inkscape:connector-curvature="0"
       id="path3346-8-8"
       d="m 244.07963,191.76932 c -0.10793,5.55067 -3.25578,11.97349 -6.82173,13.64772 -10.02031,4.70461 -32.79498,13.14583 -41.23069,14.67178 -3.64333,0.65905 -13.79326,-6.04774 -16.01106,-17.68065 -1.67565,-8.7891 -0.017,-13.66983 8.1849,-15.84997 13.72852,-3.64915 20.01157,-8.00699 28.2124,-10.23749"
       style="display:inline;fill:#1c1f24;stroke:#000000;stroke-width:1.5;stroke-linecap:round;stroke-linejoin:round;stroke-opacity:1" />
    <path
       style="display:inline;fill:#000000;stroke:none;stroke-width:1.5;stroke-linecap:round;stroke-linejoin:round;stroke-opacity:1"
       d="m 193.31092,218.97704 c 9.68804,4.04677 15.73385,-28.35326 -5.03457,-30.43824 -14.54199,-1.4599 -6.54028,25.60334 5.03457,30.43824 z"
       id="path743-6-0-4"
       inkscape:connector-curvature="0"
       sodipodi:nodetypes="sss" />
    <path
       style="display:inline;fill:#dbdbe3;stroke:#000000;stroke-width:1.5;stroke-linecap:round;stroke-linejoin:round;stroke-opacity:1"
       d="m 181.02584,190.31728 c -8.32328,1.64189 -3.05946,30.7851 7.31091,28.40837 l 4.43189,-1.01572 c 12.46823,-2.85752 9.02713,-31.48982 -7.03263,-28.3218 z"
       id="path743-6-5"
       inkscape:connector-curvature="0"
       sodipodi:nodetypes="sssss" />
    <path
       style="display:inline;fill:#000000;stroke:none;stroke-width:1.5;stroke-linecap:round;stroke-linejoin:round;stroke-opacity:1"
       d="m 186.65538,217.05699 c 7.89363,4.34636 14.61671,-25.71394 -3.73391,-25.74178 -10.0617,-0.0153 -5.74403,20.52307 3.73391,25.74178 z"
       id="path743-6-0-8-9"
       inkscape:connector-curvature="0"
       sodipodi:nodetypes="sss" />
    <path
       style="display:inline;fill:#deaa87;stroke:#000000;stroke-width:1.5;stroke-linecap:round;stroke-linejoin:round;stroke-opacity:1"
       d="m 178.46924,206.79659 0.51324,7.43238 c -1.6441,1.48577 -2.28547,5.20867 -2.51078,7.74298 -0.17419,1.95923 1.68567,4.53736 3.56185,2.7368 1.07742,-1.03401 3.21905,-4.70043 4.08908,-6.33741 0.75003,-1.41122 2.05357,-4.44234 2.94598,-6.52396 1.91546,-0.80276 5.47358,-4.67384 5.81598,-6.90319 0.89151,-5.80452 -2.26184,-12.95845 -9.03222,-12.5432 -5.60857,0.34399 -13.27488,1.72745 -18.26214,2.03035 -4.04273,0.24554 -6.64479,2.21003 -7.91814,2.76409 -1.54344,0.67159 -7.39322,5.22101 -8.57182,7.09355 -1.43485,2.27967 1.68585,7.31308 2.32379,9.57897 0.68103,2.41895 2.98677,6.18307 3.79873,7.80466 1.11954,2.23586 3.19392,0.56495 3.20332,-0.49333 0.0242,-2.7261 -0.14071,-5.76871 -1.02238,-6.91179 0.0721,-1.96656 -1.10699,-4.54208 -1.93767,-6.92179 1.14548,-0.16616 3.8124,-2.2634 5.80757,-3.40817 l 6.55522,-0.66514 c 2.69701,2.24841 8.76465,4.69185 10.81037,6.64039"
       id="path15246-3"
       inkscape:connector-curvature="0"
       sodipodi:nodetypes="ccssscssssssssccccc" />
    <path
       style="display:inline;fill:#deaa87;stroke:#000000;stroke-width:1.5;stroke-linecap:round;stroke-linejoin:round;stroke-opacity:1"
       d="m 159.63899,198.48373 c -2.29074,1.41992 -6.13445,4.03763 -7.31327,5.91051 -1.43486,2.27967 0.59317,9.52385 0.88152,11.34175 0.23346,1.47186 3.77578,4.68423 5.18031,5.9812 1.83707,1.69636 2.54838,-0.9951 2.2968,-2.02308 -0.54237,-2.21618 -2.14788,-4.38644 -3.02955,-5.52952 0.005,-1.69998 0.63624,-4.3985 -0.0301,-6.95498 2.04537,-1.66599 3.43387,-3.08004 5.40315,-4.42538"
       id="path15301-2-9-4"
       inkscape:connector-curvature="0"
       sodipodi:nodetypes="cssssccc" />
    <path
       style="display:inline;fill:#deaa87;stroke:#000000;stroke-width:1.5;stroke-linecap:round;stroke-linejoin:round;stroke-opacity:1"
       d="m 163.9446,199.30959 c -2.13048,1.74042 -5.73382,4.03763 -6.91264,5.91051 -1.43486,2.27966 -0.47755,8.19447 -0.24024,10.54049 0.25291,2.50022 3.0669,6.2632 3.87886,7.88478 1.11954,2.23586 3.19393,0.56495 3.20332,-0.49333 0.0242,-2.7261 -0.78172,-6.40972 -1.66339,-7.5528 0.005,-1.69998 0.57153,-4.12493 0.70648,-6.9218 1.14548,-0.16616 3.89254,-2.42363 5.46218,-3.85073"
       id="path15301-2-9"
       inkscape:connector-curvature="0"
       sodipodi:nodetypes="cssssccc" />
    <path
       style="display:inline;fill:#deaa87;stroke:#000000;stroke-width:1.5;stroke-linecap:round;stroke-linejoin:round;stroke-opacity:1"
       d="m 168.74869,201.60238 c -1.72804,1.63782 -3.4097,4.43935 -4.58898,6.31114 -1.43586,2.27904 -2.88134,6.83233 -3.36516,8.85784 -0.58384,2.44422 0.34262,9.0676 1.15458,10.68918 1.11954,2.23587 2.97484,0.89165 3.36357,-0.0927 0.6652,-1.68446 1.06117,-4.88731 1.22115,-7.39255 0.40606,-1.45959 1.4529,-4.92617 2.54938,-8.36405 1.14548,-0.16616 4.05278,-3.2249 6.02305,-4.57187"
       id="path15301-2"
       inkscape:connector-curvature="0"
       sodipodi:nodetypes="cssssccc" />
    <path
       style="display:inline;fill:#deaa87;stroke:#000000;stroke-width:1.5;stroke-linecap:round;stroke-linejoin:round;stroke-opacity:1"
       d="m 242.12882,179.81934 -13.28601,1.25802 c -3.07218,0.51521 -6.90586,1.09916 -9.935,3.89928 -1.41953,1.31221 -0.97265,3.87411 1.47306,4.15053 4.25265,0.48065 8.00191,0.18105 9.80497,-0.85852 l 10.14509,-0.25466 c 4.94027,5.5454 8.00806,6.78204 14.3178,6.72651 5.15383,0.29897 11.53692,10.76946 15.45721,8.90985 5.63773,-2.67428 9.80558,-19.49346 -0.29272,-23.64688 -5.01068,-2.06086 -7.12142,-5.3722 -11.76973,-8.31899 -3.77348,-2.39217 -15.45391,-6.09891 -19.05851,-5.97976 z"
       id="path15246-4"
       inkscape:connector-curvature="0"
       sodipodi:nodetypes="ccsscccssscc" />
    <path
       style="display:inline;fill:#e9c6af;stroke:none;stroke-width:1.5;stroke-linecap:round;stroke-linejoin:round;stroke-opacity:1"
       d="m 225.99902,183.30679 c -1.19262,-0.11679 -4.0927,0.36055 -5.8777,2.17503 -1.44642,1.47032 0.64102,2.52736 1.80787,2.56362 1.03096,0.032 5.13381,-0.34723 5.95554,-1.3745 1.61265,-2.01603 0.25936,-3.15409 -1.88571,-3.36415 z"
       id="path15301-5-9"
       inkscape:connector-curvature="0"
       sodipodi:nodetypes="sssss" />
    <path
       style="display:inline;fill:#deaa87;stroke:#000000;stroke-width:1.5;stroke-linecap:round;stroke-linejoin:round;stroke-opacity:1"
       d="m 250.85542,184.15391 c -0.10676,3.64182 -1.60799,11.20961 7.84216,11.26474"
       id="path10097-19-7-6-9-68-1"
       inkscape:connector-curvature="0"
       sodipodi:nodetypes="cc" />
    <path
       style="display:inline;fill:#deaa87;stroke:#000000;stroke-width:1.5;stroke-linecap:round;stroke-linejoin:round;stroke-opacity:1"
       d="m 246.84729,170.42807 c -6.10184,-0.98271 -12.6038,-6.15605 -16.35863,-4.16249 -2.5288,1.34263 -6.83979,0.68032 -8.8662,2.70868 -1.63452,1.63609 -4.28712,5.95934 -6.84013,10.28524 -1.78892,3.0312 1.03148,4.55539 2.6655,3.87725 2.77172,-1.15029 7.54092,-6.15641 8.03257,-8.59758 l 6.5181,0.91855 6.58531,5.62035"
       id="path10097-19-7-6-9-68-5-4-8-5"
       inkscape:connector-curvature="0"
       sodipodi:nodetypes="cssssccc" />
    <path
       style="display:inline;fill:#e9c6af;stroke:none;stroke-width:1.5;stroke-linecap:round;stroke-linejoin:round;stroke-opacity:1"
       d="m 230.3889,167.34262 c -4.44549,0.93535 -6.67782,1.13676 -7.72779,2.00922 -2.13211,1.77164 -6.57191,9.18835 -7.2638,10.61286 -0.85709,1.76463 1.36799,1.91707 2.22772,1.12731 1.05684,-0.97083 4.94483,-5.11263 6.57111,-8.20748 1.89274,0.14064 5.13072,-0.5163 6.76968,-1.07876 z"
       id="path15301-5-0"
       inkscape:connector-curvature="0"
       sodipodi:nodetypes="csssccc" />
    <path
       style="display:inline;fill:#deaa87;stroke:#000000;stroke-width:1.5;stroke-linecap:round;stroke-linejoin:round;stroke-opacity:1"
       d="m 246.65008,167.77742 c -3.71972,-1.63363 -8.53567,-8.59417 -11.66189,-7.29041 -3.20778,1.33777 -7.37105,7.82651 -8.23198,10.70896 -0.75739,2.53577 0.29627,9.43947 1.12236,13.54514 0.46584,2.31521 3.17668,2.57043 4.21788,-0.18921 1.23296,-3.26784 1.37202,-6.6762 0.97246,-10.64368 l 4.96349,-3.31149 4.23552,7.36402"
       id="path10097-19-7-6-9-68-5-4-3"
       inkscape:connector-curvature="0"
       sodipodi:nodetypes="cssssccc" />
    <path
       style="display:inline;fill:#e9c6af;stroke:none;stroke-width:1.5;stroke-linecap:round;stroke-linejoin:round;stroke-opacity:1"
       d="m 234.87598,161.66137 c -2.60174,1.43535 -6.79861,7.57903 -7.31147,10.1246 -0.43861,2.17702 0.35162,9.05647 1.02157,11.97725 0.61668,2.68852 1.60472,0.91042 1.94046,-0.20767 0.37778,-1.25809 0.37227,-6.83371 -0.30671,-10.9415 1.76774,-1.90367 4.62312,-6.02262 6.19228,-8.3219 1.09675,-1.60706 -0.24563,-3.34273 -1.53613,-2.63078 z"
       id="path15301-5-8"
       inkscape:connector-curvature="0"
       sodipodi:nodetypes="sssscss" />
    <path
       style="display:inline;fill:#deaa87;stroke:#000000;stroke-width:1.5;stroke-linecap:round;stroke-linejoin:round;stroke-opacity:1"
       d="m 252.15572,170.21786 c -2.40623,-2.93348 -7.42629,-8.70554 -10.41487,-6.74601 -2.91739,1.91285 -8.19003,10.70392 -8.8598,13.4463 -0.40643,1.66408 -0.19606,11.20241 0.41863,15.78115 0.38825,2.89207 2.59719,2.28887 3.51077,1.38137 1.73181,-1.72027 2.33758,-9.4123 2.33537,-13.53143 l 4.68394,-7.10117 1.87084,5.45264"
       id="path10097-19-7-6-9-68-5-5"
       inkscape:connector-curvature="0"
       sodipodi:nodetypes="cssssccc" />
    <path
       style="display:inline;fill:#e9c6af;stroke:none;stroke-width:1.5;stroke-linecap:round;stroke-linejoin:round;stroke-opacity:1"
       d="m 241.72033,164.6285 c -2.23545,1.95756 -7.09204,9.89507 -7.76636,12.40271 -0.71986,2.67702 -0.33679,11.23363 -0.0409,13.53791 0.35128,2.73588 1.87189,1.45106 2.11723,0.30972 0.39393,-1.83262 0.43702,-8.89123 1.00264,-11.98608 1.89274,-2.09117 6.35904,-7.68233 7.58727,-10.77939 0.95592,-2.41039 -1.0132,-5.13702 -2.89988,-3.48487 z"
       id="path15301-5-2"
       inkscape:connector-curvature="0"
       sodipodi:nodetypes="sssscss" />
    <path
       style="display:inline;fill:#deaa87;stroke:#000000;stroke-width:1.5;stroke-linecap:round;stroke-linejoin:round;stroke-opacity:1"
       d="m 260.14924,173.59331 c -0.87686,-0.75972 -3.34285,-4.0278 -5.10209,-4.94152 -2.32489,-1.2075 -4.08372,-2.87636 -6.2581,-1.76666 -2.64665,1.35074 -6.90139,9.72496 -7.57571,12.2326 -0.71986,2.67702 -2.72328,8.93553 -3.48807,11.72595 -0.72911,2.66023 2.09829,2.98111 3.04531,2.29845 2.60363,-1.8768 5.1658,-8.13993 5.73142,-11.23478 1.89274,-2.09117 4.53485,-3.73697 4.69556,-6.69503"
       id="path15301-6"
       inkscape:connector-curvature="0"
       sodipodi:nodetypes="cssccscc" />
    <path
       style="display:inline;fill:#deaa87;stroke:#000000;stroke-width:1.5;stroke-linecap:round;stroke-linejoin:round;stroke-opacity:1"
       d="m 250.13538,178.19974 c 0.65412,1.75995 0.99596,2.4287 2.13337,3.68748"
       id="path15297-8"
       inkscape:connector-curvature="0"
       sodipodi:nodetypes="cc" />
    <path
       style="display:inline;fill:#e9c6af;stroke:none;stroke-width:1.5;stroke-linecap:round;stroke-linejoin:round;stroke-opacity:1"
       d="m 249.02888,168.05313 c -2.60174,1.43535 -6.1059,8.92946 -6.78022,11.4371 -0.71986,2.67702 -2.5465,7.87487 -3.31129,10.66529 -0.72911,2.66023 1.09829,1.59028 1.80787,0.66327 1.23362,-1.61164 3.53062,-6.59313 4.09624,-9.68798 1.89274,-2.09117 4.34769,-5.70265 5.59853,-8.79065 1.11685,-2.7572 -0.12063,-4.99898 -1.41113,-4.28703 z"
       id="path15301-5"
       inkscape:connector-curvature="0"
       sodipodi:nodetypes="sssscss" />
  </g>
  <g
     inkscape:groupmode="layer"
     id="layer8"
     inkscape:label="机.02"
     style="display:inline"
     sodipodi:insensitive="true">
    <g
       style="display:inline;stroke-width:1.31981432;stroke-linecap:round;stroke-linejoin:round"
       id="g7188"
       transform="matrix(1.1365235,0,0,1.1365235,80.20198,-28.769348)">
      <g
         id="g7862"
         style="stroke-width:1.31981432;stroke-linecap:round;stroke-linejoin:round">
        <path
           style="display:inline;fill:#ac9393;stroke:none;stroke-width:1.31981432;stroke-linecap:round;stroke-linejoin:round"
           d="m 81.946835,182.63768 23.084005,71.294 2.715,-2.505 -23.016005,-71.236 z"
           id="path3552-3"
           inkscape:connector-curvature="0"
           sodipodi:nodetypes="ccccc" />
        <path
           style="display:inline;fill:#c8b7b7;stroke:none;stroke-width:1.31981432;stroke-linecap:round;stroke-linejoin:round"
           d="m 81.946976,182.63563 -105.243,-14.641 2.716,-2.258 105.31,14.452 z"
           id="path3552-3-6"
           inkscape:connector-curvature="0"
           sodipodi:nodetypes="ccccc" />
        <path
           style="display:inline;fill:#916f6f;stroke:none;stroke-width:1.31981432;stroke-linecap:round;stroke-linejoin:round"
           d="m 81.946992,182.63624 23.083998,71.294 -105.52699836,-19.376 -22.79999964,-66.559 z"
           id="path3552-3-1"
           inkscape:connector-curvature="0"
           sodipodi:nodetypes="ccccc" />
        <path
           style="display:inline;fill:none;stroke:#000000;stroke-width:1.31981432;stroke-linecap:round;stroke-linejoin:round;stroke-miterlimit:4;stroke-dashoffset:0;stroke-opacity:1"
           d="m 105.031,253.931 -105.527,-19.376 -22.8,-66.559 2.716,-2.258 105.31,14.452 23.016,71.236 z"
           id="rect3388-2"
           inkscape:connector-curvature="0"
           sodipodi:nodetypes="ccccccc" />
        <path
           style="display:inline;fill:none;stroke:#000000;stroke-width:1.31981432;stroke-linecap:round;stroke-linejoin:round;stroke-miterlimit:4;stroke-dashoffset:0;stroke-opacity:1"
           d="m -23.296,167.996 105.243,14.641 23.084,71.294"
           id="path3552"
           inkscape:connector-curvature="0"
           sodipodi:nodetypes="ccc" />
      </g>
      <path
         style="display:inline;opacity:0.8;fill:#000000;stroke:none;stroke-width:1.31981432;stroke-linecap:round;stroke-linejoin:round"
         d="m 105.03181,253.93219 -105.52699772,-19.376 -22.80000028,-66.559 2.716,-2.258 105.31,14.452 23.015998,71.236 z"
         id="rect3388-2-3"
         inkscape:connector-curvature="0"
         sodipodi:nodetypes="ccccccc" />
    </g>
  </g>
  <g
     inkscape:groupmode="layer"
     id="layer2"
     inkscape:label="枠面"
     sodipodi:insensitive="true"
     style="display:inline">
    <path
       style="fill:#ffffff;stroke:none;display:inline"
       d="m 0,0 0,320 370,0 0,-320 -10,10 0,300 -350,0 0,-300 350,0 10,-10 z"
       id="path21072"
       inkscape:connector-curvature="0"
       sodipodi:nodetypes="ccccccccccc" />
  </g>
</svg>
