<?xml version="1.0" encoding="UTF-8" standalone="no"?>
<!-- Created with Inkscape (http://www.inkscape.org/) -->

<svg
   xmlns:dc="http://purl.org/dc/elements/1.1/"
   xmlns:cc="http://creativecommons.org/ns#"
   xmlns:rdf="http://www.w3.org/1999/02/22-rdf-syntax-ns#"
   xmlns:svg="http://www.w3.org/2000/svg"
   xmlns="http://www.w3.org/2000/svg"
   xmlns:sodipodi="http://sodipodi.sourceforge.net/DTD/sodipodi-0.dtd"
   xmlns:inkscape="http://www.inkscape.org/namespaces/inkscape"
   width="370"
   height="320"
   id="svg2"
   version="1.1"
   inkscape:version="0.48.4 r9939"
   sodipodi:docname="[03.遠望].svg"
   inkscape:export-filename="C:\Users\root\Desktop\資料\作業\SANARO\ORG\[01.行動]03..png"
   inkscape:export-xdpi="90"
   inkscape:export-ydpi="90"
   enable-background="new">
  <defs
     id="defs4">
    <inkscape:perspective
       sodipodi:type="inkscape:persp3d"
       inkscape:vp_x="363.49708 : 943.81603 : 1"
       inkscape:vp_y="0 : 1000 : 0"
       inkscape:vp_z="744.09448 : 526.18109 : 1"
       inkscape:persp3d-origin="372.04724 : 350.78739 : 1"
       id="perspective5056" />
    <inkscape:perspective
       id="perspective5056-8"
       inkscape:persp3d-origin="372.04724 : 350.78739 : 1"
       inkscape:vp_z="744.09448 : 526.18109 : 1"
       inkscape:vp_y="0 : 1000 : 0"
       inkscape:vp_x="363.49708 : 943.81603 : 1"
       sodipodi:type="inkscape:persp3d" />
    <inkscape:perspective
       id="perspective5056-5"
       inkscape:persp3d-origin="372.04724 : 350.78739 : 1"
       inkscape:vp_z="744.09448 : 526.18109 : 1"
       inkscape:vp_y="0 : 1000 : 0"
       inkscape:vp_x="363.49708 : 943.81603 : 1"
       sodipodi:type="inkscape:persp3d" />
    <inkscape:perspective
       sodipodi:type="inkscape:persp3d"
       inkscape:vp_x="363.49708 : 943.81603 : 1"
       inkscape:vp_y="0 : 1000 : 0"
       inkscape:vp_z="744.09448 : 526.18109 : 1"
       inkscape:persp3d-origin="372.04724 : 350.78739 : 1"
       id="perspective5056-5-2" />
    <inkscape:perspective
       sodipodi:type="inkscape:persp3d"
       inkscape:vp_x="363.49708 : 943.81603 : 1"
       inkscape:vp_y="0 : 1000 : 0"
       inkscape:vp_z="744.09448 : 526.18109 : 1"
       inkscape:persp3d-origin="372.04724 : 350.78739 : 1"
       id="perspective5056-8-5" />
    <inkscape:perspective
       id="perspective5056-1"
       inkscape:persp3d-origin="372.04724 : 350.78739 : 1"
       inkscape:vp_z="744.09448 : 526.18109 : 1"
       inkscape:vp_y="0 : 1000 : 0"
       inkscape:vp_x="363.49708 : 943.81603 : 1"
       sodipodi:type="inkscape:persp3d" />
    <inkscape:perspective
       sodipodi:type="inkscape:persp3d"
       inkscape:vp_x="363.49708 : 943.81603 : 1"
       inkscape:vp_y="0 : 1000 : 0"
       inkscape:vp_z="744.09448 : 526.18109 : 1"
       inkscape:persp3d-origin="372.04724 : 350.78739 : 1"
       id="perspective5056-5-5" />
    <inkscape:perspective
       id="perspective5056-4"
       inkscape:persp3d-origin="372.04724 : 350.78739 : 1"
       inkscape:vp_z="744.09448 : 526.18109 : 1"
       inkscape:vp_y="0 : 1000 : 0"
       inkscape:vp_x="363.49708 : 943.81603 : 1"
       sodipodi:type="inkscape:persp3d" />
    <inkscape:perspective
       sodipodi:type="inkscape:persp3d"
       inkscape:vp_x="363.49708 : 943.81603 : 1"
       inkscape:vp_y="0 : 1000 : 0"
       inkscape:vp_z="744.09448 : 526.18109 : 1"
       inkscape:persp3d-origin="372.04724 : 350.78739 : 1"
       id="perspective5056-1-2" />
    <inkscape:perspective
       id="perspective5056-8-5-8"
       inkscape:persp3d-origin="372.04724 : 350.78739 : 1"
       inkscape:vp_z="744.09448 : 526.18109 : 1"
       inkscape:vp_y="0 : 1000 : 0"
       inkscape:vp_x="363.49708 : 943.81603 : 1"
       sodipodi:type="inkscape:persp3d" />
    <inkscape:perspective
       id="perspective5056-5-2-8"
       inkscape:persp3d-origin="372.04724 : 350.78739 : 1"
       inkscape:vp_z="744.09448 : 526.18109 : 1"
       inkscape:vp_y="0 : 1000 : 0"
       inkscape:vp_x="363.49708 : 943.81603 : 1"
       sodipodi:type="inkscape:persp3d" />
    <inkscape:perspective
       sodipodi:type="inkscape:persp3d"
       inkscape:vp_x="363.49708 : 943.81603 : 1"
       inkscape:vp_y="0 : 1000 : 0"
       inkscape:vp_z="744.09448 : 526.18109 : 1"
       inkscape:persp3d-origin="372.04724 : 350.78739 : 1"
       id="perspective5056-5-4" />
    <inkscape:perspective
       sodipodi:type="inkscape:persp3d"
       inkscape:vp_x="363.49708 : 943.81603 : 1"
       inkscape:vp_y="0 : 1000 : 0"
       inkscape:vp_z="744.09448 : 526.18109 : 1"
       inkscape:persp3d-origin="372.04724 : 350.78739 : 1"
       id="perspective5056-8-9" />
    <inkscape:perspective
       id="perspective5056-40"
       inkscape:persp3d-origin="372.04724 : 350.78739 : 1"
       inkscape:vp_z="744.09448 : 526.18109 : 1"
       inkscape:vp_y="0 : 1000 : 0"
       inkscape:vp_x="363.49708 : 943.81603 : 1"
       sodipodi:type="inkscape:persp3d" />
    <inkscape:perspective
       sodipodi:type="inkscape:persp3d"
       inkscape:vp_x="363.49708 : 943.81603 : 1"
       inkscape:vp_y="0 : 1000 : 0"
       inkscape:vp_z="744.09448 : 526.18109 : 1"
       inkscape:persp3d-origin="372.04724 : 350.78739 : 1"
       id="perspective5056-1-5" />
    <inkscape:perspective
       id="perspective5056-8-5-4"
       inkscape:persp3d-origin="372.04724 : 350.78739 : 1"
       inkscape:vp_z="744.09448 : 526.18109 : 1"
       inkscape:vp_y="0 : 1000 : 0"
       inkscape:vp_x="363.49708 : 943.81603 : 1"
       sodipodi:type="inkscape:persp3d" />
    <inkscape:perspective
       id="perspective5056-5-2-82"
       inkscape:persp3d-origin="372.04724 : 350.78739 : 1"
       inkscape:vp_z="744.09448 : 526.18109 : 1"
       inkscape:vp_y="0 : 1000 : 0"
       inkscape:vp_x="363.49708 : 943.81603 : 1"
       sodipodi:type="inkscape:persp3d" />
    <inkscape:perspective
       sodipodi:type="inkscape:persp3d"
       inkscape:vp_x="363.49708 : 943.81603 : 1"
       inkscape:vp_y="0 : 1000 : 0"
       inkscape:vp_z="744.09448 : 526.18109 : 1"
       inkscape:persp3d-origin="372.04724 : 350.78739 : 1"
       id="perspective5056-5-8" />
    <inkscape:perspective
       sodipodi:type="inkscape:persp3d"
       inkscape:vp_x="363.49708 : 943.81603 : 1"
       inkscape:vp_y="0 : 1000 : 0"
       inkscape:vp_z="744.09448 : 526.18109 : 1"
       inkscape:persp3d-origin="372.04724 : 350.78739 : 1"
       id="perspective5056-8-4" />
    <inkscape:perspective
       id="perspective5056-409"
       inkscape:persp3d-origin="372.04724 : 350.78739 : 1"
       inkscape:vp_z="744.09448 : 526.18109 : 1"
       inkscape:vp_y="0 : 1000 : 0"
       inkscape:vp_x="363.49708 : 943.81603 : 1"
       sodipodi:type="inkscape:persp3d" />
    <inkscape:perspective
       sodipodi:type="inkscape:persp3d"
       inkscape:vp_x="363.49708 : 943.81603 : 1"
       inkscape:vp_y="0 : 1000 : 0"
       inkscape:vp_z="744.09448 : 526.18109 : 1"
       inkscape:persp3d-origin="372.04724 : 350.78739 : 1"
       id="perspective5056-1-7" />
    <inkscape:perspective
       id="perspective5056-8-5-2"
       inkscape:persp3d-origin="372.04724 : 350.78739 : 1"
       inkscape:vp_z="744.09448 : 526.18109 : 1"
       inkscape:vp_y="0 : 1000 : 0"
       inkscape:vp_x="363.49708 : 943.81603 : 1"
       sodipodi:type="inkscape:persp3d" />
    <inkscape:perspective
       id="perspective5056-5-2-89"
       inkscape:persp3d-origin="372.04724 : 350.78739 : 1"
       inkscape:vp_z="744.09448 : 526.18109 : 1"
       inkscape:vp_y="0 : 1000 : 0"
       inkscape:vp_x="363.49708 : 943.81603 : 1"
       sodipodi:type="inkscape:persp3d" />
    <inkscape:perspective
       sodipodi:type="inkscape:persp3d"
       inkscape:vp_x="363.49708 : 943.81603 : 1"
       inkscape:vp_y="0 : 1000 : 0"
       inkscape:vp_z="744.09448 : 526.18109 : 1"
       inkscape:persp3d-origin="372.04724 : 350.78739 : 1"
       id="perspective5056-5-1" />
    <inkscape:perspective
       sodipodi:type="inkscape:persp3d"
       inkscape:vp_x="363.49708 : 943.81603 : 1"
       inkscape:vp_y="0 : 1000 : 0"
       inkscape:vp_z="744.09448 : 526.18109 : 1"
       inkscape:persp3d-origin="372.04724 : 350.78739 : 1"
       id="perspective5056-8-6" />
    <inkscape:perspective
       id="perspective5056-7"
       inkscape:persp3d-origin="372.04724 : 350.78739 : 1"
       inkscape:vp_z="744.09448 : 526.18109 : 1"
       inkscape:vp_y="0 : 1000 : 0"
       inkscape:vp_x="363.49708 : 943.81603 : 1"
       sodipodi:type="inkscape:persp3d" />
    <inkscape:perspective
       sodipodi:type="inkscape:persp3d"
       inkscape:vp_x="363.49708 : 943.81603 : 1"
       inkscape:vp_y="0 : 1000 : 0"
       inkscape:vp_z="744.09448 : 526.18109 : 1"
       inkscape:persp3d-origin="372.04724 : 350.78739 : 1"
       id="perspective5056-1-1" />
    <inkscape:perspective
       id="perspective5056-8-5-82"
       inkscape:persp3d-origin="372.04724 : 350.78739 : 1"
       inkscape:vp_z="744.09448 : 526.18109 : 1"
       inkscape:vp_y="0 : 1000 : 0"
       inkscape:vp_x="363.49708 : 943.81603 : 1"
       sodipodi:type="inkscape:persp3d" />
    <inkscape:perspective
       id="perspective5056-5-2-1"
       inkscape:persp3d-origin="372.04724 : 350.78739 : 1"
       inkscape:vp_z="744.09448 : 526.18109 : 1"
       inkscape:vp_y="0 : 1000 : 0"
       inkscape:vp_x="363.49708 : 943.81603 : 1"
       sodipodi:type="inkscape:persp3d" />
    <inkscape:perspective
       sodipodi:type="inkscape:persp3d"
       inkscape:vp_x="363.49708 : 943.81603 : 1"
       inkscape:vp_y="0 : 1000 : 0"
       inkscape:vp_z="744.09448 : 526.18109 : 1"
       inkscape:persp3d-origin="372.04724 : 350.78739 : 1"
       id="perspective5056-5-46" />
    <inkscape:perspective
       sodipodi:type="inkscape:persp3d"
       inkscape:vp_x="363.49708 : 943.81603 : 1"
       inkscape:vp_y="0 : 1000 : 0"
       inkscape:vp_z="744.09448 : 526.18109 : 1"
       inkscape:persp3d-origin="372.04724 : 350.78739 : 1"
       id="perspective5056-8-92" />
    <inkscape:perspective
       id="perspective5056-3"
       inkscape:persp3d-origin="372.04724 : 350.78739 : 1"
       inkscape:vp_z="744.09448 : 526.18109 : 1"
       inkscape:vp_y="0 : 1000 : 0"
       inkscape:vp_x="363.49708 : 943.81603 : 1"
       sodipodi:type="inkscape:persp3d" />
  </defs>
  <sodipodi:namedview
     id="base"
     pagecolor="#ffffff"
     bordercolor="#666666"
     borderopacity="1.0"
     inkscape:pageopacity="0.0"
     inkscape:pageshadow="2"
     inkscape:zoom="0.81574449"
     inkscape:cx="184.41582"
     inkscape:cy="193.1211"
     inkscape:document-units="px"
     inkscape:current-layer="layer1"
     showgrid="false"
     inkscape:window-width="1158"
     inkscape:window-height="696"
     inkscape:window-x="194"
     inkscape:window-y="-4"
     inkscape:window-maximized="0"
     showguides="true"
     inkscape:guide-bbox="true"
     inkscape:snap-grids="false"
     inkscape:snap-to-guides="false"
     showborder="true"
     inkscape:showpageshadow="false"
     fit-margin-top="0"
     fit-margin-left="0"
     fit-margin-right="0"
     fit-margin-bottom="0"
     inkscape:snap-page="false" />
  <metadata
     id="metadata7">
    <rdf:RDF>
      <cc:Work
         rdf:about="">
        <dc:format>image/svg+xml</dc:format>
        <dc:type
           rdf:resource="http://purl.org/dc/dcmitype/StillImage" />
        <dc:title></dc:title>
      </cc:Work>
    </rdf:RDF>
  </metadata>
  <g
     inkscape:groupmode="layer"
     id="layer2"
     inkscape:label="補助線"
     style="display:none"
     sodipodi:insensitive="true">
    <path
       style="fill:none;stroke:#0000ff;stroke-width:1px;stroke-linecap:butt;stroke-linejoin:miter;stroke-opacity:1"
       d="M 10,310 360,10"
       id="path3025"
       inkscape:connector-curvature="0"
       sodipodi:nodetypes="cc" />
    <path
       style="fill:none;stroke:#0000ff;stroke-width:1px;stroke-linecap:butt;stroke-linejoin:miter;stroke-opacity:1"
       d="M 10,10 360,310"
       id="path3027"
       inkscape:connector-curvature="0"
       sodipodi:nodetypes="cc" />
    <path
       style="fill:none;stroke:#ff0000;stroke-width:1px;stroke-linecap:butt;stroke-linejoin:miter;stroke-opacity:1;display:inline"
       d="m 10,0 0,320"
       id="path3006"
       inkscape:connector-curvature="0"
       sodipodi:nodetypes="cc" />
    <path
       style="fill:none;stroke:#ff0000;stroke-width:1px;stroke-linecap:butt;stroke-linejoin:miter;stroke-opacity:1;display:inline"
       d="m 360,0 0,320"
       id="path3010"
       inkscape:connector-curvature="0"
       sodipodi:nodetypes="cc" />
    <path
       style="fill:none;stroke:#ff0000;stroke-width:1px;stroke-linecap:butt;stroke-linejoin:miter;stroke-opacity:1;display:inline"
       d="M 0,9.9999681 370,10"
       id="path3016"
       inkscape:connector-curvature="0" />
    <path
       transform="translate(84.715796,27.711696)"
       style="fill:none;stroke:#ff0000;stroke-width:1px;stroke-linecap:butt;stroke-linejoin:miter;stroke-opacity:1;display:inline"
       d="m -84.715796,282.2883 369.999996,0"
       id="path3018"
       inkscape:connector-curvature="0"
       sodipodi:nodetypes="cc" />
  </g>
  <g
     inkscape:groupmode="layer"
     id="layer1"
     inkscape:label="豚">
    <g
       id="g9921-2-0-0-4"
       transform="matrix(-1.0773661,0.40224328,0.39048414,1.0458704,1849.1859,-533.35097)"
       style="stroke:#000000;stroke-width:1.32383323;display:inline" />
    <g
       id="g4656-2-7-5"
       transform="matrix(-1.1126439,0.29075892,0.28225891,1.080117,1957.867,-381.57287)"
       style="stroke:#000000;stroke-width:1.32383323;display:inline" />
    <g
       id="g4658-5-7-8"
       transform="matrix(-1.1126439,0.29075892,0.28225891,1.080117,2203.7033,-433.40723)"
       style="stroke:#000000;stroke-width:1.32383323;display:inline" />
    <g
       transform="matrix(1.3500363,-0.50404688,0.50404688,1.3500363,233.47668,488.81096)"
       id="g4678-0-3-6"
       inkscape:label="駅員: 左手"
       style="stroke-width:1.04089856;display:inline">
      <g
         id="g4680-9-3-1"
         transform="matrix(-0.7980275,0,0,0.77469807,1298.4706,-272.34221)"
         style="stroke:#000000;stroke-width:1.32383323;display:inline" />
    </g>
    <g
       id="g4682-4-5-5"
       transform="matrix(-1.0773661,0.40224328,0.39048414,1.0458704,1849.186,-533.35101)"
       style="stroke:#000000;stroke-width:1.32383323;display:inline" />
    <path
       style="fill:#dbdee3;stroke:none;display:inline"
       d="M 186.35933,188.19766 272.31835,172.56793 168.65333,345.78544 z"
       id="path4684-5-5-2-1"
       inkscape:connector-curvature="0"
       sodipodi:nodetypes="cccc" />
    <path
       style="fill:#550000;stroke:#000000;stroke-width:1.465693;stroke-linecap:butt;stroke-linejoin:miter;stroke-opacity:1;display:inline"
       d="m 198.60433,201.5037 c -11.26872,28.31319 -20.85571,73.47085 -26.97916,108.8779 0.94105,8.5798 6.1736,25.36087 13.32619,34.60102 10.39598,-8.79713 18.69126,-36.47716 18.69126,-36.47716 1.24996,-35.60407 -3.33159,-74.46987 4.45696,-106.69437 z"
       id="path6770-0-4-6-9"
       inkscape:connector-curvature="0"
       sodipodi:nodetypes="cccccc" />
    <path
       style="fill:#550000;stroke:#000000;stroke-width:1.465693;stroke-linecap:butt;stroke-linejoin:miter;stroke-opacity:1;display:inline"
       d="m 199.44973,178.23144 c 3.04749,-0.85286 8.91701,-0.78386 15.12086,0.52001 l 6.36922,5.31725 c -3.07413,7.00843 -9.1386,15.61891 -12.87997,20.17137 -5.00508,-1.95455 -8.73344,-3.22502 -10.16285,-1.15555 -0.51531,-5.51022 -2.77126,-13.20622 -2.57455,-18.18496 z"
       id="path6768-9-1-6-6"
       inkscape:connector-curvature="0"
       sodipodi:nodetypes="ccccccc" />
    <path
       sodipodi:nodetypes="ccsscssscscc"
       inkscape:connector-curvature="0"
       id="path3341-7-0-1-6-8-5"
       d="m 189.32122,174.78963 c -5.4412,3.29347 -24.16701,11.94797 -32.9272,15.89973 -6.98022,3.61772 -11.96197,29.29401 -12.62829,48.88698 -0.65233,19.18132 1.57225,57.51892 2.18904,74.89996 0.55855,15.7398 -4.88956,91.13571 -4.83753,137.1826 18.33139,-4.45537 44.5114,7.325 52.93377,3.80767 7.2163,-3.01365 9.83637,-9.20104 9.50162,-14.00987 -2.41102,-34.63563 -18.1151,-119.60423 -18.62034,-127.00795 -3.95144,-57.9037 -2.62896,-104.67481 13.30805,-147.32598 -1.43574,0.96729 -6.03744,4.90958 -8.92255,7.15564 -3.3269,2.59001 -9.00213,12.55117 -15.61465,22.40755 l 3.59619,10.56085"
       style="fill:#1c1f24;stroke:#000000;stroke-width:1.465693;stroke-linecap:butt;stroke-linejoin:miter;stroke-opacity:1;display:inline" />
    <path
       style="fill:#dbdbe3;stroke:#000000;stroke-width:1.465693;stroke-linecap:butt;stroke-linejoin:miter;stroke-opacity:1;display:inline"
       d="m 203.02771,176.08108 c -6.79804,0.83493 -10.26343,22.73593 -14.92702,32.90362 1.54845,-14.94064 6.98218,-36.48715 11.23902,-43.64292 0.47996,1.51566 1.4458,9.65767 3.688,10.7393 z"
       id="path6762-7-2-0-4"
       inkscape:connector-curvature="0"
       sodipodi:nodetypes="cccc" />
    <path
       style="fill:#dbdbe3;stroke:#000000;stroke-width:1.465693;stroke-linecap:butt;stroke-linejoin:miter;stroke-opacity:1;display:inline"
       d="m 276.60024,160.49703 c -0.1089,-4.18126 -2.50836,-11.92665 -2.72809,-15.08897 -7.55249,0.15226 -43.59162,21.07457 -66.53384,30.92826 6.93833,-0.52456 15.48671,21.03578 23.94962,34.84412 26.03094,-27.40239 34.13879,-29.46714 45.31231,-50.68341 z"
       id="path6657-6-4-0-2"
       inkscape:connector-curvature="0"
       sodipodi:nodetypes="ccccc" />
    <path
       style="fill:none;stroke:#000000;stroke-width:1.465693;stroke-linecap:butt;stroke-linejoin:miter;stroke-opacity:1;display:inline"
       d="m 188.63509,198.90204 -20.5122,17.28156 c 3.82606,26.22638 3.33828,65.11381 12.3991,97.5576"
       id="path6766-7-0-8-5"
       inkscape:connector-curvature="0"
       sodipodi:nodetypes="ccc" />
    <path
       style="fill:#1c1f24;stroke:#000000;stroke-width:1.465693;stroke-linecap:butt;stroke-linejoin:miter;stroke-opacity:1;display:inline"
       d="m 282.76654,162.55629 c 16.51978,8.54552 35.41258,18.56501 48.55038,26.67787 12.29815,7.59436 11.62204,31.82506 8.36943,44.95275 -4.5426,18.33409 -27.68379,71.76836 -31.56068,105.82774 -1.29963,11.41756 9.33753,64.70666 10.13279,112.87597 -1.07967,0.87172 -2.48682,0.76942 -4.48555,0.78424 -2.58624,-11.00601 -0.9696,-18.83221 -2.23654,-31.7527 0.38366,10.87732 -1.50333,22.4928 -2.51913,31.61894 -24.07955,7.10553 -111.76476,1.00872 -116.74902,1.0993 -6.63366,0.12065 -17.47105,-8.28051 -18.59225,-17.97414 -4.40533,-38.08707 -1.93101,-119.08728 -0.22355,-122.60118 10.43838,-21.48174 34.59235,-69.47158 48.83798,-93.22001 21.11677,-35.20309 46.6398,-67.20625 53.25839,-70.91086 2.49819,3.19921 4.49383,8.07706 7.42209,12.4639 -3.53532,3.92342 -16.8616,20.19628 -18.0903,38.77934 -6.8252,2.16254 -10.24161,4.28028 -15.81498,6.15983"
       id="path6659-6-6-1-3"
       inkscape:connector-curvature="0"
       sodipodi:nodetypes="csssccccsssscccc" />
    <path
       style="fill:none;stroke:#000000;stroke-width:1.465693;stroke-linecap:butt;stroke-linejoin:miter;stroke-opacity:1;display:inline"
       d="m 236.7594,197.29954 22.85992,19.74559 c -17.71862,14.06206 -61.66134,75.57094 -82.29898,97.65581"
       id="path6655-8-1-5-2"
       inkscape:connector-curvature="0"
       sodipodi:nodetypes="ccc" />
    <path
       style="fill:#1c1f24;stroke:#000000;stroke-width:1.465693;stroke-linecap:butt;stroke-linejoin:miter;stroke-opacity:1"
       d="m 83.251711,234.97741 c -2.744296,-16.61147 18.315909,-68.64353 19.858959,-103.29988 12.35585,-3.58068 27.58743,0.94679 48.58143,-2.54755 -5.00587,26.92357 -7.46691,47.03651 -11.93611,71.28708 -3.95964,21.48578 -5.5849,36.66572 -8.17421,39.96001"
       id="path11362-6"
       inkscape:connector-curvature="0"
       sodipodi:nodetypes="cccsc" />
    <path
       style="fill:#1c1f24;stroke:#000000;stroke-width:1.465693;stroke-linecap:butt;stroke-linejoin:miter;stroke-opacity:1"
       d="m 291.89879,323.66188 c 16.21343,-25.99274 33.22687,-61.39972 54.68709,-88.38155 8.71652,-10.95923 18.84088,-17.62775 26.88118,-16.21521 13.39376,2.35305 20.90121,20.77679 13.3621,51.62273 -4.42348,18.09847 -24.34161,48.43636 -35.67522,68.17408 -19.11005,33.28046 -38.67233,46.08514 -51.47813,48.05365 -9.80856,1.50777 -44.15468,-28.40263 -63.66142,-41.71449 -14.35874,-9.79873 -27.19014,-19.84011 -44.38334,-23.94759 5.26217,-14.17274 17.99661,-20.63864 23.0019,-20.69892 11.07548,1.06044 61.31298,19.32559 84.82646,27.21672"
       id="path3726-6"
       inkscape:connector-curvature="0"
       sodipodi:nodetypes="cssssssccc" />
    <g
       id="g9921-2-0-1-6"
       transform="matrix(1.2203295,1.5569628,-1.5114467,1.1846544,-237.306,-2424.6946)"
       style="stroke:#000000;stroke-width:0.76959163;display:inline" />
    <g
       id="g4656-2-4-2"
       transform="matrix(1.3721285,1.4249914,-1.3833334,1.3320158,-532.98798,-2299.4421)"
       style="stroke:#000000;stroke-width:0.76959163;display:inline" />
    <g
       id="g4658-5-1-5"
       transform="matrix(1.3721285,1.4249914,-1.3833334,1.3320158,-847.28917,-2596.0796)"
       style="stroke:#000000;stroke-width:0.76959163;display:inline" />
    <g
       transform="matrix(-1.5291821,-1.951014,-1.951014,1.5291821,1216.9485,525.10064)"
       id="g4678-0-2-3"
       inkscape:label="駅員: 左手"
       style="stroke-width:0.6051116;display:inline">
      <g
         id="g4680-9-9-5"
         transform="matrix(-0.7980275,0,0,0.77469807,1298.4706,-272.34221)"
         style="stroke:#000000;stroke-width:0.76959163;display:inline" />
    </g>
    <g
       id="g4682-4-0-6"
       transform="matrix(1.2203295,1.5569628,-1.5114467,1.1846544,-237.30609,-2424.6946)"
       style="stroke:#000000;stroke-width:0.76959163;display:inline" />
    <path
       style="fill:#e9c6af;stroke:none;display:inline"
       d="m 211.38909,176.76059 c 2.7155,-5.41939 -3.8756,-20.59751 -7.9081,-29.08493 -4.0727,-1.07401 -11.7716,-10.57791 -12.5195,-15.79644 -0.7785,-5.42953 0.7184,-12.93774 0.2736,-18.5536 -0.4037,-5.09945 -2.492,-24.935065 -0.3378,-32.088805 0.8153,-2.70756 4.1922,-12.19757 5.305,-16.36785 0.7574,-2.83934 0.7882,-8.89623 1.2918,-11.43998 0.7421,-3.74879 3.5254,-6.92262 5.5886,-9.82311 3.5769,-5.02847 10.6722,-13.572 13.7582,-17.11239 7.5944,-8.71251 24.21953,-10.92079 37.35093,-11.8433 18.6637,-1.31118 42.7653,19.24364 50.8098,37.82174 7.0888,16.37065 5.3261,40.48266 0.6071,51.307505 -3.6632,8.40292 -8.3308,14.55102 -12.7372,18.38237 -2.9938,2.60315 -6.4573,4.6559 -8.6749,8.98889 -2.128,4.15775 -3.8378,21.30575 -4.2516,28.5608"
       id="path6570-7-8-7-2"
       inkscape:connector-curvature="0"
       sodipodi:nodetypes="ccssssssssssssc" />
    <path
       style="fill:#deaa87;stroke:none;display:inline"
       d="m 224.12139,98.913655 c -1.2227,-0.13647 -3.0602,-0.18139 -4.5066,-0.9116 -2.6931,-1.35952 -3.4971,-3.24651 -5.9169,-4.62495 -1.5382,-0.87625 -3.0201,-1.76065 -3.9775,-2.18527 -1.6036,-0.71118 -2.4487,-2.64722 -4.7762,-3.34973 -2.1287,-0.6426 -3.5775,-0.57555 -4.2871,1.08301 -1.4664,3.42677 -0.9348,2.11137 -0.3233,4.79016 l 1.3762,6.030081 c 0.6357,-1.692531 1.8745,-4.604591 2.8301,-4.611821 0.7023,-0.005 2.597,0.0267 3.2423,0.67331 0.5035,0.5044 1.5409,2.37579 2.3976,4.917195 -0.6178,-10.615385 9.5899,3.38162 13.9414,-1.810385 z"
       id="path3561-4-6-9"
       inkscape:connector-curvature="0"
       sodipodi:nodetypes="csssssscsscc" />
    <path
       style="fill:#deaa87;stroke:none;display:inline"
       d="m 213.77649,69.992325 c 1.4374,-1.51596 0.7107,-8.10545 -0.5805,-9.95109 -0.4757,-0.67991 -3.494,-2.36238 -4.0052,-3.46673 -0.2443,1.38323 2.4567,8.43868 0.3878,7.69554 l -12.3709,1.91718 c -0.3568,0.36904 0.1721,1.27795 -0.6614,0.86041 0.1734,0.79018 0.7622,5.09685 3.3505,5.98606 3.9108,1.34383 10.1008,-1.08044 12.4237,-3.64157 1.344,1.51254 -4.1749,6.4711 -5.9923,10.76622 1.8324,-1.98985 6.2537,-8.90613 7.4483,-10.16602 z"
       id="path5573-3-9-8-2-4"
       inkscape:connector-curvature="0"
       sodipodi:nodetypes="ssccccsccs" />
    <path
       style="fill:#deaa87;stroke:none;display:inline"
       d="m 195.76179,138.56158 c 1.6373,6.62888 16.1593,5.24407 22.7333,5.19534 12.72273,-0.0943 40.68763,-0.0618 46.09313,-2.23609 1.7716,-0.7126 3.8173,-10.89339 5.6466,-12.25149 -1.3754,7.63932 -2.3591,21.15704 -4.2245,30.49544 l 15.3717,0.044 c 0.5205,-5.11269 -0.6963,-23.61167 2.7323,-28.52521 1.4605,-2.09311 2.536,-3.16016 8.6584,-9.08317 5.6503,-5.46645 8.8376,-7.87451 12.8628,-16.95608 7.1391,-16.106595 7.6235,-41.877575 0.8915,-53.741375 -4.6531,-8.20015 -12.774,-26.40231 -26.6161,-31.52549 5.543,11.99288 -2.6236,29.00887 -11.7114,38.25905 -4.536,4.61688 -15.6827,2.83208 -17.1175,3.98747 1.2036,2.67671 2.3495,5.26813 -0.069,8.21635 -2.0978,2.55725 -5.4856,1.27241 -7.3061,1.63741 l -12.3184,-2.86946 c -0.4621,-3.27276 1.054,-5.76306 5.3375,-8.79727 -5.6905,0.53395 -9.96873,0.51841 -12.99383,1.10966 -0.9923,0.19395 -2.052,1.11132 -2.0443,2.51337 0.015,2.83529 1.5796,5.52561 2.7305,7.56508 1.7894,3.17049 2.0359,7.02312 6.98413,10.40733 2.3036,1.57548 12.129,-2.40055 13.8767,-2.06775 2.6275,0.50036 2.9697,3.75815 3.547,6.76836 0.7059,3.68087 -15.5615,44.658665 -33.23233,50.788805 -6.9582,1.8654 -14.7609,1.21531 -19.8321,1.06572 z"
       id="path3438-5-86-7-3-4-0-5-1"
       inkscape:connector-curvature="0"
       sodipodi:nodetypes="csscccsssscscscccsssssscc" />
    <path
       style="fill:none;stroke:#000000;stroke-width:1.5;stroke-linecap:butt;stroke-linejoin:miter;stroke-opacity:1;display:inline"
       d="m 213.02249,57.369215 c 0.4595,4.14918 1.4824,7.77175 0.3456,10.15047 -1.2626,2.64204 -10.8175,9.81254 -12.071,10.87184 -0.7173,0.60617 -2.0661,1.84821 -2.7147,3.55863 -0.7292,1.92316 -0.9924,6.13075 -1.0712,10.25078"
       id="path6629-0-6-3-5-0-3-9"
       inkscape:connector-curvature="0"
       sodipodi:nodetypes="csssc" />
    <path
       style="fill:none;stroke:#000000;stroke-width:1.5;stroke-linecap:butt;stroke-linejoin:miter;stroke-opacity:1;display:inline"
       d="m 275.74532,121.5731 c -3.0582,5.03728 -8.675,16.27668 -11.4856,18.5528 -2.4227,1.96198 -21.1682,2.68901 -37.44193,2.48256"
       id="path6635-6-9-1-1-7-1-6"
       inkscape:connector-curvature="0"
       sodipodi:nodetypes="csc" />
    <path
       style="fill:none;stroke:#000000;stroke-width:1.5;stroke-linecap:butt;stroke-linejoin:miter;stroke-opacity:1;display:inline"
       d="m 222.40159,58.983405 c -1.3514,1.77578 -0.6472,3.80271 -0.5306,5.14334"
       id="path6643-0-0-5-2-6-8-9"
       inkscape:connector-curvature="0"
       sodipodi:nodetypes="cc" />
    <path
       style="fill:#000000;stroke:none;display:inline"
       d="m 240.85832,60.370055 c 5.412,0.70337 15.0036,4.24553 13.5899,2.95535 -3.2866,-2.99954 -8.8596,-4.9291 -14.3014,-5.62732 -1.9947,-0.25593 -5.9303,0.0959 -9.7154,0.34465 -4.32063,0.28396 -11.77573,0.64123 -5.51283,2.40362 6.26303,1.76239 9.38533,-0.9282 15.93973,-0.0763 z"
       id="path6645-7-0-4-0-3-1-8"
       inkscape:connector-curvature="0"
       sodipodi:nodetypes="ssssss" />
    <path
       style="fill:#000000;stroke:none;display:inline"
       d="m 197.79629,52.983555 c 0.4416,-0.71094 3.7436,-0.90969 6.354,-0.0663 3.1859,1.02934 9.8262,5.22739 8.4028,5.45884 -4.2421,0.68978 -5.6049,-2.35753 -8.9553,-3.94879 -3.3333,-1.58299 -6.5661,-0.21291 -5.8015,-1.4438 z"
       id="path6647-1-6-2-0-5-9-2"
       inkscape:connector-curvature="0"
       sodipodi:nodetypes="sssss" />
    <path
       style="fill:none;stroke:#000000;stroke-width:1.5;stroke-linecap:butt;stroke-linejoin:miter;stroke-opacity:1;display:inline"
       d="m 222.24739,98.270585 c 0.055,1.793855 -1.2649,3.335455 -2.8864,3.122795"
       id="path6649-7-1-0-1-6-5-5"
       inkscape:connector-curvature="0"
       sodipodi:nodetypes="cc" />
    <path
       style="fill:none;stroke:#916f6f;stroke-width:1.5;stroke-linecap:butt;stroke-linejoin:miter;stroke-opacity:1;display:inline"
       d="m 227.75089,70.789705 c 1.23553,-0.52482 0.84333,-1.3556 3.20963,-1.45165 1.9451,-0.0789 5.1968,-0.44788 7.9748,0.2747 2.107,0.5481 5.3069,4.56209 7.6415,3.93926"
       id="path3339-7-3-9-4-5-3-5"
       inkscape:connector-curvature="0"
       sodipodi:nodetypes="cssc" />
    <path
       style="fill:none;stroke:#000000;stroke-width:1.5;stroke-linecap:butt;stroke-linejoin:miter;stroke-opacity:1;display:inline"
       d="m 226.39859,71.440535 c 2.60013,-1.16826 1.8387,-3.20025 4.05233,-3.26211 2.6253,-0.0734 5.9677,-0.0591 9.5406,1.2122 3.1611,1.12479 4.6508,2.89207 6.9771,4.20531"
       id="path3337-7-8-7-6-8-2-4"
       inkscape:connector-curvature="0"
       sodipodi:nodetypes="cssc" />
    <path
       style="fill:none;stroke:#916f6f;stroke-width:1.5;stroke-linecap:butt;stroke-linejoin:miter;stroke-opacity:1;display:inline"
       d="m 197.58359,66.404095 c 0.5957,-0.48184 1.5633,-1.8841 2.7975,-1.82783 1.9003,0.0866 5.7286,0.41535 6.8762,1.11109 0.6019,0.36488 3.5194,2.11079 4.7506,3.02065"
       id="path3355-7-9-3-0-3-5-9"
       inkscape:connector-curvature="0"
       sodipodi:nodetypes="cssc" />
    <path
       style="fill:none;stroke:#000000;stroke-width:1.5;stroke-linecap:butt;stroke-linejoin:miter;stroke-opacity:1;display:inline"
       d="m 197.32789,67.171845 c 1.3496,-1.25026 1.3592,-2.28767 3.3075,-2.18566 1.6434,0.0858 5.6921,-0.80822 7.4564,0.24888 0.9873,0.5916 2.3489,0.98245 3.4064,3.21112"
       id="path3353-3-3-7-7-9-2-1"
       inkscape:connector-curvature="0"
       sodipodi:nodetypes="cssc" />
    <path
       style="opacity:0.95;fill:#deaa87;stroke:#000000;stroke-width:1.5;stroke-linecap:butt;stroke-linejoin:miter;stroke-opacity:1;display:inline"
       d="m 278.01472,119.63709 c 3.0336,-1.83882 8.963,6.37083 13.832,1.26612 3.0898,-3.23947 8.0938,-6.75747 12.1719,-13.83176 4.0439,-7.01507 2.6791,-11.920785 0.2435,-13.731745 -4.1389,-3.07745 -8.5738,-2.30081 -12.5527,-1.10484"
       id="path6637-1-1-2-1-4-5-2"
       inkscape:connector-curvature="0"
       sodipodi:nodetypes="csssc" />
    <path
       style="opacity:0.95;fill:none;stroke:#000000;stroke-width:1.5;stroke-linecap:butt;stroke-linejoin:miter;stroke-opacity:1;display:inline"
       d="m 292.72842,112.79531 c -0.5121,-2.13426 -3.2322,-4.99045 -3.0125,-7.76493 0.2083,-2.62897 0.1294,-5.385284 1.5453,-6.765275 2.1421,-2.08742 7.301,-5.1012 9.7455,-4.02101 1.9602,0.86626 3.0968,3.09829 2.7348,5.860145 -0.8878,6.76964 -7.8158,13.83176 -12.628,12.8586 -2.6973,-0.54542 -7.9009,2.3954 -8.4025,0.7629 -0.4916,-1.60021 3.1286,-3.1356 3.8923,-4.27447 0.4601,-0.68617 -0.9454,-3.98977 -0.5052,-5.97768"
       id="path6639-8-8-6-7-8-8-5"
       inkscape:connector-curvature="0"
       sodipodi:nodetypes="csssssssc" />
    <path
       style="fill:none;stroke:#000000;stroke-width:1.5;stroke-linecap:butt;stroke-linejoin:miter;stroke-opacity:1;display:inline"
       d="m 210.75349,176.70765 c 2.7156,-5.41938 1.16014,-22.30065 -2.17766,-25.45599 -4.8295,-4.56557 -16.70764,-8.81928 -18.94707,-18.13954 -1.28144,-5.33322 0.32003,-17.73078 -0.12477,-23.34664 -0.4038,-5.09946 -1.67077,-21.334775 0.48353,-28.488505 0.8154,-2.70757 5.15647,-12.19756 6.26927,-16.36786 0.7575,-2.83933 0.7882,-8.89621 1.2918,-11.43999 0.7421,-3.74878 3.5254,-6.9226 5.5887,-9.82309 3.5768,-5.02848 11.31072,-13.55901 14.41737,-16.98057 5.34539,-5.88722 23.58256,-10.14445 36.21396,-10.05456 19.101,0.13593 41.303,11.65193 51.1116,33.06062 7.4138,16.18175 4.7217,46.34618 1.5673,55.271505 -3.0467,8.62079 -13.2992,21.98852 -17.7055,25.81991 -2.9938,2.60313 -4.4006,17.10342 -6.1841,19.99382 -2.4646,3.99423 3.1306,17.11235 2.7168,24.36741"
       id="path6570-3-6-0"
       inkscape:connector-curvature="0"
       sodipodi:nodetypes="csssssssssssssc" />
    <path
       style="fill:none;stroke:#000000;stroke-width:1.5;stroke-linecap:butt;stroke-linejoin:miter;stroke-opacity:1;display:inline"
       d="m 211.14249,95.250665 c -1.3509,-2.38162 -3.3519,-6.27934 -6.0193,-8.1737"
       id="path3823-9-7-8"
       inkscape:connector-curvature="0"
       sodipodi:nodetypes="cc" />
    <path
       style="fill:none;stroke:#000000;stroke-width:1.5;stroke-linecap:butt;stroke-linejoin:miter;stroke-opacity:1;display:inline"
       d="m 200.48649,91.868795 c -0.1641,-0.63551 0.1274,-4.37711 0.1442,-4.85301"
       id="path3823-1-7-7-3"
       inkscape:connector-curvature="0"
       sodipodi:nodetypes="cc" />
    <path
       style="fill:#deaa87;stroke:none;display:inline"
       d="m 208.43879,124.36252 c 0.6873,-1.18321 -2.9482,-2.83943 -5.9206,-4.12657 -3.0902,-1.33817 -5.941,-1.83339 -6.0115,-0.78354 -0.1397,2.07231 1.3059,4.11868 4.8892,5.70687 2.9861,1.32351 6.0158,0.97204 7.0429,-0.79676 z"
       id="path6710-3-4-7-4-0-6-2-9"
       inkscape:connector-curvature="0"
       sodipodi:nodetypes="sssss" />
    <path
       style="fill:#800000;stroke:#000000;stroke-width:1.5;stroke-linecap:butt;stroke-linejoin:miter;stroke-opacity:1;display:inline"
       d="m 195.16189,101.84604 c 1.53289,-6.650515 22.58448,1.52442 24.03308,6.11907 0.8318,2.63837 -5.26946,10.01601 -7.43934,10.39747 -3.212,0.56468 -12.8253,-2.9303 -15.25192,-3.98138 -2.42165,-1.04893 -2.14063,-9.0695 -1.34182,-12.53516 z"
       id="path16974-3"
       inkscape:connector-curvature="0"
       sodipodi:nodetypes="sssss" />
    <path
       style="fill:#000000;stroke:none;display:inline"
       d="m 199.25419,94.678705 c 0.978,-0.32184 1.2107,1.4556 3.4311,2.11234 3.0073,0.88945 4.4704,-1.25202 5.4142,-0.63529 3.9834,2.60335 16.6127,9.217805 17.0668,11.316855 0.4586,2.1205 0.021,5.78141 -1.2381,5.13989 -5.5937,-2.85092 -16.9616,-6.93732 -21.2546,-8.20108 -6.0742,-1.78812 -7.8301,-0.9181 -10.6748,-0.48005 -2.8592,0.44032 -2.9822,-5.268055 -1.6686,-5.935375 1.3515,-1.54035 7.4358,-2.82757 8.924,-3.31729 z"
       id="path6633-4-0-6-4-8-9-9"
       inkscape:connector-curvature="0"
       sodipodi:nodetypes="ssssssscs" />
    <path
       style="fill:none;stroke:#000000;stroke-width:1.5;stroke-linecap:butt;stroke-linejoin:miter;stroke-opacity:1;display:inline"
       d="m 161.20334,58.353095 53.26072,-11.07401 1.582,7.91 -47.98738,14.76535"
       id="path17191"
       inkscape:connector-curvature="0" />
    <path
       style="fill:none;stroke:#000000;stroke-width:1.5;stroke-linecap:butt;stroke-linejoin:miter;stroke-opacity:1;display:inline"
       d="m 158.03934,64.681095 28.47602,-6.328 11.07402,12.65601 0.52733,10.01934 -4.21867,1.05467 -5.80067,-9.49201 -5.27334,-5.27334 -14.76535,8.43735 0.52733,12.65601 18.45669,8.43734 -2.10934,8.437345 -21.62069,-4.746 -23.20269,20.56602 -5.27334,27.94869"
       id="path17193"
       inkscape:connector-curvature="0" />
    <path
       style="fill:none;stroke:#000000;stroke-width:1.5;stroke-linecap:butt;stroke-linejoin:miter;stroke-opacity:1;display:inline"
       d="m 149.60199,51.497755 24.25736,1.05466 1.582,2.10934"
       id="path17195"
       inkscape:connector-curvature="0" />
    <path
       style="fill:none;stroke:#000000;stroke-width:1.5;stroke-linecap:butt;stroke-linejoin:miter;stroke-opacity:1;display:inline"
       d="m 167.53134,50.443085 -4.21867,-3.164 -30.05803,2.10933 -20.56602,54.315395 -8.96467,48.51472"
       id="path17197"
       inkscape:connector-curvature="0" />
  </g>
  <g
     inkscape:groupmode="layer"
     id="layer7"
     inkscape:label="枠面"
     style="display:inline"
     sodipodi:insensitive="true">
    <path
       style="fill:#ffffff;stroke:none;display:inline"
       d="m 0,0 0,320 370,0 0,-320 -10,10 0,300 -350,0 0,-300 350,0 10,-10 z"
       id="path21072"
       inkscape:connector-curvature="0"
       sodipodi:nodetypes="ccccccccccc" />
  </g>
</svg>
