<?xml version="1.0" encoding="UTF-8" standalone="no"?>
<!-- Created with Inkscape (http://www.inkscape.org/) -->

<svg
   xmlns:dc="http://purl.org/dc/elements/1.1/"
   xmlns:cc="http://creativecommons.org/ns#"
   xmlns:rdf="http://www.w3.org/1999/02/22-rdf-syntax-ns#"
   xmlns:svg="http://www.w3.org/2000/svg"
   xmlns="http://www.w3.org/2000/svg"
   xmlns:sodipodi="http://sodipodi.sourceforge.net/DTD/sodipodi-0.dtd"
   xmlns:inkscape="http://www.inkscape.org/namespaces/inkscape"
   width="370"
   height="320"
   id="svg2"
   version="1.1"
   inkscape:version="0.48.4 r9939"
   sodipodi:docname="[03.遠望].svg"
   inkscape:export-filename="C:\Users\root\Desktop\資料\作業\SANARO\ORG\[01.行動]03..png"
   inkscape:export-xdpi="90"
   inkscape:export-ydpi="90"
   enable-background="new">
  <defs
     id="defs4">
    <inkscape:perspective
       sodipodi:type="inkscape:persp3d"
       inkscape:vp_x="363.49708 : 943.81603 : 1"
       inkscape:vp_y="0 : 1000 : 0"
       inkscape:vp_z="744.09448 : 526.18109 : 1"
       inkscape:persp3d-origin="372.04724 : 350.78739 : 1"
       id="perspective5056" />
    <inkscape:perspective
       id="perspective5056-8"
       inkscape:persp3d-origin="372.04724 : 350.78739 : 1"
       inkscape:vp_z="744.09448 : 526.18109 : 1"
       inkscape:vp_y="0 : 1000 : 0"
       inkscape:vp_x="363.49708 : 943.81603 : 1"
       sodipodi:type="inkscape:persp3d" />
    <inkscape:perspective
       id="perspective5056-5"
       inkscape:persp3d-origin="372.04724 : 350.78739 : 1"
       inkscape:vp_z="744.09448 : 526.18109 : 1"
       inkscape:vp_y="0 : 1000 : 0"
       inkscape:vp_x="363.49708 : 943.81603 : 1"
       sodipodi:type="inkscape:persp3d" />
    <inkscape:perspective
       sodipodi:type="inkscape:persp3d"
       inkscape:vp_x="363.49708 : 943.81603 : 1"
       inkscape:vp_y="0 : 1000 : 0"
       inkscape:vp_z="744.09448 : 526.18109 : 1"
       inkscape:persp3d-origin="372.04724 : 350.78739 : 1"
       id="perspective5056-5-2" />
    <inkscape:perspective
       sodipodi:type="inkscape:persp3d"
       inkscape:vp_x="363.49708 : 943.81603 : 1"
       inkscape:vp_y="0 : 1000 : 0"
       inkscape:vp_z="744.09448 : 526.18109 : 1"
       inkscape:persp3d-origin="372.04724 : 350.78739 : 1"
       id="perspective5056-8-5" />
    <inkscape:perspective
       id="perspective5056-1"
       inkscape:persp3d-origin="372.04724 : 350.78739 : 1"
       inkscape:vp_z="744.09448 : 526.18109 : 1"
       inkscape:vp_y="0 : 1000 : 0"
       inkscape:vp_x="363.49708 : 943.81603 : 1"
       sodipodi:type="inkscape:persp3d" />
    <inkscape:perspective
       sodipodi:type="inkscape:persp3d"
       inkscape:vp_x="363.49708 : 943.81603 : 1"
       inkscape:vp_y="0 : 1000 : 0"
       inkscape:vp_z="744.09448 : 526.18109 : 1"
       inkscape:persp3d-origin="372.04724 : 350.78739 : 1"
       id="perspective5056-5-5" />
    <inkscape:perspective
       id="perspective5056-4"
       inkscape:persp3d-origin="372.04724 : 350.78739 : 1"
       inkscape:vp_z="744.09448 : 526.18109 : 1"
       inkscape:vp_y="0 : 1000 : 0"
       inkscape:vp_x="363.49708 : 943.81603 : 1"
       sodipodi:type="inkscape:persp3d" />
    <inkscape:perspective
       sodipodi:type="inkscape:persp3d"
       inkscape:vp_x="363.49708 : 943.81603 : 1"
       inkscape:vp_y="0 : 1000 : 0"
       inkscape:vp_z="744.09448 : 526.18109 : 1"
       inkscape:persp3d-origin="372.04724 : 350.78739 : 1"
       id="perspective5056-1-2" />
    <inkscape:perspective
       id="perspective5056-8-5-8"
       inkscape:persp3d-origin="372.04724 : 350.78739 : 1"
       inkscape:vp_z="744.09448 : 526.18109 : 1"
       inkscape:vp_y="0 : 1000 : 0"
       inkscape:vp_x="363.49708 : 943.81603 : 1"
       sodipodi:type="inkscape:persp3d" />
    <inkscape:perspective
       id="perspective5056-5-2-8"
       inkscape:persp3d-origin="372.04724 : 350.78739 : 1"
       inkscape:vp_z="744.09448 : 526.18109 : 1"
       inkscape:vp_y="0 : 1000 : 0"
       inkscape:vp_x="363.49708 : 943.81603 : 1"
       sodipodi:type="inkscape:persp3d" />
    <inkscape:perspective
       sodipodi:type="inkscape:persp3d"
       inkscape:vp_x="363.49708 : 943.81603 : 1"
       inkscape:vp_y="0 : 1000 : 0"
       inkscape:vp_z="744.09448 : 526.18109 : 1"
       inkscape:persp3d-origin="372.04724 : 350.78739 : 1"
       id="perspective5056-5-4" />
    <inkscape:perspective
       sodipodi:type="inkscape:persp3d"
       inkscape:vp_x="363.49708 : 943.81603 : 1"
       inkscape:vp_y="0 : 1000 : 0"
       inkscape:vp_z="744.09448 : 526.18109 : 1"
       inkscape:persp3d-origin="372.04724 : 350.78739 : 1"
       id="perspective5056-8-9" />
    <inkscape:perspective
       id="perspective5056-40"
       inkscape:persp3d-origin="372.04724 : 350.78739 : 1"
       inkscape:vp_z="744.09448 : 526.18109 : 1"
       inkscape:vp_y="0 : 1000 : 0"
       inkscape:vp_x="363.49708 : 943.81603 : 1"
       sodipodi:type="inkscape:persp3d" />
    <inkscape:perspective
       sodipodi:type="inkscape:persp3d"
       inkscape:vp_x="363.49708 : 943.81603 : 1"
       inkscape:vp_y="0 : 1000 : 0"
       inkscape:vp_z="744.09448 : 526.18109 : 1"
       inkscape:persp3d-origin="372.04724 : 350.78739 : 1"
       id="perspective5056-1-5" />
    <inkscape:perspective
       id="perspective5056-8-5-4"
       inkscape:persp3d-origin="372.04724 : 350.78739 : 1"
       inkscape:vp_z="744.09448 : 526.18109 : 1"
       inkscape:vp_y="0 : 1000 : 0"
       inkscape:vp_x="363.49708 : 943.81603 : 1"
       sodipodi:type="inkscape:persp3d" />
    <inkscape:perspective
       id="perspective5056-5-2-82"
       inkscape:persp3d-origin="372.04724 : 350.78739 : 1"
       inkscape:vp_z="744.09448 : 526.18109 : 1"
       inkscape:vp_y="0 : 1000 : 0"
       inkscape:vp_x="363.49708 : 943.81603 : 1"
       sodipodi:type="inkscape:persp3d" />
    <inkscape:perspective
       sodipodi:type="inkscape:persp3d"
       inkscape:vp_x="363.49708 : 943.81603 : 1"
       inkscape:vp_y="0 : 1000 : 0"
       inkscape:vp_z="744.09448 : 526.18109 : 1"
       inkscape:persp3d-origin="372.04724 : 350.78739 : 1"
       id="perspective5056-5-8" />
    <inkscape:perspective
       sodipodi:type="inkscape:persp3d"
       inkscape:vp_x="363.49708 : 943.81603 : 1"
       inkscape:vp_y="0 : 1000 : 0"
       inkscape:vp_z="744.09448 : 526.18109 : 1"
       inkscape:persp3d-origin="372.04724 : 350.78739 : 1"
       id="perspective5056-8-4" />
    <inkscape:perspective
       id="perspective5056-409"
       inkscape:persp3d-origin="372.04724 : 350.78739 : 1"
       inkscape:vp_z="744.09448 : 526.18109 : 1"
       inkscape:vp_y="0 : 1000 : 0"
       inkscape:vp_x="363.49708 : 943.81603 : 1"
       sodipodi:type="inkscape:persp3d" />
    <inkscape:perspective
       sodipodi:type="inkscape:persp3d"
       inkscape:vp_x="363.49708 : 943.81603 : 1"
       inkscape:vp_y="0 : 1000 : 0"
       inkscape:vp_z="744.09448 : 526.18109 : 1"
       inkscape:persp3d-origin="372.04724 : 350.78739 : 1"
       id="perspective5056-1-7" />
    <inkscape:perspective
       id="perspective5056-8-5-2"
       inkscape:persp3d-origin="372.04724 : 350.78739 : 1"
       inkscape:vp_z="744.09448 : 526.18109 : 1"
       inkscape:vp_y="0 : 1000 : 0"
       inkscape:vp_x="363.49708 : 943.81603 : 1"
       sodipodi:type="inkscape:persp3d" />
    <inkscape:perspective
       id="perspective5056-5-2-89"
       inkscape:persp3d-origin="372.04724 : 350.78739 : 1"
       inkscape:vp_z="744.09448 : 526.18109 : 1"
       inkscape:vp_y="0 : 1000 : 0"
       inkscape:vp_x="363.49708 : 943.81603 : 1"
       sodipodi:type="inkscape:persp3d" />
    <inkscape:perspective
       sodipodi:type="inkscape:persp3d"
       inkscape:vp_x="363.49708 : 943.81603 : 1"
       inkscape:vp_y="0 : 1000 : 0"
       inkscape:vp_z="744.09448 : 526.18109 : 1"
       inkscape:persp3d-origin="372.04724 : 350.78739 : 1"
       id="perspective5056-5-1" />
    <inkscape:perspective
       sodipodi:type="inkscape:persp3d"
       inkscape:vp_x="363.49708 : 943.81603 : 1"
       inkscape:vp_y="0 : 1000 : 0"
       inkscape:vp_z="744.09448 : 526.18109 : 1"
       inkscape:persp3d-origin="372.04724 : 350.78739 : 1"
       id="perspective5056-8-6" />
    <inkscape:perspective
       id="perspective5056-7"
       inkscape:persp3d-origin="372.04724 : 350.78739 : 1"
       inkscape:vp_z="744.09448 : 526.18109 : 1"
       inkscape:vp_y="0 : 1000 : 0"
       inkscape:vp_x="363.49708 : 943.81603 : 1"
       sodipodi:type="inkscape:persp3d" />
    <inkscape:perspective
       sodipodi:type="inkscape:persp3d"
       inkscape:vp_x="363.49708 : 943.81603 : 1"
       inkscape:vp_y="0 : 1000 : 0"
       inkscape:vp_z="744.09448 : 526.18109 : 1"
       inkscape:persp3d-origin="372.04724 : 350.78739 : 1"
       id="perspective5056-1-1" />
    <inkscape:perspective
       id="perspective5056-8-5-82"
       inkscape:persp3d-origin="372.04724 : 350.78739 : 1"
       inkscape:vp_z="744.09448 : 526.18109 : 1"
       inkscape:vp_y="0 : 1000 : 0"
       inkscape:vp_x="363.49708 : 943.81603 : 1"
       sodipodi:type="inkscape:persp3d" />
    <inkscape:perspective
       id="perspective5056-5-2-1"
       inkscape:persp3d-origin="372.04724 : 350.78739 : 1"
       inkscape:vp_z="744.09448 : 526.18109 : 1"
       inkscape:vp_y="0 : 1000 : 0"
       inkscape:vp_x="363.49708 : 943.81603 : 1"
       sodipodi:type="inkscape:persp3d" />
    <inkscape:perspective
       sodipodi:type="inkscape:persp3d"
       inkscape:vp_x="363.49708 : 943.81603 : 1"
       inkscape:vp_y="0 : 1000 : 0"
       inkscape:vp_z="744.09448 : 526.18109 : 1"
       inkscape:persp3d-origin="372.04724 : 350.78739 : 1"
       id="perspective5056-5-46" />
    <inkscape:perspective
       sodipodi:type="inkscape:persp3d"
       inkscape:vp_x="363.49708 : 943.81603 : 1"
       inkscape:vp_y="0 : 1000 : 0"
       inkscape:vp_z="744.09448 : 526.18109 : 1"
       inkscape:persp3d-origin="372.04724 : 350.78739 : 1"
       id="perspective5056-8-92" />
    <inkscape:perspective
       id="perspective5056-3"
       inkscape:persp3d-origin="372.04724 : 350.78739 : 1"
       inkscape:vp_z="744.09448 : 526.18109 : 1"
       inkscape:vp_y="0 : 1000 : 0"
       inkscape:vp_x="363.49708 : 943.81603 : 1"
       sodipodi:type="inkscape:persp3d" />
  </defs>
  <sodipodi:namedview
     id="base"
     pagecolor="#ffffff"
     bordercolor="#666666"
     borderopacity="1.0"
     inkscape:pageopacity="0.0"
     inkscape:pageshadow="2"
     inkscape:zoom="0.81574449"
     inkscape:cx="283.67796"
     inkscape:cy="79.148643"
     inkscape:document-units="px"
     inkscape:current-layer="layer1"
     showgrid="false"
     inkscape:window-width="1158"
     inkscape:window-height="696"
     inkscape:window-x="194"
     inkscape:window-y="-4"
     inkscape:window-maximized="0"
     showguides="true"
     inkscape:guide-bbox="true"
     inkscape:snap-grids="false"
     inkscape:snap-to-guides="false"
     showborder="true"
     inkscape:showpageshadow="false"
     fit-margin-top="0"
     fit-margin-left="0"
     fit-margin-right="0"
     fit-margin-bottom="0"
     inkscape:snap-page="false" />
  <metadata
     id="metadata7">
    <rdf:RDF>
      <cc:Work
         rdf:about="">
        <dc:format>image/svg+xml</dc:format>
        <dc:type
           rdf:resource="http://purl.org/dc/dcmitype/StillImage" />
        <dc:title></dc:title>
      </cc:Work>
    </rdf:RDF>
  </metadata>
  <g
     inkscape:groupmode="layer"
     id="layer2"
     inkscape:label="補助線"
     style="display:none"
     sodipodi:insensitive="true">
    <path
       style="fill:none;stroke:#0000ff;stroke-width:1px;stroke-linecap:butt;stroke-linejoin:miter;stroke-opacity:1"
       d="M 10,310 360,10"
       id="path3025"
       inkscape:connector-curvature="0"
       sodipodi:nodetypes="cc" />
    <path
       style="fill:none;stroke:#0000ff;stroke-width:1px;stroke-linecap:butt;stroke-linejoin:miter;stroke-opacity:1"
       d="M 10,10 360,310"
       id="path3027"
       inkscape:connector-curvature="0"
       sodipodi:nodetypes="cc" />
    <path
       style="fill:none;stroke:#ff0000;stroke-width:1px;stroke-linecap:butt;stroke-linejoin:miter;stroke-opacity:1;display:inline"
       d="m 10,0 0,320"
       id="path3006"
       inkscape:connector-curvature="0"
       sodipodi:nodetypes="cc" />
    <path
       style="fill:none;stroke:#ff0000;stroke-width:1px;stroke-linecap:butt;stroke-linejoin:miter;stroke-opacity:1;display:inline"
       d="m 360,0 0,320"
       id="path3010"
       inkscape:connector-curvature="0"
       sodipodi:nodetypes="cc" />
    <path
       style="fill:none;stroke:#ff0000;stroke-width:1px;stroke-linecap:butt;stroke-linejoin:miter;stroke-opacity:1;display:inline"
       d="M 0,9.9999681 370,10"
       id="path3016"
       inkscape:connector-curvature="0" />
    <path
       transform="translate(84.715796,27.711696)"
       style="fill:none;stroke:#ff0000;stroke-width:1px;stroke-linecap:butt;stroke-linejoin:miter;stroke-opacity:1;display:inline"
       d="m -84.715796,282.2883 369.999996,0"
       id="path3018"
       inkscape:connector-curvature="0"
       sodipodi:nodetypes="cc" />
  </g>
  <g
     inkscape:groupmode="layer"
     id="layer1"
     inkscape:label="豚">
    <path
       style="fill:#fefefe;fill-opacity:1;stroke:none;display:inline"
       d="m 162.71318,89.387844 c -1.49151,0.6376 -3.09774,1.1565 -5.17927,3.5591 1.05481,0.8204 1.36137,2.2829 2.49992,2.9221 0.94132,0.5286 5.70476,1.9793 7.27129,2.0358 1.72991,0.062 2.96767,-0.8355 4.93911,-2.052 -0.22745,-1.7879 -1.14935,-3.9401 -1.68898,-4.2073 -1.47687,-0.7311 -6.28477,-2.923403 -7.84207,-2.2577 z"
       id="path3337-0-4-0-1-8-6"
       inkscape:connector-curvature="0"
       sodipodi:nodetypes="scsscss" />
    <path
       style="fill:#fefefe;fill-opacity:1;stroke:none;display:inline"
       d="m 141.93194,85.331641 c -2.62827,-2.1538 -10.81473,-2.1022 -12.89907,-1.9527 -1.61443,0.1158 -3.51251,0.7246 -6.11497,1.7399 2.68394,2.1361 5.15019,3.882403 6.37753,5.138203 1.64642,1.6847 6.32791,2.0256 7.73021,2.1584 1.32855,0.1255 4.78202,-2.5763 6.36276,-3.4225 -0.85664,-1.872803 -0.51032,-2.886103 -1.45646,-3.661303 z"
       id="path3353-4-1-2-2-4-9"
       inkscape:connector-curvature="0"
       sodipodi:nodetypes="sscsscs" />
    <path
       style="fill:#2b0000;stroke:none;display:inline"
       d="m 136.64162,89.175344 c -3.30347,-0.384403 -3.95836,-4.671003 -3.84038,-6.879303 l 9.08991,2.8354 c -0.66061,4.295203 -3.57473,4.238703 -5.24953,4.043903 z"
       id="path3357-1-2-4-7-5-3"
       inkscape:connector-curvature="0"
       sodipodi:nodetypes="sccs" />
    <path
       style="fill:#2b0000;stroke:none;display:inline"
       d="m 170.51373,90.663644 c -0.29207,2.1657 -1.35596,4.9602 -3.57606,4.5314 -2.63219,-0.5083 -3.29817,-3.1085 -2.73228,-5.8869 z"
       id="path3357-0-8-6-7-0"
       inkscape:connector-curvature="0"
       sodipodi:nodetypes="cscc" />
    <path
       style="fill:none;stroke:#000000;stroke-width:1.5;stroke-linecap:butt;stroke-linejoin:miter;stroke-opacity:1;display:inline"
       d="m 160.30039,79.632341 c -2.04826,4.1474 -3.9035,8.2747 -3.78339,11.202003 0.13334,3.2512 4.30742,14.843696 5.05172,16.440496 0.42595,0.9139 1.23361,2.9949 1.16394,5.0335 -0.0784,2.2921 -2.79945,7.8166 -4.55395,10.4593"
       id="path6629-0-6-3-5-0"
       inkscape:connector-curvature="0"
       sodipodi:nodetypes="csssc" />
    <path
       style="fill:#000000;stroke:none;display:inline"
       d="m 156.37494,124.49754 c -0.77823,-0.7196 -1.68875,1.043 -3.99825,0.8566 -3.12801,-0.2529 -3.64254,-3.0605 -4.75637,-2.7875 -4.70087,1.1519 -18.48869,4.2799 -19.72966,6.291 -1.25371,2.0318 0.11377,6.466 1.52838,6.2909 6.28644,-0.7783 15.28415,-0.339 19.74704,0.028 6.31461,0.5191 9.28347,3.3032 12.20133,3.2424 0.64598,-0.014 3.08183,-4.6767 2.4173,-6.0676 -0.96253,-2.0147 -6.22561,-6.7587 -7.40977,-7.8535 z"
       id="path6633-4-0-6-4-8"
       inkscape:connector-curvature="0"
       sodipodi:nodetypes="sssssssss" />
    <path
       style="fill:none;stroke:#000000;stroke-width:1.5;stroke-linecap:butt;stroke-linejoin:miter;stroke-opacity:1;display:inline"
       d="m 80.09836,121.45454 c 0.85591,6.4543 2.884,12.6785 4.59157,16.1557 1.47191,2.9972 19.66055,13.366 33.41374,19.9384 m 7.17281,3.1207 c 7.78643,4.69 24.88238,4.8972 27.6156,-0.2523 2.84373,-5.3578 7.2415,-13.4578 9.84989,-19.1407 2.3686,-5.1604 10.71459,-21.208 12.18716,-29.4234 1.25796,-7.018 0.10873,-11.6504 0.81983,-18.303396 0.34908,-3.266 2.7521,-9.588303 3.28192,-12.439303 0.78083,-4.2012 -0.5503,-8.604 -1.32263,-12.4391 -1.33905,-6.6487 -2.90391,-15.9642 -4.65812,-20.773 -3.78159,-10.3664 -17.92425,-19.6034 -29.98983,-25.12984 -16.03169,-7.34308 -51.68544,-2.32807 -65.83673,12.37964 -11.01528,11.4484 -18.37095,35.5497 -18.04643,48.6891 0.26256,10.630703 9.2105,33.838699 12.27412,46.840399 1.59459,6.7673 -0.66284,23.5705 -2.56751,34.3699"
       id="path6635-6-9-1-1-7"
       inkscape:connector-curvature="0"
       sodipodi:nodetypes="csccsssssssssssc" />
    <path
       style="fill:none;stroke:#000000;stroke-width:1.5;stroke-linecap:butt;stroke-linejoin:miter;stroke-opacity:1;display:inline"
       d="m 151.93029,78.458541 c 0.55449,2.3825 -0.88954,4.2204 -1.52189,5.5729"
       id="path6643-0-0-5-2-6"
       inkscape:connector-curvature="0"
       sodipodi:nodetypes="cc" />
    <path
       style="fill:#000000;stroke:none;display:inline"
       d="m 146.82439,82.775241 c -6.61687,-0.633 -8.72566,-6.7663 -15.11784,-8.4502 -5.27805,-1.3903 -15.54,-3.3922 -13.63129,-3.7199 4.19182,-0.72 9.8207,0.4786 15.12432,1.8861 1.94404,0.516 6.05944,2.2182 9.46096,3.9632 3.88301,1.9919 10.50518,6.9275 4.16385,6.3208 z"
       id="path6645-7-0-4-0-3"
       inkscape:connector-curvature="0"
       sodipodi:nodetypes="ssssss" />
    <path
       style="fill:#000000;stroke:none;display:inline"
       d="m 178.23158,80.898041 c -0.98531,-0.71 -6.10695,-0.6696 -8.85009,-0.8144 -3.34779,-0.1768 -11.52245,3.8262 -10.29723,4.6263 3.65147,2.3843 7.36644,-0.8262 10.9268,-1.9575 3.5687,-1.1339 9.5185,-0.9191 8.22052,-1.8544 z"
       id="path6647-1-6-2-0-5"
       inkscape:connector-curvature="0"
       sodipodi:nodetypes="sssss" />
    <path
       style="fill:none;stroke:#000000;stroke-width:1.5;stroke-linecap:butt;stroke-linejoin:miter;stroke-opacity:1;display:inline"
       d="m 137.09614,115.63234 c -0.75303,1.8495 -0.13578,3.9756 1.44631,4.3902"
       id="path6649-7-1-0-1-6"
       inkscape:connector-curvature="0"
       sodipodi:nodetypes="cc" />
    <path
       style="fill:none;stroke:#916f6f;stroke-width:1.5;stroke-linecap:butt;stroke-linejoin:miter;stroke-opacity:1;display:inline"
       d="m 143.19007,89.232244 c -1.4695,0.2639 -2.92395,2.4967 -5.28899,2.2014 -2.5345,-0.3163 -5.88256,-0.6116 -7.67055,-1.7701 -1.8264,-1.185103 -5.6065,-2.945503 -7.52077,-4.511303"
       id="path3339-7-3-9-4-5"
       inkscape:connector-curvature="0"
       sodipodi:nodetypes="cssc" />
    <path
       style="fill:none;stroke:#000000;stroke-width:1.5;stroke-linecap:butt;stroke-linejoin:miter;stroke-opacity:1;display:inline"
       d="m 144.46517,89.882644 c -1.94648,-2.239103 -0.93265,-4.154103 -2.95454,-5.087303 -2.39817,-1.1069 -6.99549,-3.0331 -9.8602,-2.6433 -3.33234,0.4534 -8.86652,3.0718 -11.53093,3.5285"
       id="path3337-7-8-7-6-8"
       inkscape:connector-curvature="0"
       sodipodi:nodetypes="cssc" />
    <path
       style="fill:none;stroke:#916f6f;stroke-width:1.5;stroke-linecap:butt;stroke-linejoin:miter;stroke-opacity:1;display:inline"
       d="m 173.27386,94.820344 c -1.07287,1.09 -3.47698,2.4924 -4.63992,2.0666 -1.79052,-0.6554 -4.75696,-0.7684 -7.17889,-1.6446 -0.67128,-0.2429 -3.34946,-2.0269 -3.72171,-2.5615"
       id="path3355-7-9-3-0-3"
       inkscape:connector-curvature="0"
       sodipodi:nodetypes="cssc" />
    <path
       style="fill:none;stroke:#000000;stroke-width:1.5;stroke-linecap:butt;stroke-linejoin:miter;stroke-opacity:1;display:inline"
       d="m 173.68997,96.270144 c -0.75845,-1.8338 -1.32794,-5.081 -3.1689,-5.7392 -1.55274,-0.5554 -6.7596,-2.418403 -8.80409,-2.008303 -1.14422,0.2295 -2.85987,2.844703 -4.44579,3.831403"
       id="path3353-3-3-7-7-9"
       inkscape:connector-curvature="0"
       sodipodi:nodetypes="cssc" />
    <path
       style="opacity:0.95;fill:#deaa87;stroke:#000000;stroke-width:1.5;stroke-linecap:butt;stroke-linejoin:miter;stroke-opacity:1;display:inline"
       d="m 78.75778,118.54444 c -2.08468,-3.1085 -10.77815,3.1273 -13.28164,-4.108 -1.5887,-4.5915 -4.83798,-10.2249 -5.83974,-19.204096 -0.99339,-8.904103 2.18765,-13.485203 5.14767,-14.418203 5.03016,-1.5855 8.82593,0.9652 12.03605,3.7742"
       id="path6637-1-1-2-1-4"
       inkscape:connector-curvature="0"
       sodipodi:nodetypes="csssc" />
    <path
       style="opacity:0.95;fill:none;stroke:#000000;stroke-width:1.5;stroke-linecap:butt;stroke-linejoin:miter;stroke-opacity:1;display:inline"
       d="m 67.83339,105.63354 c 1.30855,-2.0251 4.94059,-3.9367 5.82303,-6.916596 0.83617,-2.8238 1.98764,-5.6678 1.21856,-7.663 -1.16336,-3.017903 -4.75315,-8.186103 -7.43546,-8.018803 -2.151,0.1342 -4.075,2.0161 -4.82088,5.039 -1.82824,7.409303 1.81292,17.494399 6.64207,18.367999 2.70677,0.4897 6.36638,5.5994 7.46875,4.0935 1.08055,-1.4761 -1.66521,-4.4984 -1.92557,-5.986 -0.15686,-0.8963 2.43498,-3.7904 2.80591,-6.036596"
       id="path6639-8-8-6-7-8"
       inkscape:connector-curvature="0"
       sodipodi:nodetypes="csssssssc" />
    <path
       style="fill:none;stroke:#000000;stroke-width:1.5;stroke-linecap:butt;stroke-linejoin:miter;stroke-opacity:1;display:inline"
       d="m 142.49704,165.41524 c -4.55468,5.4332 -5.16893,8.2729 -4.77905,14.9912"
       id="path6570-3"
       inkscape:connector-curvature="0"
       sodipodi:nodetypes="cc" />
    <path
       style="fill:none;stroke:#000000;stroke-width:1.5;stroke-linecap:butt;stroke-linejoin:miter;stroke-opacity:1;display:inline"
       d="m 143.23254,119.01674 c 2.18069,-1.9538 5.95883,-2.742 9.16571,-3.671"
       id="path3823-9"
       inkscape:connector-curvature="0"
       sodipodi:nodetypes="cc" />
    <path
       style="fill:none;stroke:#000000;stroke-width:1.5;stroke-linecap:butt;stroke-linejoin:miter;stroke-opacity:1;display:inline"
       d="m 155.79772,121.24234 c 0.40023,-0.5984 1.39583,-3.9173 1.56636,-4.4204"
       id="path3823-1-7"
       inkscape:connector-curvature="0"
       sodipodi:nodetypes="cc" />
    <path
       style="fill:none;stroke:#ff0000;stroke-width:1.5;stroke-linecap:butt;stroke-linejoin:miter;stroke-opacity:1;display:inline"
       d="m 70.29568,144.80884 c -3.86039,1.8229 26.4529,22.4568 31.77918,23.9746 -5.09648,2.8768 -11.48478,12.391 -19.51728,25.4463 -4.27733,-9.4019 -16.57198,-34.2356 -15.77761,-38.5302 0.4341,-2.3469 0.99772,-10.343 3.27854,-10.8729 13.40912,-3.1154 65.48591,-0.8258 73.86207,5.0977 2.58823,1.8303 2.23833,9.2172 2.22733,11.6009 -0.0169,3.6553 -19.04596,27.6459 -23.19254,33.6913 -6.97138,-11.1981 -13.95991,-21.5035 -18.66935,-25.8874 13.58365,-6.4506 42.67815,-17.4598 39.4384,-19.5042 -10.4377,-6.5865 -67.11405,-7.998 -73.42874,-5.0161 z"
       id="path6762-7-2-0-4"
       inkscape:connector-curvature="0"
       sodipodi:nodetypes="sccssssccss" />
    <path
       style="fill:none;stroke:#000000;stroke-width:1.5;stroke-linecap:butt;stroke-linejoin:miter;stroke-opacity:1;display:inline"
       d="m 77.92069,190.10594 -16.47138,17.4778 c 8.3084,12.7794 26.89844,56.592 37.27759,72.9521"
       id="path6766-7-0-8-5"
       inkscape:connector-curvature="0"
       sodipodi:nodetypes="ccc" />
    <path
       style="fill:none;stroke:#008000;stroke-width:1.5;stroke-linecap:butt;stroke-linejoin:miter;stroke-opacity:1;display:inline"
       d="m 138.49011,192.84654 c 5.57337,-1.8796 11.07456,-4.7545 14.83696,-5.5558 -0.42077,-11.4027 -1.32333,-22.2216 -0.16101,-27.727 -0.55526,-2.2775 -3.68873,-5.7685 -5.3894,-7.3348 -6.67653,-6.149 -69.13661,-9.3945 -80.13098,-2.5759 -1.47121,0.9124 -4.31249,8.9124 -5.87927,12.4769 -1.69659,3.8597 -0.52187,17.098 -2.91572,30.9093 l 10.97886,4.4966"
       id="path13557"
       inkscape:connector-curvature="0"
       sodipodi:nodetypes="cccssscc" />
    <path
       style="fill:none;stroke:#000000;stroke-width:1.5;stroke-linecap:butt;stroke-linejoin:miter;stroke-opacity:1;display:inline"
       d="m 96.30799,282.32514 c -0.8944,3.8031 -4.18178,83.4595 0.22355,121.5465 1.1212,9.6937 11.96678,17.6233 18.59225,17.9742 18.45147,0.9772 52.77244,-3.4455 68.15592,-4.3095 10.43184,-0.5859 14.91895,-5.08 17.75695,-10.6237 4.43498,-8.6631 -14.59642,-86.693 -13.29679,-98.1106 3.87689,-34.0593 22.56546,-98.5676 27.10806,-116.9017 3.2526,-13.1277 -9.3364,-31.6249 -21.00992,-40.1484 -13.20041,-9.6383 -33.30674,5.5827 -51.26201,1.271 -13.05997,-3.1362 -65.78695,-1.0381 -70.63441,1.2512 -5.75122,2.7161 -37.680279,21.6381 -46.341109,25.8031 -7.08535,3.4073 -6.59362,18.0201 -7.25994,37.6131 -0.65233,19.1813 17.68565,74.559 18.30244,91.9401 0.55855,15.7398 -9.47047,89.4114 -6.26508,98.4313 1.07116,3.0143 7.9757,8.8873 11.36901,9.421 7.872789,1.2383 46.544779,2.8368 53.538979,-0.084 7.21626,-3.0137 9.83637,-9.201 9.50162,-14.0098 -2.41102,-34.6357 1.03019,-114.2245 -1.48199,-121.2073 -7.0459,-19.5846 -14.09115,-60.348 -23.87305,-89.7091 -7.58862,-22.7778 -11.57684,-40.6663 -11.36851,-43.4717 0.62421,-8.4058 76.76813,-4.6851 77.92209,4.4026 0.63609,5.0094 -8.04029,18.5595 -16.47967,36.9315 -12.03587,26.2013 -26.0777,61.7121 -33.19839,91.9902 z"
       id="path6659-6-6-1-3"
       inkscape:connector-curvature="0"
       sodipodi:nodetypes="sssssssssssssssssssssss" />
    <path
       style="fill:none;stroke:#000000;stroke-width:1.5;stroke-linecap:butt;stroke-linejoin:miter;stroke-opacity:1;display:inline"
       d="m 130.14411,188.67514 19.91668,16.1217 c -8.35238,14.6231 -35.20861,55.2944 -50.06096,76.6987"
       id="path6655-8-1-5-2"
       inkscape:connector-curvature="0"
       sodipodi:nodetypes="ccc" />
    <path
       style="fill:none;stroke:#000000;stroke-width:1.5;stroke-linecap:butt;stroke-linejoin:miter;stroke-opacity:1;display:inline"
       d="m 191.14392,152.49754 210.79925,-34.9713 3.8857,56.3426 -210.79925,44.6856"
       id="path7148"
       inkscape:connector-curvature="0" />
  </g>
  <g
     inkscape:groupmode="layer"
     id="layer7"
     inkscape:label="枠面"
     style="display:inline"
     sodipodi:insensitive="true">
    <path
       style="fill:#ffffff;stroke:none;display:inline"
       d="m 0,0 0,320 370,0 0,-320 -10,10 0,300 -350,0 0,-300 350,0 10,-10 z"
       id="path21072"
       inkscape:connector-curvature="0"
       sodipodi:nodetypes="ccccccccccc" />
  </g>
</svg>
