<?xml version="1.0" encoding="UTF-8" standalone="no"?>
<!-- Created with Inkscape (http://www.inkscape.org/) -->

<svg
   xmlns:dc="http://purl.org/dc/elements/1.1/"
   xmlns:cc="http://creativecommons.org/ns#"
   xmlns:rdf="http://www.w3.org/1999/02/22-rdf-syntax-ns#"
   xmlns:svg="http://www.w3.org/2000/svg"
   xmlns="http://www.w3.org/2000/svg"
   xmlns:sodipodi="http://sodipodi.sourceforge.net/DTD/sodipodi-0.dtd"
   xmlns:inkscape="http://www.inkscape.org/namespaces/inkscape"
   width="370"
   height="320"
   id="svg2"
   version="1.1"
   inkscape:version="0.92.3 (2405546, 2018-03-11)"
   sodipodi:docname="[18.悲嘆].svg"
   inkscape:export-filename="C:\Users\zhen-\Desktop\資料\臨時\HOSHI\33.png"
   inkscape:export-xdpi="96"
   inkscape:export-ydpi="96"
   enable-background="new">
  <defs
     id="defs4">
    <inkscape:perspective
       sodipodi:type="inkscape:persp3d"
       inkscape:vp_x="363.49708 : 943.81603 : 1"
       inkscape:vp_y="0 : 1000 : 0"
       inkscape:vp_z="744.09448 : 526.18109 : 1"
       inkscape:persp3d-origin="372.04724 : 350.78739 : 1"
       id="perspective5056" />
    <inkscape:perspective
       id="perspective5056-8"
       inkscape:persp3d-origin="372.04724 : 350.78739 : 1"
       inkscape:vp_z="744.09448 : 526.18109 : 1"
       inkscape:vp_y="0 : 1000 : 0"
       inkscape:vp_x="363.49708 : 943.81603 : 1"
       sodipodi:type="inkscape:persp3d" />
    <inkscape:perspective
       id="perspective5056-5"
       inkscape:persp3d-origin="372.04724 : 350.78739 : 1"
       inkscape:vp_z="744.09448 : 526.18109 : 1"
       inkscape:vp_y="0 : 1000 : 0"
       inkscape:vp_x="363.49708 : 943.81603 : 1"
       sodipodi:type="inkscape:persp3d" />
    <inkscape:perspective
       sodipodi:type="inkscape:persp3d"
       inkscape:vp_x="363.49708 : 943.81603 : 1"
       inkscape:vp_y="0 : 1000 : 0"
       inkscape:vp_z="744.09448 : 526.18109 : 1"
       inkscape:persp3d-origin="372.04724 : 350.78739 : 1"
       id="perspective5056-5-2" />
    <inkscape:perspective
       sodipodi:type="inkscape:persp3d"
       inkscape:vp_x="363.49708 : 943.81603 : 1"
       inkscape:vp_y="0 : 1000 : 0"
       inkscape:vp_z="744.09448 : 526.18109 : 1"
       inkscape:persp3d-origin="372.04724 : 350.78739 : 1"
       id="perspective5056-8-5" />
    <inkscape:perspective
       id="perspective5056-1"
       inkscape:persp3d-origin="372.04724 : 350.78739 : 1"
       inkscape:vp_z="744.09448 : 526.18109 : 1"
       inkscape:vp_y="0 : 1000 : 0"
       inkscape:vp_x="363.49708 : 943.81603 : 1"
       sodipodi:type="inkscape:persp3d" />
    <inkscape:perspective
       sodipodi:type="inkscape:persp3d"
       inkscape:vp_x="363.49708 : 943.81603 : 1"
       inkscape:vp_y="0 : 1000 : 0"
       inkscape:vp_z="744.09448 : 526.18109 : 1"
       inkscape:persp3d-origin="372.04724 : 350.78739 : 1"
       id="perspective5056-5-5" />
    <inkscape:perspective
       id="perspective5056-4"
       inkscape:persp3d-origin="372.04724 : 350.78739 : 1"
       inkscape:vp_z="744.09448 : 526.18109 : 1"
       inkscape:vp_y="0 : 1000 : 0"
       inkscape:vp_x="363.49708 : 943.81603 : 1"
       sodipodi:type="inkscape:persp3d" />
    <inkscape:perspective
       sodipodi:type="inkscape:persp3d"
       inkscape:vp_x="363.49708 : 943.81603 : 1"
       inkscape:vp_y="0 : 1000 : 0"
       inkscape:vp_z="744.09448 : 526.18109 : 1"
       inkscape:persp3d-origin="372.04724 : 350.78739 : 1"
       id="perspective5056-1-2" />
    <inkscape:perspective
       id="perspective5056-8-5-8"
       inkscape:persp3d-origin="372.04724 : 350.78739 : 1"
       inkscape:vp_z="744.09448 : 526.18109 : 1"
       inkscape:vp_y="0 : 1000 : 0"
       inkscape:vp_x="363.49708 : 943.81603 : 1"
       sodipodi:type="inkscape:persp3d" />
    <inkscape:perspective
       id="perspective5056-5-2-8"
       inkscape:persp3d-origin="372.04724 : 350.78739 : 1"
       inkscape:vp_z="744.09448 : 526.18109 : 1"
       inkscape:vp_y="0 : 1000 : 0"
       inkscape:vp_x="363.49708 : 943.81603 : 1"
       sodipodi:type="inkscape:persp3d" />
    <inkscape:perspective
       sodipodi:type="inkscape:persp3d"
       inkscape:vp_x="363.49708 : 943.81603 : 1"
       inkscape:vp_y="0 : 1000 : 0"
       inkscape:vp_z="744.09448 : 526.18109 : 1"
       inkscape:persp3d-origin="372.04724 : 350.78739 : 1"
       id="perspective5056-5-4" />
    <inkscape:perspective
       sodipodi:type="inkscape:persp3d"
       inkscape:vp_x="363.49708 : 943.81603 : 1"
       inkscape:vp_y="0 : 1000 : 0"
       inkscape:vp_z="744.09448 : 526.18109 : 1"
       inkscape:persp3d-origin="372.04724 : 350.78739 : 1"
       id="perspective5056-8-9" />
    <inkscape:perspective
       id="perspective5056-40"
       inkscape:persp3d-origin="372.04724 : 350.78739 : 1"
       inkscape:vp_z="744.09448 : 526.18109 : 1"
       inkscape:vp_y="0 : 1000 : 0"
       inkscape:vp_x="363.49708 : 943.81603 : 1"
       sodipodi:type="inkscape:persp3d" />
    <inkscape:perspective
       sodipodi:type="inkscape:persp3d"
       inkscape:vp_x="363.49708 : 943.81603 : 1"
       inkscape:vp_y="0 : 1000 : 0"
       inkscape:vp_z="744.09448 : 526.18109 : 1"
       inkscape:persp3d-origin="372.04724 : 350.78739 : 1"
       id="perspective5056-1-5" />
    <inkscape:perspective
       id="perspective5056-8-5-4"
       inkscape:persp3d-origin="372.04724 : 350.78739 : 1"
       inkscape:vp_z="744.09448 : 526.18109 : 1"
       inkscape:vp_y="0 : 1000 : 0"
       inkscape:vp_x="363.49708 : 943.81603 : 1"
       sodipodi:type="inkscape:persp3d" />
    <inkscape:perspective
       id="perspective5056-5-2-82"
       inkscape:persp3d-origin="372.04724 : 350.78739 : 1"
       inkscape:vp_z="744.09448 : 526.18109 : 1"
       inkscape:vp_y="0 : 1000 : 0"
       inkscape:vp_x="363.49708 : 943.81603 : 1"
       sodipodi:type="inkscape:persp3d" />
    <inkscape:perspective
       sodipodi:type="inkscape:persp3d"
       inkscape:vp_x="363.49708 : 943.81603 : 1"
       inkscape:vp_y="0 : 1000 : 0"
       inkscape:vp_z="744.09448 : 526.18109 : 1"
       inkscape:persp3d-origin="372.04724 : 350.78739 : 1"
       id="perspective5056-5-8" />
    <inkscape:perspective
       sodipodi:type="inkscape:persp3d"
       inkscape:vp_x="363.49708 : 943.81603 : 1"
       inkscape:vp_y="0 : 1000 : 0"
       inkscape:vp_z="744.09448 : 526.18109 : 1"
       inkscape:persp3d-origin="372.04724 : 350.78739 : 1"
       id="perspective5056-8-4" />
    <inkscape:perspective
       id="perspective5056-409"
       inkscape:persp3d-origin="372.04724 : 350.78739 : 1"
       inkscape:vp_z="744.09448 : 526.18109 : 1"
       inkscape:vp_y="0 : 1000 : 0"
       inkscape:vp_x="363.49708 : 943.81603 : 1"
       sodipodi:type="inkscape:persp3d" />
    <inkscape:perspective
       sodipodi:type="inkscape:persp3d"
       inkscape:vp_x="363.49708 : 943.81603 : 1"
       inkscape:vp_y="0 : 1000 : 0"
       inkscape:vp_z="744.09448 : 526.18109 : 1"
       inkscape:persp3d-origin="372.04724 : 350.78739 : 1"
       id="perspective5056-1-7" />
    <inkscape:perspective
       id="perspective5056-8-5-2"
       inkscape:persp3d-origin="372.04724 : 350.78739 : 1"
       inkscape:vp_z="744.09448 : 526.18109 : 1"
       inkscape:vp_y="0 : 1000 : 0"
       inkscape:vp_x="363.49708 : 943.81603 : 1"
       sodipodi:type="inkscape:persp3d" />
    <inkscape:perspective
       id="perspective5056-5-2-89"
       inkscape:persp3d-origin="372.04724 : 350.78739 : 1"
       inkscape:vp_z="744.09448 : 526.18109 : 1"
       inkscape:vp_y="0 : 1000 : 0"
       inkscape:vp_x="363.49708 : 943.81603 : 1"
       sodipodi:type="inkscape:persp3d" />
    <inkscape:perspective
       sodipodi:type="inkscape:persp3d"
       inkscape:vp_x="363.49708 : 943.81603 : 1"
       inkscape:vp_y="0 : 1000 : 0"
       inkscape:vp_z="744.09448 : 526.18109 : 1"
       inkscape:persp3d-origin="372.04724 : 350.78739 : 1"
       id="perspective5056-5-1" />
    <inkscape:perspective
       sodipodi:type="inkscape:persp3d"
       inkscape:vp_x="363.49708 : 943.81603 : 1"
       inkscape:vp_y="0 : 1000 : 0"
       inkscape:vp_z="744.09448 : 526.18109 : 1"
       inkscape:persp3d-origin="372.04724 : 350.78739 : 1"
       id="perspective5056-8-6" />
    <inkscape:perspective
       id="perspective5056-7"
       inkscape:persp3d-origin="372.04724 : 350.78739 : 1"
       inkscape:vp_z="744.09448 : 526.18109 : 1"
       inkscape:vp_y="0 : 1000 : 0"
       inkscape:vp_x="363.49708 : 943.81603 : 1"
       sodipodi:type="inkscape:persp3d" />
    <inkscape:perspective
       sodipodi:type="inkscape:persp3d"
       inkscape:vp_x="363.49708 : 943.81603 : 1"
       inkscape:vp_y="0 : 1000 : 0"
       inkscape:vp_z="744.09448 : 526.18109 : 1"
       inkscape:persp3d-origin="372.04724 : 350.78739 : 1"
       id="perspective5056-1-1" />
    <inkscape:perspective
       id="perspective5056-8-5-82"
       inkscape:persp3d-origin="372.04724 : 350.78739 : 1"
       inkscape:vp_z="744.09448 : 526.18109 : 1"
       inkscape:vp_y="0 : 1000 : 0"
       inkscape:vp_x="363.49708 : 943.81603 : 1"
       sodipodi:type="inkscape:persp3d" />
    <inkscape:perspective
       id="perspective5056-5-2-1"
       inkscape:persp3d-origin="372.04724 : 350.78739 : 1"
       inkscape:vp_z="744.09448 : 526.18109 : 1"
       inkscape:vp_y="0 : 1000 : 0"
       inkscape:vp_x="363.49708 : 943.81603 : 1"
       sodipodi:type="inkscape:persp3d" />
    <inkscape:perspective
       sodipodi:type="inkscape:persp3d"
       inkscape:vp_x="363.49708 : 943.81603 : 1"
       inkscape:vp_y="0 : 1000 : 0"
       inkscape:vp_z="744.09448 : 526.18109 : 1"
       inkscape:persp3d-origin="372.04724 : 350.78739 : 1"
       id="perspective5056-5-46" />
    <inkscape:perspective
       sodipodi:type="inkscape:persp3d"
       inkscape:vp_x="363.49708 : 943.81603 : 1"
       inkscape:vp_y="0 : 1000 : 0"
       inkscape:vp_z="744.09448 : 526.18109 : 1"
       inkscape:persp3d-origin="372.04724 : 350.78739 : 1"
       id="perspective5056-8-92" />
    <inkscape:perspective
       id="perspective5056-3"
       inkscape:persp3d-origin="372.04724 : 350.78739 : 1"
       inkscape:vp_z="744.09448 : 526.18109 : 1"
       inkscape:vp_y="0 : 1000 : 0"
       inkscape:vp_x="363.49708 : 943.81603 : 1"
       sodipodi:type="inkscape:persp3d" />
  </defs>
  <sodipodi:namedview
     id="base"
     pagecolor="#ffffff"
     bordercolor="#666666"
     borderopacity="1.0"
     inkscape:pageopacity="0.0"
     inkscape:pageshadow="2"
     inkscape:zoom="0.65475806"
     inkscape:cx="-0.87961009"
     inkscape:cy="279.8114"
     inkscape:document-units="px"
     inkscape:current-layer="layer8"
     showgrid="false"
     inkscape:window-width="1610"
     inkscape:window-height="984"
     inkscape:window-x="75"
     inkscape:window-y="-2"
     inkscape:window-maximized="0"
     showguides="false"
     inkscape:guide-bbox="true"
     inkscape:snap-grids="false"
     inkscape:snap-to-guides="false"
     showborder="true"
     inkscape:showpageshadow="false"
     fit-margin-top="0"
     fit-margin-left="0"
     fit-margin-right="0"
     fit-margin-bottom="0"
     inkscape:snap-page="false"
     inkscape:snap-global="false">
    <sodipodi:guide
       position="65.552237,330.38328"
       orientation="0,1"
       id="guide24639"
       inkscape:locked="false" />
  </sodipodi:namedview>
  <metadata
     id="metadata7">
    <rdf:RDF>
      <cc:Work
         rdf:about="">
        <dc:format>image/svg+xml</dc:format>
        <dc:type
           rdf:resource="http://purl.org/dc/dcmitype/StillImage" />
        <dc:title />
      </cc:Work>
    </rdf:RDF>
  </metadata>
  <g
     inkscape:groupmode="layer"
     id="layer2"
     inkscape:label="補助線"
     style="display:none"
     sodipodi:insensitive="true">
    <path
       style="fill:none;stroke:#0000ff;stroke-width:1px;stroke-linecap:butt;stroke-linejoin:miter;stroke-opacity:1"
       d="M 10,310 360,10"
       id="path3025"
       inkscape:connector-curvature="0"
       sodipodi:nodetypes="cc" />
    <path
       style="fill:none;stroke:#0000ff;stroke-width:1px;stroke-linecap:butt;stroke-linejoin:miter;stroke-opacity:1"
       d="M 10,10 360,310"
       id="path3027"
       inkscape:connector-curvature="0"
       sodipodi:nodetypes="cc" />
    <path
       style="display:inline;fill:none;stroke:#ff0000;stroke-width:1px;stroke-linecap:butt;stroke-linejoin:miter;stroke-opacity:1"
       d="M 10,0 V 320"
       id="path3006"
       inkscape:connector-curvature="0"
       sodipodi:nodetypes="cc" />
    <path
       style="display:inline;fill:none;stroke:#ff0000;stroke-width:1px;stroke-linecap:butt;stroke-linejoin:miter;stroke-opacity:1"
       d="M 360,0 V 320"
       id="path3010"
       inkscape:connector-curvature="0"
       sodipodi:nodetypes="cc" />
    <path
       style="display:inline;fill:none;stroke:#ff0000;stroke-width:1px;stroke-linecap:butt;stroke-linejoin:miter;stroke-opacity:1"
       d="M 0,9.9999681 370,10"
       id="path3016"
       inkscape:connector-curvature="0" />
    <path
       transform="translate(84.715796,27.711696)"
       style="display:inline;fill:none;stroke:#ff0000;stroke-width:1px;stroke-linecap:butt;stroke-linejoin:miter;stroke-opacity:1"
       d="M -84.715796,282.2883 H 285.2842"
       id="path3018"
       inkscape:connector-curvature="0"
       sodipodi:nodetypes="cc" />
  </g>
  <g
     inkscape:groupmode="layer"
     id="layer8"
     inkscape:label="豚"
     style="display:inline"
     sodipodi:insensitive="true">
    <path
       sodipodi:nodetypes="ccccccc"
       inkscape:connector-curvature="0"
       id="path6635-6-7-11"
       d="m 144.34978,139.85786 c 0.0439,8.4333 -2.98752,13.43077 -4.16604,21.99264 l 2.63367,41.81469 60.54824,42.24773 30.46896,-31.32545 1.42007,-70.23513 z"
       style="display:inline;fill:#deaa87;stroke:#000000;stroke-width:1.5;stroke-linecap:round;stroke-linejoin:round;stroke-opacity:1" />
    <path
       sodipodi:nodetypes="cccc"
       inkscape:connector-curvature="0"
       id="path3234-3"
       d="m 154.71637,215.19009 92.24738,10.32242 -33.83126,154.54076 z"
       style="display:inline;fill:#dbdee3;stroke:none;stroke-width:1.5;stroke-linecap:round;stroke-linejoin:round" />
    <path
       style="display:inline;fill:#550000;stroke:#000000;stroke-width:1.5;stroke-linecap:round;stroke-linejoin:round;stroke-opacity:1"
       d="m 207.76249,249.55108 c 9.56479,42.85651 11.44068,79.10473 13.90282,118.0047 l -14.20438,34.72934 -18.70259,-30.73119 c 4.7106,-41.38284 11.10354,-75.75525 6.97811,-118.71848 z"
       id="path6770-0-1-04-1"
       inkscape:connector-curvature="0"
       sodipodi:nodetypes="cccccc" />
    <path
       style="display:inline;fill:#1c1f24;fill-opacity:1;stroke:#000000;stroke-width:1.5;stroke-linecap:round;stroke-linejoin:round;stroke-opacity:1"
       d="m 131.57429,164.88631 c -15.77439,12.29789 -50.469272,28.21253 -66.439132,42.23641 -13.34366,11.71769 -9.02517,32.45343 -9.7153,47.04895 -1.35566,28.67036 7.86734,58.9009 9.57644,78.26336 1.36177,15.42674 0.19921,84.16534 -2.63959,115.9576 L 214.2382,376.00219 166.88112,261.88569 Z"
       id="path3707"
       inkscape:connector-curvature="0"
       sodipodi:nodetypes="cssccccc" />
    <path
       style="display:inline;fill:#550000;stroke:#000000;stroke-width:1.5;stroke-linecap:round;stroke-linejoin:round;stroke-opacity:1"
       d="m 208.86305,219.80137 -19.54211,3.38897 -5.71791,12.11511 c 4.92563,7.70809 7.83147,10.46796 12.14488,17.07734 4.78814,1.25797 10.19156,2.07763 12.62675,-2.11913 1.31883,-8.56886 6.49312,-13.82131 6.11439,-22.08328 z"
       id="path6768-9-7-2-7"
       inkscape:connector-curvature="0"
       sodipodi:nodetypes="ccccccc" />
    <path
       style="display:inline;fill:#dbdbe3;fill-opacity:1;stroke:#000000;stroke-width:1.5;stroke-linecap:round;stroke-linejoin:round;stroke-opacity:1"
       d="m 227.37361,164.35666 c 8.94728,13.1641 -1.15126,68.94575 -2.37157,87.47554 -5.80103,-13.47547 -13.13748,-30.74029 -19.08764,-32.42491 15.84512,-16.46392 31.69861,-50.19152 10.80958,-70.71941 z"
       id="path3697"
       inkscape:connector-curvature="0"
       sodipodi:nodetypes="scccs" />
    <path
       style="display:inline;fill:#dbdbe3;fill-opacity:1;stroke:#000000;stroke-width:1.5;stroke-linecap:round;stroke-linejoin:round;stroke-opacity:1"
       d="m 202.54729,219.81614 c -9.70531,6.76669 -21.49814,23.7225 -28.65241,36.51738 -12.49625,-20.51435 -40.36861,-71.54435 -40.70939,-87.50647 l 9.44325,-20.05288 c -4.72036,10.6728 16.05901,46.90588 59.91855,71.04197 z"
       id="path6762-7-7-9-4"
       inkscape:connector-curvature="0"
       sodipodi:nodetypes="ccccc" />
    <path
       style="display:inline;fill:#1c1f24;fill-opacity:1;stroke:#000000;stroke-width:1.5;stroke-linecap:round;stroke-linejoin:round;stroke-opacity:1"
       d="m 165.85394,242.37074 c -15.69913,-38.74177 -33.25971,-75.32926 -26.19811,-89.71204 -6.73311,7.43313 -8.20453,10.10971 -10.86776,14.43884 0.008,10.43595 4.16582,53.48536 4.9186,78.97346 l 22.7601,14.42545 z"
       id="path8915"
       inkscape:connector-curvature="0"
       sodipodi:nodetypes="cccccc" />
    <path
       style="display:inline;fill:#1c1f24;fill-opacity:1;stroke:#000000;stroke-width:1.5;stroke-linecap:round;stroke-linejoin:round;stroke-opacity:1"
       d="M 211.57283,371.95731 C 196.1,341.47863 164.45428,293.36592 141.42888,266.8336 l 24.42506,-24.46286 c 23.41222,40.29933 49.67828,120.80808 49.83624,129.17555 0.76344,40.44197 3.05724,59.18574 -2.96038,91.99894 L 62.356708,448.39263"
       id="path8917"
       inkscape:connector-curvature="0"
       sodipodi:nodetypes="cccscc" />
    <g
       style="display:inline;stroke:#000000;stroke-width:0.18451075;stroke-linecap:round;stroke-linejoin:round"
       transform="matrix(-7.7299176,2.8860268,2.8016571,7.5039421,11923.045,-5939.1396)"
       id="g3242" />
    <g
       style="display:inline;stroke:#000000;stroke-width:0.18451075;stroke-linecap:round;stroke-linejoin:round"
       transform="matrix(-7.9830301,2.0861456,2.0251595,7.7496554,12702.814,-4850.158)"
       id="g3244" />
    <g
       style="display:inline;stroke:#000000;stroke-width:0.18451075;stroke-linecap:round;stroke-linejoin:round"
       transform="matrix(-7.9830301,2.0861456,2.0251595,7.7496554,14466.647,-5222.0608)"
       id="g3246" />
    <g
       style="display:inline;stroke-width:0.14507642;stroke-linecap:round;stroke-linejoin:round"
       inkscape:label="駅員: 左手"
       id="g3250"
       transform="matrix(9.6862796,-3.6164503,3.6164503,9.6862796,330.60833,1394.6975)">
      <g
         style="display:inline;stroke:#000000;stroke-width:0.18451075;stroke-linecap:round;stroke-linejoin:round"
         transform="matrix(-0.7980275,0,0,0.77469807,1298.4706,-272.34221)"
         id="g3248" />
    </g>
    <g
       style="display:inline;stroke:#000000;stroke-width:0.18451075;stroke-linecap:round;stroke-linejoin:round"
       transform="matrix(-7.7299176,2.8860268,2.8016571,7.5039421,11923.046,-5939.1399)"
       id="g3252" />
    <path
       style="display:inline;fill:#1c1f24;fill-opacity:1;stroke:#000000;stroke-width:1.5;stroke-linecap:round;stroke-linejoin:round;stroke-opacity:1"
       d="m 250.10797,442.97125 c 2.84342,-12.95347 -9.28112,-84.25151 -4.62813,-99.78281 6.8548,-22.88094 37.65933,-85.36288 40.48862,-121.53318 1.20332,-15.38421 0.7645,-43.34178 -11.50033,-55.3186 -8.68859,-8.48454 -32.65952,-6.29232 -47.60587,-6.5582 l 9.50699,79.60726 -28.40964,134.02074 z"
       id="path4600"
       inkscape:connector-curvature="0"
       sodipodi:nodetypes="cccscccc" />
    <path
       style="display:inline;fill:#1c1f24;fill-opacity:1;stroke:#000000;stroke-width:1.5;stroke-linecap:round;stroke-linejoin:round;stroke-opacity:1"
       d="m 235.71326,246.27401 5.77803,-20.78896 c -3.17248,-19.44531 -10.38585,-63.10205 -12.31621,-65.45363 -1.54886,-1.88694 -8.30082,-9.16149 -11.51605,-10.9996 14.48445,11.91052 11.41036,52.85312 9.02235,90.21318 z"
       id="path8921"
       inkscape:connector-curvature="0"
       sodipodi:nodetypes="cccccc" />
    <path
       style="display:inline;fill:#1c1f24;fill-opacity:1;stroke:#000000;stroke-width:1.5;stroke-linecap:round;stroke-linejoin:round;stroke-opacity:1"
       d="m 250.10797,442.97125 -47.65988,22.70373 c -1.66449,-34.32616 -3.5908,-71.22359 1.95188,-92.71694 3.40298,-13.19607 19.18164,-83.53282 22.28141,-133.71304 l 20.54183,8.15236 -38.44513,122.48494"
       id="path3709"
       inkscape:connector-curvature="0"
       sodipodi:nodetypes="ccsccc" />
    <g
       id="g4667"
       transform="matrix(0.9512461,0,0,0.9512461,-42.217408,-8.1511267)"
       style="stroke-width:1.57687902">
      <path
         style="display:inline;fill:#deaa87;stroke:#000000;stroke-width:1.57687902;stroke-linecap:round;stroke-linejoin:round;stroke-opacity:1"
         d="m 207.84367,160.17332 c 0.52203,3.06267 1.42896,7.28911 2.35892,11.27918 1.6088,6.90262 27.91737,33.51314 40.04755,43.75518 8.0569,6.80278 25.98612,5.20739 31.68892,-0.27094 3.59,-3.44866 6.00187,-9.19046 9.93576,-13.52432 3.52755,-3.8861 7.07035,-7.49136 8.5182,-9.07951 4.187,-4.59274 14.71115,-20.15958 19.32607,-28.92734 2.94249,-5.59025 6.2475,-19.39062 8.19474,-23.00341 3.60461,-6.68777 7.95176,-11.70986 7.8402,-15.3275 -0.22762,-7.38124 1.34317,-19.48775 1.00396,-28.304647 -1.01767,-26.45385 -3.5138,-35.582729 -19.17289,-52.549712 -14.62205,-15.843332 -40.80102,-24.283337 -58.82501,-22.003681 -18.87314,2.387056 -47.18984,18.761871 -56.46436,37.192821 -6.78751,13.488587 -14.46832,29.036002 -14.23268,42.560629 0.20559,11.7998 3.39628,33.22609 7.09418,43.41557 2.78268,7.66763 2.98717,18.70672 2.98669,19.35468"
         id="path4640"
         inkscape:connector-curvature="0"
         sodipodi:nodetypes="cssccccssssssssc" />
      <path
         sodipodi:nodetypes="sssscsssssccssssccsssscscs"
         inkscape:connector-curvature="0"
         id="path3438-5-86-7-3-4-0-0-9"
         d="m 273.23085,217.61168 c 8.80747,-1.61463 9.89652,-5.62424 14.08805,-12.5182 5.733,-9.42923 22.93261,-22.45653 30.93666,-43.72984 2.48842,-6.61378 5.06646,-12.96228 7.10675,-20.21663 1.0103,-3.59216 5.41658,-6.82172 1.98962,-13.3172 8.29639,-5.90826 6.14378,-24.56267 5.89918,-30.962791 -0.57778,-15.11842 0.35512,-25.730514 -11.71544,-44.638038 -6.86462,-10.752848 -30.33514,-30.938339 -56.64178,-27.292979 -10.62271,1.472009 -27.99953,18.631617 -27.5423,32.667796 0.22945,7.043779 8.28934,37.858466 14.95215,58.230232 2.11588,6.46937 8.28873,14.85702 11.86834,18.52586 l 27.79052,3.22973 c 7.41182,-7.50169 12.12171,-5.96027 10.60519,5.6338 -0.81622,6.24014 -0.0585,17.86088 0.32348,24.30614 0.22673,3.82619 -0.12013,8.59653 -1.80995,9.54336 -1.20449,0.67491 -5.73684,2.21715 -9.11559,2.51454 -1.34513,0.11839 -1.83343,5.55196 -0.57791,9.1416 l -13.79145,-1.33605 c -5.46624,0.63561 2.8406,-8.34666 -6.7e-4,-9.58073 -4.11456,-1.78701 -1.40048,-8.88238 0.0808,-9.95018 5.43003,-3.91431 10.54494,-9.26922 10.32821,-11.49283 -0.24979,-2.56281 -5.34534,1.25408 -10.27112,1.50267 -3.10046,0.15648 -11.7221,-6.46879 -13.54366,-7.3892 -2.73887,-1.38398 -5.06452,2.16822 -7.45495,5.25484 -2.92304,3.77425 -1.08068,16.15059 11.48254,36.55854 -9.23934,17.40584 0.0536,26.22479 5.01333,25.31556 z"
         style="display:inline;fill:#e9c6af;stroke:none;stroke-width:1.57687902;stroke-linecap:round;stroke-linejoin:round" />
      <path
         inkscape:connector-curvature="0"
         id="path6629-0-9-1"
         d="m 309.42432,135.06488 c -0.99825,1.99072 -3.4498,7.58326 -3.70055,10.37415 -0.2138,2.37963 1.73233,22.98052 1.63641,26.28303 -0.0716,2.46643 -2.722,6.23966 -4.30342,6.98187 -1.43793,0.67492 -8.4212,0.53343 -11.8521,1.50188"
         style="display:inline;fill:none;stroke:#000000;stroke-width:1.57687902;stroke-linecap:round;stroke-linejoin:round;stroke-opacity:1" />
      <path
         inkscape:connector-curvature="0"
         id="path6633-4-3-7"
         d="m 290.6103,183.78643 c -1.44036,0.0267 -4.00848,-1.76652 -5.25267,-1.59211 -5.25048,0.73455 -22.49111,8.55672 -24.21198,10.47894 -1.73849,1.94187 -0.86032,7.9765 0.68372,7.87858 3.54402,-0.22472 16.42611,-4.6278 26.05518,-5.90299 7.29919,-0.96664 10.36137,1.1692 11.99155,0.7317 0.68403,-0.18354 3.94495,-5.3811 3.16377,-6.69528 -1.51992,-2.55725 -5.47484,-5.50592 -7.43082,-6.12664 -1.46367,-0.46444 -3.90292,1.20753 -4.99873,1.22781 z"
         style="display:inline;fill:#000000;stroke:none;stroke-width:1.57687902;stroke-linecap:round;stroke-linejoin:round" />
      <path
         inkscape:connector-curvature="0"
         id="path6643-0-8-5"
         d="m 299.88685,130.49303 c 0.35791,3.06061 -0.52368,6.2886 -2.09503,8.28675"
         style="display:inline;fill:none;stroke:#000000;stroke-width:1.57687902;stroke-linecap:round;stroke-linejoin:round;stroke-opacity:1" />
      <path
         inkscape:connector-curvature="0"
         id="path6645-7-8-2"
         d="m 296.543,137.9728 c -5.88036,2.68624 -8.66243,1.78597 -18.33011,-0.17758 -9.84945,-2.00048 -24.80645,-2.91124 -21.97767,-3.76261 4.27648,-1.28707 17.3278,0.42701 22.25373,0.49175 3.00667,0.0395 9.00468,0.74366 12.57517,1.18601 4.04694,0.50137 8.14655,1.04379 5.47888,2.26243 z"
         style="display:inline;fill:#000000;stroke:none;stroke-width:1.57687902;stroke-linecap:round;stroke-linejoin:round"
         sodipodi:nodetypes="ssssss" />
      <path
         inkscape:connector-curvature="0"
         id="path6647-1-2-7"
         d="m 335.0193,125.93876 c 2.23892,-1.46555 -5.00853,0.62095 -7.44185,1.23206 -4.96648,1.2473 -18.65539,8.30582 -16.57105,8.86993 7.74339,2.09572 11.61051,-4.51289 16.94211,-6.4997 3.70961,-1.38238 5.11045,-2.3191 7.07079,-3.60229 z"
         style="display:inline;fill:#000000;stroke:none;stroke-width:1.57687902;stroke-linecap:round;stroke-linejoin:round"
         sodipodi:nodetypes="sssss" />
      <path
         inkscape:connector-curvature="0"
         id="path6649-7-9-6"
         d="m 277.88898,167.76021 c -4.10611,3.39069 -3.0951,9.09477 -0.26702,10.02881"
         style="display:inline;fill:none;stroke:#000000;stroke-width:1.57687902;stroke-linecap:round;stroke-linejoin:round;stroke-opacity:1" />
      <path
         inkscape:connector-curvature="0"
         id="path3337-7-35-4"
         d="m 290.23785,145.04793 c -2.62609,1.85339 -6.74425,4.12055 -11.24637,3.99251 -3.11261,-0.0885 -10.33366,-1.68318 -16.05787,-3.23427"
         style="display:inline;fill:none;stroke:#000000;stroke-width:1.57687902;stroke-linecap:round;stroke-linejoin:round;stroke-opacity:1" />
      <path
         inkscape:connector-curvature="0"
         id="path3353-3-4-3"
         d="m 327.76114,139.28469 c -1.78721,0.99589 -4.77518,4.24361 -7.45359,4.69378 -3.66522,0.61603 -7.65507,0.47024 -12.60144,-0.51947"
         style="display:inline;fill:none;stroke:#000000;stroke-width:1.57687902;stroke-linecap:round;stroke-linejoin:round;stroke-opacity:1" />
      <path
         inkscape:connector-curvature="0"
         id="path6710-3-0-2"
         d="m 284.60047,198.34054 c -1.66179,-0.92708 -9.7453,-0.17303 -12.98965,2.59385 -1.89565,1.61668 1.76083,4.31252 5.58711,5.00842 2.5712,0.4677 10.99111,-5.60027 7.40254,-7.60227 z"
         style="display:inline;fill:#deaa87;stroke:none;stroke-width:1.57687902;stroke-linecap:round;stroke-linejoin:round" />
      <path
         inkscape:connector-curvature="0"
         id="path6643-0-8-0-6"
         d="m 312.95436,128.57398 c -0.20811,2.38495 -1.61242,5.68514 -2.82756,7.53403"
         style="display:inline;fill:none;stroke:#000000;stroke-width:1.57687902;stroke-linecap:round;stroke-linejoin:round;stroke-opacity:1" />
    </g>
    <path
       style="display:inline;fill:#deaa87;stroke:#000000;stroke-width:1.5;stroke-linecap:round;stroke-linejoin:round;stroke-opacity:1"
       d="m 153.03875,143.28883 c -0.79743,-3.2086 -6.70304,-6.10799 -10.66574,-13.68434 -2.27565,-4.35087 -3.32365,-8.76888 -3.99105,-13.28483 -1.08132,-7.31673 -1.87195,-11.34857 -0.10388,-20.310437 1.30158,-6.5974 8.02291,-9.1591 11.93052,-6.96562 5.41122,3.03748 5.9854,7.85919 8.7649,13.529697"
       id="path6637-1-5-2"
       inkscape:connector-curvature="0"
       sodipodi:nodetypes="cssssc" />
    <path
       style="display:inline;opacity:0.95;fill:none;stroke:#000000;stroke-width:1.5;stroke-linecap:round;stroke-linejoin:round;stroke-opacity:1"
       d="m 145.97969,122.50561 c 3.40814,1.07727 3.81691,-1.54111 6.18705,-3.98112 2.24589,-2.31202 1.52196,-9.15194 1.42196,-11.91951 -0.15127,-4.18633 -5.25105,-13.447927 -8.03447,-13.800597 -2.76507,-0.35035 -3.67742,1.10396 -4.52552,4.80293 -1.15234,5.025867 -0.51219,14.134967 1.92018,18.521137 2.02856,3.658 6.48067,17.28311 8.49256,16.59758 1.97216,-0.67198 -0.60683,-3.91285 -0.293,-5.71529 0.18908,-1.08594 2.7406,-3.40379 4.13902,-3.21248"
       id="path6639-8-4-1"
       inkscape:connector-curvature="0"
       sodipodi:nodetypes="csssssssc" />
    <path
       sodipodi:nodetypes="csssc"
       inkscape:connector-curvature="0"
       id="path3346-3"
       d="m 201.78626,360.26296 c -32.97048,-42.34333 -67.24972,-77.6313 -85.87343,-103.07425 -10.18247,-13.91087 -37.204692,-60.63394 -53.430562,-44.87438 -9.95199,9.66598 -10.27352,50.66652 -3.31983,77.21497 8.96342,34.22136 84.806172,113.7161 116.604842,134.39074"
       style="display:inline;fill:#1c1f24;stroke:#000000;stroke-width:1.5;stroke-linecap:round;stroke-linejoin:round;stroke-opacity:1" />
    <g
       style="display:inline;stroke:#000000;stroke-width:0.62703824;stroke-linecap:round;stroke-linejoin:round"
       transform="matrix(-2.274587,0.84923533,0.8244089,2.208092,2463.9455,-1645.3111)"
       id="g19494" />
    <g
       style="display:inline;stroke:#000000;stroke-width:0.62703824;stroke-linecap:round;stroke-linejoin:round"
       transform="matrix(-2.3490673,0.61386419,0.59591857,2.280395,2693.3985,-1324.87)"
       id="g19496" />
    <g
       style="display:inline;stroke:#000000;stroke-width:0.62703824;stroke-linecap:round;stroke-linejoin:round"
       transform="matrix(-2.3490673,0.61386419,0.59591857,2.280395,3212.4197,-1434.3052)"
       id="g19498" />
    <g
       style="display:inline;stroke-width:0.49302527;stroke-linecap:round;stroke-linejoin:round"
       inkscape:label="駅員: 左手"
       id="g19502"
       transform="matrix(2.8502614,-1.064168,1.064168,2.8502614,-947.21725,512.72619)">
      <g
         style="display:inline;stroke:#000000;stroke-width:0.62703824;stroke-linecap:round;stroke-linejoin:round"
         transform="matrix(-0.7980275,0,0,0.77469807,1298.4706,-272.34221)"
         id="g19500" />
    </g>
    <g
       style="display:inline;stroke:#000000;stroke-width:0.62703824;stroke-linecap:round;stroke-linejoin:round"
       transform="matrix(-2.274587,0.84923533,0.8244089,2.208092,2463.9457,-1645.3112)"
       id="g19504" />
    <g
       style="display:inline;stroke:#000000;stroke-width:0.36451975;stroke-linecap:round;stroke-linejoin:round"
       transform="matrix(2.5764182,3.2871347,-3.191039,2.5010994,-1941.1562,-5638.4064)"
       id="g19506" />
    <g
       style="display:inline;stroke:#000000;stroke-width:0.36451975;stroke-linecap:round;stroke-linejoin:round"
       transform="matrix(2.8969034,3.0085104,-2.9205601,2.8122157,-2565.4142,-5373.9675)"
       id="g19508" />
    <g
       style="display:inline;stroke:#000000;stroke-width:0.36451975;stroke-linecap:round;stroke-linejoin:round"
       transform="matrix(2.8969034,3.0085104,-2.9205601,2.8122157,-3228.982,-6000.243)"
       id="g19510" />
    <g
       style="display:inline;stroke-width:0.28661323;stroke-linecap:round;stroke-linejoin:round"
       inkscape:label="駅員: 左手"
       id="g19514"
       transform="matrix(-3.2284829,-4.1190744,-4.1190744,3.2284829,1129.136,589.34273)">
      <g
         style="display:inline;stroke:#000000;stroke-width:0.36451975;stroke-linecap:round;stroke-linejoin:round"
         transform="matrix(-0.7980275,0,0,0.77469807,1298.4706,-272.34221)"
         id="g19512" />
    </g>
    <g
       style="display:inline;stroke:#000000;stroke-width:0.36451975;stroke-linecap:round;stroke-linejoin:round"
       transform="matrix(2.5764182,3.2871347,-3.191039,2.5010994,-1941.1564,-5638.4067)"
       id="g19516" />
    <path
       style="display:inline;fill:#1c1f24;fill-opacity:1;stroke:#000000;stroke-width:1.5;stroke-linecap:round;stroke-linejoin:round;stroke-opacity:1"
       d="m 158.56595,377.11865 c 4.79791,-21.90809 35.48642,-85.51134 39.35786,-102.42234 3.51234,-15.3424 60.35469,1.91995 57.55493,15.02883 -5.82593,27.27785 -19.79094,61.28174 -23.72288,86.31816 -2.85397,18.17246 -27.05462,59.18063 -38.94,59.1073 -20.69971,-0.1277 -33.47052,-9.63927 -44.67247,-22.5603"
       id="path33176-6"
       inkscape:connector-curvature="0"
       sodipodi:nodetypes="cssssc" />
    <path
       style="display:inline;fill:#000000;stroke:none;stroke-width:1.5;stroke-linecap:round;stroke-linejoin:round;stroke-opacity:1"
       d="m 250.06413,283.16196 c -27.96078,-20.14389 -59.92066,-15.07659 -47.40704,-3.99147 18.19494,16.11788 64.93486,16.61911 47.40704,3.99147 z"
       id="path19524-0-2-7"
       inkscape:connector-curvature="0"
       sodipodi:nodetypes="sss" />
    <path
       sodipodi:nodetypes="ssssss"
       inkscape:connector-curvature="0"
       id="path19526-2-8"
       d="m 206.49557,262.46603 c 0.62996,-3.69541 9.66851,-10.05291 17.95356,-9.44319 13.52121,0.99506 28.32007,12.32196 27.65401,16.86161 l -1.72301,11.74347 c -2.48579,16.94234 -47.32922,1.04499 -45.51979,-9.5694 z"
       style="display:inline;fill:#dbdbe3;fill-opacity:1;stroke:#000000;stroke-width:1.5;stroke-linecap:round;stroke-linejoin:round;stroke-opacity:1" />
    <path
       style="display:inline;fill:#000000;stroke:none;stroke-width:1.5;stroke-linecap:round;stroke-linejoin:round;stroke-opacity:1"
       d="m 247.08464,264.59416 c -5.12606,-4.42309 -12.43157,-8.88373 -19.22743,-9.34014 -14.53209,-0.97597 -27.21605,7.67682 -14.66791,13.10005 22.56243,9.75135 46.79416,7.37001 33.89534,-3.75991 z"
       id="path19524-06-7"
       inkscape:connector-curvature="0"
       sodipodi:nodetypes="ssss" />
    <g
       id="g4636"
       transform="matrix(1.006989,0.20024446,-0.20024446,1.006989,-28.638407,-79.128184)"
       style="stroke-width:1.4609834">
      <path
         sodipodi:nodetypes="cccssssccssccscssccc"
         inkscape:connector-curvature="0"
         id="path4739"
         d="m 317.61572,197.49825 2.79963,-15.04043 -2.61588,-10.14761 -4.9713,-13.43721 c -0.83321,-2.25212 1.24827,-7.46576 3.74318,-4.48775 2.69513,3.21699 4.11685,5.97272 7.14021,11.03725 1.91946,3.21536 4.07646,12.28498 6.04918,17.19751 1.26537,3.15106 0.066,12.04406 0.2832,17.40668 l -8.55858,46.47354 c -1.17156,12.35709 0.49814,14.68959 2.03957,28.69125 0.97229,8.83191 -14.02346,15.15489 -29.44339,6.99802 -2.30258,-1.21802 1.94989,-18.14353 0.0669,-30.19923 l -9.4194,-18.31197 c -2.39851,-5.61331 -2.49107,-8.98339 -4.88729,-14.58524 -1.24599,-2.91286 -4.6294,-7.22628 -6.06299,-11.07714 -4.62081,-4.82241 -7.8474,-11.00485 -11.24034,-17.01128 -2.30916,-4.08783 3.98901,-3.04602 5.69798,-2.22774 5.4778,2.62287 9.30747,6.56826 13.32094,11.81978 3.38861,2.18385 4.66322,6.32515 11.6672,7.99252 9.42042,-5.76951 7.08139,-10.68052 12.11279,-16.45003"
         style="display:inline;fill:#deaa87;stroke:#000000;stroke-width:1.4609834;stroke-linecap:round;stroke-linejoin:round;stroke-opacity:1" />
      <path
         sodipodi:nodetypes="cscssccc"
         inkscape:connector-curvature="0"
         id="path4741"
         d="m 325.70944,199.81232 c -0.31036,-8.94411 0.96505,-18.88401 -0.76424,-23.22928 -1.12952,-2.8382 -4.45269,-14.04697 -5.77841,-17.65624 l -9.24877,-15.49568 c -1.13678,-1.90459 -4.8219,-0.86756 -4.1299,6.04102 0.43954,4.38808 2.1464,10.25961 4.22112,13.68844 l 5.61865,14.3505 -1.97191,19.84144"
         style="display:inline;fill:#deaa87;stroke:#000000;stroke-width:1.4609834;stroke-linecap:round;stroke-linejoin:round;stroke-opacity:1" />
      <path
         sodipodi:nodetypes="cccssssc"
         inkscape:connector-curvature="0"
         id="path4737"
         d="m 302.24716,198.93753 3.54285,-24.33318 -0.45312,-16.01484 c -1.52483,-4.33896 -0.79254,-13.60052 1.01636,-19.05033 0.86471,-2.60521 5.50802,-5.14152 6.10424,-0.93563 1.41457,9.97864 1.39837,10.55771 2.477,18.16999 1.59886,11.28378 1.29693,13.26094 2.27918,19.51705 0.9569,6.09463 0.65235,16.19777 1.40128,23.82128"
         style="display:inline;fill:#deaa87;stroke:#000000;stroke-width:1.4609834;stroke-linecap:round;stroke-linejoin:round;stroke-opacity:1" />
      <path
         sodipodi:nodetypes="cssssssssssssssssssssccssc"
         inkscape:connector-curvature="0"
         id="path3296-2"
         d="m 279.68742,200.86031 c -0.39162,-2.31495 -10.24539,-12.47363 -13.17461,-10.04044 -1.0205,0.84769 4.49467,7.59342 9.1508,14.85242 3.15271,4.91515 6.99968,8.73539 8.37271,11.54763 1.48677,3.04521 16.53247,28.84045 16.86881,31.16801 1.39887,9.68047 -5.40797,29.76363 0.21996,32.74635 8.46962,4.48877 21.27401,0.10034 20.45174,-7.44714 -1.05954,-9.72521 -2.86696,-24.427 -1.89219,-28.4016 1.62983,-6.64553 3.81124,-16.17523 5.65854,-27.34897 1.074,-6.49625 2.98489,-14.62003 2.64918,-17.25492 -0.32219,-2.52875 -1.20771,7.28558 -3.02024,7.48694 -0.78605,0.0873 -0.87774,-5.16825 -1.10554,-6.38832 -0.8858,-4.74417 1.13801,-18.14554 -0.47243,-24.10922 -1.93271,-7.15707 -4.17282,-12.22981 -5.35205,-14.509 -0.76128,-1.47139 1.9396,15.52525 1.95428,16.05706 0.0319,1.15477 0.13707,19.13076 0.30192,18.1923 0.38426,-2.18753 -0.0553,12.77184 -2.10276,13.3875 -1.00409,0.30193 -1.54573,-7.5286 -1.53582,-8.67647 0.0761,-8.81476 -0.69261,-19.33649 -1.14741,-25.53267 -0.51719,-7.04622 -2.01246,-14.98601 -2.43583,-19.81221 -0.90535,-10.32046 -1.79046,-18.64989 -3.43223,-16.86001 -2.419,2.63721 -1.42308,14.61882 -0.30871,17.40063 -1.00736,3.41633 -1.72542,14.08926 -0.83269,18.47624 -1.30563,7.34449 -1.42415,25.04424 -2.22475,25.60482 -4.01944,2.8144 -10.19464,9.44504 -12.72217,10.37926 -4.44613,1.64336 -11.32148,-10.17058 -13.86851,-10.91819 z"
         style="display:inline;fill:#e9c6af;stroke:none;stroke-width:1.4609834;stroke-linecap:round;stroke-linejoin:round" />
    </g>
  </g>
  <g
     inkscape:groupmode="layer"
     id="layer7"
     inkscape:label="枠面"
     style="display:inline"
     sodipodi:insensitive="true">
    <path
       style="display:inline;fill:#ffffff;stroke:none"
       d="M 0,0 V 320 H 370 V 0 L 360,10 V 310 H 10 V 10 H 360 L 370,0 Z"
       id="path21072"
       inkscape:connector-curvature="0"
       sodipodi:nodetypes="ccccccccccc" />
  </g>
</svg>
