<?xml version="1.0" encoding="UTF-8" standalone="no"?>
<!-- Created with Inkscape (http://www.inkscape.org/) -->

<svg
   xmlns:dc="http://purl.org/dc/elements/1.1/"
   xmlns:cc="http://creativecommons.org/ns#"
   xmlns:rdf="http://www.w3.org/1999/02/22-rdf-syntax-ns#"
   xmlns:svg="http://www.w3.org/2000/svg"
   xmlns="http://www.w3.org/2000/svg"
   xmlns:sodipodi="http://sodipodi.sourceforge.net/DTD/sodipodi-0.dtd"
   xmlns:inkscape="http://www.inkscape.org/namespaces/inkscape"
   width="370"
   height="320"
   id="svg2"
   version="1.1"
   inkscape:version="0.92.3 (2405546, 2018-03-11)"
   sodipodi:docname="[36]采配.svg"
   inkscape:export-filename="C:\Users\zhen-\Desktop\資料\臨時\HOSHI\36.png"
   inkscape:export-xdpi="96"
   inkscape:export-ydpi="96"
   enable-background="new">
  <defs
     id="defs4">
    <inkscape:perspective
       sodipodi:type="inkscape:persp3d"
       inkscape:vp_x="363.49708 : 943.81603 : 1"
       inkscape:vp_y="0 : 1000 : 0"
       inkscape:vp_z="744.09448 : 526.18109 : 1"
       inkscape:persp3d-origin="372.04724 : 350.78739 : 1"
       id="perspective5056" />
    <inkscape:perspective
       id="perspective5056-8"
       inkscape:persp3d-origin="372.04724 : 350.78739 : 1"
       inkscape:vp_z="744.09448 : 526.18109 : 1"
       inkscape:vp_y="0 : 1000 : 0"
       inkscape:vp_x="363.49708 : 943.81603 : 1"
       sodipodi:type="inkscape:persp3d" />
    <inkscape:perspective
       id="perspective5056-5"
       inkscape:persp3d-origin="372.04724 : 350.78739 : 1"
       inkscape:vp_z="744.09448 : 526.18109 : 1"
       inkscape:vp_y="0 : 1000 : 0"
       inkscape:vp_x="363.49708 : 943.81603 : 1"
       sodipodi:type="inkscape:persp3d" />
    <inkscape:perspective
       sodipodi:type="inkscape:persp3d"
       inkscape:vp_x="363.49708 : 943.81603 : 1"
       inkscape:vp_y="0 : 1000 : 0"
       inkscape:vp_z="744.09448 : 526.18109 : 1"
       inkscape:persp3d-origin="372.04724 : 350.78739 : 1"
       id="perspective5056-5-2" />
    <inkscape:perspective
       sodipodi:type="inkscape:persp3d"
       inkscape:vp_x="363.49708 : 943.81603 : 1"
       inkscape:vp_y="0 : 1000 : 0"
       inkscape:vp_z="744.09448 : 526.18109 : 1"
       inkscape:persp3d-origin="372.04724 : 350.78739 : 1"
       id="perspective5056-8-5" />
    <inkscape:perspective
       id="perspective5056-1"
       inkscape:persp3d-origin="372.04724 : 350.78739 : 1"
       inkscape:vp_z="744.09448 : 526.18109 : 1"
       inkscape:vp_y="0 : 1000 : 0"
       inkscape:vp_x="363.49708 : 943.81603 : 1"
       sodipodi:type="inkscape:persp3d" />
    <inkscape:perspective
       sodipodi:type="inkscape:persp3d"
       inkscape:vp_x="363.49708 : 943.81603 : 1"
       inkscape:vp_y="0 : 1000 : 0"
       inkscape:vp_z="744.09448 : 526.18109 : 1"
       inkscape:persp3d-origin="372.04724 : 350.78739 : 1"
       id="perspective5056-5-5" />
    <inkscape:perspective
       id="perspective5056-4"
       inkscape:persp3d-origin="372.04724 : 350.78739 : 1"
       inkscape:vp_z="744.09448 : 526.18109 : 1"
       inkscape:vp_y="0 : 1000 : 0"
       inkscape:vp_x="363.49708 : 943.81603 : 1"
       sodipodi:type="inkscape:persp3d" />
    <inkscape:perspective
       sodipodi:type="inkscape:persp3d"
       inkscape:vp_x="363.49708 : 943.81603 : 1"
       inkscape:vp_y="0 : 1000 : 0"
       inkscape:vp_z="744.09448 : 526.18109 : 1"
       inkscape:persp3d-origin="372.04724 : 350.78739 : 1"
       id="perspective5056-1-2" />
    <inkscape:perspective
       id="perspective5056-8-5-8"
       inkscape:persp3d-origin="372.04724 : 350.78739 : 1"
       inkscape:vp_z="744.09448 : 526.18109 : 1"
       inkscape:vp_y="0 : 1000 : 0"
       inkscape:vp_x="363.49708 : 943.81603 : 1"
       sodipodi:type="inkscape:persp3d" />
    <inkscape:perspective
       id="perspective5056-5-2-8"
       inkscape:persp3d-origin="372.04724 : 350.78739 : 1"
       inkscape:vp_z="744.09448 : 526.18109 : 1"
       inkscape:vp_y="0 : 1000 : 0"
       inkscape:vp_x="363.49708 : 943.81603 : 1"
       sodipodi:type="inkscape:persp3d" />
    <inkscape:perspective
       sodipodi:type="inkscape:persp3d"
       inkscape:vp_x="363.49708 : 943.81603 : 1"
       inkscape:vp_y="0 : 1000 : 0"
       inkscape:vp_z="744.09448 : 526.18109 : 1"
       inkscape:persp3d-origin="372.04724 : 350.78739 : 1"
       id="perspective5056-5-4" />
    <inkscape:perspective
       sodipodi:type="inkscape:persp3d"
       inkscape:vp_x="363.49708 : 943.81603 : 1"
       inkscape:vp_y="0 : 1000 : 0"
       inkscape:vp_z="744.09448 : 526.18109 : 1"
       inkscape:persp3d-origin="372.04724 : 350.78739 : 1"
       id="perspective5056-8-9" />
    <inkscape:perspective
       id="perspective5056-40"
       inkscape:persp3d-origin="372.04724 : 350.78739 : 1"
       inkscape:vp_z="744.09448 : 526.18109 : 1"
       inkscape:vp_y="0 : 1000 : 0"
       inkscape:vp_x="363.49708 : 943.81603 : 1"
       sodipodi:type="inkscape:persp3d" />
    <inkscape:perspective
       sodipodi:type="inkscape:persp3d"
       inkscape:vp_x="363.49708 : 943.81603 : 1"
       inkscape:vp_y="0 : 1000 : 0"
       inkscape:vp_z="744.09448 : 526.18109 : 1"
       inkscape:persp3d-origin="372.04724 : 350.78739 : 1"
       id="perspective5056-1-5" />
    <inkscape:perspective
       id="perspective5056-8-5-4"
       inkscape:persp3d-origin="372.04724 : 350.78739 : 1"
       inkscape:vp_z="744.09448 : 526.18109 : 1"
       inkscape:vp_y="0 : 1000 : 0"
       inkscape:vp_x="363.49708 : 943.81603 : 1"
       sodipodi:type="inkscape:persp3d" />
    <inkscape:perspective
       id="perspective5056-5-2-82"
       inkscape:persp3d-origin="372.04724 : 350.78739 : 1"
       inkscape:vp_z="744.09448 : 526.18109 : 1"
       inkscape:vp_y="0 : 1000 : 0"
       inkscape:vp_x="363.49708 : 943.81603 : 1"
       sodipodi:type="inkscape:persp3d" />
    <inkscape:perspective
       sodipodi:type="inkscape:persp3d"
       inkscape:vp_x="363.49708 : 943.81603 : 1"
       inkscape:vp_y="0 : 1000 : 0"
       inkscape:vp_z="744.09448 : 526.18109 : 1"
       inkscape:persp3d-origin="372.04724 : 350.78739 : 1"
       id="perspective5056-5-8" />
    <inkscape:perspective
       sodipodi:type="inkscape:persp3d"
       inkscape:vp_x="363.49708 : 943.81603 : 1"
       inkscape:vp_y="0 : 1000 : 0"
       inkscape:vp_z="744.09448 : 526.18109 : 1"
       inkscape:persp3d-origin="372.04724 : 350.78739 : 1"
       id="perspective5056-8-4" />
    <inkscape:perspective
       id="perspective5056-409"
       inkscape:persp3d-origin="372.04724 : 350.78739 : 1"
       inkscape:vp_z="744.09448 : 526.18109 : 1"
       inkscape:vp_y="0 : 1000 : 0"
       inkscape:vp_x="363.49708 : 943.81603 : 1"
       sodipodi:type="inkscape:persp3d" />
    <inkscape:perspective
       sodipodi:type="inkscape:persp3d"
       inkscape:vp_x="363.49708 : 943.81603 : 1"
       inkscape:vp_y="0 : 1000 : 0"
       inkscape:vp_z="744.09448 : 526.18109 : 1"
       inkscape:persp3d-origin="372.04724 : 350.78739 : 1"
       id="perspective5056-1-7" />
    <inkscape:perspective
       id="perspective5056-8-5-2"
       inkscape:persp3d-origin="372.04724 : 350.78739 : 1"
       inkscape:vp_z="744.09448 : 526.18109 : 1"
       inkscape:vp_y="0 : 1000 : 0"
       inkscape:vp_x="363.49708 : 943.81603 : 1"
       sodipodi:type="inkscape:persp3d" />
    <inkscape:perspective
       id="perspective5056-5-2-89"
       inkscape:persp3d-origin="372.04724 : 350.78739 : 1"
       inkscape:vp_z="744.09448 : 526.18109 : 1"
       inkscape:vp_y="0 : 1000 : 0"
       inkscape:vp_x="363.49708 : 943.81603 : 1"
       sodipodi:type="inkscape:persp3d" />
    <inkscape:perspective
       sodipodi:type="inkscape:persp3d"
       inkscape:vp_x="363.49708 : 943.81603 : 1"
       inkscape:vp_y="0 : 1000 : 0"
       inkscape:vp_z="744.09448 : 526.18109 : 1"
       inkscape:persp3d-origin="372.04724 : 350.78739 : 1"
       id="perspective5056-5-1" />
    <inkscape:perspective
       sodipodi:type="inkscape:persp3d"
       inkscape:vp_x="363.49708 : 943.81603 : 1"
       inkscape:vp_y="0 : 1000 : 0"
       inkscape:vp_z="744.09448 : 526.18109 : 1"
       inkscape:persp3d-origin="372.04724 : 350.78739 : 1"
       id="perspective5056-8-6" />
    <inkscape:perspective
       id="perspective5056-7"
       inkscape:persp3d-origin="372.04724 : 350.78739 : 1"
       inkscape:vp_z="744.09448 : 526.18109 : 1"
       inkscape:vp_y="0 : 1000 : 0"
       inkscape:vp_x="363.49708 : 943.81603 : 1"
       sodipodi:type="inkscape:persp3d" />
    <inkscape:perspective
       sodipodi:type="inkscape:persp3d"
       inkscape:vp_x="363.49708 : 943.81603 : 1"
       inkscape:vp_y="0 : 1000 : 0"
       inkscape:vp_z="744.09448 : 526.18109 : 1"
       inkscape:persp3d-origin="372.04724 : 350.78739 : 1"
       id="perspective5056-1-1" />
    <inkscape:perspective
       id="perspective5056-8-5-82"
       inkscape:persp3d-origin="372.04724 : 350.78739 : 1"
       inkscape:vp_z="744.09448 : 526.18109 : 1"
       inkscape:vp_y="0 : 1000 : 0"
       inkscape:vp_x="363.49708 : 943.81603 : 1"
       sodipodi:type="inkscape:persp3d" />
    <inkscape:perspective
       id="perspective5056-5-2-1"
       inkscape:persp3d-origin="372.04724 : 350.78739 : 1"
       inkscape:vp_z="744.09448 : 526.18109 : 1"
       inkscape:vp_y="0 : 1000 : 0"
       inkscape:vp_x="363.49708 : 943.81603 : 1"
       sodipodi:type="inkscape:persp3d" />
    <inkscape:perspective
       sodipodi:type="inkscape:persp3d"
       inkscape:vp_x="363.49708 : 943.81603 : 1"
       inkscape:vp_y="0 : 1000 : 0"
       inkscape:vp_z="744.09448 : 526.18109 : 1"
       inkscape:persp3d-origin="372.04724 : 350.78739 : 1"
       id="perspective5056-5-46" />
    <inkscape:perspective
       sodipodi:type="inkscape:persp3d"
       inkscape:vp_x="363.49708 : 943.81603 : 1"
       inkscape:vp_y="0 : 1000 : 0"
       inkscape:vp_z="744.09448 : 526.18109 : 1"
       inkscape:persp3d-origin="372.04724 : 350.78739 : 1"
       id="perspective5056-8-92" />
    <inkscape:perspective
       id="perspective5056-3"
       inkscape:persp3d-origin="372.04724 : 350.78739 : 1"
       inkscape:vp_z="744.09448 : 526.18109 : 1"
       inkscape:vp_y="0 : 1000 : 0"
       inkscape:vp_x="363.49708 : 943.81603 : 1"
       sodipodi:type="inkscape:persp3d" />
  </defs>
  <sodipodi:namedview
     id="base"
     pagecolor="#ffffff"
     bordercolor="#666666"
     borderopacity="1.0"
     inkscape:pageopacity="0.0"
     inkscape:pageshadow="2"
     inkscape:zoom="0.90953936"
     inkscape:cx="41.027297"
     inkscape:cy="78.378826"
     inkscape:document-units="px"
     inkscape:current-layer="layer5"
     showgrid="false"
     inkscape:window-width="1760"
     inkscape:window-height="990"
     inkscape:window-x="-6"
     inkscape:window-y="-4"
     inkscape:window-maximized="0"
     showguides="true"
     inkscape:guide-bbox="true"
     inkscape:snap-grids="false"
     inkscape:snap-to-guides="false"
     showborder="true"
     inkscape:showpageshadow="false"
     fit-margin-top="0"
     fit-margin-left="0"
     fit-margin-right="0"
     fit-margin-bottom="0"
     inkscape:snap-page="false"
     inkscape:snap-global="false" />
  <metadata
     id="metadata7">
    <rdf:RDF>
      <cc:Work
         rdf:about="">
        <dc:format>image/svg+xml</dc:format>
        <dc:type
           rdf:resource="http://purl.org/dc/dcmitype/StillImage" />
        <dc:title />
      </cc:Work>
    </rdf:RDF>
  </metadata>
  <g
     inkscape:groupmode="layer"
     id="layer2"
     inkscape:label="補助線"
     style="display:none"
     sodipodi:insensitive="true">
    <path
       style="fill:none;stroke:#0000ff;stroke-width:1px;stroke-linecap:butt;stroke-linejoin:miter;stroke-opacity:1"
       d="M 10,310 360,10"
       id="path3025"
       inkscape:connector-curvature="0"
       sodipodi:nodetypes="cc" />
    <path
       style="fill:none;stroke:#0000ff;stroke-width:1px;stroke-linecap:butt;stroke-linejoin:miter;stroke-opacity:1"
       d="M 10,10 360,310"
       id="path3027"
       inkscape:connector-curvature="0"
       sodipodi:nodetypes="cc" />
    <path
       style="display:inline;fill:none;stroke:#ff0000;stroke-width:1px;stroke-linecap:butt;stroke-linejoin:miter;stroke-opacity:1"
       d="M 10,0 V 320"
       id="path3006"
       inkscape:connector-curvature="0"
       sodipodi:nodetypes="cc" />
    <path
       style="display:inline;fill:none;stroke:#ff0000;stroke-width:1px;stroke-linecap:butt;stroke-linejoin:miter;stroke-opacity:1"
       d="M 360,0 V 320"
       id="path3010"
       inkscape:connector-curvature="0"
       sodipodi:nodetypes="cc" />
    <path
       style="display:inline;fill:none;stroke:#ff0000;stroke-width:1px;stroke-linecap:butt;stroke-linejoin:miter;stroke-opacity:1"
       d="M 0,9.9999681 370,10"
       id="path3016"
       inkscape:connector-curvature="0" />
    <path
       transform="translate(84.715796,27.711696)"
       style="display:inline;fill:none;stroke:#ff0000;stroke-width:1px;stroke-linecap:butt;stroke-linejoin:miter;stroke-opacity:1"
       d="M -84.715796,282.2883 H 285.2842"
       id="path3018"
       inkscape:connector-curvature="0"
       sodipodi:nodetypes="cc" />
  </g>
  <g
     sodipodi:insensitive="true"
     style="display:none"
     inkscape:label="吹き出し.old.01"
     id="g24535"
     inkscape:groupmode="layer">
    <path
       sodipodi:nodetypes="sscssss"
       inkscape:connector-curvature="0"
       id="path24529"
       d="m 358.62908,59.518391 c 0,26.334084 -43.88051,47.682089 -98.00984,47.682089 -8.0614,0 -20.48043,14.12973 -36.79332,17.96136 7.25383,-8.85102 2.01318,-20.95938 -3.32652,-22.12634 -34.12526,-7.457921 -57.88998,-24.137346 -57.88998,-43.517109 0,-26.334066 43.88049,-47.682047 98.00982,-47.682047 54.12933,0 98.00984,21.347981 98.00984,47.682047 z"
       style="display:inline;opacity:1;fill:#fefefe;fill-opacity:1;stroke:#000000;stroke-width:1.5;stroke-linecap:round;stroke-linejoin:round;stroke-miterlimit:4;stroke-dasharray:none;stroke-dashoffset:0;stroke-opacity:1" />
    <text
       id="text24533"
       y="65.754387"
       x="182.31003"
       style="font-style:normal;font-variant:normal;font-weight:normal;font-stretch:normal;font-size:23.86597824px;line-height:1.25;font-family:HGMinchoB;-inkscape-font-specification:HGMinchoB;letter-spacing:0px;word-spacing:0px;display:inline;fill:#000000;fill-opacity:1;stroke:none;stroke-width:1.11871767"
       xml:space="preserve"><tspan
         style="stroke-width:1.11871767"
         id="tspan24531"
         y="65.754387"
         x="182.31003"
         sodipodi:role="line">納品は目前だ！</tspan></text>
  </g>
  <g
     inkscape:groupmode="layer"
     id="layer5"
     inkscape:label="吹き出し"
     style="display:inline"
     sodipodi:insensitive="true">
    <path
       style="display:inline;opacity:1;fill:#fefefe;fill-opacity:1;stroke:#000000;stroke-width:1.5;stroke-linecap:round;stroke-linejoin:round;stroke-miterlimit:4;stroke-dasharray:none;stroke-dashoffset:0;stroke-opacity:1"
       d="m 357.52962,84.256188 c -31.75727,-15.88134 -51.6674,13.826464 -33.38293,29.489152 -49.39129,-16.172748 -77.82606,0.0208 -64.07718,14.34484 -31.3217,-12.0125 -66.29143,-7.98765 -101.11158,6.41706 28.76712,-16.58582 46.60076,-34.961631 13.15389,-30.45042 24.61912,-21.144552 9.6842,-58.407456 -8.81225,-62.121386 19.90505,-2.982021 52.34336,-13.546878 41.79706,-27.900175 15.14775,12.711994 54.60205,10.809035 82.35366,-1.242603 -2.78907,13.016085 17.34619,23.78067 61.11783,6.263026 -22.21954,12.658021 -23.15562,40.417549 8.9615,65.200506 z"
       id="path7611-9"
       inkscape:connector-curvature="0"
       sodipodi:nodetypes="cccccccccc" />
    <text
       xml:space="preserve"
       style="font-style:normal;font-variant:normal;font-weight:normal;font-stretch:normal;font-size:31.95570374px;line-height:1;font-family:HGMinchoB;-inkscape-font-specification:HGMinchoB;letter-spacing:0px;word-spacing:0px;fill:#000000;fill-opacity:1;stroke:none;stroke-width:1.49792349"
       x="195.71378"
       y="62.520432"
       id="text24541"><tspan
         sodipodi:role="line"
         id="tspan24539"
         x="195.71378"
         y="62.520432"
         style="stroke-width:1.49792349">納品は</tspan><tspan
         sodipodi:role="line"
         x="195.71378"
         y="96.778374"
         id="tspan24543"
         style="stroke-width:1.49792349">目前だ！</tspan></text>
  </g>
  <g
     inkscape:label="豚"
     id="g6521"
     inkscape:groupmode="layer"
     style="display:inline"
     sodipodi:insensitive="true">
    <path
       style="display:inline;opacity:0.95;fill:#241c1c;stroke:#000000;stroke-width:1.5;stroke-linecap:round;stroke-linejoin:round"
       d="m 167.16259,83.458609 -34.1332,0.0147 c -8.80613,0.0038 -7.93097,14.345343 -8.24883,21.643011 -0.17774,4.0805 4.54064,8.82761 4.03267,3.03655 -0.53698,-6.12177 -3.94206,-22.688225 3.1786,-22.425561 l 34.97155,2.389648 z"
       id="path6942-7"
       inkscape:connector-curvature="0"
       sodipodi:nodetypes="csssscc" />
    <path
       style="display:inline;fill:#dbdbe3;stroke:none;stroke-width:1.5;stroke-linecap:round;stroke-linejoin:round;stroke-opacity:1"
       d="M 127.72446,178.36568 83.382507,318.953 56.33199,315.56043 58.256575,171.76422 Z"
       id="path6563-3"
       inkscape:connector-curvature="0"
       sodipodi:nodetypes="ccccc" />
    <path
       style="display:inline;fill:#550000;stroke:#000000;stroke-width:1.5;stroke-linecap:round;stroke-linejoin:round;stroke-opacity:1"
       d="m 89.237985,198.10945 c -3.763122,25.5841 -6.566469,101.48465 -6.279429,101.59399 L 72.930735,337.32797 61.60557,296.8417 c -0.308286,0.0353 9.275074,-69.57235 18.549465,-100.34891 z"
       id="path6770-0-4-6-9"
       inkscape:connector-curvature="0"
       sodipodi:nodetypes="cccccc" />
    <path
       style="display:inline;fill:#1c1f24;stroke:#000000;stroke-width:1.5;stroke-linecap:round;stroke-linejoin:round;stroke-opacity:1"
       d="m 60.388985,158.06278 c -11.54544,5.73995 -32.94691,16.97054 -39.32667,20.03857 -7.08533,3.40734 -8.51914,27.07245 -9.18546,37.32006 -1.24531,19.15194 11.127966,83.26706 11.744756,100.64816 0.55855,15.7398 -4.016985,99.05928 -0.811595,108.07918 L 72.972875,300.05609 53.973685,227.59037 Z"
       id="path7821"
       inkscape:connector-curvature="0"
       sodipodi:nodetypes="cssscccc" />
    <path
       style="fill:#deaa87;stroke:#000000;stroke-width:1.5;stroke-linecap:round;stroke-linejoin:round;stroke-opacity:1"
       d="m 69.193672,147.58082 c 0.129369,-9.23293 -0.720327,-19.51655 -1.171657,-27.76868 l 65.272565,3.42445 c -2.0545,7.96057 -9.80756,17.9876 -9.73035,25.8622 l -40.456865,41.39893 z"
       id="path5738"
       inkscape:connector-curvature="0"
       sodipodi:nodetypes="cccccc" />
    <path
       style="display:inline;fill:#550000;fill-opacity:1;stroke:#000000;stroke-width:1.5;stroke-linecap:round;stroke-linejoin:round;stroke-opacity:1"
       d="m 102.11867,181.48923 c -4.026342,5.84386 -8.287824,12.15799 -12.679955,18.73343 -3.96358,-2.09102 -8.87901,-2.42855 -10.60401,-0.32649 -2.63457,-8.17617 -3.66571,-15.14977 -4.89089,-22.26889 l 2.31212,-8.03527 18.571327,0.39593 z"
       id="path7817-5"
       inkscape:connector-curvature="0"
       sodipodi:nodetypes="ccccccc" />
    <path
       style="display:inline;fill:#dbdbe3;stroke:#000000;stroke-width:1.5;stroke-linecap:round;stroke-linejoin:round;stroke-opacity:1"
       d="m 87.038505,169.20465 c -5.64216,2.66863 -13.97004,15.07139 -21.17795,28.40156 -0.32031,-18.70012 0.01193,-40.15615 0.66007,-45.83799 l 2.63393,-12.43173 c -2.73647,12.30117 14.16577,28.5858 17.88395,29.86816 z"
       id="path7817"
       inkscape:connector-curvature="0"
       sodipodi:nodetypes="ccccc" />
    <path
       style="display:inline;fill:#dbdbe3;stroke:#000000;stroke-width:1.5;stroke-linecap:round;stroke-linejoin:round;stroke-opacity:1"
       d="m 137.86196,154.3157 c -3.51536,6.76503 -20.95486,39.16397 -25.10144,45.20937 -6.97138,-11.1981 -19.042701,-25.67052 -23.752145,-30.05442 22.728865,-9.42207 49.019945,-25.94765 46.727485,-29.17775 2.31767,3.66381 2.07036,10.24524 2.1261,14.0228 z"
       id="path6563"
       inkscape:connector-curvature="0"
       sodipodi:nodetypes="ccccc" />
    <path
       style="display:inline;fill:#1c1f24;stroke:#000000;stroke-width:1.5;stroke-linecap:round;stroke-linejoin:round;stroke-opacity:1"
       d="m 66.332975,190.94296 c -0.51826,-24.00306 -0.528722,-38.29543 0.535168,-43.36358 -2.99149,2.92286 -5.291738,9.11992 -7.047858,12.14483 -1.82773,4.46715 -8.50927,20.47303 -10.90312,34.28433 l 8.79055,17.35425 z"
       id="path7823"
       inkscape:connector-curvature="0"
       sodipodi:nodetypes="cccccc" />
    <path
       style="display:inline;fill:#1c1f24;fill-opacity:1;stroke:#000000;stroke-width:1.5;stroke-linecap:round;stroke-linejoin:round;stroke-opacity:1"
       d="m 23.976166,423.76003 c 1.07116,3.0143 7.9757,8.8873 11.36901,9.421 7.87279,1.2383 42.14698,6.13524 50.79033,-0.084 6.34781,-4.5675 9.83637,-9.201 9.50162,-14.0098 C 93.226106,384.45153 78.749995,314.42697 75.854946,307.59402 64.108671,279.87021 63.155574,215.19121 66.332975,190.94296 l -19.99111,21.61766 c 5.58738,15.50042 15.515671,79.50748 25.894821,95.86758"
       id="path5730"
       inkscape:connector-curvature="0"
       sodipodi:nodetypes="ccscsccc" />
    <path
       style="display:inline;fill:#1c1f24;stroke:#000000;stroke-width:1.5;stroke-linecap:round;stroke-linejoin:round;stroke-opacity:1"
       d="m 182.19541,423.71989 c 4.43498,-8.6631 -5.29895,-94.83908 -9.22174,-120.82449 3.87689,-34.0593 18.76571,-49.39736 23.21121,-71.93365 73.91833,-19.94727 136.09778,-32.30796 200.99181,-46.61504 l -1.44138,-21.75898 -2.44432,-34.58362 c -70.46308,8.41646 -77.42405,6.49153 -196.75666,27.28839 10e-4,-8.70635 -41.29156,-1.26722 -52.32057,-3.64736 l -31.13239,65.07509 -43.740275,84.74338 z"
       id="path7827"
       inkscape:connector-curvature="0"
       sodipodi:nodetypes="ccccccccccc" />
    <path
       style="display:inline;fill:#1c1f24;fill-opacity:1;stroke:#000000;stroke-width:1.5;stroke-linecap:round;stroke-linejoin:round;stroke-opacity:1"
       d="m 120.42914,213.44516 c 3.44418,-2.4119 18.88246,-14.7788 22.28999,-16.6447 -0.42077,-11.4027 0.81481,-37.7885 3.05174,-44.96277 -2.36048,-2.86747 -4.59205,-5.383 -7.11097,-6.75167 1.29437,4.90513 -14.70161,30.82753 -24.25019,51.14068 z"
       id="path5734"
       inkscape:connector-curvature="0"
       sodipodi:nodetypes="cccccc" />
    <path
       sodipodi:nodetypes="cccscscc"
       inkscape:connector-curvature="0"
       id="path6571"
       d="m 70.023086,305.39261 c 14.85235,-21.4043 54.306864,-77.04467 67.057074,-90.01858 L 114.40971,196.2267 c -8.4068,17.85131 -39.272864,79.483 -50.386484,107.14919 -1.45629,3.6253 7.77985,79.40086 12.18518,117.48786 1.1212,9.6937 12.78073,12.09383 19.24773,13.57637 16.252554,3.72584 56.009284,4.38787 79.088964,-0.87396 l 17.75695,-10.6237"
       style="display:inline;fill:#1c1f24;fill-opacity:1;stroke:#000000;stroke-width:1.5;stroke-linecap:round;stroke-linejoin:round;stroke-opacity:1" />
    <path
       style="fill:#000000;stroke:none;stroke-linecap:round;stroke-linejoin:round"
       d="m 397.17669,184.34671 -1.44138,-21.75898 C 364.96,175.7432 270.82436,190.51846 247.10393,195.21155 c -11.15082,2.2062 28.39671,3.88183 23.08861,5.4973 -17.0069,5.17586 -78.75628,13.52847 -87.96805,21.00355 -11.97043,9.71365 -25.67086,29.64294 -26.02112,82.07542 -0.35027,52.43249 18.34173,129.77834 18.34173,129.77834 l 17.75695,-10.6237 C 198.38562,391.83693 176.90889,328.3597 172.97367,302.8954 l 23.21121,-71.93365 c 66.40081,-16.03066 132.92595,-31.91643 200.99181,-46.61504 z"
       id="path5789"
       inkscape:connector-curvature="0"
       sodipodi:nodetypes="ccssssccccc" />
    <path
       style="display:inline;fill:#deaa87;stroke:#000000;stroke-width:1.5;stroke-linecap:round;stroke-linejoin:round;stroke-opacity:1"
       d="m 112.98097,153.39826 c 13.56208,8.4832 19.99618,5.02984 24.79362,1.30122 3.9924,-3.1029 11.23807,-18.92956 14.21775,-23.93497 3.29294,-5.53164 8.39967,-20.70731 9.02242,-24.79882 0.85444,-5.61368 0.59494,-12.063263 1.25739,-18.261144 0.3252,-3.042579 2.34439,-10.207238 2.87634,-12.855792 0.44138,-2.197616 -0.22658,-6.299238 -0.94611,-9.871977 -1.24742,-6.193885 -6.01769,-17.254469 -7.6519,-21.734309 -3.5229,-9.657254 -21.21216,-20.782482 -33.36098,-23.074682 -16.68421,-3.147924 -37.811695,3.662358 -51.352745,17.01043 -10.26175,10.115508 -17.19008,30.011547 -16.92125,42.623174 0.21111,9.904244 13.4037,42.19575 13.9695,47.15725"
       id="path6535-7"
       inkscape:connector-curvature="0"
       sodipodi:nodetypes="cssssssssssc" />
    <path
       style="display:inline;fill:#e9c6af;stroke:none;stroke-width:1.5;stroke-linecap:round;stroke-linejoin:round"
       d="m 117.07987,149.77791 c -2.8673,-5.93515 -6.65044,-15.02723 -8.61981,-22.88367 -2.75463,-10.98876 -4.26995,-16.75568 -4.16176,-25.26527 0.0626,-4.925153 2.78482,-13.614277 6.1937,-16.040598 3.47637,-2.474359 9.44395,4.045763 13.83343,5.022184 2.58327,0.574644 11.44926,-5.954689 14.2417,-8.449334 1.52187,-1.359566 4.61009,-0.798234 5.09064,0.618809 0.28631,0.844256 -0.34769,1.88964 0.94092,3.517186 1.84724,2.333103 5.50511,6.747018 7.59534,6.882605 2.01101,0.130448 5.83575,-1.271103 6.67044,1.593659 0.60438,2.074298 0.85342,8.999349 -0.16083,14.397099 -1.50758,8.02365 -5.37389,14.62748 -9.16895,21.63136 -3.50808,6.47423 -8.61957,16.88799 -11.83795,21.45909 -6.06473,8.61383 -17.3864,4.20378 -20.61687,-2.48312 z m 41.02817,-74.865798 c 3.74785,2.680625 2.90121,9.012047 1.47996,10.008858 l -13.10516,0.488992 c 0.0177,-1.549014 1.06944,-6.722349 3.28321,-7.520183 0.1287,-6.595652 -9.07945,-6.274038 -17.86903,-5.036632 2.14931,4.616792 0.26764,8.913006 -0.65233,9.623633 l -17.71588,-4.805403 c -2.34449,-4.288137 3.78866,-9.793499 5.77366,-11.35727 l -6.63891,-1.995977 c -3.96923,-1.214457 -6.96146,-5.466011 -9.16553,-14.817654 -2.34095,-9.932358 -5.642825,-15.483853 -1.74973,-22.651099 6.28991,-11.579839 32.58043,-5.175642 46.15632,7.551995 6.17576,5.789888 10.35155,13.637016 12.40312,28.284997 0.71763,5.1239 1.99671,8.035949 -2.1997,12.225743 z"
       id="path6535-7-3"
       inkscape:connector-curvature="0"
       sodipodi:nodetypes="ssssssssssssssccccccccsssssc" />
    <path
       style="display:inline;fill:#ffffff;stroke:none;stroke-width:1.5;stroke-linecap:round;stroke-linejoin:round"
       d="m 113.34894,76.352481 6.952,-1.969606 10.27647,2.399324 1.69698,4.784378 -8.64731,0.468342 z"
       id="path40845"
       inkscape:connector-curvature="0"
       sodipodi:nodetypes="cccccc" />
    <path
       sodipodi:nodetypes="cssc"
       inkscape:connector-curvature="0"
       id="path6545-6"
       d="m 132.27439,81.566577 c -1.30025,0.55507 -3.1665,2.370797 -4.92203,1.967481 -1.39224,-0.319853 -7.19989,-1.392713 -8.78541,-2.139011 -0.93624,-0.440682 -3.69075,-3.263802 -5.21801,-5.042566"
       style="display:inline;fill:#ffffff;fill-opacity:1;stroke:#916f6f;stroke-width:1.5;stroke-linecap:round;stroke-linejoin:round;stroke-opacity:1" />
    <path
       sodipodi:nodetypes="sccs"
       inkscape:connector-curvature="0"
       id="path6527-2"
       d="m 127.2025,82.143734 c -3.05923,-0.490175 -4.36444,-4.494005 -2.7649,-7.052025 l 6.06396,2.125077 c 0.16627,2.573138 -0.4714,5.380019 -3.29906,4.926948 z"
       style="display:inline;fill:#2b0000;stroke:none;stroke-width:1.5;stroke-linecap:round;stroke-linejoin:round" />
    <path
       style="display:inline;fill:#ffffff;stroke:none;stroke-width:1.5;stroke-linecap:round;stroke-linejoin:round"
       d="m 146.37695,84.993693 3.26303,-3.489652 8.74476,1.594712 1.7755,3.821755 -7.22761,1.401449 z"
       id="path40847"
       inkscape:connector-curvature="0"
       sodipodi:nodetypes="cccccc" />
    <path
       sodipodi:nodetypes="cssc"
       inkscape:connector-curvature="0"
       id="path6549-2"
       d="m 160.16024,86.920508 c -0.85231,0.573922 -2.71659,2.73421 -3.85623,2.539489 -1.22304,-0.208974 -4.42095,-0.868001 -6.70641,-1.598427 -1.40527,-0.449112 -2.36886,-2.243851 -3.22065,-2.867877"
       style="display:inline;fill:#ffffff;fill-opacity:1;stroke:#916f6f;stroke-width:1.5;stroke-linecap:round;stroke-linejoin:round;stroke-opacity:1" />
    <path
       sodipodi:nodetypes="cscc"
       inkscape:connector-curvature="0"
       id="path6529-8"
       d="m 158.4911,83.353702 c -0.27209,2.017548 -1.85584,4.834144 -3.92406,4.434677 -2.45213,-0.473528 -3.03999,-4.128669 -2.12872,-6.204881 z"
       style="display:inline;fill:#2b0000;stroke:none;stroke-width:1.5;stroke-linecap:round;stroke-linejoin:round" />
    <path
       style="display:inline;fill:none;stroke:#000000;stroke-width:1.5;stroke-linecap:round;stroke-linejoin:round;stroke-opacity:1"
       d="m 74.538125,114.80676 c 0.57531,4.23636 1.13232,9.43764 2.7231,12.67697 1.3712,2.79217 13.935649,12.79321 25.511115,20.70263"
       id="path40803"
       inkscape:connector-curvature="0"
       sodipodi:nodetypes="csc" />
    <path
       sodipodi:nodetypes="cc"
       inkscape:connector-curvature="0"
       id="path6537-8"
       d="m 138.77871,71.201564 c 0.51657,2.219518 -0.82869,3.931691 -1.41778,5.191669"
       style="display:inline;fill:none;stroke:#000000;stroke-width:1.5;stroke-linecap:round;stroke-linejoin:round;stroke-opacity:1" />
    <path
       sodipodi:nodetypes="ssssss"
       inkscape:connector-curvature="0"
       id="path6539-1"
       d="m 136.32309,76.570256 c -6.16423,-0.589698 -9.84666,-6.921876 -15.80156,-8.490583 -4.91699,-1.295193 -14.47695,-3.160147 -12.6988,-3.465429 3.90506,-0.670747 9.14888,0.445859 14.08969,1.757076 1.81105,0.4807 6.74438,3.234631 9.91321,4.860259 3.61738,1.855638 10.40498,5.903874 4.49746,5.338677 z"
       style="display:inline;fill:#000000;stroke:none;stroke-width:1.5;stroke-linecap:round;stroke-linejoin:round" />
    <path
       sodipodi:nodetypes="sssss"
       inkscape:connector-curvature="0"
       id="path6541-5"
       d="m 164.89916,75.980726 c -0.9179,-0.66143 -6.12624,-1.301076 -9.59907,-0.738143 -3.22073,0.522074 -10.90228,2.171658 -8.36879,3.361292 4.47436,2.100991 5.3099,-0.880392 10.17932,-1.823592 2.55635,-0.49516 8.99773,0.07176 7.78854,-0.799557 z"
       style="display:inline;fill:#000000;stroke:none;stroke-width:1.5;stroke-linecap:round;stroke-linejoin:round" />
    <path
       sodipodi:nodetypes="cssc"
       inkscape:connector-curvature="0"
       id="path6547-1"
       d="m 132.59773,82.720846 c -0.51621,-2.006872 -1.01236,-5.151576 -2.02032,-5.938647 -1.4074,-1.098976 -7.94587,-2.701923 -10.27647,-2.399324 -1.71285,0.22239 -5.85768,1.208117 -9.19802,2.717828"
       style="display:inline;fill:none;stroke:#000000;stroke-width:1.5;stroke-linecap:round;stroke-linejoin:round;stroke-opacity:1" />
    <path
       sodipodi:nodetypes="cssc"
       inkscape:connector-curvature="0"
       id="path6551-4"
       d="m 160.50701,88.098754 c -0.50681,-1.610019 -1.14424,-4.218079 -2.12227,-5.000001 -0.68181,-0.545093 -6.81322,-2.171279 -8.74476,-1.594712 -1.04888,0.313091 -2.93784,2.712233 -4.28468,4.284382"
       style="display:inline;fill:none;stroke:#000000;stroke-width:1.5;stroke-linecap:round;stroke-linejoin:round;stroke-opacity:1" />
    <path
       style="display:inline;fill:#deaa87;stroke:none;stroke-width:1.5;stroke-linecap:round;stroke-linejoin:round"
       d="m 129.00153,109.45037 c 4.21364,-2.85191 12.41336,-7.25388 16.28786,-6.57151 3.74734,0.65998 2.12566,5.73658 1.1964,7.47317 -0.46655,0.87187 2.57716,12.52529 0.50966,15.08321 -1.49515,1.84979 -1.12849,0.47959 -3.57146,-1.72106 l -17.72119,15.96437 c -5.04479,0.0391 -6.98879,-4.92131 -7.6168,-10.65821 -0.50817,-4.64223 3.51661,-19.60871 7.30876,-21.72467 0.25962,2.35553 1.82916,3.35784 3.60677,2.1547 z"
       id="path40867"
       inkscape:connector-curvature="0"
       sodipodi:nodetypes="ssssccscs" />
    <path
       sodipodi:nodetypes="cc"
       inkscape:connector-curvature="0"
       id="path6543-8"
       d="m 125.63832,107.00929 c -0.70152,1.72298 -0.12649,3.70364 1.34738,4.08988"
       style="display:inline;fill:none;stroke:#000000;stroke-width:1.5;stroke-linecap:round;stroke-linejoin:round;stroke-opacity:1" />
    <path
       sodipodi:nodetypes="cc"
       inkscape:connector-curvature="0"
       id="path6559-6"
       d="m 133.2589,110.11215 c 2.03152,-1.82014 4.86404,-3.37901 7.85154,-4.24446"
       style="display:inline;fill:none;stroke:#000000;stroke-width:1.5;stroke-linecap:round;stroke-linejoin:round;stroke-opacity:1" />
    <path
       sodipodi:nodetypes="cc"
       inkscape:connector-curvature="0"
       id="path6561-2"
       d="m 143.35211,110.48631 c 0.37284,-0.55748 2.07777,-3.06627 2.23663,-3.53494"
       style="display:inline;fill:none;stroke:#000000;stroke-width:1.5;stroke-linecap:round;stroke-linejoin:round;stroke-opacity:1" />
    <path
       style="display:inline;fill:#deaa87;stroke:none;stroke-width:1.5;stroke-linecap:round;stroke-linejoin:round"
       d="m 125.13735,144.23195 c 0.59613,-1.42211 2.41032,-0.42456 5.13901,-0.30869 2.83478,0.12037 5.89354,-0.42566 5.44439,0.76437 -0.82025,2.17326 -2.07572,3.64148 -4.85704,3.48242 -3.03787,-0.17373 -6.35134,-2.44717 -5.72636,-3.9381 z"
       id="path40869"
       inkscape:connector-curvature="0"
       sodipodi:nodetypes="sssss" />
    <path
       sodipodi:nodetypes="csssc"
       inkscape:connector-curvature="0"
       id="path6531-9"
       d="m 147.25522,73.471975 c -1.90815,3.863684 -3.63647,7.708644 -3.52458,10.435693 0.12422,3.028792 4.21891,12.728809 4.91229,14.216388 0.39681,0.851376 0.82915,2.085844 0.76424,3.984994 -0.073,2.13531 -2.60794,7.28189 -4.24242,9.7438"
       style="display:inline;fill:none;stroke:#000000;stroke-width:1.5;stroke-linecap:round;stroke-linejoin:round;stroke-opacity:1" />
    <path
       style="display:inline;opacity:0.95;fill:#241c1c;stroke:#000000;stroke-width:1.5;stroke-linecap:round;stroke-linejoin:round"
       d="m 105.0398,72.621736 -34.910635,1.326618 c -8.799781,0.334395 -7.833784,18.815592 -8.151652,26.113256 -0.177737,4.0805 5.998336,11.06273 5.490364,5.27167 -0.536979,-6.121769 -5.49739,-29.380924 1.623728,-29.130926 l 34.553745,1.21306 z"
       id="path6942"
       inkscape:connector-curvature="0"
       sodipodi:nodetypes="csssscc" />
    <path
       style="display:inline;opacity:0.8;fill:#280b0b;stroke:#000000;stroke-width:1.5;stroke-linecap:round;stroke-linejoin:round"
       d="m 167.16259,83.458609 c -3.15416,-3.008889 -13.50369,-6.925885 -16.46117,-6.5736 -2.3692,0.282211 -6.31008,-0.336604 -8.83531,-1.388301 -9.10296,-3.791164 -25.06436,-4.991569 -36.82631,-2.874972 -0.62619,0.907215 -1.47622,3.417771 -1.39445,4.793678 7.24403,4.654864 18.5188,9.462361 22.12916,10.205734 4.93179,1.01546 11.53672,-2.519415 14.33008,-3.581894 1.54467,-0.587522 6.162,0.818326 7.04028,1.777325 1.9323,2.109828 4.75008,6.435405 7.51448,6.807371 3.99363,0.537364 8.94813,-2.007083 12.30403,-4.506994 0.29635,-1.292562 0.5766,-2.86899 0.19921,-4.658347 z"
       id="path6944"
       inkscape:connector-curvature="0"
       sodipodi:nodetypes="cssccsssscc" />
    <path
       style="display:inline;fill:#800000;stroke:#000000;stroke-width:1.5;stroke-linecap:round;stroke-linejoin:round"
       d="m 127.92896,118.2069 c 5.54455,-4.28821 19.47973,-1.03841 17.60793,2.75465 -2.53683,5.14071 -3.60594,10.769 -5.75137,16.7246 -1.2199,3.38637 -13.88216,3.68013 -17.39324,-1.15289 -1.13052,-1.55616 -2.7856,-7.6358 -0.8567,-11.98102 1.12253,-2.52871 3.55376,-4.14915 6.39338,-6.34534 z"
       id="path40869-1"
       inkscape:connector-curvature="0"
       sodipodi:nodetypes="ssssss" />
    <path
       sodipodi:nodetypes="sssssssss"
       inkscape:connector-curvature="0"
       id="path6533-0"
       d="m 140.56072,114.49757 c -2.91429,-0.2323 -3.39336,-2.85112 -4.431,-2.59681 -4.37929,1.07311 -18.04851,5.36144 -19.20458,7.23497 -1.16795,1.89281 -0.26892,6.39858 1.04892,6.23546 5.8564,-0.72506 15.70319,-1.92761 19.86078,-1.5857 5.88264,0.48359 7.82033,5.26582 10.53859,5.20918 0.60179,-0.013 3.14612,-2.96588 2.52705,-5.62214 -0.47213,-2.02579 -5.27295,-9.02829 -6.42593,-9.49804 -2.92678,-1.19244 -1.63584,0.80466 -3.91383,0.62308 z"
       style="display:inline;fill:#000000;stroke:none;stroke-width:1.5;stroke-linecap:round;stroke-linejoin:round" />
    <path
       style="display:inline;opacity:0.2;fill:#000000;stroke:none;stroke-width:1.5;stroke-linecap:round;stroke-linejoin:round"
       d="M 102.938,75.889187 68.714525,74.604593 c -8.799935,-0.33031 -7.833784,18.815596 -8.151652,26.113257 -0.177737,4.0805 5.998336,11.06273 5.490364,5.27167 -0.536979,-6.121772 -5.456777,-29.930469 1.623728,-29.130927 l 33.866585,3.824272 z"
       id="path6942-8"
       inkscape:connector-curvature="0"
       sodipodi:nodetypes="csssscc" />
    <path
       style="display:inline;opacity:0.2;fill:#000000;stroke:none;stroke-width:1.5;stroke-linecap:round;stroke-linejoin:round"
       d="m 162.99931,87.000924 c -3.15416,-3.008889 -11.44221,-7.200749 -14.39969,-6.848464 -2.3692,0.282211 -6.31008,-0.336604 -8.83531,-1.388301 -9.10296,-3.791164 -25.06436,-4.991569 -36.82631,-2.874972 -0.62619,0.907215 -1.47622,3.417771 -1.39445,4.793678 7.24403,4.654864 18.5188,9.462356 22.12916,10.205736 4.93179,1.01546 11.53672,-2.519417 14.33008,-3.581896 1.54467,-0.587522 6.162,0.818326 7.04028,1.777326 1.9323,2.10983 4.75008,6.4354 7.51448,6.80737 3.99363,0.53736 6.88665,-1.732216 10.24255,-4.232126 0.29635,-1.29257 0.5766,-2.868994 0.19921,-4.658351 z"
       id="path6944-1"
       inkscape:connector-curvature="0"
       sodipodi:nodetypes="cssccsssscc" />
    <path
       sodipodi:nodetypes="csssc"
       inkscape:connector-curvature="0"
       id="path6553-2"
       d="m 73.647065,112.36004 c -1.94208,-2.89586 -10.04084,0.9149 -12.37307,-5.82546 -1.48003,-4.2774 -4.50703,-9.525433 -5.44026,-17.890379 -0.92543,-8.294988 1.66081,-12.570157 4.2404,-13.875988 3.5758,-1.810111 8.14923,-0.22687 11.13976,2.389971"
       style="display:inline;fill:#deaa87;stroke:#000000;stroke-width:1.5;stroke-linecap:round;stroke-linejoin:round;stroke-opacity:1" />
    <path
       sodipodi:nodetypes="csssssssc"
       inkscape:connector-curvature="0"
       id="path6555-5"
       d="m 63.469985,98.33387 c 1.21904,-1.886567 4.60261,-3.667393 5.42469,-6.443444 0.77897,-2.63063 1.85167,-5.280077 1.1352,-7.138789 -1.08378,-2.811451 -4.428,-7.626105 -6.92682,-7.470249 -2.00385,0.125019 -3.79623,1.878182 -4.49109,4.694291 -1.70317,6.902445 1.6889,16.297634 6.1877,17.111483 2.52161,0.456208 5.93087,5.216358 6.95783,3.813478 1.00663,-1.37512 -1.5513,-4.190681 -1.79385,-5.576512 -0.14613,-0.834987 2.26841,-3.531112 2.61397,-5.623653"
       style="display:inline;opacity:0.95;fill:none;stroke:#000000;stroke-width:1.5;stroke-linecap:round;stroke-linejoin:round;stroke-opacity:1" />
  </g>
  <g
     inkscape:groupmode="layer"
     id="layer7"
     inkscape:label="枠面"
     style="display:inline"
     sodipodi:insensitive="true">
    <path
       style="display:inline;fill:#ffffff;stroke:none"
       d="M 0,0 V 320 H 370 V 0 L 360,10 V 310 H 10 V 10 H 360 L 370,0 Z"
       id="path21072"
       inkscape:connector-curvature="0"
       sodipodi:nodetypes="ccccccccccc" />
  </g>
</svg>
