<?xml version="1.0" encoding="UTF-8" standalone="no"?>
<!-- Created with Inkscape (http://www.inkscape.org/) -->

<svg
   xmlns:dc="http://purl.org/dc/elements/1.1/"
   xmlns:cc="http://creativecommons.org/ns#"
   xmlns:rdf="http://www.w3.org/1999/02/22-rdf-syntax-ns#"
   xmlns:svg="http://www.w3.org/2000/svg"
   xmlns="http://www.w3.org/2000/svg"
   xmlns:sodipodi="http://sodipodi.sourceforge.net/DTD/sodipodi-0.dtd"
   xmlns:inkscape="http://www.inkscape.org/namespaces/inkscape"
   width="370"
   height="320"
   id="svg2"
   version="1.1"
   inkscape:version="0.48.4 r9939"
   sodipodi:docname="[08.主張].svg"
   inkscape:export-filename="C:\Users\root\Desktop\資料\作業\SANARO\ORG\[01.行動]03..png"
   inkscape:export-xdpi="90"
   inkscape:export-ydpi="90"
   enable-background="new">
  <defs
     id="defs4">
    <inkscape:perspective
       sodipodi:type="inkscape:persp3d"
       inkscape:vp_x="363.49708 : 943.81603 : 1"
       inkscape:vp_y="0 : 1000 : 0"
       inkscape:vp_z="744.09448 : 526.18109 : 1"
       inkscape:persp3d-origin="372.04724 : 350.78739 : 1"
       id="perspective5056" />
    <inkscape:perspective
       id="perspective5056-8"
       inkscape:persp3d-origin="372.04724 : 350.78739 : 1"
       inkscape:vp_z="744.09448 : 526.18109 : 1"
       inkscape:vp_y="0 : 1000 : 0"
       inkscape:vp_x="363.49708 : 943.81603 : 1"
       sodipodi:type="inkscape:persp3d" />
    <inkscape:perspective
       id="perspective5056-5"
       inkscape:persp3d-origin="372.04724 : 350.78739 : 1"
       inkscape:vp_z="744.09448 : 526.18109 : 1"
       inkscape:vp_y="0 : 1000 : 0"
       inkscape:vp_x="363.49708 : 943.81603 : 1"
       sodipodi:type="inkscape:persp3d" />
    <inkscape:perspective
       sodipodi:type="inkscape:persp3d"
       inkscape:vp_x="363.49708 : 943.81603 : 1"
       inkscape:vp_y="0 : 1000 : 0"
       inkscape:vp_z="744.09448 : 526.18109 : 1"
       inkscape:persp3d-origin="372.04724 : 350.78739 : 1"
       id="perspective5056-5-2" />
    <inkscape:perspective
       sodipodi:type="inkscape:persp3d"
       inkscape:vp_x="363.49708 : 943.81603 : 1"
       inkscape:vp_y="0 : 1000 : 0"
       inkscape:vp_z="744.09448 : 526.18109 : 1"
       inkscape:persp3d-origin="372.04724 : 350.78739 : 1"
       id="perspective5056-8-5" />
    <inkscape:perspective
       id="perspective5056-1"
       inkscape:persp3d-origin="372.04724 : 350.78739 : 1"
       inkscape:vp_z="744.09448 : 526.18109 : 1"
       inkscape:vp_y="0 : 1000 : 0"
       inkscape:vp_x="363.49708 : 943.81603 : 1"
       sodipodi:type="inkscape:persp3d" />
    <inkscape:perspective
       sodipodi:type="inkscape:persp3d"
       inkscape:vp_x="363.49708 : 943.81603 : 1"
       inkscape:vp_y="0 : 1000 : 0"
       inkscape:vp_z="744.09448 : 526.18109 : 1"
       inkscape:persp3d-origin="372.04724 : 350.78739 : 1"
       id="perspective5056-5-5" />
    <inkscape:perspective
       id="perspective5056-4"
       inkscape:persp3d-origin="372.04724 : 350.78739 : 1"
       inkscape:vp_z="744.09448 : 526.18109 : 1"
       inkscape:vp_y="0 : 1000 : 0"
       inkscape:vp_x="363.49708 : 943.81603 : 1"
       sodipodi:type="inkscape:persp3d" />
    <inkscape:perspective
       sodipodi:type="inkscape:persp3d"
       inkscape:vp_x="363.49708 : 943.81603 : 1"
       inkscape:vp_y="0 : 1000 : 0"
       inkscape:vp_z="744.09448 : 526.18109 : 1"
       inkscape:persp3d-origin="372.04724 : 350.78739 : 1"
       id="perspective5056-1-2" />
    <inkscape:perspective
       id="perspective5056-8-5-8"
       inkscape:persp3d-origin="372.04724 : 350.78739 : 1"
       inkscape:vp_z="744.09448 : 526.18109 : 1"
       inkscape:vp_y="0 : 1000 : 0"
       inkscape:vp_x="363.49708 : 943.81603 : 1"
       sodipodi:type="inkscape:persp3d" />
    <inkscape:perspective
       id="perspective5056-5-2-8"
       inkscape:persp3d-origin="372.04724 : 350.78739 : 1"
       inkscape:vp_z="744.09448 : 526.18109 : 1"
       inkscape:vp_y="0 : 1000 : 0"
       inkscape:vp_x="363.49708 : 943.81603 : 1"
       sodipodi:type="inkscape:persp3d" />
    <inkscape:perspective
       sodipodi:type="inkscape:persp3d"
       inkscape:vp_x="363.49708 : 943.81603 : 1"
       inkscape:vp_y="0 : 1000 : 0"
       inkscape:vp_z="744.09448 : 526.18109 : 1"
       inkscape:persp3d-origin="372.04724 : 350.78739 : 1"
       id="perspective5056-5-4" />
    <inkscape:perspective
       sodipodi:type="inkscape:persp3d"
       inkscape:vp_x="363.49708 : 943.81603 : 1"
       inkscape:vp_y="0 : 1000 : 0"
       inkscape:vp_z="744.09448 : 526.18109 : 1"
       inkscape:persp3d-origin="372.04724 : 350.78739 : 1"
       id="perspective5056-8-9" />
    <inkscape:perspective
       id="perspective5056-40"
       inkscape:persp3d-origin="372.04724 : 350.78739 : 1"
       inkscape:vp_z="744.09448 : 526.18109 : 1"
       inkscape:vp_y="0 : 1000 : 0"
       inkscape:vp_x="363.49708 : 943.81603 : 1"
       sodipodi:type="inkscape:persp3d" />
    <inkscape:perspective
       sodipodi:type="inkscape:persp3d"
       inkscape:vp_x="363.49708 : 943.81603 : 1"
       inkscape:vp_y="0 : 1000 : 0"
       inkscape:vp_z="744.09448 : 526.18109 : 1"
       inkscape:persp3d-origin="372.04724 : 350.78739 : 1"
       id="perspective5056-1-5" />
    <inkscape:perspective
       id="perspective5056-8-5-4"
       inkscape:persp3d-origin="372.04724 : 350.78739 : 1"
       inkscape:vp_z="744.09448 : 526.18109 : 1"
       inkscape:vp_y="0 : 1000 : 0"
       inkscape:vp_x="363.49708 : 943.81603 : 1"
       sodipodi:type="inkscape:persp3d" />
    <inkscape:perspective
       id="perspective5056-5-2-82"
       inkscape:persp3d-origin="372.04724 : 350.78739 : 1"
       inkscape:vp_z="744.09448 : 526.18109 : 1"
       inkscape:vp_y="0 : 1000 : 0"
       inkscape:vp_x="363.49708 : 943.81603 : 1"
       sodipodi:type="inkscape:persp3d" />
    <inkscape:perspective
       sodipodi:type="inkscape:persp3d"
       inkscape:vp_x="363.49708 : 943.81603 : 1"
       inkscape:vp_y="0 : 1000 : 0"
       inkscape:vp_z="744.09448 : 526.18109 : 1"
       inkscape:persp3d-origin="372.04724 : 350.78739 : 1"
       id="perspective5056-5-8" />
    <inkscape:perspective
       sodipodi:type="inkscape:persp3d"
       inkscape:vp_x="363.49708 : 943.81603 : 1"
       inkscape:vp_y="0 : 1000 : 0"
       inkscape:vp_z="744.09448 : 526.18109 : 1"
       inkscape:persp3d-origin="372.04724 : 350.78739 : 1"
       id="perspective5056-8-4" />
    <inkscape:perspective
       id="perspective5056-409"
       inkscape:persp3d-origin="372.04724 : 350.78739 : 1"
       inkscape:vp_z="744.09448 : 526.18109 : 1"
       inkscape:vp_y="0 : 1000 : 0"
       inkscape:vp_x="363.49708 : 943.81603 : 1"
       sodipodi:type="inkscape:persp3d" />
    <inkscape:perspective
       sodipodi:type="inkscape:persp3d"
       inkscape:vp_x="363.49708 : 943.81603 : 1"
       inkscape:vp_y="0 : 1000 : 0"
       inkscape:vp_z="744.09448 : 526.18109 : 1"
       inkscape:persp3d-origin="372.04724 : 350.78739 : 1"
       id="perspective5056-1-7" />
    <inkscape:perspective
       id="perspective5056-8-5-2"
       inkscape:persp3d-origin="372.04724 : 350.78739 : 1"
       inkscape:vp_z="744.09448 : 526.18109 : 1"
       inkscape:vp_y="0 : 1000 : 0"
       inkscape:vp_x="363.49708 : 943.81603 : 1"
       sodipodi:type="inkscape:persp3d" />
    <inkscape:perspective
       id="perspective5056-5-2-89"
       inkscape:persp3d-origin="372.04724 : 350.78739 : 1"
       inkscape:vp_z="744.09448 : 526.18109 : 1"
       inkscape:vp_y="0 : 1000 : 0"
       inkscape:vp_x="363.49708 : 943.81603 : 1"
       sodipodi:type="inkscape:persp3d" />
    <inkscape:perspective
       sodipodi:type="inkscape:persp3d"
       inkscape:vp_x="363.49708 : 943.81603 : 1"
       inkscape:vp_y="0 : 1000 : 0"
       inkscape:vp_z="744.09448 : 526.18109 : 1"
       inkscape:persp3d-origin="372.04724 : 350.78739 : 1"
       id="perspective5056-5-1" />
    <inkscape:perspective
       sodipodi:type="inkscape:persp3d"
       inkscape:vp_x="363.49708 : 943.81603 : 1"
       inkscape:vp_y="0 : 1000 : 0"
       inkscape:vp_z="744.09448 : 526.18109 : 1"
       inkscape:persp3d-origin="372.04724 : 350.78739 : 1"
       id="perspective5056-8-6" />
    <inkscape:perspective
       id="perspective5056-7"
       inkscape:persp3d-origin="372.04724 : 350.78739 : 1"
       inkscape:vp_z="744.09448 : 526.18109 : 1"
       inkscape:vp_y="0 : 1000 : 0"
       inkscape:vp_x="363.49708 : 943.81603 : 1"
       sodipodi:type="inkscape:persp3d" />
    <inkscape:perspective
       sodipodi:type="inkscape:persp3d"
       inkscape:vp_x="363.49708 : 943.81603 : 1"
       inkscape:vp_y="0 : 1000 : 0"
       inkscape:vp_z="744.09448 : 526.18109 : 1"
       inkscape:persp3d-origin="372.04724 : 350.78739 : 1"
       id="perspective5056-1-1" />
    <inkscape:perspective
       id="perspective5056-8-5-82"
       inkscape:persp3d-origin="372.04724 : 350.78739 : 1"
       inkscape:vp_z="744.09448 : 526.18109 : 1"
       inkscape:vp_y="0 : 1000 : 0"
       inkscape:vp_x="363.49708 : 943.81603 : 1"
       sodipodi:type="inkscape:persp3d" />
    <inkscape:perspective
       id="perspective5056-5-2-1"
       inkscape:persp3d-origin="372.04724 : 350.78739 : 1"
       inkscape:vp_z="744.09448 : 526.18109 : 1"
       inkscape:vp_y="0 : 1000 : 0"
       inkscape:vp_x="363.49708 : 943.81603 : 1"
       sodipodi:type="inkscape:persp3d" />
    <inkscape:perspective
       sodipodi:type="inkscape:persp3d"
       inkscape:vp_x="363.49708 : 943.81603 : 1"
       inkscape:vp_y="0 : 1000 : 0"
       inkscape:vp_z="744.09448 : 526.18109 : 1"
       inkscape:persp3d-origin="372.04724 : 350.78739 : 1"
       id="perspective5056-5-46" />
    <inkscape:perspective
       sodipodi:type="inkscape:persp3d"
       inkscape:vp_x="363.49708 : 943.81603 : 1"
       inkscape:vp_y="0 : 1000 : 0"
       inkscape:vp_z="744.09448 : 526.18109 : 1"
       inkscape:persp3d-origin="372.04724 : 350.78739 : 1"
       id="perspective5056-8-92" />
    <inkscape:perspective
       id="perspective5056-3"
       inkscape:persp3d-origin="372.04724 : 350.78739 : 1"
       inkscape:vp_z="744.09448 : 526.18109 : 1"
       inkscape:vp_y="0 : 1000 : 0"
       inkscape:vp_x="363.49708 : 943.81603 : 1"
       sodipodi:type="inkscape:persp3d" />
  </defs>
  <sodipodi:namedview
     id="base"
     pagecolor="#ffffff"
     bordercolor="#666666"
     borderopacity="1.0"
     inkscape:pageopacity="0.0"
     inkscape:pageshadow="2"
     inkscape:zoom="0.75581749"
     inkscape:cx="223.98256"
     inkscape:cy="167.24059"
     inkscape:document-units="px"
     inkscape:current-layer="layer3"
     showgrid="false"
     inkscape:window-width="1158"
     inkscape:window-height="696"
     inkscape:window-x="194"
     inkscape:window-y="-4"
     inkscape:window-maximized="0"
     showguides="true"
     inkscape:guide-bbox="true"
     inkscape:snap-grids="false"
     inkscape:snap-to-guides="false"
     showborder="true"
     inkscape:showpageshadow="false"
     fit-margin-top="0"
     fit-margin-left="0"
     fit-margin-right="0"
     fit-margin-bottom="0"
     inkscape:snap-page="false" />
  <metadata
     id="metadata7">
    <rdf:RDF>
      <cc:Work
         rdf:about="">
        <dc:format>image/svg+xml</dc:format>
        <dc:type
           rdf:resource="http://purl.org/dc/dcmitype/StillImage" />
        <dc:title></dc:title>
      </cc:Work>
    </rdf:RDF>
  </metadata>
  <g
     inkscape:groupmode="layer"
     id="layer2"
     inkscape:label="補助線"
     style="display:none"
     sodipodi:insensitive="true">
    <path
       style="fill:none;stroke:#0000ff;stroke-width:1px;stroke-linecap:butt;stroke-linejoin:miter;stroke-opacity:1"
       d="M 10,310 360,10"
       id="path3025"
       inkscape:connector-curvature="0"
       sodipodi:nodetypes="cc" />
    <path
       style="fill:none;stroke:#0000ff;stroke-width:1px;stroke-linecap:butt;stroke-linejoin:miter;stroke-opacity:1"
       d="M 10,10 360,310"
       id="path3027"
       inkscape:connector-curvature="0"
       sodipodi:nodetypes="cc" />
    <path
       style="fill:none;stroke:#ff0000;stroke-width:1px;stroke-linecap:butt;stroke-linejoin:miter;stroke-opacity:1;display:inline"
       d="m 10,0 0,320"
       id="path3006"
       inkscape:connector-curvature="0"
       sodipodi:nodetypes="cc" />
    <path
       style="fill:none;stroke:#ff0000;stroke-width:1px;stroke-linecap:butt;stroke-linejoin:miter;stroke-opacity:1;display:inline"
       d="m 360,0 0,320"
       id="path3010"
       inkscape:connector-curvature="0"
       sodipodi:nodetypes="cc" />
    <path
       style="fill:none;stroke:#ff0000;stroke-width:1px;stroke-linecap:butt;stroke-linejoin:miter;stroke-opacity:1;display:inline"
       d="M 0,9.9999681 370,10"
       id="path3016"
       inkscape:connector-curvature="0" />
    <path
       transform="translate(84.715796,27.711696)"
       style="fill:none;stroke:#ff0000;stroke-width:1px;stroke-linecap:butt;stroke-linejoin:miter;stroke-opacity:1;display:inline"
       d="m -84.715796,282.2883 369.999996,0"
       id="path3018"
       inkscape:connector-curvature="0"
       sodipodi:nodetypes="cc" />
  </g>
  <g
     inkscape:groupmode="layer"
     id="layer3"
     inkscape:label="レイヤー"
     style="display:inline">
    <path
       style="fill:#deaa87;stroke:#000000;stroke-width:1.5"
       d="M 181.21132,168.70875 78.165945,164.72938 c 4.842645,29.93983 3.079285,54.96004 -5.615624,71.80177 l 109.966379,96.05744 49.08778,-66.19931 c -14.5508,-39.48238 -57.24575,-68.09709 -50.39316,-97.68053 z"
       id="path4893"
       inkscape:connector-curvature="0"
       sodipodi:nodetypes="cccccc" />
    <path
       style="fill:#dbdee3;stroke:none;display:inline;stroke-width:1.5"
       d="M 226.66735,273.60003 109.19712,303.23943 244.21701,503.6172 z"
       id="path4684-5-8"
       inkscape:connector-curvature="0"
       sodipodi:nodetypes="cccc" />
    <path
       style="fill:#550000;stroke:#000000;stroke-width:1.5;stroke-linecap:butt;stroke-linejoin:miter;stroke-opacity:1;display:inline"
       d="m 198.41117,321.0663 c 19.31937,54.3996 28.97667,104.48088 41.06963,158.63241 -1.51452,13.8083 -10.8959,49.80872 -22.40717,64.67965 -16.73113,-14.15785 -32.64142,-48.16632 -32.64142,-48.16632 0.059,-57.42266 7.84242,-110.45126 -3.67906,-170.76904 z"
       id="path6770-0-0"
       inkscape:connector-curvature="0"
       sodipodi:nodetypes="cccccc" />
    <path
       style="fill:#550000;stroke:#000000;stroke-width:1.5;stroke-linecap:butt;stroke-linejoin:miter;stroke-opacity:1;display:inline"
       d="m 199.0176,274.44041 c -4.90458,5.20848 -17.32261,7.79564 -37.44125,4.11305 l -5.08354,12.84554 c 4.94744,11.27926 18.48875,30.07019 24.51005,37.3968 5.69179,0.24286 12.95519,1.03459 18.95421,-3.77137 0.82934,-8.86814 6.84766,-29.85097 5.56695,-38.1392 z"
       id="path6768-9-9"
       inkscape:connector-curvature="0"
       sodipodi:nodetypes="ccccccc" />
    <path
       style="fill:#dbdbe3;stroke:#000000;stroke-width:1.5;stroke-linecap:butt;stroke-linejoin:miter;stroke-opacity:1;display:inline"
       d="m 187.98959,277.34794 c 11.72525,1.08222 22.95064,18.60996 30.45616,32.61997 -1.73704,-23.52816 -9.3077,-61.25085 -20.30462,-92.68511 -2.94739,-8.425 -9.62196,-19.29773 -12.98788,-26.1495 3.95459,11.03256 14.48905,31.26245 15.44581,47.98454 0.64794,11.32467 -4.67848,30.63244 -12.60947,38.2301 z"
       id="path6762-7-0"
       inkscape:connector-curvature="0"
       sodipodi:nodetypes="ccscsc" />
    <path
       style="fill:#dbdbe3;stroke:#000000;stroke-width:1.5;stroke-linecap:butt;stroke-linejoin:miter;stroke-opacity:1;display:inline"
       d="m 70.776451,221.38905 c 1.012394,-7.41083 6.791949,-16.64285 9.538175,-22.68615 1.866504,11.92481 10.089048,40.63842 40.788834,59.20492 14.36701,8.68883 36.1303,14.09584 60.94571,20.78027 -16.34434,13.57987 -22.62446,30.84027 -35.17216,53.58638 C 104.98317,288.17332 88.758981,255.53436 70.776451,221.38905 z"
       id="path6657-6-0"
       inkscape:connector-curvature="0"
       sodipodi:nodetypes="ccsccc" />
    <path
       style="fill:#1c1f24;stroke:#000000;stroke-width:1.5;stroke-linecap:butt;stroke-linejoin:miter;stroke-opacity:1;display:inline"
       d="m 57.544445,226.55171 c -19.365296,13.1395 -82.257544,68.9365 -86.093724,80.52453 -4.969414,15.0112 52.567545,141.12329 51.649182,170.00324 -0.959962,30.18917 -2.313633,124.89347 -5.797301,181.48094 10.016062,11.14227 4.363663,4.74153 14.787524,12.45938 4.162237,-17.71276 5.809967,-38.23137 10.879104,-52.1387 -0.617391,17.50571 -0.185331,57.10426 1.449472,57.37753 43.817757,30.91441 149.363698,28.84766 157.385308,28.99353 10.67612,0.19405 28.11768,-13.32677 29.92209,-28.92739 7.08992,-61.29691 0.57477,-179.77872 -1.88903,-185.56342 -20.78011,-48.7893 -63.97903,-130.77326 -83.6594,-159.95874 -23.92603,-35.48166 -77.381662,-111.6292 -70.280694,-129.42659 -3.974057,5.19363 -15.038584,16.94562 -18.58253,24.59011 4.260357,2.8329 6.855183,19.56386 8.500297,25.77005 4.936102,18.62145 8.433152,39.55451 9.730951,59.18272 l 32.836496,5.58405"
       id="path6659-6-9"
       inkscape:connector-curvature="0"
       sodipodi:nodetypes="cssccccssssccscc" />
    <path
       style="fill:none;stroke:#000000;stroke-width:1.5;stroke-linecap:butt;stroke-linejoin:miter;stroke-opacity:1;display:inline"
       d="M 121.5654,294.00239 93.954575,340.66128 C 137.8249,370.11669 190.76129,430.71936 226.66876,492.4906"
       id="path6655-8-7"
       inkscape:connector-curvature="0"
       sodipodi:nodetypes="ccc" />
    <path
       style="fill:#1c1f24;stroke:#000000;stroke-width:1.5;stroke-linecap:butt;stroke-linejoin:miter;stroke-opacity:1;display:inline"
       d="M 84.763965,483.82763 C 69.271824,433.92554 62.671806,398.97897 41.852491,355.28542 26.187087,322.40839 -6.985982,301.70691 -20.060306,305.48618 c -21.228638,6.13635 -23.457742,27.24215 -20.884586,68.2996 1.847918,29.4855 36.3445027,103.48845 49.9223045,165.57599"
       id="path6661-0-2"
       inkscape:connector-curvature="0"
       sodipodi:nodetypes="csssc" />
    <path
       style="fill:#1c1f24;stroke:#000000;stroke-width:1.5;stroke-linecap:butt;stroke-linejoin:miter;stroke-opacity:1;display:inline"
       d="m 325.15498,460.32467 c -12.59164,-2.53202 -58.71485,-153.72105 -68.38415,-180.11726 -13.81661,-37.71792 8.90468,-66.70165 23.11571,-71.37582 12.46038,-4.09836 26.45544,11.99383 34.45079,37.11159 14.23367,44.7157 48.21546,117.76963 71.72194,172.72531"
       id="path10001-9-9-6-2"
       inkscape:connector-curvature="0"
       sodipodi:nodetypes="csssc" />
    <path
       style="fill:#1c1f24;stroke:#000000;stroke-width:1.5;stroke-linecap:butt;stroke-linejoin:miter;stroke-opacity:1;display:inline"
       d="m 236.95242,281.32301 4.40806,-28.55616 c -10.64209,-15.86275 -36.44719,-39.67472 -40.38912,-45.80968 -4.10583,-5.63562 -9.24722,-10.8012 -11.62121,-13.00231 15.68872,35.56618 25.5786,70.21919 29.29817,120.73311 3.42315,46.48842 1.62022,107.02591 -5.69834,180.37638 -1.1857,11.88379 3.85293,116.31024 -0.0274,172.05236 -0.5387,7.73928 8.38782,20.97938 19.76974,26.35133 8.68503,4.09913 48.24535,-37.67573 62.20957,-65.41685 4.10489,-76.51957 -5.61676,-167.60968 -2.16594,-192.72108 4.29828,-31.27847 19.6097,-78.41425 19.53152,-120.5822 -0.0807,-43.5151 -14.3555,-101.72701 -25.58935,-107.5494 -14.09851,-6.35999 -74.51537,-7.54924 -92.88044,-9.1555"
       id="path6764-3-06"
       inkscape:connector-curvature="0"
       sodipodi:nodetypes="ccccsssscsscc" />
    <path
       style="fill:none;stroke:#000000;stroke-width:1.5;stroke-linecap:butt;stroke-linejoin:miter;stroke-opacity:1;display:inline"
       d="m 213.55477,273.89652 41.36721,12.87408 c -7.35871,56.55773 -25.08743,151.19001 -37.51617,207.74773"
       id="path6766-7-1"
       inkscape:connector-curvature="0"
       sodipodi:nodetypes="ccc" />
    <g
       id="g9921-2-0-0-4-1"
       transform="matrix(-1.0773661,0.40224328,0.39048414,1.0458704,2278.3448,-772.76107)"
       style="stroke:#000000;stroke-width:1.32383323;display:inline" />
    <g
       id="g4656-2-7-5-6"
       transform="matrix(-1.1126439,0.29075892,0.28225891,1.080117,2387.0259,-620.98292)"
       style="stroke:#000000;stroke-width:1.32383323;display:inline" />
    <g
       id="g4658-5-7-8-8"
       transform="matrix(-1.1126439,0.29075892,0.28225891,1.080117,2632.8622,-672.81727)"
       style="stroke:#000000;stroke-width:1.32383323;display:inline" />
    <g
       transform="matrix(1.3500363,-0.50404688,0.50404688,1.3500363,662.63547,249.40091)"
       id="g4678-0-3-6-5"
       inkscape:label="駅員: 左手"
       style="stroke-width:1.04089856;display:inline">
      <g
         id="g4680-9-3-1-7"
         transform="matrix(-0.7980275,0,0,0.77469807,1298.4706,-272.34221)"
         style="stroke:#000000;stroke-width:1.32383323;display:inline" />
    </g>
    <g
       id="g4682-4-5-5-6"
       transform="matrix(-1.0773661,0.40224328,0.39048414,1.0458704,2278.3449,-772.76107)"
       style="stroke:#000000;stroke-width:1.32383323;display:inline" />
    <g
       id="g9921-2-0-1-6-2"
       transform="matrix(1.2203295,1.5569628,-1.5114467,1.1846544,191.85283,-2664.1047)"
       style="stroke:#000000;stroke-width:0.76959163;display:inline" />
    <g
       id="g4656-2-4-2-7"
       transform="matrix(1.3721285,1.4249914,-1.3833334,1.3320158,-103.82915,-2538.8522)"
       style="stroke:#000000;stroke-width:0.76959163;display:inline" />
    <g
       id="g4658-5-1-5-7"
       transform="matrix(1.3721285,1.4249914,-1.3833334,1.3320158,-418.13034,-2835.4897)"
       style="stroke:#000000;stroke-width:0.76959163;display:inline" />
    <g
       transform="matrix(-1.5291821,-1.951014,-1.951014,1.5291821,1646.1074,285.69059)"
       id="g4678-0-2-3-9"
       inkscape:label="駅員: 左手"
       style="stroke-width:0.6051116;display:inline">
      <g
         id="g4680-9-9-5-3"
         transform="matrix(-0.7980275,0,0,0.77469807,1298.4706,-272.34221)"
         style="stroke:#000000;stroke-width:0.76959163;display:inline" />
    </g>
    <g
       id="g4682-4-0-6-1"
       transform="matrix(1.2203295,1.5569628,-1.5114467,1.1846544,191.85274,-2664.1047)"
       style="stroke:#000000;stroke-width:0.76959163;display:inline" />
    <path
       style="fill:#e9c6af;stroke:none;display:inline;stroke-width:1.5"
       d="m 104.24789,206.59004 c 9.0209,8.36035 50.6999,35.36658 82.88119,47.064 9.61149,3.49364 34.33701,-0.41637 40.19871,-12.56154 5.30835,-10.99865 10.44408,-25.07722 13.69796,-33.88052 3.95604,-10.70294 15.90176,-34.25086 15.8578,-50.81014 -0.0166,-6.26741 -0.74675,-26.17136 -0.49646,-35.75006 0.17046,-6.52161 2.7917,-18.77549 3.28216,-24.526941 C 260.3922,87.64891 256.613,78.272321 255.39395,70.684342 253.16413,56.804826 249.63517,40.017257 245.71826,30.768919 236.07911,8.009734 216.94792,-8.7485635 191.97612,-17.121868 155.77748,-29.25972 100.98294,-18.133156 78.363395,5.4573489 63.775371,20.671578 50.449693,37.185389 45.105972,62.554784 c -2.855183,13.555036 -0.03611,67.100106 6.259699,77.664746 4.277399,7.17782 27.361994,47.05641 29.140553,54.22312 z"
       id="path6635-6-9-1-1-7-5-8-0"
       inkscape:connector-curvature="0"
       sodipodi:nodetypes="csssssssssssscc" />
    <path
       style="fill:#deaa87;stroke:none;display:inline;stroke-width:1.5"
       d="m 222.27134,179.27338 c 1.52892,0.83736 6.37011,0.86631 8.34053,-2.64004 2.41297,-4.29387 1.52542,-7.55838 0.75248,-10.2013 -4.22172,-14.43526 -12.13331,-37.63444 -12.34675,-41.30597 -0.10427,-1.7936 0.8178,-14.96973 8.45856,-15.58581 -1.47904,3.01901 -5.8378,10.32139 -3.21413,13.84037 l 27.49492,-12.89238 2.40459,2.16187 c -0.16125,2.12406 -3.78733,17.93277 -9.7629,20.69461 -4.36984,2.01969 -13.74479,-0.95419 -18.64595,-3.69704 -1.46986,2.52455 3.48344,22.01437 9.35127,36.00126 1.44439,3.44292 2.11825,9.95939 -1.66988,13.3325 -2.27356,2.02446 -5.81501,6.04682 -9.53418,11.56447 1.40024,-5.04466 1.38149,-8.65571 -0.84917,-8.02546 -1.85611,0.52443 -4.7313,2.5049 -5.46194,6.48854 -2.52347,-2.91778 -9.07196,-1.97611 -8.7167,-3.93647 0.35313,-1.94871 7.51313,-4.57576 13.39925,-5.79915 z"
       id="path5573-3-9-8-0-5"
       inkscape:connector-curvature="0"
       sodipodi:nodetypes="csssccccscsscscsc" />
    <path
       sodipodi:nodetypes="ccccccccc"
       inkscape:connector-curvature="0"
       id="path3337-0-4-0-1-8-6-9-1"
       d="m 231.53475,115.79855 -7.60605,7.60522 11.10036,4.10853 6.20157,-0.99986 5.8685,-2.78548 5.57865,-12.27477 -3.54277,-1.83393 -6.8908,1.20699 z"
       style="fill:#fefefe;fill-opacity:1;stroke:none;display:inline;stroke-width:1.5" />
    <path
       style="fill:#deaa87;stroke:none;display:inline;stroke-width:1.5"
       d="m 227.37911,241.20519 c -4.42775,8.27365 -27.77776,17.50482 -40.19504,12.56754 -24.23316,-9.63543 -60.25362,-29.17042 -82.66266,-46.67743 L 80.519402,194.55636 C 78.548689,190.19181 57.404884,149.89244 51.401687,140.27174 43.638772,127.83092 42.646578,78.514573 45.15337,62.665184 48.978622,38.479721 66.554224,17.357761 78.329184,5.5373349 90.886698,-7.06867 105.7109,-13.007197 127.69216,-18.529535 117.07858,-12.19491 100.9375,-2.1836545 98.293865,10.662049 c -6.481348,31.493647 16.225145,72.00853 28.151815,84.38675 8.38081,8.698121 26.77106,17.892551 29.41944,20.064191 l 27.62556,1.454 c -7.68555,-0.65734 -17.41845,1.34894 -21.55798,4.97826 -5.23615,4.59078 -4.91234,12.43784 -3.6726,13.97958 l 36.15451,-5.94735 c 0.82241,-6.22803 -2.41651,-9.99222 -10.31977,-15.68648 10.46894,0.91843 15.41056,-5.57842 20.97858,-4.50582 1.82639,0.35182 -0.4238,12.55519 -0.27267,15.21669 0.32575,5.73679 -0.34698,16.39739 -6.02027,12.66952 -5.77287,-3.79331 -7.01006,9.30116 -17.38228,13.02812 -4.89458,1.75872 -19.86892,-2.26589 -23.07967,-1.60376 -4.82767,0.99558 -5.42887,7.19306 -6.46465,12.92406 -0.78606,4.34926 9.83658,30.95003 21.8704,54.78882 7.356,14.57209 13.8384,29.95041 22.6587,33.21104 9.04915,3.34522 23.20383,2.18086 30.9959,-8.41446 z"
       id="path3438-5-86-7-3-4-0-4-2"
       inkscape:connector-curvature="0"
       sodipodi:nodetypes="csccssscssccscccsssssssscc" />
    <path
       sodipodi:nodetypes="cccccccc"
       inkscape:connector-curvature="0"
       id="path3353-4-1-2-2-4-9-8-7"
       d="m 188.5533,126.71706 -10.37115,1.14183 -12.00483,2.0744 -8.5737,4.36636 12.76491,7.25525 15.38659,-3.24723 8.1626,-8.33627 z"
       style="fill:#fefefe;fill-opacity:1;stroke:none;display:inline;stroke-width:1.5" />
    <path
       style="fill:#2b0000;stroke:none;display:inline;stroke-width:1.5"
       d="m 175.22826,138.2103 c -4.83281,0.71013 -8.23735,-4.13999 -9.03221,-8.28315 l 16.33087,-2.97349 c 0.70664,5.93771 -2.47237,10.54747 -7.29866,11.25664 z"
       id="path3357-1-2-4-7-5-3-8-6"
       inkscape:connector-curvature="0"
       sodipodi:nodetypes="sccs" />
    <path
       style="fill:#2b0000;stroke:none;display:inline;stroke-width:1.5"
       d="m 241.93217,111.72871 c 0.47315,4.85281 -0.42073,10.29387 -4.22979,11.80356 -4.36858,1.73144 -9.02194,-0.96642 -9.6738,-3.73913 l 4.84333,-4.7113 z"
       id="path3357-0-8-6-7-0-2-0"
       inkscape:connector-curvature="0"
       sodipodi:nodetypes="csccc" />
    <path
       style="fill:none;stroke:#000000;stroke-width:1.5;stroke-linecap:butt;stroke-linejoin:miter;stroke-opacity:1;display:inline"
       d="m 222.558,107.23182 c -0.3962,5.13296 -3.74086,14.79211 -3.37863,18.34694 0.65119,6.3904 11.76938,37.3701 12.9986,40.57852 m -9.39189,12.78603 c -3.53445,1.47278 -11.42375,3.00008 -14.08467,6.03089"
       id="path6629-0-6-3-5-0-4-2"
       inkscape:connector-curvature="0"
       sodipodi:nodetypes="csccc" />
    <path
       style="fill:#000000;stroke:none;display:inline;stroke-width:1.5"
       d="m 225.57971,183.56427 c -1.85404,-0.94902 -2.77759,2.9409 -7.34761,3.8663 -6.18974,1.2532 -8.61558,-1.22059 -10.6461,-0.0779 -8.56956,4.82381 -28.68479,17.64729 -30.13055,22.19812 -1.46066,4.59729 0.14649,11.91871 2.80648,10.79448 8.57151,-3.62272 27.48567,-13.17512 36.31984,-14.95095 12.49965,-2.51267 17.71812,-0.66629 23.35023,-2.40437 1.24682,-0.38471 3.30891,-10.43195 0.88031,-12.22839 -2.27697,-3.74357 -12.41143,-5.75324 -15.2326,-7.19733 z"
       id="path6633-4-0-6-4-8-5-4"
       inkscape:connector-curvature="0"
       sodipodi:nodetypes="ssssssscs" />
    <path
       style="fill:none;stroke:#000000;stroke-width:1.5;stroke-linecap:butt;stroke-linejoin:miter;stroke-opacity:1;display:inline"
       d="m 91.759272,179.88931 c 2.392434,7.76825 8.425188,20.43634 12.537348,26.81307 3.54464,5.49666 50.6999,35.36658 82.88118,47.064 9.6115,3.49363 34.33701,-0.41638 40.19872,-12.56155 5.30834,-10.99864 10.44407,-25.07721 13.69796,-33.88051 3.95603,-10.70295 14.46112,-35.11526 14.41715,-51.67454 -0.0166,-6.2674 0.79351,-24.90927 0.28572,-32.72071 -0.42342,-6.51368 3.45017,-20.94044 3.94064,-26.691897 0.72294,-8.475929 -3.05626,-17.852518 -4.27531,-25.440498 C 253.21287,56.917159 249.68391,40.12959 245.76699,30.881253 236.12783,8.1220681 216.99665,-8.6362294 192.02485,-17.009534 155.8262,-29.147386 100.96343,-18.082107 78.343881,5.5083977 63.755857,20.722627 50.498419,37.297724 45.154698,62.667118 c -2.855183,13.555036 -0.03611,67.100112 6.259699,77.664742 4.277399,7.17782 26.630439,47.69165 29.19996,54.81687"
       id="path6635-6-9-1-1-7-5-8"
       inkscape:connector-curvature="0"
       sodipodi:nodetypes="csssssssssssssc" />
    <path
       style="fill:none;stroke:#000000;stroke-width:1.5;stroke-linecap:butt;stroke-linejoin:miter;stroke-opacity:1;display:inline"
       d="m 204.50363,109.12948 c 0.54063,2.80824 0.68893,7.63488 -0.29106,10.72616"
       id="path6643-0-0-5-2-6-1-6"
       inkscape:connector-curvature="0"
       sodipodi:nodetypes="cc" />
    <path
       style="fill:#000000;stroke:none;display:inline;stroke-width:1.5"
       d="m 194.92622,120.26415 c -7.45195,1.69681 -12.33658,-3.16721 -25.46713,-3.40516 -10.29913,-0.18664 -30.7352,2.68344 -26.67452,1.09226 7.54794,-2.95768 16.11665,-3.73327 26.99057,-4.32027 6.4696,-0.34926 12.42977,0.51134 19.46793,0.65403 5.73384,0.11625 19.70495,2.78639 5.68315,5.97914 z"
       id="path6645-7-0-4-0-3-7-5"
       inkscape:connector-curvature="0"
       sodipodi:nodetypes="ssssss" />
    <path
       style="fill:#000000;stroke:none;display:inline;stroke-width:1.5"
       d="m 258.26126,89.887385 c -2.11156,-0.587963 -15.08955,5.804775 -20.26462,8.701 -6.07282,3.398645 -17.41487,12.122085 -14.83615,12.796045 7.6853,2.00866 10.77823,-4.67321 16.58458,-10.19881 5.77734,-5.497987 21.16574,-10.56047 18.51619,-11.298235 z"
       id="path6647-1-6-2-0-5-1-0"
       inkscape:connector-curvature="0"
       sodipodi:nodetypes="sssss" />
    <path
       style="fill:none;stroke:#000000;stroke-width:1.5;stroke-linecap:butt;stroke-linejoin:miter;stroke-opacity:1;display:inline"
       d="m 195.40243,171.84268 c -1.13733,3.8419 -0.99217,11.13306 4.22469,12.61016"
       id="path6649-7-1-0-1-6-1-9"
       inkscape:connector-curvature="0"
       sodipodi:nodetypes="cc" />
    <path
       style="fill:none;stroke:#916f6f;stroke-width:1.5;stroke-linecap:butt;stroke-linejoin:miter;stroke-opacity:1;display:inline"
       d="m 194.31649,129.68334 c -2.32665,1.88519 -5.39961,8.50852 -9.12223,9.58794 -5.00443,1.4511 -8.22368,2.59026 -12.3907,2.83615 -3.95323,0.23329 -11.82524,-5.7519 -15.91704,-7.42022"
       id="path3339-7-3-9-4-5-5-0"
       inkscape:connector-curvature="0"
       sodipodi:nodetypes="cssc" />
    <path
       style="fill:none;stroke:#000000;stroke-width:1.5;stroke-linecap:butt;stroke-linejoin:miter;stroke-opacity:1;display:inline"
       d="m 195.58071,130.80643 c -2.24815,-1.2522 -6.58128,-4.61066 -9.53465,-4.85122 -3.79899,-0.30944 -11.09056,1.94859 -18.83166,3.79478 -3.62579,0.86472 -7.94047,3.17923 -12.41167,5.95556"
       id="path3337-7-8-7-6-8-2-0"
       inkscape:connector-curvature="0"
       sodipodi:nodetypes="cssc" />
    <path
       style="fill:none;stroke:#916f6f;stroke-width:1.5;stroke-linecap:butt;stroke-linejoin:miter;stroke-opacity:1;display:inline"
       d="m 252.67154,111.28155 c -1.22114,3.03112 -4.25983,11.73566 -6.37083,12.82792 -1.43583,0.74292 -6.385,3.44939 -11.34233,3.49098 -1.37397,0.0115 -10.32073,-3.60695 -11.16217,-4.37961"
       id="path3355-7-9-3-0-3-7-6"
       inkscape:connector-curvature="0"
       sodipodi:nodetypes="cssc" />
    <path
       style="fill:none;stroke:#000000;stroke-width:1.5;stroke-linecap:butt;stroke-linejoin:miter;stroke-opacity:1;display:inline"
       d="m 254.23539,112.65326 c -1.93538,-1.39036 -3.28095,-3.44599 -5.60283,-3.11688 -3.14346,0.44556 -12.00745,2.76841 -15.96368,5.04337 -2.21415,1.27322 -6.81877,6.71818 -10.16142,10.58297"
       id="path3353-3-3-7-7-9-6-1"
       inkscape:connector-curvature="0"
       sodipodi:nodetypes="cssc" />
    <path
       style="fill:#deaa87;stroke:#000000;stroke-width:1.5;stroke-linecap:butt;stroke-linejoin:miter;stroke-opacity:1;display:inline"
       d="m 87.955302,176.15698 c -3.935617,-5.6033 -18.506776,4.3867 -23.876362,-9.24504 -3.407514,-8.65073 -8.000899,-14.45484 -11.267094,-31.90082 -3.238835,-17.29996 1.053777,-27.12791 5.659786,-29.71 7.827302,-4.38782 14.422093,-0.31369 20.119086,4.41675"
       id="path6637-1-1-2-1-4-1-3"
       inkscape:connector-curvature="0"
       sodipodi:nodetypes="csssc" />
    <path
       style="opacity:0.94999999999999996;fill:none;stroke:#000000;stroke-width:1.5;stroke-linecap:butt;stroke-linejoin:miter;stroke-opacity:1;display:inline"
       d="m 68.829767,155.32029 c 1.739992,-4.31988 7.250873,-8.99929 8.12772,-15.0945 0.830866,-5.77545 2.166894,-11.66987 0.559146,-15.40908 -2.431993,-5.65605 -10.711256,-16.86048 -15.009685,-15.85722 -3.446999,0.80453 -5.823012,6.69107 -6.471574,12.83612 -1.589746,15.06242 7.291986,34.25061 15.246583,34.75996 4.458571,0.28548 11.303658,9.43753 12.806245,6.19286 1.472835,-3.18066 -3.513912,-8.44799 -4.20734,-11.31464 -0.417826,-1.72712 3.233719,-8.08207 3.419804,-12.60235"
       id="path6639-8-8-6-7-8-4-8"
       inkscape:connector-curvature="0"
       sodipodi:nodetypes="csssssssc" />
    <path
       style="fill:#deaa87;stroke:none;display:inline;stroke-width:1.5"
       d="m 200.95275,220.11852 c -1.04536,-2.79455 6.59711,-5.57631 12.82757,-7.70208 6.47738,-2.20997 12.25566,-2.60827 12.11521,-0.26124 -0.27719,4.63286 -3.68578,8.81867 -11.2065,11.46234 -6.26727,2.20306 -12.17385,0.67851 -13.73628,-3.49902 z"
       id="path6710-3-4-7-4-0-6-2-4"
       inkscape:connector-curvature="0"
       sodipodi:nodetypes="sssss" />
    <path
       style="fill:none;stroke:#916f6f;stroke-width:1.5;stroke-linecap:butt;stroke-linejoin:miter;stroke-opacity:1"
       d="m 235.04419,165.48138 c 2.37049,7.33829 0.49123,10.32104 -1.77217,13.49772"
       id="path4597"
       inkscape:connector-curvature="0"
       sodipodi:nodetypes="cc" />
    <g
       id="g4720"
       transform="matrix(0.32574505,0,0,0.32574505,245.83653,78.51915)"
       style="stroke-width:4.60482836">
      <path
         sodipodi:nodetypes="cssccsssscc"
         inkscape:connector-curvature="0"
         id="path6627-9-63"
         d="m 424.82173,-410.4917 c -7.34697,-1.3322 -43.05253,8.25228 -57.07654,12.88087 -9.94049,3.28092 -20.02638,6.22404 -30.4014,4.83163 -25.78412,-3.46042 -72.80638,5.92443 -99.58342,9.97367 -3.25829,5.63149 -4.33263,7.91118 -4.81149,11.53505 24.19307,15.01999 48.42698,23.58386 66.355,25.7763 13.35733,1.63339 33.49267,-16.80752 39.58221,-21.84535 3.36736,-2.78583 14.9374,-4.68073 17.99956,-3.02614 6.73693,3.64017 18.54255,19.33675 31.02708,15.15591 10.07241,-3.373 27.68667,-19.97248 35.78533,-35.22629 0.96563,-3.48187 1.56568,-13.72364 1.12367,-20.05565 z"
         style="opacity:0.95;fill:#280b0b;stroke:none;display:inline" />
      <path
         sodipodi:nodetypes="csssscc"
         inkscape:connector-curvature="0"
         id="path6641-9-6"
         d="m 239.68197,-382.47763 -113.38084,-32.84396 c -25.4237,-7.36468 -37.763335,34.77405 -41.183325,58.15928 -1.7303,11.83141 14.77095,19.42034 18.756405,3.21538 3.99135,-16.22875 -0.0765,-61.18301 20.42913,-53.91016 l 112.8292,40.01683 z"
         style="opacity:0.95;fill:#241c1c;stroke:none;display:inline" />
    </g>
    <path
       style="fill:#000000;stroke:none;opacity:0.75"
       d="M -63.617556,-62.640885 -45.587519,417.54922 391.00688,401.77794 405.00848,156.09895 -20.625982,165.43998 -24.571512,98.514151 382.64089,63.658674 381.70534,-55.156467 z"
       id="path7983"
       inkscape:connector-curvature="0"
       sodipodi:nodetypes="ccccccccc" />
  </g>
  <g
     inkscape:groupmode="layer"
     id="layer7"
     inkscape:label="枠面"
     style="display:inline"
     sodipodi:insensitive="true">
    <path
       style="fill:#ffffff;stroke:none;display:inline"
       d="m 0,0 0,320 370,0 0,-320 -10,10 0,300 -350,0 0,-300 350,0 10,-10 z"
       id="path21072"
       inkscape:connector-curvature="0"
       sodipodi:nodetypes="ccccccccccc" />
  </g>
</svg>
